<?xml version="1.0" encoding="UTF-8"?>
<svg xmlns="http://www.w3.org/2000/svg" width="180.34" height="399.63" viewBox="389.83 57.19 180.34 399.63" style="background-color:#000000">
  <!-- Created using SVG Map Generator: dojo.amcharts.com/svg-map-generator -->
  <style>
    .land { fill: #ffffff; stroke: #000000; stroke-width: 0.65; }
  </style>
  <g id="polygons">
    <path d="M445.51,297.09L445.67,298.72L449.47,301.77L450.81,298.41L454.72,297.76L458.13,295.69L462.34,295.93L465.82,294.25L466.44,301.93L473.09,305.99L475.78,310.96L480.91,314.8L483.6,313.68L486.95,316.78L493.43,315.61L495.04,317.79L498.68,326.61L500.93,328.39L502.8,332.81L507.8,333.01L505.54,339.24L507.07,341.64L508.57,351.48L504.14,352.33L501.65,351.72L500.47,354.18L501.54,357.16L495.72,357.81L494.28,360.7L491.04,362.88L486.2,357.13L485.46,354.88L482.04,354.57L481.87,352.17L477.45,346.15L473.23,343.99L467.03,345.23L463.24,344.47L460.57,345.71L454.5,343.79L454.24,340.64L449.76,336.38L449.17,333.4L446.33,329.25L448.14,327.04L447.43,322.5L442.88,316.45L441.56,310.2L439.49,306.75L439.54,303.5L441.25,298.79L443.95,299.54Z" class="land" id="AL-01" title="Berat"/>
    <path d="M485.24,164.45L488.88,164.54L494.05,161.49L498.03,162.44L497.55,168.18L499.54,171.09L502.03,171.5L505.86,170L506.09,166.82L514.82,167.03L518.67,164.86L518.66,170.63L519.82,175.3L517.24,176.42L514.71,180.37L514.11,183.86L515.54,188.68L514.23,192.28L516.9,197.42L518.23,202.71L514.83,204.94L509.7,205.61L509.9,207.99L508.24,210.24L512.14,214.53L513.42,220.54L518.25,224.41L517.68,229.89L514.25,234.93L512.4,236.28L513.66,241.27L505.89,242.04L503.85,239.54L499.31,241.88L499.29,235.06L496.08,233.03L496.39,230.37L494.34,228.67L491.06,228.88L486.35,232.75L484.5,233.32L482.14,230.83L479.76,231.1L475.61,225.17L470.47,225.97L467.62,223.12L464.71,222.07L463.22,217.94L461.09,214.91L456.98,211.73L454.87,211.49L452.02,207.29L448.05,202.8L447.31,197.95L445.38,195.2L444.59,189.68L442.22,187.24L446.79,183.66L449.08,186.26L452.33,186.46L454.98,185.36L459.91,187.34L460.87,185.27L463.7,183.58L466.22,185.83L468.48,185.27L471.81,179.41L482.18,178.27L481.61,173.42L480.03,172.48L480.25,168.54L482.41,165.01Z" class="land" id="AL-09" title="Dibër"/>
    <path d="M419.87,203.5L422.9,204.16L431.07,207.25L436.39,207.28L443.45,205.38L448.05,202.8L452.02,207.29L454.87,211.49L454.78,213.41L450.11,219.93L443.95,220.75L438.27,225.36L435.68,225.54L433.7,224.05L432.29,220.28L428.63,220.41L425.68,222.23L425.91,228.47L427.76,231.7L427.15,235.44L427.86,239.58L423.9,245.69L422,244.07L415.86,244.23L413.67,239.52L411.81,238L407.54,238.2L406.25,236.44L406.19,228.39L409.02,225.89L410.1,221.39L413.12,218.91L415.68,213.95L414.71,208.24L411.33,206.92L411.9,203.75L415.45,204.43Z" class="land" id="AL-02" title="Durrës"/>
    <path d="M484.5,233.32L486.35,232.75L491.06,228.88L494.34,228.67L496.39,230.37L496.08,233.03L499.29,235.06L499.31,241.88L503.85,239.54L505.89,242.04L513.66,241.27L514.79,246.87L514.12,248.75L516.11,253.1L518.38,253.97L522.01,262.22L520.78,264.52L522.5,267.13L523.68,270.56L522.54,275.66L517.65,275.49L512.33,276.61L504.76,280.87L503.82,286.49L501.92,288.83L503.18,292.17L505.8,295.24L509.99,302.54L509.35,307.71L505.62,313.66L502.81,312.69L498.03,312.41L496.26,314.53L493.43,315.61L486.95,316.78L483.6,313.68L480.91,314.8L475.78,310.96L473.09,305.99L466.44,301.93L465.82,294.25L462.34,295.93L458.13,295.69L454.72,297.76L450.81,298.41L449.47,301.77L445.67,298.72L445.51,297.09L445.84,294.19L443.67,292.25L444.64,285.83L443.47,281.43L444.57,278.56L433.93,276.38L431.3,272.25L434.17,270.49L435.19,267.38L438.43,264.74L440.78,261.56L442.71,263.03L446.27,262.23L452.16,256.73L457.05,254.78L462.35,250.6L465.27,244.9L467.9,243.18L472.41,244.81L477.08,241.64L476.77,238.64L479.12,236.12Z" class="land" id="AL-03" title="Elbasan"/>
    <path d="M407.84,279.08L410.22,278.45L409.42,275.77L412.92,272.64L420.14,273.46L422.1,270.56L426.02,269.98L429.65,270.61L431.3,272.25L433.93,276.38L444.57,278.56L443.47,281.43L444.64,285.83L443.67,292.25L445.84,294.19L445.51,297.09L443.95,299.54L441.25,298.79L439.54,303.5L439.49,306.75L441.56,310.2L442.88,316.45L447.43,322.5L448.14,327.04L446.33,329.25L449.17,333.4L449.76,336.38L454.24,340.64L454.5,343.79L452.1,343.92L446.55,349.75L445.74,351.85L441.97,354.74L440.06,351.73L437.7,350.65L438.54,344.87L435.35,344.18L436.89,341.67L433.03,340.76L426.23,336.45L421.56,336.54L420.23,332.6L413.79,329.68L413.07,327.48L409.94,326.61L409.42,323.73L404.56,325.91L403.49,323.96L399.82,322.73L395.36,324.46L399.24,319.53L400.99,315.91L401.72,302.74L404.4,297.21L405.86,289.3L409.68,289.49L411.76,281.82L409.75,279.27Z" class="land" id="AL-04" title="Fier"/>
    <path d="M454.5,343.79L460.57,345.71L463.24,344.47L467.03,345.23L473.23,343.99L477.45,346.15L481.87,352.17L482.04,354.57L485.46,354.88L486.2,357.13L491.04,362.88L494.28,360.7L495.72,357.81L501.54,357.16L500.47,354.18L501.65,351.72L504.14,352.33L508.57,351.48L507.73,357.28L511.2,361.49L509.23,365.72L510.69,368.84L510.9,373.48L512.45,376.69L514.23,382.84L517.64,387.22L517.46,389.85L520.11,392.78L521.53,396.87L523.33,398.67L517.78,400.28L513.83,397.86L511.59,400.36L507.9,399.07L504.84,400.72L502.59,406.52L502.19,409.2L499.98,410.09L494.14,409.85L497.39,415.51L496.69,418.44L499.1,420.24L501.65,425.64L504.33,429.28L503.79,433.03L501.89,435.66L499.7,435.87L497.93,433.98L493.3,432.24L490.3,428.83L488.28,423.19L485.77,420.32L485.94,415.95L482.24,414.79L474.07,407.96L473.48,406.25L467.32,399.93L465.91,400.92L462.85,398.87L459.36,400.45L455.32,391.72L450.78,388.27L449.07,382.71L446.59,378.75L444.13,370.04L439.07,364.4L444.71,358.53L441.97,354.74L445.74,351.85L446.55,349.75L452.1,343.92Z" class="land" id="AL-05" title="Gjirokastër"/>
    <path d="M523.33,398.67L521.53,396.87L520.11,392.78L517.46,389.85L517.64,387.22L514.23,382.84L512.45,376.69L510.9,373.48L510.69,368.84L509.23,365.72L511.2,361.49L507.73,357.28L508.57,351.48L507.07,341.64L505.54,339.24L507.8,333.01L502.8,332.81L500.93,328.39L498.68,326.61L495.04,317.79L493.43,315.61L496.26,314.53L498.03,312.41L502.81,312.69L505.62,313.66L509.35,307.71L509.99,302.54L505.8,295.24L503.18,292.17L501.92,288.83L503.82,286.49L504.76,280.87L512.33,276.61L517.65,275.49L522.54,275.66L523.68,270.56L522.5,267.13L529.58,268.06L535.55,290.64L542.99,292.31L544.51,291.49L546.93,287.12L552.41,289.77L556.51,289.08L560.14,292.99L560.42,305.74L557.65,308.91L560.23,309.97L560.32,313.2L564.22,316.83L567.52,322.5L567.48,328.2L565.99,332.13L566.13,336.5L562.62,337.1L561.78,339.66L558.93,341.48L558.85,345.35L554.8,348.96L552.81,347.24L549.35,347.86L546.52,346.67L544.39,351.05L540.78,353.61L541.47,359.19L539.9,362.67L535.98,368.54L533.21,374.04L534.54,375.96L534.82,379.53L533.02,382.9L530.46,384.73L529.95,387.31L531.78,389L530.03,392.21L530.28,396.14L525.09,396.84Z" class="land" id="AL-06" title="Korçë"/>
    <path d="M518.67,164.86L514.82,167.03L506.09,166.82L505.86,170L502.03,171.5L499.54,171.09L497.55,168.18L498.03,162.44L494.05,161.49L488.88,164.54L485.24,164.45L486.03,157.99L490.66,153.01L489.71,148.35L489.97,145.34L488.28,143.42L485.79,142.6L483.04,136.84L481.18,135.87L480.74,132.47L483.27,128.19L486.81,125.61L487.72,123.35L482.36,121.07L481.65,119.73L477.34,119.14L465.65,111.86L459.37,112.95L455,112.58L453.77,114.67L450.41,115.39L447.95,112.49L449.13,108.22L447.45,101.49L445.86,98.48L446.78,94.66L444.91,89.99L446.55,85.31L447.43,83.67L453.27,82.79L454.15,80.01L457.77,78.51L463.73,79.51L464.85,75.3L468.86,73.04L471.94,74.02L473.13,76.37L479.78,80.08L482.33,87.25L485.01,89.6L485.7,91.97L483.91,94.19L487.52,98.37L487.46,104.31L495.63,103.91L498.24,106.38L502.26,107.84L503.33,109.6L508.63,111.45L514.98,119.25L515.77,122.87L519.26,131.2L518.04,136.56L521.95,141.85L523.84,149.47L525.09,152.41L524.39,155.47L520.21,158.6L521.9,162.77Z" class="land" id="AL-07" title="Kukës"/>
    <path d="M488.28,143.42L489.97,145.34L489.71,148.35L490.66,153.01L486.03,157.99L485.24,164.45L482.41,165.01L480.25,168.54L480.03,172.48L481.61,173.42L482.18,178.27L471.81,179.41L468.48,185.27L466.22,185.83L463.7,183.58L460.87,185.27L459.91,187.34L454.98,185.36L452.33,186.46L449.08,186.26L446.79,183.66L442.22,187.24L444.59,189.68L445.38,195.2L447.31,197.95L448.05,202.8L443.45,205.38L436.39,207.28L431.07,207.25L422.9,204.16L419.87,203.5L422.45,200.47L424.43,195.51L420.58,192.17L421.8,189.22L422.33,184.55L420.81,180.89L421.62,178.39L423.82,178.32L423.79,172.96L421.57,172.46L417.55,169.4L413.23,167.46L413.54,161.87L409.82,158.43L412.25,156.35L418.41,161.18L421.6,161L420.73,158.4L420.96,154.37L422.49,153.34L426.96,154.65L427.12,157.35L433.23,157.22L437.29,160.7L440.18,158.64L440.89,155.39L444.64,153.63L446.29,155.18L449.96,154.29L452.61,151.95L457.47,152.17L460.16,162.52L463.89,161.91L465.71,163.29L469.14,156.74L472.83,154.13L473.95,150.16Z" class="land" id="AL-08" title="Lezhë"/>
    <path d="M446.55,85.31L444.91,89.99L446.78,94.66L445.86,98.48L447.45,101.49L449.13,108.22L447.95,112.49L450.41,115.39L453.77,114.67L455,112.58L459.37,112.95L465.65,111.86L477.34,119.14L481.65,119.73L482.36,121.07L487.72,123.35L486.81,125.61L483.27,128.19L480.74,132.47L481.18,135.87L483.04,136.84L485.79,142.6L488.28,143.42L473.95,150.16L472.83,154.13L469.14,156.74L465.71,163.29L463.89,161.91L460.16,162.52L457.47,152.17L452.61,151.95L449.96,154.29L446.29,155.18L444.64,153.63L440.89,155.39L440.18,158.64L437.29,160.7L433.23,157.22L427.12,157.35L426.96,154.65L422.49,153.34L420.96,154.37L420.73,158.4L421.6,161L418.41,161.18L412.25,156.35L409.82,158.43L413.54,161.87L413.23,167.46L409.03,166.16L404.48,165.95L401.84,163.8L400.8,160.97L401.2,156.85L399.42,153.29L402.57,152.56L401.26,142.24L402.28,137.54L404.38,133.57L392.48,123.45L399.18,115.4L402.44,110.17L402.71,108.18L406.41,103.89L405.61,100.79L408.03,96.54L411.36,95.14L414.62,89.08L415.94,88.51L420.38,78.95L425.62,75.23L425.16,70.55L429.96,63.92L432.05,63.61L434.28,60.18L436.99,59.84L439.03,65.54L441.16,68.19L439.05,70L438.23,75.14L440.23,80.53L442.95,83.23Z" class="land" id="AL-10" title="Shkodër"/>
    <path d="M454.87,211.49L456.98,211.73L461.09,214.91L463.22,217.94L464.71,222.07L467.62,223.12L470.47,225.97L475.61,225.17L479.76,231.1L482.14,230.83L484.5,233.32L479.12,236.12L476.77,238.64L477.08,241.64L472.41,244.81L467.9,243.18L465.27,244.9L462.35,250.6L457.05,254.78L452.16,256.73L446.27,262.23L442.71,263.03L440.78,261.56L438.43,264.74L435.19,267.38L434.17,270.49L431.3,272.25L429.65,270.61L426.02,269.98L422.1,270.56L420.14,273.46L412.92,272.64L409.42,275.77L410.22,278.45L407.84,279.08L409.42,271.23L409.57,264.07L407.83,259.81L411.12,258.13L412.26,252.89L414.69,250.09L415.86,244.23L422,244.07L423.9,245.69L427.86,239.58L427.15,235.44L427.76,231.7L425.91,228.47L425.68,222.23L428.63,220.41L432.29,220.28L433.7,224.05L435.68,225.54L438.27,225.36L443.95,220.75L450.11,219.93L454.78,213.41Z" class="land" id="AL-11" title="Tiranë"/>
    <path d="M395.36,324.46L399.82,322.73L403.49,323.96L404.56,325.91L409.42,323.73L409.94,326.61L413.07,327.48L413.79,329.68L420.23,332.6L421.56,336.54L426.23,336.45L433.03,340.76L436.89,341.67L435.35,344.18L438.54,344.87L437.7,350.65L440.06,351.73L441.97,354.74L444.71,358.53L439.07,364.4L444.13,370.04L446.59,378.75L449.07,382.71L450.78,388.27L455.32,391.72L459.36,400.45L462.85,398.87L465.91,400.92L467.32,399.93L473.48,406.25L474.07,407.96L482.24,414.79L485.94,415.95L485.77,420.32L488.28,423.19L490.3,428.83L493.3,432.24L491.82,433.79L493.56,436.65L492.08,438.85L494.92,442.41L492.78,445.29L484.91,451.56L485.35,454L482.09,454.16L476.06,452.88L472.34,449.46L465.81,447.76L461.77,448.58L462.98,443.58L461.86,438.26L464.09,436.82L463.51,434.26L465.31,426.51L461.8,425.3L459.06,422.02L454.5,420.09L457.16,416.04L449.85,403.91L447.13,402.03L444.7,402.69L433.7,393.04L429.61,392.42L427.89,390.47L421.71,386.33L414.66,383.28L408.49,378.33L407.35,376.18L401.45,368.92L401.1,364.3L398.44,359.76L393.28,354.31L396.44,352.05L400.15,354.21L403.87,358.4L405.3,362.3L404.99,364.6L407.56,367.22L412.42,364.03L412.18,355.11L413.43,350.87L410.23,349.14L406.81,344.57L404.79,344.18L402.19,339.83L401.87,335.71L398.22,327.91Z" class="land" id="AL-12" title="Vlorë"/>
  </g>
</svg>