<?xml version="1.0" encoding="UTF-8"?>
<svg xmlns="http://www.w3.org/2000/svg" width="460.33" height="399.63" viewBox="249.84 57.19 460.33 399.63" style="background-color:#000000">
  <!-- Created using SVG Map Generator: dojo.amcharts.com/svg-map-generator -->
  <style>
    .land { fill: #ffffff; stroke: #000000; stroke-width: 0.65; }
  </style>
  <g id="polygons">
    <path d="M288.5,337L296.01,336.41L297.55,335.01L299.29,337.99L304.11,337.52L307.56,339.4L316.6,339.51L318.61,338.4L318.48,335.9L320.26,331.47L318.81,330.22L320.5,327.58L320.74,324.6L326.22,320.75L325.9,323.53L329.85,324.4L337.28,323.07L339.77,328.6L342.4,327.06L341.68,331.87L353.62,328.28L355.2,326.87L353.71,324.21L359.21,324.08L360.27,319.64L367.09,315.8L367.73,306.68L367.14,300.6L370.53,292.45L370.2,290.28L372.23,288.15L376.79,289.34L382.39,287.59L388.63,290.85L392.64,289.67L393.89,290.33L400.43,290.36L403.52,290.92L405.44,294.51L404.74,299.19L402.76,299.26L399.87,305.01L401.7,305.68L405.76,310.5L408.71,310.46L410.6,313.03L408.73,315.41L408.22,319.64L404.75,321.27L408.18,327.02L404.7,330.52L404.86,332.88L407.48,334.39L410.65,330.75L412.71,332.21L414.16,328.26L418.94,332.11L421.95,331.58L422.48,335.76L424.22,338.03L427.47,337.59L431.83,340.65L434.38,337.14L436.85,344.94L434.89,345.54L435.56,352.24L436.5,354.48L436.62,359.89L439.75,360.02L441.75,365.41L444.73,365.36L447,367.52L446.54,372.96L451.63,372.9L453.34,375.54L456.17,375.67L459.25,377.81L460.42,381.63L458.39,389.09L458.61,392.81L463,395.32L462.8,398.06L458.41,401.89L459.52,405.8L457.74,408.97L460.63,412.34L457.91,418.36L457.01,423.25L458.44,425.76L457.82,429.49L455.38,426.92L454.13,428.15L445.49,428.29L446.89,424.38L443.81,423.61L443.48,415.24L433.58,415.63L431.41,418.19L426.63,415.83L424.1,416.53L422.01,412.97L419.18,411.3L412.74,412.2L408.78,413.26L403.78,408.34L400.91,408.53L396.98,407.65L393.92,408.18L390.84,404.7L386.84,403.01L382.71,404.39L378.19,403.63L372.61,404.23L367.72,403.78L364.12,402.47L363.34,403.83L358.53,404L355,402.79L351.38,400.31L348.16,400.22L343.48,401.59L337.27,405.76L335.07,404.67L331.52,405.76L330.61,404.53L327.44,406.8L321.34,405.33L314.08,406.91L309.8,406.86L305.45,413.02L306.53,417.05L304.29,419.52L297.24,423.42L295.05,426.89L291.32,429.94L285.71,427.86L287.3,426.04L283.27,424.94L281.07,423.34L272.84,426.6L275.5,429.84L274.23,432.14L276.11,435.66L273.54,435.77L269.6,428.26L269.48,425.1L270.49,420.92L269.13,417.64L273.86,414.72L274.33,413.13L272.5,410.04L274.32,401.72L276.61,398.43L275.38,394.74L272.35,388.71L270.43,388.59L267.09,385.97L265.64,383.47L262.67,382.26L253.71,380.27L253.63,376.46L252.49,375.8L258.97,364.34L263.99,357.34L266.59,354.71L271.64,351.75L277.73,350.1L278.81,350.7L288.47,342.43Z" class="land" id="BY-BR" title="Brest"/>
    <path d="M461.96,243L465.22,244.83L469.45,243.74L468.96,246.09L466.3,247.44L467.18,250.44L472.72,252.68L469.94,255.12L468.22,253.9L463.52,254.44L454.68,253.05L453.67,247.15L455.96,243.89Z" class="land" id="BY-HM" title="Minsk City"/>
    <path d="M503.57,344.88L505.57,344.04L509.2,344.76L511.94,343.45L517.07,344.27L519.7,337.9L521.94,338.63L524.03,337.55L527.81,332.26L527.54,330.31L534.93,329.27L534.31,326.47L537.12,322.02L541.09,322.33L541.84,323.48L547.82,323.94L549.1,325.64L553.89,322.74L558.89,322.68L560.78,324.06L563.42,323.22L563.96,321.22L560.74,319.58L558.71,312.44L559.29,310.04L565,308.72L564.47,305.04L566.75,304.22L564.78,298.44L564.74,295.16L569.28,291.7L569.81,294.23L573.8,295.74L574.46,293.59L580.39,294.99L582.1,297.16L583.47,301.6L587.59,301.64L594.25,299.75L595.84,297.31L598.04,297.99L600.35,295.01L608.14,296.64L608.7,299.21L612.68,297.12L615.98,297.59L616.63,295.94L624.19,295.45L622.52,298.44L625.85,299.86L626.74,304L629.69,306.51L629.36,308.8L633.5,308.42L634.31,310.67L639.31,310.82L640.93,312.27L639.64,312.66L639.4,316.56L635.3,317.56L640.65,321.05L641.53,325.61L646.73,330.86L649.33,331.01L649.05,334.17L651.68,336.17L652.31,340.07L650.46,342.85L647.38,343.94L650.34,347.55L650.56,351.52L653.78,354.12L652.05,356.56L653.4,359.81L652.41,364.95L653.71,366.96L653.47,375.36L656.3,376.39L657.46,379.5L656.43,382.77L660.85,383.41L661.68,388.48L658.05,390.4L655.69,388.92L648.45,388.07L645.27,386.93L639.15,389.67L637.86,393.73L635.82,394.52L630.51,389.91L620.58,392.15L621.28,393.93L618.28,399.06L614.71,401.76L614.39,405.6L611.76,405.32L609.31,410.38L605.94,419.77L603.1,420.38L603.69,422.54L600.57,425.55L601.41,431.27L604.32,437.8L604.09,441.55L607.34,445.16L607.16,448.32L604.46,450.24L604.45,452.65L601.97,454.16L598.23,450.79L595.42,450.58L591.73,446.77L593.18,445.44L592.42,442.26L590,438.96L585.86,436.55L581.88,437.06L577.01,435.81L574.62,438.34L571.28,437.33L566.41,440.57L564.11,439.36L563.72,433.87L557.6,436.8L556.41,438.98L554.35,437.65L552.54,443.85L548.27,442.83L545.55,445.05L544.14,443.5L543.19,439.58L541.47,439.02L540.48,436.41L540.76,431.03L536.49,426.36L533.85,424.58L530.12,429.36L524.41,429.37L520.43,431.51L517.48,437.08L517.9,441.63L513.78,440.08L511.83,432.03L503.71,428.96L500.04,432.17L497.76,430.42L494.8,426.67L493.64,422.17L489.6,424.92L488.67,427.83L486.32,430.02L478.55,431.66L477.2,427.19L474.55,426.14L473.13,430.64L474.19,432.89L471.85,433.71L469.77,438.09L465.38,434.87L468.04,431.24L468.22,428.23L464.56,427.31L463.38,428.14L460.01,425.75L458.44,425.76L457.01,423.25L457.91,418.36L460.63,412.34L457.74,408.97L459.52,405.8L458.41,401.89L462.8,398.06L463,395.32L458.61,392.81L458.39,389.09L460.42,381.63L459.25,377.81L456.17,375.67L453.34,375.54L451.63,372.9L446.54,372.96L447,367.52L451.48,362.81L450.29,359.86L452.83,356.62L455.78,357.2L464.03,356.98L464.51,360.61L468.24,362.92L468.48,364.4L472.31,364.01L476.63,365.2L479.28,364.41L481.05,358.04L487.15,357.24L487.72,360.12L490.97,361.01L497.7,359.94L502.03,355.62L502.1,347.6Z" class="land" id="BY-HO" title="Homyel'"/>
    <path d="M396.09,158.54L398.09,159.55L399.89,163.22L403.78,167.58L402.24,170.01L402.86,172.4L406.64,172.1L410.38,177.6L412.5,178.49L412.24,182.09L413.8,186.53L418.01,188.51L417.56,200.32L414.92,207.09L413.25,207.02L409.72,213.98L406.83,216.54L404.75,221.04L401.27,223.15L397.68,220.82L396.02,220.94L391.32,225.14L388.28,225.58L386.79,228.81L390.85,231.07L393.47,234.13L394.38,237.59L395.99,238.18L401.6,235.46L403.06,241.52L405.28,239.74L407.08,243.9L404.54,248.24L400.43,250.71L397.37,250.95L397.21,254L401.18,263.69L404.01,264.51L405.42,268.43L407.37,270.15L409.4,274.01L412.26,275.42L412.92,285.26L414.05,287.91L410.89,289.07L408.34,288.74L403.52,290.92L400.43,290.36L393.89,290.33L392.64,289.67L388.63,290.85L382.39,287.59L376.79,289.34L372.23,288.15L370.2,290.28L370.53,292.45L367.14,300.6L367.73,306.68L367.09,315.8L360.27,319.64L359.21,324.08L353.71,324.21L355.2,326.87L353.62,328.28L341.68,331.87L342.4,327.06L339.77,328.6L337.28,323.07L329.85,324.4L325.9,323.53L326.22,320.75L320.74,324.6L320.5,327.58L318.81,330.22L320.26,331.47L318.48,335.9L318.61,338.4L316.6,339.51L307.56,339.4L304.11,337.52L299.29,337.99L297.55,335.01L296.01,336.41L288.5,337L287.83,333.21L287.43,324.77L288.84,323.12L287.84,317.95L285.33,313.51L287.48,307.47L284.96,304.51L284.55,301.6L282.77,300.57L275.27,278.58L271.75,263.95L271.58,260.8L270,258.68L270.16,252.13L268.82,251.2L268.23,247.25L269.38,244.58L272.87,246L277.71,244.93L282.02,245.26L287.46,242.57L290.99,245.97L296.23,244.94L296.85,243.5L301.02,242.46L306.34,247.66L313.07,247.37L313.93,245.67L320.93,239.19L324.71,238.72L324.13,242.99L327.96,240.56L331.36,239.43L330.37,234.25L328.09,230.94L336.97,226.07L338.66,228.43L342.46,229.1L348.59,222.14L349.47,218.98L353.34,218.78L358.37,217.1L359,215.82L365.66,217.82L366.93,221.55L365.6,224.05L363.38,224.97L364.3,227.36L369.38,229.59L372.43,226.36L375.91,226.43L374.7,222.18L374.56,218.05L372.27,217.44L371.54,214.05L365.15,214.51L365.68,210.4L368.85,205.71L368.35,203.58L371.33,196.48L375.1,193.09L373.73,184.53L374.52,178.98L373.89,174.62L375.82,172.63L376.11,170.04L379.44,166.69L379.75,164.17L381.99,163.92L385.6,161.76L390.29,162.1L392.16,159.36Z" class="land" id="BY-HR" title="Hrodna"/>
    <path d="M547.61,220.21L551.81,219.42L555.98,212.34L558.29,212.41L565.37,214.3L568.71,212.67L575.34,217.52L577.65,217.21L581.77,211.49L582.77,208.79L589.75,213.24L588.91,215.85L592.38,216.76L593.86,214.38L601.44,217.02L605.12,209.61L609.04,208.25L610.03,205.27L617.47,207.86L619.22,204.39L624.29,205.6L627.11,204.88L633.45,201.88L639.09,212.55L638.53,217.29L639.77,219.97L644.53,223.19L647.18,226.97L650.53,228.9L654.71,229.06L655.88,231.56L660.58,230.8L665.67,234.37L666.07,237.04L664.45,239.48L666.09,242.72L664.34,243.94L662.75,250.8L659.85,253.47L666.49,258.08L670.75,255.8L673.52,256.23L677.27,254.65L681.16,256.22L682.03,258.77L686.6,259.22L688.1,262.39L691.5,261.87L694.53,263.01L694.99,265.3L692.81,266.74L691.53,271.71L693.73,276.2L699.85,279.14L699.96,281.9L706.28,283.39L707.51,286.3L705.68,290.23L706.93,293.24L702.85,293.52L699.68,294.93L698.97,296.78L696.08,295.49L692.49,303.31L690.79,305.06L688.2,305.18L685.56,309.66L682.76,309.7L682.45,311.97L675.73,313.75L672.11,312.7L668.09,313.29L665.72,310.75L663.19,311.07L661.21,305.85L653.62,301.71L651.31,304.59L642.91,303.05L643.56,305.91L641.01,308.7L642.67,311.14L640.93,312.27L639.31,310.82L634.31,310.67L633.5,308.42L629.36,308.8L629.69,306.51L626.74,304L625.85,299.86L622.52,298.44L624.19,295.45L616.63,295.94L615.98,297.59L612.68,297.12L608.7,299.21L608.14,296.64L600.35,295.01L598.04,297.99L595.84,297.31L594.25,299.75L587.59,301.64L583.47,301.6L582.1,297.16L580.39,294.99L574.46,293.59L573.8,295.74L569.81,294.23L569.28,291.7L564.74,295.16L564.78,298.44L566.75,304.22L564.47,305.04L565,308.72L559.29,310.04L558.71,312.44L560.74,319.58L563.96,321.22L563.42,323.22L560.78,324.06L558.89,322.68L553.89,322.74L549.1,325.64L547.82,323.94L541.84,323.48L541.09,322.33L537.12,322.02L534.31,326.47L534.93,329.27L527.54,330.31L527.81,332.26L524.03,337.55L521.94,338.63L519.7,337.9L517.07,344.27L511.94,343.45L509.2,344.76L505.57,344.04L503.57,344.88L502.81,343.33L498.7,341.45L498.97,338.91L501.39,337.26L502.64,334.24L501.13,330.83L504.04,328.54L501.77,323.66L504.64,320.85L507.13,321.94L506.76,314.48L505.56,308.36L504.62,307.04L497.8,308.32L497.66,304.38L495.98,303.73L490.14,305.12L486.49,302.27L486.59,298.64L496.86,299.46L496.85,298.21L501.83,297.67L501.78,294.43L498.18,291.82L498.47,289.11L500.52,288.04L500.46,281.77L506.42,275.55L509.03,275.68L510.85,271.21L515.12,273.85L522.73,273.99L524.5,277.43L526.77,277.82L526.34,273.77L532.36,273.69L532.06,269.01L533.69,268.69L533.63,265.24L537.16,267.93L543.04,264.57L545.01,260.5L547.37,262.05L547.22,257.16L551.2,257.46L552.16,255.79L548.47,253.42L546.4,249.29L547.64,246.7L545.31,242.75L545.04,237.85L548.66,235.71L549.73,226.4L550.73,222.89Z" class="land" id="BY-MA" title="Mahilyow"/>
    <path d="M399.89,163.22L402.76,158.99L409.58,162.18L413.35,163.13L417.16,159.16L419.83,161.49L424.38,160.15L425.11,156.89L429.17,156.33L432.05,159.21L437.46,159.84L441.91,157.7L446.2,158.4L446.24,161.19L448.87,163.19L448.33,166.11L450.69,168.67L454.1,169.52L457.15,171.47L457.4,174.09L460.2,173.9L459.26,177.32L463.1,177.51L467.08,179.12L467.11,184.64L468.62,188.01L471.01,190.26L475.53,189.72L482.11,190.08L490.55,185.15L493.95,187.6L494.98,189.94L500.69,194.72L502.61,190.24L503.1,185.93L511.4,185.77L513.64,189.64L513.56,192.97L523.1,193.06L526.56,190.73L529.56,192.52L530.38,189.72L533.68,187.83L539.65,189.28L539.46,192.96L542.88,193.54L544.2,192.19L550.61,193.27L550.17,199.17L547.84,202.21L548.85,205.01L547.71,209.77L545.09,209.72L546.78,213.71L547.61,220.21L550.73,222.89L549.73,226.4L548.66,235.71L545.04,237.85L545.31,242.75L547.64,246.7L546.4,249.29L548.47,253.42L552.16,255.79L551.2,257.46L547.22,257.16L547.37,262.05L545.01,260.5L543.04,264.57L537.16,267.93L533.63,265.24L533.69,268.69L532.06,269.01L532.36,273.69L526.34,273.77L526.77,277.82L524.5,277.43L522.73,273.99L515.12,273.85L510.85,271.21L509.03,275.68L506.42,275.55L500.46,281.77L500.52,288.04L498.47,289.11L498.18,291.82L501.78,294.43L501.83,297.67L496.85,298.21L496.86,299.46L486.59,298.64L486.49,302.27L490.14,305.12L495.98,303.73L497.66,304.38L497.8,308.32L504.62,307.04L505.56,308.36L506.76,314.48L507.13,321.94L504.64,320.85L501.77,323.66L504.04,328.54L501.13,330.83L502.64,334.24L501.39,337.26L498.97,338.91L498.7,341.45L502.81,343.33L503.57,344.88L502.1,347.6L502.03,355.62L497.7,359.94L490.97,361.01L487.72,360.12L487.15,357.24L481.05,358.04L479.28,364.41L476.63,365.2L472.31,364.01L468.48,364.4L468.24,362.92L464.51,360.61L464.03,356.98L455.78,357.2L452.83,356.62L450.29,359.86L451.48,362.81L447,367.52L444.73,365.36L441.75,365.41L439.75,360.02L436.62,359.89L436.5,354.48L435.56,352.24L434.89,345.54L436.85,344.94L434.38,337.14L431.83,340.65L427.47,337.59L424.22,338.03L422.48,335.76L421.95,331.58L418.94,332.11L414.16,328.26L412.71,332.21L410.65,330.75L407.48,334.39L404.86,332.88L404.7,330.52L408.18,327.02L404.75,321.27L408.22,319.64L408.73,315.41L410.6,313.03L408.71,310.46L405.76,310.5L401.7,305.68L399.87,305.01L402.76,299.26L404.74,299.19L405.44,294.51L403.52,290.92L408.34,288.74L410.89,289.07L414.05,287.91L412.92,285.26L412.26,275.42L409.4,274.01L407.37,270.15L405.42,268.43L404.01,264.51L401.18,263.69L397.21,254L397.37,250.95L400.43,250.71L404.54,248.24L407.08,243.9L405.28,239.74L403.06,241.52L401.6,235.46L395.99,238.18L394.38,237.59L393.47,234.13L390.85,231.07L386.79,228.81L388.28,225.58L391.32,225.14L396.02,220.94L397.68,220.82L401.27,223.15L404.75,221.04L406.83,216.54L409.72,213.98L413.25,207.02L414.92,207.09L417.56,200.32L418.01,188.51L413.8,186.53L412.24,182.09L412.5,178.49L410.38,177.6L406.64,172.1L402.86,172.4L402.24,170.01L403.78,167.58ZM461.96,243L465.22,244.83L469.45,243.74L468.96,246.09L466.3,247.44L467.18,250.44L472.72,252.68L469.94,255.12L468.22,253.9L463.52,254.44L454.68,253.05L453.67,247.15L455.96,243.89Z" class="land" id="BY-MI" title="Minsk"/>
    <path d="M633.45,201.88L627.11,204.88L624.29,205.6L619.22,204.39L617.47,207.86L610.03,205.27L609.04,208.25L605.12,209.61L601.44,217.02L593.86,214.38L592.38,216.76L588.91,215.85L589.75,213.24L582.77,208.79L581.77,211.49L577.65,217.21L575.34,217.52L568.71,212.67L565.37,214.3L558.29,212.41L555.98,212.34L551.81,219.42L547.61,220.21L546.78,213.71L545.09,209.72L547.71,209.77L548.85,205.01L547.84,202.21L550.17,199.17L550.61,193.27L544.2,192.19L542.88,193.54L539.46,192.96L539.65,189.28L533.68,187.83L530.38,189.72L529.56,192.52L526.56,190.73L523.1,193.06L513.56,192.97L513.64,189.64L511.4,185.77L503.1,185.93L502.61,190.24L500.69,194.72L494.98,189.94L493.95,187.6L490.55,185.15L482.11,190.08L475.53,189.72L471.01,190.26L468.62,188.01L467.11,184.64L467.08,179.12L463.1,177.51L459.26,177.32L460.2,173.9L457.4,174.09L457.15,171.47L454.1,169.52L450.69,168.67L448.33,166.11L448.87,163.19L446.24,161.19L446.2,158.4L441.91,157.7L437.46,159.84L432.05,159.21L429.17,156.33L425.11,156.89L424.38,160.15L419.83,161.49L417.16,159.16L413.35,163.13L409.58,162.18L402.76,158.99L399.89,163.22L398.09,159.55L396.09,158.54L399.21,151.91L397.35,149.28L403.38,145.81L408.35,147.51L415.93,146.03L419.42,144.52L418.56,141.78L421.08,140.35L421.14,137.96L425.96,134.98L423.94,131.6L420.59,131.51L418.01,130.06L415.24,131.76L407.95,129.87L412.96,124.01L412.12,121.55L413.33,119.05L411.46,115.97L417.03,110.53L417.39,106.06L416.39,101.63L417.41,100.01L424.49,100.23L427.86,98.83L430.34,92.45L434.64,89.12L438.55,89.3L441.25,87.14L447.33,92.73L451.31,90.3L454.45,91.99L459.91,92.82L463.2,92.55L464.34,87.46L463.61,83.73L464.97,80.63L468.97,76.96L471.88,76.11L472.49,73.79L475.39,70.08L476.76,70.64L479.04,65.69L481.16,63.87L483.39,64.55L487.8,59.84L488.77,62.26L492.86,64.85L492.89,67.08L496.25,69.31L499.28,69.25L501.48,66.07L507.39,64.63L510.61,65.99L512.61,70.55L514.57,72.22L516.39,77.15L524.73,75.03L526.16,73.56L532.96,71.58L536.28,72.24L539.19,75.52L543.31,75.13L550.24,78.22L551.53,81.39L547.54,82.9L547.45,89.45L546.13,91.26L546.08,95.07L553.41,99.52L556.33,96.9L558.26,93.1L564.42,91.18L565.76,93.31L568.73,90.96L571.27,86.14L573.8,87.02L576.12,85.44L581.31,88.72L584.83,86.11L589.39,86.07L589.98,88.73L592.39,88.45L593.73,90.46L599.4,90.25L601.42,95.58L603.95,95.66L606.23,97.51L606.8,102.01L611.03,103.18L612.7,109.06L614.79,109.04L617.49,105.58L619.6,107.12L621.66,113.03L621.88,116.75L619.99,118.39L619.22,121.37L620.68,125.11L615.15,131.88L615.28,135.03L618.24,135.78L620.1,141.42L621.88,142.2L623.77,155.7L620.86,155.08L619.47,156.53L622.16,159.84L619.3,162.59L615.35,163.27L616.02,165.93L614.26,168.43L612.04,174.2L616.33,175.93L621.63,179.96L625.07,185.13L628.21,186.22L632.5,185.7L633.69,189.05L630.57,193.05L630.14,195.83L627.89,198.73Z" class="land" id="BY-VI" title="Vitsyebsk"/>
  </g>
</svg>