<?xml version="1.0" encoding="UTF-8"?>
<svg xmlns="http://www.w3.org/2000/svg" width="488.42" height="399.63" viewBox="235.79 57.19 488.42 399.63" style="background-color:#000000">
  <!-- Created using SVG Map Generator: dojo.amcharts.com/svg-map-generator -->
  <style>
    .land { fill: #ffffff; stroke: #000000; stroke-width: 0.65; }
  </style>
  <g id="polygons">
    <path d="M539.37,70.44L537.88,71.4L537.91,74.39L536.47,74.59L535.16,73.12L535.93,71.26ZM575.27,108.6L572.64,111.53L572.53,116.49L572.68,118.52L573.46,118.68L574.14,120L575.44,120.6L578.18,124.05L578.36,130.63L577,132.38L574.88,134.12L573.29,132.94L571.34,132.78L570.93,134.75L569.81,136.21L568.41,136.99L566.48,136.63L564.5,136.63L563.65,137.09L561.92,137.03L561.48,138.96L558.53,141.39L557.55,143.36L556.1,143.96L554.09,144.29L551.75,145.35L549.51,145.89L547.15,145.55L547.34,146.74L546.85,149.05L545.64,149.37L544.76,150.52L543.24,153.58L542.04,153.13L541.3,151.42L538.88,153.19L535.83,153.27L533.81,154.34L533.53,155.63L530.86,156.74L528.83,156.27L527.96,157.26L526.02,158.14L523.83,157.82L522.72,158.25L521.74,157.48L522.06,156.47L521.47,155.35L520.29,154.56L519.47,152.73L517.48,153.48L515.62,155.57L512.84,154.92L512.04,156.33L509.2,158.1L508.7,160.16L507.65,160.68L508.89,157.54L506.95,157.16L506,155.49L503.31,156.55L502.4,156.31L500.01,156.84L499.21,158.29L496.92,158.14L496.07,158.69L495.67,161.41L493.91,161.51L491.95,160.88L489.31,159.55L487.07,161.06L486.78,161.89L483.68,159.74L481.79,158.75L481.16,159.47L481.72,161.02L480.56,162.11L478.47,161.77L477.13,159.35L475.33,159.94L472.94,161.18L472.83,160.52L471.15,160.4L469.92,161.35L469.25,159.53L469.2,158.35L467.15,157.68L467.38,156.07L466.4,155.69L465.63,157.08L463.36,156.41L463.9,155.13L460.93,154.99L459.23,153.23L457.76,152.61L455.92,152.53L455.62,151.91L453.94,152.07L453.55,152.89L451.84,153.58L450.51,153.05L449.57,151.79L447.98,153.4L446.3,153.66L444.9,152.39L444.1,150.82L445.28,149.55L444.82,148.41L443.82,147.56L444.18,144.55L443.68,143.48L442.11,142.34L442.1,141.07L442.68,139.95L444.43,139.08L446.95,136.17L448.11,136.15L450.96,137.54L453.02,137.28L455.32,135.99L458.98,135.63L460.83,134.56L461.39,133.46L461.89,129.49L461.6,125.8L461.8,123.85L460.26,123.21L460.39,121.18L460.88,119.8L458.88,120.1L458.4,118.46L459.35,118.3L457.89,114.17L457.51,110.9L456.72,110.24L456.87,108.66L458.14,108.36L458.73,107.26L460.29,105.56L460.71,104.46L459.98,102.88L459,102.1L455.42,100.24L454.67,98.86L454.44,97.14L454.45,93.5L453.66,91.64L452.14,90.58L450.1,90.04L448.4,88.4L447.47,85.81L454.5,85.39L462.31,85.17L463.28,88.94L466.24,89.12L468.37,89.6L469.8,89.34L473.25,87.59L474.43,85.63L469.53,79.16L468.47,76.53L470.27,73.69L469.52,71.66L468.75,70.64L475.63,66.82L478.33,66.34L479.33,65.22L481.31,65.08L487.33,64.09L488.88,66.04L486.73,70.76L487.41,75.97L492.4,74.11L499.05,75.35L500.42,76.05L501.92,75.27L504.06,75.31L503.84,71.68L505.99,70.44L507.08,70.2L508.36,67.15L509.89,66.78L511.61,63.73L513.63,62.67L514.52,60.66L515.5,60.06L518.05,59.84L518.53,60.56L520.22,60.62L522.48,61.54L522.93,63.29L523.67,64.01L525.64,64.42L524.97,67.99L526.21,68.79L524.74,69.63L523.54,71.04L523.79,73.75L524.44,76.23L525.53,76.31L526.09,77.2L521.04,75.13L519.13,74.73L518.8,74.09L517.03,74.33L516.7,74.95L517.24,77.6L519.43,78.8L525.33,77.62L526.89,77.5L529.01,78.18L530.73,77.24L533.16,77.76L534.4,80L536.17,80.8L537.5,80.1L541.1,75.75L546.01,71.58L546.6,69.67L546.27,67.43L546.72,66.12L548.1,64.33L549.69,63.07L551.14,66.06L551.88,66.32L555.39,66.42L558.67,74.29L557.24,76.63L554.59,82.01L559.75,87.79L561.2,90.36L562.12,91.14L562.45,97.7L565.97,98.76L567.12,97.78L570.63,96.58L575.67,99.92L575.69,100.26L573.83,107.3Z" class="land" id="BE-VAN" title="Antwerpen"/>
    <path d="M432.98,218.63L434.27,216.52L434.92,217.25L437.06,216.42L438.14,215.17L438.29,214.19L439.85,213.93L442.01,215.63L442.91,217.33L442.91,218.61L446.45,218.21L449.59,220.29L450.51,221.63L451.41,222.08L453.27,220.01L455.34,220.11L456.9,220.94L458.81,220.01L459.81,215.94L460.98,216L461.89,214.96L461.2,214.07L462.41,213.1L463.13,213.42L464.5,216.54L467.19,216.6L467.19,214.13L470.63,213.18L473.6,212.88L475.47,211.66L478.34,209.25L481.32,209.64L482.27,208.85L482.94,209.46L482.08,211.08L484.28,212.96L484.38,213.71L485.87,214.28L486.67,214.05L487.38,212.19L490.21,210.27L491.95,210.59L493.05,209.29L492.98,208.44L495.26,207.37L495.67,209.09L495.45,210.79L496.14,211.7L498.79,211.14L499.92,211.4L501.45,210.31L502.57,208.83L501.62,208.08L500.32,205.53L501.04,204.09L501.82,200.41L503.83,201.65L505.98,201.44L507.25,202.17L508.69,201.87L509.59,200.9L510.09,202.25L511.49,200.63L514.29,198.67L515.69,198.75L518.64,200.23L519.62,200.39L521.52,202.82L522.29,204.66L525.13,204.84L524.62,206.14L525.44,207.25L526.44,206.48L528.26,207.11L530.2,206.72L531.13,207.61L532.41,205.93L534.02,206.97L533.57,207.88L534.56,208.79L533.98,210L537.88,210.39L539.79,209.78L539.81,208.97L541.75,207.49L541.71,206.52L543.42,205.98L546.06,206.87L548.11,209.9L547.65,211.3L547.67,213.36L546.67,214.05L545.15,214.4L545.05,216.26L546.79,217.54L547.72,219.2L547.36,219.89L545.89,220.58L545.54,221.55L545.24,225.77L545.89,226.78L544,229.19L544.02,230.86L543.54,231.3L542.69,231.83L541.14,230.17L539.17,230.57L537.96,231.85L536.52,234.29L534.58,234.57L532.93,233.98L533.12,235.34L531.71,235.45L527.62,236.5L524.62,238.04L522.52,237.96L518.94,239.45L519.98,241.29L519.43,241.66L518.35,239.61L516.77,239.43L514.34,241.25L513.08,240.2L513.73,239.55L511.4,237.56L509.66,238.13L509.36,240.7L506.74,239.85L504.54,238.12L502.62,239.26L502.45,241.21L503.19,244.26L504.81,245.32L504.18,246.39L502.84,246.7L501.11,247.61L499.67,246.41L497.96,246.94L497.72,245.72L495.65,245.82L494.14,247.21L492.43,247.33L492.28,248.45L492.8,251.25L484.6,254.3L483.17,253.65L483.22,251.5L481.62,251.84L480.94,252.58L480.02,252.03L479.19,253.65L478.68,250.2L479.51,248.89L479.28,247.84L476.81,248.65L476.09,247.63L473.53,247.84L472.82,246.66L470.69,246.98L468.35,246.88L467.75,247.69L465.66,247.08L465.3,248.1L463.51,248.83L463.74,249.71L462.85,250.74L462.06,250.74L462.43,248.37L462,247.41L462.28,245.85L458.41,246.03L457.85,244.18L456.14,242.67L455.71,241.66L454.42,241.05L451.87,241.07L451.27,240.12L451.96,239.36L451.44,237.45L452.21,236.48L450.25,235.1L445.58,234.96L445.76,232.14L446.13,230.47L445.51,229.36L442.68,227.23L441.66,228.3L440.63,230.25L438.92,231.99L438.78,232.97L437.09,233.9L435.34,232.91L433.76,233.25L432.88,232.06L432.29,229.72L433.03,227.29L431.92,226.05L432.56,224.61L432.27,223.74L432.91,221.47L432.22,219.48Z" class="land" id="BE-WBR" title="Walloon Brabant"/>
    <path d="M474.33,181L474.03,182.35L475.13,184.01L474.15,184.81L473.38,186.57L475.04,188.45L477.92,189.58L478.94,191.74L478.96,193.42L479.93,195.48L478.72,196.39L477.71,196.49L476.78,197.99L477.37,198.84L479.36,199.06L481.04,202.13L479.96,201.79L478.33,202.48L475.17,204.56L474.74,204.32L468.55,207.05L468.33,206L466.5,205.41L466,205.67L463.88,205.06L462.69,205.19L461.01,203.67L460.23,200.94L458.99,200.39L458.53,199.12L458.89,198.13L458.19,197.48L455.8,198.47L454.79,197.8L453.09,197.97L452.64,196.85L451.39,195.98L452.44,194.77L452.42,193.52L453.04,192.87L456.2,192.17L455.69,186.75L457.8,184.35L457.49,182.49L459.94,181.64L461.45,180.33L463.21,179.79L465.71,179.89L467.44,180.56L468.48,179.85L469.2,178.28L471.12,177.59L472.15,178.86L473.43,179.73L473.7,180.53Z" class="land" id="BE-BRU" title="Brussels Capital Region"/>
    <path d="M278.24,218.51L279.11,217.37L277.93,215.57L277.11,215.13L275.5,212.92L276.81,211.83L275.63,209.92L277.46,208.46L278.96,207.98L279.2,208.95L281.41,209.15L285.58,208.55L285.5,207.05L288.68,205.47L290.52,205.25L290.63,204.38L288.83,201.89L288.84,201.14L290.47,200.47L291.14,199.64L294.26,198.79L295.52,197.99L296.92,198.59L297.33,199.58L296.56,200.96L296.78,202.52L297.41,203.32L299.16,204.03L297.84,205.41L297.09,206.36L291.78,210.16L289.5,209.7L287.9,211.12L287.9,212.17L288.69,213.73L287.15,214.23L286.68,218.14L285.74,219.4L284.17,219.66L284.17,221.27L283.08,221.37L281.55,219.06L280.66,218.75L278.94,219.24ZM352.9,206.56L355.23,208.18L357.6,208.57L360.49,207.92L362.07,207.13L363.81,210.55L363.57,212.31L364,213.49L365.2,213.1L366.41,214.42L368.93,214.32L370.25,213.61L371.7,213.63L372.96,215.29L374.23,215.81L375.54,215.55L375.72,212.35L377.83,210.69L377.99,209.33L379.04,209.15L379.22,207.29L381.65,205.19L384.02,205.19L384.78,206.6L386.82,205.85L387.73,205.98L389.67,204.36L389.73,205.89L390.58,207.68L391.49,208.46L392.41,210.53L395.13,210.21L397.41,210.19L397.85,211.22L400.41,211.78L401.2,210.97L403.21,210.04L404.35,210.43L406.22,210.19L407.87,212.68L407.55,213.57L407.67,214.5L406.75,217.15L406.81,218.04L408.19,218.63L409.67,220.37L409.55,221.79L411.21,221.04L412.55,221.89L419.33,222.46L421.59,220.48L422.98,221.12L424.58,221.27L426.45,219.79L427.25,219.85L427.97,221.14L429.54,217.98L431.03,217.8L432.98,218.63L432.22,219.48L432.91,221.47L432.27,223.74L432.56,224.61L431.92,226.05L433.03,227.29L432.29,229.72L432.88,232.06L433.76,233.25L435.34,232.91L437.09,233.9L438.78,232.97L438.92,231.99L440.63,230.25L441.66,228.3L442.68,227.23L445.51,229.36L446.13,230.47L445.76,232.14L445.58,234.96L450.25,235.1L452.21,236.48L451.44,237.45L451.96,239.36L451.27,240.12L451.87,241.07L454.42,241.05L455.71,241.66L456.14,242.67L457.85,244.18L458.41,246.03L462.28,245.85L462,247.41L462.43,248.37L462.06,250.74L462.85,250.74L463.74,249.71L463.51,248.83L465.3,248.1L465.66,247.08L467.75,247.69L468.35,246.88L470.69,246.98L472.82,246.66L473.53,247.84L476.09,247.63L476.81,248.65L479.28,247.84L479.51,248.89L478.68,250.2L479.19,253.65L480.02,252.03L480.94,252.58L481.62,251.84L483.22,251.5L483.17,253.65L484.6,254.3L492.8,251.25L492.91,253.82L490.16,258.23L490.45,260.72L490.86,261.51L492.88,259.55L493.63,260.21L494.17,261.96L495.55,263.97L495.06,265.5L493.96,266.66L493.52,268.27L492.46,268.31L493.56,270.04L492.53,271.67L493.51,271.74L494.62,273.41L496.26,273.71L497.07,273.1L497.65,274.26L496.76,274.63L496.39,277.3L494.59,279.22L494.67,280.71L495.85,281.22L495.54,282.06L494.11,282.81L494.74,284.4L493.62,285.2L493.12,287.77L494.01,288.73L493.25,290.26L494.67,290.67L494.72,293.25L494.02,294.33L491.12,293.98L488.2,294.98L486.07,295.35L483.87,294.33L483.49,292.84L479.88,293.08L479.44,294.74L478.56,295.82L478.81,296.45L477.31,297.37L474.67,296.58L473.2,297.15L471.38,296.54L471.15,297.64L469.82,299.75L468.85,300.42L466.8,300.11L466.59,301.44L465.24,303.39L463.29,302.81L461.39,303.49L458.8,305.47L457.78,305.7L456.5,307.19L456.65,308.09L457.68,309.3L460.26,310.73L460.71,311.41L463.89,312.21L465.65,310.84L466.4,309.73L467.62,310.43L468.84,310.43L469.1,311.39L470.62,311.72L469.49,315.81L469.57,317.7L470,319.4L469.85,321.59L467.74,323.03L465.89,323.76L466.33,326.43L467.53,326.59L468.6,327.74L469.12,329.22L468.64,330.63L470.42,332.58L470.07,334.25L468.84,336.13L469.54,337.29L469.3,339.15L470.04,341.48L469.49,344.02L470.08,345.6L469.44,347.15L469.89,347.93L470.98,347.35L471.83,348.28L471.49,349.53L471.97,351.16L472.02,353.4L472.54,354.8L472.39,357.25L473.03,358.11L473.34,359.8L475.14,362.12L476.28,366.02L474.67,368.26L472.72,367.15L469.19,366.9L468.1,365.94L467.09,366.31L464.43,366.04L462.56,364L460.71,363.98L459.2,362.91L457.88,363.75L454.44,363.67L450.82,364.37L450.3,364.91L446.36,365.03L444.93,365.46L445.08,363.11L442.97,362.19L441.7,361.34L439.8,361.77L438.33,360.7L440.03,359.33L440.92,357.66L438.43,355.74L437.74,354.26L437.74,352.72L440.82,347.46L442.52,348.26L444.91,347.35L445.38,345.97L447.8,345.44L448.86,344.76L449.39,343.55L448.69,340.69L447.78,339.44L445.81,337.55L445.26,336.52L446.01,334.76L445.95,333.06L445.11,330.96L442.71,331.48L440.81,331.13L439.92,332.4L438.56,332.3L436.92,331.58L436.63,331L437.34,329.38L437.64,327.56L439.82,325.73L440.01,323.78L439.13,323.54L440,321.65L440.56,319.5L440.62,317.96L439.72,317.08L439.97,315.38L441.67,314.95L442.53,314.03L443.35,311.92L445.03,310.02L446.1,310.1L448.22,307.7L448.27,306.89L446.96,304.27L445.67,303.73L443.85,303.67L442.5,302.77L442.51,301.44L441.75,300.71L439.91,301.32L439.38,303.59L441.02,303.98L441.55,305.19L441.47,306.62L439.72,307.05L437.77,306.68L437.34,305.19L437.48,303.63L436.16,303.73L436.11,300.58L435.82,298.99L435.09,298.17L434.06,298.01L432.58,295.74L430.29,296.02L430.14,294.41L429.12,293.63L428.38,292.39L427.35,291.98L427.08,290.71L425.13,290L423.82,286.95L422.74,287.32L421.88,288.63L419.71,288.98L418.93,290.1L416.5,288.96L409.59,292.94L408.3,293.18L406.91,292.74L406.69,290.61L405.17,291.18L403.64,290.47L402.77,289.02L401.81,288.26L400.52,288L398.2,289.77L397,289.75L397.33,288.32L396.3,287.85L395.25,288.63L393.56,288.14L391.32,288.18L390.86,288.98L388.97,288.43L387.24,289.98L387.56,291.33L386.63,292.47L386.96,293.98L386.41,295.15L384.13,294.43L384.98,296.92L384.18,297.58L383.23,296.15L382.32,295.74L382.24,294.08L381.07,293.43L379.7,291.67L380.25,290.47L378.75,289.06L378.98,286.4L378.09,285.51L377.89,284.01L379.79,281.02L379.87,278.3L378.97,274.37L378.9,271.25L377.75,270.17L378.18,268.47L377.03,266.5L375.64,266.36L374.18,263.53L374.39,263L372.96,261.98L371.48,260.08L369.91,260.9L368.31,261.16L366.9,260L363.91,259.8L362.96,260.45L360.77,260.21L357.97,261.81L357.4,259.57L358.46,257.72L359.86,256.6L360.25,254.67L357.77,253.41L356.76,253.76L354.73,252.78L352.2,255.53L351.78,257.64L351.31,258.03L349.82,257.34L349.06,258.43L347.43,258.82L346.38,259.57L344.47,259.7L343.63,260.53L341.67,260.43L340.57,258.52L337.54,257.66L336.78,257.8L335,255.53L333.72,255.42L331.83,254.51L331.27,253.02L330.25,251.7L330.19,249.69L330.89,247.55L330.13,246.58L330.09,245.11L330.63,244.26L329.92,243.06L329.98,241.25L329.41,238.06L327.33,235.02L327.74,233.8L325.9,231.81L326.51,230.47L325.3,228.22L325.49,226.33L328.1,224.2L327,222.06L327.98,221.51L327.98,219.62L327.23,219.36L326.1,217.64L324.75,217.44L323.24,218.14L322.01,217.6L321.43,216.42L320.27,215.98L319.29,214.94L320.31,213.3L318.91,212.15L318.61,210.55L317.59,208.83L319.3,208.75L320.21,207.51L321.89,207.51L322.89,206.82L323.89,207.07L325.3,208.28L326.58,208.4L328.19,209.64L330.07,209.76L333.65,208.95L335.88,212.19L336.52,214.03L335.99,215.63L337.32,216.52L340.41,218L340.98,216.12L341.88,214.62L344.56,214.26L345.83,212.68L345.92,211.16L346.78,210.55L348.15,210.65L349.68,210.21L349.51,208.55L352.26,208.22L352.12,206.44Z" class="land" id="BE-WHT" title="Hainaut"/>
    <path d="M630.92,208.34L632.22,209.8L633.72,209.88L636.3,210.75L637.21,208.93L638.51,209.09L639.19,210.83L641.74,209.6L643.76,210.67L645.54,213.59L646.78,215.17L647.19,216.6L648.28,217.17L652.7,216.52L653.75,216.65L655.95,217.98L656.45,216.81L659.46,212.96L659.26,212.07L657.78,211.02L657.17,208.83L658.29,209.64L658.84,208.97L660.14,208.87L661.19,209.42L662.22,208.55L665.83,207.39L667.17,207.7L668.25,209.23L670.75,209.31L673.21,208.89L675.91,211.06L676.02,212.19L675.15,213.3L675.01,214.34L675.95,215.9L676.42,214.25L678.51,215.43L681.34,215.59L683.14,215.15L685.31,215.43L686.46,217.72L686.3,218.47L687.61,220.09L689.76,224.43L690.7,225.24L691.5,227.27L693.28,228.81L693.48,230.31L692.59,231.12L693.71,233.21L692.86,234.37L693.95,234.98L695.44,233.07L698.35,233.29L700.18,234.31L703.64,234L704.32,234.35L704.29,236.14L703,237.92L701.38,239.1L701.55,240.64L700.47,242.03L698.87,241.5L698.12,243.2L696.44,244.3L696.2,245.64L694.37,246.6L692.71,247.92L693,250.93L693.93,250.93L695.22,251.96L695.18,253L694.27,253.98L694.87,254.93L696.45,254.93L698.23,257.99L698.39,259.57L700.84,259.09L702.1,258.25L703.53,258.56L705.69,258.33L706.27,259.19L707.74,259.41L709.64,258.9L710.79,260.04L712.21,260.19L714.5,261.67L713.45,262.45L712.9,264.34L713.48,264.95L713.23,266.64L714.45,267.7L716.13,268.35L717.16,268.19L717.55,269.23L717.71,271.8L716.36,274.77L716.73,277.08L715.33,279.67L715.15,280.63L713.97,281.55L713.31,282.85L715.65,284.63L716.83,287.34L718.38,288L720.47,289.75L720.7,291.16L721.56,291.63L721.18,294.14L718.55,294.41L717.17,296.11L715.61,296.31L715.78,297.74L713.45,295.06L711.67,293.92L710.52,294.74L709.03,294.82L709.16,296.43L707.57,296.9L707.88,297.74L707.04,299.26L706.36,301.81L707.03,303.22L705.63,304.92L703.03,304.84L701.53,305.8L700.25,305.76L697.87,306.97L696.45,307.97L695.65,310.26L694.72,310.88L693.58,310.71L692.41,311.61L692.56,313.15L691.59,314.09L692.85,314.6L694.03,317.82L693.78,319.54L694.5,321.38L693.85,322.02L691.28,322.2L690.16,323.43L689.26,322.33L688.38,324.09L689.03,325.46L688.56,326.43L687.38,326.84L688.51,328.07L689.59,327.8L689.9,329.32L689.16,330.33L688.13,330.61L688.1,331.72L687.19,331.82L685.71,330.57L684.75,330.55L685.06,328.99L686.33,328.01L684.9,326.74L685.61,325.32L683.47,323.72L682.6,324.11L680.7,323.8L680.65,326.59L679.69,326.49L678.66,327.25L676.02,326.04L674.56,325.08L674.43,323.54L673.73,321.28L673.36,318.97L674.92,316.86L673.9,316L672.87,316.73L671.81,312.15L671.75,310.36L672.61,307.66L671.83,304.23L672.52,298.48L671.92,295.66L668.57,294.41L668.07,292.55L665.84,292.96L665.02,291.69L662.94,290.84L661.62,291.98L659.49,291.41L658.44,290.81L656.68,290.88L653.48,289.2L652.22,291.55L652.05,293.14L653.59,293.45L654.33,294.64L653.68,297.68L652.58,298.33L653.05,299.4L652.29,299.83L651.3,302.2L653.85,301.87L654.79,303.04L654.33,304.8L653.3,304.88L650.88,306.15L649.28,305.06L648.39,305.47L645.98,305.72L644.66,305.37L643.28,305.78L641.9,304.86L639.78,305.23L638.94,306.31L636.35,306.09L635.56,304.82L637.37,303.28L637.76,300.75L639.19,299.44L639.25,298.29L636.71,297.93L636.34,298.23L634.82,296.13L633.62,292.76L634.75,292.49L635.1,291.24L634.67,290.26L635.85,288.2L635.87,287.24L634.07,286.69L633.17,287.32L631.71,287.57L629.65,287.47L630.21,285.12L626.75,285.63L624.71,284.24L625.28,283.83L622.72,282.55L619.96,279.28L618.94,279.06L616.89,279.51L614.86,281.06L612.72,280.48L611.24,278.36L610.64,276.73L609.9,276.43L609.53,275.08L608.59,274.37L607.9,275.16L605.4,276.22L604.15,277.55L602.19,275.73L600.03,274.34L599.35,273.16L598.21,273.2L596.5,274.14L596.7,276.2L598.43,276.53L599.24,277.95L599.19,279.08L596.89,280.71L595.31,282.24L594.85,283.14L593.46,281.67L591.84,282.97L591.05,282.04L589.62,281.38L587.79,283.01L585.54,284.44L584.17,284.83L582.85,285.93L580.82,283.4L580.62,281.44L581.53,280.42L578.22,278.59L577.48,279.06L575.03,278.38L573.36,275.81L574.99,274.39L575.09,271.55L574.18,270.29L573.43,270.23L571.77,266.89L570.93,264.48L569.47,263.95L567.88,263.93L567.03,265.13L565.99,265.52L565.13,263.46L564.42,262.71L565.69,261.69L565.02,261.16L563.07,261.81L562.28,261.1L562.42,259.98L561.68,258.68L563.6,257.6L563.25,256.87L560.14,258.52L558.6,257.82L557.67,256.87L556.83,254.1L557.14,253.35L552.7,252.9L550.01,252.84L550.54,252.11L552.01,251.5L552.14,250.89L551.24,249.32L551.49,247.39L549.6,245.44L548.89,242.72L548.93,241.92L547.7,241.48L545.46,239.81L545.55,237.74L543.17,236.42L543.95,234.67L543.27,232.89L544.17,232.44L543.54,231.3L544.02,230.86L544,229.19L545.89,226.78L545.24,225.77L545.54,221.55L545.89,220.58L547.36,219.89L547.72,219.2L546.79,217.54L545.05,216.26L545.15,214.4L546.67,214.05L547.67,213.36L547.65,211.3L548.11,209.9L551.43,211.93L551.11,215.05L554.49,218.37L555.59,218.06L557.49,219.06L558.19,218.04L558.87,217.78L561.39,218.45L562.03,219.42L564.05,220.6L565.22,220.11L566.3,220.66L568.22,218.93L567.52,217.09L566.76,217.07L566.86,215.41L568.68,215.73L569.97,216.46L571.17,215.84L573.67,215.75L574.41,216.32L575.46,214.46L575.93,216.38L577.96,216.75L580.17,214.4L582.03,214.9L583.1,215.63L587.2,212.78L589.26,210.73L591.22,210.63L592.29,211.48L594.01,210.35L594.61,212.88L595.58,212.92L595.73,214.32L597.86,216.08L599.43,215.73L602.3,215.59L602.24,214.64L603.35,213.83L603.28,212.23L604.98,213.34L604.85,214.82L606.77,214.34L607.64,213.59L610.69,211.82L611.18,211.24L610.54,209.74L611.4,208.22L613.92,208.32L615.32,207.17L616.84,207.21L617.32,205.71L619.12,205.57L620.78,204.7L622.38,203.18L623.98,203.45L626.52,201.12L627.22,198.94L629.06,199.08L629.72,198.49L631.46,198.88L631.52,197.72L632.22,197.74L632.86,199.36L632.09,200.8L633.22,203.55L632.62,205.43L631.04,207.61Z" class="land" id="BE-WLG" title="Liège"/>
    <path d="M631.52,197.72L631.46,198.88L629.72,198.49L629.06,199.08L627.22,198.94L626.52,201.12L623.98,203.45L622.38,203.18L620.78,204.7L619.12,205.57L617.32,205.71L616.84,207.21L615.32,207.17L613.92,208.32L611.4,208.22L610.54,209.74L611.18,211.24L610.69,211.82L607.64,213.59L606.77,214.34L604.85,214.82L604.98,213.34L603.28,212.23L603.35,213.83L602.24,214.64L602.3,215.59L599.43,215.73L597.86,216.08L595.73,214.32L595.58,212.92L594.61,212.88L594.01,210.35L592.29,211.48L591.22,210.63L589.26,210.73L587.2,212.78L583.1,215.63L582.03,214.9L580.17,214.4L577.96,216.75L575.93,216.38L575.46,214.46L574.41,216.32L573.67,215.75L571.17,215.84L569.97,216.46L568.68,215.73L566.86,215.41L566.76,217.07L567.52,217.09L568.22,218.93L566.3,220.66L565.22,220.11L564.05,220.6L562.03,219.42L561.39,218.45L558.87,217.78L558.19,218.04L558.77,217.39L559.9,213.83L560.6,212.8L558.72,211.64L558.32,210.93L559.12,208.53L560.15,207.19L558.97,204.19L559.32,202.76L560.25,201.46L562.3,201.5L563.35,199.58L563.18,198.29L561.84,197.2L562.77,195.22L562.29,193.3L563.32,191.18L562.6,190.55L564.04,189.54L564.57,187.66L564.89,184.51L566.57,185.82L567.92,184.13L567.88,183.24L568.73,182.47L568.83,179.61L567.64,178.23L566.47,177.65L564.92,177.87L562.54,177.75L562.15,176.1L561.08,176.76L558.67,177.41L557.01,178.54L555.31,176.08L553.7,177.02L552.29,175.98L550.95,171.9L552.13,171.4L552.96,169.44L555.18,168.44L555.28,167.31L556.03,166.36L555.45,164.33L555.59,163.34L557.21,162.92L558.72,161.41L561.29,161.08L560.65,158.06L563.35,156.88L565.34,155.69L560.3,150.6L559.02,151.08L556.5,150.64L555.55,151.2L555.58,154.92L555.96,155.79L553.88,157.18L552.69,157.38L552.38,156.15L551.05,155.61L548.49,156.53L547.9,154.88L546.89,153.46L545.56,153.52L543.47,154.48L543.24,153.58L544.76,150.52L545.64,149.37L546.85,149.05L547.34,146.74L547.15,145.55L549.51,145.89L551.75,145.35L554.09,144.29L556.1,143.96L557.55,143.36L558.53,141.39L561.48,138.96L561.92,137.03L563.65,137.09L564.5,136.63L566.48,136.63L568.41,136.99L569.81,136.21L570.93,134.75L571.34,132.78L573.29,132.94L574.88,134.12L577,132.38L578.36,130.63L578.18,124.05L575.44,120.6L574.14,120L573.46,118.68L572.68,118.52L572.53,116.49L572.64,111.53L575.27,108.6L578.46,107.6L582.23,108.56L584.77,108.24L587.55,108.28L588.19,107.74L588.79,105.84L593.4,107.2L597.73,108.24L600.86,104.24L603.9,103.66L605.2,102.46L606.3,100.62L610.12,101.62L611.5,104.06L613.69,106.44L615.09,107.4L615.04,112.05L615.74,116.21L627.06,121.02L627.08,122.27L627.87,123.55L629.55,123.45L630.2,124.05L631.74,123.59L634.25,124.47L635.22,123.71L638.07,123.27L641.23,123.83L642.39,125.03L641.76,126.72L643.36,130.03L644.43,129.13L646.98,128.74L648.54,127L650.17,129.23L650,129.93L652.33,131.75L651.25,132.4L650.38,134.5L648.44,134.83L646.66,137.03L646.64,138.52L648.61,138.9L649.63,139.87L649.3,141.35L648.46,142.08L647,141.41L645.65,141.61L644.94,142.3L646.01,145.01L645.08,146.36L645.51,147.76L645.16,148.69L644.1,148.77L642.91,148.05L642.03,148.37L641.93,150.32L640.25,153.98L642.01,154.98L642.44,156.35L641.29,158.49L641.4,160.4L639.44,163.64L637.7,164.87L637.26,165.98L635.61,167.95L635.72,168.96L636.57,169.42L638.52,168.3L639.81,168.84L640.05,170.55L638.82,171.06L638.12,173.29L636.94,174.67L636.26,176.28L636.26,177.75L635.22,178.82L633.92,178.07L632.59,178.84L632.31,181.12L630.77,182.75L630.25,184.15L629.12,184.13L626.12,185.96L625.7,187.38L625.95,188.87L625.53,190.97L626.03,192.53L626.91,193.64L627.57,196.05L630.32,196.79ZM657.17,208.83L657.78,211.02L659.26,212.07L659.46,212.96L656.45,216.81L655.95,217.98L653.75,216.65L652.7,216.52L648.28,217.17L647.19,216.6L646.78,215.17L645.54,213.59L643.76,210.67L641.74,209.6L639.19,210.83L638.51,209.09L637.21,208.93L636.3,210.75L633.72,209.88L632.22,209.8L630.92,208.34L632.8,208.87L633.51,208.2L634.9,207.96L635.56,207.13L636.61,207.86L638.04,207.86L638.37,207.07L641.26,203.67L642.58,203.47L643.58,206.26L644.66,205.81L646.5,208.59L649.6,208.08L651.25,207.01L651.77,208.85L653.33,207.63L656.3,206.08Z" class="land" id="BE-VLI" title="Limburg"/>
    <path d="M594.85,283.14L595.31,282.24L596.89,280.71L599.19,279.08L599.24,277.95L598.43,276.53L596.7,276.2L596.5,274.14L598.21,273.2L599.35,273.16L600.03,274.34L602.19,275.73L604.15,277.55L605.4,276.22L607.9,275.16L608.59,274.37L609.53,275.08L609.9,276.43L610.64,276.73L611.24,278.36L612.72,280.48L614.86,281.06L616.89,279.51L618.94,279.06L619.96,279.28L622.72,282.55L625.28,283.83L624.71,284.24L626.75,285.63L630.21,285.12L629.65,287.47L631.71,287.57L633.17,287.32L634.07,286.69L635.87,287.24L635.85,288.2L634.67,290.26L635.1,291.24L634.75,292.49L633.62,292.76L634.82,296.13L636.34,298.23L636.71,297.93L639.25,298.29L639.19,299.44L637.76,300.75L637.37,303.28L635.56,304.82L636.35,306.09L638.94,306.31L639.78,305.23L641.9,304.86L643.28,305.78L644.66,305.37L645.98,305.72L648.39,305.47L649.28,305.06L650.88,306.15L653.3,304.88L654.33,304.8L654.79,303.04L653.85,301.87L651.3,302.2L652.29,299.83L653.05,299.4L652.58,298.33L653.68,297.68L654.33,294.64L653.59,293.45L652.05,293.14L652.22,291.55L653.48,289.2L656.68,290.88L658.44,290.81L659.49,291.41L661.62,291.98L662.94,290.84L665.02,291.69L665.84,292.96L668.07,292.55L668.57,294.41L671.92,295.66L672.52,298.48L671.83,304.23L672.61,307.66L671.75,310.36L671.81,312.15L672.87,316.73L673.9,316L674.92,316.86L673.36,318.97L673.73,321.28L670.6,322.74L667.15,322.82L666.27,323.62L666.14,325.71L666.54,326.88L665.64,327.56L665.88,329.16L665.77,331.35L661.84,332.5L658.44,334.43L657.7,335.42L657.57,337.33L656.53,339.58L656.6,341.82L654.3,342.65L653.15,343.65L652.47,345.48L653.53,346.47L654.37,347.87L652.8,349.92L653.14,351.36L652.13,352.58L650.8,353.42L649.82,353.48L648.05,354.53L648.48,357.53L649.52,358.77L650.5,359.08L650.44,360.23L649.55,361.51L647.85,362.5L647.05,362.5L646.45,364.14L645.14,363.59L643.63,364.62L642.59,364.62L641.9,367.01L642.44,368.94L641.19,370.39L640.64,373.64L639.06,374.65L637.54,376.61L640.23,378.45L642.79,379.48L643.63,380.57L643.6,381.77L642.21,382.76L640.26,381.79L640.04,383.94L640.66,384.64L640.01,385.78L640.39,386.72L639.16,387.43L639.1,388.56L638.26,389.39L639.17,391.21L638.6,392.14L639.34,393.31L639.9,397.63L644.14,396.79L644.7,398.61L646.18,400.55L646.78,402.56L647.48,403.51L648.36,405.64L649.35,406.1L648.68,409.26L648.85,410.88L649.92,410.67L651.1,411.06L652.85,410.09L654.08,410.53L656.23,413.65L653.77,416.51L653.29,418.85L653.93,420.12L655.43,420.47L656.3,421.49L657.52,421.42L658.29,422.17L658.32,425.92L658.84,427.04L656.37,427.77L656.22,429.28L654.93,430.72L654.83,432.96L653.83,433.46L651.55,435.37L651.73,436.49L652.48,437.25L654.3,436.94L654.32,439.58L652.84,441.04L651.17,441.87L650.64,443.59L647.86,444.9L646.36,444.03L644.68,443.88L642.26,441.64L640.96,441.95L639.94,443.26L640.06,445.59L638.77,446.27L637.8,446.19L636.89,445.11L635.76,445.9L633.5,446.27L631.76,445L630.55,445.01L628.26,443.53L625.82,444.11L624.47,446.02L623.35,446.92L622.48,448.25L623.07,450.12L621.95,452.35L621.09,451.89L620.68,450.6L619.03,449.43L616.69,448.23L614.23,448.46L613.21,450.52L611.78,451.16L608.55,452.08L606.19,452.05L605.44,453.45L604.6,454.16L603.78,453.16L603.83,451.7L601.8,450.12L603.93,448.44L603.77,446.11L601.66,444.07L601.39,443.18L602.44,440.72L600.33,440.2L599.21,436.59L599.41,435.74L597.83,434.35L596.95,432.79L595.75,432.29L594.56,431.05L592.47,429.95L590.99,430.03L589.01,428.52L588.2,430.78L586.24,431.19L585,432.25L583.76,429.66L584.41,427.23L585.44,425.53L586.8,424.74L586.95,424.06L583.88,420.55L582.2,419.56L581.18,418.56L580.58,417.28L579.17,415.85L575.8,417.36L574.02,416.97L572.87,417.57L571.38,416.05L570.37,416.55L569.69,416.1L566.28,416.47L566.02,415.48L566.18,412.89L565.45,411.77L564.48,411.46L563.24,412.7L561.4,412.58L560.95,411.66L561.23,409.95L560.53,407.94L557.94,403.82L556.51,402.49L554.76,403.24L553.5,403.26L553.33,402.25L551.75,401.54L550.21,401.27L546.49,399.25L546.27,398.26L545,396.85L544.9,395.8L543.45,395.94L541.56,395.51L541.61,393.63L543.44,391.58L543,387.51L543.8,386.91L544.15,385.53L545.64,384.76L546.86,384.66L548.5,383.11L548.64,382.22L549.99,381.87L552.68,379.69L551.39,378.76L550.91,377.83L551.61,376.82L552.73,376.92L554.73,374.04L555.6,374.04L557.6,372.67L559.75,372.61L559.42,371.54L557.79,369.34L558.33,367.38L558.02,364.6L557.13,364.53L553.9,362.04L553.8,360.54L553.06,360.13L547.35,361.2L546.25,360.35L546.24,359.16L546.9,357.68L544.66,355.52L544.97,354.34L543.65,353.3L542.77,351.09L544.1,351.79L544.82,350.99L544.82,349.53L545.55,348.52L546.95,349.72L548.6,348.73L549.15,347.43L550.8,346.72L550.86,344.97L552.25,344.13L552.31,342.93L553.05,341.68L552.15,341.29L552.75,336.22L553.79,333.22L554.45,334.43L553.91,335.95L554.18,337.29L555.08,339.03L558.18,338.54L560.74,337.8L562.03,338L563.34,338.76L564.6,338.82L565.57,337.68L569.27,337.7L570.67,338.35L573.84,337.2L573.96,336.28L575.07,335.74L579.16,335.46L579.26,334.29L577.41,332.01L576.55,332.34L575.91,331.11L579.63,328.89L581.16,328.23L580.52,326.8L579.55,326L578.98,324.5L578.17,323.66L577.42,322.04L576.16,320.61L575.85,319.56L574.82,318.97L576.37,317.14L575.16,316.36L574.71,315.4L573.46,315.53L571.53,315.03L574.16,313.01L574.96,313.91L577.78,312.92L578.15,312.37L577.45,310.43L579.01,310.18L581.22,308.75L582.42,310.32L584.68,309.16L587.17,307.25L588.56,305.29L589.8,304.72L590.52,303.53L592.16,303.06L595.08,300.46L594.34,297.19L594.61,296.52L593.85,295.33L593.07,295.84L591.37,295.13L589.42,297.17L588.5,296.62L588.57,295.41L589.4,294.61L592.65,293.53L592.84,293.02L594.91,291.61L595.25,290.75L593.77,289.92L593.25,288.61L594.74,286.75L595.33,286.48L595.81,284.2Z" class="land" id="BE-WLX" title="Luxembourg"/>
    <path d="M450.1,90.04L452.14,90.58L453.66,91.64L454.45,93.5L454.44,97.14L454.67,98.86L455.42,100.24L459,102.1L459.98,102.88L460.71,104.46L460.29,105.56L458.73,107.26L458.14,108.36L456.87,108.66L456.72,110.24L457.51,110.9L457.89,114.17L459.35,118.3L458.4,118.46L458.88,120.1L460.88,119.8L460.39,121.18L460.26,123.21L461.8,123.85L461.6,125.8L461.89,129.49L461.39,133.46L460.83,134.56L458.98,135.63L455.32,135.99L453.02,137.28L450.96,137.54L448.11,136.15L446.95,136.17L444.43,139.08L442.68,139.95L442.1,141.07L442.11,142.34L443.68,143.48L444.18,144.55L443.82,147.56L444.82,148.41L445.28,149.55L444.1,150.82L444.9,152.39L446.3,153.66L447.98,153.4L449.57,151.79L450.51,153.05L450.05,156.74L448.24,157.52L449.64,158.91L449.6,160.12L447.93,162.27L446.1,163.7L443.92,163.78L441.77,162.55L440.56,162.55L439.97,163.5L440.1,164.75L438.42,167.23L439.98,169.3L440.88,171.86L439.82,172.53L440.9,173.88L438.51,176.16L436.64,175.96L432.87,173.88L431.94,174.87L431.98,177.13L433.02,178.46L431.32,179.83L430.04,180.31L430.96,181.93L431.79,182.37L430.54,185.88L429.37,186.05L428.45,187.38L428.43,188.29L427.6,189.32L427.83,190.27L426.8,191.72L425.79,192.25L426.64,193.52L428.93,193.07L429.13,195.32L429.88,196.53L429.14,200.25L427.58,202.78L426.63,203.12L425.25,204.78L423.44,204.38L422.54,205.77L421.47,205.41L420.77,204.4L418.81,206.93L417.38,206.76L417.08,205.19L415.58,204.3L413.34,205.65L412.05,208.34L412.33,210.79L413.75,210.12L414.09,211.89L414.81,212.8L413.56,214.3L412.49,213.93L410.92,214.19L409.61,213.67L408.77,214.36L407.55,213.57L407.87,212.68L406.22,210.19L404.35,210.43L403.21,210.04L401.2,210.97L400.41,211.78L397.85,211.22L397.41,210.19L395.13,210.21L392.41,210.53L391.49,208.46L390.58,207.68L389.73,205.89L389.67,204.36L387.73,205.98L386.82,205.85L384.78,206.6L384.02,205.19L381.65,205.19L379.22,207.29L379.04,209.15L377.99,209.33L377.83,210.69L375.72,212.35L375.54,215.55L374.23,215.81L372.96,215.29L371.7,213.63L370.25,213.61L368.93,214.32L366.41,214.42L365.2,213.1L364,213.49L363.57,212.31L363.81,210.55L362.07,207.13L360.49,207.92L357.6,208.57L355.23,208.18L352.9,206.56L355.66,204.11L356.46,202.62L358.14,200.8L359.44,201.14L360.65,198.98L358.77,196.65L359,194.63L359.65,193.82L357.82,192.14L357.07,190.85L356.72,189.28L356.03,188.71L354.05,189.54L353.56,187.88L352.51,187.48L352.75,185.02L354.11,184.79L354.8,183.48L354.35,182.41L355.28,180.76L354.26,180.31L352.92,178.74L351.63,178.98L351.03,180.07L349.55,180.72L348.42,180.35L347.48,179.34L348.82,176.96L349.7,176.5L348.66,174.99L349.66,173.62L351.96,174.28L352.32,172.99L350.85,172.79L352.26,170.51L351.07,169.83L348.22,170.55L347.23,168.94L350.61,167.57L348.75,165.05L349.68,162.86L351.66,161.37L351.15,160.62L351.92,159.76L351.5,157.24L350.45,156.19L348.76,152.63L349.95,152.75L351.28,150.98L349.93,149.67L348.11,149.41L347.44,147.76L345.38,147.14L341.97,143.62L339.93,142.78L336.92,140.71L338.1,139.58L339.71,138.94L339.94,138.08L342.28,137.13L343.21,135.23L344.21,134.68L345.71,131.21L346.09,128.34L343.83,124.37L343.68,123.31L342.26,122.47L341.17,123.23L340.49,122.21L340.99,121.2L342.59,121.16L343.51,120L342.66,117.76L341.31,115.09L345.18,113.19L345.19,110.76L343.71,108L343.16,105.7L344.04,105.88L344.77,107.32L346.09,108.16L346.61,109.22L347.51,108.64L348.62,109.78L348.85,111.23L351.26,112.27L355.76,112.09L361.37,111.43L361.36,110.68L359.92,103.2L361.15,102.96L362.01,103.86L362.85,103.7L363.41,102.44L364.82,102.62L366.04,101.72L367.46,102.96L368.75,101.98L368.15,100.9L369.69,99.68L372.85,101.26L375.58,102.88L377.74,102.48L380.05,103.84L381.7,104.4L382.14,105.26L384.43,106.12L386.01,105.92L390.08,106.7L391.39,108.46L392.14,107.72L394.97,109.52L394.21,111.63L394.08,115.01L394.41,117.64L395.37,118.36L396.71,118.06L398.31,118.78L400.03,117.9L401.93,117.76L402.81,118.3L406.44,115.93L407.17,117.17L405.36,119L406.37,120.46L407.95,120.06L410.15,118.74L410.37,117.21L411.47,116.53L412.45,118.08L413.3,117.56L415.29,117.27L416.01,115.65L417.38,115.53L418.48,113.87L422.37,111.49L423.64,112.23L425.28,111.59L425.84,112.27L428.14,111.73L428.57,110.98L432.98,108.14L441.47,101.7L447.86,93.42Z" class="land" id="BE-VOV" title="East Flanders"/>
    <path d="M492.8,251.25L492.28,248.45L492.43,247.33L494.14,247.21L495.65,245.82L497.72,245.72L497.96,246.94L499.67,246.41L501.11,247.61L502.84,246.7L504.18,246.39L504.81,245.32L503.19,244.26L502.45,241.21L502.62,239.26L504.54,238.12L506.74,239.85L509.36,240.7L509.66,238.13L511.4,237.56L513.73,239.55L513.08,240.2L514.34,241.25L516.77,239.43L518.35,239.61L519.43,241.66L519.98,241.29L518.94,239.45L522.52,237.96L524.62,238.04L527.62,236.5L531.71,235.45L533.12,235.34L532.93,233.98L534.58,234.57L536.52,234.29L537.96,231.85L539.17,230.57L541.14,230.17L542.69,231.83L543.54,231.3L544.17,232.44L543.27,232.89L543.95,234.67L543.17,236.42L545.55,237.74L545.46,239.81L547.7,241.48L548.93,241.92L548.89,242.72L549.6,245.44L551.49,247.39L551.24,249.32L552.14,250.89L552.01,251.5L550.54,252.11L550.01,252.84L552.7,252.9L557.14,253.35L556.83,254.1L557.67,256.87L558.6,257.82L560.14,258.52L563.25,256.87L563.6,257.6L561.68,258.68L562.42,259.98L562.28,261.1L563.07,261.81L565.02,261.16L565.69,261.69L564.42,262.71L565.13,263.46L565.99,265.52L567.03,265.13L567.88,263.93L569.47,263.95L570.93,264.48L571.77,266.89L573.43,270.23L574.18,270.29L575.09,271.55L574.99,274.39L573.36,275.81L575.03,278.38L577.48,279.06L578.22,278.59L581.53,280.42L580.62,281.44L580.82,283.4L582.85,285.93L584.17,284.83L585.54,284.44L587.79,283.01L589.62,281.38L591.05,282.04L591.84,282.97L593.46,281.67L594.85,283.14L595.81,284.2L595.33,286.48L594.74,286.75L593.25,288.61L593.77,289.92L595.25,290.75L594.91,291.61L592.84,293.02L592.65,293.53L589.4,294.61L588.57,295.41L588.5,296.62L589.42,297.17L591.37,295.13L593.07,295.84L593.85,295.33L594.61,296.52L594.34,297.19L595.08,300.46L592.16,303.06L590.52,303.53L589.8,304.72L588.56,305.29L587.17,307.25L584.68,309.16L582.42,310.32L581.22,308.75L579.01,310.18L577.45,310.43L578.15,312.37L577.78,312.92L574.96,313.91L574.16,313.01L571.53,315.03L573.46,315.53L574.71,315.4L575.16,316.36L576.37,317.14L574.82,318.97L575.85,319.56L576.16,320.61L577.42,322.04L578.17,323.66L578.98,324.5L579.55,326L580.52,326.8L581.16,328.23L579.63,328.89L575.91,331.11L576.55,332.34L577.41,332.01L579.26,334.29L579.16,335.46L575.07,335.74L573.96,336.28L573.84,337.2L570.67,338.35L569.27,337.7L565.57,337.68L564.6,338.82L563.34,338.76L562.03,338L560.74,337.8L558.18,338.54L555.08,339.03L554.18,337.29L553.91,335.95L554.45,334.43L553.79,333.22L552.75,336.22L552.15,341.29L553.05,341.68L552.31,342.93L552.25,344.13L550.86,344.97L550.8,346.72L549.15,347.43L548.6,348.73L546.95,349.72L545.55,348.52L544.82,349.53L544.82,350.99L544.1,351.79L542.77,351.09L543.65,353.3L544.97,354.34L544.66,355.52L546.9,357.68L546.24,359.16L546.25,360.35L547.35,361.2L553.06,360.13L553.8,360.54L553.9,362.04L557.13,364.53L558.02,364.6L558.33,367.38L557.79,369.34L559.42,371.54L559.75,372.61L557.6,372.67L555.6,374.04L554.73,374.04L552.73,376.92L551.61,376.82L550.91,377.83L551.39,378.76L552.68,379.69L549.99,381.87L548.64,382.22L548.5,383.11L546.86,384.66L545.64,384.76L544.15,385.53L543.8,386.91L543,387.51L543.44,391.58L541.61,393.63L541.56,395.51L541.22,396.13L539.8,395.63L538.76,396.75L536.58,398.3L535.4,397.94L533.92,398.54L532.62,397.97L531.3,398.11L530.25,397.24L529.13,397.88L527.88,397.92L526.88,397.14L528.24,395.34L528.56,393.27L529.77,392.34L529.17,391.48L528.76,387.84L527.53,387.74L527.52,386.77L526.81,385.53L526.33,382.88L528.03,382.82L527.79,381.92L530.09,377.38L531.32,376.69L531.47,374.57L530.45,373.33L530.5,372.18L527.68,370.32L526.36,367.05L525.51,366.62L524.22,366.97L522.08,365.93L521.32,365.94L519.3,365.13L519.13,363.07L519.83,360.23L521.04,360.21L522.71,358.11L522.43,357.02L522.99,354.92L522.67,354.34L522.89,352L525.58,349.59L525.28,348.03L523.79,347.17L524.02,345.95L523.06,345.48L522.94,344.35L525.19,343.92L526.14,340.73L525.28,338.87L526.97,337.14L528.17,337.96L528.08,339.05L529.36,339.91L529.82,338.89L528.98,338.11L529.47,335.93L528.89,334.02L529.27,332.71L532.26,330.74L532.32,329.88L530.88,329.69L530.03,327.21L526.73,327.56L524.88,326.96L522.82,324.95L521.23,327.37L518.33,329.14L515.8,330.39L514.23,335.25L509.85,337.49L509.53,338.19L508.19,338.43L506.58,341.62L506.33,343.16L505.44,344.04L506.2,346.04L507.31,345.98L507.56,347.27L507.3,348.92L506.34,351.46L505.93,355.6L506.34,357.25L505.79,357.72L503.6,357.76L499.52,359.41L495.2,359.51L492.36,360.6L491.53,362.02L490.32,362.7L488.31,362.78L487.03,364.2L486.03,366.53L484.44,367.17L480.68,367.07L476.26,369.09L474.67,368.26L476.28,366.02L475.14,362.12L473.34,359.8L473.03,358.11L472.39,357.25L472.54,354.8L472.02,353.4L471.97,351.16L471.49,349.53L471.83,348.28L470.98,347.35L469.89,347.93L469.44,347.15L470.08,345.6L469.49,344.02L470.04,341.48L469.3,339.15L469.54,337.29L468.84,336.13L470.07,334.25L470.42,332.58L468.64,330.63L469.12,329.22L468.6,327.74L467.53,326.59L466.33,326.43L465.89,323.76L467.74,323.03L469.85,321.59L470,319.4L469.57,317.7L469.49,315.81L470.62,311.72L469.1,311.39L468.84,310.43L467.62,310.43L466.4,309.73L465.65,310.84L463.89,312.21L460.71,311.41L460.26,310.73L457.68,309.3L456.65,308.09L456.5,307.19L457.78,305.7L458.8,305.47L461.39,303.49L463.29,302.81L465.24,303.39L466.59,301.44L466.8,300.11L468.85,300.42L469.82,299.75L471.15,297.64L471.38,296.54L473.2,297.15L474.67,296.58L477.31,297.37L478.81,296.45L478.56,295.82L479.44,294.74L479.88,293.08L483.49,292.84L483.87,294.33L486.07,295.35L488.2,294.98L491.12,293.98L494.02,294.33L494.72,293.25L494.67,290.67L493.25,290.26L494.01,288.73L493.12,287.77L493.62,285.2L494.74,284.4L494.11,282.81L495.54,282.06L495.85,281.22L494.67,280.71L494.59,279.22L496.39,277.3L496.76,274.63L497.65,274.26L497.07,273.1L496.26,273.71L494.62,273.41L493.51,271.74L492.53,271.67L493.56,270.04L492.46,268.31L493.52,268.27L493.96,266.66L495.06,265.5L495.55,263.97L494.17,261.96L493.63,260.21L492.88,259.55L490.86,261.51L490.45,260.72L490.16,258.23L492.91,253.82Z" class="land" id="BE-WNA" title="Namur"/>
    <path d="M543.24,153.58L543.47,154.48L545.56,153.52L546.89,153.46L547.9,154.88L548.49,156.53L551.05,155.61L552.38,156.15L552.69,157.38L553.88,157.18L555.96,155.79L555.58,154.92L555.55,151.2L556.5,150.64L559.02,151.08L560.3,150.6L565.34,155.69L563.35,156.88L560.65,158.06L561.29,161.08L558.72,161.41L557.21,162.92L555.59,163.34L555.45,164.33L556.03,166.36L555.28,167.31L555.18,168.44L552.96,169.44L552.13,171.4L550.95,171.9L552.29,175.98L553.7,177.02L555.31,176.08L557.01,178.54L558.67,177.41L561.08,176.76L562.15,176.1L562.54,177.75L564.92,177.87L566.47,177.65L567.64,178.23L568.83,179.61L568.73,182.47L567.88,183.24L567.92,184.13L566.57,185.82L564.89,184.51L564.57,187.66L564.04,189.54L562.6,190.55L563.32,191.18L562.29,193.3L562.77,195.22L561.84,197.2L563.18,198.29L563.35,199.58L562.3,201.5L560.25,201.46L559.32,202.76L558.97,204.19L560.15,207.19L559.12,208.53L558.32,210.93L558.72,211.64L560.6,212.8L559.9,213.83L558.77,217.39L558.19,218.04L557.49,219.06L555.59,218.06L554.49,218.37L551.11,215.05L551.43,211.93L548.11,209.9L546.06,206.87L543.42,205.98L541.71,206.52L541.75,207.49L539.81,208.97L539.79,209.78L537.88,210.39L533.98,210L534.56,208.79L533.57,207.88L534.02,206.97L532.41,205.93L531.13,207.61L530.2,206.72L528.26,207.11L526.44,206.48L525.44,207.25L524.62,206.14L525.13,204.84L522.29,204.66L521.52,202.82L519.62,200.39L518.64,200.23L515.69,198.75L514.29,198.67L511.49,200.63L510.09,202.25L509.59,200.9L508.69,201.87L507.25,202.17L505.98,201.44L503.83,201.65L501.82,200.41L501.04,204.09L500.32,205.53L501.62,208.08L502.57,208.83L501.45,210.31L499.92,211.4L498.79,211.14L496.14,211.7L495.45,210.79L495.67,209.09L495.26,207.37L492.98,208.44L493.05,209.29L491.95,210.59L490.21,210.27L487.38,212.19L486.67,214.05L485.87,214.28L484.38,213.71L484.28,212.96L482.08,211.08L482.94,209.46L482.27,208.85L481.32,209.64L478.34,209.25L475.47,211.66L473.6,212.88L470.63,213.18L467.19,214.13L467.19,216.6L464.5,216.54L463.13,213.42L462.41,213.1L461.2,214.07L461.89,214.96L460.98,216L459.81,215.94L458.81,220.01L456.9,220.94L455.34,220.11L453.27,220.01L451.41,222.08L450.51,221.63L449.59,220.29L446.45,218.21L442.91,218.61L442.91,217.33L442.01,215.63L439.85,213.93L438.29,214.19L438.14,215.17L437.06,216.42L434.92,217.25L434.27,216.52L432.98,218.63L431.03,217.8L429.54,217.98L427.97,221.14L427.25,219.85L426.45,219.79L424.58,221.27L422.98,221.12L421.59,220.48L419.33,222.46L412.55,221.89L411.21,221.04L409.55,221.79L409.67,220.37L408.19,218.63L406.81,218.04L406.75,217.15L407.67,214.5L407.55,213.57L408.77,214.36L409.61,213.67L410.92,214.19L412.49,213.93L413.56,214.3L414.81,212.8L414.09,211.89L413.75,210.12L412.33,210.79L412.05,208.34L413.34,205.65L415.58,204.3L417.08,205.19L417.38,206.76L418.81,206.93L420.77,204.4L421.47,205.41L422.54,205.77L423.44,204.38L425.25,204.78L426.63,203.12L427.58,202.78L429.14,200.25L429.88,196.53L429.13,195.32L428.93,193.07L426.64,193.52L425.79,192.25L426.8,191.72L427.83,190.27L427.6,189.32L428.43,188.29L428.45,187.38L429.37,186.05L430.54,185.88L431.79,182.37L430.96,181.93L430.04,180.31L431.32,179.83L433.02,178.46L431.98,177.13L431.94,174.87L432.87,173.88L436.64,175.96L438.51,176.16L440.9,173.88L439.82,172.53L440.88,171.86L439.98,169.3L438.42,167.23L440.1,164.75L439.97,163.5L440.56,162.55L441.77,162.55L443.92,163.78L446.1,163.7L447.93,162.27L449.6,160.12L449.64,158.91L448.24,157.52L450.05,156.74L450.51,153.05L451.84,153.58L453.55,152.89L453.94,152.07L455.62,151.91L455.92,152.53L457.76,152.61L459.23,153.23L460.93,154.99L463.9,155.13L463.36,156.41L465.63,157.08L466.4,155.69L467.38,156.07L467.15,157.68L469.2,158.35L469.25,159.53L469.92,161.35L471.15,160.4L472.83,160.52L472.94,161.18L475.33,159.94L477.13,159.35L478.47,161.77L480.56,162.11L481.72,161.02L481.16,159.47L481.79,158.75L483.68,159.74L486.78,161.89L487.07,161.06L489.31,159.55L491.95,160.88L493.91,161.51L495.67,161.41L496.07,158.69L496.92,158.14L499.21,158.29L500.01,156.84L502.4,156.31L503.31,156.55L506,155.49L506.95,157.16L508.89,157.54L507.65,160.68L508.7,160.16L509.2,158.1L512.04,156.33L512.84,154.92L515.62,155.57L517.48,153.48L519.47,152.73L520.29,154.56L521.47,155.35L522.06,156.47L521.74,157.48L522.72,158.25L523.83,157.82L526.02,158.14L527.96,157.26L528.83,156.27L530.86,156.74L533.53,155.63L533.81,154.34L535.83,153.27L538.88,153.19L541.3,151.42L542.04,153.13ZM474.33,181L473.7,180.53L473.43,179.73L472.15,178.86L471.12,177.59L469.2,178.28L468.48,179.85L467.44,180.56L465.71,179.89L463.21,179.79L461.45,180.33L459.94,181.64L457.49,182.49L457.8,184.35L455.69,186.75L456.2,192.17L453.04,192.87L452.42,193.52L452.44,194.77L451.39,195.98L452.64,196.85L453.09,197.97L454.79,197.8L455.8,198.47L458.19,197.48L458.89,198.13L458.53,199.12L458.99,200.39L460.23,200.94L461.01,203.67L462.69,205.19L463.88,205.06L466,205.67L466.5,205.41L468.33,206L468.55,207.05L474.74,204.32L475.17,204.56L478.33,202.48L479.96,201.79L481.04,202.13L479.36,199.06L477.37,198.84L476.78,197.99L477.71,196.49L478.72,196.39L479.93,195.48L478.96,193.42L478.94,191.74L477.92,189.58L475.04,188.45L473.38,186.57L474.15,184.81L475.13,184.01L474.03,182.35Z" class="land" id="BE-VBR" title="Flemish Brabant"/>
    <path d="M343.16,105.7L343.71,108L345.19,110.76L345.18,113.19L341.31,115.09L342.66,117.76L343.51,120L342.59,121.16L340.99,121.2L340.49,122.21L341.17,123.23L342.26,122.47L343.68,123.31L343.83,124.37L346.09,128.34L345.71,131.21L344.21,134.68L343.21,135.23L342.28,137.13L339.94,138.08L339.71,138.94L338.1,139.58L336.92,140.71L339.93,142.78L341.97,143.62L345.38,147.14L347.44,147.76L348.11,149.41L349.93,149.67L351.28,150.98L349.95,152.75L348.76,152.63L350.45,156.19L351.5,157.24L351.92,159.76L351.15,160.62L351.66,161.37L349.68,162.86L348.75,165.05L350.61,167.57L347.23,168.94L348.22,170.55L351.07,169.83L352.26,170.51L350.85,172.79L352.32,172.99L351.96,174.28L349.66,173.62L348.66,174.99L349.7,176.5L348.82,176.96L347.48,179.34L348.42,180.35L349.55,180.72L351.03,180.07L351.63,178.98L352.92,178.74L354.26,180.31L355.28,180.76L354.35,182.41L354.8,183.48L354.11,184.79L352.75,185.02L352.51,187.48L353.56,187.88L354.05,189.54L356.03,188.71L356.72,189.28L357.07,190.85L357.82,192.14L359.65,193.82L359,194.63L358.77,196.65L360.65,198.98L359.44,201.14L358.14,200.8L356.46,202.62L355.66,204.11L352.9,206.56L352.12,206.44L352.26,208.22L349.51,208.55L349.68,210.21L348.15,210.65L346.78,210.55L345.92,211.16L345.83,212.68L344.56,214.26L341.88,214.62L340.98,216.12L340.41,218L337.32,216.52L335.99,215.63L336.52,214.03L335.88,212.19L333.65,208.95L330.07,209.76L328.19,209.64L326.58,208.4L325.3,208.28L323.89,207.07L322.89,206.82L321.89,207.51L320.21,207.51L319.3,208.75L317.59,208.83L315.54,205.43L314.56,204.24L314.19,202.13L311.11,202.84L310.98,202.27L309.37,201.36L308.47,203.91L306.52,205.45L305.43,205.59L302.9,204.09L300.62,205.08L300.08,206.08L298.41,205.98L297.84,205.41L299.16,204.03L297.41,203.32L296.78,202.52L296.56,200.96L297.33,199.58L296.92,198.59L295.52,197.99L294.26,198.79L291.14,199.64L290.47,200.47L288.84,201.14L288.83,201.89L290.63,204.38L290.52,205.25L288.68,205.47L285.5,207.05L285.58,208.55L281.41,209.15L279.2,208.95L278.96,207.98L277.46,208.46L275.63,209.92L276.81,211.83L275.5,212.92L277.11,215.13L277.93,215.57L279.11,217.37L278.24,218.51L276.28,215.45L272.65,216.83L269.12,214.68L267.95,211.3L267.97,209.84L266.81,208.99L265.94,209.07L264.7,207.41L265.32,205.81L264.03,204.44L262.27,203.41L260.98,201.59L260.47,199.6L260.83,198.11L259.18,197.5L255.19,197.46L253.84,196.27L252.27,197.54L249.88,197.7L248.94,194.79L248.63,192.97L247.57,192.17L247.45,190.63L245.43,189.52L246.99,187.26L246.27,185.32L246.69,184.23L246.07,182.78L246.59,181.18L246.02,178.92L246.29,177.69L244.8,177.37L244.25,176.44L245.78,174.75L247.61,173.56L247.71,171.92L249.22,171.52L249.08,170.23L247.78,166.84L246.94,165.88L246.37,162.43L243.98,161.65L242.19,159.98L241.97,157.98L242.44,157.76L241.34,153.42L240.6,149.53L240.58,147.54L238.44,142.76L247.79,137.34L251.56,134.77L252.89,134.44L257.21,132.4L262.02,129.27L266,127.3L277.09,119.6L281.9,116.01L282.99,115.57L284.39,114.19L286.18,112.99L287.1,112.79L292.62,109.36L295.53,107.42L303.42,101.9L305.3,100.08L310.7,97.4L318.31,94.4L317.57,93.1L316.55,90.18L317.15,89.5L318.27,91.5L319.95,92.52L321.01,92.24L321.96,93.12L323.5,92.24L323.3,90.56L322.64,89.02L323.49,88.82L323.91,92.34L327.18,91.78L330.59,90.28L331.33,89.66L334.85,88.34L338.58,87.19L340.21,87.15L341.27,86.55L342.31,88.56L342.23,90.66L343.31,92.06L343.53,93.86L340.41,97.36L340.42,97.82L342.52,100.28L341.46,100.86L341.89,102.16L343.22,103.28Z" class="land" id="BE-VWV" title="West Flanders"/>
  </g>
</svg>