<?xml version="1.0" encoding="UTF-8"?>
<svg xmlns="http://www.w3.org/2000/svg" width="414.02" height="399.63" viewBox="272.99 57.19 414.02 399.63" style="background-color:#000000">
  <!-- Created using SVG Map Generator: dojo.amcharts.com/svg-map-generator -->
  <style>
    .land { fill: #ffffff; stroke: #000000; stroke-width: 0.65; }
  </style>
  <g id="polygons">
    <path d="M535.54,88.92L542.34,80.09L548.58,85.56L558.48,84.37L563.69,90.83L558.37,96.55L546.52,96.77ZM579.89,239.05L579.78,239.01L570.71,251.51L562.18,272.95L556.42,270.16L549.33,277.73L557.86,289.29L573.58,289.06L580.89,295.72L587.18,295.18L593.6,283.73L597.47,281.5L611.31,281.83L617.18,293.73L621.18,296.51L609.11,307.62L597.59,311.5L583.53,303.95L575.44,305.39L561.63,295.72L555.54,306.95L555.49,307.16L550.98,323.78L545.21,324.9L517.31,322.61L512.89,326.73L510.56,336.51L516.64,343.4L513.33,358.74L504.8,366.73L515.87,381.95L509.01,388.4L507.34,395.84L512.33,409.4L546.43,446.35L541.23,448.94L525.58,432.49L509.34,420.55L503.23,418.9L495.46,403.27L492.49,407.34L482.79,402.4L484.81,395.51L475.69,377.95L455.53,365.74L450.79,356.14L444.53,350.58L436.47,335.4L439.58,326.83L433.48,318.76L424.69,318.95L414.02,311.78L399.64,293.01L383.31,279.22L379.13,268L361.71,253.23L357.44,243.09L350.71,242.07L349.65,234.9L343.61,235.04L338.96,226.75L329.54,216.16L326.92,194.67L319.31,180.94L318.86,171.94L308.69,166.43L311.35,158.06L294.75,138.07L286.31,141.78L275.64,127.75L279.38,119.92L278.13,111.28L282.93,100.06L278.88,91.37L282.69,83.93L280.58,75.86L288.94,67.22L298.76,70.44L307.48,70.15L314.12,85.97L333.15,99.17L323.1,103.93L330.34,121.1L340.87,127.26L346.13,119.55L355.13,123.08L366.54,121.97L369.61,127.47L377.72,126.82L383.66,131.66L394.4,159.62L392.64,171.07L384.74,172.61L356.89,169.53L348.77,171.73L350.86,181.32L360.13,188.35L364.3,194.73L377.24,200.67L410.37,229.73L413.88,236.11L420.69,239.42L433.41,237.66L435.05,236.22L437.71,231.93L437.27,218.07L433.76,214.54L426.73,194.95L431.13,191.43L430.03,183.28L437.71,184.16L442.75,180.65L454.16,188.35L454.6,191.86L475.22,197.15L490.8,185.48L500.23,183.72L508.57,177.77L509.67,171.61L501.33,152.02L503.75,147.62L503.57,147.42L516.47,143.22L521.95,145.63L525.02,157.75L530.72,161.26L544.76,163.47L548.72,162.59L555.96,161.7L547.62,148.72L536,145.41L529.85,137.05L539.72,133.31L546.74,133.75L551.57,121.42L557.05,114.16L564.07,113.29L569.77,125.39L574.67,125.72L574.39,125.83L570.65,131.55L574.83,141.01L586.45,142.12L590.18,138.16L599.18,137.49L599.38,137.24L591.28,152.9L598.52,165.23L606.64,168.97L611.68,167.21L618.04,155.77L622.21,161.26L622.82,162.91L621.75,170.78L612.22,187.22L593.63,200.67L599.38,224.84ZM588.51,107.86L596.96,105.53L584.73,91.34L578.39,88.7L565.73,91.4L571.53,98.31Z" class="land" id="BA-BIH" title="Federacija Bosne i Hercegovine"/>
    <path d="M618.15,122.41L609.26,135.08L600.27,136.17L599.18,137.49L590.18,138.16L586.45,142.12L574.83,141.01L570.65,131.55L574.39,125.83L576.79,124.95L582.51,113.72L588.51,107.86L596.96,105.53L594.7,114.42L603.02,121.64Z" class="land" id="BA-BRC" title="Brčko distrikt"/>
    <path d="M435.05,236.22L433.41,237.66L420.69,239.42L413.88,236.11L410.37,229.73L377.24,200.67L364.3,194.73L360.13,188.35L350.86,181.32L348.77,171.73L356.89,169.53L384.74,172.61L392.64,171.07L394.4,159.62L383.66,131.66L377.72,126.82L369.61,127.47L366.54,121.97L355.13,123.08L346.13,119.55L340.87,127.26L330.34,121.1L323.1,103.93L333.15,99.17L342.71,100.43L347.84,87.41L354.08,79.69L358.9,68.11L368.34,66.69L378.29,71.72L391.39,73.44L403.1,59.84L407.66,66.97L428.66,78.98L435.96,79.07L438.75,72.79L448.02,80.27L472.66,84.94L479.96,80.74L496.77,93.22L508.18,88.64L515.79,78.19L526.49,88.48L535.54,88.92L546.52,96.77L558.37,96.55L563.69,90.83L565.73,91.4L571.53,98.31L588.51,107.86L582.51,113.72L576.79,124.95L574.67,125.72L569.77,125.39L564.07,113.29L557.05,114.16L551.57,121.42L546.74,133.75L539.72,133.31L529.85,137.05L536,145.41L547.62,148.72L555.96,161.7L548.72,162.59L544.76,163.47L530.72,161.26L525.02,157.75L521.95,145.63L516.47,143.22L503.57,147.42L503.75,147.62L501.33,152.02L509.67,171.61L508.57,177.77L500.23,183.72L490.8,185.48L475.22,197.15L454.6,191.86L454.16,188.35L442.75,180.65L437.71,184.16L430.03,183.28L431.13,191.43L426.73,194.95L433.76,214.54L437.27,218.07L437.71,231.93ZM546.43,446.35L512.33,409.4L507.34,395.84L509.01,388.4L515.87,381.95L504.8,366.73L513.33,358.74L516.64,343.4L510.56,336.51L512.89,326.73L517.31,322.61L545.21,324.9L550.98,323.78L555.49,307.16L555.54,306.95L561.63,295.72L575.44,305.39L583.53,303.95L597.59,311.5L609.11,307.62L621.18,296.51L617.18,293.73L611.31,281.83L597.47,281.5L593.6,283.73L587.18,295.18L580.89,295.72L573.58,289.06L557.86,289.29L549.33,277.73L556.42,270.16L562.18,272.95L570.71,251.51L579.78,239.01L579.89,239.05L599.38,224.84L593.63,200.67L612.22,187.22L621.75,170.78L622.82,162.91L622.21,161.26L618.04,155.77L611.68,167.21L606.64,168.97L598.52,165.23L591.28,152.9L599.38,137.24L600.27,136.17L609.26,135.08L618.15,122.41L626.3,121.02L638.19,112.15L657.61,116.93L659.79,120.27L651.08,134.83L652.07,145.08L648.46,146.87L633.18,170.38L634.64,186.95L630.15,192.52L636.83,205.87L644.15,209.18L653.35,207.85L657.13,220.69L670.89,230.43L672.66,235.04L682.3,237.26L684.36,244.99L674.46,253.7L660.03,253.15L647.48,247.55L644.18,249.4L660.18,270.37L661.38,277.66L672.41,287.52L674.44,299.95L671.34,308.31L662.86,310.07L658.39,304.51L646.03,306.22L645.57,315.15L636.68,313.58L633.28,316.68L625.07,310.77L619.26,310.52L616.62,317.25L623.6,337.32L629.18,345.75L629,351.01L620.65,356.52L614.71,349.9L609.98,339.82L602.73,341.53L587.52,354.54L589.99,359.32L582.52,373.5L587.99,388.78L572.52,388.76L567.09,399.54L568.31,407.51L563.72,421.25L568.9,431.08L573.23,430.71L574.51,441.76L566.79,444.52L567.34,450.36L560.67,454.16L552.77,445.58Z" class="land" id="BA-SRP" title="Republika Srpska"/>
  </g>
</svg>