<?xml version="1.0" encoding="UTF-8"?>
<svg xmlns="http://www.w3.org/2000/svg" width="613.38" height="399.63" viewBox="173.31 57.19 613.38 399.63" style="background-color:#000000">
  <!-- Created using SVG Map Generator: dojo.amcharts.com/svg-map-generator -->
  <style>
    .land { fill: #ffffff; stroke: #000000; stroke-width: 0.65; }
  </style>
  <g id="polygons">
    <path d="M285.83,344.28L291.62,344.04L295.48,339.8L296.9,331.95L298.08,330.44L304.61,330.44L306.52,334.26L311.41,335.86L311.6,331.33L314.31,331.33L313.59,336.31L315.79,337.64L315.5,341.25L317.17,346.3L316.15,352.37L312.06,356.46L311.69,359.89L313.28,365.76L314.17,374.92L316.51,377.56L326.91,382.05L335.64,388.72L340.25,393.91L346.03,398.48L347.09,400.74L343.94,405.18L344.29,408.47L341.83,414.52L341.97,417.38L340.69,426.76L336.34,426.45L333.23,428.68L329.16,424.22L325.31,427.1L316.4,428.87L313.06,434.15L309.54,432.66L304.13,432.35L300.54,436.84L290.49,433.45L285.79,433.84L281.12,432.88L274.13,436.23L271.84,438.24L269.86,433.7L266.08,433.63L261.15,436.9L261.01,440.38L258.65,443.53L252.05,445L246.8,444.88L241.28,442.24L239.23,442.92L235.18,439.59L235.37,434.45L233.95,431.37L236.54,427.66L234.58,421.37L234.57,416.04L235.96,412.66L233.96,409.3L233.55,403.37L236.8,400.35L241.85,393.18L239.54,385.88L235.12,384.95L232.84,379.32L232.43,375.4L229.1,371.51L228.36,366.42L226.41,363.79L226.72,358.55L225.86,353.52L230.32,350.68L231.29,343.67L234.67,341.76L236.18,346.65L239.91,346.48L242.15,349.42L251.57,347.04L257.58,342.35L269.81,346.45L273.15,346.72L276.18,348.91L282.82,347.1Z" class="land" id="BG-01" title="Blagoevgrad"/>
    <path d="M638.07,232.3L644.01,228.97L651.08,229.46L656.89,231.11L663.15,236.54L668.2,239.85L673.74,239.15L676.07,240.75L679.14,238.13L684.59,238.09L690.38,239.33L695.04,239.06L697.02,242.46L701.94,245.36L706.02,246.38L710.34,244.84L713.89,245.05L715.64,253.69L714.51,256.54L715.39,263.21L706.72,263.01L699.25,262L697.61,263.94L698.09,268.86L689.74,273.44L689.68,279.37L686.39,281.98L682.4,282.99L678.44,282.37L676.5,284.51L674.78,291.24L671.58,294.6L678.74,298.84L681.17,295.51L685.15,295.12L687.32,296.93L691.4,296.18L690.81,299.79L696.62,301.56L697.32,307.73L699.81,312.18L704.47,311.26L704.52,315.12L701.53,317.71L701.32,322.84L705.1,327.08L709.7,330.14L711.02,333.32L715.2,336.82L717.03,340.97L719.22,341.78L726.63,351.75L728.77,357.53L723.09,357.46L716.88,359.07L713.34,355.51L708.13,356.63L708.11,361.75L696.82,358.41L688.09,363.21L684.18,363.64L680.84,366.35L677.83,360.76L675.91,361.61L671.76,359.61L670.14,356.57L666.32,354.75L663.76,348.09L654.27,341.89L649.58,342.55L647.3,345.84L640.85,346.64L638.61,344.13L634.62,343.23L631.65,344.57L629.44,341.59L624.35,338.6L621.32,332.86L624.1,329.57L621.66,321.74L623.21,318.34L620.73,316.47L618.93,312.55L615.4,309.52L614.44,305.29L615.71,303.78L622.88,302.55L625.06,298.71L623.94,296.94L617.77,297.23L613.9,290.31L612.32,285.91L609,281.71L605.15,272.78L600.26,267.99L596.97,263.45L597.34,259.83L593.09,253.03L589.13,252.58L586.2,248.25L587.5,243.31L585.53,236.27L582.88,233.64L589.1,233.4L589.6,237.33L598.66,236.72L603.46,232.8L611.45,232.44L615.33,234.08L622.08,233.31L623.87,236.19L626.82,236.5L633.07,232.88Z" class="land" id="BG-02" title="Burgas"/>
    <path d="M669.4,144.62L675.05,150.16L675.88,155.84L679.08,156.66L684.85,151.95L688.22,152.51L688.78,158.44L693.93,161.05L699.81,161.57L701.23,164.84L707.59,171.43L711.38,176.59L717.09,170.93L722.66,171.73L725.8,175.16L728.47,180.22L730.71,182.09L728.92,188.24L726.55,193.07L716.61,197.18L717.07,200.25L720.15,201.01L716.86,215.14L714.54,218.27L714.55,223.29L716.13,232.76L715.19,234.56L715.78,242.63L713.89,245.05L710.34,244.84L706.02,246.38L701.94,245.36L697.02,242.46L695.04,239.06L690.38,239.33L684.59,238.09L679.14,238.13L676.07,240.75L673.74,239.15L668.2,239.85L663.15,236.54L656.89,231.11L651.08,229.46L644.01,228.97L638.07,232.3L638.34,228.4L636.06,224.78L635.53,220.52L639.46,220.29L649.47,216.74L648.41,215.36L647.92,208.67L645.82,206.73L646.46,202.18L655.03,197.45L653.55,192.81L651.87,182.91L655.83,182.29L657.15,180.12L655.7,173.39L655.96,170.07L660.42,163.89L660.6,156.63L657.65,152.24L658.69,149.66L667.46,147.42Z" class="land" id="BG-03" title="Varna"/>
    <path d="M476.58,139.38L481.76,142.5L480.05,144.79L480.55,148.76L483.48,155.5L488.61,160.39L487.16,166.62L496.34,171.86L502.13,169.87L508.7,174.66L513.23,174.42L518.93,176.67L524.14,175.28L525.37,179.27L530.32,180.39L535.07,184.42L535.94,188.97L540.85,195.27L541.22,198.33L538.71,199.83L536.21,206.63L535.84,213.33L537.29,218.19L540.91,221.27L537.73,224.15L537.55,226.58L548.29,229.98L545.68,234L534.29,240.07L533.97,246.45L527.81,251.06L521.1,249.7L516.43,251.04L511.2,250.07L504.61,249.64L495.28,253.99L492.35,251.67L490.14,245.49L494.01,241.93L491.22,234.82L486.06,232.59L486.15,227.87L490.31,222.62L482.95,217.94L476.72,216.59L473.45,217.3L471.01,215.19L464.02,215.54L464.62,209.29L460.89,208.05L455.91,210.34L449.71,208.73L443.63,202.7L443.11,198.81L446.51,198.21L446.62,194.38L449.42,190.2L449.66,186.73L456.82,179.43L457.07,173.81L453.21,173.06L454.27,166.44L447.39,167.19L447.2,163.29L453.72,160.28L455.05,151.95L452.62,147.93L454,145.23L454.28,135.6L458.84,132.75L466.87,139.61L470.57,140.71Z" class="land" id="BG-04" title="Veliko Tarnovo"/>
    <path d="M243.84,116.98L239.95,119.65L234.95,119.69L235.18,123.56L242.85,126.3L243.97,129.74L231.26,135.48L229.44,138.01L226.88,146.71L223.67,149.66L220.67,156.74L216.36,159.57L215.9,165.74L212.29,170.99L207.37,170.71L205.46,166.34L199.56,165.15L196.85,161.35L193.33,160.51L190.58,154.11L188.73,147.49L189,137.82L182.49,132.52L180.88,130.05L179.6,121.58L175.96,114.65L178.11,109.82L180.86,97.36L181.06,88.61L188.3,86.42L192.7,86.4L193.13,82.19L201.66,80.54L200.65,74.6L202.3,64.17L206.8,59.84L213.1,61.96L219.81,68.02L232.71,75.66L241.04,76.85L242.92,81.99L239.56,87.67L229.36,89.99L227.02,92.18L223.08,105.21L224.58,109.87L226.64,111.79L235.54,114.95Z" class="land" id="BG-05" title="Vidin"/>
    <path d="M369.48,130.12L367.38,139.64L361.83,138.14L356.16,145.38L351.59,144.88L352.86,148.29L353.87,158.27L360.26,160.72L358.65,167.55L355.56,167.24L349.27,168.85L346.56,174.07L334.34,175.51L331.5,192L332.81,193.9L337.58,192.75L339.57,195.14L340.53,207.73L334.78,208.66L335.22,214.37L333.06,218.12L329.47,215.92L319.95,215.67L317.41,213.78L313.61,214.59L308.11,218.07L303.71,215.74L298.77,219.03L294.37,223.93L292.22,223.93L284.86,213.57L284.01,208.45L287.76,203.16L285.2,200.97L279,200.41L277.92,195.17L281.7,193.87L283.23,190.04L279.93,187.8L274.95,187.08L270.79,184.61L271.78,181.52L276,177.81L279.8,170.43L279.21,163.62L283.06,157.36L293.18,158.2L295.85,154.03L300.45,151.87L295.75,147.35L295.08,145.09L298.76,140.64L301.35,134.47L301.67,126.55L300.26,122.71L300.66,117.32L309.68,115.84L313.14,118.48L322.81,122.52L333.3,123.94L341.57,127.24L344.6,129.65L352.84,132.19L365.55,130.08Z" class="land" id="BG-06" title="Vratsa"/>
    <path d="M443.11,198.81L443.63,202.7L449.71,208.73L455.91,210.34L460.89,208.05L464.62,209.29L464.02,215.54L471.01,215.19L473.45,217.3L476.72,216.59L482.95,217.94L490.31,222.62L486.15,227.87L486.06,232.59L491.22,234.82L494.01,241.93L490.14,245.49L492.35,251.67L495.28,253.99L492.76,256.61L490.12,254.06L486.66,256.02L481.3,255.4L479.07,252.79L475.32,252.24L474.59,256.89L462.73,253.6L459.05,254.15L452.85,250.39L450.02,252.58L446.52,252.84L442.32,255.35L435.17,254.45L435.37,249.22L428.37,238.74L423.47,236.35L421.76,230.54L421.76,226.64L424.67,220.33L429.12,218.75L428.15,209.05L432.05,203.98L431.28,197.25L432.26,195.85L437.32,197.97Z" class="land" id="BG-07" title="Gabrovo"/>
    <path d="M730.71,182.09L728.47,180.22L725.8,175.16L722.66,171.73L717.09,170.93L711.38,176.59L707.59,171.43L701.23,164.84L699.81,161.57L693.93,161.05L688.78,158.44L688.22,152.51L684.85,151.95L679.08,156.66L675.88,155.84L675.05,150.16L669.4,144.62L665.72,139.95L659.91,143.92L654.19,137.43L649.69,136.8L647.22,133.84L649.15,131.39L648.04,126.66L654.97,118.72L660.64,117.52L670.3,108.39L675.48,110.09L678.51,106.44L680.43,101.54L682.88,104.17L685.93,101.78L689.64,96.44L696.56,93.09L701.46,94.78L710.2,93.67L717.27,88.04L719.9,91.32L720.81,97L723.13,102.98L724.73,110.34L736.21,116.33L748.35,121.78L759.12,122.6L768.78,125.12L781.72,124.42L780.26,131.23L781.75,137.86L780.75,142.96L784.01,149.19L784.04,153.62L778.35,165.03L773.79,168.5L770.09,173.35L762.97,169.18L755.45,167.41L747.18,169.83L740.49,169.04L734.14,173.31Z" class="land" id="BG-08" title="Dobrich"/>
    <path d="M461.02,363.63L459.7,368.05L462.48,379.86L468.29,375.19L470.62,380.82L477.97,384.99L484.9,387.48L492.29,385.85L494.96,389.95L495.38,394.54L497.44,398.67L496.06,403.18L503.18,405.89L506.7,401.78L510.13,400.69L514.45,401.71L516.1,407.03L511.93,410.3L510.01,416.73L515.43,424.24L514.65,429.92L521.55,436.32L524.07,439.74L524.55,443.94L519.39,445.93L513.55,440.49L509.14,443.8L503.45,444.27L502.19,447.66L497.38,444.75L494.02,446.02L487.93,444.32L484.97,449.49L479.57,448.13L474.9,451.06L469.02,451.7L465.03,454.16L455.94,453.33L454.86,449.09L449.79,444.86L448.1,441.52L446.92,435.77L450.18,431.89L447.64,429.66L448.94,425.06L447.32,421.27L444.54,420.02L439.03,422.67L433.7,420.33L432.17,412.67L433,409.45L440.11,406.84L442.21,404.39L441.93,398.28L443.22,393.52L441.08,387.65L440.74,383.34L446.49,378.69L448.18,374.21L451.79,369.13Z" class="land" id="BG-09" title="Kardzhali"/>
    <path d="M187.4,266.04L191.39,269.39L196.41,270.6L200.88,280.83L206.46,283.79L206.88,290.11L211.07,296.73L212.29,301.3L217.97,302.31L220.06,305.46L227.61,306.78L230.44,308.93L232.53,304.71L236.5,301.56L243.93,305.65L247.03,305.12L249.3,301.38L251.15,305.58L256.82,308.84L259.91,309.27L262.88,307.02L270.03,308.06L272.47,311.06L273.54,315.71L280.05,322.37L275.18,324.18L272.89,329.11L274.58,331.69L280.39,329.4L282.83,335.14L289.9,338.19L285.83,344.28L282.82,347.1L276.18,348.91L273.15,346.72L269.81,346.45L257.58,342.35L251.57,347.04L242.15,349.42L239.91,346.48L236.18,346.65L234.67,341.76L231.29,343.67L230.32,350.68L225.86,353.52L221.59,352.56L219.15,349.5L216.9,350.48L212.8,349.41L210.84,346.66L207,346.97L202.31,343.03L199.67,342.55L191.18,335.51L190.15,330.07L187.05,328.99L176.84,313.16L182.6,311.9L186.2,310.09L187.77,303.7L191.77,303.02L194.08,294.56L195.52,292.31L194.32,288.59L189.61,284.92L184.01,278.06L186.56,271.3Z" class="land" id="BG-10" title="Kyustendil"/>
    <path d="M339.57,195.14L346.54,193.82L353,190.41L359.33,192.07L365.39,191.45L371.24,189.63L374.59,186.04L381.91,192.09L399.3,194.32L399.86,188.32L404.04,190.28L405.95,186.29L412.85,181.3L418.95,181.21L426.19,184.7L431.79,182.75L435.49,178.51L436.5,174.86L438.85,174.45L441.92,182.16L449.66,186.73L449.42,190.2L446.62,194.38L446.51,198.21L443.11,198.81L437.32,197.97L432.26,195.85L431.28,197.25L432.05,203.98L428.15,209.05L429.12,218.75L424.67,220.33L421.76,226.64L421.76,230.54L423.47,236.35L428.37,238.74L435.37,249.22L435.17,254.45L427.36,258.18L423.34,258.65L419.36,256.85L410.23,258.37L407.59,257.6L405.29,253.24L401.09,249.92L388.39,248.41L383.62,253.15L375.48,253.13L365.64,250.29L360.27,250.72L354.14,249.83L357.35,242.61L354.41,239.23L354.38,235.93L351.27,233.17L354.2,230.27L348.07,227.47L346.72,220.64L342.69,218.99L341.28,214.67L335.22,214.37L334.78,208.66L340.53,207.73Z" class="land" id="BG-11" title="Lovech"/>
    <path d="M300.66,117.32L300.26,122.71L301.67,126.55L301.35,134.47L298.76,140.64L295.08,145.09L295.75,147.35L300.45,151.87L295.85,154.03L293.18,158.2L283.06,157.36L279.21,163.62L279.8,170.43L276,177.81L271.78,181.52L270.79,184.61L274.95,187.08L279.93,187.8L283.23,190.04L281.7,193.87L277.92,195.17L279,200.41L272.63,200.04L268.27,204.79L259.98,206.19L248.89,206.13L243.57,200.31L239.65,198.12L236.19,194.56L232.64,196.17L228.56,193.24L223.86,186.65L221.71,179.3L218.72,177.6L215.92,173.04L212.29,170.99L215.9,165.74L216.36,159.57L220.67,156.74L223.67,149.66L226.88,146.71L229.44,138.01L231.26,135.48L243.97,129.74L242.85,126.3L235.18,123.56L234.95,119.69L239.95,119.65L243.84,116.98L252.58,115.4L259.97,111.69L265.1,110.15L278.91,109.39L289.37,112.18L295.37,116.83Z" class="land" id="BG-12" title="Montana"/>
    <path d="M314.31,331.33L317.67,327.94L322.03,325.37L326.5,319.22L330.16,321.3L332.77,318.38L331.08,315.51L333.01,308.76L338.24,307.41L340.13,305.75L343.8,298.03L342.34,294.82L335.26,297.06L330.07,290.03L329.27,280.94L335.03,279.66L341.39,282.6L348.01,275.94L352.12,276.17L354.1,270.75L357.46,270.87L362.01,268.9L367.29,270.75L370.03,278.74L374.12,279.29L376.65,281.67L376.05,286.32L372.84,289.71L372.3,292.37L376.06,301.68L376.46,305.48L380.98,310.4L381.16,314.41L379.31,315.93L380.87,320.61L381.39,328.51L385.76,334.21L386.09,336.63L380.46,338.24L378.94,348.16L379.9,352.08L379.57,356.78L377.04,364.69L376.48,370.21L374.56,373.15L369.87,375.18L367.02,379.57L367.9,386.27L362.46,390.56L356.05,389.28L347.24,390.5L346.03,398.48L340.25,393.91L335.64,388.72L326.91,382.05L316.51,377.56L314.17,374.92L313.28,365.76L311.69,359.89L312.06,356.46L316.15,352.37L317.17,346.3L315.5,341.25L315.79,337.64L313.59,336.31Z" class="land" id="BG-13" title="Pazardzhik"/>
    <path d="M214.61,237.43L216.37,241.89L220.36,241.61L222.68,245.79L228.27,247.56L231.14,250.2L235.39,250.97L238.51,254.88L242.67,256.39L244.01,258.53L247.83,262L250.29,265.92L254.26,268.36L255.55,277.47L258.97,277.77L262.75,283.44L265.58,284.53L263.66,287.12L261.74,293.7L261.98,301.85L262.88,307.02L259.91,309.27L256.82,308.84L251.15,305.58L249.3,301.38L247.03,305.12L243.93,305.65L236.5,301.56L232.53,304.71L230.44,308.93L227.61,306.78L220.06,305.46L217.97,302.31L212.29,301.3L211.07,296.73L206.88,290.11L206.46,283.79L200.88,280.83L196.41,270.6L191.39,269.39L187.4,266.04L187.57,262.09L189.99,257.87L186.15,252.97L184.2,246.84L187.52,245.77L193.2,239.29L197.1,241.45L198.06,237.79L201.41,237.27L203.54,239.63L207.75,240.28Z" class="land" id="BG-14" title="Pernik"/>
    <path d="M458.84,132.75L454.28,135.6L454,145.23L452.62,147.93L455.05,151.95L453.72,160.28L447.2,163.29L447.39,167.19L454.27,166.44L453.21,173.06L457.07,173.81L456.82,179.43L449.66,186.73L441.92,182.16L438.85,174.45L436.5,174.86L435.49,178.51L431.79,182.75L426.19,184.7L418.95,181.21L412.85,181.3L405.95,186.29L404.04,190.28L399.86,188.32L399.3,194.32L381.91,192.09L374.59,186.04L371.24,189.63L365.39,191.45L359.33,192.07L353,190.41L346.54,193.82L339.57,195.14L337.58,192.75L332.81,193.9L331.5,192L334.34,175.51L346.56,174.07L349.27,168.85L355.56,167.24L358.65,167.55L360.26,160.72L353.87,158.27L352.86,148.29L351.59,144.88L356.16,145.38L361.83,138.14L367.38,139.64L369.48,130.12L375.4,125.02L385.64,121.39L397.15,124.17L405.52,131.47L408.36,131.99L414.45,128.48L422.21,129.02L429.5,125.89L433.26,126.23L438.85,130.9L443.12,131.94L451.19,130.01Z" class="land" id="BG-15" title="Pleven"/>
    <path d="M375.48,253.13L383.62,253.15L388.39,248.41L401.09,249.92L405.29,253.24L407.59,257.6L410.23,258.37L419.36,256.85L423.34,258.65L427.36,258.18L435.17,254.45L434.16,256.79L434.71,265.95L434.11,270.04L431.43,276.76L433.2,283.08L436.17,288.34L441.67,289.71L449.99,286.15L452.23,291.44L447.92,297.72L450.67,300.84L449.8,303.08L445.83,303.33L445.82,315.51L449.74,317.42L450,319.41L442.83,321.67L440.53,323.22L439.48,328.19L440.67,332.79L446.96,335.71L452,334.1L456.33,334.16L460.53,331.82L462.93,335.96L467.1,339.71L463.14,350.03L463.56,360.48L461.02,363.63L451.79,369.13L448.18,374.21L446.49,378.69L440.74,383.34L435.41,377.33L433.01,379.19L432.7,385.77L428.96,390.13L422.11,389.92L417.89,393.78L416.64,396.55L412.95,390.3L414.32,385.68L411.5,380.01L412.42,374.9L409.29,370.16L405.57,370.63L399.99,369.23L392.59,372.13L387.33,371.57L383.96,366.29L381.29,366.57L377.04,364.69L379.57,356.78L379.9,352.08L378.94,348.16L380.46,338.24L386.09,336.63L385.76,334.21L381.39,328.51L380.87,320.61L379.31,315.93L381.16,314.41L380.98,310.4L376.46,305.48L376.06,301.68L372.3,292.37L372.84,289.71L376.05,286.32L376.65,281.67L381.62,281.18L384.74,274.57L379.69,269.54L373.62,267.05L371.57,262.12Z" class="land" id="BG-16" title="Plovdiv"/>
    <path d="M566.32,97.55L575.49,98.1L577.82,101.88L584.52,101.08L587,104.39L587.79,108.71L605.13,114.31L608.65,110.65L613.58,115.85L616.79,116.62L618.78,120.91L623.73,123.13L624.48,126.39L628.62,130.27L629.39,135.44L623.81,139.19L622.58,142.11L618.02,143.29L614.43,142.24L614,145.86L608.99,149.7L607.88,152.82L608.9,155.92L602.61,162.09L602.45,166.54L607.18,169.63L606.96,172.01L603.06,175.09L597.36,175.4L594.46,177.57L587.97,177.73L582.04,175.43L577.8,177.54L575.34,176.94L571.2,184.43L571.03,187.04L566.91,189.02L567.09,184.49L562.67,181.34L562.27,178.38L568.9,174.13L571.74,171.1L571.13,164.05L568.42,164.29L565.89,161.88L564.57,157.17L560.55,156.3L557.77,152.62L553.96,149.78L550.7,150.43L548.44,153.58L540.65,153.53L539.47,152.48L535.95,145.56L536.35,142.24L542.94,140.52L546.73,135.59L552.77,137.21L557.88,141.41L566.42,138.56L571.9,139.81L577.77,139.08L581.01,134.11L581,127.31L577.42,121.57L573.46,120.84L568.71,117.43L563.71,118.51L556.49,116.89L557.34,112.65L560.2,111.03L563.08,102.23Z" class="land" id="BG-17" title="Razgrad"/>
    <path d="M563.07,84.9L563.59,88.08L568.17,94.54L566.32,97.55L563.08,102.23L560.2,111.03L557.34,112.65L556.49,116.89L563.71,118.51L568.71,117.43L573.46,120.84L577.42,121.57L581,127.31L581.01,134.11L577.77,139.08L571.9,139.81L566.42,138.56L557.88,141.41L552.77,137.21L546.73,135.59L542.94,140.52L536.35,142.24L535.95,145.56L539.47,152.48L533.19,155.5L531.99,162.62L528.09,169.64L525.83,171.33L530.76,175.53L530.32,180.39L525.37,179.27L524.14,175.28L518.93,176.67L513.23,174.42L508.7,174.66L502.13,169.87L496.34,171.86L487.16,166.62L488.61,160.39L483.48,155.5L480.55,148.76L480.05,144.79L481.76,142.5L476.58,139.38L480.38,137.47L487.64,137.35L497.5,131.33L504.43,131.1L509.51,128.38L512.28,123.47L516.06,121.77L526.09,107.9L536.19,101.67L538.6,96.48L545.17,91.11L550.29,91.1Z" class="land" id="BG-18" title="Ruse"/>
    <path d="M696.56,93.09L689.64,96.44L685.93,101.78L682.88,104.17L680.43,101.54L678.51,106.44L675.48,110.09L670.3,108.39L660.64,117.52L654.97,118.72L648.04,126.66L649.15,131.39L647.22,133.84L642.94,134.01L636.43,127.05L628.62,130.27L624.48,126.39L623.73,123.13L618.78,120.91L616.79,116.62L613.58,115.85L608.65,110.65L605.13,114.31L587.79,108.71L587,104.39L584.52,101.08L577.82,101.88L575.49,98.1L566.32,97.55L568.17,94.54L563.59,88.08L563.07,84.9L567.88,83.57L573.72,84.72L582.78,82.22L588.98,82.6L597.23,79.62L604.39,79.2L613.51,73.91L618.96,71.69L627.09,71.46L634.18,69.33L640.59,70.6L645.8,73.16L650.98,73.87L654.48,72.61L656.5,79.67L662.89,82L667.12,88.09L674.14,86.73L687.71,88.04L690.82,83.22L693.69,85.62Z" class="land" id="BG-19" title="Silistra"/>
    <path d="M548.29,229.98L553.25,225.74L555.21,219.92L561.11,219.4L568.72,224.25L580.76,222.16L588.61,223.7L582.23,229.37L582.88,233.64L585.53,236.27L587.5,243.31L586.2,248.25L589.13,252.58L593.09,253.03L597.34,259.83L596.97,263.45L596.24,270.73L593.37,274.33L590.62,272.78L588.45,276.58L583.64,277.06L576.64,281.69L573.97,282.59L569.48,281.64L567.44,283.81L567.76,288.38L563.25,293.3L559.17,293.83L557.11,295.84L550.99,293.96L550.28,299.02L553.07,302.19L552.45,310.25L549.05,315.97L546.7,323.13L536.5,316.99L532.8,317.47L524.46,312L521.67,302.34L517.93,297.78L520.31,291.92L516.82,284.27L519.76,278.33L516.76,272.04L515.58,264.96L511.58,256.95L511.2,250.07L516.43,251.04L521.1,249.7L527.81,251.06L533.97,246.45L534.29,240.07L545.68,234Z" class="land" id="BG-20" title="Sliven"/>
    <path d="M377.04,364.69L381.29,366.57L383.96,366.29L387.33,371.57L392.59,372.13L399.99,369.23L405.57,370.63L409.29,370.16L412.42,374.9L411.5,380.01L414.32,385.68L412.95,390.3L416.64,396.55L417.89,393.78L422.11,389.92L428.96,390.13L432.7,385.77L433.01,379.19L435.41,377.33L440.74,383.34L441.08,387.65L443.22,393.52L441.93,398.28L442.21,404.39L440.11,406.84L433,409.45L432.17,412.67L433.7,420.33L439.03,422.67L444.54,420.02L447.32,421.27L448.94,425.06L447.64,429.66L450.18,431.89L446.92,435.77L448.1,441.52L449.79,444.86L444.57,441.41L440.89,441.28L436.71,438.2L428.89,435.45L424.85,432.64L421.76,434.67L415.61,433.58L415.36,439.49L414.01,440.56L408.52,436.08L407.51,432.31L399.64,429.13L395.82,430.53L393.99,425.32L391.69,423.81L389.8,414.15L386.69,411.95L381.01,415.05L380.89,417.08L373.34,415.97L371.55,418.48L365.32,415.77L362.23,413.15L356.59,413.93L354,418.7L350.58,415.65L343.5,415.22L341.97,417.38L341.83,414.52L344.29,408.47L343.94,405.18L347.09,400.74L346.03,398.48L347.24,390.5L356.05,389.28L362.46,390.56L367.9,386.27L367.02,379.57L369.87,375.18L374.56,373.15L376.48,370.21Z" class="land" id="BG-21" title="Smolyan"/>
    <path d="M232.64,196.17L236.19,194.56L239.65,198.12L243.57,200.31L248.89,206.13L259.98,206.19L268.27,204.79L272.63,200.04L279,200.41L285.2,200.97L287.76,203.16L284.01,208.45L284.86,213.57L292.22,223.93L294.37,223.93L298.77,219.03L303.71,215.74L308.11,218.07L313.61,214.59L317.41,213.78L319.95,215.67L329.47,215.92L333.06,218.12L335.22,214.37L341.28,214.67L342.69,218.99L346.72,220.64L348.07,227.47L354.2,230.27L351.27,233.17L354.38,235.93L354.41,239.23L357.35,242.61L354.14,249.83L360.27,250.72L365.64,250.29L375.48,253.13L371.57,262.12L373.62,267.05L379.69,269.54L384.74,274.57L381.62,281.18L376.65,281.67L374.12,279.29L370.03,278.74L367.29,270.75L362.01,268.9L357.46,270.87L354.1,270.75L352.12,276.17L348.01,275.94L341.39,282.6L335.03,279.66L329.27,280.94L330.07,290.03L335.26,297.06L342.34,294.82L343.8,298.03L340.13,305.75L338.24,307.41L333.01,308.76L331.08,315.51L332.77,318.38L330.16,321.3L326.5,319.22L322.03,325.37L317.67,327.94L314.31,331.33L311.6,331.33L311.41,335.86L306.52,334.26L304.61,330.44L298.08,330.44L296.9,331.95L295.48,339.8L291.62,344.04L285.83,344.28L289.9,338.19L282.83,335.14L280.39,329.4L274.58,331.69L272.89,329.11L275.18,324.18L280.05,322.37L273.54,315.71L272.47,311.06L270.03,308.06L262.88,307.02L261.98,301.85L261.74,293.7L263.66,287.12L265.58,284.53L269.7,285.96L274.38,289.86L278.7,296.1L281.56,295.49L283.81,286.58L287.34,287.41L290.11,293.79L290.44,301.82L297.23,303.33L303.15,301.18L300.35,292.58L294.11,282.02L294.43,273.61L293.13,270.4L289.91,269.59L293.16,261.42L297.97,258.93L300.78,248.26L299.52,243.34L293.89,245.56L286.92,240.7L282.69,241.03L274.75,243.35L271.44,241.48L269.91,237.53L266.61,236.1L265.68,239.9L260.09,253.16L261.53,255.52L255.7,258.25L244.01,258.53L242.67,256.39L238.51,254.88L235.39,250.97L231.14,250.2L228.27,247.56L222.68,245.79L220.36,241.61L216.37,241.89L214.61,237.43L217.11,232.52L217.54,225.82L223.75,222.96L228.49,218.78L230.83,212.59L236.86,208.63L239.15,197.89Z" class="land" id="BG-22" title="Sofia-Grad"/>
    <path d="M244.01,258.53L255.7,258.25L261.53,255.52L260.09,253.16L265.68,239.9L266.61,236.1L269.91,237.53L271.44,241.48L274.75,243.35L282.69,241.03L286.92,240.7L293.89,245.56L299.52,243.34L300.78,248.26L297.97,258.93L293.16,261.42L289.91,269.59L293.13,270.4L294.43,273.61L294.11,282.02L300.35,292.58L303.15,301.18L297.23,303.33L290.44,301.82L290.11,293.79L287.34,287.41L283.81,286.58L281.56,295.49L278.7,296.1L274.38,289.86L269.7,285.96L265.58,284.53L262.75,283.44L258.97,277.77L255.55,277.47L254.26,268.36L250.29,265.92L247.83,262Z" class="land" id="BG-23" title="Sofia"/>
    <path d="M495.28,253.99L504.61,249.64L511.2,250.07L511.58,256.95L515.58,264.96L516.76,272.04L519.76,278.33L516.82,284.27L520.31,291.92L517.93,297.78L521.67,302.34L524.46,312L532.8,317.47L536.5,316.99L546.7,323.13L550.28,325.37L542.81,332.21L542.09,336.28L543.93,340.51L545.61,347.7L539.7,349.16L537.28,352.26L534.38,352.01L530.23,343.49L525.99,342.95L523.65,340.7L516.18,339.4L514.66,345.14L510.66,347.44L505.12,348.63L503.45,343.08L501.08,340.58L499.81,336.72L497.36,336.17L493.65,339.57L492.16,338.07L492.57,332.7L490.56,328.39L486.37,333.25L485.03,336.86L480.73,334.75L475.61,342.86L468.88,339.66L467.1,339.71L462.93,335.96L460.53,331.82L456.33,334.16L452,334.1L446.96,335.71L440.67,332.79L439.48,328.19L440.53,323.22L442.83,321.67L450,319.41L449.74,317.42L445.82,315.51L445.83,303.33L449.8,303.08L450.67,300.84L447.92,297.72L452.23,291.44L449.99,286.15L441.67,289.71L436.17,288.34L433.2,283.08L431.43,276.76L434.11,270.04L434.71,265.95L434.16,256.79L435.17,254.45L442.32,255.35L446.52,252.84L450.02,252.58L452.85,250.39L459.05,254.15L462.73,253.6L474.59,256.89L475.32,252.24L479.07,252.79L481.3,255.4L486.66,256.02L490.12,254.06L492.76,256.61Z" class="land" id="BG-24" title="Stara Zagora"/>
    <path d="M539.47,152.48L540.65,153.53L548.44,153.58L550.7,150.43L553.96,149.78L557.77,152.62L560.55,156.3L564.57,157.17L565.89,161.88L568.42,164.29L571.13,164.05L571.74,171.1L568.9,174.13L562.27,178.38L562.67,181.34L567.09,184.49L566.91,189.02L571.03,187.04L571.2,184.43L575.34,176.94L577.8,177.54L582.04,175.43L587.97,177.73L594.46,177.57L597.36,175.4L603.06,175.09L601.83,176.67L602.49,184.53L606.34,188.67L605.81,190.96L600.44,196.13L598.3,202.19L595.15,206.37L597.07,210.5L594.52,215.74L591.76,217.54L591.8,222.1L588.61,223.7L580.76,222.16L568.72,224.25L561.11,219.4L555.21,219.92L553.25,225.74L548.29,229.98L537.55,226.58L537.73,224.15L540.91,221.27L537.29,218.19L535.84,213.33L536.21,206.63L538.71,199.83L541.22,198.33L540.85,195.27L535.94,188.97L535.07,184.42L530.32,180.39L530.76,175.53L525.83,171.33L528.09,169.64L531.99,162.62L533.19,155.5Z" class="land" id="BG-25" title="Targovishte"/>
    <path d="M550.28,325.37L553.27,327.51L557.57,328.46L560.83,331.44L566.77,332.99L569.22,331.58L571.72,333.58L576.06,333L577.13,335.42L581.05,335.9L579.7,342.49L580.3,348.76L577.87,351.12L581.37,360.4L585.24,365.12L587.35,368.03L585.56,374.45L583.1,378.52L568.18,378.58L566.21,379.32L562.86,387.06L562.66,392.57L560.5,393.43L548.23,389.35L542.62,390.61L541.54,392.87L537.37,393.39L536.57,396.05L537.69,401.42L539.96,404.08L545.59,406.86L545.01,413.35L547.92,413.67L548.7,418.21L546.08,424.61L547.17,429.42L546.6,432.58L543.37,439.4L539.17,440.58L534.64,440.04L530.5,443.28L524.55,443.94L524.07,439.74L521.55,436.32L514.65,429.92L515.43,424.24L510.01,416.73L511.93,410.3L516.1,407.03L514.45,401.71L510.13,400.69L506.7,401.78L503.18,405.89L496.06,403.18L497.44,398.67L495.38,394.54L494.96,389.95L492.29,385.85L484.9,387.48L477.97,384.99L470.62,380.82L468.29,375.19L462.48,379.86L459.7,368.05L461.02,363.63L463.56,360.48L463.14,350.03L467.1,339.71L468.88,339.66L475.61,342.86L480.73,334.75L485.03,336.86L486.37,333.25L490.56,328.39L492.57,332.7L492.16,338.07L493.65,339.57L497.36,336.17L499.81,336.72L501.08,340.58L503.45,343.08L505.12,348.63L510.66,347.44L514.66,345.14L516.18,339.4L523.65,340.7L525.99,342.95L530.23,343.49L534.38,352.01L537.28,352.26L539.7,349.16L545.61,347.7L543.93,340.51L542.09,336.28L542.81,332.21Z" class="land" id="BG-26" title="Haskovo"/>
    <path d="M628.62,130.27L636.43,127.05L642.94,134.01L647.22,133.84L649.69,136.8L654.19,137.43L659.91,143.92L665.72,139.95L669.4,144.62L667.46,147.42L658.69,149.66L657.65,152.24L660.6,156.63L660.42,163.89L655.96,170.07L655.7,173.39L657.15,180.12L655.83,182.29L651.87,182.91L653.55,192.81L655.03,197.45L646.46,202.18L645.82,206.73L647.92,208.67L648.41,215.36L649.47,216.74L639.46,220.29L635.53,220.52L636.06,224.78L638.34,228.4L638.07,232.3L633.07,232.88L626.82,236.5L623.87,236.19L622.08,233.31L615.33,234.08L611.45,232.44L603.46,232.8L598.66,236.72L589.6,237.33L589.1,233.4L582.88,233.64L582.23,229.37L588.61,223.7L591.8,222.1L591.76,217.54L594.52,215.74L597.07,210.5L595.15,206.37L598.3,202.19L600.44,196.13L605.81,190.96L606.34,188.67L602.49,184.53L601.83,176.67L603.06,175.09L606.96,172.01L607.18,169.63L602.45,166.54L602.61,162.09L608.9,155.92L607.88,152.82L608.99,149.7L614,145.86L614.43,142.24L618.02,143.29L622.58,142.11L623.81,139.19L629.39,135.44Z" class="land" id="BG-27" title="Shumen"/>
    <path d="M596.97,263.45L600.26,267.99L605.15,272.78L609,281.71L612.32,285.91L613.9,290.31L617.77,297.23L623.94,296.94L625.06,298.71L622.88,302.55L615.71,303.78L614.44,305.29L615.4,309.52L618.93,312.55L620.73,316.47L623.21,318.34L621.66,321.74L624.1,329.57L621.32,332.86L624.35,338.6L629.44,341.59L631.65,344.57L628.77,350.23L624.31,355.79L621.04,355.26L618.81,357.08L615.35,356.73L612.7,359.51L607.44,356.84L603.92,360.97L600.02,359.66L590.78,360.04L585.24,365.12L581.37,360.4L577.87,351.12L580.3,348.76L579.7,342.49L581.05,335.9L577.13,335.42L576.06,333L571.72,333.58L569.22,331.58L566.77,332.99L560.83,331.44L557.57,328.46L553.27,327.51L550.28,325.37L546.7,323.13L549.05,315.97L552.45,310.25L553.07,302.19L550.28,299.02L550.99,293.96L557.11,295.84L559.17,293.83L563.25,293.3L567.76,288.38L567.44,283.81L569.48,281.64L573.97,282.59L576.64,281.69L583.64,277.06L588.45,276.58L590.62,272.78L593.37,274.33L596.24,270.73Z" class="land" id="BG-28" title="Yambol"/>
  </g>
</svg>