<?xml version="1.0" encoding="UTF-8"?>
<svg xmlns="http://www.w3.org/2000/svg" width="492.3" height="399.63" viewBox="233.85 57.19 492.3 399.63" style="background-color:#000000">
  <!-- Created using SVG Map Generator: dojo.amcharts.com/svg-map-generator -->
  <style>
    .land { fill: #ffffff; stroke: #000000; stroke-width: 0.65; }
  </style>
  <g id="polygons">
    <path d="M259.19,196.36L259.11,197.05L255.76,196.19L255.23,194.25L253.1,191.4L251.87,186.08L248.94,183.6L248.32,192.73L246.73,189.35L246.98,183.19L247.61,180.29L250.02,173.48L256.17,160.86L259.52,157.5L264.04,150.04L265.87,149.71L267.84,147.38L271.96,140.47L274.43,140.01L282.22,143.05L287.93,141.9L293,139.52L297.05,136.39L298.78,135.65L302.15,135.54L307.18,137.5L312.92,138.18L319.35,137.26L322.15,136.07L325.34,135.83L327.55,134.93L336.24,128.1L337.19,127.05L344.04,116.76L348.5,108.45L349.36,107.43L354.73,95.07L359.48,90.05L361.11,87.76L364.37,81.42L367.28,80.01L370.84,80.55L376.26,80.71L379.84,80.1L385.71,77.82L391.08,74.58L404.75,62.55L408.48,60.25L411.89,59.84L413.37,60.71L406.75,65.97L402.47,71.32L399.34,76.73L398.08,82.04L399.62,87.65L403.52,92.66L405.66,96.01L406.56,99.23L405.04,101.27L404.27,107.07L405.12,114.53L406.38,121.02L406.49,126.88L402.79,129.68L399.27,134.09L396.5,140.43L394.73,148.47L393.11,154.19L391.6,157.05L389.5,156.38L386.61,157.35L384.15,156.93L376.37,149.69L374.24,148.63L370.06,144.6L367.54,144.93L364.42,148.85L360.17,146.79L357.69,144.09L354.24,142.01L351.32,147.24L348.38,147.72L345.9,146.2L345.92,143.6L342.14,146.14L343.02,147.85L342.16,149.35L339.67,150.45L333.66,149.82L329.61,150.95L325.93,152.63L321.29,154.08L317.74,156.6L315.38,156.24L309.24,150.62L304.32,152.73L299.01,153.41L297.76,155.15L295.02,155.51L294.04,157.92L292.48,156.7L289.92,156.15L288.29,157.31L289.56,159.03L282.86,162.46L277.61,161.59L274.3,169.7L274.84,172.7L273.26,175.55L270.83,178.47L268.05,178.62L264.82,181.32L263.55,183.16L265.7,186.49L264.22,190.5L266.77,191.55L267.63,193.27L265.03,195.36L262.5,193.68ZM382.21,195.29L379.64,197.79L379.76,199.34L377.34,200.07L376.83,202.89L374.87,203.47L371.75,205.64L367.4,206.98L365.34,208.23L360.77,209.63L360.54,211.34L357.36,212.05L354.82,210.65L351.71,211.42L349.12,207.72L346.67,207.09L344.35,208.37L344.42,204.81L346.59,204.07L346.21,202.31L341.17,202.24L338.89,201.47L339.16,199.79L336.21,195.78L332.9,196.53L331.41,201.24L329.7,200.93L325.21,198.03L324.43,196.93L322.06,196.83L320.27,193.58L316.28,194.76L312.16,197.72L311.08,195.51L315.18,191.55L316.83,187.64L316.03,185.67L312.76,184.97L313.01,182.44L312.06,180.16L314.41,175.51L313.81,171.53L311.61,170.02L312.33,166.04L315.8,161.95L316.75,159.8L319.15,159.04L319.89,156.53L324.41,154.58L329.5,153.43L335.18,153.96L340.2,157.13L337.07,161.2L338.05,163.62L339.61,160.93L342.7,159.46L346.23,154.23L346.78,151.27L348.1,150.45L353.61,149.02L358.08,150.16L359.82,148.77L362.54,148.38L364.04,149.43L366.03,148.95L368.69,145.72L370.55,145.96L371.42,147.94L377.27,153L378.29,154.5L382.01,157.22L384.76,158.27L389.56,157.79L389.41,159.95L387.56,163.45L386.86,169.03L387.16,170.12L387.85,180.38L389.32,186.5L391.77,190.4L391.17,192.82L389.49,191.97L386.26,191.74L384.47,190.84L381.52,192.97L378.72,190.77L376.08,192.09L374.03,194.14L373.07,193.1L370.56,194.03L369.9,195.69L367.88,196L366.09,199.62L371.07,196.11L372.33,194.51L374.84,195.49L376.68,192.37L380.15,192.57ZM293.95,161.2L294.78,165.92L292.29,170.6L289.36,170.05L288.32,172L289.25,176.59L291.47,179.98L288.83,185.55L288.46,188.43L286.28,189.99L284.14,192.86L284.67,194.09L281.63,195.59L279.74,195.56L275.51,197.29L275,194.26L273.41,192.57L270.02,193.01L268.48,188.3L269.74,186.03L268.99,182.96L271.68,181.29L274,181.86L277.07,180.11L276.88,178.68L273.24,178.04L275.91,173.93L275.7,170.85L283.37,168.49L287.51,167.78L288.43,164.35L291.01,161.9ZM451.39,115L450.86,117.78L445.65,117.79L443.03,119.09L444.09,120.28L443.55,123.45L441.73,125.93L437.98,128.04L436.06,128.27L435.43,126.04L433.65,124.62L431.54,124.72L429.29,123.59L428.87,122.05L431.15,120.21L432.23,118.35L435.93,116.78L438.36,116.77L439.7,115.22L445.84,115.07L447.76,114.01Z" class="land" id="DK-81" title="Nordjylland"/>
    <path d="M276.43,208.13L274.04,213.11L273.4,211.61L275.27,208.23ZM391.45,308.46L391.04,311.17L385.87,311.24L389.32,308.43ZM302.72,174.94L304.71,175.53L304.53,178.33L301.67,179.4L300.78,181.31L298.63,179.38L297.07,176.09ZM259.11,197.05L259.19,196.36L260.59,197.03L263.61,195.22L266.17,197.48L269.61,194.81L271.29,196.51L270.51,199.02L271.51,200.62L273.4,197.9L275.19,199.15L274.72,202.26L272.3,201.27L271.73,205.74L269.13,205.83L266.74,207.19L265.18,202.42L260.64,197.82ZM408.92,286.88L410.5,288.94L413.7,290.48L410.79,291.57L411.35,293.5L414.19,297.39L412.97,300.14L413.08,305.09L411.57,309.07L406.8,308.52L405.18,305.39L405.3,298.42L406.59,296.93L408.52,296.77L409.66,294.76L410.15,291.67L408.66,288.77L405.72,288.01L404.78,282.78L407.51,279.89L408.17,285.06ZM244.38,302.62L243.08,302.86L241.92,295.43L240.92,285.62L243.12,286.38L243.04,292.28L244.85,296.92L243.31,299.29L243.42,301.64ZM322.06,196.83L324.43,196.93L325.21,198.03L329.7,200.93L331.41,201.24L332.9,196.53L336.21,195.78L339.16,199.79L338.89,201.47L341.17,202.24L346.21,202.31L346.59,204.07L344.42,204.81L344.35,208.37L346.67,207.09L349.12,207.72L351.71,211.42L354.82,210.65L357.36,212.05L360.54,211.34L360.77,209.63L365.34,208.23L367.4,206.98L371.75,205.64L374.87,203.47L376.83,202.89L377.34,200.07L379.76,199.34L379.64,197.79L382.21,195.29L386.16,193.57L388.4,194.17L392.14,193.16L393.13,194.25L393.82,198.14L393.55,200.98L392.47,202.97L389.36,204.71L388.28,206.93L385.8,208.59L383.64,212.96L385.09,213.14L387.64,208.79L389.67,206.93L389.65,204.94L392.45,206.39L392.69,208.66L394.85,212.28L398.25,215.19L403.76,216.71L407.37,216.52L415.02,214.63L423.61,213.67L426.42,214.52L428.12,216.14L429.2,219.95L434.2,223.77L434.54,226.2L433.18,226.73L431.77,233.41L431.75,237.76L428.24,243.2L426.07,244.99L424.65,248.5L423.29,250.11L420.52,251.67L419.35,254.75L419.75,258.02L417.98,262.73L416.25,262.81L415.47,261.1L412.71,258.13L414.88,256.82L415.22,253.88L413.93,252.37L411.13,252.07L409.16,253.13L408.54,255.22L406.2,257.84L405.53,260L406.83,262.02L407.29,264.91L406.35,267.66L404.11,268.57L401.94,263.01L404.38,262.36L405.19,259.52L402.69,259.19L401.11,258.01L398.94,258.34L397.69,260.22L394.85,259.43L393.59,255.69L396.81,254.63L400.9,255.65L401.91,254.67L400.35,251.85L403.6,246.31L399.51,244.27L395.69,244.1L395.62,245.88L392.63,247.79L392.04,251.27L389.89,252.4L388.16,255.57L385.53,257.21L383.94,262.78L383.26,263.5L385.93,268.72L387.5,274.3L387.78,277.34L386.3,281.09L387.17,285.4L386.58,291.17L385.22,291.56L383.14,294.12L382.94,297.5L382.12,300.19L379.82,299.08L378.43,297.19L376.82,296.9L374.46,298.75L371.41,298.42L372.89,296.23L376.69,296.89L376.44,294.65L373.79,294.45L369.99,295.52L366.69,295.05L366.57,297.54L360.25,297.8L361.45,299.56L368.84,301.67L372.32,301.88L373.4,303.76L370.22,307.14L370.59,309.81L374.16,310.52L371.35,312.76L368.94,313.57L370.17,315.07L369.72,316.79L367.17,317.54L363.44,317.83L360.74,318.59L356.4,320.75L355.67,319.65L351.41,319.35L349.29,316.64L346.3,315.48L346.96,310.93L344.92,309.69L341.5,310.62L339.94,307.83L337.18,308.02L335.86,306.5L334.74,301.44L330.85,300.51L331.74,297.17L326.67,290.16L326.65,289.36L323.82,288.04L323.83,288.07L323.5,288.27L323.24,288.54L320.97,287.97L319.4,287.8L317.78,285.94L315.18,285.79L313.51,288.74L313.55,290.44L310.4,294.53L308.18,296.27L306.78,295.3L304.97,299.32L300.74,301.01L297.2,299.18L297.73,294.35L291.94,293.03L289.05,294.73L287.92,298.94L285.95,300.13L288.17,302.38L283.51,304.01L281,303.05L280.01,300.13L277.82,298.84L272.1,300.48L270.51,298.91L267.93,299.71L268.89,302.02L266.58,303.49L266.66,306.27L265.34,307.59L262.23,307.64L261.63,306.21L257.45,304.57L255.45,302.02L253.45,304.63L249.97,305.09L246.71,302.56L246.77,301.51L243.69,301.01L245.7,297.1L245.85,292.82L249.23,296.63L250.26,298.72L253.81,296.28L255.85,293.5L257.52,292.27L257.17,286.89L254.19,283.13L252.83,280.66L252.1,275.48L252.22,273.06L247.17,268.78L240.9,266.62L239.83,275.57L240.56,279.06L239.17,280.27L238.07,274.78L238.46,267.2L240.15,254.26L240.26,249.31L239.36,234.33L240.95,235.23L240.13,237.17L240.33,239.71L242.7,238.62L247.53,241.42L248.63,244.68L250.43,243.51L251.39,241.49L249.3,240.12L248.71,237.4L244.14,233.3L242.88,230.77L242.64,226.36L239.8,228.62L240.65,232.07L239.23,234.18L239.92,221.63L239.25,215.26L239.82,211.04L242.95,198.35L245.29,193.07L246.87,193.71L247.15,195.5L244.79,198.93L245.02,201.61L247.2,202.66L247.17,205.06L249.98,206.13L251.91,210.23L253.91,208.61L257.98,208.48L264.87,211.78L266.71,213.18L269.46,210.57L270.95,211.54L272.85,216.04L272.5,218.87L274.12,221.53L276.6,222.43L281.61,221.03L282.46,218.34L281.81,214.4L283.72,211.77L283.02,210.21L279.43,207.32L278.14,202.66L281.32,202.93L284.56,199.02L285.26,196.54L287.22,194.05L288.85,194.97L291.56,192.69L288.04,192.47L290.03,187.91L295.04,182.35L297.62,180.58L302.28,182.76L301.82,180.77L304.69,180.44L307.85,182.59L307.72,184.65L309.13,188.28L311.91,191.59L308.39,196.11L306.78,197.35L306.97,199.94L303.85,202.44L303.03,206.7L304.07,211.27L305.34,211.26L306.78,208.49L306.64,205.49L309.42,205.88L310.52,204.62L307.68,203.32L309.57,201.63L312.87,203.23L314.59,202.11L319.66,203.09L320.03,205.54L318.08,206.88L316.97,209.09L318,211.37L321.2,215.19L323.24,213.24L325.52,213.93L325.4,209.85L323.37,211.12L320.49,211.7L319.82,210.32L321.54,201.57L322.43,199.33ZM482.34,188.61L477.2,194.66L474.71,194.69L472.97,191.4L474.27,190.05L476.47,190.46Z" class="land" id="DK-82" title="Midtjylland"/>
    <path d="M357.9,395.69L360.44,398.38L363.78,399.36L366.48,400.9L368.62,403.5L371.89,409.83L371.93,411.33L373.77,416.36L370.33,416.91L368.08,419.3L364.9,419.15L361.36,417.8L359.76,416.35L361.97,414.01L363.16,415.53L365.35,414.45L361.42,412.64L357.3,414.9L354.84,413.9L353.01,411.39L352.31,405.09L354.64,405.58L357.5,409.58L358.8,408.6L357.35,406.8L358.24,405.4L356.66,404.11L354.05,403.71L352.76,400.31L348.26,400.84L346.69,399.85L344.38,396.95L344.05,395.5L348.19,392.34L351.27,391.58L356.26,393.89ZM352.14,368.88L352.28,371.62L350.89,371.67L350.03,369.18ZM417.05,394.92L417.13,397.6L414.79,397.99L413.35,395.76ZM397.91,403.52L399.14,405.21L397.77,406.13L395.53,404.35ZM411.87,413.28L410.52,414.74L409.51,411.85L411.31,411.4ZM412.25,394.98L414.02,397.57L412.76,401.84L416.44,402.01L416.21,404.75L413.72,405.03L411.49,407.84L407.02,408L406.7,406.17L404.97,404.36L404.27,400.64L408.26,398.47ZM434.57,384.07L433.2,391.73L430.49,400.73L430.39,402.27L427.85,405.53L425.08,412.56L424.88,415.32L422.24,422.06L419.46,432.28L418.14,434.2L416.05,434.65L414.77,432.71L415.33,430.55L414.24,427.98L414.14,425.87L412.57,423.42L414.48,419.4L415.04,415.78L417.14,417.14L418.16,415.47L417.49,413.95L415.29,412.38L418.65,407.11L421.8,403.7L424.49,402.27L425.75,399.17L427.08,397.5L428.12,394.43L429.13,389.37L430.86,384.99L433.49,381.85ZM320.97,287.97L323.24,288.54L323.5,288.27L323.83,288.07L323.82,288.04L326.65,289.36L326.67,290.16L331.74,297.17L330.85,300.51L334.74,301.44L335.86,306.5L337.18,308.02L339.94,307.83L341.5,310.62L344.92,309.69L346.96,310.93L346.3,315.48L341.56,316.39L340.52,318.19L345.99,317.61L347.43,319.92L350.83,322.03L352.32,326.37L355.57,325.7L358.38,327.16L354.77,329.82L353.03,332.97L350.77,334.12L350.28,336.1L351.13,338.39L349.87,339.1L346.4,337.95L344.13,340.21L340.61,339.26L339.53,341.41L335.49,341.19L335.46,343.32L343.13,341.47L347.78,346.05L345.04,349.01L341.26,350.25L340.86,351.16L342.86,355.06L343.01,358.71L344.57,360.47L344.27,363.99L347.12,369.09L349.08,370.09L349.31,373.06L347.62,375.23L347.78,378.21L343.9,380.08L343.37,378.87L340.64,378.4L338.7,380.29L334.37,382.8L334.83,385.37L334.28,387.36L335.84,388.49L337.95,392.6L334.5,396.22L332.16,395.84L330.49,396.76L329.32,398.65L331.29,399.68L334.91,399.64L335.75,398.7L339.51,397.51L341.79,397.38L343.42,400.4L345.01,400.91L347.77,403.08L350.82,403.14L351.99,410.14L353.58,413.19L352.11,413.96L348.92,413.19L348.34,414.1L350.98,415.85L352.25,418.19L351.85,420.75L350.1,421.37L346.88,418.73L344.02,418.29L345.25,415.88L342.86,414.14L341.76,412.36L346.19,411.33L342.82,409.47L342.13,411.76L339.57,413.53L338.38,416.46L337.14,415.81L335.12,417.03L333.47,419.8L331.88,420.88L328.84,421.71L326.42,420.88L325.82,423.03L322.74,424.89L318.69,424.11L317.29,424.41L316.31,421.83L316.62,419.59L310.62,417.06L307.68,416.72L303.38,416.96L301.08,415.22L296.54,413.31L292.68,413.03L290.44,414.01L288.63,412.81L284.72,414.17L281.38,414.47L278.16,412.37L275.03,412.24L276.57,406.05L276.64,403.27L274.76,396.84L275.76,390.9L276.66,389.73L278.5,384.33L276.15,383.81L273.16,384.25L269.57,383.67L269.78,386.95L269.2,389.48L270.48,391.42L266.09,394.63L263.43,390.7L263.18,389.56L264.06,384.4L264.28,380.25L265.27,377.41L269.27,377.37L271.97,378.78L270.67,380.96L270.35,383.19L274.66,383.86L277,383.51L278.39,382.09L276.11,369.42L276.67,368.31L275.53,364.52L271.65,366.86L270.5,369.42L268.75,369.69L267.91,367.72L268.97,366.32L271.97,366.3L275.5,364.16L276.7,364.53L277.43,361.61L276.49,359.64L274.16,350.3L268.68,346.64L267.08,347.2L261.68,346.48L259.98,343.35L253.12,335.68L251.48,333.2L252.54,330.5L249.78,329.66L247.59,333.2L247.61,334.62L249.21,338.39L252.36,341.75L251.51,344.12L244.49,338.01L236.5,334.26L237.86,330.24L242.34,315.52L243.45,308.09L243.08,302.86L244.38,302.62L243.69,301.01L246.77,301.51L246.71,302.56L249.97,305.09L253.45,304.63L255.45,302.02L257.45,304.57L261.63,306.21L262.23,307.64L265.34,307.59L266.66,306.27L266.58,303.49L268.89,302.02L267.93,299.71L270.51,298.91L272.1,300.48L277.82,298.84L280.01,300.13L281,303.05L283.51,304.01L288.17,302.38L285.95,300.13L287.92,298.94L289.05,294.73L291.94,293.03L297.73,294.35L297.2,299.18L300.74,301.01L304.97,299.32L306.78,295.3L308.18,296.27L310.4,294.53L313.55,290.44L313.51,288.74L315.18,285.79L317.78,285.94L319.4,287.8ZM383,405.03L386.3,408.46L388.29,408.85L391.17,411.83L392,413.59L394.38,415.44L396.73,414L397.74,416.35L399.69,418.12L401.3,415.17L404.71,418.66L404.91,420.33L400.33,420.88L397.81,423.61L394.51,421.13L390.9,416.43L388.66,414.98L385.82,411.34L385.31,408.64L383.42,406.67ZM356.49,362.27L357.01,365.43L355.02,366.09L354.42,363.6ZM255.04,346.33L256.87,345.03L259.48,345.6L259.22,349.19L261.09,349.05L262.52,350.16L263.4,352.71L262.11,354.11L263.47,356.21L263.76,360.36L262.37,360.56L260.62,359.2L257.15,351.53L254.13,348.48ZM409.76,327.82L411.78,327.37L417.36,336.6L417.19,337.96L418.46,340.88L419.7,341.91L420.27,344.12L417.88,344.25L415.17,345.67L414.64,347.28L411.97,347.84L410.62,346.58L408.79,346.33L406.96,346.87L406.3,348.41L408.96,350.02L408.41,347.31L409.29,346.48L412.81,348.8L414.79,347.75L419.9,353.61L421.33,354.87L423.27,358.37L425.19,364.25L422.92,364.77L423.03,368.78L424.92,373.84L424.35,379.91L423.29,381.96L421.88,388.42L419.99,393.38L415.91,394.68L411.74,394.5L409.98,395.95L404.38,398.45L401.24,396.56L397.42,396.9L394.32,394.54L393.24,395.56L390.88,395.16L387.71,391.5L385.28,390.49L384.63,392.34L382.77,393.66L381.6,392.17L377.85,390.81L374,392.53L374.58,388.85L379.68,387L380.06,385.74L376.6,378.85L374.72,380.45L370.16,379.8L367.87,380.53L371.88,385.59L370.54,387.17L367.37,385.69L368.24,383.92L367.6,381.54L368.03,377.37L366.5,375.35L363.9,375.27L361.4,372.24L361.5,364.82L360.19,359.33L357.86,359.43L354.19,357.83L357.9,354.46L356.88,350.57L354.53,349.5L351.24,349.18L351.44,347.85L355.57,348.05L351.1,344.56L350.26,342.19L348.35,341.98L346.96,340.48L348.05,339.12L349.8,340.32L352.07,339.92L353.98,336.1L357.48,334.66L358.69,335.8L358.5,338.27L359.62,339.66L364.71,339.88L371.34,334.4L373.92,333.83L376.13,332.3L382.74,330.22L384.89,328.61L388.09,328.59L389.76,329.82L390.31,326.43L397.44,330.5L402.94,335.48L401.25,338.11L403.54,341.41L400.35,342.65L399.39,343.75L398.08,348.74L401.4,348.8L404.82,345.5L411.95,342.44L411.49,340.79L408.1,339.32L408.61,337.67L411.38,337.63L412.57,333.11L412.09,330.41Z" class="land" id="DK-83" title="Syddanmark"/>
    <path d="M697.51,366.09L699.37,368.31L700.63,371.23L704.11,373.08L704.72,374.19L708.82,376.42L710.58,375.77L711.95,378.31L718.78,383.54L722.16,384.32L723.3,385.61L722.55,388.07L723.5,391.67L722.21,394.82L720.25,396.94L720.96,399.91L718.37,403.02L710.18,401.17L707.48,399.88L704.82,397.84L701.16,396.72L698.58,395.17L697.35,395.35L692.78,391.88L692.02,388.79L692.55,385.97L692.15,378.03L692.86,374.84L695.67,369.36L695.62,367.06ZM557.22,325.74L556.84,324.41L557.65,320.96L559.78,320.97L560.31,324.32L560.14,328.38L557.47,326.77ZM548.59,318.55L551.02,319.95L549.88,321.36L551.41,325.01L553.22,325.64L552.46,328.62L552.94,330.31L549.85,331.98L547.09,334.66L545.16,334L544.69,332.26L542.72,332.02L541.39,328.12L544.38,324.21L545.47,321.7ZM531.37,329.89L530.92,329.49L530.82,329.37L529.57,328.2L525.38,326.47L520.8,328.61L517.38,327.6L517.86,324.99L516.74,320.51L519.15,318.41L520.97,318.53L523.63,315.95L521.14,313.7L520.74,310.78L517.88,311.24L512.53,307.09L510.73,301.29L509.27,299.38L510.81,297.41L510.99,295.26L509.58,292.5L509.7,290.72L507.62,285.17L504.78,284.29L501.79,286.38L498.86,287.37L496.3,286.86L495.62,284.29L499.02,281.7L506.98,276.41L510.67,272.92L518.72,266.91L526.12,264.31L530.41,265.47L532.89,267.75L536.3,268.75L540.65,268.97L543.51,270.4L548.08,274.82L548.74,276.26L547.44,278.63L545.18,280.79L543.9,283.59L541.97,289.79L545.76,298.86L546.09,303.31L547.37,306.18L547.74,309.69L546.3,313.04L549.25,314.8L547.1,316.23L547.24,319.52L545.08,321.45L543.94,324.37L541.41,324.96L540.36,326.76L540.15,329.09L537.21,328.65L536.79,327.3L534.04,327.19L533.88,328.39ZM505.1,313.3L501.72,311.44L499.87,313.14L497.85,312.34L496.55,312.51L497.07,305.21L497.99,303.04L502.88,301.35L503.66,298.46L501.52,294.86L501.65,293.52L499.65,290.27L499.91,287.86L503.94,288.88L505.38,290.85L506.65,290.63L508.19,292.45L506.46,294.71L506.49,297.59L508.45,298.47L509.4,305.22L511.01,308.82L510.2,310.05L510.22,312.88L506.89,314.19Z" class="land" id="DK-84" title="Hovedstaden"/>
    <path d="M497.85,312.34L499.87,313.14L501.72,311.44L505.1,313.3L505.05,314.97L503.08,319.92L506.21,319.61L506.81,318.01L508.55,317.54L508.13,320.89L512.31,322.57L511.23,319.4L513.92,316.59L513.39,314.62L514.51,313.75L512.94,311.65L512.53,307.09L517.88,311.24L520.74,310.78L521.14,313.7L523.63,315.95L520.97,318.53L519.15,318.41L516.74,320.51L517.86,324.99L517.38,327.6L520.8,328.61L525.38,326.47L529.57,328.2L530.82,329.37L530.58,330.28L526.74,332.29L522.9,336.18L519.7,345.16L520.17,348.45L521.25,350.11L527.22,353.36L531.49,353.79L535.03,357.17L536.97,359.76L537.64,361.8L536.99,363.77L537.68,366.31L536.98,368.34L534.85,370.33L531.82,371.08L530.74,373.26L525.18,372.54L522.46,373.33L517.42,375.89L515.77,378.55L514.25,379.67L513.71,382.38L514.11,384.74L511.73,385.03L512.66,380.35L508.44,381.63L507.14,383.78L508.56,384.4L510.23,387.18L514.22,386.74L515.36,385.85L518.86,387.9L518.12,391.14L517.02,392.49L514.87,392.18L515.16,395.9L518.15,401.17L517.73,402.12L514.74,402.24L511.69,405.15L508.13,406.11L504.88,404.43L503.22,402.03L500.36,401.05L499.33,402.31L494.63,398.76L493.29,397.12L487.81,395.05L488.99,393.91L494.38,396.67L494.65,395.18L493.27,393.01L491.31,391.91L489.94,392.43L487.14,388.06L489.87,387.4L491.15,385.73L493.15,386.18L493.32,383.65L490.77,382.87L488.05,383.37L486.78,381.32L488.22,377.96L486.65,376.53L484.79,376.79L481.58,380.43L478.67,378.79L475.52,378.77L467.21,375.3L469,379.01L466.29,378.89L466.02,376.83L463.66,377.73L459.39,376.48L457.94,378.48L455.34,377.44L454.91,374.86L453.7,372.31L456.96,373.26L458.7,369.46L457.38,368.71L456.43,371.95L454.06,371.61L454.47,370.02L453.78,367.19L449.63,364.82L446.5,361.58L449.98,362.49L451.89,360.41L450.04,359.01L447.31,361.73L445.13,359.7L445.88,357.7L448,357.36L451.52,355.54L452.3,353.07L451.04,351.22L451.68,348.11L449.84,344.23L449.58,341.68L447.34,339.44L443.15,339.49L443.79,337.12L447.28,336.88L448.46,334.39L447.96,330.94L446.55,327.64L445.23,326.26L440.32,323.13L438.24,322.48L437.54,320.73L441.57,321.65L444.25,320.03L441.82,319.07L439.28,317.19L437.24,314.03L435.45,313.36L432.7,313.69L430.53,311.65L433.86,310.68L436.7,311.29L440.8,313.09L443.2,312.67L446.41,310.6L449.76,311.21L451.15,313.08L453.3,311.77L455.28,313.35L457.28,312.12L457.66,310.45L460.23,310.46L463.1,308.63L463.94,306.1L463.28,300.66L465.6,300.71L468.41,298.94L471.46,299.01L473.1,296.78L473.73,294.49L473.81,290.48L473.16,288.59L469.35,286.46L463.52,285.97L460.72,283.99L458.12,283.27L458.47,281.55L463.94,284.25L466.45,284.92L470.81,285.08L473.54,286.21L478.31,284.92L479.47,286.87L482.33,287.68L485.75,286.6L491.04,283.06L492.01,285.48L489.52,287.52L489.32,291.88L488.09,292.62L486.25,290.92L483.95,290.98L483.58,294.78L485.17,295.64L487.89,300.28L488.05,302.19L486.48,303.46L483.24,302.51L482.09,305.44L479.64,306.62L481.02,308.21L483.6,307.74L485.95,305.91L488.78,306.06L490.56,310.72L489.12,312.2L483.16,312.8L483.29,315.02L491.51,314.08L492.1,317.04L491.44,322.03L493.38,321.23L495.17,318.97L495.42,316.15L496.58,313.14ZM522.66,394.61L521.38,397.62L519.25,396.77L520.8,394.75ZM495.35,406.48L498.02,408.41L498.84,410.97L500.66,411.7L501.83,409.33L504.14,408.96L505.35,413.1L506.65,414.13L510.41,414.98L511.41,414.41L514.69,415.19L515.16,417.52L517.79,421.49L515.66,422.88L514.38,425.56L511.96,426.95L509.16,430.71L508.13,433.75L505.53,436.48L504.4,438.57L503.72,443.41L504.6,452.25L504.39,454.16L500.75,452.37L500.93,449.99L497.2,442.58L498.04,438.75L500.26,435.51L497.45,434.28L498.44,431.85L496.91,428.69L492.27,424.17L493.66,422.18L493.1,420.38L491.52,419.15L489.56,418.94L489.68,415.86L488.55,414.04L489.54,412.2L488.88,410.08L486.08,409.76L488.76,406.36L491.48,407.05L492.7,409.26ZM465.9,405.39L468.6,405.9L469.89,408.47L467.44,408.28L465.5,410.93L463.21,409.37L462.76,406.86L465.9,407.27ZM449.8,381.13L447.98,384.81L446.79,382.43ZM450.7,372.71L452.18,379.56L449.63,377.77L449.35,373.89ZM455.79,406.82L457.8,408.16L459.56,410.77L462.37,411.66L462.48,413.92L465.8,416.4L467.39,418.27L469.86,418.5L469.53,420.15L476.49,422.75L476.23,420.09L477.78,418.7L479.51,419.74L482.45,418.56L481.84,417.22L483.01,413.47L487.17,416.89L489.17,420.87L491.25,421.81L491.4,424.77L496.61,429.28L497.13,433.1L493.14,435.76L493.74,437L496.77,438.48L495,443.24L492.9,444.05L488.51,443.3L484.94,441.7L478.12,442.49L476.2,442.34L474.99,444.61L471.8,445.15L469.34,447.99L461.27,442.8L458.08,439.16L455.73,437.23L445.42,432.94L441.29,431.7L437.82,429.83L435.71,425.94L437.49,425.83L438.65,423.77L440.72,425.69L442.45,425.61L444.45,422.98L443.02,421.45L443.02,419.84L439.72,417.13L438.7,414.93L439.54,412.01L442.54,408.95L444.95,408.72L450.11,406.34ZM525.61,396.47L528.14,398.33L533.08,398.38L538.18,398.89L542.28,400.7L544.02,403.95L544.39,406.64L543.59,408.07L541.4,408.41L538.12,406.93L532.89,405.8L531.09,405.9L528.12,407.22L525.81,409.1L520.62,415.81L516.14,415.82L514.98,413.7L506.59,410.96L508.59,409.01L511.14,409.02L512.46,410.48L511.58,412.44L513.55,413L515.33,407.99L514.75,406.62L517.62,405.02L517.89,403.22L519.95,403.94L520.61,405.63L525.45,403.59L525.01,401.76L525.83,399.76L522.56,395.75L525.04,394.84ZM473.24,402.63L475.39,403.04L476.66,404.92L474.95,406.98L473.71,406.73L471.85,403.96ZM487.21,379.55L484.87,380.53L485.93,377.32ZM495.79,306.88L494.96,309.44L493.66,310.84L492.13,309.85L490.92,306.89L492.52,305.68L493.75,306.88Z" class="land" id="DK-85" title="Sjælland"/>
  </g>
</svg>