<?xml version="1.0" encoding="UTF-8"?>
<svg xmlns="http://www.w3.org/2000/svg" width="616.87" height="399.63" viewBox="171.56 57.19 616.87 399.63" style="background-color:#000000">
  <!-- Created using SVG Map Generator: dojo.amcharts.com/svg-map-generator -->
  <style>
    .land { fill: #ffffff; stroke: #000000; stroke-width: 0.65; }
  </style>
  <g id="polygons">
    <path d="M458.65,73.83L456.56,76.76L454.5,74.21ZM432.66,70.3L435.03,74.78L437.28,83.07L433.55,82.85L430.99,80.85L429.38,77.32ZM383.6,118.88L384.9,123.3L384.66,125.05L381.13,124.93L380.59,122.22L378.18,118.45L379.59,116.2ZM558.67,78.23L558.77,81.36L555.36,82.77L555.68,85.71L558.54,89.31L560.03,100.87L563.21,101L564.96,104.37L563.78,106.53L565.01,111.4L566.91,113.49L568.57,118.28L568.29,120.03L569.32,124.84L568.86,125.85L570.46,131.93L566.44,133.2L563.67,129.97L553.1,128.6L550.7,131.01L546.45,130.73L541.99,133.93L540.42,136.27L535.65,132.94L533.01,133L530.31,134.92L527.47,133.71L524.65,134.81L527.58,137.85L528.26,141.01L529.89,143.98L526.44,151.57L522.17,157.2L523.12,159.19L521.62,162.72L525.77,165.2L523.05,171.04L520.69,167.37L519.21,166.8L516.4,169.31L518.46,172.58L517.55,179.52L515.02,182.38L512.36,181.45L511.11,184.72L507.84,183.96L505.42,180.06L498.68,176.44L498.75,173.97L496.72,170.72L498.49,168.06L494.24,166.28L489.1,165.91L484.89,164.36L480.86,158.93L472.03,154.77L471.93,149.42L470.2,149.8L469.22,142.02L466.51,141.35L463.29,142.47L459.52,142.39L459,147.19L456.61,144.85L454.83,144.72L452.98,142.3L450.86,143.83L449.62,142.6L445.48,142.9L440.74,148.64L437.99,148.1L438.03,150.79L436.94,154.87L438.8,157.33L435.29,158.5L438.27,160.75L438.26,166.26L430.9,165.03L426.31,166.72L420.12,166.89L417.14,167.82L419.08,172.99L414.86,173.66L412.95,176.53L413.7,178.61L410.38,179.67L408.37,179.21L405.22,180.53L402.84,177.37L400.03,179.82L398.4,178.6L395.7,183.01L392.61,185.7L392.03,181.16L399.53,173.73L397.97,171.43L395.2,169.75L394.55,165.22L395.27,162.33L390.01,159.28L387.21,158.44L378.95,157.68L375.21,159.75L370.91,153.9L367.73,151.2L362.98,151.35L362.92,145.36L358.17,145.36L358.02,139.59L359.34,136.71L358.79,133.35L361.42,133.54L363.27,130.7L366.79,129.85L368.89,130.75L372.45,133.82L374.96,131.67L379.1,133.48L381.9,131.76L387.31,129.74L388.21,130.83L391.6,131.29L394.3,130.62L395.12,127.29L393.56,122.74L390.09,120.46L387.38,116.34L387.18,111.22L391.14,111.85L396.83,115.21L399.02,117.46L403.03,120.16L406.76,119.6L407.46,117.18L405.9,113.39L402.27,111.03L406.01,110.24L408.67,108.4L410.77,108.14L416.26,104.57L417.27,102.13L417.04,97.3L419.94,95.36L424.51,95.21L428,96.08L430.96,100.01L435.62,102.15L440.5,99.12L447.15,103.28L449.12,100.01L446.12,97.45L449.43,96.81L451.35,93.77L452.87,95.36L452.1,97.15L455.48,100.12L459.38,100.85L463.07,95.61L463.82,93.11L460.91,89.36L459.92,87.07L459.28,82.47L460.14,78.23L465.63,81.23L468.1,80.87L468.83,84.45L471.03,86.43L470.98,89.97L472.95,91.36L476.48,92.22L479.41,91.08L479.62,88.99L484.22,90.32L487.69,90.25L489.66,92.47L493.5,93.6L495.58,91.98L495.74,88.46L492.52,85.62L494.14,83.36L497.28,85.67L498.55,89.46L500.8,89.51L504.76,86.37L505.37,88.25L512.28,91.51L514.4,90.85L517.95,92.26L520.03,92.2L522.95,90.61L523.06,87.16L525.14,86.41L529.9,86.63L532.42,82.28L529.38,77.64L529.46,75.78L527.37,73.32L526.42,70.66L526.41,65.96L527.76,62.31L529.36,65.81L528.6,67.32L531.82,69.87L537.04,72.32L540.2,77.08L542.28,78.27L545.01,77.66L547.37,71.02L544.63,68.57L544.34,64.66L546.74,59.84L548.98,60.21L552.64,63.86L552.16,66.28L554.41,67.62L552.97,69.61L553.99,72.14L553.99,75.78L554.84,77.4ZM375.5,119.03L378.5,123.81L379.07,126.15L377.73,127.68L372.22,121.81L371.88,119.15ZM476.75,62.46L480.27,64.13L482.84,67.43L479.48,68.13Z" class="land" id="EE-37" title="Harjumaa"/>
    <path d="M288.24,196.04L291.93,198.48L291.37,201.92L289.33,200.26ZM249.38,167.54L251.89,168.71L255.39,167.54L259.25,170.39L258.18,175.44L258.88,180.01L260.41,182.27L262.83,182.9L264.61,182.03L269.68,184.27L272.98,183.09L279.11,188.2L281.56,188.98L282.7,194.65L285.63,199.22L290.36,202.64L290.47,205.95L292.81,208.41L292.71,209.87L294.88,213.84L290.77,216.27L289.34,213.34L285.2,211.51L282.82,212.9L280.56,216.57L275.06,214.06L274.97,215.61L271.47,215.83L268.23,217.82L266.49,217.16L264.22,220.09L261.96,221.18L260.81,224.98L262.27,225.99L257.95,234.33L256.49,239.54L251.15,240.25L246.88,241.52L242.44,240.18L238.36,238.05L238.66,234.53L241.18,233.43L238.84,229.88L237.89,224.52L235.43,222.03L236.89,221.07L236.5,215.67L235.71,212.01L234.28,210.7L233.59,207.78L230.51,204.03L227.54,202.72L221.98,204.64L219.91,203.6L217.54,205.53L212.81,206.15L209.23,205.62L206.12,203.33L205.74,200.98L201.1,199.24L197.88,198.76L197.88,194.2L200.98,193.59L202.75,194.82L212.23,196.09L215.48,195.76L218.94,193.56L222.49,193.28L228.42,196.26L230.49,195.93L233.88,191L237.54,190.57L234.66,186.65L240.15,183.53L238.49,179.23L242.24,179.49L243.44,177.69L247.12,178.06L248.09,177.04L247.98,172.39ZM275.83,215.81L275.54,222.45L272.12,223.76L270.9,226.05L268.96,226.05L266.64,223.41L269.96,220.89L270.33,217.42L273.88,217.88Z" class="land" id="EE-39" title="Hiiumaa"/>
    <path d="M666.93,208.5L663.96,207.87L662.83,205.27L660.44,203.58L656.86,203.44L654.5,204.47L649.96,204.79L647.13,205.78L645.3,201.13L645.85,197.37L645.35,194.13L642.48,190.69L644.91,188.52L649.54,187.7L651.37,185.18L651.18,179.71L653.14,178.34L651.88,176.37L652.85,161.01L655.28,160.64L656.71,158.28L660.24,157.87L663.95,158.31L665.27,150L662.54,143.92L659.09,142.82L656.24,139.81L655.59,134.58L647.46,139.09L646.61,134.08L646.73,128.41L647.88,126.67L649,122.37L653.02,119.6L649.05,117.37L645.57,117.87L643.16,114.89L645.81,113.79L646.99,111.93L644.32,107.26L647.24,105.72L650.69,107.76L649.89,102.81L649.99,97.36L647.41,92.17L647.42,90.3L649.6,91.04L657.45,97.08L660.42,100.1L665.4,102.15L675.12,102.83L683.69,102.17L691.52,100.89L706.42,100.29L711.21,101.29L727.13,106.45L738.7,106.66L740.96,106.22L742.85,108.81L747.38,110.02L757.74,108.76L763.17,105.15L770.58,96.89L773.43,97.88L777.56,101.81L779.07,105.36L784.76,109.77L785.79,112.21L785.73,115.9L783.97,119.46L782.05,121.36L780.88,124.75L778.26,129.54L771.45,129.5L764.7,132.64L762.05,132.98L758.3,136.64L756.24,140.28L755.2,149.39L752.88,153.9L749.53,156.97L747.3,160.51L747.72,163.6L745.72,166.5L745.97,170.55L744.39,172.41L743.73,177.59L741.71,178.5L741.36,184.75L734.53,182.6L730.17,181.88L717.82,181.95L707.01,182.7L700.48,183.7L690.48,186.05L683.77,188.87L672.51,197.24L671.42,200.52L667.6,204.42Z" class="land" id="EE-44" title="Ida-Virumaa"/>
    <path d="M666.93,208.5L665.88,216.88L667.05,220.7L670.42,224.15L674.59,225.35L679.86,230.06L682.86,234.44L683.59,236.61L686.31,239.9L686.92,242.02L683.26,243.29L682.43,242.33L678.03,244.33L674.44,249.03L672.36,249.14L671.9,253.4L673.36,256.35L671.6,258.67L670.26,255.58L666.62,256.19L663.68,253.44L657.15,251.4L655.78,259.31L656.09,261.82L653.65,261.98L650.83,265.26L648.69,264.62L642.73,267.9L640.2,264.66L638.49,264.47L636.63,266.41L636.06,271.65L633.06,272.91L626.65,267.22L622.33,267.71L620.79,270.44L616.45,268.52L613.65,270.18L611.03,270.68L607.52,269.36L606.69,271.03L604.2,271.78L595.92,277.99L594.21,276.95L592.6,278.14L589.65,277.12L588.75,280.97L583.61,275.45L582.47,276.37L577.23,271.85L576.79,265.5L574.49,267.18L570.58,263.19L570.69,259.45L568.02,258.92L563.95,256.58L558.75,257.68L551.77,256.54L552.85,253.57L555.49,251.77L554.96,248.15L553.88,246.39L553.86,240.75L555.33,236.28L556.4,236.54L559.44,233.47L558.72,229.82L562.02,229.25L564.88,225.64L567.17,227.21L568.04,229.64L571.83,226.91L571.96,223.63L570.6,219.17L572.29,217.53L575.43,218.01L577.54,215.52L581.09,214.21L586.91,213.87L586.97,206.36L589.83,204.05L598.18,203.23L600.28,202.49L600.6,199.78L607.08,198.3L608.62,203.68L610.68,206.43L614.1,206.51L615.26,204.75L617.81,204.23L619.28,201.4L618.44,198.24L621.49,194.07L625.31,193.39L628.51,196.11L634.31,192.5L640.48,189.81L642.48,190.69L645.35,194.13L645.85,197.37L645.3,201.13L647.13,205.78L649.96,204.79L654.5,204.47L656.86,203.44L660.44,203.58L662.83,205.27L663.96,207.87Z" class="land" id="EE-49" title="Jõgevamaa"/>
    <path d="M530.31,134.92L538.15,141.38L541.16,146.38L546.04,146.44L545.92,144.61L549.21,143.83L552,141.61L555.11,143.47L555.63,146.44L559.66,145.13L563.35,147.3L570.8,148.31L572.49,149.98L575.44,149.01L576.35,153.41L573.95,155.03L572.62,160.83L571.02,160.71L568.73,164.4L569.19,166.87L568.29,171.35L569.72,173.23L572.38,172.17L574.05,174.23L577.34,173.47L579.54,175.4L580.62,180.23L583.17,181.03L583.68,183.55L588.12,186.16L587.65,188.63L588.99,192.28L590.26,192.78L589.78,196.06L590.83,198.37L589.24,203.53L589.83,204.05L586.97,206.36L586.91,213.87L581.09,214.21L577.54,215.52L575.43,218.01L572.29,217.53L570.6,219.17L571.96,223.63L571.83,226.91L568.04,229.64L567.17,227.21L564.88,225.64L562.02,229.25L558.72,229.82L559.44,233.47L556.4,236.54L555.33,236.28L553.86,240.75L552.57,242.28L549.61,242.92L547.59,244.39L542.22,244.81L540.77,248.26L537.41,248.72L535.33,251.05L531.99,250.36L526.76,252.69L526.2,254.15L522.94,256.28L517.32,255.07L513.27,256.23L512.38,254.39L508.91,255.42L507.85,254.21L503.71,253.66L502.84,252.23L503.97,251.31L508.56,237.92L503.94,235.36L498.55,234.52L498.36,232.8L501.35,226.67L497.89,220.42L500.5,219.76L505.83,209.2L503.28,207.54L502.92,204.16L503.88,200.79L508.2,198.2L509.08,191.5L506.7,187.85L511.11,184.72L512.36,181.45L515.02,182.38L517.55,179.52L518.46,172.58L516.4,169.31L519.21,166.8L520.69,167.37L523.05,171.04L525.77,165.2L521.62,162.72L523.12,159.19L522.17,157.2L526.44,151.57L529.89,143.98L528.26,141.01L527.58,137.85L524.65,134.81L527.47,133.71Z" class="land" id="EE-51" title="Järvamaa"/>
    <path d="M358.02,139.59L358.17,145.36L362.92,145.36L362.98,151.35L367.73,151.2L370.91,153.9L375.21,159.75L378.95,157.68L387.21,158.44L390.01,159.28L395.27,162.33L394.55,165.22L395.2,169.75L397.97,171.43L399.53,173.73L392.03,181.16L392.61,185.7L390.43,189.5L392.48,195.33L394.22,197.57L396.54,198.68L395.98,200.37L398.69,208.61L401.6,211.38L401.5,215.07L397.3,214.41L396.25,219.56L397.33,221.66L396.73,223.74L393.31,227.3L391.23,227.67L392.25,230.67L394.49,229.97L395.74,231.7L398.12,229.21L399.77,232.29L396.32,239.17L395.1,240.8L392.13,242.39L387.61,243.69L384.56,243.84L383.4,241.8L381.18,243.36L382.53,248.59L382.57,251.46L379.72,252.89L378.47,255.88L373.16,252.78L371.25,255.93L373.46,261.32L375.72,264.11L374.19,265.48L370.17,266.19L366.68,264.91L366.09,266.54L360.26,268.08L359.14,269.49L356.13,266.96L352.03,267.24L350.6,268.72L348.21,267.11L346.48,269.43L343.95,266.82L341.83,260.86L339.98,264.73L336.97,264.93L335.99,263.01L337.82,261.25L338.68,258.65L338.26,254.94L336.13,247.58L336.78,244.24L335.61,241.32L339.04,239.11L342.69,238.3L340.6,235.2L338.81,234.86L340.13,231.92L343.96,234.28L347.64,232.9L350.49,233.52L351.07,230.78L353.65,229.82L357.22,229.93L359.32,229.2L360.23,226.18L359.72,223.96L357.72,222.54L353.97,225.22L351.21,224.96L349.57,223.26L343.98,224.15L340.53,226.36L337.49,224.98L333.86,226.34L331.79,226.01L331.49,223.96L336.12,219.21L338.78,219.47L338.12,214.04L334.46,210.74L333.42,207.15L331.34,204.55L331.68,202.44L328.66,201.18L329.48,197.94L328.84,194.5L333.46,196.24L338.41,192.72L340.99,193.85L346.12,190.91L348.01,188.41L349.76,190.69L351.55,188.98L351.15,186.27L347.58,183.1L342.79,182.75L342.59,189.48L338.63,188.54L336.59,186.96L333.26,187.85L328.61,183.25L326.86,178.84L330.44,180.08L331.16,178.43L329.18,175.94L329.82,169.42L334.02,170.2L337.2,165.89L339.92,166.78L338.38,161.48L337.08,152.8L335.2,151.33L334.58,148.38L335.09,144.76L338.56,141.83L339.7,143.53L343.46,143.46L349.16,140L351.41,137.61L352.58,139.91L354.66,141.16ZM330.18,214.43L332.83,216.35L330.37,217.44ZM327.98,130L327.55,131.82L324.22,130.38L326.02,128.15ZM306.46,175.9L309.33,177.13L312.31,177.15L314.63,180.15L316.39,177.91L318.14,178.8L319.76,177.09L322.58,179.93L323.03,182.34L325.27,185.09L324.09,188.48L321.61,186.85L318.64,188.65L312.71,188.37L309.14,186.78L308.73,189.3L306.48,191.39L304.03,191.28L304.44,188.09L299.56,181.6L299.61,178.13L303.22,175.96Z" class="land" id="EE-57" title="Läänemaa"/>
    <path d="M647.42,90.3L647.41,92.17L649.99,97.36L649.89,102.81L650.69,107.76L647.24,105.72L644.32,107.26L646.99,111.93L645.81,113.79L643.16,114.89L645.57,117.87L649.05,117.37L653.02,119.6L649,122.37L647.88,126.67L646.73,128.41L646.61,134.08L647.46,139.09L655.59,134.58L656.24,139.81L659.09,142.82L662.54,143.92L665.27,150L663.95,158.31L660.24,157.87L656.71,158.28L655.28,160.64L652.85,161.01L651.88,176.37L653.14,178.34L651.18,179.71L651.37,185.18L649.54,187.7L644.91,188.52L642.48,190.69L640.48,189.81L634.31,192.5L628.51,196.11L625.31,193.39L621.49,194.07L618.44,198.24L619.28,201.4L617.81,204.23L615.26,204.75L614.1,206.51L610.68,206.43L608.62,203.68L607.08,198.3L600.6,199.78L600.28,202.49L598.18,203.23L589.83,204.05L589.24,203.53L590.83,198.37L589.78,196.06L590.26,192.78L588.99,192.28L587.65,188.63L588.12,186.16L583.68,183.55L583.17,181.03L580.62,180.23L579.54,175.4L577.34,173.47L574.05,174.23L572.38,172.17L569.72,173.23L568.29,171.35L569.19,166.87L568.73,164.4L571.02,160.71L572.62,160.83L573.95,155.03L576.35,153.41L575.44,149.01L572.49,149.98L570.8,148.31L563.35,147.3L559.66,145.13L555.63,146.44L555.11,143.47L552,141.61L549.21,143.83L545.92,144.61L546.04,146.44L541.16,146.38L538.15,141.38L530.31,134.92L533.01,133L535.65,132.94L540.42,136.27L541.99,133.93L546.45,130.73L550.7,131.01L553.1,128.6L563.67,129.97L566.44,133.2L570.46,131.93L568.86,125.85L569.32,124.84L568.29,120.03L568.57,118.28L566.91,113.49L565.01,111.4L563.78,106.53L564.96,104.37L563.21,101L560.03,100.87L558.54,89.31L555.68,85.71L555.36,82.77L558.77,81.36L558.67,78.23L562.44,76.47L562.52,71.64L561.86,69.1L566.14,68.59L567.61,71.15L566.31,74.27L570,75.68L572.55,73.74L571.76,65.28L573.64,66.43L574.69,69.02L578.87,67.08L581.08,70.29L582.74,71.02L584.28,74.36L588.83,74.61L596.12,73.83L600.65,74.27L606.05,79.83L609.58,79.59L610.59,80.75L615.24,81.3L616.36,82.85L619.41,84.01L620.42,86.03L623.22,88.06L626.72,85.92L629.62,85.97L632.78,80.3L636.93,81.55L638.62,83.39L640.76,83.49L643.07,85.94L646.47,87.59Z" class="land" id="EE-59" title="Lääne-Virumaa"/>
    <path d="M716.56,331.93L718.67,334.74L718.74,337.4L720.78,340.41L721.54,347.3L724.39,347.77L725.48,349.81L728.42,351.19L727.46,353.44L728.51,356.93L726.85,359.85L728.89,364.36L731.55,366.33L733.09,365.46L736.53,365.57L737.05,368.31L735.28,371.34L735.92,373.64L733.35,374.69L735.87,378.43L735.8,380.03L738.99,380.73L740.39,383.34L743.69,385.59L745.82,384.62L748.35,385.07L748.18,391.41L744.48,396.49L741.16,397.26L737.23,395.57L730.05,395.25L726.41,396.43L722.77,396.7L718.51,397.02L712.81,395.46L708.26,395.73L703.99,399.45L700.06,396.92L699.66,394.71L696.57,394.58L697.14,391.53L702.27,386.31L700.5,384.47L698.52,385.01L695.45,383.12L693.3,383.65L688.42,381.33L685.27,378.81L683.58,375.95L681.15,374.33L678.45,377.06L675.56,377.93L676.87,381.29L678.56,383.48L669.51,381.94L667.85,380.95L667.47,377.24L662.83,380.03L655.39,379.99L652.2,381.7L650.66,379.65L644.53,379.06L642.35,377.19L639.91,378.9L637.05,378.14L634.18,379.11L633.12,377.66L630.03,376.47L629.02,374.42L630.44,370.54L629.11,365.9L631.22,362.74L629.31,354.47L631.6,350.84L631.38,349.2L634.4,344.64L637.62,343.57L637.91,337.71L637.16,334.56L641.37,334.38L643.52,332.48L645.64,332.44L646.59,335.36L650.77,333.4L654.49,333.09L657.48,330.36L658.62,324.32L661.44,321.45L662.03,323.9L668.42,323.23L668.63,325.75L672.78,325.13L675.93,318.82L678.68,322.21L683.06,321.12L683.02,318.78L684.71,318.22L685.85,320.47L693.39,320.72L697.13,322.21L696.34,326.08L703.84,327.65L707.75,329.05L710.15,328.51L711.3,331.28Z" class="land" id="EE-65" title="Põlvamaa"/>
    <path d="M383.89,338.58L385.81,339.14L385.03,343.65L382.88,348.37L380.38,348.69L379.24,345.22L380.15,339.39ZM396.32,239.17L401.58,243.71L406.11,242.13L410.78,244.31L417.41,245.78L420.81,246.1L424.73,243.4L427.52,242.59L428.83,240.93L429.75,236.36L433.5,234.2L435.93,231.94L439.2,235.07L438.03,238.29L446.66,234.64L449.09,229.86L457.25,233.17L461.96,232.8L463.44,230.54L466.19,228.79L471.47,233.08L470.33,238.69L471.35,244.57L474.03,245.64L474.77,242.22L478.38,237.26L480.38,236.5L482.27,237.61L486.68,234.59L493.9,235.66L498.55,234.52L503.94,235.36L508.56,237.92L503.97,251.31L502.84,252.23L499.75,253.84L500.77,255.86L501.46,262.95L498.49,263.03L495.87,266.18L496.14,268.37L493.34,269.14L490.91,272L486.98,272.67L486.09,274.63L482.51,275.14L482.11,277.77L480.24,278.83L480.78,287.82L479.03,290.17L478.06,294.55L476.57,304.44L477.4,308.2L483.04,306.95L487.68,308.59L488.95,310.15L492.11,308.64L493.71,309.62L496.08,314.91L504.33,316.27L504.71,320.14L502.47,321.7L503.66,326.08L503.62,329.61L500.98,329.45L498.26,331.5L495.57,330.97L494.73,334.98L490.38,337.11L489.29,340.86L491.13,344.88L484.73,344.75L485.42,347.81L481.55,349.98L480.58,353.32L482.02,354.09L482.51,357.89L483.57,359.19L481.25,362.79L478.67,364.49L474.73,364.2L464.84,370.76L463.16,371.21L461.03,368.08L454.73,369.48L454.63,372.67L451.94,373.28L449.86,375.84L448.13,373.7L445.25,374.13L443.77,377.13L439.64,373.53L435.57,376.49L433.7,376.32L432.52,379.11L427.93,380.21L426.4,382.82L427.73,388.34L423.25,390.81L422.55,389.72L417.78,389.25L418.17,385.66L420.72,380.53L420.9,375.6L424.01,366.78L426.25,365.03L426.64,362.05L429.67,353.61L429.36,349.58L428.28,348.19L429.44,345.35L428.86,340.81L429.51,339.65L427,335.39L428.39,330.14L427.98,328.23L429.51,326.64L429.58,322.99L430.54,320.03L436.49,316.58L439.59,312.57L439.17,306.55L434.64,300.12L430.47,298.85L429.83,297.44L423.44,296.28L415.48,296.9L412.55,298.63L411.74,300.63L411.54,307.55L409.1,316.71L402.7,317.62L400.17,317.51L398.4,320.65L394.55,323.14L390.74,321.1L387.71,313.31L375.43,306.71L374.99,309.49L372.07,308.2L369.77,303.4L367.26,301.91L366.31,305.44L364.62,303.96L358.76,303.42L359.3,301.14L356.67,296.66L355.76,292.29L354.19,289.86L353.01,285.61L353.55,284.59L353.34,277.41L354.27,274.74L352.76,271.54L349.47,272.47L346.48,269.43L348.21,267.11L350.6,268.72L352.03,267.24L356.13,266.96L359.14,269.49L360.26,268.08L366.09,266.54L366.68,264.91L370.17,266.19L374.19,265.48L375.72,264.11L373.46,261.32L371.25,255.93L373.16,252.78L378.47,255.88L379.72,252.89L382.57,251.46L382.53,248.59L381.18,243.36L383.4,241.8L384.56,243.84L387.61,243.69L392.13,242.39L395.1,240.8Z" class="land" id="EE-67" title="Pärnumaa"/>
    <path d="M392.61,185.7L395.7,183.01L398.4,178.6L400.03,179.82L402.84,177.37L405.22,180.53L408.37,179.21L410.38,179.67L413.7,178.61L412.95,176.53L414.86,173.66L419.08,172.99L417.14,167.82L420.12,166.89L426.31,166.72L430.9,165.03L438.26,166.26L438.27,160.75L435.29,158.5L438.8,157.33L436.94,154.87L438.03,150.79L437.99,148.1L440.74,148.64L445.48,142.9L449.62,142.6L450.86,143.83L452.98,142.3L454.83,144.72L456.61,144.85L459,147.19L459.52,142.39L463.29,142.47L466.51,141.35L469.22,142.02L470.2,149.8L471.93,149.42L472.03,154.77L480.86,158.93L484.89,164.36L489.1,165.91L494.24,166.28L498.49,168.06L496.72,170.72L498.75,173.97L498.68,176.44L505.42,180.06L507.84,183.96L511.11,184.72L506.7,187.85L509.08,191.5L508.2,198.2L503.88,200.79L502.92,204.16L503.28,207.54L505.83,209.2L500.5,219.76L497.89,220.42L501.35,226.67L498.36,232.8L498.55,234.52L493.9,235.66L486.68,234.59L482.27,237.61L480.38,236.5L478.38,237.26L474.77,242.22L474.03,245.64L471.35,244.57L470.33,238.69L471.47,233.08L466.19,228.79L463.44,230.54L461.96,232.8L457.25,233.17L449.09,229.86L446.66,234.64L438.03,238.29L439.2,235.07L435.93,231.94L433.5,234.2L429.75,236.36L428.83,240.93L427.52,242.59L424.73,243.4L420.81,246.1L417.41,245.78L410.78,244.31L406.11,242.13L401.58,243.71L396.32,239.17L399.77,232.29L398.12,229.21L395.74,231.7L394.49,229.97L392.25,230.67L391.23,227.67L393.31,227.3L396.73,223.74L397.33,221.66L396.25,219.56L397.3,214.41L401.5,215.07L401.6,211.38L398.69,208.61L395.98,200.37L396.54,198.68L394.22,197.57L392.48,195.33L390.43,189.5Z" class="land" id="EE-70" title="Raplamaa"/>
    <path d="M310.56,398.59L314.06,401.54L313.73,405.72L308.61,403.07L308.49,401.1ZM306.89,242.13L314.23,245.66L318.94,248.41L321.31,248.69L322.88,252.26L321.12,254.14L321.25,255.95L325.6,262.33L327.04,266.56L326.37,268.7L324.23,269.69L320.45,269.36L319.85,266.73L317.34,269.96L313.11,266.85L311.39,271.21L309.1,271.08L309.09,268.34L306.74,267.7L305.18,264.36L302.82,261.29L300.45,262.35L296.41,260.13L294.83,257.95L296.09,253.59L297.65,252.59L299.98,253.88L302.24,252.32L301.36,250.19L301.73,244.17ZM324.05,271.04L325.49,273.79L321.94,274.04ZM290.21,249.03L292.54,252.82L289.1,251.88ZM240.84,334.43L241.54,334.8L243.58,340.93L240.94,343.86L238.95,340.9ZM184.2,295.71L184.34,297.19L179.88,299.32L176.62,298.94L174.21,297.23L176.51,295.82ZM244.15,251.99L247.52,251.16L252.04,259.87L254.98,261.51L257.43,261.51L260,257.93L262.17,261.19L264.53,262.49L265.66,260.64L266.73,255.09L268.85,252.94L273.48,254.78L276.54,252.94L278.79,254.74L282.63,254.41L284.36,256.1L288.35,257.77L295,264.45L301.18,266.1L300.52,269.87L301.56,272.34L306.03,273.37L309.9,276.38L312.74,276.82L318.78,283.31L319.21,285.59L315.41,285.48L315.15,280.75L313.54,281.61L313.28,283.84L310.05,284.42L313.2,287.85L311.96,289.59L308.59,286.61L306.82,283.86L304.11,281.5L301.98,282.89L302.98,286.41L301.08,286.7L300.9,288.95L298.85,291.67L297.68,289.04L295.57,289.24L294.4,292.07L295.66,294.98L292.61,295.69L291.55,297.81L292.22,299.67L288.87,301.52L286.86,300.47L285.14,297.74L283.27,298.66L285.37,303.25L283.31,303.47L280.76,309.37L280.08,312.35L276.91,312.04L276.12,310.08L271.77,314.62L271.68,318.69L268.26,317.35L265.23,317.55L262.91,315.82L260.83,316.18L259.7,319.02L262.8,323.12L264.26,326.53L260.66,328.6L257.66,327.26L255.91,325.12L253.6,324.86L255.39,321.96L254.54,320.87L251.28,322.01L251.59,324.55L249.9,326.4L248.73,323.97L245.85,326.98L243.43,321.7L242.14,325.86L239.71,324.03L236.14,323.14L235.45,326.13L233.53,327.44L230.32,326.38L226.59,326.98L221.96,329.34L218.57,332.42L217.27,335.01L216.9,339.58L218.14,343L217.28,344.08L216.09,349.45L213.8,354.82L214.53,357.04L212.21,360.36L210.35,364.62L212.18,369.97L209.01,372.83L207.32,372.8L203.11,377.19L201.88,379.31L198.07,381.99L194.67,381.79L193.22,376.9L191.15,375.15L191.16,370.99L194.53,370L194.67,366.24L196.81,365.44L196.33,362.4L198.2,361.48L199.29,355.11L200.19,353.17L203.1,351.31L204.93,352.18L205.65,354.46L208.54,354.78L209.2,351.95L208.81,349.25L211.5,343.43L214,342.13L213.33,338.54L206.51,337.53L206.57,335.66L202.33,333.96L199.76,333.85L196.67,329.92L196.86,327L193.11,321.78L190.12,323.99L187.14,322.16L185.25,322.27L182.32,319.8L179.91,319.22L176.7,315.84L177.86,313.95L176.33,311.09L178.08,310.11L181.66,312.8L183.94,311L181.49,308.06L182.61,304.73L185.1,306.95L185.99,310.69L188.71,308.49L188.93,304.07L192.66,304.35L191.1,300.98L192.22,298.17L191.67,294.51L189.5,293.64L186.91,290.41L187.79,289.29L184.1,284.88L183.5,281.48L181.03,280.66L179.83,282.03L177.53,279.89L178.54,276.82L180.89,279.66L184.82,278.8L185.27,276.26L184.04,275.07L184.8,272.65L189.33,274.74L192.04,274.12L194.68,275.89L198.01,285.48L200.1,290.5L202.86,290.95L203.96,289.62L203.41,283.69L203.96,279.31L205.79,276.24L209.8,273.51L211.93,273.24L211.47,269.62L213.59,267.4L215.29,269.42L215.5,276.16L216.27,277.96L220.26,278.47L221.26,277.54L222.73,272.11L221.93,268.98L220.15,267L219.72,264.33L222.66,263.92L227.26,261.65L229.88,262.44L238.01,260.96L240.37,259.09Z" class="land" id="EE-74" title="Saaremaa"/>
    <path d="M686.92,242.02L686.8,246.06L688.1,250.36L691.09,256.01L691.63,263.25L694.09,271.14L694.63,279.25L694.76,286.41L694.09,290.37L696.61,294.95L698.44,295.62L700.42,292.36L704.92,293.43L710.97,298.9L709.82,302.11L711.25,303.89L712.27,309.64L710.3,312.71L715.21,319.33L716.43,323.28L715.61,324.99L716.63,328.89L716.56,331.93L711.3,331.28L710.15,328.51L707.75,329.05L703.84,327.65L696.34,326.08L697.13,322.21L693.39,320.72L685.85,320.47L684.71,318.22L683.02,318.78L683.06,321.12L678.68,322.21L675.93,318.82L672.78,325.13L668.63,325.75L668.42,323.23L662.03,323.9L661.44,321.45L658.62,324.32L657.48,330.36L654.49,333.09L650.77,333.4L646.59,335.36L645.64,332.44L643.52,332.48L641.37,334.38L637.16,334.56L637.91,337.71L637.62,343.57L634.4,344.64L632.37,343.88L632.35,341.44L629.23,340.32L628.13,337.26L624.47,336.68L621.92,337.15L616.67,341.01L614.64,339.32L613.86,336.55L610.14,335.54L606.42,342.82L602.2,341.95L600.92,346.16L594.98,346L589.27,345.31L586.13,345.94L581.68,344.17L579.42,306.57L591.2,292.49L592.84,292.76L590.65,284.86L588.75,280.97L589.65,277.12L592.6,278.14L594.21,276.95L595.92,277.99L604.2,271.78L606.69,271.03L607.52,269.36L611.03,270.68L613.65,270.18L616.45,268.52L620.79,270.44L622.33,267.71L626.65,267.22L633.06,272.91L636.06,271.65L636.63,266.41L638.49,264.47L640.2,264.66L642.73,267.9L648.69,264.62L650.83,265.26L653.65,261.98L656.09,261.82L655.78,259.31L657.15,251.4L663.68,253.44L666.62,256.19L670.26,255.58L671.6,258.67L673.36,256.35L671.9,253.4L672.36,249.14L674.44,249.03L678.03,244.33L682.43,242.33L683.26,243.29ZM719.77,299.98L717.68,300.16L716.23,297.61L717.18,295.42L720.77,295.93L721.72,299.52Z" class="land" id="EE-78" title="Tartumaa"/>
    <path d="M581.68,344.17L586.13,345.94L589.27,345.31L594.98,346L600.92,346.16L602.2,341.95L606.42,342.82L610.14,335.54L613.86,336.55L614.64,339.32L616.67,341.01L621.92,337.15L624.47,336.68L628.13,337.26L629.23,340.32L632.35,341.44L632.37,343.88L634.4,344.64L631.38,349.2L631.6,350.84L629.31,354.47L631.22,362.74L629.11,365.9L630.44,370.54L629.02,374.42L627.62,375.28L623.81,375.55L622.43,374.76L620.05,377.03L616.01,378.3L613.75,377.3L612.69,379.49L614.26,380.79L614.58,384.08L612.86,385.64L612.66,390.44L614.86,390.55L616.5,393.02L614.41,394.44L615.86,399.55L614.98,401.9L616.78,405.85L620.33,404.16L622.29,405.09L622.24,407.19L620.36,412.27L617.82,413.69L619.83,416.48L619.86,418.3L622.66,419.11L623.1,421.4L619.71,424.9L617.1,429.13L622.46,433.63L619.54,439.01L621.45,439.62L619.78,442.47L613.36,443.06L607.95,441.06L606.15,441.88L604.65,439.39L602.46,439.58L598.5,434.77L597.96,427.76L595.59,426.51L595.29,423.99L593.08,421.38L594.16,417.93L591.39,415.28L588.76,414.69L587.89,411.49L582.46,408.66L580.39,409.37L577.43,406.92L578.3,400.63L579.95,397.15L580.27,393.81L577.13,393.99L575.02,391.64L571.33,394.26L568.45,392.95L565.19,393.18L557.61,391.03L553.75,382.39L549.82,380.41L546.81,383.79L544.32,382.31L541.27,381.63L539.72,378.7L535.23,376.59L536.18,374L539.68,366.81L537.49,361.49L538.27,360.48L544.03,360.48L546.49,361.19L551.27,355.02L550.27,353.75L555.77,352.85L556.23,351.26L558.56,350.5L560.96,348.49L560.44,345.04L561.8,343.23L562.51,339.92L565.5,341.89L567.24,345.09L567.66,348.49L570.45,348.93L572.88,346.67L576.59,345.73L577.33,344.23Z" class="land" id="EE-82" title="Valgamaa"/>
    <path d="M553.86,240.75L553.88,246.39L554.96,248.15L555.49,251.77L552.85,253.57L551.77,256.54L558.75,257.68L563.95,256.58L568.02,258.92L570.69,259.45L570.58,263.19L574.49,267.18L576.79,265.5L577.23,271.85L582.47,276.37L583.61,275.45L588.75,280.97L590.65,284.86L592.84,292.76L591.2,292.49L579.42,306.57L581.68,344.17L577.33,344.23L576.59,345.73L572.88,346.67L570.45,348.93L567.66,348.49L567.24,345.09L565.5,341.89L562.51,339.92L561.8,343.23L560.44,345.04L560.96,348.49L558.56,350.5L556.23,351.26L555.77,352.85L550.27,353.75L551.27,355.02L546.49,361.19L544.03,360.48L538.27,360.48L537.49,361.49L539.68,366.81L536.18,374L534.72,371.3L529.82,371.81L529.04,369.86L525.65,370.65L521.73,367.26L523.81,365.59L522.52,363.84L518.49,361.1L514.19,360.88L511.41,355.76L507.13,351.42L504.51,354.91L507.45,358.19L508.45,360.48L507.69,363.82L508.1,367.23L504.06,367.36L500.73,362.34L499.6,355.11L499.62,352.05L497.38,352.78L491.98,351.98L489.46,352.49L489.12,354.51L486.95,354.56L483.57,359.19L482.51,357.89L482.02,354.09L480.58,353.32L481.55,349.98L485.42,347.81L484.73,344.75L491.13,344.88L489.29,340.86L490.38,337.11L494.73,334.98L495.57,330.97L498.26,331.5L500.98,329.45L503.62,329.61L503.66,326.08L502.47,321.7L504.71,320.14L504.33,316.27L496.08,314.91L493.71,309.62L492.11,308.64L488.95,310.15L487.68,308.59L483.04,306.95L477.4,308.2L476.57,304.44L478.06,294.55L479.03,290.17L480.78,287.82L480.24,278.83L482.11,277.77L482.51,275.14L486.09,274.63L486.98,272.67L490.91,272L493.34,269.14L496.14,268.37L495.87,266.18L498.49,263.03L501.46,262.95L500.77,255.86L499.75,253.84L502.84,252.23L503.71,253.66L507.85,254.21L508.91,255.42L512.38,254.39L513.27,256.23L517.32,255.07L522.94,256.28L526.2,254.15L526.76,252.69L531.99,250.36L535.33,251.05L537.41,248.72L540.77,248.26L542.22,244.81L547.59,244.39L549.61,242.92L552.57,242.28Z" class="land" id="EE-84" title="Viljandimaa"/>
    <path d="M629.02,374.42L630.03,376.47L633.12,377.66L634.18,379.11L637.05,378.14L639.91,378.9L642.35,377.19L644.53,379.06L650.66,379.65L652.2,381.7L655.39,379.99L662.83,380.03L667.47,377.24L667.85,380.95L669.51,381.94L678.56,383.48L676.87,381.29L675.56,377.93L678.45,377.06L681.15,374.33L683.58,375.95L685.27,378.81L688.42,381.33L693.3,383.65L695.45,383.12L698.52,385.01L700.5,384.47L702.27,386.31L697.14,391.53L696.57,394.58L699.66,394.71L700.06,396.92L703.99,399.45L708.26,395.73L712.81,395.46L718.51,397.02L722.77,396.7L723.76,397.1L721.68,403.8L718.8,405.31L719.06,408.71L720.97,410.29L720.51,418.7L718.09,419.18L717,416.84L715.1,418.79L713.34,417.46L707.03,424.56L706.21,426.52L706.79,429.38L709.31,435.79L704.28,438.75L701.45,442.1L702.66,447.6L703.79,449.73L703.53,451.89L701.51,451.8L695.64,447.17L692.3,446.39L689.27,446.8L686.1,445.46L682.28,445.11L678.6,442.29L674.85,441.45L674.6,438.67L673.38,437.34L665.4,437.85L663.29,432.38L657.53,435.43L657,439.49L654.7,441.26L651.6,441.42L650.04,442.88L646.62,441.79L642.75,444.07L639.34,444.3L637.14,446.16L633.6,450.77L633.57,454.16L631.26,452.87L631.25,449.4L628.82,450.77L628.34,453.7L625.1,453.06L622.68,451.53L621.53,446.58L619.78,442.47L621.45,439.62L619.54,439.01L622.46,433.63L617.1,429.13L619.71,424.9L623.1,421.4L622.66,419.11L619.86,418.3L619.83,416.48L617.82,413.69L620.36,412.27L622.24,407.19L622.29,405.09L620.33,404.16L616.78,405.85L614.98,401.9L615.86,399.55L614.41,394.44L616.5,393.02L614.86,390.55L612.66,390.44L612.86,385.64L614.58,384.08L614.26,380.79L612.69,379.49L613.75,377.3L616.01,378.3L620.05,377.03L622.43,374.76L623.81,375.55L627.62,375.28Z" class="land" id="EE-86" title="Võrumaa"/>
  </g>
</svg>