<?xml version="1.0" encoding="UTF-8"?>
<svg xmlns="http://www.w3.org/2000/svg" width="199.39" height="399.63" viewBox="380.31 57.19 199.39 399.63" style="background-color:#000000">
  <!-- Created using SVG Map Generator: dojo.amcharts.com/svg-map-generator -->
  <style>
    .land { fill: #ffffff; stroke: #000000; stroke-width: 0.65; }
  </style>
  <g id="polygons">
    <path d="M399.54,446.39L399.77,446.93L398.91,447.75L398.83,446.43ZM398.12,446.47L398.83,446.09L398.46,447.5L398.03,447.68L397.42,447.41ZM396.76,439.36L396.8,439.01L397.9,439.71L398.3,440.16L397.73,441.78L397.3,441.62L397.38,441.06L396.87,440.92L396.56,440.08ZM401.55,443.67L402.19,443.53L402.48,444.23L402.02,444.65ZM402.04,441.24L402.7,441.1L402.91,441.81L402.32,442.19ZM395.01,443.27L395.4,443.18L396.16,443.51L395.82,445.44L395.44,445.74L394.67,445.39L394.99,444.51L394.75,443.74ZM383.09,439.62L383.57,439.79L383.89,440.57L382.96,440.46ZM408.9,432.94L409.03,433.42L408.41,433.55L408.41,432.93ZM385.08,438.21L385.2,439.09L385.84,439.93L385.83,440.89L386.2,440.99L386.26,441.95L386.07,442.8L384.87,442.88L385.08,443.44L384.61,443.67L384.08,443.51L383.67,441.83L384.09,440.76L384.01,439.86L384.4,439.92ZM403.61,436.62L404.15,436.9L404.07,437.44L403.13,437.5ZM388.62,439.52L388.28,438.69L389,438.33ZM389,434.57L390.06,434.65L390.11,435.05L390.79,435.39L390.41,436.18L391.62,436.36L393.16,436.31L393,436.83L394.5,437.18L394.81,437.74L394.3,438.64L395.34,438.81L395.53,439.09L395.49,440.23L395.22,440.55L395.55,441.76L394.46,441.8L394.09,442.67L393.34,441.89L392.92,442.36L391.91,441.4L391.43,441.66L392.07,443.02L391.73,443.49L391.78,444.29L392.23,444.45L392.07,445.65L392.62,445.46L392.73,444.78L393.57,445.41L395.02,445.65L394.8,446.69L394.89,447.82L394.38,448.47L393.92,448.13L393.29,448.36L393.22,447.43L392.78,446.66L391.91,446.74L391.7,446.05L391.17,446.15L391.11,444.93L390.35,445.75L389.97,445.73L389.56,445.12L388.46,445.39L387.94,444.92L387.66,445.37L387.13,444.6L387.13,444.13L386.65,443.01L386.4,441.85L386.51,441.24L385.94,440.29L386.06,439.86L385.57,438.87L386.26,438.67L387.45,438.58L387.3,438.1L387.48,437.41L388.28,437.88L388.12,438.73L387.68,439.95L388.48,440.51L389.29,440.12L389.77,439.23L389.15,437.87L388.82,437.79L388.61,436.8L387.99,436.53L388.16,435.46L388.46,434.75ZM403.84,438.91L404.28,439.03L404.72,439.57L404.73,440.29L404.34,441.08L403.67,440.78L403.14,439.99ZM405.27,450.28L405.9,450.09L406.05,450.72L405.87,451.4L405.12,450.67ZM406,449.69L406.89,449.62L407.25,450.26L406.37,450.4ZM398.4,448.69L397.71,447.86L398.32,447.81L398.71,448.13ZM396.7,447.73L397.63,447.86L398.02,448.85L396.21,448.7ZM400.55,446.54L401.01,446.92L401.01,447.67L399.61,448.14L399.35,447.58L399.97,446.88Z" class="land" id="FI-01" title="Åland Islands"/>
    <path d="M519.46,426.67L518.84,426.74L518.83,426.12L518.01,425.74L517.35,424.43L517.18,423.51L516.26,423.38L515.94,423.71L515.31,423.64L514.95,422.75L514.43,422.29L513.34,422.18L512.34,422.43L511.66,422.38L510.81,421.66L509.52,419.75L508.42,419.28L507.02,418.94L505.75,417.38L506.45,417.41L507.52,416.89L507.12,416.53L506.9,415.52L506.32,415.85L505.82,415.44L506.12,414.85L505.95,413.51L506.49,412.95L507.11,412.72L506.56,411.79L507.03,411.12L506.89,410.4L509.27,410.07L509.35,409.35L509.8,409.11L508.83,408.39L509.18,407.61L508.54,406.73L508.27,405.82L507.38,405.61L507.81,405.01L507.02,404.77L505.86,405.23L504.92,404.75L504.16,404.11L503.45,404.33L502.99,403.93L503.59,403.6L503.93,402.94L504.77,403.12L505.06,403.49L505.79,403.45L506.24,402.43L507.85,402.34L509.45,402.54L510.51,403.07L511.08,403.1L512.75,403.98L514.33,403.97L515.6,403.49L517.24,404.12L518.44,404.15L520.53,404L523.66,403.17L524.19,402.79L524.55,401.93L525.12,401.42L526.44,400.56L526.35,399.57L527.47,398.65L528.01,399.17L528.02,399.82L528.89,399.85L529.13,400.15L529.97,399.99L530.46,400.15L531.1,399.69L532.32,399.84L532.65,399.01L532.65,397.93L533.83,398.18L534.95,397.75L536.4,397.96L539.1,397.12L539.79,397.18L540.24,395.98L542.03,394.02L542.68,393.6L544.28,392.91L544.6,391.64L553.2,387.09L553.96,387.24L552.81,388.37L552.29,390.16L549.56,392.98L548.76,393.9L548.62,394.53L547.72,395.66L547.52,396.52L545.94,398.23L545.12,399.25L543.59,399.39L543.67,400.42L540.79,404.21L539.52,406.79L538.81,407.26L538.19,407.93L535.54,409.87L534.92,410.73L533.74,411.07L532.72,411.79L532.49,412.7L531.04,414.29L530.54,416.42L530.05,417.46L529.41,417.25L528.74,417.37L527.97,417.22L527.29,418.23L526.98,418.35L524.56,421.01L523.09,422.92L522.33,423.09L521.74,424.31Z" class="land" id="FI-02" title="South Karelia"/>
    <path d="M417.82,381.47L417.51,380.78L417.86,380.11L417.47,378.76L417.73,378.25L417.72,377.05L418.55,377.23L418.7,376.43L418.09,375.75L418.77,374.87L419.7,374.68L419.08,373.45L418.18,373.25L418.13,372.7L418.41,370.02L417.79,369.58L416.37,369.88L415.81,369.15L416.24,368.57L416.15,366.77L417.21,363.54L416.99,362.92L416.9,361.31L417.81,360.68L418.37,359.89L420.13,358.21L419.42,357.24L419.14,356.04L419.13,353.79L419.69,352.88L419.81,352.3L420.76,352.92L420.93,353.87L422.05,354.68L424.44,355.77L425.44,355.67L426.65,356.21L427.85,354.81L428.32,354.65L429.41,352.49L429.96,352.18L429.65,350.56L430.29,349.44L430.1,349.15L430.83,348.21L430.92,347.31L431.81,345.73L432,345.15L433.68,344.06L433.81,343.05L434.34,343.05L434.27,340.67L433.41,341.09L433,340.34L433.59,340L433.29,339.04L432.39,338.47L432.47,338.03L434.29,336.92L433.89,336.21L435,335.5L435.6,335.34L435.33,334.72L436.4,334.81L436.76,335.17L437.86,334.92L439.2,335.65L439.07,334.29L439.91,333.99L440.08,334.62L440.84,334.44L441.32,334.92L442.81,333.28L443.71,330.73L445.77,329.71L446.2,330.27L447.01,330.42L447.8,330.95L449.55,333.27L450.66,333.97L451.79,336.35L453.19,337.63L454.76,337.69L455.78,337.98L457.06,338.8L458.19,339.91L459.27,341.43L458.78,342.01L459.63,342.79L460.45,342.52L461.19,343.29L460.61,345.11L459.98,345.22L459.93,346.32L460.43,346.82L460.19,347.53L460.48,348.29L461.1,348.76L461.04,350.37L461.86,350.44L462.69,351.09L462.71,352.03L461.37,352.34L461.86,353.85L462.42,354.65L463.34,356.63L463.88,358.47L464.88,359.18L463.73,360.26L463.61,360.73L464.42,361.21L464.6,362.12L464.12,362.24L463.96,362.93L464.14,363.7L463.57,364.33L463.54,365.08L462.83,365.23L462.33,365.92L461.96,364.96L461.5,364.94L460.69,365.63L461.02,366.24L460.65,366.79L458.72,365.62L457.07,367.94L457.11,368.16L456.09,369.16L455.72,369.72L455.38,369.23L454.27,368.78L453.92,367.29L454.07,366.5L453.87,365.56L453.39,365.52L453.37,366.38L451.53,366.64L450.12,368.15L447.55,367.99L447.78,369.57L447.09,369.06L446.62,369.29L445.7,368.81L444.85,367.6L443.89,368.17L443.29,369.89L442.83,370.79L437.85,372.93L436.78,372.89L435.46,372.82L432.93,371.54L431.84,374.95L431.54,374.88L430.61,375.37L428.68,378.58L426.63,378.69L425.22,381.07L423.06,382.83L418.79,381.44Z" class="land" id="FI-03" title="Southern Ostrobothnia"/>
    <path d="M530.08,359.46L530.42,359.75L532.25,360.06L533.41,361.46L534.7,362.27L534.67,362.68L535.73,363.72L536.11,363.89L536.21,364.65L537.29,365.67L536.92,367.55L537.14,368.31L537.61,368.79L538.81,368.37L539.32,367.82L539.92,368.17L540.35,368.86L540.61,370.82L541.9,373.53L542.51,374.09L542.17,375.34L542.99,379.41L543.76,380.85L544.72,381.36L546.2,382.99L545.5,384.37L545.48,385.13L546.76,386.8L546.29,387.15L546.69,388.22L546.47,389.24L545.86,390.29L544.79,391.15L544.6,391.64L544.28,392.91L542.68,393.6L542.03,394.02L540.24,395.98L539.79,397.18L539.1,397.12L536.4,397.96L534.95,397.75L533.83,398.18L532.65,397.93L532.65,399.01L532.32,399.84L531.1,399.69L530.46,400.15L529.97,399.99L529.13,400.15L528.89,399.85L528.02,399.82L528.01,399.17L527.47,398.65L526.35,399.57L526.44,400.56L525.12,401.42L524.55,401.93L524.19,402.79L523.66,403.17L520.53,404L518.44,404.15L517.24,404.12L515.6,403.49L514.33,403.97L512.75,403.98L511.08,403.1L510.51,403.07L509.45,402.54L507.85,402.34L506.24,402.43L505.79,403.45L505.06,403.49L504.77,403.12L503.93,402.94L503.59,403.6L502.99,403.93L503.45,404.33L504.16,404.11L504.92,404.75L505.86,405.23L507.02,404.77L507.81,405.01L507.38,405.61L508.27,405.82L508.54,406.73L509.18,407.61L508.83,408.39L509.8,409.11L509.35,409.35L509.27,410.07L506.89,410.4L504.19,410.75L502.2,409.69L502.46,408.79L501.89,407.6L501.64,406.31L501.12,406.37L499.93,406.88L499.46,408.14L498.12,408.92L497.62,408.44L498.26,407.69L497.63,406.11L496.52,406.78L495.72,406.74L495.24,405.06L493.72,404.95L492.1,403.34L492.66,402.49L491.79,401.56L491.43,400.87L492.24,400.19L491.78,398.9L492.24,398.26L492.35,397.61L492.12,396.81L492.66,396.62L492.6,395.44L493.2,395.02L493.56,393.77L494.71,394.4L495.82,394.84L496.1,392.63L495.74,391.46L494.39,389.14L493.62,388.51L493.78,387.16L493.18,386.08L492.89,384.42L493.03,383.75L494.19,383.08L491.11,378.09L492.6,375.31L494.73,374.97L495.48,374.32L496.25,373.07L497.38,374.73L497.96,374.75L497.55,373.03L497.66,372.48L497.3,372.07L498.45,371.62L498.24,370.45L499.93,369.99L498.45,368.31L498.85,367.51L498.92,366.61L499.79,367.61L500.9,366.98L500.65,366.52L501.3,365.74L501.76,365.81L502.55,366.46L503.11,365.36L503.51,366.03L504.55,365.98L504.86,365.4L505.48,365.03L506.64,366.02L507.1,366.24L507.61,365.69L508.16,366.28L508.44,365.47L509.79,364.79L510.78,365.55L511.05,365.97L512.71,366.73L513.68,367.78L514.67,369.32L515.75,369.58L515.34,370.46L515.41,371.05L516.17,371.47L516.9,372.6L517.32,372.38L518.29,372.5L519.1,373.19L520.93,374.46L522.76,374.46L524.13,374.15L525.19,374.76L526.11,374.91L528.24,375.91L529.23,375.91L529.99,374.84L529.99,374.07L527.56,371.03L526.11,371.86L525.8,371.71L525.88,370.72L525.65,369.96L524.76,369.83L524.75,368.99L524.15,368.65L524.12,367.94L523.52,367.58L524.37,366.55L524.24,365.79L525.32,366.3L525.72,366.27L525.78,364.64L526.01,363.84L525.97,363.02L526.2,362.6L527.19,362.63L527.93,363.25L528.3,362.56L529.62,361.26Z" class="land" id="FI-04" title="Southern Savonia"/>
    <path d="M501.47,310.22L500.02,309.44L499.84,301.87L498.56,301.43L498.44,299.94L496.41,299.76L494.99,298.5L495.27,297.26L494.4,295.73L492.26,293.87L494.95,290.68L496.34,290.91L496.1,290.3L496.8,289.78L497.19,288.92L498.56,288.01L501.01,287.04L501.33,286L501.83,285.41L501.86,284.3L502.13,283.38L505.93,280.53L509.26,281.43L510.04,279.8L509.52,278.48L510.07,277.1L509.78,275.9L507.81,273.27L508.87,270.87L510.85,271L512.73,270.75L514.29,269.71L517.92,270.86L518.66,267.49L518.79,266.55L520.16,265.24L523.86,264.42L529.08,263.47L529.69,260.8L530.12,260.11L529.99,259.44L534.95,257.22L536.34,257.61L537.56,257.16L539.16,255.44L539.09,254.48L540.77,254.38L543.68,255.61L544.47,254.98L547.03,255.45L547.73,255.3L547.37,256.26L547.36,260.08L547.58,261.07L546,263.28L545.39,263.82L545.27,264.39L545.79,265.52L547.9,265.61L549.22,266.05L549.94,266.98L548.76,268.87L549.98,270.35L548.94,270.84L547.39,270.87L545.67,272.07L545.48,273.86L545.24,274.54L545.54,275.89L545.41,277.14L545.99,279.43L546.84,280.5L546.66,281.19L547.47,282.27L549.54,282.27L549.88,282.14L552.33,282.15L553.11,283.19L552.32,284.11L552.54,285.18L553.84,287.57L553.56,288.44L552.56,288.83L551.52,289.88L551.65,290.3L551.48,291.87L552.08,293.77L552.6,294.95L552.41,296.78L553.43,298.14L555.09,298.7L556.24,299.44L557.55,300.56L557.46,301.25L557.9,301.68L559.42,301.96L559.84,303.43L559.15,304.1L559.94,305.86L560.56,306.75L560.56,307.85L560.14,309.8L558.86,312.16L557.41,313.96L556.81,314.87L555.82,318.07L554,318.86L551.23,320.41L549.64,320.71L548.07,322.34L547.22,320.77L546.55,316L543.91,316.33L540.15,317.02L535.96,317.27L533.81,317.55L527.85,315.91L526.92,316.3L527.17,316.78L525.36,320.45L523.98,323.56L522.97,322.21L521.9,321.53L520.57,319.5L518.23,317L517.88,317.05L516.17,315.63L515.52,314.91L514.24,314.36L513.98,314.5L512.23,313.12L510.76,313.56L510.25,312.78L507.69,311.9L505.71,311.63L505.39,311.75L503.85,311.58Z" class="land" id="FI-05" title="Kainuu"/>
    <path d="M470.11,405L470.31,406.39L471.06,406.66L471.73,406.15L472,407.57L473.24,407.3L474.44,407.78L475.71,409.57L475.86,410.56L475.34,411.07L475.68,411.5L475,412.28L474.71,413.22L473.96,413.65L472.46,414.1L471.96,414.74L472.49,416.17L471.93,417.04L471.67,418.12L473.04,418.46L473.28,420.22L472.79,421.02L473.28,421.85L473.21,422.05L474.01,423.03L473.99,423.35L472.99,423.56L472.48,424.77L473.44,424.09L473.87,424.58L473.86,425.1L472.9,425.67L473.31,426.88L472.52,426.65L472.09,426.12L470.49,426.49L469.81,426.97L468.24,427.1L467.77,426.97L467.34,427.34L466.57,427.28L465.34,426.7L464.58,427.7L464.52,428.85L464.73,429.36L464.28,430.21L462.31,430.44L461.9,429.6L462.07,429.14L461.1,428.51L460.23,429.4L460.09,430L459.28,428.91L459.3,428.32L458.34,427.99L457.66,428.14L456.88,427.98L456.18,427.45L455.03,427.65L454.21,427.14L453.89,427.27L452.51,427.07L451.44,427.2L450.94,426.83L450.44,427.02L450.38,426.18L449.46,425.82L448.67,425.79L448.16,425.52L447.51,424.73L447.52,424.17L446.55,424.06L444.82,425.03L443.41,424.54L441.97,423.18L443.01,421.38L441.74,421.05L441.7,419.56L442.01,419.31L443.74,419.42L443.63,418.6L444.1,418.51L444.2,417.27L443.54,416.96L442.68,415.73L443.75,415.56L443.66,415.13L444.84,415.45L445.28,415.33L446.04,416.81L446.75,416.39L448.21,415.81L448.86,416.3L449.4,415.69L450.5,415.64L450.92,415.46L452.21,416.17L452.94,417.77L453.33,417.29L452.84,415.69L453.55,415.05L453.34,414.57L452.19,414.95L452.32,414.13L451.62,413.88L452.36,413.17L453.03,413.32L453.77,413.03L455.85,411.85L457.26,411.56L457.76,411.03L459.26,410.8L460.37,409.41L459.68,408.43L460.05,407.81L460.46,408.03L462.26,407.37L463.43,406.39L464.7,405.68L465.08,406.12L466.11,406.56L466.99,406.49L467.24,405.23L467.82,406.85L469.71,406.25L469.58,405.91Z" class="land" id="FI-06" title="Tavastia Proper"/>
    <path d="M449.04,304.66L449.9,304.01L450.01,304.59ZM439.34,319.25L438.26,319.67L437.54,318.67L437.43,317.75L437.9,317.54L437.6,316.56L436.83,316.23L437.16,315.43L438.58,315.48L438.54,316L439.03,316.57L438.78,317.13L439.42,318.58ZM450.69,305.29L452.16,306.24L453.14,307.1L454.12,307.29L454.66,307.96L455.6,308.17L456.9,308.95L457.13,311.34L458.36,313.73L459.02,313.98L459.51,316.04L460.09,316.56L462.35,317.42L464.51,322.79L465.45,324.25L467.57,325.59L468.63,326.51L470.23,328.82L472.11,331.16L470.07,332.08L467.95,334.7L468.43,337.65L467.64,338.02L467.77,339.73L467.51,340.48L467.28,342.26L467.94,342.74L464.04,341.91L461.3,343.36L461.19,343.29L460.45,342.52L459.63,342.79L458.78,342.01L459.27,341.43L458.19,339.91L457.06,338.8L455.78,337.98L454.76,337.69L453.19,337.63L451.79,336.35L450.66,333.97L450.84,333.86L450.06,331.99L449.88,328.52L448.78,327.73L448.41,327.2L448.77,326.57L448.36,325.84L447.35,326.54L446.26,325.42L447.58,324.35L448.27,324.84L449.29,324.23L449.9,323.52L450.78,324.01L451.34,323.29L449.08,321.42L448.78,321L447.13,319.59L446.81,320.14L446.8,320.94L445.75,320.31L444.72,320.2L443.75,320.94L443.44,321.72L442.88,321.67L440.65,319.75L439.76,319.17L439.94,318.04L440.21,317.61L439.76,316.86L440.17,316.03L440.98,316.25L441.96,315.52L442.15,314.68L443.04,314.84L443.8,314.48L444.21,314.64L444.45,313.73L445.01,314.25L445.88,313.73L445.88,313.17L445.35,312.67L445.9,312.27L445.62,309.61L446.2,308.51L446.58,308.55L447.16,309.53L449.19,309.81L449.65,308.83L448.86,307.24L449.55,307.33Z" class="land" id="FI-07" title="Central Ostrobothnia"/>
    <path d="M498.92,366.61L498.85,367.51L498.45,368.31L499.93,369.99L498.24,370.45L498.45,371.62L497.3,372.07L497.66,372.48L497.55,373.03L497.96,374.75L497.38,374.73L496.25,373.07L495.48,374.32L494.73,374.97L492.6,375.31L491.11,378.09L494.19,383.08L493.03,383.75L492.89,384.42L493.18,386.08L493.78,387.16L493.62,388.51L494.39,389.14L495.74,391.46L496.1,392.63L495.82,394.84L494.71,394.4L493.56,393.77L493.2,395.02L492.6,395.44L492.37,394.84L492.58,394.41L491.2,394.35L490.63,394.06L490.27,395.09L489.84,395.01L488.8,393.41L488.85,392.03L488.61,391.44L487.78,391.63L487.44,391.32L487.28,390.35L486.39,389.62L486.06,390.14L485.31,390.27L484.9,389.95L483.87,392.86L483.54,392.2L482.21,391.79L481.28,393.02L480.61,393.25L479.53,393.15L479.63,394.67L478.51,399.51L475.93,399.75L475.59,399.98L474.49,399.8L473.84,400.43L473.44,400.01L471.07,400.76L470.39,399.74L470.31,398.91L470.64,397.79L469.56,397.57L470.17,396.88L470.19,396.12L469.75,395.82L469.1,396.15L468.61,396.03L468.06,395.01L468.51,393.71L468.82,394.05L469.17,394.16L469.32,392.76L467.95,392.54L467.64,391.7L467.64,390.4L468.33,390.09L468.71,389.64L466.57,387.42L464.75,385.06L464.67,384.3L464.98,383.31L466.12,382.85L466.65,382.47L467.23,381.39L466.79,380.61L466.2,380.4L466.3,378.24L465.14,377.41L464.46,375.82L463.53,375.45L462.14,376.58L460.92,376.45L460.22,375.46L459.78,373.29L459.56,373.53L457.98,373.53L456.82,372.74L456.73,372.04L456.28,371.97L455.89,371.36L455.72,369.72L456.09,369.16L457.11,368.16L457.07,367.94L458.72,365.62L460.65,366.79L461.02,366.24L460.69,365.63L461.5,364.94L461.96,364.96L462.33,365.92L462.83,365.23L463.54,365.08L463.57,364.33L464.14,363.7L463.96,362.93L464.12,362.24L464.6,362.12L464.42,361.21L463.61,360.73L463.73,360.26L464.88,359.18L463.88,358.47L463.34,356.63L462.42,354.65L461.86,353.85L461.37,352.34L462.71,352.03L462.69,351.09L461.86,350.44L461.04,350.37L461.1,348.76L460.48,348.29L460.19,347.53L460.43,346.82L459.93,346.32L459.98,345.22L460.61,345.11L461.19,343.29L461.3,343.36L464.04,341.91L467.94,342.74L467.28,342.26L467.51,340.48L467.77,339.73L467.64,338.02L468.43,337.65L467.95,334.7L470.07,332.08L472.11,331.16L472.86,330.82L473.35,329.64L473.8,326.98L475.57,325.6L479.34,328.5L480.17,328.8L482.79,328.95L483.84,329.39L484.53,329.88L485.9,331.82L487.53,332.21L489.81,331.19L490.42,331.86L489.53,333.04L488.74,334.86L489.67,335.75L489.88,337.71L490.42,338.98L490.54,339.93L489.96,340.06L490.24,342.29L490.63,342.73L491.11,344.32L491.49,344.92L492.94,346.2L491.41,345.9L491.15,346.53L492.7,348.68L491.85,349.76L491.2,349.06L489.56,349.15L488.92,349.63L488.23,349.81L488.67,351.35L490.23,351.98L490.51,352.45L490.05,352.89L490.58,353.61L491.15,353.62L493.27,356.35L493.98,355.72L493.84,355.36L494.68,354.9L495.67,356.48L496.05,357.7L496.61,358.57L496.68,359.61L497.03,360.07L497.16,361.07L496.82,361.36L496.51,362.67L495.71,363.82L495.13,364.3L496.8,365.71L497.7,366.67L498.53,366.26Z" class="land" id="FI-08" title="Central Finland"/>
    <path d="M495.72,406.74L496.52,406.78L497.63,406.11L498.26,407.69L497.62,408.44L498.12,408.92L499.46,408.14L499.93,406.88L501.12,406.37L501.64,406.31L501.89,407.6L502.46,408.79L502.2,409.69L504.19,410.75L506.89,410.4L507.03,411.12L506.56,411.79L507.11,412.72L506.49,412.95L505.95,413.51L506.12,414.85L505.82,415.44L506.32,415.85L506.9,415.52L507.12,416.53L507.52,416.89L506.45,417.41L505.75,417.38L507.02,418.94L508.42,419.28L509.52,419.75L510.81,421.66L511.66,422.38L512.34,422.43L513.34,422.18L514.43,422.29L514.95,422.75L515.31,423.64L515.94,423.71L516.26,423.38L517.18,423.51L517.35,424.43L518.01,425.74L518.83,426.12L518.84,426.74L519.46,426.67L517.54,428.77L516.99,429.61L517.07,430.2L516.13,430.69L515.84,429.79L515.35,429.89L515.04,430.84L515.45,431.2L515.5,432.05L514.53,432.67L513.64,432.44L512.84,432.99L512.62,432.57L511.74,432.08L510.95,432.26L510.8,433.02L510.19,432.73L509.54,432.01L508.97,431.99L506.88,431.12L506.26,431.55L505.69,431.45L505.31,430.87L503.95,431.43L502.65,433.94L501.92,433.08L501.74,433.37L502.45,434.42L501.83,434.66L501.07,433.92L501.56,433.27L500.79,433.27L500.34,433.63L499.32,432.64L499.54,433.79L498.96,434.37L498.02,434.42L497.8,433.63L496.91,433.44L495.93,433.84L495.35,433.31L494.88,432.5L495.1,431.72L495.75,431.3L495.41,430.74L496.26,430.37L496.35,429.72L497.06,428.65L497.56,428.46L498.31,428.58L498.72,429.26L499.64,429.69L498.51,427.29L497.92,427.2L497.17,427.5L497.11,427.96L496.22,429.05L495.32,428.97L495.29,428.44L494.83,427.54L494.45,427.26L493.14,426.9L492.77,425.77L492.85,425.18L492.37,424.63L492.39,424.04L491.66,423.64L490.92,423.74L490.77,422.24L489.54,421.29L488.8,421.16L489.04,420.35L489.5,420.04L489.54,419.15L490.27,418.1L488.51,417.82L488.22,416.66L488.73,416.69L489.39,416.24L489.66,414.84L489.19,414.15L489.26,413.2L488.28,412.57L489.2,411.11L489.76,410.62L490.23,411.17L491.31,411.42L491.82,410.82L491.82,410.36L492.99,410.09L493.69,409.53L493.92,408.63L494.4,407.95L494.69,407.1Z" class="land" id="FI-09" title="Kymenlaakso"/>
    <path d="M465.05,247.31L465.11,248.34L464.84,249.12L463.71,249.06L463.7,248.4L464.61,248.17ZM544.8,218.5L539.79,218.53L539.74,219.48L530.77,216.36L530.29,219.27L529.53,219.29L528.42,220.53L528.26,222.56L529.1,225.08L531.59,225.58L531.78,226.26L531.41,227.55L531.94,228.4L531.11,229.34L531.06,230.33L530.63,230.67L529.33,230.66L529.71,232.87L531.53,233.69L531.57,235.6L530.43,235.67L530.07,236.19L529.21,236.16L529.18,235.7L527.38,235.56L527.34,236.08L526.25,236.2L525.59,237.22L526.55,237.78L526.98,238.89L527.74,239.94L527.84,241.7L527.06,241.75L523.21,243.46L521.95,242.93L515.84,242.48L515.89,241.91L514.72,239.59L514.08,237.26L513.18,237.48L512.64,238.5L512.25,238.63L510.73,237.19L505.36,245.43L504.75,246.27L504.15,245.94L501.06,247.35L498.11,247.06L493.71,246.91L490.14,246.48L490.12,242.69L484.25,245.85L478.31,245.78L477.31,246.35L476.48,247.98L474.6,249.18L473.62,251.04L472.9,251.77L472.44,250.51L470.68,250.07L469.93,249.56L469.44,248.61L468.93,249L467.31,249.02L467.1,249.8L466.61,250.13L466.06,249.8L466.34,249.03L465.24,247.69L464.39,245.81L462.8,245.42L463.55,244.51L462.24,244.68L461.05,243.92L460.1,243.68L459.29,242.94L459.09,243.71L459.24,244.56L457.97,245.4L457.77,244.37L458.14,244.03L457.75,241.87L457.86,240.99L457.3,239.68L457.33,238.55L456.85,238.37L456.12,237.15L456.21,235.74L455.48,234.53L454.82,232.99L454.48,232.7L454.5,230.91L454.15,230.29L454.29,229.55L453.73,229.12L452.79,229L452.06,228.32L451.11,228.01L450.69,227L450.63,226.03L450.19,225.47L449.87,223.7L450.03,221.71L450.43,220.71L449.7,218.64L449.86,217.58L450.94,216.74L451.25,215.6L452.15,215.08L452.01,214.32L453.14,213.48L453.43,212.75L453.6,211.17L453.29,209.57L453.63,208.83L453.96,206.92L453.47,205.57L454.85,204.37L455.37,202.79L454.44,200.3L453.29,198.85L453.22,197.38L452.71,197.12L452.51,196.34L451.66,195.43L450.2,192.84L449.92,191.29L448.27,188.52L448.84,187.7L448.96,186.93L448.19,186.23L448.46,184.72L450.33,183.86L450.95,183.83L451.54,182L450.97,179.34L451.46,178.69L451.66,177.76L450.8,177.08L450.2,177.19L448.24,176.45L447.31,177.03L446,176.17L445.74,175.43L445.93,174.76L447.2,173.18L446.76,172.21L447.53,172.16L448.09,171.5L448.07,170.4L448.37,169.77L447.37,168.04L447.42,167.19L447.05,164.73L447.3,164.13L447.35,162.56L447.02,161.43L447.08,160.38L447.73,158.58L448.29,158.03L449.75,157.21L450.08,156.16L449.87,155.32L448.65,154.84L447.96,153.39L446.97,152.82L446.88,152.34L445.88,151.83L445.39,151.02L444.84,149.39L444.32,147.25L443.9,146.95L442.06,147.94L441.66,146.99L441.73,143.07L440.65,142.16L440.53,140.72L439.2,139.86L438.94,139.33L438.09,139.28L437.69,138.59L436.87,138L436.92,137.11L436.21,136.67L435.12,137.02L434.33,135.96L433.27,135.21L432.6,135.43L432.25,134.9L430.88,134.57L430.33,133.58L429.87,133.51L428.86,134.3L429.01,132.88L428.15,132.74L426.64,132.88L425.82,133.31L423.69,132.24L423.28,130.55L422.9,129.78L421.61,128.32L420.88,128.06L419.87,128.29L418.58,127.74L418.73,126.5L417.29,124.84L416.42,124.33L415.42,124.29L414.12,123.41L413.97,121.11L413.63,120.4L412.18,120.52L411.18,118.27L410.37,117.75L409.36,116.4L407.24,114.52L405.82,114.34L404.9,112.79L405.64,112.57L405.99,111.75L405.44,110.54L404.77,110.14L404.42,109.19L403.73,108.45L402.65,107.97L401.54,107.93L400.17,107.27L402.94,104.51L408.4,108.26L409.21,105.24L408.39,104.41L408.21,103.57L407.3,101.23L407.58,99.82L409,98.16L411.94,95.83L417.45,97.42L419.18,100.43L423.31,106.79L426.3,111.79L426.61,113.51L428.97,117.6L429.55,122.44L432.08,121.3L433.1,122.04L436.3,123.79L440.25,123.72L442.21,126.4L446.58,123.6L450.31,123.02L451.22,121.04L451.94,117.93L453.51,117.18L455.31,117.61L456.76,119.7L458.09,119.24L458.01,120.9L458.89,121.25L459.66,122.11L460.42,122.5L465.26,124.04L468.05,126.02L469.3,129.31L469.98,129.61L470.24,127.19L471.9,126.57L472.81,126.61L473.37,125.89L473.24,124.06L473.51,120.95L474.06,118.83L475.23,117.68L475.44,116.98L476.29,116.11L479.27,114.15L480.23,114.97L480.98,115.14L482.05,114.07L482.97,111.43L483.18,110.33L483.94,109.34L483.53,108.16L483.59,107.31L483.13,106.33L483.09,104.73L483.42,103.72L482.67,101.08L482.92,100.37L482.78,98.47L483.23,98.09L483.53,97.01L483.44,95.61L484.96,92.16L484.32,90.87L484.94,88.9L485.42,88.46L485.21,87.58L485.65,86.08L485.06,85.11L486.58,83.99L487.23,82.28L486.89,80.56L485.9,79.83L487.65,77.27L489.55,76.59L490.67,74.63L491.6,73.6L491.56,72.72L492.92,71.81L493.72,71.01L494.26,69.71L494.16,68.75L494.89,67.93L495.04,67.05L498.36,65.86L499.35,66.67L500.17,66.08L501.19,66.03L501.73,67.37L502.98,66.99L504.29,68.34L505.25,68.02L506.05,67.32L508.4,66.27L508.04,65.33L508.64,64.62L509.3,64.57L510.56,63.21L512.06,63.06L512.53,61.38L513.46,60.64L514.59,60.57L515.6,61.13L516.41,60.55L518.98,59.84L519.43,63.54L522.26,67.88L525.21,69.72L524.95,71.18L526.18,72.69L534.29,76.72L537.84,78.35L538.4,80.86L541.09,88.3L539.17,92.03L533,99.82L532.98,102.15L532.57,104.91L533.43,106.54L534.6,107.61L527.73,112.97L526.36,113.71L527.21,115.03L530.35,115L532.52,115.75L530.93,121.86L526.58,130.26L530.1,145.27L540.91,150.45L542.97,155.15L543.36,155.77L544.74,158.85L545.25,159.48L546.68,162.44L550.87,166.29L552.06,167.22L550.55,173.84L549.06,175.73L547.02,179.43L546.18,180.21L545.54,181.3L545.93,181.64L544.91,182.46L544.04,182.73L543.91,183.96L536.81,195.72L536.3,197.17L536.2,198.58L536.62,201.45L537.54,203.5L537.37,204.05L538.09,204.53L541.42,210.24L541.78,211.87L543.21,214.08Z" class="land" id="FI-10" title="Lapland"/>
    <path d="M455.72,369.72L455.89,371.36L456.28,371.97L456.73,372.04L456.82,372.74L457.98,373.53L459.56,373.53L459.78,373.29L460.22,375.46L460.92,376.45L462.14,376.58L463.53,375.45L464.46,375.82L465.14,377.41L466.3,378.24L466.2,380.4L466.79,380.61L467.23,381.39L466.65,382.47L466.12,382.85L464.98,383.31L464.67,384.3L464.75,385.06L466.57,387.42L468.71,389.64L468.33,390.09L467.64,390.4L467.64,391.7L467.95,392.54L469.32,392.76L469.17,394.16L468.82,394.05L468.51,393.71L468.06,395.01L468.61,396.03L469.1,396.15L469.75,395.82L470.19,396.12L470.17,396.88L469.56,397.57L470.64,397.79L470.31,398.91L470.39,399.74L471.07,400.76L469.15,399.88L469.46,401.21L470.08,401.95L469.73,404L470.11,405L469.58,405.91L469.71,406.25L467.82,406.85L467.24,405.23L466.99,406.49L466.11,406.56L465.08,406.12L464.7,405.68L463.43,406.39L462.26,407.37L460.46,408.03L460.05,407.81L459.68,408.43L460.37,409.41L459.26,410.8L457.76,411.03L457.26,411.56L455.85,411.85L453.77,413.03L453.03,413.32L452.36,413.17L451.62,413.88L452.32,414.13L452.19,414.95L453.34,414.57L453.55,415.05L452.84,415.69L453.33,417.29L452.94,417.77L452.21,416.17L450.92,415.46L450.5,415.64L449.4,415.69L448.86,416.3L448.21,415.81L446.75,416.39L446.04,416.81L445.28,415.33L444.84,415.45L443.66,415.13L444.1,413.89L443.55,412.95L443.82,412.17L445.61,411.48L444.34,410.22L443.67,409.74L443.87,408.49L443.19,408.88L442.18,408.74L441.18,409.24L439.18,409.41L438.45,408.97L437.19,407.96L437,408.16L435.8,407.61L433.8,407.58L433.68,406.86L433.25,405.81L432.42,404.77L432.93,404.39L432.42,402.66L433.67,402.95L434.15,401.6L435.19,401.35L434.9,400.49L435.05,399.9L433.99,399.84L433.11,397.67L433.74,397.01L433.79,396.3L434.62,395.75L434.74,394.96L435.09,394.24L434.46,393.69L433.96,393.91L433.84,392.5L434.55,392.28L434.36,391.54L436.35,390.01L436.74,388.45L435.77,387.14L436.02,386.24L435.25,385.95L435.32,385.24L434.49,384.88L433.85,383.85L433.98,383.37L433.05,383.33L432.04,382.31L433.13,380.93L434.42,380.36L435,380.4L435.96,380.12L435.8,376.86L437.23,376.31L437.11,375.37L436.61,373.98L436.78,372.89L437.85,372.93L442.83,370.79L443.29,369.89L443.89,368.17L444.85,367.6L445.7,368.81L446.62,369.29L447.09,369.06L447.78,369.57L447.55,367.99L450.12,368.15L451.53,366.64L453.37,366.38L453.39,365.52L453.87,365.56L454.07,366.5L453.92,367.29L454.27,368.78L455.38,369.23Z" class="land" id="FI-11" title="Pirkanmaa"/>
    <path d="M411.08,368.67L411.44,369.07L411.27,370.65L410.81,370.41L410.88,369.1ZM408.57,362.19L408.94,362.57L408.7,363.63L408.24,363.12ZM408.31,356.5L408.88,357.09L408.25,357.45ZM410.28,352.07L410.93,352.45L410.97,353.12L410.25,353.4L408.93,353.4L409.65,352.39ZM410.27,349.99L411.18,351.19L410.81,351.36L410.17,350.63ZM413.78,348.9L413.97,349.27L413.31,349.95L413.01,349.56ZM409.8,347.04L410.62,347.84L410.6,349.01L409.99,348.67L409.35,347.49ZM413.39,345.85L414.27,346.45L414.27,347.07L413.08,346.41ZM414.46,344.51L414.44,345.43L414.73,345.97L414.25,346.39L413.78,345.48ZM419.13,336.35L419.94,337.05L419.92,337.68L419.33,337.72L418.93,337.12ZM411.16,336.08L411.4,337.23L411.03,337.73L410.89,338.56L411.15,339.04L412.56,338.45L413.48,337.61L414.19,337.78L414.72,338.78L414.17,340.28L413.38,340.78L413.18,339.9L412.27,341.95L411.12,341.44L411.17,340.92L410.08,340.91L409.64,339.93L409.8,339.32L408.8,337.47L409.15,337.03L409.87,337.37L410.25,336.75ZM418.53,335.78L418.53,336.84L418.15,337.34L418.19,338.26L417.62,338.11L417.54,336.74L417.98,336ZM426.97,335.34L427.28,336.74L427.01,337.62L426.13,337.51L426.02,338.39L425.24,338.31L424.18,337.27L423.01,337.5L423.04,336.8L424.07,335.8L424.66,337.16L424.99,336.9L424.46,336.06L425.18,335.53L425.84,336.21L426.81,336.14ZM412.92,334.27L413.75,334.27L414.13,335.03L413.63,335.74L413.6,336.39L412.91,336.85L412.47,336.17L411.89,336.46L411.71,335.55L411.33,335.14L412.33,334.37ZM423.8,333.52L424.96,333.67L424.99,334.46L423.82,335.09L422.56,335.27L423.3,333.69ZM411.43,333.32L411.39,334.32L410.91,334.6L410.38,334.27L410.63,333.61ZM439.76,319.17L440.65,319.75L442.88,321.67L443.44,321.72L443.75,320.94L444.72,320.2L445.75,320.31L446.8,320.94L446.81,320.14L447.13,319.59L448.78,321L449.08,321.42L451.34,323.29L450.78,324.01L449.9,323.52L449.29,324.23L448.27,324.84L447.58,324.35L446.26,325.42L447.35,326.54L448.36,325.84L448.77,326.57L448.41,327.2L448.78,327.73L449.88,328.52L450.06,331.99L450.84,333.86L450.66,333.97L449.55,333.27L447.8,330.95L447.01,330.42L446.2,330.27L445.77,329.71L443.71,330.73L442.81,333.28L441.32,334.92L440.84,334.44L440.08,334.62L439.91,333.99L439.07,334.29L439.2,335.65L437.86,334.92L436.76,335.17L436.4,334.81L435.33,334.72L435.6,335.34L435,335.5L433.89,336.21L434.29,336.92L432.47,338.03L432.39,338.47L433.29,339.04L433.59,340L433,340.34L433.41,341.09L434.27,340.67L434.34,343.05L433.81,343.05L433.68,344.06L432,345.15L431.81,345.73L430.92,347.31L430.83,348.21L430.1,349.15L430.29,349.44L429.65,350.56L429.96,352.18L429.41,352.49L428.32,354.65L427.85,354.81L426.65,356.21L425.44,355.67L424.44,355.77L422.05,354.68L420.93,353.87L420.76,352.92L419.81,352.3L419.69,352.88L419.13,353.79L419.14,356.04L419.42,357.24L420.13,358.21L418.37,359.89L417.81,360.68L416.9,361.31L416.99,362.92L417.21,363.54L416.15,366.77L416.24,368.57L415.81,369.15L416.37,369.88L417.79,369.58L418.41,370.02L418.13,372.7L418.18,373.25L419.08,373.45L419.7,374.68L418.77,374.87L418.09,375.75L418.7,376.43L418.55,377.23L417.72,377.05L417.73,378.25L417.47,378.76L417.86,380.11L417.51,380.78L417.82,381.47L415.8,381.28L414.27,381.84L413.53,382.96L412.72,383.61L412.68,382.04L412.02,382.6L412.23,380.87L412.44,380.3L412.59,378.6L412.46,377.13L413.16,377.35L413.18,375.85L413.94,375.03L413.94,374.29L413.43,374.26L413.59,373.41L412.5,373.77L412.91,372.78L412.81,372.04L412.28,371.49L412.54,370.86L413.09,370.74L413.24,369.45L412.65,369.45L411.94,368.67L411.39,368.77L410.97,368.07L411.35,367.16L410.1,367.66L410.24,366.28L409.2,365.36L409.54,365.01L409.91,363.93L409.22,364.16L409.15,363.2L409.85,362.92L409.85,362.45L410.56,361.77L410.49,360.6L409.71,360.89L409.7,360.14L408.63,360.91L408.84,359.12L410.17,357.28L410.34,356.19L409.85,356.32L409.49,355.41L409.5,354.67L410.19,353.97L411.4,353.28L411.43,352.13L411.62,351.56L412.11,351.25L413.29,351.97L413.98,351.8L413.97,350.98L414.31,350.17L414.42,348.96L415.26,348.59L415,348.05L415.34,347.56L414.84,346.93L414.98,345.4L415.45,345.49L415.82,344.71L416.22,344.5L417.22,345.58L418.2,345.94L418.47,345.07L417.26,344.57L416.77,343.8L416.95,343.16L416.41,342.76L415.7,341.74L415.81,340.78L415.67,339.79L415.87,338.95L416.64,337.63L416.69,338.71L417.55,339.49L418.32,339.91L418.65,339.04L419.01,339.14L420.24,337.88L420.52,338.36L421.66,337.7L422.37,338.17L423.31,338.07L423.74,338.53L423.69,339.82L422.86,339.99L422.53,340.81L423.19,341.69L423.23,340.35L424.18,340.19L423.79,338.94L424.1,338.54L426.28,338.78L426.69,338.13L427.26,337.75L427.55,336.91L428.38,336.35L428.84,337.11L429.81,335.58L428.96,333.94L428.21,333.5L428.17,332.77L427.68,332.65L426.72,331.2L426.79,330.39L427.68,330.37L428.36,330.09L428.07,328.83L428.42,328.4L428.94,326.93L429.58,327L429.4,328.11L430.26,330.44L430.65,330.54L430.68,329.2L431.23,328.13L430.86,327.32L431.1,325.94L431.88,325.23L431.83,324.07L432.34,323.41L433.03,323.65L433.36,322.55L433.32,321.61L434.52,322.13L434.77,321.77L435.97,322.84L436.64,323.66L437.3,323.56L436.83,322.76L437.94,322.67L437.86,322.03L438.15,321.34L437.54,321.27L438.26,319.67L439.34,319.25ZM435.78,319.05L436.82,319.67L436.34,321.18L435.64,321.83L434.94,321.51L434.28,320.29L434.93,319.46ZM437.43,317.75L437.54,318.67L437.01,319.07L436.06,318.81L435.11,319.3L434.17,318.32L434.75,317.32L436.14,316.99L436.38,316.67Z" class="land" id="FI-12" title="Ostrobothnia"/>
    <path d="M525.36,320.45L527.17,316.78L526.92,316.3L527.85,315.91L533.81,317.55L535.96,317.27L540.15,317.02L543.91,316.33L546.55,316L547.22,320.77L548.07,322.34L549.64,320.71L551.23,320.41L552.67,322.17L552.83,322.68L555.41,325.67L555.72,326.67L557.77,328.08L559.33,330.9L564.24,333.09L565.29,334.41L566.61,334.84L566.79,335.57L567.35,336.61L567.99,336.76L569.97,338.21L570.37,338.93L571.47,339.76L571.47,340.58L571.74,341.17L571.75,342.5L572.01,343.7L572.4,344.2L573.44,344.96L573.89,345.79L574.48,346.01L575.06,346.65L574.87,347.3L575.71,347.66L577.04,350.73L574.69,355.06L573.75,358.36L573.62,359.79L573.22,360.12L571.2,365.05L570.61,365.23L570.24,366.89L569.82,367.07L566.77,370.73L566.72,371.7L566.07,371.55L564.55,373.24L563.16,375.02L562.16,375.03L561.72,375.7L561.81,376.26L561.3,377.33L558.78,380.93L557.71,382.19L557.24,382.93L556.58,383.37L556.66,384.08L556.05,384.48L553.96,387.24L553.2,387.09L544.6,391.64L544.79,391.15L545.86,390.29L546.47,389.24L546.69,388.22L546.29,387.15L546.76,386.8L545.48,385.13L545.5,384.37L546.2,382.99L544.72,381.36L543.76,380.85L542.99,379.41L542.17,375.34L542.51,374.09L541.9,373.53L540.61,370.82L540.35,368.86L539.92,368.17L539.32,367.82L538.81,368.37L537.61,368.79L537.14,368.31L536.92,367.55L537.29,365.67L536.21,364.65L536.11,363.89L535.73,363.72L534.67,362.68L534.7,362.27L533.41,361.46L532.25,360.06L530.42,359.75L530.08,359.46L530.12,359.04L530.84,358.2L529.9,356.92L529.9,355.89L530.51,355.31L531.1,355.4L531.59,354.52L531.54,354.04L532.28,353.3L533.2,354.19L534.03,354.63L534.7,355.37L535.12,354.35L537.19,352.88L535.8,351.91L535.48,351.14L534.63,350.31L535.54,350.01L535.02,349.36L535.18,348.9L536.69,347.99L536.22,347.06L534.38,346.14L533.49,345.47L532.88,344.08L530.95,341.42L530.8,340.96L529.42,340.22L530.44,338.36L530.93,337.8L530.96,336.85L531.41,336.4L531.77,333.71L530.26,332.42L530.02,330.82L529.28,328.7L530.55,327.76L529.61,327.32L529.32,326.94L529.01,323.95L529.31,323.37L528.44,322.45L527,322.51L526.42,321.53Z" class="land" id="FI-13" title="North Karelia"/>
    <path d="M464.37,272.9L465.93,271.22L466.92,271.1L467.72,271.24L468.89,270.74L469.72,271.29L469.69,272.11L470.8,272.02L471.99,272.19L472.48,272.67L471.88,273.13L470.3,273.04L469.94,272.54L468.56,272.46L468.66,273.13L469.28,273.57L469.62,274.33L469.53,275.58L468.66,276.2L467.83,276.42L467.22,275.53L466.81,275.73L465.71,275.64L465.42,274.88L464.77,274.21ZM547.73,255.3L547.03,255.45L544.47,254.98L543.68,255.61L540.77,254.38L539.09,254.48L539.16,255.44L537.56,257.16L536.34,257.61L534.95,257.22L529.99,259.44L530.12,260.11L529.69,260.8L529.08,263.47L523.86,264.42L520.16,265.24L518.79,266.55L518.66,267.49L517.92,270.86L514.29,269.71L512.73,270.75L510.85,271L508.87,270.87L507.81,273.27L509.78,275.9L510.07,277.1L509.52,278.48L510.04,279.8L509.26,281.43L505.93,280.53L502.13,283.38L501.86,284.3L501.83,285.41L501.33,286L501.01,287.04L498.56,288.01L497.19,288.92L496.8,289.78L496.1,290.3L496.34,290.91L494.95,290.68L492.26,293.87L494.4,295.73L495.27,297.26L494.99,298.5L496.41,299.76L498.44,299.94L498.56,301.43L499.84,301.87L500.02,309.44L501.47,310.22L498.39,311.73L496.94,312.51L493.52,315.59L491.09,317.66L491.43,318.6L491.73,320.73L492.28,326.39L490.72,327.21L490.61,329.66L489.81,331.19L487.53,332.21L485.9,331.82L484.53,329.88L483.84,329.39L482.79,328.95L480.17,328.8L479.34,328.5L475.57,325.6L473.8,326.98L473.35,329.64L472.86,330.82L472.11,331.16L470.23,328.82L468.63,326.51L467.57,325.59L465.45,324.25L464.51,322.79L462.35,317.42L460.09,316.56L459.51,316.04L459.02,313.98L458.36,313.73L457.13,311.34L456.9,308.95L455.6,308.17L454.66,307.96L454.12,307.29L453.14,307.1L452.16,306.24L450.69,305.29L451.16,304.63L450.72,303.98L450.71,303.37L451.6,303.45L452.51,302.88L452.9,301.68L453.27,301.11L454.24,300.92L454.28,299.3L455.39,298.47L455.55,297.1L456.01,296.33L456.55,296.46L457.13,296.13L456.98,295.63L457.98,294.67L458.45,294.71L458.79,294.01L459.51,294.39L459.29,293.32L460.01,292.93L460.13,292.18L460.87,292.04L461.58,291.18L461.63,288.9L461.86,288.5L462.03,286.95L463,286.34L463.12,285.61L464.43,284.99L464.68,284.07L464.43,283.49L464.81,282.45L464.18,281.38L466.41,280.39L467.26,279.24L468.28,279.07L468.67,278.62L470.69,278.85L470.99,277.97L472.04,277.87L473.63,277.45L473.64,278.02L474.76,278.2L475.05,279.35L475.69,279.18L476.28,280.42L477.05,280.53L477.22,279.64L477.99,278.5L477.64,277.74L476.95,277.87L475,276.15L474.68,275.15L475.31,274.28L477.03,274.95L477.21,275.4L478.2,276.28L478.96,276.35L479.38,276.03L479.34,275.3L478.21,274.66L478.2,272.77L477.82,271.69L477.69,270.6L476.98,270.32L476.33,269.64L475.36,269.13L475.19,267.86L475.97,267.69L476.08,265.29L476.52,264.84L476.62,263.23L475.61,262.1L475.5,261.55L475.96,260.95L476.9,260.55L475.68,259.04L476.09,258.7L476.77,258.82L477.39,258.12L477.02,256.6L476.14,255.39L475.27,253.82L474.57,252.85L473.94,252.46L473.51,252.85L472.9,251.77L473.62,251.04L474.6,249.18L476.48,247.98L477.31,246.35L478.31,245.78L484.25,245.85L490.12,242.69L490.14,246.48L493.71,246.91L498.11,247.06L501.06,247.35L504.15,245.94L504.75,246.27L505.36,245.43L510.73,237.19L512.25,238.63L512.64,238.5L513.18,237.48L514.08,237.26L514.72,239.59L515.89,241.91L515.84,242.48L521.95,242.93L523.21,243.46L527.06,241.75L527.84,241.7L527.74,239.94L526.98,238.89L526.55,237.78L525.59,237.22L526.25,236.2L527.34,236.08L527.38,235.56L529.18,235.7L529.21,236.16L530.07,236.19L530.43,235.67L531.57,235.6L531.53,233.69L529.71,232.87L529.33,230.66L530.63,230.67L531.06,230.33L531.11,229.34L531.94,228.4L531.41,227.55L531.78,226.26L531.59,225.58L529.1,225.08L528.26,222.56L528.42,220.53L529.53,219.29L530.29,219.27L530.77,216.36L539.74,219.48L539.79,218.53L544.8,218.5L545.81,221.34L546.79,224.69L550.47,230.71L551.21,234.12L551.51,234.83L551.6,236.51L552.03,236.99L552.73,239.68L553.83,247.59L553.88,248.63L552.35,247.95L551.9,247.58L547.21,249.87L547.72,250.95L549.47,252.85Z" class="land" id="FI-14" title="Northern Ostrobothnia"/>
    <path d="M525.36,320.45L526.42,321.53L527,322.51L528.44,322.45L529.31,323.37L529.01,323.95L529.32,326.94L529.61,327.32L530.55,327.76L529.28,328.7L530.02,330.82L530.26,332.42L531.77,333.71L531.41,336.4L530.96,336.85L530.93,337.8L530.44,338.36L529.42,340.22L530.8,340.96L530.95,341.42L532.88,344.08L533.49,345.47L534.38,346.14L536.22,347.06L536.69,347.99L535.18,348.9L535.02,349.36L535.54,350.01L534.63,350.31L535.48,351.14L535.8,351.91L537.19,352.88L535.12,354.35L534.7,355.37L534.03,354.63L533.2,354.19L532.28,353.3L531.54,354.04L531.59,354.52L531.1,355.4L530.51,355.31L529.9,355.89L529.9,356.92L530.84,358.2L530.12,359.04L530.08,359.46L529.62,361.26L528.3,362.56L527.93,363.25L527.19,362.63L526.2,362.6L525.97,363.02L526.01,363.84L525.78,364.64L525.72,366.27L525.32,366.3L524.24,365.79L524.37,366.55L523.52,367.58L524.12,367.94L524.15,368.65L524.75,368.99L524.76,369.83L525.65,369.96L525.88,370.72L525.8,371.71L526.11,371.86L527.56,371.03L529.99,374.07L529.99,374.84L529.23,375.91L528.24,375.91L526.11,374.91L525.19,374.76L524.13,374.15L522.76,374.46L520.93,374.46L519.1,373.19L518.29,372.5L517.32,372.38L516.9,372.6L516.17,371.47L515.41,371.05L515.34,370.46L515.75,369.58L514.67,369.32L513.68,367.78L512.71,366.73L511.05,365.97L510.78,365.55L509.79,364.79L508.44,365.47L508.16,366.28L507.61,365.69L507.1,366.24L506.64,366.02L505.48,365.03L504.86,365.4L504.55,365.98L503.51,366.03L503.11,365.36L502.55,366.46L501.76,365.81L501.3,365.74L500.65,366.52L500.9,366.98L499.79,367.61L498.92,366.61L498.53,366.26L497.7,366.67L496.8,365.71L495.13,364.3L495.71,363.82L496.51,362.67L496.82,361.36L497.16,361.07L497.03,360.07L496.68,359.61L496.61,358.57L496.05,357.7L495.67,356.48L494.68,354.9L493.84,355.36L493.98,355.72L493.27,356.35L491.15,353.62L490.58,353.61L490.05,352.89L490.51,352.45L490.23,351.98L488.67,351.35L488.23,349.81L488.92,349.63L489.56,349.15L491.2,349.06L491.85,349.76L492.7,348.68L491.15,346.53L491.41,345.9L492.94,346.2L491.49,344.92L491.11,344.32L490.63,342.73L490.24,342.29L489.96,340.06L490.54,339.93L490.42,338.98L489.88,337.71L489.67,335.75L488.74,334.86L489.53,333.04L490.42,331.86L489.81,331.19L490.61,329.66L490.72,327.21L492.28,326.39L491.73,320.73L491.43,318.6L491.09,317.66L493.52,315.59L496.94,312.51L498.39,311.73L501.47,310.22L503.85,311.58L505.39,311.75L505.71,311.63L507.69,311.9L510.25,312.78L510.76,313.56L512.23,313.12L513.98,314.5L514.24,314.36L515.52,314.91L516.17,315.63L517.88,317.05L518.23,317L520.57,319.5L521.9,321.53L522.97,322.21L523.98,323.56Z" class="land" id="FI-15" title="Northern Savonia"/>
    <path d="M471.07,400.76L473.44,400.01L473.84,400.43L474.49,399.8L475.59,399.98L475.93,399.75L478.51,399.51L479.63,394.67L479.53,393.15L480.61,393.25L481.28,393.02L482.21,391.79L483.54,392.2L483.87,392.86L484.9,389.95L485.31,390.27L486.06,390.14L486.39,389.62L487.28,390.35L487.44,391.32L487.78,391.63L488.61,391.44L488.85,392.03L488.8,393.41L489.84,395.01L490.27,395.09L490.63,394.06L491.2,394.35L492.58,394.41L492.37,394.84L492.6,395.44L492.66,396.62L492.12,396.81L492.35,397.61L492.24,398.26L491.78,398.9L492.24,400.19L491.43,400.87L491.79,401.56L492.66,402.49L492.1,403.34L493.72,404.95L495.24,405.06L495.72,406.74L494.69,407.1L494.4,407.95L493.92,408.63L493.69,409.53L492.99,410.09L491.82,410.36L491.82,410.82L491.31,411.42L490.23,411.17L489.76,410.62L489.2,411.11L488.28,412.57L489.26,413.2L489.19,414.15L489.66,414.84L489.39,416.24L488.73,416.69L488.22,416.66L488.51,417.82L490.27,418.1L489.54,419.15L489.5,420.04L489.04,420.35L488.8,421.16L489.54,421.29L490.77,422.24L490.92,423.74L491.15,424.65L491,425.08L489.85,425.92L489.32,426.07L488.02,425.09L486.51,425.43L486.2,424.44L485.3,424.58L484.9,425.12L483.5,425.34L483.1,425.01L482.41,425.89L481.32,426.54L479.87,425.47L479.8,424.17L479.14,422.56L478.52,422.48L477.64,423.88L476.68,423.65L474.52,421.74L473.28,421.85L472.79,421.02L473.28,420.22L473.04,418.46L471.67,418.12L471.93,417.04L472.49,416.17L471.96,414.74L472.46,414.1L473.96,413.65L474.71,413.22L475,412.28L475.68,411.5L475.34,411.07L475.86,410.56L475.71,409.57L474.44,407.78L473.24,407.3L472,407.57L471.73,406.15L471.06,406.66L470.31,406.39L470.11,405L469.73,404L470.08,401.95L469.46,401.21L469.15,399.88Z" class="land" id="FI-16" title="Päijänne Tavastia"/>
    <path d="M413.26,408.59L413.53,409.12L413.3,410.04L412.88,409.87L413.28,409.07ZM414.77,407.54L415.31,407.5L415.84,407.94L415.4,408.49L414.79,407.89ZM415.15,394.28L415.59,394.3L415.79,394.89L414.9,394.93ZM436.78,372.89L436.61,373.98L437.11,375.37L437.23,376.31L435.8,376.86L435.96,380.12L435,380.4L434.42,380.36L433.13,380.93L432.04,382.31L433.05,383.33L433.98,383.37L433.85,383.85L434.49,384.88L435.32,385.24L435.25,385.95L436.02,386.24L435.77,387.14L436.74,388.45L436.35,390.01L434.36,391.54L434.55,392.28L433.84,392.5L433.96,393.91L434.46,393.69L435.09,394.24L434.74,394.96L434.62,395.75L433.79,396.3L433.74,397.01L433.11,397.67L433.99,399.84L435.05,399.9L434.9,400.49L435.19,401.35L434.15,401.6L433.67,402.95L432.42,402.66L432.93,404.39L432.42,404.77L433.25,405.81L433.68,406.86L433.8,407.58L435.8,407.61L437,408.16L437.19,407.96L438.45,408.97L439.18,409.41L441.18,409.24L442.18,408.74L443.19,408.88L443.87,408.49L443.67,409.74L444.34,410.22L445.61,411.48L443.82,412.17L443.55,412.95L444.1,413.89L443.66,415.13L443.75,415.56L442.68,415.73L442.16,415.6L441.88,414.77L440.38,414.73L439.74,415.03L439.01,414.36L438.46,414.34L437.6,413.83L437.37,412.99L436.66,412.43L436.54,413.15L436.88,413.51L436.4,414.4L436.7,415.24L436.49,415.95L435.98,415.95L434.87,416.38L434.65,416.21L432.75,416.09L431.86,416.56L432.81,417.77L431.77,417.4L430.08,417.87L429.24,417.98L428.49,418.54L427.65,418.16L426.45,418.99L425.96,419.9L425.48,418.92L423.21,419.03L423.38,418.67L422.59,417.57L422.64,416.48L421.55,416.29L420.9,415.46L419.83,414.64L419.68,415.33L418.89,415.84L418.07,415.93L417.35,414.12L417.16,414.66L416.47,415.49L415.28,415.71L414.42,415L414.13,414.18L413.99,413L414.6,412.58L414.44,411.59L414.86,411.11L414.31,410.29L414.65,409.54L415.51,409.1L415.8,408.12L416.69,407.93L415.3,407L415.3,405.63L416.36,404.62L416.03,402.37L414.6,401.42L414.75,401.02L416.45,401.62L417.03,400.91L415.92,399.61L415.34,398.71L416.66,399.28L417.59,398.86L416.82,398.08L416.08,398.23L415.71,396.78L415.02,395.81L415.87,395.65L416.42,396.32L417.89,397.26L418.05,396.62L417.19,395.33L416.8,394.25L416.28,393.64L415.84,392.51L416.28,391.18L416.24,390.51L414.54,389.34L414.7,388.59L415.34,388.82L415.65,388.28L414.87,387.42L414.82,385.9L414.25,385.12L414.44,384.6L413.82,384.18L413,384.14L412.72,383.61L413.53,382.96L414.27,381.84L415.8,381.28L417.82,381.47L418.79,381.44L423.06,382.83L425.22,381.07L426.63,378.69L428.68,378.58L430.61,375.37L431.54,374.88L431.84,374.95L432.93,371.54L435.46,372.82Z" class="land" id="FI-17" title="Satakunta"/>
    <path d="M485.14,439.38L484.82,439.93L484.22,439.88L484.11,440.68L483.63,440.44L482.85,439.36L482.15,439.27L481.81,437.91L482.38,437.56L482.86,437.59L483.02,437.95L483.35,438.19L483.69,438.26L484.12,439.25ZM490.92,423.74L491.66,423.64L492.39,424.04L492.37,424.63L492.85,425.18L492.77,425.77L493.14,426.9L494.45,427.26L494.83,427.54L495.29,428.44L495.32,428.97L496.22,429.05L497.11,427.96L497.17,427.5L497.92,427.2L498.51,427.29L499.64,429.69L498.72,429.26L498.31,428.58L497.56,428.46L497.06,428.65L496.35,429.72L496.26,430.37L495.41,430.74L495.75,431.3L495.1,431.72L494.88,432.5L494.63,433.28L494.89,433.7L494.83,434.9L494.29,434.9L493.54,435.52L492.88,435.52L492.22,435.25L492.15,434.49L491.32,433.66L491.58,435.16L490.74,435.68L490.86,436.63L490.25,436.39L490.17,435.85L489.05,434.99L488.69,434.31L488.09,434.13L487.04,433.05L487,434.01L488.24,435L487.82,435.86L488.25,436.07L489.34,437.83L488.36,438.57L487.94,437.98L487.76,437.24L486.64,436.81L486.53,436.44L486.03,436.48L486.23,437.25L485.38,437.84L485.99,439.54L486.41,440.16L485.74,440.48L485.26,439.5L485.27,439L484.57,439.17L483.66,437.99L483.34,438.16L482.87,437.58L482.57,437.38L482.05,437.58L481.82,436.95L482.19,436.71L482.89,437.28L482.84,436.39L482.17,436.19L480.84,438.12L480.66,437.55L480.05,437.58L480.41,438.35L480.11,439.23L479.29,440.3L477.04,440.04L476.05,440.1L474.51,440.69L474.52,441.82L472.62,441.94L471.68,442.54L470.85,442.6L470.93,443.34L470.31,443.56L469.94,443.06L470.08,442.48L469.52,442.28L468.97,441.76L468.89,442.9L468.42,443.19L466.5,443.87L466.01,443.79L465.31,444.49L465.94,444.92L465.8,445.32L464.37,446.92L464.32,447.39L463.67,447.68L463.36,448.49L462.59,448.84L462.34,448.07L462.65,447.36L462.19,447.21L461.66,447.79L461.31,447.14L461.54,445.68L461.13,445.39L460.28,446.12L459.76,446.87L459.46,446.95L458.27,446.47L458.75,447.45L458.17,447.52L457.43,447.02L456.82,447.54L455.51,447.34L454.24,448.38L453.6,448.45L453.21,448.16L452.7,449.13L452.31,449.36L451.69,448.87L450.54,450.26L448.88,450.4L448.16,450.3L446.09,450.98L445.75,450.68L445.76,450.11L448.04,448.87L447.17,448.9L447.04,449.26L445.69,449.61L445.49,450.28L444.55,450.81L444.35,451.15L443.1,451.79L443.22,452.92L442.98,453.37L442.35,453.76L440.77,453.91L440.4,453.77L438.72,454.16L438.26,453.79L438.4,453.29L439.23,453.22L439.93,452.59L440.6,452.44L441.15,451.9L442.24,451.74L441.83,450.78L441.97,450.34L442.47,450.15L442.89,449.6L442.6,449.05L441.06,450L441.21,448.85L440.77,449.02L440.42,449.95L440.61,450.8L440.27,450.99L439.3,450.32L439.09,450.96L438.58,451.25L437.71,451L437.39,450.57L437.4,449.84L437.14,449.4L438.11,448.56L438.71,448.57L439.07,449.21L439.62,448.96L439.92,448.24L439.26,447.26L439.89,446.74L441.22,447.13L442.02,446.65L441.57,446.17L440.75,446.91L439.32,446.05L439.9,445.08L440.37,445.52L441.86,445.08L442.93,444.02L443.96,443.38L444.03,442.66L444.57,442.79L445.32,443.5L445.59,442.97L446.97,442.81L448.35,441.83L449.31,442.17L449.89,441.83L449.63,440.82L448.86,440.03L449.52,439.95L449.8,439.2L451.14,438.42L451.23,436.83L451.86,435.86L452.19,434.46L452.04,433.79L450.62,433.79L451.28,432.48L452.57,432.34L453.35,432L453.32,430.88L453.02,430.32L453.69,430.25L453.69,429.77L454.18,428.67L453.38,428.28L453.89,427.27L454.21,427.14L455.03,427.65L456.18,427.45L456.88,427.98L457.66,428.14L458.34,427.99L459.3,428.32L459.28,428.91L460.09,430L460.23,429.4L461.1,428.51L462.07,429.14L461.9,429.6L462.31,430.44L464.28,430.21L464.73,429.36L464.52,428.85L464.58,427.7L465.34,426.7L466.57,427.28L467.34,427.34L467.77,426.97L468.24,427.1L469.81,426.97L470.49,426.49L472.09,426.12L472.52,426.65L473.31,426.88L472.9,425.67L473.86,425.1L473.87,424.58L473.44,424.09L472.48,424.77L472.99,423.56L473.99,423.35L474.01,423.03L473.21,422.05L473.28,421.85L474.52,421.74L476.68,423.65L477.64,423.88L478.52,422.48L479.14,422.56L479.8,424.17L479.87,425.47L481.32,426.54L482.41,425.89L483.1,425.01L483.5,425.34L484.9,425.12L485.3,424.58L486.2,424.44L486.51,425.43L488.02,425.09L489.32,426.07L489.85,425.92L491,425.08L491.15,424.65ZM487.76,438.91L487.73,437.96L486.54,436.84L486.52,437.34L486.86,438.51L486.48,439.24L486.86,439.51L487.71,439.41ZM482.31,439.96L481.43,439.22L481.45,438.53L480.75,438.54L480.68,439.84L481.03,441.05L481.55,441.83L482.12,440.99Z" class="land" id="FI-18" title="Uusimaa"/>
    <path d="M414.13,414.18L414.42,415L415.28,415.71L416.47,415.49L417.12,415.49L417.16,414.66L417.35,414.12L418.07,415.93L418.89,415.84L419.68,415.33L419.83,414.64L420.9,415.46L421.55,416.29L422.64,416.48L422.59,417.57L423.38,418.67L423.21,419.03L425.48,418.92L425.96,419.9L426.45,418.99L427.65,418.16L428.49,418.54L429.24,417.98L430.08,417.87L431.77,417.4L432.81,417.77L431.86,416.56L432.75,416.09L434.65,416.21L434.87,416.38L435.98,415.95L436.49,415.95L436.7,415.24L436.4,414.4L436.88,413.51L436.54,413.15L436.66,412.43L437.37,412.99L437.6,413.83L438.46,414.34L439.01,414.36L439.74,415.03L440.38,414.73L441.88,414.77L442.16,415.6L442.68,415.73L443.54,416.96L444.2,417.27L444.1,418.51L443.63,418.6L443.74,419.42L442.01,419.31L441.7,419.56L441.74,421.05L443.01,421.38L441.97,423.18L443.41,424.54L444.82,425.03L446.55,424.06L447.52,424.17L447.51,424.73L448.16,425.52L448.67,425.79L449.46,425.82L450.38,426.18L450.44,427.02L450.94,426.83L451.44,427.2L452.51,427.07L453.89,427.27L453.38,428.28L454.18,428.67L453.69,429.77L453.69,430.25L453.02,430.32L453.32,430.88L453.35,432L452.57,432.34L451.28,432.48L450.62,433.79L452.04,433.79L452.19,434.46L451.86,435.86L451.23,436.83L451.14,438.42L449.8,439.2L449.52,439.95L448.86,440.03L449.63,440.82L449.89,441.83L449.31,442.17L448.35,441.83L446.97,442.81L445.59,442.97L445.32,443.5L444.57,442.79L444.03,442.66L443.96,443.38L442.93,444.02L441.86,445.08L440.37,445.52L439.9,445.08L439.32,444.82L438.97,444.33L437.95,443.73L437.53,443.3L437.75,442.58L437.45,441.86L438.13,440.73L438.69,440.31L438.66,439.74L439.16,439.08L439.66,439.04L440.28,437.59L439.33,437.55L438.61,438.05L437.58,438.37L437.18,439.13L436.17,440.03L435.05,440.43L433.37,440.64L432.62,441.36L431.79,441.44L431.94,440.92L432.96,440.39L431.92,439.66L431,440.04L430.7,439.72L431.59,438.4L432.5,437.4L432.35,437.11L433.06,436.62L432.79,436.14L431.39,435.97L431,435.77L431.49,434.79L429.66,435.54L428.15,435.94L427.78,435.18L426.76,433.94L425.44,434.1L424.42,433.56L423.79,433.45L423.52,432.58L423.25,432.49L422.75,431.15L421.3,430.52L421.53,431.97L420.6,432.14L420.21,431.59L420.65,430.67L420.5,429.56L420.9,428.98L420.91,427.97L420.05,428.33L419.64,429.02L418.18,429.42L418.36,430.46L418.04,430.85L417.93,431.57L417.48,432.13L416.61,432.09L416.99,431.05L416.37,430.09L414.8,429.36L414.21,428.8L414.22,427.95L413.98,427.29L413.48,426.64L412.76,426.07L413.02,425.07L413.91,425.12L414.15,425.46L414.86,425.52L414.25,424.3L414.36,423.76L413.59,423.15L413.95,422.73L413.07,421.67L413.1,420.38L412.84,419.33L411.08,418.68L411.47,418.2L412.58,418.18L412.38,417.67L412.58,417.14L411.31,416.33L412.2,415.59L413.47,417.44L413.99,418.04L414.48,417.6L414.28,417.09L413.64,416.42L412.85,415.22L412.3,413.84L412.16,412.87L413.72,413.73ZM430.36,449.12L430.25,450.61L429.75,449.96ZM431.83,448.72L432.39,448.86L432.32,449.36L431.62,449.65L431.5,448.87ZM438.12,446.1L438.16,446.95L437.6,447.31L437.68,448.05L437.25,448.18L437.05,446.55L437.65,446.11ZM438.32,444.31L438.95,444.48L439,445.42L438.32,445.43L438.06,445.76L437.38,445.6L437.34,445.1L437.69,444.49ZM417.11,442.31L417.86,442.59L418.53,442.6L418.49,443.29L418.03,443.84L418.16,444.47L417.79,444.69L416.78,444.82L415.76,444.73L415.44,444.22L415.66,443.31L416.49,442.46ZM429.66,441.58L429.28,442.87L428.85,443.55L428.02,443.43L428.39,442.12ZM425.08,441.19L425.12,441.94L424.65,442.25L424.41,442.92L423.89,443.51L423.01,443.53L422.49,442.98L422.73,442.08L423.55,441.8L424.24,441.31ZM417.66,440.16L417.2,441.16L416.33,441.11L416.57,440.21ZM428.36,439.57L428.33,440.06L428.68,440.72L427.86,441.91L426.93,442.09L426.67,441.72L427.16,440.33L427.71,439.79ZM430.86,438.38L430.97,438.73L430.23,439.66L430.2,440.27L429.42,440.49L428.72,440.41L428.45,439.71L429.24,439.25L429.35,438.79L430.45,438.59ZM422.3,438.23L422.85,438.22L423.01,439.06L422.77,439.38L422.02,439.32L421.52,439L421.63,438.51ZM438.87,438.25L439.21,438.63L438.46,439.95L437.82,440.63L437.82,441.15L437.25,441.29L437.18,442.48L436.74,442.72L437.34,443.45L437.17,443.78L437.11,444.92L436.54,445.58L435.81,445.85L436.1,447.13L436.02,447.76L435.12,447.81L434.6,448.11L434.28,447.23L433.51,447.67L432.89,447.66L432.59,447.31L431.35,447.77L430.72,448.33L430.39,447.63L429.92,447.89L429.45,447.58L429.59,447.07L429.26,446.35L429.31,445.41L429.7,445.33L430.29,444.34L430.85,443.91L431.3,443.24L430.66,443.04L430.16,443.24L430.09,442.48L430.79,441.8L430.7,441.14L431.17,440.58L431.56,440.94L431.22,441.73L432.93,441.55L433.23,440.9L433.77,440.96L435.15,440.67L436.13,440.77L437.32,440.36L437.36,439.59L437.89,439.3L437.97,438.61ZM427.51,437.62L428.23,437.97L429.27,438.08L428.86,439.07L428.26,439.07L427.7,439.57L427.04,439.71L427.21,440.25L426.38,440.11L425.53,440.34L424.84,439.11L425.48,437.66ZM423.64,437.5L424.06,437.89L423.55,438.4L422.15,437.94L423.14,437.46ZM430.21,436.36L430.11,437.02L431.22,437.17L431.68,437.45L430.63,438.45L429.34,438.73L429.4,438.01L428.34,437.76L428.56,437.01L429.73,436.36ZM428.16,436.16L428.33,436.74L426.31,437.35L425.74,436.87L426.48,436.5ZM431.07,435.15L430.53,435.96L429.03,436.55L428.59,435.91ZM427.05,434.42L427.7,435.5L427.04,435.91L426.2,435.91L425.88,435.04L426.68,434.43ZM420.28,433.88L420.72,434.31L420.57,434.75L419.94,434.47ZM417.61,433.61L417.73,434.58L417.08,435.26L417.12,434.21ZM422.27,432.67L423.12,432.97L423.26,433.26L423.38,433.17L423.5,433.36L423.87,433.47L423.9,434.03L424.62,434.07L424.52,434.56L423.33,434.68L423.19,434.17L422.55,433.93ZM421.08,432.53L421.85,432.95L422.47,434.33L423.06,434.93L423.12,435.41L423.62,436.28L424.24,436.95L423.9,437.26L422.07,437.17L421.23,436.6L421.04,436.18L420.2,435.76L420.19,434.93L420.68,434.9L420.91,434.31L420.42,433.73L420.63,432.55ZM419.57,430.36L420.29,430.85L419.83,431.96L419.16,432.44L419.3,433.11L418.86,433.62L418.54,433.17L418.88,431.31L419.4,430.91ZM411.13,429.36L412.41,430.48L412.49,431.52L413,432.35L411.98,432.46L411.2,431.32L411.94,431.2L411.05,429.79ZM413.46,429.03L414.57,430.24L415.47,430.59L415.08,431.72L415.4,432.33L414.93,432.9L414.36,432.68L414.34,432.13L413.86,431.97L412.68,430.75L412.97,429.78L413.26,429.52ZM411.79,426.65L412.55,426.79L412.37,427.46L413.07,428.12L413.22,429.47L412.43,428.54L412.59,429.31L412.07,429.31L411.82,428.67L411.07,427.93ZM411.62,420.47L411.89,421.49L411.06,421.13ZM410.74,419.29L411.91,419.42L411.76,419.91L411.25,420.17L411,420.96L410.31,420.32L410.23,419.68Z" class="land" id="FI-19" title="Southwest Finland"/>
  </g>
</svg>