<?xml version="1.0" encoding="UTF-8"?>
<svg xmlns="http://www.w3.org/2000/svg" width="406.02" height="399.63" viewBox="276.99 57.19 406.02 399.63" style="background-color:#000000">
  <!-- Created using SVG Map Generator: dojo.amcharts.com/svg-map-generator -->
  <style>
    .land { fill: #ffffff; stroke: #000000; stroke-width: 0.65; }
  </style>
  <g id="polygons">
    <path d="M531.4,374.9L531.69,373.39L537.85,369.9L536.86,368.56L538.53,365.73L542.08,364.63L543.17,362.46L542.89,359.17L548.55,354.41L546.93,351.43L544.66,349.79L545.12,346.7L543.11,343.45L543.14,341.13L547,341.78L547.85,345.13L554.58,342L557.16,344.96L562.83,345.66L563.61,347.96L566.98,349.5L569.73,346.56L571.99,347.64L571.12,346.63L570.5,341L566.69,340.84L564.94,339.39L565.7,334.53L570.06,335.61L569.58,332.77L571.01,330.11L574.97,328.48L576.02,324.31L579.48,324.27L584.6,320.18L590.8,320.55L589.9,314.87L586.56,314.18L587.3,310.78L590.17,309.94L591.05,312.04L597.01,309.91L598.48,310.5L599.66,314.08L601.64,314.3L601.83,318.6L604.98,320.77L606.99,320.31L610.91,327.35L607.73,327.59L606.89,331.63L604.74,333.38L606.62,340.34L608.96,344.83L614.01,346.17L618.75,349.52L624.47,347.92L627.4,348.9L628.74,350.74L627,355.01L624.61,356.27L622.65,358.95L623.63,362.45L613.19,367.46L612.21,370.01L607.59,373.47L605.76,376.09L602.92,376.87L599.63,380.54L599.9,384.89L596.55,385.29L594.74,386.76L591.61,387.01L584.34,389.51L578.84,388.63L576.98,390.76L575.55,388.14L572.38,387.05L572.13,385.66L567.91,384.34L566.88,385.01L562.45,384.32L563.4,382.72L561.54,378.7L559.29,379.95L554.3,380.1L552.07,376.24L550.67,375.98L546.61,379.2L541.23,378.74L541.46,376.37L539.86,375.21Z" class="land" id="FR-PAC" title="Provence-Alpes-Côte d'Azur"/>
    <path d="M383.24,171.61L389.51,171.99L391.9,174.65L394.93,174.32L398.89,171.58L404.17,171.01L407.35,169.27L409.05,173.77L411.74,174.01L411.73,177.24L421.57,172.77L423.1,173.68L424.12,179.47L428.12,182.54L432.27,182.29L435.45,184.83L436.94,187.38L436.04,193.55L436.88,195.47L434.42,197.11L434.65,199.97L429.54,204.71L429.83,206.62L426.14,207.73L423.89,210.83L420.33,209.1L418.59,212.11L419.35,213.73L418.25,218.63L415.32,222.75L414.68,227.59L412.94,227.75L409.53,232.11L405.72,229.99L401.75,231.59L399.32,230.9L396.41,234.45L389.33,235.56L389.94,239.05L393.65,242.11L393.06,244.31L395.97,249.76L395.04,253.87L398.08,259.38L395.05,262.14L392.97,262.74L390.02,261.31L387.1,262.42L385.9,260.75L381.95,262.17L372.12,261.13L370.82,258.64L367.06,257.98L362.46,254.95L361.23,250.25L358.69,246.69L353.26,241.61L352.98,238.85L357.85,233.13L352.62,227.4L352.47,223.46L348.9,224.76L342.04,222.4L341.63,218.94L344.46,215.89L348.38,215.35L354.52,212.38L354.51,208.31L358.01,205.71L366.76,205.05L367.82,202.81L374.36,200.12L378.31,202.27L380.86,194.43L384.74,192.83L382.37,181.8L383.93,179.17L382.93,175.56Z" class="land" id="FR-PDL" title="Pays de la Loire"/>
    <path d="M543.11,343.45L545.12,346.7L544.66,349.79L546.93,351.43L548.55,354.41L542.89,359.17L543.17,362.46L542.08,364.63L538.53,365.73L536.86,368.56L537.85,369.9L531.69,373.39L531.4,374.9L528.73,373.91L527.95,371.34L524.25,371.59L517.26,377.21L515,377.86L511.16,382.32L506.84,382.07L502.06,385.96L500.43,388.42L498.1,394.84L498.72,395.69L497.84,403.84L498.33,410.01L500.97,410.97L501.98,413.89L499.42,414.4L497.93,412.53L493.37,412.82L491.38,414.67L489.56,414.45L485.18,416.94L482.54,417.63L481.16,415.62L476.24,413.93L473.41,414.48L471.45,416.8L468.04,416.04L467.22,413.36L461.47,411.76L461.65,407.13L454.89,405.76L453.32,407.67L451.07,403.25L445.84,403.65L443.32,400.62L439.04,400.59L437.08,399.16L432.95,397.82L429.83,403.75L424.94,404.32L423.19,403.06L418.05,402.57L413.07,404.55L409.99,402.99L404.39,398.29L405.1,392.34L407.6,389.98L407.76,388.17L411.26,385.77L413.99,379.26L411.17,375.84L412.04,372.87L410.46,370.19L406.49,370.16L406.19,365.35L407.06,363.68L408.15,356.36L414.72,355.5L418.52,353.41L421.56,354.35L428.71,351.84L431.72,353.03L433.85,351.58L435.26,348.39L438.19,348.62L439.15,343.61L437.5,341.92L438.26,339.15L442.87,339.75L441.66,336.66L441.59,333.08L447.41,327.33L453.45,319.63L452.57,314.63L456.08,312.97L458.76,313.53L463.53,317.88L466.49,315.71L470.77,315.78L471.6,319.81L473.85,323.15L472.67,326.77L473.85,329.12L478.19,327.8L478.9,328.98L482.58,328.58L484.71,325.85L485.96,320.9L489.66,317.13L493.08,319.77L493.88,323.13L495.25,323.72L495.24,327.43L496.49,328.82L498.29,322.7L500.68,318.62L503.25,318.39L507.39,316.39L510.6,322.45L515.28,319.71L517.79,321.21L521.07,326.2L522.25,330.79L523.64,331.71L524.63,335.58L528.59,340.88L532.15,343.67L533.01,341.72L535.92,340.49L539.08,340.6Z" class="land" id="FR-OCC" title="Occitanie"/>
    <path d="M377.89,275.33L379.97,279.58L379.75,281.83L374.4,276.81ZM370.28,266.8L371.28,264.57L373.3,266.83L377.02,267.38L376.19,269.08L372.29,266.8ZM476.89,257.98L477.5,261.08L482.54,263.63L484.87,268.67L484.44,271.46L485.88,273.52L484.62,278.4L479.92,281.94L483.7,286.56L483.64,289.28L481.95,291.12L483.53,292.79L482.48,300.14L479.86,298.48L479.11,301.47L474.47,306.05L473.05,314.77L470.77,315.78L466.49,315.71L463.53,317.88L458.76,313.53L456.08,312.97L452.57,314.63L453.45,319.63L447.41,327.33L441.59,333.08L441.66,336.66L442.87,339.75L438.26,339.15L437.5,341.92L439.15,343.61L438.19,348.62L435.26,348.39L433.85,351.58L431.72,353.03L428.71,351.84L421.56,354.35L418.52,353.41L414.72,355.5L408.15,356.36L407.06,363.68L406.19,365.35L406.49,370.16L410.46,370.19L412.04,372.87L411.17,375.84L413.99,379.26L411.26,385.77L407.76,388.17L407.6,389.98L405.1,392.34L404.39,398.29L402.11,400.21L398.99,399.13L397.71,401.01L394.18,396.93L390.54,394.4L386.77,394.32L381.99,391.61L375.58,388.91L375.31,391.44L371.97,389.15L374.52,385.29L374.34,382.66L364.59,379.87L363.16,378.19L368.43,375.9L372.73,367.63L376.91,345.79L378.02,332.79L379.78,328.29L384.19,328.73L384.26,326.8L380.53,323.68L377.88,329.3L380.66,303L380.81,295.94L383.33,294.49L387.09,297.34L390.66,301.09L394.52,309.87L393.15,301.82L391.27,296.53L384.54,290.07L379.45,287.11L378.56,283.54L381.46,282.86L383.73,274.84L381.59,269.83L379.4,269.09L379.57,266.41L382.09,264.46L381.95,262.17L385.9,260.75L387.1,262.42L390.02,261.31L392.97,262.74L395.05,262.14L398.08,259.38L395.04,253.87L395.97,249.76L393.06,244.31L393.65,242.11L389.94,239.05L389.33,235.56L396.41,234.45L399.32,230.9L401.75,231.59L405.72,229.99L409.53,232.11L412.94,227.75L414.68,227.59L415.41,229.43L421.64,232.22L421.31,234.72L425.42,237.22L427.3,236.02L432.5,235.41L432.85,238.29L435.42,240.49L435.94,242.96L438.67,245.5L438.1,249.47L441.65,253.26L445.13,254.43L447.03,257.41L447.21,260.16L451,258.79L452.71,260.96L455.81,257.7L460.27,258.03L462.99,256.49L464.55,257.74L468.46,257.04L471.53,258.37Z" class="land" id="FR-NAQ" title="Nouvelle-Aquitaine"/>
    <path d="M460.78,140.9L458.5,147.13L454.77,148.62L455.12,153.32L453.98,156.22L451.23,157.81L450.41,160.92L447.34,161.06L444.51,159.73L442.09,162.32L435.78,165.06L436.96,168.48L439.04,169.42L439.43,173.81L438.71,177.33L435.17,178.66L434.27,180.41L435.45,184.83L432.27,182.29L428.12,182.54L424.12,179.47L423.1,173.68L421.57,172.77L411.73,177.24L411.74,174.01L409.05,173.77L407.35,169.27L404.17,171.01L398.89,171.58L394.93,174.32L391.9,174.65L389.51,171.99L383.24,171.61L378.1,170.11L375.31,173.27L371.54,172.42L369.21,166.28L373.29,165.92L369.32,161.66L368.87,157.2L369.61,149.64L368.64,144.97L365.42,136.72L362.55,134.83L360.72,122.5L362.16,121.13L370.26,122.69L371.95,120.85L377.76,120.89L378.78,124.74L376.53,127.3L380.52,133.35L386.16,133.78L392.03,135.86L402.12,136.54L406.93,138.79L413.11,136.9L416.7,133.61L417.75,131.4L414.97,128.82L418.93,120.16L422.56,118.71L429.54,113.95L434.75,113.17L439.98,110.95L441.63,111.43L446.55,109.09L451.67,104.94L453.75,106.01L461.01,112.65L463.08,118.03L461.05,119.24L460.57,125.81L463.2,129.2L461.07,133.35L462.7,138.33Z" class="land" id="FR-NOR" title="Normandie"/>
    <path d="M460.78,140.9L462.19,143.3L465.79,143.85L471.32,141.82L475.56,144.34L477.82,142.84L485.36,147.37L486.74,146.15L489.56,148.18L496.13,146.87L501.6,146.57L501.67,150.25L507.26,153.82L507.69,156.22L510.55,157.06L508.41,159.95L510.07,161.88L509.59,166.23L510.42,170.18L507.93,175.11L508.57,176.58L504.1,177.66L498.32,177.87L498.32,182.48L495.24,186.12L491.38,185.88L488.77,187.77L484.68,187.04L483.51,183.49L480.9,182.07L480.35,179.72L477.4,179.86L474.72,178.53L473.62,180.44L468.28,180.88L468.42,176.13L463.5,173.39L463.1,169.72L460.92,168.73L457.94,165.01L456.85,155.44L455.12,153.32L454.77,148.62L458.5,147.13Z" class="land" id="FR-IDF" title="Île-de-France"/>
    <path d="M531.44,109.51L532.04,113.43L530.72,117.26L531.94,118.26L528.49,121.67L526.12,129.06L525.98,135.37L522.82,133.37L515.03,137.37L517.92,144L514.38,144.36L515.18,148.94L514.34,152.21L510.55,157.06L507.69,156.22L507.26,153.82L501.67,150.25L501.6,146.57L496.13,146.87L489.56,148.18L486.74,146.15L485.36,147.37L477.82,142.84L475.56,144.34L471.32,141.82L465.79,143.85L462.19,143.3L460.78,140.9L462.7,138.33L461.07,133.35L463.2,129.2L460.57,125.81L461.05,119.24L463.08,118.03L461.01,112.65L453.75,106.01L451.67,104.94L457.61,96.57L456.12,95.42L457.49,84.21L456.82,75.94L458.24,72.5L457.33,69.51L461.91,66.27L471.84,63.59L484.27,59.84L486.73,66.14L485.83,70.47L489.28,72.21L491.13,75.91L494.4,77.44L495.69,74.8L501.23,73.12L503.69,78.94L505.15,84.82L507.51,86.28L511.5,84.85L515.47,87.79L515.42,91.59L520.79,92.36L522.24,93.46L525.67,92.06L527.12,94.17L530.81,95.86L529.32,100.62L531.43,104.72L529.51,105.6L529.07,108.75Z" class="land" id="FR-HDF" title="Hauts-de-France"/>
    <path d="M612.51,213.61L611.21,209.89L608.96,209.5L610.15,206.2L609.24,203.67L605.06,202.02L602.83,199.2L598.92,196.97L597.84,195.25L594.24,197.73L591.75,194.6L586.67,195.15L584.65,192.14L579,193.89L576.61,196.93L572.23,200.41L572.22,206.07L564.65,206.4L562.84,209.97L556.21,207.68L551.77,202.87L552.7,200.95L550.21,196.23L547.13,192.69L541.14,191.72L540.47,194.28L529.63,194.64L528.04,196.04L522.02,195.9L522.54,193.8L519.99,191.11L519.13,188.03L515.66,187.09L514.3,181.69L511.08,177.58L508.57,176.58L507.93,175.11L510.42,170.18L509.59,166.23L510.07,161.88L508.41,159.95L510.55,157.06L514.34,152.21L515.18,148.94L514.38,144.36L517.92,144L515.03,137.37L522.82,133.37L525.98,135.37L526.12,129.06L528.49,121.67L531.94,118.26L530.72,117.26L532.04,113.43L531.44,109.51L533.62,109.05L537.43,110.43L544.31,107.91L544.34,104.02L548.06,100.39L548.46,106.07L547.02,109.08L549.78,111.66L548.63,113.51L550.28,117.02L552.78,116.4L555.54,118.02L557.56,121.02L560.44,120.88L564.92,125.22L566.12,129.45L570.87,127.2L577.19,129.41L580.3,131.45L583.66,131.37L587.57,128.76L591.05,131.09L592.79,130.36L596.02,132.27L596.71,135.93L599.59,138.81L601.52,143.76L604.22,144.23L607.1,141.25L612.31,144.72L617.02,145.88L619,143.47L622.61,143.58L623.57,146.63L627.63,148.87L631,147.96L642.35,152.14L639.26,159.16L632.27,166L631.18,168.41L627.45,183.67L624.94,187.91L624.74,191.53L626.21,194.13L624.38,198.01L623.44,207.07L625.35,209.42L622.76,212.11L623.1,213.82L619.61,216.54L615.61,216.99Z" class="land" id="FR-GES" title="Grand Est"/>
    <path d="M658.43,445.72L662.36,442.18L659.46,441.19L657.18,438.86L659.21,434.39L654.7,433.83L655.21,429.99L656.86,428.07L653.86,425.38L652.77,421.86L653.64,418.93L653.67,414.75L655.06,414.78L655.38,410.98L658.8,409.54L659.17,407.69L665.13,406.22L668.19,402.79L670.91,402.64L673.05,404.87L674.34,402.62L673.35,398.92L674.8,395.45L674.21,392.78L676.53,392.12L678.49,399.93L677.17,404.94L679.6,409.77L679.59,416.49L680.36,419.82L680.06,426.57L676.22,432.22L675.72,438L676.07,441.2L674.33,446.98L672.38,448.04L672.51,450.51L670.9,454.16L668.09,451.51L664.68,449.56L662.49,449.6Z" class="land" id="FR-COR" title="Corse"/>
    <path d="M455.12,153.32L456.85,155.44L457.94,165.01L460.92,168.73L463.1,169.72L463.5,173.39L468.42,176.13L468.28,180.88L473.62,180.44L474.72,178.53L477.4,179.86L480.35,179.72L480.9,182.07L483.51,183.49L484.68,187.04L488.77,187.77L491.38,185.88L495.24,186.12L497.83,187.36L498.39,189.88L500.49,191.69L500.58,194.08L498.41,196.66L497.72,201.83L492.86,203.05L494.94,206.2L495.23,209.64L492.76,212.16L495.07,216.29L493.3,220.41L496.49,223.57L497.86,229.34L497.5,231.68L499.17,233.35L497.88,242.72L494.79,242.8L492.8,244.72L488.66,245.82L484.98,248.26L486.23,252.56L479.13,254.05L476.89,257.98L471.53,258.37L468.46,257.04L464.55,257.74L462.99,256.49L460.27,258.03L455.81,257.7L452.71,260.96L451,258.79L447.21,260.16L447.03,257.41L445.13,254.43L441.65,253.26L438.1,249.47L438.67,245.5L435.94,242.96L435.42,240.49L432.85,238.29L432.5,235.41L427.3,236.02L425.42,237.22L421.31,234.72L421.64,232.22L415.41,229.43L414.68,227.59L415.32,222.75L418.25,218.63L419.35,213.73L418.59,212.11L420.33,209.1L423.89,210.83L426.14,207.73L429.83,206.62L429.54,204.71L434.65,199.97L434.42,197.11L436.88,195.47L436.04,193.55L436.94,187.38L435.45,184.83L434.27,180.41L435.17,178.66L438.71,177.33L439.43,173.81L439.04,169.42L436.96,168.48L435.78,165.06L442.09,162.32L444.51,159.73L447.34,161.06L450.41,160.92L451.23,157.81L453.98,156.22Z" class="land" id="FR-CVL" title="Centre-Val de Loire"/>
    <path d="M322.38,218.39L325.39,220.8L323.19,222.31ZM369.21,166.28L371.54,172.42L375.31,173.27L378.1,170.11L383.24,171.61L382.93,175.56L383.93,179.17L382.37,181.8L384.74,192.83L380.86,194.43L378.31,202.27L374.36,200.12L367.82,202.81L366.76,205.05L358.01,205.71L354.51,208.31L354.52,212.38L348.38,215.35L344.46,215.89L343.01,212.74L334.46,214.31L332.83,212.38L328.18,210.49L325.86,210.87L321.31,206.07L316.63,205.63L314.57,202.8L305.41,201.68L304.09,199.86L297.26,198.93L296,201.45L291.08,201.46L291.34,197.64L289.59,194.53L285.45,192.97L281.39,190.26L285.92,189.77L289.71,188.48L292.83,189.22L293.89,187.52L292.53,184.41L288.4,182.94L286.89,184.9L283.8,181.23L290.23,181.44L288.08,176.81L284.38,178.77L280.07,176.91L279.64,171.3L281.68,169L284.29,168.73L291.68,164.46L301.32,163L302.14,164.59L305.39,164.6L306.28,162.68L311.29,163.68L312.89,158.99L315.87,157.65L316.98,159.33L320.35,157.62L326.92,156.37L328.09,160.12L334.42,165.69L334.28,167.95L339.56,170.4L341.77,167.76L345.53,166.51L352.45,167.89L353.01,166.33L356.4,165.6L359.07,163.43L360.93,166.13L363.46,167.56Z" class="land" id="FR-BRE" title="Bretagne"/>
    <path d="M612.51,213.61L607.13,216.52L609.26,219L607.56,224.37L604.3,228.23L600.5,230.97L598.22,234.63L594.74,235.4L593.49,243.54L588.38,247.3L583.94,251.62L585.23,252.89L582.66,258.13L577.2,264.26L573.17,264.41L570.97,261.85L567.96,264.1L565.11,262.21L559.5,256.43L558.56,254.37L554.5,255.37L551.29,253.97L546.76,267.83L543.95,264.49L539.05,264.14L536.3,263L535.8,266.34L532.82,268.61L530.77,267.1L527.84,266.92L525.78,268.11L521.9,266.29L521.92,263.43L524.61,262.23L524.95,256.27L521.31,255.21L517.75,253.16L516.51,248.26L513.1,244.58L510.59,248.53L508.75,246.01L506.69,247.23L504.52,245.89L502.58,247.54L498.62,244.5L497.88,242.72L499.17,233.35L497.5,231.68L497.86,229.34L496.49,223.57L493.3,220.41L495.07,216.29L492.76,212.16L495.23,209.64L494.94,206.2L492.86,203.05L497.72,201.83L498.41,196.66L500.58,194.08L500.49,191.69L498.39,189.88L497.83,187.36L495.24,186.12L498.32,182.48L498.32,177.87L504.1,177.66L508.57,176.58L511.08,177.58L514.3,181.69L515.66,187.09L519.13,188.03L519.99,191.11L522.54,193.8L522.02,195.9L528.04,196.04L529.63,194.64L540.47,194.28L541.14,191.72L547.13,192.69L550.21,196.23L552.7,200.95L551.77,202.87L556.21,207.68L562.84,209.97L564.65,206.4L572.22,206.07L572.23,200.41L576.61,196.93L579,193.89L584.65,192.14L586.67,195.15L591.75,194.6L594.24,197.73L597.84,195.25L598.92,196.97L602.83,199.2L605.06,202.02L609.24,203.67L610.15,206.2L608.96,209.5L611.21,209.89Z" class="land" id="FR-BFC" title="Bourgogne-Franche-Comté"/>
    <path d="M598.48,310.5L597.01,309.91L591.05,312.04L590.17,309.94L587.3,310.78L586.56,314.18L589.9,314.87L590.8,320.55L584.6,320.18L579.48,324.27L576.02,324.31L574.97,328.48L571.01,330.11L569.58,332.77L570.06,335.61L565.7,334.53L564.94,339.39L566.69,340.84L570.5,341L571.12,346.63L571.99,347.64L569.73,346.56L566.98,349.5L563.61,347.96L562.83,345.66L557.16,344.96L554.58,342L547.85,345.13L547,341.78L543.14,341.13L543.11,343.45L539.08,340.6L535.92,340.49L533.01,341.72L532.15,343.67L528.59,340.88L524.63,335.58L523.64,331.71L522.25,330.79L521.07,326.2L517.79,321.21L515.28,319.71L510.6,322.45L507.39,316.39L503.25,318.39L500.68,318.62L498.29,322.7L496.49,328.82L495.24,327.43L495.25,323.72L493.88,323.13L493.08,319.77L489.66,317.13L485.96,320.9L484.71,325.85L482.58,328.58L478.9,328.98L478.19,327.8L473.85,329.12L472.67,326.77L473.85,323.15L471.6,319.81L470.77,315.78L473.05,314.77L474.47,306.05L479.11,301.47L479.86,298.48L482.48,300.14L483.53,292.79L481.95,291.12L483.64,289.28L483.7,286.56L479.92,281.94L484.62,278.4L485.88,273.52L484.44,271.46L484.87,268.67L482.54,263.63L477.5,261.08L476.89,257.98L479.13,254.05L486.23,252.56L484.98,248.26L488.66,245.82L492.8,244.72L494.79,242.8L497.88,242.72L498.62,244.5L502.58,247.54L504.52,245.89L506.69,247.23L508.75,246.01L510.59,248.53L513.1,244.58L516.51,248.26L517.75,253.16L521.31,255.21L524.95,256.27L524.61,262.23L521.92,263.43L521.9,266.29L525.78,268.11L527.84,266.92L530.77,267.1L532.82,268.61L535.8,266.34L536.3,263L539.05,264.14L543.95,264.49L546.76,267.83L551.29,253.97L554.5,255.37L558.56,254.37L559.5,256.43L565.11,262.21L567.96,264.1L570.97,261.85L573.17,264.41L577.2,264.26L582.66,258.13L585.61,260.13L583.71,263.44L580.3,266.21L580.69,269.12L584.45,269.32L589.11,265.87L587.02,262.37L587.92,260.42L595.37,256.49L599.94,256.59L603.79,257.7L602.41,260.61L605.03,263.62L603.34,266.72L603.14,269.38L605.98,269.91L609.51,275.81L610.04,278.02L607.16,281.09L603.78,281.5L603.41,285.96L606.44,288.92L608.8,289.4L608.81,294.79L611.59,296.2L613.7,298.58L611.89,301.85L612.58,304.69L608.85,306.12L604.57,309.81L602.3,308.53Z" class="land" id="FR-ARA" title="Auvergne-Rhône-Alpes"/>
  </g>
</svg>