<?xml version="1.0" encoding="UTF-8"?>
<svg xmlns="http://www.w3.org/2000/svg" width="389.58" height="399.63" viewBox="285.21 57.19 389.58 399.63" style="background-color:#000000">
  <!-- Created using SVG Map Generator: dojo.amcharts.com/svg-map-generator -->
  <style>
    .land { fill: #ffffff; stroke: #000000; stroke-width: 0.65; }
  </style>
  <g id="polygons">
    <path d="M553.47,133.59L556.5,134.28L558.37,135.91L558.22,138.5L554.03,140.12L552.14,140.02L547.66,136.38L549.19,134.19L552.41,133.25ZM511.87,116.58L514.46,117.1L516.61,120.22L516.54,123.68L517.06,126.27L515.58,128.01L511.6,129.52L509.5,128.37L508.18,126.47L506.11,126.77L505.37,124.35L506.29,121.32L508.61,118.4ZM476.61,117.45L477.54,115.26L479.04,115.39L481.59,113.58L482.14,112.27L487.46,106.84L487.62,104.35L483.89,101.35L484.08,99.4L481.69,97.84L479.71,99.61L476.08,96.9L473.4,95.93L470.21,91.78L469.03,89.45L469.89,87.71L469,85.88L466.22,85.46L465.87,82.07L467.91,80.06L472.05,80.88L473.55,78.46L477.64,77.65L479.4,76.33L481.27,78.38L483.26,76.63L484.67,77.51L485.22,73.28L487.06,71.7L490.72,73.82L491.88,71.68L494.58,71.25L495.99,72.45L498.85,73.7L499.68,72.55L503.14,73.05L503.71,71.65L506,70.66L507.23,71.71L508.1,76.14L509.15,76.84L509.89,79.21L511.75,78.58L515.07,79.73L515.82,81.77L518.42,83.85L519.07,80.63L521.54,81.18L523.4,80.21L524.59,81.48L529.61,82.76L530.68,84.16L532.48,84.27L537.07,87.72L537.58,89.69L539.86,90.4L542.16,90.04L548.43,87.3L550.9,87.93L552.27,85.55L554.6,86.34L556.6,85.75L558.81,87.09L559.39,85.53L562,85.32L564.02,83.8L566.64,86.27L569.07,85.38L571.8,85.08L573.46,83.61L575.78,83.84L577.7,83.3L579.19,80.17L578.95,76.51L580.15,73.57L579.8,71.49L578.46,71.34L578.72,68.37L576.06,67.06L575,65.69L575,62.14L576.86,61.94L579.24,59.84L584.78,62.08L587.91,62.03L588.78,62.87L592.25,64.27L595.51,67.37L598.32,68.12L598.29,73.1L599.23,77.04L599.18,79.11L600.25,81.51L599.99,83.72L597.61,85.23L596.14,84.17L594.06,85L592.4,87.64L589.88,89.39L586.26,89.41L586.58,91.4L585.53,94.03L586.89,95.89L585.61,98.02L585.74,100.08L588.19,103.19L586.34,105.28L587.85,107.6L584.6,109.06L585.23,110.14L582.97,111.4L581.84,110.91L581.53,113.6L578.8,115.56L577.56,117.87L577.4,119.57L575.17,120.44L573.48,120.29L573.52,118.22L572.61,114.52L571.37,114.98L569.52,113.73L565.94,113.81L562.35,113.26L559.79,113.61L553.52,112.22L552.35,112.86L547.38,110.51L544.04,109.77L543.29,108.32L540.68,107.76L539.27,108.51L534.93,107.99L532.72,106.74L533.42,105.18L530.87,104.04L527.16,106.78L526.66,108.61L525.01,108.52L521.76,109.78L518.41,113.48L516.57,112.8L514.42,113.16L512.01,112.01L510.56,112.75L507.7,107.31L505.29,106.87L503.47,107.83L500.13,108.31L499.42,109.74L497.84,110.3L496.62,112.25L496.51,114.82L488.71,119.9L484.58,121.06L478.64,118.84Z" class="land" id="GR-A" title="East Macedonia and Thrace"/>
    <path d="M465.87,82.07L466.22,85.46L469,85.88L469.89,87.71L469.03,89.45L470.21,91.78L473.4,95.93L476.08,96.9L479.71,99.61L481.69,97.84L484.08,99.4L483.89,101.35L487.62,104.35L487.46,106.84L482.14,112.27L481.59,113.58L479.04,115.39L477.54,115.26L476.61,117.45L475.04,117.17L470.75,118.92L469.2,121.58L468.81,123.8L470.9,124.74L472.71,127.14L472.88,128.48L474.46,129.19L475.02,130.5L477.17,130.78L477.85,132.73L475.07,132.81L474.46,134.72L474.91,136.68L477.6,140.02L481.27,141.07L482.9,140.46L483.33,143.29L482.79,144.8L480.88,142.91L478.25,141.75L475.93,141.47L472.8,143.41L470.72,142.47L469.46,143.64L468.86,146.44L469.49,148.03L471.84,149.7L472.45,151.95L478.68,153.92L481.42,155.8L481.55,158.18L483.35,160.98L483.5,162.7L481.95,163.98L480.74,166.18L479.34,166.82L478.2,164.18L475.2,161.77L472.93,159.32L472.32,156.34L470.58,154.87L469.76,152.85L467.03,150.08L461.96,149.47L460.01,148.06L455.7,146.87L451.81,150.15L450.92,149.35L445.66,147.33L444.2,147.12L442.44,145.7L438.72,144.2L437.07,141.67L433.52,139.89L431.81,137.83L431.29,135.84L429.59,135.23L430.46,133.49L432.76,133.82L434.63,133.32L436.98,131.02L434.93,129.24L435.47,126.42L433.01,125.43L431.65,126.54L431.46,128.3L428.33,130.31L426.37,130.41L426.53,132.77L425.14,133.75L424.38,132.18L422.05,132.91L422.68,134.29L421.84,135.47L420.05,135.33L420.5,139.31L421.25,140.97L422.77,142.06L420.17,146.76L419.56,150.92L417.97,153.24L417.67,154.76L418.57,157.48L418.72,159.93L419.77,162.46L423.22,164.81L420.97,164.88L420,165.68L416.68,166.24L415.4,165.01L414.89,162.57L413.03,161.58L410.04,160.86L408.61,159.15L409.44,157.46L409.75,155.04L407.56,152.56L405.96,153.01L403.87,156.53L402.8,156.99L402.78,152.74L401.99,151.77L398.13,152.05L398.12,150.87L400.7,149.49L401.83,145.67L400.26,145.49L398.87,144.27L398.7,142.28L397.24,140.79L397.81,137.92L394.35,136.92L392.42,135.08L390.02,134.57L389.81,132.91L388.49,131.04L389.36,129.59L388.05,128.37L387.92,125.47L388.93,123.2L385.15,122.33L384.77,120.58L383.34,119.56L384.17,117.69L381.32,117.24L381.66,115.26L380.25,113.07L383.13,112.15L385.56,110.33L383.7,108.45L384.3,105.82L389.34,101.48L389.16,98.89L392.08,96.75L394.46,96.47L396.57,95.2L398.88,97.08L400.88,95.07L405.1,94.68L408.05,96.81L409.7,96.22L411.91,97.37L413.98,97.47L418.21,96.66L419.53,97.41L422.85,93.37L424.94,96.1L426.54,94.67L426.96,88.03L427.37,85.18L429.46,84L434.97,84.19L438.13,84.91L439.08,84.6L441.6,85.81L444.02,85.87L447.05,85.19L448.13,83.75L448.21,82.13L450.46,80.65L452.19,80.68L453.1,82.76L455.92,80.54L461.33,80.39ZM454.99,155.04L456.5,155.81L458.03,158.91L459.81,161.09L464.48,163.45L468.19,164.73L468.73,166.95L469.81,168.52L464.35,167.78L458.51,164.89L454.64,165.31L454.87,162.96L453.01,159.23L451.42,157.31L452.23,155.74L452.43,152.59Z" class="land" id="GR-B" title="Central Macedonia"/>
    <path d="M383.7,108.45L385.56,110.33L383.13,112.15L380.25,113.07L381.66,115.26L381.32,117.24L384.17,117.69L383.34,119.56L384.77,120.58L385.15,122.33L388.93,123.2L387.92,125.47L388.05,128.37L389.36,129.59L388.49,131.04L389.81,132.91L390.02,134.57L392.42,135.08L394.35,136.92L397.81,137.92L397.24,140.79L398.7,142.28L398.87,144.27L400.26,145.49L401.83,145.67L400.7,149.49L398.12,150.87L398.13,152.05L397.87,154.38L396.33,156.71L391.96,161.45L390.76,163.71L389.14,164.13L387.24,165.73L389.11,167.94L389.58,171.4L388.03,171.84L385.61,171.17L383.65,172.12L380.51,170.73L379.17,171.53L377.94,170.62L376.22,171.72L374.54,169.3L371.42,169.54L369.04,168.96L367.56,169.26L367.29,171.78L365.57,172.94L361.69,171.46L360.75,170.28L358.81,169.59L356.57,170.17L355.86,171.4L352.76,170.29L351.93,166.16L350.8,165.21L350.95,163.6L352.11,162.16L352.28,159.89L350.85,159.25L348.94,159.94L347.97,157.23L346.54,155.43L348.65,154.22L348.12,151.12L344.85,145.74L342.83,143.64L338.58,142.8L339.2,140.77L338.89,138.22L340.5,137.44L341.43,135.1L344.32,135.33L345.24,136.11L347.08,134.48L347.11,132.72L348.79,130.74L350.38,130.47L350.99,126.7L351.01,124.12L349.51,121.55L347.74,119.9L347.71,112.94L355.42,112.89L357.85,111.24L360.09,112.73L364.55,111.61L367.11,109.35L369.22,109.92L371.99,109.7L373.87,112.33L375.01,112.31L378.27,109.42L379.13,107.93L382.29,108.87Z" class="land" id="GR-C" title="West Macedonia"/>
    <path d="M338.58,142.8L342.83,143.64L344.85,145.74L348.12,151.12L348.65,154.22L346.54,155.43L347.97,157.23L348.94,159.94L350.85,159.25L352.28,159.89L352.11,162.16L350.95,163.6L350.8,165.21L351.93,166.16L352.76,170.29L355.86,171.4L356.57,170.17L358.81,169.59L360.75,170.28L361.69,171.46L360.17,171.73L360.12,173.39L358.59,174.54L358.45,175.73L359.9,180.2L358.97,181.08L357.42,179.6L353.9,181.89L355.4,183.59L355.32,185.37L356.71,185.83L358.07,192.26L357.34,194.26L358.7,196.02L360.38,197.11L360.61,199.32L362.45,200.5L365.43,200.4L367.7,204.05L367.09,205.86L364.88,207.6L364.09,209.04L365.03,210.81L360.44,214.28L358.72,213.47L353.71,214.19L352.22,216.56L353.16,218.35L347.88,220.76L346.94,219.01L344.89,217.64L341.51,217.75L341.37,215.74L339.99,214.34L339.07,215.81L338.89,218.01L337.49,220.19L339.96,222.65L337.61,222.71L336.29,223.93L335.05,221.27L335.74,220.24L335.36,218.44L333.49,216.15L332.26,215.7L329.63,213.17L327.69,210.29L325.02,208.51L324.81,205.91L321.4,204.61L318.97,204.7L316.6,202.26L316.32,199.22L314.8,198.29L313.31,195.39L316.01,195.3L315.19,193.06L315.49,191.76L312.7,191L311.22,190.07L312.28,183.8L314.15,181.52L315.69,180.92L318.17,178.82L316.83,176.92L317.36,173.86L320.82,175.68L322.26,173.86L322.35,172.44L319.99,168.43L317.75,163.72L321.37,163.44L322.59,159.57L326.67,158.28L328.32,159.35L330.64,159.05L331.78,157.82L334.09,157.55L334.01,155.72L334.81,154.31L334.11,152.09L336.18,150.01L335.53,147.02Z" class="land" id="GR-D" title="Epirus"/>
    <path d="M480.43,204.5L481.77,205.76L479.44,209.23L478.35,211.76L476.48,212.85L475.82,212.1L477.36,208.38ZM423.22,164.81L424.88,166.01L424.94,168.26L426.07,170.85L427.48,171.58L429.47,173.85L431.23,174.77L431.91,179.15L433.2,183.95L434.91,187.98L437.97,189.22L442.02,192.15L442.96,194.43L447.06,200.03L449.98,202.77L450.58,205.48L451.97,206.93L453.48,210.22L451.49,212.94L448.91,213.84L447.25,213.81L446.9,215.18L443.7,215.68L443.29,216.25L440.12,215.53L441.46,212.63L445.76,213.77L447.35,212.66L447.63,210.29L445.76,207.96L445.96,206.69L443.29,203.57L438.79,202.94L437.51,200.88L435.21,201.31L434.54,202.73L435.05,204.08L432.37,204.19L429.87,205.11L429.81,208.66L431.39,212.44L433,210.21L433.96,212.07L434.42,214.58L436.24,214.19L437.87,217.22L436.1,220.76L438.61,219.7L438.79,220.76L436.46,222.4L432.86,222.38L431.4,221.12L426.95,221.12L424.85,220.09L422.96,217.97L420.04,218.87L415.65,217.35L414.47,212.86L412.8,210.27L411.43,209.68L410.66,207.94L406.01,207.41L405.01,205.3L403.24,207.48L401.31,211.05L399.85,211.91L400.05,214.11L398,215.51L396.23,215.33L394.93,216.6L395.45,218.12L393.55,219.14L390.7,219.41L390.43,216.22L385.73,212.12L384.44,214.1L383.08,214.86L380.95,214.29L380.75,212.68L381.5,210.71L379.58,210.21L378.78,206.53L376.52,206.37L374.38,207.19L373,208.62L370.84,208.06L366.2,211.58L365.03,210.81L364.09,209.04L364.88,207.6L367.09,205.86L367.7,204.05L365.43,200.4L362.45,200.5L360.61,199.32L360.38,197.11L358.7,196.02L357.34,194.26L358.07,192.26L356.71,185.83L355.32,185.37L355.4,183.59L353.9,181.89L357.42,179.6L358.97,181.08L359.9,180.2L358.45,175.73L358.59,174.54L360.12,173.39L360.17,171.73L361.69,171.46L365.57,172.94L367.29,171.78L367.56,169.26L369.04,168.96L371.42,169.54L374.54,169.3L376.22,171.72L377.94,170.62L379.17,171.53L380.51,170.73L383.65,172.12L385.61,171.17L388.03,171.84L389.58,171.4L389.11,167.94L387.24,165.73L389.14,164.13L390.76,163.71L391.96,161.45L396.33,156.71L397.87,154.38L398.13,152.05L401.99,151.77L402.78,152.74L402.8,156.99L403.87,156.53L405.96,153.01L407.56,152.56L409.75,155.04L409.44,157.46L408.61,159.15L410.04,160.86L413.03,161.58L414.89,162.57L415.4,165.01L416.68,166.24L420,165.68L420.97,164.88ZM458.5,209.12L460.72,210.32L457.88,213.61L455.16,211.93L457.61,210.72ZM464.85,208.95L466.88,211.24L472.8,213.68L472.11,216.04L470.06,217.15L469.05,215.95L467.29,215.96L467.08,214.06L465.84,212.73L464.23,209.79ZM485.81,199.85L486.94,200.99L486.68,203.34L485.56,204.15L484.32,202.48Z" class="land" id="GR-E" title="Thessaly"/>
    <path d="M334.82,229.57L336.25,232.18L335.89,234.75L336.51,236.61L335.57,239.83L336.21,242.22L333.88,243.9L328.37,244.34L328.6,239.37L329.54,237.49L330.6,233.65L332.73,230.65ZM328.96,251.32L330.03,252.82L330.42,255.15L331.8,258.38L331.73,260.29L330.62,261.08L331.76,263.4L334.55,262.99L335.57,265.31L340.24,271.62L339.45,274.46L337,274.69L335.09,274.19L332.39,271.87L330.89,271.47L329.12,273.08L325.57,271.34L324.71,267.29L323.46,269.04L320.86,269.76L318.93,268.02L319.79,265.37L319.81,263.3L322.62,258.23L325.15,260.59L326.35,259.93L328.27,257.56L327.72,253.66L327.79,251.49ZM309.82,207.06L311.44,208.02L313.11,210.96L311.66,210.87L309.27,208.2ZM335.51,283.37L335.75,284.45L337.78,286.86L340.56,287.29L344.24,289.18L344.1,290.9L348.2,293.52L348,294.81L344.82,293.05L342.57,293.76L341.16,296.13L342.07,297.79L340.89,298.33L338.22,296.03L337.64,294.69L335.62,293.75L332.72,289.69L331.48,286.72L332.41,284.07L335.03,281.93ZM338.7,239.78L339.74,241.02L337.52,242.51L336.87,240.1ZM332.88,249.64L334.13,250.36L335.52,253.41L333.96,256.46L336.69,256.15L337.23,258.07L336.08,261.09L334.71,259.94L333.41,256.11L331.31,251.76L332.78,251.43ZM297.34,173.69L298.79,174.95L301.85,176.24L300.68,178.61L296.92,180.22L296.71,182.01L297.82,184.12L300.85,185.01L299.83,188.28L301.06,193.86L303.82,194.67L304.61,196.08L307.03,194.41L308.48,198.29L307.61,200L298.15,194.89L297.16,192.5L297.11,189.57L296.24,187.97L293.85,185.79L292.31,185.04L291.05,182.3L289.24,181.78L289.65,179.89L287.86,177.44L289.22,174.83L291.09,175.43L292.65,174.88L294.68,175.35Z" class="land" id="GR-F" title="Ionian Islands"/>
    <path d="M409.8,270.03L409.95,273.41L409.26,276.68L406.11,280.22L403.79,280.84L404.04,282.95L402.95,284.4L404.74,287.27L402.33,288.01L400.68,289.65L397.58,288.47L395.55,290.64L392.44,289.73L388.31,287.25L387.91,285.81L384.54,288.36L383.81,289.59L383.73,292.64L384.51,295.73L383.74,298.6L383.66,301L387.74,300.68L389.37,303.43L390.51,303.8L392.76,306.34L388.73,308.33L387.83,309.91L388.34,311.8L386.44,312.47L382.93,312.08L379.54,312.37L378.79,312.99L376.11,307.31L372.38,302.66L368.57,300.18L365.91,297.81L362.35,297.17L362.76,295L361.89,291.66L358.48,288.93L353.44,287.11L353.34,284.91L354.17,281.68L355.89,282.29L357.25,281.78L359.76,279.75L361.95,276.91L363.75,272.51L364.81,271.32L364.68,267.97L365.81,266L366.74,267.35L368.65,266.92L372.1,269.41L375.48,270.03L378.47,268.62L380.42,266.19L381.79,262.17L383.33,260.35L385.37,260.2L386.33,258.86L387.71,259.71L390.72,259.48L393.68,260.34L394.39,261.95L398.07,263.03L401.02,266.75L402.71,267.84L405.22,268.42L408.12,268.12ZM346.73,241.3L345.25,243.13L342.63,243.99L344.12,241.38ZM365.03,210.81L366.2,211.58L366.19,213.31L367.7,215.15L366.7,217.8L365.19,219.45L367.28,221.55L370.13,222.62L370.59,224.94L371.77,226.88L375.84,228.14L375.93,229.87L374.06,230.06L373.38,233.31L374.1,236.33L379.48,238.24L382.67,237.99L382.72,239.77L384.55,239.3L385.48,236.44L388.29,236.96L390.44,236.04L390.31,233.82L392.75,234.18L393.97,235.93L392.29,238.57L392.33,241.21L392.96,242.7L391.48,243.8L393.5,244.91L392.6,247.3L392.99,248.82L391.97,249.67L387.93,251.49L387.5,255.24L386.5,256.52L383.66,256.94L382.67,259.6L379.83,258.27L377.04,257.94L374.73,258.71L371.05,261.46L370.12,260.89L370.12,257.97L369.32,257.22L367.45,257.83L365.08,255.73L364.59,252.77L362.66,249.79L361.91,250.87L364.08,253.34L363.46,255.43L361.34,258.73L358.14,259.83L357.48,260.9L354.66,260.84L354.35,259.12L352.91,259.25L353.08,257.27L354.04,255.77L353.87,253.92L352.18,250.16L351.97,247.84L349.64,249.57L349.22,246.77L349.5,243.77L347.99,241.44L347.97,240.04L344.66,239.81L342.81,232.97L341.06,233.21L339.71,234.94L337.74,233.89L336.26,231.78L336.87,229.5L338.78,228.46L337.48,226.55L337.72,224.94L339.91,225.83L344.25,225.58L347.42,224.25L349.31,226.88L351.46,228.1L354.05,226.95L354.73,225.47L355.32,221.5L353.16,218.35L352.22,216.56L353.71,214.19L358.72,213.47L360.44,214.28Z" class="land" id="GR-G" title="Western Greece"/>
    <path d="M366.2,211.58L370.84,208.06L373,208.62L374.38,207.19L376.52,206.37L378.78,206.53L379.58,210.21L381.5,210.71L380.75,212.68L380.95,214.29L383.08,214.86L384.44,214.1L385.73,212.12L390.43,216.22L390.7,219.41L393.55,219.14L395.45,218.12L394.93,216.6L396.23,215.33L398,215.51L400.05,214.11L399.85,211.91L401.31,211.05L403.24,207.48L405.01,205.3L406.01,207.41L410.66,207.94L411.43,209.68L412.8,210.27L414.47,212.86L415.65,217.35L420.04,218.87L422.96,217.97L424.85,220.09L426.95,221.12L431.4,221.12L432.86,222.38L436.46,222.4L438.79,220.76L438.32,222.46L434.17,225.75L431.39,225.33L430.7,227.21L427.03,228.68L423.03,227.89L422.12,226.68L420.09,226.34L418.86,227.48L418.04,229.82L420.19,231.42L423.71,230.31L425.53,231.25L427.41,233.74L429.99,233.2L431.82,235.22L433.34,233.96L436.35,235.69L439.37,235.04L440.73,236.93L440.68,239.13L442.67,242.55L443.92,241.43L446.42,240.72L446.7,239.39L449.02,241.4L451.81,241.57L453.03,243.64L451.52,244.61L453.28,249.74L454.3,249.08L456.22,249.78L458.51,249.73L460.81,250.83L461.87,249.11L464.33,251.3L463.06,252.35L466.11,254.82L466.48,257.36L468.69,258.84L467.59,259.94L466.32,262.55L465.91,268.4L463.73,269.24L463.09,270.27L461.04,270.52L460.52,269.54L458.47,268.72L458.14,266.4L454.63,266.04L455.55,263.72L452.27,263.23L450.67,265.19L450.71,267.63L447,267.82L443.43,268.61L442.82,266.38L440.8,268.46L438.91,266.02L436.1,265.96L436.44,267.46L433.95,267.02L433.12,264.73L430.72,265.4L427.26,264.12L428.8,262.5L424.15,260.17L423.8,257.48L422.58,256.25L421.62,258.33L419.75,258.14L419.25,262.32L417.84,262.11L417.22,258.68L413.51,253.9L411.84,253.65L409.82,255.95L410.44,256.9L409.16,258.36L405.94,258.97L404.34,257.57L401.88,258.96L398.79,257.31L397.81,257.33L395.46,255.73L390.24,255.07L388.52,257.12L386.5,256.52L387.5,255.24L387.93,251.49L391.97,249.67L392.99,248.82L392.6,247.3L393.5,244.91L391.48,243.8L392.96,242.7L392.33,241.21L392.29,238.57L393.97,235.93L392.75,234.18L390.31,233.82L390.44,236.04L388.29,236.96L385.48,236.44L384.55,239.3L382.72,239.77L382.67,237.99L379.48,238.24L374.1,236.33L373.38,233.31L374.06,230.06L375.93,229.87L375.84,228.14L371.77,226.88L370.59,224.94L370.13,222.62L367.28,221.55L365.19,219.45L366.7,217.8L367.7,215.15L366.19,213.31ZM494.41,277.2L494.93,279.27L492.73,279.02L493.34,277.12ZM451.39,218.84L452.97,220.22L454.64,220.7L455.03,223.25L457.05,223.68L456.83,225.56L458.35,229.86L462.93,232.88L464.11,234.61L468.41,235.26L469.32,234.36L471.65,237.92L473.79,238.43L476.25,239.88L477.82,239.47L480.5,240.5L481.68,239.72L486.02,239.43L489.44,240.98L488,242.34L488.02,244.16L489.65,245.88L492.87,248.3L490.89,250.58L491.39,253.93L490.66,255.78L491.98,256.55L491.69,258.96L493.93,261.81L493.6,265.14L494.68,266.87L497.47,268.13L498.12,269.33L500.19,268.69L501.5,269.92L505.12,269.81L508.87,270.36L508.16,272.15L508.8,274.67L508.58,276.8L507.39,279.33L504.55,281.01L502.97,278.17L501.15,277.43L499.98,277.87L499.14,279.88L497.59,278.88L496.09,276.28L496.23,274.23L494.04,272.82L491.44,273.27L492.02,271.2L491.75,267.92L490.8,265.96L488.69,264.55L489.36,262.36L487.29,262.56L487.44,260.2L485.73,259.6L484.7,257.24L482.37,255.19L480.91,256.25L477.76,256.37L474.66,255.16L473.15,256.11L468.99,254.68L466.8,255.46L465.61,252.69L465.75,247.29L464.63,245.7L460.7,244.78L459.78,242.01L457.9,241.11L457.02,239.2L455.16,238.42L453.45,236.77L452.24,234.68L448.3,232.49L446.68,230.56L443.98,229.53L441.49,230.3L439.78,229.44L439.28,227.81L437.45,227.95L437.38,229.69L435.94,230.51L432.7,230.38L430.19,231.17L431.16,228.57L433.46,228.17L435.11,227.04L441.46,224.43L441.94,222.09L443.63,220.71L447.02,220.84L448.04,219.88ZM504.46,222.59L508.46,225.44L508.29,227.95L512.27,231.26L512.98,234.1L510.28,234.71L509.08,233.23L507.96,233.68L507.71,230.3L505.29,229.34L503.96,229.56L501.69,227.95L503.36,226L502.54,224.35Z" class="land" id="GR-H" title="Central Greece"/>
    <path d="M445.96,280.91L445.39,279.8L442.6,278.58L443.1,274.7L445.39,273.98L447.41,272.53L445.84,271.04L446.01,268.67L443.43,268.61L447,267.82L450.71,267.63L450.67,265.19L452.27,263.23L455.55,263.72L454.63,266.04L458.14,266.4L458.47,268.72L460.52,269.54L461.04,270.52L463.09,270.27L463.73,269.24L465.91,268.4L466.32,262.55L467.59,259.94L468.69,258.84L470.7,259.31L472.15,258.92L475.01,260.45L480.42,262.01L482.55,264.37L485.75,266.84L486.06,268.96L483.07,270.61L481.65,272.08L482.61,274.3L482.53,276.26L483.93,278.58L482.89,280.41L484.61,283.67L483.67,285.49L486.28,289.66L486.06,291.81L484.91,293.22L485.73,296.09L483.01,297.71L479.75,296.76L479.07,294.4L478.1,293.25L478.1,291.04L475.12,288.54L472.2,287.53L467.9,281.32L466.06,282.35L464.92,281.13L462.6,280.49L462.47,279.46L464.64,277.78L463.52,275.7L461.12,275.66L459.6,276.78L457.98,276.82L456.34,278.91L453.89,279.78L448.73,279.57ZM456.75,311.44L458.06,309.28L453.14,308L451.68,306.92L448.95,306.22L448.07,305.31L445.78,304.97L445.37,303.36L446.76,300.96L448.73,301.63L449.9,303.25L452.69,304.6L454.27,303.47L453.87,302.18L452,300.12L452.36,298.99L455.04,298.54L456.37,300.11L454.53,303.34L457.39,306.21L460.99,308.91L460.03,310.8ZM435.8,369.03L437.24,372.32L439.95,373.98L442.44,376.53L441.92,377.84L440.26,377.95L440.1,381.92L437.33,382.76L435.18,381.38L433.72,379.06L433.38,377.3L434.53,376.33L434.13,373.36L432.97,372.35L434.32,369.21ZM459.44,303.21L460.09,306.31L458.39,306.05ZM459.8,278.09L461.61,278.92L461.9,281.6L460.77,283.13L457.6,285.39L456.04,283.84L455.92,282.24L458.7,282.57L458.49,280.95L457.1,280.65L458.72,278.53ZM459.71,291.05L463.14,291.55L461.19,294.59L461.34,295.61L459.33,296.64L458.24,294L457.23,293.6L456.82,291.38Z" class="land" id="GR-I" title="Attica"/>
    <path d="M443.1,274.7L442.6,278.58L445.39,279.8L445.96,280.91L443.9,282.67L440.38,283.15L438.26,282.85L435.94,280.82L436.59,279.96L433.89,277.24L432.23,276.33L434.26,274.33L436.3,273.64L437.82,274.68L440.25,275.21ZM443.01,318.7L445.2,319.94L443.91,321.29ZM462.9,313.68L463.14,314.56L460.28,315.29L460.33,316.68L457.8,316.74L458.48,314.75L460.97,313.69ZM446.76,300.96L445.37,303.36L445.78,304.97L448.07,305.31L448.95,306.22L451.68,306.92L453.14,308L458.06,309.28L456.75,311.44L456.14,311.84L453.28,311.12L451.67,312.43L449.5,312.03L449.41,313.89L450.18,315.08L446.42,315.38L445.8,316.4L446.7,318.13L444.26,317.77L442.58,314.74L441.14,313.33L443.74,311.48L443.27,309.19L440.34,309.19L439.82,307.51L437.98,308.67L436.6,305.41L433.19,304.55L431.25,305.69L429.62,304.51L428.92,302.24L427.89,301.32L425.25,302.73L426.15,305.48L425.64,307.2L426.59,309.73L427.64,310.7L426.82,312.43L428.82,314.26L430.58,318.78L431.68,319.39L433.04,322.19L433.27,327.85L436.06,328.42L436.27,330.53L437.99,333.13L437.46,335.96L439.29,339.68L440.16,343.53L441.08,343.96L441.84,346.38L441.92,349.11L439.1,349.58L439.59,352.57L439.29,355.3L440.55,357.14L443.57,359.05L444.23,361.59L443.63,362.46L446.56,364.52L446.64,365.88L444.29,365.55L443.64,366.26L441.73,365.37L440.62,363.77L440.89,362.31L438.64,360.73L436.41,361.25L435.03,357.77L432.7,356.26L432.57,354.14L430.18,351.89L428.85,348.48L428.23,345.73L426.33,345.32L421.06,345.31L418.32,347.39L418.91,349.35L416.5,350.82L415.43,353.5L416.74,355.91L414.43,356.04L414.68,359.31L414.24,360.78L415.54,362.57L415.54,367.8L414.09,367.66L413.61,365.07L409.58,363.67L408.69,361.76L410.4,358.18L409.37,356.72L409.03,351.55L408.31,350.64L406.39,344.88L404.67,343.46L403.86,341.14L402.17,339.72L400.84,340.62L398.8,339.24L399.69,337.91L399.41,336.42L399.83,333.5L396.85,332.9L392.93,333.72L390.06,335.48L390.25,338.25L389.68,342.09L390.42,345.14L390.17,348.01L387.65,350.19L387.03,348.43L384.61,345.25L382.48,346.41L379.96,344.93L378.84,340.77L380.26,337.64L378.13,336.45L377.14,334.26L374.16,331.16L374.51,329.3L373.8,325.28L374.43,323.45L377.53,320.43L378.45,320.1L379.53,317.93L379.6,315.81L378.79,312.99L379.54,312.37L382.93,312.08L386.44,312.47L388.34,311.8L387.83,309.91L388.73,308.33L392.76,306.34L390.51,303.8L389.37,303.43L387.74,300.68L383.66,301L383.74,298.6L384.51,295.73L383.73,292.64L383.81,289.59L384.54,288.36L387.91,285.81L388.31,287.25L392.44,289.73L395.55,290.64L397.58,288.47L400.68,289.65L402.33,288.01L404.74,287.27L402.95,284.4L404.04,282.95L403.79,280.84L406.11,280.22L409.26,276.68L409.95,273.41L409.8,270.03L411.64,270.71L415.06,270.43L417.34,272.07L421.7,273.72L425.62,276.14L427.67,278.14L428.53,279.85L431.32,281.65L433.23,282L435.94,280.86L438.45,283.37L437.46,284.97L438.11,286.81L442.72,286.75L444.16,287.62L445.87,290.74L443.12,293.35L445.55,295.07L444.63,296.38L445.47,298.41L445.05,299.91Z" class="land" id="GR-J" title="Peloponnese"/>
    <path d="M572.28,243.69L574.7,244.32L575.67,246.41L578.97,246.62L578.73,251.97L577.85,254.16L578.2,258.75L579.03,260.41L576.47,262.67L577.06,264.88L576.3,266.25L573.6,266.82L572.97,268.99L570.45,268.66L568.58,267.21L566.76,264.26L566.34,262.59L568.23,261.13L570.3,261.37L570.66,259.49L571.64,258.76L571.58,256.97L570.04,255.23L569.27,252L565.73,250.16L564.29,247.12L565.46,245.16L569.07,244.73ZM546.67,162.51L547.03,164.26L545.64,165.01L542.41,170.34L542.62,172.72L543.9,174.15L543.11,175.85L540.69,175.21L540.36,173.52L538.3,171.81L539.63,169.23L537.6,168.37L535.69,169.94L535.29,171.97L536.56,172.48L536.11,174.8L533.32,174.69L533.75,172.52L530.09,171.82L529.56,169.68L530.37,167.95L529.1,165.69L529.4,164.11L533.92,163.75L537.54,162.79L539,165.31L541.35,165.1L543.74,163.01ZM605.86,288.77L609.88,289.1L611.27,290.62L613.35,291.04L614.25,290.33L617.99,290.95L617.7,292.18L619.72,294.19L618.27,294.9L615.72,294.74L614.44,295.83L612.68,296.08L610.27,298.72L607.58,298.44L605.49,295.31L604.03,294.53L600.62,294.94L598.91,296.39L597.18,293.38L599.1,291.21L604.6,288.8ZM587.69,199.32L588.42,201.52L590.85,201.89L588.8,205.22L593.07,208.12L594.26,210.68L596.35,213.09L596.79,215.51L599.22,218.44L598.98,220.51L596.21,219.99L594.73,218.19L595.51,216.35L593.35,214.19L591.81,214.83L591.99,216.31L593.75,217.53L595.57,219.82L595.84,221.51L595,222.72L589.66,223.19L586.45,222.39L584.56,220.96L582.28,220.12L579.36,220.29L578.37,219.54L576.21,216.34L579.36,215.28L580.28,213.81L584.43,212.12L585.07,210.5L583.62,209.35L580.91,209.12L579.41,209.69L578.81,211.84L577.38,213.07L575.29,216.05L572.39,215.01L569.87,215.06L569.39,213.86L566.27,212.41L565.29,210.59L564.98,207.86L565.4,206.35L567.58,204.73L571.65,205.03L577.02,203.38L579.38,202.35L579.7,200.32L582.31,199.04L585.95,199.59ZM588.14,295.87L586.26,298.98L584.94,300.2L580.7,302.88L577.1,303.17L575.18,305.21L571.45,305.93L570.78,304.78L572.25,302.13L574.34,299.61L578.53,298.54L580.72,299.25L585.16,296.25ZM553.04,243.53L554.95,244.59L554.43,247.78L550.88,244.37ZM527.95,189.14L529.75,190.62L527.06,193.37L525.93,192.5L526.09,190.58ZM594.8,297.63L596.3,299.61L595.25,301.49L594.05,299.23Z" class="land" id="GR-K" title="Northern Aegean"/>
    <path d="M511.18,332.18L514.17,333.32L516.67,336.96L514.03,339.91L511.9,335.62L511.82,333.17ZM551.24,323.29L552.74,324.98L553.94,327.98L553.02,333.26L551.76,336.91L549.9,337.06L547.23,339.2L546.11,338.32L546.13,336.33L544.91,335.74L543.4,333.12L544.04,332.22L542.06,330.23L543.3,329.65L545.61,326.9L547.85,326.11L549.26,323.9ZM572.19,337.98L574.1,340.07L572.15,340.45L567.92,343.87L565.85,346.4L564.14,346.5L562.97,347.56L560.57,346.73L561.71,345.21L565.3,344.77L564.93,342.87L567.81,342L570.83,339.97L570.68,338.56ZM653.97,354.52L655.55,355.09L655.8,359.67L652.25,357.8L651.24,356.68L652.22,355.25ZM632.63,363.46L635.95,368.38L633.98,369.28L632.27,366.15L631.44,366.79L629.55,366.4L630.15,364.3L631.19,364.71ZM521.27,353.22L523,354.82L524.67,355.27L523.47,356.94L522.43,355.06L520.96,354.99ZM624.24,355.76L626.14,357.59L625.2,359.17L622.78,358.86L622.43,356.16ZM501.76,347.16L503.52,348.84L505.18,347.99L506.28,348.86L507.02,351.09L506.67,352.17L504.56,353.28L502.41,352.88L497.71,353.84L496.74,353.14L498.34,348.38L500.48,351.13L501.97,351.76L503.38,351.23L500.68,348.33ZM671.26,365.15L671.32,367.7L672.14,368.63L670.43,370.67L670.62,372.27L669.56,373.19L668.51,376.25L667.63,377.49L667.15,379.8L665.73,379.96L664.39,382.36L664.15,384.14L665.12,385.67L663.39,386.59L662.24,385.86L658.99,387.56L657.53,389.66L656.42,392.32L654.33,394.86L652.23,396.13L649.4,394.77L648.69,393.32L650.26,389.31L650.36,384.78L648.38,384L649.1,380.94L650.75,379.58L651.69,377.86L652.48,374.98L654.1,374.42L655.71,372.16L659.39,370.47L663.57,368L666.47,366.78L669.46,366.69ZM546.35,364.59L548.99,367.69L548.89,370.17L546.94,371.76L545.65,370.08L546.56,368.32ZM507.6,343.24L509.11,344.38L508.25,346.8L506.65,347.18L505.75,344.49ZM629.44,340.3L631.72,340.6L632.43,342.36L631,343.13L624.07,345.29L621.56,347.99L618.4,347.47L615.8,348.33L615.87,350.22L614.43,352.55L612.8,350.17L613.07,347.62L616.46,347.17L617.82,345.01L619.88,342.87L624.06,340.69L627.13,340.31L629.05,339.11ZM498.11,296L499.96,296.52L500.81,297.69L500.08,299.78L498.41,302.24L496.2,304.58L494.87,305.15L494.42,300.28L495.66,297.4ZM522.07,305.58L524.74,307.2L525.07,310.3L525.95,311.97L524.85,312.96L521.94,313.26L521.68,310.81L522.7,309.44ZM542.68,306.41L545.26,306.66L547.75,309.48L546.13,309.68L543.67,311.61L541.61,310.78L541.83,308.4L541.14,306.85ZM597.26,313.17L596.59,316.32L597.49,318.64L596.07,318.94L595.54,316.75L595.67,314.1ZM517.85,278.31L517.87,279.89L519.61,280.38L519.97,283.26L521.88,283.77L524.59,283.57L525.22,285.49L524.23,287.08L526.29,288.67L525.04,291.17L527.2,291.14L526,293.98L524.08,295.33L522.18,291.39L520.48,290.83L519.41,288.78L518.37,288.23L516.74,285.24L514.19,285.36L513.6,283.61L513.28,280.28L515.9,278.54ZM526.89,296.53L529.42,297.81L532.95,298.53L535.39,298.5L538.52,300.17L537.48,303.29L537.62,304.28L535.55,305.05L534.43,304.7L532.22,302.52L529.97,301.2L525.94,297.48ZM561.65,367.95L564.08,369.52L563.93,370.51L562.05,371.12L559.72,369.76ZM502.11,307.46L501.54,309.65L503.41,310.48L504.11,312.26L502.95,313.26L501.73,315.71L499.23,316.96L498.93,315.81L500.35,313.92L499.89,311.46L498.79,310.78L500.38,308.48ZM534.68,350.37L535.15,351.27L532.98,353.5L530.79,354.82L530.24,353.8L531.37,351.69L533.36,350.44ZM541.02,346.25L542.28,348.21L544.44,349.52L544.17,351.49L544.75,352.86L543.07,354.48L540.13,350.93L538.63,349.77L539.33,346.47ZM611.91,330.27L614.66,330.92L616.83,333.59L618.16,333.75L618.96,337.53L615.97,337.22L615.8,338.71L613.45,337.53L613.24,335.28L613.91,334.35L613.97,332.05ZM589.53,354.38L592.15,356.43L590.58,358.34L588.19,358.03L587.81,360.79L586.39,362.02L584.83,361.42L583.53,357.83L585.58,357.05L587.8,358.41L589.59,356.48ZM510.46,346.32L512.03,346.76L511.37,348.78L510.06,348.14ZM643.48,376.51L644.63,377.72L641.46,378.11L639.89,376.96ZM626.89,395.36L627.34,398.21L625.65,397.19ZM626.28,399.45L626.9,401.15L625.96,402.62L626.31,405.08L625.22,407.58L623.81,409.01L623.69,411.98L625.67,413.59L626.3,414.93L625.67,418.59L622.51,421.63L620.12,420.64L621.9,418.3L621.26,416.94L621.54,414.9L620.07,413.8L619.4,412.21L622,409.67L621.72,408.42L622.75,406L623.87,405.21L623.9,400.88L624.97,400.94ZM616.67,421.31L616.6,422.51L614.68,423.38L611.32,426.34L609.55,425.25L612.22,421.86L613.52,422.14ZM537.3,326.06L539.27,328.18L538.57,330.02L539.59,331.11L538.15,334.08L535.44,335.88L532.48,335L531.58,333.55L531.97,330.98L534.15,329.53L534.21,327.75ZM530.71,331.79L530.51,335.45L528.31,335.95L528.1,333.94ZM608.12,323.2L610.21,323.94L610.34,326.4L611.69,327.87L611.6,329.01L609.57,328.97L608.29,326.97L608.98,326.02L606.02,324.78L606.62,323.58ZM504.79,322.95L506.33,323.59L506.41,327.15L504.59,327.52L501.44,327.27L501.24,325.64L503.09,323.16Z" class="land" id="GR-L" title="Southern Aegean"/>
    <path d="M485.59,451.91L487.93,452.57L487.49,454.16L484.69,453.64ZM470.79,407.02L472.42,408.32L471.86,409.24L472.57,412.17L472.62,415.06L475.72,416.19L479.43,416.45L482.1,417.04L484.65,416.28L485.62,413.01L488,411.99L490.31,412.8L491.5,415.42L490.62,417.41L489.53,417.9L487.26,417.12L485.29,417.61L487.8,419.19L489.26,419.15L491.54,420.35L493.32,418.95L494.24,421.69L494.14,424.95L497.89,425.74L501.24,424.7L502.93,424.99L506.72,424.47L509.75,423.47L511.46,421.97L513.78,421.54L519.74,422.65L525.2,422.9L528.04,421.98L529.53,426.23L531.33,426.47L535.47,426.09L537.71,426.88L543.82,426.38L545.15,427.96L546.87,428.96L548.95,428.72L551.65,427.3L556.69,425.95L558.01,426.6L560.9,426.6L559.73,428.37L559.48,430.53L560.29,432.27L559.13,432.94L558.79,435.36L559.65,437.88L563.21,438.96L565.08,436.44L569.44,435.06L570.23,433.99L571.84,434.09L573.01,432.48L574.53,432.4L577.99,434.27L579.34,433.97L579.95,432.61L581.51,431.93L582.38,429.72L583.61,430.46L583.84,433.57L584.61,437.46L584.05,440.08L582.27,443.06L580.58,444.04L576.14,445.1L575.78,443.95L571.97,443.91L570.8,442.85L564.96,444.12L563.58,445.02L560.07,444.77L557.98,444.18L556.79,444.72L553.79,444.61L549.65,445.94L547.39,445.42L545.78,445.67L543.94,445.01L541.85,445.92L539.78,445.82L539.33,446.64L535.78,447.89L533.31,447.46L531.17,448.23L529.14,448.03L527.89,448.76L524.47,448.6L523.58,448.99L520.03,448.15L516.32,449.24L515.73,445.38L516.48,444.32L515.49,440.45L513.33,439.78L508.89,439.65L505.72,437.11L502.87,436.76L501.32,436.02L499.81,434.38L498.21,434.99L496.97,434.59L495.19,435.39L492.79,435.07L491.31,433.96L489.38,434.48L488.45,433.88L485.75,434.41L483.21,433.88L481.85,432.38L479.06,432.79L477.34,431.9L474.76,431.35L471.98,432.45L471.63,431.89L467.54,431.95L465.37,432.34L463.63,431.91L463.66,430.68L462.01,430.16L460.74,428.29L462.26,426.98L461.55,425.21L463.21,421.7L463.08,416.98L463.94,414.12L465.21,414.1L465.24,416.55L467.06,417.65L469.88,417.14L470.38,415.07L469.44,412.27L469.51,408.91ZM536.99,419.44L537.92,421.78L535.41,420.47Z" class="land" id="GR-M" title="Crete"/>
    <path d="M482.79,144.8L483.33,143.29L482.9,140.46L482.12,137.5L485.54,141.65L489.49,142.15L491.1,143.08L491.41,144.51L493.6,145.09L495.32,148.65L499.66,152.36L500.41,154.9L496.18,156.5L495.06,153.73L492.39,151.62L492.42,150.41L489.76,146.75L488.15,146.24L484.32,146Z" class="land" id="GR-69" title="Mount Athos"/>
  </g>
</svg>