<?xml version="1.0" encoding="UTF-8"?>
<svg xmlns="http://www.w3.org/2000/svg" width="283.56" height="366.04" viewBox="338.22 73.98 283.56 366.04" style="background-color:#000000">
  <!-- Created using SVG Map Generator: dojo.amcharts.com/svg-map-generator -->
  <style>
    .land { fill: #ffffff; stroke: #000000; stroke-width: 0.65; }
  </style>
  <g id="polygons">
    <path d="M573.75,197.04L572.69,196.12L571.63,196.45L570.8,197.82L570.12,197.55L569.86,195.82L568.59,195.86L568.6,199.68L567.29,200.77L565.92,200.51L564.58,201L563.5,199.63L562.37,199.15L562.15,200.26L561.33,200.51L560.64,201.41L559.57,200.96L558.74,201.51L556.39,201.18L555.81,202.17L554.57,202.73L553.24,200.69L552.56,200.66L552.8,198.22L553.45,197.45L552.53,195.57L553.61,194.25L554.18,191.85L553.38,190.07L552.26,188.49L550.27,187.74L549.6,188.29L549.22,189.48L548.16,189.41L547.36,188.03L546.27,187.91L544.05,185.56L543.37,183.48L543.41,182.29L541.52,181.36L540.87,180.01L541.98,179.23L541.83,177.24L540.5,174.11L539.41,173.75L539.19,172.12L536.37,170.01L535.02,168.54L532.65,167.45L531.24,168.29L529.51,171.24L528.19,172.3L528.54,173.52L527.63,173.64L525.88,175.25L524,174.92L524.5,176.35L524.26,177.58L523.42,177.53L522.84,178.23L522.89,179.21L524.74,180.05L526.37,183.04L526.15,185.65L525.08,186.13L523.83,185.51L523.12,186.29L521.81,186.62L521.19,187.78L520.34,188.43L520.51,190.29L519.67,192.9L519.84,193.79L518.37,194.04L517.85,193.09L518.61,192.2L518.91,190.94L518.29,190.5L517.35,190.85L515.73,192.98L516.76,193.65L517.39,194.9L516.67,195.47L515.31,195.75L515.07,194.69L513.87,193.65L511.03,193.18L511.75,191.9L510.04,192.3L508.77,193.19L508.12,194.83L507.05,194.78L505.45,194L504.37,195.16L503.41,194.55L502.81,193.29L501.49,193.24L500.18,191.99L500.07,190.57L498.08,188.98L497.46,189.51L496.88,187.25L494.18,187.62L493.44,186.87L490.46,187.26L489.96,187.73L487.64,186.37L487.4,182.26L486.7,181.11L486.98,179.12L486.28,179.34L485.31,178.46L482.69,177.97L481.69,176.26L479.91,174.04L479.01,173.32L476.53,172.13L474.28,168.21L471.26,165.69L472.21,164.5L470.4,163.27L471.75,162.78L473.74,162.81L474.72,161.44L477.53,161.2L477.67,159.31L479.61,155.72L480.66,155.9L481.62,155.45L482.53,156.8L484.88,156.5L488.24,156.79L489.44,155.83L489.03,155.33L489.46,154.23L490.9,153.22L490.95,152.48L492.64,151.94L493.4,150.79L495.71,150.04L495.8,147.54L494.02,148.87L492.28,148.61L490.09,146.5L489.18,147.58L488.21,147.79L487.49,147L487.57,145.94L485.15,144.93L484.63,143.46L485.34,142.62L484.31,141.65L484.84,141.18L486.45,140.91L487.6,139.01L488.98,137.73L489.78,137.92L490.66,139.34L491.97,139.68L492.18,140.25L493.64,140.6L494.21,139.71L495.52,138.81L496.26,138.9L499.45,136.52L500.67,137.18L504.08,136.99L505.03,136.46L504.39,135.69L504.69,133.44L504.56,132.61L505.62,131.16L508.06,129.6L510.06,125.29L510.1,124.2L509.59,122.89L509.93,121.38L509.89,119.12L510.54,118.54L512.68,118.19L512.13,117.2L512.43,115.63L512.01,114.7L512.87,113.32L512.29,112.48L512.64,111.32L515.27,108.21L516.83,108.68L517.89,107.7L518.38,108.29L519.35,106.99L520.1,106.7L520.51,107.74L522.58,107.73L524.14,107.22L526.1,107.61L526.17,108.64L527.16,109.04L531.24,108.32L531.73,107.43L533.36,105.79L532.99,104.63L533.2,103.5L534.28,103L535.69,99.16L536.12,96.05L535.85,94.66L536.93,94.89L538.19,96.07L540.07,97.02L541.93,97.24L544.68,97.01L546.48,97.22L548.7,96.92L549.75,95.1L550.77,94.41L552.52,94.22L552.79,93.77L554.45,93.37L555.29,93.54L558.79,92.54L559.67,91.71L559.48,90.92L560.83,90.24L560.95,89.66L562.95,89.27L563.35,90.06L567.09,90.83L567.72,90.08L570.21,90.42L571.53,91.34L572.23,91.16L575.51,93.68L578.61,92.72L579.83,91.51L580.78,91.53L582.01,93.04L582.9,93.3L584.82,94.9L585.61,96.4L586.57,96.98L586.96,98.15L586.9,99.75L586.11,100.6L586.43,101.39L586.29,103.52L585.48,104.87L585.3,107.32L586.07,107.91L588.69,107.29L589.84,107.76L590.35,108.8L589.54,112.39L588.76,114.08L589.42,114.94L590.19,114.82L590.71,115.86L591.78,115.81L592.68,116.61L593.88,118.51L594.95,121.6L595.95,122.42L596.85,122.37L597.13,124.01L598.52,125.39L599.4,127.25L601.11,126.83L601.24,126.18L603.16,127.24L604.05,128.55L605.12,131.21L604.96,133.89L605.22,134.87L604.08,136.92L602.82,137.73L602.05,138.76L599.99,139.23L596.94,140.7L594.04,143.7L593.78,144.97L593.03,146.07L592.83,147.15L593.52,147.56L592.79,149.87L593.62,150.11L594.5,149.55L594.62,148.29L599.25,144.94L600.48,144.58L602.4,143.35L603.85,144.4L605.76,144.17L607.26,144.5L608.27,143.85L611,143.33L611.79,144.54L613.2,145.54L613.94,147.15L613.7,148.53L614.33,150.87L616.04,152.73L616.71,154.15L616.32,155.6L616.4,156.62L617.07,157.67L617.54,160.21L619.13,161.31L618.93,162.98L617.89,165.86L616.62,166.85L617.41,168.09L617.49,170.93L616.58,170.91L615.88,172.65L615.99,173.33L615.27,175.77L614.68,174.57L613.79,174.14L613.81,172.94L612.05,170.28L611.11,169.36L611.21,168.33L611.96,166.61L613.29,167.04L613.53,166.49L613.7,162.78L613.43,160.65L612.97,160.43L612.2,156.95L611.19,157.09L610.34,155.52L609.29,154.55L607.99,154.23L605.61,152.25L604.72,153.64L604.85,155.68L604.3,156.56L605.75,157.86L607.24,158.18L605.91,160.2L607.01,160.26L607.7,161.87L607.97,163.46L607.8,164.84L608.42,165.84L608.39,166.71L607.52,167.53L607.8,169.27L607.29,170.47L606.03,171.64L606.62,172.48L608.26,172.05L609.19,171.35L611.5,170.99L612.69,172.24L612.7,173.66L613.21,175.07L612.98,175.67L613.37,177.51L612.84,178L612.06,180.09L609.44,183.43L608.39,182.51L608.02,184.04L606.74,185.52L606.04,184.69L605.67,183.43L603.37,183.32L602.94,182.93L601.5,183.57L598.04,183.92L594.8,186.36L594.26,187.38L595.09,189.03L595.25,191L594.99,192.41L594.35,193.8L594.48,195.07L593.97,196.44L593.09,197.52L590.9,199.11L590.7,199.91L588.36,201.06L587.15,202.76L585.02,204.16L582.47,202.6L583.1,200.49L580.74,200.52L579.3,200.15L578.27,199.43L577.84,197.61L577.17,197.08Z" class="land" id="GB-NIR" title="Northern Ireland"/>
    <path d="M425.28,284.73L424.3,285.01L424.03,285.75L425.06,288.19L428.19,289.63L429.66,290.85L429.93,291.43L431.42,291.76L431.12,294.1L431.97,295.95L431.2,296.59L432.06,299.6L433.2,299.4L434.69,298.59L435.07,299.36L436.34,299.37L437.37,299.91L437.76,298.51L439.96,296.99L440.93,295.18L442.06,295.1L443.75,293.89L445.7,293.73L446.99,293.93L449.67,293.67L450.06,295.42L451.23,295.34L451.42,296.25L452.35,296.77L452.26,297.62L452.74,299.04L453.81,298.58L454.94,299.13L455.59,300.02L456.6,299.37L457.47,297.99L458.25,298.86L459.33,299.09L460.6,300L461.51,298.74L462.84,298.91L463.15,299.59L464.55,300.43L463.25,302.03L462.49,303.95L461.52,305.17L458.71,305.01L457.95,305.34L457.2,308.82L455.27,311.17L455.55,314.36L456.15,315.04L455.71,316.84L454.79,317.75L453.94,319.19L452.32,320.14L452.64,322.74L451.69,324.07L450.52,324.55L450.44,325.8L448.56,327.16L448.39,328.39L447.75,329.55L446.82,330.13L446.18,329.55L443.56,329.61L442.58,329.32L442.81,327.86L444.49,327.16L444.78,325.6L442.97,325.66L441.46,326.95L440.24,326.65L438.43,326.7L434.73,325.53L433.27,324.71L431.99,324.6L429.43,325.99L427.63,325.82L427.34,325.12L429.66,323.67L428.56,321.8L428.68,320.63L427.98,320.17L428.56,319L427.74,318.42L426.82,318.42L423.85,320.05L423.56,320.46L424.02,321.8L423.9,322.67L422.86,324.02L421.87,326.05L421.06,326.29L420.65,327.74L419.2,328.79L418.67,330.08L417.45,331.3L415.71,331.36L414.43,331.88L412.28,331.88L411.7,332.11L410.82,333.98L410.18,334.27L407.97,334.45L407.74,333.28L410.3,331.3L409.89,330.72L408.73,331.3L406.29,331.53L404.43,332.41L402.33,332.52L401.46,331.88L399.43,331.83L397.97,330.84L397.1,330.84L396.34,329.9L396.23,327.74L395.36,327.28L394.48,327.92L394.36,329.38L395.06,330.43L393.73,330.95L393.2,332.11L391.11,331.88L389.43,332.7L387.85,332.82L387.21,334.8L385.37,334.67L385.34,335.27L383.84,335.98L381.8,336.6L380.83,336.16L378.94,336.16L377.95,337.29L376.16,337.17L376.17,335.66L377.1,335.14L377.85,335.34L378.12,334.3L381.93,333.03L381.97,332.16L382.67,331.77L383.71,330.43L385.22,329.89L386.31,328.85L386.45,328.25L387.86,327.68L388.04,327.02L389.62,325.99L390.36,325.2L390.67,324.05L392.28,323.01L391.71,321.6L392.74,321.47L392.86,320.52L395.55,319.78L396.29,320.35L398.28,320.31L399.02,318.97L398.5,318.11L399.58,317.52L399.05,314.61L400.78,313.96L402.08,312.47L401.69,310.78L402.53,309.35L402.21,308.01L404.22,306.93L406.44,304.87L406.74,303.67L405.98,302.51L405.34,302.55L403.92,303.45L402.61,303.49L401.89,303.09L400.35,303.67L399.8,303.5L400.21,302.11L401,301.69L402.36,300.13L402.35,298.73L404.39,296.67L403.52,295.79L404.2,295.18L404.88,293.7L405.83,292.93L406.23,290.96L408.89,289.02L410.08,286.71L409.87,285.59L410.4,284.45L411.38,283.53L413.79,284.87L415.76,285.3L415.9,285.78L417.39,286.71L418.17,286.49L419.95,284.54L419.52,283.36L420.15,283.15L421.74,283.46L422.71,283.18L423.95,284.32Z" class="land" id="IE-CE" title="Clare"/>
    <path d="M482.69,177.97L485.31,178.46L486.28,179.34L486.98,179.12L486.7,181.11L487.4,182.26L487.64,186.37L489.96,187.73L490.46,187.26L493.44,186.87L494.18,187.62L496.88,187.25L497.46,189.51L498.08,188.98L500.07,190.57L500.18,191.99L501.49,193.24L502.81,193.29L503.41,194.55L504.37,195.16L505.45,194L507.05,194.78L508.12,194.83L508.77,193.19L510.04,192.3L511.75,191.9L511.03,193.18L513.87,193.65L515.07,194.69L515.31,195.75L516.67,195.47L516.89,196.58L518.46,196.56L519.84,197.68L520.99,196.96L521.95,196.99L524.37,198.33L525.73,198.72L527.49,197.5L529.87,198.08L531.4,197.03L533.13,197.66L532.48,198.34L533.44,199.2L533.98,200.42L535.07,200.79L535.82,202.26L537.38,203.27L538.22,205.04L538.75,204.92L541.44,207.62L542.13,209.69L543.33,211.93L543.9,212.56L546.2,213L546.98,213.92L545.82,214.58L545.23,216.89L544.4,215.79L543.69,215.65L542.35,216.79L542.51,217.6L541.53,217.94L540.36,217.64L538.34,216.35L537.61,216.35L538.12,217.89L535.65,219.58L536.72,221.51L538.52,223.24L538.81,224.01L538.31,224.77L537.52,224.72L537.03,226.59L536.23,225.7L534.18,227.98L531.83,226.99L530.55,227.27L528.45,227.03L528.34,225.94L527.13,225.65L526.02,224.57L525.57,225.22L523.54,225.28L522.54,226.12L522.21,227.15L520.46,227L519.2,226.49L518.62,224.94L517.37,223.67L515.52,224.86L513.9,226L511.94,226.98L511.65,225.72L510.52,225.34L508.61,223.8L508.81,223.04L508.24,220.66L507.16,219.24L505.56,218.95L504.58,219.81L502.48,219.49L503.07,217.41L503.84,217.61L504.14,216.25L503.76,215.21L502.51,214.4L500.91,212.18L501.25,211.2L502.25,210.02L501.81,209.35L502.51,208.56L501.59,207.58L501.97,206.63L501.52,205.11L499.31,204.01L498.64,202.41L498.45,201.13L497.11,200.62L495.75,198.52L494.28,198.7L494.04,197.64L493.05,196.59L491.38,196.34L490.8,195.58L489.1,197.3L487.58,195.9L487.98,195.36L486.63,194.71L485.93,193.19L483.9,190.83L482.55,189.92L480.46,189.67L479.47,188.62L478.82,189.14L477.48,189.13L477.3,187.9L477.98,186.64L476.72,184.48L477.61,182.83L479.29,183.3L480.72,181.95L481.29,180.09Z" class="land" id="IE-CN" title="Cavan"/>
    <path d="M413.85,360.34L414.25,359.56L416.18,359.02L417.27,357.44L418.06,357.1L418.27,356.17L419.78,357.17L421.71,357.3L423.28,358.16L423.88,358.06L425.28,359.17L426.12,360.56L427.02,360.6L426.49,359L428.07,358.28L430.36,357.85L431.46,357.31L432.36,355.29L433.7,355.01L433.67,354.09L434.97,353.76L435.4,352.59L436.32,352.37L436.88,353.64L437.67,352.45L440.04,353.74L442.98,352.85L443.34,354.27L444.4,355.83L446.51,356.59L447.18,358.17L448.15,359.39L449.62,359.43L450.5,360.92L452.46,361.92L453.34,361.4L455.19,361.17L456.17,360.7L458.89,360.54L459.15,359.44L460.17,359.07L460.26,358.28L461.49,357.53L462.07,358.45L462.94,358.55L463.96,360.45L464.67,361.1L466.47,360.21L468.61,360.43L469.86,361.02L470.24,362.16L470.99,362.06L471.24,365.13L471.63,365.45L474.29,366.16L474.22,368.3L473.5,369.13L472.9,371.73L471.56,372.01L471.51,373.35L472.39,373.95L473.81,373.63L474.83,374.58L476.25,373.97L476.5,374.43L476.19,376.12L477.41,376.4L478.25,377.32L479.02,379.96L478.63,381.83L479.42,382.1L480.63,383.39L481.86,384.23L482.14,384.82L483.69,385.74L483.62,386.51L484.34,388.74L486.79,388.92L487.85,388.48L488.6,390.69L488.54,391.85L487.27,392.76L486.25,394.45L485.08,394.78L485.84,395.82L487.29,396.82L486.88,397.4L485.9,397.36L481.27,398.38L479.83,399.12L478.51,400.72L479.55,402.02L477.27,402.66L476.53,403.31L474.9,403.26L472.84,403.64L471.16,405.29L470.23,404.57L468.66,404.81L468,404.6L466.15,404.85L466.42,403.69L465.67,402.67L467.88,400.47L469.46,400.26L469.74,399.15L467.02,399.04L463.38,399.97L462.05,399.83L461.47,400.58L462.06,401.35L463.48,401.41L463.99,403.07L465.08,404.32L463.99,405.95L463.76,408.05L463.12,409.1L463.06,410.13L462.04,409.94L461.32,411.55L459.12,411.64L458.65,412.78L457.21,412.57L456.98,413.51L456.1,414.17L453.16,415.03L453.24,413.76L451.77,414.55L451.12,416.21L450.14,417.8L450.72,418.78L449.75,419.29L449.49,418.23L448.54,417.72L444.32,418.54L443.68,417.03L443.12,417.64L442.12,417.37L441.47,418.13L442.72,419.17L442.02,419.79L442.6,420.77L441.71,422.43L442.14,423.11L441.62,423.98L439.46,423.77L438.97,422.76L437.65,422.59L436.3,421.99L432.93,422.31L432.83,423.65L431.6,424.16L431.25,425.7L430.24,426.76L429.07,426.26L425.81,424.4L424.93,425.17L424.06,425.14L422.83,425.87L421.14,426.26L419.87,425.63L419.18,426.11L419.72,427.05L418.26,427.69L417.69,428.48L416.18,428.97L415.42,428.7L413.9,430.52L414.22,431.48L413.27,432L411.26,430.21L409.77,430.67L408.29,432.16L406.66,432.77L405.04,433.07L404.72,429.44L403.24,430.69L402.29,429.5L403.61,428.43L404.35,426.46L403.22,426.91L403.14,425.88L401.48,425.77L401.85,426.96L400.56,428.33L399.06,428.31L398.31,428.79L396.98,428.7L395.13,429.92L393.8,429.9L393.93,430.58L392.94,430.98L391.53,430.47L391.38,429.33L390.06,428.97L389.1,429.96L387.46,431.05L387.22,432.26L384.47,433.76L383.26,433.71L382.47,434.67L381.46,434.48L381.34,433.57L381.93,432.65L380.66,432.29L381.66,431.09L383.64,429.94L383.79,429.39L385.09,428.4L386.56,428.29L388.35,427.71L389.43,426.53L390.71,425.82L390.74,424.74L392.35,424L393.73,422.68L394.49,421.61L394,420.69L389.96,423.04L388.15,423.48L387.46,424.23L386.34,424.34L383.69,425.95L382.62,425.97L382.02,426.51L379.89,426.88L380.55,425.93L383.12,424.32L383.16,423.43L383.93,423.19L385.16,422.19L386.72,421.67L387.88,420.5L390.31,419.23L391.29,419.12L395.25,417.03L398.01,416.15L399.19,414.76L400.46,414.67L401.21,413.37L400.73,411.23L399.51,411.66L398.45,411.48L397.93,410.45L396.91,410.32L396.85,408.61L395.66,408.83L395.32,410.01L396.18,410.88L395.87,411.75L394.61,412.36L393.3,413.56L390.46,415.2L386.94,414.55L386.35,415.16L385.23,415.45L384.22,416.23L381.2,416.44L378.45,416.79L377.95,417.34L376.87,417.17L375.24,419.83L373.97,420.34L373.17,420.13L370.33,422.15L369.3,422.66L368.48,422.22L368.8,421.41L364.46,422.14L362.85,420.88L363.7,419.92L364.29,420.59L367.83,419.69L368.29,417.5L367.43,417.26L366.78,416.5L365.58,416.18L366.53,415.22L368.42,415.73L369.68,414.9L370.26,415.32L371.32,414.93L371.5,414.25L372.95,414.16L372.98,413.33L374.04,411.66L371.1,411.61L371.36,411.04L374.46,409.32L376.38,408.64L377.66,407.45L378.11,408.87L379.2,408.49L380.38,410.07L379.84,410.85L380.9,411.36L380.7,412.9L381.04,413.85L382.74,413.44L384.38,411.81L384.36,411.15L385.6,410.36L386.36,409.45L387.49,408.95L388.08,409.21L389.43,408.68L390.3,407.19L391.97,405.33L394.23,405.49L394.94,404.98L396.24,404.92L397.24,405.28L399.48,405.07L400.58,404.64L401.34,403.71L401.98,401.95L403.66,401.9L404.68,400.97L406.07,401.08L406.69,400.39L407.73,400.14L407.99,399.21L408.84,398.68L409.26,397.29L409.99,396.87L410.5,395.42L409.79,395.06L410.12,394.16L409.25,393.24L408.99,391.75L410.61,390.45L411.4,390.16L411.8,389.25L414.15,388.72L415.15,388.04L417.17,387.75L418.21,388.09L419.23,386.63L418.32,386.19L416.83,386.18L415.87,384.19L414.37,384.51L413.73,382.15L414.43,380.33L415.33,380.02L415.3,379.13L413.26,375.9L413.44,375.32L412.78,373.58L413.11,371.06L412.36,370.4L411.99,368.05L410.76,366.32L410.9,364.05L412.3,363.14L412.22,362.02L413.58,361.64L414.23,361.04ZM362.59,420.91L362.71,421.42L360.55,422.6L358.59,423.15L360.4,421.36L361.41,420.89ZM399.55,413.04L398.7,414.27L397.1,414.43L398.58,413.09ZM403.53,431.2L404.22,432.84L402.78,433.83L402.79,432.19ZM382.69,418.21L381.16,419.14L378.06,420.23L376.21,420.38L375.84,420.07L376.4,418.64L380.34,417.79L381.16,418.38ZM400.47,434.47L400.59,434.94L399.69,436.07L397.81,437.37L397.47,436.55L399.47,434.63Z" class="land" id="IE-CO" title="Cork"/>
    <path d="M548.33,305.16L549.72,304.94L551.14,306.18L551.93,305.69L556.42,306.9L556.57,308.34L557.58,308.15L558.56,308.67L559.37,307.4L560.79,308.33L560.76,309.38L559.72,309.6L559.95,311.56L559.29,313.53L557.73,314.12L557.37,315.22L555.61,314.59L554.97,314.76L554.43,313.54L552.46,312.33L552.18,313.72L550.42,315.02L550.59,317.78L551.55,317.18L552.83,318.36L553.38,319.63L552.92,320.31L554.16,321.76L555.05,323.36L554.1,324.1L553.34,325.53L551.88,326.3L551.78,327.66L552.92,327.85L552.38,329.11L551.2,330.2L548.84,329.59L547.64,329.95L546.27,331.37L545.9,333.6L546.03,335.2L545.53,336.49L544.68,336.6L544.63,337.74L542.94,339.56L543.14,340.66L541.93,342.69L541.29,344.46L539.8,345.51L538.61,345.5L537.33,342.32L537.72,340.84L537.61,339.9L536.77,339.6L537.02,338.59L538.65,336.87L538.52,335.34L536.83,333.32L535.7,332.96L534.71,330.73L535.04,329.52L534.82,328.23L535.31,327.25L534.36,326.68L533.81,324.93L531.71,323.19L531.31,324.03L530.41,323.58L528.57,320.27L529.47,319.34L529.29,317.68L530.51,316.91L530.78,316.26L531.69,315.96L532.09,314.79L535.61,314.65L536.74,314.27L537.47,313.19L537.06,312.01L537.91,311.42L537.47,308.57L537.84,307.81L539.26,309.36L540.55,310.24L543.1,309.76L544.16,308.94L545.48,309.56L546.85,307.41L547.85,306.73L547.74,305.43Z" class="land" id="IE-CW" title="Carlow"/>
    <path d="M588.2,252.74L587.77,253.73L586.47,253.12L587.73,252.31ZM582.76,278.39L580.9,279.53L579.71,279.29L578.55,277.68L577.02,277.93L575.2,279.25L573.3,278.41L572.54,277.48L571.95,277.23L571.39,279.94L570.17,281.42L568.06,280.14L568.32,278.22L566.88,278.26L565.98,277.88L565.53,276.68L562.58,276.35L562.76,276.08L559.35,274.59L560.33,273.73L558.69,272.26L559.67,271.37L559.74,270.25L559.11,269.71L560.23,268.25L561.24,268.48L561.7,266.99L561.39,266.3L561.86,264.8L562.46,264.66L562.97,262.94L563.59,262.32L564.41,260.93L565.52,259.77L565.97,257.66L567.25,257.83L569.15,257.05L569.03,255.9L569.99,254.15L569.59,252.25L568.38,251.56L568.44,250.81L567.12,249.97L566.16,249.81L564.71,247.86L565.37,246.06L566.38,245.63L567.19,243.84L568.29,244.05L570.16,245.57L571.01,245.25L571.56,244.39L572.68,244.06L573.53,243.27L573.52,241.72L574.27,240.15L575.27,239.87L575.8,240.44L576.69,240L578.04,240.29L578.09,241.33L579.33,242.43L580.29,244.22L582.66,244.83L583,246.03L583.73,246.64L584.02,248.53L583.54,249.39L584.2,250.36L583.08,250.6L582.36,251.22L581.47,250.94L579.34,251.75L581.71,252.27L583.01,252.84L582.67,253.49L581.11,255.04L580.49,254.51L577.89,255.39L578.9,256.24L580.73,256.66L581.58,257.25L581.63,259.24L581.98,261.88L584.24,262.15L585.05,261.92L585.92,262.95L585.4,264.27L584.03,264.8L582.99,263.96L582.36,262.47L581.3,262.45L579.83,263.25L578.63,264.81L577.52,265.56L578.75,266.56L577.89,267.25L576.83,267.26L577.27,268.94L577.73,269.44L579.99,270.78L580.63,270.54L581.97,271.55L582.67,271.68L583.38,273.04L582.31,274.07L582.27,275.73Z" class="land" id="IE-D" title="Dublin"/>
    <path d="M451.06,111.85L453.01,112.81L452.76,113.57L453.38,114.56L453.4,115.52L450.35,115.57L449.55,114.58L449.32,113.5ZM520.1,106.7L519.35,106.99L518.38,108.29L517.89,107.7L516.83,108.68L515.27,108.21L512.64,111.32L512.29,112.48L512.87,113.32L512.01,114.7L512.43,115.63L512.13,117.2L512.68,118.19L510.54,118.54L509.89,119.12L509.93,121.38L509.59,122.89L510.1,124.2L510.06,125.29L508.06,129.6L505.62,131.16L504.56,132.61L504.69,133.44L504.39,135.69L505.03,136.46L504.08,136.99L500.67,137.18L499.45,136.52L496.26,138.9L495.52,138.81L494.21,139.71L493.64,140.6L492.18,140.25L491.97,139.68L490.66,139.34L489.78,137.92L488.98,137.73L487.6,139.01L486.45,140.91L484.84,141.18L484.31,141.65L485.34,142.62L484.63,143.46L485.15,144.93L487.57,145.94L487.49,147L488.21,147.79L489.18,147.58L490.09,146.5L492.28,148.61L494.02,148.87L495.8,147.54L495.71,150.04L493.4,150.79L492.64,151.94L490.95,152.48L490.9,153.22L489.46,154.23L489.03,155.33L489.44,155.83L488.24,156.79L484.88,156.5L482.53,156.8L481.62,155.45L480.66,155.9L479.61,155.72L477.67,159.31L477.53,161.2L474.72,161.44L473.74,162.81L471.75,162.78L470.4,163.27L468.01,162.47L467.21,163.56L464.35,162.09L464.51,161.12L465.47,160.77L465.98,158.82L465.28,157.84L467.74,155.66L468.36,155.42L467.78,153.55L468.69,153.12L469.43,152.05L470.21,151.85L470.84,150.96L470.66,148.74L472.42,150.27L472.58,148.89L473.14,147.83L473.14,146.48L471.58,147.3L469.71,146.78L468.57,147.82L467.36,148.37L465.01,150.01L463.54,149.79L464.54,147.77L465.08,147.23L464.45,146.22L463.31,147L461.28,147.76L460.76,149.15L459.46,150.15L459.32,148.36L458.39,147.23L457.3,148.19L455.84,148.47L454.72,150.04L453.65,150.14L453.5,148.94L453.93,147.17L450.38,148.95L449.15,149.32L446.26,148.87L445.7,148.49L443.97,148.74L443.03,148.47L442.36,146.64L440.57,146.23L439.77,145.71L437.98,145.28L437.34,143.6L437.25,142.53L436.3,141.72L436.6,141L437.62,141.04L439.29,140.01L439.27,138.54L440.01,137.64L441.74,136.23L443.42,135.55L443.73,134.61L445.31,134.54L447.68,133.84L450.06,134.56L450.89,135.09L454.09,135.66L454.44,134.95L452.51,134.14L451.89,134.41L450.27,133.4L451.04,132.7L451.96,133.26L453.19,131.92L452.89,131L451.14,130.28L449.27,129.15L450.86,128.51L452.22,128.89L452.65,127.64L453.47,127.24L455.62,128.05L456.9,127.2L459.06,127.94L459.19,124.32L459.88,124.62L460.78,123.94L462.44,124.81L462.43,123.93L461.32,123.15L460.88,121.93L459.4,122.48L458.78,123.36L457.64,122.51L455.88,121.93L455.04,120.61L455.82,119.48L455.28,118.16L457.79,118.98L458.95,118.22L459.3,117.46L457.47,116.81L455.51,113.28L455.44,112.44L456.57,112.32L457.8,112.91L457.71,111.34L459.83,109.15L460.87,109.27L461.26,108.45L460.95,107.04L461.98,106.72L462.67,104.4L462.59,103.08L463.02,101.68L463.77,101.14L464.35,98L464.98,98.42L468.95,99.15L470.77,99.3L471.53,98.78L471.77,97.6L472.75,97.78L471.99,99.02L471.1,99.57L471.77,100.67L473.61,97.91L476.06,97.6L477.6,96.41L478.53,96.51L478.48,95.09L478.9,92.7L480.82,91.63L481.7,92.9L482.98,92.81L482.97,94.34L482.11,94.96L482.88,95.89L484.49,95.45L486.04,96.91L487.74,97.56L487.15,98.84L485.74,99.16L487.22,100.19L488.64,98.82L489.39,96.1L488.68,94.61L487.4,94.64L486.78,93.94L486.95,92.12L488.37,91.1L489.76,91.63L489.63,90.39L490.24,89.72L491.2,90.21L491.31,90.99L490.26,92.55L490.05,94.32L490.96,95.56L492.43,95.68L494.75,97.17L495.55,97.25L496.41,98.66L496.4,99.93L495.84,102.74L496.58,102.43L497.77,99.62L497.99,97.96L495.61,94.93L496.29,93.8L495.68,91.23L494.92,92.32L495.5,93.5L494.98,94.19L495.14,96.3L493.73,95.35L494.28,94.42L492.21,94.81L491.79,93.72L490.96,93.46L491,92.11L491.76,91.92L492.97,90.79L492.92,90.14L494.47,88.84L494.66,89.6L496.07,89.52L498.48,86.81L500,87.53L500.59,88.86L500.78,90.38L501.31,90.96L501.05,92.43L500.13,93.73L500.83,94.89L501.92,95.16L503.03,95.98L502.98,97.24L504.13,98.28L504.73,99.53L505.85,100.56L505.95,101.4L505.23,102.53L505.06,104.15L502.41,105.32L501.61,106.49L501.71,107.19L500.22,107.57L499.74,108.48L501.07,108.88L503.29,107.99L503.7,109.81L501.76,111.86L499.42,113.36L498.01,117.02L500.3,116.42L501.8,113.55L503.95,111.83L504.87,110.72L506.12,110.68L506.33,109.14L509.46,108.77L509.95,108.14L509.29,105.67L508.2,104.65L508.18,103.29L509.04,102.15L509.1,99.85L508.45,99.76L507.75,98.08L506.85,97.59L506.18,95.72L504.14,94.55L504.49,92.47L504.96,91.34L505.93,90.4L505.12,89.52L506.21,88.76L506.47,87.38L505.57,86.4L506.79,85.5L508.06,86.26L508.94,86L510.49,86.5L511.45,85.34L513.34,85.32L514.42,82.88L515.9,83.38L517.33,84.74L517.31,86.1L518.52,86.97L520.3,86.26L516.79,83.51L516.15,83.43L515.92,82.12L514.93,81.42L515.15,78.89L513.86,78.77L512.85,77.35L513.93,76.63L515.65,77.47L515.96,78.13L518.96,78.26L519.34,78.81L520.81,78.91L521.49,79.64L523.52,80.12L524.3,80.66L524.85,81.85L524.51,82.67L525.54,83.6L525.61,84.93L528.95,85.96L530.26,87.17L531.6,86.92L532.09,87.54L533.5,87.86L534.34,88.9L535.28,88.63L536.64,89.03L538.29,90.59L537.91,91.7L536.58,93.12L533.88,94.4L532.89,95.1L531.45,95.42L531,95.92L528.48,97.26L527.6,98.01L525.44,99.03L522.97,102.01L522.61,103.2L520.98,105.14ZM506.18,105.08L507.38,105.04L509.42,107.8L507.18,108.49L506.62,107.74L505.62,107.48L505.15,106.18Z" class="land" id="IE-DL" title="Donegal"/>
    <path d="M435.66,236.79L436.72,237.74L437.81,237.08L439.76,237.25L444.04,236.07L445.16,235.14L445.53,233.48L448.3,233.04L448.86,232.25L451.08,232.26L451.8,232.77L453.14,232.43L454.52,232.53L455.24,233.42L455.2,234.29L456.37,236.06L458.07,236.89L460.15,238.21L459.92,239.34L458.67,239.37L458.27,240.28L459.33,241.48L459.45,242.95L460.71,243.09L461.48,244.16L461.47,245.01L463.19,244.98L463.73,246.08L464.15,250.44L463.99,251.27L464.96,252.56L465.14,253.92L464.32,254.66L465.59,255.55L465.67,256.12L466.93,257.06L465.69,257.99L465.92,260.06L466.85,260.13L467.62,261.64L466.69,264.27L467.39,265.84L468.35,266.29L469.08,266.01L469.69,267.16L469.37,269.62L470.27,271.38L474.98,272.73L476.94,272.78L478.32,273.64L478.43,274.58L479.5,274.75L481.28,276.21L481.55,278.09L480.4,279.95L477.87,279.84L476.65,280.45L475.39,282.08L475.43,282.5L475.22,282.8L472.92,283.24L471.97,284.21L470.65,286.52L470.73,287.18L469.01,290.02L467.91,291.46L465.64,292.36L464.91,295.76L463.71,296.71L462.84,298.91L461.51,298.74L460.6,300L459.33,299.09L458.25,298.86L457.47,297.99L456.6,299.37L455.59,300.02L454.94,299.13L453.81,298.58L452.74,299.04L452.26,297.62L452.35,296.77L451.42,296.25L451.23,295.34L450.06,295.42L449.67,293.67L446.99,293.93L445.7,293.73L443.75,293.89L442.06,295.1L440.93,295.18L439.96,296.99L437.76,298.51L437.37,299.91L436.34,299.37L435.07,299.36L434.69,298.59L433.2,299.4L432.06,299.6L431.2,296.59L431.97,295.95L431.12,294.1L431.42,291.76L429.93,291.43L429.66,290.85L428.19,289.63L425.06,288.19L424.03,285.75L424.3,285.01L425.28,284.73L425.38,283.96L423.08,282.51L424.43,282.07L427.22,282.27L427.52,283.14L429.23,284.78L429.24,283.6L428.49,280.93L429.56,279.65L429.73,278.25L428.9,278.25L426.97,278.88L425.79,278.26L427.02,275.77L427.05,274.33L428.46,274.31L429.45,273.08L428.7,272.82L426.09,273.8L426.06,273.04L424.78,273.38L423.68,273.11L422.74,273.7L416.84,275.24L413.49,274.94L412.36,275.33L408.93,275.51L407.32,275.92L406.01,275.6L403.9,276.38L401.18,276.33L400.38,277.06L397.32,277.46L395.87,275.96L395.69,274.63L394.93,273.68L395.55,273.25L395.52,271.79L394.04,272.97L394.55,273.89L394.33,275.2L392.79,275.94L391.74,275.92L391.45,274.82L391.98,273.52L393.26,272.19L393.16,270.78L391.78,268.71L391.97,268.01L394.07,267.77L395.94,266.54L393.36,264.95L393.5,263.74L395.46,263.42L395.3,261.23L393.75,262.99L393.06,263.4L393.19,264.28L392.81,265.96L393.34,267.06L391.73,267.59L390.83,267.55L390.31,266.4L391.56,263.47L391.38,262.41L390.04,263.08L389.62,263.98L387.98,264.78L387.07,267.12L386.02,268.66L385.9,269.6L384.57,269.77L383.32,270.77L382.73,269.78L380.52,269.3L379.68,269.44L380.26,271.16L379.51,271.13L378.84,270.32L378.91,269.37L377.97,269.24L376.58,268.16L376.96,266.76L377.83,266.3L377.13,265.46L377.66,263.99L378.72,264.1L381.28,263.35L381.87,262.49L383.08,261.93L381.13,260.61L378.87,261.16L377.88,261.77L377.65,260.03L376.89,258.99L376.02,259.87L375.87,262.32L374.59,263.19L373.09,262.67L372.14,263L369.36,262.09L369.35,260.46L368,259.89L366.03,259.88L364.48,260.63L362.58,258.51L363.53,257.65L364.13,256.55L366.07,256.7L366.47,257.73L367.87,257.39L367.98,256.56L367.6,254.84L365.94,253.87L367,253.14L366.49,252.42L364.73,252.04L363.98,250.25L365.49,250.37L366.84,251.51L367.43,250.8L366.07,250.38L364.1,250.08L363.46,248.29L361.14,248.16L361,247.14L363.19,246.16L364.1,246.88L364.65,246.59L366.49,247.38L364.45,245.22L366.94,245.32L368.07,245.81L368.9,245.63L370.61,246.09L370.29,246.86L371.02,247.68L372.73,247.04L371.25,245.47L370.15,245.03L368.99,243.6L368.76,242.11L370.3,242.45L371.58,242.05L373.25,242.98L375.02,243.22L376.32,242.91L376.8,242.15L378.27,241.53L378.41,240.53L383.49,243.25L385.88,242.93L387.71,243.05L389.5,241.9L390.51,242.98L392.63,242.55L394.34,243.16L395.15,242.01L396.21,244.66L397.85,244.98L399.71,246.51L401.75,246.26L402.99,246.37L403.67,245.98L406.18,245.59L406.94,246.42L406.58,247.4L407.03,248.43L408.03,248.55L408.37,247.72L409.96,248.02L410.71,250.82L412.99,252.33L412.96,253.92L414.59,254.53L415.75,254.59L417.11,253.6L418.36,254.09L419.39,252.68L420.27,252.77L420.66,250.81L423.66,248.99L424.23,247.69L423.49,246.15L423.29,245.02L425.41,244.52L424.84,243.33L426.84,242.47L426.49,241.22L427.1,240.59L427.3,238.06L428.72,237.32L430.42,238.83L431.1,238.21L432.99,237.89L434.17,238.14ZM397.41,291.5L398.38,292.06L397.11,293.26L395.6,292.94L396.17,291.58ZM394.71,288.29L395.13,289.64L394.34,290.86L392.88,291.46L392.2,291L392.38,289.97L393.3,288.58ZM386.26,275.05L386.41,275.95L385.64,276.75L385.4,275.12ZM383.5,284.09L384.43,284.16L384.94,285.63L385.86,285.04L387.57,284.7L390.13,285.61L389.51,287.72L391.01,288.4L390.25,289.4L388.37,288.1L386.68,287.23L385.48,286.91L384.53,286.18L380.77,284.94L381.86,283.83ZM389.18,269.88L391.1,270.77L390.16,271.47L389.11,271.56L387.1,270.66L388.52,269.5ZM363.19,249.4L362.26,250.03L361.58,248.9L362.67,248.65ZM390.16,271.91L390.69,273.66L390.84,275.61L390.03,277.01L389.06,277.19L386.96,276.27L387.56,274.69L386.48,273.68L388.67,273.02L388.7,272.13ZM360.83,239.79L361.7,240.11L361.86,241.33L360.89,242.38L360.23,241.8L358.74,241.91L357.65,241.35L359.34,240.15ZM376.97,260.1L377.54,261.72L377.4,263.02L376.79,263.41L376.45,261.68Z" class="land" id="IE-G" title="Galway"/>
    <path d="M529.6,262.99L530.07,261.51L532.27,260.34L533.79,257.93L536.04,256.6L536.92,257.47L538.65,256.9L538.82,257.87L540,258.81L540.55,259.97L542.49,260.97L544.22,261.39L545.41,259.52L547.73,258.49L551,260.08L553.09,261.78L553.99,261.79L557.3,262.44L558.42,260.85L559.23,261.72L561.47,262.84L562.11,262.28L563.59,262.32L562.97,262.94L562.46,264.66L561.86,264.8L561.39,266.3L561.7,266.99L561.24,268.48L560.23,268.25L559.11,269.71L559.74,270.25L559.67,271.37L558.69,272.26L560.33,273.73L559.35,274.59L562.76,276.08L562.58,276.35L561.59,277.62L560.75,278.15L561.25,278.99L560.07,280.65L559.11,280.41L558.12,281.06L558.03,281.83L559.03,282.49L557.24,283.97L557.17,285.48L555.25,288.03L554.4,288.07L554.15,289.14L552.47,289.49L551.26,290.53L549.32,291.09L548.6,291.6L548.7,292.95L547.25,295.29L546.14,295.72L546.69,296.68L545.52,297.52L545.21,298.27L545.67,299.69L548.3,302.66L548.59,304.04L548.33,305.16L547.74,305.43L547.85,306.73L546.85,307.41L545.48,309.56L544.16,308.94L543.1,309.76L540.55,310.24L539.26,309.36L537.84,307.81L537.47,308.57L537.27,307.29L537.59,305.04L535.75,301.26L535.21,299.42L532.92,300.59L533.01,299.73L530.9,299.2L529.23,297L530.25,295.58L530.83,292.84L531.38,292.37L531.56,290.91L530.96,288.18L530.12,287.62L529.44,285.74L528.56,285.2L529.03,284.14L528.68,283.21L530.55,283.02L529.63,281.98L528.42,282.33L527.3,281.18L525.34,281.07L525.65,280.27L528.72,280.63L530.31,280.21L532.13,280.29L532.04,278.8L533.43,277.83L532.33,277.03L531.56,277.26L531.34,275.49L533.06,274.59L532.34,272.33L534.56,271.69L533.48,270.72L535.34,269.66L534.68,268.53L532.77,267.67L532.84,266.69L531.75,265.27L530.85,265.57L529.23,263.98Z" class="land" id="IE-KE" title="Kildare"/>
    <path d="M497.52,317.11L498.78,316.37L500.73,316.32L500.78,314.74L502.43,313.52L503.44,313.68L503.8,314.65L505.5,314.5L507.48,315.73L508.19,316.74L509.71,316.47L510.82,315.12L512.36,315.79L512.91,313.78L513.8,312.75L515.29,312.71L516.45,309.97L517.31,309.47L520.02,311.12L520.9,309.7L520.79,308.47L522.23,308.57L523.16,307.34L524.04,307.17L525.07,308.08L525.44,309.06L526.48,309.24L526.75,311.35L527.57,313.14L528.9,313.26L530.06,314.25L530.78,316.26L530.51,316.91L529.29,317.68L529.47,319.34L528.57,320.27L530.41,323.58L531.31,324.03L531.71,323.19L533.81,324.93L534.36,326.68L535.31,327.25L534.82,328.23L535.04,329.52L534.71,330.73L535.7,332.96L536.83,333.32L538.52,335.34L538.65,336.87L537.02,338.59L536.77,339.6L537.61,339.9L537.72,340.84L537.33,342.32L538.61,345.5L538.04,347.31L538.61,348.63L538,349.32L536.89,348.84L537.3,350.84L536.03,352.96L535.98,353.95L534.85,353.99L534.32,355.7L534.73,358.3L533.98,358.84L533.25,360.42L534.24,362.23L533.01,362.6L531.95,363.87L530.47,363.84L529.25,364.29L528.66,363.13L527.08,362.85L526.07,361.99L524.86,362.42L523.08,364.72L521.72,364.68L521.09,363.41L519.73,362.89L518.72,360.79L517.87,359.73L517.65,358.59L516.63,357.36L514.86,356.81L513.99,356.24L513.54,355.26L512.59,354.29L513.04,352.48L512.88,351.35L513.29,349.11L511.83,348.14L511.09,346.64L510.1,345.56L508.81,344.71L509.37,343.69L510.58,342.73L511.23,341.38L510.63,340.73L509.28,340.31L509.54,337.4L509.15,336.92L509.47,335.14L508.33,334.09L508,333.13L508.28,331.75L507.08,330.52L505.86,328.48L505.05,325.3L504.25,324.21L502.81,323.32L501.12,322.62L500.06,321.43L498.94,321.5L498.8,320.49L497.82,319.48Z" class="land" id="IE-KK" title="Kilkenny"/>
    <path d="M352.67,392.66L354.23,393.3L355.79,393.08L355.7,394.07L354.76,394.9L352.67,395.72L352.21,396.26L350.79,396.62L350.18,396.14L348.99,396.97L348.57,395.65L349.26,394.42L351.02,394.17L352.43,393.18ZM406.13,336L407.07,337.89L406.74,338.59L409.09,340.34L409.54,342.69L408.54,342.89L408.25,344.77L407.17,344.82L408.97,348.8L407.98,349.19L407.3,350.59L409.17,352.46L408.65,353.4L407.2,354.03L406.97,354.85L408.44,355.77L409.57,357.26L410.73,357.46L412.68,358.36L413.85,360.34L414.23,361.04L413.58,361.64L412.22,362.02L412.3,363.14L410.9,364.05L410.76,366.32L411.99,368.05L412.36,370.4L413.11,371.06L412.78,373.58L413.44,375.32L413.26,375.9L415.3,379.13L415.33,380.02L414.43,380.33L413.73,382.15L414.37,384.51L415.87,384.19L416.83,386.18L418.32,386.19L419.23,386.63L418.21,388.09L417.17,387.75L415.15,388.04L414.15,388.72L411.8,389.25L411.4,390.16L410.61,390.45L408.99,391.75L409.25,393.24L410.12,394.16L409.79,395.06L410.5,395.42L409.99,396.87L409.26,397.29L408.84,398.68L407.99,399.21L407.73,400.14L406.69,400.39L406.07,401.08L404.68,400.97L403.66,401.9L401.98,401.95L401.34,403.71L400.58,404.64L399.48,405.07L397.24,405.28L396.24,404.92L394.94,404.98L394.23,405.49L391.97,405.33L390.3,407.19L389.43,408.68L388.08,409.21L387.49,408.95L386.36,409.45L385.6,410.36L384.36,411.15L384.38,411.81L382.74,413.44L381.04,413.85L380.7,412.9L380.9,411.36L379.84,410.85L380.38,410.07L379.2,408.49L379.25,407.26L379.81,406.22L380.81,407.19L382.05,407.76L383.27,407.29L382.5,406.4L380.91,405.55L383.31,404.17L383.45,403.38L385.22,402.43L385.39,401.78L386.75,400.78L389.32,400.57L391.23,399.77L393.75,398.06L392.97,397.71L391.46,398.32L390.23,397.91L388.35,398.84L385.99,399.55L384.83,400.29L383.72,400.58L383,401.25L380.57,402.13L380.03,403.4L379.33,403.65L378.05,402.72L376.36,403.86L375.31,403.75L374.13,404.11L373.04,405.15L372.61,405.04L370.65,406.72L368.62,406.6L368.31,407.63L365.96,407.99L365.86,408.66L363.75,409.25L365.18,407.61L363.54,407.8L361.49,407.12L360.46,405.82L361.54,405.27L362.03,402.12L361.69,401.38L360.23,400.29L357.99,400.39L357.6,401.37L356.62,402.22L356.54,403.24L355.74,403.43L354.72,404.64L352.93,405.27L352.19,404.36L353.27,403.78L352.98,402.74L353.16,401.06L352.89,400.32L352.06,400.07L351.05,400.56L350.05,400.02L350.63,398.98L349.86,397.42L350.58,396.91L352.46,396.72L353.87,396.26L354.6,395.63L356.09,395.27L356.29,394.4L357.46,394.19L357.38,393.29L356.31,392.83L356.86,391.98L356.29,390.93L354.11,390.81L354.77,389.94L356.22,389.32L357.66,387.62L359.96,386.85L361.54,385.53L362.59,385.38L363.4,384.48L364.45,384.41L368.45,383.07L370.03,383.29L372.76,381.81L374.34,380.29L375.54,380.3L375.01,379.08L376.22,377.82L376.92,375.98L377.86,376.88L379.11,376.62L380.33,375.45L381.61,374.99L382.62,375.06L382.39,373.99L381.13,372.6L378.78,372.68L375.71,373.62L374.07,373.73L374.53,376.35L373.86,376.77L373.04,375.07L372.2,374L367.19,375.33L365.77,375.56L364.88,376.54L363.03,376.12L361.03,377.23L360.49,376.12L359.72,375.88L358.03,376.33L357.38,375.74L356.78,374.41L355.5,374.8L355.24,375.47L357.08,375.74L357.11,376.54L355.68,376.84L353.95,376.5L353.78,375.87L351.93,375.02L351.1,376.12L351.37,377.1L349.34,377.53L348.57,377.98L347.02,378.09L346.34,376.57L346.64,375.91L346.05,375.04L346.47,373.07L347.4,371.08L345.91,370.72L349.04,368.74L349.03,370.47L351.29,371.31L351.73,370.24L351.03,369.23L352.25,367.88L351.4,367.58L351.75,366.07L353.82,365.81L355.26,364.97L355.64,363.89L356.95,363.77L357.41,362.83L362,360.97L363.08,361.18L362.92,363.2L363.46,363.55L362.2,365.89L364.31,365.11L366.01,365.04L367.54,364.31L368.91,362.91L369.67,361.69L370.25,361.97L370.33,363.03L371.64,364.46L373.91,366.14L375.62,365.96L376.45,366.43L378.9,365.82L380.17,364.57L380.89,365.17L382.07,365.13L383.3,364.35L384.38,364.48L385.13,364.03L384.9,363.08L383.65,362.43L381.65,362.71L379.65,361.94L378.23,362.41L378.19,360.21L379.1,361.05L380.26,360.84L380.86,359.18L380.47,357.94L380.28,354.65L380.58,353.78L380.33,352.42L378.31,352.06L374.81,351.03L374.3,350.35L374.54,349.41L376.41,348.39L378.94,348.96L380.88,348.31L382.51,347.23L383.93,346.98L384.92,346.2L385.34,345.16L387.2,344.03L388.27,343.88L388.78,342.55L389.24,338.61L388.86,338.14L390.53,336.37L392.22,335.44L394.48,336.02L397.8,335.97L399.14,337.07L400.41,336.96L401.17,335.61L404.19,335.61L404.66,334.85L405.94,335.25ZM343.5,376.85L344.04,377.41L343.59,378.18L341.22,379.49L340.87,379.04L342.93,377.75Z" class="land" id="IE-KY" title="Kerry"/>
    <path d="M484.35,221.43L484.57,222.8L486.11,222.46L487.23,222.57L489.07,223.73L489.55,222.94L491.28,223.25L491.67,221.46L492.26,220.43L491.99,218.73L492.98,218.7L493.49,217.49L494.46,217.54L495.51,215.62L496.6,215.07L496.59,213.93L497.75,213.72L498.33,212.22L498.9,211.79L500.41,212.39L500.91,212.18L502.51,214.4L503.76,215.21L504.14,216.25L503.84,217.61L503.07,217.41L502.48,219.49L504.58,219.81L505.56,218.95L507.16,219.24L508.24,220.66L508.81,223.04L508.61,223.8L510.52,225.34L511.65,225.72L511.94,226.98L513.27,227.34L513.83,228.79L513.34,229.26L513.2,230.75L509.21,231.3L509.02,232.55L508.41,232.61L507.69,233.82L505.84,234.34L505.12,235.28L505.38,236.2L504.18,236.78L503.22,236.63L502.88,237.78L501.04,237.78L500.69,238.65L502.92,239.64L503.37,240.42L502.99,242.03L502.25,241.7L501.29,242.12L501.39,243.44L499.95,243.98L499.61,245.21L498.17,246.85L498.4,248.35L498.1,249.14L495.74,248.8L494.94,249.77L493.86,249.7L493.11,249.06L490.75,248.77L489.61,248.15L488.75,248.51L487.49,247.66L485.9,248.17L484.35,248.17L482.91,249.77L481.52,250.14L480.88,247.6L478.92,244.46L477.9,242.33L477.92,239.19L478.69,237.7L479.82,236.9L480.66,235.73L480.61,233.88L481.83,232.84L482.53,232.82L482.73,230.63L484.29,230.7L484.38,229.6L486,228.51L486.3,226.27L484.85,225.38L484.35,223.11Z" class="land" id="IE-LD" title="Longford"/>
    <path d="M555.81,202.17L556.39,201.18L558.74,201.51L559.57,200.96L560.64,201.41L561.33,200.51L562.15,200.26L562.37,199.15L563.5,199.63L564.58,201L565.92,200.51L567.29,200.77L568.6,199.68L568.59,195.86L569.86,195.82L570.12,197.55L570.8,197.82L571.63,196.45L572.69,196.12L573.75,197.04L575.02,199.18L577.58,200.89L578.43,202.55L580.17,203.75L581.2,203.14L581.4,204.65L582.72,206.23L580.72,208.16L579.34,208.39L577.63,208.2L576.42,207.68L574.81,207.43L572.41,205.68L570.91,205.04L569.91,205.13L569.9,206.59L568.57,208.14L568.78,208.95L568.13,211.46L567.96,213.56L568.42,215.45L569.44,216.86L570.43,217.63L571.78,217.56L572.48,218.09L573.91,218.34L575.39,219.14L574.63,220.28L574.21,222.57L574.24,223.93L575.02,224.74L576.53,225.13L575.48,226.02L574.97,228.02L574.53,231.38L574.94,231.89L573.58,231.11L572.32,231.85L570.91,232.2L570.76,233.21L568.99,233.42L567.79,232.42L565.31,231.65L564.75,232.51L563.17,232.66L562.21,231.12L563.28,229.32L563.59,228L562.82,227.52L560.27,227.78L559.42,226.96L558.51,226.77L558.21,224.84L556.92,224.48L556.84,222.69L555.83,221.28L556.16,220.54L555.6,219.2L554.29,217.56L552.59,217.17L552.16,216.45L550.61,215.34L551.23,214.41L551.87,214.7L553.19,214.07L553.8,212.71L552.59,211.88L553.19,211.23L552.44,209.8L553.65,209.72L553.48,208.79L554.77,207.95L556.48,209.05L557.57,208.88L558.14,207.33L557.83,206.51L558.42,205.91L558.07,204.94L556.87,203.63L557.15,203.21Z" class="land" id="IE-LH" title="Louth"/>
    <path d="M453.94,319.19L454.52,320.88L454.56,323.73L455.65,325.67L456.75,326.34L458.03,325.18L459.1,325.99L460.36,326.14L461.62,325.37L463.82,324.72L464.39,324.81L466.21,325.98L466.2,327.07L467.66,327.28L468.49,326.95L469.66,327.34L469.29,329.47L468.35,330.31L468.01,332.56L468.36,333.62L467.1,334.99L467.73,335.9L467.2,336.74L467.66,337.33L467.33,339.1L467.31,340.85L466.01,341.38L464.43,340.38L464.14,341.04L462.94,341.41L462.11,342.61L461.64,341.23L460.39,341.33L459.98,342.09L458.57,343.52L458.67,344.73L457.93,345.37L458.77,348.23L460.08,347.1L460.85,348.08L461.94,347.54L462.83,347.99L463.03,349.41L464.31,349.76L464.49,351.17L466.3,350.46L467.2,350.43L467.43,352.43L468.21,354.12L469.38,354.33L470.9,354.12L470.78,356.03L470.14,356.84L470.37,357.96L471.05,358.31L470.94,360.55L469.86,361.02L468.61,360.43L466.47,360.21L464.67,361.1L463.96,360.45L462.94,358.55L462.07,358.45L461.49,357.53L460.26,358.28L460.17,359.07L459.15,359.44L458.89,360.54L456.17,360.7L455.19,361.17L453.34,361.4L452.46,361.92L450.5,360.92L449.62,359.43L448.15,359.39L447.18,358.17L446.51,356.59L444.4,355.83L443.34,354.27L442.98,352.85L440.04,353.74L437.67,352.45L436.88,353.64L436.32,352.37L435.4,352.59L434.97,353.76L433.67,354.09L433.7,355.01L432.36,355.29L431.46,357.31L430.36,357.85L428.07,358.28L426.49,359L427.02,360.6L426.12,360.56L425.28,359.17L423.88,358.06L423.28,358.16L421.71,357.3L419.78,357.17L418.27,356.17L418.06,357.1L417.27,357.44L416.18,359.02L414.25,359.56L413.85,360.34L412.68,358.36L410.73,357.46L409.57,357.26L408.44,355.77L406.97,354.85L407.2,354.03L408.65,353.4L409.17,352.46L407.3,350.59L407.98,349.19L408.97,348.8L407.17,344.82L408.25,344.77L408.54,342.89L409.54,342.69L409.09,340.34L406.74,338.59L407.07,337.89L406.13,336L408.03,335.61L409.72,336.25L412.51,334.8L413.38,334.8L414.95,333.75L417.86,332.59L419.95,332.52L422.74,330.77L422.8,331.53L424.02,331.3L425.88,331.53L426.58,331.24L426.64,330.26L427.63,329.09L427.69,328.39L430.01,327.81L432.28,327.63L432.98,327.81L434.43,327.28L435.59,327.22L436.64,328.62L437.22,327.63L438.43,326.7L440.24,326.65L441.46,326.95L442.97,325.66L444.78,325.6L444.49,327.16L442.81,327.86L442.58,329.32L443.56,329.61L446.18,329.55L446.82,330.13L447.75,329.55L448.39,328.39L448.56,327.16L450.44,325.8L450.52,324.55L451.69,324.07L452.64,322.74L452.32,320.14Z" class="land" id="IE-LK" title="Limerick"/>
    <path d="M464.35,162.09L467.21,163.56L468.01,162.47L470.4,163.27L472.21,164.5L471.26,165.69L474.28,168.21L476.53,172.13L479.01,173.32L479.91,174.04L481.69,176.26L482.69,177.97L481.29,180.09L480.72,181.95L479.29,183.3L477.61,182.83L476.72,184.48L477.98,186.64L477.3,187.9L477.48,189.13L478.82,189.14L479.47,188.62L480.46,189.67L482.55,189.92L483.9,190.83L485.93,193.19L486.63,194.71L487.98,195.36L487.58,195.9L489.1,197.3L490.8,195.58L491.38,196.34L493.05,196.59L494.04,197.64L494.28,198.7L495.75,198.52L497.11,200.62L498.45,201.13L498.64,202.41L499.31,204.01L501.52,205.11L501.97,206.63L501.59,207.58L502.51,208.56L501.81,209.35L502.25,210.02L501.25,211.2L500.91,212.18L500.41,212.39L498.9,211.79L498.33,212.22L497.75,213.72L496.59,213.93L496.6,215.07L495.51,215.62L494.46,217.54L493.49,217.49L492.98,218.7L491.99,218.73L492.26,220.43L491.67,221.46L491.28,223.25L489.55,222.94L489.07,223.73L487.23,222.57L486.11,222.46L484.57,222.8L484.35,221.43L483.82,220.31L483.04,220.37L481.87,218.68L481.06,218.84L481.07,216.55L480.3,215.33L480.52,214.22L479.57,213.74L479.17,212.52L478.07,212.63L478.19,213.43L476.41,214.67L475.21,213.72L474.81,212.84L475.35,212.22L473.61,210.53L475.56,208.4L475.43,205.38L474.98,204.52L475.15,202.19L476.48,201.02L477.22,199.71L476.77,199.09L476.88,196.75L474.19,196.25L472.01,194.8L471.06,196.25L470.1,194.54L468.16,193.57L467.72,192.16L466.29,191.62L465.86,192.24L464.7,192.22L462.14,189.88L462.71,188.86L461.06,188.14L461.96,186.81L461.59,185.35L461.95,184.01L461.43,183.04L461.14,180.97L461.18,178.49L460.67,177.45L458.84,176.7L458.97,175.96L458.33,173L460.1,171.84L461.22,167.17L458.74,167.47L457.28,167.86L456.82,167.23L457.82,166.35L458.03,165.17L459.9,164.2L459.22,163.13L461.68,162.71L462.98,161.94Z" class="land" id="IE-LM" title="Leitrim"/>
    <path d="M494.41,301.31L494.45,300.7L495.45,299.76L495.85,298.8L495.59,296.74L496.33,295.02L498.54,293.91L498.49,292.84L500.85,291.1L502.33,288.16L500.84,287.54L500.9,286.77L499.8,285.79L499.04,283.96L499.79,283.03L499.84,282.27L501.3,281.84L504.32,281.45L505.26,280.83L508.02,280L509.17,280.49L510.68,280.54L510.85,278.88L512.14,278.26L512.87,278.74L513.5,278.11L514.52,278.62L514.94,279.64L515.99,280.54L516.96,282.17L516.16,282.24L516.93,284.59L517.85,285.41L518.75,285.09L521.13,284.94L521.83,284.06L523.26,283.44L524.35,281.74L524.81,283.22L528.68,283.21L529.03,284.14L528.56,285.2L529.44,285.74L530.12,287.62L530.96,288.18L531.56,290.91L531.38,292.37L530.83,292.84L530.25,295.58L529.23,297L530.9,299.2L533.01,299.73L532.92,300.59L535.21,299.42L535.75,301.26L537.59,305.04L537.27,307.29L537.47,308.57L537.91,311.42L537.06,312.01L537.47,313.19L536.74,314.27L535.61,314.65L532.09,314.79L531.69,315.96L530.78,316.26L530.06,314.25L528.9,313.26L527.57,313.14L526.75,311.35L526.48,309.24L525.44,309.06L525.07,308.08L524.04,307.17L523.16,307.34L522.23,308.57L520.79,308.47L520.9,309.7L520.02,311.12L517.31,309.47L516.45,309.97L515.29,312.71L513.8,312.75L512.91,313.78L512.36,315.79L510.82,315.12L509.71,316.47L508.19,316.74L507.48,315.73L505.5,314.5L503.8,314.65L503.44,313.68L502.43,313.52L500.78,314.74L500.73,316.32L498.78,316.37L497.52,317.11L497.23,315.19L496.43,312.9L495.18,312.08L494.33,310.35L495.12,309.75L494.87,307.6L495.53,307.34L495.75,306.24L497.42,305.2L498.17,303.42L495.97,303.46L494.53,302.4Z" class="land" id="IE-LS" title="Laois"/>
    <path d="M546.98,213.92L548.44,214.04L549.35,215.24L550.61,215.34L552.16,216.45L552.59,217.17L554.29,217.56L555.6,219.2L556.16,220.54L555.83,221.28L556.84,222.69L556.92,224.48L558.21,224.84L558.51,226.77L559.42,226.96L560.27,227.78L562.82,227.52L563.59,228L563.28,229.32L562.21,231.12L563.17,232.66L564.75,232.51L565.31,231.65L567.79,232.42L568.99,233.42L570.76,233.21L570.91,232.2L572.32,231.85L573.58,231.11L574.94,231.89L575.05,233.88L575.67,237.07L576.26,238.18L576.69,240L575.8,240.44L575.27,239.87L574.27,240.15L573.52,241.72L573.53,243.27L572.68,244.06L571.56,244.39L571.01,245.25L570.16,245.57L568.29,244.05L567.19,243.84L566.38,245.63L565.37,246.06L564.71,247.86L566.16,249.81L567.12,249.97L568.44,250.81L568.38,251.56L569.59,252.25L569.99,254.15L569.03,255.9L569.15,257.05L567.25,257.83L565.97,257.66L565.52,259.77L564.41,260.93L563.59,262.32L562.11,262.28L561.47,262.84L559.23,261.72L558.42,260.85L557.3,262.44L553.99,261.79L553.09,261.78L551,260.08L547.73,258.49L545.41,259.52L544.22,261.39L542.49,260.97L540.55,259.97L540,258.81L538.82,257.87L538.65,256.9L536.92,257.47L536.04,256.6L533.79,257.93L532.27,260.34L530.07,261.51L529.6,262.99L528.53,262.88L526.39,260.99L523.76,259.22L523.65,258.32L525.45,257.85L525.97,256.81L527.65,257.15L529.2,256.33L530.72,255.06L530.85,253.59L530.51,252.71L531.81,252.22L532.88,250.21L533.12,248.22L532.29,247.32L532.41,246.11L533.19,245.17L534.36,245.3L534.25,244.42L534.85,243.87L535.09,242.76L534.72,241.4L536.13,239.97L536.45,238.56L535.53,237.81L534.75,236.1L534.05,235.95L533.63,237L531.29,237.87L530.45,239.03L528.36,236.9L527.69,235.53L526.85,236.46L526.11,235.48L524.11,234.83L521.89,233.69L521.17,232.33L521.55,230.84L519.8,229.54L518.45,226.91L515.71,225.67L515.52,224.86L517.37,223.67L518.62,224.94L519.2,226.49L520.46,227L522.21,227.15L522.54,226.12L523.54,225.28L525.57,225.22L526.02,224.57L527.13,225.65L528.34,225.94L528.45,227.03L530.55,227.27L531.83,226.99L534.18,227.98L536.23,225.7L537.03,226.59L537.52,224.72L538.31,224.77L538.81,224.01L538.52,223.24L536.72,221.51L535.65,219.58L538.12,217.89L537.61,216.35L538.34,216.35L540.36,217.64L541.53,217.94L542.51,217.6L542.35,216.79L543.69,215.65L544.4,215.79L545.23,216.89L545.82,214.58Z" class="land" id="IE-MH" title="Meath"/>
    <path d="M516.67,195.47L517.39,194.9L516.76,193.65L515.73,192.98L517.35,190.85L518.29,190.5L518.91,190.94L518.61,192.2L517.85,193.09L518.37,194.04L519.84,193.79L519.67,192.9L520.51,190.29L520.34,188.43L521.19,187.78L521.81,186.62L523.12,186.29L523.83,185.51L525.08,186.13L526.15,185.65L526.37,183.04L524.74,180.05L522.89,179.21L522.84,178.23L523.42,177.53L524.26,177.58L524.5,176.35L524,174.92L525.88,175.25L527.63,173.64L528.54,173.52L528.19,172.3L529.51,171.24L531.24,168.29L532.65,167.45L535.02,168.54L536.37,170.01L539.19,172.12L539.41,173.75L540.5,174.11L541.83,177.24L541.98,179.23L540.87,180.01L541.52,181.36L543.41,182.29L543.37,183.48L544.05,185.56L546.27,187.91L547.36,188.03L548.16,189.41L549.22,189.48L549.6,188.29L550.27,187.74L552.26,188.49L553.38,190.07L554.18,191.85L553.61,194.25L552.53,195.57L553.45,197.45L552.8,198.22L552.56,200.66L553.24,200.69L554.57,202.73L555.81,202.17L557.15,203.21L556.87,203.63L558.07,204.94L558.42,205.91L557.83,206.51L558.14,207.33L557.57,208.88L556.48,209.05L554.77,207.95L553.48,208.79L553.65,209.72L552.44,209.8L553.19,211.23L552.59,211.88L553.8,212.71L553.19,214.07L551.87,214.7L551.23,214.41L550.61,215.34L549.35,215.24L548.44,214.04L546.98,213.92L546.2,213L543.9,212.56L543.33,211.93L542.13,209.69L541.44,207.62L538.75,204.92L538.22,205.04L537.38,203.27L535.82,202.26L535.07,200.79L533.98,200.42L533.44,199.2L532.48,198.34L533.13,197.66L531.4,197.03L529.87,198.08L527.49,197.5L525.73,198.72L524.37,198.33L521.95,196.99L520.99,196.96L519.84,197.68L518.46,196.56L516.89,196.58Z" class="land" id="IE-MN" title="Monaghan"/>
    <path d="M366.65,232.63L366.39,234.08L364.38,234.71L363.94,233.98L364.67,233.31ZM373.44,223.55L374.47,223.7L374.16,224.79L371.82,225.57L370.2,225.41L368.58,225.59L368.96,224.22L370.15,223.63L371.68,223.41L372.77,222.27ZM360.29,192.8L361.4,193.74L360.04,194.13ZM373.46,204.33L374.52,205.2L374.89,207.06L373.69,207.14L374.07,209.51L375.76,209.81L375.39,210.45L375.6,212.52L375.08,213.89L374.31,213.96L374.84,215.51L374.24,217.43L373.38,217.77L371.27,215.75L371.73,215.16L370.61,214.37L368.48,213.95L368.45,211.93L369.07,210.09L367.67,208.79L366.01,209.55L364.52,208.66L363.04,209.36L361.08,209L359.81,209.31L358.72,208.04L360.03,208.01L362.13,205.58L363.45,205.46L363.64,206.1L365.94,206.22L367.48,204.13L368.84,203.97L369.97,205.21L372.7,204.13ZM371.39,178.01L372.04,178.52L372.11,179.48L373.05,179.65L374.47,181.38L375.65,180.87L375.86,181.86L376.87,181.9L377.28,182.75L376.12,185.14L373.7,185.65L371.93,185.44L370.62,185.48L371.19,186.4L370.53,189.12L369.24,188.42L369.43,189.98L368.45,190.49L366.53,192.05L367.95,192.4L367.33,193.46L367.43,194.52L366.47,194.94L366.56,195.97L367.76,196.2L368.07,197.14L367.45,198.02L366.4,198.22L365.32,197.4L364.84,196.06L364.65,194.29L365.04,192.91L365.87,192.18L366.67,189.85L366.19,187.9L366.98,186.92L367.98,186.86L368.41,185.39L366.94,184.87L365.5,183.9L366.76,182.85L367.65,180.77L369.96,180.18L370.76,178.36ZM377.33,206.27L377.05,207.25L375.97,207.56L376.1,206.2ZM418.29,191.34L420.5,193.12L422.58,193L422.86,191.94L424.72,191.86L425.9,192.52L427.59,192.65L429.19,193.1L428.8,194.05L430.25,195.4L429.16,196.57L427.92,196.87L428.17,197.91L427.41,198.45L427.6,199.59L426.96,199.89L424.79,201.81L424.72,204.13L427.64,203.98L428.61,204.72L428.88,205.47L429.88,205.46L431.47,204.36L432.27,206.5L432.22,207.39L433.69,208.76L436.7,209.66L437.6,208.8L438.99,208.17L439.8,206.85L440.7,207.5L441.36,207.23L441.88,205.91L442.91,205.56L443.27,204.77L442.96,203.62L444.9,203.28L446.5,204.39L448.27,205.23L447.73,207.2L447.71,209.11L448.29,210.54L446.65,210.31L445.16,209.7L443.71,208.73L442.63,209.8L443.07,211.42L442.72,213.81L443.97,214.84L445.4,215.63L445.15,216.54L445.9,217.12L444.75,218.65L443.27,217.76L441.77,217.95L442.3,219.09L442.13,220.07L441.04,220.87L441.08,223.11L439.78,223.78L441.45,224.44L442.59,225.21L443.62,227.06L442.71,229.72L442.03,230.71L442.24,231.57L441.2,231.7L441.3,232.68L438.95,233.87L438.77,234.71L437.85,234.8L437,234.28L436.23,236.1L435.66,236.79L434.17,238.14L432.99,237.89L431.1,238.21L430.42,238.83L428.72,237.32L427.3,238.06L427.1,240.59L426.49,241.22L426.84,242.47L424.84,243.33L425.41,244.52L423.29,245.02L423.49,246.15L424.23,247.69L423.66,248.99L420.66,250.81L420.27,252.77L419.39,252.68L418.36,254.09L417.11,253.6L415.75,254.59L414.59,254.53L412.96,253.92L412.99,252.33L410.71,250.82L409.96,248.02L408.37,247.72L408.03,248.55L407.03,248.43L406.58,247.4L406.94,246.42L406.18,245.59L403.67,245.98L402.99,246.37L401.75,246.26L399.71,246.51L397.85,244.98L396.21,244.66L395.15,242.01L394.34,243.16L392.63,242.55L390.51,242.98L389.5,241.9L387.71,243.05L385.88,242.93L383.49,243.25L378.41,240.53L377.33,238.51L376.26,238.19L376.1,237L376.49,235.91L375.84,234.84L376.23,232.74L376.96,231.55L377.14,230.34L376.4,229L376.8,227.9L377.88,228.01L379.51,227.55L381.09,227.46L382.09,226.76L383.84,226.41L384.14,227.05L385.58,227.17L387.54,226.8L388.02,226.37L389.81,225.91L392.09,226.03L394.08,226.47L395.8,224.15L392.71,223.61L392.06,221.62L392.53,220.42L393.42,219.77L394.28,219.83L395.19,219.08L394.04,218.17L394.84,216.26L393.26,215.86L392.27,216.63L391.51,215.87L390.17,216.3L387.21,215.49L385.14,216.06L383.71,215.36L382.57,215.84L381.6,217.35L378.69,218.56L376.97,218.6L375.58,218.15L375.26,217.44L375.53,215.9L375.23,214.27L376.03,213.84L375.97,212.12L376.74,210.53L378.44,210.1L380.41,210.13L380.62,211.03L382.14,210.84L382.21,212.56L381.37,212.74L382,214.29L382.64,213.09L382.77,211.01L381.65,209.56L380.57,209.14L379.44,209.28L379.64,206.75L378,205.57L377.85,204.2L377.14,203.9L376.45,201.99L377.34,201.38L377.11,199.6L374.94,200.51L373.39,199.6L372.7,197.37L372.03,196.67L373.93,196.32L375.35,195.46L377.09,195.4L376.02,193.98L373.68,193.03L373.78,192.05L375.29,192.66L375.66,192.04L374.51,191.45L373.92,190.34L374.94,189.6L375.09,188.26L373.11,187.46L371.92,186.03L372.15,185.53L374.09,186.54L377.41,186.44L378.2,186.11L377.97,183.65L378.35,183.06L378.58,181.03L381.29,179.99L381.54,179.28L379.37,177.75L379.08,176.87L380.39,176.3L381.93,174.74L383.65,175.3L384.53,174.99L385.54,176.06L387.86,176.54L389.82,177.27L392.21,176.12L394.19,176.66L395.15,176.57L397.56,177.63L399.64,176.96L400.2,177.44L402.32,177.4L404.39,177.67L404.48,178.75L406.96,176.64L409.97,177.43L411.37,177.62L412.19,178.79L411.83,180.33L414.41,180.75L413.65,183.51L415.02,183.47L414.86,185.07L413.94,185.65L413.75,186.58L415.71,187.05L416.93,187.73L416.61,188.65L417.77,189.33Z" class="land" id="IE-MO" title="Mayo"/>
    <path d="M523.76,259.22L526.39,260.99L528.53,262.88L529.6,262.99L529.23,263.98L530.85,265.57L531.75,265.27L532.84,266.69L532.77,267.67L534.68,268.53L535.34,269.66L533.48,270.72L534.56,271.69L532.34,272.33L533.06,274.59L531.34,275.49L531.56,277.26L532.33,277.03L533.43,277.83L532.04,278.8L532.13,280.29L530.31,280.21L528.72,280.63L525.65,280.27L525.34,281.07L527.3,281.18L528.42,282.33L529.63,281.98L530.55,283.02L528.68,283.21L524.81,283.22L524.35,281.74L523.26,283.44L521.83,284.06L521.13,284.94L518.75,285.09L517.85,285.41L516.93,284.59L516.16,282.24L516.96,282.17L515.99,280.54L514.94,279.64L514.52,278.62L513.5,278.11L512.87,278.74L512.14,278.26L510.85,278.88L510.68,280.54L509.17,280.49L508.02,280L505.26,280.83L504.32,281.45L501.3,281.84L499.84,282.27L499.79,283.03L499.04,283.96L499.8,285.79L500.9,286.77L500.84,287.54L502.33,288.16L500.85,291.1L498.49,292.84L498.54,293.91L496.33,295.02L495.59,296.74L495.85,298.8L495.45,299.76L494.45,300.7L494.41,301.31L492.05,300.14L491.27,300.22L490.53,299.33L488.6,300.81L488.2,301.57L487.2,301.39L487,302.42L488.14,303.38L486.95,304.44L487.41,305.02L485.54,305.95L485.35,307.15L483.71,308.64L481.3,311.15L480.08,309.57L480.63,308.4L478.27,307.41L477.34,306.46L477.71,305.35L477.01,304.03L477.51,302.96L479.19,303.89L480.14,303.81L481.21,302.11L480.51,299.95L479.51,298.97L480.29,297.73L482.59,297.98L481.9,296.49L482.37,294.51L483.15,293.64L483.9,291.44L484.18,289.87L483.82,288.81L484.2,288.12L483.14,286.89L481.04,285.4L479.74,284.98L478.99,284.19L477.1,283.65L475.43,282.5L475.39,282.08L476.65,280.45L477.87,279.84L480.4,279.95L481.55,278.09L481.28,276.21L479.5,274.75L478.43,274.58L478.32,273.64L476.94,272.78L477.43,271.42L478.19,270.78L478.5,268.43L480.01,268.33L480.78,267.07L481.76,267.17L482.72,266.7L483.24,265.26L484.08,264.6L485.09,264.79L486.3,265.94L487.77,266.07L489.01,265.44L491.05,265.5L492.26,266.06L494.98,264.97L495.61,263.05L496.49,261.96L497.71,261.04L498.59,260.84L500.22,259.76L501.17,260.27L501.3,261.29L502.86,261.71L502.61,262.49L503.18,263.17L503.45,265.68L504.63,266.95L505.27,266.53L507.28,266.6L507.21,267.73L508.5,267.53L509.39,268.7L511.01,267.17L512.43,267.62L514.1,266.72L514.29,265.96L515.54,264.61L516.37,264.34L519.14,261.7L520.37,261.39L522.5,260.41L522.47,259.78Z" class="land" id="IE-OY" title="Offaly"/>
    <path d="M471.06,196.25L472.01,194.8L474.19,196.25L476.88,196.75L476.77,199.09L477.22,199.71L476.48,201.02L475.15,202.19L474.98,204.52L475.43,205.38L475.56,208.4L473.61,210.53L475.35,212.22L474.81,212.84L475.21,213.72L476.41,214.67L478.19,213.43L478.07,212.63L479.17,212.52L479.57,213.74L480.52,214.22L480.3,215.33L481.07,216.55L481.06,218.84L481.87,218.68L483.04,220.37L483.82,220.31L484.35,221.43L484.35,223.11L484.85,225.38L486.3,226.27L486,228.51L484.38,229.6L484.29,230.7L482.73,230.63L482.53,232.82L481.83,232.84L480.61,233.88L480.66,235.73L479.82,236.9L478.69,237.7L477.92,239.19L477.9,242.33L478.92,244.46L480.88,247.6L481.52,250.14L482.26,253.67L481.68,256.77L482.23,258.36L481.54,259.33L482.98,260.18L483.14,260.99L483.99,261.89L484.77,263.98L484.08,264.6L483.24,265.26L482.72,266.7L481.76,267.17L480.78,267.07L480.01,268.33L478.5,268.43L478.19,270.78L477.43,271.42L476.94,272.78L474.98,272.73L470.27,271.38L469.37,269.62L469.69,267.16L469.08,266.01L468.35,266.29L467.39,265.84L466.69,264.27L467.62,261.64L466.85,260.13L465.92,260.06L465.69,257.99L466.93,257.06L465.67,256.12L465.59,255.55L464.32,254.66L465.14,253.92L464.96,252.56L463.99,251.27L464.15,250.44L463.73,246.08L463.19,244.98L461.47,245.01L461.48,244.16L460.71,243.09L459.45,242.95L459.33,241.48L458.27,240.28L458.67,239.37L459.92,239.34L460.15,238.21L458.07,236.89L456.37,236.06L455.2,234.29L455.24,233.42L454.52,232.53L453.14,232.43L451.8,232.77L451.08,232.26L448.86,232.25L448.3,233.04L445.53,233.48L445.16,235.14L444.04,236.07L439.76,237.25L437.81,237.08L436.72,237.74L435.66,236.79L436.23,236.1L437,234.28L437.85,234.8L438.77,234.71L438.95,233.87L441.3,232.68L441.2,231.7L442.24,231.57L442.03,230.71L442.71,229.72L443.62,227.06L442.59,225.21L441.45,224.44L439.78,223.78L441.08,223.11L441.04,220.87L442.13,220.07L442.3,219.09L441.77,217.95L443.27,217.76L444.75,218.65L445.9,217.12L445.15,216.54L445.4,215.63L443.97,214.84L442.72,213.81L443.07,211.42L442.63,209.8L443.71,208.73L445.16,209.7L446.65,210.31L448.29,210.54L449.65,210.63L450.79,210.27L451.74,211.58L451.8,213.08L453.96,213.7L454.52,214.31L455.46,214.28L455.53,213.37L456.23,212.97L458.61,213.22L461.63,213.11L460.95,211.03L457.93,210.27L459.23,209.15L458.94,207.41L458.42,206.31L460,205.86L461.27,206.39L462.82,205.9L463.28,203.32L463.82,202.31L465.65,201.42L466.92,202.73L466.96,201.11L467.98,200.68L468.01,198.7L470.28,198.19Z" class="land" id="IE-RN" title="Roscommon"/>
    <path d="M459.22,163.13L459.9,164.2L458.03,165.17L457.82,166.35L456.82,167.23L457.28,167.86L458.74,167.47L461.22,167.17L460.1,171.84L458.33,173L458.97,175.96L458.84,176.7L460.67,177.45L461.18,178.49L461.14,180.97L461.43,183.04L461.95,184.01L461.59,185.35L461.96,186.81L461.06,188.14L462.71,188.86L462.14,189.88L464.7,192.22L465.86,192.24L466.29,191.62L467.72,192.16L468.16,193.57L470.1,194.54L471.06,196.25L470.28,198.19L468.01,198.7L467.98,200.68L466.96,201.11L466.92,202.73L465.65,201.42L463.82,202.31L463.28,203.32L462.82,205.9L461.27,206.39L460,205.86L458.42,206.31L458.94,207.41L459.23,209.15L457.93,210.27L460.95,211.03L461.63,213.11L458.61,213.22L456.23,212.97L455.53,213.37L455.46,214.28L454.52,214.31L453.96,213.7L451.8,213.08L451.74,211.58L450.79,210.27L449.65,210.63L448.29,210.54L447.71,209.11L447.73,207.2L448.27,205.23L446.5,204.39L444.9,203.28L442.96,203.62L443.27,204.77L442.91,205.56L441.88,205.91L441.36,207.23L440.7,207.5L439.8,206.85L438.99,208.17L437.6,208.8L436.7,209.66L433.69,208.76L432.22,207.39L432.27,206.5L431.47,204.36L429.88,205.46L428.88,205.47L428.61,204.72L427.64,203.98L424.72,204.13L424.79,201.81L426.96,199.89L427.6,199.59L427.41,198.45L428.17,197.91L427.92,196.87L429.16,196.57L430.25,195.4L428.8,194.05L429.19,193.1L427.59,192.65L425.9,192.52L424.72,191.86L422.86,191.94L422.58,193L420.5,193.12L418.29,191.34L418.21,189.89L418.91,189.62L418.71,188.18L420.16,186.76L420.34,185.49L421.33,183.84L422.61,181.03L422.32,180.37L422.75,179.07L424.37,178.92L425.68,179.34L426.21,179.06L429.26,179.21L430.57,179.93L431.54,181.14L433.05,182.07L435.1,182.93L436.8,182.18L437.43,181.16L438.54,180.45L438.92,181.46L440.38,181.95L442.68,181.06L444.41,181.44L445.83,183.36L445.94,184.37L447.01,184.96L447.18,185.68L448.67,186.28L450.37,186.2L450.36,185.09L448.87,184.72L448.89,184.04L446.26,181.94L447,180.79L449.11,180.79L450.34,180.32L451.76,180.63L452.5,180.08L453.4,180.56L453.81,179.75L451.51,178.3L448.76,177.98L448.93,176.22L451.74,177.26L452.3,176.03L450.92,175.55L449.75,174.68L447.72,174.54L444.87,175.67L443.52,173.9L443.81,172.73L445.03,171.97L446.04,172.13L446.45,171.12L448.99,169.98L449.94,169.78L452,168.02L452.86,167.88L453.42,166.72L454.44,165.69L454.14,163.69L454.45,162.74L455.63,162.85L456.04,164.2L457.14,164.03Z" class="land" id="IE-SO" title="Sligo"/>
    <path d="M513.99,356.24L512.6,357.03L511.13,355.9L509.84,355.59L508.03,355.53L506.06,354.79L503.36,354.86L501.81,354.38L500.01,354.86L498.24,354.75L497.49,355.45L496.05,355.91L494.23,355.75L493.42,356.3L491.47,356.21L490.89,360.08L491.54,362L492.57,362.63L493.17,364.06L493.76,367.32L492.86,367.6L491.69,367.16L489.66,367.13L488.03,366.48L485.13,366.7L483.32,365.44L483.08,364.92L481.39,365.16L480.51,365.75L480.23,366.8L480.5,367.99L479.85,368.55L478.65,368.02L475.76,368.09L474.22,368.3L474.29,366.16L471.63,365.45L471.24,365.13L470.99,362.06L470.24,362.16L469.86,361.02L470.94,360.55L471.05,358.31L470.37,357.96L470.14,356.84L470.78,356.03L470.9,354.12L469.38,354.33L468.21,354.12L467.43,352.43L467.2,350.43L466.3,350.46L464.49,351.17L464.31,349.76L463.03,349.41L462.83,347.99L461.94,347.54L460.85,348.08L460.08,347.1L458.77,348.23L457.93,345.37L458.67,344.73L458.57,343.52L459.98,342.09L460.39,341.33L461.64,341.23L462.11,342.61L462.94,341.41L464.14,341.04L464.43,340.38L466.01,341.38L467.31,340.85L467.33,339.1L467.66,337.33L467.2,336.74L467.73,335.9L467.1,334.99L468.36,333.62L468.01,332.56L468.35,330.31L469.29,329.47L469.66,327.34L468.49,326.95L467.66,327.28L466.2,327.07L466.21,325.98L464.39,324.81L463.82,324.72L461.62,325.37L460.36,326.14L459.1,325.99L458.03,325.18L456.75,326.34L455.65,325.67L454.56,323.73L454.52,320.88L453.94,319.19L454.79,317.75L455.71,316.84L456.15,315.04L455.55,314.36L455.27,311.17L457.2,308.82L457.95,305.34L458.71,305.01L461.52,305.17L462.49,303.95L463.25,302.03L464.55,300.43L463.15,299.59L462.84,298.91L463.71,296.71L464.91,295.76L465.64,292.36L467.91,291.46L469.01,290.02L470.73,287.18L470.65,286.52L471.97,284.21L472.92,283.24L475.22,282.8L475.43,282.5L477.1,283.65L478.99,284.19L479.74,284.98L481.04,285.4L483.14,286.89L484.2,288.12L483.82,288.81L484.18,289.87L483.9,291.44L483.15,293.64L482.37,294.51L481.9,296.49L482.59,297.98L480.29,297.73L479.51,298.97L480.51,299.95L481.21,302.11L480.14,303.81L479.19,303.89L477.51,302.96L477.01,304.03L477.71,305.35L477.34,306.46L478.27,307.41L480.63,308.4L480.08,309.57L481.3,311.15L483.71,308.64L485.35,307.15L485.54,305.95L487.41,305.02L486.95,304.44L488.14,303.38L487,302.42L487.2,301.39L488.2,301.57L488.6,300.81L490.53,299.33L491.27,300.22L492.05,300.14L494.41,301.31L494.53,302.4L495.97,303.46L498.17,303.42L497.42,305.2L495.75,306.24L495.53,307.34L494.87,307.6L495.12,309.75L494.33,310.35L495.18,312.08L496.43,312.9L497.23,315.19L497.52,317.11L497.82,319.48L498.8,320.49L498.94,321.5L500.06,321.43L501.12,322.62L502.81,323.32L504.25,324.21L505.05,325.3L505.86,328.48L507.08,330.52L508.28,331.75L508,333.13L508.33,334.09L509.47,335.14L509.15,336.92L509.54,337.4L509.28,340.31L510.63,340.73L511.23,341.38L510.58,342.73L509.37,343.69L508.81,344.71L510.1,345.56L511.09,346.64L511.83,348.14L513.29,349.11L512.88,351.35L513.04,352.48L512.59,354.29L513.54,355.26Z" class="land" id="IE-TA" title="Tipperary"/>
    <path d="M474.22,368.3L475.76,368.09L478.65,368.02L479.85,368.55L480.5,367.99L480.23,366.8L480.51,365.75L481.39,365.16L483.08,364.92L483.32,365.44L485.13,366.7L488.03,366.48L489.66,367.13L491.69,367.16L492.86,367.6L493.76,367.32L493.17,364.06L492.57,362.63L491.54,362L490.89,360.08L491.47,356.21L493.42,356.3L494.23,355.75L496.05,355.91L497.49,355.45L498.24,354.75L500.01,354.86L501.81,354.38L503.36,354.86L506.06,354.79L508.03,355.53L509.84,355.59L511.13,355.9L512.6,357.03L513.99,356.24L514.86,356.81L516.63,357.36L517.65,358.59L517.87,359.73L518.72,360.79L519.73,362.89L521.09,363.41L521.72,364.68L523.08,364.72L524.86,362.42L526.07,361.99L527.08,362.85L528.66,363.13L529.25,364.29L530.47,363.84L531.95,363.87L533.01,362.6L534.24,362.23L535.01,362.98L534.64,363.59L535.06,364.67L535.74,365.15L535.72,368.16L535.02,369.82L535.55,370.17L535.7,371.34L534.14,374.05L532.28,374.83L531.42,374.26L529.64,374.58L528.94,375.14L528.33,374.58L529.77,372.86L529.61,372.26L528.47,371.5L527.48,371.78L527.93,372.82L526.08,372.43L525.54,372.89L524.9,374.43L520.98,374.7L518.34,374.02L517.35,374.53L514.12,374.29L512.78,375.13L512.16,374.85L510.19,375.21L507.46,377.32L506.19,377.15L504.89,377.82L504.19,379.64L503.16,379.13L502.49,377.9L499.77,379.18L499.72,380.62L501.11,380.78L502.25,381.95L503.41,381.98L503.41,382.95L502.48,384.84L502.8,385.72L502.28,387.31L500.78,388.26L499.39,388.66L496.4,388.95L495.23,390.24L495.05,392L493.34,391.95L492.14,390.95L491.02,391.81L489.2,391.91L488.6,390.69L487.85,388.48L486.79,388.92L484.34,388.74L483.62,386.51L483.69,385.74L482.14,384.82L481.86,384.23L480.63,383.39L479.42,382.1L478.63,381.83L479.02,379.96L478.25,377.32L477.41,376.4L476.19,376.12L476.5,374.43L476.25,373.97L474.83,374.58L473.81,373.63L472.39,373.95L471.51,373.35L471.56,372.01L472.9,371.73L473.5,369.13Z" class="land" id="IE-WD" title="Waterford"/>
    <path d="M515.52,224.86L515.71,225.67L518.45,226.91L519.8,229.54L521.55,230.84L521.17,232.33L521.89,233.69L524.11,234.83L526.11,235.48L526.85,236.46L527.69,235.53L528.36,236.9L530.45,239.03L531.29,237.87L533.63,237L534.05,235.95L534.75,236.1L535.53,237.81L536.45,238.56L536.13,239.97L534.72,241.4L535.09,242.76L534.85,243.87L534.25,244.42L534.36,245.3L533.19,245.17L532.41,246.11L532.29,247.32L533.12,248.22L532.88,250.21L531.81,252.22L530.51,252.71L530.85,253.59L530.72,255.06L529.2,256.33L527.65,257.15L525.97,256.81L525.45,257.85L523.65,258.32L523.76,259.22L522.47,259.78L522.5,260.41L520.37,261.39L519.14,261.7L516.37,264.34L515.54,264.61L514.29,265.96L514.1,266.72L512.43,267.62L511.01,267.17L509.39,268.7L508.5,267.53L507.21,267.73L507.28,266.6L505.27,266.53L504.63,266.95L503.45,265.68L503.18,263.17L502.61,262.49L502.86,261.71L501.3,261.29L501.17,260.27L500.22,259.76L498.59,260.84L497.71,261.04L496.49,261.96L495.61,263.05L494.98,264.97L492.26,266.06L491.05,265.5L489.01,265.44L487.77,266.07L486.3,265.94L485.09,264.79L484.08,264.6L484.77,263.98L483.99,261.89L483.14,260.99L482.98,260.18L481.54,259.33L482.23,258.36L481.68,256.77L482.26,253.67L481.52,250.14L482.91,249.77L484.35,248.17L485.9,248.17L487.49,247.66L488.75,248.51L489.61,248.15L490.75,248.77L493.11,249.06L493.86,249.7L494.94,249.77L495.74,248.8L498.1,249.14L498.4,248.35L498.17,246.85L499.61,245.21L499.95,243.98L501.39,243.44L501.29,242.12L502.25,241.7L502.99,242.03L503.37,240.42L502.92,239.64L500.69,238.65L501.04,237.78L502.88,237.78L503.22,236.63L504.18,236.78L505.38,236.2L505.12,235.28L505.84,234.34L507.69,233.82L508.41,232.61L509.02,232.55L509.21,231.3L513.2,230.75L513.34,229.26L513.83,228.79L513.27,227.34L511.94,226.98L513.9,226Z" class="land" id="IE-WH" title="Westmeath"/>
    <path d="M562.58,276.35L565.53,276.68L565.98,277.88L566.88,278.26L568.32,278.22L568.06,280.14L570.17,281.42L571.39,279.94L571.95,277.23L572.54,277.48L573.3,278.41L575.2,279.25L577.02,277.93L578.55,277.68L579.71,279.29L580.9,279.53L582.76,278.39L583.34,279.66L584.14,280.3L584.44,281.58L584.42,283.26L585.79,285.76L586.2,287.05L586.54,291.22L585.79,294.6L585.85,298.05L587.34,299.89L588.36,300.7L587.57,301.81L587.21,304.1L586.32,304.98L586.23,306.52L585.27,307.86L584.93,309.51L585.26,310.25L582.98,311.7L582.09,313.14L581.84,314.1L580.9,315.38L580.48,317.13L580.53,318.74L580.96,319.16L580.46,320.51L580.78,321.2L579.85,321.08L578.78,319.53L579.16,318.47L577.68,318.26L576.79,317.51L575.28,317.49L574.2,315.95L572.38,317.08L571.09,315.79L568.12,316.05L566.77,316.64L565.93,317.52L565.77,319.43L564.93,319.52L564.85,321.33L563.24,322.82L561.49,325.17L559.22,325.94L557.44,325.82L557.39,324.38L555.98,324.2L555.05,323.36L554.16,321.76L552.92,320.31L553.38,319.63L552.83,318.36L551.55,317.18L550.59,317.78L550.42,315.02L552.18,313.72L552.46,312.33L554.43,313.54L554.97,314.76L555.61,314.59L557.37,315.22L557.73,314.12L559.29,313.53L559.95,311.56L559.72,309.6L560.76,309.38L560.79,308.33L559.37,307.4L558.56,308.67L557.58,308.15L556.57,308.34L556.42,306.9L551.93,305.69L551.14,306.18L549.72,304.94L548.33,305.16L548.59,304.04L548.3,302.66L545.67,299.69L545.21,298.27L545.52,297.52L546.69,296.68L546.14,295.72L547.25,295.29L548.7,292.95L548.6,291.6L549.32,291.09L551.26,290.53L552.47,289.49L554.15,289.14L554.4,288.07L555.25,288.03L557.17,285.48L557.24,283.97L559.03,282.49L558.03,281.83L558.12,281.06L559.11,280.41L560.07,280.65L561.25,278.99L560.75,278.15L561.59,277.62Z" class="land" id="IE-WW" title="Wicklow"/>
    <path d="M555.05,323.36L555.98,324.2L557.39,324.38L557.44,325.82L559.22,325.94L561.49,325.17L563.24,322.82L564.85,321.33L564.93,319.52L565.77,319.43L565.93,317.52L566.77,316.64L568.12,316.05L571.09,315.79L572.38,317.08L574.2,315.95L575.28,317.49L576.79,317.51L577.68,318.26L579.16,318.47L578.78,319.53L579.85,321.08L580.78,321.2L579.79,323.01L578.27,324.42L576.49,328.38L576.02,331.27L576.97,333.11L576.91,334.43L577.75,336.86L576.68,339.42L575.84,340.44L572.59,345.27L570.94,348.19L569.31,350.05L568.67,351.86L568.62,354.48L569.1,355.84L567.52,355.05L564.75,354.98L563.28,356.32L564.13,357.55L564.16,359.31L565.07,359.38L566.68,361.02L568.2,363.82L569.77,364.14L571.25,365.17L570.59,366.64L569.71,367.59L569.27,368.85L569.55,369.78L568.7,371.14L567.3,370.86L565.67,369.99L563.18,369.67L561.47,369.75L558.52,370.39L557.98,370.89L556.15,371.16L555.31,370.06L553.31,368.62L551.48,367.66L549.96,367.21L548.15,367.83L547.32,367.67L546.64,368.3L545.64,368.4L544.54,367.22L547.47,364.58L545.21,365.28L543.34,366.96L543.95,368.1L543.32,369.01L543.8,369.58L541.89,371.8L540.65,372.21L539.45,373.54L538.56,375.43L537.78,374.91L538.89,373.19L539.52,372.75L539.62,371.12L538.9,369.6L539.35,368.88L538.34,367.29L536.59,365.3L535.74,365.15L535.06,364.67L534.64,363.59L535.01,362.98L534.24,362.23L533.25,360.42L533.98,358.84L534.73,358.3L534.32,355.7L534.85,353.99L535.98,353.95L536.03,352.96L537.3,350.84L536.89,348.84L538,349.32L538.61,348.63L538.04,347.31L538.61,345.5L539.8,345.51L541.29,344.46L541.93,342.69L543.14,340.66L542.94,339.56L544.63,337.74L544.68,336.6L545.53,336.49L546.03,335.2L545.9,333.6L546.27,331.37L547.64,329.95L548.84,329.59L551.2,330.2L552.38,329.11L552.92,327.85L551.78,327.66L551.88,326.3L553.34,325.53L554.1,324.1Z" class="land" id="IE-WX" title="Wexford"/>
  </g>
</svg>