<?xml version="1.0" encoding="UTF-8"?>
<svg xmlns="http://www.w3.org/2000/svg" width="538" height="366.04" viewBox="211 73.98 538 366.04" style="background-color:#000000">
  <!-- Created using SVG Map Generator: dojo.amcharts.com/svg-map-generator -->
  <style>
    .land { fill: #ffffff; stroke: #000000; stroke-width: 0.65; }
  </style>
  <g id="polygons">
    <path d="M483.1,394.66L487.08,395.72L490.35,398.55L489.73,401.21L486.01,403.32L489.9,405.45L487.96,407.22L486.81,410.5L489.46,413.51L492.47,414.21L492.73,416.34L488.31,419.6L484.87,418.55L482.66,419.7L472.59,420.05L470.55,417.66L466.67,420.67L466.84,414.57L462.86,413.33L463.22,409.52L465.96,407.76L466.67,402.98L465.43,401.03L466.75,396.69L468.7,398.03L476.03,393.6L479.92,392.89ZM421.09,432.14L417.6,434.34L417.29,431.28ZM453.15,408.55L458.09,408.55L460.04,410.86L457.3,414.57L449.97,415.28L445.2,410.24L447.76,407.57L451.03,407.31ZM560.14,369.15L559.67,394.64L550.84,397.57L545.8,399.99L540.48,404.57L533.49,419.08L528.06,425.54L520.06,430.15L513.8,431.22L493.4,437.37L487.16,436.38L482.53,434.79L479.13,436.37L474.81,436.26L467.21,432.41L460.84,430.15L451.07,425.47L445.85,423.55L437.92,421.94L432.04,421.75L428.15,422.66L423.46,421.82L418.88,418.65L411.12,410.73L401.08,401.8L392.22,395.7L388.52,391.24L385.65,389.03L381.24,387.98L374.18,382.87L367.14,383.18L365.36,386.89L361.89,386.57L355.86,387.99L353.71,389.16L350.88,388.68L348.54,385.13L344.82,384.34L342.21,386.82L338.84,387.52L338.92,385.68L343.08,382.24L343.65,380.51L347.23,377.64L350.53,373.77L351.97,372.34L355.54,372.19L356.41,368.17L364.29,356.11L366.29,350.38L365,343.2L369.45,338.46L371.31,335.31L373.17,335.02L376,332L379.69,328.18L381.72,323.78L388.75,317.09L392.87,311.6L394.84,311.43L397.51,314.06L401.44,312.56L401.83,308.8L402.88,307.31L405.36,309.13L408.42,309.49L408.85,313.06L411.42,317.64L414.48,316.06L414.56,312.35L417.41,311.43L419.12,316.2L422.05,316.28L425.54,312.21L433.38,307.85L435.81,305.49L434.03,303.06L436.17,301.64L436.31,299.21L438.31,297.78L437.45,294.07L439.59,291.64L439.02,288L442.73,285.71L443.01,282.36L441.16,279.93L443.66,278.15L444.44,273.86L447.3,278.13L457.45,279.91L461.5,281.81L465.43,281.18L468.22,283.21L474.78,283.03L473.42,287.27L474.94,290.82L482.3,297.04L486.86,298.69L487.75,293.24L490.92,293.49L491.55,296.92L496.12,298.69L498.02,296.54L495.73,293.75L496.62,289.68L499.41,291.84L503.6,289.3L506.26,284.48L505.75,273.56L506.37,272.45L507.16,271.79L508.75,274.79L513.32,278.85L513.15,283.42L518.39,282.23L522.11,283.42L525.15,289.51L525.49,291.72L530.39,294.42L536.82,294.09L540.2,296.79L541.25,299.04L532.42,306.94L531.92,313.21L536.82,315.07L535.3,317.44L530.9,318.79L530.9,321.17L528.87,326.41L520.93,334.36L520.93,336.74L523.12,341.82L526.84,343.18L527.01,347.23L531.24,347.74L528.53,350.28L528.36,354.51L534.62,359.93L541.38,360.09L543.58,356.37L544.09,351.46L542.9,345.87L545.1,345.71L545.95,350.79L548.82,350.79L552.71,346.9L554.74,349.27L556.43,347.74L557.27,344.19L562.68,348.58L561.84,353.16L562.34,356.04L561.5,362.13L560.15,366.19Z" class="land" id="IS-8" title="Suðurland"/>
    <path d="M692.68,145.88L692.91,147.43L690.08,154.7L683.93,159.86L680.68,172.01L683.21,173.55L689.42,169.68L695.88,169.46L700.43,166.75L706.21,165.5L706.29,167.29L703.66,173.56L705.99,177.29L712.29,183.06L715.65,185.34L722.28,187.7L724.95,185.68L728.78,186.35L730.96,191.86L731.05,196.67L734.8,193.4L737.58,193.63L739.99,198.24L740.54,203.66L738.54,205.19L739.82,207.6L737.89,210.19L739.1,212.79L735.17,216L729.69,215.39L729.48,216.82L735.09,218.54L733.14,221.81L736.96,222.98L742.75,225.92L741.33,229.5L738.38,233.21L727.95,234.73L732.34,236.24L740.42,236.01L739.39,242.66L741.85,245.58L743.33,241.28L745.18,241.27L744.31,246.56L746.35,249.86L744.22,252.71L741.54,253.38L741.55,257.93L738.48,258.97L732.91,258.88L729.17,253.66L724.03,251.56L718.63,253L719.53,255.15L723.39,256.88L726.08,256.49L728.37,260.14L732.92,263.94L737.5,264.92L737.62,267.48L729.45,268.73L734.37,272.62L730.55,277.32L726.6,280.92L723.85,280.41L720.54,283.72L723.1,287.54L718.11,291.54L710.08,292.71L706.17,290.64L702.61,284.05L699.43,285.47L702.88,287.73L703.19,290.82L705.78,294.26L709.91,296.26L706.81,298.08L703.04,296.16L697.22,297.48L702.41,299.96L702.23,302.41L698.32,304.79L697.23,303.76L693.82,305.73L695.14,310.46L697.88,310.56L699.61,314.66L697.58,319.35L697.97,321.79L695.5,325.03L691.67,322.55L687.67,323.31L686.81,325.84L684.08,328.73L682.48,327.86L680.6,331.14L675.49,335.24L678.24,337.78L675.29,343.4L673.42,342.46L671.82,339.27L668.29,337.47L667.14,339.8L661.46,337.11L660.32,333.06L658.22,331.05L655.6,332.7L656.16,338.57L651.9,344.74L642.27,347.61L640.34,347.72L637.02,350.93L630.88,353.09L626.3,355.99L609.88,371.75L608.15,372.3L605.19,377.81L599.22,383.38L596.5,383.74L594.17,386.38L589.41,385.83L587.57,387.88L587.35,393.12L577.19,394.27L564.97,393.86L559.67,394.64L560.14,369.15L565.41,370.85L570.81,370L572.33,368.99L573.18,364.59L569.29,361.37L569.46,358.32L571.66,358.49L573.69,355.44L575.38,356.62L580.11,356.97L582.48,359.33L583.83,357.64L586.2,360.18L581.64,363.57L588.56,362.89L589.75,364.41L588.4,369.66L591.95,375.25L598.54,375.07L601.58,368.81L606.48,368.3L606.15,366.78L600.57,363.9L603.44,360.86L607.16,362.22L611.22,361.54L614.94,363.07L617.14,360.86L616.8,356.29L615.11,354.76L612.91,350.2L614.43,346.98L618.15,350.53L619.84,350.02L621.02,346.47L618.83,344.61L617.48,341.56L623.22,341.05L626.94,342.24L631.17,341.05L635.23,342.24L638.44,341.4L639.11,339.53L634.55,338.52L632.52,335.81L639.96,336.99L634.04,333.44L630.83,329.55L635.73,328.02L636.41,326.67L644.52,332.42L644.86,330.05L639.79,326.5L639.28,324.8L645.88,320.57L647.06,318.03L649.77,322.43L653.15,323.11L652.98,320.4L648.92,317.53L650.95,311.77L653.48,313.47L658.22,310.58L660.58,305.17L662.78,304.15L660.75,301.44L657.03,301.27L657.37,296.03L647.4,296.71L647.4,294.51L650.1,291.29L647.74,290.44L643.85,292.47L643,298.23L634.55,292.81L634.72,286.04L631.85,282.99L627.11,282.15L618.66,282.15L611.9,287.57L606.15,289.76L602.26,293.49L601.41,297.38L599.72,300.09L594.32,302.13L594.32,299.92L596.51,298.4L595.5,294.51L596.01,290.61L593.13,290.61L592.96,294.68L590.09,296.54L589.75,290.1L590.93,286.72L592.79,285.2L592.64,281.07L593.98,278.08L596.01,269.12L604.96,264.21L609.86,257.61L613.76,256.93L616.46,252.53L615.11,251.01L614.77,246.77L615.95,245.59L615.78,233.91L616.63,230.7L619.33,228.15L623.22,222.91L624.74,218L617.81,211.74L617.31,209.03L618.83,202.93L621.36,197.35L621.36,194.64L623.9,192.11L627.96,193.12L631.85,192.78L634.72,194.47L638.61,192.44L641.48,187.7L639.79,175.52L641.31,170.27L648.58,168.07L651.62,165.02L658.22,160.79L657.71,156.73L660.42,155.55L669.04,154.02L673.26,154.7L675.12,153.51L679.52,153.17L683.58,150.64L684.25,147.93L686.62,145.9ZM659.17,333.43L660.64,338.07L657.76,337.86Z" class="land" id="IS-7" title="Austurland"/>
    <path d="M692.68,145.88L686.62,145.9L684.25,147.93L683.58,150.64L679.52,153.17L675.12,153.51L673.26,154.7L669.04,154.02L660.42,155.55L657.71,156.73L658.22,160.79L651.62,165.02L648.58,168.07L641.31,170.27L639.79,175.52L641.48,187.7L638.61,192.44L634.72,194.47L631.85,192.78L627.96,193.12L623.9,192.11L621.36,194.64L621.36,197.35L618.83,202.93L617.31,209.03L617.81,211.74L624.74,218L623.22,222.91L619.33,228.15L616.63,230.7L615.78,233.91L615.95,245.59L614.77,246.77L615.11,251.01L616.46,252.53L613.76,256.93L609.86,257.61L604.96,264.21L596.01,269.12L593.98,278.08L592.64,281.07L589.41,278.93L587.72,279.78L583.33,279.44L578.76,278.08L572.5,280.45L568.45,284.52L562.36,282.48L558.65,284.35L554.08,288.92L553.57,291.29L546.13,297.04L544.95,300.09L541.25,299.04L540.2,296.79L536.82,294.09L530.39,294.42L525.49,291.72L525.15,289.51L522.11,283.42L518.39,282.23L513.15,283.42L513.32,278.85L508.75,274.79L507.16,271.79L509.81,268.6L513.23,269.12L514.37,267.59L514.37,262.89L511.08,258.2L511.08,253.63L512.6,249.06L512.73,242.33L511.21,238.78L511.08,233.19L503.22,227.61L502.58,220.24L498.27,217.45L494.98,213.14L493.96,210.22L492.95,202.98L494.85,199.93L493.33,195.62L488.39,194.47L485.21,191.93L484.71,187.49L487.5,183.43L489.27,178.48L489.27,167.19L485.85,164.9L480.65,159.69L480.78,156.65L486.1,152.58L485.98,147.5L483.44,143.32L485.98,134.43L481.28,130.75L479.25,127.32L480.27,124.91L477.48,122.26L482.13,117.9L484.41,117.67L487.7,119.98L488.96,116.24L498.21,122.69L499.87,126.58L503.49,130.97L504.66,137.33L503.64,143.92L507.38,144.62L509.45,146.87L513.79,147.17L516.08,151.93L516.75,156.57L520.11,158.25L520.1,165.24L522.09,168.73L521.6,172.76L524.27,177.08L526.51,178.26L524.82,170.36L526.59,164.7L526.48,159.69L525.26,154.99L523.29,152L519.52,150.1L520.54,146.07L517.6,143.03L515.57,138.06L514.85,130.63L513.63,125.67L514.18,121.36L516.32,119.06L521.73,119.71L527.9,122L532.51,122.76L535.38,127.64L541.47,132.72L544.28,137.34L545.45,142.08L550.88,143.23L555.37,142.46L558.69,139.74L560.8,130.53L565,126.57L564.3,120.78L567.01,118.33L575.9,116.61L578.02,119L578.43,122.78L580.78,126.31L585.71,125.84L590.51,122.84L600.41,117.74L604.89,111.96L605.19,107.88L600.62,98.69L601.27,91.08L597.81,83.7L599.42,79.89L607.2,79.65L609.51,82.54L613.34,81.54L616.61,77.25L618.48,76.63L626.88,78.36L629.56,88.49L633.51,89.65L633.35,91.88L639.66,93.08L641.26,99.64L639.87,103.63L637.09,106.58L640.38,114.03L648.69,114.84L650.08,118L652.23,118.12L653.49,121.33L657.23,121.08L658.38,118.58L657.42,116.02L658.17,110.17L661.19,110.86L668.01,108.51L671.95,104.66L673.75,98.79L677.13,96.19L682.13,94.4L684.97,97.26L689.39,97.32L692.52,95.42L694.4,97.16L684.71,101.28L682.17,104.07L676.08,106.49L674.21,109.77L677.64,114.38L677,118.48L670.82,123.82L666.65,124.84L664.81,127.5L666.49,129.85L670.69,128.86L670.84,132.57L673.63,137L678.25,136.88L680.61,139.8L683.07,136.29L686.73,133.78L689.19,134.8L690.52,140.06L692,141.12ZM534.68,288.97L531.39,288.97L529.51,286.57L533.26,283.5L536.85,281.7L538.35,285.22Z" class="land" id="IS-6" title="Norðurland eystra"/>
    <path d="M477.48,122.26L480.27,124.91L479.25,127.32L481.28,130.75L485.98,134.43L483.44,143.32L485.98,147.5L486.1,152.58L480.78,156.65L480.65,159.69L485.85,164.9L489.27,167.19L489.27,178.48L487.5,183.43L484.71,187.49L485.21,191.93L488.39,194.47L493.33,195.62L494.85,199.93L492.95,202.98L493.96,210.22L494.98,213.14L498.27,217.45L502.58,220.24L503.22,227.61L511.08,233.19L511.21,238.78L512.73,242.33L512.6,249.06L511.08,253.63L511.08,258.2L514.37,262.89L514.37,267.59L513.23,269.12L509.81,268.6L507.16,271.79L506.37,272.45L506.89,268.1L500.68,264.67L498.65,262.26L496.75,263.91L493.2,263.41L490.54,261.11L485.98,261.38L480.27,266.2L480.39,270.25L478.37,270.52L477.23,273.94L473.17,273.81L473.3,277.62L475.45,280.92L474.78,283.03L468.22,283.21L465.43,281.18L461.5,281.81L457.45,279.91L447.3,278.13L444.44,273.86L442.73,270L440.1,269.18L440.19,267.09L437.15,266.42L428.03,266.61L425.06,265.33L418.77,267.02L410.33,263.1L408.64,265.87L404.99,265.87L401,269.93L395.53,266.61L389.47,266.55L384.37,263.15L384.08,261.31L383.6,256.96L379.16,248.74L378.78,246.23L380.41,240.2L381.02,235.67L378.62,227.03L379.89,225.15L380.9,219.76L379.45,205.81L381.31,204.85L384.65,214.44L387.55,217.83L384.5,202.18L387.01,190.93L397.84,178.93L401.98,179.74L401.23,182.57L401.58,188.98L406.99,189.34L413.54,187.6L416.58,185.56L417.69,178.15L419.38,173.63L418.87,166.87L416.34,160.65L416.98,156.89L415.18,152.97L413.27,145.7L413.16,142.05L411.65,137.28L412.46,133.5L411.84,130.26L415.8,129.5L417.42,127.14L421.62,127.47L424.74,124.69L426.88,125.8L429.82,129.85L430.45,133.17L432.99,139.13L434.94,141.13L436.17,147.24L440.47,152.2L445.35,155.77L448.83,163.78L448.57,168.37L450.91,171.46L453.42,171.07L454.4,168.03L458.03,172.32L461.64,170.1L463.35,161.01L461.45,153.87L456.62,143.78L460.15,143.32L461.06,139.93L459.49,134.41L463.44,131.18L468.54,131.23L476.25,129.17Z" class="land" id="IS-5" title="Norðurland vestra"/>
    <path d="M380.41,240.2L378.78,246.23L379.16,248.74L383.6,256.96L384.08,261.31L384.37,263.15L374.24,258.99L374.04,256.48L372.11,254.05L369.5,247.39L371.82,242.17L371.44,238.2L369.89,236.47L369.6,232.02L365.74,228.25L365.16,223.81L359.37,216.45L355.03,218.87L351.55,215.4L352.42,207.95L354.83,203.79L352.61,202.35L350.95,205.02L346.36,206.98L339.78,204.48L334.76,198.92L330.72,199.99L327.41,206.55L324.34,207.99L321.69,206.69L320.45,203.66L317,202.66L316.62,200.87L320.35,198.45L319.64,195.59L314.32,199.09L312.39,198.64L312.9,193.48L307.16,194.61L305.11,197.52L300.15,193.65L301.52,200L297.95,196.42L295.81,196.56L294.7,193.49L298.42,188.39L295.67,187.06L293.09,191.74L289.36,189.57L288.83,193.63L287.49,195.23L280.9,194.24L277.86,194.54L278.98,198.68L275.95,202.12L270.19,200.99L268.74,198.76L264.92,202.23L259.49,204.21L256.74,203.72L253.31,210.11L245.11,211.11L241.09,209.37L241.93,203.8L235.17,202.41L230.3,200.13L219.32,200.86L216.48,201.73L213.65,199.95L216.45,198L217.59,195.26L220.24,195.03L221.96,192.4L221.37,188.87L223.77,186.22L224.02,183.72L231.9,187.42L233.6,190.41L238.62,193.14L245.42,195.75L240.19,189.19L239.02,188.96L235.69,183.85L236.14,182.58L242.53,183.44L243.57,181.92L239.19,179.94L236.34,177.1L233.48,167.29L234.56,164.04L237.79,164.84L243.47,169.1L246.15,169.64L248.25,172.16L258.61,177.17L261.48,183.17L267.52,181.96L269.02,180.13L264.21,178.33L261.73,174.26L264.88,173.17L269.45,173.03L271.53,171.87L277.12,172.4L276.52,166.81L273.6,169.03L261.76,170.13L253.34,167.23L247.83,161.19L245.63,154.63L248.6,150.13L256.59,153.19L256.97,154.78L260.84,156.09L263.68,154.91L265.83,157.71L268,156.5L263.84,152.64L259.03,151.48L251.5,144.02L247.76,137.36L250.62,132.34L255.42,133.82L260.4,136.79L265.53,138.64L265.64,135.93L262.2,133.99L256.35,129.05L255.69,126.47L259.31,126.11L258.06,122.92L261.14,119.12L264.37,116.87L269.98,117.44L274.27,119.15L275.34,121.82L279.72,123.29L282.13,128.49L287.59,130.37L288.03,138.25L291.38,138.59L296.29,141.25L296.03,147.28L297.87,146.54L297.52,140.14L298.39,134.37L302.6,135.13L303.58,138.35L305.54,138.85L307.74,146.7L310,145.02L314.17,147.98L313.91,153.43L317.16,154.46L317.75,149.44L316.01,141.35L312.13,136.67L313.38,131.29L310.91,130.93L306.89,127.52L303.99,126.66L292.87,121.09L288.83,116.48L288.61,112.28L293.55,109.58L298.75,108.6L302.9,111.06L314.42,109.49L308.51,108.2L308.72,105.91L303.31,105.44L301.17,104.29L302.85,100.29L295.06,102.8L292.07,102.66L285.84,104.7L279.32,100.58L278.34,96.83L283.98,98.51L285.76,97.12L284.1,93.14L280.34,88.21L282.21,87.19L289.37,87.49L290.36,83.01L294.51,84.38L296.38,86.49L299.74,87.05L300.66,89.77L303.21,89.78L307.18,83.62L311.8,88.53L313.9,87.81L317.84,92.25L323.88,96.79L324.06,102.36L327.95,106.32L330.59,106.58L332.13,109.51L334.84,109.01L338.43,110.84L341.83,117.3L348.14,118.23L349.1,121.97L347.74,125.39L347.75,129.72L348.87,133.32L357.54,129.56L359.93,134.81L358.89,138.52L364.67,136.86L368.52,139.97L368.2,141.81L362.95,142.34L354.74,145.36L357.13,146.9L365.21,144.57L365.57,148.12L368.42,147.24L370.17,148.97L370.76,157.18L367.98,164.57L365.77,166.55L364.93,169.93L367.72,170.75L363.09,177.46L355.83,177.1L352.79,173.07L351.62,177.89L352.55,182.01L355.12,183.26L360.53,182.5L364.83,184.39L364.92,187.19L360.74,192.08L361.69,193.17L366.7,187.71L369.91,188.58L369.9,194.95L368.52,199.06L365.84,201.57L365.57,204.72L370.33,201.71L371.1,204.45L373.8,206.92L375.34,211.75L375.58,218.48L374.65,222.48L379.69,233.72ZM329.29,131.95L327.6,131.95L321.65,126.97L318.5,123.45L316.8,123.09L315.34,116.65L320.2,113.01L323.96,114.22L327.23,117.38L328.08,121.15L329.78,122.49L333.06,128.56Z" class="land" id="IS-4" title="Vestfirðir"/>
    <path d="M415.95,287.1L410.86,287.48L410.86,284.43L414.38,281.76L417.17,283.34ZM251.14,276.85L252.96,280.49L250.41,283.4L246.17,280.61L247.38,277.45ZM384.37,263.15L389.47,266.55L395.53,266.61L401,269.93L404.99,265.87L408.64,265.87L410.33,263.1L418.77,267.02L425.06,265.33L428.03,266.61L437.15,266.42L440.19,267.09L440.1,269.18L436.68,269.66L435.8,271.89L432.69,273.31L428.1,278.05L428.16,284.68L423.64,285.89L419.92,288.68L420.12,291.85L416.47,292.73L412.96,292.39L408.43,293.95L405.1,296.51L405.57,299.9L400.03,304.43L402.88,307.31L401.83,308.8L397.6,307.55L394.84,311.43L392.87,311.6L388.75,317.09L381.72,323.78L379.69,328.18L376,332L370.9,328.59L366.89,327.6L362.66,326.09L358.22,326.73L353.17,325.45L348.75,328.08L345.36,332.45L340.49,336.05L334.2,336.6L333.37,333.13L337.3,330.36L340.7,330.12L342.04,328.17L339.73,326.11L336.07,327.62L333.83,325.14L335.1,323.17L337.84,314.26L342.07,311.64L346.41,310.74L345.29,305.17L338.16,309.52L337.14,311.56L333.93,311.32L331.26,318.05L326.97,318.05L324.65,312.94L325.49,309.08L322.72,306.26L319.67,304.77L317.16,298.57L314.11,296.62L317.42,292.7L317.66,289.89L320.81,285.45L315.95,284.47L313.46,279.57L310.61,279.71L307.19,282.9L302.14,279.83L299.21,280.91L295.17,280.59L292.04,281.67L288.29,280.18L282.59,280.56L275.06,278.14L270.02,277.95L267.47,281.88L263.65,280.41L259.02,280.83L257.76,282.26L256.75,287.67L254.28,286.94L248.48,287.27L243.92,285.7L239.15,277.4L237.26,271.9L240.22,271.17L243.38,266.66L247.09,265.88L250.66,268.67L257.18,270.55L258.83,267.87L262.28,267.29L264.37,263.59L269.16,264.58L272.62,266.78L277.41,266.43L277.8,264.38L276.63,258.68L278.16,256.96L282.16,259.16L282.33,262.42L284.95,261.91L286.78,257.73L291.03,258.66L295.37,257.53L296.42,252.98L300.65,249.01L303.03,251.36L302.32,254.13L303.45,257.83L305.98,257.62L307.23,254.23L310.34,252.09L312.5,253.05L320.18,250.71L326.67,254.75L329.76,255.03L332.66,253.55L336.48,255.06L345.14,254.9L346.71,252.74L344.52,248.7L349.83,240.03L349.4,235.4L344.73,234.47L342.87,239.66L336.53,244.56L331.1,245.45L329.23,244.15L323.96,243.73L316.05,239.16L309.99,239.71L309.17,237.45L314.08,236.78L311.02,234.41L312.98,230.55L319.41,225.07L319.66,223.65L328.52,220.26L329.92,218.35L335.43,213.95L337.29,213.87L340.63,209.01L341.96,210.03L347.15,209.08L350.95,205.02L352.61,202.35L354.83,203.79L352.42,207.95L351.55,215.4L355.03,218.87L359.37,216.45L365.16,223.81L365.74,228.25L369.6,232.02L369.89,236.47L371.44,238.2L371.82,242.17L369.5,247.39L372.11,254.05L374.04,256.48L374.24,258.99Z" class="land" id="IS-3" title="Vesturland"/>
    <path d="M329.3,366.36L335.34,373.05L342.36,370.89L349.96,370.75L351.95,372.35L350.53,373.77L347.23,377.64L343.65,380.51L343.08,382.24L338.92,385.68L338.84,387.52L332.21,388.33L329.21,387.54L324.87,388.08L318.99,385.5L316.7,387.33L310.05,390.29L305.79,389.19L302.65,391.34L300.02,389.48L302,385.21L300.18,383.55L302.34,376.81L299.32,372.65L301.55,368.97L301.28,363.15L304.62,361.49L308.96,366.61L310.09,372.62L316.28,372.67L317.23,369.86L323.02,366.55L325.73,368.03Z" class="land" id="IS-2" title="Suðurnes"/>
    <path d="M351.95,372.35L349.96,370.75L342.36,370.89L335.34,373.05L329.3,366.36L331.39,364.74L335.22,364.31L337.38,362.39L334.24,359.74L335.32,357.05L337.59,357.13L337.31,353.41L343.36,353.95L347.96,351.83L346.98,348.48L344.49,344.16L341.34,343.05L343.73,338.03L351.44,330.77L355.79,328.34L356.84,329.78L362.62,330.74L366.89,327.6L370.9,328.59L376,332L373.17,335.02L371.31,335.31L369.45,338.46L365,343.2L366.29,350.38L364.29,356.11L356.41,368.17L355.54,372.19L351.97,372.34Z" class="land" id="IS-1" title="Höfuðborgarsvæði"/>
    <path d="M401.83,308.8L401.44,312.56L397.51,314.06L394.84,311.43L397.6,307.55Z" class="land" id="GL10" title="Þórisjökull"/>
    <path d="M541.25,299.04L544.95,300.09L546.13,297.04L553.57,291.29L554.08,288.92L558.65,284.35L562.36,282.48L568.45,284.52L572.5,280.45L578.76,278.08L583.33,279.44L587.72,279.78L589.41,278.93L592.64,281.07L592.79,285.2L590.93,286.72L589.75,290.1L590.09,296.54L592.96,294.68L593.13,290.61L596.01,290.61L595.5,294.51L596.51,298.4L594.32,299.92L594.32,302.13L599.72,300.09L601.41,297.38L602.26,293.49L606.15,289.76L611.9,287.57L618.66,282.15L627.11,282.15L631.85,282.99L634.72,286.04L634.55,292.81L643,298.23L643.85,292.47L647.74,290.44L650.1,291.29L647.4,294.51L647.4,296.71L657.37,296.03L657.03,301.27L660.75,301.44L662.78,304.15L660.58,305.17L658.22,310.58L653.48,313.47L650.95,311.77L648.92,317.53L652.98,320.4L653.15,323.11L649.77,322.43L647.06,318.03L645.88,320.57L639.28,324.8L639.79,326.5L644.86,330.05L644.52,332.42L636.41,326.67L635.73,328.02L630.83,329.55L634.04,333.44L639.96,336.99L632.52,335.81L634.55,338.52L639.11,339.53L638.44,341.4L635.23,342.24L631.17,341.05L626.94,342.24L623.22,341.05L617.48,341.56L618.83,344.61L621.02,346.47L619.84,350.02L618.15,350.53L614.43,346.98L612.91,350.2L615.11,354.76L616.8,356.29L617.14,360.86L614.94,363.07L611.22,361.54L607.16,362.22L603.44,360.86L600.57,363.9L606.15,366.78L606.48,368.3L601.58,368.81L598.54,375.07L591.95,375.25L588.4,369.66L589.75,364.41L588.56,362.89L581.64,363.57L586.2,360.18L583.83,357.64L582.48,359.33L580.11,356.97L575.38,356.62L573.69,355.44L571.66,358.49L569.46,358.32L569.29,361.37L573.18,364.59L572.33,368.99L570.81,370L565.41,370.85L560.14,369.15L560.15,366.19L561.5,362.13L562.34,356.04L561.84,353.16L562.68,348.58L557.27,344.19L556.43,347.74L554.74,349.27L552.71,346.9L548.82,350.79L545.95,350.79L545.1,345.71L542.9,345.87L544.09,351.46L543.58,356.37L541.38,360.09L534.62,359.93L528.36,354.51L528.53,350.28L531.24,347.74L527.01,347.23L526.84,343.18L523.12,341.82L520.93,336.74L520.93,334.36L528.87,326.41L530.9,321.17L530.9,318.79L535.3,317.44L536.82,315.07L531.92,313.21L532.42,306.94Z" class="land" id="GL9" title="Vatnajökull"/>
    <path d="M483.1,394.66L487.08,395.72L490.35,398.55L489.73,401.21L486.01,403.32L489.9,405.45L487.96,407.22L486.81,410.5L489.46,413.51L492.47,414.21L492.73,416.34L488.31,419.6L484.87,418.55L482.66,419.7L472.59,420.05L470.55,417.66L466.67,420.67L466.84,414.57L462.86,413.33L463.22,409.52L465.96,407.76L466.67,402.98L465.43,401.03L466.75,396.69L468.7,398.03L476.03,393.6L479.92,392.89Z" class="land" id="GL8" title="Mýrdalsjökull"/>
    <path d="M453.15,408.55L458.09,408.55L460.04,410.86L457.3,414.57L449.97,415.28L445.2,410.24L447.76,407.57L451.03,407.31Z" class="land" id="GL7" title="Eyjafjallajökull"/>
    <path d="M534.68,288.97L531.39,288.97L529.51,286.57L533.26,283.5L536.85,281.7L538.35,285.22Z" class="land" id="GL6" title="Tungnafellsjökull"/>
    <path d="M415.95,287.1L410.86,287.48L410.86,284.43L414.38,281.76L417.17,283.34Z" class="land" id="GL5" title="Eiríksjökull"/>
    <path d="M251.14,276.85L252.96,280.49L250.41,283.4L246.17,280.61L247.38,277.45Z" class="land" id="GL4" title="Snæfellsjökull"/>
    <path d="M329.29,131.95L327.6,131.95L321.65,126.97L318.5,123.45L316.8,123.09L315.34,116.65L320.2,113.01L323.96,114.22L327.23,117.38L328.08,121.15L329.78,122.49L333.06,128.56Z" class="land" id="GL3" title="Drangajökull"/>
    <path d="M474.78,283.03L475.45,280.92L473.3,277.62L473.17,273.81L477.23,273.94L478.37,270.52L480.39,270.25L480.27,266.2L485.98,261.38L490.54,261.11L493.2,263.41L496.75,263.91L498.65,262.26L500.68,264.67L506.89,268.1L506.37,272.45L505.75,273.56L506.26,284.48L503.6,289.3L499.41,291.84L496.62,289.68L495.73,293.75L498.02,296.54L496.12,298.69L491.55,296.92L490.92,293.49L487.75,293.24L486.86,298.69L482.3,297.04L474.94,290.82L473.42,287.27Z" class="land" id="GL2" title="Hofsjökull"/>
    <path d="M444.44,273.86L443.66,278.15L441.16,279.93L443.01,282.36L442.73,285.71L439.02,288L439.59,291.64L437.45,294.07L438.31,297.78L436.31,299.21L436.17,301.64L434.03,303.06L435.81,305.49L433.38,307.85L425.54,312.21L422.05,316.28L419.12,316.2L417.41,311.43L414.56,312.35L414.48,316.06L411.42,317.64L408.85,313.06L408.42,309.49L405.36,309.13L402.88,307.31L400.03,304.43L405.57,299.9L405.1,296.51L408.43,293.95L412.96,292.39L416.47,292.73L420.12,291.85L419.92,288.68L423.64,285.89L428.16,284.68L428.1,278.05L432.69,273.31L435.8,271.89L436.68,269.66L440.1,269.18L442.73,270Z" class="land" id="GL1" title="Langjökull"/>
  </g>
</svg>