<?xml version="1.0" encoding="UTF-8"?>
<svg xmlns="http://www.w3.org/2000/svg" width="289.06" height="366.04" viewBox="335.47 73.98 289.06 366.04" style="background-color:#000000">
  <!-- Created using SVG Map Generator: dojo.amcharts.com/svg-map-generator -->
  <style>
    .land { fill: #ffffff; stroke: #000000; stroke-width: 0.65; }
  </style>
  <g id="polygons">
    <path d="M404.87,214.58L405.84,215.39L406.54,221.29L405.43,225.65L407.19,228.69L407.75,233.57L407.48,235.38L408.14,238.23L407.89,243.99L404.61,248.81L404.25,251.23L404.52,254.77L404.06,258.28L402.99,261.4L401.33,262.32L401.44,264.43L400.07,267.54L397.02,266.66L396.46,265.07L392.88,263.64L389.4,260.36L392.71,257.2L391.02,257.01L389.41,255.6L389.59,249.78L386.23,250.18L386.67,246.9L388.08,245.26L387.62,243.69L385.08,242.69L383.8,239.66L387.49,238.72L385.84,237.24L385.36,233.89L386.54,233.92L386.82,230.67L388.27,229.19L392.93,226.66L396.22,225.96L396.83,224.23L398.77,223.52L400.93,224.13L403,223.54L402.16,220.38L403.39,217.42L402.89,215.14Z" class="land" id="FR-H" title="Corse"/>
    <path d="M522.92,431.82L527.71,435.42L526.76,437.37L524.17,436.81L522.11,435.25L521.95,432.09Z" class="land" id="MT" title="Malta"/>
    <path d="M476.15,185.23L476.77,183.49L478.12,184.81Z" class="land" id="SM" title="San Marino"/>
    <path d="M477.28,250.31L477.2,250.5L477.02,250.44L477.11,250.29Z" class="land" id="VA" title="Vatican City"/>
    <path d="M388.02,110.99L388.2,113.86L384.45,117.96L385.05,120.27L384.05,122.07L387.3,127.03L388.04,131.33L389.67,132.18L391.05,135.27L388.78,135.95L387.95,138.44L386,136.81L383.46,137.04L384.16,140.51L383.84,142.85L387.73,148.11L392.32,146.88L392.45,148.37L394.22,149.71L394.83,151.71L397.35,155.16L399.9,156.96L399.78,159.23L399.56,161.51L397.95,162.87L395.87,161.36L395.13,159.76L392.98,159.51L391.96,160.87L392.76,163.34L385.73,162.56L384.25,165.3L380.54,165.09L379.67,166.45L376.92,164.43L375.57,166.11L376.21,167.64L374.38,169.36L372.49,174.91L373.19,176.41L371.08,178.63L369.4,178.71L365.21,177.37L364.03,179.91L362.93,177.68L360.43,176.85L355.53,178.2L351.49,175.35L347.19,174.2L346.9,172.72L344.34,169.98L344.47,168.01L343.6,164.35L345.42,162.94L345.8,160.29L347.78,157.78L347.57,154.58L345.51,153.27L343.78,153.67L341.1,151.81L340.94,148.14L339.25,147.95L338.12,145.06L341.5,143.22L343.4,144.01L345.75,142.87L347.07,141.17L348.69,141.45L350.28,139.05L349.68,137.52L351.52,134.86L349.5,132.78L352.34,132.63L353.45,131.23L356.07,131.09L358.15,129.03L360.55,128.54L364.52,129.94L369.39,127L369.32,123.93L367.6,121.64L367.6,117.39L368.67,114.64L370.6,114.7L371.65,111.13L373.38,110.73L374.84,108.37L372.73,105.62L375.91,103.94L377.81,100.52L379.56,99.01L382.1,99.25L381.99,103.09L381.08,104.28L382.13,106.59L383.55,107.06L385.48,110.35Z" class="land" id="IT-21" title="Piemonte"/>
    <path d="M367.6,117.39L367.6,121.64L369.32,123.93L369.39,127L364.52,129.94L360.55,128.54L358.15,129.03L356.07,131.09L353.45,131.23L352.34,132.63L349.5,132.78L347.06,131.48L347.05,126.88L345.03,126.48L342.48,124.01L342.77,120.14L346.97,118.93L348.08,117.16L349.55,119.4L353.18,118.37L354.03,117.24L356.23,118.1L359.94,116.03L362.86,115.3L366.09,117.36Z" class="land" id="IT-23" title="Valle d'Aosta"/>
    <path d="M429.51,96.19L433.5,99.05L433.79,100.72L432.2,103.29L432.69,106.04L431.63,107.98L431.69,110.79L430.14,112.69L429.51,115.34L430.85,117.37L430.67,120.36L432.2,121.92L436.21,119.89L438.82,120.3L433.66,128.01L434.19,133.49L435.86,134.65L435.4,138.24L437.46,137.95L438.89,139.95L441.02,140.76L444.29,145.24L452.58,149.83L452.68,150.31L449.78,149.88L446.34,150.59L444.29,149.87L439.38,151.34L436.53,150.36L435.03,149.11L433.7,151.04L431.19,151.52L427.24,149.73L423.78,147.55L420.95,147.87L418.47,144.24L415.72,144.61L414.2,146L411.91,146.61L409.97,145.77L405.35,145.44L403.73,146.91L402.38,150.64L401.31,152.07L403.41,154.54L401.62,156.35L402.56,159L399.78,159.23L399.9,156.96L397.35,155.16L394.83,151.71L394.22,149.71L392.45,148.37L392.32,146.88L387.73,148.11L383.84,142.85L384.16,140.51L383.46,137.04L386,136.81L387.95,138.44L388.78,135.95L391.05,135.27L389.67,132.18L388.04,131.33L387.3,127.03L384.05,122.07L385.05,120.27L384.45,117.96L388.2,113.86L388.02,110.99L391.22,111.98L390.72,114.93L392.3,116.82L393.71,119.92L395.61,120.79L396.57,118.02L395.22,117.02L394.89,113.31L396.55,112.31L396.46,110.42L399.07,108.69L401.86,103.27L401.31,101.75L401.37,97.39L403.41,96.93L405.8,101.57L407.15,103.27L409.87,104.67L411.7,104.46L416.42,101.39L418.57,102.4L418.64,104.73L421.58,106.79L422.87,105.69L421.17,103.07L422.63,100.4L419.61,99.17L419.72,95.88L423.17,92.87L424.84,93.42L425.72,95.52Z" class="land" id="IT-25" title="Lombardia"/>
    <path d="M477.79,91.06L475.4,93.11L470.91,92.98L468.11,92.32L466.34,96.1L461.98,97.31L463.63,98.93L462.06,101.56L462.64,105.23L464.71,105.99L463.88,110.33L458.97,111.31L459.4,112.97L458.55,115.77L456.59,115.63L454.46,114.17L451.5,115.12L450.76,117.25L448.62,117.27L448.21,119.56L446.68,121.92L445.58,125.17L443.93,124.22L441.18,125.62L438.82,124.18L440.07,121.08L438.82,120.3L436.21,119.89L432.2,121.92L430.67,120.36L430.85,117.37L429.51,115.34L430.14,112.69L431.69,110.79L431.63,107.98L432.69,106.04L432.2,103.29L433.79,100.72L433.5,99.05L429.51,96.19L430.39,93.41L428.26,92.59L428.24,89.17L429.26,88.36L430.04,84.85L431.69,85.59L434.53,84.26L437.41,87.03L439.77,88.19L442.98,88.04L445.22,82.34L450.14,80.17L452.14,81.13L453.94,79.49L455.31,80.48L457.26,79.44L459.44,80.18L462.45,80.15L464.33,78.7L470.7,76.63L471.22,78.87L469.22,79.6L471.48,84.27L473.68,85.47L475.44,89.7Z" class="land" id="IT-32" title="Trentino-Alto Adige"/>
    <path d="M483.77,92.61L483.8,95.29L479,98.51L478.18,100.28L474.83,103.55L474.01,105.36L476.93,107.38L478.2,109.28L477.99,110.95L475.82,113.18L476.59,116.39L478.43,117.12L479.56,120.38L481.96,121.09L485.02,119.5L489.26,120.63L491.71,126.3L492.61,126.81L488.07,127.63L484.71,130.05L475.81,134.04L474.24,136.56L473.35,140.46L474.34,143.02L474.21,145.49L478.24,149.9L477.93,151.99L475.96,152.16L474.75,154.59L473.09,151.54L469.75,150.94L468.68,149.5L465.56,149L461.62,149.33L457.5,152.3L455.41,150.83L452.68,150.31L452.58,149.83L444.29,145.24L441.02,140.76L438.89,139.95L437.46,137.95L435.4,138.24L435.86,134.65L434.19,133.49L433.66,128.01L438.82,120.3L440.07,121.08L438.82,124.18L441.18,125.62L443.93,124.22L445.58,125.17L446.68,121.92L448.21,119.56L448.62,117.27L450.76,117.25L451.5,115.12L454.46,114.17L456.59,115.63L458.55,115.77L459.4,112.97L458.97,111.31L463.88,110.33L464.71,105.99L462.64,105.23L462.06,101.56L463.63,98.93L461.98,97.31L466.34,96.1L468.11,92.32L470.91,92.98L475.4,93.11L477.79,91.06L479.81,92.02L482.39,91.75Z" class="land" id="IT-34" title="Veneto"/>
    <path d="M492.61,126.81L491.71,126.3L489.26,120.63L485.02,119.5L481.96,121.09L479.56,120.38L478.43,117.12L476.59,116.39L475.82,113.18L477.99,110.95L478.2,109.28L476.93,107.38L474.01,105.36L474.83,103.55L478.18,100.28L479,98.51L483.8,95.29L483.77,92.61L494.2,94.29L495.9,95.57L500.36,95.38L507.27,96.65L506.57,99.5L504.33,99.54L499.14,104.4L500.29,106.54L502.81,107.07L505.51,109.9L502.1,112.63L501.5,114.44L505.37,116.76L503.91,119.59L509.15,123.23L510.83,126.17L512.13,127.12L509.21,128.9L508.12,125.48L505.26,122.4L503.4,123.99L499.35,125.69L496.96,124.4L493.95,124.75Z" class="land" id="IT-36" title="Friuli-Venezia Giulia"/>
    <path d="M364.03,179.91L365.21,177.37L369.4,178.71L371.08,178.63L373.19,176.41L372.49,174.91L374.38,169.36L376.21,167.64L375.57,166.11L376.92,164.43L379.67,166.45L380.54,165.09L384.25,165.3L385.73,162.56L392.76,163.34L391.96,160.87L392.98,159.51L395.13,159.76L395.87,161.36L397.95,162.87L399.56,161.51L401.91,161.67L403.38,162.86L406.38,163.35L406.78,164.33L405.23,168.13L408.67,167.8L411.08,169.98L415.28,174.25L420.25,178.71L419.08,180.54L417.79,180.82L415.81,179.36L414.64,180.42L411.54,177.82L408.3,175.98L406.46,174.16L404.4,173.66L403.64,172.36L400.37,170.51L388.85,167.92L382.88,171.27L381.44,172.96L381.09,175.58L377.36,177.45L375.09,183.57L369.64,187.21L366.18,187.98L363.08,189.5L359.84,189.37L358.84,186.96L360.55,183.97L362.58,182.9Z" class="land" id="IT-42" title="Liguria"/>
    <path d="M484.27,183.06L483.83,186.43L482.41,187.87L480.44,185.9L478.12,184.81L476.77,183.49L476.15,185.23L474.86,186.2L473.09,189.82L473.07,189.8L468.12,190.61L466,189.91L464.27,188.28L462.1,188.18L459.5,186.13L459.63,184.69L457.92,182.39L460.18,179.14L457.79,178.39L457.14,176.76L454.89,176.86L452.66,174.2L449.2,176.9L447.59,178.78L444.6,179.04L442.6,178.35L440.43,179.99L436.59,176.87L434,176.81L432.79,178.21L429.73,174.36L425.82,172.48L424.71,173.04L422.09,170.26L420.95,170.5L418.43,168.53L416.83,166.22L414.34,166.5L412.75,169L411.08,169.98L408.67,167.8L405.23,168.13L406.78,164.33L406.38,163.35L403.38,162.86L401.91,161.67L399.56,161.51L399.78,159.23L402.56,159L401.62,156.35L403.41,154.54L401.31,152.07L402.38,150.64L403.73,146.91L405.35,145.44L409.97,145.77L411.91,146.61L414.2,146L415.72,144.61L418.47,144.24L420.95,147.87L423.78,147.55L427.24,149.73L431.19,151.52L433.7,151.04L435.03,149.11L436.53,150.36L439.38,151.34L444.29,149.87L446.34,150.59L449.78,149.88L452.68,150.31L455.41,150.83L457.5,152.3L461.62,149.33L465.56,149L468.68,149.5L469.75,150.94L473.09,151.54L474.75,154.59L473.34,153.64L472.35,156.51L472.3,160.38L473.21,162.17L473.16,166.29L475.03,173.44L475.85,175.08L478.97,178.74L482.92,182.53Z" class="land" id="IT-45" title="Emilia-Romagna"/>
    <path d="M411.08,169.98L412.75,169L414.34,166.5L416.83,166.22L418.43,168.53L420.95,170.5L422.09,170.26L424.71,173.04L425.82,172.48L429.73,174.36L432.79,178.21L434,176.81L436.59,176.87L440.43,179.99L442.6,178.35L444.6,179.04L447.59,178.78L449.2,176.9L452.66,174.2L454.89,176.86L457.14,176.76L457.79,178.39L460.18,179.14L457.92,182.39L459.63,184.69L459.5,186.13L462.1,188.18L464.27,188.28L466,189.91L468.12,190.61L473.07,189.8L473.15,189.86L474.24,191.71L471.87,193.46L471.46,194.89L469.95,197.56L469.81,199.25L467.79,200.56L469.64,204.08L468.61,207.2L464.56,210.11L465.94,213.32L463.89,220.25L462.73,220.18L460.32,221.92L462.08,223.31L461.21,225.63L458.63,228.6L455.88,230.71L457.22,233.2L454.06,233.24L453.19,235.18L447.48,234.16L446.97,235.65L444.73,234.68L446.42,233.21L447.04,230.79L445.41,229.29L444.54,226.99L442.61,226.17L441.15,223.36L437.51,222.34L436.93,220.87L437.11,217.87L433.45,216.41L430.46,217.14L431.49,212.02L431.18,206.82L428.78,201.87L426.52,199.42L425.05,192.69L425.21,190.4L424.35,186.32L422.01,182.73L419.08,180.54L420.25,178.71L415.28,174.25ZM428.64,219.23L429.05,222.12L425.88,222.75L424.35,223.84L421.56,223.34L421.13,221.79L425.21,220.84L427.14,221.46Z" class="land" id="IT-52" title="Toscana"/>
    <path d="M471.46,194.89L474.37,194.89L476.41,197.29L478.25,197.84L481.21,201.24L483.24,201.01L485.31,203.91L487.48,211.14L487.75,216.14L491.49,217.51L494.05,220.43L496.42,221.83L494.81,223.66L494.46,225.74L491.76,227.2L487.38,227.93L487.67,229.12L484.8,230.77L482.62,233.05L478.97,235.63L478.59,234.37L476.28,233.59L472.93,230.93L471.86,226.86L470.33,225.58L467.13,226.49L464.6,224.31L463.89,220.25L465.94,213.32L464.56,210.11L468.61,207.2L469.64,204.08L467.79,200.56L469.81,199.25L469.95,197.56Z" class="land" id="IT-55" title="Umbria"/>
    <path d="M512.06,218.38L507.14,219.8L506.92,220.83L503.95,221.43L502.1,223.43L498.81,224.9L497.09,223.43L494.81,223.66L496.42,221.83L494.05,220.43L491.49,217.51L487.75,216.14L487.48,211.14L485.31,203.91L483.24,201.01L481.21,201.24L478.25,197.84L476.41,197.29L474.37,194.89L471.46,194.89L471.87,193.46L474.24,191.71L473.15,189.86L473.09,189.82L474.86,186.2L476.15,185.23L478.12,184.81L480.44,185.9L482.41,187.87L483.83,186.43L484.27,183.06L487.96,184.53L497.5,192.92L501.02,194.89L503.33,195.11L505.18,196.94L505.08,198.41L510.32,211.45Z" class="land" id="IT-57" title="Marche"/>
    <path d="M513.56,264.46L511.79,265.74L511.03,267.65L511.51,269.74L508.43,272.1L505.24,270.9L503.39,272.67L499.23,270.23L497.21,269.75L494.01,270.59L491.34,271.97L489.98,268.83L486.6,266.08L484.65,266.22L482.4,264.71L481.14,265L479.6,262.26L476.3,258.31L474.59,256.86L471.7,255.53L471.26,252.77L469.81,250.09L464.4,246.14L462.42,246.43L458.11,238.39L455.58,236.32L453.19,235.18L454.06,233.24L457.22,233.2L455.88,230.71L458.63,228.6L461.21,225.63L462.08,223.31L460.32,221.92L462.73,220.18L463.89,220.25L464.6,224.31L467.13,226.49L470.33,225.58L471.86,226.86L472.93,230.93L476.28,233.59L478.59,234.37L478.97,235.63L482.62,233.05L484.8,230.77L487.67,229.12L487.38,227.93L491.76,227.2L494.46,225.74L494.81,223.66L497.09,223.43L498.81,224.9L500.02,226.62L499.04,228.78L494.82,228.39L494.5,231.93L493.02,233.06L494.88,234.8L495.96,238.59L498.29,240.16L497.53,243.16L496.16,243.23L493.11,241.58L490.95,243.42L491.53,246.77L493.6,246.82L499.43,250.39L498.84,251.46L502.3,253.72L503.33,255L505.71,253.39L508.47,255.38L511.59,255.83L512.76,257.36L513.68,258.16L514.77,262.5ZM477.28,250.31L477.11,250.29L477.02,250.44L477.2,250.5Z" class="land" id="IT-62" title="Lazio"/>
    <path d="M532.82,245.08L532.7,246.34L530.31,248.58L528.03,252.54L525.82,254.94L524.73,252.46L520.86,250.17L517.61,252.81L518.71,255.37L515.76,255.75L514.6,257.57L512.76,257.36L511.59,255.83L508.47,255.38L505.71,253.39L503.33,255L502.3,253.72L498.84,251.46L499.43,250.39L493.6,246.82L491.53,246.77L490.95,243.42L493.11,241.58L496.16,243.23L497.53,243.16L498.29,240.16L495.96,238.59L494.88,234.8L493.02,233.06L494.5,231.93L494.82,228.39L499.04,228.78L500.02,226.62L498.81,224.9L502.1,223.43L503.95,221.43L506.92,220.83L507.14,219.8L512.06,218.38L513.86,224.03L516.78,229.25L520.04,232.85L523.87,235.72L526.14,239.09L528.73,240.82L531.13,241.68L531.23,243.94Z" class="land" id="IT-65" title="Abruzzo"/>
    <path d="M541.21,249.65L540.32,252.61L540.83,256.23L540.43,257.8L538.46,259.38L536.96,258.68L536.47,262.37L538.12,263.76L534.77,265.59L532.9,264.79L532.1,266.14L526.26,266.98L525.52,265.81L521.8,264.72L519.81,263.34L516.96,263.06L515.09,266.68L513.56,264.46L514.77,262.5L513.68,258.16L512.76,257.36L514.6,257.57L515.76,255.75L518.71,255.37L517.61,252.81L520.86,250.17L524.73,252.46L525.82,254.94L528.03,252.54L530.31,248.58L532.7,246.34L532.82,245.08L535.57,246.61L537.89,247.05L539.74,249.07Z" class="land" id="IT-67" title="Molise"/>
    <path d="M513.56,264.46L515.09,266.68L516.96,263.06L519.81,263.34L521.8,264.72L525.52,265.81L526.26,266.98L532.1,266.14L532.9,264.79L534.77,265.59L538.12,263.76L540.29,265.46L539.65,268.61L542.73,270.06L544.2,272.86L542.88,274.35L544.88,276.26L547.5,275.79L550.89,277.41L551.53,279.26L550.48,282.01L548.91,283.32L546.95,283.36L547.08,287.88L549.84,289.67L548.7,291.47L550.4,293.08L551.93,296.69L554.61,298.53L555.46,301.05L556.82,301.44L556.93,303.61L555.32,304.3L554.78,306.9L553.29,309.16L552.9,308.25L549.93,308.51L547.96,310.78L546.38,310.52L544.4,308.21L541,305.2L538.82,305.23L537.59,303.69L535.88,303.15L536.56,300.09L537.78,298.01L534.96,292.15L532.48,289.53L530.58,290.72L529.02,290.27L527.76,291.39L525.54,290.96L521.78,292.77L522.15,290.85L525.49,288.72L520.61,284.1L517.86,284.98L515.14,283.68L514.62,281.85L512.23,278.58L511.57,276.32L508.43,272.1L511.51,269.74L511.03,267.65L511.79,265.74ZM510.95,286.74L513,287.3L512.93,288.63L510.55,288.43Z" class="land" id="IT-72" title="Campania"/>
    <path d="M582.32,298.58L580.97,296.27L578.96,295.53L578.62,293.3L579.02,288.19L575.52,286.66L573.71,286.71L572.08,288.6L567.96,284.76L566.59,281.74L563.92,281.65L561.32,280.53L562.73,277.96L560.6,275.74L558.72,274.83L556.28,276.52L551.36,276.26L550.89,277.41L547.5,275.79L544.88,276.26L542.88,274.35L544.2,272.86L542.73,270.06L539.65,268.61L540.29,265.46L538.12,263.76L536.47,262.37L536.96,258.68L538.46,259.38L540.43,257.8L540.83,256.23L540.32,252.61L541.21,249.65L546.06,249.94L548.13,250.48L552.75,249.61L556.24,249.96L562.2,248.93L563.99,249.28L566.28,251.02L566.33,254.53L563.36,257.15L559.46,259.6L559.53,262.26L560.69,264.47L562.3,265.64L566.66,267.67L568.05,268.76L571.82,270.19L575.74,272.56L580.37,274.04L584.68,276.08L587.87,277.12L592.36,280.07L594.05,282.14L597.1,284.57L602.6,286.78L605.49,288.79L608.1,289.1L610.06,290.43L610.39,292.79L612.54,295.1L615.27,296.63L619.64,301.33L621.88,307.33L619.92,309.82L618.84,313.43L618.86,316.24L617.78,317.11L615.99,315.73L613.62,315.23L610.62,312.79L609.92,310.34L609.76,307.21L607.62,304.53L607.3,302.61L606.12,301.64L601.9,301.02L597.82,301.34L591.06,297.79L591.04,295.52L588.38,294.31L586.6,294.58L583.31,296.94Z" class="land" id="IT-75" title="Puglia"/>
    <path d="M550.89,277.41L551.36,276.26L556.28,276.52L558.72,274.83L560.6,275.74L562.73,277.96L561.32,280.53L563.92,281.65L566.59,281.74L567.96,284.76L572.08,288.6L573.71,286.71L575.52,286.66L579.02,288.19L578.62,293.3L578.96,295.53L580.97,296.27L582.32,298.58L580.48,301.22L578.25,306.06L577.18,306.84L571.54,306.71L571.28,310.02L569.86,312.56L568.24,312.51L562.86,313.67L562.49,310.77L557.49,310.47L555.95,312.87L553.29,309.16L554.78,306.9L555.32,304.3L556.93,303.61L556.82,301.44L555.46,301.05L554.61,298.53L551.93,296.69L550.4,293.08L548.7,291.47L549.84,289.67L547.08,287.88L546.95,283.36L548.91,283.32L550.48,282.01L551.53,279.26Z" class="land" id="IT-77" title="Basilicata"/>
    <path d="M555.95,312.87L557.49,310.47L562.49,310.77L562.86,313.67L568.24,312.51L569.86,312.56L571.28,310.02L571.54,306.71L577.18,306.84L576.13,309.21L576.76,311.92L573.46,316.8L574.41,319.26L574.15,320.87L576.52,322.28L580.26,322.34L582.46,324.83L586.25,326.59L587.61,328.51L589.44,329.14L588.23,333.61L589.24,335.1L588.33,338.15L589.72,342.91L587.94,344.78L585.18,343.37L580.34,344.71L576.27,347.25L574.57,350.31L575.1,351.26L575.71,357.65L575.5,358.97L572.87,361.71L569.5,363.14L565.77,367.87L565.3,371.04L563.33,374.28L559.9,374.09L556.09,374.45L554.11,373.33L553.1,371.42L553.59,367.77L553.09,364.93L557.08,363.43L557.87,360.93L559.81,357.63L560.15,355.36L557.68,353.13L558.74,351.47L561.51,349.97L564.25,350.3L566.18,349.18L567.1,346.15L566.97,343.76L565.53,343.06L564.12,340.46L563.37,337.06L563,332.17L561.72,327.93L560.02,325.27L558.79,324.38L557.38,320.6L556.82,314.8Z" class="land" id="IT-78" title="Calabria"/>
    <path d="M465.31,406.84L467.61,408.02L466.14,409.84L464.59,407.94ZM551.28,362.86L552.4,363.62L551.72,366.14L549.81,369.69L545.26,375.64L543.04,379.35L543.2,380.68L542.15,383.09L542.18,384.73L540.01,387.45L540.28,392.41L542.85,393.24L542.39,396.38L543.53,398.51L545,398.86L545.12,401.57L541.58,404.61L540.21,408.02L541.28,411.43L539.86,412.52L538.37,410.93L536.93,411.19L535.02,410.07L532.72,410.87L530.55,410.37L529.3,409.18L525.85,408.42L523.15,403.2L520.35,400.35L515.74,398.75L511.1,399L509.85,397.71L508.12,397.56L505.97,396.22L503.45,393.51L500.94,393.26L499.82,392.08L496.71,390.36L494.16,387.23L490.68,387.2L489.31,385.12L484.95,384.63L482.45,385.25L480.85,382.82L478.76,382.25L476.5,377.98L477.94,375.77L477.28,374.76L478.14,372.46L479.97,369.87L480.76,370.01L484.71,367.37L485.71,369.55L487.84,371.21L492.06,369.3L491.47,367.76L492.79,366.11L494.78,366.81L497.79,365.15L498.97,366.45L499.35,368.68L500.88,369.11L503.04,368.53L503.77,370.76L507.23,372.64L510.82,372.22L514.63,370.67L520.92,371.7L525.51,370.9L529.33,369.67L531.94,366.88L535.32,366.67L539,367.28L540.31,368.2L542.12,367.2L543.75,365.33L547.47,364.9Z" class="land" id="IT-82" title="Sicilia"/>
    <path d="M379.76,337.97L381.07,338.11L382.05,339.78L381.52,342.41L379.5,340.32ZM378.28,335.85L378.21,338.41L376.14,336.92ZM400.3,270.99L401.62,273.36L404.91,273.54L407.86,274.95L407.7,277.26L409.34,279.15L408.23,281.67L410.53,283.11L410.83,285.95L412.79,289.49L412.8,291.88L414.56,294.01L413.09,298.29L411.26,299.86L409.75,302.45L410.39,305.95L412.28,308.55L411.17,311.27L411.41,315.1L410.77,317.28L410.98,319.46L410.22,321.34L410.22,327.24L409.07,330.75L409.18,332.54L408.1,337.45L405.22,337.73L401.85,334.95L399.78,334.51L396.38,335.39L395.2,336.86L395.86,339.76L394.69,341.88L391.39,345.22L385.75,343.16L384.57,342.08L384.37,340.09L382.46,338.75L379.68,334.91L381.03,333.14L380.92,331.23L379.8,329.89L380.72,328.42L380.1,326.95L381.69,324.59L382.66,319.13L383.94,316.84L383.42,313.55L381.41,314.4L380.39,313.43L380.75,309.95L382.59,308.05L381.8,305.05L382.42,301.62L379.95,299.31L380.49,297.74L378.07,292.1L375.79,292.8L374.38,291.05L375.84,289.13L374.11,287.66L374.92,286.57L376.5,281.98L378.42,284.05L381.8,284.82L384.33,284.45L387.51,281.87L389.85,281.52L395.07,275.24L397.34,274.93L398.79,273.81L398.7,271.69Z" class="land" id="IT-88" title="Sardegna"/>
  </g>
</svg>