<?xml version="1.0" encoding="UTF-8"?>
<svg xmlns="http://www.w3.org/2000/svg" width="383.59" height="437.29" viewBox="288.2 38.36 383.59 437.29" style="background-color:#000000">
  <!-- Created using SVG Map Generator: dojo.amcharts.com/svg-map-generator -->
  <style>
    .land { fill: #ffffff; stroke: #000000; stroke-width: 0.65; }
  </style>
  <g id="polygons">
    <path d="M446.51,238.31L445.91,232.44L449.66,223.88L458.54,219.92L457,215.64L462.98,209.99L470.47,214.27L474.07,211.71L474.75,207.25L484.13,205.03L490.96,214.79L508.2,202.29L510.58,191.86L508.03,188.24L516.38,180.19L519.98,180.01L519.81,173.36L514,169.42L513.15,160.16L509.38,151.77L511.78,145.43L513.66,131.04L508.54,117.69L504.43,116.13L503.75,110.83L500.17,108.96L497.11,102.34L498.46,95.48L495.91,91.37L492.33,93.25L488.67,86.53L496.4,82.66L505.61,85.92L514.37,81.02L519.1,84.21L523.62,95.51L529.62,91.19L531.59,92.9L533.19,101.57L532.91,119.82L538.16,121.7L543.58,119.68L546.53,121.9L549.57,132.76L544.97,145.51L545.83,147.88L555.42,146.98L565.55,149.52L571.16,155.1L574.93,162.58L581.39,160.97L582.42,170.85L580.34,177.01L576.36,182.78L577.15,190.57L592.74,191.74L601.99,196.61L600,204.1L596.77,209.93L590.79,209.4L586.85,206.84L582.94,209.75L586.53,215.4L594.37,219.51L593.34,230.49L597.8,233.74L598.46,237.67L603.41,244.36L599.15,247.09L588.57,244.01L585.33,247.94L583.28,254.62L573.56,248.11L567.92,250.53L561.26,247.79L555.46,254.8L559.38,259.59L558.72,265.75L561.61,267.15L559.89,272.95L554.09,272.11L553.77,280.96L553.75,280.94L550,283L546.94,278.53L542.16,277.16L525.78,280.41L524.24,275.97L515.18,273.39L508.89,276.32L504.95,274.43L491.48,274.78L486.87,271.01L481.91,275.8L475.61,276.61L475.61,276.49L474.41,271.68L467.58,268.77L469.98,260.73L456.49,263.46L454.43,260.9L457,250.44L451.88,245.32L454.95,239.65L447.43,238.37Z" class="land" id="XK-PR" title="Pristina"/>
    <path d="M488.67,86.53L492.33,93.25L495.91,91.37L498.46,95.48L497.11,102.34L500.17,108.96L503.75,110.83L504.43,116.13L508.54,117.69L513.66,131.04L511.78,145.43L509.38,151.77L513.15,160.16L514,169.42L519.81,173.36L519.98,180.01L516.38,180.19L508.03,188.24L510.58,191.86L508.2,202.29L490.96,214.79L484.13,205.03L474.75,207.25L474.07,211.71L470.47,214.27L462.98,209.99L457,215.64L458.54,219.92L449.66,223.88L445.91,232.44L446.51,238.31L442.33,238.89L441.48,234.3L433.1,230.86L432.08,225.71L435.84,222.98L434.47,217.33L430.04,215.26L424.24,219.71L415.69,208.41L416.55,203.81L420.98,201.07L422.18,195.59L418.78,189.93L421.5,184.45L421.5,179.49L424.07,170.06L413.32,158.23L408.89,155.34L402.05,158.05L394.15,159.1L396.17,153.38L389.81,145.43L387.54,137.56L389.98,132.41L396.79,128.2L401.73,123.34L414.39,118.07L432.87,115.46L433.45,106.85L430.9,101.37L430.17,88.58L426.29,89.29L423.85,82.1L425.1,75.26L415.93,65.87L415.03,61.26L425.29,58.7L441.24,49.21L446.49,47.68L452.98,41.92L462.65,41.01L468.31,44.59L479.68,64.11L477.92,67.75L471.63,65.07L465.74,67.51L466.51,73.06L472.57,79.78L478.29,81.07Z" class="land" id="XK-KM" title="Mitrovica"/>
    <path d="M385.78,340.24L378.91,332.46L367.49,328.52L365.59,325.11L356.36,321.4L353.04,316.16L346.44,319.75L342.95,317.23L333.68,317.49L333.14,304.14L331.99,301.09L325.31,295.06L329.18,290.22L327.68,285.08L322.16,280.33L316.21,264.24L301.8,256.22L296.48,250.12L299.5,242.47L298.65,231.3L308.95,220.27L312.63,222.95L326.61,225.16L323.38,229.47L328.16,236.48L333.1,236.65L343.34,241.45L352.05,238.02L357.69,244.19L360.75,250.18L360.23,254.27L367.06,253.96L370.98,251.54L379.53,253.08L383.62,251.19L391.65,254.62L394.88,253.43L400.17,265.08L401.88,264.39L403.75,264.21L407.34,269.18L412.29,270.4L413.32,276.73L424.92,277.57L429.7,282.71L434.47,283.92L435.84,293.35L439.42,297.61L438.05,309.79L438.74,314.25L435.84,320.07L431.9,321.61L429.36,315.61L426.27,315.61L419.63,326.56L415.69,322.79L408.2,323.14L406.49,326.24L400.17,328.96L393.51,335.99Z" class="land" id="XK-DA" title="Ðakovica"/>
    <path d="M553.77,280.96L554.09,272.11L559.89,272.95L561.61,267.15L558.72,265.75L559.38,259.59L555.46,254.8L561.26,247.79L567.92,250.53L573.56,248.11L583.28,254.62L585.33,247.94L588.57,244.01L599.15,247.09L603.41,244.36L598.46,237.67L597.8,233.74L593.34,230.49L594.37,219.51L586.53,215.4L582.94,209.75L586.85,206.84L590.79,209.4L596.77,209.93L600,204.1L601.99,196.61L613.02,196.55L621.37,198.56L628.38,203.11L636.6,217.62L641.84,222.13L646.23,220.33L653.37,211.47L658.72,210.51L663.79,213.98L665.89,218.52L666.11,225.6L669.15,230.63L660.65,235.52L655.01,245.32L653.62,255.55L650.73,264.39L646.58,269.32L635.55,274.93L629.42,280.59L627.88,285.14L629.62,289.06L627.33,299.99L620.94,304.63L617.6,310.83L617.22,316.33L619.53,321.37L623.71,323.4L623.49,336.08L603.11,338.59L595.48,334.66L589.4,334.83L585.76,341.72L575.29,343.66L570.99,339.35L558.2,336.42L551.89,323.75L555.63,319.64L547.45,312.28L548.46,307.32L553.08,304.4L559.55,303.73L557.35,298.08L559.72,289.49L554.78,283.69Z" class="land" id="XK-GN" title="Gjilan"/>
    <path d="M402.4,264.36L401.88,264.39L400.17,265.08L394.88,253.43L391.65,254.62L383.62,251.19L379.53,253.08L370.98,251.54L367.06,253.96L360.23,254.27L360.75,250.18L357.69,244.19L352.05,238.02L343.34,241.45L333.1,236.65L328.16,236.48L323.38,229.47L326.61,225.16L312.63,222.95L308.95,220.27L310.62,218.08L303.32,208.85L294.71,204.22L290.85,193.61L296.53,184.86L315.99,191.71L336.34,192.03L343.68,182.32L341.95,176.92L344.67,173.24L352.61,168.04L359.89,169.56L388.84,164.19L394.15,159.1L402.05,158.05L408.89,155.34L413.32,158.23L424.07,170.06L421.5,179.49L421.5,184.45L418.78,189.93L422.18,195.59L420.98,201.07L416.55,203.81L415.69,208.41L424.24,219.71L430.04,215.26L434.47,217.33L435.84,222.98L432.08,225.71L433.1,230.86L441.48,234.3L442.33,238.89L446.51,238.31L447.43,238.37L445.57,245.06L432.08,245.41L427.81,255.35L423.9,261.68L414.35,263.4L409.72,262.38Z" class="land" id="XK-PE" title="Peć"/>
    <path d="M575.29,343.66L569.08,350.86L564.28,359.5L559.06,375.9L555.18,380.49L542.85,380.81L537.8,369.75L532.08,363.95L529.81,354.47L525.91,351.09L520.32,350.34L511.03,356.41L507.77,361.26L495.4,368.89L491.65,359.9L483.1,355.11L476.27,355.28L468.78,353.57L471.33,348.43L470.47,343.8L476.62,344.99L483.96,338.83L485.5,333.18L489.25,334.37L493.34,329.6L494.71,323.26L491.65,318.97L493.34,312.8L487.02,303.56L483.96,303.56L484.82,295.67L487.71,291.21L486.7,283.17L475.93,279.22L475.61,276.61L481.91,275.8L486.87,271.01L491.48,274.78L504.95,274.43L508.89,276.32L515.18,273.39L524.24,275.97L525.78,280.41L542.16,277.16L546.94,278.53L550,283L553.75,280.94L554.78,283.69L559.72,289.49L557.35,298.08L559.55,303.73L553.08,304.4L548.46,307.32L547.45,312.28L555.63,319.64L551.89,323.75L558.2,336.42L570.99,339.35Z" class="land" id="XK-UR" title="Uroševac"/>
    <path d="M495.4,368.89L492.48,371.11L482.91,373.62L475.27,382.43L467.19,383.09L461.86,385.98L452.1,388.52L443.28,403.11L443.96,416.59L446.4,421.29L446.32,430.1L449.25,435.19L439.38,446.01L425.25,454.69L423.45,459.26L413.17,472.88L406.92,472.99L403.45,469.52L400.79,461.13L400.75,448.89L407.64,446.33L404.15,435.08L413.36,428.03L414.37,417.86L411.65,414.12L407.94,398.61L402.83,393.62L399.53,386.41L401.78,382.66L402.05,375.36L400.08,368.66L396.89,364.58L392.8,349.5L385.78,340.24L393.51,335.99L400.17,328.96L406.49,326.24L408.2,323.14L415.69,322.79L419.63,326.56L426.27,315.61L429.36,315.61L431.9,321.61L435.84,320.07L438.74,314.25L438.05,309.79L439.42,297.61L435.84,293.35L434.47,283.92L429.7,282.71L424.92,277.57L413.32,276.73L412.29,270.4L407.34,269.18L403.75,264.21L402.4,264.36L409.72,262.38L414.35,263.4L423.9,261.68L427.81,255.35L432.08,245.41L445.57,245.06L447.43,238.37L454.95,239.65L451.88,245.32L457,250.44L454.43,260.9L456.49,263.46L469.98,260.73L467.58,268.77L474.41,271.68L475.61,276.49L475.93,279.22L486.7,283.17L487.71,291.21L484.82,295.67L483.96,303.56L487.02,303.56L493.34,312.8L491.65,318.97L494.71,323.26L493.34,329.6L489.25,334.37L485.5,333.18L483.96,338.83L476.62,344.99L470.47,343.8L471.33,348.43L468.78,353.57L476.27,355.28L483.1,355.11L491.65,359.9Z" class="land" id="XK-PZ" title="Prizren
"/>
  </g>
</svg>