<?xml version="1.0" encoding="UTF-8"?>
<svg xmlns="http://www.w3.org/2000/svg" width="407.52" height="399.63" viewBox="276.24 57.19 407.52 399.63" style="background-color:#000000">
  <!-- Created using SVG Map Generator: dojo.amcharts.com/svg-map-generator -->
  <style>
    .land { fill: #ffffff; stroke: #000000; stroke-width: 0.65; }
  </style>
  <g id="polygons">
    <path d="M466.32,106.41L469.06,111.86L471.8,110.45L477.82,112.56L480.56,115.39L485.74,117.58L489.39,121.37L493.93,120.56L496.46,121.16L496.86,126.31L495.7,128.93L489.88,131.28L488.27,132.73L483.46,133.2L484.49,136.46L483.18,139.72L487.92,141.77L491.5,145.8L489.64,150.26L486.48,151.04L481.63,156.13L480.44,153.55L477.62,152.74L476.08,149.72L473.16,150.45L469.5,149.48L465.56,152.84L463.25,152.28L458.48,149.09L454.94,152.75L453.38,155.81L455.97,158.42L455.94,165.47L454.25,166.87L451.77,163.51L448,164.81L444.19,164.57L443.58,160.59L438,157.35L434.88,159.97L428.51,152.28L426.34,152.42L422.82,150.21L417.2,154.89L415.5,151.79L415.87,148.64L413.08,146.61L410.97,143.45L405.11,138.95L404.29,135.36L408.76,133.15L412.99,132.89L414.21,129.57L419.8,127.55L423.63,129.53L428.85,128.37L427.15,122.65L429.02,120.72L429.05,116.01L432.73,115.97L436.46,114.58L442.32,117.51L445.19,120.21L445.4,122.41L437.72,127.47L436.57,129.69L437.75,133.67L436.37,135.37L439.95,137.74L439.47,139.74L434.07,139.19L433.57,143.85L439.67,146.76L442.12,149.19L445.74,150.23L448.09,145.2L448.69,141.28L451.1,138.26L454.71,136.39L458.83,132.3L462.48,133.35L462.81,130.1L464.84,129.05L462.75,124.2L461.09,123.43L460.98,119.51L459.45,116.34L459.53,114.3L463.68,111.09L463.89,108.16Z" class="land" id="HR-01" title="Zagreb County"/>
    <path d="M439.63,86.15L440.6,90.3L444.73,93.25L450.35,94.74L454.85,93.76L459,95.34L460.34,93.36L465.92,94.57L466.26,98.03L465.44,103.86L466.32,106.41L463.89,108.16L463.68,111.09L459.53,114.3L459.45,116.34L456.82,116.28L452.02,119.41L445.4,122.41L445.19,120.21L442.32,117.51L436.46,114.58L432.73,115.97L429.05,116.01L429.51,107.27L424.91,104.53L422,101.76L422,97.04L424.78,94.62L425.01,91.68L427.14,90.63L434.39,91.73L436.97,87.56Z" class="land" id="HR-02" title="Krapina-Zagorje"/>
    <path d="M437.97,188.73L434.96,186.01L437.1,182.47L434.35,176.97L434.73,175.38L438.42,173.35L437.64,169.07L439.65,163.36L444.19,164.57L448,164.81L451.77,163.51L454.25,166.87L455.94,165.47L455.97,158.42L453.38,155.81L454.94,152.75L458.48,149.09L463.25,152.28L465.56,152.84L469.5,149.48L473.16,150.45L476.08,149.72L477.62,152.74L480.44,153.55L481.63,156.13L486.48,151.04L489.64,150.26L491.5,145.8L494.12,145.33L496.86,146.72L499.19,149.69L503.55,150.03L504.82,155.12L508.52,159.12L507.32,162.55L512.97,163.73L514.44,166.19L517.14,166.16L520.85,171.72L525.24,173.72L526.67,176.46L529.59,175.99L529.96,178.24L528.22,181.95L522.01,188.21L524.9,190.51L527.15,194.86L516.77,189.12L512.72,183.85L511.28,185.96L506.02,189.73L504.99,192.73L498.93,190.58L496.43,191.61L490.04,188.34L485.29,188.64L482.58,190.36L480.53,196.92L476,199.74L476.55,201.85L473.39,207.59L473.2,210.35L470.16,210.7L464.49,209.64L459.04,203.05L454.54,200.91L450.01,190.39L446.91,188.86L444.4,190.76Z" class="land" id="HR-03" title="Sisak-Moslavina"/>
    <path d="M404.29,135.36L405.11,138.95L410.97,143.45L413.08,146.61L415.87,148.64L415.5,151.79L417.2,154.89L422.82,150.21L426.34,152.42L428.51,152.28L434.88,159.97L438,157.35L443.58,160.59L444.19,164.57L439.65,163.36L437.64,169.07L438.42,173.35L434.73,175.38L434.35,176.97L437.1,182.47L434.96,186.01L437.97,188.73L432.58,194.43L434.01,199.58L431.52,204.43L434.17,210.11L434.29,213.2L432,213.62L431.03,217.43L429.19,218.92L425.68,216.55L422.23,217.96L419.28,214.81L415.98,218.76L410.81,217.67L405.58,209.91L401.27,208.38L400.25,206.5L396.78,204.61L393.98,200.22L390.02,203.39L386.82,202.33L385.19,200.1L381.35,198.51L378.56,194.34L380.14,180.41L386.13,181.99L392.76,180.54L392.47,178.81L396.18,172.29L395.9,169.18L399.28,165.37L403.27,166.63L407.09,163.25L401.29,158.46L401.1,153.9L399.63,151.88L401.36,149.22L407.86,147.07L405.15,140.9L401.09,143.49L398.64,139.58Z" class="land" id="HR-04" title="Karlovac"/>
    <path d="M468.72,76.3L471.48,77.76L473.6,81.27L476.91,82.21L485.71,82.33L486.95,80.63L489.95,82.92L495.2,81.55L496.63,82.89L501.17,83.55L500.89,88.02L495.58,93.61L490.39,92.97L485.69,95.51L486.08,97.07L478.35,97.51L474.62,101.22L471.8,110.45L469.06,111.86L466.32,106.41L465.44,103.86L466.26,98.03L465.92,94.57L460.34,93.36L459,95.34L454.85,93.76L450.35,94.74L444.73,93.25L440.6,90.3L439.63,86.15L442.07,84.28L445.21,84.3L453.96,79.62L454.54,75.49L458.81,72.99L462.15,75.98L466.61,74.93Z" class="land" id="HR-05" title="Varaždin"/>
    <path d="M537.4,114.67L531.75,114.85L530.42,117.65L526.16,123.15L525.61,125.12L521.73,122.61L520.63,119.54L517.3,119.69L516.3,116.38L513.11,114.6L509.76,114.87L510.41,111.26L508.29,107.59L505.1,108.4L501.63,107.83L497.96,110.07L496.85,113.61L496.46,121.16L493.93,120.56L489.39,121.37L485.74,117.58L480.56,115.39L477.82,112.56L471.8,110.45L474.62,101.22L478.35,97.51L486.08,97.07L485.69,95.51L490.39,92.97L495.58,93.61L500.89,88.02L501.17,83.55L503.69,82.59L505.63,84.85L507.25,78.24L508.86,80.11L509.29,85.93L515.48,91.01L517.9,91.38L524.21,94.63L529.62,98.26L529.25,102.46L532.1,105.06L535.65,109.87L534.81,111.78Z" class="land" id="HR-06" title="Koprivnica-Križevci"/>
    <path d="M496.46,121.16L496.85,113.61L497.96,110.07L501.63,107.83L505.1,108.4L508.29,107.59L510.41,111.26L509.76,114.87L513.11,114.6L516.3,116.38L517.3,119.69L520.63,119.54L521.73,122.61L525.61,125.12L529.75,127.21L530.78,129.6L536.02,132.28L536.77,135.48L540.68,136.49L543.74,142.92L547.4,140.46L551.23,143.36L547.87,149.4L547.53,154.55L547.25,159.26L545.2,161L541.77,159.53L536.8,160.92L532.76,160.8L529.84,158.32L528.35,160.03L525.64,159.25L522.86,161.07L521.05,159.49L518.57,160.97L514.53,159.09L512.65,160.5L512.97,163.73L507.32,162.55L508.52,159.12L504.82,155.12L503.55,150.03L499.19,149.69L496.86,146.72L494.12,145.33L491.5,145.8L487.92,141.77L483.18,139.72L484.49,136.46L483.46,133.2L488.27,132.73L489.88,131.28L495.7,128.93L496.86,126.31Z" class="land" id="HR-07" title="Bjelovar-Bilogora"/>
    <path d="M350.89,187.09L355.82,194.89L357.93,196.26L357.57,201.65L368.33,212.49L367.48,214.05L363.79,213.46L362.46,216.75L356.85,213.98L353.81,207.88L350.66,209.3L345.72,207.99L342.08,203.95L342.04,201.63L348.32,198.54L349.62,194.38L348.86,191.23ZM395.9,169.18L396.18,172.29L392.47,178.81L392.76,180.54L386.13,181.99L380.14,180.41L378.56,194.34L381.35,198.51L382.34,202.06L380.96,204.31L373.17,205.28L372.53,207.38L369.93,201.24L367.95,199.44L361.05,195.98L356.98,190.98L354.1,189.39L349.37,183.55L343.63,179.42L334.77,176L331.59,180.91L327.78,195.8L326.1,194.7L326.58,190.11L325.52,185.75L325.95,181.39L327.35,179.79L325.31,173.17L326.56,171.99L321.34,168.66L320.19,163.77L326.16,163.31L328.89,161.03L335.76,163.3L341.61,161.24L345.45,158.24L346.7,153.37L350.49,148.32L351.4,145.16L354.37,146.06L353.12,149.61L356.96,153.05L358.81,153.31L361.44,158.63L366.78,161.72L368.15,165.85L374.35,164.2L375.97,159.14L379.46,162.12L382.5,163.42L384.42,162.61L386.61,165.3L391.52,169.38ZM335.67,238.35L339.23,240.2L339.79,243.36L339.57,247.29L341.98,252.34L337.69,252.75L339.32,248.72L336.44,244.74ZM362,224.89L362.91,228.05L368.99,233.93L371.12,237.77L369.56,239.31L365.63,234.73L360.79,231.43L358.71,225.58ZM334.64,193.91L336.79,194.81L336.51,199.43L339.66,209.43L341.98,212.51L344.45,212.23L343.76,219.78L342.84,222.49L345.08,235.09L344.01,236.83L344.98,240L347.41,243.01L348.42,247.34L346.43,248.84L343.68,246.72L342.3,243.66L340.77,241.85L339.09,240.05L339.03,235.89L337.65,234.14L337.4,229.56L335.31,228.43L335.12,224.61L333.14,218.95L333.87,215.13L337.11,219.85L339.81,219.02L338.18,211.45L336.33,210.3L336.16,205.42L333.21,203.78L330.92,198.83L332.89,194.74Z" class="land" id="HR-08" title="Primorje-Gorski Kotar"/>
    <path d="M381.35,198.51L385.19,200.1L386.82,202.33L390.02,203.39L393.98,200.22L396.78,204.61L400.25,206.5L401.27,208.38L405.58,209.91L410.81,217.67L415.98,218.76L419.28,214.81L422.23,217.96L425.68,216.55L429.19,218.92L431.03,217.43L431.85,223.08L434.15,225.35L429.41,228.19L433.63,234.83L436.37,237.35L441.89,234.93L445.93,238.3L447.25,242.05L451.03,243.88L451.62,249.9L450.99,253.45L456.4,256.67L458.75,260.11L458.32,263.06L452.88,266.01L451.58,264.76L451.72,262.77L449.55,259.98L445.29,258.96L439.89,263.55L434.57,266.06L435.03,269.95L433.33,271.99L437.07,274.54L436.79,278.57L434.67,280.9L428.84,281.08L425.01,279.27L419.55,278.34L417.94,274.95L415.16,272.83L408,270.04L402.71,267.01L400.34,271.82L399.56,271.57L393.23,263.73L389.84,261.29L387.45,257.34L382.54,252.8L379.91,251.52L378.01,246.09L375.77,243.93L373.57,239.74L373.7,235.21L372.45,230.55L372.75,224.01L375.63,215.21L372.53,207.38L373.17,205.28L380.96,204.31L382.34,202.06ZM367.15,244.77L371.9,248.48L374.52,247.91L377.82,251.16L379.64,255.35L382.71,256.12L382.15,258.4L376.23,255.34L383.61,264.14L383.53,260.54L390.1,267.04L392.61,268.36L397.49,272.96L398.12,275.54L395.16,276.62L389.86,274.58L386.57,271.83L388.49,270.2L383.12,267.23L378.22,262L374.39,260.18L374.96,257.32L372.62,253.15L366.25,246.29Z" class="land" id="HR-09" title="Lika-Senj"/>
    <path d="M579.71,133.97L581.17,139.48L585.57,141.1L588.06,151.21L585.09,155.09L581.19,162.14L577.42,163.6L576.26,163.17L574.33,164.3L570.44,162.24L560.24,160.57L557.72,157.26L553.41,154.6L551.25,156.25L547.53,154.55L547.87,149.4L551.23,143.36L547.4,140.46L543.74,142.92L540.68,136.49L536.77,135.48L536.02,132.28L530.78,129.6L529.75,127.21L525.61,125.12L526.16,123.15L530.42,117.65L531.75,114.85L537.4,114.67L540.16,115.03L543.82,119.92L546.86,118.05L553.21,119.62L555.85,119.37L559.65,122.65L561.71,128.16L570.37,131.21L575.24,134.64Z" class="land" id="HR-10" title="Virovitica-Podravina"/>
    <path d="M577.42,163.6L577.56,166.14L581.21,167.15L584.08,169.92L588.02,172.18L591.34,171.95L592.86,173.87L592.53,178.13L593.66,181.43L590.81,184.59L584.71,182.94L578.55,183.09L577.23,186.75L574.55,190.15L568.67,192.44L566.81,189.53L565.45,184.57L559.11,184.48L552.06,180.19L550.97,177.18L545.16,172.57L541.03,173.01L539.34,174.9L534.17,172.45L529.59,175.99L526.67,176.46L525.24,173.72L520.85,171.72L517.14,166.16L514.44,166.19L512.97,163.73L512.65,160.5L514.53,159.09L518.57,160.97L521.05,159.49L522.86,161.07L525.64,159.25L528.35,160.03L529.84,158.32L532.76,160.8L536.8,160.92L541.77,159.53L545.2,161L547.25,159.26L547.53,154.55L551.25,156.25L553.41,154.6L557.72,157.26L560.24,160.57L570.44,162.24L574.33,164.3L576.26,163.17Z" class="land" id="HR-11" title="Požega-Slavonia"/>
    <path d="M529.59,175.99L534.17,172.45L539.34,174.9L541.03,173.01L545.16,172.57L550.97,177.18L552.06,180.19L559.11,184.48L565.45,184.57L566.81,189.53L568.67,192.44L574.55,190.15L577.23,186.75L578.55,183.09L584.71,182.94L590.81,184.59L598.54,187.27L600.45,189.18L603.91,188.62L606.02,186.95L612.27,187.05L615.37,189.42L620.75,190.3L622.94,191.92L619.33,198.44L621.99,201.56L619.88,204.92L617.62,204.23L614.34,199.96L607.32,200.62L602.94,197L599.95,198.56L600.61,201.1L597.96,203.14L593.75,202.75L590.39,200.12L590.3,196.83L584.6,196.46L581.25,202.65L575.18,206.23L570.85,202.58L568.85,202.18L562.95,197.52L558.05,200.23L552.27,200.05L550.87,198.48L541.97,197.19L538.35,193.3L535.91,192.3L533.89,196.49L529.32,196.34L527.15,194.86L524.9,190.51L522.01,188.21L528.22,181.95L529.96,178.24Z" class="land" id="HR-12" title="Brod-Posavina"/>
    <path d="M383.06,275.45L387.06,277.82L384.06,279.2ZM452.88,266.01L458.32,263.06L460.07,267.7L457.1,269.79L462.82,271.81L463.2,279.1L464.54,285.7L459.11,286.99L458.24,293.39L455.14,295.53L448.62,292.52L445.99,289.4L443.17,294.18L436.56,300.4L438.91,301.97L438.41,306.57L434.8,308.84L436.58,311.4L432.04,317.31L431.31,320.15L426.95,317.99L424.03,319.37L420.44,316.92L418.66,318.48L416.28,315.88L411.69,313.55L404.09,303.59L399.97,300.46L398.72,297.36L395.94,295.67L394.89,292.36L390.35,287.7L392.11,284.53L395.23,281.79L394.86,278.4L400.02,282.84L399.84,279.54L403.03,278.4L408.03,281.61L410.93,281.21L415.07,282.38L415.67,286.3L412.99,287.36L415.99,290.1L419.78,289.17L416.74,284.91L417.28,281.51L411.54,279.68L409.17,276.62L403.85,274.23L400.34,271.82L402.71,267.01L408,270.04L415.16,272.83L417.94,274.95L419.55,278.34L425.01,279.27L428.84,281.08L434.67,280.9L436.79,278.57L437.07,274.54L433.33,271.99L435.03,269.95L434.57,266.06L439.89,263.55L445.29,258.96L449.55,259.98L451.72,262.77L451.58,264.76ZM366.72,266.56L366.63,269.77L368.47,272.56L366.69,273.77L364.31,266.66ZM367.41,281.32L371.48,284.37L368.96,287.29L366.11,281.85ZM371.28,290.1L374.5,292.79L377.02,296.62L382.23,300.23L384.73,306.18L387.28,307.17L392.43,313.37L395.85,315.36L392.98,317.35L387.65,313.24L380.09,301.06L376.37,298.19L370.79,291.95ZM398.95,304.89L402.78,306.85L407.22,312.22L409.73,316.77L401.65,310.6L398.72,306.33ZM387.33,293.27L393.36,297.44L394.18,303.27L385.08,293.83Z" class="land" id="HR-13" title="Zadar"/>
    <path d="M653.69,167.88L650.3,168.21L645.76,163.64L639.9,165.49L641.23,169.73L638.1,171.49L636.79,170.3L629.65,172.67L629.64,176.11L628.3,179.78L624.42,181.81L620.62,182.62L620.61,186.97L623.49,188.71L622.94,191.92L620.75,190.3L615.37,189.42L612.27,187.05L606.02,186.95L603.91,188.62L600.45,189.18L598.54,187.27L590.81,184.59L593.66,181.43L592.53,178.13L592.86,173.87L591.34,171.95L588.02,172.18L584.08,169.92L581.21,167.15L577.56,166.14L577.42,163.6L581.19,162.14L585.09,155.09L588.06,151.21L585.57,141.1L581.17,139.48L579.71,133.97L585.38,133.27L591.14,136.14L593.88,133.77L601.22,134.77L602.19,136.44L608.32,137.29L610.41,135.34L613.32,138.54L624.73,132.69L624.72,131.3L630.2,125.37L631.38,121.87L633.96,121.69L644.16,127.13L643.75,132.51L646.1,135.16L647.68,141.9L651.62,144.74L649.73,149.95L646.77,155.71L649.56,158.34L653.17,157.94L658.41,158.94L660.74,160.63L659.51,163.3L653.76,162.65Z" class="land" id="HR-14" title="Osijek-Baranja"/>
    <path d="M422.05,322.71L421.96,323.85L424.65,325.48L423.38,326.86L420.17,324.22ZM485.53,309.9L482.63,309.74L477.32,314.4L473.07,313.85L471.98,317.4L478.7,323.78L472.56,328.58L472.06,331.91L473.42,333.7L471.41,335.96L466.18,335.58L464.92,337.35L461.85,337.1L461.05,339.29L458.11,339.37L456.03,342.7L452.08,345.34L454.81,347.87L455.25,350.34L452.23,351.08L450.16,353.47L447.17,352.64L447.58,350.12L444.43,349.32L444.29,345.47L442.98,341.59L445.31,338.59L440.92,335.21L439.03,332.81L434.14,329.28L428.07,328.55L425.8,325.32L424.3,325.19L423.31,321.11L418.7,318.67L420.44,316.92L424.03,319.37L426.95,317.99L431.31,320.15L432.04,317.31L436.58,311.4L434.8,308.84L438.41,306.57L438.91,301.97L436.56,300.4L443.17,294.18L445.99,289.4L448.62,292.52L455.14,295.53L458.24,293.39L459.11,286.99L464.54,285.7L467.06,289.71L470.75,292.83L473.79,298.24L477.73,298.16L478.78,303.18L482.82,303.5Z" class="land" id="HR-15" title="Šibenik-Knin"/>
    <path d="M622.94,191.92L623.49,188.71L620.61,186.97L620.62,182.62L624.42,181.81L628.3,179.78L629.64,176.11L629.65,172.67L636.79,170.3L638.1,171.49L641.23,169.73L639.9,165.49L645.76,163.64L650.3,168.21L653.69,167.88L655.33,169.26L652.07,174.03L655.5,177.13L660.17,178.15L661.49,181.94L671.01,186.93L681.11,188.01L681.02,193.89L678.25,194.29L675.58,191.2L671.9,193.97L666.09,191L666.55,193.95L663.78,198.03L660.11,198.14L661.75,204.14L660.51,206.97L660.99,209.74L657.52,212.73L664.42,214.86L659.29,219.18L654.59,219.86L655.54,224.35L651.85,224.9L643.74,224.46L637.74,219.49L640.58,216.03L637.3,210.45L634.38,206.92L626.94,204.25L624.51,201.42L621.99,201.56L619.33,198.44Z" class="land" id="HR-16" title="Vukovar-Srijem"/>
    <path d="M487.5,378.79L488.7,381.23L494.48,382.01L498.61,385.84L509.02,385.32L524.56,388L525.13,389.84L513.04,390.01L501.91,388.54L494.41,389.11L487.75,387.2L486.06,387.35L481.78,385.21L479.08,385.13L477.58,382.34L481.28,380.76L484.97,381.44ZM465.64,361.64L471.39,363.41L474.75,369.17L470.67,367.78L464.71,364.29ZM479.39,363.84L486.5,363.93L503.5,367.14L509.75,370.5L509.21,374.04L503.06,375.94L500.53,375.65L492.39,376.56L485.18,375.21L476.97,370.84L478.63,369.54ZM450.16,353.47L452.23,351.08L455.25,350.34L454.81,347.87L452.08,345.34L456.03,342.7L458.11,339.37L461.05,339.29L461.85,337.1L464.92,337.35L466.18,335.58L471.41,335.96L473.42,333.7L472.06,331.91L472.56,328.58L478.7,323.78L471.98,317.4L473.07,313.85L477.32,314.4L482.63,309.74L485.53,309.9L488.8,312.12L491.07,315.34L496.63,319.33L497.21,323.26L500.12,327.36L503.11,328.04L504.99,331.34L510.38,336.1L519.77,348.35L521.84,348.21L526.93,353.13L532.47,352.91L536.13,356.43L536.2,360.15L534.47,363.93L539.68,373.69L540.24,376.65L545.58,378.71L547.74,383.73L545.39,385.94L541.92,385.08L542.91,389.8L541.15,391.79L534.97,386.31L529.15,384.19L522.65,378.62L520.78,375.17L517.98,372.97L513.63,366.75L509.65,362.89L503.01,362.64L498.46,361.69L496.14,358.84L492.88,359.33L488.58,356.95L484.9,353.8L478.05,353.54L480.94,350.11L472.94,348.69L468.98,351.13L461.48,352.86L459.74,355.2L455.3,356.13ZM461.58,392.82L466.37,393.55L466.31,395.55L463.44,398.42L456.66,399.77L454.6,395.91L455.62,393.45Z" class="land" id="HR-17" title="Split-Dalmatia"/>
    <path d="M320.19,163.77L321.34,168.66L326.56,171.99L325.31,173.17L327.35,179.79L325.95,181.39L325.52,185.75L326.58,190.11L326.1,194.7L327.78,195.8L327.65,197.27L323.19,204.83L322.93,207.82L324.08,211.86L322.51,214.61L319.67,213.37L315.75,216.49L314.21,219.66L311.03,220.84L312.43,223.68L310.9,225.92L312.54,229.47L308.86,229.48L302.51,228.32L300.58,226.22L298.91,217.32L296.23,211.9L294.35,211.9L291.17,205.61L287.65,203.63L284.85,196.87L285.82,195.17L283.74,191.32L284.73,185.88L283.25,184.91L284.77,179.89L280.93,178.61L281.16,173.9L279.31,170.25L278.89,164.71L280.07,161.99L285.47,165.44L290.19,167.65L295.32,164.9L298.39,166.16L299.23,168.59L303.58,169.41L305.77,166.76L311.08,166.28L312.36,160.04L317.02,163.48Z" class="land" id="HR-18" title="Istria"/>
    <path d="M542.66,419.03L543.2,420.35L547.98,421.03L558.04,424.2L562.94,425.03L568.32,427.53L567.66,429.42L561.43,426.84L552.1,425.37L548.58,423.41L543.79,423.14L539.86,421.43ZM517.94,396.13L522.18,398.2L528.86,398.05L537.9,400.19L543.89,403.61L547.65,404.96L548.08,407.16L550.84,408.9L553.33,407.53L557.25,409.86L561.82,411.05L564.67,407.53L567.01,407.93L571.26,410.76L572.94,408.09L575.35,410.11L575.49,412.95L579.33,418.27L585.09,421.32L592.61,427.17L592.53,429.43L598.02,432.15L602.83,437.91L607.71,435.65L610.69,436.04L615.39,440.85L616.6,446.18L616.02,448.84L620.66,454.16L609.77,447.05L605.31,444.75L601.62,441.57L601.24,437.72L594.14,433.96L589.68,432.95L590.46,431.27L583.33,427.25L578.94,424.12L575.11,420.2L574.9,418.78L569.43,418.7L567.48,419.92L547.89,412.81L548.18,410.51L545.94,408.78L542.12,408.53L540.29,406.89L534.06,404.08L532.2,402.22L526.5,402.9L522.04,401.92L518.43,399.84ZM508.29,421.81L512.81,421.92L510.75,425.87L506.62,425.48L505.32,422.25ZM541.15,391.79L542.91,389.8L541.92,385.08L545.39,385.94L547.74,383.73L549.94,385.44L561.03,392.24L562.73,396.97L565.95,403.12L559.23,406.01L553.99,405.98L546.87,399.06ZM496.54,401.21L502.48,403.62L507.11,404.47L511.13,403.16L520.64,402.25L524.89,404.28L526.65,403.84L528.54,406.52L525.5,409.13L520.53,407.54L515.5,407.26L510.1,410.17L507.17,409.26L501.81,409.47L492.66,406.43L496.99,403.49Z" class="land" id="HR-19" title="Dubrovnik-Neretva"/>
    <path d="M507.25,78.24L505.63,84.85L503.69,82.59L501.17,83.55L496.63,82.89L495.2,81.55L489.95,82.92L486.95,80.63L485.71,82.33L476.91,82.21L473.6,81.27L471.48,77.76L468.72,76.3L469.9,73.78L467.4,70.69L466,64.58L472.43,59.84L478.26,60.77L488.54,67.09L494.41,68.05L497.96,74.32L500.82,75.63L503.44,75.03Z" class="land" id="HR-20" title="Medimurje"/>
    <path d="M459.45,116.34L460.98,119.51L461.09,123.43L462.75,124.2L464.84,129.05L462.81,130.1L462.48,133.35L458.83,132.3L454.71,136.39L451.1,138.26L448.69,141.28L448.09,145.2L445.74,150.23L442.12,149.19L439.67,146.76L433.57,143.85L434.07,139.19L439.47,139.74L439.95,137.74L436.37,135.37L437.75,133.67L436.57,129.69L437.72,127.47L445.4,122.41L452.02,119.41L456.82,116.28Z" class="land" id="HR-21" title="Grad Zagreb"/>
  </g>
</svg>