<?xml version="1.0" encoding="UTF-8"?>
<svg xmlns="http://www.w3.org/2000/svg" width="429.31" height="262.3" viewBox="265.34 125.85 429.31 262.3" style="background-color:#000000">
  <!-- Created using SVG Map Generator: dojo.amcharts.com/svg-map-generator -->
  <style>
    .land { fill: #ffffff; stroke: #000000; stroke-width: 0.65; }
  </style>
  <g id="polygons">
    <path d="M595.82,356.54L597.19,360.08L597.9,365.42L592.87,368.42L590.33,368.29L589,366.16L590.04,364.67L587.14,360.55L588.67,359.13L591.7,360.96L593.78,360.5Z" class="land" id="LV-DGV" title="Daugavpils"/>
    <path d="M431.96,283.92L431.79,286.09L425.64,287.47L425.97,284.75L423.7,282.7L427.91,279.15L428.73,278.68L432.4,279.26L432.95,282.37Z" class="land" id="LV-JEL" title="Jelgava"/>
    <path d="M551.06,301.02L551,300.65L551.55,296.63L554.5,296.11L555.95,299.65L554.94,301.73Z" class="land" id="LV-JKB" title="Jēkabpils"/>
    <path d="M442.99,246.91L439.91,250.28L437.48,249.83L434.37,251.36L427.06,252.36L421.76,254.83L414.81,253.49L413.92,252.72L414.22,249.94L418.53,248.44L422.58,249.96L426.24,250.11L431.21,249.23L437.26,247.11L440.01,245.64Z" class="land" id="LV-JUR" title="Jūrmala"/>
    <path d="M269.81,302.39L268.97,297.43L269.51,293.39L271.32,287.46L274.42,287.96L274.38,291.86L276.24,291.83L276.24,295.14L274.31,296.38L273.34,300.45Z" class="land" id="LV-LPX" title="Liepāja"/>
    <path d="M639.86,295.72L641.36,295.72L642.25,299.06L639.53,301.61L638.03,301.39L638.59,296.67Z" class="land" id="LV-REZ" title="Rēzekne"/>
    <path d="M463.45,249.28L458.26,252.9L458.26,256.77L460.42,259.48L456.44,259.14L455.02,256.19L453.48,257.48L450.9,257.35L450.11,259.06L448.32,259.06L448.85,256.64L445.9,254.37L441.43,252.61L445.21,249.35L442.99,246.91L440.01,245.64L443.7,243.01L446.39,239.22L451.15,237.18L454.94,240.27L456.22,243.29L460.31,245.34Z" class="land" id="LV-RIX" title="Rīga"/>
    <path d="M300.11,205.1L303.23,201.29L306.36,195.1L307.91,196.56L308.91,202.7L305.59,204.11L302.05,207.87Z" class="land" id="LV-VEN" title="Ventspils"/>
    <path d="M529.74,187.95L528.34,191.68L525.05,191.26L524.45,187.45L528.6,186.56Z" class="land" id="LV-VMR" title="Valmiera"/>
    <path d="M626.58,333.06L629.63,330.5L631.32,331.33L634.34,330.91L638.3,331.37L637.77,334.04L640.1,336.53L638.1,339.12L633.66,339.98L634.82,343.42L633.41,345.42L630.52,346.09L630.25,350.65L627.37,352.77L622.71,351.89L621.32,353.19L618.23,351.4L613.11,340.79L613.39,338.93L616.43,336.21L619.95,334.43L626.51,334.57Z" class="land" id="LV-001" title="Aglonas novads"/>
    <path d="M521.76,289.31L519.38,289.26L518.3,291.64L515.66,290.28L510.67,286.14L511,284.49L513.97,283.2L514.11,277.91L515.73,276.9L519.54,278.35L520.82,286.96Z" class="land" id="LV-002" title="Aizkraukles novads"/>
    <path d="M297.5,258.87L299.23,261.85L302.72,263.2L304.66,262.79L307.42,268.34L310.32,268.51L313.44,271.1L315.24,274.91L314.22,277.76L318.08,279.44L318.62,284.81L314.96,287.21L316.26,291.68L311.52,293.24L307.92,292.03L307.05,293.7L303.56,292.26L305.87,290.92L305.8,287L302.75,281.76L298.18,282.59L296.17,283.63L292.85,280.43L292.85,278.84L290.01,277.62L287.41,275.16L287.29,273.51L287.86,271.67L287.42,267.27L289.35,264.88L295.52,263.8L296.08,260.58Z" class="land" id="LV-003" title="Aizputes novads"/>
    <path d="M561.89,342.69L557.65,345.41L555.59,341.9L552.05,344.11L551.08,346.44L547.6,345.31L543.37,342.91L543.98,339.41L539.53,337.78L540.03,334.37L542.48,330.06L542.83,326.98L549.3,326.62L552.24,327.35L554.48,328.96L554.48,331.96L555.62,334.05L559.09,335.56L558.22,337.85L561.52,340.39Z" class="land" id="LV-004" title="Aknistes novads"/>
    <path d="M493.33,140.51L493.46,148.34L495.29,149.53L496.88,157.85L503.09,160.42L504.51,162.67L507.23,163.3L508.31,167.38L506.46,170.55L508.46,175.49L506.17,175.9L506.85,178.46L504.26,179.42L501.64,177.85L498.79,181.14L497,180.7L497.46,177.11L493.96,175.24L493.45,169.75L490.95,168.11L488.01,168.19L484.78,164.26L483.61,164.26L481.41,157.74L481.02,154.63L478.97,152.19L480.85,149.96L479.58,148.47L478.26,142.49L481.19,144.14L482.49,142.17L487.9,141.41L487.96,139.47L491.66,138.61Z" class="land" id="LV-005" title="Alojas novads"/>
    <path d="M301.71,238.01L304.87,240.66L306.15,243.22L309.58,246.83L310.86,251.03L307.26,253.39L306.63,254.81L303.35,254.26L301.78,257.28L298.6,256.15L293.2,254.01L293.17,251.81L296.48,251.81L297.47,249.1L296.92,243.1L299.31,237.67Z" class="land" id="LV-006" title="Alsungas novads"/>
    <path d="M595.66,203.93L597.81,200.94L602.46,201.05L604.24,197.72L604.57,193.39L610.11,191.95L609.17,189.78L610.28,187.17L609.74,183.39L611.39,182.19L611.72,179.71L615.24,177.85L616.52,181.19L621.39,180.88L621.71,182.98L626.82,185.62L634.98,186.88L638.56,189.7L643.79,189.8L648.93,187.93L651.57,188.17L652.65,191.18L650.49,200.24L652.35,201.9L654.4,201.38L658.33,203.63L659.91,206.36L659.99,210.54L656.8,212.89L654.01,213.35L653.81,216.11L651.53,217.85L648.5,217.77L643.13,218.94L640.06,215.5L635.88,219.35L633.73,219.12L632.86,221.31L628.95,221.86L622.37,219.35L621.34,215.84L618.54,213.01L615.05,213.71L611.39,213.5L606.85,211.38L604.63,211.49L603.01,213.33L601.06,210.16L596.46,206.78Z" class="land" id="LV-007" title="Aluksnes novads"/>
    <path d="M535.71,229.65L533.59,232.43L536.79,233.05L538.73,236.15L538.7,239.07L531.89,244.46L530.86,246.92L529.66,249.87L526,253.45L524.46,252.3L523.76,248.79L521.97,248.27L517.05,253.74L511.07,251.41L511.55,249.41L510.66,245.43L510.66,241.48L509.17,238.52L511.25,237.06L508.22,233.06L512.26,232.13L514.51,229.32L512.73,227.76L512.01,220.84L507.88,219.5L507.88,217.61L509.29,216.38L514.34,216.59L515.5,214.3L518.08,214.06L523.8,220.1L523.28,222.94L524.8,225.1L527.19,225.97L528.75,228.68L531.35,227.87Z" class="land" id="LV-008" title="Amatas novads"/>
    <path d="M609.74,183.39L610.28,187.17L609.17,189.78L610.11,191.95L604.57,193.39L604.24,197.72L602.46,201.05L597.81,200.94L595.66,203.93L593.32,204.32L591.37,202.86L588.75,203.86L589.79,206.08L586.54,206.43L586.76,210.81L581.73,212.06L577.35,210.62L577.31,206.9L578.14,204.01L580.27,200.54L579.56,197.47L579.36,191.73L581.44,191.23L580.78,186.65L582.58,183.46L584.77,184.37L588.68,184.01L590.46,189.54L593.91,190.86L594.2,189.07L597.12,189.07L600.42,185.33L604.35,184.13Z" class="land" id="LV-009" title="Apes novads"/>
    <path d="M396.98,313.15L396.99,316.45L391.79,319.92L390.56,317.98L387.85,317.33L386.58,313.21L386.43,309.39L383.14,308.38L381.77,310.02L376.18,309.34L373.99,307.61L369.96,307.23L369.54,305.68L371.23,303.47L369.12,301.23L370.41,299.52L370.21,297.07L371.46,294.82L371.08,292.28L372.37,293.18L375.2,291.55L376.67,294.36L380.42,291.78L382.46,291.57L382.5,288.79L384.28,288.41L385.9,290.37L388.23,289.6L391.14,294.31L392.06,298.36L391.56,301.06L393.43,301.73L395.01,304.85L395.5,305.68L393.43,308.6L395.5,310.31Z" class="land" id="LV-010" title="Auces novads"/>
    <path d="M458.64,238.85L460.31,236.6L460.03,234.77L463.77,233.21L465.13,229.57L465.1,225.74L466.9,225.86L471.94,226.71L474.21,234.02L473.92,235.34L471.74,238.15L465.58,239.99L463.81,242.56L459.17,241.03Z" class="land" id="LV-011" title="Ādažu novads"/>
    <path d="M430.54,266.58L428.23,264.02L427.63,261.3L421.27,257.15L415.58,257.05L414.81,253.49L421.76,254.83L427.06,252.36L434.37,251.36L437.48,249.83L439.91,250.28L442.99,246.91L445.21,249.35L441.43,252.61L438.52,255.84L434.78,257.99L436.25,263.78L434.98,266.74L432.74,265.08L431.14,266.67Z" class="land" id="LV-012" title="Babītes novads"/>
    <path d="M475.42,272.37L475.5,276.27L473.54,276.35L470.1,279.89L466.68,280.7L466.16,282.1L461.41,279.71L459.26,276.9L457.84,275.86L457.02,273.5L462.84,269.68L466.16,268.3L468.83,268.75Z" class="land" id="LV-013" title="Baldones novads"/>
    <path d="M644.59,262.02L645.97,256.97L649.89,257.58L651.82,252.02L654.84,251.36L658.31,248.49L657.04,245.61L659.08,246.14L661.36,245.05L664.25,245.88L662.93,250.37L662.59,254.53L659.71,255.04L658.76,257.25L657.99,263.59L653.62,261.66Z" class="land" id="LV-014" title="Baltinavas novads"/>
    <path d="M628.95,221.86L632.86,221.31L633.73,219.12L635.88,219.35L640.06,215.5L643.13,218.94L648.5,217.77L651.53,217.85L650.81,219.56L647.98,220.61L645.24,224.22L645.03,227.82L643.78,232.02L650.56,239.39L651.72,242.97L656.46,243.89L657.04,245.61L658.31,248.49L654.84,251.36L651.82,252.02L649.89,257.58L645.97,256.97L644.59,262.02L641.92,265.8L639.68,265.6L640.36,269.29L640.1,269.34L637.78,269.58L635.37,268.4L630.16,268.62L629.02,266.36L624.56,266.69L621.51,265.99L617.51,266.19L615.52,264.04L616.41,262.92L619.13,259.53L623.21,259.57L626.76,260.52L627.87,261.94L630.64,261.41L631.38,259.02L636.01,255.3L638.91,254.14L638.52,250.67L634.64,249.83L634,248.27L637.22,247.1L638.74,241.19L633.11,240.66L625.55,237.6L625.97,234.99L619.33,234.99L621.87,231.97L623.67,228.43L627.52,224.43Z" class="land" id="LV-015" title="Balvu novads"/>
    <path d="M467.87,295.14L469.9,298.68L471.98,300.79L473.28,299.65L475.22,303L476.11,306.29L475.47,309.04L471.4,310.98L474.64,312.7L472.15,315.73L474.75,318.29L478.34,318.18L478.45,321.69L475.13,322.22L469.28,324.45L467.54,322.71L465.47,323.26L464.35,320.73L456.59,323.76L454.96,325.43L451.75,325.82L450.32,322.8L447.46,322.52L447.45,320.67L445.52,317.3L447.42,315.84L449.41,311.61L454.01,311.72L453.79,309.39L451.08,308.94L447.36,305.39L448.3,303.55L447.21,298.55L449.34,294.41L455.23,295.97L459.39,298.08L460.88,295.42L465.93,294.03Z" class="land" id="LV-016" title="Bauskas novads"/>
    <path d="M537,180.72L542.68,179.71L547.89,185.45L545.9,188.51L548.83,191.09L548.5,193.06L543.46,193.67L541.28,196.31L537.59,195.84L533.28,199.89L532.22,197.31L529.52,199.09L526.22,198.69L525.16,197.21L525.05,191.26L528.34,191.68L529.74,187.95L531.29,187.4L533.17,184.29L535.89,183.35Z" class="land" id="LV-017" title="Beverīnas novads"/>
    <path d="M356.83,261.49L358.99,263.3L362.26,262.86L365.33,266.52L367.52,266.07L369.34,267.67L372.1,266.38L374.23,267.68L376.11,270.61L376.41,273.5L375.82,278.67L377.12,282.69L376.77,288L373.23,287.58L375.2,291.55L372.37,293.18L371.08,292.28L368.73,287.3L364.78,285.26L364.24,287.46L360.54,288.78L360.79,284.66L358.94,284.74L357.4,282.78L357.94,277.25L355.43,274.03L354.17,270.76L354.62,266.69Z" class="land" id="LV-018" title="Brocēnu novads"/>
    <path d="M537,180.72L535.89,183.35L533.17,184.29L531.29,187.4L529.74,187.95L528.6,186.56L524.45,187.45L522.73,184.2L519.04,182.01L518.63,180.2L514.9,175.95L514.16,173.66L510.5,175.81L508.46,175.49L506.46,170.55L508.31,167.38L507.23,163.3L504.51,162.67L503.09,160.42L505.13,158.55L510.29,159.81L509.56,155.02L511.74,154.74L513.89,158.07L516.84,160.19L517.84,159.25L520.29,162.02L524.35,161.36L529.92,161.43L533.87,161.81L537.2,162.88L542.84,166.5L543.5,167.61L542.67,169.59L539.55,169.59L538.2,172.12L538.62,174.96L533.66,175.4L532.9,178.98Z" class="land" id="LV-019" title="Burtnieku novads"/>
    <path d="M465.1,225.74L465.13,229.57L463.77,233.21L460.03,234.77L460.31,236.6L458.64,238.85L454.94,240.27L451.15,237.18L456.03,233.78L459.89,229.14L464.49,225.23Z" class="land" id="LV-020" title="Carnikavas novads"/>
    <path d="M582.91,241.52L583.29,246.22L585.29,247.52L583.87,251.63L581.51,252.08L581.24,254.63L578.19,253.1L574.34,254.23L571.66,246.11L572.22,237.65L574.17,236.42L580.23,238.36Z" class="land" id="LV-021" title="Cesvaines novads"/>
    <path d="M535.36,221.91L536.75,226.03L535.71,229.65L531.35,227.87L528.75,228.68L527.19,225.97L524.8,225.1L523.28,222.94L523.8,220.1L518.08,214.06L515.5,214.3L516.07,210.13L516.3,209.56L521.09,211.04L521.93,214.3L526.19,213.33L530.06,215.39L531.87,217.85L531.28,221.81L533.6,222.99Z" class="land" id="LV-022" title="Cēsu novads"/>
    <path d="M653.99,292.61L652.64,291.93L652.22,289.05L653.85,287.94L655.59,287.32L656.01,284.34L658.77,283.12L659.88,281.35L663.66,280.8L668.3,282.43L670.41,276.45L672.01,276.49L673.11,279.34L676.56,278.76L678.79,280.98L678.49,284.79L681.25,290.45L685.12,290.57L686.09,293.81L683.93,294.9L683.79,298.26L685.79,298.21L686.24,300.97L683.4,301.02L680.07,299.69L677.33,301.64L676.25,303.89L669.14,296.24L664.24,296.82L661.58,293.53L659.83,294.69L655.8,292.31Z" class="land" id="LV-023" title="Ciblas novads"/>
    <path d="M662.79,354.79L660.1,353.45L658.09,351.26L657.12,354.14L655.53,354.45L651.3,352.72L647.04,349.38L644.24,348.13L640.25,349.07L641.85,345.12L640.87,343.83L634.82,343.42L633.66,339.98L638.1,339.12L640.1,336.53L637.77,334.04L638.3,331.37L639.6,330.51L642.98,330.71L645.06,331.76L646.83,327.93L649.02,328.48L652.76,327.23L655.28,327.82L659.29,327.44L661.58,331.34L663.62,332.32L666.85,332.35L669.76,333.84L672.97,333.98L674.5,332.35L676.96,332.59L680.76,329.69L682.98,331.08L683.12,330.79L683.94,331.9L680.76,336.53L681.66,337.83L680.44,339.58L677.7,338.74L675.1,340.98L674.13,344.26L672.65,346.04L668.5,347.92L666.96,352.95Z" class="land" id="LV-024" title="Dagdas novads"/>
    <path d="M618.54,371.28L616.69,374L615.25,373.92L612.25,381.67L608.11,383.4L607.1,385.45L604.81,384.97L603.41,383.06L599.77,382.43L598.49,385.07L593.39,385.5L590.12,384.38L588.46,382.49L583.76,382.54L581.65,378.64L579.63,378.49L577.07,376.01L575.15,370.7L579.44,370.89L580.44,367.39L577.03,364.73L576.03,362.81L576.91,357.25L580.65,353.96L583.64,353.34L582.31,350.05L582.48,347.97L581.22,343.07L581.36,336.6L578.85,333.31L580.97,332.76L583.84,331.22L585.97,333.64L588.09,331.95L590.49,334.47L590.76,338.23L593.37,338.82L593.56,335.79L597.63,338.91L599.38,338.18L601.71,338.57L602.47,341.29L606.52,340.9L609.14,338.63L611.03,340.04L613.17,337.88L613.39,338.93L613.11,340.79L618.23,351.4L615.91,353.44L618.02,358.11L616.36,359.22L617.48,361.23L615.7,362.85L616.19,366.35L618.75,366.21ZM595.82,356.54L593.78,360.5L591.7,360.96L588.67,359.13L587.14,360.55L590.04,364.67L589,366.16L590.33,368.29L592.87,368.42L597.9,365.42L597.19,360.08Z" class="land" id="LV-025" title="Daugavpils novads"/>
    <path d="M410.4,300.11L408.29,293.94L402.68,299.32L403.34,304.03L399.85,302.73L396.49,303.69L395.21,305.2L395.01,304.85L393.43,301.73L391.56,301.06L392.06,298.36L391.14,294.31L388.23,289.6L385.9,290.37L384.28,288.41L382.5,288.79L382.46,291.57L380.42,291.78L376.67,294.36L375.2,291.55L373.23,287.58L376.77,288L377.12,282.69L375.82,278.67L380.33,276.62L387.4,276.23L388.2,278.72L392.99,279.07L393.36,277.48L395.8,278.7L397.99,275.42L402.64,276.9L406.6,272.59L404.46,270.49L408.45,266.68L408.99,268.21L412.75,267.65L414.91,265.85L416.09,265.64L417.39,271.99L413.21,273.88L411.02,277.63L415.28,279.89L414.53,282.62L412.01,283.95L411.95,285.91L409.84,288.28L411.35,292.53L413.94,294L412.42,297.71Z" class="land" id="LV-026" title="Dobeles novads"/>
    <path d="M361.52,172.84L359.83,173.32L359.28,176.76L360.17,178.93L363.27,182.3L362.33,184.75L363.65,191.08L360.78,192.69L358.56,191.69L357.73,195.24L356.07,196.35L355.01,201.02L351.74,200.79L348.09,202.85L347.59,200.29L345.15,199.02L342.16,200.47L342.43,202.41L340.06,203.57L336.06,202.99L332.62,200.65L338.28,197.85L338.28,195.11L344.5,191.63L343.84,186.3L342.32,183.02L343.17,180.8L339.55,175.26L357.89,165.73L363.13,164.1L361.78,168.74Z" class="land" id="LV-027" title="Dundagas novads"/>
    <path d="M303.56,292.26L300.48,291.89L299.9,297.51L293.45,293.18L293.04,296.76L290.25,296.64L289.01,294.77L284.77,295.09L284.9,289.85L286.06,286.98L284.14,283.1L286.42,280.65L286.42,278.46L284.05,275.01L285.42,273.08L287.29,273.51L287.41,275.16L290.01,277.62L292.85,278.84L292.85,280.43L296.17,283.63L298.18,282.59L302.75,281.76L305.8,287L305.87,290.92Z" class="land" id="LV-028" title="Durbes novads"/>
    <path d="M413.92,252.72L407.87,254.71L402.91,253.74L400.61,254.13L398.34,252.8L394.46,253.85L396.9,244.77L398.73,242.11L399.87,238.29L398.29,234.48L395.13,231.96L393.91,232.48L390.28,229.06L392.74,228.01L393.58,223.23L393.26,219.18L392.35,214.03L394.77,212.06L396.71,217.97L396.66,221.1L399.85,228.86L400.17,234.47L403.78,239.11L406.9,241.04L410.76,242.2L414.87,242.54L416.84,246.74L418.53,248.44L414.22,249.94Z" class="land" id="LV-029" title="Engures novads"/>
    <path d="M543.72,271.2L542.47,268.27L537.44,265.98L532.55,265.18L531.41,260.29L533.71,259.88L532.68,257.12L534.42,253.53L533.31,249.56L531.42,246.78L538.13,248.05L540.09,250.62L544.05,247.83L550.93,247.91L552.22,250.61L554.75,250.36L554.79,250.3L558.05,253.72L557.54,255.72L552.47,255.72L547.36,257.34L545.74,259.01L546.92,264.82L546.11,269.67Z" class="land" id="LV-030" title="Ērgļu novads"/>
    <path d="M465.87,250.02L463.45,249.28L460.31,245.34L456.22,243.29L454.94,240.27L458.64,238.85L459.17,241.03L463.81,242.56L465.58,239.99L471.74,238.15L473.92,235.34L474.86,237.84L477.25,236.94L478.6,239.23L476.24,238.85L474.75,240.72L475.65,243.74L474.34,245.58L467.97,246.14L468.04,248.39Z" class="land" id="LV-031" title="Garkalnes novads"/>
    <path d="M290.25,296.64L290.17,299.55L292.67,300.34L292.55,302.89L294.7,305.88L295.54,308.92L294.62,313.96L292.63,317.26L285.35,317.47L283.69,314.92L283.11,308.05L280.12,307.59L278.12,306.05L277.62,299.64L273.34,300.45L274.31,296.38L276.24,295.14L276.24,291.83L274.38,291.86L274.42,287.96L271.32,287.46L272,285.05L273.96,286.02L276.87,285.78L276.75,282.11L278,280.19L281.23,283.85L284.14,283.1L286.06,286.98L284.9,289.85L284.77,295.09L289.01,294.77Z" class="land" id="LV-032" title="Grobiņas novads"/>
    <path d="M577.35,210.62L581.73,212.06L586.76,210.81L586.54,206.43L589.79,206.08L588.75,203.86L591.37,202.86L593.32,204.32L595.66,203.93L596.46,206.78L601.06,210.16L603.01,213.33L604.63,211.49L606.85,211.38L611.39,213.5L615.05,213.71L618.54,213.01L621.34,215.84L622.37,219.35L628.95,221.86L627.52,224.43L623.67,228.43L621.87,231.97L619.33,234.99L615.94,241.24L611.36,243.65L611.38,248L603.92,247.37L602.53,249.16L598.74,249.39L594.33,251.54L592.87,243.86L591.2,241.44L587.26,239.24L582.91,241.52L580.23,238.36L574.17,236.42L572.22,237.65L567.33,237.69L570.95,231.03L568.23,227.17L567.23,224.13L561.71,223.06L561.5,219.2L564.15,217.5L566.17,215.76L569.32,216.93L576.64,215.98L575.99,213.35Z" class="land" id="LV-033" title="Gulbenes novads"/>
    <path d="M466.16,282.1L466.98,286.09L463.6,286.09L463.88,291.53L467.87,292.64L467.87,295.14L465.93,294.03L460.88,295.42L459.39,298.08L455.23,295.97L449.34,294.41L451.19,290.37L447.23,290.65L448.72,287.36L447.13,278.89L450.87,279.74L454.14,281.96L455.67,279.37L459.11,278.57L459.26,276.9L461.41,279.71Z" class="land" id="LV-034" title="Iecavas novads"/>
    <path d="M473.96,256.84L477.83,256.22L478.59,257.25L483.2,257.25L486.79,256.48L486.69,257.04L489.29,261.02L486.35,262.32L484.19,261.75L482.19,264.74L479.34,263.83L477.46,265.24L474.69,266.33L472.86,265.56L470.5,262.86L470.39,261.59Z" class="land" id="LV-035" title="Ikšķiles novads"/>
    <path d="M581.22,343.07L582.48,347.97L582.31,350.05L583.64,353.34L580.65,353.96L576.91,357.25L576.03,362.81L577.03,364.73L580.44,367.39L579.44,370.89L575.15,370.7L573.07,366.4L568.48,364.41L564.39,358.14L564.11,356.6L559.98,353.95L553.1,351.68L552.66,348.86L551.08,346.44L552.05,344.11L555.59,341.9L557.65,345.41L561.89,342.69L563.36,344.79L565.17,344.55L566.75,341.58L569.87,341.1L569.32,338.28L574.53,333.73L576.17,335.41L579.74,335.79L579.92,341.55Z" class="land" id="LV-036" title="Ilūkstes novads"/>
    <path d="M490.66,231.48L489.54,237.43L485.05,239.81L481.82,239.31L478.6,239.23L477.25,236.94L474.86,237.84L473.92,235.34L474.21,234.02L477.11,232.94L478.19,230.76L483.69,232.01L486.92,230.38Z" class="land" id="LV-037" title="Inčukalna novads"/>
    <path d="M535.11,291.35L538.44,293.41L535.95,295.34L534.94,298.01L537.77,301.17L537.79,302.6L535.27,305.33L533.19,304.66L530.29,308.72L525.63,309.09L521.91,307.75L520.47,308.93L512.29,307.62L508.86,308.11L507.27,302.87L505.98,302.21L504.47,298.55L504.24,294.48L501.67,292.78L501.19,290.74L504.67,289.85L506,287.61L508.2,285.6L510.67,286.14L515.66,290.28L518.3,291.64L519.38,289.26L521.76,289.31L527.62,284.28L532.26,287.7L531.88,290.24Z" class="land" id="LV-038" title="Jaunjelgavas novads"/>
    <path d="M556.5,235.85L554.01,235.44L551.84,232.23L548.19,231.28L548.35,228.57L547.14,227.11L547.76,223.9L551.06,223.23L552.59,225.95L557.37,225.86L561.71,223.06L567.23,224.13L568.23,227.17L570.95,231.03L567.33,237.69L564.98,236.01L563.82,237.6L560.98,237.43L558.48,235.34Z" class="land" id="LV-039" title="Jaunpiebalgas novads"/>
    <path d="M382.53,261.52L379.78,264.61L381.76,266.94L384.25,267.77L387.64,267.04L389.31,268.47L391,273.64L393.36,277.48L392.99,279.07L388.2,278.72L387.4,276.23L380.33,276.62L375.82,278.67L376.41,273.5L376.11,270.61L374.23,267.68L377.16,264.54L376.39,262.32L378.33,260.94Z" class="land" id="LV-040" title="Jaunpils novads"/>
    <path d="M415.58,257.05L421.27,257.15L427.63,261.3L428.23,264.02L430.54,266.58L431.14,266.67L430.26,273.14L427.69,274.09L426.53,276.87L428.8,278.64L427.91,279.15L423.7,282.7L425.97,284.75L425.64,287.47L431.79,286.09L431.96,283.92L434.62,284.59L437.16,286.48L440.32,286.81L442.54,290.86L443.54,295.53L447.21,298.55L442.11,299.08L440.33,301.54L437.44,301.95L435.78,309.71L436.76,310.85L436.97,316.37L433.14,316.16L430.93,312.74L423.28,314.05L418.17,317.09L411.95,315.06L409.07,312.34L411.88,311.62L413.88,309.4L411.96,306.95L410.4,300.11L412.42,297.71L413.94,294L411.35,292.53L409.84,288.28L411.95,285.91L412.01,283.95L414.53,282.62L415.28,279.89L411.02,277.63L413.21,273.88L417.39,271.99L416.09,265.64L414.91,265.85L413.69,258.49Z" class="land" id="LV-041" title="Jelgavas novads"/>
    <path d="M555.95,299.65L557.19,301.43L561.69,302.58L565.4,305.22L566.5,309.25L569.11,310.17L570.26,312.33L571.88,321.05L573,323.35L571.64,326.64L573.02,328.82L577.13,330.72L578.85,333.31L581.36,336.6L581.22,343.07L579.92,341.55L579.74,335.79L576.17,335.41L574.53,333.73L569.32,338.28L569.87,341.1L566.75,341.58L565.17,344.55L563.36,344.79L561.89,342.69L561.52,340.39L558.22,337.85L559.09,335.56L555.62,334.05L554.48,331.96L554.48,328.96L552.24,327.35L549.3,326.62L542.83,326.98L541.86,321.46L545.29,320.24L545.77,314.12L549.16,314.02L552.48,308.98L550.06,304.47L551.1,301.34L551.06,301.02L554.94,301.73Z" class="land" id="LV-042" title="Jēkabpils novads"/>
    <path d="M356.83,261.49L358.14,259.5L357.81,256.46L359.31,254.32L355.99,253.73L354.29,254.73L355.32,252.02L355.51,248.11L357.44,244.32L360.34,245.61L360.86,243.61L365.35,244.56L366.02,242.56L364.99,238.76L365.15,235.79L369.28,235.14L376.83,230.85L382.33,232.04L381.55,234.73L379.55,236.78L377.54,237.02L376.67,241.57L378.57,242.67L378.19,245.14L376.22,245.28L375.29,248.92L376.05,251.81L378.16,254.27L381.03,254.27L382.53,261.52L378.33,260.94L376.39,262.32L377.16,264.54L374.23,267.68L372.1,266.38L369.34,267.67L367.52,266.07L365.33,266.52L362.26,262.86L358.99,263.3Z" class="land" id="LV-043" title="Kandavas novads"/>
    <path d="M653.85,287.94L654.21,285.48L646.57,280.99L648.04,279.67L648.59,275.35L649.94,274.34L648.14,269.62L642.21,270.14L640.62,269.23L640.36,269.29L639.68,265.6L641.92,265.8L644.59,262.02L653.62,261.66L657.99,263.59L659.79,263.51L664.21,260.73L666.86,260.58L669.38,259.03L671.18,261.36L672.4,265.08L675.9,264.53L674.67,267.19L674.67,269.77L672.17,271.65L676.56,278.76L673.11,279.34L672.01,276.49L670.41,276.45L668.3,282.43L663.66,280.8L659.88,281.35L658.77,283.12L656.01,284.34L655.59,287.32Z" class="land" id="LV-044" title="Kārsavas novads"/>
    <path d="M508.46,175.49L510.5,175.81L514.16,173.66L514.9,175.95L518.63,180.2L519.04,182.01L522.73,184.2L524.45,187.45L525.05,191.26L525.16,197.21L526.22,198.69L526.43,201.91L525.15,205.07L521.34,202.91L520.04,204.67L517.15,201.97L514.22,202.36L512.91,198.83L510.75,197.27L510.92,194.39L506.7,192.77L505.63,191.77L504.16,186.9L502.94,185.49L498.2,186.86L496.51,184.96L497,180.7L498.79,181.14L501.64,177.85L504.26,179.42L506.85,178.46L506.17,175.9Z" class="land" id="LV-045" title="Kocēnu novads"/>
    <path d="M532.55,265.18L537.44,265.98L542.47,268.27L543.72,271.2L540.02,273.3L540.02,276.51L537.11,277.17L538.1,279.8L534.9,283.37L533.74,287.75L532.26,287.7L527.62,284.28L521.76,289.31L520.82,286.96L519.54,278.35L520.32,275.37L518.18,274.43L519.76,272.15L522.01,271.15L526.22,271.73L530.96,268.65Z" class="land" id="LV-046" title="Kokneses novads"/>
    <path d="M662.79,354.79L657.82,359.33L656.15,363.14L657.03,367.95L655.9,373.67L651.61,374.3L644.9,373.28L640.49,371.53L640.01,372.74L636.15,374.19L631.65,369.42L629.21,367.56L625.87,368.19L625.37,369.97L620.58,369.76L618.54,371.28L618.75,366.21L616.19,366.35L615.7,362.85L617.48,361.23L616.36,359.22L618.02,358.11L615.91,353.44L618.23,351.4L621.32,353.19L622.71,351.89L627.37,352.77L630.25,350.65L630.52,346.09L633.41,345.42L634.82,343.42L640.87,343.83L641.85,345.12L640.25,349.07L644.24,348.13L647.04,349.38L651.3,352.72L655.53,354.45L657.12,354.14L658.09,351.26L660.1,353.45Z" class="land" id="LV-047" title="Krāslavas novads"/>
    <path d="M484.28,222.38L485.19,220.57L484.41,214.96L482,212.96L484.55,211.48L486.16,209.08L485.07,205.27L487.18,204.16L493.78,205.18L496.97,213.03L500.06,216.18L499.22,219.15L497.44,221.15L497.31,221.96L496.55,225.24L492.52,226.81L490.66,231.48L486.92,230.38L483.69,232.01L484.15,227.32L480.96,226.76L480.96,224.02Z" class="land" id="LV-048" title="Krimuldas novads"/>
    <path d="M566.5,309.25L565.4,305.22L561.69,302.58L557.19,301.43L555.95,299.65L554.5,296.11L551.55,296.63L547.15,295.56L545.9,292.09L547.23,287.32L548.71,288.06L551.97,287.52L557.28,284.84L559.05,282.4L562.17,284.81L563.03,286.76L569.19,282.8L572.33,283.84L573.98,288.53L577.29,286.67L577.78,290.29L579.58,290.41L582.34,287.8L583.4,284.01L589.62,289.14L596,289.16L595.89,291.34L597.71,295.21L594.89,300.76L594.11,300.78L589.49,299.33L586.96,302.1L582.59,304.62L582.6,302.14L579.56,299.43L579.31,297.61L574.7,299.56L570.45,306.85Z" class="land" id="LV-049" title="Krustpils novads"/>
    <path d="M337.94,267.79L334.61,266.74L333.5,264.58L328.43,264.3L325.61,266.31L324.55,268.69L326.27,274.84L323.31,275.61L318.08,279.44L314.22,277.76L315.24,274.91L313.44,271.1L310.32,268.51L307.42,268.34L304.66,262.79L302.72,263.2L299.23,261.85L297.5,258.87L298.6,256.15L301.78,257.28L303.35,254.26L306.63,254.81L307.26,253.39L310.86,251.03L309.58,246.83L306.15,243.22L304.87,240.66L301.71,238.01L304.54,236.9L310.89,232.83L315.32,236.61L317.95,237.52L319.07,235L322.57,235.96L329.33,234.38L331.97,235.34L338.56,233.73L340.26,225.91L342.71,227.5L342.48,229.82L343.88,232.26L348.91,234.01L349.07,237.41L350.48,244.85L356.17,243.89L357.44,244.32L355.51,248.11L355.32,252.02L354.29,254.73L353.01,257.99L348.75,256.85L348.26,254.19L345.55,253.27L343.69,258.12L347.32,258.49L348.69,261L345.86,263.94L342.78,264.21L340.38,268.15Z" class="land" id="LV-050" title="Kuldīgas novads"/>
    <path d="M506,287.61L504.67,289.85L501.19,290.74L493.67,291.25L487.46,294.47L484.04,294.23L483.3,291.95L485.28,290.21L483.66,288.42L480.67,288.41L479.32,285.81L478.82,280.89L481.88,280.74L481.56,276.78L475.72,277.13L475.5,276.27L475.42,272.37L476.28,270.72L474.69,266.33L477.46,265.24L479.27,266.08L481.9,270.52L485.68,272.61L488.38,272.13L490.57,269.52L490.05,265.7L492.09,265.84L492.37,262.58L498.74,265.7L498.84,266.23L495.93,270.09L494.37,270.7L494.34,273.9L491.32,276.75L495.14,277.82L495.86,281.68L497.08,283.7L500.88,286.89L505.39,287.7Z" class="land" id="LV-051" title="Ķeguma novads"/>
    <path d="M470.5,262.86L472.86,265.56L474.69,266.33L476.28,270.72L475.42,272.37L468.83,268.75L466.16,268.3L462.84,269.68L457.02,273.5L457.84,275.86L454.39,274.96L444.39,275.39L444.39,275.37L444.49,274.96L444.9,271.8L447.09,270.14L450.08,270.33L452.63,265.31L450.11,261.28L450.11,259.06L450.9,257.35L453.48,257.48L455.02,256.19L456.44,259.14L455.97,260.56L459.8,263.64L463.29,262.47L468.24,263.47Z" class="land" id="LV-052" title="Ķekavas novads"/>
    <path d="M505.39,287.7L500.88,286.89L497.08,283.7L495.86,281.68L495.14,277.82L491.32,276.75L494.34,273.9L494.37,270.7L495.93,270.09L498.84,266.23L498.77,265.87L503.94,267.43L505.43,266.98L508.79,273.91L505.53,274.16L506.92,277.77L504.32,278.92L503.76,284.23L505.4,285.03Z" class="land" id="LV-053" title="Lielvārdes novads"/>
    <path d="M483.61,164.26L484.78,164.26L488.01,168.19L490.95,168.11L493.45,169.75L493.96,175.24L497.46,177.11L497,180.7L496.51,184.96L498.2,186.86L502.94,185.49L504.16,186.9L505.63,191.77L506.7,192.77L505.77,194.97L503.47,194.36L502.78,196.5L497.73,200.77L493.28,203.33L493.78,205.18L487.18,204.16L485.07,205.27L486.16,209.08L484.55,211.48L482,212.96L484.41,214.96L485.19,220.57L484.28,222.38L481.7,221.07L481.11,217.96L478.18,215.25L477.96,212.17L476.22,211.93L470.71,214.43L468.15,208.51L467.9,203.18L473.62,201.9L475.53,198.18L477.61,198.12L478.57,195.58L476.63,194.4L476.43,188.4L474.24,186.11L470.16,185.66L470.16,174.47L476.92,173.39L477.72,170.34L481.22,169.78L480.42,166.41Z" class="land" id="LV-054" title="Limbažu novads"/>
    <path d="M508.22,233.06L507.34,232.11L503.44,232.52L501.7,230.84L501.65,226.2L499.85,223.23L497.32,221.94L497.44,221.15L499.22,219.15L506.08,218.64L507.88,217.61L507.88,219.5L512.01,220.84L512.73,227.76L514.51,229.32L512.26,232.13Z" class="land" id="LV-055" title="Līgatnes novads"/>
    <path d="M566.5,309.25L570.45,306.85L574.7,299.56L579.31,297.61L579.56,299.43L582.6,302.14L582.59,304.62L586.96,302.1L589.49,299.33L594.11,300.78L594.28,300.78L594.28,305.66L595.84,306.33L595.31,309.96L593.73,312.55L591.21,310.49L588.91,314.44L594.28,317.21L597.03,322.08L595.01,324.22L590.5,322.67L586.01,322.67L584.13,318.14L582.85,318.83L582.69,322.67L578.75,320.91L579.92,330.75L580.97,332.76L578.85,333.31L577.13,330.72L573.02,328.82L571.64,326.64L573,323.35L571.88,321.05L570.26,312.33L569.11,310.17Z" class="land" id="LV-056" title="Līvānu novads"/>
    <path d="M616.41,262.92L613.43,261.26L610.87,258.27L605.88,259.66L603.15,258.3L600.55,260.77L600.55,262.15L596.42,265.76L595.07,268.16L590.68,266.7L589.05,261.84L594.14,254.25L594.33,251.54L598.74,249.39L602.53,249.16L603.92,247.37L611.38,248L613.59,248.45L614.88,250.36L613.85,252.79L617.32,254.71L617.91,258.09L619.13,259.53Z" class="land" id="LV-057" title="Lubānas novads"/>
    <path d="M688.39,310.15L685.54,309.68L683.08,311.03L681.04,308.77L677.96,309.44L679.45,313.4L675.84,314.82L669.72,321.05L671.06,324.59L674.81,324.14L674.43,321.85L676.82,321.46L679.52,319.66L683.33,322.81L685.61,325.76L683.22,330.6L682.98,331.08L680.76,329.69L676.96,332.59L674.5,332.35L672.97,333.98L669.76,333.84L666.85,332.35L663.62,332.32L661.58,331.34L659.29,327.44L661.04,326.07L659.93,323.82L662.06,320.14L660.47,317.72L660.55,313.09L657,312.3L656.04,309.09L653.44,306.42L651.71,303.25L649.25,303.31L647.84,299.72L649.12,295.6L653.9,295.32L653.99,292.61L655.8,292.31L659.83,294.69L661.58,293.53L664.24,296.82L669.14,296.24L676.25,303.89L677.33,301.64L680.07,299.69L683.4,301.02L686.24,300.97L689.13,304.72Z" class="land" id="LV-058" title="Ludzas novads"/>
    <path d="M606.12,280.45L602.34,279.15L602.34,277.37L598.44,277.4L591.2,281.74L583.51,281.07L583.4,284.01L582.34,287.8L579.58,290.41L577.78,290.29L577.29,286.67L573.98,288.53L572.33,283.84L569.19,282.8L563.03,286.76L562.17,284.81L559.05,282.4L557.28,284.84L556.73,282.74L558.25,279.98L554.44,278.96L551.31,276.45L550.8,273.41L552.44,271.31L551.84,268.35L546.92,264.82L545.74,259.01L547.36,257.34L552.47,255.72L557.54,255.72L558.05,253.72L554.79,250.3L554.8,250.29L556.84,249.04L556.89,245.93L554.38,244.95L555.43,238.5L556.5,235.85L558.48,235.34L560.98,237.43L563.82,237.6L564.98,236.01L567.33,237.69L572.22,237.65L571.66,246.11L574.34,254.23L578.19,253.1L581.24,254.63L581.51,252.08L583.87,251.63L585.29,247.52L583.29,246.22L582.91,241.52L587.26,239.24L591.2,241.44L592.87,243.86L594.33,251.54L594.14,254.25L589.05,261.84L590.68,266.7L595.07,268.16L596.42,265.76L600.55,262.15L600.55,260.77L603.15,258.3L605.88,259.66L610.87,258.27L613.43,261.26L616.41,262.92L615.52,264.04L607.13,276.79Z" class="land" id="LV-059" title="Madonas novads"/>
    <path d="M508.72,130.41L509.88,132.62L508.46,137.55L511.19,142.24L510.12,144.29L511.33,146.38L513.89,147.48L515.52,152.24L517.91,153.88L517.84,159.25L516.84,160.19L513.89,158.07L511.74,154.74L509.56,155.02L510.29,159.81L505.13,158.55L503.09,160.42L496.88,157.85L495.29,149.53L493.46,148.34L493.33,140.51L500.17,136.24L503.45,136.01L507.62,130.36Z" class="land" id="LV-060" title="Mazsalacas novads"/>
    <path d="M492.45,247.93L496.87,244.68L495.83,241.99L496.87,238.36L501.99,237.26L502.12,239.81L504.94,240.84L507.1,243.82L510.66,245.43L511.55,249.41L511.07,251.41L504.42,251.35L501.54,252.98L494.9,253.8L493.26,252.77L490.99,253.54L492.43,250.56Z" class="land" id="LV-061" title="Mālpils novads"/>
    <path d="M448.32,259.06L444.9,261.89L442.82,261L436.25,263.78L434.78,257.99L438.52,255.84L441.43,252.61L445.9,254.37L448.85,256.64Z" class="land" id="LV-062" title="Mārupes novads"/>
    <path d="M385.96,203.91L386.59,203.02L388.64,205.55L393.53,206.8L394.77,212.06L392.35,214.03L393.26,219.18L391.37,220.79L388.51,218.61L389.51,215.07L387.4,213.23L384.19,214.4L381.58,211.84L380.42,208.73L384.68,206.74Z" class="land" id="LV-063" title="Mērsraga novads"/>
    <path d="M543.42,148.22L543.38,150.82L541.86,153.95L539.64,154.08L536.13,151.29L533.75,151.56L530.72,154.28L535.19,158.69L533.87,161.81L529.92,161.43L529.95,158.14L528.21,156.91L525.9,151.92L518.65,145.39L519.36,142.86L522.05,138.77L523.38,142.03L527.09,142.08L527.56,139.36L529.15,138.47L533.78,140.88L536.77,140.58L537.08,143.81L539.71,145L540.82,146.93Z" class="land" id="LV-064" title="Naukšēnu novads"/>
    <path d="M520.47,308.93L520.33,313.67L521.7,319.07L520.78,321.49L525.09,324.78L526.37,328.02L525.59,329.57L527.13,334.98L524.13,335.88L521.52,336.84L519.43,335.39L516.69,331.87L514.76,333.68L511.96,333.68L507.52,331.58L506.29,324.16L501.69,319.32L501.38,313.84L499.76,312.64L496.48,304.83L499.11,299.69L504.47,298.55L505.98,302.21L507.27,302.87L508.86,308.11L512.29,307.62Z" class="land" id="LV-065" title="Neretas novads"/>
    <path d="M283.69,314.92L280.61,314.67L280.99,320.5L279.88,324.56L278,328.39L275.84,328.17L275.95,333.89L273.9,334.39L273.34,328.33L271.96,324L268.72,324.54L268.78,320.08L267.99,313.09L269.75,305.89L269.81,302.39L273.34,300.45L277.62,299.64L278.12,306.05L280.12,307.59L283.11,308.05Z" class="land" id="LV-066" title="Nīcas novads"/>
    <path d="M511.07,251.41L517.05,253.74L521.97,248.27L523.76,248.79L524.46,252.3L526,253.45L529.66,249.87L530.86,246.92L531.42,246.78L533.31,249.56L534.42,253.53L532.68,257.12L533.71,259.88L531.41,260.29L532.55,265.18L530.96,268.65L526.22,271.73L522.01,271.15L519.76,272.15L518.18,274.43L520.32,275.37L519.54,278.35L515.73,276.9L514.11,277.91L508.79,273.91L505.43,266.98L503.94,267.43L498.77,265.87L498.74,265.7L492.37,262.58L492.09,265.84L490.05,265.7L490.57,269.52L488.38,272.13L485.68,272.61L481.9,270.52L479.27,266.08L477.46,265.24L479.34,263.83L482.19,264.74L484.19,261.75L486.35,262.32L489.29,261.02L486.69,257.04L486.83,256.24L490.99,253.54L493.26,252.77L494.9,253.8L501.54,252.98L504.42,251.35Z" class="land" id="LV-067" title="Ogres novads"/>
    <path d="M448.32,259.06L450.11,259.06L450.11,261.28L452.63,265.31L450.08,270.33L447.09,270.14L444.9,271.8L444.49,274.96L440.68,275.08L437.96,273.23L435.09,273.85L432.9,275.41L430.26,273.14L431.14,266.67L432.74,265.08L434.98,266.74L436.25,263.78L442.82,261L444.9,261.89ZM444.39,275.39L454.39,274.96L457.84,275.86L459.26,276.9L459.11,278.57L455.67,279.37L454.14,281.96L450.87,279.74L447.13,278.89L445,278.21L444.37,275.47Z" class="land" id="LV-068" title="Olaines novads"/>
    <path d="M431.96,283.92L432.95,282.37L432.4,279.26L428.73,278.68L428.8,278.64L426.53,276.87L427.69,274.09L430.26,273.14L432.9,275.41L435.09,273.85L437.96,273.23L440.68,275.08L444.49,274.96L444.39,275.37L444.37,275.47L445,278.21L447.13,278.89L448.72,287.36L447.23,290.65L451.19,290.37L449.34,294.41L447.21,298.55L443.54,295.53L442.54,290.86L440.32,286.81L437.16,286.48L434.62,284.59Z" class="land" id="LV-069" title="Ozolnieku novads"/>
    <path d="M506.7,192.77L510.92,194.39L510.75,197.27L512.91,198.83L514.22,202.36L517.15,201.97L520.04,204.67L521.34,202.91L525.15,205.07L523.87,207.63L518.85,206.7L516.98,207.04L516.35,209.4L516.07,210.13L515.5,214.3L514.34,216.59L509.29,216.38L507.88,217.61L506.08,218.64L499.22,219.15L500.06,216.18L496.97,213.03L493.78,205.18L493.28,203.33L497.73,200.77L502.78,196.5L503.47,194.36L505.77,194.97Z" class="land" id="LV-070" title="Pārgaujas novads"/>
    <path d="M297.5,258.87L296.08,260.58L295.52,263.8L289.35,264.88L287.42,267.27L287.86,271.67L287.29,273.51L285.42,273.08L284.05,275.01L286.42,278.46L286.42,280.65L284.14,283.1L281.23,283.85L278,280.19L276.75,282.11L276.87,285.78L273.96,286.02L272,285.05L273.17,278.26L273.24,263.54L276.91,259.97L284.22,254.55L286.37,251.31L288.92,248.95L292.84,250.12L293.17,251.81L293.2,254.01L298.6,256.15Z" class="land" id="LV-071" title="Pāvilostas novads"/>
    <path d="M532.26,287.7L533.74,287.75L534.9,283.37L538.1,279.8L537.11,277.17L540.02,276.51L540.02,273.3L543.72,271.2L546.11,269.67L546.92,264.82L551.84,268.35L552.44,271.31L550.8,273.41L551.31,276.45L554.44,278.96L558.25,279.98L556.73,282.74L557.28,284.84L551.97,287.52L548.71,288.06L547.23,287.32L545.35,287.27L540.1,290.31L535.11,291.35L531.88,290.24Z" class="land" id="LV-072" title="Pļaviņu novads"/>
    <path d="M599.38,338.18L596.91,336.27L601.02,333.32L600.85,328.99L601.9,325.99L599.77,322.16L597.03,322.08L594.28,317.21L588.91,314.44L591.21,310.49L593.73,312.55L595.31,309.96L595.84,306.33L598.19,303.88L603.09,307.16L606.2,310.88L603.23,311.52L599.9,314.62L599.57,316.97L603.57,318.95L604.56,320.69L607.72,322.16L609.11,324.75L609.58,328.15L611.21,328.83L610.91,333.82L613.15,336.18L613.17,337.88L611.03,340.04L609.14,338.63L606.52,340.9L602.47,341.29L601.71,338.57Z" class="land" id="LV-073" title="Preiļu novads"/>
    <path d="M298.47,321.44L297.28,319.74L292.63,317.26L294.62,313.96L295.54,308.92L294.7,305.88L292.55,302.89L292.67,300.34L290.17,299.55L290.25,296.64L293.04,296.76L293.45,293.18L299.9,297.51L300.48,291.89L303.56,292.26L307.05,293.7L307.92,292.03L311.52,293.24L311.88,297.46L313.17,300.92L310.42,301.96L309.72,303.59L311.13,308.33L312.55,310.49L312.34,313.37L313.69,316.88L311.95,319.14L309.09,319.36L306.84,318.09L302.66,318.86L299.97,321.62Z" class="land" id="LV-074" title="Priekules novads"/>
    <path d="M538.2,217.07L538.07,219.07L535.36,221.91L533.6,222.99L531.28,221.81L531.87,217.85L530.06,215.39L526.19,213.33L521.93,214.3L521.09,211.04L516.3,209.56L516.35,209.4L516.98,207.04L518.85,206.7L523.87,207.63L525.15,205.07L526.43,201.91L526.22,198.69L529.52,199.09L532.22,197.31L533.28,199.89L537.59,195.84L541.28,196.31L541.71,198.54L540.06,200.17L539.47,202.85L537.25,204.67L533.85,205.91L532.87,208.19L534.34,209.6L536.01,213.83Z" class="land" id="LV-075" title="Priekuļu novads"/>
    <path d="M541.71,198.54L544.38,203.02L543.18,203.99L544.4,208.44L547.09,210.18L544.77,216.18L545.29,216.79L545.89,216.89L540.63,216.37L538.2,217.07L536.01,213.83L534.34,209.6L532.87,208.19L533.85,205.91L537.25,204.67L539.47,202.85L540.06,200.17ZM546.85,217.05L547.32,216.03L558.18,215.77L561.87,214.88L564.15,217.5L561.5,219.2L561.71,223.06L557.37,225.86L552.59,225.95L551.06,223.23L547.76,223.9L546.19,222.2Z" class="land" id="LV-076" title="Raunas novads"/>
    <path d="M659.29,327.44L655.28,327.82L652.76,327.23L649.02,328.48L646.83,327.93L645.06,331.76L642.98,330.71L639.6,330.51L638.3,331.37L634.34,330.91L631.32,331.33L629.63,330.5L626.58,333.06L622.35,333.01L621.47,329.17L619.39,326.3L620.89,324.68L616.73,320.98L616.3,318.1L619.32,317.17L617,312.34L613.44,308.87L614.71,305.41L616.75,303.87L617.91,305.27L620.2,304.2L622.52,304.82L624.11,301.94L622.42,300.51L620.86,294.82L621.41,291.18L620.13,289.58L617.32,289.23L613.06,281.87L610.64,282.11L609.7,280.55L606.42,280.7L606.12,280.45L607.13,276.79L615.52,264.04L617.51,266.19L621.51,265.99L624.56,266.69L629.02,266.36L630.16,268.62L635.37,268.4L637.78,269.58L640.1,269.34L640.62,269.23L642.21,270.14L648.14,269.62L649.94,274.34L648.59,275.35L648.04,279.67L646.57,280.99L654.21,285.48L653.85,287.94L652.22,289.05L652.64,291.93L653.99,292.61L653.9,295.32L649.12,295.6L647.84,299.72L649.25,303.31L651.71,303.25L653.44,306.42L656.04,309.09L657,312.3L660.55,313.09L660.47,317.72L662.06,320.14L659.93,323.82L661.04,326.07ZM641.36,295.72L639.86,295.72L638.59,296.67L638.03,301.39L639.53,301.61L642.25,299.06Z" class="land" id="LV-077" title="Rēzeknes novads"/>
    <path d="M616.75,303.87L614.71,305.41L613.44,308.87L617,312.34L619.32,317.17L616.3,318.1L616.73,320.98L620.89,324.68L619.39,326.3L621.47,329.17L622.35,333.01L626.58,333.06L626.51,334.57L619.95,334.43L616.43,336.21L613.39,338.93L613.17,337.88L613.15,336.18L610.91,333.82L611.21,328.83L609.58,328.15L609.11,324.75L607.72,322.16L604.56,320.69L603.57,318.95L599.57,316.97L599.9,314.62L603.23,311.52L606.2,310.88L603.09,307.16L598.19,303.88L595.84,306.33L594.28,305.66L594.28,300.78L594.89,300.76L597.71,295.21L604.56,294.53L604.93,293L609.06,295.19L608.28,299.33L610.65,299.33L611.21,301.15L616.99,301.81Z" class="land" id="LV-078" title="Riebiņu novads"/>
    <path d="M386.59,203.02L385.96,203.91L381.86,201.91L382.08,204.79L379.03,205.74L375.54,202.4L374.38,199.57L368.56,194.96L366.17,191.24L363.65,191.08L362.33,184.75L363.27,182.3L360.17,178.93L359.28,176.76L359.83,173.32L361.52,172.84L363.03,179.33L365.75,183.87L368.6,186.91L377.37,193.18L380.03,197.25L383.1,200.73Z" class="land" id="LV-079" title="Rojas novads"/>
    <path d="M478.6,239.23L481.82,239.31L483.24,244.2L486.08,246.11L490.2,245.97L492.45,247.93L492.43,250.56L490.99,253.54L486.83,256.24L486.79,256.48L483.2,257.25L478.59,257.25L477.83,256.22L473.96,256.84L470.92,256.08L470.01,254.32L469.4,252.4L466.57,252.77L465.87,250.02L468.04,248.39L467.97,246.14L474.34,245.58L475.65,243.74L474.75,240.72L476.24,238.85Z" class="land" id="LV-080" title="Ropažu novads"/>
    <path d="M292.63,317.26L297.28,319.74L298.47,321.44L296.22,325.91L288.97,329.03L285.28,334.31L283.26,334.86L283.48,339.75L281.53,343.77L279.03,342.83L273.51,344.55L271.54,336.93L268.8,329.6L268.72,324.54L271.96,324L273.34,328.33L273.9,334.39L275.95,333.89L275.84,328.17L278,328.39L279.88,324.56L280.99,320.5L280.61,314.67L283.69,314.92L285.35,317.47Z" class="land" id="LV-081" title="Rucavas novads"/>
    <path d="M619.13,259.53L617.91,258.09L617.32,254.71L613.85,252.79L614.88,250.36L613.59,248.45L611.38,248L611.36,243.65L615.94,241.24L619.33,234.99L625.97,234.99L625.55,237.6L633.11,240.66L638.74,241.19L637.22,247.1L634,248.27L634.64,249.83L638.52,250.67L638.91,254.14L636.01,255.3L631.38,259.02L630.64,261.41L627.87,261.94L626.76,260.52L623.21,259.57Z" class="land" id="LV-082" title="Rugāju novads"/>
    <path d="M445.52,317.3L440.47,317.32L436.97,316.37L436.76,310.85L435.78,309.71L437.44,301.95L440.33,301.54L442.11,299.08L447.21,298.55L448.3,303.55L447.36,305.39L451.08,308.94L453.79,309.39L454.01,311.72L449.41,311.61L447.42,315.84Z" class="land" id="LV-083" title="Rundāles novads"/>
    <path d="M529.15,138.47L527.56,139.36L527.09,142.08L523.38,142.03L522.05,138.77L519.36,142.86L518.65,145.39L525.9,151.92L528.21,156.91L529.95,158.14L529.92,161.43L524.35,161.36L520.29,162.02L517.84,159.25L517.91,153.88L515.52,152.24L513.89,147.48L511.33,146.38L510.12,144.29L511.19,142.24L508.46,137.55L509.88,132.62L508.72,130.41L510.69,128.79L513.99,129.27L515.34,130.69L516.03,135.11L518.06,138.17L520.53,138.09L520.74,133.98L518.34,130.57L520.1,128.5L522.55,131.09L524.25,134.22L526.87,134.35L529.33,136.02Z" class="land" id="LV-084" title="Rūjienas novads"/>
    <path d="M535.11,291.35L540.1,290.31L545.35,287.27L547.23,287.32L545.9,292.09L547.15,295.56L551.55,296.63L551,300.65L551.1,301.34L550.06,304.47L552.48,308.98L549.16,314.02L545.77,314.12L545.26,312.49L542.52,312.49L541.3,309.78L539.47,309.86L538.16,306.12L537.79,302.6L537.77,301.17L534.94,298.01L535.95,295.34L538.44,293.41Z" class="land" id="LV-085" title="Salas novads"/>
    <path d="M483.61,164.26L480.42,166.41L481.22,169.78L477.72,170.34L476.92,173.39L470.16,174.47L470.16,185.66L474.24,186.11L476.43,188.4L476.63,194.4L478.57,195.58L477.61,198.12L475.53,198.18L473.62,201.9L467.9,203.18L467.04,197.79L466.82,191.09L465.78,187.89L465.9,183.64L467.2,179.67L465.93,173.46L464.67,170.7L464.95,160.9L464.33,155.51L465.21,151.41L468.32,151.82L471.48,150.97L470.67,147.61L471.6,146.01L474.41,145.34L475.12,143.64L478.26,142.49L479.58,148.47L480.85,149.96L478.97,152.19L481.02,154.63L481.41,157.74Z" class="land" id="LV-086" title="Salacgrīvas novads"/>
    <path d="M470.01,254.32L470.92,256.08L473.96,256.84L470.39,261.59L470.5,262.86L468.24,263.47L463.29,262.47L459.8,263.64L455.97,260.56L456.44,259.14L460.42,259.48L459.47,254.85L461.67,254.15L466.33,254.9Z" class="land" id="LV-087" title="Salaspils novads"/>
    <path d="M356.83,261.49L354.62,266.69L354.17,270.76L355.43,274.03L357.94,277.25L357.4,282.78L358.94,284.74L360.79,284.66L360.54,288.78L364.24,287.46L364.78,285.26L368.73,287.3L371.08,292.28L371.46,294.82L370.21,297.07L370.41,299.52L369.12,301.23L371.23,303.47L369.54,305.68L369.96,307.23L373.99,307.61L376.18,309.34L381.77,310.02L382.55,311.11L378.11,313.45L370.52,312.97L367.77,315.07L363.94,311.78L356.75,310.27L352.95,308.89L348.5,310.54L346.35,309.06L342.26,309.71L340.15,307.4L337.72,307.86L335.44,306.55L332.75,307.56L329.05,307.41L327.11,310.32L325.1,307.58L328.68,304.58L326.43,303.52L325.07,300.24L326.17,298.58L329.13,298.19L329.67,295.87L328.79,293.32L335.69,291.96L334.36,287.22L335.04,283.99L333.79,281.59L334.41,279.76L337.73,278.14L339.11,274.04L337.94,267.79L340.38,268.15L342.78,264.21L345.86,263.94L348.69,261L347.32,258.49L343.69,258.12L345.55,253.27L348.26,254.19L348.75,256.85L353.01,257.99L354.29,254.73L355.99,253.73L359.31,254.32L357.81,256.46L358.14,259.5Z" class="land" id="LV-088" title="Saldus novads"/>
    <path d="M468.15,208.51L470.71,214.43L472.79,216.51L472.75,219.98L470.15,221.13L466.9,225.86L465.1,225.74L464.49,225.23L467.55,220.8L468.68,215.77Z" class="land" id="LV-089" title="Saulkrastu novads"/>
    <path d="M470.71,214.43L476.22,211.93L477.96,212.17L478.18,215.25L481.11,217.96L481.7,221.07L484.28,222.38L480.96,224.02L480.96,226.76L484.15,227.32L483.69,232.01L478.19,230.76L477.11,232.94L474.21,234.02L471.94,226.71L466.9,225.86L470.15,221.13L472.75,219.98L472.79,216.51Z" class="land" id="LV-090" title="Sējas novads"/>
    <path d="M497.32,221.94L499.85,223.23L501.65,226.2L501.7,230.84L503.44,232.52L507.34,232.11L508.22,233.06L511.25,237.06L509.17,238.52L510.66,241.48L510.66,245.43L507.1,243.82L504.94,240.84L502.12,239.81L501.99,237.26L496.87,238.36L495.83,241.99L496.87,244.68L492.45,247.93L490.2,245.97L486.08,246.11L483.24,244.2L481.82,239.31L485.05,239.81L489.54,237.43L490.66,231.48L492.52,226.81L496.55,225.24L497.31,221.96Z" class="land" id="LV-091" title="Siguldas novads"/>
    <path d="M510.67,286.14L508.2,285.6L506,287.61L505.39,287.7L505.4,285.03L503.76,284.23L504.32,278.92L506.92,277.77L505.53,274.16L508.79,273.91L514.11,277.91L513.97,283.2L511,284.49Z" class="land" id="LV-092" title="Skrīveru novads"/>
    <path d="M316.26,291.68L314.96,287.21L318.62,284.81L318.08,279.44L323.31,275.61L326.27,274.84L324.55,268.69L325.61,266.31L328.43,264.3L333.5,264.58L334.61,266.74L337.94,267.79L339.11,274.04L337.73,278.14L334.41,279.76L333.79,281.59L335.04,283.99L334.36,287.22L335.69,291.96L328.79,293.32L329.67,295.87L329.13,298.19L326.17,298.58L323.09,298.34L322.58,296.3L319.13,296.72Z" class="land" id="LV-093" title="Skrundas novads"/>
    <path d="M557.29,188.8L560.99,186.36L567.47,185.94L570.09,187.74L572.46,186.86L574.37,190.82L578.74,189.69L579.36,191.73L579.56,197.47L580.27,200.54L578.14,204.01L577.31,206.9L577.35,210.62L575.99,213.35L576.64,215.98L569.32,216.93L566.17,215.76L564.15,217.5L561.87,214.88L558.18,215.77L547.32,216.03L546.85,217.05L545.29,216.79L544.77,216.18L547.09,210.18L544.4,208.44L543.18,203.99L544.38,203.02L541.71,198.54L541.28,196.31L543.46,193.67L548.5,193.06L555.54,193.52L557.87,192.91Z" class="land" id="LV-094" title="Smiltenes novads"/>
    <path d="M465.87,250.02L466.57,252.77L469.4,252.4L470.01,254.32L466.33,254.9L461.67,254.15L459.47,254.85L460.42,259.48L458.26,256.77L458.26,252.9L463.45,249.28Z" class="land" id="LV-095" title="Stopiņu novads"/>
    <path d="M548.5,193.06L548.83,191.09L545.9,188.51L547.89,185.45L542.68,179.71L537,180.72L532.9,178.98L533.66,175.4L538.62,174.96L538.2,172.12L539.55,169.59L542.67,169.59L543.5,167.61L545.04,168.08L550.55,165.72L550.67,169.5L552.77,171.97L560,173.95L556.2,185L554.05,187.47L554.93,189.67L557.29,188.8L557.87,192.91L555.54,193.52Z" class="land" id="LV-096" title="Strenču novads"/>
    <path d="M391.37,220.79L388.89,224.48L385.78,225.29L383.3,229.15L382.33,232.04L376.83,230.85L369.28,235.14L365.15,235.79L364.99,238.76L366.02,242.56L365.35,244.56L360.86,243.61L360.34,245.61L357.44,244.32L356.17,243.89L350.48,244.85L349.07,237.41L348.91,234.01L343.88,232.26L342.48,229.82L342.71,227.5L340.26,225.91L338.57,224.9L341.4,222.47L341.84,219.58L343.67,217.45L346.09,217.24L344.22,205.15L342.43,202.41L342.16,200.47L345.15,199.02L347.59,200.29L348.09,202.85L351.74,200.79L355.01,201.02L356.07,196.35L357.73,195.24L358.56,191.69L360.78,192.69L363.65,191.08L366.17,191.24L368.56,194.96L374.38,199.57L375.54,202.4L379.03,205.74L382.08,204.79L381.86,201.91L385.96,203.91L384.68,206.74L380.42,208.73L381.58,211.84L384.19,214.4L387.4,213.23L389.51,215.07L388.51,218.61Z" class="land" id="LV-097" title="Talsu novads"/>
    <path d="M410.4,300.11L411.96,306.95L413.88,309.4L411.88,311.62L409.07,312.34L404.56,311.74L402.74,313L396.98,313.15L395.5,310.31L393.43,308.6L395.5,305.68L395.21,305.2L396.49,303.69L399.85,302.73L403.34,304.03L402.68,299.32L408.29,293.94Z" class="land" id="LV-098" title="Tērvetes novads"/>
    <path d="M413.92,252.72L414.81,253.49L415.58,257.05L413.69,258.49L414.91,265.85L412.75,267.65L408.99,268.21L408.45,266.68L404.46,270.49L406.6,272.59L402.64,276.9L397.99,275.42L395.8,278.7L393.36,277.48L391,273.64L389.31,268.47L387.64,267.04L384.25,267.77L381.76,266.94L379.78,264.61L382.53,261.52L381.03,254.27L378.16,254.27L376.05,251.81L375.29,248.92L376.22,245.28L378.19,245.14L378.57,242.67L376.67,241.57L377.54,237.02L379.55,236.78L381.55,234.73L382.33,232.04L383.3,229.15L385.78,225.29L388.89,224.48L391.37,220.79L393.26,219.18L393.58,223.23L392.74,228.01L390.28,229.06L393.91,232.48L395.13,231.96L398.29,234.48L399.87,238.29L398.73,242.11L396.9,244.77L394.46,253.85L398.34,252.8L400.61,254.13L402.91,253.74L407.87,254.71Z" class="land" id="LV-099" title="Tukuma novads"/>
    <path d="M313.69,316.88L312.34,313.37L312.55,310.49L311.13,308.33L309.72,303.59L310.42,301.96L313.17,300.92L311.88,297.46L311.52,293.24L316.26,291.68L319.13,296.72L322.58,296.3L323.09,298.34L326.17,298.58L325.07,300.24L326.43,303.52L328.68,304.58L325.1,307.58L327.11,310.32L323.41,313.38L320.53,314.23L318.57,313.02Z" class="land" id="LV-100" title="Vaiņodes novads"/>
    <path d="M582.58,183.46L580.78,186.65L581.44,191.23L579.36,191.73L578.74,189.69L574.37,190.82L572.46,186.86L570.09,187.74L567.47,185.94L560.99,186.36L557.29,188.8L554.93,189.67L554.05,187.47L556.2,185L560,173.95L552.77,171.97L550.67,169.5L550.55,165.72L545.04,168.08L543.5,167.61L542.84,166.5L537.2,162.88L533.87,161.81L535.19,158.69L530.72,154.28L533.75,151.56L536.13,151.29L539.64,154.08L541.86,153.95L543.38,150.82L543.42,148.22L545.99,146.13L548.39,147.34L550.69,152.57L559.12,154.59L561.37,152.99L564.57,154.31L562.84,162.31L569.22,165.1L569.75,167.06L573.05,169.03L571.91,171.86L575.37,175.03L575.7,179.31L577.08,180.76Z" class="land" id="LV-101" title="Valkas novads"/>
    <path d="M583.4,284.01L583.51,281.07L591.2,281.74L598.44,277.4L602.34,277.37L602.34,279.15L606.12,280.45L606.42,280.7L607.14,283.88L606.12,285.93L607.77,288.37L604.21,289.39L603.47,291.23L604.93,293L604.56,294.53L597.71,295.21L595.89,291.34L596,289.16L589.62,289.14Z" class="land" id="LV-102" title="Varakļānu novads"/>
    <path d="M580.97,332.76L579.92,330.75L578.75,320.91L582.69,322.67L582.85,318.83L584.13,318.14L586.01,322.67L590.5,322.67L595.01,324.22L597.03,322.08L599.77,322.16L601.9,325.99L600.85,328.99L601.02,333.32L596.91,336.27L599.38,338.18L597.63,338.91L593.56,335.79L593.37,338.82L590.76,338.23L590.49,334.47L588.09,331.95L585.97,333.64L583.84,331.22Z" class="land" id="LV-103" title="Vārkavas novads"/>
    <path d="M530.86,246.92L531.89,244.46L538.7,239.07L538.73,236.15L536.79,233.05L533.59,232.43L535.71,229.65L536.75,226.03L535.36,221.91L538.07,219.07L538.2,217.07L540.63,216.37L545.89,216.89L546.85,217.05L546.19,222.2L547.76,223.9L547.14,227.11L548.35,228.57L548.19,231.28L551.84,232.23L554.01,235.44L556.5,235.85L555.43,238.5L554.38,244.95L556.89,245.93L556.84,249.04L554.8,250.29L554.75,250.36L552.22,250.61L550.93,247.91L544.05,247.83L540.09,250.62L538.13,248.05L531.42,246.78Z" class="land" id="LV-104" title="Vecpiebalgas novads"/>
    <path d="M475.5,276.27L475.72,277.13L481.56,276.78L481.88,280.74L478.82,280.89L479.32,285.81L480.67,288.41L483.66,288.42L485.28,290.21L483.3,291.95L484.04,294.23L487.46,294.47L493.67,291.25L501.19,290.74L501.67,292.78L504.24,294.48L504.47,298.55L499.11,299.69L496.48,304.83L494.8,306.32L494.95,308.47L485.92,309.92L485.06,312.61L481.5,312.51L481.33,315.38L478.34,318.18L474.75,318.29L472.15,315.73L474.64,312.7L471.4,310.98L475.47,309.04L476.11,306.29L475.22,303L473.28,299.65L471.98,300.79L469.9,298.68L467.87,295.14L467.87,292.64L463.88,291.53L463.6,286.09L466.98,286.09L466.16,282.1L466.68,280.7L470.1,279.89L473.54,276.35Z" class="land" id="LV-105" title="Vecumnieku novads"/>
    <path d="M300.11,205.1L302.05,207.87L305.59,204.11L308.91,202.7L307.91,196.56L306.36,195.1L308.37,191.43L309.84,185.99L311.55,184.15L318.65,181.65L326.31,181.25L329.75,180.34L339.55,175.26L343.17,180.8L342.32,183.02L343.84,186.3L344.5,191.63L338.28,195.11L338.28,197.85L332.62,200.65L336.06,202.99L340.06,203.57L342.43,202.41L344.22,205.15L346.09,217.24L343.67,217.45L341.84,219.58L341.4,222.47L338.57,224.9L340.26,225.91L338.56,233.73L331.97,235.34L329.33,234.38L322.57,235.96L319.07,235L317.95,237.52L315.32,236.61L310.89,232.83L304.54,236.9L301.71,238.01L299.31,237.67L296.92,243.1L297.47,249.1L296.48,251.81L293.17,251.81L292.84,250.12L288.92,248.95L291.44,246.02L293.9,239.11L294,233.66L293.45,227.27L293.95,223.17L293.73,217.06L294.71,213.57L298.53,208.19Z" class="land" id="LV-106" title="Ventspils novads"/>
    <path d="M539.53,337.78L536.16,337.28L535.49,335.11L533.01,335.21L530.94,336.93L526.69,335.46L524.13,335.88L527.13,334.98L525.59,329.57L526.37,328.02L525.09,324.78L520.78,321.49L521.7,319.07L520.33,313.67L520.47,308.93L521.91,307.75L525.63,309.09L530.29,308.72L533.19,304.66L535.27,305.33L537.79,302.6L538.16,306.12L539.47,309.86L541.3,309.78L542.52,312.49L545.26,312.49L545.77,314.12L545.29,320.24L541.86,321.46L542.83,326.98L542.48,330.06L540.03,334.37Z" class="land" id="LV-107" title="Viesītes novads"/>
    <path d="M661.36,245.05L659.08,246.14L657.04,245.61L656.46,243.89L651.72,242.97L650.56,239.39L643.78,232.02L645.03,227.82L645.24,224.22L647.98,220.61L650.81,219.56L651.53,217.85L653.81,216.11L654.01,213.35L656.8,212.89L659.99,210.54L659.91,206.36L665.01,209.14L665.37,211.61L667.96,211.42L670.19,214.74L670.27,219.36L667.79,225.52L668.16,228.14L667.24,230.58L663.29,232.56L662.73,235L663.23,240.4Z" class="land" id="LV-108" title="Viļakas novads"/>
    <path d="M616.75,303.87L616.99,301.81L611.21,301.15L610.65,299.33L608.28,299.33L609.06,295.19L604.93,293L603.47,291.23L604.21,289.39L607.77,288.37L606.12,285.93L607.14,283.88L606.42,280.7L609.7,280.55L610.64,282.11L613.06,281.87L617.32,289.23L620.13,289.58L621.41,291.18L620.86,294.82L622.42,300.51L624.11,301.94L622.52,304.82L620.2,304.2L617.91,305.27Z" class="land" id="LV-109" title="Viļānu novads"/>
    <path d="M683.22,330.6L685.61,325.76L683.33,322.81L679.52,319.66L676.82,321.46L674.43,321.85L674.81,324.14L671.06,324.59L669.72,321.05L675.84,314.82L679.45,313.4L677.96,309.44L681.04,308.77L683.08,311.03L685.54,309.68L688.39,310.15L687.55,312.32L689.07,314.05L689.97,318L692.01,323.08L688.76,327.85L689.7,328.85L688.22,332.87L685.9,333.76L681.66,337.83L680.76,336.53L683.94,331.9L683.12,330.79Z" class="land" id="LV-110" title="Zilupes novads"/>
  </g>
</svg>