<?xml version="1.0" encoding="UTF-8"?>
<svg xmlns="http://www.w3.org/2000/svg" width="343.65" height="261.94" viewBox="308.18 126.03 343.65 261.94" style="background-color:#000000">
  <!-- Created using SVG Map Generator: dojo.amcharts.com/svg-map-generator -->
  <style>
    .land { fill: #ffffff; stroke: #000000; stroke-width: 0.65; }
  </style>
  <g id="polygons">
    <path d="M471.85,329.67L472.36,329.57L473,330.37L474.21,329.94L474.19,329.37L476.68,329.23L478.63,329.55L478.62,330.28L480.53,329.78L480.24,327.86L480.53,327.31L484.32,327.67L486.43,326.49L486.76,325.82L486.52,325.08L485.6,324.85L486.13,323.89L486.29,322.98L486.84,321.76L487.84,321.29L489.98,320.89L491.05,321.36L491.77,322.27L492.03,323.16L492.51,323.21L493.33,322.31L494.35,322.49L497.26,322.33L497.72,320.56L501.13,320.13L501,321.76L501.63,322.42L502.1,323.97L504.35,324.5L505.74,324.04L507.41,324.41L509.25,324.13L509.82,323.15L509.52,323.83L509.69,326.12L510.23,326.18L510.49,327.87L508.95,328.61L509.44,329.56L510.64,329.29L511.38,330.33L511.38,331.41L510.28,332.58L510.26,333.38L511.51,333.83L512.13,334.31L514.67,334.41L515.24,333.95L517.2,333.8L517.19,334.73L518.17,334.81L519.33,334.28L519.54,333.39L521.03,332.32L521.55,331.72L522.84,332.18L523.25,331.6L524.09,331.51L525.72,333.13L526.93,333.46L526.9,334.87L526.48,335.12L526.54,336.55L528,336.77L529.05,336.28L531.98,335.93L532,336.4L534.43,336.44L534.27,335.58L534.77,334.99L535.54,335.21L536.02,334.82L537.86,334.59L538.79,333.88L539.67,333.77L540.61,333.16L541.9,333.37L542.68,332.71L543.46,332.79L544.45,332.38L544.8,333.8L543.92,334.13L544.36,336.35L543.06,336.67L543.21,337.86L539.14,338.65L539.29,339.77L538.27,340.06L538.6,341.7L539.2,342.38L538.71,343.53L539.48,346.2L536.63,346.39L536.04,346.93L536.09,347.51L536.85,348.25L535.5,348.38L534.85,349.87L533.74,350.28L533.13,350.13L532.21,350.59L532.41,352.07L531.15,352.02L530.61,352.68L530.02,352.41L529.51,353.17L529.58,354.18L529.31,355.29L531.16,355.9L532.18,356.64L532.72,356.6L532.69,358.35L533.48,359.31L533.92,360.87L533.05,361.19L533.8,362.49L531.9,364.02L530.42,364.46L530.87,365.61L532.11,366.49L533.18,368.47L533.5,369.9L533.31,371L535.04,372.1L535.73,371.67L536.2,372.32L534.18,372.68L534.57,374.41L533.59,374.59L533.53,375.56L532.89,375.95L531.69,375.59L531.38,375.98L530.26,376.11L528.28,377.97L528.44,378.72L526.9,378.89L525.59,378.84L525.82,377.16L526.35,375.94L526.54,374.62L526.33,373.88L525.71,373.48L524.78,373.64L523.9,374.76L523.33,374.86L521.75,374.45L520.7,375.58L520.57,376.19L518.48,377.15L515.87,379.38L514.98,380.9L514.3,381.65L513.38,382.2L512.4,383.5L512.23,384.36L510.96,385L510.17,384.45L508.03,385.14L505.64,384.68L504.9,385.01L503.95,384.65L503.29,383.54L502.73,383.55L501.73,381.74L500.94,381.25L500.97,380.51L500.42,380.13L499.39,380.87L498.15,380.39L498.35,379.59L497.62,378.41L497.13,378.82L495.01,379.09L494.19,379.98L492.69,379.65L492.09,380.34L491.82,381.42L491,381.5L488.65,382.08L486.02,382.59L484.6,382.67L484.41,381.34L483.96,380.17L483.44,379.69L480.82,378.91L480.88,379.78L480.49,380.6L479.28,381.16L477.92,380.04L476.74,380.01L475.61,381.2L474.61,381.81L474.55,382.67L475.34,383.32L475.51,384.4L474.49,385.26L473.23,385.32L473.48,384.36L472.67,383.48L472.63,382.96L471.39,382.64L469.38,381.41L466.85,382.21L466.24,381.89L463.47,382.69L461.87,381.08L461.2,380.86L459.3,380.98L456.51,377.64L456.2,375.67L457.73,374.47L458.18,372.86L458.64,372.6L458.86,369.19L458.28,367.93L458.28,366.87L457.6,365.78L457.35,364.58L456.83,364.18L456.97,362.7L456.46,360.66L455.79,360.22L455.84,359.63L455.03,359.18L454.9,358.44L452.94,358.22L452.57,357.04L451.8,356.32L451.29,354.58L450.41,353.2L449.52,353.09L449.05,352.67L448.42,351.42L447.88,350.91L447.08,350.79L447.35,349.49L447.77,348.55L446.53,346.35L448.43,345.35L448.07,343.66L448.46,342.54L449.78,341.43L449.68,340.51L451.35,339.98L451.76,339.56L453.75,339.83L454.7,339.52L454.83,338.95L453.79,338.05L454.05,336.69L454.87,336.29L456.67,334.86L458.1,335.03L458.09,329.79L459.16,329.76L459.46,329.43L461.45,328.85L463.48,327.3L464.5,325.48L465.61,324.85L466.54,325.36L467.06,326.18L467.17,327.37L467.87,328.57L469.7,327.78L470.34,328.69Z" class="land" id="LT-AL" title="Alytus"/>
    <path d="M410.08,228.57L411.39,227.44L412.1,227.96L414.58,224.92L415.48,225.96L417.02,226.01L418.19,225.78L419.46,225.8L419.81,228.12L418.63,228.96L419.09,229.83L419.77,230.32L420.1,229.34L422.5,229.9L423.85,228.32L424.66,227.76L426.58,227.64L427.56,227.1L428.77,227.26L430.27,226.09L430.81,225.25L431.31,226.06L432.18,225.6L432.9,226.01L433.61,225.47L433.07,224.51L432.73,222.38L434,222.25L433.97,219.64L435.53,219.32L435.76,220.76L439.34,220.33L440.89,219.61L441.7,218.93L441.92,221.51L442.37,222.94L443.17,222.9L443.27,223.53L444.38,222.64L444.93,222.66L447.51,221.14L448.19,221.67L449.2,221.83L450.35,222.76L451.57,224.41L451.57,225.48L452.49,225.42L454.72,226.46L455.33,227.45L456.34,226.5L456.25,225.46L455.85,224.54L457.53,224.43L459.31,223.68L459.89,224.5L460.6,224.6L461.22,225.23L460.73,226.65L460.79,228.04L461.12,228.65L462.85,228.67L464.02,228.46L465.06,228.92L466.44,228.84L466.74,227.89L466.27,227.54L467.87,226.56L468.59,225.14L471.01,224.44L470.94,223.73L475.76,221.73L475.69,221.36L477.39,220.69L477.99,220.95L479.94,219.45L481.31,221.32L480.33,221.7L480.7,222.86L482.21,224.62L483.57,225.52L483.63,224.88L484.99,224.71L485.79,225.19L488.34,228.18L489.4,228.31L489.28,229.46L488.73,230.78L489.17,231.22L491.75,231.8L492.42,230.73L493.5,230.81L493.7,231.63L494.24,232.17L495.04,231.81L495.85,230.72L498.06,230.83L498.37,228.5L500.69,229.46L500.79,230.92L503.56,231.95L504.04,230.74L505.56,231.5L506.26,232.22L506.9,231.91L507.7,232.03L509.13,232.92L509,234.68L510.73,236.16L511.82,236.23L511.7,238.57L510.46,239.08L510.33,240.47L509.48,240.99L509.61,242.76L509.13,242.93L508.65,246.89L510.51,247.06L510.98,248.16L510.95,249.3L510.18,252.01L510.08,252.86L511.87,253.1L513.05,253.58L514.37,253.79L515.34,254.22L513.98,256.01L514.6,257L514.49,258.16L515.05,258.93L515.28,260.33L516.21,260.65L516.85,260.44L517.51,260.8L517.21,261.54L516.38,262.02L517.47,263.27L517.47,264.24L518.32,264.96L519.7,265.17L519.71,266.78L520.26,267.44L520.94,268.9L521.56,268.93L522.53,270.29L522.48,271.2L521.93,272.68L522.27,273.24L520.06,273.56L520.19,275.21L518.66,275.77L518.59,276.73L517.91,277.41L518.88,278.14L519.49,279.11L520.49,279.25L521.77,279.08L522.4,280.36L523.54,281.28L524.28,281.3L525.13,281.86L525.66,282.95L525.69,283.61L527.74,283.23L529.2,283.32L530.16,284.67L531.96,285.41L532.74,286.21L532.68,287.63L531.69,288.28L531.41,287.77L529.54,288.09L529.28,288.6L530.03,294.07L529.62,293.74L527.9,294.68L527.4,294.59L525.51,294.98L524.23,295.64L523.09,296.58L522.83,297.67L522.95,298.72L522.37,299.58L523.02,300.36L523.17,301.37L522.37,301.52L522.48,303.03L521.98,303.32L521.65,304.53L522.1,305.08L522,305.99L521.22,306.34L520.14,306.19L519.51,305.04L518.31,304.92L517.52,307.24L515.21,306.14L513.53,306.49L512.33,308.34L512.64,309.96L512.41,310.18L513.28,312.73L513.12,313.53L513.79,315.46L513.3,316.04L512.43,316.08L511.05,317.3L510.44,317.4L510.74,318.48L510.45,319.25L510.61,320.07L510.28,320.96L509.82,323.15L509.25,324.13L507.41,324.41L505.74,324.04L504.35,324.5L502.1,323.97L501.63,322.42L501,321.76L501.13,320.13L497.72,320.56L497.26,322.33L494.35,322.49L493.33,322.31L492.51,323.21L492.03,323.16L491.77,322.27L491.05,321.36L489.98,320.89L487.84,321.29L486.84,321.76L486.29,322.98L486.13,323.89L485.6,324.85L486.52,325.08L486.76,325.82L486.43,326.49L484.32,327.67L480.53,327.31L480.24,327.86L480.53,329.78L478.62,330.28L478.63,329.55L476.68,329.23L474.19,329.37L474.21,329.94L473,330.37L472.36,329.57L471.85,329.67L473.61,327.32L473.85,326.02L472.8,325.03L471.88,323.81L471.74,322.26L471.37,321.39L470.16,321.93L468.87,322.24L468.12,320.46L467.75,320.51L466.71,318.01L468.16,317.44L468.64,317.04L467.18,314.6L465.52,314.75L465.55,313.96L464.78,314.08L464.62,313.45L467.18,312.48L466.21,311.9L466.18,311.14L467.33,310.34L467.06,308.7L466.46,307.57L465.22,305.83L466.85,304.46L465.47,302.19L465.31,301.5L465.77,300L463.87,299.32L464.86,298.18L464.88,297.47L465.83,296.54L463.44,294.14L464.05,293.25L463.34,292.46L464.59,290.58L459.85,287.19L459.56,286.78L457.28,287.66L456.21,287.51L455.89,286.23L455.72,283.65L451.04,281.29L451.5,280.65L452.16,280.77L453.51,279.09L454.53,278.52L457.93,277.96L458.65,277.61L459.01,276.95L461.05,276.4L462.18,275.54L462.16,273.13L461.79,272.69L460.34,272.1L458.84,271.87L457.27,271.92L455.23,271.05L453.15,269.3L452.19,269.11L453.31,268.08L455.13,265.22L455.51,265.14L456.08,263.92L456.27,261.84L456.11,260.21L457.71,255.84L454.82,254.98L454.68,254.35L452.88,254.93L452.27,254.53L451.3,254.94L450.18,254.28L450.38,253.24L450.11,251.95L449.75,251.8L447.68,252L446.17,252.71L444.96,252.78L442.63,252.13L442.41,252.44L439.46,252.5L439.85,251.36L439.53,248.98L439.05,249.41L437.78,249.1L437.17,249.92L434.79,250.22L433.91,249.56L432.98,249.81L432.14,250.76L428.94,250.75L428.71,250.2L430.04,248.4L428.92,247.46L427.24,246.94L427.81,244.26L425.56,244.91L425.21,244.04L424.57,244.15L424.09,244.97L422.73,245.45L422.77,246.44L421.8,246.35L420.52,245.02L419.83,244.84L419.81,243.69L418.9,243.69L417.84,244.17L416.68,243.63L417.12,241.67L417.83,241.27L417.61,240.63L417.74,239.38L416.69,237.66L414.66,238.2L414.19,237.05L413.22,237.15L412.99,235.84L413.67,235.27L413.58,233.55L412.81,233.49L412.48,234.11L411.12,234.38L410.61,233.22L410.26,231.11L409.62,230.62L410.85,229.82L410.96,229.15Z" class="land" id="LT-KU" title="Kaunas"/>
    <path d="M319.33,203.84L320.85,206.8L321.25,207.98L320.9,210.1L321.04,212.31L321.25,212.47L321.35,215.04L320.98,220.42L320.58,221.74L320.25,223.82L320.38,224.65L320.1,225.63L320.36,227.1L319.86,227.82L319.49,229.11L319.21,230.97L318.83,232.17L319.73,233.06L319.92,234.05L318.55,235.08L318.92,235.74L317.84,236.96L317.88,238.12L316.84,239.38L316.73,240.31L317.11,241.1L316.57,242.47L316.94,243.37L315.27,244.27L314.54,244.89L313.92,246.32L313.24,246.73L313.71,247.38L312.69,247.99L312.49,248.56L310.83,248.29L311.34,247.51L312.85,244.44L313.5,242.28L313.87,241.66L316.14,235.84L317.54,231.24L317.73,229.48L318.6,225.86L319.33,220.92L319.37,218.51L319.57,216.56L319.69,212.65L319.56,209.91L318.83,203.31ZM369.42,136.05L369.19,137.79L368.82,138.66L367.19,138.58L366.94,142.04L369.57,142.3L369.12,147.23L369.56,147.33L369.89,148.95L370.44,149.24L370.79,151L370.27,151.61L371.75,153.12L371.67,154.65L368.92,154.15L368.56,156.57L367.81,156.61L367.73,158.05L367.3,161.19L366.47,162.12L366.68,162.58L365.82,163.24L365.35,162.36L362.25,161.89L362.29,161.27L361.38,161.15L361,161.93L361.59,162.45L362.04,164.86L358.24,163.4L356.75,163.55L355.53,166.74L354.21,166.45L354.01,167.28L352.8,170.52L352.34,170.6L350.82,174.21L349.94,174.01L349.07,174.33L348.23,173.5L346.48,173.54L345.79,175.19L347.82,176.07L346.37,179.33L346.82,180.26L346.88,182.7L345.86,182.73L346.25,183.55L346.95,183.71L348.36,184.76L348.92,185.54L348.28,186.17L347.37,186.26L346.6,186.97L346.95,187.61L346.74,188.35L345.94,188.22L344.95,188.74L344.91,189.74L344.08,189.54L343.68,189.96L344.06,191.35L343.31,191.16L342.28,193.86L343.68,194.72L343.87,195.13L344.99,195.57L345.64,194.79L346.13,194.81L346,193.45L346.69,193.41L347.34,194.93L348.23,195.43L348.35,196.08L349.02,196.44L348.75,197.51L349.09,197.89L348.98,199.92L350.16,200.24L351.11,199.02L353.91,200.44L355.42,200.22L355.87,199.14L356.94,199.8L356.73,201.83L356.99,202.54L356.43,202.97L356.12,204.32L356.9,205.14L357.83,205.14L358.37,205.98L359.75,206.01L358.7,206.98L358.61,208.25L357.92,209.07L358.17,210.77L357.49,211.41L358.24,212.35L358.9,212.45L359.05,214.91L360.37,214.65L361.26,214.19L361.69,214.79L364.03,216.49L363.29,217.54L363.77,218.11L361.69,219.48L361.24,219.41L360.26,220.64L360.24,221.43L361.26,220.91L361.26,221.88L360.56,222.24L360.86,224.39L361.44,226.61L362.19,226.28L363.09,229.62L363.08,231.71L363.37,233.87L363.64,234.04L366.23,232.62L366.81,232.84L368.84,234.17L370.75,233.81L371.16,235L371.62,234.99L372.07,236.48L371.96,237.47L371.26,239.04L370.37,240.07L370.12,241.14L368.36,242.74L368.3,243.46L367.52,243.89L366.44,245.57L364.86,247.68L364.36,248.64L365.91,249.63L367.35,250.1L368.85,250.07L370.27,251.37L371.12,251.55L372.85,252.62L372.29,253.73L372.9,254.84L373.87,258.06L374.66,260.12L376.41,259.57L379.58,259.74L380.18,259.31L381.61,261.11L383.35,260.77L385.73,261.57L387.31,261.47L388.56,262.6L386.45,262.47L386.65,263.19L386.07,264.16L386.31,264.88L385.98,265.83L386.94,270.01L385.56,270.25L383.89,270.26L382.04,270.93L380.08,270.82L378.75,271.9L378.44,273.1L377.9,273.77L376.05,274L374.28,273.35L373.25,272.31L372.92,270.63L373.4,269.51L373.25,268.14L371.58,267.7L370.64,267.84L369.05,268.98L366.48,268.43L364.17,267.11L362.9,266.91L362.07,266.35L361.15,264.97L360.19,264.42L358.55,264.53L356.26,263.42L355.24,263.11L354.7,261.52L353.35,260.28L352.35,259.72L351.05,258.33L348.85,257.64L347.93,257.62L346.66,256.65L344.89,256.69L343.65,257.71L342.97,257.86L342.04,257.2L341.69,256.19L340.2,254.93L339.03,253.23L338.5,251.26L337.67,250.11L336.91,248.48L335.66,246.83L335.07,247.55L334.39,247.7L333.07,248.57L332.42,249.41L331.35,250.16L330.81,251L329.44,251.74L329.57,250.59L329.32,250.15L330.4,248.62L330.29,247.58L330.74,246.19L329.49,243.61L328.41,243.15L327.79,242.55L328.45,239.79L327.56,239.75L327.07,240.94L325.87,241.37L324.34,241.67L325.09,240.54L326.03,238.51L326.62,237.58L326.81,236.31L327.54,235.19L327.95,233.31L327.76,232.57L328.03,229.39L327.87,227.33L327.1,225.1L326.96,224.19L326,223.44L325.56,221.91L325.58,220.02L325.17,218.85L323.66,216.21L322.82,212.58L322.34,212.34L321.97,210.91L322.29,210.62L321.59,207.29L320.95,205.78L319.72,203.56L318.18,202.57L318.37,202.12L318.07,199.4L317.65,197.65L317.34,195.3L317.24,192.44L317.01,191.62L316.97,188.4L316.68,187.27L316.36,183.14L316.84,182.17L317.38,179.32L317.81,174.85L317.7,170.82L317.52,168.96L317.12,167.78L321.76,166.61L322.56,166.08L323.13,166.3L323.81,167.19L324.48,167.19L325.22,166.65L325.66,165.05L326.24,164.29L326.37,163.37L327.08,162.25L327.11,161.47L326.64,160.71L326.73,158.21L328.72,157.67L329.56,156.89L330.07,155.51L330.66,155.13L331.96,152.9L333.91,151.84L335.16,151.53L336.72,150.72L337.42,150.11L338.3,150.2L339.52,149.39L340.19,147.97L340.24,147.19L341.85,144.85L343.22,145.15L344.95,144.38L345.42,143.8L345.71,142.67L346.39,142.5L347.3,141.77L348.61,141.56L351.73,142.43L352.22,142.92L355.21,142.58L356.21,140.94L358.51,139.43L359.85,137.69L360.85,137.45L361.49,136.7L362.46,136.83L363.36,137.78L365.41,137.31L366.44,136.63L367.86,136.3L368.45,135.65Z" class="land" id="LT-KL" title="Klaipėda"/>
    <path d="M404.99,269.49L406.83,270.49L407.8,271.33L408.71,271.63L412.11,270.67L413.85,270.52L415.54,269.04L416.28,268.77L418.1,268.7L419.04,268.04L420.38,267.57L421.58,267.6L422.95,268.09L424.69,268.19L425.42,268L429.24,266.37L431.68,265.94L432.42,265.98L436.06,267.32L438.9,267.54L441.84,268.5L445.44,269.17L447.19,269.72L448.79,269.71L450.11,269.09L452.19,269.11L453.15,269.3L455.23,271.05L457.27,271.92L458.84,271.87L460.34,272.1L461.79,272.69L462.16,273.13L462.18,275.54L461.05,276.4L459.01,276.95L458.65,277.61L457.93,277.96L454.53,278.52L453.51,279.09L452.16,280.77L451.5,280.65L451.04,281.29L455.72,283.65L455.89,286.23L456.21,287.51L457.28,287.66L459.56,286.78L459.85,287.19L464.59,290.58L463.34,292.46L464.05,293.25L463.44,294.14L465.83,296.54L464.88,297.47L464.86,298.18L463.87,299.32L465.77,300L465.31,301.5L465.47,302.19L466.85,304.46L465.22,305.83L466.46,307.57L467.06,308.7L467.33,310.34L466.18,311.14L466.21,311.9L467.18,312.48L464.62,313.45L464.78,314.08L465.55,313.96L465.52,314.75L467.18,314.6L468.64,317.04L468.16,317.44L466.71,318.01L467.75,320.51L468.12,320.46L468.87,322.24L470.16,321.93L471.37,321.39L471.74,322.26L471.88,323.81L472.8,325.03L473.85,326.02L473.61,327.32L471.85,329.67L470.34,328.69L469.7,327.78L467.87,328.57L467.17,327.37L467.06,326.18L466.54,325.36L465.61,324.85L464.5,325.48L463.48,327.3L461.45,328.85L459.46,329.43L459.16,329.76L458.09,329.79L458.1,335.03L456.67,334.86L454.87,336.29L454.05,336.69L453.79,338.05L454.83,338.95L454.7,339.52L453.75,339.83L451.76,339.56L451.35,339.98L449.68,340.51L449.78,341.43L448.46,342.54L448.07,343.66L448.43,345.35L446.53,346.35L447.77,348.55L447.35,349.49L447.08,350.79L445.07,350.38L444.67,350.04L442.76,350.39L441.95,349.98L441.32,348.85L440.31,347.77L440.14,347.22L438.63,347.01L437.35,346.38L437.65,345.12L436.51,344.52L433.69,346.16L430.89,344.45L431.39,342.77L432.11,341.99L431.31,341.25L429.11,340.6L428.13,339.86L429.06,337.9L427.63,337.71L427.53,337.19L425.63,336.95L424.6,336.56L422.07,336.22L422.04,335.36L420.19,335.19L419.03,335.62L417.61,339.09L416.7,339.63L416.09,339.09L414.88,336.78L412.69,333.48L411.49,330.72L411.4,328.5L411.24,327.84L411.33,325.63L410.37,324.06L410.23,322.99L411,321.22L411.81,320.04L411.13,318.71L410.43,318.26L410.44,317.66L411.38,316.89L411.75,316.11L412.47,315.67L412.53,314.7L412.88,314.06L413.87,313.69L414.56,311.02L413.61,310.46L413.11,309.4L413.58,309.07L413.45,308.3L412.88,308.01L413.05,306.64L413.99,305.68L413.61,304.7L413.85,303.19L415,302.69L415.49,301.67L417.4,300.88L417.87,299.75L419.63,299.65L420.44,298.46L419.93,297.86L421.53,297.4L421.22,296.65L421.64,295.24L421.7,293.71L421.47,292.95L420.56,292.62L420.5,292.1L421.14,291.19L420.6,290.62L419.45,290.07L419.6,288.84L420.22,287.93L419.83,286.77L417.99,285.22L417.12,286.22L416.43,285.58L416.48,284.64L415.61,283.88L414.5,284.59L414.24,283.9L415.12,283.2L414.95,282.73L413.79,282.5L413.22,281.64L412.86,280.14L411.79,279.08L410.78,279.23L410.62,278.34L410.14,277.68L409.2,278.02L409.01,278.6L409.43,279.59L408.56,279.85L408.09,279.26L407.06,275.97L406.39,275.08L405.74,274.75L405.43,273.86L405.34,271.81Z" class="land" id="LT-MR" title="Marijampolė"/>
    <path d="M603.66,179.55L600.76,180.07L599.38,181.89L598.96,182.01L598.84,183.27L600,184.88L599.19,186.25L599.28,187.46L598.29,187.74L595.24,188.27L595.67,191.92L594.67,192.48L593.17,192.59L592.01,192.13L592.07,193.16L591.42,195.1L591.77,195.77L590.91,198.14L590.97,198.54L589.08,198.24L587.85,197.42L585.78,198.16L585.55,199.76L585.67,200.36L585.41,201.68L584.62,201.64L583.49,203.09L582.79,203.35L582.46,201.24L581.96,201.08L580.72,202.22L579.42,201.76L578.79,202.09L577.7,201.19L576.99,203.31L575.93,202.78L574.73,202.52L574.26,203.73L573.48,203.77L571.95,203L572.31,201.98L570.77,201.44L570.19,202.6L568.59,201.64L567.68,200.56L565.69,199.16L564.34,199.49L563.6,201.03L562.47,202.1L561.97,201.78L560.38,202.33L560.52,204.13L561.31,204.45L560.82,205.72L559.93,205.22L558.94,203.85L557.58,204.3L549.3,207.49L548.49,205.4L549.34,204.14L548.63,204.02L547.29,204.36L546.43,203.46L545.03,203.31L542.34,202.08L541.77,202.16L541.08,203.21L539.33,203.98L538.96,203.54L537.23,203.4L536.17,203.71L536.14,205.19L534.8,205.08L534.7,204.27L533.78,203.38L531.4,204.69L530.22,204.14L529.19,204.62L527.92,203.41L527.32,203.76L527.42,206.11L526.94,207.36L527.7,207.82L528.64,207.77L529.47,208.51L528.8,208.89L528.47,209.89L527.73,210.33L526.9,209.63L524.68,209.04L523.65,209.35L523.79,210.47L523.61,211.36L524.17,211.68L525.2,211.44L526,210.72L527.01,211.54L527.65,212.93L527.76,214.92L524.93,215.88L524.29,217.67L524.97,219.43L524.07,220.1L524.53,221.03L524.21,222.11L523.43,222.98L523.52,224.05L521.91,225.03L522.64,226.35L522.67,227.7L523.4,228.8L522.79,229.69L522.83,230.25L520.19,231.42L516.89,230.37L516.51,231.58L516.71,232.42L515.59,232.97L516.03,234.34L514.15,235.41L513.99,236.3L511.82,236.23L510.73,236.16L509,234.68L509.13,232.92L507.7,232.03L506.9,231.91L506.26,232.22L505.56,231.5L504.04,230.74L503.56,231.95L500.79,230.92L500.69,229.46L498.37,228.5L498.06,230.83L495.85,230.72L495.04,231.81L494.24,232.17L493.7,231.63L493.5,230.81L492.42,230.73L491.75,231.8L489.17,231.22L488.73,230.78L489.28,229.46L489.4,228.31L488.34,228.18L485.79,225.19L484.99,224.71L483.63,224.88L483.57,225.52L482.21,224.62L480.7,222.86L480.33,221.7L481.31,221.32L479.94,219.45L480.71,217.16L481.12,217.03L481.89,214.81L481.73,212.48L484.68,213.5L485.29,212.39L487.44,212.53L488.63,211.75L488.09,210.53L487.64,210.43L487.68,208.79L487.26,208L487.51,206.91L488.19,207.37L488.78,206.41L490.05,206.13L490.3,205.49L489.8,204.82L488.84,204.5L488.24,203.93L488.41,202.69L489.03,200.73L488.51,200.85L488.19,199.84L487.17,199.35L488.01,198.47L487.27,196.73L486.88,196.44L485.3,196.94L484.99,195.37L484.43,194.89L483.87,192.13L483.91,191.43L484.51,191.18L486.97,191.6L486.26,189.75L488.07,190.08L488.03,188.95L489.39,188.55L489.44,188.01L490.98,187.76L490.51,186.35L490.81,184.97L491.61,183.64L491.5,180.83L489.87,180.98L489.14,179.73L487.94,180.19L487.79,179.46L487.05,179.62L486.81,178.41L487.61,176.51L487.64,175.53L487.29,174.98L488.46,173.58L488.14,172.83L488.37,171.31L490.01,171.87L490.47,168.67L490.25,167.79L491.29,167.55L492.74,165.37L492.71,163.83L493.22,163.66L493.55,162.34L494.25,162.72L495.67,162.19L496.01,161.33L496.39,158.58L496.37,157.29L495,157.7L495.21,156L495.81,155.26L493.66,154.05L493.31,152L492.93,151.16L493.26,150.03L494.75,149.6L494.84,148.77L496.13,148.91L497.74,147.26L499.74,146.24L500.75,146.36L501.85,145.54L502.6,145.38L502.43,144.12L504.36,144.09L505.68,144.52L505.88,145.57L506.49,146.77L507.83,146.19L508.54,146.23L510.26,147.95L512.08,148.3L512.72,147.27L515.13,146.32L516.02,145.74L517.26,145.57L518.45,145.1L519.34,145.14L519.58,143.4L519.15,142.38L519.26,141.62L519.81,140.73L521.02,140.24L522.21,138.72L522.05,137.6L522.38,137.17L522.3,136.17L523.29,135.96L523.87,136.25L525.96,136.19L526.85,134.97L526.54,133.99L527.77,133.58L528.31,133.75L529.97,133.39L530.63,133.82L532.21,132.43L532.65,131.51L533.29,131.82L533.42,132.53L534.11,132.7L535.77,132.06L535.43,131.03L535.43,130.06L536.48,128.68L538.19,128.88L538.95,130.01L538.22,131.33L538.49,132.35L539.73,134.44L540.33,136.29L541.92,137.47L541.69,139.48L541.93,140.62L541.72,141.23L542.22,142.88L543.1,143.37L543.4,144.11L544.44,145.08L544.7,146.44L546.08,147.47L546.77,147.66L547,150.18L547.49,150.73L547.22,151.32L547.83,152.49L547.62,153.31L548.14,155.03L548.73,154.77L549.06,155.64L550.78,156.02L551.88,156.51L552.36,157.05L555.12,157.05L556.19,155.74L557.02,155.26L558.02,156.08L558.39,157.02L559.2,157.52L559.72,158.74L561.79,160.17L563.01,159.22L564.83,159.2L566.89,158.8L566.87,159.78L567.95,160.06L568.63,159.13L569.77,159.23L569.82,159.79L571.36,160.31L572.64,160.21L573.12,158.56L574.38,157.96L575.44,158.35L576.23,160.6L577.99,161.19L581.16,161.13L582.3,159.69L583.08,160.15L582.77,161.08L583.04,161.98L583.95,162.7L583.57,164.29L583.98,164.67L583.2,165.45L583.34,166.16L584.9,166.72L586.72,167.61L587.52,168.53L589.5,168.9L590.87,169.36L591.13,170.5L591.87,171.97L592.51,172.03L593.04,173.5L592.69,174.2L593.17,174.99L595.06,174.81L595.63,175.35L597.84,176.18L599.73,177.05L600.93,178.58L601.86,178.45Z" class="land" id="LT-PN" title="Panevėžys"/>
    <path d="M494.84,148.77L494.75,149.6L493.26,150.03L492.93,151.16L493.31,152L493.66,154.05L495.81,155.26L495.21,156L495,157.7L496.37,157.29L496.39,158.58L496.01,161.33L495.67,162.19L494.25,162.72L493.55,162.34L493.22,163.66L492.71,163.83L492.74,165.37L491.29,167.55L490.25,167.79L490.47,168.67L490.01,171.87L488.37,171.31L488.14,172.83L488.46,173.58L487.29,174.98L487.64,175.53L487.61,176.51L486.81,178.41L487.05,179.62L487.79,179.46L487.94,180.19L489.14,179.73L489.87,180.98L491.5,180.83L491.61,183.64L490.81,184.97L490.51,186.35L490.98,187.76L489.44,188.01L489.39,188.55L488.03,188.95L488.07,190.08L486.26,189.75L486.97,191.6L484.51,191.18L483.91,191.43L483.87,192.13L484.43,194.89L484.99,195.37L485.3,196.94L486.88,196.44L487.27,196.73L488.01,198.47L487.17,199.35L488.19,199.84L488.51,200.85L489.03,200.73L488.41,202.69L488.24,203.93L488.84,204.5L489.8,204.82L490.3,205.49L490.05,206.13L488.78,206.41L488.19,207.37L487.51,206.91L487.26,208L487.68,208.79L487.64,210.43L488.09,210.53L488.63,211.75L487.44,212.53L485.29,212.39L484.68,213.5L481.73,212.48L481.89,214.81L481.12,217.03L480.71,217.16L479.94,219.45L477.99,220.95L477.39,220.69L475.69,221.36L475.76,221.73L470.94,223.73L471.01,224.44L468.59,225.14L467.87,226.56L466.27,227.54L466.74,227.89L466.44,228.84L465.06,228.92L464.02,228.46L462.85,228.67L461.12,228.65L460.79,228.04L460.73,226.65L461.22,225.23L460.6,224.6L459.89,224.5L459.31,223.68L457.53,224.43L455.85,224.54L456.25,225.46L456.34,226.5L455.33,227.45L454.72,226.46L452.49,225.42L451.57,225.48L451.57,224.41L450.35,222.76L449.2,221.83L448.19,221.67L447.51,221.14L444.93,222.66L444.38,222.64L443.27,223.53L443.17,222.9L442.37,222.94L441.92,221.51L441.7,218.93L440.89,219.61L439.34,220.33L435.76,220.76L435.53,219.32L433.97,219.64L434,222.25L432.73,222.38L433.07,224.51L433.61,225.47L432.9,226.01L432.18,225.6L431.31,226.06L430.81,225.25L430.27,226.09L428.77,227.26L427.56,227.1L426.58,227.64L424.66,227.76L423.85,228.32L422.5,229.9L420.1,229.34L419.77,230.32L419.09,229.83L418.63,228.96L419.81,228.12L419.46,225.8L418.19,225.78L417.02,226.01L415.48,225.96L414.58,224.92L412.1,227.96L411.39,227.44L410.08,228.57L406.94,228.03L406.95,227.67L408.15,227.01L408.44,226.43L408.09,225.71L407.14,224.83L407,224.31L406.03,223.86L405.28,222.35L404.45,221.46L404.68,219.84L403.03,220.05L401.81,217.31L400.1,216.87L399.91,216.27L400.21,214.67L400.84,213.59L400.26,213.37L399.81,212.59L398.65,212.17L399,209.8L398.29,208.25L398.64,207.32L399.41,206.75L400.76,206.84L401.52,206.19L401.68,204.85L401.41,203.04L401.47,202.03L400.8,201.73L401.13,200.88L400.79,200.42L398.68,196.06L399.49,196L402.6,194.98L404.22,194.71L404.36,190.65L403.56,189.63L404.26,188.91L407.4,189.29L409.04,188L410.36,188.66L410.56,187.97L409.99,186.92L410.97,186.67L411.57,186.9L411.42,185.27L410.89,183.35L412.2,183.01L411.71,181.85L410.64,181.96L410.28,181.09L409.44,177.85L408.19,177.42L408.8,180.03L408.24,180.24L407.71,179.66L406.64,179.97L405.69,179.65L405.87,178.25L405.36,178.06L404.71,176.74L405.51,175.78L406.22,175.69L406.56,173.66L407.05,172.98L406.85,172.43L407.45,171.37L406.95,171.17L406.79,169.93L407.86,170.89L407.99,170.21L409.46,169.17L410.27,169.2L411.06,169.67L413.88,168.49L413.97,167.06L412.55,166.27L412.16,165.75L412.17,163.64L412.67,163.01L411.61,162.14L410.35,162.56L408.64,163.43L407.59,163.27L407.49,164.76L406.8,164.57L406.45,165.44L404.8,165.14L403.24,163.78L402.12,163.42L400.63,163.39L400.39,164.32L398.26,164.18L398.18,163.73L395.66,163.61L396.29,162.63L395.27,162L395.92,161.03L396.17,159.67L395.42,158.88L393.93,158.8L394.64,154.17L395.53,151.68L395.82,149.38L398.06,149.36L399.14,148.67L399.8,145.28L398.66,145.44L398.56,144.46L398.15,143.69L399.11,143.56L401.32,144.11L401.78,143.83L401.94,142.89L405.54,143.58L406.91,140.42L405.36,138.86L404.93,137.68L407.91,137.79L408,137.38L408.93,137.56L410.1,138.69L411.08,138.48L412,137.28L412.82,136.62L414.06,136.52L415.06,136.89L416.47,136.77L419.39,137.13L421.08,136.33L422.69,136.26L423.85,135.76L424.69,134.79L424.58,134.23L425.2,132.11L426.58,132.18L427.21,133.05L428.31,132.94L428.7,133.61L429.44,136.47L428.66,136.85L429.32,139.3L429.83,139.83L429.92,140.92L431,141.9L432.37,141.48L433.25,142.12L433.8,143.47L434.93,143.14L435.19,142.38L436.71,141.27L438.42,140.52L438.94,140.05L438.36,138.37L438.75,137.79L438.8,136.81L443.92,136.56L444.61,136.64L446.4,135.41L450.68,135.88L451.33,136.46L452.48,136.78L453.5,138.48L454.69,138.7L456.81,139.36L457.85,140.3L459.14,140.38L459.83,140.68L461.33,139.96L462.2,139.19L463.77,138.51L464.88,137.68L466.31,137.29L468.78,137.11L470.1,136.69L471.05,136.78L472.45,136.4L473.23,136.99L472.23,140.43L472.43,141.65L473.32,141.92L474.28,139.93L475.41,139.7L476.05,140.01L480.94,139.92L481.5,140.85L483.84,141.05L486.81,140.89L487.23,142.92L488.72,144.22L488.78,146.08L491.55,146.32L491.77,147.29L492.66,147.95L492.43,148.95L492.96,149.29Z" class="land" id="LT-SA" title="Šiauliai"/>
    <path d="M364.03,216.49L367.35,215.78L369.12,215.07L369.77,215.09L370.42,214.57L370.87,215.43L372.52,215.43L372.45,214.79L373.8,214.01L373.72,212.82L374.75,212.2L375.01,210.87L375.96,210.12L377.57,210.95L377.69,210.17L379.26,209.31L379.27,209.02L381.45,208.26L383.7,207.69L384.14,207.03L385.37,206.61L388.2,208.69L388.77,208.2L390.29,208.08L392.16,209.69L392.74,209.8L393.48,209.11L395.19,208.47L396.64,209.25L397.36,208.58L398.29,208.25L399,209.8L398.65,212.17L399.81,212.59L400.26,213.37L400.84,213.59L400.21,214.67L399.91,216.27L400.1,216.87L401.81,217.31L403.03,220.05L404.68,219.84L404.45,221.46L405.28,222.35L406.03,223.86L407,224.31L407.14,224.83L408.09,225.71L408.44,226.43L408.15,227.01L406.95,227.67L406.94,228.03L410.08,228.57L410.96,229.15L410.85,229.82L409.62,230.62L410.26,231.11L410.61,233.22L411.12,234.38L412.48,234.11L412.81,233.49L413.58,233.55L413.67,235.27L412.99,235.84L413.22,237.15L414.19,237.05L414.66,238.2L416.69,237.66L417.74,239.38L417.61,240.63L417.83,241.27L417.12,241.67L416.68,243.63L417.84,244.17L418.9,243.69L419.81,243.69L419.83,244.84L420.52,245.02L421.8,246.35L422.77,246.44L422.73,245.45L424.09,244.97L424.57,244.15L425.21,244.04L425.56,244.91L427.81,244.26L427.24,246.94L428.92,247.46L430.04,248.4L428.71,250.2L428.94,250.75L432.14,250.76L432.98,249.81L433.91,249.56L434.79,250.22L437.17,249.92L437.78,249.1L439.05,249.41L439.53,248.98L439.85,251.36L439.46,252.5L442.41,252.44L442.63,252.13L444.96,252.78L446.17,252.71L447.68,252L449.75,251.8L450.11,251.95L450.38,253.24L450.18,254.28L451.3,254.94L452.27,254.53L452.88,254.93L454.68,254.35L454.82,254.98L457.71,255.84L456.11,260.21L456.27,261.84L456.08,263.92L455.51,265.14L455.13,265.22L453.31,268.08L452.19,269.11L450.11,269.09L448.79,269.71L447.19,269.72L445.44,269.17L441.84,268.5L438.9,267.54L436.06,267.32L432.42,265.98L431.68,265.94L429.24,266.37L425.42,268L424.69,268.19L422.95,268.09L421.58,267.6L420.38,267.57L419.04,268.04L418.1,268.7L416.28,268.77L415.54,269.04L413.85,270.52L412.11,270.67L408.71,271.63L407.8,271.33L406.83,270.49L404.99,269.49L404.16,269.44L402.11,270.07L399.98,271.31L398.36,271.96L397.5,271.95L396.51,271.38L395.27,271.02L393.16,270.96L391.07,270.24L390.05,270.26L388.18,269.94L386.94,270.01L385.98,265.83L386.31,264.88L386.07,264.16L386.65,263.19L386.45,262.47L388.56,262.6L387.31,261.47L385.73,261.57L383.35,260.77L381.61,261.11L380.18,259.31L379.58,259.74L376.41,259.57L374.66,260.12L373.87,258.06L372.9,254.84L372.29,253.73L372.85,252.62L371.12,251.55L370.27,251.37L368.85,250.07L367.35,250.1L365.91,249.63L364.36,248.64L364.86,247.68L366.44,245.57L367.52,243.89L368.3,243.46L368.36,242.74L370.12,241.14L370.37,240.07L371.26,239.04L371.96,237.47L372.07,236.48L371.62,234.99L371.16,235L370.75,233.81L368.84,234.17L366.81,232.84L366.23,232.62L363.64,234.04L363.37,233.87L363.08,231.71L363.09,229.62L362.19,226.28L361.44,226.61L360.86,224.39L360.56,222.24L361.26,221.88L361.26,220.91L360.24,221.43L360.26,220.64L361.24,219.41L361.69,219.48L363.77,218.11L363.29,217.54Z" class="land" id="LT-TA" title="Taurage"/>
    <path d="M408,137.38L407.91,137.79L404.93,137.68L405.36,138.86L406.91,140.42L405.54,143.58L401.94,142.89L401.78,143.83L401.32,144.11L399.11,143.56L398.15,143.69L398.56,144.46L398.66,145.44L399.8,145.28L399.14,148.67L398.06,149.36L395.82,149.38L395.53,151.68L394.64,154.17L393.93,158.8L395.42,158.88L396.17,159.67L395.92,161.03L395.27,162L396.29,162.63L395.66,163.61L398.18,163.73L398.26,164.18L400.39,164.32L400.63,163.39L402.12,163.42L403.24,163.78L404.8,165.14L406.45,165.44L406.8,164.57L407.49,164.76L407.59,163.27L408.64,163.43L410.35,162.56L411.61,162.14L412.67,163.01L412.17,163.64L412.16,165.75L412.55,166.27L413.97,167.06L413.88,168.49L411.06,169.67L410.27,169.2L409.46,169.17L407.99,170.21L407.86,170.89L406.79,169.93L406.95,171.17L407.45,171.37L406.85,172.43L407.05,172.98L406.56,173.66L406.22,175.69L405.51,175.78L404.71,176.74L405.36,178.06L405.87,178.25L405.69,179.65L406.64,179.97L407.71,179.66L408.24,180.24L408.8,180.03L408.19,177.42L409.44,177.85L410.28,181.09L410.64,181.96L411.71,181.85L412.2,183.01L410.89,183.35L411.42,185.27L411.57,186.9L410.97,186.67L409.99,186.92L410.56,187.97L410.36,188.66L409.04,188L407.4,189.29L404.26,188.91L403.56,189.63L404.36,190.65L404.22,194.71L402.6,194.98L399.49,196L398.68,196.06L400.79,200.42L401.13,200.88L400.8,201.73L401.47,202.03L401.41,203.04L401.68,204.85L401.52,206.19L400.76,206.84L399.41,206.75L398.64,207.32L398.29,208.25L397.36,208.58L396.64,209.25L395.19,208.47L393.48,209.11L392.74,209.8L392.16,209.69L390.29,208.08L388.77,208.2L388.2,208.69L385.37,206.61L384.14,207.03L383.7,207.69L381.45,208.26L379.27,209.02L379.26,209.31L377.69,210.17L377.57,210.95L375.96,210.12L375.01,210.87L374.75,212.2L373.72,212.82L373.8,214.01L372.45,214.79L372.52,215.43L370.87,215.43L370.42,214.57L369.77,215.09L369.12,215.07L367.35,215.78L364.03,216.49L361.69,214.79L361.26,214.19L360.37,214.65L359.05,214.91L358.9,212.45L358.24,212.35L357.49,211.41L358.17,210.77L357.92,209.07L358.61,208.25L358.7,206.98L359.75,206.01L358.37,205.98L357.83,205.14L356.9,205.14L356.12,204.32L356.43,202.97L356.99,202.54L356.73,201.83L356.94,199.8L355.87,199.14L355.42,200.22L353.91,200.44L351.11,199.02L350.16,200.24L348.98,199.92L349.09,197.89L348.75,197.51L349.02,196.44L348.35,196.08L348.23,195.43L347.34,194.93L346.69,193.41L346,193.45L346.13,194.81L345.64,194.79L344.99,195.57L343.87,195.13L343.68,194.72L342.28,193.86L343.31,191.16L344.06,191.35L343.68,189.96L344.08,189.54L344.91,189.74L344.95,188.74L345.94,188.22L346.74,188.35L346.95,187.61L346.6,186.97L347.37,186.26L348.28,186.17L348.92,185.54L348.36,184.76L346.95,183.71L346.25,183.55L345.86,182.73L346.88,182.7L346.82,180.26L346.37,179.33L347.82,176.07L345.79,175.19L346.48,173.54L348.23,173.5L349.07,174.33L349.94,174.01L350.82,174.21L352.34,170.6L352.8,170.52L354.01,167.28L354.21,166.45L355.53,166.74L356.75,163.55L358.24,163.4L362.04,164.86L361.59,162.45L361,161.93L361.38,161.15L362.29,161.27L362.25,161.89L365.35,162.36L365.82,163.24L366.68,162.58L366.47,162.12L367.3,161.19L367.73,158.05L367.81,156.61L368.56,156.57L368.92,154.15L371.67,154.65L371.75,153.12L370.27,151.61L370.79,151L370.44,149.24L369.89,148.95L369.56,147.33L369.12,147.23L369.57,142.3L366.94,142.04L367.19,138.58L368.82,138.66L369.19,137.79L369.42,136.05L369.89,135.22L369.76,134.4L370.61,132.88L370.65,132.21L371.73,132.08L371.86,131.17L372.74,131.06L374.51,131.66L375.56,131.28L376.1,130.72L377.5,130.7L378.21,130.28L380.73,131.56L382.62,131.1L383.33,132.39L384.36,132.68L384.94,133.4L388.98,132.76L389.4,133.51L390.16,133.5L391.1,134.22L392.02,133.42L393.18,133.59L394.17,132.87L395.57,132.6L396.74,133.11L398.45,133.14L399.24,133.95L401.87,134.76L402.96,134.95L404.39,134.66L404.81,135.3L406.33,135.45L407.64,137.32Z" class="land" id="LT-TE" title="Telšiai"/>
    <path d="M643.83,251.05L643.66,250.73L644.79,250L640.82,250.3L640.49,250.04L636.46,251.14L636.5,252.63L635.62,253.88L633.77,253.88L632.9,254.65L632.08,254.05L631.17,254.34L630.82,255.15L629.43,254.88L628.92,255.21L627.38,254.48L626.71,255.25L624.37,254.59L622.63,253.87L622.01,254.29L619.94,253.95L618.66,253.46L617.7,253.86L616.92,253.35L616.33,254.37L615.43,253.77L614.92,252.38L614.32,251.79L613.68,252.32L612.57,252.56L611.91,253.99L609.84,253.75L609.77,253.25L611.14,251.18L610.68,250.44L609.73,250.09L609.7,248.24L609.23,247.51L608.6,247.55L607.72,246.9L606.89,247.72L606.57,247.29L604.75,246.73L603.63,246.88L603.71,247.61L602.95,248.67L602.57,248.34L601.05,248.61L600.56,249.32L599.34,248.75L598.27,249.04L597.67,248.44L597.62,247.5L596.95,247.47L597.04,248.51L596.2,248.08L595.85,248.91L594.94,248.23L595.09,247.22L593.53,246.14L592.62,246.55L592.11,246.22L591.49,246.59L592.31,247.43L590.73,248.81L590.04,247.75L590.26,247.22L588.38,244.57L587.7,244.7L587.28,245.55L585.95,246.05L584.44,249.25L583.2,249.63L584.25,251.61L583.9,252.46L582.49,252.01L581.91,252.78L582.07,253.66L581.24,255.68L581.06,256.67L581.49,258.03L582.68,258.32L583.12,259.09L584.52,259.35L584.55,261.77L585.17,261.89L585.51,262.62L586.39,263.46L587.09,263.23L587.39,263.82L589.27,264.47L589.71,265.23L588.59,265.3L588.31,266.27L587.79,266.08L587.05,266.63L587.68,267.14L586.77,269.83L586.17,270.33L586.11,271.11L586.44,272.27L586.05,273.02L584.66,272.98L583.53,272.24L581.93,272.23L581.51,270.64L579.62,269.83L578.36,270.57L577.3,270.47L576.68,271.46L575.36,270.96L574.07,271.15L574.26,271.98L573.87,272.73L572.08,272.42L571.03,272.8L568.61,273.25L567.71,273.26L566.34,272.94L565.57,273.61L564.81,273.27L563.05,273.28L561.78,272.03L559.02,271.94L556.24,272.4L555.98,271.84L556.8,271.36L557.21,270.69L556.6,270L556.3,268.97L556.35,267.73L554.54,267.38L552.64,267.44L552.1,266.74L552.47,265.88L552.13,265.34L552.85,264.41L552.74,263.46L553.55,262.81L553.35,261.55L554.28,261.22L557.13,259.41L556.57,258.46L557.08,257.55L557.03,256.64L556.52,255.52L555.77,254.88L555.2,255.25L553.69,255.64L552.55,254.38L554.01,252.37L554.32,249.85L553.44,249.69L551.69,250.7L549.42,249.7L549.65,248.32L549.13,247.26L548.21,247.04L548.38,245.97L547.88,245.26L546.82,245.68L546.66,245.03L545.68,245.34L544.95,245.11L543.51,245.6L542.6,245.13L542.26,242.96L542.39,241.97L541.8,240.42L538.05,242.07L537.34,241.84L537.79,240.43L536.54,240.41L534.59,240.81L533.74,240.04L531.11,238.63L531.27,236.31L530.89,235.38L531.63,233.73L532.82,234.55L533.24,233.47L533.47,232.14L532.83,232.13L531,231.04L530.48,229.35L530.35,228.29L528.73,228.26L528.1,226.6L527.02,225.28L525.71,225.47L524.05,226.42L523.69,225.46L523.52,224.05L523.43,222.98L524.21,222.11L524.53,221.03L524.07,220.1L524.97,219.43L524.29,217.67L524.93,215.88L527.76,214.92L527.65,212.93L527.01,211.54L526,210.72L525.2,211.44L524.17,211.68L523.61,211.36L523.79,210.47L523.65,209.35L524.68,209.04L526.9,209.63L527.73,210.33L528.47,209.89L528.8,208.89L529.47,208.51L528.64,207.77L527.7,207.82L526.94,207.36L527.42,206.11L527.32,203.76L527.92,203.41L529.19,204.62L530.22,204.14L531.4,204.69L533.78,203.38L534.7,204.27L534.8,205.08L536.14,205.19L536.17,203.71L537.23,203.4L538.96,203.54L539.33,203.98L541.08,203.21L541.77,202.16L542.34,202.08L545.03,203.31L546.43,203.46L547.29,204.36L548.63,204.02L549.34,204.14L548.49,205.4L549.3,207.49L557.58,204.3L558.94,203.85L559.93,205.22L560.82,205.72L561.31,204.45L560.52,204.13L560.38,202.33L561.97,201.78L562.47,202.1L563.6,201.03L564.34,199.49L565.69,199.16L567.68,200.56L568.59,201.64L570.19,202.6L570.77,201.44L572.31,201.98L571.95,203L573.48,203.77L574.26,203.73L574.73,202.52L575.93,202.78L576.99,203.31L577.7,201.19L578.79,202.09L579.42,201.76L580.72,202.22L581.96,201.08L582.46,201.24L582.79,203.35L583.49,203.09L584.62,201.64L585.41,201.68L585.67,200.36L585.55,199.76L585.78,198.16L587.85,197.42L589.08,198.24L590.97,198.54L590.91,198.14L591.77,195.77L591.42,195.1L592.07,193.16L592.01,192.13L593.17,192.59L594.67,192.48L595.67,191.92L595.24,188.27L598.29,187.74L599.28,187.46L599.19,186.25L600,184.88L598.84,183.27L598.96,182.01L599.38,181.89L600.76,180.07L603.66,179.55L603.84,180.53L604.83,182.2L606.27,185.02L608.12,187.37L609.86,187.71L611.1,188.82L612.04,188.73L613.07,189.83L614.32,191.59L614.7,193.41L614.47,194.26L616.23,197.67L616.59,198.81L618.8,201L619.9,201.58L621.26,201.47L622.16,202.58L622.92,205.05L623.39,205.27L624.38,204.82L625.42,204.74L627.83,205.2L629.37,206.5L629.47,207.07L630.71,207.12L631.19,207.86L631.82,208.08L634.07,207.88L634.35,208.31L635.65,208.4L636.72,207.82L637.4,207.8L637.41,210.3L638.22,210.42L638.23,212.17L638.61,213.17L637.61,214.87L638.13,215.65L638.18,218.57L637.02,219.56L636.16,219.63L634.61,222.26L633.68,222.48L632.41,223.28L631.44,225.51L632.1,226.69L632.43,227.74L633.09,227.83L633.69,229.12L632.75,230.05L632.24,232.15L633.24,234.91L632.7,235.28L632.83,237.35L631.64,237.31L630.56,238.25L629.97,239.17L629.27,238.95L628.47,239.2L628.26,240.39L626.59,241.36L626.89,241.86L627.92,242.12L628.52,241.95L630.82,243.16L631.29,242.99L632.66,243.39L633.13,244.04L633.93,244.04L634.68,243.59L635.76,244.09L637.13,243.19L639.71,242.41L640.28,243.02L641.82,243.31L642.49,243.99L643.43,243.77L645.03,243.91L645.81,244.36L647.9,244.65L647.91,245.32L648.78,245.5L649.17,246.46L649.17,247.61L648.69,248.56L647.1,248.85L645.84,250.3L644.39,251.06Z" class="land" id="LT-UT" title="Utena"/>
    <path d="M523.52,224.05L523.69,225.46L524.05,226.42L525.71,225.47L527.02,225.28L528.1,226.6L528.73,228.26L530.35,228.29L530.48,229.35L531,231.04L532.83,232.13L533.47,232.14L533.24,233.47L532.82,234.55L531.63,233.73L530.89,235.38L531.27,236.31L531.11,238.63L533.74,240.04L534.59,240.81L536.54,240.41L537.79,240.43L537.34,241.84L538.05,242.07L541.8,240.42L542.39,241.97L542.26,242.96L542.6,245.13L543.51,245.6L544.95,245.11L545.68,245.34L546.66,245.03L546.82,245.68L547.88,245.26L548.38,245.97L548.21,247.04L549.13,247.26L549.65,248.32L549.42,249.7L551.69,250.7L553.44,249.69L554.32,249.85L554.01,252.37L552.55,254.38L553.69,255.64L555.2,255.25L555.77,254.88L556.52,255.52L557.03,256.64L557.08,257.55L556.57,258.46L557.13,259.41L554.28,261.22L553.35,261.55L553.55,262.81L552.74,263.46L552.85,264.41L552.13,265.34L552.47,265.88L552.1,266.74L552.64,267.44L554.54,267.38L556.35,267.73L556.3,268.97L556.6,270L557.21,270.69L556.8,271.36L555.98,271.84L556.24,272.4L559.02,271.94L561.78,272.03L563.05,273.28L564.81,273.27L565.57,273.61L566.34,272.94L567.71,273.26L568.61,273.25L571.03,272.8L572.08,272.42L573.87,272.73L574.26,271.98L574.07,271.15L575.36,270.96L576.68,271.46L577.3,270.47L578.36,270.57L579.62,269.83L581.51,270.64L581.93,272.23L583.53,272.24L584.66,272.98L586.05,273.02L586.44,272.27L586.11,271.11L586.17,270.33L586.77,269.83L587.68,267.14L587.05,266.63L587.79,266.08L588.31,266.27L588.59,265.3L589.71,265.23L589.27,264.47L587.39,263.82L587.09,263.23L586.39,263.46L585.51,262.62L585.17,261.89L584.55,261.77L584.52,259.35L583.12,259.09L582.68,258.32L581.49,258.03L581.06,256.67L581.24,255.68L582.07,253.66L581.91,252.78L582.49,252.01L583.9,252.46L584.25,251.61L583.2,249.63L584.44,249.25L585.95,246.05L587.28,245.55L587.7,244.7L588.38,244.57L590.26,247.22L590.04,247.75L590.73,248.81L592.31,247.43L591.49,246.59L592.11,246.22L592.62,246.55L593.53,246.14L595.09,247.22L594.94,248.23L595.85,248.91L596.2,248.08L597.04,248.51L596.95,247.47L597.62,247.5L597.67,248.44L598.27,249.04L599.34,248.75L600.56,249.32L601.05,248.61L602.57,248.34L602.95,248.67L603.71,247.61L603.63,246.88L604.75,246.73L606.57,247.29L606.89,247.72L607.72,246.9L608.6,247.55L609.23,247.51L609.7,248.24L609.73,250.09L610.68,250.44L611.14,251.18L609.77,253.25L609.84,253.75L611.91,253.99L612.57,252.56L613.68,252.32L614.32,251.79L614.92,252.38L615.43,253.77L616.33,254.37L616.92,253.35L617.7,253.86L618.66,253.46L619.94,253.95L622.01,254.29L622.63,253.87L624.37,254.59L626.71,255.25L627.38,254.48L628.92,255.21L629.43,254.88L630.82,255.15L631.17,254.34L632.08,254.05L632.9,254.65L633.77,253.88L635.62,253.88L636.5,252.63L636.46,251.14L640.49,250.04L640.82,250.3L644.79,250L643.66,250.73L643.83,251.05L642.94,252.35L643.09,254.66L642.23,255.36L641.64,256.25L641.04,255.73L640.02,256.44L640.11,257.35L640.66,258.54L641.59,259.05L641.08,259.76L640.16,259.41L640.04,260.44L639.44,260.69L638.7,260.18L637.75,261.12L636.84,261.58L634.69,260.94L633.99,261.45L633.29,261.47L632.25,261.96L630.75,260.3L629.57,261.22L628.69,261.5L628.57,262.61L627.66,263.38L625.57,262.39L624.65,262.38L624.09,262.96L623.42,262.12L622.28,261.42L621.63,261.32L620.76,261.84L619.76,261.81L619.76,262.82L618.33,263.9L616.26,264.24L614.22,265.66L614.21,265.98L615.66,267.25L616.57,268.47L615.02,269.71L614.74,272.35L613.98,274.35L613.15,275.04L613.17,276.23L612.06,277.15L610.31,277.21L608.99,278.07L608.04,277.73L607.54,279.19L606.95,279.52L605.69,279.56L605.36,280.22L605.83,280.91L605.23,281.48L604.23,281.61L604.06,282.32L603.15,282.22L600.57,281.37L600.1,280.65L598.04,281.6L597.04,282.77L596.63,282.63L595.72,283.26L594.58,282.8L594.1,283.51L593.01,283.57L592.72,284.64L592.9,285.82L592.55,286.76L590.53,288.48L590.19,289.61L588.39,291.17L588.35,293.55L588.12,294.02L587.1,294.11L586.4,294.79L585.89,296.39L586.32,298.95L586.64,299.8L586.67,301.51L586.55,304.09L585.91,306.14L586.05,307.69L585.75,307.97L586.45,312.31L586.11,313.03L586.95,314.35L586.97,316.32L587.44,317.77L587.31,318.76L586.79,319.87L582.8,322.71L581.35,325.66L581.22,326.83L580.36,328.24L580.28,329.18L579.34,329.35L578.79,330.01L579.52,330.41L579.2,331.31L579.72,332.81L579.81,333.89L578.38,336.35L577.51,336.26L577.22,336.82L577.56,338.48L575.96,339.58L575.51,341.69L574.48,341.79L574.37,342.81L575.14,342.8L575.01,343.81L575.45,344.54L577.41,343.78L577.49,344.41L579.17,344.99L579.93,344.26L580.53,344.89L581.68,343.84L582.76,343.67L584.37,346.24L583.99,346.68L584.27,347.44L583.94,348.11L584.53,348.72L585.07,348.32L586.36,348.69L587.09,350.72L587.6,351.65L588.89,352.32L586.89,353.85L587.53,355.09L588.43,356.34L587.93,357.47L588.34,358L588.34,358.96L589.56,359.57L586.99,359.68L585.45,359.54L584.14,358.91L584.04,360.05L583.33,360.34L582.95,361.67L581.96,361.6L581.25,362.09L580.92,362.8L579.83,362.53L579.46,361.85L578.05,361.49L576.05,360.58L575.4,360.95L575,360.34L574.3,360.13L574.12,359.32L572.95,358.34L573.18,357.23L574.66,356.78L575.87,356.11L575.89,354.42L574.89,353.74L575.12,352.98L576,352.71L576.65,353.24L577.09,352.48L576.29,351.17L576.38,350.19L575.68,349.15L575.95,348.8L573.39,347.55L573.16,346.65L573.24,345.29L572.3,344.89L572.12,345.73L571.21,345.76L571.3,346.41L569.79,346.96L569.73,346.21L567.74,346.27L567.18,347.63L566.17,348.43L564.45,348.72L563.89,349.5L562.86,349.21L562.24,349.68L561.55,349.18L561.09,349.7L560.12,349.5L558.84,348.7L558.04,350.69L556.99,349.57L555.84,350.59L555.74,351.63L555.28,351.9L555.34,353.6L554.38,354.83L553.18,355.67L552.85,356.55L551.55,357.57L550.34,358.83L549.85,359.85L548.12,361.42L547.9,362.18L546.46,361.75L544.39,362.05L542.73,360.99L542.18,359.83L542.41,359.25L541.18,358.56L539.04,359.76L538.47,359.84L535.97,361.05L534.49,361.11L533.92,360.87L533.48,359.31L532.69,358.35L532.72,356.6L532.18,356.64L531.16,355.9L529.31,355.29L529.58,354.18L529.51,353.17L530.02,352.41L530.61,352.68L531.15,352.02L532.41,352.07L532.21,350.59L533.13,350.13L533.74,350.28L534.85,349.87L535.5,348.38L536.85,348.25L536.09,347.51L536.04,346.93L536.63,346.39L539.48,346.2L538.71,343.53L539.2,342.38L538.6,341.7L538.27,340.06L539.29,339.77L539.14,338.65L543.21,337.86L543.06,336.67L544.36,336.35L543.92,334.13L544.8,333.8L544.45,332.38L543.46,332.79L542.68,332.71L541.9,333.37L540.61,333.16L539.67,333.77L538.79,333.88L537.86,334.59L536.02,334.82L535.54,335.21L534.77,334.99L534.27,335.58L534.43,336.44L532,336.4L531.98,335.93L529.05,336.28L528,336.77L526.54,336.55L526.48,335.12L526.9,334.87L526.93,333.46L525.72,333.13L524.09,331.51L523.25,331.6L522.84,332.18L521.55,331.72L521.03,332.32L519.54,333.39L519.33,334.28L518.17,334.81L517.19,334.73L517.2,333.8L515.24,333.95L514.67,334.41L512.13,334.31L511.51,333.83L510.26,333.38L510.28,332.58L511.38,331.41L511.38,330.33L510.64,329.29L509.44,329.56L508.95,328.61L510.49,327.87L510.23,326.18L509.69,326.12L509.52,323.83L509.82,323.15L510.28,320.96L510.61,320.07L510.45,319.25L510.74,318.48L510.44,317.4L511.05,317.3L512.43,316.08L513.3,316.04L513.79,315.46L513.12,313.53L513.28,312.73L512.41,310.18L512.64,309.96L512.33,308.34L513.53,306.49L515.21,306.14L517.52,307.24L518.31,304.92L519.51,305.04L520.14,306.19L521.22,306.34L522,305.99L522.1,305.08L521.65,304.53L521.98,303.32L522.48,303.03L522.37,301.52L523.17,301.37L523.02,300.36L522.37,299.58L522.95,298.72L522.83,297.67L523.09,296.58L524.23,295.64L525.51,294.98L527.4,294.59L527.9,294.68L529.62,293.74L530.03,294.07L529.28,288.6L529.54,288.09L531.41,287.77L531.69,288.28L532.68,287.63L532.74,286.21L531.96,285.41L530.16,284.67L529.2,283.32L527.74,283.23L525.69,283.61L525.66,282.95L525.13,281.86L524.28,281.3L523.54,281.28L522.4,280.36L521.77,279.08L520.49,279.25L519.49,279.11L518.88,278.14L517.91,277.41L518.59,276.73L518.66,275.77L520.19,275.21L520.06,273.56L522.27,273.24L521.93,272.68L522.48,271.2L522.53,270.29L521.56,268.93L520.94,268.9L520.26,267.44L519.71,266.78L519.7,265.17L518.32,264.96L517.47,264.24L517.47,263.27L516.38,262.02L517.21,261.54L517.51,260.8L516.85,260.44L516.21,260.65L515.28,260.33L515.05,258.93L514.49,258.16L514.6,257L513.98,256.01L515.34,254.22L514.37,253.79L513.05,253.58L511.87,253.1L510.08,252.86L510.18,252.01L510.95,249.3L510.98,248.16L510.51,247.06L508.65,246.89L509.13,242.93L509.61,242.76L509.48,240.99L510.33,240.47L510.46,239.08L511.7,238.57L511.82,236.23L513.99,236.3L514.15,235.41L516.03,234.34L515.59,232.97L516.71,232.42L516.51,231.58L516.89,230.37L520.19,231.42L522.83,230.25L522.79,229.69L523.4,228.8L522.67,227.7L522.64,226.35L521.91,225.03ZM571.46,348.31L570.64,348.11L571.13,347.38L572.34,347.59Z" class="land" id="LT-VL" title="Vilnius"/>
  </g>
</svg>