<?xml version="1.0" encoding="UTF-8"?>
<svg xmlns="http://www.w3.org/2000/svg" width="184.41" height="262.13" viewBox="387.8 125.93 184.41 262.13" style="background-color:#000000">
  <!-- Created using SVG Map Generator: dojo.amcharts.com/svg-map-generator -->
  <style>
    .land { fill: #ffffff; stroke: #000000; stroke-width: 0.65; }
  </style>
  <g id="polygons">
    <path d="M461.57,209.67L461.01,212.06L462,214.3L463.85,216.3L461.82,217.14L462.41,218.58L457.87,221.21L458.08,225.66L456.72,226.95L457.08,231.82L453.38,233.43L452.5,234.69L453.7,237.6L451.17,238.51L450.49,241.9L448.8,239.56L446.27,239.21L445.8,237.77L440.84,236.09L437.61,237.14L435.53,240.47L431.81,240.47L432.33,238.68L433.95,238.47L429.24,231.33L427.25,233.19L427.3,235.15L428.52,236.55L426.35,237.77L425.58,239.21L424,239.87L423.12,237.25L421.86,236.3L421.7,234.55L419.83,234.45L419.85,232.28L418.11,232.17L417.37,234.31L413.73,234.73L415.16,236.51L412.04,239.73L409.31,241.2L408.05,240.75L403.44,240.47L402.47,239.87L399.43,239.98L399.2,236.48L393.72,232.66L391.3,231.65L390.45,229.89L393.02,226.74L394.15,226.32L396.9,223.97L398.23,218.96L400.49,216.05L400.49,214.72L398.71,214.3L399.9,207.89L402.86,208.06L405.75,205.64L407.3,206.8L407.84,204.13L409.97,202.83L413.19,199.92L413.82,196.48L418.7,196.31L418.95,197.22L421.93,195.85L421.79,192.55L426.01,195.57L428.27,194.48L429.62,194.8L430.84,192.73L432.92,191.5L433.64,189.89L435.04,189.5L434.18,187.71L435.26,186.06L437.81,185.04L439.32,183.46L441.06,183.64L444.22,181.7L447.22,186.37L451.13,188.69L452.95,189.01L454.4,191.32L458.62,192.59L461.57,191.18L461.94,192.9L465.41,191.4L465.59,192.17L463.47,197.4L460.06,197.99L458.17,200.59L457.38,203.29L461.73,205.08L460.63,206.52L461.85,208.24Z" class="land" id="LU-WI" title="Wiltz"/>
    <path d="M450.49,241.9L451.15,244.11L448.67,243.58L447.63,245.09L449.48,247.26L449.14,248.97L451.01,250.37L450.25,252.43L450.68,253.45L454.04,253.17L460.4,249.85L463.24,250.27L464.24,249.5L466.34,249.85L464.12,251.63L462.88,255.06L464.26,256.91L463.27,258.13L460.47,259.01L457.99,262.96L456.5,262.82L454.6,264.71L454.96,267.29L454.02,268.72L454.47,271.28L452.14,273.79L450.88,276.06L451.49,277.98L455.84,279.66L454.13,285.35L453.72,285.84L451.67,285.91L451.24,284.2L448.1,286.15L445.64,286.01L444.15,288.11L442.66,288.77L441.94,290.31L440.43,290.9L438.4,293.2L435.31,293.52L431.49,293.06L430.39,290.13L426.71,289.54L423.6,291.28L421.7,289.4L421.47,287.97L419.33,287.06L416.28,289.29L411.61,288.07L412.29,285.31L412.09,283.74L412.63,280.85L410.03,279.27L409.13,275.68L408.32,275.15L404.78,269.07L404.08,266.17L403.13,264.67L401.77,265.75L398.89,264.92L395.77,266.84L394.8,266.31L393.99,261.07L394.15,259.43L392.7,258.34L393.24,257.02L393.02,254.6L391.69,251.28L394.1,250.44L393.18,249.11L393.02,245.37L395.77,243.37L395.7,241.55L396.63,240.71L399.43,239.98L402.47,239.87L403.44,240.47L408.05,240.75L409.31,241.2L412.04,239.73L415.16,236.51L413.73,234.73L417.37,234.31L418.11,232.17L419.85,232.28L419.83,234.45L421.7,234.55L421.86,236.3L423.12,237.25L424,239.87L425.58,239.21L426.35,237.77L428.52,236.55L427.3,235.15L427.25,233.19L429.24,231.33L433.95,238.47L432.33,238.68L431.81,240.47L435.53,240.47L437.61,237.14L440.84,236.09L445.8,237.77L446.27,239.21L448.8,239.56Z" class="land" id="LU-RD" title="Redange"/>
    <path d="M473.85,198.2L475.14,200.17L474.41,203.29L474.62,204.94L473.31,207.57L473.65,208.83L472.61,214.06L474.28,215.49L474.55,216.97L477.42,218.79L479.04,220.47L480.42,224.32L482.99,225.59L482.97,228.28L484.84,226.95L487.14,228.11L489.94,232.17L493.69,233.78L495.51,235.53L496.67,234.17L497.14,231.05L498.74,231.44L502.26,229.16L504.43,228.84L505.29,227.41L507.23,228.25L508.67,230.31L509.87,230.8L511.58,232.98L513.88,234.45L517.11,234.55L519.1,238.37L521.44,236.97L522.93,237.39L523.07,240.05L521.65,241.38L521.92,244.6L519.73,244.04L517.13,244.14L515.33,243.51L514,245.02L515.82,246.42L514.29,249.08L514.65,252.22L515.82,253.62L513.32,254.95L513.48,257.4L511.18,258.48L511.58,261.32L509.6,262.12L508.81,259.74L507.18,259.29L505.56,261.87L503.93,261.49L502.94,259.95L498.97,257.54L499.1,254.81L497.75,251.91L495.83,252.36L492.67,251.7L491.41,252.89L490.21,250.86L487.39,251.28L484.77,253.69L481.95,255.34L480.67,253.97L478.54,253.76L478.23,251.31L475.88,250.96L474.05,249.46L474.46,248.59L470.89,248.31L466.34,249.85L464.24,249.5L463.24,250.27L460.4,249.85L454.04,253.17L450.68,253.45L450.25,252.43L451.01,250.37L449.14,248.97L449.48,247.26L447.63,245.09L448.67,243.58L451.15,244.11L450.49,241.9L451.17,238.51L453.7,237.6L452.5,234.69L453.38,233.43L457.08,231.82L456.72,226.95L458.08,225.66L457.87,221.21L462.41,218.58L461.82,217.14L463.85,216.3L462,214.3L461.01,212.06L461.57,209.67L464.08,210.06L464.64,208.1L466.18,207.64L467.13,206.24L469.47,201.36L469.79,200.03L472.02,199.99L471.68,198.06Z" class="land" id="LU-DI" title="Diekirch"/>
    <path d="M488.68,201.47L488.63,203.54L490.14,206.73L491.16,207.46L491.43,209.46L493.73,208.73L492.49,206.62L493.03,204.87L494.81,205.4L494.9,208.55L496.8,209.15L498.63,208.8L500.28,210.38L500.79,212.41L502.6,213.74L502.78,217.14L501,218.65L503.25,219.91L504.65,221.49L503.3,223.24L505.29,227.41L504.43,228.84L502.26,229.16L498.74,231.44L497.14,231.05L496.67,234.17L495.51,235.53L493.69,233.78L489.94,232.17L487.14,228.11L484.84,226.95L482.97,228.28L482.99,225.59L480.42,224.32L479.04,220.47L477.42,218.79L474.55,216.97L474.28,215.49L472.61,214.06L473.65,208.83L473.31,207.57L474.62,204.94L474.41,203.29L475.14,200.17L473.85,198.2L477.42,198.73L478.36,199.57L478.75,201.75L480.37,202.8L482.16,201.75L483.24,202.24L486.8,200.48Z" class="land" id="LU-VD" title="Vianden"/>
    <path d="M453.72,285.84L453.63,285.91L453.7,288.49L455.23,291.88L453.97,293.55L457.56,295.02L459.93,294.53L460.72,293.76L464.06,295.82L468.82,293.66L469.81,291.56L470.92,291.46L473.04,294.7L476.74,292.96L477.08,295.92L476.72,297.81L475.95,300.46L476.22,301.96L478.34,303.95L479.7,308.55L478.5,310.19L478.77,311.79L474.46,311.96L472.97,308.51L471.62,307.61L466.18,314.02L466.38,315.55L465.75,318.41L463.24,321.2L462.7,323.95L461.94,325.24L459.97,325.93L457.58,325.69L455.84,328.3L453.77,330.57L454.22,331.96L456,332.06L456.36,333.32L454.51,334.46L455.75,335.72L457.38,335.96L456.77,337.07L454.33,338.43L453.16,341.01L451.19,343.06L448.4,343.3L448.51,342.12L443.79,341.32L441.51,345.15L439.48,344L438.4,345.53L435.87,347.02L433.86,347.41L430.64,348.73L428.45,350.82L426.03,350.71L426.69,347.51L426.08,345.01L424.32,345.04L422.15,341.77L423.73,340.97L422.81,338.08L423.55,335.51L419.58,336.73L418.29,335.02L418.61,333L419.53,332.03L423.78,329.66L424.86,328.23L425.02,324.44L426.89,322.35L426.66,319.94L428.72,318.48L431.18,318.86L431.61,316.22L430.91,314.33L431.09,310.5L432.53,308.55L429.8,307.99L425.4,306.49L422.51,306.32L421.59,305.17L421,301.68L422.24,295.96L423.37,294.04L423.6,291.28L426.71,289.54L430.39,290.13L431.49,293.06L435.31,293.52L438.4,293.2L440.43,290.9L441.94,290.31L442.66,288.77L444.15,288.11L445.64,286.01L448.1,286.15L451.24,284.2L451.67,285.91Z" class="land" id="LU-CA" title="Capellen"/>
    <path d="M511.58,261.32L511.74,263.55L513.18,265.61L515.62,265.61L515.46,266.94L516.55,269.81L518.37,269.56L519.59,270.54L519.89,272.43L518.64,274.66L517.92,279.2L511.87,277.49L510.2,277.35L510.34,279.06L509.48,281.51L503.77,286.4L502.74,286.61L500.32,288.49L500.59,290.83L500.14,293.73L498.94,294.18L499.06,296.59L495.65,297.56L492.92,299.34L487.55,298.5L486.58,295.89L483.33,295.19L478.07,297.7L476.72,297.81L477.08,295.92L476.74,292.96L473.04,294.7L470.92,291.46L469.81,291.56L468.82,293.66L464.06,295.82L460.72,293.76L459.93,294.53L457.56,295.02L453.97,293.55L455.23,291.88L453.7,288.49L453.63,285.91L454.13,285.35L455.84,279.66L451.49,277.98L450.88,276.06L452.14,273.79L454.47,271.28L454.02,268.72L454.96,267.29L454.6,264.71L456.5,262.82L457.99,262.96L460.47,259.01L463.27,258.13L464.26,256.91L462.88,255.06L464.12,251.63L466.34,249.85L470.89,248.31L474.46,248.59L474.05,249.46L475.88,250.96L478.23,251.31L478.54,253.76L480.67,253.97L481.95,255.34L484.77,253.69L487.39,251.28L490.21,250.86L491.41,252.89L492.67,251.7L495.83,252.36L497.75,251.91L499.1,254.81L498.97,257.54L502.94,259.95L503.93,261.49L505.56,261.87L507.18,259.29L508.81,259.74L509.6,262.12Z" class="land" id="LU-ME" title="Mersch"/>
    <path d="M495.65,297.56L498.06,297.67L502.08,299.13L502.67,297.07L506.68,297.07L508.99,298.75L510.66,298.5L516.5,299.03L517.63,299.8L519.32,302.76L520.49,301.96L520.36,305.9L521.51,306.35L521.33,310.19L522.39,311.23L522.93,314.65L525.82,316.35L526.72,319.11L525.05,320.64L523.54,323.04L521.33,325.48L520.92,326.77L523.59,327.29L524.74,329.1L525.8,332.24L525.69,333.49L521.62,332.45L518.71,333.7L517.65,335.3L516.46,335.33L515.24,338.61L513.03,339.86L511.13,338.74L509.46,338.85L509.62,341.04L508.47,344.83L507.18,343.62L506.17,344.52L507.18,347.58L508.11,348.49L507.79,350.33L507.84,350.54L507.32,351.51L504.56,350.36L504.25,352.42L501.47,353.67L500.43,355.23L498.88,356.03L496.51,355.65L493.48,357.07L492.54,359.89L490.66,360.06L489.4,358.43L491.95,356.34L490.41,355.3L494.34,352.52L494.36,348.94L494.88,347.23L491.99,345.6L487.84,345.7L483.96,344.49L479.72,342.71L478.18,341.67L478.39,339.09L477.08,338.92L475.41,337.46L472.59,336.97L473.2,334.5L472.59,333.25L470.24,332.97L467.06,333.66L464.06,334.92L461.94,334.36L457.38,335.96L455.75,335.72L454.51,334.46L456.36,333.32L456,332.06L454.22,331.96L453.77,330.57L455.84,328.3L457.58,325.69L459.97,325.93L461.94,325.24L462.7,323.95L463.24,321.2L465.75,318.41L466.38,315.55L466.18,314.02L471.62,307.61L472.97,308.51L474.46,311.96L478.77,311.79L478.5,310.19L479.7,308.55L478.34,303.95L476.22,301.96L475.95,300.46L476.72,297.81L478.07,297.7L483.33,295.19L486.58,295.89L487.55,298.5L492.92,299.34Z" class="land" id="LU-LU" title="Luxembourg"/>
    <path d="M517.92,279.2L519.95,279.27L525.05,282.03L526.34,283.05L529.43,283.12L530.47,284.48L533.04,284.83L534.22,282.87L535.46,283.85L537.83,284.37L540.26,284.06L539.16,280.57L539.45,278.65L541.05,277.35L542.77,277.91L543.56,280.43L545.61,281.19L544.91,282.38L547.33,284.09L548.43,286.08L551.03,286.5L553.26,283.46L559.26,284.16L560.69,286.29L563.01,287.83L565.04,288.25L567.14,290.93L565.31,290.93L563.91,291.74L567.03,294.98L567.14,296.73L562.94,299.66L562.29,300.91L559.35,301.68L558.74,302.41L555.63,302.72L554.07,305.24L551.82,307.54L547.48,309.21L546.56,310.05L546.94,311.86L550.01,313.18L550.64,316.18L547.85,323.57L548.12,325.62L544.01,328.93L542.61,331.44L540.53,331.19L539.13,333.07L538.73,332.2L540.22,330.29L539.68,328.3L537.78,325.1L533.58,324.19L530.54,320.26L526.72,319.11L525.82,316.35L522.93,314.65L522.39,311.23L521.33,310.19L521.51,306.35L520.36,305.9L520.49,301.96L519.32,302.76L517.63,299.8L516.5,299.03L510.66,298.5L508.99,298.75L506.68,297.07L502.67,297.07L502.08,299.13L498.06,297.67L495.65,297.56L499.06,296.59L498.94,294.18L500.14,293.73L500.59,290.83L500.32,288.49L502.74,286.61L503.77,286.4L509.48,281.51L510.34,279.06L510.2,277.35L511.87,277.49Z" class="land" id="LU-GR" title="Grevenmacher"/>
    <path d="M565.04,288.25L563.01,287.83L560.69,286.29L559.26,284.16L553.26,283.46L551.03,286.5L548.43,286.08L547.33,284.09L544.91,282.38L545.61,281.19L543.56,280.43L542.77,277.91L541.05,277.35L539.45,278.65L539.16,280.57L540.26,284.06L537.83,284.37L535.46,283.85L534.22,282.87L533.04,284.83L530.47,284.48L529.43,283.12L526.34,283.05L525.05,282.03L519.95,279.27L517.92,279.2L518.64,274.66L519.89,272.43L519.59,270.54L518.37,269.56L516.55,269.81L515.46,266.94L515.62,265.61L513.18,265.61L511.74,263.55L511.58,261.32L511.18,258.48L513.48,257.4L513.32,254.95L515.82,253.62L514.65,252.22L514.29,249.08L515.82,246.42L514,245.02L515.33,243.51L517.13,244.14L519.73,244.04L521.92,244.6L521.65,241.38L523.07,240.05L524.71,243.37L523.86,245.12L523.9,246.8L525.26,248.55L527.99,247.29L528.73,244.53L530.88,243.2L534.49,243.72L536.16,246.8L539.86,250.96L540.99,252.78L543.67,255.13L547.06,255.79L548.18,258.03L550.44,256.88L552.52,258.03L554.3,257.85L555.11,256.18L557.3,254.04L559.51,256.18L559.83,257.36L562.83,258.34L564.66,259.67L565.58,262.5L566.87,260.86L566.96,258.76L568.2,258.03L569.55,260.09L567.46,264.5L565.24,265.44L564.66,267.57L566.6,269.18L565.51,271.17L565.47,273.34L566.91,275.15L566.53,278.72L563.75,280.53L564.61,284.44Z" class="land" id="LU-EC" title="Echternach"/>
    <path d="M507.84,350.54L508.04,351.3L508.78,354.08L509.66,355.41L508.33,357.49L509.28,359.3L507.68,361.94L504.45,361.77L502.74,362.95L501.29,362.84L496.82,363.92L493.98,363.5L493.33,362.29L491.02,364.41L487.84,366.32L487.57,368.65L485.43,369.97L484.57,369.06L481.46,369.2L480.71,373.2L480.06,374.65L478.41,375.73L476.78,375L475.45,375.73L473.83,379.06L474.05,382.6L472.34,383.02L470.44,381.84L469,378.65L464.64,377.81L463.2,378.65L460.51,384.58L459.61,385.42L456.27,384.83L456.34,382.92L452.28,384.34L450.29,383.02L446.23,385.07L447.79,381.04L446.86,380.14L445.15,381.35L444.33,376.98L445.46,373.68L443.91,372.12L444.33,371.11L439.89,370.94L436.93,368.82L433.59,367.46L430.82,366.98L429.58,368.3L426.46,369.86L423.46,369.31L421.75,370.03L420.12,369.86L417.71,367.57L416.53,367.33L415.88,364.82L414.05,363.64L412.88,361.49L413.19,359.99L414.86,359.4L415.13,357.35L416.15,355.61L415.02,351.89L414.01,352.48L413.31,354.71L411.16,355.44L409.11,356.93L407.24,354.36L409.22,353.88L409.76,352.07L410.89,351.48L412.72,349.01L416.46,348.59L417.32,345.77L418.88,344.21L420.23,343.96L422.15,341.77L424.32,345.04L426.08,345.01L426.69,347.51L426.03,350.71L428.45,350.82L430.64,348.73L433.86,347.41L435.87,347.02L438.4,345.53L439.48,344L441.51,345.15L443.79,341.32L448.51,342.12L448.4,343.3L451.19,343.06L453.16,341.01L454.33,338.43L456.77,337.07L457.38,335.96L461.94,334.36L464.06,334.92L467.06,333.66L470.24,332.97L472.59,333.25L473.2,334.5L472.59,336.97L475.41,337.46L477.08,338.92L478.39,339.09L478.18,341.67L479.72,342.71L483.96,344.49L487.84,345.7L491.99,345.6L494.88,347.23L494.36,348.94L494.34,352.52L490.41,355.3L491.95,356.34L489.4,358.43L490.66,360.06L492.54,359.89L493.48,357.07L496.51,355.65L498.88,356.03L500.43,355.23L501.47,353.67L504.25,352.42L504.56,350.36L507.32,351.51Z" class="land" id="LU-ES" title="Esch-sur-Alzette"/>
    <path d="M539.13,333.07L538.64,334.99L539.92,338.88L537.04,337.74L535.48,338.88L536.22,341.6L539.45,344.97L539.02,347.89L537.08,349.39L536.18,351.27L534.51,352.59L533.97,354.43L535.48,362.29L534.67,373.13L534.08,374.27L534.03,378.51L533.31,381.11L532.03,382.26L530.74,378.96L532.77,379.31L531.26,376.15L530.18,377.05L529.05,375.59L527.33,376.56L525.35,373.51L522.66,371.88L521.53,372.36L518.53,369.97L516.86,365.73L516.82,362.84L513.95,363.02L513.09,361.45L510.95,361.77L509.28,359.3L508.33,357.49L509.66,355.41L508.78,354.08L508.04,351.3L507.79,350.33L508.11,348.49L507.18,347.58L506.17,344.52L507.18,343.62L508.47,344.83L509.62,341.04L509.46,338.85L511.13,338.74L513.03,339.86L515.24,338.61L516.46,335.33L517.65,335.3L518.71,333.7L521.62,332.45L525.69,333.49L525.8,332.24L524.74,329.1L523.59,327.29L520.92,326.77L521.33,325.48L523.54,323.04L525.05,320.64L526.72,319.11L530.54,320.26L533.58,324.19L537.78,325.1L539.68,328.3L540.22,330.29L538.73,332.2Z" class="land" id="LU-RM" title="Remich"/>
    <path d="M461.57,209.67L461.85,208.24L460.63,206.52L461.73,205.08L457.38,203.29L458.17,200.59L460.06,197.99L463.47,197.4L465.59,192.17L465.41,191.4L461.94,192.9L461.57,191.18L458.62,192.59L454.4,191.32L452.95,189.01L451.13,188.69L447.22,186.37L444.22,181.7L441.06,183.64L439.32,183.46L437.81,185.04L435.26,186.06L434.18,187.71L435.04,189.5L433.64,189.89L432.92,191.5L430.84,192.73L429.62,194.8L428.27,194.48L426.01,195.57L421.79,192.55L421.93,195.85L418.95,197.22L418.7,196.31L413.82,196.48L412.97,196.24L411.68,193.47L412.54,190.38L412.34,188.8L415.83,186.73L417.44,186.37L419.9,183.28L419.62,181.53L420.82,180.79L422.06,178.65L421.52,177.14L418.07,174.29L418.83,170.88L419.9,171.8L423.35,168.84L425.65,168.04L425.38,164.84L426.89,160.48L427.41,156.89L430,154.15L440.39,146.02L443.03,143.09L444.36,139.05L445.49,138.13L444.63,135.63L444.63,132.85L446.88,131.86L449.41,132.18L452.14,130.77L454.94,128.58L457.9,131.02L459.02,134.54L461.24,136.55L462.16,136.72L467.74,139.64L472.36,137.64L472.68,134.78L474.19,133.45L475.79,133.38L478.7,135.03L479.4,136.97L478.59,138.55L480.26,140.81L478.86,142.57L478.86,144.75L482.52,147.11L481.43,149.71L480.89,152.53L481.97,157.45L480.3,158.12L479.4,161.11L479.67,165.05L478.27,167.58L480.03,167.47L478.97,171.06L477.69,172.57L480.42,175.42L481.93,178.68L481.12,182.27L482.45,184.37L484.43,185.22L484.34,186.8L482.63,187.71L483.1,189.89L484.66,189.78L485.25,191.4L484.66,193.78L486.69,197.61L488.04,197.61L489.76,198.94L488.68,201.47L486.8,200.48L483.24,202.24L482.16,201.75L480.37,202.8L478.75,201.75L478.36,199.57L477.42,198.73L473.85,198.2L471.68,198.06L472.02,199.99L469.79,200.03L469.47,201.36L467.13,206.24L466.18,207.64L464.64,208.1L464.08,210.06Z" class="land" id="LU-CL" title="Clervaux"/>
  </g>
</svg>