<?xml version="1.0" encoding="UTF-8"?>
<svg xmlns="http://www.w3.org/2000/svg" width="209.88" height="262.3" viewBox="375.06 125.85 209.88 262.3" style="background-color:#000000">
  <!-- Created using SVG Map Generator: dojo.amcharts.com/svg-map-generator -->
  <style>
    .land { fill: #ffffff; stroke: #000000; stroke-width: 0.65; }
  </style>
  <g id="polygons">
    <path d="M519.18,278.01L519.57,273.25L517.91,268.53L515.53,269.66L516.21,266.41L511.81,262.56L513.01,257.33L518.45,255.46L521.6,259.25L524.7,255.29L527.73,255L528.14,250.35L531.46,246.38L535.53,249.97L535.18,255.77L532.03,257.1L532.15,260.02L535.99,262.27L539.66,260.26L542.41,261.93L542.06,268.59L540.86,266.06L537.76,265.77L536.62,269.4L537.88,271.52L538.63,273.48L532.72,273.31L526.3,277.73L524.81,281.76L522,278.31Z" class="land" id="MD-AN" title="Anenii Noi"/>
    <path d="M443.6,189.37L443.58,189.2L446.98,188.72L450.51,186.55L453.72,189.34L457.88,189.08L457.62,194.22L451.21,194.45L450.62,194.71L443.16,189.87Z" class="land" id="MD-BA" title="Bălţi"/>
    <path d="M542.94,272.87L538.51,273.11L537.88,271.52L536.62,269.4L537.76,265.77L540.86,266.06L542.06,268.59Z" class="land" id="MD-BD" title="Tighina"/>
    <path d="M410.52,138.83L409.46,141.74L412.88,144.24L413.35,148.88L409.9,151.76L402.85,149.48L402.55,155.15L399.31,158.98L395.77,158L395.2,154.1L392.11,152.83L385.88,148.27L383.53,149.47L377.71,148.09L380.07,143.79L386.22,144.52L384.92,137.62L388.25,137.31L389.05,135.01L395.2,139.65L397.99,138.08L400.4,134.67L404.37,136.94Z" class="land" id="MD-BR" title="Briceni"/>
    <path d="M501.86,305.21L501.46,303.38L505.07,301.53L508.97,297.57L512.29,298.14L515.36,301.59L510.4,304.47L511.2,308.78L513.38,313.38L511.33,319.1L505.53,316.37L503.3,318.15L498.36,318.55L499.39,314.7L505.42,312.98L505.87,309.7L501.81,305.85Z" class="land" id="MD-BS" title="Basarabeasca"/>
    <path d="M483.92,335.89L480.63,337.21L480,342.61L480.29,348.08L482.13,350.89L480.77,351.82L477.25,352.16L478.57,356.64L481.55,357.22L486.82,362.96L485.84,365.17L484.58,365.29L480.86,365.7L474.61,363.05L473.35,363.57L474.21,373.74L472.66,375.58L474.04,378.58L472.61,380.91L467.01,385.5L465.33,378.12L460.69,375.52L462.94,372.69L465.76,371.68L465.67,364.73L462.36,356.21L462.66,349.93L460.65,339.66L461.44,333.68L464.64,332.84L469.05,333.81L471.63,333.18L473.87,335.54L479.66,335.42L480.23,332.61L483.2,331.28ZM487.12,375.76L481.83,377.14L481.2,371.22L484.18,369.95L485.59,370.83Z" class="land" id="MD-CA" title="Cahul"/>
    <path d="M484.96,220.85L485.1,226.09L487.45,228.69L484.41,231.14L481.89,235.46L482.06,240.29L475.13,244.02L471.11,243.85L463.95,240.11L460.23,238.91L458.05,236.05L462.63,229.43L466.93,225.87L467.55,220.69L476.99,222.75L484.04,221.14Z" class="land" id="MD-CL" title="Călăraşi"/>
    <path d="M495.59,278.4L500.37,279.81L503.87,282.1L504.38,278.94L508.11,278.83L509.28,283.71L511.66,290.49L517.22,288.94L517.22,299.06L515.36,301.59L512.29,298.14L508.97,297.57L505.07,301.53L501.46,303.38L501.86,305.21L501.81,305.96L487.82,302.62L485.38,301.31L487.82,298.49L489.03,293.31L488.28,285.56L490.4,281.7Z" class="land" id="MD-CM" title="Cimişlia"/>
    <path d="M513.75,231.34L516.73,236.29L520.63,236.98L524.36,235.49L527.51,237.46L524.34,239.18L521.78,243.88L519.48,244.39L517.16,248.33L514.73,249.68L509.34,249.8L507.79,245.72L504.53,245.66L503.44,247.9L499.37,245.43L500.69,241.52L501.09,236ZM513.01,257.33L511.92,254L519.2,253.36L519.91,250.46L525.67,244.05L528.25,242.87L531.46,246.38L528.14,250.35L527.73,255L524.7,255.29L521.6,259.25L518.45,255.46Z" class="land" id="MD-CR" title="Criuleni"/>
    <path d="M538.51,273.11L542.94,272.87L545.11,274.89L548.39,274.89L553.29,272.93L555.41,280.03L553.13,284.44L552.94,284.47L549.49,288.05L546.49,288.11L543.79,290.48L541.83,289.72L538.61,292.26L537.34,295.72L540.23,300.38L535.18,304.41L532.78,301.13L527.62,310.84L525.21,309.92L527.05,305.79L527.84,298.44L526.48,294.86L523.65,295.89L523,298.37L517.22,299.06L517.22,288.94L511.66,290.49L509.28,283.71L512.52,283.94L517.39,280.55L519.18,278.01L522,278.31L524.81,281.76L526.3,277.73L532.72,273.31L538.63,273.48Z" class="land" id="MD-CS" title="Căuşeni"/>
    <path d="M461.44,333.68L463.05,325.72L461.51,322.55L462.51,319.96L466.74,315.93L465.45,313.12L468.04,308.08L473.44,307.91L478.08,310.27L478.54,307.8L484.43,312.11L483.38,315.76L486.93,317.89L486.02,325.3L481.89,326.17L483.2,331.28L480.23,332.61L479.66,335.42L473.87,335.54L471.63,333.18L469.05,333.81L464.64,332.84Z" class="land" id="MD-CT" title="Cantemir"/>
    <path d="M519.91,250.46L519.2,253.36L511.92,254L513.01,257.33L511.81,262.56L516.21,266.41L515.53,269.66L513.93,271.21L508.94,268.57L506.13,268.39L504.07,262.41L498.79,260.06L498.45,258.33L493.42,254.06L493.47,254L493.41,250.31L498.45,248.53L499.37,245.43L503.44,247.9L504.53,245.66L507.79,245.72L509.34,249.8L514.73,249.68L517.16,248.33Z" class="land" id="MD-CU" title="Chişinău"/>
    <path d="M424.72,153.47L425.7,146.45L427.24,142.55L434.73,141.29L437.38,139.3L442.3,141.52L445.39,137.83L449.57,137.54L450.47,140.61L447.19,144.24L451.6,147.05L447.48,149.77L446.01,150.43L441.01,153.24L438.59,158.83L434.25,161.93L437.78,165.84L435.43,167.24L427.96,164.14L427.02,163.11L427.09,156.4L424.89,154.56Z" class="land" id="MD-DO" title="Donduşeni"/>
    <path d="M456.77,171.58L458.28,175.6L456.95,179.74L454.53,184.37L450.04,185.7L444.61,184.89L439.1,178.4L433.88,176.33L432.86,171.17L435.43,167.24L437.78,165.84L434.25,161.93L438.59,158.83L441.01,153.24L446.01,150.43L446.95,150.01L449.1,153.52L453.14,153.9L458.13,158.83L460.41,162.45L459.02,166.72L455.42,169.08Z" class="land" id="MD-DR" title="Drochia"/>
    <path d="M533.54,224.13L533.9,224.61L533.98,225.62L525.61,229.88L524.36,235.49L520.63,236.98L516.73,236.29L513.75,231.34L515.93,229.1L514.15,226.11L519.46,222.09L523.72,227.23L532.39,225.45ZM528.25,242.87L525.67,244.05L519.91,250.46L517.16,248.33L519.48,244.39L521.78,243.88L524.34,239.18L527.51,237.46L532.09,237.18Z" class="land" id="MD-DU" title="Dubăsari"/>
    <path d="M424.66,153.09L424.89,154.56L427.09,156.4L427.02,163.11L427.96,164.14L425.92,167.6L422.9,169.52L419.67,169.01L412.47,170.63L411.44,174.6L408.36,176.52L406.17,170.3L403.41,169.62L400.11,164.72L399.31,158.98L402.55,155.15L402.85,149.48L409.9,151.76L413.35,148.88L412.88,144.24L414.16,141.22L418.64,139.6L418.05,144.98L418.86,148.15Z" class="land" id="MD-ED" title="Edineţ"/>
    <path d="M432.48,226.51L430.54,221.8L431.42,218.53L425.23,215.26L422.71,208.18L428.9,203.37L432.8,204.12L437.05,195.96L439.41,197.39L442.28,194.13L443.16,189.87L450.62,194.71L450.93,194.57L450.51,197.98L453.15,202.17L452.12,209.01L453.95,212.34L453.21,216.14L451.24,216.58L448.45,216.71L447.48,220.45L441.4,220.56L436.88,222.75L434.7,226.14Z" class="land" id="MD-FA" title="Făleşti"/>
    <path d="M484.59,163.76L485.72,159.76L493.75,163.72L487.16,168.43L488.94,170.67L491.75,167.8L495.3,168.89L498.57,172.97L495.24,177.45L495.24,180.1L490.14,181.14L487.79,179.47L482.24,181.94L480.23,187.69L484.07,187.91L485.84,194.75L482.98,197.92L478.49,198.21L477.91,197.63L467.19,189.64L456.95,179.74L458.28,175.6L456.77,171.58L464.38,171.65L468.57,172.91L470.99,171.07L480.54,172.39L486.72,167.09Z" class="land" id="MD-FL" title="Floreşti"/>
    <path d="M485.38,301.31L487.82,302.62L501.81,305.96L501.81,305.85L505.87,309.7L505.42,312.98L499.39,314.7L498.36,318.55L503.3,318.15L505.53,316.37L511.33,319.1L513.84,321.73L508.42,328.01L509.34,333.24L505.1,335.83L507.04,342.75L501.66,343.91L498.57,338.53L495.07,339.74L496.62,344.28L492.61,345.37L489.05,347.9L484.64,345.95L487.68,342.38L484.07,340.94L486.36,337.15L483.92,335.89L483.2,331.28L481.89,326.17L486.02,325.3L486.93,317.89L483.38,315.76L484.43,312.11L487.99,311.14L487.82,307.57L484.9,304.18ZM484.58,365.29L484.18,369.95L481.2,371.22L481.83,377.14L487.12,375.76L484.87,377.35L485.93,381.13L482.84,382.63L472.61,380.91L474.04,378.58L472.66,375.58L474.21,373.74L473.35,363.57L474.61,363.05L480.86,365.7ZM498.9,351.76L499.51,354.54L494.94,357.28L489.23,358.65L486.36,356.36L486.24,354.11Z" class="land" id="MD-GA" title="Unitatea Teritorială Autonomă Găgăuzia (UTAG)"/>
    <path d="M422.71,208.18L415.5,200.73L413.29,196.63L414.83,192.65L418.2,188.04L425.81,183.55L434.28,186.27L440.15,184.3L443.54,188.82L443.6,189.37L443.16,189.87L442.28,194.13L439.41,197.39L437.05,195.96L432.8,204.12L428.9,203.37Z" class="land" id="MD-GL" title="Glodeni"/>
    <path d="M473.3,251.18L477.25,253.07L482.06,251.58L484.3,252.5L487.94,262.5L492.92,267.27L495.45,266.75L497.68,270.49L495.59,278.4L490.4,281.7L488.28,285.56L483.01,285.79L480.09,282.85L476.13,284.52L477.05,286.59L476.24,290.9L473.67,290.96L471.32,288.02L468.75,288.72L465.49,280.32L464.94,276.1L462.06,271.72L460.96,265.56L462.41,263.51L469.45,264.6L469.11,258.16L473.06,256.72L473.24,251.26Z" class="land" id="MD-HI" title="Hînceşti"/>
    <path d="M515.53,269.66L517.91,268.53L519.57,273.25L519.18,278.01L517.39,280.55L512.52,283.94L509.28,283.71L508.11,278.83L504.38,278.94L503.87,282.1L500.37,279.81L495.59,278.4L497.68,270.49L495.45,266.75L492.92,267.27L487.94,262.5L484.3,252.5L488.65,256.7L493.12,254.57L493.42,254.06L498.45,258.33L498.79,260.06L504.07,262.41L506.13,268.39L508.94,268.57L513.93,271.21Z" class="land" id="MD-IA" title="Ialoveni"/>
    <path d="M468.04,308.08L468.97,302.19L466.76,299.09L467.98,295.98L468.75,288.72L471.32,288.02L473.67,290.96L476.24,290.9L477.05,286.59L476.13,284.52L480.09,282.85L483.01,285.79L488.28,285.56L489.03,293.31L487.82,298.49L485.38,301.31L484.9,304.18L487.82,307.57L487.99,311.14L484.43,312.11L478.54,307.8L478.08,310.27L473.44,307.91Z" class="land" id="MD-LE" title="Leova"/>
    <path d="M458.05,236.05L460.23,238.91L463.95,240.11L471.11,243.85L470.89,248.39L473.69,250.57L473.24,251.26L473.06,256.72L469.11,258.16L469.45,264.6L462.41,263.51L460.96,265.56L460.08,258.63L458.38,256.9L457.25,252.02L453.12,248.87L452.27,244.49L454.21,241.67L453.75,238.23Z" class="land" id="MD-NI" title="Nisporeni"/>
    <path d="M449.57,137.54L445.39,137.83L442.3,141.52L437.38,139.3L434.73,141.29L427.24,142.55L425.7,146.45L424.72,153.47L424.66,153.09L418.86,148.15L418.05,144.98L418.64,139.6L414.16,141.22L412.88,144.24L409.46,141.74L410.52,138.83L412.47,138.15L414.5,133.56L418.05,130.87L421.18,133.37L425.19,130.42L431.61,128.5L432.8,131.18L436.31,133.1L439.24,131.18L443.28,131.68L448.11,135.16Z" class="land" id="MD-OC" title="Ocniţa"/>
    <path d="M519.46,222.09L514.15,226.11L515.93,229.1L513.75,231.34L501.09,236L500.69,241.52L497.59,240.54L491.97,232.78L491.35,229.62L487.45,228.69L485.1,226.09L484.96,220.85L485.47,220.68L487.42,219.36L488.28,214.88L492.69,211.89L496.42,210.79L496.76,205.04L496.96,204.87L500.57,209.01L505.1,209.7L508.71,206.94L515.46,212.63L521.33,217.52Z" class="land" id="MD-OR" title="Orhei"/>
    <path d="M491.79,197.36L492.32,196.88L493.98,194.35L498.51,194.87L500,190.97L504.58,189.64L508.08,186.36L510.6,181.59L514.06,183.84L513.31,188.15L513.66,193.95L513.42,206.14L515.49,207.98L515.46,212.63L508.71,206.94L505.1,209.7L500.57,209.01L496.96,204.87L496.67,204.24L491.69,200.05Z" class="land" id="MD-RE" title="Rezina"/>
    <path d="M408.36,176.52L411.44,174.6L412.47,170.63L419.67,169.01L422.9,169.52L425.92,167.6L427.96,164.14L435.43,167.24L432.86,171.17L433.88,176.33L439.1,178.4L444.61,184.89L450.04,185.7L450.51,186.55L446.98,188.72L443.58,189.2L443.54,188.82L440.15,184.3L434.28,186.27L425.81,183.55L418.2,188.04L414.83,192.65L410.91,187.34L411.96,185.51L410.47,180.18Z" class="land" id="MD-RI" title="Rîşcani"/>
    <path d="M485.84,194.75L484.07,187.91L480.23,187.69L482.24,181.94L487.79,179.47L490.14,181.14L495.24,180.1L495.24,177.45L498.57,172.97L501.85,173.09L504.26,177.17L504.09,179.52L510.6,181.59L508.08,186.36L504.58,189.64L500,190.97L498.51,194.87L493.98,194.35L492.32,196.88L491.75,197.4L489.05,195.04Z" class="land" id="MD-SD" title="Şoldăneşti"/>
    <path d="M450.93,194.57L451.21,194.45L457.62,194.22L457.88,189.08L453.72,189.34L450.51,186.55L450.04,185.7L454.53,184.37L456.95,179.74L467.19,189.64L477.91,197.63L478.77,198.49L479.17,204.3L477.45,205.85L478.02,209.88L468.39,209.3L464.09,210.91L464.79,219.01L451.24,216.58L453.21,216.14L453.95,212.34L452.12,209.01L453.15,202.17L450.51,197.98Z" class="land" id="MD-SI" title="Sîngerei"/>
    <path d="M566.42,294.94L562.6,291.86L557.48,291.34L558.98,285.39L553.57,284.35L553.13,284.44L555.41,280.03L553.29,272.93L548.39,274.89L545.11,274.89L542.94,272.87L542.06,268.59L542.41,261.93L539.66,260.26L535.99,262.27L532.15,260.02L532.03,257.1L535.18,255.77L535.53,249.97L531.46,246.38L528.25,242.87L532.09,237.18L527.51,237.46L524.36,235.49L525.61,229.88L533.98,225.62L533.9,224.61L536.38,224.07L537.15,230.55L542.29,230.58L542.23,225.91L545.89,224.81L547.34,226.46L548.38,234.15L545.97,235.35L547.59,243.52L542.75,245.31L545.98,248.98L549.81,248.64L548.99,259.12L551.82,263.32L555.29,262.5L559.11,268.36L565.21,266.79L565.27,269.74L568.6,273.62L570.8,278.16L570.6,286.07L569.31,287.25L571.17,291.19L570.77,294.29ZM533.54,224.13L532.39,225.45L523.72,227.23L519.46,222.09L521.33,217.52L515.46,212.63L515.49,207.98L513.42,206.14L513.66,193.95L513.31,188.15L514.06,183.84L510.6,181.59L504.09,179.52L504.26,177.17L501.85,173.09L498.57,172.97L495.3,168.89L491.75,167.8L488.94,170.67L487.16,168.43L493.75,163.72L485.72,159.76L485.86,157.18L488.5,155.15L493.74,157.07L496.41,159.33L503.37,159.03L506.27,161.51L505.39,167.46L510.21,173.92L513.26,172.85L515.74,175.62L518.5,175.53L519.47,172.35L524,171.91L525.22,180.2L528.17,180.42L525.78,186.24L529.35,188.28L528.56,192.2L526.06,195.21L527.51,198.17L526.1,201.87L526.71,204.37L525.18,207.73L521.26,209.03L524.59,218.36L528.18,217.45L529.96,219.69L532.57,218.54Z" class="land" id="MD-SN" title="Unitatea Teritorială din Stînga Nistrului"/>
    <path d="M484.59,163.76L486.72,167.09L480.54,172.39L470.99,171.07L468.57,172.91L464.38,171.65L456.77,171.58L455.42,169.08L459.02,166.72L460.41,162.45L458.13,158.83L453.14,153.9L449.1,153.52L446.95,150.01L447.48,149.77L451.6,147.05L447.19,144.24L450.47,140.61L452.51,142.37L460.44,143.29L462.26,150.54L465.01,147.58L467.3,151.18L470.25,151.95L473.85,148.98L477.86,150.4L477.86,153.81L481.8,156.38L481.4,162.37Z" class="land" id="MD-SO" title="Soroca"/>
    <path d="M499.37,245.43L498.45,248.53L493.41,250.31L493.47,254L493.12,254.57L488.65,256.7L484.3,252.5L482.06,251.58L477.25,253.07L473.3,251.18L473.69,250.57L470.89,248.39L471.11,243.85L475.13,244.02L482.06,240.29L481.89,235.46L484.41,231.14L487.45,228.69L491.35,229.62L491.97,232.78L497.59,240.54L500.69,241.52Z" class="land" id="MD-ST" title="Străşeni"/>
    <path d="M566.42,294.94L569.69,297.85L572.49,298.08L573.29,300.85L576.39,304.86L578.11,303.89L582.29,306.93L577.13,310.1L569.17,308.95L565.39,312.74L561.35,307.78L560.29,303.61L557.54,305.15L553.49,304.68L553.98,309.59L549.63,310.96L547.44,309.59L546.87,306.02L542.87,304.7L540.23,300.38L537.34,295.72L538.61,292.26L541.83,289.72L543.79,290.48L546.49,288.11L549.49,288.05L552.94,284.47L553.57,284.35L558.98,285.39L557.48,291.34L562.6,291.86Z" class="land" id="MD-SV" title="Ştefan Vodă"/>
    <path d="M501.66,343.91L498.31,345.66L498.9,351.76L486.24,354.11L486.36,356.36L489.23,358.65L494.94,357.28L493.09,360.75L489.08,361.15L488.68,365.07L485.84,365.17L486.82,362.96L481.55,357.22L478.57,356.64L477.25,352.16L480.77,351.82L482.13,350.89L480.29,348.08L480,342.61L480.63,337.21L483.92,335.89L486.36,337.15L484.07,340.94L487.68,342.38L484.64,345.95L489.05,347.9L492.61,345.37L496.62,344.28L495.07,339.74L498.57,338.53ZM507.04,342.75L505.1,335.83L509.34,333.24L508.42,328.01L513.84,321.73L517.22,324.07L517.11,326.26L510.8,333.64L513.27,338.07L511.03,341.43Z" class="land" id="MD-TA" title="Taraclia"/>
    <path d="M496.76,205.04L496.42,210.79L492.69,211.89L488.28,214.88L487.42,219.36L485.47,220.68L484.04,221.14L476.99,222.75L467.55,220.69L464.79,219.01L464.09,210.91L468.39,209.3L478.02,209.88L477.45,205.85L479.17,204.3L478.77,198.49L478.49,198.21L482.98,197.92L485.84,194.75L489.05,195.04L491.75,197.4L491.79,197.36L491.69,200.05L496.67,204.24Z" class="land" id="MD-TE" title="Teleneşti"/>
    <path d="M432.48,226.51L434.7,226.14L436.88,222.75L441.4,220.56L447.48,220.45L448.45,216.71L451.24,216.58L464.79,219.01L467.55,220.69L466.93,225.87L462.63,229.43L458.05,236.05L453.75,238.23L454.21,241.67L452.27,244.49L453.12,248.87L457.25,252.02L458.38,256.9L452.04,253.7L448.84,249.48L444.14,245.43L443.81,242.1L439.38,232.45L435.01,231.35Z" class="land" id="MD-UN" title="Ungheni"/>
  </g>
</svg>