<?xml version="1.0" encoding="UTF-8"?>
<svg xmlns="http://www.w3.org/2000/svg" width="215.81" height="262.3" viewBox="372.1 125.85 215.81 262.3" style="background-color:#000000">
  <!-- Created using SVG Map Generator: dojo.amcharts.com/svg-map-generator -->
  <style>
    .land { fill: #ffffff; stroke: #000000; stroke-width: 0.65; }
  </style>
  <g id="polygons">
    <path d="M552.35,247.11L551.46,245.43L549.29,243.62L549.06,242.43L550.17,240.39L547.95,239.45L549.53,237.01L548.02,236.04L552.25,232.78L553.81,230.59L554.9,227.69L555.45,224.91L557.47,218.7L558.3,217.09L559.86,216.38L561.09,217.61L562.97,215.4L566.6,215.67L568.29,217.44L570.63,217.61L572.09,220.07L574.21,220.86L575.83,220.9L577.91,222.41L579.22,222.4L580.99,223.62L582.19,222.5L585.18,222.74L584.69,228.15L584.72,230.19L584.14,231.56L584.72,233.47L584.47,235.1L585.25,236.01L585.23,237.64L582.61,236.92L579.73,240.05L579.01,239.14L576.96,239.14L574.21,240.64L571.78,244.76L569.86,245.3L569.92,247.92L568.85,247.74L567.98,250.35L564.08,250.61L562.34,251.11L560.67,249.91L556.32,248.56L553.62,246.83Z" class="land" id="ME-17" title="Rožaje"/>
    <path d="M496.09,176.91L499.43,176.91L500.73,179.23L502.67,180.92L504.75,183.77L505.17,187.47L506.37,188.23L510.9,188.52L517.42,188.07L519.88,189.46L522.43,188.89L522.84,190.28L522.77,193.21L523.55,193.21L528.03,197.13L528.94,198.82L530.5,197.57L533.28,198.93L535.76,199L538.94,199.99L542.04,200.02L543.22,198.85L545.94,204.23L548.47,206.59L553.35,209L555.69,209.13L554.73,210.79L552.09,213.53L554.43,213.49L552.35,214.4L551.25,214.3L547.58,216.58L546.25,217.1L544.79,216.13L541.85,218.91L538.74,219.1L533.75,224.74L532.18,224.81L526.95,221.57L526.82,218.83L525.42,218.79L523.96,220.65L524.13,222.42L522.92,224.11L518.45,225.08L516.79,226.9L514.16,226.23L510.59,226.94L507.96,227.08L507.45,223.3L505.76,222.77L502.54,219.85L503.49,218.34L504.43,214.47L504.23,212.88L502.29,211.15L499.98,211.43L498.42,209.71L495.05,209.71L490.63,206.02L486.48,205.81L484.04,206.1L481.29,203.6L480.5,202.47L481.65,199.63L481.46,197.98L483.91,197.88L485.77,195.97L486.56,193.48L488.65,190.49L491.38,187.89L490.71,185.36L491.72,181.3L492.51,180.48L495.23,179.7Z" class="land" id="ME-04" title="Bijelo Polje"/>
    <path d="M534.48,288.42L533.22,285.58L534.25,283.58L533.89,281.95L534.18,279.73L533.35,278.75L533.63,277.3L535.29,277.44L535.89,275.04L534.48,274.94L532.88,273.23L528.15,273L526.23,269.66L526.71,267.75L529.54,265.62L529.59,264.06L533.57,260.43L534.81,259.91L538.23,259.14L543.71,258.5L544.45,260.41L545.82,261.87L548.42,262.51L550.96,262.18L553.21,264.42L557.16,266.14L555.74,267.83L554.68,269.91L553.28,271.23L552.94,274.43L553.79,278.63L552.96,280.99L550.38,280.85L549.4,282.22L545.96,283.02L545.96,284.69L544.79,287.93L539,287.72L538.12,286.88Z" class="land" id="ME-13" title="Plav"/>
    <path d="M533.75,224.74L538.03,226.08L538.84,226.94L539.65,229.67L542.8,232.59L545.03,233.78L545.54,235.03L548.02,236.04L549.53,237.01L547.95,239.45L550.17,240.39L549.06,242.43L549.29,243.62L551.46,245.43L552.35,247.11L550.6,248.96L547.59,249.37L546.82,251.17L544.89,251.63L544.09,253.27L544.97,254.55L544.29,256.48L543.05,256.76L543.71,258.5L538.23,259.14L534.81,259.91L533.81,258.26L528.89,255.66L527.65,254.71L526.94,251.2L529.12,246.86L527.18,245.37L525.19,246.43L522.04,244.57L517.16,243.08L514.28,242.67L511.75,240.23L509.45,241.07L507.61,238.99L507.61,237.67L506.61,236.65L507.7,235.24L507.15,234.02L504,232.74L504.23,231.31L505.4,229.76L506.44,229.65L507.96,227.08L510.59,226.94L514.16,226.23L516.79,226.9L518.45,225.08L522.92,224.11L524.13,222.42L523.96,220.65L525.42,218.79L526.82,218.83L526.95,221.57L532.18,224.81Z" class="land" id="ME-03" title="Berane"/>
    <path d="M534.81,259.91L533.57,260.43L529.59,264.06L529.54,265.62L526.71,267.75L526.23,269.66L525.17,273.37L524.4,274.46L521.95,274.15L518.66,272.54L518.09,271.96L518.22,268.01L516.68,267.7L515.38,265.24L512.19,266.14L511.62,267.73L509.72,269.94L507.37,270.37L506.68,267.06L506.78,262.21L506.88,260.31L508.82,256.52L508.95,253.46L507.72,250.15L508.59,247.41L506.94,244.7L503.76,243.39L503.79,241.98L505.8,241.15L504.67,238.93L505.45,236.85L506.61,236.65L507.61,237.67L507.61,238.99L509.45,241.07L511.75,240.23L514.28,242.67L517.16,243.08L522.04,244.57L525.19,246.43L527.18,245.37L529.12,246.86L526.94,251.2L527.65,254.71L528.89,255.66L533.81,258.26Z" class="land" id="ME-01" title="Andrijevica"/>
    <path d="M496.09,176.91L495.23,179.7L492.51,180.48L491.72,181.3L490.71,185.36L491.38,187.89L488.65,190.49L486.56,193.48L485.77,195.97L483.91,197.88L481.46,197.98L481.65,199.63L480.5,202.47L481.29,203.6L479.96,204.87L477.54,204.78L475.31,203.95L473.98,200.32L470.93,197.25L468.98,196.32L467.07,196.01L466.06,192.9L464.31,192.09L461.28,189.22L455.96,185.61L452.35,182.45L449.14,182L446.1,183.65L445,183.16L440.97,183.87L438.47,182.45L437.95,180.45L435.84,180L434.87,178.62L435.2,177.13L436.1,176.61L437.66,172.86L438.96,168.92L441.1,168.29L443.63,168.2L444.09,167.4L442.86,165.26L442.6,161.87L440.84,161.24L439.03,155.88L439.35,152.66L438.11,150.17L437.27,146.94L435.65,147.3L434.28,145.51L431.88,145.78L432.34,141.57L432.01,139.43L430.07,138.62L429.87,140.5L428.25,140.95L427.86,139.25L428.44,137.1L429.35,136.12L430.91,135.94L434.74,134.15L435.2,130.83L435.97,129.04L437.6,128.5L438.5,129.22L440.84,133.06L441.5,137.82L442.4,137.91L444.29,135.85L445.64,135.67L447.33,134.06L450.32,134.95L451.89,133.06L453.5,131.99L456.03,132.54L459.67,132.81L460.71,133.7L460.71,136.12L461.42,137.37L460.97,140.77L463.31,143.45L464.86,143.72L469.09,146.68L473,148.29L474.37,149.36L477.28,150.78L479.81,153.91L483.65,154.45L484.5,154.99L485.53,157.72L485.8,159.87L486.57,161.48L488.64,163.62L490.98,164.43L492.03,167.28L491.11,168.8L491.18,171.03L491.96,173.34Z" class="land" id="ME-14" title="Pljevlja"/>
    <path d="M437.62,196.47L439.33,198.93L438.79,202.06L440.43,203.19L446.09,202.98L448.58,201.8L449.28,202.77L448.47,205.49L451.31,207.56L452.35,207.88L453.84,206.98L454.61,204.57L458.36,206.44L458.86,207.56L460.97,208.52L460.31,212.15L462.13,212.73L465.68,212.79L467.17,214.49L468.21,214.97L468.78,214.97L468.77,215.01L470.22,216.5L470.69,219.2L473.5,224.08L473.47,227.02L471.35,226.51L467.53,228.25L465.63,228.39L461.2,227.58L458.42,228.04L457.69,228.64L457.48,230.85L455.92,233.39L455.87,235.34L453.37,236.65L451.67,238.38L449.69,235.61L444.66,232.99L439.63,228.46L437.56,227.57L436.26,227.64L432.78,224.81L434.13,223.63L434.28,222.11L435.97,219.82L435.55,218.38L432.17,216.37L428.07,214.7L426.85,213.38L426.6,212.03L427.58,210.65L429.22,207.1L430.05,206.59L431.03,203.29L431.55,198.54L433.29,197.22L436.18,198.82Z" class="land" id="ME-18" title="Šavnik"/>
    <path d="M433.57,175.44L432.03,177.57L431.9,182.53L432.86,187.72L432.88,190.34L433.53,192.53L437.62,196.47L436.18,198.82L433.29,197.22L431.55,198.54L431.03,203.29L430.05,206.59L429.22,207.1L427.58,210.65L426.6,212.03L426.85,213.38L428.07,214.7L432.17,216.37L435.55,218.38L435.97,219.82L434.28,222.11L434.13,223.63L432.78,224.81L429.69,223.38L426.26,222.77L424.13,223.33L420.27,223.02L417.62,221.5L415.92,219.65L414.37,218.88L410.55,214.8L408.99,211.74L408.63,209.83L406.4,203.36L403.84,200.29L402.02,201.63L399.84,199.46L398.51,199.22L398.24,191.99L399.54,189.31L400.08,185.07L400.73,183.81L404.23,181.33L405.21,179.37L403.39,177.04L403.26,175.98L405.6,174.29L406.83,172.86L409.5,171.08L412.34,169.73L420.01,165.63L419.1,162.33L419.69,161.61L422.93,160.91L424.43,161.16L427.14,160.73L428.84,163.58L430.91,165.27L430.26,170.54L433.18,172.77Z" class="land" id="ME-15" title="Plužine"/>
    <path d="M558.3,217.09L557.47,218.7L555.45,224.91L554.9,227.69L553.81,230.59L552.25,232.78L548.02,236.04L545.54,235.03L545.03,233.78L542.8,232.59L539.65,229.67L538.84,226.94L538.03,226.08L533.75,224.74L538.74,219.1L541.85,218.91L544.79,216.13L546.25,217.1L547.58,216.58L551.25,214.3L552.35,214.4L554.43,213.49L556.09,212.91L557.19,214.15L557.06,215.22Z" class="land" id="ME-23" title="Petnjica"/>
    <path d="M473.5,224.08L470.69,219.2L470.22,216.5L468.77,215.01L469,214.09L469.1,212.95L471.31,210.25L473.44,209.47L475.72,207.28L475.31,203.95L477.54,204.78L479.96,204.87L481.29,203.6L484.04,206.1L486.48,205.81L490.63,206.02L495.05,209.71L498.42,209.71L499.98,211.43L502.29,211.15L504.23,212.88L504.43,214.47L503.49,218.34L502.54,219.85L505.76,222.77L507.45,223.3L507.96,227.08L506.44,229.65L505.4,229.76L504.34,228.71L501.6,227.58L499.04,227.3L497.44,226.26L496.53,226.54L495.6,228.36L494.14,227.7L491.41,227.72L489.56,228.95L486.73,229.3L485.66,228.88L478.92,227.7L475.15,224.88Z" class="land" id="ME-11" title="Mojkovac"/>
    <path d="M468.78,214.97L468.21,214.97L467.17,214.49L465.68,212.79L462.13,212.73L460.31,212.15L460.97,208.52L458.86,207.56L458.36,206.44L454.61,204.57L453.84,206.98L452.35,207.88L451.31,207.56L448.47,205.49L449.28,202.77L448.58,201.8L446.09,202.98L440.43,203.19L438.79,202.06L439.33,198.93L437.62,196.47L433.53,192.53L432.88,190.34L432.86,187.72L431.9,182.53L432.03,177.57L433.57,175.44L435.2,177.13L434.87,178.62L435.84,180L437.95,180.45L438.47,182.45L440.97,183.87L445,183.16L446.1,183.65L449.14,182L452.35,182.45L455.96,185.61L461.28,189.22L464.31,192.09L466.06,192.9L467.07,196.01L468.98,196.32L470.93,197.25L473.98,200.32L475.31,203.95L475.72,207.28L473.44,209.47L471.31,210.25L469.1,212.95L469,214.09Z" class="land" id="ME-21" title="Žabljak"/>
    <path d="M534.48,288.42L533.69,290.77L532.39,291.22L531.39,290.05L530.29,291.66L526.44,293.2L525.59,294.35L522.13,292.19L520.79,289.94L518.82,289L518.24,285.81L516.82,282.81L517.92,279.1L517.96,277.03L520.33,276.58L520.14,274.82L518.66,272.54L521.95,274.15L524.4,274.46L525.17,273.37L526.23,269.66L528.15,273L532.88,273.23L534.48,274.94L535.89,275.04L535.29,277.44L533.63,277.3L533.35,278.75L534.18,279.73L533.89,281.95L534.25,283.58L533.22,285.58Z" class="land" id="ME-22" title="Gusinje"/>
    <path d="M475.93,352.18L476.06,355.74L475.12,358.92L475.32,361.72L476.13,363.22L475.36,367.1L476.74,368.4L475.77,369.41L473.48,369.46L472.83,370.05L472.83,372.55L474.9,374.9L474.8,375.5L472.34,376.87L472,377.89L474,378.89L474.75,380.69L475.86,380.96L475.06,382.99L475.06,385.18L474.03,385.5L471.73,382.79L468.61,379.84L465.84,378.9L462.38,377.28L461.72,377.54L458.91,375.36L456.21,373.68L453.39,371.47L454.22,369.59L451.99,367.3L452.65,364.91L455.5,364.79L460.56,367.74L462.61,367.32L463.54,366.14L463.27,364.58L462,363.09L462.4,362.28L461.47,360.41L458.74,358.71L458.56,356.71L459.18,355.89L461.11,355.62L459.58,353.2L458.06,352.45L457.23,350.52L458.25,349.76L462.31,351.99L462.68,354.14L467.99,354.48L471.95,352.77L475.35,352.77Z" class="land" id="ME-20" title="Ulcinj"/>
    <path d="M443.1,317.17L445.9,319.59L446.72,322.05L446.18,323.53L446.53,325.22L449.45,327.38L451.44,327.48L455.06,328.59L456.03,329.22L455.99,331.06L457.16,332.84L457.82,336.9L459.58,338.37L462.28,341.87L465.79,343.65L466.88,345.02L470.19,346.82L471.59,348.43L474.2,348.7L475.37,349.38L476.22,350.95L475.93,352.18L475.35,352.77L471.95,352.77L467.99,354.48L462.68,354.14L462.31,351.99L458.25,349.76L457.23,350.52L458.06,352.45L459.58,353.2L461.11,355.62L459.18,355.89L458.56,356.71L458.74,358.71L461.47,360.41L462.4,362.28L462,363.09L463.27,364.58L463.54,366.14L462.61,367.32L460.56,367.74L455.5,364.79L452.65,364.91L452.93,359.47L451.97,358.72L452.16,357.01L451.47,355.81L449,353.46L447.84,353.11L445.05,350.61L446.18,349.57L446.01,346.67L443.94,344.99L442.86,342.68L437.52,342L436.63,339.69L434.39,339.07L433.75,338.09L436.54,334.64L435.32,332.05L434.3,331.49L433.27,329.59L430.2,325.95L428.62,322.61L427.99,319.06L432.36,319.8L433.06,321.27L436.64,323.91L439.21,321.06L436.72,317.3L437.94,316.84L441.08,318.5Z" class="land" id="ME-02" title="Bar"/>
    <path d="M427.99,319.06L428.62,322.61L430.2,325.95L433.27,329.59L434.3,331.49L435.32,332.05L436.54,334.64L433.75,338.09L432.15,337.15L431.64,334.79L430.17,333.52L426.79,331.99L425.32,330.21L423.98,327.42L423.3,322.89L420.91,321.32L419.22,321.04L416.82,322.33L413.96,321.17L412.57,319.68L412.99,317.89L415.25,316.09L414.16,315.19L412.93,312.06L413.69,310.33L420.46,313.14L422.16,314.41L423.72,314.59L425.62,316.2Z" class="land" id="ME-05" title="Budva"/>
    <path d="M396.63,308.15L395.87,306.86L395.8,304.1L393.69,302.13L394.94,301.05L398.46,302.62L400.82,302.84L402.69,304.26L403.74,302.03L403.18,300.27L400.69,297.46L401.12,296.13L400.08,294.28L400.98,292.22L401.74,291.99L402.23,294.19L404.26,294.56L405.03,295.35L406.77,298.64L405.26,302.03L406.01,305.58L404.67,306.14L402.22,308.24L400.71,306.09L398.52,305.78L398.3,307.56Z" class="land" id="ME-19" title="Tivat"/>
    <path d="M458.5,250.18L458.07,251.71L456.98,252.81L456.02,255.94L457.6,256.22L458.07,257.31L459.9,258.87L459.97,260.07L457.84,260.5L455.87,261.81L447.92,262.43L445.61,260.71L442.88,259.82L438.46,260.15L436.77,260.64L435.9,262.86L433.74,263.92L433.68,264.81L435.99,268.29L432.02,268.26L430.12,269.57L425.4,270.28L423.17,266.9L421.5,265.55L420.23,263.83L419.86,262.34L418.15,260.86L414.18,260.65L413.01,261.21L410.83,261.21L407.91,259.48L407.08,259.48L406.25,261.5L404.02,261.27L403.97,263.11L402.62,264.42L403.73,266.23L404.39,268.56L401.91,270.19L398.95,269.3L396.13,270.86L394.63,270.65L391.57,271.2L390.23,274.63L388.73,274.98L386.37,276.95L386.82,275.64L384.42,273.17L383.64,270.79L383.97,269.64L388.57,267.03L386.63,264.02L386.04,261.65L387.47,258.02L387.67,256.16L385.45,255.99L383.18,255.11L381.75,253.86L380.27,251.74L378.58,250.86L378.71,248.64L377.99,246.09L377.99,242.99L377.47,241.56L378.45,240.15L377.67,237.06L378.45,235.73L380.33,235.1L380.91,234.14L380.33,232.36L381.75,231.47L382.28,230.06L381.04,226.6L380.2,225.64L380.45,220.77L380.91,218.91L383.12,212.61L384.35,210.74L387.47,209.14L393.7,210.21L395.97,209.14L398.64,208.79L398.83,206.04L398.37,202.48L398.51,199.22L399.84,199.46L402.02,201.63L403.84,200.29L406.4,203.36L408.63,209.83L408.99,211.74L410.55,214.8L414.37,218.88L415.92,219.65L417.62,221.5L420.27,223.02L424.13,223.33L426.26,222.77L429.69,223.38L432.78,224.81L436.26,227.64L437.56,227.57L439.63,228.46L444.66,232.99L449.69,235.61L451.67,238.38L453.37,236.65L455.87,235.34L456.77,236.68L461.61,239.42L460.89,241.73L459.18,242.71L457.52,244.67L458.35,245.46L457.04,248.05L457.06,249.18Z" class="land" id="ME-12" title="Nikšić"/>
    <path d="M396.63,308.15L395.18,309.14L390.66,306.98L389.08,305.06L388.45,303.36L386.64,301.81L387.01,299.49L389.2,298.93L393.29,300.21L394.94,301.05L393.69,302.13L395.8,304.1L395.87,306.86ZM385.45,277.67L385.26,279.06L386.36,281.22L388.27,282.84L391.67,283.65L391.73,285.31L392.73,285.86L394.29,285.06L397.18,285.49L397.44,287.25L395.58,288.85L393.88,289.53L389.92,289.8L389.47,291.74L393.34,292.88L395.23,292.24L397.27,292.83L400.12,292.09L399.29,294.09L396.17,297.17L391.76,298.69L389.32,297.37L388.16,295.85L384.64,296.31L383.38,295.35L381.93,297.09L384.36,299.83L382.34,299.77L380.72,297.65L378.9,294.49L377.6,293.44L376.23,293.35L374.9,291.99L374.75,289.6L375.84,287.74L375.07,285.47L375.45,282.69L374.94,280.93L376.83,279.76L378.66,279.36L381.06,276.01L383.97,276.35Z" class="land" id="ME-08" title="Herceg-Novi"/>
    <path d="M413.69,310.33L412.93,312.06L414.16,315.19L415.25,316.09L412.99,317.89L412.57,319.68L413.96,321.17L412.17,322.83L410.89,323.09L408.11,319.9L406.36,317.46L403.58,314.9L404.39,314.16L403.75,312.53L401.89,311.49L402.41,309.88L402.22,308.24L404.67,306.14L406.01,305.58L405.26,302.03L406.77,298.64L405.03,295.35L404.26,294.56L402.23,294.19L401.74,291.99L404.05,292.71L406.87,294.83L407.74,296.35L408.66,299.97L409.71,298.91L408.96,297.93L409.22,296L408.66,294.09L408.13,290L403.69,291.5L401.78,290.64L401.78,287.12L398.58,288.04L397.18,289.71L399.28,290.68L400.12,292.09L397.27,292.83L395.23,292.24L393.34,292.88L389.47,291.74L389.92,289.8L393.88,289.53L395.58,288.85L397.44,287.25L397.18,285.49L394.29,285.06L392.73,285.86L391.73,285.31L391.67,283.65L388.27,282.84L386.36,281.22L385.26,279.06L385.45,277.67L386.37,276.95L388.73,274.98L390.23,274.63L391.57,271.2L394.63,270.65L396.13,270.86L398.95,269.3L401.91,270.19L404.33,276.98L407.24,277.84L406.02,280.32L410.79,286.57L410.57,288.24L412.69,291.6L412.26,292.68L413.35,295.15L413.35,296.41L411.34,298.78L410.9,301.02L411.01,304.17L413.39,305.8L413.93,307.85Z" class="land" id="ME-10" title="Kotor"/>
    <path d="M500.08,284.87L499.6,283.7L497.19,281.65L494.25,287.96L493.26,288.6L492.56,290.74L489,293.7L485.84,293.73L483.94,294.27L481.53,294.12L480.17,293.45L477.35,293.07L475.3,294.86L476.73,295.77L477.2,297.36L478.47,298.24L477.72,299.95L474.88,300.23L472.86,299.03L468.91,299.25L468.1,299.99L467.06,303.79L464.82,305.78L464.8,309.51L464.29,312.56L466.06,313.92L465.76,317.48L466.85,318.28L467.91,320.56L469.85,321.27L469.8,323.53L471.67,324.32L471.51,326.11L469.64,324.27L467.26,323.75L465.47,324.43L463.96,323.06L460.45,323.28L459.86,322.75L455.27,322.54L453.56,321.33L448.64,321.48L447.55,319.12L449.5,317.17L452.2,315.53L452.46,312.43L450.9,310.04L447.91,308.5L445.08,305.56L442.48,304.87L442.48,302.58L441.31,300.64L438.35,300.57L438.32,298.39L432.61,292.74L429.52,292L431.16,290.6L433.1,291.22L434.32,290.2L436.45,291.5L437.99,292.14L440.33,292.31L442.59,293.08L444.67,292.98L451.81,290.76L453.35,291.16L454.49,292.67L455.64,292.21L457.79,287.49L455.92,284.39L458.03,279.71L460.63,277.7L463.27,271.28L464.51,266.16L466.56,264.94L467.3,266.91L469.09,267.45L470.46,265.22L473.58,264.94L475.46,266.5L477.14,267.2L479.72,264.84L478.98,262.36L481.43,262.97L484.05,260.81L484.1,258.76L486.55,258.16L496.48,258.66L497.2,259.33L499.49,258.94L504.19,262.4L506.78,262.06L506.78,262.21L506.68,267.06L507.37,270.37L502.09,277.62L501.9,279.84L502.6,282.81Z" class="land" id="ME-16" title="Podgorica"/>
    <path d="M436.45,291.5L434.32,290.2L433.1,291.22L431.16,290.6L429.52,292L432.61,292.74L438.32,298.39L438.35,300.57L441.31,300.64L442.48,302.58L442.48,304.87L445.08,305.56L447.91,308.5L450.9,310.04L452.46,312.43L452.2,315.53L449.5,317.17L447.55,319.12L446.25,318.48L444.46,315.84L443.1,317.17L441.08,318.5L437.94,316.84L436.72,317.3L439.21,321.06L436.64,323.91L433.06,321.27L432.36,319.8L427.99,319.06L425.62,316.2L423.72,314.59L422.16,314.41L420.46,313.14L413.69,310.33L413.93,307.85L413.39,305.8L411.01,304.17L410.9,301.02L411.34,298.78L413.35,296.41L413.35,295.15L412.26,292.68L412.69,291.6L410.57,288.24L410.79,286.57L406.02,280.32L407.24,277.84L404.33,276.98L401.91,270.19L404.39,268.56L403.73,266.23L402.62,264.42L403.97,263.11L404.02,261.27L406.25,261.5L407.08,259.48L407.91,259.48L410.83,261.21L413.01,261.21L414.18,260.65L418.15,260.86L419.86,262.34L420.23,263.83L421.5,265.55L423.17,266.9L425.4,270.28L427.19,273.95L430.72,277.37L435.94,280.9L436.75,281.84L433.81,286.75L435.86,289.13L436.99,289.25Z" class="land" id="ME-06" title="Cetinje"/>
    <path d="M466.56,264.94L466.5,262.8L462.23,256.79L458.94,254.87L460.55,251.65L458.5,250.18L457.06,249.18L457.04,248.05L458.35,245.46L457.52,244.67L459.18,242.71L460.89,241.73L461.61,239.42L456.77,236.68L455.87,235.34L455.92,233.39L457.48,230.85L457.69,228.64L458.42,228.04L461.2,227.58L465.63,228.39L467.53,228.25L471.35,226.51L473.47,227.02L473.5,224.08L475.15,224.88L478.92,227.7L485.66,228.88L486.73,229.3L489.56,228.95L491.41,227.72L494.14,227.7L495.6,228.36L496.53,226.54L497.44,226.26L499.04,227.3L501.6,227.58L504.34,228.71L505.4,229.76L504.23,231.31L504,232.74L507.15,234.02L507.7,235.24L506.61,236.65L505.45,236.85L504.67,238.93L505.8,241.15L503.79,241.98L503.76,243.39L506.94,244.7L508.59,247.41L507.72,250.15L508.95,253.46L508.82,256.52L506.88,260.31L506.78,262.06L504.19,262.4L499.49,258.94L497.2,259.33L496.48,258.66L486.55,258.16L484.1,258.76L484.05,260.81L481.43,262.97L478.98,262.36L479.72,264.84L477.14,267.2L475.46,266.5L473.58,264.94L470.46,265.22L469.09,267.45L467.3,266.91Z" class="land" id="ME-09" title="Kolašin"/>
    <path d="M425.4,270.28L430.12,269.57L432.02,268.26L435.99,268.29L433.68,264.81L433.74,263.92L435.9,262.86L436.77,260.64L438.46,260.15L442.88,259.82L445.61,260.71L447.92,262.43L455.87,261.81L457.84,260.5L459.97,260.07L459.9,258.87L458.07,257.31L457.6,256.22L456.02,255.94L456.98,252.81L458.07,251.71L458.5,250.18L460.55,251.65L458.94,254.87L462.23,256.79L466.5,262.8L466.56,264.94L464.51,266.16L463.27,271.28L460.63,277.7L458.03,279.71L455.92,284.39L457.79,287.49L455.64,292.21L454.49,292.67L453.35,291.16L451.81,290.76L444.67,292.98L442.59,293.08L440.33,292.31L437.99,292.14L436.45,291.5L436.99,289.25L435.86,289.13L433.81,286.75L436.75,281.84L435.94,280.9L430.72,277.37L427.19,273.95Z" class="land" id="ME-07" title="Danilovgrad"/>
    <path d="M500.08,284.87L496.49,286.66L496.21,289.55L494.52,291.05L493.63,293.78L491.63,296.1L491.71,297.12L489.93,297.59L489.29,299.87L487.11,303.08L486.71,304.41L484.58,305.65L483.62,305.55L481.95,306.89L480.2,310.53L480.27,313.05L477.56,315.43L475.21,318.48L474.94,320.33L474.04,321.74L469.85,321.27L467.91,320.56L466.85,318.28L465.76,317.48L466.06,313.92L464.29,312.56L464.8,309.51L464.82,305.78L467.06,303.79L468.1,299.99L468.91,299.25L472.86,299.03L474.88,300.23L477.72,299.95L478.47,298.24L477.2,297.36L476.73,295.77L475.3,294.86L477.35,293.07L480.17,293.45L481.53,294.12L483.94,294.27L485.84,293.73L489,293.7L492.56,290.74L493.26,288.6L494.25,287.96L497.19,281.65L499.6,283.7Z" class="land" id="ME-24" title="Tuzi"/>
  </g>
</svg>