<?xml version="1.0" encoding="UTF-8"?>
<svg xmlns="http://www.w3.org/2000/svg" width="220.7" height="262.3" viewBox="369.65 125.85 220.7 262.3" style="background-color:#000000">
  <!-- Created using SVG Map Generator: dojo.amcharts.com/svg-map-generator -->
  <style>
    .land { fill: #ffffff; stroke: #000000; stroke-width: 0.65; }
  </style>
  <g id="polygons">
    <path d="M580.19,195.06L579.06,197.65L578.55,206.87L578.1,212.97L577.38,214.04L575.76,213.68L575.29,213.29L574.68,213.25L573.7,212.79L573.22,213.22L571.71,213.56L570.57,213.39L570.26,212.76L569.38,212.35L566.69,212.56L565.72,212.3L565.17,212.66L562.98,212.22L562.12,212.74L561.61,212.56L560.67,212.89L559.79,213.99L558.96,214.45L559.34,212.56L558.11,212.12L554.09,210.25L553.51,210.32L550.6,211.01L548.51,212.72L548.72,215.27L547.97,215.43L546.57,215.33L545.75,214.82L545.49,215.56L545.07,215.71L544.09,215.21L543.85,214.38L543.27,214.95L542.61,215.03L542.27,215.51L541.78,215.43L541.27,215.83L540.78,215.49L540.71,214.5L540.07,213.51L540.07,213.1L537.94,211.59L537.95,210.6L537.04,210.92L536.38,210.91L535.87,211.23L535.55,210.74L534.97,211.06L534.48,210.64L533.81,210.64L533.33,209.8L533,209.88L531.93,209.29L531.02,209.28L530.51,210.02L529.93,210.18L528.86,209.75L529.2,209.1L528.46,208.51L527.17,204.95L526.44,203.21L526.78,202.63L528.44,202.07L529.11,201.67L529.36,201.17L530.54,199.94L530.96,199.21L529.82,197.63L529.32,197.29L527.02,194.61L526.36,193.7L528.71,191.98L531.3,190.27L532.65,188.21L534.08,186.89L536.66,187.09L538.38,188.85L540.32,187.38L541.74,186.4L543.62,182.78L542.48,180.94L539.95,177.08L540.24,174.01L536.74,172.72L537.35,171.47L538.92,172.16L539.62,170.25L540.04,170.25L540.14,168.85L541.01,166.51L541.01,166.02L542.28,164.62L542.46,163.7L544.48,162.81L544.75,161.98L546.76,161.25L547.43,161.85L548.02,161.61L549.27,162.13L549.58,163.13L550.33,163.47L550.9,164.4L551.29,165.58L552.23,165.01L552.54,166.68L553.29,166.77L554.04,167.63L554.51,168.63L555.25,169.64L555.24,170.39L557.51,169.26L558.52,168.95L560.94,169.15L565.28,173.64L566.51,175.01L567.91,176.36L571.25,180L572.15,180.85L572.71,181.78L573.97,183.53L575.97,187.24L576.56,187.99L577.38,188.36L576.26,192L577.5,192.09L577.92,192.8L579.34,194.48L579.42,195.05Z" class="land" id="NL-DR" title="Drenthe"/>
    <path d="M511.23,226.75L509.81,229.28L509.48,230.02L509.07,230.34L508.74,231.33L507.91,232.23L505.52,234.11L504.53,233.77L504.12,233.85L500.66,235.56L498.93,237.03L498.19,238.02L497.69,238.43L496.46,238.75L495.31,238.34L494.16,239.57L493.83,240.14L494.08,241.04L494.73,241.53L494.48,241.94L494.65,242.51L494.48,243.25L493.74,245.29L493.41,246.77L491.69,247.25L489.15,248.15L486.85,248.73L485.87,248.48L485.38,247.74L481.52,244.16L480.53,243.34L478.48,242.28L477.25,241.79L475.14,241.12L472.75,241.05L471.79,240.17L471.64,237.89L471.46,237.41L471.59,236.56L472.55,235.99L472.79,235.42L475.5,233.85L476.57,233.52L476.81,233.02L478.21,232.12L485.44,227.1L486.71,226.72L488.83,225.27L489.27,223.65L490.02,222.77L490.87,221.36L491.8,221.1L494.93,217.81L495.84,217.4L498.9,216.59L499.56,216.34L500.46,217.33L506.49,218.92L508.63,218.92L509.13,219.01L511.34,221.4L511.67,222.22L511.74,224.37L511.56,225.68ZM508.24,198.12L508.74,198.95L509.56,199.78L509.56,200.11L511.3,200.12L512.94,201.11L514.04,202.14L514.43,202.2L515.35,203.12L516.44,206.15L517.03,206.76L517.8,208.01L517.62,208.75L516.7,209.33L516,210.22L516.4,210.61L517.86,210.91L518.84,211.88L517.66,213.46L510.97,215.81L510.31,215.89L500.89,215.84L500.27,215.59L498.26,212.37L496.93,211.54L497.02,207.68L497.03,202.14L497.11,201.81L500.69,196.1L501.36,195.69L503.52,195.45L503.68,195.2L504.43,195.38L504.28,194.63L505.68,195.05L507.66,197.05Z" class="land" id="NL-FL" title="Flevoland"/>
    <path d="M508.24,198.12L507.66,197.05L505.68,195.05L504.28,194.63L504.43,195.38L503.68,195.2L503.1,195.2L502.86,194.62L502.11,194.46L500.53,194.62L500.53,193.71L499.79,193.13L498.62,193.7L498.37,194.03L497.37,193.87L496.46,194.12L496.21,195.02L495.88,195.35L494.22,195.68L490.57,193.94L489.16,193.61L488.9,193.94L486.99,194.11L486,193.44L485.25,192.62L483.92,191.79L483.58,190.8L484.41,189.64L485.41,189.06L486.16,188.97L486.49,188.56L486.66,187.48L486.16,185.9L485.91,185.57L486.66,185.07L486.49,183.91L486.83,183.66L486.07,181.08L486.07,180.09L486.57,178.34L485.98,178.09L485.9,177.43L485.48,176.43L484.99,175.85L484.06,173.36L485.57,173.86L485.57,173.19L485.15,172.35L484.88,171.31L485.07,170.35L485.93,169.45L486.46,168.06L486.83,164.52L486.4,164.18L487.27,162.84L488.14,160.62L488.57,159.87L490.39,158.09L493.31,156.04L493.52,155.57L494.51,154.74L494.79,153.94L496.03,152.57L496.99,151.9L498.47,151.33L499.44,150.5L500.46,150.09L502.01,149.64L503.71,148.92L506.25,147.5L510.11,145.57L510.61,145.21L512.04,144.64L512.84,144.02L515.96,143.99L518.32,143.24L519.06,143.13L520.14,142.72L521.04,142.7L523.15,142.3L523.98,142.56L524.36,142.2L527.33,142.56L528.66,141.79L529.28,141.57L530.25,141.86L530.39,142.06L529.02,143.89L529.18,145.23L529.5,146.08L530.17,146.58L531.68,146.94L532.26,147.27L532.59,148.2L533.09,148.37L533.85,147.88L535.69,148.49L535.33,151.16L536.08,151.42L535.32,152.08L534.63,153.24L533.87,153.4L533.78,154.49L533.94,155.33L533.43,155.32L533.01,155.98L532.57,157.48L531.64,158.56L532.22,158.91L532.54,160L531.95,161.16L530.85,161.81L529.57,164.72L529.53,167.72L531.19,169.49L533.11,169.67L534.36,169.61L535.52,170.28L535.93,170.95L537.35,171.47L536.74,172.72L540.24,174.01L539.95,177.08L542.48,180.94L543.62,182.78L541.74,186.4L540.32,187.38L538.38,188.85L536.66,187.09L534.08,186.89L532.65,188.21L531.3,190.27L528.71,191.98L526.36,193.7L524.2,195.08L522.61,195.24L523.02,196.24L521.43,197.29L521.11,196.63L520.19,196.79L519.53,197.11L518.95,196.62L518.14,194.81L515.89,195.43L515.39,195.85L515.46,196.51L514.79,197.25L514.13,197.57L513.71,198.16L512.79,198.56L511.89,198.23L510.56,198.14L510.56,197.89L509.65,197.06ZM467.52,151.64L469.07,151.93L468.75,152.8L467.98,152.63L467.14,152.88L466.09,153.82L465.32,154.16L463.03,155.47L462.9,155.89L463.74,156.36L461.79,158.06L461.17,158.19L460.12,159.07L459.32,160L458.94,160.15L456.96,160.08L455.72,161.11L455.26,160.44L455.26,159.64L456.5,158.89L459.44,156.74L461.39,154.93L463.58,153.37L465.17,152.44L467.05,151.64ZM503.3,139.83L502.81,140.25L502.09,140.25L501.88,140.56L500.21,140.64L498.85,140.2L497.89,139.13L497.92,137.93L498.69,136.9L499.84,136.31L501.14,136.22L502.19,136.69L502.69,137.11L503.8,137.42L505.35,137.42L512.1,136.85L513.89,136.64L517.02,136.59L517.91,136.88L517.79,137.42L516.46,137.63L514.17,137.65L513.27,138.22L512,138.41L511.7,138.62L508.54,139.47L507.42,139.37L506.74,139.47L506.31,139.16L505.38,139.22L504.94,139.03L503.86,139.03ZM521.94,135.42L523.05,136.18L522.99,136.9L522.31,136.72L521.41,137.21L520.18,136.98L520.52,136.41L521.73,135.42ZM539.34,132.71L538.35,133.37L537.89,133.37L535.01,134.61L533.83,135.6L532.8,135.88L531.76,135.83L530.43,136.22L528.35,136.15L528.26,137.03L526.95,138.07L526.61,137.83L526.46,136.82L526.71,136.72L526.55,135.55L527.23,134.17L528.54,133.34L529.74,133.37L530.79,133.23L534.54,133.1L537.98,132.74ZM522.81,137.49L523.02,138.05L522.09,138.38L522.13,137.83ZM471.26,152.37L472.38,152.7L472.22,152.99L470.83,154.18L469.84,154.03L469.87,153.33L470.77,152.37ZM472.1,147.24L472.1,146.77L472.87,145.68L473.86,144.59L474.51,143.44L479.56,142.12L481.88,141.63L484.11,141.06L485.25,140.64L487.08,140.15L490.7,138.8L491.72,138.53L493.67,138.53L494.08,139.09L493.8,140.07L492.06,140.46L490.39,141.29L490.21,142.23L489.06,142.64L485.78,142.67L485.04,142.8L482.87,144.56L481.76,145.08L481.05,144.84L480.08,145.76L479.06,145.47L477.98,145.53L477.21,146.14L476.03,146.17L475.69,147.1L475.07,147.03L474.11,147.99L473.34,147.96Z" class="land" id="NL-FR" title="Fryslân"/>
    <path d="M516.68,294.93L516.12,294.96L516.04,294.31L515.07,293.98L514.84,293.1L513.78,291.73L512.49,291.86L512.24,293.48L511.6,293.31L509.16,293.63L507.46,294.02L506.32,293.85L505.52,293.37L505.03,292.47L504.22,291.99L503.33,291.83L502.61,290.69L502.2,290.45L500.91,290.2L500.18,289.14L500.02,288.5L499.45,287.93L498.39,287.92L497.75,287.44L496.78,287.03L494.99,287.28L494.34,288.16L493.83,288.24L492.72,287.92L492.07,287.19L491.26,286.95L490.77,287.35L490.53,288.16L489.87,288.73L487.85,288.73L487.04,287.75L486.55,287.67L485.33,289.21L484.44,290.67L484.12,291.65L483.96,293.18L483.64,293.74L481.77,294.55L480.64,295.36L479.67,295.12L478.86,295.13L477.8,295.7L476.75,294.97L476.18,294.82L474.73,295.06L472.95,294.91L471.17,295.32L470.84,294.83L471.81,293.78L471.4,293.21L471.56,292.16L470.5,291.76L469.44,290.88L468.96,290.88L468.15,291.61L467.82,291.61L467.17,290.97L466.52,289.93L465.14,289.29L464.49,288.81L464.4,288.24L463.91,287.83L465.29,288.07L465.61,286.04L463.82,285.73L463.56,284.19L464.14,284.52L464.7,284.43L465.35,284.43L466.82,284.5L466.73,283.77L466.97,283.12L467.94,283.04L468.67,282.47L468.91,281.74L470.13,281.81L470.45,280.83L471.42,279.04L472.15,278.07L473.93,274.57L474.49,275.06L475.31,275.38L475.8,275.21L476.37,274.64L476.69,273.84L477.5,273.66L478.89,274.8L480.6,275.12L481.58,275.77L482.47,275.52L483.29,274.55L484.18,274.31L485.24,274.46L486.14,274.05L487.19,273.81L487.92,273.17L488.58,273L489.23,273.17L491.1,273.25L492.4,274.05L493.95,274.54L494.44,275.27L495.25,275.76L496.8,276.17L497.69,276.82L498.91,275.53L498.51,274.71L498.83,273.99L498.19,273.26L498.19,272.52L496.97,271.55L496.64,270.64L496.65,268.87L496.81,268.54L495.59,267.97L495.75,267.32L495.02,267.24L495.27,264.55L494.86,263.74L494.86,262.59L494.62,262.1L493.56,262.43L493.96,262.84L493.88,263.66L493.07,264.63L492.33,264.54L492.09,265.03L490.86,265.36L489.96,264.87L489.47,264.38L490.37,263.48L491.03,263.16L490.94,262.1L491.43,261.61L491.68,259.9L492.5,259.74L492.42,259.17L491.6,258.85L491.76,258.36L490.78,258.03L490.87,257.37L490.29,256.8L488.82,256.48L488.41,256.16L488.33,255.01L488.41,253.13L488.09,253.05L486.69,251.83L486.61,252.31L485.79,251.67L486.36,249.3L487.02,249.46L488.16,248.81L489.64,248.48L490.21,247.99L490.54,248.32L491.12,247.83L491.85,247.66L493.33,247.74L494.07,246.52L494.73,244.23L495.14,243.09L496.04,242.02L497.45,240.96L498.02,240.14L499.17,238.83L499.83,238.34L500.39,238.46L501.6,237.52L502.95,237.05L503.37,236.56L503.86,236.47L506.58,234.44L507.98,233.3L509.14,232.15L509.81,231.18L510.06,230.11L510.89,228.88L511.81,226.17L512.23,224.45L512.81,224.2L513.22,224.46L514.61,226.35L515.58,228.58L516.24,228.34L516.99,227.68L517.4,227.69L517.81,228.35L519.8,226.14L520.38,225.66L521.04,225.66L521.29,225.33L521.95,225.59L522.93,226.42L523.66,227.74L524.72,228.32L525.46,229.31L525.44,231.2L526.42,232.35L525.91,234.57L526.39,235.06L527.04,235.32L526.71,236.05L526.79,236.62L526.54,237.2L524.23,237.91L524.06,238.57L525.04,239.23L523.97,239.8L524.04,240.77L523.7,242.41L524.18,242.82L524.42,244.3L525.32,244.39L525.97,245.46L526.04,246.36L526.53,246.93L526.85,247.93L526.67,248.82L528.39,249.48L527.73,250.05L527.96,250.95L528.86,251.04L529.03,250.71L529.93,250.4L530.34,250.89L531.08,250.82L531.89,251.15L532.22,250.91L533.12,251L534.35,250.94L534.84,251.1L536.15,250.71L536.39,251.2L538.69,251.07L538.86,250.25L539.36,249.68L540.27,249.7L540.84,249.46L541.58,249.63L543.05,249.65L543.04,250.14L543.45,250.56L543.77,251.38L544.73,252.37L545.29,253.36L546.02,253.61L546.02,254.19L546.57,255.09L547.47,255.59L548.37,255.19L550.82,255.56L552.79,255.09L553.68,255.93L553.75,256.75L554.32,256.68L554.99,255.95L555.55,256.45L555.81,255.8L557.35,256.64L557.47,258.85L556.8,259.81L557.7,260.24L558.76,260.42L559.81,260.92L562.15,260.96L561.71,260.96L561.54,262.71L560.81,263.28L561.18,263.97L560.32,264.95L559.13,265.12L558.15,265.62L557.66,266.97L557.65,268.11L559.15,268.11L561.26,269.13L562.36,270.1L564.55,271.89L565.39,272.31L565.6,272.97L565.71,274.41L565.49,274.97L564.66,275.02L563.83,275.45L563.57,277.59L563.29,278.09L562.23,279.3L561.35,279.62L561.18,280.11L560.4,280.34L560.15,280.88L559.54,281.1L558.19,279.87L557.9,279.44L556.91,279.32L554.85,280.36L551.96,281.31L550.31,282.4L550.11,282.01L548.55,283.09L548.05,283.15L547.24,283.74L547.23,284.15L545.96,284.65L545.66,284.93L544.96,284.61L544.46,283.89L543.42,284.43L543.21,283.91L542.31,283.4L541.77,283.53L541.17,283.11L540.95,284.19L542.13,285.07L541.75,285.88L542.05,287.25L541.71,287.32L541.03,286.78L539.55,286.52L539.26,285.52L538.65,285.22L537.16,285.15L536.41,285.35L535.8,283.62L534.9,283.1L534.44,283.06L533.91,283.64L532.37,283.46L531.33,283.67L530.24,283.05L529.46,282.03L529.68,281.42L528.78,280.64L528.08,280.29L526.32,280.91L525.57,280.84L525.69,281.43L526.97,282.06L527.38,283.48L528.6,284.24L528.45,284.96L528.6,286.1L527.33,285.63L525.71,285.48L524.53,285.19L522.86,283.88L522.41,285.04L521.14,285.97L520.94,285.72L519.47,286.84L518.6,287.02L517.26,286.46L516.26,287.65L516.97,288.23L516.86,288.87L518.11,290.03L517.8,290.73L518.64,291.31L518.34,292.15L518.8,292.83L516.62,294.4Z" class="land" id="NL-GE" title="Gelderland"/>
    <path d="M545.75,128.5L546.4,129.3L547.6,130.32L546.89,130.6L546.43,131.33L545.53,131.46L545,130.13L544.88,129.19L545.06,128.65ZM530.25,141.86L531.66,141.99L532.8,141.57L533.43,141.53L534.11,141.79L535.44,142.56L536.28,143.29L536.64,143.29L537.91,142.54L538.13,141.94L538.69,141.97L540.52,141.16L542.03,141.03L542.34,140.85L544.66,140.69L546.83,140.2L548.32,140.1L550.95,139.63L553.8,138.64L555.68,137.73L556.89,137.36L559.9,136.92L561.32,136.85L561.94,137.01L563.83,137.89L564.66,137.03L567.2,138.05L568.6,139.39L568.6,139.83L568.01,140.85L567.98,142.26L568.78,143.4L568.84,144.9L569.18,145.81L569.37,147.63L569.86,147.88L570.91,148.84L571.94,149.49L571.72,149.9L573.39,150.58L576.43,152.08L577.14,151.98L577.66,152.34L579.31,152.31L579.83,152.47L579.65,153.12L579.77,154.03L579.4,154.98L579.52,155.68L580.37,156.43L581.26,156.87L582.53,156.95L582.99,157.33L584.17,157.36L584.63,157.75L585.68,158.06L586.78,158.18L586.86,159.34L587.14,160.27L587.17,161.71L586.64,162.68L587.7,163.48L586.4,163.8L585.66,165.17L585.61,166.45L585.02,167.37L585.24,168.89L586.35,169.67L586.16,172.67L586.91,179.16L587.16,179.53L586.71,180.16L585.17,185.61L583.78,187.84L580.88,192.73L579.91,194.05L580.19,195.06L579.42,195.05L579.34,194.48L577.92,192.8L577.5,192.09L576.26,192L577.38,188.36L576.56,187.99L575.97,187.24L573.97,183.53L572.71,181.78L572.15,180.85L571.25,180L567.91,176.36L566.51,175.01L565.28,173.64L560.94,169.15L558.52,168.95L557.51,169.26L555.24,170.39L555.25,169.64L554.51,168.63L554.04,167.63L553.29,166.77L552.54,166.68L552.23,165.01L551.29,165.58L550.9,164.4L550.33,163.47L549.58,163.13L549.27,162.13L548.02,161.61L547.43,161.85L546.76,161.25L544.75,161.98L544.48,162.81L542.46,163.7L542.28,164.62L541.01,166.02L541.01,166.51L540.14,168.85L540.04,170.25L539.62,170.25L538.92,172.16L537.35,171.47L535.93,170.95L535.52,170.28L534.36,169.61L533.11,169.67L531.19,169.49L529.53,167.72L529.57,164.72L530.85,161.81L531.95,161.16L532.54,160L532.22,158.91L531.64,158.56L532.57,157.48L533.01,155.98L533.43,155.32L533.94,155.33L533.78,154.49L533.87,153.4L534.63,153.24L535.32,152.08L536.08,151.42L535.33,151.16L535.69,148.49L533.85,147.88L533.09,148.37L532.59,148.2L532.26,147.27L531.68,146.94L530.17,146.58L529.5,146.08L529.18,145.23L529.02,143.89L530.39,142.06Z" class="land" id="NL-GR" title="Groningen"/>
    <path d="M495.4,341.58L498.52,340.75L498.76,339L498.85,336.83L501.5,333.08L505.6,331.82L512.6,329.77L513,329.53L515.99,326.91L514.4,324L512.8,321.43L512.65,321.03L512.02,317.33L511.55,316.21L510.77,310.65L513.75,311.23L514.55,311.96L516.17,311.81L518.36,311.1L520.05,310.31L521.65,311.61L522.47,311.37L522.07,310.88L521.91,310.08L522,309.12L521.28,308.06L521.12,307.41L521.14,306.21L520.9,305.65L519.69,304.42L518.25,303.53L517.85,302.88L517.78,300.87L517.31,298.68L517.31,297.79L516.1,297.22L514.49,296.97L513.44,296.4L512.88,294.05L512.24,293.48L512.49,291.86L513.78,291.73L514.84,293.1L515.07,293.98L516.04,294.31L516.12,294.96L516.68,294.93L517.05,295.34L517.85,295.25L519,295.34L519.54,295.76L520.95,296.47L521.3,297.19L520.78,298L521.1,299.47L520.99,300.74L521.38,301.23L524.23,302.39L524.99,302.36L525.91,302.73L525.43,303.56L524.41,307.23L526.08,308.41L526.6,309.46L527.47,310.36L528.07,310.75L529.19,313.26L530.43,314.22L531.14,315.52L531.27,316.43L531.18,317.41L531.77,318.97L531.58,320.72L531.61,321.48L531.24,321.53L531.3,322.59L530.76,325.71L531.92,325.63L531.27,326.6L531.92,329.19L529.9,331.08L529.81,331.47L528.72,331.65L528.76,331.95L528.2,332.85L527.91,333.93L527.37,334.8L526.56,335.78L526.26,336.85L524.06,339.27L523.38,339.7L524.11,341.48L523.11,341.67L523.41,345L523.91,346.02L524.32,346.11L525.45,345.86L525.81,345.41L526.62,344.91L528.52,343.99L529.39,344.7L527.06,345.87L529.1,347.18L528.24,348.01L526.35,348.37L526.08,348.74L524.45,349.27L523.98,350.25L523.55,350.67L522.8,350.88L522.47,351.52L521.33,352.71L519.88,353.17L519.2,353.77L517.71,356.12L517.5,357.31L516.98,357.61L516.97,358.09L515.88,358.13L515.22,356.99L514.81,355.59L514.49,355.33L513.02,356.62L511.87,356.7L511.92,357.1L512.53,357.92L512.34,358.64L512.59,359.68L512.88,360.05L513.52,360.26L513.51,360.85L514.06,361.04L513.96,362.35L513.35,362.98L514.01,363.5L515.04,363.04L515.62,362.54L516.83,362.27L517.55,363.05L518.47,362.82L520.29,362.71L520.82,362.87L520.19,364.54L519.62,365.06L520.26,365.44L520.17,365.86L520.34,367.04L522.45,367.69L522.33,368.11L523.12,368.25L523.32,368.04L524.51,368.45L523.84,369.32L523.52,370.88L524.19,372.03L524.24,372.52L523.63,373.56L523.45,374.78L522.79,374.44L522.51,374.01L520.38,374.83L520.21,375.49L520.37,376.33L520.71,376.44L520.72,377.66L519.52,378.8L518.52,377.98L517.98,378.7L517.93,379.09L518.66,379.43L519.92,380.66L520.87,381.23L520.34,382.15L520.52,383.04L521.58,383.71L521.54,384.41L520.92,385.5L520,382.94L517.07,382.25L514.01,382.86L512.7,381.62L511.29,382.33L510,382.08L508.93,382.43L507.81,381.57L507.24,380.68L506.7,380.23L505.65,380.81L504.41,382.2L502.99,382.19L502.35,382.59L502.11,382.34L502.9,380.15L502.67,378.43L502.16,378.14L501.07,377.18L500.41,376.97L499.96,376.3L499.8,375.66L499.7,373.61L499.93,372.51L500.95,371.82L501.92,371.67L502.8,369.55L503.92,369.28L504.4,367.92L505.8,365.4L505.5,364.83L504.71,365.12L504,364.78L504.05,364.43L506.12,361.91L506.55,360.26L506.54,359.43L506.76,359.01L506.15,358.34L506.18,357.92L507.22,355.47L507.97,355.74L508.29,355.58L508.17,354.79L508.52,354.08L508.22,353.34L508.81,352.74L509.46,352.85L510.11,352.34L510.02,351.56L509.26,351.3L509.13,350.53L509.57,349.77L510.61,349.27L511.46,348.29L510.59,347.58L510.08,346.29L509.39,346.82L507.22,347.06L507.41,346.56L507.1,346.19L507.22,345.15L506.12,344.59L505.35,344.38L503.87,345.09L503.14,345.15L500.12,344.7L499.91,343.5L497.88,342.68L495.75,341.99Z" class="land" id="NL-LI" title="Limburg"/>
    <path d="M421.29,315.42L421.65,314.01L421.6,313.24L421.32,312.57L419.66,310.71L419.09,309.95L418.83,308.93L418.87,307.93L419.33,306.88L419.9,306.1L420.76,305.4L420.96,304.81L422.07,304.86L423.12,304.36L424.24,304.1L425.61,303.6L426.58,303.74L427.55,303.41L428.99,302.42L429.62,301.52L429.93,300.47L431.69,299.07L432.5,299.06L433.72,299.77L435.35,300.23L436.96,300.21L439.79,299.45L440.21,300.89L440.45,300.89L440.03,299.45L441.56,299.02L442.6,298.13L444.05,297.46L443.8,296.66L444.29,296.34L445.66,295.99L446.38,295.66L447.67,294.84L449.2,293.21L450.15,291.34L451.6,290.11L453.05,289.7L454.68,289.93L455.97,289.51L457.42,288.29L458.47,287.55L459.77,287.21L461.56,287.45L463.18,287.84L463.91,287.83L464.4,288.24L464.49,288.81L465.14,289.29L466.52,289.93L467.17,290.97L467.82,291.61L468.15,291.61L468.96,290.88L469.44,290.88L470.5,291.76L471.56,292.16L471.4,293.21L471.81,293.78L470.84,294.83L471.17,295.32L472.95,294.91L474.73,295.06L476.18,294.82L476.75,294.97L477.8,295.7L478.86,295.13L479.67,295.12L480.64,295.36L481.77,294.55L483.64,293.74L483.96,293.18L484.12,291.65L484.44,290.67L485.33,289.21L486.55,287.67L487.04,287.75L487.85,288.73L489.87,288.73L490.53,288.16L490.77,287.35L491.26,286.95L492.07,287.19L492.72,287.92L493.83,288.24L494.34,288.16L494.99,287.28L496.78,287.03L497.75,287.44L498.39,287.92L499.45,287.93L500.02,288.5L500.18,289.14L500.91,290.2L502.2,290.45L502.61,290.69L503.33,291.83L504.22,291.99L505.03,292.47L505.52,293.37L506.32,293.85L507.46,294.02L509.16,293.63L511.6,293.31L512.24,293.48L512.88,294.05L513.44,296.4L514.49,296.97L516.1,297.22L517.31,297.79L517.31,298.68L517.78,300.87L517.85,302.88L518.25,303.53L519.69,304.42L520.9,305.65L521.14,306.21L521.12,307.41L521.28,308.06L522,309.12L521.91,310.08L522.07,310.88L522.47,311.37L521.65,311.61L520.05,310.31L518.36,311.1L516.17,311.81L514.55,311.96L513.75,311.23L510.77,310.65L511.55,316.21L512.02,317.33L512.65,321.03L512.8,321.43L514.4,324L515.99,326.91L513,329.53L512.6,329.77L505.6,331.82L501.5,333.08L498.85,336.83L498.76,339L498.52,340.75L495.4,341.58L494.82,340.93L494.33,337.57L492.18,335.21L491.25,334.79L490.88,334.82L490.39,335.66L489.06,336.18L487.73,337.15L487.04,338.05L483.53,337L482.22,337.81L479.17,337.74L478.36,337.54L477.03,338L476.43,337.52L476.33,336.99L476.84,335.67L477.29,334.12L476.58,333.42L475.3,332.49L473.7,332.75L473.49,332.93L471.22,333.21L470.42,329.23L467.82,326.1L467.87,325.25L469.03,323.12L468.88,321.3L468.18,319.69L466.44,319.28L465.67,318.03L464.85,318.9L464.43,319.93L464.55,320.74L463.97,322.17L461.98,323.88L460.54,325.5L460.04,325.89L459.46,325.79L457.18,324.27L454.29,324.84L452.32,324.82L451.49,324.29L450.97,323.08L451.68,322.81L453.05,323.39L454.41,323.67L454.08,322.13L454.68,320.47L454.61,318.53L452.73,316.98L451.3,316.38L449.79,316.95L448.94,317.92L448.46,319.02L447.96,319.63L447.56,319.78L447.3,320.68L445.7,321.69L445.72,323.4L444.81,323.23L443.95,323.56L443.13,323.27L442.11,323.19L440.8,322.86L437.81,323.56L437.44,321.6L437.6,321.02L438.64,319.22L437.84,318.09L435.15,318.51L434.55,318.43L433.89,318.83L432.55,319.31L430.67,320.41L429.91,321.34L429.74,324.13L430.16,325.34L431.54,326.92L431.7,327.79L431.43,328.54L429.98,329.24L428.29,329.13L427.18,329.18L426.68,327.34L423.37,327.58L422.92,327.11L422.98,325.59L422.63,324.16L423.34,323.34L422.43,321.19L423.52,321.31L424.57,320.86L424.79,320.03L424.47,318.62L423.89,317.32L422.3,315.87ZM461.43,320.84L459.58,321.4L459.64,322.79L460.55,323.08L460.93,322.88L460.99,321.69L461.79,321.33Z" class="land" id="NL-NB" title="Noord-Brabant"/>
    <path d="M470.14,229.69L471.21,229.93L469.98,230.43L469.73,230.76L468.99,230.68L469.4,229.94L469.56,229.12ZM480.95,246.52L478.66,246.12L477.11,249.39L476.38,251.28L475.89,253.16L474.59,255.61L470.74,255.29L468.14,256.04L466.41,256.7L466.16,255.08L465.67,254.99L465.91,253.78L465.74,252.39L466.06,250.83L467.04,250.34L466.38,249.61L466.21,248.46L465.63,248.63L465.13,247.16L467.09,245.84L466.6,245.6L466.19,246.1L465.45,245.6L465.04,246.01L465.03,244.22L464.46,244.14L463.97,244.64L463.65,245.46L462.91,245.38L461.61,246.45L459.64,246.3L459.81,247.2L458.84,248.75L458.1,248.93L457.2,248.69L455.8,249.27L455.65,249.77L454.18,250.84L453.12,251.18L452.3,251.18L451.81,251.02L450.51,251.93L449.45,252.27L448.96,253.01L448.3,252.12L448.37,250.65L447.22,250.49L446.24,251.16L445.75,251.25L445.33,250.76L443.63,251.92L442.49,252.26L441.59,252.28L440.52,251.88L439.95,252.05L438.99,251.88L438.62,251.17L439.35,250.5L439.67,249.03L439.64,247.4L440.78,246.31L441.57,244.18L442.06,243.28L441.39,242.95L440.49,242.81L439.35,243.64L435.41,241.95L436.68,238.99L436.93,238.05L437.71,236.33L437.73,235.9L438.32,234.6L439.1,232.47L439.19,231.36L439.59,230.06L440.4,229.53L441.45,229.25L441.27,228.65L439.81,229.12L439.74,228.72L440.86,225.74L441.2,224.39L441.2,223.55L441.51,221.36L442.13,217.77L442.38,215.56L442.84,212.11L442.84,211.04L443.18,209.4L443.34,206.85L443.49,206.36L443.56,204.7L444.27,201.81L445.53,198.98L446,196.64L447.06,192.9L447.55,190.44L447.7,187.18L447.7,186.02L447.95,184.66L448.26,184.07L449.07,183.54L451.17,183.43L452.63,184.15L451.98,185.43L451.98,186.15L452.56,187.72L453.31,188.62L454.61,189.46L455.16,189.59L456.06,190.28L456.74,190.49L458.45,190.11L458.57,189.79L459.62,189.29L460.58,188.62L461.11,187.9L461.35,186.98L461.85,186.64L463.86,186.1L464.76,186.23L465.23,185.65L466.04,186.15L465.86,187.38L466.44,187.29L470.14,194.48L469.59,201.1L470.09,201.1L470.58,201.6L470.67,202.83L471.34,203.17L472.09,203.9L472.5,204.07L473.83,204.14L474.57,202.82L476.39,203.07L478.22,202.97L479.54,204.04L479.88,206.52L480.79,207.43L480.21,207.92L479.39,208.25L479.39,208.59L478.65,209L477.57,209.25L477,211.81L476.67,212.22L475.35,212.97L474.86,213.71L473.7,213.96L472.71,214.95L472.13,214.88L470.89,215.29L470.97,214.71L470.56,214.06L469.74,214.23L468.98,213.41L468.33,213.24L467.33,214.08L466.67,213.25L466.34,213.25L464.86,214.34L464.7,215.41L464.95,216.89L464.88,217.47L465.38,218.45L465.63,219.52L465.47,220.1L466.14,220.67L466.8,222.06L466.8,222.72L467.38,223.63L467.47,224.19L468.3,225.02L468.55,225.92L468.06,226.9L467.32,227.08L467.08,227.57L467.17,228.39L467.66,228.88L467.25,229.21L466.59,229.05L465.94,229.47L466.84,229.87L466.51,230.44L466.53,231.76L467.51,231.83L468.58,232.15L467.85,233.15L467.52,234.13L466.7,234.14L466.38,234.71L465.56,235.29L465.23,236.36L464.5,236.86L464.42,237.75L463.85,237.68L463.68,237.27L461.47,238.26L461.63,238.67L462.79,239.24L463.61,239.97L463.86,240.46L464.6,240.45L465.26,240.04L465.67,240.78L466.25,241.27L466.9,241.02L467.56,241.17L468.14,240.85L469.04,240.93L470.03,241.74L470.68,241.81L471.51,242.22L471.84,242.88L472.83,243.94L473.48,244.09L474.55,243.68L476.6,243.43L477.58,243.43L478.16,243.84L479.14,244.07L480.13,244.81L480.3,245.39ZM444.67,181.96L445.38,182.4L446.25,182.02L447.3,181.99L446.71,182.81L445.72,183.28L445.01,183.84L444.14,183.54L444.02,182.6ZM450.24,179.39L449.9,179.83L450.55,180.14L450.64,180.55L449.5,180.78L448.76,181.45L447.89,181.45L447.76,180.21L447.52,179.7L447.4,178.67L447.55,176.38L448.08,174.42L449.16,171.97L450.52,169.71L453.74,164.88L454.7,163.77L455.54,163.18L455.88,163.31L456.59,164.27L456.68,165.32L457.27,165.66L457.89,166.49L458.48,167.56L458.01,168.71L457.86,170.87L457.92,172.77L457.21,173.55L456.56,173.68L456.46,175.07L455.94,175.42L455.94,175.9L455.04,177.07L454.42,177.39L453.55,177.41L452.16,179.26L451.88,180.01Z" class="land" id="NL-NH" title="Noord-Holland"/>
    <path d="M558.96,214.45L559.84,215.69L559.37,218.08L562.05,220.39L561.17,220.79L559.79,220.42L559.23,221.76L557.27,221.33L558.58,224.18L558.2,227.46L559.66,228.31L561.29,229.52L562.49,229.9L565.68,229.86L566.93,229.9L566.84,230.79L567.35,230.65L568.84,231.09L569.86,231.52L571.8,232.11L572.94,231.28L573.8,229.37L574.37,229L574.71,229.37L575.36,231.32L575.66,232.69L576.28,233.28L577.04,235.12L578.33,235.42L579.07,237.78L579.07,239.71L578.22,240.96L578.15,241.54L577.67,242.3L577.66,243L576.54,245.18L576.58,246.51L577.41,248.47L578.72,249.82L578.45,250.41L577.22,251.07L576.12,251.3L575.24,250.98L574.21,251.3L573.61,253.1L572.95,254.09L572.34,255.3L571.37,255.54L570.15,255.65L569.8,256.3L568.47,257.58L567.96,259.74L566.99,260.81L565.09,261.01L562.15,260.96L559.81,260.92L558.76,260.42L557.7,260.24L556.8,259.81L557.47,258.85L557.35,256.64L555.81,255.8L555.55,256.45L554.99,255.95L554.32,256.68L553.75,256.75L553.68,255.93L552.79,255.09L550.82,255.56L548.37,255.19L547.47,255.59L546.57,255.09L546.02,254.19L546.02,253.61L545.29,253.36L544.73,252.37L543.77,251.38L543.45,250.56L543.04,250.14L543.05,249.65L541.58,249.63L540.84,249.46L540.27,249.7L539.36,249.68L538.86,250.25L538.69,251.07L536.39,251.2L536.15,250.71L534.84,251.1L534.35,250.94L533.12,251L532.22,250.91L531.89,251.15L531.08,250.82L530.34,250.89L529.93,250.4L529.03,250.71L528.86,251.04L527.96,250.95L527.73,250.05L528.39,249.48L526.67,248.82L526.85,247.93L526.53,246.93L526.04,246.36L525.97,245.46L525.32,244.39L524.42,244.3L524.18,242.82L523.7,242.41L524.04,240.77L523.97,239.8L525.04,239.23L524.06,238.57L524.23,237.91L526.54,237.2L526.79,236.62L526.71,236.05L527.04,235.32L526.39,235.06L525.91,234.57L526.42,232.35L525.44,231.2L525.46,229.31L524.72,228.32L523.66,227.74L522.93,226.42L521.95,225.59L521.29,225.33L521.04,225.66L520.38,225.66L519.8,226.14L517.81,228.35L517.4,227.69L516.99,227.68L516.24,228.34L515.58,228.58L514.61,226.35L513.22,224.46L512.81,224.2L512.23,224.45L512.27,223.19L512.08,222.11L510.53,219.34L510.38,216.95L510.97,215.81L517.66,213.46L518.84,211.88L517.86,210.91L516.4,210.61L516,210.22L516.7,209.33L517.62,208.75L517.8,208.01L517.03,206.76L516.44,206.15L515.35,203.12L514.43,202.2L514.04,202.14L512.94,201.11L511.3,200.12L509.56,200.11L509.56,199.78L508.74,198.95L508.24,198.12L509.65,197.06L510.56,197.89L510.56,198.14L511.89,198.23L512.79,198.56L513.71,198.16L514.13,197.57L514.79,197.25L515.46,196.51L515.39,195.85L515.89,195.43L518.14,194.81L518.95,196.62L519.53,197.11L520.19,196.79L521.11,196.63L521.43,197.29L523.02,196.24L522.61,195.24L524.2,195.08L526.36,193.7L527.02,194.61L529.32,197.29L529.82,197.63L530.96,199.21L530.54,199.94L529.36,201.17L529.11,201.67L528.44,202.07L526.78,202.63L526.44,203.21L527.17,204.95L528.46,208.51L529.2,209.1L528.86,209.75L529.93,210.18L530.51,210.02L531.02,209.28L531.93,209.29L533,209.88L533.33,209.8L533.81,210.64L534.48,210.64L534.97,211.06L535.55,210.74L535.87,211.23L536.38,210.91L537.04,210.92L537.95,210.6L537.94,211.59L540.07,213.1L540.07,213.51L540.71,214.5L540.78,215.49L541.27,215.83L541.78,215.43L542.27,215.51L542.61,215.03L543.27,214.95L543.85,214.38L544.09,215.21L545.07,215.71L545.49,215.56L545.75,214.82L546.57,215.33L547.97,215.43L548.72,215.27L548.51,212.72L550.6,211.01L553.51,210.32L554.09,210.25L558.11,212.12L559.34,212.56Z" class="land" id="NL-OV" title="Overijssel"/>
    <path d="M480.95,246.52L481.69,246.93L482.35,246.85L482.76,247.18L484.15,247.33L484.73,248.15L486.36,249.3L485.79,251.67L486.61,252.31L486.69,251.83L488.09,253.05L488.41,253.13L488.33,255.01L488.41,256.16L488.82,256.48L490.29,256.8L490.87,257.37L490.78,258.03L491.76,258.36L491.6,258.85L492.42,259.17L492.5,259.74L491.68,259.9L491.43,261.61L490.94,262.1L491.03,263.16L490.37,263.48L489.47,264.38L489.96,264.87L490.86,265.36L492.09,265.03L492.33,264.54L493.07,264.63L493.88,263.66L493.96,262.84L493.56,262.43L494.62,262.1L494.86,262.59L494.86,263.74L495.27,264.55L495.02,267.24L495.75,267.32L495.59,267.97L496.81,268.54L496.65,268.87L496.64,270.64L496.97,271.55L498.19,272.52L498.19,273.26L498.83,273.99L498.51,274.71L498.91,275.53L497.69,276.82L496.8,276.17L495.25,275.76L494.44,275.27L493.95,274.54L492.4,274.05L491.1,273.25L489.23,273.17L488.58,273L487.92,273.17L487.19,273.81L486.14,274.05L485.24,274.46L484.18,274.31L483.29,274.55L482.47,275.52L481.58,275.77L480.6,275.12L478.89,274.8L477.5,273.66L476.69,273.84L476.37,274.64L475.8,275.21L475.31,275.38L474.49,275.06L473.93,274.57L472.15,278.07L471.42,279.04L470.45,280.83L470.13,281.81L468.91,281.74L468.67,282.47L467.94,283.04L466.97,283.12L466.73,283.77L466.82,284.5L465.35,284.43L465.34,284.43L464.98,282.88L463.86,283.42L463.59,281.06L462.43,281.38L462.07,280.25L461.67,279.82L460.98,278.38L460.41,278.27L460.11,276.76L459.68,276.44L458.88,276.93L457.01,277.35L456.67,275.89L456.01,274.6L455.19,273.95L454.62,272.99L453.63,271.69L455.82,271.19L455.24,270.05L454.02,270.14L453.54,270.48L452.8,270.4L452.55,269.67L453.12,269.34L453.27,268.61L453.6,268.36L454.24,267.22L455.29,266.48L456.34,266.07L456.76,265.49L455.04,265.42L454.05,264.94L453.87,261.85L452.22,260.64L453.03,260.06L453.03,259.49L453.35,259L454.49,258.66L454.74,258.99L455.73,259.31L456.79,259.14L456.77,257.58L457.75,257.01L455.69,255.48L454.71,255.08L453.39,253.62L452.73,253.46L452.72,251.99L452.3,251.18L453.12,251.18L454.18,250.84L455.65,249.77L455.8,249.27L457.2,248.69L458.1,248.93L458.84,248.75L459.81,247.2L459.64,246.3L461.61,246.45L462.91,245.38L463.65,245.46L463.97,244.64L464.46,244.14L465.03,244.22L465.04,246.01L465.45,245.6L466.19,246.1L466.6,245.6L467.09,245.84L465.13,247.16L465.63,248.63L466.21,248.46L466.38,249.61L467.04,250.34L466.06,250.83L465.74,252.39L465.91,253.78L465.67,254.99L466.16,255.08L466.41,256.7L468.14,256.04L470.74,255.29L474.59,255.61L475.89,253.16L476.38,251.28L477.11,249.39L478.66,246.12Z" class="land" id="NL-UT" title="Utrecht"/>
    <path d="M401.98,294.91L402.65,295.8L403.79,295.93L404.75,295.67L406.21,295.72L406.95,296.43L407.38,297.55L408.29,298.5L408.72,299.95L409.05,300.1L410.43,300.16L411.49,300.78L412.15,301.33L412.87,301.4L413.62,302.27L413.32,303.49L412.52,303.98L411.89,304.8L411.09,305.22L410.68,304.91L408.44,306.16L407.47,306.1L407.07,306.43L406.1,306.45L405.03,305.5L404.29,304.55L403.9,305.12L403.25,305.14L401.71,304.85L401.77,303.88L401.5,302.75L400.92,302.13L400.99,301.72L399.92,300.78L399.19,300.8L398.05,300.25L398.11,299.61L397.53,298.97L396.33,299.16L395.86,299.98L394.18,300.98L393.06,301.33L392.34,301.82L391.67,301.74L390.43,300.57L389.97,299.27L389.97,298.37L390.62,296.89L391.42,296.2L392.2,296.07L394.27,295.15L395.08,294.92L396.25,294.9L398.18,295.36L399.8,295.29L401.57,294.84ZM420.96,304.81L420.76,305.4L419.9,306.1L419.33,306.88L418.87,307.93L418.83,308.93L419.09,309.95L419.66,310.71L421.32,312.57L421.6,313.24L421.65,314.01L421.29,315.42L419.81,316.13L417.95,314.88L415.79,314.53L414.85,314.85L412.75,314.67L412.06,313.87L411.09,312.45L410,312.11L409.47,310.91L407.46,309.71L407.51,308.7L408.97,308.21L409.8,308.19L410.46,307.92L411.9,306.86L413.23,306.7L414.72,307.47L417.72,307.44L418.17,307.31L418.03,306.7L417.52,306.56L416.47,306.67L415.42,306.59L415.05,305.87L414.02,305.02L414.04,304.18L414.53,303.6L415.43,303.09L416.67,303.22L417.62,304L418.91,304.59ZM400.11,307.98L400.78,308.49L401.65,309.77L402.66,310.98L402.49,311.74L401.47,311.95L400.78,312.76L400.06,312.82L399.19,312L398.38,311.83L397.42,312.6L396.64,312.5L395.37,311.89L393.88,312.29L393.23,312.99L392.42,313.46L391.6,314.14L391.47,312.81L390.61,311.74L389.15,310.83L388.42,309.85L388.67,308.88L390.56,308.32L391.48,308.36L392.43,308.88L393.04,308.88L394.91,308.36L396.36,308.27L398.19,307.77L399.28,307.7ZM422.43,321.19L423.34,323.34L422.63,324.16L422.98,325.59L422.92,327.11L423.37,327.58L422.2,327.76L421.99,327.56L422.04,326.54L421.58,325.43L419.7,324.82L419.1,324.78L417.52,325.53L416.56,326.12L415.66,326L415.32,325.76L413.55,325.41L412.87,325.03L412.16,324.93L411.36,324.44L410.77,323.87L410.49,323.3L407.06,320.81L406.4,320.14L405.82,320.64L405.11,320.64L404.55,321.09L403.62,321.14L403.52,321.68L403.71,322.5L402.97,324.17L402.26,326.12L400.77,325.93L400,326.45L398.73,326.79L397.39,326.87L396.75,326.2L395.44,325.23L395.48,324.71L394.83,324.74L394.33,324.29L393.28,324.64L392.63,324.32L392.51,323.87L391.73,322.6L390.31,321.48L390.03,320.88L389.25,320.37L388.7,321.06L387.99,321.33L387.34,321.96L386.62,321.81L386,322.08L384.64,322.03L384.27,322.23L383.16,321.21L382.88,321.23L381.73,320.34L380.93,319.19L380.74,318.68L379.78,317.21L379.1,316.86L377.43,315.6L376.87,314.82L376.31,314.4L376.56,312.95L378.39,311.71L382.42,309.17L384.18,308.32L385.85,308.37L386.76,308.85L387.22,310.34L387.8,311.14L389.61,312.45L390.22,314.21L391.24,315.65L392.01,315.76L392.61,315.29L393.32,313.81L393.72,313.3L394.54,313.13L396.98,313.18L398.28,312.63L399.14,312.81L399.47,313.19L400.04,313.26L401.4,312.91L402.21,313.05L403.01,312.63L403.81,312.78L403.91,313.42L404.58,314.45L405.53,313.95L406.42,314.17L407.57,314.71L408.86,315.09L409.11,315.56L410.34,316.5L410.9,316.41L411.02,318.26L412.34,320.32L412.59,320.4L413.18,321.51L413.74,321.66L415.37,322.83L416.33,322.74L418.01,321.74L420.25,322.4L421.63,322.14ZM410.81,328.32L411.26,328.7L412.4,328.53L413.2,328.62L414.71,329.81L416.17,331.55L416.56,330.87L415.9,329.81L415.24,329L415.55,328.79L416.25,329.09L416.75,330.41L417.2,330.61L418.6,330.44L419.13,330.1L419.26,329.51L418.92,329.09L418.7,328.19L419.08,327.68L420.03,327.73L420.67,328.41L420.88,329.34L421.62,329.85L421.51,330.36L420.08,332.9L417.38,335.53L414.83,337.15L413.08,338.16L411.86,339.02L410.32,339.18L409.36,339.43L408.25,340.62L406.98,341.47L405.86,342.57L404.75,342.57L404.06,342.32L403.32,343.16L402.36,343.5L401.09,342.32L400.03,342.66L398.34,342.66L397.06,342.4L396.53,341.38L396.9,339.77L396.64,338.68L394.83,337.82L394.15,337.4L391.66,337.48L389.75,335.96L388.27,335.96L387.05,335.03L385.83,334.86L384.77,335.53L384.03,335.53L383.02,336.3L381.96,336.3L381.48,336.81L381.64,339.77L380.89,340.28L379.46,340.28L377.61,340.71L375.7,339.35L373.95,337.91L373.52,337.4L373.1,335.7L373.15,334.69L372.3,333.75L373.63,331.98L373.05,328.41L373.26,327.81L374.8,327.22L376.28,326.79L378.35,326.62L379.36,325.77L380.79,325.34L382.01,325.51L383.44,325.94L384.93,326.79L386.41,327.3L387.58,327.98L389.44,328.41L390.6,328.32L391.34,329.26L392.72,330.02L395.11,331L395.82,330.27L398.37,330.66L399.27,331.25L399.88,331.38L400.99,331.16L402.27,330.32L403.52,329.13L404.73,329.13L405.5,328.79L405.93,328.15L406.75,325.6L407.26,325.3L408.34,325.22L409.64,325.85L410.52,327.26Z" class="land" id="NL-ZE" title="Zeeland"/>
    <path d="M426.71,296.4L424.77,296.11L423.78,295.32L422.39,294.46L422.54,293.88L423.52,294.03L425.47,294.56L426.61,295.11L427.67,295.42L427.92,295.73ZM407.95,285.56L408.79,286.69L409.69,287.39L410.34,287.63L411.42,288.58L413.14,289.36L414.62,290.38L415.92,290.84L417.07,291.63L418.7,292.09L418.79,292.41L420.02,293.6L421.58,294.79L421.67,295.03L423.16,296.78L424.62,297.24L425.77,298.27L426.34,298.5L429.5,298.54L430.14,298.04L430.48,299.25L428.32,300.73L427.84,301.39L425.75,302.31L424.62,302.4L423.58,302.83L421.14,302.47L420.24,301.43L420.23,301.11L418.77,300.65L418.52,300.33L417.3,300.27L416.39,298.92L414.11,298.07L412.74,298.17L410.7,297.73L410.69,297.16L410.02,295.64L409.19,294.93L408.93,294.05L408.92,293.32L409.14,292.43L408.96,291.54L408.13,290.58L407.96,290.11L407.22,289.56L406.25,289.74L406.08,289.49L405.03,289.52L404.23,290.02L403.18,290.2L402.45,290.54L401.8,290.47L401.9,291.37L401.34,291.62L400.76,291.47L399.87,289.75L399.97,288.74L400.49,288.11L402.04,287.59L402.6,287.56L406.4,285.94ZM452.3,251.18L452.72,251.99L452.73,253.46L453.39,253.62L454.71,255.08L455.69,255.48L457.75,257.01L456.77,257.58L456.79,259.14L455.73,259.31L454.74,258.99L454.49,258.66L453.35,259L453.03,259.49L453.03,260.06L452.22,260.64L453.87,261.85L454.05,264.94L455.04,265.42L456.76,265.49L456.34,266.07L455.29,266.48L454.24,267.22L453.6,268.36L453.27,268.61L453.12,269.34L452.55,269.67L452.8,270.4L453.54,270.48L454.02,270.14L455.24,270.05L455.82,271.19L453.63,271.69L454.62,272.99L455.19,273.95L456.01,274.6L456.67,275.89L457.01,277.35L458.88,276.93L459.68,276.44L460.11,276.76L460.41,278.27L460.98,278.38L461.67,279.82L462.07,280.25L462.43,281.38L463.59,281.06L463.86,283.42L464.98,282.88L465.34,284.43L464.7,284.43L464.14,284.52L463.56,284.19L463.82,285.73L465.61,286.04L465.29,288.07L463.91,287.83L463.18,287.84L461.56,287.45L459.77,287.21L458.47,287.55L457.42,288.29L455.97,289.51L454.68,289.93L453.05,289.7L451.6,290.11L450.15,291.34L449.2,293.21L447.67,294.84L446.38,295.66L445.66,295.99L444.29,296.34L443.8,296.66L442.92,296.91L443.07,296.18L441.78,297.24L440.82,297.75L440.34,297.67L439.13,298.33L437.51,298.67L435.97,298.13L435.23,297.73L434.02,297.42L432.48,297.37L431.01,296.9L428.24,295.41L427.42,294.86L424.57,293.69L422.85,293.31L421.8,292.84L420.8,291.65L420.79,290.84L419.8,289.81L419.14,289.41L418.08,289.35L417.18,288.23L416.6,287.75L415.06,288.02L414.16,287.31L413.59,287.41L411.67,285.81L411.51,284.81L410.62,283.35L409.59,281.95L409.72,281.35L410.77,280.12L410.74,279.04L410.15,278.61L407.8,279.3L407.36,279.02L407.49,278.17L408.23,277.61L408.14,277.21L408.85,276.11L408.51,275.1L408.54,274.27L408.91,273.19L409.35,272.89L409.93,273.19L411.17,273.44L412.35,274.13L412.79,274.15L414.11,272.56L415.32,271.5L416.28,270.2L416.59,269.59L417.98,267.81L418.36,267.55L419.9,265.74L420.89,264.41L421.33,264.08L423.31,261.56L425.04,259.87L427.42,256.62L428.14,255.73L430.46,251.92L431.73,249.67L433.34,246.51L433.71,245.58L434.64,243.7L435.41,241.95L439.35,243.64L440.49,242.81L441.39,242.95L442.06,243.28L441.57,244.18L440.78,246.31L439.64,247.4L439.67,249.03L439.35,250.5L438.62,251.17L438.99,251.88L439.95,252.05L440.52,251.88L441.59,252.28L442.49,252.26L443.63,251.92L445.33,250.76L445.75,251.25L446.24,251.16L447.22,250.49L448.37,250.65L448.3,252.12L448.96,253.01L449.45,252.27L450.51,251.93L451.81,251.02Z" class="land" id="NL-ZH" title="Zuid-Holland"/>
  </g>
</svg>