<?xml version="1.0" encoding="UTF-8"?>
<svg xmlns="http://www.w3.org/2000/svg" width="329.65" height="262.3" viewBox="315.17 125.85 329.65 262.3" style="background-color:#000000">
  <!-- Created using SVG Map Generator: dojo.amcharts.com/svg-map-generator -->
  <style>
    .land { fill: #ffffff; stroke: #000000; stroke-width: 0.65; }
  </style>
  <g id="polygons">
    <path d="M329.81,292.59L331.64,292.34L343.41,292.65L347.43,288.78L348.24,288.89L348.56,289.27L353.81,299.62L354.31,307.74L357.61,312.79L357.36,317.97L356.44,320.99L354.49,323.48L354.31,327.06L355.41,328.31L354.94,332.39L344.34,347.68L342.96,346.62L338.19,346.3L334.61,344.62L333.72,342.34L333.16,335.58L331.16,331.68L326.48,325.05L336.88,323.16L340.13,321.7L340.34,319.03L333.49,317.75L324.3,318.29L322.74,311.69L322.06,306.63L322.56,302.99L326.19,302.45L329.04,298.07Z" class="land" id="MK-72" title="Struga"/>
    <path d="M329.81,292.59L327.68,288.75L323.73,287.01L322.55,281.57L326.32,277.68L332.01,274.51L333.46,272.03L338.74,272.38L340.99,277.68L343.75,278.92L344.69,281.9L344.69,286.85L347.43,288.78L343.41,292.65L331.64,292.34Z" class="land" id="MK-78" title="Centar Župa"/>
    <path d="M322.55,281.57L321.19,278.95L318.81,277.3L317.92,274.78L317.82,267.82L323.98,266.47L327.51,264.66L329.27,261.47L331.63,262.52L334.12,265.32L337.29,267.62L342.97,268.5L345.61,270.8L348.79,275.03L353.28,276.97L353.82,279.79L350.76,280.57L349.24,287L348.24,288.89L347.43,288.78L344.69,286.85L344.69,281.9L343.75,278.92L340.99,277.68L338.74,272.38L333.46,272.03L332.01,274.51L326.32,277.68Z" class="land" id="MK-21" title="Debar"/>
    <path d="M329.27,261.47L326.57,252.49L325.93,248.88L324.93,236.62L326.31,232.59L330.49,228.03L331.21,225.44L337.55,228.08L338.85,229.57L343.67,232.64L348.9,233.32L352.71,229.12L362.09,230.03L364.45,233.78L364.72,237.05L372.23,237.62L370.47,240.33L375.12,248.41L369.57,249.17L364.92,253.47L362.05,253.59L360.7,255.28L361.78,257.19L364.01,256.84L365.03,262.5L365.03,269.56L363.44,271.34L363.3,275.03L360.23,278.76L357.27,280.69L353.82,279.79L353.28,276.97L348.79,275.03L345.61,270.8L342.97,268.5L337.29,267.62L334.12,265.32L331.63,262.52Z" class="land" id="MK-50" title="Mavrovo i Rostuša"/>
    <path d="M331.21,225.44L330,218.77L330.15,215L333.36,213.03L336.29,216.17L339.89,216.88L342.2,213.51L344.2,213.69L347.83,217.99L351.99,215.41L356.78,218.46L361.85,218.8L364.21,223.11L368.69,224.71L370.2,223.33L373.42,222.89L377.47,223.91L381.12,221.64L380.51,218.92L382.52,217.05L386.19,219.02L391.6,219.26L391.76,221.87L395.06,224.93L398.1,229.3L394.76,229.69L394.09,235.47L391.89,237.62L393.66,240.23L393.84,243.06L395.19,245.89L394.78,251.27L385.04,254.15L382.94,251.42L379.13,249.05L375.12,248.41L370.47,240.33L372.23,237.62L364.72,237.05L364.45,233.78L362.09,230.03L352.71,229.12L348.9,233.32L343.67,232.64L338.85,229.57L337.55,228.08Z" class="land" id="MK-19" title="Gostivar"/>
    <path d="M326.48,325.05L324.3,318.29L333.49,317.75L340.34,319.03L340.13,321.7L336.88,323.16Z" class="land" id="MK-12" title="Vevčani"/>
    <path d="M345.63,350.39L360.06,329.77L362.26,328.86L362.09,325.5L365.48,320.1L367.59,319.09L370.8,319.21L372.91,318.3L376.37,318.3L380.95,319.88L384.24,322.12L390.23,323.03L392.08,322.54L393.08,324.74L390.38,328.64L387.69,330.67L380.02,335.18L376.02,339.86L374.49,346.07L374.25,351.37L372.57,352.49L372.63,354.94L374.02,357.38L372.8,361.86L368.12,363.28L367.03,367.45L367.42,373.04L364.96,373.66L360.75,377.19L358.52,378.09L355.34,377.37L352.34,374.83L350.51,370.97L348.07,361.34Z" class="land" id="MK-58" title="Ohrid"/>
    <path d="M345.63,350.39L344.34,347.68L354.94,332.39L355.41,328.31L354.31,327.06L354.49,323.48L356.44,320.99L357.36,317.97L357.61,312.79L354.31,307.74L353.81,299.62L348.56,289.27L349.66,288.25L362.59,288.25L369.18,289.26L374.01,289.37L376.2,294.55L376.37,298.61L377.31,300.53L379.67,301.32L382.47,305.85L382.63,309.24L387.24,312.6L388.46,315.98L390.78,317.92L392.08,322.54L390.23,323.03L384.24,322.12L380.95,319.88L376.37,318.3L372.91,318.3L370.8,319.21L367.59,319.09L365.48,320.1L362.09,325.5L362.26,328.86L360.06,329.77Z" class="land" id="MK-22" title="Debarca"/>
    <path d="M367.42,373.04L367.03,367.45L368.12,363.28L372.8,361.86L374.02,357.38L372.63,354.94L372.57,352.49L374.25,351.37L374.49,346.07L376.02,339.86L380.02,335.18L387.69,330.67L390.38,328.64L393.08,324.74L394.45,326.91L396.83,326.99L398.68,336.6L400.36,339.2L401.46,341.39L401.46,344.83L397.91,348.9L397.43,352.47L401.05,354.33L401.37,357.28L403.9,360.63L405.14,363.78L410.42,363.68L412.13,364.6L414.04,368.97L418.43,369.49L419.49,374.26L421.11,375.88L419.17,383.19L411.23,382.02L402.27,384.75L383.71,385.5L383.64,381.05L382.62,377.91L380.5,375.85L374.21,373.98Z" class="land" id="MK-66" title="Resen"/>
    <path d="M615.27,303.7L614.79,294.67L613.93,293.54L615.63,291.79L615.85,284.89L619.6,281.6L623.19,276.15L623.02,273.33L631.56,273.02L633.83,272.3L634.16,284.11L634.91,288.41L633.04,291.26L633.95,298.41L633.49,301.54L630.47,303.9L618.96,303.02Z" class="land" id="MK-56" title="Novo Selo"/>
    <path d="M608.34,312.11L607.67,326L606.47,332.49L605.02,335.88L603.65,336.87L599.76,334.03L597.62,330.61L598.28,325.7L595.23,323.75L589.2,323.65L586.14,319.77L588.47,318.69L591.06,314.84L595.62,314.89L598.25,310.92L604.7,311.22Z" class="land" id="MK-26" title="Dojran"/>
    <path d="M610.91,306.14L609.52,307.37L608.34,312.11L604.7,311.22L598.25,310.92L595.62,314.89L591.06,314.84L588.47,318.69L586.14,319.77L583.78,317.83L581.02,318.88L580.65,322.91L578.33,324.56L575.38,320.64L575.38,317.58L573.95,313.66L573.73,307.67L571.01,306.86L565.12,299.57L560.93,297.25L557.07,296.79L555.56,292.71L556.25,288.92L557.63,287.54L566.28,284.97L570.89,285.33L572.78,288.26L576.86,291.53L580.53,291.62L581.79,293.15L579.87,298.27L582.16,302.43L582.32,304.91L588.4,304.44L591.64,308.02L594.23,308.02L596.22,306.51L598.14,307.23L600.72,302.59L603.97,302.18Z" class="land" id="MK-10" title="Valandovo"/>
    <path d="M615.27,303.7L613.27,304.05L610.91,306.14L603.97,302.18L600.72,302.59L598.14,307.23L596.22,306.51L594.23,308.02L591.64,308.02L588.4,304.44L582.32,304.91L582.16,302.43L579.87,298.27L581.79,293.15L580.53,291.62L576.86,291.53L572.78,288.26L570.89,285.33L575.07,282.8L578.11,283.52L578.87,281.85L581.88,277.92L585.42,278.54L587.95,280.08L590.53,283.44L594.21,283.52L599.78,280.79L601.33,282.41L602.27,285.68L601.26,289.61L603.67,290.57L606.31,289.7L607.21,292.49L610.45,294.5L613.93,293.54L614.79,294.67Z" class="land" id="MK-73" title="Strumica"/>
    <path d="M597.62,330.61L594.09,330.59L593.49,334.7L588.7,339.49L588.3,338.58L583.13,335.58L580.26,335.38L580.83,328.2L578.33,324.56L580.65,322.91L581.02,318.88L583.78,317.83L586.14,319.77L589.2,323.65L595.23,323.75L598.28,325.7Z" class="land" id="MK-05" title="Bogdanci"/>
    <path d="M588.7,339.49L583.97,340.43L577.83,339.83L573.64,341.02L567.86,341.08L562.6,338.21L553.31,338.77L551.64,335.56L547.78,335.06L541.54,333.34L540.85,331.41L541.69,328.68L547.6,327.75L546.16,320.66L549.21,319.8L551.51,317.82L550.88,310.5L550.18,308.93L552.52,305.67L558.45,305.45L558.55,302.05L557.01,298.98L557.07,296.79L560.93,297.25L565.12,299.57L571.01,306.86L573.73,307.67L573.95,313.66L575.38,317.58L575.38,320.64L578.33,324.56L580.83,328.2L580.26,335.38L583.13,335.58L588.3,338.58Z" class="land" id="MK-18" title="Gevgelija"/>
    <path d="M541.54,333.34L537.69,333.48L534.8,334.82L530.26,338.97L527.6,339.93L522.47,337.29L520.62,334.82L518.21,337.06L510.12,339.44L505.11,342.39L504.5,338.06L500.34,337.21L500.05,328.12L497.66,324.68L497.93,321.15L499.8,315.88L493.31,315.55L491.76,310.63L492.67,298.9L491.28,296.77L491.14,292.02L488.48,290.56L485.7,287.45L485.7,286.12L488.29,282.43L490.48,283.56L493.62,287.71L501.58,287.62L502.75,284.77L504.43,284.16L507.35,285.88L511.49,282.53L511.68,277.5L512.48,275.71L515.84,276.38L518.17,275.42L520.12,276.89L520.04,280.35L521.34,286.76L521.34,292.71L523.03,297.21L523.29,300.41L525.25,301.63L531.69,307.72L533.19,308.19L534.4,310.95L538.29,313.54L542.65,313.54L550.18,308.93L550.88,310.5L551.51,317.82L549.21,319.8L546.16,320.66L547.6,327.75L541.69,328.68L540.85,331.41Z" class="land" id="MK-36" title="Kavadarci"/>
    <path d="M452.03,376.89L452.73,373.39L451.81,368.45L447.15,362.69L443.89,360.79L443.5,355.62L441.6,353.31L441.45,350.38L442.46,346.22L443.89,343.9L447.15,342.49L450.78,343.9L456.5,344.72L457.94,343.8L463.29,336.94L463.87,334.35L466.41,333.9L467.62,336.22L471.28,338.25L477.69,339.15L481.86,341.18L484.92,341.79L487.36,344.32L490.18,345.53L493.6,344.41L497.26,347.86L501.42,349.45L499.45,353.86L494.93,358.22L493.2,361.39L488.43,364.72L487.18,366.3L486.47,371.4L484.88,373.04L481.28,373.83L474.72,372.35L471.15,373.99L469.51,377.96L466.95,377.98L461.63,382.67L458.1,381.99Z" class="land" id="MK-55" title="Novaci"/>
    <path d="M505.11,342.39L502.04,345.08L501.42,349.45L497.26,347.86L493.6,344.41L490.18,345.53L487.36,344.32L484.92,341.79L481.86,341.18L477.69,339.15L471.28,338.25L467.62,336.22L466.41,333.9L463.87,334.35L458.24,332.32L455.94,330.51L453.39,331.67L450.59,331.58L447.3,328.69L443.76,328.19L439.52,322.49L434.79,321.01L434.19,318.98L436.77,318.69L440.44,314.89L441.61,306.95L439.07,306.69L437.96,303.14L439.96,301.37L442.61,299.67L445.53,296.18L455.26,295.11L458.05,292.54L460.86,291.55L461.84,287.49L464.28,285.75L466.88,286L468.75,288.65L471.79,288.08L473.65,281.85L478.56,280.6L483.97,283.34L485.7,286.12L485.7,287.45L488.48,290.56L491.14,292.02L491.28,296.77L492.67,298.9L491.76,310.63L493.31,315.55L499.8,315.88L497.93,321.15L497.66,324.68L500.05,328.12L500.34,337.21L504.5,338.06Z" class="land" id="MK-62" title="Prilep"/>
    <path d="M452.03,376.89L442.39,375.53L439.29,375.6L436.3,376.96L431.7,381.54L429.73,382.67L425.44,383.58L419.17,383.19L421.11,375.88L419.49,374.26L418.43,369.49L414.04,368.97L412.13,364.6L410.42,363.68L405.14,363.78L403.9,360.63L401.37,357.28L401.05,354.33L397.43,352.47L397.91,348.9L401.46,344.83L401.46,341.39L400.36,339.2L404.62,337.17L407.6,336.8L410.59,335.39L412.02,333.48L415.57,332.2L417.21,329.4L422.11,326.73L424.75,323.58L427.8,325.03L428.92,328.04L427.8,331.83L430.02,336.12L433.7,338.26L433.81,344.94L435.75,347.09L439.65,345.85L442.46,346.22L441.45,350.38L441.6,353.31L443.5,355.62L443.89,360.79L447.15,362.69L451.81,368.45L452.73,373.39Z" class="land" id="MK-04" title="Bitola"/>
    <path d="M473.68,151.44L474.63,163.64L472.1,164.72L472.1,169.08L468.47,169.56L467.82,175.88L464.12,178.68L464.42,181.37L463.53,185.06L460.76,184.88L456.48,179.53L453.79,175.99L450.55,170.19L449.58,167.33L452.94,165.16L453.3,160.62L449.04,155.35L447.77,150.72L448.97,149.24L451.22,150.79L453.83,150.74L459.13,149.34L460.79,150.23L467.08,150.09Z" class="land" id="MK-48" title="Lipkovo"/>
    <path d="M447.77,150.72L449.04,155.35L453.3,160.62L452.94,165.16L449.58,167.33L446.96,167.7L443.99,173.82L443.06,179.94L443.37,185.83L441.59,186.1L439.25,182.54L437.32,183.72L436.35,187.77L433.51,186.53L433.51,184.14L431.34,179.31L426.13,174.73L425.39,166.1L432.83,154.67L436.68,153.15L442.44,154.7L441.18,150.55L443.26,149.39L445.9,151.08Z" class="land" id="MK-82" title="Čučer Sandevo"/>
    <path d="M417.09,173.81L415.38,176.14L408.94,176.82L407.01,178.22L409.06,180.4L411.5,179.72L412,182.75L409.46,184.94L410.73,190.53L406.63,191.84L405.59,193.21L402.24,194.66L397.26,193.9L397.74,191.38L394.73,191.38L392.07,190.22L391.81,189.13L392.19,188.21L397.83,187.07L399.8,186.05L402.07,181.51L404.51,178.97L404.22,175.54L401.03,174.03L396.33,167.05L393.27,164.22L397.5,160.04L400.55,158.08L404.08,159.29L408.88,163.03L413.37,167.45Z" class="land" id="MK-35" title="Jegunovce"/>
    <path d="M393.27,164.22L396.33,167.05L401.03,174.03L404.22,175.54L404.51,178.97L402.07,181.51L399.8,186.05L397.83,187.07L392.19,188.21L391.81,189.13L389.09,187.45L389.44,183.92L388.01,181.64L385.04,180.84L382.94,175.71L379.04,172.75L375.98,171.61L388.59,167.29Z" class="land" id="MK-75" title="Tearce"/>
    <path d="M375.98,171.61L379.04,172.75L382.94,175.71L385.04,180.84L388.01,181.64L389.44,183.92L389.09,187.45L391.81,189.13L392.07,190.22L389.95,192.33L394.09,197.45L390.62,199.52L388.35,199.15L385.72,197.23L382.77,199.56L378.02,195.17L370.75,193.47L368.8,193.59L364.59,196.89L360.44,198.71L356.66,201.63L355.45,196.45L355.61,192.59L357.17,184.2L358.43,180.53L360.9,177.52L364.14,175.66Z" class="land" id="MK-76" title="Tetovo"/>
    <path d="M356.63,206.75L356.66,201.63L360.44,198.71L364.59,196.89L368.8,193.59L370.75,193.47L378.02,195.17L382.77,199.56L383.39,203.59L386.53,203.71L385.5,207.46L381.79,210.52L381.56,213.01L378.49,211.88L371.65,208.02L367.5,206.66L359.65,205.29Z" class="land" id="MK-06" title="Bogovinje"/>
    <path d="M351.99,215.41L355.22,210.52L356.63,206.75L359.65,205.29L367.5,206.66L371.65,208.02L378.49,211.88L381.56,213.01L382.52,217.05L380.51,218.92L381.12,221.64L377.47,223.91L373.42,222.89L370.2,223.33L368.69,224.71L364.21,223.11L361.85,218.8L356.78,218.46Z" class="land" id="MK-16" title="Vrapčište"/>
    <path d="M578.62,166.12L570.79,171.01L567.25,174.52L558.69,174.42L558.35,175.39L551.18,171.06L545.96,172.41L540.8,172.41L540.25,170.99L540.8,166.95L539.42,161.84L538.27,151.89L538.84,145.98L536.66,143.65L534.01,142.87L532.52,141.16L531.99,137.05L544.04,131.96L547.38,128.5L549.08,129.12L549.54,133.27L553.42,137.02L558.15,138.03L570.62,154.94L575.39,158.54L577.08,163.44Z" class="land" id="MK-44" title="Kriva Palanka"/>
    <path d="M531.99,137.05L532.52,141.16L534.01,142.87L536.66,143.65L538.84,145.98L538.27,151.89L539.42,161.84L540.8,166.95L540.25,170.99L538.93,171.49L538.59,174.66L532.44,176.28L524.59,169.71L521.74,169.56L521.09,166.07L517.53,163.63L519.92,163.52L520.03,160.42L518.49,157.88L518.42,153.3L517.25,150.37L521.04,147.96L520.27,139.91L526.6,139.33Z" class="land" id="MK-65" title="Rankovce"/>
    <path d="M520.27,139.91L521.04,147.96L517.25,150.37L518.42,153.3L518.49,157.88L520.03,160.42L519.92,163.52L517.53,163.63L513.38,163.9L513.38,169.78L510.91,174.11L507.7,174.9L506.26,170.64L503.59,170.81L502.68,173.23L497.78,172.17L496.64,170.99L493.33,171.57L487.37,173.7L484.13,169.46L483.78,163.51L484.63,161.97L484.13,155.11L486.76,154.17L486.14,150.93L483.08,149.8L479.06,146.98L491.42,139.45L499.91,138.69L504.2,134.97L507.13,134.66L513.9,138.16Z" class="land" id="MK-71" title="Staro Nagoričane"/>
    <path d="M473.68,151.44L479.06,146.98L483.08,149.8L486.14,150.93L486.76,154.17L484.13,155.11L484.63,161.97L483.78,163.51L484.13,169.46L487.37,173.7L493.33,171.57L496.64,170.99L497.78,172.17L502.68,173.23L503.59,170.81L506.26,170.64L507.7,174.9L506.88,177.98L504.64,181.45L505.27,183.38L508.49,183.62L509.4,187.63L512.73,191.55L511.29,193.96L505.79,195.89L502.92,192.02L497.75,191.96L494.38,195.27L494.08,197.67L490.87,201.36L486.98,197.93L480.43,198.64L478.7,196.33L474.92,194.24L475.11,189.83L473.06,189.17L468.19,184.67L468.05,182.73L464.42,181.37L464.12,178.68L467.82,175.88L468.47,169.56L472.1,169.08L472.1,164.72L474.63,163.64Z" class="land" id="MK-47" title="Kumanovo"/>
    <path d="M593.83,178.01L599.99,181.16L603.75,181.97L606.21,184.25L611.96,183.99L613.82,184.83L615.54,187.87L619.09,187.21L621.2,189.01L622.61,194.44L623.12,200.34L625.42,208.14L626.06,213.3L619.66,218.9L617.19,223.82L614.67,224.55L612.5,227.37L610.32,227.4L606.13,225.61L599.8,224.23L600.01,221.09L601.69,218.34L602.59,213.18L604.7,208.73L600.8,208.02L595.91,205.42L591.48,203.81L591.14,194.46L591.17,190.8L593.4,189.83Z" class="land" id="MK-23" title="Delčevo"/>
    <path d="M578.62,166.12L581.68,169.49L593.83,178.01L593.4,189.83L591.17,190.8L591.14,194.46L587.12,193.83L584.11,200.7L582.66,201.67L579.98,200.8L579.15,193.83L576.62,189.86L576.32,185.98L572.73,183.72L572.06,176.92L570.49,175.22L568.63,177.16L567.25,174.52L570.79,171.01Z" class="land" id="MK-51" title="Makedonska Kamenica"/>
    <path d="M639.12,246.26L636.79,251.37L633.49,252.96L632.49,257.24L632.58,261.92L634.48,265.91L633.83,272.3L631.56,273.02L623.02,273.33L620.13,270.93L612.11,270.05L606.57,264.49L602.79,263.61L601.54,261.6L601.88,258.24L597.56,254.3L594.08,253.55L593.46,249.85L595.94,245.94L593.54,243.03L593.03,237.81L597.18,236.64L599.71,231.17L599.8,224.23L606.13,225.61L610.32,227.4L613.46,236.47L617.91,236.08L624.88,237.76L625.54,240.18L629.28,240.27L633.6,243.48L637.03,244.6Z" class="land" id="MK-03" title="Berovo"/>
    <path d="M626.06,213.3L628.5,215.2L630.63,223.03L633.34,229.4L635.51,231.27L639.85,232.07L642.09,235.64L642.18,239.62L639.12,246.26L637.03,244.6L633.6,243.48L629.28,240.27L625.54,240.18L624.88,237.76L617.91,236.08L613.46,236.47L610.32,227.4L612.5,227.37L614.67,224.55L617.19,223.82L619.66,218.9Z" class="land" id="MK-60" title="Pehčevo"/>
    <path d="M390.62,199.52L394.09,197.45L389.95,192.33L392.07,190.22L394.73,191.38L397.74,191.38L397.26,193.9L402.24,194.66L405.59,193.21L411.79,196.57L412.12,199.42L410.88,208.43L415.54,212.27L416.4,214.46L418.54,215.97L417.66,222.54L411.33,218.84L410.65,216.19L408.29,218.24L404.23,218.34L401.78,216.19L397.05,215.85L397.05,212.67L398.49,211.2L398.22,208.36L395.36,207.68L395.1,203.71L393.32,203.25Z" class="land" id="MK-30" title="Želino"/>
    <path d="M390.62,199.52L393.32,203.25L395.1,203.71L395.36,207.68L398.22,208.36L398.49,211.2L397.05,212.67L397.05,215.85L401.78,216.19L404.23,218.34L408.29,218.24L410.65,216.19L411.33,218.84L409.13,218.68L403.72,223.79L401.61,227.2L398.1,229.3L395.06,224.93L391.76,221.87L391.6,219.26L386.19,219.02L382.52,217.05L381.56,213.01L381.79,210.52L385.5,207.46L386.53,203.71L383.39,203.59L382.77,199.56L385.72,197.23L388.35,199.15Z" class="land" id="MK-08" title="Brvenica"/>
    <path d="M411.33,218.84L417.66,222.54L420.49,225.69L424.67,232L426.62,235.83L429.06,238.01L431.89,237.66L435.38,239.25L435.38,245.02L438.07,248.58L437.44,251.27L435.19,253.88L435.42,260.52L434.45,260.52L434.13,265.66L429.48,273.46L429.59,277.87L425.99,276.22L420.8,279.69L420.93,280.92L419.27,280.94L418.53,285.9L412.77,288.18L412.37,286.36L408.38,284.82L407.02,282.56L406.96,279.95L404.8,279.49L400.88,281.38L397.73,281.84L397.97,279.12L400.09,278.21L402.7,275.61L406.77,270.42L403.98,268.84L401.78,266.35L401.02,262.62L401.09,255.74L398.65,253.59L395.95,253.47L394.78,251.27L395.19,245.89L393.84,243.06L393.66,240.23L391.89,237.62L394.09,235.47L394.76,229.69L398.1,229.3L401.61,227.2L403.72,223.79L409.13,218.68Z" class="land" id="MK-52" title="Makedonski Brod"/>
    <path d="M417.66,222.54L418.54,215.97L416.4,214.46L415.54,212.27L416.2,210.62L421.11,208.7L425.68,204.32L430.29,201.16L433.83,200.77L443.37,200.77L444.66,204.15L443.73,210.47L438.49,210.79L433.5,209.48L430.65,211.01L431.22,214.75L435.46,215.39L433.5,217.92L432.04,224.5L430.08,226.69L432.35,229.42L431.39,231.13L430.92,235.62L431.89,237.66L429.06,238.01L426.62,235.83L424.67,232L420.49,225.69Z" class="land" id="MK-70" title="Sopište"/>
    <path d="M456.37,193.62L455.47,196.79L460.44,199.92L461.79,205.13L460.42,206.76L458.3,203.67L453.59,206.81L452.48,209.67L449.69,208.73L449.69,205.05L448.53,203.71L444.66,204.15L443.37,200.77L433.83,200.77L430.29,201.16L425.68,204.32L421.11,208.7L416.2,210.62L415.54,212.27L410.88,208.43L412.12,199.42L411.79,196.57L405.59,193.21L406.63,191.84L410.73,190.53L409.46,184.94L412,182.75L411.5,179.72L409.06,180.4L407.01,178.22L408.94,176.82L415.38,176.14L417.09,173.81L418.16,174.9L424.62,176.21L426.13,174.73L431.34,179.31L433.51,184.14L433.51,186.53L436.35,187.77L437.32,183.72L439.25,182.54L441.59,186.1L443.37,185.83L443.06,179.94L443.99,173.82L446.96,167.7L449.58,167.33L450.55,170.19L453.79,175.99L456.48,179.53L456.29,182.17L457.48,183.92L457.85,188.72L456.37,190.54Z" class="land" id="MK-85" title="Skopje"/>
    <path d="M435.42,260.52L441.59,262.35L444.32,266.66L445.7,267.16L446.81,274.71L449.79,277.87L455.45,277.36L457.62,281.68L462.16,282.85L464.28,285.75L461.84,287.49L460.86,291.55L458.05,292.54L455.26,295.11L445.53,296.18L442.61,299.67L439.96,301.37L438.3,300.08L432.95,300.67L431.96,299.67L431.22,295.53L427.34,297.25L422.74,292.21L421.87,289.64L426.08,289.73L426.21,287.91L420.93,280.92L420.8,279.69L425.99,276.22L429.59,277.87L429.48,273.46L434.13,265.66L434.45,260.52Z" class="land" id="MK-27" title="Dolneni"/>
    <path d="M439.96,301.37L437.96,303.14L439.07,306.69L441.61,306.95L440.44,314.89L436.77,318.69L434.19,318.98L430.4,316.15L428.78,314.89L430.1,311.34L430.1,307.86L427.11,303.48L427.34,297.25L431.22,295.53L431.96,299.67L432.95,300.67L438.3,300.08Z" class="land" id="MK-45" title="Krivogaštani"/>
    <path d="M434.19,318.98L434.79,321.01L439.52,322.49L443.76,328.19L447.3,328.69L450.59,331.58L453.39,331.67L455.94,330.51L458.24,332.32L463.87,334.35L463.29,336.94L457.94,343.8L456.5,344.72L450.78,343.9L447.15,342.49L443.89,343.9L442.46,346.22L439.65,345.85L435.75,347.09L433.81,344.94L433.7,338.26L430.02,336.12L427.8,331.83L428.92,328.04L427.8,325.03L426.42,323.48L428.84,316.54L430.4,316.15Z" class="land" id="MK-53" title="Mogila"/>
    <path d="M435.42,260.52L435.19,253.88L437.44,251.27L438.07,248.58L439.07,244.18L442.02,241.71L444.27,237.05L449.18,234.85L449.9,235.57L460.28,235.57L462.93,241.21L465.31,240.93L472.96,243.08L475.73,252.71L477.72,253.54L480.33,252.57L480.64,256.87L481.76,258.12L485.88,259L485.68,262.28L489.5,265.54L489.99,268.19L487.73,271.37L487.84,276.18L491.28,278.26L490.48,283.56L488.29,282.43L485.7,286.12L483.97,283.34L478.56,280.6L473.65,281.85L471.79,288.08L468.75,288.65L466.88,286L464.28,285.75L462.16,282.85L457.62,281.68L455.45,277.36L449.79,277.87L446.81,274.71L445.7,267.16L444.32,266.66L441.59,262.35Z" class="land" id="MK-80" title="Čaška"/>
    <path d="M490.48,283.56L491.28,278.26L495.8,275.51L495.36,271.1L496.65,270.66L500.23,272.57L502.16,272.57L504.89,268.85L508.97,269.88L509.29,267.47L512.43,267.35L512.48,275.71L511.68,277.5L511.49,282.53L507.35,285.88L504.43,284.16L502.75,284.77L501.58,287.62L493.62,287.71Z" class="land" id="MK-67" title="Rosoman"/>
    <path d="M512.48,275.71L512.43,267.35L514.15,267.72L514.83,271.56L516.44,271.49L517.74,268.36L516.54,265.59L518.58,261.57L517.63,259.29L513.08,260.67L511.82,259.42L512.54,256.31L514.2,254.92L515.89,250.27L519.81,252.08L522.24,255.55L524.95,252.42L527.37,254.86L528.56,260.25L535.83,261.5L536.25,265.05L541.84,268.5L547.44,268.85L549.64,271.42L552.22,275.91L552.47,278.02L548.94,281.03L547.33,283.84L545.54,283.47L540.95,280.42L539.07,280.16L534.99,284.38L532.87,290.94L530.27,293.27L532.56,297.06L531.51,301.34L525.25,301.63L523.29,300.41L523.03,297.21L521.34,292.71L521.34,286.76L520.04,280.35L520.12,276.89L518.17,275.42L515.84,276.38Z" class="land" id="MK-54" title="Negotino"/>
    <path d="M420.93,280.92L426.21,287.91L426.08,289.73L421.87,289.64L422.74,292.21L427.34,297.25L427.11,303.48L430.1,307.86L430.1,311.34L428.78,314.89L430.4,316.15L428.84,316.54L426.42,323.48L427.8,325.03L424.75,323.58L425.18,317.23L423.03,314.67L422.07,310.52L420.5,308.6L415.58,308.28L415.71,301.58L414.87,300.3L409.58,300.3L409.58,297.89L405.68,295.63L404.97,292.24L407.3,290.59L412.77,288.18L418.53,285.9L419.27,280.94Z" class="land" id="MK-46" title="Kruševo"/>
    <path d="M405.68,295.63L409.58,297.89L409.58,300.3L414.87,300.3L415.71,301.58L415.58,308.28L420.5,308.6L422.07,310.52L423.03,314.67L425.18,317.23L424.75,323.58L422.11,326.73L417.21,329.4L415.57,332.2L412.02,333.48L410.59,335.39L407.6,336.8L404.62,337.17L400.36,339.2L398.68,336.6L396.83,326.99L394.45,326.91L393.08,324.74L392.08,322.54L390.78,317.92L388.46,315.98L387.24,312.6L382.63,309.24L382.47,305.85L386.08,302.16L389.07,300.83L398.91,300.77Z" class="land" id="MK-25" title="Demir Hisar"/>
    <path d="M431.89,237.66L430.92,235.62L431.39,231.13L432.35,229.42L430.08,226.69L432.04,224.5L433.5,217.92L435.46,215.39L431.22,214.75L430.65,211.01L433.5,209.48L438.49,210.79L443.73,210.47L444.66,204.15L448.53,203.71L449.69,205.05L449.69,208.73L452.48,209.67L453.59,206.81L458.3,203.67L460.42,206.76L462.24,209.35L455.95,213.57L455.61,215.97L453.23,219.31L452.96,221.91L450.52,222.5L448.96,220.13L447.08,223.18L447.25,226.74L449.74,231.13L449.18,234.85L444.27,237.05L442.02,241.71L439.07,244.18L438.07,248.58L435.38,245.02L435.38,239.25Z" class="land" id="MK-74" title="Studeničani"/>
    <path d="M546.93,200.29L545.04,200.65L542.84,206.51L538.69,209.16L538.48,211.23L542.91,217.11L537.83,217.95L535.71,214.53L533.14,215.32L529.55,213.9L527,214L525.34,211.67L526.43,207.9L523.99,206.46L521.47,201.55L516.31,197.5L516.25,194.42L517.66,191.46L522.56,193.06L523.63,189.8L525.21,188.25L527.84,188.35L535.13,185.64L537.57,188.25L541.73,187.17L543.09,189.11L545.53,188.25L546.02,182.75L552.69,182.83L557.11,187.04L556.02,191.33L553.53,192.67L552.18,195.34Z" class="land" id="MK-63" title="Probištip"/>
    <path d="M546.93,200.29L549.1,203.91L551.03,205.23L555.95,205.1L555.63,211.84L557.04,215.99L559.6,217.53L559.94,221.16L563.96,226.78L560.89,227.17L558.12,224.38L555.2,224.52L550.25,223.67L546.93,221.25L542.91,217.11L538.48,211.23L538.69,209.16L542.84,206.51L545.04,200.65Z" class="land" id="MK-81" title="Češinovo-Obleševo"/>
    <path d="M456.37,193.62L456.37,190.54L457.85,188.72L457.48,183.92L456.29,182.17L456.48,179.53L460.76,184.88L463.53,185.06L464.42,181.37L468.05,182.73L468.19,184.67L462.44,191.43Z" class="land" id="MK-02" title="Aračinovo"/>
    <path d="M449.18,234.85L449.74,231.13L447.25,226.74L447.08,223.18L448.96,220.13L450.52,222.5L452.96,221.91L453.23,219.31L455.61,215.97L455.95,213.57L462.24,209.35L464.06,209.43L468.66,211.42L468.43,220.02L467.39,222.08L466.8,225.55L467.91,229.71L465.36,233.95L460.28,235.57L449.9,235.57Z" class="land" id="MK-32" title="Zelenikovo"/>
    <path d="M394.78,251.27L395.95,253.47L398.65,253.59L401.09,255.74L401.02,262.62L401.78,266.35L403.98,268.84L406.77,270.42L402.7,275.61L400.09,278.21L397.97,279.12L397.73,281.84L393.49,281.36L393.08,283.17L394.76,288.7L399.33,287.57L400.68,290.17L404.97,292.24L405.68,295.63L398.91,300.77L389.07,300.83L386.08,302.16L382.47,305.85L379.67,301.32L377.31,300.53L376.37,298.61L376.2,294.55L374.01,289.37L369.18,289.26L362.59,288.25L349.66,288.25L348.56,289.27L348.24,288.89L349.24,287L350.76,280.57L353.82,279.79L357.27,280.69L360.23,278.76L363.3,275.03L363.44,271.34L365.03,269.56L365.03,262.5L364.01,256.84L361.78,257.19L360.7,255.28L362.05,253.59L364.92,253.47L369.57,249.17L375.12,248.41L379.13,249.05L382.94,251.42L385.04,254.15Z" class="land" id="MK-40" title="Kičevo"/>
    <path d="M412.77,288.18L407.3,290.59L404.97,292.24L400.68,290.17L399.33,287.57L394.76,288.7L393.08,283.17L393.49,281.36L397.73,281.84L400.88,281.38L404.8,279.49L406.96,279.95L407.02,282.56L408.38,284.82L412.37,286.36Z" class="land" id="MK-61" title="Plasnica"/>
    <path d="M460.42,206.76L461.79,205.13L467.93,201.44L470.06,202.92L473.32,202.65L472.86,198.21L474.92,194.24L478.7,196.33L480.43,198.64L486.98,197.93L490.87,201.36L489.65,206.51L485.3,209.79L481.16,211.33L481.49,215.65L479.61,223.89L477.12,224.27L475.74,222.26L472.36,225.08L471.04,223.37L467.39,222.08L468.43,220.02L468.66,211.42L464.06,209.43L462.24,209.35Z" class="land" id="MK-59" title="Petrovec"/>
    <path d="M495.42,219.53L498.5,220.14L501.37,223.89L505.68,225.81L509.75,231.1L516.3,236.83L515.71,239.23L512.96,241.05L510.22,238.47L508.78,238.89L506.54,243.69L509.43,246.53L509.62,248.49L506.54,251.56L501.89,250.53L500.84,243.18L499.72,239.18L497.01,240.37L494.92,236.59L492.48,236.22L492.43,234.22L494.03,229.32L491.48,225.98L491.66,224.64L495.02,221.08Z" class="land" id="MK-49" title="Lozovo"/>
    <path d="M516.3,236.83L509.75,231.1L505.68,225.81L501.37,223.89L498.5,220.14L495.42,219.53L491.01,213.98L489.65,206.51L490.87,201.36L494.08,197.67L494.38,195.27L497.75,191.96L502.92,192.02L505.79,195.89L511.29,193.96L512.73,191.55L517.66,191.46L516.25,194.42L516.31,197.5L521.47,201.55L523.99,206.46L526.43,207.9L525.34,211.67L527,214L525.21,216.09L526.57,220.52L521.37,229.18L518.58,231L519.79,233.01L519.93,239.27Z" class="land" id="MK-69" title="Sveti Nikole"/>
    <path d="M512.43,267.35L509.29,267.47L508.97,269.88L504.89,268.85L502.16,272.57L500.23,272.57L496.65,270.66L495.36,271.1L495.8,275.51L491.28,278.26L487.84,276.18L487.73,271.37L489.99,268.19L489.5,265.54L485.68,262.28L485.88,259L486.68,255.77L489.99,255.48L493.31,248.6L496.51,245.04L497.01,240.37L499.72,239.18L500.84,243.18L501.89,250.53L506.54,251.56L509.62,248.49L513.49,248.75L515.89,250.27L514.2,254.92L512.54,256.31L511.82,259.42L513.08,260.67L517.63,259.29L518.58,261.57L516.54,265.59L517.74,268.36L516.44,271.49L514.83,271.56L514.15,267.72Z" class="land" id="MK-20" title="Gradsko"/>
    <path d="M557.11,187.04L552.69,182.83L546.02,182.75L545.53,188.25L543.09,189.11L541.73,187.17L537.57,188.25L535.13,185.64L527.84,188.35L525.21,188.25L523.63,189.8L522.56,193.06L517.66,191.46L512.73,191.55L509.4,187.63L508.49,183.62L505.27,183.38L504.64,181.45L506.88,177.98L507.7,174.9L510.91,174.11L513.38,169.78L513.38,163.9L517.53,163.63L521.09,166.07L521.74,169.56L524.59,169.71L532.44,176.28L538.59,174.66L538.93,171.49L540.25,170.99L540.8,172.41L545.96,172.41L551.18,171.06L558.35,175.39L559.31,179.5Z" class="land" id="MK-43" title="Kratovo"/>
    <path d="M461.79,205.13L460.44,199.92L455.47,196.79L456.37,193.62L462.44,191.43L468.19,184.67L473.06,189.17L475.11,189.83L474.92,194.24L472.86,198.21L473.32,202.65L470.06,202.92L467.93,201.44Z" class="land" id="MK-34" title="Ilinden"/>
    <path d="M542.91,217.11L546.93,221.25L550.25,223.67L555.2,224.52L558.12,224.38L560.89,227.17L563.96,226.78L570.99,227.27L570.94,230.51L567.43,232.9L567.18,236.84L565.23,240.25L562.79,239.37L554.87,240.94L552.22,240.94L546.35,234.88L543.86,234.46L538.16,229.39L532.36,228.74L530.43,224.61L530.06,219.31L533.14,215.32L535.71,214.53L537.83,217.95Z" class="land" id="MK-37" title="Karbinci"/>
    <path d="M515.89,250.27L513.49,248.75L509.62,248.49L509.43,246.53L506.54,243.69L508.78,238.89L510.22,238.47L512.96,241.05L515.71,239.23L516.3,236.83L519.93,239.27L519.79,233.01L518.58,231L521.37,229.18L526.57,220.52L525.21,216.09L527,214L529.55,213.9L533.14,215.32L530.06,219.31L530.43,224.61L532.36,228.74L538.16,229.39L543.86,234.46L546.35,234.88L552.22,240.94L554.87,240.94L562.79,239.37L565.23,240.25L561.21,247.78L558.87,247.87L553.88,245.94L551.36,249.07L553.33,254.47L553.33,257.43L555.42,259.52L547.44,268.85L541.84,268.5L536.25,265.05L535.83,261.5L528.56,260.25L527.37,254.86L524.95,252.42L522.24,255.55L519.81,252.08Z" class="land" id="MK-83" title="Štip"/>
    <path d="M546.93,200.29L552.18,195.34L553.53,192.67L556.02,191.33L557.11,187.04L559.31,179.5L558.35,175.39L558.69,174.42L567.25,174.52L568.63,177.16L570.49,175.22L572.06,176.92L572.73,183.72L576.32,185.98L576.62,189.86L579.15,193.83L579.98,200.8L576.6,201.99L574,199.66L571.6,200.37L570.4,206.68L570.53,212.25L569.59,213.66L566.58,216.26L563.96,215.27L561.71,217.45L559.6,217.53L557.04,215.99L555.63,211.84L555.95,205.1L551.03,205.23L549.1,203.91Z" class="land" id="MK-42" title="Kočani"/>
    <path d="M559.6,217.53L561.71,217.45L563.96,215.27L566.58,216.26L569.59,213.66L571.18,218.55L570.99,227.27L563.96,226.78L559.94,221.16Z" class="land" id="MK-33" title="Zrnovci"/>
    <path d="M460.28,235.57L465.36,233.95L467.91,229.71L466.8,225.55L467.39,222.08L471.04,223.37L472.36,225.08L475.74,222.26L477.12,224.27L479.61,223.89L481.49,215.65L481.16,211.33L485.3,209.79L489.65,206.51L491.01,213.98L495.42,219.53L495.02,221.08L491.66,224.64L491.48,225.98L494.03,229.32L492.43,234.22L492.48,236.22L494.92,236.59L497.01,240.37L496.51,245.04L493.31,248.6L489.99,255.48L486.68,255.77L485.88,259L481.76,258.12L480.64,256.87L480.33,252.57L477.72,253.54L475.73,252.71L472.96,243.08L465.31,240.93L462.93,241.21Z" class="land" id="MK-13" title="Veles"/>
    <path d="M552.47,278.02L556.49,280.4L556.85,282.88L555.52,284.97L556.25,288.92L555.56,292.71L557.07,296.79L557.01,298.98L558.55,302.05L558.45,305.45L552.52,305.67L550.18,308.93L542.65,313.54L538.29,313.54L534.4,310.95L533.19,308.19L531.69,307.72L525.25,301.63L531.51,301.34L532.56,297.06L530.27,293.27L532.87,290.94L534.99,284.38L539.07,280.16L540.95,280.42L545.54,283.47L547.33,283.84L548.94,281.03Z" class="land" id="MK-24" title="Demir Kapija"/>
    <path d="M570.94,230.51L570.99,227.27L571.18,218.55L569.59,213.66L570.53,212.25L570.4,206.68L571.6,200.37L574,199.66L576.6,201.99L579.98,200.8L582.66,201.67L584.11,200.7L587.12,193.83L591.14,194.46L591.48,203.81L595.91,205.42L600.8,208.02L604.7,208.73L602.59,213.18L601.69,218.34L600.01,221.09L599.8,224.23L599.71,231.17L597.18,236.64L593.03,237.81L589.35,237L586.29,234.18L581.43,230.73L580.11,233.05L575.55,233.54Z" class="land" id="MK-14" title="Vinica"/>
    <path d="M623.02,273.33L623.19,276.15L619.6,281.6L615.85,284.89L615.63,291.79L613.93,293.54L610.45,294.5L607.21,292.49L606.31,289.7L603.67,290.57L601.26,289.61L602.27,285.68L601.33,282.41L599.78,280.79L603.06,278.95L606.37,274.46L607.09,269.65L606.57,264.49L612.11,270.05L620.13,270.93Z" class="land" id="MK-07" title="Bosilovo"/>
    <path d="M565.23,240.25L567.18,236.84L567.43,232.9L570.94,230.51L575.55,233.54L580.11,233.05L581.43,230.73L586.29,234.18L589.35,237L593.03,237.81L593.54,243.03L595.94,245.94L593.46,249.85L594.08,253.55L589.96,254.38L587.92,257.77L587.62,259.84L590.26,263.23L591.22,267.64L591.11,270.52L588.63,272.69L582.93,267.81L581.01,269.73L577.7,271.25L578.21,274.98L571.58,273.09L573.19,269.65L570.35,265.63L567.52,262.82L560.79,262.26L558.69,260.4L555.42,259.52L553.33,257.43L553.33,254.47L551.36,249.07L553.88,245.94L558.87,247.87L561.21,247.78Z" class="land" id="MK-64" title="Radoviš"/>
    <path d="M578.87,281.85L578.09,278.8L578.21,274.98L577.7,271.25L581.01,269.73L582.93,267.81L588.63,272.69L591.11,270.52L591.22,267.64L590.26,263.23L587.62,259.84L587.92,257.77L589.96,254.38L594.08,253.55L597.56,254.3L601.88,258.24L601.54,261.6L602.79,263.61L606.57,264.49L607.09,269.65L606.37,274.46L603.06,278.95L599.78,280.79L594.21,283.52L590.53,283.44L587.95,280.08L585.42,278.54L581.88,277.92Z" class="land" id="MK-11" title="Vasilevo"/>
    <path d="M552.47,278.02L552.22,275.91L549.64,271.42L547.44,268.85L555.42,259.52L558.69,260.4L560.79,262.26L567.52,262.82L570.35,265.63L573.19,269.65L571.58,273.09L578.21,274.98L578.09,278.8L578.87,281.85L578.11,283.52L575.07,282.8L570.89,285.33L566.28,284.97L557.63,287.54L556.25,288.92L555.52,284.97L556.85,282.88L556.49,280.4Z" class="land" id="MK-41" title="Konče"/>
  </g>
</svg>