<?xml version="1.0" encoding="UTF-8"?>
<svg xmlns="http://www.w3.org/2000/svg" width="221.2" height="262.1" viewBox="369.4 125.95 221.2 262.1" style="background-color:#000000">
  <!-- Created using SVG Map Generator: dojo.amcharts.com/svg-map-generator -->
  <style>
    .land { fill: #ffffff; stroke: #000000; stroke-width: 0.65; }
  </style>
  <g id="polygons">
    <path d="M423.72,368.81L423.55,368.94L423.31,368.55L423.63,368.07ZM424.3,368.11L424.72,368.13L424.48,368.7L424.47,368.98L424.2,369.16L423.91,368.97L424.04,368.51L423.9,368.13ZM423.31,367.49L423.25,367.86L422.96,368.24L422.7,368.18L422.58,367.82L422.91,367.51ZM431.58,356.76L431.7,358.32L431.27,358.36L430.99,359.08L430.37,359.17L429.91,359.43L429.65,360.04L429.95,361.29L430.16,361.84L430.22,362.62L430.38,363.3L430.67,363.98L430.78,365.63L430.4,366.17L430.37,367.3L430.25,367.63L430.35,368.09L429.83,368.93L429.6,369.65L429.64,370.16L429.39,370.56L429.33,370.95L428.23,371.38L427.73,371.21L427.78,369.91L427.62,369.03L427.44,368.8L427.08,367.87L427.16,367.57L426.64,367.57L426.36,367.83L425.75,368.02L425.66,367.64L425.31,366.94L424.58,367.49L424.27,367.4L424.22,367.06L423.93,366.42L423.62,366.7L423.39,367.28L423.19,367.07L423.25,366.76L422.94,366.58L422.7,366.85L422.3,366.46L422.41,366.14L422.06,365.71L421.82,365.76L421.76,365.38L421.98,364.41L421.82,363.95L421.44,364.61L421.21,364.1L421.14,363.46L421.15,362.52L421.43,361.8L421.4,361.36L421.78,361.9L422.14,361.53L422.26,360.79L422.41,360.38L422.78,360.32L423.06,359.52L423.45,359.32L423.84,358.94L423.65,358.62L423.87,358.15L424.81,358.26L425.37,358.49L425.88,358.5L425.87,357.8L426.11,357.08L426.63,357.29L427.04,357.78L427.04,358.27L427.35,358.62L427.86,358.79L427.97,359.11L427.88,359.51L428.22,359.78L428.31,359.2L428.73,359.09L429.31,358.61L429.73,357.95L429.8,357.3L430.5,356.88L431.17,356.9Z" class="land" id="NO-01" title="Østfold"/>
    <path d="M419.89,356.82L419.59,356.99L419.02,356.95L418.74,356.78L418.72,356.06L418.53,355.44L418.76,355.32L418.92,354.66L418.71,354.16L418.94,353.73L419.25,353.58L419.42,352.86L419.74,352.83L419.85,353.07L420.08,353.36L420.64,353.61L421.01,354.1L421.06,354.8L420.87,355.26L420.14,355.16L419.97,355.36L420.06,355.94L419.73,356.26L419.93,356.55ZM425.28,343.45L425.8,344.11L425.72,345.12L426.21,345.3L426.51,345.71L426.88,345.85L427.2,347.02L427.46,347.63L427.93,347.87L428.09,348.3L428.87,348.96L428.74,349.54L428.78,350.53L429.12,351.09L429.44,351.37L430.37,351.88L430.72,352.33L430.84,353.01L430.78,353.36L430.5,353.96L430.7,354.34L430.58,354.85L430.87,355.95L431.23,356.22L431.58,356.76L431.17,356.9L430.5,356.88L429.8,357.3L429.73,357.95L429.31,358.61L428.73,359.09L428.31,359.2L428.22,359.78L427.88,359.51L427.97,359.11L427.86,358.79L427.35,358.62L427.04,358.27L427.04,357.78L426.63,357.29L426.11,357.08L425.87,357.8L425.88,358.5L425.37,358.49L424.81,358.26L423.87,358.15L423.65,358.62L423.84,358.94L423.45,359.32L423.06,359.52L422.78,360.32L422.41,360.38L422.26,360.79L422.14,361.53L421.78,361.9L421.4,361.36L421.11,360.5L421.15,359.57L420.73,358.01L420.57,357.26L420.77,356.52L421.11,355.89L421.24,355.44L421.52,355.94L421.66,356.98L421.91,356.32L422.13,356.05L422.63,356.35L423.09,356.36L423.47,356.08L423.29,355.47L423.37,354.49L423.58,354.18L423.3,353.63L423.11,353.71L422.7,353.36L422.53,352.98L422.56,352.31L422.35,352.24L422.09,351.82L422.06,351.43L421.67,351.38L421.41,351.13L421.79,350.82L422.13,350.92L422.24,350.41L422.19,349.97L422.46,349.06L422.7,348.61L423.47,347.66L423.16,346.85L422.61,346.37L421.39,346.21L421.67,345.77L421.75,345.09L422.45,345.23L422.77,345.44L423.61,345.54L423.6,345.33L423.96,345.09L424.77,344.85L424.99,343.73Z" class="land" id="NO-02" title="Akershus"/>
    <path d="M420.77,351.16L421.41,351.13L421.67,351.38L422.06,351.43L422.09,351.82L422.35,352.24L422.56,352.31L422.53,352.98L422.7,353.36L423.11,353.71L423.3,353.63L423.58,354.18L423.37,354.49L423.29,355.47L423.47,356.08L423.09,356.36L422.63,356.35L422.13,356.05L422.16,355.36L421.81,354.81L421.38,355.06L421.06,354.8L421.01,354.1L420.64,353.61L420.08,353.36L419.85,353.07L420.55,352.14L420.72,352.07L420.52,351.44Z" class="land" id="NO-03" title="Oslo"/>
    <path d="M414.18,314.6L414.51,314.14L414.39,313.59L414.52,313.29L414.98,313.58L415.29,313.4L415.42,312.69L416.59,312.12L416.42,311.17L416.04,309.76L416.11,309.24L416.5,308.98L416.58,308.59L417.07,307.5L417.5,307.54L418.4,307.39L419.18,307.53L420.58,307.92L421.12,307.66L421.71,307.84L421.9,308.23L422.34,307.68L423.45,307.39L424.48,307.91L425.07,307.97L425.3,308.21L425.33,308.84L425.55,309.18L425.6,309.61L425.97,309.71L426.04,310.28L426.39,310.36L427.05,310.95L427.62,311.32L427.99,311.98L428.06,312.39L428.54,313.13L429.48,312.93L429.68,313.54L429.91,313.53L430.36,313L432.05,313.31L432.73,313.57L433.27,314.16L433.76,313.94L434.26,313.87L434.62,314.96L433.29,324.4L434.45,325.88L435.6,327.19L436.83,327.08L439.29,330.72L438.99,332.39L438.64,333.42L437.95,334.34L437.74,335.76L437.16,335.97L435.81,335.91L434.18,336.42L434.01,336.54L434.89,338.61L434.9,339.24L435.41,341.24L436.35,342.77L436.39,343.46L436.94,344.3L437.13,344.91L437.13,346.68L436.64,347.65L436.25,348.04L436.31,348.86L436.6,350.19L436.27,351.74L435.84,352.71L435.4,353.11L434.96,353.92L434.1,354.52L433.59,355.16L432.61,355.22L432.03,354.99L431.58,355.23L431.23,355.7L430.87,355.95L430.58,354.85L430.7,354.34L430.5,353.96L430.78,353.36L430.84,353.01L430.72,352.33L430.37,351.88L429.44,351.37L429.12,351.09L428.78,350.53L428.74,349.54L428.87,348.96L428.09,348.3L427.93,347.87L427.46,347.63L427.2,347.02L426.88,345.85L426.51,345.71L426.21,345.3L425.72,345.12L425.8,344.11L425.28,343.45L424.89,342.66L423.99,341.84L423.44,341.48L423.05,341.1L422.02,340.56L421.82,340.36L421.5,339.7L421.71,338.79L421.41,338.36L421.15,337.6L420.76,337.06L419.88,336.54L419.5,336L419.47,335.78L420.12,335.67L420.53,335.3L420.96,334.59L421.18,334.01L421.73,333.27L421.9,332.75L422.75,332.23L422.52,331.33L422.05,330.01L421.36,328.77L421.56,328.27L421.19,326.67L420.99,324.72L420.49,324.1L419.79,324.49L419.47,324.8L419.12,325.36L418.21,324.61L417.49,324.5L416.27,323.93L416.86,322.55L417.15,321.64L416.83,321.59L416.21,321L415.94,321.22L415.92,321.63L415.19,321.33L414.58,321.27L414.74,320.53L414.51,319.37L414.89,318.87L415.17,318.85L415.14,318.45L414.76,317.99L413.88,317.46L413.04,317.19L412.39,316.41L412.68,316.14L413.04,316.05L413.61,314.96Z" class="land" id="NO-04" title="Hedmark"/>
    <path d="M394.16,319.46L394.2,318.97L394.58,318.59L394.74,317.99L395.49,317.93L395.86,318.41L396.49,318.17L396.08,317.42L396.68,317.15L397.31,316.38L398.07,316.29L398.38,316.63L399.36,316.49L400.21,315.18L400.57,314.48L401.14,313.81L401.64,313.51L402.48,313.26L403.41,313.13L404.26,313.1L405.3,312.94L406.74,312.98L406.95,313.33L407.48,313.43L407.82,313.36L408.09,313.06L409.06,313.51L410.38,313.96L411.58,314.44L411.83,314.71L412.57,315.12L413.58,314.67L414.18,314.6L413.61,314.96L413.04,316.05L412.68,316.14L412.39,316.41L413.04,317.19L413.88,317.46L414.76,317.99L415.14,318.45L415.17,318.85L414.89,318.87L414.51,319.37L414.74,320.53L414.58,321.27L415.19,321.33L415.92,321.63L415.94,321.22L416.21,321L416.83,321.59L417.15,321.64L416.86,322.55L416.27,323.93L417.49,324.5L418.21,324.61L419.12,325.36L419.47,324.8L419.79,324.49L420.49,324.1L420.99,324.72L421.19,326.67L421.56,328.27L421.36,328.77L422.05,330.01L422.52,331.33L422.75,332.23L421.9,332.75L421.73,333.27L421.18,334.01L420.96,334.59L420.53,335.3L420.12,335.67L419.47,335.78L419.5,336L419.88,336.54L420.76,337.06L421.15,337.6L421.41,338.36L421.71,338.79L421.5,339.7L421.82,340.36L422.02,340.56L423.05,341.1L423.44,341.48L423.99,341.84L424.89,342.66L425.28,343.45L424.99,343.73L424.77,344.85L423.96,345.09L423.6,345.33L423.61,345.54L422.77,345.44L422.45,345.23L421.75,345.09L421.67,345.77L421.39,346.21L422.61,346.37L423.16,346.85L423.47,347.66L422.7,348.61L422.46,349.06L422.19,349.97L422.24,350.41L422.13,350.92L421.79,350.82L421.41,351.13L420.77,351.16L420.42,350.63L419.96,350.54L419.11,349.84L418.78,349.79L418.39,349.41L418.42,349.02L418.07,348.45L417.44,347.05L417.27,345.46L417.09,344.74L416.55,344.03L416.35,343.35L416.05,342.93L415.78,342.85L415.06,342.9L415.35,343.49L414.84,343.73L414.51,343.71L414.31,344.18L414.34,345.05L414.45,345.86L414.13,345.88L412.75,345.16L412.64,344.49L411.72,344.66L411.11,344.31L411.07,343.76L411.24,343.49L410.86,343.18L410.64,342.84L410.57,342.36L410.32,342.15L410.28,341.8L410.41,341.33L410.03,340.74L409.47,340.59L408.88,340.02L408.43,339.86L407.22,339.09L407.01,339.01L406.75,338.45L406.1,338.36L405.23,338.03L404.55,337.56L404.68,337.3L404.47,337L403.97,336.62L403.46,336.41L403.13,336.42L402.91,336.12L402.39,335.8L401.55,335.11L401.2,335.61L400.57,334.72L399.94,333.48L399.89,333.02L400.03,332.58L400.58,332.26L400.6,332.02L400.94,331.59L401.3,331.52L401.54,331.1L400.99,330.71L400.79,330.27L400.72,329.61L401.03,329.35L401.77,329.38L402.13,329.09L401.83,328.37L401.66,327.7L401.08,327.44L400.43,327.84L399.09,327.32L398.98,326.62L398.66,325.81L398.72,324.46L398.3,324.15L397.51,323.88L396.86,324.08L396.33,324.11L395.37,324.3L395.3,323.37L394.66,321.9L394.61,321.17L394.68,319.86Z" class="land" id="NO-05" title="Oppland"/>
    <path d="M401.2,335.61L401.55,335.11L402.39,335.8L402.91,336.12L403.13,336.42L403.46,336.41L403.97,336.62L404.47,337L404.68,337.3L404.55,337.56L405.23,338.03L406.1,338.36L406.75,338.45L407.01,339.01L407.22,339.09L408.43,339.86L408.88,340.02L409.47,340.59L410.03,340.74L410.41,341.33L410.28,341.8L410.32,342.15L410.57,342.36L410.64,342.84L410.86,343.18L411.24,343.49L411.07,343.76L411.11,344.31L411.72,344.66L412.64,344.49L412.75,345.16L414.13,345.88L414.45,345.86L414.34,345.05L414.31,344.18L414.51,343.71L414.84,343.73L415.35,343.49L415.06,342.9L415.78,342.85L416.05,342.93L416.35,343.35L416.55,344.03L417.09,344.74L417.27,345.46L417.44,347.05L418.07,348.45L418.42,349.02L418.39,349.41L418.78,349.79L419.11,349.84L419.96,350.54L420.42,350.63L420.77,351.16L420.52,351.44L420.72,352.07L420.55,352.14L419.85,353.07L419.74,352.83L419.42,352.86L419.25,353.58L418.94,353.73L418.71,354.16L418.92,354.66L418.76,355.32L418.53,355.44L418.72,356.06L418.74,356.78L419.02,356.95L419.59,356.99L419.89,356.82L420.03,357.18L420.09,358.36L420.7,358.72L420.85,359.93L420.82,360.4L420.38,360.82L419.83,361.12L419.39,361.12L419.16,360.83L419.42,359.72L419.33,358.61L418.82,357.94L418.42,357.94L418.26,357.58L417.91,357.39L417.49,357.51L418,357.87L418.28,358.28L418.48,358.33L418.32,358.73L416.83,358.76L416.53,359.17L416.2,359.21L415.93,358.89L415.72,359.05L415.66,359.44L415.28,359.75L415.17,360.15L415.97,361.18L416.35,361.89L415.96,362.08L415.35,361.97L415.13,362.17L414.39,361.97L413.84,362.09L414.01,362.84L413.06,362.86L412.49,362.27L412.4,361.88L412.15,361.65L411.52,361.72L411.56,361.42L411.86,360.85L411.5,360.53L410.98,358.84L410.99,358.5L410.41,358.31L410.59,356.87L410.22,356.62L409.82,356.53L409.18,356.17L409.1,355.55L409.18,354.65L408.51,354L408.16,353.99L407.57,353.11L407.48,352.22L407.29,351.69L406.92,351.35L405.87,350.61L405.66,350.52L403.97,350.39L403.22,350.55L402.66,350.33L401.79,350.36L401.31,350.18L400.4,350.27L400.03,350.66L399.31,350.79L398.8,351L397.92,351.5L397.64,351.31L396.64,351.11L395.29,351.67L396.06,350.32L396.28,349.13L396.81,348.3L396.86,346.86L397.26,344.58L396.88,344.41L396.51,343.93L396.37,343.15L396.48,342.71L395.86,342.3L395.43,342.32L394.99,342.04L395.54,341.74L395.91,341.2L396.37,340.93L396.74,341.02L397.1,340.82L397.22,340.47L397.09,339.87L397.73,338.69L398.5,338.04L399.39,338.46L399.87,338.46L400.71,337.02L401.17,336.77L401.25,336.12Z" class="land" id="NO-06" title="Buskerud"/>
    <path d="M419.04,366.76L419.24,367.14L419.24,367.93L419.31,368.31L419.04,368.36L418.95,367.9L418.89,366.93ZM419.31,365.36L419.57,365.91L419.64,366.4L419.41,366.83L418.77,366.47L418.97,365.73L418.98,365.22ZM414.37,368.91L414.51,368.72L414.67,368.05L414.42,367.5L414.49,366.94L414.93,366.61L414.65,366.01L414.84,365.88L414.75,365.46L413.82,364.27L414,363.87L413.94,363.5L414.01,362.84L413.84,362.09L414.39,361.97L415.13,362.17L415.35,361.97L415.96,362.08L416.35,361.89L415.97,361.18L415.17,360.15L415.28,359.75L415.66,359.44L415.72,359.05L415.93,358.89L416.2,359.21L416.53,359.17L416.83,358.76L418.32,358.73L418.48,358.33L418.78,358.47L419.19,359.48L419.01,360.18L419.07,360.47L418.9,360.97L418.3,360.77L417.96,360.93L418.49,361.65L418.96,362.44L419.13,362.23L419.53,362.31L419.8,362.88L419.61,363.58L419.68,363.86L420.14,364.4L420.09,364.76L419.74,365.44L419.38,365.12L418.88,365.07L418.54,366.36L418.58,366.78L418.48,367.53L418.22,367.47L417.9,367.88L417.6,368.1L417.75,368.54L417.55,369.05L417.17,369.31L416.9,369.03L417.23,368.9L417.23,368.53L416.43,369.19L416.37,368.78L416,368.99L416.31,369.52L416.16,369.77L415.75,369.85L415.49,370.04L414.72,370.02L414.35,369.9L414.61,369.58Z" class="land" id="NO-07" title="Vestfold"/>
    <path d="M414.01,362.84L413.94,363.5L414,363.87L413.82,364.27L414.75,365.46L414.84,365.88L414.65,366.01L414.93,366.61L414.49,366.94L414.42,367.5L414.67,368.05L414.51,368.72L414.37,368.91L414.24,368.83L414.12,368.26L413.75,368.32L413.28,368.23L413.09,368.55L412.88,368.14L412.94,367.8L412.57,367.46L412.21,367.55L412.74,368.12L412.75,368.45L412.94,368.7L413.41,368.79L413.74,369.16L413.81,369.55L413.58,369.59L413.4,370.03L413.18,369.98L412.85,370.18L412.85,370.47L412.47,370.66L411.93,370.6L411.15,371.01L411.07,371.61L410.38,371.56L410.17,371.66L410.06,372.02L410.37,372.05L410.95,371.82L411.33,371.89L411.53,372.2L411.29,372.6L410.74,373.08L410.42,372.88L410.24,373.07L409.95,372.71L409.33,372.6L409.26,371.98L408.98,371.32L408.33,370.92L407.93,370.51L407.61,369.59L407.1,369.68L406.26,369.65L406.22,369.88L405.6,370.38L406.24,370.84L405.85,371.56L405.89,371.96L405.58,372.12L405.36,371.83L404.9,371.5L404.53,370.89L404.2,370.57L403.64,370.92L403.38,371.31L402.94,371L402.79,370.75L402.11,370.78L401.22,369.93L400.5,369.77L400.17,369.92L400.31,370.26L399.9,370.29L399.32,370.08L398.99,369.46L398.82,369.36L398.35,368.34L397.9,367.6L397.45,367.21L397.31,366.86L397.51,366.14L397.68,366.08L397.3,365.3L397.09,364.46L396.79,364.14L396.27,364L395.61,363.09L395.62,362.98L396.63,362.92L396.24,361.48L395.72,361.11L395.55,360.52L395.83,360.1L395.26,359.45L394.99,358.92L394.6,358.85L394.4,359.28L393.53,358.88L393.03,358.75L392.92,358.54L392.27,358.26L392.28,357.39L392.15,356.93L392.66,356.13L392.52,355.71L392.7,354.93L392.51,354.89L393.07,353.81L393.57,353.33L394.43,353.22L394.81,352.87L394.9,352.12L395.29,351.67L396.64,351.11L397.64,351.31L397.92,351.5L398.8,351L399.31,350.79L400.03,350.66L400.4,350.27L401.31,350.18L401.79,350.36L402.66,350.33L403.22,350.55L403.97,350.39L405.66,350.52L405.87,350.61L406.92,351.35L407.29,351.69L407.48,352.22L407.57,353.11L408.16,353.99L408.51,354L409.18,354.65L409.1,355.55L409.18,356.17L409.82,356.53L410.22,356.62L410.59,356.87L410.41,358.31L410.99,358.5L410.98,358.84L411.5,360.53L411.86,360.85L411.56,361.42L411.52,361.72L412.15,361.65L412.4,361.88L412.49,362.27L413.06,362.86Z" class="land" id="NO-08" title="Telemark"/>
    <path d="M407.21,377.19L407.27,377.32L406.77,378.15L406.37,378.4L406.03,378.3L406.34,377.81ZM393.03,358.75L393.53,358.88L394.4,359.28L394.6,358.85L394.99,358.92L395.26,359.45L395.83,360.1L395.55,360.52L395.72,361.11L396.24,361.48L396.63,362.92L395.62,362.98L395.61,363.09L396.27,364L396.79,364.14L397.09,364.46L397.3,365.3L397.68,366.08L397.51,366.14L397.31,366.86L397.45,367.21L397.9,367.6L398.35,368.34L398.82,369.36L398.99,369.46L399.32,370.08L399.9,370.29L400.31,370.26L400.17,369.92L400.5,369.77L401.22,369.93L402.11,370.78L402.79,370.75L402.94,371L403.38,371.31L403.64,370.92L404.2,370.57L404.53,370.89L404.9,371.5L405.36,371.83L405.58,372.12L405.89,371.96L405.85,371.56L406.24,370.84L405.6,370.38L406.22,369.88L406.26,369.65L407.1,369.68L407.61,369.59L407.93,370.51L408.33,370.92L408.98,371.32L409.26,371.98L409.33,372.6L409.95,372.71L410.24,373.07L410.42,372.88L410.74,373.08L410.05,373.56L409.67,373.55L409.64,374.4L409.41,374.73L408.99,374.81L408.88,375.04L408.3,375.44L408.06,375.49L407.76,376L407.51,376.03L407.49,376.51L406.48,377.51L405.81,378.01L405.43,378.38L405.34,379.01L405.43,379.26L405.09,379.61L404.81,379.61L404.65,379.92L404.28,379.96L404.09,380.34L403.85,380.57L403.84,380.9L403.64,381.05L403,380.95L402.2,381.75L401.65,382.61L401.6,383L401.42,383.18L400.99,382.94L400.83,382.85L400.72,382.38L401.07,381.98L401.19,381.38L400.82,381.13L400.91,380.83L399.93,380.75L400.03,380.35L400,379.79L399.65,379.39L399.25,379.94L398.99,380.15L398.75,379.73L398.65,379.13L398.37,379.04L397.93,378.46L397.92,377.99L397.61,378.04L397.04,377.92L396.89,378.24L396.46,378L395.95,378.18L395.59,377.61L395.65,377.33L395.53,376.83L396.05,376.44L396.33,375.8L395.76,375.46L395.76,374.56L396.4,374.4L396.7,373.76L396.74,373.05L396.12,371.95L396.09,371.75L395.17,371.52L395.02,371.38L394.3,371.82L394.07,371.77L393.58,371.98L392.68,372.07L392.65,372.3L391.61,372.29L392.02,371.83L392.09,371.59L391.84,371.36L392.33,371.23L392.6,370.85L392.62,370.32L392.35,369.9L392.25,369.48L392.73,369.43L392.78,369.22L392.51,368.75L392.83,367.31L392.84,366.93L391.52,366.55L391.32,366.44L390.8,366.56L390,366.48L390.04,365.5L389.86,365.01L389.96,364.35L390.39,363L390.38,362.56L391.05,362.36L391.44,361.73L391.19,360.73L391.43,359.97L391.7,360.06L392.23,359.45L392.18,359Z" class="land" id="NO-09" title="Aust-Agder"/>
    <path d="M387.47,381.29L388.13,381.41L388.32,381.67L388.09,382.01L387.82,381.76L387.5,381.72ZM390.8,366.56L391.32,366.44L391.52,366.55L392.84,366.93L392.83,367.31L392.51,368.75L392.78,369.22L392.73,369.43L392.25,369.48L392.35,369.9L392.62,370.32L392.6,370.85L392.33,371.23L391.84,371.36L392.09,371.59L392.02,371.83L391.61,372.29L392.65,372.3L392.68,372.07L393.58,371.98L394.07,371.77L394.3,371.82L395.02,371.38L395.17,371.52L396.09,371.75L396.12,371.95L396.74,373.05L396.7,373.76L396.4,374.4L395.76,374.56L395.76,375.46L396.33,375.8L396.05,376.44L395.53,376.83L395.65,377.33L395.59,377.61L395.95,378.18L396.46,378L396.89,378.24L397.04,377.92L397.61,378.04L397.92,377.99L397.93,378.46L398.37,379.04L398.65,379.13L398.75,379.73L398.99,380.15L399.25,379.94L399.65,379.39L400,379.79L400.03,380.35L399.93,380.75L400.91,380.83L400.82,381.13L401.19,381.38L401.07,381.98L400.72,382.38L400.83,382.85L400.99,382.94L400.91,383.13L400.46,383.4L400,383.24L399.88,382.76L400.15,382.2L399.79,381.98L399.84,382.5L399.71,382.84L399.34,382.89L399.27,383.7L398.77,383.97L398.31,383.95L397.72,384.06L396.96,384.39L396.78,384.91L396.38,384.97L395.39,384.97L395.03,384.71L394.65,384.99L394.03,384.65L393.56,384.68L393.64,384.32L393.03,384.58L392.93,384.31L392.35,384.46L392.21,385L391.74,385.4L391.55,385.12L391.62,384.76L392.08,384.04L391.28,384.66L391.1,384.38L390.81,384.31L390.74,383.82L390,383.76L389.95,383.52L390.52,383.15L390.13,382.74L389.87,382.22L389.62,382.23L389.71,382.68L390.07,382.85L390.19,383.19L389.8,383.44L389.34,383.56L389.86,383.85L388.86,384.08L388.54,383.9L388.36,384.07L388.01,383.78L387.66,383.26L387.97,383.11L388.21,382.65L388.21,382.32L388.65,382.15L389.05,381.84L388.7,381.01L388.58,381.34L388.27,381.34L387.05,381.11L386.28,380.8L387.67,380.07L388.16,379.28L388.02,378.46L388.3,378.18L387.98,377.36L388.17,376.52L387.97,375.73L387.5,375.37L387.17,375.55L387.04,375.19L386.71,374.95L386.85,374.74L387.33,374.7L388.19,374.37L388.19,373.98L387.86,373.58L387.88,373.23L387.39,373.15L387.42,372.88L387.76,372.02L388.12,371.35L387.75,371.26L387.71,370.99L388.31,370.38L388.18,369.82L388.7,369.62L389.47,368.86L389.61,368.5L390.5,367.7L390.36,367.17Z" class="land" id="NO-10" title="Vest-Agder"/>
    <path d="M380.47,368.08L380.66,368.56L380.21,368.37L379.55,367.93L379.8,367.73ZM379.94,367.35L380.56,367.5L381.02,367.45L381.34,367.74L381.36,368.21L381.16,368.4L380.71,368.06L380.06,367.7ZM381.26,366.71L381.75,366.26L382.13,366.51L382.13,366.81L381.84,367.22L381.48,367.28L381.27,367.01ZM378.85,366.46L378.55,366.92L378.25,366.91L378.02,366.66L378.02,365.83L378.36,365.58L378.72,365.92ZM382.71,364.92L383.58,364.75L383.9,365L384.05,365.33L383.57,365.68L382.88,365.88L382.57,365.67L382.54,365.06ZM377.35,367.23L376.61,367.18L376.38,366.62L376.32,365.86L376.37,365.29L376.65,364.92L376.68,364.48L376.47,363.8L376.87,363.59L376.71,363.29L376.85,362.87L377.36,363.49L377.29,364.18L377.59,364.52L377.4,364.8L377.63,365.15L377.61,365.87L377.5,366.86ZM392.15,356.93L392.28,357.39L392.27,358.26L392.92,358.54L393.03,358.75L392.18,359L392.23,359.45L391.7,360.06L391.43,359.97L391.19,360.73L391.44,361.73L391.05,362.36L390.38,362.56L390.39,363L389.96,364.35L389.86,365.01L390.04,365.5L390,366.48L390.8,366.56L390.36,367.17L390.5,367.7L389.61,368.5L389.47,368.86L388.7,369.62L388.18,369.82L388.31,370.38L387.71,370.99L387.75,371.26L388.12,371.35L387.76,372.02L387.42,372.88L387.39,373.15L387.88,373.23L387.86,373.58L388.19,373.98L388.19,374.37L387.33,374.7L386.85,374.74L386.71,374.95L387.04,375.19L387.17,375.55L387.5,375.37L387.97,375.73L388.17,376.52L387.98,377.36L388.3,378.18L388.02,378.46L388.16,379.28L387.67,380.07L386.28,380.8L385.8,380.46L385.78,380.27L384.5,379.83L383.9,379.38L383.59,379.3L383.12,378.58L382.97,377.94L382.71,377.78L382.21,377.84L381.46,377.48L381.48,377.08L381.26,376.85L380.67,376.75L380.34,376.43L380.23,376.02L379.96,375.6L379.78,375.13L379.41,374.67L379.49,374.36L379.27,374.11L379.2,373.61L378.99,373.38L379.37,372.95L379.51,372.63L379.42,372.27L379.53,371.56L379.88,371.36L379.69,371.05L379.57,370.38L379.79,369.93L379.52,369.64L379.72,368.9L380.33,369.31L380.83,369.74L381.26,369.99L381.13,370.62L380.95,370.77L381.28,371.38L381.33,370.66L381.92,370.53L381.91,370.2L382.28,369.96L382.85,370.34L382.92,370.92L383.64,371.15L384.16,371.79L384.59,371.85L383.48,370.54L383.11,369.92L383.48,369.49L383.3,369.1L382.74,369.13L382.28,368.43L382.22,368.13L382.76,367.63L383.01,367.52L383.36,367.64L383.88,367.35L384.53,367.3L384.47,367.1L383.99,367.05L383.56,367.29L383.36,367.2L383.98,366.03L384.43,365.74L384.75,365.39L385.39,365.2L386.62,364.49L386.03,364.46L385.9,364.64L384.74,365.17L384.47,365.34L384.16,364.93L384.28,364.56L385.37,364.57L385.02,364.34L384.28,364.48L383.87,364.25L383.51,364.26L383.31,364.03L383.57,363.35L384.27,363L384.83,362.93L385.23,361.97L385.18,361.6L385.35,361.44L386.3,361.09L386.65,360.89L388.01,360.52L386.75,360.58L385.35,361.22L385.58,360.53L385.85,360.12L385.85,359.47L385.53,359.59L385.64,360.04L385.37,360.54L385.2,361.16L384.82,361.47L384.92,361.88L384.46,362.6L383.29,363.24L382.98,363.58L382.66,363.7L382.42,362.31L383.26,362.35L383.72,362.11L383.71,361.89L383.2,361.81L382.39,361.9L382.29,361.53L382.05,361.37L382.06,360.83L381.63,361.14L381.92,361.71L381.94,362.04L381.24,362.51L381.26,362.7L381.83,362.5L381.97,363.04L382.28,363.36L382.22,363.87L381.42,364.29L381.06,364.22L380.86,364.49L380.35,364.87L380.22,364.33L380.35,364.01L380.06,362.88L379.97,361.86L380.08,361.41L379.59,361.57L379.11,362.24L378.78,362.1L378.73,362.54L379.24,362.56L379.78,362.16L379.71,362.91L380.05,363.21L379.92,363.42L379.98,364.19L379.51,365.1L378.85,365.08L378.7,364.74L378.39,364.77L378.22,364.39L378.08,363.47L377.94,363.51L378.08,364.4L378.09,364.91L377.84,365.19L377.68,364.41L377.38,363.3L376.91,362.54L376.76,361.51L376.94,361.41L377.39,361.86L377.77,361.53L378.63,361.42L379.11,361.27L379.39,360.83L379.82,360.92L380.24,360.62L380.11,360.34L380.38,360.07L380.77,360.38L381.31,360.29L381.83,360.36L382.37,359.72L382.85,359.85L382.87,360.14L383.63,359.88L384.1,360.05L384.62,360.04L384.64,359.32L384.93,358.59L385.3,358.21L385.29,357.86L385.53,357.24L385.86,357L386.93,356.43L387.59,355.96L387.99,356.07L388.51,355.92L388.83,356.17L388.72,356.69L388.77,357.18L388.49,358.13L388.8,358.36L389.39,358.2L390.03,357.75L391.1,357.13Z" class="land" id="NO-11" title="Rogaland"/>
    <path d="M378.63,361.42L377.77,361.53L377.39,361.86L376.94,361.41L376.8,361.02L377.19,360.43L377.31,360.04L377.52,359.9L377.54,359.54L378.28,359L378.38,359.41L378.63,359.79L378.84,359.46L378.32,358.83L378.53,358.44L379.26,357.69L379.38,358.06L379.2,359.59L379.34,360.33L379.03,360.62L379.11,361.03L378.71,361.09ZM380.91,358.19L380.27,357.98L380.3,357.52L380.76,357.74ZM380.54,356.54L380.84,356.34L381.05,356.76L381.48,356.77L381.76,357.06L381.46,357.28L381.31,357.79L381.04,357.88L380.92,356.87L380.4,356.91ZM377.59,357.14L378.09,358.35L377.54,358.69L377.72,358.07L377.38,357.83L377.13,357.46L376.91,357.53L376.99,358.09L376.82,358.67L376.79,359.11L376.99,359.39L376.93,359.93L376.61,360.26L376.4,360.16L376.23,358.79L376.3,358.02L376.47,357.72L376.37,357.16L376.06,357.35L375.83,356.88L376.07,356.56L376.26,356.03L376.23,355.39L376.42,355.37L376.86,355.83L377.07,355.91L377.05,356.29L377.33,356.45ZM378.15,354.05L378.69,354.42L379.04,354.81L379.24,355.22L379.31,355.97L379.24,356.3L379.38,356.82L378.69,357.5L377.71,356.91L377.48,355.79L377.2,355.24L377.5,354.46L377.29,354.03L377.54,353.74ZM376.35,353.85L376.12,353.9L375.78,353.56L375.79,353.37L376.45,353.06L376.77,353.54ZM380.68,352.13L380.78,352.84L380.67,353.41L380.2,353.93L380.15,354.5L380.42,354.93L380.2,355.03L379.95,354.65L379.53,355.21L379.34,355.08L379.1,354.3L378.87,354.33L378.49,353.93L378.01,353.58L378.26,353.3L378.83,353.27L378.79,352.65L379.16,352.47L380.24,352.12ZM378.19,353.2L377.9,353.36L377.74,352.99L377.87,352.62L377.86,352.05L378.44,352.15L378.58,352.59L378.54,353.12ZM377.44,352.35L377.45,352.85L377.09,353.22L376.78,353.24L376.57,352.99L376.41,352.24L376.68,351.86L376.77,352.68L376.98,352.67L376.72,351.62L376.72,351.28L377.36,352.09ZM383.1,352.02L382.88,352.13L382.58,351.06L383.23,350.61L383.63,350.95L383.63,351.25ZM375.44,346.96L375.86,346.78L376.22,346.95L376.3,347.4L376.1,348.07L376.1,348.79L375.92,348.97L376.32,349.8L376.27,350.23L375.75,350.51L375.37,349.98L374.97,349.89L374.54,348.82L374.54,348.36L375.11,348.5L374.67,346.99L374.73,346.7L374.38,345.59L374.69,345.35L374.71,346.01L375.11,346.24L374.97,346.43ZM375.29,344.61L375.75,344.72L376.31,345.02L376.69,345.33L376.89,345.75L376.97,346.54L376.58,346.84L376.15,346.6L376.18,346.03L375.59,346.11L375.4,345.24L375.08,345ZM374.08,344.3L374.42,345.06L373.95,344.74L373.61,343.91L373.88,343.76ZM374.68,343.2L374.86,343.35L375.36,343.23L375.58,343.44L376.2,343.61L377.01,344.6L376.83,345.04L376.19,344.66L375.34,344.41L374.91,343.97L375.08,343.8L374.57,343.39ZM373.74,343.48L373.66,343.76L373.29,343.65L373.2,342.52L373.54,342.51L373.83,343.19ZM380.43,341.87L380.83,341.96L380.9,342.4L380.83,343.66L380.65,344.53L380.79,345.39L380.41,345.49L380.08,345.8L379.94,346.12L379.27,346.13L379.04,346.01L378.29,344.95L377.93,344.76L377.74,344.43L378.1,344.3L378.74,343.88L379.05,343.31L379.79,343.11L379.97,342.36L379.96,341.92ZM376.47,343.16L376.82,343.91L376.15,343.3L375.62,343.24L375.54,343.04L375.01,342.85L374.14,341.79L374.21,341.53L374.06,341L374.7,341.34L374.96,341.35L375.39,341.76L375.62,342.37L376.2,342.84ZM374.86,341.25L373.93,340.73L373.86,340.03L374.3,339.87L374.6,340.41ZM375.93,339.62L375.97,339.21L376.31,338.45L376.75,338.06L377.44,337.76L377.68,338.15L378.09,338.21L378.81,337.8L378.9,338.05L379.39,337.8L379.73,337.39L380.25,337.11L380.73,337.45L380.99,337.14L381.46,336.98L381.93,337.49L382.17,337.51L382.45,336.79L383.36,336.19L383.57,336.3L383.81,336.78L384.36,337.07L384.28,337.81L384.47,338.11L384.89,338.22L385.58,338.77L386.3,337.94L386.75,337.97L387.17,337.6L387.24,338.22L387.59,338.54L388.06,338.12L388.55,337.91L388.74,337.44L388.98,337.87L389.25,337.82L389.3,338.24L389.67,338.02L389.85,338.52L389.38,338.74L389.04,339.38L389.72,339.42L390.23,339.17L390.94,339.39L391.2,341.1L391.18,341.46L392.08,341.56L392.39,341.9L393.12,341.72L394.27,342.04L394.99,342.04L395.43,342.32L395.86,342.3L396.48,342.71L396.37,343.15L396.51,343.93L396.88,344.41L397.26,344.58L396.86,346.86L396.81,348.3L396.28,349.13L396.06,350.32L395.29,351.67L394.9,352.12L394.81,352.87L394.43,353.22L393.57,353.33L393.07,353.81L392.51,354.89L392.7,354.93L392.52,355.71L392.66,356.13L392.15,356.93L391.1,357.13L390.03,357.75L389.39,358.2L388.8,358.36L388.49,358.13L388.77,357.18L388.72,356.69L388.83,356.17L388.51,355.92L387.99,356.07L387.59,355.96L386.93,356.43L385.86,357L385.53,357.24L385.29,357.86L385.3,358.21L384.93,358.59L384.64,359.32L384.62,360.04L384.1,360.05L383.63,359.88L382.87,360.14L382.85,359.85L382.37,359.72L381.83,360.36L381.31,360.29L380.77,360.38L380.38,360.07L380.11,360.34L380.24,360.62L379.82,360.92L379.39,360.83L379.58,360.53L379.48,359.82L379.47,359.11L379.78,358.58L380.55,358.77L381.44,359.16L381.36,358.51L381.95,357.83L382.37,357.59L382.79,357.51L383.51,357.54L383.94,357.65L384.31,356.91L383.94,356.85L383.72,357.24L383.34,357.4L382.97,357.21L382.77,356.76L382.42,356.77L382.15,357.13L381.64,356.73L381.3,356.12L380.76,356.17L380.61,355.75L381.27,355.28L381.2,354.99L381.57,354.45L381.95,354.5L382.44,354.09L382.78,354.23L383.08,353.94L383.21,353.61L382.97,353.35L383.27,352.45L383.96,351.9L384.79,351.46L384.2,351.01L383.82,350.24L384.1,349.74L384.57,349.79L384.72,349.62L384.8,349.1L385.03,349.06L385.09,348.58L385.35,348.27L385.74,348.13L385.94,347.81L386.05,347.23L386.51,347.27L387.16,347.03L387.26,346.68L387.7,346.15L388.15,346.28L388.59,346.62L388.09,347.92L388.14,348.31L387.85,348.9L387.75,349.33L387.81,349.72L387.61,350.52L387.93,350.34L388.06,349.62L388.19,349.36L388.16,348.72L388.44,348.2L388.5,347.58L388.74,346.97L389.14,346.61L389.3,346.2L389.7,345.9L389.93,345.54L390.4,345.64L391.11,345.4L391.53,345.47L391.92,345.31L391.29,345.02L390.6,345.19L390.89,344.76L390.69,344.62L390.43,345.3L389.91,345.32L389.37,345.57L389.31,345.81L388.67,346.26L388.48,345.97L388.06,345.8L387.44,345.83L386.92,346.19L386.46,346.28L385.94,346.78L385.56,346.92L385.19,347.24L384.8,346.99L384.91,347.93L384.51,348.23L384.74,348.69L384.36,349.35L383.89,349.21L383.39,348.85L383.19,349.55L382.85,349.86L382.89,350.09L382.74,350.75L382.31,351.14L382.47,351.59L382.51,352.62L382.3,353.11L381.78,353.63L381.32,353.64L380.91,353.31L380.84,352.15L381.23,352.28L381.45,352.52L381.81,351.88L381.48,351.84L381.38,352.13L380.86,351.62L381,351.33L380.86,350.54L380.24,350.92L379.8,351.01L379.68,350.76L380.06,350L380.42,349.58L379.83,349.49L379.82,349.07L380.18,348.89L380.33,347.83L381.08,347.27L381.23,347.04L380.91,346.72L380.79,347.16L380.26,347.23L379.98,348.69L379.59,349.06L379.68,349.32L379.38,350.03L378.76,350.41L378.71,350.8L378.06,350.74L377.96,350.04L378.09,349.76L377.91,349.56L377.32,349.61L377.68,349.12L377.63,348.94L377,349.39L376.6,348.58L376.63,347.97L376.39,347.68L376.48,347.12L377.6,346.66L377.28,346.28L377.04,345.48L377.1,345.04L377.4,344.69L378.07,345.05L378.61,345.87L379.28,346.42L380.03,346.3L380.19,345.85L380.41,345.75L380.97,345.85L380.84,344.46L380.98,343.43L381.03,342.31L380.98,341.93L380.41,341.53L379.91,341.73L379.45,341.77L379.7,342.46L379.68,342.73L379.43,343.01L379.22,342.92L378.3,343.69L377.96,344.07L377.71,344.08L377.4,344.4L376.86,343.68L376.65,343.08L375.89,342.47L375.99,342.13L376.29,342.25L376.85,342.74L376.93,342.42L376.39,341.9L375.83,341.48L375.86,341.31L375.49,340.92L375.27,340.42L374.57,340.06L374.86,339.81L375.2,339.79L375.64,340.45L376.07,340.48L376.54,340.87L377.08,340.99L377.5,341.22L377.83,341.66L377.68,341.82L377.88,342.28L378.41,341.74L377.97,341.12L377.17,340.77L377.41,340.1L377.67,339.85L377.98,339.03L378.4,339.01L378.85,338.82L379.16,339.21L379.49,338.99L378.82,338.64L377.82,338.94L377.71,339.6L377.4,339.94L377.07,339.56L376.84,339.66L376.37,339.42Z" class="land" id="NO-12" title="Hordaland"/>
    <path d="M374.07,338.2L374.39,338.93L374.01,339.1L373.62,338.23ZM375.16,338.25L375.15,338.83L375.28,339.31L374.83,339.32L374.69,339.04L374.72,338.14ZM374.78,336.55L375.07,336.6L375.13,336.92L374.82,337.21L374.42,337.22L374.39,336.61ZM372.56,335.38L372.68,336.02L372.86,336.21L372.79,336.82L372.58,337L372.25,336.71L372.05,336.21L372.09,335.71ZM373.47,335.22L373.45,335.97L373,336.04L372.94,335.07L373.4,335.02ZM375.42,334L375.71,334.43L375.71,334.82L375.23,334.71L375.18,333.84ZM374.23,333.15L374.98,333.39L375.17,334.92L375.08,335.11L374.5,335.54L374.21,335.1L373.84,335.46L373.63,335.19L373.49,334.14ZM374.25,330.33L375.07,330.34L375.24,331.26L374.62,331.47L374.44,331.14L374.07,331.03L374,330.75ZM374.08,324.64L374.21,325.48L373.88,325.61L373.7,325.43L373.6,324.89ZM373.81,323L374.22,323.45L373.73,324L373.69,323.51L373.29,323.24ZM374.58,321.21L375.07,321.53L375.85,321.73L376.68,321.85L377.06,322.08L377.04,322.47L375.98,322.65L375.01,323.39L374.63,323.51L374.19,322.82L374.55,322.69L374.05,322.28L373.49,322.17L373.88,321.79L374.37,321.6ZM375.07,319.11L375.62,319.34L375.97,319.05L376.23,319.62L376.11,319.98L376.17,320.4L375.9,320.91L375.51,320.92L375.09,320.52L375.52,320.15L374.91,319.8L374.84,319.04ZM378.97,319.42L378.89,319.85L379.48,320.29L379.89,320.27L380.48,320.05L381.37,320.05L381.56,320.22L382.26,319.79L382.73,319.69L383.07,319.81L383.5,320.34L384.21,320.09L384.63,319.42L385.31,319.52L385.08,319.8L385.6,320.12L385.71,320.37L386.43,319.75L386.63,319.34L387.24,319.34L387.26,318.98L387.95,318.56L388.29,318.67L388.53,318.33L389.27,319.58L389.52,320.12L389.89,320.22L390.6,320.03L390.87,319.86L391.13,319.98L391.68,319.91L392.03,319.4L392.86,319.36L392.99,319.07L393.35,319.26L393.77,319.24L394.16,319.46L394.68,319.86L394.61,321.17L394.66,321.9L395.3,323.37L395.37,324.3L396.33,324.11L396.86,324.08L397.51,323.88L398.3,324.15L398.72,324.46L398.66,325.81L398.98,326.62L399.09,327.32L400.43,327.84L401.08,327.44L401.66,327.7L401.83,328.37L402.13,329.09L401.77,329.38L401.03,329.35L400.72,329.61L400.79,330.27L400.99,330.71L401.54,331.1L401.3,331.52L400.94,331.59L400.6,332.02L400.58,332.26L400.03,332.58L399.89,333.02L399.94,333.48L400.57,334.72L401.2,335.61L401.25,336.12L401.17,336.77L400.71,337.02L399.87,338.46L399.39,338.46L398.5,338.04L397.73,338.69L397.09,339.87L397.22,340.47L397.1,340.82L396.74,341.02L396.37,340.93L395.91,341.2L395.54,341.74L394.99,342.04L394.27,342.04L393.12,341.72L392.39,341.9L392.08,341.56L391.18,341.46L391.2,341.1L390.94,339.39L390.23,339.17L389.72,339.42L389.04,339.38L389.38,338.74L389.85,338.52L389.67,338.02L389.3,338.24L389.25,337.82L388.98,337.87L388.74,337.44L388.55,337.91L388.06,338.12L387.59,338.54L387.24,338.22L387.17,337.6L386.75,337.97L386.3,337.94L385.58,338.77L384.89,338.22L384.47,338.11L384.28,337.81L384.36,337.07L383.81,336.78L383.57,336.3L383.36,336.19L382.45,336.79L382.17,337.51L381.93,337.49L381.46,336.98L380.99,337.14L380.73,337.45L380.25,337.11L379.73,337.39L379.39,337.8L378.9,338.05L378.81,337.8L378.09,338.21L377.68,338.15L377.44,337.76L376.75,338.06L376.31,338.45L375.97,339.21L375.93,339.62L375.51,339.39L375.22,338.48L375.26,337.93L375.05,337.83L375,337.42L375.9,337.49L375.54,337.09L375.3,337.11L375.16,336.19L375.3,335.77L375.75,335.54L376.12,335.56L376.23,335.32L376.68,335.44L376.92,335.65L377.36,335.66L377.67,336.05L378.32,336.38L378.99,336.41L378.91,335.96L379.2,335.7L379.65,335.67L380.31,335.05L380.69,335.25L380.97,335.13L381.48,334.67L381.72,334.75L381.69,335.36L382.27,334.61L383.02,334.62L383.74,334.87L384.5,334.78L384.91,335.07L385.54,335.12L385.82,335.52L386.71,335.58L387.27,335.37L387.57,335.03L388,334.91L388.36,333.79L388.87,334.2L389.52,334.33L390.1,334.29L390.31,334.56L390.34,335.23L390.84,335.48L391.16,335.36L391.39,335.6L391.4,335.98L391.7,336.97L392.09,337.47L392.57,337.76L392.59,338.16L392.9,338.06L392.78,337.58L392.32,337.47L392,337.15L391.92,336.69L391.66,336.19L391.73,335.72L391.56,335.27L391.88,334.86L392.13,334.95L392.65,334.76L392.93,334.8L393.23,334.58L393.34,334.26L394.01,334.71L394.27,334.63L394.84,335.03L394.72,334.48L394.79,334.11L395.06,333.77L395.53,333.5L396.43,333.44L396.42,333.14L395.23,333.34L394.54,333.24L394.43,332.24L393.89,331.64L394.25,331.47L394.55,331.05L394.51,330.71L394.87,330.06L395.28,329.81L395.38,329.32L395.01,329.32L394.89,329.81L394.4,330.06L393.74,330.23L394.12,330.51L394.15,330.95L393.49,331.61L393.62,332.05L394.01,332.27L394.22,333.44L394.56,333.69L394.01,334.11L393.33,333.87L392.79,334.02L392.77,334.34L391.86,334.42L391.01,334.83L390.62,334.03L389.99,333.61L389.02,333.7L388.74,333.33L388.05,333.26L387.97,332.71L388.7,332.05L388.73,331.73L389.01,331.09L388.82,331.03L388.53,331.93L387.7,332.66L387.49,333.58L387.62,334.41L387.07,334.57L387.05,334.82L386.21,334.89L385.64,334.5L385.37,334.51L384.82,333.97L383.66,334.31L383.27,334.09L383.33,333.82L382.19,334.07L380.98,333.95L380.77,334.46L380.37,334.28L380,334.37L379.62,334.87L379.12,335.04L378.66,335.44L378.18,335.58L377.68,334.7L377.32,334.94L376.85,334.98L376.83,334.63L377.33,334.44L377.04,334.19L376.58,334.03L376.4,334.27L375.61,333.92L375.71,333.4L376.28,333.33L376.74,333.56L376.95,333.81L377.35,333.87L377.52,333.6L376.48,332.92L375.5,333.06L375.06,333.02L375.08,332.65L374.82,332.4L374.82,331.95L375.25,331.75L376.05,331.67L376.23,331.38L376.66,331.62L376.6,330.96L377.92,330.8L378.15,330.45L377.58,330.46L376.54,330.68L376.39,331.1L375.58,331.24L375.19,330.38L375.69,329.56L375.06,329.89L374.8,329.62L375.77,329.06L376.91,329.02L376.92,328.56L378.35,328.65L378.72,329.15L379.27,329.28L380.12,329.06L380.68,328.45L380.15,328.58L379.45,328.89L378.93,329.03L378.75,328.47L377,328.29L376.42,328.03L376.44,327.32L377.07,327.57L377.4,327.56L377.77,327.29L377.22,327.07L376.59,326.55L378.69,327.06L378.73,326.74L378.14,326.43L377.71,326.33L376.75,326.38L375.38,326.75L375.59,326.33L376.06,326.37L377.21,326.23L376.91,325.96L376.26,326.05L375.82,325.88L374.91,326.07L374.99,325.77L374.75,325.24L374.73,324.48L375.35,323.84L375.7,323.93L376.41,324.48L376.74,324.45L376.22,323.9L377.22,323.74L377.09,323.5L376.31,323.59L375.83,323.81L375.77,323.52L376.3,322.98L376.7,322.95L377.09,322.75L377.64,322.29L377.44,321.98L378.08,321.25L378.48,321.06L378.79,321.25L379.84,321.37L380.85,321.69L381.07,322.22L381.58,322.38L381.99,322.14L382.4,322.09L382.96,322.25L382.9,322.73L382.6,323.82L382.82,323.84L383.02,323.05L383.11,322.43L383.42,322.27L384.11,323.46L384.59,323.73L384.61,323.41L383.78,322.47L384.18,322.57L384.68,322.52L385.21,322.28L385.86,322.4L386.38,322.86L386.98,323L387.46,322.93L388.15,322.18L387.93,321.92L388.68,321.83L388.3,321.55L387.75,321.69L387.51,322.05L387.43,322.51L386.77,322.58L386.42,322.49L385.92,322.08L385.63,321.99L384.23,322.26L383.46,321.75L381.92,321.84L381.64,322.1L381.3,321.86L381,321.46L381.5,321.37L381.9,321.43L382.3,321.32L382.93,321.37L382.94,321.15L382.34,321.04L381.99,321.15L381.21,321.06L380.83,321.18L380.13,321.11L379.84,320.95L378.12,320.85L377.59,321.21L376.8,321.11L376.45,321.43L375.96,321.02L376.25,320.37L376.35,319.88L376.61,320.03L377.19,320.01L377.56,319.81L377.78,319.2L377.73,318.58L377.18,318.21L376.81,317.85L375.94,317.9L375.88,317.47L376.28,317.43L376.08,317.07L375.68,316.68L375.72,316.34L375.98,316.11L376.4,316.14L376.82,315.98L377.06,316.53L377.68,316.73L377.52,317.31L377.91,317.91L378.87,318.63Z" class="land" id="NO-14" title="Sogn og Fjordane"/>
    <path d="M378.98,315.3L378.68,315.45L378.3,315.38L378.16,315.12L378.53,314.92L378.91,314.99ZM381.05,314.34L381.47,314.51L381.76,314.82L381.4,315.23L381.64,315.62L381.28,316.04L379.97,316.35L379.8,316.32L379.3,315.69L379.44,315.54L379.29,315.09L379.63,314.45L380.82,314.24ZM380.35,314.01L379.96,313.65L380.42,313.54L380.87,313.18L381.11,313.3L380.99,313.96ZM379.51,313.14L379.95,313.4L378.96,314.06L378.83,313.81ZM384.14,313.43L383.13,314.35L382.88,314.43L382.45,315.18L382.06,315.25L382.08,314.8L381.77,314.19L381.51,314.43L381.31,313.99L381.73,313.86L381.67,312.97L382.01,312.37L382.73,312.13L383.16,312.18L383.42,313.11ZM385.08,311.74L385.62,312.09L386.06,312.05L386.17,312.24L385.71,312.52L384.55,312.71L384.12,312.6L383.77,312.32L383.74,311.87L384.62,311.9ZM384.42,311.62L383.96,311.67L383.95,311.34L384.65,311.15L385.24,311.22ZM383.26,311.43L382.62,311.42L382.97,311.05L383.54,311.15ZM387.27,310.71L388.27,310.96L388.33,311.54L387.57,311.94L386.71,312.09L385.99,311.88L385.82,311.53L386.31,311.1ZM386.94,310.56L386.29,310.9L385.5,311.05L384.76,311L385.12,310.6L385.7,310.52L385.85,310.7ZM384.29,310.82L383.95,310.84L383.95,310.4L384.3,310.46ZM384.13,309.55L383.65,310.15L383.29,310.24L383.21,309.92L383.68,309.6ZM384.95,309.03L384.36,308.83L384.18,308.48L384.68,308.43L384.91,308.64ZM394.51,308.01L393.93,308.24L393.24,308.16L393.22,307.76L393.73,307.69L393.9,307.86ZM384.73,307.58L385.45,308.45L385.2,308.52L384.47,307.89ZM385.01,307.58L385.44,307.46L385.88,307.67L386.04,307.98L385.82,308.18L385.47,308.03ZM388.12,308.1L387.75,308.18L388.07,307.53L388.4,307.78ZM390.74,306.58L390.73,307.22L389.67,307.58L388.7,307.99L388.53,307.63L388.84,307.31L388.69,306.78L388.95,306.59L389.22,306.85L390.09,306.64L390.67,306.4ZM386.99,306.76L386.77,306.82L386.52,306.18L387.02,305.76L387.16,306.38ZM390.91,304.84L390.98,305.06L390.52,305.42L390.7,305.6L390.42,305.95L389.72,305.44L389.81,305.13L389.51,304.71L389.85,304.52L390.18,304.85L390.64,304.47ZM398.39,302.34L397.95,302.5L397.88,302.06L398.24,301.86ZM398.63,300.26L398.48,300.93L397.95,301.51L396.99,301.24L397.08,300.47L397.79,300.16L398.3,300.08ZM396.76,300.33L396.86,300.66L396.85,301.39L397.3,301.94L396.57,302.35L395.82,302.91L395.37,303.08L395.25,302.68L394.17,302.16L394.83,301.5L394.81,301.01L395.5,300.8L395.94,301.4L396.01,300.27L396.24,299.84L396.77,299.8ZM398.35,299.62L398.32,299.96L397.73,300.05L397.16,300.02L396.98,299.6L397.69,299.65L398.14,299.43ZM399.81,299.23L399.15,299.2L398.91,298.49L399.64,298.15L400.41,297.56L400.57,297.59L400.99,298.66L401.05,299.09ZM402.19,298.9L401.19,299.08L401.08,298.82L400.96,297.75L401.31,297.47L401.55,298.09L402.04,298.53ZM403.29,297.02L403.45,297.6L403.86,297.85L404.18,298.26L404.23,298.64L403.44,299.06L402.51,299.01L401.8,298.04L401.62,297.59L401.72,297.17L402.39,297.18L403.17,296.77ZM405.12,295.73L404.4,296.19L403.42,296L403.35,296.31L402.58,296.45L402.6,296.03L403.2,295.84L403.72,294.97L404.18,294.82L404.74,295.01ZM408.09,313.06L407.82,313.36L407.48,313.43L406.95,313.33L406.74,312.98L405.3,312.94L404.26,313.1L403.41,313.13L402.48,313.26L401.64,313.51L401.14,313.81L400.57,314.48L400.21,315.18L399.36,316.49L398.38,316.63L398.07,316.29L397.31,316.38L396.68,317.15L396.08,317.42L396.49,318.17L395.86,318.41L395.49,317.93L394.74,317.99L394.58,318.59L394.2,318.97L394.16,319.46L393.77,319.24L393.35,319.26L392.99,319.07L392.86,319.36L392.03,319.4L391.68,319.91L391.13,319.98L390.87,319.86L390.6,320.03L389.89,320.22L389.52,320.12L389.27,319.58L388.53,318.33L388.29,318.67L387.95,318.56L387.26,318.98L387.24,319.34L386.63,319.34L386.43,319.75L385.71,320.37L385.6,320.12L385.08,319.8L385.31,319.52L384.63,319.42L384.21,320.09L383.5,320.34L383.07,319.81L382.73,319.69L382.26,319.79L381.56,320.22L381.37,320.05L380.48,320.05L379.89,320.27L379.48,320.29L378.89,319.85L378.97,319.42L379.29,318.81L379.23,318.27L379.46,318.21L379.91,318.66L380,318.26L379.56,317.89L378.53,317.83L378.27,317.38L378.61,316.49L378.98,316.13L379.56,316.68L380.3,316.62L380.5,317.56L380.94,318.1L381.08,317.9L380.63,317.45L380.48,316.55L380.9,316.6L381.47,316.35L381.52,316.14L381.96,316.04L382.32,316.13L382.73,316.85L382.64,317.78L381.91,319.2L382.43,318.7L382.83,317.87L382.82,317.21L383.19,317.14L383.45,317.64L383.69,317.76L383.88,318.35L384.66,318.14L385.28,318.43L385.7,318.25L384.6,317.91L384.3,318.01L383.72,317.18L383.21,316.67L382.57,315.8L382.94,315.55L383.25,316.1L383.85,316.29L384.1,316.08L383.26,315.87L382.97,314.92L383.9,314.29L384.52,313.76L385.83,313.02L386.42,313.96L386.61,314.49L386.59,314.96L386.96,315.19L387.31,316.26L387.58,316.54L387.86,317.27L388.06,316.88L387.52,315.87L387.44,315.49L386.76,314.13L386.5,312.86L386.96,312.57L387.6,312.42L388.15,312.03L389.09,311.64L389.27,311.96L390.25,312.04L390.6,312.37L390.36,312.96L390.7,313.93L391.31,314.76L391.34,315.83L391.44,316.46L391.09,316.79L390.57,317.74L391.53,318.14L391.53,317.94L391,317.6L391.22,317.08L391.63,316.64L391.61,314.76L392.25,314.75L393.21,315.17L393.51,314.6L394.12,314.77L394.04,314.44L393.3,314.41L392.77,314.58L392.52,314.38L391.19,314.07L390.8,313.02L390.95,312.77L390.81,312.13L390.27,311.56L389.46,311.57L389.36,311.28L388.95,310.86L388.33,310.77L387.83,310.09L387.34,310.1L386.84,310.26L386.26,310.2L385.26,310.31L385.42,309.76L385.25,309.37L385.9,308.78L386.26,308.92L387.15,308.7L387.83,308.61L387.85,309.14L388.16,309.29L388.31,308.53L388.88,308.41L389.34,308.08L389.67,308.12L390.53,309.1L390.82,308.8L390.58,308.24L391.07,308.1L392.03,308.13L392.21,309.34L392.56,309.62L392.48,308.59L392.64,308.5L393.19,308.89L393.35,308.68L393.7,308.97L394.27,308.96L394.42,309.59L395.62,310.28L396.68,309.98L396.95,309.44L395.88,309.91L395.23,309.7L394.72,309.12L394.57,308.57L395.17,308.33L395.5,308.91L395.73,308.83L395.37,307.96L396.16,307.64L397.08,307.15L398.11,306.72L399.57,306.58L400.17,307.13L400.34,306.72L399.91,306.61L399.7,306.2L399.04,306.05L398.47,306.19L398.05,306.43L396.95,306.8L395.41,307.53L394.99,307.59L394.25,307.48L394.54,306.96L394.29,306.69L395.6,305.98L396.43,305.83L396.49,305.61L395.38,305.85L394.47,306.27L392.52,306.73L391.89,306.71L391.15,306.88L391.25,306.35L391.06,305.89L391.43,305.17L392.1,304.93L392.21,305.24L392.93,304.92L392.69,304.6L392.35,304.59L391.83,304.81L391.4,304.79L391.1,303.8L390.44,303.52L391.1,303.07L391.62,302.41L392.11,302.26L392.52,301.89L392.87,301.96L393.85,301.62L393.9,302.37L394.46,302.66L394.94,303.11L395.09,303.73L395.65,303.5L396.91,302.43L397.62,302.43L397.8,302.63L397.1,303.32L397.17,303.48L398.16,302.78L399.29,302.38L399.77,302.49L400.15,303.11L400.38,303.22L400.25,303.89L400.66,305.14L401.59,305.86L402.63,306.3L403.03,306.72L403.47,306.91L403.74,307.72L404,307.78L403.99,306.96L403.82,306.68L403.14,306.28L402.71,305.91L402.33,305.78L402.1,305.43L401.56,305.34L401.09,305.01L400.75,303.86L400.76,303.32L400.41,302.79L399.66,301.95L399.23,301.8L398.64,302.15L398.5,301.96L398.53,301.45L398.87,301.06L399.29,300.95L399.29,300.21L400.06,299.84L400.42,299.91L400.68,300.56L400.53,300.78L400.59,301.22L401.29,301.73L402.22,302.56L401.86,303.22L402.3,303.86L402.87,304.22L403.13,304.62L403.56,304.87L403.72,304.35L404.6,304.32L404.29,303.96L403.77,303.94L403.27,303.58L402.99,303.09L403.02,302.76L403.9,302.69L404.81,302.42L404.78,302.09L404.09,302.19L403.56,302.51L403.3,302.22L402.54,302.5L401.99,301.75L401.29,301.37L401.38,300.64L400.95,300.29L400.81,299.95L400.89,299.53L401.49,299.3L402.22,299.15L402.53,299.48L403.21,299.38L403.9,299.42L404.42,300.07L404.59,299.85L404.01,299.34L403.93,299.08L405.2,298.59L405.05,298.41L404.59,298.55L403.99,297.31L403.51,296.68L403.93,296.35L404.87,296.15L405.62,295.7L405.26,295.42L404.84,294.78L404.86,294.48L405.64,294.22L406.01,294.66L406.06,295.27L406.27,295.31L406.58,295.37L406.79,295.59L406.56,295.96L406.53,296.54L406.15,297.29L406.48,297.96L406.26,298.37L405.69,298.54L405.67,298.76L406.23,299.18L406.11,299.57L406.68,299.76L407.34,299.42L407.96,299.28L408.47,299.62L409.29,299.48L408.86,298.8L409.57,298.18L410.14,298.42L410.6,298.04L410.75,298.47L411.46,298.74L411.43,299.4L411.24,300.21L411.21,301.11L411.6,301.18L411.8,301.63L412.39,301.76L411.61,302.14L411.19,302.81L411.14,303.3L411.33,303.88L411.4,304.72L411.02,305.36L410.61,305.63L408.66,306.34L408.28,306.33L407.64,306.55L406.9,307.02L407.44,307.95L407.72,307.92L408.06,308.4L408.53,308.58L408.59,309.07L408.92,309.5L409.24,309.46L409.52,310.08L409.48,310.46L409.17,311.57L409.28,311.79L408.88,312.66ZM400.43,293.49L400.82,294.1L400.89,294.48L401.16,294.77L401.2,295.12L400.87,295.71L400.27,296L399.51,296.09L398.7,295.53L398.08,295.43L398.11,295.17L397.71,295.02L398,294.66L397.82,294.4L398.25,294.2L398.33,293.95L398.95,293.94L399.37,293.44Z" class="land" id="NO-15" title="Møre og Romsdal"/>
    <path d="M434.38,260.87L434.42,261.39L434.69,261.48L434.25,262.33L434.74,262.33L434.89,262.73L434.04,263.44L433.26,263.66L432.87,263.26L432.63,262.54L433.18,262.23L433.06,262.02L433.09,261.05L433.92,260.48ZM431.6,250.7L432.36,250.93L432.48,251.58L432.12,252.31L431.44,253.15L430.98,252.99L430.84,252.66L430.11,252.64L430.38,252.11L430.63,251.24L430.85,250.99ZM435.11,251.87L434.71,251.57L435.07,251.15L435.39,251.23ZM435.52,249.95L435.5,249.38L436.08,248.99L436.17,249.42ZM436.24,248.09L435.64,248.64L435.53,248.3L436.04,247.88ZM434.21,248.06L434.26,247.37L434.8,246.67L434.75,246.32L435.28,246.32L434.47,247.51ZM434.52,245.61L433.98,245.72L434.57,244.85L435,245.01L435.03,245.34ZM439.42,244.51L439.62,244.88L439.18,245.27L438.95,245.24L438.08,245.57L437.09,246.44L436.61,247L435.76,247.07L435.31,246.9L435.85,246.14L436.14,245.47L437.1,244.53L437.62,244.64L437.5,245.21L438.21,244.61L439.08,244.38ZM437.92,241.18L438.43,241.49L438.76,241.92L438.48,242.11L437.84,242.05L437.69,241.37ZM439.55,241.55L439.12,241.53L439.36,240.97L440.05,240.64L440.01,241.34ZM437.35,241.11L437.35,241.78L436.76,242.29L436.97,242.43L437.5,242.18L437.61,242.85L437.04,243.17L436.71,243.7L436.06,244.12L434.75,244.63L434.75,244.12L435.19,243.82L435.46,243.31L435.21,243.01L436.06,242.69L436.66,241.72L436.49,241.36L435.94,241.44L436.06,240.97L436.7,240.86L437.21,240.54ZM441.86,239.2L441.05,239.82L440.16,240.34L439.72,240.33L440.26,239.4L441.13,239.12ZM438.81,238.92L439.32,238.98L439.47,239.24L439.47,239.95L438.86,240.62L438.55,240.64L437.96,239.98L438.05,239.57ZM440.96,237.05L440.36,237.21L440.47,236.52L440.86,236.06L441.26,236.35L441.37,236.68ZM439.2,237.35L438.74,237.08L439.23,236.71L438.96,236.23L438.98,235.91L439.49,235.67L439.43,237.31ZM439.9,236.95L439.57,236.88L439.72,235.69L440.15,235.47ZM439.37,234.2L438.85,234.46L438.69,233.89L439.23,233.4ZM437.51,233.73L437.17,233.65L437.15,233.16L437.36,232.64L437.77,232.86L437.71,233.45ZM440.85,231.86L440.71,232.65L440.32,232.59L440.53,231.86ZM441.1,231.5L440.8,231.59L440.7,231.02L441.16,230.84ZM443.53,229.02L444.27,229.15L443.79,229.55L442.65,229.65L442.47,229.46L443.19,228.88ZM444.54,227.62L444.54,228.07L443.14,228.38L443.28,227.92L443.91,227.62ZM447.4,223.17L446.49,223.34L446.62,222.76L447.06,222.61ZM448,222.16L447.7,222.34L447.18,222.25L447.3,221.8ZM450.65,221.65L450.23,222.3L450.28,223.06L450.48,223.3L450.33,224.1L450.02,224.34L449.55,222.95L448.92,222.53L448.64,222.15L448.92,221.91L448.83,221.56L449.2,221.01L449.88,221.8L450.1,221.54L450.44,220.71L450.78,220.24L450.9,221.21ZM453.3,219.37L453.54,219.65L452.03,220.2L451.58,220.56L451.41,220.03L452.7,219.38ZM451.54,216.17L450.51,216.23L450.96,215.51L451.62,215.05L452,215.5ZM437.75,209.65L438.01,210.21L437.11,210.51L437.33,209.99ZM457.48,203.48L457.83,203.93L458.58,204.1L459.27,204.56L458.67,204.92L458.08,205.02L457.51,204.8L456.88,204.77L456.29,204.16L456.42,203.71ZM462.61,202.44L463.64,202.44L464.23,202.74L463.99,203.45L463.6,203.51L462.65,202.77L462.33,202.81L462.2,203.28L461.61,203.37L460.6,203.09L460.91,202.66L462.25,202.27ZM459.11,203.73L458.13,203.73L457.96,203.16L458.11,202.68L458.69,202.42ZM467.4,202.17L466.37,201.74L466.32,201.58L467.01,200.98L467.58,201.38ZM438.93,206.67L439.14,206.4L439.31,205.01L439.58,204.8L439.65,203.71L440.14,203.48L439.98,202.91L440.27,202.55L440.75,201.43L441.13,201.37L440.98,200.64L441.5,200.58L441.89,201.21L441.5,201.46L441.74,201.8L440.8,202.35L441.07,202.7L441.65,202.1L441.8,203.26L441.79,203.89L441.29,204.31L441.2,204.74L440.67,205.62L440.45,205.51L439.61,206.04L439.36,206.8ZM463.47,199.74L463.53,200.1L462.77,200.03L463.09,199.62ZM443,199.31L443.52,199.41L444.12,199.98L443.77,200.83L443.81,201.14L443.57,202.34L443.2,202.5L442.51,203.08L442.47,202.17L441.97,203.01L441.76,202.09L442.27,200.77L443.02,200.83L443.14,200.54L442.77,200.23ZM454.67,198.17L455.1,198.31L454.95,198.78L454.48,198.74ZM457.49,196.66L457.09,197.06L456.67,197.2L456.67,196.64ZM456.06,196.98L456.03,197.58L455.57,198.14L455.21,198.07L455.01,197.52L455.2,197L455.79,196.32L456.07,196.22L456.39,196.76ZM449.76,195.46L450.2,195.96L450.49,195.97L450.77,196.49L450.57,197.26L450.21,197.43L449.84,197.17L449.63,196.66L448.97,196.11L449.16,195.57ZM444.13,200.91L444.42,199.42L444.65,199.03L444.69,198.14L445.13,197.97L445.16,197.65L444.51,197.64L444.95,196.85L445.76,196.22L446.21,196.44L446.3,196.98L446.74,197.27L447.48,196.14L447.54,195.83L448.09,195.42L448.41,195.43L448.67,196.07L448.57,196.53L448.8,197.24L449.28,196.72L449.93,197.35L449.27,197.99L449,198.65L448.66,198.93L448.17,198.74L447.83,199.1L447.5,199.01L447.23,199.45L447.35,200.3L446.94,200.52L446.44,200.43L446.17,201.31L445.72,200.88L445.68,200.57L445.26,200.14L445.04,201.19L444.39,201.6ZM466.32,195.6L465.17,195.76L465.66,195.19L466.17,195.21ZM458.22,192.99L457.76,193.9L457.1,194.88L456.72,194.87L456.35,195.57L454.99,196.97L454.45,197.28L454.5,196.52L454.71,195.85L454.23,195.93L454.36,196.41L454.04,197.03L453.24,197.75L452.94,198.25L451.29,199.1L450.23,199.34L450.34,198.41L450.25,197.99L450.79,197.76L450.71,197.37L451.05,196.9L451.17,195.86L451.56,195.55L451.85,195.97L452.4,196.09L452.69,195.82L452.15,195.39L451.94,194.37L452.65,194.14L453.3,194.35L453.07,193.73L453.49,193.46L454.97,193.47L455.81,193.58L455.72,193.25L456.5,193.19L457.14,192.88ZM468.75,192.74L468.69,193.3L468.22,193.78L467.35,193.87L467.06,193.75L466.17,194.53L465.89,194.57L465.5,193.89L465.92,193.48L465.87,193.09L466.08,192.15L466.71,191.49L466.78,191.02L467.26,191.02L467.77,190.75L468.39,191.24L468.45,191.84L469.05,192.48ZM469.43,191.29L469.71,191.64L470.23,191.48L470.1,193.03L469.01,193.25L469.21,192.41L468.72,191.56L468.66,191.15L469.26,190.67ZM454.34,190.28L455.02,190.27L456.61,190.73L456.63,191.33L455.87,192.07L454.55,192.16L454.47,191.8L453.51,190.91L453.51,190.59L454.1,190.07ZM451.18,262.34L449.87,261.92L449.17,262.22L448.49,262.1L447.89,262.32L446.83,262.49L445.39,262.52L444.61,262.39L443.68,262.73L442.57,262.63L441.64,262.4L441.1,262.49L440.82,263.16L440.22,263.34L440.07,263.99L439.62,264.23L439.82,264.61L439.57,265.13L438.6,265.13L438.55,265.63L438.33,265.81L437.83,265.62L437.2,265.78L436.93,265.27L436.92,264.95L436.39,265.05L436,264.87L435.4,264.81L434.46,265.41L434.31,265.19L433.8,265.13L433.67,264.98L433.87,264.38L433.58,263.7L434.21,263.59L434.77,263.32L434.87,263.02L435.34,262.87L436.05,263.41L436.09,262.94L435.43,262.71L436.23,262.36L437.51,261.51L437.99,260.88L438.39,260.63L439.11,259.42L438.43,259.99L438.33,260.24L437.76,260.81L436.96,261.35L436.23,262.03L435.63,261.95L435.09,261.6L435.29,261.09L435.58,260.9L435.94,261.06L436.14,260.82L435.66,260.09L435.06,260.33L434.97,260.06L435.49,259.73L434.75,259.63L434.46,260.21L434.24,260.02L434.77,259.47L434.94,258.94L435.49,258.3L435.55,257.72L434.93,258.35L434.04,258.45L434.39,258.97L434.23,259.36L433.72,260.04L432.77,260.57L432.28,260.65L431.91,260.52L431.94,260.19L432.32,259.97L432.52,260.4L432.99,259.84L433.04,259.47L433.41,258.74L433,258.69L433.24,258.26L433.39,257.57L433.68,257.35L433.5,257.03L433.85,256.49L434.63,255.98L434.66,255.48L434.02,255.7L433.8,255.54L434.11,254.86L434.24,253.55L434.6,253.13L434.87,253.46L434.87,254.14L435.34,254.5L435.89,255.28L436.05,255.71L436.5,255.77L437.04,256.07L437.46,255.94L436.98,255.37L436.69,254.75L437.06,254.42L436.72,254.21L436.22,254.72L435.47,254.14L435.06,252.39L435.5,251.49L436.2,250.26L436.38,250.15L436.93,250.55L436.97,250.82L437.46,251.28L437.15,251.57L437.19,251.92L438.03,252.11L438.3,252.47L438.65,252.27L437.91,251.89L437.67,251.16L437.32,250.94L437.12,250.49L436.58,249.86L436.93,249.53L437.14,248.89L437.71,248.7L437.66,248.42L437.08,248.46L437.35,247.91L437.46,246.93L437.69,246.44L438.92,245.5L439.34,245.63L439.97,246.4L440.77,246.58L441.03,247.21L441.75,246.8L440.81,246.01L440.25,245.99L439.57,245.23L439.92,244.78L439.91,243.95L438.82,243.84L437.58,244.28L437.71,243.52L438.37,242.85L438.87,242.6L438.96,242.33L440.92,241.75L442.21,241.11L442.27,240.9L443.05,240.29L443.44,240.51L444.6,240.02L445.08,240.18L445.31,240.86L445.23,241.32L444.72,242.21L445.64,241.64L445.9,241.37L445.62,240.63L445.23,240.36L446.42,239.96L447.34,240.3L448.07,240.06L448.35,239.42L448.74,239.35L449.69,238.45L449.64,238.14L448.72,238.72L448,238.81L447.69,239.45L447.43,239.34L445.99,239.77L445.48,240.05L444.99,239.74L445.48,239.11L444.98,239.06L444.87,239.44L444.04,239.99L443.46,240.14L442.92,239.88L441.95,240.85L440.66,241.43L440.4,241.09L441.4,239.9L441.48,239.66L442.17,239.19L443.39,238.78L444.11,238.82L443.67,238.12L442.25,238.75L441.43,238.84L441.41,238.39L440.92,238.52L440.37,238.26L440.34,237.74L441.09,237.25L441.66,236.72L441.58,236.04L441.13,235.75L441.13,234.9L440.7,234.91L440.3,234.09L441.39,233.74L442.18,234.6L442.16,234.96L442.59,235.06L442.85,234.64L442.47,234.16L443.06,234.15L443.19,233.51L442.66,233.79L442.05,233.62L442.2,232.03L442.01,231.26L442.89,231.22L444.8,231.61L444.68,231.27L444.14,231.16L443.6,230.88L442.78,230.74L442.59,229.93L443.46,229.93L444.64,230.11L444.72,230.63L445.16,230.79L446.21,230.66L446.27,230.06L445.67,230.41L445.03,230.46L444.81,229.51L444.33,228.7L444.44,228.5L445.08,228.48L446.06,228.32L447.04,228.7L447.07,228.43L446.13,227.7L446.09,227.05L445.7,226.88L445.5,226.34L444.75,226.49L444.88,225.55L445.37,225.41L446.41,225.51L446.35,224.83L447.39,224.76L447.46,224.39L448.49,224.2L448.63,224.67L448.99,224.65L448.65,223.77L448.65,223.23L448.93,222.69L449.48,223.54L449.62,224.23L450.02,224.55L450.54,224.44L450.74,223.63L450.57,222.97L450.92,222.74L452.11,222.88L452.58,223.27L453.07,223.27L453.27,222.92L452.09,222.72L451.76,222.4L451.21,222.67L450.63,222.47L451.24,221.34L451.31,220.76L452.46,220.25L452.58,220.54L453.08,220.57L453.36,220.34L453.87,220.63L454.62,220.41L453.25,220.12L453.64,219.71L454.34,219.96L454.66,219.57L455.26,219.32L455.8,219.6L456.39,219.27L456.29,220.12L455.77,220.85L456.24,221.19L456.46,221.92L456.78,221.88L456.44,221.09L456.06,220.98L456.36,220.28L456.77,219.92L457.03,219.44L457.49,219.46L457.94,220L458.43,219.76L459.18,220.4L459.88,220.42L460.14,220.89L459.96,221.4L459.91,222.24L460.52,222.36L460.32,221.37L460.6,220.52L460.13,219.93L459.58,219.7L460.09,219.35L460.38,219.61L460.86,219.53L461.56,219.7L461.9,220.08L462.18,219.65L461.61,219.59L460.62,219.23L460.15,218.93L459.58,219.08L459.43,218.81L458.12,219.08L457.37,218.43L458.01,218.32L458.78,217.82L458.83,217.45L457.6,217.66L457.01,217.66L456.49,218.23L456.1,218.31L455.5,218.18L455.52,218.67L454.95,218.9L454.46,219.31L454.29,218.78L454.36,218.03L453.33,218.6L451.89,218.75L451.12,219.09L451.03,218.86L451.58,218.43L451.67,217.95L452.18,217.79L452.5,217.33L453.17,216.85L453.15,216.61L453.68,216.29L453.7,215.2L454.11,214.99L454.35,215.19L455,215.18L455.63,215.35L456.31,215.37L456.47,215.01L455.27,214.66L454.35,214.86L453.86,214.36L454.14,213.91L455.88,212.42L457.17,211.82L457.95,212.44L457.92,212.83L456.28,214.05L456.63,214.15L457.14,213.6L457.41,213.63L458,213.14L458.32,213.49L458.07,213.83L458.07,214.51L459,213.66L460.35,213.97L460.62,214.33L460.59,215.01L460.95,215.31L461.47,217.03L461.82,216.64L460.91,214.76L461.27,214.57L460.98,213.62L460.54,213.19L459.05,213.1L458.42,212.55L458.44,211.72L458.63,211.44L459.27,211.28L459.95,211.73L460.21,211.56L459.07,211.01L458.23,211.17L457.99,211.01L458.59,209.87L458.84,209.18L459.18,208.75L459.55,208.88L460.26,209.52L460.63,209.22L460.04,208.42L460.89,208.1L461.59,208.17L462.44,208.89L462.65,208.53L462.09,208.01L460.85,207.6L460.17,207.11L460.37,206.68L459.96,206.5L459.78,207.35L459.21,207.62L458.65,208.22L458.03,209.21L456.06,210.47L454.76,210.48L454.52,210.12L455.76,209.41L454.96,208.74L455.82,208.8L456.45,208.47L456.64,208.07L456.49,207.63L455.3,208.06L455.05,207.53L454.71,207.43L454.82,206.78L455.19,206.37L455.73,206.5L456.5,206.05L455.73,205.91L455.74,205.55L456.71,205.13L457.52,205.1L457.8,205.41L458.92,205.56L459.39,204.88L459.93,204.84L462.62,203.75L463.31,203.95L463.58,204.92L464.07,203.78L464.46,203.29L464.61,202.7L464.24,202.34L463.08,201.85L462.7,202.3L462.41,202.04L461.43,202.07L461.46,201.51L461.04,201.4L460.72,201.97L459.94,202.21L460.29,202.51L460.04,203.18L459.07,202.48L458.96,201.71L459.36,201.3L459.52,200.76L459.97,200.49L460.07,199.97L460.67,199.68L461.07,200.55L461.55,199.77L461.66,199.01L462.13,198.97L462.5,199.32L462.61,200.42L462.13,201.15L462.74,201.14L463.24,200.96L463.98,200.15L463.6,198.88L463.81,198.5L464.56,198.52L464.34,197.41L464.85,197.23L465.38,197.6L466.01,198.97L465.71,201.38L465.46,201.9L465.87,202.44L466.18,202.52L466.71,203.79L466.46,205L466.6,205.43L467.05,205.38L466.93,204.63L467.19,203.94L466.93,203.06L466.49,202.71L466.82,202.42L468.03,202.44L468.63,203.19L469.1,202.57L468.32,202.23L467.87,202.28L467.82,201.72L468.16,201.09L468.47,201.05L468.66,200.37L468.97,200.57L469.26,201.17L470.16,201.48L470.48,201.13L469.54,200.97L469.18,200.28L468.49,200.22L467.91,201.06L467.68,201.01L466.84,200.06L467.38,200.02L467.64,199.52L468.58,199.16L468.91,198.82L468.68,198.16L467.68,198.13L466.97,198.49L466.85,197.98L467.46,197.62L466.72,196.94L466.05,196.8L466.28,196.17L466.8,195.71L467.53,196.17L468.06,196.31L469.33,197.13L470.09,198.35L470.2,198L469.9,197.53L469.96,196.92L467.3,195.84L467.15,194.83L467.96,194.58L468.82,194.07L470.09,193.72L471.07,193.76L471.55,194.26L472.24,194.62L472.29,194.92L471.66,195.73L472.76,195.23L473.31,195.2L473.44,194.6L475.08,194.38L475.54,194.19L475.49,193.8L476.2,193.77L476.68,194.3L477.01,194.37L477.62,194.81L477.88,194.68L476.69,194.05L476.24,193.31L476.82,193.07L477.41,193.03L477.85,193.21L478.98,193.26L478.2,192.6L477.06,192.81L476.96,192.46L477.66,191.61L477.73,191.18L477.29,191.07L477.02,191.39L476.48,191.55L475.35,192.71L474.79,192.95L473.26,193.11L473.53,192.58L473.92,192.4L473.07,191.48L472.57,191.72L472.06,192.68L470.32,193.06L470.4,191.45L471.18,190.63L471.9,190.1L474.59,190.74L475.89,190.53L477.48,189.83L479.87,189.75L481.37,189.55L482.24,191.22L482.05,194.13L482.46,198.71L480.39,203.75L478.62,202.36L477.48,201.65L475.34,200.47L474.51,201.97L472.66,203.41L470.89,204.95L469.41,210.71L468.91,211.87L468.2,213.14L466.16,213.45L465.61,215.24L468.17,220.13L468.03,223.46L466.47,224.81L465.19,226.27L464.82,227.08L461.78,232.83L460.39,234.3L459.78,235.11L460.66,239.21L457,241.84L452.75,242.26L453.22,245.78L453.3,246.95L453.63,248.69L452.94,250.9L452.6,254.47L452.66,258.6L451.62,259.83ZM455.83,182.19L456.07,182.52L456.49,182.43L456.72,183.04L456.48,183.59L455.79,183.68L455.37,183.15L455.44,182.64ZM458.9,181.68L459.15,181.97L458.78,182.34L458.49,181.94ZM467.14,189.55L467.63,189.95L468.71,190.53L466.85,190.63L466.49,191.04L465.74,191.59L465.53,192.64L464.96,193.26L464.79,194.17L464.09,194.65L463.75,194.55L463.55,194.09L462.92,194.39L462.43,194.86L462.57,195.4L461.56,196.2L461,195.76L460.29,195.45L459.41,195.35L459.94,194.35L460.09,193.8L458.84,194.88L458.55,195.68L457.82,195.94L457.62,196.47L456.58,196.35L456.55,196.12L457.04,195.6L457.3,194.84L457.86,193.8L458.33,193.25L458.78,192.49L458.47,191.95L458.82,191.38L458.15,191.28L458.6,190.27L459.16,190.38L459.24,190.01L459.8,189.76L460.83,188.88L460.27,187.26L460.46,186.92L461.11,186.8L460.46,186.34L460.56,184.97L461.04,184.94L461.6,184.49L461.18,183.89L461.39,183.3L461.69,183.05L461.65,182.6L461.92,181.95L462.29,181.69L463.21,181.79L463.64,181.5L463.5,182.53L463.67,183.19L463.37,183.9L463.41,184.63L462.99,185.23L463.13,185.51L462.59,186.23L462.48,187.25L463.08,187.39L463.23,188.22L462.84,188.89L462.52,188.75L461.96,189.25L462.19,189.88L461.94,190.35L461.66,190.5L461.78,191.36L462.08,191.8L462.13,192.42L461.8,192.92L461.9,193.22L462.17,193.09L462.45,192.4L462.9,192.08L463.43,191.29L463.94,191.24L463.96,190.71L464.23,189.9L464.58,189.47L465.08,190.3L465.57,189.77L466.16,189.43L467.05,189.15ZM458.42,182.09L458.71,182.65L459.19,183.15L459.43,183.81L459.92,184.33L459.69,184.84L459.71,185.33L459.37,185.43L459.14,186.2L460.04,186.92L460.11,187.9L459.74,188.37L458.82,189.05L457.33,189.9L457.08,190.29L456.32,190.09L455.97,190.19L455.41,189.94L455.56,189.43L455.16,189.38L455.4,188.59L455.96,188.48L457.1,187.93L457.52,187.27L457.89,186.39L457.03,186.12L457.15,186.7L456.73,187.53L456.15,187.27L455.95,187.99L455.48,188.02L455.16,188.38L454.38,188.3L454.02,188.55L453.51,189.47L452.49,189.84L452.02,189.7L452.1,189.11L451.59,187.73L452,187.42L452.41,186.5L452.13,186.11L452.73,185.59L453.09,185.03L453.6,185.12L453.69,184.64L454.28,184.59L454.18,185.56L454.29,186.25L454.76,185.79L455.54,185.47L456.02,185.81L456.12,184.72L455.88,184.2L456.43,183.8L456.97,184.69L457.2,183.74L457.15,182.73L456.76,181.58L456.92,181.03L457.54,180.34L458.14,180.63L458.22,181.62ZM466.02,173.82L466.35,174.17L466.3,174.77L465.82,175.4L465.71,176.82L465.58,177.25L464.98,177.78L464.09,179.08L463.81,179.81L463.85,180.15L462.28,181.05L461.96,181.45L461.62,181.29L461.4,182.36L461,183.28L460.63,183.71L460.25,183.42L460.3,182.46L460.15,181.35L460.71,180.21L461.32,178.31L462.15,177.59L462.82,177.49L463.35,176.95L463.4,176.3L463.73,176.07L463.54,175.64L463.69,174.95L464.49,174.47L465.82,173.26Z" class="land" id="NO-18" title="Nordland
"/>
    <path d="M473.39,183.81L473.75,184.85L474.55,185.91L474.18,186.44L473,186.62L472.13,186.98L471.65,186.96L471.92,185.99L472.39,185.85L472.66,184.76L473.16,183.94ZM475.16,182.37L476.07,182.51L476.54,183.27L477.03,183.59L476.45,184.27L475.3,185.33L474.89,185.44L474.53,185.17L474.44,184.15L474.17,183.79L473.85,182.88L474.04,182.38L474.41,182.57ZM470.63,181.37L471.15,181.69L470.64,182.21L470.21,182.04ZM467.67,181.08L468.01,181.06L468.49,181.63L469.1,181.72L469.8,181.46L469.93,182.6L470.13,183.15L469.49,183.63L468.44,183.3L467.88,182.68L467.7,182.15L466.96,181.78L467.05,181.3L467.37,180.91ZM469.16,180.27L469.32,180.81L468.87,181.06L468.49,180.93L468.74,180.39ZM477.84,178.68L477.24,179.86L476.83,180.02L476.43,180.88L475.86,180.81L475.89,180.04L476.37,178.91ZM477.04,166.85L477.79,167.67L478.03,168.45L478.54,168.55L478.42,167.55L478.85,167.27L479,167.82L479.5,167.93L480.11,167.29L480.56,168.16L480.38,169.15L480.01,169.37L480.07,169.91L480.88,168.73L481.59,169.37L481.56,169.78L480.83,171.04L481.15,171.17L481.38,170.54L481.77,170.67L481.67,172.2L481.57,172.66L480.67,172.99L480.4,173.48L480.78,174.52L480.85,175.21L480.58,175.82L480.89,176.71L479.88,177.11L478.95,176.88L478.03,177.39L477.95,177.06L477.32,177.22L477.46,176.31L477.05,176.02L476.7,176.28L476.23,177.26L475.24,178.27L474.42,179.44L474.86,179.54L474.93,180.09L474.24,180.46L473.5,180.59L473.32,180.43L473.86,179.23L472.76,179.01L472.55,179.33L471.46,179.53L471.27,178.51L471.62,177.9L472.34,178.32L472.22,177.72L472.84,177.51L473.26,177.61L473.73,176.59L472.64,176.15L472.31,175.33L473.06,175.14L473.69,175.51L474.12,175.17L473.13,174.49L472.78,174.44L472.18,173.56L472.72,173.44L473.52,172.99L472.92,172.49L472.11,172.41L472.7,171.45L472.94,171.73L474.06,171.46L474.73,171.16L475.21,171.24L476.2,172.4L476.37,172.02L475.83,171.74L475.82,171.23L476.15,170.77L475.27,170.47L474.74,169.71L474.91,169.17L475.37,169.6L475.92,169.12L475.5,168.32L476.18,168.42L477.05,169.28L477.57,169.51L477.75,170.14L478.38,169.99L477.55,168.62L477.1,168.28L476.82,167.52ZM482.21,165.06L482.62,165.52L482.27,165.85L481.91,165.42ZM489.57,164.6L489.21,165.09L489.08,165.77L488.54,165.83L488.82,164.61ZM483.21,163.5L483.07,164L482.53,163.6L482.9,163.2ZM485.66,160.81L486.09,161L485.89,161.65L484.83,161.66L485.01,161.03ZM487.49,160.19L487.84,160.35L487.96,160.9L488.42,161.34L489.09,161.43L489.34,161.74L489.82,162.82L489.39,163.7L488.99,164.21L488.25,164.84L487.58,164.99L487.15,166L487.71,166.05L487.9,166.73L487.69,167.39L487.22,167.89L486.81,167.88L486.47,167.48L485.82,168.08L484.9,168.23L484.22,168.59L482.93,168.78L482.48,168.62L482.05,167.89L481.73,168.04L481.29,167.69L481.27,167.36L481.64,166.39L481.96,166.56L482.44,166.2L482.91,166.4L483.56,166.41L482.98,165.48L482.7,164.55L483.45,164.51L484.01,164.88L484.75,164.51L485.42,164.57L485.64,164.34L483.88,164.24L483.66,162.88L484.21,162.34L484.99,162.62L485.99,162.08L486.55,162.18L486.21,163.17L486.56,164.06L486.96,164.17L487.11,162.79L487.56,162.16L486.66,161.58L486.45,160.71L486.89,160.19ZM503.6,159.68L503.27,160.09L503.19,160.75L503.57,161.48L503.2,161.91L502.22,162.5L501.98,162.22L501.8,161.13L502.08,160.6L502.07,159.99L502.38,159.64L502.77,159.78ZM511.56,158.75L511.74,159.45L510.88,159.21ZM503.06,158.1L502.97,158.92L502.54,158.48ZM496.56,158.11L495.95,158.9L495.69,159.55L495.54,160.44L495.29,160.88L494.75,160.82L492.93,161.35L492.73,160.92L493.64,159.32L494.55,158.82L495.37,157.94L495.72,157.2L496.16,157.32ZM504.16,156.52L504.55,156.71L504.96,157.29L506.04,157.82L505.49,158.14L505.04,158.95L504.36,159.28L504,159.01L503.68,158.4L503.73,158.01L503.39,157.2L503.51,156.8ZM510.96,156.36L511.72,157.03L511.12,157.36L510.59,157.16L510.3,156.7ZM505.73,155.92L505.8,156.74L505.31,156.68ZM491.16,155.26L491.82,155.45L491.68,156L491.75,156.63L492.09,157.4L492.47,157.23L492.62,156.61L493.39,156.13L494.84,157.4L494.89,157.99L494.38,158.38L493.79,158.48L493.22,158.81L493.42,159.13L493.3,159.65L492.91,160.08L492.2,161.63L491.3,162.27L490.23,162.5L489.93,162.39L489.49,161.39L488.78,160.91L488.36,160.23L487.15,159.53L486.96,159.28L487.23,158.33L488.15,158.54L487.78,157.81L487.83,157.12L488.1,156.79L488.83,156.69L489.99,155.89L490.13,155.55ZM487.49,154.83L487.72,155.27L488.22,155.3L488.43,154.82L489.27,155.63L488.57,156.39L487.96,156.42L487.33,157.11L486.99,157.8L486.61,157.19L486.53,156.22L487.08,155.2ZM504.95,154.67L505.18,155.03L504.75,155.74L504.33,155.8L503.99,155.31L503.85,154.71L504.46,153.65ZM492.86,153.47L493.22,153.95L494.11,154.58L493.89,155.13L492.9,155.01L492.08,154.39L492.21,153.85ZM488.18,152.78L488.56,153.15L488.44,153.99L487.61,153.82L487.57,153.44ZM503.62,151.83L504.1,152.26L504.18,152.95L503.77,154.31L503.69,155.04L504.14,156.11L503.48,156.4L502.9,156.25L502.2,156.64L501.67,156.21L501.24,156.32L500.78,155.97L500.55,155.38L500.72,154.21L500.62,153.98L500.91,153.16L501.8,152.76L501.96,152.02L502.56,151.82ZM491.08,151.27L491.4,151.84L491.51,153.07L491.21,153.62L491.24,154.24L491,154.59L490.31,154.76L489.73,154.05L489.2,153.72L489.88,153.28L490.21,152.73L490.36,152.06L490.07,151.64ZM495.58,151.96L495.2,151.73L495.38,151.13L495.71,151.18ZM494.33,150.56L494.83,151.14L494.81,151.67L495.2,151.81L495.54,152.6L495.6,153.55L496.43,152.62L496.85,152.79L496.65,153.45L497.7,154.58L498.59,155.04L497.57,155.46L497.32,156.14L496.68,156.29L496.31,156.1L495.49,156.07L495.2,155.8L495.21,154.91L494.85,153.54L494.27,152.56L493.65,152.23L493.49,151.84L493.91,151.55ZM499.8,151.04L499.91,151.36L499.22,152.01L499.16,150.74L498.92,150.31L499.22,149.99ZM467.14,189.55L467.05,189.15L466.16,189.43L465.57,189.77L465.08,190.3L464.58,189.47L464.23,189.9L463.96,190.71L463.94,191.24L463.43,191.29L462.9,192.08L462.45,192.4L462.17,193.09L461.9,193.22L461.8,192.92L462.14,192.42L462.09,191.8L461.78,191.36L461.66,190.5L461.94,190.35L462.19,189.88L461.96,189.25L462.52,188.75L462.84,188.89L463.23,188.22L463.08,187.39L462.48,187.25L462.6,186.23L463.14,185.51L462.99,185.23L463.41,184.63L463.37,183.9L463.67,183.19L463.51,182.53L463.64,182L464.08,181.6L464.17,182.68L464.54,183.24L464.28,183.81L463.89,185.68L464.25,185.9L464.51,185.35L464.97,185.83L464.78,187.26L464.42,187.93L463.97,188.43L463.17,188.98L463.28,189.39L464.23,188.73L464.95,188.1L465.28,187.51L465.3,186.8L465.49,186.47L466.29,186.78L466.89,186.71L466.91,186.28L465.85,185.58L465.59,184.79L465.87,184.32L466.51,183.8L466.94,183.85L467.32,184.51L467.69,184.55L467.38,183.25L468.47,184.12L468.76,183.98L468.9,184.79L469.5,185.37L469.48,186.51L469.77,187.15L469.32,187.92L469.85,188.22L469.7,188.82L469.27,189.54L468.98,189.65L468.99,190.24L468.71,190.53L467.63,189.95ZM509.16,152.81L509.69,152.98L510.02,152.98L510.22,152.78L510.87,152.85L510.83,153.41L511.69,154.09L511.78,154.44L512.89,154.75L513.25,153.72L513.64,153.86L514.21,153.12L514.52,153.27L514.88,154.27L514.81,154.51L515.43,155.38L515.73,156.13L515.58,156.85L515.87,157.94L515.9,158.51L517.22,159.24L517.53,159.18L518.14,159.75L517.49,160.39L518.38,161.05L517.98,161.48L517.58,162.39L518.29,162.93L518.37,164.09L518.7,164.76L520.05,165.72L520.78,165.36L521.22,165.8L520.81,166.42L520.27,166.78L519.99,167.88L519.64,168.19L519.82,168.98L519.09,168.8L518.31,168.88L517.11,169.44L516.13,169.63L516.34,170.28L516.19,170.98L516.53,171.71L516.54,172.29L516.87,172.51L517.19,173.46L517.71,174.56L518.03,174.76L518.18,175.76L518.11,177.14L517.95,177.83L517.68,178.2L516.5,178.86L514.36,178.97L513.58,178.74L511.75,175.92L510.9,174.4L508.06,173.57L506.56,174.76L505.81,175.64L505.69,176.33L506.25,177.95L506.67,178.38L506.25,179.91L503.47,178L502.06,179.41L498.05,179.73L499.51,181.77L500.06,182.44L500.3,185.25L499.21,188.32L497.99,190L497.05,190.74L497.77,191.35L499.41,192.23L497.36,194.58L496.92,195.25L489.26,191.66L486.28,191.88L484.53,190.21L482.25,191.22L481.37,189.55L479.87,189.75L477.48,189.83L475.89,190.53L474.59,190.74L471.9,190.1L471.18,190.63L470.4,191.45L470.23,191.48L469.71,191.64L469.43,191.29L470,191.24L470,190.65L469.45,190.16L469.49,189.6L469.9,188.82L470.48,188.62L470.81,188.22L471.58,187.9L472.25,187.92L472.8,187.25L473.4,187.2L473.44,187.74L474.21,188.82L474.44,188.46L473.95,188.08L474.05,187.24L475.24,186.74L475.87,187.03L476.36,186.88L476.29,186.51L475.63,186.58L475.13,186.34L475.56,185.81L476.44,185.07L476.99,184.9L478.12,185.7L479.61,185.95L479.07,185.48L478.36,185.4L476.94,184.49L477.57,183.94L478.11,183.29L479.02,183.26L478.9,183.67L479.7,183.91L480.08,183.84L479.45,182.99L478.63,182.36L477.81,182.73L476.69,182.91L477,182.33L476.91,181.88L477.63,181.77L477.52,181.22L476.94,180.96L477.51,180L478.7,178.78L478.3,178.28L478.84,178.03L479.51,178.07L481.17,177.27L481.66,177.34L481.84,177.7L482.41,177.35L481.88,177.11L481.65,176.51L481.81,175.47L481,175.58L481.21,174.97L481.09,174.4L481.29,173.64L481.77,173.31L482.07,172.85L482.14,171.92L482.47,171.6L482.55,170.86L482.3,170.22L482.82,170.17L483.19,169.63L483.58,169.72L484.25,170.28L484.05,171.92L483.43,172.7L483.05,174.03L483.32,174.01L483.57,173.27L483.51,172.78L484.41,171.66L485.28,172.28L485.3,173.4L485.67,173.87L486.55,173.8L486.8,173.31L487.37,173.21L488.31,173.33L488.22,173.65L488.94,174.12L489.13,173.92L488.79,173.2L487.87,173.14L487.16,172.81L486.18,172.08L485.84,171.08L485.14,170.66L484.9,170.26L485.13,169.75L484.86,169L486.17,168.45L487.57,168.22L488.2,168.01L488.31,169.12L488.52,169.49L488.64,170.36L488.96,170.9L489.36,171.18L489.25,171.57L489.63,172.26L490.26,172.82L491.73,172.79L492.18,173.55L492.15,173.94L491.79,174.22L491.3,175.05L491.67,175.65L492.36,175.3L493.23,175.7L493.41,175.54L492.73,174.76L492.76,173.39L492.26,172.35L491.6,171.99L490.31,172.12L489.93,171.61L489.83,170.78L489.42,170.6L489.11,170.17L489.35,169.46L489.42,168.54L488.9,167.75L488.83,166.91L489.06,165.98L489.98,164.73L490.13,163.75L490.76,163.48L491.04,162.98L491.61,162.65L492.67,162.67L493.53,162.19L493.98,162.23L494.96,161.75L495.38,162.16L495.25,162.78L494.92,163.23L495.14,163.7L494.86,164.38L494.78,165.14L495.44,165.92L495.18,166.39L495.26,166.76L495.04,167.6L494.62,168.28L494.54,168.93L494.92,169.53L494.62,170.01L493.96,170.68L494.65,170.69L494.8,170.17L495.38,169.49L495.17,169.17L495.43,168.56L495.25,167.96L495.6,167.13L495.39,166.71L496.19,166.32L496.1,165.51L495.7,165.01L495.89,164.23L496.31,163.8L496.29,162.9L496.77,162.55L497.04,161.65L497.51,161.4L497.16,162.94L497.42,162.97L498.2,160.31L498.44,159.89L498.67,158.87L499.22,158.83L499.91,157.94L500.29,158.35L500.79,160.41L500.49,161.64L500.12,162.67L499.89,164.65L499.63,164.96L499.81,165.53L500.45,166.01L500.44,166.45L500.13,167.2L499.37,167.45L499.63,169.21L499.38,170.16L498.98,170.11L498.73,171.61L498.04,172.09L497.41,172.73L497.44,173.03L496.96,173.85L497.21,174.38L497.78,173.08L499.11,171.86L499.47,172.02L499.75,171.66L499.65,171.17L500.2,170.19L500.31,169.48L500.72,168.08L500.81,167.22L501.15,167.07L501.87,167.61L502,168.12L502.47,167.87L502.28,167.27L501.59,166.6L501.34,166.01L501.46,165.27L501.88,164.35L501.82,163.72L501.54,163.42L501.81,163.03L502.91,162.38L503.25,162.41L503.9,161.67L504.03,161.03L503.67,160.58L503.95,160.08L504.52,159.77L504.69,159.32L505.57,159L504.88,160.92L505.2,162.29L505.62,162.77L506.08,162.4L505.66,161.84L506.21,161.25L505.99,160.63L506.59,160.35L507.24,160.31L507.34,160.69L506.95,161.14L507.18,161.59L507.59,160.99L507.25,159.96L508.29,159.83L507.24,158.97L507.41,157.95L507.7,157.12L508.36,156.87L509,156.92L510.05,157.86L510.06,158.31L510.46,158.78L510.34,159.15L511.51,160.16L511.99,160.29L512.72,161.18L513.42,162.81L514.02,163.04L514.53,162.65L513.67,161.62L514.02,161.19L513.82,160.62L513.13,160.4L512.77,158.93L513.21,158.67L512.91,157.85L513.75,157.6L513.61,156.95L512.72,157.1L512.08,156.46L512.43,156.31L513.04,155.51L511.65,156.11L510.27,155.18L509.55,155.08L509.04,153.86L509.68,153.43L509.59,153.17L508.4,153.61L507.76,153.18L507.37,152.55L507.31,152.08Z" class="land" id="NO-19" title="Troms"/>
    <path d="M578.13,159.6L578.91,159.86L579.47,161.04L579.9,161.29L579.73,161.89L577.8,163.23L576.87,163.27L577.18,162.12L577.54,161.8L577.71,161.08L577.63,159.66ZM540.95,150.41L541.19,151.06L540.56,151.58L540.48,150.84ZM519.53,147.97L520.16,147.96L520.43,148.24L520.27,149.05L520.5,149.33L521.03,149.21L521.9,150.42L522.12,151.06L522,151.74L521.11,151.47L519.94,151.53L518.49,151.1L517.71,150.45L517.15,150.27L516.8,149.62L516.77,149.11L518.33,148.21ZM511.87,148.43L512.26,148.78L512.36,149.29L512.08,150.3L511.66,151.11L511.25,150.31L511.4,148.74ZM526.02,142.32L526.53,142.67L526.88,143.35L526.4,144.85L527.18,145.36L527.04,145.73L527.28,146.8L525.92,148.31L525.47,148.99L524.75,149.46L524.95,149.9L523.59,150.87L522.91,150.74L522.5,150.29L522.41,149.59L521.16,148.65L521.16,148.07L521.46,147.52L521.09,147.36L520.96,146.68L521.5,146.26L522.22,145.25L522.79,144.93L523.41,144.95L523.02,144.27L525.04,144.13L526.1,143.58L525.58,143.39L525.04,142.33ZM545.42,140.42L545.56,140.86L545.18,141.31L544.74,140.96L544.8,140.57ZM528.62,139.32L529.08,140.1L529.72,140.2L530.7,140.94L531.39,142.6L531.09,143.29L530.41,143.95L530.27,144.68L529.4,145.22L528.42,145.14L528.09,144.58L527.54,143.01L527.22,142.6L527.47,142.07L527.41,141.28L527.14,140.51L527.55,139.29ZM524.92,136.72L525.16,137.26L526.16,138.02L526.04,138.5L525.33,138.81L525.35,139.47L524.73,139.62L524.79,140.15L524.07,140.55L524.05,141.06L523.2,140.9L523.49,141.52L522.86,143.01L522.51,143.62L521.29,144.62L520.44,145.01L519.23,143.94L518.9,144.19L518.98,145.01L518.49,145.48L518.09,145.39L517.29,145.65L517.19,144.99L516.25,145.41L515.89,145.74L514.98,145.62L514.85,145.14L515.37,144.37L515.78,144.24L516.04,143.77L515.63,143.5L516.35,143.08L515.56,142.64L514,143.34L513.76,142.75L514.28,142.21L513.48,141.99L513.42,141.52L514.87,141.69L515.79,141.97L515.9,141.25L517.11,142.26L517.06,141.25L516.69,140.89L517.14,140.17L517.58,141.05L517.83,140.5L518.39,140.18L519.16,140.65L519.22,141.05L518.68,141.16L518.53,142.11L519.45,141.47L519.92,141.86L520.51,141.75L520.16,140.94L520.15,140.46L519.52,139.76L519.55,139.21L520.38,138.71L521,139.59L521.58,139.79L521.61,141.2L522.08,140.94L522.68,139.8L523.01,139.43L522.89,138.88L522.19,138.24L522.66,137.5L523.61,138.21L524.65,138.33L524.66,137.56L524.46,137.22ZM530.73,132.29L530.56,132.72L530.83,133.74L531.42,133.65L532.14,133.96L531.83,134.43L531.01,134.57L530.86,134.93L530.33,135.09L529.83,134.82L529.8,134.37L529.3,134.14L529.88,133.27L529.76,132.66L529.45,132.26L530.43,132.05ZM538.22,131.76L538.77,132.29L538.25,133.06L537.89,132.27ZM530.68,130.79L530.86,131.12L530.71,131.9L529.95,131.87L529.9,131.07ZM536.25,130.14L536.48,130.45L537.21,130.38L536.49,131.31L536.74,131.66L536.49,132.28L535.25,131.58L535.19,131.31L535.92,130.2ZM543.9,128.64L544.33,129.02L544.75,128.6L545.07,128.87L544.7,130.02L545.18,130.29L545.98,130.03L546.41,129.4L546.94,130.17L546.42,130.88L545.25,131.15L546.29,132.22L546.32,132.74L547.16,132.29L547.39,131.88L548.4,131.41L548.4,132.02L547.6,133.16L546.5,133.69L545.88,133.55L544.73,133.66L544.1,133.9L544.03,134.45L542.89,134.67L542.48,134.26L542.31,133.62L541.72,133.25L542.66,132.41L542.24,131.99L541.77,132.36L540.89,132.63L540.44,132.03L540.52,131.4L541.03,131.19L540.69,130.64L541.75,130.55L542.11,130L543.03,130.12L543.78,130.63L543.77,130.1L543.43,129.94L542.78,129.19L543.48,128.72ZM513.58,178.74L514.36,178.97L516.5,178.86L517.68,178.2L517.95,177.83L518.11,177.14L518.18,175.76L518.03,174.76L517.71,174.56L517.19,173.46L516.87,172.51L516.54,172.29L516.53,171.71L516.19,170.98L516.34,170.28L516.13,169.63L517.11,169.44L518.31,168.88L519.09,168.8L519.82,168.98L519.64,168.19L519.99,167.88L520.27,166.78L520.81,166.42L521.22,165.8L520.78,165.36L520.05,165.72L518.7,164.76L518.37,164.09L518.29,162.93L517.58,162.39L517.98,161.48L518.38,161.05L517.49,160.39L518.14,159.75L517.53,159.18L517.22,159.24L515.9,158.51L515.87,157.94L515.58,156.85L515.73,156.13L515.43,155.38L514.81,154.51L514.88,154.27L514.52,153.27L514.21,153.12L513.64,153.86L513.25,153.72L512.89,154.75L511.78,154.44L511.69,154.09L510.83,153.41L510.87,152.85L510.22,152.78L510.02,152.98L509.69,152.98L509.16,152.81L507.3,152.07L508.21,151.21L509.14,150.82L509.3,151.37L509.74,151.62L509.77,149.9L510.4,149.8L510.33,150.53L511.51,151.81L511.94,152.17L512.18,153.14L512.45,152.93L512.46,152.16L512.05,151.52L512.17,151.01L512.6,150.7L513.46,149.48L514.69,150.09L514.71,150.57L515.79,150.47L516.34,150.73L516.1,151.39L516.11,152.69L515.87,153.98L516.64,154.03L518.35,154.56L517.4,153.8L516.41,153.73L516.64,152.88L516.62,151.88L516.85,151.14L518.09,151.51L518.92,152.04L520.47,152.46L521.3,152.44L521.8,152.89L521.7,153.3L521.01,154.32L520.45,154.96L518.93,155.47L518.17,155.65L517.55,155.46L517.18,156.01L518.05,155.92L519.17,155.6L520.96,154.95L521.93,154.08L521.94,155.61L522.06,156.04L521.89,156.66L522.93,157.46L522.89,157.99L523.63,158.57L524.13,158.09L525.12,157.89L525.26,158.26L526.04,157.61L526.36,157.09L526.16,156.79L524.87,156.89L523.86,156.26L523.13,155.35L523.94,154.96L524.72,154.93L525.23,154.48L524.31,153.61L524.48,153.06L523.83,152.7L523.52,152.24L524.7,151.95L525.26,151.97L525.31,151.44L524.35,151.64L525.08,150.72L526.36,150.32L525.56,149.92L525.65,149.48L526.92,147.88L528.06,146.77L528.34,146.16L529.1,145.43L529.87,145.13L530.64,145.04L531.16,145.56L532.07,145.83L532.77,145.81L532.32,145.14L531.02,144.38L531.91,142.84L532.22,141.46L532.49,141.03L533.24,140.76L534.02,140.87L534.11,141.31L534.84,141.78L535.26,142.58L535.91,142.06L535.1,140.6L534.61,139.96L534.5,139.19L533.88,139.32L533.11,139.17L532.98,138.85L532.25,138.54L532.5,137.77L532.22,136.9L533.05,136.08L533.51,136.33L533.44,136.8L533.88,136.9L533.8,137.39L534.44,137.65L535.1,138.35L535.35,137.6L534.81,136.42L535.1,136.14L535.97,136.09L534.74,135.43L534.62,133.73L535.36,133.16L536.54,133.19L536.45,133.86L536.86,134.28L537.16,135.09L537.77,134.71L538.34,133.57L538.82,134.27L538.67,134.72L538.15,135.28L537.89,135.96L538.32,136.23L539.35,134.68L540.32,136.21L540.37,137.02L541.2,137.22L541.41,136.72L541.36,136.05L541.65,135.8L541.21,134.62L540.96,134.46L540.91,133.69L541.19,133.49L542.04,133.99L542.09,134.3L542.89,135.1L542.38,135.84L541.77,136.37L541.97,136.64L542.64,136.3L543.42,135.29L544.18,135.31L544.31,135.84L545.13,135.43L545.6,135.74L545.18,136.26L545.52,136.7L544.81,137.26L544.56,138.24L543.48,138.62L543.27,139.22L543.51,139.41L542.98,140.25L541.76,141.46L541.14,142.62L540.48,143.24L540.35,143.71L539.54,144.45L540.22,144.65L540.17,145.37L539.68,145.54L539.06,145.37L539.09,146.03L540.22,145.81L540.35,146.41L539.77,147.23L540.46,147.57L539.96,148.02L539.65,147.68L539.17,148.6L539.06,149.8L539.87,149.47L539.87,150.35L539.5,150.56L539.01,151.2L538.73,151.15L537.92,151.89L537.8,152.88L538.08,153.26L537.69,153.9L537.73,155.39L538.36,155.65L538.25,154.54L538.44,153.98L539.09,153.53L539.2,154.07L539.61,154.5L538.98,155.12L539.49,155.87L540.31,155.14L540.67,153.81L540.68,153.33L541.36,152.66L541.72,152.1L541.77,151.41L542.31,151.02L542.41,150.51L542.25,150.03L541.56,149.53L542,149.14L542,148.62L542.46,148.25L542.52,147.76L542.93,147.55L543.43,146.79L543.85,145.58L544.52,145.03L545.38,143.7L545.93,143.38L546.47,142.66L546.36,142.21L546.71,141.42L546.8,140.38L546.97,139.83L547.46,139.97L547.64,138.81L548.45,138.23L548.43,138.04L549.59,136.12L551.2,134.14L552.27,134.04L552.55,135.22L552.02,136.52L552.53,136.9L552.45,137.89L552.09,138.69L552.2,139.25L551.48,140.04L550.83,140.53L549.89,140.89L549.31,141.73L550.83,141.17L551.48,141.37L551.83,141.7L551.51,143.53L551.48,144.35L551.07,144.9L551.38,145.9L550.91,146.5L550.74,147.12L550.95,147.87L551.31,148.05L551.65,147.26L552.62,147.19L552.85,146.32L552.68,145.88L554.14,145.84L554.45,146.39L555.02,145.82L554.98,145.16L554.34,144.23L554.8,144.04L554.34,143.53L554.93,142.48L556.32,142.93L556.25,142.5L555.39,141.85L555.83,140.56L555.4,140.49L555.64,139.07L555.88,139.24L556.83,139.15L557.2,139.72L557.46,139.14L556.97,138.82L557.12,137.15L557.73,137.12L558.44,137.58L559.6,137.85L559.53,137.55L558.77,137.29L558.85,136.21L558.48,135.85L557.88,135.9L556.38,135.54L555.7,135.03L555.58,134.65L555.93,133.47L556.35,133.51L557.2,134.32L557.2,133.48L556.89,132.98L556.37,132.61L556.87,131.86L557.78,132.32L558.24,132.35L558.9,132.78L558.94,134.03L559.22,134.03L559.42,132.59L558.77,131.88L558.8,130.77L559.44,130.21L559.82,130.52L559.94,129.65L560.63,130.12L560.65,131.74L561.26,131.67L561.48,132.21L562.37,131.44L562.74,131.56L563.04,130.94L563.46,130.71L563.55,131.69L564.19,130.56L564.88,130.67L565.1,131.17L565,131.78L564.6,132.15L564.47,132.87L565.19,133.29L565.45,132.8L566.61,132.96L567.2,133.18L567.39,133.76L567.08,135.06L566.66,136.02L565.48,137.55L564.92,138.13L563.14,137.98L562.94,137.49L562.37,138.08L561.86,137.84L561.56,138.36L563.11,138.77L564.07,139.39L563.46,140.23L562.82,140.7L561.71,141.2L562.16,141.95L563.93,140.93L564.52,140.27L565.26,139.92L565.41,140.61L565.13,142.07L564.63,142.93L563.58,143.94L562.59,144.65L561.76,145.38L561.53,146.65L561.77,146.72L562.03,145.81L562.5,145.3L562.9,145.62L564.16,145.03L564.58,145.61L565,145.1L565.96,145.28L566.73,145.09L566.16,144.25L566.31,143.62L566.76,142.92L566.88,141.98L567.21,140.74L567.44,140.43L567.19,139.59L567.76,138.74L568.37,138.42L568.29,138.03L569.1,136.55L569.74,135.97L570.77,135.81L571.22,136.1L571.81,136.1L572.21,136.63L573.01,136.67L573.32,137.27L573.21,137.92L574.2,138.28L574.09,138.81L573.34,139.42L573.94,139.73L573.45,140.11L573.71,140.76L574.55,140.61L574.79,140.29L575.32,140.35L576.37,139.87L576.87,139.5L577.66,139.73L577.58,141.46L577.86,141.9L578.64,140.74L578.8,140.27L579.97,140.21L580.7,140.7L580.93,141.18L580.86,141.69L582.07,142.58L581.91,143.11L581.01,143.98L579.92,144.1L579.6,144.76L580.48,145.03L580.68,144.81L582.15,144.13L582.97,143.97L583.66,144.31L584.14,144.29L584.39,145.3L585.36,146.08L585.25,146.77L585.74,147.12L586.8,146.52L587.16,146.77L587.67,147.89L587.6,148.61L587.91,149.73L587.95,150.48L587.25,150.56L586.99,150.91L586.02,150.97L584.34,151.5L583.46,151.67L583.22,152.43L582.27,152.62L581.94,153.45L582.26,154.07L581.63,154.5L581.03,154.66L579.97,155.53L578.5,155.96L577.83,155.93L577.51,155.66L576.36,155.32L574.79,155.02L574.52,155.18L573.25,154.61L572.65,154.66L572.18,154.33L571.22,154.46L570.89,154.16L569.94,153.85L569.14,153.33L569,153.79L568.4,154.23L567.66,154.46L567.65,154.69L568.36,155.1L568.91,154.85L569.8,154.96L569.84,155.65L570.28,155.66L570.92,155.95L572.36,156.3L572.59,156.95L572.92,157.15L573.66,156.89L575.13,157.62L576.41,158.02L576.53,158.35L575.07,159.49L573.97,160.68L574.53,160.76L575.24,159.55L576.07,159.41L576.54,159.76L576.9,159.47L577.35,160.26L577.27,161.58L576.5,163.23L576.17,163.32L575.68,164.53L576.21,164.43L576.69,163.61L577.91,163.44L578.27,163.69L578.89,162.97L579.58,162.76L580.11,163.17L580.92,162.68L580.53,161.96L580.62,161.65L580.34,160.95L580.57,160.36L581.17,160.45L581.77,160.29L582.33,161.13L582.51,161.9L582.44,162.29L582.7,162.89L582.61,163.84L583.09,163.54L582.82,163.08L582.8,161.79L583.45,161.6L584.46,161.85L584.92,162.52L584.89,163L585.96,162.43L586.41,163.2L586.53,164.08L587.03,165.03L586.85,165.23L587.07,166L586.91,167.75L586.36,168.34L585.94,168.52L584.51,168.26L583.48,168.29L582.65,167.09L581.22,165.75L580.47,165.26L579.97,165.49L580.37,165.87L580.76,167.46L580.7,168.37L580.24,168.81L580.21,169.91L579.54,170.97L578.83,171.42L578.12,170.99L577.57,171.56L577.03,171.73L576.68,172.52L575.76,173.36L575.09,173.29L574.07,173.54L573.5,173.9L573.37,174.85L573.65,175.22L573.52,176.54L573.05,177.96L572.53,179.14L572.19,179.46L571.64,180.37L571.18,180.15L570.02,179.03L569.58,178.19L569.79,176.79L569.8,175.6L572.95,171.63L573.93,169.72L572.56,165.93L572.27,164.66L570.46,163.82L566.31,161.75L565.69,160.99L565.83,160.24L564.32,159.31L562.88,157.09L562.65,155.21L561.34,155.57L560.92,155.87L560.41,155.58L559.85,155.61L559.35,156L559.12,156.85L558.35,156.93L557.71,157.62L557.1,157.89L557.25,158.49L555.91,159.03L555.64,159.38L555.15,159.54L554.49,158.85L553.85,159.05L553.57,158.37L553.06,158.39L552.63,158.69L552.13,158.28L550.48,158.85L550.36,159.33L549.99,159.75L550.04,160.24L549.77,160.91L548.66,161.78L548.68,162.22L548.21,162.75L547.64,163.75L546.67,164.1L545.78,165.4L546.28,165.78L546.46,166.65L546.22,167.37L545.35,168.1L545.65,168.59L545.08,170.75L545.38,171.68L545.12,172.46L544.52,173.45L544.57,174.17L544.23,175.17L544.13,176.24L544.51,177.57L544.34,178.1L544.36,178.92L544.6,179.42L544.78,180.46L544.39,180.96L544.28,181.52L543.81,182.87L543.27,183.41L542.89,183.33L542.4,182.91L540.88,183.91L540.44,184.35L539.59,185.58L539.45,186.37L539.32,187.96L539.39,188.9L538.41,189.51L537.79,189.56L537.66,190.79L537.31,190.64L536.67,188.96L535.25,187.95L532.78,187.17L532,186.53L531.55,186.35L531.59,185.51L530.91,185.74L530.17,184.67L529.25,184.45L528.46,184.84L528.09,186.42L527.62,187.43L525.72,187.73L523.49,189.16L522.48,187.79L520.48,187.83L518.84,186.93L518.32,186.55L517.03,187.14L516.74,184.67L515.53,182.58L515.38,181.71Z" class="land" id="NO-20" title="Finnmark"/>
    <path d="M404.54,291.48L403.99,291.72L403.57,291.62L403.86,291.24ZM407.59,291L408.44,290.94L409.19,291.47L409.24,291.81L408.31,292.54L407.07,293L406.49,293.27L406.05,293.14L405.65,293.31L404.71,293.47L403.79,294.18L402.55,294.12L402.06,293.69L401.93,293.03L402.81,292.03L403.29,291.82L404.06,291.92L404.83,291.55L404.26,291.18L404.3,290.8L406.51,290.2L406.41,290.73L406.72,290.86L406.78,290.16L407.65,290.04ZM408.59,290.61L408.41,290.74L407.78,290.7L408.08,289.85L408.66,289.88L409.2,290.1ZM410.92,290.08L410.73,289.75L411.09,289.44L411.23,289.93ZM405.98,289.38L405.4,289.42L404.35,289.69L403.29,289.88L402.86,289.53L402.44,289.84L401.76,289.9L401.84,289.5L404.05,288.97L404.55,288.61L404.97,288.05L405.12,287.66L405.63,287.17L406.22,287.31L406.19,288.03L406.32,288.19L406.3,289.15ZM424.14,288.38L424.44,287.31L424.66,287.42L425.28,287.22L424.68,288ZM415.16,282.81L415.41,283.5L415.05,283.71L414.8,283.52L414.59,282.93ZM415.85,282.86L415.4,282.75L415.28,282.39L415.72,282.06L416.24,282.64ZM427.59,273.3L427.27,273.28L426.8,272.98L426.89,272.5L427.11,272.36L426.95,271.9L427.19,271.71L427.53,272.36L428.12,272.86L427.92,273.2ZM425.26,271.81L426.09,272.2L426.31,272.62L426.2,273.27L426.45,273.48L426.87,273.21L427.62,273.58L427.43,274.27L426.5,274.54L426.38,273.91L425.43,273.95L425.09,273.35L425.07,272.95L425.59,272.43L424.85,272.56L424.23,272.26L424.25,271.62L424.74,271.25ZM426.68,270.55L426.92,271.1L426.64,272.28L426.22,271.99L426.17,271.62L425.34,271.5L425.33,270.97L425.78,270.73ZM424.87,266.75L424.85,266.57L425.9,266L426.1,266.49L426.46,266.52L425.93,267.31L425.18,267.9L424.69,267.94L424.49,267.41ZM425.33,265.46L425.71,265.87L424.91,266.21L424.75,266.52L424.04,266.8L423.01,267.52L422.8,267.33L423.79,266.29L424.56,265.87L424.98,265.3ZM422.27,266.69L421.98,266.35L422.5,265.96L422.88,266.01L423.65,265.48L424.44,265.11L424.63,265.37L424.37,265.88L423.32,266.47L423.21,266.82L422.6,267.33L421.98,267.32ZM428.42,263.84L428.19,263.58L428.29,262.98L428.69,262.52L429.28,262.33L430.01,262.41L430.23,262.71L429.31,263.34L428.9,263.82ZM434.26,313.87L433.76,313.94L433.27,314.16L432.73,313.57L432.05,313.31L430.36,313L429.91,313.53L429.68,313.54L429.48,312.93L428.54,313.13L428.06,312.39L427.99,311.98L427.62,311.32L427.05,310.95L426.39,310.36L426.04,310.28L425.97,309.71L425.6,309.61L425.55,309.18L425.33,308.84L425.3,308.21L425.07,307.97L424.48,307.91L423.45,307.39L422.34,307.68L421.9,308.23L421.71,307.84L421.12,307.66L420.58,307.92L419.18,307.53L418.4,307.39L417.5,307.54L417.07,307.5L416.58,308.59L416.5,308.98L416.11,309.24L416.04,309.76L416.42,311.17L416.59,312.12L415.42,312.69L415.29,313.4L414.98,313.58L414.52,313.29L414.39,313.59L414.51,314.14L414.18,314.6L413.58,314.67L412.57,315.12L411.83,314.71L411.58,314.44L410.38,313.96L409.06,313.51L408.09,313.06L408.88,312.66L409.28,311.79L409.17,311.57L409.48,310.46L409.52,310.08L409.24,309.46L408.92,309.5L408.59,309.07L408.53,308.58L408.06,308.4L407.72,307.92L407.44,307.95L406.9,307.02L407.64,306.55L408.28,306.33L408.66,306.34L410.61,305.63L411.02,305.36L411.4,304.72L411.33,303.88L411.14,303.3L411.19,302.81L411.61,302.14L412.39,301.76L411.8,301.63L411.6,301.18L411.21,301.11L411.24,300.21L411.43,299.4L411.46,298.74L410.75,298.47L410.6,298.04L410.14,298.42L409.57,298.18L408.86,298.8L409.29,299.48L408.47,299.62L407.96,299.28L407.34,299.42L406.68,299.76L406.11,299.57L406.23,299.18L405.67,298.76L405.69,298.54L406.26,298.37L406.48,297.96L406.15,297.29L406.53,296.54L406.56,295.96L406.79,295.59L406.58,295.37L406.27,295.31L406.06,295.27L406.01,294.66L405.64,294.22L406.2,294.13L406.77,294.41L407.15,294.21L407.36,294.56L407.86,294.44L407.44,293.94L407.88,293.79L408.43,293.88L408.38,294.12L408.78,294.3L408.93,294.72L408.62,295.88L408.83,296.14L409.33,295.74L409.85,295.59L409.13,294.5L409.22,294.1L410.66,293.78L410.36,293.62L409.56,293.77L409.09,293.54L409.05,293.14L409.45,292.48L410.27,292.29L410.64,291.81L411.17,292.23L411.43,291.65L412.17,291.52L411.99,291.12L412.59,290.54L413.79,290.08L413.74,290.53L413.91,291.11L414.5,292.05L414.29,292.5L414.64,292.76L414.77,293.09L415.29,293.62L415.69,293.83L415.39,295.11L415.1,295.54L414.37,296.08L414.63,296.2L415.61,295.53L416.23,295.56L416.47,295.97L416.73,295.95L417.19,296.25L417.54,296.05L417.72,295.65L417.24,295.68L416.81,295.53L416.31,294.89L416.55,294.39L417.37,293.72L418.33,293.65L418.83,294.06L419.23,293.95L419.54,293.61L420.11,294.13L420.78,293.89L422.12,294.1L422.75,294.03L423.17,293.74L423.12,293.23L422.48,293.36L421.98,292.71L422.25,292.1L423.17,292L422.8,291.48L423.3,291.31L423.31,290.71L422.62,291.22L421.32,292.07L421.34,291.35L421.73,290.66L422.2,290.36L422.73,290.29L423.05,289.72L423.64,289.14L424.4,289.23L424.95,289.01L425.56,288.93L425.73,288.74L425.74,288.11L426.69,287.9L427.17,287.69L427.47,287.91L427.72,287.32L427.59,286.74L426.56,286.57L427.09,285.81L426.87,285.58L427.08,284.82L426.82,284.75L426.63,285.15L426.69,285.58L426.21,286.11L425.88,286.03L425.45,286.49L424.74,286.59L424.58,286.27L424.62,285.71L425.06,285.33L425.39,285.32L426.25,284.18L426.68,284.2L427.46,283.95L427.84,283.57L427.5,283.05L426.38,282.92L425.92,283.03L425.36,283.75L424.86,283.92L424.24,284.37L423.4,285.37L422.87,285.77L421.41,286.52L421.54,286.66L422.5,286.31L423.35,285.59L423.82,285.62L424.4,285.84L424.59,286.55L424.02,287.08L424.12,287.28L423.58,288.39L422.62,288.9L422.08,289.04L420.94,289.72L420.49,290.49L420.19,290.59L419.27,291.35L418.68,291.53L418.35,291.82L417.78,291.81L417.52,292.14L416.7,292.88L416.27,292.96L415.45,292.85L415.3,292.72L415.02,291.44L414.67,291.2L414.26,290.45L414.45,290.1L414.24,289.87L414.35,289.43L415.36,288.99L415.99,288.61L416.11,288L415.33,288.15L414.65,288.77L413.73,289.2L413.21,289.1L413.11,289.62L412.7,289.6L412.3,288.9L412.45,288.61L414.26,287.97L413.9,287.87L413.54,288L412.65,288.09L412.25,287.85L412.67,287.29L412.95,287.16L412.89,286.77L413.86,286.08L414.32,286.09L414.76,285.68L415.21,285.51L415.35,285.95L416.16,285.26L416.74,285.05L416.22,284.72L416.78,284.28L416.05,284.3L415.82,283.96L415.86,283.27L416.39,282.8L416.16,282.45L416.08,281.75L416.49,281.66L416.95,282.07L417.26,282.04L417.43,281.71L417,281.55L416.81,281.24L417.32,280.7L417.68,280.84L417.44,279.81L418.38,279.73L418.09,279.24L418.47,278.98L418.59,278.58L419.15,278.06L419.52,277.98L419.52,277.09L420.05,276.75L420.49,276.64L420.4,276.04L419.9,276.15L419.53,275.95L420.16,275.33L420.85,275.95L420.94,275.75L420.39,275.43L420.91,275.12L421.53,275.79L421.97,275.83L422.04,276.49L422.43,276.67L422.55,276.27L422.43,275.41L421.57,275.61L421.21,275.26L421.52,274.6L422.06,274.9L422.53,274.73L422.29,273.98L422.81,274.16L423.44,273.96L423.79,273.46L423.23,272.74L423.63,272.21L423.82,272.18L424.43,272.73L424.79,273.68L425.51,274.5L425.56,275.23L426,275.14L426.76,275.37L426.56,276.23L426.26,276.53L426.11,277.19L427.14,275.98L426.97,275.68L427.3,275.17L427.85,275.31L428.36,275.04L427.92,274.77L427.55,274.97L427.77,273.82L428.15,273.88L428.25,273.02L428.71,273.18L429.76,272.64L429.05,272.54L429.13,272L428.71,272.1L428.89,272.55L428.33,272.91L427.58,272.19L427.07,270.93L427.55,270.48L427.49,270.18L428.24,269.79L428.34,269.35L428.69,269.02L429.5,269.04L429.82,268.71L430.2,268.57L429.35,268.14L429.48,267.28L431.85,265.85L432.31,265.97L432.96,265.46L433.68,265.74L433.84,265.92L434.52,265.89L433.45,265.26L433.13,265.18L432.39,265.37L432.26,265.66L431.77,265.6L429.26,267.29L429.15,267.79L427.8,268.47L427.76,268.71L427.19,269.36L426.02,269.84L425.75,269.44L426.85,269.13L427.01,268.38L426.01,267.96L426.36,267.42L426.26,267.15L427.21,266.2L428.14,265.53L429.3,265.16L429.55,265.43L429.92,265.48L430.18,264.9L429.07,265.01L429.02,264.62L429.85,264.3L430.06,264.55L430.55,264.39L431.63,263.51L432.25,263.41L432.53,263.52L432.42,264.03L432.88,264.57L433.41,264.13L433.67,264.98L433.8,265.13L434.31,265.18L434.46,265.4L435.4,264.8L435.99,264.86L436.38,265.04L436.92,264.95L436.93,265.27L437.2,265.76L437.83,265.61L438.32,265.8L438.55,265.61L438.6,265.11L439.57,265.11L439.82,264.61L439.62,264.23L440.07,263.97L440.21,263.33L440.82,263.14L441.1,262.48L441.64,262.39L442.57,262.62L443.67,262.72L444.61,262.38L445.39,262.51L446.83,262.47L447.89,262.31L448.48,262.09L449.17,262.21L449.87,261.91L451.18,262.34L448.73,266.61L446.19,271.39L445.7,272.68L447.59,274.04L449.22,274.62L449.45,274.91L449.8,279.97L448.25,283.43L446.05,282.71L442.08,281.84L439.75,282.53L437.75,284.1L436.34,286.57L434.88,288.88L434.62,289.68L434.09,290.38L433.4,291.13L433.9,293.25L432.85,295.49L431.96,297.06L433.96,301.92L432.79,303.67L433.28,306.44L432.62,308.89ZM430.12,264.07L430.11,263.83L431.03,262.36L432.04,261.51L432.41,261.55L432.27,262.37L431.53,262.73L431.57,263.28L430.92,263.89L430.19,264.39Z" class="land" id="NO-23" title="Trøndelag"/>
  </g>
</svg>