<?xml version="1.0" encoding="UTF-8"?>
<svg xmlns="http://www.w3.org/2000/svg" width="485.3" height="235.05" viewBox="237.35 139.48 485.3 235.05" style="background-color:#000000">
  <!-- Created using SVG Map Generator: dojo.amcharts.com/svg-map-generator -->
  <style>
    .land { fill: #ffffff; stroke: #000000; stroke-width: 0.65; }
  </style>
  <g id="polygons">
    <path d="M240.92,208.42L242,209.09L242.5,210.3L241.7,212.06L240.02,211.91L240,209.3ZM301.78,218.99L302.57,219.4L303.34,220.92L301.67,220.81L300.99,219.62ZM316.55,226.21L317.66,226.27L320.31,227.25L320.02,230.13L318.25,229.86L316.19,229.91L314.77,229.07L314.23,227.59L314.56,226.75ZM296.28,227.37L302.51,229.78L306.6,232.05L305.62,232.82L303.44,231.45L301.88,231.16L298.69,229.55ZM288.68,230.12L290.89,231.34L290.4,233.08L288.45,233.2L287.78,232.11L286.73,231.65ZM294.41,232.14L297.69,233.66L298.68,234.56L301.26,235.04L300.55,236.09L298.95,235.86L297.75,236.52L297.13,235.78L293.83,235.59L292.45,234.81L292.11,232.81L293.22,232.16ZM351.41,250.08L353.5,249.41L356.09,249.27L356.95,249.49L357.23,250.53L356.93,251.72L355.64,252.24L354.68,252.02L352.76,252.8L350.57,252.68L350.04,252.98L348.95,252.08L347.97,251.92L346.67,252.34L343.71,250.03L343.44,249.27L344.84,248.03L346.04,248.59L346.53,249.63L348.58,250.38L350.46,249.56ZM358.11,269.6L359.51,270.96L356.5,271.16L356.54,269.9Z" class="land" id="PT-20" title="Azores"/>
    <path d="M509.82,366.51L510.6,367.45L512,367.88L513.19,367.38L514.83,367.22L516.39,368.8L517.86,369.56L517.33,370.56L515.87,371.8L514.02,371.87L512.67,371.44L508.92,369.51L507.9,367.73L509.17,366.51Z" class="land" id="PT-30" title="Madeira"/>
    <path d="M672.98,170.96L674.66,170.98L676.02,170.03L677.99,170.79L679.69,169.34L680.27,169.7L680.83,171.07L682.77,171.91L682.88,173.95L680.79,175.79L680.1,177.53L678.96,177.96L679.64,179.14L679.42,181.58L679.87,183.02L680.54,183.73L678.9,184.36L679.24,185.49L678.53,186.3L678.5,187.35L678.14,188L676.04,188.65L676.11,186.88L675.66,185.96L674.36,186.52L674.32,184.89L673.55,184.37L672.64,185.81L670.31,183.5L670.93,180.93L670.71,180.39L672.27,175.16Z" class="land" id="PT-01" title="Aveiro"/>
    <path d="M682.18,238.05L684.27,237.84L685.68,238.09L688.41,239.71L689.94,239.84L691.65,240.96L694.94,241.25L696.87,238.77L698.97,237.77L699.8,239.43L700.66,240.38L701.42,241.95L702.41,241.26L702.86,241.72L704.26,240.86L705.74,240.92L704.71,243.36L704.43,245.29L703.58,245.49L702.58,244.77L702.16,245.72L700.6,245.75L699.45,246.32L699.59,247.71L698.26,250.31L696.4,251.68L695.98,253.97L694.83,255.41L694.66,257.31L693.48,257.24L692.63,258.14L691.54,257.8L689.86,258.45L687.09,260.25L685.67,260.19L684.07,262.31L681.72,261.76L680.01,259.75L679.2,259.43L677.32,259.89L676.69,260.92L675.46,260.87L674.41,260.09L671.28,260.47L670.97,259.59L670.08,259.32L670.28,257.15L669.63,255.55L670.27,252.77L669.77,251.93L670.14,250.21L671.24,250.33L672.24,251.82L674.08,251.74L674.15,250.7L675.03,249.39L677,248.97L678.99,249.55L679.7,246L678.36,245.3L677.48,244.07L678.52,242.47L679.75,242.45L679.88,241.3L682.84,240.38L682.84,239.35Z" class="land" id="PT-02" title="Beja"/>
    <path d="M684.34,150.45L683.64,153.19L685.53,153.9L685.38,155.99L688.95,156.76L688.45,157.7L686.51,159.2L686.45,160.41L685.82,161.82L684.73,163.26L682.52,162.2L682.15,161.18L681.24,160.89L679.27,162.43L676.6,161.81L675.4,162.58L673.63,162.69L672.88,160.69L670.48,159.37L669.82,155.77L670.83,155.71L673.01,154.68L673.76,155.2L675.34,154.04L675.4,152.85L677.2,152.04L680.12,151.69L682.17,150.48Z" class="land" id="PT-03" title="Braga"/>
    <path d="M705.79,170.62L703.64,170.25L702.53,169.33L702.87,168.17L702.28,167.54L701.33,168.17L699.7,167.69L698.64,167.83L697.63,167.61L697,166.41L696.2,166.01L696.98,164.1L697.54,163.64L697.72,161.79L697.48,160.16L698.76,159.54L699.04,158.24L700.09,158.05L699.52,156.3L700.48,153.21L701.18,152.37L700.45,150.59L700.63,148.91L701.15,147.89L700.92,146.52L701.77,146.04L703.1,147.1L707.89,147.19L708.9,146.21L709.71,147.42L713.1,147.23L712.68,148.8L713.75,149.11L712.97,152.55L713.25,154.02L714.05,154.62L715.11,153.91L717.83,154.5L720,156.72L717.78,159.92L716.87,161.75L715.67,162.52L715.24,163.61L713.61,164.36L712.68,165.3L711.21,165.08L710.04,166.99L708.92,167.95L709.18,168.73L708.13,170.44Z" class="land" id="PT-04" title="Bragança"/>
    <path d="M689.49,190.8L691.91,189.7L692.63,189.05L694.19,188.59L694.61,187.31L695.63,186.48L696.92,187.01L698.2,186.25L699.3,186.32L699.23,187.84L698.36,189.52L699.87,190.08L700.4,189.39L701.38,189.83L702.33,188.42L702.87,189.57L704.2,189.28L705.4,190.1L704.23,190.91L703.9,191.89L704.61,193.74L705.6,193.74L707.08,196.25L706.26,198.46L706.32,199.78L704.72,201.3L704.92,202.23L704.18,204.77L701.57,205.2L699.66,204.86L698.08,205.51L695.75,204.97L694.1,204.94L692.27,205.96L691,205.61L690.64,206.69L688.67,208.08L688.96,207.25L687.92,205.57L686.96,204.82L686.14,205L685.9,202.9L684.28,203.15L684.27,206.09L682.75,206.24L680.8,205.4L680.94,202.71L679.87,201.67L679.72,201.33L680.05,200.49L682.47,199.42L683.05,198.2L684.69,197.53L687.93,195.1L689.67,194.95L690.37,193.44L688.98,192Z" class="land" id="PT-05" title="Castelo Branco"/>
    <path d="M670.31,183.5L672.64,185.81L673.55,184.37L674.32,184.89L674.36,186.52L675.66,185.96L676.11,186.88L676.04,188.65L678.14,188L678.5,187.35L679.59,187.58L680.52,188.45L681.63,187.95L682.76,188.21L684.51,186.89L685.82,186.39L687.54,184.68L688.61,184.05L689.21,185.08L689.07,188.85L688.66,189.9L689.49,190.8L688.98,192L690.37,193.44L689.67,194.95L687.93,195.1L684.69,197.53L683.05,198.2L683.22,197.27L682.34,196L682.57,194.73L680.04,195.42L679.32,196.84L678.05,197.67L677.17,195.89L675.33,196.94L674.57,195.85L673.55,196.75L672.39,195.8L670.65,195.53L670,196.24L668.21,195.45L668.82,193.11L667.91,191.86L669.15,188.27Z" class="land" id="PT-06" title="Coimbra"/>
    <path d="M680.96,221.68L682.41,220.71L683.98,220.98L685.57,222.74L686.77,221.99L687.7,223.63L689.35,223.93L690.44,222.87L692.26,223.55L692.9,222.51L693.66,222.54L694.66,221.71L695.8,222.25L695.55,223.19L696.38,223.74L696.97,226.25L698.19,226.19L699.78,225.11L700.5,225.53L700.02,226.71L700.57,227.48L699.5,228.17L699.26,230.26L699.81,230.61L698.45,233.3L698.4,235.1L701.22,239.04L701.59,239.12L702.41,241.26L701.42,241.95L700.66,240.38L699.8,239.43L698.97,237.77L696.87,238.77L694.94,241.25L691.65,240.96L689.94,239.84L688.41,239.71L685.68,238.09L684.27,237.84L682.18,238.05L681.54,237.49L679.15,236.77L679.89,235.79L678.26,232.53L676.21,233.23L674.31,232.47L673.09,232.43L672.81,230.89L675.73,228.36L675.92,227.24L674.86,227.19L675.74,226.11L678.1,224.9L679.56,224.62L681.06,225.56L682.29,224.66L680.11,223.65Z" class="land" id="PT-07" title="Évora"/>
    <path d="M670.08,259.32L670.97,259.59L671.28,260.47L674.41,260.09L675.46,260.87L676.69,260.92L677.32,259.89L679.2,259.43L680.01,259.75L681.72,261.76L684.07,262.31L685.67,260.19L687.09,260.25L689.86,258.45L691.54,257.8L692.63,258.14L693.48,257.24L694.66,257.31L695.05,257.41L695.94,259.89L696.01,262.49L696.4,263.4L696.67,265.85L695.68,265.71L693.74,266.33L689.27,269.61L688.65,269.31L687.54,270.42L686.46,269.73L685.65,269.89L683.2,268.29L681.82,267.8L679.62,268.24L678.32,267.54L676.96,267.93L675.07,267.15L673.52,267.02L670.23,268.47L668.2,268.96L667.17,270.13L666.24,269.43L668.03,266L668.85,263.51L668.51,262.26L669.15,261.51Z" class="land" id="PT-08" title="Faro"/>
    <path d="M698.64,167.83L699.7,167.69L701.33,168.17L702.28,167.54L702.87,168.17L702.53,169.33L703.64,170.25L705.79,170.62L707.17,172.65L707.36,173.84L708.13,174.35L707.79,175.42L707.71,177.63L708.42,179.94L707.43,182.35L708.29,182.74L708.39,183.72L707.35,185.23L707.64,186.33L708.67,187.41L708.42,188.32L707.13,189.05L706.95,189.98L705.4,190.1L704.2,189.28L702.87,189.57L702.33,188.42L701.38,189.83L700.4,189.39L699.87,190.08L698.36,189.52L699.23,187.84L699.3,186.32L698.2,186.25L696.92,187.01L695.63,186.48L694.61,187.31L694.19,188.59L692.63,189.05L691.91,189.7L689.49,190.8L688.66,189.9L689.07,188.85L689.21,185.08L688.61,184.05L693.19,181.85L694.23,179.21L693.16,178.62L693.54,177.72L692.45,176.91L693.25,175.11L694.63,174.68L695.79,176.12L698.24,172.08L697.85,170.19Z" class="land" id="PT-09" title="Guarda"/>
    <path d="M666.28,214.04L665.42,213.71L664.1,214.55L663.44,215.71L662.3,215.25L662.34,213.9L660.49,214.37L659.64,214.16L659.18,212.75L661.81,210.59L662.89,208.98L664.72,206.82L664.52,206.42L665.21,203.53L668.21,195.45L670,196.24L670.65,195.53L672.39,195.8L673.55,196.75L674.57,195.85L675.33,196.94L677.17,195.89L678.05,197.67L679.32,196.84L680.04,195.42L682.57,194.73L682.34,196L683.22,197.27L683.05,198.2L682.47,199.42L680.05,200.49L679.72,201.33L679.87,201.67L677.59,202.53L676.66,203.26L676.19,200.59L673.98,202.12L672.38,202.19L672.32,203.81L672.89,205.02L671.88,205.57L672.48,207.43L671.36,209.5L669.96,209.43L668.03,209.85L667.22,211.71L666.35,212.06Z" class="land" id="PT-10" title="Leiria"/>
    <path d="M659.64,214.16L660.49,214.37L662.34,213.9L662.3,215.25L663.44,215.71L664.1,214.55L665.42,213.71L666.28,214.04L666.89,215.06L669.38,215.86L669.5,216.78L667.84,217.13L668.71,218.2L670.04,218.99L670.35,219.93L669.21,220.95L668.26,222.74L667.87,224.12L666.77,225.64L666.59,224.63L665.79,224.11L664.55,225.79L664.2,227.94L663.4,228.62L662.04,228.96L660.8,228.78L659.98,229.4L658.67,228.7L656.87,228.54L657.14,227.52L656.59,226.76L658.17,222.78L658.1,219.53L659.56,216.35Z" class="land" id="PT-11" title="Lisboa"/>
    <path d="M700.57,227.48L700.02,226.71L700.5,225.53L699.78,225.11L698.19,226.19L696.97,226.25L696.38,223.74L695.55,223.19L695.8,222.25L694.66,221.71L693.66,222.54L692.9,222.51L692.26,223.55L690.44,222.87L689.35,223.93L687.7,223.63L686.77,221.99L685.57,222.74L683.98,220.98L682.41,220.71L680.96,221.68L679.76,219.39L678.75,218.66L679.61,217.35L680.76,216.9L682.43,215.2L682.73,214.3L683.82,214.51L684.82,212.93L686.48,211.24L685.15,209.67L686.18,207.4L688.17,208.74L688.67,208.08L690.64,206.69L691,205.61L692.27,205.96L694.1,204.94L694.91,206.78L697.16,209.22L698.84,210.08L698.29,211.95L698.59,213.07L700.04,214.5L699.85,216.23L701.89,217.15L701.72,218.69L702.46,218.92L703.85,218.48L704.84,219.2L705.41,220.79L703.47,223.66L703.84,224.35L702.63,225.9L701.79,226.14Z" class="land" id="PT-12" title="Portalegre"/>
    <path d="M670.48,159.37L672.88,160.69L673.63,162.69L675.4,162.58L676.6,161.81L679.27,162.43L681.24,160.89L682.15,161.18L682.52,162.2L684.73,163.26L685.82,161.82L686.01,162.99L687.09,163.67L687.71,165.22L687.01,168.33L686.25,168.25L684.31,169.09L681.41,168.98L680.27,169.7L679.69,169.34L677.99,170.79L676.02,170.03L674.66,170.98L672.98,170.96L672.53,167.83L671.59,166.19L671.17,162.92L670.26,160.81Z" class="land" id="PT-13" title="Porto"/>
    <path d="M666.28,214.04L666.35,212.06L667.22,211.71L668.03,209.85L669.96,209.43L671.36,209.5L672.48,207.43L671.88,205.57L672.89,205.02L672.32,203.81L672.38,202.19L673.98,202.12L676.19,200.59L676.66,203.26L677.59,202.53L679.87,201.67L680.94,202.71L680.8,205.4L682.75,206.24L684.27,206.09L684.28,203.15L685.9,202.9L686.14,205L686.96,204.82L687.92,205.57L688.96,207.25L688.67,208.08L688.17,208.74L686.18,207.4L685.15,209.67L686.48,211.24L684.82,212.93L683.82,214.51L682.73,214.3L682.43,215.2L680.76,216.9L679.61,217.35L678.75,218.66L679.76,219.39L680.96,221.68L680.11,223.65L682.29,224.66L681.06,225.56L679.56,224.62L678.1,224.9L675.74,226.11L674.86,227.19L673.59,226.7L671.77,225.17L670.9,227.69L669.26,227.23L667.95,227.85L667.59,227.27L666.77,225.64L667.87,224.12L668.26,222.74L669.21,220.95L670.35,219.93L670.04,218.99L668.71,218.2L667.84,217.13L669.5,216.78L669.38,215.86L666.89,215.06Z" class="land" id="PT-14" title="Santarém"/>
    <path d="M667.59,227.27L667.95,227.85L669.26,227.23L670.9,227.69L671.77,225.17L673.59,226.7L674.86,227.19L675.92,227.24L675.73,228.36L672.81,230.89L673.09,232.43L674.31,232.47L676.21,233.23L678.26,232.53L679.89,235.79L679.15,236.77L681.54,237.49L682.18,238.05L682.84,239.35L682.84,240.38L679.88,241.3L679.75,242.45L678.52,242.47L677.48,244.07L678.36,245.3L679.7,246L678.99,249.55L677,248.97L675.03,249.39L674.15,250.7L674.08,251.74L672.24,251.82L671.24,250.33L670.14,250.21L669.85,247.59L668.32,247L669.28,245.32L670.23,242.28L670.49,240.01L670.3,237.61L669.51,235.56L671.5,235.08L670.86,233.97L670.11,233.99L668.12,233.15L664.95,235.24L664.11,235.04L661.91,235.75L662.7,233.51L662.13,231.07L661.14,229.66L663.38,229.03L664.42,229.74L665.99,229.16L665.32,228.36Z" class="land" id="PT-15" title="Setúbal"/>
    <path d="M682.17,150.48L680.12,151.69L677.2,152.04L675.4,152.85L675.34,154.04L673.76,155.2L673.01,154.68L670.83,155.71L669.82,155.77L668.47,152.24L668.61,149.15L669.65,148.09L670.84,147.53L671.08,146.68L672.65,145.74L673.15,144.57L674.87,144.41L675.37,143.75L677.11,143.94L678.97,143.64L679.25,143.11L681.66,142.13L681.84,144.13L683.05,143.68L683.74,145.07L682.2,146.25L681.17,148.03L682.08,148.98Z" class="land" id="PT-16" title="Viana do Castelo"/>
    <path d="M700.63,148.91L700.45,150.59L701.18,152.37L700.48,153.21L699.52,156.3L700.09,158.05L699.04,158.24L698.76,159.54L697.48,160.16L697.72,161.79L697.54,163.64L696.98,164.1L696.2,166.01L693.98,166.58L693.17,167.4L691.75,167.24L691.11,167.78L689.21,167.26L687.74,167.38L687.01,168.33L687.71,165.22L687.09,163.67L686.01,162.99L685.82,161.82L686.45,160.41L686.51,159.2L688.45,157.7L688.95,156.76L685.38,155.99L685.53,153.9L683.64,153.19L684.34,150.45L685.81,149.01L687.39,149.42L689.85,148.4L691.05,148.18L691.95,148.86L693.25,148.84L692.77,150.2L695.81,149.28L696.32,150.17L697.47,149.59L698.44,149.86Z" class="land" id="PT-17" title="Vila Real"/>
    <path d="M696.2,166.01L697,166.41L697.63,167.61L698.64,167.83L697.85,170.19L698.24,172.08L695.79,176.12L694.63,174.68L693.25,175.11L692.45,176.91L693.54,177.72L693.16,178.62L694.23,179.21L693.19,181.85L688.61,184.05L687.54,184.68L685.82,186.39L684.51,186.89L682.76,188.21L681.63,187.95L680.52,188.45L679.59,187.58L678.5,187.35L678.53,186.3L679.24,185.49L678.9,184.36L680.54,183.73L679.87,183.02L679.42,181.58L679.64,179.14L678.96,177.96L680.1,177.53L680.79,175.79L682.88,173.95L682.77,171.91L680.83,171.07L680.27,169.7L681.41,168.98L684.31,169.09L686.25,168.25L687.01,168.33L687.74,167.38L689.21,167.26L691.11,167.78L691.75,167.24L693.17,167.4L693.98,166.58Z" class="land" id="PT-18" title="Viseu"/>
  </g>
</svg>