<?xml version="1.0" encoding="UTF-8"?>
<svg xmlns="http://www.w3.org/2000/svg" width="367.98" height="262.11" viewBox="296.01 125.94 367.98 262.11" style="background-color:#000000">
  <!-- Created using SVG Map Generator: dojo.amcharts.com/svg-map-generator -->
  <style>
    .land { fill: #ffffff; stroke: #000000; stroke-width: 0.65; }
  </style>
  <g id="polygons">
    <path d="M396.68,224.84L397.46,225.83L399.43,226.36L401.29,225.39L404.53,225.59L405.3,226.57L405.79,229.92L407.68,230.22L408.25,228.91L411.15,227.88L411.35,228.67L413.24,229.03L415.4,227.5L417.05,226.95L418.91,225.72L420.44,226.43L422.78,228.89L424.62,229.44L426.17,228.64L427.72,229.59L426.61,231.4L426.4,232.9L428.57,233.97L429.17,232.46L430.93,230.89L432.01,231.11L433.56,230.5L435.97,230.48L436.24,231.37L440.53,231.08L441.16,230.75L441.6,232.04L443.44,232.71L442.55,234.77L443.38,236.19L445.72,237.65L447.74,237.66L448.25,239.72L450.28,240.79L452.4,242.67L450.15,244.02L449.84,246.08L450.75,247.45L448.38,248.65L447.03,248.75L444.01,253.23L444.27,254.37L442.74,255.3L440.5,253.91L438.44,253.75L436.82,255.53L437.56,256.76L437.45,258.27L436.34,258.94L435.51,260.33L434.5,260.15L432.69,261.08L432.16,266.06L431.04,265.83L429.35,266.58L428.39,268.09L429.25,268.51L428.7,270.85L427.16,271.47L426.85,274.28L428.3,275.13L429.06,276.25L427.68,280.3L428.67,281.18L429.23,282.72L429.47,285.35L428.42,285.67L427.03,285.44L426.98,284.27L426.12,282.43L424.64,281L423.8,281.06L423.37,279.54L420.46,278.95L420.52,276.88L418.93,276.06L420.21,274.21L418.03,272.14L418.81,269.79L417.6,268.52L416.55,264.25L416.9,262.54L415.9,260.78L414.32,259.84L413.05,256.19L412.31,255.36L409.59,253.59L407.47,253.08L407.52,250.69L406.89,249.76L407.7,245.95L406.09,244.46L404.06,244.38L402.04,241.4L402.58,240.33L400.77,237.75L396.8,238.13L395.56,236.75L394.59,236.65L392.58,236.05L391.95,234.86L391.41,232.29L392.24,231.06L391.49,229.28L391.62,227.17L392.85,226.04L392.36,224.46L394.2,223.12Z" class="land" id="RO-AB" title="Alba"/>
    <path d="M469.09,278.15L474.54,277.91L474.94,278.75L479.57,278.62L481.38,279.07L485.05,279.3L488.51,282.5L490.06,282.86L490.27,285.05L491.1,287.41L492.8,287.94L493.48,290.27L493.64,291.71L493.09,292.71L492.83,295.15L491.85,296.38L492.32,298.33L490.9,299.28L490.71,301.3L488.75,301.16L487.03,298.4L486.27,299.21L487.1,300.49L486.65,303.27L487.85,305.38L487.34,306.93L485.99,307.76L486.69,308.9L488.37,309.51L488.78,310.82L487.86,311.83L487.49,313.94L488.67,318.7L488.83,322.05L488.45,325.48L488.02,326.44L489.8,327.45L488.51,329.4L488.9,330.99L488.59,332.06L489.77,332.98L491.45,335.09L491.65,336.91L491.03,337.49L491.8,339.31L491.08,341.47L489.3,341.14L488.29,341.34L482.82,343.69L480.93,343.39L479.6,344.71L476.72,344.59L475.53,345.02L473.8,344.74L471.62,344.28L470.65,341.43L470.92,340.29L470.38,338.49L470.87,337.31L470.17,333.87L470.67,332.4L469.01,327.71L469.78,325.55L466.59,325.69L465.4,324.43L465.2,322.09L463.88,320.09L463.51,316.9L462.77,316.85L461.53,320.63L459.08,320.82L459.1,319.3L460.88,316.69L460.49,315.87L461.32,313.87L461.21,312.34L462.31,308.45L461.41,307.72L462.17,306.51L462.6,303.75L461.87,302.61L462.6,301.2L460.57,298.52L461.68,295.67L461.21,291.49L459.96,288.65L460.04,284.99L460.67,282.92L461.73,281.07L461.41,279.73L462.02,279.11L464.36,279.43L466.34,278.26L468.49,278.54Z" class="land" id="RO-AG" title="Argeş"/>
    <path d="M344.11,219.74L346.68,219.6L347.88,221.17L349.1,219.97L350.51,220.27L351.93,219.13L357.09,219.61L360.12,218.97L360.85,218.2L362.14,219.26L361.05,220.92L363.79,221.77L365.51,221.28L366.47,219.63L367.7,221.21L371.78,222.4L372.5,226.57L373.71,228.67L375.6,229.25L377.59,229.22L379.72,229.69L379.95,231.76L382.57,234.14L384.93,234.74L385.07,233.81L391.95,234.86L392.58,236.05L394.59,236.65L393.32,237.82L391.65,238.39L391.79,239.6L390.94,241.39L390.83,243.39L385.24,244.04L383.52,243.51L382.43,244.53L383.04,246.36L384.4,247.22L384.08,248.17L382.39,249.55L382.11,251.26L382.54,254.63L382.25,255.61L380.73,255.6L378.94,256.26L378.7,257.3L379.63,258.52L381.3,258.52L382.19,259.2L381.3,260.64L378.96,259.22L378.82,257.7L377.85,257.69L377.17,259.85L375.85,259.24L374.69,259.62L373.86,260.83L370.47,259.65L368.19,258.45L365.73,257.65L364.29,256.42L362.85,256.87L361.39,258.83L360.53,258.21L358.92,258.37L358.12,259.78L355.41,259.04L352.75,260.27L350.77,257.13L347.19,255.53L347.34,253.78L346.82,252.49L345.77,252.55L343.77,254.88L341.02,256.5L338.46,255.8L337.19,256.13L336.55,257.83L334.36,256.91L332.7,255.43L331.26,257.33L330.28,256.2L329.68,253.96L328.02,254.49L326.38,253.71L324.82,254.04L322.65,251.53L320.6,251.23L318.54,249.28L318.23,248.25L316.52,248.24L315.37,247.32L316.04,246.93L316.64,244.58L317.81,244.72L317.46,242.35L319,240.95L322.14,240.15L323.82,241.54L326.73,241.7L327.91,241.3L329.46,242.56L330.96,241.52L331.42,239.41L333.69,239.48L333.84,237.5L334.72,236.7L334.97,233.74L335.62,233.1L338,233.61L339.22,230.95L337.08,228.21L337.65,226.37L339.37,223.68L338.7,223.19L339.64,221.05L341.18,220.58L342.84,221.41Z" class="land" id="RO-AR" title="Arad"/>
    <path d="M518.77,217.62L519.57,216.93L522.31,216.81L522.61,219.43L523.47,219.97L525,219.33L525.59,220.3L526.96,219.66L528.67,217.55L530.43,218.01L530.97,219.57L533.45,220.25L536.3,218.22L538.39,218.16L539.95,217.47L541.16,218.83L542.77,216.92L545.43,215.27L545.88,213.26L548.99,213.96L549.55,215.46L551.17,214.6L551.1,213.49L552.23,212.69L553.11,209.74L554.51,209.92L554.81,211.81L555.65,212.3L556.07,213.92L559.16,213.09L560.47,213.74L561.99,213.14L562.6,214.33L564.31,214.97L565.61,213.7L566.72,214.74L569.68,216.54L570.2,219.77L568.71,221.35L570.73,223.53L571.22,225.02L572.81,227.63L574.05,231L574.31,232.49L575.39,233.86L575.51,235.48L576.44,237.88L575.93,239.99L576.82,245.09L577.61,245.65L576.59,248L575.31,245.82L573.14,245.51L572.7,247.29L570.53,246.58L570.22,244.89L568.74,245.23L567.44,246.4L566.33,245.67L562.8,248.02L563.73,248.84L563.34,250.4L561.46,249.73L561.17,251.31L557.73,249.78L555.52,252.55L553.21,251.47L551.1,252.26L548.21,251.31L546.52,251.12L544.78,251.81L543.97,252.9L542.14,253.93L541.37,254.87L539.38,254.7L538.57,253.9L536.45,253.74L535.92,250.77L534.33,250.81L532.61,249.43L532.9,247.42L532.33,246.29L532.7,244.97L531.97,243.12L529.64,242.43L529.33,241.01L530.4,239.58L530.79,237.86L528.91,237.53L527.64,238.77L525.58,238.8L526.01,235.59L526.74,233.74L521.97,233.5L519.85,232.62L520.14,230.07L522.35,227.85L521.99,226.35L519.46,222.49L519.92,220.49L519.62,218.77Z" class="land" id="RO-BC" title="Bacău"/>
    <path d="M372.76,165.52L374.21,166.21L374.5,167.45L376.74,169.55L376.73,171.42L379.04,172.49L378.8,174.41L379.4,175.95L381.26,175.59L382.2,176.37L383.86,175.46L385.52,176.17L385.6,177.21L387.18,177.72L387.54,179.08L388.95,180.48L389.11,181.27L386.83,182.43L386.41,186.93L385.19,188.06L384.99,190.51L385.95,190.55L386.22,192.18L387.69,195.8L388.94,195.5L389.93,197.14L393.28,197.83L393.42,199.87L391.78,201.94L391.78,203.64L395.58,206.19L393.7,209.64L393.45,210.67L391.33,211.49L390.85,212.81L393.01,213.85L392.82,214.88L393.8,216.03L394.34,217.68L394.29,219.4L396.6,221.04L397.1,222.67L396.68,224.84L394.2,223.12L392.36,224.46L392.85,226.04L391.62,227.17L391.49,229.28L392.24,231.06L391.41,232.29L391.95,234.86L385.07,233.81L384.93,234.74L382.57,234.14L379.95,231.76L379.72,229.69L377.59,229.22L375.6,229.25L373.71,228.67L372.5,226.57L371.78,222.4L367.7,221.21L366.47,219.63L365.51,221.28L363.79,221.77L361.05,220.92L362.14,219.26L360.85,218.2L360.12,218.97L357.09,219.61L351.93,219.13L350.51,220.27L349.1,219.97L347.88,221.17L346.68,219.6L344.11,219.74L343.59,217.81L345.22,217.34L346.02,217.87L347.38,215.94L347.31,214.88L345.99,213.81L347.19,210.93L347.11,209.34L350.18,207.81L350.33,203.99L351.58,203.91L353.24,201.91L353.27,197.56L354.54,195.95L354.97,194.59L357.42,193.83L358.48,190.43L360.07,189.51L359.8,186.71L361.2,184.65L361.53,182.28L363.2,178.98L365.9,178.79L366.85,175.88L365.81,173.13L366.33,170.85L367.61,169.1L369.03,168.51L370.49,166.72L372.12,166.53Z" class="land" id="RO-BH" title="Bihor"/>
    <path d="M443.43,179.73L444.84,178.7L446.71,176.02L447.34,174.31L446.93,173.55L447.5,171.84L450.22,171.44L451.91,171.85L453.27,170.32L454.23,167.57L456.31,167.75L457.44,165.84L460.16,166.41L463.56,168.03L466.74,167.77L469.22,168.5L470.43,167.59L472.88,167.59L474.34,166.17L475.62,165.88L479.1,166.38L481.31,167.95L483.32,171.62L484.62,172.3L482.92,173.61L483.71,174.35L483.42,175.64L481.37,176.98L483.72,179.13L483.47,180.06L484.07,182.36L482.47,183.71L483.39,185.31L483.25,187.32L482.62,188.41L483.7,190.72L483.73,192.42L482.23,193.66L479.25,193.53L478.54,194.41L476.54,194.34L474.16,196.2L472.92,197.84L472.15,200.39L471.01,201.51L470.34,204.03L470.53,205.62L468.22,205.38L467.12,203.42L465.72,203.33L464.16,205.67L462.72,206.1L463.17,207.38L462.02,209.3L459.32,212.8L456.76,214.24L454.48,213.86L451.96,212.96L449.55,211.35L449.81,209.84L451.64,206.68L450.04,204.1L448.77,204.2L448.7,202.93L446.95,202.36L446.38,198.69L447.82,195.53L446.35,192.86L444.58,193.19L443.25,190.15L440.92,190.09L440.24,189.51L439.69,186.43L439.79,183.29L440.61,182.54L441.85,183.35L443.63,181.91Z" class="land" id="RO-BN" title="Bistriţa-Năsăud"/>
    <path d="M579.44,284.63L581.23,284.61L581.69,285.49L583.56,285.3L586.96,286.62L586.67,288.45L589.48,289.51L591.15,289.09L591.68,288.31L594.95,289.06L595.99,289.72L597.72,289.03L597.64,291.48L596.48,294.47L597.47,296.52L600.3,297.48L601.65,298.34L600.18,300.76L604.23,303.7L603.17,304.42L602.98,305.72L601.78,306.75L602.49,309.18L601.56,310.33L602.06,312.24L601.38,315.85L602.06,316.91L600.5,318.53L599.47,321.87L597.93,324.02L596.55,324.13L594.72,323.06L591.95,324.08L590.14,323.15L585.53,323.91L580.43,322.87L574.71,323.04L573.24,323.34L570.29,321.72L568.45,324.97L566.88,323.66L566.06,322.31L566.83,318.94L568.04,315.01L567.51,313.55L568.78,313.49L568.68,311.47L567.46,311.35L567.32,309.73L565.7,309.56L566.04,306.03L564.61,305.64L563.85,301.76L561.6,303.12L560.79,302.23L562.69,299.54L564.44,297.88L567.25,299.57L569,300.24L571.02,298.15L571.84,296.41L573.08,295.41L572.71,293.13L573.46,291.49L575.07,290.6L574.82,289.58L576.95,287.9L577.09,286.89Z" class="land" id="RO-BR" title="Brăila"/>
    <path d="M573.17,166.81L570.49,167.41L569.18,168.41L568.31,169.88L566.8,170.42L563.61,170.4L561.89,168.98L561.08,171.71L561.19,173.9L559.71,175.29L558.04,172.36L552.17,172.15L548.27,170.66L547.85,172.32L545.79,173.55L542.28,173.83L542.36,172.45L540.87,171.48L541.84,169.9L541.14,167.43L540.31,166.32L540.26,163.48L538.07,162.05L537.17,159.98L534.62,157.94L535.22,157.07L533.7,155.97L531.89,153.94L530.03,150.3L528.41,148.96L526.73,149.4L526.67,147.81L524.46,147.06L522.81,144.04L523.83,144.33L527.11,143.12L527.85,140.18L530.23,138.37L531.15,135.39L532.55,133.92L532.27,132.79L534.18,131.72L535.04,132.26L537.21,131.24L537.74,130.42L540,131.04L541.88,129.06L543.54,129.27L546.95,128.66L549.83,129.27L550.78,128.59L552.45,129.8L553.76,131.6L556.02,131.97L555.62,133.15L556.32,135.16L559.66,137.27L559.12,138.09L561.19,140.15L561.56,142.34L563.34,143.63L564.97,146.29L563.93,147.78L565.81,148.87L566.47,153.31L567.74,155.1L568.33,157.07L569.22,157.76L568.4,159.82L569.53,161.62L570.26,163.82L571.97,165.08Z" class="land" id="RO-BT" title="Botoşani"/>
    <path d="M529.04,342.14L528.2,343.79L526.44,344.13L525.08,346.58L521.93,345.58L520.59,344.17L519,343.9L518.54,342.03L520.54,341.93L519.02,340.35L519.12,339.03L520.36,337.78L521.98,336.83L523.86,336.89L524.61,339.61L527.28,340.02L526.46,341.29Z" class="land" id="RO-B" title="București"/>
    <path d="M487.73,246.91L488.39,246.71L490.83,248.44L491.27,246.89L492.68,246.08L494.2,246.5L495.42,248.71L498.48,249.25L498.56,249.75L498.23,251.56L500.1,253.95L502.34,253.27L503.18,254.78L502.18,256.4L501.98,259.97L502.59,261.92L504.29,262.2L503.2,263.5L503.36,265.66L504.85,265.98L505.19,266.8L507.89,269.4L509.38,268.49L510.01,269.33L511.4,269.29L514.36,272.37L516.08,272.24L518.29,273.43L518.77,274.55L518.07,275.49L520.29,276.15L520.02,277.27L521.68,277.27L523.11,278.75L523.39,281.01L523.1,282.85L521.28,284.88L519.37,282.97L518.25,283.29L516.57,282.94L515.71,283.88L515.2,286.76L514.43,287.91L512.97,287.5L512.31,285.66L510.55,285.66L505.92,284.53L503.78,285.88L500.38,285.64L498.4,287L496.82,288.12L496.69,289.94L495.2,289.77L493.48,290.27L492.8,287.94L491.1,287.41L490.27,285.05L490.06,282.86L488.51,282.5L485.05,279.3L481.38,279.07L479.57,278.62L474.94,278.75L474.54,277.91L469.09,278.15L468.7,277.11L469.06,275.52L468.74,272.15L467.35,269.29L466.91,267.1L469.15,265.34L472.29,265.09L472.26,263.51L470.25,261.93L469.61,259.56L471.68,259.11L473.08,257.7L474.84,257.35L474.75,255.84L475.93,255.58L476.89,253.66L479.02,252.45L478.9,251.75L479.34,250.11L481.68,248.03L483.37,248.44L484.88,247.79L486.77,248.41Z" class="land" id="RO-BV" title="Braşov"/>
    <path d="M534.62,267.2L536.57,268.54L536.35,270.69L537.53,271.71L538.6,274.07L540.55,276.57L542.52,277.13L544.2,276.49L545.35,279.06L546.58,278.87L548.37,280.99L550.65,281.36L551.73,282.69L556.04,282.32L557.03,281.97L557.81,283.98L559.31,286.17L560.87,286.65L561.95,285.76L564.3,288.28L565.93,287.02L566.72,287.77L568.09,286.57L568.58,290.29L571.75,290.82L573.55,290.5L574.82,289.58L575.07,290.6L573.46,291.49L572.71,293.13L573.08,295.41L571.84,296.41L571.02,298.15L569,300.24L567.25,299.57L564.44,297.88L562.69,299.54L560.79,302.23L561.6,303.12L563.85,301.76L564.61,305.64L566.04,306.03L565.7,309.56L567.32,309.73L567.46,311.35L568.68,311.47L568.78,313.49L567.51,313.55L568.04,315.01L566.83,318.94L566.06,322.31L564.01,322.65L563.82,323.85L565.59,324.56L565.08,325.71L561.92,324.95L562.4,323.04L558.87,321.11L557.93,322.39L554.67,321.51L552.02,322.05L551.39,322.9L550.06,322.4L549.25,321.19L547.29,321.52L543.88,321.28L543.05,318.8L541.63,317.78L540.89,316.38L539.48,315.49L541.7,314.14L541.76,312.62L540.19,311.04L538.85,311.69L536.85,306.37L537.1,304.34L537.77,302.68L536.65,301.08L534.61,301.94L533.28,301.93L532.43,299.19L531.44,300.11L529.79,299.96L529.43,298.25L527.61,294.89L528.47,293.54L527.06,291.83L525.13,291.22L523.76,288.81L521.46,287.29L521.28,284.88L523.1,282.85L524.82,282.61L526.46,279.82L526.73,277.92L527.78,277.19L529.03,277.26L530.35,279.11L532.25,276.67L532.11,275.39L533.08,271.52L534.46,270.83L534.24,268.36Z" class="land" id="RO-BZ" title="Buzău"/>
    <path d="M436.56,181.19L437.05,179.25L438.52,179.96L442.57,179.35L443.43,179.73L443.63,181.91L441.85,183.35L440.61,182.54L439.79,183.29L439.69,186.43L440.24,189.51L440.92,190.09L443.25,190.15L444.58,193.19L446.35,192.86L447.82,195.53L446.38,198.69L446.95,202.36L448.7,202.93L448.77,204.2L450.04,204.1L451.64,206.68L449.81,209.84L449.55,211.35L449.05,212.55L445.06,215.03L445.59,216.19L446.82,216.55L446.51,219.29L443.91,220.12L443.39,221.77L445.25,222.32L444.28,224.27L444.03,225.88L442.22,225.95L441.32,227.1L441.16,230.75L440.53,231.08L436.24,231.37L435.97,230.48L433.56,230.5L432.01,231.11L430.93,230.89L429.17,232.46L428.57,233.97L426.4,232.9L426.61,231.4L427.72,229.59L426.17,228.64L424.62,229.44L422.78,228.89L420.44,226.43L418.91,225.72L417.05,226.95L415.4,227.5L413.24,229.03L411.35,228.67L411.15,227.88L408.25,228.91L407.68,230.22L405.79,229.92L405.3,226.57L404.53,225.59L401.29,225.39L399.43,226.36L397.46,225.83L396.68,224.84L397.1,222.67L396.6,221.04L394.29,219.4L394.34,217.68L393.8,216.03L392.82,214.88L393.01,213.85L390.85,212.81L391.33,211.49L393.45,210.67L393.7,209.64L395.58,206.19L391.78,203.64L391.78,201.94L393.42,199.87L395.85,200.21L398.63,199.66L400.37,200.89L400.21,203.46L402.78,205.84L404.18,205.53L405.62,206.96L406.58,205.64L407.6,206.45L406.98,208.12L408.03,208.54L410.11,207.48L411.75,207.15L412.23,206.4L412.09,204.49L413.14,203.34L414.24,205.33L415.69,205.82L417.56,205.04L418.8,203.34L418.79,201.73L419.67,200.76L421.19,200.85L422.77,198.8L422.31,197.09L420.66,195.19L422.76,195.14L423.47,193.93L422.94,191.59L424.79,191.2L425.74,189.97L427.35,190.9L429.27,187.71L433.18,184.76L434.53,185.42L435.41,182.85Z" class="land" id="RO-CJ" title="Cluj"/>
    <path d="M535.59,337.18L536.36,335.56L538.09,333.7L539.4,334.57L540.56,336.44L542.34,337.08L545.3,334.11L546.68,334.61L546.53,335.96L550.61,337.75L553.38,336.75L554,337.41L556.38,336.64L559.18,336.57L559.11,337.85L561.44,337.65L561.47,339.01L563.2,339.1L563.42,338.12L566.08,339.01L566.85,338.65L571.76,339.05L573.22,338.52L578.07,338.41L578.35,335.9L579.22,334.87L580.15,335.1L580.41,339.64L583.17,340.07L583.15,341.58L584.21,342.43L586.22,342.82L587.71,344L587.01,345.73L587.96,346.82L589.49,347.18L590.27,346.64L591.05,344.83L594.75,345.74L597.26,346.95L596.4,348.91L594.12,351.78L590.2,351.93L588.57,352.57L586.22,354.62L582.84,354.24L581.26,354.64L578.35,356.31L575.63,358.6L573.33,358.2L571.87,358.41L570.99,357.87L568.71,358.57L567.21,358.97L565.16,358.69L563.1,357.67L561.93,357.83L560.36,357.19L557.76,358.01L554.32,358.17L552.39,358.98L548.78,361.07L546.27,361.16L542.68,362.42L540.23,362.27L536.65,363.26L533.7,363.04L533.02,359.8L536.03,357.5L535.51,354.41L534.96,353.28L533.54,353.2L533.29,352.23L530.95,351.22L530.54,350.09L529.29,349.26L530.25,348.16L530.63,346.61L531.74,345.16L532.03,343.75L533.96,342.54L535.11,342.69L537.45,341.14L537.2,340.46L534.77,340.53L533.57,339.05Z" class="land" id="RO-CL" title="Călăraşi"/>
    <path d="M381.98,274.56L383.03,275.1L383.87,277.06L384.6,277.39L385.78,279.77L387.96,279.21L388.51,280.38L390.24,280.39L390.47,281.68L392.09,284.41L392.88,288.67L390.39,293.09L388.39,294.84L388.83,296.29L388.31,297.86L390.54,298.49L389.8,299.73L388.24,300.42L387.2,302.76L388.47,303.85L390.64,304.24L391.03,305.37L387.04,310.41L384.44,312.61L384.44,317.85L383.71,318.39L382.75,321.03L381.48,321.93L381.05,323.19L379.66,322.78L377.78,323.21L375.9,322.94L373.67,321.12L373.05,322.61L373.36,324.25L371.65,325.28L371.34,328.4L370.92,329.45L372.32,330.65L372.07,332.51L369.77,333.04L369.17,331.83L367.48,332.89L365.88,332.48L365.28,330.92L362.54,330.13L358.1,329.75L357.56,329.26L354.87,329.76L353.71,329.16L351.35,329.32L350.73,328.44L350.65,326.47L349.54,324.04L347.6,323.33L342.43,323.1L340.5,319.55L341.15,318.14L345.94,318.03L348.48,317.07L347.91,314.78L345,313.29L343.78,313.18L342.58,312.19L340.77,309.92L342.53,309.08L344.45,308.89L344.51,307.19L345.52,306.09L345.33,304.46L347.26,303.41L346.77,301.77L345.54,300.72L346.87,300.13L347.55,296.73L348.29,295.08L347.09,293.8L346.72,292.44L344.7,290.93L344.09,288.62L345.17,287.52L344.75,285.14L347.76,284.26L349.97,280.1L353.62,279.4L354.13,280.43L355.62,280.87L356.35,282.16L359.04,281.64L361.99,282.09L363.8,282.68L363.25,283.95L364.56,284.52L366.62,284.46L367.67,283.07L367.29,279.83L368.37,279.87L369.58,278.75L370.79,278.5L371.78,276.68L375.43,279.15L376.2,278.78L377.22,275.78L381.08,275.48Z" class="land" id="RO-CS" title="Caraş-Severin"/>
    <path d="M599.47,321.87L601.06,322.36L602.55,321.98L605.12,323.84L606.63,323.89L606.56,326.31L608.75,327.33L609.68,328.53L612.17,328.85L612.91,330.32L615.19,329.39L615.29,330.43L617.48,330.47L617.61,329.39L619.25,329.58L623.4,329.08L623.76,328.08L625.05,327.79L626.52,328.69L627.42,331.82L625.97,331.78L625.98,333.87L625.31,335.39L626.55,335.54L625.54,338.45L625.51,339.9L629.73,334.75L631.48,334.15L629.4,338.12L625.44,342.88L623.22,346.52L622.13,346.56L620.69,349.47L620.62,351.66L621.7,353.82L621.88,355.45L621.28,356.72L621.37,362.13L622.33,365.66L621.22,367.73L621.11,369.23L620.23,370.57L620.03,373.09L619.41,373.66L618.87,376.13L618.93,378.96L613.81,379.24L609.99,378.24L605.6,377.89L600.78,375.7L596.38,373.39L595.75,370.48L594.83,368.11L594.5,365.93L593.43,364.57L590.63,366.8L587.18,367.24L585.47,367.17L584.1,363.61L582.97,362.67L581.74,364.57L576.37,364.05L573.59,364.59L571.92,362.18L569.39,361.26L568.71,358.57L570.99,357.87L571.87,358.41L573.33,358.2L575.63,358.6L578.35,356.31L581.26,354.64L582.84,354.24L586.22,354.62L588.57,352.57L590.2,351.93L594.12,351.78L596.4,348.91L597.26,346.95L597.52,345.8L599.4,342.91L600.63,342.02L600.1,338.88L598.52,337.41L597.09,334.24L597.91,331.79L597.12,330L595.46,328.52L594.25,328.52L592.13,327.01L591.69,325.96L591.95,324.08L594.72,323.06L596.55,324.13L597.93,324.02Z" class="land" id="RO-CT" title="Constanţa"/>
    <path d="M498.56,249.75L499.78,249.25L500.75,245.89L503.09,244.51L504.08,242.89L505.24,242.7L507.12,241.5L507.6,240.4L509.61,241.49L509.08,242.28L510.37,243.67L511.8,245.94L512.02,247.02L513.86,249.49L516.51,248.91L520.27,249L520.93,247.12L522.81,247.41L524.63,246.66L527.66,246.32L528.13,244.89L529.57,244.19L529.64,242.43L531.97,243.12L532.7,244.97L532.33,246.29L532.9,247.42L532.61,249.43L534.33,250.81L535.92,250.77L536.45,253.74L536.45,256.71L534.91,257.96L534.73,260.49L534.03,261.52L534.46,262.94L533.87,264.67L533.92,266.16L534.62,267.2L534.24,268.36L534.46,270.83L533.08,271.52L532.11,275.39L532.25,276.67L530.35,279.11L529.03,277.26L527.78,277.19L526.73,277.92L526.46,279.82L524.82,282.61L523.1,282.85L523.39,281.01L523.11,278.75L521.68,277.27L520.02,277.27L520.29,276.15L518.07,275.49L518.77,274.55L518.29,273.43L516.08,272.24L514.36,272.37L511.4,269.29L510.01,269.33L509.38,268.49L507.89,269.4L505.19,266.8L504.85,265.98L503.36,265.66L503.2,263.5L504.29,262.2L502.59,261.92L501.98,259.97L502.18,256.4L503.18,254.78L502.34,253.27L500.1,253.95L498.23,251.56Z" class="land" id="RO-CV" title="Covasna"/>
    <path d="M498.4,287L499.11,287.78L499.56,289.72L498.96,292.87L501.42,294.28L502.41,296.43L501.6,297.11L501.13,298.98L501.47,300.86L502.69,300.96L502.84,302.21L504.06,302.99L504.78,305.1L507.15,307.01L507.49,309.58L507.18,310.59L507.37,313.5L509.36,313.21L509.91,314.16L511.04,313.89L512.68,315.97L512.44,317.88L511.48,319.04L513.29,320.93L514.74,320.35L515.83,322.26L517.79,324.75L516.24,326.16L517.13,327.52L518.49,326.21L518.84,329.04L517.24,330.24L519.25,331.96L517.63,333.75L515.98,334.73L514.81,333.6L514.03,336.22L512.84,335.89L511.29,336.27L509.18,336.21L507.33,336.96L505.5,335.17L503.86,336.89L502.89,336.2L500.09,337.67L498.76,339.78L498.56,338.2L496.25,337.23L494.33,337.58L495.23,339.65L493.67,340.92L492.77,342.41L490.76,343.03L489.3,341.14L491.08,341.47L491.8,339.31L491.03,337.49L491.65,336.91L491.45,335.09L489.77,332.98L488.59,332.06L488.9,330.99L488.51,329.4L489.8,327.45L488.02,326.44L488.45,325.48L488.83,322.05L488.67,318.7L487.49,313.94L487.86,311.83L488.78,310.82L488.37,309.51L486.69,308.9L485.99,307.76L487.34,306.93L487.85,305.38L486.65,303.27L487.1,300.49L486.27,299.21L487.03,298.4L488.75,301.16L490.71,301.3L490.9,299.28L492.32,298.33L491.85,296.38L492.83,295.15L493.09,292.71L493.64,291.71L493.48,290.27L495.2,289.77L496.69,289.94L496.82,288.12Z" class="land" id="RO-DB" title="Dâmboviţa"/>
    <path d="M421.57,334.43L423.05,334.08L424.83,332.35L426.72,332.09L428.23,333.42L430.73,332.71L431.87,331.69L431.46,329.68L431.83,326.78L433.49,326.88L433.93,327.98L433.57,329.24L435.47,330.69L438.73,331.52L438.48,333.58L439.25,334L439.83,336.63L438.41,339.04L438.25,341.7L441.08,344.59L444.26,345.49L445.25,347.9L446.58,349.41L446.98,350.78L448.39,351.08L449.65,352.63L450.62,352.44L451.41,353.72L450.84,355.76L451.12,357.04L450.06,364.03L451.49,365.41L450.65,367.35L451.56,368.17L450.71,372.67L449.34,373.88L447.85,376.78L446.95,380.54L448.2,381.64L446.01,381.03L444.82,380.08L441.54,378.77L437.28,378.18L433.57,376.61L431.93,375.52L427.7,376.26L425.63,375.55L423.9,373.96L420.54,373.08L414.57,373.32L412.54,373.93L409.61,375.4L406.61,376.04L402.87,375.21L399.35,373.97L398.54,373.21L397.94,371.37L399.5,366.21L401.41,364.94L404.46,364.43L405.79,362.18L405.35,360.31L402.91,359.77L403.32,358.47L405.54,356.18L407.96,357.14L408.66,352.63L407.22,351.87L408.25,350.97L409.25,347.78L411.03,347.38L411.48,345.38L413.41,345.1L413.31,344.36L411.69,343.39L411.24,342.06L411.68,340L414.74,338.19L413.85,336.82L417.12,336.9L419.3,336.09L420.08,336.8L421.41,335.36Z" class="land" id="RO-DJ" title="Dolj"/>
    <path d="M426.79,291.83L428.29,292.82L428.76,291.95L430.44,293.07L432.47,292.91L434.55,291.98L436.54,292.88L436.5,294.16L434.76,297L435.46,299.48L436.78,301.43L437.04,303.12L435.47,304.18L435.81,305.45L435.54,307.18L434.28,310.36L433.24,310.94L433.71,313.21L433.67,316.26L433.96,318.28L434.78,320.26L434.18,320.54L433.74,323.07L434.21,324.92L433.49,326.88L431.83,326.78L431.46,329.68L431.87,331.69L430.73,332.71L428.23,333.42L426.72,332.09L424.83,332.35L423.05,334.08L421.57,334.43L419.91,332.28L415.76,329.96L412.81,328.56L411.47,328.6L409.54,327.9L407.49,327.62L406.67,326.05L404.2,324.8L403.52,323.1L400.5,320.75L400.1,317.65L399.26,313.9L400.11,313.02L399.24,311.54L398.4,311.57L397.56,309.85L392.96,307.36L392.06,305.64L391.03,305.37L390.64,304.24L388.47,303.85L387.2,302.76L388.24,300.42L389.8,299.73L390.54,298.49L391.77,297.51L396.47,296.21L397.36,295.67L398.79,296.8L399.48,296.39L402.48,296.23L403.4,295.27L404.96,298.73L405.61,298.85L407.29,297.36L407.52,295.26L410.11,296.22L412.19,295.47L413.73,294.32L416.7,294.31L416.96,293.13L418.44,293.07L421.38,295.02L424.88,292.62Z" class="land" id="RO-GJ" title="Gorj"/>
    <path d="M576.63,248.83L577.66,248.89L578.52,250.3L577.98,253.13L578.94,254.93L580.27,255.89L581.39,255.15L581.41,253.16L582.27,252.79L580.69,249.52L580.83,247.89L583.82,249.18L587.23,248.84L587.97,250.03L589.17,249.88L590.83,248.5L593.23,247.68L594.31,248.66L595.32,248.35L595.85,250.12L597.39,250.35L599.6,249.66L601.09,250L600.05,252.34L600.61,253.14L599.87,255.61L601.49,260.37L600.99,261.78L601.78,262.99L600.74,264.84L603.23,272.26L602.92,274.94L603.34,275.81L602.19,277.1L601.06,276.81L600.26,278.4L601.99,279.52L603.04,281.3L602.93,283.75L603.86,285.21L605.01,285.6L603.43,288.41L601.91,287.24L600.31,287.03L598.98,287.69L597.72,289.03L595.99,289.72L594.95,289.06L591.68,288.31L591.15,289.09L589.48,289.51L586.67,288.45L586.96,286.62L583.56,285.3L581.69,285.49L581.23,284.61L579.44,284.63L578.17,282.4L578.47,281.26L577.54,280.46L578.1,278.9L577.86,277.21L576.02,276.3L575.39,274.02L573.63,273.8L572.05,271.21L571.87,269.05L570.77,267.62L570.51,265.8L569.17,262.68L566.87,256.31L566.87,255.04L568.96,253.91L569.63,251.86L572.16,251.76L574.45,251.23L574.54,248.51L576.31,249.83Z" class="land" id="RO-GL" title="Galaţi"/>
    <path d="M498.76,339.78L500.09,337.67L502.89,336.2L503.86,336.89L505.5,335.17L507.33,336.96L509.18,336.21L511.29,336.27L512.84,335.89L514.03,336.22L515.39,336.05L516.61,337.51L515.72,339.2L515.63,340.87L514.32,340.76L514.51,342.7L513.01,343.66L515.45,346.54L518.56,347.46L519.59,349.06L520.83,349.42L521.89,350.83L525.04,352.6L527.97,351L529.29,349.26L530.54,350.09L530.95,351.22L533.29,352.23L533.54,353.2L534.96,353.28L535.51,354.41L536.03,357.5L533.02,359.8L533.7,363.04L531.42,363.6L527.38,365.78L525.35,365.79L522.75,367.91L521.8,369.96L517.81,372.43L516.77,373.7L514.92,376.85L513.84,377.91L512.35,378.59L511.25,380.53L509.24,381.61L506.93,381.63L506.58,379.68L506.2,374.64L504.13,371.9L504.84,371.36L504.02,362.75L505.36,362.39L504.82,361.1L505.75,359.58L507.18,359.78L507.89,357.3L506.31,356.27L507.81,351.49L506.74,350.17L504.94,349.62L505.27,348.86L502.54,348.07L500.48,348.23L499.14,347.71L499.28,346.3L500.68,343.89L499.68,342.49L499.59,340.89Z" class="land" id="RO-GR" title="Giurgiu"/>
    <path d="M394.59,236.65L395.56,236.75L396.8,238.13L400.77,237.75L402.58,240.33L402.04,241.4L404.06,244.38L406.09,244.46L407.7,245.95L406.89,249.76L407.52,250.69L407.47,253.08L409.59,253.59L412.31,255.36L413.05,256.19L414.32,259.84L415.9,260.78L416.9,262.54L416.55,264.25L417.6,268.52L418.81,269.79L418.03,272.14L420.21,274.21L418.93,276.06L420.52,276.88L420.46,278.95L423.37,279.54L423.8,281.06L424.64,281L426.12,282.43L426.98,284.27L427.03,285.44L426.23,287.84L427.25,290.5L426.79,291.83L424.88,292.62L421.38,295.02L418.44,293.07L416.96,293.13L416.7,294.31L413.73,294.32L412.19,295.47L410.11,296.22L407.52,295.26L407.29,297.36L405.61,298.85L404.96,298.73L403.4,295.27L402.48,296.23L399.48,296.39L398.79,296.8L397.36,295.67L396.47,296.21L391.77,297.51L390.54,298.49L388.31,297.86L388.83,296.29L388.39,294.84L390.39,293.09L392.88,288.67L392.09,284.41L390.47,281.68L390.24,280.39L388.51,280.38L387.96,279.21L385.78,279.77L384.6,277.39L383.87,277.06L383.03,275.1L381.98,274.56L383.5,272.53L383.68,271.09L385.5,270.61L386.61,268.46L385.74,267.49L384.07,267.92L383.37,264.62L381.5,264.45L380.05,262.44L381.3,260.64L382.19,259.2L381.3,258.52L379.63,258.52L378.7,257.3L378.94,256.26L380.73,255.6L382.25,255.61L382.54,254.63L382.11,251.26L382.39,249.55L384.08,248.17L384.4,247.22L383.04,246.36L382.43,244.53L383.52,243.51L385.24,244.04L390.83,243.39L390.94,241.39L391.79,239.6L391.65,238.39L393.32,237.82Z" class="land" id="RO-HD" title="Hunedoara"/>
    <path d="M490.26,195.18L491.94,194.47L493.02,193.42L494.51,194.41L496.61,194.8L497.14,193.16L499.02,192.63L501.47,193.94L501.67,195.52L504.26,195.97L505.09,194.9L506.46,195.27L509.39,196.22L510.92,198.57L512.01,202.21L513.84,202.23L513.59,203.88L511.96,205L510.42,206.82L511.17,207.81L510.8,209.52L512.24,210.26L512.56,214.24L511.43,215.73L514.55,219.81L515.85,219.85L515.46,217.1L518.77,217.62L519.62,218.77L519.92,220.49L519.46,222.49L521.99,226.35L522.35,227.85L520.14,230.07L519.85,232.62L521.97,233.5L526.74,233.74L526.01,235.59L525.58,238.8L527.64,238.77L528.91,237.53L530.79,237.86L530.4,239.58L529.33,241.01L529.64,242.43L529.57,244.19L528.13,244.89L527.66,246.32L524.63,246.66L522.81,247.41L520.93,247.12L520.27,249L516.51,248.91L513.86,249.49L512.02,247.02L511.8,245.94L510.37,243.67L509.08,242.28L509.61,241.49L507.6,240.4L507.12,241.5L505.24,242.7L504.08,242.89L503.09,244.51L500.75,245.89L499.78,249.25L498.56,249.75L498.48,249.25L495.42,248.71L494.2,246.5L492.68,246.08L491.27,246.89L490.83,248.44L488.39,246.71L487.73,246.91L486.05,245.69L485.1,243.21L483.12,242.51L479.15,242.46L478.33,240.91L475.53,239.06L475.66,237.52L474.95,235.49L475.46,234.93L477.49,234.95L478.71,235.79L480.1,235.06L478.74,232.61L481.26,230.87L482.31,229.07L481.58,227.5L481.97,226.13L483.63,225.35L484.42,224.17L486.5,224.39L490.21,219.64L492.41,218.04L492.06,216.69L492.55,215.06L492.07,209.73L490.89,209.17L492.02,203.87L491.59,202.06L491.58,198.48L490.07,196.84Z" class="land" id="RO-HR" title="Harghita"/>
    <path d="M529.29,349.26L527.97,351L525.04,352.6L521.89,350.83L520.83,349.42L519.59,349.06L518.56,347.46L515.45,346.54L513.01,343.66L514.51,342.7L514.32,340.76L515.63,340.87L515.72,339.2L516.61,337.51L515.39,336.05L514.03,336.22L514.81,333.6L515.98,334.73L517.63,333.75L519.25,331.96L517.24,330.24L518.84,329.04L518.49,326.21L518.91,324.96L523.36,325.2L525.42,324.19L527.96,324.67L529.32,325.4L529.81,324.35L531.2,323.8L532.96,325.42L533.73,326.95L532.85,328.21L534.03,331.61L536.84,330.59L537.01,332.14L536.02,332.85L535.22,332.08L532.95,335.42L533.55,336.76L535.59,337.18L533.57,339.05L534.77,340.53L537.2,340.46L537.45,341.14L535.11,342.69L533.96,342.54L532.03,343.75L531.74,345.16L530.63,346.61L530.25,348.16ZM529.04,342.14L526.46,341.29L527.28,340.02L524.61,339.61L523.86,336.89L521.98,336.83L520.36,337.78L519.12,339.03L519.02,340.35L520.54,341.93L518.54,342.03L519,343.9L520.59,344.17L521.93,345.58L525.08,346.58L526.44,344.13L528.2,343.79Z" class="land" id="RO-IF" title="Ilfov"/>
    <path d="M543.05,318.8L543.88,321.28L547.29,321.52L549.25,321.19L550.06,322.4L551.39,322.9L552.02,322.05L554.67,321.51L557.93,322.39L558.87,321.11L562.4,323.04L561.92,324.95L565.08,325.71L565.59,324.56L563.82,323.85L564.01,322.65L566.06,322.31L566.88,323.66L568.45,324.97L570.29,321.72L573.24,323.34L574.71,323.04L580.43,322.87L585.53,323.91L590.14,323.15L591.95,324.08L591.69,325.96L592.13,327.01L594.25,328.52L595.46,328.52L597.12,330L597.91,331.79L597.09,334.24L598.52,337.41L600.1,338.88L600.63,342.02L599.4,342.91L597.52,345.8L597.26,346.95L594.75,345.74L591.05,344.83L590.27,346.64L589.49,347.18L587.96,346.82L587.01,345.73L587.71,344L586.22,342.82L584.21,342.43L583.15,341.58L583.17,340.07L580.41,339.64L580.15,335.1L579.22,334.87L578.35,335.9L578.07,338.41L573.22,338.52L571.76,339.05L566.85,338.65L566.08,339.01L563.42,338.12L563.2,339.1L561.47,339.01L561.44,337.65L559.11,337.85L559.18,336.57L556.38,336.64L554,337.41L553.38,336.75L550.61,337.75L546.53,335.96L546.68,334.61L545.3,334.11L542.34,337.08L540.56,336.44L539.4,334.57L538.09,333.7L536.36,335.56L535.59,337.18L533.55,336.76L532.95,335.42L535.22,332.08L536.02,332.85L537.01,332.14L536.84,330.59L534.03,331.61L532.85,328.21L533.73,326.95L532.96,325.42L531.2,323.8L531.72,323.03L533.63,322.94L534.93,323.72L537.23,321.38L538.64,322.35Z" class="land" id="RO-IL" title="Ialomiţa"/>
    <path d="M601.03,208.94L597.66,209.34L596.33,209.19L595.79,208.27L594.09,209.03L593.89,210.33L589.81,206.8L587.05,206.58L586.17,204.8L583.59,201.89L582.4,200.96L581.64,202.46L581.91,204.12L582.92,205.72L581.19,206.36L578.31,205.87L578.51,207.1L573.82,207.35L572.93,206.55L569.46,207.32L566.61,207.47L565.69,206.82L565.21,205.18L562.72,203.17L564.6,201.43L567.17,200.5L567.36,199.65L565.16,198.45L564.72,195.75L562.61,195.27L560.33,195.5L559.34,198.02L558.17,197.88L557.48,195.85L556.56,197.03L553.9,198.6L551.24,198.08L550.71,196.57L548.47,194.17L546.93,195.01L545.97,193.84L543.89,194.93L543.89,192.03L543.24,189.14L541.69,187.98L541.19,186.64L539.95,185.7L541.57,183.46L538.88,180.19L538.56,178.04L539.75,177.52L540.36,178.78L541.54,178.73L543.16,180.05L545.65,179.9L545.8,179.07L544.39,177.49L545.75,176.71L545.79,173.55L547.85,172.32L548.27,170.66L552.17,172.15L558.04,172.36L559.71,175.29L561.19,173.9L561.08,171.71L561.89,168.98L563.61,170.4L566.8,170.42L568.31,169.88L569.18,168.41L570.49,167.41L573.17,166.81L575.19,169.87L576.3,172.68L578.98,173.17L580.1,174.68L580.01,178.98L581.25,179.39L581.43,181.58L582.52,183L583.7,182.75L584.75,183.65L586.18,183.47L587.32,185.62L586.83,186.51L588.39,187.81L588.4,189.43L589.38,190.94L588.22,192.22L590.95,192.87L593.35,196.39L595.01,196.94L596.5,198.67L598.09,198.93L598.52,200.22L600.36,201.43L599.65,202.34L600.92,204.69L600.57,206.15L601.13,207.11Z" class="land" id="RO-IS" title="Iaşi"/>
    <path d="M365.88,332.48L367.48,332.89L369.17,331.83L369.77,333.04L372.07,332.51L372.32,330.65L370.92,329.45L371.34,328.4L371.65,325.28L373.36,324.25L373.05,322.61L373.67,321.12L375.9,322.94L377.78,323.21L379.66,322.78L381.05,323.19L381.48,321.93L382.75,321.03L383.71,318.39L384.44,317.85L384.44,312.61L387.04,310.41L391.03,305.37L392.06,305.64L392.96,307.36L397.56,309.85L398.4,311.57L399.24,311.54L400.11,313.02L399.26,313.9L400.1,317.65L400.5,320.75L403.52,323.1L404.2,324.8L406.67,326.05L407.49,327.62L409.54,327.9L411.47,328.6L412.81,328.56L415.76,329.96L419.91,332.28L421.57,334.43L421.41,335.36L420.08,336.8L419.3,336.09L417.12,336.9L413.85,336.82L414.74,338.19L411.68,340L411.24,342.06L411.69,343.39L413.31,344.36L413.41,345.1L411.48,345.38L411.03,347.38L409.25,347.78L408.25,350.97L407.22,351.87L408.66,352.63L407.96,357.14L405.54,356.18L403.32,358.47L402.91,359.77L401,359.42L398.95,357.83L396.65,356.65L394.27,354.39L392.31,354.09L391.41,353.11L392,351.38L390.86,349.56L387.09,348.63L385.71,346.62L384.93,344.36L384.82,342.58L383.75,341.64L383.52,339.46L385.56,339.81L387.07,338.67L387.33,336.42L388.12,335.59L389.75,335.61L392.35,337.39L394.75,336.27L394.64,334.81L392.87,332.69L391.48,331.84L389.6,332.02L387.33,330.62L383.85,326.62L381.62,327.13L380.03,328.62L378.66,328.61L377.24,329.81L376.18,331.44L375.62,333.27L374.73,334.56L372.69,339.27L371.24,339.8L368.62,338.36L368.2,336.7L366.95,335.86L366.54,333.18Z" class="land" id="RO-MH" title="Mehedinţi"/>
    <path d="M478.98,158.65L479.22,160.24L480.37,160.63L481.47,161.93L483.16,162.87L483.1,163.9L481.42,164.26L479.1,166.38L475.62,165.88L474.34,166.17L472.88,167.59L470.43,167.59L469.22,168.5L466.74,167.77L463.56,168.03L460.16,166.41L457.44,165.84L456.31,167.75L454.23,167.57L453.27,170.32L451.91,171.85L450.22,171.44L447.5,171.84L446.93,173.55L447.34,174.31L446.71,176.02L444.84,178.7L443.43,179.73L442.57,179.35L438.52,179.96L437.05,179.25L436.56,181.19L434.66,181.03L432.14,181.46L431.58,180.25L430.54,180.17L429.07,178.36L425.78,179.48L423.13,178.74L420.9,178.64L419.55,177.8L416.68,176.9L416.23,176.05L414.07,175.8L411.07,174.32L407.9,176.04L407.1,175.05L404.79,176.07L402.85,175.27L402.7,173.94L405.73,171.3L406.16,168.69L409.61,164.69L410.87,166.75L412.64,167.45L414.28,168.79L415.01,167.48L415.02,165.49L415.53,163.54L416.64,163.49L419.21,161.24L418.13,160.4L414.3,158.8L413.16,157.45L415.04,154.72L417.64,155.87L418.76,155.59L420.27,156.43L422.04,156.48L422.64,155.63L425.72,154.33L426.27,152.69L427.78,152.02L428.97,150.79L428.31,149.32L426.97,148.76L425.92,146.32L425.06,146.38L423.38,144.93L424.97,142.54L427.81,142.65L429.8,144.04L432.97,143.32L435.26,143.91L436.75,146.55L440.39,146.14L440.82,145.27L442.96,145.01L443.87,146.04L445.01,145.85L446.28,146.72L446.94,148.01L450.02,147.82L451.11,148.95L453.43,148.48L455.12,147.34L456.08,147.99L457.32,147.32L457.77,145.77L459.38,144.83L462.28,145.92L465.07,145.09L466.79,146L467.14,147.46L468.55,149.09L468.49,150.89L469.79,152.24L472.14,152.35L472.79,153.17L474.5,153.45L474.8,155.71L476.38,157.27L476.65,158.95Z" class="land" id="RO-MM" title="Maramureş"/>
    <path d="M483.73,192.42L484.8,193.38L486.55,193.52L487.78,192.83L490.26,195.18L490.07,196.84L491.58,198.48L491.59,202.06L492.02,203.87L490.89,209.17L492.07,209.73L492.55,215.06L492.06,216.69L492.41,218.04L490.21,219.64L486.5,224.39L484.42,224.17L483.63,225.35L481.97,226.13L481.58,227.5L482.31,229.07L481.26,230.87L478.74,232.61L480.1,235.06L478.71,235.79L477.49,234.95L475.46,234.93L474.95,235.49L475.66,237.52L475.53,239.06L478.33,240.91L479.15,242.46L483.12,242.51L485.1,243.21L486.05,245.69L487.73,246.91L486.77,248.41L484.88,247.79L483.37,248.44L481.68,248.03L479.34,250.11L478.9,251.75L477.88,251.61L477.21,250.38L475.93,250.06L474.11,250.9L470.16,251.84L468.49,250.46L468.63,246.76L468.97,245.38L468.18,243.04L468.35,240.46L467.33,240.76L466.61,242.12L465.62,242.37L464.31,241.61L463.23,242.23L458.96,241.57L457.18,242.65L456.18,242.12L452.94,242.04L452.4,242.67L450.28,240.79L448.25,239.72L447.74,237.66L445.72,237.65L443.38,236.19L442.55,234.77L443.44,232.71L441.6,232.04L441.16,230.75L441.32,227.1L442.22,225.95L444.03,225.88L444.28,224.27L445.25,222.32L443.39,221.77L443.91,220.12L446.51,219.29L446.82,216.55L445.59,216.19L445.06,215.03L449.05,212.55L449.55,211.35L451.96,212.96L454.48,213.86L456.76,214.24L459.32,212.8L462.02,209.3L463.17,207.38L462.72,206.1L464.16,205.67L465.72,203.33L467.12,203.42L468.22,205.38L470.53,205.62L470.34,204.03L471.01,201.51L472.15,200.39L472.92,197.84L474.16,196.2L476.54,194.34L478.54,194.41L479.25,193.53L482.23,193.66Z" class="land" id="RO-MS" title="Mureş"/>
    <path d="M506.46,195.27L506.75,193.55L507.85,192.23L508.58,189.02L509.43,188.02L512.02,187.8L513.02,186.03L511.53,184.1L510.89,181.91L513.29,182.43L515.6,185.28L518.76,183.82L520.47,183.8L522.25,184.48L524.48,183.35L526.56,183.72L526.95,183.1L529.26,184.34L529.95,183.25L531.18,183.43L535.16,180.92L536.51,181.53L537.55,183.19L539.95,185.7L541.19,186.64L541.69,187.98L543.24,189.14L543.89,192.03L543.89,194.93L545.97,193.84L546.93,195.01L548.47,194.17L550.71,196.57L551.24,198.08L553.9,198.6L556.56,197.03L557.48,195.85L558.17,197.88L559.34,198.02L560.33,195.5L562.61,195.27L564.72,195.75L565.16,198.45L567.36,199.65L567.17,200.5L564.6,201.43L562.72,203.17L565.21,205.18L565.69,206.82L566.41,208.67L566.16,211.45L566.38,213.14L565.61,213.7L564.31,214.97L562.6,214.33L561.99,213.14L560.47,213.74L559.16,213.09L556.07,213.92L555.65,212.3L554.81,211.81L554.51,209.92L553.11,209.74L552.23,212.69L551.1,213.49L551.17,214.6L549.55,215.46L548.99,213.96L545.88,213.26L545.43,215.27L542.77,216.92L541.16,218.83L539.95,217.47L538.39,218.16L536.3,218.22L533.45,220.25L530.97,219.57L530.43,218.01L528.67,217.55L526.96,219.66L525.59,220.3L525,219.33L523.47,219.97L522.61,219.43L522.31,216.81L519.57,216.93L518.77,217.62L515.46,217.1L515.85,219.85L514.55,219.81L511.43,215.73L512.56,214.24L512.24,210.26L510.8,209.52L511.17,207.81L510.42,206.82L511.96,205L513.59,203.88L513.84,202.23L512.01,202.21L510.92,198.57L509.39,196.22Z" class="land" id="RO-NT" title="Neamţ"/>
    <path d="M439.83,336.63L442.01,336.2L444.22,336.87L444.77,338.51L446.61,337.98L448.21,334.91L449.34,334.58L450.72,335.28L452.31,334.1L455.25,333.99L454.98,331.9L453.76,328.03L453.11,327.32L453.36,324.41L454.65,323.01L454.68,320.08L455.77,319.2L455.45,318.17L457.66,317.35L459.01,317.44L459.1,319.3L459.08,320.82L461.53,320.63L462.77,316.85L463.51,316.9L463.88,320.09L465.2,322.09L465.4,324.43L466.59,325.69L469.78,325.55L469.01,327.71L470.67,332.4L470.17,333.87L470.87,337.31L470.38,338.49L470.92,340.29L470.65,341.43L471.62,344.28L473.8,344.74L474.57,347.33L475.27,348.02L474.35,349.22L474.41,352.38L474.89,353.01L473.2,354.91L473.56,356.63L475.06,358.01L475.46,359.97L473.06,360.6L470.18,361.86L470.65,362.93L468.15,363.4L465.61,364.51L465.35,365.51L466.97,368.65L467.92,369.82L468.28,371.27L469.63,372.56L470.33,374.17L470.51,376.43L469.34,376.69L468.99,377.95L467.86,378.31L467.7,379.79L465.44,378.37L461.96,377.77L458.2,379.2L457.13,380.46L455.72,381.27L454.3,381.2L451.14,381.89L448.2,381.64L446.95,380.54L447.85,376.78L449.34,373.88L450.71,372.67L451.56,368.17L450.65,367.35L451.49,365.41L450.06,364.03L451.12,357.04L450.84,355.76L451.41,353.72L450.62,352.44L449.65,352.63L448.39,351.08L446.98,350.78L446.58,349.41L445.25,347.9L444.26,345.49L441.08,344.59L438.25,341.7L438.41,339.04Z" class="land" id="RO-OT" title="Olt"/>
    <path d="M498.4,287L500.38,285.64L503.78,285.88L505.92,284.53L510.55,285.66L512.31,285.66L512.97,287.5L514.43,287.91L515.2,286.76L515.71,283.88L516.57,282.94L518.25,283.29L519.37,282.97L521.28,284.88L521.46,287.29L523.76,288.81L525.13,291.22L527.06,291.83L528.47,293.54L527.61,294.89L529.43,298.25L529.79,299.96L531.44,300.11L532.43,299.19L533.28,301.93L534.61,301.94L536.65,301.08L537.77,302.68L537.1,304.34L536.85,306.37L538.85,311.69L540.19,311.04L541.76,312.62L541.7,314.14L539.48,315.49L540.89,316.38L541.63,317.78L543.05,318.8L538.64,322.35L537.23,321.38L534.93,323.72L533.63,322.94L531.72,323.03L531.2,323.8L529.81,324.35L529.32,325.4L527.96,324.67L525.42,324.19L523.36,325.2L518.91,324.96L518.49,326.21L517.13,327.52L516.24,326.16L517.79,324.75L515.83,322.26L514.74,320.35L513.29,320.93L511.48,319.04L512.44,317.88L512.68,315.97L511.04,313.89L509.91,314.16L509.36,313.21L507.37,313.5L507.18,310.59L507.49,309.58L507.15,307.01L504.78,305.1L504.06,302.99L502.84,302.21L502.69,300.96L501.47,300.86L501.13,298.98L501.6,297.11L502.41,296.43L501.42,294.28L498.96,292.87L499.56,289.72L499.11,287.78Z" class="land" id="RO-PH" title="Prahova"/>
    <path d="M452.4,242.67L452.94,242.04L456.18,242.12L457.18,242.65L458.96,241.57L463.23,242.23L464.31,241.61L465.62,242.37L466.61,242.12L467.33,240.76L468.35,240.46L468.18,243.04L468.97,245.38L468.63,246.76L468.49,250.46L470.16,251.84L474.11,250.9L475.93,250.06L477.21,250.38L477.88,251.61L478.9,251.75L479.02,252.45L476.89,253.66L475.93,255.58L474.75,255.84L474.84,257.35L473.08,257.7L471.68,259.11L469.61,259.56L470.25,261.93L472.26,263.51L472.29,265.09L469.15,265.34L466.91,267.1L467.35,269.29L468.74,272.15L469.06,275.52L468.7,277.11L469.09,278.15L468.49,278.54L466.34,278.26L464.36,279.43L462.02,279.11L461.41,279.73L459.79,278.91L459.25,279.37L456.03,279.09L453.67,279.87L452.61,281.45L451.52,281.48L450.47,282.49L447.16,282.57L445.86,283.3L443.4,282.04L439.64,281.92L437.71,282.51L436.93,281.87L434.77,282.07L432.79,283.64L431.33,283.84L429.27,285.99L428.42,285.67L429.47,285.35L429.23,282.72L428.67,281.18L427.68,280.3L429.06,276.25L428.3,275.13L426.85,274.28L427.16,271.47L428.7,270.85L429.25,268.51L428.39,268.09L429.35,266.58L431.04,265.83L432.16,266.06L432.69,261.08L434.5,260.15L435.51,260.33L436.34,258.94L437.45,258.27L437.56,256.76L436.82,255.53L438.44,253.75L440.5,253.91L442.74,255.3L444.27,254.37L444.01,253.23L447.03,248.75L448.38,248.65L450.75,247.45L449.84,246.08L450.15,244.02Z" class="land" id="RO-SB" title="Sibiu"/>
    <path d="M407.9,176.04L411.07,174.32L414.07,175.8L416.23,176.05L416.68,176.9L419.55,177.8L420.9,178.64L423.13,178.74L425.78,179.48L429.07,178.36L430.54,180.17L431.58,180.25L432.14,181.46L434.66,181.03L436.56,181.19L435.41,182.85L434.53,185.42L433.18,184.76L429.27,187.71L427.35,190.9L425.74,189.97L424.79,191.2L422.94,191.59L423.47,193.93L422.76,195.14L420.66,195.19L422.31,197.09L422.77,198.8L421.19,200.85L419.67,200.76L418.79,201.73L418.8,203.34L417.56,205.04L415.69,205.82L414.24,205.33L413.14,203.34L412.09,204.49L412.23,206.4L411.75,207.15L410.11,207.48L408.03,208.54L406.98,208.12L407.6,206.45L406.58,205.64L405.62,206.96L404.18,205.53L402.78,205.84L400.21,203.46L400.37,200.89L398.63,199.66L395.85,200.21L393.42,199.87L393.28,197.83L389.93,197.14L388.94,195.5L387.69,195.8L386.22,192.18L385.95,190.55L384.99,190.51L385.19,188.06L386.41,186.93L386.83,182.43L389.11,181.27L388.95,180.48L390.42,179L391.76,178.84L393.01,177.28L396.74,177.08L398.22,176.23L399.97,177.08L403.2,180.18L404.61,179.51L406.26,180.05L408.36,177.56Z" class="land" id="RO-SJ" title="Sălaj"/>
    <path d="M423.38,144.93L425.06,146.38L425.92,146.32L426.97,148.76L428.31,149.32L428.97,150.79L427.78,152.02L426.27,152.69L425.72,154.33L422.64,155.63L422.04,156.48L420.27,156.43L418.76,155.59L417.64,155.87L415.04,154.72L413.16,157.45L414.3,158.8L418.13,160.4L419.21,161.24L416.64,163.49L415.53,163.54L415.02,165.49L415.01,167.48L414.28,168.79L412.64,167.45L410.87,166.75L409.61,164.69L406.16,168.69L405.73,171.3L402.7,173.94L402.85,175.27L404.79,176.07L407.1,175.05L407.9,176.04L408.36,177.56L406.26,180.05L404.61,179.51L403.2,180.18L399.97,177.08L398.22,176.23L396.74,177.08L393.01,177.28L391.76,178.84L390.42,179L388.95,180.48L387.54,179.08L387.18,177.72L385.6,177.21L385.52,176.17L383.86,175.46L382.2,176.37L381.26,175.59L379.4,175.95L378.8,174.41L379.04,172.49L376.73,171.42L376.74,169.55L374.5,167.45L374.21,166.21L372.76,165.52L374.12,161.26L375.48,160.4L375.72,158.59L379.22,157.51L381.95,157.45L382.81,154.41L384.1,154.01L386.7,156.2L389.04,156.23L391.74,155.32L393.5,152.43L395.4,152.19L394.86,150.79L396.04,149.42L398.04,148.42L399.66,145.97L401.63,145.4L401.77,143.24L403.07,142.48L404.96,143.6L407.68,142.78L408.29,141.06L408.52,138.07L411.05,136.32L411.52,137.49L413.6,137.78L415.34,138.93L416.92,141.96L420.85,143.71L421.5,144.5Z" class="land" id="RO-SM" title="Satu Mare"/>
    <path d="M522.81,144.04L524.46,147.06L526.67,147.81L526.73,149.4L528.41,148.96L530.03,150.3L531.89,153.94L533.7,155.97L535.22,157.07L534.62,157.94L537.17,159.98L538.07,162.05L540.26,163.48L540.31,166.32L541.14,167.43L541.84,169.9L540.87,171.48L542.36,172.45L542.28,173.83L545.79,173.55L545.75,176.71L544.39,177.49L545.8,179.07L545.65,179.9L543.16,180.05L541.54,178.73L540.36,178.78L539.75,177.52L538.56,178.04L538.88,180.19L541.57,183.46L539.95,185.7L537.55,183.19L536.51,181.53L535.16,180.92L531.18,183.43L529.95,183.25L529.26,184.34L526.95,183.1L526.56,183.72L524.48,183.35L522.25,184.48L520.47,183.8L518.76,183.82L515.6,185.28L513.29,182.43L510.89,181.91L511.53,184.1L513.02,186.03L512.02,187.8L509.43,188.02L508.58,189.02L507.85,192.23L506.75,193.55L506.46,195.27L505.09,194.9L504.26,195.97L501.67,195.52L501.47,193.94L499.02,192.63L497.14,193.16L496.61,194.8L494.51,194.41L493.02,193.42L491.94,194.47L490.26,195.18L487.78,192.83L486.55,193.52L484.8,193.38L483.73,192.42L483.7,190.72L482.62,188.41L483.25,187.32L483.39,185.31L482.47,183.71L484.07,182.36L483.47,180.06L483.72,179.13L481.37,176.98L483.42,175.64L483.71,174.35L482.92,173.61L484.62,172.3L483.32,171.62L481.31,167.95L479.1,166.38L481.42,164.26L483.1,163.9L483.16,162.87L481.47,161.93L480.37,160.63L479.22,160.24L478.98,158.65L481.45,158.34L482.67,158.85L485.64,157.16L485.9,156.31L488.08,153.61L489.73,149.86L491.55,149.24L493.22,148.01L494.1,148.03L501.8,146.74L503.81,146.67L506.07,145.98L507.46,146.43L510.98,146.6L512.93,145.22L514.27,144.85L515.43,145.38L516.4,144.43L517.82,144.79L522.11,143.79Z" class="land" id="RO-SV" title="Suceava"/>
    <path d="M626.52,328.69L625.05,327.79L623.76,328.08L623.4,329.08L619.25,329.58L617.61,329.39L617.48,330.47L615.29,330.43L615.19,329.39L612.91,330.32L612.17,328.85L609.68,328.53L608.75,327.33L606.56,326.31L606.63,323.89L605.12,323.84L602.55,321.98L601.06,322.36L599.47,321.87L600.5,318.53L602.06,316.91L601.38,315.85L602.06,312.24L601.56,310.33L602.49,309.18L601.78,306.75L602.98,305.72L603.17,304.42L604.23,303.7L600.18,300.76L601.65,298.34L600.3,297.48L597.47,296.52L596.48,294.47L597.64,291.48L597.72,289.03L598.98,287.69L600.31,287.03L601.91,287.24L603.43,288.41L605.01,285.6L607.19,286.34L607.71,287.72L607.56,289.31L610.09,293.5L615.5,295.85L618.32,297.45L621.28,297.74L624.03,298.79L626.64,298.1L627.12,297.27L625.59,295.6L627.09,295.12L628.21,292.7L628.99,293.57L630.28,293.73L631.88,295.37L632.9,295.75L633.2,293.98L636.85,291.35L639.29,290.5L642.07,289.16L642.4,288.42L644.41,287.33L646.32,287.65L647.64,286.49L648.74,287.11L651.69,286.78L653.58,287.88L656.3,288.63L658.21,289.94L660.43,292.77L661.24,296.22L660.59,297.7L661.02,299.03L659.28,299.2L659.79,301.79L661.34,303.13L660.4,305.71L659.01,317.34L657.94,320L655.58,320.72L644.37,322.24L640.67,323.38L638.18,324.9L635.42,327.92L634.52,326.86L634.21,325.13L636,324.78L639.91,322.78L640.79,320.84L638.71,318L638.07,320.16L637.04,319.26L636.47,316.99L636.86,314.22L638.94,313.47L638.65,311.77L635.57,311.1L635.37,310.16L633.59,310.37L633.81,311.51L631.59,312.05L629.79,313.36L629.44,315.91L629.75,317.58L630.71,318.33L632.99,321.17L631.62,321.75L632.49,324.7L630.4,324.8L626.8,326.3Z" class="land" id="RO-TL" title="Tulcea"/>
    <path d="M315.37,247.32L316.52,248.24L318.23,248.25L318.54,249.28L320.6,251.23L322.65,251.53L324.82,254.04L326.38,253.71L328.02,254.49L329.68,253.96L330.28,256.2L331.26,257.33L332.7,255.43L334.36,256.91L336.55,257.83L337.19,256.13L338.46,255.8L341.02,256.5L343.77,254.88L345.77,252.55L346.82,252.49L347.34,253.78L347.19,255.53L350.77,257.13L352.75,260.27L355.41,259.04L358.12,259.78L358.92,258.37L360.53,258.21L361.39,258.83L362.85,256.87L364.29,256.42L365.73,257.65L368.19,258.45L370.47,259.65L373.86,260.83L374.69,259.62L375.85,259.24L377.17,259.85L377.85,257.69L378.82,257.7L378.96,259.22L381.3,260.64L380.05,262.44L381.5,264.45L383.37,264.62L384.07,267.92L385.74,267.49L386.61,268.46L385.5,270.61L383.68,271.09L383.5,272.53L381.98,274.56L381.08,275.48L377.22,275.78L376.2,278.78L375.43,279.15L371.78,276.68L370.79,278.5L369.58,278.75L368.37,279.87L367.29,279.83L367.67,283.07L366.62,284.46L364.56,284.52L363.25,283.95L363.8,282.68L361.99,282.09L359.04,281.64L356.35,282.16L355.62,280.87L354.13,280.43L353.62,279.4L349.97,280.1L347.76,284.26L344.75,285.14L345.17,287.52L344.09,288.62L344.7,290.93L346.72,292.44L347.09,293.8L348.29,295.08L347.55,296.73L346.87,300.13L345.54,300.72L342.11,299.16L338.18,297.83L337.53,298.52L334.77,296.53L333.92,294.21L330.72,294.85L329.42,292.91L327.68,293.3L327.45,292.37L325.51,291.02L323.97,288.3L322.06,287.48L321.94,285.72L320.62,284.89L318.22,284.88L318.13,283.79L320.59,281.83L319.14,278.97L318.01,277.63L319.53,275.19L319.2,273.56L319.45,270.77L320.24,268.66L318.72,268.05L318.36,269.81L315.5,270.02L314.88,267.43L313.61,266.65L313.98,265.69L312.1,263.75L310.94,263.46L310.47,261.18L308.4,262.18L307.15,258.77L305.76,257.82L304.16,258.1L301.88,256.18L301.72,253.44L299.05,250.72L298.66,249.41L299.65,248.01L302.19,246.69L302.69,247.76L303.95,247.32L305.35,248.12L306.42,248.03L307.61,246.67L307.79,245.44L309.54,246.16L312.74,248.94L313.82,247.74Z" class="land" id="RO-TM" title="Timiş"/>
    <path d="M489.3,341.14L490.76,343.03L492.77,342.41L493.67,340.92L495.23,339.65L494.33,337.58L496.25,337.23L498.56,338.2L498.76,339.78L499.59,340.89L499.68,342.49L500.68,343.89L499.28,346.3L499.14,347.71L500.48,348.23L502.54,348.07L505.27,348.86L504.94,349.62L506.74,350.17L507.81,351.49L506.31,356.27L507.89,357.3L507.18,359.78L505.75,359.58L504.82,361.1L505.36,362.39L504.02,362.75L504.84,371.36L504.13,371.9L506.2,374.64L506.58,379.68L506.93,381.63L502.6,384.08L499.73,384.13L497.76,385.11L495.84,385.41L494.38,384.97L491.04,382.1L488.18,381.18L485.26,381.94L483.56,381.6L480.92,379.62L478.74,379.66L476.26,380.86L473.65,380.57L471.72,381.78L470.11,381.75L467.7,379.79L467.86,378.31L468.99,377.95L469.34,376.69L470.51,376.43L470.33,374.17L469.63,372.56L468.28,371.27L467.92,369.82L466.97,368.65L465.35,365.51L465.61,364.51L468.15,363.4L470.65,362.93L470.18,361.86L473.06,360.6L475.46,359.97L475.06,358.01L473.56,356.63L473.2,354.91L474.89,353.01L474.41,352.38L474.35,349.22L475.27,348.02L474.57,347.33L473.8,344.74L475.53,345.02L476.72,344.59L479.6,344.71L480.93,343.39L482.82,343.69L488.29,341.34Z" class="land" id="RO-TR" title="Teleorman"/>
    <path d="M428.42,285.67L429.27,285.99L431.33,283.84L432.79,283.64L434.77,282.07L436.93,281.87L437.71,282.51L439.64,281.92L443.4,282.04L445.86,283.3L447.16,282.57L450.47,282.49L451.52,281.48L452.61,281.45L453.67,279.87L456.03,279.09L459.25,279.37L459.79,278.91L461.41,279.73L461.73,281.07L460.67,282.92L460.04,284.99L459.96,288.65L461.21,291.49L461.68,295.67L460.57,298.52L462.6,301.2L461.87,302.61L462.6,303.75L462.17,306.51L461.41,307.72L462.31,308.45L461.21,312.34L461.32,313.87L460.49,315.87L460.88,316.69L459.1,319.3L459.01,317.44L457.66,317.35L455.45,318.17L455.77,319.2L454.68,320.08L454.65,323.01L453.36,324.41L453.11,327.32L453.76,328.03L454.98,331.9L455.25,333.99L452.31,334.1L450.72,335.28L449.34,334.58L448.21,334.91L446.61,337.98L444.77,338.51L444.22,336.87L442.01,336.2L439.83,336.63L439.25,334L438.48,333.58L438.73,331.52L435.47,330.69L433.57,329.24L433.93,327.98L433.49,326.88L434.21,324.92L433.74,323.07L434.18,320.54L434.78,320.26L433.96,318.28L433.67,316.26L433.71,313.21L433.24,310.94L434.28,310.36L435.54,307.18L435.81,305.45L435.47,304.18L437.04,303.12L436.78,301.43L435.46,299.48L434.76,297L436.5,294.16L436.54,292.88L434.55,291.98L432.47,292.91L430.44,293.07L428.76,291.95L428.29,292.82L426.79,291.83L427.25,290.5L426.23,287.84L427.03,285.44Z" class="land" id="RO-VL" title="Vâlcea"/>
    <path d="M536.45,253.74L538.57,253.9L539.38,254.7L541.37,254.87L542.14,253.93L543.97,252.9L544.78,251.81L546.52,251.12L548.21,251.31L551.1,252.26L553.21,251.47L555.52,252.55L557.73,249.78L561.17,251.31L561.46,249.73L563.34,250.4L563.73,248.84L562.8,248.02L566.33,245.67L567.44,246.4L568.74,245.23L570.22,244.89L570.53,246.58L572.7,247.29L573.14,245.51L575.31,245.82L576.59,248L576.63,248.83L576.31,249.83L574.54,248.51L574.45,251.23L572.16,251.76L569.63,251.86L568.96,253.91L566.87,255.04L566.87,256.31L569.17,262.68L570.51,265.8L570.77,267.62L571.87,269.05L572.05,271.21L573.63,273.8L575.39,274.02L576.02,276.3L577.86,277.21L578.1,278.9L577.54,280.46L578.47,281.26L578.17,282.4L579.44,284.63L577.09,286.89L576.95,287.9L574.82,289.58L573.55,290.5L571.75,290.82L568.58,290.29L568.09,286.57L566.72,287.77L565.93,287.02L564.3,288.28L561.95,285.76L560.87,286.65L559.31,286.17L557.81,283.98L557.03,281.97L556.04,282.32L551.73,282.69L550.65,281.36L548.37,280.99L546.58,278.87L545.35,279.06L544.2,276.49L542.52,277.13L540.55,276.57L538.6,274.07L537.53,271.71L536.35,270.69L536.57,268.54L534.62,267.2L533.92,266.16L533.87,264.67L534.46,262.94L534.03,261.52L534.73,260.49L534.91,257.96L536.45,256.71Z" class="land" id="RO-VN" title="Vrancea"/>
    <path d="M565.69,206.82L566.61,207.47L569.46,207.32L572.93,206.55L573.82,207.35L578.51,207.1L578.31,205.87L581.19,206.36L582.92,205.72L581.91,204.12L581.64,202.46L582.4,200.96L583.59,201.89L586.17,204.8L587.05,206.58L589.81,206.8L593.89,210.33L594.09,209.03L595.79,208.27L596.33,209.19L597.66,209.34L601.03,208.94L601.05,210.39L602.44,211.55L604.38,217.04L605.66,218.2L606.34,222.07L605.23,223.89L605.61,224.79L604.74,227.99L606.57,230.46L606.58,232.58L605.53,233.58L604.16,236.38L603.81,239.98L602.63,240.23L600.78,244.23L602.07,245.53L602.1,247.02L601.36,247.94L601.09,250L599.6,249.66L597.39,250.35L595.85,250.12L595.32,248.35L594.31,248.66L593.23,247.68L590.83,248.5L589.17,249.88L587.97,250.03L587.23,248.84L583.82,249.18L580.83,247.89L580.69,249.52L582.27,252.79L581.41,253.16L581.39,255.15L580.27,255.89L578.94,254.93L577.98,253.13L578.52,250.3L577.66,248.89L576.63,248.83L576.59,248L577.61,245.65L576.82,245.09L575.93,239.99L576.44,237.88L575.51,235.48L575.39,233.86L574.31,232.49L574.05,231L572.81,227.63L571.22,225.02L570.73,223.53L568.71,221.35L570.2,219.77L569.68,216.54L566.72,214.74L565.61,213.7L566.38,213.14L566.16,211.45L566.41,208.67Z" class="land" id="RO-VS" title="Vaslui"/>
  </g>
</svg>