<?xml version="1.0" encoding="UTF-8"?>
<svg xmlns="http://www.w3.org/2000/svg" width="806.89" height="519.3" viewBox="76.56 -2.65 806.89 519.3" style="background-color:#000000">
  <!-- Created using SVG Map Generator: dojo.amcharts.com/svg-map-generator -->
  <style>
    .land { fill: #ffffff; stroke: #000000; stroke-width: 0.65; }
  </style>
  <g id="polygons">
    <path d="M520.32,181.05L524.59,177.66L526.94,180.97L526.82,184.4L523.93,182.89L523.61,181.49ZM513.91,61.96L512.27,68.05L509.73,71.59L507.4,72.92L506.71,76.44L503.82,77.17L503.22,80.47L504.17,84.8L505.86,84.69L506.21,87.31L504.62,88.57L508.48,92.68L507.24,94.04L508.64,101.13L506.3,105.63L507.66,107.83L509.4,108.69L509.82,112.04L511.82,113.95L511.2,120.17L513.38,122.65L513.43,125.89L517.12,125.26L519.12,126.36L516.14,129.44L515.59,132.16L513.33,134.04L509.08,136.15L510.81,139.44L510.88,144.13L512.02,145.54L511.54,148.8L509.49,151.77L510.6,154.72L511.38,159.62L510.46,162.02L510.73,164.36L512.37,165.25L513.1,167.77L512.53,173.99L511.5,174.7L503.64,172.56L502.99,169.83L499.59,164.39L499.47,161.52L498.07,159.15L497.75,156.39L495.71,151.96L494.86,146.72L492.84,144.68L491.73,141.53L492.63,139.86L490.67,138.19L484.03,136.02L482.54,139.65L480.01,139.41L478.57,144.92L476.38,146.35L475.62,149.12L475.83,151.85L473.87,151.64L471,152.95L470.41,151.49L467.93,150.18L467.97,148.85L470.7,147.99L468.8,145.52L463.74,146.32L461.95,147.63L458.92,146.85L457.22,142.86L455.47,142.07L452.53,144.19L450.92,146.22L445.03,147.5L442.46,146.95L442.58,143.01L438.79,137.25L437.08,138.73L431.77,138.42L431.02,140.56L432.79,144.55L427.85,149.14L423.78,146.92L415.8,148.85L413.97,149.82L409.88,148.23L409.18,145.23L409.07,141.11L411.6,139.15L415.25,130.54L417.04,129.39L420.01,129.39L421.41,127.27L421.41,125.08L423.3,122.05L425.5,123.46L430.44,123.88L430.79,127.87L435.06,126.57L438.1,123.75L440.65,122.68L440.44,120.4L441.63,117.4L444.46,114.31L445.08,110.78L444.37,107.23L442.12,107.1L441.27,103.59L436.4,102.39L433.06,100.06L437.52,98.18L436.9,94.72L434.03,89.56L431.96,91.42L430.61,89.35L428.88,84.35L423.05,83.77L420.91,78.27L415.71,74.79L414.54,71.19L410.18,71.04L409.64,76.02L405.62,80.58L403.1,80.92L402.48,78.3L402.68,74.92L397.03,73.03L393.95,72.56L389.19,69.59L392.87,69.12L403.47,65.03L406.2,61.96L408.08,57.05L412.57,58.52L415.04,57.16L420.4,57.21L422.38,58.97L423.75,62.62L423.14,64.51L425.2,67.68L429.57,68.62L432.3,64.95L435.04,65.63L439.96,65.37L443.24,66.84L446.62,66.11L450.5,63.56L452.39,63.46L455.54,64.93L457.12,63.48L457.83,60.1L459.79,58.16L463.54,58.05L465.74,54.95L467.93,55.56L472.15,52.62L475.21,48.55L478.19,49.18L479.11,52.22L481.58,50.7L485,49.86L486.47,51.49L488.52,50.96L492.14,52.35L491.76,55.43L492.99,57.5L498.35,61.54L503.29,61.75L507.43,62.8L510.19,59.86Z" class="land" id="CH-AG" title="Aargau"/>
    <path d="M677.2,144.81L675.66,139.96L672.36,134.35L673.23,129.88L672.01,125.68L675.12,124.09L676.08,121.37L678.05,120.48L678.17,118.29L681.48,117.08L680.17,113.71L680.35,109.95L683.96,109.58L683.99,111.12L686.79,111.23L689.8,114.18L693.15,114.86L694.39,117.37L696.02,117.58L699.29,120.01L703.19,119.07L705.86,119.78L705.7,124.4L704.09,128.66L703.2,135.29L700.49,139.8L695.38,144.32L692.49,145.99L689.27,146.98L688.1,148.57L684.53,149.53L681.11,147.08L677.83,146.14ZM706.96,107.25L707.26,105.21L709.79,103.93L709.81,100.19L711.83,99.33L712.57,97.55L715.37,98.83L716.34,96.29L722.29,96.87L726.29,96.03L721.1,99.09L721.16,102.68L714.57,107.46L711.75,106.03Z" class="land" id="CH-AI" title="Appenzell Inner-Rhoden"/>
    <path d="M677.2,144.81L673.81,146.43L669.48,143.53L667.14,141.39L664.27,140.59L662.8,141.81L658.85,141.63L653.17,138.5L656.16,135.29L655.03,131.63L654.48,127.2L658.13,123.85L656.18,121.08L653.3,121.97L651.47,118.39L652.06,116.25L654.46,115.33L656.08,111.83L655.62,110.21L658.38,107.12L661.39,105.87L665.05,105.82L670.2,107.36L674.65,105.69L677.53,105.95L682.51,104.01L687.78,105.74L692.56,103.91L694.05,100.45L694.1,96.95L697.17,97.44L699.95,95.93L702.58,95.53L710.48,91.68L710.14,89.72L711.45,88.02L720.15,89.67L725.07,92.91L728.34,94.28L726.29,96.03L722.29,96.87L716.34,96.29L715.37,98.83L712.57,97.55L711.83,99.33L709.81,100.19L709.79,103.93L707.26,105.21L706.96,107.25L705.2,113.92L705.86,119.78L703.19,119.07L699.29,120.01L696.02,117.58L694.39,117.37L693.15,114.86L689.8,114.18L686.79,111.23L683.99,111.12L683.96,109.58L680.35,109.95L680.17,113.71L681.48,117.08L678.17,118.29L678.05,120.48L676.08,121.37L675.12,124.09L672.01,125.68L673.23,129.88L672.36,134.35L675.66,139.96Z" class="land" id="CH-AR" title="Appenzell Ausser-Rhoden"/>
    <path d="M431.96,91.42L430.35,94.8L430.88,97.73L433.06,100.06L428.15,102.86L428.53,104.04L423.59,106.31L420.26,104.19L419.04,104.4L416.61,107.05L418.36,109.58L411.35,112.61L409.78,115.07L404.98,115.96L404.02,117.35L403.31,121.08L401.7,122.05L396.09,120.77L392.66,117.01L391.63,114.21L386.51,113.19L376.65,114.55L375.4,109.58L374.67,103.25L379.26,103.44L383.08,100.9L384.14,97.08L384.16,92.89L388.23,87.44L386.78,85.19L381.27,83.7L380.41,81.86L376.05,84.38L371.15,82.52L369.62,87.57L373.11,89.35L371.45,97.13L367.54,97.36L363.25,96.32L363.04,102.42L359.87,102.21L355.69,102.96L356.66,105.19L354.5,109.09L351.55,110.08L347.39,108.69L346.98,105.79L343.23,104.9L341,105.63L341.1,108.98L339.69,111.49L336.25,110.1L335.65,107.41L333.19,106.89L331.35,105.24L330.57,102.47L336.89,103.23L338.31,102.18L341.65,102.28L343.26,98.75L340.04,94.09L337.12,94.2L338.55,90.85L341.05,90.09L343.21,93.12L350.89,90.43L352.73,90.77L356.61,90.03L356.06,86.73L357.76,83.93L356.88,80.53L354.33,80.63L352.7,79.5L351.97,76.2L355.16,75.21L356.43,72.4L354.4,70.93L351.37,72.61L350.65,70.54L352.06,68.47L354.13,68.05L355.62,66.39L361.09,62.98L362.6,64.93L363.52,68.44L366.05,68.86L366.07,71.48L368.21,74.58L370.6,70.75L372.4,69.49L372.92,66.81L372.03,64.53L374.92,63.9L377.54,67.63L379.38,68.31L380.57,70.51L383.27,71.59L385.75,71.56L389.19,69.59L393.95,72.56L397.03,73.03L402.68,74.92L402.48,78.3L403.1,80.92L405.62,80.58L409.64,76.02L410.18,71.04L414.54,71.19L415.71,74.79L420.91,78.27L423.05,83.77L428.88,84.35L430.61,89.35Z" class="land" id="CH-BL" title="Basel-Landschaft"/>
    <path d="M286.77,232.85L287.19,234.56L283.72,235.05L283.07,232.33L286.54,231.4ZM320.71,95.43L322.35,95.51L324.78,97.29L330.04,97.91L329.06,102.28L326.04,101.39L322.89,98.39L320.27,97.63ZM238.17,167.28L239.96,165.04L242.05,171.36L245.98,169.57L251.49,165.17L252.25,162.54L257.27,163.27L259.06,165.14L261.54,161.96L261.97,160.17L266.85,159.59L271,151.51L273.01,150.44L273.21,147.42L276.64,146.14L279.69,148.52L285.26,146.77L287.44,147.03L290.06,146.09L287.87,144L289.11,140.38L292.42,139.05L292.65,136.65L291.58,134.04L297.48,133.51L300.79,135.13L305.23,136.18L309.13,135.71L311.5,136.52L318.48,135.65L322.34,130.96L326.83,130.09L329.95,128.4L334.39,129.1L337.33,130.43L340.78,130.04L346.8,130.46L348.52,131.82L350.84,131.58L355.64,128.37L361.43,126.41L356.12,126.39L357.28,123.15L360.4,120.35L361.91,121.27L363.87,124.48L361.43,126.41L359.73,127.98L359.34,130.41L356.91,133.85L354.75,133.98L348.56,136.49L345.32,141.47L340.38,142.18L336.45,144.53L337.1,147.29L333.63,149.51L328.87,151.51L326.67,153.57L322.83,154.02L325.31,160.77L329.54,161.94L331.9,167.22L335.61,168.34L336.71,166.03L340.75,163.84L343.32,161.42L346.36,162.43L347.3,165.14L350.56,166.26L349.81,168.08L345.26,171.18L342.32,170.04L340.45,171.42L340.41,173.19L337.97,173.99L338.48,178.26L334.16,179.87L330.94,177.9L328.2,178.99L330.25,185.57L331.65,186.66L339.28,184.43L339.26,187.83L340.77,191.21L345.48,189.97L346.63,187.68L345.33,185.96L344.31,182.42L349.55,180.16L353.02,177.69L355.34,172.56L354.98,169.31L357.2,167.8L359.29,168.74L361.53,166.78L364.45,167.85L367.07,171L371.34,170.27L375.89,170.51L377.96,171.34L378,168.32L379.34,166.57L381.79,166.55L382.55,162.85L382.03,160.92L377.87,156.65L376.51,151.93L372.19,150.86L371.25,148.85L368.08,146.43L368.44,144.24L367.73,141.16L365.71,138.34L371.87,137.12L376.48,137.04L379.79,135.58L384.6,134.79L386.76,135.73L391.06,140.3L392.36,142.88L396.99,142.83L398.09,140.95L401.74,143.77L404.29,140.77L406.87,142.41L409.07,141.11L409.18,145.23L409.88,148.23L412.88,155.53L417.83,165.66L417.96,170.61L420.17,173.89L419.58,176.96L416.65,178.91L416.38,181.38L418.68,187.39L418.04,191.08L416.01,196.49L417.46,199.71L420.79,203.04L422.03,205.66L422.22,208.67L425.55,207.63L427.76,209.29L430.83,208.62L430.61,211.97L431.25,215.26L429.91,216.38L430.14,218.64L427.68,220.53L427.68,223.07L425.8,224.42L424.49,227.74L421.78,227.35L417.19,229.84L416.19,232.54L418.47,233.83L418.91,235.31L416.36,239.76L414.33,241.06L414.52,243.75L416.63,245.7L416.27,249.14L418.22,252.84L426.06,257.21L430.24,260.94L431.73,264.66L433.98,265.98L435.16,267.89L437.15,268.75L439.38,267.02L443.63,265.1L448.44,265.49L452.25,265.18L455.61,265.67L457.93,269.19L461.4,270.01L465.63,273.94L473.35,270.07L476.98,270.22L479.14,272.39L482.95,270.61L485.71,271.51L487.27,273.58L489.85,274.46L499.32,267.33L503.43,266.86L505.06,265.49L506.71,265.98L509.73,269.55L513.19,268.85L519.05,269.83L519.13,271.56L517.74,277.04L519.47,280.25L519.06,284.46L520.32,285.46L519.86,290.96L515.54,291.58L510.48,289.95L510.18,294.47L512,296.72L512.46,300.17L510.41,299.81L507.03,304.94L505.63,305.23L505.13,311.34L503.91,313.22L504.76,317.8L501.15,322.72L499.01,323.98L495.69,324.55L493.61,327.79L490.77,328.57L489.98,329.85L482.61,332.86L479.73,332.74L473.48,333.84L470.48,333.28L470.7,331.6L467.67,331.68L462.34,330.16L460.13,327.69L454.66,326.22L453.26,325.27L450.78,326.09L445.47,323.52L441.98,323.47L439.18,324.52L437.06,327.61L435.29,327.48L433.15,330.11L434.92,333.35L433.93,336.13L431.62,337.67L429.46,337.73L427.76,340.07L424.1,343.02L416.93,345.24L412.68,344.93L408.54,348.27L403.9,350.27L400.38,354.15L392.85,359.27L387.93,361.5L385.59,359.29L382.57,357.7L375.02,354.72L370.69,355.8L370.63,358.03L368.63,359.63L367.94,362.35L364.63,360.96L357.02,362.91L356.13,365.27L360.91,368.17L358.56,369.36L358.01,371.07L355.89,371.84L352.4,371.56L351.02,373.1L348.95,372.97L348.04,369.92L341.14,369.87L332.2,372.26L330.22,374.38L325.26,378.18L318.41,379.8L317.18,378L317.86,374.95L317.54,371.9L315.24,374.36L313.96,373.95L309.01,376.13L308.79,380.85L307.22,383.44L303.66,384.34L301.76,383.59L301.84,379.08L301.3,376.46L299.25,371.28L296.86,369.87L299.3,364.61L299.66,361.29L296.63,356.59L302.49,353.95L303.45,348.37L302.22,343.1L305.73,339.66L306.67,335.15L305.87,329.34L304.53,325.73L307.91,324.14L312.42,317.78L315.2,319.01L317.18,318.42L319.38,315.9L318.41,313.73L318.87,309.07L317.88,308.24L318.05,304.61L320.9,303.14L319.47,299.76L323.81,299.6L325.49,302.08L327.74,300.95L329.49,292.41L329.35,290.03L326.44,288.66L323.82,288.48L324.48,284.97L319.86,283.76L317.11,283.73L315.04,280.43L316.62,276.32L316.41,273.01L314.12,269.37L315.77,267.43L317.61,260.06L319.43,257.01L319.27,255.64L321.33,254.01L319.66,251.81L316.16,248.91L317.96,246.65L320.64,246.84L320.27,248.98L322.46,249.55L326.27,246.14L325.03,242.8L325.26,240.05L320.28,238.13L317.18,238.7L314.97,238.13L312.62,239.22L308.74,237.1L305.87,236.42L304.49,237.12L302.3,235.75L299.73,235.8L298.99,230.85L300.33,229.09L298.63,226.65L299.85,225.38L300.6,219.08L304.03,214.69L302.01,212.18L300.97,208.72L298.97,208.8L297.5,210.44L290.26,214.12L279.28,216.67L271.46,216.28L269.86,215.81L267.05,208.85L268.59,206L268.53,202.36L271.54,199.32L273.95,198.85L277.95,195.14L276.22,190.72L277.97,188.2L276.13,185.47L272.71,184.58L269.76,182.14L267.7,183.54L266.78,181.36L267.19,178.16L263.91,178.16L260.57,179.95L254.05,181.07L251.47,182.11L250.19,181.07L248.1,183.13L239.02,188.25L240,183.59L241.57,182.16L242.9,176.23ZM303.43,226.81L300.74,228.54L301.32,230.18L304.07,228.83ZM385.91,169.33L384.55,167.04L382.87,167.95L382,170.19L384.76,170.53Z" class="land" id="CH-BE" title="Bern"/>
    <path d="M374.92,63.9L372.03,64.53L372.92,66.81L372.4,69.49L370.6,70.75L368.21,74.58L366.07,71.48L366.05,68.86L363.52,68.44L362.6,64.93L361.09,62.98L362.77,59.83L365.82,60.28L367.13,56.63L369.7,57.6L370.08,59.57L372.51,59.73L377.15,55.11L381.82,56.08L383.54,60.54L382.44,63.19L379.73,63.01L377.43,64.37Z" class="land" id="CH-BS" title="Basel-Stadt"/>
    <path d="M303.43,226.81L304.07,228.83L301.32,230.18L300.74,228.54ZM238.97,233.88L244.3,240.67L246.83,241.42L248.71,243.78L247.34,245.2L250.32,248.62L247.15,251.73L245.61,255.35L246.85,259.05L250.49,260.84L247.96,265.02L248.02,266.19L244.21,267.74L241.11,268.28L238.54,267.09L237.71,265.26L233.53,268.46L229.9,267.77L228.06,265.85L226.88,266.52L223.42,263.71L223.46,261.97L217.03,254.99L223.76,248.41ZM232.08,275.03L232.4,273.66L234.97,271.38L235.91,268.7L241.82,275.26L238.42,280.09L235.62,280.92L232.98,278.85L230.51,279.34L228.98,280.92L226.01,281.36L226.1,278.7L229.89,278.31ZM223.02,275.18L224.82,275.65L224.13,279.47L222.15,282.49L218.15,279.73ZM271.46,216.28L279.28,216.67L290.26,214.12L297.5,210.44L298.97,208.8L300.97,208.72L302.01,212.18L304.03,214.69L300.6,219.08L299.85,225.38L298.63,226.65L300.33,229.09L298.99,230.85L299.73,235.8L302.3,235.75L304.49,237.12L305.87,236.42L308.74,237.1L312.62,239.22L314.97,238.13L317.18,238.7L320.28,238.13L325.26,240.05L325.03,242.8L326.27,246.14L322.46,249.55L320.27,248.98L320.64,246.84L317.96,246.65L316.16,248.91L319.66,251.81L321.33,254.01L319.27,255.64L319.43,257.01L317.61,260.06L315.77,267.43L314.12,269.37L316.41,273.01L316.62,276.32L315.04,280.43L317.11,283.73L319.86,283.76L324.48,284.97L323.82,288.48L326.44,288.66L329.35,290.03L329.49,292.41L327.74,300.95L325.49,302.08L323.81,299.6L319.47,299.76L320.9,303.14L318.05,304.61L317.88,308.24L318.87,309.07L318.41,313.73L319.38,315.9L317.18,318.42L315.2,319.01L312.42,317.78L307.91,324.14L304.53,325.73L302.14,327.25L299.52,331.24L296.74,327.64L293.92,330.44L290.58,332.63L288.79,332.25L286.68,337.47L284.38,340.09L281.32,342.28L278.41,342.97L274.15,342.48L271.42,344.39L266.14,349.99L265.54,353.05L260.67,355.59L261.1,352.92L258.85,349.89L258.64,346.52L257.52,341.76L253.79,338.86L251.11,339.24L247.08,336.23L244.42,335.8L241.59,336.29L238.72,339.55L238.22,341.1L235.6,341.1L231.5,336.34L229.11,332.94L230.42,330.03L236.49,328.75L238.07,330.44L242.77,324.42L245.24,323.67L244.53,321.23L240.3,322.67L239.32,320.02L235.78,317.8L233.5,319.84L230.93,317.7L227.16,320.17L227.9,311.44L227.73,306.49L226.73,304.94L228.54,300.58L230.35,301.07L231.92,298.55L234.05,297.57L236.72,299.45L239.92,294.81L240.19,292.33L243.47,289.05L243.59,287.37L246.95,283.37L248.51,282.73L251.43,279.16L252.16,276.73L248.49,272.65L250.53,268.64L252.44,266.39L255.06,265.46L254.92,263.91L256.8,261.61L254.96,258.46L256.27,255.17L260.04,256.64L260.23,253.33L258.55,248.28L259.13,245.07L260.71,243.29L257.98,239.66L255.27,241.19L253.1,240.78L249.73,236.09L244.4,229.76L250.19,222.71L256.48,230.02L258.76,230.2L260.5,231.71L259.36,234.01L264.46,239.22L261.56,241.89L264.18,243.39L266.5,242.56L269.03,243.39L267.97,245.2L269.67,246.78L267.93,249.29L269.44,250.64L272.09,247.92L275.19,243.6L273.58,240.67L277.4,237.51L278.84,235.59L278.08,233.86L272.89,226.31L273.56,224.99L272.91,219.49L273.93,218.09ZM286.77,232.85L286.54,231.4L283.07,232.33L283.72,235.05L287.19,234.56Z" class="land" id="CH-FR" title="Fribourg"/>
    <path d="M107.66,386.54L109.62,388.98L112.74,391.31L120.76,395.13L124.53,388.08L129.38,390.23L130.18,393.59L127.56,396.94L129.79,400.84L132.92,404.5L137.56,402.17L140.29,402.37L140.32,405.45L137.77,410.28L134.36,412.74L130.8,414.04L129.4,415.43L127.11,415.02L120.65,420.72L118.63,421.82L118.9,425.07L116.83,426.91L112.54,428.72L108.21,432.12L107.27,431.35L103.02,430.94L101.41,429.03L98.79,429.77L94.68,429.03L93.6,431.53L91.26,432.37L88.2,431.25L82.43,431.23L81.35,433.78L79.3,434.52L79.22,430.87L82.09,425.09L83.54,424.02L84.54,421.08L83.9,419.93L79.21,417.57L81.95,412.43L84.08,412.87L88.5,408.49L91.53,406.78L93.44,408.57L96.27,405.06L97.58,405.96L100.74,404.5L103.83,406.83L107.18,403.7L106.67,400.2L105.06,398.71L104.05,395.02L107.02,390.69L106.7,388.1ZM126.72,383.31L121.48,380.95L115.91,376.13L117.63,374.46L121.34,377.05L122.64,377.18L128.34,379.98Z" class="land" id="CH-GE" title="Genève"/>
    <path d="M617.83,165.25L626.51,174.59L628.9,176.83L634.58,176.08L640.73,176.44L650.41,178.24L650.5,182.74L649.84,184.63L650.53,187.03L650.66,191.89L649.08,195.45L646.59,197.63L645.13,197.76L641.51,200.33L644.37,202.54L648.89,203.71L652.55,201.35L656.62,202.33L659.56,205.87L661.07,210.93L660.11,213.03L660.29,216.22L659.58,218.97L659.9,221.52L658.52,222.01L659.26,226.11L661.4,229.14L660.66,232.04L659.09,234.14L656.87,234.69L652.66,240.8L649.83,242.25L647.49,241.6L643.75,241.63L641.52,246.24L639.17,247.07L636.44,249.27L633.43,243.7L630.09,242.67L627.61,242.87L624.76,245.1L624.81,249.32L623.61,250.02L620.15,257.81L618.14,259.36L612.17,260.27L603.9,263.14L601.72,262.46L601.35,259.21L598.71,258.46L594.91,258.82L595.63,254.96L593.99,251.29L597.94,249.5L600.24,246.52L601.88,246.5L608.79,242.69L609.07,239.2L608.24,236.45L606.66,234.61L605.19,231.03L607.53,229.61L610.08,229.32L608.86,226.21L610.06,222.01L609.21,220.01L607.04,218.66L604.66,214.69L606.15,214.12L604.18,210.98L601.19,207.97L600.93,205.92L598.2,204.93L599.71,203.35L599.6,200.46L603.16,200.46L607.78,197.58L608.66,193.86L612.45,188.2L608.73,186.56L609.83,184.43L611.71,183.44L612.17,180.68L610.77,179.09L611.11,175.06L615.64,167.93Z" class="land" id="CH-GL" title="Glarus"/>
    <path d="M645.15,424.32L641.01,421.72L640.02,419.29L637.42,416.09L632.21,412.97L630.33,406.75L630.39,401.02L628.07,397.94L626.33,393.33L630.12,387.69L628.16,384.31L629.32,379.85L632.44,377.54L633.68,372.31L632.33,368.46L633.75,365.48L632.67,364.04L635.03,362.42L632.6,357.01L632.23,354.03L633.61,349.81L631.34,345.47L629.66,344.8L627.39,345.72L625.15,344.64L622.88,339.37L620.86,336.9L620.86,334.48L619.8,332.12L620.72,329.85L620.24,327.05L621.41,322.46L624.23,317.91L622.69,313.81L619.53,312.98L617.52,310.85L613.8,311.52L611.76,313.17L609.99,313.09L610.04,308.94L609.14,306.13L606.4,309.02L603.05,307.8L600.06,309.92L600.2,312.34L601.71,315.72L599.58,317.85L592.5,320.74L589.17,323.03L587.01,323.39L586.46,321.13L581.28,322.98L574.81,320.25L572.16,319.97L570.51,320.84L568.48,319.63L566.37,321.13L563.18,318.52L559.77,319.04L560.28,316.46L559.48,314.09L559.91,312.08L559.41,308.53L556.26,307.11L554.95,304.79L555.48,300.84L559.71,296.92L558.86,295.32L558.86,290.29L561.15,289.36L562.19,287.35L565.09,288.17L566.63,286.34L568.41,286.03L571.82,283.4L571.29,280.45L573.7,277.17L575.65,276.47L578.05,280.71L583.49,278.44L583.08,276.32L584.53,271.85L586.64,269.68L585.9,265.28L587.31,263.42L589.56,262.67L594.91,258.82L598.71,258.46L601.35,259.21L601.72,262.46L603.9,263.14L612.17,260.27L618.14,259.36L620.15,257.81L623.61,250.02L624.81,249.32L624.76,245.1L627.61,242.87L630.09,242.67L633.43,243.7L636.44,249.27L639.17,247.07L641.52,246.24L643.75,241.63L647.49,241.6L649.83,242.25L652.66,240.8L656.87,234.69L659.09,234.14L660.66,232.04L663.88,235.44L665.62,234.3L671.28,234.66L672.75,235.96L676.58,235.67L679.96,236.79L684.38,236.84L689.2,238.16L693.22,240L696.14,243.16L699.26,239.66L699.27,236.37L703.04,232.85L701.43,231.99L701.65,229.4L704.04,226.21L706,222.04L708.46,221.26L709.05,217.13L713.21,216.09L708.87,210.7L706.51,205.43L701.75,198.28L701.01,196.57L702.81,197.5L708.46,194.64L712.16,193.42L713.33,193.81L715.83,197.63L720,196.52L724.43,194.59L726.45,196.52L728.93,197.03L730.95,194.93L735.81,194.93L737.23,194.12L738.81,196.02L744.03,199.06L748.12,199.4L749.29,200.75L755.41,200.46L760.6,204.75L764.19,206.7L768.28,205.87L769.17,204.41L772.46,205.06L771.13,207.84L774.21,210.38L774.82,213.19L771.91,217.05L771.05,219.86L772.43,221.36L771.68,223.31L772,226.94L778.27,229.74L779.44,231.08L783,233L786.43,232.3L790.29,232.77L790.5,235L794.82,236.76L797.27,236.66L799.57,239.66L803.02,242.69L802.86,245.33L804.49,246.63L807.07,246.32L810.19,247.35L810.31,249.19L812.63,251.65L815.68,249.84L818.58,250.07L819.66,249.09L823.8,249.24L828.23,245.07L829.98,245.62L834.78,245.13L835.43,240.39L833.84,237.2L835.17,235.72L836.69,231.32L836.75,228.13L840.75,228.8L845.37,230.31L849.92,229.55L848.02,225.95L848.66,223.15L851.74,222.29L853.17,217.16L856.63,212.25L859.62,212.64L862.06,210.23L864.35,211.06L866.9,214.67L869.37,216.48L868.7,220.48L869.82,221.49L874.61,222.81L878.15,225.38L880.42,226.24L879.89,230.36L878.38,233.83L878.01,238.24L876.15,240.15L877.18,242.98L876.61,246.06L877.13,249.61L874.97,254.08L874.6,258.53L871.78,263.4L868.22,264.64L871.73,269.42L872.45,272.65L870.79,274.92L864.88,279.47L867.76,283.4L866.91,286.57L865.2,287.32L862.26,293.18L863.09,295.74L863.18,299.4L865.05,304.81L872.95,303.73L876.05,306.18L880.79,310.82L879.61,312.91L880.1,317.55L878.53,321.38L878.65,325.09L877.77,328.51L875.52,329.18L874.17,331.6L871.85,330.42L868.22,326.71L866.61,326.56L863.9,328.13L859.48,325.58L855.94,325.4L854.5,328.21L851.72,326.43L848.91,327.46L846.2,326.56L846.23,324.32L844.53,321.18L841.22,319.55L838.66,321.02L837.35,319.79L836.48,315.97L839.63,310.95L836.32,306.54L834.09,305.59L831.42,309.12L828.02,308.04L827.22,306.9L823.15,309.35L820.71,309.89L816.76,312.26L811.85,311L811.07,315.23L811.57,318.47L809.82,320.12L808.22,323.34L806.65,324.42L804.58,327.72L801.64,329.26L803.34,333.51L803.11,335.8L801.27,337.52L802.29,339.68L802.29,343L801.3,344.82L802.86,346.62L803.16,349.32L800.81,353.59L803.87,354.9L804.24,357.49L807.39,357.93L808.1,359.7L811.22,359.78L812.86,358.06L814.44,358.44L816.7,357.16L819.93,359.29L820.12,362.09L822.09,361.04L822.56,367.97L818.67,368.69L816.51,370.84L816.6,375.03L813.77,377.28L812.4,382.62L814.38,387.34L818.05,389.72L819.09,391.79L820.9,392.59L822.44,395.33L822.4,397.71L823.95,399.12L824.87,402.48L820.4,406.34L819.54,408.57L815.18,410.26L811.87,409.39L808.28,409.72L806.81,411.56L801.78,408.8L803.13,407.49L804.47,403.88L803.55,399.81L798.95,396.82L793.9,395.25L792.49,391.97L793.78,390.51L793.02,387.31L790.43,385.05L792.89,380.28L793.1,377.62L791,377.49L787.46,374.46L785.12,370.51L779.15,372.38L777.19,370.15L773.67,371.9L771.15,374.59L769.59,374.26L764.9,374.9L762.39,377.64L756.46,380.03L754.32,381.85L752.49,381.36L748.65,377.69L744.95,379.93L745.27,382.23L743.89,383.9L744.79,388.1L743.29,390.1L742.93,392.56L738.54,392.46L736.79,390.41L733.71,391.69L730.1,394.31L726.25,393.87L724.94,392.56L719.62,392.1L715.19,389.05L713.51,390.31L711.44,388.33L708.32,383.98L707.08,380.9L706.78,378L705.29,376.75L704.9,373.64L702.16,373.67L698.46,371.67L699.34,368.64L698.58,362.09L696.99,359.8L698.28,353.51L697.63,349.91L698.88,347.39L698.8,344.95L697.31,342.38L698.26,340.63L698.25,337.98L693.63,339.45L691.64,342.2L691.45,345.29L688.69,347.78L685.27,345.88L682.79,343.23L681.76,340.07L682.72,339.01L680.38,337.06L679.13,338.24L675.39,337.65L672.7,338.09L665.58,340.38L664.77,343.69L665.03,349.5L663.44,351.92L660.38,352.77L660.5,356.59L663.83,360.06L665.33,360.14L666.27,363.3L665.39,365.66L666.64,368.77L665.03,372.82L666.56,375.87L668.77,377L669.18,379.87L668.27,382.69L669.16,384.11L667.99,386.59L666.43,387.59L666.75,391.44L662.57,395.82L661.07,399.25L660.41,407.67L655.44,408.03L655.1,412.41L651.93,414.89L650.75,418.88L650.75,421.51L648.36,424.35Z" class="land" id="CH-GR" title="Graubünden"/>
    <path d="M320.71,95.43L320.27,97.63L322.89,98.39L326.04,101.39L329.06,102.28L330.57,102.47L331.35,105.24L333.19,106.89L335.65,107.41L336.25,110.1L339.69,111.49L343.25,113.48L348.91,114.05L354.43,113.32L354.91,115.18L358.13,116.56L358.01,119.78L360.4,120.35L357.28,123.15L356.12,126.39L361.43,126.41L355.64,128.37L350.84,131.58L348.52,131.82L346.8,130.46L340.78,130.04L337.33,130.43L334.39,129.1L329.95,128.4L326.83,130.09L322.34,130.96L318.48,135.65L311.5,136.52L309.13,135.71L305.23,136.18L300.79,135.13L297.48,133.51L291.58,134.04L292.65,136.65L292.42,139.05L289.11,140.38L287.87,144L290.06,146.09L287.44,147.03L285.26,146.77L279.69,148.52L276.64,146.14L273.21,147.42L273.01,150.44L271,151.51L266.85,159.59L261.97,160.17L261.54,161.96L259.06,165.14L257.27,163.27L252.25,162.54L251.49,165.17L245.98,169.57L242.05,171.36L239.96,165.04L238.17,167.28L237.53,167.51L234.42,165.9L238.35,163.79L241.31,158.55L246.67,153.83L248.63,153.13L249.77,151.23L252.1,150.37L254.6,147.42L253.24,145.15L254.02,140.33L252.09,136.28L253.43,134.87L257.96,134.85L258.39,133.57L261.9,133.8L263.93,132.29L265.29,128.94L264.32,125.97L270.66,125.39L272.36,123.59L273.46,120.9L271.44,119.93L271.15,116.12L268.59,115.62L268.32,114.18L264.55,113.56L261.49,115.86L248.9,117.82L245.45,116.82L241.93,118.65L241.22,117.08L242.07,113.03L247.2,109.29L248.58,104.93L251.45,104.74L252.1,102.15L252.07,97.44L255.27,97.47L257.5,94.15L261.47,93.6L262.62,88.67L260.12,85.92L259.51,81.63L264.11,79.53L267.31,79.63L273.28,81.31L276.59,83.07L278.82,81.47L282.98,81.23L285.25,79.11L286.91,79.43L290.77,82.49L293.82,82.78L296.75,81.76L293.94,88.38L293.94,91.32L292.93,94.43L296.4,95.77L297.32,96.89L303.66,95.95L306.1,100.66L310.48,99.04L312.39,97.26L314.33,97.5L316.14,96.08Z" class="land" id="CH-JU" title="Jura"/>
    <path d="M409.88,148.23L413.97,149.82L415.8,148.85L423.78,146.92L427.85,149.14L432.79,144.55L431.02,140.56L431.77,138.42L437.08,138.73L438.79,137.25L442.58,143.01L442.46,146.95L445.03,147.5L450.92,146.22L452.53,144.19L455.47,142.07L457.22,142.86L458.92,146.85L461.95,147.63L463.74,146.32L468.8,145.52L470.7,147.99L467.97,148.85L467.93,150.18L470.41,151.49L471,152.95L473.87,151.64L475.83,151.85L475.62,149.12L476.38,146.35L478.57,144.92L480.01,139.41L482.54,139.65L484.03,136.02L490.67,138.19L492.63,139.86L491.73,141.53L492.84,144.68L494.86,146.72L495.71,151.96L497.75,156.39L498.07,159.15L499.47,161.52L499.59,164.39L502.99,169.83L503.64,172.56L511.5,174.7L512.53,173.99L512.99,178.11L515.74,178.5L518.8,176.91L519.65,180.73L513.65,184.32L512.02,186.33L511.5,189.84L508.48,192.17L508.65,194.59L510.44,194.96L515.82,193.4L517.51,193.92L522.87,198.28L528.31,204L530.47,204.88L529.88,208.72L528.11,210.07L523.68,211.5L522.59,211.14L522.98,208L515.22,205.92L515.12,210.83L511.24,210.2L508.07,210.9L507.45,205.79L504.74,205.27L498.88,213.14L496.37,210.64L492.01,210.9L490.91,211.84L486.84,210.93L483.71,213.81L480.27,212.38L478.45,215.68L480.42,217.73L475.49,219.18L472.91,218.07L466.54,221.44L468.41,225.48L467.86,227.17L463.67,230.59L461.44,234.06L456.32,233.91L451.68,239.76L452.46,243.26L451.33,247.15L447.93,250.93L447.33,252.81L451.17,260.14L448.44,265.49L443.63,265.1L439.38,267.02L437.15,268.75L435.16,267.89L433.98,265.98L431.73,264.66L430.24,260.94L426.06,257.21L418.22,252.84L416.27,249.14L416.63,245.7L414.52,243.75L414.33,241.06L416.36,239.76L418.91,235.31L418.47,233.83L416.19,232.54L417.19,229.84L421.78,227.35L424.49,227.74L425.8,224.42L427.68,223.07L427.68,220.53L430.14,218.64L429.91,216.38L431.25,215.26L430.61,211.97L430.83,208.62L427.76,209.29L425.55,207.63L422.22,208.67L422.03,205.66L420.79,203.04L417.46,199.71L416.01,196.49L418.04,191.08L418.68,187.39L416.38,181.38L416.65,178.91L419.58,176.96L420.17,173.89L417.96,170.61L417.83,165.66L412.88,155.53Z" class="land" id="CH-LU" title="Luzern"/>
    <path d="M238.17,167.28L242.9,176.23L241.57,182.16L240,183.59L239.02,188.25L248.1,183.13L250.19,181.07L251.47,182.11L254.05,181.07L260.57,179.95L263.91,178.16L267.19,178.16L266.78,181.36L267.7,183.54L269.76,182.14L272.71,184.58L276.13,185.47L277.97,188.2L276.22,190.72L277.95,195.14L273.95,198.85L271.54,199.32L268.53,202.36L268.59,206L267.05,208.85L269.86,215.81L263.22,213.89L250.19,222.71L244.4,229.76L238.97,233.88L223.76,248.41L219.44,243.96L216.11,242.85L216.66,237.51L213.35,234.79L212.73,231.97L213.72,228.18L213.14,226.78L204.32,230.7L200.21,233.55L196.64,239.32L194.57,239.25L191.5,240.59L189.18,240.59L180.79,244.97L178.31,247.59L170.81,250.23L166.84,248.72L167.57,238.96L166.52,236.24L161.9,229.22L165.09,227.04L169.43,221.15L173.41,217.24L174.84,219.34L177.69,217.83L180.53,217.39L187.27,214.82L190.72,212.49L193.54,212.9L197.59,210.98L199.81,208.2L202.39,203.3L205.19,201.4L208.64,200.8L212.8,197.35L209.79,195.09L209.62,192.28L211.28,188.64L213.99,186.74L217.35,186.3L216.82,182.37L221.51,179.28L222.93,179.22L228.13,176.88L232.08,172.93L234.15,171.68L237.53,167.51Z" class="land" id="CH-NE" title="Neuchâtel"/>
    <path d="M480.42,217.73L478.45,215.68L480.27,212.38L483.71,213.81L486.84,210.93L490.91,211.84L492.01,210.9L496.37,210.64L498.88,213.14L504.74,205.27L507.45,205.79L508.07,210.9L511.24,210.2L515.12,210.83L515.22,205.92L522.98,208L522.59,211.14L522.14,214.51L527.4,216.46L531.69,215.68L535.94,215.68L540.89,212.82L541.44,214.93L538.01,219.88L538.34,225.35L536.84,226.18L536.2,229.06L531.76,230.57L528.82,232.74L525.84,231.6L524.87,234.27L521.88,235.49L524.52,240.96L522.62,242.64L523.15,248.13L514.04,248.85L512.83,244.22L510.27,245.62L507.86,245.2L505.86,243.03L505.04,249.58L505.5,253.36L506.48,255.3L506.23,257.73L508.42,259.26L507.87,261.33L510.14,263.55L513.97,265.13L513.33,267.97L509.73,269.55L506.71,265.98L505.06,265.49L501.78,263.27L496.7,257.08L499.08,255.17L497.89,250.3L498.93,244.97L497.96,242.2L499.62,238.78L499.34,235.33L500.53,233.37L500.01,228.85L494.54,230.13L490.84,227.69L494.01,221.96L494.77,218.69L492.99,216.28L489.87,216.72L484.79,215.68Z" class="land" id="CH-NW" title="Nidwalden"/>
    <path d="M509.73,269.55L513.33,267.97L513.97,265.13L510.14,263.55L507.87,261.33L508.42,259.26L506.23,257.73L506.48,255.3L505.5,253.36L505.04,249.58L505.86,243.03L507.86,245.2L510.27,245.62L512.83,244.22L514.04,248.85L523.15,248.13L524.39,247.53L528.02,248.65L529.46,250.54L528.41,252.25L526.36,252.94L525.47,255.32L525.1,263.76L526.73,269.24L524.96,270.38L522.13,270.22L519.13,271.56L519.05,269.83L513.19,268.85ZM480.42,217.73L484.79,215.68L489.87,216.72L492.99,216.28L494.77,218.69L494.01,221.96L490.84,227.69L494.54,230.13L500.01,228.85L500.53,233.37L499.34,235.33L499.62,238.78L497.96,242.2L498.93,244.97L497.89,250.3L499.08,255.17L496.7,257.08L501.78,263.27L505.06,265.49L503.43,266.86L499.32,267.33L489.85,274.46L487.27,273.58L485.71,271.51L482.95,270.61L479.14,272.39L476.98,270.22L473.35,270.07L465.63,273.94L461.4,270.01L457.93,269.19L455.61,265.67L452.25,265.18L448.44,265.49L451.17,260.14L447.33,252.81L447.93,250.93L451.33,247.15L452.46,243.26L451.68,239.76L456.32,233.91L461.44,234.06L463.67,230.59L467.86,227.17L468.41,225.48L466.54,221.44L472.91,218.07L475.49,219.18Z" class="land" id="CH-OW" title="Obwalden"/>
    <path d="M707.79,67.08L696.51,79.61L696.6,81.84L699.49,82.94L705.4,79.82L712.76,73.58L716.55,78.56L716.75,81.31L719.6,83.88L722.25,89.22L725.23,87.91L726.56,90.17L733.34,92.02L733.39,93.41L731.28,95.66L730.95,97.31L731.99,100.82L732.1,104.22L733.44,106.55L735.92,108.22L735.12,112.33L732.56,114.24L727.28,114.76L723.05,120.06L721.23,126.57L720.15,128.76L715.56,132.21L713.6,137.38L710.8,139.73L710.55,142.52L708.89,147.21L705.93,152.35L705.31,155.35L703.52,159.54L702.9,162.95L703.77,167.72L707.08,174.51L708.85,183.62L707.59,188.25L700.48,193.53L701.01,196.57L701.75,198.28L706.51,205.43L708.87,210.7L713.21,216.09L709.05,217.13L708.46,221.26L706,222.04L704.04,226.21L701.65,229.4L701.43,231.99L703.04,232.85L699.27,236.37L699.26,239.66L696.14,243.16L693.22,240L689.2,238.16L684.38,236.84L679.96,236.79L676.58,235.67L672.75,235.96L671.28,234.66L665.62,234.3L663.88,235.44L660.66,232.04L661.4,229.14L659.26,226.11L658.52,222.01L659.9,221.52L659.58,218.97L660.29,216.22L660.11,213.03L661.07,210.93L659.56,205.87L656.62,202.33L652.55,201.35L648.89,203.71L644.37,202.54L641.51,200.33L645.13,197.76L646.59,197.63L649.08,195.45L650.66,191.89L650.53,187.03L649.84,184.63L650.5,182.74L650.41,178.24L640.73,176.44L634.58,176.08L628.9,176.83L626.51,174.59L617.83,165.25L615.59,162.77L611.99,154.54L606.13,153.78L589.6,156.39L585.77,155.71L582.9,153.18L580.69,148.25L582.13,146.25L585.91,144.99L591.17,146.69L593.97,146.53L594.31,144.84L600.8,144.24L604.95,143.09L607.21,139.07L606.2,136.38L609.39,131.06L612.33,130.51L614.17,127.09L612.82,125.18L611.82,118.57L609.71,117.53L607.65,112.67L606.86,112.41L610.72,109.97L611.82,108.33L612.75,103.2L614.83,103.07L615.06,98.23L621.61,96.27L623.71,95.11L626.6,95.01L625.66,92.13L621.75,90.35L622.01,88.33L618.6,87.05L619.29,82.6L622.08,82.62L624.19,81.47L625.87,82.62L631.57,81.26L632.85,84.61L634.51,83.83L638.96,84.27L644.5,83.25L645.82,80.92L650.46,81.81L653.56,83.43L654.02,85.16L656.77,84.06L663.67,86.63L666.79,84.43L669.88,85.9L673.85,82.33L673.12,77.56L670.98,76.31L666.72,78.25L667.41,75.02L673.46,71.74L676.84,72.35L679.34,75.94L677.52,78.9L683.32,80.13L682.31,82.91L685.89,84.72L687.36,86.29L688.93,81.7L691.02,81.15L694.19,78.09L706.28,65.08ZM706.96,107.25L711.75,106.03L714.57,107.46L721.16,102.68L721.1,99.09L726.29,96.03L728.34,94.28L725.07,92.91L720.15,89.67L711.45,88.02L710.14,89.72L710.48,91.68L702.58,95.53L699.95,95.93L697.17,97.44L694.1,96.95L694.05,100.45L692.56,103.91L687.78,105.74L682.51,104.01L677.53,105.95L674.65,105.69L670.2,107.36L665.05,105.82L661.39,105.87L658.38,107.12L655.62,110.21L656.08,111.83L654.46,115.33L652.06,116.25L651.47,118.39L653.3,121.97L656.18,121.08L658.13,123.85L654.48,127.2L655.03,131.63L656.16,135.29L653.17,138.5L658.85,141.63L662.8,141.81L664.27,140.59L667.14,141.39L669.48,143.53L673.81,146.43L677.2,144.81L677.83,146.14L681.11,147.08L684.53,149.53L688.1,148.57L689.27,146.98L692.49,145.99L695.38,144.32L700.49,139.8L703.2,135.29L704.09,128.66L705.7,124.4L705.86,119.78L705.2,113.92Z" class="land" id="CH-SG" title="Sankt Gallen"/>
    <path d="M568.35,29.23L566.58,29.75L564.03,23.94L560.58,25.15L557.39,23.86L557.43,25.96L558.97,28.36L556.26,29.28L557.16,31.3L557.15,31.38L553.94,28.86L550.54,29.54L550.75,33.17L547.87,34.07L548.51,37.8L546.81,34.99L541.85,37.54L538.45,35.49L535.92,36.27L534.08,38.3L533.28,42L530.36,41.43L527.01,41.64L522.36,43.21L521.68,40.82L516.87,38.9L514.67,36.51L512.6,36.56L511.45,34.51L514.14,31.88L511.47,28.1L513.61,25.2L515.26,24.6L520.37,19.78L519.15,17.04L523.4,11.04L525.92,8.77L537.23,5.32L539.46,7.3L541.67,5.85L541.18,3.9L539.05,2.87L539.23,0L541.55,1.24L543.74,0.53L548.15,0.87L549.62,2.74L548.88,5.06L549.92,7.46L549.23,9.83L551.46,12.12L553.92,9.28L554.63,5.51L553.71,4.35L555,1.4L557.43,4.27L560.72,5.24L560.83,8.8L562.49,12.78L566.09,10.2L568.51,11.36L570.67,13.78L566.49,17.18L565.82,20.12L566.76,21.86L570,23.28L568.92,24.7ZM594.75,39.38L591.79,40.61L591.17,37.9L588.78,36.77L588.16,35.2L584.69,33.38L582.34,33.2L580.41,34.2L581.01,26.91L575.93,25.65L576.04,22.62L582.64,17.54L583.51,21.15L585.7,24.49L589.01,24.28L590.07,26.57L593.19,26.25L590.3,32.38L593.16,33.78L594.61,36.96ZM545.12,52.38L545.04,54.53L542.88,55.5L541.85,57.42L542.47,59.7L540.96,60.46L540.34,63.27L538.7,65.92L535.07,60.44L534.7,57.16L537.97,55.29L538.96,53.85L541.21,55.16Z" class="land" id="CH-SH" title="Schaffhausen"/>
    <path d="M352.7,79.5L354.33,80.63L356.88,80.53L357.76,83.93L356.06,86.73L356.61,90.03L352.73,90.77L350.89,90.43L343.21,93.12L341.05,90.09L343.17,87.65L337.6,83.83L339.55,80.66L344.48,83.15L345.85,85.01L349.03,84.69L353.04,80.58ZM385.91,169.33L384.76,170.53L382,170.19L382.87,167.95L384.55,167.04ZM337.12,94.2L340.04,94.09L343.26,98.75L341.65,102.28L338.31,102.18L336.89,103.23L330.57,102.47L329.06,102.28L330.04,97.91L333.95,96.89ZM433.06,100.06L430.88,97.73L430.35,94.8L431.96,91.42L434.03,89.56L436.9,94.72L437.52,98.18ZM433.06,100.06L436.4,102.39L441.27,103.59L442.12,107.1L444.37,107.23L445.08,110.78L444.46,114.31L441.63,117.4L440.44,120.4L440.65,122.68L438.1,123.75L435.06,126.57L430.79,127.87L430.44,123.88L425.5,123.46L423.3,122.05L421.41,125.08L421.41,127.27L420.01,129.39L417.04,129.39L415.25,130.54L411.6,139.15L409.07,141.11L406.87,142.41L404.29,140.77L401.74,143.77L398.09,140.95L396.99,142.83L392.36,142.88L391.06,140.3L386.76,135.73L384.6,134.79L379.79,135.58L376.48,137.04L371.87,137.12L365.71,138.34L367.73,141.16L368.44,144.24L368.08,146.43L371.25,148.85L372.19,150.86L376.51,151.93L377.87,156.65L382.03,160.92L382.55,162.85L381.79,166.55L379.34,166.57L378,168.32L377.96,171.34L375.89,170.51L371.34,170.27L367.07,171L364.45,167.85L361.53,166.78L359.29,168.74L357.2,167.8L354.98,169.31L355.34,172.56L353.02,177.69L349.55,180.16L344.31,182.42L345.33,185.96L346.63,187.68L345.48,189.97L340.77,191.21L339.26,187.83L339.28,184.43L331.65,186.66L330.25,185.57L328.2,178.99L330.94,177.9L334.16,179.87L338.48,178.26L337.97,173.99L340.41,173.19L340.45,171.42L342.32,170.04L345.26,171.18L349.81,168.08L350.56,166.26L347.3,165.14L346.36,162.43L343.32,161.42L340.75,163.84L336.71,166.03L335.61,168.34L331.9,167.22L329.54,161.94L325.31,160.77L322.83,154.02L326.67,153.57L328.87,151.51L333.63,149.51L337.1,147.29L336.45,144.53L340.38,142.18L345.32,141.47L348.56,136.49L354.75,133.98L356.91,133.85L359.34,130.41L359.73,127.98L361.43,126.41L363.87,124.48L361.91,121.27L360.4,120.35L358.01,119.78L358.13,116.56L354.91,115.18L354.43,113.32L348.91,114.05L343.25,113.48L339.69,111.49L341.1,108.98L341,105.63L343.23,104.9L346.98,105.79L347.39,108.69L351.55,110.08L354.5,109.09L356.66,105.19L355.69,102.96L359.87,102.21L363.04,102.42L363.25,96.32L367.54,97.36L371.45,97.13L373.11,89.35L369.62,87.57L371.15,82.52L376.05,84.38L380.41,81.86L381.27,83.7L386.78,85.19L388.23,87.44L384.16,92.89L384.14,97.08L383.08,100.9L379.26,103.44L374.67,103.25L375.4,109.58L376.65,114.55L386.51,113.19L391.63,114.21L392.66,117.01L396.09,120.77L401.7,122.05L403.31,121.08L404.02,117.35L404.98,115.96L409.78,115.07L411.35,112.61L418.36,109.58L416.61,107.05L419.04,104.4L420.26,104.19L423.59,106.31L428.53,104.04L428.15,102.86Z" class="land" id="CH-SO" title="Solothurn"/>
    <path d="M582.9,153.18L585.77,155.71L589.6,156.39L606.13,153.78L611.99,154.54L615.59,162.77L617.83,165.25L615.64,167.93L611.11,175.06L610.77,179.09L612.17,180.68L611.71,183.44L609.83,184.43L608.73,186.56L612.45,188.2L608.66,193.86L607.78,197.58L603.16,200.46L599.6,200.46L599.71,203.35L598.2,204.93L600.93,205.92L601.19,207.97L604.18,210.98L606.15,214.12L604.66,214.69L607.04,218.66L609.21,220.01L610.06,222.01L608.86,226.21L610.08,229.32L607.53,229.61L605.19,231.03L598.13,235.54L596.55,235.59L593.7,237.72L589.7,238.52L589.95,233.7L587.67,234.14L586.07,231.01L586,226.94L583.1,225.38L579.79,228.1L577.35,227.56L576.02,225.41L567.94,229.35L566.65,231.24L564.92,231.68L563.43,230.07L563.57,227.64L562.28,223.82L558.03,224.6L553.82,223.28L546.79,222.76L546.1,213.29L543.02,212.02L540.89,212.82L535.94,215.68L531.69,215.68L527.4,216.46L522.14,214.51L522.59,211.14L523.68,211.5L528.11,210.07L529.88,208.72L530.47,204.88L528.31,204L522.87,198.28L517.51,193.92L515.82,193.4L510.44,194.96L508.65,194.59L508.48,192.17L511.5,189.84L512.02,186.33L513.65,184.32L519.65,180.73L520.32,181.05L523.61,181.49L523.93,182.89L526.82,184.4L532.15,187.39L532.54,186.56L539.07,185.96L539.69,189.16L543.58,187.94L544.98,186.56L547.94,185.6L552.91,185.96L556.58,181.54L558.92,180.21L561.45,175.45L560.9,174.05L563.54,170.64L562.35,167.8L560.23,163.68L562.7,159.38L564.35,157.8L566.86,157.4L570.92,155.4L580.3,152.56Z" class="land" id="CH-SZ" title="Schwyz"/>
    <path d="M566.58,29.75L568.35,29.23L573.88,30.41L578.44,33.64L580.41,34.2L582.34,33.2L584.69,33.38L588.16,35.2L588.78,36.77L591.17,37.9L591.79,40.61L594.75,39.38L598.01,41.11L606.11,38.8L619.34,31.41L620.54,31.09L628.32,32.88L632.42,32.83L637.96,35.96L641.49,36.98L644.07,36.35L646.66,39.09L649.51,38.77L698.85,63.12L705.54,64.24L706.28,65.08L694.19,78.09L691.02,81.15L688.93,81.7L687.36,86.29L685.89,84.72L682.31,82.91L683.32,80.13L677.52,78.9L679.34,75.94L676.84,72.35L673.46,71.74L667.41,75.02L666.72,78.25L670.98,76.31L673.12,77.56L673.85,82.33L669.88,85.9L666.79,84.43L663.67,86.63L656.77,84.06L654.02,85.16L653.56,83.43L650.46,81.81L645.82,80.92L644.5,83.25L638.96,84.27L634.51,83.83L632.85,84.61L631.57,81.26L625.87,82.62L624.19,81.47L622.08,82.62L619.29,82.6L618.6,87.05L622.01,88.33L621.75,90.35L625.66,92.13L626.6,95.01L623.71,95.11L621.61,96.27L615.06,98.23L614.83,103.07L612.75,103.2L611.82,108.33L610.72,109.97L606.86,112.41L605.62,108.75L603.41,106.52L600.17,105.71L601.39,102.26L600.87,97.39L599.71,94.46L600.54,92.89L598.57,89.56L596.54,87.86L596.68,84.74L597.95,82.94L598.82,77.04L598.68,73.27L594.09,71.98L590.45,71.88L588.8,71.01L586.59,65.32L589.1,64.22L588.34,61.38L586.98,60.75L584.14,61.67L582.44,60.36L582.57,58.21L574.9,55.64L572.34,55.79L570.85,51.41L573.82,49.39L576.94,49.86L581.93,52.75L582.39,50.2L583.93,49.44L583.83,46.73L585.86,44.92L586.16,41.48L582.32,40.11L582.34,36.72L579.52,36.48L578.99,39.19L575.86,40.61L573.57,42.71L569.98,42.92L566.32,42L565.24,42.58L561.87,40.66L560.26,38.35L559.78,34.85L558.23,33.96L557.15,31.38L557.16,31.3L560.08,30.65L562,28.62L564.42,30.17ZM712.76,73.58L705.4,79.82L699.49,82.94L696.6,81.84L696.51,79.61L707.79,67.08Z" class="land" id="CH-TG" title="Thurgau"/>
    <path d="M559.77,319.04L563.18,318.52L566.37,321.13L568.48,319.63L570.51,320.84L572.16,319.97L574.81,320.25L581.28,322.98L586.46,321.13L587.01,323.39L589.17,323.03L592.5,320.74L599.58,317.85L601.71,315.72L600.2,312.34L600.06,309.92L603.05,307.8L606.4,309.02L609.14,306.13L610.04,308.94L609.99,313.09L611.76,313.17L613.8,311.52L617.52,310.85L619.53,312.98L622.69,313.81L624.23,317.91L621.41,322.46L620.24,327.05L620.72,329.85L619.8,332.12L620.86,334.48L620.86,336.9L622.88,339.37L625.15,344.64L627.39,345.72L629.66,344.8L631.34,345.47L633.61,349.81L632.23,354.03L632.6,357.01L635.03,362.42L632.67,364.04L633.75,365.48L632.33,368.46L633.68,372.31L632.44,377.54L629.32,379.85L628.16,384.31L630.12,387.69L626.33,393.33L628.07,397.94L630.39,401.02L630.33,406.75L632.21,412.97L637.42,416.09L640.02,419.29L641.01,421.72L645.15,424.32L643.59,426.45L640.28,428.41L637.42,433.01L629.04,437.2L631.8,445.53L629.87,449.13L629.68,451.27L626.6,452.21L624.83,451.86L619.29,454.94L617.41,458.56L617.48,460.83L619.99,464.15L621.32,469.88L618.45,470.95L617.55,473.07L615.62,473.02L615.8,475.26L619.02,478.29L618.76,482.47L620.3,483.74L619.91,486.11L624,486.41L628.49,490.48L630,490.79L629.86,493.51L631.63,494.32L628.01,499.56L626.35,499.79L625.15,502.28L625.47,504.85L623.08,508.03L622.07,511.92L622.86,514L615.96,513.9L614.58,512.93L615.92,510.32L613.18,509.1L612.12,510.04L607.16,507.52L600.7,510.67L600.68,508.16L605.5,501.8L604.33,499.31L603.97,496L602.33,494.66L602.77,491.88L599.87,486.46L598.18,484.63L598.94,481.27L598.04,478.82L593.16,477.68L589.67,474.47L586.46,470.62L579.77,469.58L579.22,466.49L581.95,462.31L584.44,461.06L590.3,452.6L590.22,448.74L587.17,446.96L584.85,443.94L582.07,442.06L580.5,443.51L577.88,443.84L573.54,441.6L570.62,436.74L567.84,439.17L566.46,441.34L560.47,441.62L559.55,439.83L557.59,440.04L555.62,438.94L553.83,436.44L548.33,436.9L547.05,433.91L544.95,431.86L546.03,428.18L543.8,427.75L540.91,425.99L539.1,420.8L534.57,416.78L533.3,412.18L530.04,411.54L526.68,409.46L521.9,408L521.61,405.98L518,404.45L517.82,402.58L520.14,400.22L516.28,394.61L514.96,391.59L516.89,390.26L517.77,386.36L519.79,385.64L521.35,383.64L521.86,381.28L521.42,377.26L522.62,375.39L521.29,368.35L522.94,366.33L521.52,364.32L522.39,362.19L520.48,359.86L520.34,356.75L522.32,354.85L519.1,349.45L516.94,348.83L511.91,350.2L510.69,351.58L507.82,351.97L507.45,349.97L508.99,348.09L508.21,346.01L509.72,343.64L509.24,341.61L513.98,341.53L516.14,340.45L518.16,340.79L519.86,337.52L521.01,336.95L524.3,332.53L525.4,331.24L531.69,329.52L530.61,324.27L531.86,322.28L532.09,319.35L535.19,316.88L536.75,318.21L541.09,317.65L544.29,320.2L549.67,319.32L551.43,322.23L553.27,322.72ZM611.89,477.17L611.96,472.07L610.22,471.51L608.88,476.46Z" class="land" id="CH-TI" title="Ticino"/>
    <path d="M540.89,212.82L543.02,212.02L546.1,213.29L546.79,222.76L553.82,223.28L558.03,224.6L562.28,223.82L563.57,227.64L563.43,230.07L564.92,231.68L566.65,231.24L567.94,229.35L576.02,225.41L577.35,227.56L579.79,228.1L583.1,225.38L586,226.94L586.07,231.01L587.67,234.14L589.95,233.7L589.7,238.52L593.7,237.72L596.55,235.59L598.13,235.54L605.19,231.03L606.66,234.61L608.24,236.45L609.07,239.2L608.79,242.69L601.88,246.5L600.24,246.52L597.94,249.5L593.99,251.29L595.63,254.96L594.91,258.82L589.56,262.67L587.31,263.42L585.9,265.28L586.64,269.68L584.53,271.85L583.08,276.32L583.49,278.44L578.05,280.71L575.65,276.47L573.7,277.17L571.29,280.45L571.82,283.4L568.41,286.03L566.63,286.34L565.09,288.17L562.19,287.35L561.15,289.36L558.86,290.29L558.86,295.32L559.71,296.92L555.48,300.84L554.95,304.79L556.26,307.11L559.41,308.53L559.91,312.08L559.48,314.09L560.28,316.46L559.77,319.04L553.27,322.72L551.43,322.23L549.67,319.32L544.29,320.2L541.09,317.65L536.75,318.21L535.19,316.88L532.09,319.35L531.86,322.28L530.61,324.27L531.69,329.52L525.4,331.24L524.3,332.53L521.81,330.42L520.29,331.37L515.77,328.46L513.45,320.87L511.72,317.31L514.6,306.72L513.91,300.38L512.46,300.17L512,296.72L510.18,294.47L510.48,289.95L515.54,291.58L519.86,290.96L520.32,285.46L519.06,284.46L519.47,280.25L517.74,277.04L519.13,271.56L522.13,270.22L524.96,270.38L526.73,269.24L525.1,263.76L525.47,255.32L526.36,252.94L528.41,252.25L529.46,250.54L528.02,248.65L524.39,247.53L523.15,248.13L522.62,242.64L524.52,240.96L521.88,235.49L524.87,234.27L525.84,231.6L528.82,232.74L531.76,230.57L536.2,229.06L536.84,226.18L538.34,225.35L538.01,219.88L541.44,214.93Z" class="land" id="CH-UR" title="Uri"/>
    <path d="M271.46,216.28L273.93,218.09L272.91,219.49L273.56,224.99L272.89,226.31L278.08,233.86L278.84,235.59L277.4,237.51L273.58,240.67L275.19,243.6L272.09,247.92L269.44,250.64L267.93,249.29L269.67,246.78L267.97,245.2L269.03,243.39L266.5,242.56L264.18,243.39L261.56,241.89L264.46,239.22L259.36,234.01L260.5,231.71L258.76,230.2L256.48,230.02L250.19,222.71L263.22,213.89L269.86,215.81ZM166.84,248.72L170.81,250.23L178.31,247.59L180.79,244.97L189.18,240.59L191.5,240.59L194.57,239.25L196.64,239.32L200.21,233.55L204.32,230.7L213.14,226.78L213.72,228.18L212.73,231.97L213.35,234.79L216.66,237.51L216.11,242.85L219.44,243.96L223.76,248.41L217.03,254.99L223.46,261.97L223.42,263.71L226.88,266.52L228.06,265.85L229.9,267.77L233.53,268.46L237.71,265.26L238.54,267.09L241.11,268.28L244.21,267.74L248.02,266.19L247.96,265.02L250.49,260.84L246.85,259.05L245.61,255.35L247.15,251.73L250.32,248.62L247.34,245.2L248.71,243.78L246.83,241.42L244.3,240.67L238.97,233.88L244.4,229.76L249.73,236.09L253.1,240.78L255.27,241.19L257.98,239.66L260.71,243.29L259.13,245.07L258.55,248.28L260.23,253.33L260.04,256.64L256.27,255.17L254.96,258.46L256.8,261.61L254.92,263.91L255.06,265.46L252.44,266.39L250.53,268.64L248.49,272.65L252.16,276.73L251.43,279.16L248.51,282.73L246.95,283.37L243.59,287.37L243.47,289.05L240.19,292.33L239.92,294.81L236.72,299.45L234.05,297.57L231.92,298.55L230.35,301.07L228.54,300.58L226.73,304.94L227.73,306.49L227.9,311.44L227.16,320.17L230.93,317.7L233.5,319.84L235.78,317.8L239.32,320.02L240.3,322.67L244.53,321.23L245.24,323.67L242.77,324.42L238.07,330.44L236.49,328.75L230.42,330.03L229.11,332.94L231.5,336.34L235.6,341.1L238.22,341.1L238.72,339.55L241.59,336.29L244.42,335.8L247.08,336.23L251.11,339.24L253.79,338.86L257.52,341.76L258.64,346.52L258.85,349.89L261.1,352.92L260.67,355.59L265.54,353.05L266.14,349.99L271.42,344.39L274.15,342.48L278.41,342.97L281.32,342.28L284.38,340.09L286.68,337.47L288.79,332.25L290.58,332.63L293.92,330.44L296.74,327.64L299.52,331.24L302.14,327.25L304.53,325.73L305.87,329.34L306.67,335.15L305.73,339.66L302.22,343.1L303.45,348.37L302.49,353.95L296.63,356.59L299.66,361.29L299.3,364.61L296.86,369.87L299.25,371.28L301.3,376.46L301.84,379.08L301.76,383.59L296.01,390.08L296.88,394.89L295.59,395.3L295.96,398.58L294.1,399.04L289.23,405.47L287.48,406.98L284.88,407.08L283.87,410.79L281.71,413.53L278.15,416.19L275.08,416.32L268.64,419.57L266.3,416.29L264.69,415.12L264.06,411.43L262.76,408L260.59,405.16L260.23,403.04L256.3,398.97L255.29,394.92L251.34,391.59L250.26,383.44L247.96,380.85L243.96,380.49L241.64,377.1L242.51,374.15L242.14,371.38L238.49,367.94L230.75,358.52L206.32,351.46L177.43,350.84L161.07,361.01L131.1,375L128.34,379.98L122.64,377.18L121.34,377.05L117.63,374.46L115.91,376.13L121.48,380.95L126.72,383.31L124.53,388.08L120.76,395.13L112.74,391.31L109.62,388.98L107.66,386.54L110.26,382.28L113.57,377.85L113.82,376.08L115.55,373.9L113.85,370.87L112.1,371.2L109.85,368.84L105.57,365.43L104.12,365.43L102.31,362.99L96.82,360.99L98.81,356.9L100.31,355.05L98.31,349.3L102.54,344.49L105.59,337.06L109.89,331.68L112.72,330.37L113.2,328.08L104.98,319.99L107.8,316.7L114.03,311.41L117.13,309.97L117.31,308.76L122.3,304.71L127.22,299.4L132.5,294.6L133.13,292.61L142.84,286.6L145.54,285.77L149.01,282.57L151.28,281.74L154.86,278.23L154.25,277.04L156.36,275.13L160.63,274.07L163.16,271.9L165.5,268.8L166.59,265.23L162.52,262L161.73,259.21L163.34,258.3L163.8,253.82ZM223.02,275.18L218.15,279.73L222.15,282.49L224.13,279.47L224.82,275.65ZM232.08,275.03L229.89,278.31L226.1,278.7L226.01,281.36L228.98,280.92L230.51,279.34L232.98,278.85L235.62,280.92L238.42,280.09L241.82,275.26L235.91,268.7L234.97,271.38L232.4,273.66Z" class="land" id="CH-VD" title="Vaud"/>
    <path d="M512.46,300.17L513.91,300.38L514.6,306.72L511.72,317.31L513.45,320.87L515.77,328.46L520.29,331.37L521.81,330.42L524.3,332.53L521.01,336.95L519.86,337.52L518.16,340.79L516.14,340.45L513.98,341.53L509.24,341.61L509.72,343.64L508.21,346.01L508.99,348.09L507.45,349.97L507.82,351.97L503.7,352.46L499.34,357.24L495.89,359.27L493.39,359.37L492.86,361.29L490.79,363.84L495.59,365.89L495.87,368.79L494.08,371.31L491.3,372.61L489.76,374.72L485.87,374.72L486.63,377.46L485.48,379.52L481.23,380.75L479.14,382.34L478.8,384.69L476.79,387.39L476.57,389.03L471.51,391.51L467.37,392.05L464,390.51L461.1,392.84L459.24,396.25L454.57,399.53L454.71,402.94L458.87,404.27L459.54,407.21L461.74,409.75L463.97,410.54L466.52,418.67L468.41,421.15L465.97,425.86L466.39,431.02L464.96,432.63L459.79,434.47L459.37,437.48L457.84,439.45L455.22,440.57L450.76,441.01L449.52,441.8L444.99,442.44L444.25,447.01L443.13,449.36L443.63,452.52L445.47,456.65L443.54,457.19L441.43,459.53L442.26,461.4L439.11,464.86L437.94,468.48L435.04,467.84L431.31,468.79L430.05,468.05L424.77,468.69L422.86,468.46L420.15,473.07L417.97,473.76L417.71,479.79L416.42,480.86L416.13,483.97L417.28,487.05L415.04,488.91L414.17,487.71L410.56,487.48L407.65,486.34L404.63,488.45L403,488.07L398.27,483.54L394.87,483.08L392.32,487L389.4,486.74L387.56,484.32L387.98,481.73L385.93,479.16L382.94,478.44L379.34,473.27L375.24,475.34L371.85,474.83L370.14,475.49L365.62,474.55L364.15,470.83L359.09,471.46L358.29,473.09L358.97,477.25L358.12,478.77L352.17,478.19L347.09,479.64L345.79,480.96L345.92,484.38L343.65,484.2L341.85,485.19L339.08,488.35L329.91,493.99L323.31,489.57L320.42,490.64L318.03,488.96L315.43,488.68L312.81,489.34L311.17,492.93L307.93,496.11L306.39,494.94L302.83,495.27L300.56,496.28L297.32,500.71L297.75,502.74L296.08,503.66L293.11,502.41L289.89,498.39L286.22,500.17L283.19,503.56L280.25,503.48L278.84,498.85L276.8,497.05L275.23,494.15L273.62,493.03L273.65,490.66L270.27,487.23L268.96,483.61L269.17,479.28L265.56,477.76L264.43,474.65L266.94,473.25L264.52,470.9L264.34,468.51L259.82,466.47L259.08,462.67L255.84,459.74L253.8,454.51L252.25,454.71L250.19,450.68L248.72,451.45L245.84,455.1L241.52,456.17L240.08,454.43L240.69,451.55L242.49,449.1L243.36,446.39L241.94,443.28L243.34,441.54L244.69,436.31L243.29,435.64L235.96,435.11L233.43,433.78L230.56,434.16L226.65,432.53L225.48,428.11L225.89,425.91L228.05,423.63L229.32,421.08L227.87,415.63L231.05,410.1L231.3,408.08L233.16,407.08L234.17,404.29L236.51,403.12L238.61,396.02L237.61,393.46L234.91,392.56L232.17,390.56L231.66,388.16L228.75,385.77L227.09,385.64L226.43,382.75L224.43,382.23L221.99,376.92L223.94,374.03L225.85,373.79L228.33,369.84L227.6,367.97L230.75,358.52L238.49,367.94L242.14,371.38L242.51,374.15L241.64,377.1L243.96,380.49L247.96,380.85L250.26,383.44L251.34,391.59L255.29,394.92L256.3,398.97L260.23,403.04L260.59,405.16L262.76,408L264.06,411.43L264.69,415.12L266.3,416.29L268.64,419.57L275.08,416.32L278.15,416.19L281.71,413.53L283.87,410.79L284.88,407.08L287.48,406.98L289.23,405.47L294.1,399.04L295.96,398.58L295.59,395.3L296.88,394.89L296.01,390.08L301.76,383.59L303.66,384.34L307.22,383.44L308.79,380.85L309.01,376.13L313.96,373.95L315.24,374.36L317.54,371.9L317.86,374.95L317.18,378L318.41,379.8L325.26,378.18L330.22,374.38L332.2,372.26L341.14,369.87L348.04,369.92L348.95,372.97L351.02,373.1L352.4,371.56L355.89,371.84L358.01,371.07L358.56,369.36L360.91,368.17L356.13,365.27L357.02,362.91L364.63,360.96L367.94,362.35L368.63,359.63L370.63,358.03L370.69,355.8L375.02,354.72L382.57,357.7L385.59,359.29L387.93,361.5L392.85,359.27L400.38,354.15L403.9,350.27L408.54,348.27L412.68,344.93L416.93,345.24L424.1,343.02L427.76,340.07L429.46,337.73L431.62,337.67L433.93,336.13L434.92,333.35L433.15,330.11L435.29,327.48L437.06,327.61L439.18,324.52L441.98,323.47L445.47,323.52L450.78,326.09L453.26,325.27L454.66,326.22L460.13,327.69L462.34,330.16L467.67,331.68L470.7,331.6L470.48,333.28L473.48,333.84L479.73,332.74L482.61,332.86L489.98,329.85L490.77,328.57L493.61,327.79L495.69,324.55L499.01,323.98L501.15,322.72L504.76,317.8L503.91,313.22L505.13,311.34L505.63,305.23L507.03,304.94L510.41,299.81Z" class="land" id="CH-VS" title="Valais"/>
    <path d="M512.02,145.54L512.74,146.35L514.25,152.32L518.48,152.35L522.27,154.95L525.08,156.15L533.21,153.55L535.12,152.37L537.85,152.58L544.04,155.14L545.27,156.44L545.53,162.59L546.88,165.38L556.65,165.97L557.85,168.92L562.35,167.8L563.54,170.64L560.9,174.05L561.45,175.45L558.92,180.21L556.58,181.54L552.91,185.96L547.94,185.6L544.98,186.56L543.58,187.94L539.69,189.16L539.07,185.96L532.54,186.56L532.15,187.39L526.82,184.4L526.94,180.97L524.59,177.66L520.32,181.05L519.65,180.73L518.8,176.91L515.74,178.5L512.99,178.11L512.53,173.99L513.1,167.77L512.37,165.25L510.73,164.36L510.46,162.02L511.38,159.62L510.6,154.72L509.49,151.77L511.54,148.8Z" class="land" id="CH-ZG" title="Zug"/>
    <path d="M557.15,31.38L558.23,33.96L559.78,34.85L560.26,38.35L561.87,40.66L565.24,42.58L566.32,42L569.98,42.92L573.57,42.71L575.86,40.61L578.99,39.19L579.52,36.48L582.34,36.72L582.32,40.11L586.16,41.48L585.86,44.92L583.83,46.73L583.93,49.44L582.39,50.2L581.93,52.75L576.94,49.86L573.82,49.39L570.85,51.41L572.34,55.79L574.9,55.64L582.57,58.21L582.44,60.36L584.14,61.67L586.98,60.75L588.34,61.38L589.1,64.22L586.59,65.32L588.8,71.01L590.45,71.88L594.09,71.98L598.68,73.27L598.82,77.04L597.95,82.94L596.68,84.74L596.54,87.86L598.57,89.56L600.54,92.89L599.71,94.46L600.87,97.39L601.39,102.26L600.17,105.71L603.41,106.52L605.62,108.75L606.86,112.41L607.65,112.67L609.71,117.53L611.82,118.57L612.82,125.18L614.17,127.09L612.33,130.51L609.39,131.06L606.2,136.38L607.21,139.07L604.95,143.09L600.8,144.24L594.31,144.84L593.97,146.53L591.17,146.69L585.91,144.99L582.13,146.25L580.69,148.25L582.9,153.18L580.3,152.56L570.92,155.4L566.86,157.4L564.35,157.8L562.7,159.38L560.23,163.68L562.35,167.8L557.85,168.92L556.65,165.97L546.88,165.38L545.53,162.59L545.27,156.44L544.04,155.14L537.85,152.58L535.12,152.37L533.21,153.55L525.08,156.15L522.27,154.95L518.48,152.35L514.25,152.32L512.74,146.35L512.02,145.54L510.88,144.13L510.81,139.44L509.08,136.15L513.33,134.04L515.59,132.16L516.14,129.44L519.12,126.36L517.12,125.26L513.43,125.89L513.38,122.65L511.2,120.17L511.82,113.95L509.82,112.04L509.4,108.69L507.66,107.83L506.3,105.63L508.64,101.13L507.24,94.04L508.48,92.68L504.62,88.57L506.21,87.31L505.86,84.69L504.17,84.8L503.22,80.47L503.82,77.17L506.71,76.44L507.4,72.92L509.73,71.59L512.27,68.05L513.91,61.96L516.43,62.7L519.88,61.17L522.02,61.04L523.81,59.68L521.12,56.82L520.37,53.51L522.34,53.09L524.34,50.78L529.42,49.33L531.7,45.24L534.89,45.89L537.97,47.47L539.8,51.36L538.96,53.85L537.97,55.29L534.7,57.16L535.07,60.44L538.7,65.92L540.34,63.27L540.96,60.46L542.47,59.7L541.85,57.42L542.88,55.5L545.04,54.53L545.12,52.38L546.66,49.86L545.41,46.76L544.98,43.11L546.56,40.4L548.06,40.85L549.78,43.32L550.65,39.8L548.51,37.8L547.87,34.07L550.75,33.17L550.54,29.54L553.94,28.86Z" class="land" id="CH-ZH" title="Zürich"/>
    <path d="M611.89,477.17L608.88,476.46L610.22,471.51L611.96,472.07Z" class="land" id="IT-CO" title="Campione d'Italia"/>
  </g>
</svg>