<?xml version="1.0" encoding="UTF-8"?>
<svg xmlns="http://www.w3.org/2000/svg" width="228.91" height="519.3" viewBox="365.54 -2.65 228.91 519.3" style="background-color:#000000">
  <!-- Created using SVG Map Generator: dojo.amcharts.com/svg-map-generator -->
  <style>
    .land { fill: #ffffff; stroke: #000000; stroke-width: 0.65; }
  </style>
  <g id="polygons">
    <path d="M442.54,123.56L447.76,125.86L457.51,133.04L459.93,135.1L465.29,136.31L467.36,137.84L474.86,145.6L480.82,152.52L484.93,154.28L487.91,155.07L489.4,155.04L491.1,157.51L495.12,160.22L499.23,162L500.3,163.23L506.13,166.79L507.52,168.28L507.7,170.03L510.27,172.97L511.39,172.99L513.21,171.73L514.53,169.49L518.91,163.41L523.71,165.39L529.07,168.21L535.62,171.17L541.83,172.16L546.81,176.12L544.19,179.64L541.84,180.61L540.8,185.37L538.28,185.59L539.5,187.47L541.35,187.27L542.94,188.13L542.89,192.12L540.44,189.68L539.96,191.64L542.31,193.98L544.06,194.38L547.16,197.28L546.01,199.23L547.68,199.46L548.07,200.86L545.51,204.09L542.24,206.7L541.69,206.27L536.94,212.83L536.04,216.36L535.88,218.2L533.86,223.39L532.01,224.9L529.7,226.11L529,225.34L527.62,230.3L525.65,232.02L525.06,231.28L522.25,231.66L518.81,233.46L516.24,237.02L516.75,239.1L515.48,240.27L514.3,239.7L513.96,237.86L512,235.76L510.67,236.1L511.52,239.46L509.43,240.14L508.7,239.06L508.36,237.65L505.73,232.73L502.37,227.74L500.18,227.08L495.61,225.26L494.28,224.13L493.75,221.27L494.23,220.19L493.4,218.92L491.77,219.36L485.55,222.28L482.91,223.3L477.36,222.89L466.67,220.99L464.72,219.13L462.32,216.15L455.76,208.71L452.4,209.05L451.93,205.88L445.23,201.09L444.28,198.38L442.08,195.7L440.3,192.38L437.55,189.78L435.78,188.87L434.74,186.27L430.51,181.52L427.13,178.72L422.83,174.35L424.07,168.45L426.2,165.71L426.33,154.49L426.87,149.91L428.63,144.45L427.01,136.87L426.4,131.59L435.32,130.85L442.9,125.16Z" class="land" id="SE-AC" title="Västerbotten"/>
    <path d="M495.96,383.26L495.23,381.67L497.3,379.57L498.93,379.86L496.4,381.45L496.67,382.6ZM492.74,397.6L492.39,397.08L493.88,394.38L494.68,394.97L493.54,397.03ZM481.24,401.42L480.13,399.38L480.46,396.92L481.44,397.64L480.93,400.67ZM479.25,376.77L482.11,378.65L482.62,380.28L481.48,383.42L478.6,381.87L478.5,380.24L478.45,379.02L478.21,378.07ZM482.47,387.93L480.65,387.05L479.52,384.3L480.29,384.04L482.4,385.77ZM474.06,389.59L475.38,388.98L475.34,387.39L477.21,388.34L479.18,388.82L483.66,389.41L486.01,387.08L487.17,387.67L489.82,387.23L490.94,386.06L492.25,385.76L494.47,386.87L493.61,383.99L495.23,384.15L496.69,385.8L497.23,387.91L495.22,388.36L492.33,388.03L491.7,391.03L492.7,393.5L490.07,394.34L486.64,396.85L484.49,401.24L484.47,402.92L482.67,400.13L482.11,397.63L482.24,394.11L480.52,392.63L479.6,397.1L479.92,397.85L479.05,399.89L478.56,398.87L475.6,398.9L474.38,396.97L473.29,391.45ZM494.97,359.24L497.23,359.54L500.26,361.18L500.37,362.47L501.46,365.76L502.2,367.06L504.61,368.26L504.6,370L503.85,370.22L502.31,368.93L501.09,371.39L504.67,372.2L503.96,374.04L500.69,374.29L499.04,375.08L498.17,376.57L498.85,377.01L497.33,378.77L492.75,382.59L490.91,382.33L490.72,383.35L491.6,385.17L489.27,384.67L489.63,383L488.25,383.07L487.07,385.1L487.84,387.06L485.26,387.03L483.12,385.83L482.14,383.93L482.88,380.99L483.62,380.37L483.24,378.76L481.81,375.94L484.51,375.08L487.52,373.51L488.26,371.95L492.67,369.1L493.95,364.74ZM483.15,388.96L480.82,388.56L479.61,387.78L478.06,384.63L478.92,383.9L479.81,385.58L480.07,387.53ZM495.3,390.8L493.73,389.77L492.99,388.54L494.9,388.59L496.73,389.75Z" class="land" id="SE-AB" title="Stockholm"/>
    <path d="M546.81,176.12L541.83,172.16L535.62,171.17L529.07,168.21L523.71,165.39L518.91,163.41L514.53,169.49L513.21,171.73L511.39,172.99L510.27,172.97L507.7,170.03L507.52,168.28L506.13,166.79L500.3,163.23L499.23,162L495.12,160.22L491.1,157.51L489.4,155.04L487.91,155.07L484.93,154.28L480.82,152.52L474.86,145.6L467.36,137.84L465.29,136.31L459.93,135.1L457.51,133.04L447.76,125.86L442.54,123.56L441.1,116.78L445.6,111.36L452.18,98.99L458.08,93.44L458.96,87.03L457.79,82.72L453.8,77.08L453.48,76.02L455.31,72.07L458.57,71.37L461.78,65.02L464.47,54.05L472.37,48.06L473.83,45.3L479.29,48.09L483.38,51.57L484.29,51.94L485.24,49.55L488.93,41.82L487.06,30.56L487.83,25.97L492.41,24.5L496.76,27.49L502.59,26.9L518.15,33.32L519.79,33.57L521.05,31.23L523.4,28.95L524.15,27.16L522.04,26.25L519.79,24.28L521.61,22.44L524,18.72L526.54,12.85L525.93,6.12L522.19,0.68L529.7,0L535.03,2.13L536.44,3.98L535.87,7.77L539.06,9.05L541.38,11.45L544.87,15.8L546.24,18.44L547.96,19.01L549.68,20.67L549.97,22.07L553.03,23.06L555.89,27.45L557.66,28L561.17,28.03L564.76,29.73L566.34,30.03L568.9,31.55L570.21,34.17L573.07,36.27L574.36,38.88L574.68,41.48L577.47,43.42L578.68,47.5L583.04,51.52L582.34,54.12L580.68,54.76L579.98,57.79L580.62,64.63L579.31,73.61L580.27,74.84L581.89,74.3L585.08,75.82L585.34,79.55L584.46,81.8L582.3,82.78L581.72,87.33L583.59,92.13L587.96,99.28L589.19,102.92L587.98,103.52L587.17,105.43L587.39,108.14L587.2,112.4L583.21,117.61L582.87,118.9L583.26,123.95L584.3,128.72L587.87,131.46L588.5,134.13L589.59,136.33L591.81,143.9L591.13,145.62L589.75,145.29L587.63,147.34L585.18,145.88L583.13,145.31L580.8,145.54L579.37,147.22L576.07,145.38L574.34,149.13L573.31,149.79L568.99,144.94L568.33,143.22L566.37,141.3L566.87,145.26L566.53,147.08L563,143.44L560.92,143.24L560.43,144.33L559.21,150.12L559.06,152.55L561.4,152.7L562.05,155.6L561.07,155.8L558.33,154.78L552.46,151.13L555.18,153.98L556.78,154.6L557.61,156.67L553.71,157.71L555.31,159.6L554.97,161.18L553.59,162.24L549.24,162.53L547.72,161.49L545.69,162.95L546.82,165.15L548.32,165.33L549.74,166.78L548.88,168.55L547.35,169.07L545.7,165.82L543.46,163.41L542.22,164.9L544.81,166.02L547.24,169.92L548.31,172.72L547.67,175.95Z" class="land" id="SE-BD" title="Norrbotten"/>
    <path d="M475.6,343.08L476.1,342.63L478.66,342.23L480.27,343.34L479.46,344.42L480.34,346.98L481.67,347.51L481.7,345.57L482.39,344.75L484.23,343.85L485.41,343.84L489.84,352.37L493.67,352.64L494.25,354.18L496.69,356.33L496.21,356.77L493.82,356.14L491.65,354.11L493.5,358.05L494.97,359.24L493.95,364.74L492.67,369.1L488.26,371.95L487.52,373.51L484.51,375.08L481.81,375.94L480.46,375.22L479.96,371.86L479.21,371.16L476.81,375.12L477.89,378.54L478.45,379.02L478.5,380.24L476.05,379.69L476.32,381.73L475.98,382.53L473.63,381.34L472.32,380.19L471.15,379.87L469.68,380.26L468.11,379.93L466.83,378.63L466.33,375.53L465.36,373.53L464.39,372.64L465.5,370.02L468.24,369.29L469.5,370.33L470.84,368.25L470.86,366.37L472.37,364.34L474.32,362.59L475.12,356.91L473.56,356.12L472.31,354.3L472.55,352.36L472.1,351.31L474.06,349.12ZM495.9,353.98L493.14,351.9L492.64,347.43L493.51,347.69L494.96,352.5ZM479.25,376.77L478.21,378.07L477.86,374.95L478.35,373.62L479.77,373.82Z" class="land" id="SE-C" title="Uppsala"/>
    <path d="M473.54,385.76L471.67,385.31L470.68,382.84L473.72,383.37L474.58,384.93ZM474.06,389.59L473.29,391.45L474.38,396.97L475.6,398.9L478.56,398.87L479.05,399.89L479.95,401.06L478.61,403.07L477.17,404.7L475.14,406.45L473.79,406.96L471.83,407.09L470.75,406.11L469.72,406.76L471.44,408.1L469.73,410.24L467.69,410.91L464.62,410.51L464.05,409.29L462.17,408.62L458.57,408.14L458.13,406.85L456.43,404.24L451.16,400.22L449.32,398.38L448.55,398.27L445.47,399.15L445.18,396.85L446.6,395.36L448.21,394.6L448.06,391.78L449.43,391.44L449.71,389.53L450.95,387.63L452.1,386.71L454.91,386.84L456.2,386.49L456.65,385.62L456.75,383.38L457.39,383.11L463.31,382.36L465.82,385.18L466.59,384.61L463.89,382.3L466.21,381.78L467.39,382.59L469.75,385.47L472.13,385.76L474.46,386.58L473.46,389.24Z" class="land" id="SE-D" title="Södermanland"/>
    <path d="M431.21,409.45L432.6,408.41L434.08,408.49L435.24,407.53L435.74,406.08L438.81,403.07L441.68,404.41L443.9,402.15L443.8,400.64L445.47,399.15L448.55,398.27L449.32,398.38L451.16,400.22L456.43,404.24L458.13,406.85L458.57,408.14L462.17,408.62L464.05,409.29L464.62,410.51L459.08,409.53L456.16,409.34L455.33,410.56L458.36,411.29L459.49,410.11L463.14,410.79L465.38,411.86L468.09,415.27L466.31,416.55L464.65,417.09L462.3,416.49L460.16,415.42L459.09,415.58L464.18,417.91L465.2,419.1L466.16,425.3L464.87,430.61L462.96,431.43L462.29,430.58L461.75,428.79L458.2,427.47L456,427.3L453.8,428.61L451.77,429.34L451.68,430.61L452.02,433.72L452.71,435.41L450.39,437.44L448.73,437.42L446.79,436.15L444.59,436.76L442.25,440.48L442.08,441.14L436.84,440.63L435.85,438.24L434.82,434.44L435.23,432.3L434.8,428.6L433.74,427.12L432.9,428.19L430.85,428.81L430.35,428.31L424.85,427.82L422.98,427.48L424.81,422.5L427.53,416.59Z" class="land" id="SE-E" title="Östergötland"/>
    <path d="M422.98,427.48L424.85,427.82L430.35,428.31L430.85,428.81L432.9,428.19L433.74,427.12L434.8,428.6L435.23,432.3L434.82,434.44L435.85,438.24L436.84,440.63L442.08,441.14L445.12,443.99L445.47,447.84L444.79,449.28L443.48,450.08L443.12,453.36L443.47,456.62L441.46,456.19L437.09,456.22L433.87,458.92L432.99,458.47L432.68,457.16L431.21,456.04L430.1,456.17L428.29,457.1L423.59,458.8L423.1,462.28L423.9,463.31L423.93,464.3L423,466.35L421.58,466.59L420.86,463.92L420.03,462.56L418.64,461.67L416.9,461.69L412.94,462.21L412.07,463.77L410.19,462.78L410.19,461.2L408.62,460.27L406.61,459.69L403.93,460.57L403.24,462.04L402.28,462.49L401.49,458.88L403.73,455.4L405.56,453.2L406.76,452.52L409.16,450.11L411.41,446.48L411.76,445.34L412.79,439.14L412.97,436.82L413.78,437.25L415.66,436.48L417.32,437.95L419.63,434.78L420.9,432.29Z" class="land" id="SE-F" title="Jönköping"/>
    <path d="M412.07,463.77L412.94,462.21L416.9,461.69L418.64,461.67L420.03,462.56L420.86,463.92L421.58,466.59L423,466.35L423.93,464.3L423.9,463.31L423.1,462.28L423.59,458.8L428.29,457.1L430.1,456.17L431.21,456.04L432.68,457.16L432.99,458.47L433.87,458.92L437.09,456.22L441.46,456.19L443.47,456.62L444.18,458.16L447.27,460.76L448.52,462.53L448.89,463.65L448.67,465.82L446.11,466.11L444.2,465.39L443.88,467.16L441.6,471.69L440.99,476.88L441.02,479.14L440.29,479.87L438.38,480.33L436.22,480.39L434.93,480.98L433.49,482.61L429.57,482.45L427.89,480.57L426.47,480.17L424.47,479.47L419.02,478.14L417.96,479.47L415.67,480.39L409.91,481.75L408.38,481.38L408.34,478.25L407.38,476.53L406.08,473.03L405.68,469.26L405.9,467.43L408.81,467.1L410.63,466.66L411.75,465.29Z" class="land" id="SE-G" title="Kronoberg"/>
    <path d="M459.37,487.54L458.92,485.52L458.75,477.63L459.21,475.85L461.31,469.92L462.58,466.88L464.85,464.81L466.54,460.89L468.51,455.68L468.44,454.26L469.32,452.25L470.12,451.56L471.27,452.78L470.01,457.03L467.89,461.71L466.55,467.81L465.21,469.32L462.9,477.95L461.79,481.81L461.87,482.83L460.51,486.55ZM452.95,484.31L451.3,484.52L449.45,484.27L448.36,483.64L446.77,481.4L444.35,478.9L441.02,479.14L440.99,476.88L441.6,471.69L443.88,467.16L444.2,465.39L446.11,466.11L448.67,465.82L448.89,463.65L448.52,462.53L447.27,460.76L444.18,458.16L443.47,456.62L443.12,453.36L443.48,450.08L444.79,449.28L445.47,447.84L445.12,443.99L442.08,441.14L442.25,440.48L444.59,436.76L446.79,436.15L448.73,437.42L450.39,437.44L452.71,435.41L452.02,433.72L451.68,430.61L451.77,429.34L453.8,428.61L456,427.3L458.2,427.47L461.75,428.79L462.29,430.58L462.96,431.43L465.21,434.76L464.72,435.14L462.52,434.51L462.34,432.96L460.5,431.5L460.74,434.62L461.69,435.69L464.06,439.23L464.22,440.69L461.63,444.99L462.85,445.41L463.82,447.55L463.51,449.92L462.71,451.08L461.37,450.85L460.1,453.75L459.9,457.63L461.66,459.96L462.03,461.53L460.46,461.68L459.8,464.32L459.32,467.82L458.44,471.66L457.29,473.71L456.68,473.66L455.72,475.2L454.14,479.72Z" class="land" id="SE-H" title="Kalmar"/>
    <path d="M503.47,434.29L503.97,436.61L502.19,439.41L500.14,440.57L499.29,446.83L499.45,448.13L500.13,449.02L499.68,451.33L497.78,453.37L498.47,455.29L492.98,458.82L492.08,460.75L492.26,463.22L491.46,464.88L489.17,465.74L488.99,464.75L490.67,461.9L490.63,460.42L489.24,458.44L488.81,455.49L488.98,452.94L488.18,446.46L489.34,444.26L491.32,442.42L492.82,440.09L494.28,437.09L497.96,433.82L498.69,433.52L501.38,433.62ZM505.56,436.2L504.74,435.6L504.02,433.66L505.2,431.83L508.48,431.78L505.83,434.01ZM507.46,420.08L507.26,418.36L508.97,419.02Z" class="land" id="SE-I" title="Gotland"/>
    <path d="M426.47,480.17L427.89,480.57L429.57,482.45L433.49,482.61L434.93,480.98L436.22,480.39L438.38,480.33L440.29,479.87L441.02,479.14L444.35,478.9L446.77,481.4L448.36,483.64L449.45,484.27L451.3,484.52L452.95,484.31L452.16,487.26L449.71,491.12L448.39,490.52L448.17,489.42L445.13,487.97L440.87,489.83L436.83,489.3L436.26,488.78L429.69,489.01L429.43,490.41L430,490.91L430.89,493.02L430.09,493.94L428.64,493.72L428.09,492.36L427.03,492.39L427.55,491.49L427.59,489.96L427.21,487.7L425.02,487.46L424.24,484.89L425.34,481.81Z" class="land" id="SE-K" title="Blekinge"/>
    <path d="M426.47,480.17L425.34,481.81L424.24,484.89L425.02,487.46L427.21,487.7L427.59,489.96L427.55,491.49L427.03,492.39L423.41,495.88L422.27,497.44L421.47,499.14L421.06,501.08L421.24,502.9L422.5,504.71L424.14,508.03L421.07,512.61L419.85,512.81L418.4,512.51L416.65,511.24L413.14,511.42L411.45,511.71L408.6,512.99L407.06,514L405.59,513.94L400.32,512.18L399.22,508L399.44,506.72L401.22,505.42L401.65,503.32L395.17,492.05L393.39,489.48L391.64,485.19L394.27,485.99L395.8,487.11L396.98,487.13L397.76,485.68L396.18,483.11L394.4,482.01L394.38,480.33L396.04,479.54L398.1,480.4L399.8,481.16L399.81,483.28L403.15,483.77L408.38,481.38L409.91,481.75L415.67,480.39L417.96,479.47L419.02,478.14L424.47,479.47Z" class="land" id="SE-M" title="Skåne"/>
    <path d="M381.97,446.23L384.34,446.65L387.65,444.91L388.54,445.78L389.9,450.41L389.58,453.1L390.21,454.83L391.52,454.56L392.79,453.09L394.95,453.1L400.57,457.83L401.49,458.88L402.28,462.49L403.24,462.04L403.93,460.57L406.61,459.69L408.62,460.27L410.19,461.2L410.19,462.78L412.07,463.77L411.75,465.29L410.63,466.66L408.81,467.1L405.9,467.43L405.68,469.26L406.08,473.03L407.38,476.53L408.34,478.25L408.38,481.38L403.15,483.77L399.81,483.28L399.8,481.16L398.1,480.4L399.09,479.56L399.55,477.88L398.7,474.23L397.57,473.61L395.92,474.19L394.98,473.06L394,470.85L393.73,468.77L391.8,466.63L389.49,465.6L389.49,463.86L388.39,461.89L385.64,456.02L385.92,453.01L385.12,449.41L383.69,449.18L383.31,451.93L381.8,449.41Z" class="land" id="SE-N" title="Halland"/>
    <path d="M380.18,427.12L377.95,427.83L376.76,427.19L374.37,427.75L373.4,426.25L377.82,421.8L378.98,421.89L380.3,424.1ZM421.84,398.3L424.14,405.2L425.39,407.93L426.97,408.66L429.28,408.19L431.21,409.45L427.53,416.59L424.81,422.5L422.98,427.48L420.9,432.29L419.63,434.78L417.32,437.95L415.66,436.48L413.78,437.25L412.97,436.82L412.79,439.14L411.76,445.34L411.41,446.48L409.16,450.11L406.76,452.52L405.56,453.2L403.73,455.4L401.49,458.88L400.57,457.83L394.95,453.1L392.79,453.09L391.52,454.56L390.21,454.83L389.58,453.1L389.9,450.41L388.54,445.78L387.65,444.91L384.34,446.65L381.97,446.23L382.01,443.45L381.17,443.8L380.58,441.92L381.57,440.88L379.06,441.05L378.35,440.18L378.75,437.24L377.81,436L378.15,434.85L379.33,434.35L380.09,430.18L379.67,429.11L381.54,424.16L379.84,420.69L378.75,420.35L375.55,423.56L374.78,423.03L375.17,421.3L376.83,418.24L375.8,418.1L375.3,420.33L374.08,422.01L373.19,422.62L371.69,419.69L370.44,419.76L369.81,418.05L370.93,412.15L370.61,409.58L369.46,407.87L369.48,406.6L370.37,404.98L370.33,403.37L369.69,400.98L368.19,399.9L368.3,398.12L369.56,395.74L371.76,394.86L372.36,395.43L373.55,398.58L373.89,402.05L374.87,402.07L377.1,401.26L379.23,395.23L379.03,394L379.54,390.98L383.57,392.28L384,390.48L386.6,390.38L387.73,392.28L390.74,394.47L393.01,394.73L393.38,393.17L395.36,393.84L397.19,398.56L399.05,405.25L404.57,408.18L407.47,407.12L406.33,405.18L406.72,403.03L407.79,399.5L410.36,396.98L415.43,397.14L419.26,397.06L420.93,397.47ZM376.54,433.21L375.31,432.58L374.9,430.01L375.44,429.44L378.97,429.68L378.94,431.07Z" class="land" id="SE-O" title="Västra Götaland"/>
    <path d="M394.42,327.66L395.42,330.9L402.84,338.76L404.78,341.88L408.79,350L410.26,351L412.12,351.5L413.27,353.82L416.59,358.81L417.41,358.43L417.67,357.11L419.22,357.44L420.36,358.62L420.45,360.33L421.1,361.67L423.98,363.31L425.11,364.57L425.33,366.07L424.57,368.33L424.53,373.78L424.95,377.23L425.76,381.03L425.05,384.04L422.51,387.89L421.95,391.82L422.03,393.14L423.13,396.54L421.84,398.3L420.93,397.47L419.26,397.06L415.43,397.14L410.36,396.98L407.79,399.5L406.72,403.03L406.33,405.18L407.47,407.12L404.57,408.18L399.05,405.25L397.19,398.56L395.36,393.84L393.38,393.17L393.01,394.73L390.74,394.47L387.73,392.28L386.6,390.38L384,390.48L383.57,392.28L379.54,390.98L380.04,390.05L379.78,387.39L377.77,378.26L379.32,376.9L380.55,376.35L381.72,374.89L381.83,373.42L381.46,371.19L380.34,369.75L382.75,368.01L385.89,368.31L389.04,365.29L391.41,362.31L392.03,360.21L392.53,352.98L393.59,350.73L393.91,348.32L393.67,346.64L392.16,342.69L389.74,337.46L388.15,331.6L387.09,329.61L390.48,327.79L393.21,328Z" class="land" id="SE-S" title="Värmland"/>
    <path d="M425.11,364.57L430.33,365.54L429.88,362.47L431.02,361.55L432.59,363.44L434.36,362.91L435.55,363.3L437.56,364.71L438.93,367.37L441.79,370.12L443.04,372.72L445.14,378.87L446.44,380.95L446.89,384.68L445.13,385.67L444.92,388.94L446.5,389.91L448.33,390.53L448.06,391.78L448.21,394.6L446.6,395.36L445.18,396.85L445.47,399.15L443.8,400.64L443.9,402.15L441.68,404.41L438.81,403.07L435.74,406.08L435.24,407.53L434.08,408.49L432.6,408.41L431.21,409.45L429.28,408.19L426.97,408.66L425.39,407.93L424.14,405.2L421.84,398.3L423.13,396.54L422.03,393.14L421.95,391.82L422.51,387.89L425.05,384.04L425.76,381.03L424.95,377.23L424.53,373.78L424.57,368.33L425.33,366.07Z" class="land" id="SE-T" title="Örebro"/>
    <path d="M508.7,239.06L507.35,244.26L505.52,246.77L504.55,249.93L502.93,248.74L502.65,247.39L501.51,246.32L500.08,247.2L501.42,248.09L501.65,249.43L499.72,250.56L498.94,250.34L495.99,252.25L494.65,255.36L496.15,258.53L494.27,262.02L489.69,265.11L487.69,264.92L488.63,263.44L486.91,262.74L485.84,263.78L486.35,268.2L484.31,269.59L487.05,270.8L487.34,271.9L483.59,275.87L482.29,275.27L480.43,276.39L480.64,277.7L478.36,277.25L476.64,274.28L476.02,274.12L474.72,276.13L475.58,281.89L477.11,284.06L479.83,285.02L478.68,286.64L477.85,286.45L477.42,289.22L472.77,288.45L467.87,287.45L464.6,286.48L459.66,285.43L456.87,285.48L451.68,284.32L446.13,281.93L443.18,282.05L440.43,284.43L438.86,283.84L437.3,285.06L433.74,283.04L431.26,279.55L430.72,272.69L435.13,272.63L437.07,273.74L440.18,272.22L441.97,271.95L446.63,270.69L451.97,268.24L454.06,269.08L457.77,268.45L458.96,267.85L460.24,264.9L464.29,260.25L468.23,259.53L469.22,259.1L461.94,250.5L460.79,249.33L454.02,243.8L451.36,238.22L450.89,235.89L448.72,233.25L448.53,232.41L450.73,231.58L454.31,231.2L456.91,231.21L461.88,229.01L461.65,226.35L462.51,222.78L464.72,219.13L466.67,220.99L477.36,222.89L482.91,223.3L485.55,222.28L491.77,219.36L493.4,218.92L494.23,220.19L493.75,221.27L494.28,224.13L495.61,225.26L500.18,227.08L502.37,227.74L505.73,232.73L508.36,237.65ZM487.13,269.07L486.6,267.94L486.95,266.62L488.7,266.49L488.93,267.5ZM477.45,280.46L476.38,280.12L476.1,276.62L477.23,276.94L478.09,279.93Z" class="land" id="SE-Y" title="Västernorrland"/>
    <path d="M388.54,284.33L391.21,286.02L392.77,286.57L395.47,286.36L396.65,286.64L400.32,291.75L402.62,293.31L404.99,292.39L406.45,294.01L403.95,296.43L408.76,304.11L408.75,305.75L409.45,307.08L412.39,307.6L422.42,308.62L424.1,310.09L425.26,309.37L428.99,309.25L429.6,311.44L429.57,312.82L430.9,313.2L435.85,313.13L437.14,311.22L440.97,316.43L446.15,322.44L447.43,327.33L448.91,329.14L451.33,330.38L454.63,331.11L456.68,334.93L458.65,337.73L458.81,339.78L456.38,343.64L454.66,344.32L455.77,347.99L458.63,351.81L461.27,353.47L462.53,356.63L463.75,358.03L462.39,358.9L457.95,362.33L456.72,362.8L454.8,362.75L454.48,360.58L452.22,358.67L448.23,359.54L447.61,360.16L446.48,364.22L447.09,364.77L446.33,367.04L443.43,366.97L441.79,370.12L438.93,367.37L437.56,364.71L435.55,363.3L434.36,362.91L432.59,363.44L431.02,361.55L429.88,362.47L430.33,365.54L425.11,364.57L423.98,363.31L421.1,361.67L420.45,360.33L420.36,358.62L419.22,357.44L417.67,357.11L417.41,358.43L416.59,358.81L413.27,353.82L412.12,351.5L410.26,351L408.79,350L404.78,341.88L402.84,338.76L395.42,330.9L394.42,327.66L396.72,322.58L398.16,316.81L392.57,309.51L390.22,308.99L385.62,303.65Z" class="land" id="SE-W" title="Dalarna"/>
    <path d="M440.43,284.43L443.18,282.05L446.13,281.93L451.68,284.32L456.87,285.48L459.66,285.43L464.6,286.48L467.87,287.45L472.77,288.45L477.42,289.22L477.09,293.56L475.88,294.32L475.06,296.47L474.91,300.41L475.75,302.64L478.11,304.62L477.73,306.86L476.56,307.17L475.76,304.98L474.96,304.23L472.93,303.85L473.65,305.73L472.4,306.99L470.87,306.88L471.16,309.89L472.02,311.26L472.96,313.97L470.94,315.77L472.65,318.02L473.85,318.41L472.64,321.88L471.72,331.64L473.27,333.37L473.87,335.23L473.89,339.22L472.5,340.21L475.31,342.33L475.6,343.08L474.06,349.12L472.1,351.31L472.55,352.36L472.31,354.3L470.17,355.94L467.58,355.21L466.48,357.3L464.76,358.35L463.75,358.03L462.53,356.63L461.27,353.47L458.63,351.81L455.77,347.99L454.66,344.32L456.38,343.64L458.81,339.78L458.65,337.73L456.68,334.93L454.63,331.11L451.33,330.38L448.91,329.14L447.43,327.33L446.15,322.44L440.97,316.43L437.14,311.22L435.85,313.13L430.9,313.2L429.57,312.82L429.6,311.44L428.99,309.25L425.26,309.37L425.98,308.56L426.82,301.55L429.05,298.19L429.82,298.77L430.66,301.21L431.6,301.72L435.08,299.34L435.72,298.38L436.15,293.86L440.93,289.99L441.6,288.66L441.41,287.54L440.09,285.25Z" class="land" id="SE-X" title="Gävleborg"/>
    <path d="M463.75,358.03L464.76,358.35L466.48,357.3L467.58,355.21L470.17,355.94L472.31,354.3L473.56,356.12L475.12,356.91L474.32,362.59L472.37,364.34L470.86,366.37L470.84,368.25L469.5,370.33L468.24,369.29L465.5,370.02L464.39,372.64L465.36,373.53L466.33,375.53L466.83,378.63L465.49,379.5L463.35,379.87L461.7,377.8L460.54,378.55L461.39,379.57L460.39,381.42L457.73,382.73L454.9,382.66L455.12,383.53L456.75,383.38L456.65,385.62L456.2,386.49L454.91,386.84L452.1,386.71L450.95,387.63L449.71,389.53L449.43,391.44L448.06,391.78L448.33,390.53L446.5,389.91L444.92,388.94L445.13,385.67L446.89,384.68L446.44,380.95L445.14,378.87L443.04,372.72L441.79,370.12L443.43,366.97L446.33,367.04L447.09,364.77L446.48,364.22L447.61,360.16L448.23,359.54L452.22,358.67L454.48,360.58L454.8,362.75L456.72,362.8L457.95,362.33L462.39,358.9Z" class="land" id="SE-U" title="Västmanland"/>
    <path d="M422.83,174.35L427.13,178.72L430.51,181.52L434.74,186.27L435.78,188.87L437.55,189.78L440.3,192.38L442.08,195.7L444.28,198.38L445.23,201.09L451.93,205.88L452.4,209.05L455.76,208.71L462.32,216.15L464.72,219.13L462.51,222.78L461.65,226.35L461.88,229.01L456.91,231.21L454.31,231.2L450.73,231.58L448.53,232.41L448.72,233.25L450.89,235.89L451.36,238.22L454.02,243.8L460.79,249.33L461.94,250.5L469.22,259.1L468.23,259.53L464.29,260.25L460.24,264.9L458.96,267.85L457.77,268.45L454.06,269.08L451.97,268.24L446.63,270.69L441.97,271.95L440.18,272.22L437.07,273.74L435.13,272.63L430.72,272.69L431.26,279.55L433.74,283.04L437.3,285.06L438.86,283.84L440.43,284.43L440.09,285.25L441.41,287.54L441.6,288.66L440.93,289.99L436.15,293.86L435.72,298.38L435.08,299.34L431.6,301.72L430.66,301.21L429.82,298.77L429.05,298.19L426.82,301.55L425.98,308.56L425.26,309.37L424.1,310.09L422.42,308.62L412.39,307.6L409.45,307.08L408.75,305.75L408.76,304.11L403.95,296.43L406.45,294.01L404.99,292.39L402.62,293.31L400.32,291.75L396.65,286.64L395.47,286.36L392.77,286.57L391.21,286.02L388.54,284.33L386.91,278.93L384.94,274.31L384.31,272.05L384.29,269.25L385.03,266.1L383.99,260.74L386.38,256.09L384.12,250.11L382.4,246.37L386.83,238.22L385.88,234.42L389.43,228.84L391.6,224.79L394.35,220.53L398,217.3L400.42,215.77L404.56,214.65L417.44,217.79L420.4,211.01L420.35,205.18L419.75,199.75L416.05,198.28L411.99,195.5L412.74,193L414.89,189.25L419.32,180.56L421.78,176.51Z" class="land" id="SE-Z" title="Jämtland"/>
  </g>
</svg>