<?xml version="1.0" encoding="UTF-8"?>
<svg xmlns="http://www.w3.org/2000/svg" width="179.78" height="262.29" viewBox="390.11 125.85 179.78 262.29" style="background-color:#000000">
  <!-- Created using SVG Map Generator: dojo.amcharts.com/svg-map-generator -->
  <style>
    .land { fill: #ffffff; stroke: #000000; stroke-width: 0.65; }
  </style>
  <g id="polygons">
    <path d="M458.97,240.12L456.82,242.44L453.84,243.38L450,238.82L452.2,233.87L452.35,229.86L448.36,228.92L441.15,226.32L441.65,224.93L440.51,221.56L442.85,219.12L446.83,217.22L444.94,215.75L448.62,210.68L449,205.84L454.39,202.67L454.75,199.98L457.11,197.91L455.68,195.68L456.23,194.97L459.19,194.52L459.28,196.69L461.79,200.21L463.92,201.19L464.93,204.29L467.73,204.57L469.06,209.87L468.18,212.44L472.65,218.75L475.71,219.98L475.62,222.97L473.11,225.96L477.42,230.67L477.03,232.88L474.52,232.49L473.26,235.24L475.46,237.36L474.51,239.47L472.42,237.73L469.29,238.04L467.64,235.52L464.9,236.7L464.27,233.95L460.11,232.61L459.33,234.34L460.9,236.62L459.09,238.9Z" class="land" id="RS-00" title="Beograd"/>
    <path d="M436.36,154L432.34,156.22L432.41,158.89L428.81,163.38L425.36,161.49L423.95,161.41L425.83,160.07L420.42,156.22L414.94,149.7L413.76,145.13L414.15,142.15L412.53,140.47L411.87,138.93L415.29,136.75L417.42,137.06L421.17,131.13L423.73,129.07L426.55,129.55L429.18,128.5L434.27,132.1L437.03,130.51L435.94,136.96L433.98,141.12L433.2,147.65L434.61,152.53Z" class="land" id="RS-01" title="Severnobački okrug"/>
    <path d="M456.08,195.16L452.82,191.73L453.69,191.19L455.49,187.57L450.86,181.98L450.79,178.68L448.2,174.2L448.51,172.23L443.57,167.67L446,166.26L445.14,158.71L447.07,157.76L448.59,157.13L448.75,153.36L456.27,152.73L459.09,158.79L456.98,159.81L455.57,162.8L458.78,163.82L461.21,162.56L467.95,155.01L469.73,152.35L471,154.49L475.61,155.86L475.7,160.68L474.04,163.33L476.85,167.92L474.17,170.05L478.32,172.16L484.49,180.18L480.44,181.37L477.78,184.99L474.25,187.35L472.45,190.02L469.39,186.87L465.47,186.09L462.89,187.42L460.46,190.33L459.19,194.52L456.23,194.97Z" class="land" id="RS-02" title="Srednjebanatski okrug"/>
    <path d="M447.07,157.76L446.37,156.14L439.63,154.33L436.36,154L434.61,152.53L433.2,147.65L433.98,141.12L435.94,136.96L437.03,130.51L439.07,129.24L446.09,129.13L449.53,130.24L456.28,136.97L456.46,139.96L458.95,142.05L462.2,142.78L463.57,146.5L469.65,150.32L469.73,152.35L467.95,155.01L461.21,162.56L458.78,163.82L455.57,162.8L456.98,159.81L459.09,158.79L456.27,152.73L448.75,153.36L448.59,157.13Z" class="land" id="RS-03" title="Severnobanatski okrug"/>
    <path d="M475.71,219.98L472.65,218.75L468.18,212.44L469.06,209.87L467.73,204.57L464.93,204.29L463.92,201.19L461.79,200.21L459.28,196.69L459.19,194.52L460.46,190.33L462.89,187.42L465.47,186.09L469.39,186.87L472.45,190.02L474.25,187.35L477.78,184.99L480.44,181.37L484.49,180.18L486.47,179.99L487.89,182.1L491.38,181.4L492.3,183.94L495.31,186.11L497.44,185.52L503.98,188.4L505.86,191.58L503.81,192.57L502.86,197.4L498.84,198.53L502.12,202.08L506.62,203.82L507.25,206.32L504.48,207.36L499.26,207.49L498.8,210.13L493.01,212.59L490.18,215.19L485.59,216.4L483.58,216.51L480.62,219.17Z" class="land" id="RS-04" title="Južnobanatski okrug"/>
    <path d="M424.28,161.43L421.75,168.05L418.78,167.34L414.86,171.59L415.72,174.1L407.88,174.18L405.45,173.63L401.13,170.61L401.4,167.8L397.9,167.81L395.5,165.77L398.61,159.29L396.2,157.54L395.22,153.4L393.78,151.77L394.03,148.47L392.76,145.63L396.06,143.76L399.42,143.94L404.46,137.46L406.2,140.03L412.53,140.47L414.15,142.15L413.76,145.13L414.94,149.7L420.42,156.22L425.83,160.07L423.95,161.41Z" class="land" id="RS-05" title="Zapadnobački okrug"/>
    <path d="M401.13,170.61L405.45,173.63L407.88,174.18L415.72,174.1L414.86,171.59L418.78,167.34L421.75,168.05L424.28,161.43L425.36,161.49L428.81,163.38L432.41,158.89L432.34,156.22L436.36,154L439.63,154.33L446.37,156.14L447.07,157.76L445.14,158.71L446,166.26L443.57,167.67L448.51,172.23L448.2,174.2L450.79,178.68L450.86,181.98L455.49,187.57L453.69,191.19L452.96,191.65L450.94,189.22L446.71,188.27L443.73,190L438.64,190.95L430.41,190.79L425.16,191.34L421.24,189.85L418.81,191.42L416.63,189.51L416.73,185.87L410.53,185.21L404.59,182.08L403.7,179.69L401,179.19L398.97,176.89L400.95,174.6L399.52,172.9Z" class="land" id="RS-06" title="Južnobački okrug"/>
    <path d="M452.96,191.65L452.82,191.73L456.08,195.16L455.68,195.68L457.11,197.91L454.75,199.98L454.39,202.67L449,205.84L448.62,210.68L444.94,215.75L446.83,217.22L442.85,219.12L440.51,221.56L440.88,219.56L433.47,214.62L430.51,214.42L429.3,210.55L431.91,205.27L428.05,203.97L425.76,205.41L419.53,205.64L416.84,204.41L414.93,205.73L407.54,204.3L401.03,208.2L400.48,205.41L403.33,205.03L405.96,203.1L404.37,199.23L404.84,195.79L403.83,192.1L406.09,192.03L407.79,189.52L411.08,189.54L413.34,187.83L416.63,189.51L418.81,191.42L421.24,189.85L425.16,191.34L430.41,190.79L438.64,190.95L443.73,190L446.71,188.27L450.94,189.22Z" class="land" id="RS-07" title="Sremski okrug"/>
    <path d="M441.65,224.93L437.78,224.98L435.74,226.95L436.83,231.51L435.58,235.21L430.09,233.16L426.49,233.32L423.82,231.67L421.32,232.06L421.79,238.59L418.18,242.37L423.98,244.72L424.77,247.55L426.65,249.13L421.18,253.28L420.68,251.79L415.09,247.81L413.66,242.73L409.98,243.24L405.47,240.02L404.3,236.77L406.17,234.02L405.39,227.86L408.24,226.15L411.66,218.23L413.74,214.99L412.46,212.29L416.22,207.72L414.93,205.73L416.84,204.41L419.53,205.64L425.76,205.41L428.05,203.97L431.91,205.27L429.3,210.55L430.51,214.42L433.47,214.62L440.88,219.56L440.51,221.56Z" class="land" id="RS-08" title="Mačvanski okrug"/>
    <path d="M441.65,224.93L441.15,226.32L448.36,228.92L452.35,229.86L452.2,233.87L450,238.82L453.84,243.38L456.82,242.44L458.97,240.12L458.94,240.39L460.32,243.58L459.64,244.72L454.31,250.23L449.84,250.62L446.24,252.35L445.65,252.53L441.69,251.96L440.52,252.74L437.31,249.99L433.39,254.24L432.13,251.73L426.65,249.13L424.77,247.55L423.98,244.72L418.18,242.37L421.79,238.59L421.32,232.06L423.82,231.67L426.49,233.32L430.09,233.16L435.58,235.21L436.83,231.51L435.74,226.95L437.78,224.98Z" class="land" id="RS-09" title="Kolubarski okrug"/>
    <path d="M489.35,246.9L483.92,243.5L476.56,241.53L474.51,239.47L475.46,237.36L473.26,235.24L474.52,232.49L477.03,232.88L477.42,230.67L473.11,225.96L475.62,222.97L475.71,219.98L480.62,219.17L483.58,216.51L485.59,216.4L485.65,220.22L486.9,223.28L489.8,224.39L489.41,227.69L491.06,231.23L489.17,234.85L491.37,238.22L489.04,240.33L490.77,243.92L489.5,246.48Z" class="land" id="RS-10" title="Podunavski okrug"/>
    <path d="M489.04,240.33L491.37,238.22L489.17,234.85L491.06,231.23L489.41,227.69L489.8,224.39L486.9,223.28L485.65,220.22L485.59,216.4L490.18,215.19L493.01,212.59L498.8,210.13L500.66,212.89L506.29,213.14L508.4,213.92L510.38,219.66L522.57,220.55L525.55,221.41L526.21,223.11L523.41,226.35L523.14,231.37L517.43,236.21L518.5,238.18L521.72,240.25L521.99,244.1L525.38,246.71L523.77,251.81L519.3,252.44L518.52,253.55L517.83,252.28L512.4,251.35L511.01,250.08L507.2,249.84L505,246.48L498.75,245.78L497.48,241.37L493.78,242.65L491.81,240.1Z" class="land" id="RS-11" title="Braničevski okrug"/>
    <path d="M474.51,239.47L476.56,241.53L483.92,243.5L489.35,246.9L488.93,248.1L490.54,252.05L487.89,254.72L488.81,257.61L485.69,258.89L487.19,260.98L484.53,263.76L486.15,265.62L480.73,268.74L479.44,267.25L475.17,267.83L474.47,270.38L472.5,270.49L469.24,266.23L465.05,259.9L469.52,256.44L465.37,252.43L463.72,248.5L461.21,246.53L460.35,243.54L460.32,243.58L458.94,240.39L459.09,238.9L460.9,236.62L459.33,234.34L460.11,232.61L464.27,233.95L464.9,236.7L467.64,235.52L469.29,238.04L472.42,237.73Z" class="land" id="RS-12" title="Šumadijski okrug"/>
    <path d="M504.66,271.68L504.54,271.33L503.15,272.84L497.95,270.75L494.59,270.75L489.62,274.46L484.65,273.07L483.72,273.65L482.33,272.38L480.73,268.74L486.15,265.62L484.53,263.76L487.19,260.98L485.69,258.89L488.81,257.61L487.89,254.72L490.54,252.05L488.93,248.1L489.5,246.48L490.77,243.92L489.04,240.33L491.81,240.1L493.78,242.65L497.48,241.37L498.75,245.78L505,246.48L507.2,249.84L511.01,250.08L512.4,251.35L517.83,252.28L518.52,253.55L516.81,257.57L513.32,266.78L511.81,268.41L507.2,269.22Z" class="land" id="RS-13" title="Pomoravski okrug"/>
    <path d="M518.52,253.55L519.3,252.44L523.77,251.81L525.38,246.71L521.99,244.1L521.72,240.25L518.5,238.18L517.43,236.21L523.14,231.37L523.41,226.35L526.21,223.11L527.38,226.8L529.19,229.52L533.36,230.79L537.43,221.98L540.13,218.9L542.26,218.68L545.55,216.58L550.1,221.5L554.18,222.45L557.47,225.52L555.13,228.47L552.23,226.52L549.59,227.41L549.3,229.86L545.37,232.66L546.85,234.12L547.82,238.52L549.32,240.71L553.58,241.78L554.63,242.94L553.79,246.01L551.61,248.88L551.93,254.84L548.27,255.8L545.13,255.72L544.41,251.05L543.16,249.08L540.48,249.44L537.09,248.45L535.57,251.14L536.64,256.07L534.41,258.49L533.33,262.44L529.4,263.16L527.88,259.66L526.28,260.74L523.24,259.39L522.07,257.24L516.81,257.57Z" class="land" id="RS-14" title="Borski okrug"/>
    <path d="M548.27,255.8L548.06,257.38L543.04,258.33L542.95,262.1L540.85,269.64L542.67,272.62L542.96,276.2L546.46,279.55L546.36,283.95L548.33,289.33L554.02,293.38L550.05,297.02L547.18,295.67L544.5,295.94L539.95,294.05L539.5,289.48L537,290.02L534.85,287.96L531.28,287.6L527.97,285.98L527.43,284.28L522.25,285.72L519.93,281.59L515.82,280.87L513.23,276.57L513.5,271.18L511.81,268.41L513.32,266.78L516.81,257.57L522.07,257.24L523.24,259.39L526.28,260.74L527.88,259.66L529.4,263.16L533.33,262.44L534.41,258.49L536.64,256.07L535.57,251.14L537.09,248.45L540.48,249.44L543.16,249.08L544.41,251.05L545.13,255.72Z" class="land" id="RS-15" title="Zaječarski okrug"/>
    <path d="M445.65,252.53L445.46,252.59L446,256.52L444.91,258.72L447.02,261.32L446.47,264.23L447.65,270.68L450.16,275.16L450.79,277.92L448.51,278.07L444.83,280.51L442.24,283.74L439.34,284.84L443.34,288.93L447.34,296.08L449.77,298.83L453.29,297.5L454.99,298.93L453.89,302.06L451.92,303.22L454.93,306.82L450.07,307.97L447.88,310.18L445.2,315.49L441.2,311.07L433.44,309.16L432.7,306.43L427.19,304.98L425.9,302.63L423.02,300.82L422.09,297.97L420.09,297.18L419.11,294.73L412.65,290.97L409.73,287.7L410.81,281.97L415.64,281.48L417.24,283.63L421,282.89L422.08,279.73L421.26,274.67L419.06,271.88L416.84,270.71L416.36,267.78L413.61,263.58L409.94,259.37L412.96,258.79L416.3,260.87L422.09,261.1L423.7,258.59L426.06,257.6L425.23,254.5L421.18,253.28L426.65,249.13L432.13,251.73L433.39,254.24L437.31,249.99L440.52,252.74L441.69,251.96Z" class="land" id="RS-16" title="Zlatiborski okrug"/>
    <path d="M469.24,266.23L467.07,266.66L466.03,270.03L462.1,273.28L460.25,273.4L461.64,277.46L459.44,277.69L458.17,283.03L455.85,285.11L458.63,286.74L460.71,289.29L459.79,292.78L460.6,296.61L459.09,297.18L457.47,300.44L454.99,298.93L453.29,297.5L449.77,298.83L447.34,296.08L443.34,288.93L439.34,284.84L442.24,283.74L444.83,280.51L448.51,278.07L450.79,277.92L450.16,275.16L447.65,270.68L446.47,264.23L447.02,261.32L444.91,258.72L446,256.52L445.46,252.59L446.24,252.35L449.84,250.62L454.31,250.23L459.64,244.72L460.35,243.54L461.21,246.53L463.72,248.5L465.37,252.43L469.52,256.44L465.05,259.9Z" class="land" id="RS-17" title="Moravički okrug"/>
    <path d="M482.33,272.38L479.91,278.41L481.87,285.95L480.6,286.76L477.36,285.61L476.09,287.93L475.28,292.92L478.52,294.54L476.62,300.86L470.92,304.05L468.23,304.88L470.23,307.61L469.95,309.14L471.86,313.8L471.75,315.48L466.51,316.58L463.34,318.81L462.94,320.49L464.53,323.27L464.28,323.82L463.12,325.03L456.97,326.01L457.33,321.39L449.1,316.94L447.7,317.45L445.2,315.49L447.88,310.18L450.07,307.97L454.93,306.82L451.92,303.22L453.89,302.06L454.99,298.93L457.47,300.44L459.09,297.18L460.6,296.61L459.79,292.78L460.71,289.29L458.63,286.74L455.85,285.11L458.17,283.03L459.44,277.69L461.64,277.46L460.25,273.4L462.1,273.28L466.03,270.03L467.07,266.66L469.24,266.23L472.5,270.49L474.47,270.38L475.17,267.83L479.44,267.25L480.73,268.74Z" class="land" id="RS-18" title="Raški okrug"/>
    <path d="M504.54,294.09L504.42,293.84L498.29,292.56L493.67,294.19L493.2,296.86L491.35,297.9L490.43,301.27L488.81,302.31L486.73,300.69L483.72,301.04L481.84,309.46L479.53,308.49L478.19,306.09L480.92,305.42L478.69,301.59L476.62,300.86L478.52,294.54L475.28,292.92L476.09,287.93L477.36,285.61L480.6,286.76L481.87,285.95L479.91,278.41L482.33,272.38L483.72,273.65L484.65,273.07L489.62,274.46L494.59,270.75L497.95,270.75L503.15,272.84L504.54,271.33L505,272.61L505.58,275.27L503.96,277.48L506.5,280.38L506.96,287.93L508.35,290.71Z" class="land" id="RS-19" title="Rasinski okrug"/>
    <path d="M539.95,294.05L539.41,296.84L536.46,297.47L532.26,295.49L531.72,296.84L533.15,300.6L531.64,301.59L531.1,304.55L535.3,307.24L537.62,307.51L537.71,310.11L535.75,310.77L534.5,312.29L531.82,311.84L527.8,307.17L521.72,306.37L518.12,307.4L517.95,306.96L516.68,301.85L513.9,300.92L512.74,302.66L510.43,301.04L508.24,297.21L509.28,294.89L505,295.12L504.54,294.09L508.35,290.71L506.96,287.93L506.5,280.38L503.96,277.48L505.58,275.27L505,272.61L504.66,271.68L507.2,269.22L511.81,268.41L513.5,271.18L513.23,276.57L515.82,280.87L519.93,281.59L522.25,285.72L527.43,284.28L527.97,285.98L531.28,287.6L534.85,287.96L537,290.02L539.5,289.48Z" class="land" id="RS-20" title="Nišavski okrug"/>
    <path d="M500.96,324.54L497.75,322.16L493.72,321.37L494.64,318.58L492.58,316.53L491.41,312.76L487.93,308.76L483.52,309.54L481.84,309.46L483.72,301.04L486.73,300.69L488.81,302.31L490.43,301.27L491.35,297.9L493.2,296.86L493.67,294.19L498.29,292.56L504.42,293.84L505,295.12L509.28,294.89L508.24,297.21L510.43,301.04L512.74,302.66L513.9,300.92L516.68,301.85L517.95,306.96L518.29,307.88L516.91,309.74L507.77,314.61L505.81,314.61L502.92,317.05L503.73,318.56L502.68,323.55Z" class="land" id="RS-21" title="Toplički okrug"/>
    <path d="M535.75,310.77L537.71,310.11L537.62,307.51L535.3,307.24L531.1,304.55L531.64,301.59L533.15,300.6L531.72,296.84L532.26,295.49L536.46,297.47L539.41,296.84L539.95,294.05L544.5,295.94L547.18,295.67L550.05,297.02L554.02,293.38L558.07,294.73L560.58,297.45L561.26,300.15L563.52,303.44L567.24,306.9L567,310.21L564.43,311.87L563.49,314.45L558.76,317.48L558.57,320.42L557.13,322.96L549.95,324.22L547.66,323.71L544.15,322.96L541.73,320.18L542.81,318.93L535.12,315.25L537.18,312.38Z" class="land" id="RS-22" title="Pirotski okrug"/>
    <path d="M547.66,323.71L544.64,326.45L538.16,330.58L535.21,330.05L533.51,327.17L530.83,326.28L525.02,327.98L519.04,328.16L516.06,334.14L513.57,336.04L511.68,335.51L508.69,331.77L504.96,331.42L504.92,331.4L500.03,330.21L500.96,324.54L502.68,323.55L503.73,318.56L502.92,317.05L505.81,314.61L507.77,314.61L516.91,309.74L518.29,307.88L518.12,307.4L521.72,306.37L527.8,307.17L531.82,311.84L534.5,312.29L535.75,310.77L537.18,312.38L535.12,315.25L542.81,318.93L541.73,320.18L544.15,322.96Z" class="land" id="RS-23" title="Jablanički okrug"/>
    <path d="M544.64,326.45L546.89,331.3L544.31,340L549.28,345.85L547.66,350.76L545.93,351.05L545.25,353.81L540.39,355.89L537,353.12L530.72,356.7L523.18,353.97L522.5,356.09L518.2,355.93L515.69,358.54L511.6,359.48L509.11,358.72L507.96,353.78L509.86,351.65L510.27,347.85L514.45,344.67L515.29,340.94L518.06,338.06L516.06,334.14L519.04,328.16L525.02,327.98L530.83,326.28L533.51,327.17L535.21,330.05L538.16,330.58Z" class="land" id="RS-24" title="Pčinjski okrug"/>
    <path d="M474.25,338.88L474.82,335.79L479.56,334.28L482.8,334.52L486.61,332.43L486.96,328.71L489.39,327.32L487.31,324.89L486.96,320.25L487.54,316.64L485.34,314.67L483.52,309.54L487.93,308.76L491.41,312.76L492.58,316.53L494.64,318.58L493.72,321.37L497.75,322.16L500.96,324.54L500.03,330.21L504.92,331.4L504.95,331.41L503.26,335.44L503.38,337.42L499.91,338L498.64,340.43L495.75,342.99L497.48,344.5L495.86,347.87L497.02,352.5L495.17,353.32L495.17,356.8L496.56,358.77L500.19,359.94L498.45,361.62L495.72,367.43L493.14,367.34L490.75,362.33L488.67,361.58L483.67,365.41L483.37,363.65L479.91,362.6L478.98,360.97L481.29,358.89L483.49,357.26L482.56,350.76L482.91,349.49L480.48,346L475.98,344.15L475.98,339.74Z" class="land" id="RS-25" title="Kosovski okrug"/>
    <path d="M475.98,344.15L472.39,344.96L471.12,342.87L469.04,343.8L465.91,343.57L463.83,345.42L464.06,352.5L466.61,355.17L463.72,357.96L462.94,360.37L461.17,358.02L458.9,357.22L456.1,354.82L452.18,354.99L451.43,349.74L448.88,344.64L445.02,341.88L445.44,338.19L447.79,335.6L444.54,332.72L444.7,329.18L448.84,330.43L452.39,330.7L454.18,327.08L456.97,326.01L463.12,325.03L464.28,323.82L464.45,323.44L468.11,323.26L469.73,326.16L469.27,333.82L471.69,334.75L472.5,337.53L474.25,338.88L475.98,339.74Z" class="land" id="RS-26" title="Pećki okrug"/>
    <path d="M483.67,365.41L479.83,367.95L475.52,369L473.79,371.86L474.96,378.15L470.25,381.97L468.39,385.19L466.18,385.5L465.45,380.83L468.12,374.75L466.86,370.98L465.2,368.72L465.72,366.44L462.94,360.37L463.72,357.96L466.61,355.17L464.06,352.5L463.83,345.42L465.91,343.57L469.04,343.8L471.12,342.87L472.39,344.96L475.98,344.15L480.48,346L482.91,349.49L482.56,350.76L483.49,357.26L481.29,358.89L478.98,360.97L479.91,362.6L483.37,363.65Z" class="land" id="RS-27" title="Prizrenski okrug"/>
    <path d="M483.52,309.54L485.34,314.67L487.54,316.64L486.96,320.25L487.31,324.89L489.39,327.32L486.96,328.71L486.61,332.43L482.8,334.52L479.56,334.28L474.82,335.79L474.25,338.88L472.5,337.53L471.69,334.75L469.27,333.82L469.73,326.16L468.11,323.26L464.45,323.44L464.53,323.27L462.94,320.49L463.34,318.81L466.51,316.58L471.75,315.48L471.86,313.8L469.95,309.14L470.23,307.61L468.23,304.88L470.92,304.05L476.62,300.86L478.69,301.59L480.92,305.42L478.19,306.09L479.53,308.49L481.84,309.46Z" class="land" id="RS-28" title="Kosovsko-Mitrovački okrug"/>
    <path d="M500.19,359.94L496.56,358.77L495.17,356.8L495.17,353.32L497.02,352.5L495.86,347.87L497.48,344.5L495.75,342.99L498.64,340.43L499.91,338L503.38,337.42L503.26,335.44L504.95,331.41L504.96,331.42L508.69,331.77L511.68,335.51L513.57,336.04L516.06,334.14L518.06,338.06L515.29,340.94L514.45,344.67L510.27,347.85L509.86,351.65L507.96,353.78L509.11,358.72L505.11,359.22L502.59,358.45Z" class="land" id="RS-29" title="Kosovsko-Pomoravski okrug"/>
  </g>
</svg>