<?xml version="1.0" encoding="UTF-8"?>
<svg xmlns="http://www.w3.org/2000/svg" width="475.08" height="238.91" viewBox="242.46 137.55 475.08 238.91" style="background-color:#000000">
  <!-- Created using SVG Map Generator: dojo.amcharts.com/svg-map-generator -->
  <style>
    .land { fill: #ffffff; stroke: #000000; stroke-width: 0.65; }
  </style>
  <g id="polygons">
    <path d="M408.17,249.43L408.52,248.73L409.77,248.16L410.8,246.76L412.13,246L412.91,246.11L413.49,248.27L414.9,248.48L415.76,249.3L416.53,249.35L417.64,248.51L419.49,249.01L421.67,248.72L422.35,247.46L423.66,246.12L423.85,243.32L422.08,242.03L421.68,241.29L421.68,239.91L422.26,239.13L421.63,236.09L423.37,235.94L424.71,233.95L425.26,232.19L426.89,231.8L427.57,232.49L429.11,232.3L430.73,232.61L431.65,232.33L434.73,232.05L435.7,232.27L436.37,231.79L437.45,232.19L439.48,230.51L440.53,230.46L441.78,229.92L443.35,230.65L443.84,231.85L443.88,233.57L442.65,234.62L443,235.11L445.39,234.48L448.12,234.25L448.73,232.42L450.16,230.17L453.33,226.51L454.96,226.33L458.78,226.27L460.06,225.94L463.11,224.38L464.83,224.81L466.72,223.96L467.46,224.6L468.66,224.63L470.38,225.28L470.99,226.08L473.09,227.62L474.82,228.53L476.63,229.98L478.96,229.98L482.63,228.64L483.8,230.02L485.2,229.17L486.13,229.14L487.9,228.03L489.71,228.09L491.04,229.09L494.71,228.58L499.44,228.86L501.62,228.7L502.55,227.79L503.22,227.93L504.35,229.29L504.63,229.45L507.94,229.57L508.71,229.77L509.35,230.84L514.79,231.79L516.2,231.84L517.69,230.82L518.86,228.82L520.55,230.41L521.73,230.25L522.74,230.56L524.88,232.93L526.02,233.29L524.94,233.79L524.11,236.81L520.71,239.95L520.94,241.29L520.83,243.96L521.3,245.97L519.27,247.48L519.52,249.58L520.12,249.66L519.93,251.32L520.3,252.21L521.61,251.85L524.29,254.32L525.5,255.14L526.08,256.64L527.26,257.92L527.41,258.85L528.2,260.16L529.22,260.99L528.43,262.48L529.13,265.81L528.73,266.88L530.26,267.63L532.2,267.31L532.38,268.2L533.62,268.77L532.99,271.34L531.34,274.53L531.34,275.94L530.69,277.19L529.63,278.11L529.22,280.35L529.94,281.46L529.78,282.94L531.52,283.44L531.71,285.14L534.45,285.01L536.11,284.48L536.85,283.93L537.78,282.35L538.91,281.83L539.73,283.49L541.94,282.7L542.68,283.82L543.17,284.9L542.47,285.63L541.42,285.94L540.91,287.21L538.81,289.27L538.56,290.35L538.97,291.18L538.87,292.42L537.7,293.89L538.33,295.48L538,296.37L536.26,297.93L536.1,298.59L534.77,300.38L535.22,300.83L534.56,301.94L532.52,303.83L531.49,305.63L531.27,307.5L530.08,307.36L530.15,308.46L527.99,308.83L527.53,308.22L525.15,306.77L524.28,306.52L523.2,307.02L523.82,307.71L523.25,308.77L522.3,309.1L521.34,308.8L521.52,310.11L519.06,310.45L518.5,310.05L517.25,310.16L516.48,309.65L515.47,310.38L516.02,311.1L515.45,313.34L512.94,315.31L512.1,316.59L510.83,316.86L510.12,317.73L510.44,318.94L508.21,320.29L507.13,319.25L505.98,319.43L504.03,320.33L503.75,320.98L502.69,320.63L501.78,322.13L500.72,322.32L499.52,324.65L496.39,325.38L496.71,324.17L497.55,323.1L496.42,320.61L495.48,320.77L494.16,319.97L493.12,320L491.9,320.99L491.18,320.99L490.12,320.06L487.89,322.01L486.99,320.82L487.59,319.58L488.82,318.09L488.2,317.01L487.53,317.25L486.79,316.21L485.5,315.53L485.13,314.72L483.08,314.52L482.14,316.05L480.64,316.25L479.71,315.88L478.47,314.72L478.11,313.92L477.66,311.52L476.83,311.25L475.69,311.56L474.48,310.27L472.59,311.73L472.51,312.17L471.12,313.26L470.26,314.28L469.17,314.59L467.62,315.67L466.98,315.31L465.81,316.09L466.07,316.98L465.57,318.32L464.26,319.81L464.78,322.04L464.36,322.93L463.23,323.85L463.41,326.36L462.51,327.76L462.81,328.73L462.01,329.41L461.2,329.37L461.09,330.75L460.51,330.76L459.7,329.27L458.45,328.83L457.58,330.02L455.38,330.81L454.42,329.77L451.97,329.94L450.62,330.29L449.79,329.88L447.11,330.3L445.07,332L443.47,332.42L443.04,333.89L442.42,334.38L440.03,333.12L438.02,333.76L435.61,332.95L434.43,332.14L433,332.06L432.43,333.02L430.84,332.96L429.84,332.13L427.8,333.77L426.37,332.73L425.35,332.94L423.82,331.56L423.81,329.6L424.57,329.29L424.65,328.46L425.39,327.46L426.63,326.74L428.04,324.57L427.72,322.72L426.79,320.98L427.29,320.7L427.52,319.17L428.34,318.43L428.48,317.02L426.66,315.77L425.43,317.25L421.59,318.03L420.25,318.66L419.62,318L418.8,319.45L417.76,318.4L416.72,318.53L416.57,319.57L417.17,321.37L413.76,321.18L410.75,320.23L410.4,319.7L408.61,319.12L408.23,320.39L406.99,320.62L406.4,319.5L406.2,317.94L406.98,316.91L407.57,317.05L408.86,315.53L407.91,314.39L407.28,312.42L407.75,311.72L406.89,310.72L407.42,309.25L408.32,308.48L409.64,308.04L409.84,307.1L409.6,305.59L410.46,303.28L409.96,301.58L408.95,301.46L408.19,299.81L408.25,298.53L407.8,297.7L407.63,296.28L406.99,295.27L404.91,294.62L403.99,292.8L402.62,291.44L402.77,290.6L401.85,289.79L400.65,289.83L399.46,291.59L398.04,292.58L397.09,293.85L397.13,294.97L396.4,295.17L396.45,296.81L394.3,298.45L394.05,297.81L392.64,297.49L392.08,298.19L389.97,299.25L387.66,298.53L386.48,300.49L385.04,302.08L383.95,300.75L383.83,299.89L383.01,298.58L382.87,297.66L383.14,295.11L382.91,293.62L383.14,292.65L383.93,291.96L383.99,291.04L385.32,287.76L384.69,286.96L384.55,285.35L383.57,284.87L385.27,282.72L384.37,282.54L384.9,280.84L384.93,279.66L384.11,278.83L382.56,278.31L380.28,279.36L380.95,277.24L381.69,276.81L381.69,275.87L381.08,275.05L380.92,273.51L380.88,272.54L381.31,270.69L382.35,270.61L384.51,271.23L387.87,271.24L388.69,270.51L389.62,270.41L389.98,269.52L389.8,268.45L390.49,267.16L391.55,266.44L393.27,263.15L394.15,262.24L394.86,262.19L395.9,262.94L397.87,263.01L399.36,263.83L399.65,263.25L399.25,261.21L401.07,259.77L401.72,258.54L402.04,256.14L403.22,254.88L404.54,255.32L405.64,254.57L406.77,252.8Z" class="land" id="SK-BC" title="Banskobystrický"/>
    <path d="M254.33,275.26L256.62,275.28L256.77,273.95L259.3,273.67L261.9,272.59L262.75,271.08L265.98,272.86L266.79,272.06L267.96,273.32L274.04,272.07L276.06,270.98L277.95,270.64L278.24,269.52L280.24,268.06L280.73,266.99L282.74,264.21L283.79,263.07L284.39,261.61L285.31,260.39L287.78,261.79L288.94,264.24L288.69,265.87L287.38,266.67L286.38,268.25L284.97,268.24L284.43,270.16L281.22,272.5L281.11,273.47L283.55,275.13L283.89,276.65L285.56,276.91L285.61,278L286.65,278.62L286.37,280.45L285.94,281.41L284.45,282.45L283.62,283.55L284.91,285.44L287.06,285.54L288.4,287L290.95,287.02L290.53,288.16L290.54,289.38L291.84,289.57L291.81,290.59L292.77,290.85L293.28,291.91L294,294.9L294.44,295.47L295.76,294.95L297.2,296.32L297.68,298.19L296.37,301.35L296.38,302.57L295.92,303.47L296.78,303.89L297.22,304.87L298.93,306.12L299.8,305.43L300.82,306.61L299.61,308.37L298.15,309.98L297.53,311.57L297.49,313.05L298.93,313.45L301.23,314.54L301.23,315.36L300.37,316.34L300.28,317.11L301.37,318.08L301.38,319.73L300.13,320.16L299.67,320.94L298.31,320.99L297.43,321.89L296.83,323.24L294.58,324.05L293.11,323.06L291.95,323.06L291.91,321.22L290.41,320.73L289.42,321.62L289.77,322.94L290.62,323.56L289.76,324.88L289.02,324.61L286.68,326.41L286.18,326.24L284.92,326.98L283.97,326.4L283.47,328.76L284.09,329.93L284.95,330.58L286.1,330.32L286.52,329.57L287.38,330.03L286.15,331.3L286.01,333.13L284.33,333.45L283.1,332.87L283.61,335.15L281.69,336.04L278.95,339.42L278.58,338.28L277.56,338.95L275.18,338.59L272.8,339.54L271.91,340.16L270.68,338.76L269.76,338.17L269.08,338.37L267.73,337.19L266.22,338.45L264.41,337.01L265.86,335.46L265.58,334.81L264.37,334.28L265.79,332.98L264.73,332.33L265.23,331.41L264.97,330.48L266.02,329.7L266.29,328.78L265.37,328.31L263.73,326.06L264.13,325.38L263.24,323.42L261.49,323.8L260.62,323.44L258.25,321L256.62,319.9L256.66,317.88L256.24,316.82L255.39,313.21L254.53,312.25L254.38,311.31L254.73,309.48L255.19,308.49L254.38,307.74L252.49,307.47L250.64,304.36L250.16,302.9L251.22,301.26L251.08,300.75L248.25,299.36L248.41,298.24L246.36,298.06L245.83,297.54L245.71,295.33L245.11,294.31L245.43,293.73L246.5,293.67L246.83,291.85L246.49,290.75L247.44,289.38L246.67,287.79L246.41,285.94L247.51,284.92L247.21,284.37L248.76,282.41L249.39,282.15L250.19,281.02L249.81,280.21L250.51,279.61L251.93,279.84L251.53,277.84L252.17,276.88L253.8,276.77Z" class="land" id="SK-BL" title="Bratislavský"/>
    <path d="M526.02,233.29L527.38,234.4L528.34,234.26L528.71,232.91L528.31,231.49L528.81,230.92L528.66,229.85L528.88,227.58L529.97,226.9L530.02,225.76L529.16,225.12L529.07,224.25L531.74,221.56L532.7,221.23L534.36,219.74L535.97,219.25L537.08,217.79L538,217.95L539.83,218.93L542.24,220.65L543.15,221.7L544.6,222.26L545.69,222L543.89,219.64L544.26,218.59L546.14,216.78L546.65,217.1L547.54,218.9L549.06,220.2L549.26,221.04L550.93,221.99L552.13,221.49L553.98,221.35L554.78,223.01L556.43,224.96L558.28,226.8L558.86,226.49L559.09,224.66L560.03,223.86L560.01,222.69L563.27,221.54L563.84,222.91L564.75,223.02L565.3,222.1L566.19,222L566.69,223.19L568.27,222.4L567.38,221.08L567.47,220.07L566.77,219.27L568.96,219.37L570.18,220.45L571.36,220.51L572.54,219.75L572.78,220.45L571.43,221.23L572.24,222.14L573.68,222.56L577.05,221.28L578.24,221.19L579.63,221.65L580.97,222.64L581.92,224.65L583.46,223.79L584.83,223.64L585.9,224.91L586.52,226.14L587.72,226.85L588.07,229.02L589.27,229.29L591.77,229.29L593.21,229.97L596.15,230.33L597.09,229.25L597.92,229.91L599.2,230.3L599.93,232.19L601.16,233.34L602.68,231.72L604.73,232.93L604.95,232.2L605.98,232.24L605.93,233.64L607.61,232.91L608.02,234.27L606.76,238.44L607.75,239.78L609.64,240.9L610.94,240.37L611.3,238.51L612.86,237.52L613.99,237.87L614.58,237.35L616.71,237.37L617.72,235.7L617.34,232.43L617.68,231.83L618.98,231.49L620.58,232.96L620.49,231.52L621.29,230.94L621.73,233.03L623.1,233.34L623.89,232.53L624.84,232.38L626.04,231.54L626.38,233.61L627.78,234.31L626.99,235.21L627.32,236.76L629.26,238.11L629.94,239.48L629.66,240.34L630.78,242.58L631.58,242.96L633.69,243.34L634.12,244.54L635.93,244.7L637.42,245.64L638.79,245.04L640.65,244.63L641.51,245.93L642.83,246.99L644.7,246.69L647.93,244.91L649.09,244.83L649.13,243.66L650.63,243.19L651.98,242.23L652.37,240.51L651.51,239.22L651.48,236.48L651.12,235.32L651.25,233.59L650.98,231.54L651.4,229.61L652.99,229.21L653.68,229.67L654.05,230.68L656.39,230.5L657.9,230.58L659.53,231.49L661.62,232.22L662.7,232.86L664.31,234.46L665,235.99L667.82,236.29L668.4,237.37L671.12,237.39L674.52,236.6L676.46,236.55L678.94,236.81L679.6,236.05L679.37,231.87L679.99,231.18L681.19,230.81L682.24,228.9L683.81,227.5L684.62,226.48L685.44,226.46L687.85,227.1L688.3,227.8L688.91,230.77L689.71,231.92L689.8,233.56L690.16,233.86L693.84,233.62L695.53,232.94L697.18,233.67L699.49,233.75L700.05,234.15L699.75,236.49L699.34,237.82L700.05,239.38L700.27,242.17L699.62,242.86L699.16,244.18L697.27,245.85L696.69,248.3L698.14,249.45L698.17,251.04L696.86,254.02L696.39,256.57L695.24,256.76L693.41,257.54L691.43,259.52L689.05,261.31L688.6,263.12L687.44,264.27L685.93,264.46L685.02,265.8L683.35,267.2L681.92,270.24L681.62,271.44L681.53,275.07L681.34,276.98L679.83,287.55L679.85,289.91L680.53,292.51L679.26,293.26L679.67,294.2L677.73,294.31L675.82,295.06L675.41,294.12L673.35,294.02L673.12,294.59L670.82,292.74L670.53,293.31L667.87,294.52L667.19,294.3L664.28,294.46L663.08,295.41L662.94,296.26L661.8,296.38L661.15,295.73L660.04,296.42L659.37,295.48L658.27,296.7L656.99,297.28L656.89,296.31L655.24,296.16L654.82,299.83L652.5,299.54L652.14,299.02L649.44,299.2L648.76,298.51L646.12,298.08L644.99,297.38L644.21,293.97L642.55,292.99L641.61,293.18L640.8,292.07L640.83,290.28L639.67,286.94L638.14,284.98L637.61,283.53L637.38,281.45L637.55,280.34L636.24,278.44L635.34,277.65L634.47,277.96L634.06,278.88L631.9,278.43L629.64,276.64L628.74,274.55L628.77,273.25L627.22,272.08L626.43,272.13L624.38,270.33L623.38,270.1L622.6,268.8L621.7,268.91L621.04,269.96L621,271.65L620.56,272.08L618.73,271.57L617.48,272.13L615.12,271.91L613.48,272.02L612.88,273.6L611.98,274.63L611.57,276.56L610.88,276.69L608.78,275.93L608.41,276.22L606.13,274.52L605.62,275.14L604.6,274.74L603.62,276.01L602.53,276.44L599.85,276.75L598.78,277.38L597.32,280.17L595.52,280.3L594.49,279.25L594.58,277.87L593.77,276.93L592.73,276.8L591.88,276.13L590.84,276.69L590.2,276.25L587.69,275.4L585.95,276.13L585.04,277.24L584.44,276.54L583.05,276.6L582.95,275.28L581.13,274.67L580.61,272.96L579.28,272.17L576.68,273.08L575.58,273.01L573.86,271.12L573.05,269.34L570.59,270.16L564.94,270.79L562.83,270.79L560.45,271.93L558.49,271.92L557.59,272.91L555.43,273.51L555,274.16L553.82,274.15L552.62,275.18L550.38,274.09L549.35,274.11L548.56,276.02L547.24,274.88L545.86,275.55L545.83,277.06L546.42,277.6L546.01,280.56L545.19,280.97L544.8,282.04L543.78,283.3L542.68,283.82L541.94,282.7L539.73,283.49L538.91,281.83L537.78,282.35L536.85,283.93L536.11,284.48L534.45,285.01L531.71,285.14L531.52,283.44L529.78,282.94L529.94,281.46L529.22,280.35L529.63,278.11L530.69,277.19L531.34,275.94L531.34,274.53L532.99,271.34L533.62,268.77L532.38,268.2L532.2,267.31L530.26,267.63L528.73,266.88L529.13,265.81L528.43,262.48L529.22,260.99L528.2,260.16L527.41,258.85L527.26,257.92L526.08,256.64L525.5,255.14L524.29,254.32L521.61,251.85L520.3,252.21L519.93,251.32L520.12,249.66L519.52,249.58L519.27,247.48L521.3,245.97L520.83,243.96L520.94,241.29L520.71,239.95L524.11,236.81L524.94,233.79Z" class="land" id="SK-KI" title="Košický"/>
    <path d="M338.64,264.93L340.8,263.92L341.69,263.12L341.94,262.23L341.75,260.75L340.69,257.51L340.1,256.97L339.91,253.84L340.8,253.16L341.82,253.06L342.75,254.17L346.56,254.09L348.04,254.94L349.16,254.55L349.72,255.25L351.43,256.53L352.12,257.41L352.94,260.37L354.41,261.58L355.3,261.01L356.77,261.72L358.17,261.81L358.91,263.16L359.45,265.09L360.34,266.41L360.1,267.86L358.29,269.52L359.41,270.56L358.85,271.44L359.11,272.64L361.52,272.6L363.07,274.16L363.95,275.93L365.14,277.22L365.68,279.57L368.31,280.66L369.16,280.27L370.42,280.79L371.41,279.8L372.51,279.23L373.84,277.68L375.01,276.7L377.2,275.67L378.99,273.83L380.92,273.51L381.08,275.05L381.69,275.87L381.69,276.81L380.95,277.24L380.28,279.36L382.56,278.31L384.11,278.83L384.93,279.66L384.9,280.84L384.37,282.54L385.27,282.72L383.57,284.87L384.55,285.35L384.69,286.96L385.32,287.76L383.99,291.04L383.93,291.96L383.14,292.65L382.91,293.62L383.14,295.11L382.87,297.66L383.01,298.58L383.83,299.89L383.95,300.75L385.04,302.08L386.48,300.49L387.66,298.53L389.97,299.25L392.08,298.19L392.64,297.49L394.05,297.81L394.3,298.45L396.45,296.81L396.4,295.17L397.13,294.97L397.09,293.85L398.04,292.58L399.46,291.59L400.65,289.83L401.85,289.79L402.77,290.6L402.62,291.44L403.99,292.8L404.91,294.62L406.99,295.27L407.63,296.28L407.8,297.7L408.25,298.53L408.19,299.81L408.95,301.46L409.96,301.58L410.46,303.28L409.6,305.59L409.84,307.1L409.64,308.04L408.32,308.48L407.42,309.25L406.89,310.72L407.75,311.72L407.28,312.42L407.91,314.39L408.86,315.53L407.57,317.05L406.98,316.91L406.2,317.94L406.4,319.5L406.99,320.62L408.23,320.39L408.61,319.12L410.4,319.7L410.75,320.23L413.76,321.18L417.17,321.37L416.57,319.57L416.72,318.53L417.76,318.4L418.8,319.45L419.62,318L420.25,318.66L421.59,318.03L425.43,317.25L426.66,315.77L428.48,317.02L428.34,318.43L427.52,319.17L427.29,320.7L426.79,320.98L427.72,322.72L428.04,324.57L426.63,326.74L425.39,327.46L424.65,328.46L424.57,329.29L423.81,329.6L423.82,331.56L423.35,332.31L422.5,332.48L421.4,334L417.12,333.74L415.39,334.57L413.2,333.92L413.04,334.91L411.53,334.89L410.72,335.27L410.04,334.69L408.81,335.25L408.14,336.16L408.59,337.23L407.65,338.29L407.99,340.06L407.8,341L406.42,342.86L404.93,342.57L403.63,342.92L402.82,344.22L404.01,345.46L404.38,346.96L403.94,347.65L404.04,349.15L402.95,350.77L403.53,352.19L403.09,353.42L403.36,355.16L403.18,356.85L403.76,357.25L405.6,357.54L406.2,358.39L408.08,359.29L408.77,361.14L410.44,362.24L409.72,363.31L407.43,363.07L405.69,362.63L401.18,363.88L400.51,366.26L399.77,367.23L398.72,367.65L396.58,369.4L393.59,370.44L390.74,370.57L387.19,369.65L385.01,369.74L383.13,370.9L380.77,371.18L379.51,370.18L377.34,369.84L375.85,370.82L374.78,371.17L372.59,371.45L370.91,372.32L368.46,373.07L364.55,373.8L362.41,373.07L358.1,372.41L356.88,372.69L354.83,372.6L353.55,372.04L349.87,371.3L347.99,370.77L343.16,370.71L340.95,371.95L340.11,371.72L338.95,370.78L338.12,370.66L336.61,372.01L333.54,372.3L332.31,372.79L329.13,371.97L327.31,372.57L325.11,372.39L322.83,372.78L321.39,371.68L320.13,371.57L317.01,370.69L315.66,369.12L317.12,367.73L317.74,364.5L318.11,363.92L319.4,364.07L319.72,364.58L321.17,365.02L321.84,363.56L323.37,362.79L324.4,361.11L324.04,358.76L325.08,356.82L327.04,356.1L328.15,354.21L330.49,352.86L331.55,351.55L329.82,349.9L330.52,347.51L330.07,346.01L330.11,344.62L330.65,342.86L330.64,341.97L329.63,339.93L329.86,338.5L329.53,337.73L330.74,336.8L330.41,334.9L329.76,334.16L328.69,334.08L327.38,332.89L328.21,332L327.65,331.06L325.55,332.67L324.44,332.06L324.32,330.83L325.3,328.41L325.18,326.76L322.91,324.14L319.89,322.39L320.12,321.92L321.81,320.81L322.9,320.77L323.57,321.74L324.22,321.77L325.33,320.39L323.83,317.75L327.68,317.45L329.49,316.63L330.33,315.72L330.54,314.33L330.26,313.32L328.04,312.61L327.12,311.08L329.09,310.08L328.56,308.79L329.31,307.98L329.83,306.73L329.21,305.55L327.59,305.47L327.02,304.32L328.2,303.19L328.37,300.2L329.27,299.5L328.92,297.88L330.11,296.75L330.92,294.94L332.93,291.88L333.15,290.83L334.25,288.81L334.2,288.18L335.07,286.79L336.05,286.02L337.03,284.55L336.86,283.9L335.28,282.82L331.64,278.83L328.98,278.23L328.08,277.71L327.99,276.91L329.42,275.78L329.62,273.64L330.17,271.78L331.67,269.99L331.81,268.75L332.53,268.02L334.37,269.28L336.35,269.22L336.44,268.25L337.46,268.17L338.49,267.23Z" class="land" id="SK-NI" title="Nitriansky"/>
    <path d="M700.05,234.15L699.49,233.75L697.18,233.67L695.53,232.94L693.84,233.62L690.16,233.86L689.8,233.56L689.71,231.92L688.91,230.77L688.3,227.8L687.85,227.1L685.44,226.46L684.62,226.48L683.81,227.5L682.24,228.9L681.19,230.81L679.99,231.18L679.37,231.87L679.6,236.05L678.94,236.81L676.46,236.55L674.52,236.6L671.12,237.39L668.4,237.37L667.82,236.29L665,235.99L664.31,234.46L662.7,232.86L661.62,232.22L659.53,231.49L657.9,230.58L656.39,230.5L654.05,230.68L653.68,229.67L652.99,229.21L651.4,229.61L650.98,231.54L651.25,233.59L651.12,235.32L651.48,236.48L651.51,239.22L652.37,240.51L651.98,242.23L650.63,243.19L649.13,243.66L649.09,244.83L647.93,244.91L644.7,246.69L642.83,246.99L641.51,245.93L640.65,244.63L638.79,245.04L637.42,245.64L635.93,244.7L634.12,244.54L633.69,243.34L631.58,242.96L630.78,242.58L629.66,240.34L629.94,239.48L629.26,238.11L627.32,236.76L626.99,235.21L627.78,234.31L626.38,233.61L626.04,231.54L624.84,232.38L623.89,232.53L623.1,233.34L621.73,233.03L621.29,230.94L620.49,231.52L620.58,232.96L618.98,231.49L617.68,231.83L617.34,232.43L617.72,235.7L616.71,237.37L614.58,237.35L613.99,237.87L612.86,237.52L611.3,238.51L610.94,240.37L609.64,240.9L607.75,239.78L606.76,238.44L608.02,234.27L607.61,232.91L605.93,233.64L605.98,232.24L604.95,232.2L604.73,232.93L602.68,231.72L601.16,233.34L599.93,232.19L599.2,230.3L597.92,229.91L597.09,229.25L596.15,230.33L593.21,229.97L591.77,229.29L589.27,229.29L588.07,229.02L587.72,226.85L586.52,226.14L585.9,224.91L584.83,223.64L583.46,223.79L581.92,224.65L580.97,222.64L579.63,221.65L578.24,221.19L577.05,221.28L573.68,222.56L572.24,222.14L571.43,221.23L572.78,220.45L572.54,219.75L571.36,220.51L570.18,220.45L568.96,219.37L566.77,219.27L567.47,220.07L567.38,221.08L568.27,222.4L566.69,223.19L566.19,222L565.3,222.1L564.75,223.02L563.84,222.91L563.27,221.54L560.01,222.69L560.03,223.86L559.09,224.66L558.86,226.49L558.28,226.8L556.43,224.96L554.78,223.01L553.98,221.35L552.13,221.49L550.93,221.99L549.26,221.04L549.06,220.2L547.54,218.9L546.65,217.1L546.14,216.78L544.26,218.59L543.89,219.64L545.69,222L544.6,222.26L543.15,221.7L542.24,220.65L539.83,218.93L538,217.95L537.08,217.79L535.97,219.25L534.36,219.74L532.7,221.23L531.74,221.56L529.07,224.25L529.16,225.12L530.02,225.76L529.97,226.9L528.88,227.58L528.66,229.85L528.81,230.92L528.31,231.49L528.71,232.91L528.34,234.26L527.38,234.4L526.02,233.29L524.88,232.93L522.74,230.56L521.73,230.25L520.55,230.41L518.86,228.82L517.69,230.82L516.2,231.84L514.79,231.79L509.35,230.84L508.71,229.77L507.94,229.57L504.63,229.45L504.35,229.29L504.68,228.45L507.2,227.95L508.56,226.97L508.63,226.11L507.25,225.99L506.01,222.46L506.33,221.3L505.3,220.69L504.41,218.57L501.61,216.56L501.86,215.88L503.28,216.37L504.15,215.76L505.8,215.27L505.79,212.89L506.62,210.78L506.48,208.68L507.59,205.68L507.7,203.96L506.62,203.3L505.29,203.77L502.66,203.77L500.72,202.82L500.05,201.39L498.75,201.48L498.04,200.57L496.77,201.31L496.32,200.73L497,199.35L497.08,198.01L494.31,193.61L494.13,192.61L494.42,191.93L496.48,190.39L496.65,188.4L498.29,187.68L500.1,187.84L502.09,188.3L503.38,188.27L505.23,189.9L505.15,190.64L506.23,191.93L507.71,192.52L508.58,193.47L510.8,194.88L511.7,194.5L511.55,193.08L511.73,191.43L512.94,189.21L512.42,187.93L513.12,186.75L513.3,185.24L514.71,183.39L514.95,181.56L516.25,178.44L517.13,177.73L517.81,179.12L519.02,177.71L518.48,176.78L519.7,176.22L520.7,174.39L521.94,174.07L522.8,173.14L523.59,173.95L524.51,173.31L526.63,173.78L527.05,173.25L528.83,173.31L529.81,174.12L530.99,173.46L531.25,171.48L531.13,169.86L531.74,168.55L530.65,168.52L530.88,167.12L532.08,166.63L533.8,167.27L534.55,167.18L534.9,166.26L535.74,166.74L535.91,168.19L538.04,167.8L538.38,166.6L539.71,166.09L540.47,165.27L543.18,165.14L545.05,166.41L545.93,166.63L546.18,167.91L547.3,168.08L549.22,168.84L550.33,169.76L551.73,170.08L552.19,169.27L553.01,169.41L553.82,168.58L554.02,167.52L554.68,166.72L554.96,165.04L557.03,166.19L557.73,166.98L558.96,166.55L561.25,164.65L563.05,164.7L564.16,165.33L565.29,165.08L565.52,166.69L566.57,167.03L565.97,168.42L566.82,169.03L566.68,170.29L567.32,170.85L568.55,170.29L569.13,172.1L570.15,171.8L571,172.43L569.96,174.04L571.28,173.79L572.4,175.39L573.43,175.34L574.67,173.83L575.45,173.75L576.21,174.56L577.05,176.27L578.69,176.31L579.35,178.68L580.66,179.95L583.49,178.58L585.47,178.77L586.27,178.02L585.7,176.72L586.03,175.69L587.35,174.99L588.97,172.48L590.01,171.59L591.16,171.94L592.02,171.54L594.18,171.56L595.11,170.23L594.76,169.73L592.26,167.76L592.27,166.97L590.99,166.51L590.53,165.07L594.62,163.43L595.9,164.15L596.35,162.81L597.23,162.86L599,163.78L601.25,166.02L601.33,166.75L602.34,166.94L603.98,166.14L605.13,165.04L604.86,163.92L607.6,161.47L608.29,161.15L608.43,160.09L609.39,159.53L611.65,161.05L613.96,160.67L614.96,160.83L615.37,161.47L617.84,162.84L619.59,162.99L619.93,163.82L621.95,165.53L623.24,165.58L624.15,165.12L625.55,165.34L626.45,163.73L627.31,163.48L628.69,164.78L629.56,163.08L630.09,162.7L631.77,162.94L632.92,161.92L634.6,162.9L635.95,162.67L636.91,161.56L638.37,161.08L639.31,163.21L640.53,164.16L640.55,164.97L642.43,165.72L643.83,164.73L645.7,165.56L645.91,166.87L646.82,167.27L647.43,168.18L648.87,169L649.48,171.45L650.08,172.44L651.24,172.87L651.23,170.83L651.85,169.85L653.11,169.37L653.91,168.55L655.46,168.27L656.04,169.86L656.95,171.05L658.54,170.59L659.44,171.34L659.78,172.57L660.38,172.99L661.76,173L662.87,173.93L665.08,173.5L665.58,173.89L666.46,175.77L667.27,178.39L668.58,180.03L671.19,182.2L671.12,184.3L672.05,185.24L671.28,188.99L672.54,190.04L675.56,191.19L678.12,191.96L680.31,192.24L680.46,193.22L683.26,194.51L683.85,195.18L684.81,195.1L685.79,194.07L686.92,194.26L687.51,194.83L687.72,196.32L687.17,197L687.09,198.07L688.94,198.19L693.66,200.03L694.67,200.25L695.45,199.24L696.38,198.89L698.41,199.03L699.07,199.39L699.64,200.78L700.44,201.18L700.6,202.27L702.29,204.24L703.65,204.9L704.28,204.44L706.38,204.34L708.51,206.14L709.47,206.49L710.56,205.68L713.2,205.4L714.89,206.75L713.88,207.53L713.7,213.71L712.62,214.62L713.31,216.13L713.13,216.56L711.02,217.72L709.24,217.35L707.78,218.2L707.56,219.84L706.74,220.68L703.34,226.07L703.87,227.13L703.34,228.05L703.01,231.53L701.05,232.65Z" class="land" id="SK-PV" title="Prešovský"/>
    <path d="M291.17,240.76L291.09,241.73L290.14,243.38L288.83,244.09L287.5,245.21L288.8,246.69L289.92,246.58L291.72,245.56L292.33,244.55L293.03,244.57L293.49,245.98L294.66,246.84L296.56,247.29L297.53,249.15L298.6,249.51L298.91,250.62L298.64,251.94L297.49,252.35L296.73,254.6L297.22,255.48L297.19,256.77L297.95,256.89L298.64,259.56L299.6,260.88L300.08,262.49L301.27,264.25L303.69,263L304.75,261.72L306.23,262.38L308.57,262.08L309.9,261.55L309.16,260.27L309.23,259.38L310.03,259.14L310.49,259.98L314.08,258.31L316.08,256.76L317.88,258.17L318.91,259.97L319.67,260.79L322.78,262.07L326.01,262.22L326.13,260.53L327.78,260.68L327.63,261.86L328.19,262.97L330.62,263.2L333.16,264.14L335.48,264.26L336.32,264.55L337.12,265.43L338.64,264.93L338.49,267.23L337.46,268.17L336.44,268.25L336.35,269.22L334.37,269.28L332.53,268.02L331.81,268.75L331.67,269.99L330.17,271.78L329.62,273.64L329.42,275.78L327.99,276.91L328.08,277.71L328.98,278.23L331.64,278.83L335.28,282.82L336.86,283.9L337.03,284.55L336.05,286.02L335.07,286.79L334.2,288.18L334.25,288.81L333.15,290.83L332.93,291.88L330.92,294.94L330.11,296.75L328.92,297.88L329.27,299.5L328.37,300.2L328.2,303.19L327.02,304.32L327.59,305.47L329.21,305.55L329.83,306.73L329.31,307.98L328.56,308.79L329.09,310.08L327.12,311.08L328.04,312.61L330.26,313.32L330.54,314.33L330.33,315.72L329.49,316.63L327.68,317.45L323.83,317.75L325.33,320.39L324.22,321.77L323.57,321.74L322.9,320.77L321.81,320.81L320.12,321.92L319.89,322.39L322.91,324.14L325.18,326.76L325.3,328.41L324.32,330.83L324.44,332.06L325.55,332.67L327.65,331.06L328.21,332L327.38,332.89L328.69,334.08L329.76,334.16L330.41,334.9L330.74,336.8L329.53,337.73L329.86,338.5L329.63,339.93L330.64,341.97L330.65,342.86L330.11,344.62L330.07,346.01L330.52,347.51L329.82,349.9L331.55,351.55L330.49,352.86L328.15,354.21L327.04,356.1L325.08,356.82L324.04,358.76L324.4,361.11L323.37,362.79L321.84,363.56L321.17,365.02L319.72,364.58L319.4,364.07L318.11,363.92L317.74,364.5L317.12,367.73L315.66,369.12L314.68,367.99L310.72,365.32L309.71,363.85L308.58,362.73L307.9,362.7L305.78,363.56L304.96,363.24L303.55,360.79L303.13,359.1L301.46,357.2L300.05,357.29L297.28,355.58L296.09,355.18L295.17,353.38L294.26,350.93L292.55,348.97L291.04,346.96L289.7,346.09L286.49,342.15L285.21,341.44L281.77,341.66L279.42,340.95L278.95,339.42L281.69,336.04L283.61,335.15L283.1,332.87L284.33,333.45L286.01,333.13L286.15,331.3L287.38,330.03L286.52,329.57L286.1,330.32L284.95,330.58L284.09,329.93L283.47,328.76L283.97,326.4L284.92,326.98L286.18,326.24L286.68,326.41L289.02,324.61L289.76,324.88L290.62,323.56L289.77,322.94L289.42,321.62L290.41,320.73L291.91,321.22L291.95,323.06L293.11,323.06L294.58,324.05L296.83,323.24L297.43,321.89L298.31,320.99L299.67,320.94L300.13,320.16L301.38,319.73L301.37,318.08L300.28,317.11L300.37,316.34L301.23,315.36L301.23,314.54L298.93,313.45L297.49,313.05L297.53,311.57L298.15,309.98L299.61,308.37L300.82,306.61L299.8,305.43L298.93,306.12L297.22,304.87L296.78,303.89L295.92,303.47L296.38,302.57L296.37,301.35L297.68,298.19L297.2,296.32L295.76,294.95L294.44,295.47L294,294.9L293.28,291.91L292.77,290.85L291.81,290.59L291.84,289.57L290.54,289.38L290.53,288.16L290.95,287.02L288.4,287L287.06,285.54L284.91,285.44L283.62,283.55L284.45,282.45L285.94,281.41L286.37,280.45L286.65,278.62L285.61,278L285.56,276.91L283.89,276.65L283.55,275.13L281.11,273.47L281.22,272.5L284.43,270.16L284.97,268.24L286.38,268.25L287.38,266.67L288.69,265.87L288.94,264.24L287.78,261.79L285.31,260.39L284.39,261.61L283.79,263.07L282.74,264.21L280.73,266.99L280.24,268.06L278.24,269.52L277.95,270.64L276.06,270.98L274.04,272.07L267.96,273.32L266.79,272.06L265.98,272.86L262.75,271.08L261.9,272.59L259.3,273.67L256.77,273.95L256.62,275.28L254.33,275.26L254.06,274.07L254.15,271.86L253.41,270.47L253.71,269.05L253.34,266.87L253.88,266.35L253.77,265.2L255.06,264.06L255.69,262.34L256.63,261.04L256.18,260.73L256.11,258.74L257.35,257.18L259.47,255.28L258.53,254.17L258.67,253.42L259.55,252.61L259.89,251.08L261.15,248.97L262,248.15L262.56,246.44L264.24,245.08L265.57,244.48L266.3,242.63L267.37,241.53L267.4,239.43L268.07,238.39L271.3,236.85L272.02,235.78L272.85,235.32L274.24,233.41L275.33,233.23L276.65,233.94L278.77,234.21L280.35,235.16L281.36,235.09L281.95,236.04L283.69,237.36L284.95,237.01L285.39,238.1L287.68,239.83L288.18,240.71L289.52,240.16Z" class="land" id="SK-TA" title="Trnavský"/>
    <path d="M367.35,177.76L367.95,178.07L369.83,177.59L371.46,177.68L371.41,179.35L372.75,180.69L374.35,183.71L375.6,184.98L375.53,186.31L376.27,186.9L376.93,188.25L376.66,189.22L377.35,191.06L378.68,191.91L378.92,193.66L379.94,194.1L382.16,196.27L383.87,197.36L385.07,197.61L385.14,198.88L387.64,199.73L387.85,201.87L388.68,202.36L388.87,203.48L388.1,204.54L386.96,205.21L386.32,206.38L388.81,207.19L390.01,209.1L389.99,210.49L389.41,211.56L389.8,212.38L389.68,214.39L388.75,214.93L388.5,215.94L387.25,217.53L386.49,218.1L384.01,218.48L382.17,219.75L382.25,220.43L381.38,221.81L380.45,221.91L378.99,222.76L378.51,223.55L379.59,224.73L381.82,224.78L383.6,225.11L384.73,224.06L386.19,223.82L386.64,222.61L387.76,221L389.09,222.54L390.44,222.49L391.83,221.89L395.58,222.94L397.45,222.5L399.17,224.37L399.19,225.22L397.47,227.89L397.36,228.49L398.63,230.11L397.56,232.29L397.96,232.79L397.77,234.67L397.97,236.71L399.77,237.52L400.22,238.27L401.2,238.28L402.04,238.88L403.31,240.55L404.34,240.71L404.14,242.84L404.36,243.5L406.81,245.97L407.26,247.35L408.02,247.58L408.17,249.43L406.77,252.8L405.64,254.57L404.54,255.32L403.22,254.88L402.04,256.14L401.72,258.54L401.07,259.77L399.25,261.21L399.65,263.25L399.36,263.83L397.87,263.01L395.9,262.94L394.86,262.19L394.15,262.24L393.27,263.15L391.55,266.44L390.49,267.16L389.8,268.45L389.98,269.52L389.62,270.41L388.69,270.51L387.87,271.24L384.51,271.23L382.35,270.61L381.31,270.69L380.88,272.54L380.92,273.51L378.99,273.83L377.2,275.67L375.01,276.7L373.84,277.68L372.51,279.23L371.41,279.8L370.42,280.79L369.16,280.27L368.31,280.66L365.68,279.57L365.14,277.22L363.95,275.93L363.07,274.16L361.52,272.6L359.11,272.64L358.85,271.44L359.41,270.56L358.29,269.52L360.1,267.86L360.34,266.41L359.45,265.09L358.91,263.16L358.17,261.81L356.77,261.72L355.3,261.01L354.41,261.58L352.94,260.37L352.12,257.41L351.43,256.53L349.72,255.25L349.16,254.55L348.04,254.94L346.56,254.09L342.75,254.17L341.82,253.06L340.8,253.16L339.91,253.84L340.1,256.97L340.69,257.51L341.75,260.75L341.94,262.23L341.69,263.12L340.8,263.92L338.64,264.93L337.12,265.43L336.32,264.55L335.48,264.26L333.16,264.14L330.62,263.2L328.19,262.97L327.63,261.86L327.78,260.68L326.13,260.53L326.01,262.22L322.78,262.07L319.67,260.79L318.91,259.97L317.88,258.17L316.08,256.76L314.08,258.31L310.49,259.98L310.03,259.14L309.23,259.38L309.16,260.27L309.9,261.55L308.57,262.08L306.23,262.38L304.75,261.72L303.69,263L301.27,264.25L300.08,262.49L299.6,260.88L298.64,259.56L297.95,256.89L297.19,256.77L297.22,255.48L296.73,254.6L297.49,252.35L298.64,251.94L298.91,250.62L298.6,249.51L297.53,249.15L296.56,247.29L294.66,246.84L293.49,245.98L293.03,244.57L292.33,244.55L291.72,245.56L289.92,246.58L288.8,246.69L287.5,245.21L288.83,244.09L290.14,243.38L291.09,241.73L291.17,240.76L292.81,239.13L293.77,239.15L294.23,237.72L294.96,237.93L295.75,236.86L297.85,237.56L300.86,240.6L301.62,240.88L302.74,240.26L303.37,240.52L304.11,239.76L307.06,239.39L307.72,237.67L309.31,237.42L310.46,235.75L313.39,235.7L314.79,234.88L316.29,235.04L317.5,233.44L319,232.3L320.67,229.54L322.51,228.26L322.88,227L328.4,226.74L329.81,227.25L331.06,226.52L331.29,225.17L332.34,222.25L332.47,220L333.28,218.37L333.37,216.34L335.19,214.69L336.75,214.59L338.51,214.83L339.58,214.24L341.39,214.71L342.58,214.73L343.18,214.23L346.33,212.89L348.11,210.59L348.69,210.13L348.61,209.04L350.13,205.79L349.73,203.48L350.34,201.69L349.67,200.67L350.28,199.36L350.23,198.52L351.72,197.26L351.31,196.22L351.31,193.97L352.8,191.89L353.29,190.3L353.34,188.81L352.55,188.42L352.79,186.25L355.8,183.44L355.78,181.5L360.15,180.38L361.23,180.57L365.16,179.19L365.34,178.75Z" class="land" id="SK-TC" title="Trenčiansky"/>
    <path d="M494.13,192.61L494.31,193.61L497.08,198.01L497,199.35L496.32,200.73L496.77,201.31L498.04,200.57L498.75,201.48L500.05,201.39L500.72,202.82L502.66,203.77L505.29,203.77L506.62,203.3L507.7,203.96L507.59,205.68L506.48,208.68L506.62,210.78L505.79,212.89L505.8,215.27L504.15,215.76L503.28,216.37L501.86,215.88L501.61,216.56L504.41,218.57L505.3,220.69L506.33,221.3L506.01,222.46L507.25,225.99L508.63,226.11L508.56,226.97L507.2,227.95L504.68,228.45L504.35,229.29L503.22,227.93L502.55,227.79L501.62,228.7L499.44,228.86L494.71,228.58L491.04,229.09L489.71,228.09L487.9,228.03L486.13,229.14L485.2,229.17L483.8,230.02L482.63,228.64L478.96,229.98L476.63,229.98L474.82,228.53L473.09,227.62L470.99,226.08L470.38,225.28L468.66,224.63L467.46,224.6L466.72,223.96L464.83,224.81L463.11,224.38L460.06,225.94L458.78,226.27L454.96,226.33L453.33,226.51L450.16,230.17L448.73,232.42L448.12,234.25L445.39,234.48L443,235.11L442.65,234.62L443.88,233.57L443.84,231.85L443.35,230.65L441.78,229.92L440.53,230.46L439.48,230.51L437.45,232.19L436.37,231.79L435.7,232.27L434.73,232.05L431.65,232.33L430.73,232.61L429.11,232.3L427.57,232.49L426.89,231.8L425.26,232.19L424.71,233.95L423.37,235.94L421.63,236.09L422.26,239.13L421.68,239.91L421.68,241.29L422.08,242.03L423.85,243.32L423.66,246.12L422.35,247.46L421.67,248.72L419.49,249.01L417.64,248.51L416.53,249.35L415.76,249.3L414.9,248.48L413.49,248.27L412.91,246.11L412.13,246L410.8,246.76L409.77,248.16L408.52,248.73L408.17,249.43L408.02,247.58L407.26,247.35L406.81,245.97L404.36,243.5L404.14,242.84L404.34,240.71L403.31,240.55L402.04,238.88L401.2,238.28L400.22,238.27L399.77,237.52L397.97,236.71L397.77,234.67L397.96,232.79L397.56,232.29L398.63,230.11L397.36,228.49L397.47,227.89L399.19,225.22L399.17,224.37L397.45,222.5L395.58,222.94L391.83,221.89L390.44,222.49L389.09,222.54L387.76,221L386.64,222.61L386.19,223.82L384.73,224.06L383.6,225.11L381.82,224.78L379.59,224.73L378.51,223.55L378.99,222.76L380.45,221.91L381.38,221.81L382.25,220.43L382.17,219.75L384.01,218.48L386.49,218.1L387.25,217.53L388.5,215.94L388.75,214.93L389.68,214.39L389.8,212.38L389.41,211.56L389.99,210.49L390.01,209.1L388.81,207.19L386.32,206.38L386.96,205.21L388.1,204.54L388.87,203.48L388.68,202.36L387.85,201.87L387.64,199.73L385.14,198.88L385.07,197.61L383.87,197.36L382.16,196.27L379.94,194.1L378.92,193.66L378.68,191.91L377.35,191.06L376.66,189.22L376.93,188.25L376.27,186.9L375.53,186.31L375.6,184.98L374.35,183.71L372.75,180.69L371.41,179.35L371.46,177.68L369.83,177.59L367.95,178.07L367.35,177.76L370.6,176.77L371.64,175.83L372.59,174L373.71,173.39L373.32,172.71L374.51,171.48L374.69,170.85L373.8,167.5L374.33,167.06L376.19,168.2L377.31,167.94L377.86,166.96L379.6,166.02L379.69,164.8L380.19,163.77L381.8,162.5L382.05,161.65L383.29,160.98L383.5,160.04L385.32,158.76L385.1,157.45L384.43,156.35L384.6,155.47L385.41,154.41L387.14,153.52L388.67,153.3L389.94,153.53L390.1,154.88L392.82,154.92L393.52,154.21L395.77,153.59L396.66,153.68L397.17,154.46L398.9,154.29L401.56,155.85L402.58,155.82L403.4,154.8L404.86,153.62L406.2,153.33L406.87,152.57L408.99,151.96L410.7,152.32L411.72,152.01L412.22,152.49L414.22,152.71L417.12,152.05L419.59,153.49L420.35,154.29L419.52,156.59L420.05,157.38L419.36,160.21L420.44,160.57L420.8,161.93L421.64,163.15L421.34,164.37L420.12,165.37L420.37,167.02L420.94,167.71L422.47,167.28L423.44,167.74L425.48,167.66L426.44,166.82L426.9,165.32L428.39,165.52L428.53,164.98L430.05,165.1L431.61,166.62L432.98,166.7L433.95,165.71L434.98,166.51L437.18,165.36L438.24,165.78L438.48,163.54L438.02,162.52L438.87,161.16L439.76,160.59L440.61,160.91L441.38,159.02L440.68,157.75L441.7,156.15L441.94,154.99L441.91,153.01L444.08,150.99L444.2,150.46L445.62,150.13L447.23,150.27L448.04,149.88L448.79,150.74L450.04,150.25L452.04,150.02L452.56,149.59L452.54,147.79L453.24,147.11L453.11,145.95L454.97,145.37L456.09,144.22L456.19,143.03L457.02,142.47L459.06,141.9L458.87,140.94L459.36,140.2L461.05,140.29L461.57,141.26L461.13,142.35L461.78,143.26L463.49,144.21L464.33,144.17L465.11,145.14L466.05,145.43L465.92,146.72L466.01,149.75L467.83,153.43L468.01,155.76L468.99,156.96L469.23,158.07L470.34,159.36L472,160.14L472.93,161.12L473.8,160.89L475.05,159.92L475,161.79L475.86,162.51L474.41,165.83L476.8,166.11L479.84,167.27L481.56,168.82L482.55,168.15L483.53,166.45L485.62,165.43L487.53,165.91L487.55,168.88L487.77,169.94L488.57,171.26L488.5,172.57L487.89,173.74L488.26,175.45L489,176.42L487.91,179.35L488.98,180.19L489.68,181.25L490.09,182.63L488.83,183.04L487.62,183.91L487.38,185.86L485.55,187.78L485.81,188.43L485.1,190.42L485.86,191.44L486.92,192.17L488,192.26L488.91,191.49L489.8,192.37L490.56,191.97L491.42,192.6Z" class="land" id="SK-ZI" title="Žilinský"/>
  </g>
</svg>