<?xml version="1.0" encoding="UTF-8"?>
<svg xmlns="http://www.w3.org/2000/svg" width="582.71" height="519.3" viewBox="188.65 -2.65 582.71 519.3" style="background-color:#000000">
  <!-- Created using SVG Map Generator: dojo.amcharts.com/svg-map-generator -->
  <style>
    .land { fill: #ffffff; stroke: #000000; stroke-width: 0.65; }
  </style>
  <g id="polygons">
    <path d="M620.71,125.41L623.26,125.85L624.16,125.17L624,124.43L624.25,123.4L625.79,125.39L626.02,126.27L626.84,126.51L628.51,126.4L630.21,127.81L630.48,128.51L630.17,128.96L628.92,129.63L628.07,129.82L627.43,130.1L625.66,130.32L625,129.96L622.62,129.57L622.44,128.81L621.57,127.1L620.86,126.24ZM628.67,131.19L630.88,130.9L631.66,131.09L632.21,130.84L633.09,131.07L634.74,132.24L634.52,132.96L634.84,133.89L634.63,134.65L635.72,135.32L636.7,134.51L637.56,134.18L636.49,132.75L636.55,130.96L637.78,130.53L638.3,129.8L638.41,128.81L639.52,128.88L640.95,128.48L641.77,127.71L641.85,126.73L642.32,125.95L642.95,125.79L643.33,124.97L643.31,124.17L643.65,123.48L643.89,121.99L644.86,122.44L646.38,122.29L648.13,121.34L647.98,120.58L648.33,119.95L649.15,119.28L650.14,118.03L650.77,117.78L650.62,117.18L649.46,115.99L649.27,114.97L651,114.17L650.89,113.41L650.27,112.88L650.52,111.89L650.38,111.31L650.49,109.84L649.67,109.89L648.25,109.21L648.8,107.37L650.41,107.5L651.9,106.9L651.83,106.07L652.19,104.82L652.93,103.76L654.27,103.71L654.8,104.82L656.37,105.66L658.35,105.6L659.12,106.83L659.91,106.08L660.77,105.68L661.77,105.95L662.36,105.46L663.74,105.73L664.09,106.59L664.73,106.41L665.51,107.11L664.88,108.01L665.15,108.94L666.72,109.71L667.93,109.75L669.09,110.7L669.25,111.76L671.2,112.6L670.44,114.22L669.52,115.42L668.74,116.75L668.24,118.3L667.11,119.71L666.49,120.83L665.2,122L664.84,123.2L663.95,123.56L662.71,124.82L661.77,127.22L660.74,128.33L660.15,128.35L659.37,128.99L658.2,131.39L657.86,133.01L656.26,134.8L655.84,134.98L653.21,139.39L652.78,141.16L651.14,143.51L650.93,144.46L650.11,145.77L649.63,147.18L649.67,148.29L649.35,149.04L649.88,151.75L650.44,153.31L652.31,157.28L651.81,158.02L651.91,158.77L652.87,161.55L654.39,164.35L656.02,166.29L657.63,167.73L658.89,168.11L660.37,168.32L661.2,169.01L661.61,168.98L662.92,169.84L662.82,170.77L663.65,171.42L663.94,172.37L663.32,172.35L662.32,173.04L661.79,173.84L660.52,174.29L659.81,175.42L659.15,175.34L658.75,175.85L657.59,175.81L656.51,177.05L656.45,178.29L655.49,179.2L655.18,178.9L654.01,178.87L653.54,179.47L652.22,179.72L651.85,180.02L650.2,180.6L648.33,181.89L647.66,182.92L647.35,184.87L646.52,184.54L645.06,185.44L644.7,186.46L644.86,189.86L644.22,190.22L642.76,190.19L641.71,191.65L641.33,194.62L641.3,196L641.09,196.87L640.02,197.43L639.85,198.28L638.67,199.68L638.38,201.32L637.84,201.4L636.41,200.6L634.38,198.27L633.71,197.03L633.47,195.91L631.91,193.64L631.59,191.55L632.34,190.58L632.85,189.46L633.41,187.58L633.33,186.37L632.85,185.32L631.85,185.42L630.11,185.01L630,184.39L630.11,182.33L630.53,181.68L631.94,180.1L631.64,179.23L632.25,177.57L631.88,175.59L631.61,174.87L633.3,174.81L634.47,173.54L633.79,172.4L633.31,170.99L634.14,170.62L633.94,168.28L634.25,167.09L633.85,166.84L632.92,165.43L629.52,165.86L628.6,165.87L628.19,165.02L626.49,162.7L625.54,161.99L625.5,160.98L625.74,159.98L626.13,159.72L626.47,158.5L627.22,157.69L627.76,155.82L627.8,154.29L628.11,153.37L627.74,153.08L626.72,153.02L624.7,152.54L624.29,152.15L623.68,152.47L622.45,151.39L621.5,150.85L619.75,150.16L619.17,149.11L619.12,148.31L619.45,144.76L620.09,144.6L620.59,144L621.54,141.76L622.79,140.64L624.22,141.25L625.12,140.97L625.54,140.33L625.23,138.92L626.72,136.71L627.13,135.06L627.24,133.12L626.87,132.45L627.05,131.9Z" class="land" id="ES-VC" title="Valencia"/>
    <path d="M613.49,16.7L611.9,17.52L611.86,18.61L611.12,19.19L608.83,19.66L608.62,21.87L609.08,22.49L607.92,23.82L606.25,24.68L606.04,25.58L605.53,26.16L605.87,27.33L605.59,27.94L604.37,28.13L603.93,29.07L603.33,29.36L601.97,29.53L601.21,29.03L600.48,30.06L600.38,31.24L600.63,32.74L599.65,33.95L599.42,34.68L599.77,35.91L598.77,36.52L598.55,37.46L598.61,38.75L599.19,39.31L596.94,39.94L596.75,39.29L595.93,39.09L595.01,39.63L594.16,40.82L594,41.73L594.71,41.7L594.98,42.38L595.86,41.02L596.34,41.64L596.57,42.66L596.5,43.97L595.73,44.39L595.76,45.11L595.1,44.88L594.33,45.22L593.37,45.08L592.35,45.31L589.71,44.63L588.93,44.03L588.79,43.32L589.04,41.42L587.8,40.65L586.94,40.48L586.55,41.95L585.64,42.34L584.54,39.93L583.55,39.36L583.4,38L582.68,37.51L581.23,37.47L580.46,36.48L578.82,35.47L577.17,35.77L577.71,34.65L576.84,34.11L578.19,31.48L577.71,31.04L577.05,32.14L575.98,31.83L575.16,33.27L573.62,31.6L573.75,30.72L574.48,30.31L575.06,29.01L577.13,29.54L577.06,30.08L577.65,30.6L578.49,30.75L580.38,30.45L581.39,29.39L579.81,28.27L579.3,27.14L577.15,26.99L576.44,26.59L577.12,26.01L577.42,23.82L576.27,23.2L577.23,21.56L576.86,20.98L576.16,21.24L575.21,21.16L574.5,20.27L573.77,20.36L572.93,21.13L570.95,22.26L570.2,22.5L569.86,21.37L569.76,19.84L569.38,18.9L570.66,18.55L571.09,17.71L572.21,17.43L573.35,16.64L573.75,17.01L575.13,16.35L575.31,17.11L576.87,16.6L576.98,14.76L577.85,14.98L578.17,14.38L580.42,15.74L580.76,13.75L581.99,12.57L582.3,11.84L583.4,11.76L584.35,12.03L585.91,12.02L587.26,11.11L587.62,12.05L588.84,12.88L589.92,12.55L590.74,13.4L592.49,14.03L593.51,13.92L594.75,15.36L595.42,15.45L597.15,16.42L599.32,16.79L600.72,16.22L602.06,17.07L602.96,16.88L606.36,15.8L606.91,16.03L607.57,15.32L608.74,15.37L609.5,14.95L609.93,14.24L610.88,13.72L612.02,13.51L611.95,14.87L612.95,15.49ZM573.62,20.21L573.34,19.98L573.41,18.79L573.1,18.1L574.08,17.81L574.52,18.06L574.01,19.05L574.1,19.92ZM585.19,34.47L587.79,34.49L589.86,35.42L591.08,35.3L591.44,36L592.13,36.34L590.95,37.88L591.71,38.68L592.48,38.83L593.16,38.33L593.31,39.6L592.51,39.9L591.6,39.46L590.26,39.6L589.84,39.13L588.5,38.68L588.14,39.1L586.87,38.95L586.42,37.83L585.42,37.47L584.46,36.18Z" class="land" id="ES-PV" title="País Vasco"/>
    <path d="M697.48,159.58L698.05,160.37L698.66,160.23L699.02,161.75L699.6,162.25L698.69,163.17L698.63,163.68L697.56,163.93L697.31,165.28L696.03,166.26L695.01,166.22L694.13,167.41L694.06,168.61L693.23,168.61L692.57,167.74L691.57,167.84L690.71,167.47L689.96,167.87L689.21,166.86L689.78,165.47L689.23,164.88L689.7,164.5L690.99,164.33L691.43,164.51L691.2,162.54L692.49,161.7L692.87,161.2L693.7,160.84L694.43,160.89L695.88,160L696.49,160.22L696.92,159.61ZM695.01,171.8L695.84,172.72L696.05,173.28L697.34,174.25L698.21,173.62L698.68,174.07L698.45,174.96L697.2,174.91L695.97,173.96L695.1,173.88L694.18,175.07L693.59,175.1L693.51,173.6L693.65,172.65L694.59,172.26ZM740.56,131.55L740.31,132.07L739.1,132.76L738.59,132.6L737.97,133.38L737.48,133.16L737.14,133.95L737.69,134.9L738.73,134.71L739.56,134.27L740.16,134.85L739.73,135.49L738.27,135.73L738.43,137.19L739.08,137.96L740.58,138.84L741.62,139.23L743.46,138.27L744.01,137.22L744.74,137.93L746.97,138.93L746.76,141.73L746.27,142.46L745.52,142.35L745.02,143.55L745.09,144.01L744.52,145.21L743.85,145.55L742.73,146.91L742.28,148.51L742.23,149.43L741.63,150.21L741.12,151.44L740.34,151.86L739.52,152.66L738.75,152.69L738.15,153.13L737.02,154.52L736.49,154.73L735.57,153.7L735.45,153.21L734.69,152.83L734.83,152.28L733.96,151.45L732.68,151.64L731.1,151.35L730.72,151.67L729.65,151.46L728.39,149.81L728.6,148.99L727.95,147.68L728.69,146.83L728.1,145.86L726.68,144.88L725.57,144.73L725.34,145.38L723.27,146.08L723.19,147.28L722.29,148.18L721.2,146.92L721.37,146.05L721.03,145.67L720.17,145.6L719.43,146.16L718.47,144.75L718.26,143.98L718.88,143.08L719.31,143.09L720.27,142.27L721.28,141.79L723,140.13L723.69,140.17L726.53,137.64L726.61,137.09L728.47,135.76L729.34,135.49L729.75,134.95L730.62,134.95L731.89,134.26L732.68,133.59L733.36,133.45L733.85,132.84L734.68,133.23L735.91,132.34L737,132.76L737.66,132.32L738.19,132.45L738.98,131.67L739.76,131.79ZM733.92,158.04L734.35,158.53L733.75,159.33L733.19,159.1ZM765.12,135.24L763.03,134.01L762.83,133.67L761.47,132.86L759.21,132.25L758.41,132.73L756.25,132.74L756.56,131.5L756.44,130.4L755.55,130.17L756.36,128.41L757.73,128.4L758.22,128.18L758.82,128.64L759.76,128.13L762.79,128.2L763.67,128.36L764.82,127.9L765.26,129.37L766.03,129.55L766.47,130.29L767.29,130.23L767.4,131.34L768.02,131.88L767.88,132.44L768.66,133.63L768.7,134.7L768.42,136.11L767.81,136.58L766.91,136.35Z" class="land" id="ES-IB" title="Islas Baleares"/>
    <path d="M639.37,30.06L637.89,29.99L637.01,30.67L636.93,31.87L635.99,32.61L636.19,34.82L635.55,35.69L633.94,36.53L633.59,37.34L633.07,37.62L631.84,37.67L631.26,38.06L631.24,39.6L628.36,39.56L628.18,41.23L627.03,42.22L627.06,43.03L626.38,43.27L625.47,42.77L624.87,43.94L625.26,45.4L624.76,46.32L624.16,46.54L623.52,47.4L623.23,48.69L623.68,49.24L623.72,50.04L622.91,50.7L622.03,52.06L622.22,52.61L621.61,54.35L621.65,55.12L622.2,55.84L622.06,57.79L622.85,58.42L623.22,59.57L624.27,59.56L624.38,60.68L623.77,61.21L622.95,62.65L622.52,64.05L621.58,65.08L619.42,64.75L618.88,65.2L616.98,64.62L616.58,63.87L614.97,63.28L614.64,63.73L613.46,63.4L612.58,62.31L611.88,62.5L610.81,62.34L610.55,61.82L610.22,61.92L609.13,60.98L608.98,60.08L609.32,59.16L610.72,57.6L611.2,56.79L612.13,57.31L613.15,56.89L613.82,57.49L614.78,56.87L614.28,56.2L614.12,54.87L612.19,54.26L611.35,54.2L610.43,53.13L610.04,52.3L608.77,51.69L608.91,51.28L608.12,50.55L607.43,50.46L607.31,49.86L606.12,49.31L604.82,50.2L604.56,49.33L603.11,47.49L602.09,47.96L601.27,47.73L599.03,46.17L597.95,45.96L597.12,46.07L595.76,45.11L595.73,44.39L596.5,43.97L596.57,42.66L596.34,41.64L595.86,41.02L594.98,42.38L594.71,41.7L594,41.73L594.16,40.82L595.01,39.63L595.93,39.09L596.75,39.29L596.94,39.94L599.19,39.31L598.61,38.75L598.55,37.46L598.77,36.52L599.77,35.91L599.42,34.68L599.65,33.95L600.63,32.74L600.38,31.24L600.48,30.06L601.21,29.03L601.97,29.53L603.33,29.36L603.93,29.07L604.37,28.13L605.59,27.94L605.87,27.33L605.53,26.16L606.04,25.58L606.25,24.68L607.92,23.82L609.08,22.49L608.62,21.87L608.83,19.66L611.12,19.19L611.86,18.61L611.9,17.52L613.49,16.7L615.09,16.13L616.3,16.61L616.08,17.27L616.46,18.23L617.48,18.45L617.99,17.38L618.54,16.89L621.05,17.86L621.9,17.77L622.46,18.37L622.45,20.63L621.96,20.98L621.64,22.75L620.13,24.13L620.98,25.61L623.19,26.23L623.47,25.32L623.4,24.03L624.07,23.25L624.82,23.17L624.33,24.79L625.94,25.72L626.38,25.29L627.83,25.91L629.12,26.7L630.09,26.85L630.75,27.39L632.12,27.62L632.37,28.12L633.73,28.87L634.49,28.52L635.89,28.97L637.2,28.95L638.26,28.33L639.22,29.16Z" class="land" id="ES-NC" title="Navarra"/>
    <path d="M597.87,195.5L598.12,194.16L599.74,192.81L600.3,191.46L600.68,191.02L601.14,189.7L602.19,189.01L603.67,188.59L604.44,187.73L604.91,186.7L605.37,186.35L607.04,187.16L609.34,186.46L610.37,185.53L611.14,185.4L611.85,184.83L612.5,183.96L613.16,183.9L613.68,184.31L614.75,184.59L614.5,185.09L615.09,186.17L617.14,186.19L617.94,185.7L618.37,185.12L619.99,184.04L620.12,183.03L619.94,180.51L619.5,178.79L619.76,177.91L620.66,177.28L620.88,175.56L620.76,175.07L621.49,174.12L622.87,173.29L623.48,174.16L624.92,173.26L625.5,172.48L626.19,172.03L627.61,171.63L629.21,172.16L629.3,173.05L630.92,174.5L631.61,174.87L631.88,175.59L632.25,177.57L631.64,179.23L631.94,180.1L630.53,181.68L630.11,182.33L630,184.39L630.11,185.01L631.85,185.42L632.85,185.32L633.33,186.37L633.41,187.58L632.85,189.46L632.34,190.58L631.59,191.55L631.91,193.64L633.47,195.91L633.71,197.03L634.38,198.27L636.41,200.6L637.84,201.4L638.38,201.32L638.06,202.3L637.49,202.51L637.41,203.41L636.21,204.56L635.96,205.65L636.72,206.81L637.41,207.49L639.01,208.36L639.97,208.27L639.58,209.19L637.93,209.64L636.97,210.29L636.33,209.96L634.43,210.97L633.62,210.84L633.55,210.33L632.21,209.95L631.96,210.33L630.89,210.05L629.24,210.75L629.09,211.48L628.06,211.42L627.96,210.91L627.09,210.21L626.01,210.12L625.46,210.65L623.92,210.58L622.94,211.2L622.01,212.28L620.98,212.67L620.36,213.24L619.86,214.69L618.97,214.84L617.88,215.71L616.79,216.01L616.19,216.69L613.4,214.49L610.57,214.04L609.01,211.51L608.19,210.39L607.16,208.71L607.08,208.22L606.29,207.01L606.4,205.46L606.7,205.18L606.35,203.7L606.71,201.44L607.22,200.59L606.44,200.26L606.03,200.64L604.72,200.15L604.04,200.34L603.45,199.61L602.16,199.97L601.74,199.41L600.06,198.31L599.31,197.4L598.92,196.24Z" class="land" id="ES-MC" title="Murcia"/>
    <path d="M567.05,90.82L567.01,91.38L567.77,91.83L568.29,92.89L569.96,93.94L569.63,95.01L570.72,96.43L569.74,98.25L569.31,99.6L569.52,100.51L568.93,101.28L568.27,102.92L568.4,103.71L568.96,103.73L569.54,104.57L569.67,105.87L569.06,106.64L569.57,107.45L570.49,107.63L571.33,107.36L571.46,108.37L572.6,108.57L572.4,110.13L573.45,110.95L573.91,112.18L574.51,111.94L575.75,112.94L575.79,115.32L576.9,115.41L577.54,116.57L576.97,117.81L576.99,118.96L576.23,119.8L576.12,121.16L575.87,121.86L576.45,122.31L576.78,121.68L578.01,120.57L578.82,122.49L578.7,123.95L578.93,124.65L578.43,125.46L579.02,125.81L579.52,126.66L578.52,127.91L577.78,128.13L576.77,128.03L576.3,127.13L575.6,128.07L573.86,128.61L573.14,128.43L572.42,127.5L571.21,127.7L571.2,128.52L570.57,129.05L570.17,128.71L567.78,128.67L567.36,129.57L565.77,129.77L565.63,130.15L564.65,130.61L564.94,131.32L564.19,131.39L563.13,131.97L562.8,131.76L561.9,132.24L561.74,132.69L560.35,133.97L558.41,133.2L558.91,132.24L561.67,131.83L561.99,130.85L562.6,129.87L563.26,129.72L564.71,128.39L565.4,127.09L565.29,126.56L564.47,126.21L563.58,125.47L563.11,125.73L562.38,125.24L561.87,125.7L561.08,125.52L560.81,124.82L560.16,124.24L559.48,124.77L558.65,123.9L557.4,123.77L556.39,123.04L555.55,123.19L553.34,121.27L552.57,122.05L551.38,121.8L550.42,120.26L549.34,120.62L548.54,121.53L548.28,122.26L547.61,122.85L546.44,122.14L546.02,121.07L546.07,119.87L544.04,121.51L543.98,122.23L543.02,122.45L541.2,123.5L540.32,122.93L540.81,122.54L540.58,121.51L541.6,120.34L541.31,119.11L541.66,118.61L542.3,119.59L543.51,119.45L543.43,118.63L543.92,118.42L543.82,117.24L544.56,116.36L546.76,116.33L546.44,115.46L546.96,115L546.79,113.03L546.94,111.62L547.76,111.15L548.03,109.79L547.73,109.02L548.86,109.87L549.71,109.76L551.04,109.18L550.75,107.35L551.06,106.97L553.4,103.44L554.75,103.83L555.75,103.64L556.19,102.5L556.09,102.02L556.57,100.9L556.42,99.99L557.28,98.41L558.34,97.24L560.06,96.84L560.86,96.34L561.9,94.56L563.51,93.56L564.57,92.22L564.67,91.77L565.76,91ZM548.16,107.43L548.6,108.23L546.98,108.35L546.87,107.99L547.76,107.3Z" class="land" id="ES-MD" title="Madrid"/>
    <path d="M610.27,63.22L608.18,64.66L607.05,64.9L605.88,63.76L603.68,63.44L603.53,61.34L602.73,60.65L602.49,59.79L603.32,59.32L602.81,58.53L600.54,58.58L599.95,59.11L599.35,58.38L599.34,57.59L598.35,57.12L597.64,57.08L595.26,57.4L594.82,58.11L594.08,58.41L593.31,58.27L593.33,59.71L592.49,60.31L592.07,61.61L591.61,62.25L590.53,61.89L589.28,62.22L588.5,61.59L587.44,61.8L587.15,60.99L588.35,59.21L588.42,58.52L587.86,57.86L586.85,57.79L586.26,58.34L585.95,59.36L586.08,60.48L584.67,61.04L583.89,61.79L583.13,61.34L582.65,59.35L582.4,59.02L580.79,59.23L580.05,59.11L579.16,57.45L577.59,55.26L578.23,54.72L578.59,53.59L578.15,51.25L578.09,49.9L579.23,49.75L579.5,49.08L579.3,47.24L579.69,46.62L579.02,45.58L578.54,45.46L579.04,43.8L578.16,43.71L578.23,42.86L579.36,41.63L578.92,39.88L580.79,39.69L582.6,40.06L582.83,40.48L583.89,40.53L584.54,39.93L585.64,42.34L586.55,41.95L586.94,40.48L587.8,40.65L589.04,41.42L588.79,43.32L588.93,44.03L589.71,44.63L592.35,45.31L593.37,45.08L594.33,45.22L595.1,44.88L595.76,45.11L597.12,46.07L597.95,45.96L599.03,46.17L601.27,47.73L602.09,47.96L603.11,47.49L604.56,49.33L604.82,50.2L606.12,49.31L607.31,49.86L607.43,50.46L608.12,50.55L608.91,51.28L608.77,51.69L610.04,52.3L610.43,53.13L611.35,54.2L612.19,54.26L614.12,54.87L614.28,56.2L614.78,56.87L613.82,57.49L613.15,56.89L612.13,57.31L611.2,56.79L610.72,57.6L609.32,59.16L608.98,60.08L609.13,60.98L610.22,61.92L610.55,61.82Z" class="land" id="ES-RI" title="La Rioja"/>
    <path d="M476.68,10.57L475.76,11.28L475.49,12.16L474.87,12.31L473.93,12.02L473.57,12.64L473.61,13.61L474.59,13.71L474.77,15.59L475.76,16.67L476.46,16.68L476.31,17.77L476.5,18.52L477.57,19.66L478.46,20.08L479.01,20.68L478.64,21.4L479.26,22.45L479.73,22.55L481.07,21.34L482.23,21.35L482.58,22.08L482.5,22.9L480.35,24.6L479.67,24.36L478.96,25.25L478.99,25.98L478.22,26.49L478.97,27.46L479.09,26.29L480.49,27.58L481.2,27.52L482.34,28.68L482.2,29.69L482.65,30.22L482.38,31.38L481.44,31.65L482.19,33.42L481.49,34.17L481.54,34.67L479.78,36.31L477.94,36.89L476.97,37.92L477.86,39.51L477.05,40.01L476.7,42.29L476.29,43.45L476.88,44.47L477.37,44.83L478.07,44.61L478.75,45.01L479.04,44.28L479.91,44.06L480.33,44.5L481.75,45.2L482.52,44.98L483.03,45.92L482.69,46.33L482.73,47.47L482.19,48.08L482.74,48.69L483.74,48.86L484.12,49.38L484.97,49.65L484.77,50.53L484.82,51.81L484.14,53.16L483.22,53.89L483.59,54.64L482.17,54.2L481.09,54.62L481,55.13L479.65,55.99L479.58,57.27L478.45,57.83L477.96,59.18L477.29,59.49L477.9,60.31L478.77,60.23L479.06,61.03L478.37,62.66L478.56,63.03L477.93,63.81L476.28,63.86L475.84,63.02L474.47,62.44L473.29,63.15L473.48,64.83L473.03,66.23L471.71,66.67L470.04,67.49L468.09,67.59L467.15,67.97L466.4,66.78L464.97,66.76L465.07,67.28L463.49,67.91L462.32,67.88L463.04,66.24L461.18,66.14L460.18,65.32L459.15,65.81L458.62,65.6L457.82,66.14L456.4,66.43L455.65,67.24L455.23,66.89L455.38,64.8L454.76,64.71L454.44,66.3L452.84,66.59L452.07,67.92L450.93,68.44L449.14,68.68L448.18,68.29L448.24,67.1L448.04,66.4L447.45,66.4L446.85,65.2L447.9,63.65L448.23,62.75L449.08,61.93L450.14,61.58L450.24,60.46L449.66,59.44L448.48,59.41L447.7,59.75L447.56,57.34L445.89,57.4L443.85,59.19L443.24,59L442.68,59.37L441.48,59.61L440.99,59.26L439.01,59.35L438.88,59.92L437.79,60.29L436.97,60.18L436.08,60.45L435.51,61.08L435.45,61.77L434.95,62.38L433.24,63.34L433.12,64.17L432.26,64.93L431.3,65.15L430.62,66.24L429.73,66.12L429.62,62.51L429.66,60.33L429.35,59.41L429.41,58.6L430.24,57.85L430.97,58.15L431.39,57.42L431.47,55.53L432.42,54.91L432.52,54.33L433.37,54.21L434.34,53.07L435.02,52.86L435.43,52.18L436.23,52.17L436.71,50.16L435.4,51.31L435.65,51.75L434.12,52.5L433.86,52.17L432.15,53.38L430.4,53.01L430.2,52.42L430.65,51.78L431.35,52.36L431.28,50.38L432.21,50.73L433.1,50.24L433.51,49.09L434.5,48.45L435.29,47.56L434.67,46.87L433.4,47.77L432.82,48.48L431.51,48.22L430.88,48.8L430.11,47.79L429.68,46.26L428.29,46.1L428.36,45.54L429.4,45.46L429.74,44.81L430.37,44.97L430.45,45.72L431.66,44.98L430.94,42.97L431.11,42.13L431.69,42.11L432.71,41.04L432.03,40L431.34,39.63L431.2,38.88L430.57,38.98L430.46,40.24L429.44,39.84L428.34,41L428.7,41.76L427.84,41.91L427.04,42.47L427.18,43.19L426.12,44.18L425.95,43.24L425.41,42.16L424.77,41.82L425.78,39.53L426.04,37.72L427.27,36.25L427.69,36.31L428.76,34.75L427.32,35.04L426.42,34.87L425.46,35.17L424.78,35.93L423.87,35.62L422.97,34.16L423.97,33.76L424.03,33L423.41,32.71L422.9,31.7L423.5,30.55L421.38,30.11L420.93,29.24L419.97,29.95L418.96,29.94L419.87,27.34L419.43,25.92L420.08,25.38L420.3,24.66L421.06,23.57L422.44,23.53L422.55,22.88L421.48,22.68L421.6,21.77L422.25,20.58L423.48,20.33L424.66,20.81L425.66,20.39L425.83,19.73L427.59,19.14L427.94,18.41L427.34,17.99L427.17,17.26L427.78,16.88L429.08,16.72L429.03,15.86L430.69,15.94L431.17,15.55L432.54,16.63L434.26,16.94L437.15,15.89L438.12,16.23L439.3,15.64L439.69,14.84L440.59,14.46L441.21,13.67L442.34,13.56L442.5,15.34L443.49,14.79L443.72,13.79L443.43,13.26L444.54,12.89L444.85,13.62L445.45,13.54L445.93,14.74L446.97,15.3L447.04,14.37L446.72,13.56L446.65,12.12L445.72,12.28L444.42,11.18L445.88,10.76L446.5,11.1L447.25,10.99L447.38,10.07L446.04,10.37L444.8,10.97L443.58,10.61L444.24,9.66L443.92,9.12L444.82,8.16L444.87,7.56L445.74,7.52L446.85,6.68L447,6.24L448.46,5.45L448.97,4.71L449.62,4.56L450.55,3.42L450.81,2.35L451.26,2L452.3,2.28L454.32,1.02L454.91,0L456.06,0.19L455.79,1.3L456.18,1.57L455.09,3.41L455.73,3.8L456.3,3.33L455.86,2.5L456.94,2.43L457.76,1.17L458.07,1.28L459.55,0.63L461.89,0.7L462.36,2.29L462.4,3.34L463.31,2.71L464.03,1.32L464.76,1.24L466.11,1.6L465.88,2.18L467.96,3.17L468.98,3.48L469.01,4.05L469.61,5.06L470.67,6.23L471.88,7.19L473.55,7.35L473.75,7.63L475.09,7.4L477.16,7.75L476.78,9.06Z" class="land" id="ES-GA" title="Galicia"/>
    <path d="M481.56,121.22L482.38,121.92L484.26,122.15L485.38,121.17L485.98,122.04L486.64,121.39L488.72,121.15L489.49,120.46L489.46,119.08L490.31,118.37L491.95,117.67L492.55,117.68L493.09,116.78L494.49,116.52L495,115.32L496.3,114.98L497.69,113.87L498.7,114L499.76,114.83L500.52,116.06L501.85,116.66L501.7,117.95L501.32,118.31L503.12,118.82L503.63,119.94L505.76,120.74L506.27,120.28L506.53,119.44L507.9,118.68L508.46,118.09L509.06,118.4L509.4,119.67L509.16,120.58L509.86,120.78L510.55,120.32L511.74,120.39L512.6,121.12L512.54,121.55L513.41,121.88L513.61,122.66L515.44,123.58L516.73,123.5L518.27,122.28L518.49,121.73L519.46,121.77L520.68,121.38L520,122.89L520.22,124.92L520.87,126.36L520.01,126.89L519.88,128.15L520.13,129.17L520.11,130.77L519.32,133.07L519.35,134.26L521.13,133.82L521.93,134.44L522.21,135.01L521.51,135.97L521.38,137.89L523,138.49L524.31,136.95L525.04,136.96L525.41,138.23L525.06,138.39L525.92,139.63L525.58,140.41L525.67,141.36L525.39,142.18L524.23,143.6L525.4,144.96L526.34,146.29L527.39,147.37L527.97,147.39L528.76,148.56L530.77,150.53L532.84,151.33L534.36,150.39L535.28,150.35L535.75,149.76L537.43,148.61L538.02,149.47L537.16,151.36L537.06,152.64L535.91,152.81L535.88,153.27L536.56,155.37L537.66,157.15L537.77,157.95L536.23,157.17L535.56,157.31L534.44,156.98L533.24,158.57L533.13,159.53L532.74,160.34L533.17,161.02L533.95,161.48L533.79,162.01L532.64,162.46L531.15,161.67L530.48,161.62L531.6,164.95L533.76,165.48L533.41,167.38L531.71,167.25L531,168.34L530.21,171.43L529.81,172.03L528.33,172.44L526.92,173.17L526.43,172.89L524.89,173.03L525.19,174.17L523.12,175.44L522.01,176.32L521.45,177.44L520.01,177.24L518.93,179.32L518.06,179.88L516.77,181.33L516.15,181.19L514.8,182.36L514.49,183.72L515.08,184.2L514.77,185.61L515.23,185.96L515.54,187.13L516,187.77L516.13,189.56L515.67,189.83L515.59,190.6L515.12,191.46L514.4,192.03L513.07,191.94L512.25,193.13L511.3,193.71L510.64,193.49L510.46,192.23L511.63,191.43L511.82,190.61L510.52,189.98L510.02,190.43L509.41,190.27L508.95,190.64L507.96,190.62L507.02,191.17L506.87,192.01L506.01,192.39L505.61,193.22L506.16,194.13L505.41,195.03L505.18,196.26L503.33,196.64L502.94,196.43L501.35,196.89L500.83,196.86L499.15,198.24L498.58,197.58L497.66,197.68L497.31,197.29L496.05,197.07L494.82,196.19L494.3,194.71L493.15,194.42L491.86,195.18L491.72,195.96L489.43,195.42L488.81,195.61L488.85,194.63L487.8,193.21L486.81,193.34L486.07,193.1L484.3,193.33L484.01,192.75L483.06,192.75L483.4,190.56L481.83,190.52L480.62,189.78L479.91,189.61L479.77,189.16L477.86,189.62L477.35,190.31L476.38,190.22L475.95,190.7L475.22,190L474.58,188.81L474.34,187.56L473.73,187.13L472.92,185.6L471.82,184.39L471.05,183.27L470.95,182.55L470.01,181.9L469.84,180.68L470,179.57L470.85,177.49L471.35,176.99L471.86,175.93L471.13,175.45L471.27,173.43L471.45,172.64L472.88,171.75L474.91,169.6L475.79,169.45L476.58,168.27L477.36,167.63L476.9,166.57L478.52,164.19L479.36,162.7L479.13,161.73L478.44,160.43L477.3,159.66L476.79,159.62L475.38,160.25L474.45,159.84L474.59,157.82L472.6,157.14L471.93,156.48L471.72,155.19L472.14,154.29L470.16,152.27L470.11,151.25L469.81,150.91L470.41,149.76L470.4,148.09L469.85,147.73L468.76,147.52L468.13,146.7L467.88,145.77L467.1,145.74L466.14,144.32L465.46,144.02L464.64,142.43L464.45,141.33L466.4,141.51L467.77,142.04L468.47,141.89L469.63,142.2L470.78,141.53L471.68,141.35L474.33,141.8L474.91,141.46L476.74,141.58L477.74,141.21L478.33,139.47L478.48,138.13L478.74,137.68L478.53,136.48L479.37,136.1L479.93,135.16L480.48,134.78L480.99,132.38L481.11,130.88L481.63,129.87L481.17,128.81L480.28,127.87L479.69,126.56L478.75,126.19L478.15,126.25L477.76,125.62L477.67,124.27L477.36,124L477.84,122.6L479.34,121.56L480.43,121.67Z" class="land" id="ES-EX" title="Extremadura"/>
    <path d="M671.2,112.6L669.25,111.76L669.09,110.7L667.93,109.75L666.72,109.71L665.15,108.94L664.88,108.01L665.51,107.11L664.73,106.41L664.09,106.59L663.74,105.73L662.36,105.46L662.85,104.88L664.03,104.03L665.12,102.49L664.46,101.34L664.21,100.46L664.39,99.56L665.35,97.63L664.91,96.52L664.77,95.51L664.04,94.89L663.17,93.5L663.17,92.88L663.63,91.94L664.33,92.02L665.77,90.87L666.23,88.85L667.31,88.79L667.93,86.96L666.93,85.18L667.6,84.32L667.26,83.73L666.23,82.9L666.96,81.86L667.12,80.88L666.92,79.73L668.22,79.64L669.46,77.63L669.1,77.07L669.02,75.82L668.34,76.13L667,75.91L667.2,74.84L666.38,73.82L666.42,73.17L667.48,71.97L668.28,70.47L670.11,70.15L670.44,69.01L671.23,68.28L672,68.31L672.39,67.16L673.63,66.56L673.28,66.11L673.42,64.79L672.51,64.46L672.88,63.65L673.54,63.49L674.08,62.45L674.82,62.22L674.72,61.29L675.11,60.68L676.03,57.92L675.81,56.9L676.33,54.41L676.9,53.34L677.13,51.71L677.61,50.94L677.05,50.53L677.64,49.73L676.78,49.54L677.14,48.75L676.89,47.71L676.26,46.98L675.91,45.71L676.81,44.64L676.52,43.8L677.23,42.91L677.69,40.88L676.23,40.58L675.85,39.21L674.96,38.06L675.48,37.54L674.67,35L675.18,34.16L674.9,32.91L676.18,32.1L677.99,32.99L678.84,32.91L679.99,33.33L681.31,34.37L681.96,34.64L682.77,34.1L683.27,34.73L683.83,34.58L685.57,34.87L686.45,35.23L687.09,36.01L687.12,36.77L687.93,37.41L689.55,36.8L690.2,37.23L692.71,37.05L692.7,37.64L693.7,38.23L693.7,38.87L694.26,39.29L695,41.47L695.08,43.24L695.72,44.35L695.09,44.9L695.21,46.91L696.93,47.25L697.84,47.09L698.3,46.24L700.59,45.9L700.75,45.03L701.84,45.08L702.33,44.69L703.33,45.2L704.33,45.06L705.25,45.37L706.32,46.52L707.62,46.36L708.21,47.31L708.33,48.48L709.34,49.84L710.93,49.66L712.31,48.54L712.6,47.88L713.38,47.41L714.56,47.69L715.99,46.91L716.84,47.42L717.53,47.33L718.45,48.06L720.03,48.53L721.35,49.59L721.78,50.31L723.3,50.54L723.84,49.72L726.22,50.28L726.72,48.06L727.8,47.52L728.8,47.34L729.19,47.83L729.91,47.59L730.96,46.18L733.14,46.17L733.7,45.41L734.24,45.95L734.78,45.64L735.93,45.62L737.3,47.34L737.9,47.01L738.9,47.04L739.38,47.69L739.03,48.9L739.23,49.59L739.86,49.96L741.76,50.28L743.34,50.99L742.46,51.59L742.23,53.29L741.02,53.41L740.4,53.75L738.91,53.06L738.34,53.79L737.98,54.94L738.01,56.54L738.29,57.67L739.6,58.22L740.43,59.66L740.07,61.19L740.23,62.27L741.09,63.8L740.32,65.83L739.61,66.71L738.53,67.38L737.75,67.43L736.9,68.45L736.25,69.73L735.29,70.02L734.37,70.62L733.43,71.92L732.22,72.39L731.31,72.46L730.39,72.87L729.62,73.52L729.43,74.19L722.77,77.14L721.22,77.96L719.95,79.03L718.44,79.88L716.95,80.39L715.83,81.28L715.33,82.21L713.69,84.33L713.26,85.51L712.18,86.61L709.79,87.36L707.55,87.48L705.61,88.41L704.6,88.35L703.94,88.74L702.38,89.06L701.02,89.62L697.56,90.13L695.58,90.78L694.14,91.63L692.63,92.06L691.34,92.09L690.54,92.6L689.43,92.78L688.86,93.18L688.09,94.55L687.06,93.87L685.82,94.25L684.98,94.22L682.64,95.62L681.92,96.65L681.01,97.29L678.57,100.43L678.43,100.83L677.11,101.94L677.02,102.44L675.97,103.09L676.76,104.29L677.75,104.48L678.09,104.07L679.38,105.53L680.17,105.9L680.34,106.81L679.36,107.6L677.5,108.55L676.32,110.39L675.66,111.1L674.51,111.51L673.52,111.04L673.8,110.38L674.67,111.02L674.96,110.25L676.34,110.23L677.15,108.77L675.76,108.73L675.03,109.09L673.58,109.21L671.83,111.08ZM709.48,46.4L708.04,46.17L708.59,45.47Z" class="land" id="ES-CT" title="Cataluña"/>
    <path d="M227.24,492.51L229.33,492.05L229.51,491.74L231.32,491.96L232.57,491.27L233.7,491.2L234.06,490.67L234.59,490.59L234.86,490.05L235.78,489.24L236.01,488.36L236.96,487.55L238.18,487.24L238.37,486.64L239.21,486.86L239.84,486.6L241.1,486.96L242.77,486.3L243.28,486.44L243.76,487.35L243.51,487.83L241.64,488.92L240.74,489.32L240.35,490.2L239.92,490.4L238.62,491.76L237.56,492.41L237.34,493.11L237.56,494.53L236.97,495.19L236.87,495.79L235.92,497.62L235.53,499.31L234.17,501.16L232.92,502.24L232.91,502.61L231.52,502.61L230.28,503.35L229.85,503.2L229.21,503.51L228.65,503.14L228.55,502.11L227.92,501.89L227.79,500.85L227.07,500.26L226.46,499.41L225.34,497.34L225.11,496.54L225.21,495.77L224.75,495.47L224.18,494.34L223.11,493.1L224.68,492.51L225.42,492.01L226.05,492.48ZM197.36,507.84L198.17,508.43L198.44,509.15L197.96,509.69L197.31,511.28L196.54,511.64L196.51,512.33L196.16,513L196.19,513.71L195.79,514L195.19,513.67L194.69,512.82L194.14,512.42L192.26,512.06L191.7,512.11L191.3,511.73L191.49,510.54L192.05,510.13L192.74,510.56L193.59,510.67L194.42,510.39L195.73,509.28L195.7,508.77L196.57,508.07ZM310.95,461.99L311.32,462.42L310.9,462.91L310.29,462.88L310.48,462.12ZM214.11,497.2L216.16,497.71L216.44,498.23L217.58,498.8L218.3,499.38L218.54,500.78L216.99,502.09L216.01,502.78L214.84,502.89L214.18,502.73L212.92,501.75L212.79,501.12L212.21,500.49L212.24,499.28L212.5,498.35L213,497.5ZM197.73,478.43L198.31,478.93L199.09,479.15L200.39,478.84L201.13,478.94L201.62,480L201.67,480.51L202.54,481.91L201.34,483.73L201.86,485.37L201.62,486.82L200.94,487.59L200.68,488.35L200.14,489.02L199.71,490.15L198.82,489.68L198.5,487.71L197.73,486.38L196.81,484.49L196.35,483.99L195.92,482.27L195.24,481.35L195.29,480.56L195.95,480.01L196.36,479.32ZM261.75,498.21L262.16,498.45L261.51,499.73L261.98,500.59L261.85,502.08L262.56,502.62L263.01,503.66L262.68,504.28L262.89,505.36L262.42,506.63L262.63,507.61L261.95,507.91L261.67,508.97L261.15,509.31L259.95,509.5L258.01,510.53L257.91,511.06L257.11,511.21L255.58,510.55L255.04,510.57L252.31,508.31L251.52,506.6L251.09,505.95L251.25,504.95L251.09,504.34L251.52,503.36L252.21,502.93L252.96,502.18L254.01,501.45L254.33,500.71L254.37,498.9L254.97,498.52L255.3,498.86L256.14,498.47L257.17,499.27L258.5,499.21L258.92,498.97L259.79,499.26L260.48,499.79L261.45,499.24L261.23,498.56ZM310.86,465.68L311.73,466.25L310.94,467.62L310.47,467.81L310.5,466.3ZM300.96,481.35L301.65,482.02L302.26,482.24L302.57,483.2L302.5,483.75L302.78,486.16L302.68,487.3L302.37,487.78L302.25,488.76L301.62,489.44L301.89,490.02L301.75,490.65L302.11,491.51L300.95,494L300.35,496.12L299.55,496.83L298.75,496.79L297.91,497.42L296.29,497.61L294.72,498.02L294.15,498.34L293.07,498.44L292.48,498.75L291.22,500.59L289.98,502L289.59,502.19L288.75,501.89L287.75,501.77L285.54,501.04L285.5,500.45L287.27,500.48L288.36,500.17L289.83,499.48L291.21,498.41L292.46,497.29L292.89,495.91L292.77,495.08L293.11,493.76L293.69,493.39L294.06,492.72L294.16,491.6L294.46,490.66L295.69,489.46L296.7,487.24L297.36,486.11L297.22,485.5L297.99,483.74L297.73,482.81L298.79,482.03L299.36,481.97L300.17,481.47ZM311.94,467.56L313.02,468.1L312.93,469.58L311.98,470.47L312.41,471.65L311.86,473.25L311.9,473.77L309.95,475.38L308.58,475.74L307.4,476.61L306.56,476.53L305.03,476.97L304.59,477.92L303.92,478.83L302.76,478.27L301.39,478.36L301.27,477.56L301.81,477.29L302.61,476.33L302.5,476.01L302.61,473.98L303.14,473.2L304.46,471.99L305.69,471.89L307.11,470.88L307.72,470.8L308.41,470.25L309.49,470.81L310.43,470.06L310.51,469.26L311.16,467.79Z" class="land" id="ES-CN" title="Islas Canarias"/>
    <path d="M548.16,107.43L548.73,106.99L550.47,106.67L551.06,106.97L550.75,107.35L551.04,109.18L549.71,109.76L548.86,109.87L547.73,109.02L546.98,108.35L548.6,108.23ZM567.05,90.82L567.64,90.93L569.11,89.93L569.53,89.14L570.55,89.2L570.62,87.79L571.46,87.6L572.25,87.83L573.41,87.63L573.87,87.02L574.34,87.62L575.02,86.27L575.57,86.05L578.49,86.68L579.3,87.02L580.21,86.67L581.83,86.39L582.39,85.71L583.28,85.21L584.25,85.57L584.35,87.05L585.56,87.63L586.62,87.73L587.03,87.09L588.15,87.06L588.38,87.8L589.33,88.24L589.99,88.19L590.62,88.87L591.43,88.71L591.34,89.58L591.71,90.4L591.3,91.23L591.84,91.6L593.26,91.2L593.53,92.23L594.14,92.31L594.56,93.21L595.89,94.33L597.47,93.37L598.33,94.35L599.12,93.88L599.88,94L600.62,93.06L602,93.49L602.91,92.77L604.61,93.53L605.15,92.11L605.17,91.37L606.41,91.08L607.46,90.59L607.89,90.72L608.43,91.75L609.43,91.89L609.93,92.67L611.31,93.18L612.45,94.1L612.82,94.82L614.49,96.58L616.58,98.56L616.66,99.13L616.35,100.54L617.57,102.16L618.35,102.77L618.38,104.61L617.87,105.32L618.07,106.47L618.5,107.07L618.43,108.01L617.79,109.51L618.24,110.12L616.9,111.27L615.97,110.68L614.48,110.8L614.25,112.17L614.49,113.76L613.39,114.29L612.27,115.82L611.72,116.3L612.95,118.04L614.35,119.37L614.57,119.77L616.58,122.01L617.01,122.27L618.37,123.82L619.19,123.39L620.09,124L621,123.61L620.71,125.41L620.86,126.24L621.57,127.1L622.44,128.81L622.62,129.57L625,129.96L625.66,130.32L627.43,130.1L628.07,129.82L628.67,131.19L627.05,131.9L626.87,132.45L627.24,133.12L627.13,135.06L626.72,136.71L625.23,138.92L625.54,140.33L625.12,140.97L624.22,141.25L622.79,140.64L621.54,141.76L620.59,144L620.09,144.6L619.45,144.76L619.12,148.31L619.17,149.11L619.75,150.16L621.5,150.85L622.45,151.39L623.68,152.47L624.29,152.15L624.7,152.54L626.72,153.02L627.74,153.08L628.11,153.37L627.8,154.29L627.76,155.82L627.22,157.69L626.47,158.5L626.13,159.72L625.74,159.98L625.5,160.98L625.54,161.99L626.49,162.7L628.19,165.02L628.6,165.87L629.52,165.86L632.92,165.43L633.85,166.84L634.25,167.09L633.94,168.28L634.14,170.62L633.31,170.99L633.79,172.4L634.47,173.54L633.3,174.81L631.61,174.87L630.92,174.5L629.3,173.05L629.21,172.16L627.61,171.63L626.19,172.03L625.5,172.48L624.92,173.26L623.48,174.16L622.87,173.29L621.49,174.12L620.76,175.07L620.88,175.56L620.66,177.28L619.76,177.91L619.5,178.79L619.94,180.51L620.12,183.03L619.99,184.04L618.37,185.12L617.94,185.7L617.14,186.19L615.09,186.17L614.5,185.09L614.75,184.59L613.68,184.31L613.16,183.9L612.5,183.96L611.85,184.83L611.14,185.4L610.37,185.53L609.34,186.46L607.04,187.16L605.37,186.35L604.91,186.7L604.44,187.73L603.67,188.59L602.19,189.01L601.14,189.7L600.68,191.02L600.3,191.46L599.74,192.81L598.12,194.16L597.87,195.5L597.04,195.57L595.65,195.24L595.21,194.84L594.27,194.6L593.65,194.12L592.38,193.64L593.17,192.85L593.51,192.15L595.13,190.29L594.94,189.27L595.26,188.77L595.41,187.68L595.26,187L594.13,186.48L594.26,184.94L593.95,184.23L594.15,183.35L592.27,183.08L591.76,182.4L592,181.28L591.94,180.17L591.19,179.54L590.13,179.68L589.25,180.12L587.77,179.54L586.94,178.94L586.57,179.59L585.38,180.41L584.48,180.77L583.71,181.4L583.35,181L581.86,180.97L581.07,181.58L580.78,182.8L579.21,180.72L577.6,181.96L576.28,181.6L573.79,181.37L573,180.7L571.27,180.83L571.21,181.94L569.29,183.25L567.3,182.99L567.16,182.01L565.94,181.69L565.82,183.03L564.97,183.48L562.98,182.91L562.15,182.47L561.9,182.81L560.82,182.44L559.72,182.78L559.54,183.53L558.86,184.14L557.38,184.32L555.09,184.31L554.08,183.99L550.86,183.83L549.39,183.34L548.41,183.27L548.06,183.93L548.3,185L546.96,184.5L544.03,183.21L543.6,183.23L542.04,181.19L540.88,180.74L540.65,180.26L539.77,180.23L539.2,179.2L538.15,178.38L537.29,178.28L537.07,177.59L536.49,177.53L535,176.81L534.35,176.86L533.05,176.13L532.87,174.04L532.5,173.85L531.31,174.02L529.46,173.59L528.89,172.54L528.33,172.44L529.81,172.03L530.21,171.43L531,168.34L531.71,167.25L533.41,167.38L533.76,165.48L531.6,164.95L530.48,161.62L531.15,161.67L532.64,162.46L533.79,162.01L533.95,161.48L533.17,161.02L532.74,160.34L533.13,159.53L533.24,158.57L534.44,156.98L535.56,157.31L536.23,157.17L537.77,157.95L537.66,157.15L536.56,155.37L535.88,153.27L535.91,152.81L537.06,152.64L537.16,151.36L538.02,149.47L537.43,148.61L535.75,149.76L535.28,150.35L534.36,150.39L532.84,151.33L530.77,150.53L528.76,148.56L527.97,147.39L527.39,147.37L526.34,146.29L525.4,144.96L524.23,143.6L525.39,142.18L525.67,141.36L525.58,140.41L525.92,139.63L525.06,138.39L525.41,138.23L525.04,136.96L524.31,136.95L523,138.49L521.38,137.89L521.51,135.97L522.21,135.01L521.93,134.44L521.13,133.82L519.35,134.26L519.32,133.07L520.11,130.77L520.13,129.17L519.88,128.15L520.01,126.89L520.87,126.36L521.28,126.6L524.06,126.66L524.2,127.38L525.12,127.34L526.23,126.78L527.7,125.22L529.02,124.89L529.31,126.54L531.33,125.68L531.47,124.51L534.45,122.32L534.19,121.64L534.54,120.91L535.59,121.46L536.12,121L537.26,120.72L537.16,121.56L537.56,123.1L538.36,123.52L539.35,123.48L540.32,122.93L541.2,123.5L543.02,122.45L543.98,122.23L544.04,121.51L546.07,119.87L546.02,121.07L546.44,122.14L547.61,122.85L548.28,122.26L548.54,121.53L549.34,120.62L550.42,120.26L551.38,121.8L552.57,122.05L553.34,121.27L555.55,123.19L556.39,123.04L557.4,123.77L558.65,123.9L559.48,124.77L560.16,124.24L560.81,124.82L561.08,125.52L561.87,125.7L562.38,125.24L563.11,125.73L563.58,125.47L564.47,126.21L565.29,126.56L565.4,127.09L564.71,128.39L563.26,129.72L562.6,129.87L561.99,130.85L561.67,131.83L558.91,132.24L558.41,133.2L560.35,133.97L561.74,132.69L561.9,132.24L562.8,131.76L563.13,131.97L564.19,131.39L564.94,131.32L564.65,130.61L565.63,130.15L565.77,129.77L567.36,129.57L567.78,128.67L570.17,128.71L570.57,129.05L571.2,128.52L571.21,127.7L572.42,127.5L573.14,128.43L573.86,128.61L575.6,128.07L576.3,127.13L576.77,128.03L577.78,128.13L578.52,127.91L579.52,126.66L579.02,125.81L578.43,125.46L578.93,124.65L578.7,123.95L578.82,122.49L578.01,120.57L576.78,121.68L576.45,122.31L575.87,121.86L576.12,121.16L576.23,119.8L576.99,118.96L576.97,117.81L577.54,116.57L576.9,115.41L575.79,115.32L575.75,112.94L574.51,111.94L573.91,112.18L573.45,110.95L572.4,110.13L572.6,108.57L571.46,108.37L571.33,107.36L570.49,107.63L569.57,107.45L569.06,106.64L569.67,105.87L569.54,104.57L568.96,103.73L568.4,103.71L568.27,102.92L568.93,101.28L569.52,100.51L569.31,99.6L569.74,98.25L570.72,96.43L569.63,95.01L569.96,93.94L568.29,92.89L567.77,91.83L567.01,91.38Z" class="land" id="ES-CM" title="Castilla-La Mancha"/>
    <path d="M482.65,30.22L484.52,31.01L485.22,30.15L487.45,29.83L488.29,30.15L489.84,30.28L490.67,29.76L492.25,29.49L492.96,27.61L494.61,25.11L495.37,26.03L497.01,26.61L498.06,26.61L498.3,25.56L499.27,25.54L500.29,26.51L501.48,25.85L501.73,24.76L503.12,25.23L504.7,25.21L504.94,26.51L506.65,27.91L507.37,27.89L507.8,28.47L509.75,28.33L509.83,27.67L510.87,25.69L511.8,25.17L513.22,25.99L514.79,26.09L515.68,26.52L516.87,26.27L518.04,25.25L519.29,25.52L519.68,24.16L520.19,23.84L520.79,24.25L522.32,24.44L523.01,24.03L523.87,24.24L525.76,23.17L525.96,23.57L526.95,23.61L527.63,20.83L529.67,20.7L531.05,19.31L532.27,18.84L533.12,19.49L533.7,20.79L533.81,21.66L533.42,22.71L533.88,23.62L535.57,24.57L535.58,25.24L536.38,25.53L536.16,26.23L538.77,26.61L539.51,26.13L540.86,26.52L541.83,25.56L542.93,25.81L543.26,25.04L544.77,25.87L546.29,28.15L548.65,28.51L549.08,29.39L549.45,32.26L550.12,32.66L550.53,32.2L551.39,31.97L551.93,32.25L551.56,33.23L550.46,33.51L551.35,34.63L552.64,34.56L553.09,35.59L553.9,34.95L554.64,33.57L555.14,33.22L555.19,35.34L555.74,35.7L556.54,35.6L557.55,34.72L557.93,34.09L558.7,34.71L559.76,34.28L559.87,32.93L559.68,31.89L558.73,31.13L558.45,32.43L557.45,31.92L557.95,31.13L558.66,30.79L559.3,29.35L558.68,28.83L558.15,29.04L558.01,29.87L556.67,30.42L555.91,30.36L555.47,29.67L556.19,27.58L556.56,27.01L557.33,26.7L557.95,25.77L559.06,25.5L558.84,24.18L560.64,24.46L561.49,24.19L561.56,23.66L562.81,23.13L564.23,20.85L565.87,21.77L568.42,22.51L570.2,22.5L570.95,22.26L572.93,21.13L573.77,20.36L574.5,20.27L575.21,21.16L576.16,21.24L576.86,20.98L577.23,21.56L576.27,23.2L577.42,23.82L577.12,26.01L576.44,26.59L577.15,26.99L579.3,27.14L579.81,28.27L581.39,29.39L580.38,30.45L578.49,30.75L577.65,30.6L577.06,30.08L577.13,29.54L575.06,29.01L574.48,30.31L573.75,30.72L573.62,31.6L575.16,33.27L575.98,31.83L577.05,32.14L577.71,31.04L578.19,31.48L576.84,34.11L577.71,34.65L577.17,35.77L578.82,35.47L580.46,36.48L581.23,37.47L582.68,37.51L583.4,38L583.55,39.36L584.54,39.93L583.89,40.53L582.83,40.48L582.6,40.06L580.79,39.69L578.92,39.88L579.36,41.63L578.23,42.86L578.16,43.71L579.04,43.8L578.54,45.46L579.02,45.58L579.69,46.62L579.3,47.24L579.5,49.08L579.23,49.75L578.09,49.9L578.15,51.25L578.59,53.59L578.23,54.72L577.59,55.26L579.16,57.45L580.05,59.11L580.79,59.23L582.4,59.02L582.65,59.35L583.13,61.34L583.89,61.79L584.67,61.04L586.08,60.48L585.95,59.36L586.26,58.34L586.85,57.79L587.86,57.86L588.42,58.52L588.35,59.21L587.15,60.99L587.44,61.8L588.5,61.59L589.28,62.22L590.53,61.89L591.61,62.25L592.07,61.61L592.49,60.31L593.33,59.71L593.31,58.27L594.08,58.41L594.82,58.11L595.26,57.4L597.64,57.08L598.35,57.12L599.34,57.59L599.35,58.38L599.95,59.11L600.54,58.58L602.81,58.53L603.32,59.32L602.49,59.79L602.73,60.65L603.53,61.34L603.68,63.44L605.88,63.76L607.05,64.9L608.18,64.66L610.27,63.22L610.21,64.95L610.68,66.42L611.26,67.16L611.07,68.38L610.36,69.28L611.07,69.78L612.08,71.27L612.05,72.43L611.68,72.61L611.57,73.6L610.23,73.77L609.82,74.58L609.25,74.73L608.55,75.93L607.41,75.69L606.74,76.49L607.46,77.77L607.16,78.41L607.1,79.8L607.8,80.65L607.76,82.47L605.85,83.3L605.68,81.82L604.01,81.2L603.63,81.89L603.41,83.74L602.43,84.29L602.06,86.51L602.33,86.78L602.8,90.1L604.47,90.52L605.17,91.37L605.15,92.11L604.61,93.53L602.91,92.77L602,93.49L600.62,93.06L599.88,94L599.12,93.88L598.33,94.35L597.47,93.37L595.89,94.33L594.56,93.21L594.14,92.31L593.53,92.23L593.26,91.2L591.84,91.6L591.3,91.23L591.71,90.4L591.34,89.58L591.43,88.71L590.62,88.87L589.99,88.19L589.33,88.24L588.38,87.8L588.15,87.06L587.03,87.09L586.62,87.73L585.56,87.63L584.35,87.05L584.25,85.57L583.28,85.21L582.39,85.71L581.83,86.39L580.21,86.67L579.3,87.02L578.49,86.68L575.57,86.05L575.02,86.27L574.34,87.62L573.87,87.02L573.41,87.63L572.25,87.83L571.46,87.6L570.62,87.79L570.55,89.2L569.53,89.14L569.11,89.93L567.64,90.93L567.05,90.82L565.76,91L564.67,91.77L564.57,92.22L563.51,93.56L561.9,94.56L560.86,96.34L560.06,96.84L558.34,97.24L557.28,98.41L556.42,99.99L556.57,100.9L556.09,102.02L556.19,102.5L555.75,103.64L554.75,103.83L553.4,103.44L551.06,106.97L550.47,106.67L548.73,106.99L548.16,107.43L547.76,107.3L546.87,107.99L546.98,108.35L547.73,109.02L548.03,109.79L547.76,111.15L546.94,111.62L546.79,113.03L546.96,115L546.44,115.46L546.76,116.33L544.56,116.36L543.82,117.24L543.92,118.42L543.43,118.63L543.51,119.45L542.3,119.59L541.66,118.61L541.31,119.11L541.6,120.34L540.58,121.51L540.81,122.54L540.32,122.93L539.35,123.48L538.36,123.52L537.56,123.1L537.16,121.56L537.26,120.72L536.12,121L535.59,121.46L534.54,120.91L534.19,121.64L534.45,122.32L531.47,124.51L531.33,125.68L529.31,126.54L529.02,124.89L527.7,125.22L526.23,126.78L525.12,127.34L524.2,127.38L524.06,126.66L521.28,126.6L520.87,126.36L520.22,124.92L520,122.89L520.68,121.38L519.46,121.77L518.49,121.73L518.27,122.28L516.73,123.5L515.44,123.58L513.61,122.66L513.41,121.88L512.54,121.55L512.6,121.12L511.74,120.39L510.55,120.32L509.86,120.78L509.16,120.58L509.4,119.67L509.06,118.4L508.46,118.09L507.9,118.68L506.53,119.44L506.27,120.28L505.76,120.74L503.63,119.94L503.12,118.82L501.32,118.31L501.7,117.95L501.85,116.66L500.52,116.06L499.76,114.83L498.7,114L497.69,113.87L496.3,114.98L495,115.32L494.49,116.52L493.09,116.78L492.55,117.68L491.95,117.67L490.31,118.37L489.46,119.08L489.49,120.46L488.72,121.15L486.64,121.39L485.98,122.04L485.38,121.17L484.26,122.15L482.38,121.92L481.56,121.22L481.59,120.33L482.24,119.69L483.48,119.01L483.39,117.67L482.56,116.75L482.18,116L482.06,114.8L482.94,113.26L483.32,113.01L483.22,111.65L482.14,111.03L482.3,110.22L482.99,109.07L483.38,107.94L482.47,104.8L482.84,103L482.62,101.71L483.19,101.64L483.03,100.37L482.03,99.72L481.75,98.08L481.34,97.74L479.94,95.9L480.3,95.1L481.32,95.47L483.03,95.16L484.37,92.96L483.99,92.14L485.84,90.2L486.03,89.34L487.22,87.93L487.64,88.12L488.72,87.79L488.95,88.26L491.79,86.14L492.56,85.96L493.14,84.54L494.11,84.15L493.78,83.28L494.34,82.99L494.94,83.47L495.68,83.09L495.26,82.57L496.21,81.47L495.95,81.04L496.54,80.03L497.35,79.39L498.48,77.19L498.68,76.16L497.72,75.58L497.21,74.69L496.19,73.85L494.85,73.31L492.2,73.08L491.28,73.89L490.67,73.78L489.6,72.7L489.53,70.58L489.84,69.15L490.24,68.34L490.45,66.41L489.17,66.07L489.81,64.42L488.7,63.25L488.39,63.9L485.9,64.4L484.57,64.09L483.96,62.62L483.11,62.44L482.67,63.94L481.54,63.91L480.88,64.18L479.55,64.02L479.09,63.15L478.56,63.03L478.37,62.66L479.06,61.03L478.77,60.23L477.9,60.31L477.29,59.49L477.96,59.18L478.45,57.83L479.58,57.27L479.65,55.99L481,55.13L481.09,54.62L482.17,54.2L483.59,54.64L483.22,53.89L484.14,53.16L484.82,51.81L484.77,50.53L484.97,49.65L484.12,49.38L483.74,48.86L482.74,48.69L482.19,48.08L482.73,47.47L482.69,46.33L483.03,45.92L482.52,44.98L481.75,45.2L480.33,44.5L479.91,44.06L479.04,44.28L478.75,45.01L478.07,44.61L477.37,44.83L476.88,44.47L476.29,43.45L476.7,42.29L477.05,40.01L477.86,39.51L476.97,37.92L477.94,36.89L479.78,36.31L481.54,34.67L481.49,34.17L482.19,33.42L481.44,31.65L482.38,31.38ZM585.19,34.47L587.79,34.49L589.86,35.42L591.08,35.3L591.44,36L592.13,36.34L590.95,37.88L591.71,38.68L592.48,38.83L593.16,38.33L593.31,39.6L592.51,39.9L591.6,39.46L590.26,39.6L589.84,39.13L588.5,38.68L588.14,39.1L586.87,38.95L586.42,37.83L585.42,37.47L584.46,36.18Z" class="land" id="ES-CL" title="Castilla y León"/>
    <path d="M576.98,14.76L576.87,16.6L575.31,17.11L575.13,16.35L573.75,17.01L573.35,16.64L572.21,17.43L571.09,17.71L570.66,18.55L569.38,18.9L569.76,19.84L569.86,21.37L570.2,22.5L568.42,22.51L565.87,21.77L564.23,20.85L562.81,23.13L561.56,23.66L561.49,24.19L560.64,24.46L558.84,24.18L559.06,25.5L557.95,25.77L557.33,26.7L556.56,27.01L556.19,27.58L555.47,29.67L555.91,30.36L556.67,30.42L558.01,29.87L558.15,29.04L558.68,28.83L559.3,29.35L558.66,30.79L557.95,31.13L557.45,31.92L558.45,32.43L558.73,31.13L559.68,31.89L559.87,32.93L559.76,34.28L558.7,34.71L557.93,34.09L557.55,34.72L556.54,35.6L555.74,35.7L555.19,35.34L555.14,33.22L554.64,33.57L553.9,34.95L553.09,35.59L552.64,34.56L551.35,34.63L550.46,33.51L551.56,33.23L551.93,32.25L551.39,31.97L550.53,32.2L550.12,32.66L549.45,32.26L549.08,29.39L548.65,28.51L546.29,28.15L544.77,25.87L543.26,25.04L542.93,25.81L541.83,25.56L540.86,26.52L539.51,26.13L538.77,26.61L536.16,26.23L536.38,25.53L535.58,25.24L535.57,24.57L533.88,23.62L533.42,22.71L533.81,21.66L533.7,20.79L535.24,20.42L536.4,20.39L536.72,18.8L536.47,18.18L537.1,17.84L538.31,17.91L539.79,16.71L541.77,17.42L541.91,16.22L541.4,15L542.03,13.36L544.86,13.21L545.64,13.4L546.1,13.02L546.94,13.5L548.63,13.23L550.73,13.07L552.77,12.16L555.25,11.69L556.22,11.22L556.72,10.64L558.77,10.4L560.08,9.72L560.75,9.87L560.86,10.86L560.32,10.93L559.47,11.6L560.13,12.39L562.81,10.31L563.15,10.44L564.36,9.61L565.21,9.63L565.6,9.13L566.89,9.29L567.56,9.74L567.75,10.36L568.88,10.77L569.78,10.8L570.01,11.51L569.42,11.86L569.78,12.56L572.4,12.51L575.24,13.32L575.95,14.39ZM573.62,20.21L573.34,19.98L573.41,18.79L573.1,18.1L574.08,17.81L574.52,18.06L574.01,19.05L574.1,19.92Z" class="land" id="ES-CB" title="Cantabria"/>
    <path d="M542.03,13.36L541.4,15L541.91,16.22L541.77,17.42L539.79,16.71L538.31,17.91L537.1,17.84L536.47,18.18L536.72,18.8L536.4,20.39L535.24,20.42L533.7,20.79L533.12,19.49L532.27,18.84L531.05,19.31L529.67,20.7L527.63,20.83L526.95,23.61L525.96,23.57L525.76,23.17L523.87,24.24L523.01,24.03L522.32,24.44L520.79,24.25L520.19,23.84L519.68,24.16L519.29,25.52L518.04,25.25L516.87,26.27L515.68,26.52L514.79,26.09L513.22,25.99L511.8,25.17L510.87,25.69L509.83,27.67L509.75,28.33L507.8,28.47L507.37,27.89L506.65,27.91L504.94,26.51L504.7,25.21L503.12,25.23L501.73,24.76L501.48,25.85L500.29,26.51L499.27,25.54L498.3,25.56L498.06,26.61L497.01,26.61L495.37,26.03L494.61,25.11L492.96,27.61L492.25,29.49L490.67,29.76L489.84,30.28L488.29,30.15L487.45,29.83L485.22,30.15L484.52,31.01L482.65,30.22L482.2,29.69L482.34,28.68L481.2,27.52L480.49,27.58L479.09,26.29L478.97,27.46L478.22,26.49L478.99,25.98L478.96,25.25L479.67,24.36L480.35,24.6L482.5,22.9L482.58,22.08L482.23,21.35L481.07,21.34L479.73,22.55L479.26,22.45L478.64,21.4L479.01,20.68L478.46,20.08L477.57,19.66L476.5,18.52L476.31,17.77L476.46,16.68L475.76,16.67L474.77,15.59L474.59,13.71L473.61,13.61L473.57,12.64L473.93,12.02L474.87,12.31L475.49,12.16L475.76,11.28L476.68,10.57L477,9.33L477.43,8.69L477.51,7.49L478.21,7.78L480.29,7.01L482.62,7.29L483.66,7.61L483.93,7.19L485.29,7.58L486.21,7.52L487.77,7.06L488.62,7.72L491.27,7.87L492,7.35L492.79,7.75L493.6,7.5L494.7,7.82L497.5,6.67L499.09,7.37L499.66,7.17L500.82,7.68L502.1,7.31L503.35,6.7L504.9,6.81L505.96,5.83L505.93,5.35L507.2,4.94L507.43,4.08L509.46,5.12L509.25,5.57L510.09,6.66L511.33,7.11L511.72,8.07L513.47,7.7L515.94,7.96L519.23,7.74L519.5,8.48L521.93,8.34L522.66,8.92L523.97,10.53L525.71,10.35L527.39,10.5L527.65,10.78L529.17,11.08L531.32,10.96L532.81,11.64L533.65,11.52L534.02,11.89L535.53,12.12L536.31,12.59L539.08,13.24L540.24,13.16L540.8,13.39Z" class="land" id="ES-AS" title="Asturias"/>
    <path d="M610.55,61.82L610.81,62.34L611.88,62.5L612.58,62.31L613.46,63.4L614.64,63.73L614.97,63.28L616.58,63.87L616.98,64.62L618.88,65.2L619.42,64.75L621.58,65.08L622.52,64.05L622.95,62.65L623.77,61.21L624.38,60.68L624.27,59.56L623.22,59.57L622.85,58.42L622.06,57.79L622.2,55.84L621.65,55.12L621.61,54.35L622.22,52.61L622.03,52.06L622.91,50.7L623.72,50.04L623.68,49.24L623.23,48.69L623.52,47.4L624.16,46.54L624.76,46.32L625.26,45.4L624.87,43.94L625.47,42.77L626.38,43.27L627.06,43.03L627.03,42.22L628.18,41.23L628.36,39.56L631.24,39.6L631.26,38.06L631.84,37.67L633.07,37.62L633.59,37.34L633.94,36.53L635.55,35.69L636.19,34.82L635.99,32.61L636.93,31.87L637.01,30.67L637.89,29.99L639.37,30.06L639.24,30.88L642.48,33.14L642.63,34.11L644.55,34.29L644.92,33.33L646.63,34.43L647.44,34L647.84,34.3L649.13,32.95L650.69,32.94L652.4,34.34L653.41,34.77L654.01,34.54L655.16,36.57L655.24,37.04L656.24,37.18L656.38,37.93L657.91,38.28L658.65,37.68L659.51,37.82L659.95,37.25L661.36,37.22L662.49,36.46L663.79,37.14L664.63,37.2L664.96,38.1L665.53,38.68L666.21,38.34L666.32,37.59L667.19,37.03L668.07,37.3L668.82,38.07L670.42,37.8L671.26,38.04L671.53,37.65L673.12,37.9L673.53,37.77L674.96,38.06L675.85,39.21L676.23,40.58L677.69,40.88L677.23,42.91L676.52,43.8L676.81,44.64L675.91,45.71L676.26,46.98L676.89,47.71L677.14,48.75L676.78,49.54L677.64,49.73L677.05,50.53L677.61,50.94L677.13,51.71L676.9,53.34L676.33,54.41L675.81,56.9L676.03,57.92L675.11,60.68L674.72,61.29L674.82,62.22L674.08,62.45L673.54,63.49L672.88,63.65L672.51,64.46L673.42,64.79L673.28,66.11L673.63,66.56L672.39,67.16L672,68.31L671.23,68.28L670.44,69.01L670.11,70.15L668.28,70.47L667.48,71.97L666.42,73.17L666.38,73.82L667.2,74.84L667,75.91L668.34,76.13L669.02,75.82L669.1,77.07L669.46,77.63L668.22,79.64L666.92,79.73L667.12,80.88L666.96,81.86L666.23,82.9L667.26,83.73L667.6,84.32L666.93,85.18L667.93,86.96L667.31,88.79L666.23,88.85L665.77,90.87L664.33,92.02L663.63,91.94L663.17,92.88L663.17,93.5L664.04,94.89L664.77,95.51L664.91,96.52L665.35,97.63L664.39,99.56L664.21,100.46L664.46,101.34L665.12,102.49L664.03,104.03L662.85,104.88L662.36,105.46L661.77,105.95L660.77,105.68L659.91,106.08L659.12,106.83L658.35,105.6L656.37,105.66L654.8,104.82L654.27,103.71L652.93,103.76L652.19,104.82L651.83,106.07L651.9,106.9L650.41,107.5L648.8,107.37L648.25,109.21L649.67,109.89L650.49,109.84L650.38,111.31L650.52,111.89L650.27,112.88L650.89,113.41L651,114.17L649.27,114.97L649.46,115.99L650.62,117.18L650.77,117.78L650.14,118.03L649.15,119.28L648.33,119.95L647.98,120.58L648.13,121.34L646.38,122.29L644.86,122.44L643.89,121.99L643.65,123.48L643.31,124.17L643.33,124.97L642.95,125.79L642.32,125.95L641.85,126.73L641.77,127.71L640.95,128.48L639.52,128.88L638.41,128.81L638.3,129.8L637.78,130.53L636.55,130.96L636.49,132.75L637.56,134.18L636.7,134.51L635.72,135.32L634.63,134.65L634.84,133.89L634.52,132.96L634.74,132.24L633.09,131.07L632.21,130.84L631.66,131.09L630.88,130.9L628.67,131.19L628.07,129.82L628.92,129.63L630.17,128.96L630.48,128.51L630.21,127.81L628.51,126.4L626.84,126.51L626.02,126.27L625.79,125.39L624.25,123.4L624,124.43L624.16,125.17L623.26,125.85L620.71,125.41L621,123.61L620.09,124L619.19,123.39L618.37,123.82L617.01,122.27L616.58,122.01L614.57,119.77L614.35,119.37L612.95,118.04L611.72,116.3L612.27,115.82L613.39,114.29L614.49,113.76L614.25,112.17L614.48,110.8L615.97,110.68L616.9,111.27L618.24,110.12L617.79,109.51L618.43,108.01L618.5,107.07L618.07,106.47L617.87,105.32L618.38,104.61L618.35,102.77L617.57,102.16L616.35,100.54L616.66,99.13L616.58,98.56L614.49,96.58L612.82,94.82L612.45,94.1L611.31,93.18L609.93,92.67L609.43,91.89L608.43,91.75L607.89,90.72L607.46,90.59L606.41,91.08L605.17,91.37L604.47,90.52L602.8,90.1L602.33,86.78L602.06,86.51L602.43,84.29L603.41,83.74L603.63,81.89L604.01,81.2L605.68,81.82L605.85,83.3L607.76,82.47L607.8,80.65L607.1,79.8L607.16,78.41L607.46,77.77L606.74,76.49L607.41,75.69L608.55,75.93L609.25,74.73L609.82,74.58L610.23,73.77L611.57,73.6L611.68,72.61L612.05,72.43L612.08,71.27L611.07,69.78L610.36,69.28L611.07,68.38L611.26,67.16L610.68,66.42L610.21,64.95L610.27,63.22Z" class="land" id="ES-AR" title="Aragón"/>
    <path d="M479.91,189.61L480.62,189.78L481.83,190.52L483.4,190.56L483.06,192.75L484.01,192.75L484.3,193.33L486.07,193.1L486.81,193.34L487.8,193.21L488.85,194.63L488.81,195.61L489.43,195.42L491.72,195.96L491.86,195.18L493.15,194.42L494.3,194.71L494.82,196.19L496.05,197.07L497.31,197.29L497.66,197.68L498.58,197.58L499.15,198.24L500.83,196.86L501.35,196.89L502.94,196.43L503.33,196.64L505.18,196.26L505.41,195.03L506.16,194.13L505.61,193.22L506.01,192.39L506.87,192.01L507.02,191.17L507.96,190.62L508.95,190.64L509.41,190.27L510.02,190.43L510.52,189.98L511.82,190.61L511.63,191.43L510.46,192.23L510.64,193.49L511.3,193.71L512.25,193.13L513.07,191.94L514.4,192.03L515.12,191.46L515.59,190.6L515.67,189.83L516.13,189.56L516,187.77L515.54,187.13L515.23,185.96L514.77,185.61L515.08,184.2L514.49,183.72L514.8,182.36L516.15,181.19L516.77,181.33L518.06,179.88L518.93,179.32L520.01,177.24L521.45,177.44L522.01,176.32L523.12,175.44L525.19,174.17L524.89,173.03L526.43,172.89L526.92,173.17L528.33,172.44L528.89,172.54L529.46,173.59L531.31,174.02L532.5,173.85L532.87,174.04L533.05,176.13L534.35,176.86L535,176.81L536.49,177.53L537.07,177.59L537.29,178.28L538.15,178.38L539.2,179.2L539.77,180.23L540.65,180.26L540.88,180.74L542.04,181.19L543.6,183.23L544.03,183.21L546.96,184.5L548.3,185L548.06,183.93L548.41,183.27L549.39,183.34L550.86,183.83L554.08,183.99L555.09,184.31L557.38,184.32L558.86,184.14L559.54,183.53L559.72,182.78L560.82,182.44L561.9,182.81L562.15,182.47L562.98,182.91L564.97,183.48L565.82,183.03L565.94,181.69L567.16,182.01L567.3,182.99L569.29,183.25L571.21,181.94L571.27,180.83L573,180.7L573.79,181.37L576.28,181.6L577.6,181.96L579.21,180.72L580.78,182.8L581.07,181.58L581.86,180.97L583.35,181L583.71,181.4L584.48,180.77L585.38,180.41L586.57,179.59L586.94,178.94L587.77,179.54L589.25,180.12L590.13,179.68L591.19,179.54L591.94,180.17L592,181.28L591.76,182.4L592.27,183.08L594.15,183.35L593.95,184.23L594.26,184.94L594.13,186.48L595.26,187L595.41,187.68L595.26,188.77L594.94,189.27L595.13,190.29L593.51,192.15L593.17,192.85L592.38,193.64L593.65,194.12L594.27,194.6L595.21,194.84L595.65,195.24L597.04,195.57L597.87,195.5L598.92,196.24L599.31,197.4L600.06,198.31L601.74,199.41L602.16,199.97L603.45,199.61L604.04,200.34L604.72,200.15L606.03,200.64L606.44,200.26L607.22,200.59L606.71,201.44L606.35,203.7L606.7,205.18L606.4,205.46L606.29,207.01L607.08,208.22L607.16,208.71L608.19,210.39L609.01,211.51L610.57,214.04L613.4,214.49L616.19,216.69L615.58,217.23L615.09,217.22L614.45,218.04L614.13,218.84L612.84,220.2L612.41,220.99L611.86,221.3L611.11,223.3L610.87,224.89L610.55,225.33L610.45,226.44L609.8,227.57L609.72,228.27L609.14,229.09L609.19,230.43L608.34,230.7L606.51,232.55L606.61,233.87L605.95,234.15L605.01,234.97L605,235.89L603.89,236.36L603.47,237.31L601.85,237.75L601.46,237.5L600.31,235.81L599.09,234.53L598.39,234.08L597.14,233.85L595.51,234.81L594.32,233.98L593.7,234.39L592.11,234.63L591.17,235.96L590.67,237.5L589.88,238.39L588.6,238.91L586.71,238.99L585.61,238.22L584.51,238.42L583.48,237.13L582.41,236.71L581.5,237.16L580.35,236.88L579.06,236.92L577.94,236.74L577.13,236.93L574.62,236.64L573.05,237.16L572.19,237.15L571.59,237.84L569.95,238.51L568.55,238.46L567.36,237.57L566.61,237.9L566.01,237.62L565.42,236.96L564.01,236.88L563.49,237.42L562.23,237.46L561.54,237.16L559.46,236.64L558.2,237.07L557.26,237.07L556.32,237.55L554.67,236.98L553.44,236.83L552.51,237.61L548.86,238.06L547.76,237.92L546.5,237.99L545.06,237.65L544.12,238.2L543.55,239.42L542.8,240.22L542.01,241.59L541.45,242.17L540.21,242.41L539.49,243.05L538.79,244.55L537.81,244.68L537.44,245.03L536.11,245.28L532.89,244.54L531.18,244.79L529.36,246.08L528.62,246.03L527.29,246.43L525.53,247.48L525.02,247.48L523.74,248.99L523.15,250.84L522.62,251.2L521.92,252.83L521.4,253.35L520.81,255.73L519.42,254.98L518.73,255.03L518.04,255.87L518.29,257.05L518.1,257.86L518.45,258.48L517.58,259.13L517.02,259L514.73,260.25L513.88,260.36L512.97,259.17L511.87,258.59L511.3,258.83L510.24,258.46L509.5,257.9L509.07,258.24L508.3,257.41L507.77,256.53L506.98,255.66L505.94,254.85L505.27,254.77L504.22,255.1L502.87,254.92L502.24,254.04L501.1,251.67L500.14,251.28L499.01,248.83L498.42,248.44L497.8,246.86L497.4,246.39L496.41,244.12L497.37,244.11L498,243.23L498.08,242.65L497.68,242.03L496.98,242.24L496.12,241.03L493.89,240.7L493.56,239.72L492.7,238.16L492.42,237.16L492.97,236.91L494.61,235.57L493.56,234.79L492.53,232.2L491.96,231.22L490.23,229.3L488.43,227.95L484.22,225.29L481.59,224.08L479.9,222.81L478.86,223.02L476.85,222.02L474.33,222.06L470.7,222.31L469.56,222.49L468.63,223.24L467.94,223.13L467.61,222.56L467.49,221.51L466.99,220.41L467.26,219.91L466.73,218.72L466.65,217.51L466.76,216.15L466.25,215.4L466.36,214.14L466.03,213.59L466.14,212.94L465.65,212.67L465.38,211.84L464.95,211.82L464.63,210.83L465.3,209.63L465.65,208.52L466.4,207.76L466.63,206.18L467.24,204.31L467.97,204L468.42,203.44L469.8,202.38L470.9,200.37L470.88,199.73L471.55,198.78L471.69,197.51L471.46,196.97L472.93,196.31L473.94,196.49L474.94,196.14L474.89,195.45L475.59,195L476.56,195.79L477.95,195.67L478.35,194.52L478.56,192.91L478.86,192.74L479.26,191.5L478.98,190.92Z" class="land" id="ES-AN" title="Andalucía"/>
  </g>
</svg>