<?xml version="1.0" encoding="UTF-8"?>
<svg xmlns="http://www.w3.org/2000/svg" width="693.62" height="399.63" viewBox="133.19 57.19 693.62 399.63" style="background-color:#000000">
  <!-- Created using SVG Map Generator: dojo.amcharts.com/svg-map-generator -->
  <style>
    .land { fill: #ffffff; stroke: #000000; stroke-width: 0.65; }
  </style>
  <g id="polygons">
    <path d="M384.18,202.01L385.92,202.49L387.01,203.05L387.18,203.86L385.32,204.98L385.53,205.51L387.37,204.71L388.82,204.89L389.76,204.16L390.34,204.43L389.63,205.73L390.43,207.58L391.4,208.33L392.7,208.08L393.11,209.09L395.42,208.89L396.66,209.79L396.53,211.71L398.48,212.72L400.49,212.84L400.57,213.5L401.46,214.06L401.65,214.74L400.96,217.27L396.98,218.49L394.92,219.7L394.92,220.95L395.28,221.99L396.43,220.93L397.53,222.61L396.49,222.79L396.72,224.59L397.73,225.76L397.59,226.7L396.62,227.93L395.47,227.16L394.91,227.82L395.6,228.83L394.93,229.74L393.67,229.45L391.34,228.53L391.03,227.19L389.68,227.33L388.44,226.63L386.63,226.49L385.96,227.54L384.68,227.74L383.53,227.3L383.84,228.52L381.78,229.66L381.5,228.85L378.95,229.88L377.72,231.82L377.04,231.76L376.77,233.1L375.02,232.99L374.47,233.67L372.66,234.37L370.61,233.58L370.1,235.56L370.32,237.39L368.65,236.38L368.06,237.12L367.2,236.42L366.01,236.82L364.12,236.95L363.04,235.78L363.05,234.51L363.83,233.82L364.71,233.88L364.97,232.95L363.72,232.93L363.53,232.36L364.42,231.63L364.73,230.08L363.63,229.24L361.46,229.62L360.52,227.96L360.83,226.67L361.75,226.05L360.74,223.94L359.7,223.36L358.01,223.7L357.59,222.26L357.07,222.18L357.3,220.6L355.98,220.01L355.09,219.08L356.18,218.22L356.14,217.38L359.46,217.04L358.94,215.77L357.84,215.77L357.84,215.07L356.28,214.63L356.21,213.82L355.11,212.61L353.79,212.85L353.73,211.82L357.99,209.9L358.67,210.61L360.05,209.39L359.91,208.85L360.86,208.12L362.06,208.27L362.27,210.5L363.37,210.09L366.48,210.23L366.09,208.85L366.28,208.01L366.14,206.25L367.17,205.12L369.22,205.39L370.02,206.24L370.54,205.12L371.19,205.33L372.84,204.87L373.54,204.28L373.42,203.63L376.77,203.43L377.44,201.73L378.56,201.35L381.6,201.71L381.67,201.11L383.72,200.58L383.87,201.39Z" class="land" id="CZ-10" title="Praha"/>
    <path d="M379.12,148.21L380.86,150.29L381.3,148.26L381.84,147.54L382.71,147.5L383.84,148.65L384.12,149.33L385.56,149.7L385.76,148.57L387.3,148.1L388.23,147.46L388.82,148.2L388.88,149.22L388.45,150.2L388.99,151.03L389.04,152.13L391.08,153.06L392.24,153.3L392.42,152.16L394.06,152.12L396.51,151.4L397.74,151.65L399.15,151.48L400.12,152.1L400,150.68L401.12,149.81L402.04,149.83L402.96,149.16L403.7,146.01L406.46,146.62L408.56,146.66L409.8,147.45L409.84,146.28L410.64,146.1L410.82,144.62L411.33,144.07L412.16,144.92L413.18,143.75L414,143.51L414.18,142.17L414.73,140.95L415.57,140.61L416.08,139.78L415.91,138.23L416.59,137.62L418.37,136.88L420.07,135.22L421.88,134.85L420.92,133.79L421.06,132.77L422,132.08L423.01,131.93L422.24,130.38L423.92,130.07L424.71,130.76L424.56,131.93L425.86,131.93L426.75,132.27L427.43,134.06L428.49,134.22L429.12,132.72L429.76,132.61L430.92,133.22L431.78,133.04L432.16,132.38L433.48,135.2L434.23,135.46L434.81,136.56L435.6,137.22L435.95,138.61L437.77,137.72L438.34,137.84L439.24,139.33L441.25,140.39L441.24,141.9L441.78,143.82L443.12,143.9L443.53,144.44L444.69,144.09L446.36,145.45L444.6,147.66L443.86,147.48L443.21,148.63L444.17,149.89L445.21,150.68L445.33,151.7L444.91,152.29L446.38,153.17L445.61,153.68L445.68,155.15L444.98,156.94L445.35,157.64L446.47,157.44L447.34,159.29L446.99,160.01L448.02,160.81L447.64,163.71L447.07,164.37L445.57,164.48L445.58,165.83L446.1,167L444.84,167.33L443.59,166.71L442.75,168.32L442.83,169.23L443.73,170.49L444.6,171.02L444.12,172.25L444.98,173.78L447.25,174.81L448.66,173.63L449.94,174.64L450.14,176.47L451.46,176.15L451.94,177.09L453.78,178.27L452.58,178.94L452.27,179.86L452.96,180.15L452.71,181.71L455.89,183.16L456.26,182.65L457.63,182.47L457.89,182.01L460.28,182.68L460.65,182.39L462.52,183.46L462.84,183.92L463.92,183.3L464.19,182.3L464.9,182.44L465.77,181.76L467.62,181.31L468.24,182.42L468.94,182.63L470.15,183.99L469.86,185.83L469.98,187.1L470.76,188.2L469.59,188.95L469.82,191.61L469.49,192.56L471.46,194.13L471.47,195.07L472.12,196.2L471.98,197.66L471.29,198.15L471.25,199.82L470.09,200.58L468.85,202.03L467.9,202.71L469.8,203.46L469.71,203.97L468.11,205.17L468.73,206.32L469.95,205.6L470.55,205.63L471.36,206.66L472.74,207.3L472.97,206.62L474.8,208.08L476.03,208.41L477,209.03L476.02,210.42L476.67,211.9L474.95,212.95L473.87,211.61L473.11,212.01L472.35,213.41L472.72,213.79L474.01,213.8L474.45,214.44L472.74,214.8L472.81,215.66L473.64,216.72L473.77,218.68L472.64,218.64L471.8,219.25L470.42,219.11L470.34,220.17L472.45,220.65L471.83,221.44L470.27,221.08L469.15,221.87L469.2,222.55L469.99,224.13L472.49,225.75L474.22,225.3L475.15,227.31L476.11,227.17L477.22,227.74L477.91,227.08L478.48,227.8L479.98,228.36L479.43,229.58L478.52,230.42L481.7,233.03L483.04,233.85L483.49,233.36L484.46,234.45L485.72,234.61L485.85,235.92L485.57,236.71L484.21,237.8L485,239.24L486.21,239.76L485.98,240.77L484.15,243.77L483.93,244.61L482.32,244.69L483.08,247.06L482.23,250.56L481.51,252.37L481.09,251.79L480.28,251.99L479.81,253.24L478.9,253.48L477,253L475.67,254.33L475.5,255.23L474.44,255.13L473.91,257.06L474.93,257.44L475.57,258.48L476.04,260.35L474.75,261.38L473.06,261.22L472.16,260.87L471.43,261.33L470.56,260.26L469.33,261.93L469.48,262.53L468.89,263.94L468.18,263.53L467.02,265.08L466.1,264.24L465.03,264.46L463.7,265.55L462.3,265.47L460.58,265.75L460.53,266.62L459.68,267.23L457.2,267.39L457.62,266.07L456.91,265.99L455.9,267L454.87,267.11L454.2,267.69L453.62,269.99L453.74,271.53L452.78,271.99L451.84,273.29L449.99,275.35L449.79,277.85L450.22,279.03L449.99,279.68L450.57,280.97L451.72,280.24L452.74,281.78L453.87,281.48L455.4,281.5L455.75,283.12L456.98,284.77L456.54,285.93L457.06,286.86L456.49,287.85L455.71,288.07L455.07,289.21L453.15,289.71L452.01,289.53L451.36,288.73L450.25,288.87L450.35,289.95L449.28,290.12L449.14,291.21L448.57,291.35L448.12,292.51L447.18,292.18L446.52,291.38L444.77,291.52L442.85,290.5L442.2,291.58L441.32,291.9L440.06,291.44L438.71,292.24L437.28,292.6L436.3,291.55L435.75,292.23L433.48,292.12L431.92,290.81L430.73,290.56L429.03,291.05L428.5,292.34L429.67,292.95L430.22,294.8L428.75,295.13L425.52,294.92L424.98,296.46L425.74,297.5L424.66,298.63L424.79,299.46L424.25,300.1L422.47,300.6L421.77,300.37L420.87,299.02L421.03,298.52L420.25,297.72L419.79,296.52L419.21,295.94L418.86,294.56L419.16,293.72L417.76,293.84L417,293.48L416.2,295.11L415.18,294.19L414.13,293.64L413.42,292.84L412.69,291.27L411.7,291.43L410.02,290.81L409.22,290.81L407.98,288.93L407.43,289.84L405.49,290.83L405.87,292.4L404.81,292.32L403.77,292.92L404.46,293.53L404.08,295.08L403.52,295.13L403.41,296.85L403.71,297.87L404.92,299.11L404.8,299.71L403.59,300.04L402.18,300.96L400.6,300.57L400.22,301.35L398.37,302.9L396.77,303.39L396.57,304.93L395.99,306.7L394.98,306.48L394.47,304.28L393.22,304.39L392,303.81L390.41,304.41L389.2,304.47L389.15,303.19L389.96,302.14L390.07,300.77L388.24,302.07L386.98,302.45L384.28,301.57L383.68,302.11L382.36,301.89L381.72,300.43L380.25,301.04L378.54,300.21L378.26,301.54L376.32,301.96L375.09,299.68L373.7,300.02L371.65,298.99L370.96,300.96L369.96,300.57L369.01,300.85L368.61,301.57L365.26,302.94L364.81,302.67L363.46,303.09L363.15,301.13L361.09,299.6L360.4,300.4L359.69,298.95L359.71,298.05L357.6,297.26L356.52,297.87L355.43,297.68L354.38,298.26L353.58,297.14L352.58,298.17L352.95,299.68L351.8,300.82L351.27,302.37L350.73,301.67L349.89,301.49L345.19,302.42L344.3,301.98L343.5,302.07L342.29,301.37L342.41,302.45L341.38,302.89L337.32,302.84L336.59,302L336.89,298.81L335.95,297.7L334.37,298.2L333.94,297.95L332.35,299.75L331.04,299.33L330.94,299.97L331.44,301.2L330.87,301.65L329.74,304.44L329.3,303.53L328.16,303.58L327.62,305.51L325.38,305.15L324.9,304.53L323.53,305.47L323.61,306.65L321.6,307.02L320.41,306.43L319.73,305.27L317.85,305.33L317.86,303.72L316.23,303.42L314.99,305.16L313.04,305.6L312.91,304.46L312.32,303.61L311.09,303.5L310.43,304.78L309.32,304.44L307.86,306.04L306.57,305.69L306.13,305.19L306.78,302.32L306.61,301.54L305.73,301.17L305.94,300.19L303.94,299.27L303.96,298.01L303.54,296.65L303.89,295.35L303.48,293.9L304.67,292.16L304.2,290.23L304.89,289.4L304.9,288.44L302.4,288.29L301.54,287.63L300.23,287.14L300.87,285.98L300.12,285.21L301,284.39L300.19,282.68L298.12,281.91L298.4,281.26L300.78,279.88L301.73,279.93L302.24,279.27L299.47,278.2L298.2,278.48L297.6,279.72L296.97,279.41L296.61,276.53L297.1,275.76L298.21,275.18L299.03,273.26L299.85,272.66L303.17,270.96L303.59,271.58L305.66,273.09L306.89,271.74L306.96,270.56L308.03,269.41L309.76,268.59L311.53,267.39L310.92,266.48L309.75,265.72L307.85,266.37L307.89,265.57L308.99,265.22L309.53,263.31L308.59,260.11L310.02,259.47L310.3,256.93L309.48,256.58L309.4,255.34L310.23,254.44L309.93,253.15L310.76,251.95L310.77,250.81L310.4,249.53L313.06,249.5L312.37,247.59L312.3,244.26L311.43,242.78L311.72,240.85L309.54,239.66L307.87,237.93L307.42,238.19L305.72,237.59L304.44,237.66L304.55,235.97L304.26,234.16L303.46,234.4L302.13,233.82L299.49,234.31L299.4,233.34L298.56,232.08L297.36,232.23L296.24,230.51L296.13,229.15L295.36,229.05L294.86,228.33L292.32,228.64L292.41,229.34L291.09,229.89L288.29,229.85L286.15,229.5L285.52,228.34L284.78,227.99L284.46,227.16L282.49,226.19L281.09,226.41L280.55,225.29L279.32,225.27L279.31,224.37L279.96,223.77L281.39,223.45L280.58,222.04L279.16,222.31L277.78,223.59L276.87,223.01L277.03,221.93L275.55,222.34L273.66,222.07L272.45,224.24L271.39,224.1L271.28,223.32L270.37,223.21L269.12,223.53L268.96,221.82L269.91,220.9L270.33,218.91L272.02,218.76L271.95,217.81L271.41,216.64L270.83,216.5L270.56,215.4L269.91,214.44L270.03,213.53L271.58,212.09L271.49,211.47L272.71,211.3L274.78,212.04L276.04,210.73L276.01,207.84L276.78,208.55L278.11,208.52L278.07,207.27L277.65,206.33L278.4,204.92L277.9,203.81L278.52,202.57L279.55,202.43L280.76,201.31L280.81,200.44L282.65,199.49L282.72,198.81L285.08,197.99L286.15,199.3L286.67,198.85L288.13,198.77L289.28,197.85L290.76,197.23L291.44,196.52L291.07,195.28L292.39,195.47L293.19,194.24L294.25,193.91L296.41,191.62L296.67,193.27L297.55,192.91L299.12,193.61L301.28,192.88L304.5,193.15L304.84,191.48L306.63,191.86L309.22,188.44L309.58,187.47L311.31,187.01L312.34,187.36L313.32,189.09L313.8,190.49L316.23,190.11L316.25,187.45L317.5,185.83L319.05,185.66L321.06,184.94L321.73,185.39L322.74,184.57L323.81,184.19L324.07,183.09L325.46,182.41L325.54,180.85L329.1,180.51L328.8,179.94L329.06,178.36L328.27,177.52L328.14,175.7L329.51,174.97L329.66,174.33L331.86,173.27L332.62,174.4L333.98,173.87L335.41,174.6L336.69,174.59L337.6,175.48L341.73,175.48L341.84,175.88L344.78,175.88L348.23,175.74L348.58,174.95L348.48,173.89L349.98,174.27L349.7,174.78L351.33,175.46L351.82,174.67L353.21,175.45L354.26,175.56L355.15,176.09L356.66,174.65L357.23,173.04L357.85,172.39L358.63,172.95L359.9,173.23L361.03,172.25L362.58,172.39L363.31,171.86L364.85,172.34L365.62,173.23L367.1,172.87L367.82,171.42L367.24,170.22L367.31,168.74L368.31,168.86L368.16,166.73L368.42,165.63L367.51,165.34L367.53,164.48L366.91,163.73L367.7,162.96L367.34,162.28L367.05,160.17L368.4,159.4L370.04,161.01L372.12,161.7L372.89,160.76L371.61,160.12L373.21,158.71L372.91,156.61L375.43,157.21L376,156.65L376.81,157.28L377.95,157.21L378.11,155.39L377.85,153.09L376.63,149.57L377.87,149.35L378.03,147.59ZM384.18,202.01L383.87,201.39L383.72,200.58L381.67,201.11L381.6,201.71L378.56,201.35L377.44,201.73L376.77,203.43L373.42,203.63L373.54,204.28L372.84,204.87L371.19,205.33L370.54,205.12L370.02,206.24L369.22,205.39L367.17,205.12L366.14,206.25L366.28,208.01L366.09,208.85L366.48,210.23L363.37,210.09L362.27,210.5L362.06,208.27L360.86,208.12L359.91,208.85L360.05,209.39L358.67,210.61L357.99,209.9L353.73,211.82L353.79,212.85L355.11,212.61L356.21,213.82L356.28,214.63L357.84,215.07L357.84,215.77L358.94,215.77L359.46,217.04L356.14,217.38L356.18,218.22L355.09,219.08L355.98,220.01L357.3,220.6L357.07,222.18L357.59,222.26L358.01,223.7L359.7,223.36L360.74,223.94L361.75,226.05L360.83,226.67L360.52,227.96L361.46,229.62L363.63,229.24L364.73,230.08L364.42,231.63L363.53,232.36L363.72,232.93L364.97,232.95L364.71,233.88L363.83,233.82L363.05,234.51L363.04,235.78L364.12,236.95L366.01,236.82L367.2,236.42L368.06,237.12L368.65,236.38L370.32,237.39L370.1,235.56L370.61,233.58L372.66,234.37L374.47,233.67L375.02,232.99L376.77,233.1L377.04,231.76L377.72,231.82L378.95,229.88L381.5,228.85L381.78,229.66L383.84,228.52L383.53,227.3L384.68,227.74L385.96,227.54L386.63,226.49L388.44,226.63L389.68,227.33L391.03,227.19L391.34,228.53L393.67,229.45L394.93,229.74L395.6,228.83L394.91,227.82L395.47,227.16L396.62,227.93L397.59,226.7L397.73,225.76L396.72,224.59L396.49,222.79L397.53,222.61L396.43,220.93L395.28,221.99L394.92,220.95L394.92,219.7L396.98,218.49L400.96,217.27L401.65,214.74L401.46,214.06L400.57,213.5L400.49,212.84L398.48,212.72L396.53,211.71L396.66,209.79L395.42,208.89L393.11,209.09L392.7,208.08L391.4,208.33L390.43,207.58L389.63,205.73L390.34,204.43L389.76,204.16L388.82,204.89L387.37,204.71L385.53,205.51L385.32,204.98L387.18,203.86L387.01,203.05L385.92,202.49Z" class="land" id="CZ-20" title="Středočeský"/>
    <path d="M306.13,305.19L306.57,305.69L307.86,306.04L309.32,304.44L310.43,304.78L311.09,303.5L312.32,303.61L312.91,304.46L313.04,305.6L314.99,305.16L316.23,303.42L317.86,303.72L317.85,305.33L319.73,305.27L320.41,306.43L321.6,307.02L323.61,306.65L323.53,305.47L324.9,304.53L325.38,305.15L327.62,305.51L328.16,303.58L329.3,303.53L329.74,304.44L330.87,301.65L331.44,301.2L330.94,299.97L331.04,299.33L332.35,299.75L333.94,297.95L334.37,298.2L335.95,297.7L336.89,298.81L336.59,302L337.32,302.84L341.38,302.89L342.41,302.45L342.29,301.37L343.5,302.07L344.3,301.98L345.19,302.42L349.89,301.49L350.73,301.67L351.27,302.37L351.8,300.82L352.95,299.68L352.58,298.17L353.58,297.14L354.38,298.26L355.43,297.68L356.52,297.87L357.6,297.26L359.71,298.05L359.69,298.95L360.4,300.4L361.09,299.6L363.15,301.13L363.46,303.09L364.81,302.67L365.26,302.94L368.61,301.57L369.01,300.85L369.96,300.57L370.96,300.96L371.65,298.99L373.7,300.02L375.09,299.68L376.32,301.96L378.26,301.54L378.54,300.21L380.25,301.04L381.72,300.43L382.36,301.89L383.68,302.11L384.28,301.57L386.98,302.45L388.24,302.07L390.07,300.77L389.96,302.14L389.15,303.19L389.2,304.47L390.41,304.41L392,303.81L393.22,304.39L394.47,304.28L394.98,306.48L395.99,306.7L396.57,304.93L396.77,303.39L398.37,302.9L400.22,301.35L400.6,300.57L402.18,300.96L403.59,300.04L404.8,299.71L404.92,299.11L403.71,297.87L403.41,296.85L403.52,295.13L404.08,295.08L404.46,293.53L403.77,292.92L404.81,292.32L405.87,292.4L405.49,290.83L407.43,289.84L407.98,288.93L409.22,290.81L410.02,290.81L411.7,291.43L412.69,291.27L413.42,292.84L414.13,293.64L415.18,294.19L416.2,295.11L417,293.48L417.76,293.84L419.16,293.72L418.86,294.56L419.21,295.94L419.79,296.52L420.25,297.72L421.03,298.52L420.87,299.02L421.77,300.37L422.47,300.6L424.25,300.1L424.79,299.46L424.53,300.88L424.96,301.37L425.82,303.5L424.64,304.03L424.22,303.69L422.54,303.72L421.67,304.6L421.64,305.29L422.77,305.57L424.03,307.35L424.32,309.23L423.63,311.96L424.42,312.43L423.89,314.88L423.03,315.74L422.72,316.67L422.74,318.17L421.54,318.57L421.74,319.34L422.94,318.92L421.64,321.34L422.11,322.2L421.58,323.67L420.83,323.84L420.54,327.06L421.49,327.31L422.68,328.14L423.26,328.01L424.05,329.36L424.15,330.28L421.92,333.45L423.08,334.42L424.48,335.99L424.03,336.93L425.47,337.49L426.63,338.28L426.53,339.22L427.78,339.7L429.32,341.45L429.54,342.5L430.82,342.76L431.85,340.98L434.72,339.16L435.96,340.13L436.21,341.17L437.58,342.54L440.36,343.74L440.37,342.96L442.29,343.38L442.12,344.62L441.62,344.85L441.9,346.58L440.99,347.06L441.74,347.84L442.89,346.86L443.89,346.7L445,347.47L445.92,350.43L447.43,351.39L448.53,351.66L449.54,350.86L451.67,348.67L452.53,350.11L453.69,349.8L454.4,350.32L455.81,350.61L457.72,351.38L457.58,352.51L459.11,351.83L459.98,352.34L460.31,351.55L461.79,351.64L462.61,352.09L463.35,351.38L465.55,351.3L466.66,351.75L466.57,352.76L467.26,355.75L466.5,357.45L466.69,359.36L467.55,361.51L468.79,362.25L469.55,361.83L470.92,364.37L472.93,364.85L474.2,365.64L474.8,366.96L475.37,365.27L476.55,364.63L478.01,366.39L479.23,366.75L479.4,366.2L481.61,366.76L482.8,366.78L483.62,365.19L484.24,364.93L486.13,365.84L486.3,364.37L486.98,364.23L489.24,365.69L489.51,366.95L488.54,367.09L488.64,367.86L490.09,369.2L490.64,368.52L491.53,369.15L490.97,369.88L492.88,371.73L492.15,372.6L492.4,373.25L491.83,374.09L489.73,374.23L487.93,373.35L487.74,374.14L488.23,374.9L488.03,375.8L486.76,375.86L486.92,377.21L487.65,377.52L487.44,378.58L485.69,379.87L485.43,381.43L484.33,382.69L483.44,382.53L483.32,383.39L481.65,384.67L481.28,385.64L481.49,386.38L482.83,386.3L483.39,385.5L484.97,386.15L484.97,387.91L484.73,388.55L485.78,389.25L488.4,389.54L489.8,390.44L490.65,390.52L490.35,392.13L491.28,393.2L490.57,394.5L488.87,395.86L488.54,396.98L487.91,396.93L486.68,399.48L484.03,398.69L483.25,397.66L482.66,395.12L481.01,394.03L480.23,393.82L479.33,392.72L478.07,393.74L477.61,393.14L474.95,392.78L473.61,391.96L472.66,390.87L471.45,390.39L471.21,389.5L469,388.08L467.1,387.62L465.49,387.62L464.4,388.94L463.47,388.26L462.88,388.58L461.3,387.7L461.1,386.4L459.89,386.16L459.7,387.19L460.3,388.22L459.35,390.39L458.98,391.83L458.3,392.44L456.15,391.51L455.84,391.83L454.54,391.42L453.68,391.68L451.98,392.69L450.97,394.05L449.69,393.41L448.95,394.1L448.03,394.16L447.54,393.29L448.23,391.82L448.91,391.21L448.48,389.91L447.88,389.57L448.01,388.67L447.62,387.64L447.56,386.3L446.09,385.68L444.04,385.67L442.61,385.45L442.11,386.21L440.82,385.67L438.54,385.34L438.25,382.92L437.61,382.78L435.85,383.51L433.78,382.1L432.78,383.11L430.75,383.81L431.63,384.57L431.09,386.86L430.17,387.25L429.45,388.33L429.24,389.99L429.29,392.41L429.66,393.96L430.18,394.42L430.04,395.71L429.49,396.51L430.72,398.43L430.83,400.06L429.91,402.25L430.03,404.62L428.8,404.68L428.88,407.91L429.37,407.97L430.07,409.63L428.81,409.69L428.43,410.59L428.49,412.58L427.49,413.77L427.27,414.97L427.52,415.58L426.91,416.52L427.06,417.98L428.54,418.54L429.64,419.44L429.59,420.53L427.14,422.65L426.38,421.9L425.77,422.17L424.73,421.36L423.13,420.9L422.11,421.27L421.06,420.44L420.26,420.79L420.03,419.73L419.51,419.22L418.27,419.11L417.78,419.67L416.51,419.68L415.64,418.68L414.41,419.19L413.94,418.74L412.27,419.44L411.97,420.56L412.54,421.53L411.41,424.31L412.14,426.41L410.66,427.1L409.71,428.95L408.59,429.86L406.98,430.17L406.75,431.14L406.07,431.11L404.75,431.88L403.82,433.84L403.81,434.96L403.07,436.56L402.39,439.24L403.03,439.58L403.31,441.43L402.59,444.38L403.27,446.85L402.34,447.51L401.79,448.37L401.91,449.09L401.27,449.75L400.61,449.32L398.21,449.88L397.37,449.61L396.9,447.57L396.4,446.26L395.52,445.46L394.15,446.35L393.42,446.03L393.01,444.09L392.4,442.78L391.47,442.69L390.05,444.11L388.94,444.48L387.4,445.68L386.23,446.02L386,445.15L384.85,444.65L383.57,444.58L382.53,444.02L381.06,444.42L380.28,443.55L380.04,441.98L378.79,441.31L377.55,439.91L376.68,440.24L375.13,440.35L375.18,441.12L375.95,442.03L376.27,443.22L375.48,443.97L375.52,445.05L374.89,447.03L373.71,448.8L373.13,448.83L372.03,448.05L371.49,448.32L369.31,448.08L369.36,449.34L370.07,450.4L368.95,451.66L367.51,451.67L367.24,450.78L366.32,450.94L365.69,452.47L364.64,454.04L363.29,454.16L362.94,452.58L361.47,452.53L359.88,451.87L358.5,451.04L357.58,449.91L355.66,449.89L354.55,450.51L353.33,449.44L348.6,448.03L346.8,448.45L345.6,447.74L344.28,447.78L343.19,447.41L341.74,448.68L340.55,448.57L339.68,448.05L339.75,447.05L337.31,447.02L336.93,445.98L335.46,446.34L335.09,445.45L334.19,445.02L334.82,442.98L332.32,442.29L331.74,441.38L331.07,441.09L332.33,439.91L332.47,438.86L333.42,438.52L335.33,438.87L335.78,437.83L336.01,435.59L333.92,435.32L332.45,434.16L332.52,433.3L331.6,432.91L331.78,432.21L330.27,430.32L328.85,430.02L327.86,430.11L326.72,429.57L325.5,429.54L325.17,428.44L323.98,428.29L321.78,425.36L320.23,423.94L319.34,422.86L318.69,422.63L317.13,421.23L314.09,420.45L313.02,420.76L310.88,420.18L310.15,418.99L310.54,418.54L311.07,416.55L309.16,413.91L309.46,413.31L308.4,412.3L307.92,411.28L306.81,411.54L305.92,410.77L305.05,407.8L304.5,407.17L304.51,406.01L303.3,403.95L303.3,402.93L302.69,402.78L301.05,404.22L299.55,403.74L298.31,404.17L296.57,403.86L296.19,402.1L294.89,401.7L293.53,398.18L293.11,396.76L291.58,394.78L292.39,393.48L291.46,393.1L289.51,394.45L288.42,392.56L288.48,391.2L287.29,389.88L286.21,390.5L285.56,389.85L284.28,390.29L284.26,388.58L282.84,387.5L283.2,386.38L283.06,385.62L283.74,384.46L283.61,382.29L284.93,380.3L285.06,379.28L286.43,377.45L288.08,378.35L288.68,377.43L289.71,376.61L289.86,374.36L289.22,373.16L288.66,371.03L287.7,370.12L287.26,368.89L288.91,368.3L288.64,366.47L288.18,365.56L289.23,363.65L288.11,362.53L288.97,362.24L290.13,362.67L291.1,363.42L292.66,363.96L293.91,362.63L294.9,361.9L295.77,360.5L298.7,359.03L298.53,356.54L299.31,355.33L300.86,355.38L301.4,354.86L300.91,353.9L300.93,352.89L299.2,351.94L298.3,350.29L298.59,349.12L299.9,348.29L300.77,347.03L301.44,346.64L302.36,345.18L300.16,345.13L299.66,343.48L299.75,342.21L300.84,341.86L302.07,342.11L302.55,341.37L303.01,339.78L301.93,339.64L301.46,338.78L302.89,337.29L303.21,335.94L304.36,335.73L305.04,334.73L306.52,334.96L306.74,334.03L306.36,333.29L306.47,332.09L307.23,330.84L307.48,329.86L308.65,327.7L306.71,326.17L306.03,324.01L305.38,322.72L306.07,321.8L305.74,321.19L306.33,319.12L307.78,317.4L306.05,314.79L306.36,313.77L305.88,310.49L304.42,309.45L304.27,308.45L305.25,307.84L305.23,307.09L304.54,306.63Z" class="land" id="CZ-31" title="Jihočeský"/>
    <path d="M258.92,212.91L260.94,212.64L261.46,213.12L261.26,214.67L262.26,214.82L263.36,212.85L264.54,212.64L264.63,214.12L265.93,214.34L265.71,215.93L267.04,216.23L267.87,215.64L269.44,215.21L269.91,214.44L270.56,215.4L270.83,216.5L271.41,216.64L271.95,217.81L272.02,218.76L270.33,218.91L269.91,220.9L268.96,221.82L269.12,223.53L270.37,223.21L271.28,223.32L271.39,224.1L272.45,224.24L273.66,222.07L275.55,222.34L277.03,221.93L276.87,223.01L277.78,223.59L279.16,222.31L280.58,222.04L281.39,223.45L279.96,223.77L279.31,224.37L279.32,225.27L280.55,225.29L281.09,226.41L282.49,226.19L284.46,227.16L284.78,227.99L285.52,228.34L286.15,229.5L288.29,229.85L291.09,229.89L292.41,229.34L292.32,228.64L294.86,228.33L295.36,229.05L296.13,229.15L296.24,230.51L297.36,232.23L298.56,232.08L299.4,233.34L299.49,234.31L302.13,233.82L303.46,234.4L304.26,234.16L304.55,235.97L304.44,237.66L305.72,237.59L307.42,238.19L307.87,237.93L309.54,239.66L311.72,240.85L311.43,242.78L312.3,244.26L312.37,247.59L313.06,249.5L310.4,249.53L310.77,250.81L310.76,251.95L309.93,253.15L310.23,254.44L309.4,255.34L309.48,256.58L310.3,256.93L310.02,259.47L308.59,260.11L309.53,263.31L308.99,265.22L307.89,265.57L307.85,266.37L309.75,265.72L310.92,266.48L311.53,267.39L309.76,268.59L308.03,269.41L306.96,270.56L306.89,271.74L305.66,273.09L303.59,271.58L303.17,270.96L299.85,272.66L299.03,273.26L298.21,275.18L297.1,275.76L296.61,276.53L296.97,279.41L297.6,279.72L298.2,278.48L299.47,278.2L302.24,279.27L301.73,279.93L300.78,279.88L298.4,281.26L298.12,281.91L300.19,282.68L301,284.39L300.12,285.21L300.87,285.98L300.23,287.14L301.54,287.63L302.4,288.29L304.9,288.44L304.89,289.4L304.2,290.23L304.67,292.16L303.48,293.9L303.89,295.35L303.54,296.65L303.96,298.01L303.94,299.27L305.94,300.19L305.73,301.17L306.61,301.54L306.78,302.32L306.13,305.19L304.54,306.63L305.23,307.09L305.25,307.84L304.27,308.45L304.42,309.45L305.88,310.49L306.36,313.77L306.05,314.79L307.78,317.4L306.33,319.12L305.74,321.19L306.07,321.8L305.38,322.72L306.03,324.01L306.71,326.17L308.65,327.7L307.48,329.86L307.23,330.84L306.47,332.09L306.36,333.29L306.74,334.03L306.52,334.96L305.04,334.73L304.36,335.73L303.21,335.94L302.89,337.29L301.46,338.78L301.93,339.64L303.01,339.78L302.55,341.37L302.07,342.11L300.84,341.86L299.75,342.21L299.66,343.48L300.16,345.13L302.36,345.18L301.44,346.64L300.77,347.03L299.9,348.29L298.59,349.12L298.3,350.29L299.2,351.94L300.93,352.89L300.91,353.9L301.4,354.86L300.86,355.38L299.31,355.33L298.53,356.54L298.7,359.03L295.77,360.5L294.9,361.9L293.91,362.63L292.66,363.96L291.1,363.42L290.13,362.67L288.97,362.24L288.11,362.53L289.23,363.65L288.18,365.56L288.64,366.47L288.91,368.3L287.26,368.89L287.7,370.12L288.66,371.03L289.22,373.16L289.86,374.36L289.71,376.61L288.68,377.43L288.08,378.35L286.43,377.45L285.06,379.28L284.93,380.3L283.61,382.29L283.74,384.46L283.06,385.62L283.2,386.38L282.84,387.5L284.26,388.58L284.28,390.29L283.61,390.29L282.86,389.39L281.72,389.46L280.69,390.1L279.91,390.05L279.69,391.46L279.91,394.17L278.53,394.33L277.74,393.68L277.37,392.79L275.8,392.28L274.91,391.12L273.01,390.35L271.44,388.91L269.19,387.23L269.16,386.18L269.87,384.32L269.07,383.29L269.43,381.77L268.77,379.39L268.16,378.83L268.57,377.42L267.33,376.41L266.47,376.24L266,374.92L264.66,373.81L263.48,372.4L262.45,370.69L259.99,369.01L257.65,366.85L256.58,366.56L253.8,367.13L252.4,367.62L249.12,366.3L246.94,364.51L245.62,362.83L246.21,360.01L245.71,358.46L244.64,358.13L243.34,357L242.71,355.95L241.51,354.8L240.29,354.35L239.47,353.54L239.85,351.36L237.6,350.18L237.1,349.55L237.35,348.59L237.09,347.67L236.26,346.81L235.4,346.87L233.98,345.55L234.13,344.8L233.52,344.16L231.64,344.12L230.87,342.03L231.34,340.48L231.16,337.94L228.86,337.66L228.48,336.54L227.05,335.27L225.37,333.28L224.02,332.87L223.14,331.92L221.84,332.03L220.97,331.61L220.08,331.86L218.5,330.97L216.15,330.75L216.17,331.82L216.94,333.87L215.99,333.9L214.01,332.57L213.32,332.64L212.78,331.61L212.15,332.11L209.48,332.23L207.95,332.07L205.97,331.28L205.74,329.97L206.05,329.28L205.46,328.58L204.65,328.36L203.64,326.81L203.92,325.44L203.54,323.76L201.04,321.39L199.31,320.78L198.57,319.09L195.52,318.82L193.37,317.56L193.17,315.62L193.32,314.6L192.45,312.32L191.87,312.11L190.96,310.88L191.97,309.67L192.11,308.22L191.56,307.28L192.06,305.33L192.03,303.59L191.23,302.2L190.46,303.09L187.78,302.23L186.5,301.34L186.94,300.71L185.77,299.43L184.94,298.08L184.63,296.51L185.18,293.97L183.85,292.07L183.84,290.41L183.25,289.97L183.38,288.46L182.07,288.32L180.28,288.85L179.72,286.24L180.27,285.48L179.28,284.83L179.85,283.48L179.62,282.22L180.33,281.15L179.72,279.65L179.58,278.06L177.9,278.23L175.8,277.81L175.58,276.77L173.09,275.67L171.47,275.37L170.7,273.76L170.18,271.94L169.65,271.17L168.65,270.79L167.58,269.23L167.87,268.37L167.33,267.34L167.4,266.37L168.39,265.71L173.81,262.57L174.6,262.3L174.73,261.52L173.92,260.97L174.29,259.69L173.83,258.7L174.65,257.81L174.95,256.27L174.84,254.55L175.96,253.65L177.21,254.17L177.16,251.28L178.37,251.05L179.25,249.39L179.56,247.37L180.42,246.41L181.47,245.76L182.51,244.31L182.61,243.55L184.06,244.06L185.68,243.95L187.28,244.86L188.66,244.55L188.6,243.47L189.71,242.38L192.27,241.83L193.38,242.08L194.08,242.7L194.64,244.96L195.14,245.86L195.88,245.59L195.75,243.99L194.98,243.05L197.36,242.44L199,242.56L198.76,241.28L200.77,240.82L202.3,239.32L202.8,239.71L203.96,239.41L205.16,239.87L207.23,238.02L207.89,238.65L208.89,238.21L209.42,239.06L212.11,239.43L212.98,239.9L213.22,240.69L214.83,240.17L215.78,240.53L216,239.76L216.89,239.05L218.59,239.27L218.75,239.93L220.59,241.2L221.33,240.26L222.31,239.76L224.77,236.98L224.94,236.08L224.17,232.79L225.63,232.25L228.24,232.03L228.26,230.48L229.54,230.05L230.01,230.75L230.99,229.37L233.15,228.25L233.84,226.98L235.28,227.03L235.28,225.67L236.81,225.56L236.63,224.45L238.15,223.12L238.64,224.34L240.37,225.03L241.13,224.45L242.75,224.86L243.51,224.61L244.73,224.99L246.51,226.11L246.93,226.71L248.28,227.54L248.79,228.26L250.16,229.02L251.46,229.24L251.76,228.17L251.75,225.73L252.75,224.81L252.54,222.55L251.63,221.96L252.12,221.09L253.98,221.38L254.18,220.54L255.94,220.2L256.93,220.28L257.11,219.48L258.02,219.08L258.6,217.51L258.59,216.75L256.6,216.58L257.09,214.74L258.07,213.36Z" class="land" id="CZ-32" title="Plzeňský"/>
    <path d="M222.97,164.3L224.75,165.07L225.69,166.6L227.12,166.07L228.07,166.93L230.35,165.9L230.94,166.65L232.75,167.56L234.23,167.06L234.76,166.47L236.28,168.04L237.34,168.21L238.26,167.84L239.03,169.66L238.41,170.25L238.4,172.12L240.01,173.46L240.4,172.37L241.65,171.56L243.48,171.88L244.29,172.56L247.27,172.48L249.56,171.26L249.45,172.28L250.68,172.68L251.48,174.91L252.32,176.69L250.69,178.52L250.68,179L251.96,180.58L251.97,181.42L251.04,181.95L251.14,183.05L250.53,184.59L251.69,185.24L251.89,187.93L252.24,188.54L252.03,189.57L250.82,190.22L251.32,191.41L251.92,191.84L253.16,191.56L254.09,192.46L253.69,193.32L253.46,194.85L252.05,195.2L252.05,195.83L254.34,195.82L254.82,196.95L255.69,197.68L255.78,199.09L256.79,200.77L256.24,201.78L257.44,202.01L257.24,203.17L255.45,203.82L255.43,204.3L256.72,205.05L257.04,206.71L253.73,205.49L252.33,206.09L251.68,207.38L253.19,208.76L255.42,208.27L256.07,208.41L256.66,209.62L258.15,210.6L258.29,212.79L258.92,212.91L258.07,213.36L257.09,214.74L256.6,216.58L258.59,216.75L258.6,217.51L258.02,219.08L257.11,219.48L256.93,220.28L255.94,220.2L254.18,220.54L253.98,221.38L252.12,221.09L251.63,221.96L252.54,222.55L252.75,224.81L251.75,225.73L251.76,228.17L251.46,229.24L250.16,229.02L248.79,228.26L248.28,227.54L246.93,226.71L246.51,226.11L244.73,224.99L243.51,224.61L242.75,224.86L241.13,224.45L240.37,225.03L238.64,224.34L238.15,223.12L236.63,224.45L236.81,225.56L235.28,225.67L235.28,227.03L233.84,226.98L233.15,228.25L230.99,229.37L230.01,230.75L229.54,230.05L228.26,230.48L228.24,232.03L225.63,232.25L224.17,232.79L224.94,236.08L224.77,236.98L222.31,239.76L221.33,240.26L220.59,241.2L218.75,239.93L218.59,239.27L216.89,239.05L216,239.76L215.78,240.53L214.83,240.17L213.22,240.69L212.98,239.9L212.11,239.43L209.42,239.06L208.89,238.21L207.89,238.65L207.23,238.02L205.16,239.87L203.96,239.41L202.8,239.71L202.3,239.32L200.77,240.82L198.76,241.28L199,242.56L197.36,242.44L194.98,243.05L195.75,243.99L195.88,245.59L195.14,245.86L194.64,244.96L194.08,242.7L193.38,242.08L192.27,241.83L189.71,242.38L188.6,243.47L188.66,244.55L187.28,244.86L185.68,243.95L184.06,244.06L182.61,243.55L182.27,241.34L181.27,240.5L178.66,240.08L177.13,239.27L176.73,238.59L175.21,238.83L174.39,236.84L175.21,235.4L176.2,235.37L176.75,233.44L177.31,233.06L176.37,231.6L175.02,231.7L174.27,230.61L174.31,230.04L173.37,229.4L170.49,231.06L169.86,230.08L170.78,229.61L170.39,228.25L169.55,228.53L168.48,227.76L167.45,227.85L166.9,227L165.08,226.35L164.99,225.6L163.95,225.89L163.46,224.86L162.01,223.75L161.82,222.96L160.68,222.42L159.89,223.48L158.77,221.39L158.82,220.27L157.02,219.38L154.93,219.87L154.15,218.92L153.15,219.41L153.14,218.1L154.5,216.53L153.55,216.15L151.49,214.12L151.18,213.47L150.28,213.74L149.79,212.39L147.89,212.31L146.9,210.88L146.44,208.87L146.54,207.65L146.34,205.97L147.19,205.54L147.24,204.08L148.02,203.43L148.46,201.9L147.63,201.81L147.2,199.14L145.75,197.8L146.48,197.33L145.12,196.1L144.5,196.14L144.26,194.74L142.93,195.17L143.18,194.12L142.58,192.72L141.44,191.78L139.45,191.67L137.64,190.94L137.3,189.43L135.84,189.04L136.85,188.14L136.45,187.06L137.48,186.82L138.26,186.1L139.21,185.97L140.77,184.61L138.83,182.04L138.75,180.77L139.27,179.97L138.66,179.16L137.33,178.73L136.79,178.13L138.27,177.79L138.93,178.67L140.77,177.65L142.24,177.7L144.29,177.38L145.27,177.47L145.48,179.18L146.83,180.05L146.35,182.15L147.05,182.85L147.08,185.48L148.29,185.8L150.04,185.53L150.48,185.93L152.56,186.09L153.51,187.65L153.57,188.92L152.47,188.81L152.25,188.22L151.07,188.9L150.87,189.65L152.24,190.44L152.38,191.08L154.47,191.67L156.06,193.8L155.54,194.39L155.63,196.72L154.46,197.49L154.77,198.28L156.03,199.17L156.45,200.92L158.07,201.25L159.74,201.16L159.98,199.22L160.95,198.19L159.4,195.83L159.86,194.98L159.64,194.01L160.03,192.96L159.99,191.3L160.55,190.16L161.35,190.41L161.92,191.16L162.92,189.73L162.28,188.98L162.39,187.02L163.26,185.86L163.05,185.04L164.27,183.41L165.41,182.74L166.49,182.78L167.12,182.17L167.49,180.93L166.99,179.38L167.46,177.27L168.68,177.19L170.38,177.42L171.02,176.55L170.78,175.82L171.97,173.84L173.16,173.28L174.21,172.28L175.49,173.42L176.32,173.14L176.67,172.23L176.17,171.02L176.06,169.73L176.91,168.66L178.46,166.2L178.63,165.58L180.18,165.67L180.81,165.18L183.29,165.18L185.14,164.51L185.62,163.98L187.4,164.16L188.37,163.73L188.89,162.8L190.31,162.5L192.61,163.54L193.97,163.22L194.94,162.39L195.8,163.54L197.17,164.25L197.28,164.99L198.5,165.18L198.62,163.74L199.51,162.4L200.76,161.56L201.29,159.9L202.74,159.39L204.46,158.38L206.62,157.68L207.38,157.2L208.38,159.45L208.86,159.23L208.46,158.03L209.59,157.44L210.48,155.84L214.04,158.12L215.48,159.26L217.25,160.09L218.17,161.46L219.41,161.24L220.61,162.4L221.75,163.14L221.93,163.98Z" class="land" id="CZ-41" title="Karlovarský"/>
    <path d="M392.96,91.63L391.78,93.95L390.04,94.95L387.99,94.71L387.42,96.19L387.43,97.72L386.87,98.81L387.14,99.62L386.89,100.94L384.92,101.68L383.22,101.61L381.88,100.89L381.48,99.96L380.33,99.33L379.07,99.31L378.3,98.41L377.35,98.76L376.63,99.51L375.96,98.78L375.46,99.75L376.41,102.4L375.51,103.38L376.45,104.19L375.38,105.31L374.04,105.7L373.43,106.5L373.33,107.63L372.36,110.27L373.65,111.26L373.17,111.7L371.58,111.84L371.01,112.82L368.36,113.85L367.67,117.54L368.42,118.19L368.03,119.02L365.89,120.45L364.87,122.47L364.78,123.87L365.63,124.19L366.43,123.93L367.17,127.27L366.52,128.58L368.2,130.41L368.89,131.9L368.58,132.75L369.87,134.11L371.21,134.99L372.33,138.12L372.69,139.51L373.68,141.54L374.64,142.46L374.39,143.48L374.77,144.36L377.5,144.95L378.2,145.45L379.12,148.21L378.03,147.59L377.87,149.35L376.63,149.57L377.85,153.09L378.11,155.39L377.95,157.21L376.81,157.28L376,156.65L375.43,157.21L372.91,156.61L373.21,158.71L371.61,160.12L372.89,160.76L372.12,161.7L370.04,161.01L368.4,159.4L367.05,160.17L367.34,162.28L367.7,162.96L366.91,163.73L367.53,164.48L367.51,165.34L368.42,165.63L368.16,166.73L368.31,168.86L367.31,168.74L367.24,170.22L367.82,171.42L367.1,172.87L365.62,173.23L364.85,172.34L363.31,171.86L362.58,172.39L361.03,172.25L359.9,173.23L358.63,172.95L357.85,172.39L357.23,173.04L356.66,174.65L355.15,176.09L354.26,175.56L353.21,175.45L351.82,174.67L351.33,175.46L349.7,174.78L349.98,174.27L348.48,173.89L348.58,174.95L348.23,175.74L344.78,175.88L341.84,175.88L341.73,175.48L337.6,175.48L336.69,174.59L335.41,174.6L333.98,173.87L332.62,174.4L331.86,173.27L329.66,174.33L329.51,174.97L328.14,175.7L328.27,177.52L329.06,178.36L328.8,179.94L329.1,180.51L325.54,180.85L325.46,182.41L324.07,183.09L323.81,184.19L322.74,184.57L321.73,185.39L321.06,184.94L319.05,185.66L317.5,185.83L316.25,187.45L316.23,190.11L313.8,190.49L313.32,189.09L312.34,187.36L311.31,187.01L309.58,187.47L309.22,188.44L306.63,191.86L304.84,191.48L304.5,193.15L301.28,192.88L299.12,193.61L297.55,192.91L296.67,193.27L296.41,191.62L294.25,193.91L293.19,194.24L292.39,195.47L291.07,195.28L291.44,196.52L290.76,197.23L289.28,197.85L288.13,198.77L286.67,198.85L286.15,199.3L285.08,197.99L282.72,198.81L282.65,199.49L280.81,200.44L280.76,201.31L279.55,202.43L278.52,202.57L277.9,203.81L278.4,204.92L277.65,206.33L278.07,207.27L278.11,208.52L276.78,208.55L276.01,207.84L276.04,210.73L274.78,212.04L272.71,211.3L271.49,211.47L271.58,212.09L270.03,213.53L269.91,214.44L269.44,215.21L267.87,215.64L267.04,216.23L265.71,215.93L265.93,214.34L264.63,214.12L264.54,212.64L263.36,212.85L262.26,214.82L261.26,214.67L261.46,213.12L260.94,212.64L258.92,212.91L258.29,212.79L258.15,210.6L256.66,209.62L256.07,208.41L255.42,208.27L253.19,208.76L251.68,207.38L252.33,206.09L253.73,205.49L257.04,206.71L256.72,205.05L255.43,204.3L255.45,203.82L257.24,203.17L257.44,202.01L256.24,201.78L256.79,200.77L255.78,199.09L255.69,197.68L254.82,196.95L254.34,195.82L252.05,195.83L252.05,195.2L253.46,194.85L253.69,193.32L254.09,192.46L253.16,191.56L251.92,191.84L251.32,191.41L250.82,190.22L252.03,189.57L252.24,188.54L251.89,187.93L251.69,185.24L250.53,184.59L251.14,183.05L251.04,181.95L251.97,181.42L251.96,180.58L250.68,179L250.69,178.52L252.32,176.69L251.48,174.91L250.68,172.68L249.45,172.28L249.56,171.26L247.27,172.48L244.29,172.56L243.48,171.88L241.65,171.56L240.4,172.37L240.01,173.46L238.4,172.12L238.41,170.25L239.03,169.66L238.26,167.84L237.34,168.21L236.28,168.04L234.76,166.47L234.23,167.06L232.75,167.56L230.94,166.65L230.35,165.9L228.07,166.93L227.12,166.07L225.69,166.6L224.75,165.07L222.97,164.3L222.15,163.84L222.66,162.91L224.62,162.85L225.55,162.48L226.79,161.51L227.94,159.61L229.8,158.2L230.65,156.48L230.22,155.26L230.25,152.88L230.59,151.11L231.37,149.09L231.41,147.67L232.74,147.34L233.64,148.63L234.41,149L236.94,149.11L238.74,148.52L240.44,146.86L241.63,146.1L242.3,147.21L242.29,147.99L243.95,147.75L246.26,148.55L248.28,148.23L248.02,146.54L249.21,145.53L251.38,140.65L250.85,138.98L252.33,137.62L252.18,136.71L253.3,134.5L254.16,133.95L254.78,134.4L255.72,134.18L256.84,134.55L257.42,136.4L257.95,136.93L259.07,136.42L261.06,136.32L260.87,132.75L261.49,131.85L262.41,132.17L262.72,131.16L264.02,130.88L265.47,130.17L266.55,128.69L266.27,126.51L266.62,125.65L267.83,125.63L268.25,126.5L269.47,127.7L270.07,130.09L271.46,130.49L271.92,131.48L273.04,131.52L275.31,132.85L275.72,132.54L276.94,130.55L278.53,128.92L279.46,127.7L280.91,127.33L281.62,126.79L281.73,125.23L280.97,125.36L280.47,124.49L280.9,123.63L282.19,122.15L283.01,122.28L283.47,120.71L283.17,118.57L281.77,116.87L281.8,116.16L282.97,116.07L284.23,114.94L285.04,114.7L287.18,115.15L288.5,114.99L289.55,115.42L290.19,114.97L291.93,114.54L291.81,113.58L293.6,112.45L296.07,112L297.53,113.05L298,113.9L300.2,114.28L301.33,112.44L302.19,111.63L303.59,112.71L304.73,112.16L305.3,111.33L307.99,111.68L308.57,111.39L310.35,111.7L311.2,112.6L312.23,113L312.99,112.64L314.42,112.92L315.34,112.63L315.91,110.2L317.86,110.96L319.59,109.9L320,108.56L318.67,106.73L318.45,105.99L318.94,104.62L319.77,103.38L319.5,102.31L320.12,101.92L321.63,102.71L322.8,102.82L324.49,101.9L325.42,100.92L325.3,99.75L326.92,99.23L328.89,97.81L330.23,98.44L330.36,99.31L331.94,99.3L333.19,100.36L334.03,99.26L336.26,99.34L337.78,99.05L337.93,97.98L338.96,96.8L340.15,96.78L342.88,95.48L343.46,95.53L344.71,94.42L346.26,93.39L347.31,93.34L349.88,92.58L350.39,92.71L351.73,91.44L352.73,91.32L353.93,88.86L353.69,86.94L354.81,87.08L356.21,86.47L357.08,85.7L358.52,86.02L359.53,87.23L360.84,87.49L362.35,86.7L365.48,86.09L365.56,84.89L368.01,85.47L369.32,85.2L369.21,82.81L369.71,81.5L370.87,80.86L370.75,79.65L369.32,78.18L368.15,78.71L367.5,78.1L365.38,77.53L364.45,76.84L363.1,76.92L361.85,76.27L362.22,75.23L360.81,74.27L362.02,73.09L362.99,73.21L363.04,72.08L362.33,71.06L360.27,72.24L358.86,72.48L357.85,71.41L356.36,70.7L356.28,69.98L357.24,68.83L356.72,68.26L357.01,67.36L358.54,66.4L358.27,65.58L358.93,64.71L359.03,63.67L357.98,62.34L359.23,62.41L360.67,59.87L362.13,59.84L363.12,60.73L364.06,62.33L366.85,61.47L368.05,62.44L368.8,62.52L368.95,64.12L370.05,65.01L371.62,65.71L372.83,65.61L376.16,62.91L377.3,63.06L378.29,64.04L378.31,64.66L380.03,64.95L380.17,62.97L379.92,61.71L380.84,61.18L381.59,61.73L380.9,63.75L380.63,65.16L383.3,65.69L384.8,67.02L384.31,68.17L386.84,67.58L388.7,68.76L388.99,69.83L390.81,70.94L391.03,71.95L390.53,74.81L389.37,76.89L389.07,78.03L387.88,79.04L387.02,80.71L387.48,81.89L389.26,82.71L392.61,80.79L393.78,80.76L395.43,79.84L396.05,79.79L396.28,81.02L396.32,84L395.09,84.78L394.57,85.68L394.26,87.46L393.23,90.2Z" class="land" id="CZ-42" title="Ústecký"/>
    <path d="M485.95,104.25L486.2,105.25L486.01,106.28L486.83,108.14L489.43,109.83L490.01,111.29L488.95,113.33L488.37,115.07L489,115.41L489.03,117.22L489.33,118.06L488.79,119.89L489.96,123.93L490.86,124.61L490.05,125.17L489.13,127.09L490.94,128.13L491.6,129.83L492.88,130.76L492.15,131.26L490.93,132.78L490.86,134.16L490.16,135.6L490.8,137.08L492.04,137.2L491.3,138.21L492.38,139.16L491.77,139.59L491.98,140.44L493.74,141.08L494.32,142.49L495.52,143.61L495.79,145.53L491.56,145.93L490.88,146.47L489.68,145.1L487.28,145.75L486.99,146.68L486.17,146.92L483.93,146.04L483.02,144.79L482.28,144.38L482.08,142.87L481.06,141.93L480.21,141.69L480.28,143.83L478.94,143.69L478.71,145.02L476.08,145.66L476.53,146.78L476.56,148.47L477.42,148.79L476.76,150.6L476.03,151.24L475.58,150.5L474.82,150.77L474.76,151.99L472.13,152.28L471.39,152.13L471.42,150.5L470.31,147.78L469.42,148.55L469.34,149.8L468.27,148.95L466.5,148.34L466.07,147.14L465.11,146.7L463.71,147.3L462.29,146.81L462.27,146.23L460.55,145.27L458.33,145.82L457.45,146.62L456.3,148.47L455.8,149.94L454.01,149.78L453.46,149.19L452.5,149.05L450.55,147.88L448.11,146.81L446.36,145.45L444.69,144.09L443.53,144.44L443.12,143.9L441.78,143.82L441.24,141.9L441.25,140.39L439.24,139.33L438.34,137.84L437.77,137.72L435.95,138.61L435.6,137.22L434.81,136.56L434.23,135.46L433.48,135.2L432.16,132.38L431.78,133.04L430.92,133.22L429.76,132.61L429.12,132.72L428.49,134.22L427.43,134.06L426.75,132.27L425.86,131.93L424.56,131.93L424.71,130.76L423.92,130.07L422.24,130.38L423.01,131.93L422,132.08L421.06,132.77L420.92,133.79L421.88,134.85L420.07,135.22L418.37,136.88L416.59,137.62L415.91,138.23L416.08,139.78L415.57,140.61L414.73,140.95L414.18,142.17L414,143.51L413.18,143.75L412.16,144.92L411.33,144.07L410.82,144.62L410.64,146.1L409.84,146.28L409.8,147.45L408.56,146.66L406.46,146.62L403.7,146.01L402.96,149.16L402.04,149.83L401.12,149.81L400,150.68L400.12,152.1L399.15,151.48L397.74,151.65L396.51,151.4L394.06,152.12L392.42,152.16L392.24,153.3L391.08,153.06L389.04,152.13L388.99,151.03L388.45,150.2L388.88,149.22L388.82,148.2L388.23,147.46L387.3,148.1L385.76,148.57L385.56,149.7L384.12,149.33L383.84,148.65L382.71,147.5L381.84,147.54L381.3,148.26L380.86,150.29L379.12,148.21L378.2,145.45L377.5,144.95L374.77,144.36L374.39,143.48L374.64,142.46L373.68,141.54L372.69,139.51L372.33,138.12L371.21,134.99L369.87,134.11L368.58,132.75L368.89,131.9L368.2,130.41L366.52,128.58L367.17,127.27L366.43,123.93L365.63,124.19L364.78,123.87L364.87,122.47L365.89,120.45L368.03,119.02L368.42,118.19L367.67,117.54L368.36,113.85L371.01,112.82L371.58,111.84L373.17,111.7L373.65,111.26L372.36,110.27L373.33,107.63L373.43,106.5L374.04,105.7L375.38,105.31L376.45,104.19L375.51,103.38L376.41,102.4L375.46,99.75L375.96,98.78L376.63,99.51L377.35,98.76L378.3,98.41L379.07,99.31L380.33,99.33L381.48,99.96L381.88,100.89L383.22,101.61L384.92,101.68L386.89,100.94L387.14,99.62L386.87,98.81L387.43,97.72L387.42,96.19L387.99,94.71L390.04,94.95L391.78,93.95L392.96,91.63L394.32,92.07L395.8,93.11L397.28,92.95L400.03,94.82L401.89,94.34L403.09,95.61L402.86,97.03L403.8,97.41L405.17,96.35L406.15,97.07L407.09,97.07L407.81,97.83L409.07,97.83L410.12,97.2L410.77,97.75L411.4,97.04L411.52,95.09L412.41,92.77L413.36,91.47L413.7,89.62L414.57,89.21L415.56,89.89L417.53,89.52L418.58,88.46L421.16,90.13L421.52,88.79L424.88,89.68L426.33,90.61L427.49,91L429.44,90.05L431.85,89.54L431.47,86.88L431.06,86.21L431.58,84.83L431.5,82.92L430.78,81.97L430.68,81.04L431.77,80.5L433.09,78.63L433.19,76.94L432.91,74.92L433.87,74.18L433.24,73.4L432.37,71.12L430.46,72.32L428.45,70.33L430.31,66.94L431.41,67.21L433.14,65.97L433.73,64.88L435,65.19L435.7,66.77L437.33,66.74L437.47,65.21L438.54,65.37L439.36,66.31L442.33,67L441.65,68.2L441.61,69.09L442.32,70.48L444.22,70.12L444.74,70.4L446.56,66.6L448.86,65.56L449.35,66.65L449.51,70.56L449.07,70.98L451.08,71.98L451.95,71.43L451.64,70.69L452.58,70.09L455.92,68.97L456.33,70.62L456.09,71.38L457.31,71.87L459.52,72.11L459.83,73.19L459.5,74.66L460.64,75.35L461.34,76.27L461.12,77.39L460.03,78.21L458.91,79.79L458.85,82.07L459.75,85.02L459.85,86.55L461.03,87.99L461.54,89.23L463.1,91.21L466.12,92.03L467.68,92.94L468.3,94.47L468.92,95.16L469.54,97.46L469.29,98.65L469.67,99.3L468.96,100.82L469.64,102.61L469.37,104.19L470.82,105.02L471.81,104.94L472.69,104.09L473.84,102.39L474.32,100.91L475.04,100.07L476.13,99.73L477.38,100.05L477.6,100.62L478.88,101.07L480.52,102.59L482.1,103.05L483.59,102.4L484.96,104.61Z" class="land" id="CZ-51" title="Liberecký"/>
    <path d="M592.64,205.92L591.39,206.65L588.5,204.65L587.88,205.09L586.69,204.51L586.38,203.32L584.41,202.3L583.12,202.35L582,203.22L582.21,204.87L581.61,206.49L580.42,207.57L579.65,207.76L579.13,208.54L577.68,208.49L576.53,209.77L574,210.22L573.46,209.93L572.86,211.23L571.74,212.5L569.22,212.69L569.31,213.29L568.22,213.77L567.96,214.82L569.02,216.1L568.43,217.05L565.52,217.86L565.94,219.56L566.98,221.01L567.16,222.22L565.32,221.68L564.9,221.85L563.81,221.03L562.03,220.54L560.98,221.41L558.6,221.87L557.76,221.31L556.77,221.79L556.07,221.2L554.74,221.8L554.32,222.34L553.18,222.36L552.31,220.7L551.67,220.52L550.46,218.84L549.27,219.06L548.54,217.86L547.44,218.72L546.4,217.89L545.85,216.29L544.67,215.34L542.97,215.4L542.54,214.96L541.46,215.02L540.79,214.48L540.57,213.2L539.9,211.27L538.54,210.93L534.47,210.87L534.48,205.63L532.53,205.49L532.52,203.65L529.62,203.66L527.32,203.28L525.39,201.65L525.01,202.57L522.79,202.85L521.9,203.17L521.83,205.32L518.56,205.25L518.33,206.47L516.43,207.28L514.46,207.06L513.63,206.52L513.4,204.54L514.14,203.27L513.16,202.93L513.3,202.2L511.28,201.55L510.53,200.9L509.53,202.17L508.47,202.11L506.94,203.38L507.49,204.44L506.98,206.03L506.04,206.22L505.62,207.17L504.88,206.78L503.42,206.57L501.37,208.35L500.1,208.04L498.69,207.36L497.6,206.35L496.75,207.44L494.36,206.76L492.75,206.92L492.34,207.49L490.79,207.08L490.66,205.43L489.22,205L488.87,205.9L487.62,207.22L487.34,206.63L486.35,206.27L485.66,207.06L484.8,207.12L484.47,208.92L485.05,209.79L483.98,210.04L483.3,210.61L481.4,210.5L481.4,211.22L479.33,212.82L477.81,213.37L476.67,211.9L476.02,210.42L477,209.03L476.03,208.41L474.8,208.08L472.97,206.62L472.74,207.3L471.36,206.66L470.55,205.63L469.95,205.6L468.73,206.32L468.11,205.17L469.71,203.97L469.8,203.46L467.9,202.71L468.85,202.03L470.09,200.58L471.25,199.82L471.29,198.15L471.98,197.66L472.12,196.2L471.47,195.07L471.46,194.13L469.49,192.56L469.82,191.61L469.59,188.95L470.76,188.2L469.98,187.1L469.86,185.83L470.15,183.99L468.94,182.63L468.24,182.42L467.62,181.31L465.77,181.76L464.9,182.44L464.19,182.3L463.92,183.3L462.84,183.92L462.52,183.46L460.65,182.39L460.28,182.68L457.89,182.01L457.63,182.47L456.26,182.65L455.89,183.16L452.71,181.71L452.96,180.15L452.27,179.86L452.58,178.94L453.78,178.27L451.94,177.09L451.46,176.15L450.14,176.47L449.94,174.64L448.66,173.63L447.25,174.81L444.98,173.78L444.12,172.25L444.6,171.02L443.73,170.49L442.83,169.23L442.75,168.32L443.59,166.71L444.84,167.33L446.1,167L445.58,165.83L445.57,164.48L447.07,164.37L447.64,163.71L448.02,160.81L446.99,160.01L447.34,159.29L446.47,157.44L445.35,157.64L444.98,156.94L445.68,155.15L445.61,153.68L446.38,153.17L444.91,152.29L445.33,151.7L445.21,150.68L444.17,149.89L443.21,148.63L443.86,147.48L444.6,147.66L446.36,145.45L448.11,146.81L450.55,147.88L452.5,149.05L453.46,149.19L454.01,149.78L455.8,149.94L456.3,148.47L457.45,146.62L458.33,145.82L460.55,145.27L462.27,146.23L462.29,146.81L463.71,147.3L465.11,146.7L466.07,147.14L466.5,148.34L468.27,148.95L469.34,149.8L469.42,148.55L470.31,147.78L471.42,150.5L471.39,152.13L472.13,152.28L474.76,151.99L474.82,150.77L475.58,150.5L476.03,151.24L476.76,150.6L477.42,148.79L476.56,148.47L476.53,146.78L476.08,145.66L478.71,145.02L478.94,143.69L480.28,143.83L480.21,141.69L481.06,141.93L482.08,142.87L482.28,144.38L483.02,144.79L483.93,146.04L486.17,146.92L486.99,146.68L487.28,145.75L489.68,145.1L490.88,146.47L491.56,145.93L495.79,145.53L495.52,143.61L494.32,142.49L493.74,141.08L491.98,140.44L491.77,139.59L492.38,139.16L491.3,138.21L492.04,137.2L490.8,137.08L490.16,135.6L490.86,134.16L490.93,132.78L492.15,131.26L492.88,130.76L491.6,129.83L490.94,128.13L489.13,127.09L490.05,125.17L490.86,124.61L489.96,123.93L488.79,119.89L489.33,118.06L489.03,117.22L489,115.41L488.37,115.07L488.95,113.33L490.01,111.29L489.43,109.83L486.83,108.14L486.01,106.28L486.2,105.25L485.95,104.25L487.05,104.06L488.67,104.72L490.6,104.35L492.72,104.65L494.01,105.2L494.95,106.55L497.34,107.44L498.5,107.45L500.8,108.24L501.71,110.27L503.43,111.13L505.12,110.65L506.68,111.26L509.2,110.07L510.85,110.25L511.83,109.57L512.18,108.59L514.2,108.18L516.28,110.23L516.21,113.13L517.45,115.1L518.3,115.7L519.29,119.76L519.24,121.17L521.6,121.73L521.75,121.01L523.81,120.35L525.21,119.5L525.96,119.97L526.48,119.23L527.5,119.2L528.35,118.65L529.97,118.39L532.36,119.6L532.34,120.67L532.89,121.38L533.85,123.92L533.66,124.72L534.25,127.62L535.57,128.28L533.05,129.54L532.07,130.55L532.43,131.42L534.12,132.3L534.54,132L535.69,133.28L537.71,130.88L539.02,131.56L539.78,127.85L540.29,126.69L541.14,126.26L542.88,124.69L543.62,123.1L546.05,123.47L546.97,124.06L547.51,124.93L548.45,124.54L550.61,125.81L551.29,126.71L551.72,128.42L552.35,128.68L554,128.04L555.2,127.94L555.78,126.82L555.96,124.88L556.69,122.5L557.16,121.65L559.98,122.18L561.76,122.29L562.32,123.4L564.44,123.61L565.89,122.47L568.17,123.13L568.49,124.28L569.62,125.57L570.22,125.31L571.93,127.86L572.47,129.03L573.51,130.11L574.38,130.25L575.07,131.23L576.21,131.97L577.35,133.49L578.58,135.7L578.53,136.48L575.83,138.15L574.5,138.12L575.13,140.02L575.12,141.42L572.8,142.38L573.74,143.37L574.18,144.39L572.64,145.94L571.3,146.63L570.04,148.87L568.42,149.8L566.99,148.52L565.93,147.93L565.18,148.05L564.97,150.28L564.06,150.5L563.36,152.37L562.25,152.31L560.87,151.65L559.66,152.34L558.72,153.28L559.3,154.35L557.34,155.52L556.21,155.44L555.89,155.97L556.88,156.83L556.87,158.2L556.14,158.35L555.72,156.81L555.05,156.83L553.65,158.25L553.63,160.42L554.69,160.97L555.14,162.64L554.85,163.36L555.74,163.87L557.56,162.85L558.12,163.7L559.14,164.3L558.87,166.18L560.18,166.3L560.58,168.35L561.54,168.98L561.66,170.12L563.17,169.71L563.84,168.23L564.4,167.83L565.66,168.29L566.38,167.96L568,168.63L568.83,168.18L570.12,168.39L570.75,170.4L570.26,173.27L571.52,174.27L572.37,176.42L574.02,177.95L575.12,177.15L577.07,177.14L578.81,179.14L579.05,180.32L580.54,181.8L580.81,183.22L582.07,184.72L583.09,186.66L583.96,187.42L585.03,187.33L585.57,189.38L586.96,190.81L588.15,190.67L588.52,191.46L590.22,193.53L589.88,194.32L590.59,195.56L589.91,197.38L590.85,200.08L590.23,201.2L590.45,202.39L592.3,203.47L593.01,204.25Z" class="land" id="CZ-52" title="Královéhradecký"/>
    <path d="M621.44,197.12L621.73,198.88L621.56,200.47L619.83,202.38L619.3,204.89L618.7,205.89L618.05,208.57L617.45,208.43L617.54,210.19L616.86,210.77L615.66,210.9L615.31,211.49L617.13,215.1L615.96,215.83L615.1,216.91L614.73,218L616.11,219.05L615.65,220.22L616.63,221.49L615.59,222.42L615.62,224.01L614.19,223.88L613.47,224.78L611.4,226.24L611.72,227.36L610.2,228.49L607.25,228.22L605.83,228.8L606.07,230.18L606.55,231.1L607.34,231.63L607.61,233.2L608.12,233.75L607.98,237.06L609,238.95L609.83,239.35L609.26,240.44L610.31,241.21L610.27,242.48L609.9,243.12L610.4,244.25L609.85,245.51L610.9,248.71L610.46,249.5L608.48,250.64L608.2,254.66L608.26,255.61L610.46,257.23L610.63,258.68L610.31,259.74L610.73,260.71L611.76,261.78L613.53,264.05L614.55,264.34L615.2,265.31L614.43,265.69L614.05,266.97L615.96,268.43L615.36,269.71L614.57,270.62L613.6,271.07L613.69,271.74L615.09,271.67L615.33,270.95L617.64,271.55L619.27,272.77L619.6,273.43L618.86,275.01L619.56,275.87L619.13,278.25L619.47,278.97L618.62,279.91L617.48,280.6L615.75,282.11L615.11,282.95L615.19,284.56L614.87,285.69L616.05,287.19L615.55,288.21L614.9,291.08L615.22,291.77L612.96,292.32L612.36,292.18L609.9,290.55L606.42,289.26L606.11,288.3L603.84,287.91L602.7,288.1L601.85,287.53L600.59,287.67L599.58,288.62L597.93,287.12L596.79,286.67L596.08,287.67L594.96,288.4L593.55,287.6L592.97,288.02L589.9,286.84L589.27,287.31L589.12,290.06L588.66,290.52L588.62,292.79L587.71,293.15L584.32,292.95L583.42,291.69L582.45,291.97L581.41,293.01L580.53,292.84L578.7,293.64L579.14,292.3L577.75,291.83L575.63,293.07L576,294.17L574,295.43L573.13,294.55L571.85,293.28L571.62,292.21L571.03,291.43L569.84,291.32L568.87,290.3L568.82,289.67L566.8,289.37L565.22,288.8L564.15,287.88L563.47,288.84L562.13,287.55L560.8,287.09L561.14,285.66L559.47,284.55L558.47,282.74L557.8,282.13L556.46,281.7L555.88,281.15L554.36,281.11L553.17,279.19L551.99,279.8L550.76,278.83L549.53,278.81L547.75,277.57L546.25,277.98L545.43,277.74L543.96,278.56L543.08,278.03L543.12,277.3L542.59,276.01L541.45,274.39L539.33,273.47L538.41,274L537.63,273.95L536.68,273.29L535.22,273.17L534.21,272.13L534.28,271.17L533.54,269.86L532.05,271.55L531.55,271.58L530.5,272.79L530.53,275.45L529.79,275.9L528.69,275.92L528.94,276.91L528.15,278.12L526.74,277.79L525.67,278.29L524.77,278.07L524.14,277.07L523.09,276.09L521.43,275.48L520.15,275.53L518.78,274.36L517.95,273.15L519.68,270.85L519.56,269.01L518.13,270.16L517.71,269.6L516.34,269.47L515.8,268.89L515.45,267.66L514.69,267.75L513.79,266.82L512.65,266.64L511.46,267.22L510.54,267.17L510.27,265.77L511.26,263.38L509.52,263.74L508.45,262.92L507.12,263.2L505.97,262.67L505.73,262.02L504.78,261.93L504.13,260.27L501.81,260.26L501.14,259.66L501.11,258.29L500.12,258.49L499.41,257.85L498.74,257.96L498.29,259.11L496.82,259.28L496.62,257.72L494.43,258.78L492.01,258.05L491.8,257.23L490.74,257.36L489.87,255.95L488.28,255.35L486.72,253.65L485.66,253.54L484.77,251.84L483.66,251.71L482.23,250.56L483.08,247.06L482.32,244.69L483.93,244.61L484.15,243.77L485.98,240.77L486.21,239.76L485,239.24L484.21,237.8L485.57,236.71L485.85,235.92L485.72,234.61L484.46,234.45L483.49,233.36L483.04,233.85L481.7,233.03L478.52,230.42L479.43,229.58L479.98,228.36L478.48,227.8L477.91,227.08L477.22,227.74L476.11,227.17L475.15,227.31L474.22,225.3L472.49,225.75L469.99,224.13L469.2,222.55L469.15,221.87L470.27,221.08L471.83,221.44L472.45,220.65L470.34,220.17L470.42,219.11L471.8,219.25L472.64,218.64L473.77,218.68L473.64,216.72L472.81,215.66L472.74,214.8L474.45,214.44L474.01,213.8L472.72,213.79L472.35,213.41L473.11,212.01L473.87,211.61L474.95,212.95L476.67,211.9L477.81,213.37L479.33,212.82L481.4,211.22L481.4,210.5L483.3,210.61L483.98,210.04L485.05,209.79L484.47,208.92L484.8,207.12L485.66,207.06L486.35,206.27L487.34,206.63L487.62,207.22L488.87,205.9L489.22,205L490.66,205.43L490.79,207.08L492.34,207.49L492.75,206.92L494.36,206.76L496.75,207.44L497.6,206.35L498.69,207.36L500.1,208.04L501.37,208.35L503.42,206.57L504.88,206.78L505.62,207.17L506.04,206.22L506.98,206.03L507.49,204.44L506.94,203.38L508.47,202.11L509.53,202.17L510.53,200.9L511.28,201.55L513.3,202.2L513.16,202.93L514.14,203.27L513.4,204.54L513.63,206.52L514.46,207.06L516.43,207.28L518.33,206.47L518.56,205.25L521.83,205.32L521.9,203.17L522.79,202.85L525.01,202.57L525.39,201.65L527.32,203.28L529.62,203.66L532.52,203.65L532.53,205.49L534.48,205.63L534.47,210.87L538.54,210.93L539.9,211.27L540.57,213.2L540.79,214.48L541.46,215.02L542.54,214.96L542.97,215.4L544.67,215.34L545.85,216.29L546.4,217.89L547.44,218.72L548.54,217.86L549.27,219.06L550.46,218.84L551.67,220.52L552.31,220.7L553.18,222.36L554.32,222.34L554.74,221.8L556.07,221.2L556.77,221.79L557.76,221.31L558.6,221.87L560.98,221.41L562.03,220.54L563.81,221.03L564.9,221.85L565.32,221.68L567.16,222.22L566.98,221.01L565.94,219.56L565.52,217.86L568.43,217.05L569.02,216.1L567.96,214.82L568.22,213.77L569.31,213.29L569.22,212.69L571.74,212.5L572.86,211.23L573.46,209.93L574,210.22L576.53,209.77L577.68,208.49L579.13,208.54L579.65,207.76L580.42,207.57L581.61,206.49L582.21,204.87L582,203.22L583.12,202.35L584.41,202.3L586.38,203.32L586.69,204.51L587.88,205.09L588.5,204.65L591.39,206.65L592.64,205.92L594.41,206.47L594.84,207.3L595.71,207.6L595.94,208.77L597.1,209.31L597.9,210.87L598.64,210.79L602.49,212.15L603.68,212.93L605.25,213.25L607.03,212.01L607.68,210.04L609.4,207.17L610.27,207.33L613.2,205.57L613.04,204.55L614.03,203.52L614.61,202.43L614.91,200.11L616.2,198.17L617.24,198.63L617.52,197.74L618.45,197.23L618.48,196.49L619.72,195.67Z" class="land" id="CZ-53" title="Pardubický"/>
    <path d="M482.23,250.56L483.66,251.71L484.77,251.84L485.66,253.54L486.72,253.65L488.28,255.35L489.87,255.95L490.74,257.36L491.8,257.23L492.01,258.05L494.43,258.78L496.62,257.72L496.82,259.28L498.29,259.11L498.74,257.96L499.41,257.85L500.12,258.49L501.11,258.29L501.14,259.66L501.81,260.26L504.13,260.27L504.78,261.93L505.73,262.02L505.97,262.67L507.12,263.2L508.45,262.92L509.52,263.74L511.26,263.38L510.27,265.77L510.54,267.17L511.46,267.22L512.65,266.64L513.79,266.82L514.69,267.75L515.45,267.66L515.8,268.89L516.34,269.47L517.71,269.6L518.13,270.16L519.56,269.01L519.68,270.85L517.95,273.15L518.78,274.36L520.15,275.53L521.43,275.48L523.09,276.09L524.14,277.07L524.77,278.07L525.67,278.29L526.74,277.79L528.15,278.12L528.94,276.91L528.69,275.92L529.79,275.9L530.53,275.45L530.5,272.79L531.55,271.58L532.05,271.55L533.54,269.86L534.28,271.17L534.21,272.13L535.22,273.17L536.68,273.29L537.63,273.95L538.41,274L539.33,273.47L541.45,274.39L542.59,276.01L543.12,277.3L543.08,278.03L543.96,278.56L545.43,277.74L546.25,277.98L547.75,277.57L549.53,278.81L550.76,278.83L551.99,279.8L553.17,279.19L554.36,281.11L555.88,281.15L556.46,281.7L557.8,282.13L558.47,282.74L559.47,284.55L561.14,285.66L560.8,287.09L562.13,287.55L563.47,288.84L564.15,287.88L565.22,288.8L566.8,289.37L568.82,289.67L568.87,290.3L569.84,291.32L571.03,291.43L571.62,292.21L571.85,293.28L573.13,294.55L573.38,295.25L573.19,297.47L572.21,298.72L571.29,299.28L572.8,301.27L574.24,301.43L574.74,301.18L575.57,302.15L575.95,303.45L575.56,304.8L575,305.66L574.27,305.82L573.54,307.2L572.75,307.71L572.61,308.48L571.25,308.64L570.77,307.76L569.93,308.75L570.84,309.8L571.63,310.14L572.87,312.08L571.36,312.9L572.19,314.16L571.47,315.1L570.81,315.32L570.48,316.26L570.72,317.57L571.41,318.45L571.11,319.01L571.89,321.89L572.06,323.05L571.16,325.34L571.96,326.62L571.39,327.44L572.69,329.39L571.61,330.06L570.57,331.39L569.67,331.39L568.75,332.57L568.22,331.72L567.44,332.01L566.88,333.04L565,334.1L562.79,334.77L563.09,336.62L562.43,338.04L561.78,338.18L561.09,339.41L559.72,340L559.45,341.53L559.59,342.4L562.48,344.12L561.92,345.66L560.69,346.03L559.26,345.86L558.12,347.9L557.46,349.93L557.49,352.31L559.83,352.76L561.18,354.15L560.53,354.85L561.14,356.53L560.77,357.52L560.06,357.18L559.13,357.99L557.96,357.82L556.95,358.19L556.28,359.73L557.42,360.7L557.73,361.83L557.56,363.14L558.45,363.92L560.76,365.21L560.49,367.27L558.56,369.17L557.35,370.13L556.21,370.01L555.41,370.89L555.99,371.55L555.69,372.48L554.65,374.23L553.81,373.74L552.03,373.92L551.49,374.34L549.66,374.11L547.47,374.88L546.48,376.14L547.45,376.69L548.2,378.14L546.9,378.64L546.17,378.25L545.39,379.49L543.97,378.84L542.54,379.09L541.75,379.62L540.36,379.18L539.84,379.62L538.96,378.64L537.91,379.09L536.6,378.61L535.55,380.41L534.22,381.17L532.92,381.09L531.43,380.13L530.42,379.17L530.09,377.99L529.31,376.51L528.19,377.18L527.62,377.9L526.6,378.08L526.59,379.22L525.57,379.82L524.65,380.81L523.76,379.79L522.47,379.2L521.63,379.22L521.52,380.29L520.83,382.44L519.82,383.85L518.11,382.98L517.86,383.43L516.51,383.12L515.76,384.18L514.84,383.57L514.49,384.52L513.39,384.91L512.86,385.51L512.57,387.39L511.12,388.38L509.35,388.47L508.79,388.26L508.4,390.56L507.35,390.11L506.81,391.52L506.77,392.78L505.9,393.23L504.55,391.2L503.5,390.24L502.46,390.33L500.8,391.31L499.69,390.72L498.94,390.86L499.05,392.73L497.96,393.45L497.65,394.84L496.68,394.1L495.19,394.27L493.96,391.65L492.84,391.85L491.28,393.2L490.35,392.13L490.65,390.52L489.8,390.44L488.4,389.54L485.78,389.25L484.73,388.55L484.97,387.91L484.97,386.15L483.39,385.5L482.83,386.3L481.49,386.38L481.28,385.64L481.65,384.67L483.32,383.39L483.44,382.53L484.33,382.69L485.43,381.43L485.69,379.87L487.44,378.58L487.65,377.52L486.92,377.21L486.76,375.86L488.03,375.8L488.23,374.9L487.74,374.14L487.93,373.35L489.73,374.23L491.83,374.09L492.4,373.25L492.15,372.6L492.88,371.73L490.97,369.88L491.53,369.15L490.64,368.52L490.09,369.2L488.64,367.86L488.54,367.09L489.51,366.95L489.24,365.69L486.98,364.23L486.3,364.37L486.13,365.84L484.24,364.93L483.62,365.19L482.8,366.78L481.61,366.76L479.4,366.2L479.23,366.75L478.01,366.39L476.55,364.63L475.37,365.27L474.8,366.96L474.2,365.64L472.93,364.85L470.92,364.37L469.55,361.83L468.79,362.25L467.55,361.51L466.69,359.36L466.5,357.45L467.26,355.75L466.57,352.76L466.66,351.75L465.55,351.3L463.35,351.38L462.61,352.09L461.79,351.64L460.31,351.55L459.98,352.34L459.11,351.83L457.58,352.51L457.72,351.38L455.81,350.61L454.4,350.32L453.69,349.8L452.53,350.11L451.67,348.67L449.54,350.86L448.53,351.66L447.43,351.39L445.92,350.43L445,347.47L443.89,346.7L442.89,346.86L441.74,347.84L440.99,347.06L441.9,346.58L441.62,344.85L442.12,344.62L442.29,343.38L440.37,342.96L440.36,343.74L437.58,342.54L436.21,341.17L435.96,340.13L434.72,339.16L431.85,340.98L430.82,342.76L429.54,342.5L429.32,341.45L427.78,339.7L426.53,339.22L426.63,338.28L425.47,337.49L424.03,336.93L424.48,335.99L423.08,334.42L421.92,333.45L424.15,330.28L424.05,329.36L423.26,328.01L422.68,328.14L421.49,327.31L420.54,327.06L420.83,323.84L421.58,323.67L422.11,322.2L421.64,321.34L422.94,318.92L421.74,319.34L421.54,318.57L422.74,318.17L422.72,316.67L423.03,315.74L423.89,314.88L424.42,312.43L423.63,311.96L424.32,309.23L424.03,307.35L422.77,305.57L421.64,305.29L421.67,304.6L422.54,303.72L424.22,303.69L424.64,304.03L425.82,303.5L424.96,301.37L424.53,300.88L424.79,299.46L424.66,298.63L425.74,297.5L424.98,296.46L425.52,294.92L428.75,295.13L430.22,294.8L429.67,292.95L428.5,292.34L429.03,291.05L430.73,290.56L431.92,290.81L433.48,292.12L435.75,292.23L436.3,291.55L437.28,292.6L438.71,292.24L440.06,291.44L441.32,291.9L442.2,291.58L442.85,290.5L444.77,291.52L446.52,291.38L447.18,292.18L448.12,292.51L448.57,291.35L449.14,291.21L449.28,290.12L450.35,289.95L450.25,288.87L451.36,288.73L452.01,289.53L453.15,289.71L455.07,289.21L455.71,288.07L456.49,287.85L457.06,286.86L456.54,285.93L456.98,284.77L455.75,283.12L455.4,281.5L453.87,281.48L452.74,281.78L451.72,280.24L450.57,280.97L449.99,279.68L450.22,279.03L449.79,277.85L449.99,275.35L451.84,273.29L452.78,271.99L453.74,271.53L453.62,269.99L454.2,267.69L454.87,267.11L455.9,267L456.91,265.99L457.62,266.07L457.2,267.39L459.68,267.23L460.53,266.62L460.58,265.75L462.3,265.47L463.7,265.55L465.03,264.46L466.1,264.24L467.02,265.08L468.18,263.53L468.89,263.94L469.48,262.53L469.33,261.93L470.56,260.26L471.43,261.33L472.16,260.87L473.06,261.22L474.75,261.38L476.04,260.35L475.57,258.48L474.93,257.44L473.91,257.06L474.44,255.13L475.5,255.23L475.67,254.33L477,253L478.9,253.48L479.81,253.24L480.28,251.99L481.09,251.79L481.51,252.37Z" class="land" id="CZ-63" title="Vysočina"/>
    <path d="M701.05,408.16L699.44,408.13L698.77,408.59L698.01,410.2L696.12,410.43L695.69,412.13L695.09,412.67L691.7,413.01L690.75,414.05L689.86,413.72L688.46,414.49L687.64,414.23L683.96,410.49L681.18,409.5L680.2,410.83L679.29,410.57L678.72,412.35L677.53,412.32L675.14,414.37L673.45,413.6L672.52,414.39L671.78,414.28L671.16,413.18L668.33,411.03L667.78,409.69L666.21,410.12L665.22,409.18L664.05,408.48L663.45,407.37L662.07,407.39L660.82,406.94L660.11,406.21L658.79,405.82L657.48,405.87L656.55,405.22L654.98,404.82L654.48,405.22L652.76,407.59L651.59,408.3L650.84,409.49L649.6,409.97L646.99,411.31L646,412.69L646.1,413.98L645.75,415.78L644.55,416.78L644.34,418.32L643.72,418.96L642.07,419.7L641.44,420.56L639.62,421.75L639.3,423.51L638.24,424.53L637.88,425.55L636.67,427.15L636.26,429.05L635.17,430.05L634.99,430.99L636.15,432.36L633.53,434.72L631.98,436.66L632.08,439.12L632.63,439.51L631.46,441.12L631.41,441.86L630.74,443.18L628.66,444.12L626.92,443.66L626.87,442.88L627.5,442.03L627.71,440.48L627.03,440.03L626.87,439.15L627.27,438.03L626.95,437.27L627.16,436.15L625.89,435.16L626.76,432.7L626.11,430.62L625.22,429.89L625.15,428.89L623.5,429.18L622.87,428.04L622.22,429.29L621.61,429.83L619.63,429.68L618.89,429.89L618.41,429.12L617.74,429.83L616.57,430.05L615.35,429.74L614.23,429.99L613.71,429.48L611.93,429.68L611.15,428.71L610.04,428.49L609.39,426.64L608.68,426.84L607.15,425.79L604.68,425.96L603.33,427.13L602.78,427.3L601.88,425.58L602.66,423.82L602.61,422.49L601.99,420.62L600.99,419.98L600.92,419.14L599.94,418.9L599.3,418.31L598.17,418.25L597.46,419.22L596.33,418.96L595.43,419.19L593.81,418.97L593.68,418.09L592.07,417.18L591.02,417.27L590.03,415.78L588.39,414.06L587.72,414.49L587.14,415.65L586.23,416.38L585.88,415.78L583.44,415.99L581.87,415.84L581.13,415.22L579.1,416.22L578.95,417.66L577.99,418.93L577.68,419.94L577.88,421.04L577.4,421.69L575.62,422.68L575.03,424.76L573.61,425.95L571.71,426.86L570.02,427.35L569.16,426.44L569.71,425.71L569.01,425.13L568.03,424.99L567.58,426.52L567.14,426.75L565.07,426.47L564.48,425.73L563.45,425.79L561.58,425.22L560.55,425.3L560.11,425.85L558.45,425.41L552.87,425.07L551.26,424.48L549.04,424.1L548.39,424.87L547.41,425.01L545.4,424.43L543.87,424.64L541.62,423.97L539.76,423.19L538.55,422.15L537.06,421.57L536.03,420.7L535.07,420.45L534.27,419.82L532.73,419.47L531.38,417.78L529.85,416.58L529.25,416.46L528.36,415.37L528.54,413.95L529.2,412.9L528.07,412.7L526.56,413.18L525.65,412.46L525.95,411.44L524.93,410.23L524.06,410.66L522.99,408.72L522.21,409.57L521.18,408.82L521.27,407.94L519.48,408.04L518.82,407.28L517.81,407.2L517.32,406.6L518.28,406.03L518.12,405.45L517.04,404.23L516.26,405.07L513.56,405.04L510.88,404.65L509.47,407.19L508.16,408.24L506.69,407.65L504.48,407.25L503.82,406.81L501.5,407.42L501.14,406.66L499.99,405.76L498.25,403.55L496.99,402.89L495.75,403.1L494.63,401.42L492.56,401.23L491.54,401.49L490.48,401.32L488.45,400.04L486.68,399.48L487.91,396.93L488.54,396.98L488.87,395.86L490.57,394.5L491.28,393.2L492.84,391.85L493.96,391.65L495.19,394.27L496.68,394.1L497.65,394.84L497.96,393.45L499.05,392.73L498.94,390.86L499.69,390.72L500.8,391.31L502.46,390.33L503.5,390.24L504.55,391.2L505.9,393.23L506.77,392.78L506.81,391.52L507.35,390.11L508.4,390.56L508.79,388.26L509.35,388.47L511.12,388.38L512.57,387.39L512.86,385.51L513.39,384.91L514.49,384.52L514.84,383.57L515.76,384.18L516.51,383.12L517.86,383.43L518.11,382.98L519.82,383.85L520.83,382.44L521.52,380.29L521.63,379.22L522.47,379.2L523.76,379.79L524.65,380.81L525.57,379.82L526.59,379.22L526.6,378.08L527.62,377.9L528.19,377.18L529.31,376.51L530.09,377.99L530.42,379.17L531.43,380.13L532.92,381.09L534.22,381.17L535.55,380.41L536.6,378.61L537.91,379.09L538.96,378.64L539.84,379.62L540.36,379.18L541.75,379.62L542.54,379.09L543.97,378.84L545.39,379.49L546.17,378.25L546.9,378.64L548.2,378.14L547.45,376.69L546.48,376.14L547.47,374.88L549.66,374.11L551.49,374.34L552.03,373.92L553.81,373.74L554.65,374.23L555.69,372.48L555.99,371.55L555.41,370.89L556.21,370.01L557.35,370.13L558.56,369.17L560.49,367.27L560.76,365.21L558.45,363.92L557.56,363.14L557.73,361.83L557.42,360.7L556.28,359.73L556.95,358.19L557.96,357.82L559.13,357.99L560.06,357.18L560.77,357.52L561.14,356.53L560.53,354.85L561.18,354.15L559.83,352.76L557.49,352.31L557.46,349.93L558.12,347.9L559.26,345.86L560.69,346.03L561.92,345.66L562.48,344.12L559.59,342.4L559.45,341.53L559.72,340L561.09,339.41L561.78,338.18L562.43,338.04L563.09,336.62L562.79,334.77L565,334.1L566.88,333.04L567.44,332.01L568.22,331.72L568.75,332.57L569.67,331.39L570.57,331.39L571.61,330.06L572.69,329.39L571.39,327.44L571.96,326.62L571.16,325.34L572.06,323.05L571.89,321.89L571.11,319.01L571.41,318.45L570.72,317.57L570.48,316.26L570.81,315.32L571.47,315.1L572.19,314.16L571.36,312.9L572.87,312.08L571.63,310.14L570.84,309.8L569.93,308.75L570.77,307.76L571.25,308.64L572.61,308.48L572.75,307.71L573.54,307.2L574.27,305.82L575,305.66L575.56,304.8L575.95,303.45L575.57,302.15L574.74,301.18L574.24,301.43L572.8,301.27L571.29,299.28L572.21,298.72L573.19,297.47L573.38,295.25L573.13,294.55L574,295.43L576,294.17L575.63,293.07L577.75,291.83L579.14,292.3L578.7,293.64L580.53,292.84L581.41,293.01L582.45,291.97L583.42,291.69L584.32,292.95L587.71,293.15L588.62,292.79L588.66,290.52L589.12,290.06L589.27,287.31L589.9,286.84L592.97,288.02L593.55,287.6L594.96,288.4L596.08,287.67L596.79,286.67L597.93,287.12L599.58,288.62L600.59,287.67L601.85,287.53L602.7,288.1L603.84,287.91L606.11,288.3L606.42,289.26L609.9,290.55L612.36,292.18L612.96,292.32L615.22,291.77L614.74,292.54L613.61,293.07L614.45,294.77L614.3,295.74L613.36,295.69L612.41,294.92L611.71,295.11L609.53,294.34L608.94,295.32L609.26,297.36L609.63,297.94L608.49,300.1L608.86,300.48L611.84,300.68L614.17,302L615.57,302.12L615.85,302.5L614.94,303.58L615.42,304.74L615.27,305.4L613.87,306.29L613.25,308L613.82,308.48L613.7,309.41L614.49,311.11L614.34,313.1L614.56,313.83L615.51,314.76L616.61,314.99L616.38,316.01L617.49,316.85L617.46,317.76L615.87,318.54L614.77,318.56L614.8,319.7L614.18,320.67L615.65,322.34L617.46,323.01L618.49,324.34L620.1,325.01L621.19,324.97L622.8,323.19L624.1,322.61L624.08,320.45L625.27,319.33L626.09,317.7L625.61,316.92L625.59,315.07L625.07,313.77L624.53,313.65L623.48,312.58L623.76,311.58L623.3,310.63L623.82,310.2L624.03,309.06L625.26,308.23L628.18,309.25L628.95,309.06L630.71,311.91L631.6,312.9L631.53,314.02L632.26,316.09L634.03,319.72L634.96,319.81L634.98,323.91L637.02,324.09L637.94,325.01L639.23,325.19L640.84,323.51L641.01,324.28L640.36,325.58L638.52,326.22L637.84,327.28L638.39,327.86L638.29,328.81L638.93,329.42L640.78,330.31L641.67,331.03L643.22,331.53L644.47,332.39L644.76,331.93L646.27,332.73L646.98,332.78L648.13,334.95L648.9,334.63L649.44,335.31L649.11,336.52L649.48,337.44L649.83,339.45L650.42,339.5L651.21,342.57L649.8,345.58L648.67,346.27L648.22,347.17L649.02,347.62L650.04,349.4L649.99,350.15L649,351.91L649.66,352.26L650.5,353.98L650.73,355.16L651.88,355.52L650.67,356.79L650.88,358.1L652.37,357.82L653.89,358.3L654.41,357.18L655.12,356.76L655.66,357.98L655.12,359.34L655.27,360.5L654.48,361.82L654.09,363.84L653.34,363.65L652.69,364.52L651.92,364.77L650.74,364.46L649.51,367.12L649.58,369.14L648.72,369.76L648,369.34L646.74,369.34L646.63,370.72L647.18,372.14L646.66,373.07L647.23,373.57L648.47,373.67L649.14,373.27L649.83,373.81L650.41,373.11L652.7,372.21L654,372.01L655.34,370.97L656.93,370.94L657.21,373.07L658.21,373.69L658.71,375.18L658.39,377.03L657.84,377.73L657.49,379.04L660.77,379.46L660.71,380.44L662.24,379.98L663.24,382.02L663.19,383.06L664.28,382.64L666.43,382.6L666.98,383.42L668.11,383.43L668.81,382.84L670,383.37L670.02,383.88L671.93,384.54L671.37,385.6L671.52,386.18L671.09,388.66L673.43,389.23L673.96,388.58L675.39,388.21L675.65,389.37L677.53,391.51L679.06,392.7L680.9,391.48L681.7,391.63L683.06,391L683.4,392.05L684.2,391.93L685.64,391.11L686.82,392.55L688.17,392L690.97,393.54L691.31,394.14L690.39,395.74L689.95,397.38L690.72,398.28L692.26,397.35L694.37,398.96L696.31,399.27L697.47,401.36L697.76,402.42L698.49,403.2L698.6,404.09L699.67,404.77L699.55,405.47Z" class="land" id="CZ-64" title="Jihomoravský"/>
    <path d="M679,188.27L678.84,189.79L678.3,190.51L678.75,192.18L678.09,194.66L677.5,195.18L675.73,195.42L674.98,194.98L674.46,194.07L673.49,193.59L673.11,194.85L671.6,196.29L670.67,198.47L669.75,199.36L668.01,198.42L666.72,198.87L666,201.24L665.13,201.65L664.39,201.2L663.79,201.74L663.04,203.14L661.53,205.24L659.73,205.9L659.92,208.3L660.63,209.27L660.12,210.49L658.22,211.74L657.71,212.49L658.6,214.58L658.47,215.63L659.02,217.97L658.5,219.81L657.48,221.12L656.48,221.77L654.49,223.53L653.33,225.68L652.48,226.48L652.27,228.14L652.76,229.58L652.44,230.54L650.82,231.33L651.42,232.08L652.36,232.52L653.88,233.82L654.65,234.18L655.41,235.27L655.74,236.57L654.43,239.24L653.31,239.32L652.95,240.08L651.52,241.15L651.47,242.26L652.42,242.76L652.35,244.23L650.97,246L650.14,246.42L649.94,247.51L650.77,248.19L651.28,249.45L652.43,250.05L653.18,252.42L653.95,253.16L654.76,252.28L657.1,251.96L657.43,253.57L656.83,254.31L656.29,255.86L656.49,256.62L658.02,256.9L658.71,256.19L660.62,256.51L662.89,257.34L665.22,259.01L666.15,258.78L666.73,259.23L667.8,259.26L667.9,260.51L668.97,259.28L670.41,259.11L671.42,258.3L672.89,259.55L674.9,262.05L676.54,263.2L676.9,264.16L676.72,264.95L677.74,266.04L677.06,266.48L678.88,267.22L680.64,266.23L682.6,266.92L684.36,266.9L685.35,269.03L687.93,269.64L689.11,267.66L689.45,266.38L692.67,267.72L694.72,270.48L695.61,270.68L696.88,270.46L697.21,269.5L699.35,267.91L701.81,268.84L702.1,269.64L702.98,269.5L704.06,269.99L703.93,270.71L704.9,271.41L706.08,270.93L705.66,272.55L704.81,273.65L704.39,275.18L705,277.73L704.91,278.86L705.57,279.76L707.32,280.75L709.75,281.09L709.85,279.72L710.21,279.25L711.5,280.48L712.18,281.97L713.29,283.31L713.17,284.56L713.67,285L714.19,286.64L715.22,286.21L715.95,287.2L717.89,288.21L718.22,289.13L719.79,290.34L720.52,291.83L720.95,291.83L721.68,294.28L722.9,295.02L720.75,297.39L722.02,298.34L721.94,299.33L722.78,300.3L723.78,298L724.77,297.12L726.25,297.29L727.4,298.53L727.09,299.43L727.86,300.07L728.17,301.35L727.85,303.14L726.57,304.64L726.65,305.62L725.2,305.93L724.4,305.21L722.86,304.99L722.77,304.49L721.35,304.49L720.45,305.24L720.46,306.59L719.23,307.29L717.58,307.4L717.35,308.7L715.47,309.45L716.4,311.99L715.44,313.01L714.14,313.83L714.54,314.38L713.77,316.62L712.93,317L711.43,316.93L710.41,317.54L709.53,317.42L707.38,316.13L707.29,315.2L705.57,313.47L704.92,313.77L703.82,313.26L703.24,315.1L703.41,316.35L702.01,316.74L701.03,314.99L699.2,315.76L698.5,316.54L699.83,317.59L699.63,317.96L701.01,319.61L701.24,320.59L699.66,321.89L698.69,323.37L695.46,323.09L695.18,322.2L694.15,321.86L689.37,322.59L688.8,323.58L688.19,322.78L687.32,323.55L687.51,325.59L686.45,326.34L685.88,327.44L683.25,330.04L682.93,328.45L682.19,327.31L680.65,326.33L679.24,326.05L677.68,326.22L677.26,325.62L674.85,324.92L674.53,325.91L673.14,326.11L673.53,322.7L672.74,321.33L672.06,321.39L671.15,322.28L669.98,324.3L669.21,324.62L668.99,325.61L669.43,327.97L670.24,329.47L671.03,330.12L670.81,330.92L671.25,331.84L670.35,331.97L669.11,333.03L667.81,333.74L666.49,336.23L666.01,336.4L664.97,338.35L663.33,339.31L662.24,339.19L661.1,338.5L659.69,339.39L658.41,338.89L656.9,339.72L656.41,340.33L654.76,340.03L653.67,340.44L653.57,341.9L653.14,343.63L651.21,342.57L650.42,339.5L649.83,339.45L649.48,337.44L649.11,336.52L649.44,335.31L648.9,334.63L648.13,334.95L646.98,332.78L646.27,332.73L644.76,331.93L644.47,332.39L643.22,331.53L641.67,331.03L640.78,330.31L638.93,329.42L638.29,328.81L638.39,327.86L637.84,327.28L638.52,326.22L640.36,325.58L641.01,324.28L640.84,323.51L639.23,325.19L637.94,325.01L637.02,324.09L634.98,323.91L634.96,319.81L634.03,319.72L632.26,316.09L631.53,314.02L631.6,312.9L630.71,311.91L628.95,309.06L628.18,309.25L625.26,308.23L624.03,309.06L623.82,310.2L623.3,310.63L623.76,311.58L623.48,312.58L624.53,313.65L625.07,313.77L625.59,315.07L625.61,316.92L626.09,317.7L625.27,319.33L624.08,320.45L624.1,322.61L622.8,323.19L621.19,324.97L620.1,325.01L618.49,324.34L617.46,323.01L615.65,322.34L614.18,320.67L614.8,319.7L614.77,318.56L615.87,318.54L617.46,317.76L617.49,316.85L616.38,316.01L616.61,314.99L615.51,314.76L614.56,313.83L614.34,313.1L614.49,311.11L613.7,309.41L613.82,308.48L613.25,308L613.87,306.29L615.27,305.4L615.42,304.74L614.94,303.58L615.85,302.5L615.57,302.12L614.17,302L611.84,300.68L608.86,300.48L608.49,300.1L609.63,297.94L609.26,297.36L608.94,295.32L609.53,294.34L611.71,295.11L612.41,294.92L613.36,295.69L614.3,295.74L614.45,294.77L613.61,293.07L614.74,292.54L615.22,291.77L614.9,291.08L615.55,288.21L616.05,287.19L614.87,285.69L615.19,284.56L615.11,282.95L615.75,282.11L617.48,280.6L618.62,279.91L619.47,278.97L619.13,278.25L619.56,275.87L618.86,275.01L619.6,273.43L619.27,272.77L617.64,271.55L615.33,270.95L615.09,271.67L613.69,271.74L613.6,271.07L614.57,270.62L615.36,269.71L615.96,268.43L614.05,266.97L614.43,265.69L615.2,265.31L614.55,264.34L613.53,264.05L611.76,261.78L610.73,260.71L610.31,259.74L610.63,258.68L610.46,257.23L608.26,255.61L608.2,254.66L608.48,250.64L610.46,249.5L610.9,248.71L609.85,245.51L610.4,244.25L609.9,243.12L610.27,242.48L610.31,241.21L609.26,240.44L609.83,239.35L609,238.95L607.98,237.06L608.12,233.75L607.61,233.2L607.34,231.63L606.55,231.1L606.07,230.18L605.83,228.8L607.25,228.22L610.2,228.49L611.72,227.36L611.4,226.24L613.47,224.78L614.19,223.88L615.62,224.01L615.59,222.42L616.63,221.49L615.65,220.22L616.11,219.05L614.73,218L615.1,216.91L615.96,215.83L617.13,215.1L615.31,211.49L615.66,210.9L616.86,210.77L617.54,210.19L617.45,208.43L618.05,208.57L618.7,205.89L619.3,204.89L619.83,202.38L621.56,200.47L621.73,198.88L621.44,197.12L622.19,197.34L623.32,196.87L623.48,195.01L623.89,194.26L624.76,193.96L624.96,193.2L626.81,192.64L627.83,193.23L630.73,193.26L631.61,192.16L631.48,190.6L632.72,189.79L633.26,190.33L633.37,191.4L634.49,192.65L635.23,194.32L636.79,193.7L637.97,191.92L636.39,190.24L636.39,189.12L635.43,187.79L636.3,187.23L637.1,185.78L637.23,184.54L636.87,183.17L635.31,180.5L634.35,180.55L632.46,179.53L631.93,178.4L631.03,178.99L629.82,178.56L629.18,177.79L628.54,176.1L628.71,174.17L627.93,173.74L626.46,171L626.88,170.16L626.5,167.83L625.94,167.54L625.57,166.49L624.53,166.68L624.07,165.82L621.9,164.49L621.23,163.6L621.67,161.8L622.5,160.44L623.09,158.24L624.23,158.16L624.79,157.45L625.85,157.36L627.75,158.86L629.47,159.47L631.85,161.21L632.48,162.1L635.23,160.74L636.44,162.1L637.48,161.64L638,162.42L638.89,162.69L640.41,163.94L643.49,164.22L645.58,164.05L646.33,164.33L646.34,166.07L647.63,166.01L649.65,168.05L651.05,168.21L651.68,167.62L653.18,167.33L653.87,166.68L655.78,167.29L655.31,168.98L655.5,170.68L656.5,171.48L658.24,174.05L659.17,174.54L660.36,175.78L662.27,176.31L663.4,177.55L664.83,178.11L666.97,177.68L668.63,176.58L670.7,176.48L669.87,177.41L669.57,178.84L670.61,179.07L671.1,179.61L670.49,181.02L670.3,182.22L670.59,182.98L669.73,183.54L670.56,186.23L670.98,186.63L672.16,186.47L672.18,184.08L673.08,183.71L674.89,183.71L675.97,184.21L676.63,185.08L677.89,184.53L679.04,186.87Z" class="land" id="CZ-71" title="Olomoucký"/>
    <path d="M701.05,408.16L699.55,405.47L699.67,404.77L698.6,404.09L698.49,403.2L697.76,402.42L697.47,401.36L696.31,399.27L694.37,398.96L692.26,397.35L690.72,398.28L689.95,397.38L690.39,395.74L691.31,394.14L690.97,393.54L688.17,392L686.82,392.55L685.64,391.11L684.2,391.93L683.4,392.05L683.06,391L681.7,391.63L680.9,391.48L679.06,392.7L677.53,391.51L675.65,389.37L675.39,388.21L673.96,388.58L673.43,389.23L671.09,388.66L671.52,386.18L671.37,385.6L671.93,384.54L670.02,383.88L670,383.37L668.81,382.84L668.11,383.43L666.98,383.42L666.43,382.6L664.28,382.64L663.19,383.06L663.24,382.02L662.24,379.98L660.71,380.44L660.77,379.46L657.49,379.04L657.84,377.73L658.39,377.03L658.71,375.18L658.21,373.69L657.21,373.07L656.93,370.94L655.34,370.97L654,372.01L652.7,372.21L650.41,373.11L649.83,373.81L649.14,373.27L648.47,373.67L647.23,373.57L646.66,373.07L647.18,372.14L646.63,370.72L646.74,369.34L648,369.34L648.72,369.76L649.58,369.14L649.51,367.12L650.74,364.46L651.92,364.77L652.69,364.52L653.34,363.65L654.09,363.84L654.48,361.82L655.27,360.5L655.12,359.34L655.66,357.98L655.12,356.76L654.41,357.18L653.89,358.3L652.37,357.82L650.88,358.1L650.67,356.79L651.88,355.52L650.73,355.16L650.5,353.98L649.66,352.26L649,351.91L649.99,350.15L650.04,349.4L649.02,347.62L648.22,347.17L648.67,346.27L649.8,345.58L651.21,342.57L653.14,343.63L653.57,341.9L653.67,340.44L654.76,340.03L656.41,340.33L656.9,339.72L658.41,338.89L659.69,339.39L661.1,338.5L662.24,339.19L663.33,339.31L664.97,338.35L666.01,336.4L666.49,336.23L667.81,333.74L669.11,333.03L670.35,331.97L671.25,331.84L670.81,330.92L671.03,330.12L670.24,329.47L669.43,327.97L668.99,325.61L669.21,324.62L669.98,324.3L671.15,322.28L672.06,321.39L672.74,321.33L673.53,322.7L673.14,326.11L674.53,325.91L674.85,324.92L677.26,325.62L677.68,326.22L679.24,326.05L680.65,326.33L682.19,327.31L682.93,328.45L683.25,330.04L685.88,327.44L686.45,326.34L687.51,325.59L687.32,323.55L688.19,322.78L688.8,323.58L689.37,322.59L694.15,321.86L695.18,322.2L695.46,323.09L698.69,323.37L699.66,321.89L701.24,320.59L701.01,319.61L699.63,317.96L699.83,317.59L698.5,316.54L699.2,315.76L701.03,314.99L702.01,316.74L703.41,316.35L703.24,315.1L703.82,313.26L704.92,313.77L705.57,313.47L707.29,315.2L707.38,316.13L709.53,317.42L710.41,317.54L711.43,316.93L712.93,317L713.77,316.62L714.54,314.38L714.14,313.83L715.44,313.01L716.4,311.99L715.47,309.45L717.35,308.7L717.58,307.4L719.23,307.29L720.46,306.59L720.45,305.24L721.35,304.49L722.77,304.49L722.86,304.99L724.4,305.21L725.2,305.93L726.65,305.62L726.57,304.64L727.85,303.14L728.17,301.35L729.85,301.12L732.46,301.21L734.05,301.46L734.55,302.37L736.06,303.86L735.86,305.24L736.53,306.81L738.14,306.71L740.08,305.47L744.57,304.99L745.34,304.61L747.97,304.63L749.7,304.17L750.61,305.94L752.9,305.29L753.54,304.72L754.73,306.57L756.27,308.29L757.3,308.98L758.97,308.47L759.72,309.2L762.46,310.05L763.16,309.77L764.18,308.54L766.22,308.58L767.51,309L767.66,310.72L768.11,312.94L768.94,313.49L769.75,315.06L771.62,315.82L772.5,315.68L773.31,317.07L773.29,317.86L774.14,318.01L774.61,319.18L774,322.19L774.69,322.03L776.5,323.14L778.03,323.62L779.14,327.58L778.92,328.36L777.44,329.89L777.93,330.73L776.54,331.5L775.36,333.76L774.07,334.93L770.04,336.16L767.55,337.38L767.32,337.93L764.85,338.67L763.85,339.25L762.44,339.64L761.1,339.41L760.36,339.69L756.43,340.41L755.68,340.8L755.71,343.21L754.91,344.24L753.55,345.07L753.2,345.83L751.96,346.69L751.67,349.38L752.66,349.87L752.59,351.72L752.02,352.26L751.98,353.7L751.36,354.88L750.13,356.28L750.13,359.06L750.64,360.36L749.92,361.26L748.79,361.93L748.85,362.97L748.1,364.59L748.92,365.86L748.17,368.08L748.67,370.94L746.79,374.98L746.88,376.33L746.16,376.9L743.95,379.76L742.14,380.41L740.04,381.42L739.3,382.04L737.82,382.01L735.58,381.43L734.25,382.16L732.06,381.87L730.13,381.99L729.12,382.71L727.87,384.04L727.76,386.55L726.75,388.58L726.47,389.87L726.59,391.37L726.22,392.89L725.28,394.99L725,396.67L723.45,397.58L721.7,396.94L718.47,396.99L717.28,397.25L714.85,397.27L714.39,398.83L713.31,399.33L712.11,400.41L710.04,403.85L708.18,405.25L706.67,407.25L704.81,407.05L703.07,408.07Z" class="land" id="CZ-72" title="Zlínský"/>
    <path d="M778.03,323.62L776.5,323.14L774.69,322.03L774,322.19L774.61,319.18L774.14,318.01L773.29,317.86L773.31,317.07L772.5,315.68L771.62,315.82L769.75,315.06L768.94,313.49L768.11,312.94L767.66,310.72L767.51,309L766.22,308.58L764.18,308.54L763.16,309.77L762.46,310.05L759.72,309.2L758.97,308.47L757.3,308.98L756.27,308.29L754.73,306.57L753.54,304.72L752.9,305.29L750.61,305.94L749.7,304.17L747.97,304.63L745.34,304.61L744.57,304.99L740.08,305.47L738.14,306.71L736.53,306.81L735.86,305.24L736.06,303.86L734.55,302.37L734.05,301.46L732.46,301.21L729.85,301.12L728.17,301.35L727.86,300.07L727.09,299.43L727.4,298.53L726.25,297.29L724.77,297.12L723.78,298L722.78,300.3L721.94,299.33L722.02,298.34L720.75,297.39L722.9,295.02L721.68,294.28L720.95,291.83L720.52,291.83L719.79,290.34L718.22,289.13L717.89,288.21L715.95,287.2L715.22,286.21L714.19,286.64L713.67,285L713.17,284.56L713.29,283.31L712.18,281.97L711.5,280.48L710.21,279.25L709.85,279.72L709.75,281.09L707.32,280.75L705.57,279.76L704.91,278.86L705,277.73L704.39,275.18L704.81,273.65L705.66,272.55L706.08,270.93L704.9,271.41L703.93,270.71L704.06,269.99L702.98,269.5L702.1,269.64L701.81,268.84L699.35,267.91L697.21,269.5L696.88,270.46L695.61,270.68L694.72,270.48L692.67,267.72L689.45,266.38L689.11,267.66L687.93,269.64L685.35,269.03L684.36,266.9L682.6,266.92L680.64,266.23L678.88,267.22L677.06,266.48L677.74,266.04L676.72,264.95L676.9,264.16L676.54,263.2L674.9,262.05L672.89,259.55L671.42,258.3L670.41,259.11L668.97,259.28L667.9,260.51L667.8,259.26L666.73,259.23L666.15,258.78L665.22,259.01L662.89,257.34L660.62,256.51L658.71,256.19L658.02,256.9L656.49,256.62L656.29,255.86L656.83,254.31L657.43,253.57L657.1,251.96L654.76,252.28L653.95,253.16L653.18,252.42L652.43,250.05L651.28,249.45L650.77,248.19L649.94,247.51L650.14,246.42L650.97,246L652.35,244.23L652.42,242.76L651.47,242.26L651.52,241.15L652.95,240.08L653.31,239.32L654.43,239.24L655.74,236.57L655.41,235.27L654.65,234.18L653.88,233.82L652.36,232.52L651.42,232.08L650.82,231.33L652.44,230.54L652.76,229.58L652.27,228.14L652.48,226.48L653.33,225.68L654.49,223.53L656.48,221.77L657.48,221.12L658.5,219.81L659.02,217.97L658.47,215.63L658.6,214.58L657.71,212.49L658.22,211.74L660.12,210.49L660.63,209.27L659.92,208.3L659.73,205.9L661.53,205.24L663.04,203.14L663.79,201.74L664.39,201.2L665.13,201.65L666,201.24L666.72,198.87L668.01,198.42L669.75,199.36L670.67,198.47L671.6,196.29L673.11,194.85L673.49,193.59L674.46,194.07L674.98,194.98L675.73,195.42L677.5,195.18L678.09,194.66L678.75,192.18L678.3,190.51L678.84,189.79L679,188.27L680.02,188.63L681.45,187.85L681.84,185.74L683.02,185.74L685.46,184.96L688.66,185.26L690.65,185.8L692.43,185.53L694.13,184.46L695.29,184.35L695.78,185.59L696.8,186.29L697.65,186.34L701.36,184.43L703,182.41L703.81,182.2L705.07,180.86L705.05,176.53L708.08,177.68L708.61,178.25L709.15,180.51L711.58,181.15L710.59,182.49L709.76,184.59L708.99,185.26L708.8,187.82L710.27,189.24L712.83,191.16L712.05,193.34L712.34,194.23L712.18,195.87L710.63,196.58L709.53,196.49L708.18,195.98L707.47,197.06L707.44,198.2L706.27,199.28L704.23,199.62L702.71,200.36L700.03,201.06L698.7,201.79L698.1,201.54L696.32,201.65L695.34,203.3L696.44,204.65L697.16,206.35L699.96,207.74L700.52,208.39L700.82,210.41L701.17,211.01L702.21,211.28L703.87,212.2L704.54,210.14L705.97,210.14L706.77,210.54L709.33,213.15L709.36,214.66L709.94,215.63L711.23,216.23L711.93,217.76L712.11,219.11L712.82,219.63L713.57,222.01L713.23,222.71L713.91,224.04L713.5,224.61L714.13,225.54L715.69,225.89L716.13,226.63L719.28,226.93L720.1,227.98L719.15,229.55L720.13,229.85L721.68,231.35L722.94,231.89L723.5,232.98L725.04,231.98L725.88,231.87L727.23,232.36L728.64,232.12L732.05,227.88L732.83,227.84L733.62,227.2L735.02,227.84L735.68,226.49L737.25,225.75L737.58,227L740.36,226.97L741.51,226.1L741.14,225.16L741.72,224.23L741.3,222.91L739.3,222.5L738.41,223.77L737.66,223.77L737.23,222.56L737.3,220.25L737.86,220.14L740.21,218.24L741.53,218.89L741.85,219.43L742.99,219.27L743.64,221.12L745.86,221.74L745.44,223.26L747.16,225.15L746.31,226.36L747.58,228.64L749.07,229.51L750.05,228.99L750.62,229.59L751.74,230.02L752.45,231.44L753.76,230.89L754.26,230.24L753.87,228.9L754.49,228.61L756.04,228.82L756.43,229.5L757.8,228.96L758.26,229.89L758.56,232.96L759.34,233.75L760.77,233.22L762.45,233.47L764.99,234.26L765.44,236.58L765.24,237.97L766.09,239.89L767.18,239.84L767.23,240.72L768.93,241.43L770.04,241.32L770.43,240.42L771.56,240.28L771.71,238.99L770.89,238.18L771.35,237.33L773.08,237.56L774.33,238.7L777.09,239.03L779.9,238.4L780.52,238.45L780.82,240L782.04,240.88L783.77,240.93L784.28,241.96L785.83,242.86L786.54,243.82L787.61,243.6L788.48,244.13L791,244.26L792.41,243.11L791.66,242.52L792.23,240.39L793.69,241.67L794.92,241.05L795.32,242.24L795.13,243.2L795.71,243.68L794.89,245.68L795.13,246.19L794.33,247.58L794.71,248.65L795.73,249.31L797.96,249.93L798.09,251.32L796.98,251.43L796.13,252.11L796.72,252.91L796.18,253.67L794.71,254.93L794.81,255.84L796.02,257.5L796.33,259.41L797.07,259.96L797.73,261.83L797.51,262.65L798.86,264.83L799.52,267.64L800.75,268.54L800.54,271.04L800.7,272.49L802.14,274.03L804.62,274.46L804.78,275.45L806.94,274.96L808.46,275.24L809.55,276.69L809.84,278.61L810.91,278.48L811.77,278.81L812.25,279.72L813.12,279.61L814.49,278.44L815.52,278.7L816.37,278.28L817.68,279.27L818.72,279.36L819.21,280.1L818.84,281.3L819.13,282.6L818.81,283.59L819.51,285.44L819.5,286.06L820.23,287.92L820.11,288.88L820.6,289.42L820.47,291.06L821.16,292.48L822.11,292.41L821.31,294.34L822.05,297.76L823.18,298.19L823.44,299.21L824.16,299.5L823.96,301.43L822.55,302.07L822.67,302.84L821.72,304.14L820.63,304.63L819.21,304.85L818.25,305.83L816.59,306.19L814.78,307.67L813.75,308.94L812.49,308.97L811.31,308.04L810.37,307.89L809.19,307.02L807.04,307.24L806.41,306.27L805.3,306.16L804.16,306.71L802.51,306.93L801.64,307.81L800.99,307.51L800.2,307.92L798.27,307.76L798.07,306.09L796.49,305.8L795.66,306.19L794.41,306.12L792.44,307.18L792.3,308.07L791.45,308.5L791.23,309.59L792.06,310.95L792.36,312.54L791.31,313.21L790.86,313.96L790.08,314.16L789.82,315.34L788.28,316.17L787.97,317.21L787.03,317.29L786.84,318.26L785.98,318.79L785.35,320.08L785.24,321.59L783.08,322.75L782.4,323.97L781,324.3L779.78,323.36L778.7,322.87Z" class="land" id="CZ-80" title="Moravskoslezský"/>
  </g>
</svg>