<?xml version="1.0" encoding="UTF-8"?>
<svg xmlns="http://www.w3.org/2000/svg" width="775.73" height="519.3" viewBox="92.13 -2.65 775.73 519.3" style="background-color:#000000">
  <!-- Created using SVG Map Generator: dojo.amcharts.com/svg-map-generator -->
  <style>
    .land { fill: #ffffff; stroke: #000000; stroke-width: 0.65; }
  </style>
  <g id="polygons">
    <path d="M337.5,178.31L342.73,176.19L345.38,176.7L349.18,176.62L350.95,175.52L353.83,175.38L355.88,174.7L358.81,175.2L360.69,176.1L361.9,175.44L362.6,173.28L364.58,173.28L365.21,174.25L367.05,173.53L368.88,176.45L370.11,175.94L370.2,174.14L374.68,174.2L375.82,174.93L376.68,171.9L380.54,170.75L381.12,169.04L385.14,172.06L385.8,174.52L385.66,177.74L387.39,179.48L384.91,182.76L387.63,185.7L386.79,188.16L396.31,188.71L399.07,186.09L402.34,186.04L403.4,186.58L404.53,184.13L408.69,184.72L408.54,188.33L409.81,190.75L410.29,193.16L411.5,194.77L410.51,195.51L412.5,197.75L410.24,200.97L408.73,201.42L409.49,205.3L413.61,207.33L413.3,210.09L414.53,211.19L418.49,212.37L417.75,215.75L417.92,218.61L414.98,221.13L413.45,224.21L414.16,226.07L416.82,227.22L414.95,230.09L414.97,231.32L416.45,232.95L418.37,233.27L418.46,236.56L419.52,237.23L419.93,241.2L424.15,242.57L424.57,243.71L423.61,245.69L427.41,249.48L429.52,250.88L427.56,253.44L430,254.82L430.7,257.42L429.92,259.76L428.42,261.28L427.63,262.75L425.85,263.37L420.79,267.85L421.83,269.21L419.75,272.58L420.57,276.01L420.51,278.13L418.03,278.54L416.34,279.51L415.72,284.16L412.87,283.07L411.51,285.25L408.58,284.97L407.17,283.62L404,284.19L402.26,285.82L399.21,285.81L397.02,284.9L394.92,282.45L392.86,281.72L390.48,279.19L389.2,280.46L389.38,281.93L384.9,281.54L384.13,285.48L380.71,286.32L380.42,283.51L377.48,283.51L376.78,282.78L374.02,283.45L373.61,282.18L370.65,281.4L368.74,280.3L365.97,283.33L365.58,286.65L364.41,286.82L362.58,283.7L363.17,280.97L360.88,280.4L359.58,282.84L357.69,282.63L357.77,281.21L359.5,280.08L360.28,278.63L359.63,275.77L357.5,276.15L354.41,278.18L352.58,277.84L352.56,275.5L350.72,274.85L349.27,276.73L348,275.59L348.58,272.68L346.92,270.86L343.06,270.72L340.08,268.44L339.08,265.62L336.92,264.69L335.38,262.92L333.57,262.23L330.92,263.31L329.27,263.18L327.11,261.94L326.62,260.11L324.66,261.42L323.2,260.61L322.36,259.01L322.49,256.91L321.22,253.1L317.84,251.13L318.55,248.27L319.64,246.81L318.53,242.33L320.18,240.44L319.72,234.9L318.67,233.28L318.77,231.05L319.74,229.08L318.22,226.62L320.67,222.68L325.33,218.73L327.51,218.4L327.69,216.68L329.87,216.54L331.29,217.87L333.49,218.05L336.26,215.07L338.39,216.01L340.25,215.02L338.93,213.26L338.17,209.89L338.78,207.84L337.88,204.42L336.68,203.97L336.54,201.92L337.21,199.58L336.28,198.55L333.93,198.54L334.51,196.06L333.39,194.88L335.68,192.6L335.81,190.96L334.26,189.49L336.46,187.11L336.5,185.11L334.63,183.72L334.49,181.6L337.59,179.47Z" class="land" id="UA-05" title="Vinnytsia"/>
    <path d="M241.95,31.32L243.66,32.96L246.82,33.41L243.99,36.81L244.59,38.37L243.71,39.83L245.9,43.1L244.1,48.21L242.54,50.88L240.34,52.09L240.71,53.43L242.43,54.83L240.92,57.84L244.09,61.83L244.24,66.09L246.23,67.96L249.15,67.37L248.99,68.62L252.69,69.24L251.84,71.02L254.59,74.78L256.72,76L257.05,78.73L259.37,79.26L262.02,82.19L262.35,84.12L258.99,86.18L257.53,85.98L257,88.99L260.13,88.97L263.12,90.98L263.86,94.22L262.8,96.53L257.83,97.43L259.51,98.79L259.03,103.47L260.98,104.58L260.28,106.71L255.51,105.95L254.58,108.19L253.91,111.86L254.18,114.15L251.72,119.1L250.59,116.93L248.33,116.84L246.25,114.48L246.23,113.09L243.68,113.84L236.47,116.9L233.98,116.93L232.89,118.09L233.65,120.92L229.06,120.47L230.62,123.9L229.45,125.81L227.41,126.04L224.9,124.8L222.52,125.09L222.02,126.18L223.6,127.93L222.57,130.94L223.99,133.7L224.22,135.34L225.73,136.26L223.14,138.56L223.88,139.59L221.47,140.88L221.57,142.47L219.23,141.51L218.98,138.88L217.58,138.82L214.29,135.76L214.06,138.65L211.93,138.63L211.14,137.67L207.2,139.01L204.5,138.66L204.84,136.5L202.96,135.11L199.49,134.08L199.66,130.52L198.99,128.8L197.7,128.64L197.47,125.89L195.88,124.44L193.23,125.44L191.48,124.2L191.62,122.38L188.15,121.71L187.56,123.25L184.57,122.7L180.11,117.22L177.9,117.36L176.87,116.22L177.33,114.14L175.19,113.1L174.69,109.93L173.32,109.96L172.32,108.48L173.03,106.44L174.31,105.27L176.04,105.71L178.69,105.38L180.1,104.26L177.88,102.03L176.3,101.35L172.89,97.85L172.31,95.21L170.78,93.93L170.36,89.79L168.85,89.34L167.66,86.31L168.15,83.8L166.82,83.61L165.93,81.99L163.19,79.91L162.21,76.21L160.74,74.75L159.05,74.72L158.66,71.92L161.43,67.19L160.29,64.51L160.06,59.12L158.63,56.95L159.77,54.89L158.44,54.13L157.37,52L159.79,50.81L164.77,49.05L165.26,50.95L166.75,50.49L170.37,51.47L168.94,53.1L173.98,54.98L175.05,53.58L177.33,52.24L179.29,49.12L185.62,45.62L187.63,43.4L186.67,39.78L190.57,34.26L194.41,34.3L198.41,33.71L200.93,32.88L202.75,33.56L204.64,33.3L205.75,34.2L213.26,32.29L215.23,33.27L220.81,29.52L222.67,29.51L225.01,28.3L227.9,28.38L230.46,30.22L234.32,31.69L238.59,31.54L239.34,30.31Z" class="land" id="UA-07" title="Volyn"/>
    <path d="M816.49,299.69L816.11,298.26L817.27,295.29L815.05,294.17L815.03,291.13L806.43,290.53L805.46,288.51L806.09,286.36L804.87,284L797.9,281.32L796.22,279.84L796.85,278.5L795.88,276.97L795.9,275.25L794.35,273.75L791.74,274.14L789.07,273.68L789.2,269.85L790.98,267.91L789.27,265.64L789.11,262.98L785.37,263.48L783.66,260.98L784.22,258.78L782.58,256.47L781.83,248.72L783.93,247.25L784.31,244.42L781.92,243.22L782.79,241.76L782.37,238.59L780.51,236.02L780.29,231.57L776.82,231.48L775.48,231.96L770.96,230.79L771.96,228.93L774.94,227.53L772.92,223.41L774.16,218.61L770,218.87L766.86,217.49L766.19,215.94L767.98,214.79L765.58,212.82L765.24,211.85L766.47,209.66L768.94,208.71L768.52,207.53L765.8,206.93L766.37,200.82L765.57,198.06L764.18,198.07L764.37,193.13L765.91,193.24L766.53,189.76L768.64,189.93L768.4,187.28L770.66,186.18L770.07,184.89L772.68,184.18L771.41,182.85L771.36,180.48L769.71,180.8L768.75,179.32L772.26,175.93L771.19,173.98L771.65,172.4L774.65,171.65L772.13,168.17L773.14,166.65L775.99,165.49L778.02,165.49L780,163.01L778.7,160.18L778.35,156.28L782.28,156.8L784.8,155.99L785.86,159.95L785.73,161.15L788.47,162.69L790.71,161.88L791.58,163.88L793.22,164.4L795.65,163.09L798.33,164.53L799.73,163.36L800.28,165.98L801.57,166.5L803.56,168.51L807,170.57L809.13,170.24L809.45,173.06L811.24,175.09L814.4,173.24L816.2,173.65L817.99,172.33L819.06,170.56L821.05,168.89L822.96,172.11L823.15,174.33L825.52,177.6L829.45,178.74L832.34,177.36L834.14,177.65L836.39,178.87L839.24,179.16L838.81,180.79L839.76,182.49L841.35,186.98L845.21,188.16L847.66,190.74L851.31,190.56L853.15,189.79L854.09,188.18L858.06,187.7L858.8,188.11L861.81,187L861.85,188.3L863.13,190.04L857.79,193.2L857.38,196.9L859.38,200.49L861.99,202.35L864.1,204.62L863.48,208.12L865.22,209.91L864.41,211.66L861.78,211.64L859.21,215.07L857.27,215.58L854.81,219.07L853.46,221.76L853.34,223.58L850.84,223.15L847.8,223.29L846.16,224.61L842.9,223.86L842.04,224.57L843.07,227.18L845.38,228.06L846.99,231.14L846.36,232.09L848.25,233.26L848.66,234.65L852.61,233.95L854.03,235.41L855.67,235.75L856.17,233.58L858.45,233.13L859.29,235.61L855.02,240.64L847.48,237.51L845.89,242.5L843.4,245.3L844.13,247.64L842.99,250.54L841.55,252.42L842.72,253.91L845.46,254.14L847.15,253.49L849.57,254.98L850.29,258.82L849.47,261.21L851.61,262.79L851.98,266.4L853.67,268.98L851.28,270.09L849.59,270.11L852.35,273L855.43,271.21L856.88,275.24L856.36,277.13L853.52,276.87L853.28,279.9L852.13,280.05L851.74,282.4L850.53,284L850.32,286.35L849,287.12L851.04,288.86L846.44,288.94L848.12,291.38L848.26,294.46L847.15,296.43L847.17,299.52L844.73,302.49L839.89,301.74L835.38,302.47L833.97,300.43L832.17,300.72L830.96,302.22L829.77,299.64L827.94,299.94L823.59,299.89L823.28,300.74L818.12,301.42Z" class="land" id="UA-09" title="Luhansk"/>
    <path d="M595.73,233.49L596.74,234.61L599.61,235.92L601.1,235.89L601.82,237.33L605.7,239.17L605.45,240.58L606.92,241.72L611,243.77L613.75,243.61L612.83,238.75L614.08,238.21L614.64,235.42L613.17,233.8L613.66,230.87L615.35,228.24L614.37,226.74L618.03,223.58L617.44,220.99L620.02,222.86L622.25,222.53L623.76,223.54L624.36,221.81L627.03,219.09L632.89,217.89L632.65,216.38L633.77,215.52L636.9,214.85L638.6,215.73L640.79,214.6L643.68,217.45L648.12,216.39L651.12,217.9L659.94,226.17L662.34,227.47L663.51,229.04L665.25,228.54L666.87,228.99L669.61,228.23L669.71,229.34L674.27,229.52L676.82,230.94L681.85,229.09L682.9,227.2L684.45,229.76L687.33,232.57L686.06,234.43L686.36,236.64L688.68,237.83L688.24,239.55L690.74,239.55L692.99,242.21L691.61,245.03L695.38,247.96L697.58,249.25L696.3,251.74L699.08,253.83L697.08,256.74L698.18,257.54L699.34,256.03L700.58,256.94L706.09,249.05L710.72,253L713.51,252.55L714.27,251.5L717.06,251.38L717.34,253.28L719.93,253.3L720.13,255.07L722.15,255.09L723.92,256.64L724.14,258.09L721.79,258.51L720.96,260.6L721.21,264.74L720.52,265.64L720.77,267.81L720.01,269.37L720.4,271.59L722.59,271.33L724.33,271.8L725.44,279.23L722.7,279.88L723.66,286.51L722.08,288.2L721.87,289.46L718.5,288.58L716.45,286.39L714.32,285.85L710.48,286.3L710.63,290.29L710.12,291.8L710.47,294.21L712.3,294L712.81,296.61L708.66,297.57L710.13,299.22L710.44,301.19L705.12,302.7L701.66,302.36L697.32,303.2L696.83,302.23L693.88,302.22L693.11,301.04L689.9,301.47L690.98,297.69L689.12,295.97L688.21,291.51L687.78,287.74L684.51,288.49L684.1,285.52L677.67,287.18L677.32,285.17L674.6,285.38L672.96,282.62L665.2,286.61L665.03,285.46L657.29,283.64L655.37,282.27L653.47,282.9L652.32,282.34L650.23,283.19L647.25,283.1L645.45,283.76L644.47,285.25L639.34,285.71L639.35,283.16L636.84,283.03L637.68,287.99L636.17,288.32L637.32,292.59L638.88,292.48L639.33,295.68L634.48,296.82L635.12,300.03L636.98,299.17L638.34,306.67L641.05,306.19L641.04,309.67L640.3,311.93L638.91,312.33L639.32,314.61L640.5,316.69L639.49,317.79L641.03,318.73L641,321.02L639.36,321.81L637.37,321.89L631.43,320.51L628.51,319.35L625.82,319.15L619.27,321.34L613.82,321.92L609.85,323.69L606.23,324.58L600.21,325.8L599.04,324.81L597.31,322.16L585.06,324.14L584.69,322.33L582.7,321.98L582.8,319.62L582.27,316.84L577.97,317.71L578.35,320.41L571.6,321.7L571.18,323.73L567.99,321.26L567.73,319.46L561.58,318.21L561.64,316.99L556.15,317.46L557.51,315.74L556.49,309.17L560.69,308.09L560.13,302.2L561.12,301.91L560.63,299.06L561.05,296.64L558.41,297.13L557.71,293.61L557.82,292.22L559.21,290.48L559.42,289.18L562.34,288.84L564.39,286.1L567.31,285.55L567.37,283.44L566.77,280.52L568.03,280.43L569.26,281.69L569.44,284.84L571.16,283.86L570.14,281.95L576.04,280.59L575.95,279.51L578.12,279.1L579.04,276.8L580.92,276.26L580.29,273.84L579.36,272.74L579.64,270.42L577.9,270.51L577.63,266.7L578.59,265.64L577.68,257.33L579.36,255.09L582.53,254.68L583.7,253.17L585.74,253.96L590.13,251.38L589.88,249.48L591.77,249.12L591.97,247.4L589.64,247.8L586.77,245.14L584.02,244.77L582.63,243.11L582.51,240.36L585.62,240.6L586.45,239.13L588.27,239.46L588.55,240.74L591.54,240.49L592.46,241.79L593.87,241.96L593.86,240.04L594.96,237.38Z" class="land" id="UA-12" title="Dnipropetrovsk"/>
    <path d="M765.24,211.85L765.58,212.82L767.98,214.79L766.19,215.94L766.86,217.49L770,218.87L774.16,218.61L772.92,223.41L774.94,227.53L771.96,228.93L770.96,230.79L775.48,231.96L776.82,231.48L780.29,231.57L780.51,236.02L782.37,238.59L782.79,241.76L781.92,243.22L784.31,244.42L783.93,247.25L781.83,248.72L782.58,256.47L784.22,258.78L783.66,260.98L785.37,263.48L789.11,262.98L789.27,265.64L790.98,267.91L789.2,269.85L789.07,273.68L791.74,274.14L794.35,273.75L795.9,275.25L795.88,276.97L796.85,278.5L796.22,279.84L797.9,281.32L804.87,284L806.09,286.36L805.46,288.51L806.43,290.53L815.03,291.13L815.05,294.17L817.27,295.29L816.11,298.26L816.49,299.69L811.54,299.79L808.17,299.35L806.32,300.16L806.01,303.19L804.38,303.26L804.02,304.91L804.37,308.1L803.52,308.85L803.65,311.5L802.02,310.59L799.09,310.61L799.18,312.49L797.56,312.51L797.05,314.09L790.37,314.14L790.2,315.73L785.73,315.86L785.72,318.33L783.92,318.35L782.8,320.42L782.98,324.58L783.63,324.9L783.57,330.06L781.77,331.23L780.12,334.16L780.21,335.35L785.09,335.5L784.48,338.57L782.96,339.57L781.21,339.72L780.84,342.01L780.83,345.81L779.89,347.78L777.73,350.41L776.47,350.63L774.94,348.07L773.37,347.57L772,348.99L769.34,348.66L766.17,347.65L763.02,348.92L758.12,349.61L754.84,348.67L751.06,349.52L750.45,351.35L749.05,351.91L746.6,355.83L744.87,357.74L742.51,361.39L740.31,358.74L738.15,357.71L735.08,360.02L733.4,360.42L730.85,361.89L729.07,359.05L732.11,356.58L734.14,355.83L732,354.17L733.47,352.1L731.6,351.6L728.47,349.99L728.55,347.47L727.39,346.76L725.9,344.56L723.4,343.84L723.23,341.67L726.57,341.98L725.96,340.2L725,334.64L725.96,335.09L731.6,334.9L733.28,333.28L732.72,331.06L733.96,330.74L735.03,333.18L736.72,332.32L736.37,331.21L738,327.22L738.46,325.2L736.22,325.09L734.74,326.06L731.71,323.36L729.1,319.82L725.82,318.47L723.6,320.24L720.83,315.44L718.09,316.77L716.41,314.98L716.13,313.22L718.51,312.81L719.24,311.55L715.92,311.91L714.79,308.79L714.13,304.65L710.61,305.15L710.44,301.19L710.13,299.22L708.66,297.57L712.81,296.61L712.3,294L710.47,294.21L710.12,291.8L710.63,290.29L710.48,286.3L714.32,285.85L716.45,286.39L718.5,288.58L721.87,289.46L722.08,288.2L723.66,286.51L722.7,279.88L725.44,279.23L724.33,271.8L722.59,271.33L720.4,271.59L720.01,269.37L720.77,267.81L720.52,265.64L721.21,264.74L720.96,260.6L721.79,258.51L724.14,258.09L723.92,256.64L722.15,255.09L720.13,255.07L719.93,253.3L717.34,253.28L717.06,251.38L716.19,247.56L716.91,246.31L715.81,242.23L717.49,240.95L721.27,241.9L721.97,240.12L726.75,240.6L729.47,243.46L729.98,242.41L727.95,240.87L729.14,239.1L730.99,239.36L732.3,236.97L736.27,239.34L736.33,235.16L737.8,233.32L739.56,232.33L742.07,232.42L742.27,231.54L740.72,229.15L741.41,228.09L743.91,226.71L744.56,224.07L745.91,223.26L747.35,223.81L749.05,223.29L749.8,222.11L748.89,220.75L751.35,220.05L755.2,217.97L754.08,216.68L749.52,214.97L751.98,212.47L754.37,212.12L762.06,214.12L764.16,214.25Z" class="land" id="UA-14" title="Donetsk"/>
    <path d="M402.46,68.37L403.97,68.77L404.16,72.54L402.32,75.95L398.6,76.56L399.75,82.31L404.79,85.64L406.75,88.5L408.85,90.42L406.9,93.44L407.01,95.54L404.76,95.5L404.7,97.94L405.74,98.3L407.34,101.06L409.38,103.48L408.08,107.28L408.91,109.74L411.56,109.94L412.66,112.77L411.77,114.85L409.82,117.16L407.13,119.28L406.68,120.39L408.21,121.96L408.54,124.82L406.82,127.18L408.74,128.13L408.91,130.04L407.68,133.55L410.93,133.4L413.53,137.35L413.84,139.64L416.2,140.88L415.62,143.91L416.47,146.53L414.69,149.47L416.72,151.4L414.86,154.6L416.86,156.95L416.03,159.41L416.61,161.72L418.53,165.18L416.84,167.86L413.64,171.37L411.69,172.32L408.83,172.44L407.76,174.56L406.15,174.74L406.87,177.26L406.24,180.54L408.09,180.86L408.08,183.37L408.69,184.72L404.53,184.13L403.4,186.58L402.34,186.04L399.07,186.09L396.31,188.71L386.79,188.16L387.63,185.7L384.91,182.76L387.39,179.48L385.66,177.74L385.8,174.52L385.14,172.06L381.12,169.04L380.54,170.75L376.68,171.9L375.82,174.93L374.68,174.2L370.2,174.14L370.11,175.94L368.88,176.45L367.05,173.53L365.21,174.25L364.58,173.28L362.6,173.28L361.9,175.44L360.69,176.1L358.81,175.2L355.88,174.7L353.83,175.38L350.95,175.52L349.18,176.62L345.38,176.7L342.73,176.19L337.5,178.31L335.6,179.64L333.17,177.09L332.99,174.73L329.31,173.98L327.4,168.5L325.25,166.07L326.06,164.36L325.33,160.82L326.54,160.28L328,161.25L329.31,159.1L331.09,158.34L330.44,156.43L328.22,155.8L328.67,153.38L330.33,150.18L329.12,149.08L327.55,146.18L327.44,144.42L325.12,145.2L324.52,146.47L322.47,144.5L320.9,144.21L319.31,142.37L319.69,141.25L317.61,139.58L315.49,139.54L315.59,137.05L312.66,135.29L313.01,133.44L314.44,131.01L313.05,127.32L310.91,126.07L310.3,124.06L311.74,121.22L310.6,120.61L310.96,116.86L312.37,116.54L313.6,113.93L311.96,108.21L312.87,101.56L311.23,100.11L312.11,98.91L310.41,94.56L311.44,92.51L315.94,91.67L315.86,88.99L317.08,88.63L317.74,86.69L317.48,84.96L319.7,80.82L321.53,79.37L322.04,77.77L320.71,73.49L322.99,73.01L324.11,71.32L324.1,69.54L322.94,69L323.51,63.85L324.52,65.16L326.72,65.39L326.66,62.06L328.56,61.76L330.25,59.4L333.4,62.09L336.06,58.36L338.16,57.62L337.16,55.29L338.28,51.58L340.89,52.54L341.2,55.19L342.07,56.52L346.19,55.99L349.48,54.63L351.15,53.08L351.99,50.47L356.03,48.43L355.48,51.68L356.66,52.04L359.74,56.5L361.36,56.98L364.66,54.1L366.69,54.26L368.32,55.67L371.51,55.53L373.69,64.08L375.41,63.69L377.4,65.47L377.65,62.22L377.02,61.38L379.67,56.38L383.24,54.46L385.8,54.38L387.1,55.44L392.04,50.06L394.24,50.05L394.09,51.76L395.9,53.88L396.47,55.82L397.92,55.96L398.22,58.47L397.67,60.79L398.56,63.13L400.1,63.63L400.95,67.15Z" class="land" id="UA-18" title="Zhytomyr"/>
    <path d="M126.49,224.62L128.91,225.98L127.38,227.04L128.02,228.36L126.2,229.92L127.04,233.12L130.09,235.08L130.44,237.09L134.05,237.02L135.37,236.04L137.19,236.8L139.13,239.87L140.14,242.63L141.8,242.77L143.71,241.72L145.42,243.11L146.97,242.08L147.62,243.8L149.57,244.73L152.49,245.04L154.94,244.81L156.78,245.3L158.71,246.63L158.78,247.67L161.64,250.51L164.81,250.42L165.42,253.62L167.96,256.11L170.1,255.5L170.66,257.01L170.76,261.53L172.83,262.06L174.04,259.06L175.67,259.35L179.34,257.28L179.51,261.82L180.27,263.75L180.52,266.69L181.77,268.02L185.47,268.84L186.64,266.08L189.3,267.38L189.7,269.19L191.9,270.74L195.13,274.1L194.82,275.82L196.57,276.55L196.81,277.91L195.56,281.36L196.74,283.54L199.64,285.91L200.81,288.37L198.69,290.2L198.19,293.54L195.86,294.62L192.64,293.42L190.86,294.46L190.37,296.18L189,296.92L187.93,296.2L186.06,297.46L183.49,297.98L182.29,296.73L178.88,296.94L176.74,294.55L174.48,293.62L172.1,293.9L171.63,294.87L167.61,295.32L165.95,292.4L163.42,291.75L159.91,292.55L157.71,291.01L154.56,290.89L152.61,293.58L145.66,290.25L143.91,286.89L141.99,285.62L139.68,285.3L139.16,284L136.37,285.94L136.11,289.25L135.43,291.15L132.43,292.06L130.34,290.81L128.9,291.66L128.74,294.05L124.71,292.7L125.78,290.81L126.45,288.13L124.01,285.24L120.26,283.84L117.45,285.65L114.03,284.58L114.31,282.32L111.5,278.12L110.82,276.3L109.61,275.24L108.33,276.01L105.92,275.49L105.2,276.51L103.29,273.61L103.16,271.84L102.17,270.71L102.42,268.98L100.24,268.5L99.11,266.9L98.94,265.25L97.69,264.25L94.78,264.96L95.72,255.19L96.69,252.86L99.33,251.03L99.62,250.01L101.83,248.12L103.38,247.62L104.29,243.92L103.84,242.05L105.4,240.13L105.19,236.21L106.82,234.6L106.99,231.76L109.3,227.67L112.17,226.74L112.47,222.12L113.97,220.87L115.59,221.94L116.93,224.01L118.12,224.58L119.59,223.75L121.74,223.68L124.41,225.46L125.03,226.99L126.86,226.62Z" class="land" id="UA-21" title="Zakarpattia"/>
    <path d="M606.23,324.58L609.85,323.69L613.82,321.92L619.27,321.34L625.82,319.15L628.51,319.35L631.43,320.51L637.37,321.89L639.36,321.81L641,321.02L641.03,318.73L639.49,317.79L640.5,316.69L639.32,314.61L638.91,312.33L640.3,311.93L641.04,309.67L641.05,306.19L638.34,306.67L636.98,299.17L635.12,300.03L634.48,296.82L639.33,295.68L638.88,292.48L637.32,292.59L636.17,288.32L637.68,287.99L636.84,283.03L639.35,283.16L639.34,285.71L644.47,285.25L645.45,283.76L647.25,283.1L650.23,283.19L652.32,282.34L653.47,282.9L655.37,282.27L657.29,283.64L665.03,285.46L665.2,286.61L672.96,282.62L674.6,285.38L677.32,285.17L677.67,287.18L684.1,285.52L684.51,288.49L687.78,287.74L688.21,291.51L689.12,295.97L690.98,297.69L689.9,301.47L693.11,301.04L693.88,302.22L696.83,302.23L697.32,303.2L701.66,302.36L705.12,302.7L710.44,301.19L710.61,305.15L714.13,304.65L714.79,308.79L715.92,311.91L719.24,311.55L718.51,312.81L716.13,313.22L716.41,314.98L718.09,316.77L720.83,315.44L723.6,320.24L725.82,318.47L729.1,319.82L731.71,323.36L734.74,326.06L736.22,325.09L738.46,325.2L738,327.22L736.37,331.21L736.72,332.32L735.03,333.18L733.96,330.74L732.72,331.06L733.28,333.28L731.6,334.9L725.96,335.09L725,334.64L725.96,340.2L726.57,341.98L723.23,341.67L723.4,343.84L725.9,344.56L727.39,346.76L728.55,347.47L728.47,349.99L731.6,351.6L733.47,352.1L732,354.17L734.14,355.83L732.11,356.58L729.07,359.05L730.85,361.89L727.67,363.06L724.12,366.11L722.34,369.41L720.85,373.19L719.98,371.27L718.35,369.66L715.98,368.31L711.6,368.46L703.14,371.68L700.1,374.18L696.42,379.78L696.45,377.87L693.84,375.15L691.92,375.15L690.07,375.9L687.86,375.26L682.4,375.76L673.91,380.35L670.57,384.35L668.21,386.53L664.38,388.5L662.7,389.01L660.51,391.31L658.13,394.74L653.13,402.79L651.51,406.17L649.46,408.57L648.01,409.52L643.03,411.58L642.41,410.07L645.44,407.18L648.74,406.56L651.98,405L653.15,402.31L657.72,394.76L654.17,394.55L653.68,391.81L654.45,390.67L654.01,388.99L651.87,388.2L651.77,392.25L650.87,393.81L648.29,395.46L647.22,397.97L645.99,398.09L645.42,393.41L645.88,393.16L645.14,387.34L640.67,385.28L638.27,385.3L637.88,383.42L638.22,381.58L632.52,382.48L632.17,380.52L631.06,380.56L630.66,378.33L632.48,377.82L632.08,374.27L629.42,374.61L627.29,374.01L626.94,371.72L628.27,370.7L631.63,370.24L632.85,368.27L632.51,365.59L635.08,365.21L634.56,361.84L632.38,362.02L631.65,356.9L629.57,357.23L629.4,355.91L626.79,356.24L624.46,353.18L623.86,347.92L622.47,348.04L621.23,339.2L622.87,338.89L622.38,336.88L621.17,337.07L620.74,334.97L617.99,334.36L618.15,335.8L616.07,336.85L614.34,336.44L612.8,336.97L611.96,331.89L611.39,331.91L610.6,327.3L609.87,326.49Z" class="land" id="UA-23" title="Zaporizhzhya"/>
    <path d="M154.94,244.81L156.21,241.21L155.18,238.59L156.4,235.45L155.49,233.01L156.58,230.26L155.7,228.89L156.96,227.22L160.1,224.93L161,220.96L162.37,220.83L163.88,219.11L165.62,220.25L167.32,219.75L169.99,220.61L172.89,218.12L174.94,219.6L176.7,217.57L179.11,218.14L183.98,217.79L186.03,216.17L190.38,214.92L192.57,215.84L193.11,213.57L192.34,212.05L188.96,211.98L189.18,209.61L187.01,208.68L186.95,206.54L190.18,206.86L191.55,203.36L190.12,200.36L190.4,198.34L191.59,198.12L191.29,194.93L193.16,194.13L192.73,192.15L194.41,190.67L195.52,190.9L196.25,192.91L198.54,192.23L201.34,194.55L202.09,194.05L204.94,194.73L207.28,200.62L207.32,201.94L209.4,202.23L210.46,204.66L209.43,206.44L210.21,210.11L213.81,212.29L212.48,213.22L210.75,215.54L210.78,216.63L212.65,218.79L216.07,219.56L215.74,221.97L213.23,221.87L212.73,223.88L215.39,226.44L217.55,226.5L220.62,228.43L223,230.76L221.79,232.02L222.71,235.67L223.83,233.93L226.49,231.57L227.22,235.72L228.68,236.07L230.15,238.36L227.91,238.38L226.84,239.44L227.57,241.12L228.72,241.23L230.16,238.86L231.95,238.8L231.31,236.95L232.45,236.31L235.9,237.54L238.28,239.72L239.96,239.94L242.27,242.31L244.02,243.41L242.72,244.89L244.53,246.12L243.54,248.34L241.62,251.1L242.48,254.95L242.66,258.12L242.43,262.83L243.26,264.93L242.9,267.06L240.03,267.06L239.02,266.11L236.73,265.73L233.73,266.24L230.99,267.4L227.88,270.59L224.27,275.68L222.88,275.75L221.3,277.13L222.68,278.98L222.15,280.04L220.36,279.88L219.54,283L216.81,283.8L216.49,285.62L213.01,289.74L212.78,291.77L213.24,294.93L214.85,296.71L214.99,299.33L216.59,300.69L216,302.43L214.46,304.6L213.39,308.84L211.75,309.04L211.46,307.19L209.7,305.46L209.38,302.96L206.76,301.74L204.16,301.62L202.72,300.12L202.8,298.14L201.23,296.33L200.85,294.72L198.19,293.54L198.69,290.2L200.81,288.37L199.64,285.91L196.74,283.54L195.56,281.36L196.81,277.91L196.57,276.55L194.82,275.82L195.13,274.1L191.9,270.74L189.7,269.19L189.3,267.38L186.64,266.08L185.47,268.84L181.77,268.02L180.52,266.69L180.27,263.75L179.51,261.82L179.34,257.28L175.67,259.35L174.04,259.06L172.83,262.06L170.76,261.53L170.66,257.01L170.1,255.5L167.96,256.11L165.42,253.62L164.81,250.42L161.64,250.51L158.78,247.67L158.71,246.63L156.78,245.3Z" class="land" id="UA-26" title="Ivano-Frankivsk"/>
    <path d="M461.66,127.72L461.42,129.51L462.15,131.8L464.02,133.2L464.26,135.49L462.56,137.78L460.13,138.92L458.18,137.65L456.72,138.29L457.2,142.1L456.56,143.24L457.04,146.54L455.91,147.81L454.61,147.3L453.39,145.4L452.42,142.61L452.01,139.43L450.72,139.56L448.85,138.41L447.79,135.23L445.85,134.73L445.28,132.18L443.66,131.92L441.22,132.95L439.68,132.81L441.06,129.38L441.06,128.1L444.23,124.53L442.85,122.49L446.25,122.23L449.26,122.74L453.07,126.83L455.01,125.67L458.66,125.67L460.29,123.38L461.75,122.87L464.1,123.63L464.83,126.19L463.13,126.44Z" class="land" id="UA-30" title="Kyiv City"/>
    <path d="M521.23,138.51L518.88,145.09L520.02,146.37L518.73,146.82L517.47,149.08L515.67,147.93L512.81,152.49L513.9,153.33L511.26,154.81L511.1,157.8L514.48,158.17L511.05,160.3L511.56,164.31L507.26,163.82L506.44,165.91L505.29,166.94L502.94,171.51L498.72,171.13L498.53,167.73L497.36,167.72L496.23,169.77L492.75,170.88L491.29,169.69L490.4,167.15L490.96,164.1L490.52,162.21L485.44,162.22L485.73,163.97L487.32,164.84L488.59,167.67L487.9,168.46L484.87,169.31L483.53,171.07L481.38,171.39L481.8,172.76L480.53,175.5L481.6,176.37L480.92,181.38L481.16,183.19L478.94,186.15L478.01,189.13L478.88,190.06L476.71,191.71L475.99,195.2L473.67,196.51L472.24,199.58L469.68,200.63L468.51,203.8L466.74,204.27L463.97,204.13L460.93,205.59L458.51,204.01L455.67,203.12L451.9,205.83L449.95,203.4L448.54,204.27L445.22,210.57L440.88,209.56L437.84,209.29L438.35,205.84L435.6,205.97L433.48,208.53L432.96,206.12L431.02,205.57L430.17,206.45L427.32,207.58L427.81,210.97L426.88,211.07L425.31,213.74L423.63,215.08L419.78,215.62L418.64,214.1L418.49,212.37L414.53,211.19L413.3,210.09L413.61,207.33L409.49,205.3L408.73,201.42L410.24,200.97L412.5,197.75L410.51,195.51L411.5,194.77L410.29,193.16L409.81,190.75L408.54,188.33L408.69,184.72L408.08,183.37L408.09,180.86L406.24,180.54L406.87,177.26L406.15,174.74L407.76,174.56L408.83,172.44L411.69,172.32L413.64,171.37L416.84,167.86L418.53,165.18L416.61,161.72L416.03,159.41L416.86,156.95L414.86,154.6L416.72,151.4L414.69,149.47L416.47,146.53L415.62,143.91L416.2,140.88L413.84,139.64L413.53,137.35L410.93,133.4L407.68,133.55L408.91,130.04L408.74,128.13L406.82,127.18L408.54,124.82L408.21,121.96L406.68,120.39L407.13,119.28L409.82,117.16L411.77,114.85L412.66,112.77L411.56,109.94L408.91,109.74L408.08,107.28L409.38,103.48L407.34,101.06L405.74,98.3L404.7,97.94L404.76,95.5L407.01,95.54L406.9,93.44L408.85,90.42L406.75,88.5L404.79,85.64L399.75,82.31L398.6,76.56L402.32,75.95L404.16,72.54L403.97,68.77L402.46,68.37L403.44,67.17L405.62,66.53L408.5,67.46L409.17,64.17L410.4,61.94L411.66,63.08L413.04,61.14L418.53,58.51L418.89,63.43L420.95,64.52L424.56,63.5L425.32,61.61L426.69,61.25L428.32,62.52L430.46,60.25L434.84,61.37L437.21,59.77L442.13,63.07L444.3,66.04L445,68.78L443.68,69.93L447,73.51L449.51,73.69L449.14,75.96L451.42,75.44L452.79,76.72L453.19,78.91L450.73,83.19L450.88,85.58L451.89,87.08L450.52,88.16L451.52,89.57L451.22,93.06L455.44,92.79L457.27,94.58L457.29,97.01L459.08,101.08L461.05,101.61L462.52,102.93L463.03,105.87L461.62,106.79L461.27,109.96L462.85,109.56L467.03,111.65L467.18,110.23L470.63,110.54L475.27,110.49L475.71,109.43L477.76,109.77L477.68,111.37L480.53,114.72L481.88,116.86L481.08,119.01L481.72,121.12L479.61,120.97L480.44,123.23L482.68,123.53L483.37,125.5L485.98,126.49L488.18,125.98L490.21,128.12L495.19,126.37L499.35,126.78L501.71,124.08L505.7,124.3L505.86,121.28L506.98,120.07L509,119.52L511.71,121.92L513.02,125.3L517.72,125.51L517.72,127.52L513.9,130.6L516.09,131.11L516.97,134.7L518.69,136.68L521.7,136.56ZM461.66,127.72L463.13,126.44L464.83,126.19L464.1,123.63L461.75,122.87L460.29,123.38L458.66,125.67L455.01,125.67L453.07,126.83L449.26,122.74L446.25,122.23L442.85,122.49L444.23,124.53L441.06,128.1L441.06,129.38L439.68,132.81L441.22,132.95L443.66,131.92L445.28,132.18L445.85,134.73L447.79,135.23L448.85,138.41L450.72,139.56L452.01,139.43L452.42,142.61L453.39,145.4L454.61,147.3L455.91,147.81L457.04,146.54L456.56,143.24L457.2,142.1L456.72,138.29L458.18,137.65L460.13,138.92L462.56,137.78L464.26,135.49L464.02,133.2L462.15,131.8L461.42,129.51Z" class="land" id="UA-32" title="Kyiv"/>
    <path d="M551.53,211.19L554.66,212.07L556.51,211.26L556.96,213.29L559.13,215.11L562.39,215.26L564.2,218.11L564.47,221.83L568.13,222.15L568.11,217.92L570.5,219.45L569.96,220.85L571.32,223.14L571.77,225.48L570.43,226.55L571.68,229.7L574.75,231.84L575.74,229.96L577.98,230.28L577.85,232.62L580.54,231.65L581,232.83L582.95,232.34L583.54,230.39L585.97,228.53L588.07,231.04L590.04,230.68L593.19,231.57L595.73,233.49L594.96,237.38L593.86,240.04L593.87,241.96L592.46,241.79L591.54,240.49L588.55,240.74L588.27,239.46L586.45,239.13L585.62,240.6L582.51,240.36L582.63,243.11L584.02,244.77L586.77,245.14L589.64,247.8L591.97,247.4L591.77,249.12L589.88,249.48L590.13,251.38L585.74,253.96L583.7,253.17L582.53,254.68L579.36,255.09L577.68,257.33L578.59,265.64L577.63,266.7L577.9,270.51L579.64,270.42L579.36,272.74L580.29,273.84L580.92,276.26L579.04,276.8L578.12,279.1L575.95,279.51L576.04,280.59L570.14,281.95L571.16,283.86L569.44,284.84L569.26,281.69L568.03,280.43L566.77,280.52L567.37,283.44L567.31,285.55L564.39,286.1L562.34,288.84L559.42,289.18L559.21,290.48L557.82,292.22L557.29,288.34L555.2,288.86L552.79,290.28L553.04,292.46L549.65,292.85L548.75,291.95L544.52,292.67L544.71,294.91L546.34,294.58L546.75,295.82L543.64,296.24L544.2,299.46L542.94,302.91L533.92,304.73L530.57,304.74L527.86,302.55L525.19,303.22L524.46,304.68L524.77,306.66L520.98,307.46L519.97,306.94L517.36,303.09L513.44,303.61L513.51,304.41L508.09,305.13L507.72,303.07L509.47,302.68L508.96,300.17L510.1,300.11L509.81,296.68L508.78,296.9L508.35,293.79L504.43,294.98L503.61,289.22L505.72,288.69L505.15,284.9L502.07,285.47L501.63,283.83L499.76,284.08L499.39,282.85L497.31,283.24L497.24,284.73L495.52,284.6L495.85,287.09L492.56,287.3L493.71,285.8L493.17,283.21L490.29,283.75L489.06,283.21L486.28,284.22L486.05,282.8L482.47,283.98L481.78,280.54L478.35,276.74L474.78,277.28L471.56,277.29L472,279.54L469.6,279.71L469.3,280.86L466.36,281.23L465.98,279.79L463.72,280.77L463.33,279.29L457.39,279.67L456.19,281.57L453.39,281.6L452.16,280.2L450.81,280.68L445.54,280.22L442.73,282.22L440.09,282.37L437.34,281.46L435.06,281.42L434.3,282.15L432.11,281.59L430.18,278.19L426.84,276.64L425.06,279.67L422.85,277.81L420.51,278.13L420.57,276.01L419.75,272.58L421.83,269.21L420.79,267.85L425.85,263.37L427.63,262.75L428.42,261.28L431.87,260.71L434.16,262.68L435.03,262.49L436.79,259.19L439.19,260.7L440.73,259.17L443.7,258.04L446.37,257.62L447.05,254.71L449.18,254.15L450.32,255.36L453.9,255.16L454.15,252.73L452.44,251.27L453.5,249.61L455.26,248.99L455.75,245.38L456.95,243.33L459.42,242.28L461.97,242.18L465.34,243.24L472.24,242.37L474.85,243.03L475.46,244.21L478.99,243.95L479.82,242.68L483.21,242.36L483.65,243.47L485.63,242.89L486.48,244.84L488.67,244.75L489.3,243.51L492.75,240.75L494.95,239.96L497.22,235.4L498.92,233.34L501.7,233.88L502.34,231.65L504.35,231.93L506.78,230.77L511.52,233.21L515.28,232.74L516.21,231.59L518.97,232.98L521.22,232.86L521.61,230.94L520.79,229.45L524.17,227.8L524.96,223.4L526.18,222.1L529.99,221.98L530.81,224.73L533.08,225.31L533.96,223.83L535.97,226.28L536.98,228.7L539.64,230.37L542.54,230.19L543.5,228.89L546.19,228.67L548.89,229.09L552.25,227.68L551.07,226.52L550.4,222.9L552.71,219.23L548.08,217.82L547.35,216.72L548,215.15L551.11,212.24Z" class="land" id="UA-35" title="Kirovohrad"/>
    <path d="M581.07,488.76L583.25,489.28L585.98,489.38L587.14,491L586.23,492.29L585.01,492.12L584.58,493.67L585.68,494.68L588.72,493.49L590.54,494.43L591.16,496.15L589.51,497.51L589.82,500.41L593.41,502.21L593.89,505.12L597.11,510.41L595.11,512.97L593.41,512.94L590.9,513.9L589.03,514L587.7,511.94L586.01,512.1L584.99,510.9L584.69,509.05L583.32,507.73L581.29,508L579.16,507.08L578.41,507.44L577.04,505.5L574.7,503.76L573.76,502.41L576.11,501.18L579.43,500.4L580.95,496.99L580.96,493.86L580.46,489.78Z" class="land" id="UA-40" title="Sevastopol"/>
    <path d="M595.11,512.97L597.11,510.41L593.89,505.12L593.41,502.21L589.82,500.41L589.51,497.51L591.16,496.15L590.54,494.43L588.72,493.49L585.68,494.68L584.58,493.67L585.01,492.12L586.23,492.29L587.14,491L585.98,489.38L583.25,489.28L581.07,488.76L581.09,487.4L582.92,486.54L583.77,482.76L583.21,478.77L583.41,477.49L581.66,472.18L579.59,469.22L576.85,466.69L574.15,465.39L572.57,466.75L570.63,466.85L569.69,468.4L568.7,468.37L567.37,466.79L565.54,466.17L562.32,463.28L560.37,460.59L556.06,456.78L553.68,455.43L551.52,455L547.31,455.2L544.28,456.98L542.77,458.29L536.09,456.33L536.66,454.05L535.55,452.89L538.13,449.74L540.09,448.15L543.47,446.12L545.91,445.06L548.7,443.22L550.86,443.04L550.08,441.58L553.84,438.45L556.9,436.49L561.73,434.03L563.54,433.73L565.3,430.42L566.84,431.59L568.85,431.54L572.55,429.71L575.67,426.65L580.14,425.83L583.77,423.24L586.87,425.39L586.44,422.85L588.57,421.02L589.4,419.54L585.83,419.3L584.53,418.8L583.81,413.27L585,411.43L583.85,408.23L584.73,407.92L583.81,402.57L585.05,402.36L588.77,405.95L589.11,407.74L591.7,409.18L592.32,407.98L592,405.64L592.74,405.14L594.48,407.14L593.85,408.79L592.75,409.45L595.44,411.5L595.75,413.08L597.54,412.11L597.94,410.71L601.2,410.23L603.77,411.92L604.22,413.72L606.92,415.26L608.03,416.97L605.49,419.38L606.63,420.03L609.11,418.93L608.25,415.08L606.49,414.82L607.31,412.99L611.95,415.24L612.29,416.29L613.96,416.74L615.41,414.19L616.89,416.09L617.68,418.32L621.08,421.1L620.62,422.86L622.19,423.59L623.11,421.23L625.18,421.62L623.94,418.47L624.51,417.74L627.55,419.54L628.01,420.4L627.09,423.42L623.94,424.93L623.92,426.2L622.29,427.62L621.06,429.57L623.65,429.1L628.37,424.57L629.05,425.36L628.57,428.85L632.39,427.36L633.69,429.19L631.8,431.96L630.47,431.96L628.96,433.61L629.93,434.5L632.85,433.57L633.86,432.8L637.16,432.1L635.95,433.89L637.63,434.08L639.33,436.06L641.49,435.66L642.12,437.91L644.01,438.49L645.34,440.55L647.23,445.63L647.58,447.91L646.54,449.18L644.09,450.76L645.35,453.79L647.95,456.72L651.18,456.69L654.57,458.9L657.85,460.2L657.05,461.98L662.02,461.21L662.4,459.26L660.6,459.17L659.26,456.78L657.63,455.77L655.87,453.79L652.39,447.88L648.53,442.82L645.31,439.03L644.35,436.85L643.09,436.02L641.54,431.33L640.36,429.66L641.06,429.29L643.09,433.69L645.79,438.51L648.02,441.75L651.28,445.69L653.8,449.71L657.95,455L662.49,458.93L665.44,460.16L668.72,458.33L673.52,457.1L674.94,455.28L675.72,452.93L677.9,450.97L679.83,451.86L682.26,454.01L684.37,454.9L686.38,454.74L688.62,452.62L688.52,450.67L692.3,448.94L697.64,448.17L701.26,448.94L703.02,450.27L705.8,449.71L707.98,451.44L709.08,451.7L710.85,450.79L711.43,452.69L712.87,453.85L711.36,456.25L708.87,456.3L706.11,455.42L705.54,457.18L707.08,458.2L703.68,460.29L704.04,461.75L703.04,464.71L703.27,467.22L704.85,472.43L701.75,474.19L696.9,474.59L695.32,476.08L689.11,474.86L685.43,474.95L683.59,476.54L681.6,476.17L678.67,477.41L677.44,474.94L675.87,473.22L672.29,470.85L669.08,469.67L666.23,469.56L664.15,470.22L661.63,471.62L659.34,474.19L659.42,475.74L660.96,476.51L658.39,477.68L657.7,479.41L654.52,479.14L653.41,480.08L652.97,482.24L649.68,483.54L648.66,485.82L648.41,487.91L646.38,489.77L644.95,489.27L644.21,487.57L641.47,486.92L638.44,488.36L633.53,488.18L631.4,488.62L628.88,490.06L626.26,490.9L622.97,493.05L619.78,494.7L617.97,496.97L616.07,501.87L615.16,502.34L615.08,504.41L613.32,504.13L612.07,504.91L610.93,506.97L607.41,507.7L605.7,511.61L602.86,512.12L601.72,513.03L598.27,513.75Z" class="land" id="UA-43" title="Crimea"/>
    <path d="M177.9,117.36L180.11,117.22L184.57,122.7L187.56,123.25L188.15,121.71L191.62,122.38L191.48,124.2L193.23,125.44L195.88,124.44L197.47,125.89L197.7,128.64L198.99,128.8L199.66,130.52L199.49,134.08L202.96,135.11L204.84,136.5L204.5,138.66L207.2,139.01L211.14,137.67L211.93,138.63L214.06,138.65L214.29,135.76L217.58,138.82L218.98,138.88L219.23,141.51L221.57,142.47L223.9,142.19L225.56,142.97L223.96,146.82L224.04,148.2L225.97,149.61L225.16,152.95L230.05,160.02L231.62,161.27L233.8,162.56L233.8,165.65L232.75,167.38L233.39,168.37L232.6,170.4L231.2,170.58L226.58,173.23L224.42,172.26L222.54,173.73L220.25,173.81L219.98,176.74L221.72,178.54L219.62,180.69L217.65,179L216.72,181.54L216.24,185.26L214.12,187.28L211.34,187.26L207.9,189.68L204.67,189.84L205.14,191.36L204.94,194.73L202.09,194.05L201.34,194.55L198.54,192.23L196.25,192.91L195.52,190.9L194.41,190.67L192.73,192.15L193.16,194.13L191.29,194.93L191.59,198.12L190.4,198.34L190.12,200.36L191.55,203.36L190.18,206.86L186.95,206.54L187.01,208.68L189.18,209.61L188.96,211.98L192.34,212.05L193.11,213.57L192.57,215.84L190.38,214.92L186.03,216.17L183.98,217.79L179.11,218.14L176.7,217.57L174.94,219.6L172.89,218.12L169.99,220.61L167.32,219.75L165.62,220.25L163.88,219.11L162.37,220.83L161,220.96L160.1,224.93L156.96,227.22L155.7,228.89L156.58,230.26L155.49,233.01L156.4,235.45L155.18,238.59L156.21,241.21L154.94,244.81L152.49,245.04L149.57,244.73L147.62,243.8L146.97,242.08L145.42,243.11L143.71,241.72L141.8,242.77L140.14,242.63L139.13,239.87L137.19,236.8L135.37,236.04L134.05,237.02L130.44,237.09L130.09,235.08L127.04,233.12L126.2,229.92L128.02,228.36L127.38,227.04L128.91,225.98L126.49,224.62L125.81,222.81L126.92,221.1L124.72,219.99L122.74,218.14L119.1,215.75L120.22,213.46L119.41,212.13L120.47,211.02L120.94,206.53L120.75,203.57L119.39,198.87L118.67,194.94L116.66,193.87L118.62,189.04L122.28,184.27L123.14,181.94L124.92,180.75L127.2,177.11L131.38,171.96L133.18,169.15L140.61,159.55L144.04,154.77L147.55,151.18L150.02,149.11L151.63,147.12L156.31,143.89L158.64,140.38L160.69,139.55L161.32,136.79L162.42,135.82L165.85,134.67L171.56,134.02L174.04,134.17L175.57,131.9L177.11,128.02L178.36,121.2Z" class="land" id="UA-46" title="Lviv"/>
    <path d="M442.73,282.22L445.54,280.22L450.81,280.68L452.16,280.2L453.39,281.6L456.19,281.57L457.39,279.67L463.33,279.29L463.72,280.77L465.98,279.79L466.36,281.23L469.3,280.86L469.6,279.71L472,279.54L471.56,277.29L474.78,277.28L478.35,276.74L481.78,280.54L482.47,283.98L486.05,282.8L486.28,284.22L489.06,283.21L490.29,283.75L493.17,283.21L493.71,285.8L492.56,287.3L495.85,287.09L495.52,284.6L497.24,284.73L497.31,283.24L499.39,282.85L499.76,284.08L501.63,283.83L502.07,285.47L505.15,284.9L505.72,288.69L503.61,289.22L504.43,294.98L508.35,293.79L508.78,296.9L509.81,296.68L510.1,300.11L508.96,300.17L509.47,302.68L507.72,303.07L508.09,305.13L513.51,304.41L513.44,303.61L517.36,303.09L519.97,306.94L520.98,307.46L524.77,306.66L524.46,304.68L525.19,303.22L527.86,302.55L530.57,304.74L533.92,304.73L542.94,302.91L544.2,299.46L543.64,296.24L546.75,295.82L546.34,294.58L544.71,294.91L544.52,292.67L548.75,291.95L549.65,292.85L553.04,292.46L552.79,290.28L555.2,288.86L557.29,288.34L557.82,292.22L557.71,293.61L558.41,297.13L561.05,296.64L560.63,299.06L561.12,301.91L560.13,302.2L560.69,308.09L556.49,309.17L557.51,315.74L556.15,317.46L561.64,316.99L561.58,318.21L561.64,321.59L563.55,320.43L563.93,322.23L562.97,322.75L562.94,324.9L563.53,328.25L560.72,328.68L560.55,324.86L558.97,326.58L559.36,330.78L562.9,330.21L563.23,334.01L562.05,334.34L562.7,336.92L565.36,339.67L560.49,340.82L560.46,342.05L555.87,342.68L555.51,344.26L554.21,345.62L553.88,347.49L554.82,349.62L560.6,353.17L558.66,356.21L555.6,354.52L554.65,355.55L555.53,357.86L554.58,360.02L550.81,360.88L551.49,362.22L554.13,361.77L555.53,363.38L549.75,364.42L549.69,364.89L544.82,365.74L544.49,363.28L539.99,363.61L538.3,362.64L537.52,364.04L537.78,365.63L535.15,365.96L534.87,364.42L530.73,365.11L531.04,367.28L529.51,367.01L524.65,364.06L525.69,365.88L524.13,366.67L524.39,368.85L522.11,369.99L519.57,370.01L518.29,371.47L518.69,374.23L515.83,374.7L514.33,376.1L511.06,375.84L510.09,377.42L506.37,378.93L501,376.69L498.6,376.64L497.16,377.53L495.95,379.51L493.2,377.91L488.13,378.1L487.42,379.48L484.8,378.75L482.41,378.84L480.05,377.81L480.29,372.83L478.76,370.8L479.97,369.02L478.92,367.1L479.1,365.03L477.12,364.31L476.64,362.42L474.13,360.86L473.18,357.05L476.18,356.24L482.83,355.14L482.21,353.22L484.82,353.1L485.33,351.58L483.86,343.86L481.02,343.82L480.81,344.82L477.14,344.84L477.73,343.46L479.14,343.22L478.68,340.9L479.95,340.6L479.78,337.92L475.86,338.71L473.26,339.6L472.3,336.48L468.5,337.24L467.87,334.58L466.93,333.72L467.55,332.14L467.03,329.55L467.53,327.91L466.63,326.62L466.09,323.02L467.38,322.73L466.94,320.53L462.76,320.2L461.57,318.25L463.01,317.94L462.8,315.52L463.43,313.83L460.01,314.49L460.48,316.35L457.89,316.87L458.08,314.79L455.86,314.71L450.01,315.79L449.68,314.33L447.78,314.67L446.42,307.19L447.9,306.68L448.42,304.96L447.81,302.91L443.89,303.43L442.58,296.47L441.88,294.64L440.61,293.71L439.53,290.69L440.82,290.02L439.75,287.09L443.17,284.16ZM508.93,384.67L506.78,387L504.61,386.43L503.24,386.73L501.49,388.79L499.12,386.02L495.91,383.37L500.27,383.42L504.61,382.78L506.7,384.06Z" class="land" id="UA-48" title="Mykolaiv"/>
    <path d="M420.51,278.13L422.85,277.81L425.06,279.67L426.84,276.64L430.18,278.19L432.11,281.59L434.3,282.15L435.06,281.42L437.34,281.46L440.09,282.37L442.73,282.22L443.17,284.16L439.75,287.09L440.82,290.02L439.53,290.69L440.61,293.71L441.88,294.64L442.58,296.47L443.89,303.43L447.81,302.91L448.42,304.96L447.9,306.68L446.42,307.19L447.78,314.67L449.68,314.33L450.01,315.79L455.86,314.71L458.08,314.79L457.89,316.87L460.48,316.35L460.01,314.49L463.43,313.83L462.8,315.52L463.01,317.94L461.57,318.25L462.76,320.2L466.94,320.53L467.38,322.73L466.09,323.02L466.63,326.62L467.53,327.91L467.03,329.55L467.55,332.14L466.93,333.72L467.87,334.58L468.5,337.24L472.3,336.48L473.26,339.6L475.86,338.71L479.78,337.92L479.95,340.6L478.68,340.9L479.14,343.22L477.73,343.46L477.14,344.84L480.81,344.82L481.02,343.82L483.86,343.86L485.33,351.58L484.82,353.1L482.21,353.22L482.83,355.14L476.18,356.24L473.18,357.05L474.13,360.86L476.64,362.42L477.12,364.31L479.1,365.03L478.92,367.1L479.97,369.02L478.76,370.8L480.29,372.83L480.05,377.81L473.15,379.53L469.25,380.83L465.56,382.46L463.72,382.08L461.88,382.91L460.91,385.1L462.45,387.04L462.77,389.2L461.57,393.4L458.87,396.54L456.04,402.44L453.46,406.9L451.53,409.08L450.29,411.66L448.48,413.36L443.59,419.13L440.98,422.86L439.1,424.91L433.07,429.57L430.25,432.27L423.13,438.16L417.49,442.38L414.2,446.18L413.72,448.01L416.42,449.12L419.23,449.45L419.68,451.55L419.02,453.12L419.67,457.56L418.59,461.25L418.82,463.54L417.62,464.52L415.96,464.41L415.24,462.16L416.01,460.99L415.05,457L412.66,454L410.55,452.55L407.54,451.72L405.37,450.48L403.94,450.9L400.56,450.42L399.51,451.46L397.39,451.1L395.17,452.32L394.8,453.13L389.03,455.56L384.99,458.46L383.52,460.01L381.76,458.19L379.47,457.05L378.23,459.72L376.57,460.26L378.26,462.1L377.73,463.02L375.16,463.77L371.8,462.63L368.53,462.31L365.4,460.53L359.29,457.84L356.62,453.3L356.78,451.28L356.21,450.01L353.61,448.97L355.03,446.72L357.66,444.28L362.53,446.09L362.98,447.9L366.45,447.04L365.48,442.76L367.88,442.19L366.65,436.99L365.12,436.39L367.68,432.72L369.8,433.01L369.41,430.67L371.2,430.89L374.81,429.93L374.42,427.75L378.02,426.71L376.86,421.09L376.89,419.11L377.61,418.28L386.33,416.31L387.44,413.57L385.07,410.57L386.75,408.74L389.91,404.51L385.14,400.55L386.98,396.11L384.18,388.54L388.29,388.02L388.86,385.39L389.97,384.97L394.07,384.79L394.14,383.01L397.2,382.1L397.36,385.72L398.05,386.64L396.55,387.98L397.6,390.87L395.96,392.85L397.38,393.34L398.45,391.56L399.83,390.85L400.4,387.85L401.56,387.3L402.25,385.67L403.72,388.98L406.24,385.86L408.65,388.23L407.69,389.44L408.69,390.41L411.15,390.85L411.83,394.29L412.97,394.7L415.93,394.27L415.4,389.75L416.48,390.29L418.49,389.83L419.14,387.64L420.27,388.5L421.68,392.81L424.96,394.8L424.89,393.55L427.11,391.78L429.18,392.92L432.37,391.9L433.73,393.02L435.55,390.79L433.88,389.37L430.82,389.25L428.16,386.2L426.04,384.3L425.03,382.77L427.48,382.2L427.05,380.57L428.11,379.44L427.6,376.59L428.46,373.39L428.69,370.02L427.08,366.69L428.17,365.95L427.87,364.52L425.79,365.79L424.86,361.73L423.11,362.52L419.28,363.31L417.94,358.96L414.86,359.52L414.46,357.48L412.67,356.93L412.9,352.25L413.96,351.8L413.33,348.42L410.53,348.67L408.65,346.64L411.99,346.04L410.74,338.79L412.75,338.4L411.65,331.31L408.75,331.81L407.8,333.82L407.82,335.33L405.54,336.39L404.19,335.69L403.57,332.91L403.82,330.7L401.59,331.32L400.75,326.48L397.61,328.32L397.54,325.68L395.34,327.95L394.91,326.35L395.07,321.99L393.68,322.62L392.09,319.68L395.04,318.59L396.46,316.11L396.02,314.28L397.05,311.57L396,309.24L397.81,307.2L398.9,304.01L396.65,304.44L395.78,302.5L396.77,300.75L398.82,299.2L395.83,298.82L394.68,291.99L392.64,291.93L390.58,293.46L390.88,294.83L388.37,294.99L385.73,292.81L383.9,294.1L380.31,289.32L380.71,286.32L384.13,285.48L384.9,281.54L389.38,281.93L389.2,280.46L390.48,279.19L392.86,281.72L394.92,282.45L397.02,284.9L399.21,285.81L402.26,285.82L404,284.19L407.17,283.62L408.58,284.97L411.51,285.25L412.87,283.07L415.72,284.16L416.34,279.51L418.03,278.54Z" class="land" id="UA-51" title="Odessa"/>
    <path d="M560.58,126.86L562.68,127.83L565.03,126.63L567.07,127.94L569.02,124.66L571.27,126.8L573.59,126.85L573.71,128.35L575.55,129.37L578.99,128.43L579.57,129.35L582.04,128.57L589.13,131.02L593.65,128.86L592.24,127.2L594.88,126.06L596.7,127.19L598.33,125.1L601.71,127.94L603.32,127.22L604.69,127.9L609.64,125.95L610.87,126.98L611.01,131.68L612.6,134L616.77,137.11L617.74,139.09L617.3,140.4L619.42,142.35L622.04,142.69L622.35,145.2L624.66,146.5L622.56,149.57L623.17,152.1L627.18,154.18L628.76,153.56L631.56,150.88L632.82,151.84L636.43,150.62L640.4,151.42L640.1,154.72L641.35,156.43L640.22,157.49L636.83,162.41L637.99,165.7L639.26,165.85L640.41,168.16L643.3,170.07L648.2,171.3L649.02,170.95L652.14,172.79L651.49,174.81L651.84,178.17L653.73,179.12L654.32,182.39L657.04,182.7L658.46,183.8L661.01,184.16L661.87,185.31L663.62,189.81L661.13,191.21L661.19,192.8L663.57,193.65L663.43,195.6L657.21,194.39L656.36,197.41L658.33,198.1L657.78,200.91L658.92,201.39L654.89,206.45L654.72,209.23L652.09,207.91L646.76,207.57L644.46,205.68L643.22,207.65L642.09,211.02L643.68,217.45L640.79,214.6L638.6,215.73L636.9,214.85L633.77,215.52L632.65,216.38L632.89,217.89L627.03,219.09L624.36,221.81L623.76,223.54L622.25,222.53L620.02,222.86L617.44,220.99L618.03,223.58L614.37,226.74L615.35,228.24L613.66,230.87L613.17,233.8L614.64,235.42L614.08,238.21L612.83,238.75L613.75,243.61L611,243.77L606.92,241.72L605.45,240.58L605.7,239.17L601.82,237.33L601.1,235.89L599.61,235.92L596.74,234.61L595.73,233.49L593.19,231.57L590.04,230.68L588.07,231.04L585.97,228.53L583.54,230.39L582.95,232.34L581,232.83L580.54,231.65L577.85,232.62L577.98,230.28L575.74,229.96L574.75,231.84L571.68,229.7L570.43,226.55L571.77,225.48L571.32,223.14L569.96,220.85L570.5,219.45L568.11,217.92L568.13,222.15L564.47,221.83L564.2,218.11L562.39,215.26L559.13,215.11L556.96,213.29L556.51,211.26L554.66,212.07L551.53,211.19L549.81,211.01L547.55,212.17L545.61,210.49L542.98,211.1L541.1,210.75L540.23,209.17L536.66,207.25L534.96,205.83L534.75,204.59L536.75,200.66L538.11,202.37L540.49,202.64L542.96,204.06L546.44,204.29L546.51,202.79L544.58,202.07L543.62,196.42L543.94,194.58L545.39,194.54L547.07,192.85L547,189.79L545.33,187.3L544.85,184.84L543.36,182.54L539.59,181.19L539.4,178.27L538.51,176.47L537.12,176.43L536.58,174.37L534.32,174.97L532.28,171.12L533.3,164.15L531.31,162.86L530.69,159.38L529.22,157.76L528.33,159.05L526,156.11L528.01,153.66L527.77,152.04L522.53,150.51L521.96,149.12L519.82,147.42L520.02,146.37L518.88,145.09L521.23,138.51L524.31,137.83L525.84,138.48L529.08,133.15L530.69,133.11L532.19,134.19L536.02,135.66L535.76,136.98L537.43,138.63L539,137.67L541.95,137.88L547.21,137.73L550.73,136.71L553.36,134.63L556.54,129.99L558.25,130.06L558.7,128.11Z" class="land" id="UA-53" title="Poltava"/>
    <path d="M330.25,59.4L328.56,61.76L326.66,62.06L326.72,65.39L324.52,65.16L323.51,63.85L322.94,69L324.1,69.54L324.11,71.32L322.99,73.01L320.71,73.49L322.04,77.77L321.53,79.37L319.7,80.82L317.48,84.96L317.74,86.69L317.08,88.63L315.86,88.99L315.94,91.67L311.44,92.51L310.41,94.56L312.11,98.91L311.23,100.11L312.87,101.56L311.96,108.21L313.6,113.93L312.37,116.54L310.96,116.86L310.6,120.61L311.74,121.22L310.3,124.06L307.59,124.18L307.58,122.4L305.4,122.73L304.79,124.17L302.76,124.23L302.37,125.57L300.63,126.33L297.77,125.18L295.83,127.62L292.8,128.03L288.94,133.59L288.45,135.62L287.01,137.28L285.03,137.06L284.4,138.93L281.54,141.24L280.42,143.8L276.28,143.93L272.4,147.24L271.64,149.51L268.76,149.53L267.04,148.37L268.6,144.53L267.63,143.96L266.18,146.12L262.01,144.49L260.3,146.17L257.62,144.44L256.42,144.45L253.29,148.87L251.76,149.47L247.53,150.02L246,149.72L243.55,151.47L241.34,149.98L240.41,151.64L237.04,150.55L235.84,151.57L236.05,155.26L235.1,158.02L232.26,158.5L231.62,161.27L230.05,160.02L225.16,152.95L225.97,149.61L224.04,148.2L223.96,146.82L225.56,142.97L223.9,142.19L221.57,142.47L221.47,140.88L223.88,139.59L223.14,138.56L225.73,136.26L224.22,135.34L223.99,133.7L222.57,130.94L223.6,127.93L222.02,126.18L222.52,125.09L224.9,124.8L227.41,126.04L229.45,125.81L230.62,123.9L229.06,120.47L233.65,120.92L232.89,118.09L233.98,116.93L236.47,116.9L243.68,113.84L246.23,113.09L246.25,114.48L248.33,116.84L250.59,116.93L251.72,119.1L254.18,114.15L253.91,111.86L254.58,108.19L255.51,105.95L260.28,106.71L260.98,104.58L259.03,103.47L259.51,98.79L257.83,97.43L262.8,96.53L263.86,94.22L263.12,90.98L260.13,88.97L257,88.99L257.53,85.98L258.99,86.18L262.35,84.12L262.02,82.19L259.37,79.26L257.05,78.73L256.72,76L254.59,74.78L251.84,71.02L252.69,69.24L248.99,68.62L249.15,67.37L246.23,67.96L244.24,66.09L244.09,61.83L240.92,57.84L242.43,54.83L240.71,53.43L240.34,52.09L242.54,50.88L244.1,48.21L245.9,43.1L243.71,39.83L244.59,38.37L243.99,36.81L246.82,33.41L243.66,32.96L241.95,31.32L246.96,31.9L249.14,31.34L249.46,29.73L251.85,30.07L252.09,31.39L256.56,32.04L258.75,30.87L261.28,31.29L263.33,32.32L266.07,35.43L268.76,34.96L274.94,35.58L276.26,37.54L277.3,37.39L279.43,40L282.45,40.12L282.99,39.05L285.52,38.34L288.77,38.24L291.31,39.74L291.44,41.55L293.18,42.93L295.45,42.31L296.81,43.49L299.7,44.42L301.67,42.13L310.58,41.78L310.88,49.29L313.65,49.98L312.42,52.18L313.32,53.45L316.52,53.32L317.38,52.51L320.15,53.37L321.26,52.26L322.38,53.95L323.98,54.09L323.65,51.7L325.43,51.22L328.45,53.36L329.51,52.61L332.77,53.42L332.63,56.14L330.89,57.82Z" class="land" id="UA-56" title="Rivne"/>
    <path d="M671.14,138.13L671.9,138.85L670.86,140.82L668.18,139.7L664.93,140.52L663.99,142.07L661.67,140.58L656.95,140.36L654.25,143.97L653.89,145.95L651.05,146.31L649.29,145.43L646.13,148.3L644.14,149.63L641.24,149.26L641.71,150.96L640.4,151.42L636.43,150.62L632.82,151.84L631.56,150.88L628.76,153.56L627.18,154.18L623.17,152.1L622.56,149.57L624.66,146.5L622.35,145.2L622.04,142.69L619.42,142.35L617.3,140.4L617.74,139.09L616.77,137.11L612.6,134L611.01,131.68L610.87,126.98L609.64,125.95L604.69,127.9L603.32,127.22L601.71,127.94L598.33,125.1L596.7,127.19L594.88,126.06L592.24,127.2L593.65,128.86L589.13,131.02L582.04,128.57L579.57,129.35L578.99,128.43L575.55,129.37L573.71,128.35L573.59,126.85L571.27,126.8L569.02,124.66L567.07,127.94L565.03,126.63L562.68,127.83L560.58,126.86L559.8,125.49L561.87,122.93L562.67,118.44L564.02,117.72L564.15,115.18L563.57,114.05L566.87,113L564.21,108.68L564.96,102.24L566.61,101.11L566.24,97.21L563.63,97.47L562.69,94.12L561.02,95.1L559.42,94.82L560.7,89.93L559.3,89.04L555.32,88.33L557.33,84.86L556.06,83.61L557.27,81.13L559.42,80.67L559.06,79.13L560.62,77.38L559.76,74.87L561.06,72.6L559.36,69.53L563.44,67.53L562.55,65.45L563.23,61.64L565.87,60.06L565.57,57.92L564.41,56.68L565.83,55.51L564.27,53L563.53,48.7L563.43,45.16L562.1,43.64L561.43,41.12L562.89,39.19L562.94,35.4L565.15,34.09L566.99,32.02L572.66,30.99L573.64,27.68L571.94,25.6L572.81,23.97L574.83,22.63L575.84,24.25L578.95,23.43L578.6,20.36L577.3,20.07L575.31,17.51L572.22,16.08L571.02,12.97L572.61,10.68L574.02,7.45L574.35,4.39L575.89,2.12L577.56,1.23L579.27,4.87L581.42,5.19L583.47,2.94L585.71,2.55L586.75,1.28L588.58,1.49L591.31,0.5L593.34,1.01L594.89,4.8L596.45,4.72L597.94,6.58L597.74,8.94L600.25,10.2L600.7,11.88L602.51,12.14L602.62,14.15L605.18,16.28L603.67,21.2L604.47,23.19L604.44,25.56L606.15,26.12L606.38,28.29L608.3,28.23L609.04,30.18L611.13,33.17L613.01,33.82L615.57,35.63L617.98,38.05L617.75,41.02L618.87,42.19L618.83,44.57L617.35,45.64L614.6,45.79L610.31,46.93L609.33,46.57L607.12,47.71L605.73,47.52L604.75,49.26L605.84,50.74L607.36,50.57L608.03,53.76L609.32,53.58L611.18,56.31L611.28,58.16L612.84,58.27L612.66,61.76L611.72,62.21L609.8,65.32L612.47,68.95L614.66,70.35L612.56,71.51L611.76,74.17L610.63,74.61L611.04,76.85L614.42,78.31L616.7,76.06L621.05,77.98L623.34,77.53L625,78.7L625.96,77.34L628.49,77.82L628.84,81.25L631.44,82.28L634.73,82.91L637.59,81.53L641.97,78.68L645.51,79.88L645.93,78.86L648.12,78.92L648.93,80.68L648.2,83.49L648.95,85.5L650.21,86.17L649.81,88.91L651.91,91.43L653.5,90.14L656.66,89.46L659.79,90.88L660.23,92.79L658.67,94.05L657.08,98.93L659.48,99.71L659.79,102.63L660.7,104.98L660.4,107.52L662.11,109.28L663.66,109.65L662.23,113.02L662.46,114.64L663.93,116.45L660.07,117.89L659.66,118.97L660.98,121.45L659.61,123.02L661.18,124.22L663.18,129.08L666.08,131.03L667.8,131.62L667.75,135.87L669.58,138.11Z" class="land" id="UA-59" title="Sumy"/>
    <path d="M231.62,161.27L232.26,158.5L235.1,158.02L236.05,155.26L235.84,151.57L237.04,150.55L240.41,151.64L241.34,149.98L243.55,151.47L246,149.72L247.53,150.02L251.76,149.47L253.29,148.87L256.42,144.45L257.62,144.44L260.3,146.17L262.01,144.49L266.18,146.12L267.63,143.96L268.6,144.53L267.04,148.37L268.76,149.53L268.29,151.34L271.03,154.06L267.93,155.01L267.96,156.97L269.02,158.49L267.9,162.02L266.55,161.91L265.52,164.45L266.34,166.82L265.03,168.41L267.93,170.29L266.92,171.7L268.54,174.12L269.78,178.33L267.5,180.66L270.9,183.5L270.1,185.78L268.26,187.3L267.76,190.69L265.45,193.79L267.54,195.8L267.65,199.12L269.31,201.07L269.74,203.13L269.02,205.93L269.98,206.84L270.33,210.04L269.76,211.3L268.02,211.28L267.21,214.36L268.1,216.16L267.72,218.84L268.02,220.75L267.47,224.14L268.47,226.37L267.85,228.78L267.72,233.36L269.4,240.76L269.06,243.56L269.74,248.37L272.51,249.94L273.72,255.12L275.68,255.44L276.8,256.87L278.26,257.1L276.06,257.27L274.42,259.04L272.23,258.97L270.8,256.97L267.77,257.91L265.64,256.43L265.5,253.12L263.45,253.14L264.78,256.14L263.41,257.12L261.27,254.11L262.2,252.67L261.94,250.49L260.72,250.34L259.87,252.48L258.32,251.68L256.6,253.59L254.08,253.07L251.05,248.7L249.73,248.23L248.54,250.7L247.13,249.05L243.54,248.34L244.53,246.12L242.72,244.89L244.02,243.41L242.27,242.31L239.96,239.94L238.28,239.72L235.9,237.54L232.45,236.31L231.31,236.95L231.95,238.8L230.16,238.86L228.72,241.23L227.57,241.12L226.84,239.44L227.91,238.38L230.15,238.36L228.68,236.07L227.22,235.72L226.49,231.57L223.83,233.93L222.71,235.67L221.79,232.02L223,230.76L220.62,228.43L217.55,226.5L215.39,226.44L212.73,223.88L213.23,221.87L215.74,221.97L216.07,219.56L212.65,218.79L210.78,216.63L210.75,215.54L212.48,213.22L213.81,212.29L210.21,210.11L209.43,206.44L210.46,204.66L209.4,202.23L207.32,201.94L207.28,200.62L204.94,194.73L205.14,191.36L204.67,189.84L207.9,189.68L211.34,187.26L214.12,187.28L216.24,185.26L216.72,181.54L217.65,179L219.62,180.69L221.72,178.54L219.98,176.74L220.25,173.81L222.54,173.73L224.42,172.26L226.58,173.23L231.2,170.58L232.6,170.4L233.39,168.37L232.75,167.38L233.8,165.65L233.8,162.56Z" class="land" id="UA-61" title="Ternopil"/>
    <path d="M772.13,168.17L774.65,171.65L771.65,172.4L771.19,173.98L772.26,175.93L768.75,179.32L769.71,180.8L771.36,180.48L771.41,182.85L772.68,184.18L770.07,184.89L770.66,186.18L768.4,187.28L768.64,189.93L766.53,189.76L765.91,193.24L764.37,193.13L764.18,198.07L765.57,198.06L766.37,200.82L765.8,206.93L768.52,207.53L768.94,208.71L766.47,209.66L765.24,211.85L764.16,214.25L762.06,214.12L754.37,212.12L751.98,212.47L749.52,214.97L754.08,216.68L755.2,217.97L751.35,220.05L748.89,220.75L749.8,222.11L749.05,223.29L747.35,223.81L745.91,223.26L744.56,224.07L743.91,226.71L741.41,228.09L740.72,229.15L742.27,231.54L742.07,232.42L739.56,232.33L737.8,233.32L736.33,235.16L736.27,239.34L732.3,236.97L730.99,239.36L729.14,239.1L727.95,240.87L729.98,242.41L729.47,243.46L726.75,240.6L721.97,240.12L721.27,241.9L717.49,240.95L715.81,242.23L716.91,246.31L716.19,247.56L717.06,251.38L714.27,251.5L713.51,252.55L710.72,253L706.09,249.05L700.58,256.94L699.34,256.03L698.18,257.54L697.08,256.74L699.08,253.83L696.3,251.74L697.58,249.25L695.38,247.96L691.61,245.03L692.99,242.21L690.74,239.55L688.24,239.55L688.68,237.83L686.36,236.64L686.06,234.43L687.33,232.57L684.45,229.76L682.9,227.2L681.85,229.09L676.82,230.94L674.27,229.52L669.71,229.34L669.61,228.23L666.87,228.99L665.25,228.54L663.51,229.04L662.34,227.47L659.94,226.17L651.12,217.9L648.12,216.39L643.68,217.45L642.09,211.02L643.22,207.65L644.46,205.68L646.76,207.57L652.09,207.91L654.72,209.23L654.89,206.45L658.92,201.39L657.78,200.91L658.33,198.1L656.36,197.41L657.21,194.39L663.43,195.6L663.57,193.65L661.19,192.8L661.13,191.21L663.62,189.81L661.87,185.31L661.01,184.16L658.46,183.8L657.04,182.7L654.32,182.39L653.73,179.12L651.84,178.17L651.49,174.81L652.14,172.79L649.02,170.95L648.2,171.3L643.3,170.07L640.41,168.16L639.26,165.85L637.99,165.7L636.83,162.41L640.22,157.49L641.35,156.43L640.1,154.72L640.4,151.42L641.71,150.96L641.24,149.26L644.14,149.63L646.13,148.3L649.29,145.43L651.05,146.31L653.89,145.95L654.25,143.97L656.95,140.36L661.67,140.58L663.99,142.07L664.93,140.52L668.18,139.7L670.86,140.82L671.9,138.85L671.14,138.13L674.4,137.9L677.12,135.06L676.85,133.85L678.44,132.77L679.99,133.43L680.82,132.2L682.43,132.75L688.34,131.56L692.36,132.88L693.03,134.83L694.29,135.3L695.62,137.55L697.47,139.02L697.06,139.99L698.18,142.11L701.18,142.41L702.82,140.98L706.16,140.87L710.22,144.11L709.49,144.92L711.57,146.6L713.22,146.95L714.69,144.19L721.01,140.66L722.24,139.44L725.22,138.39L729.11,138.3L730.12,138.72L734.49,138.01L736.16,137.37L740.98,134.49L742.34,132.52L744.81,132.91L748.94,131.21L747.89,133.1L747.93,136.07L748.78,137.83L750.36,139.27L753.75,140.51L754.83,142.19L754.84,145.71L754.31,147.08L755.51,149.96L758.32,153.02L760.32,156.34L762.1,156L764.44,157.72L767.46,159.06L769.29,163.01L770.95,163.74L772.6,166.04Z" class="land" id="UA-63" title="Kharkiv"/>
    <path d="M641.06,429.29L640.36,429.66L638.9,425.48L638.11,425.01L636.46,427.47L635.14,426.77L636.02,424.69L636.18,421.82L637.36,420.59L636.28,417.82L635.46,417.48L634.79,414.13L633.21,413.42L632.17,414.83L630.36,413.13L630.96,410.62L632.66,409.99L633.34,411.87L634.59,410.93L634.2,408.09L635.43,408.07L636.24,414.57L637.03,418.23L638.72,423.6ZM538.94,412.41L543.21,413.17L547.56,414.59L549.69,414.17L551.95,412.77L553.48,414.05L555.22,413.63L556.68,414.67L559.16,414.89L558.74,416.04L554.51,415.86L546.38,414.5ZM561.58,318.21L567.73,319.46L567.99,321.26L571.18,323.73L571.6,321.7L578.35,320.41L577.97,317.71L582.27,316.84L582.8,319.62L582.7,321.98L584.69,322.33L585.06,324.14L597.31,322.16L599.04,324.81L600.21,325.8L606.23,324.58L609.87,326.49L610.6,327.3L611.39,331.91L611.96,331.89L612.8,336.97L614.34,336.44L616.07,336.85L618.15,335.8L617.99,334.36L620.74,334.97L621.17,337.07L622.38,336.88L622.87,338.89L621.23,339.2L622.47,348.04L623.86,347.92L624.46,353.18L626.79,356.24L629.4,355.91L629.57,357.23L631.65,356.9L632.38,362.02L634.56,361.84L635.08,365.21L632.51,365.59L632.85,368.27L631.63,370.24L628.27,370.7L626.94,371.72L627.29,374.01L629.42,374.61L632.08,374.27L632.48,377.82L630.66,378.33L631.06,380.56L632.17,380.52L632.52,382.48L638.22,381.58L637.88,383.42L638.27,385.3L640.67,385.28L645.14,387.34L645.88,393.16L645.42,393.41L645.99,398.09L647.22,397.97L644.38,400.45L638.46,401.71L635.77,403.92L635.23,406.14L633.27,406.65L629.45,405.18L627.04,405.84L626.79,407.33L627.71,410.63L626.13,414.58L624,416.88L622.54,416.64L621.44,417.56L619.76,415.72L618.07,415.35L619.28,413.26L618.91,411.23L621.03,409.54L623.24,408.47L624.41,410.15L625.36,409.4L625.46,406.36L623.51,404.38L622.46,405.06L623.16,407.35L620.58,407.88L619,406.96L616.44,404.28L615.2,404.6L613.21,403.8L613.71,406.17L612.83,406.79L611.37,405.12L610.37,402.22L608.87,399.95L607,398.58L606.69,400.63L607.98,404.56L609,406.42L607.14,407.88L607.44,404.56L606.1,403.37L605.51,405.39L606.49,406.67L606.1,408.26L603.91,407.5L602.11,408.01L600.73,406.92L598.9,403.4L596.95,402.54L593.37,402.81L590.7,400.68L588.5,401.56L588.59,403.52L587.19,403.71L585.05,402.36L583.81,402.57L584.73,407.92L583.85,408.23L582.9,406.81L579.97,409.39L579.69,411.49L577.63,413.58L575.84,414.07L573.24,411.84L571.62,409.54L567.3,407.09L566.41,405.79L563.08,408.89L558.98,406.91L558.21,409.81L554.88,410.09L551.52,409.41L550.36,409.77L547.76,409L546.48,409.89L543.87,410.46L542.84,409.99L540.74,410.48L538.24,411.68L536.17,412.01L530.89,410.49L524.67,408.28L525.18,405.23L523.25,405.71L521.62,404L520.5,404.01L518.86,402.78L518.58,401.4L513.88,400.74L512.56,398.6L510.67,398.18L509.85,399.9L505.78,399.55L504.69,398.26L506.08,396.65L507.87,395.95L511.67,395.85L515.15,394.46L515.8,393.29L517.64,392.63L516.3,389.44L515.02,388.54L513.05,389.46L510.28,388.1L506.78,387L508.93,384.67L514.41,386.27L517.01,386.41L520.43,385.83L523.64,387L526.25,387.14L529.74,388.03L527.62,385L528.01,381.64L525.51,380.06L520.9,382.14L520,379.59L518.77,378.46L517.3,378.6L514.33,376.1L515.83,374.7L518.69,374.23L518.29,371.47L519.57,370.01L522.11,369.99L524.39,368.85L524.13,366.67L525.69,365.88L524.65,364.06L529.51,367.01L531.04,367.28L530.73,365.11L534.87,364.42L535.15,365.96L537.78,365.63L537.52,364.04L538.3,362.64L539.99,363.61L544.49,363.28L544.82,365.74L549.69,364.89L549.75,364.42L555.53,363.38L554.13,361.77L551.49,362.22L550.81,360.88L554.58,360.02L555.53,357.86L554.65,355.55L555.6,354.52L558.66,356.21L560.6,353.17L554.82,349.62L553.88,347.49L554.21,345.62L555.51,344.26L555.87,342.68L560.46,342.05L560.49,340.82L565.36,339.67L562.7,336.92L562.05,334.34L563.23,334.01L562.9,330.21L559.36,330.78L558.97,326.58L560.55,324.86L560.72,328.68L563.53,328.25L562.94,324.9L562.97,322.75L563.93,322.23L563.55,320.43L561.64,321.59Z" class="land" id="UA-65" title="Kherson"/>
    <path d="M268.76,149.53L271.64,149.51L272.4,147.24L276.28,143.93L280.42,143.8L281.54,141.24L284.4,138.93L285.03,137.06L287.01,137.28L288.45,135.62L288.94,133.59L292.8,128.03L295.83,127.62L297.77,125.18L300.63,126.33L302.37,125.57L302.76,124.23L304.79,124.17L305.4,122.73L307.58,122.4L307.59,124.18L310.3,124.06L310.91,126.07L313.05,127.32L314.44,131.01L313.01,133.44L312.66,135.29L315.59,137.05L315.49,139.54L317.61,139.58L319.69,141.25L319.31,142.37L320.9,144.21L322.47,144.5L324.52,146.47L325.12,145.2L327.44,144.42L327.55,146.18L329.12,149.08L330.33,150.18L328.67,153.38L328.22,155.8L330.44,156.43L331.09,158.34L329.31,159.1L328,161.25L326.54,160.28L325.33,160.82L326.06,164.36L325.25,166.07L327.4,168.5L329.31,173.98L332.99,174.73L333.17,177.09L335.6,179.64L337.5,178.31L337.59,179.47L334.49,181.6L334.63,183.72L336.5,185.11L336.46,187.11L334.26,189.49L335.81,190.96L335.68,192.6L333.39,194.88L334.51,196.06L333.93,198.54L336.28,198.55L337.21,199.58L336.54,201.92L336.68,203.97L337.88,204.42L338.78,207.84L338.17,209.89L338.93,213.26L340.25,215.02L338.39,216.01L336.26,215.07L333.49,218.05L331.29,217.87L329.87,216.54L327.69,216.68L327.51,218.4L325.33,218.73L320.67,222.68L318.22,226.62L319.74,229.08L318.77,231.05L318.67,233.28L319.72,234.9L320.18,240.44L318.53,242.33L319.64,246.81L318.55,248.27L317.84,251.13L315.61,253.12L313.94,251.61L312.1,252.61L313.24,254.18L312.44,255.33L309.93,254.3L307.95,254.63L305.6,255.83L299.4,254.58L296.84,256.87L293.33,255.23L289.83,257.6L289.15,260.42L285.3,259.87L285.7,262.41L282.93,262.18L282.16,260.32L279.59,256.57L278.26,257.1L276.8,256.87L275.68,255.44L273.72,255.12L272.51,249.94L269.74,248.37L269.06,243.56L269.4,240.76L267.72,233.36L267.85,228.78L268.47,226.37L267.47,224.14L268.02,220.75L267.72,218.84L268.1,216.16L267.21,214.36L268.02,211.28L269.76,211.3L270.33,210.04L269.98,206.84L269.02,205.93L269.74,203.13L269.31,201.07L267.65,199.12L267.54,195.8L265.45,193.79L267.76,190.69L268.26,187.3L270.1,185.78L270.9,183.5L267.5,180.66L269.78,178.33L268.54,174.12L266.92,171.7L267.93,170.29L265.03,168.41L266.34,166.82L265.52,164.45L266.55,161.91L267.9,162.02L269.02,158.49L267.96,156.97L267.93,155.01L271.03,154.06L268.29,151.34Z" class="land" id="UA-68" title="Khmelnytskyi"/>
    <path d="M520.02,146.37L519.82,147.42L521.96,149.12L522.53,150.51L527.77,152.04L528.01,153.66L526,156.11L528.33,159.05L529.22,157.76L530.69,159.38L531.31,162.86L533.3,164.15L532.28,171.12L534.32,174.97L536.58,174.37L537.12,176.43L538.51,176.47L539.4,178.27L539.59,181.19L543.36,182.54L544.85,184.84L545.33,187.3L547,189.79L547.07,192.85L545.39,194.54L543.94,194.58L543.62,196.42L544.58,202.07L546.51,202.79L546.44,204.29L542.96,204.06L540.49,202.64L538.11,202.37L536.75,200.66L534.75,204.59L534.96,205.83L536.66,207.25L540.23,209.17L541.1,210.75L542.98,211.1L545.61,210.49L547.55,212.17L549.81,211.01L551.53,211.19L551.11,212.24L548,215.15L547.35,216.72L548.08,217.82L552.71,219.23L550.4,222.9L551.07,226.52L552.25,227.68L548.89,229.09L546.19,228.67L543.5,228.89L542.54,230.19L539.64,230.37L536.98,228.7L535.97,226.28L533.96,223.83L533.08,225.31L530.81,224.73L529.99,221.98L526.18,222.1L524.96,223.4L524.17,227.8L520.79,229.45L521.61,230.94L521.22,232.86L518.97,232.98L516.21,231.59L515.28,232.74L511.52,233.21L506.78,230.77L504.35,231.93L502.34,231.65L501.7,233.88L498.92,233.34L497.22,235.4L494.95,239.96L492.75,240.75L489.3,243.51L488.67,244.75L486.48,244.84L485.63,242.89L483.65,243.47L483.21,242.36L479.82,242.68L478.99,243.95L475.46,244.21L474.85,243.03L472.24,242.37L465.34,243.24L461.97,242.18L459.42,242.28L456.95,243.33L455.75,245.38L455.26,248.99L453.5,249.61L452.44,251.27L454.15,252.73L453.9,255.16L450.32,255.36L449.18,254.15L447.05,254.71L446.37,257.62L443.7,258.04L440.73,259.17L439.19,260.7L436.79,259.19L435.03,262.49L434.16,262.68L431.87,260.71L428.42,261.28L429.92,259.76L430.7,257.42L430,254.82L427.56,253.44L429.52,250.88L427.41,249.48L423.61,245.69L424.57,243.71L424.15,242.57L419.93,241.2L419.52,237.23L418.46,236.56L418.37,233.27L416.45,232.95L414.97,231.32L414.95,230.09L416.82,227.22L414.16,226.07L413.45,224.21L414.98,221.13L417.92,218.61L417.75,215.75L418.49,212.37L418.64,214.1L419.78,215.62L423.63,215.08L425.31,213.74L426.88,211.07L427.81,210.97L427.32,207.58L430.17,206.45L431.02,205.57L432.96,206.12L433.48,208.53L435.6,205.97L438.35,205.84L437.84,209.29L440.88,209.56L445.22,210.57L448.54,204.27L449.95,203.4L451.9,205.83L455.67,203.12L458.51,204.01L460.93,205.59L463.97,204.13L466.74,204.27L468.51,203.8L469.68,200.63L472.24,199.58L473.67,196.51L475.99,195.2L476.71,191.71L478.88,190.06L478.01,189.13L478.94,186.15L481.16,183.19L480.92,181.38L481.6,176.37L480.53,175.5L481.8,172.76L481.38,171.39L483.53,171.07L484.87,169.31L487.9,168.46L488.59,167.67L487.32,164.84L485.73,163.97L485.44,162.22L490.52,162.21L490.96,164.1L490.4,167.15L491.29,169.69L492.75,170.88L496.23,169.77L497.36,167.72L498.53,167.73L498.72,171.13L502.94,171.51L505.29,166.94L506.44,165.91L507.26,163.82L511.56,164.31L511.05,160.3L514.48,158.17L511.1,157.8L511.26,154.81L513.9,153.33L512.81,152.49L515.67,147.93L517.47,149.08L518.73,146.82Z" class="land" id="UA-71" title="Cherkasy"/>
    <path d="M575.89,2.12L574.35,4.39L574.02,7.45L572.61,10.68L571.02,12.97L572.22,16.08L575.31,17.51L577.3,20.07L578.6,20.36L578.95,23.43L575.84,24.25L574.83,22.63L572.81,23.97L571.94,25.6L573.64,27.68L572.66,30.99L566.99,32.02L565.15,34.09L562.94,35.4L562.89,39.19L561.43,41.12L562.1,43.64L563.43,45.16L563.53,48.7L564.27,53L565.83,55.51L564.41,56.68L565.57,57.92L565.87,60.06L563.23,61.64L562.55,65.45L563.44,67.53L559.36,69.53L561.06,72.6L559.76,74.87L560.62,77.38L559.06,79.13L559.42,80.67L557.27,81.13L556.06,83.61L557.33,84.86L555.32,88.33L559.3,89.04L560.7,89.93L559.42,94.82L561.02,95.1L562.69,94.12L563.63,97.47L566.24,97.21L566.61,101.11L564.96,102.24L564.21,108.68L566.87,113L563.57,114.05L564.15,115.18L564.02,117.72L562.67,118.44L561.87,122.93L559.8,125.49L560.58,126.86L558.7,128.11L558.25,130.06L556.54,129.99L553.36,134.63L550.73,136.71L547.21,137.73L541.95,137.88L539,137.67L537.43,138.63L535.76,136.98L536.02,135.66L532.19,134.19L530.69,133.11L529.08,133.15L525.84,138.48L524.31,137.83L521.23,138.51L521.7,136.56L518.69,136.68L516.97,134.7L516.09,131.11L513.9,130.6L517.72,127.52L517.72,125.51L513.02,125.3L511.71,121.92L509,119.52L506.98,120.07L505.86,121.28L505.7,124.3L501.71,124.08L499.35,126.78L495.19,126.37L490.21,128.12L488.18,125.98L485.98,126.49L483.37,125.5L482.68,123.53L480.44,123.23L479.61,120.97L481.72,121.12L481.08,119.01L481.88,116.86L480.53,114.72L477.68,111.37L477.76,109.77L475.71,109.43L475.27,110.49L470.63,110.54L467.18,110.23L467.03,111.65L462.85,109.56L461.27,109.96L461.62,106.79L463.03,105.87L462.52,102.93L461.05,101.61L459.08,101.08L457.29,97.01L457.27,94.58L455.44,92.79L451.22,93.06L451.52,89.57L450.52,88.16L451.89,87.08L450.88,85.58L450.73,83.19L453.19,78.91L452.79,76.72L455.98,75.12L455.11,73.2L457.53,71.47L457.71,68.73L455.88,65.4L454.78,65.4L454.98,62.03L454.07,59.76L454.75,57.9L453.17,57.66L452.37,56.17L452.65,52.12L451.62,51.03L454.42,48.33L454.39,46.06L456.44,45.85L457.19,42.35L458.37,40.2L457.61,38.23L459.47,37.41L459.91,35.37L461.66,32.87L463.97,33.16L464.94,31.57L464.31,30.31L467.51,27.25L470.21,22.65L469.58,21.05L478.46,19.03L479.27,20.61L481.51,21.13L483.27,23.18L485.09,22.47L486.25,18.83L488.85,17.72L489.66,16.3L491.67,16.32L492.16,17.71L494.6,17.39L498.25,18.18L501.1,18.15L503.22,19.48L505.75,18.28L507.55,19.28L508.55,18.53L510.89,19.01L513.28,20.74L513.83,22.41L519.09,23.73L520.73,23.05L521.36,21.22L523.42,21.14L527.49,18.91L530.6,15.25L529,14.9L529.76,12.5L528.9,10.75L529.81,9.21L532,8.89L530.2,4.35L530.75,2.78L532.31,2.74L535.85,4.33L538.49,3.53L539.77,5.28L540.95,4.94L544.18,7.38L544.94,8.8L547.28,7.55L549.83,8.03L550.74,6.73L552.68,7.06L553.68,9.02L559.45,4.81L560.56,5.02L564.89,0.22L566.63,0L570.16,1.36L572.56,1.52L574.89,0.52Z" class="land" id="UA-74" title="Chernihiv"/>
    <path d="M243.54,248.34L247.13,249.05L248.54,250.7L249.73,248.23L251.05,248.7L254.08,253.07L256.6,253.59L258.32,251.68L259.87,252.48L260.72,250.34L261.94,250.49L262.2,252.67L261.27,254.11L263.41,257.12L264.78,256.14L263.45,253.14L265.5,253.12L265.64,256.43L267.77,257.91L270.8,256.97L272.23,258.97L274.42,259.04L276.06,257.27L278.26,257.1L279.59,256.57L282.16,260.32L282.93,262.18L285.7,262.41L285.3,259.87L289.15,260.42L289.83,257.6L293.33,255.23L296.84,256.87L299.4,254.58L305.6,255.83L307.95,254.63L309.93,254.3L312.44,255.33L313.24,254.18L312.1,252.61L313.94,251.61L315.61,253.12L317.84,251.13L321.22,253.1L322.49,256.91L322.36,259.01L323.2,260.61L324.66,261.42L322.04,262.57L320.9,265.2L318.23,265.09L318.1,263.62L315.57,263.17L314.21,267.49L311.96,267.58L310.18,266.33L309.03,267.29L307.23,267.22L305.88,265.3L303.56,264.51L304.01,267.15L302.05,267.22L301.66,268.6L297.54,267.02L296.71,264.69L295.6,265.06L292.55,264.75L291.5,266.02L289.77,265.7L291.93,268.86L294.36,269.52L294.65,271.5L294.04,272.73L289.08,270.56L287.09,272.06L285.77,273.99L285.78,276.2L283.78,276.11L283.71,277.49L281.72,278.2L279.36,277.47L278.77,278.38L275.85,279.62L273.55,279.77L273.62,281.35L272.06,282.98L271.06,286.24L268.45,288.2L267.23,291.85L263.96,292.86L262.06,292.27L257.31,293.38L255.75,292.97L254.67,294.03L251.91,293.85L249.74,295.38L245.85,295.19L244.31,294.7L241.81,295.45L239.59,295.53L231.07,296.96L226.23,298.99L224.41,303.13L221.99,306.12L221.71,307.07L218.42,308.94L217.07,308.37L213.39,308.84L214.46,304.6L216,302.43L216.59,300.69L214.99,299.33L214.85,296.71L213.24,294.93L212.78,291.77L213.01,289.74L216.49,285.62L216.81,283.8L219.54,283L220.36,279.88L222.15,280.04L222.68,278.98L221.3,277.13L222.88,275.75L224.27,275.68L227.88,270.59L230.99,267.4L233.73,266.24L236.73,265.73L239.02,266.11L240.03,267.06L242.9,267.06L243.26,264.93L242.43,262.83L242.66,258.12L242.48,254.95L241.62,251.1Z" class="land" id="UA-77" title="Chernivtsi"/>
  </g>
</svg>