<?xml version="1.0" encoding="UTF-8"?>
<svg xmlns="http://www.w3.org/2000/svg" width="588.02" height="366.04" viewBox="185.99 73.98 588.02 366.04" style="background-color:#000000">
  <!-- Created using SVG Map Generator: dojo.amcharts.com/svg-map-generator -->
  <style>
    .land { fill: #ffffff; stroke: #000000; stroke-width: 0.65; }
  </style>
  <g id="polygons">
    <path d="M530.21,279.09L533.35,280.86L535.97,290.44L529.71,295.52L522.7,298.89L522.57,303.91L527.42,304.68L519.34,314.28L523.07,318.33L520.43,325.71L521.58,331.44L517.09,336.71L512.59,332.97L503.03,339.02L509.01,341.51L512.93,345.34L513.5,352.9L509.74,358.95L506.45,356.73L499.95,361.76L498.04,360.28L492.35,362.1L495.4,367.32L490.69,372.4L495.93,381.95L490.52,384.09L484.65,383.14L479.47,387.34L481.2,390.43L476.06,393.42L471.77,399.52L467.39,398.89L460.37,403.37L460.59,405.61L448.72,405.63L445.14,400.35L441.64,405.22L442.84,409.64L437.11,409.75L434.78,413.66L427.89,413.29L424.49,416.36L419.79,416.57L419.12,413.78L424.41,403.06L416.88,401.82L413.84,397.45L417.29,391.72L419.99,391.58L422.88,381.87L420.47,379.38L428.17,372.79L429.11,367.12L427.09,363.69L425.93,355.79L429.04,349.17L426.56,334.75L423.76,328.93L425.75,325.83L433,323.34L436.11,318.58L433.43,308.48L429.41,303.1L429.26,297.91L432.92,288.1L431.6,282.51L433.02,276.37L432.1,271.86L441.7,275.67L449.89,267.72L460.6,262.99L465.73,268.15L461.29,275.41L464.84,280.47L472.7,271.92L476.89,273.15L479.44,264.75L489.25,269.55L491.24,276.01L495.09,280.38L503.13,286.37L508.3,287.05L511.39,280.48L520.67,284.73L521.9,280.1L528.01,277.65Z" class="land" id="HU-BK" title="Bács-Kiskun"/>
    <path d="M417.29,391.72L413.84,397.45L416.88,401.82L424.41,403.06L419.12,413.78L419.79,416.57L415.36,419.01L410.51,415.55L407.58,416.32L406.08,420.75L399.18,428.22L391.22,434.24L384.78,437.37L381.1,433.33L378.47,435.79L370.73,434.71L369.51,432.61L360.24,431.35L356.78,434.34L349.51,430.72L336.71,432.44L330.56,428.11L319.62,424.26L322.55,421.1L326.7,420.56L323.62,412.85L318.96,413.19L317.26,407.08L319.93,404.49L317.67,399.77L321.52,397.52L322.66,385.69L325.96,379.48L336.18,379.34L343.59,376.69L345.35,367.25L354.17,368.23L366.86,363.14L365.5,355.98L372.62,355.24L376.68,353.31L379.38,355.7L379.83,360.36L382.96,361.99L381.96,368.72L385.85,370.54L388.04,374.79L393.35,369.11L396.31,373.93L395.36,376.68L400.45,382.61L405.33,384.98L414.33,391.79Z" class="land" id="HU-BA" title="Baranya"/>
    <path d="M665.06,277.01L666.61,280.46L663.25,288.44L659.99,289.2L660.12,297.18L653.23,300.62L653.12,305.17L650.13,310.48L653.85,315.39L650.79,319.71L645.86,320.79L643.69,327.63L636.51,326.84L635.9,332.71L632.06,337.75L630.79,342.85L635.56,348.99L633.24,353.6L626.06,355.24L623.86,367.4L618.1,367.93L617.09,372.66L613.72,374.98L610.26,372.17L601.1,372.71L597.34,369.59L589.02,371.13L586.69,369.33L587.51,361.69L585.84,357.44L581.82,358.07L580.95,361.61L571.88,359.67L572.21,348.84L575.12,339.5L572.09,334.67L572.15,314.8L573.55,310.61L570.7,308.37L565.79,308.42L561.07,303.81L558.45,304.84L557.14,297.91L561.47,293.06L566.27,293.27L569.47,290.48L577.31,292.6L582.63,290.54L584.5,287.64L583.12,275.86L591.68,275.4L595.66,268.61L595.05,261.2L603.54,256.27L606.21,250.8L609.96,251.46L619.25,258.02L625.46,258.84L628.05,261.09L634.31,260.76L633.47,268.91L628.47,272.64L629.64,278.94L638.94,282.73L643.77,282.78L648.91,286.52L657.14,285.02L660.26,280.4Z" class="land" id="HU-BE" title="Békés"/>
    <path d="M704.91,103.39L700.41,113.62L693.09,114.65L687.58,121.45L685.58,120.62L677.27,123.31L673.1,127.71L661.1,127.13L658.09,125.35L652.82,128.38L646.43,129.3L643.97,136.55L647.08,140.59L645.89,146.19L643.36,148.01L633.77,147.29L619.36,147.37L615.04,151.66L618.76,157.3L619.05,163.53L615.46,166.36L613.08,171.25L615.09,175.51L612,184.15L608.21,188.08L603.91,188.98L598.81,194.6L593.47,194.95L588.5,196.75L582.89,192.31L577.21,192.58L571.4,188.51L573.38,185.84L565.59,177.89L565.57,170.05L560.71,165.92L566.82,161.54L560.9,156.32L564.32,149.39L563.42,137.34L560.91,132.89L555.53,133.05L552.97,140.45L549.5,136.5L546.17,139.75L540.49,140.2L536.14,134.88L530.02,133.86L526.45,130.59L533.49,123.5L534.24,120.88L540.03,119.83L542.93,116.06L546.84,118.48L557.61,104.93L558.22,97.91L566.03,88.94L565.55,83.64L572.75,83.08L578.92,79.65L595.09,76.63L596.9,80.8L601.35,79.99L604.76,84.58L609.65,83.31L621.31,85.4L629.05,82.39L634.76,84.54L636.09,79.54L644.22,79.82L647.2,77.74L652.86,81.05L655.19,86.52L661.24,86.22L662.07,91.63L669.93,106.44L680.33,108.93L684.25,105.45L697.1,101.56Z" class="land" id="HU-BZ" title="Borsod-Abaúj-Zemplén"/>
    <path d="M445.32,202.33L448.11,204.02L452.48,211.41L457.1,211.73L458.72,215.38L463.46,214.5L464.79,221.11L458.84,224.39L451.41,234.18L447.97,235.66L443.06,228.65L432.23,232.36L432.2,226.7L434.36,221.39L430.36,217.52L429.79,207.27L438.83,205.34L439.55,202.33Z" class="land" id="HU-BU" title="Budapest"/>
    <path d="M589.02,371.13L586.86,374.52L583.68,384.77L577.26,389.63L569.12,383.04L562.13,387.22L552.66,384.22L546.98,387.19L544.1,390.83L537.73,385.51L534.16,387.27L530.06,383.76L527.69,387.2L524.2,384.08L516.25,383.45L506.39,389.34L501.44,387.09L495.93,381.95L490.69,372.4L495.4,367.32L492.35,362.1L498.04,360.28L499.95,361.76L506.45,356.73L509.74,358.95L513.5,352.9L512.93,345.34L509.01,341.51L503.03,339.02L512.59,332.97L517.09,336.71L521.58,331.44L520.43,325.71L523.07,318.33L519.34,314.28L527.42,304.68L537.12,311.12L542.21,305.42L547.3,309.31L558.45,304.84L561.07,303.81L565.79,308.42L570.7,308.37L573.55,310.61L572.15,314.8L572.09,334.67L575.12,339.5L572.21,348.84L571.88,359.67L580.95,361.61L581.82,358.07L585.84,357.44L587.51,361.69L586.69,369.33Z" class="land" id="HU-CS" title="Csongrád-Csanád"/>
    <path d="M429.26,297.91L423.8,299.16L423.97,302.52L411.48,311.34L412.69,314.24L408.1,318.43L404.09,316.96L397.51,307.31L389.8,312.59L384.53,308.97L376.01,305.57L367.73,307.96L368.02,294.17L363.53,285.22L369.75,279.04L367.17,270.05L369.8,267.96L367.88,260.14L368.92,252.65L363.21,246.35L358.84,248.44L354.58,244.81L352.78,237.57L358.85,229.28L359.59,223.47L362.82,224.09L370.53,221.75L371.01,224.67L376.56,229.13L382.06,226.92L386.35,218.39L388.5,217.4L391.65,214.91L391.45,210.03L399.17,206.95L402.67,208.21L409.04,206.48L409.56,212.38L412.37,217.48L417.33,221.83L414.95,228.82L423.97,239.33L425.54,244.61L428.95,245.3L425.72,254.96L424.98,260.8L427.24,270.55L433.02,276.37L431.6,282.51L432.92,288.1Z" class="land" id="HU-FE" title="Fejér"/>
    <path d="M705.63,204.07L702.79,208.79L696.28,214.42L695.1,219.54L697.42,227.7L695.3,232.21L689.28,232.64L681.65,249.95L682.25,256.21L678.7,258.27L676.45,264.41L670.85,267.59L665.06,277.01L660.26,280.4L657.14,285.02L648.91,286.52L643.77,282.78L638.94,282.73L629.64,278.94L628.47,272.64L633.47,268.91L634.31,260.76L628.05,261.09L625.46,258.84L619.25,258.02L609.96,251.46L606.21,250.8L610.02,248.07L611.02,236.54L607.72,220.13L607.38,208.01L603.42,204.25L598.85,206.09L594.64,204.17L593.47,194.95L598.81,194.6L603.91,188.98L608.21,188.08L612,184.15L615.09,175.51L613.08,171.25L615.46,166.36L619.05,163.53L618.76,157.3L625.04,157.8L630.68,161.91L640.57,163.09L645.33,161.65L656.96,161.47L656.98,166.8L655.05,179.19L660.05,181.59L663.3,187.33L669.13,186.93L670.29,190.07L680.01,195.18L688,186.85L693.28,190.56L694.67,198.07L698.05,199.47L700.01,194.81L703.35,196.18Z" class="land" id="HU-HB" title="Hajdú-Bihar"/>
    <path d="M588.5,196.75L583.72,199.52L582.69,206.95L571.78,214.75L566.99,216.43L563.79,221.29L556.63,226.4L550.93,223.94L546.96,218.3L546.92,211.47L541.81,208.56L539.85,202.65L530.75,205.02L531.58,209.64L522.66,204.49L521.73,194.33L514.72,196.64L506.37,204.33L500.77,201.02L493.31,205.18L490.93,197.77L486.81,192.41L485.12,186.22L491.61,180.58L490.35,177.26L497.44,174.87L501.5,169.66L502.84,164.64L507.27,168.64L511.09,161.29L515.75,162.91L519.27,158.58L520.5,152.61L523.26,149.62L519.38,140.79L525.31,138.71L530.02,133.86L536.14,134.88L540.49,140.2L546.17,139.75L549.5,136.5L552.97,140.45L555.53,133.05L560.91,132.89L563.42,137.34L564.32,149.39L560.9,156.32L566.82,161.54L560.71,165.92L565.57,170.05L565.59,177.89L573.38,185.84L571.4,188.51L577.21,192.58L582.89,192.31Z" class="land" id="HU-HE" title="Heves"/>
    <path d="M593.47,194.95L594.64,204.17L598.85,206.09L603.42,204.25L607.38,208.01L607.72,220.13L611.02,236.54L610.02,248.07L606.21,250.8L603.54,256.27L595.05,261.2L595.66,268.61L591.68,275.4L583.12,275.86L584.5,287.64L582.63,290.54L577.31,292.6L569.47,290.48L566.27,293.27L561.47,293.06L557.14,297.91L558.45,304.84L547.3,309.31L542.21,305.42L537.12,311.12L527.42,304.68L522.57,303.91L522.7,298.89L529.71,295.52L535.97,290.44L533.35,280.86L530.21,279.09L528.95,270.36L526.24,264.09L530.77,257.03L528.97,252.05L521.05,248.03L523.65,241.56L521.15,235.92L507.42,225.66L500.4,217.77L492.07,210.45L493.31,205.18L500.77,201.02L506.37,204.33L514.72,196.64L521.73,194.33L522.66,204.49L531.58,209.64L530.75,205.02L539.85,202.65L541.81,208.56L546.92,211.47L546.96,218.3L550.93,223.94L556.63,226.4L563.79,221.29L566.99,216.43L571.78,214.75L582.69,206.95L583.72,199.52L588.5,196.75Z" class="land" id="HU-JN" title="Jász-Nagykun-Szolnok"/>
    <path d="M388.5,217.4L386.35,218.39L382.06,226.92L376.56,229.13L371.01,224.67L370.53,221.75L362.82,224.09L359.59,223.47L358.85,229.28L352.78,237.57L346.34,237.64L343.97,230.92L339.2,230.2L341.1,225.99L338.56,221.98L341.96,215.85L339.56,210.25L342.78,206.16L343.72,201.51L340.04,198.92L341.42,190.7L340.62,185.78L356.2,183.6L374.89,186.84L388.74,182.57L392.55,184.16L396.42,182.57L405.44,183.3L411.95,179.93L413.43,176.4L422.41,175.81L427.35,177.96L430.79,187.65L423.03,189.17L423.99,197L416.97,198.65L409.04,206.48L402.67,208.21L399.17,206.95L391.45,210.03L391.65,214.91Z" class="land" id="HU-KE" title="Komárom-Esztergom"/>
    <path d="M526.45,130.59L530.02,133.86L525.31,138.71L519.38,140.79L523.26,149.62L520.5,152.61L519.27,158.58L515.75,162.91L511.09,161.29L507.27,168.64L502.84,164.64L501.5,169.66L497.44,174.87L490.35,177.26L491.61,180.58L485.12,186.22L482.5,184.89L480.02,191.15L477.22,192.39L474.68,187.49L472.44,175.87L463.79,173.92L455.71,174.83L450.99,171.55L442.8,172.59L439.53,167.79L430.92,160.28L435.19,155.19L436.57,150.24L432.3,148.49L429.91,144.88L434.49,145.08L437.42,142.33L441.1,144.73L447.54,142.88L452.18,144.71L461.75,141.07L472.44,141.04L478.26,139.42L481.42,126.12L486.1,124.22L490.48,120.02L494.74,124.68L501.74,124.68L506.86,130.33L513.57,130.8L517.01,135.06L520.22,130.9Z" class="land" id="HU-NO" title="Nógrád"/>
    <path d="M429.91,144.88L432.3,148.49L436.57,150.24L435.19,155.19L430.92,160.28L439.53,167.79L442.8,172.59L450.99,171.55L455.71,174.83L463.79,173.92L472.44,175.87L474.68,187.49L477.22,192.39L480.02,191.15L482.5,184.89L485.12,186.22L486.81,192.41L490.93,197.77L493.31,205.18L492.07,210.45L500.4,217.77L507.42,225.66L521.15,235.92L523.65,241.56L521.05,248.03L528.97,252.05L530.77,257.03L526.24,264.09L528.95,270.36L530.21,279.09L528.01,277.65L521.9,280.1L520.67,284.73L511.39,280.48L508.3,287.05L503.13,286.37L495.09,280.38L491.24,276.01L489.25,269.55L479.44,264.75L476.89,273.15L472.7,271.92L464.84,280.47L461.29,275.41L465.73,268.15L460.6,262.99L449.89,267.72L441.7,275.67L432.1,271.86L433.02,276.37L427.24,270.55L424.98,260.8L425.72,254.96L428.95,245.3L425.54,244.61L423.97,239.33L414.95,228.82L417.33,221.83L412.37,217.48L409.56,212.38L409.04,206.48L416.97,198.65L423.99,197L423.03,189.17L430.79,187.65L427.35,177.96L422.41,175.81L420.68,171.57L415.53,169.01L416.64,161.09L415.15,155.72L420.2,153.17L420.71,147.47ZM445.32,202.33L439.55,202.33L438.83,205.34L429.79,207.27L430.36,217.52L434.36,221.39L432.2,226.7L432.23,232.36L443.06,228.65L447.97,235.66L451.41,234.18L458.84,224.39L464.79,221.11L463.46,214.5L458.72,215.38L457.1,211.73L452.48,211.41L448.11,204.02Z" class="land" id="HU-PE" title="Pest"/>
    <path d="M363.53,285.22L368.02,294.17L367.73,307.96L364.03,309.33L359.31,313.97L360.6,320.73L355.82,327.68L355.86,334.82L352.87,335.41L353.05,343.48L355.56,351.04L351.46,354.92L356.58,359.42L357.07,364.17L354.17,368.23L345.35,367.25L343.59,376.69L336.18,379.34L325.96,379.48L322.66,385.69L321.52,397.52L317.67,399.77L319.93,404.49L317.26,407.08L318.96,413.19L323.62,412.85L326.7,420.56L322.55,421.1L319.62,424.26L317.03,417.3L312.23,413.16L300.89,411.5L296.7,413.66L292.49,406.02L288.76,406.38L285.67,403.58L285.6,399.56L278.72,391.92L279.13,386.6L264.33,377.83L261.27,377.36L253.45,370.95L252.51,364.66L254.89,366.51L264.57,367.31L268.46,361.74L267.14,356.92L270.58,352.99L275.45,354.3L279.48,351.58L279.74,344.73L282.8,341.46L282.56,322.07L285.57,319.23L286.59,313.54L294.76,313.92L299.53,311.49L305.55,311.18L321.31,303.49L324.72,300.93L341.86,293.66L341.81,290.43L354.85,284.39Z" class="land" id="HU-SO" title="Somogy"/>
    <path d="M340.62,185.78L341.42,190.7L340.04,198.92L343.72,201.51L342.78,206.16L339.56,210.25L341.96,215.85L338.56,221.98L341.1,225.99L339.2,230.2L333.75,233.85L332.93,239.16L325.44,239.16L325.03,234.92L328.51,232.64L330.67,227.94L328.41,221.99L323.94,220.14L318.65,222.61L311.69,221.27L305.95,222.49L303.9,226.42L300.51,225.21L298.43,219.04L294.86,223.79L288.19,225.15L280.23,223.65L278.42,225.16L269.24,228.55L267.98,221.54L258.52,229.84L253.34,227.49L250.34,223.03L244.65,223.76L238.74,227.78L232.86,223.37L238.86,211.43L233.51,200.86L228.12,201.48L221.63,197.84L213.71,195.35L224.79,188.1L224.48,184.36L229.59,183.09L239.3,186.71L241.61,192.93L248.61,193.12L271.33,189.85L269.59,187.42L268.03,173.21L264.46,170.49L272.23,166L273.6,157.47L278.36,150.8L284.44,149.47L286.46,152.79L292.3,153.1L300.36,161.83L302.86,167.25L309.27,169.97L312.2,175.73L316,175.19L324.87,183.57L331,185.76Z" class="land" id="HU-GS" title="Győr-Moson-Sopron"/>
    <path d="M705.63,204.07L703.35,196.18L700.01,194.81L698.05,199.47L694.67,198.07L693.28,190.56L688,186.85L680.01,195.18L670.29,190.07L669.13,186.93L663.3,187.33L660.05,181.59L655.05,179.19L656.98,166.8L656.96,161.47L645.33,161.65L640.57,163.09L630.68,161.91L625.04,157.8L618.76,157.3L615.04,151.66L619.36,147.37L633.77,147.29L643.36,148.01L645.89,146.19L647.08,140.59L643.97,136.55L646.43,129.3L652.82,128.38L658.09,125.35L661.1,127.13L673.1,127.71L677.27,123.31L685.58,120.62L687.58,121.45L693.09,114.65L700.41,113.62L704.91,103.39L712.21,97.19L715.02,99.17L717.64,105.75L721.55,110.23L723.82,116.08L729.15,119.89L737.48,121.2L743.79,126.82L746.22,137.05L752.46,140.45L758.15,136.8L763.82,136.51L770.68,145.47L766.81,153.71L771.36,156.35L767.27,164.21L759.78,166.28L761.36,172.66L755.89,173.61L753.16,179.66L747.12,181.7L741.88,181.63L736.06,176.73L733.17,177.62L731.25,184.43L725.15,184.56L717.29,186.98L714.14,192.11L709.55,204.58Z" class="land" id="HU-SZ" title="Szabolcs-Szatmár-Bereg"/>
    <path d="M278.42,225.16L279.63,231.57L288.77,238.48L282.81,240.82L280.71,245.32L281.38,257.61L280.3,261.8L281.99,269.73L269.9,271.64L269.71,273.98L263.71,275.48L264.9,279.8L261.77,284.82L250.14,282.67L244.31,289.4L234.92,288.12L231.6,289.39L226.14,298.12L220.5,301.03L220.46,304.75L215.51,307.64L212,306.79L209.05,314.97L204.63,310.77L207.12,300.38L202.55,296.13L197.66,295.65L190.69,298.34L188.64,295.71L200.84,284.77L201.05,281.68L207.31,278.81L209.31,280.27L215.91,279.4L222.07,272.79L217.06,268.17L222.85,264.03L221.72,261.3L214.11,256.62L215.22,249.07L219.4,244.48L216.24,234.77L215.75,228.28L226.68,228.55L232.86,223.37L238.74,227.78L244.65,223.76L250.34,223.03L253.34,227.49L258.52,229.84L267.98,221.54L269.24,228.55Z" class="land" id="HU-VA" title="Vas"/>
    <path d="M367.73,307.96L376.01,305.57L384.53,308.97L389.8,312.59L397.51,307.31L404.09,316.96L408.1,318.43L412.69,314.24L411.48,311.34L423.97,302.52L423.8,299.16L429.26,297.91L429.41,303.1L433.43,308.48L436.11,318.58L433,323.34L425.75,325.83L423.76,328.93L426.56,334.75L429.04,349.17L425.93,355.79L427.09,363.69L429.11,367.12L428.17,372.79L420.47,379.38L422.88,381.87L419.99,391.58L417.29,391.72L414.33,391.79L405.33,384.98L400.45,382.61L395.36,376.68L396.31,373.93L393.35,369.11L388.04,374.79L385.85,370.54L381.96,368.72L382.96,361.99L379.83,360.36L379.38,355.7L376.68,353.31L372.62,355.24L365.5,355.98L366.86,363.14L354.17,368.23L357.07,364.17L356.58,359.42L351.46,354.92L355.56,351.04L353.05,343.48L352.87,335.41L355.86,334.82L355.82,327.68L360.6,320.73L359.31,313.97L364.03,309.33Z" class="land" id="HU-TO" title="Tolna"/>
    <path d="M339.2,230.2L343.97,230.92L346.34,237.64L352.78,237.57L354.58,244.81L358.84,248.44L363.21,246.35L368.92,252.65L367.88,260.14L369.8,267.96L367.17,270.05L369.75,279.04L363.53,285.22L354.85,284.39L341.81,290.43L341.86,293.66L324.72,300.93L321.31,303.49L305.55,311.18L299.53,311.49L294.39,306.14L291.37,300.97L291.49,294.78L287.78,290.19L282.99,289.69L284.86,283.87L281.1,279.67L276.49,280L269.71,273.98L269.9,271.64L281.99,269.73L280.3,261.8L281.38,257.61L280.71,245.32L282.81,240.82L288.77,238.48L279.63,231.57L278.42,225.16L280.23,223.65L288.19,225.15L294.86,223.79L298.43,219.04L300.51,225.21L303.9,226.42L305.95,222.49L311.69,221.27L318.65,222.61L323.94,220.14L328.41,221.99L330.67,227.94L328.51,232.64L325.03,234.92L325.44,239.16L332.93,239.16L333.75,233.85Z" class="land" id="HU-VE" title="Veszprém"/>
    <path d="M269.71,273.98L276.49,280L281.1,279.67L284.86,283.87L282.99,289.69L287.78,290.19L291.49,294.78L291.37,300.97L294.39,306.14L299.53,311.49L294.76,313.92L286.59,313.54L285.57,319.23L282.56,322.07L282.8,341.46L279.74,344.73L279.48,351.58L275.45,354.3L270.58,352.99L267.14,356.92L268.46,361.74L264.57,367.31L254.89,366.51L252.51,364.66L245.7,357.13L239.2,356.34L234.49,348.11L228.64,347.35L222.23,342.44L221.3,335.34L210.41,324.68L213.3,322.95L214.17,318.39L209.05,314.97L212,306.79L215.51,307.64L220.46,304.75L220.5,301.03L226.14,298.12L231.6,289.39L234.92,288.12L244.31,289.4L250.14,282.67L261.77,284.82L264.9,279.8L263.71,275.48Z" class="land" id="HU-ZA" title="Zala"/>
  </g>
</svg>