<?xml version="1.0" encoding="UTF-8"?>
<svg xmlns="http://www.w3.org/2000/svg" width="665.37" height="399.63" viewBox="147.31 57.19 665.37 399.63" style="background-color:#000000">
  <!-- Created using SVG Map Generator: dojo.amcharts.com/svg-map-generator -->
  <style>
    .land { fill: #ffffff; stroke: #000000; stroke-width: 0.65; }
  </style>
  <g id="polygons">
    <path d="M595.82,300.31L602.95,303.51L603.38,308.66L601.27,313.33L609.57,313.36L616.1,315.35L614.7,318.65L608.23,323.21L604.44,324.46L600.64,322.69L595.68,317.37L590.74,313.99L574.94,312.11L571.29,312.11L558.37,312.67L558.51,305.56L561.96,305.88L562.39,301.32L557.57,298.32L559.17,294.07L550.27,289.3L550.64,283.97L558.8,277.14L562.7,279.02L561.93,282.23L559.68,288.08L563.5,288.08L570.55,284.81L575.88,289.26L581.99,285.64L586.07,279.72L591.74,276.72L600.33,280.03L607.03,271.53L606.09,261.59L609.57,259.81L618.38,271.39L616.87,276.37L613.56,279.79L608.71,275.64L601.5,282.99L596.59,283.2L591.43,280.31L585.98,286.62L593.03,289.33L594.65,292.44Z" class="land" id="GB-DX" title="Dhekelia"/>
    <path d="M561.93,282.23L568.58,282.75L570.55,284.81L563.5,288.08L559.68,288.08ZM550.64,283.97L550.27,289.3L559.17,294.07L557.57,298.32L562.39,301.32L561.96,305.88L558.51,305.56L558.37,312.67L553.35,313.57L548.76,317.12L544.56,322.62L541.91,330.31L541.43,348.53L533.67,360.91L531.7,366.6L519.26,365.81L512.7,368.58L509.54,373.69L502.23,377.27L498.98,380.81L492.68,381.16L484.61,383.66L480.47,387.62L473.08,391.19L468.8,392.06L462.99,396.61L455.88,399.38L448.75,400.91L440.62,399.28L437.14,400.81L436.49,393.76L437.66,388.94L437.11,376.71L433.26,371.95L428.76,368.97L421.65,359.83L417.46,356.81L402.17,353.64L397.01,351.52L396.98,343.21L401.57,338.59L405.03,337.96L409.5,333.47L419.89,336.71L426.3,334.34L430.18,337.09L431.69,341.3L436.69,336.85L442.19,335.74L444.93,333.13L444.42,328.64L447.9,324.92L452.89,323.04L457.91,327.91L463.93,325.3L469.12,326.66L474.31,325.16L478.07,313.12L482.67,313.99L485.6,317.23L489.48,316.11L491.11,312.49L500.87,314.48L505.86,307.76L507.08,299.33L501.69,294.98L501.49,291.74L496.3,286.02L496.81,279.44L503.52,279.44L503.83,270.24L510.05,266.99L522.66,271.98L528.5,263.54L536.23,263.05L539.2,267.48L544.45,269.99L543.68,273.93L545.13,284.07Z" class="land" id="CY-03" title="Larnaca"/>
    <path d="M616.1,315.35L609.57,313.36L606.26,306.09L605.49,300.31L595.82,300.31L594.65,292.44L593.03,289.33L585.98,286.62L591.43,280.31L596.59,283.2L601.5,282.99L608.71,275.64L613.56,279.79L616.87,276.37L618.38,271.39L609.57,259.81L606.09,261.59L607.03,271.53L600.33,280.03L591.74,276.72L586.07,279.72L581.99,285.64L575.88,289.26L570.55,284.81L568.58,282.75L561.93,282.23L562.7,279.02L558.8,277.14L550.64,283.97L545.13,284.07L543.68,273.93L544.45,269.99L539.2,267.48L536.23,263.05L528.5,263.54L525.02,259.92L519.35,259.81L514.24,255.45L516.98,248.09L521.03,244.25L521.63,239.68L519.61,233.47L515.36,227.43L515.18,224.53L521.63,223.17L516.98,216.54L516.3,208.85L514.41,205.25L514.7,201.76L521.94,199.94L525.08,196.51L536.81,190.78L541.37,190.36L547.93,184.45L544.54,182.88L545.68,178.75L556.66,173.96L560.82,170.22L571.43,164.17L579.51,161.16L593.08,161.61L601.67,161.02L607.52,158.53L622.09,154.19L629.74,151.08L634.01,150.62L644.94,145.93L653.13,140.89L664.48,135.07L668.73,131.36L679.62,126.84L694.8,107.56L700.3,109.95L710,109.63L714.14,105.04L719.3,104.83L729.11,101.74L734.39,97.95L736.59,94.45L739.7,94.23L745.43,85.74L749.68,85.57L752.87,82.9L761.23,81.43L767.85,75.46L773.75,76.69L785.22,73.32L789.01,67.53L792.12,68.37L798.74,63.17L810.04,59.84L807.33,67.98L806.56,76.2L804.22,78.55L799.77,78.55L795.8,81.88L791.61,81.95L765.71,96.83L762.37,101.71L759.95,109.07L753.76,114.4L741.64,120.11L728.6,133.99L722.21,136.79L707.98,144.7L701.3,147.12L691.4,153.56L676.6,165.92L666.62,177.74L662.94,189.45L654.24,193.05L643.71,191.59L635.67,192.67L628.85,198.33L625.17,205.5L619.41,213.95L616.96,223.17L616.02,234.31L618.21,244.36L621.09,250.71L632.53,264.07L634.67,270.06L642.29,279.37L654.64,290.14L658.12,296.23L666.16,307.62L664.34,311.03L665.9,314.69L662.82,317.26L650.47,310.54L644.37,310.86L632.59,309.57L628.79,311.97L621.72,312.91Z" class="land" id="CY-04" title="Famagusta"/>
    <path d="M545.68,178.75L544.54,182.88L547.93,184.45L541.37,190.36L536.81,190.78L525.08,196.51L521.94,199.94L514.7,201.76L514.41,205.25L505.8,207.49L493.85,205.25L488.89,206.82L477.02,219.71L455.94,220.13L440.94,219.89L436.32,216.22L431.64,216.99L424.93,221.81L416.43,216.81L412.33,216.47L408.39,212.83L406.37,215.73L396.87,217.65L383.63,215.56L378.87,217.9L374.05,214.47L372.08,210.98L367.2,212.97L362.67,211.57L355.34,213.57L350.37,211.16L340.85,210.88L341.67,198.26L340.85,184.45L337.25,180.19L337,169.27L335.91,163.96L344.73,167.03L361.41,177.53L370.4,178.19L374.25,180.19L383,181.1L390.39,178.02L395.7,178.19L407.16,181.62L414.61,180.19L421.11,180.29L429.47,184.1L433.89,183.19L439.31,184.77L444.19,184.35L461.22,188.09L490.97,188.19L503.2,187.46L509.56,184.98L521.15,184L532.58,179.7L533.67,180.54Z" class="land" id="CY-06" title="Kyrenia"/>
    <path d="M237.79,243.7L249.37,255.24L250.05,260.37L256.67,265.11L256.76,273.72L250.54,277.77L250.8,282.47L256.39,290.17L261.81,291.91L262.69,297.17L266.94,299.99L266.74,306.78L268.28,310.54L267.6,321.61L264.97,323.35L264.46,332.15L272.16,338.45L274.53,334.17L279.72,339.35L284.8,331.6L289.53,332.05L294.98,334.83L295.52,340.19L298.77,341.86L299.91,346.38L288.36,357.95L274.44,374.7L275.64,378.66L280.86,379.53L281.4,383.03L277.18,390.22L269.85,393.07L266.51,398.69L261.52,399.11L257.73,405.84L257.73,420.68L251.37,418.81L245.61,415.76L236.02,408.75L222.76,405.63L218.48,403.34L214.69,405.87L201.25,394L197.37,393.59L193.78,388.21L187.73,385.64L188.41,378.87L186.25,369.7L184.14,365.11L183.34,358.4L179.12,353.78L171.87,351.87L169.02,344.78L162.97,339.56L166.62,330.62L160.18,319.94L161.8,317.19L162.69,308.66L155.27,293.45L150.59,286.3L149.96,281.56L151.88,269.05L155.33,269.23L159.43,272.12L164.88,279.09L167.45,279.93L176.06,287.21L189.3,288.88L194.86,287.8L203.56,282.75L211.89,275.12L215.17,270.38L224.01,252.45L228.58,248.41L229.86,243Z" class="land" id="CY-05" title="Paphos"/>
    <path d="M437.14,400.81L434.95,406.32L413.98,404.87L398.81,403.41L381.09,409.72L374.48,413.96L369.88,419.26L367.63,419.85L362.5,425.3L355.02,425.37L345.18,428.24L345.18,423.08L348.92,420.3L355.02,421.13L353.94,414.03L346.47,412.36L339.85,417.22L333.92,415.45L330.95,417.53L326.87,416.8L319.65,410.21L318.4,405.66L313.72,402.96L308.79,403.17L305.65,406.91L302.51,407.61L297.35,411.74L290.05,410.94L289.56,422.63L283.86,425.64L279.66,424.98L273.7,427.13L257.73,420.68L257.73,405.84L261.52,399.11L266.51,398.69L269.85,393.07L277.18,390.22L281.4,383.03L280.86,379.53L275.64,378.66L274.44,374.7L288.36,357.95L299.91,346.38L298.77,341.86L295.52,340.19L294.98,334.83L294.98,328.6L297.15,319.87L300.8,319.31L306.1,315.56L324.1,325.23L337.25,324.5L345.55,318.62L357.68,318.34L360.1,323.98L370.65,332.12L378.01,340.92L386.88,337.86L396.98,343.21L397.01,351.52L402.17,353.64L417.46,356.81L421.65,359.83L428.76,368.97L433.26,371.95L437.11,376.71L437.66,388.94L436.49,393.76Z" class="land" id="CY-02" title="Limassol"/>
    <path d="M362.5,425.3L360.41,429.84L360.13,439.65L365.95,449.07L365.03,454.16L359.96,451.43L351.09,450.18L349.37,452.54L341.93,452.54L340.79,444.26L336.62,434.55L332.8,428.03L324.79,419.3L317.23,417.74L314.26,419.05L309.36,417.98L302.31,419.64L292.33,420.2L289.56,422.63L290.05,410.94L297.35,411.74L302.51,407.61L305.65,406.91L308.79,403.17L313.72,402.96L318.4,405.66L319.65,410.21L326.87,416.8L330.95,417.53L333.92,415.45L339.85,417.22L346.47,412.36L353.94,414.03L355.02,421.13L348.92,420.3L345.18,423.08L345.18,428.24L355.02,425.37Z" class="land" id="GB-AX" title="Akrotiri"/>
    <path d="M528.5,263.54L522.66,271.98L510.05,266.99L503.83,270.24L503.52,279.44L496.81,279.44L496.3,286.02L501.49,291.74L501.69,294.98L507.08,299.33L505.86,307.76L500.87,314.48L491.11,312.49L489.48,316.11L485.6,317.23L482.67,313.99L478.07,313.12L474.31,325.16L469.12,326.66L463.93,325.3L457.91,327.91L452.89,323.04L447.9,324.92L444.42,328.64L444.93,333.13L442.19,335.74L436.69,336.85L431.69,341.3L430.18,337.09L426.3,334.34L419.89,336.71L409.5,333.47L405.03,337.96L401.57,338.59L396.98,343.21L386.88,337.86L378.01,340.92L370.65,332.12L360.1,323.98L357.68,318.34L345.55,318.62L337.25,324.5L324.1,325.23L306.1,315.56L300.8,319.31L297.15,319.87L294.98,328.6L294.98,334.83L289.53,332.05L284.8,331.6L279.72,339.35L274.53,334.17L272.16,338.45L264.46,332.15L264.97,323.35L267.6,321.61L268.28,310.54L266.74,306.78L266.94,299.99L262.69,297.17L261.81,291.91L256.39,290.17L250.8,282.47L250.54,277.77L256.76,273.72L256.67,265.11L250.05,260.37L249.37,255.24L237.79,243.7L246.49,241.67L250.08,237.03L254.82,237.76L258.16,235.67L265.83,236.37L269.82,238.67L275.13,239.02L284.68,241.85L291.21,245.89L296.98,248.06L307.13,253.71L314.06,253.12L323.48,248.06L331.83,242.33L333.66,238.91L337.68,226.38L340.85,210.88L350.37,211.16L355.34,213.57L362.67,211.57L367.2,212.97L372.08,210.98L374.05,214.47L378.87,217.9L383.63,215.56L396.87,217.65L406.37,215.73L408.39,212.83L412.33,216.47L416.43,216.81L424.93,221.81L431.64,216.99L436.32,216.22L440.94,219.89L455.94,220.13L477.02,219.71L488.89,206.82L493.85,205.25L505.8,207.49L514.41,205.25L516.3,208.85L516.98,216.54L521.63,223.17L515.18,224.53L515.36,227.43L519.61,233.47L521.63,239.68L521.03,244.25L516.98,248.09L514.24,255.45L519.35,259.81L525.02,259.92Z" class="land" id="CY-01" title="Nicosia"/>
  </g>
</svg>