<?xml version="1.0" encoding="UTF-8"?>
<svg xmlns="http://www.w3.org/2000/svg" width="663.54" height="517.93" viewBox="148.23 376.04 663.54 517.93" style="background-color:#2d2d2d">
  <!-- Created using SVG Map Generator: dojo.amcharts.com/svg-map-generator -->
  <style>
    .land { fill: #000000; stroke: #cccccc; stroke-width: 0.55; }
  </style>
  <g id="polygons">
    <path d="M500.68,617.47L480.96,616.84L476.27,616.46L478.47,611.91L482.54,611.19L485.02,608.33L485.47,608.4L483.13,611.31L487.73,611.78L487.61,608.55L494.3,610.52L498.09,610.56L500.44,612.73ZM653.24,475.7L663.33,478.55L660.11,481.43L653.98,482.55L649.76,477.81ZM729.85,744.4L728.87,746.92L725.31,750.95L720.14,749.89L714.9,744.74L712.11,743.93L704.96,740.67L705.14,737.87L701.87,737.3L697.53,734.96L694.56,735.04L690.42,736.93L688.62,735.06L676.52,730.13L669.67,730.18L661.44,726.93L657.3,726.56L656.18,728.11L644.27,719.15L639.67,717.8L636.47,714.93L632.82,714.55L628,708.86L633.55,707.96L632.91,706.03L634.68,701.55L636.52,700.6L633.76,695.25L643.44,690.27L636.82,689.55L634.82,690.41L634.47,685.65L638.77,682.63L645.46,682.74L646.44,678.74L642.62,670.93L645.25,668.99L642.15,665.23L636.75,662.36L634.79,662.68L629.11,660.38L627.71,661.72L621.77,656.77L613.24,658.09L605.68,655.48L603.89,650.41L595.27,647.73L593.29,644.05L595.25,643.04L588.96,637.41L579.49,637.77L578.11,639.71L574.09,639.84L572.24,637.73L569.32,628.95L575.13,629.98L578.99,627.55L570.54,620.44L567.28,619.06L564.23,614.6L561.5,613.27L562.35,610.65L560.78,605.56L555.12,602.87L549.72,604.44L548.42,601.95L544.01,601.92L538.73,599.96L537.65,596.04L534.8,592.92L533.9,588.56L530.16,586.52L532.59,583.5L529.8,579.36L528.47,574.92L531.38,567.74L530.93,565.45L537.61,564.46L537.78,561.01L533.86,557.04L527.75,557.75L539.55,548.22L548.92,538.66L550.01,535.7L546.75,532.7L537.62,528.25L540.1,525.19L536.52,522.01L535.39,518.34L531.63,516.48L530.98,510.49L533.53,509.97L531.27,506.25L523.62,498.3L528.28,493.12L522.99,488.52L518.17,487.38L516.04,484.73L518.25,480L529.48,473.29L533.67,474.11L536.64,471.8L543.63,473.57L540.47,475.96L549.8,477.45L564.94,478.5L579.11,482.92L599.79,490.58L604.19,491.64L608.33,499.6L604.77,503.03L597.02,505.88L590.95,506.49L569.86,503.49L564.49,501.54L547.27,498.79L556.42,504.17L562.73,505.91L566.11,508.31L564.6,512.57L568.42,516.32L569.95,520.22L575.93,521.89L582,525.35L590.19,527.1L594.12,525.14L592.51,522.43L586.79,521.62L581,517.59L582.66,514.61L587.4,515.2L591.42,517.3L604.65,520.07L607.19,516.21L602.79,512.99L602.23,510.73L607.35,507.41L612.39,505.96L616.37,502.37L630.44,504.95L631.82,501L629.12,497.14L625.1,495.75L625.85,489.12L622.89,484.19L635.78,484.8L643.35,490.42L635.61,491.24L632.43,493.75L641.7,499.36L646.7,499.61L653.08,497.63L652.42,492.79L658.87,491.48L670.24,485.96L681.12,483.8L688.2,480.23L692.23,487.05L696.14,486.64L704.88,483.3L712.69,484.14L718.52,481.17L723.17,480.16L732.27,485.32L737.02,480.31L729.27,474.98L733.91,472.69L750.61,474.24L774.7,480.65L779.05,481.31L786.88,484.88L795.07,495.47L792.59,500.54L785.66,505.52L777.8,509.65L769.08,517.05L758.38,522.77L766.36,553.28L768.76,568.16L767.45,576.98L765.11,583.39L761.16,588.44L761.3,592.99L768.18,596.34L770.49,600.5L767.83,605.75L761.3,607.01L753.16,607.74L762.84,616.37L769.4,621.15L777.82,615.75L783.75,617.94L786.95,621.56L784.28,624.47L782.72,629.11L784.84,634.8L790.52,636.24L795.2,641.94L799.08,644.33L806.78,646.42L809.22,648.55L808.89,652.25L803.63,654.23L797.84,652.87L797.4,655.05L789.75,653.92L784.48,650.21L780.32,649.93L777.83,651.97L773.92,650.2L769.98,650.66L765.79,654.85L763.78,654.85L756.21,650.87L754.45,653.06L750.49,649.7L743.92,646.02L737.92,646.03L735.47,644.03L730.39,646.01L723.34,643.55L720.28,647.95L714.98,650.02L714.23,652.34L710.86,654.86L710.66,657.35L712.67,660.78L709.93,662.64L702.77,657.1L700.05,658.16L698.47,662.4L698.19,667.3L700.54,670.02L698.78,672.98L699.41,676.97L702.45,678.27L703.98,681.69L707.43,683.15L712.59,683.75L717.17,688.07L721.76,693.65L719.46,695.78L724.6,698L718.49,703.85L712.97,705.66L711.84,711.58L708.88,715.36L709.38,717.79L713.77,720.14L717.54,727.18L718.19,732.08ZM725.1,473.84L719.74,472.33L714.95,469.06L717.72,467.32L729.21,471.72ZM661.63,453.44L667.65,451.47L671.23,443.04L678.66,442.28L689.18,443.82L688.61,447.31L685.12,450.07L686.86,454.6L694.21,459.68L701.61,463.31L704.67,466.24L687.16,465.45L680.73,464.28L675.52,457.99L665.35,458.42L661.78,455.96ZM753.29,415.29L750.67,418.31L740.22,420.74L711.91,426.2L706.98,430.47L697.38,432.94L698.4,436.02L692,442.42L688.79,443L678.8,441.68L674.59,442.55L669.4,439.06L674.36,437.44L677.69,431.87L682.22,429.14L684.16,425.63L693.55,421.79L706.19,419.64L706.37,418.33L717.85,418.7L734.34,415.67L742.86,412.52L749.26,413.1ZM672.79,385.09L673.43,383.67L685.08,383.12L689.52,385.09L684.42,386.52ZM611.54,385.82L611.09,383.63L620.02,382.97L626.54,384.59L611.05,386.88L604.51,388.75L597.7,387.38ZM642.16,383.88L642.55,381.55L662.13,383.84L650.99,384.95ZM648.16,381.04L654.48,378.59L662.97,379.65L658.83,381.41Z" class="land" id="RU" title="Russia"/>
    <path d="M286.21,803.59L286.19,804.12L286.03,803.97L286.04,803.77Z" class="land" id="GI" title="Gibraltar"/>
    <path d="M360.03,646.98L357.59,648.77L353.18,647.07ZM360.03,646.98L355,646.3L361.53,637.76L363.39,631.48L365.37,631.39L366.44,636.98L369.74,634.92L367.99,629.94L373.1,626.85L378.9,626.51L381.96,628.09L381.33,637.05L379.36,641.73L373.27,643.22L375.35,645.96L373.33,651.01L374.25,653.36L372.7,653.32L371.88,653.11L372.71,649.59L370.13,648.1L362.15,646.1Z" class="land" id="NL" title="Netherlands"/>
    <path d="M432.23,743.85L432.17,743.86L432.16,743.77L432.22,743.76Z" class="land" id="VA" title="Vatican City"/>
    <path d="M634.82,690.41L629.47,690.59L628.14,692.2L620.11,694.83L616.54,695.18L609.46,699.63L611.74,704.63L616.76,708.64L621.46,707.18L624.84,707.79L623.97,711.16L619.83,711.77L616.44,710.82L613.84,713.86L610.82,713.81L604.98,718.13L600.97,716.42L600.9,710.83L595.33,708.25L591.91,707.69L600.34,702.11L596.21,699.77L590.52,700.71L586.67,698.9L585.42,694.32L576.21,695.92L574.64,700.49L572.66,702.94L567.96,704.83L569.46,709.16L565.33,707.7L561.84,709.43L557.08,707.21L562.11,701.06L561.38,697.23L562.98,696.18L568.82,697.98L568.38,693.09L565.71,691.72L565.07,688.83L561.62,686.7L561.22,682.36L557.48,679.95L553.85,679.52L547.16,676.31L540.08,678.52L536.84,681.24L531.39,682.07L527.1,684.03L524.29,681.86L521.12,682.12L513.1,680.3L510.68,681.7L504.14,677.04L506.48,670.28L506.72,665.56L513.93,657.11L515.93,656.78L516.34,652.41L511.42,645.66L516.8,642.17L528.92,641.71L538.68,643.32L539.91,644.71L550.41,645.42L554.48,644.67L556.53,647.02L565.43,644.88L568.09,640.39L574.09,639.84L578.11,639.71L579.49,637.77L588.96,637.41L595.25,643.04L593.29,644.05L595.27,647.73L603.89,650.41L605.68,655.48L613.24,658.09L621.77,656.77L627.71,661.72L629.11,660.38L634.79,662.68L636.75,662.36L642.15,665.23L645.25,668.99L642.62,670.93L646.44,678.74L645.46,682.74L638.77,682.63L634.47,685.65Z" class="land" id="UA" title="Ukraine"/>
    <path d="M672.3,747.79L680.32,748.6L682.74,747.31L688.98,752.05L692.06,756.08L691.23,758.54L693.85,762.82L698.03,763.13L702.64,766.64L703.15,767.2L700.01,769.57L697.04,770.04L702.28,780.67L701.24,785.35L704.46,787.06L705.1,790.29L707.21,791.8L703.44,795.07L702.44,792.72L696.55,792.28L690.11,790.96L687.84,793.49L686.01,791.95L680,793.91L673.17,793.82L667.81,796.66L662.48,798.16L657.49,798.04L652.34,795.87L646.36,798.56L639.58,796.91L639.06,800.51L636.48,807.06L633.14,802.05L635.83,798.4L634.3,795.77L630.44,799.05L622.29,797.09L618.03,801.73L615.47,803.39L608.06,804.92L604.35,803.37L600.91,799.7L594.93,796.92L588.89,796.24L588.22,802.05L581.71,803.65L576.82,801.14L575.58,798.04L570.78,796.89L567.58,794.53L560.99,794.64L562.16,792.24L559.47,790.77L557.94,787.66L558.9,784.62L554.04,782.33L555.33,780.51L554.12,776.99L556,775.15L552.74,770.92L553.62,768.11L547.8,769.1L547.74,763.66L551.86,759.4L556.32,758.82L558.07,760.23L564.72,759.36L568.67,758L573.08,755.14L570.18,753.09L572.16,750.8L577.2,751.6L580.66,751.12L584.66,752.28L588.3,752.05L589.67,749.84L596.06,745.59L604.48,742.61L615.84,743.24L617.78,742.14L620.71,745.6L627,746.08L628.47,748.74L631.47,750.44L633.52,749.39L636.19,751.25L647.5,753.95L655.83,752.06L663.02,753.57L668.31,750.97ZM560.38,743.11L563.79,748.32L569.97,750.78L568.03,753.43L562.86,752.32L557.44,753.44L555.81,756.41L546.36,757.2L545.67,756L547.8,753.63L547.44,750.69L549.67,749L546.76,745.73L548.87,743.15L554.31,741.97L556.49,743.61Z" class="land" id="TR" title="Türkiye"/>
    <path d="M491.47,508.85L484.18,509.48L473.92,512.46L474.46,515.04L471.91,517.94L474.95,521.88L470.78,526.6L459.38,532.43L455.78,535.6L451.79,536.21L449.87,546.39L448.01,547.94L450.09,556.19L455.41,557.24L460.31,560.42L464.07,565.14L456.65,569.78L459.91,571.32L454.1,573.72L448.67,577.79L449.83,579.9L448.74,583.77L449.47,590.97L446.5,599.18L437.37,599.78L433.44,602.99L434.73,605.97L427.16,607.74L423.77,607.11L424.18,604.35L420.79,600.01L422.5,595.34L418.71,592.54L410.18,580.82L407.06,572.47L408.8,572.01L411.58,569.59L410.4,566.71L415.8,561.82L416.17,558.55L413.41,553.34L417.31,550.04L411.62,546.58L412.07,541.29L410.37,538.43L410.66,534.63L408.76,531.93L412.78,525.93L417.18,524.69L421.97,525.25L422.24,521.1L419.06,520.02L424.04,513.44L423.42,505.9L429.78,504.3L429.11,502.64L435.17,497.54L432.73,494.21L440.02,488.15L444.32,489.39L446.57,484.07L457.84,485.9L461.17,479.86L471.5,484.44L477.13,485.59L483.84,489.48L483.6,493.99L488.41,499.74L487.02,502.72ZM467.6,583.54L465.81,584.8L465.6,589.28L462.69,590.82L460.93,586.24L463.57,583.6Z" class="land" id="SE" title="Sweden"/>
    <path d="M461.4,696.46L454.61,699.52L454.87,703.27L452.16,704.31L452.92,707.03L447.97,706.61L441.13,707.43L438.62,706.52L439.71,705.8L436.48,698.32L438.72,696.25L445.29,697.3L449.09,695.16L456.73,694.64L457.63,692.74Z" class="land" id="SI" title="Slovenia"/>
    <path d="M506.48,670.28L504.14,677.04L501.32,677.72L498.53,675.55L490.91,675.81L489.96,678.16L486.69,679.83L478.01,681.16L477.72,683.33L470.05,683.5L464.89,681.1L462.15,676.68L462.7,675.08L464.28,672.42L468.78,672.15L471.55,668.41L476.57,665.85L481.28,664.97L484.63,669.07L490.83,667.05L498.9,666.84Z" class="land" id="SK" title="Slovakia"/>
    <path d="M491.84,700.46L496.56,704.13L496.86,706.86L503.1,710.57L502.53,713.17L508.67,716.54L512.06,717.08L514.01,719.67L511.97,722.05L513.72,727.75L517.49,730.5L513.72,734.07L514.65,738.22L513.32,739.54L506.97,740.23L508.06,735.86L505,735.01L501.88,731.5L498.4,732.09L496.34,734.22L489.44,730.25L486.18,726.94L488.39,725.18L485.02,719.01L486.08,713.28L483.23,713.17L482.91,706.42L481.25,702.27L486.05,699.98Z" class="land" id="RS" title="Serbia"/>
    <path d="M431.08,723.14L430.33,722.8L430.65,722.3L431.28,722.61Z" class="land" id="SM" title="San Marino"/>
    <path d="M557.08,707.21L561.84,709.43L565.33,707.7L569.46,709.16L568.89,713.44L564.88,714.33L562.29,719.08L562.6,724.78L558.11,723.95L556.53,722.25L549.78,720.4L542.91,722.05L537.49,725.52L518.68,723.42L514.01,719.67L512.06,717.08L508.67,716.54L502.53,713.17L503.1,710.57L496.86,706.86L496.56,704.13L491.84,700.46L498.93,698.46L506.29,683.93L510.68,681.7L513.1,680.3L521.12,682.12L524.29,681.86L527.1,684.03L531.39,682.07L536.84,681.24L540.08,678.52L543.12,679.58L546.75,684.83L553.65,691.56L555.84,696.95L555.39,701.85Z" class="land" id="RO" title="Romania"/>
    <path d="M268.75,792.96L265.15,794.78L258.74,793.57L256.94,790.33L256.17,779.05L251.51,776.78L252.57,771.38L256.92,762.35L258.49,752.85L257.25,746.4L257.55,743.41L262.2,741.41L264.6,744L268.86,744.52L275.32,743.39L275.95,746.19L278.67,747.64L272.77,753.07L273.75,759.99L272.05,761.39L271.87,766.53L268.47,768.38L271.79,774.94L269.3,779.63L270.62,784.33L267.94,788.72Z" class="land" id="PT" title="Portugal"/>
    <path d="M476.27,616.46L480.96,616.84L500.68,617.47L506.28,619.57L506.83,621.58L511.35,630.62L511.57,634.23L507.15,638.28L510.5,639.82L511.42,645.66L516.34,652.41L515.93,656.78L513.93,657.11L506.72,665.56L506.48,670.28L498.9,666.84L490.83,667.05L484.63,669.07L481.28,664.97L476.57,665.85L473.99,662.13L468.46,661.19L462.3,657.1L458.89,659.93L453.03,654.75L447.69,652.74L443.37,652.27L444.58,648.32L440.72,642.52L441.64,640.03L440.13,635.58L435.95,632.1L437.74,628.08L436.06,623.66L435.56,622.26L435.45,621.48L450.26,618.12L452.81,615.53L457.97,613.8L465.96,612.73L469.14,616.74L471.6,617.55Z" class="land" id="PL" title="Poland"/>
    <path d="M441.67,387.75L450.73,386.64L478.1,388.4L480.84,390.26L472.62,394L462.73,395.56L443.31,394.04L429.48,391.33L426.55,389.13ZM417.37,390.26L428.98,392.74L432.92,395.84L441.4,396.05L447.97,399L438.18,399.9L431.07,404.51L430.67,408.44L427.1,409.42L422.68,415.94L406.88,410.72L404.28,409.05L409.66,407.14L401.38,404.49L409.37,403.54L406.73,401.5L397.76,402.87L388.52,399.19L384.45,396.05L381.43,391.07L392.98,391.22L397.3,393.42L411.85,391.92ZM449.63,400.11L460.33,404.78L467.54,405.5L465.96,408.64L459.91,410.39L454.75,408.61L451.07,405.36L441.32,401.01Z" class="land" id="SJ" title="Svalbard and Jan Mayen"/>
    <path d="M450.14,470.81L452.59,471.65L447.74,475.09L444.48,473.43ZM438.99,474.93L442.66,478.44L436.06,478.97ZM529.48,473.29L518.25,480L519.75,476.02L517.99,474.27L508.63,470.85L499.7,472.13L496.76,474.44L496.32,480.28L491.58,483.8L483.71,481.91L480.37,483.3L473.98,482.67L467.59,477.8L461.17,479.86L457.84,485.9L446.57,484.07L444.32,489.39L440.02,488.15L432.73,494.21L435.17,497.54L429.11,502.64L429.78,504.3L423.42,505.9L424.04,513.44L419.06,520.02L422.24,521.1L421.97,525.25L417.18,524.69L412.78,525.93L408.76,531.93L410.66,534.63L410.37,538.43L412.07,541.29L411.62,546.58L417.31,550.04L413.41,553.34L416.17,558.55L415.8,561.82L410.4,566.71L411.58,569.59L408.8,572.01L404.54,570.6L395.74,572.88L385.61,580.57L377.02,581.73L366.96,576.93L365.41,574.98L367.76,572.75L367.41,568.99L362.21,570.2L363.22,566.23L361.72,564.41L362.13,557.43L360.61,556.12L359.04,546.67L363.02,541.06L368.72,538.25L375.46,538.34L373.18,535.03L380.93,533.79L382.67,529.67L391.9,528.84L391.74,526.62L397.3,521.52L401.72,519.13L402.36,517.05L407.79,514.56L408.14,511L412.56,506.9L412.84,502.19L423.11,493.55L423,490.78L426.22,488.46L431.2,487.29L434.62,483.51L439.44,481.97L443.75,478.81L444.56,476L449.17,475.24L450.27,473.6L455.96,472.41L463.37,472.36L464.48,469.86L472.79,468.11L475.75,470.5L483.86,465.26L484.87,462.67L492.63,463.95L504.4,461.88L515.03,463.88L528.81,468.99L520.42,471.59L522.29,473.78Z" class="land" id="NO" title="Norway"/>
    <path d="M486.18,726.94L489.44,730.25L496.34,734.22L494.34,737.13L490.89,736.29L488.29,741L489.1,744.15L485.03,740.21L481.75,738.31L480.96,737L480.62,732.77L484.14,727.31Z" class="land" id="ME" title="Montenegro"/>
    <path d="M454.32,806.83L453.25,807.16L452.51,806.63L453.26,805.74Z" class="land" id="MT" title="Malta"/>
    <path d="M513.32,739.54L517.73,742.85L519.44,745.72L519.13,749.67L515.89,751.93L511.24,752.05L508.57,754.52L503.53,754.72L501.34,753.91L498.57,747.75L499.17,744.1L502.91,741.02L506.97,740.23Z" class="land" id="MK" title="North Macedonia"/>
    <path d="M557.08,707.21L555.39,701.85L555.84,696.95L553.65,691.56L546.75,684.83L543.12,679.58L540.08,678.52L547.16,676.31L553.85,679.52L557.48,679.95L561.22,682.36L561.62,686.7L565.07,688.83L565.71,691.72L568.38,693.09L568.82,697.98L562.98,696.18L561.38,697.23L562.11,701.06Z" class="land" id="MD" title="Moldova"/>
    <path d="M390.01,724.69L389.53,724.89L389.81,724.48Z" class="land" id="MC" title="Monaco"/>
    <path d="M530.16,586.52L533.9,588.56L534.8,592.92L537.65,596.04L538.73,599.96L535.02,603.32L530.98,603.01L527.78,604.6L513.7,597.47L508,598.78L505.56,598.15L492.35,597.39L484.99,600.67L484.06,593.34L485.88,591.46L487.87,586.1L493.83,584.62L503.27,591.91L508.36,588.48L506.84,583.21L512.41,581.35L519.39,583.52L524.01,586.49Z" class="land" id="LV" title="Latvia"/>
    <path d="M375.6,659.69L378.73,662.94L377.81,666.43L373.37,665.57L372.79,661.72Z" class="land" id="LU" title="Luxembourg"/>
    <path d="M527.78,604.6L525.74,611.11L523.47,611.94L522.06,617.71L516.66,621.24L506.83,621.58L506.28,619.57L500.68,617.47L500.44,612.73L498.09,610.56L494.3,610.52L487.61,608.55L484.99,600.67L492.35,597.39L505.56,598.15L508,598.78L513.7,597.47Z" class="land" id="LT" title="Lithuania"/>
    <path d="M405.2,690.76L404.45,690.71L404.62,688.59Z" class="land" id="LI" title="Liechtenstein"/>
    <path d="M506.97,740.23L502.91,741.02L499.17,744.1L498.14,740.48L494.34,737.13L496.34,734.22L498.4,732.09L501.88,731.5L505,735.01L508.06,735.86Z" class="land" id="XK" title="Kosovo"/>
    <path d="M311.68,668.67L309.97,669.23L310.07,668.32Z" class="land" id="JE" title="Jersey"/>
    <path d="M461.08,782.1L457.67,790.05L459.63,794.7L458.34,798.1L453.12,796.94L449.89,793.75L447.89,793.79L435.07,786.27L442.5,782.51L445.38,784.38L452.25,783.92L455.01,782.6ZM409.76,754.39L411.43,758.36L410.21,772.24L405.95,771.47L404.68,774.88L400.65,771.83L400.49,760.51L397.96,756.78L406.68,751.07ZM438.72,696.25L436.48,698.32L439.71,705.8L435.4,703.92L434.09,705.28L428.14,707.25L427.91,709.35L430.54,712.16L428.5,714.69L430.1,719.82L432.69,722.18L440.15,726.55L444.53,735.65L452.08,742.25L454.68,743.48L461.22,743.42L462.06,748.64L471.4,752.52L478.82,756.74L483.73,762.46L480.49,764.21L478.41,760.64L470.49,758.79L467.7,765.02L468.45,767.31L472.97,770.01L473.8,773.99L468.9,776.94L469.04,780.13L465.32,785L462.54,785.03L464,776.96L465.84,776.48L463.91,770.29L460.64,763.66L454.27,761.07L452.4,756.61L449.89,756.98L446.78,754.96L443.41,750.72L438.08,750.63L434.13,748.29L425.36,739.81L421.32,737.25L417.27,733.1L411.12,721.91L404.74,718.84L400.42,717.77L395.16,722.96L390.45,724.52L391.77,721.27L385.87,719.23L386.14,714.75L382.64,710.62L386.73,707.71L383.67,703.47L385.35,702.33L393.14,701.41L396.74,699.05L401.01,703.31L403.1,698.64L408.58,697.87L412.34,692.72L416.99,693.42L418.61,691.6L425.95,692.01L428.02,694.38ZM431.08,723.14L431.28,722.61L430.65,722.3L430.33,722.8Z" class="land" id="IT" title="Italy"/>
    <path d="M212.4,505.01L218.23,506.89L217.68,509.3L225.61,511.74L223.68,517.45L215.12,522.65L207.62,524.35L203.34,526.62L194.84,528.03L188.63,530.86L177.66,529.48L170.47,525.97L160.65,526.88L166.51,523.48L165.95,520.64L161.21,515.95L166.44,511.68L160.19,510.89L152.99,512.47L150.78,511.74L154.8,506.44L164.34,503.18L171.72,508.2L170.46,511.86L173.5,512.13L178.25,509.63L178.5,506.78L189.69,505.55L203.9,505.88L205.54,503.03L209.46,502.42Z" class="land" id="IS" title="Iceland"/>
    <path d="M278.24,620.11L279.76,631.62L275.63,638.96L268.11,639.86L267.04,641.05L258.05,644.99L254.27,645.86L252.07,643.95L245.87,642.16L249.21,639.48L252.14,635.27L254.43,629.92L250.63,626.97L249.22,618.26L259.77,617.57L258.72,614.27L262.5,609.71L270.35,607.68L270.56,610.24L263.65,616.9L269.5,619.79L272.72,617.29L274.92,620.41Z" class="land" id="IE" title="Ireland"/>
    <path d="M292.11,619.16L289.56,619.81L291.35,617.27Z" class="land" id="IM" title="Isle of Man"/>
    <path d="M504.14,677.04L510.68,681.7L506.29,683.93L498.93,698.46L491.84,700.46L486.05,699.98L481.25,702.27L477.66,703.96L473.83,703.92L468.32,701.61L461.4,696.46L457.63,692.74L460.38,691.28L459.86,687.6L462.03,684.35L464.56,684.14L464.89,681.1L470.05,683.5L477.72,683.33L478.01,681.16L486.69,679.83L489.96,678.16L490.91,675.81L498.53,675.55L501.32,677.72Z" class="land" id="HU" title="Hungary"/>
    <path d="M474.33,733.51L480.96,737L481.75,738.31ZM481.25,702.27L482.91,706.42L483.23,713.17L480.22,711.03L473.33,711.03L462.8,709.6L461.08,711.74L456.82,709.99L456.79,714.24L460.26,717.24L461.19,719.91L473.83,732.01L473.61,733.08L467.59,728.39L459.49,725.67L452.27,719.48L453.35,718.17L450.01,714.85L449.35,711L445.31,708.32L442.35,713.52L439.39,710.72L438.62,706.52L441.13,707.43L447.97,706.61L452.92,707.03L452.16,704.31L454.87,703.27L454.61,699.52L461.4,696.46L468.32,701.61L473.83,703.92L477.66,703.96Z" class="land" id="HR" title="Croatia"/>
    <path d="M533.07,810.15L535.67,809.53L537.14,811.95L540.54,811.31L547.04,812.56L549.49,814.26L541.69,816.44L538.62,814.08L530.85,812.67ZM525.89,774.4L531.91,777.39L529.36,780.21L524.7,776.04ZM550.44,770.53L551.35,774.25L546.46,772.52ZM545.67,756L544.01,754.78L537.61,753.22L535.2,754.64L532.48,753.7L527.99,757.89L526.58,761.23L523.66,761.31L517.7,758.41L517.88,763.17L521.04,767.41L522.07,773.65L520.71,776.05L524.85,777.5L531.23,781.53L532.57,787.43L528.28,784.28L525.09,784.82L525.46,791.35L522.07,790.73L525.28,797.19L521.36,797.14L516.68,794.54L515.38,797.58L512.45,793.99L511.91,789.19L507.97,785.24L509.86,782.34L513.26,780.97L521.77,784.59L524.37,783.63L518.14,779.82L510.32,781.04L507.25,780.38L504.03,775.98L503.86,773.88L499.56,770.56L496.69,766.58L501.74,762.33L504.29,756.71L503.53,754.72L508.57,754.52L511.24,752.05L515.89,751.93L519.13,749.67L525.01,749.15L528.32,747.69L538.52,750.63L545.65,749.16L546.76,745.73L549.67,749L547.44,750.69L547.8,753.63Z" class="land" id="GR" title="Greece"/>
    <path d="M307.71,666.01L307.45,666.68L306.66,666.28Z" class="land" id="GG" title="Guernsey"/>
    <path d="M712.11,743.93L710.55,746.34L714.78,749.59L714,752.43L703.53,748.5L701.54,750.14L688.98,752.05L682.74,747.31L680.32,748.6L672.3,747.79L673.54,743.1L669.98,735.97L663.87,731.79L661.21,731.19L656.18,728.11L657.3,726.56L661.44,726.93L669.67,730.18L676.52,730.13L688.62,735.06L690.42,736.93L694.56,735.04L697.53,734.96L701.87,737.3L705.14,737.87L704.96,740.67Z" class="land" id="GE" title="Georgia"/>
    <path d="M407.29,734.45L408.3,741.45L405.77,749.17L402.52,747.06L401.16,737.1ZM373.37,665.57L377.81,666.43L381.09,669.39L386.77,669.47L392.31,671.28L390.18,674.7L388.54,680.51L389.09,685.31L384.34,688.05L377.31,697.19L382.94,697.32L385.35,702.33L383.67,703.47L386.73,707.71L382.64,710.62L386.14,714.75L385.87,719.23L391.77,721.27L390.45,724.52L390.01,724.69L389.81,724.48L389.53,724.89L382.62,730.7L379.57,731.7L373.69,730.08L370.75,727.85L367.94,728.59L362.45,726.32L356.13,730.45L354.55,733.32L356.05,738.33L346.39,739.13L343.66,737.58L341.35,736.62L335.27,734.05L334.78,735.65L329.27,735.66L327.11,734.25L318.98,731.83L314.74,728.23L317.23,726.62L318.96,716.36L320.11,703.56L319.34,698.38L314.14,696.3L311.88,693.28L312.16,690.96L302.91,684.27L296.95,682.81L293.67,682.96L291.11,680.29L292.96,677.43L290.34,675.68L302.13,672.63L306.47,675.71L308.41,674.58L316.43,674.65L315.14,668.97L312.86,664.1L317.58,664.14L318.61,667.09L326.36,668.01L329.8,666.33L329,663.91L337.25,660.93L339.55,657.95L339.59,653.47L342.1,650.95L346.85,649.88L349.5,653.75L360.23,658.43L360.39,661.31L364.15,660.88L365.94,663.05L371.15,665.85Z" class="land" id="FR" title="France"/>
    <path d="M274.94,541.83L272.17,543.08L271.02,541.29Z" class="land" id="FO" title="Faroe Islands"/>
    <path d="M518.25,480L516.04,484.73L518.17,487.38L522.99,488.52L528.28,493.12L523.62,498.3L531.27,506.25L533.53,509.97L530.98,510.49L531.63,516.48L535.39,518.34L536.52,522.01L540.1,525.19L537.62,528.25L546.75,532.7L550.01,535.7L548.92,538.66L539.55,548.22L527.75,557.75L523.66,557.72L512.4,559.67L508.97,560.98L498.8,563.16L491.77,562.1L489.7,559.42L480.94,557.18L479.79,553.67L480.58,547.79L477.39,544.06L477.72,541.87L475.26,538.14L482.11,530.57L488.51,526.33L494.73,520.63L496.19,518.01L501.57,516.1L500.49,511.81L491.47,508.85L487.02,502.72L488.41,499.74L483.6,493.99L483.84,489.48L477.13,485.59L471.5,484.44L461.17,479.86L467.59,477.8L473.98,482.67L480.37,483.3L483.71,481.91L491.58,483.8L496.32,480.28L496.76,474.44L499.7,472.13L508.63,470.85L517.99,474.27L519.75,476.02Z" class="land" id="FI" title="Finland"/>
    <path d="M531.38,567.74L528.47,574.92L529.8,579.36L532.59,583.5L530.16,586.52L524.01,586.49L519.39,583.52L512.41,581.35L506.84,583.21L507.56,578.56L501.87,578.49L499.44,575.63L498.43,570.49L504.52,567.85L512.3,567.39L512.58,566.27L523.76,568.06ZM492.86,575.99L498.12,577.31L490.2,580.85L489.09,577.37Z" class="land" id="EE" title="Estonia"/>
    <path d="M199.35,887.61L199.4,890.46L196.59,891.41L196.91,887.53ZM191.32,885.16L188.43,889.08L186.36,885.59ZM209.79,887.38L211.56,881.74L213.06,883.01L212.13,886.49ZM356.51,765.74L359.17,766.7L356.07,770.83L350.13,767.58L353.48,765.07ZM314.74,728.23L318.98,731.83L327.11,734.25L329.27,735.66L334.78,735.65L335.27,734.05L341.35,736.62L341.88,738.29L343.66,737.58L346.39,739.13L356.05,738.33L356.54,743.37L347.17,750.18L338.57,752.52L336.01,755L333.24,760.24L327.71,768.55L328.83,773.31L332.3,776.48L327.5,779.85L325.35,782.81L324,788.77L319.76,788.98L315.87,792.41L313.31,797.17L307.63,797.82L303.65,797.39L294.33,797.78L291.76,800L287.58,800.86L283.77,805.02L280.26,803.32L276.44,795.31L273.14,792.81L268.75,792.96L267.94,788.72L270.62,784.33L269.3,779.63L271.79,774.94L268.47,768.38L271.87,766.53L272.05,761.39L273.75,759.99L272.77,753.07L278.67,747.64L275.95,746.19L275.32,743.39L268.86,744.52L264.6,744L262.2,741.41L257.55,743.41L258.28,739.95L253.88,732.68L256.86,728.99L259.62,728.96L261.92,726.46L266.49,724.55L270.05,726.3L283.08,726.43L292.43,728.15L299.93,727.08L304.52,728.61L310.32,729.05Z" class="land" id="ES" title="Spain"/>
    <path d="M278.24,620.11L274.92,620.41L272.72,617.29L269.5,619.79L263.65,616.9L270.56,610.24L278.88,609.01L283.96,616.06L282.93,618.3ZM301.25,577.01L300.52,578.87L294.77,582.36L295.75,585.82L299.22,584.78L309.18,584.83L311.46,586.85L305.16,598.25L301.23,600.57L309.09,602.3L312.92,605.55L315.92,613.36L320.75,616.02L324.49,620.77L330.77,631.22L334.62,631.3L339.36,633.34L340.18,636.17L338.88,639.98L334.28,642.77L332.34,646.98L338.05,647.21L334.66,651.6L328.79,653.23L315.27,653.39L307.2,654.71L303.64,653.7L300.47,654.55L297.47,658.6L294.46,656.98L285.27,658.43L291.19,653.1L294.24,648.96L302.47,648.8L292.62,643.43L288.6,644.58L287.12,640.89L292.59,638.88L295.67,635.45L294.56,628.72L302.61,626.66L303.63,623.63L301.7,619.73L298.54,616.38L299.49,611.5L295.51,613.29L286.49,612.54L289.6,607.01L285.56,602.05L282.78,600.81L284.4,596.34L280.27,595.46L283.06,589.37L281.12,587.41L284.66,579.67L289.28,577.06L301.64,575.86Z" class="land" id="GB" title="United Kingdom"/>
    <path d="M406.51,605.16L408.02,609.83L401.91,609.54L400.62,606.09ZM420.97,603.45L418.6,606.57L417.99,612.96L414.6,609.31L411.78,609.14L408.95,604.07L417.98,600.2ZM400.3,612.86L392.05,612.09L391.23,607.04L387.4,605.26L386.84,595.44L389.86,590.55L396.8,589.37L399.55,586L403.99,587.28L402.59,591.64L402.84,595.31L407.19,596.27L407.48,598.48L403.48,599.28L402.77,602.67L398.59,606.31Z" class="land" id="DK" title="Denmark"/>
    <path d="M400.3,612.86L405.39,616.66L413.82,621.54L419.09,619.33L422.35,616.38L425.89,616.94L432.9,622.44L436.06,623.66L437.74,628.08L435.95,632.1L440.13,635.58L441.64,640.03L440.72,642.52L444.58,648.32L443.37,652.27L439.87,651.87L425.33,657.39L424.11,659.08L425.4,663.54L427.56,666.35L437.58,673.38L434.7,677.16L430.17,679.53L431.52,682.27L429.58,684.53L421.91,685.39L418.68,687.02L411.65,685.83L410.88,688.15L406.17,685.48L404.41,686L396.99,683.54L393.75,685.16L389.09,685.31L388.54,680.51L390.18,674.7L392.31,671.28L386.77,669.47L381.09,669.39L377.81,666.43L378.73,662.94L375.6,659.69L377.43,657.73L374.25,653.36L373.33,651.01L375.35,645.96L373.27,643.22L379.36,641.73L381.33,637.05L381.96,628.09L382.35,624.14L387.92,624.04L392.11,625.37L394.66,622.61L394.55,615.68L392.05,612.09Z" class="land" id="DE" title="Germany"/>
    <path d="M443.37,652.27L447.69,652.74L453.03,654.75L458.89,659.93L462.3,657.1L468.46,661.19L473.99,662.13L476.57,665.85L471.55,668.41L468.78,672.15L464.28,672.42L462.7,675.08L458.7,673.04L455.41,673.5L450.01,671.45L446.56,671.18L444.71,675.07L439.6,675.04L437.58,673.38L427.56,666.35L425.4,663.54L424.11,659.08L425.33,657.39L439.87,651.87Z" class="land" id="CZ" title="Czechia"/>
    <path d="M622.73,809.54L618.71,812.7L620.02,815.88L611.14,820.2L606.77,818.59L605.38,816.25L610.13,811.67L614.57,812.24Z" class="land" id="CY" title="Cyprus"/>
    <path d="M404.41,686L404.62,688.59L404.45,690.71L405.2,690.76L408.66,692.52L412.34,692.72L408.58,697.87L403.1,698.64L401.01,703.31L396.74,699.05L393.14,701.41L385.35,702.33L382.94,697.32L377.31,697.19L384.34,688.05L389.09,685.31L393.75,685.16L396.99,683.54Z" class="land" id="CH" title="Switzerland"/>
    <path d="M371.88,653.11L372.7,653.32L374.25,653.36L377.43,657.73L375.6,659.69L372.79,661.72L373.37,665.57L371.15,665.85L365.94,663.05L364.15,660.88L360.39,661.31L360.23,658.43L349.5,653.75L346.85,649.88L353.18,647.07L357.59,648.77L360.03,646.98L362.15,646.1L370.13,648.1L372.71,649.59Z" class="land" id="BE" title="Belgium"/>
    <path d="M538.73,599.96L544.01,601.92L548.42,601.95L549.72,604.44L555.12,602.87L560.78,605.56L562.35,610.65L561.5,613.27L564.23,614.6L567.28,619.06L570.54,620.44L578.99,627.55L575.13,629.98L569.32,628.95L572.24,637.73L574.09,639.84L568.09,640.39L565.43,644.88L556.53,647.02L554.48,644.67L550.41,645.42L539.91,644.71L538.68,643.32L528.92,641.71L516.8,642.17L511.42,645.66L510.5,639.82L507.15,638.28L511.57,634.23L511.35,630.62L506.83,621.58L516.66,621.24L522.06,617.71L523.47,611.94L525.74,611.11L527.78,604.6L530.98,603.01L535.02,603.32Z" class="land" id="BY" title="Belarus"/>
    <path d="M483.23,713.17L486.08,713.28L485.02,719.01L488.39,725.18L486.18,726.94L484.14,727.31L480.62,732.77L480.96,737L474.33,733.51L473.61,733.08L473.83,732.01L461.19,719.91L460.26,717.24L456.79,714.24L456.82,709.99L461.08,711.74L462.8,709.6L473.33,711.03L480.22,711.03Z" class="land" id="BA" title="Bosnia and Herzegovina"/>
    <path d="M562.6,724.78L562.12,728.42L558.02,730.52L558.29,735.03L555.35,737.94L560.38,743.11L556.49,743.61L554.31,741.97L548.87,743.15L546.76,745.73L545.65,749.16L538.52,750.63L528.32,747.69L525.01,749.15L519.13,749.67L519.44,745.72L517.73,742.85L513.32,739.54L514.65,738.22L513.72,734.07L517.49,730.5L513.72,727.75L511.97,722.05L514.01,719.67L518.68,723.42L537.49,725.52L542.91,722.05L549.78,720.4L556.53,722.25L558.11,723.95Z" class="land" id="BG" title="Bulgaria"/>
    <path d="M715.4,775.24L709.86,773.9L703.15,767.2L702.64,766.64L704.72,766L711.55,770.03ZM729.85,744.4L735.41,750.03L736.98,752.89L742.46,757.49L747.22,759.27L741.41,761.54L740.72,767.63L741.56,770.33L739.08,772.57L738.36,775.89L739.24,779.85L736.99,780.11L731.44,775.86L732.96,774.19L729.52,766.84L727.73,767.21L718.48,774.94L718.42,771.87L714.77,767.78L710.8,764.79L711.57,761.12L705.91,756.92L707.25,754.76L701.54,750.14L703.53,748.5L714,752.43L714.78,749.59L710.55,746.34L712.11,743.93L714.9,744.74L720.14,749.89L725.31,750.95L728.87,746.92Z" class="land" id="AZ" title="Azerbaijan"/>
    <path d="M462.7,675.08L462.15,676.68L464.89,681.1L464.56,684.14L462.03,684.35L459.86,687.6L460.38,691.28L457.63,692.74L456.73,694.64L449.09,695.16L445.29,697.3L438.72,696.25L428.02,694.38L425.95,692.01L418.61,691.6L416.99,693.42L412.34,692.72L408.66,692.52L405.2,690.76L404.62,688.59L404.41,686L406.17,685.48L410.88,688.15L411.65,685.83L418.68,687.02L421.91,685.39L429.58,684.53L431.52,682.27L430.17,679.53L434.7,677.16L437.58,673.38L439.6,675.04L444.71,675.07L446.56,671.18L450.01,671.45L455.41,673.5L458.7,673.04Z" class="land" id="AT" title="Austria"/>
    <path d="M718.48,774.94L715.4,775.24L711.55,770.03L704.72,766L702.64,766.64L698.03,763.13L693.85,762.82L691.23,758.54L692.06,756.08L688.98,752.05L701.54,750.14L707.25,754.76L705.91,756.92L711.57,761.12L710.8,764.79L714.77,767.78L718.42,771.87Z" class="land" id="AM" title="Armenia"/>
    <path d="M343.66,737.58L341.88,738.29L341.35,736.62Z" class="land" id="AD" title="Andorra"/>
    <path d="M470.7,559.5L472.82,560.35L469.28,561.89L468.6,560.29Z" class="land" id="AX" title="Aland Islands"/>
    <path d="M494.34,737.13L498.14,740.48L499.17,744.1L498.57,747.75L501.34,753.91L503.53,754.72L504.29,756.71L501.74,762.33L496.69,766.58L495.12,763.1L491.12,760.59L490.25,756.66L491.01,753.86L490.36,748.75L491.12,744.99L489.1,744.15L488.29,741L490.89,736.29Z" class="land" id="AL" title="Albania"/>
  </g>
</svg>