<?xml version="1.0" encoding="UTF-8"?>
<svg xmlns="http://www.w3.org/2000/svg" width="960" height="1270" viewBox="0 0 960 1270" style="background-color:#7e57b7">
  <!-- Created using SVG Map Generator: dojo.amcharts.com/svg-map-generator -->
  <style>
    .land { fill: #080411; stroke: #cccccc; stroke-width: 0.1; }
  </style>
  <g id="polygons">
    <path d="M524.31,592.04L476.07,590.49L464.65,589.57L470.69,578.43L480.76,576.66L487.25,569.64L488.35,569.82L482.18,576.96L493.4,578.09L493.58,570.18L509.67,575L518.95,575.11L524.41,580.42ZM921.89,244.61L946.05,251.6L937.61,258.66L922.37,261.41L912.94,249.79ZM1070.61,903.11L1067.95,909.27L1058.81,919.16L1046.27,916.57L1033.94,903.93L1027.18,901.94L1010,893.96L1010.72,887.11L1002.77,885.71L992.37,879.97L985.08,880.16L974.74,884.79L970.53,880.21L941.37,868.12L924.58,868.26L904.76,860.28L894.67,859.38L891.75,863.17L863.52,841.23L852.39,837.92L844.86,830.88L835.98,829.96L824.78,816L838.49,813.8L837.14,809.07L841.97,798.1L846.59,795.76L840.46,782.64L864.75,770.45L848.62,768.69L843.61,770.8L843.32,759.12L854.22,751.73L870.61,752L873.47,742.2L865.08,723.06L871.76,718.29L864.64,709.08L851.76,702.06L846.93,702.83L833.28,697.2L829.7,700.47L815.75,688.35L794.7,691.58L776.5,685.18L772.76,672.78L752,666.2L747.63,657.18L752.57,654.7L737.91,640.9L714.65,641.79L711.01,646.54L701.14,646.86L696.89,641.69L690.94,620.16L705.02,622.71L714.82,616.75L695.1,599.31L687.31,595.93L680.47,585L673.97,581.75L676.42,575.32L673.32,562.85L659.85,556.25L646.38,560.1L643.55,554.02L632.75,553.92L620.1,549.13L618.03,539.53L611.53,531.87L609.97,521.19L601.11,516.18L607.53,508.78L601.34,498.65L598.78,487.76L607.04,470.17L606.29,464.55L622.83,462.12L623.8,453.68L614.84,443.94L599.75,445.67L630.22,422.34L654.81,398.9L657.98,391.65L650.5,384.3L628.89,373.39L635.5,365.88L627.29,358.09L625.17,349.11L616.27,344.54L615.76,329.87L622.1,328.59L617.23,319.48L599.96,299.99L612.32,287.3L600.24,276.03L588.63,273.24L583.91,266.73L590.24,255.14L619.04,238.7L629.15,240.72L636.88,235.04L653.67,239.38L645.46,245.26L668.03,248.91L704.93,251.47L738.81,262.3L788.06,281.07L798.63,283.66L807.3,303.19L797.95,311.59L778.44,318.56L763.46,320.07L712.32,312.71L699.52,307.94L657.82,301.2L679.25,314.37L694.41,318.65L702.24,324.52L697.77,334.98L706.47,344.15L709.52,353.72L723.89,357.81L738.16,366.29L757.92,370.57L767.9,365.76L764.42,359.12L750.55,357.13L737.07,347.26L741.68,339.97L753.18,341.41L762.66,346.55L794.6,353.34L801.5,343.88L791.29,336L790.32,330.46L803.47,322.31L816.09,318.76L826.5,309.97L860.5,316.28L864.62,306.6L858.71,297.15L849.1,293.74L852.2,277.49L845.87,265.41L877.34,266.92L894.83,280.69L875.72,282.69L867.45,288.84L889.12,302.6L901.34,303.21L917.32,298.36L916.62,286.5L932.66,283.27L961.57,269.75L988.65,264.46L1006.67,255.71L1015.25,272.42L1024.92,271.42L1046.98,263.24L1065.95,265.3L1080.81,258.01L1092.39,255.53L1113.7,268.18L1126.3,255.9L1108.34,242.85L1120.16,237.24L1160.78,241.03L1218.57,256.75L1229.12,258.36L1247.63,267.1L1265.71,293.05L1258.68,305.47L1240.79,317.69L1220.78,327.82L1198.1,345.96L1170.85,359.97L1185.24,434.74L1188.71,471.19L1184.1,492.8L1177.39,508.51L1166.94,520.89L1166.59,532.06L1182.93,540.27L1187.99,550.46L1180.7,563.31L1164.5,566.4L1144.47,568.19L1166.95,589.33L1182.34,601.07L1203.75,587.82L1217.97,593.2L1225.28,602.07L1218.34,609.2L1213.88,620.57L1218.3,634.5L1232.02,638.05L1242.71,652L1251.91,657.87L1270.52,663L1276.21,668.21L1274.93,677.27L1261.77,682.12L1247.75,678.79L1246.4,684.14L1227.8,681.37L1215.37,672.28L1205.19,671.6L1198.84,676.59L1189.47,672.25L1179.77,673.37L1168.95,683.64L1164.03,683.66L1145.99,673.9L1141.4,679.26L1132.14,671.02L1116.5,662.01L1101.8,662.02L1096.07,657.13L1083.36,661.97L1066.4,655.96L1058.32,666.74L1045.05,671.8L1042.93,677.5L1034.33,683.67L1033.53,689.77L1038.02,698.18L1031.06,702.74L1014.22,689.17L1007.42,691.75L1003.02,702.14L1001.71,714.16L1007.12,720.81L1002.46,728.09L1003.5,737.86L1010.81,741.04L1014.14,749.43L1022.42,753.01L1034.99,754.47L1045.7,765.06L1056.31,778.73L1050.41,783.94L1062.76,789.4L1047.11,803.72L1033.39,808.15L1029.95,822.68L1022.26,831.94L1023.23,837.89L1033.73,843.65L1042.22,860.9L1043.31,872.92ZM1098.34,240.04L1085.51,236.35L1074.4,228.33L1081.54,224.08L1108.83,234.85ZM946.89,190.05L962.05,185.23L972.58,164.56L990.95,162.7L1016.42,166.48L1014.27,175.03L1005.15,181.8L1008.49,192.91L1025.44,205.35L1042.86,214.24L1049.77,221.44L1007.03,219.5L991.48,216.63L979.99,201.21L954.98,202.27L946.74,196.24ZM1179.93,96.57L1172.79,103.96L1146.61,109.93L1075.97,123.3L1062.94,133.77L1038.86,139.81L1040.67,147.36L1023.62,163.05L1015.62,164.48L991.44,161.24L980.92,163.37L968.95,154.81L981.45,150.84L990.85,137.19L1002.54,130.51L1008.1,121.92L1032.01,112.5L1063.48,107.22L1064.22,104.02L1092.27,104.91L1133.4,97.48L1155.05,89.77L1170.59,91.21ZM990.81,22.55L992.83,19.07L1021.55,17.73L1031.81,22.56L1018.88,26.06ZM840.5,24.35L840.07,18.98L862.16,17.37L877.64,21.32L838.95,26.94L822.38,31.52L806.09,28.17ZM916.14,19.58L917.83,13.87L965.08,19.49L937.43,22.21ZM931.74,12.63L948.05,6.62L968.5,9.23L957.78,13.54Z" class="land" id="RU" title="Russia"/>
    <path d="M-22.09,1048.17L-22.21,1049.45L-22.57,1049.09L-22.53,1048.61Z" class="land" id="GI" title="Gibraltar"/>
    <path d="M175.6,664.36L169.38,668.75L158.8,664.58ZM175.6,664.36L163.36,662.7L180.49,641.77L185.91,626.36L190.78,626.15L192.64,639.85L201,634.8L197.4,622.6L210.35,615.03L224.61,614.21L231.88,618.06L229.12,640.04L223.66,651.5L208.54,655.14L213.28,661.85L207.67,674.24L209.61,679.99L205.83,679.89L203.84,679.39L206.34,670.76L200.2,667.09L180.91,662.2Z" class="land" id="NL" title="Netherlands"/>
    <path d="M341.3,901.75L341.14,901.77L341.13,901.56L341.28,901.54Z" class="land" id="VA" title="Vatican City"/>
    <path d="M843.61,770.8L830.48,771.23L827.04,775.17L807.06,781.63L798.25,782.49L780.4,793.38L785.4,805.65L797.26,815.46L808.94,811.89L817.16,813.38L814.64,821.64L804.44,823.15L796.25,820.82L789.53,828.26L782.14,828.15L767.34,838.72L757.7,834.53L758.16,820.83L744.78,814.52L736.47,813.13L757.75,799.48L747.92,793.73L733.86,796.04L724.62,791.6L722.1,780.37L699.34,784.3L694.95,795.5L689.84,801.49L678.11,806.12L681.28,816.75L671.34,813.15L662.58,817.39L651.17,811.96L664.2,796.89L662.83,787.5L666.88,784.94L680.99,789.35L680.48,777.36L674.09,773.99L672.88,766.92L664.67,761.7L664.19,751.06L655.32,745.15L646.47,744.09L630.47,736.23L612.86,741.66L604.59,748.31L591.12,750.35L580.39,755.16L573.75,749.84L565.97,750.47L546.52,746.02L540.42,749.44L524.96,738.03L531.53,721.46L532.71,709.89L551.44,689.18L556.39,688.38L557.95,677.67L546.79,661.14L560.44,652.57L590.2,651.44L613.9,655.4L616.73,658.79L642.37,660.53L652.43,658.7L657.16,664.46L679.24,659.21L686.37,648.2L701.14,646.86L711.01,646.54L714.65,641.79L737.91,640.9L752.57,654.7L747.63,657.18L752,666.2L772.76,672.78L776.5,685.18L794.7,691.58L815.75,688.35L829.7,700.47L833.28,697.2L846.93,702.83L851.76,702.06L864.64,709.08L871.76,718.29L865.08,723.06L873.47,742.2L870.61,752L854.22,751.73L843.32,759.12Z" class="land" id="UA" title="Ukraine"/>
    <path d="M929.22,911.42L948.81,913.4L954.87,910.24L969.69,921.85L976.83,931.72L974.57,937.76L980.56,948.25L990.79,949.02L1001.75,957.61L1002.94,958.97L995.02,964.78L987.71,965.93L999.57,991.99L996.58,1003.46L1004.33,1007.64L1005.62,1015.56L1010.63,1019.27L1001.12,1027.27L998.87,1021.51L984.47,1020.44L968.81,1017.19L963.02,1023.41L958.69,1019.63L943.77,1024.43L927.06,1024.21L913.65,1031.17L900.46,1034.86L888.25,1034.56L875.81,1029.23L860.94,1035.84L844.46,1031.78L842.87,1040.6L835.99,1056.65L828.24,1044.39L835.14,1035.45L831.61,1028.99L821.87,1037.03L802.08,1032.23L791.23,1043.6L784.81,1047.67L766.53,1051.41L757.58,1047.63L749.44,1038.62L735.03,1031.81L720.28,1030.15L718.16,1044.37L702.06,1048.32L690.28,1042.16L687.52,1034.55L675.86,1031.74L668.21,1025.94L652.06,1026.22L655.14,1020.33L648.68,1016.74L645.21,1009.11L647.83,1001.67L636.13,996.05L639.45,991.59L636.8,982.97L641.57,978.45L633.99,968.1L636.42,961.2L622.05,963.63L622.42,950.3L632.92,939.85L643.92,938.43L648.08,941.9L664.44,939.78L674.27,936.44L685.36,929.42L678.44,924.39L683.53,918.79L695.8,920.75L704.31,919.57L714,922.41L722.95,921.84L726.53,916.44L742.62,906.02L763.55,898.71L791.33,900.25L796.18,897.55L803.03,906.05L818.39,907.23L821.73,913.73L828.9,917.9L834.02,915.34L840.4,919.89L867.83,926.5L888.43,921.88L905.9,925.57L919.13,919.19ZM655.41,899.95L663.25,912.71L678.16,918.74L673.13,925.24L660.57,922.52L647.19,925.26L642.89,932.53L619.65,934.47L618.09,931.53L623.55,925.73L622.96,918.51L628.57,914.36L621.78,906.36L627.21,900.05L640.66,897.14L645.85,901.17Z" class="land" id="TR" title="Türkiye"/>
    <path d="M519.23,325.84L501.26,327.4L475.58,334.7L476.44,341.02L469.67,348.13L476.42,357.78L465.38,369.34L436.44,383.63L427.08,391.41L417.17,392.9L410.76,417.86L405.95,421.65L409.68,441.86L422.56,444.43L434.03,452.24L442.49,463.79L423.58,475.16L431.33,478.94L416.7,484.82L402.75,494.79L405.27,499.97L402,509.46L402.7,527.09L394.19,547.22L371.72,548.68L361.62,556.55L364.36,563.85L345.53,568.2L337.32,566.64L338.73,559.88L331.07,549.26L335.93,537.8L327.07,530.93L307.95,502.24L301.61,481.77L305.95,480.64L313.16,474.71L310.71,467.64L324.73,455.65L326.18,447.66L320.26,434.87L330.36,426.8L316.99,418.32L318.98,405.35L315.29,398.35L316.66,389.03L312.48,382.4L323.36,367.7L334.34,364.66L345.99,366.03L347.4,355.88L339.79,353.23L353.17,337.09L353.01,318.63L368.88,314.7L367.54,310.63L383.32,298.14L377.95,289.97L396.97,275.12L407.27,278.16L413.8,265.12L441.07,269.6L450.38,254.82L474.82,266.03L488.39,268.85L504.11,278.39L502.68,289.44L513.4,303.53L509.44,310.83ZM448.25,508.9L443.68,511.97L442.47,522.95L435.12,526.73L431.51,515.51L438.36,509.03Z" class="land" id="SE" title="Sweden"/>
    <path d="M417.92,785.61L400.93,793.11L401.14,802.32L394.38,804.86L395.92,811.53L383.86,810.49L367,812.5L360.94,810.28L363.68,808.5L356.64,790.17L362.37,785.1L378.33,787.68L387.89,782.44L406.68,781.16L409.11,776.51Z" class="land" id="SI" title="Slovenia"/>
    <path d="M531.53,721.46L524.96,738.03L517.96,739.7L511.4,734.38L492.7,735.01L490.07,740.76L481.86,744.85L460.44,748.12L459.45,753.43L440.63,753.85L428.27,747.98L422.09,737.13L423.64,733.22L427.84,726.71L438.89,726.03L446.15,716.87L458.76,710.6L470.42,708.45L478.13,718.49L493.57,713.55L513.38,713.04Z" class="land" id="SK" title="Slovakia"/>
    <path d="M492.04,795.42L503.2,804.43L503.63,811.1L518.5,820.21L516.81,826.56L531.49,834.82L539.74,836.15L544.25,842.51L539,848.32L542.66,862.29L551.61,869.05L541.99,877.79L543.84,887.97L540.45,891.19L524.82,892.88L527.95,882.17L520.53,880.1L513.27,871.48L504.68,872.94L499.39,878.16L482.89,868.43L475.26,860.31L480.88,856L473.26,840.88L476.51,826.85L469.53,826.58L469.49,810.02L465.9,799.87L477.91,794.25Z" class="land" id="RS" title="Serbia"/>
    <path d="M340.64,851L338.84,850.16L339.68,848.95L341.19,849.7Z" class="land" id="SM" title="San Marino"/>
    <path d="M651.17,811.96L662.58,817.39L671.34,813.15L681.28,816.75L679.41,827.23L669.5,829.4L662.62,841.04L662.77,855.03L651.87,852.99L648.17,848.83L631.82,844.28L614.8,848.33L601.15,856.83L555.29,851.7L544.25,842.51L539.74,836.15L531.49,834.82L516.81,826.56L518.5,820.21L503.63,811.1L503.2,804.43L492.04,795.42L509.67,790.51L529.39,754.91L540.42,749.44L546.52,746.02L565.97,750.47L573.75,749.84L580.39,755.16L591.12,750.35L604.59,748.31L612.86,741.66L620.18,744.26L628.44,757.11L644.55,773.62L649.29,786.83L647.63,798.83Z" class="land" id="RO" title="Romania"/>
    <path d="M-63.97,1022.12L-72.95,1026.56L-88.57,1023.61L-92.69,1015.67L-93.57,988.03L-104.77,982.45L-101.67,969.22L-90.15,947.1L-85.38,923.82L-87.77,908L-86.73,900.67L-75.13,895.77L-69.53,902.11L-59.15,903.39L-43.18,900.63L-41.92,907.49L-35.4,911.05L-50.41,924.35L-48.68,941.31L-52.97,944.74L-53.92,957.34L-62.43,961.87L-54.91,977.95L-61.43,989.43L-58.64,1000.96L-65.58,1011.73Z" class="land" id="PT" title="Portugal"/>
    <path d="M464.65,589.57L476.07,590.49L524.31,592.04L537.75,597.19L538.82,602.12L548.63,624.26L548.68,633.11L537.3,643.05L545.3,646.81L546.79,661.14L557.95,677.67L556.39,688.38L551.44,689.18L532.71,709.89L531.53,721.46L513.38,713.04L493.57,713.55L478.13,718.49L470.42,708.45L458.76,710.6L452.92,701.48L439.48,699.19L424.9,689.16L416.19,696.09L402.5,683.41L389.67,678.48L379.14,677.32L382.62,667.64L373.95,653.43L376.52,647.33L373.42,636.42L363.66,627.89L368.58,618.04L365.08,607.21L364.06,603.79L363.91,601.86L400.65,593.64L407.27,587.28L420.18,583.05L439.89,580.43L447.13,590.25L453.04,592.23Z" class="land" id="PL" title="Poland"/>
    <path d="M423.61,29.06L446.15,26.36L512.68,30.67L518.85,35.22L497.64,44.38L472.96,48.22L425.79,44.48L392.67,37.86L386.14,32.47ZM363.3,35.21L391.04,41.3L399.82,48.91L420.55,49.42L435.84,56.65L411.61,58.86L392.97,70.16L391,79.79L381.99,82.17L369.56,98.15L332.11,85.36L326.17,81.28L339.82,76.59L320.21,70.1L340.05,67.76L334.12,62.77L311.76,66.12L290.11,57.1L280.99,49.42L274.99,37.21L303.26,37.58L313.22,42.96L349.31,39.29ZM439.62,59.36L464.6,70.8L482.09,72.57L477.42,80.27L462.15,84.56L449.95,80.2L441.77,72.24L419.01,61.58Z" class="land" id="SJ" title="Svalbard and Jan Mayen"/>
    <path d="M425.1,232.62L430.93,234.69L418.38,243.1L410.71,239.04ZM396.97,242.73L405.28,251.33L389.01,252.63ZM619.04,238.7L590.24,255.14L594.68,245.39L590.71,241.11L568.45,232.72L546.31,235.87L538.64,241.51L536.43,255.83L524.15,264.45L505.22,259.83L496.78,263.24L481.22,261.7L466.51,249.76L450.38,254.82L441.07,269.6L413.8,265.12L407.27,278.16L396.97,275.12L377.95,289.97L383.32,298.14L367.54,310.63L368.88,314.7L353.01,318.63L353.17,337.09L339.79,353.23L347.4,355.88L345.99,366.03L334.34,364.66L323.36,367.7L312.48,382.4L316.66,389.03L315.29,398.35L318.98,405.35L316.99,418.32L330.36,426.8L320.26,434.87L326.18,447.66L324.73,455.65L310.71,467.64L313.16,474.71L305.95,480.64L295.74,477.19L273.81,482.76L247.79,501.6L226.56,504.45L202.66,492.69L199.16,487.92L205.25,482.45L205.01,473.22L192.07,476.2L195.16,466.47L191.78,462.01L193.93,444.9L190.41,441.7L188.12,418.54L198.82,404.77L213.27,397.9L229.75,398.11L224.74,390L243.94,386.97L248.92,376.88L271.68,374.84L271.68,369.4L286.2,356.91L297.45,351.03L299.38,345.95L313.13,339.83L314.63,331.12L326.21,321.07L327.73,309.53L354.51,288.37L354.76,281.56L363.09,275.88L375.51,273.02L384.62,263.74L396.71,259.97L407.89,252.23L410.41,245.34L421.86,243.49L424.88,239.47L439.06,236.55L457.23,236.42L460.42,230.3L481.15,226.01L487.93,231.86L508.84,219.03L511.83,212.67L530.59,215.81L559.86,210.75L585.49,215.65L618.27,228.16L597.19,234.55L601.34,239.9Z" class="land" id="NO" title="Norway"/>
    <path d="M475.26,860.31L482.89,868.43L499.39,878.16L494.18,885.28L485.82,883.22L478.96,894.78L480.64,902.49L471.07,892.84L463.22,888.17L461.42,884.97L461.01,874.6L470.22,861.23Z" class="land" id="ME" title="Montenegro"/>
    <path d="M389.62,1056.1L386.96,1056.9L385.18,1055.6L387.09,1053.43Z" class="land" id="MT" title="Malta"/>
    <path d="M540.45,891.19L550.94,899.32L554.83,906.35L553.67,916.02L545.5,921.56L534.1,921.85L527.31,927.91L514.94,928.39L509.66,926.41L503.49,911.32L505.32,902.36L514.8,894.81L524.82,892.88Z" class="land" id="MK" title="North Macedonia"/>
    <path d="M651.17,811.96L647.63,798.83L649.29,786.83L644.55,773.62L628.44,757.11L620.18,744.26L612.86,741.66L630.47,736.23L646.47,744.09L655.32,745.15L664.19,751.06L664.67,761.7L672.88,766.92L674.09,773.99L680.48,777.36L680.99,789.35L666.88,784.94L662.83,787.5L664.2,796.89Z" class="land" id="MD" title="Moldova"/>
    <path d="M239.83,854.81L238.63,855.29L239.34,854.29Z" class="land" id="MC" title="Monaco"/>
    <path d="M601.11,516.18L609.97,521.19L611.53,531.87L618.03,539.53L620.1,549.13L610.52,557.36L600.66,556.6L592.58,560.51L559.12,543.03L544.95,546.23L539.07,544.68L506.83,542.84L488.3,550.87L487.11,532.9L491.85,528.29L497.55,515.17L512.37,511.55L534.39,529.4L547.41,520.99L544.47,508.08L558.4,503.53L575.19,508.85L586.04,516.11Z" class="land" id="LV" title="Latvia"/>
    <path d="M212.11,695.51L219.37,703.48L216.67,712.04L205.91,709.91L204.95,700.48Z" class="land" id="LU" title="Luxembourg"/>
    <path d="M592.58,560.51L586.64,576.45L580.95,578.48L576.68,592.64L562.95,601.28L538.82,602.12L537.75,597.19L524.31,592.04L524.41,580.42L518.95,575.11L509.67,575L493.58,570.18L488.3,550.87L506.83,542.84L539.07,544.68L544.95,546.23L559.12,543.03Z" class="land" id="LT" title="Lithuania"/>
    <path d="M280.84,771.65L279.02,771.53L279.69,766.32Z" class="land" id="LI" title="Liechtenstein"/>
    <path d="M524.82,892.88L514.8,894.81L505.32,902.36L503.16,893.49L494.18,885.28L499.39,878.16L504.68,872.94L513.27,871.48L520.53,880.1L527.95,882.17Z" class="land" id="XK" title="Kosovo"/>
    <path d="M54.33,717.52L50.07,718.88L50.44,716.65Z" class="land" id="JE" title="Jersey"/>
    <path d="M408.33,995.48L399.25,1014.97L403.66,1026.37L400.2,1034.7L387.51,1031.86L379.86,1024.05L374.96,1024.13L344.2,1005.72L362.75,996.5L369.65,1001.09L386.53,999.96L393.4,996.72ZM285.17,927.58L288.87,937.31L284.58,971.32L274.21,969.45L270.77,977.8L261.19,970.32L261.87,942.59L256.02,933.44L277.95,919.44ZM362.37,785.1L356.64,790.17L363.68,808.5L353.35,803.89L349.99,807.24L335.17,812.07L334.37,817.2L340.51,824.1L335.24,830.28L338.59,842.86L344.68,848.64L362.5,859.35L372.28,881.67L390.11,897.83L396.34,900.84L412.38,900.7L413.91,913.51L436.41,923L454.18,933.35L465.66,947.37L457.56,951.66L452.81,942.9L433.57,938.38L426.14,953.63L427.76,959.26L438.59,965.85L440.25,975.62L427.96,982.85L428.02,990.65L418.46,1002.61L411.64,1002.68L415.96,982.91L420.51,981.72L416.36,966.54L408.96,950.3L393.61,943.95L389.44,933.03L383.26,933.92L375.85,928.98L368,918.59L354.95,918.38L345.51,912.63L324.86,891.86L315.23,885.58L305.74,875.42L291.86,848L276.56,840.46L266.08,837.85L252.63,850.56L240.92,854.39L244.49,846.41L230.27,841.43L231.41,830.43L223.29,820.32L233.64,813.2L226.61,802.79L230.87,800.01L250.06,797.75L259.16,791.97L269.14,802.42L274.79,790.96L288.32,789.07L298.13,776.46L309.43,778.16L313.62,773.7L331.55,774.71L336.35,780.53ZM340.64,851L341.19,849.7L339.68,848.95L338.84,850.16Z" class="land" id="IT" title="Italy"/>
    <path d="M-163.97,316.43L-150.04,321.05L-151.81,326.94L-132.82,332.93L-138.57,346.93L-160.46,359.67L-179.14,363.83L-190.02,369.39L-211.11,372.84L-226.81,379.79L-253.46,376.41L-270.48,367.81L-294.69,370.03L-279.74,361.71L-280.61,354.73L-291.4,343.25L-277.83,332.79L-292.99,330.85L-310.93,334.71L-316.21,332.93L-305.39,319.95L-281.42,311.95L-264.26,324.25L-267.99,333.23L-260.6,333.89L-248.51,327.76L-247.37,320.77L-219.74,317.75L-184.98,318.57L-180.44,311.59L-170.72,310.08Z" class="land" id="IS" title="Iceland"/>
    <path d="M-21.18,598.51L-19.06,626.71L-30.16,644.71L-48.71,646.91L-51.5,649.82L-74.06,659.49L-83.44,661.62L-88.56,656.94L-103.53,652.54L-95,645.98L-87.24,635.67L-80.89,622.55L-89.79,615.32L-92.03,593.99L-66.08,592.28L-68.19,584.2L-58.27,573.01L-38.73,568.05L-38.59,574.32L-56.48,590.65L-42.56,597.73L-34.32,591.61L-29.36,599.24Z" class="land" id="IE" title="Ireland"/>
    <path d="M12.95,596.18L6.59,597.79L11.34,591.55Z" class="land" id="IM" title="Isle of Man"/>
    <path d="M524.96,738.03L540.42,749.44L529.39,754.91L509.67,790.51L492.04,795.42L477.91,794.25L465.9,799.87L456.9,803.99L447.52,803.91L434.27,798.24L417.92,785.61L409.11,776.51L416.02,772.92L415.17,763.9L420.89,755.95L427.11,755.42L428.27,747.98L440.63,753.85L459.45,753.43L460.44,748.12L481.86,744.85L490.07,740.76L492.7,735.01L511.4,734.38L517.96,739.7Z" class="land" id="HU" title="Hungary"/>
    <path d="M445.52,876.41L461.42,884.97L463.22,888.17ZM465.9,799.87L469.49,810.02L469.53,826.58L462.38,821.34L445.49,821.32L419.84,817.83L415.4,823.07L405.14,818.78L404.62,829.19L412.79,836.55L414.78,843.08L444.47,872.73L443.81,875.37L429.56,863.87L409.99,857.19L392.96,842.03L395.76,838.83L387.94,830.68L386.73,821.25L377.14,814.68L369.31,827.43L362.36,820.57L360.94,810.28L367,812.5L383.86,810.49L395.92,811.53L394.38,804.86L401.14,802.32L400.93,793.11L417.92,785.61L434.27,798.24L447.52,803.91L456.9,803.99Z" class="land" id="HR" title="Croatia"/>
    <path d="M582.33,1064.23L588.74,1062.71L592.14,1068.64L600.52,1067.08L616.36,1070.13L622.21,1074.31L602.92,1079.65L595.59,1073.86L576.67,1070.41ZM567.87,976.62L582.33,983.96L575.83,990.86L564.79,980.64ZM628.38,967.15L630.26,976.26L618.46,972.01ZM618.09,931.53L614.13,928.55L598.61,924.72L592.56,928.21L585.99,925.9L574.58,936.17L570.79,944.34L563.64,944.53L549.3,937.43L549.3,949.1L556.63,959.5L558.56,974.78L555.01,980.66L565.03,984.21L580.3,994.09L583.05,1008.55L572.82,1000.85L564.96,1002.16L565.28,1018.16L557.03,1016.64L564.33,1032.47L554.72,1032.35L543.47,1025.97L540.02,1033.44L533.15,1024.64L532.26,1012.86L522.95,1003.18L527.86,996.09L536.31,992.73L556.83,1001.6L563.3,999.25L548.37,989.9L529.09,992.9L521.64,991.28L514.15,980.48L513.91,975.34L503.69,967.21L497.04,957.45L509.81,947.05L516.6,933.27L514.94,928.39L527.31,927.91L534.1,921.85L545.5,921.56L553.67,916.02L568.14,914.74L576.39,911.17L601.11,918.38L618.71,914.77L621.78,906.36L628.57,914.36L622.96,918.51L623.55,925.73Z" class="land" id="GR" title="Greece"/>
    <path d="M44.94,711L44.21,712.63L42.34,711.65Z" class="land" id="GG" title="Guernsey"/>
    <path d="M1027.18,901.94L1023.1,907.87L1033.16,915.83L1030.97,922.79L1005.69,913.15L1000.64,917.17L969.69,921.85L954.87,910.24L948.81,913.4L929.22,911.42L932.73,899.92L924.76,882.44L910.22,872.19L903.75,870.74L891.75,863.17L894.67,859.38L904.76,860.28L924.58,868.26L941.37,868.12L970.53,880.21L974.74,884.79L985.08,880.16L992.37,879.97L1002.77,885.71L1010.72,887.11L1010,893.96Z" class="land" id="GE" title="Georgia"/>
    <path d="M281.15,878.73L282.9,895.87L275.91,914.79L268.16,909.62L265.84,885.21ZM205.91,709.91L216.67,712.04L224.34,719.28L238.24,719.48L251.61,723.91L245.97,732.3L241.24,746.52L242.02,758.28L230.05,765.02L211.77,787.4L225.54,787.72L230.87,800.01L226.61,802.79L233.64,813.2L223.29,820.32L231.41,830.43L230.27,841.43L244.49,846.41L240.92,854.39L239.83,854.81L239.34,854.29L238.63,855.29L221.07,869.52L213.51,871.97L199.26,868.01L192.29,862.55L185.32,864.35L172.11,858.8L156.19,868.91L152,875.94L155.16,888.22L131.42,890.18L124.88,886.39L119.33,884.04L104.69,877.73L103.33,881.67L89.8,881.68L84.67,878.24L64.99,872.29L54.99,863.48L61.27,859.54L66.6,834.38L70.86,803.02L69.55,790.33L57.05,785.23L51.86,777.83L52.81,772.14L30.93,755.73L16.52,752.17L8.46,752.54L2.51,745.99L7.39,738.97L1.17,734.69L30.45,727.21L40.7,734.76L45.59,731.99L65.24,732.16L62.77,718.24L57.8,706.32L69.37,706.4L71.52,713.64L90.39,715.9L99.03,711.77L97.37,705.84L117.98,698.55L123.98,691.24L124.66,680.27L131.14,674.08L142.92,671.47L148.91,680.94L174.6,692.41L174.63,699.48L183.91,698.43L188.02,703.74L200.43,710.6Z" class="land" id="FR" title="France"/>
    <path d="M-17.17,406.68L-24.17,409.74L-26.68,405.35Z" class="land" id="FO" title="Faroe Islands"/>
    <path d="M590.24,255.14L583.91,266.73L588.63,273.24L600.24,276.03L612.32,287.3L599.96,299.99L617.23,319.48L622.1,328.59L615.76,329.87L616.27,344.54L625.17,349.11L627.29,358.09L635.5,365.88L628.89,373.39L650.5,384.3L657.98,391.65L654.81,398.9L630.22,422.34L599.75,445.67L589.74,445.62L561.82,450.39L553.19,453.61L527.93,458.94L510.87,456.35L506.23,449.78L485.13,444.28L482.89,435.69L485.79,421.29L478.59,412.14L479.76,406.77L474.36,397.64L492.45,379.08L508.88,368.69L525.11,354.73L529.15,348.3L542.67,343.62L540.79,333.11L519.23,325.84L509.44,310.83L513.4,303.53L502.68,289.44L504.11,278.39L488.39,268.85L474.82,266.03L450.38,254.82L466.51,249.76L481.22,261.7L496.78,263.24L505.22,259.83L524.15,264.45L536.43,255.83L538.64,241.51L546.31,235.87L568.45,232.72L590.71,241.11L594.68,245.39Z" class="land" id="FI" title="Finland"/>
    <path d="M607.04,470.17L598.78,487.76L601.34,498.65L607.53,508.78L601.11,516.18L586.04,516.11L575.19,508.85L558.4,503.53L544.47,508.08L546.95,496.67L533.01,496.52L527.51,489.51L525.84,476.91L541.19,470.43L560.34,469.3L561.19,466.56L588.32,470.95ZM511.33,490.39L524.01,493.63L504.06,502.31L501.89,493.76Z" class="land" id="EE" title="Estonia"/>
    <path d="M-241.2,1254.05L-241.28,1261.06L-248.21,1263.38L-247.19,1253.87ZM-260.74,1248.07L-268.08,1257.66L-272.91,1249.11ZM-215.61,1253.49L-210.91,1239.67L-207.32,1242.8L-209.81,1251.32ZM153.57,955.4L160.01,957.75L152.03,967.88L137.77,959.92L146.23,953.75ZM54.99,863.48L64.99,872.29L84.67,878.24L89.8,881.68L103.33,881.67L104.69,877.73L119.33,884.04L120.44,888.13L124.88,886.39L131.42,890.18L155.16,888.22L155.85,900.58L132.21,917.26L110.91,923L104.38,929.09L97.09,941.92L82.73,962.3L85.04,973.96L93.24,981.72L81.19,989.98L75.63,997.24L71.79,1011.84L61.39,1012.35L51.56,1020.75L44.86,1032.43L30.88,1034.02L21.18,1032.97L-1.7,1033.92L-8.2,1039.35L-18.53,1041.47L-28.22,1051.66L-36.67,1047.5L-45.35,1027.87L-53.21,1021.74L-63.97,1022.12L-65.58,1011.73L-58.64,1000.96L-61.43,989.43L-54.91,977.95L-62.43,961.87L-53.92,957.34L-52.97,944.74L-48.68,941.31L-50.41,924.35L-35.4,911.05L-41.92,907.49L-43.18,900.63L-59.15,903.39L-69.53,902.11L-75.13,895.77L-86.73,900.67L-84.59,892.2L-94.64,874.39L-86.93,865.34L-80.18,865.28L-74.27,859.13L-62.87,854.46L-54.34,858.75L-22.41,859.06L0.32,863.27L18.8,860.66L29.89,864.4L44.06,865.5Z" class="land" id="ES" title="Spain"/>
    <path d="M-21.18,598.51L-29.36,599.24L-34.32,591.61L-42.56,597.73L-56.48,590.65L-38.59,574.32L-18.04,571.31L-6.59,588.58L-9.44,594.07ZM41.6,492.88L39.53,497.45L24.9,505.99L26.75,514.48L35.42,511.92L59.83,512.06L65.11,516.99L47.95,544.94L37.97,550.63L56.99,554.86L65.89,562.83L72.11,581.98L83.58,588.49L92.07,600.14L106,625.73L115.42,625.93L126.77,630.93L128.39,637.87L124.7,647.2L113.06,654.03L107.75,664.36L121.7,664.93L112.81,675.67L98.22,679.68L65.08,680.06L45.13,683.29L36.52,680.83L28.64,682.9L20.78,692.84L13.62,688.85L-9.1,692.42L6.1,679.35L14.1,669.22L34.31,668.82L10.86,655.66L0.87,658.48L-2.28,649.43L11.4,644.51L19.42,636.09L17.62,619.6L37.64,614.55L40.55,607.14L36.36,597.57L29.1,589.36L32.12,577.41L22.11,581.81L0.12,579.96L8.52,566.42L-0.65,554.24L-7.26,551.22L-2.64,540.26L-12.62,538.09L-4.87,523.18L-9.33,518.36L0.53,499.39L12.25,493.01L42.75,490.08Z" class="land" id="GB" title="United Kingdom"/>
    <path d="M295.31,561.88L298.32,573.32L283.4,572.61L280.75,564.14ZM331.01,557.69L324.74,565.33L322.31,580.98L314.53,572.04L307.64,571.62L301.44,559.21L324.15,549.71ZM278.99,580.73L258.88,578.85L257.58,566.49L248.46,562.13L248.54,538.06L256.67,526.07L273.85,523.19L281.12,514.93L291.8,518.07L287.72,528.73L287.77,537.74L298.29,540.09L298.67,545.49L288.76,547.46L286.5,555.78L275.74,564.69Z" class="land" id="DK" title="Denmark"/>
    <path d="M278.99,580.73L290.92,590.07L310.89,602L324.09,596.59L332.52,589.37L341.11,590.73L357.51,604.21L365.08,607.21L368.58,618.04L363.66,627.89L373.42,636.42L376.52,647.33L373.95,653.43L382.62,667.64L379.14,677.32L370.62,676.35L334.29,689.87L331.06,694.02L333.66,704.93L338.6,711.82L362.29,729.05L354.78,738.31L343.39,744.12L346.37,750.84L341.34,756.37L322.43,758.5L314.33,762.48L297.23,759.56L295.08,765.26L283.85,758.71L279.48,759.99L261.59,753.95L253.44,757.93L242.02,758.28L241.24,746.52L245.97,732.3L251.61,723.91L238.24,719.48L224.34,719.28L216.67,712.04L219.37,703.48L212.11,695.51L216.86,690.69L209.61,679.99L207.67,674.24L213.28,661.85L208.54,655.14L223.66,651.5L229.12,640.04L231.88,618.06L233.4,608.38L247.06,608.15L257.14,611.4L263.78,604.64L264.48,587.66L258.88,578.85Z" class="land" id="DE" title="Germany"/>
    <path d="M379.14,677.32L389.67,678.48L402.5,683.41L416.19,696.09L424.9,689.16L439.48,699.19L452.92,701.48L458.76,710.6L446.15,716.87L438.89,726.03L427.84,726.71L423.64,733.22L414.1,728.22L405.97,729.34L392.98,724.32L384.57,723.66L379.56,733.21L367.04,733.13L362.29,729.05L338.6,711.82L333.66,704.93L331.06,694.02L334.29,689.87L370.62,676.35Z" class="land" id="CZ" title="Czechia"/>
    <path d="M802.1,1062.75L791.99,1070.49L794.94,1078.28L772.82,1088.85L762.24,1084.92L759.02,1079.18L771.03,1067.96L781.87,1069.36Z" class="land" id="CY" title="Cyprus"/>
    <path d="M279.48,759.99L279.69,766.32L279.02,771.53L280.84,771.65L289.14,775.95L298.13,776.46L288.32,789.07L274.79,790.96L269.14,802.42L259.16,791.97L250.06,797.75L230.87,800.01L225.54,787.72L211.77,787.4L230.05,765.02L242.02,758.28L253.44,757.93L261.59,753.95Z" class="land" id="CH" title="Switzerland"/>
    <path d="M203.84,679.39L205.83,679.89L209.61,679.99L216.86,690.69L212.11,695.51L204.95,700.48L205.91,709.91L200.43,710.6L188.02,703.74L183.91,698.43L174.63,699.48L174.6,692.41L148.91,680.94L142.92,671.47L158.8,664.58L169.38,668.75L175.6,664.36L180.91,662.2L200.2,667.09L206.34,670.76Z" class="land" id="BE" title="Belgium"/>
    <path d="M620.1,549.13L632.75,553.92L643.55,554.02L646.38,560.1L659.85,556.25L673.32,562.85L676.42,575.32L673.97,581.75L680.47,585L687.31,595.93L695.1,599.31L714.82,616.75L705.02,622.71L690.94,620.16L696.89,641.69L701.14,646.86L686.37,648.2L679.24,659.21L657.16,664.46L652.43,658.7L642.37,660.53L616.73,658.79L613.9,655.4L590.2,651.44L560.44,652.57L546.79,661.14L545.3,646.81L537.3,643.05L548.68,633.11L548.63,624.26L538.82,602.12L562.95,601.28L576.68,592.64L580.95,578.48L586.64,576.45L592.58,560.51L600.66,556.6L610.52,557.36Z" class="land" id="BY" title="Belarus"/>
    <path d="M469.53,826.58L476.51,826.85L473.26,840.88L480.88,856L475.26,860.31L470.22,861.23L461.01,874.6L461.42,884.97L445.52,876.41L443.81,875.37L444.47,872.73L414.78,843.08L412.79,836.55L404.62,829.19L405.14,818.78L415.4,823.07L419.84,817.83L445.49,821.32L462.38,821.34Z" class="land" id="BA" title="Bosnia and Herzegovina"/>
    <path d="M662.77,855.03L661.21,863.95L650.93,869.09L651.13,880.14L643.63,887.28L655.41,899.95L645.85,901.17L640.66,897.14L627.21,900.05L621.78,906.36L618.71,914.77L601.11,918.38L576.39,911.17L568.14,914.74L553.67,916.02L554.83,906.35L550.94,899.32L540.45,891.19L543.84,887.97L541.99,877.79L551.61,869.05L542.66,862.29L539,848.32L544.25,842.51L555.29,851.7L601.15,856.83L614.8,848.33L631.82,844.28L648.17,848.83L651.87,852.99Z" class="land" id="BG" title="Bulgaria"/>
    <path d="M1032.2,978.68L1018.77,975.4L1002.94,958.97L1001.75,957.61L1006.89,956.04L1023.27,965.91ZM1070.61,903.11L1083.65,916.9L1087.22,923.91L1100.2,935.18L1111.69,939.54L1097.24,945.1L1094.97,960.04L1096.78,966.65L1090.5,972.13L1088.41,980.28L1090.22,989.98L1084.67,990.61L1071.47,980.19L1075.33,976.1L1067.59,958.1L1063.19,959.01L1039.79,977.96L1039.92,970.43L1031.37,960.39L1021.91,953.07L1024.15,944.09L1010.69,933.79L1014.19,928.48L1000.64,917.17L1005.69,913.15L1030.97,922.79L1033.16,915.83L1023.1,907.87L1027.18,901.94L1033.94,903.93L1046.27,916.57L1058.81,919.16L1067.95,909.27Z" class="land" id="AZ" title="Azerbaijan"/>
    <path d="M423.64,733.22L422.09,737.13L428.27,747.98L427.11,755.42L420.89,755.95L415.17,763.9L416.02,772.92L409.11,776.51L406.68,781.16L387.89,782.44L378.33,787.68L362.37,785.1L336.35,780.53L331.55,774.71L313.62,773.7L309.43,778.16L298.13,776.46L289.14,775.95L280.84,771.65L279.69,766.32L279.48,759.99L283.85,758.71L295.08,765.26L297.23,759.56L314.33,762.48L322.43,758.5L341.34,756.37L346.37,750.84L343.39,744.12L354.78,738.31L362.29,729.05L367.04,733.13L379.56,733.21L384.57,723.66L392.98,724.32L405.97,729.34L414.1,728.22Z" class="land" id="AT" title="Austria"/>
    <path d="M124.88,886.39L120.44,888.13L119.33,884.04Z" class="land" id="AD" title="Andorra"/>
    <path d="M459.65,449.97L464.7,452.06L455.8,455.83L454.38,451.91Z" class="land" id="AX" title="Aland Islands"/>
    <path d="M494.18,885.28L503.16,893.49L505.32,902.36L503.49,911.32L509.66,926.41L514.94,928.39L516.6,933.27L509.81,947.05L497.04,957.45L493.53,948.93L483.97,942.79L482.21,933.14L484.36,926.28L483.25,913.77L485.5,904.56L480.64,902.49L478.96,894.78L485.82,883.22Z" class="land" id="AL" title="Albania"/>
  </g>
</svg>