<?xml version="1.0" encoding="UTF-8"?>
<svg xmlns="http://www.w3.org/2000/svg" width="375.97" height="484.1" viewBox="292.01 14.95 375.97 484.1" style="background-color:#000000">
  <!-- Created using SVG Map Generator: dojo.amcharts.com/svg-map-generator -->
  <style>
    .land { fill: #ffffff; stroke: #000000; stroke-width: 0.65; }
  </style>
  <g id="polygons">
    <path d="M481.72,352.78L471.54,352.34L469.14,352.08L470.61,348.89L472.78,348.38L474.29,346.35L474.52,346.41L473.08,348.47L475.44,348.8L475.63,346.51L478.96,347.91L480.93,347.94L481.98,349.47ZM585.97,221.44L591.19,225.09L588.65,228.71L584.83,230.11L583.45,224.15ZM584.45,427.89L583.73,429.18L581.62,431.24L579.23,430.7L577.2,428.06L575.92,427.64L572.78,425.95L573.13,424.5L571.6,424.2L569.72,422.98L568.27,423.02L566.08,424.01L565.38,423.03L559.96,420.43L556.62,420.46L552.91,418.73L550.93,418.54L550.24,419.36L545.22,414.57L543.09,413.84L541.77,412.28L540.02,412.07L538.15,408.95L540.96,408.45L540.82,407.39L542.1,404.89L543.1,404.36L542.24,401.34L547.51,398.5L544.3,398.09L543.22,398.59L543.51,395.84L545.95,394.09L549.28,394.15L550.17,391.81L549.08,387.17L550.61,386L549.45,383.73L547.04,381.98L546.02,382.17L543.4,380.77L542.55,381.59L540.07,378.53L535.62,379.35L532.06,377.73L531.67,374.55L527.56,372.85L526.92,370.5L528.03,369.85L525.39,366.2L520.5,366.44L519.61,367.7L517.54,367.78L516.8,366.41L516.16,360.6L519.05,361.29L521.28,359.66L517.65,354.83L516.11,353.88L514.98,350.78L513.7,349.85L514.41,348L514.13,344.37L511.45,342.42L508.46,343.56L508.03,341.76L505.72,341.73L503.15,340.3L502.97,337.41L501.79,335.08L501.75,331.78L499.98,330.22L501.58,327.89L500.52,324.66L500.28,321.13L502.61,315.31L502.61,313.42L506.33,312.59L506.81,309.71L505.15,306.32L501.75,306.93L509.29,298.63L515.64,289.95L516.63,287.19L515.22,284.35L510.74,280.07L512.52,277.07L510.95,273.92L510.81,270.22L508.94,268.31L509.39,262.06L510.9,261.51L510.13,257.52L506.88,248.72L510.29,242.79L507.91,237.36L505.29,236L504.43,232.78L506.4,226.92L513.98,218.3L516.3,219.38L518.42,216.33L522.23,218.66L519.98,221.78L525.19,223.69L533.84,225.02L541.29,230.56L551.84,239.8L554.17,241.05L555.06,250.19L552.4,254L547.5,257.12L543.95,257.78L532.47,254.51L529.72,252.36L520.33,249.28L524.72,255.25L528.03,257.15L529.57,259.73L528.06,264.26L529.64,268.14L529.9,272.12L533,273.8L535.86,277.24L540.15,278.95L542.65,277.03L542.18,274.34L539.12,273.52L536.51,269.45L537.92,266.38L540.49,266.99L542.4,269.15L549.37,271.97L551.45,268.03L549.52,264.7L549.6,262.32L553.08,258.77L556.2,257.2L559.13,253.27L566.64,256.1L568.2,251.75L567.41,247.41L565.38,245.82L567.15,238.07L566.44,232.12L573.78,232.87L576.96,239.62L572.34,240.59L569.99,243.51L574.16,249.92L576.96,250.2L581.02,247.97L581.67,242.4L585.67,240.86L593.48,234.28L600.29,231.65L605.27,227.21L605.93,235.6L608.29,235.11L614.19,231.03L618.51,232.06L622.67,228.38L625.64,227.12L629.54,233.5L633.66,227.31L630.62,220.51L633.99,217.51L643.33,219.54L655.48,227.74L657.82,228.56L661.29,232.96L662.86,245.5L659.98,251.24L654.63,256.73L649.06,261.17L642.21,268.9L634.79,274.68L632.1,303.08L630.2,315.65L627.68,322.77L625.16,327.81L622.09,331.69L621.3,335.14L624.29,337.63L624.73,340.7L622.37,344.5L618.73,345.41L614.35,345.93L617.9,352.01L620.47,355.32L625.78,351.58L628.47,353.11L629.48,355.6L627.59,357.58L625.98,360.71L626.11,364.49L628.78,365.44L630.21,369.14L631.79,370.68L635.37,372.02L636.25,373.37L635.48,375.71L632.48,376.95L629.77,376.1L629.2,377.47L625.5,376.76L623.41,374.43L621.34,374.25L619.76,375.53L618.05,374.42L615.98,374.71L613.22,377.34L612.2,377.34L608.95,374.84L607.74,376.22L606.23,374.1L603.42,371.76L600.37,371.77L599.42,370.49L596.54,371.76L593.3,370.18L591.12,373L588.14,374.3L587.44,375.77L585.39,377.34L584.96,378.89L585.53,381.01L583.9,382.15L581,378.74L579.49,379.39L578.16,382L577.41,384.98L578.25,386.62L577.01,388.4L576.84,390.77L578.21,391.53L578.57,393.54L580.11,394.39L582.61,394.74L584.37,397.24L585.99,400.43L584.6,401.64L586.89,402.9L583.2,406.18L580.28,407.18L579.08,410.45L577.22,412.51L577.21,413.83L579.11,415.1L580.22,418.87L580.04,421.46ZM628.5,219.02L625.78,217.04L623.87,212.67L625.98,210.31L631.51,216.23ZM596.44,190.39L600.57,187.41L605.08,174.04L609.8,172.79L615.73,175.32L614.35,180.92L611.46,185.25L611.23,192.14L614.19,199.6L617.58,204.75L618.58,208.84L608.45,207.74L604.95,206.12L603.53,197.15L597.35,197.78L595.86,194.17ZM665.34,122.13L662.45,128.51L654.95,133.51L635.34,144.25L630.83,152.26L624.11,156.73L623.74,162.18L617.86,173.03L615.73,173.99L610.07,171.81L607.25,173.25L605.11,167.4L608.62,164.64L612.36,154.81L616.01,149.81L618.35,143.17L625.49,135.63L634.14,131.26L634.73,128.56L641.77,129.32L653.28,122.93L659.94,116.05L663.72,117.35ZM627.18,41.33L628.32,36.42L636.3,34.51L638.21,41.35L634.13,46.14ZM586.5,43.81L587.13,36.3L593.33,33.98L596.92,39.62L585.74,47.31L580.71,53.36L576.78,48.96ZM607.55,37.16L608.92,28.83L620.76,37.02L612.88,40.85ZM612.89,26.95L618.37,17.6L623.46,21.74L619.8,28.32Z" class="land" id="RU" title="Russia"/>
    <path d="M369.86,457.02L369.84,457.27L369.77,457.2L369.78,457.11Z" class="land" id="GI" title="Gibraltar"/>
    <path d="M407.92,372.38L406.63,373.52L404.43,372.43ZM407.92,372.38L405.37,371.95L408.94,366.43L410.08,362.29L411.1,362.23L411.48,365.92L413.23,364.57L412.49,361.26L415.23,359.19L418.23,358.96L419.75,360.02L419.1,365.97L417.93,369.01L414.77,369.97L415.75,371.72L414.56,374.93L414.95,376.41L414.17,376.38L413.76,376.25L414.29,374.04L413.02,373.09L409.02,371.81Z" class="land" id="NL" title="Netherlands"/>
    <path d="M440.61,427.6L440.58,427.6L440.58,427.56L440.61,427.55Z" class="land" id="VA" title="Vatican City"/>
    <path d="M543.22,398.59L540.55,398.69L539.74,399.61L535.52,401.11L533.71,401.31L529.82,403.81L530.52,406.61L532.64,408.83L535.08,408.02L536.69,408.36L535.97,410.22L533.89,410.55L532.31,410.03L530.77,411.69L529.3,411.67L526.08,414.01L524.26,413.09L524.67,410.03L522.14,408.62L520.5,408.3L525.11,405.21L523.27,403.9L520.38,404.42L518.62,403.41L518.38,400.82L513.69,401.72L512.55,404.3L511.39,405.67L508.94,406.72L509.35,409.12L507.43,408.31L505.58,409.26L503.4,408.04L506.33,404.62L506.25,402.46L507.12,401.87L509.87,402.89L510.03,400.12L508.82,399.33L508.73,397.68L507.18,396.45L507.31,393.93L505.64,392.52L503.86,392.27L500.76,390.37L497.06,391.68L495.24,393.27L492.46,393.76L490.19,394.9L488.94,393.64L487.34,393.79L483.46,392.73L482.16,393.54L479.2,390.81L480.82,386.78L481.26,383.93L485.49,378.74L486.53,378.54L487.06,375.81L485.06,371.54L488.07,369.29L494.3,368.99L499.14,370.04L499.65,370.93L504.94,371.38L507.08,370.9L507.92,372.4L512.64,371.04L514.42,368.14L517.54,367.78L519.61,367.7L520.5,366.44L525.39,366.2L528.03,369.85L526.92,370.5L527.56,372.85L531.67,374.55L532.06,377.73L535.62,379.35L540.07,378.53L542.55,381.59L543.4,380.77L546.02,382.17L547.04,381.98L549.45,383.73L550.61,386L549.08,387.17L550.17,391.81L549.28,394.15L545.95,394.09L543.51,395.84Z" class="land" id="UA" title="Ukraine"/>
    <path d="M556.34,429.63L560.14,430.04L561.43,429.38L564.02,431.8L565.15,433.84L564.54,435.09L565.42,437.24L567.4,437.39L569.31,439.14L569.5,439.42L567.8,440.59L566.34,440.82L567.97,446.04L567.09,448.31L568.49,449.14L568.53,450.69L569.41,451.42L567.37,452.98L567.08,451.85L564.32,451.65L561.37,451.01L560.1,452.23L559.36,451.49L556.36,452.42L553.14,452.38L550.39,453.73L547.77,454.45L545.42,454.39L543.13,453.36L540.12,454.64L537.02,453.85L536.54,455.56L534.91,458.65L533.65,456.29L535.15,454.56L534.6,453.31L532.56,454.87L528.84,453.94L526.54,456.14L525.23,456.93L521.64,457.64L519.98,456.92L518.57,455.18L515.9,453.86L513.08,453.54L512.45,456.29L509.28,457.05L507.11,455.86L506.69,454.39L504.48,453.85L503.09,452.72L499.97,452.77L500.65,451.62L499.45,450.92L498.89,449.42L499.5,447.96L497.31,446.85L498.02,445.96L497.64,444.25L498.63,443.34L497.31,441.26L497.89,439.87L495.05,440.36L495.32,437.66L497.53,435.52L499.71,435.23L500.47,435.94L503.71,435.5L505.69,434.82L507.99,433.37L506.72,432.33L507.82,431.17L510.2,431.57L511.89,431.33L513.74,431.92L515.51,431.8L516.32,430.68L519.7,428.5L523.98,426.96L529.43,427.28L530.45,426.71L531.61,428.5L534.61,428.75L535.12,430.11L536.43,430.98L537.5,430.45L538.65,431.39L543.88,432.77L548.04,431.81L551.38,432.57L554.15,431.25ZM502.61,427.22L503.94,429.9L506.77,431.16L505.66,432.51L503.24,431.94L500.57,432.51L499.6,434.01L495.01,434.41L494.75,433.81L495.91,432.61L495.91,431.11L497.08,430.24L495.87,428.57L497.05,427.24L499.75,426.63L500.71,427.48Z" class="land" id="TR" title="Türkiye"/>
    <path d="M487.26,260.31L483.06,260.99L476.94,264.14L476.98,266.83L475.24,269.81L476.54,273.79L473.75,278.46L466.87,284.09L464.59,287.09L462.33,287.67L460.43,297L459.29,298.38L459.77,305.59L462.57,306.5L464.97,309.21L466.61,313.16L462.26,316.98L463.89,318.23L460.59,320.17L457.38,323.42L457.85,325.08L457,328.1L456.89,333.61L454.77,339.73L449.94,340.17L447.68,342.51L448.19,344.66L444.12,345.93L442.39,345.48L442.76,343.49L441.22,340.34L442.38,336.89L440.54,334.79L436.67,325.81L435.47,319.17L436.43,318.8L438.06,316.83L437.59,314.46L440.8,310.38L441.21,307.62L440.04,303.13L442.37,300.24L439.48,297.16L440.07,292.37L439.32,289.74L439.73,286.18L438.86,283.61L441.5,277.8L444.04,276.58L446.67,277.13L447.13,273.01L445.43,271.92L448.74,265.16L448.99,257.14L452.73,255.4L452.49,253.57L456.39,247.87L455.3,244.05L460.06,236.92L462.42,238.4L464.26,231.97L470.59,234.21L473.19,226.75L478.66,232.43L481.79,233.83L485.2,238.51L484.52,243.8L486.59,250.35L485.44,253.66ZM467.04,327.93L465.99,328.9L465.54,332.33L463.89,333.5L463.29,330.01L464.89,327.97Z" class="land" id="SE" title="Sweden"/>
    <path d="M456.84,402.03L453.34,403.75L453.29,405.86L451.91,406.43L452.16,407.94L449.75,407.71L446.34,408.16L445.15,407.66L445.71,407.26L444.44,403.08L445.63,401.91L448.83,402.51L450.81,401.3L454.62,401L455.16,399.92Z" class="land" id="SI" title="Slovenia"/>
    <path d="M480.82,386.78L479.2,390.81L477.75,391.21L476.49,389.93L472.66,390.08L472.04,391.47L470.31,392.45L465.9,393.23L465.63,394.49L461.8,394.59L459.36,393.19L458.22,390.59L458.58,389.64L459.52,388.06L461.79,387.9L463.39,385.65L466.06,384.11L468.49,383.57L469.92,386.05L473.16,384.83L477.24,384.71Z" class="land" id="SK" title="Slovakia"/>
    <path d="M471.67,404.28L473.8,406.33L473.79,407.85L476.65,409.89L476.22,411.31L479.04,413.15L480.67,413.45L481.48,414.85L480.35,416.12L480.88,419.17L482.56,420.63L480.53,422.51L480.76,424.68L480.04,425.37L476.93,425.73L477.69,423.45L476.25,423L474.92,421.15L473.2,421.47L472.08,422.59L468.93,420.5L467.5,418.74L468.67,417.8L467.33,414.49L468.15,411.38L466.76,411.32L466.95,407.6L466.35,405.3L468.84,404.01Z" class="land" id="RS" title="Serbia"/>
    <path d="M440.8,416.71L440.44,416.53L440.62,416.26L440.91,416.43Z" class="land" id="SM" title="San Marino"/>
    <path d="M503.4,408.04L505.58,409.26L507.43,408.31L509.35,409.12L508.76,411.46L506.73,411.95L505.13,414.53L504.89,417.59L502.76,417.15L502.1,416.24L498.92,415.24L495.46,416.13L492.59,417.98L483.55,416.86L481.48,414.85L480.67,413.45L479.04,413.15L476.22,411.31L476.65,409.89L473.79,407.85L473.8,406.33L471.67,404.28L475.3,403.16L479.83,394.84L482.16,393.54L483.46,392.73L487.34,393.79L488.94,393.64L490.19,394.9L492.46,393.76L495.24,393.27L497.06,391.68L498.5,392.3L499.92,395.37L502.84,399.25L503.53,402.31L502.95,405.06Z" class="land" id="RO" title="Romania"/>
    <path d="M361.61,451.97L359.91,452.84L356.87,452.26L356.01,450.71L355.61,445.25L353.38,444.14L353.86,441.49L355.91,437L356.64,432.21L356.02,428.91L356.15,427.37L358.4,426.34L359.56,427.68L361.62,427.94L364.75,427.36L365.05,428.8L366.36,429.55L363.51,432.32L363.98,435.82L363.17,436.52L363.08,439.09L361.46,440L363.04,443.24L361.86,445.53L362.49,447.82L361.22,449.94Z" class="land" id="PT" title="Portugal"/>
    <path d="M469.14,352.08L471.54,352.34L481.72,352.78L484.46,354.23L484.58,355.61L486.19,361.72L486.02,364.11L483.44,366.77L485.03,367.77L485.06,371.54L487.06,375.81L486.53,378.54L485.49,378.74L481.26,383.93L480.82,386.78L477.24,384.71L473.16,384.83L469.92,386.05L468.49,383.57L466.06,384.11L464.99,381.84L462.25,381.26L459.37,378.74L457.49,380.49L454.82,377.28L452.22,376.02L450.05,375.72L450.87,373.23L449.22,369.52L449.82,367.91L449.29,365L447.34,362.7L448.48,360.02L447.86,357.03L447.68,356.08L447.67,355.54L455.53,353.23L457.02,351.43L459.81,350.22L464.04,349.47L465.42,352.27L466.64,352.83Z" class="land" id="PL" title="Poland"/>
    <path d="M474.29,50.14L480.47,46.54L498.02,52.24L499.37,58.07L493.17,69.24L486.43,73.71L474.14,69.35L465.64,61.36L464.12,54.57ZM457.92,58.07L465.06,65.56L467.09,74.5L472.54,75.09L476.24,83.15L469.79,85.54L464.5,97.3L463.66,106.75L461.25,109.01L457.58,123.51L448.28,112L446.84,108.17L450.49,103.66L445.55,97.25L450.79,94.87L449.37,89.7L443.44,93.19L437.96,83.65L435.71,75.08L434.35,60.56L441.86,61.02L444.37,67.55L454.06,63.12ZM477.11,86.09L483.12,97.95L487.58,99.72L486,107.21L481.87,111.25L478.9,107.14L477.11,99.38L471.62,88.45Z" class="land" id="SJ" title="Svalbard and Jan Mayen"/>
    <path d="M467.75,215.02L469.09,216.14L465.87,220.64L464.14,218.48ZM460.77,220.45L462.55,224.95L458.66,225.62ZM513.98,218.3L506.4,226.92L507.87,221.85L507.1,219.58L502.12,215.07L496.69,216.78L494.64,219.8L493.59,227.27L490.38,231.64L486.05,229.31L483.94,231.03L480.31,230.25L477.17,224.13L473.19,226.75L470.59,234.21L464.26,231.97L462.42,238.4L460.06,236.92L455.3,244.05L456.39,247.87L452.49,253.57L452.73,255.4L448.99,257.14L448.74,265.16L445.43,271.92L447.13,273.01L446.67,277.13L444.04,276.58L441.5,277.8L438.86,283.61L439.73,286.18L439.32,289.74L440.07,292.37L439.48,297.16L442.37,300.24L440.04,303.13L441.21,307.62L440.8,310.38L437.59,314.46L438.06,316.83L436.43,318.8L434.23,317.65L429.38,319.49L423.6,325.6L418.98,326.52L413.81,322.74L413.06,321.18L414.4,319.39L414.36,316.33L411.52,317.32L412.21,314.06L411.47,312.56L411.97,306.66L411.19,305.54L410.71,297.25L413.12,292.16L416.39,289.57L420.09,289.65L418.99,286.56L423.34,285.39L424.53,281.45L429.7,280.65L429.74,278.48L433.15,273.43L435.78,271.01L436.28,268.9L439.5,266.32L439.95,262.6L442.75,258.22L443.26,253.08L449.83,243.29L450.01,240.04L452.07,237.29L455.04,235.89L457.38,231.28L460.32,229.38L463.15,225.42L463.92,221.82L466.69,220.84L467.52,218.71L470.99,217.14L475.34,217.07L476.29,213.75L481.4,211.39L482.84,214.6L488.31,207.48L489.25,203.85L493.67,205.65L500.95,202.74L506.95,205.56L514.28,212.57L508.93,216.06L509.69,218.94Z" class="land" id="NO" title="Norway"/>
    <path d="M467.5,418.74L468.93,420.5L472.08,422.59L470.97,424.11L469.34,423.67L467.85,426.13L468.09,427.75L466.31,425.72L464.81,424.73L464.49,424.04L464.52,421.82L466.49,418.94Z" class="land" id="ME" title="Montenegro"/>
    <path d="M449.08,458.54L448.56,458.7L448.23,458.45L448.61,458.03Z" class="land" id="MT" title="Malta"/>
    <path d="M480.04,425.37L482,427.09L482.68,428.57L482.32,430.59L480.64,431.74L478.39,431.8L476.98,433.06L474.55,433.16L473.53,432.75L472.5,429.61L472.96,427.73L474.93,426.13L476.93,425.73Z" class="land" id="MK" title="North Macedonia"/>
    <path d="M503.4,408.04L502.95,405.06L503.53,402.31L502.84,399.25L499.92,395.37L498.5,392.3L497.06,391.68L500.76,390.37L503.86,392.27L505.64,392.52L507.31,393.93L507.18,396.45L508.73,397.68L508.82,399.33L510.03,400.12L509.87,402.89L507.12,401.87L506.25,402.46L506.33,404.62Z" class="land" id="MD" title="Moldova"/>
    <path d="M420.71,417.54L420.47,417.65L420.61,417.43Z" class="land" id="MC" title="Monaco"/>
    <path d="M499.98,330.22L501.75,331.78L501.79,335.08L502.97,337.41L503.15,340.3L500.87,342.75L498.79,342.52L496.96,343.68L490.23,338.47L487.11,339.43L485.89,338.97L479.01,338.41L474.88,340.82L474.97,335.39L476.09,333.98L477.59,329.9L480.88,328.76L485.23,334.32L488.24,331.72L487.92,327.67L491.06,326.22L494.56,327.91L496.72,330.2Z" class="land" id="LV" title="Latvia"/>
    <path d="M415.44,380.34L416.92,382.34L416.35,384.46L414.14,383.94L413.96,381.59Z" class="land" id="LU" title="Luxembourg"/>
    <path d="M496.96,343.68L495.29,348.33L494.04,348.91L492.79,352.95L489.69,355.38L484.58,355.61L484.46,354.23L481.72,352.78L481.98,349.47L480.93,347.94L478.96,347.91L475.63,346.51L474.88,340.82L479.01,338.41L485.89,338.97L487.11,339.43L490.23,338.47Z" class="land" id="LT" title="Lithuania"/>
    <path d="M429.23,398.79L428.86,398.76L429.02,397.54Z" class="land" id="LI" title="Liechtenstein"/>
    <path d="M476.93,425.73L474.93,426.13L472.96,427.73L472.64,425.86L470.97,424.11L472.08,422.59L473.2,421.47L474.92,421.15L476.25,423L477.69,423.45Z" class="land" id="XK" title="Kosovo"/>
    <path d="M383.06,385.81L382.19,386.15L382.26,385.6Z" class="land" id="JE" title="Jersey"/>
    <path d="M453.1,446.74L451.2,450.58L451.98,452.8L451.26,454.42L448.82,453.87L447.4,452.35L446.45,452.37L440.6,448.76L444.25,446.94L445.56,447.84L448.84,447.62L450.19,446.98ZM429.44,432.99L430.13,435L429.16,441.91L427.15,441.53L426.45,443.21L424.61,441.71L424.82,436.08L423.7,434.2L428.05,431.3ZM445.63,401.91L444.44,403.08L445.71,407.26L443.67,406.21L442.97,406.97L439.96,408.06L439.76,409.22L440.95,410.77L439.85,412.14L440.44,414.93L441.62,416.2L445.09,418.53L446.87,423.34L450.27,426.77L451.48,427.41L454.64,427.38L454.84,430.06L459.18,432.04L462.57,434.18L464.68,437.06L463.06,437.93L462.21,436.14L458.48,435.22L456.9,438.33L457.17,439.48L459.22,440.81L459.46,442.77L457.01,444.22L456.96,445.78L455.01,448.14L453.69,448.16L454.68,444.23L455.57,444L454.88,440.95L453.57,437.66L450.61,436.36L449.87,434.12L448.65,434.3L447.23,433.28L445.76,431.12L443.2,431.08L441.38,429.88L437.42,425.51L435.55,424.17L433.72,422L431.09,416.05L428.07,414.4L425.99,413.82L423.27,416.62L420.92,417.45L421.66,415.71L418.83,414.61L419.08,412.18L417.48,409.92L419.57,408.32L418.18,405.96L419.04,405.33L422.91,404.81L424.77,403.49L426.74,405.88L427.92,403.26L430.66,402.83L432.71,399.91L434.98,400.3L435.86,399.26L439.48,399.5L440.41,400.85ZM440.8,416.71L440.91,416.43L440.62,416.26L440.44,416.53Z" class="land" id="IT" title="Italy"/>
    <path d="M329.22,256.17L332.58,258.21L332.35,260.79L336.89,263.38L335.95,269.31L331.3,274.56L327.16,276.25L324.85,278.48L320.17,279.85L316.84,282.59L310.69,281.26L306.52,277.85L301.1,278.74L304.18,275.39L303.71,272.54L300.79,267.77L303.49,263.32L299.92,262.48L295.95,264.15L294.66,263.38L296.6,257.73L301.82,254.17L306.29,259.62L305.78,263.51L307.5,263.79L310.06,261.15L310.06,258.09L316.34,256.76L324.42,257.12L325.25,254L327.46,253.33Z" class="land" id="IS" title="Iceland"/>
    <path d="M366.34,354.6L367.1,362.38L364.98,367.21L361.13,367.8L360.58,368.57L356.01,371.11L354.09,371.66L352.96,370.44L349.78,369.28L351.46,367.55L352.93,364.8L354.08,361.25L352.1,359.27L351.3,353.33L356.77,352.85L356.21,350.55L358.15,347.33L362.25,345.89L362.36,347.71L358.78,352.39L361.81,354.38L363.48,352.66L364.62,354.81Z" class="land" id="IE" title="Ireland"/>
    <path d="M373.53,353.95L372.2,354.4L373.15,352.64Z" class="land" id="IM" title="Isle of Man"/>
    <path d="M479.2,390.81L482.16,393.54L479.83,394.84L475.3,403.16L471.67,404.28L468.84,404.01L466.35,405.3L464.49,406.24L462.61,406.22L460,404.93L456.84,402.03L455.16,399.92L456.59,399.08L456.52,396.97L457.76,395.09L459.03,394.96L459.36,393.19L461.8,394.59L465.63,394.49L465.9,393.23L470.31,392.45L472.04,391.47L472.66,390.08L476.49,389.93L477.75,391.21Z" class="land" id="HU" title="Hungary"/>
    <path d="M461.43,422.21L464.49,424.04L464.81,424.73ZM466.35,405.3L466.95,407.6L466.76,411.32L465.39,410.15L462,410.14L456.9,409.36L455.96,410.54L453.94,409.57L453.74,411.9L455.31,413.53L455.64,414.97L461.26,421.42L461.1,421.99L458.38,419.51L454.56,418.06L451.3,414.74L451.88,414.04L450.39,412.23L450.23,410.13L448.36,408.65L446.69,411.51L445.35,409.98L445.15,407.66L446.34,408.16L449.75,407.71L452.16,407.94L451.91,406.43L453.29,405.86L453.34,403.75L456.84,402.03L460,404.93L462.61,406.22L464.49,406.24Z" class="land" id="HR" title="Croatia"/>
    <path d="M486.05,460.1L487.3,459.81L487.88,460.94L489.51,460.64L492.51,461.22L493.58,462.02L489.82,463.03L488.48,461.93L484.89,461.27ZM484.31,442.98L487.03,444.44L485.68,445.82L483.66,443.78ZM496.23,441.07L496.46,442.9L494.22,442.05ZM494.75,433.81L494.02,433.19L491.03,432.4L489.79,433.12L488.53,432.64L486.15,434.76L485.3,436.44L483.9,436.48L481.18,435.02L481.03,437.41L482.33,439.53L482.52,442.61L481.75,443.78L483.66,444.49L486.5,446.46L486.85,449.31L484.97,447.8L483.43,448.06L483.3,451.2L481.72,450.9L482.95,453.99L481.09,453.96L478.99,452.72L478.24,454.18L477.01,452.46L476.97,450.16L475.27,448.26L476.3,446.86L477.98,446.19L481.86,447.94L483.14,447.48L480.35,445.63L476.57,446.22L475.14,445.9L473.8,443.75L473.81,442.72L471.91,441.08L470.72,439.11L473.33,436.99L474.82,434.17L474.55,433.16L476.98,433.06L478.39,431.8L480.64,431.74L482.32,430.59L485.18,430.32L486.86,429.58L491.62,431.08L495.14,430.33L495.87,428.57L497.08,430.24L495.91,431.11L495.91,432.61Z" class="land" id="GR" title="Greece"/>
    <path d="M381.09,384.21L380.95,384.61L380.56,384.37Z" class="land" id="GG" title="Guernsey"/>
    <path d="M575.92,427.64L574.94,428.88L576.68,430.55L576.03,432L571.35,429.99L570.24,430.83L564.02,431.8L561.43,429.38L560.14,430.04L556.34,429.63L557.35,427.21L556.25,423.5L553.66,421.31L552.41,420.99L550.24,419.36L550.93,418.54L552.91,418.73L556.62,420.46L559.96,420.43L565.38,423.03L566.08,424.01L568.27,423.02L569.72,422.98L571.6,424.2L573.13,424.5L572.78,425.95Z" class="land" id="GE" title="Georgia"/>
    <path d="M428.83,422.71L429.11,426.36L427.66,430.33L426.16,429.25L425.78,424.1ZM414.14,383.94L416.35,384.46L417.91,386.25L420.76,386.3L423.48,387.38L422.29,389.42L421.29,392.85L421.41,395.64L418.96,397.23L415.22,402.44L418,402.51L419.04,405.33L418.18,405.96L419.57,408.32L417.48,409.92L419.08,412.18L418.83,414.61L421.66,415.71L420.92,417.45L420.71,417.54L420.61,417.43L420.47,417.65L416.95,420.73L415.44,421.26L412.62,420.41L411.24,419.23L409.85,419.62L407.23,418.41L404.07,420.6L403.24,422.11L403.88,424.74L399.19,425.15L397.89,424.35L396.78,423.85L393.87,422.5L393.61,423.34L390.93,423.34L389.9,422.61L385.98,421.33L383.95,419.43L385.18,418.57L386.14,413.05L386.85,406.01L386.53,403.11L383.98,401.94L382.9,400.23L383.06,398.9L378.52,395.04L375.57,394.19L373.93,394.28L372.67,392.72L373.61,391.03L372.3,390L378.23,388.19L380.38,390.02L381.36,389.35L385.37,389.39L384.79,385.99L383.7,383.04L386.08,383.06L386.56,384.86L390.44,385.41L392.2,384.4L391.84,382.92L396.05,381.1L397.27,379.27L397.38,376.48L398.71,374.89L401.15,374.22L402.4,376.65L407.71,379.56L407.72,381.34L409.63,381.07L410.47,382.4L413.02,384.11Z" class="land" id="FR" title="France"/>
    <path d="M364.7,292.87L363.18,294.01L362.54,292.37Z" class="land" id="FO" title="Faroe Islands"/>
    <path d="M506.4,226.92L504.43,232.78L505.29,236L507.91,237.36L510.29,242.79L506.88,248.72L510.13,257.52L510.9,261.51L509.39,262.06L508.94,268.31L510.81,270.22L510.95,273.92L512.52,277.07L510.74,280.07L515.22,284.35L516.63,287.19L515.64,289.95L509.29,298.63L501.75,306.93L499.54,306.91L493.23,308.57L491.23,309.68L485.53,311.51L481.83,310.62L480.97,308.36L476.43,306.44L476.13,303.42L477.1,298.25L475.71,294.89L476.1,292.9L475.1,289.47L479.64,282.31L483.64,278.2L487.74,272.54L488.86,269.88L492.1,267.92L492,263.46L487.26,260.31L485.44,253.66L486.59,250.35L484.52,243.8L485.2,238.51L481.79,233.83L478.66,232.43L473.19,226.75L477.17,224.13L480.31,230.25L483.94,231.03L486.05,229.31L490.38,231.64L493.59,227.27L494.64,219.8L496.69,216.78L502.12,215.07L507.1,219.58L507.87,221.85Z" class="land" id="FI" title="Finland"/>
    <path d="M502.61,315.31L500.28,321.13L500.52,324.66L501.58,327.89L499.98,330.22L496.72,330.2L494.56,327.91L491.06,326.22L487.92,327.67L488.74,324.02L485.71,323.97L484.68,321.7L484.62,317.56L488.15,315.4L492.38,315.02L492.64,314.09L498.48,315.57ZM481.13,321.99L483.82,323.04L479.28,325.83L479,323.08Z" class="land" id="EE" title="Estonia"/>
    <path d="M329.79,494.76L329.83,495.99L328.56,496.4L328.66,494.73ZM326.07,493.71L324.78,495.4L323.8,493.89ZM334.58,494.66L335.35,492.23L336.05,492.78L335.65,494.28ZM403.62,438.69L404.88,439.17L403.33,441.22L400.53,439.61L402.18,438.36ZM383.95,419.43L385.98,421.33L389.9,422.61L390.93,423.34L393.61,423.34L393.87,422.5L396.78,423.85L397.01,424.72L397.89,424.35L399.19,425.15L403.88,424.74L404.02,427.35L399.39,430.85L395.21,432.04L393.94,433.3L392.54,435.94L389.79,440.09L390.28,442.44L391.9,444L389.58,445.64L388.52,447.08L387.82,449.96L385.81,450.06L383.94,451.71L382.69,453.98L380,454.29L378.12,454.08L373.71,454.27L372.49,455.32L370.51,455.73L368.7,457.69L367.05,456.89L365.25,453.09L363.69,451.9L361.61,451.97L361.22,449.94L362.49,447.82L361.86,445.53L363.04,443.24L361.46,440L363.08,439.09L363.17,436.52L363.98,435.82L363.51,432.32L366.36,429.55L365.05,428.8L364.75,427.36L361.62,427.94L359.56,427.68L358.4,426.34L356.15,427.37L356.5,425.58L354.33,421.78L355.77,419.83L357.11,419.82L358.23,418.48L360.45,417.47L362.19,418.4L368.54,418.47L373.09,419.38L376.75,418.82L378.97,419.63L381.79,419.86Z" class="land" id="ES" title="Spain"/>
    <path d="M366.34,354.6L364.62,354.81L363.48,352.66L361.81,354.38L358.78,352.39L362.36,347.71L366.69,346.84L369.32,351.8L368.78,353.35ZM378.72,322.8L378.31,324.27L375.21,327L375.7,329.68L377.55,328.88L382.84,328.92L384.02,330.47L380.53,339.04L378.44,340.75L382.55,342.01L384.5,344.36L385.95,349.91L388.42,351.77L390.28,355.06L393.32,362.12L395.3,362.17L397.69,363.52L398.05,365.39L397.3,367.87L394.9,369.68L393.83,372.38L396.73,372.52L394.92,375.3L391.91,376.33L385.06,376.42L380.95,377.25L379.15,376.62L377.54,377.15L375.99,379.67L374.48,378.66L369.83,379.56L372.85,376.24L374.42,373.64L378.61,373.53L373.63,370.11L371.58,370.84L370.84,368.46L373.65,367.16L375.25,364.91L374.73,360.45L378.89,359.06L379.45,357.01L378.49,354.34L376.89,352.02L377.42,348.6L375.34,349.87L370.65,349.34L372.3,345.41L370.21,341.82L368.76,340.93L369.63,337.63L367.46,336.97L368.95,332.4L367.93,330.9L369.84,324.9L372.32,322.84L378.94,321.89Z" class="land" id="GB" title="United Kingdom"/>
    <path d="M433.47,344.08L434.03,347.42L430.86,347.22L430.35,344.75ZM441.13,342.85L439.72,345.09L439.06,349.63L437.49,347.05L436.02,346.93L434.8,343.3L439.74,340.47ZM429.87,349.56L425.61,349.02L425.39,345.43L423.47,344.15L423.59,336.97L425.4,333.29L429.13,332.4L430.75,329.83L433.04,330.81L432.08,334.11L432.03,336.87L434.27,337.58L434.31,339.21L432.17,339.8L431.63,342.28L429.28,344.91Z" class="land" id="DK" title="Denmark"/>
    <path d="M429.87,349.56L432.34,352.22L436.47,355.58L439.31,354.06L441.16,352.02L442.96,352.41L446.29,356.2L447.86,357.03L448.48,360.02L447.34,362.7L449.29,365L449.82,367.91L449.22,369.52L450.87,373.23L450.05,375.72L448.3,375.47L440.67,378.92L439.97,379.97L440.42,382.7L441.38,384.41L446.09,388.63L444.48,390.87L442.11,392.27L442.66,393.88L441.6,395.19L437.74,395.69L436.07,396.63L432.62,395.95L432.15,397.29L429.9,395.74L429.01,396.05L425.4,394.62L423.73,395.56L421.41,395.64L421.29,392.85L422.29,389.42L423.48,387.38L420.76,386.3L417.91,386.25L416.35,384.46L416.92,382.34L415.44,380.34L416.43,379.13L414.95,376.41L414.56,374.93L415.75,371.72L414.77,369.97L417.93,369.01L419.1,365.97L419.75,360.02L420.1,357.35L422.98,357.29L425.09,358.19L426.52,356.32L426.75,351.54L425.61,349.02Z" class="land" id="DE" title="Germany"/>
    <path d="M450.05,375.72L452.22,376.02L454.82,377.28L457.49,380.49L459.37,378.74L462.25,381.26L464.99,381.84L466.06,384.11L463.39,385.65L461.79,387.9L459.52,388.06L458.58,389.64L456.69,388.43L455.02,388.7L452.41,387.48L450.7,387.32L449.58,389.64L447.02,389.62L446.09,388.63L441.38,384.41L440.42,382.7L439.97,379.97L440.67,378.92L448.3,375.47Z" class="land" id="CZ" title="Czechia"/>
    <path d="M528.29,459.81L526.21,461.29L526.64,462.77L522.23,464.77L520.27,464.02L519.74,462.94L522.23,460.81L524.29,461.07Z" class="land" id="CY" title="Cyprus"/>
    <path d="M429.01,396.05L429.02,397.54L428.86,398.76L429.23,398.79L430.89,399.79L432.71,399.91L430.66,402.83L427.92,403.26L426.74,405.88L424.77,403.49L422.91,404.81L419.04,405.33L418,402.51L415.22,402.44L418.96,397.23L421.41,395.64L423.73,395.56L425.4,394.62Z" class="land" id="CH" title="Switzerland"/>
    <path d="M413.76,376.25L414.17,376.38L414.95,376.41L416.43,379.13L415.44,380.34L413.96,381.59L414.14,383.94L413.02,384.11L410.47,382.4L409.63,381.07L407.72,381.34L407.71,379.56L402.4,376.65L401.15,374.22L404.43,372.43L406.63,373.52L407.92,372.38L409.02,371.81L413.02,373.09L414.29,374.04Z" class="land" id="BE" title="Belgium"/>
    <path d="M503.15,340.3L505.72,341.73L508.03,341.76L508.46,343.56L511.45,342.42L514.13,344.37L514.41,348L513.7,349.85L514.98,350.78L516.11,353.88L517.65,354.83L521.28,359.66L519.05,361.29L516.16,360.6L516.8,366.41L517.54,367.78L514.42,368.14L512.64,371.04L507.92,372.4L507.08,370.9L504.94,371.38L499.65,370.93L499.14,370.04L494.3,368.99L488.07,369.29L485.06,371.54L485.03,367.77L483.44,366.77L486.02,364.11L486.19,361.72L484.58,355.61L489.69,355.38L492.79,352.95L494.04,348.91L495.29,348.33L496.96,343.68L498.79,342.52L500.87,342.75Z" class="land" id="BY" title="Belarus"/>
    <path d="M466.76,411.32L468.15,411.38L467.33,414.49L468.67,417.8L467.5,418.74L466.49,418.94L464.52,421.82L464.49,424.04L461.43,422.21L461.1,421.99L461.26,421.42L455.64,414.97L455.31,413.53L453.74,411.9L453.94,409.57L455.96,410.54L456.9,409.36L462,410.14L465.39,410.15Z" class="land" id="BA" title="Bosnia and Herzegovina"/>
    <path d="M504.89,417.59L504.41,419.53L502.28,420.64L502.12,423.01L500.51,424.54L502.61,427.22L500.71,427.48L499.75,426.63L497.05,427.24L495.87,428.57L495.14,430.33L491.62,431.08L486.86,429.58L485.18,430.32L482.32,430.59L482.68,428.57L482,427.09L480.04,425.37L480.76,424.68L480.53,422.51L482.56,420.63L480.88,419.17L480.35,416.12L481.48,414.85L483.55,416.86L492.59,417.98L495.46,416.13L498.92,415.24L502.1,416.24L502.76,417.15Z" class="land" id="BG" title="Bulgaria"/>
    <path d="M574.67,443.39L572.14,442.73L569.5,439.42L569.31,439.14L570.36,438.82L573.28,440.82ZM584.45,427.89L586.58,430.77L587.06,432.23L589.24,434.56L591.36,435.45L588.35,436.59L587.45,439.63L587.6,440.97L586.21,442.07L585.56,443.71L585.63,445.64L584.53,445.77L582.27,443.69L583.14,442.87L582.16,439.24L581.27,439.43L576.17,443.24L576.4,441.73L575.02,439.71L573.38,438.22L574.07,436.39L571.73,434.27L572.57,433.18L570.24,430.83L571.35,429.99L576.03,432L576.68,430.55L574.94,428.88L575.92,427.64L577.2,428.06L579.23,430.7L581.62,431.24L583.73,429.18Z" class="land" id="AZ" title="Azerbaijan"/>
    <path d="M458.58,389.64L458.22,390.59L459.36,393.19L459.03,394.96L457.76,395.09L456.52,396.97L456.59,399.08L455.16,399.92L454.62,401L450.81,401.3L448.83,402.51L445.63,401.91L440.41,400.85L439.48,399.5L435.86,399.26L434.98,400.3L432.71,399.91L430.89,399.79L429.23,398.79L429.02,397.54L429.01,396.05L429.9,395.74L432.15,397.29L432.62,395.95L436.07,396.63L437.74,395.69L441.6,395.19L442.66,393.88L442.11,392.27L444.48,390.87L446.09,388.63L447.02,389.62L449.58,389.64L450.7,387.32L452.41,387.48L455.02,388.7L456.69,388.43Z" class="land" id="AT" title="Austria"/>
    <path d="M576.17,443.24L574.67,443.39L573.28,440.82L570.36,438.82L569.31,439.14L567.4,437.39L565.42,437.24L564.54,435.09L565.15,433.84L564.02,431.8L570.24,430.83L572.57,433.18L571.73,434.27L574.07,436.39L573.38,438.22L575.02,439.71L576.4,441.73Z" class="land" id="AM" title="Armenia"/>
    <path d="M397.89,424.35L397.01,424.72L396.78,423.85Z" class="land" id="AD" title="Andorra"/>
    <path d="M470.67,308.42L471.74,309.15L469.7,310.44L469.47,309.09Z" class="land" id="AX" title="Aland Islands"/>
    <path d="M470.97,424.11L472.64,425.86L472.96,427.73L472.5,429.61L473.53,432.75L474.55,433.16L474.82,434.17L473.33,436.99L470.72,439.11L470.12,437.38L468.31,436.12L468.07,434.14L468.57,432.72L468.48,430.12L469.03,428.19L468.09,427.75L467.85,426.13L469.34,423.67Z" class="land" id="AL" title="Albania"/>
  </g>
</svg>