<?xml version="1.0" encoding="UTF-8"?>
<svg xmlns="http://www.w3.org/2000/svg" width="430.12" height="399.63" viewBox="264.94 57.19 430.12 399.63" style="background-color:#000000">
  <!-- Created using SVG Map Generator: dojo.amcharts.com/svg-map-generator -->
  <style>
    .land { fill: #ffffff; stroke: #000000; stroke-width: 0.65; }
  </style>
  <g id="polygons">
    <path d="M451.08,71.85L447.95,70.02L447.74,68.08L449.52,66.38L451.05,70.25ZM455.93,72.92L451.08,69.75L449.73,65.61L453.28,67.07L455.31,66.19L456.4,66.67L459.19,64.94L460.73,65.56L461.96,67.89L459.3,70.7ZM518.01,96.91L517.81,98.19L512.47,97.31L513.3,93.25L516.96,93.42L515.9,95.8L516.21,97.05ZM529.4,122.62L529.4,228.52L458.8,228.53L444.89,228.52L435.56,228.59L435.49,130.38L435.49,110.08L435.49,104.37L437.77,104.26L441.9,105.19L442.54,103.24L441.13,100.91L439.23,99.44L440.63,96.51L443.14,94.93L444.14,89.8L446.36,89.72L448.69,87.74L447.14,85.84L447.23,83.94L449.35,83.12L449.63,80.75L451.93,79.66L452.49,77.68L454.44,78.32L456.64,77.39L456.61,75.16L459.95,75.95L461.5,76.74L466.08,76.43L467.45,76.87L469.13,75.7L470.56,75.73L473.46,74.41L473.42,70.85L474.01,69.92L471.91,67.99L470.68,67.58L467.7,68.5L465.39,66.21L466.63,64.27L470.35,64.3L472.05,65.73L473.81,68.33L475.92,66.47L477.19,67.38L478.75,70.24L483.66,71.8L485.57,70.56L485.99,72.01L488.19,71.91L489.82,74.23L493.05,74.28L495.71,73.52L496.75,74.97L498.97,76.41L500.45,76.51L502.06,74.53L504.21,74.62L504.28,73.12L506.32,74.03L505.12,75.27L505.77,76.57L507.31,75.19L508.94,78.6L511.59,77.99L512.32,76.13L510.38,75.35L513.23,73.08L514.81,75.52L516.62,75.4L518.74,77.39L516.92,78.67L515.24,81.09L514.23,83.8L514.04,85.86L512.36,86.9L509.54,86.23L507.4,87.88L506.92,90.73L507.37,92.07L508.74,92.43L507.16,97.08L505.95,97.9L502.41,102.84L502.62,104.71L507.95,108.57L511.04,110.29L511.87,112.29L514.46,113.53L516.52,115.55L519.28,115.66L522.81,117.97L526.66,119.32Z" class="land" id="AU-NT" title="Northern Territory"/>
    <path d="M435.49,104.37L435.49,110.08L435.49,130.38L435.56,228.59L435.5,296.38L430.85,298.78L425.19,301.26L422.32,301.82L418.12,303.45L411.36,304.05L406.07,303.1L402.18,304.39L399.13,306.9L396.91,307.55L391.12,311.26L386.27,312.35L384.44,314.26L382.87,319.51L378.54,323.86L376.74,323.72L374.65,325.27L373.08,323.25L371.28,323.87L366.16,323.95L363.69,325.4L362.6,322.92L360.18,323.78L357.48,322.8L350.59,323.24L345.94,324.71L341.65,324.15L337.59,326.3L336.04,329.22L333.34,331.41L330.24,330.76L327.38,333.64L321.58,337.62L315.86,338.83L313.76,337.94L304.66,337.7L302.12,336L299.58,335.4L298.96,333.93L296.19,330.94L292.7,328.88L289.52,328.35L288.94,321.17L289.4,319.07L291.73,320.69L293.91,320.08L296.86,315.82L295.63,308.44L297.38,307.22L297.07,304.11L297.18,298.85L296.54,295.99L293.99,291.33L292.66,287.76L289.92,281.91L289.67,279.12L288.77,276.54L289.2,269.66L287.7,264.98L285.45,262.29L285.09,259.45L282.2,254.67L280.6,253.03L279.98,250.2L280.46,248.5L279.75,245.48L276.9,239.81L274.67,236.57L271.49,233.17L270.9,231.31L272.37,229.91L273.93,231.83L274.26,234.44L275.27,236.15L277.49,234.43L277.55,232.44L274.31,229.4L272.64,225.17L273.75,223.44L276.22,227.24L275.7,229.92L276.89,230.48L279.72,233.9L281.03,232.87L280.79,230.65L281.69,226.76L279.35,224.28L276.98,219.06L275.87,218.38L274.97,214.14L273,211.52L272.57,208.14L274.11,202.73L276.31,200.11L276.49,196.33L277.1,194.47L275.41,189.65L276.9,186.6L278.3,182.56L280.31,181.82L279.8,184.8L280.6,188.78L282.88,187.82L283.8,184.98L285.79,181.03L288.83,179.33L289.98,179.25L294.14,177.42L295.89,175.33L297.84,174.27L299.08,172.39L301.8,170.52L304.82,169.45L307.24,167.7L309,168.47L310.99,167.4L314.53,168.6L319.16,167.25L321.45,165.04L329.08,163.66L332,160.13L333.13,160.03L337.23,161.27L339.36,160.17L344.09,159.47L352.31,155.96L354.91,153.78L357.12,150.77L360.01,144.52L365.98,139.85L365.93,138.19L364.66,137.24L363.93,133.57L363.96,131.43L365.14,128.65L367.93,125.78L370.31,124.88L370.39,123.12L371.79,122.05L373.9,124.38L376.11,128.97L378.67,133.1L379.35,129.72L378.88,128.27L380.89,126.25L379.24,123.91L380.28,120.28L381.65,120.59L382.96,119.26L385.06,119.87L385.72,120.98L387.34,120.42L387.82,117.7L388.91,115.9L387.5,115.12L387.21,112.99L388.1,110.93L390.36,110.68L390.69,108.5L394.1,106.57L396.3,104.7L395.18,103.03L397.27,100.61L399.9,100.9L399.81,98.31L402.56,99.99L403.18,101.91L404.59,100.53L405.72,96.38L407.2,97.49L407.68,95.53L408.94,95.82L410.46,97.46L412.43,94.68L411.98,92.79L414.17,92.06L415.41,93.36L419.06,94.49L421.49,96.88L424.61,101.25L426.83,102.55L425.78,106.85L429.74,106.27L429.11,103.6L430.65,103.15ZM270.7,230.21L268.85,227.61L267.59,224.21L268.43,223.56Z" class="land" id="AU-WA" title="Western Australia"/>
    <path d="M644.69,349.45L643.4,348.88L641.73,346.04L642.26,341.79L644.99,339.76L646.76,341.11L645.05,345.64Z" class="land" id="AU-ACT" title="Australian Capital Territory"/>
    <path d="M654.36,370.22L635.87,360.85L635.88,358.38L634.26,355.55L633.72,351.29L630.84,349.81L627.5,350.03L626.53,351.24L622.43,351.85L618.09,350.22L615.98,351.17L610.11,350.11L608.12,348.33L606.16,348.98L602.3,348.94L601.9,351.82L600.06,352.34L598.36,351.48L595.64,347.67L592.94,345.17L587.56,342.06L585.77,340L585.01,337.34L585.14,335.07L581.37,333.75L579.35,332.47L578.23,334.43L576.88,334.86L575.08,331.85L575.03,330.03L573.57,327.58L571.53,326.45L568.36,326.39L566.15,327.57L563.28,326.05L560.67,325.34L560.72,263.83L582.92,263.82L599.16,263.82L612.41,263.82L643.67,263.82L649.02,259.04L651.52,259.39L657.94,258.42L659.46,259.74L662.78,259.46L665.42,260.67L668.08,262.98L668.63,265.75L669.88,265.19L670.82,263.26L672.62,262.47L673.66,263.53L675.65,262.56L675.99,260.61L675.05,258.47L679.31,256.39L680.54,255.06L683.39,256.21L687.07,256.13L687.87,255.06L691.18,253.73L692.07,255.19L691.74,257.77L692.41,259.79L692.22,262.18L690.57,264.34L689.42,267.75L689.71,268.59L688.55,275.24L686.09,282.68L685.95,285.92L686.68,287.3L684.32,295.94L680.8,301.77L680.99,305.13L676.79,308.58L676.97,309.68L673.5,311.15L671.02,315.86L669.77,316.48L669.77,318.78L668.58,320.38L667.88,324.66L664.34,329.22L663.37,332.09L662.69,337.85L660.23,340.59L658.84,344.45L656.29,349.75L656.01,354.76L653.58,362.49L654.66,365.61L654.05,367.19ZM643.4,348.88L644.69,349.45L645.05,345.64L646.76,341.11L644.99,339.76L642.26,341.79L641.73,346.04Z" class="land" id="AU-NSW" title="New South Wales"/>
    <path d="M528.47,347.03L530.05,347.47L529.82,349.52L526.9,348.79L523.71,351.62L522.69,350.57L515.96,351.25L514.15,349.45L514.59,347.55L522.27,345.25L524.45,345.43L525.2,347.26L527.84,348.03ZM435.5,296.38L435.56,228.59L444.89,228.52L458.8,228.53L529.4,228.52L560.7,228.53L560.72,263.83L560.67,325.34L560.4,324.98L560.36,377.5L557.55,377.6L553.97,374.82L551.53,370.45L550.2,369.95L547.67,366.11L547.67,362.47L548.82,360.82L548.42,357.69L546.59,353.22L543.71,349.36L543.33,346.54L543.55,342.48L542.05,341.74L539.52,342.92L539.74,344.82L536.92,344.59L534.99,346.06L531.22,346.26L530.99,344.51L533.97,342.09L534.76,338.02L534.57,334.25L532.26,331.1L530.36,326.74L528.61,330.41L528.1,334.03L526,340.02L523.35,339.23L520.7,340.87L517.2,340.91L518.55,338.97L518.72,337.18L523.7,336.39L524.16,333.36L524.33,326.85L525.25,323.58L528.86,319.51L527.46,315.99L529.88,314.14L527.05,312.44L525.17,312.9L522.98,316.27L522.73,317.88L520.44,321.44L518.44,321.03L517.54,322.61L514.58,324.18L512.25,326.18L510.68,329.23L507.87,331.82L506.48,335.35L505.19,337.11L502.23,333.18L501.74,328.69L500.82,325.12L498.45,322.13L496.43,320.49L496.72,319.29L495.04,314.73L493.85,314.27L491.1,315.05L489.83,310.14L490.55,307.42L488.85,305.75L486.13,306.84L485.85,303.25L483.55,301.36L482.29,302.74L478.97,302.51L474.99,299.62L471.9,299.57L468.84,300.49L464.39,296.74L457.91,293.7L454.21,295.37L448.67,294.96L437.91,295.96Z" class="land" id="AU-SA" title="South Australia"/>
    <path d="M560.36,377.5L560.4,324.98L560.67,325.34L563.28,326.05L566.15,327.57L568.36,326.39L571.53,326.45L573.57,327.58L575.03,330.03L575.08,331.85L576.88,334.86L578.23,334.43L579.35,332.47L581.37,333.75L585.14,335.07L585.01,337.34L585.77,340L587.56,342.06L592.94,345.17L595.64,347.67L598.36,351.48L600.06,352.34L601.9,351.82L602.3,348.94L606.16,348.98L608.12,348.33L610.11,350.11L615.98,351.17L618.09,350.22L622.43,351.85L626.53,351.24L627.5,350.03L630.84,349.81L633.72,351.29L634.26,355.55L635.88,358.38L635.87,360.85L654.36,370.22L652.36,370.85L651.18,372.63L648.93,373.78L636.95,374.29L633.35,375.36L628.94,378.15L621.98,385.31L614.79,386.73L615.96,388.86L617.76,387.37L617.91,391L616.48,391.73L614.35,387.91L611.86,388.06L610.94,385.32L608.34,385.5L606.77,383.9L608.22,381.62L607.06,379.66L605.09,379.8L602.75,383.26L601.4,383.37L603.8,378.46L602.17,375.22L600.6,375.36L597.49,377.99L598.61,380.62L596.12,380.76L592.64,383.09L590.35,385.92L587.23,388.09L582.06,385.12L579.51,384.3L575.09,381.48L572.8,381.96L570.76,380.52L567.78,380.4L566.66,382.19L562.71,378.78Z" class="land" id="AU-VIC" title="Victoria"/>
    <path d="M686.75,226.16L685.3,223.41L686.57,220.87L686.41,219.63L687.93,217.84L689.77,217.13L687.22,223.16ZM691.18,253.73L687.87,255.06L687.07,256.13L683.39,256.21L680.54,255.06L679.31,256.39L675.05,258.47L675.99,260.61L675.65,262.56L673.66,263.53L672.62,262.47L670.82,263.26L669.88,265.19L668.63,265.75L668.08,262.98L665.42,260.67L662.78,259.46L659.46,259.74L657.94,258.42L651.52,259.39L649.02,259.04L643.67,263.82L612.41,263.82L599.16,263.82L582.92,263.82L560.72,263.83L560.7,228.53L529.4,228.52L529.4,122.62L531.43,124.28L534.47,125.16L536.07,125.06L539.94,126.37L541.3,128.28L542.55,131.21L544.39,131.61L546.26,133.16L548.32,133.76L550.05,135.09L551.64,135.33L554.4,134.83L558.96,132.41L560.25,127.48L562.72,124.24L565.15,117.4L564.87,115.57L565.5,111.56L567.64,106.05L566.61,103.21L566.13,100.17L566.88,97.73L566.73,95.69L565.59,93.14L566.35,89.97L567.88,86.98L566.8,84.11L569.45,80.75L567.6,78.38L568.79,75.85L570.26,74.52L570.8,71.53L572.41,66.88L572.57,62.64L574.71,61.81L575.77,59.84L577.53,60.27L577.48,61.57L578.9,62.78L580.16,67.08L580.1,71.79L581.24,72.79L583.64,73.43L582.63,75.06L582.37,77.14L584.44,77.98L584.48,79.09L586.05,80.15L585.34,82.64L586.93,82.96L587.08,87.9L587.77,88.88L587.1,92.37L588.72,95.24L589.72,99.43L592.12,100.23L593.6,99.07L596.53,97.72L597.91,98.84L599.06,100.99L601.35,101.64L602,103.1L605.72,105.17L604.87,107.21L605.45,109.34L605.02,110.59L606.18,113.71L606.18,115.67L607.25,117.49L606.62,121.38L610.84,126.52L613.2,131.45L613.95,135.03L613.84,137.93L612.96,141.02L615.07,143.81L616.34,144.3L615.66,147.8L617.54,150.2L622.1,152.76L625.94,154.12L627.8,153.97L629.09,155.33L630.28,158.54L633.43,159.58L636.02,159.89L638.04,162.77L639.18,161.46L641.75,163.06L642.77,165.43L640.69,166.73L641.34,168.47L646.4,172.51L646.67,174.74L648.78,178.14L648.65,180.28L650.32,185.46L651.43,186.78L653.77,186.78L655.42,184.67L656.69,187.25L659.6,188.91L660.46,186.56L661.96,187.81L661.73,189.08L663.14,191.09L662.48,195.6L663.64,199.86L665.27,200.45L666.78,203.14L669.46,205.26L672.16,205.38L674.77,207.99L676.84,212.47L679.83,214.21L680.76,216.94L682.47,219.79L684.94,220.3L685.07,225.46L686.29,227.26L687.79,227.94L686.65,232.12L687.39,237.03L687.54,241.16L686.26,242.26L686.57,243.86L688.57,245.82L690.41,250.16L690.18,251.74ZM541.38,124.86L541.55,123.12L543.03,121.61L545.4,121.09L545.89,122.05L544.44,123.85ZM667.4,203.07L665.72,201L667.15,200.13L668.02,201.77ZM690.14,248.78L690.42,245.07L691.54,245.09Z" class="land" id="AU-QLD" title="Queensland"/>
    <path d="M622.43,454.16L619.12,453.27L613.26,452.44L608.64,445.01L606.84,443.12L605.14,439.79L604.49,435.56L605.35,433.7L604.35,430.29L601.96,427.14L599.15,420.22L598.45,416.27L599.95,413.47L605.3,414.5L614.88,419.39L618.93,419.32L623.47,416.89L628.39,417.02L629.44,415.19L631.68,415.74L633.88,413.72L636.03,415.14L637.15,417.16L636.49,419.54L637.04,421.86L636.49,428.55L634.55,432.8L633.26,441.28L633.78,444.98L629.47,442.84L629.06,445L625.82,447.21L624.29,449.43ZM635.07,407.25L632.73,403.17L631.23,401.84L633.39,399.77L636.64,403.04L637.23,406.12ZM591.18,405.36L590.27,402.51L591.32,397.84L593.13,398.92L593.52,402.54Z" class="land" id="AU-TAS" title="Tasmania"/>
  </g>
</svg>