<?xml version="1.0" encoding="UTF-8"?>
<svg xmlns="http://www.w3.org/2000/svg" width="152.06" height="262.3" viewBox="403.97 125.85 152.06 262.3" style="background-color:#000000">
  <!-- Created using SVG Map Generator: dojo.amcharts.com/svg-map-generator -->
  <style>
    .land { fill: #ffffff; stroke: #000000; stroke-width: 0.65; }
  </style>
  <g id="polygons">
    <path d="M466.46,249.89L466.61,250.15L467.09,250.39L467.3,250.61L467.05,251.42L467.42,251.87L466.98,252.05L466.63,251.94L466.27,252.32L466.18,252.6L465.99,252.73L465.79,253.05L465.43,253.13L465.37,253.57L465.2,253.94L464.97,254.21L464.54,254.49L464.24,255.08L463.87,255.46L463.73,255.76L463.87,256.19L463.7,256.55L463.43,256.66L463.22,257.28L462.8,257.8L462.64,258.29L462.34,258.16L461.95,258.31L462.04,258.64L461.77,258.86L461.73,259.43L461.5,259.51L461.02,259.94L460.66,260.14L460.44,260.22L460.4,260.48L460.03,260.44L459.81,260.22L459.48,259.73L459.61,259.08L459.5,258.81L458.98,258.77L458.79,258.59L458.59,258.61L458.43,258.36L457.88,258.27L457.58,257.71L457.75,257.34L457.4,257.23L457.31,256.78L457.12,256.61L457.38,256.27L457.49,255.8L457.66,255.74L457.68,254.52L457.63,254.24L457.73,254.08L458.31,253.81L458.66,253.8L458.73,253.59L458.65,253.26L459.39,252.93L459.55,252.33L459.49,251.94L459.73,251.67L460.14,251.46L460.12,250.81L460.49,250.73L460.98,250.73L461.25,250.63L461.52,250.41L461.45,250.2L461.63,249.53L461.37,249.15L461.65,249.05L461.9,249.01L462.28,248.75L462.26,248.4L461.89,248.47L461.75,248.05L461.27,247.63L461.2,247.41L460.97,247.38L460.92,247.1L460.66,246.9L460.61,246.61L460.3,246.55L460.05,246.7L459.82,246.55L459.56,247.01L459.43,246.7L459.23,246.48L459.38,246.18L459.57,246.17L459.81,245.9L459.77,245.62L459.37,245.64L458.96,245.21L459,244.95L458.67,244.66L458.68,244.24L458.45,243.86L458.79,243.74L459.31,243.25L459.69,243.04L459.87,242.74L460.29,242.31L460.61,242.15L461.87,241.02L462.29,240.88L462.84,241.07L462.22,241.83L462.32,241.93L462.2,242.51L462.3,243.23L462.67,243.84L462.93,243.98L463.18,244.3L463.67,244.6L464.07,244.38L464.2,244.12L464.75,243.92L464.94,244.19L464.89,244.41L465.03,244.73L465.31,244.74L465.38,244.98L465.35,245.62L465.13,246.18L464.9,246.2L465.03,246.79L464.93,247.13L465.12,247.36L465.04,247.78L464.88,247.88L465.29,248.26L465.54,248.57L465.53,248.77L465.72,249.02L465.62,249.45L465.97,249.36L466.18,249.51L466.19,249.71Z" class="land" id="NZ-TAS" title="Tasman"/>
    <path d="M484.6,195.52L485.13,195.81L485.06,196.45L485.17,196.77L485.33,196.77L485.61,197.06L485.67,197.29L485.44,197.64L485.03,197.46L485.15,197.15L484.69,197.23L484.67,196.94L484.38,196.66L484.13,196.58L484.03,196.42L483.69,196.25L484.03,195.81L483.84,195.46L483.98,195.36L483.93,195.07L484.2,194.66L484.42,194.64L484.47,194.91L484.67,195.04ZM483.49,204.28L483.4,204.5L482.93,204.57L482.86,204.66L482.58,204.43L482.4,204.88L482.21,204.79L481.56,204.81L481.36,205.11L481.36,205.33L481.18,205.56L480.91,205.66L480.98,205.97L481.18,206.4L480.92,206.72L480.52,206.92L480.5,207.21L480.06,207.03L479.94,207.36L479.6,207.56L479.05,207.79L479.08,208.03L478.87,208.15L478.61,207.84L477.4,205.05L477.4,204.78L477.6,204.69L477.96,204.76L478.12,204.62L478.44,204.83L478.37,205.32L478.63,205.77L479.04,205.54L479.33,205.16L479.48,205.19L479.79,205.04L480.01,204.78L479.95,204.61L479.66,204.36L479.32,204.35L479.06,204.18L479.33,203.94L479.18,203.65L478.77,203.51L478.56,203.59L478.17,204.05L477.3,204.59L477.18,204.75L476.97,204.76L476.88,204.21L476.76,203.85L476.82,203.73L476.5,203.02L476.52,202.71L476.41,202.31L475.36,200.48L474.33,199L474.39,198.64L474.93,198.43L475.13,198.71L475.47,199.44L475.86,199.6L476.09,199.82L475.99,200.19L476.29,200.44L476.56,200.29L476.43,199.81L476.52,199.28L476.31,198.93L476.35,198.63L476.49,198.34L476.2,198.07L475.91,198.27L475.65,197.99L475.28,198.07L475.04,197.92L475.15,197.7L475.18,197.26L475.43,197.21L475.78,197.4L476.2,197.23L476.25,197.01L476.9,196.43L477.32,196.27L477.35,195.99L477.76,195.83L477.79,195.55L478.06,195.33L478.45,196.01L478.9,196.53L479.37,196.83L479.71,196.88L479.7,197.04L479.19,197.33L479.28,197.55L479.58,197.62L479.85,197.84L479.45,198.05L479.19,198.07L478.96,198.23L479.27,198.77L479.14,199.09L479,199.04L478.9,198.52L478.73,198.81L478.88,199.11L478.91,199.62L478.66,199.93L478.72,200.14L478.99,200.4L479.25,200.44L479.32,200.24L479.88,200.19L479.55,200.46L479.32,200.42L479.06,200.67L479.12,201.35L479.35,201.95L479.33,202.09L479.6,202.37L479.51,202.55L479.25,202.2L479.05,202.39L478.7,202.46L478.48,202.27L478.29,202.28L478.44,202.8L478.6,202.94L478.75,202.74L479.07,202.56L479.68,202.68L480.14,202.69L480.25,202.94L480.47,202.97L480.77,203.18L480.86,203.36L481.11,203.32L481.04,203.04L481.48,202.97L481.65,203.08L482.03,203.7L482.35,203.63L482.48,203.75L482.74,203.54L483.49,204.14ZM480.48,201.49L480.64,201.61L480.59,202.05L480.36,202.06L480.26,202.24L480.03,202.31L479.75,202.09L479.84,201.9L480.27,201.88L480.48,201.66ZM479.86,198.06L480.17,198.3L480.18,198.63L479.84,198.58L479.65,198.46ZM482.7,202.59L482.86,203.03L482.76,203.25L482.52,202.94ZM481.93,195.81L482.03,195.81L482.05,196.37L481.98,196.45L481.57,196.33L481.58,195.97ZM482.58,201.6L482.83,201.85L482.43,202.08L482.54,202.27L482.48,202.54L481.96,202.53L481.29,202.11L481.66,201.86L481.72,202.07L481.98,202.07L482.03,201.84L482.37,201.86Z" class="land" id="NZ-AUK" title="Auckland"/>
    <path d="M491.26,225.99L491.66,225.78L491.67,225.49L491.56,225.13L491.69,225.02L491.5,224.75L491.47,224.2L491.17,224.37L490.87,224.32L490.39,223.71L490.12,223.02L490.28,222.56L491.12,222.8L491.46,222.49L490.78,221.69L491.12,220.99L490.48,220.55L490.32,220.62L490.22,220.37L489.79,220.43L489.85,220.12L490.33,219.42L490.55,219.45L490.83,219.96L491.24,219.97L491.88,219.61L492.03,219.84L491.83,220.14L491.98,220.37L492.32,220.46L492.58,219.85L493.31,220.13L493.24,219.93L493.52,218.75L493.19,218.36L492.72,218.27L492.42,217.93L492.18,217.97L491.87,217.81L491.66,217.49L491.43,216.85L491.52,216.59L491.37,216.37L491.29,216.06L491.39,215.91L491.18,215.59L490.78,215.3L490.62,215.36L490.24,215.28L489.84,214.99L489.79,214.72L489.51,214.5L489.15,214.46L488.87,213.84L489.16,213.68L488.86,213.34L488.87,212.94L488.59,212.83L488.75,212.26L488.43,211.49L488.02,210.86L488.06,210.51L487.79,210L487.99,209.81L487.79,209.49L487.83,209.25L488.19,209.4L488.52,209.39L488.4,209.1L488.65,208.67L488.69,208.26L488.84,208.1L488.84,208.35L489.08,208.87L488.87,208.99L488.76,209.34L489.07,209.34L489.15,209.53L488.84,209.78L488.82,210.04L488.96,210.33L489.1,210.15L489.26,210.73L489.46,210.66L489.63,211.02L490.08,211.07L490.35,211.03L490.59,211.14L490.8,210.81L491.42,211.27L492.72,211.95L492.85,212.09L493.27,212.06L494.22,212.78L494.74,213.05L495.45,213.34L495.94,213.43L496.96,213.69L497.56,213.97L498.38,214.57L498.58,214.93L498.81,214.47L499.69,214.46L500.69,214.4L501.46,214.03L501.45,213.88L501.81,213.72L502.01,213.34L502.26,213.14L502.77,212.35L503.08,212.05L502.95,211.84L503.26,211.67L503.43,211.21L503.89,211.18L504.15,210.99L504.32,211.06L504.62,210.9L504.87,210.45L504.96,210.6L505.26,210.58L505.36,210.35L505.58,210.16L505.72,209.92L505.96,209.8L506.31,209.82L506.42,210.25L505.47,210.53L505.47,210.81L505.59,210.98L505.52,211.45L505.59,211.65L505.44,211.83L505.62,212.09L505.96,211.78L506.26,212.1L505.42,212.96L504.53,215.7L504.43,215.74L503.56,215.03L503.4,214.81L502.96,214.77L503.11,215.27L503.15,215.71L502.88,215.82L502.89,216.21L502.64,216.25L502.41,216.51L501.51,216.88L501.44,217.08L501.54,217.32L501.52,217.67L501.3,218.04L500.72,218.38L499.43,219L499.58,219.9L499.32,220.12L499.18,220.01L499.02,220.19L498.89,220.58L498.53,220.67L497.81,221.19L497.72,221.45L497.36,221.82L496.95,221.82L496.61,221.5L496.26,221.58L496.05,221.77L495.82,221.64L495.47,222.12L495.2,222.11L495.04,222.97L495.14,223.21L495.1,223.45L494.23,224.36L494.26,224.69L494.39,224.98L493.87,225.02L493.04,225L492.78,225.62L493.02,226.27L492.77,226.2L492.5,226.41L492.61,226.66L492.14,226.79ZM491.47,207L491.54,207.38L491.22,207.31L491.28,207.04ZM489.24,209.11L489.43,209.22L490.03,210.11L490.65,210.78L490.02,210.37L489.84,210.48L489.6,210.42L489.48,209.77L489.2,209.38Z" class="land" id="NZ-BOP" title="Bay of Plenty"/>
    <path d="M462.64,258.29L462.65,258.83L462.78,259.02L463.24,258.97L463.34,259.24L463.57,259.15L463.5,259.79L463.83,259.96L463.67,260.45L463.91,260.6L464.22,260.55L464.45,261.31L464.93,261.61L464.8,262.15L465.08,262.05L465.35,262.55L465.52,262.49L465.55,262.23L465.89,262.1L466.23,262.09L466.29,261.76L466.56,261.66L466.74,261.1L466.65,260.65L466.92,260.55L467.36,259.95L467.99,259.77L468.36,259.51L468.75,259.36L468.9,259.18L468.71,258.58L468.9,258.44L468.88,258.21L469.09,258L469.34,257.97L469.56,257.57L469.83,257.47L469.84,257.28L470.29,257.22L470.3,257.04L470.63,256.9L470.81,256.34L470.99,256.2L471.17,256.37L471.34,256.73L471.57,256.45L471.79,256.48L472.34,256.25L472.67,256.23L472.83,256.47L473.15,256.52L473.42,256.41L473.53,256.67L473.43,256.83L472.81,257.6L472.51,258.16L472.39,258.69L472.49,259.06L472.11,259.28L471.97,259.56L471.09,260.31L470.96,260.72L470.5,261.16L470.43,261.67L470.32,261.76L469.68,261.94L469.61,262.14L469.32,262.26L469,262.8L468.91,263.46L468.75,263.75L467.85,266.03L467.4,266.61L467.33,267.04L466.82,267.75L466.36,268.02L465.98,268.15L465.5,268.84L465.19,268.8L464.79,269.08L464.13,269.36L463.92,269.37L463.57,269.75L463.36,269.76L463.03,270.25L462.61,271.22L462.47,272.05L462.48,272.67L462.62,274.17L462.53,274.39L462.84,274.59L463.15,274.96L462.81,274.97L462.59,275.12L462.22,275.09L462,275.25L462.16,275.71L462.44,275.58L462.54,275.27L462.83,275.42L463.43,275.03L463.87,275.27L464.12,275.26L463.91,275.81L464.02,275.96L464.28,275.24L464.66,275.36L464.89,275.55L465.23,275.58L465.27,275.83L465.71,276.06L465.9,276.66L465.89,277L465.68,277.63L465.48,277.85L464.81,278.26L464.58,278.25L464.34,277.86L464.42,276.97L464.3,276.7L464.12,276.84L464.19,277.35L464.06,277.52L464.26,278.13L463.89,278.38L463.67,278.25L463.41,278.28L463.22,277.97L463.05,278.04L462.72,277.62L462.43,277.56L461.57,277.62L460.08,277.83L459.21,278.03L458.43,278.4L458.3,278.4L457.67,278.67L456.67,279.18L453.74,280.89L452.09,282.07L451.21,282.89L450.76,283.44L450.52,283.84L450.66,283.99L450.61,284.62L450.13,285.49L449.85,286.36L449.82,286.74L449.94,289L449.89,289.54L449.72,290.24L449.47,290.14L449.16,290.2L448.68,290L448.51,290.07L448.33,289.88L447.98,289.9L447.65,289.71L446.82,289.52L446.06,289.11L445.56,288.98L445.23,288.79L444.85,289.2L444.79,289.55L444.53,289.91L443.49,290.39L443.31,289.88L443.07,289.84L442.43,290.16L441.83,290.33L441.24,290.3L441.16,289.94L440.84,289.55L440.44,288.92L440.47,288.65L440.02,286.95L439.61,286.85L439.16,287.15L438.56,286.87L438.53,286.49L438.31,285.93L438.18,286.05L438.17,286.37L437.97,286.38L437.63,286.19L437.56,285.96L437.71,285.65L437.51,285.34L437.66,285.02L437.5,284.76L437.03,284.81L436.85,284.75L436.79,284.32L436.98,284.06L436.84,283.85L437.08,283.45L436.99,282.65L437.06,282.43L436.73,281.92L436.96,281.51L437.27,281.33L437.56,280.91L437.54,280.66L437.8,280.31L437.9,280.02L438.16,279.98L438.05,279.71L438.12,279.49L438.04,279.15L438.5,278.78L438.48,278.54L438.8,278.16L439.14,278.03L439.32,277.65L439.61,277.67L439.59,277.42L440.17,277.14L440.32,276.83L440.22,276.68L440.69,276.43L440.68,275.99L441.15,275.75L441.15,274.99L441.57,274.89L441.66,274.61L442.05,274.46L442.14,274.17L442.93,273.87L443.06,273.75L443.28,273.98L443.68,273.83L443.72,273.69L444.14,273.47L444.23,273.18L444.63,273.03L444.73,272.86L444.92,273.04L445.3,273.08L445.56,272.73L445.76,272.59L445.84,272.19L446.21,272.11L446.19,271.86L446.54,271.85L446.85,271.67L447.11,271.64L447.21,271.47L447.49,271.36L447.5,271.05L448.1,270.56L448.12,270.81L448.44,270.75L448.72,270.2L449,270.1L448.89,269.83L449.08,269.57L449.39,269.51L449.49,269.22L450.4,269L450.38,268.76L450.57,268.62L450.49,268.28L451.57,267.55L451.96,267.71L452.13,267.33L452.5,267.25L452.6,267.09L452.79,267.26L453.39,267.09L453.6,267.2L453.99,267.05L454.26,267.13L454.54,267.02L454.7,266.83L454.59,266.56L454.86,266.33L454.8,265.92L455.51,265.71L455.58,265.49L455.84,265.46L455.81,265.1L456.08,264.87L456.14,264.53L456.59,264.36L456.55,264.19L456.92,264.11L457.04,264.19L457.6,263.97L457.58,263.73L457.78,263.4L458.22,263.11L458.23,262.8L458.63,262.46L458.67,262.2L459.09,262.09L459.24,261.79L459.47,261.7L459.59,261.47L460.04,261.3L460.16,261.37L460.4,261.22L460.42,260.72L460.73,260.24L460.66,260.14L461.02,259.94L461.5,259.51L461.73,259.43L461.77,258.86L462.04,258.64L461.95,258.31L462.34,258.16Z" class="land" id="NZ-CAN" title="Canterbury"/>
    <path d="M552.82,282.07L553.03,282.16L553.38,282.63L553.12,282.8L552.99,283.24L552.64,283.56L552.53,283.44L552.43,282.78L552.68,282.54L552.54,282.36ZM549.53,276.04L550.25,276.37L550.52,276.39L550.66,276.55L551.08,276.67L551.64,276.63L551.8,276.51L552.03,276.66L552.81,276.51L552.66,276.77L552.32,276.84L551.88,277.15L551.57,277.6L551.23,278.25L551.19,277.79L551.35,277.48L551.67,277.27L551.43,276.91L551.08,276.71L550.75,276.66L550.55,276.85L550.4,276.6L550.19,276.54L550.05,276.96L550.22,277.18L550.95,277.28L550.74,277.56L550.51,277.65L550.36,277.87L550.45,278.25L550.77,278.57L550.69,278.97L551.3,279.32L551.45,279.69L551.58,279.8L551.98,279.89L551.98,280.08L551.72,280.18L551.38,280.14L550.74,280.37L550.27,280.81L549.93,281.02L549.61,280.98L549.45,280.76L549.04,279.64L549.77,279.13L549.96,278.85L550.12,278.98L550.27,278.82L550.19,278.22L549.78,277.52L549.64,277.37L549.16,277.35L548.8,277.6L548.43,277.58L547.96,277.78L547.71,277.76L547.51,277.6L547.46,277.25L547.56,277.13L548.01,277.07L547.97,276.64L548.19,276.8L548.52,276.87L549.25,276.67L549.46,276.45Z" class="land" id="NZ-CIT" title="Chatham Islands"/>
    <path d="M504.84,224.68L504.39,224.54L504.19,224.17L503.85,224.08L503.63,223.88L503.3,224.01L502.85,223.96L502.76,223.54L502.55,223.34L502.39,223.41L502.32,222.93L501.93,222.97L501.69,222.62L501.52,222.68L501.28,221.94L500.85,221.83L501.17,221.19L500.71,221.03L500.38,221.05L500.01,220.81L500.02,221.43L499.85,221.38L498.53,220.67L498.89,220.58L499.02,220.19L499.18,220.01L499.32,220.12L499.58,219.9L499.43,219L500.72,218.38L501.3,218.04L501.52,217.67L501.54,217.32L501.44,217.08L501.51,216.88L502.41,216.51L502.64,216.25L502.89,216.21L502.88,215.82L503.15,215.71L503.11,215.27L502.96,214.77L503.4,214.81L503.56,215.03L504.43,215.74L504.53,215.7L505.42,212.96L506.26,212.1L505.96,211.78L505.62,212.09L505.44,211.83L505.59,211.65L505.52,211.45L505.59,210.98L505.47,210.81L505.47,210.53L506.42,210.25L506.31,209.82L506.99,209.92L507.15,209.77L507.44,209.85L508.26,209.97L508.08,210.11L508.11,210.37L508.7,210.75L509.06,210.72L509.4,210.84L509.58,210.82L510.15,211.37L509.94,211.64L509.62,212.26L508.99,213.16L508.83,213.72L508.86,214.15L508.41,214.66L508.4,214.93L508.7,215.07L508.71,215.51L508.29,215.79L508.25,216.02L508.56,216.39L508.42,216.54L508.41,216.83L508.19,216.99L508.39,217.24L508.35,218.21L508.44,218.48L508.43,218.96L508.21,219.05L507.97,219.46L507.98,219.87L508.05,220.05L507.57,220.39L507.34,220.63L507.29,220.84L507.07,221.09L506.32,221.61L506.22,221.92L506.02,221.83L505.77,221.53L505.43,221.65L505.17,221.95L505.12,222.35L505.26,222.51L505.07,222.77L504.95,223.17L505.01,223.54L504.87,223.8L504.94,223.99Z" class="land" id="NZ-GIS" title="Gisborne"/>
    <path d="M494.42,240.13L493.93,239.9L493.83,240.06L493.39,239.83L493.11,239.94L492.94,239.89L492.63,239.55L492.36,239.36L492.59,239.09L492.6,238.61L492.42,238.45L492.49,238.24L492.29,237.85L492.27,237.63L492.43,237.26L492.16,237.08L491.78,236.23L491.5,236.23L491.49,236L491.3,235.84L490.62,235.66L490.46,235.83L490.12,235.45L490.37,235L490.22,234.88L490.43,234.39L490.31,234.32L490.49,233.67L490.78,232.8L490.85,232.19L491.03,232.06L490.71,231.79L490.84,231.38L490.52,231.11L490.87,231.03L491.06,230.6L491.84,230.23L491.94,229.68L491.85,229.54L492.11,229.03L492.04,228.83L491.62,228.71L491.64,228.25L491.85,228.16L491.7,227.53L491.22,227.44L490.96,227.26L490.97,227.08L490.81,226.63L490.85,226.5L490.87,226.32L491.26,225.99L492.14,226.79L492.61,226.66L492.5,226.41L492.77,226.2L493.02,226.27L492.78,225.62L493.04,225L493.87,225.02L494.39,224.98L494.26,224.69L494.23,224.36L495.1,223.45L495.14,223.21L495.04,222.97L495.2,222.11L495.47,222.12L495.82,221.64L496.05,221.77L496.26,221.58L496.61,221.5L496.95,221.82L497.36,221.82L497.72,221.45L497.81,221.19L498.53,220.67L499.85,221.38L500.02,221.43L500.01,220.81L500.38,221.05L500.71,221.03L501.17,221.19L500.85,221.83L501.28,221.94L501.52,222.68L501.69,222.62L501.93,222.97L502.32,222.93L502.39,223.41L502.55,223.34L502.76,223.54L502.85,223.96L503.3,224.01L503.63,223.88L503.85,224.08L504.19,224.17L504.39,224.54L504.84,224.68L504.72,225.16L504.85,225.73L504.97,225.87L505.63,226.02L505.69,226.12L505.05,226.75L505.06,226.97L504.9,227.39L504.54,227.8L504.37,226.93L504.25,226.67L504.61,225.86L504.36,225.61L504.21,225.8L503.59,225.57L502.94,225.51L501.57,225.56L500.86,225.65L499.86,225.95L499.1,226.29L498.2,226.76L497.82,227.09L497.79,227.45L497.41,228.08L496.78,228.64L496.54,229.16L496.45,229.73L496.57,230.03L496.87,229.96L496.86,230.79L497.05,231.29L497.23,231.57L497.74,231.83L498.12,231.66L498.28,231.77L498.14,232.08L497.87,232.32L497.63,232.71L497.58,233.11L497.44,233.43L497.45,233.89L497.21,234.35L497.16,234.62L496.94,234.87L496.51,236.15L496.63,236.38L496.45,236.63L496.45,236.95L495.82,237.78L495.37,237.99L494.87,238.4L494.77,238.86L494.83,239.02L494.66,239.32Z" class="land" id="NZ-HKB" title="Hawke's Bay"/>
    <path d="M472.65,242.97L472.74,243.14L472.54,243.86L472.56,244.08L472.26,244.62L471.97,244.91L471.91,245.11L471.66,245.42L471.28,245.67L471.27,245.09L471.31,244.76L471.49,244.55L471.39,244.26L471.65,243.81L471.58,243.65L472.06,243.46L471.87,243.79L472.13,243.89L472.2,243.63L472.59,243.36ZM476.12,247.24L476.2,247.58L476,248.17L475.65,248.59L475.53,248.48L475.31,248.56L475.07,248.86L474.56,248.84L474.59,248.56L474.89,248.63L475.11,248.26L475.55,248.21L475.98,247.98L475.68,247.74L476.1,247.36ZM473.43,256.83L473.53,256.67L473.42,256.41L473.15,256.52L472.83,256.47L472.67,256.23L472.34,256.25L471.79,256.48L471.57,256.45L471.34,256.73L471.17,256.37L470.99,256.2L470.81,256.34L470.63,256.9L470.3,257.04L470.29,257.22L469.84,257.28L469.83,257.47L469.56,257.57L469.34,257.97L469.09,258L468.88,258.21L468.9,258.44L468.71,258.58L468.9,259.18L468.75,259.36L468.36,259.51L467.99,259.77L467.36,259.95L466.92,260.55L466.65,260.65L466.74,261.1L466.56,261.66L466.29,261.76L466.23,262.09L465.89,262.1L465.55,262.23L465.52,262.49L465.35,262.55L465.08,262.05L464.8,262.15L464.93,261.61L464.45,261.31L464.22,260.55L463.91,260.6L463.67,260.45L463.83,259.96L463.5,259.79L463.57,259.15L463.34,259.24L463.24,258.97L462.78,259.02L462.65,258.83L462.64,258.29L462.8,257.8L463.22,257.28L463.43,256.66L463.7,256.55L463.87,256.19L463.73,255.76L463.87,255.46L464.24,255.08L464.54,254.49L464.97,254.21L465.2,253.94L465.37,253.57L465.43,253.13L465.79,253.05L465.99,252.73L466.18,252.6L466.27,252.32L466.63,251.94L466.98,252.05L467.42,251.87L467.05,251.42L467.3,250.61L467.68,250.51L467.85,250.14L468.33,249.82L468.3,249.47L468.86,248.76L469.14,248.46L469.41,248.35L469.64,248.07L469.58,247.67L469.68,247.51L469.78,246.93L470.25,247.13L470.47,246.91L470.32,246.68L470.7,246.34L470.94,246.35L471.39,245.99L471.41,245.78L471.61,245.7L471.86,246.16L472.45,245.48L472.83,245.27L473.11,245.29L473.12,245.61L472.76,245.36L472.65,245.93L472.39,245.88L472.18,246.05L472.11,246.38L471.88,246.52L471.64,246.46L471.5,246.23L471.2,247.05L471.15,247.43L471.44,247.29L471.61,246.86L472.05,246.96L472.29,246.89L472.05,247.61L471.87,247.49L471.77,247.94L471.9,248.19L471.77,248.91L471.04,249.15L471.43,249.4L471.45,249.17L471.93,249.07L472.18,248.83L472.25,248.54L472.99,248.56L473.46,248.34L473.37,248.01L472.99,248.31L472.42,248.44L472.08,248.37L471.93,247.82L472.64,247.16L472.6,247.53L472.66,247.88L473.09,247.32L473.17,246.97L473.39,246.88L473.4,246.52L473.08,246.48L472.71,246.78L472.61,246.51L472.9,246.46L473.11,246.15L473.19,246.46L473.38,246.48L473.55,246.25L473.88,246.86L473.79,246.24L474.16,246.51L474.42,246.38L474.37,246.76L474.49,246.93L474.79,247.07L474.97,246.73L475.23,246.77L475.22,247.04L474.83,247.51L474.6,247.64L474.34,247.56L474.39,247.91L474.64,248.16L474.53,248.4L474.27,248.43L473.52,248.71L473.09,249.09L473.61,249.05L473.93,248.86L474.23,248.98L474.31,249.14L474.61,248.94L474.88,248.96L475.36,248.84L475.18,249.27L474.84,249.46L474.65,249.67L474.57,249.96L474.15,249.99L474.14,249.82L474.42,249.71L474.22,249.38L473.88,249.82L473.86,249.98L473.43,250.53L473.26,251.06L473.29,251.49L473.74,252.03L473.74,252.36L474.03,252.24L474.22,252.35L474.25,252.67L474.38,252.86L474.31,253.56L474.48,254.01L474.83,254.15L475.25,254.41L474.79,254.92L474.61,255.39L474.34,255.66L474.34,255.8L473.9,256.21L473.7,256.59Z" class="land" id="NZ-MBH" title="Marlborough"/>
    <path d="M494.42,240.13L494.51,240.4L494.42,240.8L493.94,240.86L493.63,241.02L493.28,241.33L493.19,241.68L492.74,242.03L492.72,242.22L492.49,242.44L492.41,242.71L491.88,243.24L491.52,243.93L491.18,243.16L490.86,242.99L490.07,242.77L490.03,243.21L489.69,243.22L489.44,243.08L489.14,243.45L488.89,243.49L488.8,243.76L488.61,243.6L488.29,243.85L488.11,243.69L487.91,243.71L487.76,243.89L487.41,243.79L487.57,243.13L487.42,243.02L486.8,243.03L486.74,243.35L486.23,243.62L486.04,243.46L485,242.98L484.74,243.51L484.37,243.48L484.18,243.31L484.02,243.38L483.99,243.63L483.67,243.58L483.32,243.78L483.08,243.64L482.75,243.65L482.84,243.38L482.53,243.15L482.26,243.12L482.48,242.65L482.47,242.5L482.66,241.95L482.87,240.75L482.94,240.66L483.03,239.52L483,238.79L482.76,237.34L482.36,236.5L481.4,235.24L481.02,235L480.78,234.66L480.33,234.33L479.53,234.05L479.36,234.09L479.23,234L479.58,233.48L479.89,233.43L479.97,233.24L480.19,233.15L480.26,232.95L480.62,232.87L480.69,232.67L480.56,232.37L481.15,232.02L480.93,231.29L481.12,230.75L480.94,230.48L480.83,230.11L480.66,230.06L480.42,229.7L480.24,229.13L480.31,228.81L479.99,228.54L479.76,228.51L479.7,228.3L479.85,228.13L479.97,227.79L480.6,227.2L480.88,226.8L481.12,226.65L481.21,226.27L481.47,226.06L481.81,226.15L481.59,225.72L481.15,225.78L480.83,224.99L480.51,225.11L480.49,224.89L480.25,224.93L480.16,224.27L480.25,224.01L480.08,223.85L479.81,223.95L479.54,223.54L479.72,222.78L480.09,222.64L480.41,222.4L480.58,222.45L480.72,222.06L480.83,222.01L480.83,221.5L481.21,221.47L482.15,221.05L482.35,221.14L482.65,221.09L482.87,221.23L483.38,220.97L483.53,220.69L483.86,220.28L483.97,220.63L484.29,220.51L484.34,220.38L484.64,220.32L484.87,220.46L485.3,220.4L485.63,220.79L486.2,220.63L486.4,220.72L486.07,221.24L485.91,221.31L485.9,221.59L485.73,222.06L485.45,222.45L485.96,223.11L485.66,223.57L485.99,224.06L485.74,224.5L485.85,224.86L486.36,224.72L486.81,224.77L486.5,225.12L486.49,225.41L486.22,225.52L486.3,225.83L486.48,226.1L486.38,226.66L485.76,227.88L486.66,228.1L486.96,228.04L487.8,228.16L488.3,227.68L488.5,227.37L488.43,227.17L489.08,226.91L489.14,226.6L490.06,226.64L490.54,226.45L490.85,226.5L490.81,226.63L490.97,227.08L490.96,227.26L491.22,227.44L491.7,227.53L491.85,228.16L491.64,228.25L491.62,228.71L492.04,228.83L492.11,229.03L491.85,229.54L491.94,229.68L491.84,230.23L491.06,230.6L490.87,231.03L490.52,231.11L490.84,231.38L490.71,231.79L491.03,232.06L490.85,232.19L490.78,232.8L490.49,233.67L490.31,234.32L490.43,234.39L490.22,234.88L490.37,235L490.12,235.45L490.46,235.83L490.62,235.66L491.3,235.84L491.49,236L491.5,236.23L491.78,236.23L492.16,237.08L492.43,237.26L492.27,237.63L492.29,237.85L492.49,238.24L492.42,238.45L492.6,238.61L492.59,239.09L492.36,239.36L492.63,239.55L492.94,239.89L493.11,239.94L493.39,239.83L493.83,240.06L493.93,239.9Z" class="land" id="NZ-MWT" title="Manawatu-Wanganui"/>
    <path d="M467.3,250.61L467.09,250.39L466.61,250.15L466.46,249.89L466.76,249.32L466.91,249.31L467.4,248.98L467.48,248.48L467.8,248.29L468.13,247.98L468.37,248.18L468.79,247.98L468.98,247.75L469.04,247.42L469.31,247.32L469.49,247L469.78,246.93L469.68,247.51L469.58,247.67L469.64,248.07L469.41,248.35L469.14,248.46L468.86,248.76L468.3,249.47L468.33,249.82L467.85,250.14L467.68,250.51Z" class="land" id="NZ-NSN" title="Nelson"/>
    <path d="M478.06,195.33L477.79,195.55L477.76,195.83L477.35,195.99L477.32,196.27L476.9,196.43L476.25,197.01L476.05,196.89L475.79,197.31L475.57,197.28L475.46,197.06L475.25,196.95L475.21,196.75L475.62,196.49L475.53,196.28L475.06,195.88L474.93,195.94L475.25,196.46L474.86,196.77L474.26,196.27L473.99,195.82L473.82,195.77L473.3,195.97L473.59,196.15L473.91,196.7L474.28,196.9L474.3,197.14L474.48,197.5L474.49,197.78L474.18,198.05L473.51,198.15L473.38,198.11L473.1,197.59L473.12,197.28L473,196.87L472.24,195.51L470.28,192.77L469.6,191.88L469.37,191.68L468.9,190.94L468.4,190.45L468.21,190L467.81,189.55L468,189.41L468.32,188.53L468.29,188.27L468.62,188.18L468.89,188.26L469.18,187.95L468.93,187.81L468.55,188.09L468.25,188.05L468.01,188.4L467.76,189.3L466.95,188.21L466.57,187.86L466.37,187.39L466.25,187.33L466.17,187L465.3,186.02L465.37,185.72L465.93,185.85L466.1,185.69L466.28,185.08L466.26,184.71L466.03,183.95L465.36,182.82L463.97,180.94L463.62,180.37L462.65,179.4L462.43,179.35L462.15,178.73L462.23,178.31L463.15,178.65L463.62,178.45L463.67,178.25L464.02,178.27L464.33,178.38L464.58,178.36L464.93,178.04L465.1,178.26L464.91,178.39L464.84,178.98L464.91,179.19L464.57,179.33L464.61,179.05L464.05,179.32L464.15,179.54L464.53,179.68L464.47,179.45L464.74,179.4L464.94,180.33L465.14,180.83L465.47,181.27L465.79,181.46L466.05,181.9L466.19,181.96L466.25,182.28L466.15,182.54L466.43,182.77L467.13,182.99L467.03,183.29L466.79,183.43L466.99,183.81L467.02,184.05L467.34,184.11L467.19,183.76L467.55,183.75L467.45,183.22L467.19,182.87L467.21,182.66L467.66,182.63L468,182.44L468.16,182.13L468.32,182.33L468.68,182.57L468.21,182.89L467.93,182.85L467.85,183.04L467.97,183.51L468.38,183.93L469.05,183.97L469.23,183.76L469.12,183.57L469.38,183.36L469.71,183.4L470.06,183.6L470.6,183.62L470.68,183.86L471.02,184.07L470.87,184.46L470.61,184.59L470.73,184.82L470.88,184.6L471.09,184.58L471.14,184.26L471.51,183.93L471.87,184.26L472.2,184.28L472.41,184.68L472.52,185.04L472.74,185.27L473.16,185.21L473.42,185.27L473.61,185.18L473.79,185.4L473.92,185.75L473.58,185.89L473.37,185.63L473.16,185.79L473.03,186.14L473.58,186.18L473.67,186.5L473.66,186.82L473.85,186.91L473.96,186.47L474.37,186.84L474.67,186.8L474.73,186.6L474.95,186.6L475.06,186.25L475.31,186.34L475.4,185.93L475.61,186.03L475.38,186.4L475.51,186.54L475.42,186.78L475.64,187.22L476.13,187.68L475.89,187.92L475.97,188.43L476.33,188.5L476.71,188.74L476.74,189.26L476.88,189.63L477.18,189.63L477.39,189.87L477.39,190.49L477.2,190.38L477.12,190.79L477.28,191.22L477.43,191.18L477.61,191.52L477.48,191.95L477.61,192.33L477.84,192.63L477.54,192.7L477.29,192.34L477.12,192.2L476.9,191.8L476.74,191.79L476.62,192.05L476.31,191.87L476.15,191.69L475.95,191.84L475.68,191.73L475.69,192.23L475.87,192.37L476.02,192.21L476.53,192.36L476.71,192.27L476.87,192.45L476.87,192.77L476.78,193.15L476.79,193.59L477.12,194.36L477.39,194.58L477.78,194.53L477.92,195.06ZM538.71,128.5L539.14,128.62L538.93,129.07L538.65,129.05L538.76,128.75Z" class="land" id="NZ-NTL" title="Northland"/>
    <path d="M426.87,285.2L427.26,285.25L427.95,285.12L428.25,284.81L429.23,284.45L429.5,284.09L429.73,284.01L430.13,284.31L430.15,284.11L430.48,283.86L430.68,283.72L430.9,283.51L430.97,282.84L431.1,282.6L431.04,282.3L431.23,282.04L431.8,281.83L431.93,281.59L432.18,281.43L432.08,281.15L432.42,281.02L432.52,280.86L432.89,280.66L433.41,280.47L433.57,280.73L434.16,280.77L434.54,280.7L434.62,280.28L434.85,280.2L435.03,280.7L435.37,280.9L435.59,280.69L435.95,280.49L435.97,280.29L436.22,280.14L436.4,280.2L436.64,279.92L437.05,279.89L437.17,279.53L437.05,279.14L437.33,279.03L437.45,279.11L437.88,279.01L438.04,279.15L438.12,279.49L438.05,279.71L438.16,279.98L437.9,280.02L437.8,280.31L437.54,280.66L437.56,280.91L437.27,281.33L436.96,281.51L436.73,281.92L437.06,282.43L436.99,282.65L437.08,283.45L436.84,283.85L436.98,284.06L436.79,284.32L436.85,284.75L437.03,284.81L437.5,284.76L437.66,285.02L437.51,285.34L437.71,285.65L437.56,285.96L437.63,286.19L437.97,286.38L438.17,286.37L438.18,286.05L438.31,285.93L438.53,286.49L438.56,286.87L439.16,287.15L439.61,286.85L440.02,286.95L440.47,288.65L440.44,288.92L440.84,289.55L441.16,289.94L441.24,290.3L441.83,290.33L442.43,290.16L443.07,289.84L443.31,289.88L443.49,290.39L444.53,289.91L444.79,289.55L444.85,289.2L445.23,288.79L445.56,288.98L446.06,289.11L446.82,289.52L447.65,289.71L447.98,289.9L448.33,289.88L448.51,290.07L448.68,290L449.16,290.2L449.47,290.14L449.72,290.24L449.23,291.15L448.36,292.02L448.37,292.38L448.14,292.48L447.74,292.98L447.73,293.21L447.39,293.76L447.39,294.08L447.23,294.29L447.08,294.72L447.13,295.07L447.4,295.09L447.41,295.34L447.19,295.63L446.98,296.07L447.04,296.53L446.52,297.16L446.3,297.55L446.27,297.88L446.02,298.17L445.74,298.27L445.69,298.77L445.37,299L445.24,299.24L445.01,299.39L445,299.63L445.57,299.55L445.77,299.82L446,299.74L446.13,300.02L445.48,300.23L445.48,300.51L445.15,300.66L444.99,300.99L445.03,301.2L445.38,300.84L445.83,300.66L445.81,300.44L446.24,300.24L446.44,300.46L446.32,300.78L446.44,301.14L446.15,301.15L445.77,301.49L445.31,301.4L445.12,301.48L444.38,301.57L444.31,301.66L443.13,301.93L442.78,302.17L442.37,302.68L441.99,303.27L441.97,303.85L441.75,304.44L441.32,304.84L440.76,305.17L440.37,305.47L440.13,305.82L439.8,305.98L439.47,306.33L438.69,306.7L438.56,307.31L438.71,307.47L438.7,307.95L438.52,308.15L437.93,308.26L437.88,308.76L437.32,308.95L436.95,309.46L436.69,309.22L436.08,309.23L436,309.51L435.82,309.47L435.73,309.79L435.26,309.8L435.07,310.17L434.48,309.96L433.82,310.44L433.74,310.35L433.84,309.61L433.78,309.29L434.04,309.25L434.23,308.97L434.09,308.75L433.54,308.23L433.76,308L433.87,307.48L433.73,307.27L433.39,307.2L433.4,306.86L433.57,306.79L433.83,306.28L433.7,306.07L433.76,305.37L433.92,305.04L433.7,304.92L433.54,304.45L433.34,304.46L433.32,304.2L433.55,304.11L433.61,303.75L433.52,303.25L433.11,303.08L432.85,302.65L432.83,302.39L433.02,302.25L433.06,301.97L432.95,301.68L433.07,301.3L432.93,300.95L432.7,301.04L432.34,301.05L432.5,300.39L432.34,300.25L432.36,299.58L432.49,299L432.52,298.59L432.84,298.4L432.95,297.9L433.11,297.7L433.39,297L433.5,296.5L433.48,296.24L433.97,295.99L434.06,295.69L433.68,295.31L433.56,294.9L433.13,294.67L433.11,294.41L432.91,294.1L432.44,294.48L431.73,295.73L431.58,296.18L431.38,296.32L431.2,296.26L431.09,295.97L430.68,296L430.42,295.7L430.45,295.17L430.27,295.24L429.88,294.73L429.86,294.34L429.64,293.77L429.41,293.86L429.22,294.13L428.76,294.3L428.57,294.57L427.9,294.76L426.77,294.79L426.6,294.39L426.66,294.04L426.5,293.78L426.61,293.6L426.23,293.35L426.25,293.15L426.04,292.7L426.13,292.28L426.29,291.96L426.49,291.95L426.57,291.72L426.48,291.24L426.1,291.31L425.62,290.78L425.58,290.6L425.2,290.34L425.27,290L425.03,289.5L425.19,289.18L425.5,289L425.46,288.82L425.7,288.41L425.48,287.84L425.49,287.52L425.71,287.31L425.68,286.8L425.8,286.44L426.07,285.95L425.99,285.72L426.33,285.47L426.46,285.23ZM512.18,347.14L512.3,347.28L512.11,347.79L511.84,347.84L511.68,347.7L511.82,347.28Z" class="land" id="NZ-OTA" title="Otago"/>
    <path d="M433.83,383.64L433.95,384.02L434.15,384.2L434.09,384.65L434.33,384.92L433.88,385.44L433.46,385.5L433.39,385.35L432.65,384.9L432.63,384.62L433.01,384.73L433.61,383.71ZM413.25,297.9L413.55,298.23L413.53,298.55L413.61,299.08L413.56,299.4L413.3,299.65L412.96,299.58L412.5,299.74L412.51,299.35L412.28,299.16L412.24,298.71L411.73,299.3L411.34,299.62L411.37,299.29L411.76,298.9L411.94,298.41L412.22,298.3L412.67,297.96L412.86,298.06ZM422.96,310.7L423.41,310.89L423.69,311.14L423.84,311.14L423.9,311.6L424.08,311.99L424.29,312.08L424.35,312.3L424.94,312.81L425.2,312.81L425.25,313.03L425.17,313.43L424.22,313.32L424.1,312.92L423.78,313.26L423.85,313.64L424.13,313.57L424.3,313.83L424.53,313.83L424.89,314.39L425.15,314.34L425.44,313.84L425.47,314.16L425.7,314.4L425.8,314.77L425.62,315.25L424.92,315.87L424.63,315.73L424.38,316.03L424.12,315.9L423.43,316.31L423.19,316.52L422.67,316.76L422.12,316.69L422.05,316.53L421.76,316.66L421.69,316.44L421.38,316.57L421.37,316.8L421.01,317.03L421.27,317.24L421.11,317.65L420.81,317.53L420.34,317.85L419.87,317.9L419.55,317.82L419.67,317.07L419.93,316.83L420.09,316.9L420.31,316.59L420.38,316.33L420.6,316.09L420.42,315.56L420.59,315.48L420.92,314.97L421.18,314.91L421.5,315.08L421.61,314.87L421.41,314.44L421.55,314.07L421.8,314L422.02,313.77L422.12,313.45L422.11,313.12L421.99,312.66L421.8,312.28L421.6,311.56L422.02,310.82L422.78,310.89ZM428.37,311.31L428.47,311.75L428.18,311.91L428.06,311.62ZM414.01,299.6L413.46,299.94L413.57,299.63ZM412.11,299.6L411.89,299.92L411.67,299.7ZM414.54,299.33L414.83,299.38L414.93,299.52L414.42,299.7L414.15,299.63L414.28,299.35ZM420.87,311.48L421.27,311.64L421.27,311.89L420.93,312.03ZM415.57,292.7L415.62,292.89L415.45,293.32L415.75,293.93L415.89,294.41L415.67,294.47L415.12,294.11L414.82,293.55L415.02,293.4L415.08,293.16ZM409.16,357.98L409.43,358.32L409.52,358.56L409.9,358.22L409.96,358.84L409.64,358.85L409.61,359.38L409.03,359.8L409.26,360.12L409.38,360.53L409.07,360.73L409.27,360.93L409.5,361.36L409.34,361.91L409.67,361.99L409.67,362.33L409.52,362.49L409.12,362.43L408.59,362.12L408.17,361.6L408.2,361.22L407.95,361.18L408.01,361.73L407.81,361.79L407.91,362.26L407.55,362.37L407.01,362.1L406.74,362.23L406.62,361.69L406.86,361.21L407.15,361.16L407.49,360.73L407.92,360.61L408.37,360.06L408.25,359.69L408.43,359.27L408.49,358.71L408.21,358.75L408.25,358.36L408.41,358.12L408.66,357.99ZM412.85,303.74L413.05,303.95L412.66,304.27L412.61,303.94ZM407.08,362.24L407.54,362.54L408.16,362.54L408.32,362.32L409.26,362.63L409.17,363L408.53,363.34L408.28,363.37L407.92,363.08L407.34,363.04L407,362.82ZM424.81,282.67L425.28,282.8L425.99,282.47L426.37,282.51L426.59,282.74L426.88,282.76L427.1,283.44L427.35,283.61L427.23,283.97L426.92,284.15L427.1,284.34L426.87,285.2L426.46,285.23L426.33,285.47L425.99,285.72L426.07,285.95L425.8,286.44L425.68,286.8L425.71,287.31L425.49,287.52L425.48,287.84L425.7,288.41L425.46,288.82L425.5,289L425.19,289.18L425.03,289.5L425.27,290L425.2,290.34L425.58,290.6L425.62,290.78L426.1,291.31L426.48,291.24L426.57,291.72L426.49,291.95L426.29,291.96L426.13,292.28L426.04,292.7L426.25,293.15L426.23,293.35L426.61,293.6L426.5,293.78L426.66,294.04L426.6,294.39L426.77,294.79L427.9,294.76L428.57,294.57L428.76,294.3L429.22,294.13L429.41,293.86L429.64,293.77L429.86,294.34L429.88,294.73L430.27,295.24L430.45,295.17L430.42,295.7L430.68,296L431.09,295.97L431.2,296.26L431.38,296.32L431.58,296.18L431.73,295.73L432.44,294.48L432.91,294.1L433.11,294.41L433.13,294.67L433.56,294.9L433.68,295.31L434.06,295.69L433.97,295.99L433.48,296.24L433.5,296.5L433.39,297L433.11,297.7L432.95,297.9L432.84,298.4L432.52,298.59L432.49,299L432.36,299.58L432.34,300.25L432.5,300.39L432.34,301.05L432.7,301.04L432.93,300.95L433.07,301.3L432.95,301.68L433.06,301.97L433.02,302.25L432.83,302.39L432.85,302.65L433.11,303.08L433.52,303.25L433.61,303.75L433.55,304.11L433.32,304.2L433.34,304.46L433.54,304.45L433.7,304.92L433.92,305.04L433.76,305.37L433.7,306.07L433.83,306.28L433.57,306.79L433.4,306.86L433.39,307.2L433.73,307.27L433.87,307.48L433.76,308L433.54,308.23L434.09,308.75L434.23,308.97L434.04,309.25L433.78,309.29L433.84,309.61L433.74,310.35L433.57,310.39L433.34,310.2L433.11,310.24L433.06,310.46L432.75,310.56L432.57,310.42L432.2,310.6L431.93,310.57L431.72,310.38L431.34,310.36L430.93,310.43L430.77,310.17L430.81,309.82L430.49,309.48L429.85,309.33L429.33,309.39L428.8,309.52L428.27,309.78L427.55,309.79L427.16,309.64L427.1,309.5L427.77,309.45L428.2,309.68L428.23,309.41L427.69,309.24L427.13,309.32L426.88,308.94L426.48,309.12L426.54,309.59L426.73,309.57L426.96,309.85L426.71,310L426.55,309.63L426.26,309.52L426.2,309.18L425.96,309L425.84,308.72L426.65,308.62L427.02,308.33L426.71,307.95L426.44,308.17L426.52,308.46L426.26,308.52L426.15,308.41L425.69,307.32L425.42,306.96L425.07,306.7L424.72,306.61L424.45,306.65L424.01,307.12L423.57,306.87L423.31,306.83L423.03,306.97L422.91,307.19L422.61,306.96L422.25,307.23L421.85,306.93L421.82,306.56L421.49,306.5L421.5,306.28L421.82,306.12L421.7,305.7L420.89,304.9L419.97,304.43L419.54,304.37L419.16,304.4L419.07,304.71L418.74,304.9L418.83,305.31L418.66,305.58L417.94,305.53L417.63,305.71L416.92,305.57L416.73,305.65L416.02,305.3L415.5,305.33L415.27,305.21L414.9,305.19L414.66,305.07L414.11,305.23L413.65,305.14L413.56,305.03L413.16,305.09L412.83,304.63L412.78,304.33L413.3,303.95L413.71,303.36L414.07,303.16L414.01,302.63L414.48,302.51L414.64,302.25L414.02,302.36L413.72,302.81L413.95,303.21L413.45,303.5L413.47,303.1L412.96,303.45L412.71,303.32L412.51,303.66L412.46,303.08L412.6,302.98L412.77,302.45L413.34,302.24L413.81,302.18L413.77,301.95L413.46,302.11L412.98,302L412.56,302.27L412.23,302.31L411.99,302.56L411.76,302.64L411.36,302.6L411.38,301.92L411.17,301.49L411.28,300.99L411.2,300.73L411.65,300.3L412.35,300.14L412.36,300.46L412.78,300.16L414.11,299.81L414.54,299.84L414.89,299.55L415.45,299.49L415.43,299.34L415.05,299.4L414.4,299.15L414.22,299.27L413.64,299.42L413.73,298.61L413.65,297.88L413.18,297.64L413.17,297.36L413.34,296.76L413.59,296.4L413.61,296.09L413.83,295.61L414.04,295.32L413.95,295.14L414.59,294.15L414.78,294.34L415.45,294.64L416.09,295.04L416.42,295.16L416.73,295.75L416.8,296.15L416.96,296.1L416.75,295.45L416.43,295.03L416.21,294.98L415.92,294.63L416.14,294.36L415.88,294.04L415.9,293.83L415.66,293.49L415.72,292.91L415.64,292.57L416.08,292.16L416.35,291.66L416.96,291L417.05,290.67L417.24,290.6L418.07,289.56L418.52,289.17L418.86,289.71L419,289.62L418.77,289.21L418.76,288.93L419.07,288.83L419.51,288.35L419.85,288.39L419.89,288.12L420.43,287.72L420.65,287.15L420.87,287.04L421.2,287.35L421.3,287.24L421.02,286.84L421.26,286.78L421.64,286.42L421.88,286.41L421.98,286.14L422.24,286.09L422.53,286.34L422.63,285.35L422.98,284.47L423.67,283.84L423.81,283.91L424.03,283.66L424.11,283.19L424.77,283.28L424.97,282.83ZM424.16,283.88L424.33,284.17L424.27,284.39L424.45,284.76L424.48,285.34L424.65,285.42L424.61,284.81L424.49,284.22Z" class="land" id="NZ-STL" title="Southland"/>
    <path d="M478.04,221.91L478.11,222.08L478.39,222.21L479,222.2L479.22,222.34L479.6,222.2L479.81,222.52L480.09,222.64L479.72,222.78L479.54,223.54L479.81,223.95L480.08,223.85L480.25,224.01L480.16,224.27L480.25,224.93L480.49,224.89L480.51,225.11L480.83,224.99L481.15,225.78L481.59,225.72L481.81,226.15L481.47,226.06L481.21,226.27L481.12,226.65L480.88,226.8L480.6,227.2L479.97,227.79L479.85,228.13L479.7,228.3L479.76,228.51L479.99,228.54L480.31,228.81L480.24,229.13L480.42,229.7L480.66,230.06L480.83,230.11L480.94,230.48L481.12,230.75L480.93,231.29L481.15,232.02L480.56,232.37L480.69,232.67L480.62,232.87L480.26,232.95L480.19,233.15L479.97,233.24L479.89,233.43L479.58,233.48L479.23,234L479.36,234.09L478.87,234.16L478.58,233.95L478.02,233.71L477.57,233.61L477.2,233.21L476.81,233.05L476.42,232.71L475.77,231.82L475.44,231.59L475.12,231.49L474.78,231.24L474.19,231.1L473.64,231.07L473.34,230.88L472.9,230.82L472.28,230.45L471.91,229.89L471.62,229.69L471.3,229.31L471.13,228.84L470.97,227.93L471.17,227.54L471.3,227L471.49,226.9L471.74,226.59L472.29,226.23L472.57,226.2L473.03,225.88L473.23,225.56L473.34,225.61L473.72,225.51L474.13,225.17L474.28,225.15L474.63,224.85L475.54,224.79L475.74,224.91L476.26,224.84L476.58,224.61L477.07,223.89L477.27,223.81L477.57,223.46L477.77,223Z" class="land" id="NZ-TKI" title="Taranaki"/>
    <path d="M487.59,199.94L487.56,200.11L487.98,200.43L487.89,200.61L487.6,200.43L487.59,200.27L487.3,200.13ZM488.84,208.1L488.69,208.26L488.65,208.67L488.4,209.1L488.52,209.39L488.19,209.4L487.83,209.25L487.79,209.49L487.99,209.81L487.79,210L488.06,210.51L488.02,210.86L488.43,211.49L488.75,212.26L488.59,212.83L488.87,212.94L488.86,213.34L489.16,213.68L488.87,213.84L489.15,214.46L489.51,214.5L489.79,214.72L489.84,214.99L490.24,215.28L490.62,215.36L490.78,215.3L491.18,215.59L491.39,215.91L491.29,216.06L491.37,216.37L491.52,216.59L491.43,216.85L491.66,217.49L491.87,217.81L492.18,217.97L492.42,217.93L492.72,218.27L493.19,218.36L493.52,218.75L493.24,219.93L493.31,220.13L492.58,219.85L492.32,220.46L491.98,220.37L491.83,220.14L492.03,219.84L491.88,219.61L491.24,219.97L490.83,219.96L490.55,219.45L490.33,219.42L489.85,220.12L489.79,220.43L490.22,220.37L490.32,220.62L490.48,220.55L491.12,220.99L490.78,221.69L491.46,222.49L491.12,222.8L490.28,222.56L490.12,223.02L490.39,223.71L490.87,224.32L491.17,224.37L491.47,224.2L491.5,224.75L491.69,225.02L491.56,225.13L491.67,225.49L491.66,225.78L491.26,225.99L490.87,226.32L490.85,226.5L490.54,226.45L490.06,226.64L489.14,226.6L489.08,226.91L488.43,227.17L488.5,227.37L488.3,227.68L487.8,228.16L486.96,228.04L486.66,228.1L485.76,227.88L486.38,226.66L486.48,226.1L486.3,225.83L486.22,225.52L486.49,225.41L486.5,225.12L486.81,224.77L486.36,224.72L485.85,224.86L485.74,224.5L485.99,224.06L485.66,223.57L485.96,223.11L485.45,222.45L485.73,222.06L485.9,221.59L485.91,221.31L486.07,221.24L486.4,220.72L486.2,220.63L485.63,220.79L485.3,220.4L484.87,220.46L484.64,220.32L484.34,220.38L484.29,220.51L483.97,220.63L483.86,220.28L483.53,220.69L483.38,220.97L482.87,221.23L482.65,221.09L482.35,221.14L482.15,221.05L481.21,221.47L480.83,221.5L480.83,222.01L480.72,222.06L480.58,222.45L480.41,222.4L480.09,222.64L479.81,222.52L479.6,222.2L479.22,222.34L479,222.2L478.39,222.21L478.11,222.08L478.04,221.91L478.19,220.08L478.15,219.8L478.27,219.29L478.18,218.56L478.57,218.17L478.84,217.73L478.85,217.37L478.78,216.95L478.82,216.65L478.53,215.73L479,215.84L479.17,215.7L479.81,215.85L479.76,215.67L480.38,215.42L480.25,215.05L479.77,215.18L479.63,215.37L479.39,215.4L479.41,214.94L479.74,214.61L479.83,214.74L480.06,214.39L480.1,214.01L479.75,214.08L479.68,214.37L479.49,214.62L479.37,214.31L479.43,214.07L479.18,213.13L479.34,212.79L479.74,212.7L479.89,212.51L480.17,212.42L480.47,212.51L480.81,212.42L480.76,211.95L480.4,212.05L480.34,212.29L480.13,212.31L479.85,212.48L479.69,211.8L479.72,211.65L479.49,210.98L479.49,210.78L479.29,210.43L479.28,210.04L479.07,209.57L478.81,208.8L478.73,208.39L479.05,208.21L479.41,207.66L479.6,207.56L479.94,207.36L480.06,207.03L480.5,207.21L480.52,206.92L480.92,206.72L481.18,206.4L480.98,205.97L480.91,205.66L481.18,205.56L481.36,205.33L481.36,205.11L481.56,204.81L482.21,204.79L482.4,204.88L482.58,204.43L482.86,204.66L482.93,204.57L483.4,204.5L483.49,204.28L483.65,204.8L483.68,205.15L483.62,205.66L483.89,206.12L483.91,206.29L484.15,206.43L484.47,206.43L485.24,206.1L485.61,205.9L485.38,205.39L485.44,204.88L485.4,204.6L485.21,204.12L485.24,204L484.66,203.24L484.48,202.76L484.71,202.67L484.65,202.44L484.76,202.28L485.21,202.26L485.25,201.93L484.91,201.45L484.67,201.36L484.69,201.08L484.81,200.82L484.73,200.45L484.48,199.98L483.98,199.71L483.83,199.39L483.84,198.96L484.18,198.83L484.51,198.94L484.65,199.13L485.17,199.24L485.42,199.73L485.56,200.23L485.71,200.15L485.94,200.47L485.86,200.91L486.12,201.02L486.19,201.45L486.94,201.47L487.23,201.23L487.39,201.28L487.56,201.11L487.69,201.38L487.88,201.37L487.92,201.61L487.63,201.62L487.29,201.86L487.29,202.12L486.89,202.29L486.95,202.59L487.44,202.41L487.86,202.63L487.84,203.01L487.99,203.14L488.2,203.55L488.06,203.72L488.16,204.21L488.46,204.91L488.4,205.12L488.45,205.5L488.35,205.75L488.46,206.26L488.31,206.33L488.48,206.72L488.52,207.1L488.88,207.8Z" class="land" id="NZ-WKO" title="Waikato"/>
    <path d="M482.26,243.12L482.53,243.15L482.84,243.38L482.75,243.65L483.08,243.64L483.32,243.78L483.67,243.58L483.99,243.63L484.02,243.38L484.18,243.31L484.37,243.48L484.74,243.51L485,242.98L486.04,243.46L486.23,243.62L486.74,243.35L486.8,243.03L487.42,243.02L487.57,243.13L487.41,243.79L487.76,243.89L487.91,243.71L488.11,243.69L488.29,243.85L488.61,243.6L488.8,243.76L488.89,243.49L489.14,243.45L489.44,243.08L489.69,243.22L490.03,243.21L490.07,242.77L490.86,242.99L491.18,243.16L491.52,243.93L491.53,244.04L491.05,245.33L490.51,245.86L490.36,246.35L490.21,246.47L490.07,247.12L489.91,247.31L489.9,247.62L489.31,248.22L489.26,248.48L489.04,248.95L488.64,249.07L488.26,249.42L488.21,249.73L487.79,250.21L487.46,250.31L487.25,250.54L486.69,250.79L486.47,251.1L486.18,251.3L485.95,251.59L485.54,251.67L485.23,252.03L484.69,252.52L484.61,252.45L484.17,252.51L483.8,252.92L483.54,252.97L483.25,252.84L483.08,252.9L482.94,252.16L482.75,252.01L482.98,251.22L482.94,250.99L482.35,250.62L482.35,250.29L482.04,250.45L481.51,250.35L480.79,250.8L480.5,251.07L480.36,250.84L480.08,250.75L480.15,250.5L479.92,250.19L480.12,249.74L480.4,249.34L480.45,249.09L480.25,248.8L479.99,248.73L479.43,249.19L479.54,249.71L479.83,249.49L479.7,250.05L479.54,249.85L479.27,250.1L479.08,250.06L478.85,250.24L478.67,250.05L478.37,250.01L478,249.39L478.08,249.11L478.26,248.87L478.62,248.81L478.82,248.67L479.04,248.16L479.21,248.09L479.57,247.5L479.81,247.45L479.93,247.25L479.91,246.83L480.11,246.61L480.35,246.59L480.67,246.29L480.91,245.81L481.04,245.03L481.41,244.76L481.66,244.41ZM480.72,244.37L480.63,244.72L480.25,245.1L480.09,244.95L480.43,244.61L480.51,244.37Z" class="land" id="NZ-WGN" title="Wellington"/>
    <path d="M458.45,243.86L458.68,244.24L458.67,244.66L459,244.95L458.96,245.21L459.37,245.64L459.77,245.62L459.81,245.9L459.57,246.17L459.38,246.18L459.23,246.48L459.43,246.7L459.56,247.01L459.82,246.55L460.05,246.7L460.3,246.55L460.61,246.61L460.66,246.9L460.92,247.1L460.97,247.38L461.2,247.41L461.27,247.63L461.75,248.05L461.89,248.47L462.26,248.4L462.28,248.75L461.9,249.01L461.65,249.05L461.37,249.15L461.63,249.53L461.45,250.2L461.52,250.41L461.25,250.63L460.98,250.73L460.49,250.73L460.12,250.81L460.14,251.46L459.73,251.67L459.49,251.94L459.55,252.33L459.39,252.93L458.65,253.26L458.73,253.59L458.66,253.8L458.31,253.81L457.73,254.08L457.63,254.24L457.68,254.52L457.66,255.74L457.49,255.8L457.38,256.27L457.12,256.61L457.31,256.78L457.4,257.23L457.75,257.34L457.58,257.71L457.88,258.27L458.43,258.36L458.59,258.61L458.79,258.59L458.98,258.77L459.5,258.81L459.61,259.08L459.48,259.73L459.81,260.22L460.03,260.44L460.4,260.48L460.44,260.22L460.66,260.14L460.73,260.24L460.42,260.72L460.4,261.22L460.16,261.37L460.04,261.3L459.59,261.47L459.47,261.7L459.24,261.79L459.09,262.09L458.67,262.2L458.63,262.46L458.23,262.8L458.22,263.11L457.78,263.4L457.58,263.73L457.6,263.97L457.04,264.19L456.92,264.11L456.55,264.19L456.59,264.36L456.14,264.53L456.08,264.87L455.81,265.1L455.84,265.46L455.58,265.49L455.51,265.71L454.8,265.92L454.86,266.33L454.59,266.56L454.7,266.83L454.54,267.02L454.26,267.13L453.99,267.05L453.6,267.2L453.39,267.09L452.79,267.26L452.6,267.09L452.5,267.25L452.13,267.33L451.96,267.71L451.57,267.55L450.49,268.28L450.57,268.62L450.38,268.76L450.4,269L449.49,269.22L449.39,269.51L449.08,269.57L448.89,269.83L449,270.1L448.72,270.2L448.44,270.75L448.12,270.81L448.1,270.56L447.5,271.05L447.49,271.36L447.21,271.47L447.11,271.64L446.85,271.67L446.54,271.85L446.19,271.86L446.21,272.11L445.84,272.19L445.76,272.59L445.56,272.73L445.3,273.08L444.92,273.04L444.73,272.86L444.63,273.03L444.23,273.18L444.14,273.47L443.72,273.69L443.68,273.83L443.28,273.98L443.06,273.75L442.93,273.87L442.14,274.17L442.05,274.46L441.66,274.61L441.57,274.89L441.15,274.99L441.15,275.75L440.68,275.99L440.69,276.43L440.22,276.68L440.32,276.83L440.17,277.14L439.59,277.42L439.61,277.67L439.32,277.65L439.14,278.03L438.8,278.16L438.48,278.54L438.5,278.78L438.04,279.15L437.88,279.01L437.45,279.11L437.33,279.03L437.05,279.14L437.17,279.53L437.05,279.89L436.64,279.92L436.4,280.2L436.22,280.14L435.97,280.29L435.95,280.49L435.59,280.69L435.37,280.9L435.03,280.7L434.85,280.2L434.62,280.28L434.54,280.7L434.16,280.77L433.57,280.73L433.41,280.47L432.89,280.66L432.52,280.86L432.42,281.02L432.08,281.15L432.18,281.43L431.93,281.59L431.8,281.83L431.23,282.04L431.04,282.3L431.1,282.6L430.97,282.84L430.9,283.51L430.68,283.72L430.48,283.86L430.15,284.11L430.13,284.31L429.73,284.01L429.5,284.09L429.23,284.45L428.25,284.81L427.95,285.12L427.26,285.25L426.87,285.2L427.1,284.34L426.92,284.15L427.23,283.97L427.35,283.61L427.1,283.44L426.88,282.76L426.59,282.74L426.37,282.51L425.99,282.47L425.28,282.8L424.81,282.67L424.57,282.34L424.88,282.28L425.2,281.98L425.28,281.81L425.64,281.58L425.86,281.32L426.09,281.26L426.24,280.81L426.68,280.46L426.7,280.07L427.01,279.8L427.04,279.65L427.34,279.54L427.65,279.62L428.2,279.54L428.49,279.44L428.74,279.14L428.96,279.12L429.28,279.46L429.77,279.46L430.45,279.23L430.86,279L431.26,278.48L431.5,278.29L432.09,278.02L432.43,277.66L432.93,277.3L433.43,276.69L434.37,276.05L435.01,275.79L435.24,275.44L435.75,275.35L435.99,275.24L436.29,275.29L436.61,275.03L436.98,275L437.25,274.81L437.48,274.47L437.8,274.41L438.12,273.81L438.77,272.97L439.06,272.69L439.69,272.62L440.19,272.28L440.49,271.94L440.75,271.44L441.01,271.34L441.45,270.83L441.77,270.62L442.3,269.85L442.47,269.47L443.32,269.45L443.29,269.26L443.67,268.74L444.36,268.43L444.61,268.47L445,268.32L445.5,268.01L445.65,267.84L446.26,267.47L447.01,266.79L447.44,266.31L447.72,265.72L448.07,265.2L448.41,264.89L448.59,264.6L448.98,264.29L449.64,263.26L449.99,262.45L450.07,262.03L450.21,261.83L450.28,261.4L450.49,261.29L450.68,260.76L450.99,260.15L451.13,258.87L451.23,258.42L451.45,257.98L451.53,257.57L451.72,257.41L451.91,256.29L452.22,255.98L452.36,255.22L452.25,255.07L452.24,254.47L452.56,254.39L452.98,254.45L453.31,254.2L453.49,254.29L454.02,254.33L454.37,254.14L454.68,253.77L455.32,253.3L455.66,252.89L455.96,252.41L456.55,251.12L457.2,250.47L457.36,249.82L457.54,248.09L457.48,247.44L457.53,246.75L457.59,246.63L457.47,245.68L457.48,245.19L457.73,244.93L457.83,244.64L458.11,244.22Z" class="land" id="NZ-WTC" title="West Coast"/>
  </g>
</svg>