<?xml version="1.0" encoding="UTF-8"?>
<svg xmlns="http://www.w3.org/2000/svg" width="608.05" height="270.13" viewBox="175.97 121.94 608.05 270.13" style="background-color:#000000">
  <!-- Created using SVG Map Generator: dojo.amcharts.com/svg-map-generator -->
  <style>
    .land { fill: #ffffff; stroke: #000000; stroke-width: 0.65; }
  </style>
  <g id="polygons">
    <path d="M356.84,277.45L355.24,276.32L354.19,276.61L353.3,279.47L353.27,280.3L354.02,281.58L354.49,283.21L353.31,282.86L352.69,284.35L352.05,283.47L352.4,281.78L352.28,280.68L352.64,279.62L352.11,277.76L352.58,275.66L352.46,273.2L352.68,271.32L351.87,269.94L352.04,265.52L353.22,265.22L354.39,265.65L354.55,267.54L354.27,268.99L354.78,270.65L355.38,273.81L356.41,276.99ZM432.89,222.27L431.59,224.49L429,225.29L429,226.79L427.81,228.15L427.67,229.73L422.9,226.94L422.5,225.1L420.89,224.53L418.79,225.05L417.84,223.21L415.96,226.72L415.96,225.74L415.96,224.76L415.96,223.76L415.96,222.76L415.96,221.74L415.96,220.72L415.96,219.68L415.96,218.64L415.96,217.58L415.96,216.52L415.96,215.44L415.96,214.35L415.96,213.25L415.96,212.14L415.96,211.02L415.96,209.88L417.85,210.94L420.3,213.27L423.76,215.8L425.26,218.3L426.55,218.12L429.7,219.04ZM416.79,200.4L415.96,200.04L415.96,199.05L415.96,197.93L415.96,197.2L418.72,197.25L419.61,199.66ZM348.46,186.69L350.81,184.07L352.22,183.77L354.59,185.85L354.34,187.89ZM360.58,176.59L361.54,174.1L365.91,175.56L365.06,178.45L362.54,178.11ZM343.98,175.46L344.81,170.92L347,168.91L349.82,172.43L351.48,169.35L357.79,173.13L355.72,176.7L352.32,177.05L347.48,179.19L345.8,178.29ZM333.4,293.19L333.13,292.67L334.04,291.83L334.36,290.61L334.35,289.13L334.06,287.16L335.56,286.37L337.16,286.88L337.58,285.77L338.71,283.96L339.23,281.38L340.2,280.36L339.89,278.84L339.44,278.71L336.78,279.78L336.39,280.36L333.86,280.38L333.59,278.79L331.47,276.29L330.08,275.58L328.9,275.66L328.07,274.87L328.21,274L327.1,271.65L326.07,268.13L324.96,266.35L323.56,266.1L321.54,264.94L319.42,265.12L316.68,265.99L315.66,267.06L316.67,267.87L316.64,269.3L315.62,270.3L314.15,273.55L314.08,274.51L312.91,274.95L311.94,275.81L309.95,275L309.03,274.52L307.59,274.68L305.96,273.83L304.06,275.07L303.88,275.54L301,276.21L300.15,276.7L297.48,276.27L296.44,276.3L295.47,275.6L295.32,274.74L294.13,274.57L293.25,273.73L291.03,273.31L288.1,274.18L285.85,273.01L285.55,270.97L284.33,270.7L280.09,269.03L278.58,270.98L278.38,271.95L279.14,273.15L278.84,274.34L277.34,275.24L276.97,274.85L275.07,274.51L274.52,274.78L273,274.48L272.39,273.09L268.3,272.72L264.68,274.8L264.7,275.28L263.32,275.97L262.25,275.96L261.61,276.71L260.79,276.9L259.61,275.56L258.88,275.84L257.25,275.41L256.89,274.38L255.66,273.79L255.14,272.51L254.15,271.93L252.71,272.63L250.99,272.6L250,271.16L248.51,272.51L245.98,267.47L244.69,265.41L242.8,263.82L242.28,262.77L239.24,264.66L237.48,264.19L236.67,263.35L233.62,263.05L233.77,261.94L233.02,259.88L232.09,260.3L230.08,259.63L228.56,260.89L225.46,261.74L224.22,261.87L223.68,262.61L222.51,262.56L218.27,263.81L217.28,263.52L216.69,264.73L217.05,265.67L216.39,267.18L216.62,268.46L215.44,269.16L214.55,267.96L213.43,267.56L213.38,265.97L214.85,263.82L214.42,262.77L213.3,262.13L211.06,263.71L209.98,262.31L208.49,259.76L211.86,259.16L212.85,257.56L212.67,256.27L211.41,255.22L211.74,253.77L213.03,252.13L214.09,250.02L215.15,247.02L215.95,241.73L217.08,229.79L220.21,227.36L223.08,224.11L225.43,222.24L227.68,219.93L228.89,217.52L229.35,209.96L228.45,207.53L226.87,206.51L227.24,201.34L226.63,198.54L228.89,196.43L230.18,191.03L231.19,189.74L234.3,189.65L236.5,190.91L236.18,194.3L234.99,197.15L236.36,200.91L236.02,209.43L237.73,211.77L237.07,214.97L234.39,219.77L233.36,220.67L231.58,219.41L230.44,220.54L232.36,221.53L235,221.93L235.84,220.61L238.14,218.77L239.77,215.41L239.14,212.47L239.46,210.96L242.6,209.9L241.84,208.7L239.85,209.38L238.11,208.87L237.75,206.44L239.01,201.77L236.96,197.69L237.94,195.56L240.57,195.73L245.99,192.56L247.56,192.64L251.06,196.09L253.53,196.08L252.19,193.43L249.92,192.05L249.51,185.85L254.47,185.26L259.57,183.9L259.67,179.03L261.38,176.15L265.58,173.09L271.22,171.31L272.94,169.25L276.79,170.78L282.56,166.93L283.68,163.2L288.74,157.53L291.89,159.42L290.24,161.82L294.46,163.67L295.46,165.2L300.63,165.17L303.15,167.61L305.24,171.29L304.81,175.08L301.89,178.66L298.49,181.28L295.75,185.1L294.99,188.16L298.52,186.41L299.2,183.15L302.36,185.01L305.56,185.75L307.7,185.05L312.91,185.72L312.88,187.73L315.09,189.28L320.8,189.41L321.04,186.06L322.85,184.74L324.91,186.13L328.46,186.36L330.39,188.06L331.26,193L329.5,194.25L331.85,199.39L334.86,200.51L336.54,195.29L339.12,198.04L342.1,196.71L344.5,198.14L348.48,196.34L348.32,192L352.44,190.74L358.18,191.75L360.03,193.07L363.06,193.02L364.9,193.83L366.74,197.29L369.93,200.85L375.6,199.51L379.19,199.8L381.39,201.07L382.49,203.49L382.2,206.07L385.05,208.01L386.45,206.72L393.9,207.44L395.25,206.28L396.38,208.53L398.07,209.43L398.57,210.8L400.89,209.59L400.04,204.49L404.71,205.88L409.45,205.7L410.81,206.74L414.03,207.98L415.96,209.88L415.96,226.72L413.48,228.55L411.67,229.16L413.7,231.01L413.8,232.69L414.85,233.92L415.24,235.77L414.49,237.11L411.53,236.14L408.04,237.89L406.78,238.88L404,240.13L403.23,241.55L400.24,243.7L399.19,244.94L397.92,243.15L396.1,243.22L394.14,244.13L393.11,243.53L390.99,244.83L388.81,245.03L388.19,245.72L387.96,247.47L386.06,250.24L385.76,251.42L387.13,253.68L387.17,255.36L387.93,255.74L388.06,257.12L386.71,257.03L385.97,257.55L385.37,259.72L386,261.5L385.37,262.13L383.77,262.1L382.6,263.12L382.31,265.41L380.15,266.82L379.9,268.39L379.3,269.74L377.03,271.99L376.62,270.64L376.39,267.83L375.94,266.45L375.03,259.75L375.75,255.72L377,254.31L378.21,252.3L380.86,250.32L382.22,248.05L385.41,244.65L385.83,243.75L388.69,242.05L389.18,240.57L389.6,235.74L388.06,236.27L387.51,238.99L386.48,239.45L383.76,242.61L380.93,238.53L378.24,238.97L375.53,242.53L374.06,243.9L372.92,245.72L374.38,247.29L372.45,248.22L371.36,247.76L370.56,248.66L369.07,247.94L368.22,246.75L365.14,245.93L364.4,246.86L361.57,247.59L359.78,247.05L354.33,247.25L352.38,248.46L348.99,252.65L346.75,254.89L345.12,257.4L342.59,259.74L341.06,260.94L342.04,261.98L343.63,261.88L343.44,263.85L344.52,264.96L346.75,264.38L346.81,262.74L348.5,262.87L351.34,265.96L350.95,268.22L351.48,268.74L350.14,271.29L349.79,273.11L349.86,275.59L349.28,278.33L347.94,279.93L346.62,281.99L346.21,283.25L345.12,285L343.64,286.54L342.53,288.15L342.08,288.42L340.84,290.4L338.46,291.99L337.54,292.3L336.1,291.87L335.13,291.14ZM282.46,150.16L284.68,143.86L286.69,143.48L290.91,151.28L288.24,153.28L280.82,155.08ZM277.98,136.15L282.12,139.91L281.08,148.43L277.93,148.5L273.06,145.86L270.42,142.54L273.62,136.85ZM268.02,135.15L270.41,127.76L274.99,124.59L278.39,129.77L277.29,135.44L272.92,136.56L271.76,137.69Z" class="land" id="RU" title="Russia - Asia"/>
    <path d="M203.47,343.23L202.2,343.84L202.02,344.96L200.52,345.7L199.18,346.03L197.21,346.72L196.07,347.74L194.94,347.74L193.96,348.41L192.93,348.74L191.03,348.96L190,349.86L189.29,349.86L188.14,350.2L187.38,349.82L186.97,349.09L187.06,348.45L186.73,347.8L186.62,346.86L186.11,344.96L186.25,343.71L186.86,343.15L186.9,341.98L187.28,341.7L188.12,342.04L190.18,341.86L190.61,342.05L192.75,342.14L193.24,342.69L194.02,342.41L194.25,341.82L195.24,340.58L196.7,339.83L201.61,339.1L202.87,342.08Z" class="land" id="YE" title="Yemen"/>
    <path d="M776.69,315.92L775.86,315.68L775.87,314.58L776.26,313.84L776.86,314.12Z" class="land" id="PS" title="Palestinian Territories"/>
    <path d="M295.37,334.61L294.42,335.01L294.33,335.43L293.19,335.6L292.93,336.8L292.04,337.42L291.43,339.15L291.88,339.97L292.9,340.95L292.87,341.35L294.04,342.79L295.46,343.78L296.79,345.44L297.23,346.59L297.59,348.07L297.54,349.07L297.8,349.62L297.45,350.15L297.42,351.73L296.79,352.43L295.87,353.08L294.18,353.99L293.42,353.93L293.02,355.28L291.23,356.21L290.93,356.71L290.09,356.71L290.13,355.34L290.44,354.56L289.43,353.97L290.14,353.76L291.04,353.07L292.34,352.95L291.82,352.47L291.81,351.88L292.63,351.8L292.76,351.35L294.59,350.64L294.53,349.49L294.75,348.79L294.29,347.61L294.61,346.6L294.83,345.65L294.06,344.8L294.4,344.28L293.23,343.56L292.9,342.69L291.55,341.32L291.16,340.58L289.91,339.44L288.54,338.49L288.77,337.89L289.63,338.01L290.27,337.28L289.69,336.16L288.8,335.63L288.1,336.07L287.22,335.72L286.53,334.34L285.58,333.04L286.23,332.38L287.05,332.91L287.54,332.34L289.34,332.45L290.05,332.08L290.85,331.28L291.8,332.05L292.97,332.08L292.96,333.01L293.29,333.72L294.33,334.43Z" class="land" id="VN" title="Vietnam"/>
    <path d="M233.37,293.32L233.2,293.83L232.09,294.84L233.1,295.53L234.15,295.81L234.79,295.19L236.24,296.4L237,296.59L234.62,297.98L233.39,297.79L232.43,297.32L233.05,296.69L232.53,296.06L231.31,296.87L230.81,296.56L229.42,299.11L227.97,299.14L227.35,299.96L228.52,301.19L228.93,302.55L228.13,303.71L228.04,304.37L225.97,304L226.05,302.6L224.44,302.12L222.02,300.58L219.48,298.62L218.23,295.9L215.81,295.62L215.2,295.22L215.22,294.08L214.81,293.21L214.13,293.2L212.68,292.11L212.13,292.32L211.39,293.45L210.66,293.52L209.96,294.2L210.05,295.53L208.31,295.4L208.31,290.18L208.31,286.96L212.63,285.63L216.73,288.38L218.38,290.47L220.41,290.16L222.48,290.34L223.26,289.96L225.26,291.63L225.11,293.87L225.93,293.89L226.45,295.8L228.33,295.68L228.93,296.87L230.22,295.3Z" class="land" id="UZ" title="Uzbekistan"/>
    <path d="M317.19,332.6L316.48,333.08L316.05,332.74L315.62,331.64L315.77,330.62L317.25,328.19L318.17,327.74L318.73,328.3L317.67,331.97Z" class="land" id="TW" title="Taiwan"/>
    <path d="M323.99,387.5L323.75,386.53L324.17,386.03L325.22,385.77L326.59,385.72L327.08,386.15L324.56,387.1Z" class="land" id="TL" title="Timor-Leste"/>
    <path d="M225.97,304L224.7,303.54L224.35,304.21L223.11,304.46L222.6,306.11L221.51,306.79L220.25,307.19L220.16,307.96L218.82,308.36L217.16,307.6L216.92,305.48L215.62,305.49L215.15,304.81L214.31,304.36L213.77,303.64L212.43,303.39L210.73,302.73L210.35,302.16L209.09,302.09L208.73,302.47L207.64,302.41L206.8,302.83L206.25,303.68L204.86,304.01L204.7,302.78L204.78,300.59L203.53,299.55L204.12,299.04L203.3,298.34L202.88,297.44L203.57,296.5L204.78,296.89L206.19,296.35L205.99,295.68L205.16,294.96L204.74,293.67L203.27,293.93L202.48,294.37L203.74,293.41L205.2,293.12L206.51,294.06L207.59,295.53L208.31,295.4L210.05,295.53L209.96,294.2L210.66,293.52L211.39,293.45L212.13,292.32L212.68,292.11L214.13,293.2L214.81,293.21L215.22,294.08L215.2,295.22L215.81,295.62L218.23,295.9L219.48,298.62L222.02,300.58L224.44,302.12L226.05,302.6Z" class="land" id="TM" title="Turkmenistan"/>
    <path d="M233.39,297.79L232.54,298.21L231.73,297.87L231,298.1L230.5,298.84L231.12,299.24L234.14,299.19L235.21,299.72L237.87,299.51L238.15,301.33L239.73,301.54L239.98,304.25L238.92,303.86L238.07,304.25L237.62,303.74L236.64,304.17L234.81,305.37L234.19,304.47L234.43,302.91L233.89,301.97L233.26,301.65L232.12,302.87L232.1,303.51L231.16,303.48L230.56,304.51L230.05,304.05L228.55,304.84L228.04,304.37L228.13,303.71L228.93,302.55L228.52,301.19L227.35,299.96L227.97,299.14L229.42,299.11L230.81,296.56L231.31,296.87L232.53,296.06L233.05,296.69L232.43,297.32Z" class="land" id="TJ" title="Tajikistan"/>
    <path d="M282.22,336.75L282.93,337.16L282.68,337.75L283.07,338.2L283.95,338.06L284.17,339.13L283.78,340.14L283.87,341.77L285.54,340.48L286.57,341.04L287.19,340.61L287.86,340.12L288.63,340.29L290.08,342.08L289.97,343.23L290.47,344.08L291.43,344.88L291.25,345.47L291.19,346.91L290.7,347.23L290.02,347.08L287.37,347.25L285.9,348.62L286.2,350.11L286.63,350.53L286.93,351.76L286.64,351.24L284.9,350.08L283.46,350.04L283.63,348.8L283.12,348.65L282.05,348.94L282,350.97L281.39,352.18L281.16,353.16L280.62,354.13L280.61,355.12L281,356.01L281.56,355.84L281.95,356.93L282.49,357.61L283,359.45L283.72,359.99L284.53,359.98L285.54,361.03L285.15,361.73L284.12,361.79L283.78,361.03L282.6,360.51L282.22,360.69L281.51,359.96L280.43,358.25L279.64,357.48L279.07,357.35L279.29,355.88L279.85,354.35L279.94,353.55L280.66,352.79L281.37,351.63L281.02,350.32L280.71,349.99L280.57,348.31L279.08,346.42L278.99,345.74L279.62,345.39L279.82,343.82L279.4,342.65L278.32,341.42L277.81,339.98L278.26,339.76L278.36,338.27L279.07,337.86L280.2,337.72L281.83,336.56Z" class="land" id="TH" title="Thailand"/>
    <path d="M781.38,312.73L778.98,314.27L778.24,314.13L777.26,313.44L777.39,312.05L777.52,311.58L778.59,310.46L778.34,309.66L777.57,309.63L777.52,308.41L777.22,307.7L777.83,307.17L778.72,305.15L780.02,305.48L781.28,304.94L781.38,304.98L781.38,312.73ZM178.62,304.98L179.49,305.38L180.48,305.4L182.74,304.53L185.51,304.51L185.51,304.51L184.55,305.58L183.93,305.75L183.64,306.66L183.83,307.56L183.56,309.35L182.71,310.23L179.51,312.17L178.62,312.73L178.62,304.98Z" class="land" id="SY" title="Syria"/>
    <path d="M288.66,369.27L288.41,369.38L288.13,369.28L288.41,369.08Z" class="land" id="SG" title="Singapore"/>
    <path d="M781.38,330.27L780.83,329.75L780.2,329.55L779.59,328.58L779.54,327.71L778.48,326.2L778.03,325.28L776.24,322.57L775.3,322.35L775.86,320.05L777.64,320.36L778.88,319.06L780.07,318.81L780.93,317.84L779.22,315.9L781.38,315.25L781.38,330.27ZM178.62,315.25L179.88,314.88L180.13,314.65L182.18,315.02L185.03,316.71L186.34,317.85L189.46,320.36L192.49,320.54L192.49,320.54L194,320.75L194.4,321.62L195.69,321.6L196.47,323.34L197.31,324.18L198.28,324.84L198.66,325.82L198.36,326.19L199.24,328.09L199.65,328.64L200.43,328.97L200.93,329.56L200.97,329.94L202.58,332.04L206.85,332.6L206.99,332.45L207.75,333.72L206.64,337.32L201.61,339.1L196.7,339.83L195.24,340.58L194.25,341.82L194.02,342.41L193.24,342.69L192.75,342.14L190.61,342.05L190.18,341.86L188.12,342.04L187.28,341.7L186.9,341.98L186.86,343.15L186.25,343.71L185.4,341.85L184.49,341.06L183.62,339.66L182.83,337.75L180.91,336.39L180.04,334.97L179.86,333.94L180.05,333.02L179.79,332.13L178.99,330.61L178.62,330.27L178.62,315.25Z" class="land" id="SA" title="Saudi Arabia"/>
    <path d="M200.43,328.97L199.65,328.64L199.58,327.42L199.98,326.43L200.89,326.57L200.98,327.97Z" class="land" id="QA" title="Qatar"/>
    <path d="M333.13,292.67L333.4,293.19L333.01,293.19L331.84,294.52L331.76,296.43L329.41,298.23L328.18,298.79L327.88,300.04L328.54,300.3L329.53,301.29L328.96,301.97L327.51,301.97L326.61,303.09L325.45,302.89L324.63,303.2L324.2,302.54L323.36,302.35L323.99,301.44L324.56,299.86L324.48,299.35L323.13,298.77L322.81,298.3L323.69,297.31L325.53,296.32L327.06,294.37L327.52,294.93L329.08,295.25L328.97,293.9L330.44,293.79L331.1,292.94L331.78,292.8L332.08,291.61Z" class="land" id="KP" title="North Korea"/>
    <path d="M375.71,382.72L375.31,383.02L374.68,382.78L374.44,382.08L373.74,381.52L374.1,380.79ZM368.94,378.7L369.76,378.78L369.75,379.43L369.1,379.89L369.32,380.48L368.27,380.81L367.79,381.43L366.45,382.03L365.15,382.05L363.06,381.17L362.96,380.8L366.23,380.78L367.33,380.59L367.96,379.82L368.53,379.69L368.33,378.78ZM350.62,386.83L350.62,382.15L350.62,378.24L350.62,375.87L350.98,375.9L352.69,376.67L354.87,377.25L355.71,377.84L356.49,377.91L357.51,378.79L357.92,378.85L358.65,379.59L358.79,380.68L359.71,380.92L360.77,381.43L361.34,381.48L362.05,382.1L362.13,382.68L360.91,382.78L360.64,383.13L361.03,383.89L361.92,384.73L362.6,385.11L362.8,385.88L363.36,386.72L364.47,386.75L364.4,387.32L365.52,388.35L366.85,388.77L366.54,389.41L365.76,389.31L365.32,388.93L362,388.45L360.2,386.67L359.09,385.07L357.32,384.6L356.54,384.21L355.04,385.28L354.17,385.47L354.63,386.57L353.42,387.19L352.72,386.92L350.89,387.01ZM370.7,379.47L370.22,379.04L370.08,378.19L370.78,378.38L370.98,378.8Z" class="land" id="PG" title="Papua New Guinea"/>
    <path d="M325.56,355.82L326.09,356.63L326.28,358.35L326.52,359.33L325.68,360.2L325.26,359.19L324.55,360.1L324.99,361.47L324.64,362L323.27,361.44L322.33,360.76L322.18,359.76L322.55,359.08L322.15,358.63L321.35,358.39L321.18,359.06L319.07,358.38L319.42,358.01L320.38,357.8L321.25,356.87L322.58,357.6L322.96,357.04L323.42,357.11L323.66,356.42L324.77,356.13L324.75,355.08ZM323.2,355.03L322.09,355.31L322.49,354.44ZM320.75,356.26L319.79,355.55L319.64,354.74L320.29,354.52L320.22,353.81L320.5,353.16L321.48,353.34L320.8,354.9L321.04,355.76ZM311,357.32L311.07,356.86L312.35,355.78L313.87,354.07L314.27,353.23L314.98,353.73L314.15,354.57L313.46,354.81L312.88,355.93ZM323.16,352.38L323.76,352.33L323.9,353.34L324.3,354.22L323.51,354.39L323.52,353.34L322.95,353.1ZM319.68,351.92L320.79,352.05L320.14,353.27L319.18,353.61L318.79,353.19L319.03,351.87ZM324.28,350.36L324.77,350.93L324.64,351.34L324.93,352.74L324.27,352.72L323.68,351.64L322.95,351L322.69,350.28ZM316.68,348.72L317.52,348.8L318.05,349.32L318.08,350.17L317.57,350.89L317.05,350.38L316.35,349.1ZM317.35,339.77L318.59,340.33L319.35,340.14L319.11,341.28L319.72,342.39L319.08,344.03L318.18,344.47L317.84,345.53L318.34,346.55L318.52,347.63L319.67,347.27L320.29,347.39L320.91,348.26L322.44,349.48L322.3,350.29L321.05,349.47L320.8,348.79L319.85,347.98L319.53,348.7L318.48,347.93L317.52,348.44L316.54,347.5L316.99,346.59L315.64,346.35L315.22,343.79L315.77,344.27L316.19,342.69L316.1,341.49L316.51,339.96Z" class="land" id="PH" title="Philippines"/>
    <path d="M244.85,307.86L243.59,308.65L242.83,309.41L241.35,309.89L238.99,309.35L238.42,309.58L238.74,311.9L238.48,312.43L239.59,313.87L240.72,314.35L239.34,315.46L239.55,316.79L238.32,317.96L238.17,318.62L237.45,318.93L236.65,320.67L235.71,321.2L234.92,322.71L233.02,323.15L232.46,322.59L231.07,324.19L230.9,324.89L232.05,325.51L231.92,326.26L232.23,326.94L232.88,327.47L233.54,328.82L233.54,329.35L232.7,329.32L231.31,329.77L229.66,329.6L229.65,330.15L228.72,330.35L227.89,330.43L227.28,329.77L227.05,328.7L226.27,328.5L226.26,327.83L225.81,327.18L224.55,327.59L223.04,327.68L222.85,327.91L221.28,327.53L220.89,327.86L219.35,327.78L218.92,328L217.7,327.87L218.18,325.94L219.13,325.35L220.35,325.15L220.35,324.05L219.67,324.05L219.63,322.63L218.99,321.85L217.76,321.13L217.25,320.01L216.46,319.08L219.19,319.95L221.02,319.77L221.91,319.98L222.61,319.65L223.58,319.65L225.39,319.12L225.76,317.03L226.64,316.26L227.25,316.44L227.73,315.87L228.8,315.28L229.89,315.62L230.58,315.02L230.52,314.04L230.95,312.87L232.26,312.18L231.57,311.11L233.55,310.8L233.41,309.83L234.5,308.5L234.18,307.16L233.77,306.73L234.5,305.91L236.18,305.09L238.1,304.97L239.39,304.69L240.74,304.92L241.57,305.47L241.74,306.78L242.26,307.21L244.26,307.9Z" class="land" id="PK" title="Pakistan"/>
    <path d="M209,328.29L209.42,329.22L210.39,330.23L212.66,330.74L214.71,333.33L213.99,334.63L213.2,335.32L212.49,336.59L211.47,336.88L211.22,338.01L211.38,339.06L210.32,339.26L209.45,339.82L209.27,340.56L208.8,340.94L207.48,341.13L206.78,342.54L205.11,342.6L204.35,343.03L203.47,343.23L202.87,342.08L201.61,339.1L206.64,337.32L207.75,333.72L206.99,332.45L207.01,331.85L207.95,329.64L208.46,328.73Z" class="land" id="OM" title="Oman"/>
    <path d="M262.11,322.88L261.9,324.27L262.2,325.04L262.02,325.59L260.73,325.72L260.28,325.36L259.19,325.32L257.39,325.01L256.38,324.44L256.25,323.96L255.38,323.6L254.04,323.82L251.63,322.89L249.51,321.4L248.65,321.05L249.2,319.33L250.22,318.49L250.9,318.15L251.95,318.17L252.15,318.58L253.81,319.55L254.53,320.38L255.4,320.31L255.61,320.9L257.11,322.03L258.04,322.11L259.26,322.77L259.51,322.47L260.49,322.94Z" class="land" id="NP" title="Nepal"/>
    <path d="M285.54,361.03L287.01,362.24L287.74,363.37L287.83,364.14L287.65,365.18L287.78,366.59L288.4,367.18L289.2,369.02L288.2,369.07L286.58,368.39L284.19,366.67L284.19,366.05L283.22,364.85L283.05,363.7L282.61,362.13L282.59,361.46L282.22,360.69L282.6,360.51L283.78,361.03L284.12,361.79L285.15,361.73ZM311.44,364.51L310.65,364.23L308.63,364.21L308.08,364.9L307.89,366.42L307.28,366.74L307.43,367.27L306.78,367.73L306.85,368.18L306.37,369.04L305.29,369.1L304.83,369.43L302.91,368.89L301.72,369.83L300.33,369.8L299.61,370.06L298.18,368.8L298.14,368.11L298.74,368.62L300.33,368.96L300.69,368.59L300.84,367.42L301.65,366.72L303.86,366.13L305.33,364.39L305.57,363.8L306.48,364.76L306.86,364.14L306.71,363.59L307.18,363.29L307.37,363.29L308,363.04L307.83,362.42L308.47,362.22L309.04,361.22L309.64,360.56L310.97,360.3L311.5,360.57L311.51,361.54L312.16,361.35L313.15,362.12L314.2,362.42L314.05,362.95L312.47,363.41L312.99,364.19Z" class="land" id="MY" title="Malaysia"/>
    <path d="M309.95,275L308.07,279.79L308.64,280.43L310.08,279.97L311.07,280.52L311.77,279.68L312.99,279.69L315.02,281.76L315.01,283.09L312.67,282.82L311.04,283.69L309.75,283.86L309.21,285.05L308.27,285.86L306.32,286.08L304.77,287.55L301.94,286.8L301.11,288.44L302,289.97L300.45,290.82L299.43,292.12L297.83,292.85L295.7,292.86L293.35,293.22L290.72,294.47L289.55,294.15L288.23,294.44L287.16,293.86L285.32,293.39L284.89,292.82L281.99,292.34L281.13,292.59L277.34,292.09L275.97,292.24L275.17,291.13L274.23,288.65L273.16,288.48L271.4,287.18L269.94,286.86L267.93,286.77L266.74,286.48L266.38,285.7L266.95,284.47L266.73,282.24L265.8,280.46L264.54,279.64L263.68,279.64L261.89,278.25L261.61,276.71L262.25,275.96L263.32,275.97L264.7,275.28L264.68,274.8L268.3,272.72L272.39,273.09L273,274.48L274.52,274.78L275.07,274.51L276.97,274.85L277.34,275.24L278.84,274.34L279.14,273.15L278.38,271.95L278.58,270.98L280.09,269.03L284.33,270.7L285.55,270.97L285.85,273.01L288.1,274.18L291.03,273.31L293.25,273.73L294.13,274.57L295.32,274.74L295.47,275.6L296.44,276.3L297.48,276.27L300.15,276.7L301,276.21L303.88,275.54L304.06,275.07L305.96,273.83L307.59,274.68L309.03,274.52Z" class="land" id="MN" title="Mongolia"/>
    <path d="M283.93,334.51L283.28,334.96L282.44,336.01L282.22,336.75L281.83,336.56L280.2,337.72L279.07,337.86L278.36,338.27L278.26,339.76L277.81,339.98L278.32,341.42L279.4,342.65L279.82,343.82L279.62,345.39L278.99,345.74L279.08,346.42L280.57,348.31L280.71,349.99L281.02,350.32L281.37,351.63L280.66,352.79L279.94,353.55L279.85,354.35L279.45,353.52L279.8,352.99L279.91,351.96L279.63,349.27L279.08,348.28L278.35,346.34L278.03,343.42L277.62,343.44L277.29,342.5L276.36,343.37L274.92,344.06L274.3,344.84L273.55,344.67L272.96,343.85L272.33,344.14L272.96,341.61L272.69,340.5L272.09,339.28L271.48,339.04L271.97,338.31L270.9,337.21L270.3,337.18L269.85,336.31L269.17,335.9L268.92,335L269.62,334.69L269.59,333.77L270.24,333.72L270.57,333.07L270.43,332.43L270.91,331.67L270.81,330.05L272.19,330.31L273.16,328.16L273.01,327.49L273.87,326.32L273.86,325.28L275.42,324.11L276.44,323.88L277.56,322.75L277.54,322.22L277.9,321.66L278.83,322.36L279.17,323.49L279.76,323.44L279.89,325.3L279.77,326.55L278.19,328.18L277.88,329.19L278.14,330.27L279.03,329.88L279.95,329.87L280.12,331.57L280.91,331.74L280.91,332.82L280.67,333.5L281.88,333.68L282.38,334.69L283.42,334.35Z" class="land" id="MM" title="Myanmar"/>
    <path d="M237.67,364.52L237.6,364.51L237.66,364.4L237.7,364.39Z" class="land" id="MV" title="Maldives"/>
    <path d="M304.59,333.37L304.61,333.29L304.7,333.32Z" class="land" id="MO" title="Macau"/>
    <path d="M248.5,354.99L248.96,355.02L249.72,355.75L250.83,357.33L250.94,357.86L251.67,359.26L251.65,359.92L251.27,360.72L249.74,361.47L248.69,361.18L248.3,360.04L248.18,358.76L248.41,356.54L248.73,355.82Z" class="land" id="LK" title="Sri Lanka"/>
    <path d="M777.39,312.05L776.63,312.76L776.12,312.75L777.57,309.63L778.34,309.66L778.59,310.46L777.52,311.58Z" class="land" id="LB" title="Lebanon"/>
    <path d="M285.58,333.04L286.53,334.34L287.22,335.72L288.1,336.07L288.8,335.63L289.69,336.16L290.27,337.28L289.63,338.01L288.77,337.89L288.54,338.49L289.91,339.44L291.16,340.58L291.55,341.32L292.9,342.69L293.23,343.56L294.4,344.28L294.06,344.8L294.83,345.65L294.61,346.6L293.44,347.28L292.9,346.82L292.03,347.23L291.9,347.95L290.7,347.23L291.19,346.91L291.25,345.47L291.43,344.88L290.47,344.08L289.97,343.23L290.08,342.08L288.63,340.29L287.86,340.12L287.19,340.61L286.57,341.04L285.54,340.48L283.87,341.77L283.78,340.14L284.17,339.13L283.95,338.06L283.07,338.2L282.68,337.75L282.93,337.16L282.22,336.75L282.44,336.01L283.28,334.96L283.93,334.51L284.07,335.12L284.87,335.26L284.94,334.13L284.57,333.27Z" class="land" id="LA" title="Lao People's Democratic Republic"/>
    <path d="M195.69,321.6L194.4,321.62L194,320.75L192.49,320.54L193.47,318.88L194.41,318.62L194.92,318.84L194.9,319.54Z" class="land" id="KW" title="Kuwait"/>
    <path d="M329.53,301.29L329.94,302.25L331.13,304.16L331.37,305.27L331.25,306.71L331.51,306.93L330.93,308.5L329.75,308.67L329.64,309.14L328.42,308.97L327.28,309.68L326.36,309.9L326.04,308.56L326.75,307.29L326.47,305.83L325.91,305L326.8,304.33L326.61,303.09L327.51,301.97L328.96,301.97Z" class="land" id="KR" title="South Korea"/>
    <path d="M289.43,353.97L289.15,353.75L287.93,353.64L288.25,353.16L287.93,352.72L287.3,353.12L287.25,352.18L286.93,351.76L286.63,350.53L286.2,350.11L285.9,348.62L287.37,347.25L290.02,347.08L290.7,347.23L291.9,347.95L292.03,347.23L292.9,346.82L293.44,347.28L294.61,346.6L294.29,347.61L294.75,348.79L294.53,349.49L294.59,350.64L292.76,351.35L292.63,351.8L291.81,351.88L291.82,352.47L292.34,352.95L291.04,353.07L290.14,353.76Z" class="land" id="KH" title="Cambodia"/>
    <path d="M248.88,293.45L248.89,293.8L247.35,294.36L245.79,295.29L245.39,295.94L243.21,296.15L242.64,297.33L241.62,297.65L241.14,296.99L238.47,298.22L238.34,299.17L237.87,299.51L235.21,299.72L234.14,299.19L231.12,299.24L230.5,298.84L231,298.1L231.73,297.87L232.54,298.21L233.39,297.79L234.62,297.98L237,296.59L236.24,296.4L234.79,295.19L234.15,295.81L233.1,295.53L232.09,294.84L233.2,293.83L233.37,293.32L233.89,292.21L234.83,292.01L236.57,292.61L237.52,292.53L237.74,291.6L238.84,291.05L240.24,291.82L243.42,291.67L247.13,292.16L247.68,292.84Z" class="land" id="KG" title="Kyrgyzstan"/>
    <path d="M260.79,276.9L259.84,277.1L259.5,278.32L258.16,278.68L257.78,279.86L258,281.5L256.54,282.54L253.88,281.67L253.56,282.05L252.43,285.71L252.68,286.66L251.21,286.21L248.63,286.93L249.29,287.55L249.13,289.07L249.85,291.24L248.81,292.37L248.88,293.45L247.68,292.84L247.13,292.16L243.42,291.67L240.24,291.82L238.84,291.05L237.74,291.6L237.52,292.53L236.57,292.61L234.83,292.01L233.89,292.21L233.37,293.32L230.22,295.3L228.93,296.87L228.33,295.68L226.45,295.8L225.93,293.89L225.11,293.87L225.26,291.63L223.26,289.96L222.48,290.34L220.41,290.16L218.38,290.47L216.73,288.38L212.63,285.63L208.31,286.96L208.31,290.18L208.31,295.4L207.59,295.53L206.51,294.06L205.2,293.12L203.74,293.41L202.48,294.37L202.65,292.15L201.39,291.81L200.48,290.5L199.69,288.85L199.74,287.83L200.67,286.1L202.54,286L203.55,284.1L203.61,282.94L203.18,282.24L201.97,282.52L200.27,281.86L196.94,283.72L196.56,282.68L195.14,280.29L193.44,279.78L192.71,278.61L193.3,276.87L192.95,276.18L193.83,273.83L194.46,273.56L195.68,274.99L196.37,274.51L196.31,272.97L197.46,271.69L198.72,271.14L199.63,269.96L201,270.62L202.2,270.09L202.61,270.62L203.89,270.62L205.71,272.5L206.22,271.92L208.01,272.97L209.17,271.86L210.76,272.21L212.3,271.74L213.18,272.72L214.73,273.02L217.37,272.28L217.33,270.73L215.82,270.17L215.44,269.16L216.62,268.46L216.39,267.18L217.05,265.67L216.69,264.73L217.28,263.52L218.27,263.81L222.51,262.56L223.68,262.61L224.22,261.87L225.46,261.74L228.56,260.89L230.08,259.63L232.09,260.3L233.02,259.88L233.77,261.94L233.62,263.05L236.67,263.35L237.48,264.19L239.24,264.66L242.28,262.77L242.8,263.82L244.69,265.41L245.98,267.47L248.51,272.51L250,271.16L250.99,272.6L252.71,272.63L254.15,271.93L255.14,272.51L255.66,273.79L256.89,274.38L257.25,275.41L258.88,275.84L259.61,275.56Z" class="land" id="KZ" title="Kazakhstan"/>
    <path d="M334.21,311.71L334.9,311.6L335.42,312.4L335.56,313.22L335.15,313.72L334.49,316.07L333.23,316.51L332.57,314.72L333.32,313.67L331.54,312.44L333.84,311.16ZM339.54,310.39L340.18,311.27L339.25,312.42L338.33,311.89L337.75,312.19L337.23,313.23L336.42,313.08L336.21,311.89L336.91,310.92L338.24,310.87L339.07,310.18ZM351.05,295.28L351.44,296.97L352.3,298.65L352.17,300.24L351.77,300.54L351.45,301.76L350.85,301.9L350.54,302.73L350.61,304.73L350.04,305.77L350.03,306.69L350.45,307.38L349.76,307.83L349.52,308.56L348.65,308.96L348.4,308.04L347.73,308.3L347.29,309.49L346.61,308.7L345.96,309.7L343.77,309.27L343.72,310.25L342.85,310.55L342.15,311.79L341.38,311.8L340.79,310.32L341.26,309.89L340.18,309.35L337.51,310.29L335.99,310.45L335.16,310.8L333.79,310.95L333.93,310.11L334.51,310.07L337.14,307.83L339.3,307.77L340.91,307.34L341.76,307.84L343.46,305.27L344.54,305.21L344.83,304.84L346.18,304.28L347.12,302.96L347.99,302.32L349.05,299.6L348.86,297L349.46,296.45L350.86,296.37ZM355.39,289.02L357.02,289.44L357.53,289.84L357.94,291.2L356.74,291.73L355.64,291.88L354.99,292.52L354.41,293.88L352.09,292.57L350.64,293.1L349.52,293.12L350.1,294.29L349.64,294.96L348.69,293L348.81,292.41L350.3,291.11L351.16,291.15L351.74,289.25L351.97,287.62L351.64,286.58L352.23,285.74L353.52,287.38Z" class="land" id="JP" title="Japan"/>
    <path d="M781.38,315.25L779.22,315.9L780.93,317.84L780.07,318.81L778.88,319.06L777.64,320.36L775.86,320.05L775.9,319.66L776.69,315.92L776.86,314.12L777.26,313.44L778.24,314.13L778.98,314.27L781.38,312.73L781.38,315.25ZM178.62,312.73L179.51,312.17L180.13,314.65L180.13,314.65L179.88,314.88L178.62,315.25L178.62,312.73Z" class="land" id="JO" title="Jordan"/>
    <path d="M777.26,313.44L776.86,314.12L776.26,313.84L775.87,314.58L775.86,315.68L776.69,315.92L775.9,319.66L774.68,316.45L775.07,315.72L775.4,315.1L776.12,312.75L776.63,312.76L777.39,312.05Z" class="land" id="IL" title="Israel"/>
    <path d="M189.54,304.44L190.54,306.78L191.14,307.16L191.83,308.61L191.07,309.28L190.6,310.96L191.85,312.45L191.79,313L193.9,314.06L194.67,315.3L194.42,316.86L194.97,316.88L194.98,317.9L195.87,318.88L194.92,318.84L194.41,318.62L193.47,318.88L192.49,320.54L189.46,320.36L186.34,317.85L185.03,316.71L182.18,315.02L180.13,314.65L179.51,312.17L182.71,310.23L183.56,309.35L183.83,307.56L183.64,306.66L183.93,305.75L184.55,305.58L185.51,304.51L186.2,303.95L187.45,304.22L188.52,304.14L188.73,304.78Z" class="land" id="IQ" title="Iraq"/>
    <path d="M204.86,304.01L206.25,303.68L206.8,302.83L207.64,302.41L208.73,302.47L209.09,302.09L210.35,302.16L210.73,302.73L212.43,303.39L213.77,303.64L214.31,304.36L215.15,304.81L215.62,305.49L216.92,305.48L217.16,307.6L216.85,309.17L215.86,310.71L215.9,311.63L216.58,311.9L215.98,312.64L216.43,314.4L216.48,315.92L217.82,316.11L218.03,317.19L216.89,318.56L216.46,319.08L217.25,320.01L217.76,321.13L218.99,321.85L219.63,322.63L219.67,324.05L220.35,324.05L220.35,325.15L219.13,325.35L218.18,325.94L217.7,327.87L217.41,328.06L214.13,327.36L212.04,327.15L210.58,326.78L209.99,324.7L208.94,324.15L207.76,324.56L206.5,325.35L204.51,325.04L202.81,323.91L202.45,323.36L201.09,322.93L200.44,322.38L200.08,321.25L199.43,320.45L199.39,319.92L198.27,318.4L197.56,318.75L196.49,318.57L195.87,318.88L194.98,317.9L194.97,316.88L194.42,316.86L194.67,315.3L193.9,314.06L191.79,313L191.85,312.45L190.6,310.96L191.07,309.28L191.83,308.61L191.14,307.16L190.54,306.78L189.54,304.44L189.2,303.16L188.61,302.82L188.98,301.86L188.3,299.67L189.24,298.82L190.73,300.47L192.53,300.69L194.57,299.08L194.95,299L195.36,300.53L194.99,300.87L195.95,301.75L196.36,301.69L196.76,303.33L198.52,303.88L199.2,304.71L200.18,305.27L201.97,305.53L205.03,304.83Z" class="land" id="IR" title="Iran"/>
    <path d="M235.96,383.89L235.92,383.87L235.93,383.77L235.87,383.64L235.96,383.69Z" class="land" id="IO" title="British Indian Ocean Territory"/>
    <path d="M246.39,315.12L246.6,316.27L247.42,316.66L247.48,316.71L248.39,317.07L248.41,317.08L248.85,317.7L250.22,318.49L249.2,319.33L248.65,321.05L249.51,321.4L251.63,322.89L254.04,323.82L255.38,323.6L256.25,323.96L256.38,324.44L257.39,325.01L259.19,325.32L260.28,325.36L260.73,325.72L262.02,325.59L262.2,325.04L261.9,324.27L262.11,322.88L262.97,322.46L263.35,322.88L263.42,323.93L263.36,324.59L264.88,325.08L265.85,324.73L266.51,324.95L268.62,324.79L268.76,323.97L268.01,323.09L268.59,323.15L269.74,322.73L270.64,321.51L271.81,321.11L273.02,320.13L274.35,320.62L275.38,319.87L276.05,320.63L276.62,321.94L277.54,322.22L277.56,322.75L276.44,323.88L275.42,324.11L273.86,325.28L273.87,326.32L273.01,327.49L273.16,328.16L272.19,330.31L270.81,330.05L270.91,331.67L270.43,332.43L270.57,333.07L270.24,333.72L269.59,333.77L269.45,332.49L269.04,330.67L268.52,330.99L267.99,331.95L267.48,331.72L267.22,330.71L267.56,329.92L268.42,329.73L269.04,328.44L268.71,327.93L266.01,327.96L264.96,327.68L264.98,326.5L262.66,325.7L262.07,326.6L262.68,327.18L262.69,327.9L262.17,329.2L263.15,329.66L262.88,330.68L263.17,331.12L263.69,333.56L263.69,334.35L262.35,334.41L261.84,334.04L260.42,334.63L260.02,335.1L260.21,336.06L259.83,336.75L259.04,337.46L257.87,337.86L256.52,338.87L255.4,340.34L254.65,340.73L253.89,341.54L252.48,342.44L252.31,343.38L251.48,343.78L250.61,343.9L250.17,344.78L249.61,344.54L249.02,344.86L248.62,345.97L248.72,347.46L249.1,348.92L248.92,350.08L248.29,351.28L248.26,354.12L247.51,354.15L246.85,355.21L246.82,355.91L245.89,356.19L245.5,356.55L245.28,357.41L244.38,357.93L243.45,357.37L242.76,356.53L242.38,355.6L242.41,354.8L241.37,352.35L240.49,351.16L239.78,349.41L239.61,348.4L239.13,346.97L238.4,345.96L238.37,345.41L237.61,344.26L237.38,343.55L237.07,341.52L236.6,339.65L236.26,337.61L236.61,336.31L236.5,335.32L236.05,334.27L236.13,333.22L235.69,333.24L235.2,334.04L235.56,334.57L235.16,335.25L233.5,335.99L232.99,335.99L232,335.36L230.13,333.37L232.09,332.69L232.21,331.97L231.23,332.35L230.51,332.19L229.51,331.57L228.72,330.35L229.65,330.15L229.66,329.6L231.31,329.77L232.7,329.32L233.54,329.35L233.54,328.82L232.88,327.47L232.23,326.94L231.92,326.26L232.05,325.51L230.9,324.89L231.07,324.19L232.46,322.59L233.02,323.15L234.92,322.71L235.71,321.2L236.65,320.67L237.45,318.93L238.17,318.62L238.32,317.96L239.55,316.79L239.34,315.46L240.72,314.35L239.59,313.87L238.48,312.43L238.74,311.9L238.42,309.58L238.99,309.35L241.35,309.89L242.83,309.41L243.59,308.65L244.85,307.86L244.87,307.88L245.66,309.58L246.75,310.19L246.44,310.73L246.53,311.91L247.05,312.46L247.08,312.57L247.22,313.78L247.22,313.91L245.84,313.87Z" class="land" id="IN" title="India"/>
    <path d="M315.52,387.27L316.35,387.78L316.9,388.39L316.24,388.83L314.84,387.94L313.97,387.83L314.14,387.28ZM323.99,387.5L322.92,388.58L321.96,388.91L321.51,388.27L321.71,387.68L322.26,387.21L322.95,386.95L323.75,386.53ZM309.88,385.98L309.44,386.51L308.91,385.68L309.48,385.28ZM320.16,385.97L318.27,386.46L317.24,386.52L315.18,386.12L315.37,385.69L316.53,385.35L317.92,385.92L318.8,385.71L319.29,386ZM312.56,385.48L313.81,385.51L313.84,386.21L312.47,386.36L310.58,386.8L310.13,386.64L310.21,385.84L310.76,385.56L311.43,385.66L312.35,385.15ZM307.88,385.2L308.31,385.63L307.53,386.29L306.25,385.14ZM346.54,385.4L346.14,385.62L345.11,385.38L345.65,384.33L346.14,383.99L346.93,383.91L347.3,384.42ZM334.47,384.94L334.36,384.04L335.08,383.99ZM305.2,383.43L304.57,383.62L303.39,383.49L303.56,383.08L305.42,383.04ZM339.84,382.31L339.54,382.94L339.04,382.86L339.23,381.86ZM294.36,381.58L294.85,381.93L295.91,382.01L296.55,382.9L299.47,383.16L299.99,382.36L300.69,382.69L301.34,382.66L302.26,383.07L303.01,383.13L303.44,384.18L304.2,384.46L305.58,384.32L306.2,384.76L306.21,385.89L305.73,386L304.21,385.42L303.25,385.63L301.29,385.45L299.78,385.19L298.83,384.75L296.65,384.38L296.17,384.59L295.27,384.47L294.22,384.05L293.12,383.95L292.93,383.34L291.2,382.88L292.19,381.42L293.45,381.73ZM340.19,381.07L340.21,381.85L339.68,382.13L339.52,381.08ZM319.93,380.34L319.47,379.49L320.03,379.24ZM326.99,376.67L327.61,377.18L327.61,377.59L326.7,377.91L325.91,377.54L325.59,376.81ZM331.84,376.3L332.88,376.51L333.69,377.48L333.6,377.96L331.99,377.07L331.36,377.29L330.52,377.07L329.6,377.22L329.04,376.83L329.23,376.3L331.29,376.18ZM295.76,376.52L294.77,376.88L294.85,375.8L295.54,375.85ZM323.82,374.36L322.9,374.86L322.84,374.33ZM292.14,374.3L292.68,375.63L293.2,376.03L292.98,376.62L292.06,376.23L291.7,375.15L290.61,374.92L291.37,374.06ZM329.15,374.28L328.16,374.39L328.31,373.73ZM280.62,374.48L280.13,374.29L279.68,373.51L280.12,373.03L280.79,374.23ZM350.62,375.87L350.62,378.24L350.62,382.15L350.62,386.83L348.88,385.11L347.08,385.18L347.46,384.24L346.89,383.67L347.09,383.01L346.38,382.14L345.74,380.67L344.12,379.76L342.26,379.09L340.95,378.96L339.19,377.86L338.36,377.14L337.69,378.31L337.22,378.36L336.86,377.71L336.85,377.02L336.18,376.48L337.59,375.58L338.29,375.77L338.81,375.02L337.21,375.31L336.11,375.26L335.63,374.83L335.48,374.11L334.41,373.83L334.35,372.93L335.27,372.68L335.81,372.26L336.64,372.1L338.06,372.72L338.9,372.75L339.38,373.78L339.12,374.38L339.21,375.18L340.68,377.08L341.43,377.1L342.7,375.83L342.95,375.31L343.7,375.18L344.17,374.58L345.32,373.98L346.73,374.5L348.64,375.43L350.03,375.6ZM277.8,369.05L278.56,369.87L278.46,370.45L277.67,369.92ZM323.69,369.83L322.92,370.71L321.79,370.99L320.67,370.69L318.59,370.77L317.89,370.67L316.09,370.75L315.52,372.01L315.67,372.59L316.37,373.24L316.62,373.79L317.23,373.86L318.05,372.93L318.8,373.06L319.32,372.77L320.34,372.76L319.7,373.76L318.38,374.62L318.6,375.41L319.52,376.86L319.28,377.57L320.32,378.39L320.36,378.79L319.2,379.04L318.71,379.63L317.99,379.18L318.21,378.36L317.04,377.46L317.27,376.11L316.6,375.97L315.93,376.61L316.24,377.71L316.21,379.24L316.03,380.79L315.03,381.05L314.46,380.6L314.85,378.91L314.87,378.26L314.53,377.32L313.82,377.43L313.47,376.13L313.98,375.66L314.37,374.73L314.35,373.86L315.12,372.31L315.18,371.1L315.96,369.87L316.37,370.13L317.03,369.34L318.17,369.71L319.58,369.8L320.35,370.08L320.99,369.95L321.94,370.1L322.66,369.79L323.86,368.65L324.27,368.98ZM328.45,370.08L329.61,368.96L330.07,369.65L329.4,370.03L330.06,370.9L328.15,370.68L327.93,369.4L328.28,368.41L328.92,368.65L328.92,369.27ZM311.44,364.51L311.54,365.41L310.76,365.48L311.5,366.37L312.27,367.62L311.93,368.2L312.29,368.65L313.8,369.86L313.05,370.14L311.73,370.28L311.36,371.11L311.26,372.04L311.42,372.79L309.74,373.97L309.52,374.94L309.75,375.35L308.73,377.52L306.62,378.49L306.36,377.36L305.6,376.99L305.12,377.29L304.66,376.83L303.74,376.84L303.11,377.2L302.59,377.06L301.81,377.42L301.81,376.62L301.05,376.41L300.51,376.62L299.15,376.4L298.79,373.84L298.4,373.19L297.85,372.96L297.36,372.33L297.52,371.45L296.99,370.91L296.93,370.17L297.21,369L298.14,368.11L298.18,368.8L299.61,370.06L300.33,369.8L301.72,369.83L302.91,368.89L304.83,369.43L305.29,369.1L306.37,369.04L306.85,368.18L306.78,367.73L307.43,367.27L307.28,366.74L307.89,366.42L308.08,364.9L308.63,364.21L310.65,364.23ZM276.15,362.73L277.75,362.72L278.52,363.32L279.09,364.1L279.18,364.64L281.57,366.17L282.78,367.72L283.77,367.72L284.49,368.67L285.01,368.79L286.15,370.2L287.15,370.68L287.84,370.7L288.36,371.42L287.76,371.82L287.76,372.39L288.25,372.99L289.32,373.24L289.83,375.5L291.05,375.49L292.14,376.7L291.8,377.55L291.88,379.9L291.76,381.02L290.97,380.81L290.53,381.14L289.79,380.76L289.72,381.4L288.43,380.02L286.27,378.46L285.58,377.53L284.66,376.81L283.44,375.09L283.45,374.74L282.53,372.89L281.34,371.33L280.61,370.91L280,369L279.61,368.32L278.17,367.55L277.98,366.73L276.94,365.51L276.07,365.11L274.47,363.52L273.99,362.64L274.7,362.09L275.54,362.62Z" class="land" id="ID" title="Indonesia"/>
    <path d="M305.48,332.8L305.9,332.75L305.91,333.19Z" class="land" id="HK" title="Hong Kong"/>
    <path d="M300.25,337.33L300.46,337.93L299.72,338.78L299.52,339.53L297.96,340.47L296.59,339.91L296.57,338.49L298.18,337.34L299.75,337.18ZM333.13,292.67L332.08,291.61L331.78,292.8L331.1,292.94L330.44,293.79L328.97,293.9L329.08,295.25L327.52,294.93L327.06,294.37L325.53,296.32L323.69,297.31L322.81,298.3L322.38,298.66L321.11,298.83L319.41,299.69L318.49,299.62L318.04,299.1L319.31,297.12L318.62,296.46L317.47,296.33L316.31,297.81L314.82,298.53L313.68,300.12L311.79,300.19L311.41,301.29L312.18,302.23L313.73,302.53L313.98,303.26L313.75,304.04L314.58,304.47L316.76,302.98L318.25,303.77L319.86,303.84L319.72,304.85L318.74,304.82L317.16,305.57L315.6,307.1L314.19,308.85L314.81,309.73L315.84,310.25L316.96,312.88L316.93,313.59L317.85,314.16L317.77,315.18L318.65,317.02L317.17,317.72L317.45,318.22L318.76,319.01L318.38,320.24L318.19,321.94L317.34,322.08L315.97,324.34L314.73,327.15L313.87,327.83L313.09,329.02L312.3,328.94L312.25,329.64L309.71,331.59L309.59,332.01L307.97,332.42L305.9,332.75L305.48,332.8L304.82,332.17L304.7,333.32L304.61,333.29L304.59,333.37L303.8,333.51L303.09,334.13L302.02,334L301.44,334.52L300.05,334.83L299.09,335.46L299.62,336.39L298.97,336.84L298.2,335.67L298.65,334.66L295.96,334.28L295.37,334.61L294.33,334.43L293.29,333.72L292.96,333.01L292.97,332.08L291.8,332.05L290.85,331.28L290.05,332.08L289.34,332.45L287.54,332.34L287.05,332.91L286.23,332.38L285.58,333.04L284.57,333.27L284.94,334.13L284.87,335.26L284.07,335.12L283.93,334.51L283.42,334.35L282.38,334.69L281.88,333.68L280.67,333.5L280.91,332.82L280.91,331.74L280.12,331.57L279.95,329.87L279.03,329.88L278.14,330.27L277.88,329.19L278.19,328.18L279.77,326.55L279.89,325.3L279.76,323.44L279.17,323.49L278.83,322.36L277.9,321.66L277.54,322.22L276.62,321.94L276.05,320.63L275.38,319.87L274.35,320.62L273.02,320.13L271.81,321.11L270.64,321.51L269.74,322.73L268.59,323.15L268.01,323.09L267.96,322.73L265.87,322.48L265.24,322.04L264.5,322.43L263.42,323.93L263.35,322.88L262.97,322.46L262.11,322.88L260.49,322.94L259.51,322.47L259.26,322.77L258.04,322.11L257.11,322.03L255.61,320.9L255.4,320.31L254.53,320.38L253.81,319.55L252.15,318.58L251.95,318.17L250.9,318.15L250.22,318.49L248.85,317.7L248.41,317.08L248.39,317.07L247.48,316.71L247.42,316.66L246.6,316.27L246.39,315.12L245.84,313.87L247.22,313.91L247.22,313.78L247.08,312.57L247.05,312.46L246.53,311.91L246.44,310.73L246.75,310.19L245.66,309.58L244.87,307.88L244.85,307.86L244.26,307.9L242.26,307.21L241.74,306.78L241.57,305.47L240.74,304.92L239.39,304.69L239.98,304.25L239.73,301.54L238.15,301.33L237.87,299.51L238.34,299.17L238.47,298.22L241.14,296.99L241.62,297.65L242.64,297.33L243.21,296.15L245.39,295.94L245.79,295.29L247.35,294.36L248.89,293.8L248.88,293.45L248.81,292.37L249.85,291.24L249.13,289.07L249.29,287.55L248.63,286.93L251.21,286.21L252.68,286.66L252.43,285.71L253.56,282.05L253.88,281.67L256.54,282.54L258,281.5L257.78,279.86L258.16,278.68L259.5,278.32L259.84,277.1L260.79,276.9L261.61,276.71L261.89,278.25L263.68,279.64L264.54,279.64L265.8,280.46L266.73,282.24L266.95,284.47L266.38,285.7L266.74,286.48L267.93,286.77L269.94,286.86L271.4,287.18L273.16,288.48L274.23,288.65L275.17,291.13L275.97,292.24L277.34,292.09L281.13,292.59L281.99,292.34L284.89,292.82L285.32,293.39L287.16,293.86L288.23,294.44L289.55,294.15L290.72,294.47L293.35,293.22L295.7,292.86L297.83,292.85L299.43,292.12L300.45,290.82L302,289.97L301.11,288.44L301.94,286.8L304.77,287.55L306.32,286.08L308.27,285.86L309.21,285.05L309.75,283.86L311.04,283.69L312.67,282.82L315.01,283.09L315.02,281.76L312.99,279.69L311.77,279.68L311.07,280.52L310.08,279.97L308.64,280.43L308.07,279.79L309.95,275L311.94,275.81L312.91,274.95L314.08,274.51L314.15,273.55L315.62,270.3L316.64,269.3L316.67,267.87L315.66,267.06L316.68,265.99L319.42,265.12L321.54,264.94L323.56,266.1L324.96,266.35L326.07,268.13L327.1,271.65L328.21,274L328.07,274.87L328.9,275.66L330.08,275.58L331.47,276.29L333.59,278.79L333.86,280.38L336.39,280.36L336.78,279.78L339.44,278.71L339.89,278.84L340.2,280.36L339.23,281.38L338.71,283.96L337.58,285.77L337.16,286.88L335.56,286.37L334.06,287.16L334.35,289.13L334.36,290.61L334.04,291.83Z" class="land" id="CN" title="China"/>
    <path d="M268.01,323.09L268.76,323.97L268.62,324.79L266.51,324.95L265.85,324.73L264.88,325.08L263.36,324.59L263.42,323.93L264.5,322.43L265.24,322.04L265.87,322.48L267.96,322.73Z" class="land" id="BT" title="Bhutan"/>
    <path d="M307.18,363.29L306.71,363.59L306.86,364.14L306.48,364.76L305.57,363.8L306.87,363.21L307.18,363.29L307.37,363.29Z" class="land" id="BN" title="Brunei"/>
    <path d="M199.32,326.61L199.08,326.46L199.06,326.04L199.32,326.16Z" class="land" id="BH" title="Bahrain"/>
    <path d="M269.59,333.77L269.62,334.69L268.92,335L269.17,335.9L268.72,335.21L268.64,334.29L268.11,332.81L267.63,332.28L266.86,332.65L266,332.36L266.26,333.26L265.54,334.06L264.96,333.76L263.99,334.23L263.69,333.56L263.17,331.12L262.88,330.68L263.15,329.66L262.17,329.2L262.69,327.9L262.68,327.18L262.07,326.6L262.66,325.7L264.98,326.5L264.96,327.68L266.01,327.96L268.71,327.93L269.04,328.44L268.42,329.73L267.56,329.92L267.22,330.71L267.48,331.72L267.99,331.95L268.52,330.99L269.04,330.67L269.45,332.49Z" class="land" id="BD" title="Bangladesh"/>
    <path d="M208.85,327.04L209,328.29L208.46,328.73L207.95,329.64L207.01,331.85L206.99,332.45L206.85,332.6L202.58,332.04L200.97,329.94L200.93,329.56L201.49,330.11L202.74,329.8L204.82,329.95L205.66,329.58L206.25,328.6L208.25,326.78L208.48,326.28Z" class="land" id="AE" title="United Arab Emirates"/>
    <path d="M239.98,304.25L239.39,304.69L238.1,304.97L236.18,305.09L234.5,305.91L233.77,306.73L234.18,307.16L234.5,308.5L233.41,309.83L233.55,310.8L231.57,311.11L232.26,312.18L230.95,312.87L230.52,314.04L230.58,315.02L229.89,315.62L228.8,315.28L227.73,315.87L227.25,316.44L226.64,316.26L225.76,317.03L225.39,319.12L223.58,319.65L222.61,319.65L221.91,319.98L221.02,319.77L219.19,319.95L216.46,319.08L216.89,318.56L218.03,317.19L217.82,316.11L216.48,315.92L216.43,314.4L215.98,312.64L216.58,311.9L215.9,311.63L215.86,310.71L216.85,309.17L217.16,307.6L218.82,308.36L220.16,307.96L220.25,307.19L221.51,306.79L222.6,306.11L223.11,304.46L224.35,304.21L224.7,303.54L225.97,304L228.04,304.37L228.55,304.84L230.05,304.05L230.56,304.51L231.16,303.48L232.1,303.51L232.12,302.87L233.26,301.65L233.89,301.97L234.43,302.91L234.19,304.47L234.81,305.37L236.64,304.17L237.62,303.74L238.07,304.25L238.92,303.86Z" class="land" id="AF" title="Afghanistan"/>
  </g>
</svg>