<?xml version="1.0" encoding="UTF-8"?>
<svg xmlns="http://www.w3.org/2000/svg" width="345.07" height="328.02" viewBox="307.47 92.99 345.07 328.02" style="background-color:#000000">
  <!-- Created using SVG Map Generator: dojo.amcharts.com/svg-map-generator -->
  <style>
    .land { fill: #ffffff; stroke: #000000; stroke-width: 0.65; }
  </style>
  <g id="polygons">
    <path d="M606.15,312.26L606.07,312.26L606.05,312.18L606.13,312.17Z" class="land" id="GO" title="Glorioso Islands"/>
    <path d="M587.21,335.94L587.14,335.93L587.12,335.83L587.22,335.89Z" class="land" id="JU" title="Juan De Nova Island"/>
    <path d="M539.39,359.54L532.61,358.39L531.37,358.6L530,356.88L525.87,355.81L524.3,353.54L524.43,351.16L518.04,346.75L514.25,339.08L516.77,339.77L521.6,339.8L525.4,335.16L528.85,333.57L529.49,331.21L532.89,329.72L535.67,329.71L535.84,331.24L539.17,331.36L542.11,333.12L546.31,334.35L546.5,341.56L545.34,344.38L546.55,348.24L544.35,351.97L543.9,354.75Z" class="land" id="ZW" title="Zimbabwe"/>
    <path d="M546.19,303.07L547.99,304.99L549.27,308.08L547.61,309.36L547.47,312.09L548.18,316.16L546.61,316.76L546.39,319.3L545.16,320.96L547.37,322.68L534.98,326.89L535.67,329.71L532.89,329.72L529.49,331.21L528.85,333.57L525.4,335.16L521.6,339.8L516.77,339.77L514.25,339.08L510.15,337.71L506.42,338.4L501.29,333.86L500.58,331.07L500.58,318.34L508.35,318.34L508.97,315.87L508.86,309.27L511.16,311.68L513.94,310.85L514.63,312.47L517.45,313.6L521.3,313.64L527.17,316.13L529.91,319.92L533.16,320.02L533.16,314.73L530.12,315.56L527.17,311.87L528.34,308.41L528.31,304.86L527.35,302.3L529.73,299.09L537.15,297.95L542.12,301.57Z" class="land" id="ZM" title="Zambia"/>
    <path d="M539.39,359.54L540.46,364.43L542.3,368.9L542.14,375.8L539.92,374.82L537.37,377.91L538.45,381.17L542.18,382.08L542.83,379.9L546.05,379.95L544.58,386.29L543.55,388.29L539.58,391.9L535.22,399.58L529.25,406.06L525.1,409.82L519.13,413.35L512.45,415.41L507.28,414.48L501.69,414.9L499.78,416.43L494.54,416.89L490.81,418.36L487.36,415.1L483.48,409.36L485.03,407.83L484.87,403.35L482.64,399.81L479.61,392.02L477.52,388.27L480.05,385.5L481.69,388.66L484.42,389.48L489.18,389.63L492.25,387.48L492.25,370.35L493.77,371.51L495.76,376.55L495.41,379.94L499.19,379.97L503.33,376.32L504.33,373.48L505.94,372.6L512.12,375.15L515.61,374.17L516.98,370.21L520.82,367.89L522.12,364.62L526.56,360.86L531.37,358.6L532.61,358.39ZM524.97,389.66L521.73,393.27L523.13,396.41L525.75,397.98L527.31,395.59L530.26,394.49L531.48,391.38L528.29,388.1Z" class="land" id="ZA" title="South Africa"/>
    <path d="M550.29,267.85L537.11,267.87L536.14,268.12L534.44,269.38L532.25,269.46L532.84,263.26L533.78,260.25L539.24,255.15L537.05,253.43L537.51,249.11L538.82,247.88L541.52,247.81L542.77,248.95L545.85,247.82L548.57,248L550.59,246.06L552.33,248.27L554.71,255.07L553.98,258.54L552.7,259.33L550.46,262.95Z" class="land" id="UG" title="Uganda"/>
    <path d="M550.29,267.85L555.69,270.67L565.89,276.37L566.53,279L572.47,283.25L570.78,288.22L571.01,290.12L573.51,292.42L572.74,295.1L572.81,299L574.81,305.21L577.64,307.54L575.66,309.05L569.42,311.57L567.04,311.07L565.46,312.69L561.19,312.86L558.14,311.74L554.7,312.27L553.19,309.97L552.88,305.7L552.03,304.44L546.19,303.07L542.12,301.57L537.15,297.95L535.32,293.78L532.81,291.32L531.85,288.84L532.33,287.27L531.28,284.47L531.53,282.24L534.63,280.72L537.31,277.33L536.16,275.84L536.32,273.68L537.47,273.42L537.41,270.19L536.14,268.12L537.11,267.87Z" class="land" id="TZ" title="Tanzania"/>
    <path d="M456.91,116.88L456.91,120.69L454.08,122.33L451.11,125.36L451.54,128.67L448.63,131.35L446.65,122.37L443.69,120.05L441.31,116.63L440.27,112.38L443.32,109.08L443.94,106.69L443.26,99.78L444.7,97.75L449.33,95.64L453.02,98.05L453.1,103.19L455.3,106.5L451.13,111.37L451.3,113.54Z" class="land" id="TN" title="Tunisia"/>
    <path d="M412.7,217.56L412.2,220.24L414.49,221.78L415.62,225.78L415.71,237.7L413.9,238.23L411.14,235.04L411.59,232.93L410.68,227.46L411.15,224.48L410.04,223.9L410.46,220.77L408.7,219.09L408.66,217.03Z" class="land" id="TG" title="Togo"/>
    <path d="M504.25,217.87L502.72,217.54L499.52,220.21L495.55,224.28L493.75,225.46L488.77,225.93L488.61,227.44L485.89,230.07L482.53,230.28L478.92,232.1L477.23,231.54L473.48,232.21L471.97,227.86L468.7,225.14L467.22,223.07L468.33,221.85L473.74,221.93L472.03,219.02L471.82,213.93L469.46,209.09L467.58,208.66L465.67,205.98L465.01,203.08L468.85,197.17L473.46,192.13L474.55,178.97L475.44,177.19L472.24,171.75L471.39,165.12L475.58,163.08L488.95,170.23L500.93,176.58L508.92,180.77L508.93,197.03L505.27,197.37L502.79,204.17L501.11,205.87L501.62,207.59L499.94,209.9L502.13,210.45L502.98,214.68L504.51,216.06Z" class="land" id="TD" title="Chad"/>
    <path d="M640.5,283.26L639.84,282.91L640.14,282.7Z" class="land" id="SC" title="Seychelles"/>
    <path d="M542.14,375.8L542.83,379.9L542.18,382.08L538.45,381.17L537.37,377.91L539.92,374.82Z" class="land" id="SZ" title="Eswatini"/>
    <path d="M436.71,263.17L436.14,262.25L436.82,261.99L437.09,262.65Z" class="land" id="ST" title="Sao Tome and Principe"/>
    <path d="M582.1,270.74L579.79,267.3L579.73,251.93L583.56,247.07L587.35,245.76L588.74,244.28L592.34,243.01L596.31,243.17L600.45,238.62L608.97,230.22L604.8,230.22L592.48,226.05L590.23,224.39L586.8,219.13L587.89,217.53L589.24,215.4L591.77,218.44L594,219.94L596.32,219.92L599.96,218.22L603.08,218.61L606.58,216.79L612.83,216.44L617.86,215.28L620.7,213.34L622.63,213.99L621.92,216.1L622.16,218.98L621.14,220.69L620.84,224.19L614.68,234.45L613.43,237.88L608.96,244.9L600.94,253.35L593.77,257.87L590.16,261.08L583.96,267.73Z" class="land" id="SO" title="Somalia"/>
    <path d="M366.07,228.17L364.56,231.22L360.97,234.81L356.89,232.79L355.24,230.81L353.53,225.79L355.76,224.42L356.83,222.35L362.23,221.86L364.38,224.67Z" class="land" id="SL" title="Sierra Leone"/>
    <path d="M385.21,331.25L384.87,331.07L385.15,330.85Z" class="land" id="SH" title="Saint Helena"/>
    <path d="M357.75,201.23L358.84,203.83L358.69,206.29L361.46,209.25L361.46,211.55L357.7,211.87L354.4,210.57L351.71,210.4L345.59,210.37L344.01,211.18L339.27,211.76L339.06,208.73L342.93,208.33L344.28,206.49L339.9,206.49L337.37,201.96L337.46,200.74L340.01,196.78L341.54,193.7L345.94,193.28L349.33,193.56L351.13,195.44L353.04,195.82L355.34,199.36Z" class="land" id="SN" title="Senegal"/>
    <path d="M551.02,224.05L551.09,227.76L547.5,228.54L546.58,230.41L549.3,231.59L553.66,235.84L555.98,240.74L550.59,246.06L548.57,248L545.85,247.82L542.77,248.95L541.52,247.81L538.82,247.88L537.51,249.11L534.83,247.06L532.67,244.53L530.48,245.36L526.48,245.52L523.19,242.34L521.86,239.55L519.48,238.32L518.85,235.94L514.76,233.01L512.56,229.63L510.22,228.98L509.62,227.41L511.22,226.47L512.28,222.72L513.6,220.45L516.5,219.99L519.64,223.77L525.2,223.46L525.88,224.61L529.2,224.62L534.03,220.59L537.1,222.85L539.12,222.62L544.04,217.28L543.75,214.48L547.35,212.34L546.83,215.01L547.24,218.16L550.24,220.92Z" class="land" id="SS" title="South Sudan"/>
    <path d="M562.66,169.62L563.83,173.63L564.24,180.39L565.17,183.76L569.91,187.34L568.43,189.18L564.91,191.46L563.24,191.48L562.84,194.79L560.81,199.84L561.22,203.61L559.48,210.17L557.35,210.98L555.33,214.05L554.58,218.1L551.84,219.53L551.02,224.05L550.24,220.92L547.24,218.16L546.83,215.01L547.35,212.34L543.75,214.48L544.04,217.28L539.12,222.62L537.1,222.85L534.03,220.59L529.2,224.62L525.88,224.61L525.2,223.46L519.64,223.77L516.5,219.99L513.6,220.45L512.28,222.72L511.22,226.47L509.62,227.41L507.08,226.77L507.53,222.52L504.25,217.87L504.51,216.06L502.98,214.68L502.13,210.45L499.94,209.9L501.62,207.59L501.11,205.87L502.79,204.17L505.27,197.37L508.93,197.03L508.92,180.77L508.92,178.56L513.03,178.56L513.09,169.63L529.02,169.63L540,169.63L547.62,169.63Z" class="land" id="SD" title="Sudan"/>
    <path d="M372.74,143.61L372.74,145.35L372.75,151.37L358.85,151.37L358.82,162.98L354.62,165.1L354.68,172.6L338.22,172.62L337.87,174.96L338.36,170.06L340.1,168.11L341.36,164.65L343.96,160.22L346.25,158.04L348.85,150.17L352.35,147.93L354.01,143.63Z" class="land" id="EH" title="Western Sahara"/>
    <path d="M536.14,268.12L537.41,270.19L537.47,273.42L536.32,273.68L533.73,273.43L533.47,275L529.91,275.02L530.39,271.43L532.25,269.46L534.44,269.38Z" class="land" id="RW" title="Rwanda"/>
    <path d="M641.57,354.77L639.76,354.47L639.54,352.82L641,352.83Z" class="land" id="RE" title="Reunion"/>
    <path d="M337.28,118.44L339.35,118.99L338.75,119.53L337.36,119.17Z" class="land" id="PT" title="Madeira"/>
    <path d="M465.67,205.98L467.58,208.66L468.14,211.63L469.93,212.81L469.64,215.44L466.86,216.93L462.85,224.19L462.34,226.47L460.66,227.7L457.11,235.69L455.44,236.77L453.16,234.15L451.24,234.43L446.72,238.57L444.62,243.82L443.52,244.65L438.77,244.83L434.28,245.77L432.24,244.27L429.21,238.5L426.15,236.89L420.23,237.06L420.14,230.74L420.51,225.79L421.64,225.64L424.93,219.19L423.48,215.85L423.94,214.57L424.15,211.01L425.4,209.96L426.24,207.04L431.84,205.26L435.57,206.41L437.87,208.97L441.42,207.56L445.43,209.39L449.04,209.81L451.41,207.85L456.52,207.49L460.91,208.6L461.7,207.6Z" class="land" id="NG" title="Nigeria"/>
    <path d="M471.39,165.12L472.24,171.75L475.44,177.19L474.55,178.97L473.46,192.13L468.85,197.17L465.01,203.08L465.67,205.98L461.7,207.6L460.91,208.6L456.52,207.49L451.41,207.85L449.04,209.81L445.43,209.39L441.42,207.56L437.87,208.97L435.57,206.41L431.84,205.26L426.24,207.04L425.4,209.96L424.15,211.01L423.94,214.57L420.95,211.7L418.9,213.71L417.1,210.25L415.47,210.56L413.06,208.82L413.02,206.64L411.52,205.99L409.63,202.57L409.85,200.79L412.95,200.46L414.37,199.23L423.55,198.87L425.11,197.14L426.6,191.75L426.57,182.34L433.28,180.85L440.14,174.66L452.36,166.9L458.84,162.75L465.15,164.28L468.27,166.82Z" class="land" id="NE" title="Niger"/>
    <path d="M506.42,338.4L510.15,337.71L514.25,339.08L510.5,339.88L507.25,341.97L506.08,340.1L496.39,341.38L496.37,357.73L492.23,357.73L492.25,370.35L492.25,387.48L489.18,389.63L484.42,389.48L481.69,388.66L480.05,385.5L477.52,388.27L474.48,385.19L472.9,382.46L471.35,377.47L470.8,371.52L469.4,367.71L469.51,360.9L468.65,358.59L465.02,352.88L463.85,349.62L460.89,344.05L458.04,339.99L457.9,336.7L461.26,336.54L463.56,335.47L467.05,337.31L479.46,337.32L485.64,337.35L487.43,338.95L498.23,339.98Z" class="land" id="NA" title="Namibia"/>
    <path d="M597.3,318.24L596.84,317.89L597.12,317.1L597.48,317.28Z" class="land" id="YT" title="Mayotte"/>
    <path d="M554.7,312.27L553.44,312.32L552.2,314.97L553.04,319.88L555.9,322.18L558.4,325.51L558.01,331.51L555.56,333.69L552.34,332.13L551.73,330.77L552.95,328.22L552.08,324.38L549.18,325.07L547.37,322.68L545.16,320.96L546.39,319.3L546.61,316.76L548.18,316.16L547.47,312.09L547.61,309.36L549.27,308.08L547.99,304.99L546.19,303.07L552.03,304.44L552.88,305.7L553.19,309.97Z" class="land" id="MW" title="Malawi"/>
    <path d="M649.3,350.95L648.19,349.81L648.98,348.79L649.88,349.74Z" class="land" id="MU" title="Mauritius"/>
    <path d="M357.75,201.23L355.34,199.36L353.04,195.82L351.13,195.44L349.33,193.56L345.94,193.28L341.54,193.7L340.01,196.78L340.01,194.84L341.91,189.35L341.89,185.07L340.09,181.37L341.36,177.53L340.45,175.64L337.87,174.96L338.22,172.62L354.68,172.6L354.62,165.1L358.82,162.98L358.85,151.37L372.75,151.37L372.74,145.35L379.8,150L388.84,155.99L381.45,155.99L383.23,172.82L384.06,180.56L385.48,193.61L386.6,194.85L385.96,198.26L370.69,198.26L364.35,198.58L363.52,199.76L360.99,197.65L359.45,200.43Z" class="land" id="MR" title="Mauritania"/>
    <path d="M546.05,379.95L542.83,379.9L542.14,375.8L542.3,368.9L540.46,364.43L539.39,359.54L543.9,354.75L544.35,351.97L546.55,348.24L545.34,344.38L546.5,341.56L546.31,334.35L542.11,333.12L539.17,331.36L535.84,331.24L535.67,329.71L534.98,326.89L547.37,322.68L549.18,325.07L552.08,324.38L552.95,328.22L551.73,330.77L552.34,332.13L555.56,333.69L558.01,331.51L558.4,325.51L555.9,322.18L553.04,319.88L552.2,314.97L553.44,312.32L554.7,312.27L558.14,311.74L561.19,312.86L565.46,312.69L567.04,311.07L569.42,311.57L575.66,309.05L577.64,307.54L577.39,311.23L578.13,316.78L578.38,324.3L579.19,326.03L578.04,328.98L575.06,333.15L571.89,335.49L567.97,336.67L564.22,338.84L561.29,342.25L554.65,347.97L553.61,350.59L555.98,356.16L556.18,359.52L557.26,362.08L555.51,369.26L547.97,372.57L545.66,374.34Z" class="land" id="MZ" title="Mozambique"/>
    <path d="M426.57,182.34L426.6,191.75L425.11,197.14L423.55,198.87L414.37,199.23L412.95,200.46L409.85,200.79L405.77,200.2L401.58,202.62L398.7,203.54L394.04,208.17L390.9,208.49L390.48,211.83L386.9,214.01L385.92,219.96L383.79,220.94L382.84,218.7L379.32,220.91L377.01,219.96L375.63,221.08L374.63,219.91L373.89,215.88L372.17,214.66L371.24,211.56L368,213.09L366.11,212.37L364.43,213.7L361.46,211.55L361.46,209.25L358.69,206.29L358.84,203.83L357.75,201.23L359.45,200.43L360.99,197.65L363.52,199.76L364.35,198.58L370.69,198.26L385.96,198.26L386.6,194.85L385.48,193.61L384.06,180.56L383.23,172.82L381.45,155.99L388.84,155.99L395.36,160.64L403.55,166.47L413.72,173.63L415.97,176.86L422.3,179.47L423.12,183.02Z" class="land" id="ML" title="Mali"/>
    <path d="M615.47,315.91L617.14,318.65L618.38,325.78L619.41,328.6L615.1,336.66L615.22,339.53L611.59,350.83L608.68,359.83L607.22,366.22L605.63,370.39L603.76,372.06L597.04,373.87L592.53,371.35L591.08,368.42L591.23,364.65L589.88,361.73L589.33,357.95L590.31,354.84L591.78,353.59L594.07,348.45L594.25,346.27L592.55,341.25L592.3,337.32L594.14,334.31L594.37,332.2L602.11,330.02L608.28,324.97L609.04,322.46L612.38,319.48L612.81,316.03Z" class="land" id="MG" title="Madagascar"/>
    <path d="M399.69,107.2L401.46,108.99L401.94,116.2L404.5,120.42L403.63,122.29L398.74,122.09L392.99,124.39L392.33,128.04L388.23,130.21L386.23,132.67L381.84,133.38L376.91,135.58L372.84,138.59L372.74,143.61L354.01,143.63L354.96,142.4L361.29,140.18L365.23,136.94L368.64,131.93L367.77,128.99L368.05,125.55L370.4,119.91L373.11,116.85L380.17,112.94L382.46,108.87L384.24,103.71L386.44,102.97L387.66,105.34L390.89,106.91L393.55,106.3Z" class="land" id="MA" title="Morocco"/>
    <path d="M524.97,389.66L528.29,388.1L531.48,391.38L530.26,394.49L527.31,395.59L525.75,397.98L523.13,396.41L521.73,393.27Z" class="land" id="LS" title="Lesotho"/>
    <path d="M513.8,124.42L512.56,125.99L513.06,128.71L511.97,131.82L513.09,136.38L513.09,145.94L513.09,160.47L513.09,169.63L513.03,178.56L508.92,178.56L508.92,180.77L500.93,176.58L488.95,170.23L475.58,163.08L471.39,165.12L468.27,166.82L465.15,164.28L458.84,162.75L456.92,159.12L451.7,157.85L450.64,154.44L448.34,151.04L450.05,148.78L449.58,145.14L450.29,143L449.98,137.41L448.63,131.35L451.54,128.67L451.11,125.36L454.08,122.33L456.91,120.69L456.91,116.88L460.14,118.49L464.32,118.21L472.22,120.8L473.55,124.41L476.16,126.33L481.28,127.22L484.78,128.7L487.89,131.06L491.13,130.1L492.96,127.24L492.02,123.63L494.92,119.87L499.15,118.1L505.21,119.68L506.03,121.68L511.86,122.65Z" class="land" id="LY" title="Libya"/>
    <path d="M373.57,232.07L374.36,234.1L373.08,236.48L376.06,237.63L377.87,239.28L377.49,245.51L370.87,242.57L366.1,238.29L360.97,234.81L364.56,231.22L366.07,228.17L369.26,228.75L370.93,233.51Z" class="land" id="LR" title="Liberia"/>
    <path d="M583.56,247.07L579.73,251.93L579.79,267.3L582.1,270.74L579.86,271.8L578.39,274.26L576.63,274.88L576.19,277.23L573.59,282.36L572.47,283.25L566.53,279L565.89,276.37L555.69,270.67L550.29,267.85L550.46,262.95L552.7,259.33L553.98,258.54L554.71,255.07L552.33,248.27L550.59,246.06L555.98,240.74L557.97,241.36L558.04,243.6L559.37,245.1L562.81,245.26L567.73,248.45L573.6,249.25L575.05,247.6L578.9,245.84L580.8,247.22Z" class="land" id="KE" title="Kenya"/>
    <path d="M448.93,259.37L449.81,254.06L450.55,254.63L456.18,254.63L456.2,259.5Z" class="land" id="GQ" title="Equatorial Guinea"/>
    <path d="M346.23,217.78L344.77,216.6L344.32,214.45L341.66,213.62L339.27,211.76L344.01,211.18L345.59,210.37L351.71,210.4L351.69,214.4L347.73,215.36Z" class="land" id="GW" title="Guinea-Bissau"/>
    <path d="M339.06,208.73L339.9,206.49L344.28,206.49L342.93,208.33Z" class="land" id="GM" title="Gambia"/>
    <path d="M361.46,211.55L364.43,213.7L366.11,212.37L368,213.09L371.24,211.56L372.17,214.66L373.89,215.88L374.63,219.91L375.63,221.08L376.33,228.24L374.62,232.07L373.57,232.07L370.93,233.51L369.26,228.75L366.07,228.17L364.38,224.67L362.23,221.86L356.83,222.35L355.76,224.42L353.53,225.79L351.83,222.4L348.8,220.72L347.34,217.82L346.23,217.78L347.73,215.36L351.69,214.4L351.71,210.4L354.4,210.57L357.7,211.87Z" class="land" id="GN" title="Guinea"/>
    <path d="M408.66,217.03L408.7,219.09L410.46,220.77L410.04,223.9L411.15,224.48L410.68,227.46L411.59,232.93L411.14,235.04L413.9,238.23L412.91,239.41L410.03,239.63L405.62,241.85L400.6,243.79L395.96,242.43L396.08,242.26L396.36,242.25L397.29,242.03L395.6,237.15L395.46,235.22L397.31,230.5L398.5,229.33L397.71,223.96L397.15,217.53L406.9,217.5Z" class="land" id="GH" title="Ghana"/>
    <path d="M464.37,254.66L464.29,258.5L468.07,257.96L469.12,260.29L466.83,262.88L466.73,264.52L469.32,266.25L468.91,271.55L467.68,273.96L463.11,273.32L457.2,273.67L457.05,275.5L458.7,277.52L455.35,280.01L452.08,276.24L449.07,273.54L447.58,271.28L445.72,266.62L447.71,265.14L448.93,259.37L456.2,259.5L456.18,254.63L456.26,254.08L464.06,254.26Z" class="land" id="GA" title="Gabon"/>
    <path d="M585.62,211.28L583.07,215.02L583.21,217.61L587.89,217.53L586.8,219.13L590.23,224.39L592.48,226.05L604.8,230.22L608.97,230.22L600.45,238.62L596.31,243.17L592.34,243.01L588.74,244.28L587.35,245.76L583.56,247.07L580.8,247.22L578.9,245.84L575.05,247.6L573.6,249.25L567.73,248.45L562.81,245.26L559.37,245.1L558.04,243.6L557.97,241.36L555.98,240.74L553.66,235.84L549.3,231.59L546.58,230.41L547.5,228.54L551.09,227.76L551.02,224.05L551.84,219.53L554.58,218.1L555.33,214.05L557.35,210.98L559.48,210.17L561.22,203.61L564.27,202.76L565.58,204.07L566.89,201.04L569.47,202.89L571.85,202.01L576.63,202.86L578.92,204.09Z" class="land" id="ET" title="Ethiopia"/>
    <path d="M349.76,141.19L350.56,138.64L351.3,139.22L350.88,140.79Z" class="land" id="ES" title="Canary Islands"/>
    <path d="M569.91,187.34L572.13,192.91L573.65,198.11L576.56,200.35L580.61,202.04L582.62,204.79L585.07,206.48L587.37,209.58L588.7,210.25L585.62,211.28L578.92,204.09L576.63,202.86L571.85,202.01L569.47,202.89L566.89,201.04L565.58,204.07L564.27,202.76L561.22,203.61L560.81,199.84L562.84,194.79L563.24,191.48L564.91,191.46L568.43,189.18Z" class="land" id="ER" title="Eritrea"/>
    <path d="M562.66,169.62L547.62,169.63L540,169.63L529.02,169.63L513.09,169.63L513.09,160.47L513.09,145.94L513.09,136.38L511.97,131.82L513.06,128.71L512.56,125.99L513.8,124.42L522.54,125.78L530.15,128.44L535.67,125.39L539,124.75L542.78,127.17L549.3,126.99L551.58,126.19L554.46,134.97L552.36,141.92L548.81,142.47L550.52,148.33L555.67,158.38L557.47,160.25L557.04,163.09L557.77,165.34Z" class="land" id="EG" title="Egypt"/>
    <path d="M444.7,97.75L443.26,99.78L443.94,106.69L443.32,109.08L440.27,112.38L441.31,116.63L443.69,120.05L446.65,122.37L448.63,131.35L449.98,137.41L450.29,143L449.58,145.14L450.05,148.78L448.34,151.04L450.64,154.44L451.7,157.85L456.92,159.12L458.84,162.75L452.36,166.9L440.14,174.66L433.28,180.85L426.57,182.34L423.12,183.02L422.3,179.47L415.97,176.86L413.72,173.63L403.55,166.47L395.36,160.64L388.84,155.99L379.8,150L372.74,145.35L372.74,143.61L372.84,138.59L376.91,135.58L381.84,133.38L386.23,132.67L388.23,130.21L392.33,128.04L392.99,124.39L398.74,122.09L403.63,122.29L404.5,120.42L401.94,116.2L401.46,108.99L399.69,107.2L400.97,107.25L405.12,104.31L409.14,103.12L414.19,99.92L419.76,99.5L424.7,97.96L428.78,97.96L430.61,99.1L435.99,96.97L437.83,97.84Z" class="land" id="DZ" title="Algeria"/>
    <path d="M589.24,215.4L587.89,217.53L583.21,217.61L583.07,215.02L585.62,211.28L588.7,210.25L589.93,212.46L587.38,214.38Z" class="land" id="DJ" title="Djibouti"/>
    <path d="M311.2,200.37L310.12,200.58L310.13,199.24Z" class="land" id="CV" title="Cape Verde"/>
    <path d="M590.16,313.65L589.16,313.01L589.8,312.43Z" class="land" id="KM" title="Comoros"/>
    <path d="M486.53,249.16L484.29,255.28L483.58,259.01L482.96,265.96L479.32,268.78L476.55,272.75L476.26,278.12L470.56,283.9L468.81,281.61L464.87,283.86L463.45,283.02L460.58,282.95L459.05,284.56L455.35,280.01L458.7,277.52L457.05,275.5L457.2,273.67L463.11,273.32L467.68,273.96L468.91,271.55L469.32,266.25L466.73,264.52L466.83,262.88L469.12,260.29L468.07,257.96L464.29,258.5L464.37,254.66L469.33,254.68L474.57,255.68L476.41,254.2L478.46,248.92L481.65,248.3Z" class="land" id="CG" title="Republic of Congo"/>
    <path d="M523.19,242.34L526.48,245.52L530.48,245.36L532.67,244.53L534.83,247.06L537.51,249.11L537.05,253.43L539.24,255.15L533.78,260.25L532.84,263.26L532.25,269.46L530.39,271.43L529.91,275.02L530.78,276.41L530.78,279.99L531.53,282.24L531.28,284.47L532.33,287.27L531.85,288.84L532.81,291.32L535.32,293.78L537.15,297.95L529.73,299.09L527.35,302.3L528.31,304.86L528.34,308.41L527.17,311.87L530.12,315.56L533.16,314.73L533.16,320.02L529.91,319.92L527.17,316.13L521.3,313.64L517.45,313.6L514.63,312.47L513.94,310.85L511.16,311.68L508.86,309.27L508.31,309.87L503,310.05L501.81,306.67L499.89,303.33L500.27,300.05L499.63,294.21L494.86,294.1L494.34,292.57L490.36,293.54L489.58,296.99L482.05,297.45L479.76,294.01L478.64,289.74L476.96,288.17L463.43,288.16L460.69,288.67L459.87,287.72L461.15,285.17L463.45,283.02L464.87,283.86L468.81,281.61L470.56,283.9L476.26,278.12L476.55,272.75L479.32,268.78L482.96,265.96L483.58,259.01L484.29,255.28L486.53,249.16L486.36,245.9L488.44,243.25L491.02,242.29L494.65,245.05L502.43,246.42L503.82,244.28L506.57,244.21L510.34,242.82L514.21,242.7L515.36,241.49L520.77,242.54Z" class="land" id="CD" title="Democratic Republic of Congo"/>
    <path d="M473.48,232.21L472.51,233.31L469.88,239.18L470.27,244.2L472.02,247.7L475.92,251.54L476.41,254.2L474.57,255.68L469.33,254.68L464.37,254.66L464.06,254.26L456.26,254.08L456.18,254.63L450.55,254.63L449.81,254.06L450.12,249.86L448.24,247.31L446.47,246.6L444.62,243.82L446.72,238.57L451.24,234.43L453.16,234.15L455.44,236.77L457.11,235.69L460.66,227.7L462.34,226.47L462.85,224.19L466.86,216.93L469.64,215.44L469.93,212.81L468.14,211.63L467.58,208.66L469.46,209.09L471.82,213.93L472.03,219.02L473.74,221.93L468.33,221.85L467.22,223.07L468.7,225.14L471.97,227.86Z" class="land" id="CM" title="Cameroon"/>
    <path d="M385.92,219.96L389.66,222.98L395.51,222.21L397.71,223.96L398.5,229.33L397.31,230.5L395.46,235.22L395.6,237.15L397.29,242.03L396.36,242.25L392.11,241.84L385.75,242.42L377.49,245.51L377.87,239.28L376.06,237.63L373.08,236.48L374.36,234.1L373.57,232.07L374.62,232.07L376.33,228.24L375.63,221.08L377.01,219.96L379.32,220.91L382.84,218.7L383.79,220.94Z" class="land" id="CI" title="Côte d'Ivoire"/>
    <path d="M504.25,217.87L507.53,222.52L507.08,226.77L509.62,227.41L510.22,228.98L512.56,229.63L514.76,233.01L518.85,235.94L519.48,238.32L521.86,239.55L523.19,242.34L520.77,242.54L515.36,241.49L514.21,242.7L510.34,242.82L506.57,244.21L503.82,244.28L502.43,246.42L494.65,245.05L491.02,242.29L488.44,243.25L486.36,245.9L486.53,249.16L481.65,248.3L478.46,248.92L476.41,254.2L475.92,251.54L472.02,247.7L470.27,244.2L469.88,239.18L472.51,233.31L473.48,232.21L477.23,231.54L478.92,232.1L482.53,230.28L485.89,230.07L488.61,227.44L488.77,225.93L493.75,225.46L495.55,224.28L499.52,220.21L502.72,217.54Z" class="land" id="CF" title="Central African Republic"/>
    <path d="M514.25,339.08L518.04,346.75L524.43,351.16L524.3,353.54L525.87,355.81L530,356.88L531.37,358.6L526.56,360.86L522.12,364.62L520.82,367.89L516.98,370.21L515.61,374.17L512.12,375.15L505.94,372.6L504.33,373.48L503.33,376.32L499.19,379.97L495.41,379.94L495.76,376.55L493.77,371.51L492.25,370.35L492.23,357.73L496.37,357.73L496.39,341.38L506.08,340.1L507.25,341.97L510.5,339.88Z" class="land" id="BW" title="Botswana"/>
    <path d="M409.85,200.79L409.63,202.57L411.52,205.99L413.02,206.64L413.06,208.82L415.47,210.56L417.1,210.25L418.9,213.71L417.2,215.75L414.89,215.63L412.7,217.56L408.66,217.03L406.9,217.5L397.15,217.53L397.71,223.96L395.51,222.21L389.66,222.98L385.92,219.96L386.9,214.01L390.48,211.83L390.9,208.49L394.04,208.17L398.7,203.54L401.58,202.62L405.77,200.2Z" class="land" id="BF" title="Burkina Faso"/>
    <path d="M423.94,214.57L423.48,215.85L424.93,219.19L421.64,225.64L420.51,225.79L420.14,230.74L420.23,237.06L415.71,237.7L415.62,225.78L414.49,221.78L412.2,220.24L412.7,217.56L414.89,215.63L417.2,215.75L418.9,213.71L420.95,211.7Z" class="land" id="BJ" title="Benin"/>
    <path d="M536.32,273.68L536.16,275.84L537.31,277.33L534.63,280.72L531.53,282.24L530.78,279.99L530.78,276.41L529.91,275.02L533.47,275L533.73,273.43Z" class="land" id="BI" title="Burundi"/>
    <path d="M459.87,287.72L459.05,284.56L460.58,282.95L463.45,283.02L461.15,285.17ZM508.86,309.27L508.97,315.87L508.35,318.34L500.58,318.34L500.58,331.07L501.29,333.86L506.42,338.4L498.23,339.98L487.43,338.95L485.64,337.35L479.46,337.32L467.05,337.31L463.56,335.47L461.26,336.54L457.9,336.7L457.93,330.53L458.84,329.68L461.27,320.21L463.07,317.38L464.88,316.29L466.42,313.27L466.68,310.05L463.14,301.55L464.72,298.69L460.24,289.12L463.43,288.16L476.96,288.17L478.64,289.74L479.76,294.01L482.05,297.45L489.58,296.99L490.36,293.54L494.34,292.57L494.86,294.1L499.63,294.21L500.27,300.05L499.89,303.33L501.81,306.67L503,310.05L508.31,309.87Z" class="land" id="AO" title="Angola"/>
  </g>
</svg>