<svg xmlns="http://www.w3.org/2000/svg" width="512" height="512" viewBox="0 0 512 512">
  <defs>
    <linearGradient id="bg" x1="70" y1="40" x2="450" y2="470" gradientUnits="userSpaceOnUse">
      <stop stop-color="#22d3ee"/>
      <stop offset="0.5" stop-color="#7c3aed"/>
      <stop offset="1" stop-color="#ff8df5"/>
    </linearGradient>
    <filter id="glow" x="-40%" y="-40%" width="180%" height="180%">
      <feGaussianBlur stdDeviation="16" result="blur"/>
      <feColorMatrix in="blur" type="matrix" values="0 0 0 0 0.4 0 0 0 0 0.9 0 0 0 0 1 0 0 0 .75 0"/>
      <feBlend in="SourceGraphic"/>
    </filter>
  </defs>
  <rect x="48" y="48" width="416" height="416" rx="148" fill="url(#bg)"/>
  <circle cx="256" cy="256" r="154" fill="none" stroke="rgba(255,255,255,.38)" stroke-width="20"/>
  <path d="M160 184l62 144h30l62-144h-38l-38 98-39-98h-39z" fill="white" filter="url(#glow)"/>
  <path d="M316 202c12-15 33-25 57-25 31 0 55 15 67 39l-31 18c-8-15-20-23-37-23-16 0-27 7-27 18 0 14 17 18 39 24 31 9 62 22 62 62 0 38-31 63-76 63-39 0-68-17-82-47l32-18c10 20 27 31 51 31 21 0 34-8 34-23 0-16-18-21-41-27-30-8-58-21-58-59 0-13 4-24 10-33z" fill="white" opacity=".96"/>
  <path d="M126 318c22 26 57 42 96 42" fill="none" stroke="white" stroke-width="18" stroke-linecap="round" opacity=".78"/>
  <path d="M390 194c-22-26-57-42-96-42" fill="none" stroke="white" stroke-width="18" stroke-linecap="round" opacity=".78"/>
</svg>