<?xml version="1.0" encoding="UTF-8"?>
<svg xmlns="http://www.w3.org/2000/svg" width="407.43" height="399.63" viewBox="276.28 57.19 407.43 399.63" style="background-color:#000000">
  <!-- Created using SVG Map Generator: dojo.amcharts.com/svg-map-generator -->
  <style>
    .land { fill: #ffffff; stroke: #000000; stroke-width: 0.65; }
  </style>
  <g id="polygons">
    <path d="M474.75,76.3L474.73,78.12L473.84,79.59L472.88,82.14L469.19,84.28L466.6,86.43L468.46,88.08L467.9,90.32L466.95,92.02L468.8,95.06L473.34,100.29L469.25,106.44L465.28,108.33L462.13,109.36L460.68,109.57L459.53,111.26L458.37,114.69L457.62,89.85L457.64,87.35L459.46,86.03L460.58,84.95L462.89,83.29L463.89,81.86L464.67,82.58L465.02,82.47L466.1,81.54L467.01,80.52L466.71,80.38L467.09,79.54L467.9,79.69L470.08,78.02L470.54,77.45L471.46,76.73L471.82,76.08L472.86,75.76L473.31,75.17L473.24,74.77L474.18,74.39L474.13,75.13Z" class="land" id="EG-ALX" title="Al Iskandariyah"/>
    <path d="M527.01,453.82L522.83,453.81L522.85,453.05L523.68,450.95L524.77,449.22L525.62,448.42L526.49,447.04L525.92,446.39L525.43,445.53L524.89,445.4L524.17,446.02L521.09,447.91L520.68,447.88L519.93,447.81L517.77,448.02L516.54,446.21L517.18,443.98L520.67,442.17L523.11,441.42L526.34,441.52L528.73,439.3L530.28,437.54L530.96,436.26L531.34,434.98L531.16,433.69L531.16,430.16L530.98,428.36L531.67,426.86L532.85,425.45L533.8,425.04L536.04,425.03L537.7,425.22L539,425.03L540.82,424.43L547.81,422.46L552.25,421.14L553.04,421.45L555.13,421.66L557.22,422.08L558.78,423.07L560,423.61L561.32,422.86L562.69,420.16L563.46,418.52L564.46,416.75L565.1,414.82L566.1,412.55L567.47,410.35L568.54,408.51L569.79,405.87L571.16,403.82L572.3,401.9L572.54,401.12L572.16,399.51L570.48,399.6L569.09,399.91L566.92,399.62L562.74,398.62L561.61,397.28L561.91,394.61L563.28,389.79L564.42,388.16L565.68,387.33L567.54,386.23L569.31,385.48L570.93,385.03L572.65,383.63L572.39,382.61L571.18,381.62L569.48,379.96L569.34,377.41L570.47,376.28L571.5,375.88L572.99,375.13L576.01,371.95L576.32,366.71L576.33,364.3L576.8,360.89L576.82,358.11L577.43,355.28L577.96,352.45L577.96,350.1L578.41,347.41L576.96,344.57L576.5,342.79L575.56,339.9L575.51,338.14L575.53,336.02L575.22,334.52L573.92,332.88L571.75,330.83L568.94,329.52L569.71,326.66L569.66,323.76L571.2,325.17L573.14,326.37L574.62,327.81L578.13,330.27L580.79,334.74L581.17,337.45L581.29,345.24L582.83,348.92L585.31,353.07L585.49,354.34L585.17,357.6L582.59,359.76L580.98,362.17L580.88,364.1L580.05,366.99L580.05,371.89L580.68,373.4L580.95,375.82L581.69,376.75L582.63,378.48L582.79,379.98L583.06,381.14L583.85,382.59L585.17,383.34L586.33,384.66L586.49,388.34L587.36,388.68L587.23,390.18L586.65,390.77L586.18,391.57L585.86,393.36L585.91,395.26L586.7,398.02L587.97,398.32L588.64,399.87L589.27,401.06L589.08,402.17L588.45,403.09L587.92,404.87L587.07,406.54L585.81,407.86L584.91,408.95L583.9,410.62L582.85,411.77L582.79,412.74L583.59,413.43L585.6,415.44L588.04,415.64L588.86,416.44L591.55,418.34L593.35,421.2L593.53,423.9L592.56,425.54L590.37,425.22L588.14,422.83L586.96,421.27L584.64,421.62L582.56,420.99L581.08,420.03L578.97,418.54L576.41,418.81L573.99,420.14L574.2,424.64L573.25,427.42L571.38,429.52L569.17,430.81L566.16,432.8L563.62,435.04L559.13,436.39L556.35,435.16L554.46,433.3L553.27,431.76L551.56,430.67L549.34,431.21L548.39,434.82L548.07,436.74L547.12,439.08L546.27,440.68L545.15,442.09L542.96,443.03L539.5,442.48L538.34,445.04L536.75,446.64L534.53,447.81L527.97,450.04Z" class="land" id="EG-ASN" title="Aswan"/>
    <path d="M530.52,261.34L528.72,261.32L528.04,259.82L527.2,259.02L526.48,257.41L525.78,256.48L524.34,256.32L523.88,257.21L522.95,258.56L522.26,259.08L520.86,259.86L519.9,260.65L519.38,260.82L517.57,257.8L516.08,254.31L514.63,251.3L513.24,249.02L511.07,247.76L509.73,247.44L507.99,247.25L507.19,246.81L505.48,245.29L502.29,242.15L501.17,241.52L500.26,240.18L499.84,238.44L498.72,236.94L497.95,235.28L497.59,233.21L496.75,232.83L496.61,231.24L495.98,230.61L496.05,228.79L496.89,228.71L499.35,228.71L500.82,229.11L502.79,229.42L504.05,228.32L506.3,228.47L505.75,231.23L506.22,235.06L506.71,236.32L507.91,237.75L508.67,238.12L511.42,239.09L512.54,239.96L515.69,241.2L516.62,241.28L519.39,242.74L520.5,246.33L522.8,248.11L524.87,249.87L525.91,250.61L527.04,253.11L528.89,256.18L530.1,259.31Z" class="land" id="EG-AST" title="Asyut"/>
    <path d="M609.52,227.23L610.08,227.74L610.19,228.58L609.79,229.12L609.27,228.56L608.97,227.74ZM614.33,232.45L615.47,232.57L616.12,233.25L616.69,233.46L617.73,234.18L618.29,235.84L617.78,235.95L617.31,235.29L616.04,234.24L615.71,234.27L614.8,233.76L614.3,233.83L613.83,233.29ZM602.19,222.26L602.54,222.47L602.45,223.02L601.72,222.81ZM608.35,228.78L608.78,229.19L608.71,229.95L609.68,230.73L609.18,231.35L608.27,231.47L608.48,230.94L607.41,230.49L608.11,228.82ZM615.81,263.47L616.66,264.1L616.55,264.78L616.86,265.37L616.82,266.04L615.94,265.11L615.39,264.01ZM613.51,243.52L614.26,244.18L614.26,244.82L614.61,245.26L614.75,246.05L614.08,245.87L613.86,245.38L612.96,244.46L613.46,244.37ZM540.11,173.08L540.99,174.78L545.16,173.99L550.52,173.9L557.02,169.89L560.47,168.94L563.65,167.04L568,166.89L568.39,167.5L568.22,168.64L567.16,169.54L566.83,170.15L567.13,170.95L566.91,171.25L566.74,172.55L567.19,173.51L568.29,174.73L568.97,176.47L568.91,176.9L569.25,177.58L569.87,178.2L570.54,178.61L570.94,179.67L571.68,180.41L572.74,180.62L573.3,181.06L573.86,182.23L574.15,183.11L574.41,183.33L574.3,184.17L574.89,185.46L574.82,186.04L575.22,186.51L575.57,187.89L575.77,189.95L576.94,190.45L577.77,190.59L578.32,191.1L578.66,191.83L579.06,192.18L579.57,193.07L580.44,193.26L580.57,193.84L581.36,194.38L581.96,195.67L582.36,196.93L583.36,198.27L584.41,198.67L584.62,200.43L585.05,200.85L585.04,201.43L586.24,202.33L586.42,203.26L587.11,203.95L587.24,204.44L588.06,204.93L589.36,206.58L589.41,207.6L590.27,207.62L591.4,208.97L592.7,209.99L592.65,210.72L592.92,211.32L593.81,211.48L594.23,212.23L595.29,212.07L595.92,212.62L596.36,212.71L597.06,213.5L598.07,213.94L599.53,216.26L599.91,216.66L600.24,217.53L600.74,217.86L600.86,218.76L601.35,219.55L601.78,219.75L601.62,221.2L601.9,221.88L601.09,221.68L600.79,221.04L600.18,221.22L599.11,220.41L597.92,220.28L597.58,221.17L597.93,221.72L598.29,221.75L599.09,223.06L599.38,223.76L600.04,223.66L600.63,223.21L600.85,223.57L600.05,225.56L600.34,225.66L600.47,226.45L599.82,226.47L598.75,227.42L598.73,228.18L599.94,229.19L600.77,230.52L600.87,231.8L600.7,232.27L600.82,233.01L602.02,233.23L602.44,234.05L603.09,234.2L603.37,235.41L603.65,235.95L604.38,236.46L604.48,236.82L605.13,237.35L605.55,238.52L605.36,239.18L605.42,239.92L605.78,240.09L605.79,240.83L606.21,241.05L606.78,241.86L607.87,242.11L608.94,243.21L609.87,243.74L610.78,243.85L611.39,244.51L611.1,245.13L611.14,245.73L611.47,246.28L611.04,246.49L610.63,247.21L610.74,249.45L610.62,249.94L611.56,250.9L612.58,251.19L613.35,252.28L612.68,252.72L612.65,253.13L613.58,254.48L613.41,254.94L613.94,255.2L614.6,257.2L615.3,257.84L615.74,258.91L616.01,258.58L616.71,258.47L616.42,259.19L616.91,260.7L616.32,260.73L615.82,260.07L615.43,260.19L615.1,261.13L614.73,261.59L614.99,262.26L614.55,262.88L614.76,263.95L615.02,264.21L614.83,265.36L614.55,265.76L614.68,266.65L614.39,267.48L614.91,268.57L615.85,268.87L616.71,269.4L616.98,269.96L617.58,270.28L617.57,270.84L618.2,271.96L618.13,272.23L618.75,273.07L618.84,273.51L619.46,274.23L619.48,274.86L619.82,275.66L619.83,276.24L620.38,277.11L620.81,278.52L621.41,278.89L621.75,279.76L622.94,281.17L623.52,281.99L623.7,282.6L623.65,283.59L624.21,284.37L624.56,285.33L624.72,286.48L625.51,287.67L625.69,288.45L626.51,289.24L626.58,289.73L627.34,290.51L627.11,291.03L627.73,291.43L628.24,292.37L628.35,293.15L629.28,295.47L629.63,295.99L630.54,296.48L630.79,297.15L631.26,297.55L631.85,298.91L631.88,299.77L632.22,300.18L632.39,301.11L633,301.7L633.9,301.95L634.48,303.2L635.12,304.1L635.64,304.32L636.46,305.16L636.99,306.96L637.37,307.08L637.29,307.87L637.46,308.34L637.98,308.6L637.95,309.14L638.22,310.06L638.63,310.7L639.48,311.37L639.97,312.05L640.21,313.98L640.52,314.92L640.98,315.11L641.42,315.73L641.46,316.63L641.92,317.17L642.05,318.55L642.44,319.25L643.47,320.43L643.98,322.07L643.87,322.54L645.06,324.08L645.8,325.35L645.76,325.75L646.69,327.47L647.51,328.2L647.91,329.26L648.59,330.35L648.82,331.58L649.43,332.21L650.08,333.63L650.13,334.11L650.69,334.9L651.16,335.27L651.27,335.96L650.85,336.78L651.09,337.42L651.99,338.22L652.41,339.17L652.71,339.43L652.72,340.69L653,340.89L653.03,342.26L653.76,343.13L654.17,343.37L655.57,345.14L655.75,345.14L656.41,346.76L656.13,348.01L656.43,348.54L657.05,348.61L656.82,349.89L658.08,351L658.43,352.1L659.11,352.51L659.25,352.89L658.53,353.18L658.63,353.78L658.17,354.26L658.14,354.68L659.39,355.98L660.23,356.3L661.26,358.67L662.11,359.55L662.62,359.66L662.8,360.22L663.95,360.91L664.77,360.82L664.98,361.79L665.58,362.36L666.38,362.74L666.58,363.44L667.37,364.32L668.24,365.64L668.3,366.24L668.86,366.9L668.61,367.34L669.39,368.65L671.09,370.09L671.07,370.81L671.77,370.84L671.83,370.15L672.39,370.6L672.94,370.61L674.02,371.35L674.56,372.02L674.95,373.15L674.89,374.34L676.02,375.05L676.51,375.13L677.4,374.95L678.81,375.35L679.73,375.81L680.71,376.58L681.07,377.26L680.75,377.75L680.14,377.64L679.42,377.89L678.32,378.77L676.72,378.18L676.47,377.95L675.29,378.12L674.53,377.9L673.94,377.13L672.93,376.39L672.01,376.08L671.41,376.11L670.96,377.75L670.66,378.08L670.75,379.17L670.62,380.32L670.81,381.11L670.53,381.32L670.67,382.4L670.33,383.39L670.72,384.38L671.26,383.79L671.67,383.74L671.86,384.3L671.8,384.9L670.88,384.76L671.4,385.43L671.59,386.58L671.6,389.47L671.2,389.89L671.41,391.4L671.64,391.57L671.42,393.62L670.66,394.97L671.08,396.04L671.72,397.08L672.49,397.92L673.01,400L673.32,400.5L673.19,402.39L673.35,403.48L673.89,404.57L673.77,405.13L673.88,406.39L674.55,406.81L674.78,407.7L675.37,408.32L675.74,409.08L662.64,421.52L660.88,423.2L652.36,420.66L651.41,420.43L641.98,442.45L630.28,444.58L622.68,446.01L620.01,453.96L586.57,453.89L563.86,453.96L548.07,453.98L545.03,454.01L542.11,453.87L527.01,453.82L527.97,450.04L534.53,447.81L536.75,446.64L538.34,445.04L539.5,442.48L542.96,443.03L545.15,442.09L546.27,440.68L547.12,439.08L548.07,436.74L548.39,434.82L549.34,431.21L551.56,430.67L553.27,431.76L554.46,433.3L556.35,435.16L559.13,436.39L563.62,435.04L566.16,432.8L569.17,430.81L571.38,429.52L573.25,427.42L574.2,424.64L573.99,420.14L576.41,418.81L578.97,418.54L581.08,420.03L582.56,420.99L584.64,421.62L586.96,421.27L588.14,422.83L590.37,425.22L592.56,425.54L593.53,423.9L593.35,421.2L591.55,418.34L588.86,416.44L588.04,415.64L585.6,415.44L583.59,413.43L582.79,412.74L582.85,411.77L583.9,410.62L584.91,408.95L585.81,407.86L587.07,406.54L587.92,404.87L588.45,403.09L589.08,402.17L589.27,401.06L588.64,399.87L587.97,398.32L586.7,398.02L585.91,395.26L585.86,393.36L586.18,391.57L586.65,390.77L587.23,390.18L587.36,388.68L586.49,388.34L586.33,384.66L585.17,383.34L583.85,382.59L583.06,381.14L582.79,379.98L582.63,378.48L581.69,376.75L580.95,375.82L580.68,373.4L580.05,371.89L580.05,366.99L580.88,364.1L580.98,362.17L582.59,359.76L585.17,357.6L585.49,354.34L585.31,353.07L582.83,348.92L581.29,345.24L581.17,337.45L580.79,334.74L578.13,330.27L574.62,327.81L573.14,326.37L571.2,325.17L569.09,323.24L567.84,321.24L567.18,319.18L567.18,314.81L567.84,313.32L569.23,311.83L570.76,309.31L575.42,306.25L577.01,303.69L578.42,299.22L578.58,298.33L578.56,295.38L578.27,292.6L577.36,290.58L576.86,288.81L575.7,286.95L572.96,285.09L569.34,284.31L564.42,284.36L562.43,285.03L560.06,286.69L558.39,287.93L557.23,288.55L555.86,288.65L554.28,287.94L554.43,286.61L554.16,286.5L552.51,284.22L551.67,282.12L550.2,281.04L546.94,280.05L544.74,278.65L544.08,277.97L543.15,276.53L542.17,273.6L541.82,271.17L540.5,270.74L539.71,269.7L539.34,268.41L537.71,266.32L533.01,262.38L530.92,261.61L530.52,261.34L530.1,259.31L528.89,256.18L527.04,253.11L525.91,250.61L524.87,249.87L522.8,248.11L520.5,246.33L519.39,242.74L516.62,241.28L515.69,241.2L512.54,239.96L511.42,239.09L508.67,238.12L507.91,237.75L506.71,236.32L506.22,235.06L505.75,231.23L506.3,228.47L506.6,225.75L506.4,221.89L505.49,218.94L505.09,214.18L502.38,207.92L501.88,203.02L501.78,201.2L502.38,198.92L503.39,197.1L505.24,194.22L505.32,188.72L506.36,185.71L506.73,184.39L503.72,183.99L505.94,183.27L506.45,180.29L508.85,176.17L510.56,175.48L511.67,173.76L512.37,172.38L513.57,170.66L515.38,168.37L515.98,167.79L516.08,165.15L517.49,164L517.69,160.32L519.87,162.37L521.52,164.08L524.05,167.95L526.66,169.85L530.25,170.37L533.87,171.79L539.11,173.08Z" class="land" id="EG-BA" title="Al Bahr al Ahmar"/>
    <path d="M491.05,81.07L494.02,80.78L498.36,84.89L498.35,87.19L499.61,88.16L499.5,90.3L500.18,90.55L500.18,92.69L499.71,93.24L500.5,93.6L500.87,94.52L501.49,95.25L501.08,95.99L500.39,96.65L500.39,98L500.92,98.18L500.81,99.53L500.55,100.44L500.81,101.48L501.52,101.39L501.31,105.17L501.41,105.5L502.28,105.56L501.91,107.03L502.86,107.75L502.64,109.15L503.11,110.4L503.19,113.68L503.13,115.18L502.01,115.31L501.9,116.79L496.3,122.54L494.15,122.83L488.17,128.89L484.34,134.2L483.75,135.26L483.14,135.62L481.89,133.09L480.53,132.23L478.25,131.78L472.14,127.23L470.55,126.46L465.4,122.36L461.96,122.25L459.41,120.99L458.37,119.34L458.37,114.69L459.53,111.26L460.68,109.57L462.13,109.36L465.28,108.33L469.25,106.44L473.34,100.29L468.8,95.06L466.95,92.02L467.9,90.32L468.46,88.08L466.6,86.43L469.19,84.28L472.88,82.14L473.84,79.59L474.73,78.12L474.75,76.3L476.03,76.72L477.24,76.69L477.48,76.87L479.52,76.22L480.52,75.68L482.03,74.36L482.85,73.29L483.69,71.59L484.18,70.25L484.78,68.24L485.08,68.46L485.99,68.5L486.85,68.15L488.47,68.86L488.8,72.84L491.06,75.46Z" class="land" id="EG-BH" title="Al Buhayrah"/>
    <path d="M462.28,182.51L463.75,180.58L464.07,178.03L464.55,173.48L465.7,168.57L468.01,168.91L472.63,169.49L481.26,171.1L482.96,172.01L482.83,173.39L483.63,173.72L484.79,173.64L502.97,168.54L507.55,161.33L510.36,157.07L512.64,155.42L513.11,155.07L514.98,155.86L516.81,156.28L517.58,156.79L517.69,160.32L517.49,164L516.08,165.15L515.98,167.79L515.38,168.37L513.57,170.66L512.37,172.38L511.67,173.76L510.56,175.48L508.85,176.17L506.45,180.29L505.94,183.27L503.72,183.99L501.38,182.35L499.42,181.21L472.41,182.11L471.18,182.09L464.31,182.32Z" class="land" id="EG-BNS" title="Bani Suwayf"/>
    <path d="M539.86,119.98L539.99,122.86L540.98,126.32L541.51,130.29L542.54,137.27L542.51,140.81L540.74,161.51L540.11,173.08L539.11,173.08L533.87,171.79L530.25,170.37L526.66,169.85L524.05,167.95L521.52,164.08L519.87,162.37L517.69,160.32L517.58,156.79L516.81,156.28L516.39,156.18L516.22,154.95L516.36,153.74L516.6,153.14L517.22,152.7L517.46,152.15L517.51,150.84L518.18,149.68L518.27,146.56L518.42,145.62L519.04,145.13L519.13,143.53L518.27,142.76L518.22,140.57L519.21,140.45L519.32,133.59L517.18,132.86L517.05,131.37L516.29,130.04L517.03,129.46L516.9,124.8L518.46,124.96L519.96,123.59L523.52,122.14L527.17,121.9L530.87,121.9L533.42,120.35L538.5,116.78L538.74,117.1Z" class="land" id="EG-C" title="al Qahira"/>
    <path d="M528.47,69.37L528.47,70.84L527.21,71.5L525.95,72.02L525.95,73.27L527.92,73.24L529.35,73.05L529.43,74.69L530.24,74.85L531.21,75.36L531.98,76.1L531.71,78.12L531.09,81.29L534.41,79.66L536.94,78.25L538.32,77.94L540.52,78.19L543.2,78.09L543.78,78.43L544.89,78.64L545.4,79.86L545.11,80.78L546.25,82.2L545.9,82.84L546.12,83.66L543.42,84.71L539.3,85.32L536.4,85.26L535.52,86.73L535.4,88.35L533.07,90.77L532.95,93.11L531.12,93.26L530.99,94.58L529.92,95.17L529.75,96.36L522.62,96.56L521.55,97.51L521.55,102.78L522.23,103.41L521.49,105.34L519.85,106.95L518.91,106.89L518.05,105.44L517.31,104.96L517.32,104.86L518.32,103.83L518.22,101.02L517.67,100.8L517.74,99.98L516.96,99.12L516.7,96.41L516.89,94.36L517.4,92.16L517.65,90.33L518.47,89.37L519.1,89.01L519.88,87.09L518.11,87.32L516.39,87.34L516.64,86.1L517.16,85.22L517.08,82.81L518.4,83.06L518.97,82.62L518.77,81.24L518.72,72.61L518.34,71.79L518.28,69.44L517.4,69.51L517.33,67.81L518.15,67.08L519.14,67.16L519.13,64.97L519.56,65.12L524.16,67.81L525.68,68.61L527.2,69.25Z" class="land" id="EG-DK" title="Ad Daqahliyah"/>
    <path d="M541.2,66.78L541.47,67.37L540.94,67.66L540.39,66.2L540.94,66.12ZM538.32,77.94L536.94,78.25L534.41,79.66L531.09,81.29L531.71,78.12L531.98,76.1L531.21,75.36L530.24,74.85L529.43,74.69L529.35,73.05L527.92,73.24L525.95,73.27L525.95,72.02L527.21,71.5L528.47,70.84L528.47,69.37L529.14,69.37L530.96,69L533.23,68.38L535.84,67.53L537.11,66.89L538.64,65.97L538.83,66.54L538.67,67.12L538.84,67.68L539.52,68.68L539.38,69.63L538.4,68.27L537.89,68.79L537.87,69.62L538.58,69.19L539.03,69.77L538.85,70.09L539.47,71.08L538.56,70.88L538.37,71.21L538.8,71.9L538.07,72.19L538.74,72.84L539.86,73.39L539.42,74.99L538.98,76.04L538.49,75.95L538.14,77.42ZM541.39,65.93L542.24,66.41L543.01,67.37L542.5,67.88L542.07,67.15L541.14,66.09ZM543.74,69.79L544.42,70.91L547.08,73.11L548.12,73.61L549.78,74.66L550.86,75.55L550.32,75.64L548.53,74.5L547.45,73.96L545.47,72.29L544.04,71.76L543.54,72.41L543.15,71.93L543.8,71.34L543.88,70.42Z" class="land" id="EG-DT" title="Dumyat"/>
    <path d="M465.7,168.57L470.82,162.71L472.52,161.91L478.15,155.23L479.35,155.11L484.37,149.35L487.38,148.54L490.59,146.46L493.8,144.27L495.1,144.04L497.14,142.81L498.31,141.81L498.42,140.92L509.73,140.82L509.59,141.95L509.51,144.22L510.13,144.99L511.2,147.27L511.83,151.35L512.44,154.14L512.64,155.42L510.36,157.07L507.55,161.33L502.97,168.54L484.79,173.64L483.63,173.72L482.83,173.39L482.96,172.01L481.26,171.1L472.63,169.49L468.01,168.91Z" class="land" id="EG-FYM" title="Al Fayyum"/>
    <path d="M501.52,101.39L500.81,101.48L500.55,100.44L500.81,99.53L500.92,98.18L500.39,98L500.39,96.65L501.08,95.99L501.49,95.25L500.87,94.52L500.5,93.6L499.71,93.24L500.18,92.69L500.18,90.55L499.5,90.3L499.61,88.16L498.35,87.19L498.36,84.89L498.81,85.32L500.36,88.15L501.36,88.16L501.6,89.01L505.38,89.01L505.69,87.47L509.91,87.54L509.91,82.98L510.67,83.03L514.88,82.69L517.08,82.81L517.16,85.22L516.64,86.1L516.39,87.34L518.11,87.32L519.88,87.09L519.1,89.01L518.47,89.37L517.65,90.33L517.4,92.16L516.89,94.36L516.7,96.41L516.96,99.12L517.74,99.98L517.67,100.8L518.22,101.02L518.32,103.83L517.32,104.86L514.26,103.45L511.76,103.43L511.72,102.6L511.34,101.61L507.75,101.65L507.44,101L506.51,100.95L506.45,100.22L504.5,100.22L504.37,101.03Z" class="land" id="EG-GH" title="Al Gharbiyah"/>
    <path d="M516.9,124.8L517.03,129.46L516.29,130.04L517.05,131.37L517.18,132.86L519.32,133.59L519.21,140.45L518.22,140.57L518.27,142.76L519.13,143.53L519.04,145.13L518.42,145.62L518.27,146.56L518.18,149.68L517.51,150.84L517.46,152.15L517.22,152.7L516.6,153.14L516.36,153.74L516.22,154.95L516.39,156.18L514.98,155.86L513.11,155.07L512.64,155.42L512.44,154.14L511.83,151.35L511.2,147.27L510.13,144.99L509.51,144.22L509.59,141.95L509.73,140.82L498.42,140.92L498.31,141.81L497.14,142.81L495.1,144.04L493.8,144.27L490.59,146.46L487.38,148.54L484.37,149.35L479.35,155.11L478.15,155.23L472.52,161.91L470.82,162.71L465.7,168.57L464.55,173.48L464.07,178.03L463.75,180.58L462.28,182.51L461.36,186.03L460.09,188.4L459.13,191.12L457.86,195.47L456.9,200L454.99,201.81L452.91,203.44L449.09,205.97L446.06,208.68L443.99,209.23L441.91,210.85L438.89,211.94L435.54,214.46L432.99,215.73L428.68,216.63L427.41,217.35L426.13,218.25L425.5,219.7L425.18,221.5L424.7,222.94L423.9,224.74L422.79,226.98L376.88,227.09L375.3,227.09L391.78,190.17L425.65,182L451.74,156.2L456.97,149.47L462.32,148.14L480.65,135.95L483.14,135.62L483.75,135.26L484.34,134.2L488.17,128.89L494.15,122.83L496.3,122.54L501.9,116.79L503.07,116.69L503.61,116.22L505.31,116.34L505.37,118.92L506.53,118.86L507.26,119.59L507.31,121.04L508.05,121.77L509.36,122.01L510.01,121.28L511.35,121.86L512.92,121.26L514.25,123.51L516.2,124.72Z" class="land" id="EG-GZ" title="Al Jizah"/>
    <path d="M553.31,78.17L553.62,78.57L554.08,78.31L554.46,79.69L554.35,79.99L553.1,79.43L552.63,80L552.33,79.64L551.54,79.52L550.53,79.78L549.75,78.9L550.54,78.19L552.1,78.24L552.42,78.48ZM555.75,84.21L557.53,84.35L559.09,85.13L561.68,86.07L564.1,87.64L566.59,88.31L566.79,93.85L567.64,108.13L570.23,112.23L571.58,114.64L572.73,117.77L573.35,120.04L568.71,119.82L564.98,120.24L563.58,121.39L558.62,121.04L556.49,120.38L541.43,120.47L539.89,120.61L539.86,119.98L538.74,117.1L538.5,116.78L537.69,112.8L537.35,109.1L536,108.39L535.86,107.05L537.69,107.13L538.03,107.84L541.09,108L541.56,107.29L545.64,107.05L545.85,106.29L549.68,100.81L549.62,98.62L548.89,95.49L550.35,92.15L550.54,90.66L551.91,90.61L551.76,86.03L550.17,85.96L549.63,84.98L549.09,84.28L549.3,83.8L549.92,83.47L549.73,82.61L550.77,82.59L550.76,81.09L551.09,80.68L551.66,80.97L552.07,82.58L551.75,83.76L553.91,83.36L554.49,82.75L555.29,82.9Z" class="land" id="EG-IS" title="Al Isma iliyyah"/>
    <path d="M575.43,134.05L576.95,134.11L577.15,133.98L582.5,133.63L590.4,133.87L597.15,134.83L597.98,135.07L601.42,135.01L608.05,136.57L609.52,137.35L615.97,141.42L618.67,143.22L621.58,144.17L624.7,144.89L629.58,147.88L632.51,148.8L634.63,149.67L635.78,149.57L636.03,149.79L639.15,150.27L641.95,150.51L644.97,151.11L647.99,150.98L649.93,151.46L648.43,152.06L648.04,152.51L647.82,153.65L647.11,154.56L646.22,155.47L646.25,156.16L645.51,156.58L645.16,157.86L644.6,158.1L643.84,159.11L643.95,159.83L643.83,161.06L643.5,161.5L643.77,163L643.51,163.9L643.06,164.35L642.93,164.98L641.99,165.36L642,166L641.52,167.59L641.58,168.05L641.22,168.88L641.32,169.74L640.99,170.2L641.34,171.2L641.71,171.58L641.78,172.9L640.58,173.39L640.15,173.85L640.11,174.64L640.44,176.5L640.25,177.13L640.39,177.95L639.44,178.69L639.58,179.95L639.5,181.42L639.64,181.88L639.37,182.77L639.46,183.51L638.89,184.83L637.8,186.47L637.76,187.74L636.92,188.28L636.65,189.57L635.69,190.69L635.46,192.18L635.78,192.89L635.29,194.08L634.93,193.72L634.47,193.82L633.98,194.65L633.9,195.23L633.42,195.55L633.48,196.2L633.06,197.2L633.15,197.82L632.88,198.69L632.17,199.32L631.73,200.29L631.75,202.74L631.97,203.24L631.79,203.68L631.9,204.35L632.29,205.07L633.07,205.85L633.18,207.25L632.83,207.72L632.96,208.36L632.67,209.66L632.38,210.02L632.5,210.65L632.83,210.94L632.72,211.89L632.93,212.3L632.56,214.02L631.98,214.96L631.37,215.05L630.9,215.96L630.3,216.26L630.24,216.79L629.43,217.23L628.95,217.04L628.51,218.37L628.64,218.94L628.33,219.77L627.85,219.77L627.6,219.17L626.76,219.52L626.72,220.42L626.22,222.08L625.57,222.28L624.32,222.11L624.38,222.55L624.87,223.15L625.98,223.33L626.33,224.53L625.66,224.47L624.92,223.69L624.24,222.62L622.95,222.14L622.73,222.35L621.86,221.9L620.11,221.86L619.39,221.6L618.54,221.06L617.79,220L617.2,219.59L616.38,218.23L615.04,217.87L613.5,216.01L612.96,216.26L612.24,215.99L611.69,215.27L610.37,214.59L609.24,213.09L608.34,212.71L608.39,211.95L608.15,211.45L606.44,210.74L606.31,209.82L605.68,209.16L605.32,208.27L604.87,208L604.83,206.98L603.47,206.25L603.25,205.72L603.18,204.14L602.76,203.64L602.06,203.41L601.83,202.41L601.45,202.28L601.12,201.37L600.49,201.21L599.91,200.6L598.79,200.19L598.32,199.58L596.25,198.47L595.22,197.45L593.88,195.45L593.91,195L593.28,194.28L592.71,194.16L590.86,192.43L590.28,190.88L590.3,190.23L589.86,189.47L589.1,189.57L588.64,189.27L588.6,187.56L588.12,186.94L587.8,185.89L588.09,184.64L588.1,183.92L588.51,183.39L588.98,181.77L588.47,181.22L587.99,180.15L587.5,179.72L586.81,178.25L586.82,177.37L587.05,176.95L586.82,176.52L587.38,175.44L586.73,173.87L587.12,172.14L586.37,171.85L586.09,171.2L585.16,170.78L584.94,170.3L584.07,170.22L584.02,169.78L583.26,169.37L583.31,168.57L582.31,167.5L581.89,167.23L581.49,166.56L581.11,166.49L580.41,165.37L579.64,165.21L578.83,163.69L577.78,163.62L577.16,162.92L576.32,162.46L575.96,161.58L576.18,160.98L575.8,160.14L574.74,159.16L574.34,159.04L574.34,157.79L573.82,157.33L574.01,156.33L573.93,155.46L573.29,155.12L572.63,154.11L571.45,153.62L570.56,152.77L570.88,152.05L570.48,151.11L570.37,149.14L569.93,147.64L568.92,147.37L569.33,146.4L568.93,144.72L569.27,143.79L569.17,143.24L569.55,142.56L569.48,141.7L568.88,140.63L568.39,140.57L568.22,139.98L567.75,139.42L573.35,135.19L575.43,134.71Z" class="land" id="EG-JS" title="Janub Sina"/>
    <path d="M516.9,124.8L516.2,124.72L514.25,123.51L512.92,121.26L512.78,117.5L512.07,116.08L511.75,114.56L512.78,112.4L514.61,111.12L516.57,109.63L516.99,108.62L517.31,104.96L518.05,105.44L518.91,106.89L519.85,106.95L518.83,108L518.76,110.02L518.23,110.05L518.23,112.18L519.14,113.04L520.04,114.24L521.02,116.18L521.85,118.36L523.57,119.71L525.54,120.8L525.71,121.02L527.17,121.9L523.52,122.14L519.96,123.59L518.46,124.96Z" class="land" id="EG-KB" title="Al Qalyubiyah"/>
    <path d="M519.13,64.97L519.14,67.16L518.15,67.08L517.33,67.81L517.4,69.51L518.28,69.44L518.34,71.79L518.72,72.61L518.77,81.24L518.97,82.62L518.4,83.06L517.08,82.81L514.88,82.69L510.67,83.03L509.91,82.98L509.91,87.54L505.69,87.47L505.38,89.01L501.6,89.01L501.36,88.16L500.36,88.15L498.81,85.32L498.36,84.89L494.02,80.78L491.05,81.07L491.07,75.46L488.81,72.84L488.48,68.86L490.07,68.85L492.1,68.41L497.65,66.52L500.09,65.91L501.66,64.87L502.16,65.04L503.02,64.64L505.73,63.97L506.93,63.32L506.93,64.34L506.05,64.1L503.25,64.87L502.02,65.56L501.56,66.04L500.07,66.81L497.41,67.78L496.54,68.61L496.25,69.29L495.14,69.53L493.94,69.58L493.64,70.02L493.02,70.11L492.15,69.92L491.47,70.16L491.27,71.77L492.92,71.96L495.3,71.89L495.77,70.31L496.64,70.55L498.03,71.55L498.57,70.89L498.76,70.31L500.26,69.29L500.7,69.19L501.47,70.11L502.38,69.87L504.8,70.15L505.7,69.59L507.54,69.1L508.23,68.11L508.71,66.96L509.24,66.23L511.18,66.38L511.23,67.22L511.78,67.44L512.33,65.94L511.71,65.12L510.16,64.14L509.05,63.66L507.55,63.37L508.28,63L509.5,62.68L511.63,62.61L515.67,63.82L517.66,64.32Z" class="land" id="EG-KFS" title="Kafr ash Shaykh"/>
    <path d="M568.94,329.52L566.97,328.54L564.97,326.76L563.96,325.98L562.97,323.38L562.63,320.94L562.78,319.68L562.16,318.44L562.04,315.91L561.11,313.89L560.6,313.01L560.69,311.11L561.43,309.46L562.87,307.97L565,307.04L567.14,305.03L568.48,303.43L569.04,302.2L569.04,300.03L569.46,298.74L570.71,296.52L571.78,294.92L571.58,293.09L570.6,291.24L569.85,290.62L567.76,290.52L565.68,291.34L564.14,292.48L560.75,293.88L559.83,294.45L558.3,294.96L556.81,295.06L555.14,295.38L553.98,295.74L550.09,295.84L548.79,295.33L544.86,291.88L543.1,289.72L543.65,288.8L544.44,288.03L545.6,287.25L546.67,287.25L547.64,286.89L548.71,286.11L549.27,285.18L549.97,285.08L550.94,285.59L551.12,286.74L551.64,288.13L552.98,288.9L553.77,289.99L554.75,289.99L555.86,288.65L557.23,288.55L558.39,287.93L560.06,286.69L562.43,285.03L564.42,284.36L569.34,284.31L572.96,285.09L575.7,286.95L576.86,288.81L577.36,290.58L578.27,292.6L578.56,295.38L578.58,298.33L578.42,299.22L577.01,303.69L575.42,306.25L570.76,309.31L569.23,311.83L567.84,313.32L567.18,314.81L567.18,319.18L567.84,321.24L569.09,323.24L569.66,323.76L569.71,326.66ZM565.69,309.91L567.18,310.19L568.35,309.98L569.1,308.89L569.59,307.72L569.84,306.41L567.67,306.21L566.56,308.89Z" class="land" id="EG-KN" title="Qina"/>
    <path d="M565.69,309.91L566.56,308.89L567.67,306.21L569.84,306.41L569.59,307.72L569.1,308.89L568.35,309.98L567.18,310.19Z" class="land" id="EG-LX" title="Al Uqsur"/>
    <path d="M422.79,226.98L423.9,224.74L424.7,222.94L425.18,221.5L425.5,219.7L426.13,218.25L427.41,217.35L428.68,216.63L432.99,215.73L435.54,214.46L438.89,211.94L441.91,210.85L443.99,209.23L446.06,208.68L449.09,205.97L452.91,203.44L454.99,201.81L456.9,200L457.86,195.47L459.13,191.12L460.09,188.4L461.36,186.03L462.28,182.51L464.31,182.32L471.18,182.09L472.41,182.11L499.42,181.21L501.38,182.35L503.72,183.99L506.73,184.39L506.36,185.71L505.32,188.72L505.24,194.22L503.39,197.1L502.38,198.92L501.78,201.2L501.88,203.02L502.38,207.92L505.09,214.18L505.49,218.94L506.4,221.89L506.6,225.75L506.3,228.47L504.05,228.32L502.79,229.42L500.82,229.11L499.35,228.71L496.89,228.71L496.82,227.13L423.96,226.98Z" class="land" id="EG-MN" title="Al Minya"/>
    <path d="M517.32,104.86L517.31,104.96L516.99,108.62L516.57,109.63L514.61,111.12L512.78,112.4L511.75,114.56L512.07,116.08L512.78,117.5L512.92,121.26L511.35,121.86L510.01,121.28L509.36,122.01L508.05,121.77L507.31,121.04L507.26,119.59L506.53,118.86L505.37,118.92L505.31,116.34L503.61,116.22L503.07,116.69L501.9,116.79L502.01,115.31L503.13,115.18L503.19,113.68L503.11,110.4L502.64,109.15L502.86,107.75L501.91,107.03L502.28,105.56L501.41,105.5L501.31,105.17L501.52,101.39L504.37,101.03L504.5,100.22L506.45,100.22L506.51,100.95L507.44,101L507.75,101.65L511.34,101.61L511.72,102.6L511.76,103.43L514.26,103.45Z" class="land" id="EG-MNF" title="Al Minufiyah"/>
    <path d="M457.64,87.35L457.62,89.85L458.37,114.69L458.37,119.34L459.41,120.99L461.96,122.25L465.4,122.36L470.55,126.46L472.14,127.23L478.25,131.78L480.53,132.23L481.89,133.09L483.14,135.62L480.65,135.95L462.32,148.14L456.97,149.47L451.74,156.2L425.65,182L391.78,190.17L375.3,227.09L290.55,227.08L289.9,227.09L289.88,161.74L289.49,161L288.34,157.76L286.64,154.22L286.25,152.99L285.65,152.11L284.83,149.9L284.73,149.31L285.36,147.69L286.09,146.78L286.12,145.84L284.71,142.33L283.34,139.25L283.23,138.15L283.37,135.17L283.12,133.8L280.94,126.39L278.93,124.16L279.34,122.77L280.26,120.92L281.17,119.28L281.53,118.32L282.02,116.48L283.89,114.9L284.75,113.81L285.37,112.41L285.91,111.55L287.23,110.17L288,107.47L288.06,106.11L288.27,105.22L289.12,103.28L289.62,100.39L290.48,98.19L290.57,97.64L289.54,94.1L289.56,93.26L289.2,91.92L288.56,90.91L288.14,89.72L287.9,88.28L286.95,85.44L286.42,84.39L285.65,82.56L285.46,81.15L285.51,80.07L285.84,77.12L285.79,75.34L285.58,74.5L285.08,73.68L284.77,71.42L284.86,71L287.68,68.75L288.58,67.84L292.17,65.21L292.49,64.57L292.75,62.9L293.17,61.9L294.18,60.86L294.68,59.89L295.3,59.84L295.21,61.18L295.54,61.58L295.72,62.38L296.41,64.1L295.73,64.42L295.97,65.25L296.51,65.72L297.57,66.16L300.56,66.79L303.13,66.77L304.25,66.87L306.19,66.37L307.32,66.31L308.29,66.11L310.35,65.37L311.76,64.99L319.58,62.12L320.67,61.94L322.05,61.51L322.84,61.51L324.77,62.03L325.97,62.16L326.5,62.4L327.76,62.57L329.66,63.05L329.97,63.3L331.31,63.59L331.51,63.78L336.66,65.23L337.06,65.52L339.96,66.27L341.14,66.27L342.84,66.59L344.22,67.2L346.07,66.98L347.62,67.48L349.72,67.41L351.88,67.78L353.43,67.7L354.49,68.16L354.83,68.72L355.89,69.02L356.92,69.52L359.91,69.5L361.44,69.36L362.7,70.13L363.19,70.88L364.41,70.97L364.99,71.73L366.28,72.32L368.87,72.27L369,72.95L370.04,72.87L371.25,73.09L371.77,72.65L372.44,72.68L374.49,72.39L375.4,72.8L375.17,73.81L375.79,74.75L376.42,76.27L376.54,77.12L377.29,78.04L377.95,78.61L378.89,79.15L380.3,79.44L382.61,79.5L383.31,80.17L384.72,79.94L385.71,79.92L386.04,80.72L387.45,80.79L387.81,80.53L388.89,80.31L392.52,78.98L393.13,78.63L393.75,77.79L394.05,77.96L394.01,79.2L394.18,80.15L394.95,81.01L394.85,81.84L395.1,83.26L395.38,83.63L396.2,84.11L397.17,84.32L399.76,84.53L401.96,84.59L403.97,84.32L404.94,84.42L405.49,84.85L406.34,85.19L407.64,85.09L409.66,85.16L410.98,85.4L413.27,84.66L414.77,84.55L416.54,85.8L417.79,86.2L418.96,86.13L419.39,86.42L420.5,86.74L420.66,87.39L421.12,87.64L422.7,88.07L424.68,88.13L425.24,88.83L426.14,88.87L426.85,89.71L427.75,90.12L429.06,90.23L429.15,91.33L430.07,92.2L431.29,92.78L431.83,93.53L434.08,94.46L435.16,95.64L436.05,95.52L437.94,95.88L439.93,95.83L440.82,95.69L442.94,95.15L444.82,94.39L446.83,93.78L449.92,92.37L450.67,91.86L452.08,91.25L453.5,90.33L454.91,89.56L456.18,88.42Z" class="land" id="EG-MT" title="Matruh"/>
    <path d="M557.94,79.02L559.99,80.18L560.14,80.48L561.11,81.21L562.56,83.04L562.61,83.44L564.12,84.8L565.24,85.5L566.59,85.83L566.59,88.31L564.1,87.64L561.68,86.07L559.09,85.13L557.53,84.35L555.75,84.21L555.57,83.68L556.32,83.07L558.12,80.22ZM556.67,78.23L555.93,79.23L555.79,78.3L555.4,77.34L554.94,78.3L554.44,78.87L553.98,77.7L554.16,76.92L554.42,76.61L555.62,76.69L556.17,77.32L556.21,77.78Z" class="land" id="EG-PTS" title="Bur Sa`id"/>
    <path d="M555.86,288.65L554.75,289.99L553.77,289.99L552.98,288.9L551.64,288.13L551.12,286.74L550.94,285.59L549.97,285.08L549.27,285.18L548.71,286.11L547.64,286.89L546.67,287.25L545.6,287.25L544.44,288.03L543.65,288.8L543.1,289.72L542.26,288.69L540.95,286.78L540.22,286.48L539.06,285.18L536.74,282.13L534.86,279.31L532.1,275.77L530.52,273.39L528.79,270.91L527.92,269.39L526.3,268.15L524.26,267.76L521.84,264.95L519.8,262.31L519.38,260.82L519.9,260.65L520.86,259.86L522.26,259.08L522.95,258.56L523.88,257.21L524.34,256.32L525.78,256.48L526.48,257.41L527.2,259.02L528.04,259.82L528.72,261.32L530.52,261.34L530.92,261.61L533.01,262.38L537.71,266.32L539.34,268.41L539.71,269.7L540.5,270.74L541.82,271.17L542.17,273.6L543.15,276.53L544.08,277.97L544.74,278.65L546.94,280.05L550.2,281.04L551.67,282.12L552.51,284.22L554.16,286.5L554.43,286.61L554.28,287.94Z" class="land" id="EG-SHG" title="Suhaj"/>
    <path d="M549.63,84.98L550.17,85.96L551.76,86.03L551.91,90.61L550.54,90.66L550.35,92.15L548.89,95.49L549.62,98.62L549.68,100.81L545.85,106.29L545.64,107.05L541.56,107.29L541.09,108L538.03,107.84L537.69,107.13L535.86,107.05L536,108.39L537.35,109.1L537.69,112.8L538.5,116.78L533.42,120.35L530.87,121.9L527.17,121.9L525.71,121.02L525.54,120.8L523.57,119.71L521.85,118.36L521.02,116.18L520.04,114.24L519.14,113.04L518.23,112.18L518.23,110.05L518.76,110.02L518.83,108L519.85,106.95L521.49,105.34L522.23,103.41L521.55,102.78L521.55,97.51L522.62,96.56L529.75,96.36L529.92,95.17L530.99,94.58L531.12,93.26L532.95,93.11L533.07,90.77L535.4,88.35L535.52,86.73L536.4,85.26L539.3,85.32L543.42,84.71L546.12,83.66L545.78,84.59L546.34,84.44L547.83,84.88L547.59,84.27L548.29,84.29L549.11,85.03Z" class="land" id="EG-SHR" title="Ash Sharqīyah"/>
    <path d="M585.75,78.43L583.87,78.69L583.78,79.46L582.64,79.6L581,80.53L580.47,80.99L578.75,81.69L583.3,78.84L584.47,78.49ZM649.93,151.46L647.99,150.98L644.97,151.11L641.95,150.51L639.15,150.27L636.03,149.79L635.78,149.57L634.63,149.67L632.51,148.8L629.58,147.88L624.7,144.89L621.58,144.17L618.67,143.22L615.97,141.42L609.52,137.35L608.05,136.57L601.42,135.01L597.98,135.07L597.15,134.83L590.4,133.87L582.5,133.63L577.15,133.98L576.95,134.11L575.43,134.05L575.43,132.56L574.18,132.43L574.29,123.19L573.44,120.05L573.35,120.04L572.73,117.77L571.58,114.64L570.23,112.23L567.64,108.13L566.79,93.85L566.59,88.31L566.59,85.83L567.95,85.85L569.3,85.7L571.71,85.14L571.62,85.46L570.23,85.75L570.17,86.7L570.8,86.87L571.37,86.29L572.02,86.52L572.9,86.36L573.7,85.53L574.8,84.88L576.02,84.54L577.57,84.57L578.07,84.7L578.34,84.08L579.28,84.42L579.74,85.64L580.1,86.15L580.84,86.15L581.48,85.46L580.84,85.24L580.95,84.85L582.18,84.07L582.46,83.54L581.68,83.3L581.44,84.21L579.23,84.34L580.61,83.24L581.44,81.82L583.92,80.67L584.52,80.94L584.99,81.67L585.24,82.49L584.84,82.69L584.5,83.35L584.91,83.64L584.91,84.34L585.8,84.82L585.78,85.91L585.59,86.4L586.63,86.25L587.63,85.73L587.64,85.36L588.43,85.09L589.91,84.93L590.95,84.3L591.47,84.55L592.21,83.53L592.59,83.59L593.95,83.37L594.03,82.42L594.96,81.11L593.14,80.25L594.14,80.23L595.9,81.09L596.96,82.2L597.15,82.57L598.15,82.7L598.46,82.98L600.12,83.35L602.59,83.42L605.28,83.24L608.16,82.61L610.28,81.91L612.68,81.29L616.27,79.85L618.97,78.51L620.7,77.5L623.07,75.88L625.16,74.05L626.58,78.76L629.58,88.75L631.65,94.85L634.85,101.61L635.9,106L635.8,108.31L637.37,110.17L636.62,112.29L636.71,113.59L639.25,115.25L639.99,118.05L644.3,130.21L644.22,130.85L647.94,141.33L647.91,143.35L648.56,144.49L648.72,145.27L648.55,146.41L648.21,147.55L648.53,149.47L649.01,150.38Z" class="land" id="EG-SIN" title="Shamal Sina"/>
    <path d="M540.11,173.08L540.74,161.51L542.51,140.81L542.54,137.27L541.51,130.29L540.98,126.32L539.99,122.86L539.89,120.61L541.43,120.47L556.49,120.38L558.62,121.04L563.58,121.39L564.98,120.24L568.71,119.82L573.44,120.05L574.29,123.19L574.18,132.43L575.43,132.56L575.43,134.05L575.43,134.71L573.35,135.19L567.75,139.42L567.23,138.51L566.37,137.79L566.92,137.29L567.23,135.98L566.21,134.88L565.8,134.64L565.38,133.97L564.88,134.16L564.56,133.74L564.35,132.89L564.38,132.17L563.04,132.35L563.19,138.69L562.21,139.83L560.66,140.96L559.53,142.94L559.24,145.5L558.68,148.47L558.77,150.92L559.89,151.69L560.34,151.84L560.58,152.42L561.32,152.95L561.64,153.59L562.39,153.89L562.57,154.58L564.75,156.14L565.73,157.79L566.25,159.95L566.23,160.6L566.62,160.87L566.65,161.56L567.13,162.25L566.89,162.92L567.14,163.74L567.72,164.81L567.69,165.78L568,166.89L563.65,167.04L560.47,168.94L557.02,169.89L550.52,173.9L545.16,173.99L540.99,174.78Z" class="land" id="EG-SUZ" title="As Suways"/>
    <path d="M423.96,226.98L496.82,227.13L496.89,228.71L496.05,228.79L495.98,230.61L496.61,231.24L496.75,232.83L497.59,233.21L497.95,235.28L498.72,236.94L499.84,238.44L500.26,240.18L501.17,241.52L502.29,242.15L505.48,245.29L507.19,246.81L507.99,247.25L509.73,247.44L511.07,247.76L513.24,249.02L514.63,251.3L516.08,254.31L517.57,257.8L519.38,260.82L519.8,262.31L521.84,264.95L524.26,267.76L526.3,268.15L527.92,269.39L528.79,270.91L530.52,273.39L532.1,275.77L534.86,279.31L536.74,282.13L539.06,285.18L540.22,286.48L540.95,286.78L542.26,288.69L543.1,289.72L544.86,291.88L548.79,295.33L550.09,295.84L553.98,295.74L555.14,295.38L556.81,295.06L558.3,294.96L559.83,294.45L560.75,293.88L564.14,292.48L565.68,291.34L567.76,290.52L569.85,290.62L570.6,291.24L571.58,293.09L571.78,294.92L570.71,296.52L569.46,298.74L569.04,300.03L569.04,302.2L568.48,303.43L567.14,305.03L565,307.04L562.87,307.97L561.43,309.46L560.69,311.11L560.6,313.01L561.11,313.89L562.04,315.91L562.16,318.44L562.78,319.68L562.63,320.94L562.97,323.38L563.96,325.98L564.97,326.76L566.97,328.54L568.94,329.52L571.75,330.83L573.92,332.88L575.22,334.52L575.53,336.02L575.51,338.14L575.56,339.9L576.5,342.79L576.96,344.57L578.41,347.41L577.96,350.1L577.96,352.45L577.43,355.28L576.82,358.11L576.8,360.89L576.33,364.3L576.32,366.71L576.01,371.95L572.99,375.13L571.5,375.88L570.47,376.28L569.34,377.41L569.48,379.96L571.18,381.62L572.39,382.61L572.65,383.63L570.93,385.03L569.31,385.48L567.54,386.23L565.68,387.33L564.42,388.16L563.28,389.79L561.91,394.61L561.61,397.28L562.74,398.62L566.92,399.62L569.09,399.91L570.48,399.6L572.16,399.51L572.54,401.12L572.3,401.9L571.16,403.82L569.79,405.87L568.54,408.51L567.47,410.35L566.1,412.55L565.1,414.82L564.46,416.75L563.46,418.52L562.69,420.16L561.32,422.86L560,423.61L558.78,423.07L557.22,422.08L555.13,421.66L553.04,421.45L552.25,421.14L547.81,422.46L540.82,424.43L539,425.03L537.7,425.22L536.04,425.03L533.8,425.04L532.85,425.45L531.67,426.86L530.98,428.36L531.16,430.16L531.16,433.69L531.34,434.98L530.96,436.26L530.28,437.54L528.73,439.3L526.34,441.52L523.11,441.42L520.67,442.17L517.18,443.98L516.54,446.21L517.77,448.02L519.93,447.81L520.68,447.88L520.83,449.62L520.49,450.36L520.44,451.06L519.43,453.88L517.3,453.83L509.19,453.86L507.05,453.8L501.89,453.87L501.51,453.81L471.54,453.93L471.54,454.16L467.08,453.95L459.42,453.91L446.74,453.96L446.54,453.89L444.2,453.92L426.75,453.83L423.42,453.87L403.44,453.83L401.12,453.91L399.59,453.84L391.55,453.86L390.31,453.81L387.07,453.88L385.59,453.83L360.64,453.93L343.52,453.85L339.87,453.91L294.96,453.96L289.9,454.16L289.9,227.09L290.55,227.08L375.3,227.09L376.88,227.09Z" class="land" id="EG-WAD" title="Al Wadi al Jadid"/>
  </g>
</svg>