<?xml version="1.0" encoding="UTF-8"?>
<svg xmlns="http://www.w3.org/2000/svg" width="513.74" height="399.63" viewBox="223.13 57.19 513.74 399.63" style="background-color:#000000">
  <!-- Created using SVG Map Generator: dojo.amcharts.com/svg-map-generator -->
  <style>
    .land { fill: #ffffff; stroke: #000000; stroke-width: 0.65; }
  </style>
  <g id="polygons">
    <path d="M351.06,217.87L349.02,220.24L343.28,220.75L341.97,222.8L334.51,227.61L332.09,230.78L333.2,234.67L332.2,237.94L335,240.86L335.84,244.17L337.66,244.29L340.31,247.24L344.54,245.77L345.64,248.95L344.06,251.53L337.53,252.38L335,254.59L335.84,256.3L332.58,263.28L329.07,262.55L329.8,256.67L325.81,254.59L324,252.75L321.33,253.61L320.37,249.93L317.23,245.52L317.1,242.21L312.63,240L309.73,240.62L305.98,233.62L304.05,232.52L297.76,230.93L292.44,231.66L287.37,237.92L287.85,242.33L286.76,244.79L284.83,244.91L278.54,242.33L275.88,248.83L275.64,255.08L272.62,258.75L276.97,263.89L274.79,264.75L265.2,264.65L264.46,243.36L268.49,232.89L268.34,228.17L271.03,225.23L271.76,219.89L270.11,212.31L270.22,209.67L275.57,201.73L280.64,198.85L286.18,203.52L289.16,204.03L292.38,200.02L293.03,197.5L291.72,195.93L293.96,189.32L292.83,185.19L297.1,175.72L296.19,172.28L296.26,168.03L297.61,165.72L302.54,163L304.12,168.41L307.75,170.06L312.18,170.06L315.81,168.51L316.51,167.07L320.04,166.35L322.05,166.97L326.69,161.31L329.21,164.09L332.13,170.98L334.04,171.19L336.36,168.41L339.18,166.97L339.78,173.14L343.31,177.26L341.59,179.52L343.41,180.75L345.42,178.49L347.44,182.7L344.21,185.17L343.81,187.53L345.32,191.43L339.07,198.62L339.07,206.18L337.67,208.95L341.09,213.25L346.53,212.43L347.24,216.23Z" class="land" id="ET-BE" title="Bīnshangul Gumuz"/>
    <path d="M433.16,450.32L440.29,446.1L446.99,434.66L446.65,431.87L448.44,426.01L449.92,423.99L455.23,411.65L456.19,405.04L457.89,399.48L461.24,391.61L464.46,386.96L465.7,386.4L470.32,387.94L480.46,386.31L482.49,385.59L487.83,380.76L495.22,376.2L494.02,373.3L493.29,362.21L493.86,356.99L493.05,351.66L495.14,347.78L498.8,343.6L501.97,342.36L509.4,346.45L513.4,347.93L518.91,353.57L522.77,348.54L525.17,346.68L527.01,347.67L531.23,345.67L534.39,338.85L534.27,336.69L537.74,330.73L539.4,324.28L538.74,321.88L528.37,317.8L527.53,313.01L530.13,306.22L528.92,302.04L529.38,293.76L530.4,290.19L532.7,286.59L532.8,282.88L538.72,277.02L540.99,276.4L542.78,279.28L548.77,280.86L549.78,282.3L550.76,288.03L552.18,291.43L555.55,291.49L557.8,285.21L562.09,283.61L562.39,277.53L559.93,273.5L560.74,268.94L557.06,265.66L556.68,262.77L552.25,260.56L552.91,257.84L549.19,251.18L553.46,248.23L558.53,245.78L559.26,243.82L564.25,243.09L554.42,237.12L551.52,238.75L543.26,238.74L541.96,237.29L538.59,236.89L533.08,241.88L528.96,240.25L523.68,241.5L522.8,247.21L519.43,245.83L513.81,247.65L508.43,246.17L505.66,246.43L503.66,248.22L498.22,251.18L492.64,252.94L491.6,249.84L487.98,248.08L487.83,248.08L488.94,242.07L491.95,237.39L498.08,231.57L495.92,227.51L500.77,208.78L500.97,205.06L504.75,201.04L506.32,196.76L507.74,195.82L521.25,195.92L523.8,195.05L530.16,196.71L534.06,195.32L544.98,194.48L547.96,192.64L552.56,191.59L556.42,192.44L557.85,194.81L562.58,195.46L561.97,197.45L559.46,199.08L557.11,202.42L555.4,206.46L553.63,207.37L555.26,211.07L558.01,214.52L560.03,221.97L564.16,225.15L567.87,231.8L571.92,233.14L573.55,239.73L574.75,241.9L578.13,244.8L579.77,249.3L584.15,251.94L586.63,251.91L598.93,263.19L600.26,263.97L617.9,269.83L650.74,280.73L670.64,287.46L698.36,296.84L700.35,297.83L734.22,297.83L632.66,403.39L630.36,403.41L598.4,401.56L594.21,402.9L583.48,405.38L569.62,411.97L564.24,416.4L561.14,422.87L558.46,424.27L541.78,427.12L536.29,427.17L534.03,428.04L529.12,431.57L528.92,433.27L526.15,435.69L521.54,434.07L512.39,435.7L505.13,436.12L501.72,435.25L498.04,431.03L494.03,428.67L489.84,424.29L487.7,425.7L476.93,429.85L476.36,430.75L470.26,432.88L458.84,438.47L455.34,445.49L449.58,451.01L448.27,454.16L444.88,452.22L436.22,451.72Z" class="land" id="ET-SO" title="Sumalē"/>
    <path d="M265.2,264.65L274.79,264.75L276.97,263.89L272.62,258.75L275.64,255.08L275.88,248.83L278.54,242.33L284.83,244.91L286.76,244.79L287.85,242.33L287.37,237.92L292.44,231.66L297.76,230.93L304.05,232.52L305.98,233.62L309.73,240.62L312.63,240L317.1,242.21L317.23,245.52L320.37,249.93L321.33,253.61L324,252.75L325.81,254.59L329.8,256.67L329.07,262.55L332.58,263.28L335.84,256.3L335,254.59L337.53,252.38L344.06,251.53L345.64,248.95L344.54,245.77L340.31,247.24L337.66,244.29L335.84,244.17L335,240.86L332.2,237.94L333.2,234.67L332.09,230.78L334.51,227.61L341.97,222.8L343.28,220.75L349.02,220.24L351.06,217.87L351.37,216.12L360.23,217.87L365.07,220.12L369.2,220.83L367.79,222.98L368.8,225.64L371.92,228.1L375.04,226.97L380.48,229.53L384.01,233.32L386.42,234.03L393.07,230.96L395.39,230.66L402.44,225.54L406.17,224.93L409.39,222.27L411.3,216.43L418.36,216.23L420.47,215.41L424.91,217.05L423.49,225.75L418.56,228.2L422.99,230.76L422.59,233.11L423.7,237.1L425.31,238.32L428.33,237.1L431.25,237.1L435.08,239.35L439.51,237.51L442.54,239.86L442.74,244.15L440.12,246.66L444.35,247.99L444.95,250.24L440.72,249.62L439.01,251.77L436.89,252.07L436.69,256.67L441.22,258.2L441.53,259.83L439.01,262.79L438.2,267.28L438.81,272.17L441.43,271.35L443.94,268.91L446.46,272.07L455.33,267.78L455.03,263.71L455.73,258.91L457.46,258.45L460.77,258.4L460.87,260.65L462.58,263.5L465.4,264.22L464.09,267.69L466.91,268.3L469.23,264.35L472.55,262.72L472.66,259.96L475.38,257.72L480.71,250.17L485.25,249.45L487.93,248.08L487.98,248.08L491.6,249.84L492.64,252.94L498.22,251.18L503.66,248.22L505.66,246.43L508.43,246.17L513.81,247.65L519.43,245.83L522.8,247.21L528.68,247.13L531.37,246.14L534.31,247.18L536.7,244.87L536.24,242.28L540.84,240.67L543.26,238.74L551.52,238.75L554.42,237.12L564.25,243.09L559.26,243.82L558.53,245.78L553.46,248.23L549.19,251.18L552.91,257.84L552.25,260.56L556.68,262.77L557.06,265.66L560.74,268.94L559.93,273.5L562.39,277.53L562.09,283.61L557.8,285.21L555.55,291.49L552.18,291.43L550.76,288.03L549.78,282.3L548.77,280.86L542.78,279.28L540.99,276.4L538.72,277.02L532.8,282.88L532.7,286.59L530.4,290.19L529.38,293.76L528.92,302.04L530.13,306.22L527.53,313.01L528.37,317.8L538.74,321.88L539.4,324.28L537.74,330.73L534.27,336.69L534.39,338.85L531.23,345.67L527.01,347.67L525.17,346.68L522.77,348.54L518.91,353.57L513.4,347.93L509.4,346.45L501.97,342.36L498.8,343.6L495.14,347.78L493.05,351.66L493.86,356.99L493.29,362.21L494.02,373.3L495.22,376.2L487.83,380.76L482.49,385.59L480.46,386.31L470.32,387.94L465.7,386.4L464.46,386.96L461.24,391.61L457.89,399.48L456.19,405.04L455.23,411.65L449.92,423.99L448.44,426.01L446.65,431.87L446.99,434.66L440.29,446.1L433.16,450.32L426.55,450.48L420.69,448.89L418.6,447.73L413.06,446.74L409.44,447.65L402.22,446.84L399.68,447.12L395.44,443.26L366.15,424.38L362.9,421.38L357.08,419.29L352.5,419.33L351.15,415.29L352.16,413.17L350.55,410.85L357,410.55L358.41,408.12L358.51,401.14L357.7,397.4L361.33,393.35L368.88,392.85L370.8,392.24L373.62,394.16L382.99,391.33L384.8,389.55L390.14,391.17L392.86,391.17L392.66,387.83L394.37,384.69L394.57,378.01L398.8,376.29L398.6,373.86L396.39,372.14L395.48,367.99L391.35,365.46L390.84,362.42L393.06,358.87L393.36,353.09L392.05,351.17L392.56,348.53L395.48,345.19L398,347.11L401.62,347.01L401.32,350.46L404.85,349.34L406.36,352.28L405.66,353.91L402.43,354.82L402.33,359.38L399.31,359.78L398.5,362.32L400.31,365.25L403.94,368.29L403.44,371.33L409.18,369.31L409.58,367.68L405.55,365.25L408.78,362.62L408.98,360.49L411.7,358.06L410.59,352.79L412.2,350.97L414.72,350.36L422.38,352.18L423.99,353.4L429.13,360.09L432.85,360.8L434.46,359.07L433.06,357.05L434.97,355.22L433.76,347.15L424.49,341.88L421.77,341.78L417.64,339.04L420.56,336.71L420.66,332.24L417.44,327.47L414.92,328.49L409.89,327.77L407.67,326.15L404.14,331.13L399.61,333.05L397.9,329.5L399.31,324.93L405.05,321.58L407.06,315.39L410.35,313.73L410.15,309.36L410.85,306.52L415.29,300.42L420.22,289.73L417.8,287.49L418.61,284.03L415.39,282.3L411.56,283.52L410.55,288L406.82,289.33L406.73,285.96L405.31,283.62L400.98,283.32L395.24,285.56L394.03,284.54L391.21,286.07L385.97,285.76L379.72,283.83L377.41,286.58L378.12,289.63L383.65,291.06L382.85,298.55L381.14,299.66L378.21,297.12L376.1,303.22L376.1,309.22L377.01,310.95L375.29,318.67L371.77,319.79L366.53,324.16L361.79,323.45L361.39,322.02L357.46,320.4L355.65,323.24L349.41,318.98L345.27,317.35L340.44,317.05L335.2,314.81L333.29,312.47L329.06,312.17L329.86,309.12L328.05,305.56L325.83,305.36L322.81,302.92L325.23,299.97L324.32,295.29L320.39,294.78L319.08,297.22L321.2,299.15L320.39,301.8L314.15,304.65L312.54,302L306.19,303.83L301.65,309.12L298.73,309.02L297.1,307.1L291.76,306.9L291.86,301.81L294.48,302.53L295.89,299.07L299.52,297.54L297.6,294.29L299.72,292.05L296.8,290.01L292.97,289.2L289.24,289.5L284.71,284.31L279.37,283.8L276.95,281.77L274.23,283.9L270.7,284.72L272.12,280.34L272.01,277.39L270.5,273.92L265.58,275.96ZM540.92,251.02L536.07,250.31L534.29,252.88L533.87,255.59L540.99,256L540.23,254.13ZM423.21,269.12L425.9,267.23L426.98,264L425.92,260.81L420.28,260.68L418.42,263.59L419.49,266.1Z" class="land" id="ET-OR" title="Oromīya"/>
    <path d="M543.26,238.74L540.84,240.67L536.24,242.28L536.7,244.87L534.31,247.18L531.37,246.14L528.68,247.13L522.8,247.21L523.68,241.5L528.96,240.25L533.08,241.88L538.59,236.89L541.96,237.29Z" class="land" id="ET-DD" title="Dirē Dawa"/>
    <path d="M423.21,269.12L419.49,266.1L418.42,263.59L420.28,260.68L425.92,260.81L426.98,264L425.9,267.23Z" class="land" id="ET-AA" title="Ādīs Ābeba"/>
    <path d="M540.92,251.02L540.23,254.13L540.99,256L533.87,255.59L534.29,252.88L536.07,250.31Z" class="land" id="ET-HA" title="Hārerī Hizb"/>
    <path d="M463.04,74.63L462.84,78.56L458.61,79.31L456.8,78.06L452.08,85.67L455.83,86.92L458.49,86.42L458.49,90.41L457.4,92.65L458.37,99.25L459.46,100.74L458.98,107.46L455.47,106.71L453.9,110.07L454.62,113.55L456.19,116.03L456.68,120.13L458.49,124.6L458.73,127.33L461.27,130.06L462.72,133.28L457.53,135.7L457.16,141.27L459.34,143.62L457.04,146.84L457.04,148.95L451,149.44L442.41,148.58L439.03,149.69L437.7,147.34L437.1,141.27L435.28,137.93L438.31,136.93L440.12,129.74L433.11,126.4L429.84,124.16L429.72,121.06L431.78,119.57L426.94,116.34L424.28,117.46L420.9,115.97L421.02,113.73L416.91,112.49L418.12,108.64L410.02,105.91L405.91,107.15L405.3,109.01L398.65,108.14L397.69,109.26L394.06,108.39L392.61,110.63L390.43,110.01L386.44,105.41L384.99,110.38L377.13,113.49L373.63,113.61L372.42,116.22L369.64,117.09L364.44,114.85L362.27,112.74L359.37,112.74L356.7,110.13L353.2,112.62L347.4,112.49L346.55,109.51L347.52,107.52L344.98,105.16L343.29,98.67L344.01,96.87L343.28,90.9L346.32,81.39L347.65,80.37L353.83,79L360.57,79.95L362.55,81.4L364.83,80.63L366.47,75.89L372.31,74.61L375.71,78.37L378.46,83.63L381.5,86.52L392.56,59.84L396.46,65.27L400.13,66.79L404,66.84L407.24,72.96L410.69,76.02L416.78,75.35L425.57,73.34L429.41,70.78L430.48,67.95L432.66,68.32L435.47,71.02L437.15,75.22L439.2,73.6L442.52,73.72L446.68,72.27L456.08,72.96L460.96,75.8Z" class="land" id="ET-TI" title="Tigray"/>
    <path d="M457.04,148.95L456.62,152.57L457.91,158.57L459.91,161.99L459.13,166.25L461.72,171.12L463.65,171.91L464.23,175.79L466.03,177.11L467.84,184.28L470.48,188.09L470.42,193.12L468.61,197.33L469.84,198.64L467.39,203.57L467.84,208.36L469.32,214.13L469,220.06L467.71,226.29L461.65,225.76L461.72,228.9L465.65,229.3L466.87,231.52L463.71,235.84L463.46,238.2L459.85,237.15L458.17,238.2L459.97,241.51L458.43,246.61L455.52,250.33L459.01,251.51L459.59,254.32L457.72,256.08L457.46,258.45L455.73,258.91L455.03,263.71L455.33,267.78L446.46,272.07L443.94,268.91L441.43,271.35L438.81,272.17L438.2,267.28L439.01,262.79L441.53,259.83L441.22,258.2L436.69,256.67L436.89,252.07L439.01,251.77L440.72,249.62L444.95,250.24L444.35,247.99L440.12,246.66L442.74,244.15L442.54,239.86L439.51,237.51L435.08,239.35L431.25,237.1L428.33,237.1L425.31,238.32L423.7,237.1L422.59,233.11L422.99,230.76L418.56,228.2L423.49,225.75L424.91,217.05L420.47,215.41L418.36,216.23L411.3,216.43L409.39,222.27L406.17,224.93L402.44,225.54L395.39,230.66L393.07,230.96L386.42,234.03L384.01,233.32L380.48,229.53L375.04,226.97L371.92,228.1L368.8,225.64L367.79,222.98L369.2,220.83L365.07,220.12L360.23,217.87L351.37,216.12L351.06,217.87L347.24,216.23L346.53,212.43L341.09,213.25L337.67,208.95L339.07,206.18L339.07,198.62L345.32,191.43L343.81,187.53L344.21,185.17L347.44,182.7L345.42,178.49L343.41,180.75L341.59,179.52L343.31,177.26L339.78,173.14L339.18,166.97L336.36,168.41L334.04,171.19L332.13,170.98L329.21,164.09L326.69,161.31L322.05,166.97L320.04,166.35L316.51,167.07L315.81,168.51L312.18,170.06L307.75,170.06L304.12,168.41L302.54,163L305.38,159.3L306.6,155.06L308.6,153.24L309.15,150.87L315.52,140.19L319.3,136.74L332.68,135.11L333.35,131.25L332.37,127.73L336.41,112.85L341.44,105.56L343.29,98.67L344.98,105.16L347.52,107.52L346.55,109.51L347.4,112.49L353.2,112.62L356.7,110.13L359.37,112.74L362.27,112.74L364.44,114.85L369.64,117.09L372.42,116.22L373.63,113.61L377.13,113.49L384.99,110.38L386.44,105.41L390.43,110.01L392.61,110.63L394.06,108.39L397.69,109.26L398.65,108.14L405.3,109.01L405.91,107.15L410.02,105.91L418.12,108.64L416.91,112.49L421.02,113.73L420.9,115.97L424.28,117.46L426.94,116.34L431.78,119.57L429.72,121.06L429.84,124.16L433.11,126.4L440.12,129.74L438.31,136.93L435.28,137.93L437.1,141.27L437.7,147.34L439.03,149.69L442.41,148.58L451,149.44Z" class="land" id="ET-AM" title="Āmara"/>
    <path d="M457.46,258.45L457.72,256.08L459.59,254.32L459.01,251.51L455.52,250.33L458.43,246.61L459.97,241.51L458.17,238.2L459.85,237.15L463.46,238.2L463.71,235.84L466.87,231.52L465.65,229.3L461.72,228.9L461.65,225.76L467.71,226.29L469,220.06L469.32,214.13L467.84,208.36L467.39,203.57L469.84,198.64L468.61,197.33L470.42,193.12L470.48,188.09L467.84,184.28L466.03,177.11L464.23,175.79L463.65,171.91L461.72,171.12L459.13,166.25L459.91,161.99L457.91,158.57L456.62,152.57L457.04,148.95L457.04,146.84L459.34,143.62L457.16,141.27L457.53,135.7L462.72,133.28L461.27,130.06L458.73,127.33L458.49,124.6L456.68,120.13L456.19,116.03L454.62,113.55L453.9,110.07L455.47,106.71L458.98,107.46L459.46,100.74L458.37,99.25L457.4,92.65L458.49,90.41L458.49,86.42L455.83,86.92L452.08,85.67L456.8,78.06L458.61,79.31L462.84,78.56L463.04,74.63L467.51,74.31L473.36,76.46L478.25,81.03L483.82,83.8L487.83,84.55L492.19,86.9L499.32,95.05L504.34,103.99L505.37,105.01L515.82,111.73L521.95,116.81L525.5,121.51L528.13,127.24L529.9,129.73L536.36,133.31L544.56,143.97L541.49,149L535.02,157.69L529.56,166.1L525.21,169.25L523.21,176.1L524.53,185.72L524.45,192.36L523.8,195.05L521.25,195.92L507.74,195.82L506.32,196.76L504.75,201.04L500.97,205.06L500.77,208.78L495.92,227.51L498.08,231.57L491.95,237.39L488.94,242.07L487.83,248.08L487.93,248.08L485.25,249.45L480.71,250.17L475.38,257.72L472.66,259.96L472.55,262.72L469.23,264.35L466.91,268.3L464.09,267.69L465.4,264.22L462.58,263.5L460.87,260.65L460.77,258.4Z" class="land" id="ET-AF" title="Āfar"/>
    <path d="M352.5,419.33L349.48,418.91L337.88,419.15L336.14,418.7L329.9,419.2L327.16,416.61L327.16,412.89L322.16,408.2L322.16,397.04L323.61,394.29L321.84,392.18L323.78,389.27L319.42,387.49L316.36,387.49L311.2,386.03L305.72,389.43L303.95,387.81L305.72,384.9L304.92,383.12L298.79,379.62L299.12,376.38L294.93,369.9L294.93,364.39L292.67,362.45L292.83,359.37L291.7,356.28L294.02,355.66L295.11,356.41L301.25,352.66L301.55,348L301.05,341.81L294.6,336.54L289.97,330.04L290.88,326.29L293.29,324.46L296.82,325.98L298.13,328.52L303.17,327.61L307.1,328.01L306.69,323.14L307.9,319.38L307.19,316.94L304.88,315.52L298.83,315.22L300.24,310.64L298.73,309.02L301.65,309.12L306.19,303.83L312.54,302L314.15,304.65L320.39,301.8L321.2,299.15L319.08,297.22L320.39,294.78L324.32,295.29L325.23,299.97L322.81,302.92L325.83,305.36L328.05,305.56L329.86,309.12L329.06,312.17L333.29,312.47L335.2,314.81L340.44,317.05L345.27,317.35L349.41,318.98L355.65,323.24L357.46,320.4L361.39,322.02L361.79,323.45L366.53,324.16L371.77,319.79L375.29,318.67L377.01,310.95L376.1,309.22L376.1,303.22L378.21,297.12L381.14,299.66L382.85,298.55L383.65,291.06L378.12,289.63L377.41,286.58L379.72,283.83L385.97,285.76L391.21,286.07L394.03,284.54L395.24,285.56L400.98,283.32L405.31,283.62L406.73,285.96L406.82,289.33L410.55,288L411.56,283.52L415.39,282.3L418.61,284.03L417.8,287.49L420.22,289.73L415.29,300.42L410.85,306.52L410.15,309.36L410.35,313.73L407.06,315.39L405.05,321.58L399.31,324.93L397.9,329.5L399.61,333.05L404.14,331.13L407.67,326.15L409.89,327.77L414.92,328.49L417.44,327.47L420.66,332.24L420.56,336.71L417.64,339.04L421.77,341.78L424.49,341.88L433.76,347.15L434.97,355.22L433.06,357.05L434.46,359.07L432.85,360.8L429.13,360.09L423.99,353.4L422.38,352.18L414.72,350.36L412.2,350.97L410.59,352.79L411.7,358.06L408.98,360.49L408.78,362.62L405.55,365.25L409.58,367.68L409.18,369.31L403.44,371.33L403.94,368.29L400.31,365.25L398.5,362.32L399.31,359.78L402.33,359.38L402.43,354.82L405.66,353.91L406.36,352.28L404.85,349.34L401.32,350.46L401.62,347.01L398,347.11L395.48,345.19L392.56,348.53L392.05,351.17L393.36,353.09L393.06,358.87L390.84,362.42L391.35,365.46L395.48,367.99L396.39,372.14L398.6,373.86L398.8,376.29L394.57,378.01L394.37,384.69L392.66,387.83L392.86,391.17L390.14,391.17L384.8,389.55L382.99,391.33L373.62,394.16L370.8,392.24L368.88,392.85L361.33,393.35L357.7,397.4L358.51,401.14L358.41,408.12L357,410.55L350.55,410.85L352.16,413.17L351.15,415.29Z" class="land" id="ET-SN" title="YeDebub Bihēroch Bihēreseboch na Hizboch"/>
    <path d="M298.73,309.02L300.24,310.64L298.83,315.22L304.88,315.52L307.19,316.94L307.9,319.38L306.69,323.14L307.1,328.01L303.17,327.61L298.13,328.52L296.82,325.98L293.29,324.46L290.88,326.29L289.97,330.04L294.6,336.54L301.05,341.81L301.55,348L301.25,352.66L295.11,356.41L294.02,355.66L294.6,350.45L290.41,347.69L286.22,346.72L283,342.5L277.84,341.85L278.16,338.28L276.55,335.52L270.91,334.38L266.39,331.46L266.56,328.05L261.56,325.61L259.79,323.01L261.56,320.57L256.24,315.37L253.66,312.12L247.54,309.19L245.92,310.33L243.35,308.05L240.93,307.89L238.19,309.52L236.09,307.08L231.1,306.43L228.2,306.91L225.78,302.2L225.78,299.43L231.26,292.43L231.58,288.36L232.87,283.96L236.26,282.22L239.13,282.86L243.99,281.47L246.89,283.02L249.47,281.88L250.6,284.97L253.66,284.97L257.69,281.55L261.72,281.55L265.27,278.13L265.58,275.96L270.5,273.92L272.01,277.39L272.12,280.34L270.7,284.72L274.23,283.9L276.95,281.77L279.37,283.8L284.71,284.31L289.24,289.5L292.97,289.2L296.8,290.01L299.72,292.05L297.6,294.29L299.52,297.54L295.89,299.07L294.48,302.53L291.86,301.81L291.76,306.9L297.1,307.1Z" class="land" id="ET-GA" title="Gambēla Hizboch"/>
  </g>
</svg>