<?xml version="1.0" encoding="UTF-8"?>
<svg xmlns="http://www.w3.org/2000/svg" width="399.42" height="399.63" viewBox="280.29 57.19 399.42 399.63" style="background-color:#000000">
  <!-- Created using SVG Map Generator: dojo.amcharts.com/svg-map-generator -->
  <style>
    .land { fill: #ffffff; stroke: #000000; stroke-width: 0.65; }
  </style>
  <g id="polygons">
    <path d="M532.75,181.22L532.5,187.83L529.59,194.9L521.66,221.17L519.93,226.53L518.56,227.45L518.33,228.55L512.6,239.45L505.56,242.47L496.07,243.21L487.33,246.42L488.29,242.25L484.7,221.84L486.61,213.81L487,210.36L487.19,200.34L487.68,185.42L491.75,180.92L491.16,173.35L493.42,171.89L492.39,167.63L492.71,167.66L496.7,170.76L501.32,172.72L504.97,173.78L506.06,174.59L509.34,174.66L510.71,175.17L514.47,175.4L515.68,176.49L521.74,176.52L523.89,178.15L526.36,178.21L528.71,180.24L530.35,181.26Z" class="land" id="DZ-58" title="El Menia"/>
    <path d="M562.24,123.21L562.32,126.76L563.85,128.14L564.88,131.11L564.04,134.65L564.04,134.6L563.49,134.7L563.19,136.27L563.99,137.57L563.84,139.37L564.07,140.91L563.19,141.84L564.18,143.18L564.43,145.6L562.73,145.47L557.46,145.64L549.09,145.37L549.76,144.43L549.15,142.42L549.25,140.47L548.96,138.28L548.05,136.39L548.73,134.66L548.93,132.83L550.17,130.89L550.81,128.67L549.02,126.69L547.62,125.66L548.29,124.01L547.25,122.76L548.27,121.9L548.35,121.03L549.36,120.5L549.5,120.76L551.37,121.93L552.77,122.23L556.75,122.6L562.01,123.42L562.18,123.22Z" class="land" id="DZ-57" title="El M'Ghair"/>
    <path d="M639.78,326.41L639.82,330.62L640.93,332.21L643.26,337.21L644.91,338.3L645.94,339.6L649.54,339.66L651.22,338.98L652.6,338.84L653.76,340.16L654.91,338.91L657.3,339.72L659.19,341.94L660.8,342.62L666.27,346.64L669.73,345.3L677.06,360.54L643.7,381.58L644.3,364.95L640.84,362.6L639.79,362.31L638.5,361.09L636.72,361.01L635.43,360.1L624.17,360.04L613.31,367.21L609.47,367.78L599.3,369.82L594.45,366.01L596.13,364.28L592.11,354L591.7,345.03L592.04,341.94L587.79,335.14L585.6,335.13L584.14,334.86L582.6,333.87L581.9,332.96L580.9,330.78L579.1,327.7L578.36,325.14L575.34,320.29L573.97,318.97L574.47,319.01L576.14,320.09L582.13,322.26L587.37,325.31L594.59,325.64L595.36,325.23L600.52,325.29L601.64,321.71L605.91,319.74L607.32,319.9L608.39,318.13L611.97,315.83L615.2,316.05L617.66,319.72L618.79,323.24L620.95,326.08L625.22,326.53L627.62,326L631.06,326.31L633.14,325.55Z" class="land" id="DZ-56" title="Djanet"/>
    <path d="M586.38,177.68L584.13,177.34L577.52,174.08L571.58,171.63L569.69,171.41L564.33,163.68L564.4,158.37L562.14,157.63L561.35,156.8L560.47,154.83L557.91,152.7L558.22,148L557.03,146.31L557.09,145.63L557.46,145.64L562.73,145.47L564.43,145.6L564.18,143.18L563.19,141.84L564.07,140.91L563.84,139.37L563.99,137.57L563.19,136.27L563.49,134.7L564.04,134.6L564.07,135.32L565.09,135.14L566.84,133.63L568.26,133.79L569.08,140.68L572.42,150.94L575.43,161.37L576.7,163.71L581.83,171.88Z" class="land" id="DZ-55" title="Touggourt"/>
    <path d="M596.03,412.33L590.4,415.97L584.97,420.52L559.34,444.52L538.51,448.65L511.97,454.16L510.76,453.02L508.03,451.06L507.68,449.73L509.31,447.92L509.61,446.59L510.58,445.82L510.74,444.83L510.08,443.68L510.37,442.91L509.62,441.68L510.07,440.31L509.66,439.59L509.98,438.32L510.01,436.68L508.8,436.41L506.96,435.19L504.92,434.12L502.01,433.72L499.98,433.03L497.56,433.02L496.33,432.62L495.46,431.88L494.29,431.83L496.06,431.27L495.69,428.98L495.01,427.01L493.26,423.07L491.5,420.47L491.25,418.11L491.55,415.6L490.24,410.95L488.29,406.91L486.59,404.73L484,402.66L483.46,401.96L482.35,396.61L490.24,396.5L491.03,395.66L503.54,395.86L504.66,394.16L506.25,394.6L508.69,399.94L509.74,403.89L512.16,404.1L514.18,407.04L517.97,407.34L519.29,408.68L522.34,409.64L523.83,411.57L523.79,413.35L524.8,414.68L524.73,416.89L524.12,418.07L523.63,421.97L524.62,423.17L528.22,423.19L532.37,419.15L535.75,418.56L536.67,415.2L537.37,413.17L536.87,411.54L537.55,408.66L539.39,407.67L541.69,408.42L544.2,408.54L548.28,411.44L556.02,411.56L557.95,413.9L567.87,414.27L568.09,410.73L570.46,405.82L571.4,403.04L572.61,400.63L577.5,400.75L584.48,406.41L586.21,406.83L587.11,406.18L589.31,406.22L594.33,410.98Z" class="land" id="DZ-54" title="In Guezzam"/>
    <path d="M558.42,277.56L552.99,277.22L551.33,279.44L549.97,280.81L550.05,282.77L550.8,284.96L548.19,288.38L546.74,289.49L546.67,291.66L542.77,295.48L540.82,296L539.7,297.79L538.53,297.8L537.32,296.86L531.93,296.92L525.19,303.96L522.97,304.24L520.78,302.09L519.86,302.71L521.27,305.12L522.03,305.9L522.51,309.36L521.18,310.4L521.07,312.48L523.42,316.58L518.61,321.23L517.25,320.62L516.33,321.25L513.8,321.08L513.28,319.94L513.37,316.5L511.17,316.44L508.45,319.56L500.07,319.72L497.83,317.36L494.34,316.77L492.65,315.22L489.91,315.75L488.26,314.52L486.86,316.07L485.85,321.21L483.77,330.36L475.83,336.56L475.83,330.39L475.62,330.02L475.58,318.77L468.47,308.72L466.2,303.71L471.09,298.77L472.89,296.44L473.16,295.39L475.55,294.54L477.02,295.38L478.85,295.22L479.81,294.33L479.81,290.81L480.2,286.88L482.35,281.48L480.8,279.14L480.76,273.9L482.33,271.22L482.92,265.84L483.02,262.69L485.7,258.42L486.64,255.44L486.84,250.1L487.33,246.42L496.07,243.21L505.56,242.47L520.26,254.77L528.71,248.58L557.54,227.61L557.68,256.55L555.95,263.58Z" class="land" id="DZ-53" title="In Salah"/>
    <path d="M455.68,206.74L455.72,206.78L448.39,215.27L445.06,221.29L436.43,227.62L435.21,232.15L436.19,237.97L435.71,240.31L431.64,244.04L430.85,244.62L421.35,245.24L410.23,248.6L404.65,256.73L399.28,261.1L398.2,263.08L397.92,264.34L396.33,266.68L394.96,268.16L392.98,270.9L392.73,272.18L390.5,279.96L391.52,280.98L380.38,280.01L377.78,278.09L372.62,272.33L372.26,265.87L366.03,255.4L362.56,244.21L360.23,237.59L355.13,235.14L347.95,235.23L343.55,231.82L346.83,227.06L346.79,225.88L347.58,224.54L350.85,222.08L354.25,219.19L360.52,216.06L365.98,210.61L369.31,209.36L372.19,209.19L375.08,208.42L377.26,207.49L377.39,209.46L378.19,210.29L379.22,213.62L381.55,213.56L381.75,212.59L383.42,212.66L384.45,211.76L387.32,211.72L389.3,210.02L390.59,210.49L393.32,210.42L397.28,206.22L405.72,205.95L406.64,204.95L416.03,204.62L417.18,203.78L419.76,203.31L420.82,204.65L424.61,204.25L425.45,203.51L428.12,203.45L429.47,202.44L434.2,202.14L435.12,201.44L437.27,201.41L439.77,203.75L441.55,203.68L442.93,205.48L450.27,205.44L452.06,206.27Z" class="land" id="DZ-52" title="Béni Abbès"/>
    <path d="M549.37,120.51L549.36,120.5L548.35,121.03L548.27,121.9L547.25,122.76L548.29,124.01L547.62,125.66L549.02,126.69L550.81,128.67L550.17,130.89L548.93,132.83L548.73,134.66L548.05,136.39L548.96,138.28L549.25,140.47L549.15,142.42L549.76,144.43L549.09,145.37L548.53,147.07L546.97,145.43L545.66,144.71L544.84,143.79L544.79,142.09L545.27,141.31L542.51,140.31L541.74,140.33L541.13,139.22L539.38,139.46L539.05,138.61L537.05,138.37L535.24,136.64L532.25,135.52L531.37,134.65L530.06,134.37L529.05,133.34L531.23,132.33L532.45,130.86L530.24,130.34L530.44,129.47L529.21,128.69L528.36,128.85L527.55,127.8L527.95,127.2L529.74,126.76L530.45,125.87L528.85,125L528.73,123.54L528.07,123.19L527.76,120.41L530.12,117.13L534.43,116.95L535.86,116.13L538.25,113.43L540.12,112.82L541.78,112.63L543.18,112.08L543.2,112.07L545.69,112.26L547.21,115.75L549.12,117.52L549.09,118.8L549.59,120.09Z" class="land" id="DZ-51" title="Ouled Djellal"/>
    <path d="M475.85,350.36L475.42,396.32L478.74,395.77L480.93,395.83L482.26,396.15L483.46,401.96L484,402.66L486.59,404.73L488.29,406.91L490.24,410.95L491.55,415.6L491.25,418.11L491.5,420.47L493.26,423.07L495.01,427.01L495.69,428.98L496.06,431.27L494.29,431.83L492.99,429.39L491.06,427.56L489.83,427.27L488.35,428.81L487.35,427.9L485.75,427.83L484.95,428.28L484.17,427.06L482.78,427.09L482.11,426.16L480.26,424.78L479.99,422.25L479.55,421.35L476.14,419.88L474.54,419.58L473.73,418.24L472.71,417.98L470.83,418.2L470.46,417.27L470.99,414.74L471.1,412.68L470.64,410.33L448.47,395.66L448.14,394.08L407.89,365.61L381.52,347.35L364.14,335.48L355.24,329.24L365.78,324.68L371.6,324.15L382.15,326.55L399.8,330.67L416.12,334.66L430.18,338.14L443.66,341.69L451.91,343.81L461.69,346.47Z" class="land" id="DZ-50" title="Bordj Badji Mokhtar"/>
    <path d="M486.29,256.55L485.41,254.5L482.86,253.06L477.14,253.6L475.03,252.81L469.07,252.91L461.76,256.01L459.45,256.59L456.07,256.57L453.6,255.78L451.45,254.67L448.46,254.71L443.85,253.08L442.41,252.81L432.19,243.55L435.71,240.31L436.19,237.97L435.21,232.15L436.43,227.62L445.06,221.29L448.39,215.27L455.72,206.78L469.35,196.96L487.68,185.42L487.19,200.34L487,210.36L486.61,213.81L484.7,221.84L488.29,242.25L487.33,246.42L486.84,250.1L486.64,255.44Z" class="land" id="DZ-49" title="Timimoun"/>
    <path d="M461.64,80.85L462.99,81.18L465.49,80.38L466.44,82.79L466.62,85.35L468.45,85L470.38,86.97L473.18,86.39L474.03,88.23L474.94,89.21L475.64,89.83L474.62,91.04L473.83,90.25L472.78,90.6L472.77,92.68L472.38,93.09L471.07,93.61L470.56,94.51L468.69,94.33L467.71,95.86L466.62,95.95L465.07,98.58L464.25,98.75L462.4,98.47L459.73,97.14L458.02,97.19L456.92,95.97L454.4,96.11L454.1,94.67L452.74,92.67L454.3,90.76L456.2,90.3L457.23,88.71L456.78,87.57L457.25,85.93L459.46,86.09L460.87,85.51L459.92,82.91Z" class="land" id="DZ-48" title="Relizane"/>
    <path d="M532.75,181.22L530.35,181.26L528.71,180.24L526.36,178.21L523.89,178.15L521.74,176.52L515.68,176.49L514.47,175.4L510.71,175.17L509.34,174.66L506.06,174.59L504.97,173.78L501.32,172.72L496.7,170.76L492.71,167.66L492.39,167.63L491.77,165.1L491.31,159.63L500.33,158.8L500.85,158.86L503.41,157.85L505.6,157.48L513.12,159.38L512.87,156.81L509.66,154.78L516.6,154.56L517.83,154.21L518.21,153.55L520.31,153.93L521.63,154.7L522.48,154.48L533.85,155.38L544.25,158.51L539.6,166.61L533.52,172.89L532.88,177.79Z" class="land" id="DZ-47" title="Ghardaïa"/>
    <path d="M428.17,94.21L429.99,95.88L430.09,96.56L428.93,98.22L431.28,97.83L431.99,98.15L434.28,97.04L436.45,97L437.3,99.23L436.6,100.75L434.05,101.26L433.13,102.35L432.5,101.81L431.16,102.99L431.52,104.24L429.23,106.96L424.89,105.02L424.46,104.49L421.29,104.16L420.32,105.57L418.71,105.01L418.09,103.6L418.77,102.8L420.46,101.93L421.34,102.15L423.82,100.85L424.78,98.91L425.65,96L427.34,94.52Z" class="land" id="DZ-46" title="Aïn Témouchent"/>
    <path d="M426.94,125.84L427.94,127.28L429.82,125.83L431.63,126.89L433.33,127.1L436.91,124.78L438.57,125.68L439.08,126.67L439.42,129.08L440.63,131.07L441.37,133.77L442.78,133.11L442.99,132.16L444.37,130.79L445.82,130.13L447.04,130.29L447.52,132.26L448.82,131.76L449.77,132.41L449.62,134.78L450.29,135.03L450.96,136.62L449.76,137.74L450.53,140.4L448.7,147.52L448.52,150.58L448.09,152.11L448.85,153.48L448.69,155.53L448.19,156.95L446.82,157.73L446.6,159.36L447.11,160.77L447.99,161.73L447.65,163.09L448.06,165.2L447.1,167.56L445.51,170.32L444.11,172.46L441.99,172.04L440.43,173.23L434.44,171.67L431.37,173.58L429.39,174.51L429.1,173.14L427.88,173.12L428.07,170.48L426.78,169.87L426.86,168.41L428.03,167.63L429.33,166.06L424.16,162.07L422.04,161.08L418.96,156.12L420.06,155.72L420.52,154.2L420.03,153.2L418.34,151.77L417.84,150.49L416.55,148.79L416.66,146.5L418.09,143.06L417.96,141.34L416.86,139.57L415.84,139.67L415.42,138.36L416.53,137.5L415.98,135.26L416.9,130.12L420.06,127.68L421.4,127.47L424.52,127.59L425.58,126.3Z" class="land" id="DZ-45" title="Naama"/>
    <path d="M479.74,74.89L480.8,76.3L481.58,76.64L482.32,75.59L485.63,75.56L486.16,75.99L487.84,75.82L488.91,75.13L492.36,75.68L494.38,75.6L495.67,75.92L497.48,76.8L498.39,77.87L497.01,78.26L496.13,80.09L496.6,81.57L498.06,82.59L496.07,84.55L495.29,84.33L495.31,86.28L494.68,87.03L493.55,87.18L492.52,88.59L491.1,88.46L490.34,87.45L489.02,86.63L487.04,87.26L485.54,86.94L483.99,88.92L482.52,87.74L480.99,87.66L480.89,85.54L478.33,82.27L479.3,80.57L478.81,79.2L477.75,77.84L477.54,76.67Z" class="land" id="DZ-44" title="Aïn Defla"/>
    <path d="M557.84,72.52L558.86,72.24L560.09,72.95L561.48,72.59L562.67,71.09L567.08,72L568.38,70.99L569.2,71.54L571.69,72.08L572.58,71.95L572.51,73.42L571.64,73.94L569.8,74.11L569.66,75.87L568.75,77.56L570.14,77.8L573.13,80.45L572.99,81.69L570.8,82.39L570.55,84.94L569.39,86.29L566.71,86.53L565.91,88.43L562.21,88.26L563.35,87.12L562.33,85.98L562.97,85.45L562.62,83.78L561.24,83.12L561.25,81.41L561.9,80.86L560.87,79.76L559.32,76.87L559.25,75.99L558.14,75.07L558.32,73.2Z" class="land" id="DZ-43" title="Mila"/>
    <path d="M501.94,69.12L502.05,70.45L502.15,71.52L499.67,72.49L498.48,74.29L497.44,74.64L495.67,75.92L494.38,75.6L492.36,75.68L488.91,75.13L487.84,75.82L486.16,75.99L485.63,75.56L482.32,75.59L481.58,76.64L480.8,76.3L479.74,74.89L480.75,72.63L482.93,72.47L484.87,72.01L486.98,72.27L488.99,71.83L490.33,71.19L493.16,70.43L494.32,71.38L495.97,71.75L498.04,71.48Z" class="land" id="DZ-42" title="Tipaza"/>
    <path d="M600.21,74.8L602.45,75.36L604.15,74.69L605,75.13L607.73,75.18L608.78,75.82L608.14,77.42L608.43,78.53L607.42,79.45L607.74,80.21L606.87,81.61L607.54,83.32L606.67,84.69L606.57,86.72L604.64,85.62L602.79,86.3L601.19,86.31L598.4,88.57L597.25,88.03L596.75,87.12L595.63,88.18L594.28,89.83L592.56,90.07L592.65,88.72L590.26,87.75L589.67,86.84L587.93,82.36L587.32,81.13L587.8,80.28L590.41,80.9L592.71,80.16L593.56,80.24L598.24,78.21L597.31,76.9Z" class="land" id="DZ-41" title="Souk Ahras"/>
    <path d="M577.63,93.4L578.27,94.88L581.94,94.49L582.23,95.79L583.54,96.41L584.49,94.62L586.25,94.44L589.06,95.79L591.22,97.49L592.35,99.15L589.47,100.04L589.84,103.19L589.38,103.86L590.26,105.31L588.87,107.46L587.84,107.88L587.38,109.21L588.98,110.6L589.58,112.25L588.83,114.03L589.36,114.92L589.26,116.44L587.21,119.9L586.59,122.02L586.31,124.44L582.34,124.62L582.08,128.72L580.71,128.35L578.57,127.07L576.2,125.33L576.23,123.39L575.84,121.64L576.99,119.3L576.84,116.7L577.58,114.57L576.89,113.16L575.69,112.44L574.97,113.96L573.97,114.47L573.48,112.51L573.62,110.41L572.37,106.62L573.6,105.37L573.49,102.98L574.56,102.47L573.94,101.09L574.3,100.23L573.8,98.94L575.17,97.8L576.56,97.84L577.99,95.99L577.39,94.64Z" class="land" id="DZ-40" title="Khenchela"/>
    <path d="M576.23,123.39L576.2,125.33L578.57,127.07L580.71,128.35L582.08,128.72L582.34,124.62L586.31,124.44L590.05,125.95L594.16,126.25L597.41,126.69L597.46,127.38L595.98,128.43L594.51,127.75L592.98,130.31L592.05,130.68L592.65,131.77L592.46,133.58L592.02,134.28L592.5,135.91L592.04,136.78L593.25,137.79L593.38,140.25L593.98,141.78L596.3,145.37L596.93,148.63L597.79,150.88L599.19,150.96L603.23,152.89L603.2,154.03L605.7,156.88L607.14,159.18L607.8,166.45L616.25,172.46L621.31,175.82L601.42,176.7L586.39,177.69L581.83,171.88L576.7,163.71L575.43,161.37L572.42,150.94L569.08,140.68L568.26,133.79L566.84,133.63L565.09,135.14L564.07,135.32L564.04,134.65L564.88,131.11L563.85,128.14L562.32,126.76L562.24,123.21L562.82,123.09L566.8,122.42L568.61,123.07L569.7,123.88L571.86,124.46L572.94,125.71L574.61,125.3Z" class="land" id="DZ-39" title="El Oued"/>
    <path d="M474.94,89.21L475.11,87.3L477.17,86.73L477.99,85.31L479.2,86.02L479.83,87.13L480.99,87.66L482.52,87.74L483.99,88.92L485.54,86.94L487.04,87.26L489.02,86.63L490.34,87.45L491.1,88.46L492.52,88.59L491.85,90.59L491.98,91.48L491.14,92.36L490.36,91.89L489.2,92.49L489.51,93.73L492.06,94.42L491.4,96.2L489.72,96.09L488.05,96.48L488.08,95.61L484.42,96.25L481.85,96.16L480.67,95.65L479.61,96.39L478.94,95.07L477.06,95.06L476.95,93.72L475.29,93.35L473.97,92.67L473.61,94.6L472.38,93.09L472.77,92.68L472.78,90.6L473.83,90.25L474.62,91.04L475.64,89.83Z" class="land" id="DZ-38" title="Tissemsilt"/>
    <path d="M343.55,231.82L347.95,235.23L355.13,235.14L360.23,237.59L362.56,244.21L366.03,255.4L372.26,265.87L372.62,272.33L377.78,278.09L380.38,280.01L391.52,280.98L391.47,281.86L389.1,290.28L387.65,291.22L384.88,291.24L381.23,291.01L379.57,291.59L378.07,292.48L376.22,294.22L375.9,294.93L370.63,302.61L369.71,304.37L369.18,306.65L368.38,308.32L356.66,308.72L351.03,314.8L340.57,318.93L314.87,301.46L314.58,301.41L305.14,295.17L282.94,281.01L283.08,272.31L283.06,250.43L287.03,248.62L289.67,246.03L292.4,243.85L296.49,241.46L297.08,240.6L298.77,239.61L299.89,238.62L302.47,237.68L302.93,236.4L303.58,235.96L305.45,236.24L308.49,235.43L310.31,233.6L312.03,232.78L314.46,233.42L316.5,233.33L318.06,233.97L319.53,234L320.21,233.15L322.16,232.62L323.9,232.82L325.42,231.85L329.24,231.84L330.81,231.47L332.77,231.91L335.31,231.19L337.78,230.76L339.24,231.39L340.62,233.18L342.48,233.65Z" class="land" id="DZ-37" title="Tindouf"/>
    <path d="M604.15,74.69L602.45,75.36L600.21,74.8L599.46,73.05L598.3,72.46L596.81,72.73L596.5,70.99L595.49,70.01L594.62,70.26L595.36,67.58L596.64,67.41L596.73,66.2L597.47,65.59L599.07,65.72L602.58,64.65L605.31,63.12L606.15,63.96L608.65,64L609.11,64.48L613.13,63.49L612.96,65.42L613.8,66.3L611.96,67.38L610.26,67.23L610.31,69.19L609.57,71.05L607.2,72.14L606.51,72.95L604.34,73.57Z" class="land" id="DZ-36" title="El Tarf"/>
    <path d="M525.34,64.36L525.31,65.43L524.12,67.27L521.79,68.48L520.91,70.68L519.27,70.37L519.44,71.93L517.37,71.83L515.13,71.21L514.18,72.32L511.52,72.61L509.93,69.84L511.66,68.68L512.91,68.5L512.55,67.19L515.13,67.48L517.54,66.34L519.54,64.72L522.53,63.83L523.66,64.4Z" class="land" id="DZ-35" title="Boumerdès"/>
    <path d="M538.62,75.55L539.75,76.2L539.44,77.91L540.12,78.83L542.73,78.63L543.63,78.05L545.24,78.99L545.42,79.93L546.87,81.06L547.44,83.55L546.88,85.11L545.96,86.44L546.06,88.94L544.68,89.19L544.4,90.79L543.11,91.22L542.97,90.11L541.92,90.13L540.75,88.57L538.27,88.99L536.35,90.37L535.45,88.87L534.09,90.17L532.6,89.21L534.38,87.39L534.04,85.35L533.31,84.86L531.66,86.04L529.37,85.69L528.95,85.22L526.34,85.68L525.97,84.77L527.3,83.8L527.54,81.59L528.74,81.11L529.86,79.71L531.1,79.82L531.83,79L532.5,80.57L534.73,80.24L536.34,79.66L536.21,78.11L538.48,76.32Z" class="land" id="DZ-34" title="Bordj Bou Arréridj"/>
    <path d="M639.78,326.41L633.14,325.55L631.06,326.31L627.62,326L625.22,326.53L620.95,326.08L618.79,323.24L617.66,319.72L615.2,316.05L611.97,315.83L608.39,318.13L607.32,319.9L605.91,319.74L601.64,321.71L600.52,325.29L595.36,325.23L594.59,325.64L587.37,325.31L582.13,322.26L576.14,320.09L574.47,319.01L573.97,318.97L573.96,318.95L574.01,318.22L569.59,305.37L568.36,304.38L568.28,303.54L566.44,302.97L565.5,301.63L566.22,300.61L566.48,299.12L567.35,298.81L568.89,297.24L568.61,295.63L558.37,285.86L558.55,283.7L558.59,278.54L555.95,263.58L557.68,256.55L557.54,227.61L571.42,220.43L573.79,221.29L600.79,215.48L629.1,209.94L630.71,217.21L627.52,218.61L627.98,221.35L630.34,224.47L634.94,234.93L636.69,243.61L637.27,249.46L635.95,259.73L638.41,268.38L638.06,269.27L638.04,271.69L637.01,274.34L636.52,276.6L635.58,277.49L635.22,278.95L634.99,281.92L635.66,284.21L636.43,288.41L637.71,290.37L637.27,292.91L637.48,294.97L636.53,297.68L629.84,300.55L628.76,303.35L627.67,304.58L630.32,308.68L639.75,322.29Z" class="land" id="DZ-33" title="Illizi"/>
    <path d="M448.01,121.95L449.97,122.75L452.01,124.5L453.95,124.7L456.53,122.87L457.92,124.35L459.46,124.23L462.18,122.07L464.74,122.71L468.3,123.43L467.72,127.82L472.67,127.54L472.58,128.25L473.87,130.6L474.51,131.69L474.5,132.8L476.47,133.66L478.35,135.4L481.02,134.53L482.65,135.95L483.15,137.34L482.88,139.16L483.25,139.88L485.34,141.87L484.52,143.57L484.82,144.51L484.35,145.69L487.12,145.96L486.94,147.45L490.05,148.47L491.89,148.08L491.69,151.54L488.43,151.44L488.58,153.79L489.27,154.99L489.91,157.06L490.76,158.04L491.31,159.63L491.77,165.1L493.42,171.89L491.16,173.35L491.75,180.92L487.68,185.42L469.35,196.96L455.72,206.78L443.45,196.59L444.12,193.97L442.74,192.65L441.55,191.96L440.6,189.33L441.59,187.68L440.47,185.94L441.54,184.86L440.92,183.66L441.63,182.17L441,180.18L440.8,177.77L441.26,175.97L441.95,174.55L442.9,173.81L444.66,173.4L445.54,171.68L445.51,170.32L447.1,167.56L448.06,165.2L447.65,163.09L447.99,161.73L447.11,160.77L446.6,159.36L446.82,157.73L448.19,156.95L448.69,155.53L448.85,153.48L448.09,152.11L448.52,150.58L448.7,147.52L450.53,140.4L449.76,137.74L450.96,136.62L450.29,135.03L449.62,134.78L449.77,132.41L448.82,131.76L447.52,132.26L447.04,130.29L448.35,127.52L449.18,126.89L448.77,124.02Z" class="land" id="DZ-32" title="El Bayadh"/>
    <path d="M446.23,90.69L446.2,90.78L444.8,92.89L443.48,91.92L442.7,93.33L440.95,95.28L440.59,96.59L439.9,96.78L439.66,98.09L438.46,98.87L437.4,101.09L436.6,100.75L437.3,99.23L436.45,97L434.28,97.04L431.99,98.15L431.28,97.83L428.93,98.22L430.09,96.56L429.99,95.88L428.17,94.21L430.5,92.09L431.99,92.36L433.2,91.22L436.02,92.53L437.04,92.03L437.8,90.97L438.79,90.62L439.81,88.59L441.66,87.93L442.79,88.64L442.95,89.86Z" class="land" id="DZ-31" title="Oran"/>
    <path d="M557.09,145.63L557.03,146.31L558.22,148L557.91,152.7L560.47,154.83L561.35,156.8L562.14,157.63L564.4,158.37L564.33,163.68L569.69,171.41L571.58,171.63L577.52,174.08L584.13,177.34L586.38,177.68L586.39,177.69L601.42,176.7L621.31,175.82L622.48,179.94L629.1,209.94L600.79,215.48L573.79,221.29L571.42,220.43L557.54,227.61L528.71,248.58L520.26,254.77L505.56,242.47L512.6,239.45L518.33,228.55L518.56,227.45L519.93,226.53L521.66,221.17L529.59,194.9L532.5,187.83L532.88,177.79L533.52,172.89L539.6,166.61L544.25,158.51L542.76,150.49L542.57,148.3L544.84,143.79L545.66,144.71L546.97,145.43L548.53,147.07L549.09,145.37Z" class="land" id="DZ-30" title="Ouargla"/>
    <path d="M446.2,90.78L446.57,91.65L448.05,92.34L449.42,91.63L450.41,92.77L452.74,92.67L454.1,94.67L454.4,96.11L456.92,95.97L458.02,97.19L459.73,97.14L462.4,98.47L464.25,98.75L465.09,99.31L464.89,101.29L464.21,102.33L463.21,102.65L461.38,101.91L460.19,102.63L459.73,104.65L458.64,105.26L457.69,106.87L456.31,108.26L454.71,107.36L452.2,108.81L451.76,107.9L449.21,106.8L448.3,107.17L445.08,106.36L445.01,105.22L444.02,103.46L444.98,102.17L445.01,100.94L442.84,100.53L440.43,100.69L440.77,98.96L440.17,98.48L439.18,99.21L438.46,98.87L439.66,98.09L439.9,96.78L440.59,96.59L440.95,95.28L442.7,93.33L443.48,91.92L444.8,92.89Z" class="land" id="DZ-29" title="Mascara"/>
    <path d="M525.97,84.77L526.34,85.68L528.95,85.22L529.37,85.69L531.66,86.04L533.31,84.86L534.04,85.35L534.38,87.39L532.6,89.21L534.09,90.17L535.45,88.87L536.35,90.37L538.27,88.99L540.75,88.57L541.92,90.13L542.97,90.11L543.11,91.22L544.4,90.79L545.5,92.12L546.55,92.16L547.17,93.94L548.4,93.9L550.21,94.39L549.56,95.32L548.12,96.23L547.72,97.01L545.83,97.2L544.47,96.76L542.78,97.94L542.12,97.89L541.03,96.61L541.66,100.63L541.26,102.93L540.4,104.31L538.83,104.96L538.99,105.72L541.63,105.85L543.21,106.54L543.51,107.16L544.06,109.46L543.69,111.62L543.18,112.08L541.78,112.63L540.12,112.82L538.25,113.43L535.86,116.13L534.43,116.95L530.12,117.13L527.76,120.41L528.07,123.19L528.73,123.54L528.85,125L530.45,125.87L529.74,126.76L527.95,127.2L525.74,124.83L524.17,123.9L524.48,122.03L522.87,120.21L523.18,118.38L522.78,116.98L522.6,114.53L519.47,114.01L518.14,114.05L516.38,110.63L516.7,109.52L516.2,107.83L515.36,107.11L514.41,104.99L518.33,101.78L517.97,100.02L518.76,99.45L518.5,97.22L514.64,94.32L512.94,92.51L512.67,91.36L513.58,90.09L515.98,93.91L515.55,90.26L517.39,87.75L517.88,87.02L519.28,87.19L520.83,88.26L521.13,89.18L523.03,88.15L525.33,89.01L524.94,87.91Z" class="land" id="DZ-28" title="M'Sila"/>
    <path d="M462.53,77.83L461.64,80.85L459.92,82.91L460.87,85.51L459.46,86.09L457.25,85.93L456.78,87.57L457.23,88.71L456.2,90.3L454.3,90.76L452.74,92.67L450.41,92.77L449.42,91.63L448.05,92.34L446.57,91.65L446.2,90.78L446.23,90.69L448.88,89.01L450.95,84.72L452.61,82.92L453.92,82.52L454.83,81.21L456.6,80.67L460.94,77.9Z" class="land" id="DZ-27" title="Mostaganem"/>
    <path d="M511.28,73.78L513.73,76.23L515.17,74.89L516.37,75.91L516.89,77.47L515.9,78L516.26,80.81L514.95,81.17L515.32,82.91L513.3,84.65L516.15,85.31L517.39,87.75L515.55,90.26L515.98,93.91L513.58,90.09L512.67,91.36L511.96,91.52L510.62,89.96L509.98,90.73L509.36,93.07L506.82,93.68L505.44,89.66L504.42,90.27L503.08,90.28L503.74,92.84L503.5,93.87L502.33,95.48L500.73,96.64L499.99,98.15L498.81,98.74L495.96,97.2L493.93,98.22L491.99,98.36L491.4,96.2L492.06,94.42L489.51,93.73L489.2,92.49L490.36,91.89L491.14,92.36L491.98,91.48L491.85,90.59L492.52,88.59L493.55,87.18L494.68,87.03L495.31,86.28L495.29,84.33L496.07,84.55L498.06,82.59L496.6,81.57L496.13,80.09L497.01,78.26L498.39,77.87L499.78,76.89L502.42,77.1L504.25,76.07L504.46,77.42L505.81,77.45L506.68,75.62L508.35,76.1L509.34,74L510.83,74.26Z" class="land" id="DZ-26" title="Médéa"/>
    <path d="M572.58,71.95L574.63,72.14L575.08,71.11L578.69,73.28L578.82,74.21L579.8,75.63L580.94,75.8L582.84,79.9L582.67,81.44L581.92,82.36L578.63,82.16L577.98,81.16L577.06,82.35L575.33,82.32L574.04,83.53L572.97,82.49L572.99,81.69L573.13,80.45L570.14,77.8L568.75,77.56L569.66,75.87L569.8,74.11L571.64,73.94L572.51,73.42Z" class="land" id="DZ-25" title="Constantine"/>
    <path d="M588.53,70.09L591.41,70.08L592.49,71.32L593.76,71.44L594.62,70.26L595.49,70.01L596.5,70.99L596.81,72.73L598.3,72.46L599.46,73.05L600.21,74.8L597.31,76.9L598.24,78.21L593.56,80.24L592.71,80.16L590.41,80.9L587.8,80.28L587.32,81.13L587.93,82.36L587.07,82.24L586.02,83.85L584.64,84.62L582.6,84.92L582.82,84.06L581.85,83.42L581.92,82.36L582.67,81.44L582.84,79.9L580.94,75.8L581.05,74.39L583.48,73.85L583.28,72.41L584.78,71.45L585.48,71.55Z" class="land" id="DZ-24" title="Guelma"/>
    <path d="M597.47,65.59L596.73,66.2L596.64,67.41L595.36,67.58L594.62,70.26L593.76,71.44L592.49,71.32L591.41,70.08L588.53,70.09L588.4,68.92L589.52,68.52L589.61,67.6L589.02,65.91L588.68,62.95L587.4,60.2L589,60.25L589.69,61.02L591.69,60.95L592.56,62.15L593.76,62.89L596.53,62.96L596.62,65.09Z" class="land" id="DZ-23" title="Annaba"/>
    <path d="M438.46,98.87L439.18,99.21L440.17,98.48L440.77,98.96L440.43,100.69L442.84,100.53L445.01,100.94L444.98,102.17L444.02,103.46L445.01,105.22L445.08,106.36L443.59,107.6L443.87,108.93L442.42,109.39L442.4,110.93L441.77,111.83L442.98,112.81L442.64,113.89L444.23,114.01L444.51,115.01L446.42,116.22L447.75,119.07L446.71,120.28L446.11,118.59L443.86,117.5L443.65,118.86L444.54,119.84L445.11,121.37L447.14,120.8L448.01,121.95L448.77,124.02L449.18,126.89L448.35,127.52L447.04,130.29L445.82,130.13L444.37,130.79L442.99,132.16L442.78,133.11L441.37,133.77L440.63,131.07L439.42,129.08L439.08,126.67L438.57,125.68L436.91,124.78L433.33,127.1L431.63,126.89L429.82,125.83L427.94,127.28L426.94,125.84L428.82,123.56L430.35,122.73L432.29,120.65L431.83,119.16L432.51,118.9L433.12,117.59L433.58,114.9L431.45,115.19L431.81,112.53L429.86,109.84L431,107.89L429.23,106.96L431.52,104.24L431.16,102.99L432.5,101.81L433.13,102.35L434.05,101.26L436.6,100.75L437.4,101.09Z" class="land" id="DZ-22" title="Sidi Bel Abbès"/>
    <path d="M587.4,60.2L588.68,62.95L589.02,65.91L589.61,67.6L589.52,68.52L588.4,68.92L588.53,70.09L585.48,71.55L584.78,71.45L583.28,72.41L583.48,73.85L581.05,74.39L580.94,75.8L579.8,75.63L578.82,74.21L578.69,73.28L575.08,71.11L574.63,72.14L572.58,71.95L571.69,72.08L572.58,69.94L569.91,68.52L569.34,66.82L569.39,65.45L567.9,65.07L567.8,63.36L567.39,62.38L567.87,61.35L569.25,60.33L571.85,59.84L573.68,61.77L573.71,62.41L575.53,63.17L578.12,62.99L579.65,63.59L580.67,64.77L583.67,63.84L584.42,64.18L585.75,63.33Z" class="land" id="DZ-21" title="Skikda"/>
    <path d="M445.08,106.36L448.3,107.17L449.21,106.8L451.76,107.9L452.2,108.81L454.71,107.36L456.31,108.26L457.69,106.87L460.66,106.49L460.92,107.39L462.19,107.95L463.64,110.14L462.22,111.46L460.81,112.27L461.32,113.1L460.98,114.64L462.56,117.4L463.51,116.98L463.53,119L466.21,120.08L464.74,122.71L462.18,122.07L459.46,124.23L457.92,124.35L456.53,122.87L453.95,124.7L452.01,124.5L449.97,122.75L448.01,121.95L447.14,120.8L445.11,121.37L444.54,119.84L443.65,118.86L443.86,117.5L446.11,118.59L446.71,120.28L447.75,119.07L446.42,116.22L444.51,115.01L444.23,114.01L442.64,113.89L442.98,112.81L441.77,111.83L442.4,110.93L442.42,109.39L443.87,108.93L443.59,107.6Z" class="land" id="DZ-20" title="Saïda"/>
    <path d="M552.74,71.62L553.43,71.62L553.74,73.34L556.04,72.82L556.69,73.25L557.84,72.52L558.32,73.2L558.14,75.07L559.25,75.99L559.32,76.87L560.87,79.76L561.9,80.86L561.25,81.41L561.24,83.12L562.62,83.78L562.97,85.45L562.33,85.98L563.35,87.12L562.21,88.26L560.82,89.37L559.21,87.53L558.1,87.78L556.84,88.9L556.78,89.8L557.93,90.28L557,91.53L556.1,91.68L554.72,90.9L553.08,91.27L551.8,92.23L551.98,93.14L551.23,94.72L550.21,94.39L548.4,93.9L547.17,93.94L546.55,92.16L545.5,92.12L544.4,90.79L544.68,89.19L546.06,88.94L545.96,86.44L546.88,85.11L547.44,83.55L546.87,81.06L545.42,79.93L545.24,78.99L543.63,78.05L542.73,78.63L540.12,78.83L539.44,77.91L539.75,76.2L538.62,75.55L539.45,74.78L540.95,74.28L541.03,73.04L543.26,73.69L544.76,73.34L544.98,72.65L546.53,72.32L547.6,73.42L547.09,74.04L547.48,77.2L548.77,77.08L550.53,74.53L552.53,72.98Z" class="land" id="DZ-19" title="Sétif"/>
    <path d="M567.8,63.36L567.9,65.07L569.39,65.45L569.34,66.82L569.91,68.52L572.58,69.94L571.69,72.08L569.2,71.54L568.38,70.99L567.08,72L562.67,71.09L561.48,72.59L560.09,72.95L558.86,72.24L557.84,72.52L556.69,73.25L556.04,72.82L553.74,73.34L553.43,71.62L552.74,71.62L551.9,71.42L551.92,70.21L553.64,69.4L554.65,67.56L555.92,67.2L557.77,66.08L559.19,66.6L563.38,65.6L565.67,64.45L566.85,64.18Z" class="land" id="DZ-18" title="Jijel"/>
    <path d="M491.4,96.2L491.99,98.36L493.93,98.22L495.96,97.2L498.81,98.74L499.99,98.15L500.73,96.64L502.33,95.48L503.5,93.87L503.74,92.84L503.08,90.28L504.42,90.27L505.44,89.66L506.82,93.68L509.36,93.07L509.98,90.73L510.62,89.96L511.96,91.52L512.67,91.36L512.94,92.51L514.64,94.32L518.5,97.22L518.76,99.45L517.97,100.02L518.33,101.78L514.41,104.99L515.36,107.11L516.2,107.83L516.7,109.52L516.38,110.63L518.14,114.05L519.47,114.01L522.6,114.53L522.78,116.98L523.18,118.38L522.87,120.21L524.48,122.03L524.17,123.9L525.74,124.83L527.95,127.2L527.55,127.8L528.36,128.85L529.21,128.69L530.44,129.47L530.24,130.34L532.45,130.86L531.23,132.33L529.05,133.34L530.06,134.37L531.37,134.65L532.25,135.52L535.24,136.64L537.05,138.37L539.05,138.61L539.38,139.46L541.13,139.22L541.74,140.33L542.51,140.31L545.27,141.31L544.79,142.09L544.84,143.79L542.57,148.3L542.76,150.49L544.25,158.51L533.85,155.38L532.68,153.69L532.59,152.95L531.56,151.92L531.14,150.55L528.84,148.03L526.36,146.01L519.2,143.15L517.99,141.05L514.49,137.79L511.68,136.69L509.84,136.38L508.45,133.5L508.35,132.09L507.51,129.79L507.45,128.25L506.68,127.49L506.54,126.37L505.53,126.36L504.24,125.67L503.09,126.4L501.59,128.76L499.56,129.7L498.48,129.4L496.37,126.92L495.15,124.97L494.01,121.93L494.1,121.08L493.57,117.71L493.53,116.23L493.4,114.04L494.72,113.63L495.63,111.78L496.05,109.43L498.02,108.97L498.97,108.3L497.69,107.13L498.71,105.1L498.73,103.6L497.37,102.62L496.54,101.34L494.1,103.41L493.16,101.74L491.74,101.25L487.05,97.98L486.85,96.71L488.05,96.48L489.72,96.09Z" class="land" id="DZ-17" title="Djelfa"/>
    <path d="M512.55,67.19L512.91,68.5L511.66,68.68L509.93,69.84L508.02,71L506.86,70.97L505.49,71.94L504.76,71.25L502.05,70.45L501.94,69.12L502.67,67.7L504.7,66.41L505.83,66.26L506.94,67.01L507.13,67.94L508.96,68.06L510.47,66.42Z" class="land" id="DZ-16" title="Algiers"/>
    <path d="M535.84,64.76L537.11,67.83L536.5,68.26L535.09,67.95L534.57,68.8L536.09,69.4L534.99,71.13L535.34,71.75L533.3,73.95L531.64,74.67L529.34,74.87L527.48,74.6L523.73,75.01L521.78,74.57L520.96,73.05L520.24,73.08L519.44,71.93L519.27,70.37L520.91,70.68L521.79,68.48L524.12,67.27L525.31,65.43L525.34,64.36L528.68,64.55L530.34,64.17L532.03,64.6L532.94,64.12L534.41,64.72Z" class="land" id="DZ-15" title="Tizi Ouzou"/>
    <path d="M472.38,93.09L473.61,94.6L473.97,92.67L475.29,93.35L476.95,93.72L477.06,95.06L478.94,95.07L479.61,96.39L480.67,95.65L481.85,96.16L484.42,96.25L488.08,95.61L488.05,96.48L486.85,96.71L487.05,97.98L491.74,101.25L493.16,101.74L494.1,103.41L496.54,101.34L497.37,102.62L498.73,103.6L498.71,105.1L497.69,107.13L498.97,108.3L498.02,108.97L496.05,109.43L495.63,111.78L494.72,113.63L493.4,114.04L493.53,116.23L490.82,116.55L490.43,117.49L488.65,118.28L487.01,119.63L486.54,120.59L483.18,121.47L482.16,122.15L480.52,124.03L480.19,126.22L478.72,127.1L478.48,126.08L476.56,127.58L475.11,128.08L475.61,129.27L473.87,130.6L472.58,128.25L472.67,127.54L467.72,127.82L468.3,123.43L464.74,122.71L466.21,120.08L463.53,119L463.51,116.98L462.56,117.4L460.98,114.64L461.32,113.1L460.81,112.27L462.22,111.46L463.64,110.14L462.19,107.95L460.92,107.39L460.66,106.49L457.69,106.87L458.64,105.26L459.73,104.65L460.19,102.63L461.38,101.91L463.21,102.65L464.21,102.33L464.89,101.29L465.09,99.31L464.25,98.75L465.07,98.58L466.62,95.95L467.71,95.86L468.69,94.33L470.56,94.51L471.07,93.61Z" class="land" id="DZ-14" title="Tiaret"/>
    <path d="M418.09,103.6L418.71,105.01L420.32,105.57L421.29,104.16L424.46,104.49L424.89,105.02L429.23,106.96L431,107.89L429.86,109.84L431.81,112.53L431.45,115.19L433.58,114.9L433.12,117.59L432.51,118.9L431.83,119.16L432.29,120.65L430.35,122.73L428.82,123.56L426.94,125.84L425.58,126.3L424.52,127.59L421.4,127.47L420.06,127.68L416.9,130.12L415.73,126.78L415.88,125.15L414.41,123.25L416.24,120.89L415.08,120.4L413.79,118.29L413.09,118.03L415.26,115.07L412.97,113.71L412.3,112.81L410.82,111.98L410.76,110.64L409.43,110.84L407.84,109.22L406.13,108.03L406.2,107.17L407.23,106.76L409.15,107.49L411.11,107.4L414.53,106.36L415.88,104.97L416.75,105.03Z" class="land" id="DZ-13" title="Tlemcen"/>
    <path d="M595.63,88.18L596.75,87.12L597.25,88.03L598.4,88.57L601.19,86.31L602.79,86.3L604.64,85.62L606.57,86.72L605.9,87.86L606.23,89.94L606.08,92.04L607.78,93.4L607.89,96.86L607.71,98.36L607.02,100.33L607.37,102.58L608.76,103.37L610.13,103.52L609.08,104.94L608.69,106.1L607.83,106.82L607.04,108.91L607.04,110.34L605.74,111L606.74,115.1L605.65,116.85L605.64,117.72L604.07,119.23L603.85,119.99L602.6,120.4L601.2,121.74L599.67,122.59L598.26,122.91L598.24,124.05L597.41,126.69L594.16,126.25L590.05,125.95L586.31,124.44L586.59,122.02L587.21,119.9L589.26,116.44L589.36,114.92L588.83,114.03L589.58,112.25L588.98,110.6L587.38,109.21L587.84,107.88L588.87,107.46L590.26,105.31L589.38,103.86L589.84,103.19L589.47,100.04L592.35,99.15L592.92,99.08L594.55,97.34L594.74,96.62L598.36,94.99L597.52,93.58L597.44,91.98L596.64,90.51L596.25,88.56Z" class="land" id="DZ-12" title="Tébessa"/>
    <path d="M596.03,412.33L594.33,410.98L589.31,406.22L587.11,406.18L586.21,406.83L584.48,406.41L577.5,400.75L572.61,400.63L571.4,403.04L570.46,405.82L568.09,410.73L567.87,414.27L557.95,413.9L556.02,411.56L548.28,411.44L544.2,408.54L541.69,408.42L539.39,407.67L537.55,408.66L536.87,411.54L537.37,413.17L536.67,415.2L535.75,418.56L532.37,419.15L528.22,423.19L524.62,423.17L523.63,421.97L524.12,418.07L524.73,416.89L524.8,414.68L523.79,413.35L523.83,411.57L522.34,409.64L519.29,408.68L517.97,407.34L514.18,407.04L512.16,404.1L509.74,403.89L508.69,399.94L506.25,394.6L504.66,394.16L503.54,395.86L491.03,395.66L490.24,396.5L482.35,396.61L482.26,396.15L480.93,395.83L478.74,395.77L475.42,396.32L475.85,350.34L475.83,336.56L483.77,330.36L485.85,321.21L486.86,316.07L488.26,314.52L489.91,315.75L492.65,315.22L494.34,316.77L497.83,317.36L500.07,319.72L508.45,319.56L511.17,316.44L513.37,316.5L513.28,319.94L513.8,321.08L516.33,321.25L517.25,320.62L518.61,321.23L523.42,316.58L521.07,312.48L521.18,310.4L522.51,309.36L522.03,305.9L521.27,305.12L519.86,302.71L520.78,302.09L522.97,304.24L525.19,303.96L531.93,296.92L537.32,296.86L538.53,297.8L539.7,297.79L540.82,296L542.77,295.48L546.67,291.66L546.74,289.49L548.19,288.38L550.8,284.96L550.05,282.77L549.97,280.81L551.33,279.44L552.99,277.22L558.42,277.56L558.59,278.54L558.55,283.7L558.37,285.86L568.61,295.63L568.89,297.24L567.35,298.81L566.48,299.12L566.22,300.61L565.5,301.63L566.44,302.97L568.28,303.54L568.36,304.38L569.59,305.37L574.01,318.22L573.96,318.95L575.34,320.29L578.36,325.14L579.1,327.7L580.9,330.78L581.9,332.96L582.6,333.87L584.14,334.86L585.6,335.13L587.79,335.14L592.04,341.94L591.7,345.03L592.11,354L596.13,364.28L594.45,366.01L599.3,369.82L609.47,367.78L613.31,367.21L624.17,360.04L635.43,360.1L636.72,361.01L638.5,361.09L639.79,362.31L640.84,362.6L644.3,364.95L643.7,381.58L628.16,391.43Z" class="land" id="DZ-11" title="Tamanrasset"/>
    <path d="M511.52,72.61L514.18,72.32L515.13,71.21L517.37,71.83L519.44,71.93L520.24,73.08L520.96,73.05L521.78,74.57L523.73,75.01L527.48,74.6L529.34,74.87L531.64,74.67L532.21,75.44L532.07,77.1L531.45,77.34L531.83,79L531.1,79.82L529.86,79.71L528.74,81.11L527.54,81.59L527.3,83.8L525.97,84.77L524.94,87.91L525.33,89.01L523.03,88.15L521.13,89.18L520.83,88.26L519.28,87.19L517.88,87.02L517.39,87.75L516.15,85.31L513.3,84.65L515.32,82.91L514.95,81.17L516.26,80.81L515.9,78L516.89,77.47L516.37,75.91L515.17,74.89L513.73,76.23L511.28,73.78Z" class="land" id="DZ-10" title="Bouira"/>
    <path d="M502.05,70.45L504.76,71.25L505.49,71.94L506.86,70.97L508.02,71L509.93,69.84L511.52,72.61L511.28,73.78L510.83,74.26L509.34,74L508.35,76.1L506.68,75.62L505.81,77.45L504.46,77.42L504.25,76.07L502.42,77.1L499.78,76.89L498.39,77.87L497.48,76.8L495.67,75.92L497.44,74.64L498.48,74.29L499.67,72.49L502.15,71.52Z" class="land" id="DZ-09" title="Blida"/>
    <path d="M455.68,206.74L452.06,206.27L450.27,205.44L442.93,205.48L441.55,203.68L439.77,203.75L437.27,201.41L435.12,201.44L434.2,202.14L429.47,202.44L428.12,203.45L425.45,203.51L424.61,204.25L420.82,204.65L419.76,203.31L417.18,203.78L416.03,204.62L406.64,204.95L405.72,205.95L397.28,206.22L393.32,210.42L390.59,210.49L389.3,210.02L387.32,211.72L384.45,211.76L383.42,212.66L381.75,212.59L381.55,213.56L379.22,213.62L378.19,210.29L377.39,209.46L377.26,207.49L378.97,206.75L379.44,206.07L378.63,205.29L378.78,203.55L379.44,203.14L380.92,200.74L380.85,199.29L379.89,198.85L379.4,197.94L378.22,198.23L378.37,196.78L376.45,197.48L376.41,193.65L376.89,192.1L378.58,191.73L378.51,186.01L391.17,183.2L394.38,182.31L393.98,180.41L392.32,177.09L392.78,175.1L396.36,175.29L398.81,175.24L399.83,174.51L401.41,174.18L404.47,174.26L404.96,173.98L406.63,174.56L408.3,174.32L409.97,173.68L410.86,174.24L412.2,174.13L415.71,175.21L418.26,175.71L420.11,175.64L424.71,176.04L426.34,175.28L425.84,174.1L424.69,173.15L424.6,172.12L425.32,168.94L426.86,168.41L426.78,169.87L428.07,170.48L427.88,173.12L429.1,173.14L429.39,174.51L431.37,173.58L434.44,171.67L440.43,173.23L441.99,172.04L444.11,172.46L445.51,170.32L445.54,171.68L444.66,173.4L442.9,173.81L441.95,174.55L441.26,175.97L440.8,177.77L441,180.18L441.63,182.17L440.92,183.66L441.54,184.86L440.47,185.94L441.59,187.68L440.6,189.33L441.55,191.96L442.74,192.65L444.12,193.97L443.45,196.59Z" class="land" id="DZ-08" title="Béchar"/>
    <path d="M549.37,120.51L549.59,120.09L549.09,118.8L549.12,117.52L547.21,115.75L545.69,112.26L543.2,112.07L543.69,111.62L544.06,109.46L543.51,107.16L544.05,106.87L545.84,107.79L546.71,108.8L547.4,108.41L548.74,109.09L549.64,108.19L551.44,107.73L553.1,108.06L554.96,106.96L554.35,105.5L555.48,103.87L558.06,102.47L559.92,103.47L560.71,104.32L560.97,105.57L560.89,108.34L561.66,109.36L562.71,108.92L563.84,107.48L564.55,108.83L565.61,109.55L567.2,108.35L569.06,108.19L570.77,107.37L571.17,109.11L570.89,110.23L570.89,112.89L573.03,114.76L573.97,114.47L574.97,113.96L575.69,112.44L576.89,113.16L577.58,114.57L576.84,116.7L576.99,119.3L575.84,121.64L576.23,123.39L574.61,125.3L572.94,125.71L571.86,124.46L569.7,123.88L568.61,123.07L566.8,122.42L562.82,123.09L562.18,123.22L562.01,123.42L556.75,122.6L552.77,122.23L551.37,121.93L549.5,120.76Z" class="land" id="DZ-07" title="Biskra"/>
    <path d="M551.92,70.21L551.9,71.42L552.74,71.62L552.53,72.98L550.53,74.53L548.77,77.08L547.48,77.2L547.09,74.04L547.6,73.42L546.53,72.32L544.98,72.65L544.76,73.34L543.26,73.69L541.03,73.04L540.95,74.28L539.45,74.78L538.62,75.55L538.48,76.32L536.21,78.11L536.34,79.66L534.73,80.24L532.5,80.57L531.83,79L531.45,77.34L532.07,77.1L532.21,75.44L531.64,74.67L533.3,73.95L535.34,71.75L534.99,71.13L536.09,69.4L534.57,68.8L535.09,67.95L536.5,68.26L537.11,67.83L535.84,64.76L538.13,64.85L539.16,64.47L542.26,65.53L544.09,66.91L545.59,67.38L545.23,68.57L545.75,69.26L548.94,70.61Z" class="land" id="DZ-06" title="Béjaïa"/>
    <path d="M550.21,94.39L551.23,94.72L551.98,93.14L551.8,92.23L553.08,91.27L554.72,90.9L556.1,91.68L557,91.53L557.93,90.28L556.78,89.8L556.84,88.9L558.1,87.78L559.21,87.53L560.82,89.37L562.21,88.26L565.91,88.43L568.08,89.7L569.77,89.11L571.97,89.43L571.94,91.42L574.41,90.41L575.81,91.12L577.63,93.4L577.39,94.64L577.99,95.99L576.56,97.84L575.17,97.8L573.8,98.94L574.3,100.23L573.94,101.09L574.56,102.47L573.49,102.98L573.6,105.37L572.37,106.62L573.62,110.41L573.48,112.51L573.97,114.47L573.03,114.76L570.89,112.89L570.89,110.23L571.17,109.11L570.77,107.37L569.06,108.19L567.2,108.35L565.61,109.55L564.55,108.83L563.84,107.48L562.71,108.92L561.66,109.36L560.89,108.34L560.97,105.57L560.71,104.32L559.92,103.47L558.06,102.47L555.48,103.87L554.35,105.5L554.96,106.96L553.1,108.06L551.44,107.73L549.64,108.19L548.74,109.09L547.4,108.41L546.71,108.8L545.84,107.79L544.05,106.87L543.51,107.16L543.21,106.54L541.63,105.85L538.99,105.72L538.83,104.96L540.4,104.31L541.26,102.93L541.66,100.63L541.03,96.61L542.12,97.89L542.78,97.94L544.47,96.76L545.83,97.2L547.72,97.01L548.12,96.23L549.56,95.32Z" class="land" id="DZ-05" title="Batna"/>
    <path d="M572.99,81.69L572.97,82.49L574.04,83.53L575.33,82.32L577.06,82.35L577.98,81.16L578.63,82.16L581.92,82.36L581.85,83.42L582.82,84.06L582.6,84.92L584.64,84.62L586.02,83.85L587.07,82.24L587.93,82.36L589.67,86.84L590.26,87.75L592.65,88.72L592.56,90.07L594.28,89.83L595.63,88.18L596.25,88.56L596.64,90.51L597.44,91.98L597.52,93.58L598.36,94.99L594.74,96.62L594.55,97.34L592.92,99.08L592.35,99.15L591.22,97.49L589.06,95.79L586.25,94.44L584.49,94.62L583.54,96.41L582.23,95.79L581.94,94.49L578.27,94.88L577.63,93.4L575.81,91.12L574.41,90.41L571.94,91.42L571.97,89.43L569.77,89.11L568.08,89.7L565.91,88.43L566.71,86.53L569.39,86.29L570.55,84.94L570.8,82.39Z" class="land" id="DZ-04" title="Oum el Bouaghi"/>
    <path d="M493.53,116.23L493.57,117.71L494.1,121.08L494.01,121.93L495.15,124.97L496.37,126.92L498.48,129.4L499.56,129.7L501.59,128.76L503.09,126.4L504.24,125.67L505.53,126.36L506.54,126.37L506.68,127.49L507.45,128.25L507.51,129.79L508.35,132.09L508.45,133.5L509.84,136.38L511.68,136.69L514.49,137.79L517.99,141.05L519.2,143.15L526.36,146.01L528.84,148.03L531.14,150.55L531.56,151.92L532.59,152.95L532.68,153.69L533.85,155.38L522.48,154.48L521.63,154.7L520.31,153.93L518.21,153.55L517.83,154.21L516.6,154.56L509.66,154.78L512.87,156.81L513.12,159.38L505.6,157.48L503.41,157.85L500.85,158.86L500.33,158.8L491.31,159.63L490.76,158.04L489.91,157.06L489.27,154.99L488.58,153.79L488.43,151.44L491.69,151.54L491.89,148.08L490.05,148.47L486.94,147.45L487.12,145.96L484.35,145.69L484.82,144.51L484.52,143.57L485.34,141.87L483.25,139.88L482.88,139.16L483.15,137.34L482.65,135.95L481.02,134.53L478.35,135.4L476.47,133.66L474.5,132.8L474.51,131.69L473.87,130.6L475.61,129.27L475.11,128.08L476.56,127.58L478.48,126.08L478.72,127.1L480.19,126.22L480.52,124.03L482.16,122.15L483.18,121.47L486.54,120.59L487.01,119.63L488.65,118.28L490.43,117.49L490.82,116.55Z" class="land" id="DZ-03" title="Laghouat"/>
    <path d="M480.75,72.63L479.74,74.89L477.54,76.67L477.75,77.84L478.81,79.2L479.3,80.57L478.33,82.27L480.89,85.54L480.99,87.66L479.83,87.13L479.2,86.02L477.99,85.31L477.17,86.73L475.11,87.3L474.94,89.21L474.03,88.23L473.18,86.39L470.38,86.97L468.45,85L466.62,85.35L466.44,82.79L465.49,80.38L462.99,81.18L461.64,80.85L462.53,77.83L465.77,76.28L466.26,75.12L469.05,74.02L470.99,73.53L473.45,73.48L473.91,72.7L475.02,73.01L478.93,73.03Z" class="land" id="DZ-02" title="Chlef"/>
    <path d="M475.85,350.36L461.69,346.47L451.91,343.81L443.66,341.69L430.18,338.14L416.12,334.66L399.8,330.67L382.15,326.55L371.6,324.15L365.78,324.68L355.24,329.24L340.57,318.93L351.03,314.8L356.66,308.72L368.38,308.32L369.18,306.65L369.71,304.37L370.63,302.61L375.9,294.93L376.22,294.22L378.07,292.48L379.57,291.59L381.23,291.01L384.88,291.24L387.65,291.22L389.1,290.28L391.47,281.86L391.52,280.98L390.5,279.96L392.73,272.18L392.98,270.9L394.96,268.16L396.33,266.68L397.92,264.34L398.2,263.08L399.28,261.1L404.65,256.73L410.23,248.6L421.35,245.24L430.85,244.62L431.64,244.04L432.19,243.55L442.41,252.81L443.85,253.08L448.46,254.71L451.45,254.67L453.6,255.78L456.07,256.57L459.45,256.59L461.76,256.01L469.07,252.91L475.03,252.81L477.14,253.6L482.86,253.06L485.41,254.5L486.29,256.55L485.7,258.42L483.02,262.69L482.92,265.84L482.33,271.22L480.76,273.9L480.8,279.14L482.35,281.48L480.2,286.88L479.81,290.81L479.81,294.33L478.85,295.22L477.02,295.38L475.55,294.54L473.16,295.39L472.89,296.44L471.09,298.77L466.2,303.71L468.47,308.72L475.58,318.77L475.62,330.02L475.83,330.39L475.85,350.34Z" class="land" id="DZ-01" title="Adrar"/>
  </g>
</svg>