<?xml version="1.0" encoding="UTF-8"?>
<svg xmlns="http://www.w3.org/2000/svg" width="354.54" height="399.63" viewBox="302.73 57.19 354.54 399.63" style="background-color:#000000">
  <!-- Created using SVG Map Generator: dojo.amcharts.com/svg-map-generator -->
  <style>
    .land { fill: #ffffff; stroke: #000000; stroke-width: 0.65; }
  </style>
  <g id="polygons">
    <path d="M364.57,151.44L372.76,151.68L376.23,155.03L378.43,157.8L381.77,159.46L383.76,159.65L387.96,158.76L390.13,160.22L389.69,165.51L387.95,168.16L388.06,172.54L386.25,173.5L380.32,173.36L377.42,175.3L377.41,177.74L378.87,178.85L380.21,182.21L379.23,185.35L375.16,187.59L372.58,187.75L371.82,189.6L373.71,190.79L372.17,193.12L374.02,194.91L375.49,198.57L374.12,200.4L372.15,205.99L373.69,208.56L376.96,209.07L378.47,210.75L380.9,210.48L384.76,213.35L385.77,212.91L386.17,218.5L384.77,220.3L386.24,223.3L385.22,225.05L387.33,228.81L385.35,232.21L383.31,231.45L381.1,228.79L375.86,227.42L369.81,231.23L368.12,230.14L365.08,230.53L362.14,229.47L357.28,225.96L355.36,226.52L353.69,223.09L350.1,219.08L350.92,218.23L349.39,214.34L346.77,210.59L347.94,209.14L346.69,206.89L346.27,202.7L345.47,200.89L347.45,198.54L347.73,196.86L350.38,195.17L354.68,195.57L354.43,192.87L356.37,187.68L359.15,186.41L356,180.84L354.69,181.61L352.86,180.41L351.76,178.99L351.02,175.76L352.47,173.91L351.11,170.83L348.71,167.26L343.73,156.61L346.29,156.1L348.4,154.69L352.54,153.49L354.42,154.76L361.86,153.02Z" class="land" id="AO-BGO" title="Bengo"/>
    <path d="M363.8,270.54L366.79,270.33L368.76,271.22L372.12,270.9L372.52,273.7L375.07,275.3L376.44,277.25L377.87,276.63L379.48,273.98L383.53,272.32L386.83,276.38L388.54,279.82L391.23,280.16L393.22,279.47L397.13,281.53L398.59,283.16L398.49,287.56L399.94,292.13L395.85,293.88L392.12,296.97L393.5,303.24L395.53,306.71L396.02,309.52L395.28,311.6L397.35,315.21L401.09,317.87L400.54,320.43L397.35,321.62L395.48,320.87L392.29,324.11L388.09,325.5L384.46,323.77L383.15,324.02L379.8,331.26L375.75,331.43L368.87,330.13L365.96,331L362.65,330.56L360.7,329.43L357.38,330.79L354,329.92L352.05,330.22L349.58,326.1L349.35,322.4L343.3,321.14L342.81,322.47L338.26,324.2L336.45,322.86L330.39,321.51L328.42,321.49L328.39,318.38L331.39,316.03L331.19,314.38L335.12,311.8L335.01,310.63L337.73,309.18L340.59,304.92L339.54,302.33L341.57,299.51L345.2,296.56L346.66,294.6L349.78,294.23L350.93,294.92L354.65,291.93L355.83,287.94L357.5,287.23L359.68,284.24L361.28,280.2L361.77,276.87L362.82,275.92Z" class="land" id="AO-BGU" title="Benguela"/>
    <path d="M443.29,235.93L443.83,238.22L448.11,241.62L451.28,241.4L455.37,242.5L457.26,243.74L462.57,244.36L464.91,246.39L465.27,248.64L467.3,251.76L467.71,257.42L469.17,259.54L468.04,264.71L469.09,266.82L468.45,268.16L471.14,269.54L472.8,269.03L478.25,263.8L482.76,263.28L487.03,264.28L490.65,263.37L494.21,264.04L497.76,260.97L503.74,258.76L506.3,259.03L506.23,256.71L504.41,254.96L504.98,252.74L503.94,250.21L504.33,247.49L511.21,251.54L513.45,254.19L516.91,254.79L517.9,256.78L516.89,258.19L516.27,261.45L513.34,264.38L512.28,268.17L510.32,268.26L506.39,275.08L507.34,277.25L506.72,279.05L503.03,282.37L502.92,284.96L499.5,287.25L497.95,287.48L494.47,290.81L494.71,292.19L491.34,296.62L491.4,298.59L486.87,302.12L487.79,305.4L486.2,307.51L484.19,308.42L483.52,310.53L484.99,313.16L484.96,315.14L480.84,317.6L481.94,319.73L481.36,322.6L480.68,325.1L476.61,326.11L477.34,328.29L476.4,332.47L472.6,335.03L467.68,336L464.36,339.55L463.16,344.39L460.43,343.56L455.43,340.13L454.83,337.23L451.72,334.75L449.63,336.21L446.33,334.28L443.62,335.47L439.6,335.56L439.51,329.77L440.93,325.38L441.09,316.58L441.49,310.74L440.72,306.85L440.5,298.96L436.54,297.1L434.67,292.76L436.72,291.41L437.23,288.32L435.74,285.55L436.54,283.98L439.97,281.47L440.82,278.82L442.54,276.53L442.5,274.52L439.86,272.02L439.27,269.88L437.17,268.78L435.17,266.06L434.39,262.31L429.08,261.93L427.8,260.85L425.86,262.2L423.14,262.6L419.13,261.14L420.37,258.39L420.19,256.32L423.58,251.53L424.86,246.81L426.8,248.21L428.86,247.46L432.14,248.39L434.12,244.87L435.88,243.06L439.38,241.31L442.04,238.94Z" class="land" id="AO-BIE" title="Bié"/>
    <path d="M335.43,59.84L338.5,60.14L338.58,61.79L341.62,65.33L344.18,66.87L336.01,70.82L333.25,75.46L331.05,75.5L330.75,77.52L327.92,78.83L328.16,80.79L328.09,97.74L320.48,98.01L318.8,98.75L317.08,95.05L319.26,90.08L316.71,83.78L316.6,82.53L313.24,77.77L317.86,74L318.91,70.3L321.49,71.61L323.1,70L325.87,65.57L330.38,64.53L331.7,62.35Z" class="land" id="AO-CAB" title="Cabinda"/>
    <path d="M481.36,322.6L489.17,327.14L491.73,326.74L495.74,329.4L497.71,329.14L502.77,333.03L505,337.04L505.39,341.71L506.64,344.32L509.28,346.94L512.77,345.81L516.76,347.98L515.76,343.32L517.9,342.28L519.8,343.59L522.66,344L525.93,343.32L528.42,346.5L530.51,351.21L536.92,357.68L538.74,358.24L541.53,361.62L546.75,364.06L551.5,364.47L558.14,363.19L561.94,364.63L563.17,363.99L567.89,366.12L572.06,370.88L574.4,371.4L575.25,374.14L580.42,378.17L580.26,380L583.12,383.05L584.61,387.07L587.63,388.87L590.45,393.66L590.94,395.78L595.74,398.88L598.82,403.88L599.69,407.96L603.19,411.05L610.33,419.05L618.08,426.85L618.57,428.4L621.28,429.44L624.28,431.81L626.42,435.41L627.66,435.96L630.83,439.55L633.57,439.69L636.13,442.21L579.72,453.64L573.68,450.9L565.89,451.95L562.33,454.16L557.46,452.28L554.32,452.29L552.01,450.44L548.15,448.91L544.01,449.4L542.41,450.3L536.72,448.93L533.46,449.27L532.1,450.36L529.63,448.54L527.02,449.14L522.34,449.08L518.66,447.73L514.61,447.4L513.96,448.17L508.38,447.65L500.29,442.31L498.62,440.61L494.57,434.94L462.12,434.81L462.92,430.56L460.6,423.02L460.95,415.93L462.61,412.73L463.34,409.82L465.3,407.85L466.15,404.9L466.19,401.27L465.24,395.81L465.36,391.16L462.78,388.09L459.04,380.83L457.03,380.31L456.01,377.63L453.45,376.68L450.09,373.19L447.24,369.18L445.85,367.35L446.14,365.3L444.6,363.26L444.81,360.86L442.37,356.03L440.41,353.88L440.56,347.96L439.26,342.68L440.27,339.61L439.6,335.56L443.62,335.47L446.33,334.28L449.63,336.21L451.72,334.75L454.83,337.23L455.43,340.13L460.43,343.56L463.16,344.39L464.36,339.55L467.68,336L472.6,335.03L476.4,332.47L477.34,328.29L476.61,326.11L480.68,325.1Z" class="land" id="AO-CCU" title="Cuando Cubango"/>
    <path d="M388.06,172.54L391.59,174.07L392.97,173.51L395.38,170.22L398.25,171.3L401.29,170.78L403.63,167.96L404.3,164.9L403.04,163.57L403.42,161.11L409.43,160.4L410.88,163.46L412.88,163.96L415.54,162.48L418.15,162.44L420.57,168.3L420.53,174.49L416.86,175.4L417.01,176.68L415.14,179.35L415.93,181L418.58,182.93L416.7,187.51L415.9,191.49L415.99,195.21L415.03,195.86L411.5,195.47L405,198.45L404.57,201.15L402.74,202.82L403.06,204.21L401.09,205.95L402.21,207.7L402.38,210.34L400.88,211.66L398.94,210.81L396.14,211.57L391.19,211.94L390.43,212.8L385.77,212.91L384.76,213.35L380.9,210.48L378.47,210.75L376.96,209.07L373.69,208.56L372.15,205.99L374.12,200.4L375.49,198.57L374.02,194.91L372.17,193.12L373.71,190.79L371.82,189.6L372.58,187.75L375.16,187.59L379.23,185.35L380.21,182.21L378.87,178.85L377.41,177.74L377.42,175.3L380.32,173.36L386.25,173.5Z" class="land" id="AO-CNO" title="Cuanza Norte"/>
    <path d="M385.77,212.91L390.43,212.8L391.19,211.94L396.14,211.57L398.94,210.81L400.88,211.66L403.86,213.78L408.38,214.05L411.08,213.23L419.59,213.2L420.9,211.37L423.58,211.87L426.39,211.48L431.36,212.24L432.82,214.87L435.15,216.56L437.04,223.19L435.52,225.06L435.88,227.25L437.37,227.7L440,231.77L443.29,235.93L442.04,238.94L439.38,241.31L435.88,243.06L434.12,244.87L432.14,248.39L428.86,247.46L426.8,248.21L424.86,246.81L423.58,251.53L420.19,256.32L420.37,258.39L419.13,261.14L418.07,262.11L412.72,262.98L408.15,265.27L407.93,267.42L409.46,270.39L408.39,275.51L405.69,277.3L401.17,278.47L399.98,279.66L398.59,283.16L397.13,281.53L393.22,279.47L391.23,280.16L388.54,279.82L386.83,276.38L383.53,272.32L379.48,273.98L377.87,276.63L376.44,277.25L375.07,275.3L372.52,273.7L372.12,270.9L368.76,271.22L366.79,270.33L363.8,270.54L362.97,264.99L364.7,257.21L365.7,248.6L364.66,245.5L361.56,241.29L363.35,239.21L358.81,233.37L356.22,230.73L356.73,229.94L355.36,226.52L357.28,225.96L362.14,229.47L365.08,230.53L368.12,230.14L369.81,231.23L375.86,227.42L381.1,228.79L383.31,231.45L385.35,232.21L387.33,228.81L385.22,225.05L386.24,223.3L384.77,220.3L386.17,218.5Z" class="land" id="AO-CUS" title="Cuanza Sul"/>
    <path d="M354.88,401.09L358.95,404.74L363.1,402.73L366.59,397.96L370.37,399.7L372.51,397.1L376.27,396.33L380.14,393.99L384.41,389.35L388.42,389.54L396.52,391.49L398.41,393.08L398.97,395.05L402.36,395.62L405.03,391.72L407.03,387L408.79,385.22L411.13,380.33L415.22,377.23L418.18,375.84L421.39,375.69L427.17,376.59L430.03,375.83L432.18,376.25L437.9,369.97L441.35,368.71L447.24,369.18L450.09,373.19L453.45,376.68L456.01,377.63L457.03,380.31L459.04,380.83L462.78,388.09L465.36,391.16L465.24,395.81L466.19,401.27L466.15,404.9L465.3,407.85L463.34,409.82L462.61,412.73L460.95,415.93L460.6,423.02L462.92,430.56L462.12,434.81L450.69,434.81L390.19,434.83L375.58,434.64L372.18,436.37L368.3,436.1L366.14,433.66L360.4,430.56L355.68,427.27L354.51,423.84L351.1,422.52L349.95,419.52L345.85,415.41L345.63,412.65L348.66,409.97L346.97,407.54L349.56,405.07L352.59,403.72Z" class="land" id="AO-CNN" title="Cunene"/>
    <path d="M419.13,261.14L423.14,262.6L425.86,262.2L427.8,260.85L429.08,261.93L434.39,262.31L435.17,266.06L437.17,268.78L439.27,269.88L439.86,272.02L442.5,274.52L442.54,276.53L440.82,278.82L439.97,281.47L436.54,283.98L435.74,285.55L437.23,288.32L436.72,291.41L434.67,292.76L436.54,297.1L440.5,298.96L440.72,306.85L441.49,310.74L441.09,316.58L437.02,316.26L434.87,316.93L433.84,315.81L431.64,316.72L430.27,318.9L428.31,319.24L425.07,317.58L418.61,324.6L416.56,325.24L415.53,327.11L412.14,328.33L412.13,324.63L408.48,323.85L408.19,319.61L406.4,317.3L402.33,318.36L401.09,317.87L397.35,315.21L395.28,311.6L396.02,309.52L395.53,306.71L393.5,303.24L392.12,296.97L395.85,293.88L399.94,292.13L398.49,287.56L398.59,283.16L399.98,279.66L401.17,278.47L405.69,277.3L408.39,275.51L409.46,270.39L407.93,267.42L408.15,265.27L412.72,262.98L418.07,262.11Z" class="land" id="AO-HUA" title="Huambo"/>
    <path d="M401.09,317.87L402.33,318.36L406.4,317.3L408.19,319.61L408.48,323.85L412.13,324.63L412.14,328.33L415.53,327.11L416.56,325.24L418.61,324.6L425.07,317.58L428.31,319.24L430.27,318.9L431.64,316.72L433.84,315.81L434.87,316.93L437.02,316.26L441.09,316.58L440.93,325.38L439.51,329.77L439.6,335.56L440.27,339.61L439.26,342.68L440.56,347.96L440.41,353.88L442.37,356.03L444.81,360.86L444.6,363.26L446.14,365.3L445.85,367.35L447.24,369.18L441.35,368.71L437.9,369.97L432.18,376.25L430.03,375.83L427.17,376.59L421.39,375.69L418.18,375.84L415.22,377.23L411.13,380.33L408.79,385.22L407.03,387L405.03,391.72L402.36,395.62L398.97,395.05L398.41,393.08L396.52,391.49L388.42,389.54L384.41,389.35L380.14,393.99L376.27,396.33L372.51,397.1L370.37,399.7L366.59,397.96L363.1,402.73L358.95,404.74L354.88,401.09L356.54,398.81L355.12,395.38L358.39,388.71L356.89,385.96L357.07,378.94L353.15,376.4L353.08,373.63L350.63,374.6L350.13,372.15L347.25,371.09L349.59,369.18L347.91,367.19L349.29,365.09L348.58,362.21L353.69,358.4L357.49,356.29L358.91,352.95L359.06,350.18L360.64,348.03L360.25,344.32L358.24,341.76L358.7,340.29L357.63,337.53L359.14,334.55L357.38,330.79L360.7,329.43L362.65,330.56L365.96,331L368.87,330.13L375.75,331.43L379.8,331.26L383.15,324.02L384.46,323.77L388.09,325.5L392.29,324.11L395.48,320.87L397.35,321.62L400.54,320.43Z" class="land" id="AO-HUI" title="Huíla"/>
    <path d="M345.47,200.89L341.12,193.69L342.74,192.38L344.19,189.71L346.93,186.95L347.31,185.51L349.78,183.89L352.52,183.62L352.86,180.41L354.69,181.61L356,180.84L359.15,186.41L356.37,187.68L354.43,192.87L354.68,195.57L350.38,195.17L347.73,196.86L347.45,198.54Z" class="land" id="AO-LUA" title="Luanda"/>
    <path d="M593.75,171.26L591.5,172.55L590.21,174.67L588.11,174.43L585.37,175.45L583.45,177.94L578.04,178.89L575.27,178.19L568.23,179.62L565.6,181.01L565.05,182.28L562.28,183.9L560.42,186.89L559.3,190.48L555.85,191.54L553.61,193.25L550.83,193.92L549.86,197.16L548.73,198.23L545.92,198.38L542.2,201.14L538.86,204.25L537.91,211.44L536.66,213.65L533.97,216.33L530.14,216.95L527.29,219.06L523.66,219.56L520.83,221.99L517.59,222.8L515.74,224.79L512.17,226.41L507.46,227.06L505.33,229.6L501.3,231.34L496.6,230.98L497.78,233.11L494.95,235.4L495.48,238.56L491.43,238.75L484.99,234.49L483.06,234.17L481.83,231.88L484.73,229.19L480.56,224.27L480.89,221.66L479.54,218.91L478.17,218.07L477.24,215.03L474.51,213.74L472.4,214.06L471.23,210.83L468.68,210.17L466.29,208.15L465.92,205.52L464.64,203.6L463.7,200.28L465.02,199.16L469.67,197.69L471.35,193.58L470.39,190.15L471.23,185.65L471.2,178.7L469.2,175.6L470.16,171.89L469.5,165.38L471.64,165.96L474.74,165.06L476.89,165.46L479.38,164.55L485.47,165.12L485.41,163.44L488.77,161.99L497.54,162.29L497.68,160.02L504.67,160.05L505.26,162.29L521.46,162.16L521.13,156.92L522.48,153.75L521.33,150.39L524.3,149.93L525.79,146.44L524.69,142.7L524.92,138.84L526.82,135.4L526.29,133.75L547.72,133.71L548.15,131.29L556.92,131.3L554.79,136.98L554.51,141.79L589.54,141.86L591.6,145.93L591.44,151.01L589.62,155.44L588.55,160.24Z" class="land" id="AO-LNO" title="Lunda Norte"/>
    <path d="M604.7,237.05L602.23,237.52L598.15,236.4L596.9,237.53L590.26,237.41L588.75,239.84L588.48,243.28L586.43,245.18L585.84,248.43L587.19,252.3L583.93,253.6L581.44,253.15L575.6,255.97L573.93,256.22L571.72,259.13L568.26,260.21L567.89,262.15L562.83,261.64L558.36,260.3L555.01,258.31L553.24,258.08L550.75,256.25L549.37,256.76L543.77,254.34L541.96,256.49L538.14,255.84L536.31,256.99L534.76,255.56L531.41,257.24L528.61,255.68L523.95,259.3L521.51,260.38L519.62,259.92L516.27,261.45L516.89,258.19L517.9,256.78L516.91,254.79L513.45,254.19L511.21,251.54L504.33,247.49L503.9,245.99L501.28,243.85L499.86,239.14L501.26,237.93L500.84,236.02L498.41,234.59L497.78,233.11L496.6,230.98L501.3,231.34L505.33,229.6L507.46,227.06L512.17,226.41L515.74,224.79L517.59,222.8L520.83,221.99L523.66,219.56L527.29,219.06L530.14,216.95L533.97,216.33L536.66,213.65L537.91,211.44L538.86,204.25L542.2,201.14L545.92,198.38L548.73,198.23L549.86,197.16L550.83,193.92L553.61,193.25L555.85,191.54L559.3,190.48L560.42,186.89L562.28,183.9L565.05,182.28L565.6,181.01L568.23,179.62L575.27,178.19L578.04,178.89L583.45,177.94L585.37,175.45L588.11,174.43L590.21,174.67L591.5,172.55L593.75,171.26L593.43,173.25L594.61,176.49L593.56,179.44L593.04,184.2L592.02,187.11L591.32,192.83L591.87,197.38L589.89,202.93L592.02,207.09L592.23,209.6L593.88,210.57L596.46,214.82L601.16,217.46L601.93,220.19L602.04,224.11L605.02,230.62L603.6,234.39Z" class="land" id="AO-LSU" title="Lunda Sul"/>
    <path d="M420.57,168.3L423.69,168.76L428.71,165.72L430.05,160.9L429.58,158.08L427.73,152.62L427.74,151.17L431.49,150.43L434.14,148.98L437.34,144.84L442.61,142.88L444.49,143.61L445.28,145.71L448.14,149.54L451.27,150.98L453.25,150.02L453.68,146.68L455.48,144.98L457.59,144.92L459.41,145.93L460.59,150.25L463.01,151.93L463.44,155.4L465.34,156.36L468.21,160.98L469.5,165.38L470.16,171.89L469.2,175.6L471.2,178.7L471.23,185.65L470.39,190.15L471.35,193.58L469.67,197.69L465.02,199.16L463.7,200.28L464.64,203.6L465.92,205.52L466.29,208.15L468.68,210.17L471.23,210.83L472.4,214.06L474.51,213.74L477.24,215.03L478.17,218.07L479.54,218.91L480.89,221.66L480.56,224.27L484.73,229.19L481.83,231.88L483.06,234.17L484.99,234.49L491.43,238.75L495.48,238.56L494.95,235.4L497.78,233.11L498.41,234.59L500.84,236.02L501.26,237.93L499.86,239.14L501.28,243.85L503.9,245.99L504.33,247.49L503.94,250.21L504.98,252.74L504.41,254.96L506.23,256.71L506.3,259.03L503.74,258.76L497.76,260.97L494.21,264.04L490.65,263.37L487.03,264.28L482.76,263.28L478.25,263.8L472.8,269.03L471.14,269.54L468.45,268.16L469.09,266.82L468.04,264.71L469.17,259.54L467.71,257.42L467.3,251.76L465.27,248.64L464.91,246.39L462.57,244.36L457.26,243.74L455.37,242.5L451.28,241.4L448.11,241.62L443.83,238.22L443.29,235.93L440,231.77L437.37,227.7L435.88,227.25L435.52,225.06L437.04,223.19L435.15,216.56L432.82,214.87L431.36,212.24L426.39,211.48L423.58,211.87L420.9,211.37L419.59,213.2L411.08,213.23L408.38,214.05L403.86,213.78L400.88,211.66L402.38,210.34L402.21,207.7L401.09,205.95L403.06,204.21L402.74,202.82L404.57,201.15L405,198.45L411.5,195.47L415.03,195.86L415.99,195.21L415.9,191.49L416.7,187.51L418.58,182.93L415.93,181L415.14,179.35L417.01,176.68L416.86,175.4L420.53,174.49Z" class="land" id="AO-MAL" title="Malanje"/>
    <path d="M516.27,261.45L519.62,259.92L521.51,260.38L523.95,259.3L528.61,255.68L531.41,257.24L534.76,255.56L536.31,256.99L538.14,255.84L541.96,256.49L543.77,254.34L549.37,256.76L550.75,256.25L553.24,258.08L555.01,258.31L558.36,260.3L562.83,261.64L567.89,262.15L568.26,260.21L571.72,259.13L573.93,256.22L575.6,255.97L581.44,253.15L583.93,253.6L587.19,252.3L585.84,248.43L586.43,245.18L588.48,243.28L588.75,239.84L590.26,237.41L596.9,237.53L598.15,236.4L602.23,237.52L604.7,237.05L605.2,240.85L604.27,242.33L600.86,244.05L601.99,251.32L604.22,255.35L605.68,253.4L608.1,253.35L609.74,251.79L610.17,249.54L612.3,249.35L616.2,251.49L618.18,251.53L620.27,250.1L626.4,251.89L629.77,251.26L636.34,246.54L640.57,248.12L645.1,248.09L647.08,249.12L651.92,245.82L653.02,247.43L652.46,251.81L653.29,252.63L653.35,256.26L654.62,259.78L653.18,261.14L653.33,263.42L651.49,267.23L653,272.04L652.02,274.35L651.9,281.63L654.24,284.85L654.36,289.19L651.05,292.97L649.61,301.66L653.02,304.59L653.44,305.87L595.74,306.28L595.74,398.88L590.94,395.78L590.45,393.66L587.63,388.87L584.61,387.07L583.12,383.05L580.26,380L580.42,378.17L575.25,374.14L574.4,371.4L572.06,370.88L567.89,366.12L563.17,363.99L561.94,364.63L558.14,363.19L551.5,364.47L546.75,364.06L541.53,361.62L538.74,358.24L536.92,357.68L530.51,351.21L528.42,346.5L525.93,343.32L522.66,344L519.8,343.59L517.9,342.28L515.76,343.32L516.76,347.98L512.77,345.81L509.28,346.94L506.64,344.32L505.39,341.71L505,337.04L502.77,333.03L497.71,329.14L495.74,329.4L491.73,326.74L489.17,327.14L481.36,322.6L481.94,319.73L480.84,317.6L484.96,315.14L484.99,313.16L483.52,310.53L484.19,308.42L486.2,307.51L487.79,305.4L486.87,302.12L491.4,298.59L491.34,296.62L494.71,292.19L494.47,290.81L497.95,287.48L499.5,287.25L502.92,284.96L503.03,282.37L506.72,279.05L507.34,277.25L506.39,275.08L510.32,268.26L512.28,268.17L513.34,264.38Z" class="land" id="AO-MOX" title="Moxico"/>
    <path d="M328.42,321.49L330.39,321.51L336.45,322.86L338.26,324.2L342.81,322.47L343.3,321.14L349.35,322.4L349.58,326.1L352.05,330.22L354,329.92L357.38,330.79L359.14,334.55L357.63,337.53L358.7,340.29L358.24,341.76L360.25,344.32L360.64,348.03L359.06,350.18L358.91,352.95L357.49,356.29L353.69,358.4L348.58,362.21L349.29,365.09L347.91,367.19L349.59,369.18L347.25,371.09L350.13,372.15L350.63,374.6L353.08,373.63L353.15,376.4L357.07,378.94L356.89,385.96L358.39,388.71L355.12,395.38L356.54,398.81L354.88,401.09L352.59,403.72L349.56,405.07L346.97,407.54L348.66,409.97L345.63,412.65L345.85,415.41L349.95,419.52L351.1,422.52L348.86,423.15L345.27,422.08L340.77,422.79L330.02,430.09L325.39,430.95L324.43,429.39L321.19,430.33L315.31,427.53L311.47,428.65L307.02,431.19L305.94,430.66L306.26,421.49L307.95,414.65L308.06,407.18L307.02,397.65L307.46,394.41L305.38,390.13L306.68,387.41L309.64,387.43L310.88,384.27L312.82,382.94L313.52,381.09L314.51,371.27L317.3,369.8L317.15,365.61L318.95,360.01L321.09,357.26L321.98,350.09L323.4,344.35L322.42,341.52L322.94,338.19L325,333.52L324.87,331.66L326.93,331.36L328.53,323.23Z" class="land" id="AO-NAM" title="Namibe"/>
    <path d="M457.59,144.92L455.48,144.98L453.68,146.68L453.25,150.02L451.27,150.98L448.14,149.54L445.28,145.71L444.49,143.61L442.61,142.88L437.34,144.84L434.14,148.98L431.49,150.43L427.74,151.17L427.73,152.62L429.58,158.08L430.05,160.9L428.71,165.72L423.69,168.76L420.57,168.3L418.15,162.44L415.54,162.48L412.88,163.96L410.88,163.46L409.43,160.4L403.42,161.11L403.04,163.57L404.3,164.9L403.63,167.96L401.29,170.78L398.25,171.3L395.38,170.22L392.97,173.51L391.59,174.07L388.06,172.54L387.95,168.16L389.69,165.51L390.13,160.22L387.96,158.76L383.76,159.65L381.77,159.46L378.43,157.8L376.23,155.03L372.76,151.68L364.57,151.44L365.17,149.65L367.22,149.23L368.66,147.7L365.64,143.89L366.07,141.9L367.87,139.27L365.51,137.27L364.85,134.59L365.33,132.73L367.83,132.78L370.35,130.6L376.34,128.48L377.5,125.78L379.76,124.53L381.79,124.75L384.86,122.41L388.79,122.11L391.56,120.97L394.75,115.89L397.38,112.91L394.72,110.81L394.7,108.57L393.64,105.95L391.07,101.93L401.15,101.65L412.67,101.81L416.75,101.61L422.03,101.92L436.97,101.57L440.54,101.85L443.03,102.99L443.23,107.74L446.48,110.02L445.61,116.84L447.65,120.34L448.52,124.73L450.86,129.41L452.67,130.2L452.62,132.8L453.86,134.43L452.32,136.17L454.51,142.32Z" class="land" id="AO-UIG" title="Uíge"/>
    <path d="M391.07,101.93L393.64,105.95L394.7,108.57L394.72,110.81L397.38,112.91L394.75,115.89L391.56,120.97L388.79,122.11L384.86,122.41L381.79,124.75L379.76,124.53L377.5,125.78L376.34,128.48L370.35,130.6L367.83,132.78L365.33,132.73L364.85,134.59L365.51,137.27L367.87,139.27L366.07,141.9L365.64,143.89L368.66,147.7L367.22,149.23L365.17,149.65L364.57,151.44L361.86,153.02L354.42,154.76L352.54,153.49L348.4,154.69L346.29,156.1L343.73,156.61L339.41,146.11L338.79,143.3L337.09,141.44L337,136.92L336.42,133.57L334.07,129.94L328.87,124.18L324.13,114.52L321.04,109.97L322.14,108.67L334.28,104.66L338.25,103.79L342.04,101.7L344.71,102.49L348.25,101.47L351.39,102.48L352.43,101.63L364.69,101.76L369.13,100.8L370.6,102.01L374.53,101.37L377.87,101.96L386.35,102.75Z" class="land" id="AO-ZAI" title="Zaire"/>
  </g>
</svg>