<?xml version="1.0" encoding="UTF-8"?>
<svg xmlns="http://www.w3.org/2000/svg" width="378.88" height="399.63" viewBox="290.56 57.19 378.88 399.63" style="background-color:#000000">
  <!-- Created using SVG Map Generator: dojo.amcharts.com/svg-map-generator -->
  <style>
    .land { fill: #ffffff; stroke: #000000; stroke-width: 0.65; }
  </style>
  <g id="polygons">
    <path d="M492.32,111.53L448.58,112.13L448.73,80.19L449.86,79.48L450.28,77.67L452.12,76.99L453.7,75.31L455.16,74.7L455.78,73.85L456.58,74.02L457.54,73.41L458.75,72.19L459.71,70.87L460.88,69.72L462.06,70L463.91,69.5L464.79,70.19L465.12,69.12L466.37,68.39L467.54,66.98L469.77,67.06L470.63,67.73L472.34,69.54L471.99,70.4L472.39,71L474.04,71.78L475.81,71.76L477.5,69.65L478.09,68.26L481.12,66.25L482.14,64.8L482.8,64.76L485.31,63L488.86,61.82L489.23,61.2L491.42,60.82L492.28,61.93L493.18,62.2L494.48,61.19L495.15,61.46L495.51,62.48L497.29,61.87L497.79,60.98L498.43,61.11L499.26,59.84L503.26,60.62L502.98,61.99L502.33,63.56L502.23,65.58L503.46,67.21L504.03,69.5L505.62,72.3L506.98,72.82L507.41,73.75L508.58,74.2L509.54,75.69L511.38,79.87L512.32,81.46L513.61,85.23L515.13,86.84L517.08,89.53L518.16,89.83L518.7,90.41L519.67,92.45L521.11,94.16L522.65,94.43L524.13,95.95L524.08,96.9L524.58,98.04L524.15,99.12L524.29,100.87L524.72,102.17L525.52,103.37L525.47,104.52L527.34,105.41L529.42,107.1L530.31,107.33L531.19,108.78L532.16,111.07L522.37,111.14L511.94,111.14L505.57,111.19L492.24,111.18Z" class="land" id="BW-CH" title="Chobe"/>
    <path d="M532.16,111.07L532.34,112.79L531.35,113.67L531,115.02L531.72,116.89L533.03,118.14L534.4,120.4L534.19,121.1L535.01,122.26L536.26,125.56L537.22,127.76L537.27,129.06L538.15,129.83L538.47,132.17L539.08,133.84L540.03,134.87L540.87,135.03L542.42,136.03L544.78,135.66L546.49,137.44L545.43,139.04L546.51,139.81L548.01,139.65L549.3,142.34L550.21,143.06L552.3,143.31L554.62,144.48L555.62,145.32L555.97,146.51L557.26,148.67L558.36,148.45L560.56,149.14L561.29,151.06L562.9,150.88L564.32,151.26L564.94,152.69L566.63,152.85L568.16,153.39L568.65,153.28L571.3,154.3L573.26,154.53L574.82,154.4L576.03,155.15L576.95,157L577.76,157.2L580.2,156.99L581.16,157.72L581.86,159.3L582.26,159.5L583.03,162.4L583.8,163.04L584.47,166.19L584.41,171.27L584.04,172.89L583.95,174.62L584.16,175.17L583.96,176.93L584.74,179.6L583.97,180.83L583.22,181.44L583.04,182.65L581.66,183.62L581.23,184.37L581.37,186.21L580.84,188.28L581.25,189.66L582.21,190.45L583.75,191.23L585.22,193.62L585.52,194.82L586.23,195.82L586.26,197.47L586.74,198.16L586.4,200.59L586.63,203.12L587.57,203.95L588.09,205.8L587.9,206.49L588.62,209.06L588.48,209.74L589.24,211.67L590.11,212.27L590.52,213.35L592.64,216.28L593.97,216.48L594.69,216.94L595.67,216.76L597.13,218.55L598.39,219.06L601.62,219.58L602.4,219.97L604.96,219.22L606.47,219.39L607.32,219.1L609.62,219.09L610.19,219.85L611.34,220.26L612.88,220.1L613.7,220.97L616.89,221.17L620.48,222.21L621.49,221.87L623.53,221.66L625.58,221.89L626.65,222.35L627.11,222.06L628.64,223.26L630.46,223.61L632.05,224.63L633.54,224.29L635.12,223.14L636.53,223.74L638.44,224.07L639.27,225.13L643.22,226.71L644.19,227.57L645.95,227.7L647.22,228.56L650.1,229.31L651.78,229.14L653.08,229.84L654.87,230.47L655.03,231.51L653.97,233.02L653.48,234.37L653.32,236.84L653.86,238.82L654.58,239.91L655.73,241.04L658.24,242.27L659.82,242.37L662.31,241.56L662.95,242.16L663.85,244.18L665.72,245.83L666.79,247.41L665.45,247.7L664.94,247.09L663.21,247.27L661.2,246.75L659.94,246.92L658.4,248.17L656.21,248.18L655.16,248.51L653.72,248.29L652.93,248.89L652.16,251.04L651.4,251.35L650.83,253.31L651.25,254.67L650.38,256.35L650.04,257.67L649.05,258.76L647.06,258.18L645.62,258.9L645.59,259.84L643.32,260.55L640.71,261.11L640.14,261.76L639.16,262.01L637.59,263.06L636.33,263.3L634.58,263.28L632.95,264.26L632.13,263.85L630.42,263.56L626.3,263.82L625.35,264.87L623.63,265.6L623.12,266.64L620.55,267.88L618.92,269.67L619.02,271.43L618.68,272.14L617.5,272.91L615.91,274.5L614.76,274.74L614.22,275.72L614.65,277.44L614.29,278.2L613.24,279.14L611.1,280.52L610.03,280.76L610.48,281.91L610.01,282.69L609.89,284.67L608.31,286.05L606.11,287.11L605.45,287.05L605.15,288.14L604.14,288.66L604.04,289.5L602.56,291.3L602.28,292.4L601.31,292.59L600.38,291.25L599.72,291.12L598.6,292.27L596.82,291.8L596.58,292.98L595.57,293.9L595.7,294.48L595.1,295.88L595.06,297.5L593.89,298.79L593.16,299.06L590.52,299.06L589.89,299.51L589.33,300.73L587.73,299.65L587.61,300.87L586.91,300.94L586.39,299.74L585.37,300.33L585.03,301.82L583.62,302.97L582.53,303.17L582.1,303.89L581.23,303.54L580.36,304.08L581.14,305.07L580.47,305.59L579.6,305.15L578.14,305.83L578.64,307.07L577.12,307.05L576.63,308.15L575.17,309.23L575.84,310.13L575.05,311.44L572.8,310.29L572.64,312.14L571.67,312.86L571.24,314.74L569.8,315.07L568.65,316.57L567.4,317.38L565.79,319.68L564.32,319.8L563.65,320.93L562.67,321.46L561.62,323.11L560.88,323.4L549.32,316.37L534.1,307.12L533.36,306.41L532.91,305.9L527.14,297.58L522.75,296.15L522.03,295.75L514.51,285.66L510.5,280.32L510.18,279.64L509.62,279.13L500.79,267.27L491.12,254.24L486.78,248.32L479.36,238.27L473.24,230.01L465.91,219.96L454.67,204.63L448.67,196.38L448.12,195.75L448,181.55L447.91,175.09L447.87,166.86L448.04,165.91L449.44,166.92L450.58,166.94L451.62,166.21L452.81,166.07L452.67,164.92L454.13,163.75L455.3,163.53L456.38,162.56L457.49,162.62L458.69,161.77L459.97,162.52L460.74,162.64L461.38,164.05L463.2,163.4L463.72,164.04L463.38,165.32L464.11,166.65L465.57,167.17L467.55,169.89L468.65,170.53L469.83,170.53L470.65,169.88L474.02,170.06L486.9,169L499.18,168.01L499.55,156.39L492.38,153.35L492.41,137.96L492.39,128.07L492.42,125.94L492.39,115.3L492.41,114.14L492.32,111.53L492.24,111.18L505.57,111.19L511.94,111.14L522.37,111.14Z" class="land" id="BW-CE" title="Central"/>
    <path d="M333.02,195.75L346.31,195.86L356.31,195.97L366.9,195.99L382.21,196.08L395.75,196.05L403.4,196.08L416.94,196L429.3,195.96L448.12,195.75L448.67,196.38L454.67,204.63L465.91,219.96L473.24,230.01L479.36,238.27L486.78,248.32L491.12,254.24L500.79,267.27L509.62,279.13L510.18,279.64L510.12,280.39L506.07,288.58L502.6,295.48L502.19,295.89L497.15,295.95L480.99,295.82L474.38,295.87L459.39,295.8L452.39,295.78L441.6,295.78L420.61,295.67L415.21,295.65L407.73,295.72L393.93,295.75L378.32,295.72L368.93,295.74L358.72,295.72L349.12,295.64L336.53,295.62L330.43,295.56L314.82,295.62L302.83,295.58L293.23,295.55L293.21,246.17L293.23,239.02L333.21,239.11Z" class="land" id="BW-GH" title="Ghanzi"/>
    <path d="M293.23,295.55L302.83,295.58L314.82,295.62L330.43,295.56L336.53,295.62L349.12,295.64L358.72,295.72L368.93,295.74L378.32,295.72L393.93,295.75L407.73,295.72L415.21,295.65L415.21,300.16L411.6,300.06L411.14,300.56L411.18,306.9L415.13,306.89L415.19,313.4L415.11,325.66L415.03,335.09L415.08,338.11L414.9,362.35L415.15,362.92L425.48,362.88L445.51,362.81L449.14,362.73L455.23,362.72L455.92,362.81L461.11,368.27L462.27,369.6L462.57,382.41L462.85,392.17L468.76,398.29L472.44,398.4L472.82,402.35L471.96,402.65L470.63,402.38L469.25,402.59L467.85,403.27L465.8,401.95L465.76,401.05L464.59,401.49L463.33,400.46L462.18,399.07L462.04,398.05L460.55,396.94L459.18,397.31L456.64,397.62L455.48,397.29L454.92,398.27L453.11,397.92L453.24,397.01L451.69,396.7L450.35,397.6L449.21,397.15L449.04,396.37L448,395.07L446.66,394.76L446.51,393.85L445.71,393.75L445.2,393.03L445.31,392.03L443.53,391.74L443.05,390.21L441.84,389.15L441.23,389.65L439.9,389.14L439.24,388.33L438.44,388.58L437.4,386.32L436.29,386.27L435.1,385.08L432.98,383.98L432.05,382.69L431.21,382.39L430.64,381.59L429.78,383.12L427.73,382.66L427.23,381.95L425.86,382.22L424.52,382.07L424.28,381.5L422.17,381.74L420.89,381.52L419.68,382.55L418.35,383.22L417.5,382.78L415.71,384L413.43,382.45L413.16,384.22L412.1,384.44L411.79,386.29L409.47,387.96L408.57,390.18L406.95,391.1L407.49,391.82L407.23,392.83L405.72,395.29L407.13,396.61L405.6,397.32L405.4,398.35L406.07,398.54L406.12,399.64L405.66,400.85L404.07,401.9L403.71,403.51L402.88,405L404.41,405.84L404.14,406.5L402.66,407.41L402.61,408.47L401.7,409.27L402.95,410.24L402.08,411.55L402.32,413.12L401.83,414.75L400.32,414.63L399.69,414.92L399.8,417.06L398.54,417.91L398.18,419.42L397.23,420.39L396.26,420.18L396.07,422.48L394.86,423.95L393.42,423.24L392.04,422.95L391.37,423.79L390.12,423.88L388.9,425.1L389.03,425.98L387.47,426.93L387.64,428.06L385.21,429.05L383.24,429.38L382.31,430.63L380.95,431.44L380.96,432.5L380.33,433.27L380.16,434.77L379.43,435.35L379.46,436.32L377.23,438.47L376.24,439.63L374.93,441.97L373.2,442.44L370.67,443.71L365.21,443.48L364.26,444.25L364,445.37L364.48,446.03L364.61,448.31L364.17,449.58L363.46,449.93L361.46,451.84L359.54,452.39L358.16,452.32L357.05,451.53L355.21,451.5L354.27,452.15L351.78,451.39L350.08,450.53L346.91,450.6L344.89,451.71L343.94,451.24L341.76,451.55L339.97,452.45L338.84,452.68L336.21,451.7L333.98,451.57L333.03,450.96L332.1,449.74L330.83,449.83L329.19,449.19L326.25,450.33L323.94,452.15L321.78,452.75L320.9,454.16L320.51,452.75L320.7,451.84L319.56,451.27L319.28,450.04L318.45,449.28L318.52,446.54L317.87,445.38L317.86,444.38L318.51,443.5L318.4,440.18L317.55,438.95L317.38,437.34L317.75,434.62L318.17,433.21L319.11,433.07L320.22,431.55L320.8,431.4L321.28,429.89L323.42,426.68L324.59,426L325.5,424.25L326.17,421.44L327.24,420.63L327.65,419.66L326.15,418.47L326.72,417.71L326.27,416.23L326.55,415.1L325.83,413.9L326.67,411.78L325.5,410.65L325.19,409.34L325.42,407.74L324.75,407.47L324.8,405.48L324.39,405.03L323.44,405.94L322.85,405.57L323.44,404.06L322.41,403.2L322.05,401.59L320.52,400.09L320.2,399.32L320.77,398.15L320.59,397.48L319.37,397.39L319.83,396.39L320.87,395.2L319.96,393.65L318.57,392.78L318.9,390.46L320,390.15L319.75,389.11L318.52,389.78L318.45,388.45L317.34,388.01L317.42,387.01L316.05,386.75L314.87,384.37L314.17,383.62L314.22,382.69L314.8,382.22L312.8,380.75L312.81,379.42L311.86,379.23L311.22,377.9L311.92,377.05L311.82,376.27L310.7,376.23L310.28,374.42L309.44,372.7L308.76,372L308.57,371.11L307.22,370.34L306.01,369.02L304.84,368.37L303.71,366.16L302.14,365.84L301.51,365.06L300.55,365.61L299.53,364.48L298.33,364.37L297.22,363.41L296.54,361.97L295.94,361.94L294.93,361.06L293.24,358.65L293.21,347.58Z" class="land" id="BW-KG" title="Kgalagadi"/>
    <path d="M533.36,306.41L534.1,307.12L549.32,316.37L560.88,323.4L561.62,323.11L562.67,321.46L563.65,320.93L564.32,319.8L565.79,319.68L567.4,317.38L568.65,316.57L569.8,315.07L571.24,314.74L571.18,316.08L570.61,317.53L570.86,318.67L570.77,320.33L569.94,322.37L569.9,323.83L569.18,324.98L569.33,326.11L568.53,327.94L568.15,329.49L567.41,330.07L567.36,331.81L567.96,332.59L567.31,333.38L567.82,334.37L567.19,335.19L567.43,336.5L566.77,337.45L564.05,339.01L562.19,338.92L559.66,341.08L559.69,342.18L556.46,343.48L555.32,345.19L553.44,346.91L551.64,351.39L549.49,353.49L546.31,354.05L539.94,355.6L538.31,352.93L530.66,347.83L529.22,346.88L528.78,347.1L527.61,345.55L527.98,342.1L530.62,338.56L531.56,328.48L532.46,318.22L533.44,307.39Z" class="land" id="BW-KL" title="Kgatleng"/>
    <path d="M510.18,279.64L510.5,280.32L514.51,285.66L522.03,295.75L522.75,296.15L527.14,297.58L532.91,305.9L533.36,306.41L533.44,307.39L532.46,318.22L531.56,328.48L530.62,338.56L527.98,342.1L527.61,345.55L528.78,347.1L529.22,346.88L530.66,347.83L529.65,349.03L520.13,359.42L516.27,359.27L510.17,355.69L491.06,349.81L480.74,346.57L471.05,343.56L461.97,340.67L450.49,337.06L442.03,334.36L431.18,330.85L415.11,325.66L415.19,313.4L415.13,306.89L411.18,306.9L411.14,300.56L411.6,300.06L415.21,300.16L415.21,295.65L420.61,295.67L441.6,295.78L452.39,295.78L459.39,295.8L474.38,295.87L480.99,295.82L497.15,295.95L502.19,295.89L502.6,295.48L506.07,288.58L510.12,280.39Z" class="land" id="BW-KW" title="Kweneng"/>
    <path d="M612.88,220.1L611.34,220.26L610.19,219.85L609.62,219.09L607.32,219.1L606.47,219.39L604.96,219.22L602.4,219.97L601.62,219.58L598.39,219.06L597.13,218.55L595.67,216.76L594.69,216.94L593.97,216.48L592.64,216.28L590.52,213.35L590.11,212.27L589.24,211.67L588.48,209.74L588.62,209.06L587.9,206.49L588.09,205.8L587.57,203.95L586.63,203.12L586.4,200.59L586.74,198.16L586.26,197.47L586.23,195.82L585.52,194.82L585.22,193.62L583.75,191.23L582.21,190.45L581.25,189.66L580.84,188.28L581.37,186.21L581.23,184.37L581.66,183.62L583.04,182.65L583.22,181.44L583.97,180.83L584.74,179.6L583.96,176.93L584.16,175.17L583.95,174.62L584.37,174.75L586.87,173.58L588.03,174.07L590.14,174.1L591.57,173.58L595.4,174.51L597.48,174.02L598.34,174.78L599.87,174.3L601.39,175.54L601.66,177.01L600.68,179.44L600.82,182.05L601.78,183.81L601.56,184.41L601.88,185.72L601.05,189.61L600.12,190.92L600.62,192.33L600.21,193.81L601.01,194.67L600.13,196.56L600.61,197.78L599.95,198.86L600.73,200.63L601.6,201.33L602.63,202.69L603.33,202.84L604.15,203.66L605.01,203.84L605.09,204.62L606.63,206.49L607.12,207.64L608.53,209.01L609.22,210.53L609.16,211.58L609.88,212.3L610.9,213.99L610.65,214.45L611.48,215.59L610.91,216.58L611.88,217.04L611.15,218.05L612.22,218.9Z" class="land" id="BW-NE" title="North East"/>
    <path d="M448.73,80.19L448.58,112.13L492.32,111.53L492.41,114.14L492.39,115.3L492.39,128.07L492.41,137.96L492.38,153.35L499.55,156.39L499.18,168.01L486.9,169L474.02,170.06L470.65,169.88L469.83,170.53L468.65,170.53L467.55,169.89L465.57,167.17L464.11,166.65L463.38,165.32L463.72,164.04L463.2,163.4L461.38,164.05L460.74,162.64L459.97,162.52L458.69,161.77L457.49,162.62L456.38,162.56L455.3,163.53L454.13,163.75L452.67,164.92L452.81,166.07L451.62,166.21L450.58,166.94L449.44,166.92L448.04,165.91L447.87,166.86L447.91,175.09L448,181.55L448.12,195.75L429.3,195.96L416.94,196L403.4,196.08L395.75,196.05L382.21,196.08L366.9,195.99L356.31,195.97L346.31,195.86L333.02,195.75L333.04,118.56L333.09,82.38L351.85,82.38L412.49,69.8L417.09,68.98L424.79,68.92L425.71,69.64L425.45,70.53L426.03,72.37L428.04,74.7L428.39,75.89L429.11,76.54L429.43,77.61L430.67,77.94L431.64,79.29L432.76,79.15L433.02,80.08L433.9,80.53L434.25,81.67L434.09,82.35L435.15,83.34L435.39,84.64L434.97,85.15L435.51,86.2L435.38,87.72L435.65,89.06L437.41,90.21L439.54,88.83L440.24,87.45L441.69,87.37L444.55,85.08L445.27,84.01L445.33,83.22L446.85,82.44L447,81.71L447.89,80.61Z" class="land" id="BW-NW" title="North West"/>
    <path d="M518.81,389.92L516.28,388.77L514.11,388.34L517.03,377.95L519.38,369.77L516.54,369.95L518.3,364.61L517.75,363.8L520.17,362.7L520.13,359.42L529.65,349.03L530.66,347.83L538.31,352.93L539.94,355.6L533.15,357.22L530.6,357.14L529.85,357.37L528.6,358.69L527.18,359.14L527.45,361.47L528.33,363.15L528.07,365.77L527.21,366.61L527.09,367.49L523.83,376.21L522.74,379.37L522.02,380.83L521.04,381.92L520.53,385.57L520,386.59L519.71,388.19Z" class="land" id="BW-SE" title="South East"/>
    <path d="M520.13,359.42L520.17,362.7L517.75,363.8L518.3,364.61L516.54,369.95L519.38,369.77L517.03,377.95L514.11,388.34L516.28,388.77L518.81,389.92L518.76,391.79L516.37,397.01L516.07,397.46L511.34,400.52L509.56,402.08L508.55,402.17L506.52,403.42L504.89,403.17L499.82,403.24L497.76,403L497.18,402.41L494.75,401.39L493.34,401.6L492.87,402.43L491.57,403.52L490.94,403.34L488.96,405.44L487.44,405.28L484.73,406L483.01,405.64L482.18,405.2L480.36,405.89L478.96,405.72L477.23,405.05L475.86,403.93L474.61,403.73L471.96,402.65L472.82,402.35L472.44,398.4L468.76,398.29L462.85,392.17L462.57,382.41L462.27,369.6L461.11,368.27L455.92,362.81L455.23,362.72L449.14,362.73L445.51,362.81L425.48,362.88L415.15,362.92L414.9,362.35L415.08,338.11L415.03,335.09L415.11,325.66L431.18,330.85L442.03,334.36L450.49,337.06L461.97,340.67L471.05,343.56L480.74,346.57L491.06,349.81L510.17,355.69L516.27,359.27Z" class="land" id="BW-SO" title="Southern"/>
  </g>
</svg>