<?xml version="1.0" encoding="UTF-8"?>
<svg xmlns="http://www.w3.org/2000/svg" width="402.04" height="399.63" viewBox="278.98 57.19 402.04 399.63" style="background-color:#000000">
  <!-- Created using SVG Map Generator: dojo.amcharts.com/svg-map-generator -->
  <style>
    .land { fill: #ffffff; stroke: #000000; stroke-width: 0.65; }
  </style>
  <g id="polygons">
    <path d="M342.43,263.86L346.02,268.49L349.57,265.99L353.04,266.36L352.94,268.17L354.99,269.87L354.28,272.84L352.55,274.74L356.13,276.55L357.67,275.75L365.87,275.93L364.7,284.4L365.05,288.57L363.98,292.23L362.04,294.12L357.13,294.27L338.54,294.12L333.05,294.28L330.89,294.89L322.2,293.87L319.31,294.34L318.23,293.45L314.97,294.15L302.88,293.95L300.28,294.69L298.1,294.19L295.53,295.65L286.35,298.44L281.63,292.82L282.45,291.4L288.06,291.2L287.93,277.29L291.85,274.82L294.39,270.76L300,268.96L302.57,269.19L303.64,271.1L306.49,273.26L310.08,271.99L312.57,269.1L313.98,263.88L317.68,265.82L319.05,263.87L322.23,263.35L325.97,261.57L328.55,264.13L325.78,266.78L327.04,270.11L326.9,272.97L328.7,272.71L332.88,274.15L336.19,272.07L337.49,269.24Z" class="land" id="CD-BC" title="Kongo Central"/>
    <path d="M587.01,66L589.58,70.68L588.19,77.54L591.9,78.64L594.96,78.49L592.93,86.4L595.85,92.27L596.74,97.44L594.27,103.15L596.44,104.35L597.68,103.15L601.83,102.46L603.12,103.8L602.97,108.18L600.79,109.08L602.72,112.56L600.15,112.76L596.44,114.55L592.79,111.51L588.24,115.59L586.71,118.28L592.29,118.88L592.64,123.65L590.12,128.13L589.66,131.33L588.43,131.04L586.65,127.05L583.64,126.31L580.97,127.35L579.19,129.19L574.7,127.7L574.75,122.38L568.08,124.47L566.64,125.71L563.28,124.96L561.16,126.26L557.89,126.41L552.51,123.77L549.99,125.01L537.03,124.32L533.32,124.47L528.58,125.66L525.81,128.25L521.16,127.15L517.97,125.84L517.62,121.91L515.99,119.62L513.62,118.18L511.25,119.92L507.59,118.47L504.38,116.48L503.34,113.6L504.92,112.35L506.55,109.28L505.66,107.64L502.2,108.78L500.28,106.29L496.57,105.6L497.91,103.5L498.9,100.04L503.41,97.49L506.77,96.45L510.61,92.83L508.67,90.84L506.02,91.36L501.47,91.2L501.87,88.21L499.5,86.03L494.91,85.31L497.33,78.69L499.4,78.69L501.16,73.84L503.72,71.47L508.02,73.76L509.23,73.13L512.55,75.97L517.77,73.24L522.99,71.23L525.41,71.65L528.33,69.54L529.79,69.86L534.92,65.35L539.22,67.03L540.14,69.35L542.92,69.61L547.25,67.67L553.86,66.91L553.95,63.6L554.9,61.08L559.34,59.84L566.33,64.02L567.74,62.67L569.46,63.62L572.37,62.72L576.17,64.59L579,66.75L584.11,65.55Z" class="land" id="CD-BU" title="Bas-Uélé"/>
    <path d="M441.33,129.82L440.14,131.8L426.61,139.04L426.8,143.41L431.47,141.47L436.69,138.11L443.32,135.72L447.4,134.86L453.22,136.84L457.74,136.35L456.7,141.01L457.74,144.63L457.67,146.8L454.89,145.75L452.55,149.07L451.77,154.6L452.44,156.54L450.88,159.48L449.62,163.8L454.89,168.28L454.33,173.16L452.11,173.57L450.44,176.52L447.92,176.67L447.62,174.32L440.28,174.06L444.77,178.99L446.18,182.45L448.7,185.25L448.66,186.67L444.73,194.28L439.24,196.07L436.72,195.1L436.8,192.9L435.02,192.49L434.87,196.03L431.47,201.03L428.43,194.16L426.87,193.26L426.43,190.05L424.54,187.37L422.35,188.86L418.68,188.86L417.12,191.36L419.35,194.23L417.14,195.35L417.54,197.63L412.5,197.85L407.31,194.38L406.16,194.16L401.94,198.86L399.97,199.98L393.64,202L390.38,203.53L384.3,208.48L382.78,209.15L377.52,208.67L379.34,210.65L379.19,213.48L375.78,214L372.74,213.33L371.18,209.89L376.65,199.45L380.42,195.72L384.31,193.64L387.99,192.37L391.14,189.22L395.11,184.15L396.32,179.69L395.74,174.44L396.94,171.77L397.98,167.29L400.86,163.69L400.76,161.58L399.33,159.87L399.26,154.34L398.58,150.72L400.48,147.56L401.2,143.94L403.11,140.13L403.52,136.87L402.9,133.9L403.44,130.08L412.79,130.12L415.78,131.67L420.62,129.75L423.65,127.78L426.4,127.28L432.72,129.37Z" class="land" id="CD-EQ" title="Équateur"/>
    <path d="M642.48,346.58L628.39,348.64L629.68,352.04L628.28,355.37L625.18,359.35L617.83,364.85L617.15,367.62L621.48,370.04L622.61,375.08L623.59,377L622.63,379.87L622.82,391.73L624.12,394.78L621.14,398.37L619.53,404.16L619.75,407.1L617.56,414.33L618.25,417.32L620.11,420.58L625.42,422.94L625.82,424.32L629.32,427.65L631.4,431.33L635.98,430.89L640.3,433.17L639.91,430.24L640.6,428.22L647.21,426.47L647.25,454.16L643.12,453.17L644.61,450.09L642.67,449.01L639.61,451.15L637,451.53L634.23,453.9L632.95,452.34L629.93,452.47L626.83,444.68L623.2,440.58L620.94,441.38L619.31,438.77L620.51,436.64L616.18,432.06L608.66,429.82L607.92,428.26L602.49,429.25L599.55,426.49L598.47,421.61L593.66,418.61L593.12,413.98L589.43,414.89L589.85,416.74L588.99,419.89L586.42,422.82L582.98,423.33L578.16,421.64L574.91,422.42L567.83,421.88L565.76,419.17L562.2,419.23L560.87,417.47L561.47,414.87L563.39,411.62L563.07,408.99L564.28,407.5L563.93,404.78L566.71,400.92L570.27,401.31L572.97,399.97L574.69,403.73L576.8,400.26L579.32,399.73L580.65,396.71L579.58,393.73L577.81,391.19L580.12,390.6L585.19,390.71L587.21,392.98L590.7,392.41L592.43,389.43L588.78,385.73L590.91,381.55L588.98,379.61L586.97,380.24L580.56,379.58L573.65,377.05L575.02,373.47L577.81,369.59L578.34,363.6L581.72,360.16L583.2,354.25L587.09,354.43L590.14,351.48L589.52,348.69L594.1,343.5L600.51,340.99L603.62,342.19L608.63,344.46L610.72,347.23L614.16,344.81L616.5,344.48L618.37,342.99L620.45,336.84L617.51,334.6L620.18,331.48L622.14,331.84L623.67,336.71L626.72,338.59L628.47,335.84L632.36,336.5L633.45,334.11L639.15,333.72L641.07,336.05L642.56,335.75L644.08,338.23L644.05,340.44L642.27,342.02L641.49,345.22Z" class="land" id="CD-HK" title="Haut-Katanga"/>
    <path d="M570.49,303.59L567.07,307.09L566.75,309.99L568.57,310.87L569.76,314.29L569.48,315.88L573.28,318.51L578.06,319.62L576.18,322.5L575.74,325.01L577.56,326.96L581.83,329.31L584.36,329.83L585.63,331.34L591.91,331.3L594.21,328.47L596.03,329.39L600.45,328.43L602.43,331.66L602.75,335.96L606.47,337.31L605.99,339.22L603.62,342.19L600.51,340.99L594.1,343.5L589.52,348.69L590.14,351.48L587.09,354.43L583.2,354.25L581.72,360.16L578.34,363.6L577.81,369.59L575.02,373.47L572.37,374.95L569.47,375.26L564.09,373.33L560.64,370.41L557.42,371.22L558.6,376.07L548.22,380.92L547.48,383.1L545.5,383.22L541.24,381.11L538.83,382.85L536.23,380.73L529.25,381.17L527.03,376.88L529.25,373.65L529.99,366.99L535.98,364.5L533.02,361.89L531.6,359.22L528.39,358.6L527.15,356.42L525.24,355.43L520.36,354.62L519.8,348L520.73,342.65L519.49,338.49L521.27,335.54L523.12,337.1L525.72,334.87L524.75,332.33L525.12,327.93L526.83,324.79L530.39,320.09L532.24,319.2L535.8,319.42L539.51,318.15L542.92,315.69L545.59,312.48L549.14,311.36L551.59,311.43L554.41,313.82L555.97,312.93L556.63,309.42L553.74,307.33L553.74,304.27L560.56,303.08L564.42,300.46L565.9,300.54Z" class="land" id="CD-HL" title="Haut-Lomami"/>
    <path d="M662.84,96.95L659.48,97.46L659.48,100.33L657.54,105.58L654.85,107.93L654.42,111.15L655.68,112.23L654.93,115.17L655.76,116.45L653.59,122.34L650.15,124.91L647.85,129.01L646.31,126.86L643.11,125.63L644.02,121.45L642.91,119.89L638.6,121.29L636.43,120.73L630.22,121.57L629.86,123.68L625.36,124.39L623.1,125.39L621.79,123.4L618.71,124.75L616.53,123.52L616.22,131.36L612.73,136.61L608.47,135.54L605.18,133.31L600.28,134.22L601.86,138.8L604.12,138.28L605.54,139.28L605.14,141.51L601.27,141.55L600.36,139.6L598.04,139.63L597.82,139.3L593.52,138.76L596.48,134.38L597.13,131.88L596.43,129.99L593.82,129.44L593.27,131.98L589.66,131.33L590.12,128.13L592.64,123.65L592.29,118.88L586.71,118.28L588.24,115.59L592.79,111.51L596.44,114.55L600.15,112.76L602.72,112.56L600.79,109.08L602.97,108.18L603.12,103.8L601.83,102.46L597.68,103.15L596.44,104.35L594.27,103.15L596.74,97.44L595.85,92.27L592.93,86.4L594.96,78.49L591.9,78.64L588.19,77.54L589.58,70.68L587.01,66L589.44,63.77L592.11,63.5L597.81,66.05L600.77,69.98L602.51,69.94L605.21,73.17L605.14,76.08L606.89,77.1L610.5,77.11L611.2,79.97L613.81,81.28L616.93,81.24L618.2,82.86L620.24,80.83L623.4,79.78L624.45,77.43L626.89,78.65L631.14,78.47L634.68,81.48L637.46,80.16L640.24,76.18L640.06,74.63L643.21,74.75L647.49,77.33L647.03,80.85L649,81.31L654.46,86.51L655.85,89.83L662.73,91.48L663.38,95.19Z" class="land" id="CD-HU" title="Haut-Uélé"/>
    <path d="M598.04,139.63L600.36,139.6L601.27,141.55L605.14,141.51L605.54,139.28L604.12,138.28L601.86,138.8L600.28,134.22L605.18,133.31L608.47,135.54L612.73,136.61L616.22,131.36L616.53,123.52L618.71,124.75L621.79,123.4L623.1,125.39L625.36,124.39L629.86,123.68L630.22,121.57L636.43,120.73L638.6,121.29L642.91,119.89L644.02,121.45L643.11,125.63L646.31,126.86L647.85,129.01L650.15,124.91L653.59,122.34L655.76,116.45L654.93,115.17L655.68,112.23L654.42,111.15L654.85,107.93L657.54,105.58L659.48,100.33L659.48,97.46L662.84,96.95L665.1,96.11L670.7,98.76L670.72,100.94L668.71,104.38L667.45,108.88L669.06,110.16L669.61,113.23L666.82,117.97L666.63,120.8L669.56,123.08L672.17,121.83L674.61,124.63L678.37,126.91L678.37,127.75L672.6,135.38L666.82,140.01L662.65,145.44L658.2,147.78L656.12,148.17L654.45,153.3L650.59,154.81L648.21,152.56L640.32,153.99L638.92,154.92L636.01,159.16L633.76,158.09L630.66,159.9L623.64,160.01L621.13,161.03L617.5,157.76L613.19,157.45L610.09,158.5L608.4,155.47L609.19,152.49L607.9,149.9L604.29,149.26L604.93,145.62L604.09,144.08L600.68,143.83L598.66,140.55Z" class="land" id="CD-IT" title="Ituri"/>
    <path d="M518.19,291.79L508.68,291.42L505.1,292.98L504.97,297.64L507.2,301.31L507.07,303.92L508.56,305.16L508.06,307.72L506.46,313.06L507.2,314.93L509.05,315.11L511.58,316.97L510.29,321.14L510.97,324.62L510.16,331.83L509.47,334.38L506.48,336.46L503.52,336.46L501.42,335.34L496.35,334.1L495.18,335.59L493.02,335.46L489.44,336.65L487.09,335.53L485.48,332.54L480.8,332.45L481.87,326.97L480.31,323.64L478.1,320.05L473.19,315.55L478.29,310.06L475.61,308.15L477.03,305.28L476.12,300.15L476.67,296.33L479.08,292.55L482.17,294.1L484.03,291.04L483.99,288.09L481.65,285.27L480.07,285.94L478.21,284.67L477.19,282.05L478.73,277.59L486.52,278.34L487.55,276.63L488.15,272.89L490.56,268.82L493.08,268.45L495.74,264.12L496,259.64L498.82,261.34L503.27,266.31L507.81,266.76L509.35,271.84L504.75,274.08L503.86,276.17L509.15,282.53L514.04,281.79L516.02,283.18L518.93,283.28L521.16,286.67Z" class="land" id="CD-KC" title="Kasaï Central"/>
    <path d="M526.66,293.41L526.68,297.63L529.39,298.5L528.71,301.54L526.68,303.1L528.22,305.65L523.53,305.15L522.17,306.02L521.3,312.12L516.92,312.99L513.33,308.32L509.5,310.06L508.06,307.72L508.56,305.16L507.07,303.92L507.2,301.31L504.97,297.64L505.1,292.98L508.68,291.42L518.19,291.79L521.22,291.98Z" class="land" id="CD-KE" title="Kasaï-Oriental"/>
    <path d="M437.02,304.57L437.33,309.05L441.93,314.58L442.81,317.67L433.79,317.68L432.79,321.42L432.77,325.41L433.81,327.27L432.34,329.57L430.15,329.91L431,332.39L430.01,334.72L430.24,338.57L418.33,338.67L417.9,337.02L412.76,337L412.66,338.67L406.21,338.45L403.78,340.75L399.3,340.33L392.55,341.34L391.41,340.41L390.36,336.22L387.58,333.6L387.16,330.87L385.02,328.87L384.81,327.01L381.01,323.98L379.41,319.25L379.61,314.97L378.33,314.49L376.61,311.05L375.97,307.82L374.53,305.34L375.18,303.85L374.45,299.69L372.72,298.56L372.58,295.06L370.75,294.22L362.04,294.12L363.98,292.23L365.05,288.57L364.7,284.4L365.87,275.93L365.47,271.59L369.03,265.85L370.35,265.59L372.4,266.61L373.11,264.26L375.8,263.11L379.79,263.39L381.61,265.97L384.46,266.21L385.44,264.3L388.48,262.75L391.53,260.36L393.78,260.64L395.4,264.14L395.12,266.65L391.72,273.06L391.96,279.75L390.81,281.78L391.01,286.2L392.16,290.66L397.02,291.06L399.39,289.59L403.43,291.42L405.64,293.41L407.78,294.04L410.07,292.85L413.31,294.92L413.11,296.59L416.47,297.19L416.64,299.58L419.53,299.82L421.11,303.04L423.36,302.68L426.88,299.5L430.08,300.73L428.62,302.88L429.65,305.51L432.18,303.36Z" class="land" id="CD-KG" title="Kwango"/>
    <path d="M444.19,261.24L445.81,265.9L444.46,270.1L445.26,273.8L446.76,277.22L447.15,279.93L446.32,286.41L447.04,291.57L444.56,293.9L443,296.81L440.89,296.96L436.74,300.54L437.02,304.57L432.18,303.36L429.65,305.51L428.62,302.88L430.08,300.73L426.88,299.5L423.36,302.68L421.11,303.04L419.53,299.82L416.64,299.58L416.47,297.19L413.11,296.59L413.31,294.92L410.07,292.85L407.78,294.04L405.64,293.41L403.43,291.42L399.39,289.59L397.02,291.06L392.16,290.66L391.01,286.2L390.81,281.78L391.96,279.75L391.72,273.06L395.12,266.65L395.4,264.14L393.78,260.64L391.53,260.36L388.48,262.75L385.44,264.3L384.46,266.21L381.61,265.97L379.79,263.39L375.8,263.11L373.11,264.26L372.4,266.61L370.35,265.59L371.4,261.08L374.13,258.62L378.01,256.86L379.67,255.23L383.62,255.79L385.39,253.62L387.68,247.81L386.65,244.95L387.96,243.31L388.19,238.58L390.05,238.78L392.23,240.45L394.91,241.09L398.59,243.2L403.42,242.6L407.49,243.04L409.62,245.07L412.79,246.58L417.81,247.77L426.99,251.17L433.91,255.35L440.71,257.7Z" class="land" id="CD-KL" title="Kwilu"/>
    <path d="M358.07,253.97L359.27,254.72L364.4,254.93L368.31,257.08L371.4,261.08L370.35,265.59L369.03,265.85L365.47,271.59L365.87,275.93L357.67,275.75L356.13,276.55L352.55,274.74L354.28,272.84L354.99,269.87L352.94,268.17L353.04,266.36L349.57,265.99L346.02,268.49L342.43,263.86L345.6,260.89L348.96,260.63L350.99,256Z" class="land" id="CD-KN" title="Kinshasa City"/>
    <path d="M464.57,223.51L468.46,224.14L472.69,223.24L473.13,220.07L479.25,223.69L481.55,224.44L484.59,226.86L487.26,231.22L489,233.05L487.11,235.81L486.96,237.79L483.44,244.77L484.22,246.82L487.85,247.23L487.66,251.43L484.55,254.01L488.48,255.83L490.56,255.39L496,259.64L495.74,264.12L493.08,268.45L490.56,268.82L488.15,272.89L487.55,276.63L486.52,278.34L478.73,277.59L477.19,282.05L478.21,284.67L480.07,285.94L481.65,285.27L483.99,288.09L484.03,291.04L482.17,294.1L479.08,292.55L476.67,296.33L476.12,300.15L477.03,305.28L475.61,308.15L478.29,310.06L473.19,315.55L478.1,320.05L480.31,323.64L454.55,323.59L454.75,320.05L456.32,315.88L449.87,315.87L449.55,317.65L442.81,317.67L441.93,314.58L437.33,309.05L437.02,304.57L436.74,300.54L440.89,296.96L443,296.81L444.56,293.9L447.04,291.57L446.32,286.41L447.15,279.93L446.76,277.22L445.26,273.8L444.46,270.1L445.81,265.9L444.19,261.24L446.37,261.78L448.63,263.61L450.71,263.68L451.6,261.96L454.12,261.26L457.01,257.97L456.64,251.4L456.56,242.24L456.82,239.52L458.38,234.18L461.05,229.48L462.6,225.56Z" class="land" id="CD-KS" title="Kasaï"/>
    <path d="M570.49,303.59L565.9,300.54L564.42,300.46L560.56,303.08L553.74,304.27L553.74,307.33L556.63,309.42L555.97,312.93L554.41,313.82L551.59,311.43L549.14,311.36L545.59,312.48L542.92,315.69L539.51,318.15L535.8,319.42L532.24,319.2L530.39,320.09L526.83,324.79L525.12,327.93L524.75,332.33L525.72,334.87L523.12,337.1L521.27,335.54L519.49,338.49L517.51,337.8L515.54,338.55L510.66,338.05L509.47,334.38L510.16,331.83L510.97,324.62L510.29,321.14L511.58,316.97L509.05,315.11L507.2,314.93L506.46,313.06L508.06,307.72L509.5,310.06L513.33,308.32L516.92,312.99L521.3,312.12L522.17,306.02L523.53,305.15L528.22,305.65L526.68,303.1L528.71,301.54L529.39,298.5L526.68,297.63L526.66,293.41L529.5,292.98L529.99,290.12L528.26,289.12L527.71,284.77L530.8,284.27L532.22,284.95L537.71,283.96L537.53,280.29L538.46,277.61L544.02,274.82L544.39,273.2L546.98,273.01L548.25,276L552.52,276.56L556.9,276.18L573.39,276.35L570.9,282.84L571.34,288.54L570.43,290.54L571.81,292.41L572.53,298.57Z" class="land" id="CD-LO" title="Lomami"/>
    <path d="M509.47,334.38L510.66,338.05L515.54,338.55L517.51,337.8L519.49,338.49L520.73,342.65L519.8,348L520.36,354.62L525.24,355.43L527.15,356.42L528.39,358.6L531.6,359.22L533.02,361.89L535.98,364.5L529.99,366.99L529.25,373.65L527.03,376.88L529.25,381.17L536.23,380.73L538.83,382.85L541.24,381.11L545.5,383.22L547.48,383.1L548.22,380.92L558.6,376.07L557.42,371.22L560.64,370.41L564.09,373.33L569.47,375.26L572.37,374.95L575.02,373.47L573.65,377.05L580.56,379.58L586.97,380.24L588.98,379.61L590.91,381.55L588.78,385.73L592.43,389.43L590.7,392.41L587.21,392.98L585.19,390.71L580.12,390.6L577.81,391.19L579.58,393.73L580.65,396.71L579.32,399.73L576.8,400.26L574.69,403.73L572.97,399.97L570.27,401.31L566.71,400.92L563.93,404.78L564.28,407.5L563.07,408.99L563.39,411.62L561.47,414.87L560.87,417.47L557.53,417.03L554.25,415.22L553.04,409.77L554.57,406.07L548.72,407.32L544.62,407.48L541.81,408.41L538.59,411.6L536.26,411.69L533.09,410.56L534.63,407.98L534.42,403.88L529.18,402.43L529.17,400.27L526.03,399.74L523.8,402.29L517.83,401.78L514.72,400.61L509.89,404.09L507.41,404.55L502.9,403.23L499.91,404.25L497.04,402.69L495.48,402.82L493.96,405.63L490.9,407.24L489.46,404.14L488.63,398.79L491.81,396.79L491.69,388.91L489.78,385.2L488.85,379.23L486.39,378.19L482.29,373.46L480.56,368.55L481.97,364.77L481.6,361.4L482.13,356.92L484.03,349.11L482.33,342.81L479.58,337.15L480.8,332.45L485.48,332.54L487.09,335.53L489.44,336.65L493.02,335.46L495.18,335.59L496.35,334.1L501.42,335.34L503.52,336.46L506.48,336.46Z" class="land" id="CD-LU" title="Lualaba"/>
    <path d="M546.98,273.01L544.27,268.29L546.71,265.41L547.68,259.89L546.79,257.14L541.97,250.65L542.97,248.41L542.71,245.76L547.72,238L547.84,234.69L549.59,228.89L549.15,226.71L547.4,224.9L547.8,222.38L546.58,221.45L542.88,221.52L540.65,220.07L540.61,217.16L538.97,213.41L539.01,213.41L550.99,213.29L551.5,214.78L555.51,215.23L557.66,212.69L561.25,210.8L564.15,210.46L565.15,205.71L566.66,202.65L568.02,202.79L569.49,200.21L569.14,197.8L570.25,195.29L570.17,191.91L573.21,190.4L572.94,185.14L573.45,182.12L571,180.56L571.32,177.62L569.14,175.27L568.55,172.76L571.51,172.72L576.81,178L577.73,179.49L582.91,178.03L585.53,175.93L588.77,177.21L592.56,180.78L604.01,184.34L606.14,184.41L604.84,189.78L603.28,191.24L598.46,190.9L595.64,191.76L594.53,193.77L596.83,201.8L599.13,203.56L600.8,206.02L604.09,209.01L604.39,213.48L597.24,213.07L598.5,215.76L594.2,219.04L587.82,216.4L586.3,217.1L585.04,222.33L587.3,227.75L587.25,229.87L588.4,232.64L589.91,233.46L591.77,240.21L590.71,241.24L591.51,244.04L590.65,249.69L592.5,252.93L598.49,255.11L605.72,255.79L606.65,257.59L609.74,257.97L612.76,260.08L613.69,257.97L617.21,261.08L620.73,264.93L621.04,266.61L624.87,273.2L626.31,276.54L573.39,276.35L556.9,276.18L552.52,276.56L548.25,276Z" class="land" id="CD-MA" title="Maniema"/>
    <path d="M464.57,223.51L462.6,225.56L461.05,229.48L458.38,234.18L456.82,239.52L456.56,242.24L456.64,251.4L457.01,257.97L454.12,261.26L451.6,261.96L450.71,263.68L448.63,263.61L446.37,261.78L444.19,261.24L440.71,257.7L433.91,255.35L426.99,251.17L417.81,247.77L412.79,246.58L409.62,245.07L407.49,243.04L403.42,242.6L398.59,243.2L394.91,241.09L392.23,240.45L390.05,238.78L388.19,238.58L387.96,243.31L386.65,244.95L387.68,247.81L385.39,253.62L383.62,255.79L379.67,255.23L378.01,256.86L374.13,258.62L371.4,261.08L368.31,257.08L364.4,254.93L359.27,254.72L358.07,253.97L361.31,246.86L364,242.42L364.17,234.52L363.85,231.58L365.04,226.37L363.94,221.34L364.09,218.05L365.14,215.92L367.57,214.17L371.18,209.89L372.74,213.33L375.78,214L379.19,213.48L379.34,210.65L377.52,208.67L382.78,209.15L384.3,208.48L390.38,203.53L393.64,202L399.97,199.98L401.94,198.86L406.16,194.16L407.31,194.38L412.5,197.85L417.54,197.63L417.14,195.35L419.35,194.23L417.12,191.36L418.68,188.86L422.35,188.86L424.54,187.37L426.43,190.05L426.87,193.26L428.43,194.16L431.47,201.03L432.48,203.72L433.22,209.09L436.56,207.45L438.19,204.73L440.12,206.89L441.34,210.51L445.68,211.71L451.79,215.85L456.72,213.24L457.8,213.24L462.1,218.31L464.66,222.27Z" class="land" id="CD-MN" title="Mai-Ndombe"/>
    <path d="M492.15,134.9L486.02,134.83L482.69,135.95L481.95,137.51L482.5,144.28L483.74,147.77L486.52,149.82L487.32,151.62L483.24,152.31L481.58,153.67L478.92,152.81L477.68,156.05L474.53,155.99L467.73,152.69L464.83,152.13L464.03,146.85L461.62,147.34L457.67,146.8L457.74,144.63L456.7,141.01L457.74,136.35L453.22,136.84L447.4,134.86L443.32,135.72L436.69,138.11L431.47,141.47L426.8,143.41L426.61,139.04L440.14,131.8L441.33,129.82L445.89,122.59L448.23,121.32L452.38,120.73L453.71,121.36L459.02,120.88L462.05,117.55L461.68,115.69L458.46,111.06L458.53,104.98L459.61,103.64L461.9,106.13L464.61,107.19L467.33,109.36L467.7,105.38L474.99,109.98L482.59,111.04L484.64,110.92L490.94,109.05L495.27,109.55L496.57,105.6L500.28,106.29L502.2,108.78L505.66,107.64L506.55,109.28L504.92,112.35L503.34,113.6L504.38,116.48L507.59,118.47L511.25,119.92L513.62,118.18L515.99,119.62L517.62,121.91L517.97,125.84L515.55,125.89L513.32,124.2L511.99,125.04L512.29,127.88L510.41,128.28L508.09,126.48L505.81,125.94L502.9,128.87L500.92,129.27L495.78,126.09L492.76,126.29L493.21,128.53L494.84,130.76L494.3,132.9Z" class="land" id="CD-MO" title="Mongala"/>
    <path d="M636.4,205.41L632.95,205.66L630.17,207.75L627.42,207.79L622.72,211.37L618.71,211.26L616.86,213.57L611.3,213.53L606.89,214.09L604.39,213.48L604.09,209.01L600.8,206.02L599.13,203.56L596.83,201.8L594.53,193.77L595.64,191.76L598.46,190.9L603.28,191.24L604.84,189.78L606.14,184.41L608.75,183.66L608.67,179.79L611.64,178.08L612.66,176.29L611.47,171.37L612.61,168.48L611.06,166.41L610.04,162.17L606.01,161.35L606.25,160.31L610.09,158.5L613.19,157.45L617.5,157.76L621.13,161.03L623.64,160.01L630.66,159.9L633.76,158.09L636.01,159.16L638.92,154.92L640.32,153.99L648.21,152.56L650.59,154.81L650.27,158.38L650.78,160.97L648.56,163.71L647.54,168.14L645.33,170.19L645.6,173.66L643.96,181.35L644.62,183.43L643.42,186.39L643.67,190.43L642.5,190.54L642.31,196.39L642.67,200.59L639.87,203L637.95,203.27Z" class="land" id="CD-NK" title="Nord-Kivu"/>
    <path d="M494.91,85.31L499.5,86.03L501.87,88.21L501.47,91.2L506.02,91.36L508.67,90.84L510.61,92.83L506.77,96.45L503.41,97.49L498.9,100.04L497.91,103.5L496.57,105.6L495.27,109.55L490.94,109.05L484.64,110.92L482.59,111.04L474.99,109.98L467.7,105.38L467.33,109.36L464.61,107.19L461.9,106.13L459.61,103.64L458.53,104.98L456.14,107.16L452.26,111.82L449.61,111.94L447.64,109.79L447.08,107.72L449.06,103.86L447.83,98.81L446.1,96.7L446.37,94.07L447.56,92.48L442.14,89.78L441.19,86.55L439.89,86.08L434.55,86.64L430.64,88.7L428.38,86.4L431.82,79.59L433.21,75.33L429.57,74.34L423.12,71.79L424.08,69.86L426.7,68.88L427.5,67.53L430.88,65.14L436.97,64.89L440.13,66.12L441.52,68.1L443.78,68.38L447.36,71.27L450.42,72.86L452.71,75.45L452.89,78.04L455.89,80.12L461.28,79.23L465.64,80.35L468.47,82.55L469.94,81.48L472.97,83.09L475.82,83.37L477.6,82.08L484.03,83.86L486.85,84.12L490.41,86.14Z" class="land" id="CD-NU" title="Nord-Ubangi"/>
    <path d="M535.02,207.43L536.15,208.28L538.97,213.41L540.61,217.16L540.65,220.07L542.88,221.52L546.58,221.45L547.8,222.38L547.4,224.9L549.15,226.71L549.59,228.89L547.84,234.69L547.72,238L542.71,245.76L542.97,248.41L541.97,250.65L546.79,257.14L547.68,259.89L546.71,265.41L544.27,268.29L546.98,273.01L544.39,273.2L544.02,274.82L538.46,277.61L537.53,280.29L537.71,283.96L532.22,284.95L530.8,284.27L527.71,284.77L528.26,289.12L529.99,290.12L529.5,292.98L526.66,293.41L521.22,291.98L518.19,291.79L521.16,286.67L518.93,283.28L516.02,283.18L514.04,281.79L509.15,282.53L503.86,276.17L504.75,274.08L509.35,271.84L507.81,266.76L503.27,266.31L498.82,261.34L496,259.64L490.56,255.39L488.48,255.83L484.55,254.01L487.66,251.43L487.85,247.23L484.22,246.82L483.44,244.77L486.96,237.79L487.11,235.81L489,233.05L487.26,231.22L484.59,226.86L481.55,224.44L486.35,219.95L488.29,223.02L489.55,222.06L488.01,214.5L487.89,211.79L488.84,209.73L494.26,211.6L496,210.68L496.67,208.65L500.62,210.68L507.38,211.83L511.61,214.98L513.43,213.86L515.81,214.06L517.71,212.79L519.45,209.76L522.42,208.29L527.04,207.38L529.57,207.77Z" class="land" id="CD-SA" title="Sankuru"/>
    <path d="M636.4,205.41L633.33,210.21L634.09,215.36L632.25,219.2L628.19,221.3L628.26,227.18L630.39,228.13L632.44,232.53L635.33,234.71L635.85,236.57L634.6,240.61L635.53,247.56L635.25,250.65L635.92,253.82L637.66,255.88L638.3,258.68L638.63,265.55L637.23,269.59L638.38,276.59L626.31,276.54L624.87,273.2L621.04,266.61L620.73,264.93L617.21,261.08L613.69,257.97L612.76,260.08L609.74,257.97L606.65,257.59L605.72,255.79L598.49,255.11L592.5,252.93L590.65,249.69L591.51,244.04L590.71,241.24L591.77,240.21L589.91,233.46L588.4,232.64L587.25,229.87L587.3,227.75L585.04,222.33L586.3,217.1L587.82,216.4L594.2,219.04L598.5,215.76L597.24,213.07L604.39,213.48L606.89,214.09L611.3,213.53L616.86,213.57L618.71,211.26L622.72,211.37L627.42,207.79L630.17,207.75L632.95,205.66Z" class="land" id="CD-SK" title="Sud-Kivu"/>
    <path d="M441.33,129.82L432.72,129.37L426.4,127.28L423.65,127.78L420.62,129.75L415.78,131.67L412.79,130.12L403.44,130.08L403.66,125.22L405.55,123L406.72,119.63L408.74,117.71L410.44,114.52L410.83,111.81L412.77,107.9L415.04,105.01L415.21,102.48L413.9,93.71L415.18,86.94L413.15,82.5L414.31,81.07L416.6,81.1L418.56,78.92L418.99,76.89L423.12,71.79L429.57,74.34L433.21,75.33L431.82,79.59L428.38,86.4L430.64,88.7L434.55,86.64L439.89,86.08L441.19,86.55L442.14,89.78L447.56,92.48L446.37,94.07L446.1,96.7L447.83,98.81L449.06,103.86L447.08,107.72L447.64,109.79L449.61,111.94L452.26,111.82L456.14,107.16L458.53,104.98L458.46,111.06L461.68,115.69L462.05,117.55L459.02,120.88L453.71,121.36L452.38,120.73L448.23,121.32L445.89,122.59Z" class="land" id="CD-SU" title="Sud-Ubangi"/>
    <path d="M626.31,276.54L638.38,276.59L642.4,287.48L643.06,291.92L642.45,295.99L642.8,302.04L644.05,305.41L646.89,309.5L652.99,314.26L656.18,318.15L658.68,322.89L662.45,331.56L664.77,338.26L667.32,343.38L653.78,345.22L651.22,345.31L642.48,346.58L641.49,345.22L642.27,342.02L644.05,340.44L644.08,338.23L642.56,335.75L641.07,336.05L639.15,333.72L633.45,334.11L632.36,336.5L628.47,335.84L626.72,338.59L623.67,336.71L622.14,331.84L620.18,331.48L617.51,334.6L620.45,336.84L618.37,342.99L616.5,344.48L614.16,344.81L610.72,347.23L608.63,344.46L603.62,342.19L605.99,339.22L606.47,337.31L602.75,335.96L602.43,331.66L600.45,328.43L596.03,329.39L594.21,328.47L591.91,331.3L585.63,331.34L584.36,329.83L581.83,329.31L577.56,326.96L575.74,325.01L576.18,322.5L578.06,319.62L573.28,318.51L569.48,315.88L569.76,314.29L568.57,310.87L566.75,309.99L567.07,307.09L570.49,303.59L572.53,298.57L571.81,292.41L570.43,290.54L571.34,288.54L570.9,282.84L573.39,276.35Z" class="land" id="CD-TA" title="Tanganyika"/>
    <path d="M610.09,158.5L606.25,160.31L606.01,161.35L610.04,162.17L611.06,166.41L612.61,168.48L611.47,171.37L612.66,176.29L611.64,178.08L608.67,179.79L608.75,183.66L606.14,184.41L604.01,184.34L592.56,180.78L588.77,177.21L585.53,175.93L582.91,178.03L577.73,179.49L576.81,178L571.51,172.72L568.55,172.76L569.14,175.27L571.32,177.62L571,180.56L573.45,182.12L572.94,185.14L573.21,190.4L570.17,191.91L570.25,195.29L569.14,197.8L569.49,200.21L568.02,202.79L566.66,202.65L565.15,205.71L564.15,210.46L561.25,210.8L557.66,212.69L555.51,215.23L551.5,214.78L550.99,213.29L539.01,213.41L536.15,208.28L535.02,207.43L535,202.02L533.44,199.63L528.03,199.11L525.04,200.3L522.07,197.02L519.3,195.33L519.51,193.47L513.42,190.55L511.69,187.86L513.42,185.58L516.58,184.63L514.95,180.87L511.26,182.07L509.62,179.75L507,177.76L511.64,177.57L512.83,175.87L511.79,173.93L507.34,170.5L504.87,166.07L505.25,163.42L504.32,159.9L502.6,157.29L501.81,151.05L498.38,144.36L493.89,140.79L490.82,140.51L491.01,137.24L492.15,134.9L494.3,132.9L494.84,130.76L493.21,128.53L492.76,126.29L495.78,126.09L500.92,129.27L502.9,128.87L505.81,125.94L508.09,126.48L510.41,128.28L512.29,127.88L511.99,125.04L513.32,124.2L515.55,125.89L517.97,125.84L521.16,127.15L525.81,128.25L528.58,125.66L533.32,124.47L537.03,124.32L549.99,125.01L552.51,123.77L557.89,126.41L561.16,126.26L563.28,124.96L566.64,125.71L568.08,124.47L574.75,122.38L574.7,127.7L579.19,129.19L580.97,127.35L583.64,126.31L586.65,127.05L588.43,131.04L589.66,131.33L593.27,131.98L593.82,129.44L596.43,129.99L597.13,131.88L596.48,134.38L593.52,138.76L597.82,139.3L598.66,140.55L600.68,143.83L604.09,144.08L604.93,145.62L604.29,149.26L607.9,149.9L609.19,152.49L608.4,155.47Z" class="land" id="CD-TO" title="Tshopo"/>
    <path d="M492.15,134.9L491.01,137.24L490.82,140.51L493.89,140.79L498.38,144.36L501.81,151.05L502.6,157.29L504.32,159.9L505.25,163.42L504.87,166.07L507.34,170.5L511.79,173.93L512.83,175.87L511.64,177.57L507,177.76L509.62,179.75L511.26,182.07L514.95,180.87L516.58,184.63L513.42,185.58L511.69,187.86L513.42,190.55L519.51,193.47L519.3,195.33L522.07,197.02L525.04,200.3L528.03,199.11L533.44,199.63L535,202.02L535.02,207.43L529.57,207.77L527.04,207.38L522.42,208.29L519.45,209.76L517.71,212.79L515.81,214.06L513.43,213.86L511.61,214.98L507.38,211.83L500.62,210.68L496.67,208.65L496,210.68L494.26,211.6L488.84,209.73L487.89,211.79L488.01,214.5L489.55,222.06L488.29,223.02L486.35,219.95L481.55,224.44L479.25,223.69L473.13,220.07L472.69,223.24L468.46,224.14L464.57,223.51L464.66,222.27L462.1,218.31L457.8,213.24L456.72,213.24L451.79,215.85L445.68,211.71L441.34,210.51L440.12,206.89L438.19,204.73L436.56,207.45L433.22,209.09L432.48,203.72L431.47,201.03L434.87,196.03L435.02,192.49L436.8,192.9L436.72,195.1L439.24,196.07L444.73,194.28L448.66,186.67L448.7,185.25L446.18,182.45L444.77,178.99L440.28,174.06L447.62,174.32L447.92,176.67L450.44,176.52L452.11,173.57L454.33,173.16L454.89,168.28L449.62,163.8L450.88,159.48L452.44,156.54L451.77,154.6L452.55,149.07L454.89,145.75L457.67,146.8L461.62,147.34L464.03,146.85L464.83,152.13L467.73,152.69L474.53,155.99L477.68,156.05L478.92,152.81L481.58,153.67L483.24,152.31L487.32,151.62L486.52,149.82L483.74,147.77L482.5,144.28L481.95,137.51L482.69,135.95L486.02,134.83Z" class="land" id="CD-TU" title="Tshuapa"/>
  </g>
</svg>