<?xml version="1.0" encoding="UTF-8"?>
<svg xmlns="http://www.w3.org/2000/svg" width="456.4" height="399.63" viewBox="251.8 57.19 456.4 399.63" style="background-color:#000000">
  <!-- Created using SVG Map Generator: dojo.amcharts.com/svg-map-generator -->
  <style>
    .land { fill: #ffffff; stroke: #000000; stroke-width: 0.65; }
  </style>
  <g id="polygons">
    <path d="M519.29,317.36L524.86,307.94L528.25,300.45L534.25,291.86L535.29,289.26L535.42,283.81L534.02,274.45L536.99,274.63L537.75,278.58L540.67,279.4L544.9,283.73L544.24,287.99L547.1,290.95L549.91,291.77L555.06,290.95L559.12,293.55L565.55,294.23L573.36,296.03L576.91,301.15L583.52,306.66L585.48,312.71L589.78,316.56L590.66,319.35L596.93,325.83L599.35,331.89L604.68,336.24L608.43,344.8L612.72,346.11L617.16,345.54L619.56,348.97L623.78,349L628.95,351.92L629.81,355.68L632.58,357.85L636.24,362.31L636.94,364.64L649.66,370.17L650.09,374.7L653.31,381.02L654.36,389.02L655.8,394.56L662.36,396.5L665.32,393.66L668.65,398.13L672.04,401.01L674.4,404.96L677.71,406.22L679.93,408.73L682.38,419.49L686.55,419.3L688.78,422.3L695.14,423.06L696.76,421.14L697.68,416.85L703.44,422.34L705.55,430.15L690.91,436.47L687.65,436.79L686.08,440.53L683.14,443.32L683.61,449.39L680.76,450.22L675.94,454.16L665.38,444.77L659.27,443.1L655.8,446.86L652.58,443.43L647.09,435.94L642.7,428.41L639.48,425.63L631.89,421.92L626.63,418.52L623.11,413.55L617.87,402.15L615.73,398.57L610.81,392.8L598.6,382.7L577.82,369.34L575.78,367.31L565.78,349.51L551.6,333.29L547.5,330.34L542.92,328.62L534.94,327.13L523.87,321.63Z" class="land" id="ER-DK" title="Debubawi K’eyyĭḥ Baḥri"/>
    <path d="M534.02,274.45L535.42,283.81L535.29,289.26L534.25,291.86L528.25,300.45L524.86,307.94L519.29,317.36L514.13,312.53L508.56,309.75L502.5,308.26L497.98,309.27L494.09,308.77L489.47,311.22L487.17,310.51L483.63,307.42L479.75,305.56L476.79,305.77L453.59,265.53L450.06,258.77L441.4,253.81L434.23,246.6L428.09,237.09L425.28,230.83L422.99,222.27L417.06,212.25L415.19,210.32L406.09,209.17L399.76,206.89L396.46,204.64L394.27,200.42L394.32,192.98L395.84,186.64L392.66,178.66L387.84,173.5L386.17,167.94L381.81,159.93L366.46,157.16L362.86,153.08L364.05,146.42L363.61,142.71L360.22,138.37L359.86,135.25L361.1,130.32L362.25,101.39L361.65,92.78L365.48,92.86L371.5,91.51L374.81,93.98L377.54,92.6L377.97,88.31L383.84,84.53L385.7,81.5L389.77,70.66L391.63,67.92L401.22,59.84L402.49,63.53L405.35,67.61L407.57,73.87L413.9,83.61L418.61,94.61L423.28,102.82L425.69,110.22L424.87,112.96L427.97,117.02L429.83,124.27L431.83,128.43L432.71,134.08L434.47,140.15L436.69,145.28L439.07,157.01L437.83,158.33L440,164.52L440.91,173.93L441.87,176.57L441.37,180.17L443.94,193.5L445.52,196.98L447.89,206.11L449.19,208.55L456.84,213.7L456.6,217.4L458.45,222.8L460.27,224.86L460.6,228.09L457.06,228.91L458.9,234.41L462.9,234.72L464.05,233.34L467.64,233.93L469.26,236.13L472.79,247.58L474.62,248.55L476.47,252.63L475.47,256.43L475.12,262.42L476.29,264.48L480.21,266.1L482.74,265.54L483.31,262.27L485.66,258.94L483.72,252.42L480.53,250.27L480.19,243.78L487.05,235.84L489.39,239.1L495.8,244.44L500.33,246.56L500.45,249.59L497.25,254.49L500.57,258.96L502.32,263.16L502.03,265.76L504.82,266.95L506.2,272.29L512.75,274.86L515.79,276.85L518.85,274.95L520.77,271.98L526.08,270.74L528.44,273.66L530.02,271.13L532.8,271.73ZM521.49,226.24L523.37,229.25L514.82,231.02L509.49,229.15L506.15,229.87L499.55,229.68L493.02,227.29L493.1,223.68L497.25,225.81L500.93,224.86L498.06,220.8L493.78,219.12L490.77,219.36L490.4,216.74L493.79,214.05L497.71,213.3L497.22,209.35L501.63,211.64L501.39,215.68L504.82,215.68L504.42,221.35L506.49,226.02L511.1,227.24L512.17,224.37L514.82,221.99L517.69,224.63ZM501.88,197.8L498.35,200.88L495.46,200.57L495.33,197.64L498.64,196.67L498.86,193.6L502.94,195.93Z" class="land" id="ER-DU" title="Debub"/>
    <path d="M361.65,92.78L362.25,101.39L361.1,130.32L359.86,135.25L360.22,138.37L363.61,142.71L364.05,146.42L362.86,153.08L366.46,157.16L381.81,159.93L386.17,167.94L387.84,173.5L392.66,178.66L395.84,186.64L394.32,192.98L394.27,200.42L396.46,204.64L399.76,206.89L406.09,209.17L415.19,210.32L417.06,212.25L422.99,222.27L425.28,230.83L417.23,232.53L413.67,232.15L406.77,232.99L394.43,232.62L390.77,231.01L388.92,227.37L384.87,222.69L379.45,219.93L375.99,220.42L370.8,222.81L367.88,222.53L361.3,218.08L355.22,215.66L349.56,215.05L343.85,211.74L340.09,211.24L330.43,211.9L327.12,208.2L322.75,206.62L320.3,203.97L316.99,197.85L310.24,192.69L300.48,189.99L298,188.85L294.39,183.64L293.03,180.1L291.6,172.84L288.39,170.56L285.44,166.7L285.03,164.1L286.65,155.07L290.63,151.56L292.28,147.33L292.66,136.92L291.14,134.6L292.78,132.23L291.51,127.65L293.33,125.72L302.32,129.68L309.02,129.1L314.17,126.94L320.48,128.73L324.28,124.16L327.05,117.08L327.45,108.37L341.84,103.76L344.77,98.44L347.13,97.17L352.06,99.98L354.99,98.59L357.1,95.86Z" class="land" id="ER-SK" title="Semienawi K’eyyĭḥ Baḥri"/>
    <path d="M288.39,170.56L291.6,172.84L293.03,180.1L294.39,183.64L298,188.85L300.48,189.99L310.24,192.69L316.99,197.85L320.3,203.97L322.75,206.62L327.12,208.2L330.43,211.9L340.09,211.24L343.85,211.74L349.56,215.05L355.22,215.66L361.3,218.08L367.88,222.53L370.8,222.81L375.99,220.42L379.45,219.93L384.87,222.69L388.92,227.37L390.77,231.01L394.43,232.62L406.77,232.99L413.67,232.15L413.8,260.19L409.29,259.67L398.57,262.61L392.55,263.06L389.34,264.46L383.38,271.99L379.36,273.89L377.51,275.9L375.03,282.49L375.61,286.11L377.72,290.82L377.24,295.27L376.13,293.38L368.44,293.29L361.13,290.26L358.58,287.34L353.37,279.45L346.23,296.69L331.37,332.55L328.69,331.71L328.1,328.11L325.33,326.79L323.79,322.55L320.09,319.69L319.84,316.32L316.01,311.01L313.09,308.86L305.71,309.4L301.45,311.4L299.88,314.28L299.43,318.82L298.19,320.83L293.67,322.36L289.72,319.48L283.08,317.87L276.32,317.57L264.03,320.3L261.38,322.34L256.6,281.57L254.45,263.27L255.1,260.52L261.28,253.74L264.69,243.58L268.22,239.93L267.46,233.92L271.12,220.52L277.09,212.5L285.6,188.15L289.52,183.38L290.03,180.1L288.46,175.78Z" class="land" id="ER-GB" title="Gash Barka"/>
    <path d="M377.24,295.27L377.72,290.82L375.61,286.11L375.03,282.49L377.51,275.9L379.36,273.89L383.38,271.99L389.34,264.46L392.55,263.06L398.57,262.61L409.29,259.67L413.8,260.19L447.23,260.18L450.06,258.77L453.59,265.53L476.79,305.77L473.74,306.29L468.47,305.08L466.3,302.81L462.77,301.17L461.05,304.19L452.77,307.08L446.16,306.84L443.78,310.04L442.1,310.05L438.75,301.71L436.66,298.78L433.16,296.32L428.82,295.6L426.7,301.22L422.52,303.41L419.04,306.33L409.5,308.72L405.73,308.14L401.56,310.31L393.9,311.58L389.44,311.65L387.25,308.38L382.58,305.57L380.18,299.79Z" class="land" id="ER-MA" title="Ma’ĭkel"/>
    <path d="M413.8,260.19L413.67,232.15L417.23,232.53L425.28,230.83L428.09,237.09L434.23,246.6L441.4,253.81L450.06,258.77L447.23,260.18Z" class="land" id="ER-AN" title="‘Anseba"/>
  </g>
</svg>