<?xml version="1.0" encoding="UTF-8"?>
<svg xmlns="http://www.w3.org/2000/svg" width="367.95" height="399.63" viewBox="296.02 57.19 367.95 399.63" style="background-color:#000000">
  <!-- Created using SVG Map Generator: dojo.amcharts.com/svg-map-generator -->
  <style>
    .land { fill: #ffffff; stroke: #000000; stroke-width: 0.65; }
  </style>
  <g id="polygons">
    <path d="M323.59,247.94L323.27,247.67L323.34,247.34L323.53,247.22L323.79,247.37ZM353.1,240.71L353.64,242.72L354.13,244.35L354.62,246.07L355.12,248.05L355.81,250.2L356.3,251.97L356.73,253.74L357.21,255.24L357.44,256.14L358.71,256.81L359.96,257.27L361.07,257.77L361.92,258.29L362.53,258.83L362.88,258.95L363.48,259.3L363.59,259.89L363.59,260.47L364.2,260.84L364.84,260.94L365.44,260.96L366.76,260.77L367.37,260.72L367.98,260.96L368.62,261.02L369.23,260.87L369.82,261.05L370.39,261.14L370.98,260.94L371.61,260.84L372.25,261.03L372.86,261.29L374.09,262.18L375.32,263.01L375.87,263.6L375.89,264.19L376.09,265.44L375.62,266.03L375.31,266.64L375.37,267.25L376.09,268.52L376.57,269.75L376.71,270.39L376.66,271.03L376.54,271.72L376.09,272.99L375.84,273.57L375.36,274.22L374.68,275.44L374.16,276.61L374.11,277.25L374.71,277.81L375.91,278.19L376.52,278.6L377.02,279.22L377.51,280.46L378.15,281.03L379.42,281.85L380.04,282.07L380.67,282.23L381.89,282.41L383.2,282.49L383.79,282.61L384.12,283.05L384.12,283.69L383.97,285.56L383.81,286.21L382.94,287.42L382.37,288.01L380.96,289.37L379.75,290.31L379.12,290.65L378.52,291.09L378.1,291.74L377.96,292.37L377.87,293.55L377.91,294.78L378.14,296.05L378.72,298.64L378.92,299.84L378.95,300.5L378.83,301.16L378.57,301.83L378.41,303.13L377.82,303.69L377.67,304.28L377.3,304.87L376.69,305.03L376.11,305.07L374.91,305L374.31,305.31L373.66,305.88L373.24,306.47L373.39,307.08L373.77,307.67L373.31,308.26L372.63,308.45L371.99,308.69L371.47,309.3L371.85,309.89L372.46,310.12L373.06,310.65L373.39,311.25L374.3,312.51L374.64,313.85L374.89,314.49L375.22,315.09L376.24,316.34L376.76,317.01L377.92,318.24L378.5,318.75L379.14,319.01L380.49,318.89L381.09,318.91L382.99,319.13L383.65,319.34L384.9,319.86L386.12,320.07L386.74,320.48L387.42,321.01L388.77,321.6L389.37,321.65L390.02,321.42L390.63,321.3L391.1,321.91L390.95,322.51L391.52,322.95L392.11,322.75L392.63,323.37L392.92,324.01L393.55,324.43L394.14,324.05L394.77,323.92L396.08,324.41L398.5,325.07L399.14,325.19L399.86,325.25L400.53,325.19L401.15,324.88L401.62,324.25L402.25,323.68L402.83,323.73L403.39,324.32L404.05,324.85L405.42,325.16L406.01,325.54L406.29,326.15L406.74,326.74L407.33,326.79L408.53,326.64L409.03,327.22L409.1,327.99L408.46,329.36L407.94,330.64L407.82,331.29L407.83,332.51L407.99,333.08L408.32,333.69L408.91,334.26L410.18,334.97L410.39,335.21L410.54,335.91L410.79,336.52L410.86,336.87L411.1,337.45L411.33,338.93L411.55,339.97L411.67,340.27L412.66,341.85L412.89,342.06L413.6,343.07L413.7,343.38L414.17,343.78L415.28,344.4L416.11,345.27L416.34,346.31L417.11,347.3L417.8,348.37L417.83,348.75L417.91,348.97L416.2,349.79L413.94,350.78L410.46,352.55L407.26,354.03L406.98,354.65L406.83,355.23L406.53,356.63L406.29,357.24L405.11,358.04L404.76,358.65L404.73,359.24L404.95,359.87L405.86,361.08L406.17,361.71L406.27,362.28L405.65,362.63L405.01,362.51L404.43,362.53L403.83,362.75L403.21,363.1L402.59,363.71L402.18,364.32L401.85,364.92L401.51,366.26L401.06,369.39L400.89,370.03L400.3,370.5L400.18,370.48L398.45,373.64L397.31,375.43L396.66,377.54L395.85,380.47L393.42,380.79L391.95,379.33L391.95,376.41L389.84,373.97L387.57,373.64L385.94,374.94L384.97,376.08L382.21,377.05L379.26,377.58L378.89,377.46L376.99,376L375.89,375.24L375.62,374.98L374.98,374.62L373.99,373.82L373.57,373.41L373.33,373.06L372.68,372.58L372.79,371.74L372.31,370.52L372.35,370.42L371.59,369.6L370.83,368.9L369.96,367.94L368.42,366.51L367.38,365.44L367,365.12L366.17,364.25L365.06,363.22L364.5,362.46L363.25,361.04L362.27,360.02L361.93,359.62L361.5,359.21L361.04,358.89L360.82,358.57L360.09,357.89L359.47,357.47L358.58,356.68L358.47,356.66L357.16,355.38L356.95,355.28L356.13,354.13L355.91,353.53L355.63,353.27L355.02,352L354.7,351.72L354.14,350.77L354.21,350.21L354.14,350.03L354.08,348.13L354.27,347.88L354.22,347.4L354.08,347.08L354.23,346.83L354.12,346.41L354.17,346.05L353.98,345.06L353.51,344.24L352.2,342.42L351.6,341.65L351.08,341.16L350.72,340.67L348.83,338.68L348.65,338.43L347.88,337.83L347.45,337.41L346.1,335.99L345.71,335.63L345.37,335.08L344.76,334.52L342.65,332.48L342.4,332.13L341.09,330.52L340.44,329.62L339.62,328.63L338.98,327.66L337.88,326.55L337.59,326.04L337.43,326L336.7,325.39L336.46,324.97L336.17,324.77L335.54,324.06L335.12,323.3L334.9,322.69L334.52,322.09L334.5,321.73L334.08,321.29L334.17,321.11L333.99,320.77L334,320.21L333.87,319.95L333.85,318.74L333.64,318.14L333.59,317.41L333.74,317.09L333.66,316.81L334.05,316.7L334.37,315.91L334.33,315.44L334.14,314.55L333.87,313.91L333.46,313.15L333.31,312.58L333.31,312.1L333.02,311.19L332.99,310.83L332.8,310.1L332.95,309.77L333.03,309.32L332.94,308.92L332.59,308.39L332.29,307.36L331.87,306.79L331.67,306.42L331.66,306.03L331.17,305.33L331.09,305.03L330.78,304.61L330.57,304.06L330.04,303.23L329.83,302.74L329.46,302.21L329.13,301.9L328.09,300.53L327.93,300.23L327.25,299.53L326.93,299.03L326.45,298.5L326.1,297.95L325.86,297.71L324.66,296.34L324.36,296.04L323.69,295.04L322.3,293.24L322.05,292.95L321.58,292.24L321.01,291.55L319.78,290.18L318.65,288.72L318.4,288.2L318.41,287.99L318.21,287.31L317.49,286.34L317.38,286.35L316.88,285.11L316.63,284.57L316.4,283.71L316.59,283.81L316.78,284.54L317.22,285.41L317.25,285.67L317.57,286.06L318.02,286.94L318.28,287.26L318.31,287.62L318.7,287.49L318.78,286.96L318.63,286.61L318.53,286.02L318.58,285.66L318.75,285.31L318.7,284.94L318.39,284.63L318.51,284.29L318.82,284.22L319.32,283.81L319.6,283.86L319.86,283.45L319.86,283.07L319.63,282.77L319.58,282.24L319.41,281.75L319.45,281.54L319.04,280.51L318.54,280.27L317.89,280.29L317.72,279.81L317.46,279.73L317.4,280.09L317.8,280.43L318.56,280.57L318.7,280.72L318.56,281.19L318.18,281.69L318.14,282.13L317.91,282.41L317.85,282.81L317.68,282.96L317.62,283.29L317.8,283.63L317.31,283.73L317.17,283.42L317.18,282.47L317.11,282.14L317.13,281.2L316.7,280.65L316.66,280.11L316.3,279.04L315.48,277.51L314.42,275.85L313.34,274.3L312.41,272.86L311.28,271.31L310.6,270.25L310.22,269.89L309.65,269.18L308.93,268.44L308.46,267.88L307.83,266.91L307.99,266.92L308.69,267.99L309.25,268.6L309.94,269.2L310.36,269.85L310.82,270.09L311.17,270.36L311.97,270.37L312.32,270.21L313.47,269.82L314.08,269.5L314.44,269.4L314.83,269.49L315.27,269.86L315.8,270L316.08,270.41L316.03,270.64L315.6,271.14L315.59,271.68L315.75,272.08L315.97,272.2L316.41,272.18L316.65,272.39L316.8,272.81L317.03,272.94L318.23,272.87L318.86,272.72L319.16,272.72L320.2,273.21L320.47,273.07L320.6,272.74L321.04,271.96L321.25,271L321.7,271.02L321.91,270.77L321.5,270.42L320.75,270.09L321.07,269.47L321.36,269.32L322.14,269.37L322.61,269.02L322.63,268.84L321.77,268.3L321.7,267.65L321.51,267.22L320.86,267.1L320.65,266.8L320.35,266L320.36,265.44L320.21,265.27L319.67,265.09L319.21,264.57L318.8,263.97L318.47,263.26L318.25,262.92L318.16,262.49L318.15,261.22L318.35,260.46L318.81,259.97L318.78,258.82L319.13,257.75L318.99,257.08L318.97,256.09L319.65,255.16L320.03,254.47L320.5,253.99L320.8,253.86L321.05,253.42L320.9,253.17L320.12,252.58L319.99,252.14L320.25,251.73L320.39,250.93L320.9,250.17L321.16,249.95L321.86,249.1L322.11,248.69L322.5,248.56L323.41,249.17L323.78,249.17L324.28,248.67L324.53,248.33L324.78,248.39L324.96,248.07L324.87,247.74L324.51,247.14L324.44,246.68L324.05,246.21L323.98,245.22L324.24,244.95L324.02,244.76L324.07,244.49L324.31,244.2L324.96,244.01L325.46,243.71L325.72,243.2L326.08,243.03L326.51,242.54L326.55,242.16L327.01,241.32L327.31,240.96L327.39,240.07L327.74,239.72L328.26,239.77L329.06,239.12L329.74,238.36L330.23,237.59L330.24,237.34L330.48,236.81L331.12,236.01L331.34,235.93L332.23,235.21L333.08,234.16L333.77,232.92L334.44,231.5L334.74,231.23L335.34,230.09L335.84,228.73L336.1,227.43L336.33,225.81L336.42,224.33L336.32,222.4L336.96,222.78L337.31,223.26L337.58,223.95L337.88,224.28L337.88,224.89L338.02,225.51L338.51,226.71L338.73,228.01L338.97,228.62L339.37,229.24L340.07,229.77L340.72,230.32L341.25,230.93L341.59,231.59L342.01,232.19L342.72,233.52L343.12,234.13L343.71,234.53L344.39,234.69L345.55,234.63L346.14,234.73L346.74,235.06L347.36,235.55L348.22,235.84L349.56,236.16L350.17,236.8L350.85,238.01L351.47,238.62L351.89,239.23L352.23,239.84L352.7,240.46ZM299.79,243.91L299.39,244.2L299.4,244.59L299.54,244.81L299.95,245.08L299.92,245.23L300.89,245.16L301.4,245.52L302.02,245.63L302.07,246.32L301.89,246.69L302.26,246.91L302.85,246.81L303.57,247L303.68,247.16L303.47,247.44L303.43,247.92L303.62,248.37L303.9,248.74L304.14,249.39L304.58,249.58L304.43,249.81L304.67,249.94L304.79,250.41L304.59,250.55L304.56,251.83L305.07,252.25L305.1,252.47L304.83,253.21L304.86,253.62L305.01,253.92L305.4,254.27L305.9,254.57L306.56,255.12L306.89,255.21L307.46,255.63L307.75,256.2L307.86,256.79L308.21,257.35L308.45,257.52L309.02,257.44L309.48,257.1L309.76,257.1L310.21,257.44L310.1,257L309.52,256.97L309.1,257.06L308.63,257.06L308.4,256.96L308.26,256.49L308.38,256.22L308.3,255.65L308.49,255.05L308.81,254.69L308.83,254.08L308.71,253.54L308.98,252.99L309.12,252.09L309.37,251.76L309.62,251.82L310,252.11L311.6,252.26L311.63,252.88L311.91,252.72L312.23,252.76L312.32,252.97L312.17,253.2L311.66,253.62L311.6,253.97L311.82,254.38L312.36,254.89L312.37,255.12L312.98,255.19L313.71,255.72L314.03,256.51L314.1,256.84L314.01,257.25L314.35,258.3L314.44,258.43L314.67,260.12L315.06,260.79L315.19,261.34L315.43,261.65L315.52,262.15L315.82,262.75L315.88,263.24L315.76,264.43L315.37,265.33L314.99,265.81L314.25,266.27L313.77,266.47L313.7,266.69L313.37,266.72L313.39,266.38L313.16,266.38L312.9,266.76L312.38,267.27L312.01,267.5L311.37,268.25L310.87,268.46L310.52,268.44L310.12,268.17L309.73,267.52L309.08,266.86L308.83,265.9L308.85,265.65L308.43,264.24L308,263.54L307.8,263.33L307.08,262.34L306.28,261.17L306.18,261.1L304.93,259.19L304.6,258.59L303.96,256.88L303.54,255.39L302.69,253.33L301.52,251.11L300.58,249.73L300.26,249.44L299.64,248.61L299.27,247.95L298.89,246.91L298.73,246.24L298.67,245.44L298.72,244.66L298.87,244.03L299.22,243.81L299.3,243.37L299.8,243.49ZM318.13,244.77L318.35,245.52L318.65,245.37L318.9,245.55L319.53,245.8L319.61,246.06L319.54,246.57L319.36,246.72L318.98,246.77L318.5,247L318.65,247.55L318.93,247.79L319.13,248.19L319.36,248.43L319.26,248.63L318.73,248.55L318.58,248.69L318.7,249.02L318.53,249.36L318.28,249.16L318.01,249.27L318.11,249.64L317.81,249.84L317.5,250.52L317.31,250.72L317,250.51L316.64,250.09L316.13,249.91L315.97,250.12L315.88,250.74L315.73,251.06L315.53,251.15L315.17,251L314.63,250.39L314.18,249.5L314.11,248.16L314.23,247.86L314.06,247.66L314.04,247.34L314.2,247.02L314.71,246.82L314.83,246.27L315.45,245.63L316.16,245.42L316.6,245.44L316.9,245.3L317.13,245.04L317.72,244.8L318.16,244.36ZM320.47,246.91L320.61,247.12L320.63,247.54L320.89,247.7L321.16,248.12L321.45,248.4L321.35,248.87L321.06,249.19L320.63,250.01L320.11,250.57L320.02,251.2L320.05,251.7L319.83,252.12L319.98,252.61L320.17,252.91L320.9,253.32L320.76,253.67L319.98,254.29L319.6,255.1L318.93,256.02L318.53,255.69L318.21,255.69L317.46,255.31L316.81,255.13L316.43,255.25L315.83,254.78L315.58,254.5L315.7,254.24L315.34,253.66L315.11,252.94L314.87,252.03L314.99,251.39L315.7,251.27L315.93,251.12L316.1,250.69L316.11,250.36L316.53,250.37L316.61,250.94L316.44,251.62L316.42,252.06L316.57,252.56L317.1,253.2L317.34,253.95L317.82,254.24L317.33,253.47L317.29,253.16L316.73,252.31L316.67,251.8L316.9,250.95L317.12,250.76L317.43,250.75L317.66,250.37L317.72,250.11L318.24,249.66L318.11,249.24L318.33,249.23L318.61,249.58L318.62,249.34L318.85,249.02L318.81,248.61L319.44,248.7L319.44,248.4L319,247.7L318.68,247.41L318.72,247.09L318.91,246.91L319.51,246.87L319.76,246.41L320.06,246.33ZM322.48,248.2L322.26,248.16L322.16,247.17L322.37,247.01L322.93,247.34L323,247.67L322.84,248.03ZM312.28,249.72L312.62,249.67L312.93,250.36L313.26,249.87L313.8,250.76L313.81,251.38L313.58,251.51L313.8,252.12L314.19,252.86L314.36,253.75L314.8,254.28L315.59,254.92L316.36,255.33L316.83,255.32L317.35,255.49L317.72,255.51L318.68,255.99L318.83,256.2L318.98,257.38L318.9,258.15L318.7,258.85L318.73,259.95L318.2,260.57L318.06,261.16L318.05,262.05L317.98,262.3L317.5,262.62L316.74,262.87L315.87,262.65L315.58,262.16L315.51,261.62L315.24,261.25L315,260.52L314.71,260.07L314.64,258.86L314.46,258.17L314.26,257.86L314.11,257.34L314.17,256.9L314.08,256.22L313.94,255.82L313.35,255.21L312.7,254.94L312.38,254.73L311.92,254.19L311.83,253.72L312.15,253.59L312.47,253.28L312.57,252.99L312.48,252.59L311.77,251.81L311.25,251.33L310.64,251.07L310.47,250.87L310.48,250.19L310.82,249.69L311.32,249.85L311.87,249.66ZM315.24,254.17L314.7,253.8L314.73,253.04L314.94,253.03L315.16,253.53ZM318.03,262.43L318.11,262.92L318.69,264.01L319.48,265.03L319.77,265.23L320.21,265.34L320.31,265.54L320.3,266.05L320.65,266.9L320.84,267.15L321.49,267.36L321.61,267.79L321.63,268.3L322.47,269.04L322.18,269.24L321.52,269.2L321.09,269.29L320.76,269.86L320.39,270.07L320.14,270.05L319.32,269.65L318.65,269.39L317.9,268.76L317.16,268.53L316.65,267.93L316.15,267.59L315.88,267.27L314.57,266.54L314.5,266.29L315.17,265.81L315.53,265.42L315.53,264.98L315.8,264.5L315.87,263.55L315.95,263.25L315.92,262.75L316.73,262.94L317.23,262.73L317.5,262.7L317.93,262.39ZM316.8,268.94L316.93,269.23L316.9,269.65L316.57,269.85L315.28,269.4L314.53,269.28L313.97,269.33L313.51,269.6L312.89,269.74L311.97,270.19L311.43,269.85L311.12,269.83L310.63,269.64L310.65,269L311.08,268.9L311.75,268.87L312.01,268.77L312.24,268.37L312.57,267.34L313,266.97L313.5,266.79L314.06,266.72L314.55,266.77L314.91,266.92L315.66,267.52L316.3,267.9L316.91,268.62ZM311.57,268.78L311.43,268.48L312.13,268.18L312.15,268.45L311.96,268.68ZM318.45,269.77L319.24,270.26L319.64,270.35L320.43,270.23L321.33,270.55L321.63,270.91L321.13,270.96L321.1,271.49L320.93,272L320.75,272.24L320.43,272.97L320.11,273.13L319.35,272.69L318.69,272.66L317.79,272.84L317.1,272.85L316.82,272.67L316.73,272.36L316.48,272.14L316.05,272.14L315.82,272.04L315.62,271.53L315.63,271.25L316.15,270.65L316.14,270.32L315.91,269.99L315.24,269.75L315.18,269.42L316.55,269.89L316.95,269.67L316.98,269.21L316.92,268.73L317.62,268.95L317.96,269.24ZM319.17,283.68L318.83,283.16L319.07,283.02L319.15,282.74L319.06,282.43L319.21,282.24L319.5,282.99L319.31,283.56ZM319.05,283.71L318.85,283.97L318.38,283.96L318.15,283.67L317.98,283.26L317.96,282.88L318.09,282.72L318.49,282.92L318.75,283.41ZM318.09,283.97L318.24,284.64L318.53,285.02L318.3,285.56L318.03,285.66L317.78,285.52L317.25,284.52L317.02,284.01L317.64,284.02L317.88,283.78Z" class="land" id="GA-8" title="Ogooué-Maritime"/>
    <path d="M578.44,127.68L577.38,128.16L575.71,128.18L574.05,128.13L571.82,128.02L569.86,127.95L568.18,127.98L566.94,127.93L564.68,127.88L563.66,127.78L561.22,127.82L556.27,127.62L553.94,127.62L551.96,127.57L550.14,127.45L545.8,127.43L541.41,127.2L535.87,127.1L533.61,127.07L527.99,126.86L527.1,126.88L527.14,127.52L527.09,128.32L526.87,128.96L526.69,129.22L526.24,129.64L525.89,130.12L525.75,130.85L525.75,131.29L525.47,131.88L524.6,132.71L524.29,133.25L523.5,135.04L523.32,135.28L522.45,136.17L522.12,136.7L521.9,137.35L521.25,138.84L520.89,139.34L520.4,140.14L520,140.59L519.66,141.1L519.22,141.51L518.88,142.04L518.6,143.04L518.57,144.32L518.6,145.14L518.75,146.25L518.77,147.05L518.44,148.04L518.5,148.34L518.86,148.74L518.67,149.52L518.6,150.02L518.35,151.15L517.94,151.51L517.07,152.12L516.22,152.78L514.26,154.07L513.15,154.76L509.71,157.09L508.46,157.87L507.35,158.61L506.19,159.48L505.18,160.14L503.08,161.62L502.09,162.22L500.86,163.07L499.47,164L496.92,165.77L495.48,166.65L494.19,167.5L493.2,168.2L491.87,169.07L490.7,169.9L489.14,170.95L484.61,173.94L482.97,175.09L481.59,176.08L479.8,177.33L478.45,178.18L477.28,179.01L475.92,179.88L474.82,180.66L471.87,182.71L472.55,183.56L474.14,185.19L474.94,185.95L475.86,186.94L476.75,187.84L477.73,188.76L478.42,189.65L478.9,190.19L475.07,190.24L473.29,190.31L468.87,190.33L467.1,190.31L462.84,190.34L460.95,190.31L459.22,190.33L457.22,190.31L455.36,190.33L452.88,190.28L451.26,190.28L449.32,190.19L447.05,190.26L445.48,190.36L444.08,190.36L442.62,190.28L441.46,190.33L440.03,190.33L438.7,190.36L437.1,190.33L435.3,190.33L433.83,190.41L432.33,190.36L431.32,190.29L430.37,190.14L430.7,189.96L431.01,189.41L431.41,188.96L431.91,188.63L432.1,188.37L432.38,187.36L432.52,187.04L432.54,186.28L432.29,185.68L431.67,185.03L431.37,184.46L431.35,184.08L431.65,183.53L432.64,182.83L433,182.33L433.23,181.68L433.25,180.83L433.32,180.01L433.68,179.08L434.05,177.73L434.15,176.96L434.53,175.61L434.76,174.96L435.05,174.43L435.61,173.66L435.85,173.06L436.06,171.97L436.46,171.5L436.93,171.13L437.35,170.25L437.67,168.84L437.71,168.45L437.9,167.78L438.21,167.22L438.67,166.81L439.39,166.27L439.7,165.72L439.88,164.23L440.19,163.68L440.42,163L440.45,162.62L440.59,162.33L440.75,161.6L440.82,160.37L440.71,159.2L440.71,158.77L440.82,158.02L440.95,157.73L440.95,157.29L440.35,154.54L440.1,153.51L439.79,153.07L437.85,153.61L436.33,154.19L434.41,154.86L432.15,155.61L430.1,156.35L428.14,157.02L426.37,157.66L424.55,158.27L422.83,158.92L419.39,160.14L415.86,161.42L413.49,162.13L411.36,162.9L409.76,163.42L408.09,164.08L406.2,164.74L405.42,164.95L405.21,164.93L405.02,164.58L404.85,164L404.43,162.2L404.19,161.63L403.83,161.03L402.83,159.86L402.49,159.25L402.45,158.63L403.36,155.4L403.56,154.79L404.73,153.63L405.32,152.97L405.7,152.36L405.82,151.7L405.87,150.49L405.86,149.07L405.91,145.63L405.89,143.87L405.91,142.22L407.05,142.22L407.65,142.29L407.89,142.19L416.89,142.21L424.73,142.24L429.27,142.25L429.95,142.19L432.17,142.26L441.61,142.19L443.45,142.23L443.79,142.31L445.49,142.22L448.96,142.24L450.03,142.12L450.27,142.25L452.03,142.13L452.43,142.24L453.25,142.24L453.53,142.32L455.13,142.23L462.26,142.27L463.39,142.13L463.41,137.17L463.3,132.57L463.37,124.76L463.31,123.14L463.35,119.12L463.41,118.27L463.55,118.27L463.53,111.5L463.34,111.43L463.31,108.84L463.38,107.56L463.39,102.17L463.32,99.37L463.39,98.77L463.32,95.49L463.47,95.49L463.44,90.38L463.32,90.39L463.37,89.72L463.28,88.65L463.44,86.38L463.27,80.6L463.37,80.23L463.28,79.87L463.35,72.73L463.43,72.1L463.24,69.74L463.36,68.79L464.1,68.62L464.54,68.86L464.96,68.68L464.75,68.2L464.82,67.59L465.2,67.27L465.15,66.96L464.9,66.72L465.16,66.37L464.91,66.07L465.29,65.83L465.15,65.66L464.66,65.46L465.08,65.16L465.22,64.36L465.6,64.83L466.13,64.56L466.35,64.25L466.07,63.79L466.05,63.61L466.47,63.16L466.07,62.91L466.37,62.67L466.39,62.29L466.18,62.01L466.2,61.8L465.77,61.75L465.31,61.58L465.59,61.26L465.99,61.01L466.46,60.96L466.74,61.12L467.22,60.77L467.41,60.99L468.37,61.34L468.72,61.38L469.3,61.3L469.77,60.94L469.96,60.93L470.24,61.18L470.29,61.44L470.9,61.44L471.42,60.84L472.19,60.79L472.82,61.28L473.08,61.24L473.83,60.81L474.17,60.77L474.53,60.93L474.88,60.92L475.17,60.74L475.42,61.01L475.82,61.16L476.2,60.97L476.75,61.16L477.09,61L477.32,60.64L478.08,60.39L478.88,60.37L479.2,60.51L479.54,60.52L480,60.71L480.47,61.19L480.74,61.22L481.88,60.61L482.23,60.77L483.03,60.64L483.42,60L484.03,59.89L484.15,60.04L484.95,59.91L486.28,59.84L486.58,60.63L486.91,60.86L487.68,60.86L488.16,61.38L488.76,61.27L489.1,61.14L488.86,61.67L489.08,62.23L489.35,62.65L489.72,62.82L490.14,62.82L490.37,62.64L491.49,62.79L491.68,62.71L491.69,62.36L492.05,62.58L492.19,62.41L492.5,62.49L492.83,62.34L492.96,62.48L493.64,62.39L493.96,62.61L494.09,62.46L494.01,62.08L494.27,61.93L494.7,62.13L495.08,62.55L495.49,62.24L495.79,62.36L495.92,62.63L496.44,62.73L496.73,62.66L496.77,62.06L497.48,62.04L497.58,62.22L498.03,62.26L498.39,61.92L498.83,62.14L499.69,62.16L500.14,61.66L500.54,62.04L500.85,62.18L501.34,62.04L501.87,61.72L502.02,61.85L502.64,61.88L502.96,61.66L503.3,61.81L503.75,61.61L504.09,61.9L504.64,61.98L505.04,61.78L505.41,62.01L505.94,61.56L506.18,61.72L506.66,61.73L507.31,62.01L507.96,62.03L508.22,61.83L509.39,61.84L510.1,62.2L510.6,62.12L510.75,62.24L511.84,62.23L512.01,61.84L512.67,61.51L512.98,61.91L513.71,62.21L514.01,62.47L514.56,62.63L515.24,62.26L515.49,61.98L515.78,62.11L516.4,62.24L517.06,62.2L517.43,62.31L517.77,62.16L518.23,62.34L518.58,62.88L518.69,63.25L519,63.53L519.52,63.65L519.8,63.91L520.32,64.04L520.46,63.88L520.81,63.86L521.2,63.41L521.45,63.63L521.83,63.58L522.65,63.26L522.9,62.98L523.13,62.32L524.15,61.93L525.31,62.11L528.62,62.98L530.05,63.2L533.06,63.71L533.55,63.75L534.51,63.72L535.74,63.18L536.94,63.29L537.35,63.53L537.84,63.69L538.34,63.71L539.54,63.52L540.78,62.81L541.29,62.98L541.52,63.55L541.88,63.75L542.61,63.73L543.06,63.56L543.17,63.95L543.53,63.95L543.84,64.36L544.62,64.43L544.89,64.61L545.4,64.5L545.71,64.69L545.89,64.53L546.48,64.59L546.94,64.51L547.07,64.38L547.66,64.42L548.15,64.58L548.76,65.02L549.4,65.4L549.64,65.29L550.27,65.21L550.77,65.28L550.99,65.58L551.41,65.82L552.2,65.36L552.32,65.47L552.75,65.25L553.12,65.31L553.62,65.23L553.88,64.93L554.2,64.92L554.4,64.66L554.67,64.64L554.62,64.32L554.75,63.97L555.24,64.23L555.61,64.26L556.15,63.76L556.47,63.73L556.38,64.39L556.59,64.57L557.72,64.64L557.94,64.95L558.27,65.06L558.7,65.38L559.2,65.18L559.59,65.13L559.82,64.29L560.2,64.45L560.39,64.78L561,64.9L561.44,64.68L562.44,64.3L562.22,63.86L562.67,63.88L563.2,63.75L563.35,63.82L563.77,64.32L564.1,64.28L564.72,64.39L565.27,64.35L565.5,64.5L565.92,64.23L566.66,64.21L566.9,64.01L567.75,64.25L568.38,64.16L568.71,64.24L569.14,64.48L569.55,64.56L569.71,64.95L570.13,64.8L570.6,64.82L571.29,64.62L571.53,64.31L571.74,64.31L572.09,64.06L572.17,64.3L572.93,64.77L573.66,64.26L573.8,63.89L574.27,63.79L574.63,64.01L574.8,63.86L574.68,63.44L574.86,63.04L574.75,62.86L575.2,62.75L576.23,62.29L576.8,62.1L577.18,62.14L577.46,61.98L578.16,62.17L578.58,62.39L578.98,62.16L579.08,62.77L579.31,62.82L579.42,63.26L580.06,63.2L580.38,63.51L580.75,63.31L581.23,63.61L581.48,63.44L581.9,63.36L582.14,62.99L582.56,62.91L582.97,62.64L583.26,62.85L583.41,63.13L583.64,63.18L583.85,63.46L583.66,63.77L584.11,64.09L584.43,64.63L584.66,64.55L585.19,64.05L585.23,64.54L585.38,65.01L585.69,65.42L585.89,65.47L585.83,65.93L585.9,66.11L586.39,66.58L586.14,66.65L585.63,67.28L585.26,67.45L585.19,67.99L585.63,68.03L585.94,68.22L586.04,68.46L585.77,68.86L586.13,68.88L586.08,69.45L585.68,69.63L586.13,70.64L586.02,70.87L585.69,70.88L585.4,71.24L585.84,71.51L585.88,71.71L585.63,72.18L585.8,72.81L586.09,72.81L586.06,73.27L586.16,73.44L585.94,73.7L585.79,74.31L585.9,74.88L585.79,75.31L585.84,75.74L585.57,76L585.56,76.43L585.14,76.16L585.01,76.38L585.48,76.86L585.36,77.12L584.81,77.38L584.56,78.01L584.26,77.97L583.88,78.11L583.33,78.02L583.13,78.35L582.84,78.3L582.28,78.88L582.44,79.12L582.19,79.26L582.14,79.68L581.79,79.8L581.49,80.12L581.11,80.34L581.05,80.64L580.55,80.71L580.39,81.13L580.49,81.73L580.99,82.71L580.98,82.92L580.41,83.4L580.21,83.44L580.02,83.71L579.56,83.83L579.38,84.02L579.18,84.46L578.88,84.91L578.99,85.17L578.23,85.77L577.92,85.66L577.56,85.74L577.33,86.24L577.49,86.66L577.29,86.96L577.42,87.35L577.65,87.52L578.18,87.74L578.12,88.24L578.24,88.43L579.14,88.46L579.44,88.71L579.56,89L579.54,89.9L579.69,90.21L579.34,90.63L579.46,91.01L579.66,91.05L579.76,91.33L580.03,91.65L579.86,92.31L579.68,92.62L579.22,92.8L579.09,92.5L578.8,92.63L578.84,93.12L578.64,93.73L578.84,94L578.79,94.45L578.84,94.77L578.39,95.14L578.16,95.47L577.39,95.72L577.23,96.27L577.37,96.72L576.99,96.99L576.51,97.8L576.01,98.22L576.11,98.5L575.97,98.84L576.18,99.32L576.16,99.77L576.38,100.04L576.2,100.62L576.34,100.95L576.2,101.27L576.53,102.04L576.84,102.01L576.87,102.4L576.58,102.62L576.88,103.03L576.77,103.49L576.51,103.59L576.4,103.92L576.54,104.15L576.33,104.69L576.57,105.06L575.98,105.23L575.71,105.14L575.63,105.4L575.77,105.63L576.08,105.73L576.24,105.99L576.27,106.45L576.14,107.14L576.48,107.08L576.53,107.38L576.71,107.64L577.1,107.73L576.95,108.12L577.4,108.94L577.68,109.24L578.61,108.59L578.94,109.11L579.33,109.33L579.42,109.87L579.84,110.08L579.65,110.28L579.49,110.93L579.84,110.81L579.85,111.14L579.56,111.48L579.95,111.63L580.32,111.45L580.45,112.01L580.81,111.96L581.06,112.13L581.24,112.46L580.96,112.98L581.36,113.21L581.26,113.55L581.41,113.87L581.29,114.34L581.61,114.63L581.75,114.37L582.08,114.69L582.38,115.35L582.23,115.71L582.29,115.92L582.56,116.1L582.68,116.38L583.01,116.38L583.23,116.74L583.02,117.3L583.03,117.6L583.46,117.56L583.52,117.78L582.84,119.12L582.9,119.3L583.32,119.66L583.33,119.8L582.74,120.28L582.79,120.82L583.09,121.04L583.54,120.72L583.8,120.71L583.94,121.05L583.53,122.33L582.44,123.02L581.9,123.1L581.76,123.31L581.8,123.95L581.44,124.27L581.21,124.25L580.81,123.88L579.8,124.15L579.5,123.72L579.24,123.81L579,124.15L578.88,124.58L578.94,125.08L578.89,125.33L578.59,125.57L578.51,125.85L578.73,126.39L578.41,126.65L578.14,126.38L577.95,126.42L577.21,127.11L577.21,127.44L577.93,127.51Z" class="land" id="GA-9" title="Wouleu-Ntem"/>
    <path d="M551.76,321.61L551.41,321.39L550.78,321.13L550.08,321.11L547.79,321.73L547.68,321.88L545.58,322.21L544.08,322.03L543.35,321.8L541.88,321.11L540.69,320.73L540.06,320.78L539.72,321.21L539.35,322.4L538.93,323.12L538.39,323.39L537.49,323.42L535.26,322.61L534.42,321.73L533.83,321.46L533.33,321.46L533.21,320.92L532.61,320.7L531.98,320.64L530.71,320.64L528.82,320.87L527.56,321.06L526.34,321.1L525.11,320.63L524.38,320.43L522.43,319.65L520.58,319.06L519.95,318.89L518.62,318.38L518.03,318.11L517.4,317.62L515.96,316.35L515.39,315.74L514.15,314.82L513.53,314.23L512.97,313.62L511.85,311.87L510.98,310.64L510.58,310L509.24,308.15L508.64,307.65L508.01,307.5L507.39,307.43L506.78,307.43L506.48,306.96L505.87,305.45L505.81,304.67L506,303.57L506.36,303.05L506.83,302.68L507.23,302.2L507.54,301.66L507.77,301.02L507.89,299.47L507.72,297.55L507.59,296.81L507.35,296.19L506.74,294.21L506.59,293.53L506.66,292.28L506.62,291.9L506.38,291.31L505.82,290.51L505.72,290.2L504.89,288.9L504.45,288.46L503.71,287.89L502.18,286.92L501,286.38L500.65,286.29L499.75,285.89L499,285.36L497.94,284.26L497.7,284.07L496.99,283.34L495.76,282.41L494.94,281.92L493.93,281.22L493.29,280.56L493.13,280.31L492.34,279.38L491.85,278.6L491.63,278.37L490.96,277.34L490.76,277.12L490.25,276.34L489.76,275.13L489.61,274.46L489.66,272.3L489.7,271.92L489.91,271.22L489.6,270.94L488.95,270.82L487.75,271.38L486.54,272.12L485.88,272.45L484.7,273.3L484.07,273.86L483.42,274.26L482.2,274.35L481.59,274.47L480.98,274.77L480.34,275.16L479.72,275.47L479.06,275.36L478.47,275.02L477.84,274.89L477.18,274.94L476.59,274.61L476.87,274.02L476.88,273.43L476.26,272.94L477.01,271.72L477.2,271.07L477.15,270.44L476.48,268.01L476.28,267.37L475.79,266.74L475.22,266.29L474.63,265.7L474.32,265.09L473.94,263.86L473.92,263.27L474.11,262.68L473.94,262L473.54,261.4L473.5,260.79L473.64,259.52L473.85,258.29L473.94,257.04L474.09,256.36L474.32,255.72L474.79,255.13L475.41,254.56L476.09,254.07L476.59,253.5L476.95,252.91L477.62,251.67L480.2,250.76L481.88,250.18L485.98,248.74L487.42,248.1L489.7,247.35L490.62,246.96L493.08,246.12L497.09,244.68L498.46,244.21L499.82,243.64L501.32,243.1L502.87,242.61L504.45,242.07L505.77,241.52L506.97,241.12L508.48,240.56L511.36,239.38L512.72,238.99L515.49,237.99L519.1,236.63L520.77,236.03L522.87,235.25L525.18,234.42L526.45,234L528.7,233.13L531.71,232.03L533.04,231.64L533.32,230.91L533.82,228.46L534.31,226.38L534.76,224.28L536.36,217.41L536.86,215.13L537.47,212.28L538.66,207.22L539.21,204.82L540.07,200.54L540.53,198.45L540.94,196.35L541.49,194.01L541.78,192.5L542.4,190.31L542.64,188.4L543.01,186.79L543.27,186.98L544.15,188.19L544.74,188.73L545.35,189.15L545.94,189.27L546.55,189.13L547.19,188.59L547.83,188.21L548.47,188.09L549.13,188.07L549.77,187.78L550.33,187.2L550.71,186.58L551.32,186.28L552.02,187.53L552.59,188.09L553.21,188.31L553.79,188.98L553.82,189.6L554.32,190.21L555.49,190.88L556.09,190.48L556.7,189.93L557.94,190.4L559.17,190.74L560.4,191.21L561,191.34L561.62,191.08L562.85,190.05L563.4,189.39L563.42,188.76L564.05,188.29L564.55,188.89L564.81,189.49L566.08,190.1L566.72,190.61L568,191.01L568.59,191.04L569.28,190.92L570.53,190.47L571.13,190.74L571.37,191.32L571.77,191.93L573.05,192.34L573.38,192.98L573.12,194.27L573.76,195.47L574.27,197.43L574.63,198.64L575.06,199.25L576.35,199.54L576.93,200L577.55,200.12L578.16,200.72L578.85,201.09L579.49,201.25L580.1,201.28L580.69,201.01L581.37,200.76L581.98,201.19L582.58,201.73L583.19,202.08L583.8,202.12L584.96,202.04L585.15,202.79L585.26,205.31L584.08,206.35L583.52,207.57L583.05,208.15L583.03,208.82L582.48,209.44L582.29,210.03L581.7,210.45L581.09,210.79L580.84,211.4L581.49,211.75L582.11,211.96L582.41,212.57L582.48,213.21L582.81,214.47L582.95,215.15L582.95,216.42L583.14,217.67L583.34,218.28L583.94,218.55L584.54,218.62L585.76,218.83L586.4,219.07L586.71,219.68L587.06,220.95L587.44,221.54L587.96,222.13L588.66,223.05L590.88,227.66L592.41,230.6L593.62,233.03L595.15,236.05L598.6,243.08L600.25,246.43L601.82,249.66L602.89,251.74L601.75,253.48L600.5,255.27L598.65,258.01L596.94,260.63L594.54,264.22L593.16,266L591.78,267.68L590.08,269.55L588.42,271.55L586.89,273.34L585.48,275.08L583.8,277.21L582.56,276.57L582.22,276.49L581.18,275.81L580.14,275.55L579.09,274.84L578.87,274.61L578.05,274.12L577.4,273.97L577.24,274.02L577.29,274.66L577.45,275.31L577.72,275.91L577.88,276.52L577.91,277.09L578.03,277.72L578.24,278.34L578.49,279.51L578.52,280.11L578.29,281.99L578.28,283.21L578.03,283.81L577.45,284.11L576.13,284.44L575.52,284.66L574.91,285.02L574.67,285.62L574.7,286.24L574.6,286.97L574.21,287.56L572.95,287.82L572.31,288.15L571.8,288.77L571.47,289.37L571.06,289.94L569.84,291.21L569.2,291.61L568.59,291.78L568,291.74L567.41,291.57L566.82,291.47L565.61,292.48L565,292.41L564.41,292.16L563.97,292.75L564.06,293.95L564.01,294.61L563.63,295.25L562.36,295.63L561.25,296.99L560.94,297.6L560.97,298.19L561.11,298.8L561.13,299.4L560.82,300.56L560.31,301.16L559.72,301.31L559.41,301.92L559.6,302.51L559.36,303.08L558.11,303.82L557.64,304.53L557.5,305.1L557.5,305.69L557.36,306.3L556.93,306.94L556.39,307.55L555.9,308.19L555.61,308.8L555.38,309.42L555.22,310.14L555.1,311.34L554.59,311.99L554.24,312.67L553.85,313.28L553.3,313.97L553.14,314.6L553.65,315.81L553.85,316.42L553.27,316.91L552.65,317.53L552.54,318.71L552.36,319.95L552.17,320.73Z" class="land" id="GA-7" title="Ogooué-Lolo"/>
    <path d="M477.62,251.67L477.58,251.41L477.03,250.24L476.32,248.97L475.67,247.72L475.48,247.12L475.12,245.29L474.85,243.34L474.58,242.04L473.69,240.22L473.35,239.59L472.88,238.91L472.34,238.31L471.72,237.75L470.47,236.88L469.85,236.38L469.04,235.18L468.57,233.34L468.35,232.74L467.81,231.47L467.82,230.79L468.05,230.08L468.17,228.86L468.09,228.19L467.89,227.56L466.33,225.06L465.61,223.86L464.16,222.06L463.82,221.47L463.66,220.85L463.57,220.24L463.51,218.91L463.61,218.13L463.83,217.55L463.92,216.96L463.64,215.48L463.61,214.13L463.12,212.22L463,211.57L462.5,210.95L461.89,210.88L461.25,211L460.59,210.87L460.27,210.27L459.82,209.65L459.84,209.06L460.05,208.45L460.38,207.77L460.83,207.08L461.3,206.45L461.52,205.19L461.89,203.9L462.5,203.49L463.12,203.35L463.73,203L464.41,201.77L465.03,201.25L465.64,201.02L466.86,200.72L467.5,200.5L468.73,199.63L469.37,199.49L470,199.25L470.5,198.62L471.04,198.06L471.61,197.86L472.2,197.9L472.81,197.76L473.2,197.15L473.82,197.08L474.45,197.36L475.12,197.26L475.47,196.68L475.69,196.06L476.94,195.56L477.58,195.07L478.17,194.69L478.62,194.02L478.9,193.38L478.93,192.74L478.38,192.1L478.38,191.53L478.59,190.9L478.9,190.19L478.42,189.65L477.73,188.76L476.75,187.84L475.86,186.94L474.94,185.95L474.14,185.19L472.55,183.56L471.87,182.71L474.82,180.66L475.92,179.88L477.28,179.01L478.45,178.18L479.8,177.33L481.59,176.08L482.97,175.09L484.61,173.94L489.14,170.95L490.7,169.9L491.87,169.07L493.2,168.2L494.19,167.5L495.48,166.65L496.92,165.77L499.47,164L500.86,163.07L502.09,162.22L503.08,161.62L505.18,160.14L506.19,159.48L507.35,158.61L508.46,157.87L509.71,157.09L513.15,154.76L514.26,154.07L516.22,152.78L517.07,152.12L517.94,151.51L518.35,151.15L518.6,150.02L518.67,149.52L518.86,148.74L518.5,148.34L518.44,148.04L518.77,147.05L518.75,146.25L518.6,145.14L518.57,144.32L518.6,143.04L518.88,142.04L519.22,141.51L519.66,141.1L520,140.59L520.4,140.14L520.89,139.34L521.25,138.84L521.9,137.35L522.12,136.7L522.45,136.17L523.32,135.28L523.5,135.04L524.29,133.25L524.6,132.71L525.47,131.88L525.75,131.29L525.75,130.85L525.89,130.12L526.24,129.64L526.69,129.22L526.87,128.96L527.09,128.32L527.14,127.52L527.1,126.88L527.99,126.86L533.61,127.07L535.87,127.1L541.41,127.2L545.8,127.43L550.14,127.45L551.96,127.57L553.94,127.62L556.27,127.62L561.22,127.82L563.66,127.78L564.68,127.88L566.94,127.93L568.18,127.98L569.86,127.95L571.82,128.02L574.05,128.13L575.71,128.18L577.38,128.16L578.44,127.68L579.29,128.05L579.67,128.46L581.08,127.9L581.6,128L582.23,127.96L582.63,128.09L583.41,127.82L583.76,128.13L584.03,127.85L584.39,127.86L584.83,128.03L585.41,127.73L585.77,127.87L586.17,127.72L586.55,128.25L586.78,128.27L587.02,128.01L587.11,127.12L587.67,127.35L587.78,126.89L587.57,126.52L587.57,125.7L588.38,125.65L588.69,125.95L589.11,125.93L589.44,125.45L590.72,125.5L590.77,125.18L590.34,124.85L590.32,124.63L590.88,123.9L591.06,123.89L591.45,124.17L592.29,124.43L592.45,124.35L592.58,123.95L593.05,123.89L593.31,123.49L593.84,123.63L594.41,123.36L594.74,123.32L594.85,123.78L595.34,123.71L596.05,124.21L596.49,124.31L596.82,124.54L597.14,124.58L597.28,124.93L597.58,124.97L597.98,125.2L598.36,125.26L598.45,124.87L598.75,124.89L599.34,125.42L599.5,124.98L600.22,124.83L601.26,124.33L601.66,124.4L601.95,124.69L602.23,124.67L603.45,123.93L603.55,123.43L604.22,123.06L604.35,122.87L604.36,122.28L605.2,122.05L605.46,121.49L606.78,121.43L607.09,121.51L606.98,120.77L607.03,120.58L607.39,120.52L607.92,120.25L608.36,120.49L609,120.05L609.86,119.96L610.15,120.25L610.42,120.31L610.56,119.9L610.82,120.22L611.68,120.15L611.8,119.92L612.78,119.48L612.9,119.06L613.15,118.96L613.63,118.93L614.01,119.19L613.85,119.55L614.37,119.52L614.59,119.64L614.89,120.03L615.09,120.05L615.45,119.54L616.1,119.5L616.53,119.2L616.75,118.9L616.76,118.33L616.42,117.65L616.55,117.27L616.88,117.45L617.26,117.16L617.23,116.83L617.42,116.58L617.89,116.61L618.09,116.34L617.92,116.01L617.96,115.61L617.59,115.81L617.49,115.68L617.56,115.19L617.81,114.77L618.23,114.86L618.31,115.29L618.51,115.35L618.98,115.16L619.58,115.35L619.93,115.3L620.61,114.96L620.96,114.98L621.31,115.46L621.59,115.5L622.18,115.24L623.19,115.04L623.49,115.07L625.33,116.01L626.74,115.98L627.84,115.7L628.19,115.71L628.54,115.97L628.9,116.07L629.69,115.94L629.9,115.83L630.22,115.08L630.52,114.95L630.66,114.7L631.04,114.96L631.47,115.13L631.72,115.36L631.83,115.75L631.73,116.23L631.83,116.43L632.6,117.16L633.06,117.24L633.6,118.02L634.09,118.29L634.59,118.41L635.16,118.41L636.38,118.61L636.77,118.33L637.37,117.6L637.77,117.55L638.04,117.41L638.97,117.4L639.94,117.62L640.58,117.63L640.89,117.4L641.64,117.36L641.88,117.5L642.3,118.18L642.78,118.67L643.49,118.96L644.02,118.9L644.32,118.98L644.76,119.45L645.39,119.49L645.66,119.63L646.12,120.14L646.92,120.44L647.37,120.76L647.91,121.67L648.48,123L648.92,123.37L649.11,123.7L648.91,124.38L649.03,125.23L648.93,125.79L648.53,126.51L648.37,127.01L648.45,127.48L648.74,127.78L649.26,127.93L649.33,128.5L650.18,128.94L650.5,129.33L650.9,130.32L651.42,131L651.49,132.47L651.6,132.98L653.17,134.54L654.14,135.87L654.71,136.23L654.85,136.47L654.85,136.84L655.05,137.6L654.88,138.23L654.92,138.5L655.7,139.88L655.79,140.44L656.2,141.06L656.44,141.99L656.95,142.75L657.31,143.96L657.76,144.55L658.16,144.62L659.16,145.14L659.76,145.98L660.28,146.25L660.77,146.3L661.06,146.55L661.33,147.97L661.19,148.43L660.76,148.93L660.66,149.59L660.42,149.79L659.02,149.94L659.05,150.17L659.38,150.54L659.75,150.65L660.16,151.54L660.28,152.38L660.48,153.01L660.25,153.34L659.48,153.79L658.94,155.25L658.75,155.41L657.34,155.81L656.87,156.13L655.85,157.55L655.89,158.2L655.06,158.94L654.52,159.13L654.19,159.5L653.59,160.64L652.93,160.93L652.41,162.55L653.1,163.25L653.97,164.75L652.78,165.27L652.33,166.01L651.8,166.42L651.12,166.46L650.09,167.52L649.36,167.61L648.38,168.31L648.28,168.53L648.29,168.96L647.65,169.85L648.01,170.6L647.5,170.61L646.05,170.31L644.62,171.05L643.86,171.06L643.4,170.82L643.03,170.24L642.36,170.16L641.38,170.63L641.1,170.65L640.54,170.29L639.44,169.89L638.49,169.73L637.41,169.69L636.6,170.22L635.11,172L634.36,173.71L634.45,173.98L635.01,174.47L635.29,174.59L635.72,174.93L635.66,175.42L635.25,175.74L634.59,176.63L634.51,177.71L634.09,178.35L633.7,178.56L633.14,179.14L632.32,179.3L631.35,180.15L630.58,180.32L629.28,181.07L628.86,181.76L628.54,181.95L628.14,182.65L627.9,183.56L627.53,183.54L627.28,184L626.68,184.24L626.29,184.85L626.32,185.16L626.76,185.38L626.05,186.06L626.49,186.47L625.87,186.54L625.94,187.2L626.31,187.83L625.81,188.06L625.31,188.06L625.01,188.73L624.48,189.2L623.55,189.71L623.43,189.88L623.46,190.31L623.29,190.81L623.34,191.11L623.74,191.46L622.98,191.91L623.53,192.54L624.07,193.45L624.03,194.07L624.45,194.47L624.75,194.92L625.34,196.37L625.43,197.03L625.14,198.16L624.6,198.91L624.62,199.32L625.04,200.02L625.04,200.72L625.18,201.42L625.49,201.78L625.83,201.58L626.26,201.54L627.06,201.72L627.34,201.99L627.34,202.65L627.03,203.24L626.76,204.3L625.78,204.58L625.76,204.73L625.86,206.59L625.61,208.62L625.36,209.8L625.09,210.58L622.3,210.41L621.43,210.27L620.7,210.03L619.49,209.2L618.91,209.06L618.29,208.8L617.08,207.88L616.45,207.46L615.29,206.47L613.83,205.64L613.24,205.38L612.01,204.96L611.4,204.8L609.32,204.51L608.62,204.32L608.02,204.07L607.3,203.87L605.92,203.78L604.65,203.78L603.43,203.68L602.79,203.33L602.15,203.09L601.57,202.97L600.29,202.37L599.68,202.24L599.09,202.22L597.79,202.46L597.18,202.53L594.7,202.59L593.49,202.48L592.79,202.48L590.14,202.39L587.62,202.27L586.35,202.3L585.71,202.22L584.96,202.04L583.8,202.12L583.19,202.08L582.58,201.73L581.98,201.19L581.37,200.76L580.69,201.01L580.1,201.28L579.49,201.25L578.85,201.09L578.16,200.72L577.55,200.12L576.93,200L576.35,199.54L575.06,199.25L574.63,198.64L574.27,197.43L573.76,195.47L573.12,194.27L573.38,192.98L573.05,192.34L571.77,191.93L571.37,191.32L571.13,190.74L570.53,190.47L569.28,190.92L568.59,191.04L568,191.01L566.72,190.61L566.08,190.1L564.81,189.49L564.55,188.89L564.05,188.29L563.42,188.76L563.4,189.39L562.85,190.05L561.62,191.08L561,191.34L560.4,191.21L559.17,190.74L557.94,190.4L556.7,189.93L556.09,190.48L555.49,190.88L554.32,190.21L553.82,189.6L553.79,188.98L553.21,188.31L552.59,188.09L552.02,187.53L551.32,186.28L550.71,186.58L550.33,187.2L549.77,187.78L549.13,188.07L548.47,188.09L547.83,188.21L547.19,188.59L546.55,189.13L545.94,189.27L545.35,189.15L544.74,188.73L544.15,188.19L543.27,186.98L543.01,186.79L542.64,188.4L542.4,190.31L541.78,192.5L541.49,194.01L540.94,196.35L540.53,198.45L540.07,200.54L539.21,204.82L538.66,207.22L537.47,212.28L536.86,215.13L536.36,217.41L534.76,224.28L534.31,226.38L533.82,228.46L533.32,230.91L533.04,231.64L531.71,232.03L528.7,233.13L526.45,234L525.18,234.42L522.87,235.25L520.77,236.03L519.1,236.63L515.49,237.99L512.72,238.99L511.36,239.38L508.48,240.56L506.97,241.12L505.77,241.52L504.45,242.07L502.87,242.61L501.32,243.1L499.82,243.64L498.46,244.21L497.09,244.68L493.08,246.12L490.62,246.96L489.7,247.35L487.42,248.1L485.98,248.74L481.88,250.18L480.2,250.76Z" class="land" id="GA-6" title="Ogooué-Ivindo"/>
    <path d="M484.82,381.6L485.49,381.86L486.93,381.99L490,382.95L492.24,383.47L496.62,385.39L498.37,385.89L501.1,387.11L505.66,388.93L507.66,389.4L508.52,389.73L509.12,390.22L509.23,390.73L509.06,391.29L508.12,392.83L506.85,395.63L506.51,396.79L506.09,397.64L505.8,400.6L505.63,401.04L505.1,401.72L504.41,402.13L503.17,402.55L501.67,402.89L501.17,403.3L500.89,403.9L501,404.27L501.42,404.92L502.79,405.56L505.07,407.28L506.34,409.94L507.66,412.39L507.98,413.38L507.8,414.21L506.7,416.15L505.4,418.11L502.38,422.08L501.41,422.77L499.94,423.36L498.59,424.11L497.92,424.86L497.49,425.67L497.27,427.5L497.33,428.25L498.04,429.12L498.99,429.66L501.24,430.67L501.61,431.01L501.69,431.34L499.58,436.14L498.44,438.1L497.73,438.92L497.21,439.11L496.38,438.92L494.33,437.79L492.01,436.71L491.62,436.44L487.05,434.97L486.38,434.53L485.98,434.12L485.01,432.63L484.8,432.47L484.28,431.72L482.85,429.11L481.93,427.83L481.58,427.62L481.29,427.23L480.56,426.68L479.05,425.86L477.75,425.28L476.05,424.3L475.55,424.24L474.95,424.59L474.22,425.3L472.89,426.98L471.11,428.69L470.1,429.05L469.24,429.07L467.95,428.89L467.03,428.87L465.06,429.39L464.06,429.91L463.36,430.57L461.39,433.29L459.34,435.24L458.48,436.33L458.06,437.09L457.78,438.61L457.81,440.02L458.18,442.96L458.04,443.88L456.71,445.91L456.48,447.15L456.66,448.41L456.65,448.95L456.44,449.59L455.81,450.5L455.74,451.94L455.28,453.42L455.02,454.16L454.31,453.64L452.8,452.67L452.06,452.25L452,451.99L451.58,451.89L450.93,451.51L449.73,450.64L449.64,450.49L448.82,450.02L447.85,449.25L447.55,448.91L447.19,448.75L445.59,447.44L445.51,447.24L443.83,445.86L443.8,445.31L443.68,444.76L443.2,444.06L443,443.68L442.91,443.23L443.03,442.48L443.45,441.69L443.61,441.25L443.46,440.91L442.35,439.51L442.21,439.28L441.32,438.27L438.92,435.28L437.45,433.73L436.33,432.63L435.55,431.91L434.78,431.13L433.85,430.26L431.69,428.37L427.45,424.86L425.62,423.42L424.47,422.61L421.19,420.4L420.15,419.56L420.02,419.25L420.31,419.1L420.49,418.74L420.93,418.16L420.91,417.83L421.17,417.19L421.29,417.05L421.39,416.44L421.53,416.44L421.41,417.09L421.27,417.24L421.32,417.87L421.11,418.36L420.98,418.85L421.22,419.16L421.32,419.67L422.2,420.01L422.68,420.69L422.92,420.76L423.71,420.84L424.05,420.74L424.12,420.28L424.49,420.43L424.53,420.15L424.31,420.09L423.41,420.21L423.26,419.63L422.87,419.47L422.69,418.99L422.14,419.15L421.77,419.4L421.61,419.3L421.56,418.27L421.86,417.85L422.18,417.04L421.97,416.82L422.01,416.27L421.72,416.09L421.45,415.14L421.46,414.53L421.39,413.96L421.24,413.62L420.86,413L420.51,412.61L419.63,411.86L418.02,410.75L417.02,409.97L416.12,409.51L414.1,408.2L413.93,408.04L413.86,407.22L413.63,406.8L413.4,406.19L412.91,405.41L411.92,404.4L410.93,403.31L409.53,401.73L408.09,400.35L406.8,398.86L406.18,398.1L405.58,397.51L404.1,396.19L403.21,395.47L402.28,394.78L400.58,393.62L399.09,392.48L397.7,391.48L397.4,391.21L397.39,390.97L396.6,390.24L396,389.96L395.56,389.58L394.89,389.17L394.68,388.93L393.7,388.22L390.68,386.22L389.22,385.03L388.5,384.4L386.78,383.13L385.72,382.43L384.94,381.73L384.74,381.49L384.26,381.35L382.57,380.14L381.95,379.72L381.95,379.58L380.7,378.78L379.47,377.86L379.26,377.58L382.21,377.05L384.97,376.08L385.94,374.94L387.57,373.64L389.84,373.97L391.95,376.41L391.95,379.33L393.42,380.79L395.85,380.47L396.66,377.54L397.31,375.43L398.45,373.64L400.18,370.48L400.3,370.5L400.89,370.03L401.06,369.39L401.51,366.26L401.85,364.92L402.18,364.32L402.59,363.71L403.21,363.1L403.83,362.75L404.43,362.53L405.01,362.51L405.65,362.63L406.27,362.28L406.17,361.71L405.86,361.08L404.95,359.87L404.73,359.24L404.76,358.65L405.11,358.04L406.29,357.24L406.53,356.63L406.83,355.23L406.98,354.65L407.26,354.03L410.46,352.55L413.94,350.78L416.2,349.79L417.91,348.97L417.83,348.75L420.99,348.26L423.61,347.9L426.06,347.62L428.16,347.3L430.33,347.06L433.65,346.61L435.48,346.42L437.53,346.16L439.62,345.83L441.55,345.62L442.85,345.51L443.58,345.33L444.77,345.36L445.41,345.46L446.04,345.67L446.63,346L447.26,346.52L447.76,347.15L448.07,347.79L448.23,348.38L448.4,349.65L448.68,350.27L449.3,350.78L450.55,351.54L451.18,351.96L452.95,352.88L454.16,353.61L454.74,353.87L455.21,354.46L455.79,356.93L456.44,359.47L456.66,360.06L457.84,360.86L458.4,361.46L459.41,362.73L461.02,364.54L461.56,365.18L462.88,366.1L463.51,366.57L464.7,367.67L465.29,368.16L465.9,368.56L466.52,369.08L467.79,370.35L468.45,370.95L470.32,373L471.54,374.27L472.64,375.59L473.54,376.83L474.53,378.02L475.92,379.99L476.42,380.6L477.37,381.16L479.87,382.38L480.92,383.18L483.02,383.83L483.75,382.61L484.48,382.05Z" class="land" id="GA-5" title="Nyanga"/>
    <path d="M417.83,348.75L417.8,348.37L417.11,347.3L416.34,346.31L416.11,345.27L415.28,344.4L414.17,343.78L413.7,343.38L413.6,343.07L412.89,342.06L412.66,341.85L411.67,340.27L411.55,339.97L411.33,338.93L411.1,337.45L410.86,336.87L410.79,336.52L410.54,335.91L410.39,335.21L410.18,334.97L408.91,334.26L408.32,333.69L407.99,333.08L407.83,332.51L407.82,331.29L407.94,330.64L408.46,329.36L409.1,327.99L409.03,327.22L408.53,326.64L407.33,326.79L406.74,326.74L406.29,326.15L406.01,325.54L405.42,325.16L404.05,324.85L403.39,324.32L402.83,323.73L402.25,323.68L401.62,324.25L401.15,324.88L400.53,325.19L399.86,325.25L399.14,325.19L398.5,325.07L396.08,324.41L394.77,323.92L394.14,324.05L393.55,324.43L392.92,324.01L392.63,323.37L392.11,322.75L391.52,322.95L390.95,322.51L391.1,321.91L390.63,321.3L390.02,321.42L389.37,321.65L388.77,321.6L387.42,321.01L386.74,320.48L386.12,320.07L384.9,319.86L383.65,319.34L382.99,319.13L381.09,318.91L380.49,318.89L379.14,319.01L378.5,318.75L377.92,318.24L376.76,317.01L376.24,316.34L375.22,315.09L374.89,314.49L374.64,313.85L374.3,312.51L373.39,311.25L373.06,310.65L372.46,310.12L371.85,309.89L371.47,309.3L371.99,308.69L372.63,308.45L373.31,308.26L373.77,307.67L373.39,307.08L373.24,306.47L373.66,305.88L374.31,305.31L374.91,305L376.11,305.07L376.69,305.03L377.3,304.87L377.67,304.28L377.82,303.69L378.41,303.13L378.57,301.83L378.83,301.16L378.95,300.5L378.92,299.84L378.72,298.64L378.14,296.05L377.91,294.78L377.87,293.55L377.96,292.37L378.1,291.74L378.52,291.09L379.12,290.65L379.75,290.31L380.96,289.37L382.37,288.01L382.94,287.42L383.81,286.21L383.97,285.56L384.12,283.69L384.12,283.05L384.71,282.49L385.22,281.85L385.8,281.24L386.33,280.62L386.94,279.97L388.29,278.71L388.86,277.99L389.49,277.46L390.7,276.67L392.02,275.98L392.63,275.58L393.27,275.37L394,275.24L394.62,275.31L395.91,275.67L396.58,275.91L397.8,276.21L398.5,276.1L399.15,275.58L399.86,275.41L401.1,275.36L401.78,275.79L401.95,276.38L401.88,277.04L402.09,277.74L402.71,277.25L402.99,276.64L403.16,276.03L402.92,275.44L403.05,274.84L403.72,274.69L404.35,274.91L404.62,274.31L404.61,273.7L404.5,273.08L404.55,272.5L404.93,271.9L405.66,271.47L406.1,270.84L406.83,269.62L407.09,268.99L406.9,268.34L406.29,267.97L405.93,267.39L406.36,266.8L407.04,266.43L408.88,265.7L409.54,265.3L409.95,264.64L410.23,263.95L410.71,263.3L411.53,261.97L412.26,260.69L412.51,260.09L412.05,258.86L412.24,257.68L412.71,255.82L412.85,255.11L413.16,254.44L413.77,254.02L414.39,254.12L414.97,253.39L415.58,252.86L416.27,252.82L416.89,252.68L417.54,252.04L417.97,251.41L418.89,250.2L419.26,249.52L420.21,248.05L420.7,247.44L421.88,246.87L422.12,246.26L421.84,245.63L420.75,244.46L420.56,243.86L420.94,243.24L421.58,243.31L422.17,243.83L422.74,244.47L423.32,244.35L423.79,243.17L424.39,242.87L425,242.89L426.24,243.05L426.89,243.03L427.6,243.43L427.4,244.02L427.45,244.64L428.04,245.16L428.7,245.39L429.29,245.44L429.88,245.02L430.47,244.51L430.5,243.91L430.9,243.31L431.53,242.81L432.15,242.65L432.76,242.97L433.11,243.59L433.54,244.17L434.15,244.49L434.77,243.93L434.92,243.32L435.4,242.68L436.01,242.3L436.7,242.07L437.95,241.72L439.15,241.61L440.43,241.52L442.22,241.52L442.86,241.47L443.49,241.49L446.04,241.4L447.26,241.33L449.15,241.16L451.08,240.72L452.29,240.37L452.89,240.24L453.61,240.56L454.22,241.17L455.47,242.28L457.38,243.79L458,244.17L458.61,244.64L459.27,245.27L460.47,246.31L461.06,246.74L461.64,247.32L462.24,247.81L462.84,248.17L464.67,249.07L465.88,249.57L466.46,249.91L467.67,250.39L468.9,250.79L471.35,251.47L473.22,251.71L474.51,251.71L476.97,251.59L477.62,251.67L476.95,252.91L476.59,253.5L476.09,254.07L475.41,254.56L474.79,255.13L474.32,255.72L474.09,256.36L473.94,257.04L473.85,258.29L473.64,259.52L473.5,260.79L473.54,261.4L473.94,262L474.11,262.68L473.92,263.27L473.94,263.86L474.32,265.09L474.63,265.7L475.22,266.29L475.79,266.74L476.28,267.37L476.48,268.01L477.15,270.44L477.2,271.07L477.01,271.72L476.26,272.94L476.88,273.43L476.87,274.02L476.59,274.61L477.18,274.94L477.84,274.89L478.47,275.02L479.06,275.36L479.72,275.47L480.34,275.16L480.98,274.77L481.59,274.47L482.2,274.35L483.42,274.26L484.07,273.86L484.7,273.3L485.88,272.45L486.54,272.12L487.75,271.38L488.95,270.82L489.6,270.94L489.91,271.22L489.7,271.92L489.66,272.3L489.61,274.46L489.76,275.13L490.25,276.34L490.76,277.12L490.96,277.34L491.63,278.37L491.85,278.6L492.34,279.38L493.13,280.31L493.29,280.56L493.93,281.22L494.94,281.92L495.76,282.41L496.99,283.34L497.7,284.07L497.94,284.26L499,285.36L499.75,285.89L500.65,286.29L501,286.38L502.18,286.92L503.71,287.89L504.45,288.46L504.89,288.9L505.72,290.2L505.82,290.51L506.38,291.31L506.62,291.9L506.66,292.28L506.59,293.53L506.74,294.21L507.35,296.19L507.59,296.81L507.72,297.55L507.89,299.47L507.77,301.02L507.54,301.66L507.23,302.2L506.83,302.68L506.36,303.05L506,303.57L505.81,304.67L505.87,305.45L506.48,306.96L506.78,307.43L507.39,307.43L508.01,307.5L508.64,307.65L509.24,308.15L510.58,310L510.98,310.64L511.85,311.87L512.97,313.62L513.53,314.23L514.15,314.82L515.39,315.74L515.96,316.35L517.4,317.62L518.03,318.11L518.62,318.38L519.95,318.89L520.58,319.06L522.43,319.65L524.38,320.43L525.11,320.63L526.34,321.1L527.56,321.06L528.82,320.87L530.71,320.64L531.98,320.64L532.61,320.7L533.21,320.92L533.33,321.46L532.79,321.46L532.71,321.75L534.16,326.05L534.39,327.75L534.36,329.07L534.65,330.77L535.1,331.99L535.83,333.3L537.45,335.01L537.68,335.54L537.58,336.83L536.88,339.51L536.99,339.9L537.91,341.22L538.21,342.96L537.99,343.47L536.5,345.47L536.01,346.35L536.08,347.07L536.93,348.14L537.87,349.52L538.03,350L537.5,351.26L536.59,352.61L536.3,353.34L536.58,355.42L536.38,356L536.05,356.1L534.22,355.93L523.66,355.85L522.74,355.93L515.99,355.93L514.21,356.35L511.84,356.75L510.95,357.06L510.72,357.06L509.81,356.18L509.31,355.25L509,354.46L508.56,353.73L507.99,353.33L506.37,351.76L505.29,351L504.75,350.84L503.37,350.93L501.22,351.99L499.64,353.02L498.96,353.26L498.21,353.24L496.64,352.82L496.09,352.82L495.43,353.27L494.4,353.4L493.76,353.81L492.88,355.28L492.11,356.82L490.91,358.14L490.66,358.17L490.08,357.95L488.72,356.96L488.06,356.28L486.88,354.09L486.07,352.9L484.9,351.69L484.11,351.14L482.99,350.81L481.35,349.62L480.78,349.6L480.4,349.92L480.57,351.9L480.82,352.56L481.98,354.04L483.14,355.94L483.28,356.5L483.27,357.39L482.56,359.61L482.28,361.11L482.22,362.16L483.3,364.65L483.83,366.56L484.27,367.45L485.28,368.84L485.98,370.07L486.38,371.05L486.45,371.68L486.31,372.56L485.99,372.82L485.35,372.89L484.23,372.69L483.46,372.67L482.96,372.86L482.55,373.25L482.33,374.69L481.98,376.03L481.25,377.68L480.97,378.64L481.05,378.98L481.38,379.55L481.84,379.99L482.61,380.31L483.46,380.92L484.51,381.48L484.82,381.6L484.48,382.05L483.75,382.61L483.02,383.83L480.92,383.18L479.87,382.38L477.37,381.16L476.42,380.6L475.92,379.99L474.53,378.02L473.54,376.83L472.64,375.59L471.54,374.27L470.32,373L468.45,370.95L467.79,370.35L466.52,369.08L465.9,368.56L465.29,368.16L464.7,367.67L463.51,366.57L462.88,366.1L461.56,365.18L461.02,364.54L459.41,362.73L458.4,361.46L457.84,360.86L456.66,360.06L456.44,359.47L455.79,356.93L455.21,354.46L454.74,353.87L454.16,353.61L452.95,352.88L451.18,351.96L450.55,351.54L449.3,350.78L448.68,350.27L448.4,349.65L448.23,348.38L448.07,347.79L447.76,347.15L447.26,346.52L446.63,346L446.04,345.67L445.41,345.46L444.77,345.36L443.58,345.33L442.85,345.51L441.55,345.62L439.62,345.83L437.53,346.16L435.48,346.42L433.65,346.61L430.33,347.06L428.16,347.3L426.06,347.62L423.61,347.9L420.99,348.26Z" class="land" id="GA-4" title="Ngounié"/>
    <path d="M353.1,240.71L353.64,240.13L353.62,239.51L353.48,238.9L353.12,237.66L353.1,236.96L353.26,235.62L352.7,234.42L352.93,233.74L352.91,233.15L352.28,231.26L352.22,230.69L352.83,230.38L353.43,230.41L354.08,230.29L354.67,229.89L355.87,229.23L357.13,228.66L358.41,228.15L359.66,227.75L360.9,227.75L361.52,227.79L362.15,227.72L362.75,227.48L363.4,227.11L364.02,226.68L365.22,225.5L365.56,226.12L365.51,226.73L366.12,226.9L366.69,227.34L366.94,227.95L367.59,228.19L368.19,228.15L368.83,228L369.42,227.37L369.87,226.78L371.07,226.09L371.69,225.51L372.2,224.91L372.53,224.31L372.7,223.69L373.28,223.19L373.9,223.24L375.15,224.02L375.77,224.28L376.36,224.25L376.96,224.09L377.52,224.42L378.12,224.68L378.69,225.27L379.04,226.52L379.02,227.15L379.14,227.77L379.64,228.36L379.56,230.22L379.7,230.81L380.29,231L380.95,230.74L382.99,229.71L385.48,228.76L386.17,228.44L387.54,227.75L388.88,226.97L390.24,226L391.43,225.22L392.07,224.91L393.9,223.75L395.13,222.79L395.82,222.18L396.36,221.57L396.87,220.9L397.73,219.61L398.18,219.04L398.83,218.48L400.15,217.98L400.75,217.67L401.36,217.28L402,216.7L402.59,216.35L403.2,216.18L404.46,215.9L406.98,213.62L408.86,212.2L409.45,211.63L410.7,210.63L411.93,209.74L412.78,209.34L412.85,208.75L412.74,208.04L412.92,207.77L414.17,207.77L414.61,207.34L414.57,206.96L414.36,206.32L414.39,205.45L414.15,204.85L413.83,204.32L413.83,203.99L414.26,203.57L414.99,203.45L415.89,203.1L416.37,202.72L416.74,202.22L417.14,201.34L417.45,200.78L418.27,200.32L419.08,200.38L419.43,200.31L419.86,199.89L420.51,199.7L420.59,199.36L420.52,199.01L419.74,197.67L419.5,197.06L419.38,196.34L419.57,195.66L419.93,195.16L420.42,194.77L421.29,193.94L421.67,193.47L421.72,193.09L421.32,192.24L421.24,191.89L421.6,191.37L421.86,191.23L422.62,191.32L423.47,191.34L424.81,190.99L426.01,191.01L426.82,191.08L427.6,190.57L428.34,190.03L428.99,189.84L429.38,189.89L430,190.12L430.37,190.14L431.32,190.29L432.33,190.36L433.83,190.41L435.3,190.33L437.1,190.33L438.7,190.36L440.03,190.33L441.46,190.33L442.62,190.28L444.08,190.36L445.48,190.36L447.05,190.26L449.32,190.19L451.26,190.28L452.88,190.28L455.36,190.33L457.22,190.31L459.22,190.33L460.95,190.31L462.84,190.34L467.1,190.31L468.87,190.33L473.29,190.31L475.07,190.24L478.9,190.19L478.59,190.9L478.38,191.53L478.38,192.1L478.93,192.74L478.9,193.38L478.62,194.02L478.17,194.69L477.58,195.07L476.94,195.56L475.69,196.06L475.47,196.68L475.12,197.26L474.45,197.36L473.82,197.08L473.2,197.15L472.81,197.76L472.2,197.9L471.61,197.86L471.04,198.06L470.5,198.62L470,199.25L469.37,199.49L468.73,199.63L467.5,200.5L466.86,200.72L465.64,201.02L465.03,201.25L464.41,201.77L463.73,203L463.12,203.35L462.5,203.49L461.89,203.9L461.52,205.19L461.3,206.45L460.83,207.08L460.38,207.77L460.05,208.45L459.84,209.06L459.82,209.65L460.27,210.27L460.59,210.87L461.25,211L461.89,210.88L462.5,210.95L463,211.57L463.12,212.22L463.61,214.13L463.64,215.48L463.92,216.96L463.83,217.55L463.61,218.13L463.51,218.91L463.57,220.24L463.66,220.85L463.82,221.47L464.16,222.06L465.61,223.86L466.33,225.06L467.89,227.56L468.09,228.19L468.17,228.86L468.05,230.08L467.82,230.79L467.81,231.47L468.35,232.74L468.57,233.34L469.04,235.18L469.85,236.38L470.47,236.88L471.72,237.75L472.34,238.31L472.88,238.91L473.35,239.59L473.69,240.22L474.58,242.04L474.85,243.34L475.12,245.29L475.48,247.12L475.67,247.72L476.32,248.97L477.03,250.24L477.58,251.41L477.62,251.67L476.97,251.59L474.51,251.71L473.22,251.71L471.35,251.47L468.9,250.79L467.67,250.39L466.46,249.91L465.88,249.57L464.67,249.07L462.84,248.17L462.24,247.81L461.64,247.32L461.06,246.74L460.47,246.31L459.27,245.27L458.61,244.64L458,244.17L457.38,243.79L455.47,242.28L454.22,241.17L453.61,240.56L452.89,240.24L452.29,240.37L451.08,240.72L449.15,241.16L447.26,241.33L446.04,241.4L443.49,241.49L442.86,241.47L442.22,241.52L440.43,241.52L439.15,241.61L437.95,241.72L436.7,242.07L436.01,242.3L435.4,242.68L434.92,243.32L434.77,243.93L434.15,244.49L433.54,244.17L433.11,243.59L432.76,242.97L432.15,242.65L431.53,242.81L430.9,243.31L430.5,243.91L430.47,244.51L429.88,245.02L429.29,245.44L428.7,245.39L428.04,245.16L427.45,244.64L427.4,244.02L427.6,243.43L426.89,243.03L426.24,243.05L425,242.89L424.39,242.87L423.79,243.17L423.32,244.35L422.74,244.47L422.17,243.83L421.58,243.31L420.94,243.24L420.56,243.86L420.75,244.46L421.84,245.63L422.12,246.26L421.88,246.87L420.7,247.44L420.21,248.05L419.26,249.52L418.89,250.2L417.97,251.41L417.54,252.04L416.89,252.68L416.27,252.82L415.58,252.86L414.97,253.39L414.39,254.12L413.77,254.02L413.16,254.44L412.85,255.11L412.71,255.82L412.24,257.68L412.05,258.86L412.51,260.09L412.26,260.69L411.53,261.97L410.71,263.3L410.23,263.95L409.95,264.64L409.54,265.3L408.88,265.7L407.04,266.43L406.36,266.8L405.93,267.39L406.29,267.97L406.9,268.34L407.09,268.99L406.83,269.62L406.1,270.84L405.66,271.47L404.93,271.9L404.55,272.5L404.5,273.08L404.61,273.7L404.62,274.31L404.35,274.91L403.72,274.69L403.05,274.84L402.92,275.44L403.16,276.03L402.99,276.64L402.71,277.25L402.09,277.74L401.88,277.04L401.95,276.38L401.78,275.79L401.1,275.36L399.86,275.41L399.15,275.58L398.5,276.1L397.8,276.21L396.58,275.91L395.91,275.67L394.62,275.31L394,275.24L393.27,275.37L392.63,275.58L392.02,275.98L390.7,276.67L389.49,277.46L388.86,277.99L388.29,278.71L386.94,279.97L386.33,280.62L385.8,281.24L385.22,281.85L384.71,282.49L384.12,283.05L383.79,282.61L383.2,282.49L381.89,282.41L380.67,282.23L380.04,282.07L379.42,281.85L378.15,281.03L377.51,280.46L377.02,279.22L376.52,278.6L375.91,278.19L374.71,277.81L374.11,277.25L374.16,276.61L374.68,275.44L375.36,274.22L375.84,273.57L376.09,272.99L376.54,271.72L376.66,271.03L376.71,270.39L376.57,269.75L376.09,268.52L375.37,267.25L375.31,266.64L375.62,266.03L376.09,265.44L375.89,264.19L375.87,263.6L375.32,263.01L374.09,262.18L372.86,261.29L372.25,261.03L371.61,260.84L370.98,260.94L370.39,261.14L369.82,261.05L369.23,260.87L368.62,261.02L367.98,260.96L367.37,260.72L366.76,260.77L365.44,260.96L364.84,260.94L364.2,260.84L363.59,260.47L363.59,259.89L363.48,259.3L362.88,258.95L362.53,258.83L361.92,258.29L361.07,257.77L359.96,257.27L358.71,256.81L357.44,256.14L357.21,255.24L356.73,253.74L356.3,251.97L355.81,250.2L355.12,248.05L354.62,246.07L354.13,244.35L353.64,242.72Z" class="land" id="GA-3" title="Moyen-Ogooué"/>
    <path d="M551.76,321.61L552.17,320.73L552.36,319.95L552.54,318.71L552.65,317.53L553.27,316.91L553.85,316.42L553.65,315.81L553.14,314.6L553.3,313.97L553.85,313.28L554.24,312.67L554.59,311.99L555.1,311.34L555.22,310.14L555.38,309.42L555.61,308.8L555.9,308.19L556.39,307.55L556.93,306.94L557.36,306.3L557.5,305.69L557.5,305.1L557.64,304.53L558.11,303.82L559.36,303.08L559.6,302.51L559.41,301.92L559.72,301.31L560.31,301.16L560.82,300.56L561.13,299.4L561.11,298.8L560.97,298.19L560.94,297.6L561.25,296.99L562.36,295.63L563.63,295.25L564.01,294.61L564.06,293.95L563.97,292.75L564.41,292.16L565,292.41L565.61,292.48L566.82,291.47L567.41,291.57L568,291.74L568.59,291.78L569.2,291.61L569.84,291.21L571.06,289.94L571.47,289.37L571.8,288.77L572.31,288.15L572.95,287.82L574.21,287.56L574.6,286.97L574.7,286.24L574.67,285.62L574.91,285.02L575.52,284.66L576.13,284.44L577.45,284.11L578.03,283.81L578.28,283.21L578.29,281.99L578.52,280.11L578.49,279.51L578.24,278.34L578.03,277.72L577.91,277.09L577.88,276.52L577.72,275.91L577.45,275.31L577.29,274.66L577.24,274.02L577.4,273.97L578.05,274.12L578.87,274.61L579.09,274.84L580.14,275.55L581.18,275.81L582.22,276.49L582.56,276.57L583.8,277.21L585.48,275.08L586.89,273.34L588.42,271.55L590.08,269.55L591.78,267.68L593.16,266L594.54,264.22L596.94,260.63L598.65,258.01L600.5,255.27L601.75,253.48L602.89,251.74L601.82,249.66L600.25,246.43L598.6,243.08L595.15,236.05L593.62,233.03L592.41,230.6L590.88,227.66L588.66,223.05L587.96,222.13L587.44,221.54L587.06,220.95L586.71,219.68L586.4,219.07L585.76,218.83L584.54,218.62L583.94,218.55L583.34,218.28L583.14,217.67L582.95,216.42L582.95,215.15L582.81,214.47L582.48,213.21L582.41,212.57L582.11,211.96L581.49,211.75L580.84,211.4L581.09,210.79L581.7,210.45L582.29,210.03L582.48,209.44L583.03,208.82L583.05,208.15L583.52,207.57L584.08,206.35L585.26,205.31L585.15,202.79L584.96,202.04L585.71,202.22L586.35,202.3L587.62,202.27L590.14,202.39L592.79,202.48L593.49,202.48L594.7,202.59L597.18,202.53L597.79,202.46L599.09,202.22L599.68,202.24L600.29,202.37L601.57,202.97L602.15,203.09L602.79,203.33L603.43,203.68L604.65,203.78L605.92,203.78L607.3,203.87L608.02,204.07L608.62,204.32L609.32,204.51L611.4,204.8L612.01,204.96L613.24,205.38L613.83,205.64L615.29,206.47L616.45,207.46L617.08,207.88L618.29,208.8L618.91,209.06L619.49,209.2L620.7,210.03L621.43,210.27L622.3,210.41L625.09,210.58L624.64,211.83L624.26,212.53L623.27,213.6L622.91,214.48L622.79,215.33L622.86,216.33L623.4,217.84L623.99,218.61L625.34,219.74L626.16,220.21L626.58,220.1L627.04,218.99L627.49,218.53L628.14,218.41L628.99,218.52L631.11,219.3L631.36,219.5L632.72,220.13L633.05,220.4L636.25,221.96L637.42,222.65L639.32,224.11L640.11,225.2L640.44,226.08L640.65,227.29L640.7,227.29L640.75,231.02L640.98,232.05L641.37,232.21L641.94,232.18L644.25,231.63L645.74,231.63L646.5,232.02L649.58,233.18L650.33,233.29L652.04,233.27L652.74,233.38L654.07,233.86L654.98,234.39L655.7,235.24L656.78,236.96L658.45,238.53L658.88,239.06L660.09,241.37L660.25,241.95L660.74,243.07L661,244.14L661.15,245.65L661.1,247.13L660.35,249.33L659.36,250.9L658.98,252.15L658.6,254.65L657.48,257.85L656.83,259.11L655.91,260.07L655.57,261.39L656.15,263.5L656.37,267.11L657.91,273.83L659.01,278.64L659.36,280.07L659.98,281.91L660.28,283.33L660.12,284.79L659.48,286.05L658.66,287.3L658.25,288.38L658.2,289.89L658.51,290.58L659.16,291.24L660.91,292.51L661.24,292.99L661.29,293.66L661.09,294.13L660.76,294.53L659.43,295.43L659.07,295.79L658.85,296.44L658.95,296.9L660.07,298.81L660.29,299.61L660.26,300.43L659.94,301.12L659.54,301.61L658.07,302.46L655.61,303.68L653.95,304.4L653.5,304.68L653.34,305.2L653.49,305.88L653.76,306.45L654.42,307.37L655.08,308L655.8,308.39L656.27,308.51L657.36,309.21L657.9,309.78L658.13,310.35L657.98,310.74L657.56,311.29L656.6,312.06L656.23,312.62L655.98,314.16L655.8,317.33L655.25,318.84L655.05,319.81L655.13,320.75L654.97,321.58L654.85,321.81L654.12,322.41L649.52,325.26L648.96,325.7L648.83,325.91L648.32,326.21L646.02,328.54L645.59,329.42L645.4,330.76L645.37,331.68L645.9,335.08L645.76,336.19L645.22,336.75L644.51,337.12L644.01,337.53L643.43,338.93L643.12,339.44L642.26,339.93L640.82,340.32L640.19,340.65L639.81,341.32L639.71,341.74L640.22,342.66L643.49,347.4L643.77,348.13L643.7,348.58L643.29,349.23L641.12,350.98L640.31,352.11L637.42,357.65L636.37,359.23L635.12,359.71L634.27,359.24L633.45,358.34L633.07,358.07L632.72,358.08L631.72,359.03L631.47,359.09L631.09,358.87L629.81,357.51L629.11,357.3L628.54,357.33L628.04,357.5L626.67,358.43L626.01,358.64L625.1,358.67L623.16,357.98L622.78,357.74L621.93,356.87L621.73,356.4L621.71,355.88L621.86,355.38L622.09,354.91L622.64,354.2L623.98,352.89L624.71,352.02L624.87,351.09L624.73,350.47L624.53,350.2L623.2,349.18L622.86,348.63L622.46,345.88L619.75,341.89L618.31,339.18L616.85,337.87L615.63,336.98L614.83,336.68L614.54,336.71L614.24,337.11L613.02,339.36L612.73,339.74L610.65,341.8L609.62,343.15L607.75,345.26L607.33,345.92L606.74,346.51L604.42,349.39L603.93,349.87L603.14,350.99L600.95,353.61L599.07,356.45L598.24,356.7L597.71,356.51L596.87,355.92L595.81,355.54L595.09,355.48L594.35,355.56L592.44,356.24L591.91,356.27L590.82,355.9L589.7,355.05L588.47,354.41L588.2,354.12L587.21,353.72L583.89,353.3L583.08,352.99L582.43,352.59L581.93,352.06L581.4,350.97L580.94,350.72L580.57,350.81L579.93,351.56L579.26,352.68L578.82,353.13L578.42,353.31L577.85,353.28L577.16,352.96L575.6,352.11L575.05,351.71L573.01,351.03L571.96,351.04L571.02,350.69L570.43,350.63L570,350.46L569.39,349.89L569.13,349.24L569.62,346.28L569.56,345.33L569.04,343.96L567.9,342.24L567.37,341.79L565.36,340.91L563.11,339.29L562.02,338.17L561.4,337.22L560.27,335.81L560.07,334.62L559.68,333.24L559.56,331.8L559.29,330.44L558.95,329.46L558.5,328.54L557.9,326.65L557.55,325.81L556.76,324.96L553.67,322.94L552.67,322.16Z" class="land" id="GA-2" title="Haut-Ogooué"/>
    <path d="M405.91,142.22L405.89,143.87L405.91,145.63L405.86,149.07L405.87,150.49L405.82,151.7L405.7,152.36L405.32,152.97L404.73,153.63L403.56,154.79L403.36,155.4L402.45,158.63L402.49,159.25L402.83,159.86L403.83,161.03L404.19,161.63L404.43,162.2L404.85,164L405.02,164.58L405.21,164.93L405.42,164.95L406.2,164.74L408.09,164.08L409.76,163.42L411.36,162.9L413.49,162.13L415.86,161.42L419.39,160.14L422.83,158.92L424.55,158.27L426.37,157.66L428.14,157.02L430.1,156.35L432.15,155.61L434.41,154.86L436.33,154.19L437.85,153.61L439.79,153.07L440.1,153.51L440.35,154.54L440.95,157.29L440.95,157.73L440.82,158.02L440.71,158.77L440.71,159.2L440.82,160.37L440.75,161.6L440.59,162.33L440.45,162.62L440.42,163L440.19,163.68L439.88,164.23L439.7,165.72L439.39,166.27L438.67,166.81L438.21,167.22L437.9,167.78L437.71,168.45L437.67,168.84L437.35,170.25L436.93,171.13L436.46,171.5L436.06,171.97L435.85,173.06L435.61,173.66L435.05,174.43L434.76,174.96L434.53,175.61L434.15,176.96L434.05,177.73L433.68,179.08L433.32,180.01L433.25,180.83L433.23,181.68L433,182.33L432.64,182.83L431.65,183.53L431.35,184.08L431.37,184.46L431.67,185.03L432.29,185.68L432.54,186.28L432.52,187.04L432.38,187.36L432.1,188.37L431.91,188.63L431.41,188.96L431.01,189.41L430.7,189.96L430.37,190.14L430,190.12L429.38,189.89L428.99,189.84L428.34,190.03L427.6,190.57L426.82,191.08L426.01,191.01L424.81,190.99L423.47,191.34L422.62,191.32L421.86,191.23L421.6,191.37L421.24,191.89L421.32,192.24L421.72,193.09L421.67,193.47L421.29,193.94L420.42,194.77L419.93,195.16L419.57,195.66L419.38,196.34L419.5,197.06L419.74,197.67L420.52,199.01L420.59,199.36L420.51,199.7L419.86,199.89L419.43,200.31L419.08,200.38L418.27,200.32L417.45,200.78L417.14,201.34L416.74,202.22L416.37,202.72L415.89,203.1L414.99,203.45L414.26,203.57L413.83,203.99L413.83,204.32L414.15,204.85L414.39,205.45L414.36,206.32L414.57,206.96L414.61,207.34L414.17,207.77L412.92,207.77L412.74,208.04L412.85,208.75L412.78,209.34L411.93,209.74L410.7,210.63L409.45,211.63L408.86,212.2L406.98,213.62L404.46,215.9L403.2,216.18L402.59,216.35L402,216.7L401.36,217.28L400.75,217.67L400.15,217.98L398.83,218.48L398.18,219.04L397.73,219.61L396.87,220.9L396.36,221.57L395.82,222.18L395.13,222.79L393.9,223.75L392.07,224.91L391.43,225.22L390.24,226L388.88,226.97L387.54,227.75L386.17,228.44L385.48,228.76L382.99,229.71L380.95,230.74L380.29,231L379.7,230.81L379.56,230.22L379.64,228.36L379.14,227.77L379.02,227.15L379.04,226.52L378.69,225.27L378.12,224.68L377.52,224.42L376.96,224.09L376.36,224.25L375.77,224.28L375.15,224.02L373.9,223.24L373.28,223.19L372.7,223.69L372.53,224.31L372.2,224.91L371.69,225.51L371.07,226.09L369.87,226.78L369.42,227.37L368.83,228L368.19,228.15L367.59,228.19L366.94,227.95L366.69,227.34L366.12,226.9L365.51,226.73L365.56,226.12L365.22,225.5L364.02,226.68L363.4,227.11L362.75,227.48L362.15,227.72L361.52,227.79L360.9,227.75L359.66,227.75L358.41,228.15L357.13,228.66L355.87,229.23L354.67,229.89L354.08,230.29L353.43,230.41L352.83,230.38L352.22,230.69L352.28,231.26L352.91,233.15L352.93,233.74L352.7,234.42L353.26,235.62L353.1,236.96L353.12,237.66L353.48,238.9L353.62,239.51L353.64,240.13L353.1,240.71L352.7,240.46L352.23,239.84L351.89,239.23L351.47,238.62L350.85,238.01L350.17,236.8L349.56,236.16L348.22,235.84L347.36,235.55L346.74,235.06L346.14,234.73L345.55,234.63L344.39,234.69L343.71,234.53L343.12,234.13L342.72,233.52L342.01,232.19L341.59,231.59L341.25,230.93L340.72,230.32L340.07,229.77L339.37,229.24L338.97,228.62L338.73,228.01L338.51,226.71L338.02,225.51L337.88,224.89L337.88,224.28L337.58,223.95L337.31,223.26L336.96,222.78L336.32,222.4L336.3,221.87L336.44,221.25L336.49,219.75L336.49,218.78L336.56,217.41L336.97,217.14L337.39,215.53L337.57,215.35L337.91,214.05L338.01,212.68L338.05,211.56L337.96,209.67L337.93,208.39L337.85,208.2L337.96,207.44L338.2,207.27L338.69,207.12L339.09,205.82L339.21,204.82L339.2,203.19L339.16,202.47L338.99,201.36L338.84,200.64L338.82,200.29L338.49,198.83L338.24,198.04L338.07,197.24L338.1,196.63L337.86,195.93L337.71,195.29L337.71,194.86L337.21,193.3L337.1,192.56L337,191.11L336.94,190.82L337.12,190.49L336.99,189.09L336.67,187.19L336.34,185.69L336.32,185.39L336.74,185.3L336.96,184.78L336.96,184.29L337.36,183.88L337.67,183.96L338.27,183.86L338.76,183.35L339.35,182.61L339.67,182.56L339.7,183L340.08,183.48L340.13,183.75L340.46,184.17L340.45,184.51L340.85,184.93L341.11,185.36L340.74,186.38L340.92,186.58L341.17,187.42L341.21,187.98L341.1,188.34L341.35,188.81L341.29,189.09L341.55,189.13L341.72,189.43L341.83,190.08L341.75,190.69L341.27,191.23L341.42,191.59L341.13,191.91L340.67,192.02L340.43,191.86L340.41,192.49L340.21,192.6L340.35,192.91L340.79,193L341.05,192.13L341.6,191.83L341.87,191.61L342.15,191.64L342.23,191.88L342.17,192.24L342.29,192.69L342.59,192.91L342.8,192.84L342.87,192.54L343.5,191.69L344.05,191.78L344.34,192.24L344.58,192.37L344.78,192.75L344.86,193.12L344.83,193.97L344.57,194.53L344.46,195.11L344.59,195.12L344.66,194.56L344.9,193.94L344.88,193.51L345.09,193.36L345.35,193.46L345.78,193.28L346.33,194.01L347.16,195.61L347.36,195.91L347.51,196.36L347.56,196.78L347.78,197.39L347.3,197.81L346.8,197.74L346.36,197.77L345.84,198.24L345.38,198.54L345.54,198.7L346.4,197.86L347.07,197.87L347.59,197.97L347.73,198.16L348.15,198.2L348.47,198.74L348.45,200.15L348.32,200.82L348.77,200.8L348.63,200.39L348.7,199.86L348.67,199.04L349.11,199.07L349.09,198.21L348.97,197.76L349.06,197.31L348.7,197.07L348.73,196.45L348.67,196.09L348.34,195.64L348.37,195.16L348.92,194.81L349.05,194.32L349.49,193.83L349.71,193.82L350.01,194.08L350.63,194.3L351.35,194.28L351.93,194.47L352.39,194.46L352.82,194.74L353.46,195.02L353.73,195.49L353.97,196.29L353.88,196.58L354.04,196.71L354.45,196.68L354.6,196.47L355.01,196.24L355.35,196.35L355.63,196.12L355.72,195.81L356.17,195.51L356.38,195.05L356.66,194.99L357.42,195.29L357.84,195.37L357.94,195.97L358.2,196.45L358.81,196.81L359.05,196.44L359.29,196.31L360.78,196.34L362.01,196.73L362.93,197.08L363.83,197.32L364,197.44L364.72,197.18L364.85,196.93L364.78,196.61L365.04,196.35L365.68,196.18L366.79,196.12L368.05,195.9L368.41,196.17L369.05,196.14L369.24,195.87L369.88,195.44L370.93,195.21L371.51,194.89L372.7,194.31L373.19,194.17L373.21,193.76L373.14,192.91L372.35,193.46L370.99,193.74L369.97,193.99L368.76,193.97L368.46,194.06L367.99,193.91L367.54,194.05L366.86,193.8L366.12,193.61L365.74,193.38L365.16,193.21L364.75,193.17L364.18,192.92L363.25,192.36L362.95,192.06L362.43,191.94L362.06,191.59L361.89,190.98L362.31,190.23L362.51,189.67L362.29,189.73L361.94,190.48L361.79,190.65L361.32,190.77L360.79,191.1L360.56,191.09L360.23,191.3L359.9,191.36L359.41,190.97L359.14,190.94L358.86,190.68L358.41,189.79L357.7,189.97L357.46,189.83L356.74,189.05L356.38,188.93L356,188.63L355.51,188.56L355.12,188.23L354.64,187.96L354.57,187.67L354.17,187.51L353.74,186.92L353.17,186.47L353.05,186.01L352.75,185.74L352.27,185.71L352.13,185.81L352.22,186.18L351.97,186.51L351.73,186.53L351.16,186.38L350.67,185.66L350.31,185.28L350.01,185.63L349.89,185.93L349.57,185.91L349.42,186.49L348.89,186.89L348.84,186.71L348.5,186.44L348.22,185.83L347.95,184.89L347.7,184.73L347.55,184.21L347.3,183.72L347.01,183.48L346.99,182.56L346.79,182.17L346.26,181.65L346.05,181.58L345.75,181L345.38,180.69L345.01,180.15L344.85,179.61L344.68,179.53L344.27,179.06L343.99,178.6L343.81,178L343.6,177.67L343.29,176.66L342.44,175.28L342.06,174.92L341.82,174.41L341.36,173.65L340.98,173.24L340.24,172.6L339.53,172.17L339.13,172.05L338.52,171.98L338.14,172.22L338.09,172.53L337.57,172.77L337.34,172.99L336.72,172.32L336.72,171.85L336.88,171.48L336.85,170.97L336.69,170.17L336.8,169.7L336.72,169.5L336.74,168.75L336.71,167.55L336.76,167.35L337.24,166.9L337.3,166.33L337.46,166.08L337.92,165.83L338.32,166.01L338.67,166L339.4,165.68L339.74,165.92L340.52,165.92L341.19,165.68L342.02,164.96L342.44,164.29L342.89,164.23L343.27,164.28L343.89,164.51L345.2,164.57L345.5,164.44L345.72,164.12L346.35,164.15L346.57,163.6L347.09,163.56L348.12,163.03L348.45,163.06L348.6,162.78L349.22,163.08L349.56,163.1L349.78,163.37L350.1,164L350.18,164.4L350.45,164.55L350.9,165.58L350.88,166.05L351.05,166.42L350.98,167.01L350.8,167.66L350.03,167.72L349.5,167.4L348.68,167.08L348.28,167.09L348.3,167.35L348.57,167.53L349.06,168.14L349.56,168.38L350.15,168.41L350.54,168.74L350.63,169.5L350.27,169.72L350.21,169.97L351.23,169.51L351.38,168.8L351.7,167.91L351.75,167.56L352,167.3L352.28,167.28L352.42,167.5L352.48,168.07L352.65,168.18L353.08,169.98L352.91,170.71L352.52,171.27L352.55,171.71L352.76,172.22L352.75,172.61L352.93,172.85L352.73,173.34L353.45,173.4L353.61,173.66L353.49,174.12L353.66,174.63L353.82,174.85L354.21,174.87L354.53,174.62L354.35,174.08L354.47,173.66L354.27,173.23L354.29,172.98L354.53,172.48L354.71,172.33L355.23,172.56L355.5,172.22L355.58,171.67L355.77,171.38L355.77,170.98L356,170.72L355.96,169.57L356,169.17L356.3,168.7L356.07,168.51L356.15,167.82L355.95,167.17L355.78,166.81L355.82,166.55L355.52,166.42L355.33,166.01L355.62,165.01L355.65,164.22L355.57,163.49L355.79,162.37L355.66,161.33L355.75,160.86L355.63,160.35L355.8,160.08L356.03,158.83L356.03,158.5L355.85,157.55L355.52,156.49L355.6,156.24L355.42,156.04L355.08,155.31L355.14,155L355.02,154.52L354.78,154.03L354.61,153.41L354.41,153.15L354.13,153.02L353.77,152.24L353.73,151.81L353.58,151.45L353.52,150.58L353,148.44L353.05,147.66L352.94,147.04L352.45,146.71L352.21,146.24L351.96,146.04L351.92,145.4L352.03,144.88L352.33,144.71L352.82,143.96L353.1,143.03L353.42,142.22L353.87,141.67L354.09,141.55L354.18,140.09L355.1,139.67L355.5,139.34L356.11,139.29L356.62,138.92L357.3,138.75L357.61,138.51L357.8,138.19L358.15,138.14L358.55,137.85L358.84,137.8L359.06,138.26L359.43,138.11L361.2,138.03L363.5,137.77L363.94,137.81L364.25,138.02L365.01,139.08L366.61,140.54L366.79,141.28L366.86,142.19L367.85,142.27L370.1,142.21L372.36,143.19L372.78,143.54L373.24,144.27L373.4,144.92L373.76,145.34L374.23,145.56L375.61,145.96L376.39,146.75L376.84,147L377.23,147.03L377.6,146.72L378.14,146.6L378.79,146.54L379.14,146.65L379.49,146.51L379.71,146.06L379.34,145.9L379.71,145.46L379.62,145.16L379.79,144.8L379.49,144.67L379.37,144.37L379.34,143.49L379.76,143.2L379.69,142.95L379.91,142.56L379.77,142.24L384.43,142.22L384.63,142.12L385.7,142.27L386.82,142.2L387.76,142.27L388.13,142.18L390.14,142.29L397.75,142.22L398.42,142.15ZM351.33,168.25L351.13,168.18L351.05,167.81L351.42,167.13L351.55,167.5ZM353.34,172.68L353.23,172.68L352.83,172.2L352.6,171.62L352.77,170.97L353.43,170.8L353.57,171.03L353.6,171.4L353.5,171.92L353.53,172.41ZM352.41,188.16L351.94,188.22L351.65,188.49L351.27,188.33L351.32,188.07L351.22,187.33L351.59,187.18L352.53,187.63ZM349.44,191.61L349.21,191.41L349.38,191.14L349.59,191.26ZM342.95,191.37L343.2,191.46L343.24,191.81L342.8,192.4L342.46,192.16L342.35,191.88L342.55,191.37ZM342.64,192.81L342.39,192.68L342.27,192.21L342.48,192.24L342.73,192.51ZM348.75,198.68L348.42,198.12L348.47,197.93L348.81,197.92L348.88,198.35Z" class="land" id="GA-1" title="Estuaire"/>
  </g>
</svg>