<?xml version="1.0" encoding="UTF-8"?>
<svg xmlns="http://www.w3.org/2000/svg" width="275.52" height="399.63" viewBox="342.24 57.19 275.52 399.63" style="background-color:#000000">
  <!-- Created using SVG Map Generator: dojo.amcharts.com/svg-map-generator -->
  <style>
    .land { fill: #ffffff; stroke: #000000; stroke-width: 0.65; }
  </style>
  <g id="polygons">
    <path d="M467.36,129.76L463.65,129.71L459.24,126.53L453.63,125.11L445.63,126.92L445.14,124.36L441.54,120.71L447.43,109.54L454.34,103.98L455.34,103.47L458.07,103.54L458.22,108.15L462.96,112.24L467.05,114.79L468.21,113.63L467.49,108.36L470.58,106.84L473.17,104.05L479.99,99.45L485.67,99.52L486.75,96.67L490.06,96.3L493.51,92.21L497.53,92.51L500.33,99.52L501.84,98.14L505.92,98.39L510.24,97.42L511.06,94.05L514.63,95.06L525.29,92.68L528.74,90.75L535.22,89.09L537.14,92.84L542.53,94.74L544.89,97.52L548.49,99.57L552.16,106.44L557.41,106.59L560.42,112.53L563.22,112.89L561.86,118.66L561.71,125.67L565.45,127.93L565.31,129.84L562,130.86L562.87,135.73L560.6,135.5L558.46,133.14L556.34,134.19L544.78,133.77L547.65,130.98L546.62,123.61L544.5,121.06L545.35,114.98L543.11,110.83L539.61,111.65L538.91,114.34L532.53,113.81L529.48,114.98L520.98,114.04L518.5,115.16L516.72,113.46L510.68,112.82L510.86,116.38L508.33,117.91L504.82,121.93L501.02,120.3L496.66,121.35L489.64,124.68L486.65,130.85L480.9,134.41L481.18,131.37L479.23,127.23L474.06,121.62L473.83,124.89L468.36,126.76L467.33,129.04Z" class="land" id="GH-NE" title="North East"/>
    <path d="M562.87,135.73L560.27,145.52L560.42,148.48L563.66,153.51L562.94,157.45L555.46,158.11L554.74,163.28L555.53,166.34L559.2,166.12L561.86,162.48L567.04,162.11L570.48,163.36L570.99,166.12L574.8,168.67L574.44,173.48L571.35,176.88L572.71,179.57L568.4,189.92L569.77,194.57L571.99,197.04L571.13,205.04L564.45,205.26L564.44,209.06L558.85,209.62L556.26,208.39L552.13,208.48L549.54,214.24L551.52,217.82L547.12,220.17L549.02,223.75L546.78,225.58L548.07,230.07L554.89,228.94L556.52,231.2L553.07,234.34L552.9,239.31L549.88,239.83L538.33,233.03L535.05,233.82L532.61,237.98L529.71,232.73L524.14,234.77L527.07,229.36L527.01,225.12L529.31,222.33L526.67,219.66L520.57,221.23L518.79,217.59L511.78,210.85L513.33,208.87L518.04,209.8L521.9,207.41L522.76,204.79L521.21,201.47L526.15,198.92L528.74,196.29L528.45,186.83L524.94,185.03L523.16,182.05L518.91,178.97L514.31,178.85L506.77,175.11L506.6,173.59L498.84,173.71L498.21,175.39L492.98,173.87L483.78,174.63L482.62,172.41L477.91,171.95L474.63,173.58L470.49,172.82L465.6,173.93L466.58,167.05L463.48,160.52L458.93,155.8L461.92,154.11L462.09,151.45L460.31,149L460.89,144.39L470.26,144.33L471.58,141.7L470.55,136.1L473.71,133.71L467.39,130.44L467.33,129.04L468.36,126.76L473.83,124.89L474.06,121.62L479.23,127.23L481.18,131.37L480.9,134.41L486.65,130.85L489.64,124.68L496.66,121.35L501.02,120.3L504.82,121.93L508.33,117.91L510.86,116.38L510.68,112.82L516.72,113.46L518.5,115.16L520.98,114.04L529.48,114.98L532.53,113.81L538.91,114.34L539.61,111.65L543.11,110.83L545.35,114.98L544.5,121.06L546.62,123.61L547.65,130.98L544.78,133.77L556.34,134.19L558.46,133.14L560.6,135.5Z" class="land" id="GH-NP" title="Northern"/>
    <path d="M454.36,103.97L453.5,99.16L447.41,95.41L446.83,90.97L447.75,86.11L451.37,84.24L451.49,82.07L453.96,79.96L454.65,72.38L455.55,70.03L457.31,71.43L472.2,71.29L474.79,70.58L485.42,70.64L489.74,71.14L500.29,71.11L503.34,75.5L505.03,75.68L506.73,71.85L510.61,70.68L513.78,68.19L514.92,64.09L518.09,63.06L523.84,63.36L523.77,59.84L530.81,61.52L532.61,64.23L536.06,65.7L540.15,63.94L541.95,67.02L542.45,71.48L539.8,73.02L539.08,81.15L535.98,85.68L535.22,89.09L528.74,90.75L525.29,92.68L514.63,95.06L511.06,94.05L510.24,97.42L505.92,98.39L501.84,98.14L500.33,99.52L497.53,92.51L493.51,92.21L490.06,96.3L486.75,96.67L485.67,99.52L479.99,99.45L473.17,104.05L470.58,106.84L467.49,108.36L468.21,113.63L467.05,114.79L462.96,112.24L458.22,108.15L458.07,103.54L455.34,103.47Z" class="land" id="GH-UE" title="Upper East"/>
    <path d="M455.55,70.03L454.65,72.38L453.96,79.96L451.49,82.07L451.37,84.24L447.75,86.11L446.83,90.97L447.41,95.41L453.5,99.16L454.36,103.97L454.34,103.98L447.43,109.54L441.54,120.71L445.14,124.36L445.63,126.92L439.81,129.59L438.45,132L439.46,140.02L438.88,143.02L421.49,142.87L418.11,145.86L414.88,143.6L398.41,145.4L390.87,147.52L390.15,150.94L380.45,154.66L377.22,153.6L373.89,149.36L377.42,142.46L375.99,140.13L375.97,133.12L374.3,129.81L373.69,120.56L376.12,115.86L371.6,113.41L371.11,111.12L372.72,108.03L368.08,100.16L365.6,93.24L367.25,89.65L366.21,87.9L368.61,83.23L369.72,79.1L372.65,75.11L371.92,70.38L376.32,69.56L395.96,69.24L398.83,70.38L404.64,69.53L418.07,69.53L420.6,70.41L436.64,70.44L436.67,68.27L448.4,68.27L448.42,70.03Z" class="land" id="GH-UW" title="Upper West"/>
    <path d="M564.44,209.06L568.9,216.08L572.14,219.21L580.04,224.01L580.48,227.42L584,230.91L585.22,235.63L576.66,241.01L577.67,244.78L576.52,248.34L578.89,257.83L579.4,268.21L576.95,275.97L574.08,278.44L572.85,283.19L573.22,288.05L575.44,291.02L580.26,291.09L581.05,296.24L580.52,299.32L576.13,298.83L574.15,297.43L570.18,297.18L566.64,299.52L565.26,304.22L561.47,309.78L555.51,308.83L556.51,306.18L552.64,304.5L555.01,296.42L554.57,294.58L550.91,290.88L547.89,289.69L545.95,284.9L541.09,277.29L540.67,272.61L541.96,269.78L538.94,268.8L535.49,269.34L533.44,264.12L533.55,256.94L532.79,252.47L528.38,252.15L525.68,248.12L520.4,245.61L518.91,245.11L518.83,240L524.01,239.49L528.84,241.23L532.61,237.98L535.05,233.82L538.33,233.03L549.88,239.83L552.9,239.31L553.07,234.34L556.52,231.2L554.89,228.94L548.07,230.07L546.78,225.58L549.02,223.75L547.12,220.17L551.52,217.82L549.54,214.24L552.13,208.48L556.26,208.39L558.85,209.62Z" class="land" id="GH-OT" title="Oti"/>
    <path d="M552.64,304.5L545.12,305.14L541.33,303.49L537.36,304.62L532.1,303.32L528.06,303.32L525.32,298.9L518.74,296.28L508.5,293.9L506.03,294.11L502.9,290.96L502.58,285.85L499.34,283.24L494.06,284.76L490.39,283.67L486.08,284.43L479.82,283.13L476.38,286.18L472.06,286.39L466.89,285.52L463.44,282.15L462.36,278.56L460.63,277.36L455.89,280.63L452.88,285.52L450.39,287.8L450.07,291.28L447.05,290.74L442.96,295.63L436.27,296.17L431.95,293.02L430.99,289.11L426.14,288.56L423.33,290.74L418.91,287.48L414.73,288.23L413.95,282.51L417.22,272.24L416.79,267.9L425.5,265.98L427.06,264.24L424.55,259.01L421.71,256.49L418.43,255.97L419.64,253.27L415.24,245.86L413.97,245.22L418.08,245.32L422.4,244.34L426.49,240.63L428.11,237.91L434.69,239.77L436.41,236.82L432.32,233.23L428.76,233.66L426.6,228.32L428.43,225.71L427.47,220.48L428.98,215.46L432.64,214.04L437.06,216L439.97,215.03L441.16,212.19L449.14,212.95L450.65,212.29L452.59,207.94L458.95,207.39L466.92,213.17L472.1,212.73L472.1,220.59L465.95,225.71L465.63,232.03L464.23,236.17L471.34,248.37L471.78,254.14L475.01,254.36L479.97,251.53L477.6,247.39L478.89,239.66L488.81,237.91L491.07,233.55L496.9,233.66L503.04,237.7L507.14,241.7L514.04,244.53L518.78,245.07L520.4,245.61L525.68,248.12L528.38,252.15L532.79,252.47L533.55,256.94L533.44,264.12L535.49,269.34L538.94,268.8L541.96,269.78L540.67,272.61L541.09,277.29L545.95,284.9L547.89,289.69L550.91,290.88L554.57,294.58L555.01,296.42Z" class="land" id="GH-BE" title="Bono East"/>
    <path d="M528.06,303.32L524.08,304.18L522.7,306.53L517.78,308.18L510.19,307.49L505.62,306.18L504.67,309.05L507.86,315.57L506.4,318.35L501.14,319.83L497.17,318.35L496.14,319.56L496.31,325.47L494.5,328.42L488.2,328.86L483.89,330.69L485.27,332.42L483.54,335.18L486.13,337.43L486.91,340.3L481.64,346.2L480.01,351.76L475.26,354.44L473.02,359.05L474.74,361.22L473.97,364.6L470.18,365.29L469.48,373.45L467.33,377.42L468.67,380.67L464.27,383.7L460.05,380.84L454.45,382.92L453.75,385.44L449.53,380.75L444.27,380.75L441.68,381.79L433.4,377.11L427.36,375.99L423.65,373.73L422.71,370.09L420.89,369.44L418.91,364.49L420.72,360.24L416.02,358.35L410.54,354.84L407.95,355.36L407.1,348.68L405.37,346.77L399.85,347.12L399.94,352.58L398.73,354.58L395.39,355.2L394.7,348.71L398.21,344.07L396.66,336.49L399.65,334.76L403.9,333.89L405.11,327.75L398.44,325.43L397.8,322.94L400.62,319.94L403.21,319.02L406.43,315.89L410.74,313.4L414.25,315.54L419.25,313.16L422.47,310.28L424.84,309.63L425.49,304.3L429.27,303.11L431.63,299.96L429.7,298.44L426.67,300.06L420.96,296.05L417.95,296.48L412.99,290.72L414.73,288.23L418.91,287.48L423.33,290.74L426.14,288.56L430.99,289.11L431.95,293.02L436.27,296.17L442.96,295.63L447.05,290.74L450.07,291.28L450.39,287.8L452.88,285.52L455.89,280.63L460.63,277.36L462.36,278.56L463.44,282.15L466.89,285.52L472.06,286.39L476.38,286.18L479.82,283.13L486.08,284.43L490.39,283.67L494.06,284.76L499.34,283.24L502.58,285.85L502.9,290.96L506.03,294.11L508.5,293.9L518.74,296.28L525.32,298.9Z" class="land" id="GH-AH" title="Ashanti"/>
    <path d="M412.99,290.72L411.15,295.61L406.84,297.14L404.25,301.26L401.56,301.26L399.83,303.65L402.85,306.15L402.85,309.19L399.4,307.78L396.49,308.33L391.21,307.78L391.21,302.46L387.22,301.59L386.25,304.63L375.36,311.37L375.25,314.09L370.4,318.21L369.34,325.34L366.56,320.58L362.07,318.84L356.46,318.84L353.46,315.25L355.87,311.59L358.46,311.37L359.39,306.37L363.64,300.38L362.34,296.98L364.79,284.22L365.51,277.33L369.39,269.24L371.33,266.34L371.04,262.93L372.48,256.04L383.11,250.3L384.34,245.08L387.28,245.22L391.38,241.47L391.31,236.68L385.49,206.67L388.07,207.25L391.26,210.39L393.94,215.19L399.02,220.77L399.2,223.91L402.91,230.8L403.51,236.1L410.84,240.9L411.79,244.03L413.69,245.08L415.24,245.86L419.64,253.27L418.43,255.97L421.71,256.49L424.55,259.01L427.06,264.24L425.5,265.98L416.79,267.9L417.22,272.24L413.95,282.51L414.73,288.23Z" class="land" id="GH-BO" title="Bono"/>
    <path d="M395.39,355.2L391.48,351.54L388.03,351.02L389.15,348.51L384.67,344.69L382.51,344.26L378.63,340.69L374.15,341.39L371.3,338.44L369.31,333.58L370.35,330.97L369.34,325.34L370.4,318.21L375.25,314.09L375.36,311.37L386.25,304.63L387.22,301.59L391.21,302.46L391.21,307.78L396.49,308.33L399.4,307.78L402.85,309.19L402.85,306.15L399.83,303.65L401.56,301.26L404.25,301.26L406.84,297.14L411.15,295.61L412.99,290.72L417.95,296.48L420.96,296.05L426.67,300.06L429.7,298.44L431.63,299.96L429.27,303.11L425.49,304.3L424.84,309.63L422.47,310.28L419.25,313.16L414.25,315.54L410.74,313.4L406.43,315.89L403.21,319.02L400.62,319.94L397.8,322.94L398.44,325.43L405.11,327.75L403.9,333.89L399.65,334.76L396.66,336.49L398.21,344.07L394.7,348.71Z" class="land" id="GH-AF" title="Ahafo"/>
    <path d="M555.51,308.83L553.53,311.17L555.61,316.47L554.05,319.25L549.65,321.34L549.14,325.42L551.9,326.81L554.57,331.38L553.96,334.33L549.74,335.81L548.71,341.54L553.62,342.06L552.93,345.45L553.1,351.61L555.26,353.08L550.17,360.81L547.93,367.54L551.04,370.57L548.11,372.65L543.79,373.6L542.33,378.63L539.57,380.54L534.83,385.48L529.22,392.24L525.25,388.61L522.75,390.68L517.58,390.77L516.02,389.21L511.69,393.31L508.09,392.55L504.81,393.5L500.84,392.55L499.89,394.36L494.98,393.67L492.39,391.94L488.51,392.63L483.43,391.85L480.57,392.63L477.12,391.94L475.75,394.54L472.56,393.67L471.87,382.66L468.67,380.67L467.33,377.42L469.48,373.45L470.18,365.29L473.97,364.6L474.74,361.22L473.02,359.05L475.26,354.44L480.01,351.76L481.64,346.2L486.91,340.3L486.13,337.43L483.54,335.18L485.27,332.42L483.89,330.69L488.2,328.86L494.5,328.42L496.31,325.47L496.14,319.56L497.17,318.35L501.14,319.83L506.4,318.35L507.86,315.57L504.67,309.05L505.62,306.18L510.19,307.49L517.78,308.18L522.7,306.53L524.08,304.18L528.06,303.32L532.1,303.32L537.36,304.62L541.33,303.49L545.12,305.14L552.64,304.5L556.51,306.18Z" class="land" id="GH-EP" title="Eastern"/>
    <path d="M580.52,299.32L578.03,308.41L579.11,309.13L577.81,315.22L574.58,316.37L573.86,318.82L576.02,320.49L574.29,325.12L577.09,327.22L577.03,329.9L581.12,332.58L581.26,339.6L587.38,341.18L585.07,344.66L587.45,349.76L592.98,352.8L597.08,356.06L602.97,356.2L603.19,358.95L606.92,362.93L607.86,366.76L614.99,366.79L615.11,370.09L609.96,372.36L607.08,374.82L602.34,381.61L601.77,387.53L598.96,390.35L584.61,391.54L580.02,386.52L577.69,381.49L573.55,377.77L570.62,376.99L564.32,379.5L562.08,376.64L562.77,374.99L558.46,371.44L551.04,370.57L547.93,367.54L550.17,360.81L555.26,353.08L553.1,351.61L552.93,345.45L553.62,342.06L548.71,341.54L549.74,335.81L553.96,334.33L554.57,331.38L551.9,326.81L549.14,325.42L549.65,321.34L554.05,319.25L555.61,316.47L553.53,311.17L555.51,308.83L561.47,309.78L565.26,304.22L566.64,299.52L570.18,297.18L574.15,297.43L576.13,298.83Z" class="land" id="GH-TV" title="Volta"/>
    <path d="M511.69,393.31L512.49,397.45L517.15,400.65L519.21,404.03L518.92,409.14L512.5,415.66L509.34,416.02L505.67,418.19L498.84,420.21L497.11,422.81L493.31,425.62L478.65,425.99L476.35,426.78L466.79,432.45L447.17,436.45L446.79,428.92L449.95,427.4L450.31,425.6L454.98,425.53L454.91,422.42L457.28,418.38L452.1,413.98L444.63,412.75L444.06,406.04L445.99,404.52L443.69,400.98L439.6,399.03L433.05,401.42L431.55,397.51L433.56,395.29L432.63,391.9L430.4,390.45L432.55,384.24L428.24,383.73L426.52,380.84L422.06,375.93L417.96,373.98L409.4,368.61L408.39,365.26L413.13,361.18L415.29,361.79L416.02,358.35L420.72,360.24L418.91,364.49L420.89,369.44L422.71,370.09L423.65,373.73L427.36,375.99L433.4,377.11L441.68,381.79L444.27,380.75L449.53,380.75L453.75,385.44L454.45,382.92L460.05,380.84L464.27,383.7L468.67,380.67L471.87,382.66L472.56,393.67L475.75,394.54L477.12,391.94L480.57,392.63L483.43,391.85L488.51,392.63L492.39,391.94L494.98,393.67L499.89,394.36L500.84,392.55L504.81,393.5L508.09,392.55Z" class="land" id="GH-CP" title="Central"/>
    <path d="M409.4,368.61L407.61,368.12L403.37,370.72L398.34,371.95L394.82,369.93L391.73,371.45L388.86,377.44L391.23,380.91L391.66,385.04L385.26,392.33L387.99,395L386.77,397.53L387.63,402.51L385.84,405.09L383.97,413.03L380.45,416.42L377.24,416.72L377.31,414.05L375.51,408.21L375,401.28L369.97,398.17L365.51,400.12L363,398.32L363.65,395.21L359.91,394.56L359.19,392.69L359.62,385.61L355.81,376.5L354.88,368.71L350.71,361.12L347.91,349.27L346.47,345.07L346.68,340.88L344.89,337.19L347.77,331.11L346.68,326.7L353.46,315.25L356.46,318.84L362.07,318.84L366.56,320.58L369.34,325.34L370.35,330.97L369.31,333.58L371.3,338.44L374.15,341.39L378.63,340.69L382.51,344.26L384.67,344.69L389.15,348.51L388.03,351.02L391.48,351.54L395.39,355.2L398.73,354.58L399.94,352.58L399.85,347.12L405.37,346.77L407.1,348.68L407.95,355.36L410.54,354.84L416.02,358.35L415.29,361.79L413.13,361.18L408.39,365.26Z" class="land" id="GH-WN" title="Western North"/>
    <path d="M584.61,391.54L577.47,390.21L569.14,389.49L558.78,390.64L553.1,392.81L549.58,395.05L546.5,395.55L544.19,398.51L536.79,402.99L528.46,406.31L518.92,409.14L519.21,404.03L517.15,400.65L512.49,397.45L511.69,393.31L516.02,389.21L517.58,390.77L522.75,390.68L525.25,388.61L529.22,392.24L534.83,385.48L539.57,380.54L542.33,378.63L543.79,373.6L548.11,372.65L551.04,370.57L558.46,371.44L562.77,374.99L562.08,376.64L564.32,379.5L570.62,376.99L573.55,377.77L577.69,381.49L580.02,386.52Z" class="land" id="GH-AA" title="Greater Accra"/>
    <path d="M447.17,436.45L443.86,438.08L437.89,443.13L436.89,445.43L426.83,449.11L422.51,452.94L416.19,454.16L415.11,452.15L407.28,447.6L403.54,443.85L388.88,439.09L386.86,439.52L369.11,435.91L363.94,434.4L354.81,432.74L358.11,430.72L364.44,432.6L367.1,430.29L375.43,431.73L376.94,430.21L375.72,423.36L374.64,422.2L374.79,416.36L377.24,416.72L380.45,416.42L383.97,413.03L385.84,405.09L387.63,402.51L386.77,397.53L387.99,395L385.26,392.33L391.66,385.04L391.23,380.91L388.86,377.44L391.73,371.45L394.82,369.93L398.34,371.95L403.37,370.72L407.61,368.12L409.4,368.61L417.96,373.98L422.06,375.93L426.52,380.84L428.24,383.73L432.55,384.24L430.4,390.45L432.63,391.9L433.56,395.29L431.55,397.51L433.05,401.42L439.6,399.03L443.69,400.98L445.99,404.52L444.06,406.04L444.63,412.75L452.1,413.98L457.28,418.38L454.91,422.42L454.98,425.53L450.31,425.6L449.95,427.4L446.79,428.92Z" class="land" id="GH-WP" title="Western"/>
    <path d="M467.36,129.76L467.39,130.44L473.71,133.71L470.55,136.1L471.58,141.7L470.26,144.33L460.89,144.39L460.31,149L462.09,151.45L461.92,154.11L458.93,155.8L463.48,160.52L466.58,167.05L465.6,173.93L470.49,172.82L474.63,173.58L477.91,171.95L482.62,172.41L483.78,174.63L492.98,173.87L498.21,175.39L498.84,173.71L506.6,173.59L506.77,175.11L514.31,178.85L518.91,178.97L523.16,182.05L524.94,185.03L528.45,186.83L528.74,196.29L526.15,198.92L521.21,201.47L522.76,204.79L521.9,207.41L518.04,209.8L513.33,208.87L511.78,210.85L518.79,217.59L520.57,221.23L526.67,219.66L529.31,222.33L527.01,225.12L527.07,229.36L524.14,234.77L529.71,232.73L532.61,237.98L528.84,241.23L524.01,239.49L518.83,240L518.91,245.11L518.78,245.07L514.04,244.53L507.14,241.7L503.04,237.7L496.9,233.66L491.07,233.55L488.81,237.91L478.89,239.66L477.6,247.39L479.97,251.53L475.01,254.36L471.78,254.14L471.34,248.37L464.23,236.17L465.63,232.03L465.95,225.71L472.1,220.59L472.1,212.73L466.92,213.17L458.95,207.39L452.59,207.94L450.65,212.29L449.14,212.95L441.16,212.19L439.97,215.03L437.06,216L432.64,214.04L428.98,215.46L427.47,220.48L428.43,225.71L426.6,228.32L428.76,233.66L432.32,233.23L436.41,236.82L434.69,239.77L428.11,237.91L426.49,240.63L422.4,244.34L418.08,245.32L413.97,245.22L413.69,245.08L411.79,244.03L410.84,240.9L403.51,236.1L402.91,230.8L399.2,223.91L399.02,220.77L393.94,215.19L391.26,210.39L388.07,207.25L385.49,206.67L383.83,198.01L381.89,196.26L381.75,192.7L374.92,190.52L374.85,184.55L377.15,182.95L378.59,179.89L381.75,178L378.66,174.87L380.53,170.06L380.02,162.64L375.49,158.57L377.22,153.6L380.45,154.66L390.15,150.94L390.87,147.52L398.41,145.4L414.88,143.6L418.11,145.86L421.49,142.87L438.88,143.02L439.46,140.02L438.45,132L439.81,129.59L445.63,126.92L453.63,125.11L459.24,126.53L463.65,129.71Z" class="land" id="GH-SV" title="Savannah"/>
  </g>
</svg>