<?xml version="1.0" encoding="UTF-8"?>
<svg xmlns="http://www.w3.org/2000/svg" width="271.83" height="399.63" viewBox="344.09 57.19 271.83 399.63" style="background-color:#000000">
  <!-- Created using SVG Map Generator: dojo.amcharts.com/svg-map-generator -->
  <style>
    .land { fill: #ffffff; stroke: #000000; stroke-width: 0.65; }
  </style>
  <g id="polygons">
    <path d="M441.85,303.28L442.55,302.64L443.71,300.39L442.52,298.26L442.46,295.19L443.03,294.03L442.71,293.2L440.09,292.66L439.13,292.18L439.96,288.44L439.64,287.31L440.86,286.93L442.22,287.46L443.59,286.7L445.26,286.85L446.77,286.01L447.54,283.3L447.64,281.46L449.41,281.55L450.69,281.1L451.83,279.21L452.21,277.07L453.03,276.75L452.54,275.3L453.35,273.91L452.54,272.59L452.75,270.8L453.94,270.43L455.04,269.2L456.64,268.58L457.24,267.74L458.84,267.13L460.62,265.33L462.08,264.41L463.39,264.69L463.76,263.08L460.68,259.83L460.48,258.51L459.06,258.57L458.46,257.96L460.12,256.96L462.12,254.34L466.72,249.31L467.41,247.79L468.28,247.17L467.99,244.57L468.61,243.69L468.84,241.74L470.73,238.06L472.69,236.31L474.21,234.22L475.09,232.31L474.54,229.19L476.29,226.37L477.82,228.41L482.68,233.23L484.29,234.42L487.1,235.07L488.81,235.05L489.71,237.14L489.26,238.69L489.44,240.97L495.84,243.88L501.39,244.59L504.4,245.97L506.75,246.33L509.32,246.4L511.48,245.78L511.56,243.44L512.44,242.67L513.63,242.63L515.55,243.19L517.05,245L518.84,245.64L520.08,247.02L520.97,247.11L521.91,245.69L523.06,245.47L525.2,244.31L527.16,244.74L529.2,244.14L532.66,243.63L533.32,244.91L533.24,246.18L535.8,246.82L541.21,247.4L541.93,248.07L542.21,250.25L544.37,251.48L544.26,252.54L545.2,253.26L546.53,255.55L548.02,256.06L548.52,256.78L548.85,259.96L548.42,261.58L551.3,262.04L555.31,261.88L556.8,264.78L558.54,264.99L560.13,266.48L562.41,266.03L566.11,263.85L566.79,263.96L570.26,262.53L572.08,261.5L574.81,261.21L576.35,260.29L578,258.23L580.05,257.59L581.58,258.11L580.17,259.5L579.23,261.26L579.65,262.6L578.68,264.69L577.71,265.09L576.98,266.45L576.83,269.3L575.96,270.49L574.29,274.89L573.6,275.8L572.55,275.63L570.65,276.42L567.16,284.44L565.31,288.14L565.4,289.84L563.13,293.33L562.21,293.91L557.16,295.72L555.61,296.56L554.59,298.01L552.48,299.47L551.81,299.53L550,298.47L548.79,299.79L547.04,299.6L545.86,300.5L543.83,300.6L538.55,301.4L536.33,300.26L531.28,302.45L525.33,302.81L517.53,302.97L500.85,302.94L497.94,302.83L490.93,302.79L485.13,302.63L483.91,300.27L478.04,295.67L476.61,295.5L472.69,296.63L469.44,296.59L466.64,293.65L465.55,293.69L464.84,294.53L461.99,295.6L460.21,295.87L457.66,297.34L455.67,299.57L450.22,301.1L447.57,301.58Z" class="land" id="CM-AD" title="Adamaoua"/>
    <path d="M441.85,303.28L447.57,301.58L450.22,301.1L455.67,299.57L457.66,297.34L460.21,295.87L461.99,295.6L464.84,294.53L465.55,293.69L466.64,293.65L469.44,296.59L472.69,296.63L476.61,295.5L478.04,295.67L483.91,300.27L485.13,302.63L490.93,302.79L497.94,302.83L497.74,305.76L499.11,307.38L500.5,309.72L501.04,312.32L502.31,312.98L502.68,314.77L504.76,318.01L504.76,319.09L503.07,323.01L501.06,326.2L497.86,326.42L496.22,327.35L501.69,332.41L504.19,335.46L503.75,338.33L506.29,339.22L508.48,339.44L510.44,344.01L510.08,346.12L509.59,351.58L508.87,352.65L507.32,352.27L504.44,352.23L502.87,352.58L501.44,352.4L498.63,353.95L497.84,354.89L496.64,358.84L495.32,360.29L494.85,365.51L494.01,368.49L494.85,369.32L494.8,371L492.79,372.01L490.21,374.49L486.81,375.17L484.86,376.45L484.62,377.58L485.41,379.3L488.6,381.1L488.42,385.34L487.24,387.74L486.24,386.84L484.87,384.04L483.37,384.04L482.51,385.48L478.17,388.96L476.41,390.8L475.3,395.43L474.58,396.22L473.37,396L472.07,396.83L471.82,394.96L467.17,393.1L466.63,392.23L465.41,392.31L464.15,391.26L463.33,391.52L462.5,393.74L460.56,394.38L459.03,395.37L457.52,397.37L456.91,399.78L456.1,400.55L452.75,402.02L449.91,402.3L446.27,402.02L444.01,402.67L442.59,402.25L439.94,402.58L437.91,400.55L437.72,398.94L436.12,397.85L435.45,394.39L433.66,392.61L432.33,392.96L430.49,392.12L427.5,392.95L426.46,390.66L424.92,390.37L418.85,392.01L410.74,394.49L407.81,394.91L406.64,390.42L405.92,389.04L406.51,388.21L407.86,388.14L409.31,385.51L409.37,383.88L410.19,383.03L410.69,379.81L411.54,379.05L413.39,378.44L417.22,380.66L418.68,382.03L419.25,380.19L420.94,377.87L420.43,374.17L421.61,372.71L422.17,370.53L425.41,369.26L426.57,369.48L428.56,368.4L429.78,368.4L431.96,367.64L433.14,366.83L435.74,366.36L435.83,364.65L433.96,363.46L433.04,361.84L431.7,360.53L431.64,359.6L429.03,356.26L429.85,351.16L429.15,350.48L427.89,351.28L426.13,350.71L425.39,351.95L424.75,354.35L423.68,355.34L422.55,354L421.43,355.18L420.15,355.65L419.3,356.72L418.06,357.1L413.47,355.38L411.75,355.1L411.4,354.42L411.96,352.08L413.58,349.72L414.19,349.58L415.09,347.16L414.33,346.45L413,346.42L411.02,347.69L410.27,347.59L410.64,345.36L413.66,343.15L415.7,340.58L418.25,341L420.19,340.33L423.96,338.32L425.72,336.73L428.08,339.38L429.53,339.62L431.06,338.48L432.35,332.84L433.67,331.11L435.36,330.65L435.12,329.8L435.33,327.1L437.2,325.94L437.66,324.99L439.09,323.77L439.32,321.2L440.04,318.82L439.32,316.18L439.99,314.82L439.77,313.96L442.31,311.69L443.49,310L442.24,309.2L441.78,306.28Z" class="land" id="CM-CE" title="Centre"/>
    <path d="M515.94,157.3L518.18,155.2L518.33,153.5L519.92,150.94L519.85,148.99L520.39,148.04L520.53,145.44L521.44,144.5L520.61,140.89L521.22,138.57L522.71,137.18L523.48,134.41L525.67,131.41L526.23,130.01L526.37,127.58L529.74,126.18L530.67,124.3L532.99,121.94L534.47,118.57L535.64,117.24L536.1,115.66L539.13,116.23L540.46,117.47L541.77,117.44L544.28,116.34L545.36,114.84L548.33,113.11L551.75,111.88L552.71,110.13L554.89,109.62L558.47,108.17L559.18,107.64L559.53,104.99L559.28,103.77L556.94,101.9L556.23,100.92L558.24,98.7L558.06,95.7L559.37,94.13L559.9,92.48L558.68,90.24L559.69,88.48L559.27,87.71L559.89,86.05L560.62,85.5L559.92,83.91L558.58,84.45L557.77,83.28L556.42,82.3L556.15,81.04L553.42,78.36L552.14,78.02L550.18,78.22L548.53,77.72L547.16,78.44L546.75,77.78L544.82,78.09L543.56,76.61L543.08,74.11L543.85,72.86L544.91,72.23L546.27,69.74L545.62,68.42L544.27,67.33L544.69,66.45L546.98,65.42L548.27,65.79L548.84,64.4L551.91,64.98L551.55,66.74L552.98,66.89L555.12,62.93L554.98,59.84L555.84,59.93L556.7,61.35L556.2,62.87L557.38,64.24L559.16,64.52L560.07,65.21L561.58,65.05L563.19,66.53L563.86,68.38L565.94,68.48L566.65,70.8L566.55,74.62L567.69,74.55L568.69,77.37L568.33,80.11L568.64,81.15L568.06,84.91L569.5,86.83L571.13,87.66L572.13,86.88L573.13,87.46L573.02,88.42L573.93,89.4L573.67,91.94L573.94,93.66L573.27,94.48L573.7,96.16L575.11,96.34L575.95,98.22L574.61,99.36L574.23,100.62L574.59,103.52L575.38,104.73L575.31,105.74L576.57,106.37L576.44,108.3L575.55,108.83L573.85,111.85L574.24,113.35L573.61,115.27L572.94,115.71L572.8,119.39L573.17,122.38L573,123.27L573.63,125.04L573.55,126.57L574.69,128.25L575.06,131.15L574.25,132.13L574.22,133.31L576.23,136.66L577.19,138.94L576.83,140.98L576.89,142.76L579.07,144.04L580.2,145.16L580.56,146.34L581.67,147.61L581.65,148.89L582.61,150.94L584.19,151.53L586.45,154.4L587.53,155.17L588.73,157.61L591.73,159.68L594.4,160.9L595.61,162.34L592.34,163.3L586.95,164.17L583.57,162.83L580.03,161.94L579.21,163.07L576.43,162L575.34,163.09L574.14,162.99L571.91,161.77L568.99,162.53L566.1,164.48L564.81,164.37L563.32,163.61L561.55,163.58L555.94,161.83L553.87,161.45L547.71,161.68L544.29,162.18L543.69,163.04L544.11,160.67L543.83,159.86L540.39,158.45L538.91,158.76L538,157.34L536.97,156.83L536.25,155.49L535.06,154.76L533.22,154.67L532.13,154.14L530.14,154.53L526.15,153.73L525.34,154.08L524.71,155.49L525.8,156.96L525.57,157.76L523.39,158.25L521.68,159.29L519.85,158.98L517.07,159.6Z" class="land" id="CM-EN" title="Far North"/>
    <path d="M525.55,436.14L524.93,422.03L524.67,419.96L523.98,411.8L522.54,411.26L521.81,412.35L520.72,412.33L519.53,413.3L519.46,414.67L517.58,415.12L515.3,413.66L514.26,414.06L512.4,412.55L511.32,413.41L509.39,411.83L507.76,412.59L506.95,411.72L505.98,412.77L503.23,412.23L501.75,411.26L500.89,411.8L497.92,411.47L495.16,410.04L493.98,408.17L493.92,404.7L493.65,401.78L492.01,398.8L490.57,397.15L487.22,394.01L486.56,392.99L486.88,388.71L487.24,387.74L488.42,385.34L488.6,381.1L485.41,379.3L484.62,377.58L484.86,376.45L486.81,375.17L490.21,374.49L492.79,372.01L494.8,371L494.85,369.32L494.01,368.49L494.85,365.51L495.32,360.29L496.64,358.84L497.84,354.89L498.63,353.95L501.44,352.4L502.87,352.58L504.44,352.23L507.32,352.27L508.87,352.65L509.59,351.58L510.08,346.12L510.44,344.01L508.48,339.44L506.29,339.22L503.75,338.33L504.19,335.46L501.69,332.41L496.22,327.35L497.86,326.42L501.06,326.2L503.07,323.01L504.76,319.09L504.76,318.01L502.68,314.77L502.31,312.98L501.04,312.32L500.5,309.72L499.11,307.38L497.74,305.76L497.94,302.83L500.85,302.94L517.53,302.97L525.33,302.81L531.28,302.45L536.33,300.26L538.55,301.4L543.83,300.6L545.86,300.5L547.04,299.6L548.79,299.79L550,298.47L551.81,299.53L551.64,300.97L552.18,302.37L553.22,303.29L554.18,305.46L555.37,306.05L556.65,306.01L557.58,305.27L558.62,306.1L558.83,308.86L558.86,313.02L557.73,316.48L557.79,317.31L558.96,319.73L558.03,321.16L557.94,323.46L555.37,327.72L557.15,329.55L559.71,330.06L560.54,331.17L561.21,334.08L560.58,334.95L561.08,336.68L560.61,337.82L561.22,338.81L560.87,339.97L561.6,341.66L562.13,344.39L561.88,345.47L562.24,347.94L562.2,349.97L563.38,352.06L565.38,354.05L566.77,354.62L568.01,356.06L572.37,357.82L572.96,359.69L574.81,361.65L575.79,368.23L576.61,368.87L576.89,371.19L574.16,371.91L574.95,372.5L575.54,374.28L580.43,382.34L586.42,388.8L589.47,391.88L596.19,399.87L599.59,403.75L601.79,403.44L602.73,403.88L604.06,406L605.54,407.67L606.8,407.21L609.17,410.61L609.72,413.46L608.4,414.52L608.9,416.59L609.74,417.68L608.97,419.79L609.57,421.28L608.96,423.73L609.54,424.74L609.25,425.88L610.65,428.39L611.8,429.9L612.58,432.55L612.36,433.54L613.26,434.3L612.91,435.17L609.62,435.39L609.41,437.2L609.55,440.46L608.56,442.04L608.56,443.14L609.41,443.97L609.79,445.91L610.55,446.71L611.74,450.37L611.95,452.37L609.54,453.04L608.87,454.16L607.75,454.02L607.25,451.89L607.55,450.25L605.21,450.37L602.67,449.76L602.21,448.36L599.92,447.22L598.44,445.27L595.72,444.41L590.1,443.7L588.99,442.93L586.88,443.59L583.81,445.18L582.49,444.37L582.41,443.21L580.58,441.19L577.46,440.69L575.56,442.84L573.61,442.77L571.36,440.93L570.9,441.77L569.13,442.16L568.25,441.45L568.84,440L566.28,439.3L565.21,440.06L562.39,437.83L559.83,437.64L558.31,435.44L556.38,434.72L556,435.22L552.09,436.65L550.81,435.72L547.78,435.44L545.54,436.11Z" class="land" id="CM-ES" title="East"/>
    <path d="M374.43,375.15L375.34,373.91L376.63,373.76L377.04,373.37L376.99,372.62L377.78,372.05L378.9,373.28L378.52,375.13L377.21,376.35ZM379.7,371.05L380.12,371.8L379.22,372.81L378.51,371.72ZM380,368.43L380.85,368.69L381.91,367.24L381.06,365.26L379.03,365.74L377.52,364.55L378.17,361.63L380.53,357.78L380.05,356.67L380.21,354.94L381.89,351.8L383.3,349.68L384.55,350.07L385.49,349.66L385.41,348.34L387.45,345.79L387.84,343.55L390.76,340.49L389.77,339.38L389.8,338.57L391.17,335.69L392.97,334.94L391.29,331.91L390,330.93L389.02,327.36L390.9,326.8L392.11,325.03L393.25,325.03L392.81,327.49L394.15,328.33L394.9,327.68L396.37,327.64L397.28,328.55L398.01,330.3L397.48,332.79L398.27,334.98L400.26,335.72L400.54,338.2L401.2,338.29L401.88,339.75L402.8,339.71L403.91,337.22L405.91,336.06L406.49,334.16L408.38,334.69L410.98,334.31L411.38,336.25L412.42,337.5L412.67,339.02L413.9,339.13L414.34,340.34L415.7,340.58L413.66,343.15L410.64,345.36L410.27,347.59L411.02,347.69L413,346.42L414.33,346.45L415.09,347.16L414.19,349.58L413.58,349.72L411.96,352.08L411.4,354.42L411.75,355.1L413.47,355.38L418.06,357.1L419.3,356.72L420.15,355.65L421.43,355.18L422.55,354L423.68,355.34L424.75,354.35L425.39,351.95L426.13,350.71L427.89,351.28L429.15,350.48L429.85,351.16L429.03,356.26L431.64,359.6L431.7,360.53L433.04,361.84L433.96,363.46L435.83,364.65L435.74,366.36L433.14,366.83L431.96,367.64L429.78,368.4L428.56,368.4L426.57,369.48L425.41,369.26L422.17,370.53L421.61,372.71L420.43,374.17L420.94,377.87L419.25,380.19L418.68,382.03L417.22,380.66L413.39,378.44L411.54,379.05L410.69,379.81L410.19,383.03L409.37,383.88L409.31,385.51L407.86,388.14L406.51,388.21L406.44,387.39L404.78,386.11L403.79,386.82L402.31,386.82L400.03,390.04L400.11,392.74L398.97,395.44L397.13,396.43L395.9,397.66L394.21,398.11L394.3,397.21L392.75,395.01L389.6,391.55L388.31,390.37L385.36,388.28L385.13,386.71L385.64,385L383.82,381.19L383.57,379.14L384.25,377.09L384.74,376.93L386.54,378.39L387.56,376.83L386.47,375.42L386.6,374.5L385.01,374.47L384.65,373.37L387.02,370.07L385.74,370.55L384.71,371.66L383.52,372.15L381.35,371.48L380.26,370.31ZM380.6,371.68L381.46,373.28L380.35,373.62L379.43,373.05Z" class="land" id="CM-LT" title="Littoral"/>
    <path d="M581.58,258.11L580.05,257.59L578,258.23L576.35,260.29L574.81,261.21L572.08,261.5L570.26,262.53L566.79,263.96L566.11,263.85L562.41,266.03L560.13,266.48L558.54,264.99L556.8,264.78L555.31,261.88L551.3,262.04L548.42,261.58L548.85,259.96L548.52,256.78L548.02,256.06L546.53,255.55L545.2,253.26L544.26,252.54L544.37,251.48L542.21,250.25L541.93,248.07L541.21,247.4L535.8,246.82L533.24,246.18L533.32,244.91L532.66,243.63L529.2,244.14L527.16,244.74L525.2,244.31L523.06,245.47L521.91,245.69L520.97,247.11L520.08,247.02L518.84,245.64L517.05,245L515.55,243.19L513.63,242.63L512.44,242.67L511.56,243.44L511.48,245.78L509.32,246.4L506.75,246.33L504.4,245.97L501.39,244.59L495.84,243.88L489.44,240.97L489.26,238.69L489.71,237.14L488.81,235.05L487.1,235.07L484.29,234.42L482.68,233.23L477.82,228.41L476.29,226.37L476.33,224.41L475.65,220.79L475.9,218.96L476.66,217.35L478.1,216.96L479.39,217.27L480.65,215.51L482.07,214.67L480.98,211.29L482.88,211.29L484.25,210.38L487.87,211.28L489.78,209.71L490.81,209.77L492.11,208.14L492.2,206.59L493.34,205.66L494.65,205.76L495.26,205.13L496,202.69L496.23,199.62L496.86,197.96L496.46,194.69L497.37,191.77L498.84,188.92L498.78,184.68L497.18,184.3L497.44,183.27L499.67,182.13L501.36,180.49L502.27,180.33L503.81,179.11L506.74,178.91L509.82,177.97L510.81,175.8L510.51,174.2L511.11,173.37L511.43,170.48L512.5,168.69L510.47,167.34L510.02,165.78L511.14,164.64L511.77,162.73L510.9,161.81L513.16,157.93L515.94,157.3L517.07,159.6L519.85,158.98L521.68,159.29L523.39,158.25L525.57,157.76L525.8,156.96L524.71,155.49L525.34,154.08L526.15,153.73L530.14,154.53L532.13,154.14L533.22,154.67L535.06,154.76L536.25,155.49L536.97,156.83L538,157.34L538.91,158.76L540.39,158.45L543.83,159.86L544.11,160.67L543.69,163.04L543.18,165.34L539.62,170.06L538.72,170.59L537.86,172.21L537.76,174.28L539.16,176.33L541.73,179.19L543.65,180.25L543.84,181.24L544.82,181.75L545.71,183.3L548.04,184.18L549.34,186.26L550.67,187.66L550.25,190.17L552.51,192.65L554.17,193.87L553.86,194.62L554.75,195.97L556.48,196.69L558.79,198.86L563.23,203.45L566.59,204.06L568.25,203.84L569.21,205.25L571.43,207.04L571.23,208.11L574.36,209.39L575.79,212.08L579.02,215.25L579.73,217.09L581.49,220.17L581.77,221.44L585.67,229.21L585.42,230.87L586.53,232.75L587.58,236.01L589.59,239.47L592.6,240.48L592.52,243.72L591.59,246.2L591.79,246.7L589.31,249L586.86,252.32L587.95,253.81L586.64,254.1L584.2,256.45Z" class="land" id="CM-NO" title="North"/>
    <path d="M439.64,287.31L439.96,288.44L439.13,292.18L437.11,294.23L435.77,294.33L433.14,293.88L432.5,294.49L433.03,296.59L432.47,298.81L431.81,299.59L429.54,300.92L427.71,301.46L427,302.11L423.52,301.24L421.8,301.56L420.44,304.5L419.43,307.22L418.56,308.37L414.6,308.28L408.96,309.32L408.67,311.46L407.94,312.09L406.39,310.87L403.73,310.01L401.78,311.62L400.98,311.7L398.04,311.17L397.03,310.68L395.05,311.89L393.13,310.9L390.71,310.19L389.33,309.33L388.08,307.84L386.86,308.07L385.38,306.42L383.67,305.23L384.56,303.38L383.74,302.28L383.62,301.02L386.21,299.69L387.54,298.3L388.3,296.02L389.16,294.44L388.75,293.26L389.16,290L388.19,288.68L388.77,285.68L387.54,284.49L388.37,281.34L389.45,278.93L389.24,277.78L390.22,274.56L393.56,275.5L396.16,272.87L396.79,271.83L401.81,267.43L403.13,266.04L404.18,268.51L403.83,269.5L404.14,270.93L406.14,272.19L413.08,271.73L414.95,271.85L415.4,270.29L416.65,269.49L417.44,266.08L417.73,261.88L418.75,262.49L418.68,264.77L419.72,265.66L421.47,265.96L422.11,266.86L424.23,268.18L426.73,268.69L427.52,269.38L427.52,270.82L428.27,271.9L428.38,273.45L430.14,275.11L432.99,275.28L434.98,276.83L435.35,278.06L434.97,281.61L435.9,285.86L437.46,287.25Z" class="land" id="CM-NW" title="Nord-West"/>
    <path d="M439.13,292.18L440.09,292.66L442.71,293.2L443.03,294.03L442.46,295.19L442.52,298.26L443.71,300.39L442.55,302.64L441.85,303.28L441.78,306.28L442.24,309.2L443.49,310L442.31,311.69L439.77,313.96L439.99,314.82L439.32,316.18L440.04,318.82L439.32,321.2L439.09,323.77L437.66,324.99L437.2,325.94L435.33,327.1L435.12,329.8L435.36,330.65L433.67,331.11L432.35,332.84L431.06,338.48L429.53,339.62L428.08,339.38L425.72,336.73L423.96,338.32L420.19,340.33L418.25,341L415.7,340.58L414.34,340.34L413.9,339.13L412.67,339.02L412.42,337.5L411.38,336.25L410.98,334.31L408.38,334.69L406.49,334.16L405.91,336.06L403.91,337.22L402.8,339.71L401.88,339.75L401.2,338.29L400.54,338.2L400.26,335.72L398.27,334.98L397.48,332.79L398.01,330.3L397.28,328.55L396.37,327.64L394.9,327.68L394.15,328.33L392.81,327.49L393.25,325.03L394.01,324.54L395.97,321.61L396.23,317.88L396.61,317.14L398.73,315.79L400.02,314.49L401.82,313.66L400.98,311.7L401.78,311.62L403.73,310.01L406.39,310.87L407.94,312.09L408.67,311.46L408.96,309.32L414.6,308.28L418.56,308.37L419.43,307.22L420.44,304.5L421.8,301.56L423.52,301.24L427,302.11L427.71,301.46L429.54,300.92L431.81,299.59L432.47,298.81L433.03,296.59L432.5,294.49L433.14,293.88L435.77,294.33L437.11,294.23Z" class="land" id="CM-OU" title="West"/>
    <path d="M487.24,387.74L486.88,388.71L486.56,392.99L487.22,394.01L490.57,397.15L492.01,398.8L493.65,401.78L493.92,404.7L493.98,408.17L495.16,410.04L497.92,411.47L500.89,411.8L501.75,411.26L503.23,412.23L505.98,412.77L506.95,411.72L507.76,412.59L509.39,411.83L511.32,413.41L512.4,412.55L514.26,414.06L515.3,413.66L517.58,415.12L519.46,414.67L519.53,413.3L520.72,412.33L521.81,412.35L522.54,411.26L523.98,411.8L524.67,419.96L524.93,422.03L525.55,436.14L512.59,436.14L512.85,434.84L512.17,433.37L510.95,432.56L509.4,433.05L507.85,432.19L504.86,433.39L499.93,433.26L497.75,434.12L496.22,433.73L493.23,434.31L491.38,433.64L490.32,433.77L487.89,433.21L484.92,433L483.15,433.28L478.75,432.44L475.79,433.38L474.8,432.43L472.54,432.56L469.23,432.07L466.71,431.93L465.07,432.26L461.76,432.43L458.67,432.3L456.91,430.86L455.68,430.87L453.87,431.64L453.02,431.24L451.51,431.69L448.48,431.47L445.25,432.04L445.7,433.01L444.75,434.19L445,436.02L440.49,436.03L438.91,435.6L438.35,435.99L404.63,436.06L399.16,436.44L395.15,435.09L392.45,433.49L391.53,429.96L391.44,427.41L391.75,426.67L391.39,424.46L391.6,422.25L392.22,420.5L392.84,417.01L394.08,414.18L393.68,412.62L394.74,408.07L396.13,406.75L396.89,404.18L395.01,399.48L394.21,398.11L395.9,397.66L397.13,396.43L398.97,395.44L400.11,392.74L400.03,390.04L402.31,386.82L403.79,386.82L404.78,386.11L406.44,387.39L406.51,388.21L405.92,389.04L406.64,390.42L407.81,394.91L410.74,394.49L418.85,392.01L424.92,390.37L426.46,390.66L427.5,392.95L430.49,392.12L432.33,392.96L433.66,392.61L435.45,394.39L436.12,397.85L437.72,398.94L437.91,400.55L439.94,402.58L442.59,402.25L444.01,402.67L446.27,402.02L449.91,402.3L452.75,402.02L456.1,400.55L456.91,399.78L457.52,397.37L459.03,395.37L460.56,394.38L462.5,393.74L463.33,391.52L464.15,391.26L465.41,392.31L466.63,392.23L467.17,393.1L471.82,394.96L472.07,396.83L473.37,396L474.58,396.22L475.3,395.43L476.41,390.8L478.17,388.96L482.51,385.48L483.37,384.04L484.87,384.04L486.24,386.84Z" class="land" id="CM-SU" title="South"/>
    <path d="M375.34,373.91L374.43,375.15L373.15,373.59L373.99,372.58ZM357.88,352.73L357.23,353.2L355.8,352.05L354.87,350.64L355.1,349.58L356.64,349.17L356.47,350.4ZM377.44,371.1L377.59,372.01L376.82,372.63L376.97,373.37L375.53,373.69L374.25,372.61L375.59,371.24ZM352.83,354.47L352.36,355.5L347.64,355.47L348.12,353.52L347.31,351.36L348.4,350.82L347.53,348.52L348.45,347.86L348.9,346.38L350.07,346.13L350,346.6L350.38,346.63L350.17,348.54L351.09,349.97L351.3,352.2ZM393.25,325.03L392.11,325.03L390.9,326.8L389.02,327.36L390,330.93L391.29,331.91L392.97,334.94L391.17,335.69L389.8,338.57L389.77,339.38L390.76,340.49L387.84,343.55L387.45,345.79L385.41,348.34L385.49,349.66L384.55,350.07L383.3,349.68L381.89,351.8L380.21,354.94L380.05,356.67L380.53,357.78L378.17,361.63L377.52,364.55L379.03,365.74L381.06,365.26L381.91,367.24L380.85,368.69L380,368.43L377.37,370.13L375.98,370.49L374.71,371.86L373.06,372.56L371.73,374.18L370.2,374L369.9,371.98L367.32,372.17L362.52,369.08L362.43,367.13L362.88,366.12L361.96,364.03L360.61,363.35L359.96,362.34L360.27,361.12L359.31,359.65L358.71,357.62L359.92,354.83L358.8,354.31L358.89,352.11L356.63,350.31L356.86,348.82L355.11,349.46L354.61,350.84L355.88,353.27L354.86,353.78L352.67,351.95L351.69,349.17L350.7,348.46L350.44,346.56L350.2,346.12L349.29,346.19L348.82,346.33L346.74,345.12L347.47,343.87L348.67,344.34L350.03,343.51L349.17,341.46L351.89,338.09L353.24,334.86L355.47,332.89L356.54,330.98L356.45,327.27L357.25,324.15L357.36,321.73L359.6,317.6L359.52,316.32L356.65,313.12L357.77,311.55L358.38,309.69L357.39,308.62L359.08,307.29L360,305.98L362.77,304.25L368.23,299.31L368.77,297.89L370.36,296.55L372.18,296.02L373.75,293.27L374.68,292.32L375.13,290.16L378.03,291.41L379.16,286.71L381.32,286.96L383.29,285.95L383.79,283.89L386.21,284.62L387.54,284.49L388.77,285.68L388.19,288.68L389.16,290L388.75,293.26L389.16,294.44L388.3,296.02L387.54,298.3L386.21,299.69L383.62,301.02L383.74,302.28L384.56,303.38L383.67,305.23L385.38,306.42L386.86,308.07L388.08,307.84L389.33,309.33L390.71,310.19L393.13,310.9L395.05,311.89L397.03,310.68L398.04,311.17L400.98,311.7L401.82,313.66L400.02,314.49L398.73,315.79L396.61,317.14L396.23,317.88L395.97,321.61L394.01,324.54Z" class="land" id="CM-SW" title="South-West"/>
  </g>
</svg>