<?xml version="1.0" encoding="UTF-8"?>
<svg xmlns="http://www.w3.org/2000/svg" width="252.78" height="262.3" viewBox="353.61 125.85 252.78 262.3" style="background-color:#000000">
  <!-- Created using SVG Map Generator: dojo.amcharts.com/svg-map-generator -->
  <style>
    .land { fill: #ffffff; stroke: #000000; stroke-width: 0.65; }
  </style>
  <g id="polygons">
    <path d="M435.57,215.67L433.69,215.87L429.02,219.94L427.18,222.75L424.82,225.1L421.88,225.05L419.18,226.1L418.03,227.21L417.27,231.52L415.48,231.93L408.82,231.95L405.68,233.19L403.47,234.73L401.48,235.25L399.63,232.98L399.86,230.83L399.65,227.41L400.5,225.91L396.71,225.14L393,225.45L389.64,224.27L388.79,224.46L392.17,220.57L396.97,217.41L399.84,215.9L401.27,213.74L403.12,212.24L405.18,211.69L412.53,207.32L414.5,205.09L414.24,201.98L413.66,199.84L410.14,194.92L408.99,194.22L405.78,194.16L404.9,193.21L402.03,193.09L402.19,192.67L408.53,190.46L413.72,191.04L416.26,192.21L421.56,193.72L423.87,193.14L424.9,192.21L425.13,189.18L433.2,188.95L433.9,190.23L434.24,193.48L433.55,196.28L434.82,197.44L438.51,198.14L441.62,199.99L442.43,201.51L441.04,205.92L438.74,208.13L436.55,212.66L435.28,213.94Z" class="land" id="LR-GP" title="Gbapolu"/>
    <path d="M576.23,378.92L573.64,377.42L571.96,377.04L570.3,375.92L566.59,374.79L564.51,374.47L560.71,372.98L553.34,372.08L551.2,371.36L548.6,368.48L540.23,365.51L533.48,360.73L529.99,358.79L524.17,356.66L526.3,354.55L527.16,351.17L530.39,349.82L533.34,344.68L535.13,343.66L539.14,340.56L543.51,340.03L546.45,336.4L548.06,335.49L551.63,336.11L553.77,337.55L556.83,337.6L565.27,338.98L565.92,340.58L565.77,342.54L562.83,347.45L560.7,352.73L560.78,353.84L562.1,355.6L566.42,357.05L570.34,358.77L573.03,360.99L577.98,369.13L578.35,370.2L577.85,372.32L577.79,375.69Z" class="land" id="LR-GK" title="Grand Kru"/>
    <path d="M524.17,356.66L519.66,354.69L515.41,351.09L513.84,350.08L510.09,348.55L508.23,348.26L505.33,347.14L504.66,345.9L502,345.17L499.86,343.91L496.39,340.92L493.34,339.3L491.45,337.89L489.34,336.98L488.53,334.79L484.78,332.99L480.9,329.34L480.23,327.28L482.69,325.89L483.45,324.33L484.62,324.15L486.56,321.66L487.16,319.28L485.92,313.72L484.58,310.38L490.2,305.62L492.42,304.64L494.28,303.21L496.93,302.47L497.65,301.34L497.97,298.89L499.71,296.13L500.99,295.23L502.6,294.84L509.62,295.01L512.11,292.59L527.9,301.44L531.36,302.95L535.24,298.23L536.45,297.86L539.4,298.26L542.8,300.78L544.89,304.17L545.48,307.08L544.67,308.14L540.46,308.66L537.56,313.49L538.37,314.99L540.17,315.49L540.79,316.69L540.17,320.26L541.51,323.93L545.76,328.31L547.63,331.13L548.15,332.62L548.06,335.49L546.45,336.4L543.51,340.03L539.14,340.56L535.13,343.66L533.34,344.68L530.39,349.82L527.16,351.17L526.3,354.55Z" class="land" id="LR-SI" title="Sinoe"/>
    <path d="M480.9,329.34L477.71,326.35L476.09,322.15L473.41,320.31L470.64,319.64L471.06,317.59L470.07,316.14L464.02,312.6L461.83,310.49L463.64,307.84L465.04,306.51L465.4,304.94L464.19,300.98L464.74,298.84L464.08,297.27L464.37,295.18L466.34,292.03L465.87,290.3L466.05,287.31L466.79,284.99L466.74,283.03L468.86,281.9L469.6,279.46L472.88,279.05L474.18,280.09L476.09,277.45L478.7,274.61L478.1,271.45L478.61,267.71L478.31,266.23L479.36,265.26L481.78,264.76L484.72,263.42L497.5,263.36L499.26,266.79L502.04,267.77L502.5,271.94L499.09,276.49L500.82,278.01L500.58,280L501.95,281.84L500.66,283.7L502.04,284.93L500.31,285.94L500.1,287.08L501.61,288.59L500.75,289.6L501.83,291.91L500.99,295.23L499.71,296.13L497.97,298.89L497.65,301.34L496.93,302.47L494.28,303.21L492.42,304.64L490.2,305.62L484.58,310.38L485.92,313.72L487.16,319.28L486.56,321.66L484.62,324.15L483.45,324.33L482.69,325.89L480.23,327.28Z" class="land" id="LR-RI" title="River Cess"/>
    <path d="M461.83,310.49L455.22,304.14L446.9,297.28L444.74,294.85L443.25,293.86L442.86,291.3L441.34,289.57L438.7,288.44L434.42,285.05L431.94,282.34L428.71,280.3L425.31,279.38L423.61,277.95L425.19,277.27L423.44,275.79L424.86,272.86L424.76,269.84L426.2,267.5L427.07,267.03L426.8,264.53L428.29,263.78L429.92,261.72L429.76,259.49L431.64,257.47L432.59,255.08L430.93,252.64L434.87,251.4L437,254.09L438.9,255.28L441.1,255.12L442.77,253.6L445.39,253.64L448.01,254.23L451.8,251.21L455.25,252L456.54,250.75L461.08,245.26L462.26,245.97L465.76,245.58L467.32,246.42L470.87,250.39L470.74,251.84L467.62,255.49L466.85,257.19L468.55,258.06L471.58,255.99L474.95,256.06L476.08,254.38L479.16,254.02L479.87,252.78L481.94,251L483.2,250.82L484.22,249.11L486.24,247.48L487.64,248.34L493.4,246.9L495.06,246.84L500.72,248.19L500.05,249.87L498,251.89L497.12,254.93L498.51,255.87L497.76,258.66L497.5,263.36L484.72,263.42L481.78,264.76L479.36,265.26L478.31,266.23L478.61,267.71L478.1,271.45L478.7,274.61L476.09,277.45L474.18,280.09L472.88,279.05L469.6,279.46L468.86,281.9L466.74,283.03L466.79,284.99L466.05,287.31L465.87,290.3L466.34,292.03L464.37,295.18L464.08,297.27L464.74,298.84L464.19,300.98L465.4,304.94L465.04,306.51L463.64,307.84Z" class="land" id="LR-GB" title="Grand Bassa"/>
    <path d="M423.44,275.79L421.7,274.21L418.73,272.58L418,274.18L407.1,271.48L408.35,267.35L412.92,264.12L416.18,262.81L417.31,261.94L418.92,259.18L422.43,257.44L422.6,252.34L422.06,249.97L420.74,247.47L424.13,240.64L424.05,238.56L428.3,238.29L430.72,239.53L433.28,241.64L440.75,244.12L445.38,242.87L449.3,243.93L452.09,246.77L454.16,245.68L455.08,242.43L456.21,240.88L456.27,238.09L457.11,237L459.15,237.03L462.23,239.51L462.62,241.64L461.08,245.26L456.54,250.75L455.25,252L451.8,251.21L448.01,254.23L445.39,253.64L442.77,253.6L441.1,255.12L438.9,255.28L437,254.09L434.87,251.4L430.93,252.64L432.59,255.08L431.64,257.47L429.76,259.49L429.92,261.72L428.29,263.78L426.8,264.53L427.07,267.03L426.2,267.5L424.76,269.84L424.86,272.86Z" class="land" id="LR-MG" title="Margibi"/>
    <path d="M407.1,271.48L405.73,271.14L397.92,267.15L397.68,263.12L398.29,261.76L396.81,260.48L397.6,258.03L396.89,255.84L396.84,253.92L398.73,252.62L400.39,252.26L403.33,249.9L404.97,250L408.83,252.45L411.65,250.5L409.27,247.26L409.27,244.55L409.76,242.08L411.3,239.75L410.89,237.75L411.58,237.11L411.75,234.94L415.01,234.04L418.45,237.51L422.44,237.53L424.05,238.56L424.13,240.64L420.74,247.47L422.06,249.97L422.6,252.34L422.43,257.44L418.92,259.18L417.31,261.94L416.18,262.81L412.92,264.12L408.35,267.35Z" class="land" id="LR-MO" title="Montserrado"/>
    <path d="M396.81,260.48L395.74,258.33L393.74,256.19L391.41,254.59L381.86,249.4L380.43,248.89L380.42,246.42L381.79,244.89L383.02,244.5L383.64,242.56L384.88,241.22L386.54,241.01L387.4,236.54L386.4,234.81L388.74,227.95L388.79,224.46L389.64,224.27L393,225.45L396.71,225.14L400.5,225.91L399.65,227.41L399.86,230.83L399.63,232.98L401.48,235.25L403.47,234.73L405.68,233.19L408.82,231.95L415.48,231.93L417.27,231.52L415.91,233.68L415.01,234.04L411.75,234.94L411.58,237.11L410.89,237.75L411.3,239.75L409.76,242.08L409.27,244.55L409.27,247.26L411.65,250.5L408.83,252.45L404.97,250L403.33,249.9L400.39,252.26L398.73,252.62L396.84,253.92L396.89,255.84L397.6,258.03Z" class="land" id="LR-BM" title="Bomi"/>
    <path d="M476.72,201.26L479.69,198.3L481.55,200.96L483.26,198.66L485.93,198.42L486.88,198.89L488.08,201.05L492.03,200.76L492.91,202L493.73,205.83L495.23,207.21L496.95,207.22L497.33,208.53L498.98,209.51L499.8,211.65L497.59,218.85L496.51,220.36L495.99,224.02L494.84,225.27L496.36,226.89L497.77,229.66L499.58,231.02L499.25,233.21L499.53,235.72L498.17,237.49L498.39,238.72L497.03,241.17L496.09,243.98L496.21,246.44L495.06,246.84L493.4,246.9L487.64,248.34L486.24,247.48L484.22,249.11L483.2,250.82L481.94,251L479.87,252.78L479.16,254.02L476.08,254.38L474.95,256.06L471.58,255.99L468.55,258.06L466.85,257.19L467.62,255.49L470.74,251.84L470.87,250.39L467.32,246.42L465.76,245.58L462.26,245.97L461.08,245.26L462.62,241.64L462.23,239.51L459.15,237.03L457.11,237L456.27,238.09L456.21,240.88L455.08,242.43L454.16,245.68L452.09,246.77L449.3,243.93L445.38,242.87L440.75,244.12L433.28,241.64L430.72,239.53L428.3,238.29L424.05,238.56L422.44,237.53L418.45,237.51L415.01,234.04L415.91,233.68L417.27,231.52L418.03,227.21L419.18,226.1L421.88,225.05L424.82,225.1L427.18,222.75L429.02,219.94L433.69,215.87L435.57,215.67L438.88,216.55L438.3,218.21L439.88,221.47L441.85,220.55L443.74,218.66L447.26,216.55L450.47,216.42L452.87,213.99L456.97,211.11L458.77,211.94L461.81,212.47L465.7,211.04L466.56,208.57L467.97,206.67L473.13,205.04L475.47,203.47Z" class="land" id="LR-BG" title="Bong"/>
    <path d="M590.64,356.93L592.41,359.49L592.67,362.65L592.41,375.65L592.65,378.93L593.17,380.73L592.35,382.46L592.59,383.79L594.6,385.16L591.41,385.5L588.32,384.63L584.18,384.63L582.94,383.39L579.58,382.36L578.15,381.32L576.23,378.92L577.79,375.69L577.85,372.32L578.35,370.2L577.98,369.13L573.03,360.99L570.34,358.77L566.42,357.05L562.1,355.6L560.78,353.84L560.7,352.73L562.83,347.45L565.77,342.54L565.92,340.58L565.27,338.98L575.11,340.7L576.29,341.88L576.29,352.47L576.65,354.08L579.79,354.39L581.88,353.16L583.93,353.18L587.11,354.44L588.09,355.82Z" class="land" id="LR-MY" title="Maryland"/>
    <path d="M602.52,314.61L601.16,316.67L601.2,318.96L600.09,320.12L600.75,322.25L602.22,323.58L603.31,323.55L603.74,326.55L602.28,329.62L600.55,328.36L598.99,329.2L597.64,332.32L598.14,335.19L597.74,337.28L596.11,340.25L593.24,340.35L592.33,342.51L592.73,347.33L593.71,348.97L594.07,351.07L592.52,350.6L590.67,352.07L591.08,354.52L590.64,356.93L588.09,355.82L587.11,354.44L583.93,353.18L581.88,353.16L579.79,354.39L576.65,354.08L576.29,352.47L576.29,341.88L575.11,340.7L565.27,338.98L556.83,337.6L553.77,337.55L551.63,336.11L548.06,335.49L548.15,332.62L547.63,331.13L545.76,328.31L541.51,323.93L540.17,320.26L540.79,316.69L549.72,316.54L555.6,316.08L562.4,313.64L592.58,315.02Z" class="land" id="LR-RG" title="River Gee"/>
    <path d="M540.79,316.69L540.17,315.49L538.37,314.99L537.56,313.49L540.46,308.66L544.67,308.14L545.48,307.08L544.89,304.17L542.8,300.78L539.4,298.26L536.45,297.86L535.24,298.23L531.36,302.95L527.9,301.44L512.11,292.59L512.24,291.47L509.97,288.48L511.1,286.49L509.86,285.15L510.63,284.12L514.13,283.48L515.09,282.84L515.89,280.1L515.08,277.61L515.99,276.85L516.73,274.86L519.29,273.77L520.89,272.45L523.22,269.38L526.86,262.07L528.28,257.22L529.31,254.97L532.38,255.12L533.76,255.92L535.56,258.33L537.42,258.09L538.17,255.84L541.45,257.51L542.25,258.41L541.41,260.16L542.2,262.32L543.24,263.36L545.41,263L547.26,264.5L548.75,264.73L548.91,265.9L554.16,267.18L556.45,268.3L558.27,268.08L560.33,267.04L563.14,266.65L565.83,266.85L566.82,267.53L570.73,268.46L575.13,271.81L576.22,273.79L574.99,278.8L575.84,280.6L577.72,280.11L578.55,281.22L578.92,286.55L579.71,287.54L582.1,288.79L583.91,291.03L586.13,288.59L588.08,290.39L591.96,292.07L591.78,293.1L593.48,294.74L596.12,294.78L596.83,296.43L597.88,296.33L598.36,293.52L600.3,294.37L600.58,296.48L600.12,301.28L601.24,306.06L603.32,310.25L602.4,311.75L603.51,313.97L602.52,314.61L592.58,315.02L562.4,313.64L555.6,316.08L549.72,316.54Z" class="land" id="LR-GG" title="Grand Gedeh"/>
    <path d="M529.31,254.97L528.28,257.22L526.86,262.07L523.22,269.38L520.89,272.45L519.29,273.77L516.73,274.86L515.99,276.85L515.08,277.61L515.89,280.1L515.09,282.84L514.13,283.48L510.63,284.12L509.86,285.15L511.1,286.49L509.97,288.48L512.24,291.47L512.11,292.59L509.62,295.01L502.6,294.84L500.99,295.23L501.83,291.91L500.75,289.6L501.61,288.59L500.1,287.08L500.31,285.94L502.04,284.93L500.66,283.7L501.95,281.84L500.58,280L500.82,278.01L499.09,276.49L502.5,271.94L502.04,267.77L499.26,266.79L497.5,263.36L497.76,258.66L498.51,255.87L497.12,254.93L498,251.89L500.05,249.87L500.72,248.19L495.06,246.84L496.21,246.44L496.09,243.98L497.03,241.17L498.39,238.72L498.17,237.49L499.53,235.72L499.25,233.21L499.58,231.02L497.77,229.66L496.36,226.89L494.84,225.27L495.99,224.02L496.51,220.36L497.59,218.85L499.8,211.65L501.8,211.14L504.23,209.37L507.37,208.74L509.59,207.03L510.74,208.87L514.83,207.38L515.22,206.16L514.37,202.86L516.31,199.99L517.87,199.35L519.28,196.22L520.97,195.2L522.6,192.98L522.77,190.35L522.02,189.5L523.14,184.8L525.2,181.64L532.42,182.02L532.09,184.31L532.48,185.98L533.61,187.36L537.39,189.97L539.92,191.25L541.01,193.4L542.25,197.71L543.3,204.81L545.13,207.82L545.61,209.72L546.86,211.59L547.03,213.54L548.46,215.64L549.58,222.95L549.43,224.42L547.4,226.48L547.35,229.52L546.57,231.2L547.66,232.35L547.61,234.03L546.34,237.62L545.48,238.96L538.85,246.4L532.5,251.43Z" class="land" id="LR-NI" title="Nimba"/>
    <path d="M476.72,201.26L475.47,203.47L473.13,205.04L467.97,206.67L466.56,208.57L465.7,211.04L461.81,212.47L458.77,211.94L456.97,211.11L452.87,213.99L450.47,216.42L447.26,216.55L443.74,218.66L441.85,220.55L439.88,221.47L438.3,218.21L438.88,216.55L435.57,215.67L435.28,213.94L436.55,212.66L438.74,208.13L441.04,205.92L442.43,201.51L441.62,199.99L438.51,198.14L434.82,197.44L433.55,196.28L434.24,193.48L433.9,190.23L433.2,188.95L425.13,189.18L424.9,192.21L423.87,193.14L421.56,193.72L416.26,192.21L413.72,191.04L408.53,190.46L402.19,192.67L402.03,193.09L397.33,192.31L396.31,191.44L393.34,190.85L401.42,180.96L403.72,179L406.58,177.44L408.41,177.08L408.25,162.29L408.59,161L411.31,159.09L413.61,155.35L416.25,154.46L421.13,154.43L423.56,153.89L426.23,151.75L426.39,150.62L425.48,147.67L426.66,143.97L428.53,136.47L428.57,133.3L431.11,132.74L432.61,133.18L434.65,131.16L436.7,130.87L440.15,131.74L441.47,133.16L440.85,136.03L441.93,137.12L443.22,136.91L448.02,133.61L450.02,132.76L453.37,132.33L454.23,133.15L457.36,131.97L457.24,130.61L459.37,128.5L460.36,130.36L461.03,134.31L462.73,136.14L462.89,133.99L464.83,133.15L466.83,134.51L467.16,135.82L465.29,137.89L465.21,139L468.71,138.93L469.87,137.81L471.15,139.26L474.18,140.54L476,141.94L473.56,143.71L475.29,146.99L474.4,148.22L474.12,151.61L477.07,152.88L478.38,158.75L480.22,160.7L480.65,161.99L479.21,166.01L479.07,168.59L479.65,171.14L481.05,173.69L484.69,178.73L483.44,182.48L483.53,184.54L484.81,186.04L483.28,188.24L482.99,189.88L481.47,191.84L481.19,193.98L479.81,196.04L477.99,197.58L477.55,199.89Z" class="land" id="LR-LO" title="Lofa"/>
    <path d="M393.34,190.85L396.31,191.44L397.33,192.31L402.03,193.09L404.9,193.21L405.78,194.16L408.99,194.22L410.14,194.92L413.66,199.84L414.24,201.98L414.5,205.09L412.53,207.32L405.18,211.69L403.12,212.24L401.27,213.74L399.84,215.9L396.97,217.41L392.17,220.57L388.79,224.46L388.74,227.95L386.4,234.81L387.4,236.54L386.54,241.01L384.88,241.22L383.64,242.56L383.02,244.5L381.79,244.89L380.42,246.42L380.43,248.89L370.98,245.5L363.71,242.26L362.4,240.7L362.35,238.27L362.8,235.55L361.75,233.69L359.41,232.62L357.8,231.15L356.26,228.96L358.65,227.79L358.78,225.21L360.44,224.26L361.53,221.19L361.5,219.55L363.6,218.91L362.5,215.57L363.78,214.32L365.89,211L366.92,210.79L371.91,208.53L377.45,201.58L386.44,194.44L388.92,193.04L392.02,192.16Z" class="land" id="LR-CM" title="Grand Cape Mount"/>
  </g>
</svg>