<?xml version="1.0" encoding="UTF-8"?>
<svg xmlns="http://www.w3.org/2000/svg" width="270.3" height="262.27" viewBox="344.85 125.87 270.3 262.27" style="background-color:#000000">
  <!-- Created using SVG Map Generator: dojo.amcharts.com/svg-map-generator -->
  <style>
    .land { fill: #ffffff; stroke: #000000; stroke-width: 0.65; }
  </style>
  <g id="polygons">
    <path d="M611.91,227.16L578.67,227.62L578.28,207.97L577.63,175.01L577.55,170.81L578.09,170.45L578.3,161.82L579.05,153.72L581.3,146.61L584.06,147.34L588.49,147.49L594,149.25L595.54,151L603.17,151.28L605.25,150.47L610.47,151.74L612.5,155.93L611.4,160L608.56,162.07L608.77,167.97L610.83,172.96L611.16,174.7L609.69,179.88L606.31,185.13L606.17,186.82L607.68,189.4L608.08,193.04L609.36,195.7L609.08,198.91L611.59,204.45Z" class="land" id="LY-BU" title="Al Buţnān"/>
    <path d="M549.03,169.4L555.74,167.94L561.96,166.91L568.8,166.97L572.39,167.78L575.38,170.21L577.55,170.81L577.63,175.01L578.28,207.97L578.67,227.62L611.91,227.16L611.97,246.65L610.46,246.49L598.41,246.79L578.81,247.14L559.22,247.27L539.12,247L524.48,247.12L512.25,247.16L512.03,234.63L511.98,220.75L506.96,219.94L506.87,215.74L507.47,209.94L508.31,206.38L510.22,202.13L510.46,199.04L509.2,193.6L509.98,188.01L509.92,183.7L511.39,184.57L516.12,184.32L523.29,180.48L526.74,176.66L530.66,169.45L530.97,166.95L533.66,166.88L533.55,168.43L535.78,170.27L539.78,171.65L545.93,170.53Z" class="land" id="LY-WA" title="Al Wāḩāt"/>
    <path d="M421.97,244.18L427.78,244.13L428.36,246.1L428.6,250.44L430.04,252.09L430.48,254.15L426.29,258.07L426.23,262.07L422.02,264.28L419.67,264.82L417.28,266.19L414.77,269.01L410.1,271.05L401.85,272.07L396.39,274.89L387.38,274.28L385.98,274.61L382.87,276.81L382.87,276.26L381.41,272.24L381.6,270.53L383.64,265.03L384.16,261.47L392.06,256.45L396.96,252.36L398.7,252.02L406.74,245.82L411.68,242.24L415.58,242.37Z" class="land" id="LY-WD" title="Wādī al Ḩayāt"/>
    <path d="M459.91,233.59L460.58,238.12L460.24,242.98L461.7,246.82L462.02,247.28L459.22,248.96L457.31,250.92L444.35,250.97L441.8,251.99L437.09,257.57L435.5,258.95L432.39,260.55L427.33,262.11L426.23,262.07L426.29,258.07L430.48,254.15L430.04,252.09L428.6,250.44L428.36,246.1L427.78,244.13L434.69,244.08L438.61,240.77L443.47,237.36L446.78,235.96L450.89,235.56L453.31,233.11Z" class="land" id="LY-SB" title="Sabhā"/>
    <path d="M506.96,219.94L511.98,220.75L512.03,234.63L512.26,247.26L512.28,264.28L503.26,263.86L498.96,262.79L496.66,262.69L492.8,263.4L490.03,265.49L487.67,266.27L480.94,266.56L473.12,263.65L469.96,260.02L468.66,256.07L464.22,250.5L461.7,246.82L460.24,242.98L460.58,238.12L459.91,233.59L461.89,229.99L462.06,228.75L459.38,226.09L456.73,224.84L451.94,224.68L449.69,226.47L445.48,226.37L444.45,221.56L437.77,216.06L435.23,211.11L435.63,206.34L437.64,205.17L439.81,202.65L440.83,202.61L441.82,204.66L444.46,204.48L446.19,203.05L448.83,202.76L450.43,201.63L454.29,201.7L456.68,203.67L459.1,204.33L460.99,203.64L465.76,200.45L468.84,201.27L471.65,203.51L475.78,202.34L477.99,200.49L481.22,201.04L484.69,203.23L487.56,201.59L488.51,199.46L490.49,199.18L492.1,200.9L492.7,204.67L494.13,206.66L493.6,213.29L494.55,215.06L499.82,219.29L501.67,220.1Z" class="land" id="LY-JU" title="Al Jufrah"/>
    <path d="M392.69,216.21L392.7,214.35L390.79,209.5L388.43,206.37L388.44,202.43L386.59,189.57L386.54,182.19L386.1,179.68L390.74,172.11L392.06,169.06L390.5,165.92L389.71,161.03L389.53,155.26L390.55,152.73L390.67,146.09L392.48,146.15L392.56,146.15L406.52,147.03L409.81,146.21L413.24,143.9L413.45,145.79L415.28,150.43L418.12,159.16L419.19,161.27L420.15,164.91L422.78,167.15L424.16,169.38L425.17,173.15L427.74,174.68L433.61,180.03L441.02,182.95L441.94,184.69L443.54,191.59L441.24,194.84L440.54,197.26L440.83,202.61L439.81,202.65L437.64,205.17L435.63,206.34L431.28,201.77L426.34,198.85L423.54,198.97L422.17,200.11L419.18,205.07L417.79,208.89L413.4,214.13L409.36,217.08L405.73,220.77L402.79,220.39L402.86,218.93L400.19,217.99L397.63,217.77Z" class="land" id="LY-JG" title="Al Jabal al Gharbī"/>
    <path d="M406.52,147.03L404.84,146.93L405.22,145.01L407.42,140.59L408.65,134.6L410.47,134.06L411.45,140.05L413.24,143.9L409.81,146.21Z" class="land" id="LY-JI" title="Al Jafārah"/>
    <path d="M549.03,169.4L545.93,170.53L539.78,171.65L535.78,170.27L533.55,168.43L533.66,166.88L530.97,166.95L527.61,161.09L526.39,155.12L526.9,151.45L528.66,147.44L536.43,140.06L542.33,137.57L542,138.7L541.84,147.18L542.72,149.16L542.32,155.6L544.99,157.94L548.9,158.32L548.61,165.45Z" class="land" id="LY-BA" title="Banghāzī"/>
    <path d="M542.33,137.57L545.36,136.15L549.62,135.66L551.04,138.13L550.61,141.52L551.65,144.59L556.15,152.26L556.27,156.39L555.44,159.34L555.3,164.91L555.74,167.94L549.03,169.4L548.61,165.45L548.9,158.32L544.99,157.94L542.32,155.6L542.72,149.16L541.84,147.18L542,138.7Z" class="land" id="LY-MJ" title="Al Marj"/>
    <path d="M560.94,132.91L561.67,137.26L561.63,142.03L562.01,147.58L561.63,152.54L560.6,160.47L561.96,166.91L555.74,167.94L555.3,164.91L555.44,159.34L556.27,156.39L556.15,152.26L551.65,144.59L550.61,141.52L551.04,138.13L549.62,135.66L551.38,134.98L553.96,132.63L555.76,132.23L558.46,133.18Z" class="land" id="LY-JA" title="Al Jabal al Akhḑar"/>
    <path d="M581.3,146.61L579.05,153.72L578.3,161.82L578.09,170.45L577.55,170.81L575.38,170.21L572.39,167.78L568.8,166.97L561.96,166.91L560.6,160.47L561.63,152.54L562.01,147.58L561.63,142.03L561.67,137.26L560.94,132.91L563.43,133.88L566.93,133.88L569.12,135.41L578.72,138.29L579.76,141.64L578.87,144.71Z" class="land" id="LY-DR" title="Darnah"/>
    <path d="M404.84,146.93L392.56,146.15L392.48,146.15L395.01,143.06L397.76,141.72L402.26,135.25L402.57,134.99L405.19,135.26L408.65,134.6L407.42,140.59L405.22,145.01Z" class="land" id="LY-ZA" title="Az Zāwiyah"/>
    <path d="M423.59,135.35L421.22,138.81L417.52,139.42L416.69,141.93L413.24,143.9L411.45,140.05L410.47,134.06L412.48,132.99L415.61,133.16L419.3,135.18Z" class="land" id="LY-TB" title="Ţarābulus"/>
    <path d="M415.28,150.43L413.45,145.79L413.24,143.9L416.69,141.93L417.52,139.42L421.22,138.81L423.59,135.35L429.42,136.88L434.34,140.83L439.79,142.23L439.64,144L436.89,149.62L435.02,150.94L430.22,150.26L424.79,149.1L418.99,149.67Z" class="land" id="LY-MB" title="Al Marqab"/>
    <path d="M454.43,160.88L448.6,165.64L444.76,174.13L441.02,182.95L433.61,180.03L427.74,174.68L425.17,173.15L424.16,169.38L422.78,167.15L420.15,164.91L419.19,161.27L418.12,159.16L415.28,150.43L418.99,149.67L424.79,149.1L430.22,150.26L435.02,150.94L436.89,149.62L439.64,144L439.79,142.23L446.51,143.39L447.97,144.83L449.86,149.29L450.35,153.11L452.4,158.12Z" class="land" id="LY-MI" title="Mişrātah"/>
    <path d="M506.96,219.94L501.67,220.1L499.82,219.29L494.55,215.06L493.6,213.29L494.13,206.66L492.7,204.67L492.1,200.9L490.49,199.18L488.51,199.46L487.56,201.59L484.69,203.23L481.22,201.04L477.99,200.49L475.78,202.34L471.65,203.51L468.84,201.27L465.76,200.45L460.99,203.64L459.1,204.33L456.68,203.67L454.29,201.7L450.43,201.63L448.83,202.76L446.19,203.05L444.46,204.48L441.82,204.66L440.83,202.61L440.54,197.26L441.24,194.84L443.54,191.59L441.94,184.69L441.02,182.95L444.76,174.13L448.6,165.64L454.43,160.88L457.4,163.03L461.41,164.81L467.36,166.33L472.18,166.38L478.94,167.06L486.06,170.07L491.32,171.88L493.42,173.21L495.21,173.41L498.32,175.02L501.85,178.28L504.6,179.74L505.79,181.69L509.92,183.7L509.98,188.01L509.2,193.6L510.46,199.04L510.22,202.13L508.31,206.38L507.47,209.94L506.87,215.74Z" class="land" id="LY-SR" title="Surt"/>
    <path d="M384.16,261.47L383.64,265.03L381.6,270.53L381.41,272.24L382.87,276.26L382.81,282.64L383.48,287.67L385.9,296.86L385.68,298.17L384.73,297.35L371.53,292.96L367,294.35L363.82,292.51L362.7,289.32L359.99,287.35L359.82,279.74L358.95,277.38L349.42,264.02L349.03,262.98L350.79,259.55L356.71,256.72L357.72,253.93L357.96,250.36L356.53,248.91L354.79,241.92L355.37,239.44L356.47,237.88L358.31,231.96L364.02,234.83L370.47,236.68L374.4,237.4L378,239.2L378.96,241.28L380.57,252.14L382.22,259.46L382.49,262.08Z" class="land" id="LY-GT" title="Ghāt"/>
    <path d="M435.63,206.34L435.23,211.11L437.77,216.06L444.45,221.56L445.48,226.37L449.69,226.47L451.94,224.68L456.73,224.84L459.38,226.09L462.06,228.75L461.89,229.99L459.91,233.59L453.31,233.11L450.89,235.56L446.78,235.96L443.47,237.36L438.61,240.77L434.69,244.08L421.97,244.18L415.58,242.37L411.68,242.24L406.74,245.82L398.7,252.02L396.96,252.36L392.06,256.45L384.16,261.47L382.49,262.08L382.22,259.46L380.57,252.14L378.96,241.28L378,239.2L374.4,237.4L370.47,236.68L364.02,234.83L358.31,231.96L358.38,231.05L355.72,223.44L356.51,217.16L358.99,216.17L361.89,215.8L364.98,217.95L368.56,217.26L374.17,213.33L375.03,213.2L376.24,216.87L380.48,218.85L382.84,219.02L384.61,218.2L388.82,217.72L392.33,218.89L392.69,216.21L397.63,217.77L400.19,217.99L402.86,218.93L402.79,220.39L405.73,220.77L409.36,217.08L413.4,214.13L417.79,208.89L419.18,205.07L422.17,200.11L423.54,198.97L426.34,198.85L431.28,201.77Z" class="land" id="LY-WS" title="Wādī ash Shāţi’"/>
    <path d="M511.69,340.5L461.48,314.22L430.45,329.69L419.19,319.64L396.76,314.21L392.58,313.89L392.41,311.87L385.68,298.17L385.9,296.86L383.48,287.67L382.81,282.64L382.87,276.81L385.98,274.61L387.38,274.28L396.39,274.89L401.85,272.07L410.1,271.05L414.77,269.01L417.28,266.19L419.67,264.82L422.02,264.28L426.23,262.07L427.33,262.11L432.39,260.55L435.5,258.95L437.09,257.57L441.8,251.99L444.35,250.97L457.31,250.92L459.22,248.96L462.02,247.28L464.22,250.5L468.66,256.07L469.96,260.02L473.12,263.65L480.94,266.56L487.67,266.27L490.03,265.49L492.8,263.4L496.66,262.69L498.96,262.79L503.26,263.86L512.28,264.28L512.28,265.69Z" class="land" id="LY-MQ" title="Murzuq"/>
    <path d="M611.97,246.65L611.38,376.27L594.53,376.59L594.33,385.48L583.21,378.87L575.21,374.68L552.05,361.44L511.69,340.5L512.28,265.69L512.26,247.26L512.25,247.16L524.48,247.12L539.12,247L559.22,247.27L578.81,247.14L598.41,246.79L610.46,246.49Z" class="land" id="LY-KF" title="Al Kufrah"/>
    <path d="M402.57,134.99L402.26,135.25L397.76,141.72L395.01,143.06L392.48,146.15L390.67,146.09L386.63,145.44L384.87,142.98L385.66,141.89L383.75,138.46L383.86,133.2L384.69,128.52L390.4,129.59L395.02,132.82L398.8,134.58Z" class="land" id="LY-NQ" title="An Nuqāţ al Khams"/>
    <path d="M392.69,216.21L392.33,218.89L388.82,217.72L384.61,218.2L382.84,219.02L380.48,218.85L376.24,216.87L375.03,213.2L374.17,213.33L368.56,217.26L364.98,217.95L361.89,215.8L358.99,216.17L356.51,217.16L356.97,213.55L356.54,207L353.89,197.77L351.91,194.03L347.5,187.94L355.16,183.79L357.3,183.32L362.68,176.01L363.98,172.41L363.56,169.23L361.27,162.69L361.42,161.07L363.88,157.41L368.06,155.91L369.25,154.26L369.61,152.03L372.95,150.47L374.09,148.41L383.65,143.82L384.87,142.98L386.63,145.44L390.67,146.09L390.55,152.73L389.53,155.26L389.71,161.03L390.5,165.92L392.06,169.06L390.74,172.11L386.1,179.68L386.54,182.19L386.59,189.57L388.44,202.43L388.43,206.37L390.79,209.5L392.7,214.35Z" class="land" id="LY-NL" title="Nālūt"/>
  </g>
</svg>