<?xml version="1.0" encoding="UTF-8"?>
<svg xmlns="http://www.w3.org/2000/svg" width="276.53" height="262.3" viewBox="341.73 125.85 276.53 262.3" style="background-color:#000000">
  <!-- Created using SVG Map Generator: dojo.amcharts.com/svg-map-generator -->
  <style>
    .land { fill: #ffffff; stroke: #000000; stroke-width: 0.65; }
  </style>
  <g id="polygons">
    <path d="M567.54,299.39L567.62,299.2L567.67,298.83L567.68,298.56L567.77,298.18L567.84,298.07L567.86,297.74L567.91,297.67L567.93,297.23L568.07,296.95L568.08,296.59L568.18,296.26L568.15,296.1L568.31,295.66L568.33,295.37L568.41,295.17L568.48,294.69L568.57,294.38L568.63,293.98L568.71,293.74L568.63,293.46L568.43,292L568.4,291.58L568.33,291.48L568.32,291.1L568.24,290.97L568.23,290.69L568.1,290.1L568.1,289.88L568.01,289.37L568.51,289.14L568.6,289.03L568.85,288.92L569,288.81L569.5,288.53L569.62,288.43L569.98,288.22L570.26,288.09L570.37,287.98L570.58,287.88L570.33,287.4L570.22,287.25L569.97,286.79L569.66,286.16L569.57,286.07L569.36,285.61L569,284.99L569.11,284.5L569.82,282.47L570.18,280.6L570.51,279.09L570.52,277.96L570.64,277.6L570.34,277.12L570.31,276.98L570.02,276.41L569.88,276.05L569.8,275.99L569.71,275.73L569.53,275.4L569.23,274.76L569.1,274.45L568.89,274.08L568.73,273.66L568.59,273.47L568.48,273.14L568.33,272.87L568.28,272.6L568.16,272.47L568.01,272.22L568,272L567.69,271.57L567.69,271.36L567.6,271.24L567.63,271.13L574.74,256.2L575.88,256.21L575.98,256.3L577.39,256.27L578.38,251.3L582.83,251.26L583.38,251.51L583.76,251.75L584.58,252.14L585.41,252.61L586.02,252.88L586.3,252.86L586.4,252.77L587.25,252.77L587.37,252.69L588.19,252.68L588.44,252.62L589.22,252.63L589.29,252.55L590.29,252.52L590.43,252.43L591.01,252.43L591.03,252.36L592.19,252.38L592.28,252.29L593.3,252.29L593.44,252.22L594.34,252.14L594.91,252.11L595.3,252.05L596.39,251.97L597.66,251.83L598.76,251.8L598.85,251.82L600.43,251.82L600.74,251.86L603.97,251.93L605.86,251.95L606.13,251.99L608.8,252.03L609.15,252.07L611.17,252.06L611.69,252.13L614.22,252.16L614.57,252.21L615.55,252.2L615.56,252.64L615.56,253.63L615.56,254.72L615.55,256.44L615.56,257.7L615.54,257.98L615.53,259.82L615.54,260.02L615.53,261.12L615.54,262.61L615.53,263.29L615.53,264.73L615.55,265.51L615.54,265.69L615.54,266.98L615.56,267.78L615.55,268.41L615.57,269.33L615.57,269.87L615.37,269.99L613.09,271.04L612.86,271.16L612.85,271.81L612.87,273.75L612.89,275.84L612.91,277.61L612.88,280.01L612.88,280.59L612.86,281.33L612.22,283.26L611.76,284.68L611.39,285.78L611.62,286.58L611.67,287.06L611.57,287.19L611.17,287.47L611.01,287.55L610.64,287.92L610.44,288.37L610.37,288.73L610.21,289.08L610.14,289.47L610.13,289.89L610.06,290.42L610.05,290.68L609.77,291.66L609.67,291.87L609.49,292.09L608.93,292.47L608.67,292.58L607.59,292.66L607.32,292.71L607.01,292.83L606.76,292.99L606.42,293.43L606.23,293.59L605.69,294.19L605.14,294.92L604.89,295.13L604.45,295.27L604,295.57L603.89,295.82L603.99,296.56L603.98,296.76L603.79,297.51L603.82,298.07L602.31,298.08L601.89,298.09L601.78,298.06L601.34,298.08L600.2,298.07L599.01,298.08L596.75,298.07L594.96,297.98L593.79,297.91L593.44,297.91L592.7,297.87L591.8,297.81L591.45,297.8L589.03,297.64L587.54,297.74L586.9,297.79L585.21,297.96L584.37,298.02L583.63,298.11L582.49,298.19L582.04,298.24L581.05,298.33L578.77,298.54L577.69,298.64L577.35,298.64L577.25,298.67L576.6,298.71L574.44,298.87L573.58,298.94L572.18,299.05L571.41,299.09L571.28,299.12L570.75,299.13L569.4,299.24L568.92,299.28L568.64,299.27L568.51,299.32Z" class="land" id="ML-9" title="Ménaka"/>
    <path d="M531.41,234.35L530.36,232.43L512.18,217.6L520.53,212.98L522.11,212.33L522.36,212.01L523.94,211.31L524.11,211.04L524.81,210.85L526.56,209.14L526.93,209.16L529.28,206.73L529.63,206.66L530.66,205.51L531.01,205.44L531.85,204.58L532.07,204.49L533.1,203.56L533.26,203.56L534.12,202.66L534.36,202.59L535.07,201.85L535.29,201.85L536.13,200.94L536.41,200.87L537.28,199.99L537.49,199.92L537.92,199.43L538.79,198.71L539.72,197.97L540.69,197.11L541.88,196.25L542.03,196.06L542.27,195.69L543.22,192.68L543.89,190.4L544.47,188.38L545.44,185.21L545.67,184.59L545.78,185.22L547.08,186.07L548.24,186.85L549.57,187.73L549.86,187.93L550.47,188.32L552.54,189.71L553.19,190.12L554.04,190.69L556.39,192.24L557.4,192.93L558.58,193.72L559.69,194.44L562.89,196.55L564.3,197.47L564.97,197.93L565.14,198.38L565.31,199.21L565.37,199.96L565.38,200.62L565.27,201.73L565.12,202.49L564.84,203.67L564.82,203.91L564.87,204.29L565.07,204.64L565.14,204.72L565.64,204.85L566.2,204.83L566.59,204.58L566.95,204.51L567.27,204.53L567.46,204.61L567.64,204.76L567.86,205.15L567.91,205.52L568.01,205.66L568.34,205.91L568.56,205.96L569.15,206.02L569.72,206.17L570,206.28L570.85,206.64L571.22,206.73L571.98,207.06L572.67,207.44L572.98,207.91L573.05,208.21L573.13,208.85L573.27,210.4L573.39,210.52L574.01,211.01L574.87,211.59L575,211.72L575.28,212.25L575.45,212.39L576.04,212.32L576.45,212.33L576.65,212.36L576.87,212.7L577.13,213.21L577.32,213.41L577.5,213.42L577.91,213.05L578.27,213.04L578.85,213.36L579.33,213.09L579.44,213.1L579.51,213.26L579.72,213.58L579.97,213.76L580.26,213.88L580.5,213.8L580.8,213.49L581.05,213.06L581.34,212.7L581.54,212.55L581.76,212.47L582.15,212.58L582.59,212.79L582.85,212.95L583.28,213.28L583.56,213.54L583.92,213.94L584.26,214.37L584.54,214.83L584.87,215.41L584.97,215.78L585.26,216.33L585.46,216.55L585.74,216.61L586.3,216.5L586.57,216.62L586.85,216.97L587.14,217.16L587.46,217.26L587.62,217.25L587.91,217.32L588.2,217.51L589.45,217.52L590.29,217.51L590.6,217.61L591.07,217.66L591.29,217.82L591.7,218L592.04,218.11L592.68,218.16L593.42,218.3L594.55,218.46L594.81,218.54L595.18,218.7L595.5,219.02L595.79,219.22L596.08,219.33L596.31,219.38L596.94,219.84L597.89,220.43L598.11,220.52L598.58,220.62L598.91,220.64L598.97,220.71L598.95,220.92L598.84,221.4L598.92,221.61L598.92,222.08L598.68,222.67L598.64,223.21L598.9,223.47L598.99,223.7L598.97,223.88L598.83,224.07L598.64,224.74L598.61,224.97L598.64,225.19L598.74,225.44L598.87,225.64L599.25,226.04L599.19,226.23L599.03,226.51L599,226.7L599.14,227.01L599.47,227.47L599.57,227.69L599.62,227.91L599.6,228.17L599.43,228.55L599.32,228.66L598.84,228.96L598.6,229.21L598.4,229.54L598.28,229.89L598.4,230.16L598.33,230.36L598.06,230.66L597.96,230.88L597.84,231L597.47,231.51L597.09,231.7L596.93,231.92L596.96,232.12L596.91,232.28L596.97,232.46L597.14,232.75L597.14,232.97L597.72,233.44L597.91,233.55L598.3,233.88L598.64,234.03L599.36,234.62L599.59,234.76L599.72,235.08L599.99,235.34L600.35,235.54L600.63,235.75L600.98,235.67L602.41,235.38L604.03,235.04L606.19,234.6L606.55,234.51L606.98,234.44L608.54,234.13L610.27,233.77L611.93,233.42L613.8,233.04L614.63,232.85L615.59,232.67L615.61,233.51L615.6,234.98L615.62,235.53L615.62,238.15L615.61,238.63L615.61,239.73L615.6,241.56L615.58,242.16L615.6,242.63L615.59,243.29L615.58,244.95L615.57,245.66L615.57,248.44L615.57,250.09L615.56,251.01L615.55,252.2L614.57,252.21L614.22,252.16L611.69,252.13L611.17,252.06L609.15,252.07L608.8,252.03L606.13,251.99L605.86,251.95L603.97,251.93L600.74,251.86L600.43,251.82L598.85,251.82L598.76,251.8L597.66,251.83L596.39,251.97L595.3,252.05L594.91,252.11L594.34,252.14L593.44,252.22L593.3,252.29L592.28,252.29L592.19,252.38L591.03,252.36L591.01,252.43L590.43,252.43L590.29,252.52L589.29,252.55L589.22,252.63L588.44,252.62L588.19,252.68L587.37,252.69L587.25,252.77L586.4,252.77L586.3,252.86L586.02,252.88L585.41,252.61L584.58,252.14L583.76,251.75L583.38,251.51L582.83,251.26L578.38,251.3L577.39,256.27L575.98,256.3L575.88,256.21L574.74,256.2L575.26,254.95L565.32,257.41L564.71,257.13L564.52,256.94L564.25,256.87L563.75,256.46L563.59,256.43L563.39,256.17L563.21,256.03L563.15,256.11L562.89,255.77L562.29,255.36L562.16,255.22L561.77,254.94L561.38,255L561.2,254.79L560.99,254.86L560.73,254.67L560.53,254.73L560.35,254.65L560.25,254.53L559.85,254.5L559.71,254.38L559.4,254.38L559.24,254.25L558.74,254.16L558.5,254.05L558.34,254.05L558.25,253.97L557.92,253.9L557.84,253.83L557.56,253.81L557.5,253.75L557.18,253.65L557.11,253.69L556.67,253.48L556.38,253.47L556.22,253.34L556.06,253.42L555.79,253.2L555.59,253.14L553.57,253.12L553.3,252.85L553.23,252.83L553.06,252.5L552.79,252.26L552.52,251.92L552.52,251.76L552.38,251.54L552.4,250.98L552.79,250.8L552.86,250.65L553.02,250.65L553.21,250.44L553.3,250.27L553.46,250.1L553.62,249.83L553.42,249.54L553.19,249.14L547.09,238.31L543.22,237.32L531.44,234.42Z" class="land" id="ML-8" title="Kidal"/>
    <path d="M567.54,299.39L567.35,299.47L566.93,299.81L566.61,300.14L566.29,300.39L565.7,300.89L565.55,301.06L565.13,301.36L563.03,303.19L562.72,303.44L561.79,304.25L561.52,304.33L560.97,304.37L560.46,304.35L560.34,304.4L559.73,304.43L559.06,304.49L558.09,304.54L557.61,304.59L557.43,304.79L557.2,304.79L556.72,304.64L556.35,304.55L555.98,304.42L555.8,304.4L555.46,304.28L554.99,304.18L554.63,304.22L554.2,303.87L554,303.95L553.51,304.08L552.66,304.35L552.39,304.41L551.79,304.34L550.8,304.14L550.2,304.07L549.59,304.07L549.08,304.08L548.79,304.17L548.48,304.22L547.77,304.23L547.33,304.27L546.8,304.27L545.62,304.15L545.17,303.94L543.97,303.45L543.33,303.21L543.01,303.05L542.82,303.02L541.96,302.68L541.6,302.58L541.34,302.68L540.81,302.99L540.56,303.11L539.58,303.7L539.38,303.77L539.14,303.67L538.87,303.23L538.5,302.73L538.23,302.5L538.35,302.5L538.31,302.28L537.86,300.48L537.79,300.4L537.74,300.05L537.7,300L537.57,299.47L537.51,299.39L537.43,298.99L537.18,298.09L537.07,297.61L536.99,297.51L536.93,297.22L536.77,296.78L536.77,296.62L536.57,295.82L536.5,295.66L536.45,295.34L536.38,295.14L536.2,294.26L536.15,294.11L535.81,292.49L535.62,291.82L535.57,291.47L535.5,291.29L535.3,290.53L535.18,290.08L535.12,289.47L535.06,289.36L535.01,288.89L534.9,288.44L534.9,288.22L534.84,288.13L534.74,287.47L534.74,287.3L534.66,287.09L534.58,286.47L534.5,286.25L534.5,285.26L534.44,285.19L534.44,283.85L534.38,283.67L534.44,283.54L534.39,283.32L534.41,282.36L534.32,282.24L534.41,281.96L534.32,281.88L534.4,281.63L534.34,281.42L534.34,280.03L534.28,279.86L534.35,279.73L534.28,279.53L534.28,277.73L534.2,277.58L534.24,276.49L534.21,276.38L534.33,275.71L534.4,275.61L534.31,275.33L534.42,274.73L534.41,274.54L534.5,274.2L534.49,272.82L534.55,272.74L534.56,271.39L534.28,271.38L534.08,271.32L533.75,271.3L532.78,271.2L532.26,271.18L531.24,271.07L530.36,271.01L529.34,270.92L528.66,270.88L527.73,270.78L527.28,270.77L526.45,270.7L526.22,270.67L525.91,270.68L525.64,270.64L524.96,270.62L524.67,270.63L524.26,270.59L524.05,270.53L523.69,270.47L523.32,270.49L523.04,270.42L522.79,270.42L522.19,270.34L521.71,270.34L521.35,270.28L520.53,270.27L520.14,270.19L520.04,269.62L519.89,269.38L519.8,269.09L519.72,268.68L519.7,268.44L519.58,268.23L519.47,267.81L519.45,267.63L519.33,267.34L519.32,267.14L519.2,266.73L519.13,266.42L518.78,265.11L518.73,264.76L518.59,264.17L518.54,264.06L518.46,263.67L518.39,263.48L518.36,263.14L518.28,262.98L518.07,262.03L517.94,261.49L517.87,261.29L517.82,260.9L517.75,260.81L517.81,260.64L517.96,260.58L518.21,260.35L518.57,260.17L518.74,260.03L519.11,259.82L519.63,259.47L519.84,259.27L520.06,259.19L520.38,258.93L520.58,258.85L520.98,258.51L521.34,258.3L521.49,258.17L521.68,258.1L521.94,257.89L522.19,257.73L522.45,257.52L522.58,257.46L523.37,256.91L523.74,256.71L524,256.49L524.67,256.02L524.85,255.95L525.22,255.66L525.56,255.45L526.15,255.03L526.26,254.99L526.78,254.63L526.97,254.51L527.34,254.24L528.11,253.75L528.18,253.73L528.5,253.48L528.68,253.4L528.99,253.14L529.22,253.03L529.52,252.8L529.73,252.7L529.99,252.52L530.04,252.43L530.55,252.24L530.59,250.24L530.78,249.83L530.81,245.51L531.02,245.22L531.01,241.32L531.21,240.91L531.22,236.79L531.42,236.3L531.49,235.87L531.41,234.35L531.44,234.42L543.22,237.32L547.09,238.31L553.19,249.14L553.42,249.54L553.62,249.83L553.46,250.1L553.3,250.27L553.21,250.44L553.02,250.65L552.86,250.65L552.79,250.8L552.4,250.98L552.38,251.54L552.52,251.76L552.52,251.92L552.79,252.26L553.06,252.5L553.23,252.83L553.3,252.85L553.57,253.12L555.59,253.14L555.79,253.2L556.06,253.42L556.22,253.34L556.38,253.47L556.67,253.48L557.11,253.69L557.18,253.65L557.5,253.75L557.56,253.81L557.84,253.83L557.92,253.9L558.25,253.97L558.34,254.05L558.5,254.05L558.74,254.16L559.24,254.25L559.4,254.38L559.71,254.38L559.85,254.5L560.25,254.53L560.35,254.65L560.53,254.73L560.73,254.67L560.99,254.86L561.2,254.79L561.38,255L561.77,254.94L562.16,255.22L562.29,255.36L562.89,255.77L563.15,256.11L563.21,256.03L563.39,256.17L563.59,256.43L563.75,256.46L564.25,256.87L564.52,256.94L564.71,257.13L565.32,257.41L575.26,254.95L574.74,256.2L567.63,271.13L567.6,271.24L567.69,271.36L567.69,271.57L568,272L568.01,272.22L568.16,272.47L568.28,272.6L568.33,272.87L568.48,273.14L568.59,273.47L568.73,273.66L568.89,274.08L569.1,274.45L569.23,274.76L569.53,275.4L569.71,275.73L569.8,275.99L569.88,276.05L570.02,276.41L570.31,276.98L570.34,277.12L570.64,277.6L570.52,277.96L570.51,279.09L570.18,280.6L569.82,282.47L569.11,284.5L569,284.99L569.36,285.61L569.57,286.07L569.66,286.16L569.97,286.79L570.22,287.25L570.33,287.4L570.58,287.88L570.37,287.98L570.26,288.09L569.98,288.22L569.62,288.43L569.5,288.53L569,288.81L568.85,288.92L568.6,289.03L568.51,289.14L568.01,289.37L568.1,289.88L568.1,290.1L568.23,290.69L568.24,290.97L568.32,291.1L568.33,291.48L568.4,291.58L568.43,292L568.63,293.46L568.71,293.74L568.63,293.98L568.57,294.38L568.48,294.69L568.41,295.17L568.33,295.37L568.31,295.66L568.15,296.1L568.18,296.26L568.08,296.59L568.07,296.95L567.93,297.23L567.91,297.67L567.86,297.74L567.84,298.07L567.77,298.18L567.68,298.56L567.67,298.83L567.62,299.2Z" class="land" id="ML-7" title="Gao"/>
    <path d="M457.68,294.49L457.23,294.63L456.91,294.68L456.42,294.84L455.82,294.99L455.17,295.22L455.32,294.52L456.08,290.97L456.15,290.66L456.96,286.82L458.12,281.11L453.58,278.26L452.9,271.7L452.76,270.39L452.7,269.92L452.53,268.29L452.5,267.84L452.39,266.98L452.39,266.86L452.26,265.62L452.17,264.67L451.99,263.02L451.81,261.11L451.54,258.84L451.44,257.83L451.39,257.49L451.27,256.43L451.21,255.53L451.14,255.01L450.96,253.18L450.92,253.11L450.9,252.36L450.84,252.14L450.81,251.78L450.57,249.53L450.55,249.19L450.36,247.28L450.31,247.05L450.27,246.46L450.1,245.07L449.82,242.45L449.62,240.41L449.52,239.71L449.52,239.48L449.4,238.4L449.27,237.3L449.26,236.98L449.08,235.29L449.07,235.09L448.99,234.49L448.89,233.53L448.76,232.51L448.61,230.88L448.52,230.16L448.48,229.56L448.3,228.01L448.12,226.34L448.06,226.11L448.07,225.6L448.02,225.34L447.89,224.24L447.88,224.06L447.75,222.77L447.7,222.41L447.56,220.99L447.49,220.6L447.5,220.41L447.44,220.06L447.32,218.94L447.32,218.74L447.26,218.14L447.08,216.98L447.1,216.87L447.06,216.44L447.02,215.76L446.99,215.44L447.05,215.31L446.99,215.16L446.97,214.89L446.61,212.12L446.62,212.01L446.22,208.36L446.14,207.76L446.12,207.42L446.08,207.27L446.05,206.79L446,206.55L446,206.3L445.86,204.97L445.8,204.67L445.77,204.24L445.71,203.88L445.65,203.15L445.54,202.42L445.51,201.94L445.4,201.06L445.15,198.74L444.99,197.25L444.86,195.94L444.81,195.7L444.82,195.46L444.7,194.37L444.62,193.76L444.43,191.81L444.34,191.08L444.31,190.96L444.09,188.88L444.06,188.52L443.96,187.67L443.96,187.55L443.84,186.44L443.8,186.2L443.59,184.25L443.5,183.28L443.35,182.07L443.34,181.71L443.1,179.57L443.1,179.24L443.05,179.12L442.96,178.17L442.75,176.45L442.64,175.14L442.51,174.05L442.41,173.33L442.32,172.47L442.22,171.38L442.03,169.72L442.06,169.62L441.99,169.33L441.91,168.44L441.8,167.4L441.8,167.27L441.66,166.09L441.62,165.57L441.55,165.04L441.53,164.57L441.44,163.89L441.38,163.29L441.3,162.69L441.23,162.03L441.26,161.74L441.18,161.48L441.19,161.3L441.13,161.09L441.06,160.4L440.99,160.03L440.85,158.64L440.86,158.32L440.73,157.99L440.77,157.74L440.72,157.42L440.72,157.18L440.68,156.96L440.52,155.63L440.5,155.02L440.41,154.55L440.42,154.3L440.36,154.17L440.24,153.06L440.25,152.94L440.16,152.46L440.18,152.21L440.08,151.72L440.1,151.6L439.93,150.37L439.93,150.14L439.84,149.65L439.67,147.81L439.61,147.6L439.63,147.45L439.56,146.9L439.61,146.58L439.56,146.01L439.32,143.86L439.03,140.84L438.94,140.08L438.83,138.81L437.95,130.6L437.91,129.94L437.76,128.5L441.54,128.5L444.28,128.5L447.93,128.5L449.76,128.5L452.5,128.5L455.24,128.5L457.98,128.5L460.73,128.5L463.5,128.5L463.5,128.57L464.47,128.6L464.54,128.57L465.02,128.6L465.07,128.57L466.26,128.56L466.57,128.81L467.39,129.32L469.08,130.49L473.1,133.36L479.34,137.67L480.21,138.27L480.6,138.55L481.69,139.27L484,140.83L484.21,140.99L484.78,141.35L484.94,141.49L486.7,142.69L486.85,142.75L487.97,143.56L488.09,143.59L488.24,143.74L491.23,145.82L491.53,146.05L493.11,147.09L494.46,148.03L496.3,149.31L496.42,149.35L497.19,149.88L497.27,149.97L498,150.46L498.8,151.01L499.39,151.45L500.7,152.34L501.14,152.62L501.84,153.15L502.92,153.86L503.31,154.15L503.86,154.52L505,155.32L505.08,155.36L505.92,155.96L506.23,156.15L506.49,156.35L507.86,157.31L508.04,157.41L508.43,157.71L508.69,157.87L509.29,158.3L510.29,158.97L510.95,159.45L511.77,160.02L511.99,160.19L512.42,160.46L513.17,161.01L514.47,161.91L515.19,162.4L515.9,162.93L516.18,163.09L516.39,163.27L516.92,163.62L517.96,164.36L518.31,164.59L518.76,164.93L519.35,165.34L519.76,165.66L521.13,166.62L521.58,166.92L523.14,168.04L524.17,168.76L525.62,169.82L526.89,170.73L527.11,170.9L528.3,171.71L529.15,172.34L529.94,172.9L530.53,173.29L530.63,173.39L531.19,173.78L532.24,174.54L532.48,174.69L533.43,175.38L533.76,175.59L534.34,176.02L534.4,176.03L535.7,176.96L535.93,177.12L537.4,178.18L538.27,178.77L538.74,179.12L539.07,179.32L539.79,179.86L540.24,180.15L540.41,180.29L541.33,180.92L542.2,181.55L543,182.12L543.04,182.19L543.35,182.34L544.1,182.89L544.18,182.98L544.57,183.24L545.32,183.8L545.56,183.91L545.67,184.59L545.44,185.21L544.47,188.38L543.89,190.4L543.22,192.68L542.27,195.69L542.03,196.06L541.88,196.25L540.69,197.11L539.72,197.97L538.79,198.71L537.92,199.43L537.49,199.92L537.28,199.99L536.41,200.87L536.13,200.94L535.29,201.85L535.07,201.85L534.36,202.59L534.12,202.66L533.26,203.56L533.1,203.56L532.07,204.49L531.85,204.58L531.01,205.44L530.66,205.51L529.63,206.66L529.28,206.73L526.93,209.16L526.56,209.14L524.81,210.85L524.11,211.04L523.94,211.31L522.36,212.01L522.11,212.33L520.53,212.98L512.18,217.6L530.36,232.43L531.41,234.35L531.49,235.87L531.42,236.3L531.22,236.79L531.21,240.91L531.01,241.32L531.02,245.22L530.81,245.51L530.78,249.83L530.59,250.24L530.55,252.24L530.04,252.43L529.99,252.52L529.73,252.7L529.52,252.8L529.22,253.03L528.99,253.14L528.68,253.4L528.5,253.48L528.18,253.73L528.11,253.75L527.34,254.24L526.97,254.51L526.78,254.63L526.26,254.99L526.15,255.03L525.56,255.45L525.22,255.66L524.85,255.95L524.67,256.02L524,256.49L523.74,256.71L523.37,256.91L522.58,257.46L522.45,257.52L522.19,257.73L521.94,257.89L521.68,258.1L521.49,258.17L521.34,258.3L520.98,258.51L520.58,258.85L520.38,258.93L520.06,259.19L519.84,259.27L519.63,259.47L519.11,259.82L518.74,260.03L518.57,260.17L518.21,260.35L517.96,260.58L517.81,260.64L517.75,260.81L517.82,260.9L517.87,261.29L517.94,261.49L518.07,262.03L518.28,262.98L518.36,263.14L518.39,263.48L518.46,263.67L518.54,264.06L518.59,264.17L518.73,264.76L518.78,265.11L519.13,266.42L519.2,266.73L519.32,267.14L519.33,267.34L519.45,267.63L519.47,267.81L519.58,268.23L519.7,268.44L519.72,268.68L519.8,269.09L519.89,269.38L520.04,269.62L520.14,270.19L520.53,270.27L521.35,270.28L521.71,270.34L522.19,270.34L522.79,270.42L523.04,270.42L523.32,270.49L523.69,270.47L524.05,270.53L524.26,270.59L524.67,270.63L524.96,270.62L525.64,270.64L525.91,270.68L526.22,270.67L526.45,270.7L527.28,270.77L527.73,270.78L528.66,270.88L529.34,270.92L530.36,271.01L531.24,271.07L532.26,271.18L532.78,271.2L533.75,271.3L534.08,271.32L534.28,271.38L534.56,271.39L534.55,272.74L534.49,272.82L534.5,274.2L534.41,274.54L534.42,274.73L534.31,275.33L534.4,275.61L534.33,275.71L534.21,276.38L534.24,276.49L534.2,277.58L534.28,277.73L534.28,279.53L534.35,279.73L534.28,279.86L534.34,280.03L534.34,281.42L534.4,281.63L534.32,281.88L534.41,281.96L534.32,282.24L534.41,282.36L534.39,283.32L534.44,283.54L534.38,283.67L534.44,283.85L534.44,285.19L534.5,285.26L534.5,286.25L534.58,286.47L534.66,287.09L534.74,287.3L534.74,287.47L534.84,288.13L534.9,288.22L534.9,288.44L535.01,288.89L535.06,289.36L535.12,289.47L535.18,290.08L535.3,290.53L535.5,291.29L535.57,291.47L535.62,291.82L535.81,292.49L536.15,294.11L536.2,294.26L536.38,295.14L536.45,295.34L536.5,295.66L536.57,295.82L536.77,296.62L536.77,296.78L536.93,297.22L536.99,297.51L537.07,297.61L537.18,298.09L537.43,298.99L537.51,299.39L537.57,299.47L537.7,300L537.74,300.05L537.79,300.4L537.86,300.48L538.31,302.28L538.35,302.5L538.23,302.5L538.17,302.49L537.43,302.5L537.05,302.53L535.29,302.51L534.23,302.51L533.94,302.52L533.5,302.77L533.17,302.66L532.18,302.45L532.1,302.35L531.61,302.28L530.86,302.09L530.69,302.03L530.18,301.91L530.04,301.89L529.66,301.76L529.46,301.75L529.17,301.63L528.94,301.6L528.72,301.51L528.43,301.47L528.12,301.37L527.91,301.35L527.84,301.29L527.59,301.29L527.27,301.18L526.84,301.08L526.77,301.02L526.56,301.02L526.31,300.96L526.27,300.89L526.09,300.9L525.84,300.77L525.63,300.57L525.24,300.24L524.38,299.38L524.21,299.27L523.93,299.04L523.2,298.5L522.69,298.19L522.5,298.11L521.99,297.84L521.8,297.71L521.48,297.59L521.08,297.39L520.6,297.26L520.49,297.28L520.17,297.13L520.01,297.12L519.53,296.98L519.25,296.85L519.06,296.84L518.39,296.6L518.22,296.61L518.13,296.54L516.97,296.51L516.9,296.61L515.48,296.58L515.41,296.52L514.82,296.52L514.65,296.46L514.04,296.46L513.96,296.54L513.38,296.54L513.31,296.6L512.83,296.59L512.75,296.65L512.31,296.64L512.24,296.71L511.78,296.72L511.72,296.79L511.29,296.78L511.16,296.85L510.79,296.86L510.12,297.05L509.82,297.2L509.27,297.37L509.01,297.51L508.26,297.8L508.18,297.86L507.7,297.99L507.58,298.11L507.19,298.19L506.88,298.31L506.72,298.3L506.58,298.38L506.16,298.52L505.63,298.65L505.54,298.71L505.37,298.65L505.12,298.64L504.58,298.46L504.36,298.45L504.16,298.38L503.48,297.86L503.09,297.6L502.8,297.07L502.71,296.78L502.5,296.41L502.46,296.25L502.23,295.91L502.13,295.66L501.85,295.3L501.78,295.11L501.53,294.76L501.48,294.57L501.22,294.23L501.16,294.05L500.88,293.7L500.84,293.5L500.58,293.16L500.45,292.94L500.39,292.67L500.37,292.32L500.32,291.9L500.26,291.72L499.92,291.22L499.71,291.04L499.61,290.85L499.37,290.63L498.46,290.64L498.23,290.58L497.91,290.56L497.03,290.63L496.89,290.6L496.89,289.47L496.79,288.79L496.62,288.67L496.46,288.71L496.17,288.7L495.24,288.97L494.76,289.14L494.43,289.16L493.94,289.11L493.38,289.2L493.15,289.18L492.81,289.33L492.62,289.29L492.6,289.2L492.03,289.28L491.84,289.42L491.68,289.62L491.41,289.75L491.13,290.33L491.24,290.52L491.48,290.55L491.6,290.69L491.45,290.84L491.57,291.27L491.59,291.48L491.38,291.67L491.17,291.68L490.87,291.85L490.44,291.93L489.39,291.63L488.71,291.51L488.56,291.41L488.48,291.45L488.39,291.73L488.09,292.19L488.02,292.24L488.12,292.43L487.83,292.95L487.64,293.08L487.4,293.06L487.28,293.27L487.27,293.44L487.19,293.7L487.02,294.09L487,294.24L486.8,294.47L486.64,294.76L486.37,295.04L486.24,295.08L485.78,295.61L485.7,295.66L485.47,295.51L484.71,295.5L484.55,295.44L484.2,295.46L484.08,295.57L483.89,295.5L483.46,295.51L483.33,295.56L483.15,295.45L483.03,295.45L482.93,295.29L482.62,295.31L482.53,295.39L482.34,295.39L482.07,295.26L481.94,295.15L482.12,295.07L482.2,294.91L482.27,294.5L482.48,294.12L482.48,293.89L482.36,293.76L482.33,293.58L482.2,293.46L482.2,293.36L482.01,293.07L481.98,292.81L482.02,292.46L481.83,292.34L481.47,292.2L480.89,292.23L480.67,292.06L480.47,291.85L480.06,291.52L479.94,291.37L479.8,291.29L479.51,290.87L479.11,290.1L479.14,289.99L479.04,289.89L478.27,289.97L477.71,290.06L477.58,290.2L477.27,290.4L476.67,290.43L476.31,290.58L476.27,290.9L476.2,291.04L475.87,291.18L475.67,291.17L475.54,291.33L475.07,291.39L474.83,291.95L474.7,292.19L474.47,292.46L474.23,292.67L474.07,292.73L473.17,292.73L473.1,292.7L472.57,292.71L471.5,293.19L471.33,293.25L470.56,293.62L470.09,293.8L469.96,293.91L469.76,293.87L469.11,293.81L468.84,293.89L468.72,294.01L468.3,294.01L468.22,293.94L466,293.85L465.91,293.77L465.72,293.74L465.57,293.66L465.25,293.7L465.18,293.85L464.97,293.95L464.98,293.8L464.85,293.76L464.29,293.71L464.23,293.68L463.68,293.66L463.6,293.59L463.24,293.59L463.1,293.65L462.42,293.67L462.32,293.69L461.95,293.68L461.73,293.63L461.19,293.55L461.03,293.51L460.37,292.89L460.09,292.69L459.78,292.4L459.28,292.92L459,293.25L458.65,293.6L458.54,293.67L458.17,294.08L458.07,294.13Z" class="land" id="ML-6" title="Tombouctou"/>
    <path d="M480.55,329.37L480.5,329.01L480.5,328.16L480.64,327.7L480.43,327.3L480.33,327.02L480.02,326.52L479.71,325.74L479.71,325.62L479.58,325.12L479.59,325L479.45,324.48L479.4,324.11L479.34,323.96L479.31,323.62L479.21,323.56L478.65,322.8L478.5,322.52L478.43,322.17L478.29,322.04L478.11,321.95L477.87,322.05L477.19,322.21L475.85,322.74L475.34,322.93L474.86,323.08L474.76,323.22L474.49,323.77L474.4,324.07L474.3,324.13L473.92,324.55L473.97,324.74L473.81,325.12L473.5,325.56L473.17,325.88L472.86,325.86L472.6,325.89L472.33,326.06L472.49,326.32L472.27,326.56L472,326.73L471.91,326.82L471.27,327.21L470.91,327.48L470.44,327.48L470.04,327.26L469.69,327.32L469.13,327.33L468.73,327.24L468.46,327.09L467.91,327.25L467.49,327.13L467.32,327.13L466.94,327.21L466.23,327.12L465.9,327.1L465.59,327.04L465.48,326.73L465.39,325.79L465.36,325.75L465.31,325.28L465.35,325.16L465.65,324.64L465.52,324.22L465.43,323.83L465.47,323.61L465.46,323.38L465.28,323.03L465.33,322.85L465.6,322.42L465.81,322.12L465.89,321.47L465.86,321.28L465.76,321.02L465.38,319.88L465.14,319.24L464.28,319.32L464.14,319.43L463.95,319.7L463.69,320.3L463.71,320.89L463.79,321.57L463.53,321.63L462.76,321.75L462.6,321.81L462.38,321.74L461.44,321.6L461.04,319.87L461.21,319.51L461.55,318.91L461.38,318.71L461.04,318.51L460.54,318.13L460.12,317.53L459.93,317.12L460.03,316.64L460.03,316.5L459.41,316.16L458.34,315.45L458.17,315.31L457.48,314.8L456.6,314.29L455.78,313.78L455.32,313.53L455.09,313.37L454.72,313.17L454.01,312.7L453.87,312.64L453.42,312.31L453.11,312.15L452.65,311.83L452.68,311.36L452.92,311.15L453.34,310.86L453.39,310.32L453.44,310.09L453.47,309.61L453.74,309.29L453.75,308.9L453.66,308.79L453.7,308.52L453.63,308.48L453.64,308.14L453.56,307.96L453.8,307.33L454.14,306.54L454.23,306.37L454.24,306.13L454.35,305.92L454.44,305.59L454.47,305.35L454.57,305.06L455.36,304.98L456,304.78L456.31,304.73L456.67,304.62L457.01,304.46L457.82,304.29L458.12,304.28L458.62,304.36L459.06,304.31L459.17,304.26L459.56,303.91L459.64,303.91L459.78,303.71L460.15,303.45L460.28,303.18L460.46,302.92L460.99,301.99L461.49,301.2L461.91,300.59L461.58,299.65L461.48,299.27L461.24,298.63L460.97,297.76L460.96,297.57L460.88,297.39L460.86,297.16L460.76,296.84L460.57,296.03L460.34,295.7L460.02,295.55L459.7,295.49L459.11,295.46L458.52,295.47L457.91,295.42L457.75,294.73L457.68,294.49L458.07,294.13L458.17,294.08L458.54,293.67L458.65,293.6L459,293.25L459.28,292.92L459.78,292.4L460.09,292.69L460.37,292.89L461.03,293.51L461.19,293.55L461.73,293.63L461.95,293.68L462.32,293.69L462.42,293.67L463.1,293.65L463.24,293.59L463.6,293.59L463.68,293.66L464.23,293.68L464.29,293.71L464.85,293.76L464.98,293.8L464.97,293.95L465.18,293.85L465.25,293.7L465.57,293.66L465.72,293.74L465.91,293.77L466,293.85L468.22,293.94L468.3,294.01L468.72,294.01L468.84,293.89L469.11,293.81L469.76,293.87L469.96,293.91L470.09,293.8L470.56,293.62L471.33,293.25L471.5,293.19L472.57,292.71L473.1,292.7L473.17,292.73L474.07,292.73L474.23,292.67L474.47,292.46L474.7,292.19L474.83,291.95L475.07,291.39L475.54,291.33L475.67,291.17L475.87,291.18L476.2,291.04L476.27,290.9L476.31,290.58L476.67,290.43L477.27,290.4L477.58,290.2L477.71,290.06L478.27,289.97L479.04,289.89L479.14,289.99L479.11,290.1L479.51,290.87L479.8,291.29L479.94,291.37L480.06,291.52L480.47,291.85L480.67,292.06L480.89,292.23L481.47,292.2L481.83,292.34L482.02,292.46L481.98,292.81L482.01,293.07L482.2,293.36L482.2,293.46L482.33,293.58L482.36,293.76L482.48,293.89L482.48,294.12L482.27,294.5L482.2,294.91L482.12,295.07L481.94,295.15L482.07,295.26L482.34,295.39L482.53,295.39L482.62,295.31L482.93,295.29L483.03,295.45L483.15,295.45L483.33,295.56L483.46,295.51L483.89,295.5L484.08,295.57L484.2,295.46L484.55,295.44L484.71,295.5L485.47,295.51L485.7,295.66L485.78,295.61L486.24,295.08L486.37,295.04L486.64,294.76L486.8,294.47L487,294.24L487.02,294.09L487.19,293.7L487.27,293.44L487.28,293.27L487.4,293.06L487.64,293.08L487.83,292.95L488.12,292.43L488.02,292.24L488.09,292.19L488.39,291.73L488.48,291.45L488.56,291.41L488.71,291.51L489.39,291.63L490.44,291.93L490.87,291.85L491.17,291.68L491.38,291.67L491.59,291.48L491.57,291.27L491.45,290.84L491.6,290.69L491.48,290.55L491.24,290.52L491.13,290.33L491.41,289.75L491.68,289.62L491.84,289.42L492.03,289.28L492.6,289.2L492.62,289.29L492.81,289.33L493.15,289.18L493.38,289.2L493.94,289.11L494.43,289.16L494.76,289.14L495.24,288.97L496.17,288.7L496.46,288.71L496.62,288.67L496.79,288.79L496.89,289.47L496.89,290.6L497.03,290.63L497.91,290.56L498.23,290.58L498.46,290.64L499.37,290.63L499.61,290.85L499.71,291.04L499.92,291.22L500.26,291.72L500.32,291.9L500.37,292.32L500.39,292.67L500.45,292.94L500.58,293.16L500.84,293.5L500.88,293.7L501.16,294.05L501.22,294.23L501.48,294.57L501.53,294.76L501.78,295.11L501.85,295.3L502.13,295.66L502.23,295.91L502.46,296.25L502.5,296.41L502.71,296.78L502.8,297.07L503.09,297.6L503.48,297.86L504.16,298.38L504.36,298.45L504.58,298.46L505.12,298.64L505.37,298.65L505.54,298.71L505.63,298.65L506.16,298.52L506.58,298.38L506.72,298.3L506.88,298.31L507.19,298.19L507.58,298.11L507.7,297.99L508.18,297.86L508.26,297.8L509.01,297.51L509.27,297.37L509.82,297.2L510.12,297.05L510.79,296.86L511.16,296.85L511.29,296.78L511.72,296.79L511.78,296.72L512.24,296.71L512.31,296.64L512.75,296.65L512.83,296.59L513.31,296.6L513.38,296.54L513.96,296.54L514.04,296.46L514.65,296.46L514.82,296.52L515.41,296.52L515.48,296.58L516.9,296.61L516.97,296.51L518.13,296.54L518.22,296.61L518.39,296.6L519.06,296.84L519.25,296.85L519.53,296.98L520.01,297.12L520.17,297.13L520.49,297.28L520.6,297.26L521.08,297.39L521.48,297.59L521.8,297.71L521.99,297.84L522.5,298.11L522.69,298.19L523.2,298.5L523.93,299.04L524.21,299.27L524.38,299.38L525.24,300.24L525.63,300.57L525.84,300.77L526.09,300.9L526.27,300.89L526.31,300.96L526.56,301.02L526.77,301.02L526.84,301.08L527.27,301.18L527.59,301.29L527.84,301.29L527.91,301.35L528.12,301.37L528.43,301.47L528.72,301.51L528.94,301.6L529.17,301.63L529.46,301.75L529.66,301.76L530.04,301.89L530.18,301.91L530.69,302.03L530.86,302.09L531.61,302.28L532.1,302.35L532.18,302.45L533.17,302.66L533.5,302.77L533.22,302.98L532.82,303.22L532.22,303.67L531.69,304.21L531.23,304.7L530.41,305.35L530.54,305.4L530.11,305.85L529.61,306.25L529.29,306.48L528.8,306.72L528.53,306.91L527.87,307.47L526.77,307.77L525.26,308.16L524.14,308.43L522.58,309.44L520.1,311.06L518.22,312.29L517.05,312.64L516.75,312.65L513.27,312.73L513.07,315.91L512.97,317.57L511.13,318.34L508.06,316.61L506.38,316.18L506.3,316.23L505.03,315.84L503.38,317L503.45,317.11L501.8,318.61L499.09,319.86L498.86,320.85L499.17,320.93L498.12,323.85L498.01,325.56L498.52,326.73L497.58,327.05L497.44,327.08L497.33,327.18L497.17,327.22L497.08,327.15L496.49,326.59L496.3,326.52L496.13,326.6L495.77,327.19L495.56,327.26L495.43,327.06L495.28,326.6L495.05,326.37L494.65,326.05L494.2,326.05L493.63,326.21L493.36,326.22L492.96,326.04L492.64,325.83L492.11,325.66L491.81,325.71L491.72,325.87L491.79,326.04L492.1,326.34L492.19,326.49L492.21,326.85L492.16,327.14L492.19,327.25L492.18,327.57L492.12,328.08L491.99,328.34L491.82,328.59L491.77,328.78L491.97,329.76L492.08,330.65L492.11,331.02L492.12,331.58L492.14,331.75L492.39,332.09L492.4,332.26L492.49,332.46L492.5,332.65L492.4,332.92L492.2,333.02L491.38,333.1L490.79,333.13L490.59,333.17L490.32,333.17L489.77,333.23L489.42,333.3L489.25,333.47L489.27,333.61L489.42,333.92L489.51,334.55L489.46,334.85L489.28,335.06L489.03,335.15L488.76,335.15L487.65,334.91L487.35,334.74L486.54,334.4L486.11,334.08L485.54,333.52L485.12,333.24L484.52,333.03L484.31,332.83L483.83,332.18L483.63,331.98L483.28,331.76L483.02,331.68L482.68,331.7L482.39,331.69L481.98,331.55L481.4,331.41L480.83,331.45L480.6,331.34L480.39,331.16L480.37,330.93L480.64,330.69L481.28,330.52L481.34,330.44L481.27,330.22L480.95,330.13L480.84,330.05L480.67,329.44Z" class="land" id="ML-5" title="Mopti"/>
    <path d="M472.03,342.54L471.27,342.52L471.08,342.53L470.86,342.31L470.71,342.32L470.32,342.53L470,342.62L469.96,342.5L469.77,342.33L469.56,342.3L469.46,342.11L469.28,341.54L469.2,341.38L469.01,341.2L468.89,341.18L468.45,341.3L468.25,341.23L468.02,341.08L467.9,341.51L467.84,342L467.64,342.33L467.25,343.04L466.97,343.36L466.59,343.73L466.5,344.18L466.5,344.38L465.95,344.32L465.35,344.41L464.77,344.58L464.47,344.59L464.28,344.23L463.98,344.08L463.72,344.09L463.43,344.04L462.99,344.03L462.75,344.12L462.88,344.42L463.16,344.97L463.16,345.13L462.87,345.16L462.55,345.15L462.44,345.19L461.83,345.2L461.63,345.16L461.78,344.98L461.92,344.55L461.69,343.72L461.55,343.07L461.55,342.87L461.48,342.58L461.33,342.45L461.3,342.34L461.11,342.08L460.95,341.93L460.67,341.83L460.6,341.61L460.3,341.49L460.05,341.31L459.77,341.21L459.69,340.99L458.38,341.4L458.08,341.6L457.89,342.01L457.77,342.43L457.7,342.78L457.4,343.09L457.3,343.28L457.34,343.43L457.37,343.75L457.24,344.01L456.71,344.23L456.64,344.18L456.35,343.36L456.17,343.29L455.46,343.09L455.43,342.83L455.33,342.55L455.13,342.26L454.69,341.81L454.35,341.52L454.13,340.92L453.56,340.85L453.22,340.92L452.92,341.03L452.78,341.03L452.18,341.27L451.97,341.31L451.35,341.51L451.21,341.51L450.74,341.8L450.19,342.02L449.69,342.05L449.18,341.97L448.91,341.97L448.48,341.92L448.06,341.72L447.52,341.59L446.81,341.74L446.23,342.89L446.07,343.28L446.01,343.33L444.41,344.03L443.57,344.48L442.75,345.36L442.55,345.3L442.25,344.99L442.07,344.93L441.49,345.09L441.39,345.16L441.15,344.83L440.86,344.81L440.76,344.64L440.59,344.46L440.54,344.02L440.36,343.79L440.24,343.57L440.26,343.1L440.31,342.79L440.23,342.65L440.11,342.59L439.87,342.59L439.49,342.4L439.1,342.54L438.82,342.96L438.69,342.53L438.13,341.98L437.55,341.39L437.51,341.33L437.19,341.22L436.78,341.03L435.91,341.14L435.66,341.19L435.41,341.2L434.98,341.31L434.71,341.31L434.41,341.35L434.11,341.64L434.04,341.4L433.81,340.93L433.78,340.8L433.19,340.92L432.76,341.33L432.54,341.1L432.35,341.36L432.31,341L432.29,340.36L432.5,340.13L430.05,339.74L429.99,339.72L429.99,338.51L430,338.41L429.41,337.83L429.24,337.61L429.46,336.96L429.87,336.39L430.15,335.97L430.25,335.53L430.26,335.27L430.21,335.14L430.28,335L430.16,334.85L430.1,334.69L429.75,334.02L429.76,333.89L430.11,333.67L430.78,333.35L430.95,332.69L431.04,332.54L431.3,332.36L431.66,332.35L432.13,332.04L432.28,331.87L432.55,331.75L432.98,331.92L433.24,331.96L433.6,331.98L433.84,331.9L434.07,331.77L434.43,331.61L434.62,331.68L434.84,331.67L433.54,331.34L433.45,331.22L433.8,330.32L434.05,330.15L434.16,330.12L434.38,329.97L434.25,329.62L434.22,329.4L434.27,329.26L434.22,329.04L432.93,327.23L432.93,327.16L433.27,326.1L432.25,325.03L432.21,324.93L432.04,323.92L432.07,323.54L432.23,323.4L432.32,323.08L432.38,322.69L432.4,322.29L432.39,322L432.41,321.68L432.38,321.38L432.42,320.88L432.46,320.74L432.66,320.53L432.91,320.08L433.2,319.72L433.32,319.41L433.57,318.85L433.71,318.65L434.09,317.75L434.22,317.64L434.33,317.27L434.34,317.11L434.59,316.67L434.63,316.57L434.85,316.26L434.92,316.07L435.05,315.94L435.1,315.8L435.36,315.45L435.47,315.21L435.58,315.14L435.57,315.03L435.81,314.84L435.84,314.68L436.07,314.51L436.15,314.32L436.41,314.04L436.62,313.74L436.91,312.96L436.98,312.9L437.58,312.74L437.63,312.79L438.08,312.95L438.66,313.07L438.89,313.18L439.03,313.19L439.58,313.34L439.8,313.21L440.04,313L440.34,312.46L440.46,312.33L440.85,311.75L440.86,311.17L440.84,310.61L440.48,309.65L440.38,309.22L440.3,309.03L440.15,308.38L440.01,307.99L439.94,307.69L439.56,307.14L439.27,306.78L438.84,306.14L438.79,306.01L438.24,305.12L438.11,304.82L438.29,304.28L438.49,303.87L438.79,303.48L439.12,302.98L439.61,302.36L440.08,301.69L440.17,301.49L440.32,301.29L440.57,300.72L440.78,299.94L440.9,299.63L441.07,298.99L441.19,298.71L441.26,298.36L441.42,297.94L441.6,297.22L441.73,296.85L441.89,296.02L441.92,295.74L442,295.61L441.99,295.43L444.46,295.45L445.19,295.47L445.78,295.44L447.07,295.46L450.19,295.43L450.78,295.39L452.17,295.37L453.67,295.38L455.03,295.33L455.17,295.22L455.82,294.99L456.42,294.84L456.91,294.68L457.23,294.63L457.68,294.49L457.75,294.73L457.91,295.42L458.52,295.47L459.11,295.46L459.7,295.49L460.02,295.55L460.34,295.7L460.57,296.03L460.76,296.84L460.86,297.16L460.88,297.39L460.96,297.57L460.97,297.76L461.24,298.63L461.48,299.27L461.58,299.65L461.91,300.59L461.49,301.2L460.99,301.99L460.46,302.92L460.28,303.18L460.15,303.45L459.78,303.71L459.64,303.91L459.56,303.91L459.17,304.26L459.06,304.31L458.62,304.36L458.12,304.28L457.82,304.29L457.01,304.46L456.67,304.62L456.31,304.73L456,304.78L455.36,304.98L454.57,305.06L454.47,305.35L454.44,305.59L454.35,305.92L454.24,306.13L454.23,306.37L454.14,306.54L453.8,307.33L453.56,307.96L453.64,308.14L453.63,308.48L453.7,308.52L453.66,308.79L453.75,308.9L453.74,309.29L453.47,309.61L453.44,310.09L453.39,310.32L453.34,310.86L452.92,311.15L452.68,311.36L452.65,311.83L453.11,312.15L453.42,312.31L453.87,312.64L454.01,312.7L454.72,313.17L455.09,313.37L455.32,313.53L455.78,313.78L456.6,314.29L457.48,314.8L458.17,315.31L458.34,315.45L459.41,316.16L460.03,316.5L460.03,316.64L459.93,317.12L460.12,317.53L460.54,318.13L461.04,318.51L461.38,318.71L461.55,318.91L461.21,319.51L461.04,319.87L461.44,321.6L462.38,321.74L462.6,321.81L462.76,321.75L463.53,321.63L463.79,321.57L463.71,320.89L463.69,320.3L463.95,319.7L464.14,319.43L464.28,319.32L465.14,319.24L465.38,319.88L465.76,321.02L465.86,321.28L465.89,321.47L465.81,322.12L465.6,322.42L465.33,322.85L465.28,323.03L465.46,323.38L465.47,323.61L465.43,323.83L465.52,324.22L465.65,324.64L465.35,325.16L465.31,325.28L465.36,325.75L465.39,325.79L465.48,326.73L465.59,327.04L465.9,327.1L466.23,327.12L466.94,327.21L467.32,327.13L467.49,327.13L467.91,327.25L468.46,327.09L468.73,327.24L469.13,327.33L469.69,327.32L470.04,327.26L470.44,327.48L470.91,327.48L471.27,327.21L471.91,326.82L472,326.73L472.27,326.56L472.49,326.32L472.33,326.06L472.6,325.89L472.86,325.86L473.17,325.88L473.5,325.56L473.81,325.12L473.97,324.74L473.92,324.55L474.3,324.13L474.4,324.07L474.49,323.77L474.76,323.22L474.86,323.08L475.34,322.93L475.85,322.74L477.19,322.21L477.87,322.05L478.11,321.95L478.29,322.04L478.43,322.17L478.5,322.52L478.65,322.8L479.21,323.56L479.31,323.62L479.34,323.96L479.4,324.11L479.45,324.48L479.59,325L479.58,325.12L479.71,325.62L479.71,325.74L480.02,326.52L480.33,327.02L480.43,327.3L480.64,327.7L480.5,328.16L480.5,329.01L480.55,329.37L480.42,329.34L480.21,329.43L480.18,329.51L480.23,329.81L480.21,330.04L479.98,330.38L479.86,330.49L479.36,330.6L479.08,330.75L478.83,330.99L478.43,331.13L478.27,331.29L478.17,331.5L478.06,332.02L477.94,332.3L477.76,332.55L477.57,332.69L477.38,332.91L477.02,333.14L476.56,333.3L476.29,333.45L475.71,333.93L475.67,334.1L475.76,334.29L475.95,334.48L475.98,334.62L475.81,334.78L475.23,334.76L474.96,334.89L474.42,335.27L474.26,335.34L474.11,335.55L474.08,335.74L474.14,335.85L474.47,336.12L474.8,336.51L475,336.81L475.16,337.18L475.32,337.66L475.74,338.17L476.05,338.48L476.14,338.66L476.17,338.87L476.12,339.3L476.13,339.45L476.06,339.87L476.03,340.23L476.15,340.78L476.22,341.16L476.2,341.56L476.12,341.94L476.02,342.2L475.87,342.44L475.41,342.74L475.11,342.89L474.83,342.92L474.46,342.8L474.16,342.48L473.87,342.35L473.7,342.35L473.14,342.46L472.72,342.48L472.6,342.52Z" class="land" id="ML-4" title="Ségou"/>
    <path d="M404.86,363.75L404.66,363.63L404.79,363.46L405,363.47L405.2,363.27L405.41,363.18L405.42,363.1L405.26,362.81L405.38,362.78L405.54,362.46L405.45,362.3L405.47,361.92L405.61,361.83L405.54,361.63L405.62,361.57L405.64,361.37L405.93,361.4L406.2,361.31L406.45,361.03L406.62,361.04L406.5,360.72L406.72,360.68L406.84,360.61L407.29,360.49L407.49,360.39L407.67,360.35L408.28,360.37L410.16,359.93L410.38,359.8L410.65,359.71L410.71,359.48L411.01,359.49L411.09,359.62L410.97,359.8L411,359.9L412.61,359.91L412.79,359.93L412.95,360L413.08,359.97L413.19,359.82L413.67,359.62L413.86,359.25L414.09,359.05L414.47,358.55L414.74,358.3L415.02,358.21L415.16,358.11L415.44,358.01L415.59,357.91L415.91,357.8L416.07,357.62L416.33,357.45L416.7,357.02L416.92,356.65L417.11,356.6L417.41,356.4L417.7,356.33L417.81,356.27L418.3,356.23L418.55,356.12L418.83,356.09L418.85,355.91L419.17,355.71L419.26,355.48L419.4,355.45L420.37,355.61L420.59,355.52L420.68,355.37L420.86,355.33L420.9,355.14L421.09,354.94L421.25,354.94L421.54,354.87L421.74,354.65L421.75,354.58L422.12,354.21L422.17,354.04L422.02,353.46L422.03,353.28L422.1,353.02L422.18,352.89L422.11,352.77L422.2,352.47L422.4,352.31L422.57,352.3L422.7,352.03L422.81,351.93L423.1,351.89L423.21,351.69L423.41,351.66L423.59,351.69L423.63,351.46L423.8,351.38L423.91,351.24L424.08,351.21L424.09,351.09L424.49,351.09L424.55,350.91L424.74,350.76L425.1,350.62L425.24,350.63L425.43,350.25L425.6,350.31L425.73,350.01L425.67,349.69L425.82,349.41L425.92,349.08L426.01,348.98L426.23,348.96L426.25,348.81L426.49,348.64L426.81,348.57L427.26,348.58L427.45,347.96L427.81,347.52L428.06,347.57L428.26,347.3L428.39,347.06L428.67,347.01L428.67,347.5L428.46,347.79L428.31,348.15L428.31,348.32L428.61,348.87L428.61,349.09L428.48,349.34L428.61,349.55L428.9,349.79L429.16,349.87L429.18,350.13L429.1,350.34L428.99,350.4L428.7,350.74L428.68,351.01L429.03,351.1L429.12,351.06L429.31,351.19L429.42,351.38L429.38,351.69L429.12,351.95L428.95,352.05L428.86,352.26L428.53,352.26L428.45,352.29L428.38,352.58L428.41,352.66L428.71,352.62L428.86,352.52L429.1,352.67L429.14,352.86L429.06,352.92L428.97,353.22L428.8,353.41L428.6,353.41L428.28,353.34L428.1,353.45L427.97,353.72L428.07,353.92L428.19,354.03L428.57,354.05L428.72,353.98L429.12,354.26L429.22,354.29L429.22,354.46L429.08,354.68L428.98,354.7L428.75,355.08L428.95,355.32L429.33,355.23L429.97,355.23L430.13,355.19L430.58,355.18L430.71,355.1L431.07,355.03L431.28,355.12L431.34,355.24L431.49,355.36L431.54,355.49L431.5,355.69L431.51,355.94L431.56,356.02L431.58,356.42L432.15,356.4L432.37,356.81L432.64,356.86L432.88,357.03L433.24,357.48L433.22,357.61L435.13,358.05L435.25,358.18L435.29,358.42L435.45,358.63L435.58,358.49L435.77,358.16L435.93,358.16L436.07,358.23L436.22,358.2L436.27,358.33L436.49,358.36L436.59,358.45L436.81,358.53L437.35,358.64L437.73,358.84L437.78,359.15L437.7,359.32L437.76,359.66L437.92,359.83L438.02,360.14L437.88,360.41L437.95,360.72L438.34,360.74L438.88,360.49L438.96,360.41L439.05,360L439.12,359.79L438.98,359.52L439.2,359.22L439.15,359.18L439.37,358.83L439.62,358.54L439.78,358.45L439.87,358.24L439.94,357.83L440.15,357.54L440.25,357.23L440.42,357.07L440.64,356.59L440.81,356.44L440.82,356.31L441.19,355.76L441.13,355.52L441.11,355.17L441,354.93L441.04,354.81L440.94,354.61L440.83,354.26L440.93,354.07L441.39,353.62L441.55,353.5L441.73,353.26L441.99,353.08L442.33,352.91L442.8,352.84L443.1,352.85L443.4,352.99L443.9,353.52L444.19,353.53L444.53,353.44L444.76,353.18L444.91,352.18L444.96,352.09L445.13,352.05L446.17,351.94L446.41,351.97L447.14,351.95L447.17,351.91L447.67,351.93L447.71,351.59L447.72,351.1L447.78,350.97L447.69,350.69L447.41,350.72L447.12,350.39L447.21,350.13L447.11,349.93L447.28,349.75L447.13,349.32L446.96,349.33L446.88,349.14L446.71,349.15L446.4,349.25L446.28,349.63L446,349.56L445.87,349.69L445.73,349.68L445.55,349.5L445.4,349.45L445.08,349.45L444.98,349.32L444.94,348.98L444.47,348.05L443.41,347.8L443.21,347.82L443.03,347.89L442.72,347.86L442.8,347.52L443.04,347.48L443.16,347.32L442.71,346.72L442.58,346.26L442.9,346.2L442.92,345.97L443.01,345.8L442.87,345.62L442.75,345.36L443.57,344.48L444.41,344.03L446.01,343.33L446.07,343.28L446.23,342.89L446.81,341.74L447.52,341.59L448.06,341.72L448.48,341.92L448.91,341.97L449.18,341.97L449.69,342.05L450.19,342.02L450.74,341.8L451.21,341.51L451.35,341.51L451.97,341.31L452.18,341.27L452.78,341.03L452.92,341.03L453.22,340.92L453.56,340.85L454.13,340.92L454.35,341.52L454.69,341.81L455.13,342.26L455.33,342.55L455.43,342.83L455.46,343.09L456.17,343.29L456.35,343.36L456.64,344.18L456.71,344.23L457.24,344.01L457.37,343.75L457.34,343.43L457.3,343.28L457.4,343.09L457.7,342.78L457.77,342.43L457.89,342.01L458.08,341.6L458.38,341.4L459.69,340.99L459.77,341.21L460.05,341.31L460.3,341.49L460.6,341.61L460.67,341.83L460.95,341.93L461.11,342.08L461.3,342.34L461.33,342.45L461.48,342.58L461.55,342.87L461.55,343.07L461.69,343.72L461.92,344.55L461.78,344.98L461.63,345.16L461.83,345.2L462.44,345.19L462.55,345.15L462.87,345.16L463.16,345.13L463.16,344.97L462.88,344.42L462.75,344.12L462.99,344.03L463.43,344.04L463.72,344.09L463.98,344.08L464.28,344.23L464.47,344.59L464.77,344.58L465.35,344.41L465.95,344.32L466.5,344.38L466.5,344.18L466.59,343.73L466.97,343.36L467.25,343.04L467.64,342.33L467.84,342L467.9,341.51L468.02,341.08L468.25,341.23L468.45,341.3L468.89,341.18L469.01,341.2L469.2,341.38L469.28,341.54L469.46,342.11L469.56,342.3L469.77,342.33L469.96,342.5L470,342.62L470.32,342.53L470.71,342.32L470.86,342.31L471.08,342.53L471.27,342.52L472.03,342.54L471.9,342.7L471.93,343.14L471.87,343.46L471.93,343.69L472.09,343.99L472.33,344.16L472.63,344.29L472.91,344.53L473.05,344.72L473.27,345.35L473.43,345.56L473.48,345.71L473.37,345.94L472.89,346.53L472.75,347.03L472.54,347.49L472.5,347.69L472.53,348.33L472.69,348.7L472.75,348.92L472.98,349.24L473.03,349.38L472.89,349.45L472.58,349.27L472.11,349.17L471.95,349.34L471.93,349.71L471.8,349.99L471.49,350.39L471.34,350.48L470.95,350.83L470.3,351.36L470.23,351.6L470.35,351.85L470.54,351.95L470.71,352.11L470.59,352.4L470.26,352.48L469.84,352.62L469.66,352.76L469.47,353.07L469.39,353.45L469.12,353.76L468.94,353.77L468.71,353.7L468.48,353.73L468.32,353.83L468.15,354.04L468.15,354.15L468.03,354.55L467.87,354.72L467.57,354.65L467.39,354.55L466.67,354.53L466.36,354.54L466.17,354.38L466.03,354.45L465.86,354.43L465.67,354.56L465.46,354.65L465.04,354.58L464.82,354.66L464.27,354.65L463.93,354.84L463.83,354.81L463.58,354.96L463.3,354.89L463.14,354.99L462.93,354.94L462.68,354.97L462.48,355.05L462.29,355.05L462.21,354.98L462.06,355.05L462,355.15L461.67,355.29L461.42,355.35L461.19,355.52L460.93,355.55L460.9,355.79L460.72,355.78L460.56,355.85L460.45,356.22L460.26,356.37L460.03,356.42L459.81,356.71L459.62,356.85L459.38,356.97L459.3,357.12L459.33,357.32L459.17,357.33L459.1,357.43L458.85,357.29L458.83,357.14L458.68,357.13L458.49,357.25L458.44,357.39L458.19,357.36L458.09,357.28L458.01,357.4L457.67,357.62L457.56,357.62L457.46,357.48L457.26,357.41L457.21,357.32L456.81,357.43L456.79,357.64L456.98,357.78L457.08,357.73L457.34,357.85L457.42,357.98L457.62,358.09L457.72,357.94L457.94,358L458.17,358.13L458.3,358.14L458.37,358.25L458.57,358.27L458.67,358.44L458.6,358.52L458.8,358.71L458.99,358.62L459.16,358.64L459.08,358.78L459.13,358.99L459.04,359.17L459.06,359.34L458.96,359.55L459.03,359.85L458.97,360.15L458.74,360.55L458.57,360.94L458.58,361.07L458.82,361.31L458.92,361.34L459.41,361.29L459.53,361.31L459.64,361.48L459.83,361.64L459.84,361.88L459.97,362.27L460.15,362.58L459.96,362.86L460.04,363.36L459.97,363.63L460.03,363.84L460.16,364L460.22,364.21L459.94,364.82L459.69,365.02L459.45,365.12L459.23,365.28L459.13,365.44L459.09,365.84L459.15,366.88L459.1,367.29L459.02,367.53L458.8,367.76L458.33,368L458.1,368.15L458.02,368.44L458.03,368.56L457.97,368.9L457.88,369.17L457.52,369.49L457.01,369.82L456.77,369.9L455.76,370.16L455.42,370.26L455.33,370.4L455.36,371.06L455.49,371.55L455.49,371.96L455.74,372.04L455.79,372.1L455.78,372.42L455.86,372.57L455.85,373.05L456.12,373.6L456.33,373.67L456.55,373.93L456.52,374.2L456.44,374.42L456.19,374.76L456.18,374.95L456.11,375.31L456.05,375.39L455.83,375.43L455.7,375.51L455.77,375.9L455.66,376.18L455.6,377.41L455.6,377.68L455.55,377.77L455.64,378L455.81,378.08L455.83,378.29L455.72,378.48L455.84,378.81L455.64,379.06L455.52,379.54L455.34,379.91L455.28,380.14L455.13,380.31L455.03,380.52L455.07,380.62L454.97,380.86L454.87,380.96L454.71,380.88L454.39,380.61L454.23,380.44L453.97,380.48L453.68,380.63L453.19,380.62L452.96,380.54L452.75,380.57L452.43,380.46L452.32,380.49L451.97,380.77L451.85,380.82L451.4,380.88L451.23,380.98L451.03,380.98L450.79,380.84L450.49,380.93L450.27,381.09L450,381.19L449.85,381.45L449.86,381.55L449.54,381.8L449.37,381.86L449.17,381.83L448.95,381.96L448.87,382.05L448.88,382.21L448.75,382.57L448.76,382.74L448.59,382.85L448.51,383.16L448.6,383.44L448.49,383.56L448.29,383.59L448.02,383.46L447.75,383.55L447.44,383.56L447.46,383.79L447.43,383.97L447.32,384.19L447.2,384.5L446.86,384.79L446.66,384.87L446.05,384.79L445.73,384.88L445.38,384.87L445.05,384.77L444.59,384.5L444.44,384.46L444.2,384.48L444.03,384.38L443.83,384.21L443.86,383.99L443.72,383.89L443.47,383.91L443.38,383.87L443.33,383.49L443.11,383.22L443.21,383.1L443.44,382.96L443.67,382.96L443.76,383.14L443.99,382.87L443.87,382.76L443.78,382.57L443.89,382.37L443.98,382.35L444.3,382.07L444.02,381.98L443.88,381.73L443.94,381.64L444,381.36L444.12,381.29L444.22,381.37L444.38,381.2L444.27,381.03L444.01,380.89L443.92,380.75L443.9,380.5L444.04,380.3L444.33,380.08L444.24,379.93L444.11,379.88L443.67,379.9L443.66,379.69L443.42,379.42L443.23,379.59L443,379.56L442.91,379.38L442.99,379.12L443.1,379L443.32,378.92L443.55,378.66L443.58,378.44L443.5,378.37L443.59,378.22L443.4,378.19L443.34,378.01L443.51,377.8L443.79,377.79L443.94,377.6L443.89,377.49L443.74,377.5L443.54,377.39L443.39,377.19L443.25,377.2L443.18,376.98L443.33,376.74L443.21,376.49L443.43,376.29L443.51,376.12L443.46,376.05L442.83,375.88L442.52,375.99L441.93,376.25L441.7,376.39L441.28,376.58L441.22,376.38L441.11,376.33L440.75,376.28L440.52,376.3L440.19,376.48L440.14,376.58L440.11,376.87L440.13,377.74L440.33,377.75L440.46,377.83L440.52,378.04L440.44,378.19L440.21,378.33L439.94,378.62L439.74,378.74L439.44,378.75L438.97,378.52L438.75,378.58L438.16,378.38L438.01,378.26L437.95,378.11L437.6,377.87L437.24,377.8L436.99,377.5L436.91,377.16L436.79,377.02L436.48,376.95L436.32,377.17L436.21,377.43L436.41,377.51L436.28,377.61L436.06,377.66L435.96,377.8L435.99,377.91L435.9,378.12L436.07,378.29L436,378.62L436.02,379L436.12,379.22L435.87,379.28L435.83,379.5L435.9,379.71L435.78,380.01L435.92,380.13L435.84,380.34L435.94,380.37L436.08,380.55L436.29,380.55L436.44,380.61L436.41,380.76L436.68,380.86L436.65,381.08L436.55,381.27L436.42,381.44L436.3,381.51L436.28,381.62L436.1,381.81L435.98,382.09L435.68,382.24L435.38,382.19L435.15,381.94L434.47,381.65L433.92,381.8L433.23,381.92L432.99,382.14L432.81,382.14L432.25,382.01L432.06,382.02L431.67,382.1L431.45,382.02L431.37,382.07L431.14,382.37L430.96,382.54L430.67,383.01L430.64,383.13L430.67,383.39L430.8,383.64L431.07,384.01L431.14,384.25L431.15,384.67L430.99,384.94L430.33,385.37L430.09,385.5L429.81,385.49L429.54,385.19L429.44,385.02L429.31,384.7L429.12,384.44L428.64,384.35L428.34,384.16L427.93,384.15L427.81,383.97L427.65,383.9L427.27,383.93L426.86,383.85L426.57,383.71L426.32,383.7L425.96,383.78L425.89,383.74L425.72,383.37L425.35,383.5L425.11,383.7L424.91,383.67L424.71,383.58L424.36,383.61L424.26,383.47L424.49,383.07L424.61,382.55L424.58,382.14L424.44,382.04L424.13,381.91L423.97,381.9L423.59,381.69L423.39,381.36L423.2,380.45L423.05,380.33L422.59,380.21L422.22,380.18L421.92,380.3L421.81,380.4L421.52,380.77L421.29,380.81L420.98,380.62L420.6,380.69L420.38,380.63L420.36,380.27L420.27,380.17L420.03,380.04L419.87,380.18L419.82,380.38L419.66,380.62L419.46,380.82L419.3,380.9L418.61,381.08L418.48,381.21L418.36,381.5L418.39,381.62L418.6,381.7L418.57,381.86L418.44,381.97L418.58,382.05L418.62,382.25L418.55,382.39L418.22,382.43L418.1,382.55L418.14,382.73L418.07,382.83L417.9,382.82L417.86,383.04L418.1,383.06L418.01,383.3L417.56,383.56L417.41,383.73L417.26,384.14L417.16,384.25L416.99,384.3L416.77,384.46L416.51,384.77L415.99,384.86L415.86,384.9L415.59,385.18L415.34,385.34L415.17,385.39L414.99,385.39L414.5,385.19L414.83,384.84L414.92,384.69L414.95,384.3L415,384.17L414.98,383.99L414.8,383.43L414.78,383.27L414.65,382.96L414.46,382.75L414.21,382.54L414.02,382.46L413.29,382.33L412.81,382.29L412.63,382.21L412.35,381.83L412.25,381.63L412.18,381.17L412.04,381.11L411.82,381.16L411.44,381.49L411.28,381.53L410.81,381.49L410.43,381.34L410.32,381.24L410.18,380.84L410.11,380.42L409.83,380.22L409.79,380.08L409.82,379.82L409.63,379.62L409.57,379.32L409.65,378.83L409.64,378.54L409.56,378.37L409.38,378.28L409.36,377.9L409.17,377.56L409.18,377.36L409.25,376.93L409.26,376.67L409.11,376.35L409.08,376.22L409.27,375.64L409.23,375.56L408.98,375.58L408.78,375.54L408.72,375.3L408.92,374.88L409.07,374.69L409.1,374.45L409.2,374.32L409.42,374.27L409.55,374.1L409.6,373.92L409.5,373.2L409.5,372.92L409.54,372.71L409.34,371.94L409.41,371.77L409.41,371.54L409.1,371.02L408.81,370.65L408.41,370.32L407.85,370.19L407.72,370.31L407.46,370.42L407.13,370.25L406.8,370.23L406.35,370.31L406.2,370.37L406.13,370.52L405.86,370.93L405.68,371.55L405.66,371.93L405.31,371.86L404.85,372.1L404.42,372.3L404.07,372.17L403.89,372.04L403.78,372.06L403.26,372.31L403.08,372.3L402.99,372.21L402.94,372.01L402.98,371.83L402.91,371.41L402.96,371.27L403.27,371.05L403.43,370.9L403.52,370.39L403.85,370.09L403.92,369.9L403.85,369.64L403.89,369.45L404.07,369.32L404.5,369.37L404.64,369.29L404.85,368.86L404.74,368.58L404.7,368.34L404.82,368.03L405.04,367.91L405.42,367.94L405.62,367.78L405.95,367.84L406.13,367.74L406.16,367.6L406.05,367.48L406.02,367.3L405.92,367.05L406.02,366.81L406.25,366.62L406.45,366.61L406.73,366.76L407.19,366.93L407.65,366.9L407.93,366.78L408.01,366.62L408.14,366.15L408.05,366.02L407.52,366.06L407.25,365.97L407.19,365.83L407.29,365.53L407.37,365.42L407.6,365.34L407.95,365.3L407.86,365.17L407.6,365.05L407.36,365.11L407.17,365.11L406.94,365.02L406.63,365.06L406.3,364.93L406.05,364.87L405.87,364.76L405.76,364.43L405.47,364.23L405.46,364.09L405.61,364.03L405.49,363.75L405.48,363.58L405.32,363.45L405.17,363.59Z" class="land" id="ML-3" title="Sikasso"/>
    <path d="M404.86,363.75L404.72,363.98L404.56,364.02L404.33,363.8L404.05,363.87L403.67,363.46L403.58,363.29L403.37,363.08L403.31,362.86L403.19,362.69L403.1,362.13L403.06,361.98L402.85,361.89L402.77,361.6L402.9,361.11L402.86,360.87L402.75,360.8L402.58,360.79L402.29,360.9L402.06,360.88L401.63,361.28L401.41,361.09L401.11,361.02L401.01,361.15L400.61,360.95L400.08,360.92L400.61,358.55L401.05,355.95L400.94,355.59L400.73,355.3L400.7,355.13L400.84,354.77L400.88,354.58L400.77,354.43L400.46,354.15L400.44,354.01L400.28,354.06L400.05,353.96L399.85,354.23L399.73,354.27L399.6,354.09L399.39,353.99L399.21,354.03L399.11,353.98L399.06,353.55L399.08,353.07L399.21,353.06L399.3,352.82L399.3,352.48L399.4,352.2L399.24,352.01L399.28,351.83L399.16,351.75L399.09,351.55L398.96,351.57L398.82,351.37L398.68,351.37L398.69,351.51L398.57,351.55L398.46,351.49L398.26,351.5L398.12,351.6L398.03,351.42L398.04,351.1L397.8,350.94L397.78,350.44L397.89,349.94L397.99,349.8L398.22,349.61L398.33,349.44L398.38,349.27L398.34,349.08L398.19,348.8L397.8,348.46L397.47,348.11L397.27,347.72L397.12,347.55L396.73,347.4L396.98,347.45L397.28,347.21L397.74,346.81L398.07,346.58L398.24,346.41L398.59,346.18L399.22,345.97L399.24,345.8L399.52,345.29L399.64,344.94L399.73,344.51L399.97,344.36L400.27,344.36L400.48,344.11L400.66,344.08L400.94,344.12L401.09,344.19L401.52,344.29L401.67,344.17L401.97,343.58L401.97,343.47L402.31,343.18L402.68,343L402.77,342.9L403.12,342.25L403.34,342.14L403.73,341.89L404.01,341.59L403.99,341.43L404.1,341.13L403.98,340.88L403.71,340.76L403.61,340.51L403.46,340.38L403.27,340.14L403.27,340.03L403.41,339.77L403.68,339.73L403.77,339.67L403.82,339.46L403.61,339.21L403.62,338.97L403.7,338.86L403.9,338.78L404.16,338.81L404.31,338.62L404.25,338.37L404.38,338.07L404.56,337.93L404.52,337.85L404.57,337.65L404.47,337.43L404.58,337.27L404.6,337.01L404.47,336.89L404.4,336.58L404.28,336.41L404.27,336.01L404.48,335.71L404.64,335.71L404.71,335.58L404.64,335.46L404.51,335.07L404.67,334.72L404.68,334.47L404.77,334.23L404.74,334.03L404.95,333.8L405.15,333.65L405.26,333.64L405.27,333.32L405.45,333.15L405.46,332.97L405.27,332.88L405.27,332.69L405.51,332.55L405.6,332.32L405.56,332.27L405.63,332.03L405.83,332.02L405.7,331.66L405.7,331.55L406.02,331.16L406.12,331.11L406.39,331.14L406.57,331.07L406.62,330.95L406.46,330.71L406.55,330.38L406.34,329.76L406.27,329.51L405.76,329.27L405.69,329.19L405.58,328.76L405.31,328.42L405.17,328.41L404.85,328.09L405.12,328.05L405.07,327.68L404.97,327.28L404.97,327.05L404.87,326.62L404.89,326.33L404.99,326.19L405.18,325.78L405.25,325.77L405.32,325.53L405.44,325.4L405.63,325.39L405.77,325.2L405.87,325.23L405.91,324.85L405.85,324.7L405.94,324.54L406.1,324.44L406.15,324.25L406.42,324.13L406.65,323.74L406.47,323.24L406.59,323.18L406.71,323.24L406.81,323.13L406.77,322.92L406.52,322.73L406.63,322.5L406.62,322.34L406.48,322.23L406.25,321.94L406.29,321.78L406.23,321.68L406.08,321.66L405.79,321.73L405.61,321.72L405.4,321.5L405.13,321.5L405.01,321.55L404.88,321.74L404.44,322.03L404.63,322.39L404.61,322.54L404.49,322.68L404.19,322.87L404.22,323.14L404.49,323.1L404.66,323.13L404.32,323.55L404.02,323.64L403.77,323.77L403.54,323.5L403.37,323.42L403.22,323.26L403.05,323.45L402.66,323.59L402.4,323.44L402.33,323.06L402.25,322.99L401.93,323.02L401.87,322.65L401.73,322.55L401.86,322.33L401.68,322.29L401.59,322.44L401.37,322.47L401.28,322.41L401.27,322.24L401.13,322.16L401.1,321.98L400.62,321.81L400.44,321.46L400.14,321.52L399.99,321.31L399.98,321.15L399.88,320.99L400.14,320.81L400.32,320.6L400.18,320.33L400.46,320.26L400.66,320.12L400.55,319.72L400.58,319.32L400.43,319.1L400.55,318.93L400.67,318.92L400.9,319L401.09,318.99L401.32,319.25L401.49,319.23L401.53,319.09L401.7,319.09L401.7,318.79L401.6,318.49L401.6,318.26L401.64,318.12L401.58,317.78L401.62,317.55L401.56,317.41L401.26,317.3L401.15,316.94L401.01,316.82L401.03,316.68L400.98,316.48L400.88,316.37L400.59,316.34L400.71,316.15L400.81,315.86L400.89,315.84L401.41,315.91L401.89,315.91L402.03,315.96L402.39,315.96L402.47,315.88L402.79,315.69L403.13,315.59L403.44,315.55L403.78,315.05L403.91,314.91L404.12,314.51L404.18,314.31L404.33,314.03L404.44,313.9L404.78,313.83L405.14,314.03L405.31,314.19L405.67,314.81L405.89,315.21L406.12,315.51L406.37,315.69L406.61,315.77L406.84,315.8L407.27,315.73L407.34,315.68L408.03,315.62L408.62,315.5L409.08,315.56L409.72,315.69L410.15,315.61L410.26,315.61L410.74,315.52L411.3,315.47L411.76,315.26L412.02,315.09L411.68,314.76L411.59,314.62L411.33,314.41L411.06,314.15L411.17,313.97L411.46,313.62L411.59,313.28L411.59,312.97L411.65,312.92L411.66,312.51L411.46,312.28L411.13,312.24L410.72,312.13L410.33,312.08L410.12,311.88L409.99,311.71L409.49,311.27L409.43,311.16L409.11,310.88L408.59,310.48L408.44,310.42L408.26,310.26L407.9,310.03L407.7,309.95L407.24,309.7L406.93,309.57L406.44,309.28L406.35,309.14L406.23,308.63L406.2,308.39L406.26,307.71L406.26,307.45L406.31,307.12L406.3,306.71L406.34,306.29L406.34,305.84L406.21,305.27L405.95,304.61L405.77,304.51L405.52,304.47L405.31,304.39L404.94,304.31L404.39,304.28L404.26,304.23L403.67,304.23L403.47,304.18L403.07,304.16L403,304.21L402.83,304.55L402.53,304.65L402.01,304.76L402,304.65L401.86,304.11L401.59,303.03L401.56,302.74L401.44,302.38L401.36,301.76L401.27,301.63L401.07,300.03L400.99,299.7L400.71,299.38L400.48,299.17L400.3,298.93L399.74,298.58L399.46,298.45L399.05,298.19L398.97,298.19L398.67,297.98L397.89,297.56L397.47,297.17L397.03,296.82L396.19,296.2L395.85,295.87L395.67,295.78L395.59,295.53L395.46,295.42L395.72,295.41L398.21,295.4L399.35,295.43L399.95,295.4L404.13,295.41L405.39,295.43L405.58,295.4L407.04,295.4L407.76,295.42L407.78,295.45L408.23,295.41L410.1,295.41L412.31,295.4L413.03,295.42L413.17,295.4L414.59,295.4L415.71,295.42L417.67,295.39L419.47,295.39L419.61,295.37L422.74,295.38L425.74,295.39L427.92,295.4L428.09,295.46L428.3,295.4L432.18,295.42L434.67,295.38L435.03,295.4L435.23,295.38L436.04,295.41L437.67,295.41L439.55,295.43L440.9,295.42L441.99,295.43L442,295.61L441.92,295.74L441.89,296.02L441.73,296.85L441.6,297.22L441.42,297.94L441.26,298.36L441.19,298.71L441.07,298.99L440.9,299.63L440.78,299.94L440.57,300.72L440.32,301.29L440.17,301.49L440.08,301.69L439.61,302.36L439.12,302.98L438.79,303.48L438.49,303.87L438.29,304.28L438.11,304.82L438.24,305.12L438.79,306.01L438.84,306.14L439.27,306.78L439.56,307.14L439.94,307.69L440.01,307.99L440.15,308.38L440.3,309.03L440.38,309.22L440.48,309.65L440.84,310.61L440.86,311.17L440.85,311.75L440.46,312.33L440.34,312.46L440.04,313L439.8,313.21L439.58,313.34L439.03,313.19L438.89,313.18L438.66,313.07L438.08,312.95L437.63,312.79L437.58,312.74L436.98,312.9L436.91,312.96L436.62,313.74L436.41,314.04L436.15,314.32L436.07,314.51L435.84,314.68L435.81,314.84L435.57,315.03L435.58,315.14L435.47,315.21L435.36,315.45L435.1,315.8L435.05,315.94L434.92,316.07L434.85,316.26L434.63,316.57L434.59,316.67L434.34,317.11L434.33,317.27L434.22,317.64L434.09,317.75L433.71,318.65L433.57,318.85L433.32,319.41L433.2,319.72L432.91,320.08L432.66,320.53L432.46,320.74L432.42,320.88L432.38,321.38L432.41,321.68L432.39,322L432.4,322.29L432.38,322.69L432.32,323.08L432.23,323.4L432.07,323.54L432.04,323.92L432.21,324.93L432.25,325.03L433.27,326.1L432.93,327.16L432.93,327.23L434.22,329.04L434.27,329.26L434.22,329.4L434.25,329.62L434.38,329.97L434.16,330.12L434.05,330.15L433.8,330.32L433.45,331.22L433.54,331.34L434.84,331.67L434.62,331.68L434.43,331.61L434.07,331.77L433.84,331.9L433.6,331.98L433.24,331.96L432.98,331.92L432.55,331.75L432.28,331.87L432.13,332.04L431.66,332.35L431.3,332.36L431.04,332.54L430.95,332.69L430.78,333.35L430.11,333.67L429.76,333.89L429.75,334.02L430.1,334.69L430.16,334.85L430.28,335L430.21,335.14L430.26,335.27L430.25,335.53L430.15,335.97L429.87,336.39L429.46,336.96L429.24,337.61L429.41,337.83L430,338.41L429.99,338.51L429.99,339.72L430.05,339.74L432.5,340.13L432.29,340.36L432.31,341L432.35,341.36L432.54,341.1L432.76,341.33L433.19,340.92L433.78,340.8L433.81,340.93L434.04,341.4L434.11,341.64L434.41,341.35L434.71,341.31L434.98,341.31L435.41,341.2L435.66,341.19L435.91,341.14L436.78,341.03L437.19,341.22L437.51,341.33L437.55,341.39L438.13,341.98L438.69,342.53L438.82,342.96L439.1,342.54L439.49,342.4L439.87,342.59L440.11,342.59L440.23,342.65L440.31,342.79L440.26,343.1L440.24,343.57L440.36,343.79L440.54,344.02L440.59,344.46L440.76,344.64L440.86,344.81L441.15,344.83L441.39,345.16L441.49,345.09L442.07,344.93L442.25,344.99L442.55,345.3L442.75,345.36L442.87,345.62L443.01,345.8L442.92,345.97L442.9,346.2L442.58,346.26L442.71,346.72L443.16,347.32L443.04,347.48L442.8,347.52L442.72,347.86L443.03,347.89L443.21,347.82L443.41,347.8L444.47,348.05L444.94,348.98L444.98,349.32L445.08,349.45L445.4,349.45L445.55,349.5L445.73,349.68L445.87,349.69L446,349.56L446.28,349.63L446.4,349.25L446.71,349.15L446.88,349.14L446.96,349.33L447.13,349.32L447.28,349.75L447.11,349.93L447.21,350.13L447.12,350.39L447.41,350.72L447.69,350.69L447.78,350.97L447.72,351.1L447.71,351.59L447.67,351.93L447.17,351.91L447.14,351.95L446.41,351.97L446.17,351.94L445.13,352.05L444.96,352.09L444.91,352.18L444.76,353.18L444.53,353.44L444.19,353.53L443.9,353.52L443.4,352.99L443.1,352.85L442.8,352.84L442.33,352.91L441.99,353.08L441.73,353.26L441.55,353.5L441.39,353.62L440.93,354.07L440.83,354.26L440.94,354.61L441.04,354.81L441,354.93L441.11,355.17L441.13,355.52L441.19,355.76L440.82,356.31L440.81,356.44L440.64,356.59L440.42,357.07L440.25,357.23L440.15,357.54L439.94,357.83L439.87,358.24L439.78,358.45L439.62,358.54L439.37,358.83L439.15,359.18L439.2,359.22L438.98,359.52L439.12,359.79L439.05,360L438.96,360.41L438.88,360.49L438.34,360.74L437.95,360.72L437.88,360.41L438.02,360.14L437.92,359.83L437.76,359.66L437.7,359.32L437.78,359.15L437.73,358.84L437.35,358.64L436.81,358.53L436.59,358.45L436.49,358.36L436.27,358.33L436.22,358.2L436.07,358.23L435.93,358.16L435.77,358.16L435.58,358.49L435.45,358.63L435.29,358.42L435.25,358.18L435.13,358.05L433.22,357.61L433.24,357.48L432.88,357.03L432.64,356.86L432.37,356.81L432.15,356.4L431.58,356.42L431.56,356.02L431.51,355.94L431.5,355.69L431.54,355.49L431.49,355.36L431.34,355.24L431.28,355.12L431.07,355.03L430.71,355.1L430.58,355.18L430.13,355.19L429.97,355.23L429.33,355.23L428.95,355.32L428.75,355.08L428.98,354.7L429.08,354.68L429.22,354.46L429.22,354.29L429.12,354.26L428.72,353.98L428.57,354.05L428.19,354.03L428.07,353.92L427.97,353.72L428.1,353.45L428.28,353.34L428.6,353.41L428.8,353.41L428.97,353.22L429.06,352.92L429.14,352.86L429.1,352.67L428.86,352.52L428.71,352.62L428.41,352.66L428.38,352.58L428.45,352.29L428.53,352.26L428.86,352.26L428.95,352.05L429.12,351.95L429.38,351.69L429.42,351.38L429.31,351.19L429.12,351.06L429.03,351.1L428.68,351.01L428.7,350.74L428.99,350.4L429.1,350.34L429.18,350.13L429.16,349.87L428.9,349.79L428.61,349.55L428.48,349.34L428.61,349.09L428.61,348.87L428.31,348.32L428.31,348.15L428.46,347.79L428.67,347.5L428.67,347.01L428.39,347.06L428.26,347.3L428.06,347.57L427.81,347.52L427.45,347.96L427.26,348.58L426.81,348.57L426.49,348.64L426.25,348.81L426.23,348.96L426.01,348.98L425.92,349.08L425.82,349.41L425.67,349.69L425.73,350.01L425.6,350.31L425.43,350.25L425.24,350.63L425.1,350.62L424.74,350.76L424.55,350.91L424.49,351.09L424.09,351.09L424.08,351.21L423.91,351.24L423.8,351.38L423.63,351.46L423.59,351.69L423.41,351.66L423.21,351.69L423.1,351.89L422.81,351.93L422.7,352.03L422.57,352.3L422.4,352.31L422.2,352.47L422.11,352.77L422.18,352.89L422.1,353.02L422.03,353.28L422.02,353.46L422.17,354.04L422.12,354.21L421.75,354.58L421.74,354.65L421.54,354.87L421.25,354.94L421.09,354.94L420.9,355.14L420.86,355.33L420.68,355.37L420.59,355.52L420.37,355.61L419.4,355.45L419.26,355.48L419.17,355.71L418.85,355.91L418.83,356.09L418.55,356.12L418.3,356.23L417.81,356.27L417.7,356.33L417.41,356.4L417.11,356.6L416.92,356.65L416.7,357.02L416.33,357.45L416.07,357.62L415.91,357.8L415.59,357.91L415.44,358.01L415.16,358.11L415.02,358.21L414.74,358.3L414.47,358.55L414.09,359.05L413.86,359.25L413.67,359.62L413.19,359.82L413.08,359.97L412.95,360L412.79,359.93L412.61,359.91L411,359.9L410.97,359.8L411.09,359.62L411.01,359.49L410.71,359.48L410.65,359.71L410.38,359.8L410.16,359.93L408.28,360.37L407.67,360.35L407.49,360.39L407.29,360.49L406.84,360.61L406.72,360.68L406.5,360.72L406.62,361.04L406.45,361.03L406.2,361.31L405.93,361.4L405.64,361.37L405.62,361.57L405.54,361.63L405.61,361.83L405.47,361.92L405.45,362.3L405.54,362.46L405.38,362.78L405.26,362.81L405.42,363.1L405.41,363.18L405.2,363.27L405,363.47L404.79,363.46L404.66,363.63ZM415.5,343.2L415.25,343.18L415.15,343.03L415.01,342.68L414.38,343.21L414,343.21L413.8,343.27L413.84,343.49L413.74,343.58L413.57,343.56L413.34,343.23L413.23,343.59L412.93,344.92L412.94,345.09L413.02,345.23L413.24,345.14L413.44,345.12L413.37,344.9L413.47,344.66L413.56,344.67L413.69,344.83L413.99,344.97L414.37,345.84L415.28,346.09L415.5,345.89L415.33,344.78L415.67,344.39L415.65,343.55L415.54,343.51Z" class="land" id="ML-2" title="Koulikoro"/>
    <path d="M395.46,295.42L395.59,295.53L395.67,295.78L395.85,295.87L396.19,296.2L397.03,296.82L397.47,297.17L397.89,297.56L398.67,297.98L398.97,298.19L399.05,298.19L399.46,298.45L399.74,298.58L400.3,298.93L400.48,299.17L400.71,299.38L400.99,299.7L401.07,300.03L401.27,301.63L401.36,301.76L401.44,302.38L401.56,302.74L401.59,303.03L401.86,304.11L402,304.65L402.01,304.76L402.53,304.65L402.83,304.55L403,304.21L403.07,304.16L403.47,304.18L403.67,304.23L404.26,304.23L404.39,304.28L404.94,304.31L405.31,304.39L405.52,304.47L405.77,304.51L405.95,304.61L406.21,305.27L406.34,305.84L406.34,306.29L406.3,306.71L406.31,307.12L406.26,307.45L406.26,307.71L406.2,308.39L406.23,308.63L406.35,309.14L406.44,309.28L406.93,309.57L407.24,309.7L407.7,309.95L407.9,310.03L408.26,310.26L408.44,310.42L408.59,310.48L409.11,310.88L409.43,311.16L409.49,311.27L409.99,311.71L410.12,311.88L410.33,312.08L410.72,312.13L411.13,312.24L411.46,312.28L411.66,312.51L411.65,312.92L411.59,312.97L411.59,313.28L411.46,313.62L411.17,313.97L411.06,314.15L411.33,314.41L411.59,314.62L411.68,314.76L412.02,315.09L411.76,315.26L411.3,315.47L410.74,315.52L410.26,315.61L410.15,315.61L409.72,315.69L409.08,315.56L408.62,315.5L408.03,315.62L407.34,315.68L407.27,315.73L406.84,315.8L406.61,315.77L406.37,315.69L406.12,315.51L405.89,315.21L405.67,314.81L405.31,314.19L405.14,314.03L404.78,313.83L404.44,313.9L404.33,314.03L404.18,314.31L404.12,314.51L403.91,314.91L403.78,315.05L403.44,315.55L403.13,315.59L402.79,315.69L402.47,315.88L402.39,315.96L402.03,315.96L401.89,315.91L401.41,315.91L400.89,315.84L400.81,315.86L400.71,316.15L400.59,316.34L400.88,316.37L400.98,316.48L401.03,316.68L401.01,316.82L401.15,316.94L401.26,317.3L401.56,317.41L401.62,317.55L401.58,317.78L401.64,318.12L401.6,318.26L401.6,318.49L401.7,318.79L401.7,319.09L401.53,319.09L401.49,319.23L401.32,319.25L401.09,318.99L400.9,319L400.67,318.92L400.55,318.93L400.43,319.1L400.58,319.32L400.55,319.72L400.66,320.12L400.46,320.26L400.18,320.33L400.32,320.6L400.14,320.81L399.88,320.99L399.98,321.15L399.99,321.31L400.14,321.52L400.44,321.46L400.62,321.81L401.1,321.98L401.13,322.16L401.27,322.24L401.28,322.41L401.37,322.47L401.59,322.44L401.68,322.29L401.86,322.33L401.73,322.55L401.87,322.65L401.93,323.02L402.25,322.99L402.33,323.06L402.4,323.44L402.66,323.59L403.05,323.45L403.22,323.26L403.37,323.42L403.54,323.5L403.77,323.77L404.02,323.64L404.32,323.55L404.66,323.13L404.49,323.1L404.22,323.14L404.19,322.87L404.49,322.68L404.61,322.54L404.63,322.39L404.44,322.03L404.88,321.74L405.01,321.55L405.13,321.5L405.4,321.5L405.61,321.72L405.79,321.73L406.08,321.66L406.23,321.68L406.29,321.78L406.25,321.94L406.48,322.23L406.62,322.34L406.63,322.5L406.52,322.73L406.77,322.92L406.81,323.13L406.71,323.24L406.59,323.18L406.47,323.24L406.65,323.74L406.42,324.13L406.15,324.25L406.1,324.44L405.94,324.54L405.85,324.7L405.91,324.85L405.87,325.23L405.77,325.2L405.63,325.39L405.44,325.4L405.32,325.53L405.25,325.77L405.18,325.78L404.99,326.19L404.89,326.33L404.87,326.62L404.97,327.05L404.97,327.28L405.07,327.68L405.12,328.05L404.85,328.09L405.17,328.41L405.31,328.42L405.58,328.76L405.69,329.19L405.76,329.27L406.27,329.51L406.34,329.76L406.55,330.38L406.46,330.71L406.62,330.95L406.57,331.07L406.39,331.14L406.12,331.11L406.02,331.16L405.7,331.55L405.7,331.66L405.83,332.02L405.63,332.03L405.56,332.27L405.6,332.32L405.51,332.55L405.27,332.69L405.27,332.88L405.46,332.97L405.45,333.15L405.27,333.32L405.26,333.64L405.15,333.65L404.95,333.8L404.74,334.03L404.77,334.23L404.68,334.47L404.67,334.72L404.51,335.07L404.64,335.46L404.71,335.58L404.64,335.71L404.48,335.71L404.27,336.01L404.28,336.41L404.4,336.58L404.47,336.89L404.6,337.01L404.58,337.27L404.47,337.43L404.57,337.65L404.52,337.85L404.56,337.93L404.38,338.07L404.25,338.37L404.31,338.62L404.16,338.81L403.9,338.78L403.7,338.86L403.62,338.97L403.61,339.21L403.82,339.46L403.77,339.67L403.68,339.73L403.41,339.77L403.27,340.03L403.27,340.14L403.46,340.38L403.61,340.51L403.71,340.76L403.98,340.88L404.1,341.13L403.99,341.43L404.01,341.59L403.73,341.89L403.34,342.14L403.12,342.25L402.77,342.9L402.68,343L402.31,343.18L401.97,343.47L401.97,343.58L401.67,344.17L401.52,344.29L401.09,344.19L400.94,344.12L400.66,344.08L400.48,344.11L400.27,344.36L399.97,344.36L399.73,344.51L399.64,344.94L399.52,345.29L399.24,345.8L399.22,345.97L398.59,346.18L398.24,346.41L398.07,346.58L397.74,346.81L397.28,347.21L396.98,347.45L396.73,347.4L396.27,347.28L395.97,347.1L395.83,346.95L395.74,346.94L395.44,346.77L395.26,346.6L395.02,346.48L394.58,346.46L394.37,346.48L394.21,346.44L393.97,346.31L393.81,346.32L393.51,346.21L393.16,346.32L393,346.56L392.84,346.51L392.54,346.26L392.42,346.24L392.33,346.54L392.16,346.64L392.09,346.37L391.94,346.39L391.72,346.32L391.65,346.65L391.6,346.7L391.34,346.72L391.23,346.83L391.02,346.9L391.04,347.19L391.22,347.1L391.36,347.14L391.48,347.5L391.63,347.66L391.82,347.65L391.78,347.85L391.95,347.87L392.13,348.06L392.18,348.32L392.34,348.44L392.54,348.45L392.74,348.58L392.79,348.7L392.62,348.87L392.68,349.02L392.6,349.23L392.37,349.34L392.35,349.44L392.43,350.01L392.25,350.24L392.05,350.24L392.01,350.42L391.86,350.52L391.66,350.55L391.31,350.45L391.24,350.38L391.01,350.46L390.91,350.3L390.69,350.33L390.41,350.44L390.08,350.47L389.79,350.53L389.61,350.64L389.46,350.92L389.37,351.02L388.97,351.24L388.77,351.43L388.58,351.48L388.31,351.46L387.99,351.56L387.61,351.65L387.31,351.76L387.15,351.95L386.75,352.3L386.53,352.59L386.48,352.71L386.48,353L386.56,353.34L386.49,353.55L386.29,353.64L386.19,353.81L386.16,354.27L385.61,354.23L385.08,354.13L385.02,354.13L384.67,353.99L384.35,353.72L384.1,353.78L383.47,353.68L383.25,353.74L383.05,353.63L382.73,353.29L382.63,353.01L382.54,352.97L382.18,353.03L382,352.88L381.7,353.01L381.2,352.51L380.82,352.5L380.58,352.28L380.36,352.31L380.21,352.18L380.12,352.33L379.93,352.1L379.88,351.78L379.73,351.65L379.36,351.71L379.06,351.67L378.77,351.76L378.47,351.57L378.2,351.52L378.01,351.29L377.54,351.25L377.31,351.33L377.15,351.2L377.05,351.05L376.83,351.19L376.68,351.09L376.5,351.14L376.52,351.39L376.3,351.42L376.21,351.11L376.13,350.99L375.96,350.94L375.84,350.98L375.69,350.88L375.63,351.04L375.76,351.26L375.71,351.52L375.44,351.42L375.28,351.47L375.29,351.71L375.12,351.83L374.95,351.82L374.71,351.7L374.47,351.76L374.4,351.86L374.44,352.23L374.41,352.29L373.99,352.48L373.84,352.65L373.71,352.71L373.38,352.64L372.95,352.62L372.73,352.77L372.69,352.88L372.88,353.15L372.88,353.32L372.69,353.34L372.61,353.51L372.66,353.73L372.62,353.98L372.46,354.14L372.03,354.22L371.83,354.21L371.71,354.3L371.7,354.44L371.95,354.66L371.8,354.78L371.73,354.9L371.53,354.91L371.36,355.1L371.14,355.06L371.01,355.19L370.93,355.38L370.85,355.69L370.69,355.86L370.69,356.13L370.37,356.29L370.16,356.45L369.87,356.47L369.75,356.42L369.43,356.09L369.12,356.03L369.01,355.78L368.86,355.61L368.96,355.3L368.78,354.77L368.43,354.49L368.14,354.04L368.24,353.86L368.32,353.43L368.27,352.9L368.12,352.76L367.81,352.72L367.58,352.63L367.32,352.45L366.8,351.96L366.74,351.66L366.64,351.51L366.57,351.26L366.37,351.29L366.29,351.09L366.11,351.06L365.87,350.91L365.75,351.01L365.54,350.94L365.31,350.95L365,351.16L364.65,351.17L364.52,351.21L364.39,351.12L364.22,351.12L364.03,350.95L363.97,351.02L363.94,351.27L363.86,351.55L363.77,351.72L363.75,351.94L363.66,352.07L363.57,352.39L363.25,352.59L363.13,352.62L363.02,352.75L363.06,352.95L362.97,353.07L362.56,353.07L362.43,353.16L362.4,353.34L362.5,353.67L362.42,353.82L362.26,353.97L361.93,354.18L361.83,354.33L361.61,354.43L361.27,354.37L361.08,354.47L360.85,354.74L360.53,354.8L359.63,354.31L358.92,353.76L358.82,353.66L358.84,353.34L358.66,353L358.43,352.85L358.22,352.85L357.54,352.62L357.13,352.42L356.98,352.16L356.63,351.67L356.63,351.37L356.58,351.14L356.67,351.06L356.83,350.76L356.93,350.66L357.15,350.6L357.31,350.41L357.37,350.1L357.55,349.99L357.63,349.66L357.56,349.54L357.58,349.33L357.53,349.04L357.36,348.77L357.5,348.65L357.53,348.3L357.76,348.18L357.92,348.01L357.95,348.22L358.05,348.31L358.15,348.21L358.51,348.21L358.62,348.11L358.6,347.9L358.51,347.75L358.56,347.66L358.77,347.57L358.78,347.3L358.69,347.18L358.69,347.03L358.83,347.02L358.98,346.87L359.03,346.69L358.88,346.56L359,346.38L358.93,346.11L358.61,345.98L358.56,345.86L358.43,345.79L358.43,345.56L358.24,345.58L358.15,345.5L358,345.63L358,345.82L357.8,345.74L357.81,345.49L357.74,345.4L357.48,345.44L357.64,345.13L357.92,345.18L358.09,345.04L358.18,344.68L357.89,344.48L357.87,344.34L358.06,344.24L358.13,343.97L358.05,343.91L358.03,343.7L357.87,343.47L357.71,343.51L357.51,343.47L357.48,343.27L357.63,343.19L357.71,342.99L357.85,342.93L357.85,342.44L358.29,342.42L358.47,342.45L358.85,342.37L358.75,342.19L358.51,342.12L358.62,341.97L358.45,341.71L358.55,341.46L358.55,341.1L358.45,340.96L358.54,340.73L358.44,340.63L358.21,340.72L358.22,340.53L358.09,340.39L358.29,340.28L358.34,340.14L358.19,339.89L358.26,339.65L358.43,339.51L358.44,339.33L358.24,339.27L358.37,339.11L359.04,338.96L359.13,338.75L359,338.53L358.99,338.19L358.8,337.94L358.48,337.89L358.5,338.14L358.46,338.34L358.12,338.22L358.14,338.08L358.02,337.96L358.12,337.84L358.31,337.76L358.3,337.58L358.15,337.49L358,337.46L358.07,337.32L358.03,337.15L357.93,337.14L357.67,336.78L357.81,336.6L357.84,336.43L357.74,336.31L357.47,336.12L357.02,336.13L356.91,335.89L356.69,335.79L356.6,335.42L356.53,335.33L356.34,335.3L356.31,335.13L356.55,334.91L356.62,334.76L356.62,334.57L356.48,334.46L356.17,334.42L356.02,334.44L355.91,334.19L355.93,333.93L356.23,333.54L356.2,333.4L356.04,333.33L355.91,333.18L355.94,333.04L355.82,332.89L355.56,332.88L355.36,332.65L355.17,332.58L355.18,332.36L355.04,332.09L355.06,331.69L354.92,331.59L354.68,331.69L354.36,331.65L354.54,331.4L354.55,331.2L354.45,331.1L354.19,331.1L353.78,331.22L353.42,331.21L353.41,330.99L353.19,330.78L352.81,330.75L352.55,330.84L352.48,330.98L352.54,331.24L352.36,331.52L352.27,331.58L352.16,332.03L351.84,332.09L351.72,332.2L351.66,332.51L351.59,332.56L351.2,332.57L351.18,332.23L351.03,332.16L350.89,331.84L350.66,331.7L350.49,331.42L350.39,331.34L350.16,331.27L350.18,331.13L350.3,330.86L350.32,330.67L350.52,330.49L350.55,330.2L350.42,329.93L350.13,329.77L350.03,329.56L349.68,329.39L349.45,329.08L349.1,328.98L348.79,328.73L348.78,328.62L348.53,328.29L348.33,328.15L348.37,327.97L348.31,327.8L348,327.52L347.69,327.27L347.72,326.86L347.66,326.61L347.38,326.13L347.31,325.97L347.2,325.85L347.21,325.68L347.33,325.54L347.66,325.42L348.28,325.04L348.3,324.92L348.53,324.76L348.64,324.64L348.75,324.4L348.89,324.36L348.99,324.19L349.17,324.13L349.14,323.96L349.24,323.52L349.22,323.33L349.3,323.21L349.34,322.86L349.47,322.17L349.33,320.93L348.23,320.98L348.3,320.89L348.26,320.7L348.11,320.43L348.24,320.3L348.22,320.05L348.32,320.02L348.46,319.8L348.4,319.61L348.42,319.45L348.64,319.4L348.62,318.94L348.56,318.83L348.62,318.56L348.73,318.4L348.73,318.12L348.77,317.77L348.54,317.61L348.54,317.39L348.38,317.24L348.17,316.63L347.95,316.05L347.82,316.07L347.73,315.95L347.52,315.95L347.26,315.81L347.07,315.83L346.95,315.7L346.79,315.71L346.64,315.66L346.81,315.38L346.6,315.35L346.57,315.23L346.8,315.24L346.73,315.07L346.6,314.99L346.76,314.71L346.61,314.52L346.38,314.63L346.21,314.55L346.11,314.33L345.76,314.37L345.61,314.3L345.52,314.11L345.35,314.16L345.22,314.12L345,313.95L344.98,313.74L345.19,313.45L345.15,313.34L344.91,313.12L345.03,312.81L344.68,312.53L344.7,312.22L344.8,311.96L344.74,311.57L344.88,311.44L345.19,311.47L345.25,311.25L345.49,310.93L345.47,310.51L345.53,310.42L345.78,310.4L345.87,310.29L345.94,310.07L345.93,309.86L345.82,309.73L345.43,309.64L345.42,309.47L345.64,309.38L345.62,309.19L345.45,309.2L345.32,309.07L344.95,309.06L344.79,308.9L344.88,308.68L344.79,308.43L344.46,308.35L344.38,307.99L344.68,308.03L344.93,308L345.35,308.01L345.79,307.77L346.07,307.76L346.2,307.83L346.47,308.23L347.29,308.71L347.38,308.74L347.5,308.61L347.58,308.33L347.49,308.12L347.54,308.01L347.94,308L348.19,307.93L348.46,307.98L348.66,307.95L349.04,307.72L349.23,307.47L349.3,307.16L349.46,307.02L349.85,306.93L350.46,306.54L350.83,306.18L351.08,305.85L351.4,305.72L351.5,305.57L351.35,305.22L351.35,304.93L351.49,304.48L351.58,303.99L351.73,303.47L351.58,303.15L351.25,303.11L351.08,303.26L350.89,303.19L350.83,303.07L351.03,302.68L350.98,302.51L350.83,302.34L350.97,301.99L351.28,301.72L351.34,301.58L351.28,301.38L351.08,301.24L350.98,300.96L351.08,300.67L351.23,300.48L351.39,300.22L351.53,299.77L351.49,299.46L351.52,299.16L351.65,298.7L351.83,298.42L352.08,298.15L352.32,297.18L352.31,296.99L352.38,296.88L352.47,296.11L352.55,295.92L352.65,295.82L352.89,295.73L353.01,295.58L353.01,294.91L353.05,294.73L353.19,294.81L353.59,294.82L353.76,294.75L354.01,294.98L354.13,295.01L354.43,294.99L354.58,294.85L354.88,294.87L355.1,294.81L355.37,294.64L355.35,294.41L355.43,294.06L355.68,293.94L356.12,293.55L356.25,293.52L356.5,293.34L356.36,293.01L356.56,292.93L357.71,292.88L358,293.14L358.21,293.54L358.41,293.83L358.66,294.09L358.7,294.19L358.71,294.64L358.8,294.93L359.37,295.25L359.53,295.41L359.98,296.14L360.12,296.3L360.59,296.73L360.81,296.89L361.31,297.07L361.47,297.17L361.85,297.54L362.42,297.94L362.49,297.95L363.54,298.71L363.77,298.93L364.04,299.31L364.23,299.48L364.79,299.83L365.29,300.67L365.51,300.9L365.66,301L365.68,301.27L365.95,301.46L366.07,301.71L366.37,302.13L366.49,302.09L366.66,301.75L366.75,301.67L366.85,300.86L366.84,300.67L367.13,300.38L367.35,300.32L367.48,300.18L367.65,299.74L367.58,299.31L367.68,299.22L368.09,298.69L368.26,298.73L368.42,298.67L368.44,298.46L368.69,298.27L368.99,298.23L369.26,297.94L369.31,297.74L369.41,297.63L369.37,297.28L369.27,296.97L369.22,296.66L369.31,296.45L369.49,296.42L369.91,296.5L370.03,296.6L370.29,297L370.43,296.97L370.8,296.73L370.93,296.69L371.41,296.71L371.55,296.61L371.97,296.52L372.5,296.46L372.87,296.39L373.49,296.38L373.69,296.44L374.34,296.41L374.53,296.45L374.74,296.4L375.12,296.53L375.5,296.54L375.69,296.5L375.95,296.54L376.82,296.84L377.39,297.03L377.54,297.05L378.23,297.33L379.06,297.64L379.77,297.79L380.57,297.78L381.25,297.81L381.79,297.72L382.5,297.52L382.86,297.61L383.13,297.7L383.48,297.76L384.01,297.74L384.33,297.67L384.62,297.54L385.06,297.23L385.31,296.93L385.65,297.01L385.9,297.02L386.05,296.9L386.1,296.65L386.2,296.6L388.48,296.55L388.76,296.55L389.86,296.5L390.04,296.51L390.96,296.49L390.95,296.37L390.47,294.05L390.48,293.95L390.39,293.7L390.77,293.47L391.68,292.56L392.22,292.08L392.53,292.38L392.56,292.53L392.42,293.12L392.21,294.19L392.17,294.95L392.18,295.12L392.27,295.43L394.38,295.43Z" class="land" id="ML-1" title="Kayes"/>
    <path d="M415.5,343.2L415.54,343.51L415.65,343.55L415.67,344.39L415.33,344.78L415.5,345.89L415.28,346.09L414.37,345.84L413.99,344.97L413.69,344.83L413.56,344.67L413.47,344.66L413.37,344.9L413.44,345.12L413.24,345.14L413.02,345.23L412.94,345.09L412.93,344.92L413.23,343.59L413.34,343.23L413.57,343.56L413.74,343.58L413.84,343.49L413.8,343.27L414,343.21L414.38,343.21L415.01,342.68L415.15,343.03L415.25,343.18Z" class="land" id="ML-BKO" title="Bamako"/>
  </g>
</svg>