<?xml version="1.0" encoding="UTF-8"?>
<svg xmlns="http://www.w3.org/2000/svg" width="245.09" height="262.3" viewBox="357.46 125.85 245.09 262.3" style="background-color:#000000">
  <!-- Created using SVG Map Generator: dojo.amcharts.com/svg-map-generator -->
  <style>
    .land { fill: #ffffff; stroke: #000000; stroke-width: 0.65; }
  </style>
  <g id="polygons">
    <path d="M392.83,322.39L393.38,323.7L395.15,323.31L396.04,323.89L396.57,325.55L397.63,326.33L399.49,325.06L400.47,325.74L401.62,324.96L402.77,324.96L404.01,324.09L405.25,324.77L406.22,324.67L408.61,325.35L412.16,326.23L415.08,324.09L416.5,324.38L418.62,324.57L422.08,324.28L425.44,325.45L427.92,326.23L429.52,325.94L431.29,325.06L433.32,324.77L435.8,325.35L436.04,325.47L436.02,327.37L436.05,329.65L436.03,331.84L436.09,333.55L436.09,342.42L435.53,342.53L434.96,342.59L434.24,342.59L434.21,342.7L430.76,344.54L427.3,345.12L421.01,349.45L419.25,352.8L419.15,353.24L419.05,353.79L419.04,354.13L419.15,355.46L419.21,355.8L419.29,356.93L419.62,360.5L419.83,362.54L419.95,364.05L420.01,364.44L420.26,367.04L420.34,367.92L420.33,368.15L420.36,368.25L420.39,368.47L420.38,368.79L420.42,368.88L420.51,370.01L420.54,370.24L420.53,370.56L420.58,370.67L420.74,372.43L420.84,373.24L420.84,373.57L420.86,373.65L420.99,374.71L421.18,376.62L419.58,376.59L419.08,376.59L418.97,376.61L418.2,376.57L414.81,376.53L408.06,376.47L403,376.44L402.85,376.45L398.16,376.42L397.66,376.45L397.44,376.42L396.73,376.42L396.62,376.44L395.56,376.42L395.35,376.44L393.99,376.42L392.01,376.42L385.99,376.42L378.37,376.45L371.94,376.52L364.21,376.62L362.86,376.63L362.55,376.69L362.1,378.38L361.99,378.68L361.84,379.2L361.61,380.23L361.52,380.42L361.27,380.79L361.06,381.26L360.93,382.22L360.67,383.13L360.66,384.46L360.88,385.5L360.78,385.43L360.72,385.24L360.67,385.25L360.56,385.02L360.57,384.89L360.47,384.85L360.38,384.64L360.23,384.68L360.17,384.55L360.11,384.52L360.11,384.3L360.25,384.18L360.46,383.83L360.49,383.73L360.44,383.47L360.39,383.35L360.29,383.31L360.23,383.14L360.34,382.87L360.37,382.6L360.43,382.44L360.56,382.26L360.7,381.89L360.68,381.81L360.71,381.32L360.72,380.77L360.69,380.64L360.71,380.51L360.77,380.38L360.79,380.2L360.85,380.02L360.84,379.92L360.89,379.59L361,379.32L360.9,379.13L360.9,378.96L360.93,378.83L360.94,378.54L360.99,378.25L361.05,378.07L361.12,377.52L361.24,377.25L361.19,377.14L361.2,376.82L361.17,376.8L361.2,376.48L361.24,376.38L361.25,376.16L361.4,375.75L361.46,375.48L361.44,375.17L361.48,375.06L361.49,374.79L361.6,374.53L361.61,374.43L361.72,374.1L361.76,373.94L361.76,373.49L361.84,373.15L361.92,372.96L361.95,372.53L361.89,372.47L361.87,372.29L361.91,371.99L362,371.76L362.03,371.59L362.02,371.26L361.96,371.15L361.97,370.99L361.93,370.89L361.91,370.7L361.92,370.41L362,370.29L362.1,370.25L362.16,370.12L362.26,370.03L362.39,369.75L362.4,369.61L362.31,369.55L362.17,369.54L362.18,369.33L362.14,369.21L362.24,369.03L362.23,368.91L362.29,368.77L362.32,368.58L362.48,368.34L362.64,368.23L362.76,368.06L362.98,367.81L363.02,367.7L363.13,367.52L363.24,367.18L363.23,367.07L363.15,367.03L363.18,366.84L363.33,366.62L363.44,366.38L363.46,366.2L363.56,366.09L363.57,365.9L363.75,365.39L363.89,365.17L364.08,364.48L364.17,364.27L364.28,364.08L364.28,363.96L364.37,363.8L364.4,363.64L364.53,363.29L364.8,363.22L365.02,363.07L365.09,362.96L365.08,362.77L364.99,362.65L365.27,362.26L365.58,362.06L365.8,361.85L366,361.62L366.01,361.52L366.12,361.38L366.4,361.15L366.55,361.14L366.82,361.18L366.92,361.39L367,361.44L367.07,361.58L367.49,361.54L367.84,361.43L368.07,361.34L368.2,361.31L368.77,361.01L369.17,360.69L369.15,360.54L369.2,360.4L369.16,360.32L369.43,360.07L369.56,359.83L369.6,359.7L369.7,359.59L369.67,359.34L369.76,359.17L369.77,359L369.82,358.93L369.84,358.63L369.81,358.53L369.9,358.31L369.96,358.25L369.99,358.09L369.97,358.03L369.99,357.83L370.13,357.57L370.27,357.42L370.45,357.32L370.61,357.17L370.67,357.16L371.03,356.83L371.18,356.59L371.19,356.22L371.26,355.88L371.26,355.84L371.44,355.43L371.39,355.31L371.39,355.19L371.45,355.01L371.48,354.78L371.43,354.54L371.43,354.24L371.49,354.08L371.55,353.77L371.53,353.71L371.66,353.55L371.62,353.43L371.73,353.36L371.84,353.17L371.84,353.12L372.03,352.87L372.21,352.59L372.26,352.46L372.26,352.3L372.17,352.18L372.05,352.17L372.03,352.01L372.06,351.9L372.21,351.62L372.25,351.49L372.27,351.29L372.34,351.34L372.38,351.45L372.56,351.44L372.75,351.35L373.15,351.21L373.35,351.11L373.65,350.87L373.88,350.62L374.2,350.2L374.36,349.87L374.43,349.58L374.44,349.24L374.4,349.04L374.34,348.84L374.23,348.63L374.13,348.51L373.99,348.39L373.84,348.31L373.72,348.31L373.57,348.36L373.47,348.31L373.58,348.05L373.65,347.95L373.73,347.73L374.11,347.47L374.12,347.4L374.22,347.31L374.38,347.1L374.4,347.01L374.59,346.88L374.7,346.72L374.72,346.6L374.85,346.4L374.78,346.13L374.82,346.02L375.08,345.74L375.1,345.66L375.23,345.5L375.44,345.07L375.57,344.95L375.65,344.75L375.62,344.56L375.55,344.46L375.7,344.36L376.04,344.04L376.4,343.68L376.58,343.48L376.72,343.2L376.83,343.09L376.85,342.92L376.93,342.79L377.03,342.55L377.17,342.38L377.26,342.11L377.25,342.01L377.16,341.89L377.04,341.85L377.07,341.69L376.9,341.62L376.91,341.54L377.14,341.34L377.39,341.24L377.47,341.09L377.64,340.92L377.7,340.78L377.93,340.64L378.03,340.47L378.01,340.36L378.16,340.17L378.3,339.85L378.38,339.78L378.39,339.62L378.55,339.59L378.63,339.54L378.68,339.41L378.8,339.32L378.81,339.23L378.89,339.17L378.93,338.99L379.03,338.93L379.2,338.63L379.3,338.56L379.49,338.28L379.59,337.95L379.78,337.7L379.8,337.6L380.06,337.44L380.2,337.26L380.31,337.18L380.39,337.04L380.43,336.81L380.49,336.68L380.59,336.59L380.75,336.55L380.81,336.44L380.8,336.36L380.69,336.36L380.61,336.5L380.53,336.52L380.32,336.65L380.32,336.4L380.38,336.3L380.38,336.19L380.47,335.91L380.68,335.64L380.66,335.53L380.74,335.39L380.86,335.31L380.81,335.16L380.82,335.04L380.7,334.89L380.8,334.63L380.84,334.44L380.9,334.36L380.93,334.22L381,334.08L381.01,333.88L380.79,333.99L380.68,334.2L380.52,334.35L380.27,334.44L380.24,334.6L380.31,334.71L380.29,334.88L380.21,334.88L380.16,335.08L380.04,335.1L380.04,334.83L379.89,334.95L379.77,334.99L379.74,335.18L379.6,335.31L379.6,335.4L379.51,335.61L379.37,335.72L379.24,335.76L379.09,335.9L379,335.91L378.93,335.82L378.81,335.87L378.67,336.07L378.57,336.31L378.43,336.35L378.34,336.47L378.26,336.72L378.19,336.77L378.09,336.91L378.05,337.06L378.03,337.3L377.94,337.34L377.9,337.76L377.83,337.86L377.79,338.02L377.78,338.19L377.7,338.28L377.66,338.41L377.51,338.57L377.45,338.71L377.27,338.83L377.19,338.93L377.07,338.99L377.03,339.14L376.81,339.46L376.82,339.57L376.59,339.56L376.52,339.52L376.44,339.38L376.45,339.25L376.55,339.16L376.71,338.94L376.77,338.76L377.02,338.59L377.16,338.38L377.14,338.12L377.16,338.05L377.37,337.89L377.58,337.68L377.71,337.43L377.65,337.34L377.68,337.18L377.76,337.03L377.78,336.85L377.96,336.5L378.51,335.91L378.55,335.82L378.83,335.45L379.03,335.25L379.3,335.08L379.47,334.89L379.45,334.81L379.63,334.75L379.79,334.59L379.97,334.49L380.06,334.38L380.28,334.24L380.51,334.14L380.55,334.09L381.04,333.85L381.25,333.72L381.3,333.72L381.58,333.57L381.66,333.47L381.99,333.29L382.37,332.97L382.5,332.92L382.6,332.84L382.78,332.61L382.84,332.42L382.74,332.27L382.89,332.01L383.17,331.88L383.33,331.71L383.39,331.68L383.59,331.44L383.67,331.32L383.68,331.19L383.93,331.03L383.99,330.95L384.19,330.77L384.3,330.57L384.5,330.38L384.67,330.16L384.9,329.93L385.09,329.78L385.21,329.62L385.34,329.54L385.53,329.36L385.9,329.16L386.16,328.9L386.48,328.62L386.59,328.51L386.77,328.22L387.04,327.93L387.14,327.76L387.29,327.58L387.5,327.27L387.5,327.23L387.62,327.01L387.93,326.62L388.04,326.53L388.13,326.37L388.34,326.24L388.38,326.16L388.58,326.01L388.94,325.57L389.12,325.49L389.2,325.41L389.74,325.15L389.98,325.06L390.19,325L390.36,324.92L390.61,324.86L390.66,324.8L390.92,324.7L391.1,324.59L391.33,324.38L391.39,324.25L391.4,324L391.51,323.86L391.59,323.61L391.64,323.23L391.82,323.1L392.04,323.02L392.36,322.83L392.56,322.65L392.71,322.48Z" class="land" id="MA-12" title="Dakhla-Oued Ed-Dahab"/>
    <path d="M439.44,263.65L439.88,264.8L440.35,266.08L440.95,266.61L441.39,267.17L441.75,268.09L441.89,268.66L442.59,269.79L443.32,270.67L446.31,270.69L448.08,271.79L448.79,271.89L449.58,270.99L454.37,270.99L457.2,270.89L458,271.59L460.3,270.59L461.1,270.79L462.34,270.99L463.49,272.59L465.08,274.09L467.47,273.09L470.13,276.69L471.46,276.89L472.43,277.59L474.91,277.39L475.71,276.49L476.68,276.39L481.11,283.86L482.97,284.45L485.18,284.85L485.62,284.86L485.64,295.65L485.61,300.74L481.07,300.75L476.53,300.71L473.5,300.73L472.37,300.7L470.54,300.74L470.38,300.71L467.52,300.73L462.62,300.7L460.3,300.72L455.65,300.7L453.34,300.72L442.57,300.72L437.3,300.73L436.03,300.72L436.02,302.96L436.04,305.18L436,320.69L436.05,325.17L436.04,325.47L435.8,325.35L433.32,324.77L431.29,325.06L429.52,325.94L427.92,326.23L425.44,325.45L422.08,324.28L418.62,324.57L416.5,324.38L415.08,324.09L412.16,326.23L408.61,325.35L406.22,324.67L405.25,324.77L404.01,324.09L402.77,324.96L401.62,324.96L400.47,325.74L399.49,325.06L397.63,326.33L396.57,325.55L396.04,323.89L395.15,323.31L393.38,323.7L392.83,322.39L393.01,322.27L393.18,322.08L393.19,321.94L393.15,321.85L393.15,321.55L393.1,321.44L393.18,321.15L393.18,320.99L393.28,320.67L393.29,320.55L393.4,320.22L393.52,320L393.53,319.9L393.66,319.68L393.7,319.41L393.8,319.27L393.83,319.1L393.92,318.9L393.95,318.72L393.95,318.38L393.9,318.12L393.93,317.89L394.01,317.73L394.05,317.37L394.06,316.84L394.12,316.55L394.1,316.25L394.03,316.15L393.98,315.97L393.79,315.85L393.78,315.74L393.85,315.54L393.8,315.26L393.72,315.13L393.82,314.93L393.82,314.76L393.86,314.54L393.8,314.22L393.74,314.04L393.72,313.83L393.76,313.66L393.83,313.55L393.91,313.27L393.98,313.19L394.02,313.03L394.04,312.84L393.98,312.52L393.98,312.33L394.16,312.04L394.22,311.89L394.19,311.64L394.25,311.59L394.4,311.31L394.51,310.97L394.48,310.68L394.6,310.3L394.74,310.11L394.76,309.98L394.9,309.8L394.98,309.65L395.15,309.45L395.27,309.35L395.42,309.17L395.47,309.04L395.58,308.92L395.75,308.57L395.79,308.45L395.93,308.23L395.96,308.08L396.08,307.75L396.11,307.47L396.09,307.39L396.12,307.1L396.1,307L396.19,306.87L396.3,306.5L396.42,306.23L396.42,306.1L396.46,305.96L396.46,305.81L396.55,305.52L396.61,305.42L396.66,305.21L396.75,304.98L396.81,304.71L396.81,304.59L396.87,304.44L397.17,304.24L397.24,304.11L397.37,303.98L397.59,303.58L397.72,303.43L397.87,303.22L397.93,303.08L397.94,302.95L398.33,302.28L398.43,302.09L398.48,301.74L398.62,301.59L398.74,301.18L398.81,301.1L398.9,300.91L398.93,300.76L398.97,300.31L399.05,300.1L399.02,299.87L399.03,299.47L399.06,299.41L399.08,299.14L399.03,298.91L398.91,298.67L398.85,298.61L399.1,298.07L399.13,297.94L399.2,297.87L399.26,297.7L399.45,297.46L399.72,297.02L399.78,296.98L399.93,296.75L400.11,296.62L400.31,296.34L400.42,296.3L400.57,296.3L400.9,296.26L401.19,296.19L401.44,296.11L401.66,295.97L401.67,295.92L401.88,295.7L402.29,295.43L402.36,295.35L402.55,295.21L402.67,295.1L402.88,294.76L403.03,294.64L403.26,294.35L403.49,293.93L403.5,293.8L403.59,293.65L403.73,293.6L403.98,293.64L404.21,293.64L404.71,293.58L405.12,293.48L405.78,293.29L405.89,293.22L406.08,293.17L406.25,293.09L406.38,292.99L406.65,292.88L406.76,292.77L406.89,292.69L407.06,292.5L407.23,292.4L407.34,292.27L407.51,292.14L407.76,291.99L407.89,291.95L408.1,291.82L408.31,291.71L408.59,291.46L408.9,291.34L409.13,291.17L409.24,291.14L409.51,290.97L409.64,290.86L409.77,290.83L410.16,290.57L410.62,290.31L410.76,290.2L411.12,289.97L411.81,289.44L412.08,289.19L412.15,289.09L412.57,288.63L412.66,288.54L412.83,288.3L412.85,288.21L413.03,287.92L413.14,287.63L413.28,287.44L413.36,287.2L413.36,287.1L413.52,286.79L413.78,286.18L413.97,285.57L413.93,285.48L413.97,285.32L414.08,285.1L414.16,284.71L414.32,284.36L414.51,283.87L414.65,283.57L414.74,283.32L414.77,283.1L414.84,282.91L414.95,282.76L414.97,282.52L414.92,282.43L415,282.21L415.02,281.94L415.08,281.75L415.12,281.49L415.12,281.3L415.24,281.16L415.38,280.93L415.43,280.78L415.6,280.52L415.67,280.3L416.01,279.71L416.2,279.51L416.39,279.2L416.52,278.92L416.67,278.64L416.72,278.3L416.88,278.09L417.08,277.61L417.11,277.38L417.18,277.16L417.28,276.92L417.36,276.64L417.49,276.32L417.58,276.05L417.78,275.61L417.83,275.29L417.89,275.13L417.97,274.76L418.08,274.55L418.15,274.32L418.18,274.01L418.26,273.72L418.26,273.64L418.35,273.44L418.45,273.29L418.72,272.61L418.72,272.49L418.82,272.38L419.28,272.2L419.52,271.98L419.88,271.82L420.15,271.73L420.46,271.47L420.54,271.34L420.65,271.06L420.8,270.73L421.08,270.5L421.11,270.27L421.19,270.12L421.18,270.04L421.26,269.79L421.37,269.67L421.38,269.53L421.46,269.26L421.46,269.17L421.72,268.89L421.82,268.61L422.15,268.46L422.21,268.27L422.41,268.13L422.44,268.07L423.08,268.04L423.42,267.97L423.52,267.98L423.74,267.87L424.38,267.8L424.79,267.75L424.96,267.74L425.35,267.69L425.42,267.65L425.91,267.6L426.13,267.6L426.69,267.5L426.88,267.49L427.09,267.42L427.48,267.38L427.63,267.34L428.05,267.27L428.27,267.17L428.8,267.07L429.2,267.02L429.3,266.98L429.61,266.93L430.42,266.76L430.52,266.76L430.97,266.64L431.73,266.52L432.03,266.46L432.24,266.38L432.61,266.37L432.95,266.29L433.21,266.25L433.72,266.09L434.47,265.89L434.84,265.83L435.12,265.68L435.33,265.64L435.4,265.51L435.8,265.29L435.94,265.25L436.16,265.12L436.46,264.98L436.73,264.79L436.91,264.72L437.24,264.54L437.35,264.52L437.51,264.43L438.48,264.06L438.75,263.92L439.12,263.75Z" class="land" id="MA-11" title="Laâyoune-Sakia El Hamra"/>
    <path d="M465.41,239.97L465.98,241.57L467.36,240.59L467.69,242.79L468.64,243.58L469.39,242.72L470.34,242.24L471.19,243.21L472.41,242.05L473.1,242.48L473.32,243.33L473.79,242.85L474.33,243.03L474.64,242.66L474.86,241.57L477.09,241.81L478.1,243.52L478.37,245.16L478.68,245.62L478.67,245.66L479.59,246.32L479.53,247.48L479,247.72L478.9,248.76L478.47,249L477.52,248.94L476.93,249.36L477.14,250.34L477.52,250.58L477.94,250.82L477.73,251.85L479.06,251.85L478.63,252.89L478.47,253.86L478.68,254.52L479.69,254.52L479.8,255.8L481.66,256.16L481.71,257.73L484.95,261.78L485.71,261.89L485.7,263.22L485.72,268.55L485.72,272.83L485.67,272.83L485.64,273.88L485.65,276.58L485.61,279.07L485.63,279.24L485.62,280.58L485.65,281.95L485.62,283.3L485.62,284.86L485.18,284.85L482.97,284.45L481.11,283.86L476.68,276.39L475.71,276.49L474.91,277.39L472.43,277.59L471.46,276.89L470.13,276.69L467.47,273.09L465.08,274.09L463.49,272.59L462.34,270.99L461.1,270.79L460.3,270.59L458,271.59L457.2,270.89L454.37,270.99L449.58,270.99L448.79,271.89L448.08,271.79L446.31,270.69L443.32,270.67L442.59,269.79L441.89,268.66L441.75,268.09L441.39,267.17L440.95,266.61L440.35,266.08L439.88,264.8L439.44,263.65L439.71,263.5L439.95,263.44L440.05,263.36L440.39,263.26L440.51,263.17L440.59,263.17L440.99,263.03L441.1,263.03L441.36,262.92L441.8,262.8L441.87,262.74L442.23,262.61L442.48,262.47L442.74,262.39L442.89,262.3L443.01,262.35L443,262.45L443.14,262.46L443.1,262.35L443.14,262.23L443.27,262.11L443.43,262.06L443.65,261.83L443.94,261.68L444.1,261.57L444.27,261.3L444.34,261L444.39,260.9L444.55,260.82L444.63,260.67L444.73,260.63L444.96,260.37L445.1,260.09L445.18,260.04L445.19,259.85L445.3,259.73L445.47,259.65L445.66,259.47L445.76,259.32L445.72,259.25L445.8,259.05L446.15,258.64L446.22,258.53L446.36,258.42L446.43,258.3L446.78,258.05L447.07,257.77L447.21,257.66L447.62,257.19L447.73,256.99L447.91,256.79L448.28,256.55L448.5,256.37L448.99,255.82L449.29,255.65L449.32,255.57L449.53,255.36L449.65,255.16L449.86,254.9L449.86,254.73L449.97,254.68L450.3,254.42L450.48,254.33L450.6,254.31L450.9,254.19L451.11,254.02L451.35,253.91L451.4,253.85L451.53,253.82L451.72,253.69L451.83,253.67L452.25,253.45L452.35,253.42L452.59,253.27L452.96,253.09L453.08,253.01L453.29,252.92L453.76,252.64L454.44,252.3L454.51,252.23L455.25,251.84L455.46,251.7L455.88,251.47L456.22,251.24L456.32,251.19L456.76,250.91L456.92,250.78L457.01,250.75L457.2,250.6L457.65,250.33L458.28,249.85L458.55,249.49L458.62,249.46L458.68,249.33L458.79,249.26L458.96,249.06L459.05,248.88L459.18,248.81L459.2,248.73L459.31,248.73L459.32,248.6L459.42,248.39L459.54,248.21L459.55,248.12L459.71,248L459.82,247.99L459.83,247.84L460.01,247.59L460.03,247.46L460.23,247.22L460.39,247.08L460.79,246.63L460.82,246.48L461.18,246.19L461.47,245.85L461.63,245.83L461.95,245.63L462.04,245.53L462.11,245.52L462.33,245.27L462.4,245.25L462.51,245.12L462.66,244.99L462.67,244.87L462.78,244.59L463.07,244.17L463.16,243.9L463.35,243.61L463.54,243.39L463.55,243.32L464.02,242.88L464.14,242.71L464.45,242.03L464.6,241.9L464.72,241.76L464.73,241.59L464.81,241.31L464.77,241.25L464.9,241.15L464.86,241.05L464.92,240.93L465.02,240.92L464.97,240.76L465.05,240.54L465.13,240.47L465.19,240.28L465.36,240.18Z" class="land" id="MA-10" title="Guelmim-Oued Noun"/>
    <path d="M518.62,240.74L518.46,240.8L518.18,240.94L518.04,241.05L517.77,241.21L517.66,241.39L517.58,241.46L517.47,241.46L517.27,241.39L517.07,241.42L516.85,241.43L516.65,241.38L516.22,241.31L516.14,241.35L516.14,241.45L516.04,241.48L515.82,241.47L515.62,241.51L515.3,241.51L515.09,241.55L514.7,241.72L514.32,242.23L514.07,242.43L513.86,242.46L513.65,242.43L513.44,242.43L513.02,242.36L512.83,242.27L512.69,242.11L512.59,242.08L512.38,242.1L512.17,242.07L511.91,241.89L511.7,241.85L511.49,241.87L511.28,241.86L511.07,241.91L510.97,241.9L510.81,241.76L510.7,241.75L510.5,241.79L510.31,241.9L510.21,241.92L510.02,241.84L509.91,241.83L509.61,241.75L509.34,241.57L508.94,241.43L508.84,241.41L508.63,241.46L508.32,241.42L508.22,241.46L507.76,241.73L507.26,241.92L506.98,242.06L506.79,242.2L506.17,242.49L505.53,242.85L504.65,243.28L503.03,243.43L501.62,243.93L501.34,244.08L501.21,244.25L501.24,244.45L501.24,244.65L501.11,244.81L501.08,244.91L500.93,245.05L500.85,245.25L500.66,245.19L500.36,245.27L500.19,245.39L499.98,245.45L499.4,245.68L498.84,245.98L498.67,246.12L498.37,246.41L498.2,246.54L497.97,246.76L497.69,246.91L497.49,246.98L497.37,247.14L497.16,247.16L496.98,247.27L496.65,247.53L496.29,247.92L496.25,248.13L495.65,248.54L495.18,248.79L494.83,249.01L494.67,249.16L494.48,249.22L494.08,249.56L493.81,249.73L493.65,249.87L493.47,249.98L493.4,250.06L493.2,250.12L493,250.07L492.67,250.33L492.32,250.57L491.95,250.96L491.6,251.19L491.07,251.6L490.37,252.21L489.65,252.96L489.2,253.48L488.75,253.82L488.15,254.06L486.96,254.64L486.87,254.7L485.95,255.12L485.7,255.21L485.71,259.5L485.71,261.89L484.95,261.78L481.71,257.73L481.66,256.16L479.8,255.8L479.69,254.52L478.68,254.52L478.47,253.86L478.63,252.89L479.06,251.85L477.73,251.85L477.94,250.82L477.52,250.58L477.14,250.34L476.93,249.36L477.52,248.94L478.47,249L478.9,248.76L479,247.72L479.53,247.48L479.59,246.32L478.67,245.66L478.68,245.62L478.37,245.16L478.1,243.52L477.09,241.81L474.86,241.57L474.64,242.66L474.33,243.03L473.79,242.85L473.32,243.33L473.1,242.48L472.41,242.05L471.19,243.21L470.34,242.24L469.39,242.72L468.64,243.58L467.69,242.79L467.36,240.59L465.98,241.57L465.41,239.97L465.49,239.89L465.71,239.57L465.72,239.46L465.81,239.34L465.96,239.23L466,239.11L466.08,239.05L466.12,238.79L466.34,238.6L466.37,238.49L466.6,238.28L466.85,238.02L467.09,237.8L467.16,237.75L467.56,237.4L467.8,237.15L467.9,237.03L468.1,236.84L468.26,236.61L468.37,236.57L468.44,236.33L468.62,236.06L468.83,235.82L469,235.55L469.03,235.43L468.97,235.38L469.23,234.98L469.33,234.86L469.41,234.68L469.4,234.58L469.48,234.35L469.69,234.03L469.77,233.8L469.81,233.75L469.86,233.56L470,233.35L470.09,233.1L470.15,233.02L470.21,232.82L470.29,232.71L470.41,232.35L470.78,231.89L470.81,231.65L470.87,231.42L471.01,231.12L471.03,230.81L471.1,230.67L471.19,230.33L471.25,230.02L471.25,229.82L471.21,229.64L471.3,229.42L471.39,228.98L471.39,228.79L471.49,228.31L471.53,228L471.6,227.62L471.66,227.45L471.71,227.09L471.76,226.99L471.75,226.87L471.78,226.64L471.83,226.58L471.84,226.34L471.81,226.3L471.75,226.05L471.61,225.93L471.54,225.98L471.32,225.97L471.1,225.83L471.13,225.73L471.08,225.66L470.93,225.58L470.8,225.24L470.77,225.02L470.71,224.94L470.7,224.78L470.63,224.56L470.56,224.55L470.5,224.35L470.41,224.09L470.28,223.88L470.08,223.81L469.93,223.83L469.74,223.74L469.64,223.35L469.57,223.32L469.47,223.19L469.39,223.01L469.24,222.96L469.09,222.72L468.77,222.62L468.58,222.46L468.24,222.4L467.96,222.48L467.63,222.46L467.52,222.37L467.55,221.85L467.69,221.31L467.76,221.14L467.96,220.99L468.1,220.79L468.07,220.58L468.26,220.33L468.4,220.03L468.4,219.85L468.6,219.63L468.62,219.44L468.76,219.17L468.74,218.83L468.69,218.75L468.59,218.72L468.44,218.61L468.52,218.44L468.6,218.18L468.65,218.13L468.66,217.93L468.73,217.82L468.54,217.5L468.59,217.22L468.56,217.16L468.54,216.81L468.76,216.99L469.21,217.42L469.66,217.94L469.75,218.17L469.65,219.82L470.02,220.13L470.71,220.13L471.24,219.89L471.61,219.27L471.63,219.07L471.85,219.16L472.06,219.12L472.28,218.96L472.69,218.32L472.82,218.18L472.93,218.18L472.98,218.29L472.87,218.69L472.94,218.79L473.09,218.87L473.43,218.91L473.67,219.01L473.95,219.19L474.15,219.18L474.35,219.13L474.62,218.94L474.93,218.96L475.6,218.84L475.94,219.15L476.19,219.22L476.48,219.26L476.76,219.24L476.98,219.14L477.01,219.09L477.3,219.7L477.88,219.95L478.25,219.39L478.22,218.78L478.55,218.63L478.74,218.59L479.12,218.61L479.51,218.66L480.09,218.8L480.17,218.9L481.07,219.45L481.19,217.83L481.46,217.68L481.93,217.59L482.44,217.3L482.86,217.01L483.2,216.66L483.45,216.32L483.76,216.29L484.02,216.35L484.11,216.49L484.17,216.73L484.25,216.75L484.36,217.6L484.2,218.46L484.36,219.02L484.79,218.83L485.21,218.34L485.3,218.22L485.44,218.59L485.63,218.61L485.96,218.53L486.17,218.28L486.48,218.04L486.92,217.93L487.45,217.88L487.96,217.93L488.42,218.01L488.98,218.03L489.15,218.01L489.2,218.09L490.05,218.65L490.69,218.71L491.38,218.28L492.55,217.29L492.93,217.17L493.31,216.99L493.77,216.82L494.18,216.58L494.41,216.77L494.48,216.88L494.65,216.97L494.65,217.12L494.58,217.38L494.6,217.53L494.73,217.6L495.26,218.15L495.9,217.91L496.27,217.16L496.36,216.44L496.59,216.25L497.05,215.9L497.14,215.69L497.16,215.43L497.03,215.21L497.09,215.1L497.44,214.94L497.79,214.76L498.15,214.52L498.6,214.06L498.96,213.67L499.37,213.37L499.66,213.19L499.91,213.08L499.77,213.69L499.24,214.31L499.19,215.3L500.46,215.18L499.83,215.92L499.77,216.48L499.67,218.46L501.37,218.59L500.73,219.14L500.09,219.82L499.77,220.63L501.74,220.75L501.69,222.17L502.27,222.73L502.64,222.91L503.39,224.15L502.11,224.15L501.69,225.07L500.78,225.26L500.04,225.26L500.41,226.06L500.52,226.92L500.94,226.8L501.26,226.68L501.63,227.11L501.95,227.85L502.09,228.6L501.7,228.85L501.12,229.36L501,229.59L503.81,229.63L503.89,229.79L503.89,230.15L503.96,230.48L504.31,230.44L504.53,230.23L504.84,229.98L505.28,230.34L505.35,230.33L505.84,230.87L506.14,231.32L506.52,231.44L506.6,231L505.9,230.01L505.9,229.11L506.7,228.49L507.01,227.77L507.27,227.11L507.5,226.39L508.03,226.23L508.56,226.59L509.09,227.06L509.71,227.41L509.77,227.52L509.96,227.54L510.28,227.61L510.67,227.76L510.73,227.36L511.3,227.16L512.06,227L512.5,227.41L512.59,225.21L513.39,225.77L513.78,225.77L514.14,225.57L514.58,225.05L515.16,224.59L515.42,224.64L515.6,224.9L515.55,225.67L515.49,226.13L515.99,226.4L517.24,226.08L517.59,226.54L517.99,227.16L518.12,227.52L517.9,227.98L517.45,228.12L516.57,229.04L516.51,229.9L517.15,230.27L517.84,230.76L517.63,231.5L517.15,231.99L517.15,232.6L517.63,232.79L518.32,232.54L518.74,232.23L519.27,232.42L519.79,232.42L519.83,232.71L519.82,233.08L519.59,233.28L518.74,233.95L518.05,234.63L518.37,235.48L518.69,236.04L518.42,236.52L517.95,237.26L517.95,237.75L518.32,237.75L518.9,238.12L518.85,239.65L518.58,240.32Z" class="land" id="MA-09" title="Souss-Massa"/>
    <path d="M555.22,187.87L555.4,188.09L555.52,188.32L556,188.46L556.54,189.03L556.31,189.93L556.09,189.88L555.92,190.03L555.78,190.29L556.18,190.61L556.76,190.81L556.78,190.87L557.07,190.87L557.82,191.13L558.26,191.87L558.38,193.31L558.44,194.38L558.71,195.06L559.72,195.27L559.88,195.24L560.13,195.38L560.43,195.41L560.26,195.95L560.03,196.58L560.7,196.37L561.41,195.74L561.82,195.25L562.03,195.26L562.65,195.35L562.88,195.37L563.13,195.85L563.75,196.11L564.73,196.32L565.57,196.16L566.04,195.88L566.06,195.88L567.38,195.06L566.81,196.16L566.32,197.62L566.32,198.2L566.81,199.87L567.16,201.02L568.36,201.69L567.34,202.37L566.81,202.63L566.06,203.07L566.17,203.58L566.35,203.83L568.42,203.8L568.44,204.9L564.78,204.87L564.42,205.05L564.1,205.35L563.83,205.75L563.57,206.2L563.15,206.52L562.89,206.75L562.57,207L562.02,207.12L561.51,207.44L561.13,207.67L560.81,207.69L560.43,207.57L559.98,207.02L559.5,207.18L559.33,207.48L559.25,207.84L559.33,208.14L559.39,208.47L559.5,208.87L559.5,209.14L559.22,209.4L558.68,209.44L558.34,209.64L558.11,209.93L558.2,210.43L558.31,210.9L558.31,211.69L558.11,212.55L557.77,212.82L557.69,213.28L558.08,213.55L558.31,213.55L558.65,213.35L559.27,213.55L559.31,214.01L559.59,214.18L560.04,213.81L560.12,213.88L560.03,214.07L560.06,214.27L559.98,214.46L560.23,214.53L560.49,214.54L560.61,214.99L561.05,215.4L561.54,215.61L561.63,216.18L561.27,216.64L560.65,217.57L559.81,218.19L559.24,218.91L558.71,219.69L557.64,220.87L557.29,221.64L557.21,222.49L556.59,222.66L555.66,222.92L555.27,223.02L554.43,223.07L553.03,223.15L552.69,223.28L551.37,223.77L551.05,223.9L550.43,224.12L548.39,226.15L547.24,226.17L545.55,227.86L543.87,228.89L541.88,230.12L541.47,230.72L541.26,230.82L540.73,231.26L538.55,233.13L538.48,233.19L538.27,233.22L537.68,233.17L537.26,233.56L537,234.01L536.99,234.2L536.74,234.38L536.56,234.69L536.23,234.86L536.06,235L535.81,235.39L535.51,235.45L535.26,236.04L535.11,236.58L534.75,236.9L533.92,237.56L532.92,238.54L532.28,239.98L531.94,240.79L531.69,241.5L531.71,241.99L531.65,242.3L531.52,242.82L531.14,243.08L530.54,243.06L530.26,242.72L530.2,242.03L529.73,241.86L529.33,241.94L528.92,241.91L528.54,240.79L528.2,240.76L527.84,240.98L527.52,241.45L527.14,241.72L526.35,241.74L525.08,242.11L524.12,242.3L522.97,242.33L522.12,242.33L521.57,241.98L521.08,241.57L520.32,241.45L519.68,241.23L519.19,241.37L518.64,241.06L518.62,240.74L518.58,240.32L518.85,239.65L518.9,238.12L518.32,237.75L517.95,237.75L517.95,237.26L518.42,236.52L518.69,236.04L518.37,235.48L518.05,234.63L518.74,233.95L519.59,233.28L519.82,233.08L519.83,232.71L519.79,232.42L519.27,232.42L518.74,232.23L518.32,232.54L517.63,232.79L517.15,232.6L517.15,231.99L517.63,231.5L517.84,230.76L517.15,230.27L516.51,229.9L516.57,229.04L517.45,228.12L517.9,227.98L518.12,227.52L517.99,227.16L517.59,226.54L517.24,226.08L515.99,226.4L515.49,226.13L515.55,225.67L515.6,224.9L515.42,224.64L515.16,224.59L514.58,225.05L514.14,225.57L513.78,225.77L513.39,225.77L512.59,225.21L512.5,227.41L512.06,227L511.3,227.16L510.73,227.36L510.67,227.76L510.28,227.61L509.96,227.54L509.77,227.52L509.71,227.41L509.09,227.06L508.56,226.59L508.03,226.23L507.5,226.39L507.27,227.11L507.01,227.77L506.7,228.49L505.9,229.11L505.9,230.01L506.6,231L506.52,231.44L506.14,231.32L505.84,230.87L505.35,230.33L505.28,230.34L504.84,229.98L504.53,230.23L504.31,230.44L503.96,230.48L503.89,230.15L503.89,229.79L503.81,229.63L501,229.59L501.12,229.36L501.7,228.85L502.09,228.6L501.95,227.85L501.63,227.11L501.26,226.68L500.94,226.8L500.52,226.92L500.41,226.06L500.04,225.26L500.78,225.26L501.69,225.07L502.11,224.15L503.39,224.15L502.64,222.91L502.27,222.73L501.69,222.17L501.74,220.75L499.77,220.63L500.09,219.82L500.73,219.14L501.37,218.59L499.67,218.46L499.77,216.48L499.83,215.92L500.46,215.18L499.19,215.3L499.24,214.31L499.77,213.69L499.91,213.08L500.21,212.95L500.71,212.93L501.23,212.62L502,211.93L502.76,211.82L503.27,211.26L503.69,211.07L504,210.91L505.37,210.83L505.91,210.73L506.36,210.61L506.54,210.43L507.14,209.53L507.52,209.27L507.61,209.24L507.61,208.88L507.81,208.64L508.23,208.46L508.25,208.56L508.4,209.01L508.47,209L508.74,209.64L509.37,209.67L509.79,209.47L510,209.19L510.49,209.3L510.53,209.67L510.98,210.2L511.86,210.2L512.63,210.07L514.21,209.94L514.64,209.47L514.66,207.05L514.95,207.04L515.34,206.95L515.42,206.91L515.8,207.18L516.54,207.35L517.25,207.18L517.65,206.82L518.21,206.55L519.23,206.49L519.77,206.02L520.34,205.32L521.07,204.66L521.5,204.48L521.87,204.34L522.44,204.49L522.95,204.22L523.68,204.26L524.36,203.82L525.27,203.26L525.67,202.36L526.18,201.59L526.6,201.49L527.48,201.56L527.98,201.21L528.15,200.91L528.38,200.21L528.4,199.56L528.11,199.11L527.7,198.83L527.3,198.53L527.34,197.88L527.6,197.18L527.79,196.78L528.12,196.54L528.14,196.61L528.9,196.59L529.97,196.56L530.28,196.09L530.54,194.71L531.13,194.4L532.07,194.45L532.56,194.5L532.83,194.58L533.45,194.88L533.81,194.93L533.68,194.65L533.28,194.25L533.15,193.73L533.3,193.35L533.37,192.82L533.18,192.57L533.05,192.34L532.39,192.22L532.24,192.04L532.21,191.86L532.47,191.47L532.52,191.23L532.52,191.05L532.77,190.71L532.85,190.56L533.9,190.66L534.39,190.71L534.39,189.3L535.48,189.3L535.69,188.64L536.01,187.46L535.94,183.87L536.52,183.26L536.81,182.93L536.84,182.94L537.52,182L537.8,181.82L538.24,181.85L538.63,182L539.09,182.02L539.37,181.8L539.54,181.42L539.69,180.73L539.94,179.87L540.26,179.49L541.11,179.69L541.5,179.62L541.77,179.31L542.07,179.11L542.5,179.19L542.7,179.26L542.91,179.63L543.28,179.87L544.02,180.71L544.12,180.92L544.07,181.24L543.88,181.53L543.84,181.95L543.98,182.3L544.56,182.76L545.24,183.04L545.57,182.93L546.08,182.97L546.57,182.79L547.03,182.76L547.53,182.76L548.03,182.85L548.25,182.99L548.49,183.26L548.72,183.79L548.86,184.06L549.46,184.45L549.9,184.89L550.42,185.37L550.83,185.83L550.9,186.51L550.87,187.19L551.62,188.25L552.24,188.46L553.3,188.25L553.66,187.88L553.84,187.48L554.39,187.26L554.9,187.49Z" class="land" id="MA-08" title="Drâa-Tafilalet"/>
    <path d="M509.13,193.14L509.12,193.33L508.97,193.89L509,194.12L509.13,194.51L509.23,194.89L509.27,195.27L509.12,195.9L509.04,197.2L509.19,198.14L509.62,198.56L510.08,198.81L510.17,199.27L510.06,199.42L510.02,199.68L510.2,199.89L510.14,200.2L510.23,200.42L510.43,200.5L510.89,201.12L510.87,201.16L511.1,201.49L510.96,201.82L510.82,202.39L510.48,202.96L508.98,203.06L508.32,203.22L507.93,203.22L507.67,202.86L507.36,202.62L506.79,202.76L506.51,203.06L506.11,203.52L505.87,203.56L505.77,203.89L505.93,204.38L506.06,204.39L506.76,204.39L507.11,204.72L507.22,205.06L507.44,205.85L508.23,206.02L508.39,206.07L508.92,206.05L509.06,206.22L509.12,206.59L508.89,207.28L508.25,208.56L508.23,208.46L507.81,208.64L507.61,208.88L507.61,209.24L507.52,209.27L507.14,209.53L506.54,210.43L506.36,210.61L505.91,210.73L505.37,210.83L504,210.91L503.69,211.07L503.27,211.26L502.76,211.82L502,211.93L501.23,212.62L500.71,212.93L500.21,212.95L499.66,213.19L499.37,213.37L498.96,213.67L498.6,214.06L498.15,214.52L497.79,214.76L497.44,214.94L497.09,215.1L497.03,215.21L497.16,215.43L497.14,215.69L497.05,215.9L496.59,216.25L496.36,216.44L496.27,217.16L495.9,217.91L495.26,218.15L494.73,217.6L494.6,217.53L494.58,217.38L494.65,217.12L494.65,216.97L494.48,216.88L494.41,216.77L494.18,216.58L493.77,216.82L493.31,216.99L492.93,217.17L492.55,217.29L491.38,218.28L490.69,218.71L490.05,218.65L489.2,218.09L489.15,218.01L488.98,218.03L488.42,218.01L487.96,217.93L487.45,217.88L486.92,217.93L486.48,218.04L486.17,218.28L485.96,218.53L485.63,218.61L485.44,218.59L485.3,218.22L485.21,218.34L484.79,218.83L484.36,219.02L484.2,218.46L484.36,217.6L484.25,216.75L484.17,216.73L484.11,216.49L484.02,216.35L483.76,216.29L483.45,216.32L483.2,216.66L482.86,217.01L482.44,217.3L481.93,217.59L481.46,217.68L481.19,217.83L481.07,219.45L480.17,218.9L480.09,218.8L479.51,218.66L479.12,218.61L478.74,218.59L478.55,218.63L478.22,218.78L478.25,219.39L477.88,219.95L477.3,219.7L477.01,219.09L476.98,219.14L476.76,219.24L476.48,219.26L476.19,219.22L475.94,219.15L475.6,218.84L474.93,218.96L474.62,218.94L474.35,219.13L474.15,219.18L473.95,219.19L473.67,219.01L473.43,218.91L473.09,218.87L472.94,218.79L472.87,218.69L472.98,218.29L472.93,218.18L472.82,218.18L472.69,218.32L472.28,218.96L472.06,219.12L471.85,219.16L471.63,219.07L471.61,219.27L471.24,219.89L470.71,220.13L470.02,220.13L469.65,219.82L469.75,218.17L469.66,217.94L469.21,217.42L468.76,216.99L468.54,216.81L468.46,216.58L468.48,216.35L468.53,216.23L468.64,216.09L468.69,215.96L468.71,215.75L468.58,215.51L468.6,215.34L468.57,215.01L468.48,214.96L468.59,214.65L468.59,214.36L468.55,214.3L468.35,214.21L468.25,214.22L468.21,214.13L468.24,213.93L468.34,213.82L468.26,213.56L468.29,213.36L468.38,213.23L468.37,213.05L468.47,213L468.55,212.85L468.62,212.62L468.61,212.52L468.51,212.49L468.5,212.3L468.56,212.2L468.58,211.98L468.54,211.9L468.57,211.7L468.64,211.63L468.85,211.18L468.9,210.94L468.85,210.85L468.93,210.48L468.93,210.26L468.87,210.19L468.9,210.05L468.88,209.8L468.83,209.77L468.79,209.54L468.68,209.34L468.59,209.26L468.33,209.24L468.23,209.2L468.34,208.75L468.52,208.6L468.7,208.42L469,208.01L469.05,207.86L469.18,207.66L469.23,207.47L469.39,207.26L469.36,207.13L469.13,207.09L469.26,206.95L469.35,206.95L469.48,206.78L469.76,206.57L470.06,206.17L470.25,205.86L470.52,205.47L470.56,205.25L470.61,205.22L470.71,204.87L470.67,204.67L470.67,204.38L470.7,203.93L470.65,203.75L470.93,203.55L471.08,203.42L471.45,203L471.56,202.8L471.71,202.65L471.74,202.51L471.88,202.38L472.02,202.16L472.02,202.1L472.23,201.89L472.28,201.8L472.44,201.73L472.61,201.47L472.86,201.22L472.93,201.11L472.93,201.01L473.09,200.85L473.26,200.71L473.41,200.48L473.74,200.12L473.74,200.04L473.9,199.84L474,199.76L474.18,199.56L474.39,199.36L474.43,199.26L474.81,198.84L474.88,198.72L475.44,198.1L475.61,197.96L475.69,197.66L475.69,197.51L475.84,197.34L475.84,197L475.93,196.87L475.92,196.77L475.99,196.65L475.95,196.51L476.38,195.99L476.61,195.73L476.74,195.52L476.85,195.41L476.85,195.28L476.98,194.96L476.96,194.85L477.01,194.67L476.96,194.43L476.91,194.38L476.87,194.23L476.79,194.18L476.79,194.06L476.87,193.95L476.94,193.75L476.99,193.71L477.11,193.28L477.09,193.1L477.01,192.89L476.86,192.86L476.56,192.7L476.56,192.39L476.42,192.17L476.44,192L476.49,191.86L476.62,191.7L476.86,191.48L477.03,191.1L477.08,190.93L477.2,190.7L477.26,190.49L477.3,190.11L477.01,189.74L476.89,189.68L476.81,189.48L476.71,189.41L476.71,189.23L476.57,189.07L476.49,188.93L476.87,188.62L477,188.56L477.28,188.33L477.48,188.1L477.78,187.89L477.94,187.72L478.09,187.63L478.32,187.39L478.58,187.17L478.74,186.98L478.96,186.82L479.09,186.64L479.25,186.5L479.54,186.16L479.64,186.07L479.89,185.73L480.34,185.84L480.91,185.74L481.34,186.04L481.53,186.58L481.53,186.99L481.36,187.35L481,187.62L480.94,188.06L481,188.5L481.25,188.73L481.9,189.24L482.47,189.84L483.09,189.91L483.69,189.64L484.28,189.54L484.85,189.41L485.64,189.34L486.44,189.41L486.95,189.84L487.23,190.78L487.06,191.22L487.12,191.92L487.66,192.5L487.88,193.17L488.25,193.17L488.59,193.03L489.06,193.03L489.35,192.97L490.04,192.75L490.49,192.37L490.62,191.38L491.03,191.2L491.57,191.2L491.69,191.3L492.27,191.02L492.77,190.58L492.82,190.27L492.93,190.24L493.13,190L493.38,189.87L493.58,189.79L493.8,189.47L494.18,189.19L494.45,188.7L494.7,188.43L494.88,188.51L494.96,188.43L495.07,187.93L494.98,187.49L494.73,187.14L494.57,186.85L494.66,186.55L494.56,186.37L494.64,186.3L495.11,185.94L495.14,185.78L495.11,185.66L495.24,185.5L495.2,185.37L495.06,185.07L495.15,184.78L495.14,184.62L495.5,184.21L495.84,184.11L496.13,184.13L496.23,184.33L496.27,184.54L496.37,184.81L496.55,185.1L496.79,185.34L497.01,185.74L497.11,186.03L497.09,186.19L497.37,186.8L497.61,187.02L498.88,187.02L499.37,187.04L499.6,187.19L499.81,187.45L499.97,187.94L500.12,188.18L500.2,188.47L500.36,188.72L500.77,188.88L500.97,189.21L501.14,189.52L501.37,190.22L501.63,190.65L501.8,190.92L501.94,190.92L502.06,190.73L502.17,190.73L502.38,190.95L502.87,190.91L503.7,190.81L504.41,190.39L505.19,190.48L505.65,190.77L505.85,191.5L506.38,191.96L507.17,192.28L507.78,192.43L508.36,192.72L508.91,192.78Z" class="land" id="MA-07" title="Marrakech-Safi"/>
    <path d="M508.64,166.04L508.69,166.22L508.84,166.4L509.01,166.43L509.31,166.42L509.5,166.45L509.62,166.78L509.85,167.05L509.98,167.52L509.99,167.85L510.03,168.18L509.99,168.3L510.15,168.5L510.19,168.65L510.34,168.83L510.45,169.09L510.3,169.42L510.31,169.53L510.53,169.54L510.54,169.38L510.8,169.4L510.71,170.84L511.61,170.81L511.84,170.47L511.98,170.36L512.06,170.5L512.2,170.53L512.43,170.47L512.58,170.44L512.66,170.94L512.83,171.25L513.34,171.28L513.48,171.19L514.73,171.28L514.02,172.13L513.57,172.54L513.57,172.91L514.08,173.39L514.22,173.8L513.88,174.31L513.74,174.98L513.57,175.63L513.51,176.71L513.17,176.9L513.11,176.88L512.89,176.99L512.6,177.12L512.25,177.47L512.15,178.74L512.04,179.91L511.85,180.67L511.75,181.05L511.22,181.31L510.85,181.56L510.74,182.48L510.39,183.74L510.29,184.47L510.21,185.1L510,185.48L509.91,186.05L510.02,186.46L510.23,186.97L510.53,187.47L510.9,187.52L510.73,187.99L510.75,188.48L510.69,188.74L510.67,189L510.68,189.3L510.63,189.58L510.43,190.04L510.16,190.78L510.05,191.26L509.93,191.48L509.81,191.66L509.48,191.97L509.34,192.05L509.1,192.35L509.14,192.51L509.14,192.96L509.13,193.14L508.91,192.78L508.36,192.72L507.78,192.43L507.17,192.28L506.38,191.96L505.85,191.5L505.65,190.77L505.19,190.48L504.41,190.39L503.7,190.81L502.87,190.91L502.38,190.95L502.17,190.73L502.06,190.73L501.94,190.92L501.8,190.92L501.63,190.65L501.37,190.22L501.14,189.52L500.97,189.21L500.77,188.88L500.36,188.72L500.2,188.47L500.12,188.18L499.97,187.94L499.81,187.45L499.6,187.19L499.37,187.04L498.88,187.02L497.61,187.02L497.37,186.8L497.09,186.19L497.11,186.03L497.01,185.74L496.79,185.34L496.55,185.1L496.37,184.81L496.27,184.54L496.23,184.33L496.13,184.13L495.84,184.11L495.5,184.21L495.14,184.62L495.15,184.78L495.06,185.07L495.2,185.37L495.24,185.5L495.11,185.66L495.14,185.78L495.11,185.94L494.64,186.3L494.56,186.37L494.66,186.55L494.57,186.85L494.73,187.14L494.98,187.49L495.07,187.93L494.96,188.43L494.88,188.51L494.7,188.43L494.45,188.7L494.18,189.19L493.8,189.47L493.58,189.79L493.38,189.87L493.13,190L492.93,190.24L492.82,190.27L492.77,190.58L492.27,191.02L491.69,191.3L491.57,191.2L491.03,191.2L490.62,191.38L490.49,192.37L490.04,192.75L489.35,192.97L489.06,193.03L488.59,193.03L488.25,193.17L487.88,193.17L487.66,192.5L487.12,191.92L487.06,191.22L487.23,190.78L486.95,189.84L486.44,189.41L485.64,189.34L484.85,189.41L484.28,189.54L483.69,189.64L483.09,189.91L482.47,189.84L481.9,189.24L481.25,188.73L481,188.5L480.94,188.06L481,187.62L481.36,187.35L481.53,186.99L481.53,186.58L481.34,186.04L480.91,185.74L480.34,185.84L479.89,185.73L479.97,185.6L480.1,185.49L480.17,185.55L480.29,185.45L480.16,185.41L480.5,185.09L481.13,184.59L481.5,184.24L481.75,184.04L481.86,184.01L482.25,183.63L482.27,183.55L482.73,183.06L482.96,182.79L483.39,182.37L483.6,182.15L483.75,181.96L483.95,181.76L484.02,181.56L484.1,181.54L484.31,181.3L484.5,181.29L484.53,181.19L484.42,181.17L484.52,181.01L484.57,180.86L484.79,180.74L485.09,180.38L485.15,180.14L485.37,179.99L485.38,179.84L485.62,179.58L485.73,179.44L485.9,179.29L485.97,179.13L486.22,178.86L486.32,178.62L486.32,178.51L486.51,178.35L486.5,178.29L486.27,177.99L486.39,177.73L486.54,177.59L486.84,177.26L487.02,177.03L487.13,176.96L487.28,176.96L487.39,176.81L487.34,176.66L487.45,176.64L487.49,176.49L487.6,176.45L487.71,176.32L487.93,176.2L488.04,176.09L488.2,176.15L488.24,176.29L488.19,176.36L488.36,176.5L488.78,176.47L489.3,176.22L489.74,175.93L489.97,175.74L490.07,175.61L490.28,175.44L490.4,175.31L490.55,175.2L490.64,175.2L490.7,175L490.84,174.81L491.01,174.49L491.22,174.31L491.54,174.29L491.69,174.19L491.88,174.17L492.04,174.09L492.29,174.07L492.57,173.96L492.82,173.8L492.94,173.67L493.13,173.68L493.19,173.61L493.38,173.61L493.42,173.57L493.78,173.48L494,173.33L494.16,173.29L494.26,173.2L494.65,173.06L494.73,172.99L495.24,172.79L495.37,172.77L495.87,172.48L496.27,172.3L496.53,172.3L496.65,172.26L496.97,172.07L497.17,172.04L497.31,171.88L497.47,171.83L497.59,171.68L497.81,171.65L497.9,171.53L498.15,171.42L498.15,171.35L498.33,171.3L498.36,171.44L498.6,171.43L498.71,171.31L498.92,171.24L499.29,171.06L499.59,170.82L499.7,170.8L499.95,170.66L500,170.49L500.05,170.44L500.19,170.45L500.4,170.3L500.4,170.21L500.58,170.19L500.69,170.11L500.77,169.96L500.88,170.05L501.06,170.07L501.08,170L501.3,170.04L501.48,170.02L501.62,170.11L502.03,169.99L502.18,169.92L502.29,169.8L502.41,169.77L502.55,169.79L502.64,169.72L502.76,169.71L503.01,169.46L503.29,169.3L503.37,169.19L503.58,169.04L503.94,168.74L504.1,168.53L504.34,168.4L504.38,168.29L504.54,168.12L504.58,167.97L504.68,167.85L504.64,168.2L504.77,168.25L505.15,168.18L505.34,168.04L505.45,168.02L505.38,167.9L505.43,167.81L505.59,167.78L505.61,167.7L505.85,167.51L506.06,167.38L506.15,167.24L506.45,167.03L506.57,166.89L506.84,166.8L506.97,166.63L507.07,166.65L507.12,166.5L507.29,166.54L507.65,166.48L507.87,166.38L507.92,166.27L508.1,166.29L508.25,166.23L508.32,166.15L508.47,166.13Z" class="land" id="MA-06" title="Casablanca-Settat"/>
    <path d="M536.86,182.88L536.52,183.26L535.94,183.87L536.01,187.46L535.69,188.64L535.48,189.3L534.39,189.3L534.39,190.71L533.9,190.66L532.85,190.56L532.77,190.71L532.52,191.05L532.52,191.23L532.47,191.47L532.21,191.86L532.24,192.04L532.39,192.22L533.05,192.34L533.18,192.57L533.37,192.82L533.3,193.35L533.15,193.73L533.28,194.25L533.68,194.65L533.81,194.93L533.45,194.88L532.83,194.58L532.56,194.5L532.07,194.45L531.13,194.4L530.54,194.71L530.28,196.09L529.97,196.56L528.9,196.59L528.14,196.61L528.12,196.54L527.79,196.78L527.6,197.18L527.34,197.88L527.3,198.53L527.7,198.83L528.11,199.11L528.4,199.56L528.38,200.21L528.15,200.91L527.98,201.21L527.48,201.56L526.6,201.49L526.18,201.59L525.67,202.36L525.27,203.26L524.36,203.82L523.68,204.26L522.95,204.22L522.44,204.49L521.87,204.34L521.5,204.48L521.07,204.66L520.34,205.32L519.77,206.02L519.23,206.49L518.21,206.55L517.65,206.82L517.25,207.18L516.54,207.35L515.8,207.18L515.42,206.91L515.34,206.95L514.95,207.04L514.66,207.05L514.64,209.47L514.21,209.94L512.63,210.07L511.86,210.2L510.98,210.2L510.53,209.67L510.49,209.3L510,209.19L509.79,209.47L509.37,209.67L508.74,209.64L508.47,209L508.4,209.01L508.25,208.56L508.89,207.28L509.12,206.59L509.06,206.22L508.92,206.05L508.39,206.07L508.23,206.02L507.44,205.85L507.22,205.06L507.11,204.72L506.76,204.39L506.06,204.39L505.93,204.38L505.77,203.89L505.87,203.56L506.11,203.52L506.51,203.06L506.79,202.76L507.36,202.62L507.67,202.86L507.93,203.22L508.32,203.22L508.98,203.06L510.48,202.96L510.82,202.39L510.96,201.82L511.1,201.49L510.87,201.16L510.89,201.12L510.43,200.5L510.23,200.42L510.14,200.2L510.2,199.89L510.02,199.68L510.06,199.42L510.17,199.27L510.08,198.81L509.62,198.56L509.19,198.14L509.04,197.2L509.12,195.9L509.27,195.27L509.23,194.89L509.13,194.51L509,194.12L508.97,193.89L509.12,193.33L509.14,192.96L509.14,192.51L509.1,192.35L509.34,192.05L509.48,191.97L509.81,191.66L509.93,191.48L510.05,191.26L510.16,190.78L510.43,190.04L510.63,189.58L510.68,189.3L510.67,189L510.69,188.74L510.75,188.48L510.73,187.99L510.9,187.52L510.53,187.47L510.23,186.97L510.02,186.46L509.91,186.05L510,185.48L510.21,185.1L510.29,184.47L510.39,183.74L510.74,182.48L510.85,181.56L511.22,181.31L511.75,181.05L511.85,180.67L512.04,179.91L512.15,178.74L512.25,177.47L512.6,177.12L512.89,176.99L513.11,176.88L513.17,176.9L513.5,176.72L513.54,176.75L514.02,176.95L514.21,176.89L514.62,177.05L514.92,177.22L515.25,177.1L515.84,177.05L516.09,176.99L516.41,177.01L517,177.43L517.17,177.64L517.33,177.89L517.49,178.08L517.64,178.31L517.71,178.64L518.3,178.34L518.75,178L519.15,177.56L520.26,177.12L520.57,176.61L519.7,176.31L519.21,175.7L519.38,175.12L519.86,174.69L519.99,174.18L520.21,173.99L520.23,173.46L520.43,172.81L520.77,172.68L521.87,172.74L522.27,172.91L522.81,173.46L522.63,173.89L522.67,173.96L522.47,174.14L522.33,174.68L522.41,175.05L522.95,174.95L523.6,174.95L524.19,174.98L524.34,175.46L524.36,175.83L525.57,175.81L525.77,175.52L526.34,175.34L526.63,175.41L527.46,175.7L528.19,175.89L528.54,175.76L528.82,175.23L528.84,174.72L528.68,174.3L528.33,173.97L528.16,172.88L528.21,172.54L528.25,172.58L528.62,173.22L528.72,173.17L528.97,173.21L529.74,173.77L530.48,174.1L531.44,174.28L532.14,174.56L532.86,175.15L532.65,176.57L533.22,177.28L533.52,177.66L534.18,178.78L535.97,178.73L535.67,179.46L535.54,180.8L536.26,181.79L536.67,182.25Z" class="land" id="MA-05" title="Béni-Mellal-Khénifra"/>
    <path d="M535.52,154.85L535.28,155.73L534.92,156.04L534.2,156.12L533.88,156.27L533.3,156.4L533.04,156.14L532.78,156.3L532.61,156.34L532.58,156.63L532.69,157.03L533.02,157.44L533.6,158.14L533.99,158.53L534.14,158.84L534.14,159.25L534.06,159.78L533.91,160.48L533.55,160.86L533.08,161.15L532.48,161.3L531.95,161.66L530.95,161.76L530.27,161.53L530,161.4L530.17,160.45L530.04,160.22L529.86,159.99L529.69,160.05L529.35,159.94L529.26,159.67L528.34,159.35L527.85,159.61L527.6,160.04L527.28,160.52L526.82,161.25L526.98,161.7L527.36,162.29L527.81,162.8L528.7,163.19L529.3,163.42L529.48,163.34L529.59,163.42L530.1,163.96L529.81,164.55L529.25,165.26L528.89,165.83L529.04,166.21L529.51,166.52L529.91,167L529.98,167.31L529.62,168.18L529.34,168.79L529.07,169.04L529,169.73L528.91,170.08L529.15,170.55L529.3,171.16L529.15,171.85L528.87,172.21L528.59,172.24L528.22,172.51L528.16,172.88L528.33,173.97L528.68,174.3L528.84,174.72L528.82,175.23L528.54,175.76L528.19,175.89L527.46,175.7L526.63,175.41L526.34,175.34L525.77,175.52L525.57,175.81L524.36,175.83L524.34,175.46L524.19,174.98L523.6,174.95L522.95,174.95L522.41,175.05L522.33,174.68L522.47,174.14L522.67,173.96L522.63,173.89L522.81,173.46L522.27,172.91L521.87,172.74L520.77,172.68L520.43,172.81L520.23,173.46L520.21,173.99L519.99,174.18L519.86,174.69L519.38,175.12L519.21,175.7L519.7,176.31L520.57,176.61L520.26,177.12L519.15,177.56L518.75,178L518.3,178.34L517.71,178.64L517.64,178.31L517.49,178.08L517.33,177.89L517.17,177.64L517,177.43L516.41,177.01L516.09,176.99L515.84,177.05L515.25,177.1L514.92,177.22L514.62,177.05L514.21,176.89L514.02,176.95L513.54,176.75L513.5,176.72L513.51,176.71L513.57,175.63L513.74,174.98L513.88,174.31L514.22,173.8L514.08,173.39L513.57,172.91L513.57,172.54L514.02,172.13L514.73,171.28L513.48,171.19L513.34,171.28L512.83,171.25L512.66,170.94L512.58,170.44L512.43,170.47L512.2,170.53L512.06,170.5L511.98,170.36L511.84,170.47L511.61,170.81L510.71,170.84L510.8,169.4L510.54,169.38L510.53,169.54L510.31,169.53L510.3,169.42L510.45,169.09L510.34,168.83L510.19,168.65L510.15,168.5L509.99,168.3L510.03,168.18L509.99,167.85L509.98,167.52L509.85,167.05L509.62,166.78L509.5,166.45L509.31,166.42L509.01,166.43L508.84,166.4L508.69,166.22L508.64,166.04L508.89,165.87L509.01,165.71L509.16,165.57L509.41,165.45L509.54,165.3L509.61,165.33L509.81,165.3L509.84,165.25L510.17,165.06L510.33,164.9L510.49,164.84L510.48,164.74L510.66,164.64L510.81,164.62L510.97,164.39L511.06,164.33L511.36,164.02L511.79,163.62L511.87,163.5L512.1,163.24L512.26,163.08L512.63,162.61L512.84,162.39L512.99,162.38L513.05,162.31L513,162.21L513.25,161.89L513.35,161.81L513.39,161.69L513.47,161.68L513.71,161.39L513.85,161.1L513.98,160.96L514.14,160.7L514.2,160.65L514.36,160.4L514.51,160.2L514.96,159.33L515.06,159.09L515.36,158.21L515.74,157.52L516.23,156.76L516.4,156.46L516.63,156.13L516.77,155.88L517.06,155.44L517.21,155.16L517.38,154.93L517.62,154.5L517.76,154.16L517.96,153.81L518.15,153.4L518.37,152.98L518.49,152.69L519.05,151.56L519.52,150.57L519.61,150.41L519.66,150.23L519.87,149.82L520.22,148.95L520.23,148.84L520.6,148.01L520.77,147.66L520.91,147.29L521.06,147.26L521.16,147.32L521.14,147.53L521.02,147.86L521.28,148.01L521.43,148.13L521.56,148.06L521.6,147.88L521.69,147.88L521.75,147.64L521.68,147.62L521.7,147.47L521.38,147.37L521.33,147.29L521.21,147.31L521.11,147.18L520.99,147.21L521,147.02L521.11,146.8L521.18,146.5L521.33,146.15L521.39,145.94L521.69,145.16L522.12,145.15L522.65,145.25L523.11,145.29L523.58,145.3L524.11,145.24L524.51,145.36L525.27,145.49L525.88,145.57L526.1,146.01L526.63,146.34L527.51,146.46L528.15,146.29L528.22,146.42L528.48,146.48L528.74,146.45L528.88,146.52L529.13,146.79L529.16,147.5L529.13,148.67L529.18,149.6L529.34,150.12L529.56,150.57L529.79,150.8L530.27,150.93L530.54,150.51L530.7,150.02L530.99,149.99L531.44,150.25L531.71,150.61L532.08,150.74L532.72,151.12L533.06,151.48L533.51,151.83L533.89,152.03L534.28,152.54L534.28,153.29L534.36,153.83L534.76,154.06L535.16,154.41L535.47,154.57Z" class="land" id="MA-04" title="Rabat-Salé-Kénitra"/>
    <path d="M555.22,187.87L554.9,187.49L554.39,187.26L553.84,187.48L553.66,187.88L553.3,188.25L552.24,188.46L551.62,188.25L550.87,187.19L550.9,186.51L550.83,185.83L550.42,185.37L549.9,184.89L549.46,184.45L548.86,184.06L548.72,183.79L548.49,183.26L548.25,182.99L548.03,182.85L547.53,182.76L547.03,182.76L546.57,182.79L546.08,182.97L545.57,182.93L545.24,183.04L544.56,182.76L543.98,182.3L543.84,181.95L543.88,181.53L544.07,181.24L544.12,180.92L544.02,180.71L543.28,179.87L542.91,179.63L542.7,179.26L542.5,179.19L542.07,179.11L541.77,179.31L541.5,179.62L541.11,179.69L540.26,179.49L539.94,179.87L539.69,180.73L539.54,181.42L539.37,181.8L539.09,182.02L538.63,182L538.24,181.85L537.8,181.82L537.52,182L536.84,182.94L536.81,182.93L536.86,182.88L536.67,182.25L536.26,181.79L535.54,180.8L535.67,179.46L535.97,178.73L534.18,178.78L533.52,177.66L533.22,177.28L532.65,176.57L532.86,175.15L532.14,174.56L531.44,174.28L530.48,174.1L529.74,173.77L528.97,173.21L528.72,173.17L528.62,173.22L528.25,172.58L528.21,172.54L528.22,172.51L528.59,172.24L528.87,172.21L529.15,171.85L529.3,171.16L529.15,170.55L528.91,170.08L529,169.73L529.07,169.04L529.34,168.79L529.62,168.18L529.98,167.31L529.91,167L529.51,166.52L529.04,166.21L528.89,165.83L529.25,165.26L529.81,164.55L530.1,163.96L529.59,163.42L529.48,163.34L529.3,163.42L528.7,163.19L527.81,162.8L527.36,162.29L526.98,161.7L526.82,161.25L527.28,160.52L527.6,160.04L527.85,159.61L528.34,159.35L529.26,159.67L529.35,159.94L529.69,160.05L529.86,159.99L530.04,160.22L530.17,160.45L530,161.4L530.27,161.53L530.95,161.76L531.95,161.66L532.48,161.3L533.08,161.15L533.55,160.86L533.91,160.48L534.06,159.78L534.14,159.25L534.14,158.84L533.99,158.53L533.6,158.14L533.02,157.44L532.69,157.03L532.58,156.63L532.61,156.34L532.78,156.3L533.04,156.14L533.3,156.4L533.88,156.27L534.2,156.12L534.92,156.04L535.28,155.73L535.52,154.85L535.56,154.73L535.85,154.42L536.19,154.21L536.77,154.19L537.21,153.85L537.83,153.75L538.02,153.31L537.97,152.39L537.74,152.27L537.72,152.07L537.84,151.59L537.94,151.06L537.95,150.41L538.12,149.82L538.52,149.36L540.11,149.41L541.22,149.3L541.98,148.85L542.09,148.53L542.25,148.49L542.66,148.23L542.93,148.19L543.18,148.3L543.57,148.54L543.71,148.99L543.88,149.44L544,150.09L544.48,150.48L545.19,150.61L545.81,150.68L546.38,150.96L546.75,151.16L548.02,151.3L548.53,151.54L549.38,151.3L550.18,150.89L550.71,150.23L550.97,149.58L551.42,149.09L551.73,149.23L551.9,149.65L552.16,149.96L552.92,150.17L553.49,149.92L553.91,149.48L554.14,148.89L554.51,148.41L555.13,148.41L556.04,148.37L556.98,148.13L557.26,147.99L557.54,147.71L558,147.51L558.48,147.4L558.52,147.34L558.61,147.38L558.84,147.3L559.16,147.27L559.27,147.29L559.32,147.4L559.09,147.6L559.21,147.78L559.34,147.76L559.45,147.69L559.64,147.77L559.8,147.75L559.88,147.68L560.01,147.68L560.37,147.89L560.61,148.07L560.85,148.06L561.01,147.99L561.25,147.99L561.37,148.05L561.42,148.18L561.25,148.44L561.26,148.58L561.43,148.78L561.37,149.33L561.16,149.64L561.02,149.94L561.05,150.08L561.16,150.17L561.41,150.27L561.53,150.36L561.55,150.58L561.46,150.66L561.32,150.69L560.89,150.66L560.77,150.68L560.67,150.78L560.67,150.98L560.6,151.73L559.87,151.88L559.32,152.01L559.04,152.5L559.11,154.57L558.86,154.87L558.33,154.95L557.73,155.15L557.61,155.73L557.78,156.59L557.85,157.46L557.15,157.51L556.63,157.66L556.45,157.98L556.56,158.58L557.07,159.09L557.66,159.35L558.12,159.97L558.15,161.49L557.92,162.73L557.29,164.37L556.97,165.16L556.51,165.87L556.14,166.31L555.85,166.5L555.64,166.74L555.92,167.19L555.89,167.74L555.69,168.17L555.28,168.25L554.9,168.44L554.45,168.61L553.99,168.89L553.96,169.13L553.8,169.41L553.49,169.78L553.43,169.93L553.52,170.09L553.8,170.34L553.96,171.09L554.34,171.26L554.96,171.35L555.27,171.68L555.63,171.98L556.11,171.96L556.37,171.56L556.71,171.15L557.01,171.09L557.35,171.54L557.58,172.24L557.82,172.53L558.16,172.13L558.6,171.49L559.03,170.98L559.12,170.75L558.59,170.69L558.16,170.54L557.93,170.24L558.02,169.81L558.34,169.16L558.98,168.77L559.67,168.22L560.45,167.45L561.19,166.34L562.06,165.3L562.54,164.85L562.68,164.68L562.96,164.62L563.28,164.94L563.63,165.04L564.27,165.3L564.59,165.83L564.72,166.25L564.96,166.58L565.42,166.79L566.45,166.88L566.5,166.83L567.8,167.03L568.32,167.05L568.81,167.15L569.59,167.22L569.78,167.6L569.71,168.01L569.05,168.67L568.65,169.18L567.18,170.47L566.58,170.88L566.28,171.16L566.25,171.26L566.24,171.62L566.29,171.86L566.4,172.06L566.53,172.21L566.64,172.28L567.65,172.29L568.3,172.5L568.98,173.04L569.58,173.72L570.37,174.74L571.28,176.13L572.1,177.08L572.44,177.75L571.08,177.79L570.43,177.96L569.55,178.9L568.39,178.87L567.56,178.88L567.27,178.98L566.8,179.16L566.38,179.28L565.92,179.36L565.32,179.4L564.84,179.4L564.35,179.31L563.95,179.28L563.43,179.18L562.9,179.2L561.89,179.16L561.44,179.21L561.2,179.2L560.94,179.55L560.45,180.05L560,180.36L559.69,181.41L558.98,182.08L558.47,182.38L558.07,182.99L557.48,183.67L557.14,184.27L556.91,185.18L556.68,185.89L556.17,186.4L555.75,186.7L555.52,187.27L555.32,187.81Z" class="land" id="MA-03" title="Fès- Meknès"/>
    <path d="M568.42,203.8L566.35,203.83L566.17,203.58L566.06,203.07L566.81,202.63L567.34,202.37L568.36,201.69L567.16,201.02L566.81,199.87L566.32,198.2L566.32,197.62L566.81,196.16L567.38,195.06L566.06,195.88L566.04,195.88L565.57,196.16L564.73,196.32L563.75,196.11L563.13,195.85L562.88,195.37L562.65,195.35L562.03,195.26L561.82,195.25L561.41,195.74L560.7,196.37L560.03,196.58L560.26,195.95L560.43,195.41L560.13,195.38L559.88,195.24L559.72,195.27L558.71,195.06L558.44,194.38L558.38,193.31L558.26,191.87L557.82,191.13L557.07,190.87L556.78,190.87L556.76,190.81L556.18,190.61L555.78,190.29L555.92,190.03L556.09,189.88L556.31,189.93L556.54,189.03L556,188.46L555.52,188.32L555.4,188.09L555.22,187.87L555.32,187.81L555.52,187.27L555.75,186.7L556.17,186.4L556.68,185.89L556.91,185.18L557.14,184.27L557.48,183.67L558.07,182.99L558.47,182.38L558.98,182.08L559.69,181.41L560,180.36L560.45,180.05L560.94,179.55L561.2,179.2L561.44,179.21L561.89,179.16L562.9,179.2L563.43,179.18L563.95,179.28L564.35,179.31L564.84,179.4L565.32,179.4L565.92,179.36L566.38,179.28L566.8,179.16L567.27,178.98L567.56,178.88L568.39,178.87L569.55,178.9L570.43,177.96L571.08,177.79L572.44,177.75L572.1,177.08L571.28,176.13L570.37,174.74L569.58,173.72L568.98,173.04L568.3,172.5L567.65,172.29L566.64,172.28L566.53,172.21L566.4,172.06L566.29,171.86L566.24,171.62L566.25,171.26L566.28,171.16L566.58,170.88L567.18,170.47L568.65,169.18L569.05,168.67L569.71,168.01L569.78,167.6L569.59,167.22L568.81,167.15L568.32,167.05L567.8,167.03L566.5,166.83L566.45,166.88L565.42,166.79L564.96,166.58L564.72,166.25L564.59,165.83L564.27,165.3L563.63,165.04L563.28,164.94L562.96,164.62L562.68,164.68L562.54,164.85L562.06,165.3L561.19,166.34L560.45,167.45L559.67,168.22L558.98,168.77L558.34,169.16L558.02,169.81L557.93,170.24L558.16,170.54L558.59,170.69L559.12,170.75L559.03,170.98L558.6,171.49L558.16,172.13L557.82,172.53L557.58,172.24L557.35,171.54L557.01,171.09L556.71,171.15L556.37,171.56L556.11,171.96L555.63,171.98L555.27,171.68L554.96,171.35L554.34,171.26L553.96,171.09L553.8,170.34L553.52,170.09L553.43,169.93L553.49,169.78L553.8,169.41L553.96,169.13L553.99,168.89L554.45,168.61L554.9,168.44L555.28,168.25L555.69,168.17L555.89,167.74L555.92,167.19L555.64,166.74L555.85,166.5L556.14,166.31L556.51,165.87L556.97,165.16L557.29,164.37L557.92,162.73L558.15,161.49L558.12,159.97L557.66,159.35L557.07,159.09L556.56,158.58L556.45,157.98L556.63,157.66L557.15,157.51L557.85,157.46L557.78,156.59L557.61,155.73L557.73,155.15L558.33,154.95L558.86,154.87L559.11,154.57L559.04,152.5L559.32,152.01L559.87,151.88L560.6,151.73L560.67,150.98L560.67,150.78L560.77,150.68L560.89,150.66L561.32,150.69L561.46,150.66L561.55,150.58L561.53,150.36L561.41,150.27L561.16,150.17L561.05,150.08L561.02,149.94L561.16,149.64L561.37,149.33L561.43,148.78L561.26,148.58L561.25,148.44L561.42,148.18L561.37,148.05L561.25,147.99L561.01,147.99L560.85,148.06L560.61,148.07L560.37,147.89L560.01,147.68L559.88,147.68L559.8,147.75L559.64,147.77L559.45,147.69L559.34,147.76L559.21,147.78L559.09,147.6L559.32,147.4L559.27,147.29L559.16,147.27L558.84,147.3L558.61,147.38L558.46,147.31L558.43,146.97L558.21,146.86L558.18,146.63L558.23,146.08L558.18,145.87L558.18,145.66L558.28,144.93L558.27,144.66L558.15,144.49L558.18,144.25L558.15,143.55L558.12,143.32L558.01,142.9L558.01,142.7L558.13,142.25L558.19,141.95L558.21,141.74L558.08,141.23L558.15,141.21L558.47,141.02L558.59,140.88L558.68,140.71L558.73,140.47L558.75,140.23L558.82,140.03L558.91,139.92L559.08,139.91L559.14,139.8L559.37,139.71L559.43,139.76L559.53,139.67L559.88,139.74L559.98,139.71L560.04,139.87L560.17,140.03L560.38,140.16L560.41,140.22L560.6,140.29L560.7,140.4L560.81,140.42L560.91,140.55L561.29,140.79L561.6,140.92L561.76,140.89L562.1,140.96L562.33,141.11L562.77,141.3L563.03,141.31L563.35,141.17L563.44,141.31L563.7,141.42L564.09,141.42L564.29,141.47L564.76,141.48L564.88,141.54L565.04,141.54L565.24,141.47L565.43,141.33L565.54,141.19L565.95,141.08L566.22,141.05L566.34,140.96L566.56,140.88L566.69,140.89L566.82,140.78L566.96,140.78L567.08,140.86L567.35,140.7L567.55,140.55L567.74,140.33L567.96,140L567.95,139.93L568.08,139.82L568.08,139.73L568.23,139.76L568.28,139.86L568.5,139.97L568.85,139.81L569.09,139.52L569.49,138.86L569.64,138.48L569.93,137.93L569.9,137.76L570.03,137.67L569.93,137.61L569.99,137.45L570.14,137.32L570.16,136.99L570.33,137.01L570.43,136.91L570.51,136.98L570.77,137L570.83,137.19L570.67,137.29L570.61,137.46L570.69,137.55L570.7,137.68L570.62,137.81L570.69,137.92L570.6,138.02L570.6,138.13L570.52,138.23L570.51,138.34L570.63,138.41L570.66,138.54L570.73,138.6L570.66,138.92L570.76,139.02L570.67,139.25L570.64,139.46L570.67,139.62L570.8,139.77L571.02,139.82L571.25,140.13L571.69,140.66L572.03,141.01L571.93,141.07L571.88,140.89L571.67,140.68L571.56,140.67L571.5,140.48L571.34,140.45L571.35,140.35L571.23,140.27L571.13,140.36L571.1,140.57L571.19,140.7L571.21,140.84L571.28,140.94L571.48,140.96L571.58,141.11L571.52,141.19L571.42,141.17L571.19,141.32L571.16,141.44L571.21,141.59L571.39,141.9L571.52,142L571.53,142.22L571.75,142.45L572.07,142.65L572.17,142.67L572.62,142.96L572.88,143.05L573.24,143.04L573.6,143.13L573.79,143.09L573.86,142.89L573.71,142.68L573.53,142.6L573.42,142.43L573.3,142.4L573.22,142.16L573.07,142.09L572.87,141.93L572.81,141.83L572.69,141.73L572.77,141.68L572.93,141.86L573.22,142.09L573.3,142.21L573.54,142.44L573.95,142.72L574.22,142.78L574.29,142.86L574.51,142.95L574.57,143.02L574.82,143.13L575.02,143.13L575.08,143.19L575.34,143.28L575.67,143.35L575.95,143.36L576.07,143.33L576.14,143.38L576.32,143.39L576.54,143.44L576.69,143.4L576.87,143.39L577.22,143.3L577.43,143.21L577.51,143.11L577.6,143.11L577.8,143.02L577.99,142.83L578.23,142.65L578.42,142.44L578.63,142.24L578.72,142.36L578.92,142.45L579.69,142.65L579.92,142.68L580.27,142.8L580.58,142.93L580.89,143.09L581.44,143.29L581.81,143.39L581.82,143.79L581.76,144.06L582.19,144.34L582.27,144.55L582.45,144.73L582.63,144.76L582.81,144.92L583.04,144.96L583.14,145.02L583.18,145.23L583.35,145.36L583.35,145.42L583.54,145.57L583.64,145.73L584.4,146.28L584.71,146.22L584.76,146.16L584.96,146.2L585.39,146.12L585.39,146.44L585.42,146.6L585.39,146.67L585.38,146.95L585.45,147.16L585.73,147.26L585.88,147.42L586.14,147.52L586.58,147.79L586.64,148.04L586.66,148.41L587.1,148.49L587.38,148.76L587.66,148.87L588,149.05L588.13,149.16L588.23,149.19L588.51,149.35L588.67,149.41L588.8,149.6L588.55,149.77L588.39,149.91L588.39,150.11L588.33,150.37L588.13,150.57L587.91,150.93L587.78,151.06L587.47,151.55L587.45,151.63L587.2,151.86L587.4,151.83L587.47,151.92L587.62,151.96L587.74,152.07L587.81,152.26L587.98,152.42L588.02,152.56L588.13,152.67L588.15,152.8L588.3,153.05L588.41,153.11L588.51,153.26L588.5,153.4L588.64,153.44L588.68,153.62L588.75,153.71L588.94,153.85L589.1,153.83L589.33,153.98L589.53,154.03L589.6,154.15L589.3,154.54L588.3,155.84L588.22,155.94L588.43,156.28L588.66,156.46L588.97,156.79L589.11,157.04L589.37,157.42L589.37,157.51L589.29,157.76L589.34,158.07L589.24,158.43L589.26,158.69L589.36,158.99L589.81,160.06L590.21,161.07L590.16,161.31L589.89,162.98L589.45,165.31L589.65,166.09L589.88,167.06L589.01,167.73L588.88,168.36L589.28,168.58L589.34,168.75L589.63,168.79L589.95,168.67L590.14,168.68L590.25,168.87L590.28,169.08L590.39,169.41L590.47,169.6L590.56,169.71L590.81,169.8L590.94,169.88L591,170.06L590.92,170.28L590.97,170.39L590.89,170.58L591.02,170.61L590.96,170.87L590.87,170.91L590.95,171.2L591.1,171.4L590.98,171.57L590.91,171.77L590.84,171.86L590.61,172.08L590.59,172.33L590.64,172.36L590.56,172.57L590.58,172.76L590.44,173.16L590.25,173.29L590.19,173.57L589.98,174.08L589.96,174.53L590.03,174.84L589.99,174.96L589.98,175.19L590.02,175.45L589.87,175.78L589.91,175.94L590.06,176.26L590.25,176.41L590.37,176.67L590.53,176.91L590.79,177.04L590.9,177.2L590.91,177.32L591.07,177.56L591.22,177.87L591.29,178.05L591.29,178.2L591.43,178.31L591.67,178.59L591.84,178.76L591.91,178.94L592.21,179.18L592.43,179.23L592.79,179.49L592.9,179.74L593,180.1L592.77,180.46L592.77,180.6L592.84,180.78L592.64,181.28L592.48,181.43L592.27,181.39L591.87,181.58L591.78,181.6L592.45,182.64L594.18,185.46L595.83,186.24L599.2,188.86L599.65,189.22L599.87,189.35L599.89,189.47L599.84,189.59L599.55,189.75L599.17,190.1L599.11,190.25L598.98,190.34L598.86,190.58L598.69,190.7L598.55,190.76L598.32,190.89L598.22,191.07L598.13,191.06L598.05,191.2L597.8,191.19L597.61,191.14L597.22,191.24L596.89,191.39L596.74,191.6L596.78,191.68L596.71,191.98L596.62,192.15L596.56,192.39L596.38,192.59L596.14,192.74L596.17,192.88L596.35,193.04L596.32,193.13L596.35,193.35L596.26,193.66L596.23,193.94L596.19,194.03L596.17,194.26L596.23,194.53L596.25,194.88L595.93,195.08L595.78,195.21L595.68,195.33L595.43,195.48L595.42,195.64L595.57,195.7L595.76,195.62L595.93,195.65L596.06,195.57L596.15,195.59L596.34,195.53L596.4,195.44L596.64,195.41L597.01,195.53L597.14,195.62L597.19,195.71L597.3,196.11L597.4,196.2L597.54,196.24L597.51,196.37L597.54,196.55L597.37,196.55L597.27,196.65L597.08,196.69L596.92,196.81L596.8,197L596.38,197.09L596.27,197.14L596.06,197.15L595.94,197.11L595.81,196.97L595.18,197.04L594.83,197.04L594.63,196.91L594.43,196.89L594.18,196.98L593.57,196.95L593.17,196.86L592.63,196.81L592.45,196.69L592.29,196.68L591.92,196.77L591.45,196.86L591.23,196.88L590.67,196.72L589.8,196.79L588.53,196.79L587.48,196.62L586.35,196.32L585.72,196.19L585.07,195.85L584.53,195.82L584.16,196.09L583.65,196.52L583.51,197.16L583.23,197.49L582.63,197.46L581.98,197.36L581.39,197.46L581.16,197.89L580.99,198.43L580.68,198.19L580.42,197.89L580.11,197.39L579.69,196.86L579.23,196.52L578.7,196.32L578.04,196.29L577.31,196.59L576.99,196.99L576.4,197.33L575.83,197.49L575.27,197.29L574.59,197.09L573.56,197.23L573.03,197.49L572.55,197.83L572.04,198.33L572.04,198.63L572.21,198.86L572.69,199.03L572.86,199.5L572.74,199.87L572.52,200L572.4,200.2L572.69,200.93L572.77,201.53L572.8,202.17L572.55,202.5L571.98,202.8L571.58,203.3L570.96,203.6L570.22,203.63L569.63,203.5L568.89,203.63L568.62,203.59Z" class="land" id="MA-02" title="L'Oriental"/>
    <path d="M558.08,141.23L558.21,141.74L558.19,141.95L558.13,142.25L558.01,142.7L558.01,142.9L558.12,143.32L558.15,143.55L558.18,144.25L558.15,144.49L558.27,144.66L558.28,144.93L558.18,145.66L558.18,145.87L558.23,146.08L558.18,146.63L558.21,146.86L558.43,146.97L558.46,147.31L558.52,147.34L558.48,147.4L558,147.51L557.54,147.71L557.26,147.99L556.98,148.13L556.04,148.37L555.13,148.41L554.51,148.41L554.14,148.89L553.91,149.48L553.49,149.92L552.92,150.17L552.16,149.96L551.9,149.65L551.73,149.23L551.42,149.09L550.97,149.58L550.71,150.23L550.18,150.89L549.38,151.3L548.53,151.54L548.02,151.3L546.75,151.16L546.38,150.96L545.81,150.68L545.19,150.61L544.48,150.48L544,150.09L543.88,149.44L543.71,148.99L543.57,148.54L543.18,148.3L542.93,148.19L542.66,148.23L542.25,148.49L542.09,148.53L541.98,148.85L541.22,149.3L540.11,149.41L538.52,149.36L538.12,149.82L537.95,150.41L537.94,151.06L537.84,151.59L537.72,152.07L537.74,152.27L537.97,152.39L538.02,153.31L537.83,153.75L537.21,153.85L536.77,154.19L536.19,154.21L535.85,154.42L535.56,154.73L535.52,154.85L535.47,154.57L535.16,154.41L534.76,154.06L534.36,153.83L534.28,153.29L534.28,152.54L533.89,152.03L533.51,151.83L533.06,151.48L532.72,151.12L532.08,150.74L531.71,150.61L531.44,150.25L530.99,149.99L530.7,150.02L530.54,150.51L530.27,150.93L529.79,150.8L529.56,150.57L529.34,150.12L529.18,149.6L529.13,148.67L529.16,147.5L529.13,146.79L528.88,146.52L528.74,146.45L528.48,146.48L528.22,146.42L528.15,146.29L527.51,146.46L526.63,146.34L526.1,146.01L525.88,145.57L525.27,145.49L524.51,145.36L524.11,145.24L523.58,145.3L523.11,145.29L522.65,145.25L522.12,145.15L521.69,145.16L521.78,144.94L521.95,144.44L522.01,144.17L522.09,143.96L522.09,143.86L522.25,143.24L522.31,143.12L522.38,142.87L522.57,142.44L522.76,141.88L522.78,141.74L522.89,141.4L523.07,141.33L523.18,141.22L523.31,140.84L523.3,140.77L523.42,140.52L523.48,140.26L523.53,140.16L523.62,139.82L523.72,139.58L523.82,139.23L523.84,139.05L524.05,138.39L524.2,137.84L524.2,137.71L524.41,137.42L524.51,137.15L524.54,136.96L524.65,136.63L524.71,136.52L524.99,136.31L525.02,136.13L525.12,135.91L525.22,135.59L525.21,135.5L525.3,135.33L525.3,135.18L525.36,134.84L525.43,134.62L525.55,134.5L525.48,134.39L525.65,133.72L525.67,133.52L525.76,133.26L525.8,133.01L525.88,132.68L526.01,132.24L526.08,132.06L526.09,131.93L526.39,130.88L526.39,130.76L526.46,130.52L526.8,130.29L527.16,130.32L527.23,130.35L527.78,130.34L528.09,130.45L528.29,130.49L528.54,130.89L529.18,131.18L529.92,130.99L530.32,130.53L530.56,130.17L531.36,130.23L531.83,130.3L532.37,130.2L532.76,129.74L533.37,128.89L533.91,128.66L534.64,128.5L535.31,128.53L535.53,128.83L535.9,128.89L536.32,128.89L536.59,129.09L536.16,129.35L536.08,129.97L535.71,130.5L535.86,132.41L535.99,132.37L536.23,132.4L536.14,132.59L536.07,132.82L536.14,133.15L536.29,133.65L536.32,133.86L536.44,134.21L536.54,134.35L536.54,134.44L536.63,134.72L536.75,134.92L536.83,134.95L536.95,134.88L537.02,135.04L537.18,135.12L537.33,135.04L537.41,135.14L537.56,135.13L537.73,135.22L537.78,135.38L537.95,135.54L537.99,135.67L538.19,135.87L538.35,135.92L538.5,136.05L538.65,136.22L538.73,136.22L538.88,136.53L538.9,136.63L539.02,136.82L539.12,137.09L539.2,137.18L539.35,137.47L539.44,137.53L539.69,137.57L539.86,137.65L540.06,137.57L540.12,137.71L540.29,137.85L540.48,138.11L540.73,138.27L540.88,138.5L540.94,138.54L541.18,138.82L541.21,138.94L541.38,139.12L541.83,139.37L541.94,139.37L542.11,139.46L542.28,139.43L542.48,139.66L542.59,139.84L542.68,139.88L542.91,140.14L543.1,140.25L543.36,140.36L543.54,140.59L543.8,140.65L544.06,140.85L544.26,140.84L544.4,140.96L544.63,141.02L544.79,141.11L545.03,141.2L545.23,141.15L545.29,141.06L545.5,141.04L545.8,141.37L546.06,141.48L546.26,141.5L546.37,141.43L546.8,141.52L546.85,141.56L547.19,141.65L547.44,141.74L547.64,141.69L547.89,141.71L548.11,141.82L548.24,141.93L548.84,142.12L549.17,142.04L549.36,142.12L549.5,142.14L549.6,142.21L549.85,142.22L550.04,142.16L550.12,142.06L550.35,142.04L550.43,141.93L550.63,141.85L550.88,141.78L550.92,141.63L551.05,141.66L551.19,141.58L551.43,141.5L551.61,141.56L551.95,141.56L552.01,141.47L552.2,141.43L552.35,141.32L552.56,141.31L552.73,141.25L552.86,141.31L553.19,141.28L553.37,141.17L553.5,141.19L553.76,140.96L554.02,140.86L554.23,140.83L554.28,140.75L554.42,140.76L554.6,140.63L554.7,140.66L554.84,140.57L555.05,140.69L555.25,140.63L555.49,140.62L555.76,140.43L555.94,140.34L556.05,140.2L556.28,140.15L556.39,140.21L556.44,140.32L556.35,140.37L556.32,140.52L556.36,140.7L556.47,140.81L556.58,141.03L556.7,141.1L556.99,141.22L557.44,141.34L557.68,141.33Z" class="land" id="MA-01" title="Tanger-Tétouan-Al Hoceïma"/>
  </g>
</svg>