<?xml version="1.0" encoding="UTF-8"?>
<svg xmlns="http://www.w3.org/2000/svg" width="162.59" height="262.3" viewBox="398.7 125.85 162.59 262.3" style="background-color:#000000">
  <!-- Created using SVG Map Generator: dojo.amcharts.com/svg-map-generator -->
  <style>
    .land { fill: #ffffff; stroke: #000000; stroke-width: 0.65; }
  </style>
  <g id="polygons">
    <path d="M544.76,216.83L545.27,216.88L545.24,217.55L544.85,217.96L544.67,218.9L544.3,219.01L543.62,218.6L543.46,217.47L544.04,217ZM553.9,174.5L554.6,175.23L554.73,175.66L554.25,176.12L554.13,176.76L554.61,177.91L554.84,179.72L555.07,180.46L555.48,180.96L555.73,182.44L555.22,183.5L555.12,184.07L554.07,184.46L554.39,185.03L555.31,185.33L556.4,184.74L556.76,185.08L556.81,185.77L557.14,186.09L556.94,187.14L556.23,187.55L555.51,187.14L555.81,188.81L555.31,189.44L555.94,189.95L556.35,188.66L557.36,188.11L557.96,188.22L558.56,189.04L558.17,189.85L558.41,190.44L558.1,191.31L558.56,192.06L558.65,192.72L558.46,194.21L557.75,194.51L556.26,196.08L557.14,196.04L557.56,196.96L556.84,197.09L556.03,196.88L556.08,197.59L556.63,198.35L555.31,198.74L555.01,199.2L553.99,199.08L553.69,200.02L554.69,200.35L555.12,199.7L555.87,199.98L556.19,200.8L555.97,201.82L555.34,202.53L554.63,204.18L554.58,204.98L553.44,205.69L552.4,206.66L551.48,208.2L548.54,211.28L547.91,211.65L548.1,212.38L547.65,213.57L547,214.25L545.99,216.01L545.48,216.26L544.53,216.27L543.34,216.85L543.15,218.26L543.45,218.85L543.97,219.2L543.05,219.73L542.42,219.48L541.64,220.78L540.3,221.71L539.7,221.9L539.19,222.38L536.58,223.74L534.33,225.18L533.7,225.97L533.22,226.03L533.2,225.29L532.52,224.28L531.91,222.94L531.18,222.5L531.02,222.12L531.08,221.26L531.77,220.92L532.02,220.43L531.85,219.41L531.47,218.74L531.01,217.53L530.59,216.9L530.14,215.79L530.39,214.35L530.07,213.43L529.33,212.32L529.36,211.77L528.99,211.25L528.51,209.96L528.05,209.17L526.76,208.19L526.6,207.73L525.64,207.41L524.65,206.89L524.18,206.01L523.56,205.85L522.03,204.46L521.59,204.23L520.79,204.34L520,204.22L519.4,203.91L518.67,203.01L518.57,202.55L516.37,201.39L515.78,200.78L514.88,200.84L514.17,200.11L512.99,200.36L512.24,200.89L511.76,200.91L510.98,200.54L510.83,200.23L509.49,199.24L509.12,199.3L508.24,200.29L507.34,200.57L506.41,199.76L505.76,198.25L504.9,197.41L497.51,197.3L498.27,196.53L498.62,195.92L499.28,195.23L500.1,193.79L500.89,193.46L501.69,192.58L503.15,191.95L504.25,191.03L505.27,191.17L506.78,190.33L507.3,189.9L508.25,188.69L509.05,187.97L510.21,187.97L511.08,187.05L510.94,186.46L511.73,186.09L512.89,186.19L513.75,185.46L514.39,185.47L515.04,186.34L515.58,186.61L516.54,185.95L519.03,185.47L519.84,184.72L520.42,184.42L521.7,184.27L522.74,183.89L523.64,183.87L524.77,184.25L526.98,184.15L527.69,183.79L528.96,183.58L529.78,182.95L530.88,182.34L531.91,182.07L532.2,181.41L532.81,181.07L533.84,181.02L534.39,181.25L535.77,180.34L536.53,180.08L538.01,179.37L538.48,178.66L540.12,177.88L541.43,177.63L542.28,176.99L543.21,176.9L543.87,177L544.35,176.74L545.18,175.71L546.21,174.93L546.41,174.53L547.31,174.19L547.81,173.67L548.7,173.72L549.23,174.09L549.84,174.16L551.06,173.78L552.32,173.67L552.82,174.47L553.17,174.65Z" class="land" id="MZ-N" title="Nampula"/>
    <path d="M488.9,256.13L488.54,256.08L487.39,257.64L486.59,257.94L484.97,258.94L482.84,260.41L482.33,261.04L481.94,261.2L481.62,262.02L480.5,263.07L480.68,263.29L479.44,264.64L478.68,265.66L477.17,267.28L475.43,268.68L474.02,270.17L473.13,270.5L471.88,271.69L470.37,272.66L469.9,272.48L469.53,271.46L468.67,270.72L467.79,270.34L467.21,269.45L466.8,269.61L467.58,270.77L468.22,270.99L468.85,271.9L468.56,272.75L468.65,274.5L468.43,275.23L468.84,276.94L468.54,277.65L467.79,277.29L467.27,277.78L468.34,278.38L467.79,279.71L467.41,280.28L467.18,281.57L467.84,281.84L467.89,282.65L468.33,283.49L469.51,284.27L469.95,285.39L470.37,285.08L470.78,285.74L471.48,285.79L472.04,286.33L472.19,287.84L473.81,289.85L472.96,290.17L471.81,290.35L470.29,290.98L469.17,291.88L468.61,292.61L468.14,292.68L467.34,292.08L466.63,292.22L465.92,292.79L464.2,293.32L463.79,293.65L462.71,295.22L462.25,295.51L461.76,295.41L460.95,294.86L459.9,295.71L459.28,295.4L457.58,295.55L457.77,294L458.12,293.75L458.39,292.76L459.02,292.38L458.99,291.44L457.5,290.27L456.16,290.12L455.8,289.86L455.74,286.61L455.49,286.08L453.52,285.33L449.82,281.43L449.74,280.42L450.08,279.41L449.62,277.97L448.97,277.55L448.66,276.04L450.31,274.61L451.3,274.05L452.43,273.79L452.62,274.26L453.3,274.82L453.7,274.85L454.08,274.18L455.72,273.43L456.68,272.46L456.42,271.79L455.92,271.32L455.5,271.31L455.55,269.57L455.18,268.98L455.15,268.44L456.23,268.13L456.27,263.95L457.76,258.41L457.23,257.41L456.55,257.18L456.01,256.19L455.38,255.89L455.15,255.39L453.97,254.8L453.28,254.71L453.12,254.34L453.29,253.6L454.82,251.71L455.45,251.12L454.91,249.95L455.09,249.12L454.63,247.97L455.26,247.22L456.2,246.53L456.47,245.65L457.16,245.77L457.63,246.14L457.93,246.95L458.69,247.57L459.28,247.61L459.73,246.98L460.71,246.9L461.14,246.18L461.49,244.82L461.57,243.76L461.47,242.56L460.91,241.99L459.69,241.52L459.52,241.03L459.72,239.53L459.26,237.66L459.28,237.24L459.93,235.59L460.04,234L460.67,232.14L460.67,230.94L461.55,229.11L462.45,228.52L463.19,228.33L464.27,227.82L465,227.05L465.28,226.41L466.17,225.39L467.28,226L468.75,226.49L470.08,227.62L470.42,228.24L470.78,229.78L471.66,231.44L471.86,232.34L472.24,232.9L472.91,234.47L473.04,235.13L473.41,235.63L473.7,236.8L474.14,237.32L475.42,238.36L476.88,239.23L478.4,240.73L478.66,241.79L479.32,242.26L479.93,243.21L480.92,243.96L481.83,243.93L483.16,244.48L484.73,245.53L484.57,245.85L485.39,246.91L485.65,247.62L487.19,248.31L488.23,249.26L489.15,251.64L489.27,252.74L488.69,253.11L488.63,253.59L488.86,254.75L489.23,254.61L489.77,255.38Z" class="land" id="MZ-S" title="Sofala"/>
    <path d="M479.09,299.32L479.47,299.26L479.4,300.8L478.88,303.02L478.45,302.5L478.61,301.29ZM473.81,289.85L473.92,290.07L473.41,291.04L473.31,291.95L472.38,292.37L473,292.79L473.02,293.74L473.45,294.21L473.21,294.85L473.8,295.2L473.92,296.59L474.38,297.81L475.28,299.36L475.69,299.75L476.15,300.83L476.11,302.89L476.25,303.58L476.69,304.56L477.11,307.92L476.67,312.03L476.75,313.1L477.47,313.53L478.03,313.43L478.47,312.98L477.93,311.62L477.92,310.84L478.18,310.25L478.78,310.12L478.35,309.17L478.67,308.41L479.2,307.96L479.55,308.2L479.49,308.76L479.79,311.46L480.1,311.34L480.16,313.05L479.43,315.53L479.38,317.54L479.85,321.03L480.8,321.34L481.03,321.61L480.17,323.19L479.22,325.36L479.38,326.94L479.27,327.62L478.42,330.25L478.18,332.35L478.18,333.74L477.56,334.06L477.17,336.8L477.26,337.4L477.88,337.23L477.61,336.38L477.98,336.09L478.86,336.7L479.13,336.56L479.24,335.42L479.79,335.28L480.18,336.43L479.33,339.23L479.44,340.43L478.93,341.34L476.64,344.74L474.97,346.58L474.81,347.25L473.72,348.35L469.37,350.68L466.95,351.85L464.45,352.49L464,351.69L463.55,351.51L462.14,351.41L461.75,350.18L462.06,349.92L464.17,348.82L464.19,348.62L462.94,347.24L463.58,346.43L463.01,346.25L461.86,346.5L460.84,346.99L459.43,347.38L459.22,347.21L457.4,344.04L457.31,343.53L457.24,340.04L456.23,340.01L456.11,339.27L456.36,337.99L456.25,335.99L456.36,334.74L456.78,333.75L456.39,333.11L455.84,332.93L456.6,331.98L456.59,331.16L455.83,330.57L455.33,329.65L455.08,328.63L455.85,328.36L455.52,327.71L455.41,326.83L455.03,325.65L454.49,324.78L453.68,324.06L452.68,322.94L452.55,322.04L451.79,320.87L450.81,319.85L449.13,318.56L448.55,317.68L448.02,317.21L447.14,315.81L446.93,315.02L447.27,312.93L448.07,312.39L447.82,309.98L448.06,308.24L447.59,307.51L447.46,306.5L446.45,305.7L444.94,303.78L444.92,302.71L444.72,301.88L445.02,301.01L445.76,300.21L446.43,299.26L446.66,298.61L447.06,298.65L448.52,298.14L449.84,297.13L450.95,296.89L453.52,297L454.35,296.86L455.73,297.08L456.59,295.76L457.58,295.55L459.28,295.4L459.9,295.71L460.95,294.86L461.76,295.41L462.25,295.51L462.71,295.22L463.79,293.65L464.2,293.32L465.92,292.79L466.63,292.22L467.34,292.08L468.14,292.68L468.61,292.61L469.17,291.88L470.29,290.98L471.81,290.35L472.96,290.17Z" class="land" id="MZ-I" title="Inhambane"/>
    <path d="M437.51,369.82L436.52,370.78L435.41,370.47L435.94,369.08L437.09,369.43Z" class="land" id="MZ-MPM" title="Maputo"/>
    <path d="M484.53,204.26L489.85,204.22L491.06,204.81L491.61,204.1L491.59,203.36L492.38,201.99L493.73,201.67L494.32,201.26L495.32,200.86L496.34,199.77L497.47,198.17L497.51,197.3L504.9,197.41L505.76,198.25L506.41,199.76L507.34,200.57L508.24,200.29L509.12,199.3L509.49,199.24L510.83,200.23L510.98,200.54L511.76,200.91L512.24,200.89L512.99,200.36L514.17,200.11L514.88,200.84L515.78,200.78L516.37,201.39L518.57,202.55L518.67,203.01L519.4,203.91L520,204.22L520.79,204.34L521.59,204.23L522.03,204.46L523.56,205.85L524.18,206.01L524.65,206.89L525.64,207.41L526.6,207.73L526.76,208.19L528.05,209.17L528.51,209.96L528.99,211.25L529.36,211.77L529.33,212.32L530.07,213.43L530.39,214.35L530.14,215.79L530.59,216.9L531.01,217.53L531.47,218.74L531.85,219.41L532.02,220.43L531.77,220.92L531.08,221.26L531.02,222.12L531.18,222.5L531.91,222.94L532.52,224.28L533.2,225.29L533.22,226.03L533.03,227.31L532.65,227.76L531.88,227.94L530.87,227.95L530.02,228.54L529.47,228.72L527.14,228.93L525.33,229.47L524.7,229.9L524.09,229.63L523.99,230.11L519.81,231.78L519.08,232.46L518.55,232.09L518.53,231.05L517.92,231.28L518.43,231.98L518.41,232.44L517.11,233.09L515.17,233.51L514.35,233.95L512.44,235.27L511.96,235.25L510.83,236.13L510.31,236.05L509.95,236.46L508.05,237.6L507.65,238L507.06,238.08L506.67,238.57L505.91,238.71L505.69,239.18L504.87,239.56L504.04,240.57L503,241.49L501.93,243.3L501.49,243.71L501.02,243.05L500.06,242.47L500.25,243.55L501.39,244.25L500.94,245.1L500.35,245.77L500.06,246.46L499.16,246.28L499.3,246.93L498.27,248.19L497.67,248.7L496.28,250.34L495.59,250.98L495.1,251.09L494.9,251.94L494.03,252.5L493.11,254.25L492.62,254.41L493.09,255.6L492.24,256.06L491.3,255.68L490.44,254.82L490.84,256.47L490.55,257.29L489.1,257.56L488.88,257.34L488.9,256.13L489.77,255.38L489.23,254.61L488.86,254.75L488.63,253.59L488.69,253.11L489.27,252.74L489.15,251.64L488.23,249.26L487.19,248.31L485.65,247.62L485.39,246.91L484.57,245.85L484.73,245.53L483.16,244.48L481.83,243.93L480.92,243.96L479.93,243.21L479.32,242.26L478.66,241.79L478.4,240.73L476.88,239.23L477.02,238.57L477.03,235.56L476.86,234.68L477.12,233.71L477.02,233.03L476.59,232.04L476.46,230.01L476.65,229.62L476.56,228.22L476.79,227.74L476.22,227.32L476.36,226.02L476.73,225.7L476.36,224.71L476.26,223.39L475.35,222.43L474.72,222.22L474.09,220.87L475.31,220.04L475.6,219.55L475.67,218.65L476.08,218.07L475.87,217.48L475.97,216.76L476.65,215.69L477.68,214.75L478.3,214.48L478.89,214.58L479.75,215.22L479.97,214.75L481.74,214.29L482.46,214.24L483.53,213.49L483.91,212.66L483.82,211.95L484.07,210.98Z" class="land" id="MZ-Q" title="Zambézia"/>
    <path d="M434.36,295.51L435,296.07L436.06,296.7L437.02,296.66L437.89,296.95L439.56,298.24L440.31,298.44L441.38,298.33L441.86,298.58L442.34,299.63L442.91,299.65L443.59,300.07L444.06,299.23L444.62,298.78L445.52,298.38L446.66,298.61L446.43,299.26L445.76,300.21L445.02,301.01L444.72,301.88L444.92,302.71L444.94,303.78L446.45,305.7L447.46,306.5L447.59,307.51L448.06,308.24L447.82,309.98L448.07,312.39L447.27,312.93L446.93,315.02L447.14,315.81L448.02,317.21L448.55,317.68L449.13,318.56L450.81,319.85L451.79,320.87L452.55,322.04L452.68,322.94L453.68,324.06L454.49,324.78L455.03,325.65L455.41,326.83L455.52,327.71L455.85,328.36L455.08,328.63L455.33,329.65L455.83,330.57L456.59,331.16L456.6,331.98L455.84,332.93L456.39,333.11L456.78,333.75L456.36,334.74L456.25,335.99L456.36,337.99L456.11,339.27L456.23,340.01L457.24,340.04L457.31,343.53L457.4,344.04L459.22,347.21L459.43,347.38L460.84,346.99L461.86,346.5L463.01,346.25L463.58,346.43L462.94,347.24L464.19,348.62L464.17,348.82L462.06,349.92L461.75,350.18L462.14,351.41L463.55,351.51L464,351.69L464.45,352.49L460.49,354.13L459.66,354.26L453.34,356.62L451.21,357.75L449.43,358.38L447.26,359.59L446.68,359.32L445.73,359.76L445.92,360.33L444.51,361.1L444.62,359.65L444.36,358.76L443.73,358.4L442.68,358.28L442.36,355.95L441.48,355.51L441.38,353.79L441.58,353.47L441.4,352.44L441.64,351.54L441.49,351.22L440.74,350.91L440.13,350.37L439.93,349.63L438.35,347.3L438.2,345.21L437.13,344.75L436.28,344.97L434.84,344.34L434.04,343.44L433.55,343.15L431.82,342.9L430.33,342.34L428.76,342.07L426.68,343.13L425.84,341.3L425.74,340.61L425.63,337.78L425.38,337.31L424.42,336.61L423.94,336L423.34,334.59L422.77,332.56L422.47,331.98L421.05,330.44L420.69,329.2L421,325.53L420.91,325.04L418.52,317.56L417.1,313.14L417.25,312.85L419.39,311.33L424.03,306.13L427.14,302.66L433.81,295.21Z" class="land" id="MZ-G" title="Gaza"/>
    <path d="M442.73,233.96L443.11,233.8L443.09,232.93L443.93,231.37L443.84,230.61L444.17,229.39L444.95,228.5L445.61,228.35L446.02,227.98L446.61,226.01L447.15,225.19L447.3,224.01L449.11,221.86L449.1,220.61L450.03,219.47L451.29,219.01L452.78,219.14L453.86,218.83L454.73,219.1L456.1,221.13L456.76,221.56L457.37,221.71L457.61,222.28L458.37,222.2L459.36,222.46L460.61,223.36L461.6,223.41L463.38,223.86L466.17,225.39L465.28,226.41L465,227.05L464.27,227.82L463.19,228.33L462.45,228.52L461.55,229.11L460.67,230.94L460.67,232.14L460.04,234L459.93,235.59L459.28,237.24L459.26,237.66L459.72,239.53L459.52,241.03L459.69,241.52L460.91,241.99L461.47,242.56L461.57,243.76L461.49,244.82L461.14,246.18L460.71,246.9L459.73,246.98L459.28,247.61L458.69,247.57L457.93,246.95L457.63,246.14L457.16,245.77L456.47,245.65L456.2,246.53L455.26,247.22L454.63,247.97L455.09,249.12L454.91,249.95L455.45,251.12L454.82,251.71L453.29,253.6L453.12,254.34L453.28,254.71L453.97,254.8L455.15,255.39L455.38,255.89L456.01,256.19L456.55,257.18L457.23,257.41L457.76,258.41L456.27,263.95L456.23,268.13L455.15,268.44L455.18,268.98L455.55,269.57L455.5,271.31L455.92,271.32L456.42,271.79L456.68,272.46L455.72,273.43L454.08,274.18L453.7,274.85L453.3,274.82L452.62,274.26L452.43,273.79L451.3,274.05L450.31,274.61L448.66,276.04L448.97,277.55L449.62,277.97L450.08,279.41L449.74,280.42L449.82,281.43L453.52,285.33L455.49,286.08L455.74,286.61L455.8,289.86L456.16,290.12L457.5,290.27L458.99,291.44L459.02,292.38L458.39,292.76L458.12,293.75L457.77,294L457.58,295.55L456.59,295.76L455.73,297.08L454.35,296.86L453.52,297L450.95,296.89L449.84,297.13L448.52,298.14L447.06,298.65L446.66,298.61L445.52,298.38L444.62,298.78L444.06,299.23L443.59,300.07L442.91,299.65L442.34,299.63L441.86,298.58L441.38,298.33L440.31,298.44L439.56,298.24L437.89,296.95L437.02,296.66L436.06,296.7L435,296.07L434.36,295.51L433.26,293.58L433.39,293.33L432.79,292.73L434.68,290.29L435.12,288.99L434.7,285.65L434.89,284.32L435.36,283.72L437.33,283.61L437.7,283.2L438.65,281.34L440.27,279.33L440.57,278.42L440.48,277.82L440.86,276.43L441.47,276.17L441.87,275.29L442.67,275.32L442.53,274.83L442.59,273.66L442.87,272.74L443.04,271.42L442.25,270.9L441.88,270.37L441.98,269.45L441.44,269.39L441,269.85L440.06,269.86L439.84,269.34L440.08,267.26L439.97,266.63L439.06,266.39L439.14,264.81L440.02,263.58L440.52,260.97L440.43,260.43L439.9,259.56L439.39,259.4L438.47,259.54L437.99,259.34L437.86,258.22L438.07,257.51L437.99,256.53L439.42,255.86L440.86,255.8L441.38,254.84L441.29,253.9L440.66,252.45L440.64,251.87L442.5,250.8L442.36,250.1L443.12,249.17L443.08,248.7L442.12,247.84L441.85,247.15L442.19,246.49L442.15,245.86L441.63,244.25L441.82,242.32L441.62,241.58L441.92,240.69L442.54,240.32L442.62,238.48L442.86,237.9L442.66,237.01L441.84,236.55L441.62,235.73L441.94,235.42Z" class="land" id="MZ-B" title="Manica"/>
    <path d="M476.46,230.01L476.59,232.04L477.02,233.03L477.12,233.71L476.86,234.68L477.03,235.56L477.02,238.57L476.88,239.23L475.42,238.36L474.14,237.32L473.7,236.8L473.41,235.63L473.04,235.13L472.91,234.47L472.24,232.9L471.86,232.34L471.66,231.44L470.78,229.78L470.42,228.24L470.08,227.62L468.75,226.49L467.28,226L466.17,225.39L463.38,223.86L461.6,223.41L460.61,223.36L459.36,222.46L458.37,222.2L457.61,222.28L457.37,221.71L456.76,221.56L456.1,221.13L454.73,219.1L453.86,218.83L452.78,219.14L451.29,219.01L450.03,219.47L449.1,220.61L449.11,221.86L447.3,224.01L447.15,225.19L446.61,226.01L446.02,227.98L445.61,228.35L444.95,228.5L444.17,229.39L443.84,230.61L443.93,231.37L443.09,232.93L443.11,233.8L442.73,233.96L442.78,233.22L442.16,232.62L441.88,230.6L441.5,229.71L440.03,227.01L441.09,225.97L441.57,225.16L442.09,223.09L440.98,223.57L439.61,223.33L438.58,223.51L438.1,223.17L437.7,221.83L432.06,219.54L430.9,219.36L427.97,219.44L426.44,219.19L426.07,218.84L425.7,217.83L424.79,217.26L423.89,216.28L423.12,215.77L420.65,215.61L419.86,215.17L418.96,215.08L418.02,214.23L417.34,213.23L416.82,212.94L415.32,212.59L414.66,212.54L414.17,212.98L413.82,212.85L413.15,213.43L412.58,213.54L411.52,212.69L410.86,212.55L404.14,212.6L404.04,206.29L403.62,205.84L403.95,204.76L403.68,203.97L403.64,202.98L403.14,201.9L402.44,201.51L402.07,200.78L401.52,198.86L401.35,196.95L402.89,196.73L405.36,195.49L410.25,193.68L414.08,192.84L419.05,191.63L420.32,191.15L422.71,189.88L428.26,188.04L429.37,187.52L431.13,187.13L438.79,184.49L445.56,182.17L446.7,182.88L446.87,183.31L446.86,184.35L447.35,185.1L447.8,185.39L449.05,187.76L449.51,188.28L450.34,188.73L450.63,189.3L451.49,189.95L451.8,190.78L452.5,191.12L452.55,190.32L452.9,189.53L453.21,189.43L454.01,190.04L454.85,189.93L455.71,189.4L456.54,189.3L458.1,189.51L458.5,188.89L458.97,188.69L460.05,188.66L462.44,187.86L462.85,188.09L463.66,189.55L464.77,190.74L465.03,191.74L464.83,192.65L465.38,194.11L465.47,195.73L465.99,197L465.47,198.11L465.63,198.7L465.46,199.13L465.77,201.39L465.44,202.19L464.7,202.79L464.46,203.56L463.42,204.61L463.55,206.05L463.33,207.15L462.41,208.45L461.69,208.76L461,209.42L460.8,210.89L460.96,211.32L461.85,211.85L463.08,213.15L463.4,213.94L463.05,215.45L463.66,216.8L463.95,217.1L465.11,217.22L465.44,217.56L465.86,218.63L466.68,219.41L467.04,220.12L468.18,220.74L468.78,221.67L469.47,222.26L469.84,223.04L470.57,223.46L470.84,224.06L471.37,224.29L472.21,225.14L473.56,225.19L474.03,225.91L473.99,226.97L473.82,227.4L472.8,228.08L472.68,228.57L473.16,229.31L473.34,229.93L475.61,230.1Z" class="land" id="MZ-T" title="Tete"/>
    <path d="M523.8,142.73L523.23,143.51L522.69,145.19L522.47,146.21L522.47,147.76L523.09,148.77L522.83,150.64L522.32,151.22L522.12,151.91L521.64,152.18L521.42,153.44L520.24,154.26L519.62,154.83L519.23,155.99L519.11,156.93L518.56,157.44L517.61,158.6L516.99,159.04L517.21,160.19L516.96,161.34L517.15,162.51L516.77,164.04L516.6,167L516.16,167.76L516.33,168.05L517.41,168.31L517.79,168.67L518.49,168.89L519.57,168.45L519.7,169.04L519.3,170.41L518.63,171.56L517.49,172.52L517.15,173.12L517.38,173.97L518.18,174.08L518.46,174.86L518.38,175.7L519.05,177.12L519.18,178.12L519.65,179.3L520.08,179.81L520.66,181.24L521.85,183.12L522.74,183.89L521.7,184.27L520.42,184.42L519.84,184.72L519.03,185.47L516.54,185.95L515.58,186.61L515.04,186.34L514.39,185.47L513.75,185.46L512.89,186.19L511.73,186.09L510.94,186.46L511.08,187.05L510.21,187.97L509.05,187.97L508.25,188.69L507.3,189.9L506.78,190.33L505.27,191.17L504.25,191.03L503.15,191.95L501.69,192.58L500.89,193.46L500.1,193.79L499.28,195.23L498.62,195.92L498.27,196.53L497.51,197.3L497.47,198.17L496.34,199.77L495.32,200.86L494.32,201.26L493.73,201.67L492.38,201.99L491.59,203.36L491.61,204.1L491.06,204.81L489.85,204.22L484.53,204.26L484.57,203.63L483.75,200.22L483.84,199.48L485.52,195.5L484.91,195.35L484.76,192.14L484.5,191.66L483.78,190.93L479.88,185.96L478.88,184.04L473.39,177.45L470.58,174.87L470.12,174.58L469.12,174.32L467.22,174.35L466.83,174.22L466.4,173.36L465.9,172.79L465.42,171.69L465.38,170.44L465.47,169.16L464.66,162L462.59,154.61L462.66,153.93L462.97,153.16L465.69,149.03L466.29,147.55L466.43,146.34L466.33,145.41L466.98,145.09L471.62,145.15L477.79,145.21L478.67,145.42L479.52,145.28L480.67,145.62L481.83,145.22L482.37,144.4L482.43,143.95L483.45,143.66L484.37,142.73L485.48,143.05L486.04,143.04L486.49,143.45L486.35,143.79L486.76,144.22L487.26,144.12L488.73,144.8L489.42,145.22L489.89,147.08L490.5,146.97L491.06,147.19L492.53,146.77L494.25,146.77L494.46,147.2L495.26,147.53L496.8,147.26L497.98,146.55L499.06,145.15L499.75,145.16L500.33,145.44L501.7,145.31L502.21,145.02L502.38,145.48L503.3,146.42L503.82,146.67L505.08,146.96L506.25,146.97L506.63,146.78L507.32,147.19L508.05,147.4L508.67,147.35L509.18,146.64L510.2,146.21L511.31,146.09L512.24,145.4L513.32,144.92L513.93,144.34L513.75,143.77L514.19,142.79L514.67,141.31L515.6,140.78L516.45,140.68L517.57,140.35L518.33,140.43L518.81,140.72L519.63,140.56L520.31,140.67L520.84,141.04L521.66,141.9L522.18,142.17L523.36,142.47ZM467.54,153.47L468.18,153.24L468.58,152.58L468.51,151.89L467.93,151.61L467.42,151.73L467.06,153.06ZM465.67,151.26L465.4,151.76L466.17,152.68L466.69,152.38L466.83,151.86L466.2,151.14Z" class="land" id="MZ-A" title="Niassa"/>
    <path d="M553.9,174.5L553.17,174.65L552.82,174.47L552.32,173.67L551.06,173.78L549.84,174.16L549.23,174.09L548.7,173.72L547.81,173.67L547.31,174.19L546.41,174.53L546.21,174.93L545.18,175.71L544.35,176.74L543.87,177L543.21,176.9L542.28,176.99L541.43,177.63L540.12,177.88L538.48,178.66L538.01,179.37L536.53,180.08L535.77,180.34L534.39,181.25L533.84,181.02L532.81,181.07L532.2,181.41L531.91,182.07L530.88,182.34L529.78,182.95L528.96,183.58L527.69,183.79L526.98,184.15L524.77,184.25L523.64,183.87L522.74,183.89L521.85,183.12L520.66,181.24L520.08,179.81L519.65,179.3L519.18,178.12L519.05,177.12L518.38,175.7L518.46,174.86L518.18,174.08L517.38,173.97L517.15,173.12L517.49,172.52L518.63,171.56L519.3,170.41L519.7,169.04L519.57,168.45L518.49,168.89L517.79,168.67L517.41,168.31L516.33,168.05L516.16,167.76L516.6,167L516.77,164.04L517.15,162.51L516.96,161.34L517.21,160.19L516.99,159.04L517.61,158.6L518.56,157.44L519.11,156.93L519.23,155.99L519.62,154.83L520.24,154.26L521.42,153.44L521.64,152.18L522.12,151.91L522.32,151.22L522.83,150.64L523.09,148.77L522.47,147.76L522.47,146.21L522.69,145.19L523.23,143.51L523.8,142.73L524.17,142.27L525.63,141.28L526.19,140.65L527.1,140.36L527.76,140.46L528.61,139.76L529.78,139.02L530.28,138.91L532.21,138.91L533.18,138.6L534.44,139.12L535.55,138.82L538.45,136.48L538.94,136.27L540.08,136.18L542.56,135.64L542.93,135.48L544.42,134.45L546.22,133.65L548.07,132.2L548.49,132.04L549.81,130.64L550.37,130.22L551.33,129.88L552.82,128.5L553.26,128.97L553.65,128.63L553.97,129.11L553.48,129.73L554.4,130.24L554.54,130.98L554.86,131.34L555.67,131.53L555.57,131.85L554.53,131.93L553.28,132.91L555.01,133.79L555,134.39L554.19,134.77L553.44,135.83L553.76,137.01L554.1,136.54L554.48,136.7L554.27,137.61L553.57,138.43L553.59,139.32L552.43,140.31L552.1,141.03L551.26,141.28L552.22,141.95L553.07,142.78L552.88,143.87L552.36,144.99L552.88,145.62L552.46,146.17L552.74,147.48L553.08,147.93L553.11,148.66L553.38,149.16L553.29,150.01L553.59,150.9L554.04,151.54L553.73,152.08L553.48,153.5L553.9,154.43L553.38,155.37L553.8,156.52L553.59,157.1L553.97,157.5L553.21,158.92L553.38,159.41L554.42,159.61L554.4,160.65L554.76,161.28L554.51,161.62L554.65,162.29L555.11,162.22L555.67,163.03L555.38,163.61L554.74,163.6L554.39,163.92L554.08,165.12L553.26,164.94L552.29,165.63L552.28,166.31L553.03,167L553.68,166.73L553.38,166.06L554.82,166.1L554.82,166.86L554.4,168.25L554.6,169.29L554.42,170.73L554.5,172.31L554.75,172.56L554.19,173.3L554.16,173.95Z" class="land" id="MZ-P" title="Cabo Delgado"/>
    <path d="M426.68,343.13L428.76,342.07L430.33,342.34L431.82,342.9L433.55,343.15L434.04,343.44L434.84,344.34L436.28,344.97L437.13,344.75L438.2,345.21L438.35,347.3L439.93,349.63L440.13,350.37L440.74,350.91L441.49,351.22L441.64,351.54L441.4,352.44L441.58,353.47L441.38,353.79L441.48,355.51L442.36,355.95L442.68,358.28L443.73,358.4L444.36,358.76L444.62,359.65L444.51,361.1L440.67,363.8L439.49,365.37L439.15,366.06L438.63,368.07L438.18,368.4L437.93,369.41L437.51,369.82L437.09,369.43L435.94,369.08L435.41,370.47L436.04,371.34L436.57,371.66L437.39,372.83L437.84,374.39L438.47,374.23L439.05,374.61L439.77,375.71L440.23,376.05L440.77,375.86L440.62,374.9L441,373.18L441.3,372.84L441.89,373.03L441.51,375.67L441.35,380.27L440.98,382.09L441.07,382.76L440.98,384.07L440.77,384.7L440.98,385.26L432.98,385.5L431.06,385.19L429.45,385.16L429.5,380.9L429.35,379.54L428.65,378.13L428.36,375.96L428.97,373.74L428.62,371.97L428.81,371.45L427.82,371.2L427.01,370.6L426.43,368.71L426.46,367.76L427.09,366.11L427.64,365.54L427.56,363.94L427.27,362.74L427.35,361.79L427.6,360.99L427.55,352.89L427.53,347.88L427.65,346.76L427.57,345.51L427.19,344.26ZM441.18,372.24L441.01,371.76L441.35,371.31L442.3,370.78L441.85,372.16Z" class="land" id="MZ-L" title="Maputo"/>
  </g>
</svg>