<?xml version="1.0" encoding="UTF-8"?>
<svg xmlns="http://www.w3.org/2000/svg" width="269.12" height="262.3" viewBox="345.44 125.85 269.12 262.3" style="background-color:#000000">
  <!-- Created using SVG Map Generator: dojo.amcharts.com/svg-map-generator -->
  <style>
    .land { fill: #ffffff; stroke: #000000; stroke-width: 0.65; }
  </style>
  <g id="polygons">
    <path d="M559.75,152.29L559.64,146.25L568.11,144.55L593.81,139.16L595.83,139.6L596.82,138.96L598.19,139.21L599.84,140.38L600.99,140.49L603.17,139.61L605.11,140.38L606.45,140.3L608.81,141.59L609.51,141.49L610.49,142.9L610.75,143.88L611.91,144.1L611.6,146.04L610.16,146.71L609.01,146.57L608.14,145.95L605.65,146.74L601.58,149.55L600.46,151.28L598.77,150.9L598.75,150.18L597.48,148.96L596.39,148.92L594.98,150.57L594.5,150.14L593.11,150.27L591.46,152.09L589.57,153.03L587.88,154.19L587.68,155.08L585.45,156.92L585.07,157.84L581.55,160.37L580.73,159.96L580.44,156.98L579.82,155.6L577.44,154.07L576.93,152.72L575.94,151.58L575.33,149.88L571.1,149.97Z" class="land" id="NA-CA" title="Zambezi"/>
    <path d="M385.29,216.5L387.53,215.29L389.75,213.36L391.51,212.51L393.47,211.89L395.84,211.58L397.45,211.76L398.23,212.27L400.75,211.8L401.69,212.39L403.03,211.99L404.59,212.73L406.56,212.81L408.67,212.08L409.92,210.78L411.12,210.14L412.61,208.69L414.67,207.66L415.89,205.78L417.82,204.61L419.88,201.82L421.11,201.83L421.92,202.87L423.55,203.27L423.57,205.58L425.3,206.29L426.35,206.13L426.62,207.6L428.63,209.32L432.49,211.41L433.62,212.74L435.51,213.4L436.74,212.61L438.13,214.5L438.79,214.6L439.57,216.06L442.07,216.17L441.87,218.11L442.89,221.01L442.04,221.65L440.33,223.64L440.22,225.72L439.56,228.16L441.1,232.07L440.68,233.16L440.9,235.12L439.93,235.21L440.64,236.61L438.33,238.01L439.02,239.03L439.23,240.29L440.05,241.68L438.52,242.63L438.56,244.39L437.27,244.4L436.25,245.7L435.05,246.53L433.31,245.84L430.99,248.4L433.21,248.33L433.22,251.39L431.13,251.43L429.86,252.38L429.31,257.82L430.66,259.6L427.95,260.35L428.51,262.42L426.78,265.8L428.8,267.2L428.64,268.57L428.92,270.69L428.77,272.07L426.85,271.91L421.18,270.01L421,269.49L417.53,269.18L414.93,268.5L413.9,267.95L402.01,266.45L401.21,264.23L401.35,262.93L402.39,263.23L402.4,261.56L400.93,256.96L400.52,255.07L400.61,253.86L402.05,254.02L403.21,252.73L403.3,250.79L402.86,248.57L402.93,247.18L402.6,245.37L401.78,243.9L400.98,241.07L400.32,239.61L398.28,237.16L398.28,236.45L395.51,233.09L393.86,230.78L391.6,228.83L392.16,228.2L391.89,227.2L390.24,224.92L388.8,221.41L386.78,218.92L386.45,217.92Z" class="land" id="NA-ER" title="Erongo"/>
    <path d="M426.85,271.91L426.49,275.5L427.98,275.94L430.48,275.78L430.63,275.07L431.92,274.83L434.72,273.82L436.72,273.91L434.82,276.16L436.89,276.27L437.31,277.19L438.47,277.28L437.86,275.31L439.2,274.12L440.51,274.58L442.22,274.36L441.82,272.7L439.74,272.61L437.91,272.21L438.18,270.11L438.7,268.54L439.82,268.14L439.85,269.41L441.12,269.47L442,268.91L443.09,267.55L443.31,266.26L441.46,265.76L441.59,264.96L442.89,262.54L444.18,259.6L445.23,260.51L446.87,260.22L447.48,261.19L450.34,260.51L451.49,258.52L453.69,258.49L455.41,259.68L455.34,261.91L458.44,261.11L459.83,261.48L460.12,263.74L458.97,263.97L459.55,265.87L460.36,266.19L460.27,268.24L460.57,269.66L462.09,268.31L464.33,268.38L464.31,267.67L468.15,267.55L469.33,267.87L470.75,269.17L471.71,268.66L472.87,268.93L474.13,268.26L476,267.96L475.65,266.77L476.85,266.4L479.11,265L479.75,265.67L481.76,270.03L482.77,269.22L484.42,270.99L486.43,271.34L489.98,269.78L491.01,270.55L492.97,270.57L493.64,270.95L495.1,269.34L496.11,269.45L496.1,273.45L508.94,273.46L510.54,273.38L510.53,311.17L508.88,310.97L505.53,312.59L504.52,311.82L501.97,311.59L501.67,310.86L498.64,310.56L497.45,311.87L495.19,308.24L494.39,309.12L492.41,310.1L489.78,309.65L487.13,309.67L484.64,309.45L482.33,309.54L482.39,307.6L480.71,307.43L475.4,307.58L473.1,308.84L469.42,309.81L463.96,310.59L461.5,309.98L459.71,309.97L458.04,311.64L458.04,314.23L454.56,312.62L453.66,313.38L452.97,313.11L450.91,313.82L450.98,312.69L449.56,311.91L448.1,311.97L447.69,311.25L444.05,310.46L443.1,310.63L442.26,308.68L441.01,311.91L439.31,309.95L437.24,310.7L437.6,313.06L438.54,316.93L437.13,315.87L435.86,316.8L434.38,315.16L431.21,310.64L429.7,311.09L428.16,301.59L427.5,298.13L409.65,298.28L409.28,298.29L408.2,296.17L408.3,294.39L407.16,291.84L404.3,288.29L404.61,285.96L402.78,281.9L401.65,278.22L401.52,275.83L402.73,274.27L402.36,271.14L402.65,268.32L402.01,266.45L413.9,267.95L414.93,268.5L417.53,269.18L421,269.49L421.18,270.01Z" class="land" id="NA-HA" title="Hardap"/>
    <path d="M409.65,298.28L427.5,298.13L428.16,301.59L429.7,311.09L431.21,310.64L434.38,315.16L435.86,316.8L437.13,315.87L438.54,316.93L437.6,313.06L437.24,310.7L439.31,309.95L441.01,311.91L442.26,308.68L443.1,310.63L444.05,310.46L447.69,311.25L448.1,311.97L449.56,311.91L450.98,312.69L450.91,313.82L452.97,313.11L453.66,313.38L454.56,312.62L458.04,314.23L458.04,311.64L459.71,309.97L461.5,309.98L463.96,310.59L469.42,309.81L473.1,308.84L475.4,307.58L480.71,307.43L482.39,307.6L482.33,309.54L484.64,309.45L487.13,309.67L489.78,309.65L492.41,310.1L494.39,309.12L495.19,308.24L497.45,311.87L498.64,310.56L501.67,310.86L501.97,311.59L504.52,311.82L505.53,312.59L508.88,310.97L510.53,311.17L510.52,373.36L507.54,374.08L506.86,375.17L505.4,374.66L504.02,375.67L503.17,375.22L501.62,375.96L500.78,377.25L500.54,379L498.82,380.28L496.17,380.41L495.59,381.99L495.7,384L494.75,384.99L493.22,385.5L491.06,384.6L490.75,383.66L489.62,382.98L485.57,382.41L483.56,382.62L479.55,383.96L478.11,383.51L476.4,383.48L474.92,384.3L472.86,383.28L469.78,381.01L465.42,380.46L464.29,381.11L463.56,379.75L462.75,379.13L459.64,379.78L460.07,376.84L458.97,376.37L458.12,374.42L459.13,373.57L459.71,372.21L459.08,370.41L458.12,368.85L455.79,369.34L455.16,368.35L455.35,366.23L454.29,365.89L453.2,364.56L449.58,365.48L449.37,367.67L448.53,367.5L447.85,368.59L448.15,369.28L446.76,370.56L447.81,371.89L447.03,372.67L447.19,373.64L446.35,374.85L445.13,374.36L443.63,375.74L441.36,376.44L440.8,377.93L438.53,376.26L432.76,369.99L429.03,366.77L425.62,362.77L425.62,361.61L424.53,359.92L423.02,358.33L422.69,356.16L420.41,352.15L417.97,348.58L417.38,346.16L417.45,344.87L416.9,343.11L416.97,341.14L416.49,339.84L415.41,339.69L415.03,337.9L414.04,335.84L413.84,334.07L415.25,333.79L415.8,332.93L415.13,332.26L415.03,330.75L414.12,328.63L411.25,326.53L411.57,324.34L411.32,322.85L411.87,321.3L411.41,319.62L410.49,318.19L410.49,316.47L408.86,314.21L409.39,311.03L409.95,310.17L409.19,307.32L408.56,306.36L408.36,304.41L409.18,302.12L409.3,300.72L409.82,299.98Z" class="land" id="NA-KA" title="Karas"/>
    <path d="M499.99,174.48L501.22,172.74L502.09,172.06L503.75,171.61L504.42,170.13L504.14,162.87L504.7,161.24L499.93,152.19L503.72,149.07L504.11,148.09L503.48,146.95L505.89,148.09L506.91,147.34L508.82,147.16L511.07,147.94L512.78,148.11L513.89,147.49L515.42,147.73L516.76,147.15L517.81,147.84L519.45,148.21L519.82,148.86L521.06,149.49L523.24,149.49L524.41,150.29L525.29,150.1L526.5,150.77L529.1,149.26L534.51,148.53L534.95,149L538.71,150.43L559.64,146.25L559.75,152.29L539.41,156.51L530.17,156.51L530.14,174.47Z" class="land" id="NA-KE" title="Kavango East"/>
    <path d="M473.51,227.45L474.14,229.25L472.67,230.48L473.42,231.74L473.17,233.25L472.33,233.93L472.63,236.32L470.54,236.63L470.35,238.23L471.08,240.02L471.97,241.14L473.06,240.84L474,242.39L473.33,243.44L474.43,244.52L475.4,243.77L475.9,245.87L476.3,249.37L477,251.04L476.92,254.03L478.91,253.7L478.93,254.67L477.11,255L477.45,256.31L479.68,256.81L480.21,258.36L478.24,258.39L477.88,259.44L481.09,262.23L479.75,265.67L479.11,265L476.85,266.4L475.65,266.77L476,267.96L474.13,268.26L472.87,268.93L471.71,268.66L470.75,269.17L469.33,267.87L468.15,267.55L464.31,267.67L464.33,268.38L462.09,268.31L460.57,269.66L460.27,268.24L460.36,266.19L459.55,265.87L458.97,263.97L460.12,263.74L459.83,261.48L458.44,261.11L455.34,261.91L455.41,259.68L453.69,258.49L451.49,258.52L450.34,260.51L447.48,261.19L446.87,260.22L445.23,260.51L444.18,259.6L442.89,262.54L441.59,264.96L441.46,265.76L443.31,266.26L443.09,267.55L442,268.91L441.12,269.47L439.85,269.41L439.82,268.14L438.7,268.54L438.18,270.11L437.91,272.21L439.74,272.61L441.82,272.7L442.22,274.36L440.51,274.58L439.2,274.12L437.86,275.31L438.47,277.28L437.31,277.19L436.89,276.27L434.82,276.16L436.72,273.91L434.72,273.82L431.92,274.83L430.63,275.07L430.48,275.78L427.98,275.94L426.49,275.5L426.85,271.91L428.77,272.07L428.92,270.69L428.64,268.57L428.8,267.2L426.78,265.8L428.51,262.42L427.95,260.35L430.66,259.6L429.31,257.82L429.86,252.38L431.13,251.43L433.22,251.39L433.21,248.33L430.99,248.4L433.31,245.84L435.05,246.53L436.25,245.7L437.27,244.4L438.56,244.39L438.52,242.63L440.05,241.68L442,241.07L444.77,240.8L447.31,241.04L446.66,240.12L445.03,240.32L445.96,238.31L447.61,239.53L447.86,240.45L449.65,239.58L450.85,238.46L451.37,239.58L453.14,238.1L453.63,239.32L456.61,237.86L456.53,236.62L458.65,236.12L459.26,235.29L460.41,235.81L460.92,232.81L461.44,231.87L462.62,231.04L462.86,230.34L464.58,229.93L465.32,230.76L467.33,230.08L468.9,228.69L470.9,227.94L471.1,228.4Z" class="land" id="NA-KH" title="Khomas"/>
    <path d="M396.74,137.68L396.97,138.14L395.18,141.27L396.25,142.08L396.14,143.51L395.49,144.23L398.15,149.89L398.68,158.54L398.49,163.34L399.27,165.93L400.28,168.03L400.35,169.15L399.55,171.99L400.64,175.39L401.76,176.28L402.06,177.83L401.43,179.29L404.15,179.35L404.29,177.45L403.19,177.5L403.15,175.78L405.37,175.53L410.57,175.55L414.01,174.95L416.23,175.35L418.49,174.64L418.44,175.78L420.53,175.63L423.27,175.77L427.24,176.58L428.98,176.57L430.74,177.54L435.55,178.35L438.91,179.34L441.46,179.73L443.7,179.74L445.71,180.79L446.11,182.83L445.53,191.32L443.96,191.79L442.15,191.87L442.2,193.03L442.74,194.37L440.89,194.49L437.9,196.27L438.05,199.54L436.53,200.3L436.15,199.58L434.28,200.27L432.79,200.16L431.2,200.69L429.17,202.99L427.92,201.64L426.17,201.72L425.36,203.27L423.55,203.27L421.92,202.87L421.11,201.83L419.88,201.82L417.82,204.61L415.89,205.78L414.67,207.66L412.61,208.69L411.12,210.14L409.92,210.78L408.67,212.08L406.56,212.81L404.59,212.73L403.03,211.99L401.69,212.39L400.75,211.8L398.23,212.27L397.45,211.76L395.84,211.58L393.47,211.89L391.51,212.51L389.75,213.36L387.53,215.29L385.29,216.5L384.22,215.33L383.77,213.55L381.84,210.68L381.18,210.02L380.33,208.1L380.13,205.94L379.57,204.29L377.83,201.11L377.68,198.25L376.96,197.07L376.87,196.08L375.86,194.71L374.03,193.03L373.63,191.26L372.02,188.39L371.66,187.15L370.56,185.48L370.15,184.18L369.02,182.34L367.11,178.59L366.98,177.21L365.53,174.86L364.44,172.42L362.86,170.99L362.35,168.99L360.9,167.23L359.69,165.24L353.98,160.31L353.33,158.94L353.37,157.96L352.41,156.19L352.45,155.34L350.01,151.88L349.37,149.06L349.41,147.69L348.74,145.43L348.59,143.53L348.09,141.39L348.49,135.54L350.1,134.2L350.97,134.08L352.27,133.07L354.93,132.29L356.59,132.59L357,133.38L358.21,134.19L359.02,134.23L361.42,133.56L362.08,134.76L365.17,134.05L366.55,132.9L369.14,131.69L371.35,129.75L372.63,128.99L374.83,128.87L375.75,128.5L378.25,129.24L380.4,128.82L382.01,129.59L383.19,131.09L382.88,131.92L385.42,133.52L386.27,134.39L388.95,135.99L390.26,136.54L391.76,138.24L392.98,137.96L394.46,138.43Z" class="land" id="NA-KU" title="Kunene"/>
    <path d="M503.48,146.95L504.11,148.09L503.72,149.07L499.93,152.19L504.7,161.24L504.14,162.87L504.42,170.13L503.75,171.61L502.09,172.06L501.22,172.74L499.99,174.48L494.86,174.46L494.91,166.63L475.17,165.42L471.21,165.21L471.21,144.79L471.21,137.44L479.52,137.43L481.28,139.64L482.34,141.38L483.5,142.56L488.27,145.98L490.38,146.47L493,146.63L493.46,146.09L497.37,146.61L498.83,147.26L501.69,147.3Z" class="land" id="NA-KW" title="Kavango West"/>
    <path d="M475.17,165.42L494.91,166.63L494.86,174.46L499.99,174.48L530.14,174.47L530.14,198.54L528.45,199.1L527.27,198.91L526.06,199.49L523.7,199.49L522.18,198.83L520.15,198.54L517.61,198.83L517.26,198.4L512.95,197.66L509.04,197.38L505.09,196.75L503.5,197.1L501.8,196.52L499.34,196.55L498.04,196.87L497.9,197.58L495.71,198.55L494.51,198.78L491.59,200.23L491.19,200.96L487.74,202.15L486.71,202.96L485.92,204.29L484.19,205.55L482.71,208.3L482.24,209.98L482.41,210.67L481.58,214.18L480.63,212.24L478.04,213.06L477.64,216.47L478.77,218.4L476.05,217.62L474.95,217.88L474.43,219.65L475.01,220.64L475.53,225.22L474.82,226.32L473.51,227.45L471.1,228.4L470.9,227.94L468.9,228.69L467.33,230.08L465.32,230.76L464.58,229.93L462.86,230.34L462.62,231.04L461.44,231.87L460.92,232.81L460.41,235.81L459.26,235.29L458.65,236.12L456.53,236.62L456.61,237.86L453.63,239.32L453.14,238.1L451.37,239.58L450.85,238.46L449.65,239.58L447.86,240.45L447.61,239.53L445.96,238.31L445.03,240.32L446.66,240.12L447.31,241.04L444.77,240.8L442,241.07L440.05,241.68L439.23,240.29L439.02,239.03L438.33,238.01L440.64,236.61L439.93,235.21L440.9,235.12L440.68,233.16L441.1,232.07L439.56,228.16L440.22,225.72L440.33,223.64L442.04,221.65L442.89,221.01L441.87,218.11L442.07,216.17L439.57,216.06L438.79,214.6L438.13,214.5L436.74,212.61L435.51,213.4L433.62,212.74L432.49,211.41L428.63,209.32L426.62,207.6L426.35,206.13L425.3,206.29L423.57,205.58L423.55,203.27L425.36,203.27L426.17,201.72L427.92,201.64L429.17,202.99L431.2,200.69L432.79,200.16L434.28,200.27L436.15,199.58L436.53,200.3L438.05,199.54L437.9,196.27L440.89,194.49L442.74,194.37L442.2,193.03L442.15,191.87L443.96,191.79L445.53,191.32L446.11,182.83L445.71,180.79L451.4,177.88L453.85,174.92L454.01,174.07L455.39,173.52L455.82,174.58L457.18,174.01L457.65,175.1L459,176.35L458.95,177.96L460.14,178.24L462.99,180.35L463.33,179.84L465.17,181.07L468.04,180.62L468.42,181.78L470.25,180.72L469.19,179.25L469.43,177.53L470.28,176.54L471.49,176.46L471.63,171.34L472.98,171.46L473.23,170.05L474.77,170.02L474.77,167.4Z" class="land" id="NA-OD" title="Otjozondjupa"/>
    <path d="M473.51,227.45L474.82,226.32L475.53,225.22L475.01,220.64L474.43,219.65L474.95,217.88L476.05,217.62L478.77,218.4L477.64,216.47L478.04,213.06L480.63,212.24L481.58,214.18L482.41,210.67L482.24,209.98L482.71,208.3L484.19,205.55L485.92,204.29L486.71,202.96L487.74,202.15L491.19,200.96L491.59,200.23L494.51,198.78L495.71,198.55L497.9,197.58L498.04,196.87L499.34,196.55L501.8,196.52L503.5,197.1L505.09,196.75L509.04,197.38L512.95,197.66L517.26,198.4L517.61,198.83L520.15,198.54L522.18,198.83L523.7,199.49L526.06,199.49L527.27,198.91L528.45,199.1L530.14,198.54L530.23,233.7L510.54,233.66L510.54,273.38L508.94,273.46L496.1,273.45L496.11,269.45L495.1,269.34L493.64,270.95L492.97,270.57L491.01,270.55L489.98,269.78L486.43,271.34L484.42,270.99L482.77,269.22L481.76,270.03L479.75,265.67L481.09,262.23L477.88,259.44L478.24,258.39L480.21,258.36L479.68,256.81L477.45,256.31L477.11,255L478.93,254.67L478.91,253.7L476.92,254.03L477,251.04L476.3,249.37L475.9,245.87L475.4,243.77L474.43,244.52L473.33,243.44L474,242.39L473.06,240.84L471.97,241.14L471.08,240.02L470.35,238.23L470.54,236.63L472.63,236.32L472.33,233.93L473.17,233.25L473.42,231.74L472.67,230.48L474.14,229.25Z" class="land" id="NA-OH" title="Omaheke"/>
    <path d="M431.91,143.52L431.91,150.42L432.41,150.83L432.63,153.58L432.27,154.72L430.85,156.26L431.12,160.57L431.61,161.72L432.34,162.14L431.43,164.18L430.14,165.15L428.86,167.16L428.78,169.25L430.48,173.07L431.38,173.77L430.34,174.38L430.74,177.54L428.98,176.57L427.24,176.58L423.27,175.77L420.53,175.63L418.44,175.78L418.49,174.64L418.5,174.06L421.51,173.06L423.24,172.22L422.36,170.31L423.27,169.4L423.34,168.24L422.14,165.26L423.4,163.63L422.08,152.97L421.34,152.2L418.86,151.5L417.73,150.61L425.12,143.16Z" class="land" id="NA-ON" title="Oshana"/>
    <path d="M423.01,137.37L423.51,139.66L425.04,141.72L425.12,143.16L417.73,150.61L418.86,151.5L421.34,152.2L422.08,152.97L423.4,163.63L422.14,165.26L423.34,168.24L423.27,169.4L422.36,170.31L423.24,172.22L421.51,173.06L418.5,174.06L418.49,174.64L416.23,175.35L414.01,174.95L410.57,175.55L405.37,175.53L403.15,175.78L403.19,177.5L404.29,177.45L404.15,179.35L401.43,179.29L402.06,177.83L401.76,176.28L400.64,175.39L399.55,171.99L400.35,169.15L400.28,168.03L399.27,165.93L398.49,163.34L398.68,158.54L398.15,149.89L395.49,144.23L396.14,143.51L396.25,142.08L395.18,141.27L396.97,138.14L396.74,137.68L396.82,137.23L404.98,137.35Z" class="land" id="NA-OS" title="Omusati"/>
    <path d="M431.91,143.52L439.18,148.5L446.84,145.2L471.21,144.79L471.21,165.21L475.17,165.42L474.77,167.4L474.77,170.02L473.23,170.05L472.98,171.46L471.63,171.34L471.49,176.46L470.28,176.54L469.43,177.53L469.19,179.25L470.25,180.72L468.42,181.78L468.04,180.62L465.17,181.07L463.33,179.84L462.99,180.35L460.14,178.24L458.95,177.96L459,176.35L457.65,175.1L457.18,174.01L455.82,174.58L455.39,173.52L454.01,174.07L453.85,174.92L451.4,177.88L445.71,180.79L443.7,179.74L441.46,179.73L438.91,179.34L435.55,178.35L430.74,177.54L430.34,174.38L431.38,173.77L430.48,173.07L428.78,169.25L428.86,167.16L430.14,165.15L431.43,164.18L432.34,162.14L431.61,161.72L431.12,160.57L430.85,156.26L432.27,154.72L432.63,153.58L432.41,150.83L431.91,150.42Z" class="land" id="NA-OT" title="Oshikoto"/>
    <path d="M471.21,137.44L471.21,144.79L446.84,145.2L439.18,148.5L431.91,143.52L425.12,143.16L425.04,141.72L423.51,139.66L423.01,137.37L449.02,137.35L449.07,137.46L456.93,137.52L456.97,137.35L471.21,137.35Z" class="land" id="NA-OW" title="Ohangwena"/>
  </g>
</svg>