<?xml version="1.0" encoding="UTF-8"?>
<svg xmlns="http://www.w3.org/2000/svg" width="321.48" height="262.3" viewBox="319.26 125.85 321.48 262.3" style="background-color:#000000">
  <!-- Created using SVG Map Generator: dojo.amcharts.com/svg-map-generator -->
  <style>
    .land { fill: #ffffff; stroke: #000000; stroke-width: 0.65; }
  </style>
  <g id="polygons">
    <path d="M445.34,339.21L448.81,339.28L449.82,340.47L450.04,344.32L456.03,344.69L456.95,346.87L458.89,347.96L459.16,351.73L460.85,356.89L459.4,356.57L456,354.17L455.24,352.64L452.77,352.31L452.09,356.39L449.98,357.87L449.42,361.94L449.69,364.03L448.12,366.1L448.03,368.82L448.84,371.05L446.59,369.68L444.42,369.34L441.43,369.92L439.8,368.73L440.45,366.67L442.92,363.02L442.39,361.07L443.71,356.68L446.44,351.75L446.12,344.39L445.48,343.2L442.35,341.71Z" class="land" id="NG-AB" title="Abia"/>
    <path d="M565.27,301.44L563.47,296.16L563.72,293.81L559.46,288.84L557.51,288.34L555.14,290.91L552.76,287.84L551.68,284.96L553.79,282.24L557.57,278.51L561.25,273.58L563.85,271.34L563.87,267.97L566.85,261.52L565.88,259.1L562.98,257.21L563.03,254.64L560.8,250.43L557.93,249.41L554.99,244.23L559.06,243.23L565.51,239.09L566.05,232.12L568.75,232.54L571.84,231.89L577.53,225.22L581.27,224.64L583.79,223.69L585.17,221.42L587.59,220.88L590.5,217.74L594.12,218.07L599.69,221.45L602.05,220.92L602.68,217.6L604.72,211.85L604.84,208.41L608.01,209.04L612.05,208.17L611.95,209.56L609.95,212.59L607.77,217.49L607.25,225.1L604.64,229.88L602.14,230.38L600.36,232.9L601.08,234.02L599.82,236.06L601.68,238.75L600.76,240.08L600.36,243.9L599.61,245.55L595.06,246.41L590,249.76L591.26,250.63L591.3,253.83L590.62,259.2L588.3,262.24L588.79,265.65L586.27,267.21L586.21,268.38L582.64,270.8L580.14,270.1L578.15,273.92L573.73,275.25L573.44,276.98L574.3,281.69L572.91,284.31L573.27,286.98L570.03,291.03L567.95,295.95L568.52,299.35Z" class="land" id="NG-AD" title="Adamawa"/>
    <path d="M448.84,371.05L448.03,368.82L448.12,366.1L449.69,364.03L449.42,361.94L449.98,357.87L452.09,356.39L452.77,352.31L455.24,352.64L456,354.17L459.4,356.57L459.51,359.39L461.54,359.15L463.65,360.3L463.56,363.81L465.71,368.11L470.48,372.81L470.74,375.65L469.43,378.53L464.76,378.23L460.2,378.46L455.07,379.18L451.81,380.16L449.81,378.23L449.94,373.53Z" class="land" id="NG-AK" title="Akwa Ibom"/>
    <path d="M433.28,319.18L435.14,320.85L438.64,322.22L438.26,324.03L436.43,326.05L436.09,327.82L437.89,328.55L440.48,333.38L442.35,338.36L445.34,339.21L442.35,341.71L440.09,342.32L437.8,341.78L434.36,342.72L432.95,346.22L429.89,345.51L427.04,347.85L425.54,347.21L426.79,345.04L428.75,339.95L429.46,335.82L426.95,325.9L426.92,325.78L429.16,325.73L430.55,324.27L431.11,321.34Z" class="land" id="NG-AN" title="Anambra"/>
    <path d="M530.85,166.1L534.14,168.75L534.88,173.81L536.22,175.81L536.94,182.67L540.49,191.63L539.53,197.8L541.51,198.61L540.02,200.33L537.45,201.73L534.87,204.39L532.01,206.22L530.48,211.52L528.86,214.28L532,215.57L533.23,219.85L536.29,220.97L537.18,223.09L536.79,228.77L534.28,229.43L533.87,230.94L535.69,232.82L540.65,236.45L541.43,240.73L542.95,244.38L538.51,243.9L534,245.98L531.51,245.64L529.56,246.78L524.23,243.58L519.51,241.55L511.24,237.52L509.83,238.9L511.08,242.1L509.05,242.66L507.82,244.89L505.96,245.5L501.68,245.75L497.31,245L492.7,239.96L493.71,238.04L493.7,234.99L492.07,232.75L487.4,233.68L487.42,228.38L485.98,224.54L482.79,224.34L480.41,222.12L481.64,218.62L483.73,214.98L481.72,211.55L481.36,207.75L482.23,204.3L484.68,203.96L486.98,200.82L490.33,197.89L492.02,198.27L494.37,197.33L500.51,198.76L502.91,198.45L503.68,200.01L510.29,199.64L511.65,202.66L511.3,206.02L512.22,207.48L514.65,207.99L517.03,207.39L519.53,208.32L519.87,205.83L524.71,203.08L524.74,201.29L515.81,200.17L514.54,199.38L512.28,196.2L511.64,194.03L509.27,193.22L510.34,191.07L509.49,187.33L504.97,187.42L506.54,183.65L509.17,183.46L511.49,182.15L519.31,179.07L519.05,177.3L521.91,168.49L525.32,167.42L526.14,169.07Z" class="land" id="NG-BA" title="Bauchi"/>
    <path d="M453.28,286.13L460.79,287.73L466.59,290.46L469.28,290.82L472.96,292.98L473.48,291.93L471.48,286.94L472.41,284.03L474.09,283.09L476.92,283.08L481.21,284.67L486.21,285.51L487.9,285.12L492.91,288.95L492.11,291.75L494.72,290.62L497.9,290.21L504.56,291.17L508.64,295.69L512.2,298.94L512.76,301.01L511.5,304.91L511.63,307.45L508.45,310.29L507.04,312.92L506.15,317.85L506.25,322.38L505.45,325.89L502.75,327.91L500.8,327.82L498.45,324.31L496.1,321.86L494.14,321.46L490.07,322.42L487.7,321.85L487.74,319.1L484.06,316.8L481.75,316.07L478.32,317.1L478.65,319.02L475.99,320.2L472.66,320.05L469.8,321.85L468.72,319.05L466.09,319.64L464.51,321.27L461.79,321.34L461.26,324.86L459.48,325.68L457.57,323.05L458.54,320.3L458.16,317.89L455.71,316.33L453.88,317.55L449.88,314.28L448.77,311.27L452.41,313.12L452.96,310.6L457.11,307.94L458.36,301.71L456.41,301.39L455.88,299.03L455.63,293.15L453.38,289.86Z" class="land" id="NG-BE" title="Benue"/>
    <path d="M612.05,208.17L608.01,209.04L604.84,208.41L604.72,211.85L602.68,217.6L602.05,220.92L599.69,221.45L594.12,218.07L590.5,217.74L587.59,220.88L585.17,221.42L583.79,223.69L581.27,224.64L577.53,225.22L571.84,231.89L568.75,232.54L566.05,232.12L563.61,230.5L562.28,227.86L559.87,226.86L557.72,223.36L559.92,220.12L559.61,217.41L562.35,215.18L562.24,211.59L564.36,208.36L569.13,207.07L572.62,204.19L572.38,199.88L575.4,194.69L577.33,192.79L577.39,190.46L576.06,188.86L573.64,187.96L575.65,184.05L574.93,180.86L576.06,172.39L575.58,167.32L578.59,164.62L580.38,161.5L580.18,159.9L577.52,157.47L576.99,155.82L577.66,150.58L580.14,150.91L580.52,149.18L582.21,148.4L582.73,145.4L585.74,144.19L589.08,142.02L590.2,140.06L595.08,138.01L597.6,138.73L603.29,133.36L603.23,137.07L604.71,139.75L604.02,141.5L606.25,143.45L608.15,146.68L611.23,149.01L612.55,151.4L615.15,150.97L615.15,161.78L617.8,163.64L619.78,166.97L622.41,167.55L626.09,169.96L631.64,169.91L633.85,170.9L634.66,173.38L638.09,175.44L636.58,179.16L637.52,180.78L636.12,183.29L636.25,185.56L634.75,187.01L637.03,189.4L636.96,192.33L632.07,194.21L631.34,195.53L627.9,196.89L625.68,198.92L622.8,199.76L620.11,198.2L618.26,200.6L614.87,206.18Z" class="land" id="NG-BO" title="Borno"/>
    <path d="M420.41,384.5L415.63,384.58L417.6,381.5L418.54,382.81L419.23,383ZM395,362.51L399.99,365.58L401.38,365.57L404.56,363.81L411.14,363.04L416.74,360.05L417.59,358.3L420.25,358.28L422.92,356.97L422.59,355.91L425.42,356.43L425.7,357.92L423.51,361.41L422.33,361.33L420.42,364.69L420.75,367.4L419.59,371.28L421.62,373.83L424.41,372.74L426.35,375.42L428.32,376.49L427.04,381.63L427.94,383.66L421.39,384.35L420,383.79L419.32,382.84L418.74,382.73L418.62,380.49L415.41,382.87L415.24,385.2L411.69,385.5L408.97,384.49L401.14,378.54L397.45,373.5L395.22,369.2L392.99,362.95Z" class="land" id="NG-BY" title="Bayelsa"/>
    <path d="M469.8,321.85L472.66,320.05L475.99,320.2L478.65,319.02L478.32,317.1L481.75,316.07L484.06,316.8L487.74,319.1L487.7,321.85L490.07,322.42L494.14,321.46L496.1,321.86L498.45,324.31L500.8,327.82L499.88,331.39L497.34,332.08L495.45,334.88L494.07,335.28L492.47,337.37L484.26,344.42L485.01,345.23L483.7,347.82L486,351L484.23,354.34L483.55,358.53L483.61,361.34L481.12,364.27L480.1,366.72L475.87,372.27L476.12,373.88L470.48,372.81L465.71,368.11L463.56,363.81L463.65,360.3L461.54,359.15L459.51,359.39L459.4,356.57L460.85,356.89L459.16,351.73L458.89,347.96L459.89,344.46L461.5,342.36L461.13,340.13L463.21,339.6L464.36,341.52L467.7,338.88L472.61,332.72L471.82,331L473.81,328.73L472,325.01Z" class="land" id="NG-CR" title="Cross River"/>
    <path d="M426.95,325.9L429.46,335.82L428.75,339.95L426.79,345.04L425.54,347.21L425.91,348.88L424.01,352.23L423.93,354.5L422.59,355.91L422.92,356.97L420.25,358.28L417.59,358.3L416.74,360.05L411.14,363.04L404.56,363.81L401.38,365.57L399.99,365.58L395,362.51L393.24,362.55L391.65,357.6L392.3,355.83L389.73,354.71L387.26,351.89L386.36,349.13L383.17,343.57L386.11,336.39L389.13,338.31L389.19,342.32L391.64,340.91L391.51,339.34L395.4,339.23L397.12,340.25L400.09,338.43L404.12,340.67L406.83,343.24L405.97,344.97L407.26,346.67L410.26,345.97L415.07,341.41L415.25,339.27L412.66,337.26L410.78,332.99L411.22,331.11L413.12,330.75L414.49,332.42L416.21,330.48L419.34,329.15L422.82,326.95L426.15,326.77Z" class="land" id="NG-DE" title="Delta"/>
    <path d="M457.57,323.05L459.48,325.68L461.26,324.86L461.79,321.34L464.51,321.27L466.09,319.64L468.72,319.05L469.8,321.85L472,325.01L473.81,328.73L471.82,331L472.61,332.72L467.7,338.88L464.36,341.52L463.21,339.6L461.13,340.13L461.5,342.36L459.89,344.46L458.89,347.96L456.95,346.87L456.03,344.69L450.04,344.32L449.82,340.47L451.36,340.04L453.44,341.88L453.62,338.92L455.1,337.01L453.96,332.08L455.13,329.46L455.13,326.97L454.06,322.97Z" class="land" id="NG-EB" title="Ebonyi"/>
    <path d="M410.17,298.01L412.62,299.13L412.35,301.54L413.71,302.1L416.24,300.84L418.78,303.25L421.15,303.01L422.69,306.56L425.89,305.76L427.82,308.6L427.09,314.35L425.36,317.94L425.5,321.22L426.92,325.78L426.95,325.9L426.15,326.77L422.82,326.95L419.34,329.15L416.21,330.48L414.49,332.42L413.12,330.75L411.22,331.11L410.78,332.99L412.66,337.26L415.25,339.27L415.07,341.41L410.26,345.97L407.26,346.67L405.97,344.97L406.83,343.24L404.12,340.67L400.09,338.43L397.12,340.25L395.4,339.23L391.51,339.34L391.64,340.91L389.19,342.32L389.13,338.31L386.11,336.39L382.51,332.19L383.25,330.27L384.75,329.64L386.35,325.72L384.99,323.86L385.3,321.26L387.17,319.38L388.15,316.94L396.6,316.7L397.38,320.9L399.3,319.53L400.72,320.37L402.5,318.48L403.59,312.66L404.79,310.91L406.3,306.92L408.57,304.17L407.57,301.39L408.08,299.71Z" class="land" id="NG-ED" title="Edo"/>
    <path d="M384.76,285.86L387.55,286.17L388.98,287.42L392.33,287.58L393,285.43L397.2,284.82L396.72,286.83L400.55,286.26L399.13,288.71L399.66,290.98L404.45,293.16L401.67,294.82L399.23,297.43L398.51,300.9L396.49,304.47L393.16,305.72L392.33,302.83L391.06,301.66L384.79,301.6L382.85,302.23L380.93,297.25L380.85,291.7L381.65,289.87L384.12,288.12Z" class="land" id="NG-EK" title="Ekiti"/>
    <path d="M433.28,319.18L434.45,317.04L436.61,319.01L438.73,316.7L441.27,315.05L443.9,311.87L447.26,310.25L448.77,311.27L449.88,314.28L453.88,317.55L455.71,316.33L458.16,317.89L458.54,320.3L457.57,323.05L454.06,322.97L455.13,326.97L455.13,329.46L453.96,332.08L455.1,337.01L453.62,338.92L453.44,341.88L451.36,340.04L449.82,340.47L448.81,339.28L445.34,339.21L442.35,338.36L440.48,333.38L437.89,328.55L436.09,327.82L436.43,326.05L438.26,324.03L438.64,322.22L435.14,320.85Z" class="land" id="NG-EN" title="Enugu"/>
    <path d="M443.95,252.1L449.05,251.96L450.72,250.62L452.25,251.74L450.48,256.14L450.43,262.48L448.94,268.14L446.09,272.43L443.13,273.99L439.92,274.96L435.19,275.71L431.42,275.84L430.03,275.73L429.4,273.04L429.08,260.1L429.23,254.25L435.21,253.75L440.27,257.38Z" class="land" id="NG-FC" title="Abuja Federal Capital Territory"/>
    <path d="M541.51,198.61L543.68,197.59L547.59,198.65L551.2,201.33L553.23,204.07L556.49,207.28L556.78,209.36L556.27,214.44L556.72,217.42L559.61,217.41L559.92,220.12L557.72,223.36L559.87,226.86L562.28,227.86L563.61,230.5L566.05,232.12L565.51,239.09L559.06,243.23L554.99,244.23L542.95,244.38L541.43,240.73L540.65,236.45L535.69,232.82L533.87,230.94L534.28,229.43L536.79,228.77L537.18,223.09L536.29,220.97L533.23,219.85L532,215.57L528.86,214.28L530.48,211.52L532.01,206.22L534.87,204.39L537.45,201.73L540.02,200.33Z" class="land" id="NG-GO" title="Gombe"/>
    <path d="M442.35,341.71L445.48,343.2L446.12,344.39L446.44,351.75L443.71,356.68L442.39,361.07L436.7,361.47L431.84,361.05L430.01,360.17L428.39,357.57L429.07,354.4L425.87,353.46L427.04,347.85L429.89,345.51L432.95,346.22L434.36,342.72L437.8,341.78L440.09,342.32Z" class="land" id="NG-IM" title="Imo"/>
    <path d="M506.23,157.44L509.55,158.26L511.78,155.78L519.28,152.97L520.22,153.51L522.05,158.5L525.02,157.39L528.79,158.46L529.73,159.92L530.85,166.1L526.14,169.07L525.32,167.42L521.91,168.49L519.05,177.3L519.31,179.07L511.49,182.15L509.17,183.46L506.54,183.65L504.97,187.42L509.49,187.33L510.34,191.07L509.27,193.22L511.64,194.03L512.28,196.2L514.54,199.38L515.81,200.17L524.74,201.29L524.71,203.08L519.87,205.83L519.53,208.32L517.03,207.39L514.65,207.99L512.22,207.48L511.3,206.02L511.65,202.66L510.29,199.64L503.68,200.01L502.91,198.45L500.51,198.76L494.37,197.33L494.8,194.78L497.83,191.84L495.35,189.98L494.05,187.53L492.02,185.86L493.45,183.85L493.9,181.13L492.93,178.05L490.79,179.63L489.19,177.89L487.04,178.07L486.76,172.76L483.26,171.94L482.26,168.98L480.15,167.48L479.96,164.95L476.65,164.08L472.61,165.64L471.55,168.3L469.56,164.29L468.68,162.86L465.11,162.1L465.58,157.72L470.01,157.13L472.29,157.55L476.21,157.22L477.31,159.75L481.6,161.42L484.94,160.43L487.85,157.13L492.67,157.15L496.5,157.76L498.73,157.44L505.58,157.97Z" class="land" id="NG-JI" title="Jigawa"/>
    <path d="M456.21,196.88L458.56,196.6L462.39,193.75L464.83,193.22L465.73,197.52L468.83,198.82L470.32,200.59L473.2,201.07L475.49,202.97L477.02,205.72L476.32,210.53L476.83,213.12L474.93,214.74L475.4,216.43L478.39,216.84L479.91,218.47L481.64,218.62L480.41,222.12L482.79,224.34L482.31,226.32L480.01,227.9L479,231.19L479.91,233.9L478.89,234.75L478.75,240.31L476.83,243.3L476.52,246.43L479.73,250.52L480.21,252.88L479.49,254.57L476.5,259.53L474.15,259.15L471.88,256.62L469.05,255.88L466.36,259.15L464.13,258.95L464.15,254.8L461.92,253.06L461.78,251.67L459.63,250.51L457.55,253.41L452.25,251.74L450.72,250.62L449.05,251.96L443.95,252.1L441.52,249.21L444.75,244.35L443.23,242.84L443.59,237.65L443.12,233.82L442.4,233.1L436.92,233.13L434.09,232.07L432.92,230.51L437.09,226.92L437.65,225.31L434.22,223.85L434.82,220.98L433.98,219.35L431.74,219.39L431.16,216.42L429.15,216.2L428.66,218.17L426.97,217.92L423.72,219.15L422.84,217.58L420.71,217.9L417.29,220.47L415,223.47L411.97,221.23L412.8,218.88L412.51,212.69L413.81,210.39L415.06,210.01L418.52,206.21L420.93,205.8L426.31,205.78L428.59,203.81L430.6,198.95L433.19,197.19L436.47,197.87L435.32,200.79L438.02,201.62L440.57,203.56L442.31,202.09L441.48,199.78L445.8,199.56L446.31,197.69L448.2,196.46L451.09,197.44L453.04,199.19L455.43,198.23Z" class="land" id="NG-KD" title="Kaduna"/>
    <path d="M360.13,146.91L363.74,147.17L365.71,146.49L368.54,148.78L375.17,151.3L377.27,149.29L378.4,150.07L376.96,155.65L378.52,158.4L377.91,163.29L378.62,165.65L378.52,169.09L373.64,169.41L372.67,171.66L372.95,181.51L372.04,185.7L370.44,190.16L373.03,192.06L374.78,190.2L379.88,187.87L383.69,188.24L386.58,189L389.28,188.37L390.42,187.05L393.23,187.18L394.41,188.83L397.18,189.92L401.13,189.81L402.7,189.21L406.62,190.23L407.21,192.21L406.34,195.5L409.45,197.95L410.13,203.55L408.76,202.92L406.76,205.04L405.09,205.22L399.94,207.39L395.4,207.69L394.7,207.16L394.5,202.61L392.56,201.01L392.14,198.22L388.67,197.22L381.13,198.68L377.17,200.49L377.03,202.57L380.87,204.37L383.15,204.6L384.66,205.76L385.14,208.57L384.04,210.9L385.7,212.19L385.25,213.71L381.41,215.26L378.24,215.53L378.56,221.44L380.12,223.58L380.32,225.28L378.45,226.87L373.85,228.05L373.64,230.56L370.96,230.14L371.51,226.07L369.78,223.9L369.86,221.19L371.9,218.5L375.53,215.99L376.65,209.67L374.53,208.94L370.96,206.5L368.72,205.78L357.74,206.36L355.47,205.63L350.77,203.03L349.16,203.1L348.61,203.09L343.45,198.69L345.3,189.95L346.2,187.94L348.28,186.15L346.9,183.97L346.66,181.88L348.01,180.24L347,176.49L347.71,172.41L347.31,165.62L355.21,159.03L359.26,152.78Z" class="land" id="NG-KE" title="Kebbi"/>
    <path d="M469.56,164.29L471.55,168.3L472.61,165.64L476.65,164.08L479.96,164.95L480.15,167.48L482.26,168.98L483.26,171.94L486.76,172.76L487.04,178.07L489.19,177.89L490.79,179.63L492.93,178.05L493.9,181.13L493.45,183.85L492.02,185.86L494.05,187.53L495.35,189.98L497.83,191.84L494.8,194.78L494.37,197.33L492.02,198.27L490.33,197.89L486.98,200.82L484.68,203.96L482.23,204.3L481.36,207.75L481.72,211.55L483.73,214.98L481.64,218.62L479.91,218.47L478.39,216.84L475.4,216.43L474.93,214.74L476.83,213.12L476.32,210.53L477.02,205.72L475.49,202.97L473.2,201.07L470.32,200.59L468.83,198.82L465.73,197.52L464.83,193.22L462.39,193.75L458.56,196.6L456.21,196.88L454.68,195.74L453.88,193.22L454.55,191.13L459.52,188.99L458.19,185.64L457.58,181.94L457.95,179.24L457.77,172.72L460.5,170.73L465.65,168.52L467.04,164.66Z" class="land" id="NG-KN" title="Kano"/>
    <path d="M414.97,267.35L417.09,268.27L419.77,271.52L420.85,275.05L423.59,277.19L427.07,281.39L431.42,275.84L435.19,275.71L434.27,277.98L435.55,280.21L435.78,282.86L435.27,286.88L436.26,289.08L440.19,287.34L445.47,285.9L448.48,285.6L453.28,286.13L453.38,289.86L455.63,293.15L455.88,299.03L456.41,301.39L458.36,301.71L457.11,307.94L452.96,310.6L452.41,313.12L448.77,311.27L447.26,310.25L443.9,311.87L441.27,315.05L438.73,316.7L436.61,319.01L434.45,317.04L433.28,319.18L431.11,321.34L430.55,324.27L429.16,325.73L426.92,325.78L425.5,321.22L425.36,317.94L427.09,314.35L427.82,308.6L425.89,305.76L422.69,306.56L421.15,303.01L418.78,303.25L416.24,300.84L413.71,302.1L412.35,301.54L412.62,299.13L410.17,298.01L407.18,294.74L407.49,292.96L404.45,293.16L399.66,290.98L399.13,288.71L400.55,286.26L396.72,286.83L397.2,284.82L397.17,283.17L395.14,282.06L392.18,278.11L394.14,274.97L397.25,272.26L398.93,274.14L403.88,275.93L412,276.51L413.93,268.79Z" class="land" id="NG-KO" title="Kogi"/>
    <path d="M487.85,157.13L484.94,160.43L481.6,161.42L477.31,159.75L476.21,157.22L472.29,157.55L470.01,157.13L465.58,157.72L465.11,162.1L468.68,162.86L469.56,164.29L467.04,164.66L465.65,168.52L460.5,170.73L457.77,172.72L457.95,179.24L457.58,181.94L458.19,185.64L459.52,188.99L454.55,191.13L453.88,193.22L454.68,195.74L456.21,196.88L455.43,198.23L453.04,199.19L451.09,197.44L448.2,196.46L446.31,197.69L445.8,199.56L441.48,199.78L442.31,202.09L440.57,203.56L438.02,201.62L435.32,200.79L436.47,197.87L433.19,197.19L433.74,193.58L432.54,191.18L433.6,185.63L437.6,185.59L441.33,182.86L441.92,181.33L438.68,178.72L439.91,174.96L438.21,169.65L437.23,162.49L436.84,157.26L437.45,152.63L439.52,151.96L441.77,149.66L446.99,149.68L456.95,143.62L464.92,144.84L468.85,147.05L473.06,151.18L476.99,151.63L479.19,154.32Z" class="land" id="NG-KT" title="Katsina"/>
    <path d="M348.04,229.85L355.15,229.31L356.69,229.7L362.64,236.5L365.87,240.6L368.01,241.41L367.84,246.96L368.77,248.7L371.99,248.36L372.88,251.88L375.99,253.32L376.69,256.56L378.35,257.12L383.27,255.52L386.58,257.28L389.28,260.38L391.93,260.18L395.71,261.1L404.72,267.01L411.46,266.62L414.97,267.35L413.93,268.79L412,276.51L403.88,275.93L398.93,274.14L397.25,272.26L394.14,274.97L392.18,278.11L395.14,282.06L397.17,283.17L397.2,284.82L393,285.43L392.33,287.58L388.98,287.42L387.55,286.17L384.76,285.86L382.4,286.02L380.85,284.42L376,285.72L371.37,285.76L370.24,285.05L368.92,281.17L366.19,278.39L365.3,274.83L362.48,269.84L361.57,266.9L362.01,264.97L365.63,261.12L360.76,260.63L357.31,259.22L353.25,255.2L350.75,256.13L349.83,259.33L339.84,265.35L336.86,266.75L334.27,266.09L328.24,270.97L325.15,271.29L323.79,272.48L323.81,268.02L323.23,266.09L324.82,260.83L324.61,258.3L332.71,257.32L334.53,252.5L333.84,248.29L336.97,243.95L339.62,241.21L339.54,238.19L342.41,237.04L344.34,237.01L346.25,234.46L346.6,231.3Z" class="land" id="NG-KW" title="Kwara"/>
    <path d="M322.95,327.21L325.76,327.58L328.92,326.02L334.75,325.94L337.04,321.03L340.13,322.7L342.53,321.43L358.53,321.59L358.28,324.86L360.88,326.28L361.13,327.34L365.76,328.32L365.75,329.87L355.65,328.3L351.99,328.1L347.78,328.51L341.35,328.57L338.59,329.02L326.84,329.34L322.8,329.81Z" class="land" id="NG-LA" title="Lagos"/>
    <path d="M452.25,251.74L457.55,253.41L459.63,250.51L461.78,251.67L461.92,253.06L464.15,254.8L464.13,258.95L466.36,259.15L469.05,255.88L471.88,256.62L474.15,259.15L476.5,259.53L479.49,254.57L482.13,255.69L482.4,257.6L484.14,259.48L490.45,260.34L488.96,263.31L486.85,264.69L485.39,267.46L486.69,269.77L487.18,272.97L490.92,274.69L494.41,274.63L498.56,273.43L502.97,275.29L504.67,277.32L502.4,279.25L497.2,278.29L496.32,280.43L497.91,282.09L498.21,285.26L492.91,288.95L487.9,285.12L486.21,285.51L481.21,284.67L476.92,283.08L474.09,283.09L472.41,284.03L471.48,286.94L473.48,291.93L472.96,292.98L469.28,290.82L466.59,290.46L460.79,287.73L453.28,286.13L448.48,285.6L445.47,285.9L440.19,287.34L436.26,289.08L435.27,286.88L435.78,282.86L435.55,280.21L434.27,277.98L435.19,275.71L439.92,274.96L443.13,273.99L446.09,272.43L448.94,268.14L450.43,262.48L450.48,256.14Z" class="land" id="NG-NA" title="Nasarawa"/>
    <path d="M349.16,203.1L350.77,203.03L355.47,205.63L357.74,206.36L368.72,205.78L370.96,206.5L374.53,208.94L376.65,209.67L375.53,215.99L371.9,218.5L369.86,221.19L369.78,223.9L371.51,226.07L370.96,230.14L373.64,230.56L373.85,228.05L378.45,226.87L380.32,225.28L380.12,223.58L378.56,221.44L378.24,215.53L381.41,215.26L385.25,213.71L385.7,212.19L384.04,210.9L385.14,208.57L384.66,205.76L383.15,204.6L380.87,204.37L377.03,202.57L377.17,200.49L381.13,198.68L388.67,197.22L392.14,198.22L392.56,201.01L394.5,202.61L394.7,207.16L395.4,207.69L399.94,207.39L405.09,205.22L406.76,205.04L408.76,202.92L410.13,203.55L413.16,208.27L413.81,210.39L412.51,212.69L412.8,218.88L411.97,221.23L415,223.47L417.29,220.47L420.71,217.9L422.84,217.58L423.72,219.15L426.97,217.92L428.66,218.17L429.15,216.2L431.16,216.42L431.74,219.39L433.98,219.35L434.82,220.98L434.22,223.85L437.65,225.31L437.09,226.92L432.92,230.51L434.09,232.07L436.92,233.13L442.4,233.1L443.12,233.82L443.59,237.65L443.23,242.84L444.75,244.35L441.52,249.21L443.95,252.1L440.27,257.38L435.21,253.75L429.23,254.25L429.08,260.1L429.4,273.04L430.03,275.73L431.42,275.84L427.07,281.39L423.59,277.19L420.85,275.05L419.77,271.52L417.09,268.27L414.97,267.35L411.46,266.62L404.72,267.01L395.71,261.1L391.93,260.18L389.28,260.38L386.58,257.28L383.27,255.52L378.35,257.12L376.69,256.56L375.99,253.32L372.88,251.88L371.99,248.36L368.77,248.7L367.84,246.96L368.01,241.41L365.87,240.6L362.64,236.5L356.69,229.7L355.15,229.31L348.04,229.85L348.25,228.55L345.78,225.87L347.41,221.68L348.5,221.11L351.09,222.47L352.82,217.1L352.54,214.45L350.13,211.23L350.7,208.39L349.27,205.88Z" class="land" id="NG-NI" title="Niger"/>
    <path d="M321.91,289.4L324.45,287.56L326.75,287.87L327.45,289.25L327.75,293.04L330.46,291.18L330.62,293.25L329.72,297.52L331.91,299.65L333.71,302.89L335.99,304.38L338.45,304.29L340.12,300.77L341.92,300.27L343.34,302.61L345.31,301.77L347.94,301.86L348.58,305.09L350.03,305.92L350.9,309.73L349.22,312.05L354.26,311.75L358.76,310.26L360.52,309.32L361.39,311.68L365.31,311.08L366.58,314.12L367.88,313.28L371.51,313.55L370.74,317.31L367.32,320.03L366.05,322.13L366.92,324.44L369.75,324.73L372.08,323.42L372.43,326.86L370.29,328.7L371.71,330.15L369.74,331.23L365.75,329.87L365.76,328.32L361.13,327.34L360.88,326.28L358.28,324.86L358.53,321.59L342.53,321.43L340.13,322.7L337.04,321.03L334.75,325.94L328.92,326.02L325.76,327.58L322.95,327.21L323.88,324.64L323.31,323.04L324.76,321.34L323.27,318.32L323.74,315.15L323.03,313.6L324.92,312.15L323.67,310.78L324.72,309.02L323.79,306.31L323.74,302.16L324.93,300.11L323.28,297.83L323.26,292.2Z" class="land" id="NG-OG" title="Ogun"/>
    <path d="M404.45,293.16L407.49,292.96L407.18,294.74L410.17,298.01L408.08,299.71L407.57,301.39L408.57,304.17L406.3,306.92L404.79,310.91L403.59,312.66L402.5,318.48L400.72,320.37L399.3,319.53L397.38,320.9L396.6,316.7L388.15,316.94L387.17,319.38L385.3,321.26L384.99,323.86L386.35,325.72L384.75,329.64L383.25,330.27L382.51,332.19L386.11,336.39L383.17,343.57L377.2,337.06L369.74,331.23L371.71,330.15L370.29,328.7L372.43,326.86L372.08,323.42L369.75,324.73L366.92,324.44L366.05,322.13L367.32,320.03L370.74,317.31L371.51,313.55L373.56,310.82L376.37,309.33L378.68,310.82L379.72,310.29L379.6,306.98L380.26,304.18L382.85,302.23L384.79,301.6L391.06,301.66L392.33,302.83L393.16,305.72L396.49,304.47L398.51,300.9L399.23,297.43L401.67,294.82Z" class="land" id="NG-ON" title="Ondo"/>
    <path d="M371.37,285.76L376,285.72L380.85,284.42L382.4,286.02L384.76,285.86L384.12,288.12L381.65,289.87L380.85,291.7L380.93,297.25L382.85,302.23L380.26,304.18L379.6,306.98L379.72,310.29L378.68,310.82L376.37,309.33L373.56,310.82L371.51,313.55L367.88,313.28L366.58,314.12L365.31,311.08L361.39,311.68L360.52,309.32L358.76,310.26L359.75,306.04L360.65,300.04L357.66,296.74L358.67,290.77L360.76,291.23L363.78,287.83L366.59,291L371.59,287.13Z" class="land" id="NG-OS" title="Osun"/>
    <path d="M323.79,272.48L325.15,271.29L328.24,270.97L334.27,266.09L336.86,266.75L339.84,265.35L349.83,259.33L350.75,256.13L353.25,255.2L357.31,259.22L360.76,260.63L365.63,261.12L362.01,264.97L361.57,266.9L362.48,269.84L365.3,274.83L366.19,278.39L368.92,281.17L370.24,285.05L371.37,285.76L371.59,287.13L366.59,291L363.78,287.83L360.76,291.23L358.67,290.77L357.66,296.74L360.65,300.04L359.75,306.04L358.76,310.26L354.26,311.75L349.22,312.05L350.9,309.73L350.03,305.92L348.58,305.09L347.94,301.86L345.31,301.77L343.34,302.61L341.92,300.27L340.12,300.77L338.45,304.29L335.99,304.38L333.71,302.89L331.91,299.65L329.72,297.52L330.62,293.25L330.46,291.18L327.75,293.04L327.45,289.25L326.75,287.87L324.45,287.56L321.91,289.4L323.24,284.89L323.91,281.05L322.37,278.03L323.98,273.82Z" class="land" id="NG-OY" title="Oyo"/>
    <path d="M482.79,224.34L485.98,224.54L487.42,228.38L487.4,233.68L492.07,232.75L493.7,234.99L493.71,238.04L492.7,239.96L497.31,245L501.68,245.75L505.96,245.5L507.82,244.89L509.05,242.66L511.08,242.1L509.83,238.9L511.24,237.52L519.51,241.55L524.23,243.58L529.56,246.78L530.22,248.46L530.42,253.69L531.4,255.34L532.01,261.82L531.26,263.14L526.07,265.65L521.21,266.51L517.26,271.37L514.23,272.98L510.96,276.26L506.3,277.43L504.67,277.32L502.97,275.29L498.56,273.43L494.41,274.63L490.92,274.69L487.18,272.97L486.69,269.77L485.39,267.46L486.85,264.69L488.96,263.31L490.45,260.34L484.14,259.48L482.4,257.6L482.13,255.69L479.49,254.57L480.21,252.88L479.73,250.52L476.52,246.43L476.83,243.3L478.75,240.31L478.89,234.75L479.91,233.9L479,231.19L480.01,227.9L482.31,226.32Z" class="land" id="NG-PL" title="Plateau"/>
    <path d="M450.4,379.33L450.41,379.34L451.13,380.71L446.82,381.16L444.79,379.8L444.06,377.21L445.98,377.92L446.66,378.42L447.42,378.42L448.64,377.93ZM438.35,378.23L438.54,380.74L436.47,380.86L435.34,375.15L437.4,376.3ZM430.54,371.94L432.41,373.39L434.93,378.45L435.86,382.62L432.11,382.14L430.82,378.32L431.48,376.19L430,374.98ZM428.32,376.49L426.35,375.42L424.41,372.74L421.62,373.83L419.59,371.28L420.75,367.4L420.42,364.69L422.33,361.33L423.51,361.41L425.7,357.92L425.42,356.43L422.59,355.91L423.93,354.5L424.01,352.23L425.91,348.88L425.54,347.21L427.04,347.85L425.87,353.46L429.07,354.4L428.39,357.57L430.01,360.17L431.84,361.05L436.7,361.47L442.39,361.07L442.92,363.02L440.45,366.67L439.8,368.73L441.43,369.92L444.42,369.34L446.59,369.68L448.84,371.05L449.94,373.53L449.81,378.23L448.11,377.6L447.4,378.31L446.58,378.21L445.94,377.2L445.4,377.61L444.33,377.24L443.45,376.52L442.73,377.21L441.09,377.14L440.22,375.29L437.35,373.43L434.68,374.58L431.17,370.82L428.89,371.75L429.8,374.94L431.16,376.35L430.36,377.73L431.37,381.97L428.24,383.14L427.86,379.14Z" class="land" id="NG-RI" title="Rivers"/>
    <path d="M429.82,147.5L425.51,150.33L421.46,149.78L419.93,148.62L416.85,148.25L416.07,151.5L413.74,150.88L410.78,152.33L411.09,158.44L408.8,159.58L401.94,160.32L399.46,163.99L397.36,165.62L398.26,170.66L396.9,172.68L388.69,173.07L384.72,172.35L383.93,174.54L383.98,182.34L383.69,188.24L379.88,187.87L374.78,190.2L373.03,192.06L370.44,190.16L372.04,185.7L372.95,181.51L372.67,171.66L373.64,169.41L378.52,169.09L378.62,165.65L377.91,163.29L378.52,158.4L376.96,155.65L378.4,150.07L377.27,149.29L375.17,151.3L368.54,148.78L365.71,146.49L363.74,147.17L360.13,146.91L360.17,139.87L361.93,139.86L368.98,133.62L379.67,131.47L380.69,132.39L390.2,132.46L392.43,129.78L396.94,128.5L402.92,131.15L411.65,134.25L413.35,135.26L416.88,134.61L420.52,136.38L427.27,143.04Z" class="land" id="NG-SO" title="Sokoto"/>
    <path d="M529.56,246.78L531.51,245.64L534,245.98L538.51,243.9L542.95,244.38L554.99,244.23L557.93,249.41L560.8,250.43L563.03,254.64L562.98,257.21L565.88,259.1L566.85,261.52L563.87,267.97L563.85,271.34L561.25,273.58L557.57,278.51L553.79,282.24L551.68,284.96L552.76,287.84L555.14,290.91L557.51,288.34L559.46,288.84L563.72,293.81L563.47,296.16L565.27,301.44L563.17,303.79L562.33,305.88L562.95,311.61L560.07,311.68L556.42,315.79L555.72,322.16L554.86,323.59L552.56,323.87L552.29,325.47L549.85,326.37L545.43,324.83L543.8,325.42L543.9,321.68L539.08,321.05L536.34,317.07L537.05,315.02L535.03,314.46L532.75,312.14L530.64,311.23L529.11,314.81L527.21,315.48L520.53,316.13L518.88,312.19L514.07,316.58L511.63,319.35L509.45,318.91L507.13,326.07L505.45,325.89L506.25,322.38L506.15,317.85L507.04,312.92L508.45,310.29L511.63,307.45L511.5,304.91L512.76,301.01L512.2,298.94L508.64,295.69L504.56,291.17L497.9,290.21L494.72,290.62L492.11,291.75L492.91,288.95L498.21,285.26L497.91,282.09L496.32,280.43L497.2,278.29L502.4,279.25L504.67,277.32L506.3,277.43L510.96,276.26L514.23,272.98L517.26,271.37L521.21,266.51L526.07,265.65L531.26,263.14L532.01,261.82L531.4,255.34L530.42,253.69L530.22,248.46Z" class="land" id="NG-TA" title="Taraba"/>
    <path d="M577.66,150.58L576.99,155.82L577.52,157.47L580.18,159.9L580.38,161.5L578.59,164.62L575.58,167.32L576.06,172.39L574.93,180.86L575.65,184.05L573.64,187.96L576.06,188.86L577.39,190.46L577.33,192.79L575.4,194.69L572.38,199.88L572.62,204.19L569.13,207.07L564.36,208.36L562.24,211.59L562.35,215.18L559.61,217.41L556.72,217.42L556.27,214.44L556.78,209.36L556.49,207.28L553.23,204.07L551.2,201.33L547.59,198.65L543.68,197.59L541.51,198.61L539.53,197.8L540.49,191.63L536.94,182.67L536.22,175.81L534.88,173.81L534.14,168.75L530.85,166.1L529.73,159.92L528.79,158.46L525.02,157.39L522.05,158.5L520.22,153.51L519.28,152.97L511.78,155.78L509.55,158.26L506.23,157.44L510.76,152.26L514.7,148.24L520.25,145.42L527.08,145.02L532.42,143L540.76,142.55L550.82,142.59L554.89,143.11L559.47,144.9L564.44,145.99L570.23,150.13L572.82,149.34Z" class="land" id="NG-YO" title="Yobe"/>
    <path d="M437.45,152.63L436.84,157.26L437.23,162.49L438.21,169.65L439.91,174.96L438.68,178.72L441.92,181.33L441.33,182.86L437.6,185.59L433.6,185.63L432.54,191.18L433.74,193.58L433.19,197.19L430.6,198.95L428.59,203.81L426.31,205.78L420.93,205.8L418.52,206.21L415.06,210.01L413.81,210.39L413.16,208.27L410.13,203.55L409.45,197.95L406.34,195.5L407.21,192.21L406.62,190.23L402.7,189.21L401.13,189.81L397.18,189.92L394.41,188.83L393.23,187.18L390.42,187.05L389.28,188.37L386.58,189L383.69,188.24L383.98,182.34L383.93,174.54L384.72,172.35L388.69,173.07L396.9,172.68L398.26,170.66L397.36,165.62L399.46,163.99L401.94,160.32L408.8,159.58L411.09,158.44L410.78,152.33L413.74,150.88L416.07,151.5L416.85,148.25L419.93,148.62L421.46,149.78L425.51,150.33L429.82,147.5L433.87,152.93Z" class="land" id="NG-ZA" title="Zamfara"/>
  </g>
</svg>