<?xml version="1.0" encoding="UTF-8"?>
<svg xmlns="http://www.w3.org/2000/svg" width="332.21" height="262.3" viewBox="313.89 125.85 332.21 262.3" style="background-color:#000000">
  <!-- Created using SVG Map Generator: dojo.amcharts.com/svg-map-generator -->
  <style>
    .land { fill: #ffffff; stroke: #000000; stroke-width: 0.65; }
  </style>
  <g id="polygons">
    <path d="M356.23,344.57L357.22,344.8L359.28,344.69L359.61,345.63L360.45,345.71L360.45,346.92L359.61,349.53L358.84,350.12L358.44,349.12L356.37,349L355.05,348.13L354.2,346.65L354.25,345.41L354.68,344.87Z" class="land" id="NE-8" title="Niamey"/>
    <path d="M635.28,250.56L582.19,250.58L566.41,258.01L561.46,261.41L554.44,263.98L545.99,269.83L539.9,271.66L506.11,293.81L498.83,296.59L490.36,301.33L486.57,302.68L485.34,302.8L481.57,302.71L480.77,302.82L479.14,303.69L475.61,303.73L467.32,302.46L466.51,303.36L464.83,308.1L460.69,305.86L459.59,305.77L451.38,306.09L450.15,293.79L450.6,290.32L450.15,289.48L446.95,288.64L445.11,287.32L444.46,286.19L439.94,275.24L438.02,273.03L433.38,269.48L422.32,262.5L421.44,261.72L418.71,257.96L415.11,254.95L414.69,254.34L414.23,252.15L413.82,251.75L411.62,251.58L410.94,251.34L410.55,250.11L411.33,248.59L411.11,245.99L411.33,245.17L411.05,243.99L411.24,242.91L413.95,237.23L411.99,236.64L400.85,236.51L400.82,225.65L412.52,223.27L418.48,222.06L432.26,219.26L434.09,218.28L440.93,212.03L450.06,203.68L458.55,195.91L468.11,187.57L476.44,182.31L484.89,176.97L491.92,172.51L504.59,164.47L514.44,158.21L522.88,152.83L528.51,149.24L536.95,143.84L542.58,140.24L551.02,134.83L560.87,128.5L569.99,130.72L579.11,132.93L592.16,136.1L594.59,137.47L598.34,140.83L607.03,148.6L607.66,148.71L616.04,144.13L623.13,140.24L625.11,151.47L627.1,162.67L627.27,173.49L627.68,174.18L629.06,174.97L629.77,175.85L636.14,185.84L635.31,186.32L634.8,187.18L634.8,189.2L635.7,190.66L637.39,192.01L643.27,198.57L643.46,199.79L639.41,207.22L638.76,208.95L637.6,222.88L636.44,236.84Z" class="land" id="NE-1" title="Agadez"/>
    <path d="M372.2,370.63L370.63,371.03L369.11,371.86L368.46,372.91L367.73,372.71L364.83,373.14L363.91,373.8L362.89,373.84L362.21,374.44L362.43,376.1L363.12,378.09L364.15,378.89L362.52,380.68L361.73,380.34L356.2,372.58L355.81,371.84L356.17,370.96L359.8,370.1L359.83,369.22L359.1,368L358.94,366.73L356.99,364.14L354.15,363.74L352.91,364.33L351.86,366.01L351.14,366.29L346.4,365.87L345.14,365.37L336.42,357.97L334.31,357.53L333.48,356.46L333.45,350.92L333.72,350.07L337.53,351.24L337.94,350.16L337.31,349.56L335.06,348.51L333.99,347.35L333.88,346.4L333.05,345.5L330.97,344.54L329.83,344.59L329.17,344.16L328.96,343.36L326.22,343.44L325.39,342.72L325.8,341.55L323.81,339.92L322.65,338.33L322.83,337.76L321.9,337.09L321.02,335.79L321.12,334.95L320.4,333.95L320.98,332.92L321.42,331.26L320.54,330.07L317.28,327.08L316.67,326.04L316.54,324.96L317.93,321.02L317.19,319.13L317.95,317.66L317.78,316.11L317.96,315.36L320.69,316.05L322.04,315.91L324.03,315.41L327.24,316.56L329.29,315.93L332.45,315.83L333.52,315.46L339.66,309.7L340.91,309.19L348.43,308.94L356.42,308.66L366.4,308.32L375.42,308.01L375.63,306.32L376.92,306.12L385.9,307.69L386.09,305.21L386.3,304.64L388.11,303.53L389.73,301.73L390.49,301.31L392.13,301L393.48,299.81L393.65,300.12L398.27,313.35L398.18,316.33L398.41,317.68L401.34,322.59L400.96,325.13L399.59,326.08L399.2,326.93L396.99,328.17L395.17,328.52L392.34,330.98L391.53,332.36L390.79,335.61L390.25,336.55L386.42,340.13L385.76,340.52L382.31,342.02L381.75,341.96L379.01,340.93L378.17,342.39L377.57,344.8L375.17,345.07L374.4,346.57L373.08,346.93L372.64,348.53L372.87,349.63L372.34,351.48L371.69,352.29L370.81,351.98L369.41,352.09L367.6,353.5L365.26,353.79L364.58,355L365.85,357.87L369.15,358.24L369.72,359.14L368.08,360.26L367.26,361.05L367.24,361.95L367.63,363.83L367.47,365.28L367.8,368.17L368.88,368.26L369.73,367.78L370.09,369.7ZM356.23,344.57L354.68,344.87L354.25,345.41L354.2,346.65L355.05,348.13L356.37,349L358.44,349.12L358.84,350.12L359.61,349.53L360.45,346.92L360.45,345.71L359.61,345.63L359.28,344.69L357.22,344.8Z" class="land" id="NE-6" title="Tillabéri"/>
    <path d="M533.55,350.05L523.5,352.22L522.63,352.58L518.71,354.79L517.92,356.28L516.42,357.27L512.73,361.66L511.69,362.11L507.29,361.59L505.05,361.93L498.3,361.13L492.85,359.51L492.09,359.07L491.14,357.65L489.83,356.52L488.78,356.16L487.03,356.29L483.9,353.41L485.26,350.94L485.38,350.22L484.89,347.23L485.38,344.95L483.5,343.83L483.25,342.75L483.71,341.94L489.61,338.94L489.99,338.1L489.53,334.27L486.66,332.16L486.18,330.66L484.69,329.71L483.63,328.72L482.43,328.31L480.31,327.12L479.12,325.52L477.72,325.38L477.05,325.64L474.81,327.57L472.92,326.79L472.65,323.56L472.11,322.85L470.34,321.86L469.7,321.28L469.25,319.93L468.37,318.65L467.71,315.14L466.64,313.02L466.45,309.61L466.17,308.88L464.83,308.1L466.51,303.36L467.32,302.46L475.61,303.73L479.14,303.69L480.77,302.82L481.57,302.71L485.34,302.8L486.57,302.68L490.36,301.33L498.83,296.59L506.11,293.81L539.9,271.66L545.99,269.83L554.44,263.98L561.46,261.41L561.51,323.64L559.76,324.59L559.52,325.63L559.8,326.47L561,327.45L559.04,328.61L556.87,328.7L551.67,332.08L547.9,333.27L546.39,332.73L545.41,332.95L537.02,340.74L536.63,342.9L533.04,346.64L532.82,347.5Z" class="land" id="NE-7" title="Zinder"/>
    <path d="M443.32,343.7L443.43,341.44L444.61,340.09L444.34,338.26L446.6,336.36L448.14,335.75L448.42,333.09L448.02,330.54L447.37,328.98L447.2,327.78L448.43,317.72L448.46,316.9L451.38,306.09L459.59,305.77L460.69,305.86L464.83,308.1L466.17,308.88L466.45,309.61L466.64,313.02L467.71,315.14L468.37,318.65L469.25,319.93L469.7,321.28L470.34,321.86L472.11,322.85L472.65,323.56L472.92,326.79L474.81,327.57L477.05,325.64L477.72,325.38L479.12,325.52L480.31,327.12L482.43,328.31L483.63,328.72L484.69,329.71L486.18,330.66L486.66,332.16L489.53,334.27L489.99,338.1L489.61,338.94L483.71,341.94L483.25,342.75L483.5,343.83L485.38,344.95L484.89,347.23L485.38,350.22L485.26,350.94L483.9,353.41L482.97,353.09L480.97,351.53L480.4,351.31L475.16,350.56L473.75,350.95L466.23,355.51L464.84,355.71L462.22,355.4L459.99,357.76L459.05,358.06L457.51,358.07L456.19,357.75L454.77,356.55L453.55,355.13L451.35,351.07L447.98,347.35L445.07,344.59Z" class="land" id="NE-4" title="Maradi"/>
    <path d="M533.55,350.05L532.82,347.5L533.04,346.64L536.63,342.9L537.02,340.74L545.41,332.95L546.39,332.73L547.9,333.27L551.67,332.08L556.87,328.7L559.04,328.61L561,327.45L559.8,326.47L559.52,325.63L559.76,324.59L561.51,323.64L561.46,261.41L566.41,258.01L582.19,250.58L635.28,250.56L634.6,258.68L633.3,274.05L632.9,274.92L624.08,284.5L618.28,290.78L610.5,299.19L605.59,306.15L599.43,314.85L597.91,318.13L597.78,319L598.15,320.34L597.99,321.28L596.87,321.58L595.59,322.77L595.97,324.13L595.79,324.92L595.1,325.51L593.44,325.73L592.16,326.31L591.48,327.26L591.48,328.52L592.16,331.09L594.75,342.93L589.63,342.71L587.69,344.34L586.91,346.25L585.29,346.79L583.32,346.24L580.93,347.38L579.79,347.36L579.51,348.1L578.42,349.24L577.59,349.68L576.49,351.05L575.64,351.76L574.47,351.77L573.11,352.74L572.64,353.79L572.56,354.8L571.85,355.01L571.29,356.53L570.08,356.25L567.24,356.1L565.68,355.23L563.92,355.71L562.7,355.41L558.47,352.68L556.18,351.75L549.93,350.15L539.86,350.21L536.11,349.77Z" class="land" id="NE-2" title="Diffa"/>
    <path d="M372.2,370.63L370.09,369.7L369.73,367.78L368.88,368.26L367.8,368.17L367.47,365.28L367.63,363.83L367.24,361.95L367.26,361.05L368.08,360.26L369.72,359.14L369.15,358.24L365.85,357.87L364.58,355L365.26,353.79L367.6,353.5L369.41,352.09L370.81,351.98L371.69,352.29L372.34,351.48L372.87,349.63L372.64,348.53L373.08,346.93L374.4,346.57L375.17,345.07L377.57,344.8L378.17,342.39L379.01,340.93L381.75,341.96L382.31,342.02L385.76,340.52L386.42,340.13L390.25,336.55L390.79,335.61L391.53,332.36L392.34,330.98L395.17,328.52L396.99,328.17L399.2,326.93L399.59,326.08L400.96,325.13L401.34,322.59L403.19,324.03L404.76,327.25L404.96,328.11L405.79,335.3L407.82,338.81L409.03,342.52L406.57,343.13L404.48,344.27L401.23,347.4L400.03,347.8L398.69,347.85L398.65,352.93L397.93,357.97L394.63,363.19L393.29,364.47L388.77,367.89L388.68,368.11L388.89,373.38L388.33,376.16L388.32,377.08L388.93,379.35L387.9,381.07L388.02,382.27L389.21,384.15L388.81,384.86L387.75,385.5L386.86,383.94L385.83,382.67L383.05,381.24L382.48,381.55L381.47,380.79L380.84,379.61L380.69,378.68L376.73,374.97L375.61,373.23L374.11,372.71L373.61,371.75Z" class="land" id="NE-3" title="Dosso"/>
    <path d="M409.03,342.52L407.82,338.81L405.79,335.3L404.96,328.11L404.76,327.25L403.19,324.03L401.34,322.59L398.41,317.68L398.18,316.33L398.27,313.35L393.65,300.12L393.48,299.81L393.91,298.35L394.1,296.26L394.54,295.37L395.74,294.16L395.5,291.96L397.35,287.39L398.54,286.1L399.44,285.63L399.9,284.85L399.86,276.36L400.27,275.51L400.16,273.39L400.96,272.33L400.93,260.67L400.89,249.93L400.85,236.51L411.99,236.64L413.95,237.23L411.24,242.91L411.05,243.99L411.33,245.17L411.11,245.99L411.33,248.59L410.55,250.11L410.94,251.34L411.62,251.58L413.82,251.75L414.23,252.15L414.69,254.34L415.11,254.95L418.71,257.96L421.44,261.72L422.32,262.5L433.38,269.48L438.02,273.03L439.94,275.24L444.46,286.19L445.11,287.32L446.95,288.64L450.15,289.48L450.6,290.32L450.15,293.79L451.38,306.09L448.46,316.9L448.43,317.72L447.2,327.78L447.37,328.98L448.02,330.54L448.42,333.09L448.14,335.75L446.6,336.36L444.34,338.26L444.61,340.09L443.43,341.44L443.32,343.7L442.2,343.46L440.39,344.28L439.94,343.99L428.23,339.33L427.56,339.18L424.5,339.71L423.93,340L423.35,341.1L422.42,341.9L421.48,342.14L418.51,342.01L416.42,342.38L415.22,342.31L413.81,341.44Z" class="land" id="NE-5" title="Tahoua"/>
  </g>
</svg>