<?xml version="1.0" encoding="UTF-8"?>
<svg xmlns="http://www.w3.org/2000/svg" width="342.27" height="399.63" viewBox="308.87 57.19 342.27 399.63" style="background-color:#000000">
  <!-- Created using SVG Map Generator: dojo.amcharts.com/svg-map-generator -->
  <style>
    .land { fill: #ffffff; stroke: #000000; stroke-width: 0.65; }
  </style>
  <g id="polygons">
    <path d="M443.78,338.02L444.14,340.82L445.83,342.04L444.69,343.88L447.24,345.15L444.69,347.05L445.39,348.04L448.1,348.73L449.94,347.93L452.44,349.22L453.07,354.3L454.35,356.84L452.61,358.22L450.52,361.53L447.86,362.81L446.07,364.74L445.28,367.71L443.44,372.24L437.45,379.31L435.31,380.91L435.26,381.88L432.55,386.61L430.51,389.41L429.07,389.76L428.88,391.79L427.02,393.03L426.11,395.69L423.74,395.34L421.82,396.96L420.21,396.55L419.33,398.31L420.55,400.35L419.26,401.33L419.34,403.04L417.23,405.08L416.89,408.55L413.56,409.98L410.51,409.06L409.52,406.19L410,405.16L407.76,404.01L406.02,404.44L403.72,403.21L401.64,404.32L399.88,403.93L394.65,404.14L390.02,400.02L388.76,399.63L388.95,397.73L388.07,396.76L387.46,392.75L385.25,390.67L384.99,388.67L383.51,387.47L380.93,387.77L378.08,386.21L377.06,384.71L376.36,380.76L377.86,380.61L379.2,376.94L381.52,375.86L383.77,376.1L386.19,375.46L387.9,375.89L390.2,375.49L391.61,373.84L394.01,373.32L398.27,369.72L398.4,365.99L399.64,361.81L396.77,358.98L394.45,358.58L393.55,355.84L397.09,353.68L395.73,349.76L395.35,343.74L395.77,339.64L395.43,338.5L395.01,331.71L395.51,332.26L401.87,334.19L403.13,332.51L405.53,334.31L407.93,334.61L410.53,336.19L414.13,335.93L416.35,336.66L417.84,334.53L424.85,326.01L427.43,322.63L430.37,324.12L433.37,328.96L433.65,330.94L434.99,333.39L433.1,335.47L432.99,336.89L435.27,338.19L438.67,337.35L441.03,337.76L442.51,338.94Z" class="land" id="CG-2" title="Lékoumou"/>
    <path d="M341.89,444.52L344.47,444.54L344.47,432.78L339.22,432.78L334.4,427.95L331.16,425.46L326.58,421.36L321.32,417.2L320.32,414.07L317.01,410.6L311.52,405.65L313.08,403.77L313.23,400.32L314.7,399.69L314.56,395.61L320.12,390.11L323.82,389.66L326.21,385.92L331.05,385.6L336.28,393.46L338.93,394.32L342.42,396.13L344.82,396.48L346.73,398.41L350.96,401.34L353.02,402.23L356.18,402.63L358.04,403.83L358.04,405.22L365.81,407.11L366.19,408.7L368.66,409.4L373.65,415.32L373.14,418.72L375.3,422.2L379.58,422.43L381.29,422.94L384.52,425.71L382.41,426.96L384.41,428.82L383.97,430.45L380.94,429.97L377.66,433.42L376.08,433.11L369.41,434.49L364.73,441.78L362.16,444.34L360.01,444.51L358.2,443.66L356.37,448.16L349.01,454.16L347.08,451.26L343.95,447.54Z" class="land" id="CG-5" title="Kouilou"/>
    <path d="M599.04,261.22L596.01,260.86L585.83,260.58L584.51,258.4L583.31,258.51L583.76,254.96L582.84,252.48L584.06,250.79L583.66,248.25L582.53,247.22L580.36,247.13L581.68,244.56L580.16,241.82L580.99,239.91L581.09,235.84L582.28,234.87L582.35,233.01L581.45,230.53L581.38,226.4L580.84,223.91L582.73,222.74L581.82,219.23L583.53,217.93L582.3,215.71L578.48,210.11L576.31,209.19L569.59,200.83L560.82,188.96L560.1,186.77L560.18,182.24L561.49,180.55L563.57,179.51L564.31,177.82L563.88,176.03L565.17,173.95L564.05,168.65L562.59,167.29L561.08,163L561.49,161.35L560.3,160.58L562.04,157.8L560.68,152.09L563.41,145.2L562.12,141.36L562.42,140.26L561.52,134.41L561.91,132.2L563.23,131.61L563.26,129.88L562.25,128.54L562.09,125.47L562.48,119.66L559.53,114.66L556.83,113.45L554.15,113.98L554.13,111.9L552.42,109.86L550.78,109.07L551.12,106.43L549.39,104.43L552.43,98.72L552.64,97L551.08,95.7L551.22,91.41L553.53,88.64L552.08,86.16L551.78,84.38L554.16,80.16L553.98,77.79L555,76.12L555.87,70.04L559.28,67.13L563,66.43L567.79,68.5L568.38,66.42L572.99,67.18L574.27,66.91L575.67,68.41L576.69,66.84L581.16,65.62L582.05,66.05L585.27,65.25L585.46,64.01L587.55,63.13L590.43,64.18L591.85,61.71L595.46,59.84L598.6,60.62L601.03,62.53L605.87,62.94L607.68,62.55L611.46,63.29L612.82,67.52L615.54,65.69L617.8,66.28L619.18,65.45L625.19,66.24L627.7,69.86L630.45,68.38L631.11,65.03L633.1,65.08L634.78,64.15L637.69,65.49L638.11,64.09L641.32,62.16L643.72,64.67L646.01,70.05L647.82,70.32L647.7,74.16L648.48,76.67L647.8,79.84L648.12,82.17L645.99,86.8L643.21,88.43L642.49,90.97L640.6,92.98L639,96.91L639.27,99.62L638.53,102.07L637.26,103.65L634.06,110.37L630.08,113.86L629.41,116.87L627.53,121.18L623.96,124.72L623.44,126L623.18,132.71L622.21,135.79L623.35,138.46L621.88,143.56L621.81,145.6L622.93,150.11L622.24,158.35L619.76,162.5L618.11,166.61L616.55,174.45L613.9,178.07L612.42,181.31L612.18,185.51L613.91,189.17L614.45,192.01L614.28,196.08L613.51,197.22L614.04,201.16L616.66,203.88L617.37,205.95L617.1,210.5L615.72,212.73L612.63,215.25L611.11,217.25L609.56,220.51L608.26,226.16L608.87,226.97L606.75,231.27L606.17,234.04L606.34,237.47L607.33,241.34L607.53,244.16L606.49,249.66L605.65,252.57L602.85,256.57Z" class="land" id="CG-7" title="Likouala"/>
    <path d="M496.91,208.53L500.38,210.02L501.47,209.26L507.92,211.07L509.7,209.43L510.43,207.68L513.75,206.41L517.03,205.89L517.78,206.99L519.53,206.32L523.48,206.97L526.76,208.95L528.22,211.43L531.46,212.33L533.72,215.35L533.66,218.16L534.53,219.12L534.76,221.5L537.31,222.34L539.2,221.53L541.84,223.84L543.74,223.77L544.58,225.25L562.25,216.32L576.31,209.19L578.48,210.11L582.3,215.71L583.53,217.93L581.82,219.23L582.73,222.74L580.84,223.91L581.38,226.4L581.45,230.53L582.35,233.01L582.28,234.87L581.09,235.84L580.99,239.91L580.16,241.82L581.68,244.56L580.36,247.13L582.53,247.22L583.66,248.25L584.06,250.79L582.84,252.48L583.76,254.96L583.31,258.51L584.51,258.4L585.83,260.58L596.01,260.86L599.04,261.22L596.29,264.82L589.46,271.65L584.79,274.2L582.31,274.25L579.95,274.97L575.93,277.63L573.03,278.91L569.41,281.71L567.12,283.97L564.86,287L562.41,291.61L559.07,298.7L555.82,298.73L556.26,296.35L552.23,295.95L551.51,296.79L548.75,296.79L545.5,294.22L544.61,294.23L542.78,288.71L540.05,286.23L538.59,286.11L537.38,284.18L532.61,281.61L529.84,280.73L527.52,280.79L525.05,277.94L519.4,274.83L517.67,274.88L516.67,273.4L516.39,270.25L511.54,269.22L509.26,269.43L508.39,270.34L506,270.08L503.07,271.1L502.08,273.53L500.77,274.93L499.13,275.06L498.46,276.57L495.47,277.89L493.94,279.13L493.2,280.9L491.26,282.65L489.7,287.66L488.67,289.09L488.18,292.28L484.03,297.42L482.42,298.55L477.79,298.89L472.94,301.77L472,304.58L469.56,307.08L467.28,311.27L464.96,314.4L461.89,316.13L460.8,317.9L458.42,318.39L456.27,318.05L455.54,316.38L455.74,312.31L456.83,311.42L457.74,304.95L459.12,303.32L455.96,300.5L456.1,299.02L460.13,297L460.51,294.98L459.79,292.81L461.12,290.43L459.39,289.04L459.2,287.46L460.67,283.81L465.35,283.77L473.14,279.87L480.37,275.14L485.03,275.64L486.31,273.41L490.05,269.8L494.98,263.6L488.99,252.66L490.34,249.89L491.92,244.01L492.06,236.49L488.02,234.13L486.63,231.76L485.1,226.34L485.38,225.34L487.62,223.56L492.91,221.61L496.1,221.33L499.03,222.16L501.95,219.66L499.03,215.63L493.46,212.71L492.75,211.92L495.59,210.1Z" class="land" id="CG-8" title="Cuvette"/>
    <path d="M395.01,331.71L395.43,338.5L395.77,339.64L395.35,343.74L395.73,349.76L397.09,353.68L393.55,355.84L394.45,358.58L396.77,358.98L399.64,361.81L398.4,365.99L398.27,369.72L394.01,373.32L391.61,373.84L390.2,375.49L387.9,375.89L386.19,375.46L383.77,376.1L381.52,375.86L379.2,376.94L377.86,380.61L376.36,380.76L377.06,384.71L378.08,386.21L376.35,388.96L376.85,393.98L377.93,396.74L375.52,399.14L378.63,401.2L381.21,405.36L383.63,408.15L387.28,411.29L391.78,418.86L393.4,422.57L395.14,422.88L395.89,424.5L401.33,424.91L405.75,426.17L408.33,430.26L408.5,431.28L410.9,434.04L411.35,436.13L412.78,436.38L416.14,438.77L419.18,440.44L419.76,444.65L418.5,444.34L416.06,445.62L415.68,446.9L412.67,447.1L411.13,445.86L410.73,443.99L407.79,443.11L405.15,440.93L404.17,438.28L403.12,437.79L399.66,434.23L398.28,434.71L398.29,436.77L394.27,434.32L393.04,432.02L389.43,428.67L389.29,426.04L385.23,426.5L384.52,425.71L381.29,422.94L379.58,422.43L375.3,422.2L373.14,418.72L373.65,415.32L368.66,409.4L366.19,408.7L365.81,407.11L358.04,405.22L358.04,403.83L356.18,402.63L353.02,402.23L350.96,401.34L346.73,398.41L344.82,396.48L342.42,396.13L343.34,396.11L346.57,392.82L345.78,391.61L343.03,389.68L342.19,386.76L343.55,384.35L345.95,378.82L347.93,377.67L347.93,376.1L343.86,375.26L340.94,372.65L335.93,370.14L336.97,367.84L339.16,367.95L341.77,364.5L336.35,358.44L334.39,354.88L332.43,353.8L331.34,355.93L329.67,355.93L329.36,353.22L332.39,348.71L333.31,348.3L333.63,344.52L332.7,341.98L331.51,340.49L331.51,336.7L330.84,331.87L335.61,333.56L337.9,336.54L341.15,333.82L345.86,333.37L348.41,332.54L351.16,334.62L351.92,336.15L371.24,336.26L371.18,334.34L372.31,331.59L370.98,329.29L372.56,326.85L371.6,324.36L372.01,321.11L369.99,318.05L369.64,314.65L368.59,311.54L372.04,312.75L375.92,309.63L380.37,309.63L381.63,311.1L386.52,314.47L387.77,317.81L388.48,321.69L390.53,324.2L393.6,326.01L395.23,329.24Z" class="land" id="CG-9" title="Niari"/>
    <path d="M432.55,386.61L437.2,388.48L440.65,388.11L443.1,384.96L446.06,383.63L449.54,384.63L451.68,387.52L452.06,391.16L450.29,392.75L448.15,392.94L449.65,396.26L450.82,396.96L451.89,399.28L451.75,400.52L454.23,402.12L455.63,405.46L453.16,408.01L449.9,407.11L447.87,409.45L445.93,410.61L445.38,411.93L446.18,414.16L445.32,415.67L443.05,415.85L440.54,418.69L437.02,420.36L436.37,425.2L434.78,428.26L434.28,430.52L432.13,427.8L430.61,426.64L428.91,426.76L426.81,427.92L426.51,429.59L427.5,432.76L425.91,435.52L425.87,438.09L424.75,439.59L424.79,442.29L422.11,441.11L420.47,444.34L419.76,444.65L419.18,440.44L416.14,438.77L412.78,436.38L411.35,436.13L410.9,434.04L408.5,431.28L408.33,430.26L405.75,426.17L401.33,424.91L395.89,424.5L395.14,422.88L393.4,422.57L391.78,418.86L387.28,411.29L383.63,408.15L381.21,405.36L378.63,401.2L375.52,399.14L377.93,396.74L376.85,393.98L376.35,388.96L378.08,386.21L380.93,387.77L383.51,387.47L384.99,388.67L385.25,390.67L387.46,392.75L388.07,396.76L388.95,397.73L388.76,399.63L390.02,400.02L394.65,404.14L399.88,403.93L401.64,404.32L403.72,403.21L406.02,404.44L407.76,404.01L410,405.16L409.52,406.19L410.51,409.06L413.56,409.98L416.89,408.55L417.23,405.08L419.34,403.04L419.26,401.33L420.55,400.35L419.33,398.31L420.21,396.55L421.82,396.96L423.74,395.34L426.11,395.69L427.02,393.03L428.88,391.79L429.07,389.76L430.51,389.41Z" class="land" id="CG-11" title="Bouenza"/>
    <path d="M500.08,417.41L498.45,415.77L493.88,415.88L492.8,417.63L493.23,421.55L495.88,422.32L491.71,427.55L489.21,429.26L485.31,432.68L483.09,435.42L479.92,438.39L476.82,444.83L472.11,447.15L469.91,449.03L467.91,449.3L465.47,448.4L463.91,446.68L460.86,445.9L457.35,447.97L456.86,444.01L457.24,440.28L458.12,437.16L456.15,436.38L454.95,432.12L457.88,430.78L459.95,427.7L456.23,422.96L457.48,420.6L455.3,420.62L454.93,421.74L451.86,422.23L450.34,423.72L446.82,425.6L442.55,425.88L439.56,427.16L437.37,430.66L434.28,430.52L434.78,428.26L436.37,425.2L437.02,420.36L440.54,418.69L443.05,415.85L445.32,415.67L446.18,414.16L445.38,411.93L445.93,410.61L447.87,409.45L449.9,407.11L453.16,408.01L455.63,405.46L454.23,402.12L451.75,400.52L451.89,399.28L450.82,396.96L449.65,396.26L448.15,392.94L450.29,392.75L452.06,391.16L451.68,387.52L449.54,384.63L446.06,383.63L443.1,384.96L440.65,388.11L437.2,388.48L432.55,386.61L435.26,381.88L435.31,380.91L437.45,379.31L443.44,372.24L445.28,367.71L446.07,364.74L447.86,362.81L450.52,361.53L452.56,363.42L454.73,363.26L455.68,364.18L458.35,363.85L459.85,365.44L462.29,366.02L464.55,362.67L467.86,360.08L471.8,355.63L474.42,354.25L474.81,351.92L477.84,349.66L479.1,349.56L480.81,353.1L481.2,357.79L483.11,358.03L485.56,357.1L488.86,357.46L490.23,358.87L490.99,361.53L494.45,363.31L497.06,363.57L499.36,363.16L501.2,363.84L505.87,362.34L510.29,359.02L513.9,357.76L516.54,355.37L520.71,354.44L523.47,355.24L526.65,356.99L528.86,359.75L531.65,359.22L537.12,359.72L537.78,363.07L537.01,366.95L537.66,371.33L537.27,373.66L539,375.73L537.41,380.21L534.94,383.88L534.06,386.57L531.59,389.85L529.02,395.71L525.83,401.78L525.36,404.24L522.5,406.31L516.07,407.26L509.19,409.65Z" class="land" id="CG-12" title="Pool"/>
    <path d="M549.39,104.43L551.12,106.43L550.78,109.07L552.42,109.86L554.13,111.9L554.15,113.98L556.83,113.45L559.53,114.66L562.48,119.66L562.09,125.47L562.25,128.54L563.26,129.88L563.23,131.61L561.91,132.2L561.52,134.41L562.42,140.26L562.12,141.36L563.41,145.2L560.68,152.09L562.04,157.8L560.3,160.58L561.49,161.35L561.08,163L562.59,167.29L564.05,168.65L565.17,173.95L563.88,176.03L564.31,177.82L563.57,179.51L561.49,180.55L560.18,182.24L560.1,186.77L560.82,188.96L569.59,200.83L576.31,209.19L562.25,216.32L544.58,225.25L543.74,223.77L541.84,223.84L539.2,221.53L537.31,222.34L534.76,221.5L534.53,219.12L533.66,218.16L533.72,215.35L531.46,212.33L528.22,211.43L526.76,208.95L523.48,206.97L519.53,206.32L517.78,206.99L517.03,205.89L513.75,206.41L510.43,207.68L509.7,209.43L507.92,211.07L501.47,209.26L500.38,210.02L496.91,208.53L492.92,205.79L491.56,205.58L490.47,204.03L488.25,203.57L487.74,200.54L488.53,199.16L487.71,196L488.14,190L487,186.84L489.17,184.67L490.65,184.32L489.89,181.54L487.26,179.76L482.35,179.5L479.5,177.47L476.75,176.44L475.67,174.65L473.27,173.6L471.2,174L464.6,171.78L462.67,170.29L461.93,164.91L461.47,164.21L455.55,164.85L452.68,164.7L449.4,165.47L447.21,164.02L441.76,164.69L438.74,162.92L435.44,163.05L433.89,162.35L430.37,162.53L428.05,165.97L426.65,165.18L421.1,167L419.65,168.77L415.97,169.72L413.36,168.33L410.58,168.74L407.79,171.71L400.71,171.3L401.92,169.77L405.27,167.61L405.26,164.32L403.66,161.84L403.62,160.48L401.05,158.16L400.18,156.6L399.85,150.21L401.89,147.71L402.75,145.47L402.32,143.35L400.8,141.56L403.43,139.17L403.12,137.57L406.94,133.98L407.15,129.05L411.92,129.15L422.17,128.97L449.85,129L452.74,128.15L456.66,128.51L458.33,129.71L463.39,127.86L466.38,128.14L468.35,130.99L471.67,131.23L475.32,134.13L476.7,133.14L480.03,134.05L479.26,135.92L480.39,136.85L482.69,136.35L483.29,135.25L486.2,137.64L488.73,137.73L491.19,134.94L495.23,135.59L497.61,138.21L497.71,139.71L499.42,140.76L503.4,138.7L506.13,137.85L507.57,138.84L514.84,139.77L518.59,141.09L520.28,143.4L523.25,144.89L523.85,146.7L527.15,147.48L530.17,147.33L529.79,149.45L530.43,152.21L531.89,152.4L532.75,150.95L535.87,150.08L535.6,147.49L534.06,142.74L533.08,141.71L531.48,136.69L532.77,134.65L532.58,130.42L532.86,128.07L537.12,127.79L538.39,125.61Z" class="land" id="CG-13" title="Sangha"/>
    <path d="M455.74,312.31L455.54,316.38L456.27,318.05L458.42,318.39L460.8,317.9L461.89,316.13L464.96,314.4L467.28,311.27L469.56,307.08L472,304.58L472.94,301.77L477.79,298.89L482.42,298.55L484.03,297.42L488.18,292.28L488.67,289.09L489.7,287.66L491.26,282.65L493.2,280.9L493.94,279.13L495.47,277.89L498.46,276.57L499.13,275.06L500.77,274.93L502.08,273.53L503.07,271.1L506,270.08L508.39,270.34L509.26,269.43L511.54,269.22L516.39,270.25L516.67,273.4L517.67,274.88L519.4,274.83L525.05,277.94L527.52,280.79L529.84,280.73L532.61,281.61L537.38,284.18L538.59,286.11L540.05,286.23L542.78,288.71L544.61,294.23L545.5,294.22L548.75,296.79L551.51,296.79L552.23,295.95L556.26,296.35L555.82,298.73L559.07,298.7L555.54,305.7L553.24,309.47L547.26,316.84L543.56,320.31L539.89,322.73L537.61,327.35L537.28,334.48L538.41,340.52L539.57,344.42L539.47,347.39L538.29,349.99L538.19,352.99L537.1,356.7L537.12,359.72L531.65,359.22L528.86,359.75L526.65,356.99L523.47,355.24L520.71,354.44L516.54,355.37L513.9,357.76L510.29,359.02L505.87,362.34L501.2,363.84L499.36,363.16L497.06,363.57L494.45,363.31L490.99,361.53L490.23,358.87L488.86,357.46L485.56,357.1L483.11,358.03L481.2,357.79L480.81,353.1L479.1,349.56L477.84,349.66L474.81,351.92L474.42,354.25L471.8,355.63L467.86,360.08L464.55,362.67L462.29,366.02L459.85,365.44L458.35,363.85L455.68,364.18L454.73,363.26L452.56,363.42L450.52,361.53L452.61,358.22L454.35,356.84L453.07,354.3L452.44,349.22L449.94,347.93L448.1,348.73L445.39,348.04L444.69,347.05L447.24,345.15L444.69,343.88L445.83,342.04L444.14,340.82L443.78,338.02L446.25,333.45L448.4,331.37L448.55,330.06L445.82,325.97L448.28,324.31L450.18,321.96L449.91,318.7L450.37,316.44L452.9,314.07Z" class="land" id="CG-14" title="Plateaux"/>
    <path d="M496.91,208.53L495.59,210.1L492.75,211.92L493.46,212.71L499.03,215.63L501.95,219.66L499.03,222.16L496.1,221.33L492.91,221.61L487.62,223.56L485.38,225.34L485.1,226.34L486.63,231.76L488.02,234.13L492.06,236.49L491.92,244.01L490.34,249.89L488.99,252.66L494.98,263.6L490.05,269.8L486.31,273.41L485.03,275.64L480.37,275.14L473.14,279.87L465.35,283.77L460.67,283.81L457.84,272.11L457.27,267.97L458.65,265.42L460,260.4L461.26,257.68L461,254.75L459.66,251.86L456.84,248.49L452.95,247.62L450.17,246.5L447.42,246.89L446.57,246.06L446.54,243.36L445.54,241.07L439.61,237.6L437,237.04L436.04,238.25L434.47,237.1L433.7,234.12L435.46,230.74L435.77,226.97L436.89,225.11L435.33,224.7L435.51,221.52L433.74,217.83L434.16,216.24L436.15,214.89L436.41,212.3L438.29,210.01L441.08,208.61L442.96,205.8L441.96,204.7L444.16,201.79L449.36,202.77L451.55,201.9L452.07,200.8L456.11,198.22L454.98,196.64L455.36,195.47L457.5,193.5L458.2,192L459.7,191.37L460.81,189.75L460.28,188.05L461.23,185.09L458.85,183.65L456.8,179.28L456.75,177.82L454.4,175.3L454.27,173.87L452.07,170.99L452.54,168.34L451.35,166.48L449.4,165.47L452.68,164.7L455.55,164.85L461.47,164.21L461.93,164.91L462.67,170.29L464.6,171.78L471.2,174L473.27,173.6L475.67,174.65L476.75,176.44L479.5,177.47L482.35,179.5L487.26,179.76L489.89,181.54L490.65,184.32L489.17,184.67L487,186.84L488.14,190L487.71,196L488.53,199.16L487.74,200.54L488.25,203.57L490.47,204.03L491.56,205.58L492.92,205.79Z" class="land" id="CG-15" title="Cuvette-Ouest"/>
    <path d="M341.89,444.52L341.75,441.26L339.16,438.79L340.72,435.22L339.22,432.78L344.47,432.78L344.47,444.54Z" class="land" id="CG-16" title="Pointe-Noire"/>
    <path d="M500.08,417.41L495.88,422.32L493.23,421.55L492.8,417.63L493.88,415.88L498.45,415.77Z" class="land" id="CG-BZV" title="Brazzaville"/>
  </g>
</svg>