<?xml version="1.0" encoding="UTF-8"?>
<svg xmlns="http://www.w3.org/2000/svg" width="299.89" height="262.18" viewBox="330.05 125.91 299.89 262.18" style="background-color:#000000">
  <!-- Created using SVG Map Generator: dojo.amcharts.com/svg-map-generator -->
  <style>
    .land { fill: #ffffff; stroke: #000000; stroke-width: 0.65; }
  </style>
  <g id="polygons">
    <path d="M500.98,275.75L496.42,270.91L499.83,267.69L497.51,263.29L498.7,259.23L495.65,252.11L495.22,247.6L498.15,242.38L503.27,244.37L507.56,240.36L516.24,237.6L517.97,233.23L530.83,241.55L534.27,242.5L537.66,250.75L537.22,257.2L532.37,259.94L530.87,272.1L528.74,276.13L522.41,269.4L516.02,273.17L509.08,274.55L505.74,273.01Z" class="land" id="RW-01" title="Umujyi wa Kigali"/>
    <path d="M507.98,176.22L509.82,177.3L518.62,192.6L522.13,195.17L522.98,202.99L525.53,208.54L535.8,221.65L534.75,224.94L537.95,239.64L534.27,242.5L530.83,241.55L517.97,233.23L516.24,237.6L507.56,240.36L503.27,244.37L498.15,242.38L495.22,247.6L495.65,252.11L485.98,245.07L476.01,245.04L469.28,241.93L461.4,230.08L452.83,226.3L448.7,226.5L445.33,223.13L444.76,205.41L438.97,205.37L432.58,202.33L424.55,200.79L417.83,192.25L425.61,182.64L431.4,178.46L437.11,176.44L448.7,175.78L456.36,171.22L459.89,170.6L465.71,173.23L469.1,168.09L474.6,167.88L478.68,173.81L479.67,182.83L483.57,188.23L492.65,187.53L502.5,182.06Z" class="land" id="RW-03" title="Amajyaruguru"/>
    <path d="M398.14,365.56L397.72,361.2L393.29,358.36L384.1,356.87L372.04,352.03L361.23,352.23L357.94,355.47L355.44,370L350.24,366.05L343.97,364.83L337.42,360.12L338.41,349.02L333.02,342.46L335.52,336.43L332.7,326.04L335.84,320.47L342.77,318.24L347.35,314.65L350.79,307.03L364.15,303.62L369.15,299.67L372.78,294L375.07,287.13L375.61,275.84L371.75,253.03L372.15,242.51L374.88,236.12L388.83,213.13L395.85,207.32L401.29,197.21L405.26,194.08L416.35,193.63L417.83,192.25L424.55,200.79L432.58,202.33L438.97,205.37L444.76,205.41L445.33,223.13L448.7,226.5L450.53,236.02L449.61,243.5L450.7,250.92L450.29,259.86L443.62,261.5L445.59,271.83L445.07,275.66L440.29,285.38L441.16,291.76L432.03,295.77L420.94,304.42L412.89,304.91L408.33,307.77L402.35,308.75L400.49,312.47L402.44,316.89L399.65,322.48L399.91,326.81L393.87,330.08L392.09,334.82L398.49,337.51L403.3,346.92L405.47,354.29L402.93,363.2Z" class="land" id="RW-04" title="Iburengerazuba"/>
    <path d="M492.12,312.79L488.48,311.32L487.13,320.93L488.17,332.09L485.02,343.07L484.36,359.6L482.19,365.96L478.49,371.6L472.78,376.23L461.33,375.72L459.14,381.47L454.48,382.74L443.12,379.74L431.87,382.78L426.4,385.44L414.97,382.03L402.53,385.37L399.39,376.1L401.89,372.11L398.14,365.56L402.93,363.2L405.47,354.29L403.3,346.92L398.49,337.51L392.09,334.82L393.87,330.08L399.91,326.81L399.65,322.48L402.44,316.89L400.49,312.47L402.35,308.75L408.33,307.77L412.89,304.91L420.94,304.42L432.03,295.77L441.16,291.76L440.29,285.38L445.07,275.66L445.59,271.83L443.62,261.5L450.29,259.86L450.7,250.92L449.61,243.5L450.53,236.02L448.7,226.5L452.83,226.3L461.4,230.08L469.28,241.93L476.01,245.04L485.98,245.07L495.65,252.11L498.7,259.23L497.51,263.29L499.83,267.69L496.42,270.91L500.98,275.75L500.79,281.48L496.12,288.62L495.55,300.57Z" class="land" id="RW-05" title="Amajyepfo"/>
    <path d="M492.12,312.79L495.55,300.57L496.12,288.62L500.79,281.48L500.98,275.75L505.74,273.01L509.08,274.55L516.02,273.17L522.41,269.4L528.74,276.13L530.87,272.1L532.37,259.94L537.22,257.2L537.66,250.75L534.27,242.5L537.95,239.64L534.75,224.94L535.8,221.65L525.53,208.54L522.98,202.99L522.13,195.17L518.62,192.6L509.82,177.3L507.98,176.22L519.77,170.15L521.39,162.31L529.21,157.72L535.67,151.57L539.72,143.47L544.48,139.93L546.16,131.72L549.62,128.86L556.94,130.26L563.09,128.56L564.65,135.73L572.62,144.78L573.18,148.54L579.21,160.93L579.02,166.27L590.21,173.42L605.47,179.1L604.81,189.22L610.53,197.37L613.33,205.86L619.05,206.33L619.99,213.14L618.06,226.16L620.05,230.22L618.38,234.22L620.05,241.57L616.96,248.45L618.89,259.55L616.99,267.99L622.32,268.72L627.3,277.26L622.3,293.43L621.04,299.83L621.65,309.78L619.54,315.45L608.57,320.65L599.81,316.62L596.37,316.38L591.01,322.96L581.72,321.84L574.14,323.31L569.32,321.04L561.42,314.56L559.84,311.38L553.37,309.31L546.48,314.72L538.89,317.23L528.52,314.56L527.62,317.93L518.59,327.87L512.03,326.68L502.1,317.25L494.93,315.21Z" class="land" id="RW-02" title="Iburasirazuba"/>
  </g>
</svg>