<?xml version="1.0" encoding="UTF-8"?>
<svg xmlns="http://www.w3.org/2000/svg" width="598.79" height="519.3" viewBox="180.6 -2.65 598.79 519.3" style="background-color:#000000">
  <!-- Created using SVG Map Generator: dojo.amcharts.com/svg-map-generator -->
  <style>
    .land { fill: #ffffff; stroke: #000000; stroke-width: 0.65; }
  </style>
  <g id="polygons">
    <path d="M183.29,282.58L186.23,285.07L188.78,286.21L191.58,285.02L194.3,281.83L197.63,282.93L204.43,289.11L208.22,291.22L209.72,293.26L212.93,294.18L215.62,296.79L218.55,298.04L220.07,297.27L220.96,293.62L223.66,293.28L226.98,291.74L231.82,294.73L233.3,297.39L235.11,298.1L236.94,297.07L238.92,297.85L240.02,301.4L244.81,302.92L243.27,304.7L245.49,307.54L249.25,305.92L251.95,305.7L255.22,302.98L259.13,302.23L262.46,300.94L267.83,297.84L270.66,299.18L276.04,296.59L276.77,298.11L279.81,298.66L281.93,298.04L284.08,298.66L289.44,295.59L295.69,293.59L298.29,295.12L300.88,293.49L301.41,295.47L305.88,296.3L309.87,294.62L312.97,297.5L317.67,296.46L320.92,299.61L321.14,302.83L322.57,304.97L328.99,306.55L334.41,309.93L338.55,309.53L339.84,312.99L338.18,316.33L337.4,320.93L333.37,323.57L333.41,328.5L337.37,331.83L338.93,331.31L343.99,331.25L347.19,329.64L351.1,328.46L356.09,328.75L357.01,329.87L360.48,329.52L361.02,330.73L359.33,334.23L359.2,339.75L357.69,340.95L356.33,344.28L358.01,348.91L358,352.23L356.03,354.53L355.47,357.93L353.58,358.09L351.14,360.51L351.41,366.44L352.62,369.03L351.06,370.76L350.24,374.92L347.49,376.75L348.57,379.42L346.35,382.25L349.07,384.43L348.11,388.77L350.12,390.67L352.92,388.77L354.95,389.8L354.34,396.47L352.74,399.49L353.05,401.66L352.21,404.86L354.26,406.97L356.66,407.72L353.29,411.23L351.02,415.33L350.82,417.58L342.25,423.02L337.71,429.35L335.18,430.79L335.09,432.45L338.77,435.56L339.76,438.29L345.68,439.15L347.84,441.39L347.27,445.13L348.94,450.28L347.57,454.27L342.69,456.61L343.08,459.07L341.82,461.62L339.71,462.62L338.95,465.33L339.6,467.77L337.58,471.27L335.48,473.53L335.73,479.19L333.71,481.35L333.29,485.57L332.18,485.74L329.34,484.9L325.88,485.12L320.88,483.13L316.76,484.25L315.23,485.4L312.26,485.1L308.02,482.09L304.48,481.45L301.94,483.1L296.72,481.97L255.7,490.54L253.85,487.52L251.11,486.03L246.19,485.79L243.3,482.06L241.43,481.63L240.52,479.34L238.29,478.35L237.03,474.88L236.02,474.53L233.18,470.74L229.06,467.65L224.2,465.78L223.34,463.01L220.65,460.89L219.8,459.06L215.6,455L212.84,451.66L210.02,449.59L202.77,441.39L201.28,440.64L199.28,437.29L197.63,436.66L196.02,434.29L192.93,432.56L190.35,429.11L188.77,421.81L186.17,417.41L183.25,414.13Z" class="land" id="ZM-01" title="Western"/>
    <path d="M579.35,202.9L581.26,200.42L581.65,197.02L586.96,194.71L588.71,194.63L590.63,196.28L591.52,199.6L593.46,202.42L596.17,203.62L598.16,205.64L607.26,208.63L609.85,208.76L611.25,210.37L613.7,210.45L614.96,211.57L614.97,214.14L613.92,216.93L614.45,218.63L617.8,220.7L617.47,224.4L619.45,226.6L621.75,226.79L624.35,225.52L625.25,227.67L627.76,230.28L625.68,234.06L626.66,237.23L626.63,239.68L631.46,242.64L635.58,242.82L641.16,244.05L645.12,248.49L646.96,248.64L649.89,244L653.51,243.67L656.03,244.69L657.36,246.42L657.93,250.7L657.96,258.69L661.35,263.65L661.49,268.81L660.1,270.28L656.41,271.15L652.85,273.25L650.44,276.64L647.66,277.24L645,280.16L644.8,283.75L637.58,289.06L637.57,290.9L633.44,294.56L632.29,294.67L596.86,294.62L596.41,296.25L597.86,300.94L602.32,302.46L604.68,304.88L604.73,306.95L603.31,309.33L599.69,311.88L595.47,317.42L592.35,318.84L592.1,320.45L590.16,321.77L588.21,329.97L589.81,333.07L587.15,333.18L579.11,336.56L575.81,337.37L563.75,343.68L561.64,343.89L559.02,345.46L549.85,345.56L544.53,346.86L539.7,350.18L533.2,352.84L530.71,356.87L528.33,357.92L521.19,358.66L514.2,360.24L510.63,359.29L505.56,358.71L503.19,363.11L503.64,368.53L500.52,371.08L494.95,367.7L485.7,364.6L480.04,364.58L475.42,365.73L476.25,368.85L480.08,370.01L482.31,371.59L483.54,374.1L483.61,379.08L481.84,381.09L476.57,381.15L475.68,384.33L473.8,385.26L470.79,385.19L469.56,383.17L469.87,379.92L468,377.77L464.14,375.85L461.07,379.83L457.51,380.64L454.97,384.09L452.38,389.18L450.24,387.98L449.33,382.58L447.49,376.04L441.86,375.81L439.77,375.25L435.15,375.22L435.34,373.01L430.66,370.1L426.69,368.15L404.88,368.09L397.64,366.95L394.09,366.89L386.33,365.71L377.77,365.73L373.18,366.32L353.2,366.31L351.41,366.44L351.14,360.51L353.58,358.09L355.47,357.93L356.03,354.53L358,352.23L358.01,348.91L356.33,344.28L357.69,340.95L359.2,339.75L359.33,334.23L361.02,330.73L360.48,329.52L363.62,328.61L364.89,327.25L372.78,327.76L374.72,328.31L384.14,328.96L394.69,330.7L395.39,332.41L400.63,334.49L402.03,335.96L404.54,334.69L404.83,332.78L407.81,328.5L411.61,325.79L412.5,323.29L414.85,321.84L423.5,321.81L426.98,320.12L432.35,320.04L434.26,318.43L434.28,311.69L435.4,309.44L435.31,306.74L432.95,303.05L429.93,300.91L431.85,298.92L432,293.84L434.15,290.01L434.03,288.77L431.62,287.09L429.85,283.99L450.85,283.99L453.94,284.64L456.88,293.85L458.32,293.88L461.28,291.52L460.99,289.07L462.81,287.6L464.82,288.54L466.91,283.14L468.9,280.15L472.48,281.56L477.9,281.91L481.7,291.75L482.87,293.84L484.87,294.43L489.51,292.92L494.64,292.79L496.29,291.31L500.29,292.23L505.26,291.66L508.41,292.78L510.99,292.81L516.65,291.15L520.71,291.12L521.64,289.37L521.25,284.78L525.32,281.19L529.1,278.5L531.8,275.29L535.45,273.63L539.92,267.85L542.72,266.17L545.54,266.36L547.4,269.5L550.88,266.97L553.47,266.05L554.32,263.79L560.7,262.85L565.08,258.36L568.17,257.63L572.9,260.29L571.78,261.15L571.68,264.18L569.18,265.27L569.27,267.8L571.08,269.29L574.43,270.24L577.08,269.28L579.33,270.21L579.31,252.93Z" class="land" id="ZM-02" title="Central"/>
    <path d="M600.04,350.9L599.33,349.25L599.36,342.98L597.42,339.76L595.51,338.63L593.83,336.14L589.81,333.07L588.21,329.97L590.16,321.77L592.1,320.45L592.35,318.84L595.47,317.42L599.69,311.88L603.31,309.33L604.73,306.95L604.68,304.88L602.32,302.46L597.86,300.94L596.41,296.25L596.86,294.62L632.29,294.67L633.44,294.56L637.57,290.9L637.58,289.06L644.8,283.75L645,280.16L647.66,277.24L650.44,276.64L652.85,273.25L656.41,271.15L660.1,270.28L661.49,268.81L667.28,268.53L671.31,265.57L673.18,262.37L673.37,258.94L674.66,256.53L676.52,255.35L677.79,252.17L685,248.43L685.68,247.34L685.89,243.28L691.35,239.76L692.33,236.38L693.73,235.18L695.16,228.49L696.85,222.96L697.59,217.47L701.29,211.22L703.32,209.72L705.39,206.57L707.63,207.4L712.7,206.86L714.4,205.38L716.64,200.55L718.88,199.91L724.52,199.82L727.86,198.23L732.72,197.03L738.23,196.25L746.5,193.34L748.17,191.77L750.23,186.47L753.76,178.85L757.1,176.78L757.3,182.47L758.09,184.58L756.75,186.9L757.59,189.73L756.87,193.94L754.96,197.82L754.61,202.3L756.86,203.18L756.86,207.28L759.58,211.12L759.74,212.63L764.2,211.29L767.3,212.3L768.86,213.72L765.33,216.03L765.41,217.79L763.15,219.32L762.18,221.35L759.68,223.49L757.17,221.85L754.9,222.42L752.95,225.32L751.25,226.29L748.91,225.46L746.57,226.33L745.54,225.38L741.93,228.7L741.49,231.01L739.16,233.82L739.18,238.52L742.49,241.86L741.79,245.9L740.55,248.29L739.87,252.24L740.18,254.67L742.01,257.49L738.4,260.72L736.88,267.74L735.21,270.24L733.31,270.35L733.4,272.98L731.99,274.47L729.32,275.17L728.37,276.67L726.24,275.92L724.6,278.32L726.2,279.43L730.74,280.37L732.88,283.12L729.89,286.49L734.14,287.74L737.95,292.05L739.34,295.41L741.18,295.96L740.84,299.07L743.25,301.24L744.34,298.45L748.86,295.25L750.47,296.29L751.77,298.85L738.53,303.77L721.42,309.87L713.33,313.45L702.74,315.56L693.3,319L687.8,320.26L680.85,323.69L674.39,325.16L663.7,331.12L653.26,333.15L643.71,336.23L629.51,339.7L615.21,345.19L607.5,348.94Z" class="land" id="ZM-03" title="Eastern"/>
    <path d="M567.4,7.91L565.74,12.63L563.82,14.41L559.67,15.79L554.77,23.85L553.31,30.12L551.49,34.91L550.33,36.41L547.11,37.88L546.27,41.93L544.72,42.68L543.98,45.27L548.48,48.13L550.99,48.4L552.33,50.21L555.66,51.42L555.8,55.8L556.79,58.51L555.24,60.59L555.13,62.86L556.44,67.07L558.21,68.36L561.57,68.76L562.44,70.76L566.02,73.65L568.91,73.91L576.17,76.59L578.77,76.67L582.01,80.1L582.47,81.82L585.13,83.3L586.29,86.04L584.65,89.86L584.58,91.71L586.04,94.71L584.07,97.31L583.26,101.42L581.32,103.46L577.77,102.87L573.75,102.93L569.62,106.19L563.55,108.77L560.53,111.18L560.22,113.67L558.72,115.83L559,119.63L556.96,122.26L556.66,124.12L554.12,124.56L552.73,125.98L547.82,128.68L546.71,130.5L546.61,136.42L543.41,139.39L542.83,140.97L547.03,142.63L552.15,147.63L557.9,148.95L558.48,145.38L556.85,142.84L555.23,137.67L562.11,133.88L565.67,132.4L571.38,129.28L574.39,131.25L577.25,132.17L579.45,135.71L583.21,140.01L583.85,144.22L580.82,161.74L583.04,161.63L584.06,159.55L586.04,158.15L587.08,155.5L595.28,155.43L598.76,158.1L608.04,164.35L612.45,168.83L611.51,173.47L608.34,177.3L603.74,183.81L601.67,185.54L594.62,186.93L579.98,188.79L578.05,189.53L577.28,191.9L577.87,197.01L580.06,199.64L579.32,202.84L576.95,202.87L574.97,204.42L572.13,205.3L567.47,204.55L563.11,206.93L561.43,211.85L563.65,215.14L565.55,216.47L563.62,218.93L562.38,219.02L557.47,216.19L553.29,215.77L551.83,213.45L547.98,213.77L544.86,215.06L540.13,214.03L538.23,209.47L535.61,205.54L530.97,201.72L529.8,199.79L527.06,197.42L525.55,193.73L524.15,194.07L520.04,192.07L518.75,190.02L516.82,189.93L513.13,188.3L512.01,185.59L509.83,185.77L510.07,181.88L508.65,180.58L509.46,176.8L506.92,173.06L507.56,167.34L508.84,165.86L509.41,162.54L510.83,161.98L510.31,159.61L512.27,155.42L512.74,150.57L511.71,148.24L513.46,143.71L513.35,141.5L514.85,139.85L515.65,134.14L518.39,130.32L518.52,128.63L521.16,128.28L522.74,124.54L521.35,123.13L521.71,120.46L519.86,118.46L520.19,114.39L519.22,109.62L519.88,107.41L516.85,103.09L519.11,99.3L519.85,92.35L519.28,89.01L520.74,85.9L521.79,81.72L521.47,78.66L519.16,76.83L519.49,74.05L518.77,70.72L516.68,67.91L516.48,65.02L513.73,62.59L514.66,59.47L513.27,57.96L511.11,60.5L508.72,61.37L507.09,60.63L505.74,58.44L506.02,55.61L507.56,52.38L512.07,48.57L522.86,41.55L525.49,38.96L531.18,31.82L535.41,25.35L536.46,21.13L535.67,17.65L533.32,12.83Z" class="land" id="ZM-04" title="Luapula"/>
    <path d="M703.31,46.41L703.31,50.33L705.44,55.22L707.25,60.58L707.23,64.65L707.86,65.97L709.7,78.65L708.19,80.21L704.38,82.45L701.06,85.79L699.34,92.59L695.73,94.48L692.63,97.68L691.92,101.15L691.86,106.05L690.07,108L688.4,108.23L685.64,110.27L683.52,113.9L679.43,116.46L678.23,117.9L673.62,118.73L671.51,120.65L667.77,121.94L666.24,121.07L663.28,123.16L659.46,123.99L657.58,125.19L656.18,127.83L651.33,128.6L649.36,130.18L649.42,132.21L651.48,133.91L649.38,135.29L648.66,138.41L645.54,141.65L641.71,139.71L638.65,143.19L636.11,144.62L635.49,146.52L631.87,147.27L628.79,151.93L626.2,157.1L624.27,159.64L620.59,161.05L613.96,168.09L612.45,168.83L608.04,164.35L598.76,158.1L595.28,155.43L587.08,155.5L586.04,158.15L584.06,159.55L583.04,161.63L580.82,161.74L583.85,144.22L583.21,140.01L579.45,135.71L577.25,132.17L574.39,131.25L571.38,129.28L565.67,132.4L562.11,133.88L555.23,137.67L556.85,142.84L558.48,145.38L557.9,148.95L552.15,147.63L547.03,142.63L542.83,140.97L543.41,139.39L546.61,136.42L546.71,130.5L547.82,128.68L552.73,125.98L554.12,124.56L556.66,124.12L556.96,122.26L559,119.63L558.72,115.83L560.22,113.67L560.53,111.18L563.55,108.77L569.62,106.19L573.75,102.93L577.77,102.87L581.32,103.46L583.26,101.42L584.07,97.31L586.04,94.71L584.58,91.71L584.65,89.86L586.29,86.04L585.13,83.3L582.47,81.82L582.01,80.1L578.77,76.67L576.17,76.59L568.91,73.91L566.02,73.65L562.44,70.76L561.57,68.76L558.21,68.36L556.44,67.07L555.13,62.86L555.24,60.59L556.79,58.51L555.8,55.8L555.66,51.42L552.33,50.21L550.99,48.4L548.48,48.13L543.98,45.27L544.72,42.68L546.27,41.93L547.11,37.88L550.33,36.41L551.49,34.91L553.31,30.12L554.77,23.85L559.67,15.79L563.82,14.41L565.74,12.63L567.4,7.91L581.95,5.97L589.01,4.7L595.27,4.49L607.57,2.9L628.28,0L629.96,4.42L638.62,16.09L641.16,18.86L644.83,20.78L647.32,20.87L650.46,18.62L652.54,19.3L653.68,20.88L655.96,19.71L662.66,21.22L664.56,23.57L666.45,23.41L668.67,24.88L669.25,26.72L668.64,29.99L669.39,31.51L673.13,33.62L674.22,35.23L677,35.85L679.27,34.17L681.81,34.23L687.77,36.54L687.24,40.71L690.27,43.69L693.54,42.43L698.64,42.95Z" class="land" id="ZM-05" title="Northern"/>
    <path d="M467.58,205.98L466.67,207.42L462.18,209.7L459.4,207.57L456.97,207.73L451.25,212.21L444.88,211.62L440.37,212.19L440.28,216.01L439.25,218.13L440.07,221.53L437.34,222.39L434.04,226.57L431.18,227.57L429.83,228.9L428.85,233.03L431.8,236.34L431.92,237.89L430.51,240.82L435.5,243.72L437.18,244.12L438.84,246.14L441.46,247L440.21,252.34L438.85,254.45L435.38,256.59L434.44,259.05L435.37,260.92L434.82,264.98L432.95,266.07L431.25,268.51L429.03,268.43L428.15,273.27L426.15,275.93L426.23,281.48L429.85,283.99L431.62,287.09L434.03,288.77L434.15,290.01L432,293.84L431.85,298.92L429.93,300.91L432.95,303.05L435.31,306.74L435.4,309.44L434.28,311.69L434.26,318.43L432.35,320.04L426.98,320.12L423.5,321.81L414.85,321.84L412.5,323.29L411.61,325.79L407.81,328.5L404.83,332.78L404.54,334.69L402.03,335.96L400.63,334.49L395.39,332.41L394.69,330.7L384.14,328.96L374.72,328.31L372.78,327.76L364.89,327.25L363.62,328.61L360.48,329.52L357.01,329.87L356.09,328.75L351.1,328.46L347.19,329.64L343.99,331.25L338.93,331.31L337.37,331.83L333.41,328.5L333.37,323.57L337.4,320.93L338.18,316.33L339.84,312.99L338.55,309.53L334.41,309.93L328.99,306.55L322.57,304.97L321.14,302.83L320.92,299.61L317.67,296.46L312.97,297.5L309.87,294.62L305.88,296.3L301.41,295.47L300.88,293.49L298.29,295.12L295.69,293.59L289.44,295.59L284.08,298.66L281.93,298.04L279.81,298.66L276.77,298.11L276.04,296.59L270.66,299.18L267.83,297.84L262.46,300.94L259.13,302.23L255.22,302.98L251.95,305.7L249.25,305.92L245.49,307.54L243.27,304.7L244.81,302.92L240.02,301.4L238.92,297.85L236.94,297.07L235.11,298.1L233.3,297.39L231.82,294.73L226.98,291.74L223.66,293.28L220.96,293.62L220.07,297.27L218.55,298.04L215.62,296.79L212.93,294.18L209.72,293.26L208.22,291.22L204.43,289.11L197.63,282.93L194.3,281.83L191.58,285.02L188.78,286.21L186.23,285.07L183.29,282.58L183.26,246.75L205.26,246.71L286.75,246.01L286.19,244.13L283.55,241.2L279.89,238.46L280.3,233.68L281.31,231.1L281.17,228.87L282.43,226.88L282.46,222.89L286.04,217.88L288.25,216.29L288.59,212.81L288.19,208.32L285.42,205.73L283.98,202.55L284,191.73L284.84,186.64L285.95,185.35L283.24,176.71L286.56,169.89L286.05,167.08L286.61,165.25L288.83,162.67L286.46,156.38L286.6,151.54L285.29,145.36L286,141.21L284.25,138.69L284.69,136.92L287.67,137.08L291.3,138.59L292.02,141.19L291.35,144.02L300.95,145.52L303.92,147.3L304.32,151.87L305.04,152.85L304.9,156.61L302.44,161.74L300.19,162.02L300.03,163.57L304.11,163.95L308.62,166.61L314.3,166.39L315.06,164.44L316.88,163.68L318.48,161.31L321.87,158.92L327.97,157.94L329.01,156.34L334.69,155.74L340.85,155.71L346.87,154.55L350.83,152.69L353.23,153.42L350.55,158.38L351.21,160.81L349.53,161.93L350.76,164.3L350.85,167.08L351.97,168.31L351.01,172.43L352.5,175.22L357.1,177.77L359.64,178.37L360.49,179.65L359.97,182.24L361.07,183.48L365.53,180.89L368.65,180.72L369.78,183.23L371.87,185L377.2,185.64L379.65,184.09L382.03,188.04L385.49,189.27L385.62,191.47L395.87,191.39L396.89,190.8L402.88,192.79L406.87,190.4L409.89,190.41L414.5,193.47L416.47,193.06L421.21,194.15L422.57,195.01L424.42,193.19L426.62,192.83L428.13,194.2L430.96,193.75L434.5,190.37L437.24,186.61L437.27,182.5L439.32,178.93L438.12,176.51L439.11,173.98L444.83,173.83L447.47,172.43L448.34,176.72L448.42,183.03L451.6,184.69L459.68,190.09L460.81,192.46L460.41,195.39L462.08,198.02L462.64,201.66L465.49,205.44Z" class="land" id="ZM-06" title="North-Western"/>
    <path d="M351.41,366.44L353.2,366.31L373.18,366.32L377.77,365.73L386.33,365.71L394.09,366.89L397.64,366.95L404.88,368.09L426.69,368.15L430.66,370.1L435.34,373.01L435.15,375.22L439.77,375.25L441.86,375.81L447.49,376.04L449.33,382.58L450.24,387.98L452.38,389.18L454.97,384.09L457.51,380.64L461.07,379.83L464.14,375.85L468,377.77L469.87,379.92L469.56,383.17L470.79,385.19L473.8,385.26L475.68,384.33L480.85,386.5L485.35,385.5L488.05,387.16L489.25,389.4L491.58,389.66L496.28,391.47L498.76,394.27L501.71,391.97L506.05,391.95L508.91,392.66L510.67,394.68L512.49,394.93L516.84,397.79L521.68,397.99L525.44,400.83L532.5,399.69L533.83,400.88L530.39,406.69L531.35,410.18L530.26,412.31L529.92,415.44L531,417.4L529.25,420.66L530.64,423.65L528.26,430.3L524.89,432.97L520.15,433.86L501.26,441.62L494.47,447.27L478.93,454.59L468.87,469.63L468.17,474.58L464.43,479.11L452.63,488.43L447.92,494.95L444.32,499.19L444.44,501.69L441.26,504.4L438.78,507.88L437.43,507.29L431.41,509.16L428.37,509.08L426.51,511.19L423.32,511.67L421.15,514L416.67,512.58L414.63,509.25L409.32,508.08L406.74,506.52L401.68,506.42L396.69,504.04L391.42,506.07L390.77,508.95L386.87,508.6L384.84,510.08L379.3,508.43L378.14,504.12L376.46,503.88L374.38,501.96L369.48,500.08L367.28,501.59L363.41,501.41L362.26,502.72L359.74,501.81L354.72,502L350.83,500.43L346.95,497.53L345.23,497.67L343.43,494.71L339.76,491.62L337.22,487.98L335.64,488.4L333.96,486.2L332.18,485.74L333.29,485.57L333.71,481.35L335.73,479.19L335.48,473.53L337.58,471.27L339.6,467.77L338.95,465.33L339.71,462.62L341.82,461.62L343.08,459.07L342.69,456.61L347.57,454.27L348.94,450.28L347.27,445.13L347.84,441.39L345.68,439.15L339.76,438.29L338.77,435.56L335.09,432.45L335.18,430.79L337.71,429.35L342.25,423.02L350.82,417.58L351.02,415.33L353.29,411.23L356.66,407.72L354.26,406.97L352.21,404.86L353.05,401.66L352.74,399.49L354.34,396.47L354.95,389.8L352.92,388.77L350.12,390.67L348.11,388.77L349.07,384.43L346.35,382.25L348.57,379.42L347.49,376.75L350.24,374.92L351.06,370.76L352.62,369.03Z" class="land" id="ZM-07" title="Southern"/>
    <path d="M539.92,267.85L535.45,273.63L531.8,275.29L529.1,278.5L525.32,281.19L521.25,284.78L521.64,289.37L520.71,291.12L516.65,291.15L510.99,292.81L508.41,292.78L505.26,291.66L500.29,292.23L496.29,291.31L494.64,292.79L489.51,292.92L484.87,294.43L482.87,293.84L481.7,291.75L477.9,281.91L472.48,281.56L468.9,280.15L466.91,283.14L464.82,288.54L462.81,287.6L460.99,289.07L461.28,291.52L458.32,293.88L456.88,293.85L453.94,284.64L450.85,283.99L429.85,283.99L426.23,281.48L426.15,275.93L428.15,273.27L429.03,268.43L431.25,268.51L432.95,266.07L434.82,264.98L435.37,260.92L434.44,259.05L435.38,256.59L438.85,254.45L440.21,252.34L441.46,247L438.84,246.14L437.18,244.12L435.5,243.72L430.51,240.82L431.92,237.89L431.8,236.34L428.85,233.03L429.83,228.9L431.18,227.57L434.04,226.57L437.34,222.39L440.07,221.53L439.25,218.13L440.28,216.01L440.37,212.19L444.88,211.62L451.25,212.21L456.97,207.73L459.4,207.57L462.18,209.7L466.67,207.42L467.58,205.98L468.88,208.84L470.15,209.45L475.31,209.56L480.76,207.21L483.4,207.03L485.65,212.86L491.97,213.17L493.89,217.15L495.97,214.63L499.87,216.45L504.15,216.6L508.05,220.54L509.97,221.34L510.17,223.79L514.07,227.14L513.62,229.52L510.61,231.25L511.91,233.66L514.39,236.14L515.17,239.02L516.99,240.93L519.35,237.15L520.99,237.18L524.76,240.57L525.91,243.29L529.87,247.89L530.53,254.06L533.41,254.94L535.54,262.36Z" class="land" id="ZM-08" title="Copperbelt"/>
    <path d="M589.81,333.07L593.83,336.14L595.51,338.63L597.42,339.76L599.36,342.98L599.33,349.25L600.04,350.9L600.65,358.22L603.19,364.25L608.07,369.05L608.37,373.2L609.37,375.9L607.57,380.14L610.23,383.52L607.23,385.23L603.55,385L602.2,383.96L599.99,385.85L597.47,383.67L595.37,383.65L587.35,384.84L582.79,383.24L578.7,383.15L574.59,384.81L570.2,385.84L565.93,385.02L563.67,387.09L560.32,387.28L556.67,388.39L551.8,390.94L549.82,391.22L541.59,397.35L539.09,400.61L533.83,400.88L532.5,399.69L525.44,400.83L521.68,397.99L516.84,397.79L512.49,394.93L510.67,394.68L508.91,392.66L506.05,391.95L501.71,391.97L498.76,394.27L496.28,391.47L491.58,389.66L489.25,389.4L488.05,387.16L485.35,385.5L480.85,386.5L475.68,384.33L476.57,381.15L481.84,381.09L483.61,379.08L483.54,374.1L482.31,371.59L480.08,370.01L476.25,368.85L475.42,365.73L480.04,364.58L485.7,364.6L494.95,367.7L500.52,371.08L503.64,368.53L503.19,363.11L505.56,358.71L510.63,359.29L514.2,360.24L521.19,358.66L528.33,357.92L530.71,356.87L533.2,352.84L539.7,350.18L544.53,346.86L549.85,345.56L559.02,345.46L561.64,343.89L563.75,343.68L575.81,337.37L579.11,336.56L587.15,333.18Z" class="land" id="ZM-09" title="Lusaka"/>
    <path d="M757.1,176.78L753.76,178.85L750.23,186.47L748.17,191.77L746.5,193.34L738.23,196.25L732.72,197.03L727.86,198.23L724.52,199.82L718.88,199.91L716.64,200.55L714.4,205.38L712.7,206.86L707.63,207.4L705.39,206.57L703.32,209.72L701.29,211.22L697.59,217.47L696.85,222.96L695.16,228.49L693.73,235.18L692.33,236.38L691.35,239.76L685.89,243.28L685.68,247.34L685,248.43L677.79,252.17L676.52,255.35L674.66,256.53L673.37,258.94L673.18,262.37L671.31,265.57L667.28,268.53L661.49,268.81L661.35,263.65L657.96,258.69L657.93,250.7L657.36,246.42L656.03,244.69L653.51,243.67L649.89,244L646.96,248.64L645.12,248.49L641.16,244.05L635.58,242.82L631.46,242.64L626.63,239.68L626.66,237.23L625.68,234.06L627.76,230.28L625.25,227.67L624.35,225.52L621.75,226.79L619.45,226.6L617.47,224.4L617.8,220.7L614.45,218.63L613.92,216.93L614.97,214.14L614.96,211.57L613.7,210.45L611.25,210.37L609.85,208.76L607.26,208.63L598.16,205.64L596.17,203.62L593.46,202.42L591.52,199.6L590.63,196.28L588.71,194.63L586.96,194.71L581.65,197.02L581.26,200.42L579.35,202.9L579.32,202.84L580.06,199.64L577.87,197.01L577.28,191.9L578.05,189.53L579.98,188.79L594.62,186.93L601.67,185.54L603.74,183.81L608.34,177.3L611.51,173.47L612.45,168.83L613.96,168.09L620.59,161.05L624.27,159.64L626.2,157.1L628.79,151.93L631.87,147.27L635.49,146.52L636.11,144.62L638.65,143.19L641.71,139.71L645.54,141.65L648.66,138.41L649.38,135.29L651.48,133.91L649.42,132.21L649.36,130.18L651.33,128.6L656.18,127.83L657.58,125.19L659.46,123.99L663.28,123.16L666.24,121.07L667.77,121.94L671.51,120.65L673.62,118.73L678.23,117.9L679.43,116.46L683.52,113.9L685.64,110.27L688.4,108.23L690.07,108L691.86,106.05L691.92,101.15L692.63,97.68L695.73,94.48L699.34,92.59L701.06,85.79L704.38,82.45L708.19,80.21L709.7,78.65L707.86,65.97L707.23,64.65L707.25,60.58L705.44,55.22L703.31,50.33L703.31,46.41L707.03,46.57L712.37,45.89L715.48,47.65L715.13,48.64L717.88,52.85L720.09,52.44L724,53.91L728.27,54.23L729.42,56.12L734.44,59L735.71,58.58L738.31,61.66L738.52,64.8L741.83,65.08L742.73,66.09L741.44,70.46L742.43,72.65L744.08,71.93L746.31,75.02L746.99,70.61L748.99,71.32L750.91,70.46L752.32,71.82L752.67,76.69L755.79,79.51L756.56,81.84L758.85,82.52L760.36,86.75L759.34,87.3L757.02,94.25L759.46,96.51L761.6,96.9L764.06,99.61L767.01,100.67L769.69,103.27L768.44,106.99L770.12,113.68L772.55,114.33L773.97,118.02L776.75,121.38L772.79,125.22L771.45,125.28L768.25,130.2L764.12,133.52L760.88,133.11L758.14,133.93L756.94,136.05L754.64,136.02L757.05,139.87L756.78,142.34L757.99,146.28L761.76,151.12L760.32,155.03L759.03,156.52L756.11,161.77L755.84,164.52L753.66,166.58L753.78,170.12L752.23,173.22L755.78,172.62L757.1,173.99Z" class="land" id="ZM-10" title="Muchinga"/>
  </g>
</svg>