<?xml version="1.0" encoding="UTF-8"?>
<svg xmlns="http://www.w3.org/2000/svg" width="354.16" height="262.27" viewBox="302.92 125.86 354.16 262.27" style="background-color:#000000">
  <!-- Created using SVG Map Generator: dojo.amcharts.com/svg-map-generator -->
  <style>
    .land { fill: #ffffff; stroke: #000000; stroke-width: 0.65; }
  </style>
  <g id="polygons">
    <path d="M397.36,335.93L396.22,336.88L395.25,337.91L395.08,338.58L395.63,339.28L396.91,339.41L397.19,339.74L396.97,340.58L395.83,342.11L394.73,345.08L393.52,346.61L393.17,347.55L392.33,348.15L391.9,349.79L392.55,351.06L392.2,352.12L392.22,353.69L391.19,354.85L390.77,355.58L390.83,356.78L390.54,357.58L390.7,358.71L390.11,359.31L390.21,360.61L389.83,361.07L389.69,362.45L389.39,362.98L388.7,363.24L389,364.4L387.1,366.44L383.58,366.58L382.38,367.91L381.59,368.04L380.73,367.42L379.82,367.64L379.13,367.06L378.56,367.02L377.4,367.55L376.14,368.35L375.36,368.39L373.32,367.55L372.11,368.44L371.63,368.44L371.33,369.81L370.77,370.44L369.64,370.3L368.61,369.73L367.62,369.81L366.4,368.53L365.41,368.44L365.36,367.46L363.63,366.8L363.98,364.93L364.8,364.66L364.93,364.22L363.85,364.09L362.9,362.94L363.16,365.15L362.63,366.22L361.9,366.44L361.03,365.24L359.3,364.4L359.17,363.16L358.78,363.16L357.96,364.44L356.53,365.11L355.66,364.66L355.27,363.11L355.49,362L356.01,361.52L357.57,360.63L357.96,359.47L357.87,357.74L357.44,357.43L356.96,358.45L356.79,360L356.44,360.41L355.06,360.67L354.58,361.74L354.58,364.31L354.89,366.17L354.71,366.53L352.72,367.81L350.64,369.59L349.6,369.86L349.04,370.61L348.51,370.61L347.52,369.99L347.13,369.28L347.18,366.71L346.74,365.2L346.74,364.05L347.65,362.23L349.12,361.29L349.81,361.07L350.86,361.29L351.77,361.25L352.03,360.76L350.81,360.05L349.12,359.87L348.21,360.41L347.65,361.56L346.83,362.23L346.22,361.6L346.7,361.07L346.35,360.23L346.52,359.11L347.13,358.67L347.61,357.74L347.69,356.99L347.35,356.14L346.65,356.58L346.39,357.47L346.01,357.56L345.79,356.45L345.88,355.21L346.18,354.41L347.31,353.26L348.26,351.79L348.51,350.9L348.51,349.83L348.04,347.96L348.82,345.03L348.86,342.75L348.75,341.24L349.01,339.67L348.85,338.57L349.8,338.42L350.6,337.63L350.4,336.64L350.78,336.11L351.92,335.67L368.51,335.81L378.56,335.88L381.97,335.81L387.7,335.92ZM397.09,377.51L393.35,377.75L388.52,376.16L387.41,376.08L385.26,376.44L383.45,376.96L381.37,377.17L380.29,376.86L378.78,376.83L374.83,378.94L372.32,380.5L370.49,381.35L368.85,382.39L364.43,382.62L362.93,382.98L360,382.66L357.87,383.2L356.79,383.2L354,382.7L352.8,382.65L351.39,383.22L350.02,384.12L349.79,382.69L349.25,381.27L348.79,380.72L347.17,379.93L346.32,378.35L346.09,377.33L345.94,375.28L346.78,373.63L347.96,372.34L348.61,371.9L349.43,371.81L349.82,371.28L350.69,371.19L351.73,370.79L351.73,371.77L352.95,371.77L353.33,370.66L354.76,370.21L356.06,369.1L356.28,368.13L356.67,367.59L357.53,367.24L358.05,366.58L359.44,366.93L360.17,368.08L360.17,369.77L361.22,371.1L361.17,369.59L361.86,368.7L362.42,368.48L363.51,368.53L365.63,369.55L367.5,370.7L368.57,370.74L369.7,371.45L371,371.45L371.91,370.74L372.52,369.28L373.52,369.28L374.25,368.57L375.12,369.02L376.24,369.19L377.63,369.06L379.23,368.17L379.92,368.57L380.14,369.28L380.83,369.59L382.04,368.79L382.87,368.79L384.29,368.39L385.34,367.69L388.15,367.59L388.91,366.8L390.04,366.31L391.38,366.66L392.29,367.59L393.37,368.38L393.07,369.18L393.04,370.35L393.88,372.04L394.76,372.74L395.31,374.17L394.4,374.94L394.73,375.5L396.71,375.6L397.1,376.7Z" class="land" id="SN-ZG" title="Ziguinchor"/>
    <path d="M439.82,363.85L439.19,361.73L438.9,359.77L439.36,358.65L440.17,357.4L440.92,355.69L440.86,353.38L441.15,351.36L440.75,350.6L438.2,347.63L438.15,346.74L438.67,345.5L438.26,344.37L435.49,342.95L434.22,342.42L434.68,341.05L434.74,340.22L433.35,337.73L433.35,336.37L433.12,335.42L432.61,334.89L431.79,334.65L429.83,334.59L427.99,333.22L427.58,331.74L427.64,329.83L428.27,328.59L428.31,324.94L430.9,324.21L431.75,323.69L434.32,321.15L434.95,320.13L435.37,318.59L435.31,317.43L436.03,314.88L437.33,313.23L439.74,311.57L441.43,310.85L442.01,310.85L443.38,313.21L444.96,314.71L447.95,316.91L451.69,318.87L453.98,319.35L456.01,319.62L457.32,320.58L458.83,321.06L460.82,321.14L461.26,321.51L461.9,322.63L462.81,323.43L464.43,324.39L467.01,325.73L469.09,325.93L470.29,325.3L471.49,325.32L472.2,326.24L473.41,327.12L474.29,327.44L476.11,327.82L478.12,328.01L479.12,329.32L481.21,331L482.53,331.63L484.54,331.93L486.74,331.58L488.56,331.45L489.36,331.63L490.54,332.58L494.7,332.46L496.38,332.3L497.2,331.46L497.62,329.51L497.97,329.15L499,328.8L500.84,328.54L501.71,328.72L504.26,328.39L505.29,328.03L506.5,327.28L507.43,326.99L510.78,326.85L511.91,326.42L513.43,325.46L514.76,323.87L515.35,322.68L515.9,320.53L515.83,319.74L514.94,318.8L513.98,317.33L512.39,315.77L511.81,314.99L513.03,314.8L513.71,313.5L515.43,313.43L516.17,313.57L516.57,314.6L516.15,315.37L516.08,316.4L515.49,316.98L515.95,317.71L516.57,317.14L517.7,316.94L520.43,317.87L520.04,318.97L518.71,319.97L518.48,320.81L518.45,322.04L517.64,323.28L519.65,323.28L521.47,322.95L522.51,323.75L522.41,324.25L521.6,325.18L522.64,326.05L522.7,326.62L522.28,327.42L522.31,328.22L524.1,328.75L524.36,330.59L524.59,330.82L526.34,330.96L526.86,331.82L526.83,332.62L527.22,333.69L526.7,334.16L526.54,335.33L527.19,336.13L526.86,336.94L527.45,337.97L527.45,338.47L528.22,339.27L529.1,339.5L528.94,341.04L529.95,341.6L531.67,343.2L531.7,344.54L532.29,344.73L532.51,346.1L533.16,347.07L532.81,347.87L532.9,348.47L532.61,349.6L533.29,350.63L534.53,350.86L534.75,351.2L534.69,352.56L535.41,353.46L535.31,353.99L534.69,354.4L534.56,354.93L533.81,355.79L533.75,356.72L534.3,357.09L534.59,358.19L534.59,360.59L534.13,361.82L534.46,362.35L535.56,362.78L536.02,363.32L537.78,363.59L539.17,362.78L540.76,363.05L541.07,363.71L541.25,365.02L534.64,364.59L528.33,364.12L520.94,364.05L515.52,364.07L504.91,364.08L504.11,363.99L499.89,364.03L497.43,363.96L495.67,364.03L489.09,364.01L486.41,364.03L475.61,364L460.93,363.96L460.1,364.02L453.65,363.9L450.95,363.98L443.63,363.8L441.91,363.96Z" class="land" id="SN-KD" title="Kolda"/>
    <path d="M393.37,368.38L394.11,368.71L395.15,369.69L396.79,369.77L397.84,369.51L398.83,369.6L400.78,371.24L401.69,371.2L404.5,368.89L405.45,369.24L406.93,369.06L407.45,369.55L408.79,369.6L409.14,370.09L409.27,371.24L409.83,371.91L412.51,372.21L414.2,370.75L415.37,370.62L416.41,369.24L416.85,367.95L418.88,366.8L419.18,366.31L418.97,365.2L418.41,365.16L418.14,364.58L418.14,362.76L417.45,362.05L417.32,360.94L417.8,359.34L417.84,358.06L418.31,357.48L419.05,357.43L420.35,357.75L421.96,357.08L422.6,355.61L422.91,355.57L423.86,356.55L425.03,356.86L425.81,356.55L425.68,355.79L424.12,355.71L423.08,354.9L422.17,355.04L421.09,355.71L420.74,356.28L419.27,356.68L418.66,356.15L418.01,356.15L416.58,357.88L416.45,359.47L416.11,359.79L415.94,360.81L417.02,362.14L416.89,363.6L417.32,364.45L417.32,365.78L416.15,367.07L414.25,368.62L412.99,370.04L411.95,370.75L411.26,370.93L410.17,370.53L410.13,370L410.57,369.2L410.26,368.09L408.61,367.42L407.41,367.51L406.49,367.83L405.32,367.16L404.76,367.11L403.59,367.46L402.94,367.42L402.46,368.31L401.26,369.02L400.73,369.02L400.3,367.91L399.52,367.6L398.22,367.87L397.23,368.57L396.45,368.57L395.54,367.73L394.19,366.98L394.15,366.05L393.2,365.34L392.68,365.25L391.46,363.34L390.33,363.17L390.21,360.61L390.11,359.31L390.7,358.71L390.54,357.58L390.83,356.78L390.77,355.58L391.19,354.85L392.22,353.69L392.2,352.12L392.55,351.06L391.9,349.79L392.33,348.15L393.17,347.55L393.52,346.61L394.73,345.08L395.83,342.11L396.97,340.58L397.19,339.74L396.91,339.41L395.63,339.28L395.08,338.58L395.25,337.91L396.22,336.88L397.36,335.93L401.62,335.95L401.87,325.34L404.21,325.51L406.57,325.08L408.67,324.33L409.64,324.33L410.88,324.66L413.46,325.56L414.36,325.52L415.3,325.06L417.25,323.54L418.75,322.66L419.29,322.71L422.25,323.73L424.14,324.03L425.91,325.18L426.52,325.24L428.31,324.94L428.27,328.59L427.64,329.83L427.58,331.74L427.99,333.22L429.83,334.59L431.79,334.65L432.61,334.89L433.12,335.42L433.35,336.37L433.35,337.73L434.74,340.22L434.68,341.05L434.22,342.42L435.49,342.95L438.26,344.37L438.67,345.5L438.15,346.74L438.2,347.63L440.75,350.6L441.15,351.36L440.86,353.38L440.92,355.69L440.17,357.4L439.36,358.65L438.9,359.77L439.19,361.73L439.82,363.85L437.53,363.78L436.64,364L434.36,365.02L432.25,366.4L431.25,366.91L428.99,367.8L428.07,368.4L426.93,369.53L423.33,372.25L422.05,372.99L417.6,374.71L416.81,375.22L412.99,377.12L411.91,377.81L409.92,378.46L407.78,378.72L404.51,378.24L403.48,378.24L398.83,377.55L397.09,377.51L397.1,376.7L396.71,375.6L394.73,375.5L394.4,374.94L395.31,374.17L394.76,372.74L393.88,372.04L393.04,370.35L393.07,369.18Z" class="land" id="SN-SE" title="Sédhiou"/>
    <path d="M623.84,322.84L624.82,323.27L625.4,324.1L626.15,324.69L626.87,325.69L627.05,327.17L627.4,327.48L628.52,327.51L629.24,326.89L629.65,325.91L630.77,325.51L630.9,324.5L632.01,323.04L631.96,321.91L632.5,321.36L633.89,321.45L634.62,321.98L635,322.9L636.68,322.98L638.05,322.56L638.67,323.37L638.09,324.49L639.5,324.63L640.31,324.31L640.39,325.74L640.87,326.91L640.75,327.5L642.15,328.54L642.98,328.74L643.65,329.99L644.34,330.88L643.57,331.93L643.53,333.41L644.01,334.01L645.73,334.42L645.77,335.07L644.92,336.43L645.74,337.24L646.15,338.53L646.78,338.87L647.29,339.71L648.94,339.76L649.43,339.99L649.96,340.91L649.57,341.9L650.72,343.4L650.78,344.27L651.48,344.84L650.68,345.64L651.08,346.34L650.78,347.14L651.67,347.06L652.5,347.41L652.57,346.03L652.89,345.77L653.73,346.13L654.04,346.73L654,347.73L654.43,348.88L654.16,349.25L652.86,349.55L651.6,349.49L651.65,350.4L652.29,350.93L651.42,351.98L651.33,352.81L651.74,353.71L651.01,354.33L651.29,355.37L652.37,355.29L652.27,356.12L652.59,357.1L652.44,358.19L651.9,358.66L652.78,359.8L652.59,360.3L653.32,360.88L652.33,361.2L650.45,361.13L650.15,362.79L649.51,362.83L649,364.16L649.13,364.96L650.01,364.89L650.57,365.35L651.11,366.95L650.17,367.62L650.24,368.28L651.18,369.32L650.75,370.55L649.52,370.53L649.02,371.54L650.05,371.96L650.17,372.77L650.99,373.13L651.06,372.39L652.05,372.3L652.09,372.97L652.86,373.85L652.67,374.56L653.91,374.2L653.99,375.48L654.37,376.15L653.09,377.65L653.35,378.49L653.09,379.31L651.43,379.08L650.06,378.27L648.54,377.69L644.48,377.62L641.64,378.18L640.56,378.54L636.96,378.74L634.2,380.49L631.41,380.81L630.05,380.48L628.45,380.52L626.43,380.25L625.8,380L623.91,378.52L622.84,378.34L621.75,378.63L620.23,379.69L617.96,380.28L616.94,380.3L615.84,379.7L615.08,378.76L613.75,379L612.4,378.87L611.47,379.39L609.96,380.77L608.86,381.96L607.16,382.51L604.57,382.71L601.33,384.1L599.12,385.24L598.4,385.49L597.47,385.25L595.77,382.65L594.97,381.92L592.39,380.59L590.99,380.16L590.13,380.07L589.17,380.26L587.04,381.76L585.86,381.93L584.74,380.37L583.51,379.8L582.62,378.58L581.93,378.29L579.72,378.16L577.35,378.24L576.05,378.4L575.03,378.06L574.71,376.72L573.55,375.67L572.5,375.87L570.57,375.06L570.14,374.51L569.92,373.39L568.6,372.96L567.53,371.93L566.54,371.86L565.56,372.14L564.76,373.1L564.54,375.02L564.1,375.62L562.94,376.52L560.93,375.79L559.54,375.57L558.27,375.8L557.72,375.58L557.12,374.8L557.06,373.41L556.81,372.57L557.44,371.85L558.27,369.52L557.94,367.36L556.62,366.2L555.64,366.99L554.87,366.48L553.54,366.02L553.45,364.76L553.62,364.28L554.89,362.87L554.02,361.03L553.85,358.78L554.37,357.54L555.29,356.53L555.58,355.94L555.24,355.17L552.75,355.05L552.74,353.8L552.41,353.03L551.77,352.9L551.47,351.63L552.51,351.27L552.8,350.5L552.61,349.43L551.92,348.03L551.18,347.33L550.21,347.1L548.91,345.47L547.48,344.43L548.61,343.3L548.87,342.36L550.72,341.83L552.02,341.86L553.45,342.5L554.91,343.66L555.56,343.87L556.47,342.5L556.96,342.2L558.55,342.5L559.07,342.33L560.43,341.09L562.35,340.9L563.55,340.93L564.76,341.46L565.95,342.73L566.61,342.83L568.36,344.37L569.82,345.13L570.47,345.3L571.32,345.1L571.58,344.03L572.13,343.33L573.4,343.2L573.82,342.77L574.08,341.7L574.99,341.13L575.67,341.09L576.48,341.76L577.07,341.14L576.84,339.8L578.07,339.53L578.33,338.84L579.56,338.07L579.37,335.74L579.8,335L580.83,335.1L581.65,334.37L583.49,334.13L583.92,333.27L584.66,333.57L585.93,334.47L587.26,334.83L590.32,333.7L590.87,331.87L591.39,330.73L592.82,330.19L593.86,328.53L596.1,328.33L597.85,329.46L598.18,330.03L599.19,330.17L599.21,329.36L600.06,328.43L600.13,327.33L600.62,326.76L601.3,326.73L602.27,327.13L602.98,327.09L605.13,326.26L605.46,325.82L605.03,324.79L603.37,323.49L602.56,321.95L602.82,321.33L603.7,320.7L603.92,318.63L604.12,318.39L606.36,319.53L606.95,320.27L608.31,321.07L609.61,321.34L610.62,322.48L612.24,323.44L614.61,324.28L615.81,323.91L616.34,324.71L615.94,326.31L616.98,327.05L618.9,325.81L619.52,324.94L620.88,323.84L622.63,323.64Z" class="land" id="SN-KE" title="Kédougou"/>
    <path d="M578.8,223.59L581.9,227.54L584.28,230.73L584.97,231.77L585.28,232.8L585.44,234.71L584.12,237.5L583.43,239.65L581.28,245.49L575.73,254.01L564.57,255.36L548.63,252.18L532.6,263.87L514.66,263.95L487.33,253.45L484.18,247.72L482.79,249.15L480.25,249.15L476.71,253.05L474.02,253.21L472.4,253.45L469.09,254.49L461.62,252.23L456.77,251.1L456.45,250.74L459.5,247.28L460.05,243.46L462.35,242.08L464.84,237.56L462.35,231.85L460.53,226.45L464.27,224.67L471.24,224.47L475,223.16L472.88,221.2L476.16,206.81L471.61,208.06L461.6,203.1L463.85,199.8L464.09,189.34L469.12,187.39L473.19,183.93L475.98,181.4L477.99,185.19L480.47,186.66L482.03,187.18L484.4,188.59L488.18,190.32L489.4,191.68L500.9,182.88L507.4,177.54L513.65,171.66L514.21,169.88L520.26,167.31L521.47,164.26L521.77,163.18L522.74,163.81L524.06,163.03L525.03,163.21L526.6,162.52L528.44,161.42L529.96,161.54L531.25,161.88L532.45,161.65L533.61,160.77L534.59,161.63L534.44,161.99L533.26,162.35L532.46,163L532.14,163.73L532.97,164.65L533.45,164.69L534.45,163.33L535.2,163.08L535.83,164.24L536.54,164.84L539.95,166.2L540.19,166.92L539.9,168.16L539.94,171.03L540.88,172.61L542.62,174.03L542.91,174.45L542.12,175.71L542.6,176.52L543.13,176.73L543.86,177.61L543.65,178.77L544.13,180.35L545.76,182.01L545.03,181.98L544.32,182.86L544.62,183.65L548.9,187.46L548.85,188.23L548.09,188.89L546.92,188.65L546.68,189.33L546.98,190.4L547.75,191.98L548.65,192.58L549.7,191.76L550.76,191.78L552.07,192.54L555.66,194.33L555.96,196.28L555.29,197.89L555.27,198.87L555.59,199.31L557.75,200.47L558.53,200.56L559.97,200.19L560.85,199.53L562.1,199.27L562.95,198.8L563.41,200.62L563.23,201.56L563.42,202.14L564.92,202.46L565.11,202.96L564.47,203.77L564.12,204.66L564.38,207.27L565.54,208.25L567.5,208.73L568.8,209.35L569.91,210.51L570.41,211.79L570.31,212.61L569.4,213.4L567.67,212.62L566.93,212.98L567.11,213.93L568.3,214.73L569.07,215.52L569.68,216.62L570.34,216.72L570.95,216.15L571.88,215.79L572.83,216.4L573.04,216.93L572.98,219.39L573.64,219.99L575.04,220.67L576.45,221.9L578.08,222.88Z" class="land" id="SN-MT" title="Matam"/>
    <path d="M521.77,163.18L521.47,164.26L520.26,167.31L514.21,169.88L513.65,171.66L507.4,177.54L500.9,182.88L489.4,191.68L488.18,190.32L484.4,188.59L482.03,187.18L480.47,186.66L477.99,185.19L475.98,181.4L473.67,179.2L468.58,174.97L466.64,173.45L460.57,173.08L455.81,169.67L424.26,169.98L424.14,174.66L414.93,175.03L400.92,158.24L399.76,159.69L397.94,160.52L397.34,161.65L396.18,163.11L384.24,169.74L382.78,169.98L381.69,169.55L379.44,169.48L378.77,169.67L378.66,170.36L379.81,170.36L379.74,171.5L380.78,171.25L381.14,172.13L380.29,173.65L379.32,174.85L377.62,175.03L377.02,176.23L375.56,176.86L375.44,178.06L374.35,178.63L371.8,178.88L370.59,180.08L369.67,180.45L363.98,180.4L361.39,180.05L362.21,171.02L362.21,169.18L362.04,168.34L362.06,165.8L362.94,165.09L364.04,164.91L365.08,164.34L365.87,162.95L365.19,162.32L365.45,161.41L365.37,158.81L366.26,157.07L367.81,156.37L368.71,156.75L369.92,155.45L370.37,154.29L371.04,153.4L370.29,152.08L370.08,151.32L370.69,149.79L371.63,149.38L372.16,148.37L372.02,146.66L372.57,145.36L373.35,145.11L373.48,143.07L373.94,141.76L374.63,141.39L374.92,139.37L376.06,138.39L377.29,138.25L378.98,138.98L380.23,138.86L381.4,137.96L381.89,137.23L383.06,136.72L384.37,136.51L385.12,136.83L385.45,137.46L385.49,138.6L386.44,139.18L387.5,140.19L387.85,140.88L388.42,141.13L389.35,140.7L390.24,139.9L391.39,139.74L392.68,140.49L393.46,140.54L394.65,139.64L395.95,138.97L396.83,138.77L398.75,139.11L399.04,140.2L400.52,139.44L401.84,139.38L403,139.98L406.28,140.47L407.67,141.34L408.35,140.93L411.06,140.52L411.99,140.04L411.73,138.77L412.21,138.07L413.74,137.97L415.19,138.75L416.52,138.88L418.44,138.16L418.71,137.64L418.1,136.39L418.45,135.65L419.97,135.07L421.12,134.13L422.06,134.42L422.94,135.42L423.2,136.67L423.95,137.18L424.69,137.29L425.7,136.88L427.07,135.81L428.24,135.84L429.93,134.81L431.9,135.25L432.81,135.23L434.49,136.08L435.07,135.85L437.96,133.9L439.86,134.55L441.44,134.34L442.09,133.92L442.19,132.91L440.73,132.18L440.71,130.91L441.76,129.64L442.49,129.41L443.22,129.68L444.55,131.88L445.35,132.14L446.37,131.79L447.21,130.99L447.67,129.17L448.13,128.61L448.93,128.51L449.78,129.12L450.38,130.16L450.91,131.85L451.55,131.84L452.46,130.93L453.16,131.84L453.67,131.78L454.23,130.34L454.84,130.21L455.88,131.51L456.94,131.41L457.73,131.71L457.84,130.95L458.4,130.62L459.86,131.94L460.68,130.56L461.17,130.5L461.89,131.05L461.89,132.01L463.11,131.77L463.16,131.07L464.61,131.36L465.89,130.87L466.85,131.04L468.19,130.89L468.78,132.1L469.27,131.98L471.37,132.41L473,132.52L473.31,131.43L473.75,131.11L474.57,131.92L476.22,132.72L477.38,132.22L478.79,132.25L479.44,131.91L479.76,131.24L480.98,130.78L481.53,131.57L483.85,131.72L484.95,131.33L485.55,131.41L486.1,132.15L486.15,133.59L485.74,134.78L486.07,135.73L487.6,135.3L488.42,134.67L489.31,135.43L489.16,136.62L489.39,137.62L489.87,137.88L490.39,136.96L491.21,136.78L492.55,137.26L493.36,138.11L493.38,139.13L495.21,140.08L496.94,141.9L497.08,142.46L497.95,142.85L498.93,144.18L500.05,144.76L501.34,146.25L502.26,147.09L503.22,148.57L504.25,148.64L506.29,149.51L506.69,149.87L507.18,151.26L506.71,151.53L505.63,151.46L505.4,151.89L505.7,153.09L506.76,152.96L507.53,153.64L506.85,154.24L506.42,155.71L506.6,156.21L508.08,155.45L509.53,156.11L509.64,157.31L510.3,158.01L511.08,157.8L511.96,158.27L511.66,160.01L512.45,161.78L513,161.98L513.22,162.85L514.97,161.32L516.43,160.94L517.89,160.88L518.88,160.59L520.02,159.17L520.56,158.73L521.57,159.34L521.5,160.26L520.7,161.42Z" class="land" id="SN-SL" title="Saint-Louis"/>
    <path d="M456.45,250.74L452.77,246.59L450.46,251.23L444.27,251.54L437.42,250.29L430.69,249.22L427.72,245.48L426.89,244.08L424.04,239.73L423.51,238.56L423.28,237.55L422.01,237.01L420.96,236.86L418.33,237.79L416.98,237.55L414.88,236.08L413.07,235.3L409.02,235.07L408.34,234.75L407.07,233.59L405.48,233.28L404.06,232.5L403.6,231.18L401.95,230.56L401.88,227.91L397,227.99L396.02,229.16L391.59,229.16L390.91,230.25L386.86,229.55L380.61,229.67L380.66,227.39L380.15,226.63L379.65,225.16L379.7,222.42L378.97,221.59L377.55,220.78L376.88,220.72L377.16,219.43L377.05,218.84L375.58,216.97L375.18,214.92L375.3,213.16L374.28,211.99L373.49,212.11L373.03,213.16L372.24,213.63L371.06,212.63L371.79,211.76L371.68,211.05L370.78,209.71L370.21,209.42L366.82,209.3L364.73,208.12L363.49,208.95L362.3,210.23L361.9,211.23L361.23,211.99L360.66,213.1L359.87,214.16L358.96,216.27L357.32,218.38L356.03,219.78L355.97,217.79L355.8,217.14L352.36,213.57L350.49,212.23L349.87,211.52L348.57,210.88L348.63,210.29L349.3,208.65L349.7,206.6L350.49,205.66L351.28,204.32L351.34,203.3L350.55,202.42L349.14,202.26L350.83,200.28L353.18,196.92L357.2,190.21L359.36,185.64L360.63,183.57L361.39,180.05L363.98,180.4L369.67,180.45L370.59,180.08L371.8,178.88L374.35,178.63L375.44,178.06L375.56,176.86L377.02,176.23L377.62,175.03L379.32,174.85L380.29,173.65L381.14,172.13L380.78,171.25L379.74,171.5L379.81,170.36L378.66,170.36L378.77,169.67L379.44,169.48L381.69,169.55L382.78,169.98L384.24,169.74L396.18,163.11L397.34,161.65L397.94,160.52L399.76,159.69L400.92,158.24L414.93,175.03L424.14,174.66L424.26,169.98L455.81,169.67L460.57,173.08L466.64,173.45L468.58,174.97L473.67,179.2L475.98,181.4L473.19,183.93L469.12,187.39L464.09,189.34L463.85,199.8L461.6,203.1L471.61,208.06L476.16,206.81L472.88,221.2L475,223.16L471.24,224.47L464.27,224.67L460.53,226.45L462.35,231.85L464.84,237.56L462.35,242.08L460.05,243.46L459.5,247.28Z" class="land" id="SN-LG" title="Louga"/>
    <path d="M457.48,301.08L456.78,300.5L453.75,298.97L452.75,298.66L450.73,298.51L448.77,298.76L446.62,298.08L444.88,297.27L443.67,297L442.35,297.36L439.58,298.86L437.04,300.4L435.1,301.24L433.9,301.34L431.57,300.15L429.35,299.91L427.56,300.31L426.6,300.81L425.34,299L424.55,298.37L422.55,297.81L420.48,297.81L416.18,295.62L415.51,295.88L413.81,298.06L413.14,299.31L412.35,300.06L411.69,299.81L409.69,297.62L408.47,296.87L408.05,295.37L408.05,294.69L408.95,293.75L409.2,292.25L408.9,291.5L404.29,287.94L403.98,287.13L403.38,286.44L403.38,284.56L402.46,284.06L400.34,283.31L400.16,282.19L399.43,280.87L400.04,279.87L400.1,278.06L399.98,276.56L401.86,272.86L402.89,269.86L402.81,264.56L406.36,260.72L407.04,260.37L408.27,258.92L410.75,258.45L411.77,257.69L413.4,256.21L415.6,254.41L418.19,254.41L421.17,254.23L422.64,254.01L424.27,253.31L424.44,252.84L425.62,252.15L425.99,251.69L426.82,248.97L427.72,245.48L430.69,249.22L437.42,250.29L444.27,251.54L450.46,251.23L452.77,246.59L456.45,250.74L456.77,251.1L461.62,252.23L469.09,254.49L468.54,270.07L471.21,273.2L471.39,279.02L471.88,279.83L472.18,281.65L472,283.58L471.45,284.46L471.39,286.15L471.15,286.96L470.24,288.84L470.18,290.03L469.21,291.53L467.87,292.46L466.35,293.28L464.18,294.84L464.05,295.65L464.11,297.59L463.32,298.9L460.83,298.9L458.83,299.33L458.05,300.09Z" class="land" id="SN-KA" title="Kaffrine"/>
    <path d="M402.81,264.56L402.89,269.86L401.86,272.86L399.98,276.56L400.1,278.06L400.04,279.87L399.43,280.87L400.16,282.19L400.34,283.31L402.46,284.06L403.38,284.56L403.38,286.44L403.98,287.13L404.29,287.94L408.9,291.5L409.2,292.25L408.95,293.75L408.05,294.69L408.05,295.37L408.47,296.87L409.69,297.62L411.69,299.81L412.35,300.06L413.14,299.31L413.81,298.06L415.51,295.88L416.18,295.62L420.48,297.81L422.55,297.81L424.55,298.37L425.34,299L426.6,300.81L426.08,301L424.24,302.34L422.85,303.81L421.72,305.48L420.93,307.79L420.49,309.56L420.41,310.98L418.78,310.95L416.49,311.06L414.64,311L400.52,311.12L396.72,310.99L389.27,311.02L386.61,310.95L386.47,309.63L385.57,309.11L385.4,308.07L384.67,308.07L383.2,306.62L382.53,305.29L382.53,304.3L382.25,302.1L381.91,301.64L380.56,301.05L380.11,300.41L378.64,299.37L377.29,298.65L377.01,295.92L379.26,294.99L379.88,293.6L380.16,291.05L379.88,290L379.82,288.49L379.49,287.68L378.02,287.28L375.94,285.82L378.42,283.38L378.59,282.81L378.53,280.95L378.25,280.48L377.07,279.44L376.67,278.74L375.65,278.39L375.04,277.69L373.74,276.88L372.56,277.05L370.42,276.65L369.74,274.21L369.74,273.39L370.7,272.7L371.32,272.53L373.17,270.95L375.15,268.05L376.61,266.76L377.51,266.88L379.71,266.54L381.91,266.01L384.78,265.49L385.8,265.66L386.13,266.07L388.22,266.07L391.03,266.82L391.77,266.82L392.61,265.66L394.08,264.26L395.26,263.74L397.46,264.91L400.5,264.91L401.68,264.62Z" class="land" id="SN-KL" title="Kaolack"/>
    <path d="M380.61,229.67L386.86,229.55L390.91,230.25L391.59,229.16L396.02,229.16L397,227.99L401.88,227.91L401.95,230.56L403.6,231.18L404.06,232.5L405.48,233.28L407.07,233.59L408.34,234.75L409.02,235.07L413.07,235.3L414.88,236.08L416.98,237.55L418.33,237.79L420.96,236.86L422.01,237.01L423.28,237.55L423.51,238.56L424.04,239.73L426.89,244.08L427.72,245.48L426.82,248.97L425.99,251.69L425.62,252.15L424.44,252.84L423.87,251.21L422.8,250.16L421.79,249.93L418.97,248.59L416.27,247.71L414.24,246.9L413.34,246.38L411.76,245.09L410.24,244.81L409.45,245.45L408.66,245.62L407.42,245.45L406.97,244.92L404.38,242.94L403.59,243.12L402.52,243.87L402.52,244.75L402.86,246.03L402.58,247.83L402.52,249.99L402.13,251.09L401.62,251.85L400.1,253.01L399.48,253.77L398.07,254.82L395.99,255.52L391.31,256.04L389.68,256.16L388.38,256.04L386.13,255.28L385.23,255.58L383.14,254.99L380.95,253.13L378.35,252.26L376.95,252.02L375.88,252.08L374.97,252.49L372.61,252.9L371.54,252.32L370.86,251.56L369.74,251.39L367.48,251.62L366.64,251.33L364.67,251.15L363.82,251.62L362.13,251.39L361.59,251.81L360.92,251.34L360.41,251.57L358.43,251.75L357.52,251.28L356.39,250.23L356,248.98L356.39,247.98L356.9,247.4L357.02,246.52L356.79,244.6L357.02,243.26L356.9,241.97L356.34,241.21L355.1,240.16L354.64,239.98L354.75,239.1L355.27,238.58L355.61,237.7L355.61,236.88L355.21,236.18L354.14,235.07L353.68,234.26L352.44,232.97L353.74,231.68L354.47,231.21L356.96,230.69L359.62,229.93L360.92,229.46L363.57,228L365.27,227.41L367.78,227.21L370.04,227.44L371.96,227.97L374.11,228.15L375.69,229.61L377.55,230.43L377.72,231.37L379.7,231.37L380.61,230.6Z" class="land" id="SN-DB" title="Diourbel"/>
    <path d="M354.24,308L353.18,307.53L353.29,306.65ZM354.82,306.87L354.39,306.35L354.46,305.44L355.1,305.33ZM355.7,298.84L354.74,298.99L354.64,298.36L355.31,297.3L356.24,296.72L356.95,296.57L357.09,297.16L356.34,298.25ZM424.44,252.84L424.27,253.31L422.64,254.01L421.17,254.23L418.19,254.41L415.6,254.41L413.4,256.21L411.77,257.69L410.75,258.45L408.27,258.92L407.04,260.37L406.36,260.72L402.81,264.56L401.68,264.62L400.5,264.91L397.46,264.91L395.26,263.74L394.08,264.26L392.61,265.66L391.77,266.82L391.03,266.82L388.22,266.07L386.13,266.07L385.8,265.66L384.78,265.49L381.91,266.01L379.71,266.54L377.51,266.88L376.61,266.76L375.15,268.05L373.17,270.95L371.32,272.53L370.7,272.7L369.74,273.39L369.74,274.21L370.42,276.65L372.56,277.05L373.74,276.88L375.04,277.69L375.65,278.39L376.67,278.74L377.07,279.44L378.25,280.48L378.53,280.95L378.59,282.81L378.42,283.38L375.94,285.82L378.02,287.28L379.49,287.68L379.82,288.49L379.88,290L380.16,291.05L379.88,293.6L379.26,294.99L377.01,295.92L377.29,298.65L378.64,299.37L380.11,300.41L380.56,301.05L381.91,301.64L382.25,302.1L382.53,304.3L382.53,305.29L383.2,306.62L384.67,308.07L385.4,308.07L385.57,309.11L386.47,309.63L386.61,310.95L383.2,310.9L373,310.92L360.05,310.89L359.95,310.1L359.24,310.39L358.35,308.85L358.41,308.19L359.5,306.82L361.72,306L362.54,305.23L361.82,304.65L362.22,303.25L362.92,302.56L362.84,302.12L362.06,301.73L361.42,302.15L361.72,303.08L360.89,303.94L360.86,304.89L359.61,305.53L358.54,306.76L357.71,307.42L356.91,307.35L356.09,306.55L354.77,303.87L355.55,302.48L355.2,301.45L355.36,300.64L357.31,298.03L359.21,296.35L360.04,297.21L360.33,296.82L360.01,295.92L361.32,295.53L361.82,295.81L362.17,297.54L362.95,298.44L363.64,298.28L363.48,297.1L363,296.44L362.92,295.72L363.24,294.46L362.38,293.94L362.28,293.47L362.89,292.56L363.05,290.74L363.61,289.89L363.69,288.54L363.29,287.8L362.76,288.21L362.92,289.53L362.25,290.08L361.85,290.91L361.26,293.22L360.38,294.87L360.01,295.06L359.32,294.4L358.06,295.23L356.99,295.64L355.58,295.89L354.22,296.47L354.06,297.91L353.65,298.46L352.57,299.22L352.21,300.21L351.29,300.25L350.93,299.88L350.75,298.12L349.76,297.54L349.7,296.36L349.2,295.89L349.25,295.07L349.68,294.08L349.12,292.04L348.96,290.61L349.35,288.99L349.86,288.41L351.52,287.34L352.53,287.12L353.63,287.86L355.52,288.06L355.25,288.77L356.08,288.85L356.46,287.48L356.86,287.06L357.58,287.12L358.35,287.56L358.94,287.37L358.7,285.85L359.68,285.13L358.38,284.96L358.51,283.92L359.66,283.58L361.21,282.62L361.85,281.47L363.18,280.25L363.77,279.21L364.44,278.96L365.67,278.91L366.28,278.44L366.76,277.64L367.43,277.72L368.12,278.3L369.67,278.19L370.55,277.72L370.68,277.12L369.37,277.45L368.22,277.48L367.34,276.67L366.09,276.67L365.66,276.12L365.66,275.16L364.62,276.01L364.59,277.01L365.34,277.83L365.31,278.3L364.19,278.58L362.99,277.75L362.43,278.03L362.49,278.78L361.6,279.49L361.02,280.51L360.38,282.11L359.58,282.83L358.59,282.91L357.42,283.38L356.37,285.17L356.18,285.85L355.28,286.59L353.33,286.79L352.07,285.91L350.85,285.85L350.79,285.33L352.02,284.51L351.88,283.35L353.14,282.88L353.49,281.95L352.02,282.72L350.74,282.91L350.79,284.53L349.78,285.38L349.54,287.12L347.91,288.55L347.88,289.95L348.02,294.63L348.12,295.86L347.44,296.07L347.05,291.67L347.16,290.63L346.91,289.98L346.91,288.61L347.41,287.74L347.64,286.35L347.53,285.61L346.63,284.21L346.51,283.33L347.92,282.13L347.92,281.61L347.3,280.85L346,279.69L346,278.75L347.92,278.69L347.98,277.94L347.13,277.18L347.19,276.48L349.33,275.26L349.39,274.15L348.32,273.22L348.09,271.82L348.71,271.06L349.27,269.89L351.37,263.36L351.93,262.26L352.89,261.67L353.74,261.73L355.32,261.44L356.17,260.21L357.64,259.63L359.56,257.82L360.58,256.42L361.37,253.56L361.59,251.81L362.13,251.39L363.82,251.62L364.67,251.15L366.64,251.33L367.48,251.62L369.74,251.39L370.86,251.56L371.54,252.32L372.61,252.9L374.97,252.49L375.88,252.08L376.95,252.02L378.35,252.26L380.95,253.13L383.14,254.99L385.23,255.58L386.13,255.28L388.38,256.04L389.68,256.16L391.31,256.04L395.99,255.52L398.07,254.82L399.48,253.77L400.1,253.01L401.62,251.85L402.13,251.09L402.52,249.99L402.58,247.83L402.86,246.03L402.52,244.75L402.52,243.87L403.59,243.12L404.38,242.94L406.97,244.92L407.42,245.45L408.66,245.62L409.45,245.45L410.24,244.81L411.76,245.09L413.34,246.38L414.24,246.9L416.27,247.71L418.97,248.59L421.79,249.93L422.8,250.16L423.87,251.21Z" class="land" id="SN-FK" title="Fatick"/>
    <path d="M346.51,283.33L346.29,281.66L345.79,280.37L344.59,278.59L344.43,277.81L343.09,277.95L341.79,276.72L341.56,273.94L340.95,271.92L339.66,270.33L338.14,269.83L338.05,268.84L338.19,267.03L337.79,265.8L337.42,265.47L337.12,264.49L336.49,263.6L334.52,262.06L334,261.41L332.15,260.5L331.37,260.36L331.08,259.33L330.23,258.89L329.81,256.99L328.53,254.57L328.04,254.13L327.4,254.13L326.22,251.57L326.62,250.79L326.89,248.03L327.09,240.94L326.3,239.46L325.7,237.72L324.14,234.87L324.85,234.64L326.97,233.53L327.89,232.46L328.62,230.86L329.96,228.95L334.25,224.07L335.27,223.45L336.83,221.44L337.76,219.6L339.14,217.83L339.63,217.8L341.92,214.59L342.43,214.24L343.57,212.05L345.6,208.88L347.13,206.11L347.68,205.58L348.32,204.4L348.54,203.18L349.14,202.26L350.55,202.42L351.34,203.3L351.28,204.32L350.49,205.66L349.7,206.6L349.3,208.65L348.63,210.29L348.57,210.88L349.87,211.52L350.49,212.23L352.36,213.57L355.8,217.14L355.97,217.79L356.03,219.78L357.32,218.38L358.96,216.27L359.87,214.16L360.66,213.1L361.23,211.99L361.9,211.23L362.3,210.23L363.49,208.95L364.73,208.12L366.82,209.3L370.21,209.42L370.78,209.71L371.68,211.05L371.79,211.76L371.06,212.63L372.24,213.63L373.03,213.16L373.49,212.11L374.28,211.99L375.3,213.16L375.18,214.92L375.58,216.97L377.05,218.84L377.16,219.43L376.88,220.72L377.55,220.78L378.97,221.59L379.7,222.42L379.65,225.16L380.15,226.63L380.66,227.39L380.61,229.67L380.61,230.6L379.7,231.37L377.72,231.37L377.55,230.43L375.69,229.61L374.11,228.15L371.96,227.97L370.04,227.44L367.78,227.21L365.27,227.41L363.57,228L360.92,229.46L359.62,229.93L356.96,230.69L354.47,231.21L353.74,231.68L352.44,232.97L353.68,234.26L354.14,235.07L355.21,236.18L355.61,236.88L355.61,237.7L355.27,238.58L354.75,239.1L354.64,239.98L355.1,240.16L356.34,241.21L356.9,241.97L357.02,243.26L356.79,244.6L357.02,246.52L356.9,247.4L356.39,247.98L356,248.98L356.39,250.23L357.52,251.28L358.43,251.75L360.41,251.57L360.92,251.34L361.59,251.81L361.37,253.56L360.58,256.42L359.56,257.82L357.64,259.63L356.17,260.21L355.32,261.44L353.74,261.73L352.89,261.67L351.93,262.26L351.37,263.36L349.27,269.89L348.71,271.06L348.09,271.82L348.32,273.22L349.39,274.15L349.33,275.26L347.19,276.48L347.13,277.18L347.98,277.94L347.92,278.69L346,278.75L346,279.69L347.3,280.85L347.92,281.61L347.92,282.13Z" class="land" id="SN-TH" title="Thiès"/>
    <path d="M326.22,251.57L325.91,250.55L325.2,249.23L324.56,248.57L322.51,247.18L322.01,246.52L320.81,246.23L319.32,245.27L318.54,245.2L317.19,244.25L316.06,243.81L313.72,243.66L312.09,244.1L310.81,244.84L310.74,245.42L310.03,246.52L310.81,247.25L310.03,248.21L309.4,247.47L307.77,246.81L307.7,245.86L307.2,245.27L306,244.91L305.57,242.86L306,242.05L306.56,242.12L307.34,241.54L308.69,241.83L310.74,241.02L311.45,240.95L312.3,240.36L313.72,239.85L314.22,239.48L315.78,239.19L317.34,238.39L318.25,238.16L319.75,237.21L320.52,237.07L321.73,236.19L324.14,234.87L325.7,237.72L326.3,239.46L327.09,240.94L326.89,248.03L326.62,250.79Z" class="land" id="SN-DK" title="Dakar"/>
    <path d="M541.25,365.02L541.07,363.71L540.76,363.05L539.17,362.78L537.78,363.59L536.02,363.32L535.56,362.78L534.46,362.35L534.13,361.82L534.59,360.59L534.59,358.19L534.3,357.09L533.75,356.72L533.81,355.79L534.56,354.93L534.69,354.4L535.31,353.99L535.41,353.46L534.69,352.56L534.75,351.2L534.53,350.86L533.29,350.63L532.61,349.6L532.9,348.47L532.81,347.87L533.16,347.07L532.51,346.1L532.29,344.73L531.7,344.54L531.67,343.2L529.95,341.6L528.94,341.04L529.1,339.5L528.22,339.27L527.45,338.47L527.45,337.97L526.86,336.94L527.19,336.13L526.54,335.33L526.7,334.16L527.22,333.69L526.83,332.62L526.86,331.82L526.34,330.96L524.59,330.82L524.36,330.59L524.1,328.75L522.31,328.22L522.28,327.42L522.7,326.62L522.64,326.05L521.6,325.18L522.41,324.25L522.51,323.75L521.47,322.95L519.65,323.28L517.64,323.28L518.45,322.04L518.48,320.81L518.71,319.97L520.04,318.97L520.43,317.87L517.7,316.94L516.57,317.14L515.95,317.71L515.49,316.98L516.08,316.4L516.15,315.37L516.57,314.6L516.17,313.57L515.43,313.43L513.71,313.5L513.03,314.8L511.81,314.99L511.32,314.36L509,312.8L506.44,311.79L505.24,312.08L502.45,313.19L501.44,313.23L499.61,312.98L497.34,313.56L493.07,315.53L491.19,317.04L490.41,317.48L486.61,318.56L484.67,318.37L482.71,317.48L480.21,315.91L478.35,314.4L477.69,313.49L476.59,310.46L475.26,308.99L474.19,308.18L472.3,307.28L471.47,307.07L469.46,307.08L467.89,307.52L465.93,308.4L464.71,309.27L463.63,309.41L461.32,308.19L460.44,307.53L459.67,306.63L459.46,304.75L459.04,303.17L458.52,302.1L457.48,301.08L458.05,300.09L458.83,299.33L460.83,298.9L463.32,298.9L464.11,297.59L464.05,295.65L464.18,294.84L466.35,293.28L467.87,292.46L469.21,291.53L470.18,290.03L470.24,288.84L471.15,286.96L471.39,286.15L471.45,284.46L472,283.58L472.18,281.65L471.88,279.83L471.39,279.02L471.21,273.2L468.54,270.07L469.09,254.49L472.4,253.45L474.02,253.21L476.71,253.05L480.25,249.15L482.79,249.15L484.18,247.72L487.33,253.45L514.66,263.95L532.6,263.87L548.63,252.18L564.57,255.36L575.73,254.01L581.28,245.49L583.43,239.65L584.12,237.5L585.44,234.71L585.28,232.8L584.97,231.77L584.28,230.73L581.9,227.54L578.8,223.59L579.33,222.54L580.58,222.46L582.83,223.39L584.06,224.27L586.13,226.33L587.51,227.04L589.34,227.46L590.56,228.14L591.3,229.14L591.81,230.91L592.2,234.37L593.39,235.88L595.02,237.21L597.24,238.34L598.81,238.57L599.29,238.86L601.64,241.31L604.17,242.32L604.41,243.67L605.3,244.02L605.85,244.96L605.73,245.76L606.13,246.35L607.19,246.35L608.69,247.18L607.75,247.9L607.65,248.38L609.1,248.73L609.48,249.13L609.45,250.52L609.22,250.89L607.95,251.53L607.75,252.79L607.37,253.37L607.03,254.69L605.87,254.8L605.42,255.46L605.54,256.2L605.1,258.21L605.53,258.92L606.31,259.39L606.1,260.39L606.81,261.69L606.43,262.46L606.31,263.37L607.27,264.02L608.17,263.98L608.93,264.5L610.37,264.18L610.67,265.26L612,265.18L612.37,265.66L612.02,266.44L612.33,267.32L612.11,268.58L612.42,269.13L615.6,270.23L616.48,270.39L616.56,271.48L618.22,275.68L618.6,276.93L618.63,277.86L618.41,279.72L618.41,281.46L617.12,284.13L616.98,285.21L617.07,286.85L617.44,287.69L618.2,288.72L619.85,290.23L621.05,291.09L621.25,291.46L621.24,292.74L620.77,294.14L620.76,295.75L620.4,297.76L618.97,299.47L617.57,300.72L615.68,302.04L615.06,302.31L613.39,303.47L613.84,304.42L614.76,305.67L615.57,308.61L616.09,309.62L617.5,311.02L618.91,313.51L619.87,314.62L621.39,315.34L622.32,315.96L624.93,318.33L625.24,318.91L625.16,319.97L624.5,321.15L623.84,322.84L622.63,323.64L620.88,323.84L619.52,324.94L618.9,325.81L616.98,327.05L615.94,326.31L616.34,324.71L615.81,323.91L614.61,324.28L612.24,323.44L610.62,322.48L609.61,321.34L608.31,321.07L606.95,320.27L606.36,319.53L604.12,318.39L603.92,318.63L603.7,320.7L602.82,321.33L602.56,321.95L603.37,323.49L605.03,324.79L605.46,325.82L605.13,326.26L602.98,327.09L602.27,327.13L601.3,326.73L600.62,326.76L600.13,327.33L600.06,328.43L599.21,329.36L599.19,330.17L598.18,330.03L597.85,329.46L596.1,328.33L593.86,328.53L592.82,330.19L591.39,330.73L590.87,331.87L590.32,333.7L587.26,334.83L585.93,334.47L584.66,333.57L583.92,333.27L583.49,334.13L581.65,334.37L580.83,335.1L579.8,335L579.37,335.74L579.56,338.07L578.33,338.84L578.07,339.53L576.84,339.8L577.07,341.14L576.48,341.76L575.67,341.09L574.99,341.13L574.08,341.7L573.82,342.77L573.4,343.2L572.13,343.33L571.58,344.03L571.32,345.1L570.47,345.3L569.82,345.13L568.36,344.37L566.61,342.83L565.95,342.73L564.76,341.46L563.55,340.93L562.35,340.9L560.43,341.09L559.07,342.33L558.55,342.5L556.96,342.2L556.47,342.5L555.56,343.87L554.91,343.66L553.45,342.5L552.02,341.86L550.72,341.83L548.87,342.36L548.61,343.3L547.48,344.43L548.91,345.47L550.21,347.1L551.18,347.33L551.92,348.03L552.61,349.43L552.8,350.5L552.51,351.27L551.47,351.63L551.77,352.9L552.41,353.03L552.74,353.8L552.75,355.05L555.24,355.17L555.58,355.94L555.29,356.53L554.37,357.54L553.85,358.78L554.02,361.03L554.89,362.87L553.62,364.28L553.45,364.76L553.54,366.02L552.93,366.45L552.5,366.17L550.97,366.36L550.51,366.87L549.98,366.34L548.59,365.67L547.94,366.17L546.24,365.62L544.83,365.43L543.87,366.01L542.77,366.06Z" class="land" id="SN-TC" title="Tambacounda"/>
  </g>
</svg>