<?xml version="1.0" encoding="UTF-8"?>
<svg xmlns="http://www.w3.org/2000/svg" width="562.73" height="519.3" viewBox="198.63 -2.65 562.73 519.3" style="background-color:#000000">
  <!-- Created using SVG Map Generator: dojo.amcharts.com/svg-map-generator -->
  <style>
    .land { fill: #ffffff; stroke: #000000; stroke-width: 0.65; }
  </style>
  <g id="polygons">
    <path d="M441.95,346.81L437.61,345.71L436.74,348.59L433.81,346.8L435.03,343.95L433.44,341.32L426.9,342.08L428.4,338.88L428.9,331.12L433.84,333.81L439.55,331.59L439.26,334.37L446.94,337.81L445.86,341.04L448.19,342.87L447.07,345.37Z" class="land" id="ZW-BU" title="Bulawayo"/>
    <path d="M618.43,153.09L620.78,155.35L626.17,155.79L625.97,160.36L627.99,166.94L626.35,170.39L622.61,172.37L621.84,179.63L616.43,182.21L612.03,178.11L605.18,173.95L607.33,170.54L604.94,168.76L605.45,162.95L607.59,162.6L610.84,157.26L612.37,158.66L617.18,158.18Z" class="land" id="ZW-HA" title="Harare"/>
    <path d="M713.51,428.97L708.81,424.19L705.71,422.83L703.99,419.12L702.35,412.49L698.03,410.31L697.32,406.72L694.87,404.62L694.11,397.71L698.95,387.92L699.83,382.32L702.16,379.49L704.06,371.09L703.93,364.95L704.98,355.42L706.3,349.86L708,338.14L708.12,330.64L707.12,327.8L699.69,324.39L697.38,321.93L692.45,322.03L688.08,318.93L685.1,318.93L678.18,311.38L676.24,307.34L671.35,302.68L670.35,299.71L665.14,296.54L661.02,292.05L659.91,288.42L653.33,287.41L648.24,282.09L641.94,281.17L635.02,275.62L627.46,271.04L633.26,270.06L633.54,266.6L635.22,264.37L635.29,260.6L639,260.22L644.28,261.45L645.15,263.42L649.3,265.28L651.71,263.7L654.42,258.49L655.44,254.5L659.32,256.78L664.08,255.04L668.33,256.96L671.06,259.73L677.2,262.57L679.55,261.71L681.22,258.86L682.05,252.21L679.73,246.43L676.95,242.53L677.06,237.59L675.36,234.75L671.19,233.58L670.77,230.28L666.01,224.74L666.79,220.73L663.57,216.53L667.06,211.77L672.65,209.81L673.43,204.4L673.17,190.4L674.46,188.15L681.57,188.93L681.86,184.77L693.81,172.3L693.23,169.14L694.78,166.14L700.73,162.57L705,157.61L710.5,153.87L715.05,152.99L718.85,149.1L722.1,149.09L726.68,145.32L728.87,145.12L729.24,140.49L734.98,137.98L738.23,129.65L742.99,127.22L745.57,123.86L754.25,121.61L754.52,126.36L757.93,129.23L756.12,131.49L754.47,136.53L752.01,139.27L753.38,145.36L757.78,148.4L754.82,158.49L755.42,163.23L752.51,163.26L751.41,171.12L752.5,174.61L750.62,176.16L751.07,180.52L754.53,190.76L755.33,196.12L754.85,200.96L758.57,204.94L756.4,207.44L755.73,213.66L751.88,213.97L746.47,217.3L746.57,221.57L751.43,229.93L749.56,235.66L745.98,237.99L741.42,236.79L734.16,240.73L733.65,242.48L735.43,247.94L733.34,248.79L734.93,255.14L740.54,254.54L743.67,255.14L745.96,260.65L743.92,270.9L743.99,275.42L738.76,280.54L738.78,287.82L743.65,289.25L744.02,304.99L748.75,304.56L752.48,302.75L753.23,305.53L751.75,307.9L758.47,312.26L758.72,313.67L755.48,330.32L749.45,332.24L748.99,337.64L745.31,337.37L744.42,340.75L745.42,343.53L745.01,350.7L740.94,354.67L740.49,357.11L735.74,362.97L732.14,369.68L730.35,371.58L723.84,371.53L718.49,375.92L718.9,390.31L720.25,398.48L717.71,404.45L711.07,412.54L709.55,415.45L712.38,418.45L711.88,420.8L717.35,428.81Z" class="land" id="ZW-MA" title="Manicaland"/>
    <path d="M737.21,81.25L732.62,83.89L729.64,82.81L725.79,84.01L720.81,81.59L715.72,81.25L707.28,84.38L704.01,84.52L700.37,86.89L697.19,85.97L690.16,89.11L686.99,88.97L683.63,92.39L684.3,96.18L680.55,98.05L679.17,101.35L676.3,104.42L676.8,106.29L673.49,109.16L671.81,113.01L672.74,114.99L663.93,119.17L665.17,120.84L665.02,126.04L658.85,131.23L655.51,136.83L649.9,139.05L647.4,143.87L639.6,149.14L636.52,149.14L632.13,151.09L631.57,148.58L634.44,139.72L626.89,138.77L622.44,137.6L620.3,140.94L620.24,145.58L618.43,153.09L617.18,158.18L612.37,158.66L610.84,157.26L610.27,154.41L607.49,153.4L605.81,155.29L600.68,152.2L595.69,150.27L596.74,145.01L584.12,145.26L584.42,131.79L588.37,120.71L591.99,114.06L592.87,108.48L587.49,106.24L584.32,108.33L580.03,107.32L579.23,101.24L577,90.27L579.35,86.37L577.54,79.71L569.98,76.97L567.31,73.25L569.84,66.28L570.1,61.78L571.57,58.4L569.87,53.87L564.69,54.08L562.1,50.23L557.89,48.5L556.01,49.83L554.2,55.11L544.14,57.51L544.71,54.41L547.12,51.3L547.02,45.81L550.51,42.13L548.69,40.5L546.54,35.94L546.33,32.09L544.38,30.42L543.7,27.12L550.52,22.7L559.8,15.17L563.25,11.74L563.71,9.56L561.29,7.29L560.78,2.47L566.43,3.04L570.65,0.65L571.16,2.89L570.93,22.84L571.1,28.98L606.6,28.98L610.84,33.36L614.3,30.38L622.14,27.67L627.48,29.55L629.56,28.98L634.03,31L640.96,39.16L650.98,42.65L661.43,43.95L667.07,46.55L671.34,51.87L675.84,53.96L677.24,59.64L686.08,61.83L703.75,61.25L712.78,63.85L724.45,68.84L733.97,73.55L733.56,79.49Z" class="land" id="ZW-MC" title="Mashonaland Central"/>
    <path d="M754.25,121.61L745.57,123.86L742.99,127.22L738.23,129.65L734.98,137.98L729.24,140.49L728.87,145.12L726.68,145.32L722.1,149.09L718.85,149.1L715.05,152.99L710.5,153.87L705,157.61L700.73,162.57L694.78,166.14L693.23,169.14L693.81,172.3L681.86,184.77L681.57,188.93L674.46,188.15L673.17,190.4L673.43,204.4L672.65,209.81L667.06,211.77L663.57,216.53L666.79,220.73L666.01,224.74L670.77,230.28L671.19,233.58L675.36,234.75L677.06,237.59L676.95,242.53L679.73,246.43L682.05,252.21L681.22,258.86L679.55,261.71L677.2,262.57L671.06,259.73L668.33,256.96L664.08,255.04L659.32,256.78L655.44,254.5L654.42,258.49L651.71,263.7L649.3,265.28L645.15,263.42L644.28,261.45L639,260.22L635.29,260.6L635.22,264.37L633.54,266.6L633.26,270.06L627.46,271.04L619.16,271.59L612.26,272.64L611.86,265.44L605.95,264.16L605.38,271.57L602.38,273.63L592.04,265.65L592.49,260.01L588.84,254.29L590.87,251.13L589.59,247.2L583.31,248.22L576.47,244.65L583.67,237.38L583.73,230.5L587.18,232.01L591.4,224.67L594.98,219.58L595.44,209.38L597.12,206.96L591.47,199.82L591,194.72L594.9,191.58L594.51,189.2L597.46,183.47L596.22,178.94L598.41,176.76L598.43,173.91L602.02,172.38L605.18,173.95L612.03,178.11L616.43,182.21L621.84,179.63L622.61,172.37L626.35,170.39L627.99,166.94L625.97,160.36L626.17,155.79L620.78,155.35L618.43,153.09L620.24,145.58L620.3,140.94L622.44,137.6L626.89,138.77L634.44,139.72L631.57,148.58L632.13,151.09L636.52,149.14L639.6,149.14L647.4,143.87L649.9,139.05L655.51,136.83L658.85,131.23L665.02,126.04L665.17,120.84L663.93,119.17L672.74,114.99L671.81,113.01L673.49,109.16L676.8,106.29L676.3,104.42L679.17,101.35L680.55,98.05L684.3,96.18L683.63,92.39L686.99,88.97L690.16,89.11L697.19,85.97L700.37,86.89L704.01,84.52L707.28,84.38L715.72,81.25L720.81,81.59L725.79,84.01L729.64,82.81L732.62,83.89L737.21,81.25L747.1,82.5L749.23,81.09L753.18,81.53L752.33,86.39L748.44,95.45L742.99,97.44L750.29,108.46L753.74,116.71Z" class="land" id="ZW-ME" title="Mashonaland East"/>
    <path d="M416.4,133.06L420.39,133.33L423.31,131.85L431.17,130.55L436.77,133.92L438.03,130.77L441.75,126.62L446.63,118.77L448.89,118.68L451.89,115.79L454.87,114.54L461.05,114.38L464.53,112.92L467.01,118L470.72,120.79L481.16,125.51L486.3,125.77L488.52,128.21L488.79,131.49L492.13,133.74L494.97,137.28L498.25,138.7L492.34,147.36L493.55,148.56L493.47,155.26L491.24,157.49L492.58,160.47L490.5,162.91L488.35,169.15L485.08,174.58L484.15,178.59L485.76,184.62L489.89,192L494.3,194.15L496.51,197.78L499.39,198.44L510.64,205.74L508.7,212.08L508.79,220.7L512.64,221.23L516.01,224.09L521.22,223.79L524.53,225.42L527.63,228.49L532.78,230.43L537.89,229.8L544.51,230.49L546.86,231.9L550.92,231.73L555.66,233.31L556.52,235.93L560.28,238.03L563.24,237.54L566.97,240.89L573.64,244.25L576.47,244.65L583.31,248.22L589.59,247.2L590.87,251.13L588.84,254.29L592.49,260.01L592.04,265.65L602.38,273.63L590.5,283.19L594.38,283.83L594.91,286.43L592.04,287.21L592.27,291.5L590.65,297.17L591.52,303.13L589.46,314.61L590.1,318.4L585.29,318.59L577.87,316.78L573.69,317.31L573.65,323.47L571.8,324.48L571.68,328.42L560.9,328.73L556.09,330.76L553.73,333.38L552.76,342.05L555.58,342.49L560.89,346.52L558.2,352.87L558.99,355.1L563.2,356.7L573.29,370.27L573.25,375.23L576.11,382.8L573.77,391.38L573.24,401.64L569.97,405.96L566.74,408.31L560.4,407.21L558.12,408.03L552.24,407.13L547.18,404.69L545.51,402.31L539.87,398.5L536.79,398.92L525.74,407.78L522.18,406.9L515.82,406.97L512.33,407.99L503.61,406.92L504.13,404.89L513.43,398.11L515.19,394.93L516.23,387.2L518.71,378.28L513.33,379.11L511.61,376.56L513.54,371.82L519.71,367.98L521.81,363.16L522.19,359.43L526.17,346.7L526.1,344.61L531.94,333.36L530.97,329.39L526.88,329.29L526.67,325.5L519.11,326.85L518.02,321.8L512.18,323.95L509.57,320.37L504.56,317.61L499.13,319.27L499.15,307.24L496.14,305.01L494.95,301.81L491.8,298.95L489.06,292.97L485.69,289.52L479.68,283.22L476.05,281.16L478.5,277.67L477.27,275.55L469.27,266.5L469.64,258.95L467.78,254.76L465.12,254.23L461.09,238.95L460.61,232.08L471.43,228.85L477.81,226.39L478.81,225.09L477.39,221.05L469.07,221.45L454.94,220.96L447.86,219.47L442.13,220.18L437.98,219.74L432.77,220.66L426.67,220.2L423.6,220.87L415.29,220.65L406.07,218.53L402.67,219.38L398.28,218.75L398.56,213.75L398.08,195.97L402.2,192.63L401.68,189.22L402.59,182.9L399.81,182.49L397.94,178.35L402.72,172.58L404.16,166.17L403.18,161.76L406,158.29L409.05,157.84L411.83,153.4L413.14,146.85L413,142.35Z" class="land" id="ZW-MI" title="Midlands"/>
    <path d="M399.34,94.31L400.59,99.35L399.76,102.12L401.48,104.97L402,108.6L404.89,113.35L407.66,113.59L407.74,116.64L410.02,125.94L414.09,129.3L416.4,133.06L413,142.35L413.14,146.85L411.83,153.4L409.05,157.84L406,158.29L403.18,161.76L404.16,166.17L402.72,172.58L397.94,178.35L399.81,182.49L402.59,182.9L401.68,189.22L402.2,192.63L398.08,195.97L398.56,213.75L398.28,218.75L402.67,219.38L406.07,218.53L415.29,220.65L423.6,220.87L426.67,220.2L432.77,220.66L437.98,219.74L442.13,220.18L447.86,219.47L454.94,220.96L469.07,221.45L477.39,221.05L478.81,225.09L477.81,226.39L471.43,228.85L460.61,232.08L461.09,238.95L465.12,254.23L467.78,254.76L469.64,258.95L469.27,266.5L477.27,275.55L478.5,277.67L476.05,281.16L479.68,283.22L485.69,289.52L484.79,291.84L477.7,290.5L475.88,292.57L478.58,295.46L477.26,299.86L473.37,302.76L476.9,306.33L476.25,314.83L472.61,317.78L466.2,315.41L468.73,324.71L459.54,334.73L453.86,339.83L449.75,349.04L445.91,351.7L441.95,346.81L447.07,345.37L448.19,342.87L445.86,341.04L446.94,337.81L439.26,334.37L439.55,331.59L433.84,333.81L428.9,331.12L428.4,338.88L426.9,342.08L433.44,341.32L435.03,343.95L433.81,346.8L431.54,347.03L429.14,350.91L425.9,351.06L423.32,354.8L420.95,349.27L419.78,349.23L413.92,342.96L411.93,338.38L407.21,335.68L400.36,336.45L397.63,337.78L393.93,333.35L392.39,339.04L390.46,342.95L386.31,342.07L382.28,339.3L377.97,334.16L375.01,332.34L368.83,326L367.78,321.84L364.6,317.59L359.68,316.69L355.26,313.39L350.15,313.08L346.56,314.62L337.63,313.2L327.55,314.83L325.34,314.1L319.21,314.8L309.65,318.2L305.3,321.01L299.59,320.37L296.66,314.39L290.73,310.79L285.36,309.05L283.07,304.25L278.46,303.16L280.32,299.88L277.3,297.13L273.08,297.79L267.5,294.51L265.45,286.71L258.75,269.86L253.97,263.59L252.68,260.24L255.07,256.27L254.76,253.2L251.45,246.51L242.8,241.49L240.69,234.97L241.21,229.92L240.24,225.74L237.76,223.47L235,222.98L230.25,215.59L227.81,214.72L221.61,207.03L219.31,200.31L214.35,190L209.77,184.86L207.34,183.93L204.49,178.94L203.48,174.84L201.28,171.92L201.31,168.87L203.13,163.07L211.49,167.18L218.56,166.92L221.08,168.42L223.71,166.36L229.15,166.6L232.25,164.49L239.13,167.13L242.06,169.83L244.41,170.17L246.87,176.35L253.84,178.55L256.68,176.46L262.17,176.95L263.08,172.9L270.49,170.06L273.05,171.98L277.5,173.39L284.62,173.53L292.32,177.17L295.72,177.37L298.58,182.05L304.88,184.05L307.93,180.77L312.41,180.1L315.02,177.13L319.3,177.24L327.76,174.61L329.65,175.45L333.14,170.56L337.61,166.75L337.44,163.23L342.5,157.28L349.13,148.1L365.72,135.01L370.96,128.64L371.95,121.69L386.1,100.54Z" class="land" id="ZW-MN" title="Matabeleland North"/>
    <path d="M485.69,289.52L489.06,292.97L491.8,298.95L494.95,301.81L496.14,305.01L499.15,307.24L499.13,319.27L504.56,317.61L509.57,320.37L512.18,323.95L518.02,321.8L519.11,326.85L526.67,325.5L526.88,329.29L530.97,329.39L531.94,333.36L526.1,344.61L526.17,346.7L522.19,359.43L521.81,363.16L519.71,367.98L513.54,371.82L511.61,376.56L513.33,379.11L518.71,378.28L516.23,387.2L515.19,394.93L513.43,398.11L504.13,404.89L503.61,406.92L512.33,407.99L515.82,406.97L522.18,406.9L523.95,411.29L528.49,415L529.88,419.32L532.3,420.06L532.65,423.18L537.52,432.08L540.78,433.48L544.47,438.85L548.54,443.03L552.01,442.91L556.01,446.42L558.17,446.55L558.84,450.21L566.31,450.71L574.04,454.55L576.85,455.09L576.87,458.4L579.77,460.71L581.74,459.97L588.2,464.54L588.88,467.6L596.06,474.67L595.39,477.18L601.87,482.94L604.04,487.97L607.49,488.3L608.86,493.58L611.13,494.31L613.38,500.64L618.79,504.76L616.92,507.96L607.14,504.82L600.39,504.11L591.35,506.04L588.12,505.57L586.39,507.22L582.24,506.18L580.24,507.16L575.72,505.99L568.08,508.65L561.52,509.07L557.3,504.41L549.83,505.57L542.08,499.25L538.68,498.89L535.53,496.25L532.6,496.61L526.94,494.37L524.69,492.51L517.49,492.31L512.45,493.51L507.98,493.38L507.18,495.33L503.52,494.41L495.26,496.76L490.01,490.99L487.25,486.3L482.81,487.76L477.14,486.43L473.45,483.37L471.11,476.43L473.97,466.49L468.45,464.11L465.45,464.43L454.89,461.31L453.15,459.77L446.1,456.96L445,455.27L438.69,453.41L433.21,456.07L427.11,453.62L424.38,451.48L417.98,450.76L412.53,451.75L406.12,449.88L400.42,449.53L395.87,444.31L396.46,439.91L392.3,432.75L391.17,428.16L383.35,418.6L377.24,413.18L375.86,410.04L376.18,405.91L377.74,402.54L376.32,401.01L376.15,395.84L377.81,393.5L379.3,386.55L379.12,383.14L377.31,379.46L377.23,374.77L378.99,370.32L375.71,366.15L371.43,365.64L367.72,366.53L360.88,364.87L358.32,365.79L352.49,364.88L347.27,366.73L348.09,360.74L348.19,351.67L347.01,346.04L345.63,344.89L344.25,339.71L341.34,335.5L334.76,335.25L330.97,330.61L324.67,330.42L320.53,328.66L313.31,327.56L312.21,324.99L306.79,324.64L305.3,321.01L309.65,318.2L319.21,314.8L325.34,314.1L327.55,314.83L337.63,313.2L346.56,314.62L350.15,313.08L355.26,313.39L359.68,316.69L364.6,317.59L367.78,321.84L368.83,326L375.01,332.34L377.97,334.16L382.28,339.3L386.31,342.07L390.46,342.95L392.39,339.04L393.93,333.35L397.63,337.78L400.36,336.45L407.21,335.68L411.93,338.38L413.92,342.96L419.78,349.23L420.95,349.27L423.32,354.8L425.9,351.06L429.14,350.91L431.54,347.03L433.81,346.8L436.74,348.59L437.61,345.71L441.95,346.81L445.91,351.7L449.75,349.04L453.86,339.83L459.54,334.73L468.73,324.71L466.2,315.41L472.61,317.78L476.25,314.83L476.9,306.33L473.37,302.76L477.26,299.86L478.58,295.46L475.88,292.57L477.7,290.5L484.79,291.84Z" class="land" id="ZW-MS" title="Matabeleland South"/>
    <path d="M602.38,273.63L605.38,271.57L605.95,264.16L611.86,265.44L612.26,272.64L619.16,271.59L627.46,271.04L635.02,275.62L641.94,281.17L648.24,282.09L653.33,287.41L659.91,288.42L661.02,292.05L665.14,296.54L670.35,299.71L671.35,302.68L676.24,307.34L678.18,311.38L685.1,318.93L688.08,318.93L692.45,322.03L697.38,321.93L699.69,324.39L707.12,327.8L708.12,330.64L708,338.14L706.3,349.86L704.98,355.42L703.93,364.95L704.06,371.09L702.16,379.49L699.83,382.32L698.95,387.92L694.11,397.71L694.87,404.62L697.32,406.72L698.03,410.31L702.35,412.49L703.99,419.12L705.71,422.83L708.81,424.19L713.51,428.97L711.91,430.06L694.8,448.88L673.79,472.5L668.89,477.59L655.7,492.47L639.32,510.26L634.03,514L631.26,509.93L627.87,510.11L623.23,506.94L616.92,507.96L618.79,504.76L613.38,500.64L611.13,494.31L608.86,493.58L607.49,488.3L604.04,487.97L601.87,482.94L595.39,477.18L596.06,474.67L588.88,467.6L588.2,464.54L581.74,459.97L579.77,460.71L576.87,458.4L576.85,455.09L574.04,454.55L566.31,450.71L558.84,450.21L558.17,446.55L556.01,446.42L552.01,442.91L548.54,443.03L544.47,438.85L540.78,433.48L537.52,432.08L532.65,423.18L532.3,420.06L529.88,419.32L528.49,415L523.95,411.29L522.18,406.9L525.74,407.78L536.79,398.92L539.87,398.5L545.51,402.31L547.18,404.69L552.24,407.13L558.12,408.03L560.4,407.21L566.74,408.31L569.97,405.96L573.24,401.64L573.77,391.38L576.11,382.8L573.25,375.23L573.29,370.27L563.2,356.7L558.99,355.1L558.2,352.87L560.89,346.52L555.58,342.49L552.76,342.05L553.73,333.38L556.09,330.76L560.9,328.73L571.68,328.42L571.8,324.48L573.65,323.47L573.69,317.31L577.87,316.78L585.29,318.59L590.1,318.4L589.46,314.61L591.52,303.13L590.65,297.17L592.27,291.5L592.04,287.21L594.91,286.43L594.38,283.83L590.5,283.19Z" class="land" id="ZW-MV" title="Masvingo"/>
    <path d="M560.78,2.47L561.29,7.29L563.71,9.56L563.25,11.74L559.8,15.17L550.52,22.7L543.7,27.12L544.38,30.42L546.33,32.09L546.54,35.94L548.69,40.5L550.51,42.13L547.02,45.81L547.12,51.3L544.71,54.41L544.14,57.51L554.2,55.11L556.01,49.83L557.89,48.5L562.1,50.23L564.69,54.08L569.87,53.87L571.57,58.4L570.1,61.78L569.84,66.28L567.31,73.25L569.98,76.97L577.54,79.71L579.35,86.37L577,90.27L579.23,101.24L580.03,107.32L584.32,108.33L587.49,106.24L592.87,108.48L591.99,114.06L588.37,120.71L584.42,131.79L584.12,145.26L596.74,145.01L595.69,150.27L600.68,152.2L605.81,155.29L607.49,153.4L610.27,154.41L610.84,157.26L607.59,162.6L605.45,162.95L604.94,168.76L607.33,170.54L605.18,173.95L602.02,172.38L598.43,173.91L598.41,176.76L596.22,178.94L597.46,183.47L594.51,189.2L594.9,191.58L591,194.72L591.47,199.82L597.12,206.96L595.44,209.38L594.98,219.58L591.4,224.67L587.18,232.01L583.73,230.5L583.67,237.38L576.47,244.65L573.64,244.25L566.97,240.89L563.24,237.54L560.28,238.03L556.52,235.93L555.66,233.31L550.92,231.73L546.86,231.9L544.51,230.49L537.89,229.8L532.78,230.43L527.63,228.49L524.53,225.42L521.22,223.79L516.01,224.09L512.64,221.23L508.79,220.7L508.7,212.08L510.64,205.74L499.39,198.44L496.51,197.78L494.3,194.15L489.89,192L485.76,184.62L484.15,178.59L485.08,174.58L488.35,169.15L490.5,162.91L492.58,160.47L491.24,157.49L493.47,155.26L493.55,148.56L492.34,147.36L498.25,138.7L494.97,137.28L492.13,133.74L488.79,131.49L488.52,128.21L486.3,125.77L481.16,125.51L470.72,120.79L467.01,118L464.53,112.92L461.05,114.38L454.87,114.54L451.89,115.79L448.89,118.68L446.63,118.77L441.75,126.62L438.03,130.77L436.77,133.92L431.17,130.55L423.31,131.85L420.39,133.33L416.4,133.06L414.09,129.3L410.02,125.94L407.74,116.64L407.66,113.59L404.89,113.35L402,108.6L401.48,104.97L399.76,102.12L400.59,99.35L399.34,94.31L407.94,90.25L417.47,82.31L444.03,71.4L450.7,70.15L455.43,66.4L458.77,57.05L456.83,52.85L459.28,48.27L457.77,45.51L458.25,41.12L459.78,38.12L458.42,33.21L463.26,25.04L470.64,24.66L474.17,20.08L485.74,11.46L488.52,11.08L495.37,7.49L500.49,5.93L505.21,5.66L508.38,2.74L514.39,3.9L528.06,0L536.17,1.07L538.48,2.49L549.76,0.82L552.72,0.86L556.26,3.91L559.36,1.27Z" class="land" id="ZW-MW" title="Mashonaland West"/>
  </g>
</svg>