<?xml version="1.0" encoding="UTF-8"?>
<svg xmlns="http://www.w3.org/2000/svg" width="652.87" height="519.3" viewBox="153.56 -2.65 652.87 519.3" style="background-color:#000000">
  <!-- Created using SVG Map Generator: dojo.amcharts.com/svg-map-generator -->
  <style>
    .land { fill: #ffffff; stroke: #000000; stroke-width: 0.65; }
  </style>
  <g id="polygons">
    <path d="M597.92,404.44L576.71,404.86L575.51,407.12L575.69,415.41L553.09,415.5L545.55,408.39L542.13,408.44L537.03,393.19L535.49,388.21L538.18,373.62L543.71,370.43L546.48,367.59L549.93,366.17L548.41,359.07L549.44,357.22L544.31,350.43L540.92,340.1L533.6,334.69L531.71,328.64L531.26,322.12L533.31,316.16L533.53,310.8L537.51,307.82L539.28,308.85L543.42,306.22L544.69,304.16L545.85,298.22L550.55,297.42L551.38,293.8L562.18,288.08L567.6,286.09L569.64,286.3L568.67,290.21L570.15,292.5L569.45,301.56L566.23,309.13L563.52,308.46L561.85,310.75L564.44,314.6L564.9,320.26L566.69,324.3L565.95,327.39L568.9,331.67L570.33,336.6L575.12,338.22L577.88,344L577.28,348.17L579.68,352.77L581.89,351.35L584.19,347.42L586.7,346.56L586.17,347.94L587.62,356.62L585.49,365.55L592.21,375.08L595.67,378.99L590.86,388.31Z" class="land" id="SD-NW" title="An Nīl al Abyaḑ"/>
    <path d="M724.95,324.36L724.74,327.43L721.73,336.49L723.14,341.45L721.06,344.74L718.58,353.46L714.72,360.19L709.74,377.79L710.75,379.29L709.69,387.75L705.79,386.18L695.01,388.62L692.1,388.42L686.89,385.7L682.93,386.42L677.77,385.43L670.05,379.27L668.15,379.46L663.83,377.31L657.76,372.19L655.92,368.31L651.41,368.32L648.26,365.34L640.41,356.33L637.52,349.88L631.72,344.94L624.94,333.79L623.62,329.04L629.72,319.22L637.07,308.49L637.95,305.94L634.95,300.42L627.03,287.96L614.88,283.76L612.5,283.72L611.54,278.22L609.47,275.84L612.95,268.01L615.3,266.86L621.6,265.97L627.54,265.94L633.81,267.49L641.54,267.65L653.77,274.08L658.93,278.97L682.21,292.8L694.38,300.28L700.2,300.43L701.01,303.48L699.02,307.82L699.02,317.57L700.05,320.99L703,324.57L709.19,325.1L714.64,321.83L717.88,322.44L720.17,324.72Z" class="land" id="SD-GD" title="Al Qaḑārif"/>
    <path d="M641.54,267.65L633.81,267.49L627.54,265.94L621.6,265.97L615.3,266.86L612.95,268.01L609.47,275.84L604.19,277.53L598.23,281.63L594.92,286.38L590.72,283.74L582.32,283.97L575.75,281.05L575.41,283.74L573.1,286.14L569.64,286.3L567.6,286.09L562.18,288.08L556.36,276.17L555.03,271.12L548.47,260.65L544.71,255.96L537.43,239.72L534.39,233.89L543.44,229.57L543.86,228.96L555.86,239.97L576.42,240.71L582.41,245.22L587.66,245.22L596.14,248.87L604.88,248.77L607.28,251.17L612.16,253.95L619.71,256.44L625.52,255.38L635.88,252.17L641.1,264.66Z" class="land" id="SD-KH" title="Al Kharţūm"/>
    <path d="M635.88,252.17L625.52,255.38L619.71,256.44L612.16,253.95L607.28,251.17L604.88,248.77L596.14,248.87L587.66,245.22L582.41,245.22L576.42,240.71L555.86,239.97L543.86,228.96L563.24,200.97L555.84,180.28L559.98,167.94L563.02,163.77L573.15,154.41L558.94,139.8L561.28,106.61L561.17,93.49L565.7,10.48L565.66,9.23L594.13,9.15L609.36,20.8L609.99,20.8L598.06,30.04L600.39,32.74L600.93,40.68L598.95,43.33L598.67,54.21L601.78,56.23L603.99,59.38L608.94,61.99L613.97,72.95L613.98,80.04L615.08,119.29L631.24,159.4L642.71,162.68L648.72,165L653.35,168.57L662.03,178.7L666.82,186.51L670.43,190.61L676.33,195.87L681.41,199.11L685.76,203.2L691.67,207.14L692.38,236.1L690.25,239.4L684.86,242.16L681.18,242.32L642.5,242.78Z" class="land" id="SD-NR" title="Nahr an Nīl"/>
    <path d="M255.12,371.43L252.85,371.65L253.2,376.97L250.09,377.56L250.54,381.69L243.64,381.81L242.72,383.11L233.96,384.06L232.24,387.07L229.59,387.19L229.59,397.33L228.9,401.45L226.48,405.93L226.48,412.65L228.44,414.41L228.56,419.35L227.06,422.53L226.6,430.53L227.7,438.66L222.78,445.17L220.3,446.7L201.48,465.82L195.84,457.55L200.06,446.42L198.48,437.83L192.43,438.39L191.08,435.55L187.52,433.95L183.8,429.8L183.36,426.89L186.63,412.9L183.6,412.72L186.2,410.98L190.23,403.59L188.19,399.68L188.4,395.38L185.73,387.99L196.32,378.45L195.98,376.26L199.27,372.75L198.31,370.75L201.98,365.54L205.83,365.77L208.52,359.58L213.34,356.73L217.77,353.18L224.57,356.22L228.33,356.95L230.36,360.67L236.16,360.76L241.78,365.78L247.67,365.11L248.04,361.61L256.05,358.49L260.29,359.72L265.17,359.44L264.99,361.9L262.69,366.95L260.54,368.72L256.81,369.48Z" class="land" id="SD-DC" title="Wasaţ Dārfūr Zālinja"/>
    <path d="M387.26,501.96L390.27,509.25L385.98,509.69L380.7,509.07L366.61,508.69L356.45,509.78L344.58,514L341.58,513.77L331.02,510.52L328.04,506.91L325.03,497.2L320.13,492.33L318.4,489.11L313.94,486.89L314.05,479L313.14,477.9L313.22,472.08L308.6,466.82L304.25,459.36L304.25,452.26L301.97,449.79L297.9,449.02L298.04,442.75L296.65,440.99L292.3,439.86L289.81,437.04L287.97,431.21L288.89,412.86L288.53,408.91L292.85,405.04L292.76,395.05L292.12,392.59L293.5,390.05L293.06,377.08L295.36,377.29L300.56,377.81L300.88,381.51L307.64,385.28L310.81,385.41L319.89,396.36L319.94,398.78L313.5,399.67L312.26,401.07L315.07,406.54L317.88,408.55L319.23,411.42L322.96,412.59L323.54,416.53L325.08,418.87L330.24,420.52L335.01,420.3L341.92,421.76L346.1,424.57L348.52,425.02L355.01,423.11L364.45,423.54L364.45,428.64L365.78,446.42L368,455.27Z" class="land" id="SD-DE" title="Sharq Dārfūr"/>
    <path d="M373.75,233.94L352.13,233.96L355.59,287.77L357.88,298.91L362.08,304.82L364.51,314.8L362.01,318.29L360.09,336.69L372.84,336.46L373.06,345.79L375.83,350.01L375.17,356.02L370.39,361.93L369.75,368.74L361.16,378.93L360.36,383.72L360.32,393.59L356.96,400.14L358.51,405.72L357.98,410.37L364.2,420.47L364.45,423.54L355.01,423.11L348.52,425.02L346.1,424.57L341.92,421.76L335.01,420.3L330.24,420.52L325.08,418.87L323.54,416.53L322.96,412.59L319.23,411.42L317.88,408.55L315.07,406.54L312.26,401.07L313.5,399.67L319.94,398.78L319.89,396.36L310.81,385.41L307.64,385.28L300.88,381.51L300.56,377.81L295.36,377.29L291.43,376.94L286.38,376.33L281.41,377.78L277.77,377.46L275.55,375.57L272.3,375.06L268.96,371.95L257.34,371.89L255.12,371.43L256.81,369.48L260.54,368.72L262.69,366.95L264.99,361.9L265.17,359.44L260.29,359.72L256.05,358.49L248.04,361.61L247.67,365.11L241.78,365.78L236.16,360.76L230.36,360.67L228.33,356.95L224.57,356.22L217.77,353.18L213.34,356.73L208.52,359.58L205.23,352.83L206.61,349.06L203.64,346.08L203.57,343.87L206.26,338.25L208.4,336.11L207.03,330.7L203.3,328L203.71,320.37L198.7,314.54L194.66,316.3L192.17,313.38L193.76,299.66L191,297.2L195.59,292.02L198.28,291.04L197.95,288.71L200.59,285.84L200.22,278.67L197.9,276.69L197.74,273.66L205.33,266.86L214.25,267.8L220.52,265.76L226.22,264.93L239.37,267.06L239.31,92.34L278.02,92.19L374.42,92.34Z" class="land" id="SD-DN" title="Shamāl Dārfūr"/>
    <path d="M255.12,371.43L257.34,371.89L268.96,371.95L272.3,375.06L275.55,375.57L277.77,377.46L281.41,377.78L286.38,376.33L291.43,376.94L293.06,377.08L293.5,390.05L292.12,392.59L292.76,395.05L292.85,405.04L288.53,408.91L288.89,412.86L287.97,431.21L289.81,437.04L292.3,439.86L296.65,440.99L298.04,442.75L297.9,449.02L301.97,449.79L304.25,452.26L304.25,459.36L308.6,466.82L313.22,472.08L313.14,477.9L310.88,477.03L307.59,478.13L302.32,478.45L296.79,480.14L290.67,481.24L287.23,480.93L281.07,482.18L278.56,486.87L279.06,490.33L275.11,497.64L270.08,500.58L269.43,502.19L264.88,502.08L262.67,503.2L256.78,502.26L254.57,503.76L249.04,503.76L241.49,508.06L226.81,508.06L227.61,506.72L226.46,497.93L212.28,475L210.81,474.21L205.63,468.49L201.48,465.82L220.3,446.7L222.78,445.17L227.7,438.66L226.6,430.53L227.06,422.53L228.56,419.35L228.44,414.41L226.48,412.65L226.48,405.93L228.9,401.45L229.59,397.33L229.59,387.19L232.24,387.07L233.96,384.06L242.72,383.11L243.64,381.81L250.54,381.69L250.09,377.56L253.2,376.97L252.85,371.65Z" class="land" id="SD-DS" title="Janūb Dārfūr"/>
    <path d="M208.52,359.58L205.83,365.77L201.98,365.54L198.31,370.75L199.27,372.75L195.98,376.26L196.32,378.45L185.73,387.99L188.4,395.38L188.19,399.68L190.23,403.59L186.2,410.98L183.6,412.72L180.92,413.98L180.95,408.92L179.07,404.03L178.22,399.44L176.29,397.31L178.15,394.63L179.63,390.07L169.55,385.06L167.16,388.41L159.61,389.62L156.39,385.7L156.21,379.84L159.01,373.28L162.41,369.73L167.1,368.48L172.89,361.24L170.44,357.18L170.16,352.61L167.55,350.42L165.46,344.26L170.86,337.43L177.09,333.34L182.65,330.6L183.5,326.17L180.44,326.08L178.59,323.99L179.21,316.07L176.76,315.1L177.81,311.53L189.65,307.91L187.87,301.41L191.19,299.25L191,297.2L193.76,299.66L192.17,313.38L194.66,316.3L198.7,314.54L203.71,320.37L203.3,328L207.03,330.7L208.4,336.11L206.26,338.25L203.57,343.87L203.64,346.08L206.61,349.06L205.23,352.83Z" class="land" id="SD-DW" title="Gharb Dārfūr"/>
    <path d="M387.26,501.96L368,455.27L365.78,446.42L364.45,428.64L364.45,423.54L364.2,420.47L357.98,410.37L358.51,405.72L356.96,400.14L360.32,393.59L360.36,383.72L361.16,378.93L369.75,368.74L370.39,361.93L375.17,356.02L375.83,350.01L373.06,345.79L372.84,336.46L372.94,333.95L394.99,334.23L400.3,336.06L410.74,337.79L414.07,339.17L414.37,341.07L417.98,344.18L425.35,344.48L441.86,357.67L445.76,359.95L452.17,361.61L454.01,371.61L458.14,381.74L459.91,386.2L459.11,392.26L457.18,396.23L454.05,398.57L452.01,401.93L450.28,412.2L443.02,418.76L440.59,422.42L440.39,425.63L446.36,431.61L450.27,444.97L449.73,447.84L445.8,449.87L444.47,452.16L444.13,457.53L463.75,477.02L467.57,482.84L466.85,483.65L453,490.93L453.06,503.96L435.48,504.31L432.33,506.96L432.33,485.99L387.2,486.55Z" class="land" id="SD-GK" title="Gharb Kurdufān"/>
    <path d="M586.7,346.56L584.19,347.42L581.89,351.35L579.68,352.77L577.28,348.17L577.88,344L575.12,338.22L570.33,336.6L568.9,331.67L565.95,327.39L566.69,324.3L564.9,320.26L564.44,314.6L561.85,310.75L563.52,308.46L566.23,309.13L569.45,301.56L570.15,292.5L568.67,290.21L569.64,286.3L573.1,286.14L575.41,283.74L575.75,281.05L582.32,283.97L590.72,283.74L594.92,286.38L598.23,281.63L604.19,277.53L609.47,275.84L611.54,278.22L612.5,283.72L614.88,283.76L627.03,287.96L634.95,300.42L637.95,305.94L637.07,308.49L629.72,319.22L623.62,329.04L624.94,333.79L614.66,330.68L610.16,332.58L609.06,336.23L609.42,340.05L604.7,342.19L600.78,334.9L597.71,332.24L590.75,332.54L589.78,336.44L590.14,341.02Z" class="land" id="SD-GZ" title="Al Jazīrah"/>
    <path d="M743.17,213.84L741.89,216.06L743.04,220.22L742.25,225.71L738.6,228.02L738.64,235.17L741.22,237.89L739.88,244.59L738.19,247.54L733.55,262.04L730.9,266.73L727.56,278.78L724.78,286.21L720.8,289.07L721.94,297.47L723.38,314.89L724.95,324.36L720.17,324.72L717.88,322.44L714.64,321.83L709.19,325.1L703,324.57L700.05,320.99L699.02,317.57L699.02,307.82L701.01,303.48L700.2,300.43L694.38,300.28L682.21,292.8L658.93,278.97L653.77,274.08L641.54,267.65L641.1,264.66L635.88,252.17L642.5,242.78L681.18,242.32L684.86,242.16L690.25,239.4L692.38,236.1L691.67,207.14L708.36,213.21L729.91,214.18L733.79,215.23Z" class="land" id="SD-KA" title="Kassalā"/>
    <path d="M373.75,233.94L495.07,233.81L510.4,234.7L529.35,234.51L534.39,233.89L537.43,239.72L544.71,255.96L548.47,260.65L555.03,271.12L556.36,276.17L562.18,288.08L551.38,293.8L550.55,297.42L545.85,298.22L544.69,304.16L543.42,306.22L539.28,308.85L537.51,307.82L533.53,310.8L533.31,316.16L531.26,322.12L531.71,328.64L533.6,334.69L540.92,340.1L544.31,350.43L549.44,357.22L548.41,359.07L549.93,366.17L546.48,367.59L543.71,370.43L538.18,373.62L535.49,388.21L536.04,390.01L522.41,388.99L511.35,390.41L511.35,399.39L508.69,399.76L494.11,405.01L488.07,393.55L486.47,391.57L477.06,395.16L472.6,397.65L472.02,386.75L470.33,386.16L459.89,386.15L458.14,381.74L454.01,371.61L452.17,361.61L445.76,359.95L441.86,357.67L425.35,344.48L417.98,344.18L414.37,341.07L414.07,339.17L410.74,337.79L400.3,336.06L394.99,334.23L372.94,333.95L372.84,336.46L360.09,336.69L362.01,318.29L364.51,314.8L362.08,304.82L357.88,298.91L355.59,287.77L352.13,233.96Z" class="land" id="SD-KN" title="Shiamāl Kurdufān"/>
    <path d="M536.04,390.01L537.03,393.19L542.13,408.44L545.55,408.39L553.09,415.5L564.2,426.92L564.32,446.54L567.28,453.2L555.21,464.89L548.86,468.88L541.34,481.58L531.48,492.76L523.77,502.58L520.67,503.75L506.57,503.74L503.74,505.01L494.88,496.66L488.43,492.93L471.44,482.31L467.57,482.84L463.75,477.02L444.13,457.53L444.47,452.16L445.8,449.87L449.73,447.84L450.27,444.97L446.36,431.61L440.39,425.63L440.59,422.42L443.02,418.76L450.28,412.2L452.01,401.93L454.05,398.57L457.18,396.23L459.11,392.26L459.91,386.2L459.89,386.15L470.33,386.16L472.02,386.75L472.6,397.65L477.06,395.16L486.47,391.57L488.07,393.55L494.11,405.01L508.69,399.76L511.35,399.39L511.35,390.41L522.41,388.99Z" class="land" id="SD-KS" title="Janūb Kurdufān"/>
    <path d="M596.6,424.83L622.41,407.95L628.01,407.58L635.45,396.64L640.7,396.64L645.47,392.19L657.78,396.41L664.04,414.66L667.93,423.65L666.91,425.27L668.07,428.82L668.13,433.71L666.61,437.89L662.39,445L665.12,447.17L663.43,455.99L664.42,458.3L659.97,461.85L659.59,463.9L656.03,463.95L650,458.35L644.4,461.35L642.14,465.62L637.92,470.62L637.23,473.42L639.03,474.96L637.74,477.69L640,484.98L639.31,489.21L635.42,491.8L634.79,497.5L632.05,504.74L630.3,511.45L625.8,511.52L625.98,503.4L628.93,499.37L629.39,486.56L624.6,483.57L614.56,472.98L609.22,466.43L599.82,463.57L599.18,454.47L597.89,447.15L596.88,437.57L595.22,432.4Z" class="land" id="SD-NB" title="An Nīl al Azraq"/>
    <path d="M563.24,200.97L543.44,229.57L534.39,233.89L529.35,234.51L510.4,234.7L495.07,233.81L373.75,233.94L374.42,92.34L278.02,92.19L278.02,9.44L283.4,9.22L335.15,9.1L458.65,9.17L471.56,9.19L522.6,9.14L524.09,4.6L528.64,0L530.12,1.85L527.13,6.01L526.22,9.07L565.66,9.23L565.7,10.48L561.17,93.49L561.28,106.61L558.94,139.8L573.15,154.41L563.02,163.77L559.98,167.94L555.84,180.28Z" class="land" id="SD-NO" title="Ash Shamālīyah"/>
    <path d="M743.17,213.84L733.79,215.23L729.91,214.18L708.36,213.21L691.67,207.14L685.76,203.2L681.41,199.11L676.33,195.87L670.43,190.61L666.82,186.51L662.03,178.7L653.35,168.57L648.72,165L642.71,162.68L631.24,159.4L615.08,119.29L613.98,80.04L613.97,72.95L608.94,61.99L603.99,59.38L601.78,56.23L598.67,54.21L598.95,43.33L600.93,40.68L600.39,32.74L598.06,30.04L609.99,20.8L626.6,18.9L629.65,9.72L737.35,10.26L739.09,25.56L741.05,30.75L747.46,39.68L750.11,41.85L747.55,51.18L749.04,55.57L749.42,63.05L751.89,69.82L749.84,73.52L750.94,88.91L750.09,93.05L752.77,99.11L752.12,110.74L753.85,113.39L754.95,118.65L755.64,127.74L758.33,133.73L758.47,138.5L761.59,143.24L764.59,145.31L767.9,144.61L772.34,147.06L773.43,148.89L779.68,151.69L782.69,155.47L784.92,162.04L787.34,164.4L790.42,164.88L803.79,173.49L798.75,178.36L794.72,188.29L792.09,189.45L791.3,192.16L787.67,191.58L781.39,192.23L780.28,195L776.21,196.47L772.52,195.33L772.16,199.25L766.23,199.65L762.47,201.16L761.58,205.91L757.8,212.9L754.56,210.99L747.51,212.49L743.35,210.92Z" class="land" id="SD-RS" title="Al Baḩr al Aḩmar"/>
    <path d="M692.1,388.42L690.17,390.82L675.06,417.4L668.88,422.13L667.93,423.65L664.04,414.66L657.78,396.41L645.47,392.19L640.7,396.64L635.45,396.64L628.01,407.58L622.41,407.95L596.6,424.83L599.08,409.25L601.54,406.42L597.92,404.44L590.86,388.31L595.67,378.99L592.21,375.08L585.49,365.55L587.62,356.62L586.17,347.94L586.7,346.56L590.14,341.02L589.78,336.44L590.75,332.54L597.71,332.24L600.78,334.9L604.7,342.19L609.42,340.05L609.06,336.23L610.16,332.58L614.66,330.68L624.94,333.79L631.72,344.94L637.52,349.88L640.41,356.33L648.26,365.34L651.41,368.32L655.92,368.31L657.76,372.19L663.83,377.31L668.15,379.46L670.05,379.27L677.77,385.43L682.93,386.42L686.89,385.7Z" class="land" id="SD-SI" title="Sinnār"/>
  </g>
</svg>