<?xml version="1.0" encoding="UTF-8"?>
<svg xmlns="http://www.w3.org/2000/svg" width="531.05" height="444.9" viewBox="214.47 34.55 531.05 444.9" style="background-color:#000000">
  <!-- Created using SVG Map Generator: dojo.amcharts.com/svg-map-generator -->
  <style>
    .land { fill: #ffffff; stroke: #000000; stroke-width: 0.65; }
  </style>
  <g id="polygons">
    <path d="M535.31,124.2L536.34,130.36L543,130.73L545.2,132.39L554.21,129.04L556.42,133.19L558.73,134.07L559.68,136.82L563.98,137.01L565.93,139.46L570,138.98L575.75,135.98L589.24,137.07L590.55,144.69L593.45,144.37L595.78,148.22L595.78,151.64L590.13,153.03L589.34,156.35L586.55,159.29L583.98,159.69L585.42,163.32L584.15,166.81L577.42,168.58L574.21,165.09L568.64,168.12L567.18,176.98L563.11,178.35L564.23,183.26L559.79,186.78L561.15,190.97L569.58,187.41L573.59,188.84L572.19,193.4L571.63,200.11L569.54,204.04L567.29,205.23L564.58,202.75L561.09,206.65L555.57,205.79L551.7,204.02L542.35,208.56L538.23,213.21L535.54,214.12L538.09,217.7L536.7,222.17L530.82,223.26L525.02,230.06L522.21,231.01L515.96,229.1L511.98,231.38L503.65,234.04L498.87,237L498.02,239.59L494.52,241.74L492.59,246.27L489.9,247L488.35,247.96L485.35,240.87L491.37,233.56L479.78,232.81L480.6,237.99L478,241.25L477.89,244.43L474.7,247.8L473.04,243.56L469.54,240.66L472.12,237.67L471.45,232.85L461.54,235.12L461.28,230.35L459.32,229.66L459.55,223.74L455.16,222.66L450.44,227.97L445.37,225.2L441.38,225.17L437.26,221.15L433.31,220.58L429.38,215.39L426.16,213.87L427.41,206.76L426.37,203.16L427.84,196.47L421.17,192.79L416.63,192.54L416.64,176.55L414.67,176.44L417.61,173.12L417.4,168.88L421.02,160.52L420.63,157.67L423.64,151.79L426.8,147.38L428.88,148.62L432.79,146.64L441.06,147.33L446.86,152.29L450.55,153.6L455.49,159.17L464.58,159L466.81,161.82L470.44,164.07L472.7,163.04L479.35,166.03L487.36,165.81L490.87,162.73L494.41,163.85L501.44,164.19L509.34,159.06L511.25,154.87L513.08,146.95L514.08,145.75L518.92,131.91L518.2,128.37Z" class="land" id="ZA-NW" title="North West"/>
    <path d="M656.68,357.52L652.16,348.92L639.67,342.74L637.78,343.12L633.47,340.31L628.81,341.78L620.94,339.21L614.05,338.2L610.64,334.57L611.55,328.29L614.31,329.43L620.85,323.54L622.27,320.27L619.37,317.36L623.98,314.28L622.56,311.59L624.25,305.1L627.82,303.83L628.17,298.64L632.09,296.48L633.28,293.39L629.1,283.96L618.39,277.52L614.19,271.88L617.51,265.15L624.63,263.75L625.75,260.34L631.72,257.03L634.31,253.63L637.54,253.13L639.75,250.14L638.52,246.6L639.67,241.08L641.52,237.51L640.23,231.82L643.36,229.47L641.21,226.93L643.05,224.49L645.52,222.06L652.41,221.16L655.09,222.04L659.27,218.96L663.82,217.93L668.92,219.52L672.33,218.01L677.05,220.39L681.06,220.98L685.79,220.25L688.16,221.51L691.65,216.99L698.44,219.55L713.57,219.6L713.82,210.41L714.81,201.43L717.56,201.26L726.69,203.27L740.61,203.49L742.88,203.12L741.5,211.13L735.99,226.45L733.62,237.59L732.1,249.69L727.9,258.13L727.19,263.26L725.9,265.24L714.69,276.31L706.8,279.41L700.45,287.05L693.09,294.87L688.29,301.65L684.13,309.27L684.28,313.01L678.66,319.6L670.37,336.46L663.06,348.53Z" class="land" id="ZA-KZN" title="KwaZulu-Natal"/>
    <path d="M414.67,176.44L416.64,176.55L416.63,192.54L421.17,192.79L427.84,196.47L426.37,203.16L427.41,206.76L426.16,213.87L429.38,215.39L433.31,220.58L437.26,221.15L441.38,225.17L445.37,225.2L450.44,227.97L455.16,222.66L459.55,223.74L459.32,229.66L461.28,230.35L461.54,235.12L471.45,232.85L472.12,237.67L469.54,240.66L473.04,243.56L474.7,247.8L477.89,244.43L478,241.25L480.6,237.99L479.78,232.81L491.37,233.56L485.35,240.87L488.35,247.96L489.9,247L490.75,248.51L485.74,262.5L484.96,266.74L486.65,267.35L469.31,304.51L471.99,309.48L479.21,313.54L480.11,316.2L483.81,317.24L486.87,323.87L491.78,329.92L499.75,337.75L505.06,340.12L505.58,349.55L507.2,352.42L503.98,359.79L501.61,363.09L497.29,362.11L492.13,364.95L489.54,364.93L483.43,369.38L476.29,369.61L475.17,373.14L474.39,380.98L468.24,381.23L466.68,383.38L463.12,384.18L459.07,381.85L453.83,385.44L452.85,381.76L449.64,379.25L445.13,379.08L442.73,380.77L439.24,380.1L434.95,382.4L433.27,387.12L428.65,391.22L427.91,387.77L417.57,384.64L412.5,384.58L413.37,381.74L403.75,375.92L399.9,383.65L399.72,387.52L396.46,389.09L398.37,393.98L394.49,395.79L394.38,399.2L389.65,401.99L385.59,399.58L379.63,400.54L379.93,403.62L372.77,406.22L368.58,409.46L367.59,415.3L361.4,416.21L355.89,418.48L356.7,422.82L353.42,427.3L349.52,427.62L348.24,425.62L343.91,427.63L339.13,422.09L336.08,420.8L332.51,408.69L335.22,406.19L337.41,400.81L335.7,398.73L331.68,401.53L327.95,406.23L323.86,406.73L317.8,410.66L317.49,415.7L313.57,414.18L314.18,409.92L311.21,403.14L314.32,401.37L313.87,395.17L308.74,393.29L307.82,391.25L301.27,388.21L299.44,385.79L301.23,382.76L300.49,373.6L298.89,368.39L296.11,362.65L296.41,358.58L294.79,355.69L297.38,351.93L296.48,344.29L293.59,343.94L291.02,341.68L290.22,338.28L287.05,337.58L284.06,333.32L279.15,336.43L277.51,341.79L274.29,347.36L271.36,348.65L268.78,346.35L265.76,346.5L265.63,351.2L258.55,360.03L256.2,354.52L252.84,349.29L251.18,344.7L243.16,329.83L239.16,316.3L236.93,310.69L235.52,303.25L232.56,294.31L230.4,291.31L228.45,284.01L226.35,282.24L224.48,278.03L221.71,275.85L220.68,270.73L217.12,267.42L218.05,264.81L222.78,262.04L225.73,262.37L228.34,257.57L228.64,254.16L230.78,250.57L231.25,246.87L237.13,245.64L240.47,248.37L241.67,253.46L245.5,253.11L247.54,257.74L245.01,261.4L248.11,265.1L247.56,270.56L253.59,269.75L256.9,271.56L263.62,272.17L268.16,276.33L272.18,277.6L274.93,276.42L280.04,277.11L284.35,275.59L289.87,274.88L296.8,275.73L298.76,278.36L302.01,279.63L305.13,278.51L307.91,271.04L311.4,271.17L314.2,268.9L316.44,263.6L324.29,262.71L326.37,260.35L330.34,260L330.45,128.3L333.64,132.12L338.84,134.32L342.57,138.03L345.09,144.48L351.02,153.8L352.65,157.77L352.17,161.27L355.59,165.46L357.89,177.65L356.31,180.9L350.43,188.08L349.8,191.38L350.12,197.51L351.25,202.29L353.33,203.74L359.27,200.88L367,203.68L376.02,201.96L379.18,203.23L384.82,203.21L387.5,200.84L387.39,196.93L392.88,196.42L395.94,195.09L399.57,190.57L400.77,186.66L409.65,179.85L411.92,180.65Z" class="land" id="ZA-NC" title="Northern Cape"/>
    <path d="M691.65,216.99L688.16,221.51L685.79,220.25L681.06,220.98L677.05,220.39L672.33,218.01L668.92,219.52L663.82,217.93L659.27,218.96L655.09,222.04L652.41,221.16L645.52,222.06L643.05,224.49L638.06,226.44L635.85,222.25L631.04,216.35L625.08,213.26L622.03,213.82L617.4,208.08L614.66,209.98L608.95,207.38L604.22,208.95L601.92,206.83L595.63,205.09L595.77,201.86L598.54,200.42L598.33,196.89L601.24,195.95L604,192.3L610.31,191.22L610.39,189.09L613.97,187.33L612.58,184.42L608.29,185.62L605.93,181.93L602.92,180.96L601.03,175.62L606.08,172.06L613.18,173.32L614.31,167.29L617.62,162.93L617.13,160.62L620.15,159.4L619.39,156.7L616.21,157.56L612.71,161.83L607.75,161.38L606.01,155.19L606.79,153.97L607.13,146.5L611.26,144.53L610.35,142.08L605.76,142.59L598.41,145.23L597.74,143.01L600.84,140.9L605.55,139.79L605.5,137.11L609.69,134.93L616.35,135.08L619.48,133.5L620.77,136.3L624.15,134.85L624.59,131.01L629.67,132.37L633.06,139.42L636.71,143.45L642.39,144.45L644.81,141.69L642.69,138.3L652.91,130.29L655.27,127.7L653.2,122.5L657.91,121.52L663.4,121.79L668.07,124.26L671.32,120.87L675.55,118.34L679.43,123.55L679.56,129.49L682.66,131.01L683.58,135.94L685.9,138.13L690.15,137.74L692.69,136.18L697.17,136.68L697.45,131.5L693.42,131.06L692.86,127.07L697.17,127.07L701.45,122.72L696.82,120.76L693.54,115.84L696.34,112.21L696.02,108.48L697.73,106.86L696.71,102.45L701.26,103.67L705.5,103.43L707.23,100.62L710.38,100.24L711.6,108.54L713.98,112.51L714.7,117.77L714.39,125.72L715.54,138.5L715.16,150.2L714.03,152.74L714.77,159.57L712.38,166.44L713.79,170.75L710.19,172.41L695.95,162.48L692.62,163.35L686.66,169.59L686.16,171.93L681.89,180.72L677.04,187.36L675.83,192.62L676.36,201.94L679.25,200.66L681.77,205.19L681.62,208.74L687.17,215.18Z" class="land" id="ZA-MP" title="Mpumalanga"/>
    <path d="M710.38,100.24L707.23,100.62L705.5,103.43L701.26,103.67L696.71,102.45L697.73,106.86L696.02,108.48L696.34,112.21L693.54,115.84L696.82,120.76L701.45,122.72L697.17,127.07L692.86,127.07L693.42,131.06L697.45,131.5L697.17,136.68L692.69,136.18L690.15,137.74L685.9,138.13L683.58,135.94L682.66,131.01L679.56,129.49L679.43,123.55L675.55,118.34L671.32,120.87L668.07,124.26L663.4,121.79L657.91,121.52L653.2,122.5L655.27,127.7L652.91,130.29L642.69,138.3L644.81,141.69L642.39,144.45L636.71,143.45L633.06,139.42L629.67,132.37L624.59,131.01L624.15,134.85L620.77,136.3L619.48,133.5L616.35,135.08L609.69,134.93L605.5,137.11L605.55,139.79L600.84,140.9L597.74,143.01L598.41,145.23L605.76,142.59L607.34,146.28L602.43,146.24L602.19,147.93L595.78,148.22L593.45,144.37L590.55,144.69L589.24,137.07L575.75,135.98L570,138.98L565.93,139.46L563.98,137.01L559.68,136.82L558.73,134.07L556.42,133.19L554.21,129.04L545.2,132.39L543,130.73L536.34,130.36L535.31,124.2L537.61,122.48L539.05,118.89L544.29,113.77L550.09,110.97L550.25,105.39L551.76,102.47L552.82,95.33L554.72,89.36L558.85,85.95L568.78,80.53L571.48,80.31L573.83,74.71L577.43,75.34L580.75,70.9L584.3,68.99L585.6,65.52L587.84,63.8L587.86,61.35L591.36,58.94L591.55,56.96L597.47,52.28L602.8,52.63L615.71,48.21L617.27,42.98L619.45,39.83L624.79,38.6L629.06,39.39L636.66,37.24L642.82,37.2L650.73,40.29L654.35,42.99L657.51,42.47L659.6,44.46L665.85,43.19L673.13,43.21L676.84,42.37L684.81,44.21L687.4,43.61L690.67,44.78L692.27,47.34L700.24,73.16L700.19,83.32L704.43,88.54L704.62,92.07L706.75,97.67Z" class="land" id="ZA-LP" title="Limpopo"/>
    <path d="M605.76,142.59L610.35,142.08L611.26,144.53L607.13,146.5L606.79,153.97L606.01,155.19L607.75,161.38L612.71,161.83L616.21,157.56L619.39,156.7L620.15,159.4L617.13,160.62L617.62,162.93L614.31,167.29L613.18,173.32L606.08,172.06L601.03,175.62L602.92,180.96L605.93,181.93L608.29,185.62L612.58,184.42L613.97,187.33L610.39,189.09L610.31,191.22L604,192.3L601.24,195.95L598.33,196.89L598.54,200.42L595.77,201.86L595.63,205.09L588.4,202.21L583.99,196.84L582.51,198.57L571.63,200.11L572.19,193.4L573.59,188.84L569.58,187.41L561.15,190.97L559.79,186.78L564.23,183.26L563.11,178.35L567.18,176.98L568.64,168.12L574.21,165.09L577.42,168.58L584.15,166.81L585.42,163.32L583.98,159.69L586.55,159.29L589.34,156.35L590.13,153.03L595.78,151.64L595.78,148.22L602.19,147.93L602.43,146.24L607.34,146.28Z" class="land" id="ZA-GP" title="Gauteng"/>
    <path d="M571.63,200.11L582.51,198.57L583.99,196.84L588.4,202.21L595.63,205.09L601.92,206.83L604.22,208.95L608.95,207.38L614.66,209.98L617.4,208.08L622.03,213.82L625.08,213.26L631.04,216.35L635.85,222.25L638.06,226.44L643.05,224.49L641.21,226.93L643.36,229.47L640.23,231.82L641.52,237.51L639.67,241.08L638.52,246.6L639.75,250.14L637.54,253.13L634.31,253.63L631.72,257.03L625.75,260.34L624.63,263.75L617.51,265.15L614.19,271.88L609.42,268.9L608.78,266.08L599.63,266.77L598,269.65L592.45,269.39L590.27,271.31L587.56,276.19L584.53,275.26L582.88,277.55L579.14,277.83L576.54,280.75L576.24,283.39L571.33,288.61L571.86,289.98L567.65,294.15L564.46,299.95L559.6,301.07L555.33,304.39L558.34,308.41L562.02,317.64L564.39,319.97L567.08,329.18L566.58,332.03L564.04,335.54L561.33,335.25L554.51,337.31L552.24,341.83L548.11,341.31L544.74,342.63L537.76,340.87L536.44,338.29L531.39,338.94L528.33,335.88L520.63,338.45L514.31,342.67L510.51,341.72L509.54,339.61L505.06,340.12L499.75,337.75L491.78,329.92L486.87,323.87L483.81,317.24L480.11,316.2L479.21,313.54L471.99,309.48L469.31,304.51L486.65,267.35L484.96,266.74L485.74,262.5L490.75,248.51L489.9,247L492.59,246.27L494.52,241.74L498.02,239.59L498.87,237L503.65,234.04L511.98,231.38L515.96,229.1L522.21,231.01L525.02,230.06L530.82,223.26L536.7,222.17L538.09,217.7L535.54,214.12L538.23,213.21L542.35,208.56L551.7,204.02L555.57,205.79L561.09,206.65L564.58,202.75L567.29,205.23L569.54,204.04Z" class="land" id="ZA-FS" title="Free State"/>
    <path d="M619.37,317.36L622.27,320.27L620.85,323.54L614.31,329.43L611.55,328.29L610.64,334.57L614.05,338.2L620.94,339.21L628.81,341.78L633.47,340.31L637.78,343.12L639.67,342.74L652.16,348.92L656.68,357.52L651.6,364.5L646.02,370.15L642.61,371.39L640.22,374.6L634.18,379.73L631.96,380.51L621.25,395.13L610.22,407.1L604.13,412.97L594.93,420.9L591.19,422.43L589.01,426.71L583.36,431.63L577.75,434.57L573.93,438.27L559.73,448.08L558.02,450.06L546.09,455.03L537.33,459.66L531.93,459.3L524.72,457.08L517.24,457.8L512.78,460.43L510.65,463.34L510.65,470.19L503.4,469.69L497.38,467.25L491.42,467.26L488.21,468.87L485.05,476.8L478.96,475.02L473.58,474.68L470.61,472.4L463.19,470.45L446.88,467.71L448.39,463.47L441.3,460.56L439.62,457.35L447.38,453.67L444.81,448.72L441.78,446.64L436.78,446.55L435.78,444.95L427.68,444.69L423.13,445.88L418.4,445.39L418.85,442.14L422.6,435.27L424.39,433.52L424.44,427.84L428.91,425.38L432.12,422.01L438.05,423.42L434.99,412.31L433.08,408.16L440.26,404.5L447.08,404.7L447.34,400.98L450.48,398.77L454.37,401.39L460.72,397.97L461.21,395.52L464.97,390.1L463.28,388.14L463.12,384.18L466.68,383.38L468.24,381.23L474.39,380.98L475.17,373.14L476.29,369.61L483.43,369.38L489.54,364.93L492.13,364.95L497.29,362.11L501.61,363.09L503.98,359.79L507.2,352.42L505.58,349.55L505.06,340.12L509.54,339.61L510.51,341.72L514.31,342.67L520.63,338.45L528.33,335.88L531.39,338.94L536.44,338.29L537.76,340.87L544.74,342.63L548.11,341.31L552.24,341.83L554.51,337.31L561.33,335.25L564.04,335.54L566.58,332.03L567.08,329.18L569.61,328.94L574.24,335.32L578.41,339.47L584.04,341.2L589.29,341.52L591.59,338.15L591.34,334.46L595.34,330.82L593.5,328.09L596.51,326.8L598.31,323.61L604.17,321.81L608.28,322.54L613.54,320.93Z" class="land" id="ZA-EC" title="Eastern Cape"/>
    <path d="M567.08,329.18L564.39,319.97L562.02,317.64L558.34,308.41L555.33,304.39L559.6,301.07L564.46,299.95L567.65,294.15L571.86,289.98L571.33,288.61L576.24,283.39L576.54,280.75L579.14,277.83L582.88,277.55L584.53,275.26L587.56,276.19L590.27,271.31L592.45,269.39L598,269.65L599.63,266.77L608.78,266.08L609.42,268.9L614.19,271.88L618.39,277.52L629.1,283.96L633.28,293.39L632.09,296.48L628.17,298.64L627.82,303.83L624.25,305.1L622.56,311.59L623.98,314.28L619.37,317.36L613.54,320.93L608.28,322.54L604.17,321.81L598.31,323.61L596.51,326.8L593.5,328.09L595.34,330.82L591.34,334.46L591.59,338.15L589.29,341.52L584.04,341.2L578.41,339.47L574.24,335.32L569.61,328.94Z" class="land" id="LS" title="Lesotho"/>
  </g>
</svg>