<?xml version="1.0" encoding="UTF-8"?>
<svg xmlns="http://www.w3.org/2000/svg" width="519.41" height="519.3" viewBox="220.29 -2.65 519.41 519.3" style="background-color:#000000">
  <!-- Created using SVG Map Generator: dojo.amcharts.com/svg-map-generator -->
  <style>
    .land { fill: #ffffff; stroke: #000000; stroke-width: 0.65; }
  </style>
  <g id="polygons">
    <path d="M378.98,282.77L379.03,309.08L379.88,309.94L380.38,312.68L381.82,312.81L383.62,311.86L385.92,312.54L385.92,319.69L385.15,322.56L383.04,323.15L381.32,327.7L382.49,328.48L386.46,328.43L387.64,328.89L385.92,331.89L385.7,335.72L384.07,338.04L383.8,341.23L383.26,342.79L383.22,347.07L384.21,347.98L387.46,346.7L390.35,346.84L392.24,347.8L392.28,348.53L390.25,350.17L387.23,353.22L386.83,355.09L387.28,355.96L389.8,357.65L390.89,359.43L390.75,361.3L391.52,362.53L393.28,363.86L395.4,367.32L394.32,368.56L392.01,367.32L390.75,365.09L389.13,363.12L387.46,363.44L386.6,366.09L387.32,368.83L388.68,369.49L392.51,372.92L394.5,375.79L394.72,377.43L395.67,379.58L394.86,380.82L394.99,384.61L395.67,385.75L394.99,387.44L395.26,388.4L397.38,389.54L397.47,390.41L393.64,391.03L390.71,394.04L391.38,395.87L395.4,395.87L398.51,393.41L400.22,393.59L403.02,396.74L405.59,397.52L407.58,395.55L409.43,397.24L410.88,397.89L412.77,399.9L413.72,402.32L415.79,403.6L417.33,406.58L416.18,408.95L416.27,410.89L413.94,410.77L411.82,409.4L410.17,409.85L408.77,411.79L405,411.1L403.98,410.18L404,409.01L402.82,407.57L401.22,406.86L399.45,404.92L397.52,405.74L396.25,405.02L394.09,406.11L390.87,405.14L385.22,400.9L384.12,399.14L382.01,400.9L380.58,400.74L379.03,399.23L377.84,399.62L373.15,396.93L372.08,395.16L370.31,394.75L368.08,394.86L364.43,393.49L362.36,393.89L359.8,389.94L360.12,389.02L357.18,387.35L353.82,387.89L349.37,388.08L348.23,387.65L344.81,385.26L344.38,384.63L342.13,384.43L341.8,381.19L343.1,378.4L339.84,375.64L340.6,374.83L337.72,372.37L339.49,371.12L341.58,368.06L343.16,367.22L344.61,367.13L345.53,368.02L347.6,367.19L348.83,365.25L348.82,363.03L350.55,361.17L350.91,358.83L350.8,356.26L349.53,355.07L349.99,354.01L349.36,352.49L351.41,348.73L353.96,348.52L354.9,349.01L356.47,347.07L357.27,345.34L359.77,344.92L360.58,342.11L359.77,339.13L352.24,332.86L342.92,327.4L336.12,322.93L338.79,314.96L340.67,312.89L341,310.81L342.76,311.78L343.8,310.63L345.78,310.69L346.73,308.11L349.43,303.37L349.93,299.3L349.04,297.39L354.22,294.62L355.85,294.34L358.74,292.87L362.65,291.56L364.71,289.5L364.05,287.6L364.42,286.05L368.98,285.84L371.96,285.98L372.17,284.85L373.79,284.85L374.17,283.37L376.84,282.67L377.92,283.44Z" class="land" id="TZ-31" title="Songwe"/>
    <path d="M424.39,57.55L426.81,56.72L428.89,57.28L431.05,56.84L433.32,58.36L435.87,60.58L437.6,60.93L439.33,60.29L441.03,62.04L442.38,62.76L444.27,62.56L445.7,63.02L446.51,65.09L448.65,66.63L450.57,67.45L451.41,68.64L454.76,71.24L458.38,71.48L460.39,71.17L462.65,71.51L466.78,70.89L468.31,71.31L478.49,71.25L482.65,71.81L489.29,71.82L489.57,71.79L487.66,82.71L485.42,91.3L482.03,93.07L481.33,93.79L478.36,95.11L473.37,91.11L473.67,106.26L473.74,130.56L469.29,133.18L467.09,133.91L465.29,134.5L465.14,135.7L463.7,136.78L462.24,136.38L461.07,138.92L459.33,139.53L458.66,138.9L454.42,139.85L452.13,140.8L449.86,142.94L450.05,145.03L448.24,145.7L446.72,147L444.67,147.15L441.11,146.63L441.5,142.79L442.64,141.7L441.85,140.58L441,138L439.61,135.74L436.51,133L435.38,130.87L435.97,129.67L434.35,126.07L434.42,124.13L431.89,124.14L429.86,121.25L428.01,120.5L427.11,119.49L423.64,119.6L420.47,122.45L418.52,120.95L418.07,118.1L416.11,117.24L415.78,115.47L413.06,113.13L412.9,112.28L410.59,109.25L408.91,109.1L405.39,110.29L404.22,109.98L405.17,108.69L404.82,106.37L405.37,104.92L406.79,104.16L407.41,99.96L406.98,99.18L407.61,96.7L408.86,95.71L408.98,94.34L407.92,90.43L410.05,88.89L410.21,87.78L414.36,86.68L415.45,87.9L418.61,86.76L419.49,87.66L421.55,86.75L421.28,82.99L420.79,82.04L419.04,80.81L417.54,80.66L414.03,78.58L413.7,77.21L414.09,74.52L411.91,75.1L411.5,73.11L409.98,71.5L408.01,71.16L406.26,70.03L407.99,70.52L410.35,69.52L408.62,68.41L410.25,66.56L413.85,64.94L415.41,63.53L417.09,63.98L418.59,62.57L420.52,62.08L424.1,60.47L424.81,59.42Z" class="land" id="TZ-30" title="Simiyu"/>
    <path d="M464.72,365.65L468.33,366.3L469.71,365.97L472.49,366.77L473.51,368.61L472.06,370.68L474.49,372.63L477.97,373.51L480.23,372.43L481.09,370.99L483.51,371.3L485.16,370.96L485.76,374.43L485.08,375.9L485.62,377.03L484.19,378.88L485.11,380.56L484.63,382.62L485.57,383.2L488.66,383.7L491.68,383.34L493.5,383.56L495.82,383.13L497.17,382.27L500.99,383.54L503.78,384.96L503.05,387.45L502.68,390.24L502.67,399.37L502.9,400.09L502.69,405.26L500.36,406.9L499.86,407.85L497.17,410.31L496.13,411.69L494.74,412.15L490.48,414.46L489.28,415.82L486.36,417.99L483.98,418.96L487.33,421.98L486.9,425.67L489.29,428.82L489.22,430.38L488.1,433.58L485.85,437.8L484.13,438.21L480.78,437.62L478.51,438.96L478.02,440.76L479.51,442.57L478.57,443.48L475.68,448.24L473.25,450.34L472.12,452.38L470.31,453.43L469.76,451.27L468.66,451L467.85,453.48L463.93,455.54L457.54,454.89L458.82,452.24L457.21,449.75L458.04,445.39L458.55,444.54L457.73,440.88L457.83,438.81L456.86,436.13L456.64,433.6L457.07,432.25L455.31,428.59L453.25,426.91L450.2,423.25L448.7,421.03L447.44,419.89L446.04,417.23L435.22,407.06L434.77,405.61L430.58,399.45L430.71,397.51L427.84,393.78L425.23,392.84L423.83,390.99L424.9,389.33L424.31,388.58L424.35,386.65L422.61,384.54L423.43,383.18L423.43,377.44L424.24,374.27L426.83,374.07L426.87,375.75L431.19,375.37L431.24,376.3L433.4,376.9L434.19,375.88L434.22,374.2L437.43,374.04L439.07,374.98L441.05,378.77L442.78,378.69L445.1,377.9L445.46,373.34L450.13,373.54L453.27,372.68L455.81,372.65L457.44,371.56L457.96,369.5L459.54,366.92L463.53,365.69Z" class="land" id="TZ-29" title="Njombe"/>
    <path d="M336.12,322.93L331.58,318.85L325.99,318.73L325.99,314.79L322.31,314.36L317.4,314.2L314.93,313.11L313.58,311.25L312.65,310.32L312.45,308.65L307.18,308.56L306.13,306.38L305.38,301.59L305.73,297.98L302.3,296.4L298.21,296.13L296.99,296.42L296.31,294.37L293.12,292.09L291.5,291.46L288.66,291.34L287.13,289.5L287.9,286L287.91,284.37L286.93,283.16L282.26,282.11L279.24,281.87L277.52,281.19L274.32,280.52L271.1,280.82L265.26,282.16L264.06,279.77L262.62,278.73L261.97,277.2L262.11,275.52L259.79,272.78L259.09,270.74L256.91,270.15L253.26,265.75L254.15,265.28L255.49,262.05L254.85,261.4L254.21,257.91L254.35,255.02L254.05,252.94L254.2,249.29L253.96,248.09L254.09,244.38L252.11,238.04L250.79,236.37L250.99,233.92L250.43,228.99L249.49,227.87L248.87,225.56L246.13,222.28L246.29,220.03L245.53,218.79L243.16,217.99L243.58,216.69L242.14,215.51L243.84,214.34L244.01,212.44L240.53,210.74L238.81,207.99L237.35,206.23L241.21,207.12L245.7,206.62L246.33,204.29L246.93,199.73L249.94,199.63L250.41,201.96L252.52,201.38L253.86,199.17L256.54,198.44L258.64,198.38L263.03,197.6L268.57,197.92L268.32,199.31L270.86,200.11L271.95,198.54L272.88,198.66L274.09,197.05L275.25,197.23L275.78,199.12L277.15,200.3L278.31,202.16L281.44,203.56L281.36,205.8L285.21,204.8L287.31,204.53L289.19,202.43L290.77,201.66L296.41,201.3L297.72,200.75L298.22,208.68L298.08,211.28L296.33,212.49L294.24,212.87L292.49,214.34L292.7,215.39L291.16,217.03L291.53,218.04L294.38,220.03L295.9,222.61L297.36,226.98L298.44,225.95L299.56,226.59L300.82,226.16L301.35,228.01L302.5,228.98L304.02,227.96L306.39,228.64L307.37,228.44L309.17,230.04L312.04,229.95L315.53,229.03L317.03,230.4L318.95,230.56L322.3,229.16L323.24,227.99L325.74,226.43L326.49,225.29L328.54,224.62L328.98,225.38L333.06,226.45L333.68,226.15L337.95,227L338.85,229.86L340.15,230.38L340.97,232.04L340.69,234.35L342.13,236.2L342.3,237.92L344.78,241.49L344.64,243.25L345.27,245.19L346.69,247.28L348.14,247.69L350.58,249.75L353.66,249.44L355.87,250.78L357.7,252.72L362.7,253.07L364.33,254.1L367.34,254.03L369.56,256.7L372.48,257.72L372.48,262.14L372.73,267.69L372.55,273.44L372.16,274.48L372.17,284.85L371.96,285.98L368.98,285.84L364.42,286.05L364.05,287.6L364.71,289.5L362.65,291.56L358.74,292.87L355.85,294.34L354.22,294.62L349.04,297.39L349.93,299.3L349.43,303.37L346.73,308.11L345.78,310.69L343.8,310.63L342.76,311.78L341,310.81L340.67,312.89L338.79,314.96Z" class="land" id="TZ-28" title="Katavi"/>
    <path d="M329.68,61.97L330.36,63.28L331.67,63.71L331.58,65.58L332.69,66.07L332.44,68.69L330.97,69.57L329.27,69.87L328.94,68.24L329.59,66.89L329.36,65.36L327.13,63.59L326.89,62.07L328.11,59.58L329.2,59.54ZM343.98,72.94L345.73,72.88L346.75,71.91L347.43,73.93L349.27,75.44L349.5,76.92L353.47,76.8L361.11,77.94L361.31,79.34L358.35,79.63L356.66,80.55L355.93,83.06L356.97,84.5L358.12,85.06L360.9,85.27L362.99,86L362.44,87.11L364.13,89.28L364.23,92.33L365.96,92.66L369.19,95.15L370.99,96.08L373.56,95.33L373.03,97.13L373.92,98.59L373.24,101.46L374.34,103.56L374.14,104.3L373.5,107.51L371.78,110.35L369.22,111.01L369.12,112.81L369.87,114.23L369.64,116.99L368.72,117.18L365.04,115.77L363.56,114.8L360.55,114.24L361.7,112.42L362.57,109.87L361.8,106.35L360.88,104.94L357.54,106.04L355.69,108.02L353.84,108.96L353.23,111.18L351.29,110.42L351.66,113.17L351.33,115.09L352.13,116.45L352.41,120.23L351.08,122.72L351.75,125.4L353.99,124.82L355.46,123.9L356.46,126.6L355.64,129.65L354.27,129.81L354.13,134.29L351.38,133.13L347.15,130.34L345.78,132.34L344.24,130.93L341.47,132.8L339.77,132.69L336.83,131L335.29,131.16L333.86,132.03L330.9,132.9L331.13,135.04L330.43,137.33L328.98,139.41L328.8,140.62L325.89,140.98L323.09,142.06L322.39,143.08L321.73,145.67L320.65,146.61L319.62,149.03L321.04,150.45L321.72,153.74L321.56,155.27L320.54,157.42L321.22,158.47L320.31,161.24L318.89,163.17L317.41,163.57L313.03,162.7L312.85,163.55L311.04,164.89L310.06,165.41L309.18,163.84L308.92,161.28L308.09,158.23L306.61,157.02L306.83,154.38L305.92,152.84L304.94,149.49L305.67,148.01L305.79,146.07L307.02,144.77L307.32,141.93L306.1,138.25L305.58,135.12L304.39,133.55L304.32,132.27L303.3,130.38L301.14,129.3L299.96,127.69L299.29,122.21L299.48,120.76L298.79,119.28L299.25,117.66L298.44,115.7L296.51,113.59L296.58,112.74L299.78,109.82L302.18,109.21L305.11,110.76L308.44,110.66L309.97,109.73L311.37,110.15L312.1,109.34L315.69,107.19L315.99,104.12L314.9,100.25L311.3,93.74L311.88,90.9L313.14,90.1L315.47,92.42L316.49,91.56L317.43,89.06L319.77,88.37L321.28,88.37L323.51,86.93L323.54,85.51L321.79,84.35L318.68,84.1L317.14,84.52L315.53,83.63L314.75,81.95L311.6,82.42L310.54,80.65L308.68,79.78L308.47,77.79L309.32,75.7L310.95,74.15L312.8,74.05L313.73,73.24L315.21,73.76L315.96,72.68L317.69,72.41L318.22,69.93L319.22,69.62L318.12,67.75L320.29,66.71L319.7,65.51L321.36,63.28L322.96,62.12L324.58,63.74L325.35,65.82L325.17,67.47L326.83,68.37L327.25,70.59L326.91,71.84L323.38,72.24L323.24,73.85L324.56,75.62L324.95,77.87L327.98,76.71L327.01,78.81L325.53,79.37L325.59,81.22L326.42,83.01L326.66,85.3L326.11,86.9L327.67,87.83L328.56,84.56L328.18,82.08L329.3,80.51L332.2,82.12L331.94,79.38L334.17,79.34L334.35,80.85L335.51,82.37L335.49,84.66L338.38,85.09L338,83.79L336.87,83.07L336.79,80.65L333.79,76.25L335.68,76.63L336.47,75.15L336.93,72.7L335.94,71.74L338.4,71.07L340.92,72.33L342.16,74.01Z" class="land" id="TZ-27" title="Geita"/>
    <path d="M495.11,184.84L494.26,184.47L492.41,181.38L488.53,179.62L486.4,179.06L485.82,177.85L485.88,175.26L485.03,173.03L482.44,172.44L480.73,168.63L478.72,166.88L477.64,164.91L473.04,162.69L472.55,160.56L474.74,155.96L476.8,154.54L477.55,152.93L477.28,150.64L477.36,147.43L478.51,142.6L475.95,142.78L474.77,141.66L473.82,138.7L478.17,136.54L479.36,137.05L482.34,135.08L484.09,134.57L487.97,132.08L488.65,131.3L492.82,128.29L494.55,128.35L497.24,124.85L501.01,126.96L503.76,127.77L504.57,128.4L508.56,128.68L507,132.36L511.16,131.94L512.05,128.89L513.36,122.48L515.85,122.2L520.33,125.26L520.74,126.1L523.61,125.8L525.45,126.72L526.38,128.26L533.41,136.91L539.73,150.19L540.5,149.92L540.35,147.14L540.53,141.73L540.24,140.29L540.17,136.35L540.5,133.79L544.56,133.44L549.18,132.67L549.72,131.82L555.3,128.08L555.67,126.36L557.65,125.5L557.95,124.69L560.16,122.36L560.97,122.13L562.81,124.07L564.41,126.67L566.01,126.37L567.19,123.36L568.69,123.94L569.97,122.64L572.14,122.74L572.95,121.22L574.74,119.41L576.65,118.93L578.58,118.29L580.34,118.69L581.55,117.13L583.83,117.12L584.62,118.77L587.99,119.37L587.87,120.92L589.97,125.5L592.54,127.46L594.88,132.68L595.96,134.6L595.11,136.74L595.95,139.03L595.57,141.04L596.06,143.59L596.93,144.03L597.02,145.52L598.09,148.06L598.19,149.48L597.28,151.23L597.2,153.7L598.1,156.36L597.19,157.7L597.81,159.19L597.1,161.14L598.18,163.39L600.01,165.36L603.63,167.9L606.26,168.42L606.41,169.32L608.95,170.71L609.65,171.98L611.28,171.91L613.77,170.24L615.84,170.53L618.07,171.54L619.62,171.47L621.12,172.21L620.89,176.81L620.31,178.88L621.07,180.11L621.17,184.31L620.93,186.73L621.18,190.3L619.61,189.86L618.53,188.84L614.67,189.79L613.93,189.68L612.88,191.66L611.57,192.15L610.06,191.13L606.28,192.56L603.61,191.33L601.48,190.93L597.01,193.5L595.7,195.28L590.8,201L592.11,203.15L589.43,212.08L586.49,215.71L585.04,217.86L585.95,219.4L584.38,220.58L584.13,221.63L582.51,223.22L581.62,224.78L583.52,224.72L583.33,226.34L580.78,225.98L578.61,227.31L575.52,231.04L574.92,233.29L572.08,234.75L570.17,234.83L566.87,236L565.68,235.42L561.71,235.32L560.27,235.65L559.96,234.43L558.43,231.77L557.08,230.19L554.82,228.66L553.77,226.1L551.67,225.27L550.69,223.54L547.63,222.71L547.04,220.68L545.82,219.22L541.46,215.79L541.53,214.25L542.35,212.31L540.51,210.48L540.28,204.98L539.16,200.07L540.24,198.77L541.59,194.85L541.22,191.09L541.61,190.23L542.34,183.34L541.09,182.05L540.76,178.49L540.26,176.29L540.42,174.9L540,171.06L540.97,167.87L541.87,166.91L542.75,163.83L538.22,162.76L533.65,162.21L526.37,161.91L524.57,160.83L521.74,159.68L519.98,159.42L517.74,158.01L517.7,161.6L515.63,162.09L514.29,163.7L509.86,167.33L509.92,169.41L510.47,170.48L509.44,172.85L508.04,174.35L507.72,176L504.48,178.24L502.96,182L502.07,183.06L498.57,184.4L495.57,183.85Z" class="land" id="TZ-26" title="Manyara"/>
    <path d="M659.12,236.41L654.56,235.72L651.76,236.58L647.82,239.06L646.97,238.16L645.69,238.69L644.07,238.29L643.2,239.26L640.85,238.6L640.74,237.65L637.39,237.7L637.14,236.09L635.15,234.68L633.76,235L632.18,234.6L630.65,232.33L627.88,231.35L625.93,231.69L624.66,231.06L623.77,231.63L620.7,231.58L618.13,230.75L614.8,233.16L612.62,232.79L611.7,233.16L609.55,233L607.9,231.82L606.44,234.18L603.89,235.94L603.76,234.18L602.76,233.44L602.62,231.46L600.02,229.8L594.73,228.9L592.56,231.63L592.43,235.22L590.9,237.14L588.12,237.32L587.52,237.83L584.82,238.32L582.1,238.34L580.71,237.83L579.73,236.62L577.29,231.56L574.92,233.29L575.52,231.04L578.61,227.31L580.78,225.98L583.33,226.34L583.52,224.72L581.62,224.78L582.51,223.22L584.13,221.63L584.38,220.58L585.95,219.4L585.04,217.86L586.49,215.71L589.43,212.08L592.11,203.15L590.8,201L595.7,195.28L597.01,193.5L601.48,190.93L603.61,191.33L606.28,192.56L610.06,191.13L611.57,192.15L612.88,191.66L613.93,189.68L614.67,189.79L618.53,188.84L619.61,189.86L621.18,190.3L620.93,186.73L621.17,184.31L621.07,180.11L620.31,178.88L620.89,176.81L621.12,172.21L621.43,171.26L622.96,171.36L623.55,172.32L625.16,172.22L626.35,171.48L626.88,168.37L629.67,164.69L632.51,160.48L640.32,148.32L647.76,153.49L677.69,174.43L678.32,175.33L678.8,179.1L678.54,184.52L677.76,185.36L676.87,187.85L675.62,185.92L674.54,187.49L675.37,188.82L674.63,193.21L675.22,196.4L673.39,197.22L673.67,199.16L672.72,200.36L672.72,201.77L671.92,204.39L669.59,210.07L667.76,211.04L668.71,212.24L667.05,217L666.02,218.06L665.4,220.06L663.53,222.47L663.61,224.56L660.97,228.87L659.96,232.12L660.03,235.08Z" class="land" id="TZ-25" title="Tanga"/>
    <path d="M439.81,146.81L438.55,147.29L436.53,150.13L436.1,154.68L435.28,159.03L434.17,161.77L432.35,163.53L430.53,164.47L428.74,167.47L428.33,170.57L427.56,171.57L427.91,176.91L428.62,178.75L428.18,181.88L427.59,183.35L427.47,186.57L428.1,189.76L428.17,194.82L427.99,197.52L431.65,200.38L436.94,199.81L439.53,200.57L440.36,201.82L439.66,204.81L440.39,206.3L442.87,209.23L442.81,210.18L440.7,211.07L439.7,212.1L437.32,218.18L434.92,221.56L432.42,223.08L431.85,224.33L434.06,225.43L434.56,227.02L436.77,229.6L436.13,232.65L433.03,233.93L432.32,235.02L432.15,237.14L430.53,240.84L430.43,242.11L428.16,246.74L426.93,252.79L425.62,254.93L423.69,256.16L421.55,256.8L421.21,258.12L417.31,260.52L416.24,262.68L414.55,264.05L412.26,264.77L410.16,267.21L408.88,271.17L409.17,280L408.64,281.44L407.23,283.31L405.34,283.23L404.22,283.94L402.58,283.48L401.6,284.05L399.09,283.26L395.15,283.91L392.9,283.54L391.44,282.06L389.83,281.79L387.29,279.61L383.86,279.58L381.44,281.11L379.51,281.5L378.98,282.77L377.92,283.44L376.84,282.67L374.17,283.37L373.79,284.85L372.17,284.85L372.16,274.48L372.55,273.44L372.73,267.69L372.48,262.14L372.48,257.72L369.56,256.7L367.34,254.03L364.33,254.1L362.7,253.07L357.7,252.72L355.87,250.78L353.66,249.44L350.58,249.75L348.14,247.69L346.69,247.28L345.27,245.19L344.64,243.25L344.78,241.49L342.3,237.92L342.13,236.2L340.69,234.35L340.97,232.04L340.15,230.38L338.85,229.86L337.95,227L333.68,226.15L333.06,226.45L328.98,225.38L328.54,224.62L326.49,225.29L325.74,226.43L323.24,227.99L322.3,229.16L318.95,230.56L317.03,230.4L315.53,229.03L312.04,229.95L309.17,230.04L307.37,228.44L306.39,228.64L304.02,227.96L302.5,228.98L301.35,228.01L300.82,226.16L299.56,226.59L298.44,225.95L297.36,226.98L295.9,222.61L294.38,220.03L291.53,218.04L291.16,217.03L292.7,215.39L292.49,214.34L294.24,212.87L296.33,212.49L298.08,211.28L298.22,208.68L297.72,200.75L299.06,197.85L299.33,195.89L301.06,193.34L301.72,191.32L300.68,190.41L300.48,188.26L301.49,187.3L303.64,186.92L304.16,185.78L308.2,181.48L308.13,178.72L307.73,177.56L308.71,176.37L309.81,176.69L311.01,175.99L312.68,172.91L312.1,169.12L311.09,167.64L311.04,164.89L312.85,163.55L313.03,162.7L317.41,163.57L318.89,163.17L320.31,161.24L321.22,158.47L320.54,157.42L321.56,155.27L321.72,153.74L321.04,150.45L319.62,149.03L320.65,146.61L321.73,145.67L326.54,147.33L331.19,147.89L333.88,149.06L338.67,153.18L341.59,154.79L343.67,154.75L345.54,155.49L350.31,156.22L352.19,155.94L354.1,157.65L355.72,158.56L356.46,157.21L356.66,155.08L356.05,153.18L357.9,153.2L359.84,153.95L360.8,151.97L362.2,151.4L362.73,152.32L364.26,152.72L364.83,155.1L364.73,156.74L368.24,155.8L372.17,154.36L371.37,152.01L369.81,152.19L368.09,151.07L367.03,149.31L368.52,148.97L369.53,147.26L369.37,145.13L369.99,143.17L370.11,140.54L372.68,140.86L375.28,140.78L377.01,139.15L380.45,139.62L381,139.07L384.77,138.69L385.49,140.17L388.23,141.54L390.41,141.13L392.23,141.38L397.27,138.96L402.5,138.09L403.23,137.68L405.56,138.93L406.04,138.44L408.73,138.67L410.72,137.59L412.62,137.29L415.15,138.04L414.84,139.33L416.36,140.18L419.04,140.31L419.96,139.71L423.92,141.05L424.95,140.72L427.75,141.19L429.22,142.99L430.92,144.13L433.61,144.99L435.9,144.31Z" class="land" id="TZ-24" title="Tabora"/>
    <path d="M467.09,133.91L467.19,138.54L468,140.29L470,140.49L471.37,139.92L472.67,138.53L473.82,138.7L474.77,141.66L475.95,142.78L478.51,142.6L477.36,147.43L477.28,150.64L477.55,152.93L476.8,154.54L474.74,155.96L472.55,160.56L473.04,162.69L477.64,164.91L478.72,166.88L480.73,168.63L482.44,172.44L485.03,173.03L485.88,175.26L485.82,177.85L486.4,179.06L488.53,179.62L492.41,181.38L494.26,184.47L495.11,184.84L494.06,187.25L492.27,189.65L489.86,190.71L487.92,192.59L486.93,192.43L484.5,195.72L482.08,196.96L482.2,198.03L483.38,199.05L483.36,203.88L485,206.94L484.86,208.46L485.99,210.41L488.34,213.48L488.41,214.85L490.4,216.38L490.75,218.16L492.8,219.65L494.96,221.95L494.85,224.74L492.82,225.91L491.42,228.86L491.23,230.65L490.39,231.86L489.61,235.41L488.98,236.43L488.75,243.19L486.84,247.22L487.14,249.74L488.5,250.55L489.31,254.73L490.52,256.48L490.3,259.38L488.51,260.36L489.8,263.15L488.68,264.98L488.46,267.83L487.69,269.59L488.47,272.77L483.45,273.79L482.41,274.91L482.86,279.26L482.9,282.39L478.76,281.15L477.43,281.41L475.35,280.63L473.98,282.01L473.02,282.08L470.39,284.1L468.65,284.9L465.8,287.6L463.59,288.6L462.29,291.31L461.26,292.24L459.73,294.76L455.55,297.18L453.91,299.14L451.72,300.89L448.8,301.24L446.42,302.05L443.25,301.62L440.76,303.73L432.43,305.81L431.81,306.8L432.3,308.67L430.76,311.27L428.56,311.58L422.14,311.06L422,310.01L422.94,307.71L422.76,305.45L422.17,304.15L421.39,300.21L422.44,292.94L421.64,291.6L419.13,291.15L417.13,289.91L416.5,288.45L414.57,287.04L411.37,285.68L410.16,283.87L408.54,283.98L407.23,283.31L408.64,281.44L409.17,280L408.88,271.17L410.16,267.21L412.26,264.77L414.55,264.05L416.24,262.68L417.31,260.52L421.21,258.12L421.55,256.8L423.69,256.16L425.62,254.93L426.93,252.79L428.16,246.74L430.43,242.11L430.53,240.84L432.15,237.14L432.32,235.02L433.03,233.93L436.13,232.65L436.77,229.6L434.56,227.02L434.06,225.43L431.85,224.33L432.42,223.08L434.92,221.56L437.32,218.18L439.7,212.1L440.7,211.07L442.81,210.18L442.87,209.23L440.39,206.3L439.66,204.81L440.36,201.82L439.53,200.57L436.94,199.81L431.65,200.38L427.99,197.52L428.17,194.82L428.1,189.76L427.47,186.57L427.59,183.35L428.18,181.88L428.62,178.75L427.91,176.91L427.56,171.57L428.33,170.57L428.74,167.47L430.53,164.47L432.35,163.53L434.17,161.77L435.28,159.03L436.1,154.68L436.53,150.13L438.55,147.29L439.81,146.81L441.11,146.63L444.67,147.15L446.72,147L448.24,145.7L450.05,145.03L449.86,142.94L452.13,140.8L454.42,139.85L458.66,138.9L459.33,139.53L461.07,138.92L462.24,136.38L463.7,136.78L465.14,135.7L465.29,134.5Z" class="land" id="TZ-23" title="Singida"/>
    <path d="M321.73,145.67L322.39,143.08L323.09,142.06L325.89,140.98L328.8,140.62L328.98,139.41L330.43,137.33L331.13,135.04L330.9,132.9L333.86,132.03L335.29,131.16L336.83,131L339.77,132.69L341.47,132.8L344.24,130.93L345.78,132.34L347.15,130.34L351.38,133.13L354.13,134.29L354.27,129.81L355.64,129.65L356.46,126.6L355.46,123.9L353.99,124.82L351.75,125.4L351.08,122.72L352.41,120.23L352.13,116.45L351.33,115.09L351.66,113.17L351.29,110.42L353.23,111.18L353.84,108.96L355.69,108.02L357.54,106.04L360.88,104.94L361.8,106.35L362.57,109.87L361.7,112.42L360.55,114.24L363.56,114.8L365.04,115.77L368.72,117.18L369.64,116.99L369.87,114.23L369.12,112.81L369.22,111.01L371.78,110.35L373.5,107.51L376.97,106.77L377.57,108.29L378.69,108.4L380.25,111.43L382.25,111.74L384.92,114.15L386.56,114.1L389.1,116.29L390.61,116.26L391.57,114.82L394.44,114.19L397.8,114.52L399.47,111.41L400.42,110.47L403.75,110.46L404.22,109.98L405.39,110.29L408.91,109.1L410.59,109.25L412.9,112.28L413.06,113.13L415.78,115.47L416.11,117.24L418.07,118.1L418.52,120.95L420.47,122.45L423.64,119.6L427.11,119.49L428.01,120.5L429.86,121.25L431.89,124.14L434.42,124.13L434.35,126.07L435.97,129.67L435.38,130.87L436.51,133L439.61,135.74L441,138L441.85,140.58L442.64,141.7L441.5,142.79L441.11,146.63L439.81,146.81L435.9,144.31L433.61,144.99L430.92,144.13L429.22,142.99L427.75,141.19L424.95,140.72L423.92,141.05L419.96,139.71L419.04,140.31L416.36,140.18L414.84,139.33L415.15,138.04L412.62,137.29L410.72,137.59L408.73,138.67L406.04,138.44L405.56,138.93L403.23,137.68L402.5,138.09L397.27,138.96L392.23,141.38L390.41,141.13L388.23,141.54L385.49,140.17L384.77,138.69L381,139.07L380.45,139.62L377.01,139.15L375.28,140.78L372.68,140.86L370.11,140.54L369.99,143.17L369.37,145.13L369.53,147.26L368.52,148.97L367.03,149.31L368.09,151.07L369.81,152.19L371.37,152.01L372.17,154.36L368.24,155.8L364.73,156.74L364.83,155.1L364.26,152.72L362.73,152.32L362.2,151.4L360.8,151.97L359.84,153.95L357.9,153.2L356.05,153.18L356.66,155.08L356.46,157.21L355.72,158.56L354.1,157.65L352.19,155.94L350.31,156.22L345.54,155.49L343.67,154.75L341.59,154.79L338.67,153.18L333.88,149.06L331.19,147.89L326.54,147.33Z" class="land" id="TZ-22" title="Shinyanga"/>
    <path d="M502.69,405.26L505.34,403.63L508.91,394.85L511.31,393.87L512.18,395.42L514.79,395.87L515.66,397.13L518.29,395.61L520.27,393.85L522.15,393.87L522.59,398.54L523.54,400.27L523.82,402.27L523.23,403.57L521.25,404.61L520.98,405.82L519.2,408.12L517.42,414.14L515.74,416.02L512.77,418.4L510.91,421.42L512.11,423.44L513.64,424.24L514.79,425.8L515.87,425.85L518.99,424.33L520.96,421.94L524.22,419.58L528.05,417.88L529.97,417.35L531.02,419.44L536.98,418.31L540.07,418.92L541.74,418.07L541.98,416.63L544.44,415.9L546.52,413.88L547.79,413.94L550.01,416L549.73,417.31L550.57,421L552.96,420.31L555.04,418.16L558.71,417.86L562.7,417.99L569.07,414.39L573.47,412.21L580.36,409.85L579.15,413.55L577.92,416.38L576.07,418.04L575.38,419.95L574.46,420.27L572.33,424.37L568.79,426.65L568.15,429.39L568.31,430.7L567.54,432.22L567.82,434.25L569.09,435.14L571.32,438.07L572.98,441.52L575.42,443.35L580.84,444.18L584.96,446.41L591.02,448.12L597.68,450.86L601.44,452.74L602.9,454.22L606.87,455.54L609.64,456.13L612.66,455.91L614.56,456.16L615.68,459.99L615.46,461.01L615.76,465.21L618.83,465.22L621.15,464.73L623.09,464.46L623.46,466.87L622.67,467.73L622.4,469.45L621.2,470.88L622.06,473.1L621.52,474.3L622.19,475.75L621.97,478.79L623.61,481.96L623.52,484.51L624.51,485.91L624.88,487.85L626.61,490.54L623.88,491.18L621.1,490.58L618,490.33L613.14,492.84L612.95,495.6L612.04,497.58L610.99,498.37L610.5,500.65L610.65,502.78L609.2,504.46L604.98,505.7L603.26,507.16L601.41,508.04L598.95,507.45L597.28,507.59L594.16,509.31L593.63,510.82L591.96,511.22L589.47,510.45L587.93,508.87L586.18,508.6L584.24,509.45L581.18,508.51L577.49,508.07L574.94,505.46L574.08,507.07L568.47,507.24L567.38,506.58L564.78,506.32L562.17,509.66L560.45,511.44L557.79,512.9L554.96,512.89L552.9,514L550.49,512.78L550.02,511.32L546.25,511.38L544.5,510.89L543.63,511.96L541.36,511.88L539,512.66L537.69,512.11L535.88,512.57L534.4,510.12L534.93,508.83L534.51,506.44L532.22,504.62L527.55,502.23L524.3,501.29L524.51,499.33L523.59,498.48L519.6,498.43L517.82,497.74L515.74,500.72L512.69,501.2L512.31,503.01L510.92,504.84L509.24,506.26L506.22,507.12L503.15,506.15L502.12,506.69L497.72,506.07L495.09,504.85L476.94,505.56L475.92,501.29L475.42,498L474.68,496.2L473.38,495.11L469.69,493.46L468.32,492.33L466.17,487.15L464.06,484.76L462.16,484.04L461.32,482.87L461.62,480.48L460.49,480.32L460.03,478.31L460.39,477.01L461.71,475.37L462.44,466.24L460.76,463.73L461.18,462.56L460.32,460.12L459.36,458.87L459.71,457.75L458.02,456.54L457.54,454.89L463.93,455.54L467.85,453.48L468.66,451L469.76,451.27L470.31,453.43L472.12,452.38L473.25,450.34L475.68,448.24L478.57,443.48L479.51,442.57L478.02,440.76L478.51,438.96L480.78,437.62L484.13,438.21L485.85,437.8L488.1,433.58L489.22,430.38L489.29,428.82L486.9,425.67L487.33,421.98L483.98,418.96L486.36,417.99L489.28,415.82L490.48,414.46L494.74,412.15L496.13,411.69L497.17,410.31L499.86,407.85L500.36,406.9Z" class="land" id="TZ-21" title="Ruvuma"/>
    <path d="M336.12,322.93L342.92,327.4L352.24,332.86L359.77,339.13L360.58,342.11L359.77,344.92L357.27,345.34L356.47,347.07L354.9,349.01L353.96,348.52L351.41,348.73L349.36,352.49L349.99,354.01L349.53,355.07L350.8,356.26L350.91,358.83L350.55,361.17L348.82,363.03L348.83,365.25L347.6,367.19L345.53,368.02L344.61,367.13L343.16,367.22L341.58,368.06L339.49,371.12L337.72,372.37L340.6,374.83L339.84,375.64L343.1,378.4L341.8,381.19L342.13,384.43L339.61,384.13L336.56,385.32L335.49,384.78L333.73,382.53L333.47,380.82L334.22,378.63L328.65,376.47L326.28,376.42L324.15,377.99L321.55,377.41L320.54,375.91L317.04,373.93L316.34,372.51L316.91,369.46L316.37,367.73L314.29,366.36L312.53,366.51L311.07,364.41L308.19,363.99L307.08,361.86L305.9,363.25L304.49,362.9L302.36,363.99L301.3,362.52L299.35,361.88L297.26,362.3L296.18,359.21L295.8,353.85L292.8,351.81L291.55,349.97L290.46,347L289.06,347.89L288.55,346.72L288.6,344.77L287.63,342.19L288.39,340.16L286.47,338.88L285.24,336.64L285.38,334.09L283.21,332.81L282.4,331L282.37,329.1L280.58,329.01L279.73,325.69L277.61,320.67L274.79,317.92L272.81,315.19L271.89,312.81L269.45,310.81L270.78,308.94L270.38,306.29L271.24,304.9L269.65,301.45L268.56,299.97L266.19,293.13L267.62,292.25L269.39,287L269.1,284.81L267.71,283.34L266.36,283.15L265.26,282.16L271.1,280.82L274.32,280.52L277.52,281.19L279.24,281.87L282.26,282.11L286.93,283.16L287.91,284.37L287.9,286L287.13,289.5L288.66,291.34L291.5,291.46L293.12,292.09L296.31,294.37L296.99,296.42L298.21,296.13L302.3,296.4L305.73,297.98L305.38,301.59L306.13,306.38L307.18,308.56L312.45,308.65L312.65,310.32L313.58,311.25L314.93,313.11L317.4,314.2L322.31,314.36L325.99,314.79L325.99,318.73L331.58,318.85Z" class="land" id="TZ-20" title="Rukwa"/>
    <path d="M611.7,233.16L612.62,232.79L614.8,233.16L618.13,230.75L620.7,231.58L623.77,231.63L624.66,231.06L625.93,231.69L627.88,231.35L630.65,232.33L632.18,234.6L633.76,235L635.15,234.68L637.14,236.09L637.39,237.7L640.74,237.65L640.85,238.6L643.2,239.26L644.07,238.29L645.69,238.69L646.97,238.16L647.82,239.06L651.76,236.58L654.56,235.72L659.12,236.41L658.09,239.38L658.17,240.78L659.04,242.71L662.14,246.62L662.2,248.81L661.02,253.24L661.33,254.87L662.83,257.17L663.86,257.54L664.82,259.72L666.68,259.89L667.11,260.74L669.52,261.76L671.01,261.46L672.22,262.26L674.31,265.22L672.63,266.62L671.4,269.97L671.42,272.61L668.93,275.37L671.12,275.9L671.35,278.24L671.93,279.6L674.03,279.98L673.71,281.87L672.73,282.25L672.09,284.95L671.36,285.91L671.86,288.66L674.92,289.42L675.74,286.86L676.82,286.45L677.67,285.08L678.99,285.61L679.93,283.77L681.34,283.24L684.08,283.44L687.57,285.85L687.99,289.04L687.81,290.41L688.56,293.17L689.95,294.6L689.01,295.96L688.72,297.73L686.56,299.77L685.19,303.25L685.28,304.91L683.74,306.67L682.85,309.07L682.54,311.31L681.65,314.06L681.83,316.33L682.95,318.11L682.33,320.3L683.22,321.93L684.1,320.74L687.73,324.01L689.77,324.89L689.65,326.61L688.17,329.13L689.1,332.86L689.84,334.02L688.47,337.77L686.36,340.94L685.81,343.47L684.43,345.79L684.82,347.93L683.3,348.08L681.7,346.56L678.77,346.15L676.5,346.87L674.44,348.82L673,349.64L669.21,349.74L666.23,351.47L661.75,352.62L659.91,353.39L658.14,355.05L656.36,357.52L655.21,358.38L650.84,358.32L645.66,357.83L645.36,353.55L645.41,350.64L644.06,348.89L627.32,339.83L621.14,337.86L615.87,335.31L613.71,334.03L613.6,332.28L611.76,330.6L611.8,328.82L613.74,327.14L612.56,323.43L612.79,319.29L614.45,317.52L617.02,313.91L620.5,311.19L623.47,313.29L626.41,316.25L631.06,314.84L635.61,313.68L635.75,310.32L635.56,306.1L635.65,298.75L637.05,296.67L639.4,294.45L640.78,295.06L642.14,294.03L642.77,291.73L643.94,291.05L645.17,287.17L643.1,287.34L639.52,286.47L637.52,286.85L636.21,286.36L635.33,284.62L633.81,283.86L633.65,282.16L633.68,275.73L632.86,271.78L631.16,271.98L629.35,271.55L628.35,270.55L625.44,269.59L623.18,269.59L621.24,266.93L621.36,249.26L621.71,248.8L624.88,248.14L623.91,247.01L620.09,246.37L618.88,244.14L615.87,242.54L614.87,240.39L614.87,239.12L613.86,237.05L614.74,236.76L613.67,234.55ZM706.56,331.85L707.14,332.44L705.58,334.98L704.48,333.45L706.14,333.05ZM711.21,316.41L711.7,317.25L711.53,319.97L710.49,324.32L708.83,326.91L709.14,327.73L708.15,329.57L705.12,329.28L703.53,330.62L704.07,332.59L701.33,333.6L699.25,333.53L697.45,332.01L698,330.31L700.31,329.06L701.62,327.1L702.47,324.86L703.6,324.97L706,324.28L706.47,322.16L707.92,321.57L709.67,319.43Z" class="land" id="TZ-19" title="Pwani"/>
    <path d="M388.23,37.7L388.07,39.1L388.81,40.36L386.46,41.86L384.78,41.4L384.35,39.19L384.96,38.14ZM357.24,61.2L358.84,62.15L359.06,63.96L360.47,64.08L360.03,61.98L362.29,61.83L362.75,63.31L361.68,64.96L362.24,66.84L359.55,68.36L357.46,68.46L357.21,67.38L358.21,66.29L356.16,65.16ZM338.81,64.23L337.12,65.08L335.99,63.67L336.13,59.72L338.95,58.31L338.81,60.29L340.08,61.98ZM381.97,44.39L381.94,45.46L383.55,46.76L387.03,46.66L388.79,46.04L389.35,47.12L388.98,49.81L389.84,51.24L392.51,53.74L391.39,55.22L391.17,56.85L388.31,55.07L387.73,53.81L385.8,54.36L382.41,52.61L378.77,52.1L376.44,49.5L378.7,48.17L378.41,46.52L377.41,44.64L379.57,43.7L380.35,42.43L381.56,43.2ZM373.56,95.33L370.99,96.08L369.19,95.15L365.96,92.66L364.23,92.33L364.13,89.28L362.44,87.11L362.99,86L360.9,85.27L358.12,85.06L356.97,84.5L355.93,83.06L356.66,80.55L358.35,79.63L361.31,79.34L361.11,77.94L353.47,76.8L349.5,76.92L349.27,75.44L347.43,73.93L346.75,71.91L345.73,72.88L343.98,72.94L342.47,71.49L341.46,69.55L339.95,68.45L340.9,67.01L342.63,66.43L344.16,67.61L346.26,65.37L346.8,64.2L348.12,63.51L348.15,62.44L351.27,61.53L352.16,62.01L352.83,63.83L353.99,64.54L353.26,66.54L354.69,67.54L355.44,68.81L355.22,70.32L360.39,70.34L361.17,71.53L362.61,70.45L362.81,72.3L364.43,72.64L367.69,69.89L368.75,69.86L370.22,71.32L372.09,72.37L373.33,73.73L374.33,72.14L376.04,73.09L376.74,75.8L376.64,77.65L375.83,78.07L375.72,79.92L376.51,83.54L378.79,84.28L377.29,87.32L377.3,88.78L374.65,89.37L373.82,89.07L371.43,90.06L371.9,90.92L373.69,91.14L374.95,92.36L373.22,93.93ZM406.26,70.03L408.01,71.16L409.98,71.5L411.5,73.11L411.91,75.1L414.09,74.52L413.7,77.21L414.03,78.58L417.54,80.66L419.04,80.81L420.79,82.04L421.28,82.99L421.55,86.75L419.49,87.66L418.61,86.76L415.45,87.9L414.36,86.68L410.21,87.78L410.05,88.89L407.92,90.43L408.98,94.34L408.86,95.71L407.61,96.7L406.98,99.18L407.41,99.96L406.79,104.16L405.37,104.92L404.82,106.37L405.17,108.69L404.22,109.98L403.75,110.46L400.42,110.47L399.47,111.41L397.8,114.52L394.44,114.19L391.57,114.82L390.61,116.26L389.1,116.29L386.56,114.1L384.92,114.15L382.25,111.74L380.25,111.43L378.69,108.4L377.57,108.29L376.97,106.77L373.5,107.51L374.14,104.3L375.34,105L374.39,101.43L374.87,98.57L374.57,97.16L375.94,94.75L375.88,93.12L377.11,91.25L377.15,90.12L380.01,88.42L382.09,90.22L384.02,91.1L384.41,89.64L381.79,88.75L382.61,85.86L381.22,85.7L379.98,83.87L380.61,81.48L379.66,79.76L378.64,79.96L378.08,78.03L380.37,74.73L378.58,71.64L382.09,67.32L385.31,66.83L386.7,67.22L387.68,66.58L390.91,68.07L391.42,71.34L393.03,71.62L393.91,73.55L394.86,73.69L397.46,72.9L398.63,73.33L398.59,74.5L401.68,74.16L403.47,74.32L404.11,75.47L406.52,72.81L403.59,71.3Z" class="land" id="TZ-18" title="Mwanza"/>
    <path d="M626.61,490.54L624.88,487.85L624.51,485.91L623.52,484.51L623.61,481.96L621.97,478.79L622.19,475.75L621.52,474.3L622.06,473.1L621.2,470.88L622.4,469.45L622.67,467.73L623.46,466.87L623.09,464.46L621.15,464.73L626.93,462.75L630.27,463.31L633.7,462.78L634.24,462.04L634.33,459.12L635.02,458.84L641.28,458.95L647.63,456.23L650.59,454.1L653.8,453.92L655.07,453.02L655.68,454.6L657.2,456.06L658.69,456.28L662.66,456.08L663.17,454.49L665.92,453.73L667.74,452.19L671.53,451.23L674.46,449.24L676.8,448.64L678.54,447.29L680.37,446.52L681.62,446.7L684.26,445.47L685.55,446.66L687.44,445.84L690.45,447.28L691.49,448.61L691.94,451.83L695.22,455.15L696.09,458.63L698,458.62L699.17,459.5L700.18,457.54L703.1,455.1L701.82,453.63L702.57,451.85L701.34,447.88L701.39,445.46L705.21,442.6L709.41,442.3L710.93,442.46L711.06,440.83L714.41,439.44L715.66,437.95L714.61,436.77L716.09,436.11L721.63,437.99L721.98,442.22L723.73,442.14L726.17,443.03L727.54,441.52L729.79,442.66L731.5,446.81L734.32,447.19L734.04,445.47L734.99,444L737.06,446.59L736.9,447.28L734.2,448.98L733.44,450.26L735.98,450.57L736.64,452.43L733.96,455.16L733.3,456.66L732.04,457.51L729.43,457.67L727.03,459L717.37,467.77L715.55,469.06L710.64,470.51L708.54,472.12L701.47,475.34L698.38,475.51L693.66,477.24L689.07,480.73L685.88,482.01L682.37,485.24L680.01,486.63L678.67,486.64L677.36,485.78L674.99,485.24L670.69,486.37L665.07,486.09L663.09,486.42L660.48,488.59L658.25,489.76L656.43,491.39L654.96,491.14L652.06,491.41L650.85,492.15L648.38,494.71L646.34,495.77L643.92,498.08L642.39,497.79L641.41,496.84L639.08,496.45L636.75,493.85L634.83,493.83L633.56,491.88L631.11,491.24L627.78,491.14Z" class="land" id="TZ-17" title="Mtwara"/>
    <path d="M574.92,233.29L577.29,231.56L579.73,236.62L580.71,237.83L582.1,238.34L584.82,238.32L587.52,237.83L588.12,237.32L590.9,237.14L592.43,235.22L592.56,231.63L594.73,228.9L600.02,229.8L602.62,231.46L602.76,233.44L603.76,234.18L603.89,235.94L606.44,234.18L607.9,231.82L609.55,233L611.7,233.16L613.67,234.55L614.74,236.76L613.86,237.05L614.87,239.12L614.87,240.39L615.87,242.54L618.88,244.14L620.09,246.37L623.91,247.01L624.88,248.14L621.71,248.8L621.36,249.26L621.24,266.93L623.18,269.59L625.44,269.59L628.35,270.55L629.35,271.55L631.16,271.98L632.86,271.78L633.68,275.73L633.65,282.16L633.81,283.86L635.33,284.62L636.21,286.36L637.52,286.85L639.52,286.47L643.1,287.34L645.17,287.17L643.94,291.05L642.77,291.73L642.14,294.03L640.78,295.06L639.4,294.45L637.05,296.67L635.65,298.75L635.56,306.1L635.75,310.32L635.61,313.68L631.06,314.84L626.41,316.25L623.47,313.29L620.5,311.19L617.02,313.91L614.45,317.52L612.79,319.29L612.56,323.43L613.74,327.14L611.8,328.82L611.76,330.6L609.95,331.17L607.91,332.81L606.37,336.38L604.67,339.49L603.79,344.18L601.32,349.05L600.2,352.81L597.5,356.73L594.69,358.48L593.09,364.59L592.83,369.47L593.35,372L592.92,377.46L591.84,382.4L591.82,386.64L591.47,388.4L590.29,390.51L588.97,394.82L588.81,397.06L588.15,397.58L587.17,400.01L587.29,402.79L586.46,405.66L585.67,406.84L580.36,409.85L573.47,412.21L569.07,414.39L562.7,417.99L558.71,417.86L555.04,418.16L552.96,420.31L550.57,421L549.73,417.31L550.01,416L547.79,413.94L546.52,413.88L544.44,415.9L541.98,416.63L541.74,418.07L540.07,418.92L536.98,418.31L531.02,419.44L529.97,417.35L528.05,417.88L524.22,419.58L520.96,421.94L518.99,424.33L515.87,425.85L514.79,425.8L513.64,424.24L512.11,423.44L510.91,421.42L512.77,418.4L515.74,416.02L517.42,414.14L519.2,408.12L520.98,405.82L521.25,404.61L523.23,403.57L523.82,402.27L523.54,400.27L522.59,398.54L522.15,393.87L520.27,393.85L518.29,395.61L515.66,397.13L514.79,395.87L512.18,395.42L511.31,393.87L508.91,394.85L505.34,403.63L502.69,405.26L502.9,400.09L502.67,399.37L502.68,390.24L503.05,387.45L503.78,384.96L500.99,383.54L497.17,382.27L498.26,380.71L496.35,377.7L494.3,375.48L495.91,373.24L495.81,371.07L494.43,369.17L495.69,367.86L495.92,366.61L498.68,365.57L501.48,365.3L503.3,365.56L504.7,366.51L507.1,366.77L508.78,369.88L510.47,369.31L511.96,368.06L511.65,365.62L519.24,360.93L520.3,359.65L521.09,355.81L522.38,354.7L524.3,354.37L527.43,350.87L531.42,347.61L533.03,344.84L534.3,343.41L540.67,337.83L546.02,334.61L548.35,332.86L548.38,335.11L560.11,334.97L559.63,332.83L564.89,325.11L565.92,323.12L565.75,321.21L566.43,316.94L563.4,316.7L563.85,314.43L559.21,313.61L557.35,311.44L554.7,311.36L553.95,310.54L551.4,310.95L550.19,306.64L549.08,305.61L549.2,304.05L551.66,301.87L551.48,299.57L550.42,296.91L550.25,295.09L550.77,293.49L553.19,288.54L557.09,287.2L557.07,283.59L556.56,282.31L556.95,280.56L556.53,278.83L556.95,274.9L556.29,273.5L557.82,271.95L558.19,270.18L560.02,268.1L560.88,265.53L561.87,264.88L561.68,262.07L560.59,261.77L560.76,260.18L563.18,257.81L564.27,257.55L566.64,255.32L566.62,250.85L565.78,244.56L565.07,240.91L567.53,238.68L570.98,237.05L572.08,234.75Z" class="land" id="TZ-16" title="Morogoro"/>
    <path d="M681.81,239.65L682.17,240.73L681.35,245.26L681.61,246.93L683.3,249.72L682.13,251.59L681.94,253.52L677.95,248.85L678.36,247.25L677.37,245.96L678.73,244.49L678.22,240.01L680.01,240.14Z" class="land" id="TZ-15" title="Mjini Magharibi"/>
    <path d="M378.98,282.77L379.51,281.5L381.44,281.11L383.86,279.58L387.29,279.61L389.83,281.79L391.44,282.06L392.9,283.54L395.15,283.91L399.09,283.26L401.6,284.05L402.58,283.48L404.22,283.94L405.34,283.23L407.23,283.31L408.54,283.98L410.16,283.87L411.37,285.68L414.57,287.04L416.5,288.45L417.13,289.91L419.13,291.15L421.64,291.6L422.44,292.94L421.39,300.21L422.17,304.15L422.76,305.45L422.94,307.71L422,310.01L422.14,311.06L428.56,311.58L430.76,311.27L432.3,308.67L431.81,306.8L432.43,305.81L440.76,303.73L441.02,309.65L444.26,314.21L444.36,315.53L445.38,316.61L448.18,320.8L449.88,321.07L455.71,320.03L461.39,320.6L463.85,321.38L467.2,325.48L471.89,329.07L472.2,330.42L476.27,337.99L477.46,338.61L476.09,340.76L474.66,341.68L472.52,344.51L471.23,345.63L468.36,349.21L466.4,352.19L464.69,353.4L463.96,355.38L465.41,356.77L465.94,358.44L465.35,361.56L465.64,364.15L464.72,365.65L463.53,365.69L459.54,366.92L457.96,369.5L457.44,371.56L455.81,372.65L453.27,372.68L450.13,373.54L445.46,373.34L445.1,377.9L442.78,378.69L441.05,378.77L439.07,374.98L437.43,374.04L434.22,374.2L434.19,375.88L433.4,376.9L431.24,376.3L431.19,375.37L426.87,375.75L426.83,374.07L424.24,374.27L423.43,377.44L423.43,383.18L422.61,384.54L424.35,386.65L424.31,388.58L424.9,389.33L423.83,390.99L425.23,392.84L427.84,393.78L430.71,397.51L430.58,399.45L434.77,405.61L435.22,407.06L433.26,405.29L432.25,405.42L429.87,407.05L428.94,409.15L429.97,411.79L428.64,415.86L427.16,415.63L424.31,412.63L422.81,411.88L422.21,410.84L420.17,409.62L418.13,409.66L417.4,411.37L416.27,410.89L416.18,408.95L417.33,406.58L415.79,403.6L413.72,402.32L412.77,399.9L410.88,397.89L409.43,397.24L407.58,395.55L405.59,397.52L403.02,396.74L400.22,393.59L398.51,393.41L395.4,395.87L391.38,395.87L390.71,394.04L393.64,391.03L397.47,390.41L397.38,389.54L395.26,388.4L394.99,387.44L395.67,385.75L394.99,384.61L394.86,380.82L395.67,379.58L394.72,377.43L394.5,375.79L392.51,372.92L388.68,369.49L387.32,368.83L386.6,366.09L387.46,363.44L389.13,363.12L390.75,365.09L392.01,367.32L394.32,368.56L395.4,367.32L393.28,363.86L391.52,362.53L390.75,361.3L390.89,359.43L389.8,357.65L387.28,355.96L386.83,355.09L387.23,353.22L390.25,350.17L392.28,348.53L392.24,347.8L390.35,346.84L387.46,346.7L384.21,347.98L383.22,347.07L383.26,342.79L383.8,341.23L384.07,338.04L385.7,335.72L385.92,331.89L387.64,328.89L386.46,328.43L382.49,328.48L381.32,327.7L383.04,323.15L385.15,322.56L385.92,319.69L385.92,312.54L383.62,311.86L381.82,312.81L380.38,312.68L379.88,309.94L379.03,309.08Z" class="land" id="TZ-14" title="Mbeya"/>
    <path d="M491.11,33.57L488.95,51.37L490.48,57.26L491.58,62.44L491.58,65.07L486.57,66.78L488.76,71.23L489.29,71.82L482.65,71.81L478.49,71.25L468.31,71.31L466.78,70.89L462.65,71.51L460.39,71.17L458.38,71.48L454.76,71.24L451.41,68.64L450.57,67.45L448.65,66.63L446.51,65.09L445.7,63.02L444.27,62.56L442.38,62.76L441.03,62.04L439.33,60.29L437.6,60.93L435.87,60.58L433.32,58.36L431.05,56.84L428.89,57.28L426.81,56.72L424.39,57.55L424.06,54.97L421.85,52.65L419.74,53.6L417.27,55.4L415,56L414.62,57.27L413.08,57.89L411.81,57.34L409.13,56.97L407.58,56.36L404.25,56.29L402.37,57.18L398.32,54.3L394.97,55.57L394.79,54.22L395.61,51.43L399.2,51.24L400.58,50.33L401.67,51.27L403.42,51.04L403.22,49.19L404.49,48.23L406.65,49.2L408.32,50.99L411.34,49.64L411.21,48.73L407.56,47.15L407.78,45.61L405.3,44.2L404.81,45.25L403.13,45.42L399.93,46.88L399.17,46.23L400.32,43.75L400.51,41.4L402.98,39.86L405.85,39.56L406.28,41.71L411.06,40.33L411.84,38.9L413.43,38.45L414.36,39.16L415.8,38.2L414.99,37.21L413,36.3L412.36,35.15L415.27,33.91L417.5,34.44L418.99,33.82L418.7,32.51L415.42,29.92L415.51,28.97L417.59,27.47L415.65,24.98L417.03,24.66L419.06,25.61L420.35,25.72L421.52,24.6L422.33,25.42L423.64,25.02L424.14,26.44L425.35,27.16L428.71,27.4L428.31,26.21L426.1,25.17L425.03,23.72L423.24,23.54L422.49,22.56L423.68,20.7L422.79,18.98L423.33,17.99L426.95,17.51L428.54,18.41L431.67,18.66L428.85,16.12L426.03,15L425.92,13.31L426.68,12.55L429.36,11.2L431.37,8.87L430.54,7.36L433.5,6.09L435.6,2.7L442.17,5.56L449.23,9.72L458.33,14.91L459.06,15.09L468.76,20.57Z" class="land" id="TZ-13" title="Mara"/>
    <path d="M611.76,330.6L613.6,332.28L613.71,334.03L615.87,335.31L621.14,337.86L627.32,339.83L644.06,348.89L645.41,350.64L645.36,353.55L645.66,357.83L650.84,358.32L655.21,358.38L656.36,357.52L658.14,355.05L659.91,353.39L661.75,352.62L666.23,351.47L669.21,349.74L673,349.64L674.44,348.82L676.5,346.87L678.77,346.15L681.7,346.56L683.3,348.08L681.15,349.01L682.27,351.2L683.22,354.13L682.37,355.44L682.48,358.16L683.7,359.57L684.81,359.93L685.82,363.47L685.47,366.19L686.5,368.32L689.22,369.28L689.84,371.62L691.61,373.3L692.85,375.41L692.9,379.17L691.39,379.58L691.62,381.54L692.48,383.33L692.24,385.13L691.29,386.14L693.32,387.24L694.49,386.06L694.9,383.4L695.88,383.37L697.82,384.98L697.33,388.15L698.77,390.15L699.28,394.61L699.27,397.36L699.77,399L697.2,401.47L698.38,401.92L701.67,406.65L702.55,409.67L703.23,410.43L702.56,412.24L704.1,413.37L703.19,414.89L704.13,415.57L702.49,417.07L704.29,417.72L704.67,419.47L705.97,420.29L706.61,421.55L706.64,423.66L705.15,424.67L705.88,426.14L702.32,427.58L703.7,428.76L707.36,428.89L707.89,430.04L710.43,430.62L712.08,431.96L714.81,435.9L714.15,437.05L715.12,438.24L714.41,439.44L711.06,440.83L710.93,442.46L709.41,442.3L705.21,442.6L701.39,445.46L701.34,447.88L702.57,451.85L701.82,453.63L703.1,455.1L700.18,457.54L699.17,459.5L698,458.62L696.09,458.63L695.22,455.15L691.94,451.83L691.49,448.61L690.45,447.28L687.44,445.84L685.55,446.66L684.26,445.47L681.62,446.7L680.37,446.52L678.54,447.29L676.8,448.64L674.46,449.24L671.53,451.23L667.74,452.19L665.92,453.73L663.17,454.49L662.66,456.08L658.69,456.28L657.2,456.06L655.68,454.6L655.07,453.02L653.8,453.92L650.59,454.1L647.63,456.23L641.28,458.95L635.02,458.84L634.33,459.12L634.24,462.04L633.7,462.78L630.27,463.31L626.93,462.75L621.15,464.73L618.83,465.22L615.76,465.21L615.46,461.01L615.68,459.99L614.56,456.16L612.66,455.91L609.64,456.13L606.87,455.54L602.9,454.22L601.44,452.74L597.68,450.86L591.02,448.12L584.96,446.41L580.84,444.18L575.42,443.35L572.98,441.52L571.32,438.07L569.09,435.14L567.82,434.25L567.54,432.22L568.31,430.7L568.15,429.39L568.79,426.65L572.33,424.37L574.46,420.27L575.38,419.95L576.07,418.04L577.92,416.38L579.15,413.55L580.36,409.85L585.67,406.84L586.46,405.66L587.29,402.79L587.17,400.01L588.15,397.58L588.81,397.06L588.97,394.82L590.29,390.51L591.47,388.4L591.82,386.64L591.84,382.4L592.92,377.46L593.35,372L592.83,369.47L593.09,364.59L594.69,358.48L597.5,356.73L600.2,352.81L601.32,349.05L603.79,344.18L604.67,339.49L606.37,336.38L607.91,332.81L609.95,331.17Z" class="land" id="TZ-12" title="Lindi"/>
    <path d="M681.81,239.65L684.22,239.98L687.7,239.35L688.01,240.78L689.01,241.21L688.73,244.76L689.33,246.4L691.61,247.32L692.47,246.54L693.95,247.32L694.01,251.74L694.81,254.2L696.13,256.6L695.28,259.12L694.01,260.39L692.01,260.98L690.58,259.61L688.81,255.55L686.97,254.78L685.13,252.88L684.33,250.68L683.3,249.72L681.61,246.93L681.35,245.26L682.17,240.73Z" class="land" id="TZ-11" title="Kusini Unguja"/>
    <path d="M696.27,210.11L698.52,212.12L697.93,212.66ZM703.92,198.91L706,198.45L706.14,200.63L707.44,199.89L709.06,199.83L708.2,203.76L707.41,205.88L706.51,206.84L706.07,209.68L704.55,211.5L703.04,212.45L700.86,211.21L699.01,211.39L698.41,209.82L698.98,209.07L698.98,206.77L700.72,206.43L700.23,205.04L701.09,202.91L703.04,202.11L701.47,200.5L703.67,200.34Z" class="land" id="TZ-10" title="Kusini Pemba"/>
    <path d="M576.65,118.93L576.35,113.27L576.83,112.5L575.18,107.77L573.62,107.64L572.8,105.48L570.93,105.41L570.7,104.29L569.43,103.45L568.56,101.97L569.23,101.23L570.68,97.56L570.67,94.81L573.41,94.6L575.41,93.82L579.08,89.32L579.74,88.9L585.67,88.52L591.06,89.89L594.14,91.22L596.8,92.63L603.17,96.76L605.63,98.76L607.47,110.05L606.25,110.91L605.24,112.58L603.05,114.54L601.5,116.46L601.5,117.48L603.48,117.73L602.35,120.26L603.44,120.75L605.68,119.71L607.03,120.73L609.02,121.38L610.15,125.61L611,127.7L640.32,148.32L632.51,160.48L629.67,164.69L626.88,168.37L626.35,171.48L625.16,172.22L623.55,172.32L622.96,171.36L621.43,171.26L621.12,172.21L619.62,171.47L618.07,171.54L615.84,170.53L613.77,170.24L611.28,171.91L609.65,171.98L608.95,170.71L606.41,169.32L606.26,168.42L603.63,167.9L600.01,165.36L598.18,163.39L597.1,161.14L597.81,159.19L597.19,157.7L598.1,156.36L597.2,153.7L597.28,151.23L598.19,149.48L598.09,148.06L597.02,145.52L596.93,144.03L596.06,143.59L595.57,141.04L595.95,139.03L595.11,136.74L595.96,134.6L594.88,132.68L592.54,127.46L589.97,125.5L587.87,120.92L587.99,119.37L584.62,118.77L583.83,117.12L581.55,117.13L580.34,118.69L578.58,118.29Z" class="land" id="TZ-09" title="Kilimanjaro"/>
    <path d="M297.72,200.75L296.41,201.3L290.77,201.66L289.19,202.43L287.31,204.53L285.21,204.8L281.36,205.8L281.44,203.56L278.31,202.16L277.15,200.3L275.78,199.12L275.25,197.23L274.09,197.05L272.88,198.66L271.95,198.54L270.86,200.11L268.32,199.31L268.57,197.92L263.03,197.6L258.64,198.38L256.54,198.44L253.86,199.17L252.52,201.38L250.41,201.96L249.94,199.63L246.93,199.73L246.33,204.29L245.7,206.62L241.21,207.12L237.35,206.23L238.81,207.99L240.53,210.74L244.01,212.44L243.84,214.34L242.14,215.51L243.58,216.69L243.16,217.99L245.53,218.79L246.29,220.03L246.13,222.28L248.87,225.56L249.49,227.87L250.43,228.99L250.99,233.92L250.79,236.37L252.11,238.04L254.09,244.38L253.96,248.09L254.2,249.29L254.05,252.94L254.35,255.02L254.21,257.91L254.85,261.4L255.49,262.05L254.15,265.28L253.26,265.75L249.02,261.73L247.51,261.48L242.18,262.67L240.74,263.65L240.28,262.01L238.93,261.71L235.59,259.96L232.22,256.07L229.21,250.95L230.09,249.33L229.4,246.44L229.84,244.36L229.2,242.54L230.59,240.06L233.64,239.49L235.62,238.74L237.86,236.65L238.83,236.82L240.16,234.88L240.64,233.42L240.57,231.22L239.4,227.76L238.08,225.6L236.7,221.46L234.96,217.99L233.68,217.46L231.32,214.35L230.9,212.89L231.06,210.41L232.05,209.25L233.01,206.17L232.63,205.37L233.41,202.97L233.32,201.72L232.11,200.69L234.05,199.49L234.1,196.78L231.74,194.12L230.66,191.56L227.34,191.15L226.89,189.07L225.07,189.36L223.45,188.71L224.73,187.05L223.96,185.9L222.94,182.78L223.13,179.23L224.1,176.37L225.22,171.65L225.97,170.76L225.65,167.42L225.84,164.26L228.03,165.02L229.39,164.7L230.43,165.32L230.79,163.36L232.24,162.15L233.11,160.38L235.96,161.17L236.58,159.97L238.51,159.52L244,156.12L244.91,152.59L245.97,150.66L247.07,150.32L249.45,148.52L250.46,147.24L250.96,145.5L252.83,143.55L252.07,142.6L252.92,140.24L253.77,139.18L254.08,137.52L256.56,135.69L257.3,133.3L258.39,132.31L261.37,132.79L260.82,128.94L261.93,125.99L263.59,124.34L263.56,122.87L264.27,121.18L265.63,120.1L271.25,117.69L273.25,116.07L274.06,114.46L272.58,113.82L271.99,112.71L273.53,110.73L276.1,109.88L276.54,108.58L277.84,109.43L281.23,108.06L280.48,106.19L282.13,105.38L282.01,103.26L281.27,101.66L281.57,100.03L279.62,98.12L282.22,94.59L282.33,94.01L285.48,90.37L288.88,87.64L289.91,87.65L290.73,89.51L292.47,92.05L293.2,94.15L292.51,96.01L292.79,97.21L290.06,101.8L288.79,104.52L290.03,105.81L291.02,104.45L293.44,104.5L295.09,106.68L295.03,109.48L295.8,111.76L296.58,112.74L296.51,113.59L298.44,115.7L299.25,117.66L298.79,119.28L299.48,120.76L299.29,122.21L299.96,127.69L301.14,129.3L303.3,130.38L304.32,132.27L304.39,133.55L305.58,135.12L306.1,138.25L307.32,141.93L307.02,144.77L305.79,146.07L305.67,148.01L304.94,149.49L305.92,152.84L306.83,154.38L306.61,157.02L308.09,158.23L308.92,161.28L309.18,163.84L310.06,165.41L311.04,164.89L311.09,167.64L312.1,169.12L312.68,172.91L311.01,175.99L309.81,176.69L308.71,176.37L307.73,177.56L308.13,178.72L308.2,181.48L304.16,185.78L303.64,186.92L301.49,187.3L300.48,188.26L300.68,190.41L301.72,191.32L301.06,193.34L299.33,195.89L299.06,197.85Z" class="land" id="TZ-08" title="Kigoma"/>
    <path d="M687.7,239.35L684.22,239.98L681.81,239.65L680.01,240.14L678.22,240.01L677.28,237.93L677.24,234.02L678.34,234.46L679.63,232.49L681.57,231.77L682.19,230.01L682.24,225.79L683.79,225.8L685.4,228.38L685.67,229.97L685.3,232.22L685.43,234.28L686.68,238.23ZM679.04,226.53L679.87,230.69L678.74,231.44Z" class="land" id="TZ-07" title="Kaskazini Unguja"/>
    <path d="M709.06,199.83L707.44,199.89L706.14,200.63L706,198.45L703.92,198.91L701.04,197.05L701.44,194.52L702.43,193.33L701.43,192.05L700.27,188.19L700.64,184.58L702.09,185.73L705.77,187.04L709.03,186.84L710.01,186.23L710.12,189.67L709.64,191.82L708.39,191.47L707.72,195.75L709.52,196.04Z" class="land" id="TZ-06" title="Kaskazini Pemba"/>
    <path d="M327.15,56.4L325.62,55.11L328.66,55.09L328.57,56.33ZM329.72,38.1L330.11,36.14L329.64,34.94L330.78,33.06L330.14,31.86L331.79,31.35L334.41,34.02L332.76,34.53L331.32,35.62ZM320.29,66.71L318.12,67.75L319.22,69.62L318.22,69.93L317.69,72.41L315.96,72.68L315.21,73.76L313.73,73.24L312.8,74.05L310.95,74.15L309.32,75.7L308.47,77.79L308.68,79.78L310.54,80.65L311.6,82.42L314.75,81.95L315.53,83.63L317.14,84.52L318.68,84.1L321.79,84.35L323.54,85.51L323.51,86.93L321.28,88.37L319.77,88.37L317.43,89.06L316.49,91.56L315.47,92.42L313.14,90.1L311.88,90.9L311.3,93.74L314.9,100.25L315.99,104.12L315.69,107.19L312.1,109.34L311.37,110.15L309.97,109.73L308.44,110.66L305.11,110.76L302.18,109.21L299.78,109.82L296.58,112.74L295.8,111.76L295.03,109.48L295.09,106.68L293.44,104.5L291.02,104.45L290.03,105.81L288.79,104.52L290.06,101.8L292.79,97.21L292.51,96.01L293.2,94.15L292.47,92.05L290.73,89.51L289.91,87.65L288.88,87.64L285.48,90.37L282.33,94.01L282.22,94.59L277.37,95.41L275.34,94.1L273.7,95.23L272.61,93.32L269.32,90.52L267.49,92.35L265.76,93.31L264.82,92.99L261.65,88.49L262.9,85.78L262.82,83.45L265.53,81.88L266.68,80.73L266.94,79.07L263.68,80.88L261.84,79.5L264.9,74.52L264.83,73.19L265.96,72.07L266.78,69.33L267.68,67.69L268.9,67.99L270.8,67.04L273.08,67.71L275.91,64.95L277.29,66.08L278.9,66.6L280.59,65.42L282.32,63.33L282.35,61.17L281.82,59.47L281.9,57.82L283.34,53.81L284.48,51.44L282.85,49.63L281.11,46.79L280.12,44.22L280.66,42.38L281.64,41.44L280.94,37.72L281.31,36.51L280.44,35.46L280.92,33.13L281.7,31.53L277.29,25.43L276.81,20.5L274.1,19.61L273.25,18.81L271.68,18.82L270.62,17.1L268.77,16.11L268.06,12.59L266.76,10.74L266.05,8.8L264.2,8.06L263.37,4.54L264.39,3.27L266.05,4.16L267.52,4.22L269.57,3.57L271.97,4.03L273.16,3.58L275.01,1.38L276.98,0.9L278.27,0L279.83,0.68L295.58,0.73L297.14,0.56L318.67,0.73L325.33,0.52L325.9,1.35L325.37,3.87L326.05,5.59L328.26,3.69L329.44,4.01L330.06,5.73L329.3,6.44L330.26,9.31L329.96,13.36L330.42,14.73L329.53,17.92L328.02,19.05L328.17,21.2L327.36,23.55L325.99,23.95L325.81,25.85L325.06,26.3L324.91,30.97L323.66,33.13L324.25,35.69L322.86,40.38L322.2,41.82L322.41,43.92L320.51,46.84L318.36,48.45L318.43,49.76L319.63,51.03L321.12,50.57L322.15,51.74L322.26,53.77L321.41,55.61L321.67,58.1L320.44,59.53L320.1,63.19L319.18,66.03Z" class="land" id="TZ-05" title="Kagera"/>
    <path d="M440.76,303.73L443.25,301.62L446.42,302.05L448.8,301.24L451.72,300.89L453.91,299.14L455.55,297.18L459.73,294.76L461.26,292.24L462.29,291.31L463.59,288.6L465.8,287.6L468.65,284.9L470.39,284.1L473.02,282.08L473.98,282.01L475.35,280.63L477.43,281.41L478.76,281.15L482.9,282.39L486.97,285.03L488.73,285.04L490.4,285.76L491.92,284.66L493.36,282.9L496.17,283.02L498.58,282.51L501.1,283.62L502.42,283.54L503.26,285.33L504.61,286.64L506.47,286.15L507.4,287.09L509.76,287.45L510.64,288.42L513.85,289.98L518.03,290.61L519.27,290.01L521.37,291.17L524.35,291.61L525.39,292.46L527.92,291.71L531.76,291.97L533.22,292.35L535.88,294.08L538.19,294.32L539.58,297.05L540.67,297.62L541.65,299.59L541.38,301.27L542.02,302L545.1,300.96L546.99,302.25L548.59,302.7L549.2,304.05L549.08,305.61L550.19,306.64L551.4,310.95L553.95,310.54L554.7,311.36L557.35,311.44L559.21,313.61L563.85,314.43L563.4,316.7L566.43,316.94L565.75,321.21L565.92,323.12L564.89,325.11L559.63,332.83L560.11,334.97L548.38,335.11L548.35,332.86L546.02,334.61L540.67,337.83L534.3,343.41L533.03,344.84L531.42,347.61L527.43,350.87L524.3,354.37L522.38,354.7L521.09,355.81L520.3,359.65L519.24,360.93L511.65,365.62L511.96,368.06L510.47,369.31L508.78,369.88L507.1,366.77L504.7,366.51L503.3,365.56L501.48,365.3L498.68,365.57L495.92,366.61L495.69,367.86L494.43,369.17L495.81,371.07L495.91,373.24L494.3,375.48L496.35,377.7L498.26,380.71L497.17,382.27L495.82,383.13L493.5,383.56L491.68,383.34L488.66,383.7L485.57,383.2L484.63,382.62L485.11,380.56L484.19,378.88L485.62,377.03L485.08,375.9L485.76,374.43L485.16,370.96L483.51,371.3L481.09,370.99L480.23,372.43L477.97,373.51L474.49,372.63L472.06,370.68L473.51,368.61L472.49,366.77L469.71,365.97L468.33,366.3L464.72,365.65L465.64,364.15L465.35,361.56L465.94,358.44L465.41,356.77L463.96,355.38L464.69,353.4L466.4,352.19L468.36,349.21L471.23,345.63L472.52,344.51L474.66,341.68L476.09,340.76L477.46,338.61L476.27,337.99L472.2,330.42L471.89,329.07L467.2,325.48L463.85,321.38L461.39,320.6L455.71,320.03L449.88,321.07L448.18,320.8L445.38,316.61L444.36,315.53L444.26,314.21L441.02,309.65Z" class="land" id="TZ-04" title="Iringa"/>
    <path d="M572.08,234.75L570.98,237.05L567.53,238.68L565.07,240.91L565.78,244.56L566.62,250.85L566.64,255.32L564.27,257.55L563.18,257.81L560.76,260.18L560.59,261.77L561.68,262.07L561.87,264.88L560.88,265.53L560.02,268.1L558.19,270.18L557.82,271.95L556.29,273.5L556.95,274.9L556.53,278.83L556.95,280.56L556.56,282.31L557.07,283.59L557.09,287.2L553.19,288.54L550.77,293.49L550.25,295.09L550.42,296.91L551.48,299.57L551.66,301.87L549.2,304.05L548.59,302.7L546.99,302.25L545.1,300.96L542.02,302L541.38,301.27L541.65,299.59L540.67,297.62L539.58,297.05L538.19,294.32L535.88,294.08L533.22,292.35L531.76,291.97L527.92,291.71L525.39,292.46L524.35,291.61L521.37,291.17L519.27,290.01L518.03,290.61L513.85,289.98L510.64,288.42L509.76,287.45L507.4,287.09L506.47,286.15L504.61,286.64L503.26,285.33L502.42,283.54L501.1,283.62L498.58,282.51L496.17,283.02L493.36,282.9L491.92,284.66L490.4,285.76L488.73,285.04L486.97,285.03L482.9,282.39L482.86,279.26L482.41,274.91L483.45,273.79L488.47,272.77L487.69,269.59L488.46,267.83L488.68,264.98L489.8,263.15L488.51,260.36L490.3,259.38L490.52,256.48L489.31,254.73L488.5,250.55L487.14,249.74L486.84,247.22L488.75,243.19L488.98,236.43L489.61,235.41L490.39,231.86L491.23,230.65L491.42,228.86L492.82,225.91L494.85,224.74L494.96,221.95L492.8,219.65L490.75,218.16L490.4,216.38L488.41,214.85L488.34,213.48L485.99,210.41L484.86,208.46L485,206.94L483.36,203.88L483.38,199.05L482.2,198.03L482.08,196.96L484.5,195.72L486.93,192.43L487.92,192.59L489.86,190.71L492.27,189.65L494.06,187.25L495.11,184.84L495.57,183.85L498.57,184.4L502.07,183.06L502.96,182L504.48,178.24L507.72,176L508.04,174.35L509.44,172.85L510.47,170.48L509.92,169.41L509.86,167.33L514.29,163.7L515.63,162.09L517.7,161.6L517.74,158.01L519.98,159.42L521.74,159.68L524.57,160.83L526.37,161.91L533.65,162.21L538.22,162.76L542.75,163.83L541.87,166.91L540.97,167.87L540,171.06L540.42,174.9L540.26,176.29L540.76,178.49L541.09,182.05L542.34,183.34L541.61,190.23L541.22,191.09L541.59,194.85L540.24,198.77L539.16,200.07L540.28,204.98L540.51,210.48L542.35,212.31L541.53,214.25L541.46,215.79L545.82,219.22L547.04,220.68L547.63,222.71L550.69,223.54L551.67,225.27L553.77,226.1L554.82,228.66L557.08,230.19L558.43,231.77L559.96,234.43L560.27,235.65L561.71,235.32L565.68,235.42L566.87,236L570.17,234.83Z" class="land" id="TZ-03" title="Dodoma"/>
    <path d="M689.95,294.6L688.56,293.17L687.81,290.41L687.99,289.04L687.57,285.85L684.08,283.44L681.34,283.24L679.93,283.77L678.99,285.61L677.67,285.08L676.82,286.45L675.74,286.86L674.92,289.42L671.86,288.66L671.36,285.91L672.09,284.95L672.73,282.25L673.71,281.87L674.03,279.98L671.93,279.6L671.35,278.24L671.12,275.9L668.93,275.37L671.42,272.61L671.4,269.97L672.63,266.62L674.31,265.22L675.75,265.87L676.92,268.01L677.63,268.01L679.02,270.03L680.16,274.02L681.9,275.03L682.2,276.29L685.11,277.85L685.51,278.71L690.46,279.84L692.05,280.87L693.2,284.46L694.49,285.36L694.54,291.08L692.09,294.78L691.68,293.82Z" class="land" id="TZ-02" title="Dar es Salaam"/>
    <path d="M594.14,91.22L591.06,89.89L585.67,88.52L579.74,88.9L579.08,89.32L575.41,93.82L573.41,94.6L570.67,94.81L570.68,97.56L569.23,101.23L568.56,101.97L569.43,103.45L570.7,104.29L570.93,105.41L572.8,105.48L573.62,107.64L575.18,107.77L576.83,112.5L576.35,113.27L576.65,118.93L574.74,119.41L572.95,121.22L572.14,122.74L569.97,122.64L568.69,123.94L567.19,123.36L566.01,126.37L564.41,126.67L562.81,124.07L560.97,122.13L560.16,122.36L557.95,124.69L557.65,125.5L555.67,126.36L555.3,128.08L549.72,131.82L549.18,132.67L544.56,133.44L540.5,133.79L540.17,136.35L540.24,140.29L540.53,141.73L540.35,147.14L540.5,149.92L539.73,150.19L533.41,136.91L526.38,128.26L525.45,126.72L523.61,125.8L520.74,126.1L520.33,125.26L515.85,122.2L513.36,122.48L512.05,128.89L511.16,131.94L507,132.36L508.56,128.68L504.57,128.4L503.76,127.77L501.01,126.96L497.24,124.85L494.55,128.35L492.82,128.29L488.65,131.3L487.97,132.08L484.09,134.57L482.34,135.08L479.36,137.05L478.17,136.54L473.82,138.7L472.67,138.53L471.37,139.92L470,140.49L468,140.29L467.19,138.54L467.09,133.91L469.29,133.18L473.74,130.56L473.67,106.26L473.37,91.11L478.36,95.11L481.33,93.79L482.03,93.07L485.42,91.3L487.66,82.71L489.57,71.79L489.29,71.82L488.76,71.23L486.57,66.78L491.58,65.07L491.58,62.44L490.48,57.26L488.95,51.37L491.11,33.57L493.63,35.02L499.76,38.05L526.16,52.96L535.99,58.89L538.25,60.71L549.95,66.5Z" class="land" id="TZ-01" title="Arusha"/>
  </g>
</svg>