<?xml version="1.0" encoding="UTF-8"?>
<svg xmlns="http://www.w3.org/2000/svg" width="254.32" height="399.63" viewBox="352.84 57.19 254.32 399.63" style="background-color:#000000">
  <!-- Created using SVG Map Generator: dojo.amcharts.com/svg-map-generator -->
  <style>
    .land { fill: #ffffff; stroke: #000000; stroke-width: 0.65; }
  </style>
  <g id="polygons">
    <path d="M579.07,258.5L575.87,255.4L564.83,249.94L557.72,247.88L558.34,240.76L560.81,239.59L565.09,233.75L565.52,227.73L565.38,138.75L604.47,160.08L604.47,218.59L604.51,254.48L596.47,253.18L589.16,254.94L583.93,254.34Z" class="land" id="TD-EE" title="Ennedi-Est"/>
    <path d="M579.07,258.5L580.91,264.19L579.4,269.12L573.12,275.21L574.21,279.31L566.89,281.64L567.29,289.06L569.85,293.29L562.12,298.23L549.38,293.94L543.85,293.11L539.49,295.23L533.63,292.45L529.87,288.38L524.19,286.08L518.3,286.77L511.33,294.18L510.88,253.55L515.8,256.3L523.31,256.62L529.2,257.15L535.89,254.06L538.22,250.13L552.5,249.82L557.72,247.88L564.83,249.94L575.87,255.4Z" class="land" id="TD-WF" title="Wadi Fira"/>
    <path d="M403.74,220.67L405.64,179.5L409.42,149.02L415.15,138.92L405.55,128.16L406.39,123.38L398.42,111.48L396.29,109.98L396.14,97.29L391.5,71.38L415.21,59.84L438.47,71.5L488.86,97.58L484.64,99.32L481.37,104.17L481.82,110.57L476.61,118.3L465.18,122.77L459.5,128.91L463.07,149.06L459.06,150.93L454.61,145.85L451.63,138.7L448.1,139.26L444.6,146.37Z" class="land" id="TD-TI" title="Tibesti"/>
    <path d="M419.84,387.9L426.67,388.12L429.06,386.56L430.91,391.22L437.53,394.25L442.78,394.85L447.91,397.1L452.88,400.78L452.01,402.6L450.35,401.54L443.85,403.1L444.29,408.02L440.68,410.66L442.07,415.04L433.51,415.21L429.35,413.34L425.35,414.08L423.86,411.04L418.96,415.02L414.87,413.82L410.97,415.97L402.03,415.45L401.55,411.88L407.33,404.83L408.79,400.7L413.23,401.19L418.51,397.48L421.47,392.18Z" class="land" id="TD-TA" title="Tandjilé"/>
    <path d="M518.33,319.07L522.63,320.22L527.91,320.09L527.93,323.23L531.5,324.07L531.9,327.93L535.57,329.36L541.98,329.07L544.96,325.89L549.62,323.88L553.36,325.32L555.77,329.35L560.39,328.61L561.84,326.57L568.01,329.63L565.96,334.24L568.66,340.32L568.79,344.24L572.28,343.58L570.55,353.9L575.82,359.15L579.52,358.81L580.49,364.06L578.01,370.54L569.48,368.69L567.23,369.56L559.77,353.36L555.04,351.52L542.37,353.93L535.85,353.43L517.03,343.89L507.64,343.77L509.88,335.42L515.3,325.36L510.92,322.08L517.69,320.48Z" class="land" id="TD-SI" title="Sila"/>
    <path d="M567.23,369.56L561.84,372.72L551.45,377.49L551.75,383.03L550.2,386.29L546.21,387.47L541.57,393.8L539.52,393.16L533.07,400.96L531.51,404.32L522.36,408.83L520.64,412.75L517.03,414L512.26,413.16L509.51,414.63L502.31,393.84L500.71,391.32L502.83,378.79L502.62,368.85L487.53,362.97L483.89,360.89L483.89,352.18L491.29,353.48L494.27,348.24L493.61,345.17L497.2,341.76L507.64,343.77L517.03,343.89L535.85,353.43L542.37,353.93L555.04,351.52L559.77,353.36Z" class="land" id="TD-SA" title="Salamat"/>
    <path d="M511.33,294.18L518.3,286.77L524.19,286.08L529.87,288.38L533.63,292.45L539.49,295.23L543.85,293.11L549.38,293.94L562.12,298.23L559.31,301.89L562.41,307.16L563.89,312.01L560.35,316.43L555.41,319.37L553.36,325.32L549.62,323.88L544.96,325.89L541.98,329.07L535.57,329.36L531.9,327.93L531.5,324.07L527.93,323.23L527.91,320.09L522.63,320.22L518.33,319.07L518.47,310.28L516.17,305.61L516.2,300.35L511.18,297.25Z" class="land" id="TD-OD" title="Ouaddaï"/>
    <path d="M389.38,339.28L392.76,339.29L395.38,343.07L393.65,344.99Z" class="land" id="TD-ND" title="Ville de Ndjamena"/>
    <path d="M385.17,394.1L385.66,400.85L392.4,401.05L394.86,408.35L401.55,411.88L402.03,415.45L400.75,416.12L400.04,422.68L397.82,426.22L398.04,429.3L397.41,429.59L396.51,426.22L391.32,424.63L389.18,421.48L385.77,421.21L376.95,412.19L373.87,407.53L368.47,401.4L372.9,393.18L380.32,392.82Z" class="land" id="TD-MO" title="Mayo-Kebbi-Ouest"/>
    <path d="M392.39,366.65L397.06,363.83L400.99,363.76L404.46,370.32L409.22,373.09L418.77,375.93L418.3,385.38L419.84,387.9L421.47,392.18L418.51,397.48L413.23,401.19L408.79,400.7L407.33,404.83L401.55,411.88L394.86,408.35L392.4,401.05L385.66,400.85L385.17,394.1L391.25,392.9L397.18,393.01L401.89,394.53L407.77,393.28L403.1,390.07L398.93,385.54L393.24,373.56Z" class="land" id="TD-ME" title="Mayo-Kebbi-Est"/>
    <path d="M502.83,378.79L500.71,391.32L502.31,393.84L509.51,414.63L502.1,416.41L488.38,416.42L483.58,419.28L484.07,421.53L489.1,424.78L481.58,434.59L478.32,435.91L477.17,439.57L467.62,440.36L466.76,432.7L463.71,425.03L462.45,417.89L467.28,412.69L462.82,412.14L458.43,409.83L452.01,402.6L452.88,400.78L447.91,397.1L450.47,388.79L451.74,382.09L459.34,380.98L461.66,383.39L466.43,384.61L474.29,388.46L477.74,392.33L477.5,394.87L481.33,395.83L482.07,393.21L488.05,393.21L489.47,389.83L492.92,387.54L496.38,381.65L500.02,381.44Z" class="land" id="TD-MC" title="Moyen-Chari"/>
    <path d="M452.01,402.6L458.43,409.83L462.82,412.14L467.28,412.69L462.45,417.89L463.71,425.03L466.76,432.7L467.62,440.36L460.7,441.81L454.79,441.23L451.09,443.96L445.62,445.52L441.46,437.69L443.94,437.07L445.88,433.75L439.99,425.74L442.26,422.61L442.07,415.04L440.68,410.66L444.29,408.02L443.85,403.1L450.35,401.54Z" class="land" id="TD-MA" title="Mandoul"/>
    <path d="M425.35,414.08L429.35,413.34L433.51,415.21L442.07,415.04L442.26,422.61L439.99,425.74L445.88,433.75L443.94,437.07L441.46,437.69L445.62,445.52L442.7,448.78L436.56,449.98L434.52,451.91L431.05,447.07L427.52,444.51L424.54,448.68L416.81,450.8L414.65,453.16L410.75,454.16L408.82,452.3L404.52,452.49L405.72,446.38L403.68,445.69L400.84,439.85L397.41,429.59L398.04,429.3L404.11,434.3L410.59,432.84L411.99,430.43L418.02,426.29L423.55,425.17L426.91,422.99L429.3,419.33Z" class="land" id="TD-LR" title="Logone-Oriental"/>
    <path d="M425.35,414.08L429.3,419.33L426.91,422.99L423.55,425.17L418.02,426.29L411.99,430.43L410.59,432.84L404.11,434.3L398.04,429.3L397.82,426.22L400.04,422.68L400.75,416.12L402.03,415.45L410.97,415.97L414.87,413.82L418.96,415.02L423.86,411.04Z" class="land" id="TD-LO" title="Logone-Occidental"/>
    <path d="M380.58,321.12L378.82,318.7L369.91,318.58L359.38,303.46L355.49,285.38L359.53,283.59L367.92,284.81L376.34,293.13L379.51,293.91L383.56,299.2L386.7,305.07L400.89,302.47L404.68,311.71L405.17,314.86L400.37,311.41L397.29,313.67L400.96,316.27L397.75,318.65L396.06,316.09L392.18,314.8L391.93,321.08Z" class="land" id="TD-LC" title="Lac"/>
    <path d="M413.12,316.31L408.65,316.61L405.17,314.86L404.68,311.71L400.89,302.47L386.7,305.07L383.56,299.2L379.51,293.91L376.34,293.13L367.92,284.81L359.53,283.59L360.31,280.64L363.45,278.56L362.97,275.1L367.24,267.92L377.05,253.81L403.18,225.47L420.11,235.33L431.5,241.25L427.62,247.85L419.55,275.81L417.66,284.71L410.61,292.65L406.24,295.4L405.84,302.3L412.51,302.35L413.69,309.57Z" class="land" id="TD-KA" title="Kanem"/>
    <path d="M413.12,316.31L414.98,319.82L419.41,320.21L436.55,318.05L442.65,318.22L442.28,318.86L438.83,322.04L442.45,329.99L445.83,332.95L446.23,336.36L448.62,340.28L453.05,341.71L451.79,346.89L454.99,352.47L451.79,352.66L446.83,357.49L439.35,352.76L435.54,352.56L433.93,347.05L432,344.85L431,339.19L417.38,334.28L414.68,336.56L407.78,336.56L403.57,339.36L400.42,335.95L397.96,337.98L392.76,339.29L389.38,339.28L389.48,335.56L387.61,329.52L381.8,326.64L380.58,321.12L391.93,321.08L392.18,314.8L396.06,316.09L397.75,318.65L400.96,316.27L397.29,313.67L400.37,311.41L405.17,314.86L408.65,316.61Z" class="land" id="TD-HL" title="Hadjer Lamis"/>
    <path d="M510.92,322.08L515.3,325.36L509.88,335.42L507.64,343.77L497.2,341.76L493.61,345.17L494.27,348.24L491.29,353.48L483.89,352.18L483.89,360.89L487.53,362.97L502.62,368.85L502.83,378.79L500.02,381.44L496.38,381.65L492.92,387.54L489.47,389.83L488.05,393.21L482.07,393.21L481.33,395.83L477.5,394.87L477.74,392.33L474.29,388.46L466.43,384.61L461.66,383.39L459.34,380.98L451.74,382.09L446.64,379.13L447.42,370.44L446.12,363.33L446.83,357.49L451.79,352.66L454.99,352.47L451.79,346.89L453.05,341.71L452.31,339.92L459.76,333.94L464.8,332.97L473.79,327.98L490.56,328.1L504.58,319.75Z" class="land" id="TD-GR" title="Guéra"/>
    <path d="M565.38,138.75L565.52,227.73L565.09,233.75L560.81,239.59L558.34,240.76L557.72,247.88L552.5,249.82L538.22,250.13L535.89,254.06L529.2,257.15L523.31,256.62L527.58,252.73L521.6,235.63L519.34,230.55L520.77,223.32L522.88,200.02L522.1,197.97L505.27,198.31L490.67,182.52L498.14,182.52L498.24,148.69L521.18,148.65L533.69,121.36Z" class="land" id="TD-EO" title="Ennedi-Ouest"/>
    <path d="M392.76,339.29L397.96,337.98L400.42,335.95L403.57,339.36L407.78,336.56L414.68,336.56L417.38,334.28L431,339.19L432,344.85L433.93,347.05L435.54,352.56L439.35,352.76L446.83,357.49L446.12,363.33L447.42,370.44L446.64,379.13L451.74,382.09L450.47,388.79L447.91,397.1L442.78,394.85L437.53,394.25L430.91,391.22L429.06,386.56L426.67,388.12L419.84,387.9L418.3,385.38L418.77,375.93L409.22,373.09L404.46,370.32L400.99,363.76L397.06,363.83L392.39,366.65L392.23,362.05L394.97,355.91L393.15,351.73L393.65,344.99L395.38,343.07Z" class="land" id="TD-CB" title="Chari-Baguirmi"/>
    <path d="M403.18,225.47L403.74,220.67L444.6,146.37L448.1,139.26L451.63,138.7L454.61,145.85L459.06,150.93L463.07,149.06L459.5,128.91L465.18,122.77L476.61,118.3L481.82,110.57L481.37,104.17L484.64,99.32L488.86,97.58L533.69,121.35L521.18,148.65L498.24,148.69L498.14,182.52L490.67,182.52L505.27,198.31L522.1,197.97L522.88,200.02L520.77,223.32L519.34,230.55L521.6,235.63L527.58,252.73L523.31,256.62L515.8,256.3L510.88,253.55L499.43,251.07L495.71,245.21L492.69,244.82L492.19,251.41L489.9,256.32L486.84,259.79L481.5,263.08L474.31,264.18L468.18,262.86L463.76,260.08L458.82,253.45L431.5,241.25L420.11,235.33Z" class="land" id="TD-BO" title="Borkou"/>
    <path d="M442.65,318.22L436.55,318.05L419.41,320.21L414.98,319.82L413.12,316.31L413.69,309.57L412.51,302.35L405.84,302.3L406.24,295.4L410.61,292.65L417.66,284.71L419.55,275.81L427.62,247.85L431.5,241.25L458.82,253.45L463.76,260.08L452.76,302.03L445.31,304.42L444.6,315.41L442.71,318.1Z" class="land" id="TD-BG" title="Bahr el Gazel"/>
    <path d="M510.88,253.55L511.33,294.18L511.18,297.25L516.2,300.35L516.17,305.61L518.47,310.28L518.33,319.07L517.69,320.48L510.92,322.08L504.58,319.75L490.56,328.1L473.79,327.98L464.8,332.97L459.76,333.94L452.31,339.92L453.05,341.71L448.62,340.28L446.23,336.36L445.83,332.95L442.45,329.99L438.83,322.04L442.28,318.86L442.71,318.1L444.6,315.41L445.31,304.42L452.76,302.03L463.76,260.08L468.18,262.86L474.31,264.18L481.5,263.08L486.84,259.79L489.9,256.32L492.19,251.41L492.69,244.82L495.71,245.21L499.43,251.07Z" class="land" id="TD-BA" title="Batha"/>
  </g>
</svg>