<?xml version="1.0" encoding="UTF-8"?>
<svg xmlns="http://www.w3.org/2000/svg" width="249.44" height="519.3" viewBox="355.28 -2.65 249.44 519.3" style="background-color:#000000">
  <!-- Created using SVG Map Generator: dojo.amcharts.com/svg-map-generator -->
  <style>
    .land { fill: #ffffff; stroke: #000000; stroke-width: 0.65; }
  </style>
  <g id="polygons">
    <path d="M518.62,42.64L517.99,44.79L513.93,44.79L512.58,46.75L508.66,46.81L506.93,44.15L506.49,40.06L508.77,40.28L510.97,38.93L512.92,36.39L515.77,37.2L518.27,36.35L522.49,36.32L523.02,33.1L519.98,29.25L524.58,32.2L527.22,35.35L525.12,39.31L521.5,37.64L518.44,38.24L516.97,39.7Z" class="land" id="TN-11" title="Tunis"/>
    <path d="M504.37,31.14L506.25,26.19L507.98,24.84L509.62,21.58L510,17.8L512.6,15.93L514.76,16.18L518.9,18.09L516.33,21.93L517.83,26.53L519.98,29.25L523.02,33.1L522.49,36.32L518.27,36.35L515.77,37.2L512.92,36.39L510.97,38.93L509.45,37.79L507.79,34.23L506.3,35.37L504.19,34.23Z" class="land" id="TN-12" title="Ariana"/>
    <path d="M529.27,47.28L527.26,53.09L525.84,55.02L527.8,56.55L525.87,61.6L526.09,62.96L521.25,65.7L520.81,62.56L515.93,60.25L513.65,56.2L508.4,54.38L505.78,54.27L504.45,51.29L508.66,46.81L512.58,46.75L513.93,44.79L517.99,44.79L518.62,42.64L521.41,43.47L523.16,42.25L526.4,46.07Z" class="land" id="TN-13" title="Ben Arous"/>
    <path d="M479.55,37.15L480.89,35.35L487.76,32.59L491.08,31.98L493.45,27.4L501.12,29.43L502.26,31.6L504.37,31.14L504.19,34.23L506.3,35.37L507.79,34.23L509.45,37.79L510.97,38.93L508.77,40.28L506.49,40.06L506.93,44.15L508.66,46.81L504.45,51.29L502.59,49.99L500.86,51.52L499.7,55.09L496.88,56.67L494.12,51.85L492.94,50.81L491.54,47.17L485.8,43.02L482.85,42.04Z" class="land" id="TN-14" title="Manouba"/>
    <path d="M538.37,73.69L535.67,70.51L533.24,72.86L531.28,70.88L527.44,71.34L526.02,69.18L526.09,62.96L525.87,61.6L527.8,56.55L525.84,55.02L527.26,53.09L529.27,47.28L530.88,47.47L538.37,44.25L539.35,42.73L540.29,38.23L541.35,36.2L545.7,34.69L548.17,35.15L551.72,33.37L560.19,25.55L560.29,22.73L564.49,22.29L569.01,20.23L570.61,22.08L569.66,25.28L572.04,29.26L572.74,33.76L574.33,35.56L572.06,38.35L567.54,41.98L561.84,50.88L557.35,59.7L554.85,66.55L550.09,67.75L543.2,71.48L540.66,71.08Z" class="land" id="TN-21" title="Nabeul"/>
    <path d="M504.45,51.29L505.78,54.27L508.4,54.38L513.65,56.2L515.93,60.25L520.81,62.56L521.25,65.7L526.09,62.96L526.02,69.18L527.44,71.34L528.12,80.32L526.94,81.59L522.67,81.47L520.48,87.64L518.11,88.75L513.67,88.8L513.23,92.77L509.13,94.77L508.01,98.54L505.83,98.15L503.25,96.02L499.93,96.27L497.78,93.85L495.36,93.05L492.79,94.97L489.79,94.03L491.86,88.09L488.51,86.03L487.44,83.92L484.31,83.65L483.94,81.1L481.56,79.11L485.4,78.64L488.55,76.02L490.16,71.84L490.22,66.42L489.29,64.06L491.95,62.77L493.77,59.15L496.88,56.67L499.7,55.09L500.86,51.52L502.59,49.99Z" class="land" id="TN-22" title="Zaghouan"/>
    <path d="M514.76,16.18L512.6,15.93L510,17.8L509.62,21.58L507.98,24.84L506.25,26.19L504.37,31.14L502.26,31.6L501.12,29.43L493.45,27.4L491.08,31.98L487.76,32.59L480.89,35.35L479.55,37.15L475.16,41.83L470.98,45.23L467.98,44.85L466.96,41.62L468.79,37.34L467.78,35.53L464.44,34.83L460.99,31.75L460.73,29.21L458.81,26.9L458.44,23.32L456.96,20.76L451.41,22L450.7,18.04L451.41,14.12L455.57,12.11L459.08,7.94L461.55,9.85L465.95,8.64L471.13,5.7L475.37,5.62L477.88,3.71L480.49,3.82L483.54,2.56L486.14,0.57L490.42,0L492.24,1.15L497.94,0.82L498.87,5.52L494.14,8.43L492.77,10.12L493.07,12.42L495.04,15.48L498.06,15.88L500.94,14.2L502.41,10.23L499.81,9.2L500.86,6.86L504.82,7.46L510.39,5.68L511.41,7.99L515.39,8.97L518.68,11.17L518.26,13.24L515.35,13.59Z" class="land" id="TN-23" title="Bizerte"/>
    <path d="M451.41,14.12L450.7,18.04L451.41,22L456.96,20.76L458.44,23.32L458.81,26.9L460.73,29.21L460.99,31.75L464.44,34.83L467.78,35.53L468.79,37.34L466.96,41.62L467.98,44.85L470.98,45.23L475.16,41.83L479.55,37.15L482.85,42.04L485.8,43.02L491.54,47.17L492.94,50.81L494.12,51.85L496.88,56.67L493.77,59.15L491.95,62.77L489.29,64.06L490.22,66.42L486.23,66.97L485.67,68.41L480.74,68.1L477.73,65.14L476.09,65.79L470.3,65.88L467.46,67.41L467.35,70.9L464.42,72.6L462.48,70.73L457.25,69.89L453.31,71.88L448.95,66.53L446.2,65.45L449.23,64.8L449.32,61.72L450.78,58.98L450.92,55.54L447.67,50.42L448.84,46.35L447.33,43.1L441.81,42.08L442.12,38.26L444.51,36.61L445.77,33.34L442.64,31.43L442.06,29.33L443.17,26.32L440.43,24.32L447.81,15.56Z" class="land" id="TN-31" title="Béja"/>
    <path d="M440.43,24.32L443.17,26.32L442.06,29.33L442.64,31.43L445.77,33.34L444.51,36.61L442.12,38.26L441.81,42.08L447.33,43.1L448.84,46.35L447.67,50.42L450.92,55.54L450.78,58.98L449.32,61.72L449.23,64.8L446.2,65.45L441.53,66.43L440.12,68.08L429.68,70.11L425.71,68.91L422.35,70.43L419.33,70.24L417.4,71.91L413.2,73.91L409.7,73.5L410.62,69.37L403.2,67.55L398.77,67.46L396.29,66.29L395.79,64.18L405.33,59.23L405.72,58.03L413.06,54.33L415.49,48.8L414.46,45.41L412.04,44.11L415.34,42.58L420.67,43.05L426.61,39.55L427.2,38.08L424.21,36.77L424.71,30.46L430.53,28.32L433.02,29.66L436.24,27.97Z" class="land" id="TN-32" title="Jendouba"/>
    <path d="M441.53,66.43L444.16,70.86L445,73.46L443.19,76.6L445.79,81.47L448.05,82.46L448.61,85.66L447.74,86.99L448.7,90.24L451.08,91.91L454.91,93.45L455.19,100.02L451.69,102.91L451.32,106.96L447.79,109.14L447.19,112.22L447.67,114.96L446.34,117.8L447.68,120.28L445.89,121.93L437.97,119.65L432.92,116.09L430.4,116.88L426.61,115.95L423.04,119.34L423.27,123.8L419.67,126.39L417.08,123.91L411.92,124.43L409.02,127.68L407.78,127.75L407.46,124.83L405.38,124.02L402.17,120.67L401.82,118.24L402.66,114.04L402.9,108.75L402.11,105.26L403.68,104.18L403.88,98.14L405.51,94.24L406.77,93.2L406.37,90.44L404.67,87.82L407.4,83.43L406.4,81.04L409.58,78.13L408.6,76.49L409.7,73.5L413.2,73.91L417.4,71.91L419.33,70.24L422.35,70.43L425.71,68.91L429.68,70.11L440.12,68.08Z" class="land" id="TN-33" title="Le Kef"/>
    <path d="M446.2,65.45L448.95,66.53L453.31,71.88L457.25,69.89L462.48,70.73L464.42,72.6L467.35,70.9L467.46,67.41L470.3,65.88L476.09,65.79L477.73,65.14L480.74,68.1L485.67,68.41L486.23,66.97L490.22,66.42L490.16,71.84L488.55,76.02L485.4,78.64L481.56,79.11L483.94,81.1L484.31,83.65L487.44,83.92L488.51,86.03L491.86,88.09L489.79,94.03L484.67,98.89L483.54,99.09L480.72,102.76L475.33,106.71L476.91,109.92L476.73,112.55L474.95,114.78L477.3,119.38L474.95,119.57L470.74,121.51L467.32,121.96L463.86,120.26L462.15,121.67L463.2,124.14L469.12,129.11L471.54,132.83L472.35,136.89L465.58,138.24L464.4,135.55L461.8,133.03L459.2,133.28L457.36,132.2L457.37,129.81L455.97,128.53L450.12,128.51L448.86,126.38L445.84,126.44L444.94,124.09L445.89,121.93L447.68,120.28L446.34,117.8L447.67,114.96L447.19,112.22L447.79,109.14L451.32,106.96L451.69,102.91L455.19,100.02L454.91,93.45L451.08,91.91L448.7,90.24L447.74,86.99L448.61,85.66L448.05,82.46L445.79,81.47L443.19,76.6L445,73.46L444.16,70.86L441.53,66.43Z" class="land" id="TN-34" title="Siliana"/>
    <path d="M518.11,88.75L516.65,94.56L519.77,95.17L520.99,100.48L517.95,107.68L514.97,112.92L519.39,119.01L522.4,126.86L524.35,130.45L521.75,131.08L519.19,132.9L521.07,136.28L518.71,140.3L516.66,141.69L515.68,146.42L517.48,149.03L516.92,155.76L519.44,157.94L519.37,162.28L516.67,162.78L510.84,168.18L508.53,171.73L506.06,171.07L505.17,161.59L500.7,163.53L496.37,161.07L489.67,160.4L483.69,152.96L481.89,151.92L479.47,153.72L477.78,150.37L474.84,148.74L473.42,146.39L475.97,143.37L475.27,138.8L472.35,136.89L471.54,132.83L469.12,129.11L463.2,124.14L462.15,121.67L463.86,120.26L467.32,121.96L470.74,121.51L474.95,119.57L477.3,119.38L474.95,114.78L476.73,112.55L476.91,109.92L475.33,106.71L480.72,102.76L483.54,99.09L484.67,98.89L489.79,94.03L492.79,94.97L495.36,93.05L497.78,93.85L499.93,96.27L503.25,96.02L505.83,98.15L508.01,98.54L509.13,94.77L513.23,92.77L513.67,88.8Z" class="land" id="TN-41" title="Kairouan"/>
    <path d="M407.78,127.75L409.02,127.68L411.92,124.43L417.08,123.91L419.67,126.39L423.27,123.8L423.04,119.34L426.61,115.95L430.4,116.88L432.92,116.09L437.97,119.65L445.89,121.93L444.94,124.09L445.84,126.44L448.86,126.38L450.12,128.51L455.97,128.53L457.37,129.81L457.36,132.2L459.2,133.28L461.8,133.03L464.4,135.55L465.58,138.24L461.03,141.82L455.81,149.26L454.8,151.88L458.52,155.64L462.54,158.22L461.24,159.44L461.72,166.31L462.8,169.53L462.06,171.68L456.38,172.61L453.75,174.15L451.53,174.28L448.38,178.53L447.76,180.91L449.37,182.96L445.32,185.63L438.97,188.14L434.39,190.99L430.21,193.63L427.67,194.37L420.5,198.05L420.75,200.59L416.68,199.51L412.26,196L403.92,192.73L402.6,184.51L401.11,180.29L405.2,178.23L405.21,173.73L407.68,167.15L410.38,164.88L411.62,161.25L413.51,158.25L407.73,154.1L406.24,153.83L404.97,151.37L405.12,146.72L407.31,140.52L409.32,139.98L407.86,135.82L407.32,129.4Z" class="land" id="TN-42" title="Kassérine"/>
    <path d="M472.35,136.89L475.27,138.8L475.97,143.37L473.42,146.39L474.84,148.74L477.78,150.37L479.47,153.72L481.89,151.92L483.69,152.96L489.67,160.4L496.37,161.07L500.7,163.53L505.17,161.59L506.06,171.07L508.53,171.73L509.4,173.32L507.73,179.2L504.21,184.21L500.35,192.39L495.92,199.77L497.74,203.48L503.63,202.3L505.63,204.02L510.04,206.49L508.52,210.76L505.19,211.75L503.25,213.83L500.95,213.78L497.32,219.68L493.37,220.38L489.92,222.48L491.42,225.97L487.99,225.85L485.08,224.11L480.91,225.05L480.18,224.08L482.16,217.28L479.94,215.73L476.17,214.56L473.76,211.37L470.96,209.72L466.78,209.47L466.16,207.64L462.79,206.48L461.79,204.95L462.04,202.27L458.98,196.03L454.92,194.9L452.1,195L449.92,193.88L444.51,195.84L440.16,193.39L437.84,192.98L434.39,190.99L438.97,188.14L445.32,185.63L449.37,182.96L447.76,180.91L448.38,178.53L451.53,174.28L453.75,174.15L456.38,172.61L462.06,171.68L462.8,169.53L461.72,166.31L461.24,159.44L462.54,158.22L458.52,155.64L454.8,151.88L455.81,149.26L461.03,141.82L465.58,138.24Z" class="land" id="TN-43" title="Sidi Bouzid"/>
    <path d="M527.44,71.34L531.28,70.88L533.24,72.86L535.67,70.51L538.37,73.69L536.68,77.01L534.8,83.04L534.12,89.1L534.42,93.56L535.98,98.15L537.21,98.6L537.93,102.28L542.29,108.64L543.79,112.21L545.94,115.22L544.73,118.57L543.5,118.58L543.77,124.56L541.52,128.32L538.19,129.08L537.72,133.22L535.36,134.61L536.2,137.51L540.34,135.93L541.82,137.15L541.74,139.12L539.88,140.4L538.63,142.99L535.29,142.11L532.45,137.97L530.22,136.86L526.9,136.84L524.31,134.05L524.35,130.45L522.4,126.86L519.39,119.01L514.97,112.92L517.95,107.68L520.99,100.48L519.77,95.17L516.65,94.56L518.11,88.75L520.48,87.64L522.67,81.47L526.94,81.59L528.12,80.32Z" class="land" id="TN-51" title="Sousse"/>
    <path d="M568.12,131.87L565.02,132.35L564.87,134.04L561.82,133.53L557.41,136.48L553.14,140.67L551.11,140.21L549.28,137.24L541.82,137.15L540.34,135.93L536.2,137.51L535.36,134.61L537.72,133.22L538.19,129.08L541.52,128.32L543.77,124.56L543.5,118.58L544.73,118.57L545.94,115.22L549.72,117.95L554.52,116.64L556.42,117.07L555.22,121.67L555.94,122.92L559.32,124.87L565.14,126.34L568.99,128.34Z" class="land" id="TN-52" title="Monastir"/>
    <path d="M524.35,130.45L524.31,134.05L526.9,136.84L530.22,136.86L532.45,137.97L535.29,142.11L538.63,142.99L539.88,140.4L541.74,139.12L541.82,137.15L549.28,137.24L551.11,140.21L553.14,140.67L557.41,136.48L561.82,133.53L564.87,134.04L565.02,132.35L568.12,131.87L568.67,136.11L570.02,137.27L568.76,141.82L569.17,145.72L568.07,147.5L568.59,150.45L574.36,157.61L572.68,158.8L571.09,162.08L569.31,163.08L567.56,166.64L561.56,166.05L560.64,160.9L556.06,162.63L553.38,157.99L553.74,154.9L551.8,153.26L547.45,156.16L542.03,154.48L539.64,157.81L541.13,159.72L537.08,162.17L531.94,166.75L527.19,163.59L522.48,163.56L519.37,162.28L519.44,157.94L516.92,155.76L517.48,149.03L515.68,146.42L516.66,141.69L518.71,140.3L521.07,136.28L519.19,132.9L521.75,131.08Z" class="land" id="TN-53" title="Mahdia"/>
    <path d="M581.38,186.97L584.09,188.15L582.78,191.62L583.06,194.03L580.98,195.65L578.29,196.2L573.85,199L574.16,196.37L576.97,193.38L579.88,192.67L579.34,190.91ZM571.46,198.27L572.56,199.63L568.97,202.39L564.52,199.57L565.32,198.59ZM519.37,162.28L522.48,163.56L527.19,163.59L531.94,166.75L537.08,162.17L541.13,159.72L539.64,157.81L542.03,154.48L547.45,156.16L551.8,153.26L553.74,154.9L553.38,157.99L556.06,162.63L560.64,160.9L561.56,166.05L567.56,166.64L567.82,168.75L566.57,173.39L563.67,174.91L561.72,176.91L561.51,182.72L558.12,188.11L551.01,194.56L550.54,198.48L545.4,201.03L542.48,204.69L541.7,208.22L539.12,209.35L536.18,209.43L532.73,211.27L528.53,216.83L525.43,218.81L523.68,217.94L522.14,220.53L516.83,223.17L513.42,224.31L511.46,226.93L510.06,230.52L507.5,234.89L505.4,233.12L503.01,234.51L499.96,233.91L497.5,230.14L495.44,229.17L491.62,229.99L488.77,228.08L487.99,225.85L491.42,225.97L489.92,222.48L493.37,220.38L497.32,219.68L500.95,213.78L503.25,213.83L505.19,211.75L508.52,210.76L510.04,206.49L505.63,204.02L503.63,202.3L497.74,203.48L495.92,199.77L500.35,192.39L504.21,184.21L507.73,179.2L509.4,173.32L508.53,171.73L510.84,168.18L516.67,162.78Z" class="land" id="TN-61" title="Sfax"/>
    <path d="M434.39,190.99L437.84,192.98L440.16,193.39L444.51,195.84L449.92,193.88L452.1,195L454.92,194.9L458.98,196.03L462.04,202.27L461.79,204.95L462.79,206.48L466.16,207.64L466.78,209.47L470.96,209.72L473.76,211.37L476.17,214.56L479.94,215.73L482.16,217.28L480.18,224.08L480.91,225.05L478.63,228.71L474.33,230.49L472.44,230.66L467.25,229.66L463.06,230.87L461.47,232.02L459.53,232.79L455.45,233.08L453.89,233.84L451.71,232.92L447.6,234.56L447.52,237.66L446.31,240.04L441.66,239.66L439.72,238.28L436.58,239.63L432.68,239.25L428.44,239.76L425.54,241.24L422.06,240.05L411.09,240.36L406.91,241.06L407.49,238.15L405.41,235.47L399.96,233.21L397.39,232.95L395.24,229.56L388.73,224.28L391.64,218.99L394.8,218.31L395.53,216.89L392.74,215.25L392.96,213.05L394.63,210.07L393.91,208.99L396.45,205.57L399.55,205.19L399.01,203.42L403.13,199.75L400.82,198.7L404.24,193.94L403.92,192.73L412.26,196L416.68,199.51L420.75,200.59L420.5,198.05L427.67,194.37L430.21,193.63Z" class="land" id="TN-71" title="Gafsa"/>
    <path d="M393.91,208.99L394.63,210.07L392.96,213.05L392.74,215.25L395.53,216.89L394.8,218.31L391.64,218.99L388.73,224.28L395.24,229.56L397.39,232.95L399.96,233.21L405.41,235.47L407.49,238.15L406.91,241.06L411.09,240.36L422.06,240.05L425.54,241.24L423.93,246.17L418.93,252.78L410.03,259.71L400.39,268.03L391.67,274.42L387.84,278.02L380.66,283.83L376.97,286.47L371.32,288.36L363.74,276.29L362.16,272.03L362.53,269.13L361.82,264.59L360.38,262.7L358.02,261.42L359.45,258.67L357.93,253.56L359.32,251.36L358.96,248.61L359.92,245.65L358.35,243.89L358.34,241.94L360.97,241.05L362.95,239.07L363.27,237.17L365.79,233.01L370.41,235.15L375.08,231.83L374.91,229.67L377.51,221.36L377.58,217.78L381.22,217.14L383.36,214.87L386.82,214.09L388.76,211.52Z" class="land" id="TN-72" title="Tozeur"/>
    <path d="M461.47,232.02L466.68,237.81L465.15,239.9L461.43,243.24L460.95,251.85L461.35,255.33L464.55,260.18L466.37,263.97L467.41,268.01L471.66,268.86L474.3,273.29L476.99,272.98L478.66,275.48L480.84,276.54L478.48,279.06L478.56,281.68L477.13,283.24L479.14,286.07L483.09,288.83L484.16,292.12L486.51,295.89L488.43,297.68L491.7,300.99L496.58,303.93L500.4,303.94L501.43,304.69L501.37,312.85L499.77,315.49L501.26,317.74L505.34,319.72L502.66,321.28L502.3,324.32L502.99,327.71L504.67,328.97L500.74,333L501.24,335.41L499.74,338.51L503.79,342.71L502.85,343.56L499.51,342.61L497.77,339.83L493.02,337.61L490.98,333.05L485.95,333.08L481.4,334.7L476.89,337.62L463.57,341.21L457.88,343.19L442.93,343.43L407.41,352.9L405.53,331.88L401,324.67L396.31,318.91L393.14,315.69L393.21,312.11L380.51,306.04L376.09,305.78L373.38,298.69L371.32,288.36L376.97,286.47L380.66,283.83L387.84,278.02L391.67,274.42L400.39,268.03L410.03,259.71L418.93,252.78L423.93,246.17L425.54,241.24L428.44,239.76L432.68,239.25L436.58,239.63L439.72,238.28L441.66,239.66L446.31,240.04L447.52,237.66L447.6,234.56L451.71,232.92L453.89,233.84L455.45,233.08L459.53,232.79Z" class="land" id="TN-73" title="Kébili"/>
    <path d="M480.91,225.05L485.08,224.11L487.99,225.85L488.77,228.08L491.62,229.99L495.44,229.17L497.5,230.14L499.96,233.91L503.01,234.51L505.4,233.12L507.5,234.89L508.25,244.46L509.13,247.61L512.81,254.93L517.23,260.04L521.15,262.99L526.08,268.33L529.41,270.47L533.53,271.67L531.16,273.11L527.5,278.99L527.25,280.16L521.75,288.08L518.05,287.84L514.96,289.44L514.34,291.24L511.85,292.4L511.92,294.25L506.57,297.19L504.41,296.48L502.06,298.02L500.09,297.69L491.36,298.61L488.43,297.68L486.51,295.89L484.16,292.12L483.09,288.83L479.14,286.07L477.13,283.24L478.56,281.68L478.48,279.06L480.84,276.54L478.66,275.48L476.99,272.98L474.3,273.29L471.66,268.86L467.41,268.01L466.37,263.97L464.55,260.18L461.35,255.33L460.95,251.85L461.43,243.24L465.15,239.9L466.68,237.81L461.47,232.02L463.06,230.87L467.25,229.66L472.44,230.66L474.33,230.49L478.63,228.71Z" class="land" id="TN-81" title="Gabès"/>
    <path d="M574.93,372.43L576.02,369.6L580.13,361.44L590.37,355.26L589.76,353.73L586.85,354.36L569.99,340.9L570.91,338.45L570.95,329L573.34,325.19L570.28,321.71L567.66,319.89L566.27,317.52L565.64,314.53L549.19,306.66L546.29,306.16L542.15,303.62L543.68,302.53L537.66,299.54L535.29,300.02L530.15,303.26L522.73,305.02L520.35,307.89L519,308.37L515.48,307.32L512.49,307.94L510.73,311.36L504.16,313.04L501.37,312.85L501.43,304.69L500.4,303.94L496.58,303.93L491.7,300.99L488.43,297.68L491.36,298.61L500.09,297.69L502.06,298.02L504.41,296.48L506.57,297.19L511.92,294.25L511.85,292.4L514.34,291.24L514.96,289.44L518.05,287.84L521.75,288.08L527.25,280.16L527.5,278.99L531.16,273.11L533.53,271.67L537.53,272.36L542.07,271.83L546.92,269.07L549.34,268.37L550.84,270.51L549.97,273.01L550.28,275.88L547.34,279.32L548.32,281.84L548.03,283.9L553.05,285.18L554.61,283.72L561.44,281.54L563.1,278.56L561.41,274.79L562.94,274.17L561.07,270.39L558.84,269.67L555.87,266.18L551.82,268.97L549.77,264.36L551.1,261.75L550.92,255.27L554.62,254.47L558.66,256.11L562.04,256.31L565.31,257.46L566.64,259.11L569.49,259.94L569.81,262.29L566.21,265.11L564.37,268.3L561.26,270.32L563.04,273.94L565.14,274.53L566.52,273.44L569.04,274.27L572.64,279.16L573.43,284.8L571.78,288.36L574.49,291.43L574.29,292.63L576.61,294.8L573.58,298.08L575.92,301.24L576.84,304.55L582.07,304.46L588.05,306.26L589.66,305.67L593.39,307.56L594.7,305.93L600.04,307.38L598.09,313.07L597.19,320.88L595.52,326.9L596.63,330.44L595.51,335.96L596.09,339.31L595.5,342.96L596.68,346.83L600.79,350.9L602.07,353.23L597.81,361.82L593.97,364.81L591.67,365.29L588.15,367.53L578.42,370.78Z" class="land" id="TN-82" title="Médenine"/>
    <path d="M501.37,312.85L504.16,313.04L510.73,311.36L512.49,307.94L515.48,307.32L519,308.37L520.35,307.89L522.73,305.02L530.15,303.26L535.29,300.02L537.66,299.54L543.68,302.53L542.15,303.62L546.29,306.16L549.19,306.66L565.64,314.53L566.27,317.52L567.66,319.89L570.28,321.71L573.34,325.19L570.95,329L570.91,338.45L569.99,340.9L586.85,354.36L589.76,353.73L590.37,355.26L580.13,361.44L576.02,369.6L574.93,372.43L570.64,374.21L568.23,376.07L565.09,377.16L557.64,382.57L557.17,384.53L553.84,390.39L549.24,391.94L546.4,391.27L544.7,392.31L543.65,395.66L544.8,397.92L544.28,399.93L541.08,402.83L539.88,406.43L537.95,408.25L532.62,409.66L528.6,408.9L523.63,412.28L519.49,419.56L514.4,426.68L515.39,433.49L520.69,446.85L521.88,451.45L523.41,454.99L522.67,458.9L523.99,465.72L524.62,467.14L522.82,473.05L518.95,480.83L516.62,482.7L512.16,489.69L507.35,495.31L506.57,497.41L502.99,503.1L499.48,506.19L495.07,506.76L490.81,508.5L483.12,513.06L479.58,514L453.77,397.21L450.44,384.22L450.1,384.24L434.19,373.69L407.58,354.76L407.41,352.9L442.93,343.43L457.88,343.19L463.57,341.21L476.89,337.62L481.4,334.7L485.95,333.08L490.98,333.05L493.02,337.61L497.77,339.83L499.51,342.61L502.85,343.56L503.79,342.71L499.74,338.51L501.24,335.41L500.74,333L504.67,328.97L502.99,327.71L502.3,324.32L502.66,321.28L505.34,319.72L501.26,317.74L499.77,315.49Z" class="land" id="TN-83" title="Tataouine"/>
  </g>
</svg>