<?xml version="1.0" encoding="UTF-8"?>
<svg xmlns="http://www.w3.org/2000/svg" width="493.35" height="519.3" viewBox="233.32 -2.65 493.35 519.3" style="background-color:#000000">
  <!-- Created using SVG Map Generator: dojo.amcharts.com/svg-map-generator -->
  <style>
    .land { fill: #ffffff; stroke: #000000; stroke-width: 0.65; }
  </style>
  <g id="polygons">
    <path d="M362.19,139.04L362.83,141.72L362.91,147.34L366.13,149.18L363.82,151.41L363.5,154.12L366.25,153.95L368.9,157.94L366.71,164.66L365.71,166.21L362.6,164.56L360.24,165.17L358.42,171.05L353.73,170.53L353.23,168.45L350.81,166.7L349.41,162.78L346.14,162.78L344.51,161.74L341.89,162.96L341.09,160.82L341.52,157.1L342.92,155.14L341.88,148.53L344.54,146.61L345.58,142.95L352.5,140.22L355.51,140.9L357.66,137.69L360.07,136.94Z" class="land" id="UG-330" title="Zombo"/>
    <path d="M410.68,53.59L412.44,56.03L412.54,59.01L405.02,70.72L402.7,86.98L407.3,93.92L401.04,94.37L398.92,90.8L395.16,90.8L393.77,87.01L385.81,84.67L382.31,80.44L379.78,79.32L377.19,79.79L374.94,82.65L370.54,84.32L368.41,81.92L369.57,78.28L371.51,76.94L373.04,71.88L372.36,69.9L372.68,63.85L372.05,61.98L373.24,57.71L373.32,44.67L373.7,43.42L378.3,40.71L379.2,39.42L390.28,39.43L395.96,43.33L404.78,47.97L410.01,50.22Z" class="land" id="UG-313" title="Yumbe"/>
    <path d="M509.36,359.7L508.51,362.1L504.82,362.83L505.51,372.35L503.84,375.17L501.7,372.74L500.34,375.98L497.69,373.76L495.33,377.14L492.72,378.3L491.09,375.95L494.13,374.1L493.96,372.74L489.47,370.81L487.33,370.89L485.28,372.74L487.76,375.13L488.14,379.54L483.61,378.99L481.25,380.18L480.35,382.54L477.45,383.35L476.24,381.08L473.29,379.05L475.42,375.87L477.9,374.26L478.81,371.73L481.92,369.91L484.85,367.18L486.64,363.49L489.29,362.28L491.99,357.47L492.58,355.1L492.05,350.56L490.2,348.84L486.17,346.84L477.06,344.3L474.08,342.27L471.52,337.9L472.04,332.98L475.05,328.7L477.72,329.78L479.83,332.59L481.72,332.78L484.14,331.16L489.62,329.25L491.63,330.1L501.04,329.84L502.48,331.56L506.37,328.27L509,330.1L515.49,330.68L513.82,334.63L515.1,338.32L513.72,339.58L513.7,342.27L515.63,347.53L515.97,354.74L514.33,356.1L513.82,355.54L514.02,351.67L511.66,350.96L511.23,346.81L508.04,344.31L505,344.6L500.09,353.16L502.9,356.4L506.03,355.68Z" class="land" id="UG-113" title="Wakiso"/>
    <path d="M643.75,299.64L650.16,303.73L650.48,306.24L654.16,308.6L655.4,310.54L659.7,312.67L661.94,313.65L662.07,318.21L659.06,319.76L658.86,323.28L656.65,324.26L651.93,324.61L647.82,328.14L646.45,328.38L637.02,327.76L632.1,328.82L627.14,327.84L623.32,318.63L624.85,313.83L625.95,312.71L628.77,305.74L634.08,301.93L636.53,301.26L639.61,301.85L640.29,299.62Z" class="land" id="UG-212" title="Tororo"/>
    <path d="M391.47,362.64L398.15,362.18L400.83,362.95L402.01,366.1L408.12,368.31L411.75,370.8L416.28,375.41L418.31,376.3L413.06,380.76L412.38,384.15L414.01,392.12L413.45,395.87L414.15,399.52L416.48,402.6L417.99,407.38L417.3,410.07L411.73,410.94L409.59,409.39L402.52,409.25L398.81,411.9L394.48,409.19L390.19,407.92L390.65,404.97L394.21,395.87L393.44,390.68L388.19,389.24L383.56,387.16L382.85,385.24L375.71,383.54L372.5,384.74L366.97,381.67L369.4,379.71L369.19,375.28L368.28,372.56L369.36,370.23L368.54,367.6L365.76,365.61L365.49,362.97L366.02,363.04L371.62,362.44L375.98,359.84L379.35,359.84L381.33,362.77L387.99,366.2Z" class="land" id="UG-111" title="Sembabule"/>
    <path d="M616.99,226.56L617.09,229.82L614.98,230.64L610.95,230.6L608.21,235.53L609.2,237.47L607.77,239.6L602.21,239.26L596.98,240.52L594.4,238.1L593.85,235.56L588.28,234.26L584.74,232.12L579.2,230.38L581.27,226.36L581.61,222.68L583.2,218.87L582.67,217.19L584.78,213.67L583.61,210.22L584.27,204.52L585.82,200.8L587.67,199.5L591.93,199.29L595.98,204.92L602.15,206.64L603.73,210.6L606.01,211.73L610.1,216.47L613.28,218.3L615,220.76L615.11,222.95Z" class="land" id="UG-211" title="Soroti"/>
    <path d="M677.96,282.52L671.57,281.29L667.84,281.63L667.54,283.25L664.3,283.03L663.12,281.73L659.75,281.8L654.46,279.91L654.25,276.47L649.3,276.46L650.87,275.31L651.05,271.77L654.27,267.98L656,264.71L656.51,267.13L661.39,265.28L665.15,270.72L669.29,272.91L672.34,278.38L676.57,279.16L681.38,279.19L681.34,280.18Z" class="land" id="UG-215" title="Sironko"/>
    <path d="M315.48,419.39L317.27,421.61L313.86,437.55L308.27,444.18L302.62,445.28L300.13,446.99L297.99,447.02L292.37,449.42L289.53,446.73L285.1,442.86L286.64,439.52L288.74,440.74L290.84,437.64L294.88,436.52L299.18,436.55L301.38,433.93L302.18,430.12L301.86,419.77L303.25,421.85L308.95,419.88Z" class="land" id="UG-426" title="Sheema"/>
    <path d="M607.77,239.6L606.87,245.37L604.78,250.06L604.64,252.94L600.53,255.8L597.69,255.8L594.45,258.93L594.19,260.36L591.2,263.06L586.49,261.06L583.14,261.88L581.9,260.27L579.66,260.85L577.94,257.89L572.34,257.06L566.3,260.81L557.74,258.85L549.9,251.6L545.5,249.43L546.89,245.37L549.72,242.72L557.75,238.15L562.54,236.4L569.63,233.45L579.2,230.38L584.74,232.12L588.28,234.26L593.85,235.56L594.4,238.1L596.98,240.52L602.21,239.26Z" class="land" id="UG-232" title="Serere"/>
    <path d="M332.01,449.68L333.41,451.48L332.87,455.61L331.09,458.51L328.58,458.78L324.34,455.32L320.72,455.44L320.22,456.64L313.74,455.42L310.37,454.07L306.78,451.54L302.62,445.28L308.27,444.18L313.86,437.55L319.12,434.93L321.37,435.25L323.15,437.19L321.63,440.17L329.39,448.65Z" class="land" id="UG-435" title="Rwampara"/>
    <path d="M249.52,420.25L257.62,414.3L257.71,414.31L261.9,415.87L261.86,417.99L264.48,421.41L268.67,421.15L268.46,425.16L267.6,427.33L268.62,429.44L267.65,431.53L263.96,435.76L266.67,438.43L270.19,439.86L273.56,445.69L278.03,449.12L279.13,450.82L279.01,460.37L277.68,462.35L281.15,466.05L280.67,470.75L278.37,472.45L278.56,476.17L276.72,473.55L269.41,471.8L267.01,475.9L265.4,474.43L264.45,471.37L261.42,467.93L261.31,462.94L263.74,460.64L260.4,456.81L258.31,451.9L258.54,448.77L256.62,445.7L256.77,442.65L253.27,437.36L251.04,436.12L249.08,430.37L249.4,426.72L251.92,424.64Z" class="land" id="UG-412" title="Rukungiri"/>
    <path d="M278.56,476.17L280.65,477.21L282.39,482.13L284.93,484.64L288.27,485.23L291.73,484.57L291.56,487.77L293.85,488L297.55,484.79L301.26,484.73L300.66,487.72L297.22,490.54L293.33,495.55L289.61,495.39L288.36,490.91L284.91,491.88L284.07,490.74L276.52,488.87L275.74,484.95L270.64,481.54L268.08,479.06L267.01,475.9L269.41,471.8L276.72,473.55Z" class="land" id="UG-431" title="Rukiga"/>
    <path d="M264.11,399.59L264.35,399.57L267.82,396.69L270.28,397.73L273.37,396.26L274.83,394.15L278.63,392.49L282.6,389.59L283.96,389.92L288.41,387.31L293.8,387.84L293.47,389.81L296.5,391.95L300.12,397.68L299.92,399.79L295.73,401.11L294.88,403.45L290.94,406.54L289.15,410.84L290.09,414.58L285.51,414.27L281.91,412.44L270.78,416.97L268.67,421.15L264.48,421.41L261.86,417.99L261.9,415.87L257.71,414.31L257.62,414.3L261.01,411.54L262.94,407.24L264.48,401.91Z" class="land" id="UG-425" title="Rubirizi"/>
    <path d="M265.4,474.43L267.01,475.9L268.08,479.06L270.64,481.54L275.74,484.95L276.52,488.87L275.23,490.34L269.2,493.94L266.08,498.15L266.19,501.62L263.49,502.69L261.81,503.17L260,499.42L258.12,498.63L257.36,496.01L254.33,490.49L252.06,488.22L254.6,486.26L251.95,484.25L250.72,479.56L252.09,477.78L252.34,473.43L250.8,471.62L253.38,469.66L256.94,473.42L258.31,473.16L262.62,477.02Z" class="land" id="UG-429" title="Rubanda"/>
    <path d="M403.85,434.57L406.97,436.01L408.3,440.66L411.01,443.98L407.45,446.74L408.32,449.39L408.13,453.33L404.74,454.32L403.03,457.16L399.3,466.03L391.78,466.88L390.74,470.64L388.63,470.64L388.62,466.17L383.16,461.8L382.6,459.3L384.68,456.66L381.59,454.74L382.27,448.95L376.32,442.76L372.63,441.16L372.81,437.97L375.52,433.71L378.04,427.19L378.19,424.86L380.34,425.14L383.99,421.85L386.23,421.97L388.38,424.36L392.53,425.16L396.73,428.18L399.26,432.5Z" class="land" id="UG-110" title="Rakai"/>
    <path d="M609.59,259.91L611.63,262.41L616.6,262.1L621.58,266.66L623.34,266.86L622.7,270.83L621,273.06L620.75,276.4L619.38,275.77L617.15,280.64L614.5,282.8L612.65,280.71L604.67,279.71L600.42,281.5L598.64,279.76L597.29,276.23L590.86,272.51L588.39,268.58L583.68,264.62L580.48,264.25L579.66,260.85L581.9,260.27L583.14,261.88L586.49,261.06L591.2,263.06L594.19,260.36L596.24,262.97L604.53,262.59L606.71,260.39Z" class="land" id="UG-210" title="Pallisa"/>
    <path d="M406.68,168L405.55,167.78L401.28,170.99L398.07,170.88L394.54,173.99L390.15,183.52L388.83,184.82L387.61,183.91L387.91,178.55L390.04,176.08L389.62,173.93L390.75,169.98L390.31,160.51L386.85,160.52L391.99,156.61L391.14,152.16L389.34,149.59L390.76,147.84L390.54,140.16L389.95,137.77L394.02,134.61L394.26,132.49L399.07,131.14L403.16,132.41L404.66,134.41L405.1,137.67L404.05,140.02L401.27,144.89L403.17,148.15L406,150.77L407.26,155.46L410.64,156.31L411.16,158.87L407.86,161.08Z" class="land" id="UG-332" title="Pakwach"/>
    <path d="M555.91,104.28L557.12,109.54L561.98,115.03L560.53,118.23L561.14,122.57L555.7,126.44L553.17,124.27L550.98,126.24L547.84,125.99L545.27,135.05L548.42,138.89L551.13,140.87L553.15,147.02L550.67,147.95L544.7,153.21L542.74,150.56L540.52,151.45L539.33,149.65L540.55,147.38L536.36,147.45L532.17,144.61L531.55,142.93L528.41,142.33L525.46,140.02L522.73,136.13L518.72,131.73L516.58,131.42L515.45,128.05L513.51,125.35L508.6,117.43L506.17,114.41L503.35,109.12L496.48,99.57L500.72,99.26L500.09,96.39L504.25,96.41L509.45,97.22L515.27,95.6L516.93,94.08L519.73,95.11L521.84,92.58L524.3,92.02L524.53,94.74L528.9,96.41L532.43,96.56L532.57,94.57L537.47,92.07L538.32,89.64L542.69,92.9L546.49,99.81L549.45,98.94L551.48,101.21L551.61,103.89Z" class="land" id="UG-312" title="Pader"/>
    <path d="M524.89,148.08L525.87,150.32L525.33,152.89L526.39,155.77L523.79,158.33L517.77,159.64L513.67,165.27L509.46,168.47L510.51,171.94L513.76,173.57L511.71,177.88L509.17,178.16L506.06,181.27L505.07,181.54L504.02,186.25L499.65,191.32L497.33,191.46L495.73,193.23L490.86,194.46L485.92,194.24L483.74,191.23L482.82,187.73L482.72,183.53L479.75,179.55L477.47,178.1L475.06,171.28L474.7,164.33L474.88,156.13L476.39,154.33L480.91,155.54L486.88,158.09L489.22,157.47L492.39,160.64L493.54,158.32L494.74,150.91L497.38,145.7L502.94,145.13L513.21,146.8L517.1,146.05L524.86,146.62Z" class="land" id="UG-321" title="Oyam"/>
    <path d="M592.03,146.61L593.84,150.64L600.54,158.54L604.3,155.46L607.62,159.57L610.58,160.85L610.28,163.37L603.3,169.08L601.1,168.78L599.15,170.91L596.6,171.51L593.88,168.94L592.21,169.26L583.09,168.48L578.42,171.54L575.89,170.39L572.08,172.13L570,169.99L566.26,168.86L562.56,163.65L557.92,162.54L555.19,156.73L553.92,157.63L549.33,155.63L545.01,156.21L544.7,153.21L550.67,147.95L553.15,147.02L558.26,145.23L560.59,148.26L562.66,147.13L570.3,147.31L572.42,145.87L581.04,147.37L582.88,144.01L584.03,147.64L590.16,147.66Z" class="land" id="UG-329" title="Otuke"/>
    <path d="M528.41,142.33L526.9,145.88L524.89,148.08L524.86,146.62L517.1,146.05L513.21,146.8L502.94,145.13L497.38,145.7L494.74,150.91L493.54,158.32L492.39,160.64L489.22,157.47L486.88,158.09L480.91,155.54L478.59,153.15L477.95,148.03L475.5,144.88L471.46,145.35L469.4,141.13L465.76,138.11L469.14,136.3L469.88,134L472.04,132.74L475.42,131.82L478.61,132.82L479.52,134.48L483.88,134.02L484.08,131.33L489.24,130.46L492.54,131.25L494.72,129.51L497.32,130.23L499.47,128.44L503.54,130.95L507.75,129.31L510.15,129.56L511.24,127.13L513.51,125.35L515.45,128.05L516.58,131.42L518.72,131.73L522.73,136.13L525.46,140.02Z" class="land" id="UG-331" title="Omoro"/>
    <path d="M433.46,65.13L430.42,66.49L427.87,66.2L422.84,72.52L423.49,75.15L417.2,83.68L415.69,90.91L412.76,97.37L407.3,93.92L402.7,86.98L405.02,70.72L412.54,59.01L416.08,61.7L419.87,61.17L430.89,61.24Z" class="land" id="UG-337" title="Obongi"/>
    <path d="M396.46,178.87L398.71,174.84L404.92,171.21L406.68,168L407.86,161.08L411.16,158.87L410.64,156.31L407.26,155.46L406,150.77L403.17,148.15L401.27,144.89L404.05,140.02L406.59,139.78L407.6,137.76L410.98,135.53L412.8,132.64L418.9,128.37L423.25,127.52L425.69,128.68L428.63,126.06L434.53,126.49L438.29,129.39L445.04,130.85L446,129.49L453.58,130.12L456.58,131.81L461.15,128.99L464.44,128.72L466.22,131.71L471.65,130.9L472.04,132.74L469.88,134L469.14,136.3L465.76,138.11L469.4,141.13L471.46,145.35L475.5,144.88L477.95,148.03L478.59,153.15L480.91,155.54L476.39,154.33L474.88,156.13L474.7,164.33L475.06,171.28L477.47,178.1L473.45,179.21L471.31,181.35L467.55,181.01L458.98,175.52L456.5,176.06L455.63,173.61L447.66,168.54L440.69,168.64L439.23,167.73L433.52,171.44L431.75,173.81L427.15,174.94L421.64,177.69L419.97,176.25L416.39,175.33L412.62,176.34L411.54,177.84L408.4,178.71L406.58,180.41Z" class="land" id="UG-328" title="Nwoya"/>
    <path d="M328.58,458.78L327.89,461.42L325.75,461.99L325.01,464.47L323.14,464.44L319.86,468.76L319.74,472.1L317.36,475.88L314.58,475.01L312.9,476.45L305.93,476.77L305.15,481.88L301.26,484.73L297.55,484.79L293.85,488L291.56,487.77L291.73,484.57L288.27,485.23L284.93,484.64L282.39,482.13L280.65,477.21L278.56,476.17L278.37,472.45L280.67,470.75L281.15,466.05L277.68,462.35L279.01,460.37L279.13,450.82L281.28,448.6L284.12,449.53L289.53,446.73L292.37,449.42L297.99,447.02L300.13,446.99L302.62,445.28L306.78,451.54L310.37,454.07L313.74,455.42L320.22,456.64L320.72,455.44L324.34,455.32Z" class="land" id="UG-411" title="Ntungamo"/>
    <path d="M314.42,272.77L317.35,275.72L317.78,280.43L319.71,282.57L317.99,286.53L319.6,288.03L322.81,286.1L323.89,287.68L322.77,290.05L323.24,293.04L317.61,298.08L312.55,299.11L307,301.92L305.63,300.02L304.44,306.38L300.93,308.12L301.51,310.75L296.42,313.52L296.36,313.53L294.02,313.11L291.85,315.08L289.16,314.92L292.05,309.37L292.91,305.6L292.1,302L288.43,301.15L290.08,296.24L294.55,291.52L294.25,287.65L294.84,283.86L296,282.1L295.61,278.99L300.47,275.32L302.62,277.16L304.92,275.63L306.81,272.68L309.59,273.98Z" class="land" id="UG-424" title="Ntoroko"/>
    <path d="M624.88,232.33L624.99,236.96L622.35,243.14L618.45,249.89L616.97,251.28L615.12,255.41L616.75,258.01L611.88,258.22L609.59,259.91L606.71,260.39L604.53,262.59L596.24,262.97L594.19,260.36L594.45,258.93L597.69,255.8L600.53,255.8L604.64,252.94L604.78,250.06L606.87,245.37L607.77,239.6L609.2,237.47L608.21,235.53L610.95,230.6L614.98,230.64L617.09,229.82L621.31,230.08Z" class="land" id="UG-231" title="Ngora"/>
    <path d="M390.54,140.16L390.76,147.84L389.34,149.59L391.14,152.16L391.99,156.61L386.85,160.52L390.31,160.51L390.75,169.98L389.62,173.93L390.04,176.08L387.91,178.55L387.61,183.91L382.61,181.31L382.6,174.77L376.24,177.34L373.07,175.8L370.91,170.04L365.71,166.21L366.71,164.66L368.9,157.94L366.25,153.95L363.5,154.12L363.82,151.41L366.13,149.18L370.24,151.47L375.58,152.28L383.06,148.29L385.57,143.64Z" class="land" id="UG-310" title="Nebbi"/>
    <path d="M686.64,163.16L679.98,184.41L677.17,192.67L674.22,196.67L669.59,201.83L661.8,207.74L654.05,211.73L654.08,202.65L653.08,190.27L625.82,173.42L620.48,170.06L620.48,170L624.66,167.15L630.82,164.58L633.74,164.95L636.51,161.39L637.32,158.14L636.41,153.25L632.79,149.57L630.94,145.44L632.82,142.97L632.8,140.74L638.3,135.63L643.29,132.96L647.38,132.58L657.47,135.51L659.31,119.05L663.95,123.89L666.47,130.23L666.72,135.06L676.85,149.53L679.41,150.49L685.62,159.35Z" class="land" id="UG-327" title="Napak"/>
    <path d="M621.37,317.99L615.32,319.27L612.36,316.16L609.23,317.78L604.8,315.42L601.66,315L601.91,311.75L600.78,310.08L594.82,308.75L593.36,306.82L592.8,301L595.09,296.21L595.36,292.85L601.34,282.88L606.54,287.22L606.81,289.56L608.71,292.88L612.42,295.76L615.31,298.4L614.86,306.61L616.16,312.04Z" class="land" id="UG-224" title="Namutumba"/>
    <path d="M677.03,296.88L674.69,300.92L673.89,303.85L670.72,306.46L671.01,308.3L667.9,309.45L665.92,311.45L662.31,312.36L661.94,313.65L659.7,312.67L661.36,307.01L663.14,305.37L663.17,300.78L661.36,298.76L661.65,295.04L665.37,294.46L666.05,292.62L669.71,293.23Z" class="land" id="UG-234" title="Namisindwa"/>
    <path d="M482.29,233.03L483.43,235.13L488.75,237.51L491.12,237.78L500.09,243.97L505.3,244.58L506.08,246.83L510.43,251.49L513.07,251.65L516.81,250.35L516.86,256.35L522.01,258.88L525.4,267.98L526.12,277.92L525.04,284.12L518.54,284.68L514.7,283.41L511.05,278.14L509.43,278.78L505.91,283.15L505.97,286.97L504.43,287.95L505.1,294.37L502.54,294.51L499.17,292.98L495.94,288.48L490.64,283.29L487.8,278.61L485.51,272.71L485.7,271.11L481.71,267.49L479.88,267.45L473.96,263.3L472.65,260.81L468.6,258.3L464.69,254.28L458.32,251.12L451.97,248.96L451.35,247.15L453.12,243.44L458.33,242.08L459.91,238.83L462.27,237.71L461.78,233.89L462.79,232.58L467.06,230.55L474.9,230.52L478.58,231.12Z" class="land" id="UG-109" title="Nakasongola"/>
    <path d="M487.8,278.61L486.45,280.31L486.47,282.96L485.27,287.64L486.51,294.03L489.17,296.88L490.26,300.55L493.95,307.33L495.69,309.26L496.53,314.18L498.36,315.21L499.16,317.61L497.03,318.45L495.6,321.17L492.62,321.81L489.81,321.31L485.15,324.17L483.07,330.04L484.14,331.16L481.72,332.78L479.83,332.59L477.72,329.78L475.05,328.7L473.82,325.15L471.03,323.18L469.63,319.45L471.22,318.36L473,308.16L471.61,307.07L470.01,303.21L465.54,300.05L459.97,299.51L455.35,296.92L454.17,291.47L454.34,289.02L450.46,284.92L446.23,281.32L446.41,276.74L445.27,275.64L446.14,272.46L443.77,268.21L441.65,265.95L439.84,261.11L438.15,258.58L441.6,256.35L442.79,253.78L446.27,250.64L451.97,248.96L458.32,251.12L464.69,254.28L468.6,258.3L472.65,260.81L473.96,263.3L479.88,267.45L481.71,267.49L485.7,271.11L485.51,272.71Z" class="land" id="UG-116" title="Nakaseke"/>
    <path d="M705.36,187.75L705.76,189.88L706.15,191.23L709.66,194.28L710.97,196.58L711.81,201.21L708.5,206.8L708.43,212.5L710.28,213.84L710.2,217.46L711.35,219.38L709.23,222.29L710.15,225.49L707.64,226.77L706.66,232.99L699.91,236.44L699.12,238.42L696.07,239.72L690.05,239.7L683.04,237.08L678.86,237.33L673.58,239.51L672.06,241.07L669.43,240.27L663.52,241.32L658.44,241.68L654.66,240.38L654.65,238.78L654.61,233.57L657.45,233.63L662.11,231.16L668.03,220.4L671.82,218.91L672.88,213L677.54,211.5L683.39,208.73L688.7,203L692.17,203.77L693.37,200.12L699.52,200.35L699.94,197.14L698.05,189.94L698.77,188.96L702.64,189.75Z" class="land" id="UG-311" title="Nakapiripirit"/>
    <path d="M705.36,187.75L702.64,189.75L698.77,188.96L698.05,189.94L699.94,197.14L699.52,200.35L693.37,200.12L692.17,203.77L688.7,203L683.39,208.73L677.54,211.5L672.88,213L671.82,218.91L668.03,220.4L662.11,231.16L657.45,233.63L654.61,233.57L653.99,233.3L654.05,211.73L661.8,207.74L669.59,201.83L674.22,196.67L677.17,192.67L679.98,184.41L686.64,163.16L687.14,161.51L691.11,162.03L691.8,169.65L694.86,174.19L698.01,181.01L700.39,181.88L703.62,184.68Z" class="land" id="UG-334" title="Nabilatuk"/>
    <path d="M423.14,307.44L422.86,310.02L418.71,313.35L416.67,315.94L415.67,323.91L415.72,328.03L418.97,332.41L420.28,341.72L417.7,345.79L415.56,347.73L409.11,352.31L396.85,354.48L394.89,355.38L392.88,358.19L391.47,362.64L387.99,366.2L381.33,362.77L379.35,359.84L375.98,359.84L371.62,362.44L366.02,363.04L366.35,360.33L373.95,354.24L377.16,349.04L374.53,343.79L377.04,339.92L378.06,335.56L385.92,333.95L387.51,328.45L387.25,326.51L383.66,323.99L385.63,323.01L390.36,316.13L390.23,314.27L397.98,317.55L401.03,313.8L400.65,308.74L403.38,307.34L404.69,303.02L410.08,303.03L416.01,303.98Z" class="land" id="UG-107" title="Mubende"/>
    <path d="M473.29,379.05L472.81,386.09L469.47,387.33L465.49,386.34L461.47,383.05L456.46,384.33L458.73,386.09L460.31,389.16L454.06,388.48L451.89,389.08L449.15,392.04L449.07,391.91L446.81,388.82L445.39,384.34L442.64,380.27L444.26,377.83L445.93,377.79L448.75,375.6L458.15,371.94L459.31,369.07L461.7,368.08L464.85,368.97L468.23,368.47L468.99,372.32L471.5,371.29L472.92,365.65L472.87,362.71L474.36,358.29L479.5,358.61L481.53,354.99L478.3,352.25L477.38,350.98L477.75,346.84L477.06,344.3L486.17,346.84L490.2,348.84L492.05,350.56L492.58,355.1L491.99,357.47L489.29,362.28L486.64,363.49L484.85,367.18L481.92,369.91L478.81,371.73L477.9,374.26L475.42,375.87Z" class="land" id="UG-106" title="Mpigi"/>
    <path d="M454.26,58.99L451.02,60.1L449.69,63.65L446.47,65.13L441.76,63.73L440.21,61.8L437.46,61.55L433.46,65.13L430.89,61.24L419.87,61.17L416.08,61.7L412.54,59.01L412.44,56.03L410.68,53.59L414.02,49.7L418.02,47.83L419.76,45.38L422.13,45.35L426.2,47.24L428.32,46.3L430.79,43.3L438.74,37.47L442.1,40.1L447.76,47.63L450.73,52.77L449.94,54.79L450.5,58.16Z" class="land" id="UG-309" title="Moyo"/>
    <path d="M718.07,175.5L714.52,176.19L710.19,181.22L710.5,183.1L708.51,185.55L708.19,187.97L705.76,189.88L705.36,187.75L703.62,184.68L700.39,181.88L698.01,181.01L694.86,174.19L691.8,169.65L691.11,162.03L687.14,161.51L686.64,163.16L685.62,159.35L679.41,150.49L676.85,149.53L666.72,135.06L666.47,130.23L663.95,123.89L659.31,119.05L665.34,111.76L669.76,102.66L673.78,103.75L677.82,102.23L680.81,103.17L684.34,101.24L685.53,102.95L685.92,109.34L686.89,110.84L687.94,117.96L691.56,119.58L692.78,123.11L698.08,123.32L700.29,124.24L703.04,128.18L704.52,133.22L703.8,138.38L705.94,142.17L708.86,145.31L710.7,148.66L714.76,148.27L716.17,154.69L717.97,154.76L719.83,160L716.53,163.12L716.6,166.08Z" class="land" id="UG-308" title="Moroto"/>
    <path d="M469.63,319.45L471.03,323.18L473.82,325.15L475.05,328.7L472.04,332.98L471.52,337.9L474.08,342.27L477.06,344.3L477.75,346.84L477.38,350.98L478.3,352.25L468.22,358.33L464.63,354.72L462.24,354.04L461.08,356.22L456.8,357.06L452.68,360.42L448.14,359.98L442.48,360.16L440.01,355.73L436.47,355.31L440.55,350.19L444.09,351.13L447.43,350.65L449.14,344.04L450.45,342.3L446.86,334.3L446.49,329.55L443.43,327.56L446.07,324.81L450.59,323.46L452.85,321.66L455.55,324.24L463.27,319.46L466.5,318.39Z" class="land" id="UG-115" title="Mityana"/>
    <path d="M286.64,439.52L285.1,442.86L289.53,446.73L284.12,449.53L281.28,448.6L279.13,450.82L278.03,449.12L273.56,445.69L270.19,439.86L266.67,438.43L263.96,435.76L267.65,431.53L268.62,429.44L267.6,427.33L268.46,425.16L270.57,425.95L272.8,423.05L272.69,420.2L276.08,422.03L279.12,431.77L283.24,434.82L285.19,433.75Z" class="land" id="UG-423" title="Mitooma"/>
    <path d="M329.57,400.63L330.57,401.88L329.42,405.41L329.65,407.58L333.9,410.6L337,415.84L335.85,418.85L340.13,419.96L345.51,425.33L348.16,426.8L344.31,431.9L345.05,435.1L340.96,435.36L339.01,437.17L337.59,435.76L333.51,438.47L331.56,446.71L332.01,449.68L329.39,448.65L321.63,440.17L323.15,437.19L321.37,435.25L319.12,434.93L313.86,437.55L317.27,421.61L315.48,419.39L319.49,415.68L320.04,409.9L319.22,407.45L319.9,404.28L325.97,401.89L327.76,402.12L329.07,399.54L329.56,400.58Z" class="land" id="UG-410" title="Mbarara"/>
    <path d="M649.3,276.46L654.25,276.47L654.46,279.91L659.75,281.8L663.12,281.73L664.3,283.03L658.62,290.38L659.58,294.25L655.33,296.17L653.12,303.6L650.48,306.24L650.16,303.73L643.75,299.64L645.4,296.44L644.85,290.68L641.32,287.24L645.24,284.19L646.53,282.44L646.29,277.87L644.83,275.18Z" class="land" id="UG-209" title="Mbale"/>
    <path d="M461.78,233.89L462.27,237.71L459.91,238.83L458.33,242.08L453.12,243.44L451.35,247.15L451.97,248.96L446.27,250.64L442.79,253.78L441.6,256.35L438.15,258.58L435.63,258.98L432.03,261.71L425.4,260.79L422.7,259.64L420.33,260.17L416.7,258.76L415.89,254.44L417.08,251.29L413.8,250.26L411.59,246.46L408.09,244.32L407.33,241.76L408.23,237.8L403.5,235.48L397.93,236.5L397.82,233.07L399.32,228.26L400.74,230.21L405.22,228.55L409.31,228.35L411.48,225.32L416.85,222.11L416.76,213.5L413.87,211.75L414.71,208.89L419.19,204.5L415.03,202.77L412.76,199.98L412.62,176.34L416.39,175.33L419.97,176.25L421.64,177.69L427.15,174.94L431.75,173.81L431.36,196.28L431.12,197.95L433.26,202.33L443.59,204.09L446.2,209.35L443.15,214.25L446.07,220.39L446.97,225.37L446.29,231.65L451.33,233.44L452.03,235.46L455.36,234.46L458.56,234.83Z" class="land" id="UG-409" title="Masindi"/>
    <path d="M451.57,413.46L450.42,414.87L438.87,425.88L435.02,432.56L434.33,436.67L436.43,439.19L430.83,445.79L430.74,445.68L425.06,435.72L426.12,431.22L427.86,428.61L424.26,427.05L423.46,425.72L424.18,422.21L422.29,420.33L417.89,419.57L416.83,415.17L418.51,414.01L422.39,415.62L424.6,414.26L426.65,414.92L428.06,411.85L426.88,409.68L428.33,408.16L429.11,403.7L430.8,405.57L434.57,405.44L436.98,402.02L440.46,404.39L443.15,403.51L443.72,401.11L446.51,400.24L446.56,400.23L446.31,402.85L447.98,401.9L447.55,399.64L450.44,396.33L453.24,399.34L453.07,403.11L455.46,403.87L456.88,406.79L452.69,409.87Z" class="land" id="UG-105" title="Masaka"/>
    <path d="M368.41,81.92L370.54,84.32L370.83,86.1L365.24,89.07L362.4,94.16L359.51,97.68L358.91,99.62L353.84,99.76L352.82,98.76L349.37,100.3L346.56,98.95L350.09,89.33L350.08,86.97L352.23,86.32L354.26,80.73L356.91,77.68L359.48,81.04L368.11,81.03Z" class="land" id="UG-320" title="Maracha"/>
    <path d="M666.05,292.62L665.37,294.46L661.65,295.04L661.36,298.76L663.17,300.78L663.14,305.37L661.36,307.01L659.7,312.67L655.4,310.54L654.16,308.6L650.48,306.24L653.12,303.6L655.33,296.17L659.58,294.25L663.75,290.22Z" class="land" id="UG-223" title="Manafwa"/>
    <path d="M401.04,94.37L407.3,93.92L412.76,97.37L411.43,98.07L409.42,102.11L407.22,104.91L407.31,107.74L405.17,107.9L402.96,110.73L400.49,112.35L401.84,115.23L398.42,119.66L398.03,123.52L396.79,125.86L399.07,131.14L394.26,132.49L394.02,134.61L389.95,137.77L390.54,140.16L385.57,143.64L383.06,148.29L375.58,152.28L370.24,151.47L366.13,149.18L362.91,147.34L362.83,141.72L362.19,139.04L364.03,134.9L365.56,133.35L364.83,128.99L367.97,125.51L371.24,126.33L373.48,124.67L372.93,121.05L375.53,119.2L380.67,111.44L379.1,110.24L379.89,106.1L386.94,103.88L387.1,102.04L391.41,104.09L395.67,101.43L395.73,96.5L397.78,93.71Z" class="land" id="UG-336" title="Madi-Okollo"/>
    <path d="M390.19,407.92L387.98,409.83L385.63,409.64L380.4,414.94L379.59,418.31L381.72,418.21L383.99,421.85L380.34,425.14L378.19,424.86L378.03,420.43L376.18,418.57L373.56,411.28L371.66,408.13L370.44,402.59L370.62,399.78L372.5,394.94L373.49,388.61L372.5,384.74L375.71,383.54L382.85,385.24L383.56,387.16L388.19,389.24L393.44,390.68L394.21,395.87L390.65,404.97Z" class="land" id="UG-114" title="Lyantonde"/>
    <path d="M428.33,408.16L426.88,409.68L428.06,411.85L426.65,414.92L424.6,414.26L422.39,415.62L418.51,414.01L416.83,415.17L417.89,419.57L415.49,423.67L411.53,425.55L407.28,429.68L403.71,431.37L403.85,434.57L399.26,432.5L396.73,428.18L392.53,425.16L388.38,424.36L386.23,421.97L383.99,421.85L381.72,418.21L379.59,418.31L380.4,414.94L385.63,409.64L387.98,409.83L390.19,407.92L394.48,409.19L398.81,411.9L402.52,409.25L409.59,409.39L411.73,410.94L417.3,410.07L417.99,407.38L420.74,408.1L424.22,407.32Z" class="land" id="UG-124" title="Lwengo"/>
    <path d="M525.04,284.12L524.06,291.09L525.64,303.85L522.63,307.21L521.72,322.81L518.41,328.62L515.49,330.68L509,330.1L506.37,328.27L502.48,331.56L501.04,329.84L491.63,330.1L489.62,329.25L484.14,331.16L483.07,330.04L485.15,324.17L489.81,321.31L492.62,321.81L495.6,321.17L497.03,318.45L499.16,317.61L498.36,315.21L496.53,314.18L495.69,309.26L493.95,307.33L490.26,300.55L489.17,296.88L486.51,294.03L485.27,287.64L486.47,282.96L486.45,280.31L487.8,278.61L490.64,283.29L495.94,288.48L499.17,292.98L502.54,294.51L505.1,294.37L504.43,287.95L505.97,286.97L505.91,283.15L509.43,278.78L511.05,278.14L514.7,283.41L518.54,284.68Z" class="land" id="UG-104" title="Luwero"/>
    <path d="M579.78,299.13L576.67,303.2L579.31,312.17L582.88,315.73L581.24,325.45L582.21,330L579.76,329.47L580.24,327.2L577.88,326.56L572.27,321.64L566.87,321.09L564.17,319.3L563.9,315.19L566.63,312.02L566.98,309.74L569.17,308.37L569.6,303.22L570.83,299.36L571.69,292.26L572.6,288.84L571.7,285.98L574.23,283.93L575.82,286.44L581.63,290.96Z" class="land" id="UG-229" title="Luuka"/>
    <path d="M544.7,153.21L545.01,156.21L546.44,160.95L542.49,165.49L542.33,168.63L543.94,169.75L544.67,172.91L547.6,171.46L552.08,173.4L554.57,177.12L553.74,179.92L557.03,182.37L557.46,184.52L553.5,185.85L556.27,189.14L556.29,191.16L555.91,193.75L552.61,194.77L547.26,199.84L541.86,194.86L539.77,195.63L536.45,193.74L534.59,194.52L532.69,193.32L537.34,189.01L536.45,185.42L531.2,182.11L528.71,181.28L527.07,178.6L527.8,173.39L528.99,172.21L535.97,170.86L537.01,166.14L535.03,161.44L533.71,160.88L531.83,155.23L528.89,156.19L526.39,155.77L525.33,152.89L525.87,150.32L524.89,148.08L526.9,145.88L528.41,142.33L531.55,142.93L532.17,144.61L536.36,147.45L540.55,147.38L539.33,149.65L540.52,151.45L542.74,150.56Z" class="land" id="UG-307" title="Lira"/>
    <path d="M573.61,42.12L573.78,45.59L572.21,47.37L570.54,54.74L571.77,58.91L568.91,60.42L568.49,64.66L560.38,63.97L553.88,66.2L548.09,63.91L546.66,65.72L546.57,65.64L546.66,65.72L544.45,67.75L542.42,67.71L539.64,70.97L535.49,73.28L533.74,75.4L525.91,76.08L523.26,76.84L519.83,75.69L519.95,78.95L518.3,81.78L518.47,91.11L516.93,94.08L515.27,95.6L509.45,97.22L504.25,96.41L500.09,96.39L499.74,96.17L499.67,96.19L499.17,95.85L499.06,95.54L498.36,92.94L495.36,90.16L489.84,87.56L488.97,85.31L488.91,85.2L488.76,85.1L488.68,84.92L488.62,84.76L488.39,84.56L486.57,83.84L484.33,81.45L482.51,81.97L479.24,77.56L478.25,73.06L475,71.79L473.81,67.71L472.26,65.52L473.2,61.2L471.99,57.1L491.6,44.03L519.02,42.03L535.29,37.72L546.67,30.69L560.25,41.05Z" class="land" id="UG-326" title="Lamwo"/>
    <path d="M430.82,445.79L427.57,450.2L426.5,456.67L427.23,457.7L431.21,457.44L433.35,460.3L433.26,466.81L434.85,470.65L415.67,470.85L390.74,470.64L391.78,466.88L399.3,466.03L403.03,457.16L404.74,454.32L408.13,453.33L408.32,449.39L407.45,446.74L411.01,443.98L408.3,440.66L406.97,436.01L403.85,434.57L403.71,431.37L407.28,429.68L411.53,425.55L415.49,423.67L417.89,419.57L422.29,420.33L424.18,422.21L423.46,425.72L424.26,427.05L427.86,428.61L426.12,431.22L425.06,435.72L430.74,445.68Z" class="land" id="UG-125" title="Kyotera"/>
    <path d="M324.84,296.23L325.96,298.13L329.81,299.3L331.07,300.56L338.66,301.5L342.86,303.6L345.18,305.78L348.9,305.33L351,308.54L356.06,312.25L355.5,313.36L357.61,320.13L357.19,322.99L352.8,324.6L349.82,327.31L352.88,330.37L353.43,333.25L351.65,339.44L352.37,340.84L351.05,345.09L348,342.57L345.93,342.06L342.37,338.43L336.93,338.97L336.43,340.94L331.54,346.86L328.94,348.01L325.13,347.62L322.02,344.27L321.58,342.48L323.62,339.9L322.53,337.98L319.06,335.79L319.98,332.08L316.12,329.32L314.66,328.39L310.1,323.31L312.17,320.17L313.5,316.5L312.69,311.91L315.46,310.95L318.67,305.53L317.99,303.03L322.07,297.44Z" class="land" id="UG-415" title="Kyenjojo"/>
    <path d="M383.66,323.99L387.25,326.51L387.51,328.45L385.92,333.95L378.06,335.56L377.04,339.92L374.53,343.79L377.16,349.04L373.95,354.24L366.35,360.33L366.02,363.04L365.49,362.97L354.84,362.83L353.48,362.17L348.89,362.92L345.49,361.79L343.47,362.56L343.86,360.52L348.15,353.83L348.29,352.18L350.84,350.44L351.67,347.44L351.05,345.09L352.37,340.84L351.65,339.44L353.43,333.25L352.88,330.37L349.82,327.31L352.8,324.6L357.19,322.99L357.61,320.13L355.5,313.36L356.06,312.25L358.77,316.83L364.17,319.81L373.7,323.61L375.05,321.7L380.34,322.03Z" class="land" id="UG-422" title="Kyegegwa"/>
    <path d="M416.7,258.76L420.33,260.17L422.7,259.64L425.4,260.79L432.03,261.71L435.63,258.98L438.15,258.58L439.84,261.11L441.65,265.95L443.77,268.21L446.14,272.46L445.27,275.64L446.41,276.74L446.23,281.32L443.07,287.25L440.34,287.75L437.44,292.16L432.1,296.42L431.28,301.13L425.54,302.45L425.1,304.79L423.14,307.44L416.01,303.98L410.08,303.03L404.69,303.02L404.93,299.97L403.46,298.42L403.21,295.41L410.13,291.9L411.55,290.03L410.43,286.63L407.97,285.68L402.61,279.84L401.28,276.4L398.74,276.8L395.03,274.14L390.58,272.15L393.33,269.42L397.37,269.42L398.28,267.78L401.9,266.69L405.37,265.39L406.08,263.17L409.27,261.59L412.02,258.36Z" class="land" id="UG-123" title="Kyankwanzi"/>
    <path d="M690.05,239.7L690.8,241.86L694.15,243.92L696.94,243.73L697.13,245.8L699.17,248.31L699.04,251.52L697.65,255.49L692.43,259L688.05,260.41L685.08,264.52L685.03,268.07L683.82,269.63L683.88,276.74L685.73,281.94L682.05,281.56L681.34,280.18L681.38,279.19L682.25,274.69L682.81,269.44L682.01,265.37L679.93,261.57L677.34,259.29L676.9,255.04L677.78,253.3L676.35,249.67L674.26,248.03L674.13,245.61L669.43,240.27L672.06,241.07L673.58,239.51L678.86,237.33L683.04,237.08Z" class="land" id="UG-228" title="Kween"/>
    <path d="M532.69,193.32L534.59,194.52L534.53,199.55L531.55,202.08L532.35,205.81L536.71,203.08L540.37,206.3L540,212.28L538.58,214.65L538.75,217.72L532.92,218.03L528.07,215.67L525.97,216.58L521.68,221.22L518.39,223.66L511.74,229.75L506.98,232.31L504.03,223.82L504.16,220.03L502.5,217.26L501.57,213.75L503.6,212.13L508.36,210.62L508.78,209.59L513.3,207.27L513.06,203.83L513.71,198.93L510.21,198.87L509.61,195.04L507.75,194.22L508.06,190.1L510.36,187.93L513.42,189.18L523.85,188.58L526.05,193.23L530.5,191.52Z" class="land" id="UG-333" title="Kwania"/>
    <path d="M653.99,233.3L654.61,233.57L654.65,238.78L644.84,239.13L641.78,244.43L638.89,245.91L634.92,250.85L636.27,253.35L635.34,255.71L636.16,258.02L634.75,262.14L631.92,264.67L628.31,265.99L626.64,267.8L623.34,266.86L621.58,266.66L616.6,262.1L611.63,262.41L609.59,259.91L611.88,258.22L616.75,258.01L615.12,255.41L616.97,251.28L618.45,249.89L622.35,243.14L624.99,236.96L624.88,232.33L629.75,233.74L635.05,232.53Z" class="land" id="UG-208" title="Kumi"/>
    <path d="M618.15,82.77L621.64,83.8L625.41,82.97L625.22,88.45L626.81,87.59L637.48,88.58L641.44,88.37L648.26,91.69L650.78,93.5L650.9,95.17L653.27,97.41L664.81,103.33L669.76,102.66L665.34,111.76L659.31,119.05L657.47,135.51L647.38,132.58L643.29,132.96L638.3,135.63L632.8,140.74L632.82,142.97L630.94,145.44L623.31,140.6L623.76,134.99L625.33,129.3L624.31,127.96L624.66,123.7L620.64,115.53L616.4,112.43L611.73,114.04L608.9,111.77L609,109.04L605.87,106.1L603.51,105.42L605.36,102.71L606.51,98.48L601.81,98.39L599.27,99.18L594.41,97.53L593.6,85.59L597.9,86.08L601.03,88.63L606.4,88.81L608.41,85.01L610.68,78.39Z" class="land" id="UG-306" title="Kotido"/>
    <path d="M532.69,193.32L530.5,191.52L526.05,193.23L523.85,188.58L513.42,189.18L510.36,187.93L509.78,185.3L506.06,181.27L509.17,178.16L511.71,177.88L513.76,173.57L510.51,171.94L509.46,168.47L513.67,165.27L517.77,159.64L523.79,158.33L526.39,155.77L528.89,156.19L531.83,155.23L533.71,160.88L535.03,161.44L537.01,166.14L535.97,170.86L528.99,172.21L527.8,173.39L527.07,178.6L528.71,181.28L531.2,182.11L536.45,185.42L537.34,189.01Z" class="land" id="UG-325" title="Kole"/>
    <path d="M373.32,44.67L373.24,57.71L372.05,61.98L372.68,63.85L372.36,69.9L373.04,71.88L371.51,76.94L369.57,78.28L368.41,81.92L368.11,81.03L359.48,81.04L356.91,77.68L358.77,74.8L359.17,69.16L358.67,65.36L354.64,66.02L351.89,67.53L354.42,60.61L361.91,48.48L364.35,47.15L366.99,48.22L369.74,46.16L370.54,44.06Z" class="land" id="UG-319" title="Koboko"/>
    <path d="M590.02,43.21L598.27,57.7L600.94,59.84L600.08,63.03L602.25,66.35L607.5,72.22L610.86,77.03L610.68,78.39L608.41,85.01L606.4,88.81L601.03,88.63L597.9,86.08L593.6,85.59L589.05,86.01L587.5,84.29L580.33,83.64L578.94,85.92L573.65,87.96L571.37,89.82L572.11,92.5L566.21,95.44L563.1,95.57L560.29,94.56L556.94,94.57L556.04,97.8L556.54,100L555.91,104.28L551.61,103.89L551.48,101.21L549.45,98.94L546.49,99.81L542.69,92.9L538.32,89.64L537.47,92.07L532.57,94.57L532.43,96.56L528.9,96.41L524.53,94.74L524.3,92.02L521.84,92.58L519.73,95.11L516.93,94.08L518.47,91.11L518.3,81.78L519.95,78.95L519.83,75.69L523.26,76.84L525.91,76.08L533.74,75.4L535.49,73.28L539.64,70.97L542.42,67.71L544.45,67.75L546.66,65.72L548.09,63.91L553.88,66.2L560.38,63.97L568.49,64.66L568.91,60.42L571.77,58.91L570.54,54.74L572.21,47.37L573.78,45.59L573.61,42.12L587.97,43.27Z" class="land" id="UG-305" title="Kitgum"/>
    <path d="M316.82,371.41L315.14,372.19L315.03,375.23L308.96,381.03L311.19,385.08L312.28,392.41L315.57,394.03L312.91,397.14L310.23,396.83L308.37,393.76L306.43,394.49L299.04,390.94L296.5,391.95L293.47,389.81L293.8,387.84L297.46,376.88L298.1,373.08L298.35,364.28L300.1,361.83L303.34,365L308.78,367.8L311.8,366.38L315.04,366.57L317.5,370.3Z" class="land" id="UG-434" title="Kitagwenda"/>
    <path d="M252.09,477.78L250.72,479.56L251.95,484.25L254.6,486.26L252.06,488.22L254.33,490.49L257.36,496.01L258.12,498.63L255.89,502.19L249.43,501.36L245.17,505.08L237.48,505.63L238.98,499.21L237.71,495.24L238.89,490.34L235.97,487.85L237.09,484.69L236.34,483.25L237.49,475.46L236.95,471.36L243.97,475.79L248.38,475.98Z" class="land" id="UG-408" title="Kisoro"/>
    <path d="M477.47,178.1L479.75,179.55L482.72,183.53L482.82,187.73L483.74,191.23L485.92,194.24L484.18,203.86L486.66,206.05L485.17,207.32L484.95,213.92L479.6,215.45L479.11,217.91L475.09,219.87L469.15,221.01L463.42,225.04L462.79,232.58L461.78,233.89L458.56,234.83L455.36,234.46L452.03,235.46L451.33,233.44L446.29,231.65L446.97,225.37L446.07,220.39L443.15,214.25L446.2,209.35L443.59,204.09L433.26,202.33L431.12,197.95L431.36,196.28L431.75,173.81L433.52,171.44L439.23,167.73L440.69,168.64L447.66,168.54L455.63,173.61L456.5,176.06L458.98,175.52L467.55,181.01L471.31,181.35L473.45,179.21Z" class="land" id="UG-421" title="Kiryandongo"/>
    <path d="M372.5,384.74L373.49,388.61L372.5,394.94L370.62,399.78L370.44,402.59L371.66,408.13L373.56,411.28L376.18,418.57L378.03,420.43L378.19,424.86L378.04,427.19L375.52,433.71L372.81,437.97L372.63,441.16L369.37,443.08L364.97,443.16L362.16,444.84L356.91,444.23L352.03,440.79L351.99,438.66L349.99,436.92L345.05,435.1L344.31,431.9L348.16,426.8L345.51,425.33L340.13,419.96L335.85,418.85L337,415.84L333.9,410.6L329.65,407.58L329.42,405.41L330.57,401.88L329.57,400.63L329.56,400.58L329.07,399.54L330.61,395.53L333.27,392.24L336.79,391.85L341.32,394.54L345.46,394.04L347.83,391.19L350.69,389.64L354.45,390.63L356.81,389.34L356.64,387.38L359.17,385.77L356.54,378.67L358.98,379.55L367.56,376.56L369.19,375.28L369.4,379.71L366.97,381.67Z" class="land" id="UG-419" title="Kiruhura"/>
    <path d="M334.03,280.1L335.96,278.4L339.07,273.15L338.96,269.51L340.14,267.06L345.27,262.56L347.52,261.7L350.3,255.39L356.39,250.04L359.15,243.08L363.89,245.73L362.66,248.58L362.85,252.54L365.54,254.96L368.34,256.14L375.71,253L376.86,244.79L381.13,246.76L382.87,245.64L389.14,248.25L390.27,249.46L388.32,254.58L390.91,257.63L396.63,258.59L400.65,258.34L400.65,261.16L401.9,266.69L398.28,267.78L397.37,269.42L393.33,269.42L390.58,272.15L389.07,273.12L385.59,271.27L380.77,274.62L376.08,273.61L371.87,278.14L369.72,276.41L367.77,278.62L364.26,279.32L361.56,278.86L357.26,280.25L354.45,277.79L351.61,277.77L347.53,281.35L345.13,280.33L342.19,284.48L337.46,281.17Z" class="land" id="UG-432" title="Kikuube"/>
    <path d="M627.92,276.01L627.25,281.54L624.81,285.18L628.38,286.32L622.11,293.4L621.72,296.07L614.08,294.81L612.42,295.76L608.71,292.88L606.81,289.56L606.54,287.22L601.34,282.88L600.42,281.5L604.67,279.71L612.65,280.71L614.5,282.8L617.15,280.64L619.38,275.77L620.75,276.4L623.93,278.24Z" class="land" id="UG-227" title="Kibuku"/>
    <path d="M469.63,319.45L466.5,318.39L463.27,319.46L455.55,324.24L452.85,321.66L450.59,323.46L446.07,324.81L447.25,321.89L444.24,316.9L446.41,314.64L439.8,311.29L435.07,310.91L433.89,308.98L431.5,308.55L427.65,309.43L423.14,307.44L425.1,304.79L425.54,302.45L431.28,301.13L432.1,296.42L437.44,292.16L440.34,287.75L443.07,287.25L446.23,281.32L450.46,284.92L454.34,289.02L454.17,291.47L455.35,296.92L459.97,299.51L465.54,300.05L470.01,303.21L471.61,307.07L473,308.16L471.22,318.36Z" class="land" id="UG-103" title="Kiboga"/>
    <path d="M390.23,314.27L390.36,316.13L385.63,323.01L383.66,323.99L380.34,322.03L375.05,321.7L373.7,323.61L364.17,319.81L358.77,316.83L356.06,312.25L351,308.54L348.9,305.33L352.57,304.91L355.02,299.85L357.62,299.13L360.82,294.53L362.33,296.63L366.41,293.58L369.17,292.82L371.7,290.54L375.07,289.95L374.91,295.15L376.28,297.61L378.68,299.14L379.8,302L383.38,307.61L384.9,311.13Z" class="land" id="UG-407" title="Kibaale"/>
    <path d="M365.49,362.97L365.76,365.61L368.54,367.6L369.36,370.23L368.28,372.56L369.19,375.28L367.56,376.56L358.98,379.55L356.54,378.67L359.17,385.77L356.64,387.38L356.81,389.34L354.45,390.63L350.69,389.64L347.83,391.19L345.46,394.04L341.32,394.54L336.79,391.85L333.27,392.24L330.61,395.53L327.27,394.03L325.59,390.85L326.42,387.09L325.5,384.74L326.94,379.06L330.42,375.25L331.69,369.96L328.76,365.94L330.63,365.89L334.17,362.07L339.99,363.2L343.47,362.56L345.49,361.79L348.89,362.92L353.48,362.17L354.84,362.83Z" class="land" id="UG-433" title="Kazo"/>
    <path d="M538.3,270.86L540.51,272.68L541.17,277.33L540.53,280.54L538.47,283.55L538.21,288.3L539.21,290.45L539.44,295.33L544.52,302.17L545.08,304.67L546.79,306.13L548.36,315.04L549.31,317.93L548.53,321.56L548.62,327L550.6,328.57L551.72,331.68L550.86,334.59L547.38,335.14L546.32,333.33L542.64,330.89L540.59,327.06L536.88,322.32L533.03,320.39L531.19,313.71L528.51,309.9L528.03,307.3L525.64,303.85L524.06,291.09L525.04,284.12L526.12,277.92L525.4,267.98L522.01,258.88L516.86,256.35L516.81,250.35L527.95,248.16L528.5,251.26L531.03,259.2L535.56,265.15Z" class="land" id="UG-112" title="Kayunga"/>
    <path d="M654.05,211.73L653.99,233.3L635.05,232.53L629.75,233.74L624.88,232.33L621.31,230.08L617.09,229.82L616.99,226.56L618.79,224.34L622.31,221.94L622.44,216.1L620.46,213.76L620.43,211.46L624.94,209.07L623.73,207.51L624.51,203.04L624.49,199.4L625.68,196L623.48,194.21L625.16,190.96L624.92,185.64L623.44,183.85L623.01,178.61L625.45,175.54L625.82,173.42L653.08,190.27L654.08,202.65Z" class="land" id="UG-207" title="Katakwi"/>
    <path d="M446.07,324.81L443.43,327.56L446.49,329.55L446.86,334.3L450.45,342.3L449.14,344.04L447.43,350.65L444.09,351.13L440.55,350.19L436.47,355.31L431.72,357.81L429.07,356.97L426.73,354.82L423.26,354.23L420.82,350.95L418.77,350.8L415.56,347.73L417.7,345.79L420.28,341.72L418.97,332.41L415.72,328.03L415.67,323.91L416.67,315.94L418.71,313.35L422.86,310.02L423.14,307.44L427.65,309.43L431.5,308.55L433.89,308.98L435.07,310.91L439.8,311.29L446.41,314.64L444.24,316.9L447.25,321.89Z" class="land" id="UG-126" title="Kassanda"/>
    <path d="M264.22,399.58L263.38,394.59L258.32,395.88L256.71,392.42L254.33,391.77L252.35,387.73L249.84,387.69L250.31,382.68L249.5,379.72L249.05,373.99L250.39,373.15L250.68,369.51L255.42,365.57L258.75,364.4L262.91,346.16L266.57,341.59L267.11,343.08L270.15,344.8L272.73,342.53L276.98,341.4L277.76,339.96L282.21,338.09L285.89,337.46L286.94,339.67L290.18,342.55L290.49,345.8L293.36,347.25L296.19,350.13L299.81,350.27L301.13,355.15L300.84,356.82L300.1,361.83L298.35,364.28L298.1,373.08L297.46,376.88L293.8,387.84L288.41,387.31L283.96,389.92L282.6,389.59L278.63,392.49L274.83,394.15L273.37,396.26L270.28,397.73L267.82,396.69L264.35,399.57Z" class="land" id="UG-406" title="Kasese"/>
    <path d="M618.15,82.77L610.68,78.39L610.86,77.03L607.5,72.22L602.25,66.35L600.08,63.03L600.94,59.84L598.27,57.7L590.02,43.21L590.44,43.19L621.55,11.55L634.84,33.92L634.27,47.92L632.26,48.82L631.83,51.11L629.12,52.82L627.09,55.41L629.3,57.69L633.03,57.79L633.24,60.78L631.75,63.62L626.1,65.73L622.83,64.63L616.22,65.93L615.86,68.43L616.67,72.35L616.18,77.34Z" class="land" id="UG-335" title="Karenga"/>
    <path d="M620.48,170.06L625.82,173.42L625.45,175.54L623.01,178.61L623.44,183.85L624.92,185.64L625.16,190.96L623.48,194.21L625.68,196L624.49,199.4L624.51,203.04L621.33,202.84L618.66,199.44L614.69,199.63L614.11,202.34L612.06,202.68L609.87,200.46L611.54,195.38L611.02,192.54L608.14,191.49L607.61,188.64L604.78,184.86L603.56,181.09L601.3,182.82L601.52,184.83L598.98,188.72L595.07,185.88L595.03,184.33L587.95,180.02L592.24,176.93L593.48,175.16L593.21,171.32L592.21,169.26L593.88,168.94L596.6,171.51L599.15,170.91L601.1,168.78L603.3,169.08L610.28,163.37Z" class="land" id="UG-236" title="Kapelebyong"/>
    <path d="M674.26,248.03L676.35,249.67L677.78,253.3L676.9,255.04L677.34,259.29L679.93,261.57L682.01,265.37L682.81,269.44L682.25,274.69L678.83,269.67L674.82,268.1L669.85,264.37L663.65,263.32L661.54,260.46L663.27,255.98L665.51,255.54L666.4,252.74L668.81,250.69L674.05,249.44Z" class="land" id="UG-206" title="Kapchorwa"/>
    <path d="M243.51,422.92L249.52,420.25L251.92,424.64L249.4,426.72L249.08,430.37L251.04,436.12L253.27,437.36L256.77,442.65L256.62,445.7L258.54,448.77L258.31,451.9L260.4,456.81L263.74,460.64L261.31,462.94L261.42,467.93L264.45,471.37L265.4,474.43L262.62,477.02L258.31,473.16L256.94,473.42L253.38,469.66L250.8,471.62L252.34,473.43L252.09,477.78L248.38,475.98L243.97,475.79L236.95,471.36L238.21,469.53L236.8,463.42L237.34,461.71L241.71,461.73L240.75,458.23L241.99,454.66L240.78,452.18L241.23,447.48L240.62,445.89L241.61,441.53L244.06,436.92L245.87,431.66L244.71,430.42L245.18,425.12Z" class="land" id="UG-414" title="Kanungu"/>
    <path d="M351.05,345.09L351.67,347.44L350.84,350.44L348.29,352.18L348.15,353.83L343.86,360.52L343.47,362.56L339.99,363.2L334.17,362.07L330.63,365.89L328.76,365.94L323.82,367.6L323.13,368.85L316.82,371.41L317.5,370.3L315.04,366.57L311.8,366.38L308.78,367.8L303.34,365L300.1,361.83L300.84,356.82L307.28,355.49L309.68,347.4L306.6,343.07L308.42,340.66L307.67,337.67L316.12,329.32L319.98,332.08L319.06,335.79L322.53,337.98L323.62,339.9L321.58,342.48L322.02,344.27L325.13,347.62L328.94,348.01L331.54,346.86L336.43,340.94L336.93,338.97L342.37,338.43L345.93,342.06L348,342.57Z" class="land" id="UG-413" title="Kamwenge"/>
    <path d="M571.69,292.26L570.83,299.36L569.6,303.22L569.17,308.37L566.98,309.74L566.63,312.02L563.9,315.19L564.17,319.3L558.36,318.31L555.93,320.78L551.87,319.66L550.39,321.93L548.53,321.56L549.31,317.93L548.36,315.04L546.79,306.13L545.08,304.67L544.52,302.17L539.44,295.33L539.21,290.45L538.21,288.3L538.47,283.55L540.53,280.54L541.17,277.33L540.51,272.68L538.3,270.86L546.83,270.77L548.92,272.9L551.43,273.56L552.52,275.7L555.43,276.5L556.03,281.31L557.75,286.91L560.33,287.46L564.4,292.06Z" class="land" id="UG-205" title="Kamuli"/>
    <path d="M513.82,355.54L511.36,355.51L509.36,359.7L506.03,355.68L502.9,356.4L500.09,353.16L505,344.6L508.04,344.31L511.23,346.81L511.66,350.96L514.02,351.67Z" class="land" id="UG-102" title="Kampala"/>
    <path d="M437.29,376.91L442.64,380.27L445.39,384.34L446.81,388.82L449.07,391.91L449.14,392.03L449.13,393.99L446.4,395.79L446.95,398.91L446.61,400.22L446.51,400.24L443.72,401.11L443.15,403.51L440.46,404.39L436.98,402.02L434.57,405.44L430.8,405.57L429.11,403.7L427.78,399.74L426.53,393.5L427.43,389.85L427.33,384.09L426.08,380.86L422.4,377.25L423.9,374.97L426.66,373.92L434.79,375.25Z" class="land" id="UG-122" title="Kalungu"/>
    <path d="M600.42,281.5L601.34,282.88L595.36,292.85L595.09,296.21L592.8,301L589.29,302.7L585.58,301.29L583.18,301.73L581.9,299.59L579.78,299.13L581.63,290.96L575.82,286.44L574.23,283.93L576.36,281.7L576.36,279.38L579.49,274.77L579.94,272.6L583,268.56L583.68,264.62L588.39,268.58L590.86,272.51L597.29,276.23L598.64,279.76Z" class="land" id="UG-222" title="Kaliro"/>
    <path d="M576.83,198.43L578.42,201.55L580.71,202.73L581.42,207.2L583.61,210.22L584.78,213.67L582.67,217.19L583.2,218.87L581.61,222.68L581.27,226.36L579.2,230.38L569.63,233.45L562.54,236.4L565.77,229.13L567.94,225.8L570.59,223.88L570.24,221.55L571.33,217.95L565.75,213.29L565.3,209.97L563.94,209.04L568.46,204.79L570.22,197.39L573.27,196.2Z" class="land" id="UG-237" title="Kalaki"/>
    <path d="M390.58,272.15L395.03,274.14L398.74,276.8L401.28,276.4L402.61,279.84L407.97,285.68L410.43,286.63L411.55,290.03L410.13,291.9L403.21,295.41L403.46,298.42L404.93,299.97L404.69,303.02L403.38,307.34L400.65,308.74L401.03,313.8L397.98,317.55L390.23,314.27L384.9,311.13L383.38,307.61L379.8,302L378.68,299.14L376.28,297.61L374.91,295.15L375.07,289.95L376.14,286.84L374.07,281.39L373.5,278L371.87,278.14L376.08,273.61L380.77,274.62L385.59,271.27L389.07,273.12Z" class="land" id="UG-428" title="Kakumiro"/>
    <path d="M323.89,287.68L325.59,288.56L329.54,286.74L330.51,283.21L334.03,280.1L337.46,281.17L342.19,284.48L345.13,280.33L347.53,281.35L351.61,277.77L354.45,277.79L357.26,280.25L361.56,278.86L364.26,279.32L367.77,278.62L369.72,276.41L371.87,278.14L373.5,278L374.07,281.39L376.14,286.84L375.07,289.95L371.7,290.54L369.17,292.82L366.41,293.58L362.33,296.63L360.82,294.53L357.62,299.13L355.02,299.85L352.57,304.91L348.9,305.33L345.18,305.78L342.86,303.6L338.66,301.5L331.07,300.56L329.81,299.3L325.96,298.13L324.84,296.23L323.24,293.04L322.77,290.05Z" class="land" id="UG-427" title="Kagadi"/>
    <path d="M562.54,236.4L557.75,238.15L549.72,242.72L546.89,245.37L545.5,249.43L541.74,247.96L541.81,240.74L540.76,234.86L539.17,233.12L543.79,230.48L544.1,226.82L548.65,227.05L551.64,225.05L553.46,220.97L554.71,213.72L556.86,213.8L562.12,209.23L563.94,209.04L565.3,209.97L565.75,213.29L571.33,217.95L570.24,221.55L570.59,223.88L567.94,225.8L565.77,229.13Z" class="land" id="UG-213" title="Kaberamaido"/>
    <path d="M285.13,324.72L285.69,321.51L287.87,318.31L289.16,314.92L291.85,315.08L294.02,313.11L296.36,313.53L296.42,313.52L301.51,310.75L300.93,308.12L304.44,306.38L305.63,300.02L307,301.92L312.55,299.11L317.61,298.08L323.24,293.04L324.84,296.23L322.07,297.44L317.99,303.03L318.67,305.53L315.46,310.95L312.69,311.91L313.5,316.5L312.17,320.17L310.1,323.31L314.66,328.39L316.12,329.32L307.67,337.67L308.42,340.66L306.6,343.07L309.68,347.4L307.28,355.49L300.84,356.82L301.13,355.15L299.81,350.27L299.53,348.23L300.86,345.56L299.85,343.95L297.26,343.82L298.54,335.39L296.71,332.96L300.4,329.94L297.23,327.2L291.74,328.01L290.14,326.6Z" class="land" id="UG-405" title="Kabarole"/>
    <path d="M289.61,495.39L288.93,499.28L289.64,501.75L283.66,504.21L281.61,504.35L279.06,506.8L279.37,508.64L275.62,508.18L273.81,510.83L266.52,514L263.87,508.72L263.49,502.69L266.19,501.62L266.08,498.15L269.2,493.94L275.23,490.34L276.52,488.87L284.07,490.74L284.91,491.88L288.36,490.91Z" class="land" id="UG-404" title="Kabale"/>
    <path d="M684.34,101.24L680.81,103.17L677.82,102.23L673.78,103.75L669.76,102.66L664.81,103.33L653.27,97.41L650.9,95.17L650.78,93.5L648.26,91.69L641.44,88.37L637.48,88.58L626.81,87.59L625.22,88.45L625.41,82.97L621.64,83.8L618.15,82.77L616.18,77.34L616.67,72.35L615.86,68.43L616.22,65.93L622.83,64.63L626.1,65.73L631.75,63.62L633.24,60.78L633.03,57.79L629.3,57.69L627.09,55.41L629.12,52.82L631.83,51.11L632.26,48.82L634.27,47.92L634.84,33.92L621.55,11.55L632.98,0L638.34,4.96L639.99,8.12L638.54,10.19L642.32,15.58L641.96,17.8L639.37,18.61L643.58,23.21L646.19,24.59L644.87,30.04L642.31,31.45L642.04,33.6L645.58,32.63L649.09,32.83L653.46,31.84L654.41,36.33L650.27,36.28L648.82,38.18L653.9,40.55L656.16,40.58L658.04,43.79L661.77,47.08L663.34,45.6L666.91,44.97L668.46,45.66L670.48,48.79L675.73,50.88L674.83,56.15L674.67,64.61L672.27,66.9L669.69,67.23L671.78,72.16L670.2,73.81L670.11,77.81L672.74,80.32L674.31,85.71L675.02,94.79L680.12,97.78L683.16,98.89Z" class="land" id="UG-318" title="Kaabong"/>
    <path d="M569.42,340.31L568.79,338.18L566.18,339.39L564.16,343.07L561.6,343.02L559.82,339.82L556.45,335.55L551.72,331.68L550.6,328.57L548.62,327L548.53,321.56L550.39,321.93L551.87,319.66L555.93,320.78L558.36,318.31L564.17,319.3L566.87,321.09L572.27,321.64L577.88,326.56L575.81,328.13L576.19,332.12L574.75,332.81L573.97,335.94L569.59,338.24Z" class="land" id="UG-204" title="Jinja"/>
    <path d="M345.05,435.1L349.99,436.92L351.99,438.66L352.03,440.79L356.91,444.23L362.16,444.84L364.97,443.16L369.37,443.08L372.63,441.16L376.32,442.76L382.27,448.95L381.59,454.74L384.68,456.66L382.6,459.3L383.16,461.8L388.62,466.17L388.63,470.64L346.19,470.62L343.3,469.35L341.07,471.06L337.18,472.06L333.63,476.31L330.82,476.88L327.28,476.2L322.9,477.42L320.25,477.3L317.36,475.88L319.74,472.1L319.86,468.76L323.14,464.44L325.01,464.47L325.75,461.99L327.89,461.42L328.58,458.78L331.09,458.51L332.87,455.61L333.41,451.48L332.01,449.68L331.56,446.71L333.51,438.47L337.59,435.76L339.01,437.17L340.96,435.36Z" class="land" id="UG-418" title="Isingiro"/>
    <path d="M592.8,301L593.36,306.82L594.82,308.75L594.06,312.05L595.63,314.14L596.18,318.44L594.28,323.25L592.83,332.02L582.47,331.14L582.21,330L581.24,325.45L582.88,315.73L579.31,312.17L576.67,303.2L579.78,299.13L581.9,299.59L583.18,301.73L585.58,301.29L589.29,302.7Z" class="land" id="UG-203" title="Iganga"/>
    <path d="M330.61,395.53L329.07,399.54L327.76,402.12L325.97,401.89L319.9,404.28L316.76,403.91L314.29,404.79L313.48,406.77L311.2,406.22L309.14,403.82L306.25,398.12L299.92,399.79L300.12,397.68L296.5,391.95L299.04,390.94L306.43,394.49L308.37,393.76L310.23,396.83L312.91,397.14L315.57,394.03L312.28,392.41L311.19,385.08L308.96,381.03L315.03,375.23L315.14,372.19L316.82,371.41L323.13,368.85L323.82,367.6L328.76,365.94L331.69,369.96L330.42,375.25L326.94,379.06L325.5,384.74L326.42,387.09L325.59,390.85L327.27,394.03Z" class="land" id="UG-417" title="Ibanda"/>
    <path d="M359.15,243.08L364.64,242.76L368.48,238.81L377.25,237.84L384.91,232.09L388.55,228.55L392.4,223.52L392.65,219.42L397.38,221.55L397.97,226.89L399.32,228.26L397.82,233.07L397.93,236.5L403.5,235.48L408.23,237.8L407.33,241.76L408.09,244.32L411.59,246.46L413.8,250.26L417.08,251.29L415.89,254.44L416.7,258.76L412.02,258.36L409.27,261.59L406.08,263.17L405.37,265.39L401.9,266.69L400.65,261.16L400.65,258.34L396.63,258.59L390.91,257.63L388.32,254.58L390.27,249.46L389.14,248.25L382.87,245.64L381.13,246.76L376.86,244.79L375.71,253L368.34,256.14L365.54,254.96L362.85,252.54L362.66,248.58L363.89,245.73Z" class="land" id="UG-403" title="Hoima"/>
    <path d="M488.39,84.56L488.62,84.76L488.68,84.92L488.76,85.1L488.91,85.2L488.97,85.31L489.84,87.56L495.36,90.16L498.36,92.94L499.06,95.54L499.17,95.85L499.67,96.19L499.74,96.17L500.09,96.39L500.72,99.26L496.48,99.57L503.35,109.12L506.17,114.41L508.6,117.43L513.51,125.35L511.24,127.13L510.15,129.56L507.75,129.31L503.54,130.95L499.47,128.44L497.32,130.23L494.72,129.51L492.54,131.25L489.24,130.46L484.08,131.33L483.88,134.02L479.52,134.48L478.61,132.82L475.42,131.82L473.28,126.17L473.15,123.4L471.47,119.82L471.03,113.45L474.92,109.5L474.47,106.43L477,101.05L476.64,98.58L479.36,98.22L480.11,95.6L483.73,89.88L483.64,88.33L486.94,86.82L486.57,83.84Z" class="land" id="UG-304" title="Gulu"/>
    <path d="M436.47,355.31L440.01,355.73L442.48,360.16L448.14,359.98L452.68,360.42L456.8,357.06L461.08,356.22L462.24,354.04L464.63,354.72L468.22,358.33L466.83,360.13L462.58,362.37L461.53,364.97L458.55,368.81L455.71,368.66L452.43,370.95L446.65,369.74L443.78,372.26L441.85,372.41L438.39,374.68L437.29,376.91L434.79,375.25L426.66,373.92L423.9,374.97L422.4,377.25L418.31,376.3L416.28,375.41L411.75,370.8L408.12,368.31L402.01,366.1L400.83,362.95L398.15,362.18L391.47,362.64L392.88,358.19L394.89,355.38L396.85,354.48L409.11,352.31L415.56,347.73L418.77,350.8L420.82,350.95L423.26,354.23L426.73,354.82L429.07,356.97L431.72,357.81Z" class="land" id="UG-121" title="Gomba"/>
    <path d="M570.22,197.39L568.46,204.79L563.94,209.04L562.12,209.23L556.86,213.8L554.71,213.72L553.46,220.97L551.64,225.05L548.65,227.05L544.1,226.82L541.6,219.99L538.75,217.72L538.58,214.65L540,212.28L540.37,206.3L536.71,203.08L532.35,205.81L531.55,202.08L534.53,199.55L534.59,194.52L536.45,193.74L539.77,195.63L541.86,194.86L547.26,199.84L552.61,194.77L555.91,193.75L556.29,191.16L559.7,191.25L560.78,192.45L565.87,193.6Z" class="land" id="UG-317" title="Dokolo"/>
    <path d="M541.74,247.96L545.5,249.43L549.9,251.6L557.74,258.85L566.3,260.81L572.34,257.06L577.94,257.89L579.66,260.85L580.48,264.25L583.68,264.62L583,268.56L579.94,272.6L579.49,274.77L576.36,279.38L576.36,281.7L574.23,283.93L571.7,285.98L572.6,288.84L571.69,292.26L564.4,292.06L560.33,287.46L557.75,286.91L556.03,281.31L555.43,276.5L552.52,275.7L551.43,273.56L548.92,272.9L546.83,270.77L538.3,270.86L535.56,265.15L531.03,259.2L528.5,251.26L527.95,248.16L534.62,247.6Z" class="land" id="UG-226" title="Buyende"/>
    <path d="M626.64,267.8L628.1,270.01L632.21,270.63L635.06,272.28L643.04,274.04L644.83,275.18L646.29,277.87L646.53,282.44L645.24,284.19L644.07,280.12L640.58,279.51L638.15,277.21L634.52,277.15L633.4,274.47L630.93,276.21L627.92,276.01L623.93,278.24L620.75,276.4L621,273.06L622.7,270.83L623.34,266.86Z" class="land" id="UG-233" title="Butebo"/>
    <path d="M442.64,380.27L437.29,376.91L438.39,374.68L441.85,372.41L443.78,372.26L446.65,369.74L452.43,370.95L455.71,368.66L458.55,368.81L461.53,364.97L462.58,362.37L466.83,360.13L468.22,358.33L478.3,352.25L481.53,354.99L479.5,358.61L474.36,358.29L472.87,362.71L472.92,365.65L471.5,371.29L468.99,372.32L468.23,368.47L464.85,368.97L461.7,368.08L459.31,369.07L458.15,371.94L448.75,375.6L445.93,377.79L444.26,377.83Z" class="land" id="UG-119" title="Butambala"/>
    <path d="M641.32,287.24L644.85,290.68L645.4,296.44L643.75,299.64L640.29,299.62L639.61,301.85L636.53,301.26L634.08,301.93L628.77,305.74L625.95,312.71L624.85,313.83L623.32,318.63L621.37,317.99L616.16,312.04L614.86,306.61L615.31,298.4L612.42,295.76L614.08,294.81L621.72,296.07L627.19,296.48L633.04,293.88L638.66,287.83Z" class="land" id="UG-221" title="Butaleja"/>
    <path d="M646.45,328.38L644.52,334L644.82,337.44L642.01,339.96L643.83,347.56L642.51,349.88L639.24,352.22L637.85,355.96L636.27,357L631.57,363.72L627.19,359.86L627.12,359.71L623.18,350.29L627.39,345.47L628.08,342.69L626.1,340.57L625.17,337.48L628.86,331.8L631.59,331.13L632.1,328.82L637.02,327.76Z" class="land" id="UG-202" title="Busia"/>
    <path d="M290.94,406.54L291.31,410.3L292.74,410.19L296.57,412.52L296.21,416.31L296.84,418.85L301.86,419.77L302.18,430.12L301.38,433.93L299.18,436.55L294.88,436.52L290.84,437.64L288.74,440.74L286.64,439.52L285.19,433.75L283.24,434.82L279.12,431.77L276.08,422.03L272.69,420.2L272.8,423.05L270.57,425.95L268.46,425.16L268.67,421.15L270.78,416.97L281.91,412.44L285.51,414.27L290.09,414.58L289.15,410.84Z" class="land" id="UG-402" title="Bushenyi"/>
    <path d="M299.81,350.27L296.19,350.13L293.36,347.25L290.49,345.8L290.18,342.55L286.94,339.67L285.89,337.46L282.21,338.09L277.76,339.96L276.98,341.4L272.73,342.53L274.25,338.35L277.77,336.44L280.8,333.04L280.98,330.04L282.9,328.34L282.98,326.04L285.13,324.72L290.14,326.6L291.74,328.01L297.23,327.2L300.4,329.94L296.71,332.96L298.54,335.39L297.26,343.82L299.85,343.95L300.86,345.56L299.53,348.23Z" class="land" id="UG-430" title="Bunyangabu"/>
    <path d="M288.43,301.15L292.1,302L292.91,305.6L292.05,309.37L289.16,314.92L287.87,318.31L285.69,321.51L285.13,324.72L282.98,326.04L282.9,328.34L280.98,330.04L280.8,333.04L277.77,336.44L274.25,338.35L272.73,342.53L270.15,344.8L267.11,343.08L266.57,341.59L272.52,334.32L272.68,330.7L270.34,323.14L271.83,318.1L272.18,313.74L270.99,310.97L273.23,304.84L276.87,303.87L278.63,302.34L284.97,300.39Z" class="land" id="UG-401" title="Bundibugyo"/>
    <path d="M392.65,219.42L392.72,218.28L396.57,216.17L398.71,214.12L400.85,208.78L401.28,204.92L400.64,202.57L400.53,196.37L399.25,193.68L398.82,187.58L397.32,183.63L398.39,180.2L396.46,178.87L406.58,180.41L408.4,178.71L411.54,177.84L412.62,176.34L412.76,199.98L415.03,202.77L419.19,204.5L414.71,208.89L413.87,211.75L416.76,213.5L416.85,222.11L411.48,225.32L409.31,228.35L405.22,228.55L400.74,230.21L399.32,228.26L397.97,226.89L397.38,221.55Z" class="land" id="UG-416" title="Buliisa"/>
    <path d="M669.43,240.27L674.13,245.61L674.26,248.03L674.05,249.44L668.81,250.69L666.4,252.74L665.51,255.54L663.27,255.98L661.54,260.46L663.65,263.32L669.85,264.37L674.82,268.1L678.83,269.67L682.25,274.69L681.38,279.19L676.57,279.16L672.34,278.38L669.29,272.91L665.15,270.72L661.39,265.28L656.51,267.13L656,264.71L656.11,260.21L658.73,255.33L657.67,251.82L654.79,249.09L654.66,240.38L658.44,241.68L663.52,241.32Z" class="land" id="UG-225" title="Bulambuli"/>
    <path d="M704.82,258.18L708.62,263.27L708.64,266.31L705.5,271.17L698.83,271.55L694.21,272.44L693.73,273.85L689.15,276.78L686.15,277.69L685.73,281.94L683.88,276.74L683.82,269.63L685.03,268.07L685.08,264.52L688.05,260.41L692.43,259L697.65,255.49L699.04,251.52L703.79,255.36Z" class="land" id="UG-220" title="Bukwo"/>
    <path d="M422.4,377.25L426.08,380.86L427.33,384.09L427.43,389.85L426.53,393.5L427.78,399.74L429.11,403.7L428.33,408.16L424.22,407.32L420.74,408.1L417.99,407.38L416.48,402.6L414.15,399.52L413.45,395.87L414.01,392.12L412.38,384.15L413.06,380.76L418.31,376.3Z" class="land" id="UG-118" title="Bukomansimbi"/>
    <path d="M654.66,240.38L654.79,249.09L657.67,251.82L658.73,255.33L656.11,260.21L656,264.71L654.27,267.98L651.05,271.77L650.87,275.31L649.3,276.46L644.83,275.18L643.04,274.04L635.06,272.28L632.21,270.63L628.1,270.01L626.64,267.8L628.31,265.99L631.92,264.67L634.75,262.14L636.16,258.02L635.34,255.71L636.27,253.35L634.92,250.85L638.89,245.91L641.78,244.43L644.84,239.13L654.65,238.78Z" class="land" id="UG-219" title="Bukedea"/>
    <path d="M561.6,343.02L562.66,345.03L566.18,345.67L566.99,347.17L560.78,351.67L558.35,352.01L556.68,353.68L557.32,357.1L555.43,359.63L554.54,360.87L553.26,357.91L549.58,357.32L547.95,360.72L552.19,362.01L551.42,364.28L549.8,365.35L548.09,366.68L547.66,368.52L542.57,372.03L536.15,373.95L534.09,373.18L533.07,367.17L533.9,364.51L534.02,364.19L535.83,356.71L532.92,353.1L533.33,347.85L539.58,343.84L541.75,344L539.57,339.06L542.64,330.89L546.32,333.33L547.38,335.14L550.86,334.59L551.72,331.68L556.45,335.55L559.82,339.82Z" class="land" id="UG-117" title="Buikwe"/>
    <path d="M319.9,404.28L319.22,407.45L320.04,409.9L319.49,415.68L315.48,419.39L308.95,419.88L303.25,421.85L301.86,419.77L296.84,418.85L296.21,416.31L296.57,412.52L292.74,410.19L291.31,410.3L290.94,406.54L294.88,403.45L295.73,401.11L299.92,399.79L306.25,398.12L309.14,403.82L311.2,406.22L313.48,406.77L314.29,404.79L316.76,403.91Z" class="land" id="UG-420" title="Buhweju"/>
    <path d="M601.66,315L604.29,317.88L605.67,321.14L603.86,329.01L599.69,333.28L600.12,336.35L599.28,339.12L598.95,340.82L592.97,336.88L594.04,333.44L592.83,332.02L594.28,323.25L596.18,318.44L595.63,314.14L594.06,312.05L594.82,308.75L600.78,310.08L601.91,311.75Z" class="land" id="UG-235" title="Bugweri"/>
    <path d="M611.32,353.12L607.38,351.32L607.67,344.03L604.09,344.28L601.17,340.42L599.28,339.12L600.12,336.35L599.69,333.28L603.86,329.01L605.67,321.14L604.29,317.88L601.66,315L604.8,315.42L609.23,317.78L612.36,316.16L615.32,319.27L621.37,317.99L623.32,318.63L627.14,327.84L632.1,328.82L631.59,331.13L628.86,331.8L625.17,337.48L620.56,341.98L617.32,347.24L616.07,350.79L611.43,353.12Z" class="land" id="UG-201" title="Bugiri"/>
    <path d="M682.05,281.56L680.87,282.21L678.49,287.07L678.08,292.63L677.03,296.88L669.71,293.23L666.05,292.62L663.75,290.22L659.58,294.25L658.62,290.38L664.3,283.03L667.54,283.25L667.84,281.63L671.57,281.29L677.96,282.52L681.34,280.18Z" class="land" id="UG-218" title="Bududa"/>
    <path d="M645.24,284.19L641.32,287.24L638.66,287.83L633.04,293.88L627.19,296.48L621.72,296.07L622.11,293.4L628.38,286.32L624.81,285.18L627.25,281.54L627.92,276.01L630.93,276.21L633.4,274.47L634.52,277.15L638.15,277.21L640.58,279.51L644.07,280.12Z" class="land" id="UG-217" title="Budaka"/>
    <path d="M401.04,94.37L397.78,93.71L395.73,96.5L395.67,101.43L391.41,104.09L387.1,102.04L386.94,103.88L379.89,106.1L379.1,110.24L380.67,111.44L375.53,119.2L372.93,121.05L373.48,124.67L371.24,126.33L367.97,125.51L364.83,128.99L365.56,133.35L364.03,134.9L362.19,139.04L360.07,136.94L357.66,137.69L355.51,140.9L352.5,140.22L345.58,142.95L348.76,135.54L348.42,133.69L351.7,131.54L353.94,127.89L354.28,122.11L351.54,117.62L351.44,114.59L347.9,110.44L346.56,110.54L343.6,107.08L345.54,105.44L346.56,98.95L349.37,100.3L352.82,98.76L353.84,99.76L358.91,99.62L359.51,97.68L362.4,94.16L365.24,89.07L370.83,86.1L370.54,84.32L374.94,82.65L377.19,79.79L379.78,79.32L382.31,80.44L385.81,84.67L393.77,87.01L395.16,90.8L398.92,90.8Z" class="land" id="UG-303" title="Arua"/>
    <path d="M506.06,181.27L509.78,185.3L510.36,187.93L508.06,190.1L507.75,194.22L509.61,195.04L510.21,198.87L513.71,198.93L513.06,203.83L513.3,207.27L508.78,209.59L508.36,210.62L503.6,212.13L501.57,213.75L502.5,217.26L504.16,220.03L504.03,223.82L506.98,232.31L503.03,232.68L495.19,229.38L491.52,228.84L486.1,232.46L482.29,233.03L478.58,231.12L474.9,230.52L467.06,230.55L462.79,232.58L463.42,225.04L469.15,221.01L475.09,219.87L479.11,217.91L479.6,215.45L484.95,213.92L485.17,207.32L486.66,206.05L484.18,203.86L485.92,194.24L490.86,194.46L495.73,193.23L497.33,191.46L499.65,191.32L504.02,186.25L505.07,181.54Z" class="land" id="UG-302" title="Apac"/>
    <path d="M472.26,65.52L473.81,67.71L475,71.79L478.25,73.06L479.24,77.56L482.51,81.97L484.33,81.45L486.57,83.84L486.94,86.82L483.64,88.33L483.73,89.88L480.11,95.6L479.36,98.22L476.64,98.58L477,101.05L474.47,106.43L474.92,109.5L471.03,113.45L471.47,119.82L473.15,123.4L473.28,126.17L475.42,131.82L472.04,132.74L471.65,130.9L466.22,131.71L464.44,128.72L461.15,128.99L456.58,131.81L453.58,130.12L446,129.49L445.04,130.85L438.29,129.39L434.53,126.49L428.63,126.06L425.69,128.68L423.25,127.52L418.9,128.37L412.8,132.64L410.98,135.53L407.6,137.76L406.59,139.78L404.05,140.02L405.1,137.67L404.66,134.41L403.16,132.41L399.07,131.14L396.79,125.86L398.03,123.52L398.42,119.66L401.84,115.23L405.27,118.35L408.58,119.46L410.45,121.57L413.27,121.54L414.51,119L417.88,115.71L419.42,116.61L423.45,116.1L433.15,113.6L435.83,115.33L441.4,115.33L444.31,113.14L446.64,108.17L447.99,103.12L450.58,99.75L451.57,94.56L454.32,91.97L454.6,86.22L458.12,80.3L456.75,78.14L456.89,75.58L459.26,74.04L459.01,68.22L459.91,65.94L459.28,59.58L459.77,58.74L462.27,62.76Z" class="land" id="UG-316" title="Amuru"/>
    <path d="M587.95,180.02L595.03,184.33L595.07,185.88L598.98,188.72L601.52,184.83L601.3,182.82L603.56,181.09L604.78,184.86L607.61,188.64L608.14,191.49L611.02,192.54L611.54,195.38L609.87,200.46L612.06,202.68L614.11,202.34L614.69,199.63L618.66,199.44L621.33,202.84L624.51,203.04L623.73,207.51L624.94,209.07L620.43,211.46L620.46,213.76L622.44,216.1L622.31,221.94L618.79,224.34L616.99,226.56L615.11,222.95L615,220.76L613.28,218.3L610.1,216.47L606.01,211.73L603.73,210.6L602.15,206.64L595.98,204.92L591.93,199.29L587.67,199.5L585.82,200.8L584.27,204.52L583.61,210.22L581.42,207.2L580.71,202.73L578.42,201.55L576.83,198.43L575.37,195.38L576.73,191.77L580.27,189.82L583.44,190.95L585.02,189.46L587.15,183.74L583.75,179.98Z" class="land" id="UG-216" title="Amuria"/>
    <path d="M718.07,175.5L719.35,183.47L722.2,196.5L722.6,202.52L724.02,204.56L724.03,222.9L723.21,231.38L718.93,239.26L715.5,241.41L714.13,241.19L711.77,243.61L710.02,249.97L705.46,253.93L706.56,256.69L704.82,258.18L703.79,255.36L699.04,251.52L699.17,248.31L697.13,245.8L696.94,243.73L694.15,243.92L690.8,241.86L690.05,239.7L696.07,239.72L699.12,238.42L699.91,236.44L706.66,232.99L707.64,226.77L710.15,225.49L709.23,222.29L711.35,219.38L710.2,217.46L710.28,213.84L708.43,212.5L708.5,206.8L711.81,201.21L710.97,196.58L709.66,194.28L706.15,191.23L705.76,189.88L708.19,187.97L708.51,185.55L710.5,183.1L710.19,181.22L714.52,176.19Z" class="land" id="UG-324" title="Amudat"/>
    <path d="M538.75,217.72L541.6,219.99L544.1,226.82L543.79,230.48L539.17,233.12L540.76,234.86L541.81,240.74L541.74,247.96L534.62,247.6L527.95,248.16L516.81,250.35L513.07,251.65L510.43,251.49L506.08,246.83L505.3,244.58L500.09,243.97L491.12,237.78L488.75,237.51L483.43,235.13L482.29,233.03L486.1,232.46L491.52,228.84L495.19,229.38L503.03,232.68L506.98,232.31L511.74,229.75L518.39,223.66L521.68,221.22L525.97,216.58L528.07,215.67L532.92,218.03Z" class="land" id="UG-315" title="Amolatar"/>
    <path d="M592.21,169.26L593.21,171.32L593.48,175.16L592.24,176.93L587.95,180.02L583.75,179.98L587.15,183.74L585.02,189.46L583.44,190.95L580.27,189.82L576.73,191.77L575.37,195.38L576.83,198.43L573.27,196.2L570.22,197.39L565.87,193.6L560.78,192.45L559.7,191.25L556.29,191.16L556.27,189.14L553.5,185.85L557.46,184.52L557.03,182.37L553.74,179.92L554.57,177.12L552.08,173.4L547.6,171.46L544.67,172.91L543.94,169.75L542.33,168.63L542.49,165.49L546.44,160.95L545.01,156.21L549.33,155.63L553.92,157.63L555.19,156.73L557.92,162.54L562.56,163.65L566.26,168.86L570,169.99L572.08,172.13L575.89,170.39L578.42,171.54L583.09,168.48Z" class="land" id="UG-323" title="Alebtong"/>
    <path d="M593.6,85.59L594.41,97.53L595.44,110.77L596.26,115.79L595.41,116.88L596,121.7L598.46,122.63L598.39,130.12L595.04,133.08L592.51,136.57L591.19,139.84L592.39,144.9L592.03,146.61L590.16,147.66L584.03,147.64L582.88,144.01L581.04,147.37L572.42,145.87L570.3,147.31L562.66,147.13L560.59,148.26L558.26,145.23L553.15,147.02L551.13,140.87L548.42,138.89L545.27,135.05L547.84,125.99L550.98,126.24L553.17,124.27L555.7,126.44L561.14,122.57L560.53,118.23L561.98,115.03L557.12,109.54L555.91,104.28L556.54,100L556.04,97.8L556.94,94.57L560.29,94.56L563.1,95.57L566.21,95.44L572.11,92.5L571.37,89.82L573.65,87.96L578.94,85.92L580.33,83.64L587.5,84.29L589.05,86.01Z" class="land" id="UG-322" title="Agago"/>
    <path d="M459.77,58.74L459.28,59.58L459.91,65.94L459.01,68.22L459.26,74.04L456.89,75.58L456.75,78.14L458.12,80.3L454.6,86.22L454.32,91.97L451.57,94.56L450.58,99.75L447.99,103.12L446.64,108.17L444.31,113.14L441.4,115.33L435.83,115.33L433.15,113.6L423.45,116.1L419.42,116.61L417.88,115.71L414.51,119L413.27,121.54L410.45,121.57L408.58,119.46L405.27,118.35L401.84,115.23L400.49,112.35L402.96,110.73L405.17,107.9L407.31,107.74L407.22,104.91L409.42,102.11L411.43,98.07L412.76,97.37L415.69,90.91L417.2,83.68L423.49,75.15L422.84,72.52L427.87,66.2L430.42,66.49L433.46,65.13L437.46,61.55L440.21,61.8L441.76,63.73L446.47,65.13L449.69,63.65L451.02,60.1L454.26,58.99L459.02,57.71Z" class="land" id="UG-301" title="Adjumani"/>
    <path d="M630.94,145.44L632.79,149.57L636.41,153.25L637.32,158.14L636.51,161.39L633.74,164.95L630.82,164.58L624.66,167.15L620.48,170L620.48,170.06L610.28,163.37L610.58,160.85L607.62,159.57L604.3,155.46L600.54,158.54L593.84,150.64L592.03,146.61L592.39,144.9L591.19,139.84L592.51,136.57L595.04,133.08L598.39,130.12L598.46,122.63L596,121.7L595.41,116.88L596.26,115.79L595.44,110.77L594.41,97.53L599.27,99.18L601.81,98.39L606.51,98.48L605.36,102.71L603.51,105.42L605.87,106.1L609,109.04L608.9,111.77L611.73,114.04L616.4,112.43L620.64,115.53L624.66,123.7L624.31,127.96L625.33,129.3L623.76,134.99L623.31,140.6Z" class="land" id="UG-314" title="Abim"/>
    <path d="M577.88,326.56L580.24,327.2L579.76,329.47L582.21,330L582.47,331.14L592.83,332.02L594.04,333.44L592.97,336.88L598.95,340.82L599.28,339.12L601.17,340.42L604.09,344.28L607.67,344.03L607.38,351.32L599.49,351.97L598.25,354.62L599.4,356.33L599.23,360.53L594.96,362.58L591.66,362.58L586.18,363.91L585.41,361.55L582.59,360.95L582.06,358.27L579.55,354.92L582.79,354.98L584.55,356.86L587.85,356.61L589.85,355.19L585.4,351.34L585.37,348.95L582.84,348.22L580.83,351.64L575.55,347.43L574.43,344.31L575.63,339.68L571.39,341.82L569.43,340.32L569.42,340.31L569.59,338.24L573.97,335.94L574.75,332.81L576.19,332.12L575.81,328.13Z" class="land" id="UG-214" title="Mayuge"/>
    <path d="M627.12,359.71L627.13,359.74L626.9,362.36L621.97,365.62L618.16,362.14L618.42,365.4L616.37,366.94L616.07,365.49L616.49,360.65L612.9,361.63L611.79,363.74L608.1,363.6L609.22,357.4L606.44,354.66L611.2,353.12L611.43,353.12L616.07,350.79L617.32,347.24L620.56,341.98L625.17,337.48L626.1,340.57L628.08,342.69L627.39,345.47L623.18,350.29ZM615.14,368.26L619.3,371.72L616.4,373.58L612.53,372.39L612.53,369.82ZM604.09,391.87L607.43,389.92L608.5,391.5L606.93,394.2Z" class="land" id="UG-230" title="Namayingo"/>
    <path d="M520.36,385.01L521.84,385.11L524.6,388.73L522.51,392.33L518.99,391.91L516.22,390.59L518.44,388.77ZM527.13,377.73L525.27,382.73L522.58,383.66L521.52,381.51L523.73,377.73ZM534.01,364.21L530.92,367.28L527.92,368.21L526.17,366.85L524.15,369.63L517.61,371.47L513.33,371.68L514.44,369.24L518.26,367.79L520.4,364.07L518.29,362.61L514.96,365.87L515.39,360.43L511.84,360.81L514.33,356.1L515.97,354.74L515.63,347.53L513.7,342.27L513.72,339.58L515.1,338.32L513.82,334.63L515.49,330.68L518.41,328.62L521.72,322.81L522.63,307.21L525.64,303.85L528.03,307.3L528.51,309.9L531.19,313.71L533.03,320.39L536.88,322.32L540.59,327.06L542.64,330.89L539.57,339.06L541.75,344L539.58,343.84L533.33,347.85L532.92,353.1L535.83,356.71L534.02,364.19Z" class="land" id="UG-108" title="Mukono"/>
    <path d="M565.6,375.13L568.77,374.4L569.28,376.71L566.2,378.89ZM565.03,359.63L561.91,357.61L562.46,355.52L567.26,352.57L571.36,352.35L569.43,355.47L572.09,358.13L574.66,356.68L577.05,352.74L579.06,357.1L574.91,361.55L572.26,363.01L573.16,367.03L571.15,369.27L568.92,369.35L566.83,365.5L565.12,363.91L567.38,361.85Z" class="land" id="UG-120" title="Buvuma"/>
    <path d="M483.53,422.46L482.25,421.81L484.88,419.95L485.13,420.52ZM500.02,414.3L501.57,417.13L499.83,421.42L496.95,420.21L499.57,416.68ZM482.96,416.49L480.37,416.5L480.06,414.49L482.63,413.66ZM483.72,400.76L489.24,402.87L487.38,405.9L485.97,405.51ZM470.57,400.89L470.89,401.46L470.24,404.55L468.64,406.53L470.96,408.46L476.09,405.77L478.4,409.17L481.55,410L478.27,413.73L478.85,415.65L479.42,416.8L479.87,421.3L479.75,422.91L477.56,423.67L475.13,420.72L472.82,421.23L469.35,425.41L468.58,428.29L466.21,425.6L469.03,422.32L469.22,420.07L476.54,414.49L475.13,411.35L473.27,409.74L469.93,410.52L463.64,408.14L462.48,404.61L459.65,404.16L460.36,400.37L463.45,401.08Z" class="land" id="UG-101" title="Kalangala"/>
  </g>
</svg>