<?xml version="1.0" encoding="UTF-8"?>
<svg xmlns="http://www.w3.org/2000/svg" width="608.05" height="269.84" viewBox="175.97 122.08 608.05 269.84" style="background-color:#000000">
  <!-- Created using SVG Map Generator: dojo.amcharts.com/svg-map-generator -->
  <style>
    .land { fill: #ffffff; stroke: #000000; stroke-width: 0.65; }
  </style>
  <g id="polygons">
    <path d="M344.33,380.38L344.26,380.4L344.05,380.22L344.21,380.18Z" class="land" id="AW" title="Aruba"/>
    <path d="M358.03,372.44L357.79,372.48L357.86,372.21Z" class="land" id="AG" title="Antigua and Barbuda"/>
    <path d="M355.88,370.36L355.62,370.45L355.63,370.39L355.84,370.27Z" class="land" id="AI" title="Anguilla"/>
    <path d="M332.07,356.46L332.1,355.37L332.38,355.66L332.16,355.84ZM331.2,358.68L331.2,359.13L330.69,359.45L330.27,358.59L330.71,357.87ZM331.34,359.52L331.57,360.22L331.15,360.43L331.02,359.9ZM339.1,365.07L338.87,365.46L338.03,365.53L338.26,365.07Z" class="land" id="BS" title="Bahamas"/>
    <path d="M356.16,370.96L356.11,370.89L356.22,370.91Z" class="land" id="BL" title="Saint Barthelemy"/>
    <path d="M312.53,374.44L311.95,374.43L312.08,371.07L312.27,370.75L312.68,370.81L313.15,369.96L313.53,369.91L313.86,370.53L313.57,371.43L313.5,373.14L312.86,373.82Z" class="land" id="BZ" title="Belize"/>
    <path d="M352.99,344.21L352.84,344.28L353.05,344.02Z" class="land" id="BM" title="Bermuda"/>
    <path d="M361.75,379.3L361.56,379.26L361.59,378.89L361.87,379.17Z" class="land" id="BB" title="Barbados"/>
    <path d="M368.51,300.37L367.91,301.29L367.82,302.05L366.44,304.28L367.19,304.2L368,304.54L367.78,305.53L368.65,305.76L369.23,306.23L369.98,305.76L371.02,305.88L371.67,306.65L371.2,307.5L371.3,308.22L372.59,308.1L371.74,308.96L371.46,309.74L372.7,309.47L372.33,310.41L373.21,310.66L372.51,312.8L371.59,312.8L371.56,311.68L371.17,311.07L370.97,310.15L370.63,309.89L370.23,310.88L369.52,311.07L368.75,312.25L367.96,312.35L367.87,311.84L368.46,311.63L368.96,310.91L367.83,310.71L367.23,310.36L366.01,310.6L363.7,310.35L362.39,310.61L361.97,309.88L363.07,308.73L363.06,308.04L363.9,306.02L364.23,305.62L365.15,303.22L366.35,301.07L367.56,300.28ZM248.4,302.76L249.23,303.09L251.27,303.61L252.67,305.92L253.76,306.44L254.59,308.08L254.43,308.7L252.6,308.04L250.69,306.78L250.68,306.31L249.99,305.88L249.48,305.94L249.26,304.76L248.54,304.75L247.95,304.01L247.28,304.1L247.21,303.27L246.61,302.84L247.19,302.17ZM357.89,306.77L357.19,306.81L355.81,306.44L354.94,305.99L353.99,304.59L356.12,305.2L357.86,306.29ZM336.28,316.83L338.21,315.83L338.87,314.43L340.98,312.92L342.05,312.62L343.29,311.94L345.86,308.85L347.11,307.96L348.25,307.38L350.56,306.47L351.66,306.33L352.81,306.52L353.77,307.21L353.78,308.16L352.93,308.97L352.1,309.49L350.98,309.07L351.42,310.3L352.15,310.01L353.03,310.23L352.68,311.11L352,311.77L352.69,312.29L353.3,313.87L355.39,315.05L356.38,315.08L356.75,315.36L357.63,314.77L358.41,315.2L358.76,316.28L356.7,317.21L354.61,318.05L354.21,317.68L353.73,317.9L353.58,318.48L352.77,319.5L351.3,320.21L350.65,319.62L350.69,318.33L351.44,317.41L352.7,316.55L353.46,316.23L352.71,315.35L351.05,316.31L349.4,316.68L348.98,316.44L348.4,316.19L348.46,315.41L347.87,315.17L347.84,311.82L346.99,311.15L346.12,311.52L345.43,310.88L344.15,312.73L343.75,313.85L343.67,314.68L342.66,316.22L341.94,316.15L341.62,316.82L339.53,316.83ZM354.53,313.32L354.74,313.09L355.67,313.43L357.28,313.27L356.09,314.45L355.69,313.84L354.93,313.95ZM359.06,314.59L359.56,315.08L360.12,314.58L360.06,313.96L361.13,314.07L360.88,314.74L360.26,315.28L358.76,315.48L358.4,314.59L359.45,312.52L359.87,312.08L360.35,312.59L359.94,314.04ZM345.02,133.11L349.87,134.1L358.58,140.72L357.26,145.66L353.25,149.34L351.72,154.43L343.92,163.77L341.84,169.95L338.76,171.05L338.36,172.43L335.36,173.11L335.63,175.07L333.69,176.81L336.74,179.27L334.34,185.2L330.75,185.71L330.64,189.08L328.26,191.55L328.73,193.49L330.29,193.18L330.29,196.16L328.24,198.02L326.26,198.97L325.46,196.58L320.91,197.01L318.81,198.06L311.4,196.73L311.52,194.3L313.36,192.24L315.91,191.52L313.87,187.52L315.67,186.14L314.78,183.84L316.02,178.83L320.48,177.23L320.39,174.88L318.9,171.35L316.67,169.16L316.86,164.55L321.19,165.45L327.34,162.45L330.12,159.81L329.72,157.06L325.73,161.15L321.73,160.54L318.53,162.47L312.25,159.33L310.77,155.66L312.39,151.55L307.92,149.92L309.86,147.66L316.4,143.91L319.22,140.62L323.17,143.16L323.87,138.66L327.61,134.18L331.41,134.76L334.54,132.69L344.21,131.73ZM307.52,156.1L309.6,161.78L314.57,164.02L315.74,168.7L315.46,170.88L318.21,172.11L318.94,173.95L314.26,179.41L312.7,183.72L309.65,184.06L306.19,182.09L303.71,176.93L306.41,174.36L302.13,174.3L301.81,170.97L299.86,169.14L299.34,166.36L300.41,160.78L301.85,157.52L306.64,154.51ZM288.2,174.07L290.8,176.1L294.59,180.47L294.35,182.81L295.33,186.43L292.95,186.15L292.14,183.7L289.36,182.24L286.69,183.08L288.04,178.88L284.67,176.59L284.91,173.99ZM300.29,180.9L302.49,182.46L302.16,185.34L298.97,186.83L296.86,181.76L296.93,178.58L299.65,179.58ZM277.5,179.9L278.21,182.53L271.92,181.93L276.51,178.99ZM276.42,184.44L277.57,185.62L276.86,189.04L273.92,190.42L271.89,188.99L271.81,186.05ZM301.49,186.94L305.15,187.35L304.78,189.42L300.65,189.35ZM267.9,190.28L266.67,192.26L267.38,193.25L266.78,195.87L263.76,197.05L261.51,198.65L260.59,201.16L257.25,199.95L255.8,198.61L257.75,197.09L261.97,190.72L264.77,190.63L266.54,188.89ZM303.49,193.67L306.13,195.93L308.49,195.37L309.25,197.12L311.88,198.08L310.26,199.82L313.69,203.51L315.27,202.81L317.26,203.58L319.71,202.56L320.84,201.44L323.81,201.36L326.88,202.73L327.99,203.93L328.24,207.66L326.96,209.55L324.39,210.21L319.03,209.41L317.7,210.07L313.32,210.1L312.72,208.71L310.94,209.76L307.39,208.21L306.61,204.38L307.02,201.25L305.5,197.71L301.85,198.35L299.56,195.21L299.36,193.23L301.24,192.54ZM280.05,199.8L282.44,200.68L284.55,200.68L284.76,201.94L284.12,205.64L281.96,207.35L279.15,206.46L275.62,209.19L272.97,210.59L271.31,210.51L270.27,208.39L272.44,207.04L269.74,206.31L267.6,207.09L266.35,205.77L264.47,205.11L266.12,199.68L267.85,197.12L270.17,197.02L270.79,198.75L272.67,198.79L275.43,203.27L278.72,203.55L278.96,202.26L276.74,197.27L278.3,194.79L279.76,194.95ZM297.78,196.91L298.27,203.25L297.62,206.12L296.33,206.82L293.54,206.83L292.74,204.22L294.08,202.38L289.68,203.5L290.16,201.72L291.54,200.25L290.36,198.2L293.28,195.85L295.57,195.85ZM290.2,200.09L288.38,201.81L286.65,198.93L289.61,198.22ZM304.75,206.7L304.74,208.86L302.81,209.17L300.18,207.4L299.68,206.24L301.18,203.41L303.26,202.97L304.4,204.6ZM260.89,212.46L263.85,211.52L265.14,212.11L267.96,215.44L268.07,216.5L262.19,220.84L261.44,222.64L260.15,223.46L259.41,227.26L255.07,229.26L253.74,226.35L250.8,223.87L252.1,221.38L252.35,218.61L254.09,214.55L252.59,211.01L258.25,209.88ZM305.37,212.17L306.96,213.32L308.86,213.1L310.08,213.95L307.13,220.45L305.08,220.18L303.92,224.46L301.98,224.47L301.89,221.86L301.39,220.29L301.25,214.98L302.35,212.9ZM293.93,213.48L295.34,214.77L297.98,213.83L298.95,215.16L297.62,217.4L298.87,221.11L299.6,225.51L296.17,228.33L295.33,227.99L292.94,223.79L291.05,222.9L289.39,220.28L290.72,218.72L291.67,220.49L293.12,220.34L293.46,218.36L291.51,216.55L292.4,214.33ZM316.39,229.84L317.97,229.11L319.4,229.41L319.55,226.6L318.63,226.36L317.52,224.69L318.48,222.31L317.97,220.33L319.02,217.11L322.97,214.78L325.07,215.35L326.96,220.5L325.84,223.47L327.23,223.45L328.55,222.48L330.29,222.65L330.18,221.31L331.18,220.61L332.95,220.78L335.48,222.24L335.95,224.07L337.95,226.12L341.42,227.2L342.84,229.36L343.22,231.23L344.25,230.69L345.56,231.1L346.91,232.32L348.58,234.74L348.62,236.27L347.32,236.11L346.65,236.96L349.57,238.11L347.93,239.51L347.45,241.77L349.13,242.8L350.48,244.45L352.03,244.53L353.33,245.1L354.2,247.14L355.82,247.63L355.45,248.53L356.92,249.04L357.61,248.56L358.73,250.13L357.79,251.54L357.57,252.69L356.45,254.31L355.27,254.7L355.21,256.41L353.95,256.61L353.1,256.21L351.86,253.81L352.02,252.8L350.06,251.68L349.54,250.53L348.67,251.58L348.88,252.7L347.08,253.09L348.68,254.95L349.42,256.51L350.49,257.45L351.25,257.46L352.08,258.33L352.52,260.73L353.07,260.66L353.35,263.54L352.42,263.54L352.09,265.56L350.9,264.52L350.17,264.42L347.78,262.85L346.69,261.81L345.99,261.89L347.28,263.88L348.05,264.17L350.39,267.06L350.32,268.61L348.45,267.6L346.88,267.3L345.7,266.69L344.92,265.46L343.77,265.39L342.06,264.36L340.86,262.92L340.44,261.87L338.4,259.14L336.61,258.18L335.68,259.01L332.91,259.84L331.12,259.36L330.48,258.38L330.61,257.12L331.69,256.23L331.9,255.07L334.41,255.98L338.2,254.7L336.74,252.26L339.08,249.8L339.49,248.51L340.45,247.54L338.59,243.06L336.38,241.05L335.93,239.78L333.44,241.12L333.18,239.65L334.2,239.55L334.47,238.19L332.23,236.6L329.13,232.03L328.51,232.52L329.41,234.03L329.28,235.02L328.06,235.43L325.58,234.46L323.84,235.69L322.24,234.89L320.96,235.09L316.84,234.2L316.33,232.93L314.19,233.67L312.61,232.32L311.74,229.55L313.96,230.15L314.24,228.82L312.22,228.4L310.94,227.33L310.64,224.89L311.24,223.76L310.91,222.36L311.91,218.65L312.85,216.71L314.5,214.82L316.09,214.15L318.86,214.31L316.32,219.79L316.8,223.95L317.31,225.85L319.01,228.06ZM328.19,215.23L330.29,215.16L332.1,216.14L333.63,218.58L333.45,220.07L331.04,219.64L328.26,220.44L327.53,219.83L327.11,217.75L326.04,216.84L326,214.83ZM285.08,219.51L283.59,217.29L282.35,216.26L282.86,214.98L284.7,214.56L286.15,215.47L286.26,217ZM269.62,221.35L271.33,220.78L272.58,219.13L275.07,220.67L276.85,220.97L277.18,219.14L279.37,221.87L280.19,225.96L281.7,225.19L281.05,223.8L280.14,218.44L281.01,217.15L283.08,217.92L284.87,220.25L285.17,222.34L286.65,227.64L286.28,229.36L287.31,231.11L289.33,232.32L291.32,234.25L292.3,234.77L292.37,236.3L291.18,236.38L290.19,235.68L289.84,237.44L290.63,237.77L290.82,239.58L289.09,240.52L288.13,240.58L285.53,239.31L283.65,238.93L282.78,237.62L281.48,239.68L279.93,240L278.96,240.81L277.26,241.41L275,241.81L271.95,242.03L271.14,240.45L271.01,238.78L268.55,238.45L266.29,237.69L265.3,235.87L265.24,234.42L269.5,233.37L272.77,233.8L273.65,232.7L270.9,231.47L267.16,232L264.49,231.78L263.35,230.47L264.11,229.08L266.76,228.03L263.48,227.63L262.34,226.3L262.22,224.7L263.44,223.18L263.17,221.68L264.55,220.01L269.43,216.89L270.22,217.49L270.31,219.84ZM336.28,316.83L335.49,317.08L333.34,319.05L332.74,320.05L329.56,320.06L328.81,320.42L329.03,321.95L327.01,322.94L325.28,323.3L323.34,324.5L322.92,324.5L322.16,323.82L322.27,323.09L323.16,322.35L323.39,321.33L323.84,320.18L323.15,316.02L321.41,314.89L321.37,314.17L320.76,314.25L320.4,313.12L319.78,313.35L319.26,312.27L315.35,309.92L313.39,308.78L311.59,309.55L310.52,309.25L309.43,309.28L309.27,309.04L308.14,309.4L305.66,308L305.02,307.99L304.47,308.22L302.94,307.67L302.55,306.23L302.05,306.07L302.03,307.04L296.64,307.03L291.65,307.03L288.08,307.03L283.79,307.03L280.94,307.03L278.08,307.03L273.8,307.03L268.8,307.03L265.23,307.03L260.95,307.03L255.78,307.03L255.34,307.03L254.86,305.84L253.99,305.78L253.51,304.98L252.94,304.93L251.72,303.19L249.72,303.05L249.74,302.32L248.63,302.16L247.54,301.4L247.65,300.52L247.36,300.19L247.22,298.7L246.45,298.68L246.87,296.76L246.3,296.71L245.96,295.68L244.9,295.27L244.44,295.66L243.14,294.33L243.63,293.17L242.98,292.34L243.89,290.18L243.55,288.81L243.66,288.04L242.91,287.02L241.07,285.9L240.58,285.31L238.22,280.85L237.31,279.31L235.43,277.41L235.25,276.46L234.54,275.75L233.12,276.37L232.69,277.86L231.25,278.67L230.99,277.62L228.33,274.77L228.5,273.9L227.5,273.95L227.01,274.44L225.28,274.05L225.28,266.91L225.28,260.39L225.28,254.63L225.28,247.29L225.28,236.61L228.33,237.26L230.1,238.98L232.46,240.21L233.87,240.08L234.18,238.23L235.1,237.49L237.21,237.29L238.41,237.65L238.95,236.61L240.47,236.11L242.87,234.21L244.29,234.92L243.11,236.58L246.41,235.11L247.45,233.82L248.5,233.73L249.38,236.22L250.56,237.72L252.47,234.96L253.52,236.6L253.04,237.91L254.4,237.92L255.38,235.84L256.98,235.81L258.84,236.56L259.96,237.71L262.34,238.49L263.64,239.49L267.04,240.37L267.76,239.82L269.45,240.87L270.55,242.46L269.21,243.05L268.11,244.61L268.6,245.07L270.67,245.56L273.11,245.66L275.53,245.19L277.12,244.37L277.81,245.45L278.73,245.55L280.56,247.53L279.78,248.37L281.95,249.14L280.59,245.45L280.94,244.12L282.49,243.69L282.87,242.65L281.18,242.77L280.1,243.59L279.39,243.02L280.01,241.5L281.48,241.14L283.61,240.07L284.66,241L284.85,242.19L286.91,244.13L288.12,243.75L289.43,245.1L291.33,245.63L293.17,244.98L295.36,245.49L296.58,245.04L298.2,245.96L298.61,244.91L296.55,243.97L296.92,242.84L298.51,242.22L299,243.11L300.57,243.56L300.01,246.24L301,247.81L301.87,247.51L301.22,245.43L301.53,244.17L302.73,243.94L304.56,241.81L304.51,240.22L303.41,237.45L300.55,235.74L299.81,234.3L300.25,232.23L299.71,230.87L299.95,228.48L301.97,225.14L303.46,225.88L305.23,227.5L305.74,228.54L305.69,230.65L306.68,231.68L308.06,234.04L306.07,236.3L307.48,237.18L309.75,237.31L309.3,238.33L309.89,240.33L309.72,242.12L310.88,241.9L311.24,239.62L312.26,238.44L313.96,240.57L314.34,242.44L313.44,242.97L313.7,245.3L315.25,247.85L316.48,246.4L317.45,243.94L317.82,241.41L318.59,240.9L319.28,239.35L318.4,238.6L318.2,235.67L320.32,235.72L321.28,236.37L323.04,236.41L323,237.53L325.2,239.13L325.27,241.28L323.15,242.25L324.11,244.88L325.29,246.65L324.96,248.34L323.74,249.64L321.72,251.3L319.92,252.1L318.04,250.47L316.31,250.63L316.4,251.51L317.3,252.75L315.21,255.46L314.08,255.48L311.1,253.1L310.48,253.32L312.4,255.49L315.65,256.09L315.23,257.56L313.85,260.06L312.93,260.73L310.76,260.46L310.65,261.51L308.45,262.63L309.43,263.21L309.22,264.72L308.25,265.24L306.72,265.18L304.95,269.19L304.13,269.98L303.87,271.18L302.9,273.65L302.66,275.21L302.79,278.67L303.5,279.27L305.19,279.14L306.59,283.83L306.91,284.65L308.82,283.93L309.69,283.98L311.03,284.73L312.44,285.13L313.9,286.3L314.76,287.54L317.66,288.73L318.95,289.83L320.87,289.74L323.11,290.23L323.7,291.21L323.37,292.53L323.84,294.07L323.64,296.47L324.74,297.93L324.64,298.31L326.32,299.77L326.8,300.92L327.69,301.34L328.26,300.28L329.13,299.84L329.95,298.43L329.56,297.39L328.91,294.35L329.1,293.54L328.69,293.27L327.98,291.55L329.25,291.01L330.95,289.97L332.17,288.71L333.03,287.39L333.25,285.57L333.16,284.12L332.63,282.32L332.18,281.5L329.91,279.38L330.05,278.67L331.17,277.11L331.23,276.13L331.89,275.73L331.92,274.91L330.98,272.39L331.21,270.13L330.54,267.76L330.66,266.87L331.82,266.08L334.42,267.01L336.31,267.49L338.09,266.51L340.68,269.11L341.78,271.1L343.7,271.42L344.77,272.72L344.49,275.24L345.17,277.25L344.95,278.78L346.34,278.66L346.97,279.66L348.23,280.88L349.84,279.81L351.52,277.99L352.65,274.21L353.37,274.15L354.33,276.24L354.98,277.27L355.57,278.82L356.56,280.05L356.43,280.55L357.05,281.65L357.73,282L357.81,283.5L358.67,284.64L358.37,286.54L359.08,288.11L359.51,287.84L361.02,289.9L362.59,290.23L362.95,291.14L363.93,291.06L365.25,291.91L364.76,292.44L364,292.55L363.2,293.41L361.75,294.02L361.2,294.02L361.19,294.95L362.04,294.56L362.72,293.9L363.71,293.4L363.93,292.9L365.23,293.08L365.68,293.98L365.11,294.59L365.37,295.05L366.2,294.29L366.83,294.22L367.42,294.72L367.94,295.77L367.88,298.27L368.11,298.74L365.97,300.58L364.64,300.67L363.4,301.02L362.3,302.39L360.77,303.77L358.75,303.91L358.02,304.16L357.69,303.83L356.36,303.65L355.48,303.8L354.66,303.64L352.76,303.72L352.09,303.6L350.65,303.91L350.03,303.88L349.28,304.45L348.56,306.12L347.04,306.51L345.96,307.45L345.21,308.57L344.54,309.3L344.32,309.96L342.98,311.68L342.04,312.52L341.02,312.79L339.68,313.76L339.17,313.95L338.34,315.08L337.4,315.65L337.51,316.02ZM298.22,236.65L300.13,238.07L301.16,240.92L299.96,242.14L298.17,241.8L295.18,240.33L294.66,239.53L296.52,238.12L296.83,236.11ZM328.37,235.95L327.15,237.16L326.33,236.13ZM328.74,240.41L329.77,237.95L330.39,238.26ZM334.66,242.81L335.53,243.21L335.58,246.31L334.49,247.42L332.44,247.49L331.93,245.57L332.88,243.22ZM338.1,245.23L336.51,245.03L336.83,243.84L338.41,244.4ZM319.18,255.84L319.7,255.09L320.58,256.01L321.72,256.46L322.95,257.74L323.99,258.28L324.43,259.13L324.55,260.68L326.03,260.42L326.91,261.67L325.67,262.8L323.44,261.88L323.29,261.05L321.57,260.39L321.18,261.48L320.21,262.34L319.66,263.37L318.22,264.01L317.85,262.06L315.38,262.01L315.89,261.06L316.95,260.24L316.75,258.58L317.44,254.05L318.65,253.68L318.65,254.84ZM330.98,262.77L331.54,263.46L330.87,264.1L329.98,263.19ZM324.07,264.69L323.88,265.79L322.37,267.39L321.23,267.57L320.89,266.43L321.77,264.87ZM328.18,266.67L328.55,268.05L327.97,269.41L326.98,268.79L327.38,266.91ZM329.2,286.91L328.8,288.05L327.81,288.29L327.42,287.91L328.1,286.98ZM239.26,293.19L240.85,293.59L240.34,295.62L239.49,295.82L239.1,295.5L238.59,294.18L238.57,293.14ZM246.13,296.53L246.2,297.7L245.24,296.86L245.32,295.58ZM240.77,295.82L240.97,296.58L240.67,297.63L239.92,296.62L239.78,295.98ZM326.2,297.06L324.34,296.48L324.33,295.84L325.52,295.79Z" class="land" id="CA" title="Canada"/>
    <path d="M321.32,383L321.65,383.77L322.77,385.13L323.13,385.28L322.5,385.5L322.54,386.7L322.4,387.33L322.6,387.83L322.19,387.36L322.13,386.96L321.17,386.91L321.33,386.2L320.9,385.79L319.62,385.16L319.53,384.73L318.86,385.27L318.52,384.88L318,384.73L317.72,384.34L317.66,383.89L317.93,383.3L317.8,382.75L318.01,382.55L319.2,382.95L319.55,382.77L320.14,382.9L320.44,383.24L321.04,383.3Z" class="land" id="CR" title="Costa Rica"/>
    <path d="M324.34,361.51L325.45,361.7L326.33,361.62L326.81,361.91L327.29,361.91L327.96,362.27L328.63,362.88L329.62,362.95L330.53,363.42L330.99,363.8L331.61,363.85L333.03,364.91L333.99,365.18L334.58,365.22L334.72,365.89L335.99,366.04L336.61,366.52L337.19,366.68L337.04,367.06L336.4,367.1L335.6,367.38L334.87,367.4L333.85,367.22L332.44,367.4L331.25,367.46L331.52,367.06L332.09,366.67L332.06,366.05L330.77,365.93L329.95,365.32L329.7,364.49L329.39,364.3L328.63,364.41L327.03,363.85L326.58,363.5L325.81,363.52L325.01,363.29L324.38,363.26L324.48,362.77L324.23,362.39L322.84,362.37L321.76,363.21L320.89,363.31L320.67,363.72L320.18,363.48L320.12,362.93L320.65,362.41L321.97,361.86L322.96,361.73L323.9,361.46ZM323.13,364.39L322.64,364.62L322.26,363.99L322.88,363.82Z" class="land" id="CU" title="Cuba"/>
    <path d="M346.25,381.05L346.17,381.07L345.85,380.91L345.58,380.64L345.71,380.57L345.82,380.76L346.13,380.88Z" class="land" id="CW" title="Curaçao"/>
    <path d="M325.13,368.36L325.53,368.37L325.24,368.5Z" class="land" id="KY" title="Cayman Islands"/>
    <path d="M358.76,375.55L358.43,375.07L358.7,374.97Z" class="land" id="DM" title="Dominica"/>
    <path d="M341.2,370.68L341.21,370.14L340.81,369.69L341.24,369.45L341.14,369L341.39,368.75L341.18,367.71L341.56,367.39L342.57,367.36L343.95,367.85L344.24,367.79L344.6,368.45L345.3,368.62L346.37,369.15L346.91,369.8L346.41,370.36L345.95,370.03L344.55,369.96L343.86,370.3L343.36,370.36L343.08,370.15L342.44,370.27L341.83,371.37L341.43,371.15Z" class="land" id="DO" title="Dominican Republic"/>
    <path d="M358.68,373.85L358.36,373.85L358.35,373.49L358.55,373.43Z" class="land" id="GP" title="Guadeloupe"/>
    <path d="M358.03,381.13L358.04,380.84L358.22,380.77L358.18,381.06Z" class="land" id="GD" title="Grenada"/>
    <path d="M418.78,230.3L418.83,231.67L417.47,232.66L416.82,232.17L414.66,232.66L414.97,230.42L416.2,230.6L418.14,229.67ZM431.23,204.21L431.92,206.93L430.1,206.88L429.79,204.8ZM411.21,125.25L417.92,129.27L420.39,135.01L425.33,138.74L419.26,146.17L425.64,145.36L425.96,149.79L427.85,151.29L432.52,152.81L435.32,148.17L440.95,150.32L442.06,152.88L437.08,160.03L433.3,161.99L434.69,163.79L433.12,165.75L428.83,165.16L427.65,169.56L429.08,170.69L429.43,175.53L426.28,180.7L424.95,186.95L426.44,185.99L427.49,190.24L430.66,191.4L430.37,194.66L427.77,193.56L426.3,193.86L424.74,196.15L425.25,198.14L427.71,198.67L428.7,201.86L428.84,205.38L427.07,204.83L426.36,205.86L427.9,207.05L429.18,210.19L428.94,211.41L424.08,212.97L427.26,214.07L427.03,216.18L425.29,216.54L424.22,217.49L421.35,216.74L424.47,219.51L424.04,223.97L421.07,221.88L420.07,222.22L424.51,226.29L424.95,227.41L425.33,232.3L424.62,232.72L422.31,232.68L421.53,232.16L420.55,229.14L418.03,226.91L418.26,228.95L416.63,230.15L415.01,229.93L413.58,232.55L414.46,232.92L416.58,232.56L417.14,233.82L418.62,233.17L422.57,234.35L422.71,235.48L421.67,236.72L417.02,241.2L412.39,242.92L411.36,242.86L409.5,243.99L407.56,242.53L407.33,244.61L405.85,245.92L404.27,249.81L403.38,251.03L400.45,253.53L398.15,254.5L396.68,254.37L394.46,254.65L395.1,255.52L393.3,257.21L394.09,258.92L393.36,260.26L393.47,261.81L392.64,262.61L392.54,263.5L390.79,266.1L390.51,267.6L390.86,268.65L390.34,269.78L389.84,272.45L389.11,273.93L388.83,275.3L387.59,275.31L385.39,274.37L385.03,273.3L384.27,272.97L384.33,271.32L382.88,272.29L381.34,272.24L379.45,270.69L378.84,269.6L378.4,267.31L377.12,266.44L377.08,265.15L376.41,264.33L375.19,262.12L375.22,261.13L374.71,259.69L374.14,259.17L373.87,256.26L373.03,254.51L372.29,254.5L372.45,252.93L371.6,252.2L371.56,251.12L372.56,249.38L371.15,248.06L371.93,246.15L371.66,244.99L372.37,243.33L372.56,241.5L373.79,241.08L374.67,241.78L375.56,240.9L375.85,238.71L376.81,235.23L373.87,234.62L372.59,233.42L370.93,232.83L370.11,231.64L370.68,230.82L372.96,231.17L375.1,232.74L375.76,230.04L372.43,228.27L373.05,227.28L371.83,226.55L369.8,227.99L368.28,227.01L368.75,224.02L368.27,222.13L369.63,221.08L369.72,219.78L368.16,219L368.78,217.53L367.43,215.8L367.72,213.79L366.42,211.81L366.26,208.99L363.24,204.36L363.39,202.32L358.6,198.94L355.15,197.82L349.48,200.41L347.26,199.73L345.21,197.87L345.42,195.33L342.84,193.99L343.15,191.57L345.87,191.56L347.29,190.15L350.1,190.05L349.7,187.81L347.55,189.08L345.25,189.48L341.4,186.08L339.45,183.7L340.15,181.13L345.85,178.12L348.38,175.84L350.91,175.71L351.83,173.84L352.88,167.68L349.45,166.94L349.19,163.61L353.35,157.53L355.89,155.29L358.5,156.09L358.89,149.19L363.05,145.06L369.74,141.86L373,142.24L376.15,147.44L378.16,146.52L375.99,140.49L379.56,141.18L385.53,148.22L386.8,147.98L387.3,141.65L383.55,134L389.04,129.77L392.22,131.94L393.8,128.66L398.03,126.42L406.14,124.73ZM373.08,235.18L374.23,235.85L374.11,237.38L371.66,238.49L371.32,237.3L369.72,236.8L369.56,234.12L370.33,233.35L372,233.82Z" class="land" id="GL" title="Greenland"/>
    <path d="M312.08,371.07L311.95,374.43L312.53,374.44L313.64,374.72L312.39,375.74L311.98,376.22L312.06,376.67L311.74,377L310.89,377.64L310.52,378.17L309.66,377.84L308.76,377.84L307.63,377.32L306.93,376.77L307.2,375.86L307.02,375.43L307.77,374.13L309.93,374.12L309.98,373.57L309.49,373.01L308.32,372.05L309.01,372.06L309.02,371.07Z" class="land" id="GT" title="Guatemala"/>
    <path d="M322.13,376L321.7,375.97L320.53,376.45L319.82,376.62L319.28,376.32L318.78,376.81L318.75,377.12L317.73,377.98L317.12,377.72L316.82,378.11L316.15,378.12L316.18,378.9L315.6,379.45L315.14,379.47L314.88,378.83L314.34,378.75L314.5,378.04L313.77,377.74L313.27,377.97L312.26,377.15L311.74,377L312.06,376.67L311.98,376.22L312.39,375.74L313.64,374.72L314.67,374.41L315.86,374.66L316.78,374.63L317.74,374.24L318.24,374.42L319.09,374.27L320.29,374.56L321.12,375.6L321.78,375.57Z" class="land" id="HN" title="Honduras"/>
    <path d="M341.18,367.71L341.39,368.75L341.14,369L341.24,369.45L340.81,369.69L341.21,370.14L341.2,370.68L340.71,370.34L339.35,370.48L338.5,370.3L337.89,370.41L337.66,370.67L336.76,370.14L337.09,369.58L338.15,369.83L339.49,369.98L340.23,369.56L339.46,368.85L339.64,368.2L339.05,367.9L338.94,367.38L339.75,367.38L340.45,367.66Z" class="land" id="HT" title="Haiti"/>
    <path d="M332.01,369.94L332.6,370.06L333.53,370.48L333.76,370.9L333.24,370.98L332.69,370.79L331.84,371.04L331.16,370.96L330.41,369.96L330.98,369.83Z" class="land" id="JM" title="Jamaica"/>
    <path d="M356.5,372.08L356.15,371.91L356.23,371.8L356.36,371.88Z" class="land" id="KN" title="Saint Kitts and Nevis"/>
    <path d="M359.41,378.02L359.13,377.86L359.42,377.7Z" class="land" id="LC" title="Saint Lucia"/>
    <path d="M355.86,370.63L355.68,370.63L355.78,370.54Z" class="land" id="MF" title="Saint Martin"/>
    <path d="M298.71,356.36L298.58,357.06L298.11,358.11L297.84,359.26L297.67,361.25L297.71,361.91L297.52,362.49L297.89,364.33L298.75,366.11L299.87,367.44L300.15,368.37L300.66,368.88L300.93,369.41L302,369.51L302.64,369.84L303.07,370.44L303.66,370.4L304.73,369.99L305.85,369.92L306.14,369.67L307.37,369.48L307.66,369.92L308.11,369.94L308.54,369.64L308.43,369.16L309.44,368.36L309.52,367.69L309.83,367.36L309.87,366.21L310.09,365.4L310.98,364.92L312.55,364.67L313.81,364.31L315.28,364.61L315.49,364.3L315.99,364.66L316.08,365.15L315.93,365.62L315.33,366.3L314.92,367.02L314.99,367.95L314.42,369.96L314.27,370.27L313.7,369.48L313.53,369.91L313.15,369.96L312.68,370.81L312.27,370.75L312.08,371.07L309.02,371.07L309.01,372.06L308.32,372.05L309.49,373.01L309.98,373.57L309.93,374.12L307.77,374.13L307.02,375.43L307.2,375.86L306.93,376.77L305.97,375.75L304.12,374.15L303.35,373.75L302.87,373.9L302.47,373.52L301.53,374.29L300.27,374.78L299.78,374.85L298.65,374.41L297.69,374.31L297.05,373.89L296.41,373.72L296.01,373.32L294.45,372.99L293.89,372.64L292.51,372.15L291.25,371.36L290.84,370.88L289.41,370.64L288.17,370.17L287.38,369.28L285.67,368.43L284.76,367.25L284.44,366.52L285.13,366.17L284.74,365.82L285.17,365.2L285.21,364.54L284.84,364.31L284.48,363.64L284.48,363.03L284.24,362.48L283.21,361.45L282.32,360.2L281.33,359.32L281.36,359.08L280.62,358.85L279.91,357.78L279.28,357.35L278.82,357.25L278.22,356.79L278.15,356.22L278.53,355.71L278.06,354.96L277.6,354.97L277.28,354.26L276.39,353.81L276.16,353.18L276.3,352.78L275.31,352.59L274.73,351.8L274.38,351.63L273.57,350.58L273.47,350.1L272.61,348.73L272.46,348.12L271.98,347.16L272.09,346.4L271.12,346.08L270.58,345.52L270.24,345.76L269.09,345.19L269.02,346.45L269.43,347.72L269.41,348.24L269.87,349.02L270.78,349.78L271.33,350.76L271.82,351.01L272.01,351.55L272.38,351.72L272.61,352.86L273.29,353.43L273.83,354.48L274.56,354.96L274.96,356.05L275.03,356.68L275.46,357.16L276.06,358.53L275.96,358.9L276.28,359.59L277.15,359.66L278.16,360.93L278.1,361.41L277.32,362.01L277.05,361.8L276.58,360.7L276.14,360.46L275.46,359.79L274.81,359.37L273.72,358.43L273.63,358.06L273.75,357.24L273.55,356.45L273.21,355.89L272.13,355.2L271.82,354.68L271.17,354.94L270.76,354.48L269.75,354L269.59,353.6L268.83,353.03L269.99,352.77L270.41,351.72L270.25,351.37L268.83,349.88L267.69,349.17L267.45,348.11L267.15,347.89L267.04,347.14L266.65,346.81L266.59,346.36L266.04,345.65L266.11,345.08L265.73,344.8L265.26,343.73L269.28,343.37L269.09,343.78L273.06,345.25L275.45,346.12L277.22,346.12L280.18,346.11L280.18,345.23L283.13,345.24L283.46,345.69L285.1,347.13L285.6,347.44L286.1,348.44L286.39,349.32L287.05,349.88L288.48,350.62L289.09,350.21L289.36,349.38L290.14,348.95L291.52,349.13L292.83,350.49L293.44,351.9L294.35,353.04L294.76,353.38L294.87,354.34L295.43,355.45L297.14,356.16L297.62,356.21L298.36,356.53Z" class="land" id="MX" title="Mexico"/>
    <path d="M357.31,372.96L357.3,373.06L357.19,373.03L357.18,372.94Z" class="land" id="MS" title="Montserrat"/>
    <path d="M359.52,376.86L359.13,376.91L358.86,376.32L359.37,376.44Z" class="land" id="MQ" title="Martinique"/>
    <path d="M322.13,376L321.9,376.42L322.08,377.13L321.71,377.72L321.45,378.89L321.54,380.45L321.11,381.27L321.31,381.76L320.94,382.35L321.32,383L321.04,383.3L320.44,383.24L320.14,382.9L319.55,382.77L319.2,382.95L318.01,382.55L317.8,382.75L317.44,382.29L316.59,381.6L316.11,380.88L314.58,379.6L315.14,379.47L315.6,379.45L316.18,378.9L316.15,378.12L316.82,378.11L317.12,377.72L317.73,377.98L318.75,377.12L318.78,376.81L319.28,376.32L319.82,376.62L320.53,376.45L321.7,375.97Z" class="land" id="NI" title="Nicaragua"/>
    <path d="M322.6,387.83L322.4,387.33L322.54,386.7L322.5,385.5L323.13,385.28L323.45,385.53L323.66,386.21L324.44,386.33L325.15,386.63L326.02,386.45L326.5,386.12L327.21,385.9L328.13,385.25L329.92,385.57L330.63,385.86L331.82,386.84L331.76,387.23L332.09,387.9L331.86,388.45L331.2,388.74L330.93,389.26L330.48,388.72L330.06,387.85L330.58,387.31L329.98,387.2L329.91,386.89L328.95,386.27L328.36,386.25L327.94,386.51L327.84,386.95L327.21,387.36L326.8,387.47L326.65,387.82L327.29,388.52L326.69,389.18L326,389.27L325.69,388.44L325.3,388.59L324.9,388.43L324.53,387.72L322.93,387.41Z" class="land" id="PA" title="Panama"/>
    <path d="M350.64,369.96L351.48,370.07L351.5,370.32L350.91,370.79L350.18,370.83L348.86,370.76L348.92,369.87Z" class="land" id="PR" title="Puerto Rico"/>
    <path d="M311.74,377L312.26,377.15L313.27,377.97L313.77,377.74L314.5,378.04L314.34,378.75L314.14,379.13L313.17,379.12L311.89,378.61L311.01,378.47L310.52,378.17L310.89,377.64Z" class="land" id="SV" title="El Salvador"/>
    <path d="M367.16,312.42L366.96,311.85L367.12,311.85L367.08,312.13Z" class="land" id="PM" title="Saint Pierre and Miquelon"/>
    <path d="M355.68,370.63L355.86,370.63L355.85,370.71Z" class="land" id="SX" title="Sint Maarten"/>
    <path d="M341.38,364.04L341.1,364L341.14,363.88L341.37,363.92Z" class="land" id="TC" title="Turks and Caicos Islands"/>
    <path d="M359.21,384.33L358.94,384.43L358.4,384.11L358.45,383.65L358.24,383.29L359.18,383.42Z" class="land" id="TT" title="Trinidad and Tobago"/>
    <path d="M235.87,281.05L236.61,281.1L237.02,282.26L237.13,283.64L236.28,284.5L236.19,283.18L235.9,282.7ZM234.11,280.78L235.33,281.4L235.19,283.09L234.5,282.62L233.53,282.58L232.71,281.65L232.8,281.26ZM205.37,282.11L206.01,282.03L206.18,283.27L205.56,283.27L205.11,283.94L203.87,284.71L202.95,284.92L202.34,283.64L203.05,282.7L203.83,282.83ZM235.38,283.59L235.97,285.54L235.95,286.8L234.78,285.22L235,284.59L234.02,283.7L234.75,283.03ZM238.07,284.66L238.76,285.04L238.33,286.31L237.67,286.31L237.23,284.46ZM237.02,285.15L237.25,285.95L236.68,286.46L236.38,285.17ZM240.17,287.38L239.25,287.47L239.72,286.21ZM237.73,286.69L238.34,286.75L239.64,288.64L239.66,289.25L240.4,290.05L240.39,291.23L239.05,290.52L237.93,288.32L238.28,287.95ZM242.07,289.23L241.89,289.88L240.67,290.01L240.98,288.21L241.58,287.84ZM187.66,290.72L187.85,291.43L186.66,291.77L185.79,292.39L185.29,291.81L185.89,291.01L187,290.55ZM182.4,293.83L182.69,294.54L182.14,295.03L181.53,294.89L181.79,293.66ZM305.02,307.99L305.66,308L308.14,309.4L309.27,309.04L309.43,309.28L310.52,309.25L311.59,309.55L313.39,308.78L315.35,309.92L319.26,312.27L319.78,313.35L320.4,313.12L320.76,314.25L321.37,314.17L321.41,314.89L323.15,316.02L323.84,320.18L323.39,321.33L323.16,322.35L322.27,323.09L322.16,323.82L322.92,324.5L323.34,324.5L325.28,323.3L327.01,322.94L329.03,321.95L328.81,320.42L329.56,320.06L332.74,320.05L333.34,319.05L335.49,317.08L336.28,316.83L339.53,316.83L341.62,316.82L341.94,316.15L342.66,316.22L343.67,314.68L343.75,313.85L344.15,312.73L345.43,310.88L346.12,311.52L346.99,311.15L347.84,311.82L347.87,315.17L348.46,315.41L348.4,316.19L348.98,316.44L349.01,317.11L347.67,318.13L347.05,318L346.49,318.46L345.9,318.17L345.72,318.96L344.51,319.64L343.86,319.73L343.29,320.7L342.78,321.9L342.93,322.25L342.41,323.02L342.93,323.25L343.49,324.61L343.06,324.81L341.78,324.59L341.61,325.16L339.4,325.41L338.16,325.96L337.09,326.87L337.54,327.49L337.17,328.8L336.75,329.54L335.96,330.06L335.2,329.64L335.14,330.17L335.73,331.44L334.79,333.3L334.69,332.61L333.76,331.75L333.84,330.69L333.25,330.59L333.28,331.38L333.68,332.74L333.68,333.88L333.45,334.18L334.12,334.81L334.3,335.34L333.87,336.13L333.32,336.65L334.5,336.91L334.5,337.44L333.83,338.04L333.26,338.21L332.87,338.88L332.89,339.36L332.22,339.36L331.19,340.22L330.75,340.97L329.8,341.05L329.23,341.48L328.63,342.53L327.38,343.56L327.04,343.65L326,344.56L325.42,345.37L325.45,345.71L324.87,347L325.33,349.1L325.91,350.52L326.54,351.6L326.33,352.18L327.04,354.02L327.21,354.26L327.35,355.22L327.21,356.59L326.81,357.53L326.19,357.85L325.58,357.55L325.14,356.6L324.55,356.32L324.3,355.47L323.33,354.3L322.97,353.06L322.66,352.82L322.97,351.6L322.98,350.84L321.91,349.75L321.24,348.84L320.65,348.5L320.08,348.88L318.51,349.31L318.46,348.94L317.78,348.37L317.08,348.05L316.94,347.74L315.72,347.86L314.38,348.13L313.8,347.99L312.51,347.89L311.81,348.03L311.37,348.38L310.3,347.96L309.99,348.42L311.36,348.86L311.14,349.43L311.49,349.81L312.33,350.23L311.76,350.49L310.88,349.74L310.51,350.27L310.04,350.05L309.42,350.37L308.52,350.07L308.45,349.63L307.51,349.01L306.89,349.55L306.2,349.47L305.36,349.12L304.49,349.14L303.81,349.33L302.49,349.91L301.85,350.69L300.6,351.41L299.88,351.4L299.69,351.83L298.7,352.25L298.67,352.75L298.32,353.62L298.08,353.82L298.03,354.47L298.28,355.54L298.71,356.36L298.36,356.53L297.62,356.21L297.14,356.16L295.43,355.45L294.87,354.34L294.76,353.38L294.35,353.04L293.44,351.9L292.83,350.49L291.52,349.13L290.14,348.95L289.36,349.38L289.09,350.21L288.48,350.62L287.05,349.88L286.39,349.32L286.1,348.44L285.6,347.44L285.1,347.13L283.46,345.69L283.13,345.24L280.18,345.23L280.18,346.11L277.22,346.12L275.45,346.12L273.06,345.25L269.09,343.78L269.28,343.37L265.26,343.73L264.94,342.61L264.69,342.21L263.66,341.36L263.11,341.31L262.95,340.76L261.88,340.57L261.11,339.95L259.64,339.84L259.37,339.62L259.39,338.61L259.01,338.02L257.3,336.02L257.45,335.19L257.3,334.75L256.82,334.64L256.44,334.19L256.32,332.86L255.48,332.31L255.45,331.93L254.25,330.58L253.94,328.51L253.21,327.65L253.13,327.13L253.53,326.07L253.64,325.15L253.16,323.49L253.07,322.45L252.85,321.92L253.5,319.91L253.65,317.37L253.87,315.47L253.84,314.11L253.63,313.78L253.94,312.85L253.63,312.65L253.12,310.39L252.71,309.78L252.69,308.6L253.79,309.12L255.66,309.32L256,309.84L256.69,309.52L255.78,307.03L260.95,307.03L265.23,307.03L268.8,307.03L273.8,307.03L278.08,307.03L280.94,307.03L283.79,307.03L288.08,307.03L291.65,307.03L296.64,307.03L302.03,307.04L302.05,306.07L302.55,306.23L302.94,307.67L304.47,308.22ZM339.96,326.03L338.82,326.77L337.86,326.9L337.67,326.47L338.18,326.18ZM194.53,363.74L193.83,363.54L194.18,363.21L194.56,363.22ZM197.16,364.6L196.64,364.85L196.37,364.37L196.89,364.16ZM199.36,365.54L199.71,365.5L199.99,366.05L199.44,366.1ZM200.87,368.96L200.37,368.86L200.36,368.3L200.09,367.65L200.47,367.18L200.45,366.71L201.51,367.21L202.18,368.05L201.76,368.41L201.33,368.52ZM225.28,236.61L225.28,247.29L225.28,254.63L225.28,260.39L225.28,266.91L225.28,274.05L227.01,274.44L227.5,273.95L228.5,273.9L228.33,274.77L230.99,277.62L231.25,278.67L232.69,277.86L233.12,276.37L234.54,275.75L235.25,276.46L235.43,277.41L237.31,279.31L238.22,280.85L240.58,285.31L241.07,285.9L242.91,287.02L243.66,288.04L243.47,288.95L243.64,289.79L243.35,290.59L242.74,291.34L242.28,291.23L241.95,290.2L242.27,289.62L242.17,288.5L241.55,287.67L239.98,288.54L240.62,287.23L238.99,284.55L237.9,284.15L237.75,282.52L236.9,280.89L235.71,280.12L234.83,280.75L233.89,279.72L233.44,280.45L232.68,280.78L231.07,279.71L229.72,278.07L227.3,276.56L226.6,275.97L225.55,275.89L224.17,275.16L222.03,274.73L220.59,275.01L218.76,273.93L217.09,273.44L215.45,271.64L214.29,271.67L212.99,272.16L213.24,274.49L212.85,275.09L211.17,275.05L209.89,276.5L209.24,276.5L208.61,277.56L207.31,277.74L207.12,277.03L207.31,275.09L207.79,274.37L208.01,272.54L209.48,271.57L209.19,270.61L207.32,271.96L207.29,272.5L205.78,274.26L205.6,275.32L205.02,275.47L203.37,277.17L203.3,277.96L204.65,278.73L203.49,279.99L203.11,281.05L201.84,281.51L200.54,282.92L199.37,283.66L199.38,284.35L197.53,285.79L196.13,286.4L196.36,287.12L195.5,287.75L193.4,288.42L192.7,289.03L191.63,289.48L190.56,289.52L189.57,290.52L187.89,291.03L189.86,288.55L191.44,287.65L192.05,288.39L192.47,288.08L192.97,286.76L194.68,285.63L196.29,283.76L197.48,282.81L197.62,280.22L198.54,279.21L198.26,278.75L196.79,279.52L195.98,278.84L195.01,280.06L194.03,278.64L192.87,278.19L191.2,279.42L190.54,279.61L190.48,278.3L190.09,277.43L190.41,276.42L189.72,274.46L189.17,275.09L188.09,275.57L186.93,275.7L185.67,274.03L184.51,273.23L185.43,272.03L184.16,271.3L183.3,268.84L184.08,268.61L183.92,267.79L184.78,266.44L186.09,263.72L186.6,263.55L187.85,264.35L190.17,262.83L191.63,262.44L192.17,261.45L191.82,259.8L191.92,258.53L191.49,257.18L190.53,257.6L188.78,259.33L187.26,258.5L185.27,258.99L183.19,258.52L182.73,257.17L182.04,256.5L182.32,255.53L181.08,255.19L179.93,254.24L181.63,253.34L182.18,252.63L185.65,250.53L187.15,250.63L186.72,251.95L187.29,252.49L190.43,252.62L190.87,251.8L193.09,251.09L192.03,250.04L191.14,250.54L190.37,249.91L190.19,248.43L188.45,248.52L187.25,247.8L186.57,246.01L184.46,244.06L183.5,243.56L182.79,242.35L183.08,240.23L186.27,239.99L188.18,237.87L188.53,236.09L190.33,233.27L191.81,233.41L194.62,230.52L196.83,230.69L198.86,228.24L201.57,229.38L203.19,230.91L204.81,230.24L206.48,230.87L206.96,232.68L208.17,232.84L211.44,232.43L214.06,233.84L217.21,234.13L218.26,234.87L221.57,234.34L224.6,236.59ZM178.62,263.87L178.65,263.89L178.62,263.89L178.62,263.87ZM781.38,263.89L779.86,264.17L777.03,262.13L777.03,262.13L778.76,261.91L779.46,262.69L781.38,263.87L781.38,263.89ZM206.17,280.41L206.69,281.05L205.23,281.57L204.56,281.28L205.74,280.13ZM183.2,273.76L183.88,274L184.11,275.35L183.12,275.81L181.52,275.03L182.63,273.77Z" class="land" id="US" title="United States"/>
    <path d="M358.94,379.17L358.77,379.08L358.93,378.82L359.02,378.93Z" class="land" id="VC" title="Saint Vincent and the Grenadines"/>
    <path d="M353.55,369.93L353.5,369.84L353.67,369.83Z" class="land" id="VG" title="British Virgin Islands"/>
    <path d="M352.93,371.11L353.06,371.26L352.72,371.27L352.73,371.15Z" class="land" id="VI" title="US Virgin Islands"/>
    <path d="M347.17,380.9L347.03,380.86L346.89,380.71L346.89,380.64L347.14,380.76Z" class="land" id="BQ" title="Bonair, Saint Eustachius and Saba"/>
  </g>
</svg>