<?xml version="1.0" encoding="UTF-8"?>
<svg xmlns="http://www.w3.org/2000/svg" width="193.82" height="328.02" viewBox="383.09 92.99 193.82 328.02" style="background-color:#000000">
  <!-- Created using SVG Map Generator: dojo.amcharts.com/svg-map-generator -->
  <style>
    .land { fill: #ffffff; stroke: #000000; stroke-width: 0.65; }
  </style>
  <g id="polygons">
    <path d="M461.32,238.95L464.77,243.12L467.88,245.65L472.5,247.15L474.61,248.75L480.9,251.81L481.85,253.01L479.36,257.41L479.4,258.54L477.67,260.82L479.5,261.47L486.52,262.75L487.63,261.69L489.45,262.11L490.62,260.26L493.34,258.1L493.91,253.78L496.85,254.2L497.74,256.71L497.06,260.77L493.04,262.74L491.94,264.18L489.41,265.73L484.49,272.18L481.77,274.95L479.41,283.17L479.36,285.8L477.96,291.57L479.03,296.57L483,299.06L483.16,303.84L485.46,305.26L485.57,307.4L482.63,311.96L482.02,313.71L479.45,315.52L472.76,317.61L467.56,318.42L463.68,318.03L462.79,323.16L462.35,328.46L460.07,329.63L456.76,329.85L452.38,328.05L451.25,328.4L451.55,334.3L454.14,336.84L457.48,336.69L457.09,338.88L455.31,339.19L450.64,343.47L450.32,348.26L449.2,351.28L446.96,351.04L443.91,352.72L441.42,356.85L441.39,359.05L444.58,362.96L447.74,363.48L448.79,364.98L448.5,368.57L443.54,372.75L440.9,376.57L440.5,380.4L435.81,383.72L434.61,387.35L435.43,391.8L437.82,396.54L431.67,394.24L423.73,394.12L421.74,391.18L422.28,387.09L421.33,385.15L418.72,385.99L417,378.67L420.9,373.77L421.96,371.15L421.29,368.17L423.78,364.12L424.63,360.42L424.32,355.42L426.02,352.57L425.03,351.12L426.59,348.05L424.12,347.72L424.69,345.16L422.8,339.9L422.89,336.09L424.37,335.01L423.75,332.56L423.67,327.39L424.63,325.49L424.53,321.78L425.73,318.38L427.65,317.09L426.77,312.05L427.23,305.75L429.87,303.42L429.6,299.75L430.33,296.81L432.11,294.31L432.33,290.28L431.43,289.66L430.82,285.8L429.13,281.48L430.85,276.14L431.68,275.75L431.4,270.91L432.9,266.7L434.86,264.45L436.19,260.92L438.22,260.35L437.26,258.03L437.94,256.38L437.19,253.37L438.06,251.61L437.34,250.47L438.6,248.48L442.23,246.89L443.64,242.32L442.89,241.53L444.85,238.87L447.33,237.2L448.66,238.36L453.39,238.93L454.33,241.26L455.94,238.24L460.54,237.91ZM436.97,413.62L437.07,398.51L439.59,404.67L442.48,408.01L450.38,413.79L445.66,414.88L443.96,414.12Z" class="land" id="AR" title="Argentina"/>
    <path d="M479.53,229.94L479.45,228.45L475.76,226.16L472.04,226.21L464.94,227.7L462.84,231.67L462.83,233.85L461.32,238.95L460.54,237.91L455.94,238.24L454.33,241.26L453.39,238.93L448.66,238.36L447.33,237.2L444.85,238.87L442.89,241.53L440.11,241.53L438.82,234.87L437.59,231.88L436.6,231.22L436.79,228.03L437.74,226.79L435.69,224.8L435.18,220.87L433.49,218.55L433.03,217.25L435.48,214.89L433.87,210.5L434.86,208.96L434.04,207.81L436.05,204.6L435.26,202.45L435.65,199.1L436.84,197.53L433.22,191.11L438.01,191.38L444.77,187.08L450.18,186L450.21,192.33L451.82,195.34L454.14,197.27L459.63,198.22L460.85,199.59L463.24,200.16L464.81,201.79L467.7,201.64L470.01,202.89L470.86,206.36L471.36,213.31L478,213.56L478.57,217.4L480.86,218.58L481.91,221.85L480.99,225.28L479.65,228.13Z" class="land" id="BO" title="Bolivia"/>
    <path d="M486.33,138.53L487.77,137.08L492.33,135.89L493.9,136.97L495.88,137.81L497.35,136.86L500.6,137.55L501.67,136.82L504.55,131.39L505.93,129.93L507.68,129.8L508.36,133.09L509.96,137.77L510.77,138.99L512.8,139.68L513.04,141.7L511.43,143.02L509.32,145.71L507.43,146.76L505.72,149.51L504.73,152.85L508.91,150.94L509.83,153.56L510.99,154.59L513.77,154.23L515.41,153.44L516.72,153.84L520.27,149.41L523.18,148.95L525.56,149.58L530.29,151.88L532.6,152.36L534.32,153.5L535.71,156.7L536.51,156.96L541.28,156.42L544.06,157.74L545.58,157.56L547.84,158.33L551.26,157.76L553.33,158.02L559.37,161.5L561.1,163.53L564.65,166.36L567.02,167.12L571.24,167.25L572.51,169.03L574.26,176.06L574.14,178.85L572.09,184.02L567.8,189.18L565.61,190.57L563.69,193.36L562.56,195.86L560.33,198.95L558.11,198.7L556.88,202.05L557.48,203.9L557,206.51L557.73,211.6L556.37,217.74L556.62,219.39L555.27,220.61L554.24,223.39L554.41,226.13L551.58,231.7L549.99,233.16L548.94,235.77L548.64,238.29L546.27,239.28L544.91,242.08L538.86,242.52L537.51,241.92L534.38,242.56L531.19,245.34L528.97,245.83L525.34,247.79L521.24,251.18L518.53,254.86L517.99,258.87L518.49,261.11L518.22,265.14L517.5,267.44L513.66,271.1L511.41,276.07L507.93,275.78L506.69,279.03L504.63,280.6L504,284.34L501.87,289.01L498.96,291.95L498.31,289.17L499.95,287.07L497.37,283.81L494.02,281.08L488.8,279.11L487.58,277.02L484.91,274.57L481.77,274.95L484.49,272.18L489.41,265.73L491.94,264.18L493.04,262.74L497.06,260.77L497.74,256.71L496.85,254.2L493.91,253.78L495.42,246.95L493.87,245.91L490.86,246.7L488.9,239.27L486.17,238.37L484.49,239.11L480.24,238.13L480.87,233.56L479.53,229.94L479.65,228.13L480.99,225.28L481.91,221.85L480.86,218.58L478.57,217.4L478,213.56L471.36,213.31L470.86,206.36L470.01,202.89L467.7,201.64L464.81,201.79L463.24,200.16L460.85,199.59L459.63,198.22L454.14,197.27L451.82,195.34L450.21,192.33L450.18,186L444.77,187.08L438.01,191.38L433.22,191.11L428.9,191.35L428.92,185.03L426.49,187.04L422.66,187.2L421.86,185.17L418.49,184.76L419.44,183.04L417.11,180.39L415.27,177.15L416.3,176.25L416.26,174.49L418.78,172.7L418.38,171.2L419.8,167.22L424.02,164.7L427.56,164.08L428.27,163.36L431.65,163.61L433.94,151.26L432.86,148.37L431.22,146.98L431.29,144.07L434.9,142.91L432.11,142.12L432.12,139.48L438.9,139.44L442.25,137.95L444.18,141.45L445.99,143.08L451.37,141.92L455.38,139.85L455.7,138.69L458.3,137.4L456.15,136.46L454.96,133.41L454.95,131.85L453.54,130.58L458.7,130.49L460.03,131.83L461.07,130.1L463.33,129.78L468,128L469.62,126.13L469.06,125.29L472.11,125.77L471.62,128.1L472.74,128.24L473.89,130.45L472.66,131.85L472.09,135.5L473.06,138.7L475.19,140.83L476.68,141.53L478.8,139.97L481.83,139.5L483.75,138.24ZM514.13,147.34L516.21,147.08L519.2,147.84L516.97,152.43L514.3,153.36L510.57,153.67L509.55,151.45L510.01,147.52L511.62,146.89ZM505.2,152.23L506.36,149.05L507.45,150.56Z" class="land" id="BR" title="Brazil"/>
    <path d="M442.89,241.53L443.64,242.32L442.23,246.89L438.6,248.48L437.34,250.47L438.06,251.61L437.19,253.37L437.94,256.38L437.26,258.03L438.22,260.35L436.19,260.92L434.86,264.45L432.9,266.7L431.4,270.91L431.68,275.75L430.85,276.14L429.13,281.48L430.82,285.8L431.43,289.66L432.33,290.28L432.11,294.31L430.33,296.81L429.6,299.75L429.87,303.42L427.23,305.75L426.77,312.05L427.65,317.09L425.73,318.38L424.53,321.78L424.63,325.49L423.67,327.39L423.75,332.56L424.37,335.01L422.89,336.09L422.8,339.9L424.69,345.16L424.12,347.72L426.59,348.05L425.03,351.12L426.02,352.57L424.32,355.42L424.63,360.42L423.78,364.12L421.29,368.17L421.96,371.15L420.9,373.77L417,378.67L418.72,385.99L421.33,385.15L422.28,387.09L421.74,391.18L423.73,394.12L431.67,394.24L437.82,396.54L434.59,395.54L433.29,396.98L428.28,399.29L427.47,406.15L422.69,405.14L425.83,401.57L419.13,402.49L415.22,398.43L417.24,394.45L415.39,392.77L415.71,389.81L411.98,388.07L410.84,385.62L413.93,381.13L413.9,372.56L412.63,367.13L414.67,362.77L408.56,360.61L411.53,357.96L410.96,356.3L414.64,355.67L417.11,354.03L417.87,351.12L420.4,349.72L420.7,348.02L418.26,346.51L419.35,343.48L420.21,336.11L421.37,334.35L419.28,331.98L417.22,333.35L415.42,329.68L416.62,324.15L418.42,319.63L416.65,311.72L416.9,309.12L418.46,309.01L420.87,301.04L422.49,298.61L423.38,294.02L424.76,291.51L424.44,288.8L425.62,286.7L424.77,279.58L424.74,275.62L425.83,274.74L426.17,272.43L425.35,269.07L426.7,266.53L428.89,257.18L428.61,254.72L429.7,251.97L429.18,249.61L429.53,245.77L429.22,242.57L430.16,241.65L431.15,235.71L430.71,232.37L430.91,228.39L429.81,222.13L431.81,221.53L432.11,219.39L433.49,218.55L435.18,220.87L435.69,224.8L437.74,226.79L436.79,228.03L436.6,231.22L437.59,231.88L438.82,234.87L440.11,241.53ZM416.2,341.88L413.84,341.43L415.13,333.34L417.2,333.89L417.57,339.61ZM416.36,347.79L416.39,351.93L414.88,353.11L412.78,349.23ZM413.35,375.96L412.97,381.24L410.01,380.33L410.48,375.56ZM437.07,398.51L436.97,413.62L432.63,412.62L429.49,413.31L427.86,410.01L427.99,406.87L431.14,403.68L429.92,401.03L432.47,399.04ZM432.71,414.08L438.47,416.46L438.43,418.36L433.89,417.81Z" class="land" id="CL" title="Chile"/>
    <path d="M426.15,97.95L423.57,98.76L422.39,100.71L420.6,102.2L419.31,106.51L417.89,108.83L420.17,109.31L421.71,112.29L421.6,116.09L423.05,117.56L427.4,117.97L428.85,117.61L431.12,118.2L433.78,121.48L437.71,121.39L440.19,120.85L441.89,121.93L440.33,125.01L440.21,128.11L440.99,130.73L442.41,132.55L440.29,134.68L442.82,136.72L444.18,141.45L442.25,137.95L438.9,139.44L432.12,139.48L432.11,142.12L434.9,142.91L431.29,144.07L431.22,146.98L432.86,148.37L433.94,151.26L431.65,163.61L430.13,161.9L428.53,161.76L431.21,157.57L427.8,155.41L425.84,155.88L424.4,155.15L421.79,156.27L418.71,155.66L418.54,153.84L417.33,153.28L416.64,151.48L414.28,150.35L412.03,147.23L410.07,146.84L405.91,144.59L405.17,145.46L401.4,144.69L401.22,143.83L397.79,142.17L395.57,140.51L396.72,139.22L396.56,137.06L398.57,136.32L400.4,134.73L402.44,130.74L401.38,129.93L401.95,127.24L401.49,124.41L402.1,122.93L401.21,121.31L401.65,119.97L399.46,117.01L403.72,113.49L403.57,111.32L406.05,109.8L406.62,108.67L408.63,107.91L408.51,104.84L409.42,103.13L411.86,101.07L413.44,101.57L415.04,100.11L418.07,100.3L422.28,97.84L424.55,95.64L426.39,95.99Z" class="land" id="CO" title="Colombia"/>
    <path d="M410.07,146.84L410.16,148.67L408.91,152.63L406.81,155.07L404.42,156.81L399.62,158.51L397.65,160.34L397.36,161.74L394.69,166.68L393.66,166.43L392.41,164.5L388.88,162.93L390.22,162.15L389.63,160.16L391.26,158.95L392.04,156.88L389.12,157.07L387.82,154.84L387.29,150.79L388.7,149.85L388.99,147.91L390.41,146.44L390.59,143.23L395.41,141.52L395.57,140.51L397.79,142.17L401.22,143.83L401.4,144.69L405.17,145.46L405.91,144.59Z" class="land" id="EC" title="Ecuador"/>
    <path d="M470.91,390.66L475.04,390.43L472.39,393.98ZM476.73,389.41L480.84,392.28L475.85,395.33Z" class="land" id="FK" title="Falkland Islands"/>
    <path d="M505.93,129.93L504.55,131.39L501.67,136.82L500.6,137.55L497.35,136.86L495.88,137.81L493.9,136.97L495.61,134.98L496.44,131.84L494.98,129.96L494.57,126.05L495.77,124.65L497.02,122.92L500.87,124.38L503.34,126.34Z" class="land" id="GF" title="French Guiana"/>
    <path d="M483.45,123.87L482.89,126.03L481.35,126.14L479.96,129.48L485.44,138.15L486.33,138.53L483.75,138.24L481.83,139.5L478.8,139.97L476.68,141.53L475.19,140.83L473.06,138.7L472.09,135.5L472.66,131.85L473.89,130.45L472.74,128.24L471.62,128.1L472.11,125.77L469.06,125.29L466.48,122.41L467.49,121.16L467.42,119.2L470.47,118.17L469.15,115.91L469.98,114.62L471.94,113.64L472,111.61L475.31,113.55L477.64,115.72L478.23,117.79L480.25,118.83L483.46,121.63Z" class="land" id="GY" title="Guyana"/>
    <path d="M431.65,163.61L428.27,163.36L427.56,164.08L424.02,164.7L419.8,167.22L418.38,171.2L418.78,172.7L416.26,174.49L416.3,176.25L415.27,177.15L417.11,180.39L419.44,183.04L418.49,184.76L421.86,185.17L422.66,187.2L426.49,187.04L428.92,185.03L428.9,191.35L433.22,191.11L436.84,197.53L435.65,199.1L435.26,202.45L436.05,204.6L434.04,207.81L434.86,208.96L433.87,210.5L435.48,214.89L433.03,217.25L433.49,218.55L432.11,219.39L431.81,221.53L429.81,222.13L426.08,219.3L425.29,217.65L421.5,215.16L415.99,212.82L410.8,209.69L407.44,206.42L406,204.33L406.43,201.75L403.8,196.89L402.5,195.7L402.22,194.05L400.55,192.5L400.13,190.63L398.31,187.55L395.97,181.5L393.47,178.29L391.91,175.15L390.5,173.45L387.65,171.95L385.74,163.96L387.71,161.56L389.63,160.16L390.22,162.15L388.88,162.93L392.41,164.5L393.66,166.43L394.69,166.68L397.36,161.74L397.65,160.34L399.62,158.51L404.42,156.81L406.81,155.07L408.91,152.63L410.16,148.67L410.07,146.84L412.03,147.23L414.28,150.35L416.64,151.48L417.33,153.28L418.54,153.84L418.71,155.66L421.79,156.27L424.4,155.15L425.84,155.88L427.8,155.41L431.21,157.57L428.53,161.76L430.13,161.9Z" class="land" id="PE" title="Peru"/>
    <path d="M479.53,229.94L480.87,233.56L480.24,238.13L484.49,239.11L486.17,238.37L488.9,239.27L490.86,246.7L493.87,245.91L495.42,246.95L493.91,253.78L493.34,258.1L490.62,260.26L489.45,262.11L487.63,261.69L486.52,262.75L479.5,261.47L477.67,260.82L479.4,258.54L479.36,257.41L481.85,253.01L480.9,251.81L474.61,248.75L472.5,247.15L467.88,245.65L464.77,243.12L461.32,238.95L462.83,233.85L462.84,231.67L464.94,227.7L472.04,226.21L475.76,226.16L479.45,228.45Z" class="land" id="PY" title="Paraguay"/>
    <path d="M495.77,124.65L494.57,126.05L494.98,129.96L496.44,131.84L495.61,134.98L493.9,136.97L492.33,135.89L487.77,137.08L486.33,138.53L485.44,138.15L479.96,129.48L481.35,126.14L482.89,126.03L483.45,123.87L484.36,122.06L488.54,122.87L488.99,122.19L493.02,122.08L496.18,122.82Z" class="land" id="SR" title="Suriname"/>
    <path d="M498.96,291.95L497.28,295.07L495.72,296.5L492.74,297.8L489.62,297.02L487.81,297.67L483.54,295.43L480.87,295.55L478.56,292.78L478.75,289.6L479.85,287.83L479.36,285.8L479.41,283.17L481.77,274.95L484.91,274.57L487.58,277.02L488.8,279.11L494.02,281.08L497.37,283.81L499.95,287.07L498.31,289.17Z" class="land" id="UY" title="Uruguay"/>
    <path d="M472,111.61L471.94,113.64L469.98,114.62L469.15,115.91L470.47,118.17L467.42,119.2L467.49,121.16L466.48,122.41L469.06,125.29L469.62,126.13L468,128L463.33,129.78L461.07,130.1L460.03,131.83L458.7,130.49L453.54,130.58L454.95,131.85L454.96,133.41L456.15,136.46L458.3,137.4L455.7,138.69L455.38,139.85L451.37,141.92L445.99,143.08L444.18,141.45L442.82,136.72L440.29,134.68L442.41,132.55L440.99,130.73L440.21,128.11L440.33,125.01L441.89,121.93L440.19,120.85L437.71,121.39L433.78,121.48L431.12,118.2L428.85,117.61L427.4,117.97L423.05,117.56L421.6,116.09L421.71,112.29L420.17,109.31L417.89,108.83L419.31,106.51L420.6,102.2L422.39,100.71L423.57,98.76L426.15,97.95L423.61,99.81L425.04,102.94L422.94,106.41L424.67,109.46L426.24,109.24L427.24,106.86L425.88,104.56L425.55,101.67L430.56,99.98L430.34,97.86L431.49,96.64L433,99.54L436.26,99.74L438,100.85L438.67,103.3L440.14,103.7L446.73,103.04L448.33,104.58L452.39,105.24L456.36,102.91L461.11,102.55L460.54,103.92L461.87,104.92L468.85,108.28L467.8,109.37L466.78,112.18L468.82,111.43Z" class="land" id="VE" title="Venezuela"/>
  </g>
</svg>