<?xml version="1.0" encoding="UTF-8"?>
<svg xmlns="http://www.w3.org/2000/svg" width="184.42" height="399.63" viewBox="387.79 57.19 184.42 399.63" style="background-color:#000000">
  <!-- Created using SVG Map Generator: dojo.amcharts.com/svg-map-generator -->
  <style>
    .land { fill: #ffffff; stroke: #000000; stroke-width: 0.65; }
  </style>
  <g id="polygons">
    <path d="M466.04,120.42L465.24,120.44L464.49,119.9L463.03,121.02L462.48,121.85L461.74,121.04L461.28,119.52L460.06,119.3L459.23,117.87L458.71,115.54L457.7,114.72L456.88,114.5L457.3,113.51L459.75,110.27L459.76,108.2L458.37,107.14L456.65,106.66L456.62,105.15L457.2,103.46L461.09,104.19L461.6,101.91L463.59,102.38L464.76,101.95L465.12,102.83L468.12,103.92L469.3,103.29L472.18,103.37L471.83,105.52L472.09,107.94L471.27,107.96L470.55,109.18L469.23,113.06L468.57,114.47L468.12,114.59L467,115.96L466.97,117.68L467.54,119.09L466.92,120.19Z" class="land" id="AR-T" title="Tucumán"/>
    <path d="M440.01,450.96L438.4,450.49L435.98,451.1L434.89,450.05L434.95,437.85L435,426.91L435.05,417.57L437.62,421.17L438.29,422.76L437.08,422.97L435.72,424.66L435.72,426.2L436.74,427.15L438.99,427.05L439.83,428.62L440.87,431.92L444.33,435.3L444.53,436.63L446.36,438.32L452.42,442.47L453.64,444.21L456.41,446.15L460.31,448.01L461.51,448.25L464.6,447.67L466.31,447.94L464.41,452.22L462.14,452.28L459.15,451.77L458.49,452.64L455.41,453.08L454.57,454.16L452.71,453.74L451.19,452.41L449.49,451.92L445.2,451.44L443.17,451.59ZM470.46,451.9L469.81,450.9L473.52,449.1L476.45,449.89L474.24,450.87L472.75,450.85Z" class="land" id="AR-V" title="Tierra del Fuego"/>
    <path d="M446.35,167.09L446.12,166.36L446.11,161.68L446.43,161.25L449.85,161.7L452.01,161.55L453.4,161.99L455.32,162.19L456.79,162.02L458.06,161.5L459.75,161.85L460.74,161.64L461.85,161.7L464.78,163.47L465.33,164.08L465.81,166.32L468.34,166.2L468.7,168.75L467.51,173.51L466.39,175.69L466.8,185.24L466.79,195.21L466.77,206.26L453.03,206.23L452.87,205.89L453.91,200.52L454.01,196.6L453.72,194.5L453.26,193.12L451.9,190.87L451.29,188.52L451.18,186.85L451.76,186.03L451.69,184.39L450.12,182.32L449.76,181.19L448.22,178.13L447.86,175.86L447.82,173.28L447.58,172.79L447.81,171.14L447.35,170.07L446.61,167.32Z" class="land" id="AR-D" title="San Luis"/>
    <path d="M420.44,166.14L419.82,165.87L419.5,163.78L420.25,163.31L420.5,162.2L419.9,161.61L418.77,161.46L417.36,158.24L417.6,155.7L417.95,153.99L418.58,153.31L419.38,153.29L419.98,152.63L419.65,151.6L420.21,148.95L421.43,146.46L423.18,145.76L424.17,143.38L423.31,141.89L423.38,138.91L422.91,138.32L422.95,137.08L422.32,135.18L422.37,134.56L423.52,132.99L424.09,132.92L425.12,129.48L424.91,128.17L425.6,127.21L425.73,125.42L428.5,126.22L430.21,127.65L430.63,129.08L432.39,130.86L432.6,132.62L432.06,133.53L431.38,137.46L431.82,138.12L434.41,137.77L436.38,138.27L437.78,138.91L440.27,140.97L440.51,141.55L443.74,144.32L444.5,145.82L446.19,147.51L447.28,149.01L448.01,149.53L448.86,151.23L448.43,152.71L449.05,153.19L448.62,156.08L449.19,157.92L450.92,159.4L452.01,161.55L449.85,161.7L446.43,161.25L446.11,161.68L446.12,166.36L446.35,167.09L445.48,166.02L444.45,165.59L442.23,165.45L440.4,163.58L438.57,164L436.39,163.75L436.1,164.78L434.01,164.47L432.23,163.61L431.45,163.72L430.51,162.57L427.65,163.4L426.24,164.07L425.63,165.61L422.87,166.1Z" class="land" id="AR-J" title="San Juan"/>
    <path d="M509.85,176.26L509.96,176.91L508.76,178.54L508.19,180.25L507.24,180.36L506.46,179.71L504.89,179.42L504.17,180.39L497.12,188.38L486.85,188.44L491.65,180.62L495.1,174.92L496.63,173.59L496.93,171.74L496.03,170.05L495.46,168.17L494.23,166.73L493.73,165.36L492.57,164.3L492.61,161.99L492.32,159.93L493.34,159.07L495.9,149.47L494.47,148.91L492.82,147.75L493.26,146.57L493.74,143.51L495.6,131.58L497.13,121.34L508.96,121.36L515.59,121.35L522.77,121.33L522.46,122.33L520.86,123.16L520.96,125.67L520.73,127.78L519.69,131.88L518.16,133.48L517.09,133.98L516.31,135.64L516.13,138.09L515.55,140.39L516.36,142.1L515.46,144.71L515.63,145.4L516.24,146.38L516.22,148.55L514.85,150.98L512.61,154.44L511.93,155.16L511.19,156.78L508.61,159.61L506.66,160.09L506.13,164.53L506.4,166.29L505.81,168.06L505.84,169.34L506.31,171.93L507.69,174.69L509.37,175.58Z" class="land" id="AR-S" title="Santa Fe"/>
    <path d="M466.04,120.42L466.92,120.19L467.54,119.09L466.97,117.68L467,115.96L468.12,114.59L468.57,114.47L469.23,113.06L470.55,109.18L471.27,107.96L472.09,107.94L471.83,105.52L472.18,103.37L472.7,101.5L474.79,96.88L477.23,97.69L481.96,97.76L487.81,97.81L497.08,97.79L497.14,109.3L497.13,121.34L495.6,131.58L493.74,143.51L492.2,139.49L483.79,139.61L482.03,139.51L481.43,138.53L480.15,138.13L478.2,138.24L476.49,137.34L476.15,136.52L474.12,135.89L468.62,137.3L467.22,134.53L466.93,132.1L466.75,128.86L465.94,127.47L466.85,126.27L466.85,124.07Z" class="land" id="AR-G" title="Santiago del Estero"/>
    <path d="M407.85,325.68L444.34,325.69L444.03,327.98L444.8,331.17L446.55,333.82L448.7,335.56L451.22,338.6L452.2,339.29L454.03,339.34L457.68,339.95L458.67,339.62L460.6,341.32L460.98,343.11L460.78,345.84L459.44,349.49L460.48,351.14L458.87,351.53L458.9,353.29L457.97,353.39L456.05,355.33L454.38,357.41L452.39,358.19L451.16,359.74L449.02,360.57L447.39,363.19L445.96,364.15L444.33,366.16L444.07,367.95L442.49,370.14L443.1,370.81L443.39,372.8L442.51,378.1L440.05,380.47L437.21,381.3L437.04,381.98L433.23,383.74L431.01,386.78L430.31,389.92L430.38,391.58L429.89,393.1L430.43,395.82L432.04,401.33L430.91,401.86L432.31,403.66L434.43,408.33L436.65,411.58L437.16,412.8L433.16,412.1L431.7,411.02L429.52,410.1L427.47,410.11L422.65,407.95L405.46,407.94L405.02,405.89L403.87,404.58L402.06,403.59L401.06,400.94L401.88,399.29L402.42,396.98L401.11,395.11L402.27,393.72L402.48,391.5L401.62,389.75L402.02,388.63L400.24,387.93L399.39,388.73L397.77,388.18L395.2,390.18L394.09,389.86L393.62,387.86L393.28,384.43L392.54,382.75L390.98,381.52L391.45,379.46L390.69,378.61L391.66,376.52L391.04,373.94L390.44,373.05L391.5,369.88L394.45,369.78L394.08,368.65L395.83,365.31L397.64,364.76L399.7,362.55L399.23,358.71L399.47,358.2L402.04,356.73L401.77,353.09L400.36,351.89L399.85,350.91L400.81,348.3L401.7,346.63L401.84,344.38L403.23,344.18L404.5,342.4L405.71,341.81L405.89,340.58L404.87,339.19L405.21,336.32L406.33,335.93L407.48,334.83L407.62,332.68L407.13,331.27L406.76,327.2Z" class="land" id="AR-Z" title="Santa Cruz"/>
    <path d="M481.96,97.76L477.23,97.69L474.79,96.88L472.7,101.5L472.18,103.37L469.3,103.29L468.12,103.92L465.12,102.83L464.76,101.95L463.59,102.38L461.6,101.91L461.09,104.19L457.2,103.46L456.16,103.45L455.33,104.88L454.66,104.8L453.83,103.85L452.65,101.61L451.5,100.11L451.36,98.38L451.91,97.93L453.37,97.86L454.13,97.29L454.36,96L453.43,93.87L442.34,94.02L436.24,92.82L437.41,92.41L435.51,89.04L437.09,86.29L437.74,86.23L438.33,85.26L446.57,81.54L447.34,78.71L448.95,79.75L450.85,81.93L452.4,82.65L453.89,82.9L454.11,82.56L455.18,79.12L455.26,77.97L454.93,76.88L455.24,75.25L457.05,75.64L458.72,76.95L458.71,78.59L458.34,79.98L458.99,81.3L459.61,81.19L460.67,81.99L460.86,83.22L462.31,85.32L465.01,86.26L466.47,86.32L468.08,87.21L468.51,87.09L469.19,85.79L470.99,87.39L471.85,86.19L472.86,85.52L473.62,85.45L474.94,83.77L475.13,83.08L474.92,76.49L473.22,76.46L472.29,77.3L471.56,76.47L470.51,75.92L469.27,76.49L468.63,76.22L468.11,74.77L467.16,73.87L467.49,71.99L467.16,71.48L466.11,71.41L465.45,70.92L464.52,66.8L465.43,64.87L465.85,62.72L467.84,62.85L471.23,63.87L471.64,64.33L471.82,65.77L472.4,66.8L472.48,68.06L473.84,69.9L474.04,68.07L474.55,66.78L475.41,65.78L477.08,61.81L487.18,61.78L487.4,62.92L489.84,65.4L491.46,66.37L491.49,73.45L491.47,82.49L491.52,85.22L488.72,88.97Z" class="land" id="AR-A" title="Salta"/>
    <path d="M406.82,275.68L406.57,274.01L405.43,271.49L406.01,270.25L405.57,267.94L405.9,266.57L405.92,263.82L408.86,264.1L411.13,264.83L412.27,264.36L413.34,262.77L412.63,261.22L413.86,259.6L415.4,258.78L416.57,258.7L418.08,257.76L419.16,258.03L421.01,257.45L422.06,256.02L422.71,254.02L422.75,251.83L423.67,250.85L428.31,248.64L429.33,247.07L432.15,245.72L433.36,243.71L434.5,242.78L435.09,241.61L438.32,239.87L438.34,233.75L438.36,223.8L441.4,224.04L442.64,224.67L443.21,225.85L442.74,227.2L441.81,227.91L441.77,229.07L443.26,229.91L443.78,231.07L444.9,231.8L448.05,231.35L448.36,232.69L449.87,233.94L451.44,234.45L453.13,235.51L453.53,236.78L455.15,237.25L456.36,236.99L458.68,237.18L461.52,238.15L462.29,237.71L464.2,238.37L466.08,237.96L469.33,238.1L472.45,238.56L474.25,239.16L476.68,240.48L477.62,241.38L480.99,243.86L482.05,243.99L482.06,248.24L482.05,259.59L482.29,260.33L484.46,260.71L486.2,262.07L487.59,264.25L484.26,265.6L478.28,265.58L476.61,264.32L470.06,261.69L469.56,260.49L467.71,260.4L466.39,261.83L465.95,263.57L466.06,264.77L466.97,268.94L467.64,269.87L467.32,271.35L467.62,272.88L466.92,274.8L467.01,275.8L466.37,275.68Z" class="land" id="AR-R" title="Río Negro"/>
    <path d="M418.82,207.74L419.42,208.53L419.2,209.72L420.39,210.58L420.77,212.12L423.08,214.15L423.29,214.92L424.5,215.72L424.32,217.44L425.94,219.13L427.49,219.42L429.28,219.13L430.91,219.87L431.38,221.22L432.75,221.77L433.68,221.58L436.38,223.1L438.36,223.8L438.34,233.75L438.32,239.87L435.09,241.61L434.5,242.78L433.36,243.71L432.15,245.72L429.33,247.07L428.31,248.64L423.67,250.85L422.75,251.83L422.71,254.02L422.06,256.02L421.01,257.45L419.16,258.03L418.08,257.76L416.57,258.7L415.4,258.78L413.86,259.6L412.63,261.22L413.34,262.77L412.27,264.36L411.13,264.83L408.86,264.1L405.92,263.82L406,262.64L405.11,260.44L405.92,259.45L406.64,256.68L407.68,255.8L406.29,254.27L406.53,253.22L407.65,252.42L407.95,251.29L407.31,248.68L407.27,247.5L409.22,247.18L410.16,243L409.88,239.76L410.4,238.94L412.77,237.52L414.13,237.32L414.89,236.64L415.21,235.1L413.9,233.49L413.53,231.34L413.66,229.54L412.03,225.28L412.54,224.05L412.67,222.59L411.88,220.82L412.63,218.7L411.97,215.67L413.34,211.62L414.07,211.66L416.28,210.85L416.3,209.24L417.34,208.06Z" class="land" id="AR-Q" title="Neuquén"/>
    <path d="M548.75,114.56L549.84,115.31L550.85,115.62L552.04,114.66L552.51,112.33L553.67,111.07L555.17,110.56L556.93,109.22L557.88,108.87L558.07,108.06L558.85,107.75L560.19,105.45L560.65,103.31L560.48,100.92L560.98,100.6L560.81,97.65L561.5,96.87L562.35,97.5L563.6,96.72L564.82,96.79L565.45,96.14L567.42,97.51L567.98,99.18L567.97,100.68L569.43,103.1L569.56,103.66L569.01,104.81L568.79,108.14L569.12,110.02L568.14,112.51L566.36,113.13L565.11,114.13L563.9,115.49L561.65,116.16L560.25,116.82L559.1,116.62L558.25,118.59L557.23,119.64L555.81,119.87L554.54,120.54L553.4,122.22L551.8,122.77L550.68,121.86L549.94,120.54L549.79,119.11L549.06,117.27L548.36,116.06Z" class="land" id="AR-N" title="Misiones"/>
    <path d="M418.82,207.74L419.07,207.07L418.94,205.04L419.54,204.14L418.87,202.18L419.07,200.86L418.84,199.2L417.69,198.45L417.77,197.5L419.37,196.78L419.38,195.24L420.54,191.49L422.22,188.64L422.16,187.5L423.64,187.31L424.27,186.83L423.49,181.89L423.8,179.48L424.65,177.67L424.4,176.5L423.28,176.09L422.63,176.71L421.77,175.43L421.74,174.07L422.69,172.18L421.33,170.93L421.1,169.53L421.31,168.23L420.44,166.14L422.87,166.1L425.63,165.61L426.24,164.07L427.65,163.4L430.51,162.57L431.45,163.72L432.23,163.61L434.01,164.47L436.1,164.78L436.39,163.75L438.57,164L440.4,163.58L442.23,165.45L444.45,165.59L445.48,166.02L446.35,167.09L446.61,167.32L447.35,170.07L447.81,171.14L447.58,172.79L447.82,173.28L447.86,175.86L448.22,178.13L449.76,181.19L450.12,182.32L451.69,184.39L451.76,186.03L451.18,186.85L451.29,188.52L451.9,190.87L453.26,193.12L453.72,194.5L454.01,196.6L453.91,200.52L452.87,205.89L453.03,206.23L445.66,206.24L438,206.22L438.38,208.04L438.36,223.8L436.38,223.1L433.68,221.58L432.75,221.77L431.38,221.22L430.91,219.87L429.28,219.13L427.49,219.42L425.94,219.13L424.32,217.44L424.5,215.72L423.29,214.92L423.08,214.15L420.77,212.12L420.39,210.58L419.2,209.72L419.42,208.53Z" class="land" id="AR-M" title="Mendoza"/>
    <path d="M466.42,142.5L463.95,143.34L462.86,146.04L461.62,150.21L460.67,152.96L460.74,161.64L459.75,161.85L458.06,161.5L456.79,162.02L455.32,162.19L453.4,161.99L452.01,161.55L450.92,159.4L449.19,157.92L448.62,156.08L449.05,153.19L448.43,152.71L448.86,151.23L448.01,149.53L447.28,149.01L446.19,147.51L444.5,145.82L443.74,144.32L440.51,141.55L440.27,140.97L437.78,138.91L436.38,138.27L434.41,137.77L431.82,138.12L431.38,137.46L432.06,133.53L432.6,132.62L432.39,130.86L430.63,129.08L430.21,127.65L428.5,126.22L425.73,125.42L426.84,124.53L428.47,122.62L428.96,121.3L429.88,121.03L430.53,119.04L432.75,119.26L433.86,118.93L436.13,118.65L436.75,119.11L436.6,121.22L439.36,122.51L441.2,122.97L442.03,124.8L443.88,125.16L444.85,123.77L446.32,124.74L448.64,124.86L449.41,124.18L450.06,124.32L453.44,125.76L454.11,126.42L455.04,128.55L455.36,130.12L457.5,131.28L460.28,133.86L460.79,135.58L461.47,136.55Z" class="land" id="AR-F" title="La Rioja"/>
    <path d="M482.05,243.99L480.99,243.86L477.62,241.38L476.68,240.48L474.25,239.16L472.45,238.56L469.33,238.1L466.08,237.96L464.2,238.37L462.29,237.71L461.52,238.15L458.68,237.18L456.36,236.99L455.15,237.25L453.53,236.78L453.13,235.51L451.44,234.45L449.87,233.94L448.36,232.69L448.05,231.35L444.9,231.8L443.78,231.07L443.26,229.91L441.77,229.07L441.81,227.91L442.74,227.2L443.21,225.85L442.64,224.67L441.4,224.04L438.36,223.8L438.38,208.04L438,206.22L445.66,206.24L453.03,206.23L466.77,206.26L466.79,195.21L471.03,195.19L482.09,195.22L482.04,207.03L482.07,241.62Z" class="land" id="AR-L" title="La Pampa"/>
    <path d="M465.85,62.72L465.43,64.87L464.52,66.8L465.45,70.92L466.11,71.41L467.16,71.48L467.49,71.99L467.16,73.87L468.11,74.77L468.63,76.22L469.27,76.49L470.51,75.92L471.56,76.47L472.29,77.3L473.22,76.46L474.92,76.49L475.13,83.08L474.94,83.77L473.62,85.45L472.86,85.52L471.85,86.19L470.99,87.39L469.19,85.79L468.51,87.09L468.08,87.21L466.47,86.32L465.01,86.26L462.31,85.32L460.86,83.22L460.67,81.99L459.61,81.19L458.99,81.3L458.34,79.98L458.71,78.59L458.72,76.95L457.05,75.64L455.24,75.25L454.93,76.88L455.26,77.97L455.18,79.12L454.11,82.56L453.89,82.9L452.4,82.65L450.85,81.93L448.95,79.75L447.34,78.71L448.24,75.36L449.58,71.56L447.94,69.79L448.47,68.79L449.48,67.96L449.39,66.89L451.62,65.95L451.96,64.01L455.47,62.93L455.82,62.55L456.45,59.84L457.88,60.17L459.24,61.16L460.82,62.87Z" class="land" id="AR-Y" title="Jujuy"/>
    <path d="M491.47,82.49L491.49,73.45L491.46,66.37L492.27,66.9L493.13,69.15L494.29,70.54L494.61,71.58L496.7,73.2L496.82,73.82L498.17,74.43L499.46,75.62L500.86,76.31L502.51,77.48L503.41,79.47L506.98,80.29L507.31,80.8L509.98,81.71L512.15,81.42L517.25,84.82L518.44,86.15L522.03,88.09L523.21,89.04L526.43,89.81L527.3,90.89L528.84,90.96L531.55,92.05L532.62,92.91L533.78,95.04L534.46,95.58L534.27,96.66L532.73,98.52L531.36,100.71L531.73,101.14L529.17,103.23L529.29,103.74L528.58,105.37L528.52,106.59L528.84,107.74L527.62,109.92L527.3,110.05L526.29,109.49L524.47,107.56L522.65,106.17L521.7,105.07L519.58,104.45L517.98,104.26L517.45,102.82L515.51,102.47L515.21,101.3L513.71,99.35L510.87,97.83L510.36,96.12L508.95,94.63L507.95,93.24L505.23,91.89L502.58,89.6L501.67,87.93L499.45,87.44L497.64,86.12L497.21,85.37L496.17,84.66Z" class="land" id="AR-P" title="Formosa"/>
    <path d="M509.85,176.26L509.37,175.58L507.69,174.69L506.31,171.93L505.84,169.34L505.81,168.06L506.4,166.29L506.13,164.53L506.66,160.09L508.61,159.61L511.19,156.78L511.93,155.16L512.61,154.44L514.85,150.98L516.22,148.55L516.24,146.38L515.63,145.4L517.92,145.06L519.33,145.43L521.24,144.02L522.64,144.25L524.32,143.58L525.32,143.5L528.4,144.48L529.41,145.91L530.54,148.11L532.21,149.68L532.29,151.09L531.18,155.16L530.43,156.7L529.76,157.32L530.56,158.08L530.63,158.83L530.11,160.62L528.67,161.74L529.16,162.78L528.83,164.52L529.56,165.56L529.56,166.31L528.48,168.02L528.46,168.93L529.12,172.91L529.15,174L528.48,174.53L526.64,174.55L526.63,176.32L525.91,177.91L525.53,180.62L525.69,181.81L526.28,182.64L526.44,184.4L525.1,184.89L521.2,182.47L519.37,182.11L517.53,181.33L517,180.62L516.07,180.86L514.66,180.17L513.54,179.05L511.52,177.81Z" class="land" id="AR-E" title="Entre Ríos"/>
    <path d="M515.63,145.4L515.46,144.71L516.36,142.1L515.55,140.39L516.13,138.09L516.31,135.64L517.09,133.98L518.16,133.48L519.69,131.88L520.73,127.78L520.96,125.67L520.86,123.16L522.46,122.33L522.77,121.33L523.12,118.37L522.81,116L523.97,114.98L525.04,114.4L525.93,114.12L530.37,113.93L532.9,114.3L533.91,114.96L536.79,115.56L538.76,116.18L540.53,115.44L541.87,116.31L543.5,115.78L544.86,117.11L545.97,115.94L546.03,115.14L547.15,114.35L548.75,114.56L548.36,116.06L549.06,117.27L549.79,119.11L549.94,120.54L550.68,121.86L551.8,122.77L550.53,123.95L550.84,125.04L549.4,125.1L548.34,127.06L546.91,128.77L545.97,129.27L544.6,132.28L542.83,133.35L542.19,135.09L538.52,139.42L536.94,139.87L536.53,141.66L535.08,143.26L533.99,143.81L533.44,145.57L531.65,147.08L531.46,148.11L532.21,149.68L530.54,148.11L529.41,145.91L528.4,144.48L525.32,143.5L524.32,143.58L522.64,144.25L521.24,144.02L519.33,145.43L517.92,145.06Z" class="land" id="AR-W" title="Corrientes"/>
    <path d="M466.79,195.21L466.8,185.24L466.39,175.69L467.51,173.51L468.7,168.75L468.34,166.2L465.81,166.32L465.33,164.08L464.78,163.47L461.85,161.7L460.74,161.64L460.67,152.96L461.62,150.21L462.86,146.04L463.95,143.34L466.42,142.5L468.22,140.45L467.87,137.49L468.62,137.3L474.12,135.89L476.15,136.52L476.49,137.34L478.2,138.24L480.15,138.13L481.43,138.53L482.03,139.51L483.79,139.61L492.2,139.49L493.74,143.51L493.26,146.57L492.82,147.75L494.47,148.91L495.9,149.47L493.34,159.07L492.32,159.93L492.61,161.99L492.57,164.3L493.73,165.36L494.23,166.73L495.46,168.17L496.03,170.05L496.93,171.74L496.63,173.59L495.1,174.92L491.65,180.62L486.85,188.44L482.1,188.41L482.09,195.22L471.03,195.19Z" class="land" id="AR-X" title="Cordoba"/>
    <path d="M527.36,191.18L526.29,191.77L525.68,190.92L526.25,190.16Z" class="land" id="AR-C" title="Ciudad de Buenos Aires"/>
    <path d="M407.85,325.68L407.81,324.18L406.87,323.73L406.53,322.19L406.9,319.99L409.44,318.96L410.96,316.75L410.68,315.81L408.41,312.55L406.99,312.06L404.06,311.61L404.23,309.74L406.09,310.23L407.77,310.11L408.99,309.61L410.59,310.37L411.62,309.65L411.56,308.6L412.67,306.98L411.89,305.66L410.04,305.28L406.65,305.38L406.64,301.31L407.82,299.22L406.39,297.31L407.33,296.39L407.34,295.3L405.24,293.46L405.6,291.88L407.06,291.3L407,290.04L406.14,289.51L404.67,289.37L403.43,287.94L403.74,286.09L403.41,282.86L404.26,280.16L403.49,279.14L404.31,277.49L405.49,277.82L407.12,276.83L406.82,275.68L466.37,275.68L467.01,275.8L467.44,276.8L468.67,277.98L471.12,278.8L472.38,278.9L471.15,280.62L472.49,281.09L475.33,280.98L476.13,280.27L475.8,278.91L473.92,278.86L477.7,276.92L478.95,276.89L480.26,279.71L480.33,283.16L479.89,284.99L479.39,285.61L475.98,286.47L474.32,285.11L474.76,283.53L473.7,282.37L472.47,281.84L470.99,281.99L469,283.4L467.98,283.72L467.66,285.35L469.31,285.93L471.21,287.15L473.89,287.76L471.24,289.31L469.64,289.71L467.26,291.71L466.37,293.54L464.63,296.05L464.72,298.11L465.51,301.65L464.79,302.86L465.32,304.18L464.08,306.81L462.2,308.01L461.37,309.21L461.16,310.7L462.74,311.49L462.07,313.12L461.38,313.4L459.99,312.69L456.93,312.41L453.93,313.93L453.49,314.87L450.91,315.57L449.68,316.45L447.96,319.58L446.91,320.48L446.17,323.04L444.34,325.69Z" class="land" id="AR-U" title="Chubut"/>
    <path d="M522.77,121.33L515.59,121.35L508.96,121.36L497.13,121.34L497.14,109.3L497.08,97.79L487.81,97.81L481.96,97.76L488.72,88.97L491.52,85.22L491.47,82.49L496.17,84.66L497.21,85.37L497.64,86.12L499.45,87.44L501.67,87.93L502.58,89.6L505.23,91.89L507.95,93.24L508.95,94.63L510.36,96.12L510.87,97.83L513.71,99.35L515.21,101.3L515.51,102.47L517.45,102.82L517.98,104.26L519.58,104.45L521.7,105.07L522.65,106.17L524.47,107.56L526.29,109.49L527.3,110.05L526.23,111.07L524.6,113.15L525.04,114.4L523.97,114.98L522.81,116L523.12,118.37Z" class="land" id="AR-H" title="Chaco"/>
    <path d="M466.04,120.42L466.85,124.07L466.85,126.27L465.94,127.47L466.75,128.86L466.93,132.1L467.22,134.53L468.62,137.3L467.87,137.49L468.22,140.45L466.42,142.5L461.47,136.55L460.79,135.58L460.28,133.86L457.5,131.28L455.36,130.12L455.04,128.55L454.11,126.42L453.44,125.76L450.06,124.32L449.41,124.18L448.64,124.86L446.32,124.74L444.85,123.77L443.88,125.16L442.03,124.8L441.2,122.97L439.36,122.51L436.6,121.22L436.75,119.11L436.13,118.65L433.86,118.93L432.75,119.26L430.53,119.04L430.96,117.58L432.49,114.88L432.71,113.63L433.35,112.4L434.8,112.6L437.7,111.44L438.02,110.32L435.36,106.22L435.7,103.98L437.01,102.76L436.1,98.35L435.24,96.15L435.46,94.64L436.24,92.82L442.34,94.02L453.43,93.87L454.36,96L454.13,97.29L453.37,97.86L451.91,97.93L451.36,98.38L451.5,100.11L452.65,101.61L453.83,103.85L454.66,104.8L455.33,104.88L456.16,103.45L457.2,103.46L456.62,105.15L456.65,106.66L458.37,107.14L459.76,108.2L459.75,110.27L457.3,113.51L456.88,114.5L457.7,114.72L458.71,115.54L459.23,117.87L460.06,119.3L461.28,119.52L461.74,121.04L462.48,121.85L463.03,121.02L464.49,119.9L465.24,120.44Z" class="land" id="AR-K" title="Catamarca"/>
    <path d="M495.48,243.04L493.97,242.15L493.81,241.24L495.51,241.85ZM526.25,190.16L525.68,190.92L526.29,191.77L527.36,191.18L528.99,192.43L532.3,193.86L534.99,195.71L536.44,196.9L537.76,198.71L538.29,200.37L536.08,203.8L536.07,205.82L536.67,207.28L538.51,209.4L540.05,210.33L541.52,209.63L542.17,210.79L542.41,212.72L542.51,215.99L538.71,222.52L535.11,226.8L534.26,230.32L531.94,232.09L527.76,234.29L523.58,235.6L521.19,236.65L519.08,237.05L513.31,238.42L505.09,239.91L502.05,240.21L500,239.99L498.65,240.37L496.16,240.06L494.31,239.56L492.65,238.1L491.36,237.8L491.09,238.59L492.02,239.71L491.5,241.13L491.58,243.23L492.05,244.14L493.91,246.12L493.47,249.95L492.17,250.05L491.74,250.6L491.21,254.32L490.13,255.42L490.74,257.26L492.3,258.95L492.49,259.67L491.64,262.08L487.99,264.24L487.59,264.25L486.2,262.07L484.46,260.71L482.29,260.33L482.05,259.59L482.06,248.24L482.05,243.99L482.07,241.62L482.04,207.03L482.09,195.22L482.1,188.41L486.85,188.44L497.12,188.38L504.17,180.39L504.89,179.42L506.46,179.71L507.24,180.36L508.19,180.25L508.76,178.54L509.96,176.91L509.85,176.26L511.52,177.81L513.54,179.05L514.66,180.17L516.07,180.86L517,180.62L517.53,181.33L519.37,182.11L521.2,182.47L525.1,184.89L526.44,184.4L527.01,184.83L527.08,186.3L525.99,187.83Z" class="land" id="AR-B" title="Buenos Aires"/>
  </g>
</svg>