<?xml version="1.0" encoding="UTF-8"?>
<svg xmlns="http://www.w3.org/2000/svg" width="350.72" height="399.63" viewBox="304.64 57.19 350.72 399.63" style="background-color:#000000">
  <!-- Created using SVG Map Generator: dojo.amcharts.com/svg-map-generator -->
  <style>
    .land { fill: #ffffff; stroke: #000000; stroke-width: 0.65; }
  </style>
  <g id="polygons">
    <path d="M388.22,236.12L378.62,226.45L374.43,216.46L370.25,214.77L370.01,208.12L366.51,202.84L366.05,194.96L367.82,179.31L372.1,173.27L370.59,168.7L380.56,157.37L383.84,145.68L384.05,138.44L385.84,128.96L384.89,119.35L388.78,118.09L391.2,111.1L401.43,108.52L408.35,97.23L420.37,85.6L427.87,80.55L426.66,87.09L430.53,97.75L427.7,103.11L430.31,112.56L437.39,120.16L439.62,127.63L444.61,128.14L446.63,131.69L452.98,134.38L457.07,140.99L469.78,143.3L477.09,141.05L489.22,147.94L494.36,146.59L496.44,151.85L502.85,156.72L513.84,160.83L521.58,161.06L522.38,164.51L530.25,172.65L536.43,171.43L479.51,204.44L468.6,207.5L468.98,217.6L476.95,232.54L482.39,236.15L484.79,242.48L453.38,241.19L448.2,240.47L433.81,242.34L429.06,254.59L416.23,258.92L407.96,257.25L398.16,248.24L395.11,242.79Z" class="land" id="BO-B" title="El Beni"/>
    <path d="M392.77,304.5L387.66,295.52L382.35,291.31L386.86,288.92L385.12,280.06L381.33,274.35L383.58,269.92L388.14,269.21L389.9,262.32L388.14,253.95L384.54,247.82L384.4,240.05L388.22,236.12L395.11,242.79L398.16,248.24L407.96,257.25L416.23,258.92L429.06,254.59L433.81,242.34L448.2,240.47L449.47,256.04L445.31,266L447.82,273.76L458.03,280.69L457.95,287.4L447.65,301.08L459.04,319.79L457.92,324.78L451.91,324.99L447.96,320.88L441.3,320.3L437.51,323.51L432.23,322.25L429.25,317.48L416.11,304.97L410.08,300.9L405.35,300.87L400.84,304.36Z" class="land" id="BO-C" title="Cochabamba"/>
    <path d="M432.42,412.09L426.35,406.41L426.99,391.04L430.71,381.4L428.6,371.52L430.01,366.49L442.12,361.8L446.72,356.55L443.14,347.19L430.58,344.18L424.38,337.26L424.67,329.28L421.83,324.55L420.2,315.52L429.25,317.48L432.23,322.25L437.51,323.51L441.3,320.3L447.96,320.88L451.91,324.99L457.92,324.78L459.68,329.7L469.45,340.08L474.33,342.55L477,378.45L488,379.61L519.15,379.5L517.13,382.27L517.37,395.65L468.39,395.56L462.73,392.33L462.04,399.01L457.33,399.78L447.35,393.52L443.97,398.46L434.17,394.85Z" class="land" id="BO-H" title="Chuquisaca"/>
    <path d="M388.22,236.12L384.4,240.05L384.54,247.82L388.14,253.95L389.9,262.32L388.14,269.21L383.58,269.92L381.33,274.35L385.12,280.06L386.86,288.92L382.35,291.31L378.08,286.77L373.43,288.13L360.54,296.64L358.89,300.53L347.99,294.13L340.4,294.4L330.11,303.04L322.82,305.89L316.65,304.14L314.81,297.12L311.05,293.75L310.66,286.14L307.29,281.23L313.36,276.97L319.48,268.19L324.61,264.59L325.87,251.25L318.86,249.71L312.94,233.81L317.3,225.08L321.05,222.14L314.07,214.37L314.55,209.52L318.24,203.27L325.41,197.05L329.02,191.81L323.17,177.32L326.07,171.42L325.73,152.61L330.23,148.73L334.27,141.95L339.88,139.54L347.26,127.55L354.04,124.43L384.05,138.44L383.84,145.68L380.56,157.37L370.59,168.7L372.1,173.27L367.82,179.31L366.05,194.96L366.51,202.84L370.01,208.12L370.25,214.77L374.43,216.46L378.62,226.45Z" class="land" id="BO-L" title="La Paz"/>
    <path d="M334.27,141.95L327.1,127.26L308.73,96.75L322.79,97.22L329.28,98.64L331.62,102.16L345.49,97.58L353.01,88.3L360.87,89.82L365.44,83.77L379.87,76.93L392.62,66.4L408.4,62.63L417.88,62.48L422.92,64.35L426.54,59.84L430.55,64.56L430.91,75.45L427.87,80.55L420.37,85.6L408.35,97.23L401.43,108.52L391.2,111.1L388.78,118.09L384.89,119.35L385.84,128.96L384.05,138.44L354.04,124.43L347.26,127.55L339.88,139.54Z" class="land" id="BO-N" title="Pando"/>
    <path d="M322.82,305.89L330.11,303.04L340.4,294.4L347.99,294.13L358.89,300.53L360.54,296.64L373.43,288.13L378.08,286.77L382.35,291.31L387.66,295.52L392.77,304.5L389.45,306.67L390.87,319.46L395.61,325.48L402.76,327.95L408.18,341.16L398.16,341.94L390.73,347.81L361.34,360.4L337.17,352L340.85,347.98L327.82,336.82L324.26,324.57L324.29,319.29L320.98,308.52Z" class="land" id="BO-O" title="Oruro"/>
    <path d="M432.42,412.09L429.79,420.06L433.74,429.24L417.76,429.72L408.41,421.15L403.87,420.08L400.76,429.92L389.58,433.34L388.5,439.49L381.42,442.49L381.71,445.9L376.82,451.7L365.53,454.16L357.04,451.9L357.81,443.45L355.1,429.55L351.08,425.15L348.2,414.32L348.13,404.73L337.38,387.5L340.18,384.35L333.79,380.52L331.32,367.87L337.02,366.78L338.57,362.62L333.82,357.34L337.17,352L361.34,360.4L390.73,347.81L398.16,341.94L408.18,341.16L402.76,327.95L395.61,325.48L390.87,319.46L389.45,306.67L392.77,304.5L400.84,304.36L405.35,300.87L410.08,300.9L416.11,304.97L429.25,317.48L420.2,315.52L421.83,324.55L424.67,329.28L424.38,337.26L430.58,344.18L443.14,347.19L446.72,356.55L442.12,361.8L430.01,366.49L428.6,371.52L430.71,381.4L426.99,391.04L426.35,406.41Z" class="land" id="BO-P" title="Potosí"/>
    <path d="M519.15,379.5L488,379.61L477,378.45L474.33,342.55L469.45,340.08L459.68,329.7L457.92,324.78L459.04,319.79L447.65,301.08L457.95,287.4L458.03,280.69L447.82,273.76L445.31,266L449.47,256.04L448.2,240.47L453.38,241.19L484.79,242.48L482.39,236.15L476.95,232.54L468.98,217.6L468.6,207.5L479.51,204.44L536.43,171.43L539.31,172.79L552.27,171.02L562.64,178.23L568.32,180.14L570.95,185.54L568.17,190.86L573.9,204.28L574.54,218.18L565.62,218.29L575.44,229.57L577.35,252.86L626.49,254.84L629.14,260.09L625.45,265.11L627.35,280.51L639.5,289.79L646.3,292.58L647.06,300.11L652.71,310.88L645.59,332.03L645.41,336.3L635.58,357.3L643.26,364.41L635.9,369.69L634.72,360.03L607.75,345.41L582.45,343.84L564.42,348.75L532.18,354.38L527.31,367.59Z" class="land" id="BO-S" title="Santa Cruz"/>
    <path d="M433.74,429.24L429.79,420.06L432.42,412.09L434.17,394.85L443.97,398.46L447.35,393.52L457.33,399.78L462.04,399.01L462.73,392.33L468.39,395.56L517.37,395.65L517.43,397.38L506.44,433.69L501.49,426.25L469.4,426.35L464.11,438.98L459.73,446.25L454.53,442.19L450.8,432.9L440.04,429.64Z" class="land" id="BO-T" title="Tarija"/>
  </g>
</svg>