<?xml version="1.0" encoding="UTF-8"?>
<svg xmlns="http://www.w3.org/2000/svg" width="381.22" height="399.63" viewBox="289.39 57.19 381.22 399.63" style="background-color:#000000">
  <!-- Created using SVG Map Generator: dojo.amcharts.com/svg-map-generator -->
  <style>
    .land { fill: #ffffff; stroke: #000000; stroke-width: 0.65; }
  </style>
  <g id="polygons">
    <path d="M294.05,178.66L305.08,183.28L319.61,186.78L327.06,188.72L343.31,197.48L360.82,204.98L362.64,205.76L358.46,209.17L353.61,211.47L352.08,213.5L349.44,212.99L346.91,216.11L342.26,217.65L341.47,216.46L336.07,215.7L332.95,215.93L331.14,215.47L327.28,216.98L325.39,215.68L324.38,216.4L324.4,205.54L324.79,201.12L320.71,204.81L318,206.51L309.48,206.58L308.37,202.01L304.26,200.85L299.75,200.73L301.99,198.22L302.03,196.72L300.07,194.06L298.36,192.98L296.56,190.55L294.9,184.98L292.04,182.83L292.75,180.94L294.6,180.7Z" class="land" id="BR-AC" title="Acre"/>
    <path d="M637.19,201.98L634.96,200.06L637.5,198.26L639.52,195.42L641.82,196.29L644.55,198.85L646.82,199.79L651,199.5L653.97,198.19L656.34,195.73L658.94,196.11L661.42,195.19L664.55,195.99L662.83,199.06L657.84,204.45L655.97,207.28L653.93,209.06L652.51,211.41L652.14,210.61L647.55,207.82L646.75,206.31L643.42,204.41L641.16,203.83Z" class="land" id="BR-AL" title="Alagoas"/>
    <path d="M393.9,88.82L397.63,90.87L400.51,91.8L399.51,94.78L401.19,97.1L402.89,102.41L401.89,103.31L402.52,105.27L401.69,107.75L401.87,110.83L403.52,113.25L404.21,115.92L402.26,117.6L405.34,120.33L406.86,121.17L408.41,123.44L410.74,122.57L411.12,118.97L412.26,116.36L415.65,114.9L417.38,115.48L419.1,118.29L420.98,118.15L423.1,116.94L422.59,114.64L423.34,112.31L425.77,108L437.13,108.04L437.37,113.77L438.41,114.29L438.28,116.28L441.19,118.27L441.73,120.26L448.61,125.39L453.45,127.11L456.74,129.72L457.42,131.06L459.98,131.73L461.09,132.76L442.72,172.48L441.35,173.99L441.48,176.73L443.34,178.41L444.18,180.75L443.33,183.49L441.81,185.53L442.56,188.1L440.99,193.94L440.25,194.39L410.85,194.59L409.8,193.75L407.87,195.61L405.88,194.7L404.2,192.74L403.43,190.72L401.87,190.11L400.29,187.84L398.97,187.15L392.34,187.18L390.33,189.93L388.81,190.26L388.71,192.37L386.72,194.46L386.8,196.48L384.43,196.2L382.38,197.09L380.48,196.68L377.68,201.01L376.45,199.34L372.31,201.13L371.01,202.41L369.14,200.73L364.95,200.78L364.95,201.92L360.82,204.98L343.31,197.48L327.06,188.72L319.61,186.78L305.08,183.28L294.05,178.66L294.44,176.45L298.21,173.44L299.6,173.29L300.54,171.5L299.47,168.73L302.04,164.44L302.64,159.85L307.39,156.99L312.19,153.56L314.61,153.47L319.22,152.01L321.27,152.25L323.12,149.99L324.83,150.46L327.36,149.92L328.54,151.77L330.63,151.58L331.56,147.81L335.68,124.83L336.39,123.02L335.78,119.95L334.15,117.44L334.21,115.18L331.07,113.11L329.88,111.71L330,104.59L332.39,104.43L335.62,103.13L337.26,104.22L338.79,104.02L338.67,101.92L336.77,99.91L331.95,99.92L331.91,93.8L334.71,93.09L336.45,93.63L348.14,93.67L351.41,93.09L353.58,90.51L355.94,89.93L357.65,92.76L358.65,95.62L358.47,98.96L360.44,98.49L365.54,102.85L367.56,103.16L371.32,100.77L373.48,101.55L376.78,100.9L377.06,99.47L380.1,97.93L382.25,97.44L384.17,95.7L385.42,96.04L387.21,94.52L387.46,92.07L390.45,90.99Z" class="land" id="BR-AM" title="Amazonas"/>
    <path d="M503.94,121.23L500.38,121.05L498.07,118.63L497.95,116.42L496.96,113.93L495.16,111.9L494.18,112.01L493.34,108.88L492.18,106.48L492.22,103.03L489.41,101.18L489.48,98.84L487.02,96.48L484.87,96.75L482.24,94.27L480.26,93.31L476.8,93.25L476.46,92.02L477,88.41L476.39,86.64L477.23,87.9L479.37,88.99L482.77,89.93L486.26,87.46L488.35,88.63L490.34,87.68L493.84,89.33L496.52,87.43L499.62,81.04L505.18,71.98L507.4,70.34L509.4,69.61L511.82,72.91L511.95,77.78L512.36,80.17L514.02,83.91L515.65,89.44L517.69,92.53L520.32,92.7L522.82,93.8L523.3,95.44L522.99,99.17L519.9,101.68L517.86,103.85L514.88,108.32L512.99,108.87L511.71,110.71L509.52,112.35L508.24,114.88L505.87,117.41L505.75,120.01Z" class="land" id="BR-AP" title="Amapá"/>
    <path d="M616.06,285.45L615.92,283.13L613.38,281.24L612.21,279.62L613.03,274.87L615.06,274.47L615.44,271.5L618.48,268.9L619.38,266.99L618.65,265.63L615.91,263.83L608.98,262.37L607.26,263.29L605.31,263.14L605.04,260.69L601.04,256.86L598.11,257.51L593.39,254.98L590.12,252.84L587.77,252.05L584.64,253.56L581.36,252.65L580.92,250.87L581.71,249.17L576.61,248.18L574.26,249.16L571.25,251.72L567.93,253.12L566.24,254.8L564.75,255.03L562.98,257.1L561.23,256.95L560.3,254.37L561.36,252.67L561.28,249.24L559.3,247.62L558.26,245.48L557.91,242.35L558.73,237.8L559.9,235.36L558.22,233.84L558.9,230.87L558,230.57L557.21,229.39L557.36,227.06L559.85,225.33L558.12,224.55L559.36,222.94L558.53,221.58L556.33,221.17L555.19,219.96L557.62,213.95L561.94,211.08L562.84,209.78L564.27,209.77L565.57,211.24L566.98,214.14L569.54,215.29L571.95,215.08L572.61,214.05L575.79,212.27L577.52,212.7L580.18,210.94L582.43,207.29L582.69,204.42L581.35,201.1L583.34,200.09L585.91,201.04L588.07,200.44L590.48,202.04L594.27,201.51L595.7,199.93L598.36,198.89L600.26,199.32L601.34,196.72L603.7,196.18L604.9,194.04L607.51,194.3L609.51,195.47L609.91,198.36L611.27,198.92L611.99,201.58L614.85,200.33L615.32,198.12L618.43,197.21L619.06,195.23L621.08,193.53L623.65,192.36L627.72,194.5L630.52,195.46L634.2,197.6L634.96,200.06L637.19,201.98L636.91,204.02L639.38,207.48L638.87,210.95L639.34,212.65L637.17,213.96L635.43,213.49L635.47,216.12L637.43,218.63L637.22,220L640.34,221.94L642.12,221.39L642.74,221.64L640.24,227.09L637.26,231.74L634.16,235.29L632.13,236.07L632.35,233.22L630.29,232.16L629.93,235.76L627.08,240.77L627.98,242.67L627.34,244.22L628.35,246.12L626.99,252.2L627.59,255.49L628.24,262.25L628.85,264.37L627.49,268.48L625.62,277.28L625.81,281.46L626.36,282.51L624.98,284.35L623.3,285.16L621.21,288.96Z" class="land" id="BR-BA" title="Bahia"/>
    <path d="M644.49,156.57L641.49,157.55L639.88,158.8L636.5,165.46L634.39,168.59L632.96,168.48L631.58,170.41L632.17,171.5L630.22,176.41L630.75,179.12L632.14,180.46L630.53,183.47L627.94,185.7L625.23,184.07L624.33,182.79L621.46,181.1L617.45,181.4L612.88,181.24L612.45,179.41L614.07,176.1L613.6,174.95L611.23,174.26L609.64,167.53L608.93,161.46L609.29,160.48L608.3,157.39L608.11,154.01L608.58,152.7L605.54,146.67L604.44,143.75L604.37,142.06L606.07,139.2L606.32,137.82L610.46,137.68L613.51,137.01L618.05,137.5L620.54,139.12L627.68,142.77L630.87,145.49L632.45,145.93L636.52,150.47L641.54,154.72L643.7,155.31Z" class="land" id="BR-CE" title="Ceará"/>
    <path d="M548.01,266.01L538.98,266L538.66,263.98L539.46,260.54L546.8,260.55L547.92,261.77L547.47,265.38Z" class="land" id="BR-DF" title="Distrito Federal"/>
    <path d="M600.16,313.9L600.24,309.64L601.4,308.1L604.56,308.13L606.17,305.14L606.87,302.66L608.84,300.57L608.99,297.23L608.21,295.49L609.01,293.91L608.38,289.98L607.06,288.72L609.11,286.73L609.63,285.33L613.94,284.61L616.06,285.45L621.21,288.96L620.64,291.02L620.53,295.01L620.97,298.81L619.86,302.3L618.17,303.16L614.15,312.08L612.03,314.45L610.73,314.69L608.79,319.03L605.96,318.6L601.76,317.28L601.35,314.37Z" class="land" id="BR-ES" title="Espírito Santo"/>
    <path d="M548.01,266.01L547.47,265.38L547.92,261.77L546.8,260.55L539.46,260.54L538.66,263.98L538.98,266L548.01,266.01L547.87,267.92L546.56,270.58L548.48,272.17L549.49,275.36L546.08,278.9L545.81,280.22L548.29,281.34L547.53,284.13L548.27,286.26L545.66,287.66L544.83,288.91L541.83,290.6L538.39,289.28L533.68,289.26L532.45,288.72L528.12,292.15L526.18,291.09L524.22,292.1L521.94,291.72L519.04,292.65L516.96,296.88L515.66,297.04L513.32,300.42L511.53,298.76L508.6,297.42L506.52,297.13L498.51,292.86L494.46,292.52L495.65,289.72L492.85,288.53L492.89,285.84L492.2,282.36L491.23,280.57L491.48,278.46L493.04,276.08L493.28,274.28L494.95,273.29L496.9,270.94L497.41,269.12L500.68,264.42L504.18,263.63L505.83,260.45L506.22,257.92L507.63,256.26L510.06,255.89L511.66,254.56L512.89,250.97L512.95,248.08L513.93,246.17L513.86,242.97L514.6,242.49L516.7,238.24L516.6,236.56L517.53,234.38L523.87,235.5L528.66,237.3L529.66,233.63L531.29,231.55L532.63,233.53L533.69,237.73L535.38,236.35L539.86,236.23L539.65,237.66L544.05,238.93L547.01,238.12L548.56,236.84L552.29,236.22L554.93,234.71L558.22,233.84L559.9,235.36L558.73,237.8L557.91,242.35L558.26,245.48L559.3,247.62L561.28,249.24L561.36,252.67L560.3,254.37L557.7,254.79L555.66,252.78L554.94,253.7L555.29,256.03L552.04,256.06L551.55,259.81L552.58,264.12Z" class="land" id="BR-GO" title="Goiás"/>
    <path d="M600.4,136.73L600.4,139.34L596.77,143.2L594.24,143.39L592.44,145.49L591.93,147.73L589.39,150.86L590.6,153.35L589.73,156.03L590.7,157.76L590.84,161.45L588.33,164.18L588.6,168.44L590.69,170.27L590.07,174.38L589.33,175.19L584.59,175.82L583.05,174.69L579.26,175.31L576.48,178.56L570.78,182L566.84,182.89L565.53,184.1L564.31,189.21L562.21,194.02L560.72,196.12L561.44,199.29L562.5,201.18L562.01,202.36L561.93,206.29L561.04,209.65L558.76,208.28L557.23,208.29L555.8,205.29L554.49,204.28L555.36,201.82L552.97,200.61L552.1,197.96L550.28,196.66L551.9,195.09L552.54,191.74L555.55,190.01L555.9,186.92L554.79,186.17L550.85,187.58L547.05,182.61L546.15,180.27L543.86,179.47L546.12,177.36L546.3,174.29L547.38,170.49L546.96,166.55L545.77,162.82L542.93,161.92L542.35,160.65L539.83,160.75L538.12,159.81L536.39,160.1L534.45,161.64L543.18,154.28L544.63,154.42L547.51,151.08L547.89,149.3L550.08,147.58L551.52,142.76L553.63,140.72L554.8,137.4L554.15,136.42L556.41,134.51L556.64,132.02L557.71,131.05L558.54,127.75L558.92,122.72L559.68,121.8L561.85,122.27L567.77,125.28L569.23,124.23L571.26,124.61L573.03,127.63L574.52,127.76L574.86,130.8L576.22,132.45L574.11,134.81L573.06,138.92L573.78,140.03L575.64,138.34L576.27,134.43L578.69,133.35L580.38,134.64L584.98,134.53L586.56,132.96L592.09,134.77L594.03,136.39L599.32,137.48Z" class="land" id="BR-MA" title="Maranhão"/>
    <path d="M616.06,285.45L613.94,284.61L609.63,285.33L609.11,286.73L607.06,288.72L608.38,289.98L609.01,293.91L608.21,295.49L608.99,297.23L608.84,300.57L606.87,302.66L606.17,305.14L604.56,308.13L601.4,308.1L600.24,309.64L600.16,313.9L597.96,316.26L595.34,322.29L596.22,323.53L588.83,326.94L585.79,326.54L581.53,327.12L577.31,329.17L575.42,329.11L571.72,330.69L569.6,331.28L566.57,333.09L563.66,333.19L562.64,335.26L559.27,335.81L557.23,335.48L555.98,333.43L556.41,331.94L554.21,330.67L554.05,324.76L555.2,323.08L555.52,320.72L553.24,319.91L550.99,320.38L548.8,315.31L549.85,312.86L548.13,310.44L548.53,307.7L546.53,305.63L545.2,306.21L542.73,305.8L542.39,307.06L538.45,307.1L531.15,307.6L529.77,309.07L528.91,306.33L526.54,304.97L523.3,305.41L516.65,304.1L512.52,306.76L512.35,303.16L513.32,300.42L515.66,297.04L516.96,296.88L519.04,292.65L521.94,291.72L524.22,292.1L526.18,291.09L528.12,292.15L532.45,288.72L533.68,289.26L538.39,289.28L541.83,290.6L544.83,288.91L545.66,287.66L548.27,286.26L547.53,284.13L548.29,281.34L545.81,280.22L546.08,278.9L549.49,275.36L548.48,272.17L546.56,270.58L547.87,267.92L548.01,266.01L552.58,264.12L551.55,259.81L552.04,256.06L555.29,256.03L554.94,253.7L555.66,252.78L557.7,254.79L560.3,254.37L561.23,256.95L562.98,257.1L564.75,255.03L566.24,254.8L567.93,253.12L571.25,251.72L574.26,249.16L576.61,248.18L581.71,249.17L580.92,250.87L581.36,252.65L584.64,253.56L587.77,252.05L590.12,252.84L593.39,254.98L598.11,257.51L601.04,256.86L605.04,260.69L605.31,263.14L607.26,263.29L608.98,262.37L615.91,263.83L618.65,265.63L619.38,266.99L618.48,268.9L615.44,271.5L615.06,274.47L613.03,274.87L612.21,279.62L613.38,281.24L615.92,283.13Z" class="land" id="BR-MG" title="Minas Gerais"/>
    <path d="M512.52,306.76L512.28,308.28L509.34,309.8L507.05,312.04L506.57,314.89L504.24,317.7L504.39,319.48L502.41,322.32L502.46,323.6L498.29,328.68L493.65,331.48L491.91,333.81L487.9,335.71L486.45,340.07L484.13,341.52L483.17,346.42L481.48,347.88L477.82,345.28L474.96,346.96L472.35,347.52L470.29,346.84L469.24,343.18L468.97,338.3L468.02,334.94L468.4,333.11L466.09,329.48L462.7,329.33L459.9,327.4L458.57,329.1L456.24,329.33L453.59,328.6L451.47,328.74L445.62,327.44L446.89,319.7L447.25,315.97L446.82,313.46L445.78,313.21L443.95,307.67L446.9,305.7L444.31,303.31L447.62,296.26L447.68,294.83L450.07,287.73L448.17,284.11L448.19,282.93L450.57,284.67L454.02,283.46L457.43,278.78L461.48,278.55L462.3,277.78L468.51,279.59L469.16,280.75L472.56,282.51L475.33,282.12L477.29,280.72L478.78,280.76L480.7,282.44L482.63,281.93L486.08,278.22L486.15,282.22L484.03,284.4L485.87,285.87L492.89,285.84L492.85,288.53L495.65,289.72L494.46,292.52L498.51,292.86L506.52,297.13L508.6,297.42L511.53,298.76L513.32,300.42L512.35,303.16Z" class="land" id="BR-MS" title="Mato Grosso do Sul"/>
    <path d="M419.17,242.63L422.59,240.16L423.79,236.3L425.37,235.31L427.33,231.91L427.72,229.46L426.44,225.21L425.54,224.91L425.36,222.09L427.16,219.88L426.29,217.66L422.8,217.38L422.2,216.34L411.66,216.31L412.21,210.75L411.14,207.47L412.1,203.07L410.83,199.92L412.08,195.95L410.85,194.59L440.25,194.39L440.99,193.94L442.56,188.1L441.81,185.53L443.33,183.49L444.18,180.75L446.4,183.93L447.49,187.46L448.77,189.66L449.37,194.01L452.16,196.4L454.23,197.45L454.49,199.02L456.58,199.44L460.36,201.39L481.26,202.89L519.94,205.04L518.53,207.61L516.58,213.51L516.22,217.17L515.06,220.88L515.95,222.24L515.71,228.05L516.3,230.28L515.85,231.99L517.53,234.38L516.6,236.56L516.7,238.24L514.6,242.49L513.86,242.97L513.93,246.17L512.95,248.08L512.89,250.97L511.66,254.56L510.06,255.89L507.63,256.26L506.22,257.92L505.83,260.45L504.18,263.63L500.68,264.42L497.41,269.12L496.9,270.94L494.95,273.29L493.28,274.28L493.04,276.08L491.48,278.46L491.23,280.57L492.2,282.36L492.89,285.84L485.87,285.87L484.03,284.4L486.15,282.22L486.08,278.22L482.63,281.93L480.7,282.44L478.78,280.76L477.29,280.72L475.33,282.12L472.56,282.51L469.16,280.75L468.51,279.59L462.3,277.78L461.48,278.55L457.43,278.78L454.02,283.46L450.57,284.67L448.19,282.93L446.42,280.26L444.6,280.19L441.92,278.42L440.91,272.36L442.15,270.67L441.26,268.91L424.76,268.25L424.12,260.43L420.82,256.64L423.82,256.6L423.61,251.94L421.68,247.43L422.62,245.64L421.73,243.83Z" class="land" id="BR-MT" title="Mato Grosso"/>
    <path d="M532.94,124.46L530.16,125.67L526.84,125.8L523.96,127.59L521.65,126.58L518.58,127.8L516.61,127.44L515.97,125.92L514.49,124.05L514.74,116.37L515.97,112.71L519.02,111.16L525.57,112.58L529.94,111.5L537.41,112.71L536.17,118.83ZM524.38,110.2L525.52,109.46L527.74,109.86L527.57,111.33L525.1,111.7ZM513.95,112.91L512.84,111.06L515.47,110.25L516.83,110.8ZM508.84,114.86L510.29,112.13L511.27,112.93ZM503.94,124.35L504.1,121.54L505.68,121.11L506.74,117.23L508.92,115.4L510.68,115.28L511.13,116.74L509.93,119.98L507.95,122.09ZM521.44,110.2L518.64,109.82L518.41,108.38L521.85,107.34L524.81,106.97L525.59,108.18L522.92,110.57ZM519.73,106.92L519.22,105.34L521.44,103.96L521.95,105ZM519.94,205.04L481.26,202.89L460.36,201.39L456.58,199.44L454.49,199.02L454.23,197.45L452.16,196.4L449.37,194.01L448.77,189.66L447.49,187.46L446.4,183.93L444.18,180.75L443.34,178.41L441.48,176.73L441.35,173.99L442.72,172.48L461.09,132.76L459.98,131.73L457.42,131.06L456.74,129.72L453.45,127.11L448.61,125.39L441.73,120.26L441.19,118.27L438.28,116.28L438.41,114.29L437.37,113.77L437.13,108.04L436.15,97.54L437.7,98.82L440.49,98.02L440.66,96.25L442.63,95.02L445.41,95.66L447.78,93.73L450,93.74L450.98,91.96L454.1,90.8L455.02,91.76L457.26,92.21L458.63,91.6L461.51,91.74L464.39,92.59L465.57,90.56L463.54,88.63L464.82,86.01L467.39,87.18L474.53,85.74L476.39,86.64L477,88.41L476.46,92.02L476.8,93.25L480.26,93.31L482.24,94.27L484.87,96.75L487.02,96.48L489.48,98.84L489.41,101.18L492.22,103.03L492.18,106.48L493.34,108.88L494.18,112.01L495.16,111.9L496.96,113.93L497.95,116.42L498.07,118.63L500.38,121.05L503.94,121.23L503.69,123L500.18,124.91L501.53,125.8L504.21,125.09L508.27,122.92L514.25,119.1L514.16,123.05L514.36,124.05L514.86,125.04L515.66,125.88L515.77,127.18L514.65,128.32L510.05,127.01L512.67,129.66L514.28,128.99L515.67,127.56L518.18,128.92L522.14,127.66L523.69,128.44L529.1,127.13L526.91,131.84L527.6,133.19L530.09,128.23L532.04,127.85L534.34,124.57L536.73,122.71L538.09,122.83L538.35,119.64L540.8,116.99L541.71,117.64L543.51,116.35L544.56,117.25L546.79,115.78L548.19,115.94L551.64,118.26L554.48,118.11L555.35,120.06L558.68,119.38L559.68,121.8L558.92,122.72L558.54,127.75L557.71,131.05L556.64,132.02L556.41,134.51L554.15,136.42L554.8,137.4L553.63,140.72L551.52,142.76L550.08,147.58L547.89,149.3L547.51,151.08L544.63,154.42L543.18,154.28L534.45,161.64L537.8,162.06L539.98,164.1L538.51,165.35L539.19,167.04L538.63,168.74L537.34,169.33L534.99,172.89L534.94,174.13L531.31,175.58L529.67,176.9L529.97,179.9L528.32,182.24L528.7,183.73L530.27,185.18L528.78,190.87L525.93,195.45L524.45,196.12L521.63,200Z" class="land" id="BR-PA" title="Pará"/>
    <path d="M667,182.72L665.46,181.45L663.32,181.16L661,182.61L660.72,183.73L657.13,185.33L653.41,185.35L650.96,186.35L648.99,189.27L647.16,189.89L645.59,188.82L644.96,182.98L646.56,181.27L644.41,180.08L642.13,181.12L637.42,184.95L634.8,185.7L633.97,184.3L632.24,184.91L630.53,183.47L632.14,180.46L630.75,179.12L630.22,176.41L632.17,171.5L636.03,172.87L639.23,170.7L639.55,169.47L644.37,168.01L645.1,169.06L643.27,171.05L641.81,174.36L643.98,174.68L644.54,175.82L646.48,175.04L648.76,175.18L649.5,177.31L651.59,175.53L651.54,171.56L653.51,170.7L654.08,171.86L656.51,172.32L660.09,172.08L662.93,172.95L666.3,172.68L666.35,174.17L667.96,179.14L667.79,182.34Z" class="land" id="BR-PB" title="Paraíba"/>
    <path d="M634.96,200.06L634.2,197.6L630.52,195.46L627.72,194.5L623.65,192.36L621.08,193.53L619.06,195.23L618.43,197.21L615.32,198.12L614.85,200.33L611.99,201.58L611.27,198.92L609.91,198.36L609.51,195.47L607.51,194.3L604.9,194.04L608.05,191.66L610.05,190.66L612.43,188.27L612.93,185.78L611.75,184.46L611.46,181.55L612.88,181.24L617.45,181.4L621.46,181.1L624.33,182.79L625.23,184.07L627.94,185.7L630.53,183.47L632.24,184.91L633.97,184.3L634.8,185.7L637.42,184.95L642.13,181.12L644.41,180.08L646.56,181.27L644.96,182.98L645.59,188.82L647.16,189.89L648.99,189.27L650.96,186.35L653.41,185.35L657.13,185.33L660.72,183.73L661,182.61L663.32,181.16L665.46,181.45L667,182.72L667.74,186.52L664.55,195.99L661.42,195.19L658.94,196.11L656.34,195.73L653.97,198.19L651,199.5L646.82,199.79L644.55,198.85L641.82,196.29L639.52,195.42L637.5,198.26Z" class="land" id="BR-PE" title="Pernambuco"/>
    <path d="M606.07,139.2L604.37,142.06L604.44,143.75L605.54,146.67L608.58,152.7L608.11,154.01L608.3,157.39L609.29,160.48L608.93,161.46L609.64,167.53L611.23,174.26L613.6,174.95L614.07,176.1L612.45,179.41L612.88,181.24L611.46,181.55L611.75,184.46L612.93,185.78L612.43,188.27L610.05,190.66L608.05,191.66L604.9,194.04L603.7,196.18L601.34,196.72L600.26,199.32L598.36,198.89L595.7,199.93L594.27,201.51L590.48,202.04L588.07,200.44L585.91,201.04L583.34,200.09L581.35,201.1L582.69,204.42L582.43,207.29L580.18,210.94L577.52,212.7L575.79,212.27L572.61,214.05L571.95,215.08L569.54,215.29L566.98,214.14L565.57,211.24L564.27,209.77L562.84,209.78L561.04,209.65L561.93,206.29L562.01,202.36L562.5,201.18L561.44,199.29L560.72,196.12L562.21,194.02L564.31,189.21L565.53,184.1L566.84,182.89L570.78,182L576.48,178.56L579.26,175.31L583.05,174.69L584.59,175.82L589.33,175.19L590.07,174.38L590.69,170.27L588.6,168.44L588.33,164.18L590.84,161.45L590.7,157.76L589.73,156.03L590.6,153.35L589.39,150.86L591.93,147.73L592.44,145.49L594.24,143.39L596.77,143.2L600.4,139.34L600.4,136.73L601.98,137.85L605.27,138.3Z" class="land" id="BR-PI" title="Piauí"/>
    <path d="M535.74,368.28L529.76,368.75L526.87,370.95L522.21,368.61L516.04,369.17L514.08,371.22L511.89,370.97L509.79,373.13L510.31,374.98L502.91,374.71L501.21,373.34L495.34,372.08L492.26,372.41L490.82,371.23L487.18,371.29L485.48,367.96L484.89,364.58L482.79,363.12L479.48,364.57L477.91,362.58L479.72,359.48L479.47,358.04L481.43,351.04L480.59,348.88L481.48,347.88L483.17,346.42L484.13,341.52L486.45,340.07L487.9,335.71L491.91,333.81L493.91,332.39L500.73,332.91L502.14,331.92L506.93,333.54L509.98,333.28L513.69,334.91L514.52,336.04L520.52,336.38L522.34,335.85L525.79,339.65L525.69,343.34L527.13,347.56L529.65,351.08L528.71,353.04L529.9,354.67L535.72,354.47L535.65,357.94L537.6,356.52L539.38,356.77L539.58,360.02L540.55,361.19L537.56,360.99L537.71,363.71Z" class="land" id="BR-PR" title="Paraná"/>
    <path d="M572.73,340.55L571.44,339.32L572.08,336.9L574.19,335.57L577.12,335L577.67,332.65L573.61,332.73L571.72,330.69L575.42,329.11L577.31,329.17L581.53,327.12L585.79,326.54L588.83,326.94L596.22,323.53L595.34,322.29L597.96,316.26L600.16,313.9L601.35,314.37L601.76,317.28L605.96,318.6L608.79,319.03L608.04,322.12L608.74,326.31L606.54,327.81L602.88,329.01L598.99,332.35L598.98,335.11L597.42,336.34L593.4,336.24L589.84,336.67L588.04,335.73L586.5,337L583.46,337.06L581.05,335.79L577.42,337.37L576.59,336.04L573.22,337.45Z" class="land" id="BR-RJ" title="Rio de Janeiro"/>
    <path d="M666.3,172.68L662.93,172.95L660.09,172.08L656.51,172.32L654.08,171.86L653.51,170.7L651.54,171.56L651.59,175.53L649.5,177.31L648.76,175.18L646.48,175.04L644.54,175.82L643.98,174.68L641.81,174.36L643.27,171.05L645.1,169.06L644.37,168.01L639.55,169.47L639.23,170.7L636.03,172.87L632.17,171.5L631.58,170.41L632.96,168.48L634.39,168.59L636.5,165.46L639.88,158.8L641.49,157.55L644.49,156.57L645.3,157.5L647.98,157.75L649.82,159.14L653.64,159.26L656.63,158.67L660.18,159.26L662.4,160.88L663.81,163.81Z" class="land" id="BR-RN" title="Rio Grande do Norte"/>
    <path d="M362.64,205.76L360.82,204.98L364.95,201.92L364.95,200.78L369.14,200.73L371.01,202.41L372.31,201.13L376.45,199.34L377.68,201.01L380.48,196.68L382.38,197.09L384.43,196.2L386.8,196.48L386.72,194.46L388.71,192.37L388.81,190.26L390.33,189.93L392.34,187.18L398.97,187.15L400.29,187.84L401.87,190.11L403.43,190.72L404.2,192.74L405.88,194.7L407.87,195.61L409.8,193.75L410.85,194.59L412.08,195.95L410.83,199.92L412.1,203.07L411.14,207.47L412.21,210.75L411.66,216.31L422.2,216.34L422.8,217.38L426.29,217.66L427.16,219.88L425.36,222.09L425.54,224.91L426.44,225.21L427.72,229.46L427.33,231.91L425.37,235.31L423.79,236.3L422.59,240.16L419.17,242.63L416.34,240.77L411.99,241.36L408.95,241.31L406.31,238.58L406.04,237.42L403.44,237.34L399.75,235.97L397.6,234.33L396.9,232.56L395.17,233.02L391.1,230.71L388.65,231.46L384.38,230.68L383,228.46L380.87,227.56L380.19,226.37L378.29,225.99L377.77,223.69L375.39,221.14L374.51,217.96L375.47,216.17L374.17,212.59L374.13,211.17L375.6,208.46L375.47,205.02L374.13,203.43L372.91,204.95L371.22,204.32L368.04,204.37Z" class="land" id="BR-RO" title="Rondônia"/>
    <path d="M436.15,97.54L437.13,108.04L425.77,108L423.34,112.31L422.59,114.64L423.1,116.94L420.98,118.15L419.1,118.29L417.38,115.48L415.65,114.9L412.26,116.36L411.12,118.97L410.74,122.57L408.41,123.44L406.86,121.17L405.34,120.33L402.26,117.6L404.21,115.92L403.52,113.25L401.87,110.83L401.69,107.75L402.52,105.27L401.89,103.31L402.89,102.41L401.19,97.1L399.51,94.78L400.51,91.8L397.63,90.87L393.9,88.82L394.22,87.12L389.66,86.93L387.63,86.5L388.07,84.12L385.99,79.57L386.13,75.76L381.95,72.15L381.12,70.43L384.74,70.34L386.74,70.76L387.45,72.7L389.41,72.21L393.52,72.13L395.22,72.8L397.63,75.62L399.64,75.62L400.15,74.4L399.86,71.62L402.91,70.06L405.76,70.92L409.4,69.48L411.4,69.43L411.85,68.06L413.71,66.95L416.84,66.83L417.8,64.99L419.4,64.36L420.76,62.66L420.02,60.46L425.2,59.84L426.46,61.98L426.05,65.02L426.86,66.93L429.42,68.12L428.88,69.71L430.31,71.83L429.51,74.59L427.91,76.39L428.12,77.97L426.66,81.18L426.41,84.42L427.33,87.53L428.92,88.7L428.71,92.35L431.02,94.02L433.55,96.9Z" class="land" id="BR-RR" title="Roraima"/>
    <path d="M485.37,381.03L489.53,380.56L495.08,381.35L496.26,382.06L500.51,381.82L503.42,383.25L504.03,384.76L506.18,384.37L511.83,388.1L517.04,394.51L521.15,395.16L524.51,395.13L525.05,396.57L522.99,397.8L522.12,402.07L525.02,404.47L521.77,409.89L519.18,417.05L515.31,423.51L511.97,427.63L510.74,427.55L511.06,423.92L514.97,420.94L516.72,417L517.02,415.1L513.44,415.43L511.33,414.78L506.3,425.53L503.78,426.5L502.36,430.61L500.91,431.41L501.29,433.65L500.81,437.18L499.39,439.96L498.21,444.21L495.94,448.53L489.82,454.16L488.29,453.2L488.33,447.94L488.8,446.52L492.47,442.5L489.54,440.74L487.36,438.35L487.04,436.63L484.6,433.64L482.25,433.02L479.38,430.6L478.13,428.22L476.09,427.93L472.04,425.85L470.19,422.64L468.64,421.33L466.2,423.86L464.56,423.94L464.63,420.77L462.39,418.12L456.87,413.09L454.38,413.13L453.01,415.16L449.53,414.11L451.94,411.68L452.38,409.77L454.07,409.29L457.98,404.68L458.47,403.11L460.55,401.67L462.01,398.46L464.54,396.11L465.67,394.02L468.23,391.53L469.94,390.94L471.16,389.15L474.03,388.2L476.02,384.97L477.25,385.18L481.14,383.77L483.77,381.25Z" class="land" id="BR-RS" title="Rio Grande do Sul"/>
    <path d="M525.02,404.47L522.12,402.07L522.99,397.8L525.05,396.57L524.51,395.13L521.15,395.16L517.04,394.51L511.83,388.1L506.18,384.37L504.03,384.76L503.42,383.25L500.51,381.82L496.26,382.06L495.08,381.35L489.53,380.56L485.37,381.03L486.71,377.93L486.59,372.37L487.18,371.29L490.82,371.23L492.26,372.41L495.34,372.08L501.21,373.34L502.91,374.71L510.31,374.98L509.79,373.13L511.89,370.97L514.08,371.22L516.04,369.17L522.21,368.61L526.87,370.95L529.76,368.75L535.74,368.28L535.77,370.35L534.1,371.57L535.5,373.18L534.78,376.02L535.47,380.36L535.19,386.18L535.94,388.53L535.09,392.45L533.27,396.73L528,400.58Z" class="land" id="BR-SC" title="Santa Catarina"/>
    <path d="M642.12,221.39L640.34,221.94L637.22,220L637.43,218.63L635.47,216.12L635.43,213.49L637.17,213.96L639.34,212.65L638.87,210.95L639.38,207.48L636.91,204.02L637.19,201.98L641.16,203.83L643.42,204.41L646.75,206.31L647.55,207.82L652.14,210.61L652.51,211.41L651.04,211.89L646.56,214.93L643.71,220.41Z" class="land" id="BR-SE" title="Sergipe"/>
    <path d="M540.55,361.19L539.58,360.02L539.38,356.77L537.6,356.52L535.65,357.94L535.72,354.47L529.9,354.67L528.71,353.04L529.65,351.08L527.13,347.56L525.69,343.34L525.79,339.65L522.34,335.85L520.52,336.38L514.52,336.04L513.69,334.91L509.98,333.28L506.93,333.54L502.14,331.92L500.73,332.91L493.91,332.39L491.91,333.81L493.65,331.48L498.29,328.68L502.46,323.6L502.41,322.32L504.39,319.48L504.24,317.7L506.57,314.89L507.05,312.04L509.34,309.8L512.28,308.28L512.52,306.76L516.65,304.1L523.3,305.41L526.54,304.97L528.91,306.33L529.77,309.07L531.15,307.6L538.45,307.1L542.39,307.06L542.73,305.8L545.2,306.21L546.53,305.63L548.53,307.7L548.13,310.44L549.85,312.86L548.8,315.31L550.99,320.38L553.24,319.91L555.52,320.72L555.2,323.08L554.05,324.76L554.21,330.67L556.41,331.94L555.98,333.43L557.23,335.48L559.27,335.81L562.64,335.26L563.66,333.19L566.57,333.09L569.6,331.28L571.72,330.69L573.61,332.73L577.67,332.65L577.12,335L574.19,335.57L572.08,336.9L571.44,339.32L572.73,340.55L571,340.43L569.53,342.04L566.17,343.43L566.32,345.26L562.1,344.79L559.7,345.6L558.64,347.24L556.34,347.55L551.66,350.17L548.87,353.24L545.7,354.78L540.82,358.4L542.35,358.95Z" class="land" id="BR-SP" title="São Paulo"/>
    <path d="M558.22,233.84L554.93,234.71L552.29,236.22L548.56,236.84L547.01,238.12L544.05,238.93L539.65,237.66L539.86,236.23L535.38,236.35L533.69,237.73L532.63,233.53L531.29,231.55L529.66,233.63L528.66,237.3L523.87,235.5L517.53,234.38L515.85,231.99L516.3,230.28L515.71,228.05L515.95,222.24L515.06,220.88L516.22,217.17L516.58,213.51L518.53,207.61L519.94,205.04L521.63,200L524.45,196.12L525.93,195.45L528.78,190.87L530.27,185.18L528.7,183.73L528.32,182.24L529.97,179.9L529.67,176.9L531.31,175.58L534.94,174.13L534.99,172.89L537.34,169.33L538.63,168.74L539.19,167.04L538.51,165.35L539.98,164.1L537.8,162.06L534.45,161.64L536.39,160.1L538.12,159.81L539.83,160.75L542.35,160.65L542.93,161.92L545.77,162.82L546.96,166.55L547.38,170.49L546.3,174.29L546.12,177.36L543.86,179.47L546.15,180.27L547.05,182.61L550.85,187.58L554.79,186.17L555.9,186.92L555.55,190.01L552.54,191.74L551.9,195.09L550.28,196.66L552.1,197.96L552.97,200.61L555.36,201.82L554.49,204.28L555.8,205.29L557.23,208.29L558.76,208.28L561.04,209.65L562.84,209.78L561.94,211.08L557.62,213.95L555.19,219.96L556.33,221.17L558.53,221.58L559.36,222.94L558.12,224.55L559.85,225.33L557.36,227.06L557.21,229.39L558,230.57L558.9,230.87Z" class="land" id="BR-TO" title="Tocantins"/>
  </g>
</svg>