<?xml version="1.0" encoding="UTF-8"?>
<svg xmlns="http://www.w3.org/2000/svg" width="344.9" height="399.63" viewBox="307.55 57.19 344.9 399.63" style="background-color:#000000">
  <!-- Created using SVG Map Generator: dojo.amcharts.com/svg-map-generator -->
  <style>
    .land { fill: #ffffff; stroke: #000000; stroke-width: 0.65; }
  </style>
  <g id="polygons">
    <path d="M605.15,211.96L605.44,212.19L605.69,212.19L605.75,212.64L606.06,212.76L606.37,213.29L606.81,213.34L607,213.56L607.44,213.46L608.07,214.49L608.33,214.35L608.24,213.91L608.57,213.68L608.89,213.89L609.57,213.89L609.8,214.13L610.21,213.89L610.45,214.16L610.73,214.27L610.64,213.56L611.4,213.08L611.62,213.44L612.07,213.41L612.57,213.06L612.83,213.36L613.2,213.1L613.93,213.84L614.65,213.7L614.99,213.85L615.31,213.7L615.92,214.2L616.28,214.8L616.61,214.71L617.13,214.4L617.64,214.85L618.14,214.85L618.33,215.06L618.66,214.9L618.69,215.62L618.55,216.29L617.31,216.71L617.03,217.19L617.17,217.57L617.85,217.72L618.22,218.13L617.87,218.35L618.08,219.14L618.38,219.58L618.3,219.98L618.34,220.56L618.27,221.07L618.78,222.58L618.28,223.1L618.28,223.44L618.51,223.46L618.34,224.08L618.6,224.83L618.03,225.87L617.66,225.98L617.29,225.78L616.95,225.85L616.79,226.31L616.38,226.77L616.05,226.92L615.84,227.77L616,228.1L615.93,228.44L615.23,228.62L614.57,228.3L614.37,228.48L614.22,229L613.93,229.13L613.36,229.12L613.04,228.67L613.03,227.97L612.72,227.76L612.05,228.23L611.94,228.65L611.47,228.55L610.98,229.49L610.38,229.23L609.98,228.3L609.42,228.21L607.88,227.6L607.5,227.27L607,226.69L606.4,226.92L605.87,226.71L605.21,225.6L604.8,225.69L604.87,226.06L604.57,226.76L603.94,226.48L603.56,226.99L603.2,226.74L602.83,226.95L602.51,226.48L602.7,226.16L602.04,225.88L601.83,225.18L601.1,225.13L600.76,224.69L600.44,224.85L599.9,224.53L599.58,224.6L599.46,224.27L599.65,223.92L600.4,223.24L600.55,222.89L601.09,222.53L601.21,222.15L601.07,221.37L600.69,220.56L600.71,220.16L601.63,219.43L601.96,218.73L602.01,218.19L602.4,217.92L602.5,217.27L602.94,216.69L603.54,216.31L603.99,215.81L604.21,215.08L604.33,213.58L604.66,213.04L604.77,212.61L605,212.39Z" class="land" id="CL-ML" title="Maule"/>
    <path d="M608.43,260.12L608.14,260.19L608.03,260.59L608.23,261.11L608.07,261.65L608.42,263.01L608.8,263.38L608.77,263.75L608.33,264.56L608.41,265.09L608.31,265.48L607.65,265.26L607.39,265.29L607.2,266.63L607.79,267.47L608.14,267.37L608.38,267.6L608.35,267.98L608.03,268.73L607.51,268.71L607.36,268.87L606.93,270.07L607.01,270.46L606.92,270.94L606.11,270.91L606.13,271.19L605.87,271.43L605.3,271.27L604.75,271.69L603.88,271.61L603.38,271.41L603.17,271.69L602.81,271.64L602.03,271.25L600.78,271.62L600.47,271.33L600.33,271.01L599.52,270.81L599.23,270.2L598.63,269.58L598.39,268.82L597.49,268.34L597.22,268.01L596.34,268.11L595.87,268.02L595.16,267.75L594.92,267.85L594.49,267.65L594.16,267.06L593.71,267.18L593.44,266.96L593.09,267.22L592.52,266.93L592.39,266.51L592.19,266.48L592.41,265.77L592.71,265.59L592.6,264.78L592.28,264.24L592.53,263.87L592.93,263.79L593.32,263.48L593.84,263.31L594.3,262.75L594.95,263L594.75,262.45L594.93,261.82L594.71,261.33L595.57,260.18L595.69,259.73L596.01,259.22L595.95,258.82L596.15,258.49L595.96,258.09L596.69,258.42L597.39,258.09L597.74,257.74L597.74,257.45L598,257.25L598.39,257.52L598.88,257.15L599.24,257.41L599.03,257.97L598.79,258.03L598.93,258.5L599.53,258.46L600,258.83L600.36,258.67L600.75,259.08L600.96,258.87L601.32,258.92L601.71,258.81L601.86,259.23L602.46,259.2L602.98,259.55L603.35,259.62L603.54,259.43L604.26,259.68L605.21,259.62L605.39,259.33L606.02,258.98L606.59,258.87L607.04,258.94L607.46,259.47L607.93,259.64L608.3,259.57L608.59,259.96Z" class="land" id="CL-LR" title="Los Ríos"/>
    <path d="M612.68,235.44L612.54,235.73L612.55,236.33L612.08,237.1L612.17,237.6L612.38,238.08L612.73,238.59L612.75,239.02L612.59,239.59L612.65,240.06L612.25,240.41L612.24,241.21L612.65,242.53L612.96,243.12L613.01,243.55L613.41,244.52L613.63,244.81L613.55,245.49L613.03,245.34L612.8,245.1L612.26,245.34L611.54,245.2L611.15,245.32L610.91,245.13L610.47,245.13L610.23,245.39L610.04,245.98L609.31,246.25L609.29,246.63L608.93,246.51L608.58,246.96L608.43,247.42L607.92,246.99L608.15,246.68L607.88,246.41L608.07,245.91L607.86,245.75L608.07,245.03L607.54,244.53L606.66,245.01L605.95,244.08L605.52,244.34L605.08,244.29L604.63,243.65L604.2,243.53L603.88,243L603.19,242.96L602.66,242.65L602.04,241.67L601.93,240.68L601.4,240.82L600.75,240.89L600.75,240.46L600.16,240.41L599.69,240.11L599.02,240.15L598.65,240.34L597.5,240.46L597.6,240.68L597.43,240.96L597.15,241.08L597.26,241.41L597.73,241.32L597.99,241.65L597.77,242.05L597.94,242.29L597.65,242.81L597.15,242.91L597.26,243.6L597.09,243.96L596.66,244.12L596.4,244.65L597.45,245.22L597.35,246.15L596.94,246.2L595.32,247.8L595.64,248.07L595.89,248.86L595.81,249.15L595.53,249.19L595.32,248.4L595.01,248.28L594.63,248.45L593.8,249.2L593.63,248.38L593.75,247.68L593.9,247.33L593.81,246.83L594.12,246.34L594.27,245.07L594.2,244.27L593.95,243.48L593.52,242.61L593.01,241.74L592.65,241.34L592.66,240.78L592.49,240.37L592.57,239.95L593.15,239.28L593.19,238.64L593.09,238.29L592.62,237.79L592.59,237.43L592.82,236.86L592.83,236.19L593.12,235.74L593.95,236.26L594.23,236.52L594.74,236.54L595.69,236.32L596.05,236.1L596.27,235.79L596.55,234.96L596.5,234.11L596.68,233.71L596.77,232.56L596.61,232.16L596.28,231.98L596.66,231.59L596.93,230.9L597.37,231.38L597.9,231.38L598.24,230.46L598.01,229.99L598.01,229.56L598.51,229.38L598.91,228.21L599.34,228.18L599.25,228.88L599.51,229.23L599.46,229.55L599.93,229.8L600.03,230.04L600.31,230.06L600.8,230.53L601.02,231.19L601.06,231.68L601.33,232.17L601.14,232.57L600.67,232.43L600.42,232.52L600.44,232.83L600.82,232.85L601.49,233.06L601.74,232.76L602.6,232.78L602.9,233.49L603.56,233.77L603.99,234.14L603.82,234.47L603.5,234.76L603.32,235.34L603.32,235.79L603.73,235.63L604.16,235.79L604.39,235.63L604.8,235.7L605.23,235.51L605.48,235.84L606.55,235.65L606.9,235.02L607.13,234.94L607.58,235.09L607.95,235.42L608.18,235.3L608.89,235.25L609.18,234.64L609.12,234.07L609.33,233.89L609.68,234.29L609.76,234.62L610.85,234.8L611.03,235.16L611.92,235.09ZM590.88,248.31L590.44,247.89L590.39,247.3L590.95,247.77L591.04,248.03Z" class="land" id="CL-BI" title="Biobío"/>
    <path d="M612.68,235.44L611.92,235.09L611.03,235.16L610.85,234.8L609.76,234.62L609.68,234.29L609.33,233.89L609.12,234.07L609.18,234.64L608.89,235.25L608.18,235.3L607.95,235.42L607.58,235.09L607.13,234.94L606.9,235.02L606.55,235.65L605.48,235.84L605.23,235.51L604.8,235.7L604.39,235.63L604.16,235.79L603.73,235.63L603.32,235.79L603.32,235.34L603.5,234.76L603.82,234.47L603.99,234.14L603.56,233.77L602.9,233.49L602.6,232.78L601.74,232.76L601.49,233.06L600.82,232.85L600.44,232.83L600.42,232.52L600.67,232.43L601.14,232.57L601.33,232.17L601.06,231.68L601.02,231.19L600.8,230.53L600.31,230.06L600.03,230.04L599.93,229.8L599.46,229.55L599.51,229.23L599.25,228.88L599.34,228.18L598.91,228.21L599.24,227.39L599.31,226.97L599.2,226.13L599.42,225.77L599.31,225.36L599.58,224.6L599.9,224.53L600.44,224.85L600.76,224.69L601.1,225.13L601.83,225.18L602.04,225.88L602.7,226.16L602.51,226.48L602.83,226.95L603.2,226.74L603.56,226.99L603.94,226.48L604.57,226.76L604.87,226.06L604.8,225.69L605.21,225.6L605.87,226.71L606.4,226.92L607,226.69L607.5,227.27L607.88,227.6L609.42,228.21L609.98,228.3L610.38,229.23L610.98,229.49L611.47,228.55L611.94,228.65L612.05,228.23L612.72,227.76L613.03,227.97L613.04,228.67L613.36,229.12L613.22,229.48L613.15,230.29L613.27,230.96L613.13,231.21L612.84,231.03L612.56,231.13L612.51,231.84L612.16,232.61L612.45,233.04L612.37,233.43L612.6,233.58L612.57,233.86L612.23,234.07L612.53,234.33L612.6,234.81L613,235.22Z" class="land" id="CL-NB" title="Ñuble"/>
    <path d="M618.66,214.9L618.33,215.06L618.14,214.85L617.64,214.85L617.13,214.4L616.61,214.71L616.28,214.8L615.92,214.2L615.31,213.7L614.99,213.85L614.65,213.7L613.93,213.84L613.2,213.1L612.83,213.36L612.57,213.06L612.07,213.41L611.62,213.44L611.4,213.08L610.64,213.56L610.73,214.27L610.45,214.16L610.21,213.89L609.8,214.13L609.57,213.89L608.89,213.89L608.57,213.68L608.24,213.91L608.33,214.35L608.07,214.49L607.44,213.46L607,213.56L606.81,213.34L606.37,213.29L606.06,212.76L605.75,212.64L605.69,212.19L605.44,212.19L605.15,211.96L605.36,211.41L605.39,210.55L605.48,209.75L605.37,209.2L605.43,208.96L605.85,208.64L605.91,208.31L605.85,207.13L605.6,206.66L605.67,206.45L606.12,205.83L606.35,205.32L606.55,205.2L606.56,204.85L606.83,204.47L607.38,204.59L607.55,204.54L607.96,204.78L607.97,204.77L608.37,205.24L609,205.55L609.35,205.41L609.93,205.37L610.22,205.48L610.46,205.91L610.74,205.93L611.19,205.61L611.46,205.77L612.09,206.77L612.85,206.88L613.03,207.04L613.27,206.84L613.81,206.95L614.21,206.71L614.06,206.04L614.45,206.02L614.47,205.68L615.14,205.43L615.14,205.14L614.96,204.86L615.02,204.65L615.4,204.72L615.86,204.39L616.25,204.72L616.72,204.25L617.12,204.27L617.73,203.81L618.03,203.85L618.4,204.23L618.46,204.57L618.81,205.14L618.66,205.7L618.93,205.88L619.35,205.93L619.48,205.57L619.95,205.59L620.25,206.4L620.14,206.75L620.39,207.13L620.81,207.13L620.97,207.33L621.15,207.88L621.09,208.1L621.13,208.89L620.7,209.38L620.41,210.06L619.8,210.7L619.68,211.03L619.61,211.76L619.44,212.06L619.1,212.24L619.41,212.75L618.81,214.24Z" class="land" id="CL-LI" title="Libertador General Bernardo O'Higgins"/>
    <path d="M621.15,207.88L620.97,207.33L620.81,207.13L620.39,207.13L620.14,206.75L620.25,206.4L619.95,205.59L619.48,205.57L619.35,205.93L618.93,205.88L618.66,205.7L618.81,205.14L618.46,204.57L618.4,204.23L618.03,203.85L617.73,203.81L617.12,204.27L616.72,204.25L616.25,204.72L615.86,204.39L615.4,204.72L615.02,204.65L614.96,204.86L615.14,205.14L615.14,205.43L614.47,205.68L614.45,206.02L614.06,206.04L614.21,206.71L613.81,206.95L613.27,206.84L613.03,207.04L612.85,206.88L612.09,206.77L611.46,205.77L611.19,205.61L610.74,205.93L610.46,205.91L610.22,205.48L609.93,205.37L609.35,205.41L609,205.55L608.37,205.24L607.97,204.77L608.89,204.08L609.09,204.03L609.25,203.16L609.63,203.09L610.31,203.27L610.64,202.9L610.11,202.29L610.45,202.09L610.59,201.71L610.95,201.55L610.99,200.91L610.76,200.73L610.95,199.98L610.94,199.64L611.34,199.6L611.8,199.32L612.01,198.93L611.99,198.52L611.82,198.15L612.07,197.82L612.56,197.97L613.06,197.91L613.68,197.56L613.42,197.03L613.36,196.49L613.54,196.1L613.31,195.6L613.37,195.46L614.13,195.39L614.47,195.03L615.36,195.08L615.7,194.95L615.83,195.31L616.74,195.13L617.15,195.74L617.07,196.05L617.47,196.55L617.98,195.89L618.25,195.95L618.28,196.42L618.49,196.77L618.79,196.65L619.27,196.95L619.34,197.41L619.53,197.43L619.62,196.95L620.33,196.44L620.73,196.05L620.87,196.51L620.73,197.05L620.8,197.4L621.19,197.77L621.52,198.46L621.72,198.42L622.07,197.93L622.35,197.89L622.89,198.15L623.07,198.37L623.13,198.89L623.27,199.22L623.22,199.55L622.93,199.97L622.85,200.67L622.55,200.91L622.6,201.18L622.42,201.9L622.7,202.51L622.34,202.83L622.27,203.15L622.41,203.89L622.31,204.69L622.66,204.71L622.74,204.96L622.67,206.13L622.6,206.44L622.88,207.1L622.92,207.43L622.37,207.67L622.3,207.82L621.68,207.67Z" class="land" id="CL-RM" title="Región Metropolitana de Santiago"/>
    <path d="M621.62,163.1L621.85,164.08L621.81,164.83L622.16,165.3L622.26,166.1L622.21,167.32L622.06,167.99L621.79,168.4L621.81,168.68L622.24,168.67L622.54,168.78L622.78,169.02L622.89,169.34L622.79,169.68L622.5,169.88L622.36,170.72L621.88,171.29L621.36,171.49L620.44,171.1L620.23,171.36L620.42,171.69L620.4,172.07L620.04,172.32L619.88,172.58L619.74,173.28L619.46,173.88L619.42,174.5L619.08,175.2L618.92,176.46L619.16,176.92L619.49,177.25L619.4,177.39L618.92,177.41L618.59,178.15L618.37,178.41L618.16,178.33L618.06,177.93L617.81,177.92L617.37,178.62L617.28,179.47L617.11,179.83L617.22,180.38L617.06,180.84L617.01,181.7L616.93,182.1L617.02,182.5L617.44,183.35L617.76,183.79L617.78,184.4L617.93,184.78L618.22,185.08L619.12,185.19L619.43,185.42L619.69,185.93L619.42,186.64L619.15,186.73L618.65,186.57L618.56,186.86L618.95,187.59L618.87,187.91L619.02,188.42L618.99,188.66L618.46,189L618.09,189L618.12,188.7L617.88,188.48L617.94,188.19L617.67,187.73L617.33,187.85L617.01,187.77L616.46,187.38L616.39,187.02L616.14,186.75L615.67,186.45L614.78,186.85L614.25,187L613.95,186.62L613.49,186.62L613.42,186.95L612.29,187.98L611.99,187.63L611.52,188.17L610.9,188.25L610.53,188.17L609.88,187.83L609.45,188.26L609.44,187.67L609.7,186.08L609.54,185.51L609.75,185.26L609.45,184.78L609.64,184.2L609.2,182.49L609.21,181.82L608.9,180.91L608.6,178.89L608.43,178.41L608.55,177.66L608.54,176.81L608.35,176.28L608.27,175.58L608.12,175L608.19,174.35L608.07,173.49L608.22,172.85L608.15,172.51L608.29,171.98L608.36,171L608.66,170.17L608.9,170.38L609.27,170.49L609.62,170.41L610.19,169.35L610.36,169.55L610.69,169.21L610.69,168.29L610.45,167.79L611.18,167.35L611.44,167.05L611.48,166.51L611.15,165.93L611.05,165.39L611.18,165.11L611.15,164.74L611.43,164.26L611.15,163.94L611.05,163.55L611.28,162.61L611.05,162.24L610.97,161.66L610.74,161.35L610,160.87L609.86,160.71L610.14,160.55L610.73,160.48L610.89,160.16L611.09,160.13L611.44,160.45L612.23,160.44L612.31,161.32L612.5,161.52L613.03,161.45L613.06,161.94L613.53,161.84L613.72,161.5L613.83,160.86L614.04,160.58L613.96,160.34L614.69,159.95L615.22,160.05L615.81,159.72L615.88,159.24L616.41,159.24L616.69,159.08L616.91,159.19L617.34,159.19L617.27,159.81L617.64,160.19L617.58,160.5L617.71,160.73L617.72,161.23L617.86,161.5L617.77,161.84L618.13,162.24L618.39,162.21L618.51,161.97L618.92,161.97L619.33,162.18L620.03,163.18L620.61,163.36L620.91,163.34Z" class="land" id="CL-CO" title="Coquimbo"/>
    <path d="M609.86,160.71L609.8,160.08L609.9,159.64L609.75,159.43L609.86,159.12L609.58,158.26L609.67,157.8L609.85,157.4L610.62,156.99L610.88,156.31L611.32,155.87L611.43,155.37L611.24,155.05L611.28,154.85L611.57,154.66L611.57,154.17L612.04,153.82L612.33,153.05L612.35,152.74L612.18,152.45L612.35,152.21L612.44,151.71L612.46,151.1L612.34,150.65L612.54,150.25L612.61,149.34L612.72,148.94L612.94,148.69L612.88,148.38L613.04,148.24L613.08,147.86L613.32,147.35L613.4,146.84L614.08,146.79L614.4,146.44L614.35,145.75L614.56,145.3L614.36,144.6L614.13,144.22L614.24,143.56L614.06,143.08L614.14,142.82L614.02,142.35L614.17,141.92L614.49,142.09L614.72,141.96L614.9,141.35L615.37,140.89L615.1,139.92L615.11,139.73L615.39,139.04L615.82,138.7L615.63,138.39L615.83,138.1L615.95,137.46L616.13,136.89L616.02,136.44L616.18,136.12L616.08,135.56L616.34,135.49L616.53,134.87L616.22,134.78L616.48,134.17L616.29,133.51L616.39,132.74L616.56,132.49L616.6,132.02L617.25,132.02L617.84,131.6L618.52,131.62L618.7,131.41L618.8,130.98L619.19,131.01L619.36,131.35L620.87,131.53L621.37,131.13L621.87,131.03L622.41,131.48L622.63,131.16L623.12,131.26L623.81,131.23L624.02,131.38L624.95,131.35L625.58,131.51L625.43,131.11L625.7,131.11L625.72,130.85L626.14,130.85L626.41,130.65L626.59,130.93L627.68,130.5L628.42,130.45L628.69,130.36L629.28,129.76L629.32,129.49L629.53,129.23L629.25,128.86L629.22,128.58L628.9,128.31L629.64,127.78L629.67,127.43L629.55,127.08L629.7,126.93L629.53,126.66L629.79,126.56L630.16,126.76L630.49,126.63L631.08,126.63L631.48,126.75L632.42,126.02L633.03,125.82L632.6,127.17L632.62,127.81L633,128.35L632.97,129.15L633.26,129.52L633.45,129.95L633.54,130.67L634.09,132.92L634.15,133.37L634.07,133.68L633.07,134.47L632.84,134.77L632.7,135.43L632.68,136.12L632.88,136.95L634.86,139.77L635,140.27L634.83,140.75L634.77,141.32L634.41,141.31L633.89,141.51L633.29,141.6L632.98,141.87L632.76,142.36L632.26,142.26L631.71,141.86L631.06,141.92L630.84,142.12L630.44,142.88L630.41,143.54L630.03,144.43L629.41,144.9L629.26,145.81L629.06,146.25L628.82,146.51L628.75,146.75L628.89,147.11L628.51,147.45L628.12,149.14L627.79,149.54L627.1,149.81L626.59,150.98L626.17,151.72L625.73,151.5L625.62,151.59L625.46,152.21L625.12,152.66L624.34,153.38L624.18,153.92L624.16,154.86L623.96,155.06L623.64,155.56L623.52,156.16L623.68,156.75L623.68,157.11L623.21,158.08L623.12,158.44L623.21,159.25L623.15,159.69L622.83,159.97L622.3,160.09L622.21,160.32L621.72,160.68L621.8,160.97L621.35,161.3L621.26,162.08L621.44,162.46L621.62,163.1L620.91,163.34L620.61,163.36L620.03,163.18L619.33,162.18L618.92,161.97L618.51,161.97L618.39,162.21L618.13,162.24L617.77,161.84L617.86,161.5L617.72,161.23L617.71,160.73L617.58,160.5L617.64,160.19L617.27,159.81L617.34,159.19L616.91,159.19L616.69,159.08L616.41,159.24L615.88,159.24L615.81,159.72L615.22,160.05L614.69,159.95L613.96,160.34L614.04,160.58L613.83,160.86L613.72,161.5L613.53,161.84L613.06,161.94L613.03,161.45L612.5,161.52L612.31,161.32L612.23,160.44L611.44,160.45L611.09,160.13L610.89,160.16L610.73,160.48L610.14,160.55Z" class="land" id="CL-AT" title="Atacama"/>
    <path d="M633.37,88.54L633.14,89.59L630.28,91L628.18,91.66L627.13,91.96L625.02,93.84L624.72,93.49L624.62,93.14L624.31,92.73L623.73,92.58L623.42,92.37L623.06,92.52L622.2,92.36L621.34,92.43L621.06,92.54L620.85,91.97L621.06,91.64L620.97,91.02L620.57,90.1L620.59,89.8L620.3,89.39L620.27,89.02L620.59,88.5L620.38,87.83L620.15,87.6L619.97,86.85L620.06,86.05L619.97,85.06L620.2,84.76L620.28,84.39L620.08,83.71L620.45,83.4L620.57,82.86L620.33,82.48L620.46,82.12L620.4,81.78L620.59,81.39L620.53,81.05L620.62,80.62L620.46,79.7L620.52,79.35L620.35,79.1L620.4,78.27L620.14,77.51L619.91,77.24L620.02,76.72L619.81,75.68L619.7,75.37L619.33,74.76L619.37,74.27L620.87,73.32L621.62,73.08L622.07,72.76L622.49,72.68L622.99,72.76L623.76,72.5L624.25,72.46L624.95,72.5L625.34,72.46L625.57,72.56L626.19,72.56L626.26,72.94L626.62,72.9L627.16,73.32L627.37,73.04L628.23,72.98L628.61,72.72L628.78,72.44L629.57,71.8L629.79,71.99L630.12,72.7L630.32,72.89L630.95,73.19L631.87,74.05L632.15,74.53L632.65,74.78L633.49,75.4L633.85,75.88L633.47,76.08L633.18,76.44L632.4,77.62L631.93,78.07L631.87,78.49L632.5,79.06L633.01,79.43L633.11,79.95L632.74,81.09L632.23,81.08L631.26,81.38L631.15,81.68L631.65,81.89L631.63,82.54L632.03,83.38L631.58,83.54L631.31,83.91L631.34,84.16L631.62,84.65L631.97,84.97L632.78,85.36L633.36,85.69L633.58,86.03L633.04,86.51L632.86,86.88L632.87,87.97L633,88.32Z" class="land" id="CL-TA" title="Tarapacá"/>
    <path d="M629.57,71.8L628.78,72.44L628.61,72.72L628.23,72.98L627.37,73.04L627.16,73.32L626.62,72.9L626.26,72.94L626.19,72.56L625.57,72.56L625.34,72.46L624.95,72.5L624.25,72.46L623.76,72.5L622.99,72.76L622.49,72.68L622.07,72.76L621.62,73.08L620.87,73.32L619.37,74.27L619.5,73.74L619.38,73.59L619.41,73.16L619.13,72.43L619.16,72.01L618.78,70.36L618.89,70.05L618.94,69.54L618.83,69.22L618.95,69.06L618.92,68.73L619.05,68.19L619,67.85L619.2,67.63L618.84,67.11L618.48,66.73L618.68,66.62L619.09,66.59L619.93,66.68L620.54,66.57L621.1,66.26L621.52,66.19L621.83,66.01L622.21,65.56L622.66,65.13L622.83,64.87L623.31,63.77L623.25,63.3L623.08,63L622.95,62.3L622.72,61.72L622.78,61.37L623.03,61.1L623.74,61.13L624.09,61.07L624.45,60.83L625.46,59.84L625.5,60.49L625.73,61.04L626.37,61.61L626.65,61.93L626.85,62.31L626.91,63.22L627.1,63.73L627.42,63.63L627.64,63.87L628.38,64.18L628.76,64.12L628.79,64.62L628.26,65.09L628.38,65.48L628.7,65.87L628.86,66.65L628.88,67.24L629.22,67.9L629.15,68.92L629.22,69.32L629.46,69.77L629.41,70.12L629.85,71.06L629.87,71.32Z" class="land" id="CL-AP" title="Arica y Parinacota"/>
    <path d="M643.34,453.11L643.56,453.28L643.51,453.92L642.6,453.46L642.45,452.7L643.05,452.84ZM644.53,452.92L644.7,454L644.48,454.16L643.97,453.67L644.04,453.02ZM641.32,452.85L641.08,453.12L640.98,453.81L640.22,454.15L640.29,453.38L639.86,453.5L639.5,453.31L638.35,453.75L638.06,453.06L638.96,452.72L639.25,452.91L640.08,452.87L640.67,453.12ZM642.31,451.86L641.76,452.02L641.52,451.74L640.92,451.65L641.02,450.59L641.28,450.5L642.07,451.14L642.09,450.42L641.86,450.08L641.96,449.57L642.44,449.38L642.55,450.21L642.42,451.23L643.15,451.37L643.19,452.24L642.58,452.44ZM640.2,448.32L640.66,449.11L640.06,449.87L639.45,449.98L639.88,449.08L639.74,448.53ZM623.85,446.2L624.44,446.64L623.94,447.09L623.16,447.07L623.38,446.69L623.16,446.03ZM646.42,445.17L646.54,445.61L646.09,446.03L644.8,445.94L644.69,445.27L645.07,444.7L645.34,444.59L646.26,444.62ZM649.8,443.99L649.19,444.99L648.68,445.32L648.09,445.08L648.18,444.27L648.95,443.67ZM646.31,441.76L646.61,442.29L646.45,442.9L645.84,442.29L644.75,441.73L644.9,441.31ZM637.39,450.13L637.12,450.61L637.5,450.8L636.82,451.37L636.25,450.77L636.17,449.7L635.27,450L635.14,449.6L635.39,448.69L634.79,448.4L634.59,448.01L634.03,448.41L632.63,447.83L631.61,447.86L631.32,448.25L630.55,448.43L630.21,447.84L629.75,447.38L629.76,447.07L630.25,446.78L630.85,446.78L631.18,446.02L629.88,446.7L629.76,446.52L630.3,445.96L630.3,445.46L630.63,444.98L630.25,444.5L629.81,444.7L629.73,445.03L629.2,445.05L628.19,444.77L627.81,444.42L627.52,443.42L626.96,443.35L627.34,444.37L626.51,444.79L626.14,444.82L625.93,445.17L626.39,445.4L627,446.12L627.06,446.41L627.57,446.74L627.13,447.15L627.86,447.49L628.3,448.27L628.02,448.41L627.7,447.93L627.13,448.22L626.76,447.9L626.73,447.07L626.44,447.03L626.31,448.19L626.04,448.23L625.93,447.08L625.51,446.69L624.69,446.48L624.6,445.98L624.13,445.94L623.73,445.45L624.2,445.22L624.45,444.59L625.18,444.27L625,443.91L624.57,444.32L624.3,444.27L623.83,444.79L622.8,444.99L622.76,444.4L621.92,443.66L621.35,443.54L622.01,442.63L622.5,442.31L623.39,442.16L624.36,442.14L624.85,442L625.06,443.18L625.33,441.87L626.12,441.86L626.97,441.34L628.73,441.3L629.18,441.43L629.38,441.2L630.8,441.18L631.58,440.74L632.84,440.63L633.33,440.45L633.9,440.6L634.65,441.41L634.74,442.29L633.98,442.51L633.2,442.94L632.52,443.53L631.44,443.27L630.86,443.02L630.35,442.51L629.55,442.15L629.45,442.3L629.9,442.96L631.17,443.71L632.58,443.85L632.93,444.08L634.12,443.91L634.36,443.97L634.79,444.7L635.73,445.06L635.5,445.46L634.98,445.42L633.98,445.55L633.44,445.73L632.51,445.65L632.26,445.07L632.02,445.12L632.4,445.94L633.33,446.03L633.85,445.94L634.66,446.18L634.82,446.95L635.12,446.69L635.49,446.94L636.23,447.02L636.15,447.94L636.76,447.83L636.87,448.13L636.58,448.74L637.06,449.45L637.54,449.71ZM638.3,444.79L638.47,444.22L638.29,443.9L637.5,444.51L636.74,444.65L636.14,444.13L636.47,443.84L636.09,443.45L635.9,442.87L636.09,442.19L635.91,441.13L635.31,441.36L634.79,441.3L634.57,440.79L634.66,440.34L635.37,440.38L635.71,440.16L637.84,440.13L638.92,440.24L639.56,440.54L640.15,440.34L641.63,440.36L642.89,440.45L643.83,440.99L644.79,442.42L644.87,443.13L644.58,444.06L643.5,445.45L643.14,445.67L642.01,445.47L641.67,445.11L641.94,444.42L641.77,443.94L641.31,443.8L640.47,444.03L640.17,445.04L639.47,444.97L638.96,445.08ZM619.27,442.57L619.49,442.98L618.93,443.2L618.46,442.9L618.08,443.84L617.11,443.61L617.54,442.9L616.94,442.44L616.62,442.49L615.95,443.12L615.7,442.8L615.9,442.37L615.64,442.15L615.22,442.6L614.83,442.23L614.4,442.51L613.78,441.89L613.81,440.72L614.45,440.72L615.32,441.1L615.32,440.52L616.02,441L616.5,441L616.78,440.63L617.71,440.05L618.83,439.97L619.11,440.16L617.61,440.75L617.57,441.27L617.06,441.24L616.89,441.48L615.92,441.2L615.84,441.61L616.46,441.86L617.13,441.86L617.32,441.69L617.93,442.08L618.38,442.15L618.73,441.86L619.16,441.81L619.4,442.1ZM622.35,441.39L621.99,440.78L622.32,440.4L622.16,440.02L622.89,439.67L623.56,440.58L623.95,440.48L623.38,439.77L624.19,439.6L625.44,439.97L625.3,440.62L625.59,440.63L626.12,440.05L627.12,440.45L627.64,440.49L627.85,441.02L626.87,441.15L626.12,441.39L625.75,441.14L625.55,441.51L624.82,441.48L624.46,441.76L623.36,441.91L623.05,441.66L622.69,441.97L622.25,441.96ZM618.27,439.31L618.43,439.69L617.59,439.77L617.01,440.03L616.24,440.03L616.14,439.72L616.81,439.13ZM613.83,440.45L613.2,440.74L612.09,440.14L612.05,439.61L611.48,439.64L611.19,440.63L610.45,440.58L610.08,439.77L610.88,439.03L611.15,439.21L612.1,439.31L612.54,439.23L613.09,439.78L613.66,439.47L614.11,439.88ZM606.23,437.35L606.39,437.82L605.93,438.07L605.74,437.83L605.88,437.3L605.49,436.64L605.66,436.4ZM597.63,434L598.28,434L598.01,434.53L597.61,434.4ZM603.13,432.31L602.96,432.96L602.38,432.92L602.04,433.55L601.61,432.73L602.28,432.36L602.6,431.96ZM618.56,430.37L619.13,430.32L619.81,430.74L619.87,431L619.47,431.49L618.92,431.42L617.97,431.01L617.48,430.18L618,429.9ZM603.47,428.9L603.92,429.34L603.83,430.49L603.51,430.5L603.43,431.22L603.06,431.2L602.82,430.85L602.45,431.27L601.85,431.11L601.74,430.56L602.34,430.14L602.9,430.09L603.2,429.72L602.71,429.11L603.33,428.68ZM618.42,428.89L619.12,428.55L619.28,428.76L619.24,429.53L619.05,429.86L618.4,429.86L617.54,429.06L617.81,428.77ZM596.5,428.8L596.51,429.55L595.45,429.47L595.26,428.72L594.87,428.92L594.35,428.89L595.09,428.15L595.75,428.22L596.44,428.56ZM608.73,428.9L608.52,427.61L608.73,427.24L609.33,427.06L609.75,427.66L610.05,427.05L610.4,428.43L610.71,428.39L610.74,427.42L611.33,427.72L611.64,428.84L611.48,429.11L612.01,429.86L612.61,429.77L612.61,429.22L612.82,428.78L613.15,428.71L613.61,429.19L613.54,429.83L613.73,430.19L613.78,431.42L613.44,431.74L612.81,432.96L612.07,432.82L611.38,432.12L610.96,432L611.33,431.36L611.1,430.92L610.7,431.15L610.29,430.74L610.19,430.33L610.55,430.04L610.29,429.64L609.82,429.65L609.91,430.14L609.76,430.68L609.48,430.83L608.56,430.96L608.18,430.07L608.25,429.83L609,429.02ZM605.69,430.56L604.94,429.91L604.83,429.63L605.13,429.13L604.89,428.64L604.48,429.22L604.01,428.62L604.21,427.91L603.77,427.1L603.98,426.83L604.8,426.95L605.02,427.47L605.3,427.62L605.56,426.82L606.24,425.86L606.57,425.98L607.15,426.77L607.96,426.48L608.55,426.85L608.07,427.42L608.16,428.25L607.81,428.37L608.03,428.99L608.49,429.23L608.07,429.82L607.66,430.04L607.33,429.83L606.19,428.04L606.21,428.51L606.48,429.41L607.1,430.01L607.4,430.65L607.73,430.79L607.69,431.38L607.1,431.2L607.15,431.84L606.94,432.12L606.04,432.22L606.31,431.15L606.14,430.6ZM618.01,422.65L617.86,423.36L618.08,424.66L618.27,425.19L618.28,426.11L618.03,426.32L618.47,426.98L618.94,427.94L618.56,428.51L618.13,428.65L617.69,428.28L616.78,427.14L616.3,427.4L616.91,428.28L617.11,428.71L617,429.17L617.27,429.46L617.37,429.96L617.33,430.82L616.19,430.37L615.1,429.36L615.23,429.13L614.62,428.2L614.51,427.14L614.78,426.77L614.49,426.14L614.64,425.72L615.47,425.49L616.81,426.03L616.86,425.55L616.08,424.99L615.97,423.84L616.36,423.63L617.13,422.84L617.37,421.97L617.89,422.04ZM591.41,420.79L592.16,421.16L592.26,421.71L591.77,421.68L591.69,422.11L591.22,422.34L590.88,421.51L591.34,421.24ZM594.82,420.02L594.07,420.52L594.82,421.57L594.12,422.11L593.56,421.7L592.79,421.38L592.33,420.84L591.75,420.52L591.87,420.17L592.46,420.73L592.87,420.74L593.24,421.03L593.2,419.74L593.53,419.9L594.38,419.72ZM601.63,428.85L601.28,429.12L600.61,428.53L600.07,429.17L599.61,429.08L599.36,429.54L598.73,429.47L598.42,428.99L598.04,429.14L597.88,428.7L598.44,428.62L599.44,427.91L599.69,427.51L599.18,427.31L599.95,426.41L600.03,425.87L599.6,425.93L599.37,425.44L598.73,426.06L598.19,425.85L597.86,426.14L597.75,425.48L597.39,425.58L597.12,426.63L597.19,427.18L597.55,427.48L597.57,427.82L597.26,428.27L596.31,427.69L595.75,427.62L595.25,427.24L595.83,426.93L595.47,425.48L595.92,424.97L595.06,424L593.7,424.52L593.45,424.36L594.09,423.83L594,423.36L593.47,423.39L593.06,423.18L593.06,422.68L593.3,422.26L594.11,422.33L594.6,422.02L595.26,422.34L595.55,422.95L596.31,423.37L598.13,423.42L597.28,422.98L596.67,423.13L595.88,422.96L595.62,422.57L595.85,421.93L595.24,421.8L594.66,421.07L594.86,420.66L595.57,420.93L595.85,421.3L596.16,421.08L596.88,421.02L596.85,420.37L596.64,419.99L597.66,419.71L597.6,420.3L598.01,420.71L598.04,419.99L598.43,420.31L598.62,421.29L598.93,421.62L598.62,422.92L599.12,422.68L599.38,421.68L599.01,420.77L599.65,420.94L600.01,421.38L599.91,421.75L600.36,422.28L600.48,422.79L600.32,423.25L600.84,423.29L600.8,422.46L600.64,421.65L601.6,422.38L602.01,422.11L602.68,422.94L601.99,423.48L602.06,423.79L602.73,423.81L603.96,424.21L603.65,424.61L604.34,424.84L604.23,425.34L603.83,426.19L603.22,425.69L603.04,425.95L603.1,426.63L602.5,426.46L602.88,427.15L602.77,427.58L603.26,427.69L603.21,428.3L602.23,428.35L602.11,427.78L601.73,427.77ZM588.88,417.76L589.2,418.12L589.11,418.61L588.25,418.84L588.26,418.26ZM616.18,412.57L616.47,412.95L615.87,413.43L615.36,413.26ZM594.5,412.8L594.88,413.23L594.74,413.94L594.31,413.95L594.06,413.7L594.19,413.23L593.96,413.07L593.36,413.12L592.93,412.99L592.61,413.17L591.93,413.15L592.01,412.85L592.6,412.6L593.09,412.23L593.56,412.64ZM596.28,418.75L596.82,418.88L597.07,419.43L596.42,419.28L596.1,419.42L595.41,419.21L594.96,418.84L594.6,418.29L594.3,418.78L593.5,418.83L593.17,418.63L593.36,418.12L593.14,417.34L592.75,417.28L591.91,416.55L591.84,416L591.33,416L590.97,415.32L590.5,415.6L589.9,415.69L589.35,415.94L588.69,415.75L588.29,415.19L587.95,415.77L587.51,415.85L587.46,415.21L586.81,414.96L586.67,414.22L586.09,414.15L585.95,413.84L585.32,413.56L585.52,412.63L585.22,412.23L584.43,411.76L584.11,411.37L584.7,410.92L585.3,411.56L586.17,411.91L586.06,412.27L586.6,412.85L587.1,412.9L586.81,413.44L587.19,413.88L587.45,413.57L588.06,414.06L588.62,413.84L588.9,414.43L589.36,414.06L589.97,414.13L590.51,414.52L590.31,414.81L590.82,415.06L591.01,414.61L591.49,415.37L591.69,415.24L592.17,415.51L592.96,416.49L592.71,415.33L593.2,415.6L593.17,416L593.57,416.12L593.62,416.62L593.36,417.03L593.71,417.84L594.22,417.49L593.95,417.03L594.12,416.31L594.48,416.41L594.82,416.94L595.41,417.59L595.03,418.13L595.66,418.03L596.38,418.57ZM586.65,408.09L586.92,408.3L587.17,408.98L587.11,409.72L586.4,409.22L586.15,408.72ZM628.02,410.23L628.38,410.43L628.79,410.39L629.33,410L630.12,409.87L630.96,409.23L631.23,408.67L631.5,408.79L632.06,409.55L632.43,409.86L632.4,416.87L632.37,423.97L632.35,431.16L632.31,439.42L631.97,439.77L631.54,439.33L630.59,439.16L631.56,440L631.16,440.33L628.96,440.73L628.46,440.63L627.26,440.04L625.5,439.53L624.17,438.75L623.43,438.61L623.48,437.69L623.25,437.61L623.22,438.52L622.84,438.97L622.3,438.94L621.99,438.63L621.65,439.16L620.97,439.37L620.73,438.84L620.3,439.31L619.71,439.48L619.16,439.21L619.04,438.65L619.46,438.02L619.05,437.95L618.81,438.46L618.78,439.13L616.78,438.42L616.65,438.71L616.11,438.84L615.61,439.24L615.09,438.98L614.99,438.52L615.44,438.14L616.67,437.75L617.29,437.28L618.02,436.41L617.72,436.14L617.31,436.27L616.62,436.88L617,437.17L616.56,437.55L616.08,437.72L615.74,437.58L615.16,438.01L614.28,437.84L614.62,437.07L614.02,437.17L614.1,437.61L613.62,438.28L613.37,437.95L613.7,437.53L613.67,436.22L613.31,436.73L612.88,436.46L612.42,437.29L611.86,436.98L611.42,437L611.42,436.59L611.69,436.14L611.61,435.52L610.55,435.35L610.51,436.51L610.21,436.41L609.94,437L609.04,436.48L608.37,436.65L608.28,436.03L607.75,435.85L607.71,436.26L607.26,436.22L607.21,436.7L606.11,436.6L605.96,436.13L606.67,435.67L605.8,435.57L605.96,435.02L606.29,434.74L605.89,434.3L606.02,433.89L606.43,434.11L606.87,434.61L607,435.11L608.13,435.53L607.8,434.74L608.51,434.78L608.05,434.08L607.54,434.27L607.15,434.17L607.05,433.49L607.61,433.15L607.98,433.31L608.85,434.61L609.8,434.51L609.41,433.82L609.65,433.69L611.05,433.76L610.98,433.47L610.29,433.25L610.83,432.87L612.21,433.62L613.62,433.89L614.22,433.45L614.26,432.48L614.81,432.12L615.51,432.14L615.88,432.51L616.35,432.22L616.78,432.4L616.05,433.48L615.86,433.61L615.98,434.33L615.49,435.19L616.06,435.05L616.1,434.52L616.46,433.61L616.98,433.11L618.13,434.3L618.47,434.41L619.42,435.03L619.6,434.4L618.22,433.75L617.97,433.01L617.54,432.68L617.57,432.16L617.04,431.54L616.4,431.39L615.23,431.47L614.74,431.15L614.47,429.93L614.24,429.36L617.33,431.29L619.05,432.22L619.66,432.65L620.08,433.25L620.92,433.01L620.84,432.68L620.29,432.55L620.03,432.16L620.49,431.83L621.02,431.19L621.6,431.51L621.81,431.84L621.8,432.49L622.3,432.96L622.58,433.52L622.52,434.64L622.98,434.16L623.49,433.99L623.05,433.52L623.11,433.02L622.53,432.05L622.71,431.61L623.36,431.78L624.03,432.12L624.84,433.25L625.2,432.44L625.54,432.45L627.22,433.61L627.6,433.79L627.7,434.28L626.61,435.41L626.49,435.81L626.87,435.95L627.22,435.2L627.54,434.94L628.25,435.39L628.11,434.27L628.33,433.89L628.72,433.87L629.17,434.18L629.53,434.16L629.58,433.66L628.77,433.12L628.13,433L627.28,432.17L625.24,431.25L625,430.86L624.62,430.83L622.52,430.01L621.15,429.01L620.78,427.43L620.44,426.79L620.14,425.31L620.22,424.63L620.52,424.34L622.55,423.26L623.12,423.36L624.35,422.97L626.64,421.45L626.93,421.06L626.98,420.51L626.71,419.25L624.16,419.29L623.14,419.61L622.4,419.66L621.99,419.83L621.43,420.32L620.68,420.29L620,420.75L619.57,420.65L618.88,419.73L618.11,419.34L617.86,418.64L617.95,417.47L618.17,416.78L618.12,415.96L618.29,414.72L618.89,414.65L619.11,414.91L619.04,415.37L619.68,415.38L620.54,414.72L620.89,413.4L620.73,413.1L619.87,412.8L619.57,412.84L619.37,411.93L618.95,411.65L618.32,411.67L618.31,411.4L619.43,411.11L620.58,411.07L620.69,411.38L621.59,412.49L622.3,412.58L622.98,411.72L623.69,411.62L624.83,409.89L624.57,408.83L624.88,408.18L625.49,407.9L626.19,407.42L626.54,407.66L627.71,409.86ZM591.31,410.66L590.53,410.91L590.41,410.49L590.74,410.08L589.73,410.08L589.05,410.73L589.02,410.2L588.59,409.97L588.57,409.17L589.63,408.87L590.21,408.03L589.76,407.74L589.79,407.14L590.52,407.07L590.86,406.86L591.69,407.11L592.2,406.81L592.57,407.7L592.43,408.15L591.75,408.87L592.1,409.25L592.01,409.71L591.63,410.48ZM586.27,405.58L586.46,406.68L586.22,407.29L585.78,406.81L585.85,405.84ZM584.72,406.63L584.49,406.1L584.15,406L583.84,406.34L583.59,406.11L583.66,405.26L582.87,404.62L582.83,404.21L583.09,404L583.59,404.64L584.03,404.35L584.93,404.23L585.38,404.34L585.8,405.1L585.34,406.68ZM591.84,406.48L591.38,406.67L590.99,406.19L591.41,406.04L590.01,404.89L589.6,404.19L589.29,403.98L589.4,403.5L590.06,403.64L590.42,404.14L591.48,404.7L591.76,405.14L591.63,405.87L592.01,406.2ZM589.06,406.72L588.55,406.33L588.55,405.77L588.09,405.67L588.5,405.2L588.16,404.79L588.39,404.51L588.33,403.78L587.67,403.51L587.36,403.74L586.75,403.44L586.85,403.12L587.31,402.76L587.68,402.69L588.16,403.01L589.09,403.94L589.85,404.79L590.41,405.55L590.1,406.09L589.74,406.21ZM583.78,403.91L583.74,403.26L584.11,403.14L584.6,402.73L585.3,402.5L584.85,403.18L584.72,403.69ZM586.14,401.33L585.97,401.67L585.09,402.15L584.84,402.43L584.22,402.69L584.45,401.94L585.08,401.35L585.73,400.59L586,400.84ZM592.33,404L591.99,404.04L591.04,402.82L590.3,402.25L589.31,401.73L589.16,401.2L589.28,400.67L589.61,400.43L590.12,400.95L590.53,401.17L591.73,402.37L591.93,402.64L592.33,403.65ZM584.11,402.15L583.85,402.66L583.41,402.76L583.25,402.33L583.71,401.93L583.45,401.41L583.87,399.96L584.1,399.48L584.4,399.92L584.81,399.92L584.97,400.3L584.28,401.2L584.54,401.45ZM591.49,399.86L591.85,399.39L592.25,399.67L592.41,400.42L592.36,401.29L592.09,401.74L591.56,401.35L591.3,400.54L590.47,400.23L590.19,399.53L590.3,399.28L590.81,399.09ZM581.65,400.09L581.19,400.04L581.4,399.36L581.38,398.74L581.7,398.08L581.98,397.93L582.37,398.24L582.13,399.6ZM586.6,399.62L586.79,399.15L586.53,399.02L586.06,397.86L587.52,398.56L587.55,399.22L588.14,399.26L588.74,399.75L588.59,400.11L589.27,400.03L588.88,400.93L588.11,400.84L587.55,400.3L587.11,400.21ZM591.69,398.21L591.83,398.6L591.65,399.11L591.3,399.2L591.07,398.88L590.82,398.05L590.58,397.88L590.5,397.3L591.21,397.56L591.29,398.19ZM583,401.63L583.03,402.15L582.53,403.02L581.95,402.69L582.28,402.28L581.62,401.53L581.94,401.17L581.84,400.59L582.47,399.24L582.66,399.76L583.2,400.05L583.46,399.52L583.03,398.7L583.26,398.6L583.3,397.86L582.75,397.2L582.9,396.76L583.41,397.08L583.65,396.93L584,398.82L583.46,400.27L583.44,400.93ZM590.47,398.29L590.59,398.74L590.19,399.01L589.63,398.96L588.19,397.86L588.3,397.4L588.93,397.34L588.85,396.55L589.46,396.56L589.23,396.05L589.69,396.1L589.83,396.88L590.08,397.3L589.97,397.8ZM587.19,393.18L587.69,393.9L587.38,394.3L586.9,394.13L586.99,393.15ZM588.47,394.3L588.14,394.08L587.97,393.37L588.02,392.58L588.72,392.53L589.14,393.69L589.16,394.31ZM581.95,393.09L582.11,393.23L582.01,394.13L581.58,393.97L581.3,394.56L580.89,394.6L581.08,395.64L580.85,396.16L580.51,396.52L579.66,396.87L579.57,396.21L579.65,395.69L580.36,395.11L580.49,393.52L580.4,392.76L581.01,392.24L581.74,393.1ZM591.66,392.17L591.96,392.67L591.77,393.5L591.04,393.43L590.65,392.74L591.09,392.17ZM584.19,393.56L583.72,394.37L582.87,394.63L582.56,394.58L582.13,394.91L581.94,394.67L583.16,393.68L583.78,392.92L582.75,393.5L582.43,393.07L582.84,392.6L583.41,392.39L583.77,391.58L584.38,391.36L585.28,391.51L585.64,392.07L585.69,392.5L585.1,392.45L585.73,393.52L585.34,393.95L584.93,393.86L584.95,393.48L584.36,392.87ZM583.2,390.45L583.11,390.91L582.1,391.13L581.95,390.96L582.38,390.23L582.84,390.22ZM586.71,390.32L586.91,390.46L586.95,391.05L586.68,391.5L586.28,391.21L585.49,390.87L585.25,389.93L586.06,389.2L586.4,389.35L586.39,389.7L585.98,389.67L585.93,390.13L586.44,390.43ZM588.06,391.87L587.77,391.39L587.53,390.3L587.4,389.33L587.48,387.94L587.75,388.52L587.85,389.22L588.1,389.79L588.23,390.56L588.47,391.13L588.44,391.44ZM586.98,388.68L587.02,389.27L586.62,389.31L586.16,388.89L585.79,389.2L585.02,389.42L585.08,390.01L584.44,390.23L584.06,389.88L584.15,389.05L583.62,389.85L582.98,389.54L583.41,388.6L582.81,388.43L582.4,388.46L582.49,387.99L582.92,387.91L583.09,387.5L584.53,387.89L585.09,387.98L584.95,387.02L585.54,386.83L584.68,385.75L584.81,385.52L585.68,385.81L586.18,386.19L586.35,386.72L586.72,386.79L586.91,387.29L586.6,387.99ZM582.87,386.38L582.55,386.17L582.46,385.52L582.97,385.37L583.1,384.94L583.46,385.26L583.68,384.75L584.17,385.26L584.06,385.86L584.38,386.45L584.81,386.72L584.56,387.54L583.36,387.31L582.59,386.89L583.08,386.63ZM582.28,386.39L582.08,386.59L581.47,386.21L581.24,385.44L581.79,385.26L582.25,384.64L582.14,386.18ZM585.22,382.87L585.42,383.07L584.97,383.76L584.71,383.64L584.62,383.08L584.77,382.72ZM581.14,382.61L581.03,383.29L580.51,383.39L580.54,383.84L580.01,383.8L579.76,383.39L579.41,383.44L580,384.18L579.84,384.5L579.84,385.52L579.93,386.05L579.48,386.12L578.49,385.95L578.71,385.69L578.54,385.32L578.91,384.81L578.33,384.86L578.53,384.01L579.19,384.06L579.3,383.81L578.76,382.87L578.44,382.61L579.12,382.24L579.52,382.27L579.85,382.61ZM587.58,386.84L587.08,386.76L586.61,385.71L585.95,385.56L585.44,384.34L585.84,383.98L585.97,383.64L586.39,383.5L586.33,382.96L585.6,382.77L584.98,382.46L585.21,381.92L585.67,381.74L586.26,382.39L587,382.14L587.28,382.83L587.4,383.64L587.89,384.23L588.14,384.87L587.31,384.82L588.11,385.35L588.42,385.67L588.6,386.2L588.56,386.83L588.16,386.93L587.9,386.25L587.54,386.43ZM583.84,382.44L584.22,381.6L584.21,381.1L584.53,380.98L585.22,381L585.69,381.17L585.65,381.49L585.08,381.6L584.97,382.06L584.62,382.16L584.34,382.55ZM582.37,380.05L582.71,379.9L583.01,380.14L582.43,380.93L582.49,381.3L582.32,381.85L581.78,382.39L580.78,382.21L580.8,381.82L581.18,381.22ZM581.81,380.08L580.71,381.21L580.37,381.9L579.6,381.78L579.63,381.34L580.13,380.98L580,380.55L579.22,380.58L578.72,381.04L578.5,380.83L578.62,379.92L578.97,379.69L578.81,379.4L579,378.62L579.39,378.3L580.11,378.61L579.97,378.81L579.35,378.98L580,379.57L580.57,379.67L580.98,379.57L580.9,379.24L581.13,378.61L580.65,378.53L580.09,378.03L579.73,378.05L578.97,376.99L579.35,376.95L579.57,376.53L579.99,377.34L580.29,376.91L580.89,376.77L581.12,376.88L581.08,377.54L581.51,377.53L581.9,377.79L582.5,377.49L582.51,377.85L581.57,378.72L582.98,378.38L583.16,378.46L583.59,377.97L583.76,378.6L583.45,379.21L582.59,379.22L582.51,379.67ZM578.6,373.76L577.87,374.16L577.84,374.51L577.26,374.85L577.19,373.53L577.75,373.26L577.5,372.69L577.54,372.14L577.29,372.06L578.12,371.18L579.02,371.51L579.33,371.75L579.97,373.02L580.13,373.58L580.47,373.97L580.73,375.09L580.01,374.76L579.87,375.23L579.45,374.79L579.17,374.04L579.4,373.84L579.1,373.43ZM586.66,371.8L586.57,370.71L586.37,370.51L586.55,369.62L587.09,369.84L587.6,370.63L587.71,371.07ZM578.02,368.94L578.49,369.42L578.44,369.79L578.74,370L578.73,370.42L578.25,370.35L577.84,369.83L577.86,369.08ZM582.9,365.28L583,365.51L582.81,366.84L582.76,367.65L582.43,367.62L581.66,366.73L581.43,366.27L580.54,366.44L580.27,366.1L580.32,365.77L580.88,364.97L581.38,364.72L582.21,365.28L582.35,364.74ZM577.73,367.34L577.12,367.12L577.09,366.83L577.34,366.18L577.65,365.84L578.65,365.38L578.64,365.03L579.02,364.34L579.47,364.23L579.47,364.64L579.87,365.4L579.64,365.97L579.4,365.86L579.06,366.52L578.49,366.52L578.32,367.42L578.12,367.59ZM580.43,364.53L580.45,364.99L580.17,365.23L579.83,364.83L579.65,363.94L578.84,364.08L578.46,364.8L578.02,364.74L577.84,364.2L577.42,364.21L577.02,363.96L576.94,363.54L577.02,363.05L577.28,362.66L577.76,362.59L577.87,362.36L578.35,362.64L578.78,362.72L579.28,362.56L579.72,362.74L580.01,363.25L580.31,364.43ZM581.3,364L580.6,364.31L580.37,364.1L580.18,363.45L580.27,362.81L579.84,362.47L579.7,361.89L580.47,362.1L581.18,362.55L581.51,363.09L581.56,364ZM596.57,367.38L597.15,367.57L596.77,368.02L594.31,368.07L594.27,368.89L593.57,369.72L593.64,370.29L593.29,370.77L593.38,371.12L593.71,371.55L593.83,371.97L593.66,372.75L594.25,373.57L594.12,374.2L593.7,374.64L593.64,375.22L593.4,375.68L593.97,376.25L594.13,376.79L593.72,377.53L593.73,378.24L594.72,379.18L595.04,379.37L595.37,379.82L595.76,381L595.76,382L595.85,383.39L595.99,383.8L596.4,384.44L596.52,385.79L597.16,386.05L597.84,385.63L598.69,384.75L599.67,384.17L600.02,384.23L600.58,384.77L600.93,384.76L601.48,384.11L601.82,383.94L602.79,384.18L603.42,384.53L603.12,385.36L603.14,385.93L603.73,386.87L603.79,387.36L603.71,388.43L603.5,389.29L603.14,389.39L602.68,390.08L602.63,390.5L602.8,390.94L603.78,391.82L603.34,392.67L603.26,393.84L603.04,394.47L603.04,394.92L602.48,395.51L602.26,395.89L602.43,396.19L603.04,396.29L603.26,396.7L603.33,397.4L603.59,397.79L604.34,398.03L605.24,398.77L606.14,399.91L606.22,400.27L606.09,401.22L606.46,401.47L610.65,401.53L615.99,401.61L621.97,401.7L625.66,403.3L627.82,403.37L629.43,403.9L630.91,404.73L632.48,404.99L632.86,405.21L633.8,405.46L633.66,405.94L632.92,405.99L631.76,405.55L631.21,405.63L630.29,405.51L629.43,405.04L628.46,404.27L627.64,404.21L626.76,404.75L626,404.84L625.68,405.34L625.57,406.56L625.19,406.74L625.06,407.45L624.18,408.45L623.34,408.34L622.81,407.87L622.03,408.45L620.94,409.02L620.4,409.17L619.69,409.86L619.06,409.84L618.57,410.27L617.51,410.95L617.26,410.68L617.64,410.35L617.45,410.12L617,410.28L616.8,410.71L615.94,411.13L615.89,410.7L615.24,411.27L615.35,411.64L615.7,411.91L615.19,412.23L614.96,413.3L615.2,413.61L615.15,414.47L614.76,415.22L614.6,416.06L614.19,416.89L614.04,417.5L613.99,418.87L613.76,419.61L613.84,420.73L614.18,422.39L614.13,423.01L613.87,423.55L613.91,424.57L613.43,425.29L611.9,426.16L611.05,426.22L609.92,425.55L608.62,425.47L606.88,424.27L606.26,424.15L605.87,423.53L605.39,423.92L604.91,423.61L604.34,422.84L603.57,422.24L603.47,421.84L602.67,420.88L602.23,419.93L602.6,419.33L602.47,418.94L602.72,418.57L603.58,417.76L605.04,418.09L605.2,419.18L604.74,419.46L604.48,419.99L605.08,420.14L605.37,419.76L605.69,419.74L605.78,419.18L605.64,417.82L605.96,417.49L606.49,417.64L606.95,417.53L607.12,417.88L607.31,419.56L607.48,420.09L607.37,420.59L606.96,420.95L605.86,421.46L606.11,421.96L606.61,421.57L607.28,421.44L607.71,420.8L607.7,419.64L607.6,418.77L607.85,417.5L607.95,417.36L608.8,417.11L609.09,416.76L610.02,416.31L610.68,416.23L611.18,415.72L611.7,414.79L611.85,413.99L612.14,413.57L612.77,413.51L612.75,413L612.37,412.12L612.05,412.15L611.74,411.8L610.93,412.04L610.56,412.36L609.89,412.27L609.52,412.82L607.9,413.81L607.56,414.13L606.55,414.71L605.85,415.77L605.7,416.12L604.89,416.26L604.51,415.87L604.2,415.29L603.55,414.96L603.39,415.47L602.81,415.23L601.91,415.3L602.55,415.69L602.91,415.46L603.27,416.3L604.02,416.54L604.3,416.94L604.18,417.21L603.61,417.23L603.23,417.48L602.38,417.41L602.56,417.94L602.13,418.29L601.73,418.01L601.83,419.09L601.69,419.39L601.15,419.66L602,419.96L602.93,421.65L601.69,421.75L601.47,421.47L600.94,421.26L600.62,420.79L600.12,420.67L599.96,419.84L598.89,419.6L598.81,419.31L598.36,419.21L597.3,418.34L596.35,417.73L595.93,416.99L596.82,417.03L597.25,416.8L598.07,416.67L598.58,417.08L599.87,417.75L600.37,417.73L599.64,417.09L599.96,416.12L599.47,416.12L599.14,416.54L598.44,415.94L598.78,415.31L598.5,414.89L598.57,414.43L598.33,413.6L598.52,413.08L598.17,412.62L598.23,412.27L598.88,412.12L599.23,411.78L599.79,411.56L600.26,410.75L600.99,411.19L600.99,411.61L600.31,412.3L600.86,412.25L601.37,412.39L601.66,412.09L602.07,412.03L602.17,412.48L602.5,412.45L602.67,411.73L603.34,411.31L603.69,410.66L604.24,410.56L604.54,410.02L605.2,410.04L605.47,410.31L605.81,409.94L606.09,409.99L606.44,410.41L606.99,410.58L608.74,410.43L609.09,410.13L609.93,409.94L609.82,409.51L609.19,408.84L608.72,409.01L608.28,408.87L607.71,408.93L606.51,408.59L606.01,408.84L605.43,408.79L605.12,408.32L604.83,408.22L604.21,408.35L603.59,408.23L603.22,408.37L602.55,409.98L601.48,409.24L601.31,408.79L600.63,408.33L599.66,408.62L599.12,408.08L598.67,409.73L599.35,409.17L599.51,409.55L600.33,409.76L600.44,410.16L599.57,411.33L599.14,411.42L599.02,411.8L598.39,411.91L597.8,412.49L598.29,413.17L598.18,414.02L598.33,414.38L598.29,414.88L597.84,415.3L597,415.84L596.48,415.67L595.34,415.51L594.87,414.79L594.82,414.33L595.44,413.7L595.98,413.93L596.23,413.1L595.64,413.28L595.15,413.07L594.9,412.53L594.04,412.28L593.47,411.91L593.65,411.69L594.79,411.72L594.89,412L595.58,411.73L595.86,411.35L595.47,411.19L595.95,410.7L596.14,409.99L596.71,409.79L596.99,408.47L597.2,407.97L597.85,407.99L598.48,408.22L598.66,407.99L597.48,407.68L596.95,407.95L596.31,407.78L596.66,408.87L596.03,409.61L595.8,410.3L595.4,410.16L595.28,409.72L595.49,409.14L595.06,409.19L594.78,409.82L594.37,409.8L593.52,410.45L592.96,411.23L592.4,410.83L592.71,410.3L592.49,409.32L592.9,408.87L593.06,408.35L593.73,407.49L592.66,407.06L592.71,406.54L593.27,406.48L593.48,405.75L593.08,405.17L593.34,404.28L592.93,404.09L592.84,403.7L592.04,402.44L592.12,401.99L592.4,401.94L592.88,402.86L593.07,403.46L593.33,403.33L593.74,404.11L594.51,403.57L595.28,404.41L595.78,404.38L596.17,403.91L596.21,403.21L596.41,402.93L596.77,403.21L597.23,402.66L598.02,402.49L598.02,403.44L597.6,403.51L597.34,404.12L597.96,404L598.53,404.35L598.61,404.75L599.18,404.69L599.51,403.26L599.86,402.56L599.29,402.77L599.1,403.21L599.07,403.89L598.65,404.04L598.33,403.74L598.39,402.83L598.31,402.43L598.75,402.33L598.94,401.19L599.48,400.8L600.32,401.36L600.17,402.08L600.26,402.37L600.96,402.9L601.58,404.11L601.4,404.7L601.28,405.58L601.06,405.97L600.31,406.08L599.97,406.43L599.47,406.57L599.19,407.24L599.92,406.9L600.34,406.86L601.16,407.11L601.46,407.45L601.7,407.08L600.82,406.84L601.5,406L601.89,405.66L602.11,404.47L602.06,404.01L601.24,402.84L600.61,402.06L600.53,401.1L600.82,400.93L601.64,401.02L602.23,400.49L601.88,399.99L601.8,399.52L602.13,398.91L601.91,398.65L601.69,397.93L601.37,397.8L600.8,397.2L600.53,396.6L600.19,396.27L599.28,396.12L598.96,395.85L598.5,395.77L598.16,395.21L597.5,395.07L597.2,394.22L596.82,394.56L595.98,394.78L596.13,395.33L596.81,395.07L597.49,395.26L598.36,396.03L599.04,396.46L599.55,396.45L599.83,396.79L600.26,397.74L601.37,398.08L601.46,398.5L601.25,398.99L600.82,399.37L600.1,399.53L599.61,399.18L599.26,398.63L598.63,398.5L598.1,398.65L598.01,398.04L597.37,397.68L596.73,397.81L596.46,397.39L596.48,396.97L595.91,396.56L595.58,396.73L596.04,397.1L596.08,397.74L596.34,398.03L597.37,398.08L597.71,398.33L597.53,398.76L597.53,399.44L597.27,399.73L596.55,399.81L596.77,400.14L597.31,399.96L597.85,399.45L598.39,399.4L598.56,399.79L597.9,400.13L597.44,400.53L596.77,400.83L596.55,401.89L596.53,402.64L596.15,402.77L595.77,402.11L595.8,401.24L595.53,400.32L595.55,399.45L595.23,398.44L595.46,401.06L595.49,401.88L595.69,403.43L595.42,403.73L594.81,403.33L594.61,402.9L593.66,402.31L593.33,401.88L593.4,401.39L593.09,400.76L593.36,400.66L593.01,400.08L592.79,399.4L593.19,399.33L593.76,400.26L593.94,400.96L594.64,401.48L594.12,400.49L594.03,399.74L593.73,399.49L593.79,399.09L593.34,398.64L593.09,398.02L592.75,397.62L592.55,398.65L592.25,398.73L591.9,397.96L591.51,397.62L591.73,397.07L590.78,396.65L591.47,395.69L590.74,395.57L590.77,394.96L590.55,393.95L590.97,393.55L591.12,393.87L591.49,393.86L591.76,394.38L592.49,395.16L592.87,395.35L592.64,394.45L592.24,393.41L592.25,392.55L591.73,391.73L591.92,391.37L592.36,391.92L592.48,391.46L592.17,391.18L592.44,390.67L591.9,390.75L591.74,391.1L591.15,391.79L590.71,391.83L590.28,391.36L589.89,391.32L589.6,391.59L589,391.28L588.96,390.09L588.86,389.58L589.41,388.77L589.22,388.48L588.57,389.35L588.14,389.27L588,388.16L588.48,387.48L589.2,387.31L590.41,387.58L590.6,387.22L591.02,387.53L591.15,388.08L591.58,388.43L591.69,387.91L591.47,387.39L591,386.94L591.17,386.38L591.69,386.38L591.84,385.73L591.82,384.81L592.11,384.6L592.89,384.42L593.25,384.66L593.49,385.18L594.07,384.67L593.58,384.58L593.5,384.28L592.9,384.15L592.2,383.42L592.41,382.87L592.72,382.85L593.13,382.48L593.47,381.51L593.28,381.49L592.82,382.36L591.93,382.88L591.79,383.64L591.6,383.93L591.62,384.49L591.4,384.92L591.52,385.69L591.05,386.29L590.44,386.79L589.69,386.69L589.03,385.95L589.49,385.62L588.71,385.01L588.16,383.98L588.46,383.42L587.98,383.12L587.68,382.44L588.38,382.23L588.91,383.67L588.84,382.47L589.18,382.54L589.6,382.96L589.9,382.72L589.95,382.13L589.38,382.26L589.01,381.73L588.22,381.51L587.76,381.77L587.49,381.25L587.95,380.42L587.9,379.97L587.58,379.78L587.23,380.94L586.92,381.02L586.27,380.75L585.79,380.16L586.14,379.73L585.35,379.47L585.22,379.15L584.64,379.09L584.57,378.58L585.07,377.92L585.5,377.73L586.39,377.72L587.28,377.57L587.74,378.13L587.88,378.58L588.38,379.11L588.49,379.71L588.88,379.31L589.27,379.32L590.35,380.06L590.77,380.18L591,379.89L590.22,379.65L589.86,379.28L589.83,378.98L588.77,379L588.5,378.81L588.05,377.51L587.66,377.24L587.15,376.39L587.15,375.91L587.52,375.64L587.92,375.68L588.46,376.02L588.85,376.65L589.14,376.53L589.64,376.97L590.39,376.83L589.74,376.08L589.15,375.96L588.88,375.43L588.54,375.26L587.75,375.21L587.46,374.93L587.28,373.96L587.68,374.01L588.47,373.44L589.29,373.43L589.52,373L588.06,373.18L587.74,373.35L587.53,373.08L587.48,372.02L587.63,371.67L588.18,371.21L589.6,370.88L589.97,371.27L590.16,371.05L590.6,371.25L590.87,372.33L591.54,372.7L592.3,373.64L592.49,373.09L592.2,372.99L591.82,372.46L591.19,372.27L590.98,371.48L590.98,370.75L590.7,370.53L589.41,370.42L589.14,370.04L589.05,369.46L589.36,367.71L589.61,367.48L589.96,367.67L590.31,368.34L590.62,368.24L590.14,367.66L589.96,367.09L590.2,366.42L590.04,365.86L589.68,365.36L590.2,364.81L590.82,364.7L591.17,365.05L591.35,364.74L590.9,364.45L589.79,364.63L589.52,364.86L589.68,365.32L589.61,365.94L589.74,366.1L589.19,367.03L588.74,367.13L588.88,367.59L588.74,368.79L588.6,369.13L588.49,370.04L588.33,370.69L588.12,370.74L587.6,370.12L587.37,369.61L586.91,369.35L586.68,368.84L586.92,368.19L586.77,367L586.86,366.26L586.76,365.77L586.38,365.16L586.38,364.6L586.76,364.37L586.87,364.06L586.56,362.96L586.71,362.72L586.45,362.33L586.6,361.81L587.09,360.99L587.6,361.36L588.44,360.99L589.09,361.08L589.5,361.26ZM580.57,373.71L580.43,372.83L580.06,372.59L580.16,372.26L579.81,372.09L579.87,371.67L580.13,371.17L579.72,371.14L579.38,370.36L579.57,369.91L579.17,369.88L578.79,369.32L578.45,368.37L578.76,367.73L579.11,367.74L579.52,368.55L579.86,369.39L580.54,369.8L579.86,368.84L579.6,368.17L579.58,367.54L580.08,367.54L580.79,368.79L580.86,368.58L580.65,367.92L581.35,368.08L581.25,367.65L581.84,367.5L582.11,367.59L582.69,368.15L582.98,368.75L583.09,366.8L583.36,366.52L583.27,366.19L583.68,365.61L582.49,364.44L583.26,364.08L583.2,363.71L582.59,364.18L582.24,363.97L582.49,363.38L582.01,363.29L582.12,362.99L581.73,362.64L581.68,362.16L581.92,361.89L582.33,362.09L582.25,361.47L584.06,360.5L584.53,360.52L585.14,361.17L585.53,360.91L585.88,361.03L585.84,362.76L585.58,363.17L586.03,363.23L586.27,363.71L586.02,364.83L586.38,365.8L586.29,366.14L586.52,366.93L586.49,368.25L586.31,369.47L586.12,370.09L585.79,370.5L586.06,371.29L585.65,371.88L585.62,372.33L585.26,372.76L585.47,373.03L585.78,372.46L585.87,371.96L586.21,371.9L586.52,372.13L586.71,372.71L586.44,373.73L586.62,374.18L586.39,374.81L585.88,374.93L586.31,375.37L586.2,375.94L585.83,376.03L585.79,376.45L585.08,377.03L584.81,377.13L584.18,377.01L583.96,377.17L583.18,376.71L583.54,376.08L584.19,375.55L583.95,375.35L583.07,376.01L582.82,375.49L582.91,375L583.27,374.85L583.6,374.07L583.06,374.02L583.07,373.17L582.79,372.77L582.99,371.8L583.95,372.17L583.95,371.77L583.34,371.59L583.09,371.33L583.03,370.82L583.65,370.37L584.09,369.89L584.12,369.49L583.31,370.38L582.92,370.26L582.74,370.8L582.06,370.63L582.11,371.38L581.79,371.5L582.46,372.38L581.96,373.35L582.28,373.33L582.44,373.88L582.04,374.52L582.06,375.27L581.5,374.9L581.08,374.78ZM581.95,360.63L582.94,360.08L583.52,360.26L582.7,360.99L582.23,361.24L581.79,361.15ZM581.46,360.01L581.63,360.08L581.65,360.75L581.43,361.75L581.19,362.16L580.44,361.98L580.19,361.78L580.32,361.39L581.04,360.65Z" class="land" id="CL-MA" title="Magallanes and Chilean Antarctica Región"/>
    <path d="M579.46,359.85L579.84,360.5L579.79,361.08L579.41,361.2L578.99,360.83L578.38,361.57L577.3,361.89L577.02,361.7L576.98,360.95L577.28,360.8L577.73,360.99L578.5,360.76ZM579.54,359L579.6,359.57L579.45,359.74L578.14,360.7L577.61,360.75L577.43,360.26L578.19,360.28L578.56,359.93L578.27,359.61L577.78,359.69L577.51,359.97L577.19,359.95L576.8,359.37L576.95,359.17L576.92,358.42L577.18,358.15L577.35,357.65L578,358.04L578.58,357.53L579.24,357.81L579.35,358.63ZM586.3,357.85L586.03,357.52L586.26,357.25L586.81,357.4L587.63,358.02L587.61,358.25L586.87,358.68L586.64,358.68ZM589.31,358.13L588.61,357.7L588.09,357.11L588.5,356.75L589.08,357.24L589.58,357.49L589.6,357.84ZM586.12,356.59L586.68,356.55L587.3,355.8L587.67,355.85L587.64,356.75L588.19,357.44L588.26,357.72L587.88,357.93L587.35,357.46L586.39,357ZM586.09,359.37L586.14,360.05L585.86,360.46L585.13,360.66L584.4,360.22L584.1,359.92L583.78,360.01L582.55,359.8L582.05,359.41L581.87,358.43L582.07,358L582.56,357.39L583.35,357.07L583.55,357.22L583.63,357.78L583.86,358.19L584.1,358.19L584.37,357.82L584.06,357.48L583.62,356.75L583.72,355.6L584,354.95L583.99,354.25L584.33,353.99L584.52,354.62L584.28,354.89L584.76,355.57L584.66,356.04L585.15,356.4L585.41,356.91L585.39,357.22L584.92,357.28L585.27,358.08L585.3,359.13L585.71,359.76ZM585.73,356.26L585.62,355.32L585.26,355.23L585.41,354.39L585.62,353.89L586.06,354.14L586.28,354.57L586.79,354.97L587.09,355.44L586.84,355.88L586.55,355.96L585.93,356.39ZM580.86,355.98L580.89,355.53L580.42,354.15L580.16,353.66L580.11,353.26L580.81,353.34L581,353.56L581.57,353.74L582,353.43L583.01,353.86L583.49,354.17L583.68,354.51L583.63,355.19L583.44,355.39L583.42,356.53L581.89,357.7L581.69,357.57L581.47,356.9ZM580.95,360.26L580.51,360.76L580.17,360.6L580.21,360.01L579.73,359.3L579.82,358.86L579.6,358.28L580,357.4L579.24,356.99L578.76,357.07L578.5,357.38L577.89,357.37L577.75,356.93L578.39,356.63L578.93,356.52L578.88,355.8L578.49,356.18L577.84,356.26L577.95,355.69L578.61,355.13L578.52,354.84L578.03,355.2L577.93,354.74L577.67,354.47L577.51,353.46L577.78,353.11L578.38,352.76L578.81,352.77L579.15,352.54L579.46,352.65L579.36,353.05L580.01,354.41L579.84,354.88L580.06,355.13L580.52,356.42L580.83,356.82L580.94,357.29L581.35,357.97L580.99,358.24L581.48,358.46L581.4,358.96L581.57,359.52ZM580,352.77L580.31,352.51L580.27,352.12L580.5,351.47L580.81,351.19L581.44,350.88L582.07,350.89L582.58,351.08L583.14,350.27L583.8,350.24L583.98,351.08L583.61,351.73L583.84,351.85L583.84,352.32L584.29,353.7L583.77,353.37L582.95,353.25L581.87,352.81L581.83,352.31L581.33,352.33L580.95,352.73L580.57,352.92ZM586.76,351.72L586.06,351.48L586.9,350.56L587.74,350.18L588.09,350.17L589.44,350.65L590.06,350.72L590.57,351.03L591.46,350.87L591.52,351.41L591.36,351.89L590.58,351.95L590.32,351.58L589.83,351.9L589.11,351.81L588.71,351.97L587.51,352.22ZM584.9,350.07L585.87,350.24L585.89,350.9L585.34,350.85L585.12,351.02L584.94,351.54L584.6,350.83L584.59,350.26ZM580.69,350.46L580.62,350.19L580.03,349.81L579.5,349.61L579.32,349.34L579.81,348.96L580.19,349.2L580.81,349.02L581.41,348.69L581.66,349.5L581.53,349.77L581.95,350.13L581.73,350.36L581.09,350.56ZM583.04,349.06L583.18,349.66L582.47,349.8L581.92,349.37L581.7,348.8L582.13,348.48L582.89,348.75ZM586.33,341.63L586.88,341.34L587.46,341.39L587.49,341.82L586.55,342.66L586.17,342.11ZM589.44,341L590.22,341.31L589.84,341.7L589.49,342.36L588.88,342.75L588.71,342.34L588.37,342.29L588.21,341.95L588.35,341.43L588.71,340.91L589.28,341.31ZM579.58,337.13L580.4,337.01L580.98,337.27L581.17,337.84L580.86,338.24L580.03,337.58L579.43,337.32ZM592.2,329.87L592.5,330.13L592.52,330.5L592.14,330.96L592.04,331.43L591.8,331.57L591.43,331.36L591.27,330.77L590.5,330.07L590.74,329.48L591.31,329.44L591.77,329.83ZM592.33,328.43L592.35,328.97L592.53,329.5L592.29,329.54L591.45,329.28L591.43,328.94L591.71,328.32ZM584.08,327.11L584.34,327.14L584.38,327.58L584.14,328.16L583.98,329.17L583.61,329.7L583.3,329.81L582.77,330.48L582.24,330.57L581.55,330.36L581.3,329.83L581.47,329.6L582.22,329.36L581.43,328.73L581.46,328.35L581.24,328L581.7,327.75L582.37,328L582.82,328.4L583.01,327.96L583.48,327.58L583.68,327.25ZM592.06,326.96L592.27,327.17L592.33,327.75L591.69,327.89L591.16,328.93L590.95,329.08L590.55,328.98L590.5,328.27L591.01,327.65L591.59,327.43ZM590.6,326.41L590.29,326.69L590.28,327.69L590.07,328.19L589.79,328.2L589.63,327.65L589.31,327.19L589.28,326.62L589.67,326.33ZM583.78,325.13L584.11,325.87L583.74,325.87L583.09,325.05L583.22,324.79L583.59,324.83ZM585.65,324.48L585.73,324.79L585.51,325.38L585.68,325.57L585.42,326.3L585.2,326.48L584.79,326.47L584.5,326.21L584.55,325.29L584.81,324.79ZM589.46,325.79L589.23,325.24L589.14,324.63L589.79,324.01L590.28,324.25L590.74,324.67L590.81,325.09L590.65,325.87L590.03,326.14L589.68,326.07ZM586.06,326.26L586.43,325.64L586.42,325.12L586.17,324.84L586.35,324.46L586.36,323.85L586.7,323.13L587.09,323.09L587.71,323.41L587.99,323.81L588.03,324.24L588.38,325.17L587.95,325.72L587.38,325.76L587.33,326.27L586.82,326.65L586.31,326.75ZM592.66,322.93L593.16,323.17L593.29,323.42L593.2,324.48L592.76,325.48L593.03,325.67L593.07,326.06L592.76,326.49L592.55,326.5L592.23,325.96L591.46,325.25L592.06,324.87L591.71,324.43L591.83,323.78L592.22,323.17ZM590.93,323.32L591.26,323.11L591.47,323.36L591.05,324.34L589.79,323.84L589.45,323.9L588.88,324.29L589.19,323.32L589.52,322.78L590.11,322.83ZM585.65,324.17L585.54,323.91L585.92,323.01L586.33,322.71L586.44,323.12L586.09,323.67L586.07,324.63ZM591.41,322.47L591.1,322.74L590.64,322.86L589.94,322.64L589.96,322.3L590.49,322.14L590.89,322.25L591.38,322.2ZM587.33,321.82L587.47,322.28L587.04,322.53L586.17,322.01L585.87,321.57L586.09,321.24L586.95,321.19ZM591.41,321.01L591.67,321.42L591.71,321.77L591.38,321.93L589.93,321.99L589,321.66L588.71,320.86L588.78,320.67L589.47,320.32L589.79,320.86L590.14,321.06L591.03,320.95ZM587.87,320.36L587.74,320.56L587.6,321.33L587.35,321.38L586.75,320.8L586.71,320.27L586.97,319.77L587.19,319.78ZM592.14,320.44L592.14,321.03L591.86,321.22L591.37,320.75L591.06,320.7L590.32,320.82L589.97,320.63L589.81,320.18L589.36,319.6L588.98,319.86L588.58,319.93L588.11,319.71L588.05,319.26L588.39,318.51L588.85,318.3L589.44,318.41L590.11,318.27L590.7,317.98L591.25,318.05L591.78,318.47L591.84,318.9L592.28,319.31L592.34,320.06ZM587.89,317.41L588.54,316.58L588.93,316.57L589.7,316.85L590.27,316.96L590.68,317.42L590.22,317.85L589.51,318.02L588.55,317.95L587.82,318.34L587.21,318.16L587.41,317.64ZM590.33,315.92L590,316.34L589.46,316.41L588.64,316.01L588.71,315.81L589.72,315.62L590.31,315.59ZM590.58,315.69L590.93,315.42L591.31,315.63L591.47,316.19L591.9,317.25L591.65,317.55L591.29,317.57L590.63,316.84L590.58,316.53L590.91,316.3L590.51,315.95ZM581.41,315.76L581.63,316.15L581.96,316.29L581.8,316.59L581.89,316.96L581.27,317.21L580.83,317.08L580.91,316.53L580.55,315.99L580.97,315.4L581.24,315.43ZM593.15,315.19L592.97,316.14L592.57,316.26L592.17,316.04L591.96,315.58L592.07,315.3L592.48,315.29L592.79,315.08ZM587.33,315.88L587.44,316.34L586.92,316.44L586.32,316.11L585.88,315.3L586.15,314.91L586.66,314.9L586.81,315.54ZM586.22,313.99L586.39,314.11L586.41,314.58L586.2,314.68L584.99,314.58L584.81,314.18L585.11,313.83L585.68,313.83ZM590.6,313.91L591.01,314.63L589.93,314.88L589.29,315.29L587.82,315.85L587.22,315.42L587.08,314.98L586.81,314.63L586.87,313.88L587.61,313.77L587.92,313.62L589.82,313.62ZM583.89,313.38L584.25,313.51L584.12,314.31L583.82,314.44L583.56,314.2L583.52,313.38ZM592.71,314.43L593.07,314.44L593.25,314.77L591.98,315.16L591.31,314.3L591.47,314L591.39,313.52L591.63,313.07L592.12,313.05L592.4,312.89L592.76,313.29L592.97,314.04ZM588.5,312.39L588.81,312.91L588.81,313.14L587.31,313.29L587.12,312.76L587.7,312.47L588.02,312.55ZM589.74,312.46L589.56,312.21L589.9,312L590.36,312.25L590.44,312.96L590.12,313.08L589.47,313.05L589.03,312.86L589.09,312.61ZM586.92,313L585.9,312.77L585.7,312.22L586.06,311.75L586.56,311.81L586.71,312.16L587.14,311.5L587.61,311.3L587.98,311.52L588.27,312.12L587.21,312.47L586.71,312.54ZM591.69,311.62L591.63,311.98L591.08,312.1L590.78,311.87L590.79,311.13L591.09,311.1L591.23,311.42ZM594.9,313.45L595.15,313.75L595.57,313.65L596.02,314.02L595.71,312.94L596.05,312.87L596.66,313.26L596.84,312.88L596.01,312.61L595.86,312.23L595.98,311.78L596.26,311.47L596.6,311.47L596.76,311.77L597.25,311.71L597.26,311.2L597.9,310.95L598.29,311.31L598.5,311.78L598.07,312.61L598.27,312.63L598.66,311.96L598.93,311.78L599.74,312.11L600.12,312.79L599.93,313.25L599.39,313.99L598.7,313.93L598.69,314.27L599.25,314.43L599.2,314.81L598.89,315.16L598.17,315.67L597.61,316.2L597.49,316.45L596.76,317.05L595.89,317.37L595.04,316.57L594.7,316.06L595.08,315.98L595.49,315.65L595.91,315.96L596.2,315.7L595.55,315.35L595.09,315.68L594.76,315.57L594.5,314.97L594.22,314.06L594.55,313.6ZM592.19,311.65L591.69,311.18L592.03,310.97L592.76,310.83L592.6,311.59ZM589.79,310.87L590.42,310.8L590.59,311.72L589.69,311.44L589.38,311.2L589.14,310.57L589.31,310.49ZM595.85,311.24L595.56,311.02L595.63,310.57L595.88,310.37L596.26,310.53L596.52,311.1ZM591.09,310.65L590.56,310.58L590.32,310.42L590.32,310.09L591.2,310.23L591.56,309.9L591.69,310.37ZM586.98,309.72L587.63,309.81L587.67,310.37L586.79,310.1ZM592.06,309.88L592.41,309.63L592.66,309.88L592.22,310.3ZM589.17,309.47L589.15,309.05L589.63,309.06L589.74,308.75L590.15,309.25L590.7,309.34L590.45,309.62L589.95,309.8L589.92,310.11L590.11,310.57L589.68,310.49L589.28,310.08ZM587.84,308.61L587.92,308.91L587.36,309.06L586.98,308.72L587.2,308.57ZM590.95,308.27L591.32,308.98L591.05,309.13L590.4,309.02L589.9,308.54L590.4,308.12L590.68,308.05ZM592.04,306.46L592.38,306.36L592.79,306.87L592.75,307.38L593.1,307.9L592.92,308.33L592.67,308.4L592.52,307.74L592.2,307.52L591.96,306.81ZM596.12,307.1L595.75,306.9L595.66,306.42L595.77,306.09L596.2,305.74L596.66,305.67L596.81,305.91L596.55,307.25ZM588.89,305.08L589.11,304.88L589.67,304.74L590.28,305.09L591.09,304.66L591.66,305.1L591.9,305.75L591.24,305.78L590.76,305.58L590.87,305.22L590.35,305.32L590.22,305.52L590.66,305.82L590.26,306.25L590.06,306.28L589.77,305.8L589.36,305.89L588.71,305.58ZM607.82,307.46L607.42,307.91L606.93,308.15L607.29,309.03L607.34,309.42L607.14,309.94L607.36,310.43L607.31,310.64L606.88,310.92L607.22,311.41L607.88,311.3L608.63,311.4L610.25,311.39L611.44,311.63L612.05,311.68L612.35,311.95L612.48,312.46L612.74,312.81L612.67,313.26L612.21,313.42L611.81,314.23L611.88,314.8L611.63,315.55L611.05,315.82L610.71,315.72L610.1,315.28L609.78,315.17L608.72,315.58L608.4,315.57L607.86,315.34L607.49,315.33L606.96,315.71L605.91,315.5L605.43,315.3L605.11,315.62L605.23,316.22L605.17,316.77L605.39,317L605.73,316.97L606.69,317.45L607.35,317.25L607.71,317.27L608.16,317.74L609.06,317.79L609.32,318.1L609.64,318.77L609.78,319.28L610.16,319.81L610.58,320.12L611.03,320.66L611.25,321.39L610.75,322.06L610.49,322.28L609.69,322.61L609.91,323.28L609.84,323.62L609.55,323.86L608.66,323.87L608.07,324.02L607.67,324.46L607.82,324.78L607.53,325.24L607.54,325.78L607.4,326.35L607.79,326.88L607.67,327.38L607.84,327.68L608.45,327.98L608.64,328.23L608.87,328.96L607.99,329.95L607.63,330.58L606.68,330.81L606.49,331.03L607.53,331.86L607.68,332.08L607.69,333.38L607.77,333.78L608.3,335.22L608.22,336L608.34,336.84L608.28,337.19L607.58,337.74L607.24,338.21L606.95,338.39L606.33,338.45L606.32,338.98L606.05,340L606.13,340.33L606.48,340.75L605.81,341.25L605.94,341.7L606.65,342.17L606.9,342.72L606.75,343.34L606.5,343.48L605.73,343.06L605.48,343.13L605.58,343.89L605.35,344.38L604.47,345.5L604.16,345.65L603.54,345.58L603.22,345.72L602.89,346.28L603.28,346.56L603.09,347.77L602.95,348.16L602.2,349.49L601.86,350.71L601.52,351.44L601.59,351.81L602.04,352.37L602.5,352.56L602.69,353.05L603.1,353.28L603.37,354.94L603.24,355.82L603.48,356.39L603.32,356.59L602.83,356.59L602.39,357.19L601.89,357.36L601.26,357.8L600.96,358.49L601.2,359.76L601.25,361.02L601.14,361.85L600.93,362.19L599.95,363.32L599.3,363.69L598.53,363.78L597.84,364.24L597.3,365.07L597.15,365.82L596.57,366.64L596.57,367.38L589.5,361.26L589.32,360.97L588.69,360.8L587.61,361.09L587.56,360.73L587.09,360.38L586.93,359.55L587.44,358.96L587.89,358.79L587.89,358.5L588.47,358.06L588.95,358.38L589.36,358.87L589.61,358.97L589.85,359.44L590.25,359.15L589.86,358.77L589.8,357.75L590.69,357.41L590.54,357.13L590.06,357.35L589.16,357.01L588.8,356.68L588.23,356.64L587.96,356.41L587.84,355.61L587.5,355.18L587.52,354.95L586.53,354.6L585.98,353.51L586.33,353.11L586.12,352.85L585.39,353.39L585.08,353.14L585.09,352.5L585.95,351.97L586.3,352.21L586.75,352.25L587.39,352.83L587.59,353.29L587.79,354.47L588.48,354.97L587.99,353.79L587.95,353.54L587.55,352.87L587.58,352.33L588.09,352.44L588.41,352.33L589.55,352.45L590.33,353.01L590.89,352.71L591.43,353.12L591.93,352.93L592.01,353.41L592.38,353.66L592.9,353.78L593.25,354.11L593.15,354.88L593.53,355.36L593.95,354.54L594.5,354.53L595.15,355.04L595.16,354.71L595.74,354.08L594.76,354.36L594.12,353.9L593.88,353.51L593.25,352.94L593.33,352.6L592.97,352.37L592.75,351.65L592.85,351.23L593.38,351.38L593.72,352.06L594.56,352.31L595.11,351.92L594.12,352.01L593.77,351.65L593.9,351.25L593.03,350.84L593.35,350.09L592.6,350.03L592.32,349.81L592.07,348.95L592.64,348.3L592.38,348.1L592.37,347.67L592.6,347.38L592.11,346.99L591.79,347.7L592.15,348.02L591.8,348.89L591.69,349.38L591.84,349.75L591.59,350.18L590.98,350.35L590.63,350.59L589.75,350.34L589.44,349.78L588.47,349.97L587.73,349.72L587.52,349.97L586.98,349.85L587.04,349.44L586.26,349.65L585.07,349.71L584.42,349.36L584.22,348.97L584.72,348.31L584.99,348.28L585.19,347.38L585.63,347.16L586.16,347.33L586.71,347.32L587.09,347.62L587.31,348.18L587.22,348.56L587.63,348.66L588.11,348.42L588.02,348.11L588.65,347.95L588.7,347.57L588.25,347.54L587.79,347.79L587.43,347.58L587.31,346.81L586.93,346.98L586.6,346.66L586.55,345.94L586.03,346.22L585.85,345.67L586.22,345.14L586.81,344.74L586.74,344.49L587.13,344.14L587.46,343.3L587.83,343.37L588.32,343.14L588.93,343.34L589.12,343L589.65,342.97L589.58,342.58L590.36,341.46L590.43,340.94L589.87,340.51L589.52,340.45L589.09,340.63L588.82,340.38L588.4,339.7L588.44,339.39L588.84,339.24L588.6,338.94L588.11,339.2L587.93,338.81L587.92,338.24L587.36,338.07L586.54,338.07L585.87,338.47L584.89,338.32L584.91,338.79L585.68,338.86L586.14,339.18L586.24,339.63L585.72,339.56L585.15,339.33L584.65,339.42L584.33,338.91L583.72,338.47L583.27,338.61L582.46,337.99L582.02,337.87L582.01,337.52L581.48,336.62L581.67,336.18L582.16,335.46L582.59,335.2L582.59,334.52L582.41,334.48L582.02,335.23L581.73,335.16L581.54,335.67L581.25,336L580.54,336.5L579.57,336.61L579.43,336.81L578.68,336.72L577.7,337.08L577.42,337.31L577.26,337.79L576.92,338.07L577.15,338.28L577.87,337.28L578.47,337.3L578.8,337.46L578.59,337.95L579.08,338.22L579.2,339.02L579.4,339.22L579.35,339.61L578.89,339.97L578.44,340.13L577.78,340.17L577.51,339.65L576.98,339.22L576.97,338.84L576.55,338.3L576.57,336.6L577.11,335.84L577.73,335.78L578.05,335.63L577.87,335.16L578.56,335.11L578.71,334.76L579.06,334.74L579.05,334.17L579.41,333.8L580,333.43L580.34,333.74L580.54,332.73L581.04,332.88L581.22,332.14L581.42,331.76L581.74,331.68L582.08,331.88L582.46,331.75L582.73,331.43L582.84,331.01L583.2,331.01L583.75,331.68L583.93,331.18L583.52,330.73L583.62,330.26L583.92,329.75L584.2,329.56L584.4,329.12L584.28,328.66L584.57,327.5L584.92,327.21L585.24,327.55L585.61,327.33L585.73,327.87L586.02,328.47L586.45,328.66L586.23,329.39L586.52,329.39L586.87,328.51L586.5,328.1L586.33,327.42L586.5,327.12L587.19,326.92L587.74,327.2L588.53,326.96L588.79,327L589.21,327.45L588.96,327.79L589.4,328.4L589.52,328.89L589.18,329.24L589.36,329.63L589.25,330.22L589.52,330.18L589.58,329.61L589.79,329.39L590.17,329.63L590.26,330.25L589.86,330.98L589.52,331.25L588.52,331.78L588.53,332.06L589.42,331.62L589.72,332.11L589.82,332.56L590.49,332.77L590.77,333.12L591.25,333.19L590.46,332.32L590.4,331.93L589.9,331.78L590.14,331.04L590.47,330.88L590.96,330.91L591.15,331.39L591.84,331.97L591.9,332.41L591.65,333.42L591.15,334.21L590.72,334.65L590.6,334.97L590.11,335.69L590.62,336.12L591.02,336.18L591.36,335.9L591.87,334.69L592.06,334.1L592.61,333.4L593.34,332.83L593.78,331.29L594.12,330.92L594.58,330.11L595.1,329.78L594.87,329.53L594.52,329.63L594.21,330.31L593.37,331.59L593.09,331.78L593.18,332.11L592.99,332.45L592.49,332.97L592.46,332.22L592.8,331.51L593.03,330.46L592.79,329.87L592.71,329.02L593.01,328.73L593.11,328.2L593.54,327.91L593.47,327.5L593.68,327.07L594.75,325.92L595.11,325.76L596.36,325.64L596.36,325.45L595.58,325.33L595.34,324.98L594.6,325.33L594.06,326.2L593.71,326.36L593.38,326.16L593.46,325.14L593.64,324.56L593.84,323.2L594.17,322.79L594.58,322.74L594.99,322.14L595.37,322.47L595.33,321.85L596.27,321.42L596.64,322.13L597.23,322.59L597.57,322.7L597.81,323.02L598.68,323.24L599.03,323.24L599.26,322.72L599.04,322.39L598.51,322.6L598.07,322.53L597.3,322.01L596.53,321.19L595.89,320.81L595.32,321.21L594.56,321.25L594.28,321.01L594.3,320.51L594.47,320.17L594.9,320.2L595.31,320.02L595.52,319.65L595,318.88L594.71,318.33L594.78,317.9L595.17,317.56L596.07,317.65L596.5,317.41L597,317.46L597.93,316.49L598.59,316.34L599.42,315.45L600.2,315.06L600.06,314.31L600.26,313.97L600.45,312.96L601.09,312.54L600.93,312.09L600.95,311.61L600.6,311.73L600.39,312.35L600.01,312.42L599.96,312.04L599.39,311.71L599.12,311.4L598.44,310.98L598.5,310.5L598.22,310.26L597.51,309.98L596.66,309.83L596.4,309.46L596.82,309.28L596.98,308.72L596.36,309.12L595.98,309.11L595.68,308.88L595.73,308.18L596.17,308.19L596.17,307.82L596.87,307.5L596.82,306.81L596.97,306.44L597.42,305.89L597.47,305.45L597.76,304.87L598.18,305L598.5,304.64L598.93,304.55L598.9,304.16L598.08,304.35L598.01,304.14L597.59,304.01L598.37,303.6L598.95,303.59L599.11,303.11L599.34,303.03L599.75,303.97L600.85,304.26L601.2,304.48L601.75,304.48L602.32,304.13L603.06,304.05L603.76,304.75L603.68,305.12L604.18,305.53L604.69,306.31L605.11,306.5L606.07,306.54L607.42,306.97ZM583.57,302.98L583.52,302.19L583.84,302.33L584.15,302.22L584.2,301.83L584.91,302.09L585.43,302.57L585.46,302.98L584.72,303.02L583.91,303.41Z" class="land" id="CL-AI" title="Aisén del General Carlos Ibañez del Campo"/>
    <path d="M588.04,300.61L587.79,300.61L587.86,300L588.08,300.1ZM592.81,298.57L592.7,298.74L592.25,298.42L592.28,298.04L592.74,298.21ZM594.88,295.77L594.82,296.07L594.37,296.02L593.95,295.67L593.51,295.46L593.56,295.21L594.04,295.47ZM598.06,293.22L598.47,293.11L598.56,293.79L598.26,294.02L598.04,293.52L597.65,293.01L597.95,292.86ZM595.49,292.08L596.02,292.12L595.86,292.41ZM593.12,292.02L592.61,292.03L592.23,292.16L592.09,291.71L592.69,291.64L593.02,291.44L593.19,291.72ZM594.6,291.29L594.2,290.72L592.98,290.11L592.82,289.36L593.13,289.31L593.63,289.42L593.82,289.92L594.62,290.9ZM597.37,288.34L597,288.69L596.77,288.34L597.08,287.95ZM601.8,286.86L601.72,286.98L601.01,286.57L600.99,286.32L601.27,285.99L601.63,285.95L601.79,286.16ZM590.38,283.37L590.8,283.16L590.93,283.5L590.66,283.71L590.16,283.48L589.95,283.66L590.16,283.97L591.08,284.24L591.4,283.86L591.78,283.88L592.47,283.36L592.91,283.61L593.03,283.33L593.36,283.25L593.68,283.69L593.6,284L593.73,284.39L593.35,284.8L593.71,285.02L594,285.57L594.39,286.04L594.31,286.33L593.95,286.62L594.06,286.93L594.87,287.47L594.97,288.12L594.74,288.68L594.5,288.57L593.9,288.85L593.4,288.82L592.79,289.06L592.54,289.32L592.6,289.73L592.48,290.21L593,290.89L592.33,291.12L591.97,291.07L591.69,290.76L591.47,291.64L591.53,291.88L592.12,292.41L592.4,292.5L592.93,293.29L593.37,293.47L593.84,293.82L594.04,294.13L594.02,294.65L593.41,294.79L593.09,294.66L592.79,294.83L592.76,295.32L593.01,295.68L593.36,295.72L593.42,295.99L593.79,296.66L593.75,296.88L594.05,297.17L593.78,297.5L593.28,297.24L592.78,297.48L592.23,297.62L592.09,297.24L591.8,297.36L592.03,297.93L592.04,298.54L592.59,299.11L592.66,299.44L592.14,299.51L592.62,299.89L592.54,300.21L592.15,300.34L591.61,299.98L591.6,300.52L591,300.66L590.58,300.04L590.09,300.29L589.61,300.02L589.25,300.36L589,299.95L588.33,299.66L587.71,299.55L587.39,299.13L587.16,299.24L586.86,298.9L587.23,297.74L587.57,297.57L587.36,297.17L587.52,296.87L587.82,296.83L588.22,296.34L588.06,296.12L588.3,295.84L588.19,295.19L588.59,295.05L588.71,294.82L588.79,293.98L588.68,293.57L589.02,292.55L588.89,291.55L588.71,291.01L588.5,290.87L588.58,290.54L588.53,289.99L588.81,289.23L588.9,288.77L588.69,288.21L588.87,287.69L589.48,287.01L589.61,286.77L589.52,286.33L589.67,286L589.56,285.25L589.59,284.8L589.93,284.4L589.79,283.82L589.58,283.72L589.52,283.32L589.74,282.96ZM597.84,283.87L597.31,283.8L597.37,283.39L597.24,282.71L597.5,282.7L597.9,283.73ZM606.92,270.94L606.81,271.16L606.16,271.92L606.52,273.28L606.83,273.75L606.98,274.2L606.86,274.83L606.97,275.44L606.83,276.59L606.69,276.73L606.81,277.45L606.58,278.37L606.57,278.7L606.76,279.43L606.69,280.09L606.97,280.8L606.4,281.39L606.4,281.71L606.85,282.37L606.94,283.11L607.44,283.98L607.59,284.74L607.54,285.24L607.87,285.72L607.89,286.27L607.38,286.77L606.73,286.92L606.53,287.21L606.22,287.16L605.99,286.71L605.5,286.92L605.35,287.48L604.83,288.18L604.85,288.71L605.33,289.31L605.22,290.01L605.48,290.62L604.84,291.03L604.64,291.71L604.77,292.13L604.71,292.54L604.85,293.07L604.92,294.62L605.22,295.51L605.5,295.77L605.5,296.13L605.76,296.52L606.23,296.8L606.34,297.28L607.63,297.83L607.84,298.14L607.73,298.63L607.78,299.28L607.35,299.33L606.59,299.57L606.53,299.98L606.28,300.33L606.31,301.04L606.85,301.1L606.93,301.5L606.81,301.93L607.39,301.99L607.99,302.54L608.29,302.93L608.57,302.83L608.95,303.16L608.93,303.68L608.03,304.1L607.7,305.11L607.95,305.28L608.5,306.16L608.42,306.53L607.82,307.46L607.42,306.97L606.07,306.54L605.11,306.5L604.69,306.31L604.18,305.53L603.68,305.12L603.76,304.75L603.06,304.05L602.32,304.13L601.75,304.48L601.2,304.48L600.85,304.26L599.75,303.97L599.34,303.03L599.11,303.11L598.95,303.59L598.37,303.6L597.59,304.01L597.58,303.64L598.02,303.32L598.13,302.83L598.66,302.68L598.45,302.44L597.71,302.45L597.38,301.66L597.04,301.08L597.25,300.23L597.25,299.51L597.48,299.21L598.61,298.63L598.6,297.92L598.44,297.15L598.99,296.29L599.46,296.24L599.58,296.68L600.01,296.95L599.8,296.19L599.91,295.11L599.16,294.34L598.99,293.41L598.99,292.82L599.22,292.73L599.27,292.35L598.99,292.01L599.05,291.31L599.31,290.76L599.86,290.63L600.45,290.76L600.77,291.08L601.37,291.42L601.4,290.98L601.06,290.87L600.46,290.48L600.15,289.99L600.16,289.65L599.79,289.44L599.55,288.64L599.23,288.61L599.15,288.34L599.42,287.97L599.77,287.8L600.5,287.61L600.92,287.35L601.3,287.41L601.41,287.63L602.21,290.08L602.5,290.07L602.34,289.15L602.05,288.66L602.07,288.25L602.56,287.91L602.06,287.76L602.06,286.86L601.94,286.63L601.96,286.07L602.16,285.23L601.73,284.86L601.23,285.71L600.65,285.6L600.39,285.35L599.99,285.53L599.37,285.16L599.17,284.81L598.8,284.5L599.33,284.07L599.43,283.74L600.72,282.44L601.32,282.53L601.6,282.35L601.91,282.38L602.53,282.12L603.13,281.64L603.12,281.15L603.26,280.5L603.42,280.35L603.2,279.91L603.45,279.09L603.26,279.12L603.04,279.63L602.87,281.04L602.53,281.76L601.7,282.01L601.29,282.27L601,282.27L600.46,281.92L600.34,281.28L600,280.95L599.88,280.6L599.07,280.06L598.82,280.21L598.26,279.92L598.09,280.26L597.74,280.25L597.64,280.69L597.04,281L597.33,281.54L597.45,282.18L597.13,282.32L596.8,282.78L596.55,282.74L596.33,283.1L595.74,283.09L595.05,282.98L594.55,283.03L594.32,283.22L593.85,283.3L593.42,283.03L592.71,282.81L592.12,282.78L592.39,282.01L592.42,281.54L592.64,281.32L592.44,281.07L591.62,280.79L591.5,280.06L591.28,279.74L591.18,279.27L591.28,278.33L591.17,277.77L590.86,276.77L590.66,276.44L590.45,274.56L591.17,273.97L590.87,273.42L591.05,272.97L591.11,272.39L591.53,271.78L591.28,271.37L591.44,271.1L591.92,270.75L592.17,270.09L591.99,269.38L591.76,268.98L591.9,268.5L591.91,267.85L592.03,267.04L592.19,266.48L592.39,266.51L592.52,266.93L593.09,267.22L593.44,266.96L593.71,267.18L594.16,267.06L594.49,267.65L594.92,267.85L595.16,267.75L595.87,268.02L596.34,268.11L597.22,268.01L597.49,268.34L598.39,268.82L598.63,269.58L599.23,270.2L599.52,270.81L600.33,271.01L600.47,271.33L600.78,271.62L602.03,271.25L602.81,271.64L603.17,271.69L603.38,271.41L603.88,271.61L604.75,271.69L605.3,271.27L605.87,271.43L606.13,271.19L606.11,270.91Z" class="land" id="CL-LL" title="Los Lagos"/>
    <path d="M608.43,260.12L608.59,259.96L608.3,259.57L607.93,259.64L607.46,259.47L607.04,258.94L606.59,258.87L606.02,258.98L605.39,259.33L605.21,259.62L604.26,259.68L603.54,259.43L603.35,259.62L602.98,259.55L602.46,259.2L601.86,259.23L601.71,258.81L601.32,258.92L600.96,258.87L600.75,259.08L600.36,258.67L600,258.83L599.53,258.46L598.93,258.5L598.79,258.03L599.03,257.97L599.24,257.41L598.88,257.15L598.39,257.52L598,257.25L597.74,257.45L597.74,257.74L597.39,258.09L596.69,258.42L595.96,258.09L596.17,257.71L596.06,256.77L596.26,256.21L595.93,256.04L595.68,255L595.07,253.36L594.5,251.06L594.28,250.93L594.11,250.56L593.8,249.2L594.63,248.45L595.01,248.28L595.32,248.4L595.53,249.19L595.81,249.15L595.89,248.86L595.64,248.07L595.32,247.8L596.94,246.2L597.35,246.15L597.45,245.22L596.4,244.65L596.66,244.12L597.09,243.96L597.26,243.6L597.15,242.91L597.65,242.81L597.94,242.29L597.77,242.05L597.99,241.65L597.73,241.32L597.26,241.41L597.15,241.08L597.43,240.96L597.6,240.68L597.5,240.46L598.65,240.34L599.02,240.15L599.69,240.11L600.16,240.41L600.75,240.46L600.75,240.89L601.4,240.82L601.93,240.68L602.04,241.67L602.66,242.65L603.19,242.96L603.88,243L604.2,243.53L604.63,243.65L605.08,244.29L605.52,244.34L605.95,244.08L606.66,245.01L607.54,244.53L608.07,245.03L607.86,245.75L608.07,245.91L607.88,246.41L608.15,246.68L607.92,246.99L608.43,247.42L608.58,246.96L608.93,246.51L609.29,246.63L609.31,246.25L610.04,245.98L610.23,245.39L610.47,245.13L610.91,245.13L611.15,245.32L611.54,245.2L612.26,245.34L612.8,245.1L613.03,245.34L613.55,245.49L613.63,245.8L613.57,246.81L613.91,248.42L614.1,248.76L614.9,249.45L614.99,250.03L614.63,250.62L614.7,251.11L614.42,251.26L614.26,251.56L613.96,251.71L613.32,251.67L612.5,252.19L611.91,252.3L611.5,252.71L610.78,253.1L610.42,253.58L610.3,254.5L610.45,255.26L610.53,256.64L610.39,257.72L609.94,258.13L610.06,258.65L609.43,259.66L609.79,260L609.6,260.51L608.96,260.55Z" class="land" id="CL-AR" title="La Araucanía"/>
    <path d="M537.02,202.95L536.76,202.96L536.54,202.59L536.62,202.27L536.82,202.12L537.06,202.31ZM311.58,141.78L311.87,141.72L311.86,142.06L311.09,142.28L310.88,142.45L310.2,142.58L310.44,141.8L310.65,141.53L310.89,141.47ZM618.99,188.66L619.06,188.9L619.47,189.07L619.68,189.36L619.66,190.05L619.8,190.34L620.24,190.62L620.35,191.35L620.17,192.17L620.37,193.19L620.49,193.47L621.17,194.24L621.6,194.48L621.33,195.43L621.15,195.66L620.78,195.82L620.73,196.05L620.33,196.44L619.62,196.95L619.53,197.43L619.34,197.41L619.27,196.95L618.79,196.65L618.49,196.77L618.28,196.42L618.25,195.95L617.98,195.89L617.47,196.55L617.07,196.05L617.15,195.74L616.74,195.13L615.83,195.31L615.7,194.95L615.36,195.08L614.47,195.03L614.13,195.39L613.37,195.46L613.31,195.6L613.54,196.1L613.36,196.49L613.42,197.03L613.68,197.56L613.06,197.91L612.56,197.97L612.07,197.82L611.82,198.15L611.99,198.52L612.01,198.93L611.8,199.32L611.34,199.6L610.94,199.64L610.95,199.98L610.76,200.73L610.99,200.91L610.95,201.55L610.59,201.71L610.45,202.09L610.11,202.29L610.64,202.9L610.31,203.27L609.63,203.09L609.25,203.16L609.09,204.03L608.89,204.08L607.96,204.78L607.55,204.54L607.38,204.59L606.83,204.47L607.11,203.46L607.33,202.99L607.76,202.84L608.28,202.46L608.54,201.85L608.6,201.11L608.77,200.75L608.65,200.37L608.13,199.74L608.12,199.32L608.4,199.03L608.37,198.48L608.12,197.97L608.02,197.22L607.69,196.6L607.84,196.46L608.26,196.45L608.61,195.82L609.02,195.83L609.22,195.66L609.37,194.91L609.61,194.45L609.38,193.72L609.43,193.52L609.75,193.45L609.7,192.93L610.03,192.82L610.19,192.29L610.12,191.63L609.94,191.28L610.23,190.81L610.45,189.73L610.04,189.41L609.95,188.87L609.45,188.26L609.88,187.83L610.53,188.17L610.9,188.25L611.52,188.17L611.99,187.63L612.29,187.98L613.42,186.95L613.49,186.62L613.95,186.62L614.25,187L614.78,186.85L615.67,186.45L616.14,186.75L616.39,187.02L616.46,187.38L617.01,187.77L617.33,187.85L617.67,187.73L617.94,188.19L617.88,188.48L618.12,188.7L618.09,189L618.46,189ZM552.02,201.39L552.3,201.44L552.48,201.72L552.04,201.79L551.64,201.6L550.9,201.85L551.01,201.47L551.34,201.33L551.47,201.08L551.92,201.22Z" class="land" id="CL-VS" title="Valparaíso"/>
    <path d="M633.03,125.82L632.42,126.02L631.48,126.75L631.08,126.63L630.49,126.63L630.16,126.76L629.79,126.56L629.53,126.66L629.7,126.93L629.55,127.08L629.67,127.43L629.64,127.78L628.9,128.31L629.22,128.58L629.25,128.86L629.53,129.23L629.32,129.49L629.28,129.76L628.69,130.36L628.42,130.45L627.68,130.5L626.59,130.93L626.41,130.65L626.14,130.85L625.72,130.85L625.7,131.11L625.43,131.11L625.58,131.51L624.95,131.35L624.02,131.38L623.81,131.23L623.12,131.26L622.63,131.16L622.41,131.48L621.87,131.03L621.37,131.13L620.87,131.53L619.36,131.35L619.19,131.01L618.8,130.98L618.7,131.41L618.52,131.62L617.84,131.6L617.25,132.02L616.6,132.02L616.48,131.6L616.1,131.09L615.99,130.66L615.76,130.6L615.88,130.16L616.07,130.11L616.13,129.39L616.28,129.06L616.59,128.82L616.46,128.08L616.68,127.76L616.98,127.66L617.41,127.34L617.54,126.72L617.93,126.69L618.09,126.36L618.02,126.13L618.13,125.76L618.15,125.04L618.05,124.69L617.67,124.26L617.74,123.7L617.9,123.36L617.87,123.14L617.49,122.65L617.21,121.71L617.21,121.32L617.05,121.02L617.05,120.34L617.22,119.93L617,119.22L617.11,119.03L617.32,118.27L617.23,117.84L617.39,117.33L617.41,116.8L617.6,116.13L617.5,115.75L617.65,115.52L617.58,115.01L617.44,114.65L617.65,113.93L617.55,113.46L617.69,113.28L617.66,112.82L617.78,112.57L618.13,112.21L618.4,111.67L618.51,111.03L618.34,110.47L617.67,110.11L617.34,110.65L616.82,110.46L616.61,110.52L616.75,109.92L616.98,109.71L616.83,109.14L616.93,108.87L616.86,108.17L617.12,107.79L617.14,107.2L617.01,107L617.16,106.59L617.6,106.16L617.77,106.81L618.04,106.91L618.66,106.51L618.94,106.1L619.01,105.7L619.25,105.37L619.33,104.94L619.13,104.28L619.38,103.46L619.33,102.92L619.47,102.82L619.4,102.28L619.68,101.77L619.59,101.42L619.64,100.32L619.74,100.07L619.91,98.24L620.1,98.04L620.02,97.58L620.19,97.3L620.24,96.95L620.08,96.55L620.41,96.36L620.4,94.68L620.49,94.41L620.78,94.2L620.91,93.67L621.03,93.47L620.94,93.14L621.11,92.86L621.06,92.54L621.34,92.43L622.2,92.36L623.06,92.52L623.42,92.37L623.73,92.58L624.31,92.73L624.62,93.14L624.72,93.49L625.02,93.84L627.13,91.96L628.18,91.66L630.28,91L633.14,89.59L633.37,88.54L633.8,88.54L634.1,88.71L635.75,91.45L635.85,91.83L635.82,93.89L635.88,94.19L636.37,95.08L636.53,95.74L636.62,97.14L636.73,97.36L637.46,98.02L637.72,98.59L637.6,98.98L637.82,99.31L637.9,99.68L637.76,100.21L637.81,100.55L638.19,101.3L638.25,101.72L638.5,102.37L638.24,103.64L638.24,104.3L638.36,104.65L638.7,104.7L638.93,105.03L639.19,105.12L640.41,105.19L640.96,105.15L643.75,104.55L645.17,106.08L645.12,106.35L644.43,108.63L643.32,112.29L642.59,114.69L642.42,114.94L642.02,115.16L641.25,115.46L637.3,117.23L635.45,118.02L634.9,118.9L634.66,119.01L634.24,119.01L633.93,119.7L633.82,120.13L633.58,119.87L633.41,119.98L633.27,120.53L632.87,121.35L632.82,121.69L633,122.15L633.36,122.45L633.6,122.48L633.68,122.8L633.91,123.07L633.88,123.54L634.48,124.26L634.39,124.55L634.06,124.65L633.64,124.62L633.31,124.96Z" class="land" id="CL-AN" title="Antofagasta"/>
  </g>
</svg>