<?xml version="1.0" encoding="UTF-8"?>
<svg xmlns="http://www.w3.org/2000/svg" width="741.79" height="295.88" viewBox="109.11 109.06 741.79 295.88" style="background-color:#000000">
  <!-- Created using SVG Map Generator: dojo.amcharts.com/svg-map-generator -->
  <style>
    .land { fill: #ffffff; stroke: #000000; stroke-width: 0.65; }
  </style>
  <g id="polygons">
    <path d="M680.8,327.23L679.62,327.68L678.71,327.68L675.99,329.75L675.53,331.48L676.27,333.46L675.25,334.35L676.19,336.47L674,339.86L672.27,338.59L672.16,335.49L670.05,331.54L668.05,332.68L665.31,332.77L664.44,329.67L664.79,328.27L663.29,327.07L661.37,327.51L657.6,326.64L655.21,325.62L650.93,326.6L649.2,326.47L650.14,322.29L651.44,320L650.52,317.96L645.31,316.1L644.07,314.63L645.76,310.91L648.51,310.6L652.03,307.72L651.77,306.31L648.25,303.99L650.42,303.51L655.74,301.43L656.46,297.4L657.66,296.48L657.08,294.25L659.23,294.22L659.08,290.24L661.28,290.76L662.04,292.79L664.66,292.68L664.65,294.76L665.86,296.22L669.02,298.07L670.34,300.41L671.83,299.03L674.05,298.25L674.66,296.07L677.18,296.33L677.8,298.98L678.9,299.27L680.67,302.09L680.73,304.16L686.52,303.87L687.43,301.72L687.22,298.77L688.34,297.29L690.23,298L695.41,295.14L695.16,293.63L697.55,292.03L697.89,294.38L699.15,295.12L699.78,293.38L701.5,292.68L703.53,293.93L704.12,295.28L701.17,296.66L697.16,299.24L695.5,302.28L697.26,304.29L694.74,307.96L694.68,310.55L692.79,313.1L692.98,314.67L691.44,317.97L689.77,318.14L686.71,321.13L681.19,324.08Z" class="land" id="EC-A" title="Azuay"/>
    <path d="M673.68,273.01L672.66,272.13L670.29,273.56L667.89,271.88L668.73,269.21L666.79,266.06L667.23,260.67L667.96,259.98L667.19,256.83L667.73,255.05L665.34,251.42L667.15,247.38L662.8,242.62L663.84,239.75L665.32,239.88L665.11,237.18L664.1,236.84L662.63,234.44L663.37,232.28L665.33,231.46L666.59,231.56L668.38,230.08L672.79,229.05L674.29,229.23L677.03,231.57L680.63,231.71L681.62,230.45L684.25,230.59L683.02,232.3L683.26,234.01L681.19,237.39L681.3,240.25L683.37,242.82L684.86,243.34L683.72,244.26L682.83,249.16L684.91,250.41L684.56,253.17L683.63,255.42L681.27,256.16L679,256.06L677.69,256.95L677.23,260.62L677.89,262.73L677.51,266.82L676.56,269.74L676.61,272.7Z" class="land" id="EC-B" title="Bolivar"/>
    <path d="M743.56,148.66L739.15,149L737.44,152.31L736,152.93L731.64,158.44L732.13,160.25L731.47,161.64L726.42,159.52L725.48,158.18L723.39,157.46L722.52,156.3L718.84,155.94L717.21,153.76L717.41,151.95L713.88,145.36L709.46,142.03L708.38,140.79L705.7,140.56L702.71,138.28L700.81,137.59L698.51,134.79L698.66,130.69L700.28,128.42L700.24,124.27L701.58,124.08L703.38,125.63L707.45,127.78L707.79,130.79L713.95,132.95L714.23,135.2L716.12,136.14L718,135.77L719.84,137.35L723.55,139.22L724.53,140.59L729.1,141.84L731.25,141.6L731.79,140.29L736.05,139.52L738.07,141.14L736.38,144.34L738.11,145.9L740.43,146.66Z" class="land" id="EC-C" title="Carchi"/>
    <path d="M765.09,222.63L764.7,221.16L766.12,218.84L761.69,217.87L759.16,214.84L758.52,213.31L761.02,211.64L762.7,208.85L760.44,209.17L759.16,211.49L756.47,212.96L756.02,214.45L749.86,217.61L747.62,217.72L744.71,220.05L742.39,219.71L744.23,214.17L743.5,212.92L745.53,208.92L744.22,207.28L743.94,205.47L741.79,204.78L741.35,203.19L739.95,202.53L740.5,200.78L742.73,199.64L743.29,197.77L745.04,199.36L748.54,200.85L750.28,199.65L751.45,196.68L753.15,196.47L753.14,194.38L755.41,192.75L756.04,190.24L755.24,186.88L755.3,183.59L754.12,180.15L756.15,180.42L760.5,182.07L762.23,181.61L765.34,182.59L769.32,180.43L773.28,183.16L774.61,185.5L776.9,188.14L780.13,192.81L780.17,193.1L784.05,195.31L784.45,196.71L787.61,195.84L789.84,197.36L791.54,199.31L793.69,199.29L795.2,200.77L800.78,197.62L804.78,197.24L806.75,197.71L808.58,197.21L810.25,200.46L813.05,202.44L815.2,201.32L814.54,196.26L815.57,195.76L819.15,195.82L820.31,197.09L823.8,196.29L825.92,198.66L828.31,198.44L831.83,199.98L832.32,202.05L834.56,202.43L836.5,201.94L839.13,202.71L840.07,204.76L843.01,204.97L844.41,206.77L845.6,206.49L844.96,207.37L844.98,210.83L846.47,213.25L846.04,214.96L847.34,216.28L846.83,219.24L848.24,221.34L845.31,220.96L844.17,221.7L842.19,220.85L839.94,218.89L832.48,246.61L831.09,246.87L830.01,244.32L828.92,244.66L825.97,243.05L824.2,240.94L822.51,239.96L816.74,237.93L814.81,238.28L812.43,236.1L809.97,235.14L804.16,235.08L801.17,236.01L797.2,235.73L796.21,234.43L793.82,234.43L790.9,233.41L790.57,232.08L788.85,231.04L789.53,225.39L788.78,224.59L785.54,225.53L783.31,224.8L775.38,227.27L774.12,229.55L772.38,227.95L769.96,227.76L768.14,226.56L764.73,226.08L763.7,223.33Z" class="land" id="EC-D" title="Orellana"/>
    <path d="M661.78,176.49L659.11,176.41L658.35,178.77L651.14,178.46L650.29,176.67L650.64,175.17L652.75,172.4L650.23,170.43L649.28,170.64L646.41,169.35L648.47,165.74L645.98,164.13L646.67,162.1L645.95,160.82L643.5,160.43L642.2,161.26L641.52,163.25L638.18,163.5L636.51,166.13L634.53,165.5L633.66,161.99L632.15,160.76L631.01,156.53L632.67,154.54L633.36,152.15L628.92,146.37L629.16,143.26L631.45,140.89L635.63,140.53L637.21,139.13L639.44,138.8L642.06,137.43L645.21,134.33L649.19,132.85L651.03,133.41L653.49,133.01L659.51,129.37L661.75,129.63L666.64,128.83L667.25,129.46L671.08,128.31L672.43,127.39L675.97,122.81L676.16,121.82L679.01,120.13L683.36,115.58L684.13,111.71L687.07,113.56L688.21,115.24L690.76,116.2L691.92,117.95L693.43,118.42L694.35,120.88L697.96,123.33L700.24,124.27L700.28,128.42L698.66,130.69L698.51,134.79L700.81,137.59L702.71,138.28L703.1,141.63L702.09,142.86L700.28,142.8L699.68,144.78L700.98,145.88L703.82,151.78L702.19,153.68L700.72,153.07L698.31,154.28L697.93,155.89L695.85,157.22L695.56,158.86L693.57,160.61L690.88,159.47L687.3,159.54L685.7,158L683.52,160.02L682.24,159.52L679.99,161.86L677.23,163.77L675.67,162.96L671,161.91L666.45,162.26L666.03,163.07L664.16,166.09L662.14,166.42L664.64,169.74L661.78,175.09Z" class="land" id="EC-E" title="Esmeraldas"/>
    <path d="M661.28,290.76L660.73,289.41L656.39,289.92L654.79,288.89L657.16,287.12L659.5,283.97L662.16,283.31L665.11,281.22L668.06,281.2L670.41,280.59L671.85,276.56L673.76,278.44L674.26,279.87L677.03,283.28L682.19,285.82L683.41,284.62L687.64,284.29L687.95,286.51L690.88,286.11L693.44,287.29L693.75,289.24L697.55,292.03L695.16,293.63L695.41,295.14L690.23,298L688.34,297.29L687.22,298.77L687.43,301.72L686.52,303.87L680.73,304.16L680.67,302.09L678.9,299.27L677.8,298.98L677.18,296.33L674.66,296.07L674.05,298.25L671.83,299.03L670.34,300.41L669.02,298.07L665.86,296.22L664.65,294.76L664.66,292.68L662.04,292.79Z" class="land" id="EC-F" title="Cañar"/>
    <path d="M639.28,314.52L640.41,311.77L640.07,306.42L641.73,304.89L641.61,302.67L642.56,300.75L643.04,295.91L642.29,294.59L643.81,290.38L642.62,288.71L642.55,286.95L640.96,284.75L639.95,286.37L638.05,292.67L635.97,294.27L636.25,296.44L633.73,296.12L632.13,294.53L630.76,294.4L630.54,292.48L632.21,291.79L631.89,289.43L633.26,283.39L631.27,285.16L630.49,287.72L628.74,290.67L625.75,293.76L624.1,294.14L622.58,295.92L622.71,298.69L622.13,300.34L619.44,299.09L615.93,295.66L614,295.76L608.27,289.73L609.18,288.93L612.92,289.04L612.85,285.57L612.89,285.52L613.46,283.81L616.43,284.04L616.99,282.42L619.06,282.71L620.81,282.09L620.75,279.34L622.97,278.3L624.52,276.43L622.81,275.63L622.52,272.18L619.53,269.83L616.76,266.36L615.11,266.28L613.83,264.52L613.86,264.35L613.63,261.87L613.56,261.75L614.73,257.47L618.96,253.32L624.12,252.26L623.16,250.23L620.77,247.76L623.64,247.97L625.79,245.85L624.3,244.62L624.89,241.73L626.99,240.48L626.61,238.68L627.34,236.77L629.4,236.79L631.9,234.38L633.01,231.43L634.11,230.16L633.27,228.75L637.58,228.5L640.48,225.95L642.45,223.21L642.58,221.5L646.29,216.82L648.58,217.93L651.06,215.69L652.65,215.34L655.51,215.98L653.84,219.32L654.77,220.99L653.09,221.56L652.58,224.24L649.59,226.41L646.11,230.35L644.75,230.85L644.58,233.2L642.74,235.88L642.31,237.7L640.31,239.53L639.42,241.46L639.25,249.21L639.9,250.36L639.76,251.32L641.28,253.94L644.71,255.11L644.77,257.56L645.57,260.22L648.17,262.13L650.46,263.16L654.02,261.77L656.52,262.6L660.43,265.52L661.75,265.75L663.84,269.27L663.98,270.6L667.89,271.88L670.29,273.56L672.66,272.13L673.68,273.01L671.13,276.14L671.85,276.56L670.41,280.59L668.06,281.2L665.11,281.22L662.16,283.31L659.5,283.97L657.16,287.12L654.79,288.89L656.39,289.92L660.73,289.41L661.28,290.76L659.08,290.24L659.23,294.22L657.08,294.25L657.66,296.48L656.46,297.4L655.74,301.43L650.42,303.51L648.25,303.99L651.77,306.31L652.03,307.72L648.51,310.6L645.76,310.91L644.07,314.63L641.76,314.08ZM640.76,288.87L641.7,291.8L640.02,296.83L638.48,295.6L639.77,289.3ZM637.79,301.12L636.58,302.54L633.4,303.62L627.98,312.74L624.64,313.69L622.08,313.11L621.23,312.06L621.76,309.87L621.97,304.3L623.73,301.28L623.63,300.1L631.85,297.27L637.85,300.13Z" class="land" id="EC-G" title="Guayas"/>
    <path d="M707.02,245.58L706.16,246.26L706.74,249.44L706.33,251.68L703.67,252.95L702.81,255.04L703.41,257.71L705.24,260.41L704.95,261.6L701.11,265.2L701.58,267.18L703.23,267.55L702.86,272.32L700.03,273L700.41,278.08L697.86,281.63L700.65,284.14L701.46,287.43L700.43,290.77L698.61,293.3L699.15,295.12L697.89,294.38L697.55,292.03L693.75,289.24L693.44,287.29L690.88,286.11L687.95,286.51L687.64,284.29L683.41,284.62L682.19,285.82L677.03,283.28L674.26,279.87L673.76,278.44L671.85,276.56L671.13,276.14L673.68,273.01L676.61,272.7L676.56,269.74L677.51,266.82L677.89,262.73L677.23,260.62L677.69,256.95L679,256.06L681.27,256.16L683.63,255.42L684.56,253.17L684.91,250.41L682.83,249.16L683.72,244.26L684.86,243.34L688.43,241.51L690.5,243.3L693.15,244.64L697.81,243.56L700.04,243.49L700.37,241.94L704.07,243.99L706.7,244.51Z" class="land" id="EC-H" title="Chimborazo"/>
    <path d="M724.57,170.43L720.8,168.88L719.07,169.02L718.18,170.41L712.98,171.71L710.2,170.71L708.21,168.93L706.25,165.81L705.18,166.32L703.62,168.75L702.05,165.8L700.19,166.57L699.55,167.95L697.24,167.41L694.45,168.25L691.29,167.85L689.25,166.74L686.7,167.18L685.24,166.75L680.66,168.38L677.65,167.15L676.86,164.4L674.33,164.09L671.96,163.1L670.27,163.51L666.03,163.07L666.45,162.26L671,161.91L675.67,162.96L677.23,163.77L679.99,161.86L682.24,159.52L683.52,160.02L685.7,158L687.3,159.54L690.88,159.47L693.57,160.61L695.56,158.86L695.85,157.22L697.93,155.89L698.31,154.28L700.72,153.07L702.19,153.68L703.82,151.78L700.98,145.88L699.68,144.78L700.28,142.8L702.09,142.86L703.1,141.63L702.71,138.28L705.7,140.56L708.38,140.79L709.46,142.03L713.88,145.36L717.41,151.95L717.21,153.76L718.84,155.94L722.52,156.3L723.39,157.46L725.48,158.18L726.42,159.52L731.47,161.64L729.74,163.75L729.72,166.77L728.11,168.55L727.02,168.32Z" class="land" id="EC-I" title="Imbabura"/>
    <path d="M627.78,351.68L632.97,350.76L635.54,348.98L639.58,348.62L641.09,349.4L645.84,349.15L647.8,346.76L651.15,345.52L652.92,347.82L655.85,347.24L658.36,348.29L660.06,347.08L659.63,344.38L661.43,342.8L661.86,341.39L659.09,337.79L656.66,340.36L656.72,334.88L659.36,331.73L657.61,331.18L657.01,329.69L657.6,326.64L661.37,327.51L663.29,327.07L664.79,328.27L664.44,329.67L665.31,332.77L668.05,332.68L670.05,331.54L672.16,335.49L672.27,338.59L674,339.86L671.93,341.72L671.03,343.88L669.47,344.39L670.35,347.45L671.85,348.7L672.45,351.21L671.09,363.56L673.42,364.98L673.5,369.67L672.84,370.52L673.45,372.78L672.89,375.81L670.81,378.02L668.23,378.81L665.25,378.08L663.16,381.25L663.34,383.89L660.58,387.16L660.43,388.93L659.11,390.23L657.78,388.17L657.52,385.95L656.39,384.73L656.45,380.41L653.91,380.29L652.24,379.03L651.38,377.16L649.42,376.14L646.59,377.86L642.75,378.77L640.07,376.96L639.3,375.27L637.15,374.01L635.24,374.45L631.93,372.32L630.75,370.63L628.91,369.78L626.48,370.34L624.76,372.4L618.76,377.53L616.14,378.53L613.49,376.7L613.24,373.88L615.08,370.98L617.01,369.41L617.71,366.58L613.39,366.05L613.47,362.11L611.72,360.39L613.51,356.54L615.65,355.84L620.05,357.45L621.29,357.05L622.91,355Z" class="land" id="EC-L" title="Loja"/>
    <path d="M613.63,261.87L613.86,264.35L613.74,264.51L610.37,262.67L608.2,259.86L607.73,257.52L606.17,256.15L605.89,254.04L604.55,252.28L603.42,252.67L600.12,252.24L597.57,254.12L595.71,249.61L595.81,247.63L597.08,247.26L596.98,245.09L599.15,243.53L599.85,241.07L599.38,239.67L600.41,238.25L599.42,236.24L595.44,231.45L594.19,229.19L592.65,224.89L596.38,220.28L598.23,220.39L601.06,219.43L602.29,219.96L604.2,219.09L605.8,219.78L607.45,218.92L609.05,216.96L610.84,210.45L612.44,206.14L614.61,204.11L612.95,198L611.42,195.35L615.26,191.45L616.5,187.96L621.61,184.98L625.54,180.91L627.16,179.68L630.51,175.13L632.08,169.57L631.59,161.33L632.15,160.76L633.66,161.99L634.53,165.5L636.51,166.13L638.18,163.5L641.52,163.25L642.2,161.26L643.5,160.43L645.95,160.82L646.67,162.1L645.98,164.13L648.47,165.74L646.41,169.35L649.28,170.64L650.23,170.43L652.75,172.4L650.64,175.17L650.29,176.67L651.14,178.46L650.98,179.85L653.71,181.95L655.01,184.83L659.79,185.87L659.86,195.89L657.76,197.94L658.13,198.98L656.63,201.82L656.5,203.82L655.5,205.99L653.99,206.89L654.27,209.63L652.13,209.42L651.12,213.16L651.06,215.69L648.58,217.93L646.29,216.82L642.58,221.5L642.45,223.21L640.48,225.95L637.58,228.5L633.27,228.75L634.11,230.16L633.01,231.43L631.9,234.38L629.4,236.79L627.34,236.77L626.61,238.68L626.99,240.48L624.89,241.73L624.3,244.62L625.79,245.85L623.64,247.97L620.77,247.76L623.16,250.23L624.12,252.26L618.96,253.32L614.73,257.47L613.56,261.75Z" class="land" id="EC-M" title="Manabí"/>
    <path d="M717.48,232.25L717.79,230.71L714.63,230.46L714.51,229.36L707.88,228.29L708.4,224.22L706.87,222.26L705.31,222.01L704.77,218.4L705.6,213.69L705.43,210.95L704.62,209.91L705.33,207.79L708.23,206.98L708.71,203.57L710.25,203.37L712.46,197.06L711.56,195.78L714.46,191.76L714.72,187.09L716.06,185.23L718.43,186.24L720.23,185.33L720.21,183.69L722.18,183.79L724.36,182.99L725.58,179.79L729.61,177.68L730.18,176.27L732.84,177.06L732.21,178.24L732.76,181.22L739.21,180.9L741.66,182.37L743.81,179.97L747.04,178.33L748.59,183.35L750.84,184.32L752.26,183.29L754.12,180.15L755.3,183.59L755.24,186.88L756.04,190.24L755.41,192.75L753.14,194.38L753.15,196.47L751.45,196.68L750.28,199.65L748.54,200.85L745.04,199.36L743.29,197.77L742.73,199.64L740.5,200.78L739.95,202.53L741.35,203.19L741.79,204.78L743.94,205.47L744.22,207.28L745.53,208.92L743.5,212.92L744.23,214.17L742.39,219.71L744.71,220.05L747.62,217.72L749.86,217.61L756.02,214.45L756.47,212.96L759.16,211.49L760.44,209.17L762.7,208.85L761.02,211.64L758.52,213.31L759.16,214.84L761.69,217.87L766.12,218.84L764.7,221.16L765.09,222.63L757.71,223.35L757.38,224.38L749.74,225.84L744.19,227.82L742.69,229.36L741.11,227.82L740.21,228.93L738.42,228.19L734.62,229.5L730.54,232L728.49,231.22L727.54,233.19L725.4,231.45L722.5,232.24L720.71,233.4Z" class="land" id="EC-N" title="Napo"/>
    <path d="M657.6,326.64L657.01,329.69L657.61,331.18L659.36,331.73L656.72,334.88L656.66,340.36L659.09,337.79L661.86,341.39L661.43,342.8L659.63,344.38L660.06,347.08L658.36,348.29L655.85,347.24L652.92,347.82L651.15,345.52L647.8,346.76L645.84,349.15L641.09,349.4L639.58,348.62L635.54,348.98L632.97,350.76L627.78,351.68L626.38,350.78L626.31,347.82L625.18,346.58L625.49,344.84L625.06,338.73L623.88,334.36L622.5,333.62L623.59,331.4L619.45,329.42L621.36,326.47L624.1,327.22L628.14,326.78L630.59,324.56L631.55,321.94L632.78,323.22L636.34,319.5L637.57,319.13L638.36,315.27L639.28,314.52L641.76,314.08L644.07,314.63L645.31,316.1L650.52,317.96L651.44,320L650.14,322.29L649.2,326.47L650.93,326.6L655.21,325.62Z" class="land" id="EC-O" title="El Oro"/>
    <path d="M705.33,207.79L705.75,205.64L703.76,204.39L701.18,206L697.03,205.1L695.62,204.25L692.95,206.68L690.97,207.18L689.93,205.34L690.2,202.58L685.67,200.8L685.48,198.87L680.89,192.33L684.15,192.34L686.2,192.97L689.62,189.87L687.98,187.08L685.74,185.89L685.62,183.64L683.09,182.27L681.5,182.89L679.74,182.04L677.66,182.42L673.98,181.55L671.57,181.61L672.56,179.69L671.86,178.14L664.64,176.58L661.78,176.49L661.78,175.09L664.64,169.74L662.14,166.42L664.16,166.09L666.03,163.07L670.27,163.51L671.96,163.1L674.33,164.09L676.86,164.4L677.65,167.15L680.66,168.38L685.24,166.75L686.7,167.18L689.25,166.74L691.29,167.85L694.45,168.25L697.24,167.41L699.55,167.95L700.19,166.57L702.05,165.8L703.62,168.75L705.18,166.32L706.25,165.81L708.21,168.93L710.2,170.71L712.98,171.71L718.18,170.41L719.07,169.02L720.8,168.88L724.57,170.43L724.7,172.45L726.81,173.87L729.31,174.71L730.18,176.27L729.61,177.68L725.58,179.79L724.36,182.99L722.18,183.79L720.21,183.69L720.23,185.33L718.43,186.24L716.06,185.23L714.72,187.09L714.46,191.76L711.56,195.78L712.46,197.06L710.25,203.37L708.71,203.57L708.23,206.98Z" class="land" id="EC-P" title="Pichincha"/>
    <path d="M667.89,271.88L663.98,270.6L663.84,269.27L661.75,265.75L660.43,265.52L656.52,262.6L654.02,261.77L650.46,263.16L648.17,262.13L645.57,260.22L644.77,257.56L644.71,255.11L641.28,253.94L639.76,251.32L639.9,250.36L639.25,249.21L639.42,241.46L640.31,239.53L642.31,237.7L642.74,235.88L644.58,233.2L644.75,230.85L646.11,230.35L649.59,226.41L652.58,224.24L653.09,221.56L654.77,220.99L653.84,219.32L655.51,215.98L652.65,215.34L651.06,215.69L651.12,213.16L652.13,209.42L654.27,209.63L653.99,206.89L655.5,205.99L656.5,203.82L656.63,201.82L662.71,201.85L662.28,203.84L662.78,205.72L661.69,206.84L662.62,208.39L665.47,208.66L666.45,207.12L669.22,205.64L672.13,202.09L673.2,201.75L674.52,202.87L672.48,206.56L672.02,209.4L669.89,213.27L668.39,213.82L667.35,216.83L665.41,217.37L664.13,220.41L664.45,224.93L663.13,228.28L665.33,231.46L663.37,232.28L662.63,234.44L664.1,236.84L665.11,237.18L665.32,239.88L663.84,239.75L662.8,242.62L667.15,247.38L665.34,251.42L667.73,255.05L667.19,256.83L667.96,259.98L667.23,260.67L666.79,266.06L668.73,269.21Z" class="land" id="EC-R" title="Los Ríos"/>
    <path d="M706.67,335.57L699.08,335.52L696.74,336.55L694.76,335.79L693.15,336.48L692.39,338.19L690.75,337.03L689.23,337.33L685.81,336.47L684.05,334.36L683.56,329.83L680.8,327.23L681.19,324.08L686.71,321.13L689.77,318.14L691.44,317.97L692.98,314.67L692.79,313.1L694.68,310.55L694.74,307.96L697.26,304.29L695.5,302.28L697.16,299.24L701.17,296.66L704.12,295.28L703.53,293.93L701.5,292.68L699.78,293.38L699.15,295.12L698.61,293.3L700.43,290.77L701.46,287.43L700.65,284.14L697.86,281.63L700.41,278.08L700.03,273L702.86,272.32L703.23,267.55L701.58,267.18L701.11,265.2L704.95,261.6L705.24,260.41L703.41,257.71L702.81,255.04L703.67,252.95L706.33,251.68L706.74,249.44L706.16,246.26L707.02,245.58L709.69,243.75L711.13,244.79L714.2,243.52L715.05,242.35L717.33,242.49L720.35,246.43L720.4,248.13L722.06,252.52L726.47,251.56L728.34,254.57L728.15,256.38L730.74,261.13L730.91,263.55L735.76,268.19L737.7,269.3L740.17,268.93L741.54,270.29L744.78,270.72L748.66,273.24L755.24,276.08L757.23,278.74L759.23,279.14L760.27,280.54L761.72,280.62L763.87,282.43L766.37,287.24L767.74,287.66L767.91,290.09L769.3,290.06L770.24,291.88L774.4,292.1L775.81,291.38L779.49,291.84L781.18,294.09L781.56,294.36L730.44,311.49L725.38,315.07L724.33,317.11L718.19,323.63L716.6,326.5L714.38,328.05L714.93,330.16L716.45,332.46L714.76,334.23L712.88,333.86L711.97,329.87L709.51,329.77L707.5,328.91L707.35,332.37Z" class="land" id="EC-S" title="Morona Santiago"/>
    <path d="M673.2,201.75L672.13,202.09L669.22,205.64L666.45,207.12L665.47,208.66L662.62,208.39L661.69,206.84L662.78,205.72L662.28,203.84L662.71,201.85L656.63,201.82L658.13,198.98L657.76,197.94L659.86,195.89L659.79,185.87L655.01,184.83L653.71,181.95L650.98,179.85L651.14,178.46L658.35,178.77L659.11,176.41L661.78,176.49L664.64,176.58L671.86,178.14L672.56,179.69L671.57,181.61L673.98,181.55L677.66,182.42L679.74,182.04L681.5,182.89L683.09,182.27L685.62,183.64L685.74,185.89L687.98,187.08L689.62,189.87L686.2,192.97L684.15,192.34L680.89,192.33L679.45,195.78L677.74,196.21L677.57,197.63L675.11,200.93Z" class="land" id="EC-SD" title="Santo Domingo de los Tsáchilas"/>
    <path d="M612.85,285.57L612.92,289.04L609.18,288.93L608.27,289.73L602.74,284.94L597.61,283.99L594.41,281.51L588.23,275.53L589.16,275.29L591.34,276.84L592.88,276.89L595.51,275.68L598.16,273.82L599.94,271.82L600.58,268.31L599.34,265.96L600.98,263.68L599.44,258.95L599.09,256.41L597.57,254.12L600.12,252.24L603.42,252.67L604.55,252.28L605.89,254.04L606.17,256.15L607.73,257.52L608.2,259.86L610.37,262.67L613.74,264.51L613.83,264.52L615.11,266.28L616.76,266.36L619.53,269.83L622.52,272.18L622.81,275.63L624.52,276.43L622.97,278.3L620.75,279.34L620.81,282.09L619.06,282.71L616.99,282.42L616.43,284.04L613.46,283.81L612.89,285.52Z" class="land" id="EC-SE" title="Santa Elena"/>
    <path d="M707.02,245.58L706.7,244.51L704.07,243.99L700.37,241.94L700.04,243.49L697.81,243.56L693.15,244.64L690.5,243.3L688.43,241.51L684.86,243.34L683.37,242.82L681.3,240.25L681.19,237.39L683.26,234.01L683.02,232.3L684.25,230.59L687.68,228.61L689.68,228.18L692.12,229.03L697.61,227.42L697.98,224.9L699.59,224.91L700.54,226.47L702.16,226.2L705.31,222.01L706.87,222.26L708.4,224.22L707.88,228.29L714.51,229.36L714.63,230.46L717.79,230.71L717.48,232.25L718.09,234.74L717.27,239.46L715.05,242.35L714.2,243.52L711.13,244.79L709.69,243.75Z" class="land" id="EC-T" title="Tungurahua"/>
    <path d="M754.12,180.15L752.26,183.29L750.84,184.32L748.59,183.35L747.04,178.33L743.81,179.97L741.66,182.37L739.21,180.9L732.76,181.22L732.21,178.24L732.84,177.06L730.18,176.27L729.31,174.71L726.81,173.87L724.7,172.45L724.57,170.43L727.02,168.32L728.11,168.55L729.72,166.77L729.74,163.75L731.47,161.64L732.13,160.25L731.64,158.44L736,152.93L737.44,152.31L739.15,149L743.56,148.66L746.2,150.39L744.42,153.7L744.49,158.63L748.79,157.88L750.34,160.12L753.15,160.07L754.48,161.15L759.71,160.72L762.68,161.36L764.28,164.64L768.21,165.5L769.34,165.24L771.79,166.43L774.69,166.79L779.84,164.75L784.18,165.75L786.31,167.71L788.58,165.89L789.98,166.92L792.42,166.81L794.53,165.97L794.8,160.38L797.57,160.1L797.73,158.88L800.14,157.96L802.42,160.74L806.52,160.76L808.19,163.27L810.13,162.58L812.11,164.06L818.12,172.21L819.16,171.62L820.72,173.85L823.81,175.88L827.54,175.67L830.33,176.83L831.63,178.64L833.88,178.68L836.35,179.76L839.57,181.87L841.52,181.6L844.94,183.02L844.35,184.42L840.98,184.06L838.9,185.01L836.7,184.32L834.2,182.64L832.59,183.35L829.97,182.58L829.98,186.13L833.06,185.35L835.71,188.1L836.54,191.72L839.92,196.92L842.65,198.1L843.84,199.54L846.13,200.75L847.23,203L846.56,205.78L845.6,206.49L844.41,206.77L843.01,204.97L840.07,204.76L839.13,202.71L836.5,201.94L834.56,202.43L832.32,202.05L831.83,199.98L828.31,198.44L825.92,198.66L823.8,196.29L820.31,197.09L819.15,195.82L815.57,195.76L814.54,196.26L815.2,201.32L813.05,202.44L810.25,200.46L808.58,197.21L806.75,197.71L804.78,197.24L800.78,197.62L795.2,200.77L793.69,199.29L791.54,199.31L789.84,197.36L787.61,195.84L784.45,196.71L784.05,195.31L780.17,193.1L780.13,192.81L776.9,188.14L774.61,185.5L773.28,183.16L769.32,180.43L765.34,182.59L762.23,181.61L760.5,182.07L756.15,180.42Z" class="land" id="EC-U" title="Sucumbíos"/>
    <path d="M171.95,211.05L167.7,212.06L165.01,209.8L161.91,208.65L161.25,205.66L162.89,201.28L169.79,199.62L172.62,199.72L174.67,199.05L175.64,201.28L178.31,203.11L177.65,204.71L178.02,207.3L175.5,209.54L174.77,211ZM168.59,237.09L166.46,238.37L163.53,237.44L163.02,236.38L164.2,234.67L164.48,232.7L167.14,232.76L170.09,234.67ZM142.99,220.56L141.36,220.44L140.34,221.82L132.95,224.25L126.89,222.94L124.13,223.26L121.22,221.92L121.13,220.32L118.27,218.19L119.32,215.41L121.76,212.72L124.56,211.21L126.8,208.41L129.72,208.39L131.58,207.66L133.54,208.29L137.87,205.05L136.6,203.05L135.3,202.44L131.26,198.86L131.04,195.07L128.39,193.26L126.15,192.41L123.41,187.5L123.02,184.8L123,180.26L122.39,178.87L120.07,178.15L116.01,179.91L114.86,177.18L117.77,175.87L119.95,172.65L123.63,171.93L124.96,170.22L127.21,171.51L128.2,174.73L132.26,178.46L132.85,181.65L132.47,184.22L133.24,187.37L135.99,189.84L136.22,191.24L140.3,193.82L142.74,196.7L143.73,198.74L143.03,204.93L147.63,207.06L148.8,209.01L150.75,210.73L150.16,212.66L148.98,212.89L147.77,217.03L145.34,220.2ZM167.83,163.39L166.8,164.5L164.27,165.05L161.77,163.42L161.67,161.7L163.64,160.24L165.25,160.25ZM200.9,240.39L197.26,238.78L199.33,237.69L202.37,238.72ZM121.76,189.76L122.79,190.45L124.1,193.12L123.81,197.88L121.84,199.69L118.99,200.16L113.85,199.03L111.95,195.08L111.76,191.11L116.1,190.77L119.96,189.18ZM153.47,151.45L153.58,153.27L150.98,152.77L150.51,150.38L150.93,148.75ZM148.6,191.74L146.91,189.52L148.81,186.45L148.37,185.48L150.51,183.99L152.34,184.21L154.69,185.94L158.75,187.17L159.84,188.14L160.15,190.09L161.27,190.91L160.01,193.74L159.06,194.29L155.73,193.34L152.71,193.63L151.34,192.46ZM203.12,218.83L203.29,217.23L208.98,214.09L209.86,211.53L214.89,208.16L216.99,208.34L219.83,209.43L219.22,210.78L216.27,213.95L214.44,214.64L212.82,218.35L210.57,219.45L207.19,220.27ZM173.56,195.91L174.8,198.3L172.53,198.15Z" class="land" id="EC-W" title="Galápagos"/>
    <path d="M705.31,222.01L702.16,226.2L700.54,226.47L699.59,224.91L697.98,224.9L697.61,227.42L692.12,229.03L689.68,228.18L687.68,228.61L684.25,230.59L681.62,230.45L680.63,231.71L677.03,231.57L674.29,229.23L672.79,229.05L668.38,230.08L666.59,231.56L665.33,231.46L663.13,228.28L664.45,224.93L664.13,220.41L665.41,217.37L667.35,216.83L668.39,213.82L669.89,213.27L672.02,209.4L672.48,206.56L674.52,202.87L673.2,201.75L675.11,200.93L677.57,197.63L677.74,196.21L679.45,195.78L680.89,192.33L685.48,198.87L685.67,200.8L690.2,202.58L689.93,205.34L690.97,207.18L692.95,206.68L695.62,204.25L697.03,205.1L701.18,206L703.76,204.39L705.75,205.64L705.33,207.79L704.62,209.91L705.43,210.95L705.6,213.69L704.77,218.4Z" class="land" id="EC-X" title="Cotopaxi"/>
    <path d="M781.18,294.09L779.49,291.84L775.81,291.38L774.4,292.1L770.24,291.88L769.3,290.06L767.91,290.09L767.74,287.66L766.37,287.24L763.87,282.43L761.72,280.62L760.27,280.54L759.23,279.14L757.23,278.74L755.24,276.08L748.66,273.24L744.78,270.72L741.54,270.29L740.17,268.93L737.7,269.3L735.76,268.19L730.91,263.55L730.74,261.13L728.15,256.38L728.34,254.57L726.47,251.56L722.06,252.52L720.4,248.13L720.35,246.43L717.33,242.49L715.05,242.35L717.27,239.46L718.09,234.74L717.48,232.25L720.71,233.4L722.5,232.24L725.4,231.45L727.54,233.19L728.49,231.22L730.54,232L734.62,229.5L738.42,228.19L740.21,228.93L741.11,227.82L742.69,229.36L744.19,227.82L749.74,225.84L757.38,224.38L757.71,223.35L765.09,222.63L763.7,223.33L764.73,226.08L768.14,226.56L769.96,227.76L772.38,227.95L774.12,229.55L775.38,227.27L783.31,224.8L785.54,225.53L788.78,224.59L789.53,225.39L788.85,231.04L790.57,232.08L790.9,233.41L793.82,234.43L796.21,234.43L797.2,235.73L801.17,236.01L804.16,235.08L809.97,235.14L812.43,236.1L814.81,238.28L816.74,237.93L822.51,239.96L824.2,240.94L825.97,243.05L828.92,244.66L830.01,244.32L831.09,246.87L810.6,272.61L788.23,289.67L784.65,293.1Z" class="land" id="EC-Y" title="Pastaza"/>
    <path d="M659.11,390.23L660.43,388.93L660.58,387.16L663.34,383.89L663.16,381.25L665.25,378.08L668.23,378.81L670.81,378.02L672.89,375.81L673.45,372.78L672.84,370.52L673.5,369.67L673.42,364.98L671.09,363.56L672.45,351.21L671.85,348.7L670.35,347.45L669.47,344.39L671.03,343.88L671.93,341.72L674,339.86L676.19,336.47L675.25,334.35L676.27,333.46L675.53,331.48L675.99,329.75L678.71,327.68L679.62,327.68L680.8,327.23L683.56,329.83L684.05,334.36L685.81,336.47L689.23,337.33L690.75,337.03L692.39,338.19L693.15,336.48L694.76,335.79L696.74,336.55L699.08,335.52L706.67,335.57L705.46,336.95L705.02,341.04L704.06,342.9L704.84,345.2L704.59,347.2L702.46,349.4L701.27,351.85L701.07,353.82L699.56,353.87L697.85,356.8L697.58,358.77L698.78,360.04L696.93,362.78L697.16,365.5L695.86,366.55L695.5,369.73L694.46,370.31L693.87,372.92L695.2,376.26L694.61,379.18L693.4,380.48L693.65,381.97L691.4,384.7L687.03,385.27L685.32,386.06L683.15,388.99L683.11,392.97L682.13,394.98L682.99,396.44L679.5,396.7L677.57,402.29L675.01,400.14L673.16,400.44L670.12,399.56L666.38,400.1L664.8,397.87L662.77,396.44L661.88,394.26L660.58,393.98Z" class="land" id="EC-Z" title="Zamora Chinchipe"/>
  </g>
</svg>