<?xml version="1.0" encoding="UTF-8"?>
<svg xmlns="http://www.w3.org/2000/svg" width="352.2" height="399.63" viewBox="303.9 57.19 352.2 399.63" style="background-color:#000000">
  <!-- Created using SVG Map Generator: dojo.amcharts.com/svg-map-generator -->
  <style>
    .land { fill: #ffffff; stroke: #000000; stroke-width: 0.65; }
  </style>
  <g id="polygons">
    <path d="M555.3,240.85L559.19,235.26L564.54,230.96L564.83,229.39L570.22,226.11L576.73,224.57L578.39,223.5L581.42,219.61L584.28,214.18L586.07,213.53L591.16,213.74L593.96,212.22L596.61,211.51L599.44,212.65L601.94,210.23L608.03,210.63L612.46,211.82L616.23,210.63L619.91,211.06L623.76,209.77L628.38,209.89L631.33,207.77L635.91,208.3L639.16,210.18L639.25,212.15L641.09,215.12L636.27,219.89L635.53,222.46L636.37,225.63L635.58,227.27L631.97,229.5L630.93,231.31L632.02,239.13L630.69,248.8L632.42,254.11L631.91,256.52L634.2,260.86L631.98,261.66L629.08,264.35L626.37,261.99L619.24,262.46L613.63,267.12L609.37,267.33L607.01,269.52L605.77,268.99L599.45,270.29L597.67,268.55L593.51,269.6L590.21,269.12L588.97,271.87L583.86,273.78L581.09,276.23L579.28,275.84L576.59,277.54L577.46,280.6L574.55,281.04L573.38,283.02L573.45,286.6L571.7,289.01L568.9,289.76L565.19,288.66L563.95,290.81L561.57,290.69L555.37,288.36L555.3,264.39Z" class="land" id="CO-VID" title="Vichada"/>
    <path d="M593.66,379.37L593.17,382.43L589.36,382.94L588.95,380.4L587.11,378.8L582.62,380.3L582.21,377.01L578.9,377.23L577.37,380.75L574.5,378.45L575.6,375.94L574.28,373.86L575.81,365.83L574.27,364.7L572.45,366.64L568.89,363.93L562.98,362.02L560.87,363.47L558.99,357.64L557.23,355.26L554,354.89L547.53,350.97L545.38,351.24L544.64,351.62L537.45,347.31L535.08,342.05L533.06,339.83L541.29,331.83L544.52,327.96L544.4,325.44L546.2,321.23L547.82,320.1L552.28,314.71L556.84,312.93L559.9,310.53L565.09,310.66L577.01,307.08L576.61,311.5L579.25,314.03L584.21,315.57L584.31,330.5L589.65,330.36L593.82,331.29L596.08,330.48L598.67,332.21L600.72,335.38L600.28,337.97L601.01,340.51L597.28,341.01L593.26,338.35L588.02,339.74L585.39,341.51L579.57,341.89L579.26,359.26L582.17,362.69L586.71,366.23L589.82,367.73L590.59,370.42L589.68,373.25L591.89,377.4Z" class="land" id="CO-VAU" title="Vaupés"/>
    <path d="M438.18,280.35L433.2,278.25L430.1,278.01L429.49,281.38L425.6,282.77L420.38,285.62L419,284.07L412.91,283.77L409.21,281.06L407.38,278.64L408.42,275.73L413.63,269.79L413.99,267.38L412.52,265.63L410.21,265.43L410.24,263.11L412.55,260.55L410.83,259.72L408.36,263.69L406.77,261.22L406.97,257.77L411.12,256.21L414.25,257.6L416.59,259.61L422.01,261.95L426.92,260.75L429.85,257.8L428.23,256.07L427.82,252.4L431.83,244.21L436.25,240.82L436.76,239.18L440.95,241.7L442.75,244.31L447.22,245.74L447.22,247.22L443.87,247.35L443.6,249.04L446.01,259.02L446.96,260.15L446.83,262.05L444.04,262.93L442.06,266.11L440.26,274.02Z" class="land" id="CO-VAC" title="Valle del Cauca"/>
    <path d="M446.96,260.15L447.17,258.32L449.46,255.13L450.06,251.74L454.33,245.3L454.37,242.92L457.11,234.88L460.76,234.54L463.58,231.71L465.75,231.2L469.57,231.69L469.99,235.79L468.97,242.39L467.72,245.12L468.09,251.2L466.53,255.73L471.08,257.5L473.7,256.08L475.91,258.64L474.43,265.82L472.98,266.94L468.53,273.27L468.61,275.03L466.6,277.45L463.69,278.78L462.44,274.75L456.08,275.72L451.94,277.4L450.3,281.28L446.83,281.88L443.53,284.77L440.01,285.48L438.06,282.1L438.18,280.35L440.26,274.02L442.06,266.11L444.04,262.93L446.83,262.05Z" class="land" id="CO-TOL" title="Tolima"/>
    <path d="M446.74,134.26L448.86,133.62L450.01,129.87L448.24,126.22L449.89,121.02L450.07,118.43L455.77,123.77L456.02,126.58L463.84,132.88L465.22,134.62L465.18,138.31L467.32,141.99L472.25,145.15L474.26,149.19L473.39,149.95L473.38,154.22L474.28,156.77L472.17,161.06L469.32,161.75L468.53,159.25L463.53,156.34L461.1,158.41L459.12,156.64L456.43,156.49L455.76,152.47L454.39,148.9L456.23,147.55L458.7,147.62L458.09,143.16L454,141.06L448.37,136.42Z" class="land" id="CO-SUC" title="Sucre"/>
    <path d="M306.71,61.15L306.55,59.84L307.23,60.15Z" class="land" id="CO-SAP" title="San Andrés, Providencia y Santa Catalina"/>
    <path d="M488.76,184.59L489.18,180.94L491.11,177.17L491.55,173.36L490.09,168.33L490.53,165.42L492.05,164.21L494.54,169.85L493.44,173.87L496.59,174.89L499.17,177.51L502.87,178.64L505.66,176.97L510.65,177.15L513.57,182.91L513.57,190.53L518.25,192.52L520.45,191.69L521.87,194.1L522.55,198.67L520.64,204.13L515.64,203.96L516.6,207.24L515.63,209.37L509.58,216.47L505.3,217.05L505,219.55L501.71,219.63L501.43,213.46L498.69,212.01L496.59,216.37L495.65,220.93L493.63,220.24L487.78,221.28L486.49,219.36L481.84,215.96L480.76,213.65L477.21,213.11L474.29,208.82L477.98,205.53L477.4,202.04L478.47,200.18L480.74,199.43L484.23,196.69L486.85,193.23L489.76,191.35L488.8,188.69Z" class="land" id="CO-SAN" title="Santander"/>
    <path d="M454.33,245.3L452.86,246.15L447.22,245.74L442.75,244.31L440.95,241.7L436.76,239.18L434.72,237.6L432.35,232.01L434.31,229.95L440.38,227.18L443.18,227.26L443.43,230.4L446.55,229.39L448.51,230.8L447.15,232.83L444.83,234.15L441.94,237.35L442.87,239.88L446.81,239.67L451.53,240.69L454.37,242.92Z" class="land" id="CO-RIS" title="Risaralda"/>
    <path d="M447.22,245.74L452.86,246.15L454.33,245.3L450.06,251.74L449.46,255.13L447.17,258.32L446.96,260.15L446.01,259.02L443.6,249.04L443.87,247.35L447.22,247.22Z" class="land" id="CO-QUI" title="Quindio"/>
    <path d="M438.76,331.23L441.84,331.3L444.16,335.07L446.3,335.84L448.89,335.23L451.9,337.75L456.22,337.89L457.82,338.63L459.34,344.17L461.36,343.49L463.58,344.52L464.46,349.32L470.14,350.88L471.86,354.4L471.5,357.04L476.11,358.67L476.85,357.44L484.6,361.29L486.53,363.27L490.93,364.9L478.42,369.08L472.87,364.54L470.5,364.03L469.02,360.43L465.14,360.22L460.49,356.63L457.63,358.44L453.53,356.96L450.24,354.83L445.9,354.48L442.35,351.75L439.37,347.68L434.62,346.32L430.94,346.4L430.77,349.22L427.56,350.45L426,349.52L420.04,349.97L416.1,348.41L415.06,347.16L414.78,340.91L416.96,340.08L415.14,332.71L415.01,328.26L419.32,325.36L420.98,324.92L423.29,324.44L425.44,322.33L427.08,322.99L428.25,325.88L427.33,329.55L428.51,331.46L432.44,332.84L435.42,332.86Z" class="land" id="CO-PUT" title="Putumayo"/>
    <path d="M532.59,190.01L529.65,190.31L526.82,191.84L524.86,194.05L521.87,194.1L520.45,191.69L518.25,192.52L513.57,190.53L513.57,182.91L510.65,177.15L505.66,176.97L502.87,178.64L499.17,177.51L496.59,174.89L500.8,173.87L503.54,168.61L500.99,162.49L502.54,161.03L502.67,157.67L500.77,157.48L498.29,155.27L500.46,150.29L500.21,147.7L500.85,142.09L501.62,140.18L505.27,140.19L510.23,137.09L511.34,140.02L515.61,142.34L518.31,152.74L525.05,159.93L526.25,165.79L523.1,169.76L522.8,179.73L524.45,181.88L527.71,182.29L530.23,183.81L530.45,186.79Z" class="land" id="CO-NSA" title="Norde de Santander"/>
    <path d="M420.98,324.92L419.32,325.36L415.01,328.26L415.14,332.71L416.96,340.08L414.78,340.91L415.06,347.16L411.81,347.71L407.05,345.92L406.08,340.24L404.39,340.24L401.51,338.02L400.59,335.81L397.89,336.67L393.56,334.43L391.2,334.15L387.73,331.49L385.27,330.58L382.63,327.68L377.7,325.51L374.61,321.95L373.46,319.37L369.44,318.18L370.81,314.59L372.95,312.88L375.74,312.99L379.8,314.24L380.77,310.73L378.24,307.3L377.48,304.27L380.32,298.75L385.44,298.55L387.34,296.64L390.68,297.39L393.84,296.57L394.92,294.5L399.49,302.76L403.47,304.39L407.52,304.08L412.86,310.37L410.63,313.15L410.4,316.29L417.14,315.64L421.56,318.38L422.11,319.71Z" class="land" id="CO-NAR" title="Nariño"/>
    <path d="M555.3,240.85L555.3,264.39L555.37,288.36L550.2,288.04L547.38,288.68L539.95,288.57L533.81,289.71L531.81,289.3L525.55,289.88L521.56,291.93L519.78,293.97L512.45,295.4L510.8,298.15L506.44,299.64L501.26,300.62L496.17,299.96L495.55,302.06L495.21,317.17L493.06,316.96L486.89,318.26L481.95,313.78L476.89,312.82L475.1,311.9L472.82,308.66L472.44,304.18L471.27,300.67L470.92,296.08L472.69,293.44L472.09,289.63L468.32,287.19L465.27,286.39L465.88,284.81L470.36,281.61L472.58,278.17L473.09,272.84L475.49,268.29L481.43,262.16L483.56,261.61L490.95,257.53L493.08,257.19L491.98,253.36L492.79,249.93L496.85,251.38L497.85,254.87L501.82,254.77L505.64,255.73L507.5,254.76L509.32,245.23L512.45,250.27L516.94,255.09L524.54,254.24L526.45,252.48L530.53,251.49L532.25,252.77L534.4,252.15L539.39,248.42L549.32,243.65L552.33,242.76Z" class="land" id="CO-MET" title="Meta"/>
    <path d="M489.99,144.79L483.63,143.31L479.99,139.46L473.7,136.9L470.63,134.16L468.24,133.68L468.53,130.93L466.63,124.38L466.72,121.77L468.32,120.09L464.9,116.83L465.67,114.24L467.92,108.92L469.92,107.18L470.24,98.88L466.95,93.76L475.27,96.91L473.24,99.66L476.37,102.88L478.7,101.91L481.7,93.92L481.54,91.15L483.45,88.85L486.21,88.25L491.97,90.42L497.9,90.28L495.83,94.06L495.77,98.73L495.59,101.04L497.33,103L496.67,106.29L497.83,107.99L488.35,112.27L486.14,116.08L485.36,118.89L490.83,126.4L492.11,130.06L486.52,130.11L484.38,132.5L486.32,133.87L489.62,140.23L491.5,142.37Z" class="land" id="CO-MAG" title="Magdalena"/>
    <path d="M512.6,110.39L507.36,110.81L508.29,104.84L504.39,100.62L502.87,100L497.84,100.02L495.77,98.73L495.83,94.06L497.9,90.28L503.81,89.7L507.12,86.63L515.87,80.35L521.74,77.96L524.11,77.72L528.41,74.91L530.6,70.34L530.61,66.92L534.67,66.86L537.02,67.84L538.3,65.39L542.47,62.8L544.87,62.21L550.78,64.61L552.07,65.66L554.54,70.53L553.17,73.26L547.8,77.36L539.23,80.04L534.58,80.86L528.95,90.79L526.42,92.83L522.81,93.54L519.03,99.22Z" class="land" id="CO-LAG" title="La Guajira"/>
    <path d="M436.74,319.47L434.54,319.58L430.13,315.85L429.17,311.99L426.32,310.99L426.01,306.14L427.7,305.42L430.9,306.65L432.81,306.23L431.78,301.92L434.06,299.32L437.96,298.65L440.92,296.9L443.06,298.5L445.26,298.17L440.01,285.48L443.53,284.77L446.83,281.88L450.3,281.28L451.94,277.4L456.08,275.72L462.44,274.75L463.69,278.78L466.6,277.45L468.61,275.03L468.53,273.27L472.98,266.94L474.43,265.82L475.49,268.29L473.09,272.84L472.58,278.17L470.36,281.61L465.88,284.81L465.27,286.39L463.37,288.79L463.99,292.28L460.46,295.64L458.46,295.41L456.97,298.68L451.24,305.81L450.81,307.16L441.95,318.49Z" class="land" id="CO-HUI" title="Huila"/>
    <path d="M577.01,307.08L565.09,310.66L559.9,310.53L556.84,312.93L552.28,314.71L547.82,320.1L546.2,321.23L544.4,325.44L544.52,327.96L541.29,331.83L533.06,339.83L529.35,338.21L522.43,329.82L521.06,329.85L517.09,327.36L514,328.27L513.21,331.08L509.61,333.8L508.21,333.87L501.77,329.13L499.45,324.25L495.36,319.47L495.21,317.17L495.55,302.06L496.17,299.96L501.26,300.62L506.44,299.64L510.8,298.15L512.45,295.4L519.78,293.97L521.56,291.93L525.55,289.88L531.81,289.3L533.81,289.71L539.95,288.57L547.38,288.68L550.2,288.04L555.37,288.36L561.57,290.69L563.95,290.81L565.19,288.66L568.9,289.76L561.69,294.77L565.69,301.48L569.2,303.15L573.39,303.11L578.77,301.69L580.57,303.47Z" class="land" id="CO-GUV" title="Guaviare"/>
    <path d="M634.2,260.86L636.74,268.04L638.8,268.1L640.55,270.2L641.52,273.38L643.6,274.78L642.67,278.04L640.58,279.44L631.29,288.27L636.6,290.23L643.16,297.7L646.27,299.61L645.69,302.35L650.96,315.91L652.49,321.43L653.45,327.02L649.01,328.15L648.72,325.49L649.44,320.02L649.1,317.68L647.01,313.04L645.43,311.33L642.83,306.15L640.89,305.45L637.07,307.55L632.74,313.03L630.37,314.52L627.6,314.55L625.32,310.5L622.79,309.32L621.37,312.24L623.8,315.25L595.29,315.16L591.05,313.85L585.64,315.64L584.21,315.57L579.25,314.03L576.61,311.5L577.01,307.08L580.57,303.47L578.77,301.69L573.39,303.11L569.2,303.15L565.69,301.48L561.69,294.77L568.9,289.76L571.7,289.01L573.45,286.6L573.38,283.02L574.55,281.04L577.46,280.6L576.59,277.54L579.28,275.84L581.09,276.23L583.86,273.78L588.97,271.87L590.21,269.12L593.51,269.6L597.67,268.55L599.45,270.29L605.77,268.99L607.01,269.52L609.37,267.33L613.63,267.12L619.24,262.46L626.37,261.99L629.08,264.35L631.98,261.66Z" class="land" id="CO-GUA" title="Guainia"/>
    <path d="M475.49,268.29L477.71,265.12L478.12,261.71L481.2,259.58L482.45,256.52L482.21,252.53L483,247.05L485.45,242.77L487.24,243.32L487.36,248.37L484.99,251.97L483.56,261.61L481.43,262.16Z" class="land" id="CO-DC" title="Distrito Capital de Bogotá"/>
    <path d="M469.57,231.69L471.62,227.69L472.04,221.24L475.31,220.29L477.24,220.75L479.5,219.4L480.51,222.36L479.64,224.59L481.62,227.13L486.22,229.96L488.01,229.46L489.88,226.38L491.98,225.36L495.45,227.59L497.07,229.54L499.38,236.84L497.76,239.9L498.72,241.33L503.09,243.64L505.61,246.07L508.33,246.43L509.32,244.76L509.32,245.23L507.5,254.76L505.64,255.73L501.82,254.77L497.85,254.87L496.85,251.38L492.79,249.93L491.98,253.36L493.08,257.19L490.95,257.53L483.56,261.61L484.99,251.97L487.36,248.37L487.24,243.32L485.45,242.77L483,247.05L482.21,252.53L482.45,256.52L481.2,259.58L478.12,261.71L477.71,265.12L475.49,268.29L474.43,265.82L475.91,258.64L473.7,256.08L471.08,257.5L466.53,255.73L468.09,251.2L467.72,245.12L468.97,242.39L469.99,235.79Z" class="land" id="CO-CUN" title="Cundinamarca"/>
    <path d="M467.73,163.5L464.12,166.93L458.89,166.98L455.32,171.33L453.36,172.08L452.64,174.52L449.2,174.51L447.92,177.84L444,182.73L432.26,182.86L428.83,177.97L428.44,171.43L430.33,169.23L431.94,162.44L435.2,159.13L435.46,154.31L432.81,152.96L430.33,146.46L434.13,144.35L436.27,138.66L438.21,136.29L442.21,134.24L446.74,134.26L448.37,136.42L454,141.06L458.09,143.16L458.7,147.62L456.23,147.55L454.39,148.9L455.76,152.47L456.43,156.49L459.12,156.64L461.1,158.41L463.53,156.34L468.53,159.25L469.32,161.75Z" class="land" id="CO-COR" title="Córdoba"/>
    <path d="M420.7,164.74L416.95,167.64L416.23,170.6L414.34,171.74L423.8,182.25L426.6,183.9L428.67,187.75L428,191.76L421.31,191.25L421.6,194.48L417.49,195.47L417.71,198.56L419.4,199.79L421.48,204.23L421.8,208.21L423.73,210.93L426.18,211.04L432.79,209.8L434.75,210.86L434.98,213.95L437.57,215.7L437.09,219.31L438.04,221.46L437.9,224.38L440.38,227.18L434.31,229.95L432.35,232.01L434.72,237.6L436.76,239.18L436.25,240.82L431.83,244.21L427.82,252.4L428.23,256.07L429.85,257.8L426.92,260.75L422.01,261.95L416.59,259.61L414.25,257.6L411.12,256.21L407.98,253.94L409.6,249.14L408.66,241.61L408.24,234.87L408.79,232.85L407.65,227.79L404.48,226.32L407.09,223.85L409.28,224.03L411.07,221.85L411.2,219.99L409,215.3L405.49,210.65L407.4,209.37L408.61,205.8L408.97,201.66L407.38,198.76L401.34,194.38L401.01,190.15L396.12,186.08L398.04,180.19L400.07,178.83L399.28,177.04L401.4,175.45L403.42,179.07L409.19,174.93L408.27,173.12L410.02,170.13L411.88,169.37L411.89,165.81L408.45,161.15L408.16,158.47L405.8,155.57L408.81,152.24L410.27,155.68L413.78,158.2L417.66,162.26L418.13,164.13Z" class="land" id="CO-CHO" title="Chocó"/>
    <path d="M492.05,164.21L492.81,158.82L491.01,152.62L490.83,147.77L489.99,144.79L491.5,142.37L489.62,140.23L486.32,133.87L484.38,132.5L486.52,130.11L492.11,130.06L490.83,126.4L485.36,118.89L486.14,116.08L488.35,112.27L497.83,107.99L496.67,106.29L497.33,103L495.59,101.04L495.77,98.73L497.84,100.02L502.87,100L504.39,100.62L508.29,104.84L507.36,110.81L512.6,110.39L511.89,117.77L510.99,120.49L510.35,126.03L508.55,129.8L504.73,134.57L501.62,140.18L500.85,142.09L500.21,147.7L500.46,150.29L498.29,155.27L500.77,157.48L502.67,157.67L502.54,161.03L500.99,162.49L503.54,168.61L500.8,173.87L496.59,174.89L493.44,173.87L494.54,169.85Z" class="land" id="CO-CES" title="Cesar"/>
    <path d="M438.76,331.23L435.42,332.86L432.44,332.84L428.51,331.46L427.33,329.55L428.25,325.88L427.08,322.99L425.44,322.33L423.29,324.44L420.98,324.92L422.11,319.71L421.56,318.38L417.14,315.64L410.4,316.29L410.63,313.15L412.86,310.37L407.52,304.08L403.47,304.39L399.49,302.76L394.92,294.5L398.51,295.47L398.66,291.09L400.22,288.51L404.12,283.99L407.38,278.64L409.21,281.06L412.91,283.77L419,284.07L420.38,285.62L425.6,282.77L429.49,281.38L430.1,278.01L433.2,278.25L438.18,280.35L438.06,282.1L440.01,285.48L445.26,298.17L443.06,298.5L440.92,296.9L437.96,298.65L434.06,299.32L431.78,301.92L432.81,306.23L430.9,306.65L427.7,305.42L426.01,306.14L426.32,310.99L429.17,311.99L430.13,315.85L434.54,319.58L436.74,319.47L436.75,320.47L433.91,325.81L434.33,328.23Z" class="land" id="CO-CAU" title="Cauca"/>
    <path d="M509.32,244.76L508.5,243.03L509.4,239.88L511.92,238.12L511,234.82L511.63,233.02L514.58,229.33L516.47,231.01L518.75,230.69L521.8,228.47L523.72,225.79L526.88,224.75L527.91,222.21L526.78,219.77L524.25,218.67L525.61,213.91L524.43,212.64L524.8,208.4L526.04,206.99L526.17,209.41L528.06,211.93L531.48,213.05L534.49,211.02L539.55,209.95L545.58,210.28L552.1,208.16L557.49,209.46L568.06,209.53L571.56,207.97L575.72,208.05L577.56,208.88L584.28,214.18L581.42,219.61L578.39,223.5L576.73,224.57L570.22,226.11L564.83,229.39L564.54,230.96L559.19,235.26L555.3,240.85L552.33,242.76L549.32,243.65L539.39,248.42L534.4,252.15L532.25,252.77L530.53,251.49L526.45,252.48L524.54,254.24L516.94,255.09L512.45,250.27L509.32,245.23Z" class="land" id="CO-CAS" title="Casanare"/>
    <path d="M533.06,339.83L535.08,342.05L537.45,347.31L544.64,351.62L545.38,351.24L545.22,352.85L540.03,358.03L537.2,361.96L532.93,361.7L529.33,365.26L528.14,369.44L526.33,370.34L523.36,368.76L520.3,371.61L516.65,368.51L512.23,369.38L509.99,367.76L508.67,369.7L506.05,369.92L503.19,368L497.27,367.83L494.13,365L490.93,364.9L486.53,363.27L484.6,361.29L476.85,357.44L476.11,358.67L471.5,357.04L471.86,354.4L470.14,350.88L464.46,349.32L463.58,344.52L461.36,343.49L459.34,344.17L457.82,338.63L456.22,337.89L451.9,337.75L448.89,335.23L446.3,335.84L444.16,335.07L441.84,331.3L438.76,331.23L434.33,328.23L433.91,325.81L436.75,320.47L436.74,319.47L441.95,318.49L450.81,307.16L451.24,305.81L456.97,298.68L458.46,295.41L460.46,295.64L463.99,292.28L463.37,288.79L465.27,286.39L468.32,287.19L472.09,289.63L472.69,293.44L470.92,296.08L471.27,300.67L472.44,304.18L472.82,308.66L475.1,311.9L476.89,312.82L481.95,313.78L486.89,318.26L493.06,316.96L495.21,317.17L495.36,319.47L499.45,324.25L501.77,329.13L508.21,333.87L509.61,333.8L513.21,331.08L514,328.27L517.09,327.36L521.06,329.85L522.43,329.82L529.35,338.21Z" class="land" id="CO-CAQ" title="Caquetá"/>
    <path d="M454.37,242.92L451.53,240.69L446.81,239.67L442.87,239.88L441.94,237.35L444.83,234.15L447.15,232.83L448.51,230.8L446.55,229.39L443.43,230.4L443.18,227.26L444.91,226.34L449.79,225.96L450.15,221.5L457.22,223.08L459.96,224.93L463.23,221.98L471.6,220.44L472.04,221.24L471.62,227.69L469.57,231.69L465.75,231.2L463.58,231.71L460.76,234.54L457.11,234.88Z" class="land" id="CO-CAL" title="Caldas"/>
    <path d="M521.87,194.1L524.86,194.05L526.82,191.84L529.65,190.31L532.59,190.01L535.56,191.24L534.16,193.47L533.55,196.69L530.91,203.06L527.99,204.76L526.04,206.99L524.8,208.4L524.43,212.64L525.61,213.91L524.25,218.67L526.78,219.77L527.91,222.21L526.88,224.75L523.72,225.79L521.8,228.47L518.75,230.69L516.47,231.01L514.58,229.33L511.63,233.02L511,234.82L511.92,238.12L509.4,239.88L508.5,243.03L509.32,244.76L508.33,246.43L505.61,246.07L503.09,243.64L498.72,241.33L497.76,239.9L499.38,236.84L497.07,229.54L495.45,227.59L491.98,225.36L489.88,226.38L488.01,229.46L486.22,229.96L481.62,227.13L479.64,224.59L480.51,222.36L479.5,219.4L477.24,220.75L475.31,220.29L472.04,221.24L471.6,220.44L473.13,215.47L473.03,211.57L474.29,208.82L477.21,213.11L480.76,213.65L481.84,215.96L486.49,219.36L487.78,221.28L493.63,220.24L495.65,220.93L496.59,216.37L498.69,212.01L501.43,213.46L501.71,219.63L505,219.55L505.3,217.05L509.58,216.47L515.63,209.37L516.6,207.24L515.64,203.96L520.64,204.13L522.55,198.67Z" class="land" id="CO-BOY" title="Boyacá"/>
    <path d="M492.05,164.21L490.53,165.42L490.09,168.33L491.55,173.36L491.11,177.17L489.18,180.94L488.76,184.59L481.88,191.1L479.48,191.21L478.13,187.15L478.2,184.2L479.57,181.69L478.78,180.09L475.76,183.59L473.28,180.24L474.85,176.31L474.78,169.67L473.45,167.7L467.73,163.5L469.32,161.75L472.17,161.06L474.28,156.77L473.38,154.22L473.39,149.95L474.26,149.19L472.25,145.15L467.32,141.99L465.18,138.31L465.22,134.62L463.84,132.88L456.02,126.58L455.77,123.77L450.07,118.43L451.21,116.2L450.9,110.6L451.91,107.46L454.13,104.88L457.81,103.74L458.22,108.93L465.67,114.24L464.9,116.83L468.32,120.09L466.72,121.77L466.63,124.38L468.53,130.93L468.24,133.68L470.63,134.16L473.7,136.9L479.99,139.46L483.63,143.31L489.99,144.79L490.83,147.77L491.01,152.62L492.81,158.82Z" class="land" id="CO-BOL" title="Bolívar"/>
    <path d="M457.99,101.51L462.77,98.99L463.15,97.55L466.95,93.76L470.24,98.88L469.92,107.18L467.92,108.92L465.67,114.24L458.22,108.93L457.81,103.74L457.83,102.8Z" class="land" id="CO-ATL" title="Atlántico"/>
    <path d="M584.28,214.18L577.56,208.88L575.72,208.05L571.56,207.97L568.06,209.53L557.49,209.46L552.1,208.16L545.58,210.28L539.55,209.95L534.49,211.02L531.48,213.05L528.06,211.93L526.17,209.41L526.04,206.99L527.99,204.76L530.91,203.06L533.55,196.69L534.16,193.47L535.56,191.24L537.76,191.78L543.17,190.11L549.46,190.95L552.99,192.33L556.65,191.84L559.89,189.7L563.79,189.16L567.7,190.1L573.72,192.92L577.83,192.04L593.96,212.22L591.16,213.74L586.07,213.53Z" class="land" id="CO-ARA" title="Arauca"/>
    <path d="M471.6,220.44L463.23,221.98L459.96,224.93L457.22,223.08L450.15,221.5L449.79,225.96L444.91,226.34L443.18,227.26L440.38,227.18L437.9,224.38L438.04,221.46L437.09,219.31L437.57,215.7L434.98,213.95L434.75,210.86L432.79,209.8L426.18,211.04L423.73,210.93L421.8,208.21L421.48,204.23L419.4,199.79L417.71,198.56L417.49,195.47L421.6,194.48L421.31,191.25L428,191.76L428.67,187.75L426.6,183.9L423.8,182.25L414.34,171.74L416.23,170.6L416.95,167.64L420.7,164.74L421.2,170.13L422.9,169.4L423.19,166.96L422.21,158.17L418.6,155.19L419.62,153.18L424.55,151.9L430.2,147.16L430.33,146.46L432.81,152.96L435.46,154.31L435.2,159.13L431.94,162.44L430.33,169.23L428.44,171.43L428.83,177.97L432.26,182.86L444,182.73L447.92,177.84L449.2,174.51L452.64,174.52L453.36,172.08L455.32,171.33L458.89,166.98L464.12,166.93L467.73,163.5L473.45,167.7L474.78,169.67L474.85,176.31L473.28,180.24L475.76,183.59L478.78,180.09L479.57,181.69L478.2,184.2L478.13,187.15L479.48,191.21L481.88,191.1L488.76,184.59L488.8,188.69L489.76,191.35L486.85,193.23L484.23,196.69L480.74,199.43L478.47,200.18L477.4,202.04L477.98,205.53L474.29,208.82L473.03,211.57L473.13,215.47Z" class="land" id="CO-ANT" title="Antioquia"/>
    <path d="M478.42,369.08L490.93,364.9L494.13,365L497.27,367.83L503.19,368L506.05,369.92L508.67,369.7L509.99,367.76L512.23,369.38L516.65,368.51L520.3,371.61L523.36,368.76L526.33,370.34L528.14,369.44L529.33,365.26L532.93,361.7L537.2,361.96L540.03,358.03L545.22,352.85L545.38,351.24L547.53,350.97L554,354.89L557.23,355.26L558.99,357.64L560.87,363.47L562.98,362.02L568.89,363.93L572.45,366.64L574.27,364.7L575.81,365.83L574.28,373.86L575.6,375.94L574.5,378.45L577.37,380.75L578.9,377.23L582.21,377.01L582.62,380.3L587.11,378.8L588.95,380.4L589.36,382.94L593.17,382.43L593.66,379.37L595.15,386.86L593.42,391.26L589.14,414.86L585.45,435.58L581.94,454.16L577.74,450.88L576.36,447.72L573.06,444.48L568.27,445.89L563.68,444.02L579.04,420.03L576.07,417.42L573.71,414.08L567.42,413.9L565.24,410.73L560.53,407.62L552.83,410.79L548.77,410.47L545.07,407.84L538.33,407.75L536.42,411.19L534.26,411L528.53,414.03L520.05,411.88L513.22,414.2L511.99,411.71L510.39,411.96L507.77,410.04L507.38,408.11L509.1,405.76L508.35,400.56L505.86,397.82L503.52,399.39L498.6,396.46L500.01,393.23L497.77,389.91L497.47,387.74L495.18,385.61L490.8,385.16L490.17,383.84L485.26,380.66L482.04,379.77L480.47,377.33L481.28,375.53L479.69,373.85Z" class="land" id="CO-AMA" title="Amazonas"/>
  </g>
</svg>