<?xml version="1.0" encoding="UTF-8"?>
<svg xmlns="http://www.w3.org/2000/svg" width="180.33" height="262.25" viewBox="389.83 125.87 180.33 262.25" style="background-color:#000000">
  <!-- Created using SVG Map Generator: dojo.amcharts.com/svg-map-generator -->
  <style>
    .land { fill: #ffffff; stroke: #000000; stroke-width: 0.65; }
  </style>
  <g id="polygons">
    <path d="M442.19,223.84L440.01,224.46L439.8,222.43L436.75,217.05L434.49,215.86L432.88,212.71L431.34,211.58L431.39,210.62L429.81,209.28L429.81,208.06L431.87,201.73L429.09,200.02L429.09,197.59L430.46,194.28L429.38,191.08L430.19,189.55L429.88,187.25L431.38,184.33L431.82,181.8L433.34,180.05L434.37,175.21L437.53,173.02L440.16,169.77L441.75,168.78L442.34,172.82L443.59,175.41L444.18,179.83L445.22,181.69L444.94,189.09L442.69,192.72L442.31,195.85L441.43,197.83L442.85,198.97L444.09,202.13L443.03,203.6L442.9,206.51L444.73,210.2L445.66,211L449.04,211.94L450.71,215.15L448.6,217.46L448.08,219.38L446.63,220.6L445.66,219.87L443.48,219.87L442.75,220.49L442.09,223.54Z" class="land" id="PE-AMA" title="Amazonas"/>
    <path d="M449.35,245.07L449.24,246.97L450.19,247.56L450.14,249.37L451.38,251.34L457.18,254.74L456.67,256.41L454.93,256.63L452.93,261.71L455.16,263.66L455.45,266.35L454.37,267.58L454.65,268.52L453.85,270.27L451.18,271.31L450.44,273.19L447.08,276.33L444.8,276.74L444.64,274.34L443.51,272.82L444.64,271.42L443.2,270.34L442.11,271.41L441.65,274.06L440.59,274.83L438.18,270.76L435.62,264.48L435.75,263.41L433.94,260.94L433.56,258.27L432.46,256.91L431.97,254.71L430.33,253.27L430,251.84L430.9,250.91L431.56,248.95L435.64,247.55L437.53,242.61L439.86,240.9L440.97,239.28L443.63,238.76L444.42,240.35L446.17,241.66L448.42,245.28Z" class="land" id="PE-ANC" title="Ancash"/>
    <path d="M509.24,332.15L507.59,331.52L501.81,332.99L500.49,334.04L499.79,332.26L499.72,329.73L499.15,328.64L500.52,326.32L497.68,319.55L498.46,318.91L496.66,316.57L496.23,313.49L496.87,311.39L501.27,314.6L503.51,314.14L503.73,313.33L503.95,313.6L504.69,314.16L509.28,314.02L513.23,316.16L517.91,318.27L519.5,319.57L520.52,321.48L520.63,323.93L520.16,325.66L517.95,328.44L515.29,329.76L515.04,332.15L513.29,332.49L511.16,331.9Z" class="land" id="PE-APU" title="Apurimac"/>
    <path d="M527.46,369.13L524.41,368.28L522.75,366.74L518.53,364.02L516.71,361.95L514.94,360.98L510.82,360.13L509.27,358.85L504.73,356.97L502.36,355.37L496.45,353.33L493.56,350.58L488.43,348.45L487.56,347.11L479.73,343.43L479.04,342.73L479.79,340.6L480.87,339.22L482.8,338.18L484.2,338.04L484.55,338.72L487.74,339.5L488.51,341.91L490.08,343.48L492.69,343.16L493.11,345.46L495.11,341.94L497.2,340.93L497.49,342.74L499.92,342.84L501.6,342.01L503.11,342.05L504.05,340.6L505.27,340.31L507.22,337.19L507,335.16L507.72,333.5L509.24,332.15L511.16,331.9L513.29,332.49L515.04,332.15L516.18,334.35L518.82,334.24L520.84,335.08L521.96,332.28L523.88,334.81L523.68,337.59L526.32,338.48L528.46,337.36L529.93,337.44L531.45,338.44L532.54,337.89L532.51,341.44L533.37,342.45L535.15,342.55L535.14,343.35L535.3,344.8L536.87,346.63L536.35,348.08L537.77,350.03L537.56,350.9L537.34,354.63L535.6,357.24L533.01,355.86L533.23,357.53L531.23,360.08L531.23,361.7L529.29,363.31L530.79,366.29L530.4,367.8Z" class="land" id="PE-ARE" title="Arequipa"/>
    <path d="M484.2,338.04L484.61,335.38L483.69,334.58L482.11,331.47L479.15,331.17L478.36,328.06L478.72,327.19L478.98,323.01L480.88,323.34L482.4,322.91L483.19,320.88L483.32,316.72L481.4,314.77L481.85,313.24L484.12,312.83L485.64,311.02L487.51,309.93L488.16,308.63L489.93,307.77L488.29,300.97L486.8,299.15L487.26,297.89L489.25,297.05L492.12,298L494.93,297.57L494.89,298.21L496.89,302.47L498.77,304.06L500.34,306.09L502.21,310.66L503.72,313.32L503.73,313.33L503.51,314.14L501.27,314.6L496.87,311.39L496.23,313.49L496.66,316.57L498.46,318.91L497.68,319.55L500.52,326.32L499.15,328.64L499.72,329.73L499.79,332.26L500.49,334.04L501.81,332.99L507.59,331.52L509.24,332.15L507.72,333.5L507,335.16L507.22,337.19L505.27,340.31L504.05,340.6L503.11,342.05L501.6,342.01L499.92,342.84L497.49,342.74L497.2,340.93L495.11,341.94L493.11,345.46L492.69,343.16L490.08,343.48L488.51,341.91L487.74,339.5L484.55,338.72Z" class="land" id="PE-AYA" title="Ayacucho"/>
    <path d="M440.01,224.46L441.74,228.16L442.54,230.99L439.98,233.79L437.92,233.26L435.08,234.94L434.36,233.86L434.29,231.92L433.56,231.44L431.39,231.8L429.33,229.85L427.76,230.71L426.19,232.41L424.57,232.73L424,231.17L421.41,229.76L420.73,227.38L420.58,224.64L421.03,222.89L423.07,221.29L422.98,220.44L421.02,220.05L419.17,217.83L418.95,215.98L421.95,213.5L422.42,211.23L420.51,209.48L420.57,209.43L419.59,206.98L419.86,204.77L420.99,203.79L420.92,201.5L419.95,199.14L422.18,196.32L425.21,196.43L426.35,195L426.49,193.24L427.31,192.14L429.38,191.08L430.46,194.28L429.09,197.59L429.09,200.02L431.87,201.73L429.81,208.06L429.81,209.28L431.39,210.62L431.34,211.58L432.88,212.71L434.49,215.86L436.75,217.05L439.8,222.43Z" class="land" id="PE-CAJ" title="Cajamarca"/>
    <path d="M452.52,296.42L450.48,295.31L450.96,294.31L450.35,290.17L451.77,290.28L451.85,292.82L453.21,295.43Z" class="land" id="PE-CAL" title="El Callao"/>
    <path d="M517.81,284.34L517.52,287.23L515.5,289.84L516.69,291.36L517.3,293.98L519.75,295.5L520.98,297.6L522.06,298.11L520.4,300.14L521.84,302.03L522.06,304.2L522.85,304.78L527.68,303.91L529.26,306.16L532.51,307.54L533.52,311.24L535.03,310.8L537.05,308.84L541.15,309.86L543.24,310L543.1,312.03L543.03,313.56L538.06,319.57L536.9,320.08L536.97,323.27L536.54,325.96L535.32,328.35L534.74,330.6L533.44,331.83L535.51,334.29L535.21,336.83L535.74,341.19L535.16,342.19L535.15,342.55L533.37,342.45L532.51,341.44L532.54,337.89L531.45,338.44L529.93,337.44L528.46,337.36L526.32,338.48L523.68,337.59L523.88,334.81L521.96,332.28L520.84,335.08L518.82,334.24L516.18,334.35L515.04,332.15L515.29,329.76L517.95,328.44L520.16,325.66L520.63,323.93L520.52,321.48L519.5,319.57L517.91,318.27L513.23,316.16L509.28,314.02L504.69,314.16L503.95,313.6L503.72,313.32L502.21,310.66L500.34,306.09L498.77,304.06L496.89,302.47L494.89,298.21L494.93,297.67L497.31,297.2L499.11,298.73L502.21,296.33L502.86,295.46L501.19,292.16L500.05,291.69L499.9,289.74L500.46,287.73L501.97,284.81L506.26,284.38L508.4,283.68L510.25,285.52L513.82,286.35L516.09,284.86Z" class="land" id="PE-CUS" title="Cusco"/>
    <path d="M449.35,245.07L450.98,244.22L452.66,245.75L458.6,244.95L460.17,245.68L461.14,244.1L462.8,244.89L464.22,248.06L465.75,248.06L465.13,243.98L467.64,242.29L468.11,243.04L467.58,245.44L468.01,246.95L468.03,246.95L467.77,249.38L469.46,253.79L471.8,257.57L472.52,257.8L474.77,256.44L476.63,256.34L477.93,255.11L477.86,253.66L478.86,251.36L480.74,251.04L481.75,251.77L482.98,247.66L484.23,247.11L486.3,247.11L486.49,249.31L485.46,251.95L485.71,254.45L486.57,256.27L485.71,257.79L485.73,257.99L483.91,260.04L482.68,262.07L481.82,262.14L479.22,264.17L476.92,262.87L474.06,264.82L471.3,267.15L469.93,269.25L468.06,270.41L467.48,272.37L463.08,271.57L461.72,270.55L459.63,270.84L456.38,272.51L453.85,270.27L454.65,268.52L454.37,267.58L455.45,266.35L455.16,263.66L452.93,261.71L454.93,256.63L456.67,256.41L457.18,254.74L451.38,251.34L450.14,249.37L450.19,247.56L449.24,246.97Z" class="land" id="PE-HUC" title="Huánuco"/>
    <path d="M478.98,323.01L476.13,323.05L473.18,321.21L472.69,319.08L472.8,316.54L473.8,315.18L473.82,313.56L472.52,313.19L471.28,314.16L469.75,314.23L468.56,313.34L469.71,311.53L470.05,308.76L472.02,305.87L472.51,302.93L473.6,302.93L478.22,298.58L479.58,296.41L479.73,294.74L482.36,293.94L486.43,294.16L489.17,295.32L489.25,297.05L487.26,297.89L486.8,299.15L488.29,300.97L489.93,307.77L488.16,308.63L487.51,309.93L485.64,311.02L484.12,312.83L481.85,313.24L481.4,314.77L483.32,316.72L483.19,320.88L482.4,322.91L480.88,323.34Z" class="land" id="PE-HUV" title="Huancavelica"/>
    <path d="M470.05,308.76L469.71,311.53L468.56,313.34L469.75,314.23L471.28,314.16L472.52,313.19L473.82,313.56L473.8,315.18L472.8,316.54L472.69,319.08L473.18,321.21L476.13,323.05L478.98,323.01L478.72,327.19L478.36,328.06L479.15,331.17L482.11,331.47L483.69,334.58L484.61,335.38L484.2,338.04L482.8,338.18L480.87,339.22L479.79,340.6L479.04,342.73L477.26,339.96L474.99,338.04L472.89,335.21L468.87,332.9L467.58,331.83L466.87,329.27L465.48,327.91L464.73,325.83L462.46,324.36L462.54,321.19L463.89,317.44L464.17,314.88L463.11,312.18L464.19,310.44L467.72,308.12Z" class="land" id="PE-ICA" title="Ica"/>
    <path d="M487.2,278.13L487.55,279.85L488.52,280.2L493.84,279.82L494.36,281.79L495.72,282.08L496.66,280.78L496.7,278.13L497.42,276.8L499.18,277.34L500.23,278.48L500.41,280.67L501.78,281.4L501.97,284.81L500.46,287.73L499.9,289.74L500.05,291.69L501.19,292.16L502.86,295.46L502.21,296.33L499.11,298.73L497.31,297.2L494.93,297.67L494.93,297.57L492.12,298L489.25,297.05L489.17,295.32L486.43,294.16L482.36,293.94L479.73,294.74L479.58,296.41L478.22,298.58L473.6,302.93L472.51,302.93L472.08,300.07L472.36,298.64L471.48,297L471.3,294.27L468.81,294.41L465.88,293.41L463.75,290.66L463.22,288.18L461.81,287.96L460.02,284.45L459.85,281.05L461.5,281.14L462.65,281.94L464.31,281.07L466.33,280.78L466.33,277.59L467.7,278.17L469.79,277.73L473.46,276.21L474.47,277.35L475.77,277.37L478.43,275.77L481.17,275.85L485.5,278.16Z" class="land" id="PE-JUN" title="Junin"/>
    <path d="M450.98,244.22L449.35,245.07L448.42,245.28L446.17,241.66L444.42,240.35L443.63,238.76L440.97,239.28L439.86,240.9L437.53,242.61L435.64,247.55L431.56,248.95L430.9,250.91L430,251.84L429.14,249.91L428.51,246.54L426.4,244.18L425.45,241.44L422.94,238.75L420.99,237.32L419.47,235L419.09,233.62L417.29,230.92L416.44,227.84L415.61,227.02L418.77,223.92L420.58,224.64L420.73,227.38L421.41,229.76L424,231.17L424.57,232.73L426.19,232.41L427.76,230.71L429.33,229.85L431.39,231.8L433.56,231.44L434.29,231.92L434.36,233.86L435.08,234.94L437.92,233.26L439.98,233.79L442.54,230.99L441.74,228.16L440.01,224.46L442.19,223.84L442.26,224.04L444.69,227.31L444.25,228.42L445.48,230.93L445.99,235.67L447.65,236.32L448.03,238.74L450.74,238.01L453.04,238.86L454.25,240.69L454.4,242.9L451.59,243.61Z" class="land" id="PE-LAL" title="La Libertad"/>
    <path d="M419.46,210.32L420.51,209.48L422.42,211.23L421.95,213.5L418.95,215.98L419.17,217.83L421.02,220.05L422.98,220.44L423.07,221.29L421.03,222.89L420.58,224.64L418.77,223.92L415.61,227.02L415.53,226.12L412.34,222.71L411.88,221.29L410,219.58L404.34,216.56L403.23,215.62L405.4,212.01L407.32,209.89L409.05,209.29L411.83,206.39L412.3,204.36L414.44,206L415.37,208.04Z" class="land" id="PE-LAM" title="Lambayeque"/>
    <path d="M472.51,302.93L472.02,305.87L470.05,308.76L467.72,308.12L464.19,310.44L463.11,312.18L462.55,312.13L459.89,309.06L459.51,307.05L457.9,304.87L455.83,300.56L456.24,298.83L457.54,296.8L457.61,294.99L456.02,292.74L455.02,292.31L455.59,290.35L452.49,287.23L451.56,287.01L449.62,288.79L447.75,286.59L443.99,284.44L444.49,282.79L443.55,279.34L442.12,276.76L440.59,274.83L441.65,274.06L442.11,271.41L443.2,270.34L444.64,271.42L443.51,272.82L444.64,274.34L444.8,276.74L447.08,276.33L450.44,273.19L451.18,271.31L453.85,270.27L456.38,272.51L458.72,277.7L458.94,280.27L459.85,281.05L460.02,284.45L461.81,287.96L463.22,288.18L463.75,290.66L465.88,293.41L468.81,294.41L471.3,294.27L471.48,297L472.36,298.64L472.08,300.07Z" class="land" id="PE-LIM" title="Lima"/>
    <path d="M455.83,300.56L455.66,299.81L452.52,296.42L453.21,295.43L451.85,292.82L451.77,290.28L450.35,290.17L449.62,288.79L451.56,287.01L452.49,287.23L455.59,290.35L455.02,292.31L456.02,292.74L457.61,294.99L457.54,296.8L456.24,298.83Z" class="land" id="PE-LMA" title="Lima Province"/>
    <path d="M494.38,231.84L492.05,229.5L487.94,228.78L486.24,231.13L486.61,236.31L485.28,238.28L482.68,238.86L478.94,238.21L477.22,240.05L475.86,239.84L474.69,241.11L474.61,244.05L473.4,244.61L471.67,243.71L468.52,246.73L468.01,246.95L467.58,245.44L468.11,243.04L467.55,242.15L467.79,240.33L469.17,238.51L467.74,237.53L466.65,235.57L465.93,232L464.82,230.88L464.47,227.76L466.83,225.96L466.46,221.82L467.13,221.15L469.14,221.4L470.01,222.13L473.27,221.61L473.64,220.11L473.84,214.86L474.57,212.93L472.63,211.35L470.04,212.41L466.76,212.14L464.65,213.54L463.68,213.05L461.38,210.62L460.14,210.49L458.13,211.39L456.77,210.62L455.36,207.47L453.27,206.28L449.32,205.83L447.78,204.1L445.44,203.24L444.09,202.13L442.85,198.97L441.43,197.83L442.31,195.85L442.69,192.72L444.94,189.09L445.22,181.69L444.18,179.83L443.59,175.41L442.34,172.82L441.75,168.78L457.57,163.32L465.65,157.24L472.81,148.74L474.9,140.6L475.89,141.39L477.45,141.25L476.4,137.96L477.01,136.57L476.82,135.1L474.74,133.68L473.81,131.1L471.84,130.27L471.96,129.37L474.58,130.16L478.55,128.52L481.29,130.64L483.57,130.76L484.44,132.88L485.84,133.18L488.78,135.38L489.85,138.66L490.79,139.65L490.31,140.71L491.23,142.15L493.13,142.67L496.02,144.54L496.39,145.32L498.97,145.58L500.32,146.83L500.49,148.11L501.81,150.07L500.98,151.97L503.88,153.7L505.25,152.77L506.72,154.39L507.16,157.44L506.15,158.83L506.38,159.97L509.59,162.41L513.61,161.05L518.6,162.31L521.98,160.53L523.25,160.64L524.37,158.62L528.34,158.67L530.52,160.22L532.91,160.4L537.44,158.54L539.52,159.92L540.8,159.92L544.25,162.37L545.2,162.34L546.39,163.83L548.84,163.34L548.33,165.85L539.29,179.97L541.99,181.07L544.81,180.24L546.76,182.14L547.57,184.01L549.86,185.9L549.03,187.67L546.54,187.6L545.11,186.46L544.85,184.94L543.35,184.83L541.22,185.71L538.77,185.05L537.81,185.59L536.1,188.28L534.77,189.01L533.23,189.01L531.84,189.79L527.82,190.88L523.8,190.72L519.63,194.15L517.62,194.93L515.45,196.33L513.29,198.66L511.28,199.44L509.74,201.93L508.81,207.22L506.95,208.77L505.25,211.57L507.26,217.17L505.25,219.2L498.3,222.62L497.68,225.89L497.8,229.13L495.15,229.48Z" class="land" id="PE-LOR" title="Loreto"/>
    <path d="M564.55,307.25L562.34,308.77L556.5,311.09L555.71,311.96L552.28,312.31L549.51,311.82L546.12,310.15L543.24,310.09L543.24,310L541.15,309.86L537.05,308.84L535.03,310.8L533.52,311.24L532.51,307.54L529.26,306.16L527.68,303.91L522.85,304.78L522.06,304.2L521.84,302.03L520.4,300.14L522.06,298.11L520.98,297.6L519.75,295.5L517.3,293.98L516.69,291.36L515.5,289.84L517.52,287.23L517.81,284.34L518.96,283.15L519.49,281.16L519.1,280.04L523.05,280.13L529.73,279.91L531.18,278.52L532.09,274.42L533.47,272.9L534.98,272.31L537.68,269.58L538.46,269.21L540.61,265.78L540.57,280.39L542.02,279.36L543.04,280.37L549.08,279.63L550.28,279.06L552.87,279.72L555.2,279.58L564.06,294.29L567.52,301.37L565.57,304.64L564.69,304.98Z" class="land" id="PE-MDD" title="Madre de Dios"/>
    <path d="M547.38,364.76L547.42,364.83L546.27,365.07L545.69,363.04L543.72,362.8L542.82,363.63L542.74,366.33L541.1,368.31L539.35,369.4L537.74,372.57L536.76,375.29L533.2,377.1L531.34,375.69L530.59,374.4L530,371.18L527.46,369.13L530.4,367.8L530.79,366.29L529.29,363.31L531.23,361.7L531.23,360.08L533.23,357.53L533.01,355.86L535.6,357.24L537.34,354.63L537.56,350.9L540.22,350.93L543.48,351.77L544.36,353.89L545.02,357.71L547.44,360.2L547.9,362.04Z" class="land" id="PE-MOQ" title="Moquegua"/>
    <path d="M459.85,281.05L458.94,280.27L458.72,277.7L456.38,272.51L459.63,270.84L461.72,270.55L463.08,271.57L467.48,272.37L468.06,270.41L469.93,269.25L471.3,267.15L474.06,264.82L476.92,262.87L479.22,264.17L481.82,262.14L482.68,262.07L483.91,260.04L485.73,257.99L485.78,258.59L487.08,259.89L487.72,262.91L488.59,264.1L488.95,266.42L490.46,268.09L491.4,268.23L490.83,271.06L492.19,272.87L491.89,274.67L490.24,275.38L487.2,278.13L485.5,278.16L481.17,275.85L478.43,275.77L475.77,277.37L474.47,277.35L473.46,276.21L469.79,277.73L467.7,278.17L466.33,277.59L466.33,280.78L464.31,281.07L462.65,281.94L461.5,281.14Z" class="land" id="PE-PAS" title="Pasco"/>
    <path d="M396.63,184.43L397.83,186.08L401.64,185.96L403.02,185.2L403.82,184.49L405.12,186.21L405.22,189.11L406.23,189.61L408.75,187.76L414.11,189.6L416.92,189.71L417.95,190.2L419.25,194.02L421.44,196.33L422.18,196.32L419.95,199.14L420.92,201.5L420.99,203.79L419.86,204.77L419.59,206.98L420.57,209.43L419.46,210.32L415.37,208.04L414.44,206L412.3,204.36L411.83,206.39L409.05,209.29L407.32,209.89L405.4,212.01L403.23,215.62L401.46,216.17L396.1,212.33L395.49,211.03L396.24,209.52L397.8,209.36L399.15,206.98L399.04,205.57L397.48,202.7L394.2,200.59L396.03,197.19L395.49,196.21L392.48,193.35L393.34,188.05L394.29,186.48Z" class="land" id="PE-PIU" title="Piura"/>
    <path d="M562,353.35L563.27,355.25L562.46,358.92L562.86,360.49L560.38,362.23L558.61,364.37L557.43,366.47L555.71,367.3L553.99,369.56L552.94,369.74L548.79,367.18L547.38,364.76L547.9,362.04L547.44,360.2L545.02,357.71L544.36,353.89L543.48,351.77L540.22,350.93L537.56,350.9L537.77,350.03L536.35,348.08L536.87,346.63L535.3,344.8L535.14,343.35L535.16,342.19L535.74,341.19L535.21,336.83L535.51,334.29L533.44,331.83L534.74,330.6L535.32,328.35L536.54,325.96L536.97,323.27L536.9,320.08L538.06,319.57L543.03,313.56L543.1,312.03L543.24,310.09L546.12,310.15L549.51,311.82L552.28,312.31L555.71,311.96L556.5,311.09L562.34,308.77L564.55,307.25L564.73,310.77L563.58,313.88L563.31,316.42L562.16,318.42L563.37,322.09L564.14,322.82L564.29,324.91L562.63,325.79L562.36,327.46L558.69,332.04L558.07,333.37L557.78,336.28L561.14,340.03L559.33,341.45L558.36,343.23L555.9,342.42L555.41,341.43L553.65,341.24L552.27,339.16L549.13,338.27L546.97,338.37L546.97,339.56L549.92,339.56L550.7,341.24L549.43,342.22L550.31,344.89L547.76,346.57L548.54,349.63L549.92,349.53L552.57,350.92L555.81,351.41L554.92,353.88L555.71,354.67L557.67,354.08L558.36,355.16L560.71,354.87Z" class="land" id="PE-PUN" title="Puno"/>
    <path d="M467.55,242.15L467.64,242.29L465.13,243.98L465.75,248.06L464.22,248.06L462.8,244.89L461.14,244.1L460.17,245.68L458.6,244.95L452.66,245.75L450.98,244.22L451.59,243.61L454.4,242.9L454.25,240.69L453.04,238.86L450.74,238.01L448.03,238.74L447.65,236.32L445.99,235.67L445.48,230.93L444.25,228.42L444.69,227.31L442.26,224.04L442.09,223.54L442.75,220.49L443.48,219.87L445.66,219.87L446.63,220.6L448.08,219.38L448.6,217.46L450.71,215.15L449.04,211.94L445.66,211L444.73,210.2L442.9,206.51L443.03,203.6L444.09,202.13L445.44,203.24L447.78,204.1L449.32,205.83L453.27,206.28L455.36,207.47L456.77,210.62L458.13,211.39L460.14,210.49L461.38,210.62L463.68,213.05L464.65,213.54L466.76,212.14L470.04,212.41L472.63,211.35L474.57,212.93L473.84,214.86L473.64,220.11L473.27,221.61L470.01,222.13L469.14,221.4L467.13,221.15L466.46,221.82L466.83,225.96L464.47,227.76L464.82,230.88L465.93,232L466.65,235.57L467.74,237.53L469.17,238.51L467.79,240.33Z" class="land" id="PE-SAM" title="San Martin"/>
    <path d="M547.42,364.83L548.79,367.18L552.94,369.74L553.99,369.56L556.13,370.89L556.15,372.71L553.33,375.26L552.03,375.91L552.9,380.69L551.6,383.3L550.23,384.61L544.32,385.48L542.06,383.47L540.32,382.66L535.27,378.15L533.2,377.1L536.76,375.29L537.74,372.57L539.35,369.4L541.1,368.31L542.74,366.33L542.82,363.63L543.72,362.8L545.69,363.04L546.27,365.07Z" class="land" id="PE-TAC" title="Tacna"/>
    <path d="M403.02,185.2L401.64,185.96L397.83,186.08L396.63,184.43L398,182.46L399.46,181.51L400.36,179.51L403.32,177.77L404.28,176.25L406.42,175.74L407.6,176.11L408.41,180.15L407.88,181.94L406.7,182.92L405.2,182.8Z" class="land" id="PE-TUM" title="Tumbes"/>
    <path d="M494.38,231.84L496.66,234.66L498.41,235.65L497.55,237.93L498.99,238.62L499.76,240.07L500.63,243.29L502.39,244.65L503.21,246.77L505.43,248.13L507.16,250.94L508.48,252.14L508.43,254.3L505.2,257.89L511.68,258.06L516.19,259.05L517.58,259.74L518.25,261.47L518.15,262.9L519.65,264.68L519.17,266.3L530.43,266.32L533.01,265.31L533.59,264.36L535.3,263.76L537.12,261.65L541.16,258.45L541.07,263.21L540.61,265.78L538.46,269.21L537.68,269.58L534.98,272.31L533.47,272.9L532.09,274.42L531.18,278.52L529.73,279.91L523.05,280.13L519.1,280.04L519.49,281.16L518.96,283.15L517.81,284.34L516.09,284.86L513.82,286.35L510.25,285.52L508.4,283.68L506.26,284.38L501.97,284.81L501.78,281.4L500.41,280.67L500.23,278.48L499.18,277.34L497.42,276.8L496.7,278.13L496.66,280.78L495.72,282.08L494.36,281.79L493.84,279.82L488.52,280.2L487.55,279.85L487.2,278.13L490.24,275.38L491.89,274.67L492.19,272.87L490.83,271.06L491.4,268.23L490.46,268.09L488.95,266.42L488.59,264.1L487.72,262.91L487.08,259.89L485.78,258.59L485.71,257.79L486.57,256.27L485.71,254.45L485.46,251.95L486.49,249.31L486.3,247.11L484.23,247.11L482.98,247.66L481.75,251.77L480.74,251.04L478.86,251.36L477.86,253.66L477.93,255.11L476.63,256.34L474.77,256.44L472.52,257.8L471.8,257.57L469.46,253.79L467.77,249.38L468.03,246.95L468.52,246.73L471.67,243.71L473.4,244.61L474.61,244.05L474.69,241.11L475.86,239.84L477.22,240.05L478.94,238.21L482.68,238.86L485.28,238.28L486.61,236.31L486.24,231.13L487.94,228.78L492.05,229.5Z" class="land" id="PE-UCA" title="Ucayali"/>
    <path d="M558.36,343.23L557.23,345.65L559.46,351.65L562,353.35L560.71,354.87L558.36,355.16L557.67,354.08L555.71,354.67L554.92,353.88L555.81,351.41L552.57,350.92L549.92,349.53L548.54,349.63L547.76,346.57L550.31,344.89L549.43,342.22L550.7,341.24L549.92,339.56L546.97,339.56L546.97,338.37L549.13,338.27L552.27,339.16L553.65,341.24L555.41,341.43L555.9,342.42Z" class="land" id="PE-LKT" title="Lake Titicaca"/>
  </g>
</svg>