<?xml version="1.0" encoding="UTF-8"?>
<svg xmlns="http://www.w3.org/2000/svg" width="478.9" height="519.3" viewBox="240.55 -2.65 478.9 519.3" style="background-color:#000000">
  <!-- Created using SVG Map Generator: dojo.amcharts.com/svg-map-generator -->
  <style>
    .land { fill: #ffffff; stroke: #000000; stroke-width: 0.65; }
  </style>
  <g id="polygons">
    <path d="M493.87,431.71L499.95,423.68L503.26,417.12L508.52,412.05L509.12,408.06L514,399.87L518.01,396.58L519.04,391.52L522.4,383.51L522.93,378.1L519.72,371.94L520.31,367.7L524.97,365.68L528.44,362.77L531.05,356.32L536.31,353.58L539.12,349.58L537.82,343.38L543.89,340.03L548.99,339.18L554.11,341.59L557.24,341.6L563.49,338.69L568.75,340.18L574.25,344.89L584.15,346.81L592.95,350.43L598.33,349.04L601.41,344L606.25,340.76L612.29,340.43L616.94,347.29L626.6,352.27L619.25,354.61L617.34,361.19L613.99,364.22L606.86,368.41L603.73,374.38L604.57,380.47L600.84,388.06L599.77,394.9L594.92,401.49L591.21,404.29L586.73,413.68L580.31,415.06L576.47,417.13L571.94,423.95L568.44,431.08L568.31,436.97L565.41,441.03L562.72,451.64L557.72,454.75L550.34,457.03L541.5,464.43L533.98,465.08L523.91,473.65L518.82,475.67L506.82,476.34L504.87,468.95L500.52,463.17L501.16,451.91L497.46,444.97Z" class="land" id="UY-LA" title="Lavalleja"/>
    <path d="M539.02,315.37L540.79,329.62L539.33,334.55L535.7,339.34L537.82,343.38L539.12,349.58L536.31,353.58L531.05,356.32L528.44,362.77L524.97,365.68L520.31,367.7L519.72,371.94L522.93,378.1L522.4,383.51L519.04,391.52L518.01,396.58L514,399.87L509.12,408.06L508.52,412.05L503.26,417.12L499.95,423.68L493.87,431.71L482.75,433.29L474.25,437.84L468.7,438.52L464.01,436.19L460.14,435.66L452.19,440.9L447.96,448.59L440.12,449.98L436.18,447.78L428.84,447.8L425.89,450.48L424.34,455.96L418.34,448.61L422.28,442.39L422.67,435.28L420.51,428.5L422.76,422.43L422.8,415.36L420.1,402.45L418.89,398.96L422.02,394L422.52,384.04L419.07,376.89L414.02,358.3L412.64,355.49L419.67,355.66L423.07,352.71L422.73,346.25L428.43,348.48L435.1,348.41L437.98,353.4L444.72,353.58L451.51,355.18L455.55,352.69L458.08,348.91L465.74,347.71L470.21,349.09L475.13,348.12L480.6,345.62L485.09,341.84L493.57,341.18L510.55,331.53L513.05,328.47L521.88,323.66L525.94,324.91L533,318.89Z" class="land" id="UY-FD" title="Florida"/>
    <path d="M359.84,315.89L364.02,320.06L368.63,322.38L373.43,321.7L381.5,323.27L384.71,328.63L388.13,331.76L394.55,332.66L399.48,334.59L409.73,347.49L410.36,352.23L412.64,355.49L414.02,358.3L419.07,376.89L422.52,384.04L422.02,394L418.89,398.96L409.16,393.99L406.43,393.32L398.97,398.19L392.87,399.73L387.07,405.89L380.87,408.17L368.02,405.68L364.23,405.45L361.95,402.11L359.57,392.56L354.81,383.63L355.93,371.09L355.63,366.3L350.98,364.11L348.17,360.38L347.48,355.95L344.62,348.49L340.5,344.46L341.21,340.52L358.04,320.21Z" class="land" id="UY-FS" title="Flores"/>
    <path d="M519.7,249.35L521.51,252.78L521.88,257.67L519.09,267.7L521.51,274.96L518.64,278.17L520.84,284.97L520.38,291.27L524.64,297.1L533.1,302.56L534.71,304.71L548,305.48L545.46,308.95L540.49,312.18L539.02,315.37L533,318.89L525.94,324.91L521.88,323.66L513.05,328.47L510.55,331.53L493.57,341.18L485.09,341.84L480.6,345.62L475.13,348.12L470.21,349.09L465.74,347.71L458.08,348.91L455.55,352.69L451.51,355.18L444.72,353.58L437.98,353.4L435.1,348.41L428.43,348.48L422.73,346.25L423.07,352.71L419.67,355.66L412.64,355.49L410.36,352.23L409.73,347.49L399.48,334.59L394.55,332.66L388.13,331.76L384.71,328.63L381.5,323.27L373.43,321.7L368.63,322.38L364.02,320.06L359.84,315.89L359.56,310.81L355.85,310.36L360.6,304.93L363.75,303.51L369.02,305.4L373.88,305.53L372.45,302.15L377.15,301.41L378.69,298.48L381.98,301.22L383.22,296.27L387.57,295.79L388.5,291.09L390.49,289.12L394.68,288.32L397.44,286.24L400.75,286.24L403.4,287.8L408.2,285.42L418.18,284.92L423.86,288.12L427.87,283.22L440.02,284.09L440.57,280.98L444.95,273.84L452.56,271.86L458.78,271.09L466.49,262.07L470.52,260.82L475.09,264.1L478.43,261.37L480.19,257.39L479.41,253.98L482.36,252.33L485.73,255.02L488.81,254.19L492.51,249.5L498.73,251.11L503.78,248.94L504.79,244.17L509.33,243.51L510.65,246.94L516.95,249.85Z" class="land" id="UY-DU" title="Durazno"/>
    <path d="M410.29,249.2L415.04,234.88L416.53,232.58L422.46,227.73L428.12,221.78L431.33,208.27L433.83,201.92L434.73,190.47L438.24,187.71L435.13,182.29L435.14,176.87L431.43,171.42L431.59,168.53L430.09,158.23L428.56,155.58L431.44,147.2L436.66,139.89L443.38,134.27L445.97,124.85L448.09,121.56L451.33,119.79L454.79,120.4L462.06,126.2L472.73,131.32L476.47,136.89L476.48,140.75L478.97,146.76L483.22,150.33L487.85,152.03L490.11,154.97L491.4,159.93L490.14,165.99L491.55,173.1L495.34,177.15L499.21,176.31L504.12,177.18L518,176.29L526.67,178.47L539.97,178.9L545.14,181.03L551.97,181.63L558.92,184.35L565.5,191.41L567.05,194.15L575.46,203.76L579.6,210.32L576.36,211.02L570.6,208.13L565.38,218.97L566.64,222.44L563.15,230.04L558.04,234.1L555.88,237.31L552.72,238.27L549.55,242.72L545.33,246.69L539.48,248.41L530.66,245.47L527.59,245.66L519.7,249.35L516.95,249.85L510.65,246.94L509.33,243.51L504.79,244.17L503.78,248.94L498.73,251.11L492.51,249.5L488.81,254.19L485.73,255.02L482.36,252.33L479.41,253.98L480.19,257.39L478.43,261.37L475.09,264.1L470.52,260.82L466.49,262.07L458.78,271.09L452.56,271.86L444.95,273.84L440.57,280.98L440.02,284.09L427.87,283.22L423.86,288.12L418.18,284.92L408.2,285.42L403.4,287.8L400.75,286.24L403.96,276.37L404.06,271.01L406.71,267.33L409.88,254.01Z" class="land" id="UY-TA" title="Tacuarembó"/>
    <path d="M247.46,347.92L245.58,346.34L245.58,342.31L250.15,337.42L251.22,332.85L249.64,319.13L251.02,315.74L254.68,314.37L266.75,314.54L273.35,309.79L275.41,306.08L277.94,293.48L277.18,290.31L271.54,283.7L270.01,277.79L270.01,268L268.28,257.91L265.23,249.14L272.39,248.38L275.11,249.65L280.58,254.59L282.65,258.65L290.34,260.82L301.4,261.34L303.82,256.14L319.27,253.81L322.53,248.84L329.33,244.21L335.45,244.79L342.04,243.01L345.68,244.23L348.81,243.42L354.62,239.19L362.04,238.46L367.6,235.61L377.58,240.02L395.56,240.67L400.42,242.18L410.29,249.2L409.88,254.01L406.71,267.33L404.06,271.01L403.96,276.37L400.75,286.24L397.44,286.24L394.68,288.32L390.49,289.12L388.5,291.09L387.57,295.79L383.22,296.27L381.98,301.22L378.69,298.48L377.15,301.41L372.45,302.15L373.88,305.53L369.02,305.4L363.75,303.51L360.6,304.93L355.85,310.36L359.56,310.81L359.84,315.89L352.84,319.34L349.79,315.1L346.09,318.41L345.09,314.24L342.47,312.12L336.94,310.81L332.06,312.49L330.32,307.46L326.42,305.4L322.55,305.52L316.58,308.33L313.32,311.84L304.97,308.58L302.06,309.27L297.11,307.31L293.94,307.53L290.71,310.81L285.85,312.93L285.36,316.72L279.29,316.21L276.89,318.12L277.85,322.72L279.73,324.59L278.77,329L274.82,326.04L270.62,329.68L269.16,335.96L262.38,335.53L255.95,342.87Z" class="land" id="UY-RN" title="Río Negro"/>
    <path d="M245.32,396.09L243.63,386.39L243.2,377.15L244.41,368.01L243.75,358.93L248,352.8L247.46,347.92L255.95,342.87L262.38,335.53L269.16,335.96L270.62,329.68L274.82,326.04L278.77,329L279.73,324.59L277.85,322.72L276.89,318.12L279.29,316.21L285.36,316.72L285.85,312.93L290.71,310.81L293.94,307.53L297.11,307.31L302.06,309.27L304.97,308.58L313.32,311.84L316.58,308.33L322.55,305.52L326.42,305.4L330.32,307.46L332.06,312.49L336.94,310.81L342.47,312.12L345.09,314.24L346.09,318.41L349.79,315.1L352.84,319.34L359.84,315.89L358.04,320.21L341.21,340.52L340.5,344.46L344.62,348.49L347.48,355.95L348.17,360.38L350.98,364.11L355.63,366.3L355.93,371.09L354.81,383.63L359.57,392.56L361.95,402.11L364.23,405.45L354.96,403.99L345.09,403.67L341.41,400.65L336.19,398.28L320.86,402.46L312.99,402.78L300.86,398.58L295.57,394.62L282.77,394.64L278.73,388.43L268.71,385.83L265.76,386.08L257.46,391.85L249.45,395.21Z" class="land" id="UY-SO" title="Soriano"/>
    <path d="M356.25,457.59L353.07,456.94L340.3,457.09L338.67,455.68L332.29,457.21L328.94,455.58L323.32,458.18L320.52,455.26L315.65,455.69L303.22,460.41L298.03,460.49L291.12,454.18L291.36,449.85L280.75,436.59L277.83,435.18L275.41,430.02L271.64,427.57L264.82,426.52L261.65,418.94L254.12,407.97L249.16,404.53L246.46,401.14L245.32,396.09L249.45,395.21L257.46,391.85L265.76,386.08L268.71,385.83L278.73,388.43L282.77,394.64L295.57,394.62L300.86,398.58L312.99,402.78L320.86,402.46L336.19,398.28L341.41,400.65L345.09,403.67L354.96,403.99L364.23,405.45L366.98,412.85L369.57,414.41L375.75,423.1L376.3,425.25L371.44,429.81L363.04,433.81L362,438.16L364.26,441.21L361.71,452.84Z" class="land" id="UY-CO" title="Colonia"/>
    <path d="M427.61,494.89L420.16,491.08L409.03,491.15L402.56,487.22L396.6,485.53L389.33,484.61L382.34,481.55L379.65,477.8L369.73,468.8L360.47,459.19L356.25,457.59L361.71,452.84L364.26,441.21L362,438.16L363.04,433.81L371.44,429.81L376.3,425.25L375.75,423.1L369.57,414.41L366.98,412.85L364.23,405.45L368.02,405.68L380.87,408.17L387.07,405.89L392.87,399.73L398.97,398.19L406.43,393.32L409.16,393.99L418.89,398.96L420.1,402.45L422.8,415.36L422.76,422.43L420.51,428.5L422.67,435.28L422.28,442.39L418.34,448.61L424.34,455.96L423.78,461.83L424.64,466.1L418.07,473.61L419.58,481.27L425.65,485.78L427.64,488.46Z" class="land" id="UY-SJ" title="San José"/>
    <path d="M456.6,504.88L450.66,506.25L446.69,508.62L441.08,507.26L432.34,507.09L424.2,501.51L422.61,498.64L427.61,494.89L427.64,488.46L432.21,486.22L435.07,486.97L439.35,491.45L441.99,491.1L446.94,487.45L453.34,492.85L456.82,493.38L455.32,500.79Z" class="land" id="UY-MO" title="Montevideo"/>
    <path d="M515.67,495.91L507.28,495.09L503.6,495.49L495.4,492.6L491.41,493.55L487.26,491.77L481.65,493.72L478.49,492.79L469.87,495.97L456.6,504.88L455.32,500.79L456.82,493.38L453.34,492.85L446.94,487.45L441.99,491.1L439.35,491.45L435.07,486.97L432.21,486.22L427.64,488.46L425.65,485.78L419.58,481.27L418.07,473.61L424.64,466.1L423.78,461.83L424.34,455.96L425.89,450.48L428.84,447.8L436.18,447.78L440.12,449.98L447.96,448.59L452.19,440.9L460.14,435.66L464.01,436.19L468.7,438.52L474.25,437.84L482.75,433.29L493.87,431.71L497.46,444.97L501.16,451.91L500.52,463.17L504.87,468.95L506.82,476.34L512.14,484.15L511.69,488.45Z" class="land" id="UY-CA" title="Canelones"/>
    <path d="M590.59,496.34L584.07,498.45L581.2,500.88L575.6,502.89L560.2,510.35L556.56,511.32L554.28,514L551.05,509.51L545.95,508.24L541.59,504.69L537.35,504.89L529.18,506.82L525.76,506.16L518.82,497.63L515.67,495.91L511.69,488.45L512.14,484.15L506.82,476.34L518.82,475.67L523.91,473.65L533.98,465.08L541.5,464.43L550.34,457.03L557.72,454.75L562.72,451.64L565.41,441.03L568.31,436.97L568.44,431.08L571.94,423.95L576.47,417.13L580.31,415.06L586.73,413.68L591.21,404.29L594.92,401.49L596.8,419.61L594.03,431.01L594.78,441.93L593.99,451.41L590.95,452.06L589.93,456.8L591.65,464.8L593.45,468.17L590.17,479.93L591.76,489.49Z" class="land" id="UY-MA" title="Maldonado"/>
    <path d="M710.4,281.65L708.52,284.03L700.09,291.09L699.13,296.94L697.56,300.03L686.73,307.29L681.19,313.35L680.37,316.09L671.89,318.07L665.42,320.86L658.34,322.91L655.75,328.08L651.46,330.71L647.06,336.39L641.02,339.58L638.76,344.31L632.71,349.46L626.6,352.27L616.94,347.29L612.29,340.43L606.25,340.76L601.41,344L598.33,349.04L592.95,350.43L584.15,346.81L574.25,344.89L568.75,340.18L563.49,338.69L557.24,341.6L554.11,341.59L548.99,339.18L543.89,340.03L537.82,343.38L535.7,339.34L539.33,334.55L540.79,329.62L539.02,315.37L540.49,312.18L545.46,308.95L548,305.48L546.45,298.9L548.25,296.47L555.56,292.17L559.69,288.38L564.92,285.7L572.83,284.86L576.96,283.16L584.73,283.88L587.66,280.62L591.44,280.4L593.76,276.86L601.21,276.34L609.67,272.64L612.32,274.4L626.2,277.06L633.73,281.54L634.51,277.52L640.58,271.91L643.86,272.38L649.5,276.99L652.52,278.07L667.36,276.87L672.65,277.56L682.21,276.4L684.43,278.23L692.87,280.55L699.65,279.39Z" class="land" id="UY-TT" title="Treinta y Tres"/>
    <path d="M680.37,316.09L678.93,320.95L679,328.79L680.96,344.77L678.94,362.36L678.69,371.9L681.19,376.28L686.06,375.98L690.09,381.83L689.78,384.19L684.6,391.7L678.7,416.11L674.1,419.66L669.76,425.25L663.45,430.75L659.25,439.32L657.33,445.51L658.66,451.37L655.03,452.51L646.81,457.13L640.24,461.8L626.69,475.09L624.8,481.27L616.72,483.1L615.3,477.3L616.56,472.87L612.87,472.06L607.14,477.28L610.42,479.09L612.87,482.86L610.53,485.61L590.59,496.34L591.76,489.49L590.17,479.93L593.45,468.17L591.65,464.8L589.93,456.8L590.95,452.06L593.99,451.41L594.78,441.93L594.03,431.01L596.8,419.61L594.92,401.49L599.77,394.9L600.84,388.06L604.57,380.47L603.73,374.38L606.86,368.41L613.99,364.22L617.34,361.19L619.25,354.61L626.6,352.27L632.71,349.46L638.76,344.31L641.02,339.58L647.06,336.39L651.46,330.71L655.75,328.08L658.34,322.91L665.42,320.86L671.89,318.07Z" class="land" id="UY-RO" title="Rocha"/>
    <path d="M596.24,162.32L613.4,178.96L622.69,186.54L625.76,187.91L628.23,185.29L631.65,184.87L637.87,190.08L643.6,191.42L647.18,194.31L648.31,197.57L652.84,201.26L658.05,202.38L659.86,204.66L659.99,208.35L662.53,214.48L667.04,221.2L668.72,227.71L668.99,233L676.76,244.67L684.47,250.86L689.71,256.76L698.56,260.82L702.93,261.32L710.11,265.46L716.8,273.46L715.37,276.88L710.4,281.65L699.65,279.39L692.87,280.55L684.43,278.23L682.21,276.4L672.65,277.56L667.36,276.87L652.52,278.07L649.5,276.99L643.86,272.38L640.58,271.91L634.51,277.52L633.73,281.54L626.2,277.06L612.32,274.4L609.67,272.64L601.21,276.34L593.76,276.86L591.44,280.4L587.66,280.62L584.73,283.88L576.96,283.16L572.83,284.86L564.92,285.7L559.69,288.38L555.56,292.17L548.25,296.47L546.45,298.9L548,305.48L534.71,304.71L533.1,302.56L524.64,297.1L520.38,291.27L520.84,284.97L518.64,278.17L521.51,274.96L519.09,267.7L521.88,257.67L521.51,252.78L519.7,249.35L527.59,245.66L530.66,245.47L539.48,248.41L545.33,246.69L549.55,242.72L552.72,238.27L555.88,237.31L558.04,234.1L563.15,230.04L566.64,222.44L565.38,218.97L570.6,208.13L576.36,211.02L579.6,210.32L585.38,208.94L586.07,203.85L589.21,200.82L589.45,197.73L585.46,195.92L588.49,191.56L592.96,180.94L592.98,176.55L591.52,169.41Z" class="land" id="UY-CL" title="Cerro Largo"/>
    <path d="M596.24,162.32L591.52,169.41L592.98,176.55L592.96,180.94L588.49,191.56L585.46,195.92L589.45,197.73L589.21,200.82L586.07,203.85L585.38,208.94L579.6,210.32L575.46,203.76L567.05,194.15L565.5,191.41L558.92,184.35L551.97,181.63L545.14,181.03L539.97,178.9L526.67,178.47L518,176.29L504.12,177.18L499.21,176.31L495.34,177.15L491.55,173.1L490.14,165.99L491.4,159.93L490.11,154.97L487.85,152.03L483.22,150.33L478.97,146.76L476.48,140.75L476.47,136.89L472.73,131.32L462.06,126.2L454.79,120.4L451.33,119.79L448.09,121.56L445.97,124.85L443.4,119.89L446.86,116.9L453.02,115.1L456.77,109.85L459.13,101.7L472.07,101.17L481.02,94.08L483.84,87.54L489.71,87.95L490.88,86.88L490.71,80.63L492.54,77.41L496.28,77.49L502.01,82.27L509.55,89.64L517.44,99.04L518.85,106.24L522.79,109.15L525.78,116.95L528.66,119.52L533.82,121.91L538.03,125.76L541.13,127.15L546.28,121.12L551.59,128.61L557.75,132.9L561.03,136.6L564.91,138.44L579.63,140.58L585.2,142.16L587.78,146.84L592.47,150.64L594.82,153.94Z" class="land" id="UY-RV" title="Rivera"/>
    <path d="M458.5,100.91L459.13,101.7L456.77,109.85L453.02,115.1L446.86,116.9L443.4,119.89L445.97,124.85L443.38,134.27L436.66,139.89L431.44,147.2L428.56,155.58L430.09,158.23L431.59,168.53L431.43,171.42L426.74,172.65L420.7,179.89L418.91,183.3L414.75,183.9L408.43,181.98L402.11,181.35L397.62,178.48L392.18,178.1L385.24,175.82L377.55,177.49L370.79,175.59L365.07,177.46L355.38,175.92L351.14,172.87L344.09,170.83L340.22,168.11L338.27,165.1L330.63,163.51L318.21,156.72L305.14,153.85L302.87,151.69L300.39,146.49L294.51,143.16L290.56,142.12L286.38,145.15L281.86,144.81L278.79,146.08L275.57,142.6L276.69,139.38L283.13,134.69L285.24,125.88L287.98,123.35L290.69,118.23L290.1,110.91L291.23,106.33L295.12,99.32L294.4,94.48L290.1,87.75L292.45,84.79L299.39,83.63L300.47,78.49L300.08,71.61L303.29,67.58L308.8,68.86L314.57,73.2L320.29,79.04L328.54,80.29L333.45,84.03L345.22,90.32L349.46,91.69L355.61,97.34L359.45,99.69L364.79,101.29L371.11,98.37L379.1,97.76L389.18,99.59L399.71,97.55L404.92,93.17L409.73,91.92L417.3,86.83L419.96,82.19L423.08,81.5L429.61,83.62L443.72,86.73L447.59,89.43L450.57,93.6Z" class="land" id="UY-SA" title="Salto"/>
    <path d="M458.5,100.91L450.57,93.6L447.59,89.43L443.72,86.73L429.61,83.62L423.08,81.5L419.96,82.19L417.3,86.83L409.73,91.92L404.92,93.17L399.71,97.55L389.18,99.59L379.1,97.76L371.11,98.37L364.79,101.29L359.45,99.69L355.61,97.34L349.46,91.69L345.22,90.32L333.45,84.03L328.54,80.29L320.29,79.04L314.57,73.2L308.8,68.86L303.29,67.58L300.08,71.61L298.44,63.39L292.4,50.77L292.05,46.74L295.62,39.98L313.12,23.88L315.7,16.57L314.04,9.89L316.77,8.85L318.98,11.01L320.69,16.39L323.49,18.25L332.93,18.36L335.64,20.79L339.69,18L344.78,20.2L352.24,19.58L356.57,14.64L357.73,8.78L362.04,2.5L364.28,0.95L367.76,1.82L375.18,0L379.45,1.19L386.13,0.52L389.34,2.76L391.84,6.63L400.13,11.76L403.79,15.48L403.9,19.31L407.95,20.53L413.46,26.79L420.79,32.09L426.9,40.04L439.12,48.24L443.7,53.32L444.83,56.55L448.9,60.11L453.18,67.55L459,72.3L460.99,78.26L459,84.15L458.02,97.92Z" class="land" id="UY-AR" title="Artigas"/>
    <path d="M278.79,146.08L281.86,144.81L286.38,145.15L290.56,142.12L294.51,143.16L300.39,146.49L302.87,151.69L305.14,153.85L318.21,156.72L330.63,163.51L338.27,165.1L340.22,168.11L344.09,170.83L351.14,172.87L355.38,175.92L365.07,177.46L370.79,175.59L377.55,177.49L385.24,175.82L392.18,178.1L397.62,178.48L402.11,181.35L408.43,181.98L414.75,183.9L418.91,183.3L420.7,179.89L426.74,172.65L431.43,171.42L435.14,176.87L435.13,182.29L438.24,187.71L434.73,190.47L433.83,201.92L431.33,208.27L428.12,221.78L422.46,227.73L416.53,232.58L415.04,234.88L410.29,249.2L400.42,242.18L395.56,240.67L377.58,240.02L367.6,235.61L362.04,238.46L354.62,239.19L348.81,243.42L345.68,244.23L342.04,243.01L335.45,244.79L329.33,244.21L322.53,248.84L319.27,253.81L303.82,256.14L301.4,261.34L290.34,260.82L282.65,258.65L280.58,254.59L275.11,249.65L272.39,248.38L265.23,249.14L264.51,244.18L267.6,238.35L273.22,230.14L272.75,223.87L265.68,213.48L269.07,204.04L269.01,194.85L268.14,191.57L264.25,186.25L267.27,181.32L270.63,179.42L276.98,177.71L277.91,176.2L283.27,160.08L284.07,155.49L283.43,150.83Z" class="land" id="UY-PA" title="Paysandú"/>
  </g>
</svg>