<?xml version="1.0" encoding="UTF-8"?>
<svg xmlns="http://www.w3.org/2000/svg" width="588.68" height="519.3" viewBox="185.66 -2.65 588.68 519.3" style="background-color:#000000">
  <!-- Created using SVG Map Generator: dojo.amcharts.com/svg-map-generator -->
  <style>
    .land { fill: #ffffff; stroke: #000000; stroke-width: 0.65; }
  </style>
  <g id="polygons">
    <path d="M331.53,0L336.91,3.53L337.91,8.19L331.53,4.54Z" class="land" id="AW" title="Aruba"/>
    <path d="M409.01,16.12L408.64,24.06L405.88,23.56L405.63,19.4L402.63,16.25L402.88,12.47Z" class="land" id="BQ" title="Bonaire, Saint Eustachius and Saba"/>
    <path d="M378.09,17.26L382.22,18.77L384.6,23.68L380.09,23.81L372.46,17.89L368.2,11.47L371.33,10.08L373.71,14.87Z" class="land" id="CW" title="Curaçao"/>
    <path d="M470.02,87.59L469.78,90.22L463.3,93.97L458.86,93.97L456.87,92.09L461.26,86.84L469.78,87.56Z" class="land" id="VE-A" title="Distrito Capital"/>
    <path d="M647.68,180.06L640.27,185.08L630.42,182.3L625.62,182.3L623.34,184.59L612.05,191.24L605.21,190.88L599.45,193.78L596.21,198.61L592.6,200.91L587.32,200.31L581.8,195.23L573.75,198.13L569.43,197.29L565.47,200.67L567.75,208.28L563.67,208.52L558.27,212.15L551.55,212.87L546.14,208.16L534.5,204.3L530.29,203.68L527.42,201.64L527.78,196.08L531.38,190.52L539.78,180.61L541.82,173.36L541.1,168.16L543.15,165.51L550.59,165.38L554.79,167.56L557.31,162.36L556.95,158.49L549.75,154.27L549.75,151.85L545.31,148.46L540.86,147.26L535.22,140.13L539.78,136.26L529.58,128.04L524.9,130.1L520.22,129.61L518.65,126.23L519.13,119.58L517.29,114.15L517.64,112.82L523.29,110.88L529.53,104.67L544.69,108.24L548.6,107.26L555.71,107.29L559.67,105.93L560.44,103.04L564.02,100.81L570.6,100.19L573.25,104.46L579.49,107.36L583.82,107.36L588.5,105.42L593.86,106.51L589.33,109.05L589.09,112.55L592.33,114.61L594.73,118.72L593.89,123.19L596.65,125.96L597.97,130.32L592.69,136.6L596.17,145.42L601.09,144.09L605.29,146.02L612.14,152.07L619.22,157.26L623.18,165.6L635.67,164.39L631.7,170.43L634.35,172.97L647.79,177.8Z" class="land" id="VE-B" title="Anzoátegui"/>
    <path d="M491.7,213.12L487.25,215.45L479.73,227.21L470.93,230.12L468.2,232.85L458.44,235.59L456.36,241.07L460.2,245.42L459.56,251.87L457.32,254.61L455.08,261.05L454.92,265.56L449.96,271.53L443.34,276.31L434.82,272.98L427.98,272.02L423.66,272.98L420.3,276.13L413.64,274.75L405.6,277.16L401.87,275.89L393.83,276.97L391.9,278.56L383.77,276.37L369.57,274.68L365.98,280.79L362.79,278L357.92,279.29L356.37,276.01L348.2,268.87L347.72,265.61L335.24,251.59L328.23,241.3L318.64,243.24L317.06,240.93L312.74,239.36L310.58,236.46L295.7,236.46L290.23,241.5L285.97,239.48L266.7,239.24L265.32,237.43L255.36,240.21L248.28,240.45L241.8,233.68L240.44,229.82L241.87,225.83L238.38,223.41L232.76,222.47L241.02,220.74L244.7,223.8L252.7,223.15L254.15,219.93L254.23,219.64L257.17,219.64L260.53,222.22L266.14,222.54L275.26,221.58L281.02,222.7L284.22,225.28L291.75,227.38L297.73,227.21L303.33,228.51L308.94,226.57L312.78,222.86L317.1,221.09L319.18,214.65L325.58,213.68L330.71,209.33L334.55,209.17L339.35,205.46L343.67,205.79L355.84,196.6L359.52,196.12L370.08,196.76L376.97,198.54L382.41,202.24L398.57,200.79L404.5,202.08L409.62,200.31L424.19,202.56L429.79,201.92L437.58,199.22L439.33,201.24L453.41,207.37L463.5,208.01L475.5,212.04L477.42,208.33L483.35,206.88L490.87,212.2Z" class="land" id="VE-C" title="Apure"/>
    <path d="M441.22,112.64L441.11,112.45L438.95,111.13L434.03,110.64L433.67,108.95L435.59,98.44L426.23,95.9L425.27,93L428.67,89.99L446.64,87.93L447.33,91.67L455.78,92.62L455.95,96.75L458.83,100.86L458.59,106.41L463.75,108.59L466.15,111.01L479.17,111.97L480.37,119.22L477.61,122.49L480.97,126.11L480.13,129.37L481.21,134.57L476.53,141.34L463.32,135.05L462.72,132.03L466.92,130.82L468.49,126.11L462.24,121.52L455.04,114.87L451.8,114.87L447.12,112.34L441.23,112.58Z" class="land" id="VE-D" title="Aragua"/>
    <path d="M437.58,199.22L429.79,201.92L424.19,202.56L409.62,200.31L404.5,202.08L398.57,200.79L382.41,202.24L376.97,198.54L370.08,196.76L359.52,196.12L355.84,196.6L343.67,205.79L339.35,205.46L334.55,209.17L330.71,209.33L325.58,213.68L319.18,214.65L317.1,221.09L312.78,222.86L308.94,226.57L303.33,228.51L297.73,227.21L291.75,227.38L284.22,225.28L281.02,222.7L275.26,221.58L266.14,222.54L260.53,222.22L257.17,219.64L254.23,219.64L254.47,218.8L258.79,216.87L271.43,219.77L274,217.52L269.68,213.81L270.38,207.43L278.77,202.29L285.61,196L290.29,189.12L288.37,182.47L291.14,179.08L291.97,173.89L299.06,165.67L303.26,164.1L309.02,159.75L310.86,155.2L312.62,154.99L322.23,154.02L325.35,154.99L326.87,155.23L328.34,155.97L329.62,157.58L333.46,160.64L337.78,163.54L344.5,166.44L351.39,166.44L358.59,170.31L364.03,170.63L371.71,180.3L370.12,182.87L376.68,187.55L381.16,193.51L385.16,194.15L385.64,185.78L392.37,181.42L395.41,174.01L395.28,171.82L414.2,172.4L417.64,175.31L420.92,179.97L425.56,182.39L431,188.51L435.33,190.28L435.17,193.67Z" class="land" id="VE-E" title="Barinas"/>
    <path d="M564.88,361.8L565.28,353.28L563.52,346.68L556.96,346.2L549.76,342.33L544.15,334.27L539.83,326.7L536.79,316.22L542.72,314.93L543.67,311.87L540.8,309.78L542.56,304.78L536.96,298.82L539.03,295.92L535.67,293.5L530.07,293.5L526.07,297.53L521.43,294.63L521.27,289.96L523.19,281.42L519.19,278.68L512.94,280.45L510.38,286.41L505.58,292.38L499.34,293.66L494.53,295.76L492.61,288.02L490.05,288.35L483.65,294.47L479.01,296.89L467.8,297.53L460.6,298.98L454.84,297.53L454.2,293.34L455.96,287.54L455,281.1L443.2,277.71L443.34,276.31L449.96,271.53L454.92,265.56L455.08,261.05L457.32,254.61L459.56,251.87L460.2,245.42L456.36,241.07L458.44,235.59L468.2,232.85L470.93,230.12L479.73,227.21L487.25,215.45L491.7,213.12L492.47,213.97L495.51,214.29L500.32,211.55L506.23,212.52L510.88,211.23L516.64,204.3L524.96,202.21L530.29,203.68L534.5,204.3L546.14,208.16L551.55,212.87L558.27,212.15L563.67,208.52L567.75,208.28L565.47,200.67L569.43,197.29L573.75,198.13L581.8,195.23L587.32,200.31L592.6,200.91L596.21,198.61L599.45,193.78L605.21,190.88L612.05,191.24L623.34,184.59L625.62,182.3L630.42,182.3L640.27,185.08L647.68,180.06L647.67,180.34L652.31,177.33L653.27,181.21L658.31,187.62L665.51,187.62L671.76,191.24L674.75,196.8L678.95,198.49L682.2,196.2L688.8,196.08L692.52,203.45L696.12,206.47L705.01,208.64L717.85,200.91L721.45,202.36L724.7,206.83L731.54,202.96L737.18,202L750.42,201.75L747.33,204.34L740.87,204.62L739.27,206.23L737.67,213.5L732.47,215.87L732.29,219.49L736.76,224.65L735.66,229.59L739.07,232.6L748.23,232.32L750.99,234.39L751.12,238.13L746.39,242.41L739.71,247.04L736.08,246.92L732.42,250.84L724.45,249.28L719.31,252.47L715.47,251.52L710.87,252.54L712.97,255.83L714.52,262.15L714.59,276.97L704.84,284.16L703.74,286.82L715.74,299.25L726.22,312.11L736.91,323.81L737.94,328.07L732.96,334.71L724.88,340.08L721.95,346.28L717.15,347.24L707.57,346.28L707.16,350.98L701.75,350.98L698.72,352.94L697.17,358.39L690.41,358.39L685.01,363.08L676.74,363.14L670.97,365.65L660.4,362.12L655.81,364.84L653.11,368.99L647.44,368.72L643.66,371.66L646.9,381.25L644.63,385.92L641.56,388.19L637.62,387.59L628.04,378.44L620.99,370.47L617.19,370.65L615.63,375L612.32,374.74L608.84,371.31L604.02,372.55L597.33,372.55L593.02,375.34L589.9,373.87L588.73,368.52L585.13,365.35L574.82,364.04L567.93,364.98Z" class="land" id="VE-F" title="Bolívar"/>
    <path d="M428.67,89.99L425.27,93L426.23,95.9L435.59,98.44L433.67,108.95L434.03,110.64L438.95,111.13L441.11,112.45L441.22,112.64L440.87,114.75L434.51,118.62L429.35,114.75L426.94,117.29L422.5,118.62L415.06,115.84L410.02,112.7L410.38,105.45L404.61,110.17L402.82,103.63L405.1,100.01L402.7,95.78L403.9,89.98L410.91,87.56L413.78,90.5Z" class="land" id="VE-G" title="Carabobo"/>
    <path d="M426.94,117.29L431,123.74L429.08,126.48L421.88,130.02L423.32,135.99L423.64,142.11L425.88,145.98L425.88,154.51L421.08,159.67L418.2,164.83L419.48,166.92L419.64,173.85L417.64,175.31L414.2,172.4L395.28,171.82L391.89,169.18L390.12,165.63L386.92,164.18L393.81,160.32L391.56,154.19L393.81,150.65L388.52,143.88L383.08,139.37L382.92,136.15L379.88,130.51L379.72,127.29L376.8,120.77L377.21,120.31L379.61,116.08L379.81,110.95L381.09,110.76L383.73,109.92L389.01,113.91L393.93,111.01L398.98,114.87L404.61,110.17L410.38,105.45L410.02,112.7L415.06,115.84L422.5,118.62Z" class="land" id="VE-H" title="Cojedes"/>
    <path d="M383.13,83.87L378.75,81.09L375.51,82.9L365.66,80.85L356.9,81.81L348.61,78.07L344.41,81.09L339.13,80.97L318.84,88.34L312.24,88.7L306.96,90.99L300.34,91.25L295.07,91.12L291.23,89.06L286.31,81.57L287.39,77.82L278.24,68.1L288.51,61.93L297.95,57.94L311.57,56.33L314.23,54.5L326.1,50.51L329.23,47.53L335.98,44.88L339.15,47.93L345.03,47.36L345.68,43.55L342.89,37.43L333.21,38.71L325.68,40.76L324.39,37.18L325.59,33.31L322.71,30.17L322.15,26.49L326.43,18.38L332.8,14.69L337.29,14.91L339.76,17.06L343.21,25.67L343.71,31.46L349.3,44.38L352.59,46.2L358.19,44.38L360.9,45.59L364.56,43.81L374.81,47.19L383.08,47.62L395.73,54.22L400.54,57.84L407.62,66.78L407.77,72.2L406.23,75.51L406.66,80.44L410.02,86.19L405.7,86.84L397.41,86.35L393.57,83.58L393.21,80.19L386.85,81.04Z" class="land" id="VE-I" title="Falcón"/>
    <path d="M530.29,203.68L524.96,202.21L516.64,204.3L510.88,211.23L506.23,212.52L500.32,211.55L495.51,214.29L492.47,213.97L490.87,212.2L483.35,206.88L477.42,208.33L475.5,212.04L463.5,208.01L453.41,207.37L439.33,201.24L437.58,199.22L435.17,193.67L435.33,190.28L431,188.51L425.56,182.39L420.92,179.97L417.64,175.31L419.64,173.85L419.48,166.92L418.2,164.83L421.08,159.67L425.88,154.51L425.88,145.98L423.64,142.11L423.32,135.99L421.88,130.02L429.08,126.48L431,123.74L426.94,117.29L429.35,114.75L434.51,118.62L440.87,114.75L441.23,112.58L447.12,112.34L451.8,114.87L455.04,114.87L462.24,121.52L468.49,126.11L466.92,130.82L462.72,132.03L463.32,135.05L476.53,141.34L481.21,134.57L480.13,129.37L480.97,126.11L477.61,122.49L480.37,119.22L479.17,111.97L482.6,111.85L489.92,108.95L494.25,112.09L508.89,112.7L511.66,111.73L517.42,113.65L517.29,114.15L519.13,119.58L518.65,126.23L520.22,129.61L524.9,130.1L529.58,128.04L539.78,136.26L535.22,140.13L540.86,147.26L545.31,148.46L549.75,151.85L549.75,154.27L556.95,158.49L557.31,162.36L554.79,167.56L550.59,165.38L543.15,165.51L541.1,168.16L541.82,173.36L539.78,180.61L531.38,190.52L527.78,196.08L527.42,201.64Z" class="land" id="VE-J" title="Guárico"/>
    <path d="M379.81,110.95L379.61,116.08L377.21,120.31L376.25,121.4L372.53,124.18L366.4,123.82L365.09,117.29L360.76,123.69L349.72,130.82L349.6,136.26L341.8,136.99L340.12,135.17L343.11,130.46L336.99,130.58L334.11,133.24L333.39,135.29L329.19,130.1L332.43,122.73L326.19,118.74L323.67,119.34L317.9,115.6L311.54,115.48L311.54,112.7L305.9,109.8L304.08,114.2L304.11,114L301.59,113.76L295.47,110.26L295.35,106.87L303.51,101.8L304.35,97.69L301.59,96.48L300.34,91.25L306.96,90.99L312.24,88.7L318.84,88.34L339.13,80.97L344.41,81.09L348.61,78.07L356.9,81.81L365.66,80.85L375.51,82.9L378.75,81.09L383.13,83.87L380.37,86.72L376.52,87.56L373.64,92.16L375.69,95.42L376.77,101.1L371.96,101.22L367.52,106.17L371.25,110.4L370.64,114.75L374.12,116.81L375.21,113.18L379.41,111.01Z" class="land" id="VE-K" title="Lara"/>
    <path d="M310.86,155.2L309.02,159.75L303.26,164.1L299.06,165.67L291.97,173.89L291.14,179.08L288.37,182.47L290.29,189.12L285.61,196L278.77,202.29L270.38,207.43L267.6,205.19L267.36,198.42L265.08,196.37L260.16,196.12L255.48,191.66L250.92,188.75L255.48,183.68L256.8,176.31L254.08,170.25L255.06,169.92L259.98,171.01L260.82,167.51L264.3,166.06L280.39,153.13L279.12,148.35L283.09,145.88L288.25,149.99L293.89,148.66L295.23,148.76L295.58,149.43L296.9,149.43L299.9,150.88L305.18,156.32L306.86,153.78L310.58,155.23Z" class="land" id="VE-L" title="Mérida"/>
    <path d="M517.42,113.65L511.66,111.73L508.89,112.7L494.25,112.09L489.92,108.95L482.6,111.85L479.17,111.97L466.15,111.01L463.75,108.59L458.59,106.41L458.83,100.86L455.95,96.75L455.78,92.62L456.87,92.09L458.86,93.97L463.3,93.97L469.78,90.22L470.02,87.59L472.06,87.81L475.3,86.6L490.79,87.2L491.28,84.13L493.07,82.74L497.51,85.16L500.09,89.05L514.4,101.26L524.64,103.11L529.53,104.67L523.29,110.88L517.64,112.82Z" class="land" id="VE-M" title="Miranda"/>
    <path d="M661.39,123.29L657.02,129.58L658.94,135.54L658.78,141.98L661.98,144.4L662.46,150.68L669.5,152.45L673.67,151.17L674.47,159.54L673.83,163.57L665.82,172.43L661.18,175.17L652.31,177.33L647.67,180.34L647.79,177.8L634.35,172.97L631.7,170.43L635.67,164.39L623.18,165.6L619.22,157.26L612.14,152.07L605.29,146.02L601.09,144.09L596.17,145.42L592.69,136.6L597.97,130.32L596.65,125.96L593.89,123.19L594.73,118.72L592.33,114.61L589.09,112.55L589.33,109.05L593.86,106.51L600.5,104.21L602.9,101.68L608.55,101.56L613.83,97.81L622.47,102.77L631.24,104.58L635.92,108.2L643.6,109.05L649.36,108.45L650.52,102.26L654.06,102.06L656.05,104.21L658.89,114.88L661.6,118.86Z" class="land" id="VE-N" title="Monagas"/>
    <path d="M600.5,67.4L599.09,69.77L592.81,72.5L588.3,72.6L585.39,70.14L579.38,70.71L575.06,68.63L576.56,65.33L582.57,65.04L586.04,67.88L591.59,67.03L592.52,64.19L597.87,61.54Z" class="land" id="VE-O" title="Nueva Esparta"/>
    <path d="M376.8,120.77L379.72,127.29L379.88,130.51L382.92,136.15L383.08,139.37L388.52,143.88L393.81,150.65L391.56,154.19L393.81,160.32L386.92,164.18L390.12,165.63L391.89,169.18L395.28,171.82L395.41,174.01L392.37,181.42L385.64,185.78L385.16,194.15L381.16,193.51L376.68,187.55L370.12,182.87L371.71,180.3L364.03,170.63L358.59,170.31L351.39,166.44L344.5,166.44L337.78,163.54L333.46,160.64L329.62,157.58L328.34,155.97L326.87,155.23L326.91,155.23L330.51,150.76L331.23,145.32L328.11,142.3L332.55,137.95L333.5,135L334.11,133.24L336.99,130.58L343.11,130.46L340.12,135.17L341.8,136.99L349.6,136.26L349.72,130.82L360.76,123.69L365.09,117.29L366.4,123.82L372.53,124.18L376.25,121.4Z" class="land" id="VE-P" title="Portuguesa"/>
    <path d="M650.52,102.26L649.36,108.45L643.6,109.05L635.92,108.2L631.24,104.58L622.47,102.77L613.83,97.81L608.55,101.56L602.9,101.68L600.5,104.21L593.86,106.51L588.5,105.42L583.82,107.36L579.49,107.36L573.25,104.46L570.6,100.19L576.5,94.19L579.38,93.82L583.02,90L588.95,92.23L599.18,92.13L598.2,87.64L584.75,86.65L581.02,88.43L578.95,84.29L596.84,83.91L597.9,82.68L611.14,83.51L617.57,82.05L623,82.18L625.72,80.31L635.27,80.08L639.66,81.06L645.22,78.7L656.86,79.14L667.43,80.69L682.22,79.08L678.53,82.3L666.35,83.51L662.83,87.67L647.07,86.52L640.15,87.97L641.03,93.1L646.82,93.35L648.05,95.34L648.43,103.01Z" class="land" id="VE-R" title="Sucre"/>
    <path d="M270.38,207.43L269.68,213.81L274,217.52L271.43,219.77L258.79,216.87L254.47,218.8L254.15,219.93L252.7,223.15L244.7,223.8L241.02,220.74L232.76,222.47L227.94,219.66L227.76,201.31L229.02,196.88L232.65,195.79L231.54,191.8L231.35,183.24L228.99,180.56L233.45,176.57L238.97,173.8L249.54,171.86L253.62,170.41L254.08,170.25L256.8,176.31L255.48,183.68L250.92,188.75L255.48,191.66L260.16,196.12L265.08,196.37L267.36,198.42L267.6,205.19Z" class="land" id="VE-S" title="Táchira"/>
    <path d="M333.5,135L332.55,137.95L328.11,142.3L331.23,145.32L330.51,150.76L326.91,155.23L325.35,154.99L322.23,154.02L312.62,154.99L310.58,155.23L306.86,153.78L305.18,156.32L299.9,150.88L296.9,149.43L295.58,149.43L295.23,148.76L295.46,148.78L295.94,146.48L293.54,141.29L287.94,139.86L288.84,126.68L297.15,128.14L300.63,125.36L301.83,121.25L304.59,120.89L303.87,115.45L304.08,114.2L305.9,109.8L311.54,112.7L311.54,115.48L317.9,115.6L323.67,119.34L326.19,118.74L332.43,122.73L329.19,130.1L333.39,135.29Z" class="land" id="VE-T" title="Trujillo"/>
    <path d="M410.02,86.19L410.91,87.56L403.9,89.98L402.7,95.78L405.1,100.01L402.82,103.63L404.61,110.17L398.98,114.87L393.93,111.01L389.01,113.91L383.73,109.92L381.09,110.76L379.41,111.01L375.21,113.18L374.12,116.81L370.64,114.75L371.25,110.4L367.52,106.17L371.96,101.22L376.77,101.1L375.69,95.42L373.64,92.16L376.52,87.56L380.37,86.72L383.13,83.87L386.85,81.04L393.21,80.19L393.57,83.58L397.41,86.35L405.7,86.84Z" class="land" id="VE-U" title="Yaracuy"/>
    <path d="M279.12,148.35L280.39,153.13L264.3,166.06L260.82,167.51L259.98,171.01L255.06,169.92L253.62,170.41L249.54,171.86L238.97,173.8L233.45,176.57L228.99,180.56L220.02,170.17L214.38,148.18L207.29,148.42L204.12,141.29L195.02,146.99L188.31,146.98L192.16,141.89L192.28,138.15L195.53,133.55L201.04,127.9L206.33,116.03L205.52,110.8L208.13,105.64L208.01,98.32L209.21,93.12L211.97,87.08L217.25,80.56L217.24,77.23L220.29,71.73L224.58,66.78L226.97,62.26L234.71,61.27L243.59,44.21L246.88,39.74L259.2,35L271.44,32.59L276.51,29.82L277.32,33.45L272.05,35.93L263.83,37.92L257.57,38.18L252.15,40.74L250.01,45.37L253.99,56.92L258.89,63.59L264.32,65.24L261.31,69.01L263.17,76.5L266.72,79.4L265.99,86.04L262.59,91.57L258,94.75L255.01,99.75L253.99,104.29L249.02,106.48L248.36,109.79L242.12,118.81L248.98,128.21L251.33,132.95L258.97,138.08L258.92,150.06L263.66,152.56L269.1,152.24ZM287.94,139.86L293.54,141.29L295.94,146.48L295.46,148.78L293.89,148.66L288.25,149.99L283.09,145.88L283.43,142.46ZM278.24,68.1L287.39,77.82L286.31,81.57L291.23,89.06L295.07,91.12L300.34,91.25L301.59,96.48L304.35,97.69L303.51,101.8L295.35,106.87L295.47,110.26L301.59,113.76L304.11,114L303.87,115.45L304.59,120.89L301.83,121.25L300.63,125.36L297.15,128.14L288.84,126.68L289.33,122.54L287.69,116.91L282.08,112.65L281.12,106.37L276.84,102.47L271.7,94.76L271.89,88.76L268.11,86.6L268.76,81.69L267.68,75.29L270.56,75.05L273.7,71.87L272.36,68.52Z" class="land" id="VE-V" title="Zulia"/>
    <path d="M535.94,67.15L540.58,70.93L538.57,73.45L530.44,72.32L531.44,67.53ZM499.33,34.27L494.82,31.75L502.71,28.35L503.46,32.38ZM566.8,33.13L563.04,29.86L567.68,27.59L568.8,31.62ZM481.43,26.46L482.05,31.75L479.92,34.65L469.91,34.27L471.79,30.36L469.79,25.7L478.8,23.68ZM437.61,20.28L437.37,24.06L433.61,24.69L432.36,22.17Z" class="land" id="VE-W" title="Dependencias Federales"/>
    <path d="M491.28,84.13L490.79,87.2L475.3,86.6L472.06,87.81L469.78,87.56L461.26,86.84L456.87,92.09L455.78,92.62L447.33,91.67L446.64,87.93L452.77,87.52L462.18,84.24L473.07,83.05L481.71,83.05Z" class="land" id="VE-X" title="Vargas"/>
    <path d="M723.02,164.47L719.59,168.82L716.41,165.24L719.33,162.42ZM722.39,160.75L719.46,158.06L723.79,153.96L725.57,157.04ZM723.06,144.85L723.4,140.9L722.45,135.68L724.65,133.95L728.99,139.98ZM750.42,201.75L737.18,202L731.54,202.96L724.7,206.83L721.45,202.36L717.85,200.91L705.01,208.64L696.12,206.47L692.52,203.45L688.8,196.08L682.2,196.2L678.95,198.49L674.75,196.8L671.76,191.24L665.51,187.62L658.31,187.62L653.27,181.21L652.31,177.33L661.18,175.17L665.82,172.43L673.83,163.57L674.47,159.54L673.67,151.17L669.5,152.45L662.46,150.68L661.98,144.4L658.78,141.98L658.94,135.54L657.02,129.58L661.39,123.29L663.84,115.98L666.65,111.58L672.58,111L683.73,121.69L685.95,118.25L694.19,121.12L693.77,115.51L698.72,119.07L705.33,127.3L711.52,129.26L720.54,130.42L722.77,140.52L719.03,145.42L715.81,147.39L718.65,153.04L714.35,156.93L714.84,161.96L711.16,167.9L709.84,172.51L714.84,176.07L720.19,177.26L721.57,172.51L732.21,171.62L736.02,173.94L742.95,174.93L746.54,170.41L752.82,170.62L761.07,172.86L767.39,177.33L771.69,183.27L763.15,189.91L761.34,196.25L758.94,196.07L753.09,199.1Z" class="land" id="VE-Y" title="Delta Amacuro"/>
    <path d="M564.88,361.8L560.04,358.54L556.69,361.58L560.51,364.45L564.22,372.14L571.97,379.83L577.91,382.78L582.16,386.19L583.96,389.36L582.7,396.16L582.7,408.86L587.44,414.12L592.72,424.15L592.84,430.31L591.04,433.7L592.13,436.84L600.41,439.26L609.11,438L618.4,438.63L621.18,445.05L618.66,449.53L610.67,451.1L604.85,456.05L597.05,457.02L592.6,458.96L590.32,463.55L589.24,473.7L581.68,480.23L575.67,478.53L570.76,481.56L562.11,489.15L555.96,487.65L548.79,493.37L541.9,495.46L540.5,503.29L534.14,504.25L531.22,507.45L529.82,513.92L524.19,514L527.42,508.85L527.54,503.65L525.74,501.23L516.97,500.99L510.97,504.01L506.53,509.21L500.89,511.38L491.88,511.02L483.27,503.35L481.68,502.93L467.64,489.95L466.19,484.55L465.35,474.64L463.43,472.71L458.25,458.74L457.73,453.03L454.37,447.72L455.57,442.28L450.19,437.82L448.48,434.78L441.42,428.6L438.42,428.5L435.66,422.82L426.78,422.34L425.1,421.37L442.75,405.78L451.15,397.68L450.91,394.78L444.55,391.03L444.07,384.75L439.38,383.06L436.5,380.52L433.5,372.13L434.58,368.27L428.49,363.48L427.64,360.67L428.7,353.76L425.94,349.65L425.46,343.61L427.02,341.31L427.14,327.9L428.7,325.48L426.64,321.91L427.02,314L434.34,308.56L435.9,306.15L436.26,295.1L443.71,285.43L443.2,277.71L455,281.1L455.96,287.54L454.2,293.34L454.84,297.53L460.6,298.98L467.8,297.53L479.01,296.89L483.65,294.47L490.05,288.35L492.61,288.02L494.53,295.76L499.34,293.66L505.58,292.38L510.38,286.41L512.94,280.45L519.19,278.68L523.19,281.42L521.27,289.96L521.43,294.63L526.07,297.53L530.07,293.5L535.67,293.5L539.03,295.92L536.96,298.82L542.56,304.78L540.8,309.78L543.67,311.87L542.72,314.93L536.79,316.22L539.83,326.7L544.15,334.27L549.76,342.33L556.96,346.2L563.52,346.68L565.28,353.28Z" class="land" id="VE-Z" title="Amazonas"/>
  </g>
</svg>