<?xml version="1.0" encoding="UTF-8"?>
<svg xmlns="http://www.w3.org/2000/svg" width="416.29" height="399.63" viewBox="271.85 57.19 416.29 399.63" style="background-color:#000000">
  <!-- Created using SVG Map Generator: dojo.amcharts.com/svg-map-generator -->
  <style>
    .land { fill: #ffffff; stroke: #000000; stroke-width: 0.65; }
  </style>
  <g id="polygons">
    <path d="M490.96,113.49L490.1,138.43L490.17,159.51L490.08,175.15L489.83,189.64L490.38,202.21L487.97,210.2L486.1,211.85L486.98,214.69L483.72,215.46L479.8,218.98L477.72,219.78L472.87,220.17L466.9,221.27L463.21,219.59L453.48,220.66L444.68,226.53L441.25,232.05L439.65,232.07L437.29,230.68L436.42,228.22L427.43,227.16L426.64,223.34L429.03,221.72L431.53,217.37L435.43,217.16L438.9,213.26L441.68,212.22L441.99,207.74L440.1,205.82L433.54,205.48L432.63,201.45L430.87,200.65L428.23,195.5L428.26,188.46L426.84,187.49L429.82,181.41L429.12,178.98L426.35,175.78L425.09,175.33L418.92,177.87L414.83,175.01L412.69,171.86L415.83,165.99L414.22,163.51L414.78,156.96L419.49,157.1L419.47,154.64L417.54,154.03L416.14,152.06L413.96,152.26L413.89,149.29L411.92,149L407.39,146.03L404.48,142.91L401,140.99L396.03,140.94L394.58,138.79L390.51,135.51L387.88,132.26L385.43,123.79L382.37,122.42L376.02,120.5L371.27,120.46L368.94,117.24L366.62,115.73L361.89,115.01L354.84,115.98L351.26,114.62L349.94,108.88L343.91,106.07L341.87,104.22L339.63,98.79L335.07,91.65L335.8,90.39L339.85,88.9L342.04,86.49L343.95,82.07L346.89,82.03L349.37,81.06L351.31,83.48L354.78,84.91L356.14,77.3L362.56,80.64L389.2,90.3L398.33,94.13L412.93,85.52L426.8,76.95L435.75,82.05L440.09,80.61L441.32,82.89L447.99,85.42L450.36,86.74L454.48,91.27L457.93,92.45L461.21,90.18L463.72,89.57L465.54,87.74L467.86,90.15L466.96,92.76L470.09,97.65L472.6,97.77L475.25,100.68L479.33,101.49L482.29,103.11L483.33,107.14L482.03,111.47L488.59,113.74Z" class="land" id="CR-A" title="Alajuela"/>
    <path d="M517.02,192.47L536.66,203.16L545,206.7L557.5,212.68L577.86,212.79L594.07,212.68L591.69,214.6L591.12,217.33L589.4,217.68L589.98,222.95L590.88,225.08L590.68,228.76L591.62,231.23L589.3,233.86L580.34,246.19L579.46,251.85L567.87,262.32L569.54,265.88L569.55,269.29L570.59,273.05L567.88,271.78L563.88,268.37L559.87,267.1L555.57,264.61L554.13,262.9L551.28,262.54L547.71,265.95L546.19,265.21L543.66,265.84L541.67,264.1L538.95,263.47L537.66,260.13L531.19,257.94L529.61,256.76L528.41,251.74L523.42,251.06L520.47,249.76L516.39,246.93L516.45,243.81L513.36,242.45L510.76,237.17L506.59,239.55L502.92,240.13L499.62,239.34L499.99,236.46L503.01,235.15L506.67,232.63L510.47,225.95L509.87,224.25L506.65,224.5L506.82,222.66L510.16,219.56L511.13,217.16L520.42,216.37L522.73,214.15L524.74,214.89L526.92,214.19L526.19,207.07L523.37,203.42L519.48,201.29L518.08,195.16Z" class="land" id="CR-C" title="Cartago"/>
    <path d="M356.14,77.3L354.78,84.91L351.31,83.48L349.37,81.06L346.89,82.03L343.95,82.07L342.04,86.49L339.85,88.9L335.8,90.39L335.07,91.65L339.63,98.79L341.87,104.22L343.91,106.07L349.94,108.88L351.26,114.62L354.84,115.98L361.89,115.01L366.62,115.73L368.94,117.24L371.27,120.46L376.02,120.5L382.37,122.42L385.43,123.79L387.88,132.26L390.51,135.51L394.58,138.79L396.03,140.94L401,140.99L404.48,142.91L407.39,146.03L411.92,149L413.89,149.29L413.96,152.26L410.48,152.88L405.81,147.68L401.39,144.67L399.68,142.59L392.5,142.34L389.9,143.01L395.39,147.63L397.87,147L401.45,149.73L405.04,150.57L406.8,151.82L407.06,154.32L409.87,154.75L414.78,156.96L414.22,163.51L415.83,165.99L412.69,171.86L410.65,170.16L407.87,169.34L405.68,170.37L403.69,173.12L402.85,177.56L400.72,183.29L401.39,187.74L398.9,188.36L396.24,190.82L396.7,193.26L395.16,196.07L393.54,196.1L390.89,194.5L384.44,191.92L381.6,190.36L379.25,190.43L379.66,194.95L377.28,192.92L377.44,191.13L373.74,189.65L370.23,191.61L366.7,190.3L362.04,189.37L360.07,187.74L359.1,184.91L359.69,182.89L357.66,181.83L357.81,189.34L357.17,190.42L358.03,193.73L357.92,198.1L360.88,200.87L363.59,202.01L366.24,205.55L367.7,209.08L366.13,213.12L364.7,214.58L353.3,216.86L351.36,218.73L352.69,221.59L360.51,223.5L363.33,228.6L365.99,228.97L363.49,234.62L363.95,237.88L362.52,241.05L359.13,244.78L354.5,241.59L354.24,238.28L349.81,235.05L347.1,234.39L343.3,231.23L334.49,228.77L331.61,228.8L330.38,230.1L327.5,227.73L325.15,228.69L323.8,226.62L317.94,226.85L314.76,225.19L310.97,225.25L308.85,223.29L305.65,223.4L306.19,220.39L304.16,216.13L301.37,212.24L296.55,207.47L295.78,205.21L291.34,199.99L289.69,194.16L287.43,189.21L285.5,186.56L285.31,183.45L283.9,180.29L283.48,175.33L285.57,173.07L282.99,168.74L281.02,167.43L283.98,165.61L286,161.73L290.03,160.45L290.74,157.94L292.88,155.62L292.34,152.59L290.4,151.01L290.21,148.8L292.86,144.06L296.17,145.6L301.05,142.02L302.49,139.99L307.73,137.73L308.49,135.91L310.75,134.19L310.36,132.33L307.95,131.48L305.27,132.71L305.77,129.59L308.07,127.73L306.51,121.64L307.34,116.58L303.99,111.78L296.05,110.38L294.48,111.93L290.63,110.46L291.36,107.77L290.69,105.77L288.16,106.14L283.36,105.4L282.47,103.18L274.5,99.64L279.67,97.81L282.42,95.43L281.66,93.54L287.56,94.25L288.11,97.25L290.07,98.42L291.83,95.17L299.24,95.46L301.84,94.28L303.62,90.63L299.51,86.62L295.44,84.04L297.7,81.42L300.28,83.17L302.95,83.68L305.37,82.52L305.63,79.34L302.53,77.63L307.11,69.62L313.35,59.84L319.59,60.91L324.24,66.6L337.18,71.38L344.14,71.34Z" class="land" id="CR-G" title="Guanacaste"/>
    <path d="M539.39,115.41L541.28,116.29L540.71,118.76L545.09,122.59L545.82,124.3L538.45,124.16L536.98,125.58L534.12,126L531.81,129.16L530.04,129.06L529.13,131.02L528.85,134.82L530.32,137.25L528.76,140.86L528.71,143.32L531.09,150.16L530.58,154.19L527.28,155.1L525.01,158.44L524.69,160.24L525.84,163.52L527.63,165.89L528.44,172.91L526.15,177.14L525.2,180.33L521.51,185.64L519.17,187.27L513.27,191.3L512.19,192.72L512.08,198.56L511.06,199.89L507.42,200.36L506.5,203.29L508.72,206.76L507.76,210.47L506.18,212.31L502.36,214.23L495.98,215.52L493.58,214.92L491.35,215.69L486.98,214.69L486.1,211.85L487.97,210.2L490.38,202.21L489.83,189.64L490.08,175.15L490.17,159.51L490.1,138.43L490.96,113.49L493.72,113.23L494.51,115.47L498.21,115.07L502.14,116.04L503.06,114.3L505.27,114.76L506.92,113.03L508.99,116.18L512.84,118.39L513.85,120.5L516.91,121.39L517.8,123.09L522.04,121.56L526.24,121.86L530.51,118.35L532.53,118.52L535.3,115.63Z" class="land" id="CR-H" title="Heredia"/>
    <path d="M640.65,325.77L637.72,326.28L634.79,322.57L633.53,315.48L631.79,314.53L625.48,313.18L625.67,310.49L624.15,307.41L623.93,303.49L614.74,299.39L612.08,295.64L610.24,294.02L605.77,294.76L603.73,294.31L601.1,291.37L598.07,290.78L594.9,287.86L592.43,286.56L590.22,288.02L589.41,291.01L586.98,290.83L583.83,292.73L582.39,290.06L580.2,289.22L577.32,287.13L573.46,278.73L572.63,274.88L570.59,273.05L569.55,269.29L569.54,265.88L567.87,262.32L579.46,251.85L580.34,246.19L589.3,233.86L591.62,231.23L590.68,228.76L590.88,225.08L589.98,222.95L589.4,217.68L591.12,217.33L591.69,214.6L594.07,212.68L577.86,212.79L557.5,212.68L545,206.7L536.66,203.16L517.02,192.47L519.17,187.27L521.51,185.64L525.2,180.33L526.15,177.14L528.44,172.91L527.63,165.89L525.84,163.52L524.69,160.24L525.01,158.44L527.28,155.1L530.58,154.19L531.09,150.16L528.71,143.32L528.76,140.86L530.32,137.25L528.85,134.82L529.13,131.02L530.04,129.06L531.81,129.16L534.12,126L536.98,125.58L538.45,124.16L545.82,124.3L545.09,122.59L540.71,118.76L541.28,116.29L539.39,115.41L544.32,113.03L546.14,113.43L549.32,112.47L550.95,109.18L549.8,105.83L550.17,102.03L548.92,99.76L549.98,95.3L554.6,99.99L557.5,105.57L559.83,113.39L557.47,113.77L556.14,109.17L554.19,108.92L556.51,116L556.37,118.49L558.71,119.11L560.33,117.24L563.99,128.1L568.03,137.28L572.5,148.55L579.78,161.38L585.26,169.22L588.3,172.27L593.33,178.69L596.27,183.05L598.15,184.37L610.26,199.99L612.27,201.91L618.13,209.97L620.68,211.59L624.26,209.91L628.26,211.64L627.94,214.69L630.49,219.18L632.78,221.45L635.18,225.08L640.72,231.97L643.02,235.52L648.53,242.46L650.66,243.92L654.24,244.76L656.89,251.62L658.94,253.85L662.6,254.12L665.07,255.51L672.69,256.8L674.17,256.15L677.45,256.58L678.08,258.73L680.54,262.02L685.5,264.72L680.39,266.35L681.09,269.06L679.56,272.74L675.59,273.46L673.98,271.44L669.52,271.94L668.06,269.32L664.75,266.15L663.23,263.35L660.61,262.7L657.51,260.33L655.3,261.19L652.2,258.6L650,258.72L646.93,261.87L646.29,266.57L647.9,268.11L647.46,270.09L649.45,270.98L651.06,273.36L641.38,275.57L639.75,276.32L639.65,291.56L639.91,293.28L639.92,322.07Z" class="land" id="CR-L" title="Limón"/>
    <path d="M413.96,152.26L416.14,152.06L417.54,154.03L419.47,154.64L419.49,157.1L414.78,156.96L409.87,154.75L407.06,154.32L406.8,151.82L405.04,150.57L401.45,149.73L397.87,147L395.39,147.63L389.9,143.01L392.5,142.34L399.68,142.59L401.39,144.67L405.81,147.68L410.48,152.88Z" class="land" id="CR-LA" title="Lake Arenal"/>
    <path d="M412.69,171.86L414.83,175.01L418.92,177.87L425.09,175.33L426.35,175.78L429.12,178.98L429.82,181.41L426.84,187.49L428.26,188.46L428.23,195.5L430.87,200.65L432.63,201.45L433.54,205.48L440.1,205.82L441.99,207.74L441.68,212.22L438.9,213.26L435.43,217.16L431.53,217.37L429.03,221.72L426.64,223.34L427.43,227.16L436.42,228.22L437.29,230.68L439.65,232.07L438.29,235.16L440.39,235.1L441.4,237.93L443.94,239.21L441.7,241.21L437.91,241.6L437.57,245.26L438.56,248.17L438.87,252.73L441.75,255.85L442.42,260.38L444.09,262.41L447.22,263.44L455.34,262.62L457.18,265.39L461.71,259.55L460.68,257.09L461.6,255.53L464.44,255.94L470.41,255.52L472.51,253.98L475.39,255.79L478.81,257.01L482.49,256.87L485.14,258.24L489.01,256.87L491.63,257.14L493.27,259.1L492.82,262.98L495.65,265.65L498.06,264.62L500.73,265.74L500.62,272.5L502.77,273.38L504.44,275.97L509,278.89L510.15,281.84L512.02,281.42L513.16,284.28L515.54,286.45L517.81,286.01L519.56,283.73L521.52,284.17L523.36,289.39L526.41,292.16L529.19,292.87L527.9,295.69L528.29,301.92L531.6,304.69L535.72,306.81L538.89,307.35L541.64,304.01L545.73,306.91L550.82,316.5L556.07,318.59L558.1,321.39L563.87,323.79L565.49,325.01L568.09,324.72L571.27,322.71L572.23,318.15L574.02,316.32L575.02,313.61L574.1,310.82L571.52,310.85L568.53,309L570.04,306.25L570.13,302.8L573.79,299.06L575.6,295.22L580.2,289.22L582.39,290.06L583.83,292.73L586.98,290.83L589.41,291.01L590.22,288.02L592.43,286.56L594.9,287.86L598.07,290.78L601.1,291.37L603.73,294.31L605.77,294.76L610.24,294.02L612.08,295.64L614.74,299.39L623.93,303.49L624.15,307.41L625.67,310.49L625.48,313.18L631.79,314.53L633.53,315.48L634.79,322.57L637.72,326.28L640.65,325.77L644.45,323.98L645.97,324.1L648.18,327.78L654.57,331.81L656.46,333.91L661.02,335.07L663.69,337.19L664.56,339.95L666.99,342.1L666.86,344.15L663.17,346.13L660.27,349.89L655.92,350.78L654.3,352.16L650.15,352.95L646.8,355.57L648.07,360.05L642.99,363.42L642.25,366.43L644.76,370.5L648.33,372.79L650.19,376.9L653.16,381.03L652.25,382.87L653.58,387.75L651.87,391.01L652.48,395.97L651.92,398.51L649.36,402.93L644.33,405.09L640.9,404.77L635.41,410.93L632.95,413.14L626.01,416.5L626.78,419.5L629.04,420.2L633.31,424.22L635.52,423.64L639.73,425.14L640.72,428.62L640.5,432.37L643.38,434.51L643.29,439.12L645.42,444.7L645.53,448.41L644.6,454.16L641.95,451.45L643.32,448.9L643.44,445.08L641.03,441.07L639.21,435.83L634.86,429.36L632.57,427.12L630.25,426.17L623.82,421.23L617.73,417.72L614.87,415.23L613.79,412.23L614.5,410.01L618.53,406.73L620.05,402.56L617.75,398.63L614.34,394.72L615.31,391.31L612.76,389.05L609.79,385L610.59,382.14L612.62,384.11L612.01,386.83L614.95,386.11L614.56,384.14L612.18,381.15L609.71,382.09L605.93,381.44L604.88,380.08L601.27,379.99L600.65,378.08L597.54,377.66L595.95,378.39L594.34,376.37L591.32,374.79L591.23,369.91L585.8,368.12L582.21,368.39L579.95,370.68L574.57,369.63L574.18,372.85L578.07,376.78L578.99,378.52L578.64,381.22L582.74,385.48L586.37,387.81L588.03,387.57L591.37,388.81L594.06,391.84L596.91,392.77L596.24,397.77L598.77,400.88L596.94,403.14L598.46,406.12L597.46,408.8L597.88,410.7L596.1,412.6L585.32,408.44L578.46,405.09L572.64,403.92L568.47,403.8L562.77,404.35L559.73,402.12L556.9,398.24L554.3,396.72L545.6,387.28L543.12,387.18L541.26,383.35L542.41,380.28L544.18,378.7L544.77,375.38L547.36,373.8L552.05,372.8L554.04,362.87L552.43,361.14L555.49,357.85L559.78,354.93L561.28,355.7L563.42,353.03L561.91,351.95L559.82,352.72L557.72,351.61L555.31,351.62L556.24,348.43L559.1,348.16L556.85,345.51L557.29,340.75L555.63,335.49L556.17,333.08L555.35,329.52L548.59,325.15L544.48,319.55L541.19,316.63L538.51,315.49L538.43,313.59L536.6,311.6L529.94,308.4L526.31,304.28L521.89,300.77L512.12,295.05L504.22,291.81L499.34,289.37L494.08,287.78L491.81,288.49L489.58,284.98L488.51,281.27L485.19,278.26L483.84,279.24L478.82,276.61L458.86,271.98L451.64,269.81L444.53,270.94L442.12,268.03L439.55,266.89L434.68,263.5L433.85,261.04L431.48,258.33L429.34,257.56L429.86,255.64L427.75,253.39L427.35,249.29L429.28,246.26L432.11,243.67L432.83,241.67L432.2,238.55L424.03,227.91L420.69,225.22L422.79,221.82L419.91,219.19L418.99,215.68L415.01,214.91L406.28,215.49L405.85,212.95L398.09,207.62L396.09,206.91L394.47,204.43L391.5,203.71L391.64,200.58L388.04,199.26L385.01,196.05L381.48,194.37L379.66,194.95L379.25,190.43L381.6,190.36L384.44,191.92L390.89,194.5L393.54,196.1L395.16,196.07L396.7,193.26L396.24,190.82L398.9,188.36L401.39,187.74L400.72,183.29L402.85,177.56L403.69,173.12L405.68,170.37L407.87,169.34L410.65,170.16ZM369.22,197.11L373.4,197.98L372.25,199.43L374.95,201.41L372.67,202.37L367.52,202.66L364.76,200.6L364.12,198.23L366.58,196.28ZM359.13,244.78L362.52,241.05L363.95,237.88L363.49,234.62L365.99,228.97L363.33,228.6L360.51,223.5L352.69,221.59L351.36,218.73L353.3,216.86L364.7,214.58L366.13,213.12L367.7,209.08L373.69,214.44L376.68,214.55L378.97,215.95L380.99,214.64L383.95,216.46L386.18,219.25L392.38,219.09L396.98,221.11L397.69,223.49L395.69,225.38L397.73,229.88L396.58,231.93L398.35,233.04L400.54,232.29L403.93,232.88L402.09,234.91L400,235.37L397.3,238.44L395.54,241.47L393.67,241.48L392.58,245.4L388.55,243.07L385.88,245.15L385.81,246.8L387.91,248.31L386.25,250.08L383.67,250.93L379.41,254.73L376.25,264.55L373.47,265.23L371.48,264.49L370.02,262.52L369.74,258.93L362.98,251.81L360.75,246.76Z" class="land" id="CR-P" title="Puntarenas"/>
    <path d="M517.02,192.47L518.08,195.16L519.48,201.29L523.37,203.42L526.19,207.07L526.92,214.19L524.74,214.89L522.73,214.15L520.42,216.37L511.13,217.16L510.16,219.56L506.82,222.66L506.65,224.5L509.87,224.25L510.47,225.95L506.67,232.63L503.01,235.15L499.99,236.46L499.62,239.34L502.92,240.13L506.59,239.55L510.76,237.17L513.36,242.45L516.45,243.81L516.39,246.93L520.47,249.76L523.42,251.06L528.41,251.74L529.61,256.76L531.19,257.94L537.66,260.13L538.95,263.47L541.67,264.1L543.66,265.84L546.19,265.21L547.71,265.95L551.28,262.54L554.13,262.9L555.57,264.61L559.87,267.1L563.88,268.37L567.88,271.78L570.59,273.05L572.63,274.88L573.46,278.73L577.32,287.13L580.2,289.22L575.6,295.22L573.79,299.06L570.13,302.8L570.04,306.25L568.53,309L571.52,310.85L574.1,310.82L575.02,313.61L574.02,316.32L572.23,318.15L571.27,322.71L568.09,324.72L565.49,325.01L563.87,323.79L558.1,321.39L556.07,318.59L550.82,316.5L545.73,306.91L541.64,304.01L538.89,307.35L535.72,306.81L531.6,304.69L528.29,301.92L527.9,295.69L529.19,292.87L526.41,292.16L523.36,289.39L521.52,284.17L519.56,283.73L517.81,286.01L515.54,286.45L513.16,284.28L512.02,281.42L510.15,281.84L509,278.89L504.44,275.97L502.77,273.38L500.62,272.5L500.73,265.74L498.06,264.62L495.65,265.65L492.82,262.98L493.27,259.1L491.63,257.14L489.01,256.87L485.14,258.24L482.49,256.87L478.81,257.01L475.39,255.79L472.51,253.98L470.41,255.52L464.44,255.94L461.6,255.53L460.68,257.09L461.71,259.55L457.18,265.39L455.34,262.62L447.22,263.44L444.09,262.41L442.42,260.38L441.75,255.85L438.87,252.73L438.56,248.17L437.57,245.26L437.91,241.6L441.7,241.21L443.94,239.21L441.4,237.93L440.39,235.1L438.29,235.16L439.65,232.07L441.25,232.05L444.68,226.53L453.48,220.66L463.21,219.59L466.9,221.27L472.87,220.17L477.72,219.78L479.8,218.98L483.72,215.46L486.98,214.69L491.35,215.69L493.58,214.92L495.98,215.52L502.36,214.23L506.18,212.31L507.76,210.47L508.72,206.76L506.5,203.29L507.42,200.36L511.06,199.89L512.08,198.56L512.19,192.72L513.27,191.3L519.17,187.27Z" class="land" id="CR-SJ" title="San José"/>
  </g>
</svg>