<?xml version="1.0" encoding="UTF-8"?>
<svg xmlns="http://www.w3.org/2000/svg" width="576.53" height="399.63" viewBox="191.74 57.19 576.53 399.63" style="background-color:#000000">
  <!-- Created using SVG Map Generator: dojo.amcharts.com/svg-map-generator -->
  <style>
    .land { fill: #ffffff; stroke: #000000; stroke-width: 0.65; }
  </style>
  <g id="polygons">
    <path d="M506.92,308.88L508.76,305.42L508.67,301.39L504.06,297.45L505.98,290.8L508.95,290.6L510.29,294.02L513.64,297.15L521.59,295.03L523.88,296.55L522.76,302.11L516.78,304.25L515.17,306.46Z" class="land" id="DO-01" title="Distrito Nacional"/>
    <path d="M364.72,216.05L369.19,213.56L372.83,217.23L371.98,221.98L374.78,224.81L372.81,227.04L373.09,234.06L375.61,237.14L376.25,240.97L380.89,244.18L385.09,250.36L392.37,251.29L395.87,254.29L396.82,257.19L396.25,265.61L394.59,267.5L400.17,273.13L400.45,277.89L398.5,280.96L405.48,286.58L408.82,292.48L417.76,295.05L419.99,298.13L423.9,298.72L423.9,302.34L429.1,310.94L430.32,315.24L427.26,319.42L427.8,327.52L426.13,331.42L419.7,333.34L412.76,334.34L411.4,332.02L414.74,325.76L415.01,319.95L413.1,311.99L409.98,309.89L399.12,307.83L396.39,308.24L392.97,311.53L394.14,315.88L390.45,320.54L387.72,321.97L379.86,322.15L378.3,320.59L372.34,321.64L368.53,325.52L366.36,330.56L361.02,335.68L354.42,338.19L352.64,336.57L355.74,330.18L352.11,323.19L345.41,320.06L339.55,312.49L344.3,311.12L345.69,304.7L349.6,302.77L348.77,299.97L344.58,297.44L342.35,292.38L346.82,295.19L347.38,290.73L328.1,283.91L322.52,277.54L326.51,277.41L333.79,268.84L339.57,266.91L337.61,261.86L340.13,260.48L338.18,252.62L340.69,250.12L343.75,250.97L345.71,256.02L349.07,252.67L351.58,247.38L348.5,237.28L351.86,232.8L351.58,229.73L360.81,224.16L359.41,220.79L364.16,219.98Z" class="land" id="DO-02" title="Azua"/>
    <path d="M264.14,271.79L271.41,275.48L276.98,274.94L284.25,277.79L286.48,280.03L292.07,281.19L298.5,276.75L307.99,277.64L318.06,274.07L322.52,277.54L328.1,283.91L347.38,290.73L346.82,295.19L342.35,292.38L342.63,296.58L339.27,300.75L336.19,301.01L334.8,304.35L331.44,303.78L326.69,308.5L325.85,311.02L318.04,313.77L315.81,316.55L316.35,323.25L309.65,323.78L307.42,321.25L305.46,314.53L301.28,310.03L296.81,310.86L287.03,315.83L279.48,309.64L275.01,307.38L268.59,306.21L251,297.45L249.61,295.21L249.05,289.33L253.25,279.57L253.25,274.81L259.39,273.74Z" class="land" id="DO-03" title="Bahoruco"/>
    <path d="M342.35,292.38L344.58,297.44L348.77,299.97L349.6,302.77L345.69,304.7L344.3,311.12L339.55,312.49L345.41,320.06L352.11,323.19L355.74,330.18L352.64,336.57L348,329.64L340.46,326.68L338.16,327.04L331.77,332.75L331.3,338.87L334.72,343.08L339.11,353.26L336.46,360.98L332.87,367.64L326.18,374.31L326.23,377.5L322.05,380.88L319.98,384.99L312.81,394.97L303.71,402.59L304.32,399.62L302.53,392.85L298.82,388.19L293.29,392.08L290.36,388.4L284.79,383.72L281.47,383.72L280,381.21L280.55,375.95L284.79,375.58L287.75,371.68L287.75,366.64L285.17,362.37L289.59,360.82L285.17,356.92L281.81,356.55L282.26,351.55L285.9,349.05L292.89,349.92L290.65,342.37L286.47,334.26L290.65,327.58L295.12,330.96L305.18,332.4L311.88,330.49L316.35,323.25L315.81,316.55L318.04,313.77L325.85,311.02L326.69,308.5L331.44,303.78L334.8,304.35L336.19,301.01L339.27,300.75L342.63,296.58Z" class="land" id="DO-04" title="Barahona"/>
    <path d="M232.93,107.16L236.55,109.98L239.35,109.71L248.28,113.43L261.69,112.93L264.49,111.25L268.39,111.57L269.78,116.08L276.48,119.49L278.44,122.03L283.19,124.04L277.33,133L278.16,143.41L275.08,146.21L275.36,158.3L267.81,161.06L271.44,164.72L267.25,169.77L257.21,166.61L255.24,172.22L252.72,172.2L249.1,175.84L240.43,173.97L235.08,169.16L230.24,167.17L229.68,163.31L226.43,159.01L230.65,157.25L231.38,154.8L236.52,151.84L241.96,141.65L239.63,134.4L240.65,130.19L235.61,120.47L231.8,116.81L231.49,108.55Z" class="land" id="DO-05" title="Dajabón"/>
    <path d="M470.35,131.84L471.74,133.53L480.95,137.53L483.19,144.85L482.34,150.47L487.37,160.62L493.51,160.93L498.83,162.65L498.54,167.7L500.22,169.41L507.48,170.85L513.34,173.41L522.84,175.99L528.7,180.23L537.35,181.4L539.04,178.32L550.49,178.67L555.24,179.83L553,186.55L543.77,193.51L546.57,198.86L542.1,199.67L536.51,198.52L533.99,199.91L529.26,199.33L526.18,200.72L522.82,199.56L522.82,207.15L516.4,207.66L518.63,199.26L506.9,194.15L504.95,196.1L495.73,192.96L492.94,190.42L486.51,188.98L474.24,188.07L470.6,191.13L464.74,188.02L459.99,189.95L453.57,185.42L447.69,178.94L447.15,176.97L445.74,173.59L446.58,169.37L449.38,166.59L450.5,158.73L453.02,148.89L461.67,143.33L463.08,137.43L468.1,135.21L466.99,131.55Z" class="land" id="DO-06" title="Duarte"/>
    <path d="M271.44,164.72L277.87,166.72L280.11,172.93L285.97,177.45L296.57,182.56L295.46,183.68L294.62,191.26L292.39,195.46L286.79,197.39L280.65,193.43L273.67,193.09L270.87,197.29L271.16,200.67L264.44,213.81L259.14,212.38L256.06,214.04L250.19,221.31L251.6,225.8L249.08,229.98L251.58,231.96L252.14,240.92L250.47,244.27L252.97,248.78L258.56,251.88L256.89,256.63L259.39,260.86L265.27,262.29L266.38,266.22L264.14,271.79L255.21,270.06L252.13,268.66L243.19,268.87L229.51,266L223.18,265.97L226.16,262.11L233.33,259.34L235.69,245.79L235.19,234.12L228.44,228.87L226.1,222.07L217.7,218.43L213.84,222.28L211.51,218.25L216.34,215.03L222.41,213.79L231.22,205.61L234.71,204.83L237.94,196.93L241.74,194.02L246.14,193.69L248.35,189.06L247.18,184.11L250.3,179.15L249.1,175.84L252.72,172.2L255.24,172.22L257.21,166.61L267.25,169.77Z" class="land" id="DO-07" title="Elías Piña"/>
    <path d="M692.66,217.62L692.66,220.45L685.94,224.89L686.22,228.26L683.14,230.21L688.45,242.28L688.73,247.61L683.97,253.73L681.19,255.4L678.67,260.15L670.85,259.82L668.89,265.97L670.28,269.33L664.97,268.46L659.94,279.08L657.43,282.42L652.68,286.03L649.05,291.04L645.69,292.15L646.54,285.42L642.9,283.73L639.55,285.11L635.37,282.85L633.96,279.49L626.99,275.53L623.63,276.36L620.56,273.54L623.63,269.07L625.87,258.45L626.43,252.01L620.29,243.02L615,240.74L611.64,236.8L608.01,230.34L609.4,221.65L613.61,222.79L621.98,227.9L629.79,229.33L631.48,225.7L625.6,220.63L623.1,213.61L627.01,211.33L629.09,212.43L642.15,212.25L650.3,216.75L658.38,216.1L657.94,212.3L663.32,211.38L664.97,209L673.3,209.81L681.47,215.56L685.89,214.96Z" class="land" id="DO-08" title="El Seibo"/>
    <path d="M489.36,109.74L489.06,115.35L487.66,118.43L481.23,122.35L471.17,123.41L471.74,127.63L470.35,131.84L466.99,131.55L463.08,127.02L462.24,122.23L455.25,122.76L451.63,125.83L449.68,131.73L445.76,130.58L445.47,127.2L438.51,123.22L434.87,131.65L433.74,137.83L435.98,145.43L434.02,149.64L430.94,161.43L429.27,163.94L425.07,163.08L425.07,158.02L422.57,153.23L419.77,156.29L409.71,155.68L408.04,153.15L411.95,149.79L410.84,143.33L412.79,139.96L412.51,135.74L418.38,131.83L418.38,128.46L420.06,127.05L420.62,120.59L423.13,117.5L422.87,109.34L425.65,105.98L430.68,106.29L435.71,104.63L436.83,106.89L442.41,106.36L444.93,104.12L444.1,99.61L445.77,95.74L448.16,99.27L455.19,105.05L461.88,107.95L468.35,108.13L477.16,111.35L481.06,111.45Z" class="land" id="DO-09" title="Espaillat"/>
    <path d="M223.18,265.97L229.51,266L243.19,268.87L252.13,268.66L255.21,270.06L264.14,271.79L259.39,273.74L253.25,274.81L253.25,279.57L249.05,289.33L249.61,295.21L251,297.45L268.59,306.21L275.01,307.38L279.48,309.64L287.03,315.83L296.81,310.86L301.28,310.03L305.46,314.53L307.42,321.25L309.65,323.78L316.35,323.25L311.88,330.49L305.18,332.4L295.12,330.96L290.65,327.58L286.47,334.26L290.65,342.37L292.89,349.92L285.9,349.05L282.26,351.55L281.81,356.55L270.39,346.24L264.3,345.66L257.41,342.47L250.82,341.39L243.16,335.41L241.21,332.88L235.32,330.87L240.24,322.55L224.48,316.24L223.13,313.94L219.02,313.05L216.8,307.99L207.24,303.4L205.76,298.8L211.02,297.83L210.9,295.72L199.24,283.25L197.32,278.96L194.39,276.65L197.5,270.5L203.51,274.02L207.18,271.69L212.02,275.09L222.51,273.85Z" class="land" id="DO-10" title="Independencia"/>
    <path d="M675.39,313.05L676.97,310.2L677.25,304.34L683.69,293.46L683.13,287.04L678.94,284.22L674.19,274.68L670.28,269.33L668.89,265.97L670.85,259.82L678.67,260.15L681.19,255.4L683.97,253.73L688.73,247.61L688.45,242.28L683.14,230.21L686.22,228.26L685.94,224.89L692.66,220.45L692.66,217.62L699.78,220.74L707.15,225.83L709.23,228.59L730.67,250.26L735.45,252.48L740.52,257.01L743.7,258.02L748.04,263.61L755.85,270.26L757.15,269.43L762.71,273.18L765.61,277.17L764.44,285.13L759.76,291.82L753.71,302.66L747.04,308.8L746.04,319.45L743.77,322.23L739.91,323.47L729.24,320.04L723.51,316.24L720.21,320.04L722.43,324.24L718.39,331.05L716.14,336.86L716.4,343.44L706.11,344.49L699.44,343.13L694.09,332.06L689.23,323.65L685.72,321.05L684.59,317.39ZM696.44,346.22L705.89,350.66L711.11,350.3L714.75,352.8L721.21,352.07L725.03,354.23L727.37,358.06L724.34,359.42L715.65,357.52L708.72,360.16L698.17,356.46L693.78,350.43Z" class="land" id="DO-11" title="La Altagracia"/>
    <path d="M645.69,292.15L649.05,291.04L652.68,286.03L657.43,282.42L659.94,279.08L664.97,268.46L670.28,269.33L674.19,274.68L678.94,284.22L683.13,287.04L683.69,293.46L677.25,304.34L676.97,310.2L675.39,313.05L666.63,310.71L663.46,313.05L647.08,314.33L645.69,307.24L641.23,300.78Z" class="land" id="DO-12" title="La Romana"/>
    <path d="M408.04,153.15L409.71,155.68L419.77,156.29L422.57,153.23L425.07,158.02L425.07,163.08L429.27,163.94L430.94,161.43L432.34,166.77L434.57,168.74L439.04,177.48L447.15,176.97L447.69,178.94L453.57,185.42L459.99,189.95L457.75,193.03L450.77,193.54L448.25,196.9L444.9,198.01L442.66,202.2L442.66,198.55L436.24,195.71L430.93,201.86L424.51,201.26L421.15,204.32L423.66,214.43L423.66,218.65L419.46,220.58L414.99,226.72L410.53,229.22L408.57,233.41L414.43,239.88L416.1,244.09L420.57,249.16L420.57,255.05L410.51,263.4L410.51,266.74L402.68,266.15L394.59,267.5L396.25,265.61L396.82,257.19L395.87,254.29L392.37,251.29L385.09,250.36L380.89,244.18L376.25,240.97L375.61,237.14L373.09,234.06L372.81,227.04L374.78,224.81L371.98,221.98L372.83,217.23L369.19,213.56L364.72,216.05L360.81,209.87L361.92,208.47L360.81,201.74L364.72,202.04L367.8,198.4L370.31,198.7L375.91,195.64L377.02,192.28L382.61,191.47L388.75,187.87L390.44,181.7L396.29,184.25L398.81,182.31L397.14,169.93L387.37,165.95L386.81,161.16L392.12,158.96L396.03,159.26L397.15,156.46Z" class="land" id="DO-13" title="La Vega"/>
    <path d="M539.3,164.84L539.04,168.21L536.24,169.89L537.63,176.36L534.85,178.59L537.35,181.4L528.7,180.23L522.84,175.99L513.34,173.41L507.48,170.85L500.22,169.41L498.54,167.7L498.83,162.65L493.51,160.93L487.37,160.62L482.34,150.47L483.19,144.85L480.95,137.53L471.74,133.53L470.35,131.84L471.74,127.63L471.17,123.41L481.23,122.35L487.66,118.43L489.06,115.35L489.36,109.74L494.98,102.69L505.67,100.93L512.31,102.33L515.43,106.24L519.59,107.3L522.15,113.94L518.85,123.66L523.81,131.07L523.85,141.19L527.93,148.98L529.35,153.43L532.79,156.2L535.57,161.25Z" class="land" id="DO-14" title="María Trinidad Sánchez"/>
    <path d="M313.01,75.59L314.77,84.5L326.79,89.65L323.15,102.58L324.54,110.47L320.07,109.89L321.46,116.08L321.18,122.28L318.95,125.36L314.48,123.64L313.09,126.46L305.82,124.73L302.46,121.32L300.51,123.29L293.81,126.34L283.19,124.04L278.44,122.03L276.48,119.49L269.78,116.08L268.39,111.57L264.49,111.25L261.69,112.93L248.28,113.43L239.35,109.71L236.55,109.98L232.93,107.16L229.08,97.9L233.05,97.02L234.27,93.33L230.01,86.88L226.24,84.9L231.05,80.62L239.52,76.55L244.5,72.35L247.68,66.08L256.96,63.34L271.37,63.54L288.59,72.08L297.96,73.83L300.84,73.51L308.65,76.83Z" class="land" id="DO-15" title="Monte Cristi"/>
    <path d="M266.38,441.45L270.11,443.32L273.28,449.23L269.89,452.15L262.52,454.16L261.22,452.07ZM235.32,330.87L241.21,332.88L243.16,335.41L250.82,341.39L257.41,342.47L264.3,345.66L270.39,346.24L281.81,356.55L285.17,356.92L289.59,360.82L285.17,362.37L287.75,366.64L287.75,371.68L284.79,375.58L280.55,375.95L280,381.21L281.47,383.72L284.79,383.72L290.36,388.4L293.29,392.08L298.82,388.19L302.53,392.85L304.32,399.62L303.71,402.59L302.82,407.15L299.14,408.28L293.25,418.13L291.47,426.66L288.51,433.94L281.7,443.91L278.22,438.27L273.89,434.22L269.98,423.74L267.28,420.69L260.74,417.26L253.53,416.95L247.24,418.77L242.68,418.59L245.63,409.89L249.58,408.02L246.85,401.54L244.55,393.61L245.46,389L242.82,383.4L235.3,377.88L232.61,374.77L232.47,370.7L234.13,365.77L232.46,362.45L232.33,356.12L225.82,349.56L228.63,342.52Z" class="land" id="DO-16" title="Pedernales"/>
    <path d="M448.25,296.05L451.82,296.2L458.55,301.42L459.1,304.78L462.74,304.52L463.85,307.88L469.44,309.59L464.13,314.88L460.49,314.58L461.33,319.6L465.52,320.19L466.36,325.23L471.1,329.72L471.38,332.24L475.3,334.21L474.45,339.51L475.84,340.66L471.25,340.15L466.86,342.39L460.53,339.79L451.99,341.75L442.57,339.87L436.79,341.8L430.93,345.14L424.77,347.01L421.48,344.81L420.65,341.07L412.76,334.34L419.7,333.34L426.13,331.42L427.8,327.52L427.26,319.42L430.32,315.24L429.1,310.94L429.51,307.66L438.79,302.41L443.79,301.45Z" class="land" id="DO-17" title="Peravia"/>
    <path d="M445.77,95.74L444.1,99.61L444.93,104.12L442.41,106.36L436.83,106.89L435.71,104.63L430.68,106.29L425.65,105.98L422.87,109.34L423.13,117.5L420.62,120.59L420.06,127.05L418.38,128.46L410.84,125.03L404.7,123.87L403.59,120.77L405.26,114.87L404.7,112.35L393.26,106.36L394.09,113.69L392.42,116.77L388.22,118.43L383.2,115.03L377.05,109.36L375.94,110.49L368.95,107.92L359.17,106.44L348.57,97.1L342.69,97.91L339.35,96.49L338.24,93.1L330.98,91.64L326.79,89.65L314.77,84.5L313.01,75.59L314.63,70L320.06,72.99L321.37,71.28L327.18,72.26L335.24,67.93L334.99,65.1L338.11,62.01L343.83,59.84L349.3,59.94L356.33,63.99L358.33,62.3L362.63,64.41L371.36,63.67L375.17,67.96L377.17,67.93L383.37,75.62L387.37,75.35L394.18,80.57L400.82,84.2L402.29,86.15L412.15,89.13L416.92,87.52L422.34,89.18L424.12,84.98L433.93,84.54L441.44,89.65Z" class="land" id="DO-18" title="Puerto Plata"/>
    <path d="M430.94,161.43L434.02,149.64L435.98,145.43L433.74,137.83L434.87,131.65L438.51,123.22L445.47,127.2L445.76,130.58L449.68,131.73L451.63,125.83L455.25,122.76L462.24,122.23L463.08,127.02L466.99,131.55L468.1,135.21L463.08,137.43L461.67,143.33L453.02,148.89L450.5,158.73L449.38,166.59L446.58,169.37L445.74,173.59L447.15,176.97L439.04,177.48L434.57,168.74L432.34,166.77Z" class="land" id="DO-19" title="Hermanas Mirabal"/>
    <path d="M564.21,200.68L560.53,212.68L559.13,211L552.43,208.44L547.41,202.8L542.1,199.67L546.57,198.86L543.77,193.51L553,186.55L555.24,179.83L550.49,178.67L539.04,178.32L537.35,181.4L534.85,178.59L537.63,176.36L536.24,169.89L539.04,168.21L539.3,164.84L544.24,167.6L549.24,168.56L557.91,165.53L568.07,164.84L574.75,160L584,160.8L595.8,160.8L599.04,163.13L604.87,164.01L607.56,167.19L609.98,163.28L615.1,159.46L620.96,157.62L622.84,154.03L626.4,154.49L625.74,157.85L620.35,165.3L626.21,166.67L633.68,163.73L636.73,164.56L634.81,170.35L627.6,175.64L625.7,183.87L616.71,183.73L614.29,181.93L602.53,181.67L593.59,182.16L586.47,179.86L573.53,179.18L563.33,176.93L562.33,184.46L560.18,191.82L561.94,200.27Z" class="land" id="DO-20" title="Samaná"/>
    <path d="M464.71,246.9L470.3,253.65L473.92,254.22L477.83,258.45L476.44,261.8L478.95,265.46L479.5,271.05L478.94,280L484.25,288.98L485.08,293.74L490.67,294.06L492.62,295.47L494.29,302.74L499.33,303.89L501.56,301.39L502.75,309.19L495.42,318.22L490.51,327.86L486.78,330.1L480.41,340.56L475.84,340.66L474.45,339.51L475.3,334.21L471.38,332.24L471.1,329.72L466.36,325.23L465.52,320.19L461.33,319.6L460.49,314.58L464.13,314.88L469.44,309.59L463.85,307.88L462.74,304.52L459.1,304.78L458.55,301.42L451.82,296.2L448.25,296.05L444.51,289.99L446.46,283.58L446.82,276.8L444.86,273.6L446.82,268.71L447.36,263.61L449.27,260.35L451.85,262.23L457.16,257.49L456.61,252.16L459.96,249.11Z" class="land" id="DO-21" title="San Cristóbal"/>
    <path d="M296.57,182.56L298.81,185.67L303.28,184.84L307.2,186.28L311.67,186.02L314.45,188.28L323.4,190.86L327.85,194.81L328.41,201L330.65,203.25L339.58,206.67L340.71,210.04L343.77,211.18L348.8,207.28L353.55,207.29L360.81,209.87L364.72,216.05L364.16,219.98L359.41,220.79L360.81,224.16L351.58,229.73L351.86,232.8L348.5,237.28L351.58,247.38L349.07,252.67L345.71,256.02L343.75,250.97L340.69,250.12L338.18,252.62L340.13,260.48L337.61,261.86L339.57,266.91L333.79,268.84L326.51,277.41L322.52,277.54L318.06,274.07L307.99,277.64L298.5,276.75L292.07,281.19L286.48,280.03L284.25,277.79L276.98,274.94L271.41,275.48L264.14,271.79L266.38,266.22L265.27,262.29L259.39,260.86L256.89,256.63L258.56,251.88L252.97,248.78L250.47,244.27L252.14,240.92L251.58,231.96L249.08,229.98L251.6,225.8L250.19,221.31L256.06,214.04L259.14,212.38L264.44,213.81L271.16,200.67L270.87,197.29L273.67,193.09L280.65,193.43L286.79,197.39L292.39,195.46L294.62,191.26L295.46,183.68Z" class="land" id="DO-22" title="San Juan"/>
    <path d="M588.45,246.75L587.33,252.06L590.41,254.6L592.08,259.37L591.23,268.05L595.7,274.23L597.09,279L599.61,280.69L601.84,287.98L606.03,290.52L611.06,286.63L613.86,276.57L617.5,276.31L620.56,273.54L623.63,276.36L626.99,275.53L633.96,279.49L635.37,282.85L639.55,285.11L642.9,283.73L646.54,285.42L645.69,292.15L641.23,300.78L645.69,307.24L647.08,314.33L631.48,309.8L627.65,304.45L623.53,306.1L618.37,306.18L613.93,307.6L609.98,306L608.47,309.01L598.53,308.6L589.11,309.84L580.73,312.45L577.55,312.41L577.53,305.18L579.2,301.83L571.96,301.22L567.21,298.41L565.8,294.77L567.49,288.06L570,283.87L569.72,278.29L567.21,276.03L570.3,272.22L574.19,266.27L577,257.05L585.37,245.05Z" class="land" id="DO-23" title="San Pedro de Macorís"/>
    <path d="M459.99,189.95L464.74,188.02L470.6,191.13L474.24,188.07L486.51,188.98L492.94,190.42L495.73,192.96L504.95,196.1L506.9,194.15L518.63,199.26L516.4,207.66L513.6,213.26L515.28,216.63L514.99,220.84L512.48,226.99L508.29,232.85L505.5,232.55L501.31,229.45L493.76,232.21L491.53,230.52L485.39,232.44L483.16,236.35L472.53,235.74L468.97,238.13L466.08,231.89L452.14,220.2L452.14,217.67L446.57,215.41L446.29,208.1L442.66,202.2L444.9,198.01L448.25,196.9L450.77,193.54L457.75,193.03Z" class="land" id="DO-24" title="Sánchez Ramírez"/>
    <path d="M368.95,107.92L375.94,110.49L377.05,109.36L383.2,115.03L388.22,118.43L392.42,116.77L394.09,113.69L393.26,106.36L404.7,112.35L405.26,114.87L403.59,120.77L404.7,123.87L410.84,125.03L418.38,128.46L418.38,131.83L412.51,135.74L412.79,139.96L410.84,143.33L411.95,149.79L408.04,153.15L397.15,156.46L396.03,159.26L392.12,158.96L386.81,161.16L387.37,165.95L397.14,169.93L398.81,182.31L396.29,184.25L390.44,181.7L388.75,187.87L382.61,191.47L377.02,192.28L375.91,195.64L370.31,198.7L367.8,198.4L364.72,202.04L360.81,201.74L361.92,208.47L360.81,209.87L353.55,207.29L348.8,207.28L343.77,211.18L340.71,210.04L339.58,206.67L330.65,203.25L328.41,201L327.85,194.81L323.4,190.86L314.45,188.28L311.67,186.02L312.77,177.32L308.32,171.13L310.56,169.72L310.84,162.7L309.15,160.73L313.63,157.11L313.07,154.57L316.98,151.49L329.27,149.89L330.4,146.81L334.3,143.44L334.02,140.06L335.97,136.72L344.65,141.26L354.14,140.18L366.14,140.53L362.52,134.05L364.75,125.33L358.33,121.93L358.89,116.86L363.64,120.56L368.11,114.1Z" class="land" id="DO-25" title="Santiago"/>
    <path d="M283.19,124.04L293.81,126.34L300.51,123.29L302.46,121.32L305.82,124.73L313.09,126.46L314.48,123.64L318.95,125.36L320.34,133.24L325.93,134.68L329.55,136.95L335.97,136.72L334.02,140.06L334.3,143.44L330.4,146.81L329.27,149.89L316.98,151.49L313.07,154.57L313.63,157.11L309.15,160.73L310.84,162.7L310.56,169.72L308.32,171.13L312.77,177.32L311.67,186.02L307.2,186.28L303.28,184.84L298.81,185.67L296.57,182.56L285.97,177.45L280.11,172.93L277.87,166.72L271.44,164.72L267.81,161.06L275.36,158.3L275.08,146.21L278.16,143.41L277.33,133Z" class="land" id="DO-26" title="Santiago Rodríguez"/>
    <path d="M326.79,89.65L330.98,91.64L338.24,93.1L339.35,96.49L342.69,97.91L348.57,97.1L359.17,106.44L368.95,107.92L368.11,114.1L363.64,120.56L358.89,116.86L358.33,121.93L364.75,125.33L362.52,134.05L366.14,140.53L354.14,140.18L344.65,141.26L335.97,136.72L329.55,136.95L325.93,134.68L320.34,133.24L318.95,125.36L321.18,122.28L321.46,116.08L320.07,109.89L324.54,110.47L323.15,102.58Z" class="land" id="DO-27" title="Valverde"/>
    <path d="M420.57,249.16L416.1,244.09L414.43,239.88L408.57,233.41L410.53,229.22L414.99,226.72L419.46,220.58L423.66,218.65L423.66,214.43L421.15,204.32L424.51,201.26L430.93,201.86L436.24,195.71L442.66,198.55L442.66,202.2L446.29,208.1L446.57,215.41L452.14,217.67L452.14,220.2L466.08,231.89L468.97,238.13L465.27,240.74L464.71,246.9L459.96,249.11L456.61,252.16L457.16,257.49L451.85,262.23L449.27,260.35L441.52,255.73L432.59,257.64L426.16,253.4L423.93,250.3Z" class="land" id="DO-28" title="Monseñor Nouel"/>
    <path d="M542.1,199.67L547.41,202.8L552.43,208.44L559.13,211L560.53,212.68L561.93,214.93L566.39,216.37L573.1,220.61L575.05,222.86L593.76,232.78L601.03,232.82L599.9,236.45L593.48,240.35L588.45,246.75L585.37,245.05L577,257.05L574.19,266.27L570.3,272.22L563.72,269.84L554.55,273.98L546.54,274.23L543.19,276.74L541.79,281.2L536.76,284.81L534.8,276.97L531.46,276.11L524.48,264.04L520.57,263.45L517.49,265.39L509.95,262.84L510.23,265.92L505.48,269.81L500.45,269.22L497.65,270.88L494.03,267.5L485.94,266.89L481.19,259.03L477.83,258.45L473.92,254.22L470.3,253.65L464.71,246.9L465.27,240.74L468.97,238.13L472.53,235.74L483.16,236.35L485.39,232.44L491.53,230.52L493.76,232.21L501.31,229.45L505.5,232.55L508.29,232.85L512.48,226.99L514.99,220.84L515.28,216.63L513.6,213.26L516.4,207.66L522.82,207.15L522.82,199.56L526.18,200.72L529.26,199.33L533.99,199.91L536.51,198.52Z" class="land" id="DO-29" title="Monte Plata"/>
    <path d="M627.01,211.33L623.1,213.61L625.6,220.63L631.48,225.7L629.79,229.33L621.98,227.9L613.61,222.79L609.4,221.65L608.01,230.34L611.64,236.8L615,240.74L620.29,243.02L626.43,252.01L625.87,258.45L623.63,269.07L620.56,273.54L617.5,276.31L613.86,276.57L611.06,286.63L606.03,290.52L601.84,287.98L599.61,280.69L597.09,279L595.7,274.23L591.23,268.05L592.08,259.37L590.41,254.6L587.33,252.06L588.45,246.75L593.48,240.35L599.9,236.45L601.03,232.82L593.76,232.78L575.05,222.86L573.1,220.61L566.39,216.37L561.93,214.93L560.53,212.68L564.21,200.68L571.19,199.71L576.44,200.53L581.86,199.26L583.17,201.33L591.06,201.59L591.59,198.15L595.53,197.1L600.01,201L600.97,204.53L606.68,206.96L611.68,206.1L619.28,211.51L624.13,209.59Z" class="land" id="DO-30" title="Hato Mayor"/>
    <path d="M420.57,249.16L423.93,250.3L426.16,253.4L432.59,257.64L441.52,255.73L449.27,260.35L447.36,263.61L446.82,268.71L444.86,273.6L446.82,276.8L446.46,283.58L444.51,289.99L448.25,296.05L443.79,301.45L438.79,302.41L429.51,307.66L429.1,310.94L423.9,302.34L423.9,298.72L419.99,298.13L417.76,295.05L408.82,292.48L405.48,286.58L398.5,280.96L400.45,277.89L400.17,273.13L394.59,267.5L402.68,266.15L410.51,266.74L410.51,263.4L420.57,255.05Z" class="land" id="DO-31" title="San José de Ocoa"/>
    <path d="M477.83,258.45L481.19,259.03L485.94,266.89L494.03,267.5L497.65,270.88L500.45,269.22L505.48,269.81L510.23,265.92L509.95,262.84L517.49,265.39L520.57,263.45L524.48,264.04L531.46,276.11L534.8,276.97L536.76,284.81L541.79,281.2L543.19,276.74L546.54,274.23L554.55,273.98L563.72,269.84L570.3,272.22L567.21,276.03L569.72,278.29L570,283.87L567.49,288.06L565.8,294.77L567.21,298.41L571.96,301.22L579.2,301.83L577.53,305.18L577.55,312.41L574.49,311.53L567.46,305.41L561.3,306.74L562.3,312.04L560.74,313.1L555.61,311.45L553.57,305.49L545.07,302.89L530.35,301.8L522.76,302.11L523.88,296.55L521.59,295.03L513.64,297.15L510.29,294.02L508.95,290.6L505.98,290.8L504.06,297.45L508.67,301.39L508.76,305.42L506.92,308.88L502.75,309.19L501.56,301.39L499.33,303.89L494.29,302.74L492.62,295.47L490.67,294.06L485.08,293.74L484.25,288.98L478.94,280L479.5,271.05L478.95,265.46L476.44,261.8Z" class="land" id="DO-32" title="Santo Domingo"/>
  </g>
</svg>