<?xml version="1.0" encoding="UTF-8"?>
<svg xmlns="http://www.w3.org/2000/svg" width="722.89" height="399.63" viewBox="118.56 57.19 722.89 399.63" style="background-color:#000000">
  <!-- Created using SVG Map Generator: dojo.amcharts.com/svg-map-generator -->
  <style>
    .land { fill: #ffffff; stroke: #000000; stroke-width: 0.65; }
  </style>
  <g id="polygons">
    <path d="M602.87,290.34L608.37,291.86L615.59,291.46L619.32,296.4L624.06,300.48L628.88,302.15L632.49,300.38L635.98,300.69L637.25,307.69L636.81,314.33L638.43,319.26L634.09,320.96L634.74,326.47L633.2,330.86L637.9,333.81L638.91,348.54L635.39,353.53L635.8,358.88L630.68,359.34L630.03,366.09L634.82,366.85L637.13,374.46L635.74,377.74L636.42,383.64L635.21,387.62L643.11,394.04L643.76,398.85L653.85,399.79L659.12,399.15L661.28,406.11L661.19,410.98L656.01,413.38L653.35,416.51L655.3,425.66L661.9,424.81L664.83,422.98L661.69,418.58L663.35,409.82L667.34,407.18L671.87,410.67L679.91,410.16L678.05,415.93L681.42,415.78L686.16,422.04L681.51,426.05L680.71,428.76L684.06,431.59L687.75,429.37L698.88,430.73L700.83,435.2L711.48,449.91L699.15,449.27L687.31,450.46L685.45,452.13L669.17,450.27L658.88,448.45L643.85,447.66L645.15,443.35L642.19,441.43L636.69,444.71L635.3,448.51L627.07,450.27L621.48,450.21L617.87,447.51L614.82,442.77L618.37,436.87L613.11,428.67L607.1,423.96L606.87,421.4L606.13,420.73L603.58,420.58L601.93,421.16L601.6,425.96L599.23,429.52L592.63,429.85L584.91,419.79L574.32,417.94L570.95,416.42L563.97,416.36L559.76,414.41L557.22,420.58L550.89,419.88L549,420.98L544.17,419.31L540.3,424.11L549.41,427.48L554.35,428.24L560.03,423.2L565.45,423.11L570.3,420.98L575.21,423.01L585.59,435.17L593.55,441.34L601.84,442.25L605.48,445.38L605.89,448.42L596.1,444.96L579.74,441.49L565.12,437.88L542.52,433.56L530.18,432.22L520.24,429.09L519.14,426.39L513.76,424.59L509.56,421.31L511.21,417.97L515,416.84L520.68,413.23L527.04,407.39L530.95,401.1L534.82,399.51L532.16,393.89L531.98,390.27L536.57,380.84L541.15,373.94L544.41,365.24L547.84,361.22L548.08,354.5L551.04,342.24L550.42,338.37L552.66,335.03L556.04,334.75L562.46,323.79L568.2,322.06L574.65,321.69L578.64,320.08L580.42,315.36L583.23,313.29L584.29,309.27L593.2,300.57L601.16,297L603.76,292.47ZM582.69,419.46L589.85,427.39L588.2,429.43L582.37,424.72L580.56,421.25ZM604.65,420.83L606.45,421.25L606.87,424.96L613.35,431.37L607.84,434.08L606.78,431.46L604.29,429.88L600.03,429L602.37,425.17L602.1,421.34ZM599.29,430.04L601.45,432.13L604.41,430.28L606.36,431.98L607.37,436.36L601.45,435.35L595.77,436.17L590.03,433.99L590.92,431.46Z" class="land" id="SV-US" title="Usulután"/>
    <path d="M719.77,448.33L720.83,439.24L726.07,425.93L737.1,426.54L738.02,425.81L737.43,412.56L735.42,406.63L738.73,396.41L735.06,389.84L737.61,388.9L741.37,378.47L736.04,375.98L733.38,367.73L735.51,355.2L741.6,352.4L739.29,341.57L737.84,338.46L739.65,331.04L747.05,327.26L749.71,323.52L752.55,315.76L752.13,312.44L760.57,294.02L764.56,282.42L765.15,276.11L763.2,268.74L757.61,267.71L760.03,256.86L759.65,248.45L758.32,240.84L758.7,235.08L761.01,229.19L768.05,231.02L773.26,227.46L791.57,229.71L800.48,231.97L806.4,230.2L813.76,236.11L819.98,238.67L821.99,241.38L822.61,247.45L827.43,251.99L832.9,254.09L832.67,264.69L827.05,272.15L825.92,276.97L827.96,280.07L826.16,284.79L821.34,289.64L819.74,294.78L820.66,301.48L819.21,309.61L819.15,318.13L813.88,324.65L810.01,332.86L808.94,343L816.51,348.32L825.33,346.98L829.33,348.81L828.59,353.31L830.54,360.61L828.35,367.55L823.97,367.43L819.12,369.13L814.09,373.82L810.27,374.06L807.79,377.89L802.79,378.07L798.44,375.03L793.58,373.27L789.24,373.94L785.77,380.36L784.89,386.53L787.02,392.79L794.09,397.6L799.32,398.88L802.96,404.2L805.92,405.26L810.92,410.34L808.56,417.18L795.3,429.67L789.15,430.43L787.52,432.98L780.92,435.35L771.48,440.4L772.22,447.42L777.16,449.61L777.4,454.16L764.74,451.79L761.78,452.64L745.6,450.61ZM823.17,403.68L820.45,406.96L820.86,411.37L817.02,411.95L815.54,404.68L820.54,405.11ZM815.69,424.96L818.32,425.72L821.13,431.62L816.69,435.69L813.64,433.99L811.99,428.58ZM830.33,434.5L834.77,435.66L836.57,440.06L836.81,445.47L838.79,448.42L836.66,450.7L832.64,448.91L827.28,443.77L827.52,437.12Z" class="land" id="SV-UN" title="La Unión"/>
    <path d="M491.86,269.63L496.75,265L501.95,264.45L512.46,265.57L519.56,261.43L523.82,261.37L526.01,259.36L534.14,262.59L538.49,262.96L543.2,261.49L549.5,262.8L552.34,260.7L557.6,264.84L561.81,265.18L567.22,268.26L570.92,268.23L570.45,271.76L573.61,276.14L584.44,275.96L590.56,274.56L591.9,276.17L593.34,283.03L597.84,282.14L598.76,288.24L602.87,290.34L603.76,292.47L601.16,297L593.2,300.57L584.29,309.27L583.23,313.29L580.42,315.36L578.64,320.08L574.65,321.69L568.2,322.06L562.46,323.79L556.04,334.75L552.66,335.03L550.42,338.37L551.04,342.24L548.08,354.5L547.84,361.22L544.41,365.24L541.15,373.94L536.57,380.84L531.98,390.27L532.16,393.89L534.82,399.51L530.95,401.1L527.04,407.39L520.68,413.23L515,416.84L511.21,417.97L509.56,421.31L513.76,424.59L519.14,426.39L520.24,429.09L509.14,425.63L501.1,421.98L501.33,417.24L506.45,408.54L510.21,407.75L513.08,404.84L510.12,398.72L511.36,387.75L513.82,387.32L517.49,378.9L515.95,376.31L510.53,372.45L509.47,369.25L506.48,367.98L504.67,362.14L503.85,354.68L506.98,344.4L506.66,338.71L501.21,326.41L499.85,319.23L488.76,320.84L482.69,318.83L484.7,310.95L482.69,306.26L483.28,298.38L486.01,295.06L491.63,291.83L489.29,282.48L493.17,276.42Z" class="land" id="SV-SV" title="San Vicente"/>
    <path d="M371.57,185.26L377.22,183.31L379.05,181.11L384.23,182L387.01,183.95L390.8,182.7L395.38,179.13L399.82,186.54L403.46,185.87L405.06,182.91L409.56,181.05L406.15,187.64L407.72,194.59L407.25,199.84L404.91,206.42L401.74,210.11L407.66,221.18L408.79,224.8L416.45,230.9L411.24,235.56L407.4,237.03L409.44,243.43L417.07,245.41L419.67,251.62L423.64,257.53L431.95,259.18L432.4,262.74L436.33,268.65L438.58,274.77L444.7,287.38L450.21,289.7L453.88,286.96L454.97,293.63L449.14,296.37L450.18,299.44L448.19,304.1L441.27,309.21L433.85,306.23L432.25,308.03L427.69,306.47L420.68,315.79L409.32,316.64L406.74,317.68L408.4,324.01L411.83,328.36L412.99,335.79L410.27,339.71L410.44,343.12L406.69,348.05L405.06,352.8L400.06,352.86L398.87,358.15L391.51,355.99L391.8,351.67L384.76,338.62L387.19,332.16L387.72,327.63L385.03,322.82L385.41,315.94L388.55,310.83L383.46,309.82L383.16,305.59L386.98,300.69L384.11,298.86L380.95,290.18L371.71,286.62L372.16,282.91L375.15,279.74L374.44,277.33L370.44,276.69L375.59,260.94L374.91,256.56L377.28,251.77L381.36,236.26L382.01,228.68L383.9,224.23L386.66,222.34L386.39,215.75L379.7,214.65L374.08,212.22L375.74,209.35L373.28,204.5L368.43,203.28L365.86,198.92L368.55,189.29Z" class="land" id="SV-SS" title="San Salvador"/>
    <path d="M169.91,298.71L175.71,294.08L179.23,287.87L183.78,285.83L191.83,293.59L198.31,296.52L201.59,299.59L207.57,299.2L208.96,296.52L212.6,282.08L214.91,276.78L215.23,272.22L219.97,271L216.95,260.24L218.04,254.24L222.24,250.1L225.23,244.92L222.69,239.62L220.68,231.3L224.82,229.83L230.56,226.08L234.14,228.1L239.14,227.73L243.4,229.38L247.54,228.01L253.4,230.6L257.04,229.38L258.64,231.94L257.51,235.87L258.43,239.77L266.36,240.9L266.36,245.31L260.5,250.53L267.25,252.51L269.38,255.03L270.56,259.79L275.26,255.61L275.91,250.43L285.17,247.63L294.02,254.91L293.9,259.21L302.3,264.57L308.73,265.06L312.57,264.17L316.68,265.76L321.3,267.86L320,274.01L311.21,277.94L307.39,284.15L298.99,285.31L295.5,289.76L296.86,303.55L296.57,305.83L291.3,310.4L287.19,315.94L284.46,326.53L278.34,332.35L273.58,338.53L267.78,343.09L258.72,339.96L249.94,338.62L240.97,340.05L229.55,339.8L224.55,338.95L216.74,341.66L207.45,338.28L204.91,328.97L204.4,320.93L202.84,318.32L189.37,309.61Z" class="land" id="SV-SO" title="Sonsonate"/>
    <path d="M670.12,228.43L670.65,231.6L674,233.19L675.06,236.48L671.1,237.39L670.95,242.54L666.84,249.09L667.49,254.61L669.35,259.3L680.77,268.04L680.65,273.01L669,280.87L667.13,286.01L668.11,292.96L675.09,299.08L676.9,302.18L680.74,304.53L680.95,309.61L689.15,316.73L699.91,314.72L705.8,314.6L707.73,321.94L706.54,326.72L713.08,329.21L716.13,335.85L723.73,335.06L734.97,330.92L739.65,331.04L737.84,338.46L739.29,341.57L741.6,352.4L735.51,355.2L733.38,367.73L736.04,375.98L741.37,378.47L737.61,388.9L735.06,389.84L738.73,396.41L735.42,406.63L737.43,412.56L738.02,425.81L737.1,426.54L726.07,425.93L720.83,439.24L719.77,448.33L713.61,448.27L711.48,449.91L700.83,435.2L698.88,430.73L687.75,429.37L684.06,431.59L680.71,428.76L681.51,426.05L686.16,422.04L681.42,415.78L678.05,415.93L679.91,410.16L671.87,410.67L667.34,407.18L663.35,409.82L661.69,418.58L664.83,422.98L661.9,424.81L655.3,425.66L653.35,416.51L656.01,413.38L661.19,410.98L661.28,406.11L659.12,399.15L653.85,399.79L643.76,398.85L643.11,394.04L635.21,387.62L636.42,383.64L635.74,377.74L637.13,374.46L634.82,366.85L630.03,366.09L630.68,359.34L635.8,358.88L635.39,353.53L638.91,348.54L637.9,333.81L633.2,330.86L634.74,326.47L634.09,320.96L638.43,319.26L636.81,314.33L637.25,307.69L635.98,300.69L632.49,300.38L628.88,302.15L624.06,300.48L619.32,296.4L615.59,291.46L608.37,291.86L602.87,290.34L598.76,288.24L597.84,282.14L593.34,283.03L591.9,276.17L591.19,271.48L596.36,261.07L596.24,256.16L599.91,252.23L599.62,248.51L602.07,239.77L609.17,242.05L610.06,238.43L617.28,238.58L620.51,234.22L623.2,233.28L635.68,232.27L642.67,237.45L653.38,233.55Z" class="land" id="SV-SM" title="San Miguel"/>
    <path d="M347.51,67.84L348.49,68.3L360.71,81.46L364.44,87.39L376.15,95.88L377.96,98.32L376.06,101.44L375.68,107.39L372.99,111.45L372.93,117.19L366.54,122.59L362.48,121.77L356.92,123.91L359.08,130.71L357.75,134.4L358.9,137.98L358.1,142.95L355.62,144.78L344.14,146.31L343.02,150.33L336.36,156.89L332.75,157.53L330.53,161.32L332.51,166.96L325.59,174.28L325.26,186.15L331.09,188.98L338.34,189.13L337.16,193.68L339.02,197.73L334.67,203.28L336.18,209.99L326.62,218.37L323.87,218.68L319.76,222.06L317.1,226.57L316.57,230.29L318.78,237.15L318.61,242.57L319.97,246.75L318.49,254.67L313.9,257.93L316.51,262.28L316.68,265.76L312.57,264.17L308.73,265.06L302.3,264.57L293.9,259.21L294.02,254.91L285.17,247.63L275.91,250.43L275.26,255.61L270.56,259.79L269.38,255.03L267.25,252.51L260.5,250.53L266.36,245.31L266.36,240.9L258.43,239.77L257.51,235.87L258.64,231.94L257.04,229.38L253.4,230.6L247.54,228.01L243.4,229.38L239.14,227.73L234.14,228.1L239.17,222.64L241.92,210.6L246.51,204.26L246.98,198.31L245.59,196L239.7,192.89L238.1,187.12L233.07,186.12L233.22,178.09L231.89,176.36L235.06,169.71L238.9,158.21L241.42,153.54L255.65,140.78L264.23,135.38L268.72,134.74L275.5,135.72L283.31,134.8L297.66,127.9L298.37,124.91L294.79,115.3L291,110.08L292.39,105.99L287.42,99.36L281.12,98.35L278.13,99.63L279.58,91.3L283.16,90.84L285.85,85.8L282.57,82.9L281.65,75.57L283.37,68.18L293.04,67.87L295.62,74.16L294.35,77.77L298.9,77.92L308.07,68.7L313.16,65.58L325.44,70.8L332.69,64.27L334.35,60.26L338.28,59.84L340.32,65L344.52,68.33Z" class="land" id="SV-SA" title="Santa Ana"/>
    <path d="M483.28,298.38L482.69,306.26L484.7,310.95L482.69,318.83L488.76,320.84L499.85,319.23L501.21,326.41L506.66,338.71L506.98,344.4L503.85,354.68L504.67,362.14L506.48,367.98L509.47,369.25L510.53,372.45L515.95,376.31L517.49,378.9L513.82,387.32L511.36,387.75L510.12,398.72L513.08,404.84L510.21,407.75L506.45,408.54L501.33,417.24L501.1,421.98L489.82,415.17L489.44,412.28L483.52,405.02L478.31,404.87L481.86,411.86L469.2,405.02L452.78,397.51L434.94,390.57L428.28,386.53L405.38,373.7L408.19,366.97L410.74,363.81L411.51,357.42L404.7,357.72L405.06,352.8L406.69,348.05L410.44,343.12L410.27,339.71L412.99,335.79L411.83,328.36L408.4,324.01L406.74,317.68L409.32,316.64L420.68,315.79L427.69,306.47L432.25,308.03L433.85,306.23L441.27,309.21L448.19,304.1L450.18,299.44L457.01,301.18L467.72,308.09L471.12,305.35L472.49,301.12Z" class="land" id="SV-PA" title="La Paz"/>
    <path d="M761.01,229.19L758.7,235.08L758.32,240.84L759.65,248.45L760.03,256.86L757.61,267.71L763.2,268.74L765.15,276.11L764.56,282.42L760.57,294.02L752.13,312.44L752.55,315.76L749.71,323.52L747.05,327.26L739.65,331.04L734.97,330.92L723.73,335.06L716.13,335.85L713.08,329.21L706.54,326.72L707.73,321.94L705.8,314.6L699.91,314.72L689.15,316.73L680.95,309.61L680.74,304.53L676.9,302.18L675.09,299.08L668.11,292.96L667.13,286.01L669,280.87L680.65,273.01L680.77,268.04L669.35,259.3L667.49,254.61L666.84,249.09L670.95,242.54L671.1,237.39L675.06,236.48L674,233.19L670.65,231.6L670.12,228.43L671.75,227.7L683.46,217.55L683.05,211.18L684.5,202.06L689.88,201.18L691.01,202.95L696.16,203.1L697.04,204.84L708.35,203.71L714.68,200.81L719.65,202.52L727.13,203.01L727.22,208.92L742.58,231.05L744,236.57L759.44,227.67Z" class="land" id="SV-MO" title="Morazán"/>
    <path d="M338.34,189.13L342.9,189.07L344.94,183.19L350.15,182.73L356.68,177.94L361.95,178.22L362.6,182.76L367.96,181.82L371.57,185.26L368.55,189.29L365.86,198.92L368.43,203.28L373.28,204.5L375.74,209.35L374.08,212.22L379.7,214.65L386.39,215.75L386.66,222.34L383.9,224.23L382.01,228.68L381.36,236.26L377.28,251.77L374.91,256.56L375.59,260.94L370.44,276.69L374.44,277.33L375.15,279.74L372.16,282.91L371.71,286.62L380.95,290.18L384.11,298.86L386.98,300.69L383.16,305.59L383.46,309.82L388.55,310.83L385.41,315.94L385.03,322.82L387.72,327.63L387.19,332.16L384.76,338.62L391.8,351.67L391.51,355.99L398.87,358.15L400.06,352.86L405.06,352.8L404.7,357.72L411.51,357.42L410.74,363.81L408.19,366.97L405.38,373.7L391.3,366.58L387.6,364.05L365.74,354.5L361.54,353.07L356.12,352.89L355.06,354.59L342.07,351.4L328.02,350.36L325.94,351.4L312.72,348.93L309.61,349.78L302.69,349.02L295.38,350.7L290.47,348.26L271.62,345.22L267.78,343.09L273.58,338.53L278.34,332.35L284.46,326.53L287.19,315.94L291.3,310.4L296.57,305.83L296.86,303.55L295.5,289.76L298.99,285.31L307.39,284.15L311.21,277.94L320,274.01L321.3,267.86L316.68,265.76L316.51,262.28L313.9,257.93L318.49,254.67L319.97,246.75L318.61,242.57L318.78,237.15L316.57,230.29L317.1,226.57L319.76,222.06L323.87,218.68L326.62,218.37L336.18,209.99L334.67,203.28L339.02,197.73L337.16,193.68Z" class="land" id="SV-LI" title="La Libertad"/>
    <path d="M409.56,181.05L411.51,179.01L418.08,186.91L425.03,185.05L428.02,187.91L431.72,187.82L436.86,193.07L434.79,201.73L441.01,202.15L444.11,206.42L443.55,208.37L449.61,218.59L454.79,224.93L457.48,219.32L460.98,218.65L462.34,214.99L465.65,215.9L461.3,224.07L455.71,229.53L454.97,237.12L464.79,244.86L467.43,244.61L472.16,248.82L472.99,254.24L476.36,257.11L477.07,261.1L482.84,261.77L491.86,269.63L493.17,276.42L489.29,282.48L491.63,291.83L486.01,295.06L483.28,298.38L472.49,301.12L471.12,305.35L467.72,308.09L457.01,301.18L450.18,299.44L449.14,296.37L454.97,293.63L453.88,286.96L450.21,289.7L444.7,287.38L438.58,274.77L436.33,268.65L432.4,262.74L431.95,259.18L423.64,257.53L419.67,251.62L417.07,245.41L409.44,243.43L407.4,237.03L411.24,235.56L416.45,230.9L408.79,224.8L407.66,221.18L401.74,210.11L404.91,206.42L407.25,199.84L407.72,194.59L406.15,187.64Z" class="land" id="SV-CU" title="Cuscatlán"/>
    <path d="M545.65,192.73L545.27,193.98L533.02,197.92L526.27,198.62L520.18,204.08L513.25,208.19L504.67,209.53L502.31,212.55L495,212.31L489.76,217.18L480.62,218.34L475.59,217.55L473.61,215.51L468.73,219.35L465.65,215.9L462.34,214.99L460.98,218.65L457.48,219.32L454.79,224.93L449.61,218.59L443.55,208.37L444.11,206.42L441.01,202.15L434.79,201.73L436.86,193.07L431.72,187.82L428.02,187.91L425.03,185.05L418.08,186.91L411.51,179.01L409.56,181.05L405.06,182.91L403.46,185.87L399.82,186.54L395.38,179.13L390.8,182.7L387.01,183.95L384.23,182L379.05,181.11L377.22,183.31L371.57,185.26L367.96,181.82L362.6,182.76L361.95,178.22L356.68,177.94L350.15,182.73L344.94,183.19L342.9,189.07L338.34,189.13L331.09,188.98L325.26,186.15L325.59,174.28L332.51,166.96L330.53,161.32L332.75,157.53L336.36,156.89L343.02,150.33L344.14,146.31L355.62,144.78L358.1,142.95L358.9,137.98L357.75,134.4L359.08,130.71L356.92,123.91L362.48,121.77L366.54,122.59L372.93,117.19L372.99,111.45L375.68,107.39L376.06,101.44L377.96,98.32L376.15,95.88L364.44,87.39L360.71,81.46L348.49,68.3L347.51,67.84L347.81,67.41L353.34,72.36L363.08,77.31L374.7,80.36L385.06,81.04L390.12,83.48L399.2,91.63L405.71,93.53L414.85,93.22L423.96,90.78L442.22,99.15L444.35,107.85L443.25,112.89L454.23,119.94L458.93,127.69L457.78,130.19L464.32,134.56L478.43,134.28L481.39,137.79L491.39,142.03L494.97,151.52L498.99,158.24L504.62,170.93L506.98,172.42L515.33,172.06L522.37,170.47L525.98,171.11L530.18,175.2L534.88,182.79L543.4,191.42Z" class="land" id="SV-CH" title="Chalatenango"/>
    <path d="M602.07,239.77L599.62,248.51L599.91,252.23L596.24,256.16L596.36,261.07L591.19,271.48L591.9,276.17L590.56,274.56L584.44,275.96L573.61,276.14L570.45,271.76L570.92,268.23L567.22,268.26L561.81,265.18L557.6,264.84L552.34,260.7L549.5,262.8L543.2,261.49L538.49,262.96L534.14,262.59L526.01,259.36L523.82,261.37L519.56,261.43L512.46,265.57L501.95,264.45L496.75,265L491.86,269.63L482.84,261.77L477.07,261.1L476.36,257.11L472.99,254.24L472.16,248.82L467.43,244.61L464.79,244.86L454.97,237.12L455.71,229.53L461.3,224.07L465.65,215.9L468.73,219.35L473.61,215.51L475.59,217.55L480.62,218.34L489.76,217.18L495,212.31L502.31,212.55L504.67,209.53L513.25,208.19L520.18,204.08L526.27,198.62L533.02,197.92L545.27,193.98L545.65,192.73L547.6,193.92L551.36,191.67L557.9,192L561.24,190.6L567.46,195.36L572.9,194.41L580.03,202.89L588.14,201.58L592.1,202.19L596.98,204.99L599.97,209.65L597.01,214.65L595.65,223.65L600.48,233.4L600.3,237.45Z" class="land" id="SV-CA" title="Cabañas"/>
    <path d="M233.07,186.12L238.1,187.12L239.7,192.89L245.59,196L246.98,198.31L246.51,204.26L241.92,210.6L239.17,222.64L234.14,228.1L230.56,226.08L224.82,229.83L220.68,231.3L222.69,239.62L225.23,244.92L222.24,250.1L218.04,254.24L216.95,260.24L219.97,271L215.23,272.22L214.91,276.78L212.6,282.08L208.96,296.52L207.57,299.2L201.59,299.59L198.31,296.52L191.83,293.59L183.78,285.83L179.23,287.87L175.71,294.08L169.91,298.71L157.15,292.29L129.55,279.59L124.67,275.9L128.31,271.58L124.05,264.3L121.21,264.08L121.65,258.29L124.58,253.3L123.04,246.72L127.27,242.82L131.98,234.22L135.76,233.13L137.01,230.5L142.89,229.56L146.21,225.87L147.57,215.72L153.93,213.28L156.06,210.63L162.66,208.28L167.33,205.3L176.42,197.46L177.51,194.62L182.39,192.49L187.42,183.1L196.42,183.28L200.35,179.07L208.16,176.87L211.5,177.33L218.46,181.33L221.86,185.63Z" class="land" id="SV-Ah" title="Ahuachapán"/>
  </g>
</svg>