<?xml version="1.0" encoding="UTF-8"?>
<svg xmlns="http://www.w3.org/2000/svg" width="273.75" height="399.63" viewBox="343.13 57.19 273.75 399.63" style="background-color:#000000">
  <!-- Created using SVG Map Generator: dojo.amcharts.com/svg-map-generator -->
  <style>
    .land { fill: #ffffff; stroke: #000000; stroke-width: 0.65; }
  </style>
  <g id="polygons">
    <path d="M558.03,307.98L560.15,308.33L561.18,308.65L561.54,308.45L562.56,308.69L563.17,310.06L564.53,311.64L565.28,311.91L567.86,313.76L567.9,314.82L567.65,315.12L566.17,314.5L564.71,314.09L564.35,314.37L564.64,315.54L567.15,316.87L566.76,317.73L567.14,318.28L566.69,318.95L565.94,319.07L564.56,318.34L563.46,317.34L562.51,315.91L560.89,314.95L559.62,314.5L559.09,314.1L558.34,312.78L557.1,312L556.62,308.55ZM555.3,308.01L554.88,308.25L555.08,309.55L554.15,309.32L553.66,308.92L553.63,308.34L554.63,307.68ZM435.26,111L437.12,111.98L440.17,116.57L438.71,117.65L436.81,116.93L434.07,114.55L432.94,114.16L431.32,112.63L430.54,109.06L431.6,106L433.39,106.68L434.4,109.94ZM492.15,79.87L491.01,82.91L490.04,82.93L489.03,80.57L487.84,80.05L486.49,77.81L488.24,76.65ZM574.57,250.69L574.87,251.5L574.73,252.38L573.09,251ZM487.63,70.13L488.7,71.73L490.39,72.65L491.7,75.34L494.18,76.6L493.86,78.79L491.02,77.28L488.7,73.57L486.47,73.48L485.92,71.35ZM573.03,248.16L572.78,249.28L572.22,250.28L571.36,249.61L572.02,248.22ZM491.66,67.95L493.68,72.09L492.32,72.37L490.57,70.67ZM580.6,198.77L580.52,200.23L579.77,200.98L580.5,201.7L580.22,202.94L578.96,203.57L578.03,202.11L579.56,198.9ZM489.08,83.77L486.41,82.66L482.52,76.49L485.15,76.75L486.99,80.28L488.76,81.14ZM555.41,299.71L556.72,299.85L557.46,300.2L559.39,300.64L560.92,301.39L561.71,302.87L560.64,302.94L559.12,302.55L557.83,301.8L557.6,302.37L559.64,303.27L560.54,303.45L561.67,303.38L562.75,303.66L563.57,304.12L563.15,304.88L560.07,305.24L559.27,305.58L558.5,305.56L557.07,305.9L554.84,305.2L554.29,304.56L553.32,304.73L552.66,304.59L551.61,303.9L551.27,303.3L552.03,302.74L552.54,301.74L553.13,301.49L553.23,300.2ZM565.4,322.06L564.7,322.03L563.73,321.59L562.67,322.28L561.91,321.84L561.36,321.85L560.92,322.32L559.29,322.6L558.48,323.12L557.39,322.9L557.1,324.08L556.68,324.95L556.77,326.06L556.57,326.5L556.47,328.54L555.69,329.17L555.1,329.3L554.2,328.69L552.74,328.5L552.51,328.48L551.79,327.28L551.15,327.33L550.09,327L549.6,326.56L548.04,326.81L547.08,327.19L545.78,326.49L544.91,325.22L544.86,324.57L544,323.87L542.96,322.69L543.14,322.26L541.96,321.23L541.1,321.24L539.9,320.58L538.48,319.53L538.19,320.02L539.76,320.79L539.2,321.07L539.78,321.73L541.41,322.04L541.21,322.61L542.21,323.11L543.07,324.05L544.3,324.86L543.95,325.9L542.92,325.68L542.96,326.22L544.29,326.5L545.12,327.14L547.16,328.1L548.15,327.68L549.35,328L549.14,329.01L548.7,329.86L542.35,332.71L541.83,332.96L541.37,333.2L537.84,334.54L504.74,332.46L471.63,334.53L471.63,218.29L445.58,194.35L414.24,171.49L410.77,167.54L405.22,161.66L402.25,158.75L399.99,155.69L398.55,152.63L395.17,144.33L395.11,143.41L396.82,143.01L397.77,141.3L397.15,140.49L395.98,136.13L397.72,133.68L398.39,131.24L397.35,129.65L395.76,126.1L395.52,124.52L396.46,122.02L398.27,120.32L401.41,118.36L403.62,119.83L405.88,120.44L407.04,121.7L407.51,123.86L407.12,125.6L407.53,126.46L411.09,129.22L412.17,129.4L414.44,133.41L414.21,131.04L411.64,127.26L409.99,126.38L408.95,124.22L408.09,120.3L406.36,118.6L404.34,117.48L404.28,116.2L407.92,113.12L411.4,111.55L414.04,110.84L416.79,109.3L418.11,110.88L418.66,108.59L419.74,107.9L421.34,109L422.08,108.61L422.63,106.36L425.84,104.74L427.44,106.48L428.88,109.85L429.75,112.82L429.55,115.47L430.05,118.85L429.78,122.22L428.97,123.78L428.54,125.88L428.85,129.94L430.18,129.92L429.78,126.65L432.52,121.72L432.71,115.48L437.22,118.89L439.37,119.46L441.81,122.17L442.21,123.44L444.37,125.09L444.33,126.67L445.62,126.94L445.56,125.24L443.48,123.6L442.57,121.21L441.42,120.46L440.5,118.51L441.12,117.99L442.95,119.3L444.75,119.52L445.76,120.62L447.3,119.68L447.3,117.83L445.03,115.55L442.26,110.67L441.86,109.36L441.57,104.56L440.57,102.64L440.78,99.84L444.39,99.4L447.21,100.12L448.56,100.95L450.23,103.01L451.37,105.87L454.2,107.61L456.06,109.79L456.05,110.51L461.14,113.24L462.38,115.08L462.96,117.35L465.41,120.88L466.61,123.33L468.43,123.6L469.84,122.49L470.1,120.54L468.82,119.79L468.85,118.39L467.35,115.6L468.95,113.69L468.99,112.44L467.79,110.39L468.75,107.46L470.39,106.33L474.66,108.4L476.67,108.42L476.76,107.5L474.35,107.31L472.21,105.88L471.91,102.97L469.69,100.69L468.99,98.43L465.33,94.1L463.69,91.11L466.63,90.46L470.47,91.36L471.85,90.82L477.61,90.65L479.91,91.51L479.52,93.15L480.96,95.53L481.71,95.15L480.36,92.49L480.98,91.62L483.2,92.96L484.75,95.04L486.08,97.82L487.86,98.19L488.68,100.81L489.58,99.86L488.84,98.64L489.37,96.17L488.36,92.83L486.19,92.86L484.45,90.61L481.1,88.57L476.92,87.95L473.76,88.5L470.89,88.54L468.22,87.98L466.89,85.31L467.23,82.9L464.87,78.91L464.75,77.72L468.78,76.83L475.06,78.45L474.13,76.67L474.74,73.1L477.23,72.75L477.98,74.5L479.6,74.31L481.35,76.42L481.67,77.82L483.13,79.03L485.18,81.85L486.06,83.82L488.8,84.36L491.23,84.31L493.1,87.28L494.09,85.99L492.62,83.7L493.23,82.24L496.91,82.34L496.87,81.56L494.27,81.15L494.4,80.22L499.25,77.36L497.82,75.48L495.18,75.64L493.72,73.66L494.64,71.64L493.97,70.18L494.55,68.63L496.99,68.1L497.29,66.48L498.89,63.92L500.8,65.84L503.5,67.46L504.1,66.2L502.37,63.64L504.6,61.9L509.77,62.6L512,60.35L515.1,60.74L516.79,59.95L521.61,59.84L524.3,60.43L527.27,61.85L529.96,60.53L533.32,61.24L536.04,63.38L538.8,67.89L539.86,66.29L542.14,65.3L544.13,65.62L548.91,68.57L551.43,71.81L549.52,75.51L545.83,77.64L541.71,77.85L538.32,76.74L535.58,76.37L531.16,76.83L529.74,77.36L528.73,78.89L527.54,78.81L524.43,80.93L523.28,80.97L521.73,79.38L517.86,77.4L518.02,78.5L520.55,79.42L521.62,81.15L520.7,82.22L517.55,82.99L514.39,85.16L516.22,86.32L516.83,84.94L523.59,83.19L525.48,83.18L528.8,80.11L531.24,79.66L532.07,78.52L535.08,78.03L544.09,80.6L546.85,80.94L549.69,78.55L553.38,76.96L555.16,79.01L554.34,79.9L555.53,82.55L554.02,86.82L555.41,88.08L556.47,86.42L558.74,87.48L559.53,89.82L561.42,88.12L562.4,90.09L564.62,91.09L565.2,90.26L567.46,93.23L570.4,96.32L570.12,98.46L568.29,100.84L566.89,101.42L565.95,102.76L566.45,104.4L565.17,106.06L562.5,107.36L560.23,106.93L558.02,108.3L556.52,110.13L554.15,111.52L549.79,111.14L547.21,110.44L543.07,110.15L539.98,110.51L536.28,111.83L534.27,111.52L532.68,113.74L526.75,117.22L520.97,121.61L520.57,122.42L521.17,124.12L521.2,127.36L523.49,126.84L523.68,125.16L526.41,121.97L528.46,121.2L531.1,119.57L534.66,118.02L536.04,118.03L537.62,116.68L539.85,115.72L542.6,115.18L545.28,115.14L550.94,115.65L554.12,116.33L556.3,116.5L556.09,118.97L556.38,122.64L555.96,123.73L552.17,127.16L547.16,130.55L547.78,131.75L546.95,132.79L548.65,133.83L550.72,131.51L552.77,130.63L554.69,128.98L557.69,127.57L557.96,126.21L560.25,125.35L561.55,125.94L562.05,123.19L561.94,118.3L562.42,116.49L564.17,116.36L566.04,114.9L568.17,114.86L570.85,114.15L571.94,118.52L571.97,124.77L571.55,128.17L570.59,132.93L569.08,136.96L567.34,138.22L567.7,138.92L566.75,140.24L566.41,141.89L564.96,143.79L564.62,145.43L562.92,147.37L561.91,149.09L562.6,150.83L561.7,153.04L560.69,153.34L560.58,154.89L559.13,155.34L560.14,156.79L562.26,154.75L563.18,153.15L562.75,152.26L563.96,151.13L563.73,148.94L565.85,148.04L567.3,146.61L567.5,145.53L570.64,140.87L572.11,139.9L572.56,138.18L573.32,138.14L573.74,135.24L574.77,134.16L577.04,130.79L578.8,130.12L579.45,131.18L579.09,135.64L580.33,134.59L581.14,133.18L583.08,131.92L584.98,132.63L586.87,134.28L587.82,135.82L589.12,135.14L588.8,134.1L589.89,131.04L589.44,129.87L590.35,127.49L591.29,127.74L591.93,125.95L591.78,123.87L592.93,123.42L594.4,124.02L595.41,121.68L596.45,122.4L598.38,122L599.67,122.98L602.07,122.22L604.36,123.15L606.46,125.32L608.15,126.05L610.65,127.8L611.99,129.52L612.41,131.46L614.22,132.91L613.12,135.25L611.91,136.68L610,138.14L607.81,141.05L605.36,145.64L603.7,145.88L602.86,145.48L601.22,145.79L600.26,146.8L602.05,150.44L600.16,153.08L597.57,153.5L596.77,154L596.08,156.47L593.23,156.7L591.95,155.69L589.21,155.36L588.48,153.93L587.33,154.24L587.87,155.86L585.77,156.93L584.21,158.2L582.07,157.43L579.89,155.91L578.57,155.52L576.09,158.15L576.36,159.05L579.09,156.56L580.7,157.38L581.97,157.52L582.89,158.81L585.1,160.37L587.75,159.8L589.48,158.44L590.52,158.58L592.52,160.39L594.68,161.1L594.57,162.89L593.35,164.05L591.97,164.13L592.64,165.44L592.04,166.87L589.39,168.23L586.69,167.95L584.6,168.33L583.2,167.44L578.91,165.93L578.14,166.68L577.56,168.42L576.6,169.62L576.14,171.42L575.16,172.44L575.81,173.43L574.37,176.45L575.48,176.91L576.78,176.81L577.52,174.02L580.79,171.06L582.3,171.82L584.09,170.74L586.86,170.37L588.69,172.16L588.05,173.2L587.86,174.78L586.97,176.41L586.45,178.34L585.34,179.7L584.12,180.46L581.42,179.06L580.01,179.76L579.46,181.45L578.73,182.22L579.23,184.24L578.55,185.08L578.07,187L578.83,187.48L578.77,189.58L580.63,190.12L580.32,191.23L579.1,192.59L579.13,194.06L577.44,194.81L576.52,195.89L577.06,196.78L577.52,198.64L576.74,200.39L575.19,200.49L574.52,199.96L573.94,201.13L572.33,201.32L572.19,202.73L572.93,204.23L572.88,206.25L572.2,207.36L571.83,209.16L570.63,212.61L571.05,214.53L570.05,217.91L569.04,218.87L569.71,219.65L569.03,221.85L568.39,222.85L567.81,225.77L568.88,225.52L570.31,225.77L570.43,223.25L571.91,219.76L572.73,218.75L573.85,219.58L573.85,220.44L574.47,221.27L576.08,222.52L578.59,223.77L579.53,223.92L580.95,226.67L579.42,227.9L578.39,227.3L577.81,226.44L576.26,224.99L575.19,224.77L574.49,225.67L573.92,225.1L572.59,225.93L573.52,226.94L574.92,227.35L575.41,228.45L574.2,230L576.34,230.45L575.12,231.87L576.98,231.43L577.65,231.8L578.82,233.23L578.69,234.57L579.45,234.32L580.42,235.06L580.32,233.08L580.82,232.32L583,232.94L583.69,234.26L584.01,235.97L583.91,239.02L584.07,240.45L583.42,242.01L582.33,243.5L581.32,243.08L580.97,242.3L579.95,242.19L578.72,241.53L577.13,240.23L575.9,240.03L575.45,240.33L574.04,239.6L573.94,240.61L572.74,241.52L572.04,242.72L571.3,242.62L570.23,244.26L568.76,245.51L567.94,243.42L567.46,242.88L567.19,241.67L566.16,241.96L566.19,243.02L564.53,244.45L565.54,245.11L565.77,246.39L566.8,245.54L568.21,246.16L568.27,247.07L568.9,247.58L568.76,249.13L567.75,249.49L566.33,248.59L565.83,249.43L567.87,249.68L568.87,249.28L569.44,250.23L568.87,252.59L569.77,253.11L571.74,251.67L574.31,253.35L575.35,252.74L576.3,252.58L577.22,254.17L577.39,255.16L577.2,256.22L576.22,255.92L575.41,256.96L574.47,257.57L572.56,257.15L572.68,257.69L574.59,258.19L574.85,258.63L576.42,258.22L577.34,259.12L578.36,261.51L578.06,262.82L578.4,264.17L578.9,264.96L579.17,267.39L578.97,270.09L578.15,272.11L576.75,272.11L576.27,271.62L576.19,270.36L576.42,269.73L575.65,268.9L574.9,268.93L573.47,269.67L571.13,267.58L570.89,266.62L569.84,265.13L566.96,262.99L566.69,263.62L568.56,264.89L569.49,265.75L570.22,266.81L570.45,268.45L571.66,269.17L572.44,270.41L573.38,270.98L574.13,272.27L573.24,272.73L572.31,272.29L570.68,273.05L570.1,273.97L568.99,274.73L569.2,275.33L570.13,274.76L571.08,273.44L571.71,273.18L572.34,273.71L573.54,273.72L573.15,275.04L573.33,276.29L572.98,276.96L573.61,279.03L573.01,279.88L575.11,280.23L575.75,280.02L576.4,280.84L577.51,281.64L577.88,280.77L578.86,279.87L579.3,280.22L579.32,281.77L579.63,282.72L580.79,283.16L579.88,285.4L579.03,286.71L577.87,287.14L575.45,286.39L575.14,284.65L574.51,283.7L573.48,283.47L572.82,283.75L570.98,283.35L568.55,283.76L568.32,284.83L570.74,283.66L571.88,283.75L573.89,284.44L574.35,285.4L574.22,285.87L574.73,287.13L575.74,287.58L575.38,288.32L573.79,288.61L571.49,289.44L570.58,289.35L570.1,288.76L568.34,287.97L567.62,287.33L566.72,287.74L566.77,289.27L566.38,289.62L565.48,289.65L566.38,290.65L567.45,290.87L567.58,292.08L568.3,293.27L568.62,293.07L568.08,291.82L567.87,290.72L568.71,289.97L570.38,290.91L571.37,291.82L573.62,292.78L575.07,292.77L574.99,294.2L574.18,294.49L573.99,295.26L574.38,296.69L574.05,297.57L574.51,298.93L573.96,299.47L572.26,299.35L570.76,299.47L570.04,298.98L569.26,299.21L569.44,300.31L567.75,301.16L566.64,302.51L565.63,302.39L564.32,301.49L563.44,301.29L562.49,300.64L559.76,298.23L558.75,297.15L558.45,295.87L558.66,295.19L560.57,295.43L562.49,296.74L563.24,297.44L564.18,297.76L560.88,295.09L559.5,294.98L558.29,293.85L556.72,295.37L556.78,296.95L557.14,297.8L555.61,297.51L554.43,296.63L554.22,295.15L553.31,294.56L552.35,293.34L552.1,292.36L551.33,291.56L551.01,292.02L551.75,293.05L552.11,293.93L552.77,294.77L554.08,295.58L553.99,296.36L554.25,297.11L555.03,297.49L555.81,298.58L554.46,299.08L552.71,299.46L552.35,300.1L552.44,301.01L551.1,302.49L550.17,302.71L549.37,302.61L548.81,301.69L547.99,300.99L547.62,301.39L546.8,301.31L545.89,300.55L544.92,298.87L544.41,298.64L543.91,299.3L544.55,299.81L545.4,300.98L546.12,301.24L546.59,301.84L547.46,301.71L548.25,301.98L548.6,302.69L547.59,302.92L546.82,304.19L545.49,303.48L544.71,303.47L543.48,304.23L544.24,304.46L545.41,304.16L546.46,304.73L547.01,304.8L547.67,304.31L548.15,303.47L549.64,303.28L550.58,303.54L551.05,304.21L554.22,305.44L554.49,306.31L553.8,307.33L552.73,307.86L551.72,307.83L551.02,308.22L550.48,309.07L549.29,309.56L546.99,308.53L547.59,309.28L549.2,310.34L549.88,310.46L551.2,309.68L551.84,308.82L552.39,308.7L552.71,309.2L553.38,309.18L554.1,310.21L554.93,310.35L555.8,310.94L555.63,311.4L556,313.26L555.04,314.09L553.57,314.55L552.23,314.45L552.35,314.85L553.44,315.15L552.76,316.41L553.05,316.58L553.85,315.48L554.73,315.15L555.22,314.54L555.59,314.89L556.45,314.82L557.26,316.04L557.89,316.15L558.52,316.93L559.22,316.9L559.41,317.76L560.11,317.74L560.42,318.67L562.67,319.73L562.52,320.71L563.29,320.67ZM581.34,212.9L580.21,214.33L579.61,213.52L580.41,212.37ZM585.19,124.59L586.25,125.09L588.08,129.14L586.47,129.52L584.06,125.39ZM462.63,95.4L467.27,100L468.45,102.59L469.79,104.41L469.71,105.65L467.44,107.69L466.73,109.48L468.58,113.37L467.39,114.8L466.04,112.9L465.91,111.15L459.51,105.43L458.51,103.89L458.22,101.77L456.87,99.1L455.8,95.42L458.45,95.18L459.73,94.27ZM461.11,89.01L459.51,88.94L457.68,86.25L458.63,85.98ZM585.03,226.1L584.09,225.85L584.45,224.16L585.05,223.25L585.3,221.35L586.31,220.96L586.85,222.48L586.25,223.95L586.22,225.04ZM578.3,171.76L577.58,171.32L578.24,170.15L578.48,168.01L579.95,167.13L582.01,168.94L581.98,169.46ZM578.69,213.05L577.91,212.91L577.98,211.15L578.63,211.32L579.01,212.35ZM587.63,195.83L585.57,197.25L585.32,196.04L586.36,193.23L587.17,192.49L587.81,193.85ZM453.35,103.64L451.91,101.03L450.16,99.34L452.2,99.09L453.77,101.65ZM585.85,269.29L584.84,270.31L584.9,271.94L585.56,272.92L586.29,273.47L586.89,272.99L586.77,272.28L588.01,272.47L587.83,274.14L587.17,274.69L584.74,274.18L583.7,274.59L583.03,275.16L581.18,274.58L581.05,273.21L581.42,271.26L581.3,269.21L581.94,268.46L582.75,268.26L583.53,269.4L584.52,268.77L584.78,267.34L585.66,268.48ZM453,86.81L456.36,89.51L455.62,90.86L452.93,90.93L452.21,90L452.12,87.45ZM582.08,122.61L580.39,122.12L578.47,116.96L578.22,114.62L579.64,112.72L582.35,121.4ZM562.32,305.29L563.25,305.72L563.9,305.69L564.59,306.08L565.34,306.09L566.91,307.26L567.67,307.16L567.98,307.48L567.48,308.53L566.77,309.01L567.62,309.55L568.14,310.38L567.47,310.92L566.9,310.52L564.51,310.51L564.12,309.3L563.59,308.54L562.67,308.17L561.56,308.06L560.57,308.22L559.03,307.55L557.97,307.55L556.61,307.85L556.3,306.85L556.46,306.46L558.34,306.12L560.15,305.95ZM463.57,80.54L464.29,81.8L466.8,84.21L466.54,86.29L467.07,88.23L462.45,88.41L460.61,87.24L459.11,84.68L459.55,82.87L461.81,80.8ZM570.23,245.33L571.55,246.46L571.04,247.24L569.85,246.97L569.42,245.92ZM575.79,274.4L576.39,274.99L576.13,275.85L577.34,276.81L576.92,278.14L576,279.5L575.27,279.54L574.27,278.98L573.51,277.75L573.9,276.13L573.71,274.86L574.59,273.92ZM575.66,219.86L577.14,220.43L577.8,221.49L579.22,221.26L579.87,222.65L579.37,223.36L577.43,222.73L575.06,221.01L574.45,219.88ZM582.65,279.43L583.19,279.53L583.61,280.61L582.79,280.76ZM581.84,246.06L581.6,248.34L581.94,250.35L582.45,252.09L582.59,254.14L583.06,255.72L582.55,257.19L581.35,252.47L579.95,248.42L580.4,246.39L580.05,244.96L580.11,244.07L580.71,243.83L581.7,245.39ZM581.5,280L581.85,280.89L581.82,282.04L581.5,282.33L580.32,282.17L579.69,281.38L580.22,280.74Z" class="land" id="GL-NP" title="Northeast Greenland National Park"/>
    <path d="M432.45,384.52L431.5,385.4L430.56,385.34L430.69,384.83L431.3,384.62ZM445.13,377.6L445.75,377.62L446.47,377.23L471.63,377.16L471.63,401.04L445.48,401.03L444.68,401.22L442.54,402.62L442.33,402.68L441.34,403.65L441.63,404.33L441.53,405.25L440.87,405.85L440.16,405.83L439.08,406.12L439.13,406.57L438.76,406.84L437.9,408.63L436.77,408.9L436.47,409.11L436.05,408.13L436.39,407.76L436.95,407.58L437.06,407.04L438.05,406.1L438,405.61L438.69,404.96L438.32,404.69L437.43,405.62L437.31,406.56L436.78,406.98L436.25,406.66L435.69,406.04L436.15,405.38L436.64,405.29L436.41,404.77L436.01,404.65L435.46,404L435.8,403.65L435.74,403.12L435.39,402.65L435.84,402.16L435.66,401.59L434.46,402.88L434.54,402.23L434.24,401.32L434.97,400.68L435.63,400.55L435.89,400.07L436.6,399.8L437.32,399.17L437.15,398.16L437.95,397.55L439.87,396.83L440.69,396.97L441.36,396.93L441.86,397.35L442.44,397.32L442.44,396.9L441.8,397.05L441.22,396.68L440.06,396.59L439.02,396.83L437.04,398.01L437.06,399.1L436.68,399.47L435.89,399.68L435.5,400.3L435.02,400.34L434.51,400.83L434.07,400.04L434.01,399.43L433.56,399.66L433.18,399.2L433.21,397.87L432.05,398.06L431.3,397.83L431.61,397.31L431.5,396.72L431.91,396.43L431.55,395.94L431.22,395.13L430.64,395.15L430.26,394.8L430.64,394.24L430.28,394L430.75,393.49L432.39,392.49L433.32,391.68L433.7,390.75L434.36,390.3L435.01,389.61L435.83,389.37L436.35,389.06L437.03,387.51L438.8,386.37L439.09,385.81L439.4,385.72L439.85,385.1L440.51,384.72L441.27,385.18L442.14,385.16L440.64,384.27L440.27,384.31L438.77,385.47L438.19,386.27L437.51,386.84L436.78,387.18L436.38,388.36L436.05,388.83L434.88,389.38L433.95,390.31L433.52,390.57L433.22,391.35L432.77,391.83L430.85,393.18L429.55,393.05L429.41,392.83L429.83,391.98L429.41,391.28L429.27,390.71L429.46,389.89L429.53,388.94L430.1,388.53L430.58,388.45L431.48,388.77L432.41,388.52L432.52,388.29L434.45,388.72L434.17,388.33L433.5,388.29L433.12,388L432.33,388.1L431.78,388.45L430.48,388.16L430.62,387.73L430.24,387.35L431.29,386.67L432.3,387.03L433,386.94L433.34,386.64L433.9,386.89L434.04,386.22L433.34,386.22L432.29,386.68L432.41,386.13L432.87,386.24L433.45,385.51L432.78,385.43L431.81,386L432.29,385.06L433.69,384.96L434.56,384.76L434.19,384.35L433.13,384.67L432.69,384.42L431.07,384.27L429.53,384.4L428.73,383.88L428.66,382.69L428.22,382.61L428.33,381.75L428.81,381.37L430,381.14L431.27,380.55L431.99,380.62L433.09,380.05L433.85,379.84L434.67,379.89L434.84,379.57L436.13,379.19L436.5,379.66L437.9,379.5L438.84,379.72L439.79,381.69L439.89,381.29L439.35,380.5L439.43,380.14L438.68,379.41L437.4,379.32L436.76,379.45L436.01,378.85L434.52,379.47L434.19,379.38L431.72,380.24L431.31,380.13L429.71,380.53L429.32,380.98L428.76,381.14L428.43,380.83L428.63,380.17L428.55,379.5L428.92,378.54L429.48,378.02L430.64,377.5L431.75,376.28L432.16,375.45L433.3,374.85L433.87,374.94L434.8,374.61L435.2,375.02L436.34,375.24L437.22,375.84L437.25,376.23L439.24,375.99L439.66,375.69L440.09,376.17L440.51,376.2L441.33,376.72L442.07,377.69L442.89,377.99L443.51,377.75L444.6,378Z" class="land" id="GL-QE" title="Qeqqata"/>
    <path d="M552.74,328.5L554.2,328.69L555.1,329.3L555.69,329.17L556.47,328.54L556.57,326.5L556.77,326.06L556.68,324.95L557.1,324.08L557.39,322.9L558.48,323.12L559.29,322.6L560.92,322.32L561.36,321.85L561.91,321.84L562.67,322.28L563.73,321.59L564.7,322.03L565.4,322.06L565.29,322.47L564.28,322.86L564.3,323.75L563.24,324.56L562.67,325.42L562.63,326.01L563.27,325.99L563.78,325.15L565.28,324.21L565.82,324.36L564.63,325.77L565.81,326.19L566.25,325.4L566.22,324.7L567.52,325L567.61,325.33L566.52,325.77L566.88,326.55L565.77,326.6L565.32,327.08L565.13,328.33L565.61,330.01L565.46,331.04L566.06,331.05L565.99,329.92L566.28,328.8L567.18,327.84L568.48,328.43L568.21,329.56L568.89,330.29L568.3,330.81L568.84,331.21L569,331.79L568.74,333.4L569.01,334.38L568.53,334.77L569.04,335.52L568.6,336.33L569.08,337.25L568.71,338L569.33,338.34L569.08,338.95L569.47,340.58L569.47,341.54L569.11,342L568.38,341.92L567.35,341.12L566.53,341.77L565.85,341.76L565.54,338.56L565.75,336.57L565.22,336.53L564.67,338.61L565.15,340.28L564.86,341.95L564.34,342.1L562.83,342.12L561.89,341.93L561.17,341.5L558.92,339.43L558.51,338.61L557.91,335.86L557.95,334.72L557.64,333.4L556.85,332.24L556.29,331.71L556.34,331.07L555.88,330.84L556.21,329.95L555.91,329.77L555.18,330.51L554.18,330.65L553.37,329.8ZM441.18,409.44L441.82,409.6L441.86,410.23L441.17,410.88L440.44,412.47L440.02,412.91L439.57,412.64L440.3,411.44L440.28,411.08L440.73,410.65L440.72,410.21ZM551.48,333.97L551.26,334.73L552.23,334.98L552.76,335.74L552.69,336.53L552.99,337.09L553.26,338.48L553.22,339.07L551.78,339.6L550.95,339.73L550.55,340.38L549.89,340.88L549.1,339.97L547.59,340.83L546.71,340.77L545.29,341.09L544.31,341.52L543.65,341.6L542.05,342.07L541.32,342.13L540.79,341.74L541.51,340.81L541.18,339.93L541.75,339.28L542.8,339.16L543.32,338.21L544.45,337.36L545.37,336.02L546.75,336.1L548.03,335.78L549.02,334.93L549.82,334.53L551.34,333.38ZM543.49,336.02L544.67,336.04L544.11,337.03L542.69,338.08L542.47,337.85L542.5,336.17ZM562.05,350.85L562.34,351.77L561.86,352.14L560.98,351.84L560.57,351.2L561.21,350.82ZM542.35,332.71L548.7,329.86L549.14,329.01L549.35,328L549.94,327.86L551.21,328.14L551.79,329.18L552.58,329.84L552.65,330.87L551.91,332.26L551.23,332.84L550.33,333.24L549.95,333.73L548.97,333.95L547.92,335.02L546.64,335.42L545.29,335.17L544.73,335.4L543.47,335.34L543.38,334.74L542.8,333.81ZM440.67,409.43L439.94,411.18L439.28,411.11L439.25,410.62L439.99,409.64ZM481.5,420.03L481.83,420.17L482.08,420.75L482.62,420.85L482.9,421.41L483.65,421.64L484.21,422.43L483.59,422.83L482.47,422.27L482.03,421.6L481.23,421.01L480.94,420.23ZM439.57,412.04L439.16,412.05L438.65,412.57L438.46,412.22L439.28,411.41L439.66,411.73ZM436.77,408.9L437.9,408.63L438.76,406.84L439.13,406.57L439.08,406.12L440.16,405.83L440.87,405.85L441.53,405.25L441.95,404.89L442.32,404.92L442.26,405.6L442.36,406.3L442.69,406.59L442.59,407.14L441.85,407.59L441.52,408.13L441.02,408.29L440.91,408.83L440.5,408.88L440.25,408.53L440.34,407.78L440.86,407.22L440.14,407.24L439.76,407.7L439.15,409.11L439.26,409.39L438.97,410.27L438.56,410.65L438.11,411.49L438.17,411.91L437.83,412.13L437.55,412.8L436.78,413.01L436.51,412.61L436.59,412.06L436.2,411.17L436.34,410.58L436.19,409.37ZM475.33,427.06L473.77,427.35L471.63,427.16L455.54,442.99L454.81,443.06L454.44,442.45L454.03,442.45L453.75,442.68L453.2,441.73L451.77,441.66L451.39,441.47L451.44,441.04L452.05,440.36L452.05,440.16L451.37,439.64L450.38,440.03L449.49,439.76L450.54,439.2L450.91,439.26L451.67,438.79L453.06,438.62L452.69,438.28L452.67,437.86L451.97,438.37L451.46,438.52L451.01,438.84L450.26,439.06L449.3,438.97L449.4,438.58L448.92,438.44L449.1,438.01L449.43,437.91L450.06,438.15L451.22,437.88L451.11,437.68L450.08,437.91L449.68,437.79L449.45,437.16L449.11,436.85L449.42,436.38L449.3,435.88L450.04,435.27L450.28,434.69L450.93,434.68L450.67,434.28L450.18,434.39L449.72,435.01L448.97,435.8L449.06,436.29L448.78,436.93L448.36,436.37L448.92,435.27L448.59,435.32L448.35,436.01L447.95,435.97L448.05,434.78L448.74,434.47L449.18,434.51L449.79,433.94L449.39,433.61L449.03,434.16L448.66,434.14L447.89,434.44L447.66,434.26L447.03,434.44L447.1,433.99L446.83,433.27L447.77,432.94L447.11,432.68L447.34,431.9L446.66,431.79L446.06,431.89L445.88,431.09L445.35,431.08L444.54,430.54L444.55,430.13L444.02,429.63L444.47,427.97L444.92,427.7L444.81,427.04L444.22,427.72L444.01,427.3L444.36,426.29L443.72,426.37L443.77,425.99L444.23,425.14L443.61,425.44L443,425.05L442.73,424.52L443.04,423.73L443.63,423.43L443.28,422.88L442.82,422.64L441.97,422.99L441.48,423.57L441.09,423.42L440.82,423.06L440.81,422.39L440.62,421.97L441.01,421.38L440.31,421.01L440.31,420.22L442.14,419.71L442.15,419.45L440.71,419.79L440.27,419.82L439.85,419.53L439.32,419.54L439.51,419.08L439.22,418.57L438.7,418.23L438.65,417.58L438.84,417.37L440.03,416.89L439.38,416.62L439.17,415.46L438.3,415.01L438.56,414.59L439.17,414.6L440.05,414.24L441.66,414.06L442.15,413.66L441.96,413.3L440.69,413.81L439.16,414.25L438.57,414.12L438.06,413.61L437.88,412.95L439.27,412.79L439.68,413.24L440.43,413.07L440.87,412.57L441.5,410.94L442.08,410.7L443.67,411.06L444.17,410.63L442.93,410.56L442.57,410.19L442.69,409.9L442.01,409.02L441.63,408.7L442.47,408.15L443.25,407.87L444.25,408.41L444.57,409.76L445.84,410.94L446.76,411.15L446.16,410.47L445.49,410.09L445.16,409.72L444.78,408.07L444.45,407.73L444.95,407.21L444.72,406.59L444.06,407.6L442.99,407.33L442.57,406.04L442.42,404.78L441.94,404.6L441.96,404.08L441.7,403.66L442.54,402.62L444.68,401.22L445.48,401.03L471.63,401.04L471.63,377.16L471.63,363.04L471.63,334.53L504.74,332.46L537.84,334.54L541.83,332.96L542.41,334.32L542.97,334.92L542.58,335.29L542.03,334.86L541.16,334.62L540.53,334.92L539.98,334.56L539.64,334.99L540.82,335.3L541.14,335.97L541.77,336.2L541.21,338.32L540.64,339.42L539.82,339.53L540.02,340.36L538.66,341.04L537.97,340.87L536.71,341.7L535.93,341.74L536.17,342.58L536.94,342.36L537.64,341.71L538.88,341.54L539.19,341.19L539.87,341.33L539.89,342.29L540.36,342.91L541.14,342.78L543.18,342.12L544.1,342.06L544.94,341.79L545.62,341.98L546.78,341.43L547.82,341.65L548.58,342.55L548.67,342.9L547.57,343.67L546.44,343.75L546.01,343.46L544.28,344.53L543.76,345.34L542.09,346.29L541.53,346.33L540.6,345.7L540.01,345.85L539.04,347.03L540.86,346.64L541.56,347.47L542.81,346.92L543.47,346.87L543.43,347.88L543.87,348.11L544.42,347.87L544.92,346.3L544.95,345.35L545.71,345.05L546.16,344.39L547.08,344.43L547.8,344.94L548.72,345.04L550.29,343.95L551.11,343.59L551.59,343.15L553.15,342.29L553.62,342.41L552.95,343.7L553.51,344.08L553.96,343.24L554.37,342.96L556.83,344.55L560.73,346.23L564.19,346.62L565.99,346.16L566.61,345.74L567.25,345.88L566.22,347.76L565.54,347.77L565.08,348.41L564.05,348.1L562.88,348.68L562.97,349.48L563.68,349.92L563.28,350.69L562.6,350.39L562.24,350.66L561.08,350.83L560.14,351.1L560.74,352.41L560.21,353.37L559.66,353.76L558.46,353.62L558.34,354.53L557.43,354.68L557.22,355.45L556.87,355.73L555.9,355.19L556.23,356.12L555.99,357.05L555.23,356.99L554.19,356.4L553.51,356.61L553.29,357.29L554.28,357.29L554.61,357.53L554.57,358.22L553.95,358.33L553.49,359.57L552.87,359.58L551.8,358.98L552.33,360.1L552.32,360.57L551.33,360.57L551.57,361.67L550.79,361.46L550.68,362.29L549.78,362.75L548.95,362.61L548.92,363.56L548.07,364.2L547.06,364.18L545.73,364.42L545.53,365.08L544.55,364.79L544.25,364.91L544.68,365.67L543.68,365.69L543.29,365.11L542.97,365.65L542.5,365.92L542.34,366.46L541.69,365.86L541.34,365.81L541.36,366.71L540.89,366.79L540.14,366.03L540.25,367.02L539.2,366.59L538.72,367.11L538.68,367.73L537.76,367.54L537.64,368.21L536.48,367.56L536.55,368.65L536.19,368.91L535.89,368.19L535.55,368.34L535.52,369.12L534.34,369.07L534.44,368.64L533.69,368.39L533.69,367.58L533.28,367.09L532.66,367.49L532.3,368.26L532.81,369.05L532.23,369.36L532.42,370.05L532.08,370.83L531.69,370.64L531.14,370.88L530.93,370.36L531.01,369.33L530.2,369.27L529.75,369.56L530.6,369.99L530.79,371.1L530.43,371.31L529.38,370.99L528.16,371.44L527.01,370.87L525.7,371.14L525.2,370.77L525.02,369.62L525.23,369.27L525.84,369.37L526.08,369.11L524.55,368.8L523.97,368.9L523.6,367.73L522.87,367L522.47,366.87L522.42,366.03L522.13,364.78L521.67,364.73L522.04,366.07L521.44,366.32L522.06,367.56L523.02,367.97L523.79,370.54L523.59,371.22L523.66,371.86L523.36,373.14L523.32,373.81L522.49,373.22L521.6,373.49L521.66,373.95L520.93,374.37L520.95,374.7L519.84,375.67L518.92,375.44L518.83,376.08L519.2,376.57L518.6,377.32L518.04,377.64L518.43,377.99L518.1,378.4L518.26,379.01L517.76,379.29L517.68,380.34L517.19,381.65L517.36,381.94L517.14,382.54L516.65,382.32L516.47,383.33L515.95,383.58L515.55,384.32L515.21,384.6L515.13,385.19L515.33,386.28L514.88,386.16L514.67,387.08L514.02,388.07L513.53,387.69L513.26,388.08L513.52,388.44L512.97,388.89L512.91,389.43L512.54,389.68L512.53,390.35L511.36,390.9L511.01,391.27L510.33,390.76L510.12,391.05L510.79,391.5L510.29,391.78L508.95,391.23L508.34,391.62L508.25,392.05L508.45,392.93L507.35,393.36L506.82,393.88L506.89,394.32L505.45,395.09L505.21,394.59L504.76,395.27L504.76,394.06L504.43,393.95L504.24,394.57L503.2,395.16L502.55,395.15L502.2,395.75L501.73,395.01L501.96,393.71L501.78,393.63L501.55,395.11L501.75,395.88L501.72,396.36L501.28,396.95L499.1,394.97L498.59,395.19L498.77,394.24L498.65,393.78L499.75,393.2L499.65,392.63L500.76,391.25L501.49,391.02L501.28,390.64L500.38,390.97L500.07,390.59L499.42,390.93L498.58,390.42L497.33,390.19L497.19,390.76L498.66,391.12L499.07,391.56L497.78,391.82L498.43,392.45L497.85,393.31L497.75,393.94L497.91,394.73L497.5,395.34L496.48,395.42L496.12,394.46L495.69,394.13L495.8,395.3L497.38,396.53L496.94,397.47L496.88,398.17L496.25,398.08L495.64,398.69L495.58,398.11L494.54,398.85L494.13,398.42L493.91,398.96L493.1,399.07L492.72,398.02L492.5,398.62L492.03,398.58L491.99,399.28L491.4,399.29L491.27,398.67L490.52,397.82L489.94,398.74L489.92,399.72L489.27,399.39L488.87,398.86L488.54,399.17L488.2,399.95L489.14,400.47L489.6,400.36L489.58,401.01L489.25,401.25L489.68,401.81L489.63,402.52L489.1,403.14L488.52,403.17L488.95,403.97L488.34,404.08L488.24,404.41L487.71,404.89L486.23,403.56L486.04,404.05L485.02,404.13L484.17,403.96L484.74,404.79L484.67,405.41L484.15,405.06L484.02,405.46L486.07,408.06L486.43,408.16L486.56,409.91L486.14,410.21L487.27,410.74L487.35,411.29L486.9,411.32L485.84,410.95L484.98,411.54L484.23,411.86L483.19,411.37L482.44,411.62L482.29,412.36L483.02,413.24L483.73,413.24L484.73,413.47L485.03,413.17L485.83,413.25L486.32,413.55L486.68,414.04L486.15,414.89L486.42,415.38L486.33,415.83L486.53,416.79L486.38,417.33L486.74,417.56L486.74,418.15L485.92,418.32L484.75,418.06L483.14,417.28L482.81,416.46L482.5,416.87L481.87,417.17L482.19,417.53L482.77,417.42L483.78,418.18L484.3,418.12L485.17,418.43L485.69,420.02L485.15,419.84L484.4,419.91L484.73,420.46L483.66,420.91L483.49,421.2L483.04,421.28L482.87,420.73L482.31,420.62L481.52,419.8L480.66,420.21L481.08,421.07L481.38,421.16L482.59,422.69L482.5,423.15L482.85,423.71L482.26,423.95L482.23,424.57L481.49,424.56L480.61,424.11L480.09,423.65L479.74,423.64L480.16,424.63L481.5,424.64L482,424.92L481.89,425.7L481.39,426.01L481.41,426.34L481,426.61L480.36,426.35L480.22,426.92L479.25,426.54L478.55,426.6L478.14,427L478.18,427.7L477.32,427.93L476.78,427.63L476.45,427.66Z" class="land" id="GL-SM" title="Sermersooq"/>
    <path d="M471.32,451.99L470.97,451.92L470.5,450.98L470.72,450.74L470.97,451.46ZM454.81,443.06L455.54,442.99L471.63,427.16L473.77,427.35L475.33,427.06L475.49,427.59L476.97,428.16L477.39,428.49L477.71,428.35L478.46,428.97L478.7,428.99L478.93,429.84L478.82,430.18L479.71,430.65L478.98,430.93L476.6,429.53L476.28,429.86L477.07,430.27L477.6,430.92L477.6,431.19L478.52,431.08L479.2,431.47L479.24,432.35L478.85,432.99L479.02,433.38L478.7,433.62L478.96,434.08L479.86,434.17L479.38,435.1L479.51,435.53L478.99,436.46L478.09,436.78L478.56,437.12L478.55,437.51L478.99,437.59L478.19,438.29L477.68,438.45L477.08,438.38L475.63,438.01L476.43,438.56L477.66,438.67L478.48,439.41L478.13,440.2L477.52,440.79L476.9,440.61L476.52,440.25L476.33,440.57L477.41,441.01L477.5,441.59L476.92,441.71L477.29,442.07L477.16,442.5L475.3,442.18L475.45,442.52L476.22,442.7L477.27,442.83L477.46,443.17L477.33,443.58L476.93,443.18L476.82,443.76L477.12,443.98L475.71,444.44L475.58,444.61L476.89,444.96L476.88,445.2L476.31,445.3L477.06,445.8L476.64,447.27L476.37,447.22L475.65,447.87L475.27,447.74L475.11,447.38L474.7,447.66L475.24,447.89L474.54,448.26L474.52,448.53L474.11,449.02L474.72,449.13L475.44,449.4L474.9,450.19L475.46,450.41L475.57,451.37L475.4,451.57L474.7,451.47L473.14,450.94L472.41,450.89L471.32,450.61L470.84,450.61L471.25,449.72L470.85,449.85L470.52,450.34L470.4,450.91L469.82,450.88L469.62,450.71L469.3,452.03L469.05,452.35L468.07,452.2L467.82,451.26L467.47,451.5L467.07,451.28L466.79,451.67L466.52,451.45L466.84,450.96L467.99,450.53L467.83,450.36L467.32,450.61L466.69,450.75L466.32,450.59L466.85,449.79L467.42,449.32L467.74,448.36L467.45,448.05L468.15,447.2L468.33,446.81L468.07,446.33L467.88,447.15L467.15,448.13L466.55,448.27L466.23,448.53L466.05,447.91L466.56,446.87L466.22,446.74L466.03,447.45L465.28,446.7L465.06,447.16L464.79,448.15L463.98,446.98L463.77,447.33L462.89,447.22L463.96,446.39L463.88,446.01L464.51,445.32L465.23,444.73L465.08,444.52L463.75,445.66L463.36,445.36L463.95,444.89L463.42,444.76L462.88,445.25L462.83,445.84L462.2,445.88L461.88,445.45L462.76,445.13L462.44,444.67L463.32,444.07L464.03,444.02L465.12,443.51L465.59,442.6L465.19,442.35L464.6,443.21L463.97,443.73L462.81,444.26L462.36,443.67L463.31,443.07L464.2,442.75L464.27,442.32L463.93,442.13L463.8,441.65L463.44,441.39L463.72,440.8L463.41,440.7L463.19,441.35L462.66,441.02L462.39,441.17L463.47,441.72L463.68,442.22L463.15,442.2L463.24,442.58L462.34,443.2L462.03,443.55L461.75,443.54L461.75,443.01L461.11,443.11L461.09,443.44L460.5,443.13L460.14,443.39L460.09,444.28L459.84,444.71L459.17,445.05L458.72,445.15L458.27,444.91L458.3,444.45L458.71,444.24L458.64,443.79L458.14,444L457.27,443.83L456.46,443.94L456.4,444.26L457.09,444.55L456.6,445.01L456.28,444.84L455.49,445.09L454.41,444.54L453.25,445.12L453.32,444.58L454.06,444.14L455.37,443.53ZM471.73,452.4L472.77,452.95L473.18,453.37L472.79,453.74L472.01,454.16L471.86,453.78L471.12,453.93L471.05,453.33L471.39,453.02ZM470.3,451.19L470.72,451.93L470.32,452.15L470.19,452.5L469.79,452.74L469.69,452.2L469.41,452.09L469.58,451.32L469.78,450.99ZM454.42,444.91L455.21,445.16L455,445.41L455.49,445.83L454.8,446.15L453.87,446.19L453.64,445.78L453.06,445.27L454.24,444.86ZM470.95,452.13L471.45,452.09L471.61,452.31L470.93,453.13L470.3,453.41L469.86,453.06L470.25,452.74L470.48,452.22ZM474.57,452.19L475.19,452.59L474.46,453.09L473.78,452.53L473.93,451.86ZM461.74,445.6L461.36,445.86L461.43,446.42L460.74,446.26L460.9,445.73L461.57,445.35ZM471.31,450.77L472.63,450.98L473.38,451.3L473.75,451.27L475.4,451.72L475.23,452.25L473.88,451.79L473.42,453.01L473.1,452.73L472.41,452.6L471.88,452.29L472.02,452.03L471.67,451.62L471.08,451.35L471.08,450.84ZM461.91,444.09L461.78,444.48L461.39,444.88L460.92,444.93L460.61,445.19L459.53,445.71L459.55,445.24L460.59,444.55Z" class="land" id="GL-KU" title="Kujalleq"/>
    <path d="M439.45,370.37L439.28,371.04L438.31,371L437.63,371.24L436.89,371.28L436.59,371.02L437.82,370.53L438.35,370.59L439.17,370.2ZM430.38,370.84L430.84,370.73L431.29,371.43L430.72,371.95ZM436.1,363.62L434.54,364.42L432.53,364.79L431.74,365.24L431.98,364.44L433.12,364.19L433.33,363.79L434.23,363.53ZM436.38,364.74L434.84,365.17L434.81,364.7L435.65,364.2ZM432.32,365.97L432.88,367L432.42,367.65L431.75,367.6L431.34,366.83ZM433.53,348.55L434.44,349.2L436.71,350.04L437.06,350.9L436.86,351.53L437.39,352.15L436.43,353.73L435.53,354.53L433.25,355.6L432.37,355.8L431.2,356.49L429.82,356.95L428.61,356.8L428.41,356.13L427.56,356.08L426.93,355.56L426.73,355.1L427.22,354.76L427.97,354.59L428.94,354.84L429.69,354.54L429.66,353.95L428.88,354.43L428.7,353.99L427.99,353.92L428.16,353.45L426.79,353.01L425.97,353.11L425.06,352.95L424.4,352.51L423.67,351.4L423.98,350.73L424.95,350.69L423.89,349.65L424.27,348.78L424.23,348.34L425.53,347.92L424.6,347.11L424.36,346.54L424.3,345.14L424.68,344.47L426.39,343.42L427.83,343.94L428.49,343.96L429.1,344.35L430.26,344.55L431.1,345.04L432.14,346.11L432.73,347.38ZM471.63,363.04L471.63,377.16L446.47,377.23L445.75,377.62L445.13,377.6L444.41,377.86L443.62,377.6L442.96,377.78L442.34,377.48L441.78,376.61L441.43,376.38L441.51,375.82L440.74,376.1L440.21,375.66L440.41,375.25L441.94,374.68L442.57,374.05L443.64,374.1L443.17,373.6L441.97,374.15L441.74,374.49L441.19,374.38L440.31,374.86L440.01,374.49L439.93,373.76L439.41,373.49L440.25,373.1L440.79,373.16L440.94,372.18L440.01,372.59L439.51,373.01L438.96,372.76L439.02,373.64L439.68,373.93L439.29,374.88L438.48,374.85L438.15,375.45L437.81,375.59L436.78,374.78L435.58,374.66L434.83,373.76L434.64,374.19L433.93,374.48L433.07,374.5L432.5,374.71L431.52,375.74L431.31,376.31L429.66,377.74L429.09,377.49L429.13,376.72L429.98,375.33L429.52,374.45L430.22,373.43L430.72,373.24L431.64,372.5L431.24,372.25L431.35,371.82L431.87,371.28L430.94,369.75L432.03,369.76L432.53,370.29L433.34,370.12L434.21,369.73L434.71,370.18L436.3,371L436.83,371.44L437.34,371.55L438.44,371.34L438.88,371.46L440.24,371.2L440.93,371.88L441.84,372.48L442.37,372.58L442.92,372.96L443.44,372.59L442.93,371.97L442.34,371.68L441.34,371.47L441.05,370.98L440.57,370.85L440.06,370.17L439.34,369.95L439.34,369.52L440.03,369.55L440.27,369.09L440.55,367.68L440.28,367.21L439.8,367.08L438.6,367.35L439,367.85L439.55,367.61L440.05,368.19L440.05,368.62L438.18,368.76L437.62,369.22L436.63,369.2L436.25,369.51L435.71,369.54L434.7,369.95L434.8,369.21L434.17,368.83L433.69,369.3L432.75,369.27L432.71,368.57L431.82,368.59L431.35,368.36L430.64,368.62L430.54,368.04L431.29,367.68L431.94,368.1L432.54,367.77L433.06,367.17L433.92,366.57L434.66,366.51L434.53,366.06L433.84,365.82L434.92,365.34L436.64,365.1L436.83,365.67L437.45,365.92L437.82,365.58L438.69,365.76L439.31,365.15L440.42,365.25L441.01,364.19L441.42,363.78L441.09,363.24L441.57,362.75L441.97,362.79L441.88,362.01L440.91,363.02L439.72,363.12L440.23,362.48L440.06,361.85L440.64,361.58L441.28,360.77L442.81,360.84L443.81,361.65L444.74,362.76ZM438.99,369.39L437.62,369.89L437.23,370.41L435.87,370.64L435.58,369.78L436.26,369.76L436.64,369.4L437.62,369.42L437.73,369.22L438.96,369.05Z" class="land" id="GL-QT" title="Qeqertalik"/>
    <path d="M432.58,329.35L434.34,329.89L434.88,329.73L435.23,330.75L433.97,331.52L433.81,332.34L432.43,332.46L431.85,331.84L431.51,330.34L431.75,329.76ZM422.29,300.17L421.25,301.42L421.06,300.91ZM418.87,300.36L419.3,299.94L419.98,300.46L419.32,301.8L418.58,301.68L418.98,300.81ZM420.91,298.78L421.56,299.63L420.37,299.43L419.96,298.22ZM437.66,335.46L438.16,336.05L438.18,336.67L435.88,336.05L436.08,334.98L436.47,334.78ZM360.21,245.92L360.33,246.89L359.38,247.42L358.35,247.08L358.77,246.09ZM420.67,301.87L420.14,301.92L420.21,300.69L420.93,300.86ZM417.14,282.3L416.51,283.18L414.37,283.23L414.04,282.63L416.23,281.83ZM417.87,295.81L417.39,296.46L416.71,296.73L415.37,296.62L415.72,295.78L416.41,295.97ZM424.38,311.92L424.33,313.24L423.68,313.41L423.7,312.46ZM438.54,338.71L437.62,339.24L436.99,338.93L437.05,338.09L437.87,338.04ZM433.34,325.33L432.99,326.02L432.01,326.54L431.77,327.17L430.6,327L430.35,326.67L430.35,325.47L431.01,325.19L431.94,325.41ZM421.5,305.51L422.12,305.96L421.98,306.79L421.42,306.94L420.69,306.29ZM421.88,322.09L421.27,323.14L420.65,323.06L420.32,322.07L421.3,321.56ZM423.91,309.04L423.44,309.88L422.7,310.45L422.02,311.84L421.3,312.73L420.97,311.69L420.01,311.96L420.01,311.42L420.66,311.06L421.72,309.25L422.41,309.12L422.89,308.4ZM423.29,311.72L422.64,311.06L423.64,310.77L423.88,311.35ZM422.88,307.25L422.27,307.28L422.21,306.24L422.6,306.05L423.32,306.98ZM354.35,229.18L355.38,229.36L357.98,230.54L353.79,231.12L352.68,229.52ZM420.71,309.58L420.56,310.44L419.03,311.23L418.5,311.15L418.43,310.42L418.94,310.33L419.62,309.73ZM416.59,292.04L418.13,292.77L419.34,293.05L419.39,293.95L417.85,293.45L416.91,293.65L416.63,293.03L415.99,292.76ZM419.49,303.76L418.84,303.41L419.76,302.19L420.03,303.02ZM423.53,312.13L423.44,313.15L421.93,312.94L422.61,312.31ZM352.36,230.7L352.23,231.36L350.79,232.29L349.1,232.31L348.78,231.54L347.45,231.06L347.06,230.27L347.97,229.45L349.31,229.58L351.46,230.75ZM440.28,348.79L440.88,348.49L441.25,348.87L441.93,348.88L442.51,349.39L442.3,350.06L441.16,350.88L441.1,352.12L441.23,353.08L440.51,353.8L440.15,353.52L439.75,352.43L439.61,351.48L439.38,351.1L439.92,350.53L440.16,349.63L439.4,349.51ZM423.25,316.29L421.94,318.19L421.6,318.44L420.6,318.16L420.59,317.46L421.3,317.27L421.12,316.32L421.79,316.53L422.98,315.44L423.59,315.2L423.66,315.99ZM418.39,296.47L417.73,297.9L416.86,297.8L417.09,297.01L417.77,296.44ZM430.03,334.06L429.55,334.15L428.23,333.14L427.99,332.68L428.75,331.35L429.5,330.38L430,330.8L430.73,332.99ZM362.47,248.11L363.8,246.3L365.17,246.57L366.89,246.44L367.18,244.42L366.11,244.42L364.68,244.87L361.3,244.57L360.86,244.08L358.11,242.87L357.78,240.9L356.7,242.25L355.44,242.38L353.94,240.55L354.54,239.79L353.3,239.34L352.22,238.3L352.41,237.25L352.96,236.85L353.06,235.87L353.95,235.43L354.37,234.54L357.52,233.63L360.52,233.95L361.79,234.45L365.3,235.12L365.42,234.42L362.54,233.46L363.22,232.5L364.93,231.25L368.75,230.74L370.24,230.84L372.37,231.36L373.52,232.14L372.88,230.2L373.58,229.73L375.16,229.91L375.52,229.18L375.26,228.04L374.76,227.69L374.83,226.56L373.43,225.93L372.78,224.94L371.3,224.72L370.8,225.39L370.42,226.89L368.68,228.07L365.28,228.35L365.15,226.81L364.2,225.17L363.37,225.43L364.26,226.94L364.28,228.27L361.78,229.38L359.18,227.85L357.26,227.44L357.18,226.77L358.6,225.99L360.39,224.72L359.33,224.44L356.89,225.22L355.36,224.82L356.64,223.18L357.54,221.35L356.09,221.55L355.37,222.73L352.8,223.18L351.99,222.44L353.04,221.17L352.7,220.55L351.24,221.25L351.32,219.95L350.6,219.88L349.93,220.58L347.97,218.06L348.38,217.17L347.04,216.97L346.21,215.86L346,213.46L346.6,211.69L345.78,211.39L347.07,209.33L346.87,207.34L348.14,206.58L350.17,206.19L351.46,204.72L352.81,204.41L354.49,205.11L354.91,203.48L356.66,202.51L358.35,201.98L358.93,200.91L361.58,200.58L363.02,198.78L362.02,198.39L362.27,197.42L364.51,195.43L366.31,194.78L367.71,195.11L368.73,193.98L369.28,194.09L370.58,192.85L372.99,192.99L374.32,193.71L375.42,193.75L378.18,188.92L379.4,187.69L379.83,185.62L380.84,183.81L380.84,181.94L380.27,179.42L380.33,178.13L379.72,175.32L380.3,173.97L380.16,173.05L382.04,171.88L379.04,170.46L378.12,171.89L377.22,172.44L375.44,172.44L375.31,171.34L374.04,170.23L373.2,171.12L371.41,171.35L370.83,168.79L369.68,168.23L369.54,163.78L371.77,161.99L373.36,159.75L372.97,158.49L374.52,157.99L375.86,156.3L376.29,155.11L377.69,154.93L377.45,153.96L379.05,152.64L379.93,152.43L380.75,150.75L380.49,149.4L381.92,148.17L381.77,146.42L383.55,145.62L385.06,144.32L385.97,142.14L386.84,142.57L388.73,140.22L390.39,140.8L391.8,140.74L395.17,144.33L398.55,152.63L399.99,155.69L402.25,158.75L405.22,161.66L410.77,167.54L414.24,171.49L445.58,194.35L471.63,218.29L471.63,334.53L471.63,363.04L444.74,362.76L443.81,361.65L442.81,360.84L441.28,360.77L440.83,360.97L440.41,359.61L440.66,358.39L441.31,358.57L442.09,358.45L442.2,358.76L441.36,359.13L441.45,359.43L442.5,359.09L443.1,359.65L443.08,360.69L444.12,361.08L443.3,359.75L443.57,359.4L442.78,359.01L442.39,358.45L444.05,358.4L444.75,358.1L444.86,357.23L444.18,357.7L443.31,357.19L441.08,357.89L440.44,357.54L440.54,357.13L441.4,356.42L441.56,354.37L442.24,354.08L441.55,353.68L441.94,353.03L441.8,352.09L443.13,352.15L442.7,351.69L441.91,351.72L442.74,350.33L444.38,350.71L443.92,349.77L444.1,349.44L443.62,348.85L442.71,348.54L442.89,347.9L443.9,347.91L444.44,347.35L444.33,347.05L443.24,347.03L442.29,347.61L440.69,346.66L439.84,346.75L439.4,347.72L438.97,348.02L438.24,347.47L436.84,347.46L436.4,346.94L435.92,347.12L434.93,346.51L433.66,344.64L432.86,344.02L431.96,343.63L431.46,343.18L430.47,343.13L429.71,342.83L428.46,342.68L427.8,342.25L427.15,340.97L426.14,339.87L425.62,339.12L425.47,338.29L426.77,337.15L427.42,336.77L428.29,336.89L428.87,337.32L429.44,337.25L430.28,337.76L431.96,337.49L433.78,337.97L434.51,338.4L435.54,339.51L436.06,339.72L436.4,340.23L437.62,341.43L438.7,342.13L439.13,342.03L440.75,342.86L442,343.19L442.28,343.47L443.05,343.4L442.8,342.59L442.36,342.48L443.21,341.16L442.94,340.77L442.06,342.23L440.8,342.03L441.25,341.5L440.68,341.05L440.15,341.2L439.48,340.41L440.24,340.11L441.42,340.92L441.6,340.06L440.98,339.73L440.19,338.61L439.23,338.53L439.17,337.75L439.78,337.76L439.77,337.16L440.97,337.37L441.1,337.69L442.03,338.39L442.52,338.4L441.88,337.34L440.79,336.48L440.2,336.47L439.9,336L438.39,335.48L438.12,335.02L436.87,334.19L437.42,333.53L438.57,334.33L439.31,334.46L440.24,335.09L441.29,334.86L441.27,334.3L440.08,334.33L438.96,333.76L439.24,333.06L438.13,333.12L437.36,332.7L436.29,333.24L435.58,332.87L436.22,332.3L436.41,331.77L437.18,331.18L438.51,331.11L438.76,330.44L437.59,329.9L436.34,331.36L434.96,332.52L434.29,332.3L434.38,331.59L435.19,331.4L435.57,330.56L435.58,329.55L437.02,328.68L438.43,328.35L439.2,328.36L439.46,327.97L438.36,327.57L436.78,328.18L435.44,329.13L434.73,329.42L433.82,329.45L432.39,328.79L433.56,327.45L434.73,326.9L435.99,326.8L437.34,326.43L437.76,326.02L438.24,324.79L437.53,324.51L437.18,325.46L435.91,326.15L434.15,325.87L434.27,325.24L432.71,325.15L431.16,324.79L431.85,323.82L432.65,323.21L432.93,322.68L432.71,322.05L433.39,321.01L433.01,320.86L432.25,321.85L432.33,322.82L431.41,323.27L430.63,321.84L430.52,320.78L430.06,320.78L430.33,322.14L430.62,322.68L430.32,323.5L429.11,324.71L429.14,325.67L428.46,325.73L427.79,324.99L427.42,325.97L428.03,326.22L428.66,327.09L428.45,328.49L427.57,328.74L426.34,329.5L425.78,329.38L424.66,329.66L423.36,328.76L422.93,329.26L422.13,329.07L421.37,328.17L420.68,325.73L419.78,325.11L420.34,324.15L420.94,324.16L421.72,323.45L422.22,322.49L422.94,322.2L424.07,322.11L425.22,320.86L424.79,320.78L423.86,321.68L422.6,321.75L421.3,320.88L421.11,320.15L421.74,319.37L423.93,317.28L423.97,315.45L423.82,314.89L423.12,314.98L422.7,315.63L421.93,314.97L421.35,315.1L420.82,314.31L421.66,313.16L422.13,313.42L423.25,313.53L424.2,313.97L424.63,313.4L424.62,312.38L424.14,311.18L424.26,310.75L423.29,310.37L423.97,309.4L424.54,308.95L425.21,308.87L425.06,307.73L424.47,306.76L424.35,305.96L423.61,306.36L422.82,305.6L422.09,305.6L421.46,305.1L420.62,304.91L421.9,304.05L422.07,303.19L422.96,303.53L422.77,302.51L422.21,302.64L421.98,301.77L422.52,300.29L422.25,299.75L421.33,298.91L421.51,298.54L419.96,296.79L418.97,296.32L419.49,295.05L420.14,294.64L419.73,293.36L420.63,293.39L421.01,293.01L419.3,291.58L418.8,291.32L418.89,290.12L417.65,290.13L418.16,288.48L418.64,287.58L418.7,286.79L417.62,287.4L416.92,288.26L414.25,289.25L413.74,288.73L415.37,287.79L416.62,287.49L416.66,286.9L417.25,286.18L416.95,285.27L418.68,284.92L418.41,284.19L416.76,284.44L417.07,283.64L418.3,282.88L418.25,282.24L416.65,281.31L417.11,280.96L415.61,279.55L414.78,280.01L414.1,278.25L414.79,278.41L415.57,277.7L414.98,277.11L414.77,275.89L413.53,276.14L413.17,275.25L412.23,274.41L411.26,274.25L410.9,273.56L410,273.11L410.91,271.6L410.65,271.24L409.57,271.15L408.69,269.48L409.11,268.75L407.53,268.6L407.92,267.8L409.63,267.09L409.96,265.68L408.73,264.47L409.26,263.61L407.99,262.95L408.7,261.97L407.48,261.83L407.01,262.27L405.85,262.42L406.13,261.64L405.29,260.36L405.79,259.82L405.14,259.26L403.95,259.61L403.56,260.45L402.64,260.18L403.02,259.33L403.73,258.7L402.84,257.63L401.84,258.41L401.3,257.33L401.51,256.72L400.37,256.24L399.58,256.31L398.69,257.26L397.78,254.09L395.83,253.89L395.43,254.18L393.88,253.55L393.55,252.92L392.09,251.88L391.24,252.65L390.8,252.28L389.42,252.49L389.54,251.54L387.73,250.8L386.92,250.16L386.8,251.27L386.26,252.08L386.08,253.05L385.48,254.04L384.52,254.66L383.84,254.39L383.51,252.73L383.76,251.42L382.59,250.63L382.82,252.15L382.47,252.77L381.4,252.4L381.51,253.31L382.02,253.75L381.6,254.88L380.88,253.88L379.93,254.55L378.57,254.87L378.93,255.64L378.56,256.49L377.27,256.6L376.16,255.31L376.79,254.39L376.8,253.22L377.69,252.82L376.89,252.12L375.32,252.24L374.19,254L374.16,255.2L373.39,255.28L372.8,254.2L372.85,253.28L372.2,253.09L371.4,252.15L370.14,253.49L370.2,254.31L371.23,254.62L371.05,255.76L372.72,256.9L373.62,258.12L373.02,258.47L372.3,257.97L369.21,256.63L366.42,256.03L364.71,255.45L364.39,254.91L364.96,254.18L362.95,253.17L362.6,252.19L360.73,251.22L359.8,250.28L360.01,249.27L361.37,248.82Z" class="land" id="GL-AV" title="Avannaata"/>
  </g>
</svg>