<?xml version="1.0" encoding="UTF-8"?>
<svg xmlns="http://www.w3.org/2000/svg" width="476.42" height="366.04" viewBox="241.79 73.98 476.42 366.04" style="background-color:#000000">
  <!-- Created using SVG Map Generator: dojo.amcharts.com/svg-map-generator -->
  <style>
    .land { fill: #ffffff; stroke: #000000; stroke-width: 0.65; }
  </style>
  <g id="polygons">
    <path d="M368.38,347.21L374.15,342.03L387.77,339.57L390.42,346.3L379.27,345.06L379.89,353.29L390.65,355.14L403.54,350.75L429.69,352.77L443.3,357.63L463,357.72L474.4,362.64L481.36,362.08L480.19,375.16L487.17,378.23L490.98,385.72L488.21,395.81L488.54,403.45L484.34,397.69L483,390.12L471.45,380.09L446.42,379.27L437.82,378.09L426.72,381.75L405.74,383.77L397.36,381.62L400.5,374.87L391.52,367.57L381.7,367.9L377.97,371.05L371.85,368.45L361.01,367.97L367.67,357.08L364.13,353.36Z" class="land" id="HT-NI" title="Nippes"/>
    <path d="M539.2,277.32L521.43,258.31L520.64,253.82L537.47,249.39L538.03,243.53L529.88,239.03L523.1,226.99L528.85,217.41L535.52,211.49L528.52,208.73L531.27,201.53L536.31,200.44L535.52,193.06L521.22,179.18L487.48,162.35L470.64,157.37L471.79,147.31L479.56,139.08L485.94,138.46L506.18,141.94L518.66,139.73L528.92,130.91L539.2,125.46L544.23,126.17L546.19,130.42L557.07,139.09L555.52,145.03L561.58,149.77L566.59,163.9L576.16,172.48L587.04,173.34L596.23,165.72L601.82,168.58L602.61,179.72L615.64,188.94L618.41,195.2L618.35,205.03L622.83,214.73L615.26,225.42L614.31,238.09L618.69,255.69L616.41,264.57L617.9,277.95L615.01,289.04L611.11,291.26L595.54,290.8L587.22,283.52L578.73,279.97L575.29,274.75L544.28,272.32Z" class="land" id="HT-AR" title="Artibonite"/>
    <path d="M562.48,114.06L565.93,118.35L590.18,126.13L601.29,135.78L613.52,134.05L626.08,137.74L632.61,136.58L647.99,142.82L645.82,152.56L637.64,159.65L637.6,168.42L644.33,182.31L642.18,189.54L648.3,191.27L656.65,199.77L659.39,208.8L636.05,222.05L622.83,214.73L618.35,205.03L618.41,195.2L615.64,188.94L602.61,179.72L601.82,168.58L596.23,165.72L587.04,173.34L576.16,172.48L566.59,163.9L561.58,149.77L555.52,145.03L557.07,139.09L546.19,130.42L544.23,126.17L553.07,124.34Z" class="land" id="HT-ND" title="Nord"/>
    <path d="M470.64,157.37L465.96,159.86L454.06,153.77L443.61,157.97L422.91,156.16L414.93,149.8L413.23,140.57L419.13,131.05L433.64,121.37L453.78,112.09L462.98,103.16L466.85,106.22L494.26,107.62L500.31,104.86L507.3,105.67L516.99,102.47L527.63,102.07L544.49,106.02L562.48,114.06L553.07,124.34L544.23,126.17L539.2,125.46L528.92,130.91L518.66,139.73L506.18,141.94L485.94,138.46L479.56,139.08L471.79,147.31ZM515.3,76.63L523.27,76.86L545.52,86.52L547.62,93.71L533.6,91.78L516.34,86.13L510.69,87.56L497.15,81.43Z" class="land" id="HT-NO" title="Nord-Ouest"/>
    <path d="M250.49,379.06L244.44,367.15L250.19,358.71L253.93,346.11L254.84,335.98L261.73,331.08L283,325.15L298.86,327.08L320.49,336.76L330.02,337.18L342.08,342.85L349.5,343.13L356.76,347.38L368.38,347.21L364.13,353.36L367.67,357.08L361.01,367.97L342.79,371L340.79,378.58L332.94,377.93L311.2,371.64L294.44,372.98L268.82,378.31ZM358.94,332.42L362.88,330.55L372.41,333.31L372.48,337.18L363.41,339.43Z" class="land" id="HT-GA" title="Grand'Anse"/>
    <path d="M489.28,410.38L469.84,408.87L463.59,405.28L441.64,401.73L431.77,402.76L428.24,396.98L414.86,397.08L405.64,401.33L397.46,398.22L395.04,404.15L388.18,403.28L382.47,397.92L368.65,408.71L356.83,414.19L350.94,421.93L357.9,429.37L357.21,437.37L346.25,437.32L341.21,432.5L330.63,417.29L323.95,410.61L307.93,398.81L296.1,394.35L294.99,390.85L281.04,387.42L270.61,392.12L260.57,388.15L250.49,379.06L268.82,378.31L294.44,372.98L311.2,371.64L332.94,377.93L340.79,378.58L342.79,371L361.01,367.97L371.85,368.45L377.97,371.05L381.7,367.9L391.52,367.57L400.5,374.87L397.36,381.62L405.74,383.77L426.72,381.75L437.82,378.09L446.42,379.27L471.45,380.09L483,390.12L484.34,397.69L488.54,403.45Z" class="land" id="HT-SD" title="Sud"/>
    <path d="M702.01,390.73L694.57,403.56L693.05,411.91L695.46,426.78L690.19,433.2L678.63,418.14L667.79,409.91L644.03,400.57L624.41,402.78L583.12,402.93L570.15,405.28L561.57,411.91L554.53,409.7L531.1,411.23L523.05,416.47L509.46,417.29L499.28,412.47L489.28,410.38L488.54,403.45L488.21,395.81L490.98,385.72L495.35,392.72L508.27,391.58L513.7,396.13L518.36,392.44L529.45,395.73L534.09,387.02L539.57,388.85L565.3,379.5L574.86,372.01L588.3,376.14L597.37,381.1L611.06,381.92L625.14,381.05L653.8,387.25L678.83,387.94L687.39,393.27Z" class="land" id="HT-SE" title="Sud-Est"/>
    <path d="M447.84,288.8L441.08,280.58L449.94,273.09L457.41,273.03L480.37,282.72L491.69,286.44L516.04,297.77L520.85,303.71L522.23,316.4L484.42,309.56L469.84,300.13L455.13,296.11ZM690.32,323.33L682.09,334.27L675.69,336.47L663.26,334.16L657.13,335.47L655.75,340.46L670.7,355.84L670.42,366.92L679.34,369.9L684.6,376.42L699.71,383.96L702.01,390.73L687.39,393.27L678.83,387.94L653.8,387.25L625.14,381.05L611.06,381.92L597.37,381.1L588.3,376.14L574.86,372.01L565.3,379.5L539.57,388.85L534.09,387.02L529.45,395.73L518.36,392.44L513.7,396.13L508.27,391.58L495.35,392.72L490.98,385.72L487.17,378.23L480.19,375.16L481.36,362.08L492.98,360L507.3,363.47L531.1,367.15L541.96,361.87L552.05,345.41L557.3,344.23L584.86,346.7L597.42,349.6L599.14,330.03L602.16,324.95L592.25,318.11L584.25,317.03L574.72,308.01L565.07,305.02L553.78,286.91L539.2,277.32L544.28,272.32L575.29,274.75L578.73,279.97L587.22,283.52L595.54,290.8L599.85,296.6L615.85,304.86L625.8,314.73L638.4,319.07L651.49,314.8L664.8,312.37L682.9,318.17Z" class="land" id="HT-OU" title="Ouest"/>
    <path d="M697.31,218.62L702.77,224.21L715.56,230.46L714.8,240.89L711.87,247L703.77,253.28L691.66,268.21L681.01,271.85L691.1,276.3L699.96,288.08L702.39,305.27L698.2,317.97L690.32,323.33L682.9,318.17L664.8,312.37L651.49,314.8L638.4,319.07L625.8,314.73L615.85,304.86L599.85,296.6L595.54,290.8L611.11,291.26L615.01,289.04L617.9,277.95L616.41,264.57L618.69,255.69L614.31,238.09L615.26,225.42L622.83,214.73L636.05,222.05L659.39,208.8L674.48,217.71L682.73,219.08Z" class="land" id="HT-CE" title="Centre"/>
    <path d="M697.31,218.62L682.73,219.08L674.48,217.71L659.39,208.8L656.65,199.77L648.3,191.27L642.18,189.54L644.33,182.31L637.6,168.42L637.64,159.65L645.82,152.56L647.99,142.82L651.32,144.99L661.04,139.25L678.27,142.27L696.01,143.15L698.37,162.46L703,173.44L704.85,194.99L699.96,205.35L692.85,210.25Z" class="land" id="HT-NE" title="Nord-Est"/>
  </g>
</svg>