<?xml version="1.0" encoding="UTF-8"?>
<svg xmlns="http://www.w3.org/2000/svg" width="616.56" height="366.04" viewBox="171.72 73.98 616.56 366.04" style="background-color:#000000">
  <!-- Created using SVG Map Generator: dojo.amcharts.com/svg-map-generator -->
  <style>
    .land { fill: #ffffff; stroke: #000000; stroke-width: 0.65; }
  </style>
  <g id="polygons">
    <path d="M454.58,148.94L458.83,152.62L457.96,153.45L458.83,157.86L463.02,160.2L463.32,162.96L466.24,163.88L466.28,170.88L461.35,172.3L460.21,173.59L454.57,171.99L450.62,173.23L449.38,172.12L445.49,172.74L439,171.01L433.47,173.15L429.99,175.49L426.53,176.93L421.66,175.77L420.31,177.01L417.94,176.36L417.68,174.59L410.09,176.74L405.57,176.74L404.4,175.92L402,178.82L398.68,180.85L398.04,183.2L393.88,184.76L392.43,186.4L388.09,186.22L385.55,190.24L381.77,189.94L374.82,187.32L372.64,188.05L370.01,186.35L366.58,188.27L363.12,185.26L361.21,181.75L361.76,178.44L359.39,176.94L356.78,178.89L350.79,179.63L348.41,180.52L343.45,180.42L341.05,177.81L338.47,173.69L337.95,166.21L336.55,164.12L334.39,163.77L331.65,160.91L329.22,160.52L329.05,158.69L330.69,157.62L330,154.78L327.11,150.97L329.09,148.5L329.26,144.51L331.46,141.94L333.37,141.73L334.23,138.02L335.99,138.21L343.75,142.32L345.4,142.4L348.33,145.94L355.04,151.07L358.77,152.27L361.46,152.13L363.79,148.85L367.49,148.39L369.25,145.4L384.83,150.05L392.18,151.38L397.06,151.64L401.32,152.76L405.15,152.78L409.98,154.33L415.58,154.95L417.91,154.06L423.03,153.69L428.21,150.42L433.92,151.49L438.39,151.62L442.34,150.59L446.26,150.59L453.23,149.65Z" class="land" id="HN-AT" title="Atlántida"/>
    <path d="M360.81,367.6L360.17,366.07L361.61,361.53L361,358.99L362.65,358.31L366.59,359.43L367.18,363.26L370.53,366.89L375.19,366.37L378.28,367.48L381.11,366.61L385.28,368.56L384.16,373.8L386.51,373.96L388.04,376.15L388.12,379.14L389.7,380.57L395.47,379.99L395.11,382.06L396.46,384.65L399.77,385.33L401.31,383.46L403.77,383.13L405.48,380.38L405.32,378.6L408.74,376.95L412,373.82L413.73,370.44L417.54,370.71L420.92,369.08L422.03,367.6L425.58,366.94L426.81,365.32L429,365.44L427.73,367.87L428.15,369.78L430.91,371.28L429.38,377.96L431.48,379.93L432.3,387.29L433.78,392.67L432.04,394.96L432.41,397.25L434.97,398.34L435.75,402.87L435.35,405.85L430.44,408.73L424.23,404.74L419.74,405.97L418.53,407.94L415.47,409.82L414.62,415.22L413.38,417.32L414.44,421.05L412.96,423.53L414.43,426.75L411.06,429.83L410.28,432.7L407.29,433.97L403.64,436.93L401.56,437.37L399.79,436.09L394.26,435.97L378.6,437.3L375.86,437.04L377.01,433.96L372.24,431.39L367.77,424.3L364.48,424.21L363.91,419.62L361.38,412.36L359.47,409.91L356.5,408.35L356.94,405.45L359.16,405.56L359.84,407.71L361.16,407.56L362.97,403.87L361.21,399.7L364.45,400.1L365.88,398.35L367.91,398.49L368.57,396.39L371.32,394.77L372.65,391.12L370.12,387.34L370.67,383.09L367.7,381.69L363.9,375.85L365.48,371.24L361.43,368.92ZM360.42,401.11L362.43,403.68L359.98,407.23L359.33,404.18Z" class="land" id="HN-CH" title="Choluteca"/>
    <path d="M604.42,131.94L604.03,132.71L604.43,226.02L594.52,214.57L580.99,211.19L572.58,200.27L567.02,191.77L553.14,186.66L550.82,184.99L544.92,178.73L534.15,173.34L531.64,174.92L528.7,172.96L526.69,175.48L524.03,176.82L521.81,179.65L516.67,178.49L516.37,181.36L512.26,185.46L510.64,185.74L508.51,189.36L501.2,192.97L500.27,191.89L496.73,191.49L494.04,193.39L490.86,194.44L488.85,194.09L482.31,190.06L482.98,180.58L477.52,176.97L470.48,176.5L466.15,177.34L462.4,174.25L460.21,173.59L461.35,172.3L466.28,170.88L466.24,163.88L463.32,162.96L463.02,160.2L458.83,157.86L457.96,153.45L458.83,152.62L454.58,148.94L456.52,148.73L461.52,151.62L464.31,152.61L466.18,151.75L469.68,152.32L472.29,150.16L476.96,149.02L483.21,143.06L487.38,141.26L489.41,141.23L492.94,139.58L498.56,140.35L506.13,139.58L511.07,137.36L514.91,133.93L517.84,136.19L520.07,135.56L523.09,131.48L519.31,130L516.18,130.54L515.08,132.93L513.11,129.31L511.32,128.65L506.91,129.31L505.53,126.92L512.86,128.37L518.09,128.89L529.26,131.97L535.21,134.11L542.97,139.16L553.09,143.49L558.82,144.2L564.17,142.32L572.01,142.51L580.9,141.29L586.49,139.16L591.98,134.47L597.25,131.6L599.39,131.2Z" class="land" id="HN-CL" title="Colón"/>
    <path d="M332.98,231.81L334.46,232.2L343.07,230.74L348.02,230.3L350.01,227.65L351.92,227.27L354.1,228.89L355.59,231.66L355.33,233.88L359.75,240.22L359.48,242.51L362.17,243.67L367,240.3L373.09,240.86L374.47,242.65L376.75,241.33L378.01,243.24L382.62,245.78L383.07,248.84L379.86,249.14L377.91,252.62L379.47,255.13L379.59,259.39L377.85,261.28L378.09,263.85L373.37,266.25L371.49,273.53L369.41,273.58L365.47,272.09L364.52,277.04L358.59,282.54L360.16,287.2L361.54,287.45L365.17,291.41L366.66,295.8L365,299.79L361.62,300.94L358.75,305.46L359.72,307.98L364.48,310.35L363.39,312.67L359.56,313.66L358.11,317.06L351.86,321.22L348.19,320.58L344.6,324.34L344.61,326.65L341.94,326.42L337.75,330.11L337.13,324.72L335.58,325.72L333.34,322.02L328.96,321.35L330.48,318.83L328.79,316.11L325.31,315.1L324.88,312.18L329.4,310.65L329.91,311.55L340.32,308.11L342.63,307.95L343.7,303.42L342.98,300.41L340.96,297.23L336.78,299.83L331.84,297.51L329.22,297.33L328.55,295.49L324.38,295.26L322.62,291.99L323.03,289.77L318.14,284.37L317.85,281.17L314.05,279.94L312.26,273.04L303.85,270.51L301.97,270.8L300.39,268.31L302.69,266.31L299.75,262.62L303.47,258.46L305.49,257.62L308.71,254.23L318.33,248.14L323.33,242.94L324.75,242.87L328.89,240.51L329.44,238.79L332.27,237.92L333.71,235.35Z" class="land" id="HN-CM" title="Comayagua"/>
    <path d="M232.51,202.7L237.93,208.47L236.84,211.19L240.03,213.67L240.57,215.51L243.09,218.49L242.63,221.75L245.38,225.65L241.58,229.01L241.07,233.89L238.86,238.78L240.21,241.87L243.17,241.06L244.62,242.22L245.24,244.24L241.29,252.84L241.03,255.81L242.36,256.69L243.86,261.67L240.07,263.33L235.94,263.8L230.3,262.52L229.24,264.18L231.65,269.34L233.81,270.21L235.77,273.46L233.32,275.18L231.39,279.7L227.76,281.43L225.77,281.26L226.45,284.66L219.58,282.94L216.63,278.97L217.08,274.85L213.4,271.41L211.02,270.21L209.19,267.73L208.21,262.82L202.69,262.54L201.08,261.49L195.67,263.16L196.4,261.38L193.11,259.57L192.77,255.05L187.31,248.64L187.29,243.82L190.31,242.16L192.45,239.22L193.93,233.85L191.8,232.67L191.28,230.84L194.3,225.09L212.15,218.26L226.07,206.17Z" class="land" id="HN-CP" title="Copán"/>
    <path d="M334.23,138.02L333.37,141.73L331.46,141.94L329.26,144.51L329.09,148.5L327.11,150.97L330,154.78L330.69,157.62L329.05,158.69L328.19,159.89L323.97,161.12L323.65,164.67L325.65,166.95L329.24,167.93L329.87,172.14L329.28,174.2L325.09,177.02L326.13,179.26L323.25,182.09L325.88,186.72L324.41,188.62L325.01,191.23L323.1,192.3L322.24,195.2L319.34,197.8L318.36,200.28L315.77,201.31L314.22,205.75L314.19,209.68L315.2,211.8L317.87,214.16L320.89,213.92L323.24,217.2L327.01,217.22L327.41,219.04L330.13,218.61L332.86,221.39L333.35,225.02L332.11,228.19L332.98,231.81L333.71,235.35L332.27,237.92L329.44,238.79L328.89,240.51L324.75,242.87L323.33,242.94L318.33,248.14L308.71,254.23L307.57,251.31L308.47,245.98L305.88,244.9L302.53,241.02L303.64,234.21L304.56,233.3L304.77,228.87L305.57,226.94L304.22,225.4L299.84,224.3L296.33,220.2L300.05,215.77L301.81,211.82L297.86,211.31L295.57,206.5L294.85,195.36L291.56,195.3L288.6,192.58L284.95,191.42L283.68,188.23L284.28,182.5L264.75,176.82L272.61,170.45L276.29,165.34L276.16,163.73L279.89,163.14L284.04,160.99L285.93,158.29L291.83,162.3L295.61,161.99L297.51,159.99L297.81,157.45L302.94,154.04L303.51,151.92L307.74,151.73L312.29,149.73L314.45,146.11L311.27,145.86L312.26,143.81L317.01,143.86L320.48,141.21L326.05,139.93L330.66,140.75L332.72,140.33Z" class="land" id="HN-CR" title="Cortés"/>
    <path d="M433.32,292.31L437.51,293.59L441.49,293.75L444.74,296.42L452.12,298.09L454.2,300.87L457.85,301.2L460.19,305.61L467.55,306.28L469.93,306L477.92,300.61L482.05,299.44L487.44,299.06L490.91,307.24L498.13,309.18L499.03,306.8L502.07,307.52L505.05,313.02L506.25,316.31L510.13,317.26L512.36,320.67L515.86,321.44L517.36,317.47L520.93,315.78L525.39,318.03L527.75,314.42L529.72,315.6L532.67,314.95L541.97,317.86L543.66,320.82L542.86,324.22L546.38,326.16L547.09,327.88L543.82,331.67L541.42,333.12L538.53,332.97L536.46,336.46L533.49,335.48L528.89,338.5L529.01,343.11L528.29,346.3L530.46,347.79L530.42,350.55L527.73,350.06L523.75,350.51L520.46,346.75L520.53,344.11L518.57,342.46L516.18,342.18L514.88,344.44L513.01,343.63L510.28,340.49L503.59,335.3L503.02,331.92L504.62,328.22L504.26,326.61L495.99,327.76L490.25,330.95L491.53,334.17L489.44,335.66L486.73,336.08L486.75,338.83L483.17,341.64L480.22,346.04L475.45,349.97L475.36,353.18L473.37,356.51L470.93,358.48L467.96,357.67L466.21,358.77L461.79,358.44L460.57,356.34L458.31,357.52L454.11,357.01L452.33,354.81L449.74,354.53L448.13,355.75L440.57,356.86L434.48,355.91L429.79,357.34L429.26,359.69L429.88,362.65L429,365.44L426.81,365.32L425.58,366.94L422.03,367.6L420.92,369.08L417.54,370.71L413.73,370.44L412,373.82L408.74,376.95L405.32,378.6L405.48,380.38L403.77,383.13L401.31,383.46L399.77,385.33L396.46,384.65L395.11,382.06L395.47,379.99L389.7,380.57L388.12,379.14L388.04,376.15L386.51,373.96L384.16,373.8L385.28,368.56L387.97,366.75L392.12,369.29L394.87,365.37L396.35,364.4L393.5,360.22L393.58,355.63L394.91,354.29L398.36,357.66L403.44,357.79L406.48,353.31L406.51,349.42L407.29,346.69L406.28,344.28L407.82,341.94L406.87,338.96L410.85,340.18L414.22,336.41L414.62,330.17L411.15,328.87L410.91,326.66L408.63,325.15L406.93,322.58L408.26,320.82L412.33,321.87L414.22,321.31L415.79,319.02L412.59,317.58L415.41,314.91L415.58,311.6L419.05,308.7L420.85,305.54L422.33,305.21L421.94,301.53Z" class="land" id="HN-EP" title="El Paraíso"/>
    <path d="M382.62,245.78L384.43,243.29L382.02,239.84L385.39,236.81L385.22,232.79L386.52,231.22L392.93,230.34L395.68,231.98L401,230.93L405.03,231.85L407.62,235.98L410.58,236.74L412.98,239.84L410.73,243.71L411.12,246.41L412.53,247.26L415.32,253.89L414.37,256.85L416.65,259.34L419.12,267.13L422.29,270.04L424.64,270.06L425.36,271.79L428.09,273.46L430.55,276.45L429.73,281.19L431.67,283.73L431.3,286.39L433.59,291.08L433.32,292.31L421.94,301.53L422.33,305.21L420.85,305.54L419.05,308.7L415.58,311.6L415.41,314.91L412.59,317.58L415.79,319.02L414.22,321.31L412.33,321.87L408.26,320.82L406.93,322.58L408.63,325.15L410.91,326.66L411.15,328.87L414.62,330.17L414.22,336.41L410.85,340.18L406.87,338.96L407.82,341.94L406.28,344.28L407.29,346.69L406.51,349.42L406.48,353.31L403.44,357.79L398.36,357.66L394.91,354.29L393.58,355.63L393.5,360.22L396.35,364.4L394.87,365.37L392.12,369.29L387.97,366.75L385.28,368.56L381.11,366.61L378.28,367.48L375.19,366.37L370.53,366.89L367.18,363.26L366.59,359.43L362.65,358.31L361,358.99L361.61,361.53L360.17,366.07L360.81,367.6L354.94,365.44L352.17,362.69L348.25,363.09L343.74,360.38L341.7,360.8L342.29,357.08L342.15,352.27L345.98,345.46L346.85,337.13L345.59,335.26L345.63,331.98L344.61,326.65L344.6,324.34L348.19,320.58L351.86,321.22L358.11,317.06L359.56,313.66L363.39,312.67L364.48,310.35L359.72,307.98L358.75,305.46L361.62,300.94L365,299.79L366.66,295.8L365.17,291.41L361.54,287.45L360.16,287.2L358.59,282.54L364.52,277.04L365.47,272.09L369.41,273.58L371.49,273.53L373.37,266.25L378.09,263.85L377.85,261.28L379.59,259.39L379.47,255.13L377.91,252.62L379.86,249.14L383.07,248.84Z" class="land" id="HN-FM" title="Francisco Morazán"/>
    <path d="M604.25,260.4L604.14,241.89L604.43,226.02L604.03,132.71L604.42,131.94L611.53,134.3L615.54,136.42L625.36,140.2L635.01,142.98L637.62,143.41L636.31,149.44L638.76,152.98L643.65,150.21L645.49,152.55L649.68,152.39L652.89,148.14L657.77,147.65L663.68,148.22L672.15,148.54L678.02,153.18L693.27,166.03L702.51,175L713.43,184.54L721.76,189.71L729.47,192.05L726.59,194.41L721.46,190.06L714.11,187.12L710.11,186.96L710.02,184.82L708.49,182.83L702.4,180.63L698.59,178.42L696.83,181.12L693.16,183.8L692.33,186.47L690.2,188.17L688.9,191.76L692.69,197.39L694.78,198.27L699.62,197.37L697.6,193.72L700.45,191.08L704.62,191.56L709.67,194.43L716.33,199.61L719.15,199.79L720,201.26L724.04,203.53L725.46,205.16L724.58,208.79L725.6,211.04L729.3,212.18L732.56,207.48L736.9,205.55L737.25,202.57L735.01,198.33L731.57,196.48L728.61,195.92L730.21,191.68L733.64,194.43L740.27,198.08L744.36,199.61L755.3,202.91L762.79,206.12L766.27,211.38L767.92,217.04L771.19,223.23L775.4,227.12L779.22,229.33L785.63,231.5L784.68,233.33L780.66,232.99L777.92,234.27L774.24,233.93L768.66,231.5L761.1,230.1L759.36,233.42L755.09,234.82L752.72,231.87L750.19,234.3L748.81,233.67L744.55,241.57L738.74,245.26L735.01,245.44L730.45,248.27L730.19,249.42L726.57,250.31L725.94,252.49L718.82,254.37L717.24,256.1L712.56,256.89L710.67,255.55L704.52,258.83L702.24,257.89L698.27,258.58L697.79,256.34L694.91,257.57L694.2,254.92L690.91,255.75L692.85,260.64L689.85,260.27L688.12,261.53L684.78,262.11L680,259.73L679,257.36L676.56,259.08L676.02,260.99L677.45,265.51L675.05,267.5L672.04,264.79L670.32,265.88L667.91,265.05L668.7,262.74L666.58,261.72L664.74,265.24L659.81,269.87L657.39,270.04L656.26,271.64L653.41,270.98L650.79,267.63L645.13,268.01L639.64,265.75L637.46,266.2L635.34,264.25L633.88,266.91L632.26,264.07L628.84,261.74L626.42,258.11L628.07,256.14L625.34,254.37L624.29,251.74L621.64,250.33L617.66,251.98L613.38,251.92L610.86,257.01L607.64,257.68Z" class="land" id="HN-GD" title="Gracias a Dios"/>
    <path d="M300.39,268.31L301.97,270.8L303.85,270.51L312.26,273.04L314.05,279.94L317.85,281.17L318.14,284.37L323.03,289.77L322.62,291.99L316.65,296.68L313.47,296.51L311.97,298.36L312.88,302.49L307.91,306.91L307.27,310.13L303.3,310.04L297.46,314.32L296.15,318.17L292.45,319.64L289.99,321.68L287.76,325.38L284.68,327.02L287.76,330.47L286.74,336.14L286.37,341.31L282.46,344.7L272.76,347.95L270.43,346.22L266.26,346.56L261.58,349.49L258.79,348.59L257.07,343.34L257.49,340.42L260.7,337.78L262.08,334.87L263.84,334.72L271.83,330.35L275.04,326.06L276.74,324.75L276.42,319.82L275.54,316.99L276.4,313.96L275.17,312.57L270.03,312.27L266.49,310.45L267.62,306.74L266.02,298.74L263.26,298.64L259.83,295.83L258.78,291.37L258.99,289.18L263.54,286.92L265.59,287.53L270.53,287.22L273.97,284.37L273.74,281.74L276.18,278.01L275.56,272.67L274.2,269.09L283.33,269.98L285.43,269.01L292.54,268.62L298.37,270.14Z" class="land" id="HN-IN" title="Intibucá"/>
    <path d="M477.78,85.44L485.02,86.22L482.79,87.81L481.56,86.55L478.05,87.52L475.94,87.15L473.5,89.24L468.48,90.04L464.28,92.7L460.39,93.39L454.55,96.73L450.32,98.36L445.99,102.36L446.46,97.81L451.18,94.3L454.61,93.47L459.65,90.85L461.66,90.93L465.76,88.13L471.42,86.41ZM519.36,76.63L523.3,78.46L518.86,83.29L517.69,82.76L509.92,88.47L511.92,83.15L515.9,78.61ZM417.33,117.07L417.94,119.47L410.75,122.72L407.37,121.44L408.28,119.47L412.64,117.35L415.16,117.99Z" class="land" id="HN-IB" title="Islas de la Bahía"/>
    <path d="M322.62,291.99L324.38,295.26L328.55,295.49L329.22,297.33L331.84,297.51L336.78,299.83L340.96,297.23L342.98,300.41L343.7,303.42L342.63,307.95L340.32,308.11L329.91,311.55L329.4,310.65L324.88,312.18L325.31,315.1L328.79,316.11L330.48,318.83L328.96,321.35L333.34,322.02L335.58,325.72L337.13,324.72L337.75,330.11L341.94,326.42L344.61,326.65L345.63,331.98L345.59,335.26L346.85,337.13L345.98,345.46L342.15,352.27L339.83,352.26L337.53,350.22L332.79,351.12L332.29,348.65L327.4,345.53L325.42,346.11L316.78,344.54L314.6,345.81L311.73,344.69L306.57,347.66L306.1,345.82L300.98,338.43L300.95,336.46L297.28,335.65L291.97,337.3L288.51,335.85L286.74,336.14L287.76,330.47L284.68,327.02L287.76,325.38L289.99,321.68L292.45,319.64L296.15,318.17L297.46,314.32L303.3,310.04L307.27,310.13L307.91,306.91L312.88,302.49L311.97,298.36L313.47,296.51L316.65,296.68Z" class="land" id="HN-LP" title="La Paz"/>
    <path d="M244.62,242.22L247.99,241.42L248.23,239.46L253.54,240.79L255.75,247.12L260.05,253.32L261.83,252.64L263.26,249.15L266.95,249.4L267.71,250.77L270.95,250.64L272.46,252.06L269.96,257.49L271.57,260.95L273.42,262.48L277.08,260.98L276.77,265.97L274.2,269.09L275.56,272.67L276.18,278.01L273.74,281.74L273.97,284.37L270.53,287.22L265.59,287.53L263.54,286.92L258.99,289.18L258.78,291.37L259.83,295.83L263.26,298.64L266.02,298.74L267.62,306.74L266.49,310.45L270.03,312.27L275.17,312.57L276.4,313.96L275.54,316.99L276.42,319.82L276.74,324.75L275.04,326.06L271.83,330.35L263.84,334.72L262.08,334.87L260.7,337.78L257.49,340.42L257.51,337.12L254.56,335.98L251.85,336.42L249.48,333.59L247.66,333.9L245.59,332.31L240.37,333.13L237.38,330.4L233.42,325.62L227,326.01L223.47,319.28L222.27,316.11L217.95,313.52L213.24,313.61L212.22,312.81L212.68,307.73L211.21,304.79L213.73,303.6L214.64,300.67L218.47,300.24L221.53,297.47L221.59,293.93L223.48,294.24L225.57,296.46L227.31,292.04L229.64,293.48L233.68,291.94L235.86,288.83L237.37,283.54L236.7,280.28L233.82,280.6L231.39,279.7L233.32,275.18L235.77,273.46L233.81,270.21L231.65,269.34L229.24,264.18L230.3,262.52L235.94,263.8L240.07,263.33L243.86,261.67L242.36,256.69L241.03,255.81L241.29,252.84L245.24,244.24Z" class="land" id="HN-LM" title="Lempira"/>
    <path d="M195.67,263.16L201.08,261.49L202.69,262.54L208.21,262.82L209.19,267.73L211.02,270.21L213.4,271.41L217.08,274.85L216.63,278.97L219.58,282.94L226.45,284.66L225.77,281.26L227.76,281.43L231.39,279.7L233.82,280.6L236.7,280.28L237.37,283.54L235.86,288.83L233.68,291.94L229.64,293.48L227.31,292.04L225.57,296.46L223.48,294.24L221.59,293.93L221.53,297.47L218.47,300.24L214.64,300.67L213.73,303.6L211.21,304.79L212.68,307.73L212.22,312.81L209.87,308.73L206.21,306.38L205.86,301.8L199.99,298.99L195.47,299.95L191.51,299.28L187.43,295.99L179.45,294.51L174.37,291.22L174.5,286.79L179.64,283.9L181.92,279.57L184.31,276.38L187.42,274.79L191.36,276.09L193.56,275.96L194.46,272.87L193.8,266.7Z" class="land" id="HN-OC" title="Ocotepeque"/>
    <path d="M482.31,190.06L488.85,194.09L490.86,194.44L494.04,193.39L496.73,191.49L500.27,191.89L501.2,192.97L508.51,189.36L510.64,185.74L512.26,185.46L516.37,181.36L516.67,178.49L521.81,179.65L524.03,176.82L526.69,175.48L528.7,172.96L531.64,174.92L534.15,173.34L544.92,178.73L550.82,184.99L553.14,186.66L567.02,191.77L572.58,200.27L580.99,211.19L594.52,214.57L604.43,226.02L604.14,241.89L604.25,260.4L601.07,263.12L598.96,267.79L600.79,269.02L601.35,272.92L599.39,275.95L597.04,277.8L594.5,278.23L591.34,275.15L588.93,276.53L589.96,278.42L590.12,282.04L588.96,284.42L586.24,287.3L583.43,294.58L581.58,296.9L583.71,297.95L583.97,300L585.96,300.86L586.24,303.11L588.25,304.37L585.71,308.74L576.35,308.04L572.5,308.34L570.4,309.36L568.55,312.48L566.84,313L566.38,316.39L564.35,318.38L563.83,321.56L560.13,323.65L553.59,325.95L552.2,329.54L548.91,329.35L547.09,327.88L546.38,326.16L542.86,324.22L543.66,320.82L541.97,317.86L532.67,314.95L529.72,315.6L527.75,314.42L525.39,318.03L520.93,315.78L517.36,317.47L515.86,321.44L512.36,320.67L510.13,317.26L506.25,316.31L505.05,313.02L502.07,307.52L499.03,306.8L498.13,309.18L490.91,307.24L487.44,299.06L482.05,299.44L477.92,300.61L469.93,306L467.55,306.28L460.19,305.61L457.85,301.2L454.2,300.87L452.12,298.09L444.74,296.42L441.49,293.75L437.51,293.59L433.32,292.31L433.59,291.08L431.3,286.39L431.67,283.73L429.73,281.19L430.55,276.45L428.09,273.46L425.36,271.79L424.64,270.06L422.29,270.04L419.12,267.13L416.65,259.34L414.37,256.85L415.32,253.89L412.53,247.26L411.12,246.41L410.73,243.71L412.98,239.84L410.58,236.74L407.62,235.98L405.03,231.85L408.08,228.65L411.89,228.67L412.12,226.36L415.82,225.03L415.97,221.02L417.58,219.51L418.11,216.83L416.75,209.52L417.12,207.8L421.89,203.99L424.21,204.74L425.97,202.84L428.14,205.48L433.26,206.02L438.32,202.06L438.55,198.66L441.52,198.66L443.32,197.06L450.93,193.09L452.56,193.57L455.03,191.45L458.6,192.4L459.84,195.06L462.59,196.05L463.77,199.81L465.9,199.68Z" class="land" id="HN-OL" title="Olancho"/>
    <path d="M264.75,176.82L284.28,182.5L283.68,188.23L284.95,191.42L288.6,192.58L291.56,195.3L294.85,195.36L295.57,206.5L297.86,211.31L301.81,211.82L300.05,215.77L296.33,220.2L299.84,224.3L304.22,225.4L305.57,226.94L304.77,228.87L304.56,233.3L303.64,234.21L302.53,241.02L305.88,244.9L308.47,245.98L307.57,251.31L308.71,254.23L305.49,257.62L303.47,258.46L299.75,262.62L302.69,266.31L300.39,268.31L298.37,270.14L292.54,268.62L285.43,269.01L283.33,269.98L274.2,269.09L276.77,265.97L277.08,260.98L273.42,262.48L271.57,260.95L269.96,257.49L272.46,252.06L270.95,250.64L267.71,250.77L266.95,249.4L263.26,249.15L261.83,252.64L260.05,253.32L255.75,247.12L253.54,240.79L248.23,239.46L247.99,241.42L244.62,242.22L243.17,241.06L240.21,241.87L238.86,238.78L241.07,233.89L241.58,229.01L245.38,225.65L242.63,221.75L243.09,218.49L240.57,215.51L240.03,213.67L236.84,211.19L237.93,208.47L232.51,202.7L240.02,197.87L244.27,194.27L248.25,190.06L251.54,188.53Z" class="land" id="HN-SB" title="Santa Bárbara"/>
    <path d="M332.79,351.12L337.53,350.22L339.83,352.26L342.15,352.27L342.29,357.08L341.7,360.8L343.74,360.38L348.25,363.09L352.17,362.69L354.94,365.44L360.81,367.6L361.43,368.92L365.48,371.24L363.9,375.85L367.7,381.69L370.67,383.09L370.12,387.34L372.65,391.12L371.32,394.77L368.57,396.39L367.61,398.22L366.18,397.95L364.13,398.94L364.02,395.61L360.86,393.64L359.34,395.06L358.99,396.46L359.16,399.59L356.8,399.51L353.62,401L351.54,400.04L349.94,397.46L346.68,396.97L344.63,388.45L341.58,389.77L342.24,393.59L341.28,396.29L339.58,397.89L335.46,399.56L332.09,399.33L330.8,397.65L327.43,396.72L328.69,393.54L331.64,391.89L334.72,391.37L335.45,389.05L335.05,385.11L331.98,384.04L330.77,384.95L328.25,383.17L328.6,379.79L331.65,374.88L332.38,365.37L334.59,362.17L334.29,359.53L336.16,357.04L336.24,353.5ZM347.4,397.27L349.61,402.86L349.01,404.58L345.53,404.66L342.59,403.57L341.11,400.66L342.87,397.95L345.01,398.86ZM360.95,394.65L362.78,397.87L360.34,398.1L359.19,396.72ZM343.09,405.5L346.02,407.99L343.86,410.59L341.28,410.35L340.76,407.85Z" class="land" id="HN-VA" title="Valle"/>
    <path d="M332.98,231.81L332.11,228.19L333.35,225.02L332.86,221.39L330.13,218.61L327.41,219.04L327.01,217.22L323.24,217.2L320.89,213.92L317.87,214.16L315.2,211.8L314.19,209.68L314.22,205.75L315.77,201.31L318.36,200.28L319.34,197.8L322.24,195.2L323.1,192.3L325.01,191.23L324.41,188.62L325.88,186.72L323.25,182.09L326.13,179.26L325.09,177.02L329.28,174.2L329.87,172.14L329.24,167.93L325.65,166.95L323.65,164.67L323.97,161.12L328.19,159.89L329.05,158.69L329.22,160.52L331.65,160.91L334.39,163.77L336.55,164.12L337.95,166.21L338.47,173.69L341.05,177.81L343.45,180.42L348.41,180.52L350.79,179.63L356.78,178.89L359.39,176.94L361.76,178.44L361.21,181.75L363.12,185.26L366.58,188.27L370.01,186.35L372.64,188.05L374.82,187.32L381.77,189.94L385.55,190.24L388.09,186.22L392.43,186.4L393.88,184.76L398.04,183.2L398.68,180.85L402,178.82L404.4,175.92L405.57,176.74L410.09,176.74L417.68,174.59L417.94,176.36L420.31,177.01L421.66,175.77L426.53,176.93L429.99,175.49L433.47,173.15L439,171.01L445.49,172.74L449.38,172.12L450.62,173.23L454.57,171.99L460.21,173.59L462.4,174.25L466.15,177.34L470.48,176.5L477.52,176.97L482.98,180.58L482.31,190.06L465.9,199.68L463.77,199.81L462.59,196.05L459.84,195.06L458.6,192.4L455.03,191.45L452.56,193.57L450.93,193.09L443.32,197.06L441.52,198.66L438.55,198.66L438.32,202.06L433.26,206.02L428.14,205.48L425.97,202.84L424.21,204.74L421.89,203.99L417.12,207.8L416.75,209.52L418.11,216.83L417.58,219.51L415.97,221.02L415.82,225.03L412.12,226.36L411.89,228.67L408.08,228.65L405.03,231.85L401,230.93L395.68,231.98L392.93,230.34L386.52,231.22L385.22,232.79L385.39,236.81L382.02,239.84L384.43,243.29L382.62,245.78L378.01,243.24L376.75,241.33L374.47,242.65L373.09,240.86L367,240.3L362.17,243.67L359.48,242.51L359.75,240.22L355.33,233.88L355.59,231.66L354.1,228.89L351.92,227.27L350.01,227.65L348.02,230.3L343.07,230.74L334.46,232.2Z" class="land" id="HN-YO" title="Yoro"/>
  </g>
</svg>