<?xml version="1.0" encoding="UTF-8"?>
<svg xmlns="http://www.w3.org/2000/svg" width="741.79" height="239.95" viewBox="109.11 137.02 741.79 239.95" style="background-color:#000000">
  <!-- Created using SVG Map Generator: dojo.amcharts.com/svg-map-generator -->
  <style>
    .land { fill: #ffffff; stroke: #000000; stroke-width: 0.65; }
  </style>
  <g id="polygons">
    <path d="M168.17,353.87L165.76,353.87L163.15,353.87L159.86,353.87L159.59,353.32L159.26,353.19L158.78,352.53L158.8,352.14L158.52,352.06L158.67,351.55L158.58,350.91L158.65,350.74L158.37,349.55L157.95,348.95L157.52,348.93L157.23,348.36L156.64,347.95L156.67,347.6L156.31,347.25L155.9,347.06L155.82,346.77L155.32,346.35L155.26,346.02L154.73,345.35L154.51,344.89L154.19,345.14L153.97,345.07L153.77,344.57L153.35,344.04L153.19,343.68L152.64,343.72L152.16,343.29L152.35,342.92L151.8,342.57L151.41,342.91L151.08,342.11L151.15,341.94L150.77,341.21L150.56,341.19L150.16,340.31L149.77,340.03L149.71,340.36L149.22,340.12L148.94,339.63L148.27,339.47L147.93,339.07L147.94,338.41L147.71,337.94L147.71,333.88L147.71,331.11L147.71,326.84L147.71,323.93L147.71,320.95L147.71,317.91L147.71,314.79L151.54,314.79L154.1,314.79L156.66,314.79L159.22,314.79L161.77,314.79L164.33,314.79L168.17,314.79L168.17,317.58L168.17,320.31L168.17,324.31L168.17,326.91L168.17,329.46L168.17,331.97L168.17,334.44L168.17,338.06L168.17,340.42L168.17,343.9L168.17,347.29L168.17,349.52L168.17,351.71Z" class="land" id="CA-AB" title="Alberta"/>
    <path d="M139.21,352.18L138.78,352L138.23,351.54L138.66,351.56ZM129.43,342.49L128.99,342.17L128.78,341.78L128.91,341.54L129.31,341.98ZM137.1,350.39L136.95,350.28L136.75,349.7L137.08,349.45L137.33,349.99ZM126.81,333.78L126.83,334.06L126.54,334.53L126.07,334.69ZM123.66,340.17L123.87,340.48L123.91,341.1L123.35,341.29L123.72,341.66L124.27,341.84L124,342.26L124.42,342.81L124.54,343.14L124.91,343.22L124.75,343.68L124.34,343.4L124.05,342.86L123.55,342.38L122.82,341.57L122.63,341.06L122.86,340.84L122.2,340.59L122.45,340.37L123.09,340.22L123.38,340.04ZM132.98,348.65L134,349.05L135.02,349.25L136.49,349.69L137,350.66L137.61,351.55L137.62,351.83L137.83,352.19L138.21,352.51L139.14,352.91L139.53,353.15L139.89,353.59L140.03,354L140.29,354.4L140.55,355.15L140.77,354.87L140.99,355.54L140.66,355.62L140.35,355.91L139.69,355.75L138.11,355.1L137.23,354.59L137.2,354.4L137.61,353.98L137.63,353.8L136.74,353.85L136.54,354.03L135.78,353.56L136.04,353.41L135.77,352.98L135.53,353.07L135.39,352.7L134.93,352.46L134.31,352.54L134.32,352L134.72,351.77L134.22,351.45L134.04,351.09L133.59,350.88L133.15,351.08L132.96,350.72L132.67,350.53L132.43,350.18L131.62,350.29L131.65,349.7L131.42,349.59L131.53,349.27L132.08,349.16L132.39,349.33L132.31,348.79L131.85,348.75L131.89,348.98L131.22,349.1L130.79,348.75L130.63,348.31L130.85,348.04L131.51,347.93L131.93,348.06ZM126.81,333.78L127.18,332.8L126.95,331.52L127.2,330.67L127,331.38L127.21,332.85ZM127.56,340.26L127.38,340.23L126.94,339.65L126.62,339.44L126.19,338.97L126.33,338.67L126.85,338.95L127.36,339.34L127.75,340ZM848.24,318.09L848.2,317.93L846.08,315.7L845.93,315.2L845.21,314.79L847.18,314.79L848.24,314.78L848.24,318.09ZM111.76,314.78L114.58,314.79L116.53,314.79L120.42,314.79L122.37,314.79L126.27,314.79L128.21,314.79L132.11,314.79L136,314.79L139.89,314.79L139.89,314.79L143.8,314.79L147.71,314.79L147.71,317.91L147.71,320.95L147.71,323.93L147.71,326.84L147.71,331.11L147.71,333.88L147.71,337.94L147.94,338.41L147.93,339.07L148.27,339.47L148.94,339.63L149.22,340.12L149.71,340.36L149.77,340.03L150.16,340.31L150.56,341.19L150.77,341.21L151.15,341.94L151.08,342.11L151.41,342.91L151.8,342.57L152.35,342.92L152.16,343.29L152.64,343.72L153.19,343.68L153.35,344.04L153.77,344.57L153.97,345.07L154.19,345.14L154.51,344.89L154.73,345.35L155.26,346.02L155.32,346.35L155.82,346.77L155.9,347.06L156.31,347.25L156.67,347.6L156.64,347.95L157.23,348.36L157.52,348.93L157.95,348.95L158.37,349.55L158.65,350.74L158.58,350.91L158.67,351.55L158.52,352.06L158.8,352.14L158.78,352.53L159.26,353.19L159.59,353.32L159.86,353.87L157.91,353.87L154.42,353.87L151.81,353.87L148.32,353.87L144.83,353.87L142,353.87L141.73,353.61L141.47,353.87L141.17,353.39L141,352.77L141.11,352L140.91,352.04L140.88,352.41L140.49,352.6L139.81,352.33L139.41,351.77L139.78,351.53L139.58,351.04L139.24,351.36L138.95,351.42L138.54,351.31L137.92,350.63L137.92,350.47L137.36,349.36L137.05,349.17L136.5,349.11L136.05,349.21L135.9,349.07L135.5,349.14L134.61,349L134.38,348.37L134.62,348.11L134.14,347.76L133.27,347.91L132.48,347.52L131.94,346.99L131.93,346.6L132.07,345.92L131.71,345.5L131.61,344.94L131.63,344.23L131.76,343.56L132.49,343.01L132.89,342.88L133,342.4L132.33,343L131.77,343.23L131.54,343.69L131.13,344.9L130.95,344.2L130.61,343.67L131.27,343.13L131.22,342.77L130.78,342.74L131.12,341.32L130.59,341.42L130.42,341.25L130.27,340.35L130.01,340L129.56,339.71L129.13,339.58L128.94,339.01L129.06,338.64L129.43,338.38L129.64,338.95L130.23,339.4L130.38,339.22L129.96,338.94L129.77,338.4L129.9,337.68L129.38,337.95L128.87,338.64L128.71,339.49L128.35,339.65L128.14,339.98L127.61,339.42L127.43,338.95L127.1,338.86L126.56,338.35L126.77,337.85L127.07,337.48L127.16,336.93L126.66,336.45L126.37,335.92L126.49,335.22L126.8,334.83L127.47,333.28L128.15,332.21L127.86,332.3L127.58,332.73L127.28,332.59L127.09,331.85L127.06,331.37L127.2,330.67L127.2,330.21L126.4,329.81L126.27,329.41L125.92,329.29L125.73,329.01L125.03,328.77L124.03,328.05L123.52,328.08L123.43,327.33L122.95,327.09L123.09,326.45L122.47,326.25L122.68,325.8L122.03,324.66L120.55,321.88L120.25,321.44L120.29,321.15L119.43,320L118.62,319.42L118.17,318.49L117.14,317.68L116.88,317.06L116.92,316.51L116.05,315.64L115.11,316.17L114.32,316.4L114.47,316.7L114.02,316.99L114.02,317.71L113.79,318.22L113.31,318.23L112.36,318.87L112.03,319.21L111.76,318.09L111.76,314.78ZM131.5,345.93L131.15,345.81L131.04,345.43L131.28,345.16L131.51,345.57ZM126.77,337.54L126.46,337.94L125.83,337.56L126.24,337.14L126.44,337.1ZM121.82,336.95L122,337.15L122.45,337.02L122.82,337.55L122.72,338.04L122,338.48L122.06,338.6L122.78,338.49L122.93,337.74L122.88,337.27L123.28,337.25L123.84,336.9L123.77,337.44L123.52,337.94L123.32,338.82L123.31,339.54L123.14,339.93L122.45,340.19L122.09,340.17L121.63,339.77L121.79,339.27L121.43,339.1L121.01,338.16L120.91,337.67L120.98,336.89ZM130.59,342.86L130.45,342.32L130.44,341.86L130.83,341.71L130.68,342.66ZM134.12,351.95L133.91,351.92L133.51,351.59L133.54,351.21L133.92,351.19L134.1,351.5ZM130.21,341.04L130.3,342.46L130.07,343.06L129.85,343.01L129.77,342.19L129.12,341.44L128.93,340.77L129.23,339.88L129.83,340.22L130.05,340.45Z" class="land" id="CA-BC" title="British Columbia"/>
    <path d="M211.23,327.11L209.12,329.47L207.69,331.11L206.26,332.74L205.01,334.23L203.76,335.71L201.68,338.27L199.32,340.65L198.54,341.44L198.53,345.75L198.53,349.95L198.54,352.69L198.52,353.87L197.17,353.87L194.55,353.87L191.06,353.87L189.32,353.87L185.83,353.87L185.67,351.18L185.51,348.45L185.34,345.67L185.18,342.84L185.02,339.95L184.86,337L184.69,334L184.53,330.92L184.53,327.06L184.53,323.09L184.53,320.04L184.53,314.79L187.29,314.79L190.05,314.79L192.81,314.79L194.65,314.79L197.42,314.79L199.32,314.79L199.29,317.76L199.12,318.48L199.44,319.21L199.79,319.43L200.04,319.84L200.31,319.95L201.35,319.73L201.95,319.84L202.38,319.79L202.63,320.04L202.74,320.84L203.27,322.45L203.55,323.6L203.99,324.78L204.09,325.52L203.73,326.41L204.37,326.38L204.48,326.52L206.81,325.64L207.25,325.58L207.87,325.71L208.93,326.36L209.51,326.62Z" class="land" id="CA-MB" title="Manitoba"/>
    <path d="M262.21,362.9L261.95,363.04L261.63,363.42L261.29,363.5L261.18,363.33L260.68,364L260.44,364.03L260.11,364.27L259.65,364.48L259.11,364.88L258.42,365.21L257.96,365.11L257.28,365.58L257.14,365.44L256.4,365.66L256.3,365.43L255.96,365.44L255.62,365.27L255.38,365.35L255.17,365.05L255.26,364.76L255.13,364.48L255.25,364.1L254.92,364.05L254.53,363.81L254.51,361.46L254.48,359.71L253.89,359.14L253.45,358.9L253.11,359.1L252.39,359.35L252.04,359.25L251.93,359.08L252.8,358.7L253.07,358.52L253.31,358.19L253.32,357.15L253.86,357.15L253.86,356.94L254.88,356.94L254.95,357.12L255.39,357.38L256.02,357.18L256.74,356.87L257.3,356.73L257.75,356.97L258.49,357.21L258.68,357.36L258.86,357.86L259.24,357.89L259.76,357.51L260.48,357.55L260.83,357.77L260.53,358.25L260.41,358.85L260.05,359.26L259.57,359.66L259.83,359.81L260.14,359.7L260.57,359.78L260.42,360.3L260.6,360.86L260.79,360.95L260.95,361.88L261.16,362.23L261.84,362.29L262.44,362.45L262.62,362.62Z" class="land" id="CA-NB" title="New Brunswick"/>
    <path d="M282.54,351.51L282.77,351.77L282.24,351.99L282.14,351.77ZM276.39,346.03L276.39,344.19L273.89,344.19L270.56,344.19L268.07,344.19L265.57,344.19L263.08,344.19L262.75,343.2L262.51,343.04L262.24,342.44L262.66,342.15L263.48,341.89L263.19,341.6L263.2,341.04L262.94,340.49L262.44,340.61L262.33,341.19L261.91,341.46L261.9,342.34L262.06,342.93L262.01,343.57L261.74,343.86L261.59,344.72L261.68,345.09L261.24,345.49L261.05,345.52L260.85,345.12L260.99,344.77L260.37,344.01L259.95,343.68L259.26,343.54L259.1,343.88L258.63,343.85L258.42,344.01L258.11,343.83L257.98,343.5L257.61,343.19L257.23,343.06L257.37,342.8L257.31,341.98L257.57,341.18L257.38,340.86L256.89,341.14L256.77,341.76L256.51,341.9L256,341.66L256.03,341.11L256.2,340.59L256.26,339.71L255.98,339.41L255.8,338.98L255.2,338.78L255.17,338.1L254.59,337.28L254.74,336.9L255.09,336.57L254.87,335.62L255.04,335.39L255.49,335.58L255.83,335.23L255.24,333.74L255.52,333.64L255.79,334.09L256.41,334.65L256.85,334.59L256.65,333.41L256.68,332.73L257.69,333.84L258.42,334.2L258.84,334.78L259.98,334.87L260.6,334.82L261.58,334.84L262.78,335.25L262.97,335.13L263.31,334.16L263.19,333.56L263.27,333.27L263.99,332.77L264,332.03L263.47,331.73L262.89,330.77L263.14,330.17L262.26,329.9L262.45,329.42L262.02,329.16L261.99,328.81L262.36,328.64L262.36,328.32L262.04,327.71L262.47,326.97L262.53,326.47L262.77,325.69L262.8,324.35L263.06,324.01L262.18,323.57L261.81,322.68L261.48,322.36L261.51,322.09L262.07,321.35L262.58,320.96L262.51,320.58L262.19,320.62L262.13,320.24L262.35,320.08L263.19,319.89L263.11,319.5L262.83,319.38L261.95,319.74L261.67,319.36L260.62,319.11L260.7,318.63L261.47,318.83L261.21,317.93L261.36,316.72L260.81,316.96L260.6,316.67L260.65,315.55L260.91,315.18L260.47,314.59L260.94,314.35L260.6,313.7L261.02,313.54L261.38,313.86L261.19,314.41L261.69,314.53L262.42,316.24L262.78,316.78L262.38,317.31L263.21,317.5L263.65,318.5L263.94,319.39L264.22,319.31L264.58,320.12L264.11,320.62L264.16,321.13L264.65,320.88L265.15,320.9L264.98,321.51L264.36,322.38L265.37,322.15L265.74,322.85L266.12,322.88L266.57,323.28L266.37,323.63L266.43,324.23L265.67,324.72L266.18,324.84L266.67,325.11L266.41,325.62L266.65,325.81L267.12,325.86L267.73,326.51L267.61,327.1L267.65,327.75L267.32,327.84L266.24,327.68L266.38,328.08L266.66,328.1L266.49,328.7L267.36,328.82L267.39,329.06L266.96,329.2L266.95,329.41L267.66,329.47L267.79,330.09L268.23,330.75L268.75,330.41L269.24,330.93L269.76,331.04L269.62,331.53L270.06,332.15L269.72,332.56L269.54,333.16L270.6,332.94L270.95,332.76L271.09,333.17L271.44,333.17L271.63,333.67L271.97,333.16L272.51,333.34L272.95,334.45L273.73,334.67L274.15,334.35L274.62,334.31L274.69,334.68L275.11,335.03L275.61,335.15L275.77,335.4L275.44,335.85L275.16,336.04L274.24,336.17L274.1,336.39L273.66,336.6L273.25,337.22L272.83,337.24L272.42,337.52L271.49,337.97L270.82,337.97L270.43,338.22L270.16,338.79L270.25,339.17L269.86,339.5L270.15,339.79L270.81,339.11L271.23,339L271.84,338.63L272.67,337.83L273.21,337.47L273.88,337.21L273.91,336.69L274.15,336.6L275.34,336.73L275.74,336.83L276.29,337.92L276.27,338.24L275.59,338.67L275.91,339.23L276.57,338.53L276.92,338.3L277.69,338.21L277.91,338.7L278.41,338.82L278.93,339.66L279.05,340.11L278.86,340.83L278.99,341.25L278.9,341.73L278.95,342.11L278.3,342.27L278.97,342.5L279.24,342.76L278.98,343.16L279.27,343.39L279.26,343.74L278.6,344.43L277.52,345.25L276.64,345.99ZM279.75,345.73L279.49,346.21L278.58,346.41L278.64,346.83L279.02,346.86L279.05,347.37L278.9,347.78L278.48,348.19L278.36,348.61L277.86,349.36L277.65,349.83L277.22,350.51L277.1,351.07L276.9,351.44L277.09,351.8L277.61,351.11L277.87,350.91L278.13,350.41L278.39,350.5L278.3,350.83L278.79,350.64L279.12,350.82L279.61,350.9L279.22,351.24L278.56,351.63L278.91,351.74L278.86,352.03L279.3,352.49L279.92,352.31L279.96,352.66L280.28,352.57L280.18,353.22L280.63,352.89L280.72,353.01L281.26,352.63L281.7,352.19L281.78,352.78L282,352.55L282.82,352.46L283.51,352.84L283.6,353.41L283.23,353.74L283.05,354.08L283.03,354.43L282.8,354.76L283.35,354.84L283.15,355.32L283.65,355.46L283.94,355.21L284.33,355.16L284.66,354.91L284.73,355.18L284.5,355.7L284.09,355.84L283.69,356.22L283.61,356.67L283.35,357.18L283.01,357.55L283.21,358L283.54,357.96L283.75,357.72L284.2,356.94L284.94,356.48L284.87,356.85L284.55,357.51L284.42,357.99L284.53,358.59L284.89,358.3L285.22,357.64L285.37,357.71L285.48,358.31L285.42,358.68L284.96,359.65L285,360.04L284.63,360.92L284.43,361.02L284.18,360.81L283.68,361.06L283.52,360.92L283.59,360.09L283.47,359.55L283.02,360.15L282.58,360.5L282.38,360.32L282.54,359.7L283,358.8L282.75,357.68L282.34,357.36L281.9,358.29L281.84,358.57L281.62,358.68L280.98,358.8L280.5,359.44L280.4,359.83L280.04,360.25L279.6,360.22L279.07,360.36L278.74,360.18L278.97,359.75L279.68,359.48L279.95,359.19L280.29,358.61L280.95,358.24L280.53,357.98L279.94,357.97L279.8,358.45L279.51,358.56L278.92,358.37L278.96,357.58L278.33,357.62L278.19,357.94L277.7,358.1L276.69,358.23L275.62,358.06L275.24,358.08L274.7,357.93L273.87,357.92L272.62,358.21L272.26,358.24L271.97,358.05L271.76,357.35L271.95,356.95L272.58,356.45L273.09,355.94L273.54,355.36L273.07,355.27L272.16,355.33L272.16,355.22L272.69,354.93L273.08,355.1L273.54,353.84L273.72,353.58L274.34,353.61L274.45,353.29L274.16,353.04L274.11,352.64L274.52,352.15L274.84,352.36L274.7,351.65L275.14,350.62L275.64,349.21L275.92,348.76L275.98,348.46L276.32,348.17L276.64,347.39L276.99,347.01L277.1,346.58L277.58,346.18L278.21,345.88L278.59,345.62L279.27,345.94L279.32,345.59ZM266.89,324.45L266.78,324.96L266.41,324.68Z" class="land" id="CA-NL" title="Newfoundland and Labrador"/>
    <path d="M268.19,363.1L268.47,363.41L268.22,363.68L268.81,363.71L269.03,363.6L269.49,363.09L269.01,363.13L269.28,362.75L269.42,362.33L269.85,362.02L269.99,362.36L270.27,362.33L270.73,362.47L270.59,362.88L270.78,363.11L270.42,363.29L270.04,363.69L269.67,363.95L269.08,364.14L268.67,364.08L267.83,364.19L267.49,363.77L267.4,363.11L267.57,362.43L267.92,362.04L268.68,360.57L269.19,360.04L269.62,359.95L269.59,360.19L269.78,360.66L269.47,361.71L269.44,362.14L269.28,362.43L268.59,362.8ZM261.63,363.42L261.95,363.04L262.21,362.9L262.88,363.35L263.28,363.3L263.72,363.66L264.1,363.58L264.93,363.7L265.38,364.05L265.92,363.73L266.46,363.32L266.62,363.78L267.07,363.99L267.4,363.85L267.69,364.19L267.83,364.57L267.47,364.79L268.19,364.84L268.2,365.18L267.83,365.17L267.25,365.41L266.31,365.87L265.82,366.04L265.31,366.31L264.25,366.68L264,366.69L263.69,366.89L263.2,366.85L263.07,367.35L262.76,367.33L262.27,366.88L261.69,367.15L261.58,367.45L261.71,367.77L261.5,367.86L261.31,368.2L261.09,368.32L260.51,369.1L260.05,369.5L259.75,369.5L259.55,369.66L259.52,370L259.24,370.09L258.72,369.97L258.41,369.3L257.92,369.25L257.79,368.31L257.98,367.67L258.45,367.1L258.83,366.86L258.88,366.55L260.43,365.5L261.35,365.11L261.55,365.45L261.79,365.52L262.08,365.23L262.79,364.95L262.09,364.66L261.58,364.72L261.04,364.66L260.75,364.91L260.41,364.77L260.58,364.47L261.13,364.03Z" class="land" id="CA-NS" title="Nova Scotia"/>
    <path d="M168.16,227.16L168.16,232.67L167.37,232.96L166.24,234.32L164.63,235.37L163.01,236.02L161.99,236.14L160.98,235.92L159.43,234.59L159.21,234.07L159.71,233.34L161.37,232.48L162.36,231.69L164.75,231.35L165.59,230.49L164.85,230.17L163.55,230.44L162.85,229.82L162.13,230.65L160.57,230.96L160.22,229.82L160.48,228.93L159.87,228.16L159.64,229.59L159.06,230.8L157.9,231.69L157.37,230.69L156.96,230.67L156.45,231.75L155.6,231.17L154.92,230.13L153.84,230.26L152.82,229.88L152.62,229.33L153.05,228.12L153.53,227.7L155.73,227.54L157.25,226.51L155.02,226.78L153.79,226.65L153.9,225.46L155.09,224.94L154.55,223.92L154.64,222.7L155.46,221.67L158.06,221.91L157.89,221.52L156.31,221.17L156.25,220.5L156.75,219.57L157.94,219.04L158.89,219.01L159.59,219.45L159.86,220.76L160.34,221.56L161.68,221.13L162.65,221.61L164.35,223.84L163.96,224.72L165,224.82L165.56,226.56L166.01,227.09ZM168.16,246.49L168.16,252.02L168.17,259.07L168.17,265.74L163.05,265.74L162.74,266.73L162.28,266.74L162.27,265.74L158.99,265.74L153.73,265.73L153.69,266.41L154.47,267.56L154.14,267.83L153.63,266.91L153.45,265.42L153.57,265.15L154.76,264.7L156.85,264.2L158.77,263.86L162.77,264.39L163.69,264.09L164.52,264.1L164.64,263.62L163.84,263.05L161.73,262L160.48,261.55L159.3,261.64L158.26,261.97L155.91,262.19L155.22,261.96L153.86,262.08L152.64,261.92L151.26,260.32L151.25,259.4L152.18,258.62L153.2,258.28L155.42,257.34L155.93,256.63L153.16,256.86L152.37,257.14L151.41,256.85L151.5,256.27L152.05,256.04L152.33,255.4L151.04,255.53L150.02,255.22L149.78,254.72L149.87,253.26L150.59,252.05L151.36,251.42L150.82,250.3L151.03,249.58L152.72,247.54L154.72,245.98L156.81,244.86L158.68,243.73L159.65,244.46L159.88,245.87L159.76,247.33L158.96,248.95L159.05,249.26L161.01,248.48L161.11,247.32L161.6,246.5L162.53,246.46L163.98,247.14L165.57,248.35L165.39,249.32L164.87,250.25L164.29,250.79L164.74,251.17L165.48,250.12L165.83,250.73L166.57,249.58L167.75,248.71L167.76,248.04L167.03,247.33L166.81,246.31ZM168.16,221.24L167.61,219.75L168.16,219.2ZM146.31,268.31L146.32,271.41L146.32,277.16L148.93,279.27L152.07,281.77L154.16,283.4L156.25,285.02L158.86,287.01L160.43,288.19L163.04,290.13L166.8,290.16L169.16,293.05L169.77,293.49L170.27,293.65L173.83,294.31L178.29,295.13L180.97,295.62L184.53,296.27L184.52,300.25L184.52,304.57L184.53,308.76L184.53,312.81L184.53,314.79L180.44,314.79L177.37,314.79L173.28,314.79L171.23,314.79L168.17,314.79L164.33,314.79L161.77,314.79L159.22,314.79L156.66,314.79L154.1,314.79L151.54,314.79L147.71,314.79L143.8,314.79L139.89,314.79L139.54,314.63L139.53,314.28L139.11,313.35L139.01,312.85L138.7,312.76L138.3,312.06L138.49,311.53L138.33,310.84L137.87,310.81L137.72,311.23L137.17,311.3L136.7,311.52L135.71,311.11L135.43,311.45L134.37,311.48L134.07,311.64L133.61,311.5L133.5,310.42L133.33,310.11L133.24,309.07L132.78,308.46L132.14,308.37L131.35,307.61L131.15,307.04L130.92,306.94L130.52,306.21L130.19,305.84L129.76,306.05L128.75,305.63L128.71,304.42L128.86,304.1L128.29,303.72L127.83,302.68L128.01,301.62L127.6,301.51L127.04,300.48L127.57,299.72L127.12,299.03L126.95,298.44L126.2,297.71L125.9,297.57L125.32,296.68L125.35,296.31L124.99,295.45L124.47,295.18L124.01,295.55L123.64,295.55L123.74,294.91L123.05,294.11L122.5,293.73L122.03,293.64L122.14,292.79L122.43,292.4L122.1,292.13L121.94,291.22L122.45,290.42L122.76,289.66L122.55,289.07L122.02,288.37L122.46,287.88L121.9,287.5L121.48,288.01L121.24,287.51L119.91,287.84L119.73,287.17L119.95,286.76L119.92,286.21L119.5,286.11L119.81,284.77L119.55,284.33L119.49,283.47L118.95,282.5L114.72,282.5L114.53,281.57L114.76,280.92L114.63,279.8L114.06,278.55L114.07,272.19L114.72,272.26L116.28,273.31L116.19,272.56L115.23,272.06L115.16,270.95L115.61,269.8L116.5,269.73L116.73,268.89L118.06,268.89L118.14,267.73L118.57,267.71L119.31,268.66L118.73,269.98L120.14,269.26L120.78,269.09L121.44,267.82L122.48,267.22L122.82,267.5L123.29,267.21L124.3,266.24L124.93,266.3L125.36,265.44L126.23,264.89L127.36,265.2L127.8,264.59L128.19,265.12L127.97,265.76L125.29,267.93L123.44,268.41L122.48,269.82L121.75,270.1L120.34,272.24L120.49,272.46L121.71,272.64L121.58,271.52L121.69,271.14L123.32,269.92L123.59,269.1L124.05,268.93L125.18,269.12L125.38,269.95L125.9,268.81L126.53,267.79L128.13,266.78L128.75,266.61L129.35,267.46L130.55,265.99L130.77,265.1L131.82,264.41L130.99,263.22L131.36,262.27L131.85,262.62L133.1,264.31L134.18,267.35L134.92,268.44L135.62,269.18L136.69,269.58L137.14,268.82L136.75,267.97L137.95,265.81L137.58,265.5L138.39,264.84L138.62,265.08L138.56,266.23L138.69,267.13L139.24,267.8L138.54,269.14L138.65,269.41L140.32,269.42L141.13,268.46L141.52,266.88L143.47,266.84L144.58,267.08L145.74,267.76ZM168.16,204.22L168.16,205.8L166.63,206.5L166.69,207.23L167.85,207.41L167.76,209.69L166.77,210.43L165.66,210.6L164.17,211.39L163.31,211.2L161.69,209.64L161.47,207.26L161.65,205.96L163.45,205.04L165.7,204.23ZM151.13,226.83L150.13,227.3L148.95,226.52L150.52,224.12L151.52,223.37L152.31,222.37L152.82,222.67L152.56,223.61ZM168.16,198.15L168.16,201.89L166.62,202L165.77,201.24L165.23,202.24L164.57,202.29L163.81,201.44L161.68,202.28L161.72,201.01L162.76,200.08L164.67,199.31L165.97,197.92L167.33,197.41ZM148.25,238.32L148.79,237.66L149.33,237.68L149.7,238.83L150.69,237.33L151.87,237.17L153.44,237.88L154.41,238.96L155.98,241.01L156.89,241.96L157.02,243.25L155.91,244.08L154.9,244.58L153.71,245.61L152.9,246.1L151.83,247.05L149.83,248.55L149.48,249.07L148.92,250.76L148.18,251.54L147.34,251.75L146.96,253.91L146.8,255.59L146.44,256.4L144.7,257.15L144.13,256.79L143.3,257.93L141.7,259.06L141.14,258.84L140.77,258.23L140.35,256.93L139.51,255.29L137.97,254.25L136.87,253.35L135.91,253.43L135.92,252.25L136.7,250.33L137.51,249.21L137.48,247.66L138.33,246.88L138.32,246.33L137.81,245.83L138.66,243.4L139.29,242.62L139.94,240.87L138.99,239.5L138.1,236.55L140.61,235.88L142.34,235.66L144.13,235.08L145.02,235.16L146.57,236.51L147.82,237.26L148.6,237.42ZM156.81,211.21L156.66,212.12L155.45,212.93L155.31,213.63L156.18,214.84L155.41,215.7L156,216.93L155.44,218.04L153.85,218.74L153.53,220.78L152.84,221L152.12,220.37L151.76,219.49L152.25,216.5L151.18,216.93L150.84,218.61L150.12,219.15L150.48,220.46L149.77,222.1L149,221.44L148.27,222.48L148.63,222.89L147.89,224.51L146.87,224.79L146.13,221.91L145.62,223.15L144.79,223.49L143.8,223.03L142.8,223.8L142.03,221.39L142.87,219.88L144.41,219.53L145.67,217.33L146.72,216.42L146.98,215.58L149.57,211.75L151.79,211.04L152.99,211.64L153.54,211.23L154.18,209.65L155.46,209.77ZM160.88,216.87L160.57,217.16L158.45,216.73L159.12,215.69L160.2,215.51L160.97,216.14ZM160.33,207.49L159.4,207.81L158.74,207.35L157.88,205.42L159.41,205.06L160.46,206.05L160.76,206.92Z" class="land" id="CA-NT" title="Northwest Territories"/>
    <path d="M199.82,225.43L199.36,225.26L199.06,223.91L199.8,223.36L200.29,225.11ZM179.3,213.26L177.95,212.89L177.26,211.31L176.21,207.77L177.19,207.67L178.38,209.86L178.49,210.69L179.33,211.45ZM168.16,205.8L168.16,204.22L168.95,204.54ZM186.12,218.33L186.66,216.95L188.07,216.95ZM196.65,227.4L195.86,227.53L195.33,228.45L194.8,227.4L195.74,226.8L196.05,226.21L196.89,227.04ZM180.39,218.29L182.38,219.46L181.52,220.51L179.89,220.54L179.61,220.2L179.24,218.09L180.02,217.56ZM168.16,201.89L168.16,198.15L169.18,199.23L169.41,201.74ZM209.64,218.96L208.97,219.07L207.94,216.95L208.01,216.47L209.19,216.04L209.71,216.89L209.45,217.87ZM184.07,223.2L184.44,223.94L183.67,224.43L183.35,225.17L181.84,225.3L182.4,224.01L182.07,223.68L180.91,224.23L180.47,223.89L180.85,223.01L179.94,222.93L179.72,221.77L182.29,220.66L183.34,220.92L183.53,222.52ZM168.16,232.67L168.16,227.16L170.04,227.43L170.32,227.14L170.32,225.85L168.58,224.48L168.43,223.93L169.28,223.15L169.22,222.1L168.16,221.24L168.16,219.2L169.52,216.72L170.56,216.17L171.3,216.92L171.01,217.88L171.21,219.56L171.86,220.5L172.01,221.34L171.47,222.76L172.56,222.84L172.76,223.83L174.93,224.92L174.59,223.92L175.54,222.82L176.54,223.25L177.16,223.92L177.41,225.46L176.63,229.98L176.16,230.79L173.99,232.07L172.63,231.5L171.53,231.95L171.04,231.82L170.56,230.99L169.18,232.42ZM200.3,215.35L201.29,215.34L202.51,216.77L202.53,217.53L203.52,218.12L205.42,217.47L206.41,217.43L207.57,218.31L207.81,219.33L207.33,219.57L210.55,220.75L210.3,221.72L208.44,221.98L206.5,221.37L206.46,221.97L207.63,222.68L208.57,222.87L209.01,223.57L210.71,225.32L210.39,226.28L210.55,226.96L212.01,226.29L212.76,227.38L214.69,226.52L215.6,227.55L216.78,228.25L217.12,227.46L219.34,226.29L220.12,226.22L221.5,224.85L222.92,225.41L225.13,224.75L227.19,225.54L227.49,226.31L228.88,226.42L229.34,227.75L230.24,227.89L230.55,229.14L230.29,229.91L228.81,231.09L229.47,231.57L230.51,231.58L230.55,232.44L229.65,232.81L229.1,233.47L228.97,234.76L227.03,234.88L225.84,235.57L223.54,234.89L222.7,233.35L222.31,234.73L220.49,235.33L218.62,235.06L217.66,235.4L217.04,235.09L215.9,235.47L214.48,235.37L214.01,235.62L212.31,235.43L212.07,234.55L212.48,233.19L211.78,233.06L211.58,233.73L210.68,233.6L210.73,234.33L209.98,234.97L209.4,235.02L207.95,234.52L207.48,233.88L206,234.23L205.07,233.12L204.63,231.1L204.83,230.52L204.28,229.67L204.12,228.73L204.85,226.18L204.61,224.62L203.18,221.5L202.76,220.29L201.58,220.99L199.39,220.82L198.29,221.07L197.94,220.22L196.73,219.14L197.24,218.7L195.5,217.23L195.92,216.27L195.14,215.34L195.26,214.81L196.68,214.1L197.55,213.98ZM193.33,219.32L193.32,220.73L193.68,221.78L193.43,223.83L193.53,224.58L193,225.52L193.93,226.06L193.92,227.06L192.96,228.17L193.13,230.57L192.47,231.24L191.55,231.43L189.81,231.15L189.39,231.63L188.14,231.44L187.68,229.76L187.88,229.19L187.17,228.25L188.05,227.8L189.46,226.21L188.8,225.99L186.16,226.74L185.63,226.6L183.42,227.37L182.9,226.66L184.02,225.19L184.24,224.38L185.35,224.73L185.7,223.39L184.79,222.62L185.5,221.48L184.25,220.89L184.82,219.56L185.88,219.8L186.46,221.23L188.58,223.84L188.67,223.08L187.89,221.01L188.27,220.25L187.29,219.93L186.93,218.81L187.83,218.02L189.3,217.93L190.32,219.43L190.89,219.32L190.62,218.01L191.26,217.31ZM201.83,231.28L202,232.63L201.83,233.92L200.93,234.28L199.47,234.3L198.27,233.12L197.08,232.83L196.25,232.13L195.65,230.72L196.44,229.59L196.55,228.63L197.48,227.25L198.75,226.48L200.02,226.72L201.41,228.71L201.93,230.41ZM185.16,208.05L184.37,208.09L183.6,207.34L183.62,206.27L185.27,206.16L186.32,206.93L186.57,207.68ZM231.46,223.95L230.47,224.79L230.16,224.31L231.57,222.09L231.9,222.42ZM197.86,207.13L198.38,207.5L199.53,207.28L201.75,207.34L202.33,207.64L201.88,210.17L196.83,210.07L196.27,209.03L196.51,207.88ZM209.42,212.1L208.61,212.61L207.05,211.52L206.73,210.98L206.73,208.9L207.36,208.45L208.73,209.02L209.66,210.47ZM261.44,313.29L261.37,313.57L260.62,313.11L260.56,312.73L260.95,312.68ZM254.26,268.46L253.68,268.23L254.11,267.65L254.59,267.93ZM197.8,268.27L198.07,268.66L197.84,269.58L196.82,268.88L197.06,268.08ZM188.18,272.69L187.88,273.13L187.36,272.82L187.37,271.65L187.78,271.43L188.26,272.14ZM216.05,278.61L215.5,278.2L215.53,277.12L215.3,276.62L215.83,275.49L216.4,276.17L216.48,277.57ZM253.61,313.81L253.4,313.31L253.8,312.48L254.27,312.57L254.41,313.18ZM184.85,273.93L183.99,273.5L184.51,272.58L185.1,273.16ZM230.7,267.01L230.84,267.46L230.45,267.94L229.78,268.07L229.21,268.49L228.2,267.23L229.1,266.93L229.6,267.3L230.37,266.88ZM193.86,267.87L194.28,267.69L195.02,268.64L196.19,269.61L196.91,271.45L197.9,273.02L197.45,273.09L195.99,274.58L195.58,274.63L194.74,274.2L193.8,274.17L192.95,273.45L191.02,272.51L190.87,271.98L190.15,272.37L189.77,272.06L189.52,271.39L189.74,270.84L190.85,270.63L191.78,269.66L191.59,268.44L192.12,267.95L192.17,267.21L192.55,266.74L193.14,266.57L193.92,267.3ZM188.62,239.56L190.35,241.13L192.4,240.5L193.57,239.99L194.3,240.31L194.76,241.61L193.95,242.35L194.2,243.63L193.13,244.35L191.82,246.36L193.28,246.11L194.09,246.8L193.99,247.31L194.59,248.01L194.66,248.88L195.7,248.45L195.91,249.9L195.74,250.54L195.18,251.07L195.59,251.81L195.24,252.86L195.53,253.38L195.55,254.26L194.87,254.54L194.31,255.31L193.57,255.6L192.34,255.38L192.31,256.82L191.36,257.7L190.33,257.29L189.17,254.76L187.96,253.14L187.41,252.16L186.61,251.77L186.15,251.05L185.56,251.31L185.1,251.07L184.59,249.91L183.71,249.17L183.07,247.87L183.5,246.32L184.12,245.82L184.69,245.96L185.47,247.18L185.86,248.13L186.4,248.35L187.63,247.94L187.81,246.52L188.43,246.62L188.05,245.52L187.54,245.39L187.73,244.57L186.8,244.42L185.66,243.31L185.92,242.29L186.63,242.09L186.75,240.59L187.63,240.31ZM191.1,183.82L191,186.66L190.05,186.12L189.62,184.92L188.43,184.55L188.51,182.49L189.17,181.89L190.89,182.63ZM219.48,291.32L220.1,290.4L220.81,290.79L221.18,291.53L222.57,292.08L222.95,292.74L224.08,293.64L224.89,293.93L225.35,294.3L225.88,295.34L226.11,296.34L226.03,297.24L226.81,296.98L227.48,297.18L227.84,296.92L228.36,297.76L229.01,298.26L228.92,298.44L227.4,299.83L225.52,298.89L224.67,298.7L224.49,297.68L223.33,297.23L223.27,296.59L222.39,296.87L222.14,297.28L221.91,298.21L221.31,298.92L220.73,299.26L220.06,300.52L219.39,301.03L218.51,301.38L218.3,301.3L217.85,298.92L217.66,298.7L216.65,298.93L216.09,298.9L215.53,299.3L214.86,299.21L214.83,298.86L215.45,297.69L216.4,297.1L216.75,296.7L216.54,295.57L216.5,294.67L216.88,292.54L217.03,290.55L217.34,289.13L217.65,288.49L218.18,288.06L218.82,288.68L219.1,289.54L218.82,290.09L219.2,290.45ZM181.62,191.4L182.66,192.33L183.2,193.81L183.04,195.16L184.79,193.88L186.51,195.74L186.75,197.14L187.73,196.75L189.42,199.22L188.94,200.71L189.13,202.08L190.4,203.94L190.67,205.13L190.33,206.5L188.71,207.11L187.43,206.16L186.43,203.18L184.42,202.32L183.29,202.63L183.04,201.39L179.78,202.42L178.88,201.59L178.4,199.89L178.95,199.26L180.92,199.88L181.5,199.11L181.43,197.28L180.12,196.81L180.7,195.87L178.94,194.93L178.6,194.28L177.3,194.48L177.23,193.06L177.6,191.31L178.71,191.45L181.04,191ZM179.33,274.94L178.47,274.46L178.58,273.96L179.21,274.07L179.48,274.39ZM238.39,275.4L239.45,275.89L239.64,276.4L239.51,277.36L239.59,278.52L239.51,279.68L238.95,280.59L238.17,281.03L236.3,281.28L235.67,281.11L235.36,280.36L235.05,278.77L235.21,277.99L236.21,275.9L236.98,275.42ZM177.8,246.92L177.51,246.8L176.2,244.98L175.98,244.22L175.27,243.44L174.46,242.96L175.09,241.4L177.35,240.88L178.16,241.04L179.11,241.99L179.31,242.52L179.25,243.86L178.82,245.18ZM195.21,246.81L194.57,246.38L194.62,245.45L195.04,245.04L195.58,245.85ZM229.59,329.5L229.53,329.09L230.19,328.77L230.18,329.06ZM205.22,169.44L206.48,173.14L207.68,175.21L207.77,176.39L209.36,177.58L210.79,177.81L210.72,180.46L212.07,182.04L211.86,178.95L212.92,178.43L213.84,179.13L213.94,181.37L213.33,182.44L214.81,183.09L215.27,184.84L214.92,187.51L215.94,187.7L218.29,189.01L219.18,191.26L218.72,192.58L217.08,193.76L215.19,195.92L213.96,198.26L213.46,197.94L212.59,200.11L211.93,201.18L211.56,203.19L209.8,203.19L208.47,201.83L208.41,203.27L207.83,203.62L205.2,202.75L203.6,201.21L203.51,200.21L205.12,199.44L202.4,198.96L201.65,197.48L202.26,196.87L201.1,196.2L200.57,194.9L202.34,193.33L203.59,192.82L203.87,191.76L205.26,191.38L204,190.03L203.31,189.91L201.04,191.68L201.02,190.63L200.07,190.57L198.64,191.68L197.35,190.26L197.5,189.04L198.25,187.62L197.1,187.38L195.86,185.38L195.23,181.99L197.25,182.81L199.58,183.02L199.69,181.2L198.02,182L196.05,180.1L196.12,179.37L197.6,178.84L196.5,176.89L196.54,175.16L197.39,174.73L199.68,175.8L199.29,174.4L197.8,173.29L198.3,171.18L199.84,170.78L202.46,169.49L202.11,168.43L200.5,168L200.78,166.53L202.26,166.33L204.15,167.5ZM235.69,270.77L235.24,270.8L234.9,270.02L235.03,269.19L236.2,269.26L236.32,269.7ZM231.62,276.12L231.23,275.88L231.27,275.33L231.68,275.23L231.94,275.7ZM172.46,280.4L171.95,280.25L172,279.19L172.28,279.22ZM199.32,314.79L197.42,314.79L194.65,314.79L192.81,314.79L190.05,314.79L187.29,314.79L184.53,314.79L184.53,312.81L184.53,308.76L184.52,304.57L184.52,300.25L184.53,296.27L180.97,295.62L178.29,295.13L173.83,294.31L170.27,293.65L169.77,293.49L169.16,293.05L166.8,290.16L163.04,290.13L160.43,288.19L158.86,287.01L156.25,285.02L154.16,283.4L152.07,281.77L148.93,279.27L146.32,277.16L146.32,271.41L146.31,268.31L147.11,269.17L148.01,269.62L150.02,270.11L151.6,271.35L153.21,271.96L155.76,272.41L155.38,271.83L156.65,271.75L157.95,272.44L159.14,273.52L160.06,274.97L159.79,275.71L159.42,275.81L158.42,275.69L158.24,276.1L157.68,276.45L157.6,277.07L157.06,277.59L157.66,278.16L158.63,278.29L159.44,278.63L160.63,278.8L162.28,278.91L163.18,278.88L163.59,278.63L164.94,278.49L165.73,278.14L166.14,278.31L167.41,277.42L168.08,277.3L168.92,278.62L170.05,278.74L170.31,279.91L171.04,279.39L171.55,280.39L172.28,281.17L172.44,281.67L172.08,282.15L171.33,282.19L172.75,284.16L172.85,283.87L172.78,282.72L173.02,282.5L173.98,283.14L173.59,282.23L172.99,280.49L172.97,279.81L172.31,278.63L172.34,278.16L172.74,277.68L172.75,277L173.59,276.84L174.64,276.47L174.98,275.99L175.48,276.07L175.52,275.42L176.27,274.93L176.8,274.26L176.49,273.65L175.41,274.32L175.1,275.21L174.41,275.11L174,275.5L173.04,275.35L172.8,276.22L171.72,276.35L170.85,275.65L170.95,275.09L171.62,273.79L173.41,273.35L176.01,272.05L176.76,272.36L177.29,273.19L177.52,274.65L178,275.36L179.14,276L179.44,276.83L180.04,277L181.14,276.8L181.52,276.54L183.12,278.2L184.1,278.62L184.77,278.56L185.44,278.84L186.87,278.27L187.69,278.05L189.09,278.18L190.37,278.67L190.83,278.66L191.86,278.12L191.28,277.36L191.87,277.24L192.86,278.74L193.83,279.25L194.44,278.66L194.34,277.96L193.64,277.39L193.25,277.29L192.49,277.7L191.82,276.82L191.94,276.45L191.42,275.35L191.76,275.07L192.27,275.43L193.14,275.04L192.84,274.35L194.22,274.68L194.81,275.77L195.82,275.84L195.91,276.35L196.65,275.88L196.73,276.31L196.4,278.71L196.05,279.59L196.78,281.09L197.25,281.5L198.32,281.14L197.9,279.28L197.52,278.6L197.91,277.06L198.6,276.72L199.38,276.79L200.38,275.54L201.05,274.56L201.61,274.17L201.55,272.23L201.11,271.69L200.92,272.61L199.92,273.05L199.67,272.71L199.75,272.09L200.73,270.89L200.38,270.72L200.38,269.79L201.69,269.27L201.62,268.59L200.87,269.01L200.34,268.97L199.6,267.83L199.22,268.25L198.26,267.72L197.41,267.07L196.7,266.75L195.8,265L195.69,263.77L196.34,262.46L195.68,260.81L195.98,257.89L196.52,257.1L197.7,257.48L198.02,256.49L197.15,256.27L197.14,255.8L198.44,253.8L199.76,253.31L200.27,254.72L201.29,254.71L201.38,255.54L202.42,256.69L203.05,257.96L203.18,259.18L202.98,260.54L204.2,261.79L204.89,263.39L205.36,263.69L205.88,264.68L205,264.89L204.4,264.3L203.94,265.13L205.04,265.52L204.41,266.39L203.45,267.45L204.35,267.69L205.17,268.52L205.55,268.44L206.25,267.83L206.45,268.45L207.95,268.68L207.4,269.92L206.55,269.95L207.56,270.98L208.12,272.37L207.91,274.55L208.58,275.7L209.07,274.98L209.33,274.29L209.76,271.51L210.41,270.29L211.01,270.06L211.87,271.25L212.53,271.85L213.09,272.66L213.56,274.95L213.39,275.81L212.46,275.59L212.53,277.44L212.77,278.45L213.18,279.2L214.2,280.65L214.36,281.39L214.67,281.55L216.17,279.79L216.29,278.73L216.51,278.13L217.36,276.78L217.82,274.72L217.81,273.68L218.25,272.9L218.75,273.06L219.48,271.81L219.59,271.17L218.52,270.26L218.46,268.42L218.28,267.81L218.27,266.67L219.27,266.91L220.04,266.64L220.86,266.73L222.04,267.53L224.18,267.58L224.68,267.87L224.13,268.95L224.81,269.23L225.14,270.16L225.55,270L226.65,270.45L226.82,270.9L226.24,271.57L225.55,272.11L226.71,272.44L226.96,272.84L226.92,273.53L226.42,274.1L225.44,274.62L225.02,274.38L224.32,274.71L224.99,276.38L225.42,276.22L225.24,277.23L225.5,277.92L226.65,279.36L226.94,280.09L226.54,282.15L226.21,282.51L225.71,282.58L225.04,283.75L224.14,284.66L223.51,284.85L222.79,285.66L222.33,285.78L221.52,284.19L220.69,283.66L220.8,283.36L220.26,282.66L220.05,283.03L220.9,284.17L221.16,284.98L221.71,286.18L221.55,286.58L220.76,286.18L220.38,286.75L219.11,286L218.41,284.92L218.08,284.76L217.14,285.01L215.97,284.95L215.74,285.54L216.07,286.02L217.26,286.71L217.18,287.54L215.32,290L214.62,290.86L213.24,290.88L211.8,289.59L211.65,289.26L210.95,288.96L210.27,288.35L209.59,287.97L209.39,288.29L208.84,288.24L207.02,287.82L207.07,288.06L208.98,288.63L209.52,288.97L210.63,290.41L211.18,290.89L212.77,291.22L214.42,291.32L215.16,291.62L215.16,292.28L214.65,293.42L213.41,295.46L212.96,296.48L211.84,297.29L211.01,297.18L210.69,297.41L210.3,297.15L209.87,297.2L209.57,296.87L209.18,296.96L209.37,297.44L208.79,297.42L209.05,298.25L208.58,299L207.86,298.91L207.64,299.21L207.15,299.25L205.93,298.61L204.59,298.38L203.87,298.13L203.01,297.63L201.72,297.15L201.59,297.61L202.09,298.09L202.17,297.58L203.91,298.45L204.67,298.77L205.31,298.74L206.36,299.62L207.1,299.91L207.55,300.33L207.67,301.42L207.3,302.17L206.8,302.28L206.12,302.8L204.92,302.54L204.25,302.73L204.49,303.34L205.08,303.51L204.97,303.98L204.57,303.78L203.86,303.95L203.77,304.29L203.22,305.01L202.91,305.95L202.18,306.66L202.08,307.63L201.49,308.08L201.02,308.76L201.13,309.18L200.77,309.29L200.76,310.05L199.73,312.56L199.34,312.74L199.58,313.08ZM221.92,288.67L222.92,289.17L222.62,289.5L222.1,289.19L221.74,288.72L221.11,288.79L221.06,288.07L220.43,287.33L220.52,286.99L221.46,287.51L221.97,288.05ZM219.98,289.77L219.75,289.8L219.03,288.55L219,287.57L219.44,287.61L219.94,288.69L220.12,289.36ZM233.57,267.44L233.69,267.89L232.67,268.69L232.02,268.57L232.45,267.89ZM192.16,240.13L190.72,240.55L189.88,240.05L190.87,239.11L192.59,238.38L193.33,238.35L193.22,239.12ZM233.88,299.79L234.24,299.97L234.58,300.62L234.46,301.07L233.75,301.41L233.11,300.84L232.67,300.3L232.59,299.87L233.15,299.7ZM154.14,267.83L154.47,267.56L153.69,266.41L153.73,265.73L158.99,265.74L162.27,265.74L162.28,266.74L162.74,266.73L163.05,265.74L168.17,265.74L168.17,259.07L168.16,252.02L168.16,246.49L169.25,247.7L169.96,248.26L170.83,249.82L171.83,254.8L172.41,255.54L173.59,254.36L173.68,253.86L172.88,252.18L172.62,250.2L172.4,249.67L171.77,245.62L172.3,244.91L172.07,244.22L172.83,244.04L174.07,245.01L174.4,244.42L175.36,244.98L176.73,246.29L177.55,247.84L177.92,250.39L178.87,254.04L179.65,255.94L179.73,256.86L179.28,258.96L180.1,260.07L180.54,261.1L181.29,261.92L182.27,262.66L183,262.59L184.55,264.03L185.27,264.15L185.43,264.94L186.27,264.86L186.63,265.57L186.71,267.44L186.14,267.65L185.76,267.24L185.25,267.54L184.05,266.69L183.31,267.42L183.26,268.4L182.65,268.32L181.75,267.62L181.54,267.86L182.2,268.72L182.41,269.47L182.72,269.63L183.62,268.84L184.22,268.77L184.58,269.24L184.4,269.98L184.9,270.34L184.82,271.45L183.53,272.22L182.7,272.59L181.53,272.68L180.3,272.36L179.72,272L179.27,272.32L178.18,272.04L178.35,271.13L177.3,270.83L176.06,270.66L175.65,270.3L175.61,269.4L175,269.06L174.6,269.59L174.23,270.55L173.4,271.58L172.54,271.85L171.51,271.96L170.32,272.95L169.25,273.42L168.25,273.68L166.43,273.97L165.86,273.92L165.48,274.18L163.45,274.32L162.31,274.54L161.77,274.45L161.34,273.86L160.77,272.51L160.82,271.82L160.61,270.47L159.32,270.04L157.61,270.07L156.67,269.96L155.68,269.65L154.84,269.14ZM230.49,241.7L230.84,241.79L233.05,241.61L235.25,242.82L235.67,243.85L236.17,244.17L236.56,245.24L237.13,245.79L237.09,246.38L237.54,247.19L236.9,247.61L233.97,247.08L232.99,247.19L231.31,247.95L230.56,248.06L229.67,247.31L229.16,244.78L228.28,244.45L227.85,243.67L227.8,241.21L228.7,240.89L229.29,241.31ZM230.47,304.55L231,305.27L230.92,306.24L230.12,308.03L229.92,308.11L229,307.14L229.01,305.88L229.5,304.85L229.81,304.58ZM230.8,344.35L230.27,344.16L230.9,343.87ZM236.34,300.14L235.56,299.88L234.93,299.25L235.4,298.81L236.16,299.31L236.39,299.63ZM260.59,303.9L261.22,303.93L261.29,304.52L260.93,304.67L260.43,304.51ZM231.15,272.47L230.76,272.03L231.09,271.31L231.79,270.82L232.28,270.08L232.41,269.46L232.95,269.37L233.16,269.84L232.54,270.75L231.89,272.07ZM202.59,237.96L203.98,238.7L204.53,239.36L205.75,238.95L206.86,239.09L207.8,239.52L208.36,240.13L207.92,241.46L207.17,242.61L205.77,246.18L204.75,248.07L204.19,248.32L202.25,247.74L200.47,248.05L201.37,248.66L201.77,249.41L201.81,250.35L201.16,251.48L200.82,252.98L199.88,252.88L198.46,252.99L198.51,251.97L198.34,249.8L197.73,247.88L197.6,246.77L197.65,245.14L197.56,241.4L198.73,240.6L198.54,239.66L198.91,238.85L199.91,238.32L201.34,238.28L202.11,237.82ZM249.31,303.94L248.43,303.73L248.26,303.25L247.68,302.47L248.62,302.79L249.09,303.12L249.4,303.64ZM216.06,259.55L217,259.31L217.99,258.66L219.12,258.66L219.74,259.03L220.01,255.88L219.64,255.41L218.8,255.3L218.09,254.05L217.45,253.26L218.19,252.49L218.48,251.74L220.04,251.91L219.63,251.11L219.62,250.45L218.61,250.35L218.01,248.9L217.99,247.93L218.38,246.89L218.77,246.68L218.38,245.62L219.27,243.99L220.51,243.13L221.17,243.11L221.91,242.27L224.1,241.15L225.56,241.15L226.26,241.39L226.79,242.11L227.18,244.15L228.15,245.2L228.33,246.87L228.98,248.13L228.16,249.41L228.3,250.32L227.61,251.77L228.13,252.48L227.66,252.69L227.9,253.64L228.75,252.18L229.3,251.74L229.45,250.53L229.99,250.23L230.25,250.95L230.92,250.55L231.59,251.35L232.2,250.82L232.75,251.3L233.39,251.3L234.19,251.97L234.58,251.71L233.04,250.76L232.65,249.75L232.91,249.13L233.63,248.53L234.52,248.19L235.9,248.3L237.34,249.32L238.33,249.33L239.39,250.26L239.66,251.66L238.96,252.91L239.97,252.5L241.27,252.92L241.17,254.21L239.99,254.97L240.38,255.3L241.53,255.25L241.83,254.82L242.4,255.01L242.4,255.87L242.88,256.57L244.06,255.28L244.72,255.74L245.67,255.84L246.64,256.33L247.43,257.32L247.5,258.11L246.94,258.95L246.43,259.32L247.57,259.76L248.38,258.97L248.7,259.58L248.66,260.43L247.91,261.65L246.75,262.32L247.39,262.72L247.31,264.49L247.99,262.22L248.85,261.25L250.1,260.59L250.62,260.96L251.7,261.09L253.08,262.04L253.36,262.58L253.1,263.24L252.47,263.79L251.43,264.08L250.61,264.61L249.87,265.32L250.42,265.47L251.06,264.79L252.21,264.5L252.61,264.87L252.03,265.87L252.57,266.1L253.44,264.78L253.67,264.05L254.39,264.05L255.39,265.54L255.78,266.94L255.6,267.4L254.49,267.07L253.86,267.21L253.33,267.86L252.72,267.86L251.79,268.27L251.89,268.6L253.04,268.25L253.97,268.84L255.4,268.86L256.6,269.65L256.79,270.5L256.54,270.72L255.15,270.63L254.22,270.17L253.47,270.64L254.6,271.37L254.6,271.97L254.33,272.82L253.43,272.48L252.61,272.67L253.78,273.4L254.01,274.13L254.79,274.13L255.2,274.42L256.62,274.83L256.07,275.38L256.69,276.47L257.1,275.8L257.75,275.63L257.62,276.95L257.72,277.4L258.46,277.59L258.79,277.25L259.61,277.5L260.27,276.94L260.56,277.23L260.17,277.76L260.18,278.33L261.19,278.19L261.95,279.22L262.58,279.52L262.11,279.9L262.26,280.69L261.65,280.66L261.54,281.17L262.61,281.13L263.11,280.53L263.67,280.75L264.24,281.28L263.79,282.39L262.88,283.45L264.4,282.79L265.59,283.01L266.11,282.28L266.43,282.42L267.8,284.35L267.33,284.81L266.56,284.19L266.18,284.46L267.07,285.1L267.24,285.76L266.65,286.07L266.04,285.94L265.53,286.05L265.27,286.5L265.87,286.91L266.38,287.47L265.35,287.78L265.58,288.49L265.12,289.03L265.02,289.45L264.38,289.54L263.46,289.11L263.57,289.93L263.58,291.47L263.5,292.01L263.08,292.93L262.49,292.06L261.96,292.26L261.31,291.36L260.91,291.76L260,290.32L259.41,288.83L259.85,287.95L260.53,287.57L260.22,287.26L259.6,287.61L258.54,287.67L258.47,287.22L257.21,286.24L256.57,284.83L255.49,285.01L255.74,285.46L255.5,286.11L254.99,285.62L254.33,285.28L254.69,286.29L255.76,287.48L255.58,287.88L255.01,288.05L254.44,287.83L253.79,287L253.56,287.96L253.85,288.52L254.36,288.79L254.18,289.53L254.28,289.83L254.97,289.43L255.32,289.71L255.51,290.23L255.47,290.85L256,291.4L256.2,292.17L256.42,292.14L257.72,293.29L258.31,293.14L258.66,293.29L259.18,294L259.66,294.36L259.18,294.86L259.86,294.94L260.07,295.28L259.79,295.91L259.19,295.84L260.21,297.3L260.88,297.21L261.43,298.7L261.12,298.82L261.25,299.82L261.22,300.73L260.85,300.71L260.46,299.43L260.04,299.16L260.22,300.41L260.09,300.73L260.9,302.27L260.38,302.42L259.89,302.23L260.13,303.26L259.68,303.2L258.71,302.23L258.22,301.92L257.33,301.8L256.88,301.56L256.19,300.77L255.77,300.54L255.12,299.74L254.68,299.03L254.45,299.03L254.42,299.88L253.08,298.61L252.33,298.49L252.23,298.72L252.72,299.59L253.32,300.33L253.8,301.14L254.75,301.5L254.63,301.88L255.18,302.16L255.7,302.63L256.18,303.26L256.86,303.7L257.61,305.03L258.22,305.44L257.91,305.91L258.06,306.73L257.66,306.93L257.05,306.68L256.54,306.3L255.77,306.04L255.23,305.69L253.31,305.33L251.88,304.58L251.29,303.84L250.93,303.07L250.41,302.86L249.51,302.99L247.43,301.73L246.69,301.08L245.96,299.97L246.53,299.97L247.02,299.59L246.47,298.7L245.45,298.69L244.71,297.8L244.6,297.39L244.04,296.79L242.95,295.35L243.29,294.7L242.58,294.5L242,294.61L241.92,295.15L241.61,295.25L241.55,294.47L240.77,294.17L240.52,293.43L239.93,293.72L240.51,294.71L240.39,295L239.63,295.19L238.77,294.79L238.31,294.87L238.2,295.5L237.48,295.57L236.24,296.2L235.1,296.02L234.39,295.63L234.06,295.61L233.54,294.99L233.27,294.42L233.24,293.78L233.44,292.88L233.88,292.23L234.76,291.8L234.93,291.52L234.73,290.99L235.01,290.37L236.13,290.57L236.74,290.78L238.07,291.48L238.32,291.05L239.43,291.2L239.81,290.73L240.45,290.8L241.02,290.65L241.33,290.22L242.71,289.93L242.33,288.82L241.75,288.27L240.93,286.95L241.05,286.6L241.95,285.84L243.45,284.09L243.79,283.94L244.29,282.36L245.16,281.82L245.46,281.18L245.18,280.72L244.73,279.02L243.73,276.59L243.19,275.71L242.54,275.55L242.06,274.81L242.26,273.98L242.12,273.28L241.57,273.29L241.88,273.97L241.44,274.21L240.95,273.97L240.49,273.25L240.28,272.21L239.94,271.69L239.33,272.11L238.7,271.86L238.49,272.23L236.9,273.33L236.46,273.17L236.58,271.54L236.94,271.29L237.82,271.41L238.4,270.68L238.16,269.76L236.89,269.05L236.66,268.61L235.41,267.81L235.95,267.26L235.64,266.72L234.67,266.72L234.38,266.34L234.2,264.72L233.95,264.26L233.05,264.37L232.36,263.62L231.63,262.22L230.88,262.83L230.88,263.5L231.55,263.79L231.97,264.67L232.04,265.46L231.81,265.88L230.97,266.38L230.33,266.38L229.21,265.77L227.29,265.2L227.09,265.85L227.65,266.64L227.65,267.35L226.34,266.09L225.16,266.69L224.45,266.55L223.22,265.72L221.65,265.97L220.29,265.72L219.5,265.28L218.43,265.08L217.72,265.53L216.61,264.87L215.99,263.32L214.97,263.26L215.09,263.79L214.19,263.78L213.38,264.23L212.35,263.07L211.44,262.58L210.7,261.12L210.38,259.2L211.75,259.33L213.49,259.97L214.85,259.7L213.43,258.3L211.97,258.1L210.97,257.79L209.71,256.93L209.4,256.48L209.03,253.51L209.22,252.84L209.77,252.12L209.44,251.79L209.37,250.41L210.4,247.73L210.59,245.88L211.73,243.51L213.75,241.2L215.69,240.38L217.37,240.26L219.08,240.57L219.36,241.4L217.92,243.09L217.09,244.53L215.98,247.26L216.05,248.71L216.61,250.08L216.57,252.35L216.82,253.83L217.19,254.68L219.26,257.38L218.48,258.18L217.38,258.59ZM251.04,141.36L253.87,142.29L256.97,142.57L256.47,144.66L253.36,146.94L255.32,147.08L258.74,144.26L260.68,143.7L263.35,145.42L263.11,146.67L264.14,148.72L266.98,149.93L267.61,150.66L267.85,153.15L266,156.7L263.11,159.59L261.1,161.19L259.76,161.05L259.21,162.12L256.9,162.84L256.31,164.67L252.68,167.29L253.44,167.73L258.72,164.55L260.68,164.56L259.24,167.41L256.69,170.66L252.8,175.32L251.23,178.51L249.7,178.82L249.46,180.81L246.99,181.87L248.84,182.49L248.45,183.62L247.22,184.64L247.73,185.38L247.16,186.37L245.01,187.15L242.94,185.62L243.39,187.72L242.91,189.4L239.24,190.23L237.12,190.31L237.49,191.29L239.58,192.63L240.83,192.35L240.73,194.27L239.29,194.45L237.9,193.56L234.86,194.22L232.44,194.03L233.87,195.45L236.04,194.64L237.2,194.76L238.14,196.01L239.57,196.34L240.93,197.76L240.7,198.84L240.02,199.62L236.96,199.86L238.77,201.06L239.37,201.83L238.64,202.91L238,205.01L235.73,205.82L233.61,205.63L233.46,206.61L233.48,209.74L233.05,210.74L231.85,211.5L229.73,211.8L228.37,211.66L228.16,212.32L228.98,213.18L229.7,212.79L230.89,213.11L231.13,215.14L232.01,215.61L233.04,214.76L233.63,215.9L233.67,216.77L233.05,218.4L230.54,220.67L228.13,221.82L227.5,221.49L227.83,220.16L227.14,218.91L226.28,219.16L225.38,217.88L224.72,217.82L224.97,219.32L222.61,219.55L221.59,219.43L220.9,217.48L220.79,220.27L219.02,220.72L217.92,220.34L216.66,219.09L216.12,218.88L215.87,220.1L214.49,219.48L214.2,220.01L212.36,219.85L211.53,219.4L209.96,219.09L210.11,216.12L212.36,213.61L214.48,213.31L215.48,212.72L215.01,211.73L214.34,211.35L213.62,209.99L212.98,207.83L213.14,207.2L214.2,206.36L215.18,206.16L216.91,207.57L218.11,210.29L219.85,211.23L221.41,210.95L222.16,210.47L221.81,209.61L220.36,209.34L219.6,209.93L218.72,209.36L218.71,207.4L218.19,205.81L220.1,203.16L219.49,202.72L218.11,204.02L216.82,204.3L216.39,203.15L215.4,203.85L214.09,203.35L214.21,200.92L215.32,198.38L215.61,197.23L217.9,196.5L218.84,195.88L221.55,196.55L222.85,197.27L223.42,196.49L223.28,195.48L220.71,195.1L220.27,193.74L220.95,192.4L219.13,188.08L218.38,187.2L217.2,186.83L216.4,185.41L216.01,182.14L216.64,179.78L218.98,180.35L221.24,180.47L221.92,180.87L224.68,184.68L225.74,186.82L227.47,187.16L224.77,182.81L223.48,180.28L224.35,179.09L227.54,178.23L229.44,177.2L230.3,175.71L232.84,173.98L235.98,172.78L232.5,172.22L232.34,170.62L231.18,169.64L230.34,172.73L229.27,174.24L227.48,175.62L224.7,176.8L223.64,176.59L224.76,174.69L222.58,174.88L221.2,176.86L218.68,177.24L217.83,176.55L216.75,176.74L216.03,175.51L216.75,173.91L218.81,171.35L219.97,170.64L222.69,169.83L222.81,169.24L217.71,170.73L214.54,175.43L213.76,175.6L211.29,173.71L210.59,172.31L212.33,171.2L214.42,171.34L216.29,170.72L219.14,167.92L217.52,168L215.99,169.58L214.66,170.13L209.85,170.77L209.19,168.91L210.7,167.88L209.83,167.17L210.25,166.02L211.9,164.45L211.17,163.89L208.46,165.83L207.95,164.96L209.4,162.91L207.8,162.29L206.21,163.38L205.71,161.9L206.59,160.42L208.08,159.13L210.35,158.55L212.01,156.43L213.91,156.08L214.77,157.33L215.98,156.58L217.99,158.02L218.68,156.69L216.08,154.55L219.52,150.54L222.19,152.44L223.38,155.23L224.35,153.64L228.41,157.27L229.27,156.92L225.45,153.17L224.53,150.89L226.1,149.46L225.2,148.14L228.2,145.45L229.39,146.47L231.16,146.04L229.25,143.4L229.77,142.67L232.56,143.45L234.7,143.58L236.86,147.04L237.42,148.96L238.61,148.03L235.86,142.98L235.42,141.49L238.24,140.84L243.18,141.66L244.25,140.27L245.94,139.92L247.09,141.28L248.22,139.98L250.06,139.67ZM215.4,265.07L216.01,265.11L215.76,265.89L214.83,265.64L214.56,265.13ZM231.94,329.73L231.88,329.41L232,328.85L232.29,329.09ZM228.04,341.69L227.47,341.64L225.78,340.98L225.37,340.66L225.76,340.2L226.81,340.07L227.22,340.13L227.97,341.09ZM180.2,231.21L179.14,231.01L178.63,230.33L179.11,228.7L179.73,228.05L180.84,228.74L181.17,230.21ZM231.72,329.28L231.41,330.01L231.23,330.68L231.03,330.54L231.29,329.76L231.13,329.61L230.75,330.5L230.02,330.96L230.57,329.92L230.43,329.82L229.74,330.73L229.54,330.51L230.37,329.36L230.78,329.24L231.03,328.04L231.66,328.71ZM198.23,235.35L197.26,235L197.81,234.34ZM242.59,278.35L241.05,278.32L240.64,278.11L240.29,277.26L240.37,276.81L241.04,276.66L242.97,277.34L243.03,278.3ZM260.57,309.09L259.42,308.25L259.34,307.87L259.96,307.72L260.66,307.82L260.9,308.12L260.85,308.64ZM196.39,199.76L197.71,199.91L198.79,200.79L199.08,201.66L198.18,202.87L198.98,204.05L198.68,205.17L196.78,206.2L194.78,207L194.57,205.75L193.89,205.28L193.41,204.21L194.68,203.95L194.1,203.08L193.09,202.81L192.19,200.8L192.59,199.48L192.12,198.09L192.28,196.91L193.98,197.14L195.61,198.14ZM225.45,302.13L225.47,302.93L225.22,303.48L224.29,304.59L223.37,305.44L222.63,305.31L221.97,305.65L221.56,304.26L221.89,303.85L222.63,302.35L223.47,302.49L224,302.17L224.51,302.21L224.97,302.03ZM240.01,275.25L238.95,274.27L239.18,273.36L239.8,273.59L240.18,274.65Z" class="land" id="CA-NU" title="Nunavut"/>
    <path d="M230.52,347.59L230.12,347.1L230.18,346.35L230.52,345.7ZM230.52,347.75L230.53,349.87L230.53,352.94L230.53,355.94L230.54,358.3L230.47,358.74L230.68,359.28L230.84,359.9L231.25,360.48L231.56,361.14L232.03,361.77L232.69,362.03L234.28,362.38L234.92,362.75L235.2,363.22L235.61,363.5L236.04,363.29L236.36,363.98L236.59,364.28L237.17,364.45L237.47,364.39L237.92,364.63L238.49,364.55L240.05,363.99L240.63,364.02L241,364.2L240.84,364.93L241.12,365.23L240.36,365.84L240.06,365.84L239.4,366.15L238.95,366.51L238.15,367.3L237.61,367.68L236.72,368.03L236.11,368.2L235.6,368.58L235.57,369.06L235.37,369.1L235.01,368.8L234.65,368.83L234.48,368.61L233.25,368.82L232.55,368.99L232.26,369L231.46,369.19L230.97,369.6L230.42,369.92L230,370.65L230.1,370.83L230.9,370.99L231.46,370.75L231.5,371.48L231.72,371.8L231.47,371.93L230.8,371.88L230.06,371.94L229.09,372.17L228.62,372.62L228.28,372.67L227.85,372.54L226.98,372.51L226.48,372.68L226,373.08L225.68,373.56L225.36,373.61L224.81,373.88L224.5,374.16L223.74,374.33L223.18,374.12L223.25,373.49L223.67,373.25L224.33,372.59L224.45,372.27L224.59,371.49L225.08,371.31L225.89,370.63L226.04,370.21L226,368.55L226.28,367.84L226.61,367.48L226.89,367.02L226.93,366.46L226.64,365.89L226.29,365.37L226.28,365.1L226.89,365.13L226.96,365.77L227.48,366.21L227.45,366.43L227.92,366.72L228.21,366.66L228.33,366.9L228.6,367.07L229.37,367.33L229.55,366.86L229.32,366.41L229.55,366.27L229.89,366.52L230.01,366.38L229.89,366.04L229.36,365.54L229.35,364.71L228.99,364.81L228.75,364.52L228.75,364.19L228.5,364.14L228.2,363.55L227.87,363.08L227.3,363.11L227.01,363.01L226.28,362.95L226.24,362.58L225.92,362.63L225.05,362.54L224.73,362.37L224.09,362.42L223.98,362.32L223.35,362.4L222.46,362.23L221.6,361.95L221.17,361.87L221.18,361.44L221.02,361.27L220.47,361.39L220.19,361.23L220.46,360.79L220.22,360.55L220.52,360.43L220.36,360.13L220.08,360.2L219.78,359.85L220.14,359L219.89,358.68L219.44,358.34L219.28,358.04L219.61,357.09L219.39,357.06L218.05,357.12L217.44,356.85L217.05,356.29L216.74,355.25L216.45,354.68L215.95,354.49L215.59,354.56L214.76,354.55L214.39,354.36L213.24,353.98L213.13,353.85L212.63,353.93L212.71,354.26L212.95,354.54L212.7,355.1L212.01,355.31L212.49,354.75L212.36,354.33L212.15,354.37L212.02,354.97L211.73,355.47L211.67,355.76L211.36,355.9L211.59,355.14L210.72,355.55L210.69,355.88L210.42,356.56L209.95,356.93L209.1,356.89L208.89,356.57L208.43,356.63L207.56,356.62L207.36,356.32L206.95,356.34L206.58,356.62L205.98,356.76L205.28,356.33L204.98,356.01L204.64,355.9L204.14,356.09L203.97,355.6L202.95,355.05L202.17,355.04L202,355.21L201.5,355.32L201.2,355.07L200.79,354.91L199.63,354.65L199.46,354.44L199.18,353.48L199.15,352.9L198.98,352.75L198.54,352.69L198.53,349.95L198.53,345.75L198.54,341.44L199.32,340.65L201.68,338.27L203.76,335.71L205.01,334.23L206.26,332.74L207.69,331.11L209.12,329.47L211.23,327.11L211.48,327.25L212.26,328.01L213.02,328.54L213.42,329L214.07,330.05L214.63,330.35L215.38,330.57L216.49,331.09L217.3,331.37L217.93,331.71L218.48,332.32L219.19,332.85L220.3,332.94L221.54,332.74L222.04,332.92L222.96,333.1L223.43,333.04L223.67,333.3L224.27,333.34L224.82,333.88L225,334.53L224.59,336.15L224.64,336.76L224.96,337.24L225.16,338.03L225.06,338.74L225.12,339.93L224.85,340.61L224.92,340.97L225.41,341.47L226.27,342.75L226.14,343.21L226.91,343.9L227.56,344.29L228.19,345L228.79,346.4L229.33,346.56L229.88,346.92ZM213.11,354.73L213,354.45L213.18,354.29L213.56,354.29L213.55,354.57ZM223.77,363L223.94,363.37L224.77,362.99L225.09,363.31L225.47,363L225.93,363.46L226.28,363.55L225.95,364.14L225.69,364.3L225.39,364.21L224.79,363.86L223.94,363.53L223.53,363.49L223.08,363.3L223.15,363.12ZM221.75,362.44L221.4,362.61L221.2,362.24L221.23,362.02L221.72,362.19Z" class="land" id="CA-ON" title="Ontario"/>
    <path d="M262.66,361.55L262.92,361.27L263.56,361.43L264.05,361.69L266.03,361.49L266.32,361.69L265.24,362.45L265.28,363L264.84,363.03L264.57,362.93L264.53,362.57L264.08,362.19L263.75,362.48L263.01,362.26L262.56,361.73L262.05,361.68L262.05,361.27L261.79,361.07L261.48,361.04L261.55,360.65L261.82,360.26L262.29,359.78L262.31,360.22L262.09,360.64L262.47,361.04L262.47,361.43Z" class="land" id="CA-PE" title="Prince Edward Island"/>
    <path d="M266.77,353.55L265.92,353.6L264.73,353.31L264.23,353.14L263.16,352.6L262.94,352.17L262.51,351.78L261.37,351.24L261.51,350.93L262,350.88L262.76,351.09L263.72,351.28L264.61,351.63L266.74,352.96L266.99,353.41ZM242.7,364.49L242.27,364.5L242.79,363.81ZM261.02,313.54L260.6,313.7L260.94,314.35L260.47,314.59L260.91,315.18L260.65,315.55L260.6,316.67L260.81,316.96L261.36,316.72L261.21,317.93L261.47,318.83L260.7,318.63L260.62,319.11L261.67,319.36L261.95,319.74L262.83,319.38L263.11,319.5L263.19,319.89L262.35,320.08L262.13,320.24L262.19,320.62L262.51,320.58L262.58,320.96L262.07,321.35L261.51,322.09L261.48,322.36L261.81,322.68L262.18,323.57L263.06,324.01L262.8,324.35L262.77,325.69L262.53,326.47L262.47,326.97L262.04,327.71L262.36,328.32L262.36,328.64L261.99,328.81L262.02,329.16L262.45,329.42L262.26,329.9L263.14,330.17L262.89,330.77L263.47,331.73L264,332.03L263.99,332.77L263.27,333.27L263.19,333.56L263.31,334.16L262.97,335.13L262.78,335.25L261.58,334.84L260.6,334.82L259.98,334.87L258.84,334.78L258.42,334.2L257.69,333.84L256.68,332.73L256.65,333.41L256.85,334.59L256.41,334.65L255.79,334.09L255.52,333.64L255.24,333.74L255.83,335.23L255.49,335.58L255.04,335.39L254.87,335.62L255.09,336.57L254.74,336.9L254.59,337.28L255.17,338.1L255.2,338.78L255.8,338.98L255.98,339.41L256.26,339.71L256.2,340.59L256.03,341.11L256,341.66L256.51,341.9L256.77,341.76L256.89,341.14L257.38,340.86L257.57,341.18L257.31,341.98L257.37,342.8L257.23,343.06L257.61,343.19L257.98,343.5L258.11,343.83L258.42,344.01L258.63,343.85L259.1,343.88L259.26,343.54L259.95,343.68L260.37,344.01L260.99,344.77L260.85,345.12L261.05,345.52L261.24,345.49L261.68,345.09L261.59,344.72L261.74,343.86L262.01,343.57L262.06,342.93L261.9,342.34L261.91,341.46L262.33,341.19L262.44,340.61L262.94,340.49L263.2,341.04L263.19,341.6L263.48,341.89L262.66,342.15L262.24,342.44L262.51,343.04L262.75,343.2L263.08,344.19L265.57,344.19L268.07,344.19L270.56,344.19L273.89,344.19L276.39,344.19L276.39,346.03L275.98,345.92L275.02,346.09L274.5,346.43L273.5,346.52L273.24,346.92L272.39,347.87L272.16,348.19L271.73,348.53L271.25,349.12L270.83,349.36L270.69,349.69L270.29,349.88L269.21,349.99L268.8,349.9L268.5,350.04L267.82,350.05L266.93,350.37L266.53,349.95L266.03,349.94L265.62,349.81L264.9,349.73L264.04,349.76L263.83,349.92L263.12,349.87L262.82,349.72L262.24,349.73L261.92,349.84L261.23,349.71L260.5,349.82L259.68,349.68L258.67,349.87L258.27,349.76L257.92,350.06L257.17,350.02L256.67,350.49L256.26,350.72L255.66,351.96L255.6,352.43L255.37,352.76L253.97,353.04L253.51,353.23L253.24,353.54L252.8,353.83L252.72,354.04L252.19,354.38L251.57,355.17L251.28,355.75L250.92,356.17L250.67,356.32L250.3,356.3L249.21,355.81L247.91,355.54L248.28,355.81L248.97,355.85L250.27,356.41L250.46,356.63L250.19,357.45L250.01,357.73L249.38,358.45L249.08,358.69L248.55,359.54L247.72,360.19L247.4,360.57L246.4,360.94L246.15,360.9L245.49,361.28L245.38,361.5L244.51,362.09L243.9,362.32L243.82,362.58L243.56,362.74L243.28,363.23L242.89,363.7L242.4,363.78L242.02,364.21L241.74,364.4L241.87,364.85L241.61,364.91L241.12,365.23L240.84,364.93L241,364.2L240.63,364.02L240.05,363.99L238.49,364.55L237.92,364.63L237.47,364.39L237.17,364.45L236.59,364.28L236.36,363.98L236.04,363.29L235.61,363.5L235.2,363.22L234.92,362.75L234.28,362.38L232.69,362.03L232.03,361.77L231.56,361.14L231.25,360.48L230.84,359.9L230.68,359.28L230.47,358.74L230.54,358.3L230.53,355.94L230.53,352.94L230.53,349.87L230.52,347.75L230.52,347.59L230.52,345.7L230.89,345.42L231.05,345.68L231.5,345.97L231.8,346.6L231.94,346.08L232.14,345.85L231.63,345.08L231.94,344.32L232.2,344.09L232.63,343.35L232.49,342.55L232.15,342.09L232.06,341.65L232.15,341.32L231.79,340.69L231.6,339.43L231.35,338.38L231.58,337.96L231.43,337.63L231.59,337.39L231.09,337.05L230.98,336.64L230.71,336.22L230.22,334.95L231.77,334.29L233.01,333.63L233.85,333.03L235.01,331.88L236.16,330.27L236.39,329.87L236.61,328.94L236.66,327.65L236.55,325.87L236.38,325.11L235.9,323.67L235.36,322.67L234.28,321.61L233.6,321.19L232.58,320.08L232.75,319.22L233.66,317.85L234.12,317.31L233.92,316.92L234.18,316.5L234.19,316.12L234.68,316.08L235,315.63L234.91,315.1L235.04,314.62L234.56,314.55L234.75,314.2L234.28,313.04L234.62,312.47L234.06,312.15L234.33,311.53L233.89,311.54L233.31,311.26L233.98,310.29L234.19,309.67L234.17,308.78L234.63,308.27L233.74,307.39L233.47,306.69L233.35,305.89L233.36,305.12L233.49,304.8L234.44,304.02L234.92,303.84L235.92,304.05L238.1,304.97L238.39,305.26L239.07,304.99L240.4,305.55L241.39,304.95L242.3,304.3L242.57,304.36L243.46,305.13L244.1,305.81L244.53,305.86L244.87,306.69L245.44,307.09L245.74,307.53L246.65,308.01L246.23,308.66L246.43,309.21L247.09,309.97L247.59,310.02L248.52,310.41L249.43,310.35L249.61,310.47L249.8,311.15L250.18,311.23L250.59,311L250.77,310.43L251.08,310.6L251.16,311.42L250.73,311.95L250.49,312.98L250.75,313.89L250.67,314.49L250.07,314.72L250.75,315.52L250.86,316.12L250.63,316.87L250.65,317.46L251.23,317.48L251.12,318.11L251.2,318.48L250.96,319.35L250.66,319.5L250.27,319.4L249.67,319.66L250.25,320.03L250.71,319.9L251.26,319.42L251.69,319.24L252.66,319.21L253.12,319.53L253.42,320.43L253.86,320.9L254.13,320.95L254.38,321.69L254.97,321.92L256.1,321.06L256.7,320.84L256.94,320.61L257.13,320.03L257.44,319.66L257.84,319.91L258.09,320.39L258.33,320.37L258.09,319.54L258.99,318.39L258.98,317.98L259.39,316.67L259.25,316.36L259.34,315.71L259.9,315.49L259.88,315.17L260.37,313.76L260.6,313.44ZM256.74,356.87L256.02,357.18L255.39,357.38L254.95,357.12L254.88,356.94L253.86,356.94L253.86,357.15L253.32,357.15L253.31,358.19L253.07,358.52L252.8,358.7L251.93,359.08L251.94,358.68L251.55,358.57L249.98,360.83L249.86,361.63L249.49,362.2L249.37,362.77L249.39,363.21L249.14,363.7L248.56,364.25L248.59,364.61L248.36,364.68L248.16,365.09L247.95,364.88L247.68,365.09L247.28,365.01L247.09,365.27L246.89,365.83L244.34,365.84L241.79,365.84L240.36,365.84L240.66,365.73L241.26,365.31L241.71,365.15L242.3,364.71L242.72,364.62L242.91,364.01L243.34,363.34L243.53,362.91L243.88,362.63L244.41,362.4L244.89,361.89L245.42,361.63L245.52,361.42L246.11,361.06L246.58,361L247.42,360.69L248.94,359.87L249.2,359.61L249.55,359.09L249.86,358.83L249.96,358.54L250.4,358.08L250.85,357.47L251.08,357.04L251.42,356.79L252.07,356.09L252.42,355.81L252.96,355.53L253.6,355.01L254.32,354.68L254.99,354.3L255.89,353.96L256.96,353.45L257.82,353.18L259.42,353.03L260.56,353.25L261.11,353.52L261.74,354.09L261.85,354.45L261.75,355.24L261.56,355.64L260.98,355.83L260.71,356.24L259.7,356.87L259.25,356.84L258.68,356.59L258.33,356.36L258.01,356.62L257.26,356.57ZM266.54,359.11L266.52,358.68L267.13,358.17L267.22,358.27L266.6,358.93Z" class="land" id="CA-QC" title="Quebec"/>
    <path d="M185.83,353.87L183.21,353.87L179.72,353.87L176.23,353.87L173.61,353.87L170.13,353.87L168.17,353.87L168.17,351.71L168.17,349.52L168.17,347.29L168.17,343.9L168.17,340.42L168.17,338.06L168.17,334.44L168.17,331.97L168.17,329.46L168.17,326.91L168.17,324.31L168.17,320.31L168.17,317.58L168.17,314.79L171.23,314.79L173.28,314.79L177.37,314.79L180.44,314.79L184.53,314.79L184.53,320.04L184.53,323.09L184.53,327.06L184.53,330.92L184.69,334L184.86,337L185.02,339.95L185.18,342.84L185.34,345.67L185.51,348.45L185.67,351.18Z" class="land" id="CA-SK" title="Saskatchewan"/>
    <path d="M848.24,314.78L847.18,314.79L845.21,314.79L844.95,314.45L845.16,313.38L843.94,313.45L843.33,314.05L842.35,313.57L842.2,313.9L841.23,313.56L841.23,311.13L841.23,307.39L841.23,303.55L841.23,299.58L841.23,295.5L841.23,289.85L841.23,285.44L841.23,282.41L841.23,277.73L841.23,274.51L841.23,267.82L842.45,268.1L843.33,267.99L844.95,268.61L845.96,269.77L847.11,270.72L848.24,271.4L848.24,314.78ZM111.76,271.4L112.4,271.8L113.51,272.22L114.07,272.19L114.07,272.19L114.06,278.55L114.63,279.8L114.76,280.92L114.53,281.57L114.72,282.5L118.95,282.5L119.49,283.47L119.55,284.33L119.81,284.77L119.5,286.11L119.92,286.21L119.95,286.76L119.73,287.17L119.91,287.84L121.24,287.51L121.48,288.01L121.9,287.5L122.46,287.88L122.02,288.37L122.55,289.07L122.76,289.66L122.45,290.42L121.94,291.22L122.1,292.13L122.43,292.4L122.14,292.79L122.03,293.64L122.5,293.73L123.05,294.11L123.74,294.91L123.64,295.55L124.01,295.55L124.47,295.18L124.99,295.45L125.35,296.31L125.32,296.68L125.9,297.57L126.2,297.71L126.95,298.44L127.12,299.03L127.57,299.72L127.04,300.48L127.6,301.51L128.01,301.62L127.83,302.68L128.29,303.72L128.86,304.1L128.71,304.42L128.75,305.63L129.76,306.05L130.19,305.84L130.52,306.21L130.92,306.94L131.15,307.04L131.35,307.61L132.14,308.37L132.78,308.46L133.24,309.07L133.33,310.11L133.5,310.42L133.61,311.5L134.07,311.64L134.37,311.48L135.43,311.45L135.71,311.11L136.7,311.52L137.17,311.3L137.72,311.23L137.87,310.81L138.33,310.84L138.49,311.53L138.3,312.06L138.7,312.76L139.01,312.85L139.11,313.35L139.53,314.28L139.54,314.63L139.89,314.79L136,314.79L132.11,314.79L128.21,314.79L126.27,314.79L122.37,314.79L120.42,314.79L116.53,314.79L114.58,314.79L111.76,314.78L111.76,271.4Z" class="land" id="CA-YT" title="Yukon"/>
  </g>
</svg>