<?xml version="1.0" encoding="UTF-8"?>
<svg xmlns="http://www.w3.org/2000/svg" width="741.79" height="256.98" viewBox="109.11 128.51 741.79 256.98" style="background-color:#000000">
  <!-- Created using SVG Map Generator: dojo.amcharts.com/svg-map-generator -->
  <style>
    .land { fill: #ffffff; stroke: #000000; stroke-width: 0.65; }
  </style>
  <g id="polygons">
    <path d="M763.17,378.96L758.93,377.93L757.74,378.96L753.72,379.17L750.26,377.93L748.01,378.27L740.04,373.53L733.67,373.53L728.32,372.49L725.71,372.79L722.44,373.9L713.46,371.72L707.31,371.01L704.19,371.13L698.75,372.61L696.16,372.98L691.21,372.98L685.38,374.51L676.71,373.99L667.89,374.74L666.49,375.47L662.09,374.96L658.84,377.21L655.79,378.34L650.63,378.58L650.32,374.69L655.13,373.85L657.71,370.37L662.61,370.04L664.33,369.55L666.56,367.7L669.14,369.63L672.06,368.47L675.54,370.46L679.31,370.29L679.92,369.4L682.78,370.17L683.15,367.36L686.67,367.79L690.62,366.02L693.28,362.81L693.04,356.71L692.51,353.69L694.59,351.68L694.5,350.41L695.93,344.57L696.88,343.39L701.11,343.56L702.78,340.09L702.68,337.13L704.68,338.24L705.36,341.6L707.09,341.1L708.85,338.69L711.68,338.74L714.93,339.92L715.53,336.74L714.65,334.2L718.13,332L717.59,329.35L718.84,329.22L722.07,331.62L723.15,333.93L725.8,334.31L725.13,335.82L729.02,338.22L729.74,340.09L733.03,340.87L737.95,338.59L744.33,338.41L747.27,336.35L747.7,333.3L749.52,334.19L754.35,330.45L757.37,331.75L762.45,330.7L762.4,333.2L760.28,335.58L763.62,339.76L762.05,341.17L760.82,340.76L759.43,343.8L756.56,345.78L757.55,347.88L757.63,351.42L756.47,353.17L756.82,355.7L758.51,358.74L758.68,361.49L759.68,363.58L755.84,365.98L755.94,368.66L757.15,371.25L759.04,373.14Z" class="land" id="CU-13" title="Santiago de Cuba"/>
    <path d="M650.63,378.58L645.26,378.47L640.12,376.78L637.51,376.89L636.38,377.93L632.68,377.21L630.91,377.67L628.57,380.26L620.98,380.62L616.66,381.68L611.34,381.7L607.14,382.84L603.98,382.33L602.78,380.9L604.13,377.17L607.47,374.51L610.74,368.98L615.46,364.66L617.44,363.59L619.14,361.06L623.25,358.67L625.65,356.08L632.52,352.84L634.84,352.08L635.91,349.46L637.8,349.89L640.61,349.06L641.96,345.9L645.26,343.71L645.48,340.23L647.38,336.68L645.26,333.25L642.76,331.4L640.33,330.45L639.68,331.67L636.65,329.56L636.62,327.45L638.24,326.71L639.68,324.22L637.21,322.64L634.04,322.36L631.54,318.94L630.06,318.42L631.82,317.37L632.99,315.55L637.17,313.47L639.2,314.79L645.88,314.99L650.39,316.76L654.96,315.7L657.8,316.22L664.15,316.45L665.79,317.23L667.06,319.94L671.93,317.98L673.43,319.27L678.33,320.88L681.51,319.81L682.65,321.05L682.65,323.83L686.78,325.18L691.15,327.61L696.1,329.29L695.71,330.82L703.85,333.16L707.18,336.02L708.85,338.69L707.09,341.1L705.36,341.6L704.68,338.24L702.68,337.13L702.78,340.09L701.11,343.56L696.88,343.39L695.93,344.57L694.5,350.41L694.59,351.68L692.51,353.69L693.04,356.71L693.28,362.81L690.62,366.02L686.67,367.79L683.15,367.36L682.78,370.17L679.92,369.4L679.31,370.29L675.54,370.46L672.06,368.47L669.14,369.63L666.56,367.7L664.33,369.55L662.61,370.04L657.71,370.37L655.13,373.85L650.32,374.69Z" class="land" id="CU-12" title="Granma"/>
    <path d="M441.8,237.4L435.86,235.66L433.85,233.98L430.3,232.84L428.19,231.03L420.76,223.02L418.91,221.52L421.7,217.09L417.5,214.05L418.48,212.94L415.69,210.43L414.38,211.45L412.39,210.89L412.03,212.45L414.72,214.95L416.61,218L416.62,221.52L413.7,220.41L408.27,220.56L407.4,216.79L406.58,215.63L403,215.85L401.26,215.16L398.2,215.95L392,212.97L390.43,211.03L387.56,209L387.43,206.16L385.28,204.76L385.64,200.81L386.47,199.18L384.62,198.06L386.34,194.61L385.43,193.71L388.14,191.16L391.67,189.08L396.39,189.92L398.5,189.82L406.2,190.74L409.45,189.64L411.68,185.89L413.29,184.66L416.11,183L417.39,181.51L420.27,182.85L422.85,183.03L422.29,186.1L423.11,186.56L427.02,185.1L428.01,182.69L431.38,182.66L430.28,186.44L431.27,188.6L432.57,189.34L432.44,191.68L433.64,193.07L432.13,195.46L432.81,197.31L436.13,200.17L439.04,200.34L439.81,203.5L441.24,205.69L442.95,206.49L441.62,210.56L441.88,215.48L443.41,220.29L445.22,222.46L445.62,226.85L447.05,229.06L442.03,233.98Z" class="land" id="CU-06" title="Cienfuegos"/>
    <path d="M256.32,179.6L254.64,180.16L249.73,184.19L247.14,184.65L240.37,188.53L238.51,190.49L234.62,197.97L233.01,199.58L230.8,199.83L228.56,199.19L224.8,201.11L224.8,202.34L222.33,203.94L220.59,207.47L218.79,209.33L216.08,210.86L212.68,211.16L209.16,210.71L206.73,208.86L205.65,206.41L202.53,210.16L200.54,211.44L199.1,210.89L191.56,212L190.66,210.65L188.15,211.94L182.86,211.63L181.35,211.94L178.55,214.7L177.99,218.48L176.15,220.31L176.75,222.49L178.67,223.57L176.32,225.31L176.75,228.11L175.06,230.01L173.44,230.59L169.58,228.9L166.59,228.93L162.7,231.09L159.92,231.09L155.49,233.02L147.45,239.79L144.52,241.39L141.65,241.66L140.76,240.21L143.49,234.44L144.02,231.55L142.48,229.4L139.77,228.93L136.73,229.4L131.32,231L128.69,232.27L121.81,236.87L119.07,237.54L116.11,237.49L113.25,236.6L111.76,234.8L111.85,232.36L112.85,230.81L116.5,232.6L118.47,231.27L120.22,231.09L125.8,228.08L130.75,226.61L136.55,223.99L140.76,221.02L144.77,222.93L149.89,221.02L153,222.95L154.33,221.02L153.78,217.69L152.43,217L153.4,214.95L150.76,214.31L148.67,212.94L147.03,209.72L147.98,206.36L148.67,201.84L149.64,198.6L151.89,196.28L155.4,191.02L156.4,188.76L160.59,187.49L162.57,183.12L164.14,181.43L165.85,181.71L168.06,178.88L170.19,178.38L170.94,175.49L172.72,176.45L174.83,174.57L172.71,173.01L174.75,171.91L176.44,174.11L178.17,173.55L182.32,170.54L184.93,169.25L189.03,168.81L193.72,166.42L197.2,165.45L200.03,165.85L200.36,164.48L202.97,163.07L206.37,162.94L207.51,160.16L210.76,159.9L211.63,161.16L213.56,158.39L214.57,157.97L217.32,159.4L219.22,158.67L221.92,154.45L227.59,151.27L230.23,150.63L232.24,151.83L231.35,153.65L232.84,156L234.61,154.3L233.44,152.31L235.95,150.82L240.21,149.38L242.97,150.27L244.18,152.04L246.81,152.83L248.16,151.93L248.16,156.82L249.88,160.16L250.1,162.61L248.83,164.12L246.29,164.82L249.45,169.46L250.7,170.28L253.3,175.53Z" class="land" id="CU-01" title="Pinar del Río"/>
    <path d="M248.16,151.93L249.98,148.42L254.63,148.77L257.77,147.96L263.94,148.25L273.28,146.83L275.79,145.38L277.25,146.41L279.45,145.69L280.22,147.3L278.29,149.32L282.16,151.52L282.79,153.99L282.69,158.51L281.3,162.74L281.3,165.46L284.08,170.29L285.83,171.36L285.81,173.86L281.32,174.45L277.74,173.57L274.96,174.57L271.79,173.88L269.37,174.46L262.19,172.53L259.31,173.29L258.61,174.48L257.95,178.7L256.32,179.6L253.3,175.53L250.7,170.28L249.45,169.46L246.29,164.82L248.83,164.12L250.1,162.61L249.88,160.16L248.16,156.82Z" class="land" id="CU-15" title="Artemisa"/>
    <path d="M275.79,145.38L278.12,144.43L284.76,139.92L287.47,139.5L290.61,138.13L295.37,137.35L297.53,136.45L302.24,137.58L305.66,136.94L306.13,141.1L304.92,145.83L301.52,142.41L300.48,144.29L298.22,144.46L298.71,148.75L295.46,152.86L288.24,152.55L286.47,154.48L284.41,153.38L282.79,153.99L282.16,151.52L278.29,149.32L280.22,147.3L279.45,145.69L277.25,146.41Z" class="land" id="CU-03" title="La Habana"/>
    <path d="M305.66,136.94L310.21,135.98L313.44,138.13L321.85,139.65L323.36,139.15L334,139.21L333.23,140.72L334.23,146.06L329.69,151.8L332.32,153.34L334.22,155.95L334.09,159.11L333.21,161.88L334.32,163.87L336.25,165.49L336.17,170.05L339.85,172.63L339.1,178.53L336.26,182.21L334.77,182.02L329.27,177.57L320.82,174.5L312.99,175.09L305.75,176.33L298.93,174.05L293.76,174.06L289.39,174.57L285.81,173.86L285.83,171.36L284.08,170.29L281.3,165.46L281.3,162.74L282.69,158.51L282.79,153.99L284.41,153.38L286.47,154.48L288.24,152.55L295.46,152.86L298.71,148.75L298.22,144.46L300.48,144.29L301.52,142.41L304.92,145.83L306.13,141.1Z" class="land" id="CU-16" title="Mayabeque"/>
    <path d="M656.75,264.3L660.23,266.21L663.99,267.01L665.8,268.7L664.04,271.21L661.62,271.37L659.72,273.49L660.66,275.29L664.14,273.46L666.23,269.25L670.41,270.69L676.41,272.21L677.74,274.27L672.31,276.73L676.6,279.35L677.4,278.42L676.58,276.26L679.08,275.7L682.22,277.12L683.74,279.66L682.96,280.62L679.34,280.77L680.34,282.71L682.59,282.26L684.48,284.27L687.24,282.77L688.97,280.9L685.88,280.28L684.83,278.13L686.54,276.73L694.69,276.98L699.74,279.35L699.43,283.56L697.93,285.73L697.67,288.44L691.33,292.17L686.87,295.97L685.87,299.1L682.9,299.45L679.3,301.01L677.31,301.27L675.14,299.91L674.28,302.4L674.35,307.55L672.76,310.89L671.99,314.04L673.25,315.78L671.93,317.98L667.06,319.94L665.79,317.23L664.15,316.45L657.8,316.22L654.96,315.7L650.39,316.76L645.88,314.99L639.2,314.79L637.17,313.47L632.99,315.55L631.82,317.37L630.06,318.42L625.53,318.93L619.39,321.24L613.98,319.75L610.73,321.23L608.77,320.14L599.98,319.54L596.39,317.74L597.3,311.79L600.83,306.77L606.6,306.07L608.17,305.26L608.37,300.65L609.72,300.37L610.97,302.02L612.98,302.28L613.69,299.97L616.74,299.03L617.11,297.73L620.32,297.44L621.12,293.82L623.18,292.19L624.97,295.66L628.2,296.27L631.58,298.02L633.11,298.1L635.08,293.37L636.04,292.02L640.25,290.52L641.57,289.22L644.06,285.08L643.76,280.36L644.15,279L648,275.43L644.96,274.82L644.02,272.98L646.14,267.31L650.29,267.8L653.01,266.94Z" class="land" id="CU-10" title="Las Tunas"/>
    <path d="M388.83,132.29L388.84,133.64L385.72,132.83L386.5,131.16ZM334,139.21L341,139.15L344.1,141.25L343.79,145.72L344.56,147.34L346.34,146.73L347.84,143.4L354.69,142.21L356.19,141.08L361.08,140.11L364.63,138.51L369.3,135.44L370.72,136.44L365.74,138.04L362.04,140.32L361.08,141.63L364.1,142.41L367.99,146.97L370.42,148.25L372.36,147.94L375.26,143.15L377.86,142.63L381.55,143.26L382.09,146.06L383.34,146.46L396.97,143.65L403.51,144.2L406.22,142.47L407.14,139.12L408.67,139.65L406.31,144.2L408.29,145.8L406.78,148.08L406.59,151.77L405.76,152.75L403.23,152.35L399.01,153.31L398.99,158.22L397.82,159.88L400.43,163.7L403.22,165.91L407.5,164.11L408.85,164.61L411.02,169.44L409.77,172.16L410.71,174.32L410.37,177.78L411.88,182.49L413.29,184.66L411.68,185.89L409.45,189.64L406.2,190.74L398.5,189.82L396.39,189.92L391.67,189.08L388.14,191.16L385.43,193.71L386.34,194.61L384.62,198.06L386.47,199.18L385.64,200.81L385.28,204.76L387.43,206.16L387.56,209L390.43,211.03L392,212.97L398.2,215.95L401.26,215.16L403,215.85L406.58,215.63L407.4,216.79L408.27,220.56L405.23,220.65L396.85,220.05L387.03,221.16L381.12,220.55L373.52,217.5L371.08,212.65L371.31,207.64L369.2,204.63L367.37,203.84L366.17,205.77L367.12,208.92L367.17,217.83L364.29,213.44L362.39,214.14L361.83,216.44L360.74,217.37L358.68,216.85L357.57,218L355.1,216.89L353.6,212L351.01,210.89L347.74,210.89L345.65,209.7L341.47,211.31L341,210.43L336.21,208.89L335.18,210L330.73,209.47L329.33,211.43L324.43,210.66L320.67,205.4L311.02,201.51L308.39,199.74L306.47,199.38L305.28,197.32L303.1,197.18L301.31,195.35L302.5,193.49L304.39,192.78L312.23,193.04L314.78,192.39L319.93,192.28L323.3,192.85L326.8,192.3L329.49,191.14L334.03,190.44L336.2,188.65L336.26,182.21L339.1,178.53L339.85,172.63L336.17,170.05L336.25,165.49L334.32,163.87L333.21,161.88L334.09,159.11L334.22,155.95L332.32,153.34L329.69,151.8L334.23,146.06L333.23,140.72ZM392.28,137.58L393.87,139.51L392.11,140.79L391.39,139.15Z" class="land" id="CU-04" title="Matanzas"/>
    <path d="M432.02,142.87L428.73,142.25L429.54,140.29ZM460.51,153.44L461.14,154.73L459.43,155.87L458.14,153.59ZM470.47,161.23L470.11,163.12L466.39,160.01L469.66,160.15ZM408.29,145.8L410.76,150.28L412.16,151.27L417.05,152.29L419.29,154.53L424.37,154.85L427.34,156.65L429.64,157.34L433.99,156.96L438.05,155.36L438.69,153.56L442.31,155.38L445.27,155.62L447,154.77L449.5,159.4L452.08,160.91L455.78,161.54L458,159.43L462.18,158.25L460.88,160.41L458.55,160.26L457.67,162.94L460.21,165.2L464.21,165.87L469.1,169.54L470.26,168.48L472.4,168.66L474.08,176.14L475.96,176.94L478.25,179.55L479.82,182.91L481.93,185.2L485.69,185.65L488.4,189.78L488.39,191.56L487.13,193.91L488.49,195.45L490.78,200.03L492.71,202.72L492.19,207.55L487.24,206.27L484,208.42L482.79,211.68L479.87,213.47L477.39,212.25L476,212.7L473.22,211.85L468.91,212.69L466.82,210.42L463.83,211.04L464.15,213.57L465.9,217.04L467.5,217.64L467.08,219.96L464.62,224.43L462.93,225.88L455.15,223.79L453.81,224.18L452.55,226.62L450.73,226.89L447.05,229.06L445.62,226.85L445.22,222.46L443.41,220.29L441.88,215.48L441.62,210.56L442.95,206.49L441.24,205.69L439.81,203.5L439.04,200.34L436.13,200.17L432.81,197.31L432.13,195.46L433.64,193.07L432.44,191.68L432.57,189.34L431.27,188.6L430.28,186.44L431.38,182.66L428.01,182.69L427.02,185.1L423.11,186.56L422.29,186.1L422.85,183.03L420.27,182.85L417.39,181.51L416.11,183L413.29,184.66L411.88,182.49L410.37,177.78L410.71,174.32L409.77,172.16L411.02,169.44L408.85,164.61L407.5,164.11L403.22,165.91L400.43,163.7L397.82,159.88L398.99,158.22L399.01,153.31L403.23,152.35L405.76,152.75L406.59,151.77L406.78,148.08ZM435.26,141.63L437.34,143.98L437.62,145.85L433.36,144.2ZM426.85,151.83L430.16,150.18L432.89,150.82L432.89,153.85L426.04,152.66ZM455.8,153.85L452.11,156.12L451.58,154.3L453.64,153.32ZM492.44,177.6L489.28,175.69L486.99,173.11L483.36,172.84L481.1,171.15L478.78,168.55L477.84,166.48L474.53,166.86L473.52,165.45L476.84,164.79L477.96,165.31L482.98,170.56L486.12,171.53L488.66,173.63L491.45,174.72Z" class="land" id="CU-05" title="Villa Clara"/>
    <path d="M488.4,189.78L493.5,194.15L495.5,195.1L497.31,194.8L500.52,196.86L501.81,195.98L506.66,196.77L507.72,195.44L511.1,196.31L515.11,195.12L517.97,194.78L521.74,195.22L521.26,198.5L520.17,199.58L518.48,204.29L514.42,211.57L514.51,213.61L513.62,217.46L516.8,220.14L519.18,221.31L519.47,224.31L516.9,228.8L514.81,228.48L511.14,235.64L510.45,238.52L508.47,242.9L510.05,245.78L509.36,249.09L511.84,249.94L513.82,249.09L515.6,245.46L518.78,247.27L519.51,253.91L515.91,254.61L511.63,254.9L508.05,256.67L505.25,257.42L499.8,257.4L494.34,255.81L491.95,253.93L486.12,254.21L481.22,251.68L480.03,252.27L478.31,251.11L474.44,249.66L473.24,247.46L467.56,247.04L462.97,245.7L461.22,245.73L459.99,248.19L455.8,246.66L455.8,242.16L453.45,243.38L450.61,243.15L448.46,245.02L447.2,244.41L445.53,241.91L444.91,238.95L441.8,237.4L442.03,233.98L447.05,229.06L450.73,226.89L452.55,226.62L453.81,224.18L455.15,223.79L462.93,225.88L464.62,224.43L467.08,219.96L467.5,217.64L465.9,217.04L464.15,213.57L463.83,211.04L466.82,210.42L468.91,212.69L473.22,211.85L476,212.7L477.39,212.25L479.87,213.47L482.79,211.68L484,208.42L487.24,206.27L492.19,207.55L492.71,202.72L490.78,200.03L488.49,195.45L487.13,193.91L488.39,191.56ZM517.86,177.6L516.48,176.19L512.4,175.93L511.99,174.92L518.38,175.32Z" class="land" id="CU-07" title="Sancti Spíritus"/>
    <path d="M268.54,227.88L271.09,229.04L269.56,230.37L267.67,229.53ZM313.76,250.38L314.33,252.26L307.41,255.92L306.88,254.61L309.19,253.1L311.94,252.31ZM273.79,251.21L273.85,253L275.65,254.21L271.98,258.14L269.47,258.96L260.77,263.36L255.57,265.25L250.76,265.78L249.33,264.79L244.88,264.71L242.08,263.71L239.03,263.46L236.8,260.49L234.04,258.43L232.7,256.2L231.47,252.4L232.53,252.41L235.95,254.94L237.47,256.83L239.93,257.66L242.74,257.66L246.47,254.52L239.37,242.11L238.54,239.2L239.25,236.05L242.14,233.77L243.1,232.05L246.03,230.29L245.09,228.33L253.97,229.41L263.35,231.88L265.47,233.22L265.31,237.46L269.37,241.16L270.96,241.45L272.13,244.42L270.5,249.16ZM355.22,246.16L352.14,248.91L346.75,252.53L342.39,253.66L343.03,251.86L344.93,252.17L346.97,249.7L348.63,250.35L350.43,249.49L351.18,247.65L354.29,245.38Z" class="land" id="CU-99" title="Isla de la Juventud"/>
    <path d="M699.74,279.35L702.3,281.31L709.53,284.08L711.7,285.54L712.19,289.41L713.13,291.06L716.14,289.49L718.3,290.68L718.56,292.28L720.94,292.04L720.89,290.74L724.13,290.74L726.2,289.3L729.71,290.29L733.23,287.75L735.12,289.06L739.32,288.74L742.59,290.22L743.2,292.73L745.89,292.17L747.44,293.17L749.79,296.76L748.41,299.75L746.96,301.3L746.54,303.28L745.01,305.08L742.78,305.73L741.77,303.22L738.56,305.8L740.04,308.31L743.01,306.62L746.54,306.72L749.79,308.53L750.16,312.49L747.64,311.11L746.25,309.18L741.2,310.23L736.73,309.71L737,311.47L735.81,316.22L737.22,318.44L740.91,320.29L742.13,317.93L745.39,315.18L747.81,315.73L747.47,318.26L749.86,318.26L751.28,319.14L755.29,320.08L756.77,318.75L758.68,320.25L759.25,316.65L762.35,316.76L764.95,318.15L763.79,319.29L764.72,321.23L767.89,322.17L771.74,321.74L767.97,319.65L769.15,317.92L772.78,317.8L775.96,318.47L779.04,320.83L789.3,319.54L792.52,320.8L793.23,321.9L796,321.74L799.35,324.36L806.14,325.45L807.25,329.24L808.59,330.07L805.81,331.27L804.2,332.98L803.38,336.22L803.96,338.17L801.21,339.3L799.75,340.83L791.32,336.18L788.96,336.71L790.61,339.6L785.9,338.97L782.04,335.3L778.4,336.65L776.27,336.21L773.64,338.36L772.81,341.65L771.22,340.53L769.67,341.18L766.67,338.66L763.62,339.76L760.28,335.58L762.4,333.2L762.45,330.7L757.37,331.75L754.35,330.45L749.52,334.19L747.7,333.3L747.27,336.35L744.33,338.41L737.95,338.59L733.03,340.87L729.74,340.09L729.02,338.22L725.13,335.82L725.8,334.31L723.15,333.93L722.07,331.62L718.84,329.22L717.59,329.35L718.13,332L714.65,334.2L715.53,336.74L714.93,339.92L711.68,338.74L708.85,338.69L707.18,336.02L703.85,333.16L695.71,330.82L696.1,329.29L691.15,327.61L686.78,325.18L682.65,323.83L682.65,321.05L681.51,319.81L678.33,320.88L673.43,319.27L671.93,317.98L673.25,315.78L671.99,314.04L672.76,310.89L674.35,307.55L674.28,302.4L675.14,299.91L677.31,301.27L679.3,301.01L682.9,299.45L685.87,299.1L686.87,295.97L691.33,292.17L697.67,288.44L697.93,285.73L699.43,283.56ZM753.98,312.73L756.11,315.98L755.09,316.84L751.61,316.03L749.85,314.54L749.79,313.24Z" class="land" id="CU-11" title="Holguín"/>
    <path d="M521.74,195.22L528.45,195.98L531.64,195.81L533.29,200.84L535.49,200.7L536.54,198.37L538.84,198.29L546.28,200.94L549.17,203.71L551.92,205.41L557.65,206.61L558.9,206.41L560.97,210.01L564.36,212.5L566.39,212.49L569.77,213.74L573.74,214.3L574.29,216.5L579.31,218.46L579.76,221.77L577.42,223.16L573.22,226.78L568.51,227.87L568.14,231.29L572.88,235.57L574.25,237.9L572.42,239.04L572.41,241.48L569.37,241.99L567.73,241.61L565.57,237.79L563.81,238.33L562.15,240.35L562.76,244.37L559.11,248.81L555.63,248.76L554.18,252.72L552.22,252.4L548.74,253.93L547.24,255.38L541.19,258.72L538.51,257.06L534.9,256.49L535.81,255.26L537.96,254.88L536.75,252.96L534.18,251.21L532.68,250.97L528.23,252.4L525.06,252.71L523.67,254.21L519.51,253.91L518.78,247.27L515.6,245.46L513.82,249.09L511.84,249.94L509.36,249.09L510.05,245.78L508.47,242.9L510.45,238.52L511.14,235.64L514.81,228.48L516.9,228.8L519.47,224.31L519.18,221.31L516.8,220.14L513.62,217.46L514.51,213.61L514.42,211.57L518.48,204.29L520.17,199.58L521.26,198.5ZM555.86,190.51L552.69,191.35L549.6,191.28L546.19,189.5L541.41,188.34L540.14,185.54L537.65,187.2L537.47,184.69L538.59,183.74L544.23,184.44L545.89,185.5L553.12,185.55L556.34,183.18L560.91,184.58L561.11,186.2L565.67,190.88L564.06,191.78L555.61,193.75ZM490.3,288.75L492.45,288.43L494.18,289.48L496.86,292.28L494.66,292.76L494.23,290.95L492.67,290.74ZM511.77,303.74L508.91,304.24L505.26,300.3L507.4,299ZM515.07,306L518.74,306.96L517.12,308.73L515.49,308.31L512.07,306.05L513.46,305.18ZM521.83,311.75L525.19,311.65L525.53,313.42L520.76,312.86L519.21,311.29L520.71,309.43ZM528.59,315.73L529.93,315.44L533.75,317.71L532.58,318.71L530.93,318.15Z" class="land" id="CU-08" title="Ciego de Ávila"/>
    <path d="M579.31,218.46L580.45,218.15L583.67,222.52L585.89,226.75L587.52,227.61L590.65,230.84L592.04,233.58L593.72,233.24L594.04,227.76L595.63,231.89L597.6,233.61L599.27,233.6L600.52,235.22L601.17,238.25L605.01,240.01L607.72,240.6L611.86,239.98L614.19,240.65L617.23,242.61L617.81,241.09L620.07,241.7L621.96,240.92L622.09,245.46L623.68,249.66L628.24,251.08L630.07,250.21L628.99,248.06L626.49,246.28L624.95,241.91L622.86,240.86L622.42,239.08L619.56,238.1L617.68,238.36L613.28,233.85L611.73,231.79L614.06,229.62L617.49,231.8L618.42,234.64L625.65,239.92L630.51,241.69L634.76,245.27L639.68,248.66L643.34,250.54L644.79,252.71L644.56,254.16L642.47,257.21L640.36,255.21L635.98,253.16L633.59,252.71L632.98,253.7L630.3,252.17L628.4,253.82L632.37,255.87L635.61,256.26L635.47,258.7L634.08,259.85L635.42,262.93L638.79,262.95L642.56,261.55L643.4,257.66L645.69,253.66L648.23,254.19L655.53,263.21L656.75,264.3L653.01,266.94L650.29,267.8L646.14,267.31L644.02,272.98L644.96,274.82L648,275.43L644.15,279L643.76,280.36L644.06,285.08L641.57,289.22L640.25,290.52L636.04,292.02L635.08,293.37L633.11,298.1L631.58,298.02L628.2,296.27L624.97,295.66L623.18,292.19L621.12,293.82L620.32,297.44L617.11,297.73L616.74,299.03L613.69,299.97L612.98,302.28L610.97,302.02L609.72,300.37L608.37,300.65L608.17,305.26L606.6,306.07L600.83,306.77L597.3,311.79L596.39,317.74L591.75,317.61L588.83,319.75L584.4,319.88L580.42,318.75L578.18,316.1L575.89,315.42L573.87,312.29L570.51,309.44L568.7,309.89L566.36,304.95L561.55,301.43L557.38,300.8L555.61,297.76L551.19,294.25L550.53,287L548.23,280.83L550.69,279.08L550.46,277.28L547.74,276.01L546.52,269.74L545.24,267.5L544.54,264L543.49,261.67L541.19,258.72L547.24,255.38L548.74,253.93L552.22,252.4L554.18,252.72L555.63,248.76L559.11,248.81L562.76,244.37L562.15,240.35L563.81,238.33L565.57,237.79L567.73,241.61L569.37,241.99L572.41,241.48L572.42,239.04L574.25,237.9L572.88,235.57L568.14,231.29L568.51,227.87L573.22,226.78L577.42,223.16L579.76,221.77ZM571.5,200.33L572.94,199.42L570.91,197.48L569.8,199.55L568.25,198.13L569.19,196.54L568.11,195.08L568.29,193.29L570.47,192.42L571.97,193.29L575.06,192.99L578.05,195.35L579.74,198.5L581.37,204.53L578.05,202.34L573.2,201.7ZM585.07,213.71L581.77,209.92L583.76,208.56L584.56,206.16L584.66,203.49L586.93,203.6L585.33,205.94L586.34,207.4L588.83,207.41L590.22,208.92L592.05,208.31L593.9,211.94L596.73,212.94L595.2,216.02L592.04,217L590.82,214.02L588.24,214.09L587.96,215.56ZM595.3,205.41L597.25,204.61L598.12,207.77L601.39,211.43L599.75,211.48L598.02,209.65ZM609.8,220.55L610.28,223.35L608.81,226.67L609.8,228.58L607.94,228.94L605.65,228.35L604.71,230.99L602.65,227.69L599.37,227.18L596.97,225.78L597.66,222.77L595.3,221.52L593.72,223.57L591.57,223.43L590.52,221.37L588.49,219.19L589.64,217.04L592.51,218.96L595.8,217.5L597.93,217.22L600.41,219.3L602.78,218.5L606.5,220.55L608.6,219.38ZM555.19,317.71L554.3,318.76L550.03,320.25L548.57,318.67L553.84,317.29ZM562.2,330.18L561.8,332.84L557.88,330.77L556.98,328.8L553.33,326.71L555.36,326.19L558.72,329.63L560.06,329.05Z" class="land" id="CU-09" title="Camagüey"/>
    <path d="M782.72,377.9L782.73,372.51L779.86,372.51L782.24,370.96L783.41,368.57L782.9,366.01L781.51,366.28L779.94,368.9L777.66,368.59L777.11,370.16L778.28,372.58L777.01,372.57L773.6,374.98L773.33,377.69L769.8,378.54L763.17,378.96L759.04,373.14L757.15,371.25L755.94,368.66L755.84,365.98L759.68,363.58L758.68,361.49L758.51,358.74L756.82,355.7L756.47,353.17L757.63,351.42L757.55,347.88L756.56,345.78L759.43,343.8L760.82,340.76L762.05,341.17L763.62,339.76L766.67,338.66L769.67,341.18L771.22,340.53L772.81,341.65L773.64,338.36L776.27,336.21L778.4,336.65L782.04,335.3L785.9,338.97L790.61,339.6L788.96,336.71L791.32,336.18L799.75,340.83L801.21,339.3L803.96,338.17L803.38,336.22L804.2,332.98L805.81,331.27L808.59,330.07L811.43,331.17L811.67,332.14L816.08,335.19L819.51,340.37L823.58,344.68L826.63,345.55L829.98,348.15L836.16,349.13L839.78,347.26L842.75,347.89L846.42,350.62L847.79,352.87L848.24,355.61L847.62,357.21L844.76,358.65L841.61,361L841.22,363.58L839.08,365.5L833.69,364.68L830.53,364.58L823.35,365.69L817.76,367L815.16,366.5L813.01,367.39L808.73,366.69L801.93,367.74L800.22,368.53L796.83,371.6L792.78,372.19L790.7,376.03L788.5,376.85Z" class="land" id="CU-14" title="Guantánamo"/>
    <path d="M778.28,372.58L778.52,374.88L775.46,376.03L773.33,377.69L773.6,374.98L777.01,372.57ZM782.72,377.9L778.17,378.34L778,376.7L782.31,373.84L779.86,372.51L782.73,372.51Z" class="land" id="US-NBGB" title="US Naval Base Guantanamo Bay"/>
  </g>
</svg>