<?xml version="1.0" encoding="UTF-8"?>
<svg xmlns="http://www.w3.org/2000/svg" width="411.89" height="261.85" viewBox="274.06 126.07 411.89 261.85" style="background-color:#000000">
  <!-- Created using SVG Map Generator: dojo.amcharts.com/svg-map-generator -->
  <style>
    .land { fill: #ffffff; stroke: #000000; stroke-width: 0.65; }
  </style>
  <g id="polygons">
    <path d="M502.03,248.41L501.75,248.63L500.19,251.18L498.53,251.67L497.95,253.36L496.29,254.06L495.74,254.83L495.53,256.16L496.05,256.78L495.45,258.3L494.88,259.1L492.66,259.78L491.83,260.67L490.32,262.91L487.67,264.1L486.96,265.38L485.45,265.68L483.92,265.3L483.48,266.17L483.82,266.84L483.53,267.46L484.06,269.02L483.31,271.73L483.92,273.02L486.07,274.33L486.64,275.01L488.37,275.49L489.23,277.16L489.9,277.66L491.92,277.21L494.2,274.83L495.32,274.44L496.33,275.77L496.24,276.63L494.71,279.91L494.58,280.72L495.25,282.39L494.75,284.1L493.76,286.14L492.84,286.3L491.63,285.72L490.26,284.5L489.16,283.91L487.34,283.45L486.6,281.88L486.46,281.13L484.87,280.28L483.49,279.08L483.1,278.36L481.91,279.58L480.12,280.6L478.65,281.17L477.91,283.32L476.47,285.21L475.83,286.69L475.87,287.32L477.07,288.48L477.02,289.62L477.36,290.58L478.78,291.5L478.53,292.89L478.04,293.57L476.86,294.29L475.03,295.79L474.25,295.53L473.22,296.07L473.05,297.11L472.24,297.57L471.36,297.35L469.6,297.98L468.11,297.15L466.47,297L465.7,295.7L464.42,295.38L464.43,294.96L466.81,293.95L467.06,293.08L466.53,292.71L465.53,292.68L465.1,291.4L466.02,291.17L466.85,290.19L466.93,287.99L468.43,286.93L469.33,286.03L472.05,284.71L472.46,283.83L473.04,281.7L472.76,281.21L471.65,281.14L471.58,279.69L470.46,279.6L469.5,279.98L469.33,280.66L469.97,281.48L468.74,282.45L467.81,283.57L466.79,283.2L466.44,283.61L465.44,283.61L465.19,283.03L467.13,279.85L466.84,278.25L465.4,277.31L463.63,277.65L463.31,277.95L463.31,281.58L462.82,282.25L462.21,281.76L461.84,280.73L461.92,279.46L462.44,277.92L463.54,276.31L464.1,275.89L463.9,275.14L462.76,274.89L461.89,275.1L460.78,275.88L460.72,276.29L461.62,278.27L461.7,279.01L461.17,279.62L460.11,279.96L460.65,278.29L460.38,278.09L458.79,278.7L458.74,279.96L457.9,280.09L457.35,280.71L456.76,279.99L456.66,278.56L457.25,276.99L458.02,276.01L459.42,275.48L459.67,273.37L459.63,272.29L459.2,270.69L459.23,270.03L460.25,268.43L460.92,265.45L460.96,264.48L462.15,262.99L463.59,261.73L463.13,259.53L463.36,258.91L463.33,257.07L462.86,255.27L464.09,254.9L465.26,253.8L466.32,252.33L467.55,251.39L468.38,250.08L470.67,250.13L471.82,250.49L472.97,250.08L475.42,250.94L475.82,250.47L476.68,250.6L479.8,250.3L480.11,249.27L479.58,247.2L478.96,246.97L479.38,244.44L478.18,243.59L477.55,242.71L477.41,241.73L477.42,240.89L480.51,240.06L485.34,240.38L486.65,241.26L487.93,241.76L488.94,242.62L490.05,244.2L491.4,244.16L491.62,245.82L493.17,246L493.64,245.55L494.81,245.28L496.33,245.48L496.97,245.9L497.95,247.84L498.66,248.52L499.73,248.93L500.95,248.18Z" class="land" id="MX-ZAC" title="Zacatecas"/>
    <path d="M672.87,291.27L673.04,294.01L672.52,294.85L672.27,296.48L672.96,298.13L672.91,298.63L671.63,301.52L671.49,302.33L670.92,303.05L668.02,305.14L666.97,305.7L665.4,305.87L664.82,305.36L664.22,305.65L663.45,307.07L662.14,307.58L661.73,308.8L659.93,309.73L658.67,310.07L656.79,311.43L655.99,311.62L655.23,312.39L653.38,312.63L652.13,313.17L651.41,313.89L649.31,314.22L649.23,315.42L648.75,316.46L648.13,314.45L646.5,312.6L645.9,311.31L643.92,310.23L642.9,307.92L641.96,307.32L641.72,306.32L640.98,305.26L640.12,306.21L639.64,305.7L638.84,305.79L637.98,304.65L636.22,304.48L636.3,300.71L635.89,300.57L636.6,298.37L637.14,297.66L640.01,295.83L641.3,295.54L643.47,294.48L645.55,294L649.02,293.41L652.74,293.03L656.13,292.49L658.72,291.5L659,290.78L661.83,290.17L662.89,290.37L664.17,290.12L665.33,289.36L666.4,289.6L667.2,290.16L669.05,290.29L669.82,291L671.91,291.33Z" class="land" id="MX-YUC" title="Yucatán"/>
    <path d="M541.09,280.7L541.41,283.47L542.26,285.81L542,286.46L542.31,287.15L542.53,288.84L543.96,291.57L544.73,291.4L545.06,293.36L545.57,293.77L546.25,295.94L547.95,299.72L548.35,300.31L548.99,302.59L549.39,303.29L551.54,305.42L551.9,306.05L554.94,309.35L556.72,311.6L557.04,312.32L558.38,313.81L558.97,315.5L559.31,317.66L560.09,318.76L560,319.69L560.34,321.05L561.85,321.97L562.94,323.26L562.88,324.07L563.61,324.55L564.51,324.59L565,326.8L565.86,327.59L566.06,328.79L567.33,328.81L567.7,328.48L569.76,329.18L574.65,329.3L577.12,331.35L579.33,331.59L580.54,333.76L581.78,334.95L582.07,336.18L582.85,336.67L583.86,336.86L585.38,336.64L589.12,335.71L588.44,336.31L588.6,338.38L588.89,339.14L588.87,340.7L590.13,341.4L590.87,342.45L592.98,343.27L593.77,345.1L593.67,346.26L594.02,347.57L594.85,347.79L592.94,349.29L591.94,349.73L591.46,350.31L582.27,349.76L576.79,349.41L576.95,348.7L576.35,347.58L575.28,346.86L574.35,345.87L573.14,344.18L573.25,343.59L574.11,342.9L573.19,342.43L572.57,343L570.69,343.47L569.14,344.56L567.67,344.64L567.03,344.98L566.02,344.68L564.9,342.39L564.82,341.42L565.19,341.07L566.23,338.51L565.86,336.86L565.44,336.33L563.81,336.18L562.79,335.88L561.81,336.31L561.02,335.62L560.5,334.65L559.78,334.23L559.11,334.42L557.78,333.15L557.47,331.74L557.76,331.08L556.66,330.31L556.55,331.45L555.8,333.07L554.85,331.95L553.52,331.52L552.1,332.58L551.23,332.02L550.72,330.42L548.76,329.85L548.14,328.9L548.14,327.36L549.1,326.11L549.17,325.53L548.96,322.2L551.71,322.25L551.49,320.92L549.99,320.27L548.13,319.84L547.22,319.11L547.49,318.68L546.79,316.86L547.21,316.37L548.23,314.06L548.17,313.14L549.02,310.93L550.08,309.12L546.46,307.84L544.91,309.72L544.28,309.81L543.84,308.89L542.44,308.72L542.21,307.49L542.18,305.42L542.78,305.03L543.6,305.51L544.34,304.49L544.13,303.65L542.57,302.59L542.26,301.41L542.37,300.04L540.72,300.01L540.08,301.45L539.59,301.83L539.23,303.16L538.05,302.85L536.95,304.05L536.14,304.43L535.17,305.58L533.89,306.18L532.95,307.09L531.9,305.2L532.33,303.45L532.5,301.56L532.99,300.84L534.22,299.72L535.15,300.44L535.89,300.32L535.74,299.45L536.06,298.31L537,297.2L535.72,295.27L534.68,294.95L534.23,295.41L532.91,295.04L531.98,294.15L532.14,293.2L531.54,292.31L531.47,290.58L530.79,290.47L530.46,289.69L530.43,288.32L531.6,287.98L532.52,286.91L531.46,286.02L531.25,284.66L532.12,284.7L532.47,284.21L532.3,282.89L532.85,282.52L534.15,282.49L533.53,280.66L532.79,280.07L530.92,279.57L529.71,279.59L529.29,278.98L530.2,278.46L532.34,278.33L533.57,278.96L534.58,278.73L534.68,278.01L535.99,277.86L536.36,278.54L537.75,279.36L538.45,279.44L540.06,281.42ZM543.36,286.44L544.05,287.39L545.5,288.8L546.83,289.84L547.05,290.86L545.98,293.35L545.5,293.11L546.41,291.34L546.34,290.65L545.44,289.8L544.78,288.76L543.32,287.15Z" class="land" id="MX-VER" title="Veracruz"/>
    <path d="M530.91,318.96L530.26,318.78L529.76,317.84L532.34,316.95L533.92,316.93L535.09,315.54L536.31,315.8L537.68,315.87L538.48,314.93L541.29,317.41L541.56,318.25L542.34,317.99L543.27,318.83L543.43,319.44L544.25,319.85L543.69,320.73L541.88,320.83L541.16,322.03L540.13,322.49L539.09,322L537.51,323.38L537.07,323.46L534.99,322.3L534.11,320.91L531.59,318.82Z" class="land" id="MX-TLA" title="Tlaxcala"/>
    <path d="M541.09,280.7L540.06,281.42L538.45,279.44L537.75,279.36L536.36,278.54L535.99,277.86L534.68,278.01L534.58,278.73L533.57,278.96L532.34,278.33L530.2,278.46L529.29,278.98L527.7,279.12L526.73,278.51L526.36,278.92L524.15,278.76L523.23,278.87L522.12,277.4L521.65,276.1L520.51,274.93L519.65,274.64L518.91,273.81L518.11,274.85L516.98,274.48L515.3,274.34L513.14,273.63L512.58,273.16L512.36,271.26L512.54,269.39L511.76,268.39L511.69,267.33L511.23,266.78L511.16,265.69L511.57,265.34L513.16,265.53L513.05,263.71L513.24,262.66L514,261.74L514.34,260.29L515.52,259.65L516.83,260.01L518.1,259.43L518.46,258.6L519.61,258.83L519.22,257.62L518.52,257.22L517.8,255.34L516.84,253.88L517.36,251.24L516.9,249.59L515.64,249.31L515.99,248.23L517.01,247.53L518.48,246.88L519.32,245.69L520.05,245.83L520.63,245L522.37,244.71L522.61,243.88L523.55,243.48L523.74,242.62L523.13,241.73L524.62,239.84L525.19,240.46L526.63,240.58L527.52,238.94L529.77,238.5L531.38,237.14L532.02,236.81L533.1,235.03L531.87,234.56L531.22,232.91L531.57,231.44L531.26,230.66L531.42,228.93L530.58,227.42L528.3,227.7L527.33,228.37L526.44,228.21L525.5,226.7L523.82,226.46L523.04,224.31L522.3,224.64L521.01,223.35L520.07,222.07L519.43,219.94L518.47,219.82L518.04,218.84L516.83,218.4L517.19,216.07L515.46,214.78L515.88,213.55L516.72,212.83L516.5,211.18L515.91,210.59L515.9,208.61L515.25,208.16L515.72,206.91L514.68,206.99L513.46,206.65L513.82,205.33L515.25,204.92L516.24,203.85L517.88,204.25L518.96,205.39L518.77,206.28L519.38,206.55L518.97,208.73L519.68,209.67L520.06,210.96L519.86,213.2L520.68,213.91L521.92,215.57L523.33,218.91L523.38,220.13L524.37,221.02L524.13,221.67L525.9,222.15L526.17,222.54L527.69,222.7L528.95,223.22L529.73,224.26L530.95,224.21L533.93,225.71L535.28,226.85L536.51,227.15L537.4,226.89L538.81,227.11L539.89,226.96L541.45,227.5L542.14,227.39L543.24,227.94L544.56,229.47L545.76,230.15L546.62,229.77L546.84,228.84L548.53,228.41L549.41,228.53L549.43,229.47L549.04,232.15L548.74,233.04L546.7,236.92L546.24,236.41L544.75,235.77L544.31,236.86L544.46,237.99L543.48,237.75L543.29,236.87L542.4,236.97L541.84,238.83L542.66,239.63L541.6,242.36L542.39,242.96L541.7,244.55L542.04,245.8L541.8,246.67L542.18,247.16L541.39,248.34L540.21,248.86L540.74,250.81L541.59,249.99L541.71,251.65L541.37,254.29L541.34,258.96L541.76,260.79L541.41,264.57L541.5,270.16L541.4,272.01L540.96,273.34L540.32,274.12L539.74,275.82L540.24,276.2L540.06,278.15L540.57,279.09Z" class="land" id="MX-TAM" title="Tamaulipas"/>
    <path d="M609.52,330.08L610.11,332L612.03,333.57L612.53,333.37L613.1,334.1L612.96,334.9L614.42,337.57L616.2,338.78L616.65,339.51L618.09,339.77L619.23,340.35L620.75,339.96L620.89,337.98L622.32,337.91L624.2,338.32L625.04,339.13L628.63,340.53L628.62,341.38L628.51,348.87L623.09,348.96L623.76,348.28L623.19,347.36L621.53,346.39L620.42,346.3L620.21,345.83L620.58,344.75L619.93,343.04L618.61,342.39L618.59,341.35L618.04,340.65L616.81,340.7L615.54,340.28L615.17,341.23L613.46,340.97L613,341.37L613.01,342.68L611.84,343.01L609.07,345.29L608.04,345.93L606.16,347.49L605.4,347.37L604.64,345.83L603.09,345.52L603.25,344.56L601.99,342.95L602.79,341.55L602.76,340.61L601.54,340.73L600.71,339.9L599.33,339.23L598.2,339.69L597.97,341.2L597.99,342.42L597.51,343.95L596.18,345.32L596.15,346.15L594.85,347.79L594.02,347.57L593.67,346.26L593.77,345.1L592.98,343.27L590.87,342.45L590.13,341.4L588.87,340.7L588.89,339.14L588.6,338.38L588.44,336.31L589.12,335.71L591.41,334.93L591.48,335.57L592.85,335.33L593,334.62L595.07,334.48L595.32,333.53L597.57,333.02L600.33,332.9L600.48,333.86L601.67,333.8L601.99,333.03L604.11,332.87L605.65,332.03L606.55,330.78Z" class="land" id="MX-TAB" title="Tabasco"/>
    <path d="M354.87,180.97L354.99,182.37L356.01,184.12L355.44,186.29L354.55,188.12L351.06,186.24L352.21,185.16L352.01,184.21L352.38,181.95L353.88,181.16ZM399.99,149.73L400.55,150.42L400.05,150.92L400.95,152.85L401.29,154.2L401.04,155.8L400.53,156.56L401.62,157.52L401.66,158.77L402.2,159.24L401.86,160.07L402.38,160.96L403.44,165.04L402.94,166.75L403.69,168.01L402.96,169.73L402.91,172.4L403.49,172.63L403.92,176.11L403.92,177.46L403.43,178.41L403.56,181.34L402.84,181.79L402.65,183.33L402,183.78L402.12,185.3L401.69,185.96L401.96,187.17L401.34,188.68L401.31,189.66L401.7,190.6L401.42,191.44L402.25,192.65L403.4,193.1L402.12,194.39L400.55,195.01L399.25,194.26L398.5,194.7L397.21,194.95L396.67,195.67L397.57,196.54L397.27,197.96L398.41,198.7L399.48,200.24L399.67,201.1L399.31,202.36L401.02,203.57L402.68,207.49L402.7,208.37L402.06,210L402.3,211.77L401.92,212.23L403.74,213.17L404.77,212.85L405.68,213.06L405.52,213.98L403.92,215.98L404.07,217.27L403.11,217.55L402.06,219.55L399.96,220.05L399.66,221.79L398.64,222.09L396.47,223.57L396.01,222.61L394.95,222.47L393.97,221.88L394.03,221.36L393.33,220.09L391.52,218.26L391.34,217.59L390.3,216.99L389.85,217.99L388.29,218.19L387.21,217.71L386.12,216.52L385.5,214.24L385.24,212.54L384.36,211.83L383.43,212.3L382.9,211.96L380.35,211.31L378.23,209.27L378.06,208.13L377.11,207.84L376.63,206.77L376.65,205.71L376.15,204.49L376.91,203.59L376.33,202.32L376.8,200.76L375.48,200.63L373.25,199.8L372.34,200.96L371.73,199.71L370.37,199.96L368.15,198.27L367.15,196.74L367.11,196.29L365.52,194.47L365.02,193.37L362.22,192.33L361.55,190.4L359.49,188.51L359.78,187.43L358.12,186.48L357.26,185.12L356.28,184.83L356.39,182.74L355.84,180.81L355.19,179.57L354.09,179.79L353.36,179.46L353.13,178.77L353.61,177.74L353.49,177.03L352.39,175.71L351.53,174.25L351.06,173.91L350.14,172.08L349.97,171.26L348.91,170.89L349.09,169.62L348.77,168.86L348.84,167.07L348.58,166.35L347.58,165.37L347.52,163.79L346.97,162.81L345.79,161.71L344.6,159.63L344.02,157.53L344.58,154.83L344.97,153.73L344.45,151.96L343.02,151.27L341.03,150.71L338.66,150.28L337.66,149.81L337.78,149.06L337.24,147.33L334.34,145.57L332.39,147.35L330.92,147.3L329.31,146.57L328.57,145.77L326.05,144.21L325.23,143.35L324.13,143.28L323.47,142.98L322.97,142.37L322.55,142.37L319.62,140.39L320.03,138.48L319.88,137.44L320.19,136.47L319.47,135.44L320.41,134.19L321.05,132.17L322.35,132.12L333.34,136.1L346.4,140.88L355.64,144.25L363.42,147.13L370.43,149.78L378.3,149.74L387.32,149.73ZM322.71,142.39L324.27,143.87L323.63,144.49L322.64,143.75L322.44,143.24Z" class="land" id="MX-SON" title="Sonora"/>
    <path d="M408.13,241.4L409.43,243.21L409.38,244.31L408.14,242.9ZM405.66,240.33L406.38,240.81L408.6,243.76L408.31,244.16L407.04,241.9ZM394.29,223.25L394.82,223.31L394.95,222.47L396.01,222.61L396.47,223.57L398.64,222.09L399.66,221.79L399.96,220.05L402.06,219.55L403.11,217.55L404.07,217.27L403.92,215.98L405.52,213.98L405.68,213.06L408.19,212.95L408.64,213.42L408.6,214.64L409.54,214.63L410.08,215.84L409.88,218.46L410.6,219.29L410.81,220.47L411.91,222.11L412.61,223.58L413.18,225.63L414.99,226.06L416.63,226.22L417.84,226.58L419.32,229.1L419.62,230.77L420.72,232.21L420.59,233.25L419.71,234.39L420.3,235.07L419.61,236.73L419.57,239.37L419.31,240.39L419.82,240.7L421.07,243.21L421.36,244.38L422.97,244.33L423.43,245.68L424.11,245.84L424.73,248.15L425.42,248.16L425.83,250.29L426.64,252.03L427.43,252.19L429.9,250.71L430.24,250.17L432.31,250.78L433.06,251.28L435.04,253.85L435.08,254.98L435.88,257.26L436.25,257.81L436.57,259.33L437.59,260.98L438.47,261.84L438.7,263.29L439.24,264.79L439.1,265.28L439.93,266.53L440.48,268.69L442.28,268.49L443.36,269.62L442.94,269.93L442.65,271.69L441.78,272.78L441.84,273.98L442.4,274.48L442.94,276.58L442.64,277.08L440.98,276.74L439.9,276.1L439.39,276.43L439.21,277.33L437.55,274.59L436.02,273.11L435.11,272.54L432.94,269.87L429.78,266.85L429.47,265.79L428.83,264.77L427.52,263.48L425.42,260.86L424.29,259.1L424.17,258.47L422.88,257.14L420.31,254.88L419.59,253.99L418.15,252.96L417.43,252.78L415.51,251.08L416.59,250.77L416.46,249.95L415.5,248.82L415.1,249.64L413.12,249.2L412.19,247.96L410.13,247.21L409.76,246.07L410.03,244.86L409.33,241.31L408.62,240.59L407.81,240.6L406.68,239.3L405.25,238.41L404.93,239.48L403.99,238.36L401.21,236.97L400.31,236.32L399.83,235.38L400.17,234.69L399.14,234.09L398.28,234.16L398.52,234.97L397.92,235.65L397.39,234.89L396.51,235.53L395.57,234.43L396.64,233.79L397.35,233.92L398.05,233.24L397.88,232.56L396.79,232.87L396.34,233.81L394.94,233.2L393.38,231.77L391.56,230.85L391.77,229.43L391.36,228.79L391.46,227.9L392.53,225.99L393.54,225.66L394.24,224.1Z" class="land" id="MX-SIN" title="Sinaloa"/>
    <path d="M511.23,266.78L511.69,267.33L511.76,268.39L512.54,269.39L512.36,271.26L512.58,273.16L513.14,273.63L515.3,274.34L516.98,274.48L518.11,274.85L518.91,273.81L519.65,274.64L520.51,274.93L521.65,276.1L522.12,277.4L523.23,278.87L524.15,278.76L526.36,278.92L526.73,278.51L527.7,279.12L529.29,278.98L529.71,279.59L530.92,279.57L532.79,280.07L533.53,280.66L534.15,282.49L532.85,282.52L532.3,282.89L532.47,284.21L532.12,284.7L531.25,284.66L531.46,286.02L532.52,286.91L531.6,287.98L530.43,288.32L530.46,289.69L530.79,290.47L531.47,290.58L531.54,292.31L530.68,292.29L529.87,293.25L529.19,294.77L528.61,294.45L528.02,295.33L526.78,294.78L526.2,293.54L525.03,293.93L522.51,291.31L522.1,290.29L521.05,290.39L520.51,291.81L517.94,291.76L517.31,290.44L516.54,289.92L515.54,290.87L514.18,291.56L511.87,291.47L511,290.37L509,289.03L507,288.37L506.45,288.75L506.21,290.27L505.42,290.59L504.01,290.6L501.68,289.19L500.52,288.16L498.87,287.57L496.5,287.03L495.85,286.65L494.35,286.49L493.76,286.14L494.75,284.1L495.25,282.39L494.58,280.72L494.71,279.91L496.24,276.63L496.33,275.77L495.32,274.44L494.2,274.83L491.92,277.21L489.9,277.66L489.23,277.16L488.37,275.49L486.64,275.01L486.07,274.33L483.92,273.02L483.31,271.73L484.06,269.02L483.53,267.46L483.82,266.84L483.48,266.17L483.92,265.3L485.45,265.68L486.96,265.38L487.67,264.1L490.32,262.91L491.83,260.67L492.66,259.78L494.88,259.1L495.45,258.3L496.05,256.78L495.53,256.16L495.74,254.83L496.29,254.06L497.95,253.36L498.53,251.67L500.19,251.18L501.75,248.63L502.36,249.64L503.89,249.99L503.97,251.11L503.35,251.92L504.42,253.22L504.35,253.95L505.63,255.57L506.08,256.73L505.98,258.99L506.47,259.74L506.32,261.52L505.94,263.1L506.2,263.75L506.33,265.86L507.25,267.47L508.02,267.84L509.22,266.4Z" class="land" id="MX-SLP" title="San Luis Potosí"/>
    <path d="M683.29,303.57L682.74,304.9L680.66,307.42L679.94,307.98L679.51,307.05L679.58,306.06L680.75,304.12L681.89,304.3ZM652.22,339.66L652.09,338.39L653.34,336.93L653.67,335.8L653.49,333.85L653.25,333.13L653.54,332.27L653.38,331.33L652.79,330.32L652.73,329.21L653.12,327.01L653,325.72L653.77,325.13L653.94,322.17L652.84,320.34L651.28,318.75L649.44,317.4L648.75,316.46L649.23,315.42L649.31,314.22L651.41,313.89L652.13,313.17L653.38,312.63L655.23,312.39L655.99,311.62L656.79,311.43L658.67,310.07L659.93,309.73L661.73,308.8L662.14,307.58L663.45,307.07L664.22,305.65L664.82,305.36L665.4,305.87L666.97,305.7L668.02,305.14L670.92,303.05L671.49,302.33L671.63,301.52L672.91,298.63L672.96,298.13L672.27,296.48L672.52,294.85L673.04,294.01L672.87,291.27L675.24,291.81L677.37,291.91L678.35,291.47L678.47,289.92L679.67,290.3L681.25,292.41L681.74,294.51L682.35,294.69L682.37,295.81L682.98,296.25L682.08,297.93L681.43,300.02L679.68,302.04L678.53,303.57L676.53,305.14L675.65,306.4L675.12,307.67L674.37,308.57L673.65,310.62L673.97,312.6L673.4,314.33L672.36,314.56L671.53,315.96L670.49,316.22L670.18,317.16L671.44,318.45L671.9,317.8L674.19,317.23L674.47,317.64L674.09,318.94L673.07,319.92L672.61,319.57L671.61,320.27L671.11,322.61L671.62,322.5L672.5,321.46L673.28,320.95L674.01,321.14L672.88,322.5L672.73,324.16L671.68,326.3L671.11,328.75L670.65,329.25L669.98,333.23L669.24,334.44L668.95,336.15L668.26,335.55L668.48,334.15L667.72,333.55L667.82,333.02L666.09,332.3L666.88,329.89L666.71,328.15L666.06,327.21L663.51,331.81L663.19,332.22L660.76,332.22L660.29,332.64L659.83,334.2L659.29,334.78L659.06,335.83L658.5,336.54L657.91,338.03L657.18,338.44L656.88,339.17L655.63,340.14L653.81,338.87L652.89,339.07Z" class="land" id="MX-ROO" title="Quintana Roo"/>
    <path d="M525.03,293.93L524.58,295.25L522.27,296.21L521.65,295.85L520.79,296.58L520.94,297.16L520.27,299.1L519.25,299.94L518.65,301.53L518.99,302.31L517.8,303.14L515.01,304.11L514.5,307.49L513.93,307.9L513.25,309L513.4,309.9L512.41,310.94L511.1,311.09L509.41,309.53L509.35,308.78L508.09,307.63L507.71,306.77L506.68,306.04L506.12,305.08L506.12,303.69L505.22,302.03L505.37,300.7L505.93,299.34L508.28,299.19L509.05,298.82L510.44,299.02L511.32,298.49L511.61,296.92L512.77,295.19L513.55,294.91L514.44,295.81L516.03,294.84L516.3,293.4L515.14,293.18L515.73,292.19L515.54,290.87L516.54,289.92L517.31,290.44L517.94,291.76L520.51,291.81L521.05,290.39L522.1,290.29L522.51,291.31Z" class="land" id="MX-QUE" title="Querétaro"/>
    <path d="M555.8,333.07L554.39,335.29L553.17,335.55L551.35,336.95L549.44,336.49L548.37,336.86L547.41,337.97L546.94,338.95L546.07,339.03L545.89,338.18L544.77,336.17L544.04,335.46L544.73,335L544.42,334.08L542.8,334.54L541.75,336.78L543.19,338.02L542.31,339.09L541.34,339.01L540.44,338.23L539.47,338.48L537.69,338.49L536.89,338.67L535.82,339.37L535.21,340.09L534.38,339.68L533.56,338.66L531.36,339.19L531.3,338.64L529.14,337.72L529.25,336.74L527.92,336.91L527.29,335.74L525.91,334.82L525.93,334.18L527.17,333.36L527.67,332.69L528.94,331.65L530.36,333.01L530.64,332.64L529.98,329.12L530.97,325.81L531.4,324.93L531.34,322.66L530.88,321.19L531.11,319.9L530.91,318.96L531.59,318.82L534.11,320.91L534.99,322.3L537.07,323.46L537.51,323.38L539.09,322L540.13,322.49L541.16,322.03L541.88,320.83L543.69,320.73L544.25,319.85L543.43,319.44L543.27,318.83L542.34,317.99L541.56,318.25L541.29,317.41L538.48,314.93L537.68,315.87L536.31,315.8L535.95,313.36L536.74,311.77L537.15,309.29L536.92,308.16L535.83,308.4L535.51,307.55L537.33,306.72L537.8,306.01L539.26,304.71L539.23,303.16L539.59,301.83L540.08,301.45L540.72,300.01L542.37,300.04L542.26,301.41L542.57,302.59L544.13,303.65L544.34,304.49L543.6,305.51L542.78,305.03L542.18,305.42L542.21,307.49L542.44,308.72L543.84,308.89L544.28,309.81L544.91,309.72L546.46,307.84L550.08,309.12L549.02,310.93L548.17,313.14L548.23,314.06L547.21,316.37L546.79,316.86L547.49,318.68L547.22,319.11L548.13,319.84L549.99,320.27L551.49,320.92L551.71,322.25L548.96,322.2L549.17,325.53L549.1,326.11L548.14,327.36L548.14,328.9L548.76,329.85L550.72,330.42L551.23,332.02L552.1,332.58L553.52,331.52L554.85,331.95Z" class="land" id="MX-PUE" title="Puebla"/>
    <path d="M591.46,350.31L591.29,351.83L590.9,352.36L590.49,354.17L589.07,355.39L587.86,358.77L587.82,359.21L588.46,360.72L588.19,361.47L588.26,362.79L587.25,363.25L585.51,362.58L585.06,361.8L584.48,362L584.14,362.86L584.72,363.36L586.96,363.53L588.54,364.71L588.44,365.04L586.03,363.97L584.51,363.5L580.8,362.92L581.79,362.22L582.37,361.3L581.15,360.87L580.29,361.73L578.75,359.97L577.9,360.2L577.23,361.35L576.59,361.34L575.68,362.65L578.05,362.61L578.11,362.95L573.43,363.85L572.69,364.54L572.24,365.5L571.45,366.02L569.53,366.47L568.49,366.93L567.23,367.1L566.57,367.54L564.6,368.06L562.45,369.05L561.03,369.97L558.74,369.82L557.78,370.33L556.97,370.31L555.16,369.54L553.1,369.23L551.06,368.35L550.52,367.67L548.59,366.79L546.92,366.47L545.88,366.54L544.53,366.16L541.36,366.06L539.31,364.68L535.64,362.63L533.25,362.2L531.29,361.49L533.67,359.65L533.91,358.61L535.08,357.73L536.02,356.76L536.11,356.06L537.21,355.6L537.91,354.79L538.15,353.64L537.75,352.56L537.02,352.12L536.84,350.53L535.38,349.86L535.47,348.79L535.94,348.37L535.63,346L534.4,343.48L534.32,342.13L535.21,340.09L535.82,339.37L536.89,338.67L537.69,338.49L539.47,338.48L540.44,338.23L541.34,339.01L542.31,339.09L543.19,338.02L541.75,336.78L542.8,334.54L544.42,334.08L544.73,335L544.04,335.46L544.77,336.17L545.89,338.18L546.07,339.03L546.94,338.95L547.41,337.97L548.37,336.86L549.44,336.49L551.35,336.95L553.17,335.55L554.39,335.29L555.8,333.07L556.55,331.45L556.66,330.31L557.76,331.08L557.47,331.74L557.78,333.15L559.11,334.42L559.78,334.23L560.5,334.65L561.02,335.62L561.81,336.31L562.79,335.88L563.81,336.18L565.44,336.33L565.86,336.86L566.23,338.51L565.19,341.07L564.82,341.42L564.9,342.39L566.02,344.68L567.03,344.98L567.67,344.64L569.14,344.56L570.69,343.47L572.57,343L573.19,342.43L574.11,342.9L573.25,343.59L573.14,344.18L574.35,345.87L575.28,346.86L576.35,347.58L576.95,348.7L576.79,349.41L582.27,349.76Z" class="land" id="MX-OAX" title="Oaxaca"/>
    <path d="M516.24,203.85L515.25,204.92L513.82,205.33L513.46,206.65L514.68,206.99L515.72,206.91L515.25,208.16L515.9,208.61L515.91,210.59L516.5,211.18L516.72,212.83L515.88,213.55L515.46,214.78L517.19,216.07L516.83,218.4L518.04,218.84L518.47,219.82L519.43,219.94L520.07,222.07L521.01,223.35L522.3,224.64L523.04,224.31L523.82,226.46L525.5,226.7L526.44,228.21L527.33,228.37L528.3,227.7L530.58,227.42L531.42,228.93L531.26,230.66L531.57,231.44L531.22,232.91L531.87,234.56L533.1,235.03L532.02,236.81L531.38,237.14L529.77,238.5L527.52,238.94L526.63,240.58L525.19,240.46L524.62,239.84L523.13,241.73L523.74,242.62L523.55,243.48L522.61,243.88L522.37,244.71L520.63,245L520.05,245.83L519.32,245.69L518.48,246.88L517.01,247.53L515.99,248.23L515.64,249.31L516.9,249.59L517.36,251.24L516.84,253.88L517.8,255.34L518.52,257.22L519.22,257.62L519.61,258.83L518.46,258.6L518.1,259.43L516.83,260.01L515.52,259.65L514.34,260.29L514,261.74L513.24,262.66L513.05,263.71L513.16,265.53L511.57,265.34L511.16,265.69L511.23,266.78L509.22,266.4L508.02,267.84L507.25,267.47L506.33,265.86L506.2,263.75L505.94,263.1L506.32,261.52L506.47,259.74L505.98,258.99L506.08,256.73L505.63,255.57L504.35,253.95L504.42,253.22L503.35,251.92L503.97,251.11L503.89,249.99L502.36,249.64L501.75,248.63L502.03,248.41L502.55,246.73L502.16,245.38L501.45,244.58L501.87,243.27L502.78,243.31L502.84,241.99L502.39,240.48L503.26,238.82L504.17,238.52L504.51,237.95L505.4,238.04L506.07,238.83L507.83,239.28L508.82,239.29L509.46,238.14L508.55,237.07L506.7,236.74L506.96,236.2L504.86,234.79L504.39,232.84L503.3,232.8L502.3,232.39L501.87,231.47L501.74,230.2L502.25,228.7L500.88,227.73L500.35,226.13L498.96,225.08L496.53,222.41L496.87,221.61L497.86,220.7L498.39,219.29L499.33,218.67L500.64,218.68L501.73,217.87L503.63,217.83L504.21,216.69L504.75,216.3L505.18,215.14L504.97,212.49L503.91,211.73L503.41,212.12L502.93,213.33L501.48,212.26L501.35,210.53L501.88,209.53L502.9,208.46L503.52,208.65L504.59,208.18L505.74,208.24L506.11,207.73L505.98,206.81L506.99,205.06L507.28,203.85L507.86,203.52L509.74,203.39L512.57,203.87L514.05,203.17L514.74,202.44L515.65,202.96Z" class="land" id="MX-NLE" title="Nuevo León"/>
    <path d="M427.2,288.36L428.55,288.72L429.12,289.65L428.71,290.29L427.49,289.64ZM456.66,278.56L456.76,279.99L457.35,280.71L457.45,280.96L456.81,283.49L457.04,285.05L457.89,284.78L459.35,285.67L459.33,286.56L459.84,287.91L461.96,288.1L462.4,288.64L463.04,290.43L463.76,291.07L463.88,291.83L463.68,294.01L463.47,294.44L462.32,295.1L461.44,295.25L460.94,295.75L458.38,296.07L458.16,297.97L457.61,300.47L456.95,300.89L457.45,302.79L455.92,301.29L455.37,301L454,299.45L452.42,299.04L451.8,298.31L450.39,298.04L448.75,299.3L447.55,299.06L446.7,299.46L445.84,300.79L444.66,302.19L443.79,301.25L443.34,301.63L442.2,300.79L442.67,299.68L444.38,297.9L444.97,297.65L445.56,296.81L445.69,295.23L445.33,293.22L446.05,291.83L445.56,290.75L445.08,290.91L443.24,289.75L442.67,289.02L441.96,287.43L440.43,284.82L440.06,283.45L440.16,281.79L441.27,282.68L442.29,283.18L442.45,282.4L440.65,280.82L440.38,280.31L440.22,277.83L439.9,276.1L440.98,276.74L442.64,277.08L442.94,276.58L442.4,274.48L441.84,273.98L441.78,272.78L442.65,271.69L442.94,269.93L443.36,269.62L444.5,270.98L445.36,270.8L446.1,270.14L446.88,271.04L448.48,271.35L448.94,272.71L449.8,272.88L449.56,273.98L448.01,275.01L447.85,275.59L448.62,277.27L449.29,277.72L450.41,275.96L451.12,276.86L451.99,277.08L453.27,278.32L453.53,279.05L454.7,279.97L455.15,279.23ZM429.99,291.09L430.79,291.32L430.66,292.19L429.28,291.47Z" class="land" id="MX-NAY" title="Nayarit"/>
    <path d="M527.31,324.36L528.29,325.6L529.6,326.09L530.68,325.2L531.4,324.93L530.97,325.81L529.98,329.12L530.64,332.64L530.36,333.01L528.94,331.65L527.67,332.69L527.17,333.36L525.93,334.18L524.75,332.98L521.92,332.62L520.89,331.24L519.53,330.94L519.61,329.93L520.53,328.46L521.96,325.74L522.79,324.46L523.48,324.34L524.08,324.94L525.15,324.32L525.62,324.73Z" class="land" id="MX-MOR" title="Morelos"/>
    <path d="M508.09,307.63L509.35,308.78L509.41,309.53L511.1,311.09L511.06,312.35L511.53,313.09L510.84,313.97L510.55,315.29L509.19,315.92L509.77,317.07L510.08,318.92L509.89,319.75L509.32,320.11L509.07,321.54L508.51,322.78L507.33,324.51L506.18,325.22L505.8,326.23L504.63,327.3L503.89,328.27L503.6,327.46L502.57,328.41L503.2,330.6L503.35,332.22L504.78,334.08L503.99,334.72L501.46,332.97L500.73,333.54L499.75,332.19L498.71,332.19L496.2,331.63L495.05,332.1L493.22,332.35L492.25,331.89L491.76,330.98L491.05,330.89L489.52,331.54L488.96,331.24L488.24,332.2L488.27,333.4L488.6,334.13L488.49,335.23L486.95,336.06L486.51,335.93L485.15,336.36L484.67,336.94L484.77,339.01L485.13,339.37L484.57,340.03L483.05,339.28L480.97,338.66L476.91,337.76L474.28,336.53L472.69,336.27L470.95,335.71L467.86,334.43L467.36,333.69L466.66,332L465.19,330.85L465.37,330.42L464.57,329.44L464.92,328.56L465.75,328.16L466.06,326.88L466.58,327.05L467.84,325.89L469.5,325.83L470.63,324.95L471.7,325.87L472.52,324.97L473.65,324.34L475.71,322.5L476.42,322.12L477.6,322.42L478.04,321.23L478.92,320.38L479.34,319.58L478.91,318.78L477.18,318.82L477.5,317.48L476.52,315.31L477.17,314.51L476.52,313.04L474.87,312.55L472.96,312.24L473.42,311.46L473.42,310.24L474.24,309.61L475.51,309.84L476.05,310.52L478.02,309.6L478.06,308.96L479.06,308.25L479.61,308.29L481.22,307.27L483.64,307.18L484.74,306.65L486.18,306.64L487.07,306.91L487.52,308.85L488.17,309.12L490.16,308.91L490.62,309.06L491.65,307.62L492.73,307.26L493.79,307.34L494.18,308.53L494.42,311.09L496.89,311.86L497.41,311.04L498.4,311.09L499.54,310.78L500.11,312.14L502.1,312.68L504.06,312.74L504.58,312.24L507.66,311.52L508.27,310.93L507.96,310.23L508.22,309.49L507.86,308.2Z" class="land" id="MX-MIC" title="Michoacán"/>
    <path d="M529.76,317.84L530.26,318.78L530.91,318.96L531.11,319.9L530.88,321.19L531.34,322.66L531.4,324.93L530.68,325.2L529.6,326.09L528.29,325.6L527.31,324.36L527.46,323.07L527.16,322L525.82,320.75L525.03,319.08L524.24,318.12L523.31,319.25L523.02,320.27L521.68,321.32L521.45,322.2L522.79,324.46L521.96,325.74L520.53,328.46L519.61,329.93L518.77,330.12L517.75,329.77L516.15,330.29L514.89,331.47L513.09,331.58L511.98,331.92L512.34,332.64L511.15,332.89L510.05,334.06L509.33,334.19L508.53,332.71L506.73,332.34L507.58,331.41L507.53,330.23L506.76,330.02L506.57,329.2L506.95,327.01L507.49,326.02L507.33,324.51L508.51,322.78L509.07,321.54L509.32,320.11L509.89,319.75L510.08,318.92L509.77,317.07L509.19,315.92L510.55,315.29L510.84,313.97L511.53,313.09L511.06,312.35L511.1,311.09L512.41,310.94L513.4,309.9L513.25,309L513.93,307.9L514.5,307.49L515.1,308.21L516.84,309.1L518.84,309.33L520.01,311.38L519.65,311.89L520.28,312.54L521.41,315.23L521.67,313.83L522.76,314.36L523.26,313.62L523.29,312.36L523.65,311.85L525.38,311.47L527.09,310.79L527.33,311.48L526.76,313.7L525.75,314.28L526.65,315.71L527.53,314.38L530.52,314.06L530.6,314.96L529.66,317.1Z" class="land" id="MX-MEX" title="México"/>
    <path d="M477.07,288.48L478.12,287.91L480.28,288.1L481.17,288.83L482.29,289.36L482.94,289.33L484.85,288.53L486.17,286.7L488.36,285.68L487.36,284.58L487.34,283.45L489.16,283.91L490.26,284.5L491.63,285.72L492.84,286.3L492.6,287.4L491.98,288.1L491.26,291.32L491.74,292.75L491.17,293.65L490.65,293.58L489.64,295.82L488.36,296.8L487.67,298.41L485.3,301.22L486.48,301.96L487.29,303.44L486.37,305.21L486.18,306.64L484.74,306.65L483.64,307.18L481.22,307.27L479.61,308.29L479.06,308.25L478.06,308.96L478.02,309.6L476.05,310.52L475.51,309.84L474.24,309.61L473.42,310.24L473.42,311.46L472.96,312.24L474.87,312.55L476.52,313.04L477.17,314.51L476.52,315.31L477.5,317.48L477.18,318.82L478.91,318.78L479.34,319.58L478.92,320.38L478.04,321.23L477.6,322.42L476.42,322.12L475.71,322.5L473.65,324.34L472.52,324.97L471.7,325.87L470.63,324.95L469.5,325.83L467.84,325.89L467.82,324.88L467.4,324.08L467.69,323.4L467.73,321.25L466.75,319.78L466.59,317.76L466.27,317.69L464.99,318.94L463.33,319.81L461.33,319.69L460.47,320.04L459.35,320.94L458.12,320.9L457.35,321.19L455.9,321.15L455.2,321.88L454.33,321.69L453.75,322.5L452.58,322.59L451.34,322.08L451.11,321.29L450.06,321.46L449.03,320.91L448.06,320.02L447.33,317.7L445.07,316.03L444,314.3L441.99,311.55L441.41,310.35L441.34,308.58L440.04,307.31L439.54,306.09L440.57,305.24L441.66,304.95L444.37,304.64L445.14,304.07L445.48,303.24L444.66,302.19L445.84,300.79L446.7,299.46L447.55,299.06L448.75,299.3L450.39,298.04L451.8,298.31L452.42,299.04L454,299.45L455.37,301L455.92,301.29L457.45,302.79L456.95,300.89L457.61,300.47L458.16,297.97L458.38,296.07L460.94,295.75L461.44,295.25L462.32,295.1L463.47,294.44L463.68,294.01L463.88,291.83L463.76,291.07L463.04,290.43L462.4,288.64L461.96,288.1L459.84,287.91L459.33,286.56L459.35,285.67L457.89,284.78L457.04,285.05L456.81,283.49L457.45,280.96L457.35,280.71L457.9,280.09L458.74,279.96L458.79,278.7L460.38,278.09L460.65,278.29L460.11,279.96L461.17,279.62L461.7,279.01L461.62,278.27L460.72,276.29L460.78,275.88L461.89,275.1L462.76,274.89L463.9,275.14L464.1,275.89L463.54,276.31L462.44,277.92L461.92,279.46L461.84,280.73L462.21,281.76L462.82,282.25L463.31,281.58L463.31,277.95L463.63,277.65L465.4,277.31L466.84,278.25L467.13,279.85L465.19,283.03L465.44,283.61L466.44,283.61L466.79,283.2L467.81,283.57L468.74,282.45L469.97,281.48L469.33,280.66L469.5,279.98L470.46,279.6L471.58,279.69L471.65,281.14L472.76,281.21L473.04,281.7L472.46,283.83L472.05,284.71L469.33,286.03L468.43,286.93L466.93,287.99L466.85,290.19L466.02,291.17L465.1,291.4L465.53,292.68L466.53,292.71L467.06,293.08L466.81,293.95L464.43,294.96L464.42,295.38L465.7,295.7L466.47,297L468.11,297.15L469.6,297.98L471.36,297.35L472.24,297.57L473.05,297.11L473.22,296.07L474.25,295.53L475.03,295.79L476.86,294.29L478.04,293.57L478.53,292.89L478.78,291.5L477.36,290.58L477.02,289.62Z" class="land" id="MX-JAL" title="Jalisco"/>
    <path d="M531.54,292.31L532.14,293.2L531.98,294.15L532.91,295.04L534.23,295.41L534.68,294.95L535.72,295.27L537,297.2L536.06,298.31L535.74,299.45L535.89,300.32L535.15,300.44L534.22,299.72L532.99,300.84L532.5,301.56L532.33,303.45L531.9,305.2L532.95,307.09L533.89,306.18L535.17,305.58L536.14,304.43L536.95,304.05L538.05,302.85L539.23,303.16L539.26,304.71L537.8,306.01L537.33,306.72L535.51,307.55L535.83,308.4L536.92,308.16L537.15,309.29L536.74,311.77L535.95,313.36L536.31,315.8L535.09,315.54L533.92,316.93L532.34,316.95L529.76,317.84L529.66,317.1L530.6,314.96L530.52,314.06L527.53,314.38L526.65,315.71L525.75,314.28L526.76,313.7L527.33,311.48L527.09,310.79L525.38,311.47L523.65,311.85L523.29,312.36L523.26,313.62L522.76,314.36L521.67,313.83L521.41,315.23L520.28,312.54L519.65,311.89L520.01,311.38L518.84,309.33L516.84,309.1L515.1,308.21L514.5,307.49L515.01,304.11L517.8,303.14L518.99,302.31L518.65,301.53L519.25,299.94L520.27,299.1L520.94,297.16L520.79,296.58L521.65,295.85L522.27,296.21L524.58,295.25L525.03,293.93L526.2,293.54L526.78,294.78L528.02,295.33L528.61,294.45L529.19,294.77L529.87,293.25L530.68,292.29Z" class="land" id="MX-HID" title="Hidalgo"/>
    <path d="M519.61,329.93L519.53,330.94L520.89,331.24L521.92,332.62L524.75,332.98L525.93,334.18L525.91,334.82L527.29,335.74L527.92,336.91L529.25,336.74L529.14,337.72L531.3,338.64L531.36,339.19L533.56,338.66L534.38,339.68L535.21,340.09L534.32,342.13L534.4,343.48L535.63,346L535.94,348.37L535.47,348.79L535.38,349.86L536.84,350.53L537.02,352.12L537.75,352.56L538.15,353.64L537.91,354.79L537.21,355.6L536.11,356.06L536.02,356.76L535.08,357.73L533.91,358.61L533.67,359.65L531.29,361.49L528.47,358.33L526.77,358.6L523.24,357.42L519.73,356.62L517.67,356.6L515.77,355.76L514.83,354.99L513.83,354.67L513.26,353.78L507.57,351.64L504.07,350.52L499.15,348.65L498.96,348.02L497.29,346.61L494.09,345.25L494.2,344.81L493.32,343.96L492.66,343.91L491.62,343.34L491.22,342.36L490.27,341.68L489.57,340.47L487.61,339.37L486.48,339.02L485.13,339.37L484.77,339.01L484.67,336.94L485.15,336.36L486.51,335.93L486.95,336.06L488.49,335.23L488.6,334.13L488.27,333.4L488.24,332.2L488.96,331.24L489.52,331.54L491.05,330.89L491.76,330.98L492.25,331.89L493.22,332.35L495.05,332.1L496.2,331.63L498.71,332.19L499.75,332.19L500.73,333.54L501.46,332.97L503.99,334.72L504.78,334.08L503.35,332.22L503.2,330.6L502.57,328.41L503.6,327.46L503.89,328.27L504.63,327.3L505.8,326.23L506.18,325.22L507.33,324.51L507.49,326.02L506.95,327.01L506.57,329.2L506.76,330.02L507.53,330.23L507.58,331.41L506.73,332.34L508.53,332.71L509.33,334.19L510.05,334.06L511.15,332.89L512.34,332.64L511.98,331.92L513.09,331.58L514.89,331.47L516.15,330.29L517.75,329.77L518.77,330.12Z" class="land" id="MX-GRO" title="Guerrero"/>
    <path d="M515.54,290.87L515.73,292.19L515.14,293.18L516.3,293.4L516.03,294.84L514.44,295.81L513.55,294.91L512.77,295.19L511.61,296.92L511.32,298.49L510.44,299.02L509.05,298.82L508.28,299.19L505.93,299.34L505.37,300.7L505.22,302.03L506.12,303.69L506.12,305.08L506.68,306.04L507.71,306.77L508.09,307.63L507.86,308.2L508.22,309.49L507.96,310.23L508.27,310.93L507.66,311.52L504.58,312.24L504.06,312.74L502.1,312.68L500.11,312.14L499.54,310.78L498.4,311.09L497.41,311.04L496.89,311.86L494.42,311.09L494.18,308.53L493.79,307.34L492.73,307.26L491.65,307.62L490.62,309.06L490.16,308.91L488.17,309.12L487.52,308.85L487.07,306.91L486.18,306.64L486.37,305.21L487.29,303.44L486.48,301.96L485.3,301.22L487.67,298.41L488.36,296.8L489.64,295.82L490.65,293.58L491.17,293.65L491.74,292.75L491.26,291.32L491.98,288.1L492.6,287.4L492.84,286.3L493.76,286.14L494.35,286.49L495.85,286.65L496.5,287.03L498.87,287.57L500.52,288.16L501.68,289.19L504.01,290.6L505.42,290.59L506.21,290.27L506.45,288.75L507,288.37L509,289.03L511,290.37L511.87,291.47L514.18,291.56Z" class="land" id="MX-GUA" title="Guanajuato"/>
    <path d="M463.01,217.18L464.91,217.91L467.14,220.24L467.85,222.29L467.71,224.52L468.58,226.56L468.46,228.77L469.08,230.67L468.46,232.68L467.19,234.21L467.49,235.07L468.59,235.84L467.43,236.08L466.73,236.78L467.06,238.41L467.96,239.5L468.27,240.4L469.52,241.4L469.8,243.01L470.78,244.07L472.54,244.89L473.97,244.97L475.05,245.67L475.54,245.29L475.29,244.4L475.85,242.78L477.41,241.73L477.55,242.71L478.18,243.59L479.38,244.44L478.96,246.97L479.58,247.2L480.11,249.27L479.8,250.3L476.68,250.6L475.82,250.47L475.42,250.94L472.97,250.08L471.82,250.49L470.67,250.13L468.38,250.08L467.55,251.39L466.32,252.33L465.26,253.8L464.09,254.9L462.86,255.27L463.33,257.07L463.36,258.91L463.13,259.53L463.59,261.73L462.15,262.99L460.96,264.48L460.92,265.45L460.25,268.43L459.23,270.03L459.2,270.69L459.63,272.29L459.67,273.37L459.42,275.48L458.02,276.01L457.25,276.99L456.66,278.56L455.15,279.23L454.7,279.97L453.53,279.05L453.27,278.32L451.99,277.08L451.12,276.86L450.41,275.96L449.29,277.72L448.62,277.27L447.85,275.59L448.01,275.01L449.56,273.98L449.8,272.88L448.94,272.71L448.48,271.35L446.88,271.04L446.1,270.14L445.36,270.8L444.5,270.98L443.36,269.62L442.28,268.49L440.48,268.69L439.93,266.53L439.1,265.28L439.24,264.79L438.7,263.29L438.47,261.84L437.59,260.98L436.57,259.33L436.25,257.81L435.88,257.26L435.08,254.98L435.04,253.85L433.06,251.28L432.31,250.78L430.24,250.17L429.9,250.71L427.43,252.19L426.64,252.03L425.83,250.29L425.42,248.16L424.73,248.15L424.11,245.84L423.43,245.68L422.97,244.33L421.36,244.38L421.07,243.21L419.82,240.7L419.31,240.39L419.57,239.37L419.61,236.73L420.3,235.07L419.71,234.39L420.59,233.25L420.72,232.21L422.07,231.47L422.79,232.49L424.91,232.99L425.75,233.66L426.21,232.93L428.02,231.53L429.02,230.08L428.8,228.78L428.3,227.97L429.18,225.91L429.47,224.68L430.2,223.87L431.43,223.12L431.84,222.12L431.56,221.16L431.63,220.01L432.4,217.07L433.3,216.77L433.41,216.11L434.8,216.32L436.32,217.07L437.07,218.3L438.04,218.91L438.6,218.86L440.3,220.12L441.27,220.11L441.71,220.95L442.37,220.82L443.49,221.36L445.74,220.45L448.33,220.31L449.33,221.29L450.72,222.01L451.61,221.54L452.49,221.64L452.72,220.43L453.69,218.84L454.47,218.56L455.58,217L455.88,216.11L458.4,217.35L461.68,216.75Z" class="land" id="MX-DUR" title="Durango"/>
    <path d="M527.31,324.36L525.62,324.73L525.15,324.32L524.08,324.94L523.48,324.34L522.79,324.46L521.45,322.2L521.68,321.32L523.02,320.27L523.31,319.25L524.24,318.12L525.03,319.08L525.82,320.75L527.16,322L527.46,323.07Z" class="land" id="MX-CMX" title="Ciudad de México"/>
    <path d="M467.84,325.89L466.58,327.05L466.06,326.88L465.75,328.16L464.92,328.56L464.57,329.44L463.98,328.84L461.74,327.19L459.08,325.76L457.28,325.08L457.4,324.28L456.61,323.7L455.53,323.86L452.58,322.59L453.75,322.5L454.33,321.69L455.2,321.88L455.9,321.15L457.35,321.19L458.12,320.9L459.35,320.94L460.47,320.04L461.33,319.69L463.33,319.81L464.99,318.94L466.27,317.69L466.59,317.76L466.75,319.78L467.73,321.25L467.69,323.4L467.4,324.08L467.82,324.88Z" class="land" id="MX-COL" title="Colima"/>
    <path d="M514.74,202.44L514.05,203.17L512.57,203.87L509.74,203.39L507.86,203.52L507.28,203.85L506.99,205.06L505.98,206.81L506.11,207.73L505.74,208.24L504.59,208.18L503.52,208.65L502.9,208.46L501.88,209.53L501.35,210.53L501.48,212.26L502.93,213.33L503.41,212.12L503.91,211.73L504.97,212.49L505.18,215.14L504.75,216.3L504.21,216.69L503.63,217.83L501.73,217.87L500.64,218.68L499.33,218.67L498.39,219.29L497.86,220.7L496.87,221.61L496.53,222.41L498.96,225.08L500.35,226.13L500.88,227.73L502.25,228.7L501.74,230.2L501.87,231.47L502.3,232.39L503.3,232.8L504.39,232.84L504.86,234.79L506.96,236.2L506.7,236.74L508.55,237.07L509.46,238.14L508.82,239.29L507.83,239.28L506.07,238.83L505.4,238.04L504.51,237.95L504.17,238.52L503.26,238.82L502.39,240.48L502.84,241.99L502.78,243.31L501.87,243.27L501.45,244.58L502.16,245.38L502.55,246.73L502.03,248.41L500.95,248.18L499.73,248.93L498.66,248.52L497.95,247.84L496.97,245.9L496.33,245.48L494.81,245.28L493.64,245.55L493.17,246L491.62,245.82L491.4,244.16L490.05,244.2L488.94,242.62L487.93,241.76L486.65,241.26L485.34,240.38L480.51,240.06L477.42,240.89L477.41,241.73L475.85,242.78L475.29,244.4L475.54,245.29L475.05,245.67L473.97,244.97L472.54,244.89L470.78,244.07L469.8,243.01L469.52,241.4L468.27,240.4L467.96,239.5L467.06,238.41L466.73,236.78L467.43,236.08L468.59,235.84L467.49,235.07L467.19,234.21L468.46,232.68L469.08,230.67L468.46,228.77L468.58,226.56L467.71,224.52L467.85,222.29L467.14,220.24L464.91,217.91L463.01,217.18L462.46,216.23L461.53,215.53L461.24,214.05L463.31,213.15L463.52,212.36L462.3,211.6L462.19,209.11L461.84,207.21L461.92,205.65L461.34,205.39L460.92,203.06L461.48,202.46L461.04,201.69L461.36,200.84L460.97,200.09L461.95,199.89L462.21,198.37L464.37,193.94L463.92,193.21L465.54,190.55L466.94,189.8L467.83,187.74L468.61,187.72L469.07,186.91L468.06,186.19L469.22,184.04L470.95,184.69L472.67,184.65L473.21,183.04L473.64,182.98L474.21,181.79L475.23,181.57L475.77,180.8L475.67,179.24L476.52,178.49L476.35,177.9L477.5,175.03L478.19,173.76L480.85,172.96L481.78,173.12L482.9,171.45L484.72,171.99L485.22,172.59L486.26,172.81L487.06,172.5L488.56,172.67L489.29,172.46L491.53,173.27L492.96,173.21L493.98,172.77L495.01,174.04L496.67,175.19L496.66,176.76L497.64,176.85L497.92,177.39L499.06,177.64L499.72,178.95L501.3,179.86L502.47,180.79L503.25,182.37L504.16,183.26L504.34,185.19L505.82,187.26L506.28,189.35L507.61,190.5L507.42,191.08L508.34,192.49L508.22,193.2L508.99,194.44L508.97,195L510.02,196.19L511.62,196.89L512.49,198.06L513.02,199.2L513.98,200.34L514.26,201.97Z" class="land" id="MX-COA" title="Coahuila"/>
    <path d="M469.22,184.04L468.06,186.19L469.07,186.91L468.61,187.72L467.83,187.74L466.94,189.8L465.54,190.55L463.92,193.21L464.37,193.94L462.21,198.37L461.95,199.89L460.97,200.09L461.36,200.84L461.04,201.69L461.48,202.46L460.92,203.06L461.34,205.39L461.92,205.65L461.84,207.21L462.19,209.11L462.3,211.6L463.52,212.36L463.31,213.15L461.24,214.05L461.53,215.53L462.46,216.23L463.01,217.18L461.68,216.75L458.4,217.35L455.88,216.11L455.58,217L454.47,218.56L453.69,218.84L452.72,220.43L452.49,221.64L451.61,221.54L450.72,222.01L449.33,221.29L448.33,220.31L445.74,220.45L443.49,221.36L442.37,220.82L441.71,220.95L441.27,220.11L440.3,220.12L438.6,218.86L438.04,218.91L437.07,218.3L436.32,217.07L434.8,216.32L433.41,216.11L433.3,216.77L432.4,217.07L431.63,220.01L431.56,221.16L431.84,222.12L431.43,223.12L430.2,223.87L429.47,224.68L429.18,225.91L428.3,227.97L428.8,228.78L429.02,230.08L428.02,231.53L426.21,232.93L425.75,233.66L424.91,232.99L422.79,232.49L422.07,231.47L420.72,232.21L419.62,230.77L419.32,229.1L417.84,226.58L416.63,226.22L414.99,226.06L413.18,225.63L412.61,223.58L411.91,222.11L410.81,220.47L410.6,219.29L409.88,218.46L410.08,215.84L409.54,214.63L408.6,214.64L408.64,213.42L408.19,212.95L405.68,213.06L404.77,212.85L403.74,213.17L401.92,212.23L402.3,211.77L402.06,210L402.7,208.37L402.68,207.49L401.02,203.57L399.31,202.36L399.67,201.1L399.48,200.24L398.41,198.7L397.27,197.96L397.57,196.54L396.67,195.67L397.21,194.95L398.5,194.7L399.25,194.26L400.55,195.01L402.12,194.39L403.4,193.1L402.25,192.65L401.42,191.44L401.7,190.6L401.31,189.66L401.34,188.68L401.96,187.17L401.69,185.96L402.12,185.3L402,183.78L402.65,183.33L402.84,181.79L403.56,181.34L403.43,178.41L403.92,177.46L403.92,176.11L403.49,172.63L402.91,172.4L402.96,169.73L403.69,168.01L402.94,166.75L403.44,165.04L402.38,160.96L401.86,160.07L402.2,159.24L401.66,158.77L401.62,157.52L400.53,156.56L401.04,155.8L401.29,154.2L400.95,152.85L400.05,150.92L400.55,150.42L399.99,149.73L407.23,149.7L407.23,142.91L416.81,142.92L428.83,142.91L429.34,143.47L430.68,143.69L431.69,145.28L432.02,146.3L432.78,147.46L434.63,148.74L435.56,148.84L436.3,149.74L437.26,150.35L438.5,152.16L440.74,153.5L441.36,154.9L443.12,156.2L443.4,156.66L445.18,157.77L445.64,157.64L447.42,159.21L448.33,159.41L448.75,160.46L449.77,161.21L450.16,162.3L450.31,163.88L452.21,166.09L452.44,166.91L452.44,169.38L452.61,171.07L453.17,171.55L454.24,173.63L454.43,174.56L456.99,176.72L457.9,176.79L458.63,177.38L459.19,178.6L461.65,180.03L463.2,180.24L464.21,180.73L464.94,181.72L465.83,182.08L467.04,182.07Z" class="land" id="MX-CHH" title="Chihuahua"/>
    <path d="M588.26,362.79L588.19,361.47L588.46,360.72L587.82,359.21L587.86,358.77L589.07,355.39L590.49,354.17L590.9,352.36L591.29,351.83L591.46,350.31L591.94,349.73L592.94,349.29L594.85,347.79L596.15,346.15L596.18,345.32L597.51,343.95L597.99,342.42L597.97,341.2L598.2,339.69L599.33,339.23L600.71,339.9L601.54,340.73L602.76,340.61L602.79,341.55L601.99,342.95L603.25,344.56L603.09,345.52L604.64,345.83L605.4,347.37L606.16,347.49L608.04,345.93L609.07,345.29L611.84,343.01L613.01,342.68L613,341.37L613.46,340.97L615.17,341.23L615.54,340.28L616.81,340.7L618.04,340.65L618.59,341.35L618.61,342.39L619.93,343.04L620.58,344.75L620.21,345.83L620.42,346.3L621.53,346.39L623.19,347.36L623.76,348.28L623.09,348.96L623.94,350.06L625.43,350.98L626.18,352.07L627.64,353.76L629.3,354.37L630.41,355.18L632.1,356.07L632.81,357.2L632.99,358.86L633.82,359.51L634.86,359.53L635.06,360.13L635.93,360.13L636.17,361.18L635.42,363L635.57,364.81L627.63,364.79L619.07,364.67L614.54,372.62L612.78,375.56L614.77,378.14L614.25,378.97L613.64,379.3L613.71,380.58L613.17,381.3L613.64,383.51L613.07,384.91L612.63,385.28L610.34,383.18L604.7,377.2L602.1,374.56L598.51,371.23L595.71,369.01L593.79,367.62L591.11,366.04L591.7,365.57L591.13,364.62L588.74,364.1Z" class="land" id="MX-CHP" title="Chiapas"/>
    <path d="M621.57,328.33L619.8,329.9L618.98,329.92L617.73,330.35L617.59,329.89L618.83,329.69ZM636.3,300.71L636.22,304.48L637.98,304.65L638.84,305.79L639.64,305.7L640.12,306.21L640.98,305.26L641.72,306.32L641.96,307.32L642.9,307.92L643.92,310.23L645.9,311.31L646.5,312.6L648.13,314.45L648.75,316.46L649.44,317.4L651.28,318.75L652.84,320.34L653.94,322.17L653.77,325.13L653,325.72L653.12,327.01L652.73,329.21L652.79,330.32L653.38,331.33L653.54,332.27L653.25,333.13L653.49,333.85L653.67,335.8L653.34,336.93L652.09,338.39L652.22,339.66L652.2,341.38L644.72,341.38L635.84,341.34L628.62,341.38L628.63,340.53L625.04,339.13L624.2,338.32L622.32,337.91L620.89,337.98L620.75,339.96L619.23,340.35L618.09,339.77L616.65,339.51L616.2,338.78L614.42,337.57L612.96,334.9L613.1,334.1L612.53,333.37L612.03,333.57L610.11,332L609.52,330.08L610.43,329.87L615.36,329.42L616.18,329.48L616.63,330.21L617.39,330.62L617.08,331.23L616.3,330.54L615.97,331.2L617.46,332.04L620.94,332.9L621.68,332.84L622.13,332.12L624.42,331.33L624.84,329.82L625.34,328.98L624.66,328.1L624.19,328.47L623.45,327.65L623.28,326.84L626.78,324.95L627.35,324.41L629.23,323.17L631.17,321.5L631.97,320.35L632.19,318.79L632.09,317.67L632.43,316.74L632.15,316.12L632.73,315L634.7,313.52L635.43,312.24L634.93,310.84L635.08,310.13L635.02,306.6L634.79,304.85L635.48,303.01L635.7,301.45Z" class="land" id="MX-CAM" title="Campeche"/>
    <path d="M356.83,238.26L356.94,238.97L356.47,240.27L356.04,242.67L356.38,243.36L355.61,245.11L354.63,245.07L355.82,242.06ZM330.9,199.72L331.23,199.72L347.87,199.77L348.65,200.79L349.48,202.59L350.88,204.11L353.07,204.95L354.26,206.02L354.63,207.95L355.47,208.88L355.97,210.02L355.75,210.41L357.09,211.5L359.11,212.12L358.44,213.04L358.32,213.86L359.18,215.11L360.13,215.92L360.3,216.63L359.7,217.58L360.3,217.96L361.35,219.78L361.87,220.17L362.66,219.45L360.9,217.6L360.43,215.25L360.81,215.01L361.76,215.73L363.04,217.16L364.15,217.87L364.05,219.69L365.63,220.42L365.33,221.89L366.29,223.02L366.26,224.21L367.28,226.87L366.76,228.42L367.43,231.11L368.65,232.14L368.88,233.39L369.82,234.63L371.14,234.78L371.03,235.62L371.63,237.24L372.06,237.68L372.55,240.03L374.59,242.6L375.76,244.82L375.29,246.35L374.71,247.42L374.85,248.97L375.39,249.68L375.45,251.17L376.35,252.62L377.14,253.31L378.74,253.94L378.85,254.7L380.33,253.7L379.89,252.05L380.4,251.27L381.2,251.38L381.97,252.68L383.07,253.19L384.13,254.01L384.38,255.57L385.11,255.83L386.44,255.38L386.73,255.93L386.41,257.41L388.07,259.04L387.93,260.06L388.29,261.18L390.4,262.1L391.62,264.02L391.47,266.87L390.2,268.71L388.54,269.36L387.91,270.17L386.85,270.76L386.57,271.3L385.28,272.04L384.69,272.04L383.45,271.01L382.85,269.58L382.1,265.91L380.38,262.87L379.29,261.87L377.24,260.93L375.79,259.84L373.37,257.13L370.72,254.64L368.13,252.94L365.19,251.27L364.65,250.49L363.56,250.11L362.94,248.21L362.38,248.65L361.14,248.54L360.5,247.12L359.38,245.88L358.2,245.73L357.17,245.23L356.08,244.19L356.48,243.39L356.94,241.57L356.51,241.14L356.59,240.17L357.54,238.16L357.34,235.29L357.65,234.74L357.65,232.84L356.03,228.03L355.54,227.39L354.55,226.84L354.1,225.37L353.26,224.36L352.12,224.57L349.38,222.76L344.8,219.21L344.75,218.43L343.09,216.31L343.98,215.07L343.25,213.96L343.06,215.62L342.41,215.75L342.02,217.12L341.33,216.59L339.56,216.04L338.25,217.76L337.42,217.36L337.06,216.63L336.24,216.42L335.42,214.51L334.49,213.82L333.35,213.53L332.8,213.91L331.58,212.2L330.4,211.49L328.48,211.22L326.54,210.2L326.53,208.39L326.28,207.58L325.07,206.59L323.37,205.97L322.78,204.8L321.22,203.89L320.66,203.23L319.85,203.1L319.29,201.65L321.04,201.4L323.55,201.84L325.1,202.32L326.32,202.32L329.04,200.95L328.77,202.22L329.16,202.88L330.58,203.68L331.66,204.65L332.42,203.63L333.29,204.01L334.09,205.54L334.86,205.01L334.05,204.18L334.37,203.21L334.26,201.85L333.36,201.11L332.83,202.08L332.93,202.67L331.29,203.3L330.45,202.66L330.51,201.61L331.11,200.72ZM379.59,248.71L380.49,249.53L380.02,250.58L379.21,249.46ZM358.67,248.83L360.27,248.91L360.85,249.66L361.75,250.03L362.43,251.29L362.25,251.71ZM385.11,250.97L386.81,254.01L385.96,254.17L385.23,252.65ZM370.57,226.9L370.1,227.94L369.03,229.29L368.67,228.93L369.21,228.03L369.11,227.28ZM375.15,240.62L375.47,241.25L376.64,241.65L377.14,243.92L375.79,242.86L374.98,241.36ZM371.52,327.13L372.41,328.03L372.4,328.94L371.16,328.69L370.75,328.02Z" class="land" id="MX-BCS" title="Baja California Sur"/>
    <path d="M338.51,176.28L339.55,176.58L340.6,177.63L341.15,178.77L341.22,180.05L343.34,180.15L343.43,182.54L343.74,183.42L344.36,183.61L344.18,184.59L342.47,183.33L341.78,182.26L340.46,181.32L339.97,180.35L339.15,179.66L338.02,177.94ZM317.19,193.53L317.86,195.24L317.92,197.01L317.59,198.55L317,198.62L316.05,197.64L316.02,196.9L316.79,195.9L316.56,194.72ZM331.23,199.72L330.9,199.72L330.15,200.22L329.37,199.89L330.95,197.95L330.88,199.03ZM322.35,132.12L321.05,132.17L320.41,134.19L319.47,135.44L320.19,136.47L319.88,137.44L320.03,138.48L319.62,140.39L322.55,142.37L322.3,143.27L322.78,145.34L322.2,146.09L321.82,147.33L321.78,149.15L321.34,150.78L321.37,152.26L321.68,153.4L322.39,154.05L322.11,154.73L323.57,155.67L323.87,157.5L323.83,160.18L324.71,162.27L324.57,165.68L324.24,166.79L325.31,168.54L325.96,170.11L327.56,171.43L327.55,172.37L328.43,173.39L329.2,173.01L330.13,173.41L330.75,174.21L333.07,176.05L334.98,178L335.72,178.35L337.48,180.23L337.4,181.71L338.33,182.69L338.74,183.54L338.5,185.11L338.92,185.98L339.62,185.15L340.84,185.73L341.1,187.3L342.34,186.75L343.11,187.39L343.62,189.39L344.02,189.82L344.33,191.64L345.65,192.4L346.9,192.1L347.66,192.89L347.3,194.81L348.31,196.26L348.07,197.31L348.19,198.69L348.8,199.5L348.65,200.79L347.87,199.77L331.6,199.71L332.29,198.71L331.53,198.2L331.35,197.31L331.99,196.3L331.91,195.28L331.2,195.3L332.21,192.61L331.92,191.52L330.48,189.44L329.72,189.3L328.34,188.26L327.61,186.44L326.58,185.43L325.79,185.36L325.12,184.77L324.66,182.98L323.78,182.92L323.24,181.72L322.36,181.26L320.16,178.78L319.09,178.31L317.52,178.1L316.73,176.81L315.1,176.19L314.08,175.19L313.47,175.32L312.45,174.2L311.99,174.15L311,173.12L310.99,171.25L310.4,170.42L309.6,170.11L309.91,168.27L309.63,167.65L309.65,165.49L309.23,164.58L308.19,163.66L306.48,162.61L306.77,159.86L306.45,158.03L304.85,156.8L303.67,155.25L302.75,155.11L303.13,152.38L302.08,150.48L301.35,149.85L300.4,148.23L298.64,146.79L298.23,146.16L298.77,144.78L298.61,143.91L299.15,143.42L299.05,141.77L297.39,140.97L297.31,140.19L295.8,139.38L295.73,137.82L295.08,135.97L293.75,135.32L292.65,132.27L292.67,131.58L303.54,130.49L311.5,129.75L323.57,128.72L322.76,130.18ZM278.03,181.59L277.78,182.81L278.45,183.43L278.47,185.56L277.84,186.12L277.34,183.87L276.71,183.22L276.74,182.2Z" class="land" id="MX-BCN" title="Baja California"/>
    <path d="M477.07,288.48L475.87,287.32L475.83,286.69L476.47,285.21L477.91,283.32L478.65,281.17L480.12,280.6L481.91,279.58L483.1,278.36L483.49,279.08L484.87,280.28L486.46,281.13L486.6,281.88L487.34,283.45L487.36,284.58L488.36,285.68L486.17,286.7L484.85,288.53L482.94,289.33L482.29,289.36L481.17,288.83L480.28,288.1L478.12,287.91Z" class="land" id="MX-AGU" title="Aguascalientes"/>
  </g>
</svg>