<?xml version="1.0" encoding="UTF-8"?>
<svg xmlns="http://www.w3.org/2000/svg" width="293.31" height="262.29" viewBox="333.35 125.85 293.31 262.29" style="background-color:#000000">
  <!-- Created using SVG Map Generator: dojo.amcharts.com/svg-map-generator -->
  <style>
    .land { fill: #ffffff; stroke: #000000; stroke-width: 0.65; }
  </style>
  <g id="polygons">
    <path d="M481.24,363.39L479.7,363.46L477.59,362.93L474.11,360.75L472.57,360.96L471.35,360.31L468.18,359.79L466.67,359.85L464.54,358.7L463.98,358.89L461.3,357.24L459.95,355.74L456.67,354.38L455.55,354.77L452.96,352.34L451.03,349.5L450.05,349.08L447.98,346.36L447,344.09L446.16,339.17L443.64,335.35L442.22,330.47L440.04,328.41L438.98,327.06L438.76,325.78L440.31,324.87L441,323.53L441.11,321.67L438.67,316.28L437.9,313.67L438.05,310.87L439.42,307.71L441.44,304.33L440.49,303.14L439.21,303.53L436.79,303.44L436.22,305.71L435.27,304.33L434.77,302.12L437,303.03L441.06,302.98L442.21,304.69L444.62,304.67L446.75,303.32L450.42,304.97L451.47,304.77L452.02,306.23L453.55,306.67L454.86,308.13L457.12,307.33L459.18,308.16L461.62,310.82L464.39,315.37L466.99,317.02L467.55,316.09L470.74,316.84L473.36,318.53L476.71,322.63L478.77,323.6L480.22,323.69L481.16,324.63L481.77,326.55L483,326.82L483.7,328.84L486.04,330.89L488.39,333.83L489.09,335.72L490.81,336.87L492.32,339.19L493.62,340.23L495.66,343.98L496.81,342.9L497.92,348.03L499.56,348.71L499.77,349.76L501.21,351.35L503.01,352.05L503.7,356.12L504.04,361.38L504.97,362.56L504.28,364.29L501.68,366.28L499.81,366.22L496.78,367.32L495.3,365.7L493.39,366.24L491.89,364.92L489.51,365.22L487.94,364.12L485.73,363.88L484.51,364.19L482.02,362.72ZM446.61,326.99L446.34,324.39L443.87,324.17L442.79,323.53L441.15,325.59L442.18,326.7L445.77,327.29ZM491.34,359.11L491.11,357.56L488.88,357.11L488.68,358.86L489.27,360.09ZM465.33,344.48L465.33,341.62L462.8,340.03L460.54,340.29L459.82,339.54L459.32,336.67L459.46,334.95L458.28,334.02L454.08,334.96L452.37,335.82L450.66,339.28L453.07,341.04L456.08,339.87L457.96,340.06L459.3,341.37L458.99,342.51L459.45,343.91L460.77,345.33L462.94,345.81Z" class="land" id="NI-LKN" title="Lago de Nicaragua"/>
    <path d="M405.89,292.44L403.59,291.71L402.13,290.72L399.45,290L398.33,287.59L398.64,285.81L400.08,284.81L402.87,286.06L404.53,286.15L405.8,285.2L406.75,283.24L408.7,282.07L412.28,280.93L412.94,279.37L416.14,279.13L417.23,280.96L417.77,284.05L419.22,286.06L421.03,289.34L421.03,292.08L422.3,291.9L424.11,289.53L425.2,289.16L427.91,290.26L427.55,292.63L426.82,293.9L426.64,298.64L421.21,298.64L419.4,299.74L415.23,299.55L415.77,297.73L417.41,296.45L417.04,294.63L415.77,292.27L412.52,292.27L411.06,293.18L409.79,294.63Z" class="land" id="NI-LKM" title="Lago de Managua"/>
    <path d="M491.34,359.11L489.27,360.09L488.68,358.86L488.88,357.11L491.11,357.56ZM486.04,330.89L486.86,329.27L488.25,329.04L489.52,327.38L490.84,327.9L492.37,326.01L493.89,325.18L493.63,324.18L494.56,322.95L498.48,321.62L499.47,320.33L502.93,318.46L505.97,317.93L507.73,317.3L510.7,317.35L513.17,317.95L515.15,318.02L515.64,320.29L516.7,323.25L518.05,324.42L517.48,326.16L517.64,327.84L519.07,329.64L519.23,331.62L517.82,333.97L517.42,337.46L517.89,339.63L517.91,341.71L519.01,343L522.33,343.86L526.25,346.52L529.52,347.89L529.9,348.87L529.7,351.46L530.63,352.67L532.94,353.52L536.65,355.41L537.36,356.08L539.69,360L541.26,360.75L545.27,361.49L546.72,360.9L548.15,363.57L554.85,362.27L556.42,362.36L556.23,363.65L557.4,366.01L558.43,365.42L560.1,365.76L561.97,366.94L564.42,370.75L567.29,373.03L568.4,372.27L569.38,373.48L569.76,375.47L569.58,377.28L570.13,378.87L569.36,380.45L566.97,380.71L564.29,381.97L562.68,381.94L561.36,383.32L560.4,383.24L558.37,384.91L556.36,384.77L554.35,385.5L552.47,384.26L551.99,383.26L550.15,382.2L549.16,380.71L545.95,382.2L544.63,381.59L543.26,381.87L542.88,380.8L540.44,381.04L537.32,379.96L537.83,376.72L536.03,375.21L534.09,374.83L533.22,373.6L531.33,373.09L530.14,371.05L530.57,369.8L529.78,368.65L526.25,370.76L524.2,370.34L522.24,368.19L517.93,366.36L517.34,365.27L515.28,365.95L511.02,363.53L497.46,371.71L493.12,369.88L481.42,365.64L481.24,363.39L482.02,362.72L484.51,364.19L485.73,363.88L487.94,364.12L489.51,365.22L491.89,364.92L493.39,366.24L495.3,365.7L496.78,367.32L499.81,366.22L501.68,366.28L504.28,364.29L504.97,362.56L504.04,361.38L503.7,356.12L503.01,352.05L501.21,351.35L499.77,349.76L499.56,348.71L497.92,348.03L496.81,342.9L495.66,343.98L493.62,340.23L492.32,339.19L490.81,336.87L489.09,335.72L488.39,333.83Z" class="land" id="NI-SJ" title="Río San Juan"/>
    <path d="M440.04,328.41L442.22,330.47L443.64,335.35L446.16,339.17L447,344.09L447.98,346.36L450.05,349.08L451.03,349.5L452.96,352.34L455.55,354.77L456.67,354.38L459.95,355.74L461.3,357.24L463.98,358.89L464.54,358.7L466.67,359.85L468.18,359.79L471.35,360.31L472.57,360.96L474.11,360.75L477.59,362.93L479.7,363.46L481.24,363.39L481.42,365.64L480.44,365.28L471.66,360.86L468.34,360.87L462.19,358.6L459.97,355.89L457,355.38L451.84,363.85L449.03,363.09L447.02,362.18L445.84,360.87L445.71,359.5L444.73,357.7L442.92,355.57L441.18,354.19L439.78,352.47L438.97,350.72L437.92,350.33L436.86,348.94L435.19,348.32L431.87,345.82L431.26,344.45L430.16,344.05L429.1,342.39L426.61,340.51L424.95,340.01L423.97,337.59L424.88,336.93L425.78,334.35L427.7,332.36L429.35,332.59L430.35,331.86L432.42,331.64L433.37,330.1L438.96,329.13ZM465.33,344.48L462.94,345.81L460.77,345.33L459.45,343.91L458.99,342.51L459.3,341.37L457.96,340.06L456.08,339.87L453.07,341.04L450.66,339.28L452.37,335.82L454.08,334.96L458.28,334.02L459.46,334.95L459.32,336.67L459.82,339.54L460.54,340.29L462.8,340.03L465.33,341.62Z" class="land" id="NI-RI" title="Rivas"/>
    <path d="M448.52,199.56L446.35,202.58L446.95,204.32L446.3,205.47L446.35,206.96L444.95,209.7L444.95,212.01L444.24,212.88L444.71,214.12L444.3,215.95L445.27,216.24L443.99,218.36L442.93,219.12L441.35,219.1L438.35,221.25L437.83,220.43L435.52,218.86L433.69,218.58L432.86,219.67L430.67,219.67L428.41,217.79L427.7,215.74L423.97,212.71L423.19,213.14L419.98,212.59L418.04,212.56L415.28,214.42L411.96,214.78L405.99,213.68L402.53,214.39L401.07,215.17L399.58,214.68L397.54,213.3L397.43,211.65L395.16,210.43L391.39,210.05L389.97,210.74L388.64,209.55L389.93,206.58L389.62,204.47L389.94,203.08L392.7,202.24L396.28,202.8L400.74,202.15L401.69,201.43L403.22,201.6L405.28,203.32L408.07,202.49L408.79,203.73L411.39,203.93L412.42,203.28L414.17,203.76L415.61,202.6L416.78,200.63L416.83,198.75L419.64,196.43L421.38,193.84L423.49,192.18L423.48,190.56L425.07,190.31L426.31,189.43L425.55,187.54L428.93,185.66L432.3,185.36L433.6,184.87L434.02,185.93L433.08,188.11L433.41,190.1L437.35,193.16L438.96,195.01L440.06,195.49L440.82,194.16L442.23,194.32L443.39,195.29L443.35,196.85L445.28,199.06L447.63,198.79Z" class="land" id="NI-NS" title="Nueva Segovia"/>
    <path d="M462.95,227.07L464.07,230.3L467.51,234.67L468.91,235.38L470.18,237.52L471.53,238.45L472.9,237.96L476,240.94L478.5,242.17L482.29,239.72L485.81,239.41L487.67,238.5L489.09,239.41L488.24,241.53L486.42,242.45L486.3,244.36L487.26,245.56L485.93,247.55L484.48,248.59L484.36,250.33L482.66,249.71L480.92,253.2L482.45,256.1L481.89,258.63L482.86,261.17L482.88,262.54L485.45,262.28L486.61,263.44L485.46,265.8L485.96,267.26L484.04,269.47L484.5,270.92L482.9,271.74L482.58,273.59L479.98,273.82L479.02,272.06L476.35,271.62L476.64,270.41L474.47,269.92L472.47,269L469.34,267.07L467.24,268.31L466.54,269.19L465.11,268.25L463.45,267.9L460.43,268.75L459.67,270.18L457.15,270.52L454.61,271.55L451.99,270.81L447.72,272L444.06,272.05L441,272.58L440.86,275.41L438.04,276.76L435.9,278.68L433.71,277.99L430.49,276.5L428.6,274.54L426.4,273.46L425.21,273.8L422.88,272.07L420.89,271.57L417.8,271.31L418.33,268.59L418.01,266.89L418.62,262.55L418.48,258.31L418.98,255.14L421.99,253.41L424.61,252.81L426.19,249.56L425.88,248.85L427.87,247.48L431.31,247.84L432.34,250.08L434.5,250.19L434.48,248.96L437.78,249.28L438.88,248.91L441.17,246.54L445.88,242.35L447.92,241.76L449.63,238.94L453.68,234.84L455.89,230.72L457.21,230.06L459.64,229.7Z" class="land" id="NI-MT" title="Matagalpa"/>
    <path d="M433.88,301.07L434.77,302.12L435.27,304.33L436.22,305.71L436.05,308.45L433.37,311.95L431.63,313.24L431.45,314.56L430.09,316.54L429.06,319.57L428.68,318.94L424.81,318.45L424.51,316.61L425.1,315.84L423.4,315.02L422.82,313.72L419.75,312.79L417.79,311.78L419.13,309.71L421.11,311.5L423.66,310.36L424.69,308.62L422.72,306.44L424.56,303.85L426.26,303.3L427.41,301.74L430.33,301.37L432.13,300.51Z" class="land" id="NI-MS" title="Masaya"/>
    <path d="M405.89,292.44L409.79,294.63L411.06,293.18L412.52,292.27L415.77,292.27L417.04,294.63L417.41,296.45L415.77,297.73L415.23,299.55L419.4,299.74L421.21,298.64L426.64,298.64L426.82,293.9L427.55,292.63L427.91,290.26L425.2,289.16L424.11,289.53L422.3,291.9L421.03,292.08L421.03,289.34L419.22,286.06L417.77,284.05L417.23,280.96L416.14,279.13L412.94,279.37L412.76,276.93L413.92,273.49L415.63,271.84L417.8,271.31L420.89,271.57L422.88,272.07L425.21,273.8L426.4,273.46L428.6,274.54L430.49,276.5L433.71,277.99L435.9,278.68L435.12,280.1L436.41,283.01L437.65,285.04L439.42,286.85L438.37,289.15L439.78,290.82L444.32,294.53L443.1,296.46L443.04,298.53L440.65,297.56L438.78,299.75L435,301.06L433.88,301.07L432.13,300.51L430.33,301.37L427.41,301.74L426.26,303.3L424.56,303.85L422.72,306.44L424.69,308.62L423.66,310.36L421.11,311.5L419.13,309.71L417.79,311.78L413.02,318.55L412.56,319.99L411.38,321.33L410,321.83L408.68,323.29L409.39,324.98L408.57,325.77L406.13,324.07L404.15,322.26L403.13,319.62L400.93,316.95L398.58,314.99L397.22,311.68L394.8,309.26L394.5,308.58L396.09,307.31L395.43,304.89L397.53,303.56L399.63,303.96L400.37,303.12L402.5,301.96L404.19,300.57L404.44,298.9L404.01,297.91L402.55,297.23L403.89,294.09Z" class="land" id="NI-MN" title="Managua"/>
    <path d="M389.97,210.74L391.39,210.05L395.16,210.43L397.43,211.65L397.54,213.3L399.58,214.68L401.07,215.17L402.53,214.39L405.99,213.68L411.96,214.78L415.28,214.42L418.04,212.56L419.98,212.59L423.19,213.14L423.97,212.71L427.7,215.74L428.41,217.79L430.67,219.67L430.03,220.1L429.34,222.08L427.21,223.38L423.85,223.34L422.72,224.25L421.45,226.3L420.38,224.14L416.83,223.53L409,225.3L404.14,223.67L402.86,223.73L401.72,224.78L399.57,228.53L398.03,232.04L393.26,236.87L392.65,237.26L393.13,235.38L392.6,233.48L390.73,233.31L393.21,231.66L393.45,229.9L392.99,227.24L391.48,226.6L391.26,225.24L392.29,223.9L391.42,220.72L390.93,216.39L389.69,215.23L390.6,211.3Z" class="land" id="NI-MD" title="Madriz"/>
    <path d="M391.4,243.6L392.92,243.34L394.64,243.68L395.81,244.6L397.84,244.38L399.77,243.12L402.86,242.39L406.6,242.85L407.35,243.59L408.37,245.93L410.56,248.79L410.15,251.18L408.87,253.88L410.03,255.94L413.8,257.6L417.32,258.37L418.48,258.31L418.62,262.55L418.01,266.89L418.33,268.59L417.8,271.31L415.63,271.84L413.92,273.49L412.76,276.93L412.94,279.37L412.28,280.93L408.7,282.07L406.75,283.24L405.8,285.2L404.53,286.15L402.87,286.06L400.08,284.81L398.64,285.81L398.33,287.59L399.45,290L402.13,290.72L403.59,291.71L405.89,292.44L403.89,294.09L402.55,297.23L404.01,297.91L404.44,298.9L404.19,300.57L402.5,301.96L400.37,303.12L399.63,303.96L397.53,303.56L395.43,304.89L396.09,307.31L394.5,308.58L393.07,305.85L391.54,303.6L390.71,300.76L389.49,298.47L389.42,297.31L379.55,291.15L375.24,288.2L372.94,286.29L370.98,284.1L369.3,282.09L372.75,281.49L374.07,280.37L376.61,279.33L379.06,277.79L379.59,276.71L379.71,273.03L381.34,271.93L383.45,268.78L384.87,268.36L386.46,267.05L386.66,264.82L387.36,264.13L391.39,263.59L393.35,263.63L394.6,262.87L395.82,260.63L396.09,258.92L395.01,254.7L395.35,251.92L393.71,249.03L392.73,247.98L392.49,246.04Z" class="land" id="NI-LE" title="León"/>
    <path d="M490.85,153.12L492.84,153.94L492.06,157.27L492.13,158.46L493.83,159.56L494.37,161.14L493.51,161.88L493.66,164.82L492.71,165.32L493.71,167.38L495.78,169.65L502.67,170.05L500.4,181.75L501.15,185.25L489.12,204.88L483.41,202.02L475.42,207.25L470.94,207.36L470.25,210.64L468.47,211.92L468.16,212.74L470.14,215.39L469.21,218.31L469.28,219.82L468.54,221.04L466.84,221.62L463.03,224.77L462.95,227.07L459.64,229.7L457.21,230.06L455.89,230.72L453.68,234.84L449.63,238.94L447.92,241.76L445.88,242.35L441.17,246.54L438.88,248.91L437.78,249.28L434.48,248.96L434.5,250.19L432.34,250.08L431.31,247.84L427.87,247.48L427.62,245.6L423.54,243.71L421.54,241.71L420.8,240.16L419.08,238.24L421,234.54L420.34,229.82L420.75,227.62L421.45,226.3L422.72,224.25L423.85,223.34L427.21,223.38L429.34,222.08L430.03,220.1L430.67,219.67L432.86,219.67L433.69,218.58L435.52,218.86L437.83,220.43L438.35,221.25L441.35,219.1L442.93,219.12L443.99,218.36L445.27,216.24L444.3,215.95L444.71,214.12L444.24,212.88L444.95,212.01L444.95,209.7L446.35,206.96L446.3,205.47L446.95,204.32L446.35,202.58L448.52,199.56L449.21,199.09L449.24,197.46L447.96,196.58L448.38,194.7L448.31,191.99L451.02,190.21L452.77,190.78L453.98,188.73L455.7,188.82L458.6,186.75L462.05,186.71L462.86,184.6L466.72,183.24L468.89,182.01L469.2,180.13L470.4,178.96L470.67,176.97L471.68,176.66L472.76,174.82L474,174.22L476.27,174.05L481.79,174.46L483.28,171.88L482.09,171.14L481.93,169.81L480.76,169.31L480.6,168.11L479.35,167.48L480.44,166.11L482.09,161.83L483.7,160.13L484.38,158.73L484.29,156.6L483.68,155.48L485.1,154.67L486.96,156.49L488.46,156.23L489.84,155.14Z" class="land" id="NI-JI" title="Jinotega"/>
    <path d="M433.88,301.07L435,301.06L438.78,299.75L440.65,297.56L443.04,298.53L443.2,300.96L446.51,302.32L446.75,303.32L444.62,304.67L442.21,304.69L441.06,302.98L437,303.03L434.77,302.12ZM436.22,305.71L436.79,303.44L439.21,303.53L440.49,303.14L441.44,304.33L439.42,307.71L438.05,310.87L437.9,313.67L438.67,316.28L441.11,321.67L441,323.53L440.31,324.87L438.76,325.78L438.98,327.06L440.04,328.41L438.96,329.13L433.37,330.1L432.42,331.64L430.35,331.86L429.35,332.59L427.7,332.36L426.46,330.24L426.81,328.63L426.52,326.81L428.12,326.23L428.95,323.35L428.18,321.32L429.06,319.57L430.09,316.54L431.45,314.56L431.63,313.24L433.37,311.95L436.05,308.45ZM446.61,326.99L445.77,327.29L442.18,326.7L441.15,325.59L442.79,323.53L443.87,324.17L446.34,324.39Z" class="land" id="NI-GR" title="Granada"/>
    <path d="M392.65,237.26L393.26,236.87L398.03,232.04L399.57,228.53L401.72,224.78L402.86,223.73L404.14,223.67L409,225.3L416.83,223.53L420.38,224.14L421.45,226.3L420.75,227.62L420.34,229.82L421,234.54L419.08,238.24L420.8,240.16L421.54,241.71L423.54,243.71L427.62,245.6L427.87,247.48L425.88,248.85L426.19,249.56L424.61,252.81L421.99,253.41L418.98,255.14L418.48,258.31L417.32,258.37L413.8,257.6L410.03,255.94L408.87,253.88L410.15,251.18L410.56,248.79L408.37,245.93L407.35,243.59L406.6,242.85L402.86,242.39L399.77,243.12L397.84,244.38L395.81,244.6L394.64,243.68L392.92,243.34L391.4,243.6L390.89,242.05L390.88,240.16L391.82,238.1Z" class="land" id="NI-ES" title="Estelí"/>
    <path d="M486.04,330.89L483.7,328.84L483,326.82L481.77,326.55L481.16,324.63L480.22,323.69L478.77,323.6L476.71,322.63L473.36,318.53L470.74,316.84L467.55,316.09L466.99,317.02L464.39,315.37L461.62,310.82L459.18,308.16L457.12,307.33L454.86,308.13L453.55,306.67L453.14,304.37L455.28,300.71L455.71,297.83L457.63,296.7L458.14,292.96L459.49,290.93L460.81,290.34L464.08,290.07L465.13,290.5L468.84,290.42L474.02,289.57L474.99,288.8L476.03,289.35L479.17,287.38L481.01,285.29L484.18,283.83L485.48,284.57L487.94,283.47L490.4,280.07L490.53,277.24L494.32,270.49L495.7,272.71L497.74,274.41L499.83,279.54L502.01,280.76L500.07,283.89L500.51,286.04L501.93,288.46L502.88,289.16L503.79,291.09L505.15,293L504.32,294.96L504.97,298.21L505.81,300.74L507.39,303.4L508.1,309.51L509.42,310.81L514.63,312.86L517.3,314.18L517.58,315.54L518.73,316.96L518.51,317.9L515.15,318.02L513.17,317.95L510.7,317.35L507.73,317.3L505.97,317.93L502.93,318.46L499.47,320.33L498.48,321.62L494.56,322.95L493.63,324.18L493.89,325.18L492.37,326.01L490.84,327.9L489.52,327.38L488.25,329.04L486.86,329.27Z" class="land" id="NI-CO" title="Chontales"/>
    <path d="M390.73,233.31L392.6,233.48L393.13,235.38L392.65,237.26L391.82,238.1L390.88,240.16L390.89,242.05L391.4,243.6L392.49,246.04L392.73,247.98L393.71,249.03L395.35,251.92L395.01,254.7L396.09,258.92L395.82,260.63L394.6,262.87L393.35,263.63L391.39,263.59L387.36,264.13L386.66,264.82L386.46,267.05L384.87,268.36L383.45,268.78L381.34,271.93L379.71,273.03L379.59,276.71L379.06,277.79L376.61,279.33L374.07,280.37L372.75,281.49L369.3,282.09L368.19,282.26L366.28,280.45L365.64,280.54L363.04,276.85L361.23,275.33L361.28,273.96L358.71,274.28L357.44,272.78L355.05,271.46L354.33,269.38L353.37,268.09L349.74,264.49L349.74,262.9L347.69,261.26L346.99,259.89L345.76,259.51L345.86,261.61L338.46,257.05L336.19,255.05L336,254.04L336.76,251.61L337.69,250.1L339.62,249.27L341.43,246.93L343.81,246.44L346.11,248.09L347.91,249.93L347.67,251.99L348.85,253.42L352.57,254.58L355.92,254.17L358.74,253.46L358.99,252.55L361,251.77L361.38,251.21L359.78,250.19L369.01,249.41L372.26,249.47L373.3,250.23L374.53,249.97L376.68,248.22L378.53,247.38L378.9,245.79L380.89,243.97L380.02,242.07L380.89,240.61L380.27,238.42L381,237.18L381.5,233.99L383.3,232.88L384.02,231.73L386.66,231.01L390,233.26ZM356.48,253.44L353.98,253.34L353.19,252.58L355.15,251.23L357.46,250.26L360.17,250.66L361,251.52L358.89,252.39L358.2,253.28ZM370.98,284.1L372.94,286.29L371.82,285.88Z" class="land" id="NI-CI" title="Chinandega"/>
    <path d="M417.79,311.78L419.75,312.79L422.82,313.72L423.4,315.02L425.1,315.84L424.51,316.61L424.81,318.45L428.68,318.94L429.06,319.57L428.18,321.32L428.95,323.35L428.12,326.23L426.52,326.81L426.81,328.63L426.46,330.24L427.7,332.36L425.78,334.35L424.88,336.93L423.97,337.59L421.96,335.73L419.48,334L417.87,333.42L414.01,331.09L411.95,328.43L408.57,325.77L409.39,324.98L408.68,323.29L410,321.83L411.38,321.33L412.56,319.99L413.02,318.55Z" class="land" id="NI-CA" title="Carazo"/>
    <path d="M487.26,245.56L490.17,243.55L492.81,244.16L497.99,244.49L499.82,242.05L500.9,241.5L504.08,240.78L507.37,236.16L519.65,234.38L531.95,234.05L533.16,232.75L536.09,232.57L537.5,233.37L539.09,232.17L541.05,231.82L545.16,231.59L546.88,232.25L550.65,232.69L556.35,233.86L558.87,233.85L560.33,234.97L562.33,235.72L560.48,239.36L560.77,240.16L571.16,247.15L574.57,247.04L577,247.39L578.77,254.44L578.23,255.28L575.96,255.28L574.52,254.48L573.73,255.65L572.38,254.84L568.97,254.43L569.16,253.5L564.46,251.43L564.18,250.3L560.14,248.58L559.96,247.06L558.41,245.19L559.06,244.56L557.39,240.39L556.39,240.02L558.74,244.38L557.99,245.18L559.59,246.99L559.92,248.86L561.49,249.72L563.9,250.36L564.11,251.53L567.12,253.68L568.76,253.79L568.97,254.91L572.34,255.37L574.06,256.01L579.29,255.59L578.61,257.55L577.29,266.17L576.77,272.21L576.99,274.85L578.26,279.09L580.08,281.58L579.86,286.03L579.21,286.47L576.35,285.98L571.95,286.92L573.71,284.22L572.57,281.56L571.71,280.38L571.56,277.68L572.27,276.17L574.8,276.19L576.09,274.54L576.21,272.4L575.81,268.9L576.88,265.89L576.86,261.55L572.95,260.21L572.17,261.17L570.74,261.61L570.86,259.68L570.45,257.58L568.2,256.71L567.75,258.28L568.49,259.48L568.22,261.09L564.54,259.27L563.41,259.87L563.49,260.92L565.68,260.28L565.82,262.96L567.6,262.95L568.3,261.59L569.21,261.4L570.91,262.21L570.92,264.54L572.53,264.74L572.54,266.9L573.96,268.66L573.27,272.38L572.44,273.54L568.08,276.59L565.29,276.97L563.82,278.19L563.86,281.42L566.08,280.96L566.98,285.6L566.31,287.22L566.69,289.15L567.67,290.05L571.7,288.36L572.75,288.47L570.9,291.07L569.08,295.85L568.38,303.06L568.79,305.3L568.82,308.33L567.25,307.16L566.12,304.27L567.73,304.02L568.17,302.43L567.38,301.46L566.47,303.84L564.97,304.43L565.38,306.96L564.33,307.17L564.7,308.89L563.99,310.65L564.27,312.14L562.4,313.79L562.09,315.21L560.05,316.63L561.43,317.77L561.23,318.75L562,320.03L563.51,321.3L565.58,321.16L565.19,319.62L565.82,317L567.6,317.95L567.93,319.92L569.27,323.69L569.46,325.97L570.2,328.23L570.08,329.22L571.1,332.48L570.77,333.28L568.63,332.83L566.96,334.93L564.74,335.16L563.55,337.92L562.94,340.26L561.85,342.19L560.24,342.03L558.12,345.21L557.74,349.16L558.25,354.03L559,355.99L559.28,358.48L561.2,364.04L562.36,366.53L565.25,370.69L564.58,370.75L562.94,368.03L561.18,365.71L560.1,365.76L558.43,365.42L557.4,366.01L556.23,363.65L556.42,362.36L554.85,362.27L548.15,363.57L546.72,360.9L545.27,361.49L541.26,360.75L539.69,360L537.36,356.08L536.65,355.41L532.94,353.52L530.63,352.67L529.7,351.46L529.9,348.87L529.52,347.89L526.25,346.52L522.33,343.86L519.01,343L517.91,341.71L517.89,339.63L517.42,337.46L517.82,333.97L519.23,331.62L519.07,329.64L517.64,327.84L517.48,326.16L518.05,324.42L516.7,323.25L515.64,320.29L515.15,318.02L518.51,317.9L518.73,316.96L517.58,315.54L517.3,314.18L514.63,312.86L509.42,310.81L508.1,309.51L507.39,303.4L505.81,300.74L504.97,298.21L504.32,294.96L505.15,293L503.79,291.09L502.88,289.16L501.93,288.46L500.51,286.04L500.07,283.89L502.01,280.76L499.83,279.54L497.74,274.41L495.7,272.71L494.32,270.49L493.42,269.89L493.48,267.81L492.6,265.11L490.48,262.9L489.07,262.21L486.61,263.44L485.45,262.28L482.88,262.54L482.86,261.17L481.89,258.63L482.45,256.1L480.92,253.2L482.66,249.71L484.36,250.33L484.48,248.59L485.93,247.55Z" class="land" id="NI-AS" title="Costa Caribe Sur"/>
    <path d="M486.61,263.44L489.07,262.21L490.48,262.9L492.6,265.11L493.48,267.81L493.42,269.89L494.32,270.49L490.53,277.24L490.4,280.07L487.94,283.47L485.48,284.57L484.18,283.83L481.01,285.29L479.17,287.38L476.03,289.35L474.99,288.8L474.02,289.57L468.84,290.42L465.13,290.5L464.08,290.07L460.81,290.34L459.49,290.93L458.14,292.96L457.63,296.7L455.71,297.83L455.28,300.71L453.14,304.37L453.55,306.67L452.02,306.23L451.47,304.77L450.42,304.97L446.75,303.32L446.51,302.32L443.2,300.96L443.04,298.53L443.1,296.46L444.32,294.53L439.78,290.82L438.37,289.15L439.42,286.85L437.65,285.04L436.41,283.01L435.12,280.1L435.9,278.68L438.04,276.76L440.86,275.41L441,272.58L444.06,272.05L447.72,272L451.99,270.81L454.61,271.55L457.15,270.52L459.67,270.18L460.43,268.75L463.45,267.9L465.11,268.25L466.54,269.19L467.24,268.31L469.34,267.07L472.47,269L474.47,269.92L476.64,270.41L476.35,271.62L479.02,272.06L479.98,273.82L482.58,273.59L482.9,271.74L484.5,270.92L484.04,269.47L485.96,267.26L485.46,265.8Z" class="land" id="NI-BO" title="Boaco"/>
    <path d="M577,247.39L574.57,247.04L571.16,247.15L560.77,240.16L560.48,239.36L562.33,235.72L560.33,234.97L558.87,233.85L556.35,233.86L550.65,232.69L546.88,232.25L545.16,231.59L541.05,231.82L539.09,232.17L537.5,233.37L536.09,232.57L533.16,232.75L531.95,234.05L519.65,234.38L507.37,236.16L504.08,240.78L500.9,241.5L499.82,242.05L497.99,244.49L492.81,244.16L490.17,243.55L487.26,245.56L486.3,244.36L486.42,242.45L488.24,241.53L489.09,239.41L487.67,238.5L485.81,239.41L482.29,239.72L478.5,242.17L476,240.94L472.9,237.96L471.53,238.45L470.18,237.52L468.91,235.38L467.51,234.67L464.07,230.3L462.95,227.07L463.03,224.77L466.84,221.62L468.54,221.04L469.28,219.82L469.21,218.31L470.14,215.39L468.16,212.74L468.47,211.92L470.25,210.64L470.94,207.36L475.42,207.25L483.41,202.02L489.12,204.88L501.15,185.25L500.4,181.75L502.67,170.05L495.78,169.65L493.71,167.38L492.71,165.32L493.66,164.82L493.51,161.88L494.37,161.14L493.83,159.56L492.13,158.46L492.06,157.27L492.84,153.94L490.85,153.12L490.67,151.06L489.59,150.33L490.83,147.58L493.17,145.39L494.7,144.38L496.6,143.98L497.57,141.62L498.34,140.88L500.6,141.03L502.95,140.05L504.51,140.88L505.12,142.43L506.74,143.47L505.77,144.63L507.19,146.77L509.2,148.14L510.16,149.81L511.02,148.25L512.26,149.4L513.55,149.13L516.79,150.46L520.12,150.24L521.66,152.21L523.34,152.6L524,151.66L525.43,151.56L528.34,148.84L529.42,146.76L530.67,147.36L530.2,148.72L531.62,149.21L532.64,148.56L533.39,149.85L534.41,150.16L535.82,148.99L534.98,146.33L535.3,145.2L536.74,144.19L537.32,145.59L540.14,146.99L542.11,146.65L543.13,145.91L544.9,146.12L543.75,143.24L544.02,142.42L545.69,142.76L546.11,144.31L547.8,143.59L548.09,144.91L550.43,144.5L551.77,145.06L555.39,143.12L556.5,143.92L559.26,143.45L560.19,142.43L562.48,142.23L562.94,141.32L564.38,141.32L564.76,140.04L566.89,139.51L567.04,138.83L569.73,137.17L571.93,137.06L572.76,136.02L575.91,135.11L576.05,133.54L577.51,132.89L577.98,131.46L579.32,129.49L580.16,129.17L581.56,130.91L584.07,130.09L586.15,128.5L589.55,128.96L592.84,130.39L595.01,130.59L596.62,129.83L596.68,131.8L593.19,135.68L592.45,138.79L590.79,142.64L589.74,142.24L589.51,140.48L591.46,139.67L590.71,138.23L590.48,136.14L588.61,135.51L587.1,136.74L585.83,139.22L585.01,139.4L586.35,144.59L588.03,145.98L589.45,145.87L589.03,143.79L590.49,143.1L591.75,149.86L592.69,153.92L594.57,159.95L594.2,161.2L595.87,162.54L596.94,169.88L595.76,173.57L593.73,178.04L593.44,176.61L594.63,173.68L593.92,170.82L592.9,168.64L591.12,166.7L590.11,168.53L590.43,170.17L589.35,171.46L590.53,174.22L591.74,174.07L593.48,176.1L591.86,180.21L591.17,182.56L588.53,185.32L587.98,186.65L586.36,188.51L584.6,189.64L583.47,192.03L582.14,191.93L582.04,190.37L579.45,189.07L578.79,189.57L578.49,191.39L580.11,191.02L580.25,193.43L582.37,193.47L581.83,196.74L580.5,200.39L579.41,205.43L578.02,215.18L577.36,212.28L578.01,210.31L577.66,209.24L578.82,207.32L577.93,206.17L576.24,206.59L577.09,207.93L573.81,208.36L573.46,209.69L574.94,212.85L576.99,213.66L578.11,217.23L576.38,220.68L575.73,223.11L574.91,223.24L573.48,225.07L574.63,226.65L575.87,225.56L575.28,232.84L575.98,240.43ZM623.85,165L624,167.15L623.16,168.58L621.82,168.64L620.53,167.56L621.41,165.52L622.32,164.89Z" class="land" id="NI-AN" title="Costa Caribe Norte"/>
  </g>
</svg>