<?xml version="1.0" encoding="UTF-8"?>
<svg xmlns="http://www.w3.org/2000/svg" width="485.09" height="206.18" viewBox="237.45 153.91 485.09 206.18" style="background-color:#000000">
  <!-- Created using SVG Map Generator: dojo.amcharts.com/svg-map-generator -->
  <style>
    .land { fill: #ffffff; stroke: #000000; stroke-width: 0.65; }
  </style>
  <g id="polygons">
    <path d="M302.02,184.21L306.36,187.92L304.11,189.51L301.59,189.16ZM303.29,172.29L306.59,177.09L305,179.35L300.98,177.6L299.63,173.3ZM318.9,214.91L312.82,218.14L310.98,221.47L309.59,215.85L309.85,213.1L303.22,208.95L299.1,208.11L299.05,206.03L302.68,203.64L299.3,198.63L294.36,206.76L289.53,208.73L290.91,210.19L295.8,211.4L297.5,213.02L297.83,217.79L296.52,223.15L295.22,222.92L289.35,220.72L285.79,218.54L281.96,220.26L279.12,216.92L276.73,216.28L272.24,218.5L267.03,216.83L266.3,215.59L267.36,213.07L265.41,209.66L260.49,208.06L258.99,205.97L254.03,203.58L253.27,201.1L249.21,202.07L248.93,169.7L256.23,167.93L254.13,165.52L253.21,162.01L255.6,157.91L257.34,157.76L264.35,160.49L264.82,162.08L268.58,164.6L270.25,167.56L276.05,166.88L277.54,162.69L279.87,161.68L294.13,174.13L297.06,174.41L296.83,177.16L294.76,178.49L294.17,181.14L297.04,183.16L295.13,187.84L298.16,192.69L302.68,192.39L304.32,193.98L307.82,190.29L310.92,193.72L309.05,194.94L304.82,194.9L303.66,196.42L303.68,200.98L305.64,201.99L305.39,208.1L308.41,209.78L314.78,209.96L316.94,214.59ZM325.74,212.47L324.32,215.42L321.44,217.61L319.46,215.28L320.08,214.22ZM315.51,189.21L319.06,194.44L315.6,197.43L312.78,195.8L312.73,193.08ZM309.39,178.91L313.71,180.43L317.62,184.67L315.17,185.89L309.82,183.82L311.51,181.24Z" class="land" id="PA-1" title="Bocas del Toro"/>
    <path d="M428.67,238.81L433.4,236.82L431.83,233.31L433.15,227.53L438.19,224.85L442.57,225.85L444.3,223.65L444.73,213.74L453.11,217.06L459.56,218.47L460.34,216.49L470,211.45L472.06,211.21L472.45,207.51L474.58,206.69L475.29,211.11L478.39,211.75L478.34,214.33L475.71,218.01L476.78,227.05L479.19,229.96L480.46,235.79L479.85,238.51L481.34,243.13L480.45,246.89L481.99,249.08L481.51,252.75L484.66,258.52L474.75,264.56L469.2,266.98L463.99,266.45L455.96,267.75L450.5,273.43L449.71,276.91L450.03,283.98L447.76,283.34L442.48,281.55L438.03,282.32L434.36,281.97L431.45,277.96L433.51,271.86L433.12,270.43L435.4,265.27L432.5,264.19L431.17,259.64L429.29,257.58L428.56,254.42L426.13,252.39L425.05,249.02L425.52,246.23L428.46,241.57Z" class="land" id="PA-2" title="Coclé"/>
    <path d="M564.85,162.6L564.15,168.94L559.94,170.78L557.4,176.32L555.22,176.77L550.87,180.33L550.01,173.7L546.38,171.25L542.83,173.26L540.24,172.08L540.52,169.71L534.36,165.5L531.9,168.37L527.91,168.99L527.02,173.86L525.01,177.65L525.87,180.15L522.83,185.52L523.2,190.59L518.4,191.63L514.92,199.97L514.79,200.11L510.51,199L508.83,200.03L505.02,197.91L504.88,194.97L502.25,193.59L495.79,193.6L493.82,195.74L493.67,198.98L491.2,200.98L493.43,205.8L492.45,210.24L490.24,211.32L485.34,210.87L481.99,208.65L478.39,211.75L475.29,211.11L474.58,206.69L472.45,207.51L472.06,211.21L470,211.45L460.34,216.49L459.56,218.47L453.11,217.06L444.73,213.74L444.3,223.65L442.57,225.85L438.19,224.85L433.15,227.53L431.83,233.31L433.4,236.82L428.67,238.81L430.24,237.09L427.74,231.53L430.1,229.75L426.26,224.31L424.09,224.76L419.04,222.55L417.98,218.67L420.84,218.16L426.53,212.91L429.71,209.02L432.49,208.35L437.34,204.62L448.98,199.21L451.44,199.26L456.14,196.95L460.24,197L465.42,196.01L470.04,193.68L475.04,192.9L482.5,189.54L486.48,184.57L488.92,182.82L491.26,178.84L493.92,178.43L493.83,182.94L499.2,179.02L499.86,175.4L502.36,176.85L506.21,173.21L510.51,171.83L512.05,168.81L514.87,167.2L517.71,162.93L516.65,161.2L520.54,157.71L523.1,158.63L526.19,156.56L531.02,160.16L534.98,159.12L541.87,161.33L548.49,161.71L555.26,164.06Z" class="land" id="PA-3" title="Colón"/>
    <path d="M360.91,261.49L363.75,259.81L365.58,262.22L364.39,265.75L363.85,263.56ZM296.45,268.58L297.95,271.98L293.61,273.43L290.77,271.06ZM360.91,261.49L357.76,264.37L358.78,266.95L364.3,269.89L362.03,272.4L361.12,275.47L360.13,276.29L357.57,278.59L355.96,288.58L352.51,291.12L349.53,287.54L350.08,282.7L347.35,278.3L345.32,280.69L332.32,276.29L321.49,273.55L316.71,273.27L314.37,274.9L309.82,274.88L307.5,273.64L308.5,269.87L307.46,267.94L303.7,267.69L300.4,264.86L298.13,264.95L297,267.69L291.92,268.22L289.42,265.14L285.48,269.23L282.73,267.94L271.79,264.33L266.13,264.7L257.85,267.16L255.65,268.86L253.96,273.41L254.3,281.89L255.97,286.05L252.43,288.6L252.96,283.12L251.59,279.92L251.45,275.51L248.82,269.1L240.11,265.6L240.1,263.31L245.6,260.69L249.95,255.76L255.45,254.52L257.54,249.85L258.18,245.13L257.99,239.84L255,234.62L250.68,230.05L251.17,228.04L254.58,225.78L253.73,222.78L255.44,221.08L262.76,218.96L266.3,215.59L267.03,216.83L272.24,218.5L276.73,216.28L279.12,216.92L281.96,220.26L285.79,218.54L289.35,220.72L295.22,222.92L301.17,224.27L304.42,228.28L313.73,228.77L313.77,242.01L312.56,244.64L313.91,246.71L311.24,251.71L311.62,255.08L318.21,253.73L321.03,254.17L321.49,256.62L324.06,256.68L324.15,261.83L327.84,265.31L339.87,264.35L339.57,267.14L341.87,269.23L346.31,269L349.84,267.34L353.22,269.13L356.15,266.47L357.51,262.38Z" class="land" id="PA-4" title="Chiriquí"/>
    <path d="M649.31,201.5L654.43,202.92L656.78,205.53L660.23,207.21L660.42,208.92L666.84,216.58L673.34,219.67L675.02,222.64L677.96,224.34L677.39,228.15L673.12,227.96L670.95,230.32L666.97,231.52L664.03,237.21L660.85,239.74L661.87,244.49L664.39,247.06L663.06,248.78L668.39,253.4L670.09,262.76L672.5,265.01L675.48,270.78L681.11,272.74L684.12,275.09L687.06,281.52L690.97,285.27L694.31,283.53L696.75,283.85L700.75,280.6L715.14,277.29L717.34,284.41L716.66,287.19L718.87,291.25L719.9,298.03L714.66,297.7L708.9,299.23L706.54,302.14L706.57,306.14L708.98,310.71L703.45,315.85L702.2,315.39L698.29,319.86L696.52,320.23L695.04,324.72L693.2,324.96L688.41,331.94L684.53,329.1L681.78,319.05L677.75,314.75L673.91,315.25L672.26,321.74L676.33,332.34L675.47,335.13L672.76,337.31L668.46,337.13L666.57,342.48L663,355.98L661.94,355.86L653.37,349.07L651.68,346.74L649.71,339.37L647.36,339.95L644.45,337.24L642.72,333.66L638.13,330.96L639.19,326.64L633.87,321.82L628.92,316.29L630.28,313.09L625.8,304.97L625.07,302.26L621.11,299.44L618.59,293.42L618.8,291.06L616.67,285.86L620,285.31L625.68,286.69L631.87,282.37L633.21,276.3L631.37,275.46L630.23,271.02L632.6,267.23L634.3,269.34L638.24,266.6L637.6,264.03L640.22,259.75L642.2,258.17L643.4,261.9L649,263.53L646.86,258.24L644.65,257.64L641.65,253.2L637.85,254.51L637.96,257.64L635.15,259.39L631.44,257.68L634.47,255.04L631.4,254.07L628.44,255.2L627.25,252.93L623.21,256.76L623.25,259.09L618.85,262.97L618.73,258.64L617.14,252.71L614.24,247.5L613.19,242.02L614.59,238.54L611.37,233.67L613.89,229.6L613.78,225.09L616.54,223.22L620.23,222.38L623.68,222.83L626.01,225.86L628.53,224.21L633.64,219.19L638.96,220.44L640.76,215.15L644.33,213.48L644.08,210.94L646.39,206.42L648.31,205.73ZM633.67,292.82L632.23,292.03L629.01,294.58L626.6,294.7L626.47,297.92L625.82,299.78L627.36,303.36L630.72,307.73L631.32,310.76L634.19,315.26L638.43,319.43L641.36,318.22L645.58,320.79L648.13,326.32L649.91,324.09L652.68,323.18L654.28,325.53L657.83,322.84L657.9,318.37L656.85,313.58L657.57,311.52L655.24,308.65L652.79,299.69L650.58,295.7L646.99,298.5L646.22,294.56L644.51,293.54L643.6,290.25L637.87,283.91L634.17,286.28L636.71,291.16L634.79,293.11Z" class="land" id="PA-5" title="Darién"/>
    <path d="M434.36,281.97L438.03,282.32L442.48,281.55L447.76,283.34L451.09,285.42L453.16,289.86L457.87,291.88L459.56,291.38L458.12,294.04L452.99,297.47L450.59,296.92L446.74,300.42L445.24,304.96L440.4,308.07L443.4,315.56L441.58,319.71L438.08,320.53L434.34,326.65L429.39,332.19L426.89,329.63L423.33,329.01L421.56,327.07L415.89,317.61L413.74,311.48L411.04,311.49L413.36,302.16L415.63,297.76L418.26,298.06L420.53,294.74L422.29,290.3L421.05,286.26L424.52,286.56L427.83,285.56L430.6,281.7Z" class="land" id="PA-6" title="Herrera"/>
    <path d="M459.56,291.38L462.83,296.73L463.55,299.83L466.12,302.86L471.11,305.94L473.99,309.75L478.7,313.62L479.59,315.67L485.01,321.02L487.23,327.37L490.26,331.82L489.72,335.59L485.01,336.89L481.73,338.93L478.78,338.8L476.11,340.29L473.56,338.57L469.92,339.32L466.92,338.43L459.69,344.14L461.56,347.9L457.44,349.12L454.28,354.18L447.98,353.59L439.21,355.31L438.87,351.06L434.53,347.92L434.57,345.02L430.78,341.98L431.54,340.23L429.42,336.91L429.39,332.19L434.34,326.65L438.08,320.53L441.58,319.71L443.4,315.56L440.4,308.07L445.24,304.96L446.74,300.42L450.59,296.92L452.99,297.47L458.12,294.04Z" class="land" id="PA-7" title="Los Santos"/>
    <path d="M562.98,265.45L564.64,267.96L561.57,274.49L559.75,271.54L560.79,267.27ZM578.56,252.74L582.77,254.46L583.36,260.28L584.63,263.55L583.2,267.27L579.29,266.31L576.74,268.81L574.46,267.6L575.17,262.96L573.65,253.97ZM514.92,199.97L518.4,191.63L523.2,190.59L522.83,185.52L525.87,180.15L525.01,177.65L527.02,173.86L527.91,168.99L531.9,168.37L534.36,165.5L540.52,169.71L540.24,172.08L542.83,173.26L546.38,171.25L550.01,173.7L550.87,180.33L551.83,183.4L556.97,180.83L562.75,181.16L563.31,183.6L569.25,184.45L573.94,183.04L577.53,183.24L580.35,178.42L582.64,179.53L586.48,177.1L592.46,178.88L594.77,177.06L602.41,182.39L608.54,181.79L612.07,180.09L612.3,182.98L614.28,184.04L616.59,188.52L619.42,189.23L619.97,186.84L625.44,188.61L628.47,187.08L629.38,191.38L633.31,193.58L635.53,192.65L642.98,194L646.5,195.56L647.62,200.6L649.31,201.5L648.31,205.73L646.39,206.42L644.08,210.94L644.33,213.48L640.76,215.15L638.96,220.44L633.64,219.19L628.53,224.21L626.01,225.86L623.68,222.83L620.23,222.38L616.54,223.22L613.78,225.09L613.89,229.6L611.37,233.67L614.59,238.54L613.19,242.02L614.24,247.5L617.14,252.71L618.73,258.64L618.85,262.97L614.88,255.55L612.63,254.72L612.72,248.65L609.58,244.3L610.08,238.95L602.66,236.09L600.82,233.24L598.91,233.26L595.64,229.64L591.66,227.65L591.05,224.49L587.84,225.55L582.51,222.74L580.88,217.74L578.74,215.13L574.39,213.88L568.41,210.66L556.9,207.66L547.67,206.93L542.94,207.02L532.59,208.24L526.68,213.21L524.92,213.28L523.52,209.65L516.25,203.18L514.79,200.1Z" class="land" id="PA-8" title="Panamá"/>
    <path d="M342.65,342.56L336.89,337.46L336.14,333.96L339.96,325.42L341.92,325.06L345.05,321.2L347.88,322.14L348.38,326.92L351.83,332.81L349.29,333.5L348.2,338.11L351.36,342.33L355.86,341.67L358.2,345.08L354.93,348.18L350.92,346.25L345.4,345.31ZM399.8,326.21L404.1,327.01L400.94,330.72L397.62,329.07L392.02,333.77L389.61,334.18L388.68,331.53L393.59,330.34L395.35,327.92ZM417.98,218.67L419.04,222.55L424.09,224.76L426.26,224.31L430.1,229.75L427.74,231.53L430.24,237.09L428.67,238.81L428.46,241.57L425.52,246.23L425.05,249.02L426.13,252.39L428.56,254.42L429.29,257.58L431.17,259.64L432.5,264.19L435.4,265.27L433.12,270.43L433.51,271.86L431.45,277.96L434.36,281.97L430.6,281.7L427.83,285.56L424.52,286.56L421.05,286.26L422.29,290.3L420.53,294.74L418.26,298.06L415.63,297.76L413.36,302.16L411.04,311.49L413.74,311.48L415.89,317.61L421.56,327.07L423.33,329.01L426.89,329.63L429.39,332.19L429.42,336.91L431.54,340.23L430.78,341.98L434.57,345.02L434.53,347.92L438.87,351.06L439.21,355.31L437.43,355.22L431.17,357.26L425.8,356.41L423.78,357.26L416.82,357.44L414.09,351.34L414.5,347.72L416.34,345.45L413.2,339.37L414.54,337.83L410.99,331.69L411.29,327.83L409.77,324.67L403.39,318.51L405.11,316.89L403.1,312.32L400.37,310.6L402.55,306.17L401.4,302.17L398.69,304.72L393.21,303.25L392.62,306.14L393.89,310.09L390.52,319.07L391.5,320.44L388.91,324.14L384.88,322.08L383.29,319.82L379.88,319.84L372.6,318.17L369.62,315.79L366.07,316.1L363.89,314.47L366.57,311.7L363.16,310.96L359.38,308.56L360.2,302.37L357.57,302.37L356.61,296.78L352.51,291.12L355.96,288.58L357.57,278.59L360.13,276.29L361.11,278.88L364.4,279.64L366.83,278.55L361.12,275.47L362.03,272.4L364.3,269.89L365.76,268.66L364.39,265.75L365.58,262.22L363.75,259.81L364.89,257.24L368.88,257.8L372.86,255.6L375.06,250.61L382.96,247.81L384.33,249.79L382.94,252.3L391.78,254.05L393.57,252.64L393.68,248.61L391.14,247.73L388.41,242.22L388.44,237.85L389.85,233.37L389.02,229.29L390.15,226.7L398.33,224.75L402.05,224.54L408.19,222.58L412.45,219.96ZM371.85,269.1L369.03,265.21L367.34,268.95L369.88,271.66ZM375.59,259.53L373.72,262.86L376.57,264.54L380.25,262.14L378.71,259.64Z" class="land" id="PA-9" title="Veraguas"/>
    <path d="M514.79,200.1L516.25,203.18L523.52,209.65L525.63,215.31L525.06,217.2L516.53,218.57L510.8,221.43L508.2,227.3L510.57,231.58L508.5,235.67L503.06,238.53L507.03,240.93L507.23,244.01L500.7,245.82L499.77,247.71L494.19,250.93L492.97,253.44L484.66,258.52L481.51,252.75L481.99,249.08L480.45,246.89L481.34,243.13L479.85,238.51L480.46,235.79L479.19,229.96L476.78,227.05L475.71,218.01L478.34,214.33L478.39,211.75L481.99,208.65L485.34,210.87L490.24,211.32L492.45,210.24L493.43,205.8L491.2,200.98L493.67,198.98L493.82,195.74L495.79,193.6L502.25,193.59L504.88,194.97L505.02,197.91L508.83,200.03L510.51,199L514.79,200.11Z" class="land" id="PA-10" title="Panamá Oeste"/>
    <path d="M625.82,299.78L626.47,297.92L626.6,294.7L629.01,294.58L632.23,292.03L633.67,292.82L634.79,293.11L636.71,291.16L634.17,286.28L637.87,283.91L643.6,290.25L644.51,293.54L646.22,294.56L646.99,298.5L650.58,295.7L652.79,299.69L655.24,308.65L657.57,311.52L656.85,313.58L657.9,318.37L657.83,322.84L654.28,325.53L652.68,323.18L649.91,324.09L648.13,326.32L645.58,320.79L641.36,318.22L638.43,319.43L634.19,315.26L631.32,310.76L630.72,307.73L627.36,303.36ZM715.14,277.29L700.75,280.6L696.75,283.85L694.31,283.53L690.97,285.27L687.06,281.52L684.12,275.09L681.11,272.74L675.48,270.78L672.5,265.01L670.09,262.76L668.39,253.4L663.06,248.78L664.39,247.06L661.87,244.49L660.85,239.74L664.03,237.21L666.97,231.52L670.95,230.32L673.12,227.96L677.39,228.15L683.79,231.04L685.12,234.26L688.37,235.47L687.62,238.74L689.81,242.07L693.88,242.38L695.76,246.82L697.4,248.38L698.94,252.21L702.18,252.31L705.49,256.65L707.92,261.36L707.16,264.1L708.92,269.11L711.12,272.97L714.34,274.62Z" class="land" id="PA-EM" title="Emberá"/>
    <path d="M697.4,248.38L695.76,246.82L693.88,242.38L689.81,242.07L687.62,238.74L688.37,235.47L685.12,234.26L683.79,231.04L677.39,228.15L677.96,224.34L675.02,222.64L673.34,219.67L666.84,216.58L660.42,208.92L660.23,207.21L656.78,205.53L654.43,202.92L649.31,201.5L647.62,200.6L646.5,195.56L642.98,194L635.53,192.65L633.31,193.58L629.38,191.38L628.47,187.08L625.44,188.61L619.97,186.84L619.42,189.23L616.59,188.52L614.28,184.04L612.3,182.98L612.07,180.09L608.54,181.79L602.41,182.39L594.77,177.06L592.46,178.88L586.48,177.1L582.64,179.53L580.35,178.42L577.53,183.24L573.94,183.04L569.25,184.45L563.31,183.6L562.75,181.16L556.97,180.83L551.83,183.4L550.87,180.33L555.22,176.77L557.4,176.32L559.94,170.78L564.15,168.94L564.85,162.6L573.76,161.86L571.55,164.33L567.39,164.45L565.32,169.09L567.12,172.54L574.67,170.81L578.56,173.51L582.97,173.84L593.77,170.91L594.71,172.2L604.47,173.9L606.12,172.11L611.02,174.23L617.89,175.33L618.63,176.88L628.1,181.1L631.91,182.29L635.8,184.76L638.88,184.65L644.45,187.73L649.09,188.31L653.02,192.71L657.53,195.5L658.71,198.31L663.63,202.13L665.88,202.2L668.9,204.39L668.99,206.32L673.49,209.25L672.79,212.41L682.25,223.18L684.3,222.39L690.89,227.99L690.42,232.73L695.83,235.88L700.06,236.97L702.86,235.7L702.76,240.83L698.99,244.67Z" class="land" id="PA-KY" title="Guna Yala"/>
    <path d="M390.15,226.7L389.02,229.29L389.85,233.37L388.44,237.85L388.41,242.22L391.14,247.73L393.68,248.61L393.57,252.64L391.78,254.05L382.94,252.3L384.33,249.79L382.96,247.81L375.06,250.61L372.86,255.6L368.88,257.8L364.89,257.24L363.75,259.81L360.91,261.49L357.51,262.38L356.15,266.47L353.22,269.13L349.84,267.34L346.31,269L341.87,269.23L339.57,267.14L339.87,264.35L327.84,265.31L324.15,261.83L324.06,256.68L321.49,256.62L321.03,254.17L318.21,253.73L311.62,255.08L311.24,251.71L313.91,246.71L312.56,244.64L313.77,242.01L313.73,228.77L304.42,228.28L301.17,224.27L295.22,222.92L296.52,223.15L297.83,217.79L297.5,213.02L295.8,211.4L290.91,210.19L289.53,208.73L294.36,206.76L299.3,198.63L302.68,203.64L299.05,206.03L299.1,208.11L303.22,208.95L309.85,213.1L309.59,215.85L310.98,221.47L312.82,218.14L318.9,214.91L319.46,215.28L321.44,217.61L324.32,215.42L325.74,212.47L327.32,213.81L330.93,213.48L331.98,209.85L334.64,212.22L337.44,211.64L341.92,214.22L344.64,210.61L343.58,208.24L339.87,207.04L336.84,203.98L335.89,201.49L330.07,197.55L332.16,196.45L332.45,193.57L335.48,193.63L337.75,197.02L340.19,203.05L345.37,203.68L348.9,206.42L350.86,210.13L359.66,220.4L363.91,223.98L366.96,225.53L368.59,224.72L374.01,225.19L378.9,226.91L383.42,227L388.48,225.81ZM375.59,259.53L378.71,259.64L380.25,262.14L376.57,264.54L373.72,262.86ZM371.85,269.1L369.88,271.66L367.34,268.95L369.03,265.21ZM361.12,275.47L366.83,278.55L364.4,279.64L361.11,278.88L360.13,276.29ZM364.3,269.89L358.78,266.95L357.76,264.37L360.91,261.49L363.85,263.56L364.39,265.75L365.76,268.66Z" class="land" id="PA-NB" title="Ngöbe-Buglé"/>
  </g>
</svg>