<?xml version="1.0" encoding="UTF-8"?>
<svg xmlns="http://www.w3.org/2000/svg" width="521.86" height="399.63" viewBox="219.07 57.19 521.86 399.63" style="background-color:#000000">
  <!-- Created using SVG Map Generator: dojo.amcharts.com/svg-map-generator -->
  <style>
    .land { fill: #ffffff; stroke: #000000; stroke-width: 0.65; }
  </style>
  <g id="polygons">
    <path d="M478.81,248.11L486.46,252.96L490.23,252.05L492.85,250.43L494.18,250.98L498.29,255.14L496.32,258.75L496.91,261.14L499.97,262.41L501.8,264L506.23,260.09L510.54,262.65L510.13,265.54L508.26,269.02L507.95,272.25L510.32,273.24L511.6,273.05L514.64,271.26L515.83,269.89L519.03,273.89L519.44,275.98L519.62,280.39L520.4,282.77L519.31,285.45L516.32,288.34L515.55,291.04L514.79,292.38L512.65,294.83L509.29,297.35L508.58,298.44L506.95,303.41L504.76,306.24L501.49,309.36L501.28,310.63L500.07,312.07L497.18,313.86L492.94,314.16L491.46,313.21L488.39,310.17L486.62,312.28L485.18,314.87L485.82,316.37L489.15,318.91L489.77,320.36L493.74,323.57L494.91,327.96L494.47,329.94L494.66,333.26L494.14,334.37L494.68,336.63L494.5,338.53L493.53,340.77L491.88,341.84L488.85,341.69L486.14,339.65L482.73,338.91L481.82,338.34L479.59,339.07L471.15,341.34L467.09,336.67L475.43,323.77L477.12,323.11L479.56,320.39L477.96,319.38L472.49,313.88L470.37,310.94L471,307.89L469.73,307.38L469.53,306.29L470.91,305.52L471.5,304.39L469.97,300.57L466.64,300.81L463.72,298.79L457.57,298.75L454.56,294.91L454.67,294.7L456.69,294.81L458.48,294.32L459.77,292.73L459.71,290.7L458.74,289.41L457.2,288.98L452.79,289.47L448.42,290.67L447,290.39L446.27,288.75L447.43,285.71L449.42,284.72L451.63,284.17L453.53,283.19L454.86,281.46L455.07,279.37L454.1,278.33L454.1,276.79L455.86,274.95L457.38,274.87L460.81,273.86L462.87,272.12L464.64,271.74L467.89,270.3L471.31,268.34L471.82,266.18L470.71,264.64L469.13,263.51L468.6,262.27L466.77,261.44L462.22,257.4L463.61,256.8L467.12,254.32Z" class="land" id="AF-GHA" title="Ghazni"/>
    <path d="M598.89,235.1L597.94,236.11L598.44,238.86L601.32,242.31L603.87,243.75L604.03,244.82L602.98,247.85L603.42,251.03L603.15,252.66L601.74,254.68L601.91,256.08L601.17,257.43L598.66,258.06L597.83,259.04L595.69,258.84L594.54,260.77L591.99,261.25L587.13,261.2L582.31,261.9L578.25,261.22L575.35,261.09L573.46,260.28L571.42,260.08L563.66,257.34L560.16,257.69L558.87,254.89L557.64,253.23L556.1,250.21L554.04,248.38L551.03,249.4L546.68,249.15L545.38,250.04L544.45,249.54L545.79,247.67L548.12,245.19L551.43,242.16L556.8,241.39L557.89,241.74L563.78,240.91L565.88,241.36L568.62,240.24L574.45,238.99L577.72,236.93L578.63,235.01L578.72,233.64L578.14,230.76L581.33,229L581.59,227.24L583.33,225.39L585.67,224.4L586.63,224.96L587.52,226.62L586.81,230.34L587.01,231.84L588.13,233.32L590.59,233.47L589.86,235.11L590.21,236.16L593.13,235.23L594.47,235.42Z" class="land" id="AF-NAN" title="Nangarhar"/>
    <path d="M441.55,240.13L441.34,255.77L443.65,255.46L443.56,260.43L446.28,259.28L447.97,259.07L454.34,260.38L454.83,260.7L458.22,259.59L459.76,258.45L462.22,257.4L466.77,261.44L468.6,262.27L469.13,263.51L470.71,264.64L471.82,266.18L471.31,268.34L467.89,270.3L464.64,271.74L462.87,272.12L460.81,273.86L457.38,274.87L455.86,274.95L454.1,276.79L454.1,278.33L455.07,279.37L454.86,281.46L453.53,283.19L451.63,284.17L449.42,284.72L447.43,285.71L446.27,288.75L444.68,290.28L442.37,290.78L439.82,292.17L438.81,291.92L436.87,288.64L433.16,289.62L432.05,289.05L430.43,289.57L428.08,291.33L428.08,295.93L427.26,296.79L423.21,297.06L423.21,294.1L419,292.75L417.31,293.05L413.39,296.76L412.29,296.29L411.37,297.55L409.68,297.4L407.33,297.77L404.15,296.03L400.83,296.15L401.57,298.53L400.04,298.4L399.08,299.45L396.4,298.37L396.89,292.89L395.36,291.06L394.42,289.18L391.76,286.75L393.3,285.61L397.2,284.09L397.54,281.91L398.57,281.61L402.37,277.86L404.53,276.51L404.28,275.25L402.15,273.16L401.62,269.48L399.68,267.15L398.72,266.55L398.57,264.23L400.76,263.35L402.59,260.4L402.56,258.08L401.6,257.65L400.69,255.99L401.68,251.39L401.34,249.99L403.01,244.08L406.34,243.95L410.41,244.55L418.29,245.2L420.2,243.68L425.4,243.67L427.15,241.72L429.79,241.9L431.1,242.77L436.51,242.02L437.32,242.34L439.53,240.79Z" class="land" id="AF-DAY" title="Daykundi"/>
    <path d="M455.56,179.64L455.86,179.41L459.88,174.83L460.22,172.36L458.18,168.66L462.29,165.35L465.38,164.69L467.79,162.09L467.88,160.08L469.19,158.63L469.38,157.4L474.7,157.28L479.58,159.66L482.14,158.71L483.68,156.8L483.68,147.23L488.81,145.63L494.56,146.44L498.48,145.06L499.12,145.69L502.81,146.9L500.86,149.91L501.63,152.89L501.7,154.8L505.03,159.77L506.95,160.93L510.22,163.61L510.78,164.72L508.48,168.25L505.14,171.21L504.06,171.74L503.29,173.47L502.74,178.31L497.56,185.24L497.14,187.36L498.66,188.64L498.47,189.97L497.2,191.83L496.81,193.33L494.87,195.35L491.71,196.04L490.27,195.96L486.7,196.5L485.45,195.51L482.01,196.09L477.27,194.98L474.14,195.45L470.26,197.04L466.76,196.44L463.41,197.74L460.61,198.46L456.36,200.15L452.75,200.13L449.81,199.14L453.24,196.91L454.94,195.2L455.59,192.93L456.79,192.7L459.77,190.3L461.61,187.46L461.56,184.87L459.51,179.82Z" class="land" id="AF-SAM" title="Samangan"/>
    <path d="M498.3,215.22L497.71,212.3L494.25,205.49L495.35,201.81L495.45,198.74L494.87,195.35L496.81,193.33L497.2,191.83L498.47,189.97L498.66,188.64L497.14,187.36L497.56,185.24L502.74,178.31L503.29,173.47L504.06,171.74L505.14,171.21L508.48,168.25L510.78,164.72L510.22,163.61L506.95,160.93L505.03,159.77L501.7,154.8L501.63,152.89L500.86,149.91L502.81,146.9L511.04,147.39L514.09,148.25L517.66,147.69L520.39,151.57L522.67,153.13L524.55,152.21L527.59,152.91L530.54,155.69L534.01,156.66L535.55,158.29L537.05,159.13L538.42,161.35L543.58,160.51L546.4,158.35L549.71,157.24L552.1,155.92L552.68,157.56L552.93,160.1L555.57,162L555.94,167.1L558.09,169.09L559.46,171.23L560.81,174.68L561.99,176.52L562.15,179.94L561.71,181.1L560.19,182L558.6,184.37L557,184.55L555.74,186.88L555.06,190.76L554.53,191.83L552.74,192.36L547.6,195.57L544.04,195.5L542.1,197.33L537.09,198.39L536.28,197.37L534.28,197.17L532.79,198.64L529.82,200.22L528.87,201.88L526.86,202.72L526.13,203.64L523.88,204.83L522.38,203.79L520.11,204.93L518.28,207.67L515.11,210.01L513.15,210.68L513.36,212.3L512.37,212.84L509.8,213.09L507.59,212.89L505.21,213.24L502.05,212.43L501.27,213.46Z" class="land" id="AF-BGL" title="Baghlan"/>
    <path d="M434.38,219.72L438.49,222.46L440.56,224.71L441.42,227.09L444.2,229.65L445.01,229.49L447.31,231.18L447.3,233.12L445.64,234.8L445.32,236.09L446.27,238.06L443.28,240.39L441.55,240.13L439.53,240.79L437.32,242.34L436.51,242.02L431.1,242.77L429.79,241.9L427.15,241.72L425.4,243.67L420.2,243.68L418.29,245.2L410.41,244.55L406.34,243.95L403.01,244.08L401.34,249.99L401.68,251.39L400.69,255.99L401.6,257.65L402.56,258.08L402.59,260.4L400.76,263.35L398.57,264.23L398.72,266.55L399.68,267.15L401.62,269.48L402.15,273.16L404.28,275.25L404.53,276.51L402.37,277.86L398.57,281.61L397.54,281.91L397.2,284.09L393.3,285.61L391.76,286.75L389.59,286.77L386.86,288.92L383.73,290.38L382.21,291.64L379.94,291.4L377.56,293.57L376.31,293.22L376.07,291.75L374.02,292.56L372.49,290.53L370.03,290.24L367.76,288.47L366.75,289.04L365.04,292.57L361.58,294.82L362.42,296.21L359.69,297.05L357.32,295.41L356.2,295.52L353.36,291L351.93,290.54L351.52,287.35L350.42,284.75L348.37,281.39L346.47,280.13L343.95,280.99L341.49,283.74L340.46,284.35L336.52,284.95L333.27,286.99L329.95,287.93L322.67,288.23L319.95,289.09L317.07,288.62L316.7,285.38L315.18,282.1L314.7,279.44L316.65,277.82L319.2,276.82L320.69,275.74L324.72,274.62L328.19,274.29L330,273.37L330.53,272.3L330.02,270.05L330.29,269.14L332.77,268.12L332.94,267.41L331.37,265.44L330.86,263.61L329.45,261.56L328.04,260.33L327.4,258.48L325.96,256.03L326.07,255.12L329.15,250.09L329.74,247.59L335.61,247.32L338.66,247.59L340.27,248.16L342.56,249.7L347.12,249.79L348.28,248.59L349.89,249.43L352.2,249.45L355.19,247.45L355.5,246.26L354.74,244.71L354.98,243.7L354.92,239.02L356.14,238.4L357.85,238.64L360.87,237.57L362.5,236.63L363.44,237.73L364.86,238.1L365.21,236.88L364.47,234.92L365.07,230.03L365.79,228.76L366.98,228.29L371.39,228.47L373.86,228.89L376.24,227.69L382.65,225.92L384.41,224.68L384.94,223.31L385.59,218.29L383.39,213.91L381.18,212.32L378.78,209.51L376.98,209.31L374.91,207.79L374.19,206.28L376.93,205.33L378.65,205.11L380.99,206.25L383.69,205.21L384.42,206L387.69,204.58L388.93,204.46L391.2,205.79L392.66,205.2L394.41,207.02L395.85,207.37L397.62,206.69L400.11,204.49L400.84,205.27L402.96,205.25L406.97,203.8L406.86,204.71L408.53,206.69L411.08,207.45L411.68,209.94L412.81,211.04L416.51,212.32L421.15,212.89L421.58,213.91L421.67,216.99L421.24,218.06L422.68,219.55L424.2,224.64L425.97,223.12L426.41,221.97L428.36,220.74L428.86,219.15L431.44,219.99L432.89,219.4Z" class="land" id="AF-GHO" title="Ghor"/>
    <path d="M455.11,179.98L455.56,179.64L459.51,179.82L461.56,184.87L461.61,187.46L459.77,190.3L456.79,192.7L455.59,192.93L454.94,195.2L453.24,196.91L449.81,199.14L448.45,199.67L446.66,201.89L444.34,206.2L439.17,208.09L439.17,214L434.38,219.72L432.89,219.4L431.44,219.99L428.86,219.15L428.36,220.74L426.41,221.97L425.97,223.12L424.2,224.64L422.68,219.55L421.24,218.06L421.67,216.99L421.58,213.91L421.15,212.89L416.51,212.32L412.81,211.04L411.68,209.94L411.08,207.45L408.53,206.69L406.86,204.71L406.97,203.8L402.96,205.25L400.84,205.27L400.11,204.49L398.63,201.51L398.66,195.94L399.7,194.86L401.35,190.95L400.83,189.16L401.48,186.72L402.62,185.81L406.28,185.86L408.3,182.74L408.32,180.93L410.53,181.08L412.44,180.63L412.81,178.53L412.34,176.06L410.48,173.24L411.11,171.31L409.43,170.74L408.51,171.49L407.66,171.96L403.05,172.65L402.81,168.67L401.52,167.2L402.1,159.32L405.71,158.3L419.17,155.27L420.2,150.33L435.07,147.94L437.06,146.08L438.77,145.3L442.65,146.08L444.25,147.16L443.67,148.84L440.36,153.34L438.87,157.52L436.4,161.53L439.15,163.63L441.19,163.92L441.53,168.26L441.1,170.6L441.76,171.84L442.42,177.6L440.92,181.23L438.68,183.59L438.52,186.13L443.65,185.16L444.62,186.25L448.56,185.92L452.34,184L452.57,182.36L453.77,180.63Z" class="land" id="AF-SAR" title="Sar-e Pol"/>
    <path d="M537.09,198.39L536.59,203.57L541.49,203.65L538.68,207.65L537.81,208.54L537.74,212.21L544.37,215.38L546.16,217.36L546.58,219.09L547.96,219.57L548.05,221.83L549.67,224.35L550.7,228.2L550.7,231.39L548.08,230.73L545.93,233.21L543.73,233.53L542.72,229.76L541.82,227.65L540.45,226.97L538.66,224.15L538.37,222.99L535.8,221.22L529.6,220.9L527,220.23L525.52,222.56L524.48,225.67L523,228.59L523.16,230.46L522.69,232.18L521.66,232.21L518.51,231.05L516.43,230.87L514.31,229.8L511.66,229.15L506.04,232.07L504.88,231.5L504.31,228.8L502.45,226.93L501.85,224.39L500.57,223.29L500.8,220.65L500.19,217.26L498.3,215.22L501.27,213.46L502.05,212.43L505.21,213.24L507.59,212.89L509.8,213.09L512.37,212.84L513.36,212.3L513.15,210.68L515.11,210.01L518.28,207.67L520.11,204.93L522.38,203.79L523.88,204.83L526.13,203.64L526.86,202.72L528.87,201.88L529.82,200.22L532.79,198.64L534.28,197.17L536.28,197.37Z" class="land" id="AF-PAR" title="Parwan"/>
    <path d="M494.87,195.35L495.45,198.74L495.35,201.81L494.25,205.49L497.71,212.3L498.3,215.22L500.19,217.26L500.8,220.65L500.57,223.29L501.85,224.39L497.71,226.55L494.74,229.43L493.09,229.39L491.75,231.05L490.77,233.32L488.56,233.07L481.95,231.19L479.73,231.23L478.75,234.96L477.8,236.41L475.41,237.87L471.56,239.42L468.14,240.25L467.43,241.35L470.48,241.47L471.15,242.63L470.34,243.69L475.26,244.72L478.81,248.11L467.12,254.32L463.61,256.8L459.76,258.45L458.22,259.59L454.83,260.7L454.34,260.38L447.97,259.07L446.28,259.28L443.56,260.43L443.65,255.46L441.34,255.77L441.55,240.13L443.28,240.39L446.27,238.06L445.32,236.09L445.64,234.8L447.3,233.12L447.31,231.18L445.01,229.49L444.2,229.65L441.42,227.09L440.56,224.71L438.49,222.46L434.38,219.72L439.17,214L439.17,208.09L444.34,206.2L446.66,201.89L448.45,199.67L449.81,199.14L452.75,200.13L456.36,200.15L460.61,198.46L463.41,197.74L466.76,196.44L470.26,197.04L474.14,195.45L477.27,194.98L482.01,196.09L485.45,195.51L486.7,196.5L490.27,195.96L491.71,196.04Z" class="land" id="AF-BAM" title="Bamyan"/>
    <path d="M478.81,248.11L475.26,244.72L470.34,243.69L471.15,242.63L470.48,241.47L467.43,241.35L468.14,240.25L471.56,239.42L475.41,237.87L477.8,236.41L478.75,234.96L479.73,231.23L481.95,231.19L488.56,233.07L490.77,233.32L491.75,231.05L493.09,229.39L494.74,229.43L497.71,226.55L501.85,224.39L502.45,226.93L504.31,228.8L504.88,231.5L506.04,232.07L511.66,229.15L514.31,229.8L516.43,230.87L518.51,231.05L521.66,232.21L522.69,232.18L522.24,233.69L521.94,237.82L522.85,239.87L525.69,241.29L526.52,244.08L525.47,245.3L524.35,245.59L521.98,247.22L520.56,249.4L519.48,252.81L521.2,256.38L523.01,257.93L523.6,259.55L521.36,260.31L519.48,261.54L518.6,263.02L519.13,264.52L518.47,266.96L515.83,269.89L514.64,271.26L511.6,273.05L510.32,273.24L507.95,272.25L508.26,269.02L510.13,265.54L510.54,262.65L506.23,260.09L501.8,264L499.97,262.41L496.91,261.14L496.32,258.75L498.29,255.14L494.18,250.98L492.85,250.43L490.23,252.05L486.46,252.96Z" class="land" id="AF-WAR" title="Wardak"/>
    <path d="M550.7,231.39L550.7,228.2L549.67,224.35L548.05,221.83L547.96,219.57L546.58,219.09L546.16,217.36L544.37,215.38L537.74,212.21L537.81,208.54L538.68,207.65L541.55,203.57L548.3,204.3L553.52,204.51L555.74,205.66L556,209.01L557.04,210.46L556.26,212.09L556.81,213.8L558.06,214.79L558.87,217.09L559.97,218.87L560.54,221.05L559.86,222.06L558.69,223.59L555.64,225.36L553.46,230.94Z" class="land" id="AF-KAP" title="Kapisa"/>
    <path d="M544.42,249.57L544.45,249.54L545.38,250.04L546.68,249.15L551.03,249.4L554.04,248.38L556.1,250.21L557.64,253.23L558.87,254.89L560.16,257.69L558.98,258.5L558.47,260.97L551.6,259.69L545.63,259.05L544.3,261L542.06,262.84L538.34,266.66L534.75,268.34L530.33,271.81L528.68,275.4L527.06,276.35L524.77,276.02L519.44,275.98L519.03,273.89L515.83,269.89L518.47,266.96L519.13,264.52L518.6,263.02L519.48,261.54L521.36,260.31L523.6,259.55L523.01,257.93L521.2,256.38L519.48,252.81L520.56,249.4L521.98,247.22L524.35,245.59L525.47,245.3L526.52,244.08L531.82,245.88L534.13,245.8L537.74,243.43L539.45,245.95L541.71,248.45L542.29,249.77Z" class="land" id="AF-LOG" title="Logar"/>
    <path d="M556.8,241.39L556.82,238.81L557.77,236.2L557.21,233.82L558.19,232.45L558.28,229.58L558.92,228.43L560.96,226.42L561,225.27L559.86,222.06L560.54,221.05L559.97,218.87L558.87,217.09L558.06,214.79L556.81,213.8L556.26,212.09L557.04,210.46L560.67,208.3L562.56,205.28L564.06,208.46L564.84,211.2L568.95,211.65L569.92,212.57L570.41,214.43L572.14,216.56L572.88,218.18L577.63,219.85L581.81,218.27L584.19,215.9L585.84,221.3L585.67,224.4L583.33,225.39L581.59,227.24L581.33,229L578.14,230.76L578.72,233.64L578.63,235.01L577.72,236.93L574.45,238.99L568.62,240.24L565.88,241.36L563.78,240.91L557.89,241.74Z" class="land" id="AF-LAG" title="Laghman"/>
    <path d="M545.79,247.67L544.42,249.57L542.29,249.77L541.71,248.45L539.45,245.95L537.74,243.43L534.13,245.8L531.82,245.88L526.52,244.08L525.69,241.29L522.85,239.87L521.94,237.82L522.24,233.69L522.69,232.18L523.16,230.46L523,228.59L524.48,225.67L525.52,222.56L527,220.23L529.6,220.9L535.8,221.22L538.37,222.99L538.66,224.15L540.45,226.97L541.82,227.65L542.72,229.76L543.73,233.53L545.93,233.21L548.08,230.73L550.7,231.39L553.46,230.94L555.64,225.36L558.69,223.59L559.86,222.06L561,225.27L560.96,226.42L558.92,228.43L558.28,229.58L558.19,232.45L557.21,233.82L557.77,236.2L556.82,238.81L556.8,241.39L551.43,242.16L548.12,245.19Z" class="land" id="AF-KAB" title="Kabul"/>
    <path d="M541.49,203.65L536.59,203.57L537.09,198.39L542.1,197.33L544.04,195.5L547.6,195.57L552.74,192.36L554.53,191.83L555.06,190.76L555.74,186.88L557,184.55L558.6,184.37L560.19,182L561.71,181.1L562.15,179.94L563.05,180.74L565.15,179.8L567.6,179.52L569.72,177.68L571.14,177.14L573.38,178.15L572.68,180.14L572.12,185.53L571.86,186.11L571.3,189.28L569.72,190.94L569.95,192.59L568.41,194.61L566.31,194.7L564.7,197.36L561.41,199.16L560.68,200.56L562.65,202.95L562.56,205.28L560.67,208.3L557.04,210.46L556,209.01L555.74,205.66L553.52,204.51L548.3,204.3L541.55,203.57Z" class="land" id="AF-PAN" title="Panjshir"/>
    <path d="M446.27,288.75L447,290.39L448.42,290.67L452.79,289.47L457.2,288.98L458.74,289.41L459.71,290.7L459.77,292.73L458.48,294.32L456.69,294.81L454.67,294.7L454.41,295.18L452.69,296.77L452.51,298.66L451.4,301.3L451.3,305.58L449.61,307.78L446.12,310.9L445.41,312.63L443.91,314.38L443.92,315.53L441.65,316.67L441.38,315.83L442.12,312.5L439.98,312.61L438.32,315.18L436.55,315.44L434.85,316.29L431.58,320.39L431,323.05L431.56,324.05L429.32,325.1L426.07,325.55L425.74,326.89L424.57,327.09L421.11,326.73L419.8,325.16L414.35,324.65L412.61,324.2L410.39,326.11L409.54,326.24L409.34,322.18L408.32,320.99L405.67,320.49L404.71,320.91L403.43,322.52L402.06,325.77L400.51,326.6L400.56,329.45L399.77,330.07L398.78,333.31L395.86,332.07L393.94,332.16L392.35,331.19L393.76,325.31L393.34,323.24L394.38,321.55L393.58,317.43L392.42,316.46L390.28,315.8L391.37,312.1L391.01,311.09L391.35,307.79L390.55,306.59L392.69,302.72L394.13,301.17L394.46,299.38L396.4,298.37L399.08,299.45L400.04,298.4L401.57,298.53L400.83,296.15L404.15,296.03L407.33,297.77L409.68,297.4L411.37,297.55L412.29,296.29L413.39,296.76L417.31,293.05L419,292.75L423.21,294.1L423.21,297.06L427.26,296.79L428.08,295.93L428.08,291.33L430.43,289.57L432.05,289.05L433.16,289.62L436.87,288.64L438.81,291.92L439.82,292.17L442.37,290.78L444.68,290.28Z" class="land" id="AF-URU" title="Urozgan"/>
    <path d="M365.91,446.59L365.12,446.58L355.42,449.48L354.16,450.13L352.03,453.76L351.05,454.16L346.95,452.39L332.46,449.59L318.16,450.94L297.74,452.86L302,432.65L301.86,428.89L303.35,425.75L303.89,419.98L306.61,418.76L309.15,415.95L310.67,413.58L312.44,409.79L315.34,407.21L315.56,406.35L314.29,404.15L315.1,402.17L314.09,400.4L315.84,398.11L317.54,396.84L317.16,389.76L320.14,387.68L322.28,383.58L324.35,381.83L324.63,377.08L323.39,373.79L324.7,371.33L324.76,366.9L326.67,353.2L327.46,350.86L329.91,348.39L331.19,345.7L331.3,343.1L332.36,341.91L331.37,339.15L331.07,336.45L335.8,333.64L337.78,331.56L339.43,331.03L341.22,331.3L342.45,329.85L345,327.79L346.05,328.04L348.71,325.83L347.88,323.22L347.85,321.38L348.47,320.64L349.9,321.22L354.33,320.62L357.57,318.96L358.5,318.16L358.77,316.7L357.09,315.47L357.54,314.33L359.62,312.62L361.81,309.13L368.34,306.44L367.43,304.71L368.55,302.53L368.39,301.45L370.43,299.1L373.68,296.62L373.25,294.58L374.4,293.55L374.02,292.56L376.07,291.75L376.31,293.22L377.56,293.57L379.94,291.4L382.21,291.64L383.73,290.38L386.86,288.92L389.59,286.77L391.76,286.75L394.42,289.18L395.36,291.06L396.89,292.89L396.4,298.37L394.46,299.38L394.13,301.17L392.69,302.72L390.55,306.59L391.35,307.79L391.01,311.09L391.37,312.1L390.28,315.8L392.42,316.46L393.58,317.43L394.38,321.55L393.34,323.24L393.76,325.31L392.35,331.19L391.67,333.74L389.87,335.14L387.14,345.47L385.86,347.38L382.1,350.2L378.59,353.22L377.17,357.49L376.61,361.2L375.98,362.75L374.4,369.23L373.14,385.44L364.96,435.65Z" class="land" id="AF-HEL" title="Helmand"/>
    <path d="M429.32,325.1L429.98,326.5L433.08,328.4L435.41,330.63L433.64,333.97L431.91,335.55L431.4,336.75L432.08,341L431.02,343.43L431.91,344.56L432.18,346.54L431.67,347.9L430.25,349.58L427.56,350.78L426.37,351.92L426.96,354.04L428.12,354.8L431.02,357.85L432.77,356.89L434.79,355.19L437.58,354.98L439.56,354.47L444.13,350.66L445.25,350.72L447.5,352.69L450.87,354.13L453.82,356.23L456.93,356.92L460.25,356.07L462.53,355.06L463.93,357.96L465.29,358.52L466.29,360.14L467.82,359.52L470.01,360.6L470.91,362.64L470.53,364.02L475.29,364.02L478.35,363.1L480.81,363.28L482.64,364.2L479.67,365.31L476.2,364.81L475.74,365.56L477,367.55L477.21,369.2L479.15,370.48L482.14,370.08L483.44,370.51L483.61,372.27L482.68,373.31L480.65,373.43L477.39,375.71L473.48,376.89L471.35,377.18L468.2,378.37L464.03,378.25L461.39,377.18L458.58,377.34L456.58,377.04L456.36,374.11L453.72,373.87L449.95,375.46L447.11,378.07L444.87,378.87L443.65,383.6L439.59,388.05L438.78,388.41L433.92,389.41L432.99,390.32L429.45,403.76L429.34,405.58L431.1,408.9L431.39,410.6L430.71,416.1L430.64,419.42L428.31,424.16L427.92,426.95L429.18,427.83L432.06,430.59L431.41,431.01L429.71,433.55L426.85,435.62L411.27,440.19L400.84,443.25L385.2,447.82L383.41,447.77L377.43,446.68L365.91,446.59L364.96,435.65L373.14,385.44L374.4,369.23L375.98,362.75L376.61,361.2L377.17,357.49L378.59,353.22L382.1,350.2L385.86,347.38L387.14,345.47L389.87,335.14L391.67,333.74L392.35,331.19L393.94,332.16L395.86,332.07L398.78,333.31L399.77,330.07L400.56,329.45L400.51,326.6L402.06,325.77L403.43,322.52L404.71,320.91L405.67,320.49L408.32,320.99L409.34,322.18L409.54,326.24L410.39,326.11L412.61,324.2L414.35,324.65L419.8,325.16L421.11,326.73L424.57,327.09L425.74,326.89L426.07,325.55Z" class="land" id="AF-KAN" title="Kandahar"/>
    <path d="M493.53,340.77L494.43,344.79L493.26,347.83L492.18,349.48L492.16,351.79L492.73,353.31L495.22,355.14L493.86,356.55L493.36,358.12L490.08,360.45L487.04,360.37L486.04,360.86L483.83,363.36L482.64,364.2L480.81,363.28L478.35,363.1L475.29,364.02L470.53,364.02L470.91,362.64L470.01,360.6L467.82,359.52L466.29,360.14L465.29,358.52L463.93,357.96L462.53,355.06L460.25,356.07L456.93,356.92L453.82,356.23L450.87,354.13L447.5,352.69L445.25,350.72L444.13,350.66L439.56,354.47L437.58,354.98L434.79,355.19L432.77,356.89L431.02,357.85L428.12,354.8L426.96,354.04L426.37,351.92L427.56,350.78L430.25,349.58L431.67,347.9L432.18,346.54L431.91,344.56L431.02,343.43L432.08,341L431.4,336.75L431.91,335.55L433.64,333.97L435.41,330.63L433.08,328.4L429.98,326.5L429.32,325.1L431.56,324.05L431,323.05L431.58,320.39L434.85,316.29L436.55,315.44L438.32,315.18L439.98,312.61L442.12,312.5L441.38,315.83L441.65,316.67L443.92,315.53L443.91,314.38L445.41,312.63L446.12,310.9L449.61,307.78L451.3,305.58L451.4,301.3L452.51,298.66L452.69,296.77L454.41,295.18L454.56,294.91L457.57,298.75L463.72,298.79L466.64,300.81L469.97,300.57L471.5,304.39L470.91,305.52L469.53,306.29L469.73,307.38L471,307.89L470.37,310.94L472.49,313.88L477.96,319.38L479.56,320.39L477.12,323.11L475.43,323.77L467.09,336.67L471.15,341.34L479.59,339.07L481.82,338.34L482.73,338.91L486.14,339.65L488.85,341.69L491.88,341.84Z" class="land" id="AF-ZAB" title="Zabul"/>
    <path d="M495.22,355.14L492.73,353.31L492.16,351.79L492.18,349.48L493.26,347.83L494.43,344.79L493.53,340.77L494.5,338.53L494.68,336.63L494.14,334.37L494.66,333.26L494.47,329.94L494.91,327.96L493.74,323.57L489.77,320.36L489.15,318.91L485.82,316.37L485.18,314.87L486.62,312.28L488.39,310.17L491.46,313.21L492.94,314.16L497.18,313.86L500.07,312.07L501.28,310.63L501.49,309.36L504.76,306.24L506.95,303.41L508.58,298.44L509.29,297.35L512.65,294.83L514.79,292.38L515.55,291.04L516.32,288.34L519.31,285.45L522.87,284.32L524.84,284.6L525.98,285.27L526.94,286.81L526.97,289.81L527.58,295.46L528.2,295.72L530.21,294.26L533.44,292.58L535.69,290.67L537.31,291.98L538.71,292.03L540.93,291.39L542.04,291.84L541.65,293.49L542,296.67L539.87,299.43L540.03,300.48L541.41,300.61L544.8,301.85L544.46,302.58L545.13,307.22L544.77,308.47L541.54,311.52L541.21,312.93L542.52,314.07L543.04,316.56L542.49,317.92L540.6,320.78L537.76,322.3L535.99,325.29L535.81,327.05L537.12,331.26L537.22,333.08L536.64,339.4L537.35,343.42L538.48,346.64L538.36,347.58L535.66,349.94L531.73,356.04L530.19,357.72L527.77,359.7L525.5,360.01L522,361.58L520.57,361.74L519.62,361.07L516.77,356.96L516.66,355.25L515.97,354.48L513.95,354.1L510.64,352.43L507.43,353.58L508.27,354.95L510.42,354.89L510.98,355.9L509.58,356.57L508.25,356.34L504.48,354.99L500.85,354.83L499.12,353.07L497.41,352.31L496.21,352.92Z" class="land" id="AF-PKA" title="Paktika"/>
    <path d="M558.47,260.97L557.85,261.77L559.12,263.46L559.92,265.67L562.03,269.95L563.43,270.4L563.15,271.68L557.3,274.9L556.22,276.54L555.48,276.04L553,276.29L550.79,276.96L548.59,278.5L547.62,280.66L548.27,281.83L547.23,285.09L543.89,288.15L542.04,291.84L540.93,291.39L538.71,292.03L537.31,291.98L535.69,290.67L533.44,292.58L530.21,294.26L528.2,295.72L527.58,295.46L526.97,289.81L526.94,286.81L525.98,285.27L524.84,284.6L522.87,284.32L519.31,285.45L520.4,282.77L519.62,280.39L519.44,275.98L524.77,276.02L527.06,276.35L528.68,275.4L530.33,271.81L534.75,268.34L538.34,266.66L542.06,262.84L544.3,261L545.63,259.05L551.6,259.69Z" class="land" id="AF-PIA" title="Paktia"/>
    <path d="M563.43,270.4L565.91,271.32L567.44,271.04L568.32,273.89L569.67,274.87L569.79,276.2L569.05,278.93L569.12,280.57L570.22,282.19L573.82,285.89L574.39,287.23L574.13,288.64L568.04,293.8L565.28,294.01L564.08,296.3L561.97,296.86L559.28,298.51L557.76,298.62L555.35,297.41L553.96,297.65L552.27,298.87L550.64,298.73L547.3,299.12L546.1,299.91L544.8,301.85L541.41,300.61L540.03,300.48L539.87,299.43L542,296.67L541.65,293.49L542.04,291.84L543.89,288.15L547.23,285.09L548.27,281.83L547.62,280.66L548.59,278.5L550.79,276.96L553,276.29L555.48,276.04L556.22,276.54L557.3,274.9L563.15,271.68Z" class="land" id="AF-KHO" title="Khost"/>
    <path d="M605.59,170.13L608.74,172.76L611.76,173.84L612.83,176.6L614.46,177.77L616.18,180.61L616.42,182.49L618.17,185.52L616.85,188.05L617.91,189.39L619.89,190.36L620.81,191.46L620.39,193.95L620.81,195.22L619.96,196.28L616.35,198.59L615.75,200.31L613.86,200.71L612.19,200.17L607.91,201.79L606.05,203.95L605.85,206.23L604.67,208.05L603.86,210.84L602.2,210.56L600.75,212.34L598.87,211.81L594.21,212.6L590.55,211.64L586.98,209.86L585.89,212.91L584.19,215.9L581.81,218.27L577.63,219.85L572.88,218.18L572.14,216.56L570.41,214.43L569.92,212.57L568.95,211.65L564.84,211.2L564.06,208.46L562.56,205.28L562.65,202.95L560.68,200.56L561.41,199.16L564.7,197.36L566.31,194.7L568.41,194.61L569.95,192.59L569.72,190.94L571.3,189.28L571.86,186.11L574.12,186.55L576.91,184.93L577.77,184.97L581.04,186.51L581.5,188.25L583.49,190.69L582.81,193.71L583.08,196.01L584.28,196.18L586.62,194.87L587.56,192.35L588.49,192.2L589.78,193.75L594.62,194.34L595.27,192.92L594.68,189.21L595.54,187.79L598.05,187.35L600,184.52L598.53,183.32L598.72,181.19L600.2,180.4L601.71,177.96L602.36,174.58L604.29,171.6Z" class="land" id="AF-NUR" title="Nuristan"/>
    <path d="M598.89,235.1L594.47,235.42L593.13,235.23L590.21,236.16L589.86,235.11L590.59,233.47L588.13,233.32L587.01,231.84L586.81,230.34L587.52,226.62L586.63,224.96L585.67,224.4L585.84,221.3L584.19,215.9L585.89,212.91L586.98,209.86L590.55,211.64L594.21,212.6L598.87,211.81L600.75,212.34L602.2,210.56L603.86,210.84L604.67,208.05L605.85,206.23L606.05,203.95L607.91,201.79L612.19,200.17L613.86,200.71L615.75,200.31L616.35,198.59L619.96,196.28L620.81,195.22L621.85,196.75L621.45,198.25L618.59,201.23L618.53,202.42L621.16,205.83L622.26,206.72L622.1,208.17L621.19,209.57L618.71,211.31L617.77,212.48L617.86,215.26L616.02,218.15L611.16,220.13L609.89,221.12L608.67,223.96L606.79,226.67L602.38,229.96L601.96,231.14L602.36,233.02L601.85,234.96Z" class="land" id="AF-KNR" title="Kunar"/>
    <path d="M261.94,370.76L250.75,369.12L234.95,366.8L233.75,366.29L233.33,362.34L232.71,359.32L233.16,356.2L232.59,350.23L232.85,347.62L232.07,343.79L233.29,341.92L233.99,337.84L234.06,334.38L231.26,323.93L224.98,302.58L224.45,299.84L224.62,295.85L231.43,286.61L233.64,284.95L234.22,283.6L234.13,281.52L236.47,280.98L237.28,280.31L239.26,280.54L241.32,281.43L246.07,282.51L248.51,282.71L253.69,282.16L256.38,282.59L258.1,281.69L259.13,280.32L261.58,280.24L263.78,281.14L268.23,281.32L270.61,281.86L270.97,283.26L269.9,285.17L269.73,287.62L267.41,290.1L267.46,291.02L268.87,292.57L270.49,295.18L269.13,296.86L264.84,301.38L264.27,302.47L264.02,305.39L265.35,307.08L267.5,307.16L270.08,309.74L271.14,310.13L274.82,306.96L276.12,306.93L276.53,310.05L277.26,311.47L278.74,311.61L280.67,310.19L282.56,309.54L286.86,308.97L288.76,308.97L288.81,307.56L289.65,305.75L289.66,303.72L290.34,302.46L292.89,300.61L295.35,299.66L297.43,300.37L300.74,299.52L302.74,297.13L305.18,297.07L309.03,295.85L309.41,296.92L312.55,295.74L313.51,294.77L313.99,292.81L315.35,289.7L317.07,288.62L319.95,289.09L322.67,288.23L329.95,287.93L333.27,286.99L336.52,284.95L340.46,284.35L341.49,283.74L343.95,280.99L346.47,280.13L348.37,281.39L350.42,284.75L351.52,287.35L351.93,290.54L353.36,291L356.2,295.52L357.32,295.41L359.69,297.05L362.42,296.21L361.58,294.82L365.04,292.57L366.75,289.04L367.76,288.47L370.03,290.24L372.49,290.53L374.02,292.56L374.4,293.55L373.25,294.58L373.68,296.62L370.43,299.1L368.39,301.45L368.55,302.53L367.43,304.71L368.34,306.44L361.81,309.13L359.62,312.62L357.54,314.33L357.09,315.47L358.77,316.7L358.5,318.16L357.57,318.96L354.33,320.62L349.9,321.22L348.47,320.64L347.85,321.38L347.88,323.22L348.71,325.83L346.05,328.04L345,327.79L342.45,329.85L341.22,331.3L339.43,331.03L337.78,331.56L335.8,333.64L331.07,336.45L330.22,336.5L323.5,334.85L319.85,334.66L318.14,334.2L317.04,334.58L315.7,336.42L315.27,337.88L315.18,341.03L314.39,342.97L311.35,345.37L309.4,345.91L307.07,345.97L303.79,347.24L301.94,347.45L297.68,342.62L294.28,341.9L290.27,343.09L275.34,344.05L275.56,346.88L274.89,348.03L272.64,349.2L271.89,350.87L272.24,353.2L268.98,356.93L267.33,360.06L266.17,361.59L264.06,361.94L264.17,365.4L263.06,366.1L262.7,369.15Z" class="land" id="AF-FRA" title="Farah"/>
    <path d="M261.94,370.76L262.7,369.15L263.06,366.1L264.17,365.4L264.06,361.94L266.17,361.59L267.33,360.06L268.98,356.93L272.24,353.2L271.89,350.87L272.64,349.2L274.89,348.03L275.56,346.88L275.34,344.05L290.27,343.09L294.28,341.9L297.68,342.62L301.94,347.45L303.79,347.24L307.07,345.97L309.4,345.91L311.35,345.37L314.39,342.97L315.18,341.03L315.27,337.88L315.7,336.42L317.04,334.58L318.14,334.2L319.85,334.66L323.5,334.85L330.22,336.5L331.07,336.45L331.37,339.15L332.36,341.91L331.3,343.1L331.19,345.7L329.91,348.39L327.46,350.86L326.67,353.2L324.76,366.9L324.7,371.33L323.39,373.79L324.63,377.08L324.35,381.83L322.28,383.58L320.14,387.68L317.16,389.76L317.54,396.84L315.84,398.11L314.09,400.4L315.1,402.17L314.29,404.15L315.56,406.35L315.34,407.21L312.44,409.79L310.67,413.58L309.15,415.95L306.61,418.76L303.89,419.98L303.35,425.75L301.86,428.89L302,432.65L297.74,452.86L293.25,453.29L289.55,452.58L280.15,449.56L262.2,443.76L247.24,438.93L235.7,435.2L234.57,434.67L239.38,429.02L247.91,418.83L256.75,408.22L268.37,394.15L269.2,392.05L268.91,388.7L269.85,385.64L268.61,382.1L268.16,379.49L266.85,377.03L267.08,374.39L265.54,371.97L263.92,371.04Z" class="land" id="AF-NIM" title="Nimroz"/>
    <path d="M305.67,201.25L304.27,205.67L301.24,210.74L300.23,213.8L299.51,220.29L300.23,222.6L303.35,223.52L305.55,225.48L307.22,226.1L309.62,227.64L312,227.78L313.21,229.8L313.16,231.01L316.01,231.6L318.25,232.68L320.8,231.18L324.97,231.63L327.59,232.59L329.66,234.06L331.79,235.07L334.26,235.43L335.39,235L338.14,235.81L339.95,237.01L340.96,237.02L348.38,234.79L350.79,232.85L352.42,232.39L354.24,230.07L355.55,229.6L359.07,229.66L361.09,230.32L365.07,230.03L364.47,234.92L365.21,236.88L364.86,238.1L363.44,237.73L362.5,236.63L360.87,237.57L357.85,238.64L356.14,238.4L354.92,239.02L354.98,243.7L354.74,244.71L355.5,246.26L355.19,247.45L352.2,249.45L349.89,249.43L348.28,248.59L347.12,249.79L342.56,249.7L340.27,248.16L338.66,247.59L335.61,247.32L329.74,247.59L329.15,250.09L326.07,255.12L325.96,256.03L327.4,258.48L328.04,260.33L329.45,261.56L330.86,263.61L331.37,265.44L332.94,267.41L332.77,268.12L330.29,269.14L330.02,270.05L330.53,272.3L330,273.37L328.19,274.29L324.72,274.62L320.69,275.74L319.2,276.82L316.65,277.82L314.7,279.44L315.18,282.1L316.7,285.38L317.07,288.62L315.35,289.7L313.99,292.81L313.51,294.77L312.55,295.74L309.41,296.92L309.03,295.85L305.18,297.07L302.74,297.13L300.74,299.52L297.43,300.37L295.35,299.66L292.89,300.61L290.34,302.46L289.66,303.72L289.65,305.75L288.81,307.56L288.76,308.97L286.86,308.97L282.56,309.54L280.67,310.19L278.74,311.61L277.26,311.47L276.53,310.05L276.12,306.93L274.82,306.96L271.14,310.13L270.08,309.74L267.5,307.16L265.35,307.08L264.02,305.39L264.27,302.47L264.84,301.38L269.13,296.86L270.49,295.18L268.87,292.57L267.46,291.02L267.41,290.1L269.73,287.62L269.9,285.17L270.97,283.26L270.61,281.86L268.23,281.32L263.78,281.14L261.58,280.24L259.13,280.32L258.1,281.69L256.38,282.59L253.69,282.16L248.51,282.71L246.07,282.51L241.32,281.43L239.26,280.54L237.28,280.31L235.83,278.75L233.24,278.34L230.6,278.49L227.78,278.27L224.88,277.07L222.62,274.88L221.72,271.73L223.12,267.81L223.2,266.11L222.17,259.49L221.72,255.15L221.93,253.21L222.94,251.17L225.33,248.38L227.6,246.86L227.36,245.93L236.22,245.4L235.81,244.58L231.8,239.07L230.6,238.36L229.9,235.88L234.36,234.42L236.88,231.63L238.27,231.49L238.79,229.92L238.72,227.76L240.5,226.11L241.41,224.13L242.51,223.76L242.95,220.77L242.73,219.12L243.35,217.75L244.32,213.01L245.45,211.16L245.19,209.51L243.81,207.6L244.05,203.43L246.19,202.84L247.17,201.66L247,199.39L249.03,194.3L250.58,191.52L250.34,188.23L252.53,187.86L253.94,189.82L254.29,191.27L255.53,191.75L259.52,195.75L261.89,196.7L266.73,197.44L268.87,197.28L273.2,195.77L275.29,195.81L277.31,196.99L280.99,200.63L283.96,202.18L285.12,204.2L285.11,206.76L286,209.01L286.94,209.17L290.44,204.4L292.58,203.25L294.94,205.44L298.41,205.86L301.55,204.39L303.42,202.35Z" class="land" id="AF-HER" title="Herat"/>
    <path d="M344.59,170.09L346.04,172.05L345.93,175.74L344.99,179.55L344.9,181.47L343.91,183.9L346.02,185.17L347.55,187.2L348,188.82L348.05,193.57L348.93,194.21L354.64,194.62L356.84,195.04L356.98,197.22L358.96,198.18L362.9,197.27L363.23,198.54L362.56,203.6L362.92,205.24L366.35,206.38L370.03,206.89L374.19,206.28L374.91,207.79L376.98,209.31L378.78,209.51L381.18,212.32L383.39,213.91L385.59,218.29L384.94,223.31L384.41,224.68L382.65,225.92L376.24,227.69L373.86,228.89L371.39,228.47L366.98,228.29L365.79,228.76L365.07,230.03L361.09,230.32L359.07,229.66L355.55,229.6L354.24,230.07L352.42,232.39L350.79,232.85L348.38,234.79L340.96,237.02L339.95,237.01L338.14,235.81L335.39,235L334.26,235.43L331.79,235.07L329.66,234.06L327.59,232.59L324.97,231.63L320.8,231.18L318.25,232.68L316.01,231.6L313.16,231.01L313.21,229.8L312,227.78L309.62,227.64L307.22,226.1L305.55,225.48L303.35,223.52L300.23,222.6L299.51,220.29L300.23,213.8L301.24,210.74L304.27,205.67L305.67,201.25L309.08,198.57L311.5,197.41L314.42,196.92L314.91,196.42L315.64,192.54L314.81,191.04L314.78,188.13L315.73,187.19L318.49,186.28L319.73,184.83L318.63,184.26L316.05,181.71L315.06,179.22L316.53,177.71L324.35,177.88L327.48,177.23L330.39,175.86L332.27,173.7L333.67,173.16L338.1,172.88L339.55,172.51L342.92,170.52Z" class="land" id="AF-BDG" title="Badghis"/>
    <path d="M401.42,115.9L397.08,123.64L396.07,126.96L395.82,129.65L396.12,130.99L397.98,133.38L398.39,135.27L399.88,138.08L398.87,142.49L397.99,143.87L400.02,146.07L399.42,148.88L401.31,154.33L400.39,155.2L393.88,155.42L392.59,156.4L391.49,160.61L391.65,164.98L390.03,167.06L390.48,169.14L389.82,170.29L387.61,171.98L387.86,173.2L389.1,174.3L393.42,173.86L397.09,175.28L398.81,175.52L401.27,175.16L403.09,173.3L404.61,174.7L407.76,173.05L408.51,171.49L409.43,170.74L411.11,171.31L410.48,173.24L412.34,176.06L412.81,178.53L412.44,180.63L410.53,181.08L408.32,180.93L408.3,182.74L406.28,185.86L402.62,185.81L401.48,186.72L400.83,189.16L401.35,190.95L399.7,194.86L398.66,195.94L398.63,201.51L400.11,204.49L397.62,206.69L395.85,207.37L394.41,207.02L392.66,205.2L391.2,205.79L388.93,204.46L387.69,204.58L384.42,206L383.69,205.21L380.99,206.25L378.65,205.11L376.93,205.33L374.19,206.28L370.03,206.89L366.35,206.38L362.92,205.24L362.56,203.6L363.23,198.54L362.9,197.27L358.96,198.18L356.98,197.22L356.84,195.04L354.64,194.62L348.93,194.21L348.05,193.57L348,188.82L347.55,187.2L346.02,185.17L343.91,183.9L344.9,181.47L344.99,179.55L345.93,175.74L346.04,172.05L344.59,170.09L346.16,170.22L349.58,171.56L349.26,168.11L350.02,166.83L352.39,165.01L355,164.13L357.52,164.72L358.45,162.64L360.07,161.45L363.93,160.38L365.86,158.54L368.68,154.16L369.73,150.96L369.8,148.25L369.12,145.64L369.23,143.81L370.29,140.6L375.45,131.09L375.94,129.57L375.11,124.39L375.27,122.63L376.99,120.7L383.5,117.17L386.16,116.29Z" class="land" id="AF-FYB" title="Faryab"/>
    <path d="M438.09,110.63L438.28,114.36L438.02,121.44L436.92,124.89L436.62,128.02L439.35,132.21L440.12,136.51L437.95,137.23L435.47,137.47L435,138.82L436.43,140.04L437.07,143.71L438.77,145.3L437.06,146.08L435.07,147.94L420.2,150.33L419.17,155.27L405.71,158.3L402.1,159.32L401.52,167.2L402.81,168.67L403.05,172.65L407.66,171.96L408.51,171.49L407.76,173.05L404.61,174.7L403.09,173.3L401.27,175.16L398.81,175.52L397.09,175.28L393.42,173.86L389.1,174.3L387.86,173.2L387.61,171.98L389.82,170.29L390.48,169.14L390.03,167.06L391.65,164.98L391.49,160.61L392.59,156.4L393.88,155.42L400.39,155.2L401.31,154.33L399.42,148.88L400.02,146.07L397.99,143.87L398.87,142.49L399.88,138.08L398.39,135.27L397.98,133.38L396.12,130.99L395.82,129.65L396.07,126.96L397.08,123.64L401.42,115.9L403.18,115.21L406.32,111.24L406.2,107.38L406.74,105.4L407.92,103.3L410.94,102.51L411.25,100.68L412.79,101.27L414.62,103.87L422.69,106.91L425.68,109.8L427.29,109.8L430.4,111.87L433.82,111.14L436.41,112.17Z" class="land" id="AF-JOW" title="Jowzjan"/>
    <path d="M492.58,130.15L493.06,135.02L495,139.77L495.96,141.47L497.48,142.83L498.48,145.06L494.56,146.44L488.81,145.63L483.68,147.23L483.68,156.8L482.14,158.71L479.58,159.66L474.7,157.28L469.38,157.4L469.19,158.63L467.88,160.08L467.79,162.09L465.38,164.69L462.29,165.35L458.18,168.66L460.22,172.36L459.88,174.83L455.86,179.41L455.11,179.98L453.77,180.63L452.57,182.36L452.34,184L448.56,185.92L444.62,186.25L443.65,185.16L438.52,186.13L438.68,183.59L440.92,181.23L442.42,177.6L441.76,171.84L441.1,170.6L441.53,168.26L441.19,163.92L439.15,163.63L436.4,161.53L438.87,157.52L440.36,153.34L443.67,148.84L444.25,147.16L442.65,146.08L438.77,145.3L437.07,143.71L436.43,140.04L435,138.82L435.47,137.47L437.95,137.23L440.12,136.51L439.35,132.21L436.62,128.02L436.92,124.89L438.02,121.44L438.28,114.36L438.09,110.63L440.97,110.18L443.35,111.19L444.76,111.32L446.23,110.42L450.93,110.21L454.23,109.43L455.97,109.46L459.26,111.44L460.19,114.09L463.23,115.83L464.26,118.13L465.87,118.3L467.24,117.41L469.81,116.91L473.09,114.3L474.66,114.5L475.34,116.37L478.51,115.35L480.56,116.33L483.22,116.85L483.8,118.29L483.5,121.17L483.98,122.46L487.31,123.9L488.76,126.18L490.32,127.26Z" class="land" id="AF-BAL" title="Balkh"/>
    <path d="M538.71,121.54L539.75,122.83L538.82,125.42L539,127.24L538.57,133.55L537.53,135.39L535.39,136.12L535.12,139.55L535.56,141.63L536.81,144.2L535.74,147.01L532.94,149.65L533.97,152.66L534.86,154.18L535.55,158.29L534.01,156.66L530.54,155.69L527.59,152.91L524.55,152.21L522.67,153.13L520.39,151.57L517.66,147.69L514.09,148.25L511.04,147.39L502.81,146.9L499.12,145.69L498.48,145.06L497.48,142.83L495.96,141.47L495,139.77L493.06,135.02L492.58,130.15L493.67,129.74L498.39,125.98L501.67,126.35L502.05,125.7L501.78,122.9L502.73,121.66L504.83,122.15L506.48,121.69L506.2,119.97L510.83,119.19L511.51,118.12L514.22,117.51L515.72,114.26L518.98,114.4L521.32,115.06L520.8,112.73L522.48,112.15L523.68,114.09L524.79,113.82L523.93,111.65L526.38,111.96L527.82,113.03L528.91,115.46L531.09,117.2L532.06,119.18L536.45,122.12Z" class="land" id="AF-KDZ" title="Kunduz"/>
    <path d="M563.71,101.9L563.5,102.83L563.87,108.89L564.21,110.6L563.71,114.35L564.83,118.8L564.74,120.72L566.58,122.71L568.01,124.89L567.01,126.98L565.58,127.71L563.83,130.65L563.89,140.46L563.69,144.08L564.93,148.97L565.1,151.14L568.57,153.47L571.08,156.47L576.54,157.98L579.39,157.98L580.53,158.88L580.72,163.58L578.97,169.82L580.21,172.47L576.86,175.4L574.24,176.98L573.38,178.15L571.14,177.14L569.72,177.68L567.6,179.52L565.15,179.8L563.05,180.74L562.15,179.94L561.99,176.52L560.81,174.68L559.46,171.23L558.09,169.09L555.94,167.1L555.57,162L552.93,160.1L552.68,157.56L552.1,155.92L549.71,157.24L546.4,158.35L543.58,160.51L538.42,161.35L537.05,159.13L535.55,158.29L534.86,154.18L533.97,152.66L532.94,149.65L535.74,147.01L536.81,144.2L535.56,141.63L535.12,139.55L535.39,136.12L537.53,135.39L538.57,133.55L539,127.24L538.82,125.42L539.75,122.83L538.71,121.54L542.27,118.81L543.62,116.15L542.64,114.74L541.17,109.63L541.22,107.06L542.91,104.49L545.28,102.55L546.62,100.33L551.52,100.78L554.73,99.85L556.45,100.54L559.79,98.87L561.23,99.44L561.95,100.81Z" class="land" id="AF-TAK" title="Takhar"/>
    <path d="M605.59,170.13L604.29,171.6L602.36,174.58L601.71,177.96L600.2,180.4L598.72,181.19L598.53,183.32L600,184.52L598.05,187.35L595.54,187.79L594.68,189.21L595.27,192.92L594.62,194.34L589.78,193.75L588.49,192.2L587.56,192.35L586.62,194.87L584.28,196.18L583.08,196.01L582.81,193.71L583.49,190.69L581.5,188.25L581.04,186.51L577.77,184.97L576.91,184.93L574.12,186.55L571.86,186.11L572.12,185.53L572.68,180.14L573.38,178.15L574.24,176.98L576.86,175.4L580.21,172.47L578.97,169.82L580.72,163.58L580.53,158.88L579.39,157.98L576.54,157.98L571.08,156.47L568.57,153.47L565.1,151.14L564.93,148.97L563.69,144.08L563.89,140.46L563.83,130.65L565.58,127.71L567.01,126.98L568.01,124.89L566.58,122.71L564.74,120.72L564.83,118.8L563.71,114.35L564.21,110.6L563.87,108.89L563.5,102.83L563.71,101.9L568.19,102.77L569.23,102.35L571.33,98.92L572.68,98.3L572.67,97.22L573.73,94.94L573.24,92.32L572.19,89.36L570.6,88.8L569.49,86.52L569.74,83.96L571.27,84.73L572.95,84.27L572.68,82.72L575.28,80.99L578.48,77.2L580.09,76.39L580.9,75.24L583.22,69.51L584.51,68.94L584.96,66.05L587.87,64.37L588.11,62.55L590.21,62.33L590.9,61.22L593.53,61.36L594.85,60.78L597.2,61.7L597.46,60.19L598.55,59.84L600.16,60.93L601.28,62.82L602.7,62.76L605.09,64.31L607.31,66.62L611.5,68.68L612.36,70.03L612.59,72.06L611.51,76.41L609.28,81.6L608.68,83.79L611.75,86.37L613.11,85.48L617.5,83.96L618.79,84.04L620.96,86.14L620.7,89.9L618.81,91.57L618.92,94.72L617.35,101.22L617.86,104.87L616.99,108.34L617.33,111.99L616.99,114.76L615.66,117.04L615.79,118.12L615.05,121.07L614.98,123.79L616.02,126.32L616.13,129.14L618.48,133.27L619.36,137.15L621.45,140.06L622.95,140.85L626.38,141.23L629.55,140.31L639.97,132.52L644.76,128.27L648.39,126.79L650.01,126.45L652.49,126.91L653.7,126.3L659.05,125.5L662.77,118.35L663.83,116.87L665.26,115.99L667.84,115.36L668.63,114.41L671.2,112.86L673.78,112.59L675.54,110.15L677.47,108.38L678.95,108.38L681.27,106.06L682.9,105.72L684.95,106.38L687.19,105.14L688.79,105.09L693.09,106.68L695.59,107.35L698.43,107.47L698.15,110.89L696.16,113.04L694.03,113.46L692.82,115L693.55,116.29L695.81,115.87L697.23,117L698.16,116.41L700.04,116.5L701.4,115.23L703.67,114.83L709.16,112.73L713.15,111.92L714.69,110.76L715.33,108.6L718.2,108.75L719.23,107.83L720.52,108.92L723.63,109.05L726.33,109.85L729.97,109.61L731.02,109.03L735.62,111.87L738.28,115.78L736.5,117.1L735.43,116.9L734.02,113.8L733.21,113.38L729.68,116.4L728.49,115.83L724.8,116.62L723.7,118.81L721.02,119.05L720.44,120.14L722.18,121.95L724.41,123.06L725.94,125.44L727.02,126.4L726.02,128.67L724.41,126.83L721.44,127.07L714.89,131.52L712.53,131.22L711.43,131.77L710.68,134.39L708.56,135.09L705.38,134.4L702.44,132.53L699.13,131.66L694.35,131.45L689.65,132.25L687.38,131.9L683.28,132.1L681.48,132.73L678.25,132.33L672.88,132.9L671.01,133.92L669.41,133.44L666.6,134.42L663.43,134.58L660.43,134.14L655.73,134.86L653.99,135.76L651.74,137.67L649.34,137.77L643.1,139.09L640.8,140.75L641.59,142.35L638.87,143.01L637.23,143.92L637.4,145.07L635.34,145.99L632.31,147.99L630.92,149.26L628.01,149.64L627.32,151.53L628.03,153.35L625.95,153.87L624.89,152.74L622.1,151.03L621.07,151.49L620.05,154.06L618.97,155.64L619.55,156.91L616.7,158.13L613.23,161.78L610.95,162.58L610.01,164.48L607.5,165.93L606.95,167.61L605.79,168.78Z" class="land" id="AF-BDS" title="Badakhshan"/>
  </g>
</svg>