<?xml version="1.0" encoding="UTF-8"?>
<svg xmlns="http://www.w3.org/2000/svg" width="389.14" height="399.63" viewBox="285.43 57.19 389.14 399.63" style="background-color:#000000">
  <!-- Created using SVG Map Generator: dojo.amcharts.com/svg-map-generator -->
  <style>
    .land { fill: #ffffff; stroke: #000000; stroke-width: 0.65; }
  </style>
  <g id="polygons">
    <path d="M378.46,147.09L383.75,147.82L387.22,152.02L392.28,152.02L393.01,148.38L397.63,148.01L408.77,153.55L408.65,159.15L412.69,166.91L417.03,172.05L427.59,174.34L426.29,181.2L422.37,187.29L418.77,197.75L418.04,205.93L412.97,208.79L406.03,216.57L410.66,223.02L408.54,228.02L406.03,234.64L392.06,229.24L387.78,225.54L381.19,230.62L376.16,227.59L376.8,237.46L375.33,238.56L364.35,238.27L343.01,233.76L335.8,226.64L325.13,224.03L318.12,224.57L314.71,227.06L310.78,225.3L309.8,220.08L304.62,214.76L308.47,205.61L305.52,199L312.65,197.49L320.88,189.85L330.07,187.73L334.6,189.85L339.92,188.79L343.95,191.12L351.05,189L358.3,192.6L369.91,192.19L378.14,188.58L376.05,182L377.34,173.5L371.53,172.66L371.05,167.76L367.34,162.02L367.66,157.34L371.7,153.52L377.98,152.66Z" class="land" id="AM-AG" title="Aragac̣otn"/>
    <path d="M395.64,264.25L396.5,255.04L393.69,247.8L403,246.97L408,248.21L411.23,251.45L421.37,255.8L432.8,248.04L435.33,243.96L435.05,250.77L439.82,254.18L451.68,245.86L460.29,245.38L462.32,240.84L469.42,238.95L481.69,238.88L480.62,254.56L490.9,270.26L491.73,291.06L486.42,296.66L485.31,302.44L481.35,304.56L478.89,309.26L471.45,312.58L464.29,312.71L449.33,315.17L447.72,311.91L440.61,305.33L428.04,296.86L427.84,293.41L423.84,289.11L423.02,284.9L418.8,281.3L414.61,275.12L406.11,269.55Z" class="land" id="AM-AR" title="Ararat"/>
    <path d="M314.71,227.06L318.12,224.57L325.13,224.03L335.8,226.64L343.01,233.76L364.35,238.27L375.33,238.56L376.8,237.46L376.16,227.59L381.19,230.62L387.78,225.54L392.06,229.24L406.03,234.64L408.38,238.84L408,248.21L403,246.97L393.69,247.8L396.5,255.04L395.64,264.25L386.97,261.57L378.19,265.13L369.29,264.17L363.46,265.51L343.27,266.6L331.05,260.18L326.68,256.85L320.43,256.82L311.82,250.45L313.67,244.61L319.01,240.82L312.02,234.33L315.93,232.78Z" class="land" id="AM-AV" title="Armavir"/>
    <path d="M406.03,234.64L408.54,228.02L416.01,229.85L422.37,227.57L434.97,237.81L435.33,243.96L432.8,248.04L421.37,255.8L411.23,251.45L408,248.21L408.38,238.84Z" class="land" id="AM-ER" title="Erevan"/>
    <path d="M521.41,161.18L520.86,164.99L523.2,171.02L528.72,173.05L529.54,185.54L537.86,192.94L540.18,197.6L548.05,200.13L553.98,205.17L556.26,209.76L561.55,209.84L569.82,213.12L572.49,216.35L582.52,219.23L585.01,221.98L590.66,221.83L593.99,224.27L591.65,228.89L596.68,235.5L595.25,237.73L594.04,248.73L587.89,251.83L587.41,260.45L584.25,265.64L578.2,269.47L573.38,264.25L552.61,265.18L547.92,269.55L541.55,267.6L537.8,272.71L531.72,274.21L517.67,274.98L506.1,279.13L491.73,291.06L490.9,270.26L480.62,254.56L481.69,238.88L475.06,235.34L472.88,232.32L470.15,223.26L465.14,199.77L468.98,194.71L461.06,190.77L458.88,182.64L453.93,179.1L453.84,164.83L459.95,165.08L466.53,158.78L473.58,163.09L482.37,162.41L490.04,154.26L494.52,152.1L502.89,150.71L514.02,154.23ZM537.75,173.96L534.08,166.23L537.22,161.39L543.91,164.62L543.39,168.6Z" class="land" id="AM-GR" title="Gegark'unik"/>
    <path d="M453.84,164.83L453.93,179.1L458.88,182.64L461.06,190.77L468.98,194.71L465.14,199.77L470.15,223.26L472.88,232.32L475.06,235.34L481.69,238.88L469.42,238.95L462.32,240.84L460.29,245.38L451.68,245.86L439.82,254.18L435.05,250.77L435.33,243.96L434.97,237.81L422.37,227.57L416.01,229.85L408.54,228.02L410.66,223.02L406.03,216.57L412.97,208.79L418.04,205.93L418.77,197.75L422.37,187.29L426.29,181.2L427.59,174.34L417.03,172.05L412.69,166.91L408.65,159.15L414.7,154.7L432.22,154.31L436.56,155.65L451.05,162.7Z" class="land" id="AM-KT" title="Kotayk'"/>
    <path d="M451.05,162.7L436.56,155.65L432.22,154.31L414.7,154.7L408.65,159.15L408.77,153.55L397.63,148.01L393.01,148.38L392.28,152.02L387.22,152.02L383.75,147.82L378.46,147.09L371.05,146.5L367.17,141.81L363.15,142.44L360.57,137.75L360.08,130.09L363.62,125.61L369.59,124.1L375.72,115.78L377.83,110.66L368.79,108.73L369.12,102.75L364.59,95.91L357.5,92.04L357.34,82.83L358.58,79.31L362.93,77.63L373.73,77.57L375.9,69.67L382.24,70.28L384.65,73.2L390.39,73.63L394.4,76.09L397.46,70.82L403.46,75.99L409.8,79.47L424.1,75.07L427.89,69.78L435.05,70.25L438.1,72.81L452.91,72.71L451.83,63.76L455.21,59.89L462.61,64.65L467.78,73.62L458.73,80.56L470.46,89.74L468.37,96.17L463.78,98.65L454.83,100.97L453.21,110.11L463.13,113.56L465.84,116.4L462.78,121.08L459.9,131.76L449.9,138.71L447.54,145.12L452.92,156.39Z" class="land" id="AM-LO" title="Loṙi"/>
    <path d="M358.58,79.31L357.34,82.83L357.5,92.04L364.59,95.91L369.12,102.75L368.79,108.73L377.83,110.66L375.72,115.78L369.59,124.1L363.62,125.61L360.08,130.09L360.57,137.75L363.15,142.44L367.17,141.81L371.05,146.5L378.46,147.09L377.98,152.66L371.7,153.52L367.66,157.34L367.34,162.02L371.05,167.76L371.53,172.66L377.34,173.5L376.05,182L378.14,188.58L369.91,192.19L358.3,192.6L351.05,189L343.95,191.12L339.92,188.79L334.6,189.85L330.07,187.73L320.88,189.85L312.65,197.49L305.52,199L299.38,194.55L309.8,183.42L311.04,179.92L316.73,176.2L324.26,160.33L324.09,151.4L319.34,137.33L316.49,133.34L315.5,118.79L309.04,113.01L301.48,109.67L291,103.48L291.15,97.88L288.08,91.86L290.13,87.68L300.87,84.61L307.65,87.5L316.97,86.54L325.4,90.78L329.45,85.56L335.53,81.89L346.58,80.35L350.58,81.7L354.51,78.8Z" class="land" id="AM-SH" title="Širak"/>
    <path d="M565.77,333.24L565.12,319.94L567.07,314.86L566.05,304.58L573.49,293.7L577,291.53L578.75,296.41L584.99,298.08L589.4,301.11L595.52,301.71L599.47,305.52L604.43,314.16L611.54,318.58L619.46,325.76L623.13,332.27L630.81,332.49L638.2,327.59L644.3,327.11L645.56,330.78L651.03,331.16L650.33,335.54L653.75,337.6L664.22,335.25L669.78,338.56L661.4,346.31L661.88,349.01L655.87,357.18L649.4,356.25L646.76,360.97L649.64,370.58L657.88,376.13L661.34,373.8L664.83,378.42L663.32,382.09L666.82,387.75L671.92,392.25L665.59,402.33L663.49,396.4L653.23,398.18L654.3,404.23L657.6,405.58L665.21,415.34L663.52,418.6L666.17,428.77L661.17,438.28L665.01,444.49L658.61,447.08L655.57,445.35L649.95,446.53L644.11,442.19L637.42,444.42L629.97,445.32L629.32,448.7L616.25,454.16L616.84,446.47L612.35,432.61L612.07,426.24L609.1,423.74L608.8,416.55L602.87,412.08L602.96,407.21L600.6,404.02L598.93,388.87L599.62,381.33L595.56,380.35L583.03,371.29L577.29,370.56L574.49,364.9L580.13,356.09L577.8,349.69L578.19,344.58L576.17,337.57L573.55,335.08Z" class="land" id="AM-SU" title="Syunik'"/>
    <path d="M521.41,161.18L514.02,154.23L502.89,150.71L494.52,152.1L490.04,154.26L482.37,162.41L473.58,163.09L466.53,158.78L459.95,165.08L453.84,164.83L451.05,162.7L452.92,156.39L447.54,145.12L449.9,138.71L459.9,131.76L462.78,121.08L465.84,116.4L463.13,113.56L453.21,110.11L454.83,100.97L463.78,98.65L468.37,96.17L470.46,89.74L458.73,80.56L467.78,73.62L462.61,64.65L470.58,66.75L477.83,59.84L482.51,67.71L481.91,75.34L485.55,79.05L491.52,75.18L496.39,80.69L499.91,81.26L498.96,87.33L487.53,90.08L482.69,98.31L485.87,100.92L491.34,99.33L491.23,94.23L495.55,94.69L495.78,99.75L501.49,100.8L505.2,105.98L511.49,102.85L513.81,107.61L519.9,108.28L526.36,104.1L527.29,113.3L532.07,112.9L540.39,122.61L549.72,126.63L551.11,132.6L542.81,144.52L535.01,147.95L528.95,149.14L521.44,155.83Z" class="land" id="AM-TV" title="Tavuš"/>
    <path d="M485.31,302.44L486.42,296.66L491.73,291.06L506.1,279.13L517.67,274.98L531.72,274.21L537.8,272.71L541.55,267.6L547.92,269.55L552.44,273.08L563.2,273.93L566.7,276.88L572.57,277.42L573.58,283.6L577,291.53L573.49,293.7L566.05,304.58L567.07,314.86L565.12,319.94L565.77,333.24L562.79,332.1L554.1,337.79L549.56,337.13L547.01,340.67L536.74,348.69L533.03,348.4L530.14,343.73L521.26,342.55L516.66,338.7L514.3,333.08L508.7,331.03L503.35,335.97L499.78,334.32L499.9,318.29L496.37,314.44L492.81,307.33Z" class="land" id="AM-VD" title="Vayoć Jor"/>
  </g>
</svg>