<?xml version="1.0" encoding="UTF-8"?>
<svg xmlns="http://www.w3.org/2000/svg" width="501.98" height="399.63" viewBox="229.01 57.19 501.98 399.63" style="background-color:#000000">
  <!-- Created using SVG Map Generator: dojo.amcharts.com/svg-map-generator -->
  <style>
    .land { fill: #ffffff; stroke: #000000; stroke-width: 0.65; }
  </style>
  <g id="polygons">
    <path d="M296.73,201.73L295.8,203.21L293.5,203.16L291.51,201.28L291.06,199.47L293.3,197.14L295.39,198.36L297.1,200.38Z" class="land" id="AZ-GR" title="Gegark'unik'"/>
    <path d="M616.14,279.17L612.09,273.68L611.92,270.58L608.6,265.46L608.46,261.98L606.8,258.94L604.18,257.62L598.12,257.46L596.63,256.83L593.07,256.7L591.58,256.05L588.84,251.43L583.13,244.9L579.55,242.53L578.69,237.49L580.44,238.07L584.34,240.54L585.58,242.12L588.97,238.48L590.16,237.8L592.07,234.66L593.85,233.04L596.9,232.53L599.34,228.63L601.38,227.25L606.76,225.9L608.39,223.99L611.08,222.43L613.7,217.75L622.82,216.9L625.55,214.81L626.17,210.84L629.35,207.04L631.27,205.59L632.33,203.1L633.48,203.53L638.76,208.94L640.87,212.93L642.14,213.78L645.67,213.72L649.96,212.42L651.34,209.87L653.3,210.3L652.39,211.67L651.92,214.88L652.2,214.97L652.71,214.92L655.82,213.5L659.27,214.3L661.54,215.49L666.49,216.51L666.49,218.52L657.24,220.65L653.84,222.25L650.39,221.07L647.15,220.99L641.48,222.28L639.27,221.58L638.59,221.52L636.12,222.33L634.05,226.14L631.73,227.01L629.46,227.03L627.98,227.81L626.51,230.55L627.17,235.1L627.8,236.95L627.79,246.64L626.95,250.3L625.97,251.99L622.84,254.88L623.38,258L620.05,263.69L620.35,269.5L617.91,272.83L617.63,276.26ZM654.2,230.14L655.57,233.34L653.96,236.38L652.64,237.11L650.19,235.3L646.57,238.15L644.81,237.61L644.86,235.74L646.33,232.4L647,228.43L649.75,228.22L653.96,228.57Z" class="land" id="AZ-ABS" title="Abseron"/>
    <path d="M284.18,160.19L284.25,157.97L282.86,151.31L284.08,147.48L283.6,145.64L286.27,136.63L285.58,133.12L283.89,131.7L280.02,131.38L275.01,129.84L270.56,127.44L268.61,125.81L262.22,122.27L264.21,119.16L267.1,116.36L269.46,115.89L272.79,113.26L274.05,110.58L276.46,110.41L277.98,109.55L279.99,110.33L281.23,111.67L285.2,114.35L286.49,114.3L289.02,111.69L291.35,112.2L294,114.83L299.6,116.61L300.29,119.24L302.63,120.7L305.67,120.12L310.37,122.09L312.63,121.01L314.37,123.54L311.81,124L309.35,127.44L312.8,132.54L318.01,135.84L310.15,139.99L308.18,141.97L306.95,144.85L305.49,145.43L300.41,142.98L300.05,145.95L300.84,149.16L302.01,151.46L302.02,154.93L300.91,156.89L297.46,159.81L293.56,160.58L292.55,162.82L290.47,164.82L287.92,165.99L286.63,164.84L286.89,162.04L288.53,159.55L286.08,159.19Z" class="land" id="AZ-AGA" title="Agstafa"/>
    <path d="M484.23,260.35L479.74,269.86L479.45,273.97L478.9,275.51L478.73,278.9L478.02,281.7L476.61,284.51L474.93,285.83L472.44,285.9L469.89,287.52L464.59,287.87L463.67,289.47L459.8,291.45L459.6,294.37L460.44,296.58L458.36,298.09L461.19,302.89L454.91,303.88L451.98,305.74L448.09,306.25L450.83,300.83L449.65,297.6L444.3,294.15L443.1,292.6L442.79,289.79L444.33,288.6L445.91,286.33L445.83,283.93L444.79,282.18L441.32,281.72L435.16,284.2L428.44,281.7L426.92,280.2L426.65,278.21L429.82,275.43L430.22,273.98L430.19,269.82L430.84,268.34L434.95,267.51L435.75,265.47L432.6,263.62L433.38,261.37L437.48,259.44L441.08,255.14L442.1,253.33L443.74,256.04L446.62,256.97L451.17,254.08L453.52,251.98L459.16,248.5L461.45,246.18L461.05,252.77L462.99,255.38L464.02,258.44L465.6,258.83L467.83,257.65L474.66,256.43L478.47,257.52L480.01,254.49L482.92,255.96Z" class="land" id="AZ-AGC" title="Aghjabadi"/>
    <path d="M471.42,215.54L467.22,213.88L462.91,215.04L461.74,218.77L461.72,221.24L461.01,223.73L462.58,226.81L465.67,228.88L466.04,230.56L463.6,236.41L457.86,242.02L454.31,240.82L452.28,236.82L449.84,235.62L449.54,231.7L447.55,231.42L446.22,230.32L445.32,228.34L445.25,225.16L441.49,221.03L438.65,219.17L437.76,216.17L436.34,213.47L438.41,212.55L440.15,210.8L441.57,207.96L441.57,205.23L440.41,202.95L440.29,199.46L441.14,195.96L442.28,193.73L443.96,186.07L449.53,186.94L453.56,189L456.69,187.82L463.02,190.12L466.26,189.14L466.76,192.24L466.75,198.58L467.18,199.97L471.6,202.79L474.16,206.11L474.15,207.06L471.89,210.15Z" class="land" id="AZ-AGS" title="Agdas"/>
    <path d="M441.08,255.14L437.48,259.44L433.38,261.37L432.6,263.62L435.75,265.47L434.95,267.51L430.84,268.34L430.19,269.82L430.22,273.98L429.82,275.43L426.65,278.21L426.92,280.2L428.44,281.7L435.16,284.2L441.32,281.72L444.79,282.18L445.83,283.93L445.91,286.33L444.33,288.6L442.79,289.79L441.31,289.31L436.68,289.74L434.63,293.09L430.28,291.49L426.3,289.39L424.07,287.34L422.68,286.91L418.76,287.58L418.06,288.23L417.3,292.08L416.09,293.52L413.14,294.52L409.16,296.61L410.94,292.33L414.31,288.08L415.13,285.66L414.94,283.75L409.56,282.26L408.74,280.98L408.24,277.68L405.28,273.95L402.34,273.2L399.08,274.39L397.11,273.39L396.02,271.95L396.96,270.9L401.43,270.31L402.2,267.29L401.71,264.31L405.02,262.13L405.82,260.08L405.9,256.9L408.06,254.98L410.53,255.59L413.62,254.79L415.38,253.4L415.38,249.51L416.53,249.47L418.46,251.13L420.27,251.27L422.61,250.48L423.63,251.67L423.91,254.43L424.87,255.52L428.98,255.46L433.43,254.67L437.76,255.44Z" class="land" id="AZ-AGM" title="Agdam"/>
    <path d="M543.86,243.07L540.59,240.66L538.9,236.53L537.61,235.7L535.13,235.53L533.47,232.8L534.64,227.86L533.28,225.35L531.89,224.89L527.66,224.8L525.58,225.37L522.83,228.55L520.57,228.34L518.9,225.63L516.19,226.55L513.69,225.17L513.33,222.05L515.71,214.77L517.91,215.69L519,213.97L519.51,211.35L523.45,207.56L526.74,205.89L527.53,203.77L534.16,200.49L541.87,195.31L543.23,193.07L545.65,185.51L547.22,189.13L550.11,191.57L551.13,194.07L550.96,195.64L549.25,198.3L549.52,200.6L547.86,202.98L543.65,207.15L542.77,208.84L543.47,210.89L545.63,213.93L548.42,215.18L555.15,215.54L559.01,218.11L561.56,219.23L561.06,221.06L557.77,223.06L552.55,225.62L550.5,228.15L550.37,232.35L546.71,237.18L545.39,239.34Z" class="land" id="AZ-AGU" title="Agsu"/>
    <path d="M583.54,426.96L583.79,436.99L583.71,447.12L579.15,448.09L576,450.82L573.89,451.44L570.47,451.7L567.58,454.16L564.51,453.81L563.2,452.49L560.65,451.7L557.23,449.23L557.49,446.6L555.26,441.47L552.94,438.95L554.52,436.83L554.8,434.16L555.65,433.19L559.74,430.89L562.87,431.14L565.75,429.49L567.87,430.19L571.79,430.2L575.49,428.48L583,426.43Z" class="land" id="AZ-AST" title="Astara"/>
    <path d="M728.34,238.8L723.99,239.9L723.48,236.63L724.69,235.09L726.5,235.38L728.25,237.31ZM621.85,310.99L621.26,306.35L620.61,304.03L620.65,296.83L621.65,294.75L621.3,289.43L617.91,284L617.63,281.98L616.14,279.17L617.63,276.26L617.91,272.83L620.35,269.5L620.05,263.69L623.38,258L622.84,254.88L625.97,251.99L626.95,250.3L627.79,246.64L627.8,236.95L627.17,235.1L626.51,230.55L627.98,227.81L629.46,227.03L631.73,227.01L634.05,226.14L636.12,222.33L638.59,221.52L639.27,221.58L641.48,222.28L647.15,220.99L650.39,221.07L653.84,222.25L657.24,220.65L666.49,218.52L666.49,216.51L661.54,215.49L659.27,214.3L655.82,213.5L652.71,214.92L652.2,214.97L651.92,214.88L652.39,211.67L653.3,210.3L656.97,210.09L659.93,211.31L665.23,210.51L669.92,209.47L672.25,208.46L674.57,208.17L676.78,209.14L679.99,208.39L681.76,208.6L681.36,210.23L683.21,212.21L683.57,213.68L686.01,216.02L688.39,216.31L691.15,217.79L694.88,218.27L696.93,222.25L698.96,223.69L700.25,226.39L704.39,229.04L706.56,234.49L706.61,238.43L706.12,240.99L706.57,244.22L707.64,246.67L705.92,246.59L705.45,242.2L703.12,239.26L695.37,235.13L690.96,234.66L689.44,233.74L685.33,232.92L683.44,233.91L682.86,235.25L680.57,234.75L678.14,235.2L675.84,237.08L674.27,236.46L671.99,236.85L671.7,235.51L668.86,232.97L663.75,232.64L661.62,234.17L662.43,236.21L661.78,239.78L655.35,241.31L653.05,243.09L649.1,243.4L647.59,245.41L640.5,249.07L639.06,250.44L635.4,251.77L633.43,253.96L631.18,255.1L631.18,259.33L632.49,261.22L629.92,261.97L626.7,264.39L627.12,268.37L628.73,271.32L631.98,275.56L629.87,277.7L627.03,279.48L626.47,282.06L627.3,286.34L628.91,289.63L626.41,291.7L626.05,294.04L624.58,296.38L624.25,298.66L625.53,304.44L627,307.49L623.49,309.19ZM654.2,230.14L653.96,228.57L649.75,228.22L647,228.43L646.33,232.4L644.86,235.74L644.81,237.61L646.57,238.15L650.19,235.3L652.64,237.11L653.96,236.38L655.57,233.34ZM646.24,276.85L645.15,276.22L644.91,273.97L646.83,273.97L647.45,276.03ZM703.3,222.38L702.48,220.95L703.99,219.66L705.47,220.61L706.09,222.52L705.73,226.73L704.28,225.29Z" class="land" id="AZ-BA" title="Baki"/>
    <path d="M291.88,328.82L288.72,333.1L284.28,336.23L284.77,338.22L287.73,338.72L288.72,340.03L289.05,342.52L290.36,344.66L295.46,344.99L297.93,347.79L300.39,349.61L299.57,351.92L301.69,352.92L302.2,354.72L301.71,356.21L299.73,357.54L299.4,361.66L295.13,362.49L295.13,364.31L298.59,367.11L298.91,370.74L297.43,372.07L296.61,374.88L298.26,376.85L300.39,378.34L301.05,380.48L300.89,382.47L299.73,383.96L299.9,387.77L297.48,388.46L295.32,387.15L291.48,385.98L288.97,384.12L288.74,383.2L289.95,380.7L290.13,378.73L286.54,377.18L285.51,373.01L282.86,369.46L282.39,366.69L279.75,366.45L278.94,365.28L280.38,363.26L279.33,362.43L277.01,363.9L271.32,361.93L269.66,361.94L268.06,359.75L265.95,361.27L265.63,358.03L261.86,350.4L264.22,350.11L265.53,351.42L268.82,350.11L269.8,350.77L273.43,347.63L274.25,344.82L276.88,339.54L277.53,337.4L277.2,331.45L279.18,330.3L279.51,327.81L281.2,323.31L284.39,324.14L286.84,325.48L288.7,325.43L290.4,328.35Z" class="land" id="AZ-BAB" title="Babek"/>
    <path d="M396.73,66.63L397.52,68.18L397.36,72.36L395.95,74.92L392.81,77.98L391.46,78.72L384.9,83.7L383.93,85.54L382.94,89.74L381.43,92.44L375.19,96.11L372.69,96.08L370.38,97.91L366.55,100.14L362.6,98.32L362.09,94.79L358.17,93.31L355.76,95.73L354.21,93.84L354.04,88.48L352.84,84.85L351.63,78.65L353.87,75.7L357.65,74.33L361.91,73.44L365.6,70.1L368.77,68.17L370.66,66.06L371.99,62.8L372.27,59.84L374.36,61.69L379.93,61.97L382.6,63.46L382.7,68.95L384.4,70.98L385.74,71.12L391.73,68.1L396.23,68.46Z" class="land" id="AZ-BAL" title="Balakan"/>
    <path d="M428.98,255.46L428.07,251.3L428.08,243.67L428.67,241.74L427.95,239.87L425.6,239.54L423.9,238.15L422.29,235.01L420.42,233.65L419.55,231.32L419.05,227.78L421.38,224.85L424.52,219.74L427.16,219.78L430.24,222L434.49,218.85L436.34,213.47L437.76,216.17L438.65,219.17L441.49,221.03L445.25,225.16L445.32,228.34L446.22,230.32L447.55,231.42L449.54,231.7L449.84,235.62L452.28,236.82L454.31,240.82L457.86,242.02L456.84,244.52L458.12,245.57L461.02,245.43L461.45,246.18L459.16,248.5L453.52,251.98L451.17,254.08L446.62,256.97L443.74,256.04L442.1,253.33L441.08,255.14L437.76,255.44L433.43,254.67Z" class="land" id="AZ-BAR" title="Barda"/>
    <path d="M474.69,323.91L475.85,321.73L475.87,318.33L474.05,315.69L470.79,313.69L468.4,311.3L466.36,307.86L465.25,306.86L463.13,306.72L461.77,305.29L461.19,302.89L458.36,298.09L460.44,296.58L459.6,294.37L459.8,291.45L463.67,289.47L464.59,287.87L469.89,287.52L472.44,285.9L474.93,285.83L476.61,284.51L478.02,281.7L478.73,278.9L478.9,275.51L479.45,273.97L479.74,269.86L484.23,260.35L486.66,262.12L487.07,263.33L485.19,264.66L487.36,267.73L490.14,269.54L491.66,272.95L490.79,275.77L485.37,279.23L484.73,281.48L487.03,283.1L487.17,285.71L485.11,287.75L484.59,289.3L485.84,290.86L489.47,292.04L492.93,297.12L496.38,298.74L498.12,300.85L497.21,302.13L490.84,306.22L488.46,309.2L488.16,314.66L484.61,318.37Z" class="land" id="AZ-BEY" title="Beylagan"/>
    <path d="M571.33,339.18L567.79,339.05L565.68,337.96L563.48,338.76L562.66,340.84L560.7,342.19L561.14,343.94L561.12,348.41L560.16,350.26L557.95,350.84L556.27,350.21L554.76,348.3L554.59,345.22L553.01,342.24L550.49,341.68L548.93,342.52L547.25,345.24L545.29,347.17L542.21,347.78L539.29,350.73L536.48,351L535.37,349.29L535.25,344.11L538.3,343.35L536.47,342.07L533.59,339.17L526.34,332.42L522.93,328.95L521.61,327.14L519.1,322.16L517.11,320.65L513.66,316.89L511.49,313.49L506.63,308.87L505.73,307.54L502.6,310.01L501.28,306.73L503.98,304.94L506.01,305L510.48,307.19L517.15,313.9L525.78,320.34L529.02,322.09L533.59,321.93L537.29,318.38L538.71,315.76L541.06,312.73L543.95,310.76L546.41,311.8L548.91,315.74L550.08,316.35L553.65,316.35L554.79,315.29L555.91,312.45L557.45,312.44L559.81,313.61L571.6,317.52L569.83,323.47L569.04,327.63L569.33,328.89L572.58,333.32Z" class="land" id="AZ-BIL" title="Bilasuvar"/>
    <path d="M444.86,345.24L440.96,347.74L439.53,349.87L433.85,351.29L430.07,354.29L427.15,357.35L425.67,362.73L424.47,364.72L421.28,367.33L417.82,369.46L415.27,366.86L410.81,367.81L410.69,364.49L408.36,360.82L406.63,359.01L405.08,357.52L400.93,355.26L399.5,352.99L399.36,348.9L398.53,346.77L396.71,345.11L396.65,341.15L399.04,338.35L402.1,339.06L404.45,340.43L405.67,339.79L407.12,336.48L405.41,333.11L406.23,331.62L407.57,331.6L410.17,333.56L412.75,334.83L412.33,336.52L413.3,337.63L418.5,341.04L418.45,342.84L420.71,342.43L422.9,340.54L425.25,340.71L425.72,339.69L423.86,336.02L426.19,332.89L432.91,337.01L434.9,341.49L435.82,341.78L439.52,340.77L442.98,342.71Z" class="land" id="AZ-CAB" title="Cəbrayıl"/>
    <path d="M537.78,381.75L536.88,379.52L532.5,374.21L532.09,372.04L526.74,370.01L525.62,368.75L525.05,366.38L520.4,363.43L518.75,362.05L517.51,357.66L517.7,354.98L518.62,354.41L520.54,351.38L522.8,350.33L524.16,348.74L528.47,347.86L531.21,345.91L535.25,344.11L535.37,349.29L536.48,351L539.29,350.73L542.21,347.78L545.29,347.17L547.25,345.24L548.93,342.52L550.49,341.68L553.01,342.24L554.59,345.22L554.76,348.3L556.27,350.21L557.95,350.84L560.16,350.26L561.12,348.41L561.14,343.94L560.7,342.19L562.66,340.84L563.48,338.76L565.68,337.96L567.79,339.05L571.33,339.18L568.61,342.44L567.03,345.48L567.03,353.06L570.33,359.51L570.47,360.94L570.41,365.39L569.35,367.85L565.87,367.17L565.91,369.24L562.39,369.24L561.17,371.43L562.85,374.93L556.72,378.1L554.99,379.81L553.71,382.98L552.17,384.46L547.06,385.51L544.55,382.49L541.43,380.55Z" class="land" id="AZ-CAL" title="Cəlilabad"/>
    <path d="M332.54,348.83L328.19,355.39L326.21,356.21L324.73,358.36L324.56,363.81L321.77,367.44L320.79,371.24L317.82,375.04L316.67,377.51L316.51,379.66L315.19,383.29L318.32,384.77L319.96,386.92L320.29,388.91L317.63,392.73L313.06,391.98L312.24,390.79L307.04,389.58L304.32,390.67L303.25,389.18L299.9,387.77L299.73,383.96L300.89,382.47L301.05,380.48L300.39,378.34L298.26,376.85L296.61,374.88L297.43,372.07L298.91,370.74L298.59,367.11L295.13,364.31L295.13,362.49L299.4,361.66L299.73,357.54L301.71,356.21L302.2,354.72L301.69,352.92L305.66,349.94L307.96,349.94L310.59,347.14L312.23,347.14L313.39,349.29L314.86,350.27L318.32,346.31L318.65,344.66L320.64,343.6L325.37,344.54L327.14,345.36Z" class="land" id="AZ-CUL" title="Culfa"/>
    <path d="M350.02,239.83L345.43,240.11L343.54,240.69L340.46,240.64L334.53,239.08L332.21,239.18L328.52,240.1L328.09,240.85L323.93,240.97L322.18,239.01L322.22,237.24L323.54,235.29L323.71,231.08L324.99,228.6L321.55,222.44L321.46,217.89L324.43,214.63L329.31,211.99L330.02,210.58L332.41,208.24L334.74,205.21L337.47,199.96L339.28,199.49L343.5,201.93L348.12,204.84L354.13,209.68L352.47,212.23L349.62,215.07L347.98,217.83L349.28,220.18L353.82,224.77L356.8,226.81L356.93,227.85L354.98,231.1L351.77,233.53L350.17,235.93Z" class="land" id="AZ-DAS" title="Dashkasan"/>
    <path d="M444.86,345.24L442.98,342.71L439.52,340.77L435.82,341.78L434.9,341.49L432.91,337.01L426.19,332.89L427.33,329.91L429.92,329.51L428.91,324.92L430.51,323.13L430.64,320.51L428.17,320.65L424.67,323.19L423.13,321.43L424.49,319.69L427.26,319.21L429.94,317.75L429.76,316.03L426.93,317.14L423.88,315.6L424.79,313.68L428.69,313.62L433.37,311.35L435.94,308.77L439.54,307.81L443.43,307.76L448.09,306.25L451.98,305.74L454.91,303.88L461.19,302.89L461.77,305.29L463.13,306.72L465.25,306.86L466.36,307.86L468.4,311.3L470.79,313.69L474.05,315.69L475.87,318.33L475.85,321.73L474.69,323.91L467.64,329.2L462.23,331.2L457.76,333.13L454.32,333.82L453.34,335.68L448.01,343.23Z" class="land" id="AZ-FUZ" title="Füzuli"/>
    <path d="M363.77,193L366.13,192.88L368.23,195.03L367.73,197.35L366.99,199.15L363.21,203.04L362.28,203.3L360.19,201.62L360.74,199.48L360.34,195.58Z" class="land" id="AZ-GA" title="Ganja"/>
    <path d="M329.31,211.99L324.43,214.63L321.46,217.89L321.55,222.44L324.99,228.6L323.71,231.08L323.54,235.29L322.22,237.24L322.18,239.01L320.71,237.73L315.82,235.23L310.66,233.41L306.69,232.89L302.8,227.89L299.86,225.23L298.27,221.82L296.47,220.78L293.03,220.29L288.92,216.81L288.85,214.77L289.74,213.11L289.19,211.12L290.23,209.06L289.09,207.11L286.94,205.81L284.74,206.1L283.47,205.02L283.57,202.89L282.26,201.43L282.21,199.56L283.75,196.81L285.73,194.57L286.6,191.95L289.4,190.47L291.63,188.62L293.39,191.32L293.54,195.53L294.96,196.99L299.19,197.23L302.94,199.21L303.55,201.1L302.98,202.95L303.75,204.75L306.33,205.53L309.23,207.86L310.8,206.74L311.99,204.45L312.16,195.3L312.71,192.46L312.16,190.91L312.16,186.73L313.26,182.22L315.43,185.61L317.82,187.89L318,190.33L321.74,196.24L325.81,198.68L326.9,200.97L329.25,202.88L328.75,205.62ZM296.73,201.73L297.1,200.38L295.39,198.36L293.3,197.14L291.06,199.47L291.51,201.28L293.5,203.16L295.8,203.21Z" class="land" id="AZ-GAD" title="Gədəbəy"/>
    <path d="M415.21,220.61L413.06,222.35L411.84,224.11L406.49,227.96L404.4,229.12L397.33,229.13L394.2,230.77L390.81,233.09L387.42,234.47L385.46,235.83L383.36,236.31L382.15,239.21L379.01,241.76L372.18,245.43L367.28,245.33L363.77,243.31L363.67,236.86L364.22,235.42L364.37,231.93L365.12,230.49L368.37,227.29L370.4,223.31L377.46,216.38L379.86,213.3L380.42,211.69L378.73,209.51L378.72,205.24L379.3,201.68L378.06,199.19L376.74,198.07L378.26,192.2L379.82,190.7L382.17,189.47L383.44,187.33L382.58,185.53L383.51,184.22L387.74,181.45L390.62,178.6L391.36,177.25L394.2,174.38L398.84,168.54L401.26,166.19L400.4,169.3L400.2,173.13L400.9,175.83L400.91,182.83L398.9,187.2L398.85,190.33L400.95,192.04L404.59,192.54L406.94,194.79L402.47,200.84L402.53,204.15L403.67,204.24L407.03,201.98L408.77,201.63L411.59,203.23L412.34,204.56L412.29,208.41L411.76,211.59L413.29,214.98L414.81,215.22L417.74,214.62L418.57,215.25L417.45,219.84ZM404.8,226.13L404.8,222.81L402.76,222.01L400.79,222.65L400.24,225.49L401.34,226.69L403.62,227Z" class="land" id="AZ-GOR" title="Goranboy"/>
    <path d="M505.89,224.88L503.99,223.74L501.82,224.23L498.3,224.04L488.88,219.11L487.53,219L484.71,221.6L481.68,220L479.95,218.5L477.15,217.42L475.27,218.58L471.5,216.25L471.42,215.54L471.89,210.15L474.15,207.06L474.16,206.11L471.6,202.79L476.13,200.37L482.09,200.03L483.81,198.82L488.18,199.91L491.87,201.85L494.74,200.78L500.35,202.32L505.48,204.28L507.52,204.6L510.21,206.51L510.83,208.34L507.68,213.78L507.74,215.88L508.82,216.94L509.65,220.15L509.57,222.96L508.9,224.7Z" class="land" id="AZ-GOY" title="Göyçay"/>
    <path d="M350.02,239.83L350.17,235.93L351.77,233.53L354.98,231.1L356.93,227.85L356.8,226.81L353.82,224.77L349.28,220.18L347.98,217.83L349.62,215.07L352.47,212.23L354.13,209.68L348.12,204.84L343.5,201.93L346.55,199.26L347.94,198.86L352.92,198.96L354.25,198.41L355.75,195.81L355.95,192.69L357.1,190.45L357.25,187.02L360.33,181.13L362.82,185.7L363.69,189.6L363.77,193L360.34,195.58L360.74,199.48L360.19,201.62L362.28,203.3L363.21,203.04L366.99,199.15L367.73,197.35L371.86,198.84L374.6,198.9L376.74,198.07L378.06,199.19L379.3,201.68L378.72,205.24L378.73,209.51L380.42,211.69L379.86,213.3L377.46,216.38L370.4,223.31L368.37,227.29L365.12,230.49L364.37,231.93L364.22,235.42L363.67,236.86L363.77,243.31L358.21,241.79L351.92,241.29Z" class="land" id="AZ-GYG" title="Göygöl"/>
    <path d="M585.56,283.5L585.86,281.04L586.85,279.8L583.82,274.8L581.88,275.08L581.37,276.86L582.59,279.23L582.5,282.68L579.82,281.2L579.05,278.66L575.23,274.61L573.33,273.36L568.41,272.3L563.5,270.72L561.37,267.27L563.13,262.31L557.16,259.02L555.44,258.7L545.34,258.69L545.5,254.99L546.18,250.83L545.48,248.16L545.29,244.35L543.86,243.07L545.39,239.34L546.71,237.18L549.03,238.03L552.51,238.29L555.17,240.21L558.46,241.38L563.16,244.47L564.41,244.36L568.8,240.85L569.89,235.69L572.34,237.79L575.94,237.9L578.69,237.49L579.55,242.53L583.13,244.9L588.84,251.43L591.58,256.05L593.07,256.7L596.63,256.83L598.12,257.46L604.18,257.62L606.8,258.94L608.46,261.98L608.6,265.46L611.92,270.58L612.09,273.68L616.14,279.17L617.63,281.98L617.91,284L621.3,289.43L621.65,294.75L616.23,290.26L615.22,288.57L613.53,287.64L611.25,288.71L606.69,288.13L603.88,288.52L600.82,287.27L597.65,287.02L591.44,282.98L588.05,282.71Z" class="land" id="AZ-HAC" title="Haciqabul"/>
    <path d="M488.16,314.66L488.46,309.2L490.84,306.22L497.21,302.13L498.12,300.85L496.38,298.74L492.93,297.12L489.47,292.04L485.84,290.86L484.59,289.3L485.11,287.75L487.17,285.71L487.03,283.1L484.73,281.48L485.37,279.23L490.79,275.77L491.66,272.95L490.14,269.54L487.36,267.73L485.19,264.66L490.71,265.11L491.98,264.85L493.45,262.45L494.75,266.57L495.77,267.91L497.43,267.95L499.9,267.03L502.91,268.53L504.52,266.88L503.51,264.77L506.06,263.96L507.77,260.34L509.63,259.29L511.37,260.32L512.96,263.3L515.13,264.44L515.59,266.2L517.94,268.11L522.15,268.39L524.63,269.99L527.07,272.59L527.7,276.22L525.79,279.59L527.44,282.16L528.15,284.88L524.82,291.27L524.82,293.26L526.35,297.04L529.03,298.91L533.85,300.02L535.86,302.49L536.15,303.76L535.44,306.21L535.6,312.35L537.66,314.11L538.71,315.76L537.29,318.38L533.59,321.93L529.02,322.09L525.78,320.34L517.15,313.9L510.48,307.19L506.01,305L503.98,304.94L501.28,306.73L502.6,310.01L498.01,312.1L492.56,311.66L490.2,312.63Z" class="land" id="AZ-IMI" title="Imisli"/>
    <path d="M545.65,185.51L543.23,193.07L541.87,195.31L534.16,200.49L527.53,203.77L526.74,205.89L523.45,207.56L519.51,211.35L519,213.97L517.91,215.69L515.71,214.77L511.82,216.58L508.82,216.94L507.74,215.88L507.68,213.78L510.83,208.34L510.21,206.51L507.52,204.6L505.48,204.28L500.35,202.32L494.74,200.78L491.87,201.85L488.18,199.91L483.81,198.82L484.78,197.03L487.29,194.92L490.29,189.01L491,188.32L498.87,184.16L499.62,183.24L499.71,178.96L503.88,176.67L505.32,174.39L505.44,173.03L504.43,169.93L501.91,166.12L502.69,162.95L503.58,162L505.58,162.74L507.03,158.07L509.15,155.27L511.11,155.88L514.7,156.18L517.53,157.96L520.79,159.19L528.42,163.37L531.87,163L534.74,163.79L537.62,165.27L539.54,168.16L540.54,170.14L542.34,171.99L547.95,175.83L548.99,178.91Z" class="land" id="AZ-ISM" title="Ismayilli"/>
    <path d="M396.02,271.95L389.82,273.57L388.54,276.18L385.91,278.12L384.41,278.6L382.82,276.8L380.03,275.57L376.77,278.14L375.07,278.6L368.58,281.4L364.39,281.56L358.83,284.56L355.74,285.46L349.69,286.11L345.34,287.31L342.03,287.74L340.25,285.43L338.17,283.71L337.21,284.06L336.11,288.81L328.5,295.25L323.63,293.56L322.29,292.14L320.35,281.62L317.62,280.59L315.2,280.46L312.83,278.48L308.28,277.06L305.72,276.84L304.28,273.97L301.04,273.97L302.77,271.35L305.73,269.58L307.38,269.44L315.19,270.26L318.89,273.09L321.05,273.88L324.62,271.27L327.02,270.6L328.05,265.89L327.88,262.97L328.89,261.59L331.21,260.38L333,257.82L333.87,251.89L334.86,250.35L332.43,247.08L329.73,246.19L330.09,244.32L332.1,245.16L332.74,244.07L330.15,241.42L328.09,240.85L328.52,240.1L332.21,239.18L334.53,239.08L340.46,240.64L343.54,240.69L345.43,240.11L350.02,239.83L351.92,241.29L358.21,241.79L363.77,243.31L367.28,245.33L372.18,245.43L379.01,241.76L382.15,239.21L381.59,242.1L379.48,244.68L379.53,251.34L380.68,253.6L381.74,259.04L382.88,259.13L384.79,257.58L387.62,256.5L391.18,257.4L395.94,262.45L398.51,264.66L398.5,267.05L401.43,270.31L396.96,270.9Z" class="land" id="AZ-KAL" title="Kalbajar"/>
    <path d="M281.2,323.31L279.51,327.81L279.18,330.3L277.2,331.45L277.53,337.4L276.88,339.54L274.25,344.82L273.43,347.63L269.8,350.77L268.82,350.11L265.53,351.42L264.22,350.11L261.86,350.4L260.27,349.78L256.02,344.43L256.49,342.35L258.13,340.2L260.93,338.06L264.05,336.23L267.34,333.76L269.31,329.46L270.47,326L270.96,322.2L273.59,319.56L277.83,318.26L279.86,321.78Z" class="land" id="AZ-KAN" title="Kangarli"/>
    <path d="M493.45,262.45L495.72,261.05L498.1,260.42L501.67,256.09L501.74,252.28L500.38,247.21L500.42,241.59L500.94,239.19L502.98,237.22L505.27,232.79L505.44,227.52L505.89,224.88L508.9,224.7L509.57,222.96L509.65,220.15L508.82,216.94L511.82,216.58L515.71,214.77L513.33,222.05L513.69,225.17L516.19,226.55L518.9,225.63L520.57,228.34L522.83,228.55L525.58,225.37L527.66,224.8L531.89,224.89L533.28,225.35L534.64,227.86L533.47,232.8L535.13,235.53L537.61,235.7L538.9,236.53L540.59,240.66L543.86,243.07L545.29,244.35L545.48,248.16L546.18,250.83L545.5,254.99L545.34,258.69L541.33,260.66L539.61,263.17L535.64,265.53L534.14,268.92L534.29,271.94L530.92,273.29L527.7,276.22L527.07,272.59L524.63,269.99L522.15,268.39L517.94,268.11L515.59,266.2L515.13,264.44L512.96,263.3L511.37,260.32L509.63,259.29L507.77,260.34L506.06,263.96L503.51,264.77L504.52,266.88L502.91,268.53L499.9,267.03L497.43,267.95L495.77,267.91L494.75,266.57Z" class="land" id="AZ-KUR" title="Kurdamir"/>
    <path d="M580.38,416.84L578.89,417.19L577.13,416.13L576.78,414.54L578.18,413.14L579.86,412.97L581.26,415.7Z" class="land" id="AZ-LA" title="Lənkəran City"/>
    <path d="M375.07,278.6L373.75,282.4L373.77,284.04L378.26,287.73L381.37,293.83L382.09,295.96L382.66,300.76L383.59,304.03L384.08,307.9L381.63,312.11L381.48,315.57L382.71,317.39L384.69,317.12L387.16,319.61L389.44,320.35L392.47,314.65L394.43,313.85L397.26,313.8L398.6,314.88L399.22,319.38L397.7,319.99L394.74,320.13L392.99,321.77L395.03,324.29L394.89,328.27L391.17,330.97L390.05,331.29L385.9,335.17L384.68,335.87L381.48,335.88L377.18,333.18L379.46,330.97L380.42,332.15L382.8,331.73L380.09,329.09L379.76,327.22L382.34,325.61L383.56,324.22L385.4,323.61L384.57,321.75L381.71,319.55L377.42,320.09L374.45,321.18L373.1,320.15L373.29,316.21L371.99,315.64L370.65,316.99L368.38,314.02L364.55,314.66L358.95,317.73L355.39,317.27L353.8,317.88L352.42,320.11L351.05,313.79L347.94,311.58L345.78,309.49L343.61,309.54L342.39,307.97L342.98,306.59L340.24,304.91L339.58,303.19L337.55,301.29L336.46,298.48L331.86,296.81L328.5,295.25L336.11,288.81L337.21,284.06L338.17,283.71L340.25,285.43L342.03,287.74L345.34,287.31L349.69,286.11L355.74,285.46L358.83,284.56L364.39,281.56L368.58,281.4Z" class="land" id="AZ-LAC" title="Laçın"/>
    <path d="M609.21,379.94L608.76,384.14L605.5,387.57L606.76,392.51L598.97,393.66L597.57,393.24L596.7,391.63L598.3,389.81L600.01,389.81L604.57,385.33ZM583.54,426.96L583,426.43L575.49,428.48L571.79,430.2L567.87,430.19L565.75,429.49L568.72,424.73L567.1,422.37L564.75,420.49L565.41,417.74L562.82,412.58L556.24,408.64L554.08,404.97L554.08,403.69L556.87,398.43L561.53,402.03L563.27,402.89L567.45,401.22L571.06,398.74L573.86,397.68L575.03,395.67L576.52,395.07L577.69,396.02L577.4,401.08L577.84,403.19L580.47,407.68L581.87,413.58L582.05,416.48ZM580.38,416.84L581.26,415.7L579.86,412.97L578.18,413.14L576.78,414.54L577.13,416.13L578.89,417.19ZM608.54,377.87L606.04,374.05L601.67,375.55L599.91,375.05L600.09,370.89L599.03,368.49L596.9,367.88L597.75,365.74L593.02,367.63L592.23,369.21L590.17,369.21L586.86,372.55L585.51,373.3L585.25,377.15L586.85,382.39L586.94,386.29L585.91,388.62L587.48,390.79L586.7,395.71L584.96,396.82L585.12,399.04L584.33,401.26L583.06,402.69L579.58,402.53L580.06,400.31L581.32,399.52L581.64,396.02L584.17,392.53L584.05,389.07L583.75,387.42L581.94,384.41L582.47,381.26L581.88,379.86L579.09,377.63L578.34,376.36L578.41,372.76L579.02,369.56L581,366.17L591.18,356.46L592.4,354.76L594.41,354.76L595.28,355.63L598.6,361.9L603,362.64L606.31,364.98L609.5,365.15L611.16,366.53L610.73,368.93L609.51,370.99Z" class="land" id="AZ-LAN" title="Lənkəran"/>
    <path d="M565.75,429.49L562.87,431.14L559.74,430.89L555.65,433.19L554.8,434.16L554.52,436.83L552.94,438.95L550.06,435.83L549.25,433.19L546.8,432.65L545.66,430.64L545.63,427.53L543.64,426.26L540.79,427.37L537.01,428.22L533.3,427.35L532.25,425.71L531.74,423.45L528.36,421.2L527.86,418.58L528.41,416.19L527.61,414.22L528.79,411.69L530.31,410.07L530.35,407.99L533.63,403.28L536.63,401.66L539.33,398.87L545.29,395.39L549.06,393.55L552.98,390.5L555.85,393.75L556.72,395.43L556.87,398.43L554.08,403.69L554.08,404.97L556.24,408.64L562.82,412.58L565.41,417.74L564.75,420.49L567.1,422.37L568.72,424.73Z" class="land" id="AZ-LER" title="Lerik"/>
    <path d="M584.05,389.07L580.54,389.36L579.27,390.64L578.03,395.12L576.52,395.07L575.03,395.67L573.86,397.68L571.06,398.74L567.45,401.22L563.27,402.89L561.53,402.03L556.87,398.43L556.72,395.43L555.85,393.75L552.98,390.5L550.88,389.38L547.81,390.06L546.94,388.14L547.06,385.51L552.17,384.46L553.71,382.98L554.99,379.81L556.72,378.1L562.85,374.93L561.17,371.43L562.39,369.24L565.91,369.24L565.87,367.17L569.35,367.85L571.01,369.68L573.31,369.98L575.15,369.39L579.02,369.56L578.41,372.76L578.34,376.36L579.09,377.63L581.88,379.86L582.47,381.26L581.94,384.41L583.75,387.42Z" class="land" id="AZ-MAS" title="Masalli"/>
    <path d="M420.29,188.17L422.96,187.19L424.89,188.06L425.79,190.39L424.84,192.22L423.06,193.25L419.58,193.89L416.58,192.23L414.65,189.56L415.99,186.5L416.77,186.37Z" class="land" id="AZ-MI" title="Mingachevir"/>
    <path d="M404.8,226.13L403.62,227L401.34,226.69L400.24,225.49L400.79,222.65L402.76,222.01L404.8,222.81Z" class="land" id="AZ-NA" title="Naftalan City"/>
    <path d="M606.76,392.51L605.5,387.57L608.76,384.14L609.21,379.94L610.21,380.55L610.47,386.42L609.44,391.1ZM615.08,328.32L615.01,330.85L617.02,334.99L624.07,341.91L626.26,342.5L625.2,345.72L626.45,349.41L629.99,354.23L629.99,356.39L628.35,356.77L624.43,356.26L621.02,351.95L617.98,349.79L614.7,351.7L613.94,353.98L614.32,356.89L613.56,358.93L613.18,362.48L613.31,366.04L612.17,372.38L611.16,375.43L610.91,378.47L608.54,377.87L609.51,370.99L610.73,368.93L611.16,366.53L609.5,365.15L606.31,364.98L603,362.64L598.6,361.9L595.28,355.63L594.41,354.76L592.4,354.76L591.18,356.46L581,366.17L579.02,369.56L575.15,369.39L573.31,369.98L571.01,369.68L569.35,367.85L570.41,365.39L570.47,360.94L570.33,359.51L567.03,353.06L567.03,345.48L568.61,342.44L571.33,339.18L574.96,341.67L578.16,344.7L580.64,346.26L582.5,345.87L584.93,343.61L587.52,342.63L586.96,338.85L587.07,335.41L589.01,332.19L591.57,330.86L593.35,328.82L593.39,326.39L590.58,323.97L589.76,322.31L589.56,318.79L593.88,319.42L595.42,323.9L597.41,325.58L600.22,329.64L603.47,331.38L606.81,332.08L609.91,329.68Z" class="land" id="AZ-NEF" title="Neftçala"/>
    <path d="M287.56,357.37L289.7,358.2L290.53,361.66L287.4,363.64L284.93,362.33L283.79,360.51L285.6,358.03Z" class="land" id="AZ-NV" title="Naxçıvan"/>
    <path d="M453.1,131.13L456.01,132.37L458.31,131.9L460.56,132.57L462.24,132.16L463.84,133.5L463.69,135.64L467.13,139.04L471.23,138.02L473.73,135.74L476.32,136.89L480.78,137.49L480.4,143.32L480.99,146.63L479.74,149.2L479.63,152.75L477.95,156.17L475.15,159.73L474.67,162.33L475.25,165.87L471.93,171.64L471.01,176.18L469.78,180.17L470.01,185.32L466.88,183.19L457.37,178.14L453.2,174.05L451.17,170.35L450.89,167.26L447.5,166.74L448,164.56L447.34,163.33L445.23,162.12L444.6,159.55L445.45,155.31L450.19,145.97L451.77,141.39L451.88,134.41Z" class="land" id="AZ.OG" title="Oguz"/>
    <path d="M317.63,392.73L320.29,388.91L319.96,386.92L318.32,384.77L315.19,383.29L316.51,379.66L316.67,377.51L317.82,375.04L320.79,371.24L321.77,367.44L324.56,363.81L324.73,358.36L326.21,356.21L328.19,355.39L332.54,348.83L336.8,351.46L336.8,355.79L336.43,356.74L336.8,363.61L337.98,364.81L337.65,367.55L339.22,369.46L338.99,372.19L339.77,374.34L342.89,376.47L344.22,380.24L345.37,381.45L345.46,384.44L346.48,388.23L349.6,396.43L348.42,401.96L345.64,399.52L343.21,398.39L342.14,396.91L341.02,398.52L336.8,398.24L332.24,396.33L330.09,398.15L328.7,398.08L325.08,396.24L323.32,394.68L321.63,395.24Z" class="land" id="AZ-OGU" title="Ordubad"/>
    <path d="M483.81,198.82L482.09,200.03L476.13,200.37L471.6,202.79L467.18,199.97L466.75,198.58L466.76,192.24L466.26,189.14L467.25,188.01L469.74,188.62L470.01,185.32L469.78,180.17L471.01,176.18L471.93,171.64L475.25,165.87L474.67,162.33L475.15,159.73L477.95,156.17L479.63,152.75L479.74,149.2L480.99,146.63L480.4,143.32L480.78,137.49L482.75,140.14L485.57,141.1L487.32,140.66L489.71,137.95L491.27,141.74L493.34,143.24L500.28,144.62L499.27,146.95L500.19,149L504.4,152.87L507.01,153.28L509.15,155.27L507.03,158.07L505.58,162.74L503.58,162L502.69,162.95L501.91,166.12L504.43,169.93L505.44,173.03L505.32,174.39L503.88,176.67L499.71,178.96L499.62,183.24L498.87,184.16L491,188.32L490.29,189.01L487.29,194.92L484.78,197.03Z" class="land" id="AZ-QAB" title="Qabala"/>
    <path d="M391.63,151.74L390.95,150.27L392.01,148L391.85,144.62L392.99,141.83L392.07,139.31L395.37,134.93L395.44,132.64L397.61,130.48L397.52,128.93L395.53,128.76L394.48,126.72L394.13,124.44L390.54,121.25L390.9,120.18L393.67,116.69L399.92,104.3L403.5,103.32L408.11,103.38L416.39,105.66L418.47,105.34L420.69,103.74L422.29,103.43L424.17,99.31L426.1,99.77L427.25,97.96L430.22,96.05L431.88,97.05L432.18,99.84L435.67,103.3L435.51,106.4L436.64,107.39L435.35,113.65L433.28,115.89L430.92,117.12L429.19,119.32L426.08,120.49L419.5,123.65L414.95,125.56L412.15,127.56L410.4,129.41L409.83,132.49L406.54,134.57L405.94,136.49L405.89,141.79L405.3,143.29L404.95,147.75L407.67,148.83L411.08,151.03L413.69,154.61L415.95,160.39L415.95,169.63L415.72,172.37L409.41,169.23L404.44,165.96L401.26,166.19L401.1,163.28L399.64,160.64L398.78,157.45L398.35,153.23L396.27,152.06L392.39,152.5L391.57,152.06Z" class="land" id="AZ-QAX" title="Qax"/>
    <path d="M284.18,160.19L281,162L278.95,162.01L277.11,158.25L274.63,158.75L274.46,160.19L270.26,160.3L268.15,156.95L265.9,156.58L265.17,152.3L264.5,151.49L262.21,151.71L263.06,153.66L262.29,155.55L259.61,155.81L257.99,156.98L256.16,156.5L255.78,155.17L257.7,152.29L257.69,150.92L259.15,149.46L263.31,148.96L267.07,147.56L268.32,144.4L266.19,144.13L263.02,138.83L261.35,138.77L258.22,140.72L253.42,140.51L252.89,138.86L255.12,137.17L255.74,134.05L253.76,131.38L252.29,128.4L255.89,126.89L257.8,125.47L260.7,124.25L262.22,122.27L268.61,125.81L270.56,127.44L275.01,129.84L280.02,131.38L283.89,131.7L285.58,133.12L286.27,136.63L283.6,145.64L284.08,147.48L282.86,151.31L284.25,157.97Z" class="land" id="AZ-QAZ" title="Qazax"/>
    <path d="M539.54,168.16L537.62,165.27L534.74,163.79L531.87,163L528.42,163.37L520.79,159.19L517.53,157.96L514.7,156.18L511.11,155.88L509.15,155.27L507.01,153.28L504.4,152.87L500.19,149L499.27,146.95L500.28,144.62L505.22,140.3L515.87,132.71L525.22,126.39L537.33,117.37L540.23,114.61L544.91,112.28L551.24,109.96L555.35,107.81L557.17,110.35L563.5,122.92L564.28,123.09L567.61,121.51L569.66,123.08L569.11,127.48L568.6,128.55L568.6,132.04L570.11,133.8L569.62,135.92L567.29,138.8L564.62,140.37L562.3,143.23L560.7,146.34L561.06,147.5L567.02,153.57L567.69,155.45L566.97,157.6L562.75,161.72L562.83,163.48L564.76,165.98L564.17,167.82L564.22,174.16L556.92,171.44L554.9,171.09L549.05,168.39Z" class="land" id="AZ.QB" title="Quba"/>
    <path d="M377.18,333.18L381.48,335.88L384.68,335.87L385.9,335.17L390.05,331.29L391.17,330.97L394.72,331.82L398.73,330.8L401.25,333.29L400.58,336.01L399.04,338.35L396.65,341.15L396.71,345.11L398.53,346.77L399.36,348.9L399.5,352.99L400.93,355.26L405.08,357.52L406.63,359.01L402.75,361.05L399.87,363.08L396.77,366.04L395.01,369.34L393.63,371.05L391.84,371.36L390.83,369.24L390.78,366.18L391.43,364.31L391.28,361.05L390.22,359.89L386.66,358.79L385.88,356.78L383.52,355.96L382.55,354.54L381.83,351.75L382.25,349.64L379.71,346.29L377.32,347.9L373.32,345.11L371.46,342.52L369.6,337.39L371.79,333.99L374.97,334.65Z" class="land" id="AZ-QBA" title="Qubadli"/>
    <path d="M569.89,235.69L566.26,235.6L563.02,236.14L562.54,234L566.53,232.31L567.11,229.27L569.7,224.24L567.98,221.42L568.26,218.66L567.12,213.52L567.26,210.32L564.87,207.51L567.66,203.25L567.7,200.79L566.98,198.27L567.12,195.83L569.44,192.18L572.59,191.02L575.08,189.12L576.9,188.99L582.24,192.13L586.08,195.33L587.05,196.94L593.6,203.59L595.67,204.83L598.43,205.14L602.54,207.79L604.59,211.9L608.4,214.92L613.7,217.75L611.08,222.43L608.39,223.99L606.76,225.9L601.38,227.25L599.34,228.63L596.9,232.53L593.85,233.04L592.07,234.66L590.16,237.8L588.97,238.48L585.58,242.12L584.34,240.54L580.44,238.07L578.69,237.49L575.94,237.9L572.34,237.79Z" class="land" id="AZ-QOB" title="Qobustan"/>
    <path d="M555.35,107.81L551.24,109.96L544.91,112.28L540.23,114.61L537.33,117.37L525.22,126.39L515.87,132.71L505.22,140.3L500.28,144.62L493.34,143.24L491.27,141.74L489.71,137.95L496.23,137.68L497.96,135.56L497.65,132.39L498.3,130.82L500.57,128.53L501.18,127.16L501.5,121.79L502.94,119.81L505.33,118.78L508.64,113.6L509.76,110.56L509.87,108.02L510.85,106.93L518.14,105.39L522.94,105.57L524.59,104.47L527.89,103.48L529.26,100.42L530.38,99.29L533.78,98.08L536.71,96.4L540.58,93.22L541.68,91.58L542.49,88.33L543.79,81.04L547.02,80.35L549.04,80.6L550.28,82.88L548.59,86.26L548.42,92.37L548.82,93.81L550.59,94.92L553.77,95.14L554.06,97.84L552.29,100.75L554.49,102.6L555.56,106.28Z" class="land" id="AZ-QUS" title="Qusar"/>
    <path d="M436.52,137.78L438.1,140.95L437.41,142.8L435.91,143.42L432.84,142.89L432.14,139.72L434.94,137.08Z" class="land" id="AZ-SA" title="Şəki City"/>
    <path d="M555.91,312.45L553.75,312.34L554.06,309.83L557.28,308.85L559.7,308.71L564.13,306.54L566.81,301.9L566.81,300.62L564.9,296.94L564.79,294.19L565.46,290.35L561.8,285.56L558.02,284.48L555.67,282.28L552.96,280.63L549.05,280.51L547.41,282.37L544.78,281.4L543.58,278.94L545.12,277.08L544.31,275.76L541.25,273.98L537.25,274.94L533.24,276.84L529.71,279.08L527.7,276.22L530.92,273.29L534.29,271.94L534.14,268.92L535.64,265.53L539.61,263.17L541.33,260.66L545.34,258.69L555.44,258.7L557.16,259.02L563.13,262.31L561.37,267.27L563.5,270.72L568.41,272.3L573.33,273.36L575.23,274.61L579.05,278.66L579.82,281.2L582.5,282.68L582.53,283.94L580.7,286.21L581.25,288.55L584.24,291.19L584.51,292.03L582.99,295.03L583.41,296.04L586.47,299.07L586.84,301.62L585.67,303.83L585.52,306.58L586.1,308.76L586.16,311.85L585.62,312.62L581.66,314.66L581.39,315.56L582.38,318.47L581.3,318.99L578.36,316.98L574.78,316.89L571.6,317.52L559.81,313.61L557.45,312.44Z" class="land" id="AZ-SAB" title="Sabirabad"/>
    <path d="M251.26,302.69L251.55,306.03L250.4,307.51L248.6,308.18L246.62,309.98L246.62,311.97L247.77,313.62L247.11,317.08L243.83,318.57L240.5,319.16L238.1,316.51L235.11,317.08L233.79,315.27L235.93,311.8L235.11,309.98L231.66,307.02L232.31,305.2L234.45,304.2L236.26,302.56L239.87,301.73L246.83,303.84ZM248.43,299.41L246.29,298.43L245.64,295.79L249.41,294.96Z" class="land" id="AZ-SAD" title="Sadarak"/>
    <path d="M320.64,343.6L318.65,344.66L318.32,346.31L314.86,350.27L313.39,349.29L312.23,347.14L310.59,347.14L307.96,349.94L305.66,349.94L301.69,352.92L299.57,351.92L300.39,349.61L297.93,347.79L295.46,344.99L290.36,344.66L289.05,342.52L288.72,340.03L287.73,338.72L284.77,338.22L284.28,336.23L288.72,333.1L291.88,328.82L295.17,327.98L298.31,324.6L303.73,322L305.95,321.75L308.77,320.22L310.2,318.29L312.1,317.43L315.16,319.09L317.65,319.43L319.1,320.76L321.31,324.03L322.03,326.02L321.76,329.56L323.26,332.33L321.89,335.95L319.47,340.11L319.36,341.71Z" class="land" id="AZ-SAH" title="Sahbuz"/>
    <path d="M470.01,185.32L469.74,188.62L467.25,188.01L466.26,189.14L463.02,190.12L456.69,187.82L453.56,189L449.53,186.94L443.96,186.07L438.92,184.3L434.16,181.61L432.48,181.3L428.17,179.08L423.78,176.37L415.72,172.37L415.95,169.63L415.95,160.39L413.69,154.61L411.08,151.03L407.67,148.83L404.95,147.75L405.3,143.29L405.89,141.79L405.94,136.49L406.54,134.57L409.83,132.49L410.4,129.41L412.15,127.56L414.95,125.56L419.5,123.65L426.08,120.49L429.19,119.32L430.92,117.12L433.28,115.89L435.35,113.65L436.64,107.39L437.8,108.7L438.23,110.77L440.96,112.47L439.99,114.76L439.96,116.81L442.68,117.44L443.13,118.84L443.92,125.77L449.24,129.52L453.1,131.13L451.88,134.41L451.77,141.39L450.19,145.97L445.45,155.31L444.6,159.55L445.23,162.12L447.34,163.33L448,164.56L447.5,166.74L450.89,167.26L451.17,170.35L453.2,174.05L457.37,178.14L466.88,183.19ZM436.52,137.78L434.94,137.08L432.14,139.72L432.84,142.89L435.91,143.42L437.41,142.8L438.1,140.95Z" class="land" id="AZ-SAK" title="Şəki"/>
    <path d="M571.33,339.18L572.58,333.32L569.33,328.89L569.04,327.63L569.83,323.47L571.6,317.52L574.78,316.89L578.36,316.98L581.3,318.99L582.38,318.47L581.39,315.56L581.66,314.66L585.62,312.62L586.16,311.85L586.1,308.76L585.52,306.58L585.67,303.83L586.84,301.62L586.47,299.07L583.41,296.04L582.99,295.03L584.51,292.03L584.24,291.19L581.25,288.55L580.7,286.21L582.53,283.94L584.18,284.64L585.56,283.5L588.05,282.71L591.44,282.98L597.65,287.02L600.82,287.27L603.88,288.52L606.69,288.13L611.25,288.71L613.53,287.64L615.22,288.57L616.23,290.26L621.65,294.75L620.65,296.83L620.61,304.03L621.26,306.35L621.85,310.99L619.61,313.22L618.49,316.13L617.03,322.28L615.08,328.32L609.91,329.68L606.81,332.08L603.47,331.38L600.22,329.64L597.41,325.58L595.42,323.9L593.88,319.42L589.56,318.79L589.76,322.31L590.58,323.97L593.39,326.39L593.35,328.82L591.57,330.86L589.01,332.19L587.07,335.41L586.96,338.85L587.52,342.63L584.93,343.61L582.5,345.87L580.64,346.26L578.16,344.7L574.96,341.67Z" class="land" id="AZ-SAL" title="Salyan"/>
    <path d="M277.83,318.26L273.59,319.56L270.96,322.2L270.47,326L269.31,329.46L267.34,333.76L264.05,336.23L260.93,338.06L258.13,340.2L256.49,342.35L256.02,344.43L254.18,342.19L252.21,342.02L247.27,338.39L246.46,335.08L244.64,332.94L244.32,328.32L240.7,324.51L240.5,319.16L243.83,318.57L247.11,317.08L247.77,313.62L246.62,311.97L246.62,309.98L248.6,308.18L250.4,307.51L251.55,306.03L251.26,302.69L255.16,299.74L257.63,295.96L261.42,296.28L263.07,297.11L264.05,299.91L263.83,301.82L265.27,305.11L266.86,306.31L268.3,309.57L268.38,312.29L267.67,314L267.72,317.25L268.59,319.28L273.43,315.44L277.2,315.44Z" class="land" id="AZ-SAR" title="Sharur"/>
    <path d="M555.91,312.45L554.79,315.29L553.65,316.35L550.08,316.35L548.91,315.74L546.41,311.8L543.95,310.76L541.06,312.73L538.71,315.76L537.66,314.11L535.6,312.35L535.44,306.21L536.15,303.76L535.86,302.49L533.85,300.02L529.03,298.91L526.35,297.04L524.82,293.26L524.82,291.27L528.15,284.88L527.44,282.16L525.79,279.59L527.7,276.22L529.71,279.08L533.24,276.84L537.25,274.94L541.25,273.98L544.31,275.76L545.12,277.08L543.58,278.94L544.78,281.4L547.41,282.37L549.05,280.51L552.96,280.63L555.67,282.28L558.02,284.48L561.8,285.56L565.46,290.35L564.79,294.19L564.9,296.94L566.81,300.62L566.81,301.9L564.13,306.54L559.7,308.71L557.28,308.85L554.06,309.83L553.75,312.34Z" class="land" id="AZ-SAT" title="Saatli"/>
    <path d="M604.79,146.78L603.45,146.27L599.65,142.26L597.16,141.46L593.74,143.16L590.01,142.77L585.64,143.26L584.35,144.05L583.62,146.72L585.58,151.52L585.5,155.38L583.97,158.2L582.77,159.32L580.26,159.27L576.62,162.16L576.31,163.47L577.01,166.06L577.03,169.14L578.18,174.45L576.11,175.5L572.86,178.64L564.22,174.16L564.17,167.82L564.76,165.98L562.83,163.48L562.75,161.72L566.97,157.6L567.69,155.45L567.02,153.57L561.06,147.5L560.7,146.34L562.3,143.23L564.62,140.37L567.29,138.8L569.62,135.92L570.11,133.8L568.6,132.04L568.6,128.55L569.11,127.48L569.66,123.08L571.18,123.33L574.97,121.58L578.4,123.43L580.73,122.72L583.56,121.04L587.75,121.14L591.57,122.54L597.56,122.23L599.45,125.03L601.83,131.14L602.72,135.18L603.57,142.05Z" class="land" id="AZ-SBN" title="Sabran"/>
    <path d="M622.52,175.47L620.11,175.77L616.96,175.05L614.22,176.79L606.43,176.51L599.44,172.49L596.56,171.22L595.68,169.61L595.65,165.33L594.88,164.52L590.83,166.47L589.73,170.43L580.5,174.53L578.18,174.45L577.03,169.14L577.01,166.06L576.31,163.47L576.62,162.16L580.26,159.27L582.77,159.32L583.97,158.2L585.5,155.38L585.58,151.52L583.62,146.72L584.35,144.05L585.64,143.26L590.01,142.77L593.74,143.16L597.16,141.46L599.65,142.26L603.45,146.27L604.79,146.78L604.85,149.28L606.57,153.68L607.04,156.61L608.77,160.62L614.05,166.24L615.9,167.52L618.72,172.15L621.17,173.55Z" class="land" id="AZ-SIY" title="Siazan"/>
    <path d="M343.5,201.93L339.28,199.49L337.47,199.96L334.74,205.21L332.41,208.24L330.02,210.58L329.31,211.99L328.75,205.62L329.25,202.88L326.9,200.97L325.81,198.68L321.74,196.24L318,190.33L317.82,187.89L315.43,185.61L313.26,182.22L312.9,178.51L313.86,176.64L317.47,174.59L319.61,172.29L324.52,168.81L327.04,165.5L328.35,161.44L329.32,161.29L343.3,161.63L345,160.57L345.39,158.59L347.55,155.74L352.96,150.06L354.17,146.98L356.84,151.38L360.56,155.33L363.59,161.4L363.66,162.47L360.97,167.07L359.98,172.66L358.24,175.32L358.23,177.19L360,179.26L360.33,181.13L357.25,187.02L357.1,190.45L355.95,192.69L355.75,195.81L354.25,198.41L352.92,198.96L347.94,198.86L346.55,199.26Z" class="land" id="AZ-SKR" title="Shamkir"/>
    <path d="M651.34,209.87L649.96,212.42L645.67,213.72L642.14,213.78L640.87,212.93L638.76,208.94L633.48,203.53L632.33,203.1L632.03,201.38L635.96,200.5L637.48,203.69L641.34,205.49L647.33,205.76L649.58,208.84Z" class="land" id="AZ-SM" title="Sumqayit"/>
    <path d="M575.08,189.12L572.59,191.02L569.44,192.18L567.12,195.83L566.98,198.27L567.7,200.79L567.66,203.25L564.87,207.51L567.26,210.32L567.12,213.52L568.26,218.66L567.98,221.42L569.7,224.24L567.11,229.27L566.53,232.31L562.54,234L563.02,236.14L566.26,235.6L569.89,235.69L568.8,240.85L564.41,244.36L563.16,244.47L558.46,241.38L555.17,240.21L552.51,238.29L549.03,238.03L546.71,237.18L550.37,232.35L550.5,228.15L552.55,225.62L557.77,223.06L561.06,221.06L561.56,219.23L559.01,218.11L555.15,215.54L548.42,215.18L545.63,213.93L543.47,210.89L542.77,208.84L543.65,207.15L547.86,202.98L549.52,200.6L549.25,198.3L550.96,195.64L551.13,194.07L550.11,191.57L547.22,189.13L545.65,185.51L548.99,178.91L547.95,175.83L542.34,171.99L540.54,170.14L539.54,168.16L549.05,168.39L554.9,171.09L556.92,171.44L564.22,174.16L572.86,178.64L571.3,181.43L571.64,184.12L572.96,186.78Z" class="land" id="AZ-SMI" title="Samaxi"/>
    <path d="M390.95,150.27L391.63,151.74L391.57,152.06L392.39,152.5L396.27,152.06L398.35,153.23L398.78,157.45L399.64,160.64L401.1,163.28L401.26,166.19L398.84,168.54L394.2,174.38L391.36,177.25L390.62,178.6L387.74,181.45L383.51,184.22L382.58,185.53L383.44,187.33L382.17,189.47L379.82,190.7L378.26,192.2L376.74,198.07L374.6,198.9L371.86,198.84L367.73,197.35L368.23,195.03L366.13,192.88L363.77,193L363.69,189.6L362.82,185.7L360.33,181.13L360,179.26L358.23,177.19L358.24,175.32L359.98,172.66L360.97,167.07L363.66,162.47L363.59,161.4L360.56,155.33L356.84,151.38L354.17,146.98L353.41,146.31L349.54,145.08L344.68,141.99L345.5,139.68L348.88,138.72L350.82,139.69L354.2,139.31L359.13,139.5L361.65,141.83L368.23,150.28L371.62,149.3L373.55,150.08L373.94,152.51L375.88,155.09L377.03,154.8L380.61,149.07L382.26,147.9L386.23,149.16L387.58,150.71Z" class="land" id="AZ-SMX" title="Samux"/>
    <path d="M585.56,283.5L584.18,284.64L582.53,283.94L582.5,282.68L582.59,279.23L581.37,276.86L581.88,275.08L583.82,274.8L586.85,279.8L585.86,281.04Z" class="land" id="AZ-SR" title="Shirvan City"/>
    <path d="M382.66,300.76L387.17,300.09L390,298.44L392.19,298.34L394.48,299.26L397.84,301.31L400.01,305.46L402.94,308.69L403.79,312.03L399.22,319.38L398.6,314.88L397.26,313.8L394.43,313.85L392.47,314.65L389.44,320.35L387.16,319.61L384.69,317.12L382.71,317.39L381.48,315.57L381.63,312.11L384.08,307.9L383.59,304.03Z" class="land" id="AZ-SUS" title="Susa"/>
    <path d="M419.05,227.78L419.55,231.32L420.42,233.65L422.29,235.01L423.9,238.15L425.6,239.54L427.95,239.87L428.67,241.74L428.08,243.67L428.07,251.3L428.98,255.46L424.87,255.52L423.91,254.43L423.63,251.67L422.61,250.48L420.27,251.27L418.46,251.13L416.53,249.47L415.38,249.51L415.38,253.4L413.62,254.79L410.53,255.59L408.06,254.98L405.9,256.9L405.82,260.08L405.02,262.13L401.71,264.31L402.2,267.29L401.43,270.31L398.5,267.05L398.51,264.66L395.94,262.45L391.18,257.4L387.62,256.5L384.79,257.58L382.88,259.13L381.74,259.04L380.68,253.6L379.53,251.34L379.48,244.68L381.59,242.1L382.15,239.21L383.36,236.31L385.46,235.83L387.42,234.47L390.81,233.09L394.2,230.77L397.33,229.13L404.4,229.12L406.49,227.96L411.84,224.11L413.06,222.35L415.21,220.61L416.75,225.21Z" class="land" id="AZ-TAR" title="Tartar"/>
    <path d="M313.26,182.22L312.16,186.73L312.16,190.91L312.71,192.46L312.16,195.3L311.99,204.45L310.8,206.74L309.23,207.86L306.33,205.53L303.75,204.75L302.98,202.95L303.55,201.1L302.94,199.21L299.19,197.23L294.96,196.99L293.54,195.53L293.39,191.32L291.63,188.62L300.31,182.08L301.68,180.15L302.49,177.24L302.19,174.44L300.16,174.11L298.54,172.64L296.56,172.27L295.59,170.67L293.67,170.66L293.95,168.92L292.38,167.92L291.65,165L290.47,164.82L292.55,162.82L293.56,160.58L297.46,159.81L300.91,156.89L302.02,154.93L302.01,151.46L300.84,149.16L300.05,145.95L300.41,142.98L305.49,145.43L306.95,144.85L308.18,141.97L310.15,139.99L318.01,135.84L321.59,137.29L324.65,137.48L328.06,139.21L332.04,142.06L334.79,142.24L337.25,141.73L341.33,141.81L343.75,142.52L344.68,141.99L349.54,145.08L353.41,146.31L354.17,146.98L352.96,150.06L347.55,155.74L345.39,158.59L345,160.57L343.3,161.63L329.32,161.29L328.35,161.44L327.04,165.5L324.52,168.81L319.61,172.29L317.47,174.59L313.86,176.64L312.9,178.51Z" class="land" id="AZ-TOV" title="Tovuz"/>
    <path d="M500.94,239.19L495.75,239.08L490.72,240.34L486.79,240.23L482.98,239.72L478.93,241.76L476.94,238.82L473.05,234.89L468.51,232.43L466.04,230.56L465.67,228.88L462.58,226.81L461.01,223.73L461.72,221.24L461.74,218.77L462.91,215.04L467.22,213.88L471.42,215.54L471.5,216.25L475.27,218.58L477.15,217.42L479.95,218.5L481.68,220L484.71,221.6L487.53,219L488.88,219.11L498.3,224.04L501.82,224.23L503.99,223.74L505.89,224.88L505.44,227.52L505.27,232.79L502.98,237.22Z" class="land" id="AZ-UCA" title="Ucar"/>
    <path d="M569.66,123.08L567.61,121.51L564.28,123.09L563.5,122.92L557.17,110.35L555.35,107.81L555.56,106.28L554.49,102.6L552.29,100.75L554.06,97.84L553.77,95.14L550.59,94.92L548.82,93.81L548.42,92.37L548.59,86.26L550.28,82.88L549.04,80.6L547.02,80.35L543.79,81.04L546.74,73.38L547.8,69.79L548.92,68.56L548.77,65.42L550.2,62.49L551.81,62.18L555.25,66.34L558.85,69.16L562.57,72.61L566.41,76.85L569.14,80.59L572.82,87.94L574.15,88.55L577.83,93.73L582.43,99.69L585.97,103.7L586.94,105.64L589.67,109.2L592.43,114.06L597.17,121.06L597.56,122.23L591.57,122.54L587.75,121.14L583.56,121.04L580.73,122.72L578.4,123.43L574.97,121.58L571.18,123.33Z" class="land" id="AZ-XAC" title="Xaçmaz"/>
    <path d="M403.79,312.03L402.94,308.69L400.01,305.46L397.84,301.31L394.48,299.26L392.19,298.34L390,298.44L387.17,300.09L382.66,300.76L382.09,295.96L381.37,293.83L378.26,287.73L373.77,284.04L373.75,282.4L375.07,278.6L376.77,278.14L380.03,275.57L382.82,276.8L384.41,278.6L385.91,278.12L388.54,276.18L389.82,273.57L396.02,271.95L397.11,273.39L399.08,274.39L402.34,273.2L405.28,273.95L408.24,277.68L408.74,280.98L409.56,282.26L414.94,283.75L415.13,285.66L414.31,288.08L410.94,292.33L409.16,296.61L407.41,299.91L408.99,302.33L412.86,306.46L413.68,308.9L413.11,311.42L410.99,312.59L408.4,315.02L407.04,315.14L405.65,313.33Z" class="land" id="AZ-XCI" title="Khojali"/>
    <path d="M635.96,200.5L632.03,201.38L632.33,203.1L631.27,205.59L629.35,207.04L626.17,210.84L625.55,214.81L622.82,216.9L613.7,217.75L608.4,214.92L604.59,211.9L602.54,207.79L598.43,205.14L595.67,204.83L593.6,203.59L587.05,196.94L586.08,195.33L582.24,192.13L576.9,188.99L575.08,189.12L572.96,186.78L571.64,184.12L571.3,181.43L572.86,178.64L576.11,175.5L578.18,174.45L580.5,174.53L589.73,170.43L590.83,166.47L594.88,164.52L595.65,165.33L595.68,169.61L596.56,171.22L599.44,172.49L606.43,176.51L614.22,176.79L616.96,175.05L620.11,175.77L622.52,175.47L626.34,179.99L629.41,181.01L631.53,180.79L633.67,181.89L635.97,186.09L634.28,190.92L634.39,194.5L635.02,199Z" class="land" id="AZ-XIZ" title="Xizi"/>
    <path d="M448.09,306.25L443.43,307.76L439.54,307.81L435.94,308.77L433.37,311.35L428.69,313.62L424.79,313.68L423.88,315.6L426.93,317.14L429.76,316.03L429.94,317.75L427.26,319.21L424.49,319.69L423.13,321.43L424.67,323.19L428.17,320.65L430.64,320.51L430.51,323.13L428.91,324.92L429.92,329.51L427.33,329.91L426.19,332.89L423.86,336.02L425.72,339.69L425.25,340.71L422.9,340.54L420.71,342.43L418.45,342.84L418.5,341.04L413.3,337.63L412.33,336.52L412.75,334.83L410.17,333.56L407.57,331.6L406.23,331.62L405.41,333.11L407.12,336.48L405.67,339.79L404.45,340.43L402.1,339.06L399.04,338.35L400.58,336.01L401.25,333.29L398.73,330.8L394.72,331.82L391.17,330.97L394.89,328.27L395.03,324.29L392.99,321.77L394.74,320.13L397.7,319.99L399.22,319.38L403.79,312.03L405.65,313.33L407.04,315.14L408.4,315.02L410.99,312.59L413.11,311.42L413.68,308.9L412.86,306.46L408.99,302.33L407.41,299.91L409.16,296.61L413.14,294.52L416.09,293.52L417.3,292.08L418.06,288.23L418.76,287.58L422.68,286.91L424.07,287.34L426.3,289.39L430.28,291.49L434.63,293.09L436.68,289.74L441.31,289.31L442.79,289.79L443.1,292.6L444.3,294.15L449.65,297.6L450.83,300.83Z" class="land" id="AZ-XVD" title="Xocavənd"/>
    <path d="M552.98,390.5L549.06,393.55L545.29,395.39L539.33,398.87L536.63,401.66L533.63,403.28L530.35,407.99L530.31,410.07L528.79,411.69L527.61,414.22L524.72,412.78L522.42,411L516.36,409.26L515.33,407.67L510.77,404.78L508.26,401.26L507.29,397.18L507.66,394.35L512.44,394.29L513.54,391.43L515.79,390.19L518.5,390.02L520.29,389.18L523.55,389.07L527.45,388.16L531.27,387.77L536.5,384.69L537.78,381.75L541.43,380.55L544.55,382.49L547.06,385.51L546.94,388.14L547.81,390.06L550.88,389.38Z" class="land" id="AZ-YAR" title="Yardimli"/>
    <path d="M435.43,204.39L436.14,205.19L436.06,208.66L432.52,209.13L430.86,208.03L430.71,204.95L432.13,203.77Z" class="land" id="AZ-YE" title="Yevlax City"/>
    <path d="M443.96,186.07L442.28,193.73L441.14,195.96L440.29,199.46L440.41,202.95L441.57,205.23L441.57,207.96L440.15,210.8L438.41,212.55L436.34,213.47L434.49,218.85L430.24,222L427.16,219.78L424.52,219.74L421.38,224.85L419.05,227.78L416.75,225.21L415.21,220.61L417.45,219.84L418.57,215.25L417.74,214.62L414.81,215.22L413.29,214.98L411.76,211.59L412.29,208.41L412.34,204.56L411.59,203.23L408.77,201.63L407.03,201.98L403.67,204.24L402.53,204.15L402.47,200.84L406.94,194.79L404.59,192.54L400.95,192.04L398.85,190.33L398.9,187.2L400.91,182.83L400.9,175.83L400.2,173.13L400.4,169.3L401.26,166.19L404.44,165.96L409.41,169.23L415.72,172.37L423.78,176.37L428.17,179.08L432.48,181.3L434.16,181.61L438.92,184.3ZM420.29,188.17L416.77,186.37L415.99,186.5L414.65,189.56L416.58,192.23L419.58,193.89L423.06,193.25L424.84,192.22L425.79,190.39L424.89,188.06L422.96,187.19ZM435.43,204.39L432.13,203.77L430.71,204.95L430.86,208.03L432.52,209.13L436.06,208.66L436.14,205.19Z" class="land" id="AZ-YEV" title="Yevlax"/>
    <path d="M410.81,367.81L409.16,368.69L408.1,370.92L404.61,374.37L401.61,378.05L400.87,381.33L398.7,383.04L396.44,383.18L394.31,385.23L392.69,388.1L390,390.79L388.49,393.17L383.23,397.83L382.73,394.19L380.48,390.08L381.57,387.29L381.34,385.05L383.63,378.56L381.77,378.04L381.51,376.4L382.47,375.42L380.27,373.17L379.91,371.21L378.68,370.44L378.43,367.78L377.12,368.34L374.52,366.84L374.09,363.2L375.37,362.38L378.52,363.55L380.34,361.49L382.04,361.91L382.29,365.23L384.34,364.14L385.89,361.82L390.22,359.89L391.28,361.05L391.43,364.31L390.78,366.18L390.83,369.24L391.84,371.36L393.63,371.05L395.01,369.34L396.77,366.04L399.87,363.08L402.75,361.05L406.63,359.01L408.36,360.82L410.69,364.49Z" class="land" id="AZ-ZAN" title="Zangilan"/>
    <path d="M362.6,98.32L366.55,100.14L370.38,97.91L372.69,96.08L375.19,96.11L381.43,92.44L382.94,89.74L383.93,85.54L384.9,83.7L391.46,78.72L392.81,77.98L395.95,74.92L397.36,72.36L397.52,68.18L396.73,66.63L400.33,64.68L401.39,65.83L403.09,73.53L409.37,80.06L412.81,79.65L414.6,81.48L414.77,84.9L418.22,90.11L421.11,90.7L421.98,92.54L420.62,94.43L420.71,95.78L422.49,99.59L424.17,99.31L422.29,103.43L420.69,103.74L418.47,105.34L416.39,105.66L408.11,103.38L403.5,103.32L399.92,104.3L393.67,116.69L390.9,120.18L389.92,120.36L388.51,118.45L378.29,114.6L376,112.95L374.02,110.58L371.88,110.31L371.72,108.8L366.66,106.77L365.47,105.39L365.51,102.77Z" class="land" id="AZ-ZAQ" title="Zaqatala"/>
    <path d="M493.45,262.45L491.98,264.85L490.71,265.11L485.19,264.66L487.07,263.33L486.66,262.12L484.23,260.35L482.92,255.96L480.01,254.49L478.47,257.52L474.66,256.43L467.83,257.65L465.6,258.83L464.02,258.44L462.99,255.38L461.05,252.77L461.45,246.18L461.02,245.43L458.12,245.57L456.84,244.52L457.86,242.02L463.6,236.41L466.04,230.56L468.51,232.43L473.05,234.89L476.94,238.82L478.93,241.76L482.98,239.72L486.79,240.23L490.72,240.34L495.75,239.08L500.94,239.19L500.42,241.59L500.38,247.21L501.74,252.28L501.67,256.09L498.1,260.42L495.72,261.05Z" class="land" id="AZ-ZAR" title="Zardab"/>
  </g>
</svg>