<?xml version="1.0" encoding="UTF-8"?>
<svg xmlns="http://www.w3.org/2000/svg" width="291.6" height="399.63" viewBox="334.2 57.19 291.6 399.63" style="background-color:#000000">
  <!-- Created using SVG Map Generator: dojo.amcharts.com/svg-map-generator -->
  <style>
    .land { fill: #ffffff; stroke: #000000; stroke-width: 0.65; }
  </style>
  <g id="polygons">
    <path d="M518.46,159.87L516.29,166.19L517.06,173.29L518.78,174.49L517.73,177.54L523.2,178.14L526.86,179.57L528.74,184.8L529.04,188.37L535.14,192.76L534.59,194.99L531.26,196.66L527.3,199.13L524.06,196.92L521.52,198.65L516.87,198.17L513.19,199.04L511.44,200.48L508.59,205.01L505.87,202.7L503.51,203.95L501.75,206.46L496.49,204.82L495.79,207.13L500.35,210.21L498.86,214.06L498.51,219.84L494.57,220.99L492.64,218.01L486.76,215.61L485.88,219.74L483.61,219.35L478.26,220.03L475.37,219.35L473.88,214.74L474.49,211.95L472.3,208.29L473.97,205.88L469.32,202.8L467.48,199.13L468.88,194.99L466.95,192L467.13,188.14L464.76,187.76L464.59,185.53L460.9,186.11L458.01,190.07L455.73,187.56L450.83,190.07L451.7,192L448.19,200.39L445.72,200.21L444.8,197.28L446.09,196.28L446.53,191.11L445.71,186.96L442.95,187L442.69,184.61L439.71,182.39L438.31,178.37L439.41,174.11L437.69,168.56L437.77,161.83L440.79,155.91L443.3,155.67L444.09,151.98L442.15,147.18L445.9,143.51L448.55,143.26L448.09,147.18L449.62,150.27L451.72,151.85L453.55,150.38L462.66,153.49L466.07,155.93L469.73,156.13L478.52,158.46L486.77,161.52L490.72,159.45L496.83,159.22L504.38,160.85L507.21,158.84L511.4,160.76Z" class="land" id="BD-H" title="Mymensingh"/>
    <path d="M539.2,238.88L539.68,236.04L536.92,231.97L537.8,225.55L537.4,223.68L532.58,222.76L531.28,221.07L531.02,217.3L534.89,217.49L533.6,214.46L536.08,213.09L533.57,203.81L534.81,200.79L532.6,199.62L531.26,196.66L534.59,194.99L535.14,192.76L529.04,188.37L528.74,184.8L526.86,179.57L523.2,178.14L517.73,177.54L518.78,174.49L517.06,173.29L516.29,166.19L518.46,159.87L525.46,157.93L528.49,158.21L537.2,157.46L541.41,159.64L546.16,159.78L549.5,162.24L557.43,160.47L559.96,163L571.64,158.95L577.01,158.63L581.11,159.41L586.37,158.49L590.36,160.31L590.35,161.45L596.12,164.74L601.12,166.42L603.1,167.78L608.36,169.22L608.1,173.17L611.21,175.2L612.77,177.79L611.98,179.85L608.33,181.33L606.05,181.11L600.11,176.73L596.84,177.4L596.77,181.51L598.96,182.96L600.1,189.14L597.92,192.39L596.26,199.73L595.96,205.15L592.75,203.53L591.14,205.1L592.4,209.78L590.33,210.22L589.38,212.72L587.25,213.66L579.61,213.09L576.9,216.19L578.22,220.79L576.38,227.24L573.93,227.08L572.07,225.49L566.04,222.17L567.19,229.15L565.32,229.21L560.92,226.17L560.06,227.02L559.32,231.89L556.46,233.62L553.86,233.67L550.51,232.21L543.6,231.43L544.73,235.34L543.37,238.26L543.61,240.34Z" class="land" id="BD-G" title="Sylhet"/>
    <path d="M448.55,143.26L445.9,143.51L442.15,147.18L444.09,151.98L443.3,155.67L440.79,155.91L437.77,161.83L437.69,168.56L434.69,168.88L430.87,170.5L425.56,167.58L422.62,168.55L419.08,164.98L415.55,165.96L410.84,161.72L409.66,158.47L407.6,156.52L403.18,154.89L398.47,154.89L396.3,152.88L396.94,151.25L393.73,150.21L388,146.73L387.9,140.54L385.95,136.03L383.42,137.9L379.86,137.58L379.11,139.41L376.09,138.94L373.61,136.48L371.69,137L368.33,135.12L363.61,130.77L364.24,126.45L361.19,125.85L359.44,122.9L356.22,121.37L352.89,118.31L352.35,116.13L347.64,117.02L345.51,118.73L342.62,115.18L343.28,113.37L341.62,108.81L343.17,107.68L345.04,102.49L347.63,98.6L346.12,96.83L347.27,93.33L357.84,88.25L357.8,84.03L361.75,81.68L364.57,78.67L367.9,78.41L365.87,71.73L362.11,71.45L357.85,68.24L358.93,63.94L361.54,59.84L362.93,65.85L366.04,66.23L366.52,68.09L370.65,69.82L370.4,72.02L376.09,74.06L378.52,76.78L379.45,80.42L381.34,79L386.64,82.72L386.49,85.53L388.19,87.27L390.74,83.35L393.6,83.57L395.78,86.77L399.92,86.2L399.65,83.76L397.1,82.44L397.07,79.2L392.43,77.06L394.61,73.92L403.88,76.37L404.02,80.74L406.46,81.35L405.47,85.94L407.14,89.03L406.23,90.98L407.43,93.56L411.73,94.91L413.66,98.92L417.76,100.76L419.23,102.57L424.52,102.7L426.96,103.52L429.6,102.72L430.97,105.31L433.86,104.96L434.19,100.27L437.1,97.13L435.35,94.62L435.29,91.63L436.68,88.92L440.11,88.2L439.63,92.33L443.7,92.65L445.92,96.1L445.85,97.61L448.32,102.67L449.74,103.09L449.54,107.67L451.72,108.8L449.05,112.17L448.56,116.43L449.39,119.11L448.67,122.05L452.04,129.14L450.19,139.93Z" class="land" id="BD-F" title="Rangpur"/>
    <path d="M437.69,168.56L439.41,174.11L438.31,178.37L439.71,182.39L442.69,184.61L442.95,187L445.71,186.96L446.53,191.11L446.09,196.28L444.8,197.28L445.72,200.21L443.47,202.42L443.97,205.19L441.91,208.72L444.47,213.68L445.66,219.8L445.32,222.95L446.26,227.26L447.68,229.61L447.86,233.82L444.69,237.06L440.6,239.19L440.08,243.49L443.01,250.03L440.92,251.56L433.99,251.8L428.74,251.09L420.96,245.01L420.26,245.19L416.79,241.92L412.9,240.41L411.94,242.9L410.05,243.49L401.48,239.86L398.26,230.73L393.83,229.97L390.11,231.7L384.53,229.37L381.2,224.71L381.48,220.79L380.58,218.81L377.55,217.58L374.87,218.19L363.73,213.42L360.26,213.75L356.64,213L353.09,209.26L348.48,207.78L342.57,201.82L339.03,195.84L336.85,193.87L340.17,190.17L340.33,188.25L345.26,181.46L346.67,178.75L344.83,176.92L347.25,174.44L350.2,174.07L353.35,178.95L354.88,180.09L358.51,174.61L359.81,175.53L361.59,171.75L364.06,168.9L363.38,162.76L364.6,161.69L363.57,158.01L365.53,156.85L370.54,158.16L374.09,157.34L381.17,157.72L382.37,159.26L386.22,159.41L387.26,157.33L390.04,159.05L394.37,158.84L394.83,153.94L396.3,152.88L398.47,154.89L403.18,154.89L407.6,156.52L409.66,158.47L410.84,161.72L415.55,165.96L419.08,164.98L422.62,168.55L425.56,167.58L430.87,170.5L434.69,168.88Z" class="land" id="BD-E" title="Rajshahi"/>
    <path d="M429.05,375.51L428.58,378.25L425.36,378.16L425.84,376.17L423.49,374.17L424.55,372.8L424.11,368.76L426.52,369.28ZM425.64,383.48L426.73,385.93L422.04,390.68L419.69,388.83L418.94,385.02L421.06,380.12L419.21,370.53L421.58,366.9L421.12,364.47L422.61,363.82L422.84,362L424.39,361.41L427.35,366.29L423.72,369.03L424.18,372.84L423.22,374.27L425.67,376.57L425.05,378.35L425.77,379.55ZM406.54,388.62L404.23,390.66L400.3,386.29L402.84,385.71ZM433.67,388.16L434.91,390.7L432.52,391.11L430.34,387.48L430.79,382.06L434.67,385.35ZM414.6,364.5L415.33,362.18L421.21,366.3L417.48,372.58L415.32,368.15ZM442.35,379.53L443.29,382.24L442.04,383.32L438.81,382.95L437.98,379.76L440.14,375.95L442.24,376.88ZM406.2,374.97L408.07,372.49L409.62,372.09L412.45,373.19L410.08,374.73L410.46,376.39L412.38,376.89L414.43,381.76L412.85,383.98L409.51,383.26L410.52,377.64L407.42,377.21ZM451.38,343.12L450.81,344.93L452.15,348.16L449.72,352.84L448.86,356.48L451.39,359.68L451.88,364.07L449.46,368.01L446.76,367.43L444.13,363.36L441.08,363.65L440.51,370.04L439.11,373.05L439.71,375.14L437.94,378.64L436.01,375.6L432.44,376.05L431.22,374.75L432.78,368.69L434.79,363.71L431.55,358.74L433.77,357.23L433.99,353.95L436.18,350.79L435.82,345.1L434.08,341.67L435.61,338.88L437.03,338.11L437.08,335.97L441.41,335.45L445.33,338.07L446.61,339.88L448.92,340.08ZM416.12,358L416.8,359.72L414.26,362.3L413.18,365.36L410.91,365.67L410.68,362.61L412.65,361.61L411.5,359.05L412.72,357.88ZM410.37,387.35L409.69,383.67L414.98,385.59L413.52,388.01ZM438.17,384L440.59,385.94L438.66,388.46L435.01,387.78L435.31,385.33L431.65,381.84L431.19,380.41L432.86,376.47L435.79,375.86L437.28,378.1L436.05,381.29ZM381.2,224.71L384.53,229.37L390.11,231.7L393.83,229.97L398.26,230.73L401.48,239.86L410.05,243.49L411.94,242.9L412.9,240.41L416.79,241.92L420.26,245.19L420.1,247.82L418.48,250.67L416.79,257.29L419.34,261.26L422.88,260.6L424.85,263.26L427.7,264.06L426.64,266.02L428.48,267.35L430.27,271.94L434.85,274.75L434.09,280.07L435.22,285.1L437.06,287.69L435.77,290.22L439.51,289.92L439.28,293.92L442.13,294.88L441.25,297.83L444.12,305.81L447.67,308.15L450.19,313.55L449.7,316.27L454.45,316.08L455.14,317.88L455.41,320.52L453.19,320.92L453.11,326.12L454.41,329.56L453.86,332.16L456.66,333.17L455.97,335.96L452.22,340.59L451.67,342.98L449.24,339.77L446.85,339.69L445.87,337.88L441.43,335.22L436.77,335.35L436.69,337.84L435.34,338.46L434.23,340.91L432.86,335.59L429.54,330.37L427.45,328.9L425.59,330.63L420.99,331.77L423.38,335.82L422.44,337.68L423.16,340.63L418.55,340.51L417.63,337.97L414.03,339.8L413.36,342.15L418.71,341.43L421.04,349.01L423.14,350.91L422.89,355.04L419.66,354.28L418.32,355.44L419.32,355.85L418.64,356.8L418.48,357.52L412.72,357.34L411.24,358.93L412.42,361.49L410.3,362.44L410.83,366.4L412.66,368.41L410.18,372.05L407.55,370.38L407.57,372.62L405.61,375.6L406.49,377.74L409.97,378.06L407.94,385.21L403.67,384.55L403.72,380.65L402.46,378.43L403.53,376.17L403.1,370.95L400.94,367.85L400.49,365.78L402.22,362.26L402.27,359.32L400.33,357.11L399.22,352.59L396.72,350.56L397.73,343.73L395.3,335.72L394,334.9L393.41,329.35L395.1,326.35L392.65,323.23L392.73,321.38L395.04,319.46L395.61,316.24L394.28,313.92L392.03,313.92L391.17,309.04L389.09,308.74L390.18,303.11L389.59,299.38L393.38,296.49L394.64,292.22L392.28,290.39L386.18,291.28L380.43,288.87L379.02,285.94L380.83,284.59L383.19,276.16L384.76,276.26L385.22,272.67L381.81,273.61L376.67,268.8L375.79,265.09L373.17,265.76L370.84,257.94L371.83,253.03L373.14,251.09L372.5,247.48L376.63,247.65L379.31,244.64L381.77,243.1L381.48,234.8L379.15,227.63ZM414.17,392.26L413.52,394.85L410.62,395.3L411.33,392.12ZM422.89,337.44L423.82,335.67L422.38,333.9L428.02,329.56L432.24,335.35L433.56,342.89L435.34,346.22L435.95,349.2L433.26,353.8L433.49,356.15L430.71,358.85L433.4,363.93L430.26,372.66L428.85,371.13L430.34,368.3L426.78,356.94L427.9,354.69L424.2,348.55L424.98,347.46L424.08,340.42ZM450.59,374.79L451.44,378.14L449,381.99L446.11,382.62L443.55,381.78L442.52,377.49L440.43,371.6L441.33,363.69L443.93,363.39L445.09,366.42L450.27,370.52ZM413.8,388.19L414.84,391.71L411.35,391.76L411.09,388.98ZM418.23,360.23L418.76,357.84L418.98,356.57L419.51,356.05L419.38,355.6L418.75,355.42L419.92,354.5L425.67,355.89L425.7,359.22L422.55,361.77L422.48,363.62L421.04,364.23L420.6,365.67L417.88,363.57ZM417.8,379.86L414.83,383.14L413.58,377.75L411.98,376.07L410.46,375.38L412.53,374.11L412.42,372.41L410.99,371.68L413.1,368.45L414.58,368.33L416.42,372.42L418.3,374.75L419.75,378.8Z" class="land" id="BD-D" title="Khulna"/>
    <path d="M531.26,196.66L532.6,199.62L534.81,200.79L533.57,203.81L536.08,213.09L533.6,214.46L534.89,217.49L531.02,217.3L531.28,221.07L529.06,222.68L525.5,222.75L519.41,228.04L523.21,231.32L523.12,233.96L519.43,236.47L518.68,241.06L515.18,247.48L513.17,248.55L506.97,247.89L505.29,249.37L506.02,252.42L503.76,255.15L504.65,259.23L502.79,261.46L498.66,260.72L497.65,264.35L499.35,264.65L502.68,272.06L501.06,273.09L498.58,272.13L495.41,273.21L492.1,280.07L494.6,283.51L494.26,285.6L496.67,291.16L496.24,291.92L496.14,292.03L493.84,299.55L491.44,299.34L488.73,303.95L485.2,305.04L485.03,303.02L481.86,301.97L478.7,302.11L478.13,303.67L479,307.4L474.86,308.2L472.91,306.43L473.43,302.53L468.97,301.22L466.75,305.43L465,305.53L462.63,310.16L461.15,310.5L460.08,314.65L456.78,315.67L455.14,317.88L454.45,316.08L449.7,316.27L450.19,313.55L447.67,308.15L444.12,305.81L441.25,297.83L442.13,294.88L439.28,293.92L439.51,289.92L435.77,290.22L437.06,287.69L435.22,285.1L434.09,280.07L434.85,274.75L430.27,271.94L428.48,267.35L426.64,266.02L427.7,264.06L424.85,263.26L422.88,260.6L419.34,261.26L416.79,257.29L418.48,250.67L420.1,247.82L420.26,245.19L420.96,245.01L428.74,251.09L433.99,251.8L440.92,251.56L443.01,250.03L440.08,243.49L440.6,239.19L444.69,237.06L447.86,233.82L447.68,229.61L446.26,227.26L445.32,222.95L445.66,219.8L444.47,213.68L441.91,208.72L443.97,205.19L443.47,202.42L445.72,200.21L448.19,200.39L451.7,192L450.83,190.07L455.73,187.56L458.01,190.07L460.9,186.11L464.59,185.53L464.76,187.76L467.13,188.14L466.95,192L468.88,194.99L467.48,199.13L469.32,202.8L473.97,205.88L472.3,208.29L474.49,211.95L473.88,214.74L475.37,219.35L478.26,220.03L483.61,219.35L485.88,219.74L486.76,215.61L492.64,218.01L494.57,220.99L498.51,219.84L498.86,214.06L500.35,210.21L495.79,207.13L496.49,204.82L501.75,206.46L503.51,203.95L505.87,202.7L508.59,205.01L511.44,200.48L513.19,199.04L516.87,198.17L521.52,198.65L524.06,196.92L527.3,199.13Z" class="land" id="BD-C" title="Dhaka"/>
    <path d="M521.73,366.69L522.06,368.7L519.69,370.78L518.81,368.81L519.88,366.48ZM496.67,291.16L494.26,285.6L494.6,283.51L492.1,280.07L495.41,273.21L498.58,272.13L501.06,273.09L502.68,272.06L499.35,264.65L497.65,264.35L498.66,260.72L502.79,261.46L504.65,259.23L503.76,255.15L506.02,252.42L505.29,249.37L506.97,247.89L513.17,248.55L515.18,247.48L518.68,241.06L519.43,236.47L523.12,233.96L523.21,231.32L519.41,228.04L525.5,222.75L529.06,222.68L531.28,221.07L532.58,222.76L537.4,223.68L537.8,225.55L536.92,231.97L539.68,236.04L539.2,238.88L536.73,242.24L537.35,243.75L534.65,245.54L536.21,249.56L533.55,255.57L530.24,256.29L530.11,259.52L531.21,261.8L530.62,265.72L532.6,267.93L532.93,270.71L535.97,273.02L536.35,275.78L538.8,281.54L538.64,284.31L540.36,288.8L540.67,295.22L543.58,301.47L546.3,301.79L544.43,295.56L544.69,290.83L546.06,288.76L548.61,288.74L550.23,291.58L551.64,297.25L554.42,303.49L554.09,306.09L556.21,308.2L558.41,308.42L560.73,306.63L564.94,306.46L566.51,305.07L568.3,301.17L571.02,300.52L569.03,290.43L567.72,288.13L572.42,279.01L578.21,274.4L580.27,273.51L579.31,270.98L579.57,267.05L578.25,260.15L580.78,256.94L583.21,261.74L587.13,262.02L591.03,256.75L595.15,259.25L598.32,257.04L599.89,259.32L599.06,263.62L601.31,268.67L601.64,272.99L602.71,276.93L605.33,282.35L604.68,284.18L606.87,289.31L603.96,289.89L604.6,295.08L604.25,298.67L605.96,301.86L604.84,310.08L609.26,312.84L609.98,317.5L611.34,321.58L614.14,327.31L615.73,337.67L616.51,346.21L617.86,350.92L619.24,364.16L616.81,363.65L618.93,368.38L619.39,376.15L620.27,379.84L619.39,382.97L618.7,392.1L619.82,405.51L621.59,414.61L623.15,419.01L618.38,422.13L616.16,414.29L612.49,415.51L608.45,414.3L607.71,410.03L605.66,407.2L602.76,408.25L601.45,410.69L598.37,410.32L597.5,414.62L593.98,416.92L595.82,423.02L593.41,426.57L595.74,431.32L598.01,434.04L597.22,435.91L598.5,443.75L600.19,445.52L602.85,454.16L601.02,453.94L598.78,448.73L595.77,444.11L593.11,436.87L584.82,426.4L584.72,418.49L582.84,413.94L578.77,408.36L581.04,406.1L580.29,404.62L575.96,405.01L572.87,403.81L574.41,398.94L574.25,395.6L572.89,393.65L576.26,384.32L576.42,379.55L574.76,373.72L573.3,366.38L571.45,363.24L570.36,359.28L567.36,354.16L567.58,352.6L565.84,344.9L563.9,339.86L561.42,336.13L557.27,331.88L554.1,327.63L548.98,324.4L547.91,320.24L543.41,322.51L538.74,322.99L535.37,326.85L537.17,328.58L535.35,331.6L536.56,334.58L530.63,337.74L527.35,336.41L524.95,339.08L520.35,333.73L510.94,327.78L506.73,320.53L507.04,317.22L501.27,307.19L499.67,307.93L498.03,304.26L498.24,299.64L499.1,297.49L498.15,291ZM543.48,327.02L545.12,328.37L544.29,331.96L540.91,330.29L539.29,328.26L538.54,325.1L540.19,324.09ZM517.76,336.08L519.56,338.7L517.17,339.6L514.85,338.9L510.55,334.43L515.58,334.21ZM552.97,337.28L555.42,342.35L555.18,345.55L551.57,346.71L549.74,345.89L546.4,339.07L545.32,333.97L547.97,331.29ZM572.42,389.27L572.66,383.71L571.92,380.37L574.05,377.25L575.38,381.2ZM529.27,338.41L526,341.69L525.44,339.64L527.53,336.69ZM520.46,353.18L519.91,358.19L518.7,361.19L515.05,367.51L513.48,365.98L518.41,353.31ZM519.88,342.04L523.29,342.87L522.43,347.04L520.54,347.48ZM530.64,350.77L532.16,353.29L532.31,356.11L530.66,360.99L528.75,363.57L523.95,367.09L521.26,364.69L523.58,359.73L524.58,355.82L524.36,350.37L524.71,343.89L528.4,345.6Z" class="land" id="BD-B" title="Chittagong"/>
    <path d="M495.08,306.98L495.51,310.08L492.14,312.42L489.86,307.79L486.96,306.45L491.82,302.21L493.06,302.39ZM494.6,368.77L489.84,375.02L488.54,368.79L489.16,366.26L494.41,360.01L495.97,359.72L496.18,363.79ZM499.19,336.15L497.52,339.46L495.81,336.72ZM498.27,339.73L498.24,344.58L495.28,343.44ZM483.55,372.66L480.81,377.73L481.99,380.8L478.71,382.33L477.79,379.97L480.92,373.38ZM462.47,373.66L459.9,373.28L458.18,369.87L460.68,368.79L461.1,363.66L463.51,361.54L460.53,359.26L463.89,357.49L465.95,351.76L465.02,349.29L469.8,343.73L471.1,339.4L470.37,337.96L471.65,333.9L469.94,330.7L471.94,329.91L476.25,329.96L477.04,328.2L479.08,328.32L479.75,329.37L480.26,329.32L482.21,325.88L487.43,322.28L489.98,325.66L490.24,333.01L486.4,334.06L487.14,336.96L485.54,338.25L485.39,338.94L486.11,340.76L480.86,339.29L480.57,340.71L477.55,341.1L477.32,342.88L475.13,345.58L474.58,349.21L473.21,349.09L471.19,350.45L471.79,357.03L473.11,359.48L471.58,363.81L468.53,363.92L464.33,368.15ZM493.66,374.62L496.09,374.1L494.2,379.88L490.7,379.43L490.24,376.91L491.58,374.98ZM476.93,373.24L477.47,375.3L475.23,380.44L474.85,382.73L471,385.41L465.86,384.34L464.32,382.95L467.42,375.11L469.45,373.93L472.02,373.3L473.66,374.81L475.02,375.65L475.75,373.6ZM451.67,342.98L452.22,340.59L455.97,335.96L456.66,333.17L453.86,332.16L454.41,329.56L453.11,326.12L453.19,320.92L455.41,320.52L455.14,317.88L456.78,315.67L460.08,314.65L461.15,310.5L462.63,310.16L465,305.53L466.75,305.43L468.97,301.22L473.43,302.53L472.91,306.43L474.86,308.2L479,307.4L478.13,303.67L478.7,302.11L481.86,301.97L485.03,303.02L485.2,305.04L490.22,309.45L491.74,313.1L497.71,314.22L500.79,317.7L498.77,318.63L502.33,329.46L505.3,331.84L506.34,336L512.22,343.36L510.62,347.81L510.67,354.69L509.58,362.15L507.29,366.62L501.77,371.77L497.8,372.64L495.68,369.18L497.1,364.77L497.37,359.81L498.92,357.91L500.58,353.84L501,350.1L500.39,347.61L500.02,336.6L499.07,335.16L495.84,334.36L491.79,331.07L494.35,328.79L493.84,325.6L490.83,325.1L488.78,320.63L485.85,321.37L482.59,323.61L482.07,325.75L479.97,329.24L479.24,328.17L477,327.91L476.17,329.77L471.95,329.63L469.76,330.5L470.62,335.08L470.03,337.81L470.79,339.25L469.55,343.53L467.61,345.06L464.47,349.31L465.35,351.83L463.22,357.65L460.12,358.89L460.85,362.57L459.79,364.91L460.41,366.79L457.27,370.26L458.32,374.62L455.14,375.2L454.81,372.18L452.89,367.51L453.55,363.1L451.53,357.24L450.93,353.61L454.21,345.98L451.08,344.82ZM497.96,358.1L494.6,359.59L495.71,356.17ZM488.36,370.21L489.12,375.5L487.34,377.57L481.71,379.67L481.39,377.59L483.97,372.79L484.5,370.26L487.52,368.59ZM465.08,379.95L463.49,381.42L460.44,379.87L460.9,375.65L463.25,374.29L464.62,369.26L468.72,364.61L472.25,364.24L473.71,359.62L472.48,357.19L471.7,351.83L472.34,349.82L474.63,349.8L475.83,345.12L477.58,343.57L478.01,341.34L480.51,341.23L482.04,339.99L486.45,341.15L485.55,338.71L487.73,337L486.81,334.19L490.66,333.57L494.23,336.07L496.17,340.55L495.08,343.87L497.67,347.15L495.95,353.65L491.91,358.08L490.97,360.46L485.58,367.09L482.97,366.35L479.54,368.84L477.88,373.36L476.61,372.58L475.28,373.69L474.81,375.16L473.14,373.56L471.63,372.93L471.49,373.28L468.32,373.46L466.18,376.96ZM499.13,373.93L502.09,373.87L498.83,379.2L496.61,379.51Z" class="land" id="BD-A" title="Barisal"/>
  </g>
</svg>