<?xml version="1.0" encoding="UTF-8"?>
<svg xmlns="http://www.w3.org/2000/svg" width="539.97" height="399.63" viewBox="210.01 57.19 539.97 399.63" style="background-color:#000000">
  <!-- Created using SVG Map Generator: dojo.amcharts.com/svg-map-generator -->
  <style>
    .land { fill: #ffffff; stroke: #000000; stroke-width: 0.65; }
  </style>
  <g id="polygons">
    <path d="M586.6,293.05L588.5,294.43L591.73,295.67L592.28,297.95L593.74,299.09L595.14,298.86L597.9,299.87L598.69,301.02L598.45,302.68L601.77,302.29L601.78,305.31L600.25,307.93L601.14,308.82L602.6,308.19L602.83,311.05L603.42,312.58L605.93,313.16L607.38,312.96L608.24,310.71L609.69,310.7L611.36,313.15L610.82,315.55L607.06,314.34L606.58,318.39L605.23,318.63L604.23,319.8L604.03,321.3L606.56,324.29L608.35,324.52L608.41,326.52L606.94,327.79L607.69,328.53L610.32,328.49L611.11,327.79L612.95,329.05L615.1,329.48L614.56,332.54L613.42,334.43L611.88,335.15L612.6,336.79L611.55,338.05L609.17,337.36L608.41,339.94L608.63,341.53L607.42,342.59L607.28,343.71L605.62,344.91L605.05,345.96L602.5,347.12L600.92,345.27L598.25,345.55L597.22,345.2L596.04,343.54L594.28,341.93L592.7,342.71L593.05,343.91L590.68,345.33L589.03,344.66L591.2,341.52L590.18,340.66L588.49,340.47L588.03,342.04L585.62,343.21L584.51,342.8L583.98,341.38L583.9,338.95L582.32,337.15L582.58,335.77L581.24,334.09L582.18,332.24L583.98,331.24L582.23,329.38L580.72,328.83L579.65,329.38L577.82,326.77L577.88,325.78L578.94,323.99L580.5,322.9L582.55,322.74L582.77,318.95L582.29,315.59L580.63,315.52L579.52,316.32L578.15,314.7L576.31,314.56L576.31,311.79L574.07,310.96L573.68,309.4L575.86,309.4L577.14,308.88L577.77,306.87L577.34,306.32L578.2,304.46L580.16,304.17L579.37,301.06L579.83,299.47L581.65,299.05L583.05,299.79L583.19,300.8L584.74,302.88L587.13,301.87L588.99,300.09L587.94,298.59L587.72,296.68L585.19,295.78L585,293.7Z" class="land" id="CN-AH" title="Anhui"/>
    <path d="M590.36,238.57L588.61,238.36L586.31,240.36L585.4,239.19L583.21,238.79L581.19,239.69L580.6,238.69L578.8,238.08L579.08,235.14L578.49,233.84L579.94,232.78L581.94,232.54L582.99,231.15L581.33,229.06L581.21,227.94L582.54,227.07L584.23,227.1L585.4,225.12L587.35,225.08L587.26,222.94L589.2,222.92L592.06,226.2L594.78,226.65L593.81,228.45L594.01,229.85L595.43,231.55L593.8,233.2L590.17,233.82L590.18,235.25L591.36,235.84L591.19,237.6Z" class="land" id="CN-BJ" title="Beijing"/>
    <path d="M517.99,318.47L521.22,320.69L522.5,321L524.6,322.67L524.72,323.55L527.27,323.4L532.18,326.86L532.63,329.36L531.63,332.9L530.04,332L528.99,332.4L527.85,333.76L525.25,335.31L523.41,335.63L523.22,334.46L521.85,334.74L520.66,336L519.5,335.08L516.97,337.09L518.47,338.53L518.01,342.34L519.4,344.12L521.36,345.1L521.01,346.34L521.98,347.77L524.23,349.85L524.99,350.6L524.26,352.28L524.6,356.02L522.15,359.39L520.11,359.03L520.24,356.69L518.89,357.74L518.47,355.69L516.45,354.29L516.85,353.15L516.23,351.36L514.05,350.22L512.13,351.45L511.75,349.68L508.32,349.22L507.95,350.97L508.12,352.5L506.82,353.34L505.85,352.16L503.84,352.9L503.2,355.11L500.56,354.31L499.29,355.75L498.91,355.48L497.89,352.11L495.16,352.05L494.28,351.66L493.55,350.04L493.34,348.18L491.26,348.16L491.06,347L489.81,345.66L490.89,344.23L492.21,343.72L493.63,342.49L493.3,340.61L491.97,339.28L493.63,338.44L494.5,336.65L497.25,337.81L498.09,339.15L500.93,337.94L502.55,340.73L504.91,340.66L506.75,338.74L508.08,336.02L509.18,334.56L508.43,333.5L509.2,332.51L512.36,332.85L512.99,331.08L515.06,327.48L518.11,323.1L515.78,320.95L517.38,319.93Z" class="land" id="CN-CQ" title="Chongqing"/>
    <path d="M593.74,403.52L592.48,402.66L591.41,399.06L591.3,396.4L589.94,394.67L590.3,393.4L588.57,393.67L586.62,392.21L585.06,391.6L583.96,391.72L582.3,390.92L582.08,388.24L583.44,387.16L583.27,385.82L583.82,383.62L584.9,382.78L584.47,381.96L586.53,380.93L587.59,379.51L586.82,377.98L588.9,376.03L588.05,375.08L588.13,372.39L589.4,370.96L592.48,369.86L593.53,368.14L592.22,364.43L593.84,363.82L596.63,361.09L598.46,362.92L599.55,361.5L601.9,360.43L603.83,360.02L604.55,358.12L607,357.92L607.77,359.79L607.06,360.46L608.63,363.81L608.71,366.27L609.63,365.95L611.67,366.69L613.85,364.37L615.04,365L615.57,366.6L617.19,367.86L618.31,367.1L620.44,366.59L621.29,366.93L621.81,368.46L622.08,369.53L620.59,369.75L620.31,371.7L619.35,371.52L618.7,372.56L619.67,373.53L617.92,374.49L616.88,373.71L615.33,373.56L617.2,376.97L614.04,379.94L615.81,380.58L615.03,381.61L614.62,385.87L612.62,385.08L610.85,386.51L612.73,387.71L612.06,388.5L609.37,388.12L608.22,389.46L609.41,390.45L607.32,391.74L607.67,392.49L606.82,394.07L604.79,393.71L602.54,394.84L602.05,397.21L600.36,398.33L600.02,399.55L598.17,399.75L597.67,400.91L594.45,402.47Z" class="land" id="CN-FJ" title="Fujian"/>
    <path d="M567.89,413.73L566.27,414.1L564.92,414.56L563.77,411.95L561.94,414.84L562.48,415.87L561.54,418.21L560.41,418.97L558.82,419.31L558.1,418.21L556.51,420.24L555.35,419.37L553.77,421.08L552.14,420.5L551.97,421.36L550.75,421.68L549.49,420.76L546.54,422.09L544.91,423.26L543.61,423L542.21,423.66L540.41,423.91L538.72,424.66L537.72,424.54L536.49,426.13L534.6,426.46L534.74,427.78L532.74,428.79L532.68,429.57L534.35,429.95L535.62,433.15L534.79,434.53L533.63,435.19L532.11,435.33L530.86,434.85L530.11,433.01L528.72,431.69L528.96,431L528.05,429.2L528.97,426.21L529.23,423.91L528.78,422.91L530.09,422.1L530.79,420.01L533.09,420.03L534.04,418.99L534.24,417.29L535.38,417.48L537.3,416.08L537.15,414.68L537.65,413.37L540.15,412.7L541.56,411.79L542.78,410.44L543.41,409.06L542.77,406.69L543.92,403.41L545.04,403.28L545.31,401.61L546.69,401.66L547.11,400.38L547.27,397.87L548.92,396.48L547.75,393.85L548.58,392.8L549.9,391.11L549.7,390.11L550.66,388.75L554.12,389.03L554.54,390.2L555.91,391.29L557.18,390.97L556.83,388.78L555.91,387.08L557.26,386.95L559.16,385.32L561,386.81L562.18,387.27L565.55,385.88L566.21,386.79L567.92,387.49L569.24,387.23L570.53,386.26L572.35,387.96L571.53,389.55L569.32,390.76L568.76,392.72L567.39,393.44L568.98,394.26L569.63,395.23L572.38,394.02L573.46,394.53L574.11,393.66L575.59,393.54L577.08,392.66L578.78,392.62L579.59,393.93L580.87,394.72L581.91,394.48L581.21,392.74L582.3,390.92L583.96,391.72L585.06,391.6L586.62,392.21L588.57,393.67L590.3,393.4L589.94,394.67L591.3,396.4L591.41,399.06L592.48,402.66L593.74,403.52L592.67,403.26L591.1,404.14L590.86,405.31L589.93,406.16L589.05,407.85L588.02,408.26L587.71,410.01L585.86,409.83L584.57,410.96L583.31,410.99L581.76,411.88L581.26,410.89L580.2,410.65L579.15,411.74L578.31,411.44L575.1,411.42L573.61,413.28L572.37,413.14L571.97,411.38L570.28,412.76Z" class="land" id="CN-GD" title="Guangdong"/>
    <path d="M419.03,201.86L424.76,214.99L422.77,217.33L425.92,221.54L429.06,223.64L429.38,224.54L428.39,228.13L431.81,227.94L433.74,225.51L436.46,224.22L439.85,224.4L440.81,223.43L444.45,224L445.61,225.87L445.72,227.26L443.8,229.6L442.81,231.72L440.3,233.41L438.85,235.55L441.57,235.44L443.74,237.1L445.81,237.7L446.42,239.61L447.99,240.97L451.03,240.98L451.15,244.13L452.5,245.94L453.9,245.97L455.22,247.9L457.75,249.25L459.14,249.22L461.8,246.62L459.48,244.31L462.85,243.54L465.07,242.6L466.4,243.42L469.84,244.31L472.98,241.56L477.14,240.29L479.36,240.75L479.02,242.11L480.36,244.42L480.08,246.12L478.84,246.68L477.48,249.44L473.43,252.09L474.58,254.9L472.99,255.62L473.41,258.31L475.67,258.99L477.62,261.14L480.12,263.16L481,262.93L484.36,263.15L483.75,264.63L484.44,265.51L485.97,265.23L487.05,267.12L488.77,267.77L488.93,268.85L490.18,269.9L489.05,270.75L491.42,275.32L491.71,276.9L490.13,278.32L490.18,279.66L491.57,281.46L492.91,281.26L494.21,283.13L496.2,283.59L497.56,284.56L499.19,286.71L500.39,285.39L499.87,281.79L500.76,281.25L503.13,281.58L504.1,280.58L503.98,277.2L503.23,276L500.45,275.31L500.5,273.32L499.93,272.41L500.54,270.6L501.73,269.62L501.06,268.27L502.85,265.93L504.87,266.42L506.16,266L507.14,266.73L507.42,268.55L508.96,268.66L509.46,269.52L512.59,270.25L513.04,271.39L514.79,272.42L516.5,272.47L519.69,274.5L519.13,275.66L519.68,277L519.16,279.05L517.84,279.73L518.05,282.31L518.9,283.32L518.78,285.57L517.75,286.18L515,285.91L513.12,286.63L511.6,285.99L510.43,286.61L511.77,289.69L509.38,290.16L507.3,289.89L506.48,290.48L504.03,288.21L500.8,288.29L500.3,289.84L500.98,291.18L498.73,293.68L500.99,294.64L502.27,295.87L501.17,298.32L500.38,298.7L499.66,300.92L500.31,301.43L499.76,303.81L497.63,304.57L495.64,303.92L494.63,305.13L494.22,307.57L495.28,307.8L495.28,310.34L492.84,311.53L491.62,311.23L490.59,311.6L491.26,313.01L488.29,314.52L487.64,313.97L484.09,313.79L481.18,312.05L481.06,310.91L481.84,309.14L480.87,306.19L478.94,303.11L476.52,303.4L472.86,302.51L471.14,301.81L470.76,297.94L469.37,296.73L467.48,297.01L464.81,298.87L464.46,300.1L462.71,300.33L464.02,303.82L465.26,305.45L463.37,305.92L462.01,307.5L459.98,309.15L459.08,307.62L460.56,305.65L459.12,304.57L457.86,305.07L457.51,303.27L454.46,303.17L453.7,301.5L452.26,300.84L450.32,297.92L451.46,295.82L454.62,296.66L455.16,297.2L457.75,297.88L458.8,299.01L460.64,298.69L461.65,296.79L462.68,296.03L462.43,294.44L461.09,294.08L458.64,292.37L460.35,291.96L460.36,290.5L462.21,289.05L463.53,288.6L464.45,286.68L463.56,285.15L464.83,284.62L465.77,283.18L467.39,283.58L467.7,282.59L467.11,280.63L467.94,279.98L469.38,280.26L469.24,277.33L470.02,275.72L468.37,274.78L467.37,271.83L467.41,270.18L465.06,267.9L466.24,265.81L462.9,262.99L461.2,262.42L461.75,261.33L459.92,260.25L458.95,261.83L453.2,257.24L449.13,255.48L448.81,253.88L446.52,253.07L445.52,251.55L444.33,252.07L444.34,253.51L440.81,251.77L438.79,249.89L438.04,248.63L433.3,244.52L431.23,246.21L429.5,245.14L426.92,247.75L426.29,247.06L420.45,243.59L417.65,243.18L417.05,246.82L417.35,250.05L417.07,252.86L415.34,254.46L413.47,255.51L411.7,255.51L409.73,254.26L404.96,254.46L402.67,253.32L398.94,253.21L396.03,253.53L393.75,249.77L389.91,250.29L388.35,248.63L384.92,249.15L383.47,247.38L381.81,246.54L377.28,245L378.12,244.23L382.05,243.54L381.99,240.32L381.39,239.27L380.42,235.51L381.77,232.96L381.73,228.44L385.57,228.73L388.07,227.11L389.53,224.08L391.24,221.62L394.86,218.1L397.16,215.42L400.66,213.58L404.66,212.7L405.95,213.08L408.6,212.23L409.53,203.91L411.88,202.51L414.58,202.21L416.83,202.57Z" class="land" id="CN-GS" title="Gansu"/>
    <path d="M526.41,380.3L527.79,380.15L529.42,381.4L530.12,379.18L531.68,378.96L531.52,380.17L533.07,380.37L534.22,379.67L536.28,377.34L537.58,378.17L539.64,377.47L542.17,378.14L541.42,380.54L543.5,382.83L542.32,383.38L542.62,384.44L542.25,386.01L540.52,387.55L539.2,389.81L539.63,391.04L542,388.89L543.47,389.32L543.84,392.22L543.48,393.46L544.58,393.77L545.82,392.36L548.58,392.8L547.75,393.85L548.92,396.48L547.27,397.87L547.11,400.38L546.69,401.66L545.31,401.61L545.04,403.28L543.92,403.41L542.77,406.69L543.41,409.06L542.78,410.44L541.56,411.79L540.15,412.7L537.65,413.37L537.15,414.68L537.3,416.08L535.38,417.48L534.24,417.29L534.04,418.99L533.09,420.03L530.79,420.01L530.09,422.1L528.78,422.91L527.28,422.89L526.17,423.95L523.61,424.49L523.64,423.42L522.68,422.49L518.47,422.01L517.69,423.01L516.65,422.64L513.1,423.22L512.25,422.13L509.36,422.74L508.84,422.03L506.8,421.64L505.51,420.67L505.28,419.52L503.12,419.13L502.26,417.97L502.07,416.27L500.91,414.65L501.34,413.2L502.44,413.3L502.78,411.16L501.25,410.06L498.47,410.67L497.75,409.52L496.05,409.5L494.9,410.13L493.7,408.82L492.29,408.73L492,407.59L491.88,407.07L494.48,404.49L495.88,404.74L497.23,403.98L497.68,401.55L496.85,399.59L496.02,398.63L494.62,399.6L491.51,399.65L489.31,398.05L487.7,395.64L486.78,395.96L485.19,395.46L483.91,395.95L482.76,393.62L483.19,392.86L484.94,393.92L486.19,392.75L487.59,392.24L487.93,391.07L489.11,390.31L491,390.91L491.72,392.13L494.35,393.13L496.49,393.22L497.54,392.5L497.32,390.64L498.66,390.48L501.13,389.4L501.75,388.62L503.79,388.47L504.64,387.94L504.41,386.08L506.76,384.89L508.4,386.48L508.88,388.21L510.54,387.23L510.8,388.36L512.16,389.11L514.4,388.35L514.77,386.04L516.26,385.15L517.09,386.04L519.43,385.26L521.66,384.9L522.54,385.26L522.83,383.18L524.27,383.29Z" class="land" id="CN-GX" title="Guangxi Zhuang"/>
    <path d="M499.29,355.75L500.56,354.31L503.2,355.11L503.84,352.9L505.85,352.16L506.82,353.34L508.12,352.5L507.95,350.97L508.32,349.22L511.75,349.68L512.13,351.45L514.05,350.22L516.23,351.36L516.85,353.15L516.45,354.29L518.47,355.69L518.89,357.74L520.24,356.69L520.11,359.03L522.15,359.39L524.6,356.02L524.58,357.86L525.55,358.34L524.82,360.44L525.21,362.63L526.01,363.54L526.2,365.16L524.01,366.4L522.73,367.98L521.36,368.73L522.38,369.94L523.67,370.12L525.64,369.24L526.66,370.11L527.04,371.35L525.31,374.18L525.76,375.36L524.57,377.4L526.03,378.27L526.41,380.3L524.27,383.29L522.83,383.18L522.54,385.26L521.66,384.9L519.43,385.26L517.09,386.04L516.26,385.15L514.77,386.04L514.4,388.35L512.16,389.11L510.8,388.36L510.54,387.23L508.88,388.21L508.4,386.48L506.76,384.89L504.41,386.08L504.64,387.94L503.79,388.47L501.75,388.62L501.13,389.4L498.66,390.48L497.32,390.64L497.54,392.5L496.49,393.22L494.35,393.13L491.72,392.13L491,390.91L489.11,390.31L487.93,391.07L487.59,392.24L486.19,392.75L484.94,393.92L483.19,392.86L483.32,391.97L484.76,390.32L485.03,388.2L484.14,386.78L482.32,385.64L481.4,384.43L483.07,379.7L483.26,378.16L484.48,376.95L482.77,374.93L479.68,374.32L478.63,375.56L476.91,375.37L475.94,372.73L476.59,371.31L475.31,369.69L477.41,367.82L477.96,366.5L480.77,367.87L481.69,366.25L483.93,367.8L485.67,367.38L486.11,367.98L489.55,365.75L489.92,363.89L491.51,363.22L492.81,364.36L493.64,363.87L497.7,363.4L498.93,362.73L498.8,361.25L497.31,359.35L494.98,359.75L495.01,358.56L494.06,357.69L492.86,357.87L492.69,356.17L493.33,355.11L495.07,355.04L495.76,353.52L496.97,354.74Z" class="land" id="CN-GZ" title="Guizhou"/>
    <path d="M563.5,274.6L566.01,274.67L566.45,275.55L569.42,276.07L571.08,277.2L573.67,277.02L574.69,277.72L575.69,276.21L577.47,277.56L578.77,276.67L578.49,278.35L577.5,280.44L581.66,278.39L582.66,278.82L580.33,281.31L578.95,281.42L577.65,284L574.81,285.23L573.25,287.36L573.89,289.49L575.59,289.11L578.35,291.4L579.28,293.7L581.84,293.86L584.21,293.41L585,293.7L585.19,295.78L587.72,296.68L587.94,298.59L588.99,300.09L587.13,301.87L584.74,302.88L583.19,300.8L583.05,299.79L581.65,299.05L579.83,299.47L579.37,301.06L580.16,304.17L578.2,304.46L577.34,306.32L577.77,306.87L577.14,308.88L575.86,309.4L573.68,309.4L574.07,310.96L576.31,311.79L576.31,314.56L578.15,314.7L579.52,316.32L580.63,315.52L582.29,315.59L582.77,318.95L582.55,322.74L580.5,322.9L578.94,323.99L577.88,325.78L577.82,326.77L576.52,326.56L576.65,325.22L573.16,326.18L571.35,324.86L570.89,323.04L568.45,323.21L566.99,322.28L565.66,323.13L564.52,322.21L563.59,318.08L562.59,316.94L560.82,317.82L558.98,316.22L558.35,316.74L555.99,316.53L555.06,317.07L553.19,316.48L551.22,317.27L548.9,315.76L547.43,315.43L545.95,314.39L544.65,314.49L542.97,312.06L541.84,311.48L541.73,309.86L539.51,307.59L539.92,306.74L539.72,304.3L538.2,303.25L537.71,301.91L536.24,301.3L536.83,300.31L534.78,297.22L535.29,296.27L534.11,294.45L534.29,293.43L536.93,293.54L541.63,291.44L544.65,290.84L545.53,289.32L546.89,288.45L548.92,288.54L548.93,286.22L551.3,286.91L556.49,286.56L557.38,285.34L559.73,284.68L561.46,283.55L562.14,280.46L562.86,280.26L562.82,277.16Z" class="land" id="CN-HA" title="Henan"/>
    <path d="M527.27,323.4L527.63,319.57L526.52,317.53L527.6,314.5L530.15,314.51L531.08,314.98L532.37,314.5L532.15,312.27L531.16,311.6L528.86,311.24L529.1,309.55L526.02,308.7L526.62,307.88L529.63,307.69L532.95,308.62L538.07,308.71L539.51,307.59L541.73,309.86L541.84,311.48L542.97,312.06L544.65,314.49L545.95,314.39L547.43,315.43L548.9,315.76L551.22,317.27L553.19,316.48L555.06,317.07L555.99,316.53L558.35,316.74L558.98,316.22L560.82,317.82L562.59,316.94L563.59,318.08L564.52,322.21L565.66,323.13L566.99,322.28L568.45,323.21L570.89,323.04L571.35,324.86L573.16,326.18L576.65,325.22L576.52,326.56L577.82,326.77L579.65,329.38L580.72,328.83L582.23,329.38L583.98,331.24L582.18,332.24L581.24,334.09L582.58,335.77L582.32,337.15L583.9,338.95L583.98,341.38L584.51,342.8L582.7,343.81L580.51,342.49L579.05,342.63L578.71,343.64L577.12,344.8L573.74,345.74L573.33,347.01L571.74,347.08L570.33,347.81L568.2,347.52L568.03,348.69L566.44,348.96L565.39,350.59L563.59,350.44L562.39,348.43L563.68,346.57L562.93,344.24L560.41,344.03L558.28,346.63L556.62,346.3L556.16,343.05L554.36,345.1L552.31,344.71L551.6,345.67L548.97,344.22L548.04,342.66L546.17,341.83L543.08,341.86L541.84,340.6L539.04,340.36L537.51,339.83L535.49,340.44L535.35,341.9L536.53,343.28L534.14,344.69L531.92,343.13L528.97,343.48L528.87,344.14L526.73,344.85L525.45,346.79L525.26,348.15L524.23,349.85L521.98,347.77L521.01,346.34L521.36,345.1L519.4,344.12L518.01,342.34L518.47,338.53L516.97,337.09L519.5,335.08L520.66,336L521.85,334.74L523.22,334.46L523.41,335.63L525.25,335.31L527.85,333.76L528.99,332.4L530.04,332L531.63,332.9L532.63,329.36L532.18,326.86Z" class="land" id="CN-HB" title="Hubei"/>
    <path d="M593.8,233.2L593.26,235.03L593.44,238.39L591.19,237.6L591.36,235.84L590.18,235.25L590.17,233.82ZM567.02,225.71L565.61,222.87L564.27,221.54L565.99,219.98L564.72,217.58L566.08,216.62L568.03,216.78L567.7,213.37L568.79,211.93L570.18,211.41L570.84,209.44L572.48,209.78L573.73,211.09L573.49,213.38L574.12,215.54L577.32,214.85L581.83,211.75L583.31,213.11L585.03,212.61L586.18,210.95L588.16,211.85L591.01,210.8L591.37,206.22L592.87,205.31L595.35,205.56L596.2,204.1L599.06,204.17L600.96,206.36L600.52,208.16L603.07,210.01L603.73,212.79L601.93,214.04L603.98,218.94L608.16,218.33L609.09,218.99L611.62,219.03L609.7,222.7L608.61,223.16L608.2,225.01L611.94,228.03L614.53,227.99L615.01,231.49L616.06,231.98L616.9,234.25L614.52,235.21L614.22,236.29L612.73,237.04L611.34,241.2L609.56,243.25L607.36,243.92L606.13,243.55L603.76,245.18L602.78,244.81L601.43,242.97L600.94,241.38L599.7,240.4L600.26,238.96L598.17,238.91L596.9,236.73L596.85,234.35L598.32,234.29L596.84,231.53L595.43,231.55L594.01,229.85L593.81,228.45L594.78,226.65L592.06,226.2L589.2,222.92L587.26,222.94L587.35,225.08L585.4,225.12L584.23,227.1L582.54,227.07L581.21,227.94L581.33,229.06L582.99,231.15L581.94,232.54L579.94,232.78L578.49,233.84L579.08,235.14L578.8,238.08L580.6,238.69L581.19,239.69L583.21,238.79L585.4,239.19L586.31,240.36L588.61,238.36L590.36,238.57L590.86,240.65L591.25,244.74L589.55,246.21L589.93,248.38L592.28,248.8L593,250.09L594.34,250.29L597.04,249.32L598.25,252.36L599.67,253.73L598.23,255.76L597.13,255.86L595.88,258.3L590.32,258.49L587.33,262L586.54,261.46L584.76,263.48L583.19,263.98L582.18,266.85L580.6,269.65L578.84,270.23L577.58,271.85L577.21,274.04L578.28,275L578.77,276.67L577.47,277.56L575.69,276.21L574.69,277.72L573.67,277.02L571.08,277.2L569.42,276.07L566.45,275.55L566.01,274.67L563.5,274.6L561.96,273.12L561.3,271.56L563.07,269.93L564.06,267.69L564.38,265.8L566.89,261.16L567.07,260.22L565.62,258.6L564.4,254.86L561.87,253.62L562.47,249.43L563.31,249.33L564.59,247.39L563.83,245.81L566.23,243.93L566.8,244.88L568.92,244.48L570.67,239.28L569.42,238.11L569.28,235.65L566.37,235.07L566.54,232.03L569.79,231.19L568.6,229.93L568.32,227.39Z" class="land" id="CN-HE" title="Hebei"/>
    <path d="M536.98,436.08L537.79,437.46L539.17,437.53L540,440.83L537.6,442.92L536.87,443.24L535.43,447.4L535.62,448.77L534.58,449.99L533.44,449.91L531.83,451.23L531.4,452.54L528.94,452.45L528.75,453.81L527.25,454.16L526.23,453.47L523.77,453.44L523.16,452.74L519.5,451.42L519.58,449.32L518.94,448.33L519.26,447.44L518.85,445.92L519.04,444.16L522.31,441.46L523.82,440.81L523.64,439.56L524.91,438.35L526.79,439.01L526.91,438.07L528.38,437.53L529.66,438.12L531.14,438.06L532.36,437.01L535.96,436.73Z" class="land" id="CN-HI" title="Hainan"/>
    <path d="M566.27,414.1L567.89,413.73L568.25,414.92L566.82,415.37Z" class="land" id="CN-HK" title="Hong Kong"/>
    <path d="M716.8,193.4L715.65,194.26L714.56,193.12L712.77,193.09L710.16,191.6L708.54,187.73L705.84,188.85L705.12,186.74L703.32,188.59L701.22,188.61L698.78,189.72L698.69,192.25L696.95,192.91L695.44,192.09L694.18,188.49L692.23,185.19L692.27,182.54L691.37,180.9L689.96,181.93L689.01,183.66L689.03,185.51L687.33,186.32L685.85,185.92L683.6,182.25L682.97,179.41L679.66,179.84L679.42,176.35L680.15,175.46L679.07,173.23L677.61,173.2L675.58,171.8L672.12,173.25L669.86,172.5L668.06,170.71L667.26,168.5L665.09,170.01L663.1,169.83L662.29,168.73L657.96,169.81L653.27,165.47L653.58,162.09L652.85,158.81L646.01,159.28L644.62,157.1L644.5,155.19L646.89,154.06L649.7,153.68L650.02,152.15L647.64,151.43L645.89,152.99L644.58,153.31L643.55,152.06L643.14,149.03L641.07,148.13L639.17,145.28L640.74,142.82L646.07,139.38L647.2,137.26L649.53,136.23L653.21,131.85L655.58,129.82L656.81,134.3L658.26,132.87L657.7,131.86L658.55,126.96L660.22,122.11L661.02,121.2L662.93,121.93L663.85,121.1L664.26,117.56L663.67,113.71L664.36,108.43L665.67,107.45L666.36,104.6L669.14,102.67L668.53,99.87L671.39,96.87L669.39,93.5L664.99,87.72L662.57,87.63L660.85,91.09L658.71,91.88L655.15,91.56L652.54,92.24L650.24,91.98L646.99,92.94L645.06,91.96L643.19,89.76L640.84,78.6L637.17,75.05L635.27,78.15L633.22,77.87L632.65,76.09L629.81,74.25L630.34,72.55L632.24,70.42L634.12,67.1L631.32,63.2L634.55,61.86L636.45,61.89L638.55,60.75L639.55,61.59L643.06,61.42L646.76,59.84L648.95,59.93L652,60.94L654.26,63.02L655.4,62.7L657.2,64.99L660.53,66.1L663.74,65.28L667.23,66.95L668.42,68.25L673.72,76.74L673.33,79.44L675.58,80.66L674.76,83.19L677.04,86.43L676.63,88.1L677.62,90.45L679.23,91.95L678.76,95.55L680.43,97.33L682.6,102.17L681.97,103.62L682.44,105.82L684.65,107.07L683.71,109.9L684.02,112.61L685.13,113.16L686.47,115.67L687.77,115.36L690.21,116.59L692.87,115.53L695.15,116.05L697.67,118.88L700.28,117.82L701.48,118.09L704.3,121.36L704.98,123.09L707.6,125.36L709.37,124.9L711.48,125.3L710.24,128.71L712.87,132.85L711.35,135.44L713.47,138.13L713.99,140.42L716.61,140.24L720.48,140.58L721.41,141.07L728.04,140.48L728.95,138.27L733.26,135.39L736.04,135.87L741.03,132.41L744,131.72L745.57,131.98L746.44,133.78L745.41,136.46L745.74,137.99L747.34,139.98L747.18,140.96L744.91,144L743.51,144.09L741.9,146.54L740.78,151.98L740.73,154.12L739.29,156.45L739.81,159.05L737.87,160.55L737.66,163.17L736.41,163.75L735.4,167.31L733.23,169.09L732.61,171.93L733.01,173.36L731.62,174.61L730.57,174.17L729.21,178.67L728.02,180.33L725.89,179.59L724.1,178.05L724.73,175.39L723.64,171.94L721.61,171.03L720.39,173.44L716.81,175.79L715.27,175.72L713.99,176.65L715.29,178.66L716.95,186.13L716.17,189.24Z" class="land" id="CN-HL" title="Heilongjiang"/>
    <path d="M524.23,349.85L525.26,348.15L525.45,346.79L526.73,344.85L528.87,344.14L528.97,343.48L531.92,343.13L534.14,344.69L536.53,343.28L535.35,341.9L535.49,340.44L537.51,339.83L539.04,340.36L541.84,340.6L543.08,341.86L546.17,341.83L548.04,342.66L548.97,344.22L551.6,345.67L552.31,344.71L554.36,345.1L556.16,343.05L556.62,346.3L558.28,346.63L560.41,344.03L562.93,344.24L563.68,346.57L562.39,348.43L563.59,350.44L565.39,350.59L566.44,352.6L567.17,352.81L566.98,354.98L568.08,357.75L566.66,359.17L566.17,360.48L563.78,361.58L563.79,362.96L562.18,365.54L563.24,367.57L564.74,368.03L563.87,369.82L565.24,371.31L564.46,372.75L565.09,374.59L566.93,374.85L566.62,376.58L565.35,378.98L566.26,379.88L566.13,381.34L565.12,383.28L565.78,384.87L565.55,385.88L562.18,387.27L561,386.81L559.16,385.32L557.26,386.95L555.91,387.08L556.83,388.78L557.18,390.97L555.91,391.29L554.54,390.2L554.12,389.03L550.66,388.75L549.7,390.11L549.9,391.11L548.58,392.8L545.82,392.36L544.58,393.77L543.48,393.46L543.84,392.22L543.47,389.32L542,388.89L539.63,391.04L539.2,389.81L540.52,387.55L542.25,386.01L542.62,384.44L542.32,383.38L543.5,382.83L541.42,380.54L542.17,378.14L539.64,377.47L537.58,378.17L536.28,377.34L534.22,379.67L533.07,380.37L531.52,380.17L531.68,378.96L530.12,379.18L529.42,381.4L527.79,380.15L526.41,380.3L526.03,378.27L524.57,377.4L525.76,375.36L525.31,374.18L527.04,371.35L526.66,370.11L525.64,369.24L523.67,370.12L522.38,369.94L521.36,368.73L522.73,367.98L524.01,366.4L526.2,365.16L526.01,363.54L525.21,362.63L524.82,360.44L525.55,358.34L524.58,357.86L524.6,356.02L524.26,352.28L524.99,350.6Z" class="land" id="CN-HN" title="Hunan"/>
    <path d="M646.01,159.28L652.85,158.81L653.58,162.09L653.27,165.47L657.96,169.81L662.29,168.73L663.1,169.83L665.09,170.01L667.26,168.5L668.06,170.71L669.86,172.5L672.12,173.25L675.58,171.8L677.61,173.2L679.07,173.23L680.15,175.46L679.42,176.35L679.66,179.84L682.97,179.41L683.6,182.25L685.85,185.92L687.33,186.32L689.03,185.51L689.01,183.66L689.96,181.93L691.37,180.9L692.27,182.54L692.23,185.19L694.18,188.49L695.44,192.09L696.95,192.91L698.69,192.25L698.78,189.72L701.22,188.61L703.32,188.59L705.12,186.74L705.84,188.85L708.54,187.73L710.16,191.6L712.77,193.09L714.56,193.12L715.65,194.26L716.8,193.4L717.06,194.44L714.55,200.86L712.83,200.67L709.92,201.78L710.17,203.8L709.47,204.55L707.83,202.58L707.92,200.39L704.76,199.12L703.45,203.36L703.39,205.51L701.59,206.64L700.41,205.7L696.53,210.1L692.73,211.04L690.92,210.56L688.8,211.25L689.45,214.23L690.79,215.28L690.69,216.47L689.44,218.26L681.66,217.09L678.41,213.43L677.58,214.59L676.04,214.92L675.84,216.22L673.23,220.81L669.98,223.68L667.7,223.67L668.1,221.46L665.82,215.68L664.74,214.69L664.5,211.39L666.17,209.36L665.14,208.93L662.58,205.05L662.77,203.79L660.74,201.53L660.79,199.41L660.09,197.82L657.76,200.75L656.15,199.2L656.84,198.22L655.11,196.13L653.39,195.75L651.91,194.17L650.59,194.62L650.6,194.7L648.28,194.1L647.29,193.2L649.19,191.66L648.64,188.83L647.33,186.28L645.72,180.79L639.97,184.26L638.08,183.92L638.31,181.43L636.77,180.07L636.49,175.93L637.15,169.45L635.47,167.9L635.49,166.24L633.55,165.01L634.37,162.1L635.71,162.52L637.93,164.87L638.99,163.52L641.72,165.87L642.77,165.18L642.6,161.54L644.85,161.17Z" class="land" id="CN-JL" title="Jilin"/>
    <path d="M586.6,293.05L587.24,290.29L590.18,289.82L591.85,290.61L593.88,294.98L595.19,293.54L596.97,294.89L599.14,292.94L601.65,292.93L601.5,293.91L602.58,295.74L604.34,295.2L604.55,293.38L605.38,292.23L606.81,292.58L608.34,289.74L608.32,288.86L612.15,288.19L611.53,288.62L611.08,290.74L612.26,291.95L616.45,294.88L618.43,295.33L620.74,296.69L621.29,298.82L624.31,305.54L624.56,307.4L626.1,310.1L625.8,312.72L626.22,314.27L630.31,316.53L630.84,319.38L633.41,320.33L634.48,321.52L635.16,323.31L634.65,323.89L632.54,323.36L629.7,321.84L627.9,322.85L627.79,323.52L629.9,325.74L628.37,326.4L627.46,329.48L625.97,329.55L626.13,330.78L624.28,331.37L622.74,333.27L621.53,331.36L619.63,331.55L618.24,330.63L617.52,329.11L615.1,329.48L612.95,329.05L611.11,327.79L610.32,328.49L607.69,328.53L606.94,327.79L608.41,326.52L608.35,324.52L606.56,324.29L604.03,321.3L604.23,319.8L605.23,318.63L606.58,318.39L607.06,314.34L610.82,315.55L611.36,313.15L609.69,310.7L608.24,310.71L607.38,312.96L605.93,313.16L603.42,312.58L602.83,311.05L602.6,308.19L601.14,308.82L600.25,307.93L601.78,305.31L601.77,302.29L598.45,302.68L598.69,301.02L597.9,299.87L595.14,298.86L593.74,299.09L592.28,297.95L591.73,295.67L588.5,294.43Z" class="land" id="CN-JS" title="Jiangsu"/>
    <path d="M584.51,342.8L585.62,343.21L588.03,342.04L588.49,340.47L590.18,340.66L591.2,341.52L589.03,344.66L590.68,345.33L593.05,343.91L592.7,342.71L594.28,341.93L596.04,343.54L597.22,345.2L598.25,345.55L600.92,345.27L602.5,347.12L601.09,349.29L601.69,351.14L603.1,351.83L604.62,354.32L604.55,358.12L603.83,360.02L601.9,360.43L599.55,361.5L598.46,362.92L596.63,361.09L593.84,363.82L592.22,364.43L593.53,368.14L592.48,369.86L589.4,370.96L588.13,372.39L588.05,375.08L588.9,376.03L586.82,377.98L587.59,379.51L586.53,380.93L584.47,381.96L584.9,382.78L583.82,383.62L583.27,385.82L583.44,387.16L582.08,388.24L582.3,390.92L581.21,392.74L581.91,394.48L580.87,394.72L579.59,393.93L578.78,392.62L577.08,392.66L575.59,393.54L574.11,393.66L573.46,394.53L572.38,394.02L569.63,395.23L568.98,394.26L567.39,393.44L568.76,392.72L569.32,390.76L571.53,389.55L572.35,387.96L570.53,386.26L569.24,387.23L567.92,387.49L566.21,386.79L565.55,385.88L565.78,384.87L565.12,383.28L566.13,381.34L566.26,379.88L565.35,378.98L566.62,376.58L566.93,374.85L565.09,374.59L564.46,372.75L565.24,371.31L563.87,369.82L564.74,368.03L563.24,367.57L562.18,365.54L563.79,362.96L563.78,361.58L566.17,360.48L566.66,359.17L568.08,357.75L566.98,354.98L567.17,352.81L566.44,352.6L565.39,350.59L566.44,348.96L568.03,348.69L568.2,347.52L570.33,347.81L571.74,347.08L573.33,347.01L573.74,345.74L577.12,344.8L578.71,343.64L579.05,342.63L580.51,342.49L582.7,343.81Z" class="land" id="CN-JX" title="Jiangxi"/>
    <path d="M616.9,234.25L616.06,231.98L615.01,231.49L614.53,227.99L611.94,228.03L608.2,225.01L608.61,223.16L609.7,222.7L611.62,219.03L613.05,217.16L612.15,214.49L612.32,211.4L612.85,209.94L612,207.83L614.27,206.8L614.82,207.98L616.92,208.48L616.88,209.8L618.61,213.18L619.37,213.69L620.8,211.65L622.41,210.76L622.34,209.78L625.99,207.87L627.35,208.04L629.89,205.63L632.17,204.91L633.25,205.7L634.97,204.05L635.18,202.9L637.51,202.42L639.11,202.98L639,200.98L641.18,201.85L645.06,201.85L646.64,199.27L648.68,198.68L649.56,199.17L650.61,194.74L650.59,194.62L651.91,194.17L653.39,195.75L655.11,196.13L656.84,198.22L656.15,199.2L657.76,200.75L660.09,197.82L660.79,199.41L660.74,201.53L662.77,203.79L662.58,205.05L665.14,208.93L666.17,209.36L664.5,211.39L664.74,214.69L665.82,215.68L668.1,221.46L667.7,223.67L669.98,223.68L668.75,223.96L666.07,225.99L662.11,228.04L659.74,229.91L656.12,233.42L654.62,236.25L652.12,235.78L649.32,236.43L647.17,236.46L645.69,237.93L642.82,238.79L640.78,240.22L639.17,240.4L636.78,242.99L637.01,243.73L634.26,245.93L632.14,246.07L631.17,247.5L630.15,247.43L628.77,248.57L627.82,246.64L632.82,244.56L632.21,242.38L633.58,241.48L630.32,239.45L631.06,238.32L631.73,235.66L634.86,234.14L636.51,230.81L638.68,228.7L637.08,227.24L637.16,226.34L634.52,224.69L631.91,224.5L628.59,223.53L625.54,226.38L623.42,228.95L622.2,231.89L620.94,232.05Z" class="land" id="CN-LN" title="Liaoning"/>
    <path d="M562.08,417.32L562.33,417.67L562.03,417.85L561.9,417.37Z" class="land" id="CN-MO" title="Macau"/>
    <path d="M631.32,63.2L634.12,67.1L632.24,70.42L630.34,72.55L629.81,74.25L632.65,76.09L633.22,77.87L635.27,78.15L637.17,75.05L640.84,78.6L643.19,89.76L645.06,91.96L646.99,92.94L650.24,91.98L652.54,92.24L655.15,91.56L658.71,91.88L660.85,91.09L662.57,87.63L664.99,87.72L669.39,93.5L671.39,96.87L668.53,99.87L669.14,102.67L666.36,104.6L665.67,107.45L664.36,108.43L663.67,113.71L664.26,117.56L663.85,121.1L662.93,121.93L661.02,121.2L660.22,122.11L658.55,126.96L657.7,131.86L658.26,132.87L656.81,134.3L655.58,129.82L653.21,131.85L649.53,136.23L647.2,137.26L646.07,139.38L640.74,142.82L639.17,145.28L641.07,148.13L643.14,149.03L643.55,152.06L644.58,153.31L645.89,152.99L647.64,151.43L650.02,152.15L649.7,153.68L646.89,154.06L644.5,155.19L644.62,157.1L646.01,159.28L644.85,161.17L642.6,161.54L642.77,165.18L641.72,165.87L638.99,163.52L637.93,164.87L635.71,162.52L634.37,162.1L633.55,165.01L635.49,166.24L635.47,167.9L637.15,169.45L636.49,175.93L636.77,180.07L638.31,181.43L638.08,183.92L639.97,184.26L645.72,180.79L647.33,186.28L648.64,188.83L649.19,191.66L647.29,193.2L648.28,194.1L650.6,194.7L650.61,194.74L649.56,199.17L648.68,198.68L646.64,199.27L645.06,201.85L641.18,201.85L639,200.98L639.11,202.98L637.51,202.42L635.18,202.9L634.97,204.05L633.25,205.7L632.17,204.91L629.89,205.63L627.35,208.04L625.99,207.87L622.34,209.78L622.41,210.76L620.8,211.65L619.37,213.69L618.61,213.18L616.88,209.8L616.92,208.48L614.82,207.98L614.27,206.8L612,207.83L612.85,209.94L612.32,211.4L612.15,214.49L613.05,217.16L611.62,219.03L609.09,218.99L608.16,218.33L603.98,218.94L601.93,214.04L603.73,212.79L603.07,210.01L600.52,208.16L600.96,206.36L599.06,204.17L596.2,204.1L595.35,205.56L592.87,205.31L591.37,206.22L591.01,210.8L588.16,211.85L586.18,210.95L585.03,212.61L583.31,213.11L581.83,211.75L577.32,214.85L574.12,215.54L573.49,213.38L573.73,211.09L572.48,209.78L570.84,209.44L570.18,211.41L568.79,211.93L567.7,213.37L568.03,216.78L566.08,216.62L564.72,217.58L565.99,219.98L564.27,221.54L565.61,222.87L567.02,225.71L566.39,228.1L563.83,228.7L562,230.17L559.88,230.48L559.31,229.43L556.18,230.42L554.94,232.24L552.42,230.74L551.08,231.27L548.22,236.36L547.82,238.52L546.35,238.8L544.05,238.02L542.74,240.63L540.87,241.32L539.91,239.08L538.59,239.86L536.34,242.66L535.48,241.14L530.56,243.35L528.47,244.72L528.12,246.23L525.91,247.66L525.68,248.68L523.58,250.4L521.97,252.86L521.62,254.61L522.69,255.67L521.69,257.49L520.28,257.25L520.3,260.12L513.63,260.32L513.21,258.92L510.46,258.01L508.34,257.19L507.64,255.62L506.23,254.87L504.8,255.27L503.11,254.87L500.9,253.7L500.38,252.66L501.88,250.62L502.12,248.56L504.41,246.02L504.37,244.78L502.91,242.81L502.88,241.35L501.25,241.34L500.24,242.19L498.5,242.4L497.48,243.63L496.69,245.69L495.72,246.53L494.69,249.59L494.48,252.02L494.8,253.64L493.97,255.13L494.6,256.58L493.9,258.84L492.49,259.95L490.75,259.84L488.23,260.68L487.17,261.66L484.78,262.08L482.14,261.97L481,262.93L480.12,263.16L477.62,261.14L475.67,258.99L473.41,258.31L472.99,255.62L474.58,254.9L473.43,252.09L477.48,249.44L478.84,246.68L480.08,246.12L480.36,244.42L479.02,242.11L479.36,240.75L477.14,240.29L472.98,241.56L469.84,244.31L466.4,243.42L465.07,242.6L462.85,243.54L459.48,244.31L461.8,246.62L459.14,249.22L457.75,249.25L455.22,247.9L453.9,245.97L452.5,245.94L451.15,244.13L451.03,240.98L447.99,240.97L446.42,239.61L445.81,237.7L443.74,237.1L441.57,235.44L438.85,235.55L440.3,233.41L442.81,231.72L443.8,229.6L445.72,227.26L445.61,225.87L444.45,224L440.81,223.43L439.85,224.4L436.46,224.22L433.74,225.51L431.81,227.94L428.39,228.13L429.38,224.54L429.06,223.64L425.92,221.54L422.77,217.33L424.76,214.99L419.03,201.86L426.33,202.91L428.32,203.46L439.22,204.26L443.58,203.34L446.09,203.54L446.48,202.91L451.59,203.37L459.49,205.4L461.65,208.42L464.71,209.34L467.55,209.41L472.64,212.08L477.36,213.24L483.31,212.36L483.23,214.95L486.82,215.15L487.6,216.05L489.97,214.1L494.3,211.49L502,207.94L507.09,206.79L508.72,205.54L512.73,206.13L515.58,205.54L520.33,206.16L521.96,205.6L524.61,206L527.02,205.43L529.53,203.61L532.31,203.46L534.89,201.56L537.11,198.46L540.12,195.03L544.72,193.27L546.35,190.79L548.04,190.36L548.46,189.28L547.16,187.2L545.22,186.33L543.08,182.87L544.59,178.27L546.17,175.32L548.23,173.74L552.07,174.1L554.92,176.4L558.23,177.33L561.2,177.42L562.62,178.01L566.33,175.45L569.22,172.81L570.39,170.22L572.48,169.24L574.64,169.87L577.61,170.11L580.94,169.42L581.33,168.62L585.77,165.39L585.67,163.02L588.49,158.77L591.95,158.01L595.31,157.99L595.94,155.07L599.25,155.84L603.2,152.42L606.05,152.73L609.39,152.03L614.8,155.44L617.65,152.87L616.6,150.69L616.93,148.14L615.71,147.22L615.83,145.58L613.73,145.38L610.9,142.76L610.66,140.64L607.62,139.29L605.03,136.77L601.89,136.28L598.75,136.9L595.38,141.48L593.06,139.25L590.4,138.08L587.7,138.83L585.61,138.38L582.81,141L579.67,137.61L579.1,134.42L581.86,133.23L581.82,129.8L584.35,126.34L583.86,125.14L589.49,112.31L591.66,113.92L594.51,115.13L596.29,115.17L599.57,116.83L605.76,111.15L611.3,109.98L612.76,107.76L611.14,105.43L611.98,101.89L613.78,100.02L614.07,97.7L615.58,96.14L618.2,90.1L618.64,88.08L622.46,84.04L623.96,83.4L625.11,80.13L623.74,77.92L624.27,74.63L622.27,73.21L618.85,74.04L618.55,71.33L621.17,69.49L625.6,64.04L628.96,63.93Z" class="land" id="CN-NM" title="Nei Mongol"/>
    <path d="M481,262.93L482.14,261.97L484.78,262.08L487.17,261.66L488.23,260.68L490.75,259.84L492.49,259.95L493.9,258.84L494.6,256.58L493.97,255.13L494.8,253.64L494.48,252.02L494.69,249.59L495.72,246.53L496.69,245.69L497.48,243.63L498.5,242.4L500.24,242.19L501.25,241.34L502.88,241.35L502.91,242.81L504.37,244.78L504.41,246.02L502.12,248.56L501.88,250.62L500.38,252.66L500.9,253.7L503.11,254.87L504.8,255.27L506.23,254.87L507.64,255.62L508.34,257.19L510.46,258.01L510.22,259.04L507.39,260.92L507.14,266.73L506.16,266L504.87,266.42L502.85,265.93L501.06,268.27L501.73,269.62L500.54,270.6L499.93,272.41L500.5,273.32L500.45,275.31L503.23,276L503.98,277.2L504.1,280.58L503.13,281.58L500.76,281.25L499.87,281.79L500.39,285.39L499.19,286.71L497.56,284.56L496.2,283.59L494.21,283.13L492.91,281.26L491.57,281.46L490.18,279.66L490.13,278.32L491.71,276.9L491.42,275.32L489.05,270.75L490.18,269.9L488.93,268.85L488.77,267.77L487.05,267.12L485.97,265.23L484.44,265.51L483.75,264.63L484.36,263.15Z" class="land" id="CN-NX" title="Ningxia Hui"/>
    <path d="M377.28,245L381.81,246.54L383.47,247.38L384.92,249.15L388.35,248.63L389.91,250.29L393.75,249.77L396.03,253.53L398.94,253.21L402.67,253.32L404.96,254.46L409.73,254.26L411.7,255.51L413.47,255.51L415.34,254.46L417.07,252.86L417.35,250.05L417.05,246.82L417.65,243.18L420.45,243.59L426.29,247.06L426.92,247.75L429.5,245.14L431.23,246.21L433.3,244.52L438.04,248.63L438.79,249.89L440.81,251.77L444.34,253.51L444.33,252.07L445.52,251.55L446.52,253.07L448.81,253.88L449.13,255.48L453.2,257.24L458.95,261.83L459.92,260.25L461.75,261.33L461.2,262.42L462.9,262.99L466.24,265.81L465.06,267.9L467.41,270.18L467.37,271.83L468.37,274.78L470.02,275.72L469.24,277.33L469.38,280.26L467.94,279.98L467.11,280.63L467.7,282.59L467.39,283.58L465.77,283.18L464.83,284.62L463.56,285.15L464.45,286.68L463.53,288.6L462.21,289.05L460.36,290.5L460.35,291.96L458.64,292.37L461.09,294.08L462.43,294.44L462.68,296.03L461.65,296.79L460.64,298.69L458.8,299.01L457.75,297.88L455.16,297.2L454.62,296.66L451.46,295.82L450.32,297.92L452.26,300.84L453.7,301.5L454.46,303.17L457.51,303.27L457.86,305.07L459.12,304.57L458.04,306.93L458.77,307.4L458.01,309.11L456.49,307.91L453.72,308.69L453.41,311.21L454.41,312.09L454.06,313.51L451.75,314.41L449.56,313.61L448.28,314.65L447.13,312.82L444.8,313.09L444.58,311.77L442.42,310.92L441.07,312.77L438.04,311.22L436.53,309.9L433.6,308.64L432.82,307.32L432.63,305.26L431.94,303.48L430.23,301.39L426.36,300.34L424.61,301.3L424.24,300.08L420.82,300.95L421.17,303.1L422.88,306.71L421.68,308.55L422.17,309.82L420.53,311.22L421.15,313.37L423.8,315.19L423.3,315.73L420.65,315.2L421.06,317.45L419.93,317.7L419.6,319.79L418.87,320.31L417.03,319.95L415.32,322.17L416.01,323.47L413.47,323.48L411.46,321.24L410.34,321.73L409.57,323.6L407.55,323.51L405.44,322.87L404.5,323.21L403.2,321.02L403.74,319.01L402.64,318.02L400.66,318.07L399.04,315.88L396.61,313.7L394.39,315.25L392.99,315.3L392.4,316.16L389.58,314.92L388.2,314.72L387.02,315.72L385.8,315.19L384.63,313.8L383.03,314.14L382.59,312.94L381.36,313.42L377.73,312.73L376.06,313.19L375,311.48L373.46,312.17L369.91,309.74L368.26,307.67L364.86,307.77L363.59,309.13L362.39,308.82L360.57,307.53L359.53,307.45L358.36,306.06L358.29,305.02L356.17,303.68L355.65,301.88L354.45,301.18L353.16,299.26L354.63,298.05L354.64,294.05L353.9,292.15L355.11,291.16L354.54,290.09L352.47,289.93L352.68,288.01L351.49,286.75L351.89,285.32L353.55,284.72L354.5,280.08L351.22,279.33L351.93,278.2L353.93,277.58L355.85,277.66L356.35,275.48L358.31,276.71L362.23,277.08L363.65,278.27L364.79,277.34L365.88,277.47L365.21,274.92L365.26,272.68L362.66,272.09L362.62,269.53L363.68,268.52L365.11,268.44L366.51,267.32L366.63,265.3L365.76,262.48L364.47,262.36L363.91,261.26L362.06,259.89L360.82,259.6L359.81,257.89L360.49,257.11L359.27,255.31L357.59,251.81L359.95,251.11L362.97,249.23L367.6,248.23L368.82,247.53L372.55,246.78Z" class="land" id="CN-QH" title="Qinghai"/>
    <path d="M459.12,304.57L460.56,305.65L459.08,307.62L459.98,309.15L462.01,307.5L463.37,305.92L465.26,305.45L464.02,303.82L462.71,300.33L464.46,300.1L464.81,298.87L467.48,297.01L469.37,296.73L470.76,297.94L471.14,301.81L472.86,302.51L476.52,303.4L478.94,303.11L480.87,306.19L481.84,309.14L481.06,310.91L481.18,312.05L484.09,313.79L487.64,313.97L488.29,314.52L491.26,313.01L490.59,311.6L491.62,311.23L492.47,313.42L494.49,312.15L496.4,311.67L497,313.14L498.39,313.75L501.33,313.81L502.48,313.07L505.59,313.92L505.47,315.17L506.74,316.34L508.02,315.07L509.31,316.69L510.48,316.5L512.16,318.51L515.55,317.78L517.66,317.85L517.99,318.47L517.38,319.93L515.78,320.95L518.11,323.1L515.06,327.48L512.99,331.08L512.36,332.85L509.2,332.51L508.43,333.5L509.18,334.56L508.08,336.02L506.75,338.74L504.91,340.66L502.55,340.73L500.93,337.94L498.09,339.15L497.25,337.81L494.5,336.65L493.63,338.44L491.97,339.28L493.3,340.61L493.63,342.49L492.21,343.72L490.89,344.23L489.81,345.66L491.06,347L491.26,348.16L493.34,348.18L493.55,350.04L494.28,351.66L495.16,352.05L497.89,352.11L498.91,355.48L499.29,355.75L496.97,354.74L495.76,353.52L495.07,355.04L493.33,355.11L492.69,356.17L492.86,357.87L494.06,357.69L495.01,358.56L494.98,359.75L497.31,359.35L498.8,361.25L498.93,362.73L497.7,363.4L493.64,363.87L492.81,364.36L491.51,363.22L489.92,363.89L488.88,360.37L487.07,360.39L486.21,361.88L483.62,362.53L481.22,360.54L482.39,359.81L482.55,358.53L480.78,357.08L480.58,354.6L478.12,355L476.66,355.81L477.38,357.97L476.02,358.97L475.35,358.4L473.74,359.75L474.24,361.3L474.12,362.84L472.22,364.64L471.02,366.68L468.8,367.88L468.67,370.54L469.65,372.83L470.32,375.38L469.67,377.18L467.58,377.91L466.57,377.32L464.43,377.73L461.92,379.92L459.34,379.04L458.38,378.24L457.9,376.72L455.81,375.18L456.6,374.03L455.52,373.06L455.56,371.96L453.61,370.59L453.81,368.84L452.86,368.01L451.3,364.85L449.2,361.83L448.41,362.84L446.31,362.34L444.32,360.6L443.93,359.18L445.13,358.8L443.12,355.19L440.32,352.94L439.42,355.21L438.2,355.69L438.3,358.74L437.62,358.85L436.4,356.9L436.48,355.16L435.83,352.97L435.87,348.56L435.34,345.47L434.84,344.33L435.51,341.73L434.76,339.43L434.67,337.09L434.05,334.04L434.55,333.32L432.98,331.97L433.13,330.8L431.42,328.94L431.7,327.43L432.97,328.3L433.87,327.02L431.58,324.84L429.78,322.36L429.93,320.52L428.12,318.25L427.86,316.91L425.89,315.75L423.8,315.19L421.15,313.37L420.53,311.22L422.17,309.82L421.68,308.55L422.88,306.71L421.17,303.1L420.82,300.95L424.24,300.08L424.61,301.3L426.36,300.34L430.23,301.39L431.94,303.48L432.63,305.26L432.82,307.32L433.6,308.64L436.53,309.9L438.04,311.22L441.07,312.77L442.42,310.92L444.58,311.77L444.8,313.09L447.13,312.82L448.28,314.65L449.56,313.61L451.75,314.41L454.06,313.51L454.41,312.09L453.41,311.21L453.72,308.69L456.49,307.91L458.01,309.11L458.77,307.4L458.04,306.93Z" class="land" id="CN-SC" title="Sichuan"/>
    <path d="M612.15,288.19L608.32,288.86L608.34,289.74L606.81,292.58L605.38,292.23L604.55,293.38L604.34,295.2L602.58,295.74L601.5,293.91L601.65,292.93L599.14,292.94L596.97,294.89L595.19,293.54L593.88,294.98L591.85,290.61L590.18,289.82L587.24,290.29L586.6,293.05L585,293.7L584.21,293.41L581.84,293.86L579.28,293.7L578.35,291.4L575.59,289.11L573.89,289.49L573.25,287.36L574.81,285.23L577.65,284L578.95,281.42L580.33,281.31L582.66,278.82L581.66,278.39L577.5,280.44L578.49,278.35L578.77,276.67L578.28,275L577.21,274.04L577.58,271.85L578.84,270.23L580.6,269.65L582.18,266.85L583.19,263.98L584.76,263.48L586.54,261.46L587.33,262L590.32,258.49L595.88,258.3L597.13,255.86L598.23,255.76L599.67,253.73L601.92,255.02L604.99,255.38L608.22,255.01L609.13,255.54L610.33,258.41L610.02,260.05L608.95,261.81L608.98,263.89L611.7,266.99L616.12,266.29L617.39,264.89L616.91,263.56L619.06,262.76L620.88,261.24L622.2,259.45L624.8,258.48L625.98,258.48L627.1,259.74L628.26,259.8L628.58,261.24L630.28,261.31L632.05,262.89L635.26,262.46L636.43,261.74L637.25,262.93L639.99,262.9L641.23,265.51L640.07,265.93L640.46,267.36L638.94,269.38L635.5,268.06L633.62,269.32L628.54,271.15L626.27,273.6L624.31,274.18L624.54,277.05L622.01,277.88L621.5,276.65L619.8,276.28L619.23,277.4L620.14,279.04L618.76,279.81L618.43,281.49L617.58,282.4L615.17,283.16L614.48,284.96L613.09,286.43Z" class="land" id="CN-SD" title="Shandong"/>
    <path d="M629.36,334.06L627.01,330.89L626.13,330.78L625.97,329.55L627.46,329.48L628.37,326.4L629.9,325.74L630.69,325.99L633.56,328.24L634.58,329.74L635.06,332.33L631.68,332.7ZM629.63,322L632.9,324.28L635.5,325.36L634.29,326.42L630.35,324.54L628.45,322.84Z" class="land" id="CN-SH" title="Shanghai"/>
    <path d="M510.46,258.01L513.21,258.92L513.63,260.32L520.3,260.12L520.28,257.25L521.69,257.49L522.69,255.67L521.62,254.61L521.97,252.86L523.58,250.4L525.68,248.68L525.91,247.66L528.12,246.23L528.47,244.72L530.56,243.35L535.48,241.14L536.34,242.66L538.59,239.86L539.91,239.08L540.87,241.32L541.5,242.35L540.76,244.87L539.48,245.73L539.82,246.82L538.68,249.38L538.6,251.48L536.03,253.26L535.36,254.62L535.45,257.05L536.15,257.56L537.83,261.58L537.09,263.87L534.68,268.02L534.75,271.07L535.34,272.2L534.85,276.72L536.28,282.47L535.48,284.89L534.48,286.26L533.33,289.56L533.09,292.48L534.29,293.43L534.11,294.45L535.29,296.27L534.78,297.22L536.83,300.31L536.24,301.3L537.71,301.91L538.2,303.25L539.72,304.3L539.92,306.74L539.51,307.59L538.07,308.71L532.95,308.62L529.63,307.69L526.62,307.88L526.02,308.7L529.1,309.55L528.86,311.24L531.16,311.6L532.15,312.27L532.37,314.5L531.08,314.98L530.15,314.51L527.6,314.5L526.52,317.53L527.63,319.57L527.27,323.4L524.72,323.55L524.6,322.67L522.5,321L521.22,320.69L517.99,318.47L517.66,317.85L515.55,317.78L512.16,318.51L510.48,316.5L509.31,316.69L508.02,315.07L506.74,316.34L505.47,315.17L505.59,313.92L502.48,313.07L501.33,313.81L498.39,313.75L497,313.14L496.4,311.67L494.49,312.15L492.47,313.42L491.62,311.23L492.84,311.53L495.28,310.34L495.28,307.8L494.22,307.57L494.63,305.13L495.64,303.92L497.63,304.57L499.76,303.81L500.31,301.43L499.66,300.92L500.38,298.7L501.17,298.32L502.27,295.87L500.99,294.64L498.73,293.68L500.98,291.18L500.3,289.84L500.8,288.29L504.03,288.21L506.48,290.48L507.3,289.89L509.38,290.16L511.77,289.69L510.43,286.61L511.6,285.99L513.12,286.63L515,285.91L517.75,286.18L518.78,285.57L518.9,283.32L518.05,282.31L517.84,279.73L519.16,279.05L519.68,277L519.13,275.66L519.69,274.5L516.5,272.47L514.79,272.42L513.04,271.39L512.59,270.25L509.46,269.52L508.96,268.66L507.42,268.55L507.14,266.73L507.39,260.92L510.22,259.04Z" class="land" id="CN-SN" title="Shaanxi"/>
    <path d="M567.02,225.71L568.32,227.39L568.6,229.93L569.79,231.19L566.54,232.03L566.37,235.07L569.28,235.65L569.42,238.11L570.67,239.28L568.92,244.48L566.8,244.88L566.23,243.93L563.83,245.81L564.59,247.39L563.31,249.33L562.47,249.43L561.87,253.62L564.4,254.86L565.62,258.6L567.07,260.22L566.89,261.16L564.38,265.8L564.06,267.69L563.07,269.93L561.3,271.56L561.96,273.12L563.5,274.6L562.82,277.16L562.86,280.26L562.14,280.46L561.46,283.55L559.73,284.68L557.38,285.34L556.49,286.56L551.3,286.91L548.93,286.22L548.92,288.54L546.89,288.45L545.53,289.32L544.65,290.84L541.63,291.44L536.93,293.54L534.29,293.43L533.09,292.48L533.33,289.56L534.48,286.26L535.48,284.89L536.28,282.47L534.85,276.72L535.34,272.2L534.75,271.07L534.68,268.02L537.09,263.87L537.83,261.58L536.15,257.56L535.45,257.05L535.36,254.62L536.03,253.26L538.6,251.48L538.68,249.38L539.82,246.82L539.48,245.73L540.76,244.87L541.5,242.35L540.87,241.32L542.74,240.63L544.05,238.02L546.35,238.8L547.82,238.52L548.22,236.36L551.08,231.27L552.42,230.74L554.94,232.24L556.18,230.42L559.31,229.43L559.88,230.48L562,230.17L563.83,228.7L566.39,228.1Z" class="land" id="CN-SX" title="Shanxi"/>
    <path d="M595.43,231.55L596.84,231.53L598.32,234.29L596.85,234.35L596.9,236.73L598.17,238.91L600.26,238.96L599.7,240.4L600.94,241.38L601.43,242.97L600.11,243.12L598.5,244.41L598.37,245.82L597.11,248.23L597.04,249.32L594.34,250.29L593,250.09L592.28,248.8L589.93,248.38L589.55,246.21L591.25,244.74L590.86,240.65L590.36,238.57L591.19,237.6L593.44,238.39L593.26,235.03L593.8,233.2Z" class="land" id="CN-TJ" title="Tianjin"/>
    <path d="M620.4,411.78L619.74,409.71L618.59,408.7L619.72,405.73L619.56,403.33L619.88,401.76L620.71,401.52L621.63,398.98L622.53,398.02L624.57,394.17L626.2,392.73L626.33,391.78L627.48,389.94L630.45,388.88L630.99,387.9L632.28,387.48L633.38,388.7L635.1,389.2L635.15,390.59L634.27,391.83L634.71,394.78L633.8,396.95L632.91,397.93L631.45,404.47L631.56,404.84L630.18,408.59L628.56,411.74L627.32,412.6L626.12,415.76L626.17,418.56L624.53,419.5L624.57,417.88L623.45,415.39L621.44,414.1Z" class="land" id="CN-TW" title="Taiwan"/>
    <path d="M411.88,202.51L409.53,203.91L408.6,212.23L405.95,213.08L404.66,212.7L400.66,213.58L397.16,215.42L394.86,218.1L391.24,221.62L389.53,224.08L388.07,227.11L385.57,228.73L381.73,228.44L381.77,232.96L380.42,235.51L381.39,239.27L381.99,240.32L382.05,243.54L378.12,244.23L377.28,245L372.55,246.78L368.82,247.53L367.6,248.23L362.97,249.23L359.95,251.11L357.59,251.81L359.27,255.31L360.49,257.11L359.81,257.89L360.82,259.6L362.06,259.89L363.91,261.26L364.47,262.36L365.76,262.48L366.63,265.3L366.51,267.32L365.11,268.44L363.68,268.52L362.62,269.53L362.66,272.09L365.26,272.68L365.21,274.92L365.88,277.47L364.79,277.34L363.65,278.27L362.23,277.08L358.31,276.71L356.35,275.48L355.85,277.66L353.93,277.58L351.8,276.86L349.59,275.3L348.67,275.76L346.88,274.55L345.5,275.23L342.9,273.27L338.64,273.75L337.85,274.49L335.04,274.79L333.36,273.99L331.36,275.28L327.95,275.31L323.05,277.1L321.8,280.16L320.93,280.82L317.18,281.6L314.93,280.86L312.89,281.22L311.18,282.37L307.81,283.36L307.8,284.11L305.43,285.39L304.37,284.83L302.72,285.36L299.85,285.57L297.23,284.73L296.22,284.96L295.1,284.04L294.77,282.03L290.01,281.64L289.17,283.3L286.8,284.42L286.52,285.71L285.19,286.44L282.5,286.61L281.48,285.39L277.87,285.92L274.94,285.59L272.99,284.31L271.5,285.37L271.51,286.39L269.37,288.59L268.86,290.7L267.18,294.75L265.83,295.09L261.52,295.13L260.53,296.28L259.57,295.9L256.44,293.36L255.12,293.42L253.49,292.24L252.19,288.35L251.44,285.01L249.86,283.69L246.23,284.22L244.36,283.58L239.2,280.82L238.95,279.38L237.04,280.29L235.93,280.1L234.16,276.7L234.24,274.19L232.71,271.18L230.96,270.16L229.23,270.67L228.66,268.61L226.54,267.41L224.58,268.35L223.01,267.39L221.5,267.26L220.31,266.36L220.8,264.98L223.57,265.29L226.28,264.12L226.45,262.9L224.63,261.53L224.36,260.41L224.52,256.52L223.39,254.56L223.33,252.79L224.06,251.01L219.72,249.33L217.61,249.22L217.14,250.71L214.62,249.81L214.3,245.12L212.66,242.54L215.15,240.23L215.99,238.76L215.05,236.74L216.87,233.13L219.5,233.18L222.67,230.18L223.76,228.13L225.16,228.99L227.18,229.09L230.44,226.59L231.37,230.97L234.79,229.48L236.89,230.03L238.55,228.85L239.64,226.92L239.53,225.46L240.87,224.37L241.54,222.41L243.14,221.96L248.53,222.67L250.4,221.81L251.98,222.27L253.12,221.74L254.83,219.51L254.89,217.89L257.05,217.2L262.5,213.53L266.06,213.45L267.58,210.79L271.4,210.29L271.45,207.79L270.76,205.95L271.36,204.9L270.43,203.2L271.19,201.19L274.09,200.39L272.38,198.58L275.72,197.36L275.45,193.64L273.47,189.11L272.53,185.28L271.93,181.23L273.15,178.15L271.38,176.83L269.2,177.31L268.59,176.35L269.4,174.68L272.26,174.3L273.04,173.4L275.3,172.71L276.71,173.24L278.59,172.14L283.69,170.31L284.82,172.32L286.01,172.92L288.61,171.93L290.65,173.36L291.58,171.99L291.68,169.5L288.95,168.25L289.09,166.51L290.81,162.6L291.02,160.07L292.86,155.85L293.45,152.9L295.41,146.98L298.21,147.47L300.21,148.96L304.21,150.15L307.62,149.57L309.86,149.64L310.91,151.92L312.28,151.35L314.56,149.02L317.23,148.94L318.69,146.74L318.78,144.88L317.34,137.56L319.03,131.91L320.04,131.17L323.21,131.07L326.48,129.65L328.01,127.38L328.44,125.68L327.66,123.72L328.89,122.09L331.25,121.58L333.73,122.48L337.35,121.26L336.77,124.43L337.09,126.08L339.55,127.48L338.81,129.29L341.75,130.5L344.12,132.4L343.95,133.76L346.66,135.21L349.35,137.4L350.77,136.21L352.49,136.14L354.5,139.14L355.79,139.16L359.23,141.24L360.27,143.44L360.8,146.57L362.69,149.68L364.26,150.3L365.56,153.51L365.69,155.27L364.24,158.55L365.21,162.11L362.43,166.04L362.08,168.44L363.23,170.16L363.95,172.48L366.17,172.35L370.19,174.09L373.89,174L378.24,174.73L383.09,174.63L386.92,175.28L392.94,179.01L394.06,180.67L396.25,181.64L397.29,182.87L399.87,184L403.65,183.58L402.97,186.55L404.76,187.24L405.98,190.98L407.65,194.33L407.76,195.96L411.52,200.55Z" class="land" id="CN-XJ" title="Xinjiang Uygur"/>
    <path d="M259.57,295.9L260.53,296.28L261.52,295.13L265.83,295.09L267.18,294.75L268.86,290.7L269.37,288.59L271.51,286.39L271.5,285.37L272.99,284.31L274.94,285.59L277.87,285.92L281.48,285.39L282.5,286.61L285.19,286.44L286.52,285.71L286.8,284.42L289.17,283.3L290.01,281.64L294.77,282.03L295.1,284.04L296.22,284.96L297.23,284.73L299.85,285.57L302.72,285.36L304.37,284.83L305.43,285.39L307.8,284.11L307.81,283.36L311.18,282.37L312.89,281.22L314.93,280.86L317.18,281.6L320.93,280.82L321.8,280.16L323.05,277.1L327.95,275.31L331.36,275.28L333.36,273.99L335.04,274.79L337.85,274.49L338.64,273.75L342.9,273.27L345.5,275.23L346.88,274.55L348.67,275.76L349.59,275.3L351.8,276.86L353.93,277.58L351.93,278.2L351.22,279.33L354.5,280.08L353.55,284.72L351.89,285.32L351.49,286.75L352.68,288.01L352.47,289.93L354.54,290.09L355.11,291.16L353.9,292.15L354.64,294.05L354.63,298.05L353.16,299.26L354.45,301.18L355.65,301.88L356.17,303.68L358.29,305.02L358.36,306.06L359.53,307.45L360.57,307.53L362.39,308.82L363.59,309.13L364.86,307.77L368.26,307.67L369.91,309.74L373.46,312.17L375,311.48L376.06,313.19L377.73,312.73L381.36,313.42L382.59,312.94L383.03,314.14L384.63,313.8L385.8,315.19L387.02,315.72L388.2,314.72L389.58,314.92L392.4,316.16L392.99,315.3L394.39,315.25L396.61,313.7L399.04,315.88L400.66,318.07L402.64,318.02L403.74,319.01L403.2,321.02L404.5,323.21L405.44,322.87L407.55,323.51L409.57,323.6L410.34,321.73L411.46,321.24L413.47,323.48L416.01,323.47L415.32,322.17L417.03,319.95L418.87,320.31L419.6,319.79L419.93,317.7L421.06,317.45L420.65,315.2L423.3,315.73L423.8,315.19L425.89,315.75L427.86,316.91L428.12,318.25L429.93,320.52L429.78,322.36L431.58,324.84L433.87,327.02L432.97,328.3L431.7,327.43L431.42,328.94L433.13,330.8L432.98,331.97L434.55,333.32L434.05,334.04L434.67,337.09L434.76,339.43L435.51,341.73L434.84,344.33L435.34,345.47L435.87,348.56L434.57,349.2L435.06,350.52L434.2,351.29L431.67,351.32L432.17,353.7L431.33,354.33L431.58,356L432.73,357.66L432.34,358.73L429.68,359.96L429.29,358.11L427.36,359.55L425.26,357.3L424.41,357.7L423.63,355.93L422.46,355.63L421.55,358.3L420.54,358.7L418.23,357.35L417.39,357.88L415.52,357.34L414.49,356.4L411.93,357.11L412.24,355.42L414.07,353.28L413.22,351.36L411.71,350.75L410.86,351.64L409.69,350.3L410.96,349.47L410.22,347.43L409.39,346.44L408.31,347.25L406.74,347.51L405.07,348.89L403.86,350.72L402.14,349.98L398.83,349.23L396.7,347.59L396.09,348.79L394.98,348.81L393.09,350.23L392.57,351.53L389.86,353.99L385.43,354.66L384.08,356.65L384.4,357.71L382.69,358.01L380.73,359.01L379.54,360.39L380.21,361.12L378.65,362.78L376.51,363.21L375.59,362.41L373.04,363.83L372.21,362.89L370.58,362.45L367.81,360.12L365.91,361.32L362.62,360.11L360.27,360.65L361.69,358.87L355.45,358.01L354.54,359.27L352.87,359.46L350.63,361.38L348.7,364.78L347.35,365.93L347.14,366.95L345.9,366.91L345.51,365.29L346.2,364.28L346.09,360.9L344.2,359.99L342.25,361.21L339.99,361.38L338.1,362.83L335.14,362.32L332.12,362.82L330.47,361.62L328.31,360.83L327.48,359.95L325.07,361.35L323.23,361.13L322.45,361.62L321.03,361.18L320.42,359.87L317.54,357.91L314.82,358.22L313.61,357.71L314.29,354.88L313.75,354.28L311.37,355.38L309.91,354.93L309.62,353.8L307.53,353.69L307.36,352.55L306.15,351.94L304.9,350.57L305.59,348.96L303.16,347.94L300.66,349.37L299,348.19L297.22,345.24L292.95,343.44L290.75,340.96L288.13,340.11L287.7,337.72L286.46,337.65L283.21,336.66L281.22,336.86L281.03,338.98L279.4,340.74L277.76,338.38L276.02,337.81L274.04,336.11L270.78,335.15L270.36,332.84L268.19,332L266.68,330.83L265.23,331.37L262.82,329.38L261.33,326.42L259.15,328.14L257.64,325.61L258.72,324.61L257.5,322.78L258.2,320.66L255.3,318.12L256,316.34L255.07,314.91L256.93,314.38L257.98,313.46L258.29,315.75L260,317.12L261.3,315.86L262.93,315.63L264.96,314.38L264.86,312.8L263.28,310.52L263.78,308.44L261.82,308.31L258.66,305.25L257.68,303.45L258.31,302.24L257.64,299.07L259.98,297.26Z" class="land" id="CN-XZ" title="Xizang (Tibet)"/>
    <path d="M435.87,348.56L435.83,352.97L436.48,355.16L436.4,356.9L437.62,358.85L438.3,358.74L438.2,355.69L439.42,355.21L440.32,352.94L443.12,355.19L445.13,358.8L443.93,359.18L444.32,360.6L446.31,362.34L448.41,362.84L449.2,361.83L451.3,364.85L452.86,368.01L453.81,368.84L453.61,370.59L455.56,371.96L455.52,373.06L456.6,374.03L455.81,375.18L457.9,376.72L458.38,378.24L459.34,379.04L461.92,379.92L464.43,377.73L466.57,377.32L467.58,377.91L469.67,377.18L470.32,375.38L469.65,372.83L468.67,370.54L468.8,367.88L471.02,366.68L472.22,364.64L474.12,362.84L474.24,361.3L473.74,359.75L475.35,358.4L476.02,358.97L477.38,357.97L476.66,355.81L478.12,355L480.58,354.6L480.78,357.08L482.55,358.53L482.39,359.81L481.22,360.54L483.62,362.53L486.21,361.88L487.07,360.39L488.88,360.37L489.92,363.89L489.55,365.75L486.11,367.98L485.67,367.38L483.93,367.8L481.69,366.25L480.77,367.87L477.96,366.5L477.41,367.82L475.31,369.69L476.59,371.31L475.94,372.73L476.91,375.37L478.63,375.56L479.68,374.32L482.77,374.93L484.48,376.95L483.26,378.16L483.07,379.7L481.4,384.43L482.32,385.64L484.14,386.78L485.03,388.2L484.76,390.32L483.32,391.97L483.19,392.86L482.76,393.62L483.91,395.95L485.19,395.46L486.78,395.96L487.7,395.64L489.31,398.05L491.51,399.65L494.62,399.6L496.02,398.63L496.85,399.59L497.68,401.55L497.23,403.98L495.88,404.74L494.48,404.49L491.88,407.07L492,407.59L490.14,405.7L489.27,406.85L488.04,406.86L486.18,408.23L486.09,409.92L484.89,410.84L483.6,410.82L481.73,412.34L480.99,410.94L479.56,411.21L478.9,412.04L478.38,414.1L475.59,411.43L474.47,413.28L472.63,411.15L472.27,412.47L470.46,414.65L469.22,414.31L468.63,413.1L465.46,411.51L463.48,414.17L463.38,414.97L459.27,414.19L458.38,414.43L457.89,416.18L457.14,416.54L457.8,419.16L459.18,420.45L458.82,425.31L458.52,426.87L457.28,425.94L454.85,426.59L454.08,424.41L454.27,423.07L453.38,422.06L453.46,420.99L450.92,422.18L449.55,423.74L447.92,423.97L446.95,423.2L445.35,424.12L443.17,420.55L443.62,419.1L440.59,417.89L439.05,417.58L437.84,417.94L436.34,417.37L438.29,414.16L437.73,411.78L439.81,410L439.36,408.63L437.92,408.14L435.85,408.53L435.39,407.78L433.88,407.6L434.22,405.4L433.21,404.27L433.94,403.54L433.36,402.18L432.32,401.51L432.08,400.28L433.49,399.41L433.85,398.41L431.47,398.99L430.84,398.66L427.36,398.92L425.15,399.8L423.09,401.38L422.95,399.9L424.04,398.27L423.36,395.63L422.11,395.72L422.26,392.79L423.63,391.87L423.81,389.62L424.8,387.71L425.71,388.14L427.37,386.54L427.73,384.95L429.31,384.87L430.37,382.48L431.72,382.52L432.38,381.56L431.16,379.46L432.59,376.88L432.98,374.58L432.77,371.71L432.15,368.76L432.55,367.75L432.3,365.3L430.24,364.07L429.07,365.68L428.09,363.66L427.96,361.9L427.36,361.32L427.36,359.55L429.29,358.11L429.68,359.96L432.34,358.73L432.73,357.66L431.58,356L431.33,354.33L432.17,353.7L431.67,351.32L434.2,351.29L435.06,350.52L434.57,349.2Z" class="land" id="CN-YN" title="Yunnan"/>
    <path d="M621.81,368.46L621.29,366.93L620.44,366.59L618.31,367.1L617.19,367.86L615.57,366.6L615.04,365L613.85,364.37L611.67,366.69L609.63,365.95L608.71,366.27L608.63,363.81L607.06,360.46L607.77,359.79L607,357.92L604.55,358.12L604.62,354.32L603.1,351.83L601.69,351.14L601.09,349.29L602.5,347.12L605.05,345.96L605.62,344.91L607.28,343.71L607.42,342.59L608.63,341.53L608.41,339.94L609.17,337.36L611.55,338.05L612.6,336.79L611.88,335.15L613.42,334.43L614.56,332.54L615.1,329.48L617.52,329.11L618.24,330.63L619.63,331.55L621.53,331.36L622.74,333.27L624.28,331.37L626.13,330.78L627.01,330.89L629.36,334.06L626.95,335.4L626.24,337.28L624.97,337.8L625.88,339.45L628.58,337.72L629.93,337.7L631.49,338.92L633.02,341.21L634,341.36L635.65,342.88L633.17,345.46L631.32,345.62L630.97,346.93L635.05,344.62L635.66,346.5L634.97,348.1L635.22,349.13L633.01,349.36L633.41,351.57L632.64,352L632.46,354.02L631.51,354.42L632.15,357.94L631.09,357.74L630.24,358.79L628.1,358.22L626.75,361.17L623.58,365.04L622.85,368.94ZM635.99,341.1L635.59,339.51L636.66,339.44L638.72,340.81Z" class="land" id="CN-ZJ" title="Zhejiang"/>
  </g>
</svg>