<?xml version="1.0" encoding="UTF-8"?>
<svg xmlns="http://www.w3.org/2000/svg" width="741.79" height="379.25" viewBox="109.11 67.38 741.79 379.25" style="background-color:#000000">
  <!-- Created using SVG Map Generator: dojo.amcharts.com/svg-map-generator -->
  <style>
    .land { fill: #ffffff; stroke: #000000; stroke-width: 0.65; }
  </style>
  <g id="polygons">
    <path d="M347,125.02L344.2,132.22L344.19,135.98L345.31,138.99L344.62,141.63L341.73,148.07L338.02,151.37L335.41,156.33L327.31,157.57L324.26,159.04L319.45,159.96L316.64,161.71L317.77,165.42L320.1,165.69L320.09,172.22L321.79,174.38L322.92,178.55L321.67,180.76L319.19,181.89L317.54,184.06L318.88,186.27L320.01,192.64L320.14,200.19L321.12,202.6L324.7,207.12L324.76,210.17L323.5,214.9L320.04,216.7L316.2,222.32L311.53,227.54L305.29,231.83L298.31,235.25L293.61,236.62L288.58,242.63L280.75,246.57L279.56,239.43L278.58,230.13L277.67,224.26L274.96,212.94L271.54,202.75L268.16,196.72L266.51,196.98L264.8,194.53L261.81,193.2L254.28,191.66L252.09,189.92L243.1,187.51L239.58,189.17L236.72,188.5L235.74,186.26L232.27,182.27L231.59,180.52L229.25,166.74L226.1,159.79L224.8,158.53L219.74,158.58L217.75,160.66L213.27,156.75L212.54,154.87L210.04,152.53L207.75,148.94L205.43,146.61L200.71,145.44L193.27,144.73L189.4,145.06L185.43,144.77L180.89,142.72L176.17,144.22L174.24,144.26L172.17,142.31L169.73,138.41L166.83,136.32L162.84,136.41L158.23,134.74L154,131.81L151.68,132.07L149.88,133.36L148.3,136.04L141.1,129.81L140.55,127.38L139.76,118.13L138.2,111.98L137.01,110.09L133.05,108.09L129.23,107.2L124.97,104.22L123.05,103.63L119.26,101.16L111.76,99.98L112.05,94.3L114.71,89.16L115.5,85.35L117.87,81.26L120.92,78.2L121.08,72.99L122.15,72.21L125.21,72.48L130.49,70.84L133.72,71.22L135.32,70.27L139.32,70.03L142.57,72.33L144.82,72.42L147.25,74.6L149.47,74.18L151.57,75.16L156.98,75.66L159.08,74.19L163.41,75.84L165.41,77.84L173.22,80.14L174.89,79.22L177.62,75.92L182.04,73.57L183.86,73.75L185.97,76.74L190.38,77.96L195.41,81.26L201.75,84.77L206.94,84.83L208.94,86.29L209.22,89.49L212.03,91.28L213.15,93.85L214.61,94.36L219.89,92.91L223.56,95.3L224.95,99.1L226.95,100.37L231.34,101.07L233.35,98.45L235.49,98.51L244.28,101.73L247.97,104.06L251.39,104.72L254.45,107.66L256.62,107.65L260.67,103.5L264.97,103.53L266.34,104.78L266.63,111.36L267.46,112.22L272.76,113.26L274.47,115.31L280.07,118.7L281.05,120.51L284.15,122.53L288.58,124.17L292.85,123.51L296.16,125.35L298.76,125.11L301,122.92L303.95,125.52L309.64,127.29L313.77,126.22L315.48,124.43L314.71,122.28L316.61,120.92L317.97,122.32L323.69,124.05L324.96,125.98L331.92,125.68L334.23,128.33L336.31,128.75L338.88,127.19L342.37,126.74L344.99,124.75Z" class="land" id="GE-AB" title="Abkhazia"/>
    <path d="M304.78,321.17L313.5,321.63L315.43,322.19L321.19,322.36L324.13,324.28L324.48,328.52L328.63,328.61L331.81,331.38L336.33,332.92L337.76,334.92L343.21,332.77L347.79,332.83L350.58,334.06L352.23,337.16L357.96,335.71L363.58,335.8L366.21,333.25L369.97,330.81L374.37,330.9L376.41,333.02L377.78,335.83L379.06,336.48L382.85,336.51L384.63,340.59L384.79,344.81L382.74,347.72L382.39,349.77L384.35,354.46L386.59,357.19L389.15,358.75L392.38,363.03L394.67,369.76L393.44,371.33L393.37,373.88L392.02,376.68L392.49,378.79L390.23,381.34L388.79,381.22L385.97,384.99L387.42,388.17L381.72,389.27L379.06,389.12L375.5,386.66L374.73,385.28L370.72,385.58L368.65,384.36L366.64,384.64L361.68,381.25L357.4,380.81L352.96,381.02L350.16,378.26L343.19,379.54L338.65,379.01L335.86,381.05L332.01,379.58L329.17,379.41L327.46,376.68L325.06,376.77L321.51,379.83L319.82,380.33L318.56,383.42L316.65,386.1L313.73,387.04L312.56,389.16L310.56,389.97L309.23,387.9L306.67,386.03L302.97,384.24L298.77,384.04L299.09,381.21L298.01,380.73L292.11,382.79L283.73,377.46L280.38,376.53L281.88,373.78L282.31,368.44L283.16,365.09L287.33,359.54L289.41,357.63L291.17,358.8L293.8,357.91L298.92,350.44L301.6,342.47L303.04,340.54L304.62,335.96L305.63,327.17Z" class="land" id="GE-AJ" title="Ajaria"/>
    <path d="M303.1,287.22L306.72,286.16L314.18,286.22L320.59,284.92L322.92,283.94L328.2,283.96L331.78,283.14L338.88,285.34L343.18,289.21L345.84,289.83L351.77,290.01L354.51,291.17L355.12,292.45L352.67,294.35L352.36,296.4L353.68,299.17L355.68,300.36L358.66,300.41L361.73,301.99L364.02,302.02L365.5,299.48L369.55,299.34L372.42,300.19L374.04,303.45L376.09,309.05L379.28,309.32L383.32,311.36L385.72,313.64L388.95,314.71L392.29,316.88L398.95,317.1L400.63,319.72L400.66,327.64L401.3,331.38L398.33,331.35L396.03,333.12L394.36,337.07L392.23,337.63L389.54,336.14L386.59,335.92L382.85,336.51L379.06,336.48L377.78,335.83L376.41,333.02L374.37,330.9L369.97,330.81L366.21,333.25L363.58,335.8L357.96,335.71L352.23,337.16L350.58,334.06L347.79,332.83L343.21,332.77L337.76,334.92L336.33,332.92L331.81,331.38L328.63,328.61L324.48,328.52L324.13,324.28L321.19,322.36L315.43,322.19L313.5,321.63L304.78,321.17L304.38,319.1L302.97,304.41L300.81,300.97L299.1,295.26L300.63,294.61L299.8,292.02L303.37,290.25Z" class="land" id="GE-GU" title="Guria"/>
    <path d="M397.42,229.07L398.62,230.5L398.43,236.5L399.45,238.21L399.36,242.27L401.65,242.33L406.95,240.16L407.95,238.2L409.75,237.81L415.61,240.13L418.2,239.22L419.06,236.26L421.98,236.98L423.53,238.85L428.61,241.17L433.55,246.05L434.69,248.62L434.85,251.19L436.26,253.15L439.55,253.32L441.9,254.51L445.39,257.33L447.89,256.2L453.11,255.81L459.08,253.01L462.26,248.84L466.19,246.87L467.87,245.13L471.38,245.25L474.25,244.61L479.85,244.62L483.21,245.71L488.11,246.33L493.21,244.77L494.85,244.86L500.13,247.52L504.24,248.32L506.6,250.48L514.27,251.65L519.67,248.41L523.53,249.19L524.67,252.43L522.59,257.62L523.19,261.07L519.54,261.9L517.33,263.24L512.44,264.01L506.65,269.9L506.07,272.71L507.05,275.28L507.11,279.14L506.48,282.23L504.24,283.32L503.13,285.01L501.08,291.42L498.27,294.72L493.6,297.11L493.02,299.64L493.03,307.63L492.57,309.05L488.33,312.15L486.05,315.1L486.53,319.12L482.93,319.84L479.42,322.44L475.29,323.28L472.48,325.24L461.28,328.95L453.26,332.78L450.68,331.46L447.2,332.18L443.5,332.24L435.7,333.36L433.67,334.98L431.15,334.86L428.36,333.43L422.92,333.06L421.03,332.15L417.71,332.19L414.22,333.86L412.16,335.71L408.47,335.95L404.43,334.89L401.3,331.38L400.66,327.64L400.63,319.72L398.95,317.1L392.29,316.88L388.95,314.71L385.72,313.64L383.32,311.36L379.28,309.32L376.09,309.05L374.04,303.45L372.42,300.19L369.55,299.34L365.5,299.48L364.02,302.02L361.73,301.99L358.66,300.41L355.68,300.36L353.68,299.17L352.36,296.4L352.67,294.35L355.12,292.45L359.11,292.6L361.1,291.06L361.82,286.9L361.66,273.71L364.33,273.07L364.52,269.7L369.35,262.03L372.07,256.66L374.71,254.56L379.88,248.8L380.03,241.59L380.59,240.12L383.02,238.02L383.01,235.21L388.08,230.04L392.36,230.08L394.5,228.98Z" class="land" id="GE-IM" title="Imereti"/>
    <path d="M691,386.18L690.29,382.62L692.05,380.99L688.83,378.22L685.06,375.96L682.56,376.74L679.12,372.4L677.5,371.4L675.67,368.47L675.83,366.38L679.12,363.02L679.64,360.93L678.02,358.63L677.5,354.69L680.16,352.91L677.71,349L675.41,347.08L676.36,344.29L675.52,342.62L673.74,342.78L671.71,345.71L670.45,344.97L666.6,339.73L667.28,336.27L666.75,333.61L664.43,331.97L666.55,330.79L665.72,326.89L661.62,324.37L666.93,319.22L668.87,319.65L673.07,322.95L676.06,323.5L677.91,322.6L682.66,321.82L681.59,319.44L678.86,316.86L668.96,314.81L667.26,314.07L666.82,309.51L669.4,305.8L667.63,301.64L665.7,298.92L666.82,296.68L665.01,292.48L667.07,289.2L667.79,282.15L669.03,277.81L671.42,275.31L671.84,270.39L672.49,268.98L675.62,265.88L677.49,263.01L683.46,261.01L684.64,258.71L684.14,254.92L682.49,251.28L682.79,246.61L687.31,243.22L687.73,237.08L686.64,233.11L690.27,226.45L692.57,223.5L693.51,225.57L695.69,227.82L697.71,228.36L703.89,226.39L706.64,226.2L715.61,226.48L718.54,225.24L722.67,225.85L725.37,228.53L731.76,231.68L737.08,234.89L741.77,234.77L743.58,236.5L744.37,239.19L744.13,242.15L739.56,249.65L739.01,251.68L739.53,254.52L738.8,257.8L740.9,259.97L741.08,261.62L737.62,263.81L732.4,264.85L729.62,263.98L725.82,274.42L729.79,278.02L732.3,278.8L739.18,283.28L741.04,285.99L743.67,288.22L749.12,290.52L752.61,290.09L756.33,291.68L758.79,293.8L759.06,297.64L761.03,301.81L763.21,303.07L765.98,300.84L768.77,301.38L770.68,300.62L771.87,303.26L773.69,303.05L775.63,300.79L777.05,301.67L778.09,306.17L780.41,308.09L781.54,305.02L783.68,304.62L787.2,308.46L791.35,308.25L793.89,306.56L796.02,307.01L797.5,309.58L802.46,314.2L803,316.06L804.74,316.2L805.94,313.27L808.95,314.59L811.23,313.08L812.01,318.66L814.96,320.48L814.58,324.59L812.85,328.8L810.42,331.53L806.31,334.02L801.54,338.35L796.03,339.5L791.13,341.28L788.24,345.09L789.8,353.12L791.36,357.81L791.58,364.74L793.58,367.19L796.7,364.06L801.77,365.97L803.18,372.16L806.19,376.3L806.15,379.69L807.68,381.47L814.23,384.1L814.43,386.04L817.2,386.4L819.77,389.46L822.72,391.59L830.66,394.62L830.93,395.31L835.95,396.57L839.6,401.28L843.22,404.32L843.67,407.27L845.03,409.92L847.61,410.14L848.24,411.57L844.92,414.93L844.82,417.91L842.9,419.85L840.56,423.56L841.75,426.82L840.26,430.43L840.47,434.8L839.11,437.74L834.74,438.31L833,436.3L827.86,434.67L825.73,436.18L822.6,440.7L821.1,443.6L819.6,443.97L817.1,440.64L816.6,437.49L814.09,436.49L811.71,437.76L809.71,437.76L801.21,426.82L797.95,423.8L791.57,423.56L787.19,424.05L784.69,422.8L780.32,424.02L779.54,426.87L778.05,427.71L774.92,426.79L769.64,426.69L766.45,427.35L762.9,427.12L760.07,425.51L757.75,423.42L753.34,421.19L749.39,420.94L745.73,419.85L743.49,418.1L738.01,414.8L733.55,408.21L736.73,403.75L740.04,403.17L737.79,399.89L734.86,401.28L728.79,398.74L724.86,399.48L721.83,397.59L720.93,394.2L713.7,391.89L710.26,388.49L707.24,387.83L703.97,391.21L702.3,391.27L697.17,387.8L695.51,386.04L692.97,385.06Z" class="land" id="GE-KA" title="K'akheti"/>
    <path d="M664.43,331.97L666.75,333.61L667.28,336.27L666.6,339.73L670.45,344.97L671.71,345.71L673.74,342.78L675.52,342.62L676.36,344.29L675.41,347.08L677.71,349L680.16,352.91L677.5,354.69L678.02,358.63L679.64,360.93L679.12,363.02L675.83,366.38L675.67,368.47L677.5,371.4L679.12,372.4L682.56,376.74L685.06,375.96L688.83,378.22L692.05,380.99L690.29,382.62L691,386.18L687.89,386.4L686.26,389.87L681.95,393.26L678.9,393.88L675.16,397.49L671.65,402.89L669.3,404.88L666.87,405.65L664.39,407.49L657.97,409.8L654.57,412.83L653.36,415.7L648.68,415.09L646.82,415.38L644.62,413.59L640.86,412.49L639.45,409.86L638.32,409.73L637.05,415.85L638.97,419.13L644.14,421.43L641.22,422.67L637.53,421.1L630.45,422.16L627.64,423.06L626.72,421.27L623.31,421.47L621.82,419.56L616.58,419.15L615.4,421.27L614.83,424.8L612.79,423.72L608.1,425.6L604.52,424.88L600.18,426.44L597.32,426.05L591.98,421.89L588.19,419.54L586.05,420.38L585.2,423.18L582.33,422.05L577.97,422.16L576.39,421.56L575.96,419.18L574.35,417.78L573.1,419.13L568.38,418.75L569.3,421.44L568.09,424.33L564.38,425.85L557.72,425.48L550.41,427.64L547.31,430.57L545.97,425.58L545.95,421.81L545.17,419.66L542.61,416.36L541.95,411.75L543.96,407.77L544.12,402.87L542.41,398.27L539.47,397.35L539.46,389.52L539.15,385.17L535.88,383.35L535.95,379.39L535.19,378.34L530.85,376.2L529.52,376.09L525.75,377.6L522.5,378.2L513.63,378.19L514.14,374.89L516.51,373.25L517.15,369.99L517.12,365.77L516.55,363.27L517.67,359.27L517.74,353.87L518.46,351.85L522.1,351.19L529.63,353.38L530.83,352.78L535.3,348.38L537.03,346L541.25,346.03L544.86,347.21L554.09,347.3L560.27,348.37L563.55,348.35L567.05,346.71L570.14,346.96L571.94,347.97L577.2,348.4L587.12,343.65L590.92,347.72L592.35,348.09L600.15,348.13L602.76,345.81L607.4,346.02L611.47,350.15L612.72,352.93L614.75,354.97L620.02,354.65L623.33,351.28L625.42,353.5L634.56,357.42L636.13,359.52L643.69,360.52L646.34,363.08L647.46,361.1L649.68,362.18L652.77,361.76L653.92,359.99L656.1,358.63L656.47,356.79L658.72,353.54L656.21,352.82L654.34,354.28L648.99,352.81L646.55,352.6L645.2,349.37L640.81,345.75L640.03,344.59L642.02,344.59L644.37,342.4L644.28,339.89L646.4,336.74L644,334.06L645.3,332.71L648.07,333.7L650.68,331.19L654.88,329.5L658.5,331.02L662.11,331.16Z" class="land" id="GE-KK" title="Kvemo Kartli"/>
    <path d="M692.57,223.5L690.27,226.45L686.64,233.11L687.73,237.08L687.31,243.22L682.79,246.61L682.49,251.28L684.14,254.92L684.64,258.71L683.46,261.01L677.49,263.01L675.62,265.88L672.49,268.98L671.84,270.39L671.42,275.31L669.03,277.81L667.79,282.15L667.07,289.2L665.01,292.48L666.82,296.68L665.7,298.92L667.63,301.64L669.4,305.8L666.82,309.51L667.26,314.07L668.96,314.81L678.86,316.86L681.59,319.44L682.66,321.82L677.91,322.6L676.06,323.5L673.07,322.95L668.87,319.65L666.93,319.22L661.62,324.37L665.72,326.89L666.55,330.79L664.43,331.97L662.11,331.16L658.5,331.02L654.88,329.5L650.68,331.19L648.07,333.7L645.3,332.71L644,334.06L646.4,336.74L644.28,339.89L644.37,342.4L642.02,344.59L640.03,344.59L638.06,341.66L639.52,339.31L638.32,336.32L634.08,335.91L629.97,337.26L627.45,336.79L626.83,338.78L630.69,339.84L631.94,341.93L627.91,346.9L626.6,347.24L623.33,351.28L620.02,354.65L614.75,354.97L612.72,352.93L611.47,350.15L607.4,346.02L602.76,345.81L601.31,341.57L601.51,340.09L604.17,338.36L603.68,330.97L605.03,329.04L611.11,329.5L612.39,327.02L612.39,324.24L610.1,321.01L606.65,317.44L604.95,314.07L604.8,307.77L601.1,303.45L597.04,303.47L590.33,301.78L586.06,302.92L584.62,305.6L581.84,307.24L581.89,303.29L581.1,302.23L578.12,302.69L577.8,298.95L579.32,295.35L579.02,288.35L579.91,286.64L579.6,283.69L580.77,281.37L583.26,279.59L585.52,275.1L588.79,273.54L589.44,271.16L589.36,267.46L586.55,262.69L586.52,259.14L588.19,256.85L588.25,254.76L587.04,252.29L583.8,250.3L582.91,244.3L580.97,243.34L581.5,239.91L583.6,237.74L583.66,236.19L586.22,233.45L584.64,230.16L582.02,228.88L580.16,225.7L580.09,223.63L577.99,222.41L574.12,221.7L571.95,219.35L570.14,214.31L573.81,212.75L574.74,209.4L577.68,204.54L580.13,202.83L584.97,200.86L588.94,200.49L593.96,201.06L597.3,199.5L599.62,197.59L603.45,195.48L606.96,195.2L615.66,196.31L622.2,195.33L627.1,197.16L629.36,199.77L631.46,211.21L633.81,213.96L637.13,213.05L639.3,207.79L640.86,202.6L642.94,199.13L645.92,195.84L651.33,194.98L656.11,196.19L663.14,202.67L668.4,203.66L673.61,202.33L676.43,202.61L678.66,204.24L687.38,215.39L691.78,219.68Z" class="land" id="GE-MM" title="Mtskheta-Mtianeti"/>
    <path d="M539.47,222.25L540.55,226.79L539.37,230.86L531.99,235.13L530.43,239L525.01,240.73L519.8,241.34L512.89,241.34L504.84,244L504.24,248.32L500.13,247.52L494.85,244.86L493.21,244.77L488.11,246.33L483.21,245.71L479.85,244.62L474.25,244.61L471.38,245.25L467.87,245.13L466.19,246.87L462.26,248.84L459.08,253.01L453.11,255.81L447.89,256.2L445.39,257.33L441.9,254.51L439.55,253.32L436.26,253.15L434.85,251.19L434.69,248.62L433.55,246.05L428.61,241.17L423.53,238.85L421.98,236.98L419.06,236.26L418.2,239.22L415.61,240.13L409.75,237.81L407.95,238.2L406.95,240.16L401.65,242.33L399.36,242.27L399.45,238.21L398.43,236.5L398.62,230.5L397.42,229.07L395.25,223.71L388.96,214.08L388.87,209.45L389.75,207.57L391.99,206.15L387.89,201L382.49,197.96L378.94,197.07L374.94,193.88L370.96,191.55L368.68,188.83L371.86,182.63L373.07,181.87L377.21,181.87L381.09,180.81L382.28,178.94L383.19,175.07L387.08,175.03L391.44,177.2L396.53,177.33L399.89,178.01L404.12,180.12L411.08,180.85L413.67,179.58L416.9,177.11L424.14,179.36L428.63,182.74L434.12,181.68L442.95,181.36L444.16,184.88L447.34,184.4L448.78,182.86L448.87,176.25L451.67,174.5L453.12,171.21L458.9,166.48L460.42,167.41L468.49,169.65L474.93,172.7L477.41,174.43L483.97,173.54L490.81,174.29L495.33,177L501.41,178.01L506.13,181.54L506.96,183.92L510.54,187.92L515.38,188.44L519.06,191.9L526.56,195.36L528.12,198.61L527.97,200.1L523.93,208.2L521.23,210.05L520.03,213.66L524.29,219.61L528.99,218.77L530.56,220.85L534.59,220.03L535.89,221.41Z" class="land" id="GE-RL" title="Rach'a-Lechkhumi-Kvemo Svaneti"/>
    <path d="M486.53,319.12L489.87,318.63L494.14,319.75L497.03,321.46L498.84,321.64L501.8,323.62L501.94,326.7L504.58,329L505.54,332.93L511.9,333.15L512.44,337.25L515.17,337.89L519.81,341.26L523.67,341.16L525.62,340.17L531.2,340.34L536.86,342.62L537.03,346L535.3,348.38L530.83,352.78L529.63,353.38L522.1,351.19L518.46,351.85L517.74,353.87L517.67,359.27L516.55,363.27L517.12,365.77L517.15,369.99L516.51,373.25L514.14,374.89L513.63,378.19L522.5,378.2L525.75,377.6L529.52,376.09L530.85,376.2L535.19,378.34L535.95,379.39L535.88,383.35L539.15,385.17L539.46,389.52L539.47,397.35L542.41,398.27L544.12,402.87L543.96,407.77L541.95,411.75L542.61,416.36L545.17,419.66L545.95,421.81L545.97,425.58L547.31,430.57L543.61,429.29L537.03,429.51L533.41,429.17L530.08,430.34L524.26,434.04L522.13,436.85L519.85,436.82L513.91,433.27L509.64,435.13L507.08,435.1L502.82,431.91L499.17,431.71L493.57,434.54L491.46,434.54L489.25,429.04L487.74,427.26L484.23,425.98L481.91,424.33L478.76,424.07L469.87,426.94L464.61,427.74L465.19,425.31L461.49,417.32L459.07,416.27L456.58,417.6L453.35,416.36L458.95,413.31L461.32,411.21L461.59,409.13L453.97,407.04L450.89,401.68L447.03,399.6L444.93,399.45L442.47,398.22L440.8,395.43L439.03,393.99L438.01,391.11L436.84,390.1L436.41,387.49L433.71,386.51L432.21,384.4L429.26,383.2L428.27,379.85L425.06,380.52L423.96,384.01L422.96,384.42L418.85,381.46L417.18,378.59L417.54,376.71L420.08,375.13L419.81,371.93L422.05,370.02L421.01,367.5L417.06,367.41L415.99,368.92L411.21,366.57L407.73,366.01L404.39,366.12L398.2,368.03L396.64,367.79L394.67,369.76L392.38,363.03L389.15,358.75L386.59,357.19L384.35,354.46L382.39,349.77L382.74,347.72L384.79,344.81L384.63,340.59L382.85,336.51L386.59,335.92L389.54,336.14L392.23,337.63L394.36,337.07L396.03,333.12L398.33,331.35L401.3,331.38L404.43,334.89L408.47,335.95L412.16,335.71L414.22,333.86L417.71,332.19L421.03,332.15L422.92,333.06L428.36,333.43L431.15,334.86L433.67,334.98L435.7,333.36L443.5,332.24L447.2,332.18L450.68,331.46L453.26,332.78L461.28,328.95L472.48,325.24L475.29,323.28L479.42,322.44L482.93,319.84Z" class="land" id="GE-SJ" title="Samtskhe-Javakheti"/>
    <path d="M570.14,214.31L571.95,219.35L574.12,221.7L577.99,222.41L580.09,223.63L580.16,225.7L582.02,228.88L584.64,230.16L586.22,233.45L583.66,236.19L583.6,237.74L581.5,239.91L580.97,243.34L582.91,244.3L583.8,250.3L587.04,252.29L588.25,254.76L588.19,256.85L586.52,259.14L586.55,262.69L589.36,267.46L589.44,271.16L588.79,273.54L585.52,275.1L583.26,279.59L580.77,281.37L579.6,283.69L579.91,286.64L579.02,288.35L579.32,295.35L577.8,298.95L578.12,302.69L581.1,302.23L581.89,303.29L581.84,307.24L584.62,305.6L586.06,302.92L590.33,301.78L597.04,303.47L601.1,303.45L604.8,307.77L604.95,314.07L606.65,317.44L610.1,321.01L612.39,324.24L612.39,327.02L611.11,329.5L605.03,329.04L603.68,330.97L604.17,338.36L601.51,340.09L601.31,341.57L602.76,345.81L600.15,348.13L592.35,348.09L590.92,347.72L587.12,343.65L577.2,348.4L571.94,347.97L570.14,346.96L567.05,346.71L563.55,348.35L560.27,348.37L554.09,347.3L544.86,347.21L541.25,346.03L537.03,346L536.86,342.62L531.2,340.34L525.62,340.17L523.67,341.16L519.81,341.26L515.17,337.89L512.44,337.25L511.9,333.15L505.54,332.93L504.58,329L501.94,326.7L501.8,323.62L498.84,321.64L497.03,321.46L494.14,319.75L489.87,318.63L486.53,319.12L486.05,315.1L488.33,312.15L492.57,309.05L493.03,307.63L493.02,299.64L493.6,297.11L498.27,294.72L501.08,291.42L503.13,285.01L504.24,283.32L506.48,282.23L507.11,279.14L507.05,275.28L506.07,272.71L506.65,269.9L512.44,264.01L517.33,263.24L519.54,261.9L523.19,261.07L522.59,257.62L524.67,252.43L523.53,249.19L519.67,248.41L514.27,251.65L506.6,250.48L504.24,248.32L504.84,244L512.89,241.34L519.8,241.34L525.01,240.73L530.43,239L531.99,235.13L539.37,230.86L540.55,226.79L539.47,222.25L543.82,223.96L546.34,223.48L551.31,218.43L553.33,217.03L556.11,217.37L560.93,215.69L564.29,216.22Z" class="land" id="GE-SK" title="Shida Kartli"/>
    <path d="M460.42,167.41L458.9,166.48L453.12,171.21L451.67,174.5L448.87,176.25L448.78,182.86L447.34,184.4L444.16,184.88L442.95,181.36L434.12,181.68L428.63,182.74L424.14,179.36L416.9,177.11L413.67,179.58L411.08,180.85L404.12,180.12L399.89,178.01L396.53,177.33L391.44,177.2L387.08,175.03L383.19,175.07L382.28,178.94L381.09,180.81L377.21,181.87L373.07,181.87L371.86,182.63L368.68,188.83L370.96,191.55L374.94,193.88L378.94,197.07L382.49,197.96L387.89,201L391.99,206.15L389.75,207.57L388.87,209.45L388.96,214.08L395.25,223.71L397.42,229.07L394.5,228.98L392.36,230.08L388.08,230.04L383.01,235.21L383.02,238.02L380.59,240.12L380.03,241.59L379.88,248.8L374.71,254.56L372.07,256.66L369.35,262.03L364.52,269.7L364.33,273.07L361.66,273.71L361.82,286.9L361.1,291.06L359.11,292.6L355.12,292.45L354.51,291.17L351.77,290.01L345.84,289.83L343.18,289.21L338.88,285.34L331.78,283.14L328.2,283.96L322.92,283.94L320.59,284.92L314.18,286.22L306.72,286.16L303.1,287.22L300.63,285.85L296.24,286.06L298.22,291.82L296.9,293.05L292.49,286.87L291.91,282.27L290.69,280.14L291.97,277.62L289.53,275.32L290.6,273.1L290.33,267.66L288.74,261.77L285.2,251.42L281.33,248.77L280.75,246.57L288.58,242.63L293.61,236.62L298.31,235.25L305.29,231.83L311.53,227.54L316.2,222.32L320.04,216.7L323.5,214.9L324.76,210.17L324.7,207.12L321.12,202.6L320.14,200.19L320.01,192.64L318.88,186.27L317.54,184.06L319.19,181.89L321.67,180.76L322.92,178.55L321.79,174.38L320.09,172.22L320.1,165.69L317.77,165.42L316.64,161.71L319.45,159.96L324.26,159.04L327.31,157.57L335.41,156.33L338.02,151.37L341.73,148.07L344.62,141.63L345.31,138.99L344.19,135.98L344.2,132.22L347,125.02L350.57,125.14L353.37,123.36L356.43,123.95L358.96,126.34L361.65,126.6L364.88,123.89L367.37,124.14L368.97,121.99L373.23,121.21L376.75,119.73L380.07,121L381.16,122.53L379.33,124.9L386.65,128L393.34,131.61L395.53,133.22L404.95,137.33L405.29,135.68L403.94,132.68L414,130.08L416.85,130.27L418.88,131.75L422.27,131.3L427.97,132.37L428.69,135.09L432.16,137.15L431.54,140.6L438.16,141.42L443.98,144.32L442.4,147.87L442.67,150.44L446.32,154.99L452.17,159.01L458.18,164.5Z" class="land" id="GE-SZ" title="Samegrelo-Zemo Svaneti"/>
    <path d="M640.03,344.59L640.81,345.75L645.2,349.37L646.55,352.6L648.99,352.81L654.34,354.28L656.21,352.82L658.72,353.54L656.47,356.79L656.1,358.63L653.92,359.99L652.77,361.76L649.68,362.18L647.46,361.1L646.34,363.08L643.69,360.52L636.13,359.52L634.56,357.42L625.42,353.5L623.33,351.28L626.6,347.24L627.91,346.9L631.94,341.93L630.69,339.84L626.83,338.78L627.45,336.79L629.97,337.26L634.08,335.91L638.32,336.32L639.52,339.31L638.06,341.66Z" class="land" id="GE-TB" title="Tbilisi"/>
  </g>
</svg>