<?xml version="1.0" encoding="UTF-8"?>
<svg xmlns="http://www.w3.org/2000/svg" width="498.21" height="366.04" viewBox="230.89 73.98 498.21 366.04" style="background-color:#000000">
  <!-- Created using SVG Map Generator: dojo.amcharts.com/svg-map-generator -->
  <style>
    .land { fill: #ffffff; stroke: #000000; stroke-width: 0.65; }
  </style>
  <g id="polygons">
    <path d="M517.63,311.44L513.35,311.17L508.75,316.32L503.99,315.88L502.43,305.76L493.97,310.2L493.06,296.34L495.53,295.37L490.93,289.15L494.71,289.24L498.57,284.71L507.85,284.71L508.92,285.42L507.52,288.8L510.31,297.05L517.54,307.09Z" class="land" id="HK-YT" title="Yau Tsim Mong"/>
    <path d="M470.55,161.29L469.48,164.58L458.07,179.87L457.41,182.18L460.78,189.65L461.43,194.45L467.68,202.36L468.09,205.82L465.71,210.26L461.19,210.62L457.74,214.35L452.15,215.51L447.71,214L441.47,220.39L437.69,218.88L434.24,219.24L430.71,222.97L426.93,222.97L424.88,226.7L422.41,226.35L418.63,229.01L418.96,223.33L411.73,222.62L411.73,217.02L414.11,215.51L413.79,212.49L407.54,212.49L406.88,215.51L375.09,215.51L374.68,207.69L370.9,206.18L370.57,200.58L362.93,200.58L360.55,197.2L361.95,191.6L353.98,193.82L341.49,193.02L340.51,191.16L323.5,190.8L320.79,196.76L315.53,203.16L315.12,196.93L315.29,196.67L321.2,192.76L322.1,187.34L327.36,181.82L327.61,178.45L331.47,176.94L337.14,173.03L341.49,172.49L346.75,169.56L348.39,167.34L350.86,159.6L359.57,151.78L362.28,143.87L365.48,140.66L375.5,143.6L374.85,150.98L372.96,150.98L373.7,157.91L377.8,162.09L380.27,160.4L382.57,154.98L386.68,154L385.11,149.73L379.36,153.2L378.46,150.53L386.43,146.53L386.02,142.62L388.07,137.64L393.41,132.84L397.52,127.95L400.31,126.79L405.49,128.3L411.4,127.95L413.79,125.28L414.85,119.68L418.3,116.74L426.27,114.88L430.05,117.46L435.23,114.08L438.35,111.5L441.14,112.92L440.07,117.81L442.13,121.99L439.42,123.86L441.14,131.68L439.75,133.55L442.13,138.44L441.47,142.89L439.01,148.93L439.01,161.29L445.25,160.85L450.43,158.27L454.29,158.62L459.46,156.76L465.71,162Z" class="land" id="HK-YL" title="Yuen Long"/>
    <path d="M549.01,279.47L541.78,280.62L539.31,278.32L534.14,278.67L531.43,277.61L525.84,281.34L522.06,279.12L519.6,280.18L517.21,270.5L513.44,265.97L516.48,264.46L523.05,264.46L524.77,261.53L527.89,262.59L530.69,260.37L536.19,260.02L540.71,259.31L544.57,256.64L547.61,256.64L547.45,263.48L549.34,276.1Z" class="land" id="HK-WT" title="Wong Tai Sin"/>
    <path d="M528.72,346.15L518.61,349.35L510.31,348.55L505.8,347.48L500.29,344.47L502.02,341.45L502.02,336.21L504.07,331.77L503,326L506.54,325.73L506.7,322.98L511.96,324.22L518.12,324.85L519.76,326.71L523.79,324.67L526.25,330.44L528.39,332.84L531.43,329.55L535.37,333.19L535.45,335.94L529.46,340.65Z" class="land" id="HK-WC" title="Wan Chai"/>
    <path d="M457.9,254.69L457.41,251.49L455.11,248.56L450.59,246.34L447.14,248.74L443.94,249L438.51,251.49L433.91,248.74L430.05,248.29L425.94,250.51L424.38,253.18L419.13,253.18L417.73,251.49L413.37,251.22L406.06,256.38L401.3,255.67L397.68,259.13L388.32,260.37L387.5,256.64L390.62,254.42L394.4,247.67L390.62,240.21L394.4,239.85L397.19,236.48L401.38,238.7L404.09,232.75L409.68,234.61L410.99,233.1L417.56,233.1L418.63,229.01L422.41,226.35L424.88,226.7L426.93,222.97L430.71,222.97L434.24,219.24L437.69,218.88L441.47,220.39L447.71,214L452.15,215.51L457.74,214.35L461.19,210.62L465.71,210.26L468.09,205.82L485.34,206.53L485.75,209.91L497.66,209.29L502.35,209.73L503.74,219.59L503,225.19L493.72,235.32L488.13,238.34L484.03,239.05L484.03,234.26L476.71,236.12L478.44,238.7L477.62,245.09L467.76,245.81L464.31,251.4ZM395.55,297.14L361.37,296.79L364.74,290.93L367.29,290.66L375.09,287.46L374.85,285.07L385.11,280.8L385.77,285.51L390.13,279.56L398.34,274.14L401.96,272.72L401.96,268.28L406.06,268.55L410.91,272.45L413.37,278.14L410.66,279.38L412.47,283.02L409.76,290.48L407.46,293.41L401.05,294.66L397.19,287.46L393.74,287.29ZM415.43,259.4L418.22,259.84L417.98,263.31L420.03,269.26L414.28,271.92L412.47,268.01L412.96,262.33Z" class="land" id="HK-TW" title="Tsuen Wan"/>
    <path d="M556.73,168.58L558.54,170.71L554.84,175.69L551.88,174L552.62,170.98ZM567.66,192.93L574.31,189.56L575.87,192.22L586.14,190.54L588.36,193.2L588.85,199.42L586.14,203.87L591.64,207.33L593.7,202.62L597.81,201.11L602.08,196.93L598.71,192.22L595.01,179.87L597.56,175.43L600.93,172.76L605.12,175.96L605.28,169.02L608.49,170.98L614.89,170L613.99,164.85L616.04,164.05L616.95,160.14L619.41,157.2L623.11,155.96L624.92,152.76L631.98,152.22L632.23,156.4L636.33,158.62L635.84,162.62L640.94,164.58L644.55,157.65L645.04,151.78L647.51,150.98L648.66,158.18L651.62,165.11L648.9,167.07L644.3,167.34L642.74,172.22L643.89,177.91L646.6,180.85L644.3,185.11L640.44,186.09L643.15,190L640.94,195.69L646.6,192.49L648.41,186.36L651.37,186.8L653.67,197.47L656.46,199.69L656.63,187.51L655.07,183.6L656.46,178.89L661.64,170.8L661.64,167.51L667.8,168.58L670.35,172.22L669.85,175.96L667.39,178.89L668.54,183.51L665.58,183.34L664.92,189.74L667.31,192.31L666.65,196.05L668.7,198.27L666.24,207.24L658.35,215.15L654.82,212.49L650.05,211.42L644.14,204.31L640.69,207.24L637.24,207.69L633.79,206.18L630.34,202.44L627.54,197.2L619.9,195.69L617.52,197.56L618.18,201.29L615.47,206.89L606.76,205.82L602.65,206.89L601.26,212.93L597.07,218.08L593.94,217.37L589.51,221.91L577.35,221.91L572.91,225.64L574.31,218.88L572.17,214.35L572.17,209.91L569.05,208.04L570.45,196.76ZM660.98,127.33L663.53,129.99L662.62,134.97L657.53,131.51ZM719.14,84.81L719.64,91.49L726.46,98.16L722.35,98.6L716.93,95.93L714.13,89.53L715.53,86.06ZM661.47,143.87L664.84,145.11L664.84,150.27L668.05,154L662.79,163.07L660.08,162.36L659.83,154.18L657.37,153.47L655.97,149.56ZM537.01,196.4L531.34,197.82L529.7,199.6L528.72,204.67L518.2,204.75L517.38,207.24L509.41,207.07L507.6,209.2L502.35,209.73L497.66,209.29L485.75,209.91L485.34,206.53L468.09,205.82L467.68,202.36L461.43,194.45L460.78,189.65L457.41,182.18L458.07,179.87L469.48,164.58L470.55,161.29L476.39,159.42L482.3,154.89L486.41,153.38L488.13,150L492.32,147.07L490.27,143.69L491.25,141.38L500.62,140.31L500.95,144.04L504.07,143.24L507.19,145.55L509.25,139.51L512.7,136.57L519.27,135.06L526.91,137.64L531.02,138.09L536.6,140.31L541.04,139.51L546.63,140.66L553.85,138.44L556.65,133.91L560.76,131.33L562.15,128.66L567.33,130.97L572.5,137.29L582.61,137.64L584.99,135.42L591.89,135.06L594.36,133.55L599.53,133.91L606.76,138.09L614.4,141.38L631.32,129.46L634.77,129.02L637.9,126.79L640.2,122.08L642.5,125.1L628.61,136.93L619.9,145.55L612.18,150.27L608.49,150.8L606.92,153.2L600.02,155.42L595.92,158.18L592.79,157.38L590.49,161.11L581.54,166.09L578.42,170.98L574.97,174L569.05,171.78L558.29,160.67L555.58,156.93L551.47,157.91L549.58,160.14L544.16,160.67L541.45,156.67L537.75,161.65L537.51,168.05L545.48,169.74L542.52,172.76L544.16,176.94L538.41,177.2L535.04,174.71L534.55,170.54L531.1,168.05L529.29,172.76L524.77,175.69L515.82,174L511.96,178.45L513.35,181.29L518.78,185.11L527.48,185.29L528.88,187.78L532.08,188.49L533.89,195.25Z" class="land" id="HK-TP" title="Tai Po"/>
    <path d="M267.14,236.65L270.76,237.9L268.71,240.83L264.84,238.88ZM418.63,229.01L417.56,233.1L410.99,233.1L409.68,234.61L404.09,232.75L401.38,238.7L397.19,236.48L394.4,239.85L390.62,240.21L394.4,247.67L390.62,254.42L387.5,256.64L388.32,260.37L382.57,260.11L377.56,253.71L373.94,251.49L368.93,254.16L365.23,254.69L362.28,252.2L356.12,251.22L350.86,253.71L349.3,255.67L344.45,250.51L339.44,248.56L339.93,252.47L333.28,254.42L330.57,260.64L326.21,259.84L318,254.96L317.34,251.22L314.55,249.54L305.43,250.96L300.42,248.29L295.9,242.07L299.76,238.16L300.91,232.48L300.17,229.72L295.9,227.5L294.91,223.59L295.9,219.86L285.63,216.4L284.89,215.24L289.49,208.75L294.5,204.84L295.4,201.38L302.06,199.42L307.32,200.13L311.34,197.65L315.12,196.93L315.53,203.16L320.79,196.76L323.5,190.8L340.51,191.16L341.49,193.02L353.98,193.82L361.95,191.6L360.55,197.2L362.93,200.58L370.57,200.58L370.9,206.18L374.68,207.69L375.09,215.51L406.88,215.51L407.54,212.49L413.79,212.49L414.11,215.51L411.73,217.02L411.73,222.62L418.96,223.33Z" class="land" id="HK-TM" title="Tuen Mun"/>
    <path d="M547.61,256.64L544.57,256.64L540.71,259.31L536.19,260.02L530.69,260.37L527.89,262.59L524.77,261.53L523.05,264.46L516.48,264.46L513.44,265.97L508.92,265.97L507.85,267.84L501.61,267.84L499.55,265.97L496.1,268.99L489.86,267.48L486.74,269.35L482.3,265.26L481.56,257.8L485.42,252.91L484.03,249.54L486.41,246.52L484.35,243.94L488.13,240.56L488.13,238.34L493.72,235.32L503,225.19L503.74,219.59L502.35,209.73L507.6,209.2L509.41,207.07L517.38,207.24L518.2,204.75L528.72,204.67L529.7,199.6L531.34,197.82L537.01,196.4L542.11,201.91L542.35,206.53L541.2,210.26L544.41,214.17L535.7,223.06L534.55,228.04L545.48,214.71L547.78,210.98L549.83,201.11L552.38,196.4L557.8,196.4L561.91,192.76L562.15,188.76L565.36,187.51L567.66,192.93L570.45,196.76L569.05,208.04L572.17,209.91L572.17,214.35L574.31,218.88L572.91,225.64L574.31,231.59L568.07,231.59L568.72,233.81L566.34,237.54L559.77,243.94L552.87,245.45L548.68,252.2Z" class="land" id="HK-ST" title="Sha Tin"/>
    <path d="M486.74,269.35L489.86,267.48L496.1,268.99L499.55,265.97L501.61,267.84L507.85,267.84L507.19,272.01L510.64,276.81L510.64,280.98L508.92,285.42L507.85,284.71L498.57,284.71L494.71,289.24L490.93,289.15L485.91,285.51L483.2,287.46L486.41,290.48L483.7,293.15L474.82,293.95L473.18,290.84L480.16,284.8L480.9,279.83L477.21,278.94L476.71,272.01L485.01,273.52Z" class="land" id="HK-SS" title="Sham Shui Po"/>
    <path d="M519.76,365.68L520.17,369.41L516.72,370.12L515.16,366.66ZM495.53,357.78L498.73,362.75L497.33,368.43L492.08,366.92L491.17,364.17L487.31,363.99L486.9,358.31L491.67,358.76ZM462.91,333.37L467.02,333.28L473.59,331.77L478.44,335.5L485.01,346.77L485.75,349.7L490.27,347.13L491.58,344.11L496.1,345.97L500.29,344.47L505.8,347.48L510.31,348.55L518.61,349.35L528.72,346.15L542.11,344.11L546.95,347.13L553.53,347.48L555.58,349.7L560.1,347.84L564.21,348.64L568.72,350.86L571.6,356.54L568.56,357.78L574.47,366.39L571.52,373.84L574.47,377.75L575.87,383.96L575.38,388.84L578.58,388.4L579.32,391.77L574.06,393.01L568.31,392.83L564.7,391.06L565.36,386.62L563.96,382.19L561.91,382.45L558.95,378.46L560.1,374.82L557.8,367.19L558.54,364.17L555.58,361.77L553.94,364.7L554.43,372.07L545.06,372.78L543.01,376.77L542.52,381.21L548.93,385.11L548.68,387.87L545.48,390.08L548.68,397.45L549.83,402.15L541.2,403.66L539.4,401.17L539.4,390.62L541.86,387.87L540.46,383.16L536.85,383.43L535.04,387.33L531.59,387.16L527.73,389.37L527.98,384.67L531.59,381.92L528.14,376.51L526.99,372.6L528.39,368.43L526.33,364.97L522.47,366.92L518.78,362.48L519.76,358.76L513.11,359.02L509.25,365.68L508.1,371.36L502.43,369.14L501.28,362.75L498.73,360.71L497.83,357.07L477.29,355.56L474.09,351.83L473.59,347.93L471.62,346.42L466.36,335.59Z" class="land" id="HK-SO" title="Southern"/>
    <path d="M666.9,289.68L666.65,291.9L669.44,295.37L668.05,303.98L662.13,295.63L662.62,291.9ZM658.93,286.49L656.46,290.93L656.22,294.66L650.05,296.61L651.2,290.93L653.42,287.46L655.97,288.44ZM608.24,281.34L614.24,286.75L613.74,290.22L609.14,289.51L606.19,284.53ZM612.18,242.87L612.59,238.16L617.19,238.88L623.6,238.43L627.46,241.9L626.56,245.54L629.27,250.96L628.37,255.13L635.18,259.13L634.53,264.28L632.23,272.19L637.49,279.38L637.24,285.07L634.28,287.02L628.37,286.22L626.31,278.14L624.92,275.92L625.82,271.21L621.71,271.48L618.1,268.99L614.89,263.04L617.19,258.6L617.44,254.69L615.8,250.78L612.84,249ZM566.1,321.74L564.62,313.13L567.33,313.84L566.01,307.09L563.22,305.22L567,297.41L562.48,291.46L557.3,288.44L553.85,279.12L549.01,279.47L549.34,276.1L547.45,263.48L547.61,256.64L548.68,252.2L552.87,245.45L559.77,243.94L566.34,237.54L568.72,233.81L568.07,231.59L574.31,231.59L572.91,225.64L577.35,221.91L589.51,221.91L593.94,217.37L597.07,218.08L601.26,212.93L602.65,206.89L606.76,205.82L615.47,206.89L618.18,201.29L617.52,197.56L619.9,195.69L627.54,197.2L630.34,202.44L633.79,206.18L637.24,207.69L640.69,207.24L644.14,204.31L650.05,211.42L654.82,212.49L658.35,215.15L666.24,207.24L668.7,198.27L666.65,196.05L667.31,192.31L664.92,189.74L665.58,183.34L668.54,183.51L669.69,186.8L679.22,188.31L683.57,186.09L690.39,186.54L694.33,189.56L692.69,200.84L697.29,203.33L699.1,209.55L693.84,210.26L689.98,207.33L688.34,202.89L685.38,203.6L682.42,202.09L678.31,205.55L674.95,210.98L673.8,218.62L670.1,220.39L671.5,224.13L678.31,224.13L682.01,230.52L687.02,230.97L687.02,237.37L688.17,240.83L684.48,242.34L687.93,249L686.53,251.76L683.82,251.49L680.12,244.56L675.36,242.61L674.95,247.49L678.97,249.98L677.9,253.98L673.96,256.64L673.06,262.33L667.39,263.57L666.24,266.5L662.62,263.57L661.47,269.97L661.23,276.89L658.43,278.4L653.01,265.26L649.81,265.08L648,268.28L644.3,264.1L642.74,257.18L640.44,257.18L637.98,254.16L639.05,251.93L640.94,240.65L634.28,240.12L629.93,236.39L624.26,234.43L626.56,230.97L626.72,226.53L621.05,227.5L618.34,233.99L611.28,235.14L609.39,230.52L604.87,230.97L602.32,225.81L599.12,225.1L593.45,227.77L593.86,234.7L589.1,239.68L592.06,242.34L589.59,246.52L590.25,251.93L594.36,255.67L594.11,261.08L590.25,263.84L588.44,258.86L583.43,259.13L586.63,254.96L587.04,250.51L584.09,250.25L577.27,255.93L580.23,260.64L586.8,264.1L584.58,269.26L585.48,275.38L587.29,275.92L589.51,283.29L589.34,288.71L592.96,289.68L594.6,291.9L600.27,290.22L603.47,290.48L604.38,297.14L606.19,297.85L606.68,305.49L610.54,300.78L615.3,300.34L622.2,308.95L621.3,315.61L615.14,318.54L613.99,321.29L608.07,320.32L606.92,317.83L602.82,319.79L602.57,326.18L604.87,327.95L611.94,327.24L614.24,334.88L618.51,337.36L617.85,340.29L609.64,343.49L608.49,340.56L605.28,339.58L603.72,336.3L598.71,335.85L595.75,338.52L592.96,343.76L590,342.96L586.14,333.1L582.94,331.42L585.24,327.24L584.74,324.76L586.63,321.03L586.39,317.39L582.69,311.17L582.44,308.95L577.43,308.24L573.57,312.15ZM607.83,243.58L607.09,248.29L610.29,250.96L608.73,253.98L606.02,253.71L602.32,249.98L605.53,243.58ZM654.16,334.61L653.01,341.54L650.3,338.34ZM609.39,348.19L609.88,352.9L608.98,361.51L604.87,360.97L602.32,365.15L599.61,360.97L595.92,358.76L596.82,353.61L600.52,349.61L603.06,350.59L604.87,347.93ZM665.75,276.18L668.54,277.16L666.65,281.07L661.64,282.85L662.38,275.65ZM655.31,343.76L656.22,346.95L655.31,350.86L651.62,350.41ZM631.08,241.36L633.38,245.09L629.02,245.09ZM670.1,278.4L676.26,285.24L671,284.27Z" class="land" id="HK-SK" title="Sai Kung"/>
    <path d="M640.2,122.08L637.9,126.79L634.77,129.02L631.32,129.46L614.4,141.38L606.76,138.09L599.53,133.91L594.36,133.55L591.89,135.06L584.99,135.42L582.61,137.64L572.5,137.29L567.33,130.97L562.15,128.66L560.76,131.33L556.65,133.91L553.85,138.44L546.63,140.66L541.04,139.51L536.6,140.31L531.02,138.09L526.91,137.64L519.27,135.06L512.7,136.57L509.25,139.51L507.19,145.55L504.07,143.24L500.95,144.04L500.62,140.31L491.25,141.38L490.27,143.69L492.32,147.07L488.13,150L486.41,153.38L482.3,154.89L476.39,159.42L470.55,161.29L465.71,162L459.46,156.76L454.29,158.62L450.43,158.27L445.25,160.85L439.01,161.29L439.01,148.93L441.47,142.89L442.13,138.44L439.75,133.55L441.14,131.68L439.42,123.86L442.13,121.99L440.07,117.81L441.14,112.92L438.35,111.5L435.23,114.08L436.95,108.83L432.11,103.94L438.02,101.71L440.73,98.33L446.24,101L450.43,100.2L451.16,103.23L456.01,99.13L457.41,104.38L459.46,105.09L465.71,100.65L467.02,97.62L473.59,94.24L480.9,93.09L485.42,94.6L491.99,89.35L489.86,87.13L491.58,83.03L495.44,82.59L496.1,78.85L498.57,76.63L507.52,78.14L511.3,77.43L514.42,82.23L518.94,81.88L523.46,83.03L531.76,80.37L544.57,82.59L553.53,89.35L549.58,92.91L545.31,93.44L543.26,95.67L540.46,101.89L537.75,101.36L538.66,108.74L545.97,108.47L547.78,104.56L551.23,105.81L555.09,101.89L557.14,103.31L561,100.11L561.74,95.4L563.55,93.18L564.7,88.02L569.05,88.28L570.2,91.93L575.21,87.75L578.17,94.69L581.54,96.2L584.99,99.4L581.38,106.34L590,109.01L592.55,106.78L596.82,106.07L598.22,109.54L597.81,113.45L595.51,118.17L591.64,119.86L590.66,123.06L599.61,122.08L598.96,124.3L605.77,124.04L607.58,127.33L610.79,123.86L607.83,120.84L614.24,120.66L617.19,119.41L620.4,115.68L620.15,110.25L624.92,110.7L629.76,116.66L625.82,121.37L622.2,122.35L620.81,124.57L616.45,123.86L610.29,128.57L614.65,131.95L623.77,128.3L627.87,128.3L634.28,126.35ZM606.68,82.86L607.34,86.24L618.1,86.24L624.67,87.48L621.71,90.24L619,88.73L615.3,92.46L610.79,88.46L607.83,89.97L611.28,96.91L617.19,100.65L615.55,103.58L608.07,102.07L600.27,102.34L602.08,97.62L607.34,96.91L604.62,92.91L600.93,90.24L603.97,82.86ZM628.78,98.6L629.93,101.89L628.78,107.76L624.92,109.99L619,106.34L618.75,102.34L622.62,102.07L624.26,105.81L627.22,103.58L626.72,99.4Z" class="land" id="HK-NO" title="North"/>
    <path d="M549.01,279.47L553.85,279.12L557.3,288.44L562.48,291.46L567,297.41L563.22,305.22L566.01,307.09L567.33,313.84L564.62,313.13L566.1,321.74L561,321.56L560.59,318.36L556.48,314.64L554.43,310.91L550.08,307.44L548.02,304.25L541.45,297.85L537.75,295.81L537.92,294.03L532.41,288.44L534.14,286.58L534.14,278.67L539.31,278.32L541.78,280.62Z" class="land" id="HK-KU" title="Kwun Tong"/>
    <path d="M486.74,269.35L485.01,273.52L476.71,272.01L477.21,278.94L480.9,279.83L480.16,284.8L473.18,290.84L474.82,293.95L471.13,294.66L465.62,290.48L468.17,288L476.39,285.07L474.74,283.29L469.07,284L466.53,273.7L464.06,267.3L459.71,265.79L459.95,259.84L457.41,254.78L457.74,254.69L457.9,254.69L464.31,251.4L467.76,245.81L477.62,245.09L478.44,238.7L476.71,236.12L484.03,234.26L484.03,239.05L488.13,238.34L488.13,240.56L484.35,243.94L486.41,246.52L484.03,249.54L485.42,252.91L481.56,257.8L482.3,265.26ZM448.29,252.73L454.94,255.13L454.7,260.11L458.31,266.33L457.41,270.23L459.22,272.45L459.95,276.63L457.41,283.56L453.79,287.29L443.94,284L441.47,286.75L438.51,282.58L439.42,278.85L439.17,271.21L435.72,270.77L434.82,267.04L432.35,265.08L433.01,262.06L431.2,257.18L439.17,253.18Z" class="land" id="HK-KI" title="Kwai Tsing"/>
    <path d="M534.14,278.67L534.14,286.58L532.41,288.44L537.92,294.03L537.75,295.81L536.19,297.85L541.2,300.61L544.08,305.05L543.01,307L535.95,300.61L529.13,293.15L525.68,292.7L523.38,297.59L525.18,301.58L524.53,307.44L517.63,311.44L517.54,307.09L510.31,297.05L507.52,288.8L508.92,285.42L510.64,280.98L510.64,276.81L507.19,272.01L507.85,267.84L508.92,265.97L513.44,265.97L517.21,270.5L519.6,280.18L522.06,279.12L525.84,281.34L531.43,277.61Z" class="land" id="HK-KC" title="Kowloon City"/>
    <path d="M355.87,407.56L351.1,403.84L351.76,399.67L355.21,396.21L357.27,396.47L361.37,402.42L361.13,407.12ZM295.4,293.41L310.69,288L312.74,289.51L318.9,290.22L321.45,291.73L316.6,299.36L313.89,311.17L315.29,314.64L310.93,318.54L296.8,313.93L291.05,313.66L279.47,315.61L278.32,313.66L282.42,307.98L280.37,303.27L277.17,301.32L280.78,298.83ZM468.42,417.94L459.95,414.48L460.37,408.81L464.47,406.85L465.87,395.76L464.72,393.54L465.87,388.13L464.31,381.92L459.22,380.5L458.56,383.96L450.1,383.96L450.1,381.92L455.11,374.82L456.26,370.83L452.64,368.16L456.26,365.68L463.41,363.19L466.77,364.97L464.72,368.61L465.21,373.05L468.99,375.26L471.37,380.94L476.39,379.43L478.44,381.48L477.29,385.91L474.09,386.36L470.22,390.62L472.93,393.01L477.04,390.35L481.4,390.08L485.26,391.59L486.41,388.4L490.52,387.33L491.42,389.55L496.43,389.37L497.17,392.75L492.57,395.23L489.86,392.83L482.79,401.88L483.7,405.34L487.8,412.53L484.35,412.98L478.44,407.56L476.39,408.54L478.85,413.77L476.39,417.23L474.33,413.24ZM572.67,432.76L571.11,429.3L573.32,423.62L577.02,419.63L582.44,418.39L582.69,416.17L589.1,419.19L589.34,425.84L591.4,431.69L582.69,431.52L577.68,434.71ZM361.37,296.79L395.55,297.14L396.29,300.07L392.84,301.32L388.98,298.83L386.02,300.78L381.01,300.34L378.71,306.73L378.95,312.68L385.77,310.46L388.48,316.15L382.32,317.57L381.91,322.27L384.62,323.96L382.81,331.42L384.38,332.92L383.23,338.34L379.61,340.74L374.35,339.58L368.44,334.35L364.74,336.83L371.89,345L373.94,349.61L371.89,354.32L366.63,355.56L364.74,362.22L368.68,368.43L380.27,370.12L380.1,375.26L375.26,377.3L374.11,380.68L370.49,381.65L369.1,385.11L363.43,382.19L355.62,387.33L349.71,383.16L352.66,377.75L349.3,373.84L348.39,368.87L350.61,365.41L348.15,363.46L343.79,362.48L340.34,365.15L330.32,368.61L325.97,368.16L313.4,373.05L310.93,376.06L307.07,377.48L302.72,375.8L299.02,381.92L303.37,383.16L305.18,381.65L309.37,383.43L307.73,389.55L300.91,392.04L298.12,388.4L295.4,388.4L294.75,392.3L289.9,391.33L284.73,386.18L282.42,385.65L278.97,378.99L275.11,381.21L271.66,379.7L263.2,388.4L260.98,389.82L256.38,397L254.33,394.96L245.7,397L244.72,401.88L239.95,399.93L239.3,393.99L235.6,391.59L235.35,388.84L237.24,384.14L234.04,381.48L233.54,373.58L235.84,367.37L239.05,366.66L243.16,370.83L244.96,367.63L244.06,359.29L250.47,357.78L253.18,355.56L252.93,352.1L248.82,349.88L244.96,351.66L244.06,348.19L246.77,345L252.28,344.02L254.58,345.97L258.68,338.07L267.56,335.85L271.91,332.13L272.16,329.2L278.73,325.2L279.22,319.08L286.7,315.88L291.05,318.1L295.4,315.61L301.81,317.12L304.11,319.79L307.48,326.98L309.53,326.18L315.29,315.61L328.76,313.66L332.13,311.44L341.49,309.22L347.16,306.02L351.35,301.32L359.57,298.56ZM410.66,340.74L411.32,345L407.46,347.93L404.01,345.97L406.56,341.27ZM380.76,397L383.72,396.47L384.87,393.28L388.73,391.77L387.41,388.84L384.62,388.4L388.48,378.46L394.48,377.04L395.55,383.43L389.88,385.91L391.44,390.62L399,393.28L394.48,397.98L390.78,396.47L386.26,401.44L381.01,400.64ZM575.62,407.3L577.02,408.81L576.53,413.77L572.42,416.7L565.85,414.75L565.85,408.81ZM401.96,316.32L404.75,323.96L402.7,327.24L398.34,327.24L396.29,325.2L394.48,318.81ZM390.37,345.97L401.96,347.22L403.11,348.9L401.96,353.87L404.5,357.51L401.54,361.95L399,360.26L397.19,354.32L394.23,353.61L392.84,350.59L388.48,350.41L387.41,347.93ZM293.6,424.06L296.06,433.2L285.79,437.37L282.67,434.71L286.04,430.54L289,431.69L291.54,429.48L291.05,425.04ZM289.49,409.07L292.86,412.8L296.06,412.53L297.95,415.73L295.4,417.41L293.84,414.22L287.85,416.97ZM604.38,407.12L602.57,415.73L598.71,414.22L598.22,410.58L601.17,407.56ZM430.71,321.29L430.71,325.47L426.44,323.51Z" class="land" id="HK-IS" title="Islands"/>
    <path d="M511.96,324.22L515.82,322.98L522.97,318.81L524.77,316.32L529.29,314.37L540.96,316.15L551.47,322L553.28,325.2L558.29,323.25L564.45,328.49L567,332.92L565.11,336.3L570.37,336.56L577.27,343.22L576.28,344.73L576.77,351.83L574.31,355.83L571.6,356.54L568.72,350.86L564.21,348.64L560.1,347.84L555.58,349.7L553.53,347.48L546.95,347.13L542.11,344.11L528.72,346.15L529.46,340.65L535.45,335.94L535.37,333.19L531.43,329.55L528.39,332.84L526.25,330.44L523.79,324.67L519.76,326.71L518.12,324.85Z" class="land" id="HK-EA" title="Eastern"/>
    <path d="M503,326L504.07,331.77L502.02,336.21L502.02,341.45L500.29,344.47L496.1,345.97L491.58,344.11L490.27,347.13L485.75,349.7L485.01,346.77L478.44,335.5L473.59,331.77L467.02,333.28L462.91,333.37L461.11,331.68L462.91,326L468.58,323.96L469.07,322L473.84,320.58L475.48,318.54L480.49,317.57L486.16,317.83L492.08,319.79L498.24,319.79L498.07,323.78Z" class="land" id="HK-CW" title="Central and Western"/>
  </g>
</svg>