<?xml version="1.0" encoding="UTF-8"?>
<svg xmlns="http://www.w3.org/2000/svg" width="322.81" height="366.04" viewBox="318.59 73.98 322.81 366.04" style="background-color:#000000">
  <!-- Created using SVG Map Generator: dojo.amcharts.com/svg-map-generator -->
  <style>
    .land { fill: #ffffff; stroke: #000000; stroke-width: 0.65; }
  </style>
  <g id="polygons">
    <path d="M587.4,377.45L587.93,378.15L587.6,380.5L588.35,381.17L588,383.39L586.49,384.94L585.71,381.91L586.42,381.51L586.56,378.93ZM585.38,392.33L586.17,393.55L586.26,394.76L585.35,396.6L584.5,396.2L583.91,394.88L584.09,393.85ZM588.22,376.61L588.99,377.87L587.81,379.02ZM598.42,430.45L598.89,431.37L597.72,432.66L597.55,431.25ZM594.8,424.06L595.72,425.1L594.54,425.55L594.22,424.3ZM588.95,370.3L589.27,370.22L589.81,369.89L590.44,372.16L590.31,374.54L589.51,376.51L587.38,376.41L587.47,373.42L587.97,372.59L587.8,371.03ZM589.27,370.22L588.95,370.3L588.35,368.71L588.91,364.72L589.26,363.64L590.54,363.01L591.64,365.16L591.01,366.91L591.04,368.01L589.95,368.23L589.07,369.72ZM599.9,432.68L600.33,434.37L600.98,435.33L600.43,436.39L600.48,437.37L599.23,437.17L598.78,435.74L597.88,435.24L598.13,433.23ZM588.35,410.62L588.81,411.78L587.73,411.94L587.62,410.96Z" class="land" id="IN-AN" title="Andaman and Nicobar Islands"/>
    <path d="M474.09,327.04L473.63,327.32L474.2,328.71L470.22,330.67L467.78,331.63L465.82,331.08L464.21,331.27L462.82,331.97L461.46,334.95L461.52,335.45L460,337.06L459.57,338.19L457.99,338.4L457.81,336.94L456.52,336.48L454.89,336.8L452.73,338.01L451.98,338.87L451.22,341.2L450.12,342.96L449.56,345.58L450.28,349.49L451.2,351.1L450.45,356.35L451.7,359.73L450.9,361.19L449.59,362.33L450.79,363.43L451.61,363.45L452.43,364.19L450.69,363.55L449.79,362.9L448.62,363.86L448.22,365.16L444.46,366.17L443.98,365.43L442.81,365.29L442.62,366.54L441.5,367.83L440.52,367.4L439.8,368.83L438.89,368.76L437.92,368.06L436.79,367.95L434.9,368.29L433.93,369.15L433.59,371.48L431.26,373.25L430.41,372.79L429.65,371.68L429.87,370.62L431.01,369.72L431.99,370.02L432.17,368.56L433.45,367.16L433.54,365.98L431.12,364.94L431.5,362.44L429.73,362.34L427.95,361.21L428.48,359.5L426.88,358.26L425.27,358.44L424.83,359.81L423.42,360.22L421.93,361.24L420.98,359.56L418.3,359.28L418.17,360.46L416.27,360.6L416.01,359.79L416.74,358.55L415.6,357.46L415.56,356.28L416.57,355.77L416.61,357.11L417.96,357.8L419.91,357.45L420.66,356.55L421.8,356.01L421.76,354.66L421.17,354.23L419.4,354.61L418.01,353.91L416.89,355.02L415.04,353.82L414.94,352.44L413.74,350.94L414.71,348.67L414.88,346.86L413.78,346.8L414.14,345.43L415.01,346.13L417.21,346.46L418.03,345.1L418.14,343.53L417.02,342.83L416.65,341.54L416.67,339.3L417.07,336.29L419.06,335.63L421.9,336.05L423.53,336.55L425.06,336.68L426.02,336.33L428.44,337.11L429.84,335.96L430.04,334.8L431.67,334.23L433.34,334.51L433.97,334.03L435.69,334.88L437.11,333.09L438.48,332.37L440.52,332.44L440.6,329.39L441.04,328.78L442.79,328.54L443.56,328L445.2,327.64L446.58,326.87L448.58,327.86L449.79,325.91L448.94,325.35L449.53,324.19L451.89,323.67L452.51,325.26L454.01,326.18L455.17,326.49L455.4,324.63L454.35,324.73L452.94,324.12L454.29,323.22L455.14,322.22L458.1,323.5L458.9,321.5L459.83,321.74L461.7,321.14L461.91,320.12L462.84,320.14L463.47,319.34L464.46,319.67L465.3,318.67L465.41,317.06L466.21,315.5L468.45,314.29L468.19,313.59L470.3,312.46L471.09,311.7L472.57,311.87L473.73,312.52L474.42,311.9L474.47,308.73L474.76,307.67L475.99,306.21L476.52,306.59L476.65,307.9L477.36,308.14L477.15,309.27L479.18,308.57L479.53,307.33L480.98,308.34L481.9,307.96L482.27,304.86L483.17,303.5L483.91,303.85L485.6,303.18L486.2,302.5L485.04,301L486.92,300.64L488.3,299.86L489.31,300.69L490.29,300.78L491.2,302.97L494.26,303.46L496.23,303.27L496.27,302.41L497.29,301.87L497.94,300.64L499.06,299.45L500.9,300.06L498.96,302.3L498.65,303.27L497.69,304.18L496.49,305.98L493.98,308.34L493.97,308.82L489.55,311.06L487.95,312.16L486.19,314.16L485.47,315.51L484.04,317.05L477.44,320.41L474.84,322.44L474.06,323.42L473.61,325.08L474.22,325.61Z" class="land" id="IN-AP" title="Andhra Pradesh"/>
    <path d="M615.03,209.93L614.72,207.92L614.99,207.43L614.57,205.57L617.43,204.44L618.07,202.81L618.87,203.29L621.23,202.52L622.32,202.52L623.54,201.59L621.02,198.45L620.7,197.13L622.55,195.2L623.09,194.2L621.44,194.09L619.05,194.33L618.07,195.27L616.63,195.76L615.89,195.4L612.78,196.59L606.56,199.26L604.3,198.24L604.37,199.69L603.26,200.24L602.21,201.64L601.08,202.49L599.35,204.42L598.02,206.45L595.99,206.85L594.45,206.55L590.87,207.11L589.27,206L586.94,205.63L586.14,206.56L584.77,206.54L582.77,207.29L580.94,207.39L580.89,206L580.13,205.3L580.02,204.11L580.36,201.2L579.97,200.22L575.92,200.16L574.94,198.33L575.66,197.44L575.71,196.27L577.85,196.15L578.88,197.32L580.37,196.78L582.06,195.55L583.21,196.55L585.22,195.77L585.87,196.02L587.82,193.94L586.98,193.04L587.25,192.26L588.47,191.32L589.52,191.29L590.92,190.07L593.04,189.69L592.65,188.37L593.66,187.57L594.33,185.89L596.01,185.35L597.41,185.67L599.85,185.06L600.75,185.5L601.57,184.21L601.5,183.39L603.24,181.98L603.89,180.37L605.44,179.52L606.25,178.59L607.63,178.56L608.39,177.07L611.05,179.12L612.69,179.79L615.18,180.05L615.35,180.7L616.91,180.99L617.71,180.53L618.3,178.75L618.83,178.7L620.92,176.97L622.87,176.64L624.22,175.63L625.36,177.12L626.17,179.42L624.98,180.76L626.04,182.13L627.12,181.02L628.09,180.95L628.99,181.78L630.05,184.17L629.72,184.88L627.77,186.84L627.38,188.94L629.65,188.09L630.58,188.05L634.19,189.91L635.24,189.24L636.13,190.12L637.31,190.4L638.19,191.39L637.93,192.34L638.76,193.52L638.47,195.09L637.03,194.93L634.54,196.91L633.12,198.48L633.27,200.43L636.1,204.42L635.01,204.76L633.03,203.2L632.08,201.75L630.01,201.57L628.47,202.27L625.89,202.61L623.74,203.7L622.64,205.45L621.25,205.85L620.41,207.47L619.11,208.28L618.25,208.16L617.12,209.76L615.74,210.3Z" class="land" id="IN-AR" title="Arunachal Pradesh"/>
    <path d="M580.94,207.39L582.77,207.29L584.77,206.54L586.14,206.56L586.94,205.63L589.27,206L590.87,207.11L594.45,206.55L595.99,206.85L598.02,206.45L599.35,204.42L601.08,202.49L602.21,201.64L603.26,200.24L604.37,199.69L604.3,198.24L606.56,199.26L612.78,196.59L615.89,195.4L616.63,195.76L618.07,195.27L619.05,194.33L621.44,194.09L623.09,194.2L622.55,195.2L620.7,197.13L621.02,198.45L623.54,201.59L622.32,202.52L621.23,202.52L618.87,203.29L618.07,202.81L617.43,204.44L614.57,205.57L613.64,206.5L612.29,207.1L611.21,206.92L610.29,208.46L609.03,209.36L607.49,209.63L605.99,210.8L605.9,211.8L603.58,212.68L603.46,214.09L602.73,214.31L601.6,216.17L601.06,218.18L601.33,219.24L600.27,220.14L598.85,219.04L598.34,220.1L596.9,221.17L596.1,222.43L594.27,223.75L595.69,225.1L595.82,226.62L594.89,227.38L594.32,229.19L593.37,230.11L593.52,230.92L591.8,234.24L590.66,237.5L588.79,237.8L588.1,236.09L587.29,238.07L585.55,240.19L584.52,240.49L584.36,239.29L582.99,239.31L582.28,236.29L582.5,234.46L583.01,233.5L582.38,231.55L583.01,231.3L584.03,232.14L585.26,231.49L584.4,229.96L585.48,228.66L586.54,228.92L587.03,228.21L588.53,227.7L588.05,226.3L586.28,224.66L586.79,223.87L585.23,222.83L584.48,221.52L582.26,221.7L581.51,222.24L581.47,218.94L582.39,217.51L579.67,217.77L578.91,218.28L577.79,216.83L576.83,217.55L576.71,218.83L575.14,217.87L573.71,220.2L572.5,220.22L571.87,221.33L570.96,221.54L571.01,219.98L569.56,220.44L568.24,218.9L566.12,218.79L564.83,219.03L563.17,218.08L559.96,218.94L559.27,218.74L557.37,220.39L556.8,221.48L558.16,223.08L556.56,223.78L556.72,222.75L555.95,220.49L556.78,218.99L554.91,216.26L555.26,214.37L556.42,213.6L556.42,209.71L559.57,209.09L560.31,207.88L561.26,207.95L562.44,207.29L564.07,208.53L565.73,208.93L569.46,208.79L569.92,208.3L572.53,208.79L573.32,208.1L574.24,208.66L576.36,208.48L578.64,207.12L580.26,207.96Z" class="land" id="IN-AS" title="Assam"/>
    <path d="M537.34,211.76L538.65,212.49L539.37,213.97L537.76,215.2L535.84,217.28L534.47,217.73L534.26,219.83L535.22,220.06L535.08,221.06L536.72,222.01L536.42,223.27L533.56,225.46L534.62,227L533.87,227.69L532.75,226.61L531.26,226.36L530.44,227.44L528.82,227.66L528.46,229.27L526.89,230.05L527.02,231.71L526.35,232.72L525.84,235.06L524.53,234.63L523.71,235.73L522.86,234.9L521.68,235.61L520.97,235.08L519.91,236.13L519.33,237.91L518.22,237.01L517.71,235.64L516.77,235L515.85,235.1L515.75,233.88L514.95,232.99L513.86,233.56L513.07,232.74L511.53,232.47L509.79,235.1L508.8,235.73L506.58,236.02L504.09,237.35L502.39,237.87L502.2,236.78L501.27,235.98L497.56,238.27L496.27,237.58L496.17,236.3L494.66,235.67L493.81,236.56L493.12,234.99L491.83,235.76L489.52,236.28L487.14,236.01L487.61,234.83L485.93,232.93L485.57,231.89L485.61,228.85L485.37,228.16L487.59,226.52L488.5,226.37L489.7,225.4L490.43,225.39L491.71,223.61L493.44,222.66L496.08,222.24L496.75,221.31L497.93,222.17L499.37,220.76L498.37,219.75L497.22,219.57L494.43,217.96L492.81,216.51L494.35,215.29L494.48,213.73L493.4,213.6L491.55,211.98L493.13,211.67L493.5,210.46L495.58,210.99L496.16,209.95L495.36,208.43L493.18,207.42L493.06,205.55L491.95,204.96L492.38,203.64L491.5,202.92L491.07,201.8L491.2,200.85L492.93,200.78L493.67,200.1L495.4,200.56L495.83,201.39L499.39,201.95L500.16,203.47L499.64,205.52L501.67,205.86L503.18,207.12L505.66,207.73L505.82,209.04L507.17,209.25L510.44,207.66L511.53,208.59L511.51,210.32L512.79,211.36L514.73,210.17L516.52,210.8L517.99,210.74L520.33,211.73L522.39,213.15L523.5,212.94L525.49,211.81L527.09,213.37L529.34,213.32L530.4,212.92L531.92,213.65L533.92,212.57L536.12,213.51L537.25,212.96Z" class="land" id="IN-BR" title="Bihar"/>
    <path d="M414.39,160.24L413.37,160.12L412.98,159.3L414.48,159.26Z" class="land" id="IN-CH" title="Chandigarh"/>
    <path d="M485.24,241.1L487.24,241.98L487.83,243.95L489.29,244.45L489.5,246.09L490.16,247.08L492.86,247.74L492.24,249.67L493.38,250.28L492.98,252.55L494.02,253.23L494.22,254.62L496.65,254.49L495.72,256.99L495.01,258.1L493.49,258.49L492.64,259.85L493.06,260.52L492.66,261.66L491.1,261.94L489.92,263.13L488.75,263.34L487.58,265.33L487.55,266.41L488.08,267.82L487.06,268.16L486.99,269.02L485.86,270.53L485.36,271.9L486.01,273.02L484.66,273.31L483.79,276.11L483.02,276.51L481.24,275.64L480.4,275.95L477.75,275.95L477.6,277.26L476.11,278.82L475.82,279.75L474.6,279.05L474.47,280.51L474.83,282.07L474.35,282.89L475.5,284.38L475.11,285.43L475.33,286.98L475.08,288.63L477.34,289.49L478.53,289.44L478.48,291.28L475.64,290.45L474.52,291.29L473.34,289.34L472.77,289.58L470.18,288.14L469.37,288.9L469.18,290.39L471.47,291.84L471.33,294.66L472.12,295.99L472.82,296.06L472.48,297.82L473.13,299.84L473.43,301.91L472.7,302.09L472.58,303.29L470.47,304.44L470.33,305.64L468.23,307.65L465.68,309.4L465.13,312.71L464.12,314.58L462.7,314.52L461.67,314.05L460.28,314.77L459.32,311.44L457.04,310.4L457.62,309.45L456.95,307.68L455.93,306.42L454.3,305.16L452.76,305.64L451.95,304.13L452.83,302.91L451.95,301.7L452.57,299.25L453.25,298.7L454.22,297.01L455.22,296.25L455.68,297.34L457.2,297.57L458.24,296.72L458.75,295.51L458.05,294.38L456.19,293.81L456.29,292.89L454.15,291.35L454.98,289.47L454.92,288.05L453.32,287.65L453.21,286.52L454.6,286.19L455.77,285.45L455.42,284.73L455.81,282.31L454.98,280.43L454.94,278.46L454,278.48L453.65,277.58L454.02,275.67L455.96,274.77L456.19,273.83L456.99,272.17L456.86,269.37L457.87,268.95L458.15,266.74L458.96,264.58L459.92,265.26L460.14,263.29L461.17,262.52L461.13,260.79L462.31,260.67L463.45,259.81L465.16,260.18L466.64,259.64L467.08,258.54L468.24,258.17L468.31,255.69L470.17,254.7L470.15,253.27L471.09,253.24L472.47,252.51L472.85,250.34L471.9,249.48L470.56,249.29L469.91,247.88L468.94,248.13L467.95,247.46L466.54,248.18L466.49,247.07L467.42,245.63L466.45,244.05L467.14,243.2L468.46,244.55L469.91,243.83L471.32,244.45L472.99,244.31L474.4,244.65L477.21,244.42L477.97,243.41L479.62,242.75L481.05,243.79L482.66,243.76L483.78,243.25Z" class="land" id="IN-CT" title="Chhattisgarh"/>
    <path d="M347.44,280.45L348.17,277.81L349.76,278.33L349.86,279.73L349.3,280.44L349.77,281.08L349.05,281.29Z" class="land" id="IN-DD" title="Daman and Diu"/>
    <path d="M418.39,183.08L420.02,186.28L420.03,187.52L419,187.82L418.16,188.76L417.14,187.38L415.04,187.52L414.58,186.92L415.86,185.08L415.72,183.65L417.18,182.86Z" class="land" id="IN-DL" title="Delhi"/>
    <path d="M375.13,287.91L374.3,288.34L372.48,287.81L372.45,286.86L373.98,286.63Z" class="land" id="IN-DN" title="Dadra and Nagar Haveli"/>
    <path d="M380.19,338.27L383.08,338.08L383.97,339.63L385.04,339.11L386.45,339.07L386.46,340.93L387.39,343.15L386.96,346.01L385.98,347.34L384.73,347.63L383.31,345.71L382.33,341.98L381.11,340.87Z" class="land" id="IN-GA" title="Goa"/>
    <path d="M322.21,244.63L322.95,244.76L322.56,246.43L321.24,246.48ZM352.16,234.17L354.23,235.05L356.31,234.25L358.2,234.74L360.54,234.24L361.27,234.82L362.45,233.87L363.68,234.97L364.39,234.75L365.1,235.88L365.78,235.71L366.95,237.45L367.82,236.25L369.48,236.85L369.86,238L371.34,237.94L371.95,238.42L372.78,236.69L373.96,237.22L374.63,238.12L373.68,240.1L375.21,241.14L377.28,241.7L377.4,243.13L376.72,243.96L377.36,244.94L379.07,246.42L380.69,249.3L381.84,248.9L382.52,250.2L384.03,250.25L385.13,251L385.05,252.07L386.35,251.96L387.19,253.45L388.03,255.38L388.89,255.86L387.86,258.4L386.56,258.39L385.34,259.89L386.48,261.27L385.75,262.2L384.46,261.74L384.31,262.62L385.01,263.48L384.74,265.8L385.26,266.52L381.61,268.06L382.54,269.5L381.76,270.7L382.15,271.9L384.43,271.15L385.7,271.15L386.39,272.28L384.4,272.06L383.33,273.11L383.11,274.22L381.84,274.57L381.74,275.68L380.98,276.36L381.22,277.57L382.65,277.89L383.12,280.7L382.42,280.84L381.91,282.17L380.93,282.73L379.71,282.59L378.03,280.99L377.16,281.86L378.23,283.05L377.46,284.51L377.46,286.93L376.17,286.92L375.13,287.91L373.98,286.63L372.45,286.86L371.41,286.7L370.62,287.87L369.92,287.74L370.12,285.93L371.52,283.51L371.66,282.5L370.51,278.9L368.29,274.29L368.73,270.48L367.74,269.92L368.09,268.05L367.36,266.51L367.85,264.21L367.78,263.12L365.83,263.57L364.63,267.16L364.77,269.03L365.22,270.34L364.31,272.56L362.78,274.82L363.12,275.4L361.63,276.28L359.92,276.85L357.15,278.28L355.79,279.21L353.27,280L351.83,280.76L349.77,281.08L349.3,280.44L349.86,279.73L349.76,278.33L348.17,277.81L347.44,280.45L344.88,279.41L341.18,276.47L336.88,271.39L331.73,266.66L328.74,263.19L328.5,262.31L329.03,261.11L331.31,261L330.92,262.3L331.73,262.95L335.32,261.8L336.33,261.76L337.13,260.41L337.89,261.28L339.58,259.75L340.52,259.36L341.87,259.49L343.4,257.06L343.88,255.01L342.68,254.43L341.53,255.08L337.9,255.96L336.89,257.26L335.24,256.65L334.35,256.87L333.07,256.22L331.35,256.1L327.18,253.39L326.58,253.24L324.75,251.66L325.24,250.08L323.78,248.66L323.63,246.69L326.12,244.01L324.54,243.73L324.26,242.75L326.47,242.76L326.72,238.8L327.54,239.82L328.63,239.01L329.21,239.62L330.21,239.1L331.38,239.5L332.58,239.01L334.66,239.27L335.74,238.99L337.09,240.22L340.1,240.33L341.39,238.84L346.36,237.29L346.35,239.3L348.87,239.65L350.97,238.01L351.21,234.77Z" class="land" id="IN-GJ" title="Gujarat"/>
    <path d="M404.07,136.05L404.63,135.18L404.51,133.71L403.22,132.25L404.01,131.47L404.87,132.05L406.48,130.5L408.04,130.14L409.73,128.13L411.8,127.87L413.41,128.23L415.02,129.08L416.34,130.7L417.84,130.82L420.24,132.83L422.71,131.29L424.11,130.93L426.32,133.6L426.19,134.54L427.06,135.92L428.26,134.94L429.57,134.85L431.29,133.65L431.48,135.45L430.48,136.04L430.63,137.35L431.72,136.89L432.9,138.09L432.33,139.83L433.71,140.67L433.5,141.44L435.65,143.48L434.78,146.13L435.25,147.43L436.3,148.41L434.94,149.65L435.91,150.49L436.28,152.05L437.13,152.96L438.1,154.79L436.74,154.89L435.91,153.65L434.3,153.78L433.73,153.25L432.37,153.66L431.13,152.55L428.2,153.83L426.02,154.29L425.03,156.64L424.95,158.05L423.85,159.19L424.84,160.52L424.3,161.35L425.06,162.45L422.49,163.8L422.62,164.05L420.89,163.75L420.12,163.08L418.56,162.84L418.01,160.18L416.5,159.53L415.29,157.56L413.85,157.45L412.11,156.2L412.38,153.55L410.34,152.36L409.37,150.96L408.68,152.19L407.34,152.35L407.13,150.98L405.49,148.01L404.61,145.83L404.31,144.12L402.08,142.69L401.35,140.46L402.59,139.96L403.76,138.6L404.72,138.11L403.84,136.94Z" class="land" id="IN-HP" title="Himachal Pradesh"/>
    <path d="M413.85,157.45L415.29,157.56L416.5,159.53L418.01,160.18L418.56,162.84L420.12,163.08L420.89,163.75L422.62,164.05L420.87,167.55L419.3,168.29L418.32,170.08L417.91,172.59L417.29,173.91L417.87,175.9L417.63,176.72L417.68,180.1L418.69,181.34L418.39,183.08L417.18,182.86L415.72,183.65L415.86,185.08L414.58,186.92L415.04,187.52L417.14,187.38L418.16,188.76L419,187.82L420.03,187.52L421.52,188.7L421.72,190.35L421.57,193.27L422.01,194.65L419.36,196.2L417.73,196.57L416.77,196.03L416.03,198.04L415.06,197.52L415.69,194.81L415.47,193.84L415.94,192.04L414.72,191.01L414.08,191.87L411.33,193.33L410.59,191.9L409.56,192.11L407.15,193.83L406.42,195.44L405.06,195.48L405.57,193.36L404.76,192.66L406.04,191.04L404.25,188.95L401.42,187.06L400.62,186.21L400.16,183.45L399.3,181.21L398.71,180.54L398.88,178.15L395.74,178.59L394.05,177.9L393.77,176.87L392.83,176.37L391.91,176.98L390.17,176.9L389.75,176.19L390.36,174.84L389.84,174.38L390.27,172.01L388.74,171.57L389.7,170.59L389.33,169.61L390.64,169.88L392.4,168.99L393.65,169.54L394.45,170.7L395.28,170.42L396.55,170.93L397.08,172.02L396.28,173.14L397.62,173.8L399.41,171.31L400.14,171.92L402.25,171.31L403.6,171.26L404.14,172.08L405.85,172.08L407.47,170.3L407.54,168.69L408.24,167.58L409.71,167.29L410.92,167.94L412.29,167.57L412.42,166.31L411.82,165.67L413.72,163.37L414.53,163.43L415.41,161.33L414.39,160.24L414.48,159.26Z" class="land" id="IN-HR" title="Haryana"/>
    <path d="M487.14,236.01L489.52,236.28L491.83,235.76L493.12,234.99L493.81,236.56L494.66,235.67L496.17,236.3L496.27,237.58L497.56,238.27L501.27,235.98L502.2,236.78L502.39,237.87L504.09,237.35L506.58,236.02L508.8,235.73L509.79,235.1L511.53,232.47L513.07,232.74L513.86,233.56L514.95,232.99L515.75,233.88L515.85,235.1L516.77,235L517.71,235.64L518.22,237.01L519.33,237.91L519.91,236.13L520.97,235.08L521.68,235.61L522.86,234.9L523.71,235.73L524.53,234.63L525.84,235.06L526.35,232.72L527.02,231.71L526.89,230.05L528.46,229.27L528.82,227.66L530.44,227.44L531.26,226.36L532.75,226.61L533.87,227.69L533.75,229.24L534.85,230L535.9,231.58L534.98,232.11L534.96,235.59L534.08,235.8L534.12,237.45L533.53,238.69L532.24,239.79L532.81,240.52L530.67,240.94L530.55,242.15L527.89,241.82L528.5,243.52L526.65,244.75L524.15,243.74L523.34,244.56L523.03,246.04L521.96,245.95L520.16,246.73L519.19,246.72L518.3,247.75L518.45,248.47L517.05,249.22L514.91,248.34L512.94,248.62L513.07,250.36L512.51,251.07L513.47,252.66L514.8,252.49L516.71,254.29L517.65,254.03L519.11,255.1L518.93,256.83L519.92,257.72L521.13,258.05L521.5,259.2L522.68,259.24L524.05,262.52L523.12,263.47L522.27,263.45L521.43,262.91L518.24,261.92L517.45,260.74L514.64,259.86L514.07,263.12L514.69,263.81L513.37,266.37L511.79,266.1L510.53,264.92L509.38,264.96L507.8,264.12L506.77,264.72L506.02,265.98L505.38,265.18L503.76,264.67L504.27,262.78L504.19,260.35L502.35,261.06L498.35,261.04L497.25,261.88L495.76,262.01L494.27,261.26L494.08,260.44L492.64,259.85L493.49,258.49L495.01,258.1L495.72,256.99L496.65,254.49L494.22,254.62L494.02,253.23L492.98,252.55L493.38,250.28L492.24,249.67L492.86,247.74L490.16,247.08L489.5,246.09L489.29,244.45L487.83,243.95L487.24,241.98L485.24,241.1L486.1,239.14L485.81,238.56L486,236.32Z" class="land" id="IN-JH" title="Jharkhand"/>
    <path d="M431.72,136.89L430.63,137.35L430.48,136.04L431.48,135.45L431.29,133.65L429.57,134.85L428.26,134.94L427.06,135.92L426.19,134.54L426.32,133.6L424.11,130.93L422.71,131.29L420.24,132.83L417.84,130.82L416.34,130.7L415.02,129.08L413.41,128.23L411.8,127.87L409.73,128.13L408.04,130.14L406.48,130.5L404.87,132.05L404.01,131.47L403.22,132.25L404.51,133.71L404.63,135.18L404.07,136.05L402.32,138.1L399.09,139.31L398.08,139.14L396.08,138.14L394.96,137.14L394.34,137.71L392.77,137.09L391.28,137.23L390.67,135.6L391.04,135L390.36,133.71L388.84,134.31L387.34,134.15L384.7,132.33L382.32,131.08L380.66,131.08L379,129.16L379.32,127.86L378.69,125.31L379.26,124.63L378.85,122.97L379.16,121.56L378.38,120.78L378.95,119.43L378.54,117.82L377.76,117.04L377.66,114.31L377.14,113.01L377.35,110.82L378.02,110.1L380.04,109.42L380.77,107.24L383.25,107.08L383.87,106.61L384.75,104.06L384.75,103.02L383.82,102.09L381.49,101.2L380.51,99.95L381.75,98.03L381.23,96.88L380.14,96.94L376.05,96.31L375.07,95.41L374.24,93.12L371.24,92.08L370.2,92.75L368.65,92.18L368.6,89.63L369.32,87.6L371.86,85.63L374.19,82.87L374.65,81.41L375.69,80.74L381.59,81.21L382.32,78.61L383.25,79.44L384.6,79.75L386.2,78.71L390.86,76.63L393.09,77.25L393.71,77.98L395.84,77.88L397.44,76.94L398.27,77.36L402.12,82.89L405.59,84.87L407.04,86.22L408.75,86.79L410.92,88.93L412.32,89.08L413.51,90.38L413.3,92.1L414.29,94.02L417.39,94.44L419.31,95.01L420.45,96.05L421.43,98.34L423.25,98.55L425.33,97.59L428.58,97.14L429.63,95.48L430.82,94.44L433.36,93.66L434.4,92.88L436.21,92.72L438.64,93.71L439.26,91.99L440.77,91.06L442.73,92.88L446.41,93.81L448.17,93.09L449.47,95.22L451.43,96.47L451.59,99.8L450.55,102.03L450.5,104.17L449.15,108.07L446.44,109.38L446.03,111.09L443.96,111.09L443.44,111.56L444.27,114.06L443.82,116.01L442.1,117.44L439.9,116.79L437.54,117.5L437.28,118.12L437.9,119.85L439.06,121.76L437.54,123.29L437.26,125.23L438.87,126.71L438.96,127.59L440.16,128.08L442.61,128.24L441.98,130.84L443.95,133.68L444.08,135.65L443.02,135.93L441.54,137.21L440.96,136.74L439.52,137.5L439.28,138.7L437.89,139.07L435.76,137.36L435.37,134.5L434.06,135.65L433.18,135.59Z" class="land" id="IN-JK" title="Jammu and Kashmir"/>
    <path d="M385.04,339.11L385.9,337.95L387.65,337.72L387.94,336.27L389,334.16L389.15,332.53L387.19,331.46L387.26,328.87L389.68,327.96L390.6,328.62L391.28,327.03L392.99,326.4L393.89,324.46L395.55,324.37L396.92,325.61L397.71,324.3L399.66,323.96L399.93,324.44L401.91,324.24L401.96,322.72L401.41,321.85L401.75,320.81L401.17,320.33L401.49,318.34L403.31,319.57L404.71,320.09L408.12,319.52L409.2,319.8L409.52,318.84L409.07,317L410.79,316.25L411.16,315.13L413.39,315.38L414.2,313.88L415.44,313.34L415.51,311.04L415.85,310.25L416.98,310.62L419.81,307.16L420.82,307.91L421.42,309.39L422.34,309.03L423.39,312.45L422.34,314.45L422.48,315.26L421.26,315.9L421.15,317.16L423.82,318.02L421.27,319.57L420.27,321.95L421.39,322.6L421.79,323.71L421.29,324.83L421.41,328.52L419.45,330.58L422.8,331.32L421.62,333.35L421.9,336.05L419.06,335.63L417.07,336.29L416.67,339.3L416.65,341.54L417.02,342.83L418.14,343.53L418.03,345.1L417.21,346.46L415.01,346.13L414.14,345.43L413.78,346.8L414.88,346.86L414.71,348.67L413.74,350.94L414.94,352.44L415.04,353.82L416.89,355.02L418.01,353.91L419.4,354.61L421.17,354.23L421.76,354.66L421.8,356.01L420.66,356.55L419.91,357.45L417.96,357.8L416.61,357.11L416.57,355.77L415.56,356.28L415.6,357.46L416.74,358.55L416.01,359.79L416.27,360.6L418.17,360.46L418.3,359.28L420.98,359.56L421.93,361.24L423.42,360.22L424.83,359.81L425.27,358.44L426.88,358.26L428.48,359.5L427.95,361.21L429.73,362.34L431.5,362.44L431.12,364.94L433.54,365.98L433.45,367.16L432.17,368.56L431.99,370.02L431.01,369.72L429.87,370.62L429.65,371.68L428.56,371.48L427.76,370.68L427.04,371.2L426.35,370.27L425.06,371.3L424.32,372.67L422.78,372.74L422.66,374.42L423.16,374.75L422.93,376.13L421.43,377.82L424.27,378.21L424.72,378.9L423.55,380.76L421.63,380.83L420.92,382.85L419.46,382.32L417.47,382.71L416.4,382.27L415.26,382.48L414.35,384.56L411.56,384.41L410.95,383.43L410.07,383.86L407.46,381.59L406.64,381.73L406.63,380.4L405.4,380.93L404.12,380.73L403.28,379.28L402.38,379.38L400.85,378.39L398.56,375.04L396.99,373.8L396.21,372.53L393.12,371.66L392.61,370.56L391.24,365.02L390.98,361.82L390.28,359.21L389.13,357.46L387.53,352.06L387.04,351.86L386.57,349.67L385.9,349.64L385.02,348.66L384.73,347.63L385.98,347.34L386.96,346.01L387.39,343.15L386.46,340.93L386.45,339.07Z" class="land" id="IN-KA" title="Karnataka"/>
    <path d="M393.12,371.66L396.21,372.53L396.99,373.8L398.56,375.04L400.85,378.39L402.38,379.38L403.28,379.28L404.12,380.73L405.4,380.93L406.63,380.4L406.64,381.73L407.46,381.59L410.07,383.86L409.27,384.72L407.92,384.92L408.49,385.92L409.93,386.37L411.34,387.94L410.77,388.94L412.25,389.13L413.51,389.84L412.53,392.03L414.36,392.72L415.24,393.73L414.5,395.79L414.25,397.68L414.39,399L416.03,399.96L418.13,398.44L419.41,399.98L418.52,403.75L418.62,405.35L418.01,406.63L419.67,406.77L420.67,407.83L419.26,410.11L419.1,411.74L417.79,413.18L419,414.87L418.04,416.21L419.24,418.41L417.4,421.05L416.08,420.09L412.34,415.12L411.41,414.39L411.11,413.11L409.14,408.72L408.05,402.65L406.54,398.06L404.48,393.49L403.91,390.99L402.58,387.27L402,386.21L401.29,385.89L400.47,383.61L398.98,381.87L398.44,381.64L397.46,380.01L396.55,379.01L394.28,374.51Z" class="land" id="IN-KL" title="Kerala"/>
    <path d="M370.53,388.33L370.4,388.8L370.21,389.21L370.39,388.54Z" class="land" id="IN-LD" title="Lakshadweep"/>
    <path d="M385.26,266.52L386.83,266.74L387.9,265.75L389.42,267.05L389.24,269.19L389.76,269.71L392.29,270.55L393.5,270.32L395.19,271.09L395.82,272.32L396.96,272.89L400.54,273.34L404.24,273.02L406.03,273.57L406.53,273.32L407.34,275.49L407.34,276.7L409.56,276.79L410.77,275.4L412.25,275.44L412.26,273.78L414,272.24L414.12,270.71L415.28,270.67L417.14,269.24L419.44,269.22L419.47,268.77L421.53,268.67L422.58,270.36L422.53,271.5L421.34,271.19L421.66,273.28L422.72,273.43L425.06,272.87L426.58,273.17L429.09,271.86L429.22,271.16L431.85,270.65L433.62,272L437.4,271.99L437.2,270.76L439.1,270.69L440.63,269.22L441.94,269.75L443.46,269.81L443.99,271.33L446.12,270.65L447.48,271.49L449.73,271.21L451.09,270.28L451.87,270.44L453.07,271.6L453.52,272.57L455.5,273.9L456.19,273.83L455.96,274.77L454.02,275.67L453.65,277.58L454,278.48L454.94,278.46L454.98,280.43L455.81,282.31L455.42,284.73L455.77,285.45L454.6,286.19L453.21,286.52L453.32,287.65L454.92,288.05L454.98,289.47L454.15,291.35L456.29,292.89L456.19,293.81L458.05,294.38L458.75,295.51L458.24,296.72L457.2,297.57L455.68,297.34L455.22,296.25L454.22,297.01L453.25,298.7L452.57,299.25L451.95,301.7L452.83,302.91L451.95,304.13L450.24,304.61L449.17,303.57L448.29,303.36L448.32,300.63L447.49,299.68L448.42,298.91L448.74,296.25L448.38,295.52L446.21,293.92L444.05,294.55L443.27,295.14L442.16,294.29L440.8,293.81L440.08,295.56L438.34,294.65L437.8,293.38L436.6,293.3L436.46,292.12L435.05,292.02L433.82,291.44L431.58,291.22L431.01,292.64L430.18,293.22L430.61,295.61L429.23,296.13L429.1,298.15L427.74,297.76L426.69,296.94L425.73,297.4L425.7,298.8L424.65,300.16L424.71,301.09L425.65,301.43L426.62,302.93L425.48,303.1L424.38,306L422.9,306.93L422.01,308.36L422.34,309.03L421.42,309.39L420.82,307.91L419.81,307.16L416.98,310.62L415.85,310.25L415.51,311.04L415.44,313.34L414.2,313.88L413.39,315.38L411.16,315.13L410.79,316.25L409.07,317L409.52,318.84L409.2,319.8L408.12,319.52L404.71,320.09L403.31,319.57L401.49,318.34L401.17,320.33L401.75,320.81L401.41,321.85L401.96,322.72L401.91,324.24L399.93,324.44L399.66,323.96L397.71,324.3L396.92,325.61L395.55,324.37L393.89,324.46L392.99,326.4L391.28,327.03L390.6,328.62L389.68,327.96L387.26,328.87L387.19,331.46L389.15,332.53L389,334.16L387.94,336.27L387.65,337.72L385.9,337.95L385.04,339.11L383.97,339.63L383.08,338.08L380.19,338.27L379.21,336.14L378.33,335.86L376.75,330.16L376.22,329.32L376.17,325.99L375.8,325.02L375.98,323.95L375.21,320.75L375.44,320.29L374.8,318.75L374.25,315.61L373.1,313.01L372.46,310.85L372.7,309.23L371.64,306.95L372,306.15L371.2,304.37L371.77,302.01L372.81,300.86L371.27,300.85L370.38,298.96L370.59,297.06L370.14,296.54L369.71,294.66L369.92,293.98L369.12,290.1L369.69,289.64L369.92,287.74L370.62,287.87L371.41,286.7L372.45,286.86L372.48,287.81L374.3,288.34L375.13,287.91L376.17,286.92L377.46,286.93L377.46,284.51L378.23,283.05L377.16,281.86L378.03,280.99L379.71,282.59L380.93,282.73L381.91,282.17L382.42,280.84L383.12,280.7L382.65,277.89L381.22,277.57L380.98,276.36L381.74,275.68L381.84,274.57L383.11,274.22L383.33,273.11L384.4,272.06L386.39,272.28L385.7,271.15L384.43,271.15L382.15,271.9L381.76,270.7L382.54,269.5L381.61,268.06Z" class="land" id="IN-MH" title="Maharashtra"/>
    <path d="M556.56,223.78L558.16,223.08L556.8,221.48L557.37,220.39L559.27,218.74L559.96,218.94L563.17,218.08L564.83,219.03L566.12,218.79L568.24,218.9L569.56,220.44L571.01,219.98L570.96,221.54L571.87,221.33L572.5,220.22L573.71,220.2L575.14,217.87L576.71,218.83L576.83,217.55L577.79,216.83L578.91,218.28L579.67,217.77L582.39,217.51L581.47,218.94L581.51,222.24L582.26,221.7L584.48,221.52L585.23,222.83L586.79,223.87L586.28,224.66L588.05,226.3L588.53,227.7L587.03,228.21L586.54,228.92L585.48,228.66L584.4,229.96L582.31,229.17L580.49,228.05L576.57,228.43L575.59,228.22L574.03,228.73L571.85,227.88L569.77,227.96L567.42,228.46L566.53,228.13L563.6,228.23L562.9,228.6L561.7,228.01L559.23,227.61L557.66,226.69L556.31,226.61L556.4,224.61Z" class="land" id="IN-ML" title="Meghalaya"/>
    <path d="M595.82,226.62L596.16,227.4L597.28,227.91L598.2,225.99L599.47,224.73L599.05,223.83L601.71,223.16L603.06,224.03L604.97,224.38L607.6,223.28L607.62,224.16L608.98,224.8L608.43,225.68L607.93,227.74L609.67,228.7L609.38,231.03L608.5,232.23L608.21,233.68L606.62,235.43L605.73,237.78L604.41,240.31L604.22,241.78L603.31,244.07L600.54,242.82L599.55,243.15L598.9,242.2L597.42,242.14L596.27,242.94L595.18,241.37L594.33,241.67L591.76,241.77L590.4,240.94L591.13,238.21L590.66,237.5L591.8,234.24L593.52,230.92L593.37,230.11L594.32,229.19L594.89,227.38Z" class="land" id="IN-MN" title="Manipur"/>
    <path d="M429.53,208.1L431.08,207.63L431.49,208.24L433.41,209.06L435.04,208.54L436.67,209.7L438.07,209.95L438.05,211.19L438.8,212.16L439.6,214.08L438.54,215.03L438.18,217.28L437.53,217.82L436.19,220.7L435.38,221.31L436.02,222.81L434.31,223.52L432.54,223.32L431.7,223.92L430.47,225.83L431.45,227.99L430.82,229.27L430.81,230.34L429.05,231.76L430.17,234.34L430.15,236.97L431.98,238.76L432.75,237.61L433.55,238.05L434.54,239.39L435.53,239.23L436.82,239.65L437.78,238.09L437.97,237.04L436.85,234.66L435.71,235.22L435.58,232L434.02,230.76L433.44,227.23L433.82,225.32L435.57,226.02L435.49,224.61L437.23,224.07L436.37,226.1L436.74,228.34L438.27,227.35L439.45,228.36L440.74,228.94L441.18,227.96L440.97,226.61L441.91,226.33L442.67,227.22L442.49,228.97L443.48,229.34L444.65,228.76L446.26,228.61L447.47,229.15L447.37,227.45L449,227.11L449.26,226.21L450.38,226.27L451.15,225.33L452.42,225.68L452.35,226.86L453.65,228.24L452.86,228.6L451.94,229.97L454.59,229.12L456.37,229.69L457.75,228.58L458.52,229.49L458.13,231.13L459.44,231.23L461.69,230.84L462.78,229.52L462.86,228.32L465.08,228.69L466.1,227.98L467.36,229.81L469.58,230.43L469.69,231.63L473.42,233.29L473.33,234.3L475.28,235.17L475.2,234.14L477.99,233.94L479.13,234.59L478.53,237.71L479.15,238.82L478.54,241.35L479.62,242.75L477.97,243.41L477.21,244.42L474.4,244.65L472.99,244.31L471.32,244.45L469.91,243.83L468.46,244.55L467.14,243.2L466.45,244.05L467.42,245.63L466.49,247.07L466.54,248.18L467.95,247.46L468.94,248.13L469.91,247.88L470.56,249.29L471.9,249.48L472.85,250.34L472.47,252.51L471.09,253.24L470.15,253.27L470.17,254.7L468.31,255.69L468.24,258.17L467.08,258.54L466.64,259.64L465.16,260.18L463.45,259.81L462.31,260.67L461.13,260.79L461.17,262.52L460.14,263.29L459.92,265.26L458.96,264.58L458.15,266.74L457.87,268.95L456.86,269.37L456.99,272.17L456.19,273.83L455.5,273.9L453.52,272.57L453.07,271.6L451.87,270.44L451.09,270.28L449.73,271.21L447.48,271.49L446.12,270.65L443.99,271.33L443.46,269.81L441.94,269.75L440.63,269.22L439.1,270.69L437.2,270.76L437.4,271.99L433.62,272L431.85,270.65L429.22,271.16L429.09,271.86L426.58,273.17L425.06,272.87L422.72,273.43L421.66,273.28L421.34,271.19L422.53,271.5L422.58,270.36L421.53,268.67L419.47,268.77L419.44,269.22L417.14,269.24L415.28,270.67L414.12,270.71L414,272.24L412.26,273.78L412.25,275.44L410.77,275.4L409.56,276.79L407.34,276.7L407.34,275.49L406.53,273.32L406.03,273.57L404.24,273.02L400.54,273.34L396.96,272.89L395.82,272.32L395.19,271.09L393.5,270.32L392.29,270.55L389.76,269.71L389.24,269.19L389.42,267.05L387.9,265.75L386.83,266.74L385.26,266.52L384.74,265.8L385.01,263.48L384.31,262.62L384.46,261.74L385.75,262.2L386.48,261.27L385.34,259.89L386.56,258.39L387.86,258.4L388.89,255.86L388.03,255.38L387.19,253.45L387.93,252.86L389.25,253.14L390.96,251.81L390.71,251.11L389.32,250.3L390.35,248.72L392.88,247.62L393.92,245.47L393.54,243.81L394.49,241.96L393.27,239.76L392.21,238.53L392.59,236.79L391.43,236.21L392.38,232.79L393.4,234.48L394.56,233.84L394.64,232.79L393.02,232.58L392.64,231.2L395.04,232.03L395.86,231.67L396.3,229.79L398.33,229.82L398.24,230.78L397.41,231.66L397.9,232.58L397.48,233.55L399.49,234.02L401.25,234.08L402.84,233.16L404.56,235.48L404.47,236.86L403.18,236.63L402.48,237.47L402.99,239.67L402.66,240.64L402.87,242.34L401.86,241.91L400.92,242.41L400.17,241.73L399.54,243.26L400.91,244.69L402.51,244L404.14,243.69L405.2,243.11L405.03,242.01L406.93,241.17L406.78,239.97L409.02,239.28L411.25,240.36L412.15,239.42L414.19,240.87L415.26,240.75L415.75,239.85L414.61,238.27L414.73,236.71L416.37,236.6L417.06,235.5L416.64,233.81L414.69,233.34L414.19,232.5L415.55,232.14L414.77,230.22L416.28,229.38L417.19,229.64L418.2,228.97L419.65,229.33L420.69,228.98L420.78,227.62L419.68,225.08L418.59,226.59L417.18,226.25L415.9,226.76L412.88,226.18L412.02,225.66L411.13,223.96L411.23,220.72L412.5,219.37L414.24,218.84L415.13,217.14L416.2,216.66L417.7,215.38L418.57,215.39L420,213.93L421.06,213.84L423.63,212.09L425.21,211.53L427.16,209.73L428.18,209.97L428.33,208.58Z" class="land" id="IN-MP" title="Madhya Pradesh"/>
    <path d="M582.99,239.31L584.36,239.29L584.52,240.49L585.55,240.19L587.29,238.07L588.1,236.09L588.79,237.8L590.66,237.5L591.13,238.21L590.4,240.94L591.76,241.77L594.33,241.67L595,243.14L595.07,245.15L595.5,246.09L594.64,249.99L594.94,252.55L593.9,254.12L592.1,253.63L592.17,255.22L591.66,257.63L592.23,258.93L591.87,259.72L592.74,260.95L592.93,262.91L592.34,263.89L591.16,263.66L590.76,266.17L588.96,265.24L587.58,264.19L587.22,265.77L586.4,266.25L586.45,263.95L585.55,259.36L585.56,258.26L584.64,255.45L583.85,254.96L584.05,253.5L583.7,251.38L583.91,249.89L583.28,248.57L582.98,245.97L582.69,245.54L582.59,244.52L583.16,242.78L583.43,240.56Z" class="land" id="IN-MZ" title="Mizoram"/>
    <path d="M614.57,205.57L614.99,207.43L614.72,207.92L615.03,209.93L613.18,212.66L613.92,213.56L613.76,216.94L614.47,217.3L612.61,219.82L613.02,221.14L611.77,222.28L611.41,223.51L610.4,224.37L608.98,224.8L607.62,224.16L607.6,223.28L604.97,224.38L603.06,224.03L601.71,223.16L599.05,223.83L599.47,224.73L598.2,225.99L597.28,227.91L596.16,227.4L595.82,226.62L595.69,225.1L594.27,223.75L596.1,222.43L596.9,221.17L598.34,220.1L598.85,219.04L600.27,220.14L601.33,219.24L601.06,218.18L601.6,216.17L602.73,214.31L603.46,214.09L603.58,212.68L605.9,211.8L605.99,210.8L607.49,209.63L609.03,209.36L610.29,208.46L611.21,206.92L612.29,207.1L613.64,206.5Z" class="land" id="IN-NL" title="Nagaland"/>
    <path d="M492.64,259.85L494.08,260.44L494.27,261.26L495.76,262.01L497.25,261.88L498.35,261.04L502.35,261.06L504.19,260.35L504.27,262.78L503.76,264.67L505.38,265.18L506.02,265.98L506.77,264.72L507.8,264.12L509.38,264.96L510.53,264.92L511.79,266.1L513.37,266.37L514.69,263.81L514.07,263.12L514.64,259.86L517.45,260.74L518.24,261.92L521.43,262.91L522.27,263.45L523.46,264.86L524.83,265L525.67,266.11L525.62,267.56L527.85,266.52L528.15,268.17L530.13,268.79L530.54,270.57L529.43,271.31L527.48,271.28L525.09,272.89L524.12,274L523.37,276.08L524.97,279.77L523.35,280.51L523.32,281.9L523.43,281.51L524.57,281.06L525.29,281.24L522.94,283.1L522.35,284.62L522.9,285.31L521.81,286.27L520.43,286.89L518.37,289.86L510.73,292.34L507.71,293.88L505.03,295.76L502.55,297.89L500.9,300.06L499.06,299.45L497.94,300.64L497.29,301.87L496.27,302.41L496.23,303.27L494.26,303.46L491.2,302.97L490.29,300.78L489.31,300.69L488.3,299.86L486.92,300.64L485.04,301L486.2,302.5L485.6,303.18L483.91,303.85L483.17,303.5L482.27,304.86L481.9,307.96L480.98,308.34L479.53,307.33L479.18,308.57L477.15,309.27L477.36,308.14L476.65,307.9L476.52,306.59L475.99,306.21L474.76,307.67L474.47,308.73L474.42,311.9L473.73,312.52L472.57,311.87L471.09,311.7L470.3,312.46L468.19,313.59L467.15,313.78L466.59,314.48L464.12,314.58L465.13,312.71L465.68,309.4L468.23,307.65L470.33,305.64L470.47,304.44L472.58,303.29L472.7,302.09L473.43,301.91L473.13,299.84L472.48,297.82L472.82,296.06L472.12,295.99L471.33,294.66L471.47,291.84L469.18,290.39L469.37,288.9L470.18,288.14L472.77,289.58L473.34,289.34L474.52,291.29L475.64,290.45L478.48,291.28L478.53,289.44L477.34,289.49L475.08,288.63L475.33,286.98L475.11,285.43L475.5,284.38L474.35,282.89L474.83,282.07L474.47,280.51L474.6,279.05L475.82,279.75L476.11,278.82L477.6,277.26L477.75,275.95L480.4,275.95L481.24,275.64L483.02,276.51L483.79,276.11L484.66,273.31L486.01,273.02L485.36,271.9L485.86,270.53L486.99,269.02L487.06,268.16L488.08,267.82L487.55,266.41L487.58,265.33L488.75,263.34L489.92,263.13L491.1,261.94L492.66,261.66L493.06,260.52ZM524.57,281.06L523.43,281.51L523.32,281.9L523.35,280.51Z" class="land" id="IN-OR" title="Odisha"/>
    <path d="M404.07,136.05L403.84,136.94L404.72,138.11L403.76,138.6L402.59,139.96L401.35,140.46L402.08,142.69L404.31,144.12L404.61,145.83L405.49,148.01L407.13,150.98L407.34,152.35L408.68,152.19L409.37,150.96L410.34,152.36L412.38,153.55L412.11,156.2L413.85,157.45L414.48,159.26L412.98,159.3L413.37,160.12L414.39,160.24L415.41,161.33L414.53,163.43L413.72,163.37L411.82,165.67L412.42,166.31L412.29,167.57L410.92,167.94L409.71,167.29L408.24,167.58L407.54,168.69L407.47,170.3L405.85,172.08L404.14,172.08L403.6,171.26L402.25,171.31L400.14,171.92L399.41,171.31L397.62,173.8L396.28,173.14L397.08,172.02L396.55,170.93L395.28,170.42L394.45,170.7L393.65,169.54L392.4,168.99L390.64,169.88L389.33,169.61L382.49,169.28L383.31,167.38L383.3,166.45L382.27,164.26L383.49,162.59L384.68,161.64L386.2,159.82L387.11,158.19L389.53,156.34L390.05,155.05L389.17,154.5L389.24,152.79L390.67,150.4L389.31,147.03L390.21,144.94L392.49,144.06L393.17,142.83L394.62,143.11L395.83,142.42L397.17,142.36L398.52,140.46L398.08,139.14L399.09,139.31L402.32,138.1Z" class="land" id="IN-PB" title="Punjab"/>
    <path d="M446.86,382.21L446.17,381.11L447.27,380.73ZM447.41,393.26L446.06,392.33L446.87,391.34L447.45,391.46Z" class="land" id="IN-PY" title="Puducherry"/>
    <path d="M383.3,166.45L383.31,167.38L382.49,169.28L389.33,169.61L389.7,170.59L388.74,171.57L390.27,172.01L389.84,174.38L390.36,174.84L389.75,176.19L390.17,176.9L391.91,176.98L392.83,176.37L393.77,176.87L394.05,177.9L395.74,178.59L398.88,178.15L398.71,180.54L399.3,181.21L400.16,183.45L400.62,186.21L401.42,187.06L404.25,188.95L406.04,191.04L404.76,192.66L405.57,193.36L405.06,195.48L406.42,195.44L407.15,193.83L409.56,192.11L410.59,191.9L411.33,193.33L414.08,191.87L414.72,191.01L415.94,192.04L415.47,193.84L415.69,194.81L415.06,197.52L416.03,198.04L416.77,196.03L417.73,196.57L419.36,196.2L420.08,198.09L420,199.6L421.03,200.44L421.06,201.21L422.61,202.1L423.68,203.64L422.43,205.64L424.02,206.09L420.96,207.72L421.59,208.69L424.15,207.55L424.56,206.86L426.05,207.45L428.46,206.67L430.1,207.03L429.53,208.1L428.33,208.58L428.18,209.97L427.16,209.73L425.21,211.53L423.63,212.09L421.06,213.84L420,213.93L418.57,215.39L417.7,215.38L416.2,216.66L415.13,217.14L414.24,218.84L412.5,219.37L411.23,220.72L411.13,223.96L412.02,225.66L412.88,226.18L415.9,226.76L417.18,226.25L418.59,226.59L419.68,225.08L420.78,227.62L420.69,228.98L419.65,229.33L418.2,228.97L417.19,229.64L416.28,229.38L414.77,230.22L415.55,232.14L414.19,232.5L414.69,233.34L416.64,233.81L417.06,235.5L416.37,236.6L414.73,236.71L414.61,238.27L415.75,239.85L415.26,240.75L414.19,240.87L412.15,239.42L411.25,240.36L409.02,239.28L406.78,239.97L406.93,241.17L405.03,242.01L405.2,243.11L404.14,243.69L402.51,244L400.91,244.69L399.54,243.26L400.17,241.73L400.92,242.41L401.86,241.91L402.87,242.34L402.66,240.64L402.99,239.67L402.48,237.47L403.18,236.63L404.47,236.86L404.56,235.48L402.84,233.16L401.25,234.08L399.49,234.02L397.48,233.55L397.9,232.58L397.41,231.66L398.24,230.78L398.33,229.82L396.3,229.79L395.86,231.67L395.04,232.03L392.64,231.2L393.02,232.58L394.64,232.79L394.56,233.84L393.4,234.48L392.38,232.79L391.43,236.21L392.59,236.79L392.21,238.53L393.27,239.76L394.49,241.96L393.54,243.81L393.92,245.47L392.88,247.62L390.35,248.72L389.32,250.3L390.71,251.11L390.96,251.81L389.25,253.14L387.93,252.86L387.19,253.45L386.35,251.96L385.05,252.07L385.13,251L384.03,250.25L382.52,250.2L381.84,248.9L380.69,249.3L379.07,246.42L377.36,244.94L376.72,243.96L377.4,243.13L377.28,241.7L375.21,241.14L373.68,240.1L374.63,238.12L373.96,237.22L372.78,236.69L371.95,238.42L371.34,237.94L369.86,238L369.48,236.85L367.82,236.25L366.95,237.45L365.78,235.71L365.1,235.88L364.39,234.75L363.68,234.97L362.45,233.87L361.27,234.82L360.54,234.24L358.2,234.74L356.31,234.25L354.23,235.05L352.16,234.17L350.4,231.13L349.84,228.61L348.45,227.15L347.44,225.65L347.59,224.11L347.35,221.93L344.45,222.34L343.14,221.89L341.14,218.94L340.99,217.37L341.98,215.3L341.92,211.58L340.82,210.99L338.78,211.21L334.73,209.17L334.47,208.46L334.79,205.89L335.5,204.07L338.59,201.16L340.27,199.28L341.8,195.86L344.08,193.71L346.22,193.57L347.42,194.87L347.49,195.8L348.35,197.3L349.73,197.53L353.96,195.76L355.45,195.47L358.16,195.43L360.77,194.34L361.16,192.25L361.84,191.26L363.89,189.39L365.17,185.59L366.07,184.35L369.63,182.23L372.14,181.08L373.75,178.31L375.73,174.46L377.04,169.68L379.44,168.62L381.35,168.07Z" class="land" id="IN-RJ" title="Rajasthan"/>
    <path d="M544.38,204.28L543.64,203.89L541.96,204.26L540.89,205.1L539.5,204.52L537.12,204.36L536.37,203.42L537.09,200.87L536.69,200.02L538.36,196.4L537.54,194.42L540.43,194.08L542.9,192.53L544.37,192.91L545.26,193.67L545.41,197.89L544.54,199.17L545,201.13L546.24,202.1L544.91,203.07Z" class="land" id="IN-SK" title="Sikkim"/>
    <path d="M422.34,309.03L422.01,308.36L422.9,306.93L424.38,306L425.48,303.1L426.62,302.93L425.65,301.43L424.71,301.09L424.65,300.16L425.7,298.8L425.73,297.4L426.69,296.94L427.74,297.76L429.1,298.15L429.23,296.13L430.61,295.61L430.18,293.22L431.01,292.64L431.58,291.22L433.82,291.44L435.05,292.02L436.46,292.12L436.6,293.3L437.8,293.38L438.34,294.65L440.08,295.56L440.8,293.81L442.16,294.29L443.27,295.14L444.05,294.55L446.21,293.92L448.38,295.52L448.74,296.25L448.42,298.91L447.49,299.68L448.32,300.63L448.29,303.36L449.17,303.57L450.24,304.61L451.95,304.13L452.76,305.64L454.3,305.16L455.93,306.42L456.95,307.68L457.62,309.45L457.04,310.4L459.32,311.44L460.28,314.77L461.67,314.05L462.7,314.52L464.12,314.58L466.59,314.48L467.15,313.78L468.19,313.59L468.45,314.29L466.21,315.5L465.41,317.06L465.3,318.67L464.46,319.67L463.47,319.34L462.84,320.14L461.91,320.12L461.7,321.14L459.83,321.74L458.9,321.5L458.1,323.5L455.14,322.22L454.29,323.22L452.94,324.12L454.35,324.73L455.4,324.63L455.17,326.49L454.01,326.18L452.51,325.26L451.89,323.67L449.53,324.19L448.94,325.35L449.79,325.91L448.58,327.86L446.58,326.87L445.2,327.64L443.56,328L442.79,328.54L441.04,328.78L440.6,329.39L440.52,332.44L438.48,332.37L437.11,333.09L435.69,334.88L433.97,334.03L433.34,334.51L431.67,334.23L430.04,334.8L429.84,335.96L428.44,337.11L426.02,336.33L425.06,336.68L423.53,336.55L421.9,336.05L421.62,333.35L422.8,331.32L419.45,330.58L421.41,328.52L421.29,324.83L421.79,323.71L421.39,322.6L420.27,321.95L421.27,319.57L423.82,318.02L421.15,317.16L421.26,315.9L422.48,315.26L422.34,314.45L423.39,312.45Z" class="land" id="IN-TG" title="Telangana"/>
    <path d="M429.65,371.68L430.41,372.79L431.26,373.25L433.59,371.48L433.93,369.15L434.9,368.29L436.79,367.95L437.92,368.06L438.89,368.76L439.8,368.83L440.52,367.4L441.5,367.83L442.62,366.54L442.81,365.29L443.98,365.43L444.46,366.17L448.22,365.16L448.62,363.86L449.79,362.9L450.69,363.55L452.43,364.19L452.79,365.86L452.29,367.36L451.81,371.34L450.75,374.84L447.78,379.35L447.27,380.73L446.17,381.11L446.86,382.21L446.39,384.93L447.27,387.25L447.45,391.46L446.87,391.34L446.06,392.33L447.41,393.26L447.72,398.99L446.23,399.22L442.34,398.76L441.35,399.38L440.64,400.67L441.05,401.85L439.83,403.02L439.47,403.88L438.08,405.49L437.03,408.02L437.48,408.83L438.83,410L434.41,411.19L433.55,411.87L431.72,412.08L429.52,413.76L429.08,414.62L429.09,416.14L428.39,417.16L428.67,418.86L427.98,420.25L425.11,421.6L424.49,422.38L422.62,422.84L422.36,423.49L419.8,423L417.4,421.05L419.24,418.41L418.04,416.21L419,414.87L417.79,413.18L419.1,411.74L419.26,410.11L420.67,407.83L419.67,406.77L418.01,406.63L418.62,405.35L418.52,403.75L419.41,399.98L418.13,398.44L416.03,399.96L414.39,399L414.25,397.68L414.5,395.79L415.24,393.73L414.36,392.72L412.53,392.03L413.51,389.84L412.25,389.13L410.77,388.94L411.34,387.94L409.93,386.37L408.49,385.92L407.92,384.92L409.27,384.72L410.07,383.86L410.95,383.43L411.56,384.41L414.35,384.56L415.26,382.48L416.4,382.27L417.47,382.71L419.46,382.32L420.92,382.85L421.63,380.83L423.55,380.76L424.72,378.9L424.27,378.21L421.43,377.82L422.93,376.13L423.16,374.75L422.66,374.42L422.78,372.74L424.32,372.67L425.06,371.3L426.35,370.27L427.04,371.2L427.76,370.68L428.56,371.48Z" class="land" id="IN-TN" title="Tamil Nadu"/>
    <path d="M582.28,236.29L582.99,239.31L583.43,240.56L583.16,242.78L582.59,244.52L582.69,245.54L581.54,245.41L580.53,246.54L579.13,246.1L579.49,248.47L578.1,249.45L577.31,250.9L577.97,253.06L576.76,254.32L575.05,254.52L573.88,251.17L573.11,252.07L572.49,251.2L571.63,248.38L570.68,247.05L570.62,245.41L571.32,245.41L571.4,243.7L572.99,241.01L574.81,241.4L575.78,241.09L576.06,240.07L576.97,239.36L578.78,240.61L579.48,237.67L581.06,237.73Z" class="land" id="IN-TR" title="Tripura"/>
    <path d="M422.49,163.8L426.5,165.79L425.49,167.49L424.92,167.64L424,170.51L425.38,173.05L426.72,172.6L427.12,174.6L428.76,172.97L429.77,172.62L430.86,171.46L432.56,172.15L432.99,173.62L435.8,175.47L437.3,175.72L435.84,177.31L437.06,179.54L438.44,179.27L441.4,182L442.51,182.26L442.62,183.21L446.58,182.76L447.44,183.36L448.19,184.74L449.18,184.68L449.82,183.54L450.34,183.55L453.97,186.03L455.25,185.3L457.65,187.33L460.82,189.06L462.24,189.36L463.44,191.38L464.78,191.81L465.16,192.8L467.6,193.98L469.59,195.57L470.5,194.69L471.58,194.76L475.73,197.77L478.56,197.24L479.08,198.9L478.85,199.93L480.97,199.96L482.11,200.6L483.79,200.53L485.06,202.04L486.2,201.04L485.98,200.22L488.44,200.34L491.07,201.8L491.5,202.92L492.38,203.64L491.95,204.96L493.06,205.55L493.18,207.42L495.36,208.43L496.16,209.95L495.58,210.99L493.5,210.46L493.13,211.67L491.55,211.98L493.4,213.6L494.48,213.73L494.35,215.29L492.81,216.51L494.43,217.96L497.22,219.57L498.37,219.75L499.37,220.76L497.93,222.17L496.75,221.31L496.08,222.24L493.44,222.66L491.71,223.61L490.43,225.39L489.7,225.4L488.5,226.37L487.59,226.52L485.37,228.16L485.61,228.85L485.57,231.89L485.93,232.93L487.61,234.83L487.14,236.01L486,236.32L485.81,238.56L486.1,239.14L485.24,241.1L483.78,243.25L482.66,243.76L481.05,243.79L479.62,242.75L478.54,241.35L479.15,238.82L478.53,237.71L479.13,234.59L477.99,233.94L475.2,234.14L475.28,235.17L473.33,234.3L473.42,233.29L469.69,231.63L469.58,230.43L467.36,229.81L466.1,227.98L465.08,228.69L462.86,228.32L462.78,229.52L461.69,230.84L459.44,231.23L458.13,231.13L458.52,229.49L457.75,228.58L456.37,229.69L454.59,229.12L451.94,229.97L452.86,228.6L453.65,228.24L452.35,226.86L452.42,225.68L451.15,225.33L450.38,226.27L449.26,226.21L449,227.11L447.37,227.45L447.47,229.15L446.26,228.61L444.65,228.76L443.48,229.34L442.49,228.97L442.67,227.22L441.91,226.33L440.97,226.61L441.18,227.96L440.74,228.94L439.45,228.36L438.27,227.35L436.74,228.34L436.37,226.1L437.23,224.07L435.49,224.61L435.57,226.02L433.82,225.32L433.44,227.23L434.02,230.76L435.58,232L435.71,235.22L436.85,234.66L437.97,237.04L437.78,238.09L436.82,239.65L435.53,239.23L434.54,239.39L433.55,238.05L432.75,237.61L431.98,238.76L430.15,236.97L430.17,234.34L429.05,231.76L430.81,230.34L430.82,229.27L431.45,227.99L430.47,225.83L431.7,223.92L432.54,223.32L434.31,223.52L436.02,222.81L435.38,221.31L436.19,220.7L437.53,217.82L438.18,217.28L438.54,215.03L439.6,214.08L438.8,212.16L438.05,211.19L438.07,209.95L436.67,209.7L435.04,208.54L433.41,209.06L431.49,208.24L431.08,207.63L429.53,208.1L430.1,207.03L428.46,206.67L426.05,207.45L424.56,206.86L424.15,207.55L421.59,208.69L420.96,207.72L424.02,206.09L422.43,205.64L423.68,203.64L422.61,202.1L421.06,201.21L421.03,200.44L420,199.6L420.08,198.09L419.36,196.2L422.01,194.65L421.57,193.27L421.72,190.35L421.52,188.7L420.03,187.52L420.02,186.28L418.39,183.08L418.69,181.34L417.68,180.1L417.63,176.72L417.87,175.9L417.29,173.91L417.91,172.59L418.32,170.08L419.3,168.29L420.87,167.55L422.62,164.05Z" class="land" id="IN-UP" title="Uttar Pradesh"/>
    <path d="M449.82,183.54L449.18,184.68L448.19,184.74L447.44,183.36L446.58,182.76L442.62,183.21L442.51,182.26L441.4,182L438.44,179.27L437.06,179.54L435.84,177.31L437.3,175.72L435.8,175.47L432.99,173.62L432.56,172.15L430.86,171.46L429.77,172.62L428.76,172.97L427.12,174.6L426.72,172.6L425.38,173.05L424,170.51L424.92,167.64L425.49,167.49L426.5,165.79L422.49,163.8L425.06,162.45L424.3,161.35L424.84,160.52L423.85,159.19L424.95,158.05L425.03,156.64L426.02,154.29L428.2,153.83L431.13,152.55L432.37,153.66L433.73,153.25L434.3,153.78L435.91,153.65L436.74,154.89L438.1,154.79L437.13,152.96L438.66,150.26L439.55,150.67L440.84,152.48L441.24,154.09L442.3,154.75L442.64,155.78L443.6,155.76L444.54,156.98L446.23,156.17L447.45,156.52L448.11,157.63L450.75,158.63L451.62,159.59L451.38,161.6L453.4,162.2L454.77,163.17L455.4,162.76L457.07,163.88L458.97,166.09L458.61,167.28L456.42,169.43L455.63,169.42L455.08,170.8L453.06,172.03L453.63,173.43L452.86,174.94L451.7,175.87L452.51,177.51L452.01,179.65L450.63,180.13L450.53,181.33L449.69,182.46Z" class="land" id="IN-UT" title="Uttarakhand"/>
    <path d="M536.37,203.42L537.12,204.36L539.5,204.52L540.89,205.1L541.96,204.26L543.64,203.89L544.38,204.28L545.66,204.77L546.67,207.02L548.06,207.39L548.51,208.44L549.87,208.33L551.19,207.73L552.08,208.46L553.17,208.35L555.52,209.76L556.42,209.71L556.42,213.6L555.26,214.37L554.91,216.26L553.83,216.11L554.19,217.5L552.99,218.2L550.92,218.14L548.85,216.59L548.65,214.38L546.69,212.64L546.11,213.27L546.99,214.57L545.11,215.12L544.35,213.98L541.92,212.42L540.3,211.06L540.19,212.35L541.45,212.67L541.18,213.73L540.02,214.85L540.03,215.6L538.15,216.5L537.13,219.33L537.46,220.73L539.15,220.93L541.16,222.38L541.05,223.15L543.27,224.59L545.33,224.68L545.38,225.98L546.61,227.22L546.24,228.33L543.91,227.82L542.35,228.2L541.04,227.98L541.13,229.91L539.91,231.07L538.67,230.83L538.1,232.01L536.96,233.11L536.3,234.34L537.8,236.27L539.81,237.73L541.07,237.81L544.19,239.03L543.81,240.33L544.16,243.35L542.74,244.49L542.31,246.57L543.21,246.98L544.44,249.22L544.03,251.2L544.87,251.64L546.14,251.47L546.66,251.94L545.66,253.05L545.7,254.14L546.73,256.05L546.2,257.01L546.64,257.85L546.4,259.27L545.65,259.56L545.4,261.41L544.9,262.6L543.62,263.51L542.93,264.7L542.71,266.28L540.76,267.08L538.55,268.75L537.86,266.46L536.77,265.86L535.97,267.65L533.9,269.56L530.54,270.57L530.13,268.79L528.15,268.17L527.85,266.52L525.62,267.56L525.67,266.11L524.83,265L523.46,264.86L522.27,263.45L523.12,263.47L524.05,262.52L522.68,259.24L521.5,259.2L521.13,258.05L519.92,257.72L518.93,256.83L519.11,255.1L517.65,254.03L516.71,254.29L514.8,252.49L513.47,252.66L512.51,251.07L513.07,250.36L512.94,248.62L514.91,248.34L517.05,249.22L518.45,248.47L518.3,247.75L519.19,246.72L520.16,246.73L521.96,245.95L523.03,246.04L523.34,244.56L524.15,243.74L526.65,244.75L528.5,243.52L527.89,241.82L530.55,242.15L530.67,240.94L532.81,240.52L532.24,239.79L533.53,238.69L534.12,237.45L534.08,235.8L534.96,235.59L534.98,232.11L535.9,231.58L534.85,230L533.75,229.24L533.87,227.69L534.62,227L533.56,225.46L536.42,223.27L536.72,222.01L535.08,221.06L535.22,220.06L534.26,219.83L534.47,217.73L535.84,217.28L537.76,215.2L539.37,213.97L538.65,212.49L537.34,211.76L537.96,210.54L538.26,208.89L537.68,206.28L536.12,204.81ZM537.68,267.45L538.05,269.01L537.38,270.37L536.59,269.8Z" class="land" id="IN-WB" title="West Bengal"/>
  </g>
</svg>