<?xml version="1.0" encoding="UTF-8"?>
<svg xmlns="http://www.w3.org/2000/svg" width="679.06" height="275.74" viewBox="140.47 119.13 679.06 275.74" style="background-color:#000000">
  <!-- Created using SVG Map Generator: dojo.amcharts.com/svg-map-generator -->
  <style>
    .land { fill: #ffffff; stroke: #000000; stroke-width: 0.65; }
  </style>
  <g id="polygons">
    <path d="M174.13,200.3L171.69,197.39L173.45,197.51L174.32,199.27ZM187.87,166.95L185.03,167.7L184.28,171.89L182.7,172.67L182.72,173.9L181.09,175.44L182.6,177.94L183.22,180.36L184.33,181.24L183.12,183.15L183.32,187.56L185.41,188.77L185.11,192.6L185.56,194.53L186.72,196.22L186.2,198.61L183.22,196.91L182.09,197.31L180.3,196.86L178.89,194.89L178.81,191.46L178.04,188.08L175.44,187.17L173.83,185.14L173.04,182.81L171.74,182.37L169.34,178.22L167.75,177.1L167.5,176.13L166.14,175.17L162.76,175.23L160.31,173.45L158.72,171.08L157.28,169.53L154.68,168.08L152.02,165.17L147.64,161.3L146.05,158.88L144,154.86L144.24,154.03L143.24,152.43L143.59,150.61L143.12,149.53L143.99,148.19L145.84,147L148.63,147.31L150.7,147.96L152.9,149.18L153.21,150.13L155.58,152.19L159.66,153.32L163.1,153.55L166.62,152.49L168.98,152.61L171.14,153.18L171.73,154.2L173.09,154.21L176.84,152.93L178.51,154.98L181.67,158.05L182.7,158.29L183.58,161.1L184.93,163.16L188.05,165.08ZM160.9,195.8L159.43,195.66L158.91,194.63L155.42,192.33L151.88,191.21L150.16,189.55L150.08,188.79L151.46,187.05L152.83,187.31L154.49,189.39L156.03,189.76L157.69,191.56L160.89,193.44L161.67,195.38Z" class="land" id="ID-AC" title="Aceh"/>
    <path d="M442.83,360.39L440.78,359.26L442.51,358.39ZM426.48,349.74L432.36,351.24L434.4,350.9L436.89,349.35L440.78,350.81L442.36,351.81L444.6,354.41L443.21,355.75L439.93,356.94L436.74,359L433.06,355.39L431.09,354.51L428.08,354.39L426.01,351.75Z" class="land" id="ID-BA" title="Bali"/>
    <path d="M343.67,254.87L342.98,253.31L344.33,252.92L345.07,254.33ZM314.83,274.8L312.36,273.98L313.61,272.88L315.06,273.5ZM328.68,267.6L332.38,268.64L335.01,270.79L335.45,272.3L334.17,274.55L334.05,276.21L332.28,277.81L330.92,278.13L330.68,276.89L329.22,275.22L328.42,276.98L325.43,277.58L324.95,274.58L325.42,273.16L325.98,268.35ZM303.04,256.36L304.15,258.7L304.46,261.9L305.25,264.31L306.34,266.09L307.39,266.86L310.78,267.49L313.21,268.44L311.73,269.8L310.66,272.61L310.67,273.69L312.61,274.49L312.27,275.9L309.35,275.97L308.25,274.18L303.07,272.13L301.65,271.98L300.51,270.4L300.25,268.74L300.74,266.69L299.08,265.44L298.78,262.43L297.99,261.66L294.06,261.21L292.03,261.6L289.01,260.84L289.09,258.99L292.66,257.01L292.07,254.66L293.69,253.35L295.89,252.89L296.65,255.83L298.91,256.67L297.42,253.06L300.04,252.22L302.1,253.46L302.23,255.02Z" class="land" id="ID-BB" title="Kepulauan Bangka Belitung"/>
    <path d="M243.75,270.99L244.77,272.57L246.01,273.39L246.6,274.96L249.33,275.3L250.11,276.43L250.05,278.03L252.22,279.63L254.38,278.65L256.16,280.09L257.52,279.89L257.43,282.2L256.26,283.53L255.36,282.46L253.76,284.4L253.66,285.37L252.33,286.08L254.47,288.46L256.96,289.39L259.42,289.57L260.23,291.32L260.24,292.71L261.86,292.98L265.1,294.72L266.42,294.57L265.98,296.52L267.77,298.77L267.9,299.87L269,300.93L268.93,300.97L266.33,302.82L264.08,301.89L260.99,298.97L258.32,297.2L256.07,296.36L254.65,294.54L250.96,291.61L247.09,288.8L247.35,287.38L246.39,284.52L237.03,277.78L233.89,272.97L232.87,270.49L230.14,268.95L228.46,266.9L231.74,264.71L232.43,263.87L236.43,266.4L236.54,267.78L238.05,267.54L240.87,270.39L243.71,270.98Z" class="land" id="ID-BE" title="Bengkulu"/>
    <path d="M312.33,320.08L312.31,321.54L313.13,323.46L313.1,323.59L310.47,324.13L308.61,323.38L308.41,325.12L307.58,326.31L307.98,328.86L309.23,330.1L308.09,330.92L307.54,333.3L306.26,333.5L305.28,332.59L300.91,330.79L298.41,331.31L297.13,331.14L294.1,331.62L293.58,331.14L290.43,330.35L292.46,328.35L293.46,330.8L296,328.03L296.57,325.93L298.38,326.43L299.12,325.11L299.18,322.47L300.01,319.82L301.54,318.52L302.2,317.1L303.31,317.57L304.16,319.14L305.55,318.05L308.96,319.38L311.75,318.99Z" class="land" id="ID-BT" title="Banten"/>
    <path d="M540.03,215.3L544,215.58L546.9,216.43L549.62,218.3L551.28,216.66L553.46,216.35L555.42,218.17L555.62,219.3L557.18,220.52L558.9,220.82L559.63,222.05L559.56,223.84L558.63,225.9L555.54,225.58L552.88,222.79L551.27,223.23L544.1,222.96L537.93,223.19L536.99,223.75L534.11,224.07L532.86,222.64L530.36,222.37L529.74,223.27L527.38,223.53L527.48,221.86L525.98,221.53L525.07,220.6L525.16,219.17L526.36,218.55L527.62,218.8L528.69,218.06L531.47,217.74L535.57,216.03L536.4,217.16Z" class="land" id="ID-GO" title="Gorontalo"/>
    <path d="M279.53,254.76L277.71,254.54L277.39,255.78L273.77,256.56L270.54,255.97L269.68,256.73L266.41,257.49L265.49,258.31L265.11,262.24L264.18,262.48L263.9,264.71L262.46,263.68L261.01,261.79L259.98,263.23L260.7,264.44L259.4,264.95L255.72,264.33L255.34,266.23L254.44,267.74L252.14,268.88L251.45,269.88L248.87,269.88L247.94,269.16L246.33,269.09L245.91,270.09L244.19,271.12L243.71,270.98L240.87,270.39L238.05,267.54L236.54,267.78L236.43,266.4L232.43,263.87L232.47,262.02L231.66,259.96L230.1,258.12L229.93,255L231.36,255.55L235.39,255L236.39,253.46L238.1,252.41L238.63,251.45L238.28,248.99L240.14,248.16L240.84,247.28L240.17,244.7L242.75,243.23L245.78,244.25L247.58,244.41L249.83,246.15L252.26,246.73L253.53,246.1L254.46,244.68L256.25,243.39L257.7,241.41L259.43,241.29L262.5,241.82L264.56,241.59L267.11,243.84L269.88,245.18L271.61,244.74L275.49,246.01L277.71,245.43L278.35,246.92L278.08,248.15L278.9,249.86L278.75,252.44Z" class="land" id="ID-JA" title="Jambi"/>
    <path d="M343.36,329.75L343.3,331.01L342.25,332.32L342.61,335.03L341.41,335.8L339.5,336.01L339.73,338.74L340.72,338.67L341.72,339.99L342.92,343.55L339.69,343.74L338.5,345.22L336.16,345.7L328.91,344.5L326.6,343.45L325.28,342.08L322.01,340.93L318.11,340.31L310.05,339.74L307.68,338.75L307.29,337.16L309.74,334.23L309.25,333.01L307.54,333.3L308.09,330.92L309.23,330.1L307.98,328.86L307.58,326.31L308.41,325.12L308.61,323.38L310.47,324.13L313.1,323.59L313.13,323.46L315.12,324.28L315.96,321.79L316.01,320.09L316.77,317.48L318.87,318.56L320.75,318.13L322.27,319.16L323.31,320.92L325.58,321.56L326.31,322.37L328.39,321.5L331.62,323.26L332.99,323.68L334.14,322.42L336.5,322.64L336.77,323.97L339.06,325.94L339.43,329.04L339.98,330.03L342.19,330.82Z" class="land" id="ID-JB" title="Jawa Barat"/>
    <path d="M419.48,331.84L420.98,332.62L420.01,333.7L417.72,334.61L417.78,335.56L414.72,335.19L413.54,335.53L412.83,336.97L408.81,336.76L406.16,336.97L401.46,335.9L400.17,335.82L399.9,334.43L401.63,333.28L402.11,332.23L404.94,331.76L406.34,331.94L416.03,331.87L418.21,331.55ZM438.42,331.04L440.3,331.18L441.11,332.5L440.09,333.38L438.33,333.68L437.19,332.68ZM373.88,351.66L374.59,349.39L375.66,349.67L377.22,348.82L378.06,347.2L378.95,347.59L379.9,346.21L379.4,345.09L377.97,344.05L376.98,339.79L377.54,337.36L381.38,338.71L381.81,337.49L383.2,336.89L384.34,335.19L384.41,331.02L385.53,329.92L387.33,330.56L389.63,330.08L390.93,331.96L393.35,331.66L398.66,331.94L399.55,333.81L399.18,335.34L399.85,336.84L401.22,336.46L402.46,337.78L402.31,341.17L403.08,342.69L405.41,343.27L407.25,344.61L408.93,345.19L412.15,343.94L415.8,344.51L417.28,343.68L418.35,343.94L420,342.64L420.97,344.02L425.06,344.83L426.3,345.88L425.63,347.26L425.78,349.33L425.1,351.24L424.47,354.93L424.64,356.22L426.1,357.91L427.86,358.23L428.15,359.67L425.88,359.57L424.34,357.79L422.61,358.02L415.37,356.14L413.91,355.03L411.44,354L410.42,354.36L408.93,352.78L407.41,352.53L405.12,352.91L403.53,354.31L400.42,354.74L396.5,354.3L394.37,353.34L390.72,353.19L386.66,352.38L385.08,353.76L378.95,352.15L377.44,352.54ZM400.37,314.78L400.12,316.62L398.73,316.61L398.71,315.4Z" class="land" id="ID-JI" title="Jawa Timur"/>
    <path d="M316.01,320.09L315.96,321.79L315.12,324.28L313.13,323.46L313.13,323.46L312.31,321.54L312.33,320.08L314.2,320.53Z" class="land" id="ID-JK" title="Jakarta Raya"/>
    <path d="M385.53,329.92L384.41,331.02L384.34,335.19L383.2,336.89L381.81,337.49L381.38,338.71L377.54,337.36L376.98,339.79L377.97,344.05L379.4,345.09L379.9,346.21L378.95,347.59L378.06,347.2L377.22,348.82L375.66,349.67L374.59,349.39L373.88,351.66L372.87,351.41L372.13,350.63L371.69,348.62L372.15,345.72L370.47,345.25L369.2,345.53L367.88,344.96L367.2,341.63L365.16,343.24L362.48,343.25L362.49,344.62L360.71,346.77L356.2,345.4L353.36,344.94L351.71,344.29L347.5,343.73L346.47,345.2L343.31,344.5L342.92,343.55L341.72,339.99L340.72,338.67L339.73,338.74L339.5,336.01L341.41,335.8L342.61,335.03L342.25,332.32L343.3,331.01L343.36,329.75L345.21,331.01L346.84,329.97L347.52,331.26L349.69,331.66L352.07,331.33L353.53,330.29L354.34,331.16L358.79,332.33L360.73,332.36L363.77,331.45L366.07,332.92L367.65,332.35L370.02,328.59L370.14,327L371.2,325.38L372.82,324.82L375.93,325.05L377.36,328.43L380.8,329.15L382.56,327.97L383.73,328.32Z" class="land" id="ID-JT" title="Jawa Tengah"/>
    <path d="M279.4,235.3L281.05,237.38L277.37,240.12L276.95,238.22L275.94,237.44ZM283.87,233.28L284.5,232.34L285.77,234.41L284.68,235L282.57,233.34L280.04,234.35L278.57,233.76L279.72,232.21L279.58,230.26L281.15,230.39ZM276.29,218.68L276.74,219.85L275.96,220.88L274.85,218.99ZM264.64,217.2L265.05,219.15L264.85,220.97L263.59,220.78L262.81,219.63L262.65,218.1L264,216.12ZM270.41,214.43L271.08,215.39L272.12,215.96L271.47,217.09L269.86,215.91ZM274.45,213.44L274.3,215.08L272.77,215.87L270.97,215.08L272.58,212.81ZM280.79,212.98L281.94,214.95L281.71,218.49L279.93,218.13L278.3,216.16L278.78,214.74L276.04,215.6L275.39,214.43L276.88,212.92L278.24,212.61ZM297.88,188.53L297.33,188.32L297.31,185.23L299.47,186.45ZM335.72,176.16L333.77,176.57L332.53,175.88L334.1,174.38L332.04,173.56L331.01,171.02L333.81,168.48L336.99,171.71L336.93,173.92Z" class="land" id="ID-KR" title="Kepulauan Riau"/>
    <path d="M353.72,244.98L355.07,244.78L355.46,245.19L356.36,244.82L357.02,245.48L357.31,247.1L353.04,249.57L351.56,248.81L352.19,247.85L352.5,245.6ZM355.37,199.8L353.97,202.83L355.84,204.2L355.73,206.58L358.28,209.37L360.01,209.83L360.15,211.02L362.08,212.7L363.21,212.77L364.76,215.57L366.42,215.79L367.18,216.96L369.58,217.51L373.09,216.23L373.86,215.25L378.79,214.34L380.98,215.36L382.66,215.19L383.26,216.19L384.94,214.95L387.96,215.53L389.38,213.68L392.13,213.49L392.85,209.32L394.72,208.17L397.46,207.06L401.8,207.61L403.06,206.93L405.52,207.42L406.04,209.13L407.31,209.93L409.33,209.98L410.86,211.34L413.24,211.12L413.88,212.27L416.64,211.12L416.84,210.08L418.81,209.02L421.41,208.74L422.41,209.54L421.69,209.91L421.04,213.34L419.29,213.5L417.58,216.8L418.31,217.81L417.14,220.52L414.41,223.75L411.06,226.39L408.69,226.84L410.88,228.4L411.22,231.27L410.77,232.62L409.03,233.77L407.81,235.29L408.63,236.56L407.7,237.62L406.59,236.98L404.64,237.51L398.81,240.37L396.32,240.2L394.52,241.06L392.87,239.35L391.96,241L390.22,240.79L390.43,242.02L388.56,242.46L387.57,243.75L386.05,243.93L384.32,245.01L383.67,246.14L383.65,248.06L381.43,248.47L379.4,251.21L378.46,251.02L375.45,253.27L373.2,254.27L373.98,255.57L375.48,256.44L374.88,259.01L376.5,259.56L375.87,260.89L376.45,261.99L375.75,263.25L376.33,264.22L377.3,268.67L377.38,270.76L375.38,271.46L374.73,272.39L371.71,273.57L371.42,274.37L368.69,272.1L366.66,272.93L365,274.31L364,272.7L363.91,270.71L363.26,268.28L363.47,267.2L362.58,263.95L361.96,263.2L362.42,260.42L361.83,258.87L359.82,257.84L359.31,256.41L361.04,254.71L361.59,251.86L361.24,249.6L359.25,248.05L359.69,246.86L358.05,246.32L357.06,244.93L356.49,244.58L355.86,245L354.9,244.36L354.29,243.48L351.95,242.88L351.68,244.02L350.21,243.53L349.35,242.29L349.52,240.06L351.19,240.77L351.28,238.89L349.73,239.03L347.69,237.82L346.48,233.95L348.13,231.11L348.46,229.73L347.57,227.11L346.64,226.12L344.89,225.87L345.06,223.86L344.45,223.15L344.85,221.33L343.58,218.36L345.3,216.88L345.63,215.91L344.45,213.16L346.32,210.9L346.77,207.78L349.29,206.04L350.77,203.39L350.6,201.98L352.89,201.04L354.33,201.01Z" class="land" id="ID-KB" title="Kalimantan Barat"/>
    <path d="M477.88,194.01L479.74,196.4L479.2,197.56L476.36,200.29L476.29,202.16L477.1,203.45L480.29,206.06L484.48,208.54L484.93,209.7L487.07,210.3L489.71,212.57L490.65,214.13L493.09,214.99L492.06,217.08L489.99,218.51L488.26,217.86L485.73,218.09L480.74,217.38L478.75,216.13L478.19,214.59L476.7,214.21L478.74,217.72L478.01,218.65L476.88,217.96L474.51,219.4L474.19,220.84L472.73,223.86L471.27,225.91L470.46,228.76L471.37,230.77L469.99,233.82L470.52,235.33L470.13,238L472.32,236.57L472.94,236.75L472.04,239.83L472.64,241.91L470.26,242.97L467.38,243.06L465.71,245.08L463.97,247.94L460.89,249.04L459.99,250.41L456.8,251.98L456.81,254.2L452.16,256.47L452.72,256.96L454.51,256.28L455.42,256.53L455.61,260.39L455.26,261.62L457.76,262.52L457.06,265.83L455,265.06L452.7,265.03L448.96,264.49L446.96,265.3L445.69,262.64L446.15,260.86L444.79,260.32L444.79,256.39L442.13,252.4L445.21,249.59L445.94,246.67L444.03,245.85L443.66,244.78L441.35,242.64L439.92,242.38L439.36,238.87L437.8,236.93L437.5,234.67L438.54,230.73L436.48,231.74L434.79,233.07L433.15,233.03L432.58,229.66L431.03,228.78L431.28,227.67L433.17,225.39L434.95,225.6L435.96,224.88L435.62,223.45L434.24,221.17L433.67,219.19L429.18,219.88L427.15,221.89L425.01,222.82L422.64,222.45L421.66,221.65L421.66,220.36L417.14,220.52L418.31,217.81L417.58,216.8L419.29,213.5L421.04,213.34L421.69,209.91L422.41,209.54L425.33,207.92L427.52,209.21L428.04,208.74L429.45,209.93L430.81,210.33L431.82,212.17L433.56,212.03L434.31,213.3L436.02,212.69L438.29,213L440.96,211.38L441.53,209.67L443.2,209.71L445.16,208.97L447.13,208.93L448.01,208.18L450.59,204.68L451.69,202.58L451.91,200.52L453.61,199.11L453.96,195.92L455.89,193.07L457.81,194.69L464.42,191.75L466.74,191.97L468.84,191.62L469.28,192.59L471.34,193.59L472.26,193.38L473.62,194.82L475.1,195.3Z" class="land" id="ID-KI" title="Kalimantan Timur"/>
    <path d="M454.61,283.78L453.53,282.43L454.09,281.02L455.19,280.93ZM450.61,289.73L449.68,289.83L449.95,286.35L449,284.03L450.61,279.27L452.7,277.76L452.87,282.34L453.57,285.75L453.36,287.83ZM445.21,249.59L442.13,252.4L444.79,256.39L444.79,260.32L446.15,260.86L445.69,262.64L446.96,265.3L448.96,264.49L452.7,265.03L455,265.06L457.06,265.83L456.29,268L455.07,267.01L453.38,267.35L453.34,268.74L454.2,269.52L454.37,272.18L451.97,275.72L449.04,280.82L448.71,282.92L446.51,283.75L444.97,285.04L438.37,287.62L433.09,289.84L429.87,291.79L428.39,291.1L428.38,284.84L427.99,283.52L426.52,281.8L424.59,281.13L425.25,278.32L426.49,276.36L426.82,274.42L428.12,271.85L430.9,269.95L431.17,268.4L432.82,266.49L437.84,262.82L438.96,261.22L438.35,259.56L439.38,258.23L438.72,256.78L440.08,251.55L444.06,250.52Z" class="land" id="ID-KS" title="Kalimantan Selatan"/>
    <path d="M371.42,274.37L371.71,273.57L374.73,272.39L375.38,271.46L377.38,270.76L377.3,268.67L376.33,264.22L375.75,263.25L376.45,261.99L375.87,260.89L376.5,259.56L374.88,259.01L375.48,256.44L373.98,255.57L373.2,254.27L375.45,253.27L378.46,251.02L379.4,251.21L381.43,248.47L383.65,248.06L383.67,246.14L384.32,245.01L386.05,243.93L387.57,243.75L388.56,242.46L390.43,242.02L390.22,240.79L391.96,241L392.87,239.35L394.52,241.06L396.32,240.2L398.81,240.37L404.64,237.51L406.59,236.98L407.7,237.62L408.63,236.56L407.81,235.29L409.03,233.77L410.77,232.62L411.22,231.27L410.88,228.4L408.69,226.84L411.06,226.39L414.41,223.75L417.14,220.52L421.66,220.36L421.66,221.65L422.64,222.45L425.01,222.82L427.15,221.89L429.18,219.88L433.67,219.19L434.24,221.17L435.62,223.45L435.96,224.88L434.95,225.6L433.17,225.39L431.28,227.67L431.03,228.78L432.58,229.66L433.15,233.03L434.79,233.07L436.48,231.74L438.54,230.73L437.5,234.67L437.8,236.93L439.36,238.87L439.92,242.38L441.35,242.64L443.66,244.78L444.03,245.85L445.94,246.67L445.21,249.59L444.06,250.52L440.08,251.55L438.72,256.78L439.38,258.23L438.35,259.56L438.96,261.22L437.84,262.82L432.82,266.49L431.17,268.4L430.9,269.95L428.12,271.85L426.82,274.42L426.49,276.36L425.25,278.32L424.59,281.13L422.52,280.14L419.91,279.79L416.85,281.26L414.6,281.47L413.69,280.92L414.16,278.23L413.63,277L411.71,277.12L410.1,278.3L408.33,277.16L405.67,274.37L403.98,275.67L404.01,277.51L399.59,280.58L397.83,281.01L396.14,279.67L394.5,279.09L392.38,279.56L389.25,282.57L387.15,282.4L387.7,280.45L387.3,277.32L387.51,275.07L386.35,272.99L383.21,274.33L381.81,273.16L380.18,273.1L377.58,274.6L374.46,275.48L372.6,274.16Z" class="land" id="ID-KT" title="Kalimantan Tengah"/>
    <path d="M473.36,181.93L471.79,181.43L471.54,179.82L473.61,180.21ZM474.18,171.49L472.5,170.99L473.48,169.36L474.55,170.23ZM476.53,168.66L477.26,170.54L475.83,170.71L472.84,168.3L473.66,167.45ZM444.25,169.89L445.55,167.77L447.08,167.01L447.06,165.76L449.08,166.34L449.95,167.37L451.41,165.68L454.16,165.72L455.33,167.09L457.15,165.48L458.03,166.49L461.16,166.55L462.19,166.02L465.08,166.48L467.2,165.94L469.77,167.78L470.11,168.51L472.3,168.86L470.52,170.25L474.02,173.34L475.79,175.74L474.77,176.7L471.17,177.07L468.9,176.74L466.58,177.81L468.34,179.69L470.1,179.75L470.38,183.79L472.68,184.81L473.72,186.59L473.47,189.05L475.2,189.9L475.52,191.66L477.88,194.01L475.1,195.3L473.62,194.82L472.26,193.38L471.34,193.59L469.28,192.59L468.84,191.62L466.74,191.97L464.42,191.75L457.81,194.69L455.89,193.07L453.96,195.92L453.61,199.11L451.91,200.52L451.69,202.58L450.59,204.68L448.01,208.18L447.13,208.93L445.16,208.97L443.2,209.71L441.53,209.67L440.96,211.38L438.29,213L436.02,212.69L434.31,213.3L433.56,212.03L431.82,212.17L430.81,210.33L429.45,209.93L428.04,208.74L428.4,207.14L429.84,205.7L429.86,203.84L430.58,202.79L432.3,202.07L432.6,200.73L431.34,200.24L431.31,197.18L432.87,197.01L433.29,196.02L436.04,194.01L437.76,193.18L435.93,190.69L436.81,187.07L438.17,186.16L440.05,186.28L441.62,185.49L442.28,180.52L443.3,178.64L442.73,176.56L442.9,174.63L444.24,170.03Z" class="land" id="ID-KU" title="Kalimantan Utara"/>
    <path d="M269.04,300.9L271.72,302.6L274.12,302.76L275.41,301.91L277.03,302.21L277.65,301.41L276.51,299.29L277.28,298.08L277.03,295.76L278.67,293.67L280.75,292.87L283.73,292.96L287.92,290.98L289.11,288.25L290.55,287.84L292.02,285.32L293.37,286.62L295.77,288.12L297.37,291.17L299.18,291.54L299.02,293.86L300.26,295.92L299.63,301.36L300.2,302.63L299.61,304.42L299.74,307.51L299.08,308.7L299.2,312.56L298.77,315.39L297.42,316.5L296.01,316.31L295.63,314.72L292.63,312.71L291.42,310.63L289.97,312.49L289.22,315.89L286.37,314.5L283.8,312.87L282.5,311.56L281.14,311.31L280.48,312.71L281.89,314.42L282.95,317.75L280.84,317.87L280.57,316.73L278.42,314.46L276.71,313.45L276.19,312.07L273.68,310.28L272.42,308.82L270.67,305.59L267.93,303.37L266.33,302.82L268.93,300.97Z" class="land" id="ID-LA" title="Lampung"/>
    <path d="M630.39,283.68L628.99,285.39L628.36,283.92L625.25,285.87L624.23,284.66L625.92,283.22L628.23,282.77L629.49,281.71L630.57,282.31ZM610.66,276.59L612.24,277.6L611.53,279.33L614.58,280.02L614.23,283.56L610.98,284.79L608.79,285.97L606.23,286.76L601.65,284.92L599.6,283.53L596.68,280.75L596.16,277.17L597.44,275.98L599.16,277L600.21,276.03L602.16,275.51L606.88,275.33ZM651.9,273.1L655.19,274.41L659.87,274.14L663.57,276.52L664.78,280.46L666.52,280.6L667.76,283.2L667.19,284.45L667.11,287.32L663.96,286.08L660.76,283.79L656.87,282.47L654.77,281.39L654.27,280.03L653.26,279.39L647.78,278.84L648.41,280.79L647.8,281.38L643.79,280.54L641.76,279.62L639.31,279.72L639.79,278.07L638.45,277.54L636.82,278.57L634.49,280.89L632.78,281.26L631.42,280.65L629.92,278.42L628.67,277.57L628.14,275.55L626.89,276.24L626.09,279.44L624.47,279.54L623.35,277.21L625.22,275.74L627.99,272.35L633.78,272.33L637.99,272.48L641.25,271.96L642.14,273.91L643.31,273.67L646.12,271.4L647.93,271.27L651.52,272.6ZM623.16,349.9L624.73,350.46L626.94,350.46L625.84,352.38L622.96,351.42ZM666.73,353.64L667.5,352.01L670.09,349.66L671.7,350.88L669.02,351.92ZM651.47,349.3L650.4,349.04L648.78,347.03L649.11,345.49L652.25,345.77L652.87,347.27ZM606.62,343.52L607.67,344.68L605.03,345.17L602.19,347.39L597.79,346.69L594.98,347.12L593.09,348.66L593.27,346.21L595.62,343.33L598.77,344.26L601.02,343.87L602.08,342.95L605.13,341.94ZM616.55,343.22L616.15,341.21L617.88,341.48ZM680.5,336.65L679.04,337.29L679.61,340.7L678.89,342.89L678.03,344.01L675.52,345.88L674.07,348.82L671.21,348.38L670.85,346.41L672.4,343.72L673.1,340.84L675.29,339.09L677.49,335.76L679.24,335.28ZM635.1,336.65L633.4,335.99L634.56,334.51L635.75,335.17ZM727.03,323.94L725.34,328.16L723.66,330.23L723.43,325.76L726.41,322.9ZM695.73,317.8L694.14,317.41L693.99,314.51L694.62,312.79L696.17,315.75ZM724.53,314.04L725.54,316.78L723.49,318.3L725.23,319.97L724.92,321.95L724.11,323.71L722.42,324.36L723.12,325.91L719.18,330.3L718.73,331.41L716.34,332.41L714.51,330.26L715.02,328.47L715.7,323.94L715.22,321.14L715.61,319.16L718.11,319.27L718.65,314.35L719.75,313.5L720.93,311.67L720.82,310.4L721.71,308.95L722.56,308.98L724.19,311.61ZM698.38,316.76L696.68,318.48L698.04,314.2L698.84,313.21L700.73,308.43L701.84,308.95L700.69,312.71L698.51,315.06ZM633.16,283.55L631.39,283.9L631.49,282.45L632.98,282.22Z" class="land" id="ID-MA" title="Maluku"/>
    <path d="M597.06,266.72L596.17,266.54L594.5,262.9L593.97,260.78L594.87,259.31L596.04,259.96L595.58,262.11L597.31,265.93ZM587.73,256.87L590.93,257.14L592.51,256.72L595.86,256.62L601.17,257.07L599.75,257.92L595.75,258.37L588.18,258.84L586.43,258.01ZM580.66,255.32L583.06,255.19L585.59,255.8L586.02,258.07L582.13,258.12L581.3,258.92L579.17,258.21L576.77,259.28L574.3,259.91L572.56,259.96L571.43,257.99L572.41,254.76L575.95,254.36ZM623.69,251.29L627.09,253.27L627.81,254.47L626.33,255.57L621.14,255.15L618.75,255.93L616.31,254.33L616.69,252.12L620,249.87ZM615.43,241.98L613.12,241.78L613.52,239.62L614.47,239.41ZM619.16,235.02L620.81,237.17L619.68,239.67L620.3,240.65L622.34,240.44L623.88,242.17L621.84,243.36L619.66,241.61L617.85,242.38L617.19,241.74L616.67,239.45L615.2,237.89L615.46,235.34L616.81,235.69ZM613.44,238.07L612.32,237.64L612.3,234.62L614.22,234.08L614.88,235.89L614.49,237.61ZM623.56,203.7L625.65,205.05L626.01,207.91L625.31,210.47L624.11,212.58L620.35,215.33L620.41,217.32L621.84,218.34L623.16,218.48L624.23,217.66L624.4,215.71L626.02,213.84L627.43,213.87L628.33,212.74L627.38,211.37L628.23,210.01L630.98,208.09L633.54,207.24L636.13,207.37L635.73,214.07L632.02,216.54L629.86,217.17L628.59,218.43L628.95,219.54L630.6,220.76L634.11,222.04L635.39,222.15L636.08,225.44L633.47,225.58L632.13,224.44L629.58,224.61L627.82,223.65L624.84,223.28L624.09,223.88L623.68,225.88L624.34,228.24L623.78,230.37L626.01,236.22L628.6,240.59L631.38,243.36L629.62,243.27L627.5,241.39L625.77,240.49L623.39,235.86L621.33,234.7L620.52,233.45L621.06,229.32L620.41,225.3L619.15,224.23L618.5,222.25L618.77,219.76L619.79,217.74L618.21,217.27L617.86,214.77L616.56,214.66L616.65,212.44L618.49,209.09L619.11,204.69L620.93,201.96L624.69,198.03L626.06,198.97L624.33,201.49L623.34,202.08ZM632.79,200.11L629.54,200.59L629.07,199.38L628.88,196.34L629.76,194.69L631.84,192.44L633.95,191.58L635.68,194.46L634.59,197.68Z" class="land" id="ID-MU" title="Maluku Utara"/>
    <path d="M459.51,353.84L458.49,356.94L456.28,360.32L457.09,361.74L454.71,362.56L451.25,361.31L449.27,361.4L446.7,360.75L446.23,359.87L449.08,359.52L449.8,359.01L449.89,356.28L449.27,355.15L450.44,353.76L452.75,352.08L454.16,351.56L458.22,352.59ZM472.32,350.69L472.67,351.81L471.36,354.2L470.67,351.21ZM494.04,352.22L493.03,351.88L493.71,350.32L494.84,351.19ZM477.66,349.95L480.45,350.38L480.77,351.99L482.74,353.86L485.08,352.1L487.97,352.76L488.73,354.24L490.27,352.55L493.01,353.02L493.73,355.21L493.22,356.73L493.53,357.94L494.92,357.77L494.96,359.55L492.6,359.51L489.22,358.97L489.14,359.81L491.48,359.79L490.8,360.99L489.01,360.28L485.17,361.57L484.1,361.17L483.5,358.66L480.96,361.14L479.47,360.95L476.44,362.46L475.76,361.83L473.72,362.15L469.67,364.01L466.31,363.64L464.06,364.84L460.42,363.68L459.5,362.84L459.77,361.34L460.83,360.63L460.03,358.26L461.3,356.35L462.64,356.13L465.87,353.9L469.4,355.4L469.95,354.65L471.86,354.48L473.63,355.92L475.16,359.1L477.83,359.31L479.09,358.28L481.15,358.39L482.32,357.21L479.87,355.75L478.03,355.29L475.54,353.7L473.92,351.82L474.2,350.96L477.22,349.61Z" class="land" id="ID-NB" title="Nusa Tenggara Barat"/>
    <path d="M557.66,385.61L556.98,388.46L555.58,389.26L555.17,390.59L551.67,391.12L551.24,392.22L549.33,392.05L549.1,389.87L552.5,389.06L555.77,386.02ZM536.52,384.72L537.1,386.1L535.23,387.46L532.51,386.83ZM558.79,380.62L557.43,382.82L556.31,382.22L557.69,380.25ZM508.02,369.09L509.51,370.49L510.93,370.92L511.1,372.35L512.34,373.2L514.58,372.5L516.48,374.07L517.74,376.71L519.5,377.54L520.02,379.73L518.52,381.12L516.02,381.75L514.56,382.8L513.13,381.97L510.93,381.99L509.04,380.84L506.97,378.01L503.3,375.97L502.88,375.08L499.94,374.38L498.91,375.14L497.55,374.48L493.95,373.76L491.89,371.45L493.49,369.7L495.69,368.83L500.82,368.94L502.37,368.47L504.64,369.26L506.8,367.41ZM580.42,362.65L581.34,364.22L582.94,362.8L584.03,363.67L583.96,365.8L581.29,365.86L581.24,367.61L582.06,368.17L582.63,370.16L581.2,371.46L581.05,372.87L579.23,374.13L577.47,376.59L574.61,378.43L574.05,379.62L571.96,380.78L569.05,380.53L566.79,382.29L564.7,383.13L560.87,383.74L559.81,383.12L559.65,380.9L562.76,379.67L562.14,378.4L560.47,378.62L560.45,377.07L561.62,376.25L561.76,372.75L563.56,370.91L564.92,370.2L566.51,368.4L567.25,368.35L568,369.37L569.9,368.79L571.74,370.51L572.11,368.89L573.39,367.75L573.63,365.93L575.49,365.69L578.34,363.5ZM499.97,355.12L501.09,355.81L501.26,357.15L500.29,357.61L499.51,359.58L498.62,358.93L498.52,357.15ZM554.25,354.77L551.59,356.03L551.51,354.9ZM555.01,351.93L556.38,352.81L556.2,354.19L551.9,354.51L552.37,352.98L553.97,351.88ZM570.46,353.62L569.62,355.43L567.61,356.62L567.12,354.67L566.05,353.59L567.44,352.8L568.38,353.66L570.26,351.33L571.12,353.05ZM564.28,351.5L561.83,354.74L561.06,354.43L558.11,357.01L554.95,356.39L556.75,354.38L558.79,353.48L563.46,350.89ZM574.24,350.2L575.3,351.16L577.64,350.6L580.01,350.85L582.72,350.61L583.34,353.22L582.24,353.71L579.69,353.81L578.35,354.33L576.27,354.25L572.88,355.23L571.71,354.13L572.52,353.16L572.46,351.75ZM550.82,349.98L552.21,353.01L550.61,353.37L549.41,357.2L546.96,357.7L543.24,359.51L538.46,359.4L537.59,360.23L533.23,361.43L530.98,360.32L528.21,360.18L527.07,361.96L525.06,361.61L522.93,362.65L521.31,362.21L520.29,360.88L518.72,361.7L516.46,360.54L513.38,360.57L512.34,361.11L509.89,360.07L507.99,360.6L505.35,360.41L504.79,359.76L504.83,357.01L508.04,354.13L511.49,352.65L514.72,352.8L517.17,352.49L518.57,353.54L522.19,353.55L522.87,354.58L526.97,355.58L527.61,356.63L530.05,357.54L531.29,356.31L533.18,355.74L535.85,355.77L538.69,356.26L540.53,357.68L544.1,357.45L545.99,354.24L548.4,353.81L550.29,352.56L549.11,351.33L548.67,349.99L549.89,349.36Z" class="land" id="ID-NT" title="Nusa Tenggara Timur"/>
    <path d="M785.65,354.53L781.13,353.99L780.71,353.17L783.03,351.13L784.48,350.71L786,353.83ZM781.5,352.2L779.29,354.02L777.04,354.74L775.76,354.26L770.69,353.92L767.4,354.87L767.24,354.07L768.62,350.45L771.23,345.37L773.35,342.34L775.88,340.55L777.96,339.72L782.03,338.96L784.82,339.53L786.24,341.61L787.88,342.67L787.07,344.98L786.07,346.6L785.6,348.94L784.14,350.47L782.45,350.85ZM747.51,255.14L749.95,255.63L755.02,256.01L756.09,257.12L751.18,258.31L746.42,257.88L743,257.06L741.37,256.12L738.33,255.28L735.59,255.06L734.68,253.97L745.89,254.73ZM726.54,293.4L728.84,290.67L730.29,288.09L732.24,285.66L725.02,283.02L719.53,281.42L716.69,280.23L717.66,278.08L719.88,276.2L720.09,274.53L721.41,273.84L723.52,271.89L724.43,274.32L726.44,273.64L725.72,276.28L726.66,278.12L728.4,279.42L733.38,280.26L735.27,279.9L736.65,278.95L737.81,277.14L739.76,276.17L739.72,275.23L741.83,274.31L742.53,271.3L743.58,270.05L746.94,268.21L748.23,265.13L748.11,263.89L749.22,262.93L751.03,262.88L753.02,263.51L754.29,263.4L758.89,261.35L760.68,261.26L761.38,260.57L760.84,259.02L759.52,257.88L759.69,256.82L765.11,254.35L766.81,253.25L770.36,251.99L771.62,252.21L773.52,253.94L778.72,255.79L782.28,256.64L785.04,259.05L788.03,259.72L793.34,262.17L798.83,265.05L800.36,265.27L804.45,264.54L805.18,265.72L806.8,266.47L807.67,266.09L811.35,266.46L814.18,268.7L816.87,268.77L816.87,323.67L815.72,325.42L816,326.15L814.76,328.09L814.88,330.39L816.03,332.13L816.87,331.98L816.88,365.19L814.45,363.97L811.02,360.34L809.47,357.8L805.43,354.32L802.82,352.4L801.69,351.03L804.03,347.5L802.85,347.31L802.65,349.21L800.82,350.11L796.47,350.26L795.13,351.04L792.14,351.4L790.56,349.73L788.58,350.48L786.02,352.84L784.94,350.33L785.93,348.95L786.03,347.11L787.22,346.43L788.36,341.52L786.37,340.43L785.32,338.55L782.5,336.88L782.55,336.42L786.38,336.57L783.65,335.17L781.19,332.99L781.43,331.75L783.54,332.04L785.61,330.98L782.66,329.42L782.59,327.76L779.71,324.99L778.37,322.2L778,320.25L776.98,318.34L777,316.61L773.67,314.77L773.16,310.76L771.87,310.27L767.66,307.27L763.93,305.52L761.87,303.77L761.01,304.15L757.96,303.28L755.3,302.93L748.49,299.28L747,299.3L743.72,297.96L742.14,296.56L739.13,296.6L734.74,295.64L731.89,296.09ZM735.53,240.18L738.35,240.42L739.73,241.34L741.57,240.97L744.15,243.15L746.05,245.92L748.57,246.39L747.09,247.93L744.63,248.25L743.89,247.7L741.49,247.74L740.74,246.99L740.1,243.49L739.2,242.39L737.65,243.13L736.13,241.83L734.42,241.22Z" class="land" id="ID-PA" title="Papua"/>
    <path d="M727.34,247.04L725.55,245.6L726.14,244.17L728.36,245.38ZM657.72,260.66L656.67,260.7L653.6,259.78L651.02,258.44L651.24,257.62L655.46,255.92L660.05,255.02L661.26,257.15L661.31,259.35ZM668.13,243.41L670.12,243.71L670.67,246.24L669.56,249.93L667.77,250.02L666.03,248.57L664.67,244.43ZM668.39,241.93L666.61,243.18L663.48,243.72L662.06,242.58L665.61,242.48L667.27,241.63ZM663.82,238.25L661.74,238.02L661.96,236.92L663.93,236.32L665.12,237.17ZM723.52,271.89L721.41,273.84L720.09,274.53L719.88,276.2L717.66,278.08L716.69,280.23L719.53,281.42L725.02,283.02L732.24,285.66L730.29,288.09L728.84,290.67L726.54,293.4L723.27,291.05L723.83,288.45L721.44,289.59L720.14,287.93L719.15,287.68L718.22,289.36L716.15,287.62L716.59,286.67L715.63,285.55L714.15,286.32L712.65,285.52L711.3,283.14L710.5,284.44L709.46,283.77L708.52,281.92L709.24,280.75L709.54,277.3L711.7,275.67L711.24,273.89L708.74,276.47L708.51,280.51L707.05,281.24L707.66,282.83L704.92,285.25L705.68,287.27L702.54,290.33L699.76,290.12L697.75,290.64L696.8,289.35L695.38,285.04L695.85,283.78L697.97,282.63L696.44,281.13L696.05,278.53L694.1,279.25L692.52,276.18L688.98,273.74L687.13,273.56L685.51,273.98L683.69,271.32L687.38,269.72L691.85,270.04L694.96,271.76L696.73,270.48L699.32,267.04L700.6,266.3L702.66,265.87L704.72,267.41L706.49,268.06L707.94,267.66L709.02,268.36L710.55,266.81L712.5,265.46L712.96,262.24L711.94,261.41L708.55,263.22L705.5,263.24L703.43,262.69L698.51,263.97L696.36,263.38L694.48,264.27L692.78,262.52L690.11,263.55L688.73,263.68L684.94,260.99L683.32,257.9L683.69,255.43L682.6,254.46L680.25,253.57L678.31,252.23L674.48,251.46L673.85,252.34L670.34,251.7L669.08,250.94L670.49,248.59L672.25,248.23L673.27,246.43L673.82,243.8L673.37,242.4L677.17,241.09L678.12,241.51L682.46,240.5L683.13,239.45L685.89,237.15L688.3,235.94L690.72,235.35L694.82,235.69L700.73,238.19L701.59,238.27L704.55,240.87L707.51,241.38L710.16,240.94L713.49,241.03L715.4,242.58L714.2,244.52L715.63,247.25L716.78,248.27L717.89,250.31L717.22,251.05L717.02,253.21L715.06,254.98L715.9,258.75L715.72,260.48L716.11,264.43L717.04,266.03L718.47,267.16L720.57,272.41L721.51,272.03L720.7,267.96L721.71,266.64L723.21,267.41ZM667.81,230.57L671.67,231.4L674.02,232.75L674.35,234.31L673.37,235.99L672.11,235.28L668.83,235.36L667.78,233.98L666.54,233.49L665.03,231.47L664.13,232.31L665.61,233.9L668.4,235.01L668.37,236.3L666.07,236.95L664.91,234.75L663.56,235.05L662.44,234.03L661.2,234.34L660.79,232.49L659.07,231.85L664.54,231.07L666.43,230.47Z" class="land" id="ID-PB" title="Papua Barat"/>
    <path d="M264.56,241.59L262.5,241.82L259.43,241.29L257.7,241.41L256.25,243.39L254.46,244.68L253.53,246.1L252.26,246.73L249.83,246.15L247.58,244.41L245.78,244.25L242.75,243.23L240.17,244.7L237.73,244L236.9,242.85L234.13,241.19L233.35,240.01L231.89,239.48L229.15,237.59L228.04,234.88L225.93,235.28L224.97,233.79L224.45,230.93L225.8,230.1L225.45,226.57L224.45,226.49L223.31,227.63L219.97,226.92L219.31,225.44L217.53,225.11L217.53,224.13L216.45,221.87L217.23,219.95L215.92,218.96L215.04,216.98L215.65,215.57L215.04,214.19L215.24,212.78L214.64,210.62L214.54,209.88L217.49,209.34L218.26,208.98L219.64,208.37L219.97,206.83L219.54,204.18L217.69,203.27L218.73,198.17L218.6,197.36L217.86,194.88L218.2,193.24L219.38,196.4L222.59,199.05L223.93,198.1L224.84,196.62L226.88,196.39L228.98,196.65L229.17,197.75L232.73,200.4L232.98,202.25L234.17,204.99L236.15,205.93L239.28,205.9L243.12,209.14L244.83,210.06L245.76,212.68L245.6,214.16L246.31,215.87L249.69,218.96L251.31,219.55L255.57,219.5L256.56,220.04L258.74,222.68L258.76,223.71L252.54,227.07L256.15,226.4L259.95,224.25L260.8,223.1L262.72,222.38L264.19,222.91L268.44,226.13L269.49,230.32L266.43,230.67L265.63,233.5L268.45,234.3L267.91,235.47L266.48,236.09L266.19,237.06L263.95,238.56L263.62,240.39ZM260.28,222.79L259.51,221.96L259.91,220.48L260.79,219.91L261.81,220.97L261.92,222.16ZM252.03,215.64L254.03,215.4L258,217.98L257.65,220.07L255.7,218.6L252.73,218.51L251.3,218.9L248.82,217.35L250.16,216.42L249.76,213.97L251.01,213.75ZM258.1,214.99L259.99,217.14L258.81,217.96L256.73,216.5L254.05,215.11L252.52,214.75L253.33,213.34L254.36,213.17ZM248.69,216.65L246.73,215.12L245.81,211.45L245.85,209.8L247.09,209.57L249.61,211.84L249.39,213.98L249.69,216.1ZM250.14,208.96L250.28,211.42L249.64,211.52L247.39,209.36L245.01,209L243.5,207.9L243.67,206.4L245.24,207.04L247.73,207.38L249.87,208.16ZM236.98,205.11L234.71,204.21L233.92,202.07L234.62,199.91L237.57,199.06L239.49,200.93L238.69,204.08Z" class="land" id="ID-RI" title="Riau"/>
    <path d="M558.63,225.9L559.56,223.84L559.63,222.05L558.9,220.82L557.18,220.52L555.62,219.3L555.42,218.17L553.46,216.35L555.45,216.26L559.94,217.53L560.71,217.27L563.98,218.05L565.32,218L570.9,215.36L571.96,213.06L575.09,212.86L575.63,211.73L574.38,210.79L575.74,209.42L577.18,209.68L578.9,208.71L578.66,207.1L580.89,205.34L583.82,206.16L584.98,208.08L582.64,210.43L581.99,212.59L579.82,215.98L578.7,216.47L576.38,218.44L574.74,221.59L573.09,223.59L571.31,224.5L561.39,226.15ZM590,177.02L591.29,179.8L590.75,180.63L588.7,179.71L588.82,177.82L587.36,176.58L588.76,175.42ZM607.25,171.56L606.19,170.34L607.64,168.24L606.62,167.52L606.19,166.07L606.95,163.41L608.69,164.2L609.51,167.3L607.75,171.07Z" class="land" id="ID-SA" title="Sulawesi Utara"/>
    <path d="M215.92,218.96L217.23,219.95L216.45,221.87L217.53,224.13L217.53,225.11L219.31,225.44L219.97,226.92L223.31,227.63L224.45,226.49L225.45,226.57L225.8,230.1L224.45,230.93L224.97,233.79L225.93,235.28L228.04,234.88L229.15,237.59L231.89,239.48L233.35,240.01L234.13,241.19L236.9,242.85L237.73,244L240.17,244.7L240.84,247.28L240.14,248.16L238.28,248.99L238.63,251.45L238.1,252.41L236.39,253.46L235.39,255L231.36,255.55L229.93,255L230.1,258.12L231.66,259.96L232.47,262.02L232.43,263.87L231.74,264.71L228.46,266.9L226.52,264.54L225.46,262.18L226.38,260.71L226.01,258.27L223.09,254.32L221.68,251.61L221.66,249.77L220.68,249.46L218.79,247.11L219.03,245.66L217.73,242.14L215.32,239.73L214.15,237.78L210.81,234.77L209.72,232.48L209.94,231.33L208.19,229.53L204.51,227.96L203.85,226.88L201.17,226.76L201.96,225.57L203.27,225.2L204.55,223.15L205.99,222.38L208.14,222.31L209.17,223.62L211.19,223.52L212.8,222.45L212.16,220.43L211.09,220.23L211.02,217.25ZM220.23,275.49L219.12,276.94L217.28,275.89L216.14,274.15L215.97,271.79L216.91,271.22L220.29,274.78ZM215.55,271.71L213.82,272.33L213.25,271.39L213.5,269.77L212.96,267.39L215.94,269.23L216.65,270.48ZM209.19,261.95L210.24,263.88L207.57,264.02L206.49,262.15L206.75,260.78L207.85,260.1ZM197.7,244.34L197.87,246.01L198.72,246.69L203.06,255.61L202.18,256.74L200.31,256.92L196.82,255.01L195.77,252.74L192.96,248.6L194.24,244.31Z" class="land" id="ID-SB" title="Sumatera Barat"/>
    <path d="M537.46,310.96L536.6,311.01L534.35,307.94L535.13,305.32L536.89,305.16L538.05,307.39L537.95,310.24ZM547.74,298.61L548.36,303.22L546.46,304.87L545.78,306.36L546.62,307.96L545.82,310.12L541.54,309.67L540.98,308.72L541.92,305.62L542.79,304.89L541.82,301.65L542.46,300.27L544.63,299.78L547.23,298.14ZM555.01,299.49L553.87,299.67L553.68,301.62L552.1,301.53L551.58,305.55L555.01,307.99L553.99,309.66L551.85,309.8L550.43,310.45L550.45,312.24L548.99,314.19L546.81,314.09L545.53,311.45L547.98,307.72L548.66,305.88L549.72,301.16L549.59,298.77L550.62,296.16L552.36,294.92L554.72,297.71ZM553.06,289.5L554.62,289.25L555.46,291.08L554.12,292.85L552.75,292.88L551.24,291.1L551.87,289.17ZM523.1,270.97L525.7,272.13L527.24,271.54L527.63,273.73L529.58,274.33L532.18,272.66L536.12,274.06L538.18,273.86L539.91,274.82L542.12,277.98L541.37,279.02L542.01,280.42L541.11,282.29L540.11,282.69L540.79,284.16L544.08,286.23L544.99,287.72L546.33,287.6L546.38,289.16L547.38,291.36L549.46,291.2L550.37,291.67L550.4,294.95L548.43,296.32L547.15,296.61L545.94,295.05L544.17,295.91L538.59,297.14L537.76,299.34L538.79,301.22L537.73,302.33L535,301.76L532.42,301.72L530.52,300.59L529.27,298.86L530.13,295.35L530.05,294.14L531.39,291.71L531.13,290.02L527.97,289.29L526.07,286.69L524.25,285.53L520.7,282.35L520.47,281.07L523.27,276.79L523.67,272.93L522.28,271.96Z" class="land" id="ID-SG" title="Sulawesi Tenggara"/>
    <path d="M515.15,325.07L514.28,321.13L514.21,317.44L515.4,316.87L516,319.16ZM505.76,259.9L507.67,259.19L509.21,259.22L510.03,260.04L512.71,260.54L513.63,257.98L516.1,261.36L518.81,263.15L519.99,262.76L521.7,263.15L525.7,264.86L529.29,265.66L531.6,266.74L533.1,267.98L534.17,270.16L533.41,270.54L532.18,272.66L529.58,274.33L527.63,273.73L527.24,271.54L525.7,272.13L523.1,270.97L522.81,269.62L519.68,268.79L517.7,269.27L510.7,273.92L511.68,276.48L513.75,278.27L513.55,281.98L514.3,285.04L512.92,287.93L512.77,290.79L513.42,291.7L512.99,294.9L513.95,299.21L513.48,300.77L512.28,301.8L512.27,303.83L511.65,306.22L513.39,309.19L514.55,313.12L513.74,313.05L512.57,311.53L509.15,312.77L506.67,312.27L504.56,314.37L502.92,314.33L502.21,313.12L499.86,312.29L498.24,309.87L498.59,306.64L499.93,304.62L500.74,302.09L500.25,300.08L501.78,297.56L502.23,292.02L501.82,288.84L499.62,284.81L500.61,282.86L500.22,281.66L499.43,278.27L500.79,276.41L502.25,276.23L501.36,274.34L501.47,271.3L503.71,270.55L505.56,268.46L505.51,266.97L504.25,266.55L503.63,264.93L502.34,264.3L502.37,263.19L505.12,261.06Z" class="land" id="ID-SN" title="Sulawesi Selatan"/>
    <path d="M501.31,242.58L501.22,244.65L502,247.18L501.41,249.02L499.46,250.11L500.78,251.27L502.11,250.81L502.71,252.37L504.48,255.24L505.7,256.3L505.76,259.9L505.12,261.06L502.37,263.19L502.34,264.3L503.63,264.93L504.25,266.55L505.51,266.97L505.56,268.46L503.71,270.55L501.47,271.3L501.36,274.34L502.25,276.23L500.79,276.41L499.43,278.27L500.22,281.66L497.33,280.76L496.26,281.7L493.78,281.89L491.92,282.9L490.74,280.16L490.59,275.57L491.38,272.88L489.63,272.44L489.47,271.13L490.43,268.92L491.62,269.4L493.1,268.41L495.13,266.4L495.06,262.88L496.45,259.52L498.23,258.78L498.46,257.38L497.41,255.2L497.79,253.85L497.34,250.66L498.2,247.63L499.69,246.34L500.75,243Z" class="land" id="ID-SR" title="Sulawesi Barat"/>
    <path d="M269,300.93L267.9,299.87L267.77,298.77L265.98,296.52L266.42,294.57L265.1,294.72L261.86,292.98L260.24,292.71L260.23,291.32L259.42,289.57L256.96,289.39L254.47,288.46L252.33,286.08L253.66,285.37L253.76,284.4L255.36,282.46L256.26,283.53L257.43,282.2L257.52,279.89L256.16,280.09L254.38,278.65L252.22,279.63L250.05,278.03L250.11,276.43L249.33,275.3L246.6,274.96L246.01,273.39L244.77,272.57L243.75,270.99L244.19,271.12L245.91,270.09L246.33,269.09L247.94,269.16L248.87,269.88L251.45,269.88L252.14,268.88L254.44,267.74L255.34,266.23L255.72,264.33L259.4,264.95L260.7,264.44L259.98,263.23L261.01,261.79L262.46,263.68L263.9,264.71L264.18,262.48L265.11,262.24L265.49,258.31L266.41,257.49L269.68,256.73L270.54,255.97L273.77,256.56L277.39,255.78L277.71,254.54L279.53,254.76L280.54,257.71L283.39,259.72L285.18,260.35L285.62,262.1L283.91,263.8L288.76,265.28L290.02,264.56L292.07,265.28L296.06,265.56L296.27,269.1L298.46,269.93L298.48,272.18L299.61,273.81L301.12,273.72L302.42,274.4L302.84,278.35L300.45,280.1L299.44,282.24L299.03,284.17L300.73,285.97L300.9,287.53L299.6,289.82L299.18,291.54L297.37,291.17L295.77,288.12L293.37,286.62L292.02,285.32L290.55,287.84L289.11,288.25L287.92,290.98L283.73,292.96L280.75,292.87L278.67,293.67L277.03,295.76L277.28,298.08L276.51,299.29L277.65,301.41L277.03,302.21L275.41,301.91L274.12,302.76L271.72,302.6L269.04,300.9Z" class="land" id="ID-SS" title="Sumatera Selatan"/>
    <path d="M554.9,247.57L554.71,249.4L555.43,250.75L557.92,248.23L560.06,249.24L559.68,251.6L558.61,252.67L557.16,252.23L556.38,251.16L554.61,252.51L554.14,249.74L552.63,250.81L551.75,252.76L549.93,253.74L548.7,251.88L549.11,249.58L550.46,247.76L551.47,248.1L554.36,247.22ZM540.03,215.3L536.4,217.16L535.57,216.03L531.47,217.74L528.69,218.06L527.62,218.8L526.36,218.55L525.16,219.17L525.07,220.6L525.98,221.53L527.48,221.86L527.38,223.53L526.21,223.19L524.22,224.26L521.21,224.35L518.02,222.85L515.14,222.69L512.74,223.74L511.3,225.21L509.5,227.86L509.17,230.66L508.26,231.14L507.88,234.3L508.75,236.75L508.41,239.37L509.69,241.52L512.59,244.38L513.51,243.88L515.13,244.81L516.36,246.81L515.98,248.11L517.59,251.05L519.95,250.07L520.56,251.13L523.63,251.25L525.73,248.08L529.49,243.59L532.17,242.36L531.89,243.63L533.28,244.5L535.9,245.05L537.03,244.29L538.68,244.43L539.45,242.31L541.55,242.17L543.83,241.32L547.01,241.77L550.67,241.54L549.17,239.37L552.01,239.22L552.73,238.53L555.18,238.62L557.94,239.91L558.58,241.55L557.5,245.07L555.49,245.5L554.14,243.48L552.9,243.19L549.23,243.73L548.38,245.6L546.43,248.29L542.72,252.21L539.55,253.99L537.33,254.29L534.2,255.61L532.65,258.4L530.38,258.74L529.01,257.11L527.35,256.38L526.77,257.46L527.52,259.62L528.76,259.31L530.84,262.08L532.99,262.43L534.78,264.28L536.71,267.6L537.37,269.77L541.69,273.02L541.08,274.87L542.7,276.33L542.12,277.98L539.91,274.82L538.18,273.86L536.12,274.06L532.18,272.66L533.41,270.54L534.17,270.16L533.1,267.98L531.6,266.74L529.29,265.66L525.7,264.86L521.7,263.15L519.99,262.76L518.81,263.15L516.1,261.36L513.63,257.98L512.71,260.54L510.03,260.04L509.21,259.22L507.67,259.19L505.76,259.9L505.7,256.3L504.48,255.24L502.71,252.37L502.11,250.81L500.78,251.27L499.46,250.11L501.41,249.02L502,247.18L501.22,244.65L501.31,242.58L502.95,241.25L503.85,239.88L505.29,243.13L505.78,242.26L504.12,237.38L504.23,235.17L505.03,233.11L502.72,231.91L503.93,230.74L505.09,231.99L506.01,230.47L505.97,229.07L504.55,227.37L506.27,227.1L505.55,225.24L506.4,223.41L508.23,222.61L508.22,219.8L510.98,218.44L511.44,216.11L512.74,215.89L512.73,217.64L513.91,218.44L516.19,218.85L516.7,217.19L517.83,215.69L519.49,214.61L519.93,210.8L521.72,210.53L523.83,210.8L526.02,212.14L528.1,211.93L530.16,214.42L531.21,214.79L536.09,214.12L536.74,215.23L538.05,214.65Z" class="land" id="ID-ST" title="Sulawesi Tengah"/>
    <path d="M190.2,233.91L191.59,235.42L191.09,237.8L189.94,238.76L189.5,237.05ZM189.74,230.27L191.04,231.8L191.43,234.89L189.43,231.93ZM193.06,227.7L195.68,227.73L195.05,229.22L192.1,228.93ZM176.97,209.32L179.34,212.84L180.85,213.37L182.64,214.97L183.04,215.99L182.44,217.37L182.3,220.81L181.19,222.18L179.55,221.76L178.27,218.25L176.51,216.41L175.31,216.19L172.95,211.72L170.95,209.76L172.96,209.43L175.09,208.17ZM186.2,198.61L186.72,196.22L185.56,194.53L185.11,192.6L185.41,188.77L183.32,187.56L183.12,183.15L184.33,181.24L183.22,180.36L182.6,177.94L181.09,175.44L182.72,173.9L182.7,172.67L184.28,171.89L185.03,167.7L187.87,166.95L187.96,169.27L191.84,171.24L192.53,172.35L194.02,172.73L194.43,174.4L196.25,175.61L198.14,176.23L205.84,181.07L206.45,182.17L209.94,183.99L213.13,186.95L213.32,189.11L215.4,190.73L216.43,190.45L218.2,193.24L217.86,194.88L218.6,197.36L218.73,198.17L217.69,203.27L219.54,204.18L219.97,206.83L219.64,208.37L218.26,208.98L217.49,209.34L214.54,209.88L214.64,210.62L215.24,212.78L215.04,214.19L215.65,215.57L215.04,216.98L215.92,218.96L211.02,217.25L211.09,220.23L212.16,220.43L212.8,222.45L211.19,223.52L209.17,223.62L208.14,222.31L205.99,222.38L204.55,223.15L203.27,225.2L201.96,225.57L201.17,226.76L200.21,221.68L198.16,216.49L196.32,210.99L195.18,208.39L196.1,205.71L193.87,204.61L192.14,202.25L190.44,201.03Z" class="land" id="ID-SU" title="Sumatera Utara"/>
    <path d="M372.87,351.41L371.14,351.33L366.16,349.5L360.71,346.77L362.49,344.62L362.48,343.25L365.16,343.24L367.2,341.63L367.88,344.96L369.2,345.53L370.47,345.25L372.15,345.72L371.69,348.62L372.13,350.63Z" class="land" id="ID-YO" title="Yogyakarta"/>
    <path d="M573.63,365.93L573.39,367.75L572.11,368.89L571.74,370.51L569.9,368.79L568,369.37L567.25,368.35L569.29,367.18ZM582.63,370.16L582.06,368.17L581.24,367.61L581.29,365.86L583.96,365.8L584.03,363.67L582.94,362.8L581.34,364.22L580.42,362.65L582.68,359.7L583.45,357.84L587.56,356.91L591.74,356.29L593.74,355.56L597.16,356.2L599.44,355.82L602.07,354.72L604.32,355.63L607.38,354.71L610.82,353.22L613.67,353.35L615.23,354.85L611,358.54L604.59,360.47L603.01,362.55L598.29,363.14L595.2,365.17L592.84,365.47L587.12,367.34L584.43,369.59Z" class="land" id="TL" title="Timor-Leste"/>
    <path d="M472.3,168.86L470.11,168.51L469.77,167.78L467.2,165.94L465.08,166.48L462.19,166.02L461.16,166.55L458.03,166.49L457.15,165.48L455.33,167.09L454.16,165.72L451.41,165.68L449.95,167.37L449.08,166.34L447.06,165.76L447.08,167.01L445.55,167.77L444.25,169.89L444.25,169.92L443.22,168.86L443.59,167.92L443.59,163.04L442.65,156.53L441.19,156.3L442.36,155.6L442.6,153.97L439.45,152.04L439.75,150.69L441.93,148.96L446.18,148.72L447.33,147.08L447.67,145.56L449.62,144.18L450.49,139.94L453.7,136.45L456.24,134.52L456.33,133.77L458.34,131.45L458.54,129.29L460.15,126.67L461.23,127.78L461.4,130.62L460.36,132.3L461.56,133L464.29,129.6L464.04,127.98L465.72,126.99L467.25,127.83L467.31,130.46L467.82,132.35L470.45,133.84L473.54,134.55L474.46,136.1L474.22,138.02L472.6,138.57L473.52,142.09L475.1,143.08L476.64,142.53L478.1,141L479.02,141.54L480.14,143.84L479.48,144.63L477.29,144.58L477.65,146.49L480.15,146.42L480.6,144.98L482.11,144.38L485.29,145.4L488.49,147.87L492.06,150.26L494.05,150.64L495.81,150.06L497.08,151.51L497.03,153.31L496.31,154.42L494.04,155.58L488.63,157.45L486.39,157.22L483.51,156.08L481.35,157.18L480.25,158.77L482.46,161.33L485.8,163.99L487.05,163.68L487.79,164.92L486.39,166.19L484.25,166.23L480.14,167.09L478.24,168.07L473.78,165.84ZM467.75,122.28L467.27,124.36L465.78,124.52L464.56,125.46L464.5,122.99L466.85,121.78ZM461.74,123.73L461.8,122.95L463.6,121.78L463.85,123.06Z" class="land" id="MY-12" title="Sabah"/>
    <path d="M381.34,195.3L380.45,195.37L379.88,193.53L379.6,190.05L380.9,190.56L380.83,193.55ZM441.19,156.3L442.65,156.53L443.59,163.04L443.59,167.92L443.22,168.86L444.25,169.92L444.24,170.03L442.9,174.63L442.73,176.56L443.3,178.64L442.28,180.52L441.62,185.49L440.05,186.28L438.17,186.16L436.81,187.07L435.93,190.69L437.76,193.18L436.04,194.01L433.29,196.02L432.87,197.01L431.31,197.18L431.34,200.24L432.6,200.73L432.3,202.07L430.58,202.79L429.86,203.84L429.84,205.7L428.4,207.14L428.04,208.74L427.52,209.21L425.33,207.92L422.41,209.54L421.41,208.74L418.81,209.02L416.84,210.08L416.64,211.12L413.88,212.27L413.24,211.12L410.86,211.34L409.33,209.98L407.31,209.93L406.04,209.13L405.52,207.42L403.06,206.93L401.8,207.61L397.46,207.06L394.72,208.17L392.85,209.32L392.13,213.49L389.38,213.68L387.96,215.53L384.94,214.95L383.26,216.19L382.66,215.19L380.98,215.36L378.79,214.34L373.86,215.25L373.09,216.23L369.58,217.51L367.18,216.96L366.42,215.79L364.76,215.57L363.21,212.77L362.08,212.7L360.15,211.02L360.01,209.83L358.28,209.37L355.73,206.58L355.84,204.2L353.97,202.83L355.37,199.8L355.44,201.78L356.31,203.04L360.3,205.53L364.3,205.18L365.61,203.83L367.63,206.38L371.37,207.62L372.67,207.21L374.94,208.26L376.21,209.61L379.99,210.67L379.51,209.49L377.64,209.69L376.14,208.77L375.29,207.15L376.23,205.53L378.31,199.87L377.83,198.7L378.39,194.98L378.89,194.53L380.7,195.85L381.91,195.42L381.22,193.77L381.89,190.62L385.13,188.36L391.37,187.51L402.73,184.63L405.34,183.31L408.77,178.95L410.83,175.92L412.34,174.21L415.54,171.42L418.35,167.77L419.36,164.89L418.89,162.97L421.14,162.63L422.77,163.25L424.08,165.03L424.29,166.5L429.15,171.06L431.3,169.28L432.13,166.29L430.98,160.88L431.98,159.57L433.34,159.41L434.45,158.27L434.64,159.39L434.59,161.83L435.59,165.71L439.14,166.76L438.2,164.87L438.1,163.04L438.2,161.99L437.36,159.36L436.33,158.01L437.4,157.23L438.98,158.18Z" class="land" id="MY-13" title="Sarawak"/>
    <path d="M436.33,158.01L437.36,159.36L438.2,161.99L438.1,163.04L438.2,164.87L439.14,166.76L435.59,165.71L434.59,161.83L434.64,159.39ZM434.45,158.27L433.34,159.41L431.98,159.57L430.98,160.88L432.13,166.29L431.3,169.28L429.15,171.06L424.29,166.5L424.08,165.03L422.77,163.25L421.14,162.63L423.86,162.59L427.09,161.17L429.24,159.09L432.88,156.66L435.68,156.03Z" class="land" id="BN" title="Brunei Darussalam"/>
  </g>
</svg>