<?xml version="1.0" encoding="UTF-8"?>
<svg xmlns="http://www.w3.org/2000/svg" width="356.31" height="366.04" viewBox="301.84 73.98 356.31 366.04" style="background-color:#000000">
  <!-- Created using SVG Map Generator: dojo.amcharts.com/svg-map-generator -->
  <style>
    .land { fill: #ffffff; stroke: #000000; stroke-width: 0.65; }
  </style>
  <g id="polygons">
    <path d="M552.42,315.52L552.09,314.14L551.86,313.54L550.53,311.14L548.85,308.25L547.27,305.92L546.25,304.65L542.82,301.64L542.29,301.08L541.03,299.46L539.27,297.74L537.98,296.9L536.88,296.84L535.31,294.98L534.09,294.5L533.95,293.32L533.15,292.93L530.71,291.97L530.12,291.6L528.55,290.19L527.99,289.53L525.59,286.18L524.57,284.87L523.32,283.48L522.49,282.77L521.56,282.26L520.53,281.95L519.91,281.64L518.46,280.26L517.72,279.79L516.19,279.13L515.04,278.9L512.98,278.77L511.89,278.25L511.54,277.56L511.28,275.99L510.87,274.58L510.37,273.83L509.37,273.1L508.73,272.16L508.94,271.16L509.3,270.49L509.88,269.97L510.86,269.53L511.28,268.74L511.28,267.45L511.47,266.53L512.3,266.88L514.61,268.34L515.18,268.48L515.91,268.32L516.51,267.69L517.47,266.24L519.43,264.69L520.75,263.32L521.52,262.98L522.2,262.93L523.08,263.13L525.99,264.08L532.25,265.63L535.47,266.47L539.17,267.36L541.98,268.12L543.04,268.63L545.3,267.91L545.95,267.57L547.18,266.44L548.43,264.96L549.43,263.64L550.13,262.43L551.22,260.24L552.01,259.15L553.56,257.59L557.01,254.48L558.19,253.54L559.82,252.56L560.41,251.94L561.25,250.5L561.49,249.19L561.36,248.32L561.9,248.16L562.68,247.61L563.05,247.62L563.47,248.54L564.44,249.07L564.64,249.94L564.55,250.94L564.88,252.74L565.27,253.34L566.3,254.05L568.62,257.24L569.96,257.91L570.33,258.28L570.04,259.57L569.91,260.94L570.54,261.02L570.42,261.69L570.02,262.01L569.43,262.82L568.35,264.05L567.89,264.4L566.96,264.41L565.81,264.05L565.44,263.83L565.03,263.96L564.91,264.85L565.39,265.35L566.96,265.7L567.6,266.15L569.2,266.47L568.96,267.2L568.13,268.22L567.65,268.5L567.09,268.56L566.83,268.94L566.7,270.16L566.9,270.45L568.41,271.04L569.04,271.18L570.05,271.07L571.78,271.36L573.59,271.18L575.36,271.19L576.56,271.29L577.69,271.49L579.53,272.46L580.32,273.11L581.29,273.35L581.83,273.72L582.42,274.52L583.51,275.1L582.76,276.33L581.77,277.54L581.06,278.59L580.44,280.24L579.49,283.87L578.74,286.41L578.32,288.29L578.17,289.31L577.94,292.13L577.73,293.16L577.3,294.48L577.19,295.94L577.5,296.89L578.28,297.87L578.49,298.7L578.51,299.65L578.4,301.33L578.49,302.37L579.05,303.49L579.57,304L581.46,305.21L582.08,305.73L582.61,306.67L582.8,307.67L582.81,308.67L582.28,312.53L581.63,312.84L581.07,312.89L577.81,312.21L576.96,312.26L575.1,312.85L574.82,312.52L574.41,312.57L572.68,312.52L568.45,312.5L567.44,312.54L564.83,312.87L563.94,313.08L562.03,313.81L559.77,314.6L558.55,315.08L557.39,315.42L554.87,315.62Z" class="land" id="IQ-WA" title="Wāsiţ"/>
    <path d="M502.75,247.14L502.06,248.26L500.85,249.81L500.44,250.92L499.37,251.15L498.56,251.5L497.87,251.23L496.66,250.25L495.42,249.37L494.25,247.06L493.73,245.8L492.55,243.5L492.04,242.79L490.95,241.95L490.33,241.63L489.43,241.42L488.41,241.44L485.65,241.73L484.78,241.73L483.26,241.5L481.23,240.92L480.5,240.37L477.98,239L477.06,238.68L475.85,238.52L471.55,238.48L470.41,238.22L469.54,237.58L468.7,236.78L466.41,234.39L465.17,232.96L464.21,232.07L462.56,230.19L460.92,228.49L459.63,227.02L458.52,225.93L457.72,225.01L456.64,223.18L455.69,222.34L455.31,221.87L455.06,220.97L454.83,218.8L454.6,217.45L454.13,216.15L453.23,214.76L452.84,213.53L452.82,212.06L452.89,209.31L453.02,207.84L452.94,206.53L452.63,205.93L451.95,205.8L451.06,206.34L448.67,208.28L447.58,209.05L446.77,209.23L444.98,209.22L443.72,208.25L441.6,206.89L439.78,205.66L437.8,204.46L436.84,203.74L436.4,203.16L436.12,202.15L436.06,200.93L436.12,186.21L436.06,183.42L436.11,181.91L436.39,180.88L436.8,180.49L437.68,180.26L438.82,180.23L441.9,180.42L450.16,180.47L453.67,180.65L454.66,180.52L455.19,180.32L455.65,179.89L455.64,178.85L455.22,178.15L454.32,177.08L453.55,175.91L452.08,173.1L450.68,170.67L450.14,169.09L449.96,166.79L450.12,165.22L450.38,164.15L451.08,162.78L452.6,160.75L453.67,159.25L454.96,157.58L455.74,156.9L456.77,156.58L461.53,156.6L462.83,156.46L464.05,155.93L464.88,155.42L467.03,153.37L467.76,152.89L468.7,153.99L469.16,154.7L469.57,156.54L469.88,157.39L470.37,158.26L470.62,159.61L470.61,162.41L469.62,163.29L469.04,163.66L467.07,163.86L466.13,164.34L465.66,164.78L465.43,165.58L466.01,167.68L467.56,168.9L468.02,169.51L468.74,170.76L469.21,171.73L469.49,172.81L469.78,174.79L470.28,175.81L471.01,176.67L474.11,179.79L474.74,180.49L475.74,180.55L476.87,180.74L478.71,181.43L479.73,181.97L484.26,184.73L485.78,185.58L486.12,185.89L489.27,187.8L489.89,188.01L490.66,188.04L491.53,188.72L493.31,189.76L494.63,190.74L496.37,192.3L497.02,193L498.4,194.68L499.53,195.6L500.38,195.83L501.06,195.47L501.51,194.88L502.03,193.81L502.66,191.96L503.21,190.54L504.62,187.56L505.55,185.84L506.97,183.91L507.57,182.89L507.87,181.55L507.97,179.25L508.42,178.12L509.12,177.62L509.62,177.57L510.14,178.43L510.99,179.41L512,180.41L512.82,180.97L513.77,181.19L515.87,181.16L517.63,181.34L522.37,182.17L523.08,182.63L523.5,183.17L523.99,184.38L524.13,185.9L524.1,187.67L524.39,188.96L522.62,190.1L520.92,191.03L520.34,191.84L519.77,193.75L519.38,194.4L518.85,194.86L516.94,195.7L516.33,196.26L515.96,197.07L515.84,198.23L515.85,199.89L515.63,200.43L514.65,201.41L513.3,202.11L512.62,202.31L511.75,202.25L510.44,201.83L509.54,201.68L509.16,201.8L508.58,202.34L508,203.72L507.71,205.32L507.84,206.08L507.84,209.14L507.63,210.84L507.57,214.14L507.39,215.29L506.78,216.34L505.43,217.68L504.95,218.27L504.1,220L503.14,221.43L502.24,223.2L501.5,224.21L501.51,225.01L502.12,226.32L502.91,227.03L504.64,227.89L505.15,228.22L505.72,228.94L506.28,230.65L506.32,231.73L505.97,233.06L505.12,235.16L504.94,236.4L504.92,237.68L505.21,237.68L505.58,238.7L505.66,239.43L505.5,241.28L505.27,242.64L504.84,243.39L503.53,244.36L503.12,244.93L502.78,246Z" class="land" id="IQ-SD" title="Şalāḩ ad Dīn"/>
    <path d="M436.12,186.21L434.06,186.29L430.48,187.17L428.97,187.45L427.51,187.24L426.46,186.39L425.6,185.98L423.99,185.93L420.16,186.45L418.6,186.38L417.17,185.95L414.59,184.94L413.24,184.32L412.29,183.74L410.2,182.82L407.9,182.2L404.54,181.14L403.4,180.94L401.83,180.98L400.28,180.64L398.84,179.95L396.48,178.32L395.7,177.92L394.71,177.76L393.63,177.82L391.55,178.41L391.47,176.68L391.72,173.52L392.01,171.59L392.34,169.94L393.51,165.57L393.79,161.1L397.8,154.74L397.32,145.67L392.9,135.94L393.22,134.27L394.12,126.64L394.21,122.51L398.14,115.53L398.83,114.99L409.02,113.07L413.39,111.92L414.7,110.78L415.31,110.57L416.11,109.55L417.35,108.47L419.23,106.11L420.79,104.28L422.87,102.02L424.22,100.28L425.91,98.6L428.51,95.58L432.98,91.06L437.34,96.52L438.64,97.84L439.14,98.99L439.59,100.96L440.12,102.27L440.72,102.89L442.28,103.68L445.11,104.54L446.03,105.1L447.08,106.04L448.53,106.99L449.66,107.36L450.73,107.43L452.48,107.23L453.02,106.59L453.58,106.19L454.18,106.03L456.2,105.91L458.26,105.53L459.12,105.2L459.81,104.56L460.19,104.51L462.11,103.13L464.35,100.34L464.96,99.27L465.13,98.66L465.85,98.26L466.68,98L467.25,98.04L467.88,98.41L468.69,99.46L469.12,100.4L469.68,101.18L470.15,101.51L471.03,101.83L472.04,102.02L474.77,102.15L475.9,102.37L477.32,103.16L478.56,102.87L479.41,101.92L479.86,100.79L479.92,99.45L479.78,98.82L478.89,97.28L478.67,96.74L478.73,95.96L479.23,95.18L480.27,94.62L481.29,94.55L483.06,94.64L484.66,94.39L485.25,95.27L485.97,95.8L487.32,96.55L489.68,97.58L490.42,98.05L491.23,99.08L492.47,101.1L492.92,101.54L493.7,101.9L495.8,102.62L498.03,103.74L499.56,104.98L500.12,105.71L500.67,106.96L500.7,107.34L499.99,109.27L499.28,110.22L498.67,110.82L497.18,111.95L496.22,112.49L494.78,112.79L493.42,112.77L491.78,112.59L490.72,112.84L490.29,113.17L488.06,115.56L485.88,118.08L485.14,119.24L484.13,121.78L483.36,122.97L482.57,124.37L481.95,125.11L481.02,125.64L480.74,125.99L479.46,126.92L478.11,128.19L476.82,129.51L475.47,131.92L474.36,134.17L473.37,136.62L472.87,137.38L471.47,138.53L470.87,138.75L469.2,139.11L468.36,139.81L468.69,140.27L470.23,141.33L470.79,142.13L470.95,142.96L470.77,143.69L470.22,144.74L469.5,145.83L468.57,146.84L468.03,147.86L467.77,149.48L467.82,152.23L467.76,152.89L467.03,153.37L464.88,155.42L464.05,155.93L462.83,156.46L461.53,156.6L456.77,156.58L455.74,156.9L454.96,157.58L453.67,159.25L452.6,160.75L451.08,162.78L450.38,164.15L450.12,165.22L449.96,166.79L450.14,169.09L450.68,170.67L452.08,173.1L453.55,175.91L454.32,177.08L455.22,178.15L455.64,178.85L455.65,179.89L455.19,180.32L454.66,180.52L453.67,180.65L450.16,180.47L441.9,180.42L438.82,180.23L437.68,180.26L436.8,180.49L436.39,180.88L436.11,181.91L436.06,183.42Z" class="land" id="IQ-NI" title="Nīnawá"/>
    <path d="M624.31,343.92L624.14,342.21L621.18,342.22L619.86,342.17L616.64,341.57L614.77,341.42L614.05,341.45L613.2,341.63L612.08,342.2L611.62,342.62L610.08,343.28L608.83,343.67L607.78,344.43L606.54,345.5L606.17,346.13L605.47,347.88L604.7,347.88L603.44,348.02L600.03,348.06L598.67,348.19L597.18,348.12L596.85,348.21L594.75,348.23L593.45,348.09L592.7,347.89L591.84,347.48L591.28,347L590.63,346.13L590.18,345.16L590.03,344.43L589.92,342.24L589.69,341.21L588.94,340.01L587.32,338.52L585.25,336.95L583.97,335.35L583.54,334.51L582.91,332.96L581.47,330.41L579.3,326.99L578.96,326.52L578.14,324.64L577.99,324.13L577.96,322.64L576.89,320.62L576.21,319.52L575.11,318.23L574.31,317.08L573.94,316.31L573.86,315.54L574.08,314.77L574.96,313.67L575.1,312.85L576.96,312.26L577.81,312.21L581.07,312.89L581.63,312.84L582.28,312.53L582.81,308.67L582.8,307.67L582.61,306.67L582.08,305.73L581.46,305.21L579.57,304L579.05,303.49L578.49,302.37L578.4,301.33L578.51,299.65L578.49,298.7L578.28,297.87L577.5,296.89L577.19,295.94L577.3,294.48L577.73,293.16L577.94,292.13L578.17,289.31L578.32,288.29L578.74,286.41L579.49,283.87L580.44,280.24L581.06,278.59L581.77,277.54L582.76,276.33L583.51,275.1L583.92,275.42L586.47,276.82L587.13,277.71L587.87,278.05L588.6,278.79L589.48,279.18L590.14,279.69L591.53,281.31L592.82,281.88L593.13,282.28L594.73,283.8L595.23,284.53L596.3,285.17L597.02,285.82L597.44,286.37L599,287.45L603.05,291.54L603.88,291.89L604.88,292.46L605.53,292.57L605.68,292.18L606.86,292.38L608.55,291.71L609.61,290.87L609.88,290.82L611.26,291.76L611.79,291.9L612.99,291.91L613.9,293.03L614.15,293.5L614.98,294.33L615.37,294.86L615.54,295.86L615.12,296.56L614.47,296.77L615.04,297.23L615.16,298.02L616.21,298.2L616.72,298.47L617.22,299.1L616.98,299.77L617.11,300.17L617.9,300.82L618.49,301.63L619.17,301.91L619.54,302.25L619.37,303.28L618.41,304.34L618.36,305.16L618.55,305.93L619.12,306.25L619.4,306.83L620.75,306.84L621.14,307.08L622.56,308.4L622.64,309.6L622.86,309.92L623.63,310.4L624.63,311.79L624.68,312.22L625.43,313.27L625.57,313.66L625.65,314.72L626.3,315.46L627.02,315.86L628.03,316.82L627.87,317.51L628.07,318.46L628.56,319.09L630.21,320.51L630.23,321.08L628.06,326.9L624.28,337.08Z" class="land" id="IQ-MA" title="Maysān"/>
    <path d="M494.79,282.2L495.27,282.37L496.08,282.38L497.19,282.2L497.63,282.28L498.24,282.7L498.66,283.49L498.62,284.24L498.12,285.07L497.56,285.43L497.22,286.72L497.27,287.72L497.97,288.91L500.28,291.81L500.86,292.75L501.14,293.47L501.46,295.16L501.79,299.04L500.78,299.45L497.96,300.17L497.34,300.22L496.62,300.63L493.32,302.01L481.29,306.75L479.74,307.5L479.23,307.98L478.62,307.58L477.8,306.62L477.26,306.15L475.73,304.59L473.5,302.45L469.39,298.58L467.91,296.98L465.89,294.98L462.32,291.59L461.66,290.86L461.26,289.98L461.42,289.53L461.89,289.19L464.04,288.51L465.96,288.04L467.26,287.84L470.74,287.42L471.45,287.22L471.81,286.94L473.18,286.62L474.13,286.19L476.66,284.64L478.9,283.08L479.63,282.66L480.57,282.31L482.44,281.85L483.5,281.33L484.8,280.95L486.67,280.67L488.61,280.59L490.33,280.92L492.84,281.79L493.78,282.07Z" class="land" id="IQ-KA" title="Karbalā’"/>
    <path d="M561.36,248.32L561.49,249.19L561.25,250.5L560.41,251.94L559.82,252.56L558.19,253.54L557.01,254.48L553.56,257.59L552.01,259.15L551.22,260.24L550.13,262.43L549.43,263.64L548.43,264.96L547.18,266.44L545.95,267.57L545.3,267.91L543.04,268.63L541.98,268.12L539.17,267.36L535.47,266.47L532.25,265.63L525.99,264.08L523.08,263.13L522.2,262.93L521.52,262.98L520.75,263.32L519.43,264.69L517.47,266.24L516.51,267.69L515.91,268.32L515.18,268.48L514.61,268.34L512.3,266.88L511.47,266.53L510.99,264.51L510.59,263.81L509.62,262.76L509.33,262.1L509.32,261.39L509.82,260.43L510.23,257.22L510.48,256.43L510.54,255.26L511.26,253.17L511.49,251.92L511.49,251.27L511.25,250.31L510.77,249.9L510.03,249.84L508.33,250.46L507.24,250.43L506.36,250.09L505.59,249.49L504.1,247.89L502.75,247.14L502.78,246L503.12,244.93L503.53,244.36L504.84,243.39L505.27,242.64L505.5,241.28L505.66,239.43L505.58,238.7L505.21,237.68L504.92,237.68L504.94,236.4L505.12,235.16L505.97,233.06L506.32,231.73L506.28,230.65L505.72,228.94L505.15,228.22L504.64,227.89L502.91,227.03L502.12,226.32L501.51,225.01L501.5,224.21L502.24,223.2L503.14,221.43L504.1,220L504.95,218.27L505.43,217.68L506.78,216.34L507.39,215.29L507.57,214.14L507.63,210.84L507.84,209.14L507.84,206.08L507.71,205.32L508,203.72L508.58,202.34L509.16,201.8L509.54,201.68L510.44,201.83L511.75,202.25L512.62,202.31L513.3,202.11L514.65,201.41L515.63,200.43L515.85,199.89L515.84,198.23L515.96,197.07L516.33,196.26L516.94,195.7L518.85,194.86L519.38,194.4L519.77,193.75L520.34,191.84L520.92,191.03L522.62,190.1L524.39,188.96L524.75,189.35L525.63,189.92L526.87,190.23L528.4,190.02L528.98,190.17L529.51,190.75L530.39,192.07L531.05,192.5L532.23,192.99L533.22,193.92L533.59,194.6L533.79,195.54L533.71,197.89L533.8,199.99L534.06,201.1L534.43,201.73L534.98,202.23L535.62,201.67L536.83,200.34L537.74,199.44L538.57,198.79L539.98,197.95L540.76,197.36L541.27,196.65L542.1,195.07L543.32,191.96L544.82,189.01L545.24,188.3L545.99,187.34L547.01,186.39L547.5,185.67L547.75,184.48L547.51,182.18L550.28,178.9L551.31,178.64L552.11,179.04L552.6,180.87L552.78,181.85L552.93,183.66L553.03,186.56L553.25,187.71L553.81,189.88L552.5,190.72L552.47,191.49L552.84,192.36L552.04,193.27L551.97,193.94L551.59,194.56L551.64,195.05L552.14,195.39L552.83,196.18L552.95,196.99L553.45,197.53L553.78,198.74L553.71,199.45L554.22,200.95L554.08,201.73L554.2,202.53L553.74,202.61L552.68,201.89L552.01,201.78L551.03,201.99L550.45,201.8L549.91,202.09L548.72,201.84L548.15,201.49L547.15,200.31L546.57,200.35L546.15,201.62L546.17,202.17L546.59,203.04L546.66,203.72L546.41,204.71L546.03,205.56L545.7,205.87L544.8,205.96L544.21,205.67L543.6,206.19L543.64,207.11L543.97,207.65L544.47,209.85L545.4,211.89L545.8,211.22L546.27,210.93L547.01,210.92L547.42,211.11L547.98,211.86L548.44,212.93L548.67,213.92L548.55,215.3L548.13,216.74L547.85,217.36L547.64,218.28L548.07,219.24L548.17,219.86L547.38,220.64L546.64,221.11L545.95,221.3L545.37,222.02L545.25,222.54L544.71,222.94L544.7,224.46L544.47,224.73L544.52,225.48L543.66,226L543.37,226.7L542.33,227.16L542.19,227.39L542.81,227.9L543.29,228.62L543.79,228.89L544.6,228.99L545.5,228.63L546.17,229.03L547.2,231.16L548.41,232.83L549.48,234.85L550.46,235.71L550.99,236.72L551.1,237.92L551.86,239.03L552.83,240.15L554.86,241.83L555.24,242.38L555.15,242.77L554.41,243.27L554.83,243.8L555.42,243.51L556.66,242.63L557.61,242.26L558.91,242.32L559.68,242.19L560.01,242.37L559.87,243.32L560.67,243.77L561.44,244.88L561.45,245.66L561.01,246.3L558.89,247.69L558.88,248.24L560.38,248.37Z" class="land" id="IQ-DI" title="Diyālá"/>
    <path d="M432.98,91.06L433.37,90.65L433.25,89.98L432.57,89.4L432.62,88.75L433.03,88.37L433.78,88.63L434.89,88.29L436.51,87.53L437.95,87.64L438.82,86.97L440.81,87.04L440.96,86.01L441.88,84.79L442.08,84.03L442.62,83.65L443.2,82.81L443.43,81.87L444.18,81.49L444.82,80.57L444.87,79.81L445.66,79.72L446.26,79.34L446.26,78.74L445.81,78.12L447.37,77.61L448.06,76.79L448.41,76.63L449.42,76.92L449.8,77.84L450.08,78.04L450.92,78.08L451.4,78.46L452.65,78.75L454.05,79.35L454.53,79.41L455.02,79.07L456.2,78.66L456.85,77.65L457.92,77.52L459.38,77.21L460.11,76.91L460.55,76.99L461.49,76.81L462.01,77.57L462.95,77.66L463.7,78.13L464.58,78.17L465.52,78.95L465.84,79.4L466.68,79.61L467.17,79.99L467.4,79.44L467.91,78.96L468.77,78.86L469.62,79.76L474.19,81.92L475.45,82.28L476.2,82.05L476.76,82.67L478,83.02L479.42,83.27L481.22,83.3L481.94,83.13L482.32,83.31L482.97,83.18L484.26,83.33L485.88,83.35L487.67,83.11L488.94,82.62L489.65,82.17L490.63,80.5L491.56,80.17L492.23,79.35L492.79,80.75L493.11,83.55L493.15,84.84L492.95,86.28L492.41,87.57L491.51,88.93L490.41,90.04L488.79,91.47L487.64,92.35L485.17,93.87L484.66,94.39L483.06,94.64L481.29,94.55L480.27,94.62L479.23,95.18L478.73,95.96L478.67,96.74L478.89,97.28L479.78,98.82L479.92,99.45L479.86,100.79L479.41,101.92L478.56,102.87L477.32,103.16L475.9,102.37L474.77,102.15L472.04,102.02L471.03,101.83L470.15,101.51L469.68,101.18L469.12,100.4L468.69,99.46L467.88,98.41L467.25,98.04L466.68,98L465.85,98.26L465.13,98.66L464.96,99.27L464.35,100.34L462.11,103.13L460.19,104.51L459.81,104.56L459.12,105.2L458.26,105.53L456.2,105.91L454.18,106.03L453.58,106.19L453.02,106.59L452.48,107.23L450.73,107.43L449.66,107.36L448.53,106.99L447.08,106.04L446.03,105.1L445.11,104.54L442.28,103.68L440.72,102.89L440.12,102.27L439.59,100.96L439.14,98.99L438.64,97.84L437.34,96.52Z" class="land" id="IQ-DA" title="Dahūk"/>
    <path d="M582.74,372.22L582.07,371.66L581.22,370.68L579.53,368.38L577.74,365.69L576.91,364.72L576.17,364.32L575.13,364.02L573.91,363.86L572.03,363.74L570.7,363.54L568.47,363.46L562.26,362.78L559.4,362.43L555.36,361.77L553.65,361.45L552.09,360.9L550.76,360.01L550.38,357.65L550.42,356.49L550.66,355.48L550.9,355L552.05,353.24L552.91,351.44L553.75,350.77L554.77,350.36L555.08,349.93L555.11,349.33L554.93,348.78L554.1,347.54L553.68,346.6L553.65,345.43L553.94,344.45L554.74,342.88L555.05,341.96L554.91,341.16L554.49,340.73L553.67,340.26L553.3,340.25L552.95,339.67L552.95,339.12L553.23,338.43L554.37,337.06L554.87,336.32L555.26,335.51L555.41,334.72L555.36,334.06L554.92,332.38L554.94,331.46L555.47,330.55L555.67,329.94L555.63,329.16L555.26,328.35L554.84,327.83L554.92,326.05L554.61,323.63L554.42,322.86L553.07,320.26L552.39,318.4L552.3,317.34L552.42,315.52L554.87,315.62L557.39,315.42L558.55,315.08L559.77,314.6L562.03,313.81L563.94,313.08L564.83,312.87L567.44,312.54L568.45,312.5L572.68,312.52L574.41,312.57L574.82,312.52L575.1,312.85L574.96,313.67L574.08,314.77L573.86,315.54L573.94,316.31L574.31,317.08L575.11,318.23L576.21,319.52L576.89,320.62L577.96,322.64L577.99,324.13L578.14,324.64L578.96,326.52L579.3,326.99L581.47,330.41L582.91,332.96L583.54,334.51L583.97,335.35L585.25,336.95L587.32,338.52L588.94,340.01L589.69,341.21L589.92,342.24L590.03,344.43L590.18,345.16L590.63,346.13L591.28,347L591.84,347.48L592.7,347.89L593.45,348.09L594.75,348.23L596.85,348.21L597.18,348.12L598.67,348.19L600.03,348.06L603.44,348.02L604.7,347.88L605.47,347.88L605.66,349.05L605.82,351.29L605.72,353.54L605.55,355.22L605.33,356.69L604.72,359.07L604.04,361.18L603.6,362.82L603.28,365.09L603.93,367.32L604.05,368.69L603.59,369.49L602.89,369.64L602.19,369.55L597.33,368.6L595.82,368.51L594.98,368.66L592.64,369.55L588.02,370.89L585.23,371.52L583.46,371.72Z" class="land" id="IQ-DQ" title="Dhī Qār"/>
    <path d="M500.44,250.92L500.85,249.81L502.06,248.26L502.75,247.14L504.1,247.89L505.59,249.49L506.36,250.09L507.24,250.43L508.33,250.46L510.03,249.84L510.77,249.9L511.25,250.31L511.49,251.27L511.49,251.92L511.26,253.17L510.54,255.26L510.48,256.43L510.23,257.22L509.82,260.43L509.32,261.39L509,261.31L507.63,261.39L504.19,261.38L502.26,260.96L501.72,261.04L501.14,260.37L500.15,259.82L499.82,259.41L499.43,258.29L499.42,256.86L499.6,255.94L500.27,254.96L501.22,254.23L501.42,253.87L501.26,252.79L500.65,251.57Z" class="land" id="IQ-BG" title="Baghdād"/>
    <path d="M512.39,308.2L512.14,307.87L511.4,307.42L510.56,307.11L509.63,306.4L508.92,306.1L508.09,305.48L507.14,305.22L506.72,305.24L505.68,305.89L504,307.35L502.92,307.84L502.46,307.65L501.56,306.35L501.38,305.72L501.34,303.98L501.47,303.16L502.32,301.52L502.45,300.99L502.44,300.12L501.79,299.04L501.46,295.16L501.14,293.47L500.86,292.75L500.28,291.81L497.97,288.91L497.27,287.72L497.22,286.72L497.56,285.43L498.12,285.07L498.62,284.24L498.66,283.49L498.24,282.7L497.63,282.28L497.19,282.2L496.08,282.38L495.27,282.37L494.79,282.2L494.8,280.75L495.06,279.03L495.2,277.5L495.09,274.7L494.32,273.42L493.79,272.01L493.6,270.69L493.49,267.48L493.27,266.46L493,265.77L492.44,264.92L491.77,264.45L489.86,263.94L487.55,262.79L486.08,262.44L485.54,262.04L485.29,260.99L485.5,260.33L486.83,260.34L487.86,260.46L490.39,261.28L491.39,261.48L492.51,261.48L494.12,261.32L494.98,261.45L496.15,261.81L497.25,262.32L498.54,263.16L499.42,263.43L499.7,263.13L500.77,262.51L501.22,261.96L501.72,261.04L502.26,260.96L504.19,261.38L507.63,261.39L509,261.31L509.32,261.39L509.33,262.1L509.62,262.76L510.59,263.81L510.99,264.51L511.47,266.53L511.28,267.45L511.28,268.74L510.86,269.53L509.88,269.97L509.3,270.49L508.94,271.16L508.73,272.16L509.37,273.1L510.37,273.83L510.87,274.58L511.28,275.99L511.54,277.56L511.89,278.25L512.98,278.77L515.04,278.9L516.19,279.13L517.72,279.79L518.46,280.26L519.91,281.64L520.53,281.95L521.56,282.26L522.49,282.77L523.32,283.48L524.57,284.87L525.59,286.18L527.99,289.53L528.55,290.19L530.12,291.6L530.71,291.97L533.15,292.93L533.95,293.32L534.09,294.5L532.94,295.18L532.51,295.79L531,296.86L529.1,297.96L528.58,298.35L527.24,299.64L525.42,301.56L524.87,302.08L522.15,304.12L521.64,304.38L521,304.46L519.7,304.21L518.97,304.28L518.49,304.9L518.64,306.66L518.59,307.36L518.16,308.23L517.39,308.78L516.6,309L515.84,308.98L514.85,308.79L513.04,308.28Z" class="land" id="IQ-BB" title="Bābil"/>
    <path d="M470.61,162.41L471.26,162.63L473.06,162.86L474.45,163.2L475.47,162.9L476.93,161.71L479.34,160.2L480.27,159.71L481.96,159.08L482.08,157.09L482.35,155.93L483.06,154.4L483.21,153.43L483.04,152.14L483.16,151.23L483.99,149.97L485.72,148.51L486.22,148L487.72,145.68L489.67,145.95L490.19,146.29L491.33,147.4L492.69,148.28L494.18,148.7L495.17,147.93L495.74,146.36L496.34,145.91L496.85,145.85L499.93,145.88L500.88,146.57L501.89,146.73L503.3,146.36L505.9,145.17L506.55,144.98L509.12,145.07L510.77,144.51L511.6,144.41L512.41,144.84L512.68,146.02L513.87,148.65L514.39,149.65L514.99,150.48L516.51,151.66L516.89,152.12L517.07,153.06L516.91,153.69L516.15,155.1L515.86,155.98L515.7,157.09L515.67,158.51L515.97,159.78L516.47,160.65L517.23,161.6L517.65,162.36L517.72,162.97L517.41,163.92L516.12,165.42L515.77,166.12L515.63,166.85L515.87,168.58L515.76,169.25L513.75,173.89L512.91,174.99L511.95,175.8L509.98,177.22L509.62,177.57L509.12,177.62L508.42,178.12L507.97,179.25L507.87,181.55L507.57,182.89L506.97,183.91L505.55,185.84L504.62,187.56L503.21,190.54L502.66,191.96L502.03,193.81L501.51,194.88L501.06,195.47L500.38,195.83L499.53,195.6L498.4,194.68L497.02,193L496.37,192.3L494.63,190.74L493.31,189.76L491.53,188.72L490.66,188.04L489.89,188.01L489.27,187.8L486.12,185.89L485.78,185.58L484.26,184.73L479.73,181.97L478.71,181.43L476.87,180.74L475.74,180.55L474.74,180.49L474.11,179.79L471.01,176.67L470.28,175.81L469.78,174.79L469.49,172.81L469.21,171.73L468.74,170.76L468.02,169.51L467.56,168.9L466.01,167.68L465.43,165.58L465.66,164.78L466.13,164.34L467.07,163.86L469.04,163.66L469.62,163.29Z" class="land" id="IQ-KI" title="Kirkūk"/>
    <path d="M563.27,161.5L562.56,161.52L561.24,161.84L558.86,160.87L557.34,160.47L556.16,160.78L556.23,161.93L556.45,163.27L556.45,166.03L556.36,166.9L555.71,167.57L555.18,167.4L554.52,166.49L553.81,166.07L553.16,166.12L552.14,166.7L551.75,167.06L551.06,167.1L549.97,167.63L551.01,168.68L552.29,169.49L554.93,170.51L555.5,171.89L555.64,172.52L556.37,173.26L556.71,173.86L556.93,174.69L556.7,175.15L555.97,175.45L555.15,175.62L554.57,175.95L554.14,176.64L554.11,178.16L553.93,178.6L552.62,178.79L552.11,179.04L551.31,178.64L550.28,178.9L547.51,182.18L547.75,184.48L547.5,185.67L547.01,186.39L545.99,187.34L545.24,188.3L544.82,189.01L543.32,191.96L542.1,195.07L541.27,196.65L540.76,197.36L539.98,197.95L538.57,198.79L537.74,199.44L536.83,200.34L535.62,201.67L534.98,202.23L534.43,201.73L534.06,201.1L533.8,199.99L533.71,197.89L533.79,195.54L533.59,194.6L533.22,193.92L532.23,192.99L531.05,192.5L530.39,192.07L529.51,190.75L528.98,190.17L528.4,190.02L526.87,190.23L525.63,189.92L524.75,189.35L524.39,188.96L524.1,187.67L524.13,185.9L523.99,184.38L523.5,183.17L523.08,182.63L522.37,182.17L517.63,181.34L515.87,181.16L513.77,181.19L512.82,180.97L512,180.41L510.99,179.41L510.14,178.43L509.62,177.57L509.98,177.22L511.95,175.8L512.91,174.99L513.75,173.89L515.76,169.25L515.87,168.58L515.63,166.85L515.77,166.12L516.12,165.42L517.41,163.92L517.72,162.97L517.65,162.36L517.23,161.6L516.47,160.65L515.97,159.78L515.67,158.51L515.7,157.09L515.86,155.98L516.15,155.1L516.91,153.69L517.07,153.06L516.89,152.12L516.51,151.66L514.99,150.48L514.39,149.65L513.87,148.65L512.68,146.02L512.41,144.84L514.44,144.68L517.01,144.63L518.45,144.51L521.62,144.46L523.03,144.32L523.58,143.54L523.55,143.1L523.18,142.44L521.07,140.7L519.32,138.95L518.07,137.55L516.31,135.99L515.63,135.81L514.85,135.26L513.19,133.38L512.77,132.54L512.81,131.65L513.14,130.97L513.97,129.93L514.21,129.33L514.04,128.29L513.52,127.8L511.43,127.28L510.29,126.75L509.76,125.15L509.59,124.07L509.68,123.01L510.06,122.48L510.73,121.95L512.32,120.28L513.06,119.79L514.1,119.63L517.81,119.68L518.38,119.52L518.92,118.93L519.64,119.11L520.72,118.67L522.27,118.94L523.88,119.06L524.59,118.8L525.31,117.86L526.05,116.3L526.6,115.52L527.28,115.1L528,114.85L528.64,115.44L529.44,115.95L529.82,116.59L529.93,117.5L530.62,118.34L530.65,119L531.2,119.7L531.97,120.2L533.14,120.32L534.48,119.6L535.87,119.08L536.4,119.35L537.36,120.9L537.64,121.93L537.68,123.16L537.47,123.83L537.43,124.57L538.62,126.08L537.6,126.67L537.34,127.09L537.85,127.36L538.95,127.58L539.29,127.96L539.68,129.59L539.38,130.56L539.59,131.93L540.06,132.39L540.3,133.15L540.75,133.53L541.22,134.88L540.39,135.88L540.23,136.94L539.6,138.06L540.1,139.15L541.77,139.55L542.3,139.08L542.89,139L543.21,138.5L543.84,138.65L544.65,138.22L545.35,138.09L546.34,138.49L547.01,138.27L547.49,138.42L547.93,139.05L548.78,139.17L549.06,140.03L549.99,140.18L550.47,140.62L550.53,141.22L551.07,141.71L551.49,142.56L552.35,143.08L552.97,143.99L553.48,145.25L554.53,147.05L555.09,147.1L556.02,146.23L556.95,146.71L557.83,146.49L558.59,146.6L558.94,145.81L559.53,145.48L559.94,145.56L561.11,146.14L561.95,145.31L564.15,145.76L565.02,145L566.36,144.57L566.89,144.75L567.43,145.37L568.25,145.25L568.1,145.84L568.36,146.51L568.86,147.15L569.52,147.32L570.99,147.34L571.42,146.79L572.86,146.69L573.69,145.87L575.44,146.3L575.77,146.83L575.75,147.74L575.12,148.8L574.15,149.17L574.02,149.58L573.38,149.74L573.28,150.35L572.34,150.73L571.7,151.15L570.65,150.77L569.7,151.21L569.44,151.8L568.96,152.19L568.06,151.93L566.96,152.32L566.28,152.33L565.34,151.78L565.06,151.75L563.78,152.55L563.53,153.13L563.56,153.71L563.24,154.55L563.67,154.95L563.72,155.57L563.52,156.72L563.89,157.17L563.44,157.43L562.77,157.09L562.45,157.2L563.09,158.16L563.64,159.73L563.16,159.87L562.86,160.51Z" class="land" id="IQ-SU" title="As Sulaymānīyah"/>
    <path d="M553.81,189.88L553.25,187.71L553.03,186.56L552.93,183.66L552.78,181.85L552.6,180.87L552.11,179.04L552.62,178.79L553.93,178.6L554.11,178.16L554.14,176.64L554.57,175.95L555.15,175.62L555.97,175.45L556.7,175.15L556.93,174.69L556.71,173.86L556.37,173.26L555.64,172.52L555.5,171.89L554.93,170.51L552.29,169.49L551.01,168.68L549.97,167.63L551.06,167.1L551.75,167.06L552.14,166.7L553.16,166.12L553.81,166.07L554.52,166.49L555.18,167.4L555.71,167.57L556.36,166.9L556.45,166.03L556.45,163.27L556.23,161.93L556.16,160.78L557.34,160.47L558.86,160.87L561.24,161.84L562.56,161.52L563.27,161.5L563.6,162.86L564.28,163.82L565.07,165.63L565.43,165.81L565.89,166.5L566.41,166.77L566.81,167.34L567.8,167.57L567.92,168.31L568.39,168.84L568.84,170.2L568.34,170.89L567.41,171.72L567.87,172.59L568.4,172.52L568.84,172.8L569.45,172.72L570.02,173.01L570.57,173.96L569.78,174.76L569.13,175.05L568.87,175.49L568.96,176.14L568.84,177.06L570.03,177.73L569,178.81L568.39,178.86L567.32,179.31L566.8,179.15L566.62,178.72L565.84,179L565.63,179.92L565.54,180.91L565.1,180.36L564.43,180.43L563.66,179.48L563.24,179.71L562.7,179.63L561.7,178.97L561.08,178.89L560.56,179.47L560.73,180.47L559.39,180.76L559.04,181.13L559.39,183.49L559.74,184.27L559.56,184.9L558.98,185.78L558.72,186.8L557.8,187.13L556.38,186.47L556.01,186.43L555.69,187.01L555.95,188.7L555.61,189.43L555.18,189.86L554.68,190.05Z" class="land" id="IQ-HA" title="Halabja"/>
    <path d="M470.61,162.41L470.62,159.61L470.37,158.26L469.88,157.39L469.57,156.54L469.16,154.7L468.7,153.99L467.76,152.89L467.82,152.23L467.77,149.48L468.03,147.86L468.57,146.84L469.5,145.83L470.22,144.74L470.77,143.69L470.95,142.96L470.79,142.13L470.23,141.33L468.69,140.27L468.36,139.81L469.2,139.11L470.87,138.75L471.47,138.53L472.87,137.38L473.37,136.62L474.36,134.17L475.47,131.92L476.82,129.51L478.11,128.19L479.46,126.92L480.74,125.99L481.02,125.64L481.95,125.11L482.57,124.37L483.36,122.97L484.13,121.78L485.14,119.24L485.88,118.08L488.06,115.56L490.29,113.17L490.72,112.84L491.78,112.59L493.42,112.77L494.78,112.79L496.22,112.49L497.18,111.95L498.67,110.82L499.28,110.22L499.99,109.27L500.7,107.34L500.67,106.96L500.12,105.71L499.56,104.98L498.03,103.74L495.8,102.62L493.7,101.9L492.92,101.54L492.47,101.1L491.23,99.08L490.42,98.05L489.68,97.58L487.32,96.55L485.97,95.8L485.25,95.27L484.66,94.39L485.17,93.87L487.64,92.35L488.79,91.47L490.41,90.04L491.51,88.93L492.41,87.57L492.95,86.28L493.15,84.84L493.11,83.55L492.79,80.75L492.23,79.35L493.61,79.16L494.09,79.41L495.42,79.59L496.49,79.44L497.44,80.12L499.93,81.1L501.02,82.34L501.53,83.46L501.42,84.49L501.83,85.37L501.52,86.37L501.05,86.69L500.1,86.62L499.79,87.38L499.2,88.04L498.68,88.96L498.78,89.76L499.12,90.38L500.1,91.2L500.31,91.6L500.14,92.47L500.75,93.53L501.05,94.44L501.53,94.79L502.29,94.8L502.89,95.15L503.02,94.46L503.71,93.44L504.38,92.76L504.5,92.29L503.92,91.72L504,91.46L504.72,91.13L505.97,91.16L506.7,90.83L507.8,90.52L509.77,89.47L510.15,88.73L510.73,88.22L511.3,88.13L511.65,87.48L512.45,86.45L513.08,86.21L514.3,85.27L514.83,85.32L515.77,85.78L516.88,85.78L517.76,85.98L518.51,86.33L519.1,86.13L520.31,87.01L519.66,87.6L519.32,88.2L519.32,88.68L519.93,89.61L520.01,90.17L520.92,91.53L521.45,91.91L522.62,91.48L523.25,92.09L524.25,92.39L524.51,93.01L523.97,93.86L523.48,95.55L524.29,96.63L524.61,97.44L524.59,97.84L524,99.44L522.94,100.16L522.29,101.11L521.99,102.44L522.32,103.37L523.2,103.84L524.14,103.86L525.13,103.73L525.75,103.79L526.38,104.22L527.19,105.05L528.26,105.24L529.03,105.83L529.92,107.56L530.16,108.4L530.11,109.73L529.96,110.49L529.05,111.34L528.8,111.88L529.27,112.75L528.64,113.59L528.02,113.99L528,114.85L527.28,115.1L526.6,115.52L526.05,116.3L525.31,117.86L524.59,118.8L523.88,119.06L522.27,118.94L520.72,118.67L519.64,119.11L518.92,118.93L518.38,119.52L517.81,119.68L514.1,119.63L513.06,119.79L512.32,120.28L510.73,121.95L510.06,122.48L509.68,123.01L509.59,124.07L509.76,125.15L510.29,126.75L511.43,127.28L513.52,127.8L514.04,128.29L514.21,129.33L513.97,129.93L513.14,130.97L512.81,131.65L512.77,132.54L513.19,133.38L514.85,135.26L515.63,135.81L516.31,135.99L518.07,137.55L519.32,138.95L521.07,140.7L523.18,142.44L523.55,143.1L523.58,143.54L523.03,144.32L521.62,144.46L518.45,144.51L517.01,144.63L514.44,144.68L512.41,144.84L511.6,144.41L510.77,144.51L509.12,145.07L506.55,144.98L505.9,145.17L503.3,146.36L501.89,146.73L500.88,146.57L499.93,145.88L496.85,145.85L496.34,145.91L495.74,146.36L495.17,147.93L494.18,148.7L492.69,148.28L491.33,147.4L490.19,146.29L489.67,145.95L487.72,145.68L486.22,148L485.72,148.51L483.99,149.97L483.16,151.23L483.04,152.14L483.21,153.43L483.06,154.4L482.35,155.93L482.08,157.09L481.96,159.08L480.27,159.71L479.34,160.2L476.93,161.71L475.47,162.9L474.45,163.2L473.06,162.86L471.26,162.63Z" class="land" id="IQ-AR" title="Arbīl"/>
    <path d="M479.23,307.98L479.74,307.5L481.29,306.75L493.32,302.01L496.62,300.63L497.34,300.22L497.96,300.17L500.78,299.45L501.79,299.04L502.44,300.12L502.45,300.99L502.32,301.52L501.47,303.16L501.34,303.98L501.38,305.72L501.56,306.35L502.46,307.65L502.92,307.84L504,307.35L505.68,305.89L506.72,305.24L507.14,305.22L508.09,305.48L508.92,306.1L509.63,306.4L510.56,307.11L511.4,307.42L512.14,307.87L512.39,308.2L512.09,309.1L511.59,309.75L510.21,310.4L509.27,311.1L508.56,312.28L508.23,313.5L508.07,314.61L508.23,316.46L508.4,317.28L508.81,318.21L509.85,320.06L510.07,320.75L510.05,322.19L509.46,324.15L509.08,326.43L508.91,328.78L508.59,329.23L508.01,329.57L506.09,330.08L505.5,330.47L505.06,331.17L504.94,332.11L505.11,332.97L505.83,334.37L507.16,335.64L508.08,336.18L510.07,336.61L511.33,336.76L512.91,337.09L514.52,337.5L515.2,337.86L514.93,339.34L514.2,342.16L513.05,345.91L511.64,350.28L511.08,352.46L510.93,353.9L510.59,356.45L510.11,358.27L509.61,359.57L509.1,360.44L508.26,361.62L506.8,363.22L505.51,364.2L501.81,366.33L500.79,366.97L500.14,367.53L499.31,368.74L498.56,370.13L497.97,371.46L496.39,375.72L493.94,381.77L493.56,382.84L493.33,384.26L493.29,386.6L493.12,388.29L492.75,389.22L491.78,390.99L490.3,393.25L488.52,395.41L487.25,397.31L482.78,404.57L474.17,398.76L447.51,380.06L445.8,378.68L446.17,377.68L449.04,368.9L449.79,366.84L450.32,365.15L450.51,364.03L450.58,361.49L450.75,360.28L451.45,358.87L453.41,355.84L454.06,354.71L454.55,353.66L457.15,347.64L457.5,346.67L457.7,345.71L457.74,342.95L457.92,342.03L458.68,340.31L461.27,335.27L462.01,333.66L462.37,332.56L462.79,330.27L463.02,329.57L463.61,328.4L464.71,326.69L466.04,324.77L467.3,322.82L468.2,321.51L469.35,319.99L470.74,318.62L472.08,317.72L475.9,316.02L477.83,315.02L480.39,313.81L481.28,313.24L481.98,312.3L482.04,311.42L481.47,310.35Z" class="land" id="IQ-NA" title="An Najaf"/>
    <path d="M515.2,337.86L514.52,337.5L512.91,337.09L511.33,336.76L510.07,336.61L508.08,336.18L507.16,335.64L505.83,334.37L505.11,332.97L504.94,332.11L505.06,331.17L505.5,330.47L506.09,330.08L508.01,329.57L508.59,329.23L508.91,328.78L509.08,326.43L509.46,324.15L510.05,322.19L510.07,320.75L509.85,320.06L508.81,318.21L508.4,317.28L508.23,316.46L508.07,314.61L508.23,313.5L508.56,312.28L509.27,311.1L510.21,310.4L511.59,309.75L512.09,309.1L512.39,308.2L513.04,308.28L514.85,308.79L515.84,308.98L516.6,309L517.39,308.78L518.16,308.23L518.59,307.36L518.64,306.66L518.49,304.9L518.97,304.28L519.7,304.21L521,304.46L521.64,304.38L522.15,304.12L524.87,302.08L525.42,301.56L527.24,299.64L528.58,298.35L529.1,297.96L531,296.86L532.51,295.79L532.94,295.18L534.09,294.5L535.31,294.98L536.88,296.84L537.98,296.9L539.27,297.74L541.03,299.46L542.29,301.08L542.82,301.64L546.25,304.65L547.27,305.92L548.85,308.25L550.53,311.14L551.86,313.54L552.09,314.14L552.42,315.52L552.3,317.34L552.39,318.4L553.07,320.26L554.42,322.86L554.61,323.63L554.92,326.05L554.84,327.83L553.75,328.16L552.54,328.16L549.33,327.13L546.49,326.39L542.33,325.52L540.87,325.32L538.29,325.14L536.59,325.16L533.89,325.41L532.4,325.73L530.52,326.33L529.01,326.74L528.44,327.1L528.2,327.75L528.33,328.19L529.42,329.87L529.75,330.9L529.71,331.92L529.33,332.89L528.55,333.94L528.18,334.6L527.59,336.3L526.78,337.8L526.23,339.33L526.05,340.25L525.82,342.91L525.24,343.07L523.56,343.04L522.89,342.85L521.97,342.23L520.51,340.89L518.12,338.98L516.55,338.22Z" class="land" id="IQ-QA" title="Al Qādisīyah"/>
    <path d="M585.35,429.91L582.69,432.85L581.02,434.22L578.75,435.81L577.19,436.69L576,437.14L574.75,437.35L573.66,437.37L569.62,436.87L523.66,429.59L518.74,428.7L517.52,428.36L516.36,427.89L513.86,426.41L484.58,405.97L482.78,404.57L487.25,397.31L488.52,395.41L490.3,393.25L491.78,390.99L492.75,389.22L493.12,388.29L493.29,386.6L493.33,384.26L493.56,382.84L493.94,381.77L496.39,375.72L497.97,371.46L498.56,370.13L499.31,368.74L500.14,367.53L500.79,366.97L501.81,366.33L505.51,364.2L506.8,363.22L508.26,361.62L509.1,360.44L509.61,359.57L510.11,358.27L510.59,356.45L510.93,353.9L511.08,352.46L511.64,350.28L513.05,345.91L514.2,342.16L514.93,339.34L515.2,337.86L516.55,338.22L518.12,338.98L520.51,340.89L521.97,342.23L522.89,342.85L523.56,343.04L525.24,343.07L525.82,342.91L526.05,340.25L526.23,339.33L526.78,337.8L527.59,336.3L528.18,334.6L528.55,333.94L529.33,332.89L529.71,331.92L529.75,330.9L529.42,329.87L528.33,328.19L528.2,327.75L528.44,327.1L529.01,326.74L530.52,326.33L532.4,325.73L533.89,325.41L536.59,325.16L538.29,325.14L540.87,325.32L542.33,325.52L546.49,326.39L549.33,327.13L552.54,328.16L553.75,328.16L554.84,327.83L555.26,328.35L555.63,329.16L555.67,329.94L555.47,330.55L554.94,331.46L554.92,332.38L555.36,334.06L555.41,334.72L555.26,335.51L554.87,336.32L554.37,337.06L553.23,338.43L552.95,339.12L552.95,339.67L553.3,340.25L553.67,340.26L554.49,340.73L554.91,341.16L555.05,341.96L554.74,342.88L553.94,344.45L553.65,345.43L553.68,346.6L554.1,347.54L554.93,348.78L555.11,349.33L555.08,349.93L554.77,350.36L553.75,350.77L552.91,351.44L552.05,353.24L550.9,355L550.66,355.48L550.42,356.49L550.38,357.65L550.76,360.01L552.09,360.9L553.65,361.45L555.36,361.77L559.4,362.43L562.26,362.78L568.47,363.46L570.7,363.54L572.03,363.74L573.91,363.86L575.13,364.02L576.17,364.32L576.91,364.72L577.74,365.69L579.53,368.38L581.22,370.68L582.07,371.66L582.74,372.22L582.92,373.02L583.38,376.26L584.17,381.03L585.31,385.68L585.78,388.15L586.87,392.82L586.97,393.5L587.12,395.71L587.11,398.52L586.67,404.99L585.85,412.32L585.6,415.48L585.45,418.37L585.16,420.67L584.61,423.99L584.51,425.26L584.45,427.11L584.63,428.65L585.03,429.52Z" class="land" id="IQ-MU" title="Al Muthanná"/>
    <path d="M585.35,429.91L585.03,429.52L584.63,428.65L584.45,427.11L584.51,425.26L584.61,423.99L585.16,420.67L585.45,418.37L585.6,415.48L585.85,412.32L586.67,404.99L587.11,398.52L587.12,395.71L586.97,393.5L586.87,392.82L585.78,388.15L585.31,385.68L584.17,381.03L583.38,376.26L582.92,373.02L582.74,372.22L583.46,371.72L585.23,371.52L588.02,370.89L592.64,369.55L594.98,368.66L595.82,368.51L597.33,368.6L602.19,369.55L602.89,369.64L603.59,369.49L604.05,368.69L603.93,367.32L603.28,365.09L603.6,362.82L604.04,361.18L604.72,359.07L605.33,356.69L605.55,355.22L605.72,353.54L605.82,351.29L605.66,349.05L605.47,347.88L606.17,346.13L606.54,345.5L607.78,344.43L608.83,343.67L610.08,343.28L611.62,342.62L612.08,342.2L613.2,341.63L614.05,341.45L614.77,341.42L616.64,341.57L619.86,342.17L621.18,342.22L624.14,342.21L624.31,343.92L624.37,354.19L636.19,354.13L636.25,362.61L636.33,373.45L636.41,375.49L636.6,375.76L637.74,376.51L638.33,376.76L639.3,376.83L640.21,377.16L641.21,377.99L641.44,378.56L641.69,380.31L642.21,381.97L642.76,382.33L643.11,382.3L643.8,381.72L644.27,381.52L645.21,382L646.43,383.22L648.12,385.51L649.4,386.83L649.86,387.75L649.91,388.55L649.5,389.05L648.84,390.28L649.22,390.85L650.5,391.86L650.93,392.69L650.98,393.73L651.17,395.23L651.52,395.68L653.22,396.84L655.08,398.92L655.51,399.63L654.96,399.65L653.83,399.37L652.22,399.31L650.82,399.06L649.4,398.61L648.32,398.11L647.87,397.69L646.14,396.62L644.68,395.46L643.63,394.84L642.15,394.24L641.1,394.08L639.72,394.16L638,394.04L636.81,394.39L635.47,395.51L634.51,395.44L634.19,395.21L633.92,393.93L633.64,393.45L633.3,393.88L633.39,394.73L632.22,394.37L631.05,394.12L629.3,393.54L625.43,392.08L624.86,392.06L613.41,392.13L611.77,392.17L606.68,394.09L605.27,394.93L604.26,395.93L603.79,396.61L602.47,399.63L600.88,404.09L598.49,410.22L597.02,413.29L596.22,414.19L594.09,417.25L592.98,418.99L588.04,427.37L586.85,428.99L585.69,430Z" class="land" id="IQ-BA" title="Al Başrah"/>
    <path d="M479.23,307.98L481.47,310.35L482.04,311.42L481.98,312.3L481.28,313.24L480.39,313.81L477.83,315.02L475.9,316.02L472.08,317.72L470.74,318.62L469.35,319.99L468.2,321.51L467.3,322.82L466.04,324.77L464.71,326.69L463.61,328.4L463.02,329.57L462.79,330.27L462.37,332.56L462.01,333.66L461.27,335.27L458.68,340.31L457.92,342.03L457.74,342.95L457.7,345.71L457.5,346.67L457.15,347.64L454.55,353.66L454.06,354.71L453.41,355.84L451.45,358.87L450.75,360.28L450.58,361.49L450.51,364.03L450.32,365.15L449.79,366.84L449.04,368.9L446.17,377.68L445.8,378.68L440.27,374.93L355.06,314.42L351.49,312L347.99,310.13L345.16,309.03L335.16,306.19L328.4,304.28L325.81,303.34L324.38,302.61L323.38,301.87L322.75,301.16L321.26,298.83L320.46,298.15L319.81,297.91L318.94,297.82L315.53,298.15L314.72,298.13L313.83,297.85L313.21,297.3L312.71,296.4L312.34,295.29L312.14,294.2L312.13,293.31L312.38,292.22L313.67,289.97L313.86,288.64L313.71,287.01L313.15,284.5L311.57,278.76L308.61,268.44L305.64,258.08L305.25,256.03L304.49,253.35L311.34,249.28L320.66,243.78L328.75,239.04L339.43,232.87L348.87,227.46L353.59,224.76L363.07,219.37L369.4,215.8L376.17,212.17L384.08,207.83L384.25,206.98L384.82,206.43L388.65,197.18L392.06,192.24L392.18,191.9L391.88,188.61L391.89,185.21L391.55,178.41L393.63,177.82L394.71,177.76L395.7,177.92L396.48,178.32L398.84,179.95L400.28,180.64L401.83,180.98L403.4,180.94L404.54,181.14L407.9,182.2L410.2,182.82L412.29,183.74L413.24,184.32L414.59,184.94L417.17,185.95L418.6,186.38L420.16,186.45L423.99,185.93L425.6,185.98L426.46,186.39L427.51,187.24L428.97,187.45L430.48,187.17L434.06,186.29L436.12,186.21L436.06,200.93L436.12,202.15L436.4,203.16L436.84,203.74L437.8,204.46L439.78,205.66L441.6,206.89L443.72,208.25L444.98,209.22L446.77,209.23L447.58,209.05L448.67,208.28L451.06,206.34L451.95,205.8L452.63,205.93L452.94,206.53L453.02,207.84L452.89,209.31L452.82,212.06L452.84,213.53L453.23,214.76L454.13,216.15L454.6,217.45L454.83,218.8L455.06,220.97L455.31,221.87L455.69,222.34L456.64,223.18L457.72,225.01L458.52,225.93L459.63,227.02L460.92,228.49L462.56,230.19L464.21,232.07L465.17,232.96L466.41,234.39L468.7,236.78L469.54,237.58L470.41,238.22L471.55,238.48L475.85,238.52L477.06,238.68L477.98,239L480.5,240.37L481.23,240.92L483.26,241.5L484.78,241.73L485.65,241.73L488.41,241.44L489.43,241.42L490.33,241.63L490.95,241.95L492.04,242.79L492.55,243.5L493.73,245.8L494.25,247.06L495.42,249.37L496.66,250.25L497.87,251.23L498.56,251.5L499.37,251.15L500.44,250.92L500.65,251.57L501.26,252.79L501.42,253.87L501.22,254.23L500.27,254.96L499.6,255.94L499.42,256.86L499.43,258.29L499.82,259.41L500.15,259.82L501.14,260.37L501.72,261.04L501.22,261.96L500.77,262.51L499.7,263.13L499.42,263.43L498.54,263.16L497.25,262.32L496.15,261.81L494.98,261.45L494.12,261.32L492.51,261.48L491.39,261.48L490.39,261.28L487.86,260.46L486.83,260.34L485.5,260.33L485.29,260.99L485.54,262.04L486.08,262.44L487.55,262.79L489.86,263.94L491.77,264.45L492.44,264.92L493,265.77L493.27,266.46L493.49,267.48L493.6,270.69L493.79,272.01L494.32,273.42L495.09,274.7L495.2,277.5L495.06,279.03L494.8,280.75L494.79,282.2L493.78,282.07L492.84,281.79L490.33,280.92L488.61,280.59L486.67,280.67L484.8,280.95L483.5,281.33L482.44,281.85L480.57,282.31L479.63,282.66L478.9,283.08L476.66,284.64L474.13,286.19L473.18,286.62L471.81,286.94L471.45,287.22L470.74,287.42L467.26,287.84L465.96,288.04L464.04,288.51L461.89,289.19L461.42,289.53L461.26,289.98L461.66,290.86L462.32,291.59L465.89,294.98L467.91,296.98L469.39,298.58L473.5,302.45L475.73,304.59L477.26,306.15L477.8,306.62L478.62,307.58Z" class="land" id="IQ-AN" title="Al Anbār"/>
  </g>
</svg>