<?xml version="1.0" encoding="UTF-8"?>
<svg xmlns="http://www.w3.org/2000/svg" width="402.4" height="366.04" viewBox="278.8 73.98 402.4 366.04" style="background-color:#000000">
  <!-- Created using SVG Map Generator: dojo.amcharts.com/svg-map-generator -->
  <style>
    .land { fill: #ffffff; stroke: #000000; stroke-width: 0.65; }
  </style>
  <g id="polygons">
    <path d="M309.88,96.65L307.67,98.87L307.12,105.47L308.48,108.47L306.9,110.26L303.59,111.81L303.59,114.15L305.17,117.76L311.42,135.13L313.22,138.42L315.94,142.03L318.08,143.65L321.83,144.52L322.57,145.4L323.37,149.27L325.47,150.38L326.87,150.56L329.6,147.66L333.9,148.12L335.55,146.55L338.53,147.2L338.49,148.63L340.15,150.84L339.27,153.14L339.52,153.87L341.66,155.16L343.2,152.95L346.4,153.18L348.52,160.11L349.13,163.77L348.53,166.25L347.27,167.36L344.84,167.9L342.92,167.02L342.57,166L339.78,165.27L337.9,163.42L335.15,163.32L333.04,163.86L328.64,164.39L326.96,163.86L326.08,161.76L321.42,162.35L321.5,166.49L321.1,167.41L316.75,167.66L315.61,169.12L315.53,170.86L313.49,171.4L312.67,175.57L310.42,174.68L308.49,175.57L307.54,174.72L308.26,172.75L307.36,171.4L307.21,169.2L306.38,167.03L306,164.69L305.12,164.2L303.36,164.7L300.9,161.34L301.99,158.38L301,156L297.6,154.71L298.68,152.27L298.62,148.71L297.19,148.27L295.98,146.43L296.15,143.32L296.99,141.78L294.11,139.63L292.14,137.78L292.58,134.22L291.62,132.96L292.76,130.78L290.91,129.14L289.76,129.47L288.26,127.19L287.05,126.59L285,126.63L285.04,124.19L286.57,121.31L287.35,120.74L288.24,118.1L288.15,116.84L289.94,114.93L289.23,113.49L286.44,113.35L286.6,107.04L285.6,104.41L286.14,101.19L284.43,99.94L283.34,97.21L284.17,96.12L284.32,93.2L282.08,91.73L281.45,88.07L281.74,86.4L284.6,86.16L286.03,86.87L288.07,86.32L288.82,85.49L289.1,81.76L289.94,78.44L292.13,76.63L298.74,80.91L300.19,85.49L302.15,86.76L304.77,91.21L308.26,92.7L308.2,93.37Z" class="land" id="IR-02" title="Āz̄ārbāyjān-e Ghārbī"/>
    <path d="M368.98,141.43L365.73,138.23L365.46,135.94L363.32,131.93L363.9,130.74L365.28,130.18L365.76,127.46L363.2,125.63L361.49,125.3L362.28,123.81L360.73,121.99L360.11,120.31L359.93,115.44L357.34,116.94L353.05,116.87L347.81,113.57L350.49,111.73L351.46,110.45L352.72,107.14L353.93,105.46L351.75,104.22L352.64,102.1L354.37,102.14L355.02,101.08L353.87,99.65L354.02,94.84L353.61,88.59L352.61,86.92L349.88,85.09L351.54,83.89L353.71,83.16L354.8,82.04L357.65,80.43L359.74,78.79L362.01,78.2L363.97,79.73L369.88,86.97L366.75,88.21L365.46,89.14L365.04,90.81L365.82,92.24L368.48,94.17L369.22,95.84L367.91,97.74L364.1,98.42L362.7,99.93L363.16,101.77L367.23,104.2L367.59,105.98L369.29,107.62L371.45,107.15L371.83,108.41L374.76,112.35L375.84,113.03L376.58,117.77L376.07,122.16L374.6,124.17L374.38,125.85L375.63,128.04L375.88,129.85L375.26,132.45L376.95,134.73L378.13,137.17L379.89,139.43L379.93,142.39L380.47,143.88L378.54,144.46L376.24,143.94L373.95,145.05L372.59,143.17L370.5,141.8Z" class="land" id="IR-03" title="Ardabīl"/>
    <path d="M349.13,163.77L350.49,163.99L351.78,162.64L355.78,164.69L360.32,165.38L361.23,171.46L359.79,172.81L359.55,176.05L361.5,176.23L361.91,177.87L362.85,178.55L365,178.88L366.11,180.91L363.52,183.39L361.43,184.19L359.07,184.44L359.78,188.19L365.11,194.22L364.99,198.89L360.1,199.07L359.02,200.33L357.98,199.6L357.92,197.74L356.41,197.07L349.25,197.04L347.82,200.32L345.48,200.08L343.64,201.38L343.99,204.19L342.07,205.17L336.48,204.79L335.5,202.73L332.89,201.61L331.55,200.51L330.91,196.94L327.61,193.53L324.86,194.58L323.72,193.99L324.16,192.27L322.53,190.67L320.94,187.82L321.67,185.85L321.6,183.66L322.45,182.82L326.59,182.22L328.14,180.79L327.48,179.35L325.5,180.12L322.93,178.62L321.79,179.1L319.18,179.18L317.86,179.83L315.89,179.35L313.79,176.12L312.67,175.57L313.49,171.4L315.53,170.86L315.61,169.12L316.75,167.66L321.1,167.41L321.5,166.49L321.42,162.35L326.08,161.76L326.96,163.86L328.64,164.39L333.04,163.86L335.15,163.32L337.9,163.42L339.78,165.27L342.57,166L342.92,167.02L344.84,167.9L347.27,167.36L348.53,166.25Z" class="land" id="IR-16" title="Kordestān"/>
    <path d="M359.02,200.33L357.69,204.56L358.66,208.07L363.16,209.68L363.28,212.25L360.02,216.17L357.58,216.23L355.5,215.21L354.56,218.39L351.29,222.04L351.44,223.53L352.76,225.88L349.26,224.88L349.29,228.19L347.08,229.57L342.86,228.22L341.2,229.99L338.06,229.9L335.31,228.96L333.5,226.92L330.34,224.38L327.69,224.43L324.01,222.51L323.52,223.93L320.53,224.38L320.26,226.3L321.27,227.36L317.88,231.52L314.65,233.19L313.79,231.04L312.92,230.16L311.09,226.82L309.81,226.82L309.73,225.43L310.45,223.56L312.09,222.11L311.97,220.6L312.57,217.53L310.31,216.28L309.67,214.22L311.45,212.98L311.4,210.54L315.53,211.55L315.25,209L314.01,207.3L315.02,204.86L316.44,204.29L316.64,202.55L318.29,203.05L318.99,201.09L318.74,199.76L319.9,198.1L321.87,198.76L324.37,196.98L324.86,194.58L327.61,193.53L330.91,196.94L331.55,200.51L332.89,201.61L335.5,202.73L336.48,204.79L342.07,205.17L343.99,204.19L343.64,201.38L345.48,200.08L347.82,200.32L349.25,197.04L356.41,197.07L357.92,197.74L357.98,199.6Z" class="land" id="IR-17" title="Kermānshāh"/>
    <path d="M352.76,225.88L353.23,228.85L350.97,231.54L349.95,232.13L347.5,231.97L343.98,232.71L343.09,234.04L343.09,235.39L339.96,234.73L339.48,235.68L340.48,237.35L343.18,239.1L343.57,240.83L345.3,241.02L347.3,243.18L349.93,244.17L352.56,245.85L353.34,247.26L356.67,249.37L358.83,249.83L361.62,251.89L362.56,253.2L363.65,253.35L365.14,256.11L364.35,257.88L362.71,258.44L361.65,260.16L362.47,261.74L362.43,263.97L361.26,268.34L359.76,271.58L357.73,272.79L356.75,275.71L356.06,274.13L355.02,273.42L354.2,271.85L352.41,270.82L352.75,269.58L350.45,266.23L350.9,265.27L349.36,263.26L347.47,262.61L344.78,263.21L343.49,262.39L337.29,256.97L336.44,255.99L331.56,252.66L327.32,251L323.68,251.13L323.24,250.14L324.17,248.49L322.58,247.95L325.13,245.87L324.89,243.6L322.43,240.95L321.85,238.78L320.82,237.75L319.34,234.45L317.89,234.57L316.21,235.63L315.94,234.2L314.65,233.19L317.88,231.52L321.27,227.36L320.26,226.3L320.53,224.38L323.52,223.93L324.01,222.51L327.69,224.43L330.34,224.38L333.5,226.92L335.31,228.96L338.06,229.9L341.2,229.99L342.86,228.22L347.08,229.57L349.29,228.19L349.26,224.88Z" class="land" id="IR-05" title="Īlām"/>
    <path d="M360.02,216.17L360.13,217.28L361.37,218.56L363.59,218.66L365,221.47L367.21,223.29L369.76,224.25L371.77,224.03L372.21,222.61L373.47,221.86L376.18,221.83L379.15,225.1L381.4,224.63L381.73,228.18L380.15,229.64L380.99,230.97L385.26,231.23L386.26,233.93L388.91,233.84L389.72,231.28L392.11,231.85L394.42,231.94L394.72,234.68L397.77,237.2L398.58,239.93L400.27,240.06L401.91,239.22L402.51,240.49L402.01,242.56L399.63,244.22L399.77,245.03L401.48,246.99L400.86,247.94L396.27,247.98L395.89,249.87L396.33,254.02L391.55,256.67L390.75,254.94L388.99,253.12L384.44,252.74L381.62,251.81L377.3,251.48L375.85,250.36L367.65,250.27L365.45,251.34L363.65,253.35L362.56,253.2L361.62,251.89L358.83,249.83L356.67,249.37L353.34,247.26L352.56,245.85L349.93,244.17L347.3,243.18L345.3,241.02L343.57,240.83L343.18,239.1L340.48,237.35L339.48,235.68L339.96,234.73L343.09,235.39L343.09,234.04L343.98,232.71L347.5,231.97L349.95,232.13L350.97,231.54L353.23,228.85L352.76,225.88L351.44,223.53L351.29,222.04L354.56,218.39L355.5,215.21L357.58,216.23Z" class="land" id="IR-20" title="Lorestān"/>
    <path d="M381.4,224.63L379.15,225.1L376.18,221.83L373.47,221.86L372.21,222.61L371.77,224.03L369.76,224.25L367.21,223.29L365,221.47L363.59,218.66L361.37,218.56L360.13,217.28L360.02,216.17L363.28,212.25L363.16,209.68L358.66,208.07L357.69,204.56L359.02,200.33L360.1,199.07L364.99,198.89L365.11,194.22L359.78,188.19L359.07,184.44L361.43,184.19L363.52,183.39L366.11,180.91L366.67,181.67L370.97,183.12L372.12,184.21L374.44,183.63L376.5,184.64L377.5,183.88L376.66,180.85L378.98,181.29L382.84,183.68L384.39,184.94L384.92,187.26L387.45,187.29L390.98,189.32L389.23,193.23L391.4,194.81L390.07,200.83L386.32,201.82L384.52,204.45L384.67,208.88L382.39,210.89L381.51,213.03L381.65,214.46L382.98,219.05L384.48,222.2L384.04,223.4Z" class="land" id="IR-24" title="Hamadān"/>
    <path d="M380.47,143.88L380.48,143.92L381.69,144.66L385.55,149.5L387.03,152.85L389.38,155.84L387.23,155.9L386.47,155.06L383.94,154.21L383.29,154.91L381.88,158.76L382.32,161.36L383.91,162.79L388.23,164L389.7,166.16L390.32,168.89L389.21,173.26L387.81,174.21L385.86,174.46L384.31,176.71L382.86,176.82L380.13,174.9L376.92,178.38L376.66,180.85L377.5,183.88L376.5,184.64L374.44,183.63L372.12,184.21L370.97,183.12L366.67,181.67L366.11,180.91L365,178.88L362.85,178.55L361.91,177.87L361.5,176.23L359.55,176.05L359.79,172.81L361.23,171.46L360.32,165.38L355.78,164.69L351.78,162.64L350.49,163.99L349.13,163.77L348.52,160.11L346.4,153.18L346.84,151.89L348.46,149.94L351.37,149.57L352.76,147.69L356.38,145.94L357.74,144.9L359.71,144.24L361.74,145.31L364.5,144.5L365.47,142.98L366.68,142.83L368.98,141.43L370.5,141.8L372.59,143.17L373.95,145.05L376.24,143.94L378.54,144.46Z" class="land" id="IR-11" title="Zanjān"/>
    <path d="M401.91,239.22L400.27,240.06L398.58,239.93L397.77,237.2L394.72,234.68L394.42,231.94L392.11,231.85L389.72,231.28L388.91,233.84L386.26,233.93L385.26,231.23L380.99,230.97L380.15,229.64L381.73,228.18L381.4,224.63L384.04,223.4L384.48,222.2L382.98,219.05L381.65,214.46L381.51,213.03L382.39,210.89L384.67,208.88L384.52,204.45L386.32,201.82L390.07,200.83L391.4,194.81L389.23,193.23L390.98,189.32L394.55,189.17L396.13,186.79L399.08,186.21L403.31,187.08L406.05,187.22L408.25,186.66L410.04,186.61L415.66,186.61L419.92,188.34L421.78,188.42L422.51,189.61L421.69,195.41L420.71,196.16L420.18,196.29L416.74,199.2L416.36,200.24L416.97,202.86L416.62,203.87L413.33,203.73L412.27,204.15L411.59,205.91L409.44,205.88L405.91,204.84L404.41,209.78L404.59,211.31L405.65,213.24L409.09,213.81L409.94,216.94L411.33,219.58L413.83,219.5L415.03,218.97L419.68,219.25L420.87,220.94L423.61,224.05L423.05,230.72L420.99,232.06L417.04,231.56L414.27,233.51L413.1,233.79L408.8,233.86L406.3,235.45L403.74,236.48L402.36,237.68Z" class="land" id="IR-22" title="Markazī"/>
    <path d="M389.38,155.84L391.99,158.27L394.56,158.55L396.81,159.51L402.91,159.35L406.99,157.27L410.13,158.24L411.98,158.63L417.12,162.03L419.12,163.73L419.59,165.05L419.7,166.27L417.92,166.67L416.6,166.2L412.83,166.16L411.66,167.81L412.83,169.48L416.1,171.09L415.51,173.34L412.98,174.29L409.72,178.5L408.01,179.85L407.48,182.6L406.48,183.69L406.45,185.1L408.25,186.66L406.05,187.22L403.31,187.08L399.08,186.21L396.13,186.79L394.55,189.17L390.98,189.32L387.45,187.29L384.92,187.26L384.39,184.94L382.84,183.68L378.98,181.29L376.66,180.85L376.92,178.38L380.13,174.9L382.86,176.82L384.31,176.71L385.86,174.46L387.81,174.21L389.21,173.26L390.32,168.89L389.7,166.16L388.23,164L383.91,162.79L382.32,161.36L381.88,158.76L383.29,154.91L383.94,154.21L386.47,155.06L387.23,155.9Z" class="land" id="IR-28" title="Qazvīn"/>
    <path d="M419.7,166.27L419.71,166.37L425.36,169.97L429.01,170.84L433.32,171.23L433.33,171.23L432.96,174.03L431.48,177.49L427.98,177.45L425.87,179.19L424.83,181.83L422.89,182.7L414.95,182.95L411.72,183.5L410.33,185.23L410.04,186.61L408.25,186.66L406.45,185.1L406.48,183.69L407.48,182.6L408.01,179.85L409.72,178.5L412.98,174.29L415.51,173.34L416.1,171.09L412.83,169.48L411.66,167.81L412.83,166.16L416.6,166.2L417.92,166.67Z" class="land" id="IR-32" title="Alborz"/>
    <path d="M420.71,196.16L421.69,195.41L422.51,189.61L421.78,188.42L419.92,188.34L415.66,186.61L410.04,186.61L410.33,185.23L411.72,183.5L414.95,182.95L422.89,182.7L424.83,181.83L425.87,179.19L427.98,177.45L431.48,177.49L432.96,174.03L433.33,171.23L433.83,171.42L439.71,175.21L441.09,176.9L442.03,178.89L446.42,181.07L450.55,180.34L453.02,178.55L454.23,176.81L457.21,176.66L462.74,178.55L465.15,178.88L464.98,178.97L467.18,179.88L464.79,182.51L461.4,185.34L457.43,187.74L454.26,191.08L451.54,191.08L448.38,188.96L443.41,186.34L442.31,187.51L443.01,189.91L441.91,193.06L442.97,196.17L444.92,198.37L444.85,200.3L442.82,203.37L442.05,202.29L440.72,201.72L439.43,200.14L434.99,198.77L434.07,197.15L431.57,196.72L426.99,195.32L424.51,195.82L422.54,196.83L420.74,196.15Z" class="land" id="IR-07" title="Tehrān"/>
    <path d="M410.13,158.24L406.99,157.27L402.91,159.35L396.81,159.51L394.56,158.55L391.99,158.27L389.38,155.84L387.03,152.85L385.55,149.5L381.69,144.66L380.48,143.92L379.93,142.39L379.89,139.43L378.13,137.17L376.95,134.73L375.26,132.45L375.88,129.85L375.63,128.04L374.38,125.85L374.6,124.17L376.07,122.16L376.58,117.77L375.84,113.03L377.53,112.7L378.92,111.71L380.91,111.99L380.74,115.07L381.6,121.19L382.45,124.24L382.27,125.34L383.24,127.49L383.8,130.18L386.23,133.2L387.74,134.28L392.6,136.54L400.52,137.61L402.77,137.61L407.17,138.9L408.79,139.9L408.71,140.83L410.75,145.39L415.14,149.06L412.09,156.04Z" class="land" id="IR-19" title="Gīlān"/>
    <path d="M465.15,178.88L462.74,178.55L457.21,176.66L454.23,176.81L453.02,178.55L450.55,180.34L446.42,181.07L442.03,178.89L441.09,176.9L439.71,175.21L433.83,171.42L433.32,171.23L429.01,170.84L425.36,169.97L419.71,166.37L419.59,165.05L419.12,163.73L417.12,162.03L411.98,158.63L410.13,158.24L412.09,156.04L415.14,149.06L418.59,151.45L424.87,155.23L432.26,157.01L435.57,158.02L439.32,158.66L442.16,159.49L445.92,159.35L449.67,157.79L456.81,156.28L464.52,154.45L467.18,153.57L473.77,152.01L484.98,151.46L482.78,152.57L479.53,152.52L479.52,153.7L482.79,154.29L482.74,156.14L484.23,158.05L487.13,158.97L487.84,159.61L487.72,162.25L487.76,162.25L487.74,162.26L487.23,163.09L484.97,163.74L483.73,165.48L484.22,167.81L478.36,173.15L473.85,173.39L471.58,174.49L469.48,177.32L467.74,177.51Z" class="land" id="IR-21" title="Māzandarān"/>
    <path d="M534.23,121.04L534.95,123.76L534.9,127.18L532.72,128.89L532.32,132.13L528.5,137.12L528.16,140.88L526.44,140.79L523.18,141.75L521.97,143.13L521.65,145.19L520.2,146.08L519.38,147.75L519.46,150.4L517.65,152.66L513.85,155.06L507.81,155.11L505.14,156.43L503.77,158.78L502.04,159.37L500.44,159.22L498.79,160.83L495.6,162.35L487.74,162.25L487.72,162.25L487.84,159.61L487.13,158.97L484.23,158.05L482.74,156.14L482.79,154.29L484.47,154.31L486.42,153.43L486.42,150.54L484.18,142.51L484.04,139.88L489.8,140.18L491.46,139.18L493.97,138.95L496.36,137.48L499.55,137.18L501.94,135.16L502,132.15L502.8,129.59L505.43,127.96L508.99,124.55L515.73,121.06L522.34,120.27L527.29,121.65L530.24,121.11L532.14,121.58Z" class="land" id="IR-27" title="Golestān"/>
    <path d="M442.82,203.37L444.85,200.3L444.92,198.37L442.97,196.17L441.91,193.06L443.01,189.91L442.31,187.51L443.41,186.34L448.38,188.96L451.54,191.08L454.26,191.08L457.43,187.74L461.4,185.34L464.79,182.51L467.18,179.88L464.98,178.97L467.74,177.51L469.48,177.32L471.58,174.49L473.85,173.39L478.36,173.15L484.22,167.81L483.73,165.48L484.97,163.74L487.23,163.09L487.74,162.26L487.76,162.25L495.6,162.35L498.79,160.83L500.44,159.22L502.04,159.37L503.77,158.78L505.14,156.43L507.81,155.11L513.85,155.06L517.65,152.66L519.46,150.4L519.38,147.75L520.2,146.08L521.65,145.19L521.97,143.13L523.18,141.75L526.44,140.79L526.49,144.17L528.5,144.25L529.01,146.41L527.25,151.01L527.45,152.85L528.28,153.25L532.52,151.07L533.18,153.13L536.07,157.87L539.05,158.62L540.63,158.71L542.54,157.43L543.5,157.98L543.5,159.44L544.78,160.73L545.08,163.24L544.64,163.97L541.77,166.12L544.41,169.77L542.43,175.42L542.61,178.41L547.61,182.62L548.75,184.29L549.3,186.6L548.61,188.68L549.05,191.61L548.86,192.87L545.44,193.46L543.97,194.13L541.88,196.52L537.83,197.51L535.44,201.23L532.33,204.89L531.05,206.36L529.87,208.96L528.8,210.21L525.63,216.22L516.33,216.44L461.04,217.37L457.85,215.29L454.79,214.26L452.89,213.22L450.8,213.22L447.92,214.11L445.84,214.18L442.9,213.22L441.61,212.17L440.4,211.37L442.58,205.34L442.84,203.4Z" class="land" id="IR-12" title="Semnān"/>
    <path d="M539.05,158.62L536.07,157.87L533.18,153.13L532.52,151.07L528.28,153.25L527.45,152.85L527.25,151.01L529.01,146.41L528.5,144.25L526.49,144.17L526.44,140.79L528.16,140.88L528.5,137.12L532.32,132.13L532.72,128.89L534.9,127.18L534.95,123.76L534.23,121.04L533.85,119.04L536.73,116.69L539.79,117.23L542.96,116.31L544.79,117.48L549.13,118.47L551.72,116.13L552.84,116.43L553.84,118.75L555.43,121.25L555.08,123.53L555.6,124.23L558.56,125.41L562.58,125.46L564.82,126.84L566.56,126.9L569.79,128.45L572.68,129.25L573.2,131.76L575.98,132.7L575.9,143.27L575.49,144.2L573.07,145.53L572.59,146.46L573.25,148.21L575.2,149.32L574.79,151.25L571.41,153.13L570.68,154.1L570.75,157.49L571.34,160.11L569.54,160.93L566.56,160.47L563.84,158.5L561.37,157.81L558.4,155.34L550.81,153.87L548.5,152.63L546.58,153.73L541.77,155.78L540.7,156.46Z" class="land" id="IR-31" title="Khorāsān-e Shomālī"/>
    <path d="M532.33,204.89L535.44,201.23L537.83,197.51L541.88,196.52L543.97,194.13L545.44,193.46L548.86,192.87L549.05,191.61L548.61,188.68L549.3,186.6L548.75,184.29L547.61,182.62L542.61,178.41L542.43,175.42L544.41,169.77L541.77,166.12L544.64,163.97L545.08,163.24L544.78,160.73L543.5,159.44L543.5,157.98L542.54,157.43L540.63,158.71L539.05,158.62L540.7,156.46L541.77,155.78L546.58,153.73L548.5,152.63L550.81,153.87L558.4,155.34L561.37,157.81L563.84,158.5L566.56,160.47L569.54,160.93L571.34,160.11L570.75,157.49L570.68,154.1L571.41,153.13L574.79,151.25L575.2,149.32L573.25,148.21L572.59,146.46L573.07,145.53L575.49,144.2L575.9,143.27L575.98,132.7L578.83,132.66L579.54,131.43L583.45,132.65L586.68,132.04L590.49,133.3L593.91,135.98L595.51,135.49L596.79,136.57L596.72,138.76L597.18,141.09L600.05,144.45L605.97,146.45L608.08,148.04L610.55,148.68L612.88,152.61L615.07,155.28L616.52,158.31L617.21,158.69L632.31,158.42L634.17,158.71L634.59,160.21L633.9,164.61L633.92,166.95L634.49,167.47L635.35,171.99L634.34,174.82L635.85,178.13L636.04,180.84L635.53,183.32L636.73,186.46L634.68,190.97L634.78,192.28L632.99,193.29L632.85,195.68L633.79,197.72L633.15,198.79L632.1,204.95L629.93,207.24L629.68,209.38L627.43,211.06L624.87,211.9L628.5,217.35L623.42,217.66L620.89,220.66L620.22,223.28L615.52,223.44L614.29,225.42L612.9,226.44L611.35,225.59L611.01,223.65L610.05,222.82L607.74,222.18L601.86,222.28L599.72,219.61L598.86,219.16L596.52,219.33L584,219.73L580.95,220.93L577.83,218.44L575.14,214.16L571.39,215.9L569.41,215.59L567.83,214.07L563.89,213.09L562.13,209.74L559.81,206.43L559.66,205.58L561.32,203.43L564.37,201.84L563.82,200L561.39,197.84L556.12,195.55L551.16,195.73L548.07,197.12L545.13,199.37L544.28,201.25L540.86,204.21L538.66,205.33Z" class="land" id="IR-30" title="Khorāsān-e Raẕavī"/>
    <path d="M440.4,211.37L440.38,211.36L437.93,212.4L434.38,212.77L432.36,213.36L428.25,213.36L424.14,214.85L423.1,215.74L423.16,219.67L420.87,220.94L419.68,219.25L415.03,218.97L413.83,219.5L411.33,219.58L409.94,216.94L409.09,213.81L405.65,213.24L404.59,211.31L404.41,209.78L405.91,204.84L409.44,205.88L411.59,205.91L412.27,204.15L413.33,203.73L416.62,203.87L416.97,202.86L416.36,200.24L416.74,199.2L420.18,196.29L420.74,196.15L422.54,196.83L424.51,195.82L426.99,195.32L431.57,196.72L434.07,197.15L434.99,198.77L439.43,200.14L440.72,201.72L442.05,202.29L442.84,203.4L442.58,205.34Z" class="land" id="IR-26" title="Qom"/>
    <path d="M516.33,216.44L516.55,234.94L514.52,237.22L513.9,237.66L511.45,237.51L509.73,240.01L508.26,240.6L505.87,242.36L502.56,242.5L501.22,244.04L499.12,244.85L492.26,244.92L491.03,246.68L490.36,249.17L489.13,249.9L485.27,250.7L483.43,251.5L483.31,253.11L481.29,254.71L470.5,254.86L464.31,258.36L464.49,261.05L464.43,269.68L463.76,275.76L467.74,280.27L465.29,283.01L462.29,283.01L459.94,283.84L456.64,283.42L450.32,283.06L447.63,280.39L446.4,280.25L443.22,281.33L441.07,284.5L440.58,287.09L441.25,291.61L440.7,293.47L439.05,297.27L438.68,299.48L437.88,301.27L437.75,304.27L436.54,303.72L429.81,297.94L429.22,296.43L428.67,292.01L427.83,286.1L427.77,284.23L428.45,277.02L429.92,276.01L430.28,274.93L429.37,269.87L426.06,267.55L425.57,266.46L423.48,264.65L421.28,263.92L420.87,262.34L421.43,260.5L418.85,255.52L418.04,255.48L414.07,256.53L411.87,256.7L410.54,258.71L408.04,259.94L405.23,257.27L404.2,257.01L402.11,257.93L396.33,254.02L395.89,249.87L396.27,247.98L400.86,247.94L401.48,246.99L399.77,245.03L399.63,244.22L402.01,242.56L402.51,240.49L401.91,239.22L402.36,237.68L403.74,236.48L406.3,235.45L408.8,233.86L413.1,233.79L414.27,233.51L417.04,231.56L420.99,232.06L423.05,230.72L423.61,224.05L420.87,220.94L423.16,219.67L423.1,215.74L424.14,214.85L428.25,213.36L432.36,213.36L434.38,212.77L437.93,212.4L440.38,211.36L441.61,212.17L442.9,213.22L445.84,214.18L447.92,214.11L450.8,213.22L452.89,213.22L454.79,214.26L457.85,215.29L461.04,217.37Z" class="land" id="IR-04" title="Eşfahān"/>
    <path d="M620.22,223.28L621.03,229.23L620.18,232.46L620.7,234.26L622,235.51L623.66,236.2L628.28,236.48L627.3,238.07L627.02,240.03L625.75,240.99L621.85,246.28L622.05,250.14L625.65,262.39L627.26,268.38L626.82,272.71L626.12,273.78L626.57,275.97L626.42,277.47L626.75,280.89L626.48,282.68L627.08,286.68L627.43,286.82L624.64,290.95L620.75,291.95L618.34,292.84L615.63,293.36L614.81,295.42L615.22,296.52L615.03,298.47L613.23,299.84L609.23,300.08L608.29,300.77L607.79,304.53L605.64,305.22L598.1,308.28L596.13,306.42L589.84,297.98L587.75,294.76L586.13,294.2L583.84,292.62L579.65,287.8L574.25,282.66L568.47,279.03L558.84,275.44L555.16,273.84L553.68,273.58L544.89,270.62L542.2,271.19L539.57,271.28L539.64,269.08L540.56,267.48L537.13,262.4L536.27,261.6L531.55,254.57L529.59,252.82L526.1,252.31L523.09,251.28L520.52,247.26L517.95,241.99L514.52,237.22L516.55,234.94L516.33,216.44L525.63,216.22L528.8,210.21L529.87,208.96L531.05,206.36L532.33,204.89L538.66,205.33L540.86,204.21L544.28,201.25L545.13,199.37L548.07,197.12L551.16,195.73L556.12,195.55L561.39,197.84L563.82,200L564.37,201.84L561.32,203.43L559.66,205.58L559.81,206.43L562.13,209.74L563.89,213.09L567.83,214.07L569.41,215.59L571.39,215.9L575.14,214.16L577.83,218.44L580.95,220.93L584,219.73L596.52,219.33L598.86,219.16L599.72,219.61L601.86,222.28L607.74,222.18L610.05,222.82L611.01,223.65L611.35,225.59L612.9,226.44L614.29,225.42L615.52,223.44Z" class="land" id="IR-29" title="Khorāsān-e Jonūbī"/>
    <path d="M598.1,308.28L597.44,311.71L597.11,318.11L597.94,329.65L598.55,336.72L598.94,338.57L599.97,340.5L599.97,342.08L598.91,343.53L599.91,347.43L599.94,352.7L600.58,355.22L599.97,355.48L593.45,355.28L592.34,355.45L590.1,356.96L591.81,359.07L591.81,363.01L590.63,363.64L588.19,364.15L587.22,365.65L586.95,367.21L586.57,376.5L585.42,386.81L586.01,388.63L587.13,390.48L586.63,394.08L587.45,395.5L589.14,396.08L589.73,397.79L590.11,401.55L587.91,401.97L586.87,402.81L585.72,402.8L583.77,401.99L580.66,400.19L579.24,397.9L577.46,396.58L575.38,396.8L571.63,395.47L569.57,393.31L568.51,392.76L564.86,392.59L562.59,389.81L560.98,389.06L559.94,386.55L557.16,385.42L555.88,383.98L555.29,380.13L554.66,378.39L553.3,376.98L555.66,373.86L557.94,372.82L557.16,370.07L551.57,369.49L549.99,368.45L548.67,366.2L547.82,361.24L541.79,361.53L541.16,363.66L539.44,364.2L533.33,364.29L529.95,361.78L528.11,359.57L527.78,358.06L528.96,346.4L527.45,346.36L524.51,347.45L520.64,349.22L517.85,350.85L516.09,350.77L515.06,349.51L512.74,349.09L512.32,347.47L512.72,344.82L512.72,341.71L512.06,339.6L510.11,337.41L505.07,331.26L503.23,328.51L498.45,327.74L497.37,324.02L496.97,314.83L492.92,310.27L492.33,309.03L493.03,308.22L496.45,306.21L496.53,304.59L496.36,294.29L500.71,293L505.24,293.93L512.17,291.64L515.8,289.99L520.34,288.76L525.36,285.75L526.34,284.88L527.75,280.78L529.84,279.55L532.23,280.49L535.66,278.9L537.5,277.53L538.91,277.32L539.4,276.16L539.57,271.28L542.2,271.19L544.89,270.62L553.68,273.58L555.16,273.84L558.84,275.44L568.47,279.03L574.25,282.66L579.65,287.8L583.84,292.62L586.13,294.2L587.75,294.76L589.84,297.98L596.13,306.42Z" class="land" id="IR-15" title="Kermān"/>
    <path d="M498.45,327.74L495.88,327.59L490.85,328.3L488.03,323.78L487.11,319.6L484.17,317.05L483.19,314.78L483.81,313.29L483.81,306.1L483.38,304.48L480.86,302.63L474.25,302.2L472.1,299.84L468.18,298.2L462.7,294.76L459.76,291.32L461.66,289.24L462.64,289.03L462.7,286.94L460.01,283.85L459.94,283.84L462.29,283.01L465.29,283.01L467.74,280.27L463.76,275.76L464.43,269.68L464.49,261.05L464.31,258.36L470.5,254.86L481.29,254.71L483.31,253.11L483.43,251.5L485.27,250.7L489.13,249.9L490.36,249.17L491.03,246.68L492.26,244.92L499.12,244.85L501.22,244.04L502.56,242.5L505.87,242.36L508.26,240.6L509.73,240.01L511.45,237.51L513.9,237.66L514.52,237.22L517.95,241.99L520.52,247.26L523.09,251.28L526.1,252.31L529.59,252.82L531.55,254.57L536.27,261.6L537.13,262.4L540.56,267.48L539.64,269.08L539.57,271.28L539.4,276.16L538.91,277.32L537.5,277.53L535.66,278.9L532.23,280.49L529.84,279.55L527.75,280.78L526.34,284.88L525.36,285.75L520.34,288.76L515.8,289.99L512.17,291.64L505.24,293.93L500.71,293L496.36,294.29L496.53,304.59L496.45,306.21L493.03,308.22L492.33,309.03L492.92,310.27L496.97,314.83L497.37,324.02Z" class="land" id="IR-25" title="Yazd"/>
    <path d="M512.74,349.09L513,350.18L516.49,353.71L516.6,355.51L515.46,357.14L515.17,367.5L517.59,369.87L518.77,371.91L518.4,373.36L514.62,378.39L511.81,381.17L509.64,382L494.52,381.17L490.41,382.08L486.24,384.11L487.68,386.47L487.38,387.5L484.4,390.39L482.27,391.3L479.73,389.94L476.35,389.86L473.74,387.92L470.25,385.97L465.58,384.77L462.06,380.34L460.77,379.76L458.72,378.02L457.1,376.15L456.58,374.95L455.99,371.41L452.87,368.2L450.33,367.21L448.77,365.46L447.67,363.5L445.54,355.97L444.58,353.71L443.99,349.64L441.64,346.11L440.32,343.06L438.88,340.71L435.2,335.69L432.56,334.08L429.98,333.36L428.84,328.92L424.81,327.83L418.38,328L417.2,325.02L418,323.62L420.14,323.54L422.01,322.56L422.23,319.76L422.78,317.72L425.84,316.61L427.6,314.73L428.08,312.65L425.87,307.35L426.87,305.98L428.3,307.01L429.22,308.81L431.21,310.22L434.26,310.09L435.73,311.37L437.16,311.15L438.49,309.62L438.16,305L437.75,304.27L437.88,301.27L438.68,299.48L439.05,297.27L440.7,293.47L441.25,291.61L440.58,287.09L441.07,284.5L443.22,281.33L446.4,280.25L447.63,280.39L450.32,283.06L456.64,283.42L460.01,283.85L462.7,286.94L462.64,289.03L461.66,289.24L459.76,291.32L462.7,294.76L468.18,298.2L472.1,299.84L474.25,302.2L480.86,302.63L483.38,304.48L483.81,306.1L483.81,313.29L483.19,314.78L484.17,317.05L487.11,319.6L488.03,323.78L490.85,328.3L495.88,327.59L498.45,327.74L503.23,328.51L505.07,331.26L510.11,337.41L512.06,339.6L512.72,341.71L512.72,344.82L512.32,347.47Z" class="land" id="IR-14" title="Fārs"/>
    <path d="M428.67,292.01L426.13,292.09L423.52,294.07L422.12,292.57L420.95,290.11L417.9,289.72L415.69,287.1L414.62,286.75L411.64,288.22L410.65,288.04L408.41,286.36L411.17,282.86L411.11,282.38L408.17,279.52L408.44,276.57L404.87,273.93L401.31,269.63L400.68,268.34L400.95,266.39L397.38,262.58L396.28,261.88L393.42,259.04L391.55,256.67L396.33,254.02L402.11,257.93L404.2,257.01L405.23,257.27L408.04,259.94L410.54,258.71L411.87,256.7L414.07,256.53L418.04,255.48L418.85,255.52L421.43,260.5L420.87,262.34L421.28,263.92L423.48,264.65L425.57,266.46L426.06,267.55L429.37,269.87L430.28,274.93L429.92,276.01L428.45,277.02L427.77,284.23L427.83,286.1Z" class="land" id="IR-08" title="Chahār Maḩāl va Bakhtīārī"/>
    <path d="M408.41,286.36L408,288.65L407.27,290.16L405.06,291.84L401.32,291.92L401.4,293.25L403.05,294.63L402.72,297.29L401.1,298.41L403.05,302.31L405.26,302.65L406.11,300.81L407.69,301.11L407.95,303.77L410.11,304.62L411.18,306.27L412.39,307L412.76,308.41L411.33,308.96L410.74,310.16L413.42,313.74L413.53,318.57L412.31,318.4L408.12,315.64L405.84,318.44L403.86,317.28L402.34,317.66L395.88,321.8L394.47,321.97L393.39,318.8L390.71,318.34L388.55,318.79L388.38,317.6L386.83,317.19L383.58,315.14L382.44,312.95L384.78,312.79L387.13,313.63L388.8,312.46L386.94,310.38L386.26,310.65L383.12,310.22L383.86,312.62L382.16,312.54L380.66,314.28L380.76,315.49L381.88,316.55L382.3,318.59L382.16,320.62L380.96,321.93L376.09,321.61L376.53,322.67L375.48,323.54L373.05,323.19L372.23,322.48L370.79,318.79L371.07,317.25L368.49,314.8L367.02,314.8L366.14,312.35L365.35,311.77L363.18,311.45L363.21,299.17L362.93,298.73L356.15,298.73L356.28,288.78L359.42,280.22L359.48,279.15L358.06,277.74L356.75,275.71L357.73,272.79L359.76,271.58L361.26,268.34L362.43,263.97L362.47,261.74L361.65,260.16L362.71,258.44L364.35,257.88L365.14,256.11L363.65,253.35L365.45,251.34L367.65,250.27L375.85,250.36L377.3,251.48L381.62,251.81L384.44,252.74L388.99,253.12L390.75,254.94L391.55,256.67L393.42,259.04L396.28,261.88L397.38,262.58L400.95,266.39L400.68,268.34L401.31,269.63L404.87,273.93L408.44,276.57L408.17,279.52L411.11,282.38L411.17,282.86Z" class="land" id="IR-10" title="Khūzestān"/>
    <path d="M417.2,325.02L415.55,324.14L414.08,321.59L413.53,318.57L413.42,313.74L410.74,310.16L411.33,308.96L412.76,308.41L412.39,307L411.18,306.27L410.11,304.62L407.95,303.77L407.69,301.11L406.11,300.81L405.26,302.65L403.05,302.31L401.1,298.41L402.72,297.29L403.05,294.63L401.4,293.25L401.32,291.92L405.06,291.84L407.27,290.16L408,288.65L408.41,286.36L410.65,288.04L411.64,288.22L414.62,286.75L415.69,287.1L417.9,289.72L420.95,290.11L422.12,292.57L423.52,294.07L426.13,292.09L428.67,292.01L429.22,296.43L429.81,297.94L436.54,303.72L437.75,304.27L438.16,305L438.49,309.62L437.16,311.15L435.73,311.37L434.26,310.09L431.21,310.22L429.22,308.81L428.3,307.01L426.87,305.98L425.87,307.35L428.08,312.65L427.6,314.73L425.84,316.61L422.78,317.72L422.23,319.76L422.01,322.56L420.14,323.54L418,323.62Z" class="land" id="IR-18" title="Kohgīlūyeh va Bowyer Aḩmad"/>
    <path d="M465.58,384.77L461.13,386.39L457.7,384.69L457.78,383.32L458.79,382.19L457.64,381.61L457.01,380.33L455.46,378.74L454.03,377.87L450.36,377.06L447.15,374.41L445.54,373.54L442.42,373.23L439.6,373.72L436.76,373.15L434.94,372.13L434.02,370.86L432.95,371.23L432.55,369.84L430.17,365.89L430.62,364.63L430.17,363.32L427.63,360.27L426.2,356.41L425.92,352.41L424.27,350.51L422.16,350.15L420.86,348.2L421.07,346.27L422.54,346.75L423.06,344.57L421.42,342.88L417.37,342.81L417.15,341.58L418.31,339.33L417.73,338.67L417.61,335.59L416.93,334.55L414.82,333.06L413.5,331.21L412.28,330.72L409.13,325.68L407.09,323.99L406.74,319.64L405.84,318.44L408.12,315.64L412.31,318.4L413.53,318.57L414.08,321.59L415.55,324.14L417.2,325.02L418.38,328L424.81,327.83L428.84,328.92L429.98,333.36L432.56,334.08L435.2,335.69L438.88,340.71L440.32,343.06L441.64,346.11L443.99,349.64L444.58,353.71L445.54,355.97L447.67,363.5L448.77,365.46L450.33,367.21L452.87,368.2L455.99,371.41L456.58,374.95L457.1,376.15L458.72,378.02L460.77,379.76L462.06,380.34Z" class="land" id="IR-06" title="Būshehr"/>
    <path d="M586.87,402.81L587.7,406.61L591.32,414.05L590.17,416.02L592.7,418.37L594.47,421.8L594.1,429.01L591.96,429.74L589.43,429.17L587.97,427.02L586.26,426.58L585.71,425.88L583.94,425.88L580.2,425.19L577.81,425.32L576.31,424.94L575.56,425.49L572.45,426.32L570.45,425.88L569.44,425L568.18,422.92L567.4,422.73L564.56,424.24L564.23,422.06L563.48,421.67L561.36,421.96L559.07,421.76L557.82,421.18L555.06,421L553.56,416.83L552.43,416.01L551.73,413.72L552.72,412.08L551.08,409.84L550.92,408.04L549.91,405.62L550.19,401.67L548.85,396.31L547.87,395.29L547.79,393.59L545.42,391.77L544.4,389.64L539.74,389.32L535.01,388.2L532.17,388.98L530.28,389.15L529.66,389.96L526.48,392.25L522.86,392.96L521.24,392.8L519.67,393.94L518.55,397.25L517.1,398.24L515.31,398.36L512.71,397.66L511.37,399.19L509.26,399.77L505.7,402.73L503.04,404.45L499.3,404.22L498.09,402.45L495.29,402.35L494.55,401.98L492.87,399.45L489.62,399.61L486.42,398.74L485.07,399.38L482.83,399.77L480.67,399.6L476.05,396.24L475.58,394.32L474.41,393.02L467.4,390.63L462.79,387.88L461.13,386.39L465.58,384.77L470.25,385.97L473.74,387.92L476.35,389.86L479.73,389.94L482.27,391.3L484.4,390.39L487.38,387.5L487.68,386.47L486.24,384.11L490.41,382.08L494.52,381.17L509.64,382L511.81,381.17L514.62,378.39L518.4,373.36L518.77,371.91L517.59,369.87L515.17,367.5L515.46,357.14L516.6,355.51L516.49,353.71L513,350.18L512.74,349.09L515.06,349.51L516.09,350.77L517.85,350.85L520.64,349.22L524.51,347.45L527.45,346.36L528.96,346.4L527.78,358.06L528.11,359.57L529.95,361.78L533.33,364.29L539.44,364.2L541.16,363.66L541.79,361.53L547.82,361.24L548.67,366.2L549.99,368.45L551.57,369.49L557.16,370.07L557.94,372.82L555.66,373.86L553.3,376.98L554.66,378.39L555.29,380.13L555.88,383.98L557.16,385.42L559.94,386.55L560.98,389.06L562.59,389.81L564.86,392.59L568.51,392.76L569.57,393.31L571.63,395.47L575.38,396.8L577.46,396.58L579.24,397.9L580.66,400.19L583.77,401.99L585.72,402.8ZM531.26,395.02L529.4,397.83L526.64,399.88L525.19,398.81L523.05,400.06L521.67,399.92L517.49,402.22L516.22,402.36L513.27,403.4L512.99,400.71L514.38,401.01L515.47,400.4L518.96,399.32L520.32,398.4L522.31,397.9L523.32,396.45L522.75,393.93L525.63,395.02L528.58,393.43L531.3,392.81L533.04,393.13L533.65,393.91ZM487.51,404.55L485.6,404.58L485.4,402.91L487.2,403.24Z" class="land" id="IR-23" title="Hormozgan"/>
    <path d="M594.1,429.01L594.47,421.8L592.7,418.37L590.17,416.02L591.32,414.05L587.7,406.61L586.87,402.81L587.91,401.97L590.11,401.55L589.73,397.79L589.14,396.08L587.45,395.5L586.63,394.08L587.13,390.48L586.01,388.63L585.42,386.81L586.57,376.5L586.95,367.21L587.22,365.65L588.19,364.15L590.63,363.64L591.81,363.01L591.81,359.07L590.1,356.96L592.34,355.45L593.45,355.28L599.97,355.48L600.58,355.22L599.94,352.7L599.91,347.43L598.91,343.53L599.97,342.08L599.97,340.5L598.94,338.57L598.55,336.72L597.94,329.65L597.11,318.11L597.44,311.71L598.1,308.28L605.64,305.22L607.79,304.53L608.29,300.77L609.23,300.08L613.23,299.84L615.03,298.47L615.22,296.52L614.81,295.42L615.63,293.36L618.34,292.84L620.75,291.95L624.64,290.95L627.43,286.82L627.77,286.97L644.38,289.4L646.19,291.32L646.06,292.84L646.81,294.25L647.78,297.77L647.24,299.53L647.41,301.45L646.94,302.65L640.27,310.72L630.31,322.65L627.55,325.89L636.51,336.59L637.71,337.36L637.81,340.19L639.18,342.69L640.81,344.29L642.43,349.23L644.21,351.93L646.34,353.86L649.15,356.94L652.37,358.26L654.4,358.52L656.12,359.29L658.84,359.84L660.93,361.46L661.51,362.61L663.22,364.29L666.59,363.6L667.15,364.7L666.52,369.75L667.44,373.61L668.15,381.4L666.94,384.81L667.86,387.65L670.31,387.89L675.41,386.88L677.15,387.8L678.55,390.15L677.34,390.19L676.7,391.62L676.81,394.23L677.42,395.41L675.72,396.79L675.56,400.14L674.88,401.52L671.77,401.21L666.89,401.08L666.29,401.75L663.63,402.55L660.18,402.91L657.38,404.38L656.49,406.33L656.38,407.84L653.91,407.3L653.3,408.67L648.42,410.33L647.44,412.05L646.42,419.61L645.99,420.4L644.36,421.18L644.63,423.71L644.01,424.74L643.53,432.22L642.7,433.41L641.15,433.97L641.01,435.87L639.24,437.37L634.57,435.92L634.27,434.98L631.39,433.95L623.21,432.46L622.55,429.48L621.48,428.54L618.98,429.17L617.62,431.19L616.73,431.21L615.74,430.08L614.3,430.27L614.46,431.44L611.84,430.39L608.93,430.64L608.17,431.21L605.51,429.84L602.2,429.98L600.63,429.62L598.9,428.21Z" class="land" id="IR-13" title="Sīstān va Balūchestān"/>
    <path d="M346.4,153.18L343.2,152.95L341.66,155.16L339.52,153.87L339.27,153.14L340.15,150.84L338.49,148.63L338.53,147.2L335.55,146.55L333.9,148.12L329.6,147.66L326.87,150.56L325.47,150.38L323.37,149.27L322.57,145.4L321.83,144.52L318.08,143.65L315.94,142.03L313.22,138.42L311.42,135.13L305.17,117.76L303.59,114.15L303.59,111.81L306.9,110.26L308.48,108.47L307.12,105.47L307.67,98.87L309.88,96.65L312.02,97.86L315.85,98.25L317.38,98.85L321.72,99.76L324.28,100.68L325.86,100.48L327.96,99.27L329.76,99.1L331.91,100.07L333.75,99.49L334.85,97.59L337.03,95.98L339.53,92.66L341.34,92.78L342.71,92L344.4,88.85L348.29,86.96L349.88,85.09L352.61,86.92L353.61,88.59L354.02,94.84L353.87,99.65L355.02,101.08L354.37,102.14L352.64,102.1L351.75,104.22L353.93,105.46L352.72,107.14L351.46,110.45L350.49,111.73L347.81,113.57L353.05,116.87L357.34,116.94L359.93,115.44L360.11,120.31L360.73,121.99L362.28,123.81L361.49,125.3L363.2,125.63L365.76,127.46L365.28,130.18L363.9,130.74L363.32,131.93L365.46,135.94L365.73,138.23L368.98,141.43L366.68,142.83L365.47,142.98L364.5,144.5L361.74,145.31L359.71,144.24L357.74,144.9L356.38,145.94L352.76,147.69L351.37,149.57L348.46,149.94L346.84,151.89Z" class="land" id="IR-01" title="Āz̄ārbāyjān-e Shārqī"/>
  </g>
</svg>