<?xml version="1.0" encoding="UTF-8"?>
<svg xmlns="http://www.w3.org/2000/svg" width="138.59" height="366.04" viewBox="410.7 73.98 138.59 366.04" style="background-color:#000000">
  <!-- Created using SVG Map Generator: dojo.amcharts.com/svg-map-generator -->
  <style>
    .land { fill: #ffffff; stroke: #000000; stroke-width: 0.65; }
  </style>
  <g id="polygons">
    <path d="M471.18,246.32L469.49,245L468.01,244.57L467.23,243.65L463.85,241.6L463.54,237.04L463.82,235.28L463.46,232.32L461.65,231.94L460.98,230.05L459.93,228.87L460.27,227.98L461.86,226.41L465.64,225.43L466.46,224.9L467.74,222.43L471.66,222.58L470.77,223.91L471.42,226.37L472.93,227.03L475.09,227.34L477.08,226.62L478.55,225.01L479.61,224.39L480.04,224.13L481.75,225.73L483.32,226.48L486.7,227.85L490.32,227.84L491.75,229.33L491.51,232.65L490.7,233.94L490.59,234.1L486.65,234.21L483.32,235.57L479.95,238.93L479.24,239.64L475.57,241.4L474.28,242.54L471.89,245.13Z" class="land" id="IL-JM" title="Yerushalayim"/>
    <path d="M416.4,281.03L419.92,278.38L423.39,275.37L424.26,273.78L424.04,268.67L424.73,266.39L427.33,263.02L435.18,255.38L437.45,254.84L438.14,253.6L438.13,251.84L437.06,250.26L433.67,247.07L435.89,243.79L437.57,240.75L439.05,238.9L442.61,232.51L445.39,226.59L446.45,225.11L447.86,221.34L450.85,221.31L450.54,225.2L448.78,225.07L448.28,226.47L449.43,227.62L447.94,228.87L448.42,229.69L451.15,230.15L452.25,227.58L453.5,226.81L455.27,227.95L456.38,230.67L457.07,231.46L459.93,228.87L460.98,230.05L461.65,231.94L463.46,232.32L463.82,235.28L463.54,237.04L463.85,241.6L467.23,243.65L468.01,244.57L469.49,245L471.18,246.32L469.97,248.14L469.28,251.58L469.63,255.31L469.34,256.91L467.77,259.9L466.04,262.14L464.52,265.21L464.74,267.03L465.61,268.45L466.86,269.5L468.81,270.02L472.36,269.55L475.63,268.73L478.82,269L483.33,269.29L484.98,268.43L486.07,268.68L487.75,268.39L489.22,268.26L491.09,267.91L492.24,267.22L494.52,264.87L496.47,262.67L499,261.54L501.59,259.64L502.34,258.97L504.35,257.18L505.58,256.74L510.75,256.83L510.71,263.09L510.43,264.94L509.15,268.63L504.44,277.29L504.04,279.13L504.93,281.08L508.42,285.79L509.04,287.14L509.51,290.46L508.5,294.47L505.51,299.11L505.19,300.97L506.02,304.22L506.01,306.1L504.66,307.35L501.72,309.28L499.64,313.92L500,317.07L499.61,318.9L498.11,319.44L496.94,320.86L496.25,322.75L496.25,326.46L495.15,329.04L493.23,332.56L492.82,334.58L491.65,335.66L489.35,340.14L489.16,341.63L487.39,349.87L485.47,354.27L488.17,359.38L488.33,361.87L486.6,363.8L486.1,365.35L486.36,367.16L484.88,370.48L487.32,381.36L481.28,390.08L479.65,396.58L479.9,403.63L477.6,408.26L477.25,409.95L477.25,413.11L475.91,418.69L476.14,425.37L472.53,429.05L470.93,432.88L470.02,432.91L467.92,435.95L466.61,437.37L464.64,435.07L463.61,433.12L462.93,429L463.66,426.55L464.03,424.09L463.68,422.4L462.28,419.95L462.33,415.61L454.34,393.07L454.5,391.7L451.96,384.68L445.24,365.54L443.64,359.53L438.2,355.95L437.99,353.17L439.61,348.59L436.22,344.59L436.45,339.64L434.18,330.18L427.31,315.66L422.85,302.53Z" class="land" id="IL-D" title="HaDarom"/>
    <path d="M452.6,209.16L453.78,204.9L454.37,204.52L456.63,198.09L458.21,192.01L460.46,192.23L463.1,194.26L463.1,197.36L461.68,199.72L461.37,202.05L462.87,203.92L463.28,206.42L464.47,207.14L464.26,208.17L462.21,208.71L461.53,207.91L460.18,208.04L458.6,209.83L456.18,210.01Z" class="land" id="IL-TA" title="Tel-Aviv"/>
    <path d="M447.86,221.34L449.25,217.31L450.53,215.3L451.64,212.48L452.6,209.16L456.18,210.01L458.6,209.83L460.18,208.04L461.53,207.91L462.21,208.71L464.26,208.17L464.47,207.14L463.28,206.42L462.87,203.92L461.37,202.05L461.68,199.72L463.1,197.36L463.1,194.26L460.46,192.23L458.21,192.01L460.25,184.99L461.99,177.41L463.12,171.97L466.64,172.49L468.34,172.02L472.59,172.38L474.93,174.7L478.38,174.11L478.21,175.31L477.67,175.84L475.64,176.75L475.12,177.41L474.29,178.98L474.21,181.47L474.57,184.11L474.32,184.8L474.15,184.91L473.65,185.27L472.58,186.84L471.17,190.05L471.03,191.12L471.07,192.19L472.13,193.8L472.56,194.68L473.14,197.31L473.24,198.5L473,199.46L472.36,200.67L472.27,201.41L472.51,202.02L473.33,202.89L474.23,204.62L474.49,205.68L474.31,207.03L473.68,208.41L473.7,209.03L473.85,209.52L473.5,209.81L473.84,210.72L472.78,213.01L472.96,215.1L474.16,216.72L475.94,218.15L476.32,219.63L475.63,221.77L471.73,222.47L471.66,222.58L467.74,222.43L466.46,224.9L465.64,225.43L461.86,226.41L460.27,227.98L459.93,228.87L457.07,231.46L456.38,230.67L455.27,227.95L453.5,226.81L452.25,227.58L451.15,230.15L448.42,229.69L447.94,228.87L449.43,227.62L448.28,226.47L448.78,225.07L450.54,225.2L450.85,221.31Z" class="land" id="IL-M" title="HaMerkaz"/>
    <path d="M463.12,171.97L463.57,170.76L464.61,165.53L465.61,159.46L466.57,156.5L466.94,152.46L467.65,149.26L467.93,144.98L469.02,143.8L469.46,141.62L470.02,135.41L470.02,133.45L472.02,132.36L474.77,134.61L477.22,133.32L478.22,131.84L479.59,128.3L479.98,126.44L479.79,124.86L480.64,125.71L480.41,127.4L481.68,129.27L481.4,131.03L484.92,133.25L484.64,135.01L485.61,137.04L485.59,138.93L484.44,140.76L484.79,142.26L483.83,143.21L483.81,144.53L481.73,145.71L482.49,146.67L482.16,147.72L480.79,148.49L479.5,150.8L476.97,150.41L476.46,151.18L477.11,153.42L475.91,153.16L476.52,155.94L477.86,156.85L477.58,158.26L478.69,159.71L479.95,160.5L482.77,161.01L483.79,160.55L485.11,158.49L486.76,156.95L490.08,159.66L489.08,160.79L488.81,161.36L487.88,162.26L486.34,163.39L484.39,164.39L481.25,165.59L480.65,166.03L479.93,167.4L479.58,168.69L479.22,171.06L478.54,172.96L478.38,174.11L474.93,174.7L472.59,172.38L468.34,172.02L466.64,172.49Z" class="land" id="IL-HA" title="H̱efa"/>
    <path d="M490.52,159.16L490.08,159.66L486.76,156.95L485.11,158.49L483.79,160.55L482.77,161.01L479.95,160.5L478.69,159.71L477.58,158.26L477.86,156.85L476.52,155.94L475.91,153.16L477.11,153.42L476.46,151.18L476.97,150.41L479.5,150.8L480.79,148.49L482.16,147.72L482.49,146.67L481.73,145.71L483.81,144.53L483.83,143.21L484.79,142.26L484.44,140.76L485.59,138.93L485.61,137.04L484.64,135.01L484.92,133.25L481.4,131.03L481.68,129.27L480.41,127.4L480.64,125.71L479.79,124.86L479.11,123.59L479.64,119.72L481.37,113.07L481.79,108.79L487.73,108.53L490.5,109.01L492.12,108.11L495.01,108.02L498.02,107.6L499.57,107.96L501.62,111.32L503.25,112.15L505.24,111.26L507.38,111.09L509.66,108.97L510.65,108.46L512.02,108.79L513.52,108.07L513.8,106.5L515.29,105.86L516.33,100.63L517.22,98.71L516.91,95.58L517.58,94.05L518.76,92.7L519.51,91.04L520.25,91.29L522.1,93.94L522.69,93.76L523.34,94.38L525.53,93.82L527.5,94.4L526.44,97.41L526.39,99.45L526.91,102.32L526.61,104.08L525.45,107.2L524.98,111.4L524.15,111.66L522.97,113.64L521.69,114.92L522.61,117.07L522.75,119.22L522.4,123.99L521.79,125.79L523.89,127.92L525.25,130.81L525.46,132.29L524.76,135.79L524.38,140.8L523.51,142.64L522.02,144.15L524.06,145.42L524.33,146.25L522.12,147.21L521.76,149.1L520.72,150.24L518.9,151.3L518.93,153.92L519.84,155.24L519.36,158.83L518.82,160.89L517.86,161.36L519.45,164.31L518.49,166.06L519.19,167.27L517.79,169.8L518.01,171.88L517.32,173.76L515.51,173.24L513.21,172.15L512.22,171.86L510.44,171.77L509.28,172.12L508.29,171.96L507.77,171.5L507.79,171.03L507.24,170.31L506.79,168.97L506.89,167.12L506.64,165.14L505.37,162.98L504.11,162.03L503.44,161.87L501.94,161.84L498.12,162.55L497.22,162.54L496.59,162.38L495.36,161.76L494.16,160.88L492.77,159.43L491.69,158.84L490.93,158.96Z" class="land" id="IL-Z" title="HaTsafon"/>
    <path d="M524.33,146.25L524.06,145.42L522.02,144.15L523.51,142.64L524.38,140.8L524.76,135.79L525.46,132.29L525.25,130.81L523.89,127.92L521.79,125.79L522.4,123.99L522.75,119.22L522.61,117.07L521.69,114.92L522.97,113.64L524.15,111.66L524.98,111.4L525.45,107.2L526.61,104.08L526.91,102.32L526.39,99.45L526.44,97.41L527.5,94.4L525.53,93.82L523.34,94.38L522.69,93.76L523.34,92.54L528.01,90.03L529.97,87.39L531.1,86.6L533.06,86.77L535.82,85.91L537.27,84.72L537.97,83.36L538.33,80.97L540.19,79.03L544.5,76.63L545.01,77.62L543.91,80.17L542.36,81.95L541.45,85.38L541.83,89.17L540.81,91.35L543.31,94.2L543.94,97.19L542.54,99.96L542.69,100.97L545,101.6L546.65,104L546.46,106.44L545.21,107.55L546.11,110.09L544.81,110.44L543.26,110.02L542.73,110.78L543.13,112.41L542.9,115.34L543.31,116.68L543.97,122.88L545.34,124.77L545.61,125.93L542.4,132.46L541.12,133.83L539.21,137.29L536.76,140.13L536.2,139.53L533.29,140.68L532.68,142.64L530.9,142.88L528.53,144.9L527.19,145.51L525.26,145.64Z" class="land" id="IL-GH" title="Golan Heights"/>
    <path d="M416.4,281.03L413.35,270.92L415.85,268.5L422.69,261.41L427.31,255.91L430.87,251.3L433.67,247.09L437.06,250.26L438.13,251.84L438.14,253.6L437.45,254.84L435.18,255.38L427.33,263.02L424.73,266.39L424.04,268.67L424.26,273.78L423.39,275.37L419.92,278.38Z" class="land" id="PS" title="State of Palestine"/>
  </g>
</svg>