<?xml version="1.0" encoding="UTF-8"?>
<svg xmlns="http://www.w3.org/2000/svg" width="960" height="514" viewBox="0 0 960 514" style="background-color:#000000">
  <!-- Created using SVG Map Generator: dojo.amcharts.com/svg-map-generator -->
  <style>
    .land { fill: #ffffff; stroke: #000000; stroke-width: 0.65; }
  </style>
  <g id="polygons">
    <path d="M615.76,29.14L619.07,26.53L619.13,25.81L616.74,21.92L615.06,20.72L614.21,19.29L615.04,16.18L616.72,15.73L618.35,14.3L621.7,17.55L624.05,18.61L625.43,20.18L628.46,19.61L628.66,19.09L630.79,18.72L630.49,19.77L631.12,20.58L634.32,21.85L636.09,21L638.06,19.32L640.6,15.77L640.71,12.89L639.04,9.51L639.7,7.14L638.88,5.4L638.33,2.63L639.57,0.06L641.37,-1.03L642.29,-1.09L644.77,-2.7L645.9,-5.01L646.4,-7.4L646.12,-11.25L645.97,-17.02L648.58,-21.61L648.84,-25.12L649.46,-28.04L649.09,-32.04L648.15,-36.74L644.44,-45.69L644.15,-48.32L645.2,-49.87L646.16,-52.26L645.65,-53.97L645.84,-55.53L647.39,-53.76L649.54,-54.1L651.18,-55.26L651.85,-57.69L652.92,-58.07L653.7,-56.71L654.91,-55.68L655.67,-53.88L658.5,-51.81L661.19,-47.99L664.3,-44.23L667.23,-41.19L669.62,-36.42L672,-32.35L673.51,-30.6L675.14,-29.23L678.11,-25.43L684.92,-20.04L686.84,-18.95L687.24,-17.79L688.77,-16.62L693.28,-14.24L697.23,-12.68L704.4,-10.61L707.06,-10.04L708.52,-10.18L708.62,-7.82L710.39,-5.33L714.3,-4.1L718.46,-3.84L720.54,-3.92L722.54,-4.91L724.37,-6.67L726.25,-9.02L729.44,-12.01L731.13,-13.06L731.94,-14.84L733.28,-16.26L734.23,-17.95L735.35,-15.59L734.9,-14L733.87,-12.13L732.77,-11L732.04,-8.06L729.92,-5.46L728.78,-2.86L728.65,-0.87L728,-0.03L728.22,1.95L729.86,5.1L731.67,7.51L732.25,9.01L732.86,12.3L734.15,15.08L732.3,14.74L734.47,17.21L737.58,17.97L742.16,13.68L746.16,13.93L744.51,15.65L742.39,16.02L740.11,17.28L739.13,20.87L736.68,20.37L733.37,20.99L731.54,22.09L730,21.83L729.24,23.67L727.13,26.6L725.89,27.2L723.57,27.07L722.48,26.11L722.24,24.64L721.35,24.76L720.4,25.85L719.87,27.37L721.27,28.76L718.82,28.62L717.42,28.19L713.05,28.17L712.21,27.98L710.29,26.43L706.57,27.09L703.61,28.53L699.47,31.63L693.04,38.07L691.1,40.48L688.07,45.18L686.21,49.23L685.87,51.27L686.54,52.64L685.55,57.78L684.44,59.65L684.29,61.63L679.94,57.06L674.03,54.6L671.25,53.19L668.47,51.3L664.17,49.15L661.28,47.11L659.04,44.6L658.09,44.12L655.12,43.46L652.42,40.95L650.2,39.49L647.98,38.84L645.57,38.76L643.87,39.05L641.2,40.07L638.66,41.65L635.4,44.43L633.46,45.52L630.87,48.52L630.46,49.43L629.15,48.93L627.38,44.3L625.11,42.44L624.97,41.73L623.42,40.23L621.9,40.12L620.38,40.77L619.2,40.05L617.73,40.08L615.68,42.29L613.92,45.66L613.05,48.77L613.4,51.15L616.22,52.62L618.87,55.09L620.48,55.67L622.15,55.01L624.65,55.39L626.14,58.1L628.13,59.6L629.45,61.89L633.28,63.56L634.86,65.58L633.01,66.13L631.68,67.73L629.65,68.54L628.61,67.57L627.07,66.95L623.86,66.24L622.89,64.96L621.35,65.46L620.82,67.51L619.07,68.81L617.5,68.93L616.79,70.4L616.95,73.55L616.22,74.74L615.07,74.78L612.68,75.85L611.58,78.16L609.86,77.56L608.47,77.83L607.07,76.46L606.06,73.62L605.95,72.57L606.45,70.4L608.09,66.69L608.09,65.4L609.37,64.78L609.75,61.48L609.26,59.05L607.77,56.5L606.13,55.01L604.54,54.86L603.88,53.25L602.84,52.17L601.45,51.67L600.74,49.08L601.12,47.71L602.28,46.44L602.68,45.28L602.71,42.03L602.1,39.95L603.23,37.53L604.6,36.78L607.39,36.7L608.14,35.58L609.82,34.69L610.87,32.34L612.56,34.22L613.64,33.94L613.76,32.23L614.76,31.21ZM631.85,-52.87L631.77,-51.04L631.03,-50.14L629.98,-53.18L630.25,-54.78L632.03,-54.68ZM633.72,-46.01L633.61,-47.52L635.17,-49.05L637.69,-47.57L638.32,-45.36L636.12,-43.54L634.44,-44.84ZM594.85,53.3L594.87,54.77L594.02,56.79L592.46,56.85L592.53,54.77L592.07,53.83L592.92,52.07L595.25,51.6Z" class="land" id="JP-01" title="Hokkaido"/>
    <path d="M646.87,108.74L644.59,110.16L644.46,111.18L643.38,112.02L641.86,111.08L641.03,111.19L638.94,112.53L638.11,111.21L635.72,113.04L633.86,113.5L633.14,114.72L630.64,116.09L629.42,115.13L629.23,114.7L629.85,112.03L630.35,111.71L630.02,109.46L627.42,109.74L627.42,107.28L626.11,107.45L625.82,108.77L624.96,108.65L621.94,110.24L620.66,109.2L619.44,110.23L618.04,108.78L617.06,108.78L616.74,107.75L615.14,107.88L614.53,109.11L613.48,108.89L611.84,109.36L610.85,109.02L609.05,109.18L608.12,108.18L607.18,108.61L606.86,109.68L604.86,109.38L605.18,107.21L604.95,105.44L604.39,104.38L603.22,104.45L603.04,103.45L605.21,101.71L606.45,99.51L607.99,98.66L609.49,99.51L611.23,98.2L612.22,98.08L613.44,95.43L613.98,92.92L614.06,88.27L613.22,87.36L614.12,86.54L614.61,82.93L615.94,83.77L616.76,84.99L618.35,85.2L619.57,83.96L620.9,84.43L621.85,85.7L621.56,88.08L622.04,91.17L622.93,95.18L624.46,96.76L625.68,96.5L627.13,94.93L627.13,92.72L627.53,90.95L629.35,91.62L630.85,93.45L631.97,94.01L632.61,95.08L633.57,95.31L634.7,94.3L635.4,93.01L636.1,90.74L636.38,87.75L637.1,86.35L636.22,83.84L634.93,82.35L634.21,82.45L633.18,84.43L631.8,85.42L629.94,84.91L629.13,85.7L626.91,86.12L625.88,87.18L624.74,86.61L625.1,83.19L625.59,80.99L626.1,80.19L626.48,77.94L628.24,75.12L628.32,73.78L630.42,75.71L632.03,75.84L633.11,76.46L635.02,78.87L636.8,79.91L637.89,80.04L640.06,79.05L641.03,79.91L639.77,85.93L639.86,87.98L639.65,92.16L639.85,95.24L640.33,98.96L641.49,103.8L643,106.06L644.54,106.43Z" class="land" id="JP-02" title="Aomori"/>
    <path d="M645.6,154.87L644.18,154.27L642.42,154.12L642.26,156.93L640.48,160.83L637.95,159.56L636.86,160.62L636.64,161.48L634.03,160.71L633.28,159.13L634,158.46L632.81,157.59L630.12,157.9L629.45,156.9L627.7,156.31L626.21,155.2L625.05,155.37L624.96,153.96L625.92,152.28L624.56,151.33L624.57,149.87L625.65,148.21L624.85,147.94L625.26,146.65L623.25,144.78L622.3,141.21L624.27,137.39L623.95,136.81L625.6,135.35L626.23,133.9L625.74,130.96L626.74,129.17L625.37,128.36L625.28,127.06L626.28,126.51L627.59,126.53L626.96,124.86L626.87,120.52L627.5,119.96L627.42,118.61L628.19,116.1L629.42,115.13L630.64,116.09L633.14,114.72L633.86,113.5L635.72,113.04L638.11,111.21L638.94,112.53L641.03,111.19L641.86,111.08L643.38,112.02L644.46,111.18L644.59,110.16L646.87,108.74L648.54,111.24L650.42,115.48L649.22,116.8L650.92,117.54L651.49,118.33L650.31,119.29L650.45,120.49L652.06,122.38L653.4,123.39L653.01,125.35L653.89,126.83L654.16,130.48L653.86,132.06L654.81,133.63L655.28,135.41L656.19,137.01L655.26,137.55L654.21,138.98L655.92,139.39L655.4,141.01L652.96,142.06L651.97,143.52L653.36,143.44L653.89,144.09L652.67,145.14L653.38,147.12L651.25,148.05L652.05,150.27L651.5,151.12L650.46,150.77L650.06,152.45L650.55,153.23L648.01,153.56L647.55,155.51Z" class="land" id="JP-03" title="Iwate"/>
    <path d="M628.77,187.98L627.04,188.09L627.08,190.75L625.34,190.77L623.9,191.29L622.79,189.76L623.01,188.36L621.33,187.45L618.4,187.82L617.66,186.45L616.27,185.6L614.89,186.3L613.2,185.49L613.13,183.07L615.22,183.05L616.43,182.38L616.65,181.12L618.01,179.19L617.72,177.69L617.92,176.45L619.2,174.82L619.15,173.81L620.34,172.69L621.09,170.74L619.79,168.28L620.22,166.83L619.5,165.5L620.89,165.2L621.41,163.79L621.14,162.6L621.97,161.25L620.96,160.7L620.73,159.4L619.72,157.72L622.19,157.5L624.19,155.59L625.05,155.37L626.21,155.2L627.7,156.31L629.45,156.9L630.12,157.9L632.81,157.59L634,158.46L633.28,159.13L634.03,160.71L636.64,161.48L636.86,160.62L637.95,159.56L640.48,160.83L642.26,156.93L642.42,154.12L644.18,154.27L645.6,154.87L646.08,157.02L644.71,157.45L644.6,159.49L642.94,160.52L642.75,161.19L643.99,162.02L641.83,163.87L641.56,164.84L643.16,165.22L643.02,166.05L641.6,167.49L643.66,168.62L643.31,169.78L642.3,169.12L642.3,171.14L641.74,172.65L642.6,172.96L643.44,175.16L642.73,176.29L640.42,174.1L641.43,173.28L640.77,172.5L639.71,172.94L639.18,172.16L637.66,171.96L635.76,172.51L634.24,173.54L632.98,172.89L631.9,173.41L631.45,174.81L632.47,175.72L630.94,176.63L629.46,179.29L628.86,181.07L628.37,185.59Z" class="land" id="JP-04" title="Miyagi"/>
    <path d="M604.86,109.38L606.86,109.68L607.18,108.61L608.12,108.18L609.05,109.18L610.85,109.02L611.84,109.36L613.48,108.89L614.53,109.11L615.14,107.88L616.74,107.75L617.06,108.78L618.04,108.78L619.44,110.23L620.66,109.2L621.94,110.24L624.96,108.65L625.82,108.77L626.11,107.45L627.42,107.28L627.42,109.74L630.02,109.46L630.35,111.71L629.85,112.03L629.23,114.7L629.42,115.13L628.19,116.1L627.42,118.61L627.5,119.96L626.87,120.52L626.96,124.86L627.59,126.53L626.28,126.51L625.28,127.06L625.37,128.36L626.74,129.17L625.74,130.96L626.23,133.9L625.6,135.35L623.95,136.81L624.27,137.39L622.3,141.21L623.25,144.78L625.26,146.65L624.85,147.94L625.65,148.21L624.57,149.87L624.56,151.33L625.92,152.28L624.96,153.96L625.05,155.37L624.19,155.59L622.19,157.5L619.72,157.72L617.56,156.52L616.85,154.33L615.56,154.23L615.13,153.28L613.81,153.61L610.05,152.46L608.22,151.38L607.97,149.94L606.32,150.8L603.26,150.3L604.09,148.5L603.82,147.36L604.72,145.01L605.58,144.88L606.72,141.95L607.71,136.83L607.92,134.16L607.81,131.74L606.97,128.37L605.29,126.38L605.9,125.39L606.8,125.68L607.53,126.76L608.16,121.59L607.74,120.68L606.44,120.14L605.24,121.67L604.5,124.2L605.16,124.71L605.06,126.26L604.15,125.91L602.84,126.4L603.04,127.44L600.2,126.99L599.3,125.08L599.04,123.49L600,123.36L601.55,124.21L603.08,123.43L604.17,122.17L605.22,120.25L606.2,117.32L606.92,113.65L606.96,111.6Z" class="land" id="JP-05" title="Akita"/>
    <path d="M613.2,185.49L612.83,187.58L612.88,190.04L613.55,190.53L611.93,192.5L610.34,192.19L608.91,192.73L607.65,191.5L606.14,192.06L604.96,190.01L603.79,190.53L603.05,190.06L601.91,190.77L601.14,189.93L600.18,190.16L599.63,189.21L598.29,188.99L597.49,187.57L598.21,183.69L599.05,183.07L598.62,182.14L599.03,181.14L598.84,179.54L599.47,178.53L601.39,178.8L603.07,177.75L604.02,175.8L602.62,174.3L600.37,173.71L599.4,172.33L599.88,169.89L597.78,169.13L595.57,167.96L595.53,167.55L597,164.19L599.12,162.34L600.29,160.93L601.18,158.68L602.03,155.13L602.64,154.24L603.48,151.01L603.26,150.3L606.32,150.8L607.97,149.94L608.22,151.38L610.05,152.46L613.81,153.61L615.13,153.28L615.56,154.23L616.85,154.33L617.56,156.52L619.72,157.72L620.73,159.4L620.96,160.7L621.97,161.25L621.14,162.6L621.41,163.79L620.89,165.2L619.5,165.5L620.22,166.83L619.79,168.28L621.09,170.74L620.34,172.69L619.15,173.81L619.2,174.82L617.92,176.45L617.72,177.69L618.01,179.19L616.65,181.12L616.43,182.38L615.22,183.05L613.13,183.07Z" class="land" id="JP-06" title="Yamagata"/>
    <path d="M625.44,219.24L623.55,218.81L621.25,217.97L620.7,218.87L619.34,219.47L617.86,221.2L615.66,219.98L615.25,218.56L614.25,218.26L613.33,217L612.65,216.96L612.26,215.12L611.25,214.13L611.14,213.2L608.94,211.42L605.54,210.45L603.26,210.63L602.37,211.16L602.15,212.27L598.74,213.33L595.29,215.63L593.64,215.93L592.78,217.18L591.63,217.71L588.18,216.63L588.6,213.53L588.09,211.83L588.52,210.26L587.95,209.12L586.4,207.94L587.59,206.23L588,203.35L587.18,202.66L587.87,201.54L589.25,201.48L591.17,200.89L592.2,201.01L592.39,199.73L593.45,199.49L595.91,199.85L596.15,197.58L595.68,195.42L597.54,194.15L598.25,192.25L600.18,190.16L601.14,189.93L601.91,190.77L603.05,190.06L603.79,190.53L604.96,190.01L606.14,192.06L607.65,191.5L608.91,192.73L610.34,192.19L611.93,192.5L613.55,190.53L612.88,190.04L612.83,187.58L613.2,185.49L614.89,186.3L616.27,185.6L617.66,186.45L618.4,187.82L621.33,187.45L623.01,188.36L622.79,189.76L623.9,191.29L625.34,190.77L627.08,190.75L627.04,188.09L628.77,187.98L629.23,189.55L630.1,190.07L630.16,191.64L630.69,192.56L631.04,197.78L631.36,199.94L631.36,204L631.04,205.16L630.37,210.87L629.44,215.85L627.36,217.31L626.25,217.59Z" class="land" id="JP-07" title="Fukushima"/>
    <path d="M627.31,253.19L624.27,251.31L623.44,249.8L621.41,249.12L620.02,247.93L618.91,247.97L617.59,247.34L615.15,247.97L614.1,248.98L613.12,248.7L610.11,249.56L609.4,248.68L606.4,247.62L604.92,246.57L603.35,244.48L601.11,242.07L600.15,242.38L599.1,239.98L599.31,238.89L600.2,238.81L602.2,237.75L602.88,235.68L604.26,236.02L604.41,234.94L606.45,233.98L608.89,233.22L609.39,232.65L610.92,233.1L611.35,231.42L612.48,229.15L612.45,226.93L611.76,224.54L613.26,223.81L612.61,222.2L612.88,220.61L612.54,219.4L612.65,216.96L613.33,217L614.25,218.26L615.25,218.56L615.66,219.98L617.86,221.2L619.34,219.47L620.7,218.87L621.25,217.97L623.55,218.81L625.44,219.24L625.49,219.26L625.52,219.28L624.36,221.45L622.93,226.34L622.08,227.77L621.13,230.54L621.05,232.81L621.33,234.07L619.82,236.23L619.93,238.27L621.02,242.28L622.56,245.85L624.16,248.43L624.28,249.01L626.26,252.05Z" class="land" id="JP-08" title="Ibaraki"/>
    <path d="M612.65,216.96L612.54,219.4L612.88,220.61L612.61,222.2L613.26,223.81L611.76,224.54L612.45,226.93L612.48,229.15L611.35,231.42L610.92,233.1L609.39,232.65L608.89,233.22L606.45,233.98L604.41,234.94L604.26,236.02L602.88,235.68L602.2,237.75L600.2,238.81L599.31,238.89L598.28,238.39L597.31,236.78L595.95,237L595.09,236.48L593.87,236.83L592.51,235.64L592.56,234.94L591.27,233.98L591.22,233.34L592.34,231.41L592.54,229.97L594.03,227.71L593.61,226.88L592.12,226.96L590.33,226.06L590.55,224.38L591.27,223.29L590.93,221.86L592.17,220.13L590.92,219.6L591.63,217.71L592.78,217.18L593.64,215.93L595.29,215.63L598.74,213.33L602.15,212.27L602.37,211.16L603.26,210.63L605.54,210.45L608.94,211.42L611.14,213.2L611.25,214.13L612.26,215.12Z" class="land" id="JP-09" title="Tochigi"/>
    <path d="M598.28,238.39L597.31,239.32L596.68,238.73L595.27,239.21L593.58,239.32L591.37,237.68L590.33,237.93L588.41,237.77L586.35,236.72L585.5,236.65L584,239.06L583.46,241.13L581.6,241.21L580.78,242.34L579.18,242.67L578.06,243.9L576.56,243.93L575.65,245.16L574.03,244.39L573.97,241.81L573.6,239.57L572.84,236.67L573.87,236.21L574.18,234.03L573.83,232.62L572.82,232.32L571.43,232.93L569.57,232.91L568.05,232.01L567.97,230.42L568.69,227.17L571.5,223.96L572.95,223.82L575.11,222.74L575.85,222.18L577.31,222.71L578.36,221.28L580.45,219.41L580.81,218.25L581.83,218.38L581.62,215.7L583.61,215.36L584.62,214.47L585.02,213.38L586.64,215.2L586.77,216.13L588.18,216.63L591.63,217.71L590.92,219.6L592.17,220.13L590.93,221.86L591.27,223.29L590.55,224.38L590.33,226.06L592.12,226.96L593.61,226.88L594.03,227.71L592.54,229.97L592.34,231.41L591.22,233.34L591.27,233.98L592.56,234.94L592.51,235.64L593.87,236.83L595.09,236.48L595.95,237L597.31,236.78Z" class="land" id="JP-10" title="Gunma"/>
    <path d="M605.12,254.66L604.7,253.73L603.39,250.96L604.08,249.01L602.04,245.06L601.97,243.79L601.11,242.07L603.35,244.48L604.92,246.57L606.4,247.62L609.4,248.68L610.11,249.56L613.12,248.7L614.1,248.98L615.15,247.97L617.59,247.34L618.91,247.97L620.02,247.93L621.41,249.12L623.44,249.8L624.27,251.31L627.31,253.19L624.41,253.96L623.44,253.69L621.47,254.51L619.21,256.46L617.51,258.38L616.15,261.03L615.78,262.81L615.9,264.6L616.37,265.38L615.63,268.87L614.81,269.04L614.23,270.29L612.03,270.8L609.42,270.87L608.43,272.21L606.03,273.88L604.98,276.81L603.71,277.33L602.64,277.24L602.06,276.19L600.61,275.6L602.78,274.8L602.86,273.68L602.04,272.44L602.04,268.82L603.16,267.94L602.79,265.91L601.88,265.35L602.7,263.33L603.86,263.84L603.97,262.39L604.48,261.42L606.2,260.88L607.84,258.39L608.58,257.74L608.37,256.78L605.96,254.3Z" class="land" id="JP-12" title="Chiba"/>
    <path d="M535.57,216.2L534.05,216.08L532.64,216.66L531.63,217.66L531.54,218.82L530.81,220.59L530.72,222.35L530.05,223.14L530.14,224.9L529.21,226.41L529.99,228.49L529.08,232.11L529.63,234.42L529.41,236.02L530.7,237.74L529.6,239.46L528.81,240.07L529.09,240.97L528.48,242.31L526.17,242.9L525.88,242.14L523.62,240.35L520.91,240.81L520.11,239.88L518.51,239.57L518.2,238.04L516.15,236.09L517.5,234.38L518.61,233.98L520.33,232.32L525.79,224.95L527.12,222.54L528.18,220.13L528.75,217.89L528.8,215.07L527.64,213.25L527.79,211.16L526.39,210.54L527.13,207.68L527.62,207.25L527.62,205.21L529.79,203.31L531.17,202.69L532.54,203.03L536.08,201.22L537.78,199.91L539.33,199.71L540.94,198.84L542.19,198.99L542.98,201.38L541.01,201.67L540.37,202.11L540.03,203.55L540.75,204.84L539.95,206.03L537.77,205.97L536.68,206.58L535.98,208.4L534.57,209.45L533.89,208.8L532.47,208.51L531.29,210.6L531.11,211.79L532.3,212.21L533.67,213.56L535.52,211.93Z" class="land" id="JP-17" title="Ishikawa"/>
    <path d="M516.15,236.09L518.2,238.04L518.51,239.57L520.11,239.88L520.91,240.81L523.62,240.35L525.88,242.14L526.17,242.9L528.48,242.31L527.83,245.06L528.38,246.16L529.97,247.75L530.34,249.24L529.36,250.76L527.73,250.73L527.32,251.14L524.06,251.56L523.07,251.3L520.73,251.63L519.54,251.06L518.2,251.7L518.19,252.89L516.99,254.9L513.97,253.91L513.98,255.11L514.6,256.89L514.44,257.81L513.09,257.42L512.67,258.72L511.09,258.88L509.98,260.07L509.04,259.13L508.49,260.19L508.22,261.81L507.08,262.86L505.85,262.36L504.78,264.01L503.12,264.33L501.28,263.6L499.17,263.37L499.01,262.3L497.41,260.82L497.77,259.59L497.13,259.07L497.63,257.97L498.7,258.19L498.45,259.52L499.09,259.98L501.81,260.3L503.43,260.16L504.31,258.75L506.31,258.54L506.87,257.04L509.68,255.99L509.73,253.9L509.2,253.07L510.71,251.86L511.19,252.59L510.91,254.34L512.08,254.87L512.66,253L512.69,251.44L512,250.06L510.15,248.2L510.25,246.85L509.28,245.39L510.57,243.84L510.99,242.02L512.01,240.88L513.55,238.24Z" class="land" id="JP-18" title="Fukui"/>
    <path d="M484.85,294.85L485.11,295.78L482.61,296.81L481.41,297.81L479.78,298.05L477.93,295.08L478.75,293.9L479.79,293.91L481.41,290.46L482.4,289.9L483.56,288.06L484.72,287.54L485.65,286.16L486.87,286.82L485.94,288.64L483.77,291.5L483.76,293.38ZM470.59,282.11L469.93,280.43L468.4,278.68L469.25,277.08L468.43,276.03L469.92,273.14L469.99,272L470.71,271.7L471.01,270.36L472.12,270.13L471.51,268.66L471.98,267.39L472.69,267.71L474.69,266.3L474.51,263.98L473.76,263.45L473.77,261.85L472.88,261.44L472.52,258.53L471.95,256.96L471.11,256.32L473.71,255.52L475.2,254.61L476.66,254.99L477.17,255.56L478.17,254.74L481.96,255.03L483.16,254.96L483.18,257.43L485.36,259.38L486.98,258.57L487.38,259.23L487.38,262.45L486.26,263.09L485.38,262.46L484.58,262.75L484.44,265.18L486.26,265.93L488.2,267.28L488.81,266.75L490.05,266.78L490.7,268.12L490.82,269.42L493.28,269.4L493.33,270.3L495.55,270.68L495.94,271.71L495.24,273.13L494.66,275.38L495,275.8L497.54,276.54L496.47,278.8L496.38,279.97L497.28,281.48L497.46,283.23L496.8,284.72L496.13,283.1L495.01,283.5L494.5,282.76L493.32,282.6L491.12,283.59L490.78,284.59L487.63,285.37L486.69,284.81L482.44,283.26L480.4,281.24L478.83,281.41L477.23,281.14L473.39,281.28L472.06,282.38Z" class="land" id="JP-28" title="Hyogo"/>
    <path d="M452.56,302.33L454.86,303.23L454.5,304.06L454.83,305.94L454.14,307.05L451.41,307.09L450.22,308.56L447.7,308.65L444.93,308.51L444.43,309.61L442.93,309.58L442.13,311.39L440.88,313.51L440.13,313.63L439.38,315.89L439.78,316.87L438.63,318.62L437.17,319.03L434.52,318.72L434.06,319.61L434.25,320.76L435.82,322.5L435.77,323.47L433.32,324.54L432.73,326.58L430.73,328.56L429.58,327.44L429.36,328.63L430.29,329.68L430.05,330.81L430.67,332.34L430.65,333.97L430.09,334.55L428.56,334.84L427.97,333.88L426.85,334.26L426.62,335.09L425.55,335.03L425.26,334.11L425.82,332L425.48,330.02L426.19,328.81L425.04,328.56L424.4,327.88L426.57,326.15L426,323L424.3,323.64L423.24,322.64L423.29,320.38L424.17,319.62L422.69,318.33L419.9,320.11L418.56,320.52L417.3,321.89L416.45,321.21L417.11,320.26L418.54,319.44L420.56,318.91L424.34,316.6L425.62,314.77L428.27,313.53L430.02,312.12L431.02,310.42L430.72,308.33L431.27,306.24L432.32,306.1L432.81,303.85L434.97,301.8L436.32,301.6L436.82,299.42L438.92,302.21L440.43,305.29L441.04,305.73L444.33,304.8L444.18,304.24L446.4,303.73L447.71,303.77L450.01,304.42L451.45,303.72Z" class="land" id="JP-38" title="Ehime"/>
    <path d="M394.56,315.12L394.74,316.55L393.77,317.92L390.9,317.56L389.77,317.85L387.81,319.54L387.44,321.57L386.63,322.77L386.98,323.93L386.18,325.04L386.44,326.49L387.4,327.07L386.88,329.08L386.45,329.38L384.59,328.74L383.77,328L382.22,328.18L381.95,329.32L380.12,329.11L378.15,330.94L378.52,331.96L377.41,332.35L375.76,332.15L376.34,330.81L375.96,329.83L374.64,328.13L374.85,326.62L375.57,325.35L379.06,322.59L379.09,319.83L377.69,319.88L376.48,321.04L375.72,320.16L374.78,319.96L372.71,318.65L370.66,318.97L367.03,318.9L367.22,318.06L369.18,317.67L369.83,316.89L369.37,316.04L369.89,314.28L371.83,313.66L371.74,314.63L374.46,315.23L375.72,314.64L377.44,310.15L376.89,309.71L377.79,307.82L378.73,306.72L379.98,307.05L382.08,306.43L382.95,305.28L384.29,305.84L384.84,305.42L387.02,305.9L387.55,306.61L388.45,306.28L388.84,305.33L390.26,304.4L390.68,305.19L389.87,306.43L390.07,307.61L389.11,308.47L390.58,310.24L390.85,311.96L392.55,314.54L393.24,314.19Z" class="land" id="JP-40" title="Fukuoka"/>
    <path d="M419.82,296.92L417.85,296.77L417.23,294.98L417.33,294.2L416.21,293.25L415.76,289.76L415.17,288.99L415.53,288.21L417.02,287.17L417.28,284.99L418.13,283.73L417.46,283.32L418.5,282.22L419.36,281.93L420.28,280.12L423.83,280.81L425.16,280.3L427.15,280.46L428.95,279.17L431.09,278.99L431.08,277.93L429.82,277.39L430.82,275.87L432.27,275.56L434.13,272.67L435.2,271.48L437.08,272.25L438.04,271.49L439.23,272.47L440.97,271.95L441.67,272.22L444.24,272.16L444.75,272.77L445.98,274.26L445.42,275.74L445.41,277.7L447.36,280.14L447,281.52L447.5,283.84L447.49,285.54L448.97,287.56L449.12,289.69L448.57,291.21L447.49,291.32L447.44,292.43L446.52,292.56L444.11,292.19L444.7,290.96L441.3,292.41L440.39,292.31L440.11,293.5L438.58,293.99L437.02,293.73L435.62,294.05L434.52,295.06L433.36,294.47L432.45,296.54L431.04,296.64L429.45,297.67L428.25,297.38L426.73,298.96L427.05,300.76L425.17,301.09L424.95,300.36L426.34,299.59L426.21,298.26L426.84,297.72L426.94,296.53L426.07,294.4L426.26,293.22L424.66,292.42L422.55,293.2L420.6,295.57Z" class="land" id="JP-34" title="Hiroshima"/>
    <path d="M472.91,297.51L472.2,298.96L468.55,298.3L466.47,298.52L465.56,299.23L465.24,300.17L463.72,300.34L462.95,301.11L461.72,301.45L460.67,300.26L457,301.3L454.86,303.23L452.56,302.33L453.4,301.71L453.79,297.94L451.95,296.46L452.41,295.95L454.35,296.93L455.02,296.73L457.61,294.41L459.48,293.58L459.7,292.41L462.24,293.27L464.2,293.36L465.51,291.89L466.16,292.36L466.15,293.99L467.29,293.47L468.65,293.74L468.38,295.22L471.24,296.23Z" class="land" id="JP-37" title="Kagawa"/>
    <path d="M580.43,262.65L580.93,261.26L584.54,259.33L585.55,257.84L585.37,254.98L585.58,254.64L587.62,255.44L588.34,256.65L589.39,256.45L592.04,257.32L594.06,259.6L594.19,256.65L595.12,255.54L598.38,257.09L599.37,258.67L600.22,258.43L600.73,259.32L598.91,260.28L598.94,261.46L597.92,263.13L598.25,264.75L597.83,265.61L599,266.56L599.95,266.56L599.78,268.14L598.12,268.92L598.63,270.28L596.99,270.25L597.17,268.8L596.07,265.74L592.97,264.98L588.37,265.76L585.98,267.34L585.64,269.05L585.01,270.33L583.16,270.07L582.15,268.57L581.85,266.72L582.88,264.77L582.28,262.6Z" class="land" id="JP-14" title="Kanagawa"/>
    <path d="M591.81,283.54L590.98,283.06L590.74,280.86L591.03,280.25L592.52,280.77L593.15,281.9L592.95,283.74ZM601.03,329.53L600.1,328.4L600.97,327.79L602.21,328.96L602.92,330.13L602.09,330.72ZM601.03,329.53L602.09,330.72L602.92,330.13L602.21,328.96L600.97,327.79L600.1,328.4ZM589.24,291.08L588.99,293.54L588.23,293.4L588.52,291.86ZM599.37,258.67L598.38,257.09L595.12,255.54L594.19,256.65L594.06,259.6L592.04,257.32L589.39,256.45L588.34,256.65L587.62,255.44L585.58,254.64L583.01,253.22L582.21,252.03L581.72,250.15L581.09,249.26L581.32,248.71L583,248L583.86,248.66L585.89,249.01L587.14,249.7L589.21,249.72L590.2,250.94L591.8,251.86L593.32,251.82L595.26,250.91L595.6,251.97L597.83,251.04L598.97,250.84L600.37,251.28L600.59,250.52L602.26,251.05L603.39,250.96L604.7,253.73L605.12,254.66L604.93,255.52L603.92,256.22L601.53,255.64L600.68,255.03L600.31,256.93L600.5,258.31Z" class="land" id="JP-13" title="Tokyo"/>
    <path d="M595.57,167.96L597.78,169.13L599.88,169.89L599.4,172.33L600.37,173.71L602.62,174.3L604.02,175.8L603.07,177.75L601.39,178.8L599.47,178.53L598.84,179.54L599.03,181.14L598.62,182.14L599.05,183.07L598.21,183.69L597.49,187.57L598.29,188.99L599.63,189.21L600.18,190.16L598.25,192.25L597.54,194.15L595.68,195.42L596.15,197.58L595.91,199.85L593.45,199.49L592.39,199.73L592.2,201.01L591.17,200.89L589.25,201.48L587.87,201.54L587.18,202.66L588,203.35L587.59,206.23L586.4,207.94L587.95,209.12L588.52,210.26L588.09,211.83L588.6,213.53L588.18,216.63L586.77,216.13L586.64,215.2L585.02,213.38L584.62,214.47L583.61,215.36L581.62,215.7L581.83,218.38L580.81,218.25L580.45,219.41L578.36,221.28L577.31,222.71L575.85,222.18L575.11,222.74L574.5,221.86L575.14,220.81L575.02,219.36L573.36,218.43L572.42,217.2L572.53,215.58L572.01,214.43L571.02,214.15L567.89,215.14L567.01,217.06L565.56,217.71L565.41,219.52L563.55,218.94L562.32,219.74L560.81,219.77L559.67,221.07L558.52,220.23L559.17,218.34L558.74,217.96L556.47,217.48L555.24,217.59L555.34,219.17L554.38,220.77L552.72,222.06L551.52,218.32L551.49,216.85L550.49,216.55L549.64,215.56L556.24,213.13L558.45,211.5L559.5,211.13L560.61,209.78L561.97,210.11L563.45,209.89L565.71,208.39L568.83,205.16L571.4,203.87L574.44,198.85L575.47,198.14L576.85,195.24L577.22,193.19L577.98,191.05L579.09,189.71L584.05,186.11L586.94,185.34L589.02,183.99L591.15,181.69L592.66,179.24L593.16,177.29L593.32,172.55ZM569.53,179.57L568.81,181.11L569.05,182.42L569.9,182.78L571.21,182.18L572.13,182.78L570.45,186.37L570.37,187.11L567.02,189.84L565.68,189.91L564.62,189.47L565.3,188.17L565.03,187.53L566.54,185.9L565.88,184.61L564.93,184.62L563.95,185.48L563.94,182.8L565.33,180.57L566.18,178.62L568.82,176.72L568.95,175.78L570.72,174.51L570.18,178.45Z" class="land" id="JP-15" title="Niigata"/>
    <path d="M549.64,215.56L550.49,216.55L551.49,216.85L551.52,218.32L552.72,222.06L552.44,223.41L552.67,224.98L552.47,227.17L551.04,228.03L550.08,230.38L549.59,232.3L548.49,233.35L547.36,233.27L546.7,232.47L545.46,232.67L544.09,232.24L543.74,231.29L542.1,232.27L541.07,231.08L539.29,231.92L537.85,231.68L535.78,233.89L535.48,235.3L533.79,236.78L533.27,234.86L531.41,233.94L530.48,234.63L530.13,235.93L529.41,236.02L529.63,234.42L529.08,232.11L529.99,228.49L529.21,226.41L530.14,224.9L530.05,223.14L530.72,222.35L530.81,220.59L531.54,218.82L531.63,217.66L532.64,216.66L534.05,216.08L535.57,216.2L533.97,218.66L534.61,219.99L536.51,221.53L538.77,222.27L539.96,222L542.33,222.11L543.76,220.74L544.19,219.51L544.15,218.02L544.61,217.16L546.24,216.29Z" class="land" id="JP-16" title="Toyama"/>
    <path d="M585.58,254.64L585.37,254.98L585.55,257.84L584.54,259.33L580.93,261.26L580.43,262.65L579.63,263.13L574.9,263.94L574.36,262.75L573.11,262.9L572.4,261.36L571.2,262.47L571.26,264.57L570.73,265.32L571.22,268.58L570.34,269.34L568.84,269.19L567.99,268.58L567.15,265.3L566.22,264.85L565.29,265.49L564.59,265.12L564.07,263.27L564.62,262.13L564.35,260.83L564.81,259.38L563.95,255.76L563.66,255.49L562.78,253.32L563.99,251.96L562.92,250.91L564.11,248.51L565.23,249.12L567.38,245.79L568.67,246.2L569.69,247.98L570.55,247.37L572.7,247.4L573.09,248.7L574.54,248.79L575.92,247.65L577.16,247.93L577.51,248.71L578.92,248.95L579.77,249.61L581.09,249.26L581.72,250.15L582.21,252.03L583.01,253.22Z" class="land" id="JP-19" title="Yamanashi"/>
    <path d="M575.92,247.65L576.16,247L575.65,245.16L576.56,243.93L578.06,243.9L579.18,242.67L580.78,242.34L581.6,241.21L583.46,241.13L584,239.06L585.5,236.65L586.35,236.72L588.41,237.77L590.33,237.93L591.37,237.68L593.58,239.32L595.27,239.21L596.68,238.73L597.31,239.32L598.28,238.39L599.31,238.89L599.1,239.98L600.15,242.38L601.11,242.07L601.97,243.79L602.04,245.06L604.08,249.01L603.39,250.96L602.26,251.05L600.59,250.52L600.37,251.28L598.97,250.84L597.83,251.04L595.6,251.97L595.26,250.91L593.32,251.82L591.8,251.86L590.2,250.94L589.21,249.72L587.14,249.7L585.89,249.01L583.86,248.66L583,248L581.32,248.71L581.09,249.26L579.77,249.61L578.92,248.95L577.51,248.71L577.16,247.93Z" class="land" id="JP-11" title="Saitama"/>
    <path d="M547.89,266.02L548.9,264.57L548.59,263.01L549.64,262.66L548.82,261.17L549.57,260.61L549.57,259.49L548.87,258.83L547.82,259.26L547.2,258.54L547.28,257.2L546.8,256.29L547.33,255.08L546.37,254.22L545.4,252.03L542.57,250.94L542.35,249.8L543.07,249.49L543.5,248.19L544.9,247.77L545.81,248.09L547.44,245.54L548.65,244.61L549.14,242.69L547.7,241.77L547.71,240.78L548.63,239.91L548.21,238.6L549.48,236.71L550.02,235.42L548.49,233.35L549.59,232.3L550.08,230.38L551.04,228.03L552.47,227.17L552.67,224.98L552.44,223.41L552.72,222.06L554.38,220.77L555.34,219.17L555.24,217.59L556.47,217.48L558.74,217.96L559.17,218.34L558.52,220.23L559.67,221.07L560.81,219.77L562.32,219.74L563.55,218.94L565.41,219.52L565.56,217.71L567.01,217.06L567.89,215.14L571.02,214.15L572.01,214.43L572.53,215.58L572.42,217.2L573.36,218.43L575.02,219.36L575.14,220.81L574.5,221.86L575.11,222.74L572.95,223.82L571.5,223.96L568.69,227.17L567.97,230.42L568.05,232.01L569.57,232.91L571.43,232.93L572.82,232.32L573.83,232.62L574.18,234.03L573.87,236.21L572.84,236.67L573.6,239.57L573.97,241.81L574.03,244.39L575.65,245.16L576.16,247L575.92,247.65L574.54,248.79L573.09,248.7L572.7,247.4L570.55,247.37L569.69,247.98L568.67,246.2L567.38,245.79L565.23,249.12L564.11,248.51L562.92,250.91L563.99,251.96L562.78,253.32L563.66,255.49L562.95,257.49L561.83,258.12L562.26,260.09L561.34,261.86L561.99,262.68L561.82,263.56L559.81,264.33L557.51,266.12L555.9,266.89L555.34,268.04L554.04,268.16L553.01,268.49L551.73,267.69L550.33,267.78L548.28,268.65L547.51,267.03Z" class="land" id="JP-20" title="Nagano"/>
    <path d="M520.33,268.06L519.85,266.95L520.27,265.18L520.31,263.53L520.99,263L520.34,261.96L520.45,260.74L519.68,259.95L519.52,258.62L517.97,258.25L518.11,256.29L517.31,256.2L516.99,254.9L518.19,252.89L518.2,251.7L519.54,251.06L520.73,251.63L523.07,251.3L524.06,251.56L527.32,251.14L527.73,250.73L529.36,250.76L530.34,249.24L529.97,247.75L528.38,246.16L527.83,245.06L528.48,242.31L529.09,240.97L528.81,240.07L529.6,239.46L530.7,237.74L529.41,236.02L530.13,235.93L530.48,234.63L531.41,233.94L533.27,234.86L533.79,236.78L535.48,235.3L535.78,233.89L537.85,231.68L539.29,231.92L541.07,231.08L542.1,232.27L543.74,231.29L544.09,232.24L545.46,232.67L546.7,232.47L547.36,233.27L548.49,233.35L550.02,235.42L549.48,236.71L548.21,238.6L548.63,239.91L547.71,240.78L547.7,241.77L549.14,242.69L548.65,244.61L547.44,245.54L545.81,248.09L544.9,247.77L543.5,248.19L543.07,249.49L542.35,249.8L542.57,250.94L545.4,252.03L546.37,254.22L547.33,255.08L546.8,256.29L547.28,257.2L547.2,258.54L547.82,259.26L548.87,258.83L549.57,259.49L549.57,260.61L548.82,261.17L549.64,262.66L548.59,263.01L548.9,264.57L547.89,266.02L544.81,267.83L543.63,266.84L541.78,265.91L541.01,265.92L539.89,266.82L538.86,267.03L538.46,266.3L535.99,265.36L535.54,263.72L533.96,262.42L532.31,263.35L530.29,263.96L528.73,263.77L527.79,265.78L526.68,267.42L526.41,270.1L525.1,269.95L523.03,266.9Z" class="land" id="JP-21" title="Gifu"/>
    <path d="M546.05,283.89L545.85,281.05L546.56,279.31L549.73,277.66L551.29,275.31L551.32,274.01L552.78,272.33L554.2,269.7L554.04,268.16L555.34,268.04L555.9,266.89L557.51,266.12L559.81,264.33L561.82,263.56L561.99,262.68L561.34,261.86L562.26,260.09L561.83,258.12L562.95,257.49L563.66,255.49L563.95,255.76L564.81,259.38L564.35,260.83L564.62,262.13L564.07,263.27L564.59,265.12L565.29,265.49L566.22,264.85L567.15,265.3L567.99,268.58L568.84,269.19L570.34,269.34L571.22,268.58L570.73,265.32L571.26,264.57L571.2,262.47L572.4,261.36L573.11,262.9L574.36,262.75L574.9,263.94L579.63,263.13L580.43,262.65L582.28,262.6L582.88,264.77L581.85,266.72L582.15,268.57L583.16,270.07L585.01,270.33L584.2,271.51L584.02,272.75L584.8,273.06L584.63,274.68L585.89,275.7L585.75,277.57L584.73,278.55L583.79,280.66L582.49,281.62L581.7,283.45L580.18,285.15L578.65,286.06L577.1,284.97L577.14,284.29L576.1,282.44L576.97,281.19L576.45,278.28L577.32,277.04L576.65,275.16L577.25,273.66L579.76,273.86L580.08,272.98L577.91,271.04L575.09,270.41L571.75,271.41L570.65,273.33L570.87,274.68L569.68,275.54L567.13,276.72L566.15,278.35L566.37,279.59L565.53,281.09L563.68,282.49L563.02,284.18L562.96,286.05L560.21,284.81L558.39,284.26L555.88,284.18L553.64,284.73L550.39,283.98L548.63,283.79Z" class="land" id="JP-22" title="Shizuoka"/>
    <path d="M527.98,273.51L526.8,271.59L526.41,270.1L526.68,267.42L527.79,265.78L528.73,263.77L530.29,263.96L532.31,263.35L533.96,262.42L535.54,263.72L535.99,265.36L538.46,266.3L538.86,267.03L539.89,266.82L541.01,265.92L541.78,265.91L543.63,266.84L544.81,267.83L547.89,266.02L547.51,267.03L548.28,268.65L550.33,267.78L551.73,267.69L553.01,268.49L554.04,268.16L554.2,269.7L552.78,272.33L551.32,274.01L551.29,275.31L549.73,277.66L546.56,279.31L545.85,281.05L546.05,283.89L541.89,284.86L537.71,286.37L534.92,286.45L535.89,284.35L536.79,285.12L537.5,284.94L540.72,283.23L541.15,282.25L542,282.19L542.26,280.8L541.57,279.94L539.5,279.55L538.58,281.25L537.58,280.55L534.98,280.86L532.59,278.34L532.26,281.06L533.5,282.19L533.69,283.27L531.63,282.54L530.5,281.24L531.11,279.08L530.07,277.36L530.2,275.57L530.82,274.3L530.46,273.5L529.37,273.94Z" class="land" id="JP-23" title="Aichi"/>
    <path d="M510.54,311.57L509.3,311.48L506.9,308.86L506.98,306.51L508.33,304.41L509.8,303.93L510.81,302.56L512.78,302.88L513.05,298.77L512.6,297.94L513.49,296.27L512.64,294.86L512.97,294.04L512.04,292.15L512.66,290.98L515.31,290.59L515.79,289.43L515.44,288.26L514.64,288.58L514.07,287.35L513.08,287.68L511.49,286.56L512.42,283.97L511.44,282.05L510.9,280.57L512.53,279.9L512.46,279.27L514.66,277.79L516.29,278.6L519.14,277.22L519.39,276.09L520.35,274.74L520.4,273.06L520.84,272.14L521.27,269.68L520.27,268.72L520.33,268.06L523.03,266.9L525.1,269.95L526.41,270.1L526.8,271.59L527.98,273.51L525.94,274.6L525.5,275.85L525.82,277.21L524.63,279.38L523.47,280.82L522.78,282.81L523.68,283.97L523.21,285.6L525.77,286.35L526.11,287.18L527.67,287.76L528.98,288.75L530.42,288.78L531.32,290.42L532.52,290.62L532.61,291.52L531.36,292.74L531.72,294.37L531.17,295.93L529.98,296.26L528.67,295.99L528.66,295.04L527.68,294.7L526.94,293.42L526.14,295.14L524.8,296.04L523.68,295.26L522.44,295.43L522.78,296.58L521.86,297.15L520.6,297.14L517.62,298.28L516.94,299.53L517.88,300.2L517.45,301.04L515.98,301.02L516.17,302.41L517.05,302.86L516.84,304.34L516.04,304.45L515.09,305.83L513.94,306.05L512.7,306.82L511.41,309.12Z" class="land" id="JP-24" title="Mie"/>
    <path d="M520.33,268.06L520.27,268.72L521.27,269.68L520.84,272.14L520.4,273.06L520.35,274.74L519.39,276.09L519.14,277.22L516.29,278.6L514.66,277.79L512.46,279.27L512.53,279.9L510.9,280.57L510.29,279.02L509.06,278.81L507.15,277.63L507.43,276.31L506.36,274.46L505.99,273.03L506.84,270.02L506.26,268.01L506.73,266.25L504.78,264.01L505.85,262.36L507.08,262.86L508.22,261.81L508.49,260.19L509.04,259.13L509.98,260.07L511.09,258.88L512.67,258.72L513.09,257.42L514.44,257.81L514.6,256.89L513.98,255.11L513.97,253.91L516.99,254.9L517.31,256.2L518.11,256.29L517.97,258.25L519.52,258.62L519.68,259.95L520.45,260.74L520.34,261.96L520.99,263L520.31,263.53L520.27,265.18L519.85,266.95Z" class="land" id="JP-25" title="Shiga"/>
    <path d="M495.24,273.13L495.94,271.71L495.55,270.68L493.33,270.3L493.28,269.4L490.82,269.42L490.7,268.12L490.05,266.78L488.81,266.75L488.2,267.28L486.26,265.93L484.44,265.18L484.58,262.75L485.38,262.46L486.26,263.09L487.38,262.45L487.38,259.23L486.98,258.57L485.36,259.38L483.18,257.43L483.16,254.96L484.65,255.29L485.92,253.97L486.91,254.05L489.25,252.4L491.56,251.67L492.86,252.5L493.46,254.36L492.7,254.73L491.97,257.26L492.09,258.56L493.18,259.19L494.24,259.19L494.01,260.36L495.89,259.64L494.4,258.96L495.38,257.84L497.63,257.97L497.13,259.07L497.77,259.59L497.41,260.82L499.01,262.3L499.17,263.37L501.28,263.6L503.12,264.33L504.78,264.01L506.73,266.25L506.26,268.01L506.84,270.02L505.99,273.03L506.36,274.46L507.43,276.31L507.15,277.63L509.06,278.81L510.29,279.02L510.9,280.57L511.44,282.05L511.03,282.97L509.73,282.05L508.52,282.03L507.71,282.98L506.83,283.08L504.49,282.44L503.85,280.95L504.2,280.19L502.95,278.77L502.58,277.47L500.15,275.28L499.33,276.95L497.94,275L496.91,274.24L495.47,274.03Z" class="land" id="JP-26" title="Kyoto"/>
    <path d="M496.8,284.72L497.46,283.23L497.28,281.48L496.38,279.97L496.47,278.8L497.54,276.54L495,275.8L494.66,275.38L495.24,273.13L495.47,274.03L496.91,274.24L497.94,275L499.33,276.95L500.15,275.28L502.58,277.47L502.95,278.77L504.2,280.19L503.85,280.95L502.62,283.82L501.99,285.97L502.71,286.61L502.02,287.71L502.66,289.25L502.53,292.03L501.78,292.48L500.2,292.7L498.74,293.68L496.76,293.51L493.69,294.49L492.27,294.52L490.77,295.49L488.98,295.67L488.49,294.48L491.62,293.44L493.87,291.39L495.54,289.01L496.45,288.29L496.08,286.14Z" class="land" id="JP-27" title="Osaka"/>
    <path d="M511.44,282.05L512.42,283.97L511.49,286.56L513.08,287.68L514.07,287.35L514.64,288.58L515.44,288.26L515.79,289.43L515.31,290.59L512.66,290.98L512.04,292.15L512.97,294.04L512.64,294.86L513.49,296.27L512.6,297.94L513.05,298.77L512.78,302.88L510.81,302.56L509.8,303.93L508.33,304.41L506.98,306.51L504.53,306.93L503.73,306.43L502.45,306.51L501.52,307.25L500.8,306.39L501.67,304.15L500.62,303.27L500.7,302.63L499.3,301.45L499.46,300.79L501.28,299.02L501.57,297.69L502.39,297.11L503.38,297.56L503.6,296.03L502.51,295.42L502.27,293.31L501.78,292.48L502.53,292.03L502.66,289.25L502.02,287.71L502.71,286.61L501.99,285.97L502.62,283.82L503.85,280.95L504.49,282.44L506.83,283.08L507.71,282.98L508.52,282.03L509.73,282.05L511.03,282.97Z" class="land" id="JP-29" title="Nara"/>
    <path d="M488.49,294.48L488.98,295.67L490.77,295.49L492.27,294.52L493.69,294.49L496.76,293.51L498.74,293.68L500.2,292.7L501.78,292.48L502.27,293.31L502.51,295.42L503.6,296.03L503.38,297.56L502.39,297.11L501.57,297.69L501.28,299.02L499.46,300.79L499.3,301.45L500.7,302.63L500.62,303.27L501.67,304.15L500.8,306.39L501.52,307.25L502.45,306.51L503.73,306.43L504.53,306.93L506.98,306.51L506.9,308.86L509.3,311.48L510.54,311.57L510.02,313.29L509.37,313.53L508.5,314.88L509.38,315.23L508.18,316.55L504.68,318.49L503.71,318.63L501.41,317.71L498.55,317.25L496.09,315.77L495.59,314.86L495.77,313.89L494.56,313.42L495.77,312.11L493.97,310.29L490.78,308.81L489.95,307.08L489.02,306.61L487.67,307.01L488.29,303.79L489.83,303.37L490.43,302.6L489.54,301.67L488.17,301.36L489.28,299.56L490.34,299.65L490.55,298.31L489.63,298.07L489.11,296.58L488.03,295.51Z" class="land" id="JP-30" title="Wakayama"/>
    <path d="M446.07,260.69L447.85,261.05L450.19,259.19L452.39,258.72L454.14,259.43L456.34,259.64L460.45,259.36L461.27,258.91L462.97,259.12L465.23,258.87L468.61,257.97L469.3,257.03L471.11,256.32L471.95,256.96L472.52,258.53L472.88,261.44L473.77,261.85L473.76,263.45L474.51,263.98L474.69,266.3L472.69,267.71L471.98,267.39L471.61,267.11L469.91,268.52L468.67,268.34L466.96,269.06L465.76,266.72L464.65,265.48L463.51,265.69L462.31,265.23L462.49,264.14L460.67,264.66L460.63,265.25L459.22,265.85L458.17,267.13L457.54,266.02L456.23,265.11L454.68,265.1L452.61,264.33L451.66,267.3L450.49,267.61L450.49,268.81L449.02,269.41L447.74,269.48L448.14,270.93L445.94,271.71L445.25,271.61L444.75,272.77L444.24,272.16L441.67,272.22L441.87,270.33L442.96,269.48L442.6,267.61L445.7,266.44L445.36,264.44L445.88,263.68Z" class="land" id="JP-31" title="Tottori"/>
    <path d="M387.59,198.61L388.08,200.23L387.15,201.3L385.58,200.65L385.17,199.47ZM441.47,242.31L440.53,243.16L439.75,241.84L440.91,241.27ZM446.07,260.69L445.88,263.68L445.36,264.44L445.7,266.44L442.6,267.61L442.96,269.48L441.87,270.33L441.67,272.22L440.97,271.95L439.23,272.47L438.04,271.49L437.08,272.25L435.2,271.48L434.13,272.67L432.27,275.56L430.82,275.87L429.82,277.39L431.08,277.93L431.09,278.99L428.95,279.17L427.15,280.46L425.16,280.3L423.83,280.81L420.28,280.12L419.36,281.93L418.5,282.22L417.46,283.32L418.13,283.73L417.28,284.99L417.02,287.17L415.53,288.21L415.17,288.99L415.76,289.76L414.77,290.31L414,291.57L414.53,292.66L413.17,294.61L412.32,293.84L411.18,294.69L409.9,294.81L408.84,293.76L408.64,292.44L409.29,290.93L407.01,290.98L406.27,288.97L407.08,288.19L407.45,285.98L406.91,285.39L406.61,283.87L408.02,283.9L409.85,283.35L411.47,281.49L412.85,280.49L415.57,277.63L416.23,276.4L418.57,274.7L419.72,273.48L421.62,272.71L422.28,271.39L423.47,270.61L424.18,268.96L427.25,266.76L428.98,266.1L430.16,264.52L430.32,262.55L429.26,261.62L433.71,259.75L436.3,259.13L437.44,258.38L438.87,258.53L439.37,257.36L440.5,256.57L441.61,257.87L443.42,257.27L445.23,257.37L444.08,258.65L444.68,259.86ZM443.69,239.25L442.62,238.56L442.56,236.29L443.62,235.08L444.94,234.7L445.91,235.1L447.48,236.89L447.11,238.72L446.43,239.79L443.93,239.94ZM440.09,240.61L439.17,241.69L439.3,243.08L437.64,242.36L438.54,241.36Z" class="land" id="JP-32" title="Shimane"/>
    <path d="M469.37,290.45L468.06,290.16L467.32,289.52L465.89,290.13L466.19,288.78L470.13,287.13L470.89,288.12L470.74,289.66ZM449.12,289.69L448.97,287.56L447.49,285.54L447.5,283.84L447,281.52L447.36,280.14L445.41,277.7L445.42,275.74L445.98,274.26L444.75,272.77L445.25,271.61L445.94,271.71L448.14,270.93L447.74,269.48L449.02,269.41L450.49,268.81L450.49,267.61L451.66,267.3L452.61,264.33L454.68,265.1L456.23,265.11L457.54,266.02L458.17,267.13L459.22,265.85L460.63,265.25L460.67,264.66L462.49,264.14L462.31,265.23L463.51,265.69L464.65,265.48L465.76,266.72L466.96,269.06L468.67,268.34L469.91,268.52L471.61,267.11L471.98,267.39L471.51,268.66L472.12,270.13L471.01,270.36L470.71,271.7L469.99,272L469.92,273.14L468.43,276.03L469.25,277.08L468.4,278.68L469.93,280.43L470.59,282.11L468.91,282.17L466.77,284.59L466.32,285.68L465.12,286.4L463.57,286.47L461.25,288.32L460.32,290.45L458.28,289.75L457.64,290.17L455.4,289.74L454.65,288.78L453.78,288.86L452.66,289.79L449.95,290.72Z" class="land" id="JP-33" title="Okayama"/>
    <path d="M420.87,307.27L418.99,307.28L418.37,305.62L419.8,304.47L421.46,305.85L422.89,306.5L423.13,307.52ZM406.61,283.87L406.91,285.39L407.45,285.98L407.08,288.19L406.27,288.97L407.01,290.98L409.29,290.93L408.64,292.44L408.84,293.76L409.9,294.81L411.18,294.69L412.32,293.84L413.17,294.61L414.53,292.66L414,291.57L414.77,290.31L415.76,289.76L416.21,293.25L417.33,294.2L417.23,294.98L417.85,296.77L419.82,296.92L420.21,298.73L419.01,299.85L419.37,302.08L419.31,303.47L418.61,304.65L417.28,304.79L417.29,306.78L415.26,306.17L414.81,306.38L410.41,302.99L409.8,304.4L408.69,304.16L410.05,302.71L407.89,301.75L403.95,303.03L403.12,303.61L401.68,302.34L401.26,303.42L399.37,302.9L398.7,304.51L396.61,305.77L393.96,304.81L394.05,303.85L392.12,302.54L390.89,302.39L390.07,303.83L388.64,305.03L388.16,304.23L388.11,302.17L386.82,300.31L387.88,299.4L388.56,298.04L388.27,296.56L387.33,294.93L387.8,293.25L389.34,293.19L390.66,292.15L390.27,291.46L392.58,291.36L393.91,292.72L395.33,292.75L397.52,292.4L399.51,291.43L401.28,289.37L401.37,287.88L402.23,288.05L403.49,286.66L404.86,284.12L406.04,284.47Z" class="land" id="JP-35" title="Yamaguchi"/>
    <path d="M469.58,316.59L467,316.32L466.05,314.86L466.52,312.92L465.27,312.42L463.83,312.57L463.71,310.13L463.1,309.14L461.23,308.52L460.19,309.63L459.23,309.23L458.44,308.13L456.23,308.34L454.6,307.7L454.14,307.05L454.83,305.94L454.5,304.06L454.86,303.23L457,301.3L460.67,300.26L461.72,301.45L462.95,301.11L463.72,300.34L465.24,300.17L465.56,299.23L466.47,298.52L468.55,298.3L472.2,298.96L472.91,297.51L476.34,296.55L476.34,297.7L477.26,298.29L476.38,301.92L476.49,303.26L478.99,304.96L479.04,306.25L477.46,307.4L480.26,308.36L477.71,309.61L476.06,310.65L475.85,311.27L472.87,313.24L471.93,313.36L471.32,314.14L470.97,315.67L469.88,315.62Z" class="land" id="JP-36" title="Tokushima"/>
    <path d="M430.09,334.55L430.65,333.97L430.67,332.34L430.05,330.81L430.29,329.68L429.36,328.63L429.58,327.44L430.73,328.56L432.73,326.58L433.32,324.54L435.77,323.47L435.82,322.5L434.25,320.76L434.06,319.61L434.52,318.72L437.17,319.03L438.63,318.62L439.78,316.87L439.38,315.89L440.13,313.63L440.88,313.51L442.13,311.39L442.93,309.58L444.43,309.61L444.93,308.51L447.7,308.65L450.22,308.56L451.41,307.09L454.14,307.05L454.6,307.7L456.23,308.34L458.44,308.13L459.23,309.23L460.19,309.63L461.23,308.52L463.1,309.14L463.71,310.13L463.83,312.57L465.27,312.42L466.52,312.92L466.05,314.86L467,316.32L469.58,316.59L467.29,320.97L466.7,324.91L463.51,321.74L462.98,320.48L461.26,319.64L460.64,318.32L459.54,317.93L456.71,317.59L456.16,316.92L454.63,317L452.32,317.53L452.02,318.11L449.19,319.54L449.21,320.33L447.14,320.8L444.45,321.8L444.56,324.96L444.38,325.87L442.3,328.02L441.65,329.54L440.55,330.94L438.57,331.76L438.03,333.71L438.45,335.73L437.06,336.32L437.04,337.67L438.29,338.43L438.65,339.15L438.31,340.31L436.26,338.47L434.9,338.33L433.42,339.6L431.26,338.1L430.6,338.61L429.22,338.15L431.4,334.94Z" class="land" id="JP-39" title="Kochi"/>
    <path d="M359.48,311.9L358.73,311.86L358.26,310.51L357.55,310.22L359.02,307.48L360.69,308.1L360.37,309.14L361.28,310.37L361.07,311.03L359.74,311.09ZM367.03,318.9L370.66,318.97L372.71,318.65L374.78,319.96L375.72,320.16L376.48,321.04L377.69,319.88L379.09,319.83L379.06,322.59L375.57,325.35L374.85,326.62L374.64,328.13L373.05,328.11L371.5,327.58L369.75,329.11L369.64,330.25L370.22,330.87L371.41,333.68L371.03,333.63L367.61,332.8L365.72,330.77L364.32,329.84L365.14,328.76L364.71,327.69L363.46,327.81L361.77,327.11L361.74,325.57L360.46,323.88L361.18,322.66L362.22,322.73L362.96,321.62L362.92,320.8L360.9,319.38L362.01,317.44L363.61,316.55L365.38,317.7L364.61,318.61L365.36,319.27L366.75,319.5Z" class="land" id="JP-41" title="Saga"/>
    <path d="M338.3,339.74L338.47,341.2L339.52,342.61L337.76,342.74L336.58,342.5L335.75,343.58L333.8,344.05L332.45,343.43L334.21,342.29L333.67,341.48L333.47,339.15L334.05,338.49L335.09,339.49L337.53,338.68ZM361.18,322.66L360.46,323.88L361.74,325.57L361.77,327.11L363.46,327.81L364.71,327.69L365.14,328.76L364.32,329.84L365.72,330.77L367.61,332.8L371.03,333.63L370.97,334.36L369.16,335.65L370.2,336.83L372.89,335.81L374.12,336.27L375.2,338.36L375.21,339.71L374.46,340.68L374.49,341.67L372.53,342.41L371.72,343.44L370.2,343.19L369.22,342.59L369.32,341.53L371.04,340.15L370.47,338.24L368.2,338.2L366.87,339.07L365.01,338.96L364.78,340.17L363.64,342L360.86,343.67L362.03,340.7L362.01,339.65L361.14,339.07L360.74,337.51L359.84,337.9L358.74,336.83L358.01,334.68L357.24,333.67L358,330.14L358.93,329.72L360.47,331.72L361.88,332.84L361.72,334.48L361.05,336.16L362.49,337.16L363.66,335.77L365.65,337.03L365.63,336.11L364.48,334.52L364.82,331.91L362.78,330.42L360.88,330.56L359.87,330.08L359.61,327.83L357.38,327.55L356.95,326.72L355.39,326.13L355.54,325.03L356.26,324.52L355.94,322.78L356.43,321.38L357.14,321.95L358.16,321.86L359.31,322.36L361.12,321.79ZM350.05,293.99L349.79,293.47L347.74,293.29L348.54,292.33L348.7,289.89L349.99,287.51L349.01,286.93L349.82,284.63L351.58,284.55L352.06,283.38L352.92,282.95L354.09,284.04L353.42,285.83L353.51,287.35L352.59,288.82L351.01,290.33L351.71,291.52L351.39,292.89L351.88,293.78L351.57,294.92L350.75,295.68L350.01,295.52L348.9,299.76L347.22,301.1L346.11,300.55L346.76,295.55ZM345.52,323.85L344.9,325.32L343.78,324.56ZM338.72,336.8L339.73,337.45L339.22,339.11L338.3,338.51L338.2,336.95ZM354.69,321.45L355.8,322.09L353.26,326.21L351.58,327.36L351.24,325.91L352.36,325.28L351.81,324.55L352.75,323.01ZM344.61,330.94L344.24,332.84L346.1,332.08L346.46,333.17L344.44,334.77L344.54,336.34L343.7,336.27L342.96,333.91L343.11,331.55ZM342.3,336.34L341.49,335.86L341.56,334.68L342.9,335.28ZM340.66,338.06L339.42,335.85L340.88,335.97L341.26,336.57Z" class="land" id="JP-42" title="Nagasaki"/>
    <path d="M376.95,345.04L376.3,345.37L375.58,344.11L376.76,343.03L377.17,344.1ZM383.68,358.03L383.06,357.92L381.15,356.48L378.89,357.04L377.88,357.03L377.14,357.71L375.87,357.52L374.83,356.44L375.04,355.12L376.32,353.74L377.83,350.51L379.85,348.46L379.71,347.29L380.14,346.47L379.7,345.44L380.52,344.2L381.84,342.98L377.2,343.27L377.21,342.8L380.53,340.56L380.78,338.27L379.74,336.85L378.8,336.63L378.64,335.72L376.85,334.89L376.46,332.75L375.76,332.15L377.41,332.35L378.52,331.96L378.15,330.94L380.12,329.11L381.95,329.32L382.22,328.18L383.77,328L384.59,328.74L386.45,329.38L387.5,329.95L388.24,330.91L389.96,331.76L390.77,329.95L389.76,328.47L389.91,327.56L391.16,326.87L392.88,327.18L394.15,328.52L394.38,329.95L395.42,330.91L396.14,332.88L396.4,335.66L398.11,337.22L396.58,337.42L395.89,338.64L395.86,339.74L394.67,340.53L394.43,341.67L393.27,342.33L392.96,344.05L391.53,344.22L390.39,347L390.7,348.39L391.75,349.33L391.98,350.74L392.91,351.57L391.74,354.07L392.63,355.23L392.83,356.35L391.76,356.48L390.4,356.04L389.55,357.49L388.03,357.22L386.81,358.09ZM370.04,354.78L371.18,356.43L370.62,356.78L370.05,358.3L368.81,357.29L368.49,355.93L368.66,354.87ZM376.34,346.06L376.92,345.97L376.31,348.57L375.28,349.97L374.61,350.07L373.15,349.44L370.88,349.36L371.56,350.39L371.04,351.61L368.78,353.27L368.5,354.32L367.5,354.85L366.7,356.58L365.9,355.23L366.21,354.17L365.33,353.91L366.11,352.18L365.55,350.58L366.29,348.65L367,347.63L367.22,346.24L370.02,345.17L370.92,345.6L370.74,346.73L371.05,347.99L373.03,347L373.76,346.12L374.82,345.79Z" class="land" id="JP-43" title="Kumamoto"/>
    <path d="M394.13,376.14L395.02,374.45L395.09,372.67L394.73,371.54L393.39,371.47L392.12,370.53L391.51,371.25L390.84,370.06L390.64,368.13L389.9,367.15L388.59,366.99L387.43,366.43L387.74,364.02L386.71,362.67L385.69,362.49L384.88,360.51L383.09,359.26L383.68,358.03L386.81,358.09L388.03,357.22L389.55,357.49L390.4,356.04L391.76,356.48L392.83,356.35L392.63,355.23L391.74,354.07L392.91,351.57L391.98,350.74L391.75,349.33L390.7,348.39L390.39,347L391.53,344.22L392.96,344.05L393.27,342.33L394.43,341.67L394.67,340.53L395.86,339.74L395.89,338.64L396.58,337.42L398.11,337.22L398.7,337.93L400.21,337.78L401.63,337.08L402.65,338.13L402.66,339.08L403.76,339.44L404.39,338.9L407.11,338.93L407.89,337.31L408.87,337.13L410.59,337.65L410.55,339.8L411.23,339.82L410.95,340.46L409.04,341.65L408.32,343.7L407.01,344.35L406.52,345.42L407.68,346.83L406.02,348.39L404.9,351.3L404.18,352.66L403.05,357.37L401.07,363.69L400.88,365.46L401.89,366.9L401.28,368.36L401.29,371.28L400.33,371.84L399.23,374.4L399.52,375.38L398.86,375.79L399.09,376.97L398.14,377.86L396.24,378.31L395.4,376.46Z" class="land" id="JP-45" title="Miyazaki"/>
    <path d="M386.45,329.38L386.88,329.08L387.4,327.07L386.44,326.49L386.18,325.04L386.98,323.93L386.63,322.77L387.44,321.57L387.81,319.54L389.77,317.85L390.9,317.56L393.77,317.92L394.74,316.55L394.56,315.12L394.94,314.59L397.11,315.71L399.15,315.67L400.35,315.31L401.57,314.2L402.17,313.02L404.22,312.41L406.17,313.4L407.71,315.45L408.04,316.77L407.93,318.97L407.06,320.64L405.38,320.15L405.63,321.57L402.21,321.96L402.07,322.83L402.5,324.67L404.32,325.29L406.61,324.3L408.24,325.48L409.53,325.39L411.85,324.66L410.85,326.5L410.19,327.14L409.58,328.68L410.43,329.06L410.88,330.16L412.4,330.43L411.55,332.56L412.7,333.7L413.58,333.37L413.6,336.42L414.41,337.27L412.66,338.52L411.54,337.95L411.23,339.82L410.55,339.8L410.59,337.65L408.87,337.13L407.89,337.31L407.11,338.93L404.39,338.9L403.76,339.44L402.66,339.08L402.65,338.13L401.63,337.08L400.21,337.78L398.7,337.93L398.11,337.22L396.4,335.66L396.14,332.88L395.42,330.91L394.38,329.95L394.15,328.52L392.88,327.18L391.16,326.87L389.91,327.56L389.76,328.47L390.77,329.95L389.96,331.76L388.24,330.91L387.5,329.95Z" class="land" id="JP-44" title="Oita"/>
    <path d="M388.91,400.77L388.69,398.24L390.37,395.55L390.24,395.01L391.53,393.45L392.13,395.2L392.06,397.48L391.35,398.83L391.53,399.77L390.83,401.45L390.17,401.64L389.16,404.16L389.73,405.79L389.32,406.5L388.33,406.49L387.11,407.32L386.74,406.61L387.12,403.9ZM374.83,356.44L375.87,357.52L377.14,357.71L377.88,357.03L378.89,357.04L381.15,356.48L383.06,357.92L383.68,358.03L383.09,359.26L384.88,360.51L385.69,362.49L386.71,362.67L387.74,364.02L387.43,366.43L388.59,366.99L389.9,367.15L390.64,368.13L390.84,370.06L391.51,371.25L392.12,370.53L393.39,371.47L394.73,371.54L395.09,372.67L395.02,374.45L394.13,376.14L392.7,375.63L390.86,377.38L390.55,378.9L392.7,379.65L391.93,380.83L391.72,382.63L390.49,382.67L390.23,383.71L389.27,385.14L387.12,386.34L385.67,386.5L382.8,388.37L381.84,387.01L384.03,385.31L384.57,383.94L384.2,383.35L385.11,381.97L385.45,379.6L384.3,377.08L382.92,376L383.06,373.62L381.42,373.66L380.36,372.66L381.18,371.55L382.46,371.3L383.36,372.05L383.23,373.07L384.52,373.19L385.9,370.67L385.3,369.32L382.04,368.36L381.02,369.18L380.75,370.64L379.62,372.27L379.81,372.89L378.46,375.9L378.78,377.52L379.75,380.04L381.06,381.24L382.15,381.53L381.52,383.68L380.26,384.59L379.51,383.99L378.29,384L378.36,383L377.19,381.95L374.61,381.97L373.56,381.52L371.29,382.02L370.97,378.94L370.34,378.73L369.3,377.43L370.27,377.21L371.53,377.84L373.15,376.28L374.18,373.53L373.92,370.64L372.97,369.45L370.92,367.75L370.15,366.74L371.53,363.43L371.31,362.1L370.42,360.38L371.11,359.06L370.23,358.35L371.51,357.16L372.97,357.74L374.29,357.62ZM362.14,365.43L362.17,364.16L363.28,364.86L364.48,365.08L364.44,365.82L363.33,366.18ZM371.67,403.85L372.51,404.45L371.19,405.17L370.21,404.19L370.47,403.41ZM359.5,370.95L358.07,371.17L359.07,368.66L360.45,368.25L360.59,368.95L359.53,370.18ZM378.12,404.05L381.46,405.68L382.27,406.45L381.8,408.61L380.21,410.22L378.7,410.59L376.64,410.25L375.5,407.93L375.23,405.95L376.37,405.85Z" class="land" id="JP-46" title="Kagoshima"/>
    <path d="M313.62,513.36L314.63,512.37L315.35,512.29L317.21,511.28L317.65,510.09L315.55,509.51L315.06,507.42L317.12,506.81L318.06,507.19L318.26,508.87L319.38,508.74L320.53,508.01L323.65,504.36L324.36,502.27L325.48,503.14L325.96,505.65L323.81,508.86L321.67,508.89L321.76,510.58L320.36,511.46L318.71,512.09L316.87,514.06L314.94,513.51L313.93,514.46L315.14,515.57L314.96,516.79L314.15,516.96L313.55,517.77L312.54,520.38L314.03,521.32L313.08,522.18L312.02,522.6L311.47,523.37L309.83,523.52L309.36,520.44L311.07,518.44L312.24,517.84L311.23,514.95L312.6,513.82ZM220.53,569.33L220.25,570.48L219.64,570.67L218.69,572.07L218.02,571.62L214.31,571.35L213.84,570.69L214.86,569.57L215.98,569.91L215.8,568.39L216.48,567.73L218.96,568.15ZM252.06,558.82L252.15,557.72L253.46,556.57L254.09,557.74L256.42,558.7L256.91,559.52L253.42,560.02ZM341.42,475.73L341.35,476.79L343.03,478.29L341.85,480.81L340.6,481.04L339.23,479.37L339.86,478.27L339.2,476.34L339.71,474.72L341.46,474.76ZM226.04,566.94L227.27,566.35L228.77,563.98L229.28,564.43L228.77,565.92L228.02,566.59L228.22,567.93L227.78,569.65L225.72,570.1L225.29,568.62ZM356.38,461.73L355.05,463.48L353.13,463.75L352.78,465.13L353.25,466.05L350.94,467.7L350.47,468.26L349.21,467.79L348.7,466.1L346.79,465.63L345.35,464.93L347.77,464.15L347.3,463.59L348.48,462.9L349.4,462.85L350.28,461.77L350.93,462.17L351.6,461.3L352.87,461.45L353.05,460.67L354.28,460.91L355.16,459.17L357.05,458.79L357.42,460.5L358.29,459.27L357.59,458.13L358.68,457.37L358.81,458.48L359.39,458.89L359.31,460.12L358.08,461.01L357.25,460.72ZM366.96,461.8L365.5,464.09L364.79,464.37L364.04,463.33L364.99,462.92L366.45,461.52ZM288.52,517.04L287.11,515.82L288.88,515.36L289.84,516.49ZM347.42,467.5L348.59,467.26L349.01,468.42L350.63,469.03L350.29,469.73L347.5,469.13ZM333.18,489.09L331.49,490.05L330.59,488.95L330.89,487.97L332.39,488.18L334.33,487.73ZM249.33,557.21L249.97,555.95L251.07,556.44L251.35,557.3L249.89,557.63Z" class="land" id="JP-47" title="Okinawa"/>
  </g>
</svg>