<?xml version="1.0" encoding="UTF-8"?>
<svg xmlns="http://www.w3.org/2000/svg" width="965.3" height="24.3" viewBox="-2.65 244.85 965.3 24.3" style="background-color:#000000">
  <!-- Created using SVG Map Generator: dojo.amcharts.com/svg-map-generator -->
  <style>
    .land { fill: #ffffff; stroke: #000000; stroke-width: 0.65; }
  </style>
  <g id="polygons">
    <path d="M951.58,264.31L951.46,264.1L951.48,263.99L951.58,263.92L951.68,263.79L951.8,263.48L951.85,263.26L952.01,263.19L952.04,263.08L951.89,262.91L951.78,262.86L951.85,262.71L951.94,262.64L952.05,262.44L952,262.39L951.82,262.42L951.81,262.29L951.99,262.28L951.94,262.13L952.01,261.98L952.21,261.98L952.14,261.86L952.15,261.72L952.33,261.73L952.46,261.71L952.78,261.72L952.89,261.88L953.14,261.88L953.24,261.83L953.35,261.68L953.85,261.43L953.86,261.2L953.99,261.15L954.05,260.83L954.15,260.73L954.44,260.56L954.6,260.55L954.74,260.62L954.9,260.84L954.92,260.93L954.76,261.27L955.17,261.21L955.23,261.24L955.52,261.07L955.61,260.89L955.81,260.9L955.99,260.87L956.27,260.99L956.51,260.99L956.6,261.06L956.68,260.88L956.86,260.91L956.86,261.19L957.08,261.33L957.1,261.89L957.13,262.14L957.17,262.23L957.13,262.37L957.14,262.53L956.5,262.67L956.34,262.73L956.16,262.85L955.8,263L955.59,262.97L955.15,263.05L954.9,263.03L954.63,262.98L954.19,263.03L954.01,263.02L953.72,263.08L953.6,263.08L952.99,263.26L952.75,263.48L952.53,263.79L952.32,264.01L951.87,264.11L951.67,264.21Z" class="land" id="YE-AB" title="Abyān"/>
    <path d="M949.69,265.05L949.71,264.91L949.88,264.68L950.12,264.56L950.65,264.55L950.87,264.53L951.1,264.41L951.55,264.36L951.42,264.64L951.37,264.61L951.14,264.63L950.98,264.72L951.01,264.86L950.83,264.9L950.81,264.81L950.55,264.79L950.43,264.7L950.3,264.67L950.08,264.71L949.92,264.85L949.75,265.07Z" class="land" id="YE-AD" title="'Adan"/>
    <path d="M947.73,257.15L947.81,257.06L947.73,256.99L947.74,256.81L947.95,256.83L947.9,256.57L947.9,256.03L947.78,255.88L947.64,256.02L947.54,255.97L947.69,255.81L947.52,255.56L947.53,255.32L947.38,255.2L947.4,254.96L947.35,254.81L947.44,254.69L947.43,254.16L947.48,254.13L947.81,254.07L948.05,253.95L948.22,254.02L948.61,254.08L948.81,254.07L948.81,254.07L949.17,254.14L949.22,254.27L949.4,254.43L949.41,254.63L949.36,254.67L949.35,255.01L949.47,255.01L949.45,255.24L949.39,255.32L949.42,255.47L949.59,255.58L949.59,255.73L949.52,255.8L949.37,255.81L949.28,255.89L949.12,255.89L949.06,256.2L949.16,256.3L949.05,256.51L948.92,256.62L948.97,256.88L948.86,256.9L948.7,257.08L948.56,257.11L948.44,257.03L948.44,257.2L948.09,257.05L948.07,257.15L947.93,257.19Z" class="land" id="YE-AM" title="'Amrān"/>
    <path d="M952.32,261.73L952.31,261.37L952.18,261.29L951.95,261.54L951.72,261.49L951.71,261.33L951.61,261.2L951.47,261.19L951.45,261.03L951.2,260.78L950.9,260.8L950.78,260.89L950.65,260.78L950.56,260.93L950.44,260.93L950.27,260.88L950.27,260.59L950.27,260.42L950.44,260.42L950.49,260.14L950.61,260.1L950.54,259.91L950.53,259.65L950.61,259.53L950.87,259.37L950.96,259.26L951.07,259.22L951.2,259.17L951.43,259.13L951.51,259.73L951.57,259.93L951.81,260.05L951.92,259.88L952.07,259.95L952.22,259.85L952.45,259.78L952.6,259.78L952.7,259.51L952.69,259.41L953.05,259.42L953.08,259.76L953.37,259.78L953.52,260.08L953.58,260.28L953.58,260.51L953.89,260.47L954.15,260.73L954.05,260.83L953.99,261.15L953.86,261.2L953.85,261.43L953.35,261.68L953.24,261.83L953.14,261.88L952.89,261.88L952.78,261.72L952.46,261.71L952.33,261.73Z" class="land" id="YE-BA" title="Al Bayḑā'"/>
    <path d="M951.72,261.48L951.64,261.71L951.4,261.94L951.15,262.13L950.96,262.23L950.76,262.18L950.88,262.58L950.65,262.53L950.55,262.62L950.35,262.67L950.27,262.61L950.18,262.68L950.03,262.59L949.94,262.45L949.64,262.45L949.63,262.34L949.71,262.24L949.66,262.09L949.63,261.93L949.72,261.86L949.87,261.66L949.84,261.56L950.03,261.46L950.18,261.46L950.1,261.3L950.23,261.19L950.23,261.06L950.37,261.08L950.44,260.93L950.56,260.93L950.65,260.78L950.78,260.89L950.9,260.8L951.2,260.78L951.45,261.03L951.47,261.19L951.61,261.2L951.71,261.33Z" class="land" id="YE-DA" title="Aḑ Ḑāli'"/>
    <path d="M947.98,261.15L947.84,261.25L947.73,261.25L947.57,261.08L947.34,261.01L947.39,260.87L947.37,260.74L947.22,260.47L947.22,260.39L947.39,260.38L947.64,260.28L947.71,260.13L947.87,260.11L948.04,260.16L948.25,260.04L948.45,259.84L948.37,259.65L948.39,259.52L948,259.18L947.98,259.08L948,259.08L948,259.02L948.2,259.02L948.29,259.08L948.75,258.64L949.06,258.66L949.25,258.82L949.55,258.84L949.63,258.69L949.78,258.83L950.02,258.77L950.13,258.67L950.31,258.62L950.54,258.63L950.53,259.03L950.66,259.04L950.9,259.33L950.87,259.37L950.61,259.53L950.53,259.65L950.54,259.91L950.61,260.1L950.49,260.14L950.44,260.42L950.27,260.42L950.27,260.59L950.13,260.69L950.06,260.59L949.89,260.58L949.82,260.46L949.7,260.46L949.56,260.39L949.39,260.36L949.23,260.18L949.16,260.16L949.11,260.36L948.85,260.43L948.85,260.13L948.79,260.13L948.6,260.39L948.47,260.48L948.48,260.69L948.23,260.9L948.18,260.8L948.08,260.8L948.03,261.09L947.98,261.14Z" class="land" id="YE-DH" title="Dhamār"/>
    <path d="M960,260.88L959.66,260.75L959.56,260.52L959.17,260.22L959.09,260.05L958.82,260.01L958.32,259.74L958.21,259.74L958.22,259.53L958.01,259.25L957.89,259.17L957.82,259.06L957.96,258.94L958.33,258.73L958.42,258.61L958.43,258.44L958.26,258.31L958.12,258.26L958.24,258.07L958.31,257.57L958.67,257.22L959.02,256.67L958.4,256.63L957.43,256.75L956.48,256.78L954.87,256.95L956.2,255.44L956.67,254.9L956.67,253.2L957.22,253.23L957.58,253.02L957.94,252.77L958.11,252.36L958.29,251.84L958.95,251.01L959.91,249.85L960,249.8L960,260.88ZM0,249.8L2.39,248.63L6.87,248.14L10.06,247.5L10.06,247.5L9.96,247.71L9.73,247.97L9.65,248.12L9.38,248.44L9.18,248.8L9.08,249.07L8.94,249.29L8.76,249.61L8.71,249.81L8.62,250.63L8.56,250.95L8.25,251.7L8.03,252.07L8,252.19L7.72,252.46L7.58,252.67L7.55,252.79L7.42,252.8L7.06,252.98L6.64,253.28L6.46,253.42L6.45,253.6L6.25,253.79L6.1,253.87L5.89,253.88L5.66,253.94L5.51,254.04L5.34,254.27L5.35,254.39L5.44,254.46L5.32,254.64L5.33,254.83L5.17,255.16L5.11,255.4L5.22,255.49L5.37,255.69L5.33,255.82L5.16,256.03L5.13,256.31L5.02,256.86L5.09,256.94L5.37,257.02L5.38,257.25L5.31,257.36L5.53,257.38L5.77,257.46L6.2,257.65L6.24,257.71L6.39,257.72L6.54,257.96L6.67,258.26L6.77,258.42L6.56,258.48L6.2,258.53L5.9,258.61L5.62,258.77L5.51,258.89L5.44,258.88L5.13,259.04L5.1,259.1L4.92,259.09L4.7,259.16L4.66,259.08L4.46,259.08L4.23,259.19L3.76,259.31L3.46,259.41L3.27,259.51L2.92,259.65L2.44,259.92L2.24,259.97L2.01,260.23L1.92,260.46L1.91,260.57L1.79,260.61L1.75,260.7L1.61,260.75L1.51,260.96L1.32,261.1L1.16,261.29L0.88,261.29L0.64,260.97L0.52,260.92L0.52,260.8L0.3,260.9L0.04,260.9L0,260.88L0,249.8Z" class="land" id="YE-HD" title="Ḩaḑramawt"/>
    <path d="M10.19,266.24L10.37,266.26L10.51,266.35L10.76,266.35L10.97,266.39L10.93,266.47L10.76,266.5L10.6,266.47L10.57,266.41L10.37,266.39L10.14,266.29ZM14.08,264.95L14.37,264.98L14.66,265.2L14.87,265.27L14.98,265.14L15.32,265.13L15.62,265L15.74,265.09L16.13,265.24L16.26,265.25L16.65,265.45L16.5,265.48L16.46,265.58L16.34,265.64L15.94,265.73L15.68,265.94L15.37,265.95L15.33,266.01L15.11,265.99L14.87,266.05L14.58,266.08L14.37,266.06L14.09,265.97L13.89,265.73L13.45,265.45L13.65,265.4L13.7,265.34L13.69,265.12L13.88,265.07L13.93,264.99Z" class="land" id="YE-SU" title="Arkhabīl Suquţrá"/>
    <path d="M946.58,254.1L946.77,254.19L946.89,254.21L947.21,254.1L947.43,254.16L947.44,254.69L947.35,254.81L947.4,254.96L947.38,255.2L947.53,255.32L947.52,255.56L947.69,255.81L947.54,255.97L947.64,256.02L947.78,255.88L947.9,256.03L947.9,256.57L947.95,256.83L947.74,256.81L947.73,256.99L947.81,257.06L947.73,257.15L947.67,257.17L947.38,257.11L947.14,257.13L947,257.18L946.67,257.24L946.62,257.22L946.63,256.87L946.58,256.59L946.67,256.49L946.67,256.23L946.51,256.2L946.12,256.36L945.8,256.4L945.54,256.25L945.47,256.24L945.52,255.85L945.48,255.52L945.49,255.36L945.35,254.77L945.71,254.82L945.84,254.79L945.81,254.59L945.91,254.5L946.28,254.4L946.28,254.31L946.37,254.02Z" class="land" id="YE-HJ" title="Ḩajjah"/>
    <path d="M945.38,262.02L945.37,262.13L945.27,262.31L945.18,262.16ZM945.33,261.23L945.4,261.31L945.41,261.46L945.24,261.55L945.13,261.46L945.14,261.38ZM944.98,257.41L944.96,257.78L944.88,257.94L944.76,257.89L944.81,257.74L944.78,257.6ZM945.47,256.24L945.54,256.25L945.8,256.4L946.12,256.36L946.51,256.2L946.67,256.23L946.67,256.49L946.58,256.59L946.63,256.87L946.62,257.22L946.67,257.24L946.67,257.34L946.74,257.45L946.66,257.5L946.68,257.76L946.87,257.97L947.07,258.11L947.14,258.29L947.38,258.47L947.37,258.58L947.69,258.64L947.7,258.79L947.69,258.81L947.48,258.81L947.37,258.98L947.27,259.01L947.2,259.19L947.31,259.4L947.23,259.5L947.22,259.71L947.31,259.79L947.43,260.29L947.39,260.38L947.22,260.39L947.22,260.47L947.37,260.74L947.39,260.87L947.34,261.01L947.57,261.08L947.73,261.25L947.84,261.25L947.98,261.15L947.99,261.23L947.91,261.35L947.87,261.53L947.74,261.43L947.7,261.68L947.53,261.73L947.27,261.75L947.23,261.95L947.12,262.03L947.08,262.18L946.73,262.34L946.72,262.25L946.59,261.91L946.59,261.75L946.39,261.55L946.35,261.4L946.23,261.25L946.14,260.77L945.96,260.33L945.92,260.15L945.99,260.11L946,259.94L945.92,259.7L945.92,259.6L945.83,259.45L945.81,259.23L945.68,259.09L945.81,259.06L945.81,258.9L945.74,258.72L945.62,258.61L945.62,258.36L945.54,258.24L945.38,258.15L945.1,258.07L945.03,258.18L944.89,258.04L945.08,258.02L945.13,257.91L945.45,257.91L945.41,257.67L945.32,257.51L945.36,257.39L945.28,257.2L945.18,257.17L945.22,257L945.1,256.75L945.14,256.65L945.26,256.58L945.29,256.49Z" class="land" id="YE-HU" title="Al Ḩudaydah"/>
    <path d="M950.27,260.59L950.27,260.88L950.44,260.93L950.37,261.08L950.23,261.06L950.23,261.19L950.1,261.3L950.18,261.46L950.03,261.46L949.84,261.56L949.87,261.66L949.72,261.86L949.63,261.93L949.66,262.09L949.54,262.23L949.4,262.24L949.3,262.13L949.18,262.23L949.11,262.13L948.81,262.12L948.6,262.02L948.39,262.02L948.49,261.85L948.44,261.8L948.25,261.87L948.18,261.75L948.06,261.85L947.95,261.87L947.73,261.84L947.7,261.68L947.74,261.43L947.87,261.53L947.91,261.35L947.99,261.23L947.98,261.14L948.03,261.09L948.08,260.8L948.18,260.8L948.23,260.9L948.48,260.69L948.47,260.48L948.6,260.39L948.79,260.13L948.85,260.13L948.85,260.43L949.11,260.36L949.16,260.16L949.23,260.18L949.39,260.36L949.56,260.39L949.7,260.46L949.82,260.46L949.89,260.58L950.06,260.59L950.13,260.69Z" class="land" id="YE-IB" title="Ibb"/>
    <path d="M956.2,255.44L955.71,255.48L954.66,255.65L954.17,255.71L953.7,255.8L953.19,255.95L952.92,256.19L952.76,256.46L952.56,256.54L951.98,256.54L950.94,255.81L950.27,255.81L950.22,255.85L949.93,255.8L949.69,255.81L949.59,255.73L949.59,255.58L949.42,255.47L949.39,255.32L949.45,255.24L949.47,255.01L949.35,255.01L949.36,254.67L949.41,254.63L949.4,254.43L949.22,254.27L949.17,254.14L948.81,254.07L948.88,253.94L949.02,253.89L949.65,253.27L949.92,253.08L950.1,252.99L950.3,252.96L951.06,252.96L951.05,251.9L951.91,251.9L952.4,252.21L952.88,252.25L953.54,252.35L954.21,252.43L954.61,252.46L955.21,252.46L956.04,252.34L956.67,253.2L956.67,254.9Z" class="land" id="YE-JA" title="Al Jawf"/>
    <path d="M947.34,265.03L947.36,264.91L947.56,264.6L947.69,264.33L947.83,264.26L947.83,263.97L947.95,263.99L948.19,263.84L948.32,263.9L948.59,263.97L948.86,263.92L948.86,263.75L949.08,263.76L949.15,263.6L949.42,263.6L949.55,263.51L949.49,263.35L949.58,263.11L949.75,263.13L949.76,263.06L949.53,262.99L949.53,262.9L949.71,262.84L949.89,262.73L950.03,262.59L950.18,262.68L950.27,262.61L950.35,262.67L950.55,262.62L950.65,262.53L950.88,262.58L950.76,262.18L950.96,262.23L951.15,262.13L951.4,261.94L951.64,261.71L951.72,261.48L951.72,261.49L951.95,261.54L952.18,261.29L952.31,261.37L952.32,261.73L952.15,261.72L952.14,261.86L952.21,261.98L952.01,261.98L951.94,262.13L951.99,262.28L951.81,262.29L951.82,262.42L952,262.39L952.05,262.44L951.94,262.64L951.85,262.71L951.78,262.86L951.89,262.91L952.04,263.08L952.01,263.19L951.85,263.26L951.8,263.48L951.68,263.79L951.58,263.92L951.48,263.99L951.46,264.1L951.58,264.31L951.55,264.36L951.1,264.41L950.87,264.53L950.65,264.55L950.12,264.56L949.88,264.68L949.71,264.91L949.69,265.05L949.4,265.18L949.31,265.19L949.05,265.12L948.77,265.25L948.44,265.27L948.39,265.14L947.57,264.86Z" class="land" id="YE-LA" title="Laḩij"/>
    <path d="M952.69,259.41L952.7,259.51L952.6,259.78L952.45,259.78L952.22,259.85L952.07,259.95L951.92,259.88L951.81,260.05L951.57,259.93L951.51,259.73L951.43,259.13L951.2,259.17L951.07,259.22L951.03,259.02L951.17,258.82L951.22,258.65L951.5,258.36L951.62,258.01L951.63,257.84L951.54,257.82L950.9,257.5L950.82,257.48L950.82,257.75L950.53,257.73L950.5,257.39L950.24,257.55L950.05,257.45L950.09,257.34L950.34,257.29L950.48,257.17L950.77,257.07L950.79,256.9L950.59,256.84L950.48,256.57L950.5,256.47L950.45,256.23L950.3,255.89L950.22,255.85L950.27,255.81L950.94,255.81L951.98,256.54L952.56,256.54L952.76,256.46L952.92,256.19L953.19,255.95L953.7,255.8L954.17,255.71L954.66,255.65L955.71,255.48L956.2,255.44L954.87,256.95L954.82,257L953.97,257.53L953.71,257.73L953.39,257.93L953.26,257.98L953.14,258.17L952.92,258.32L952.77,258.52L952.65,258.74L952.67,258.98L952.59,259.15L952.57,259.4Z" class="land" id="YE-MA" title="Ma'rib"/>
    <path d="M6.77,258.42L6.67,258.26L6.54,257.96L6.39,257.72L6.24,257.71L6.2,257.65L5.77,257.46L5.53,257.38L5.31,257.36L5.38,257.25L5.37,257.02L5.09,256.94L5.02,256.86L5.13,256.31L5.16,256.03L5.33,255.82L5.37,255.69L5.22,255.49L5.11,255.4L5.17,255.16L5.33,254.83L5.32,254.64L5.44,254.46L5.35,254.39L5.34,254.27L5.51,254.04L5.66,253.94L5.89,253.88L6.1,253.87L6.25,253.79L6.45,253.6L6.46,253.42L6.64,253.28L7.06,252.98L7.42,252.8L7.55,252.79L7.58,252.67L7.72,252.46L8,252.19L8.03,252.07L8.25,251.7L8.56,250.95L8.62,250.63L8.71,249.81L8.76,249.61L8.94,249.29L9.08,249.07L9.18,248.8L9.38,248.44L9.65,248.12L9.73,247.97L9.96,247.71L10.06,247.5L11.11,249.76L11.12,249.98L12.13,252.08L12.02,252.28L12.23,252.26L12.29,252.48L13.02,254.05L12.85,254.12L12.55,254.19L11.52,254.59L11.17,254.74L10.96,254.91L10.59,255.36L10.51,255.63L10.36,255.98L10.4,256.16L10.39,256.3L10.51,256.41L10.47,256.57L10.57,256.92L10.41,257L9.82,257.21L9.56,257.37L9.31,257.45L9.02,257.59L8.98,257.76L8.74,257.79L8.28,258L7.69,258.2L7.36,258.26Z" class="land" id="YE-MR" title="Al Mahrah"/>
    <path d="M948.44,257.2L948.37,257.34L948.45,257.49L948.31,257.61L948.15,257.61L948.12,257.69L947.9,257.86L947.74,257.9L947.67,257.99L947.49,258.07L947.49,258.37L947.38,258.47L947.14,258.29L947.07,258.11L946.87,257.97L946.68,257.76L946.66,257.5L946.74,257.45L946.67,257.34L946.67,257.24L947,257.18L947.14,257.13L947.38,257.11L947.67,257.17L947.73,257.15L947.93,257.19L948.07,257.15L948.09,257.05Z" class="land" id="YE-MW" title="Al Maḩwīt"/>
    <path d="M947.69,258.81L947.68,258.84L947.79,259.02L947.88,259.06L947.98,259.08L948,259.18L948.39,259.52L948.37,259.65L948.45,259.84L948.25,260.04L948.04,260.16L947.87,260.11L947.71,260.13L947.64,260.28L947.39,260.38L947.43,260.29L947.31,259.79L947.22,259.71L947.23,259.5L947.31,259.4L947.2,259.19L947.27,259.01L947.37,258.98L947.48,258.81Z" class="land" id="YE-RA" title="Raymah"/>
    <path d="M949.76,257.15L949.63,257.11L949.46,257.19L949.44,257.29L949.28,257.44L949.36,257.73L949.3,257.83L949.16,257.83L949.13,257.69L949.05,257.59L949.11,257.49L948.97,257.4L949.01,257.32L949.18,257.27L949.23,257.12L949.39,256.97L949.54,256.91L949.67,256.98Z" class="land" id="YE-SA" title="Amanat Al Asimah"/>
    <path d="M948.81,254.07L948.61,254.08L948.22,254.02L948.05,253.95L947.81,254.07L947.48,254.13L947.43,254.16L947.21,254.1L946.89,254.21L946.77,254.19L946.58,254.1L946.56,253.91L946.7,253.82L946.68,253.65L946.57,253.55L946.45,253.52L946.34,253.33L946.44,253.25L946.44,253.06L946.61,253.08L946.66,253.01L946.59,252.88L946.47,252.84L946.44,252.75L946.55,252.53L946.52,252.39L946.87,252.26L946.66,252.08L946.66,251.89L946.76,251.71L946.85,251.63L947.12,251.56L947.34,251.59L947.57,251.78L947.88,252.1L948.02,252.07L948.23,252.17L948.35,252.13L948.55,252.19L948.66,252.04L949.68,251.9L949.92,251.89L950.13,252L950.28,251.98L950.39,251.9L951.05,251.9L951.06,252.96L950.3,252.96L950.1,252.99L949.92,253.08L949.65,253.27L949.02,253.89L948.88,253.94Z" class="land" id="YE-SD" title="Şā‘dah"/>
    <path d="M0,260.88L0.04,260.9L0.3,260.9L0.52,260.8L0.52,260.92L0.64,260.97L0.88,261.29L0.7,261.34L0.6,261.42L0.37,261.37L0.16,261.41L0.07,261.47L0,261.46L0,260.88ZM960,261.46L959.77,261.45L959.62,261.35L959.36,261.27L959.08,261.36L958.79,261.61L958.52,261.67L958.35,261.78L958.22,261.93L957.86,262.25L957.68,262.38L957.14,262.52L957.13,262.37L957.13,262.37L957.17,262.23L957.13,262.14L957.1,261.89L957.08,261.33L956.86,261.19L956.86,260.91L956.68,260.88L956.6,261.06L956.51,260.99L956.27,260.99L955.99,260.87L955.81,260.9L955.61,260.89L955.52,261.07L955.23,261.24L955.17,261.21L954.76,261.27L954.92,260.93L954.9,260.84L954.74,260.62L954.6,260.55L954.44,260.56L954.15,260.73L953.89,260.47L953.58,260.51L953.58,260.28L953.52,260.08L953.37,259.78L953.08,259.76L953.05,259.42L952.57,259.4L952.59,259.15L952.67,258.98L952.65,258.74L952.77,258.52L952.92,258.32L953.14,258.17L953.26,257.98L953.39,257.93L953.71,257.73L953.97,257.53L954.82,257L954.87,256.95L956.48,256.78L957.43,256.75L958.4,256.63L959.02,256.67L958.67,257.22L958.31,257.57L958.24,258.07L958.12,258.26L958.26,258.31L958.43,258.44L958.42,258.61L958.33,258.73L957.96,258.94L957.82,259.06L957.89,259.17L958.01,259.25L958.22,259.53L958.21,259.74L958.32,259.74L958.82,260.01L959.09,260.05L959.17,260.22L959.56,260.52L959.66,260.75L960,260.88L960,261.46Z" class="land" id="YE-SH" title="Shabwah"/>
    <path d="M949.59,255.73L949.69,255.81L949.93,255.8L950.22,255.85L950.3,255.89L950.45,256.23L950.5,256.47L950.48,256.57L950.59,256.84L950.79,256.9L950.77,257.07L950.48,257.17L950.34,257.29L950.09,257.34L950.05,257.45L950.24,257.55L950.5,257.39L950.53,257.73L950.82,257.75L950.82,257.48L950.9,257.5L951.54,257.82L951.63,257.84L951.62,258.01L951.5,258.36L951.22,258.65L951.17,258.82L951.03,259.02L951.07,259.22L950.96,259.26L950.9,259.33L950.66,259.04L950.53,259.03L950.54,258.63L950.31,258.62L950.13,258.67L950.02,258.77L949.78,258.83L949.63,258.69L949.55,258.84L949.25,258.82L949.06,258.66L948.75,258.64L948.29,259.08L948.2,259.02L948,259.02L948,259.08L947.88,259.06L947.79,259.02L947.68,258.84L947.7,258.79L947.69,258.64L947.37,258.58L947.38,258.47L947.49,258.37L947.49,258.07L947.67,257.99L947.74,257.9L947.9,257.86L948.12,257.69L948.15,257.61L948.31,257.61L948.45,257.49L948.37,257.34L948.44,257.2L948.44,257.03L948.56,257.11L948.7,257.08L948.86,256.9L948.97,256.88L948.92,256.62L949.05,256.51L949.16,256.3L949.06,256.2L949.12,255.89L949.28,255.89L949.37,255.81L949.52,255.8ZM949.67,256.98L949.54,256.91L949.39,256.97L949.23,257.12L949.18,257.27L949.01,257.32L948.97,257.4L949.11,257.49L949.05,257.59L949.13,257.69L949.16,257.83L949.3,257.83L949.36,257.73L949.28,257.44L949.44,257.29L949.46,257.19L949.63,257.11L949.76,257.15Z" class="land" id="YE-SN" title="Şan‘ā'"/>
    <path d="M947.7,261.68L947.73,261.84L947.95,261.87L948.06,261.85L948.18,261.75L948.25,261.87L948.44,261.8L948.49,261.85L948.39,262.02L948.6,262.02L948.81,262.12L949.11,262.13L949.18,262.23L949.3,262.13L949.4,262.24L949.54,262.23L949.66,262.09L949.71,262.24L949.63,262.34L949.64,262.45L949.94,262.45L950.03,262.59L949.89,262.73L949.71,262.84L949.53,262.9L949.53,262.99L949.76,263.06L949.75,263.13L949.58,263.11L949.49,263.35L949.55,263.51L949.42,263.6L949.15,263.6L949.08,263.76L948.86,263.75L948.86,263.92L948.59,263.97L948.32,263.9L948.19,263.84L947.95,263.99L947.83,263.97L947.83,264.26L947.69,264.33L947.56,264.6L947.36,264.91L947.34,265.03L947.17,265.01L947.28,264.65L947.18,264.53L946.89,263.96L946.64,263.58L946.6,263.33L946.63,263.23L946.65,262.78L946.75,262.53L946.73,262.34L947.08,262.18L947.12,262.03L947.23,261.95L947.27,261.75L947.53,261.73Z" class="land" id="YE-TA" title="Tā‘izz"/>
  </g>
</svg>