<?xml version="1.0" encoding="UTF-8"?>
<svg xmlns="http://www.w3.org/2000/svg" width="347.55" height="389.91" viewBox="306.22 62.05 347.55 389.91" style="background-color:#000000">
  <!-- Created using SVG Map Generator: dojo.amcharts.com/svg-map-generator -->
  <style>
    .land { fill: #ffffff; stroke: #000000; stroke-width: 0.65; }
  </style>
  <g id="polygons">
    <path d="M398.73,144.59L398.78,153.69L394.16,153.03L392.66,154.39L394.36,158.93L393.64,160.45L387.96,159.1L384.84,161.11L380.47,154.59L377.97,157.61L373.48,157.66L371.61,159.85L366.35,159.05L363.9,162.57L362.22,168.52L364.41,172.14L364.41,174.65L363.63,175.53L357.66,174.92L358.68,170.53L357.42,162.11L358.01,157.56L356.52,154.53L358.68,149.44L359.27,146.32L357.8,144.32L358.83,139.32L358.13,135.38L360.57,133.02L361.86,130.12L365.96,129.08L374.18,122.94L378.55,125.11L384.21,125.83L389.75,131.06L392.94,132.7L392.76,136.04L396.43,139.5L397.5,144.49Z" class="land" id="JO-IR" title="Irbid"/>
    <path d="M377.51,248.13L376.7,247.81L372.81,246.59L367.69,247.69L360.66,246.84L357.24,244.73L351.29,244.49L351.02,231.5L354.14,221.83L359.05,222.11L363.66,219.63L363.96,215.06L365.56,213.49L369.35,213.45L375.83,212.84L379.01,212.01L379.15,220.34L376.83,223.05L378.42,229.42L382,232.55L381.46,235.69L382.49,237.03L378.92,246.11Z" class="land" id="JO-MD" title="Mādabā"/>
    <path d="M376.7,247.81L377.52,248.14L379.58,253.15L377.55,259.88L380.32,262.12L403.7,261.96L403.7,270.41L409.65,276.54L406.87,282.24L404.11,286.56L393,306.12L389.35,302.95L383.73,299.47L383.33,296.45L379.58,294.51L377.88,292.19L374.29,290.75L367.91,286.89L363.44,285.91L359.4,285.97L354.32,283.38L350.95,284.37L350.02,288.19L348.26,290.29L348.28,294.57L345.49,295.07L341.56,292.31L344.96,289.81L344.77,282.72L348.7,275.79L348.89,272.73L347.67,268.11L344.58,263.96L344.16,261.5L346.99,254.98L349.1,252.19L351.29,244.49L357.24,244.73L360.66,246.84L367.69,247.69L372.81,246.59Z" class="land" id="JO-KA" title="Al Karak"/>
    <path d="M393,306.12L388.18,316.27L385.48,319.16L382.52,317.2L378.89,317.29L377.73,319.2L371.81,320.81L365.89,320.64L364.17,322.24L361.51,321.25L355,321.72L347.1,320.57L343.01,319.38L341.8,316.06L335.25,311.1L335.88,305.45L338.56,301.05L339.25,296.41L341.56,292.31L345.49,295.07L348.28,294.57L348.26,290.29L350.02,288.19L350.95,284.37L354.32,283.38L359.4,285.97L363.44,285.91L367.91,286.89L374.29,290.75L377.88,292.19L379.58,294.51L383.33,296.45L383.73,299.47L389.35,302.95Z" class="land" id="JO-AT" title="Aţ Ţafīlah"/>
    <path d="M370.03,444.64L369.08,441.08L367.4,426.7L365.15,411.97L363.37,404.22L361.22,396.78L358.32,394.09L357.58,389.13L356.45,386.43L352.8,381.68L350.28,380.39L342.32,380.39L340.83,381.04L337.37,379.63L334,373.58L334.18,370.48L335.77,364.2L341.58,357.28L341.67,351.86L340.36,346.88L340.27,343.85L345.13,335.61L345.7,328.76L347.38,326.16L347.1,320.57L355,321.72L361.51,321.25L364.17,322.24L365.89,320.64L371.81,320.81L377.73,319.2L378.89,317.29L382.52,317.2L385.48,319.16L388.18,316.27L393,306.12L404.11,286.56L406.87,282.24L409.65,276.54L403.7,270.41L403.7,261.96L488.35,262.09L508.66,284.14L535.54,315.86L548.05,330.6L523.65,344.45L520.8,347.62L509.58,375.04L507.88,376.55L488.09,380.68L451.75,388.26L447.71,391.38L429.8,421.83L397.75,448.4L393.58,449.3L385.41,447.89Z" class="land" id="JO-MN" title="Ma‘ān"/>
    <path d="M364.71,175.32L368.65,177.68L372.94,179.21L377.81,178.49L380.95,182.05L383.77,183.68L384.13,186.21L386.59,187.69L382.39,192.45L377.64,193.53L377.45,195.95L373.71,199.28L368.76,200.64L366.64,202.36L366.77,204.85L371.61,207.96L369.5,211.81L369.35,213.45L365.56,213.49L363.96,215.06L363.66,219.63L359.05,222.11L354.14,221.83L356.4,215.67L356.07,207.04L354.34,200.71L356.17,198.89L355.77,193.68L354.2,186.42L354.86,183.33L357.06,180.05L357.66,174.92L363.63,175.53L364.41,174.65Z" class="land" id="JO-BA" title="Al Balqā’"/>
    <path d="M530.78,220.72L438.35,188.57L429.72,185.95L426.37,182L420.66,181.69L417.81,183.25L415.42,182.92L410.87,180.34L407.69,180.04L401.96,180.79L399.06,178.72L394.65,180.18L393.44,178.97L393.67,174.99L390.86,173.55L387.66,168.52L392.53,162.72L393.64,160.45L394.36,158.93L392.66,154.39L394.16,153.03L398.78,153.69L398.73,144.59L401.58,143.55L404.07,144.6L406.68,144.16L408.31,146.66L410.7,146.22L421.62,156.69L430.05,159.07L443.67,160.74L446.51,162.9L449.58,162.14L454.6,163.47L456.71,163.17L461.13,158.99L520.43,120.73L609.89,64.7L614.09,77.87L617.36,89.92L634.28,146.12L626.45,148.44L630.43,162.1L631.81,163.94L646.71,159.81L648.32,160.76L651.13,169.89L649.12,172.83L639.66,180.92L628.02,191.95L625.28,193.11L581.01,205.99L545.65,216.25Z" class="land" id="JO-MA" title="Al Mafraq"/>
    <path d="M530.78,220.72L506.69,227.96L469.88,239L469.19,238.15L464.76,233.9L459.84,228.32L458.26,227.39L452.39,220.43L450.41,219.33L447.72,215.85L445.64,216.05L439.95,219.29L436.52,217.61L428.82,210.43L428.18,207.26L434.39,202.25L428.5,195.26L424.33,191.52L417.74,191.61L415.75,190.36L413.37,190.84L410.38,194.53L407.18,195.12L405.1,193.88L401.94,196.11L396.57,197.13L392.85,195.68L390.65,191.81L386.59,187.69L384.13,186.21L383.77,183.68L384.66,181.37L390.86,177.09L390.86,173.55L393.67,174.99L393.44,178.97L394.65,180.18L399.06,178.72L401.96,180.79L407.69,180.04L410.87,180.34L415.42,182.92L417.81,183.25L420.66,181.69L426.37,182L429.72,185.95L438.35,188.57Z" class="land" id="JO-AZ" title="Az Zarqā’"/>
    <path d="M384.84,161.11L379.86,164.46L376.93,171.92L371.57,174.35L368.65,177.68L364.71,175.32L364.41,174.65L364.41,172.14L362.22,168.52L363.9,162.57L366.35,159.05L371.61,159.85L373.48,157.66L377.97,157.61L380.47,154.59Z" class="land" id="JO-AJ" title="‘Ajlūn"/>
    <path d="M383.77,183.68L380.95,182.05L377.81,178.49L372.94,179.21L368.65,177.68L371.57,174.35L376.93,171.92L379.86,164.46L384.84,161.11L387.96,159.1L393.64,160.45L392.53,162.72L387.66,168.52L390.86,173.55L390.86,177.09L384.66,181.37Z" class="land" id="JO-JA" title="Jerash"/>
    <path d="M347.1,320.57L347.38,326.16L345.7,328.76L345.13,335.61L340.27,343.85L340.36,346.88L341.67,351.86L341.58,357.28L335.77,364.2L334.18,370.48L334,373.58L337.37,379.63L340.83,381.04L342.32,380.39L350.28,380.39L352.8,381.68L356.45,386.43L357.58,389.13L358.32,394.09L361.22,396.78L363.37,404.22L365.15,411.97L367.4,426.7L369.08,441.08L370.03,444.64L362.57,443.93L338.48,439.12L308.87,433.12L309.9,428.39L309.43,424.47L311.49,418.61L309.53,416.57L310.54,413.43L314.35,409.31L314.62,403.01L316.17,395.79L316.12,392.77L318.98,386.25L318.66,379.53L320.45,372.97L324.73,367.68L325.71,365.31L325.43,360.92L324.17,356.7L324.12,353.78L325.34,348.09L327.72,343.75L324.68,337.58L329.06,322.33L332.23,317.25L335.25,311.1L341.8,316.06L343.01,319.38Z" class="land" id="JO-AQ" title="Al ‘Aqabah"/>
    <path d="M469.19,238.15L477.27,248.07L478.91,249.6L488.35,262.09L403.7,261.96L380.32,262.12L377.55,259.88L379.58,253.15L377.52,248.14L377.51,248.13L378.92,246.11L382.49,237.03L381.46,235.69L382,232.55L378.42,229.42L376.83,223.05L379.15,220.34L379.01,212.01L375.83,212.84L369.35,213.45L369.5,211.81L371.61,207.96L366.77,204.85L366.64,202.36L368.76,200.64L373.71,199.28L377.45,195.95L377.64,193.53L382.39,192.45L386.59,187.69L390.65,191.81L392.85,195.68L396.57,197.13L401.94,196.11L405.1,193.88L407.18,195.12L410.38,194.53L413.37,190.84L415.75,190.36L417.74,191.61L424.33,191.52L428.5,195.26L434.39,202.25L428.18,207.26L428.82,210.43L436.52,217.61L439.95,219.29L445.64,216.05L447.72,215.85L450.41,219.33L452.39,220.43L458.26,227.39L459.84,228.32L464.76,233.9Z" class="land" id="JO-AM" title="Al ‘A̅şimah"/>
  </g>
</svg>