<?xml version="1.0" encoding="UTF-8"?>
<svg xmlns="http://www.w3.org/2000/svg" width="354.89" height="197.6" viewBox="302.56 158.2 354.89 197.6" style="background-color:#000000">
  <!-- Created using SVG Map Generator: dojo.amcharts.com/svg-map-generator -->
  <style>
    .land { fill: #ffffff; stroke: #000000; stroke-width: 0.65; }
  </style>
  <g id="polygons">
    <path d="M472.73,204.93L474.11,205.01L474.83,206.54L476.12,205.97L477.75,205.72L477.81,207.08L480.56,207.08L482.38,207.67L482.93,207.35L484.74,208L484.64,205.04L486.55,204.99L489.41,207.08L491.36,204.91L490.56,203.31L491.8,203.34L492.5,202.38L493.45,202.5L494.06,200.94L496.83,199.35L496.17,197.21L497.48,195.99L496.68,193.03L495.72,192.95L494.32,190.85L495.65,189.61L495.69,188.64L496.95,188.68L496.71,187.5L499.54,187.6L500.35,186.93L501.95,188.71L502.32,187.27L503.74,186.59L505.6,186.62L506.16,187.46L506.26,188.94L508.29,190.08L507.43,191.35L509.58,191.34L510.46,192.45L512.04,191.86L512.25,190.66L515.87,190.56L515.82,191.83L518.06,192.35L519.65,191.03L522.24,193.54L521.36,196.56L521.89,197.58L524.39,197.89L526.42,197.74L526.82,196.69L528.48,196.32L531.32,196.29L531.93,200.3L533.02,199.83L534.67,200.66L535.83,200.63L537.19,202.35L540.51,202.6L540.99,202.91L541.19,211.75L539.37,213.5L539.32,216.11L540.9,215.33L541.33,216.35L543.18,216.93L542.17,217.72L541.3,217.47L539.39,218.72L539.26,219.7L538.33,220.8L536.87,220.36L535.26,221.02L534.85,221.67L537.62,222.92L536.34,224.15L534.06,224.89L532.8,226.52L531.42,225.93L530.16,228.09L528.92,228.16L527.74,229.74L526,230.85L526.19,232.13L524.66,231.89L522.86,232.08L522.66,229.77L523.25,228.97L521.55,227.68L519.18,228.45L518.94,229.75L517.27,230.2L516.79,231.17L515.65,231.97L514.34,232.28L513.62,234.03L511.77,234.87L512.3,236.22L509.15,238.01L508.66,236.78L509.42,235.66L508.58,234.62L505.91,235.39L504.34,235.54L503.48,233.31L502.84,233.02L501.67,233.66L501.98,234.65L499,236.37L497.25,235.27L496.88,234.28L497.84,230.61L497.96,227.59L495.29,227.67L492.12,229.94L491.31,229.31L490.1,229.56L490.23,231L489.21,231.77L485.47,232.26L483.45,233.55L482.23,231.66L483.18,231.1L482.62,229.7L481.88,229.43L479.76,230.04L477.47,229.23L476.8,228.74L475.73,229.02L475.29,227.23L473.65,227.25L473.57,226.16L471.97,225.21L471.43,226.96L469.72,227.16L469.4,226.45L469.96,223.78L468.13,222L467.88,220.6L468.7,219.19L469.42,217.08L468.64,215.46L467.57,215.4L467.14,213.91L468.63,214.05L470.88,212.9L471.61,209.12L472.66,208.24Z" class="land" id="KZ-AKM" title="Aqmola oblysy"/>
    <path d="M412.64,289.25L412.47,289.18L410.85,289.76L410.05,290.56L409.29,292.41L409.25,293.26L408.56,294.3L405.07,295.29L392.69,299.21L391.46,290.1L390.69,287.95L389.98,286.57L390.14,286.05L389.13,284.74L389.02,283.1L383.99,281.59L382.24,280.87L379.67,278.27L379.14,276.19L377.86,274.56L378.86,267.37L378.27,266.37L378.08,263.98L376.75,262.47L377.06,261.3L376.25,258.68L376.79,256.43L376.74,254.36L375.21,254.22L374.56,253.21L373.72,253.54L373.53,255.43L370.03,254.86L370.38,253.98L370.26,252.4L369.66,249.36L368.43,249.64L366.71,248.54L366.63,247.32L367.77,244.06L369.43,242.83L371.22,242.94L373.91,238.77L374.16,236.93L373.15,236.19L373.27,234.12L372.63,233.22L374.35,230.38L375.74,229.26L375.12,226.88L375.55,225.74L377.19,226.17L378.95,225.58L378.66,226.75L381.11,228.91L382.4,229.18L383.84,230.15L384.36,229.6L386.4,228.57L387.82,227.41L388.12,225.41L389.92,225.31L391.68,223.89L393.07,224.23L393.75,223.19L395.39,223.6L396.77,223.01L397.93,224.92L398.97,225.79L400.36,225.08L401.39,225.35L401.66,222.53L405.31,223.37L405.6,222.5L406.55,222.23L406.82,223.07L408.44,223.28L408.94,224.16L408.61,225.11L408.89,226.66L410.11,226.52L411.27,228.17L415.66,229.07L416.96,229.67L416.87,230.88L419.46,229.94L420.92,226.63L421.48,226.13L423.93,228.65L427.98,228.9L429.52,228.56L433.11,227.09L433.45,226.56L434.48,220.95L435.2,220.7L437.38,220.96L437.88,223.26L438.58,223.53L439.26,222.73L440.53,223.5L439.96,225.07L441.51,226.58L440.53,227.26L440.7,228.83L441.9,228.46L442.69,232.47L443.99,234.97L445.86,237.77L445.62,239.92L444.26,238.8L442.88,240.02L442.76,241.43L441.41,242.26L441.68,243.79L440.95,243.83L440.22,244.79L442.24,247.95L441.4,248.73L442.01,250.85L444.4,253.23L446.26,252.21L447.15,253.01L446.63,254.27L446.96,255.38L449.75,256.33L450.25,256.89L451.65,257.42L453.04,258.4L454.89,261.94L456.46,264.7L457.24,265.05L455.34,267.15L445.23,274.24L444.58,274.45L444.21,273.91L441.74,273.52L442.11,272.67L439.74,269.65L438.67,269.81L436.5,266.25L431.29,267.45L428.34,275.37L424.74,275.08L424.5,277.8L421.87,278.02L418.41,281.24L416.7,283.46L414.82,286.3Z" class="land" id="KZ-AKT" title="Aqtöbe oblysy"/>
    <path d="M611.65,294.54L612.87,295.48L614.35,295.8L614.7,296.85L614.37,298.41L613.46,299.75L611.46,298.35L608.91,299.32L607.74,298.73L607.48,297.49L606.64,296.76L604.89,297.88L601.64,298.56L601.38,299.1L599.48,299.67L598.6,299.3L597.36,299.88L595.98,299.97L593.67,300.86L592.87,300.62L592.13,301.59L591.83,302.68L592.43,303.62L594.56,303.16L596,304.15L596.34,304.76L595.26,305.37L595.63,305.93L595.1,307.47L595.62,309.92L595.74,311.68L596.62,315.2L597.22,316.3L598.55,319.64L597.83,321.36L598.55,321.53L599.02,322.92L598.36,323.48L597.25,323.49L595.5,324.57L595.63,325.19L597.23,326.25L595.58,327.05L594.38,327.04L593.6,329.27L593.97,330.31L594.12,332.58L594.55,333.93L593.25,334.31L592.89,332.85L592.02,332.31L591.65,331.61L589.29,331.13L587.97,331.37L586.78,329.93L585.47,329.07L585.12,327.56L582.99,327.66L579.25,326.16L577.88,326.72L576.57,326.42L575.55,326.92L572.5,326.12L570.33,325.78L568.39,325.95L567.98,325.5L565.16,325.24L564.11,326.14L562.32,325.98L560.88,326.6L560.21,325.98L558.22,326.09L557.29,325.56L556.32,325.82L554.81,325.07L555.04,324.6L552.59,323.66L551.95,320.96L553.09,319.58L552.78,319.05L551.49,319.21L549.4,318.43L549.39,317.67L551.8,315.17L551.6,314.31L552.17,313.36L552.14,311.88L549.4,309.78L547.34,309.55L545.43,307.54L545.82,306.09L544.99,304.67L542.24,302.73L541.74,301.8L541.67,300.32L539.26,300.26L539.11,298L541.7,298.19L541.23,296.95L540.86,292.44L542.36,289.54L543.11,288.3L545.92,285.31L548.26,283.19L553.16,280.36L555.2,280.77L557.83,280.29L560.75,280.81L561.83,280.61L563.11,281.29L563.38,280.65L564.73,280.97L565.7,280.5L566.6,280.97L567.46,280.85L568.31,281.31L571.83,280.86L571.45,274.36L571.69,273.92L573.9,274.42L575.16,273L576.26,274.15L577.64,272.39L580.54,274.78L581.62,274.88L582.04,275.96L585.86,275.53L588.55,279.32L592.63,277.89L594.46,278.65L594.43,279.53L597.36,280.83L599.86,282.23L602.52,282.29L603,283.03L603.89,282.7L604.42,283.66L605.32,283.7L605.7,284.62L608.55,287.96L609.21,290.51L610.61,292.03L610.34,293.89L610.76,294.86Z" class="land" id="KZ-ALM" title="Almaty oblysy"/>
    <path d="M333.71,286.45L332.99,285.26L333.79,285.13ZM366.71,248.54L368.43,249.64L369.66,249.36L370.26,252.4L370.38,253.98L370.03,254.86L373.53,255.43L373.72,253.54L374.56,253.21L375.21,254.22L376.74,254.36L376.79,256.43L376.25,258.68L377.06,261.3L376.75,262.47L378.08,263.98L378.27,266.37L378.86,267.37L377.86,274.56L379.14,276.19L379.67,278.27L382.24,280.87L383.99,281.59L389.02,283.1L389.13,284.74L390.14,286.05L389.98,286.57L390.69,287.95L388.85,287.17L388.25,287.47L385.23,286.19L384.93,284.22L383.87,284.6L383.32,284.25L382.28,282.78L380.26,284.79L379.31,284.65L375.92,285.01L374.28,285.65L372.98,285.68L369.12,286.92L368.66,287.8L366.7,289.26L367.05,290.33L363.95,291.77L362.63,291.6L362.35,292.28L361.2,292.22L359.23,291.73L359.35,291.09L360.3,290.08L359.4,288.12L359.5,287.2L360.42,286.05L360.74,284.69L361.53,283.84L360.86,283.06L360.81,280.59L360.14,280.11L358.23,279.84L357.79,278.13L356.52,278.38L355.3,279.51L353.94,279.39L350.17,278.4L348.19,276.77L347.07,276.44L345.58,276.45L344.65,277.39L343.07,277.08L341.08,277.85L340.46,278.4L340.17,279.49L339.47,279.18L337.11,279.69L336.27,280.48L335.55,281.79L334.96,281.63L334.36,282.74L332.8,284.06L331.58,284.73L330.51,284.72L329.79,285.32L329.36,283.84L328.71,283.37L327.96,284.11L327.02,284.15L325.18,283.11L324.77,282.36L322.91,281.46L322.24,280.84L322.5,279.9L323.75,279.42L324.56,280.46L325.95,280.4L326.73,279.47L326.44,278.62L324.81,276.42L323.79,273.93L323.33,271.33L321.38,271.09L319.68,267.99L318.57,266.91L315.44,267.13L313.05,266.24L312.79,268.01L311.24,267.09L310.94,265.97L309.71,263.88L311.34,262.88L310.39,262.54L310.39,261.17L309.7,260.65L310.99,261.08L312,261.03L316.37,261.71L323.94,262.56L326.31,263.23L330.51,264.9L330.44,263.57L333.12,263.71L333.58,263.33L335.03,263.37L336.76,261.58L341.48,258.4L343.96,257.31L344.44,255.81L346.22,255.69L347.24,255.22L350.87,255.85L350.73,257.59L353.48,258.22L354.16,257.63L356.04,258.7L357.57,258.31L357.38,257.67L357.98,255.14L359.01,255.1L358.88,251.93L359.64,252.27L360.68,251.33L363.66,251.33Z" class="land" id="KZ-ATY" title="Atyraū oblysy"/>
    <path d="M538.33,220.8L541.29,221.87L541.7,223.46L541.13,225.64L541.18,226.99L540.49,227.58L540.23,228.76L541.49,230.15L544.8,229.5L546.2,229.77L546.18,230.75L547.35,230.7L549.7,233.15L549.64,234L550.63,234.39L550.6,235.3L548.88,235.82L548.35,236.47L548.64,237.49L550.22,237.57L552.41,235.72L554.93,235.8L559.15,234.61L560.27,235.26L561.27,234.25L562.91,233.75L564.19,233.76L564.14,232.44L564.68,230.3L565.56,229.44L567.22,229.01L568.73,230.62L570.53,230.69L571.94,231.6L572.44,233.41L571.76,234.35L572.75,235.06L572.56,235.82L570.62,237.81L569.02,238.64L568.24,238.66L568.01,239.68L568.12,242.18L567.35,243.38L565.12,244.21L563.09,245.18L562.97,245.94L565.65,248.48L565.67,249.32L567.19,250.59L565.48,251.05L565.35,252.41L565.96,253.62L569.47,253.04L569.82,254.09L569.47,256.06L567.89,257.69L566.8,257.5L566.09,259.45L566.94,260.36L568.29,260.32L567.53,261.6L568.63,262.61L568.35,265.42L567.93,265.4L566.99,268.36L567.36,268.96L567.91,271.56L566.31,271.35L565.99,273.21L566.53,274.63L568.64,275.72L569.58,274.24L570.6,274.74L571.45,274.36L571.83,280.86L568.31,281.31L567.46,280.85L566.6,280.97L565.7,280.5L564.73,280.97L563.38,280.65L563.11,281.29L561.83,280.61L560.75,280.81L557.83,280.29L555.2,280.77L553.16,280.36L548.26,283.19L545.92,285.31L543.11,288.3L542.36,289.54L528.19,289.38L519.97,289.68L518.45,289.57L511.58,289.75L499.43,289.77L483.2,289.52L482.65,288.2L479.25,288.39L468.05,285.34L466.46,284.46L464.9,282.68L463.11,282.53L458.8,280.2L457.92,280.17L453.61,278.49L452.41,278.62L449.87,277.19L448.72,277.28L446.41,275.43L442.87,276.1L445.23,274.24L455.34,267.15L457.24,265.05L456.46,264.7L454.89,261.94L457.31,259.73L456.84,258.19L460.04,257.48L459.38,256.64L459.36,255.38L461.18,255.45L461.61,252.11L468.23,253.21L470.47,252.59L471.04,251.19L473.71,251.09L476.28,248.24L477.59,248.08L478.15,246.12L479.27,246.24L479.73,245.1L481.04,243.89L482.85,242.83L485.71,239.55L487.61,237.09L487.21,236.28L487.46,235.05L488.89,234.87L490.46,234.19L491.83,232.48L490.23,231L490.1,229.56L491.31,229.31L492.12,229.94L495.29,227.67L497.96,227.59L497.84,230.61L496.88,234.28L497.25,235.27L499,236.37L501.98,234.65L501.67,233.66L502.84,233.02L503.48,233.31L504.34,235.54L505.91,235.39L508.58,234.62L509.42,235.66L508.66,236.78L509.15,238.01L512.3,236.22L511.77,234.87L513.62,234.03L514.34,232.28L515.65,231.97L516.79,231.17L517.27,230.2L518.94,229.75L519.18,228.45L521.55,227.68L523.25,228.97L522.66,229.77L522.86,232.08L524.66,231.89L526.19,232.13L526,230.85L527.74,229.74L528.92,228.16L530.16,228.09L531.42,225.93L532.8,226.52L534.06,224.89L536.34,224.15L537.62,222.92L534.85,221.67L535.26,221.02L536.87,220.36Z" class="land" id="KZ-KAR" title="Qaraghandy oblysy"/>
    <path d="M473.12,172.76L473.49,175.06L474.47,177.75L472.82,178.34L475.04,179.41L475.51,180.66L472.25,182.15L473.15,185.04L474.24,184.8L474.26,187.12L473.18,188.34L473.56,189.46L475,189.61L475.09,193.44L476.39,194.26L476.17,195.21L474.91,194.94L473.06,195.79L473.8,197.22L473.75,200.16L472.83,200.4L472.73,204.93L472.66,208.24L471.61,209.12L470.88,212.9L468.63,214.05L467.14,213.91L467.57,215.4L468.64,215.46L469.42,217.08L468.7,219.19L467.88,220.6L468.13,222L469.96,223.78L469.4,226.45L469.72,227.16L471.43,226.96L471.97,225.21L473.57,226.16L473.65,227.25L475.29,227.23L475.73,229.02L476.8,228.74L477.47,229.23L479.76,230.04L481.88,229.43L482.62,229.7L483.18,231.1L482.23,231.66L483.45,233.55L485.47,232.26L489.21,231.77L490.23,231L491.83,232.48L490.46,234.19L488.89,234.87L487.46,235.05L487.21,236.28L487.61,237.09L485.71,239.55L482.85,242.83L481.04,243.89L479.73,245.1L479.27,246.24L478.15,246.12L477.59,248.08L476.28,248.24L473.71,251.09L471.04,251.19L470.47,252.59L468.23,253.21L461.61,252.11L461.18,255.45L459.36,255.38L459.38,256.64L460.04,257.48L456.84,258.19L457.31,259.73L454.89,261.94L453.04,258.4L451.65,257.42L450.25,256.89L449.75,256.33L446.96,255.38L446.63,254.27L447.15,253.01L446.26,252.21L444.4,253.23L442.01,250.85L441.4,248.73L442.24,247.95L440.22,244.79L440.95,243.83L441.68,243.79L441.41,242.26L442.76,241.43L442.88,240.02L444.26,238.8L445.62,239.92L445.86,237.77L443.99,234.97L442.69,232.47L441.9,228.46L440.7,228.83L440.53,227.26L441.51,226.58L439.96,225.07L440.53,223.5L439.26,222.73L438.58,223.53L437.88,223.26L437.38,220.96L435.2,220.7L434.19,219.66L433.82,218.65L431.93,218.7L431,218.06L429.48,217.94L428.76,215.94L426.16,215.89L425.1,215.55L424.23,214.73L425.26,213.7L422.44,211.88L421.4,211.67L421.45,210.68L422.85,210.54L425.52,208.2L427.07,208.19L427.7,207.32L429.15,206.73L430.07,205.83L429.23,203.5L428.11,203.18L428.09,201.87L427.01,201.38L427.03,200.14L427.96,199.85L430.09,197.72L429.67,196.76L431.48,196.02L432.63,196.67L433.39,195.98L434.95,197L435.58,196.52L437.1,196.33L438.09,197.17L439.19,196.4L438.96,194.81L436.3,194.18L434.78,193.39L433.42,193.28L432.84,192.66L431.02,192.25L430.8,190.95L431.56,189.46L433.57,189.88L434.41,189.31L434.21,188.24L432.49,188.47L430.79,188.33L429.75,187.71L430.4,186.2L431.32,185.03L429.77,182.75L430.8,182.64L432.29,180.91L433.4,180.85L434.43,182.15L435.77,181.65L438.38,182.51L438.64,181.27L440.89,181.57L441.91,183.16L445.31,180.44L447.11,180.61L447.97,180.23L448.02,179.27L451,179.08L454.12,177.9L455.41,177.96L458.86,177.27L461.5,176.15L462.08,176.71L463.52,175.93L464.67,177.11L465.77,176.7L465.43,174.39L468,172.52L469.96,173.19L470.9,171.89L471.87,172.81Z" class="land" id="KZ-KUS" title="Qostanay oblysy"/>
    <path d="M439.74,269.65L442.1,272.67L441.73,273.52L444.19,273.91L444.58,274.45L442.87,276.1L446.41,275.43L448.72,277.28L449.87,277.19L452.41,278.62L453.61,278.49L457.91,280.17L458.79,280.2L463.1,282.53L464.89,282.68L466.45,284.46L468.03,285.34L479.25,288.39L482.65,288.2L483.2,289.52L483.08,290.54L484.42,291.59L484.68,292.43L483.92,293.72L483.57,295.9L483.02,297.91L484.65,299.26L486.02,299.85L486.07,308.31L485.8,309.29L486.71,310.19L487.23,310.02L488.25,310.98L489.22,312.18L491.58,313.86L490.99,314.47L490.65,314.2L489.68,314.88L490.12,315.8L489.66,317.25L488.81,316.51L488.82,318.38L487.99,319.22L487.88,320.59L487.02,320.84L487.27,321.98L487.97,320.74L488.55,322.68L489.13,322.9L485.45,324.87L483.15,325.72L481.01,327.34L478.59,329.78L477.39,329.04L473.92,332.65L473.18,332.46L473.11,325.47L470.78,326.57L469.27,321.47L466.22,318.62L465.16,316.27L463.78,315.99L459.53,317.97L454.38,317.64L449.84,317.1L446.05,317.77L438.25,319.31L437.8,319.01L431.81,311.59L430.69,310.45L430.28,309.15L426.26,306.24L426.95,305.71L427.37,303.99L426.81,301.88L425.95,301.42L425.17,299.79L425.37,297.14L424.77,296.12L425.23,294.21L424.43,291.61L424.87,291.3L425.39,289.37L426.61,289.07L427.85,287.36L431.01,285.84L431.55,284.91L431.66,282.71L430.86,283.04L428.36,282.85L427.51,281.81L427.7,279.72L426.66,279.16L425.43,279.63L426.89,280.34L426.89,280.91L425.76,281.71L424.16,281.24L422.92,280.35L420.97,281.65L420.56,283.01L421.32,284.29L422.4,284.55L424.36,284.13L425.5,285.07L426.86,284.13L427.62,286.06L427.42,287.58L426.5,288.16L424.88,288.39L423.38,287.4L421.34,287.04L420.18,287.98L419.3,287.86L419.24,285.52L418.38,284.99L416.66,285.05L416.68,285.54L417.84,287.54L417.88,289.65L416.96,290.63L416.6,291.7L414.48,292.04L414.54,290.81L415.56,289.29L414.78,288.81L413.94,289.49L412.64,289.25L414.8,286.3L416.69,283.46L418.4,281.24L421.86,278.02L424.49,277.8L424.74,275.08L428.34,275.37L431.27,267.45L436.5,266.25L438.67,269.81ZM419.9,294.03L418.98,294.03L419.04,292.47L421.2,292.2L422.51,292.78L420.84,293.85ZM415.73,298.62L411.47,295.53L411.8,294.35L412.68,294.48L413.52,293.6L414.66,294.04L415,297.44Z" class="land" id="KZ-KZY" title="Qyzylorda oblysy"/>
    <path d="M357.76,294.9L358.4,296.47L357.77,296.54L357.04,295.43ZM337.9,300.37L338.37,301.3L337.56,302.44L337.09,300.83ZM359.23,291.73L361.2,292.22L362.35,292.28L362.63,291.6L363.95,291.77L367.05,290.33L366.7,289.26L368.66,287.8L369.12,286.92L372.98,285.68L374.28,285.65L375.92,285.01L379.31,284.65L380.26,284.79L382.28,282.78L383.32,284.25L383.87,284.6L384.93,284.22L385.23,286.19L388.25,287.47L388.85,287.17L390.69,287.95L391.46,290.1L392.69,299.21L386.62,301.22L386.64,344.46L385.5,344.42L382.49,345.2L380.5,343.35L379.32,341.51L378.68,340L377.8,338.93L377.71,337.69L376.66,336.39L373.39,334.06L371.12,332.7L369.11,332.76L365.96,333.27L364.54,333.66L360.59,335.46L357.76,338.01L356.54,338.24L356.57,337.33L355.96,335.7L356.09,334.79L357.25,333.06L358.61,329.74L358.69,328.23L357.6,327.32L356.07,326.92L354.84,327.53L354.37,326.75L353.49,326.49L351.47,326.89L350.39,324.74L349.4,323.8L348.92,322.88L346.35,323.33L346.13,322.56L346.48,321.11L346.44,319.51L346.1,318.43L345.14,317.67L344.01,315.65L343.69,313.9L342.64,312.9L342.71,312.11L341.87,310.42L340.31,309.85L338.71,309.72L337.56,309.07L337.27,308.5L337.24,306.77L337.89,305.51L341.5,305.97L342.95,305.91L344.56,307.53L345.47,307.55L346.42,306.2L345.25,304.34L343.81,303.29L342.74,303.5L342.67,302.47L343.37,301.5L344.29,301.31L345.29,300.43L346.23,298.2L347.44,296.78L348.45,297.04L349.73,296.38L350.11,295.8L351.69,296.42L352.76,296.22L354.73,296.28L356.13,295.92L357.27,296.1L357.52,296.56L358.26,296.86L358.81,296.45L358.54,295.22L359.04,294.26L358.58,293.69L359.32,292.9Z" class="land" id="KZ-MAN" title="Mangghystaū oblysy"/>
    <path d="M586.61,214.81L585.97,214.89L585.74,216.24L584.42,216.58L584.65,217.33L583.31,218.13L581.59,218.38L581.94,219.68L579.81,221.3L577.9,221.93L576.04,222.97L577.07,224.46L577.3,225.84L581.4,228.67L581.09,231.68L581.9,231.91L582.15,233.66L581.56,234.27L580.09,236.96L578.9,237.5L577.51,237.16L572.75,235.06L571.76,234.35L572.44,233.41L571.94,231.6L570.53,230.69L568.73,230.62L567.22,229.01L565.56,229.44L564.68,230.3L564.14,232.44L564.19,233.76L562.91,233.75L561.27,234.25L560.27,235.26L559.15,234.61L554.93,235.8L552.41,235.72L550.22,237.57L548.64,237.49L548.35,236.47L548.88,235.82L550.6,235.3L550.63,234.39L549.64,234L549.7,233.15L547.35,230.7L546.18,230.75L546.2,229.77L544.8,229.5L541.49,230.15L540.23,228.76L540.49,227.58L541.18,226.99L541.13,225.64L541.7,223.46L541.29,221.87L538.33,220.8L539.26,219.7L539.39,218.72L541.3,217.47L542.17,217.72L543.18,216.93L541.33,216.35L540.9,215.33L539.32,216.11L539.37,213.5L541.19,211.75L540.99,202.91L540.51,202.6L540.46,202.04L538.86,201.92L540.84,199.9L541.19,198.92L540.71,197.61L539.47,197.78L538.96,199.18L537.8,199.2L537.58,198.06L538.19,197.35L537.59,195.96L538.02,194.72L538.93,193.93L537.95,193.27L536.2,194.83L536.19,192.2L537.24,192.21L536.08,190.1L537.78,188.47L538,187.53L539.36,188.08L539.96,187.18L541.42,187.51L542.08,188.58L544.24,189.88L544.94,188.17L544.83,186.67L546.28,186.91L546.66,185.61L547.66,184.75L549.49,185.21L552.64,182.85L553.48,181.92L552.75,180.88L554.59,180.53L559.86,178.07L560.89,177.25L563.49,177.01L564.21,175.97L565.89,175.39L565.29,176.91L565.13,178.65L564.32,179.74L561.57,179.62L562.6,182.19L564.44,183.98L571.36,189.59L574.28,192.5L577.18,197.13L579.75,201.91L584.24,209.97Z" class="land" id="KZ-PAV" title="Pavlodar oblysy"/>
    <path d="M536.08,190.1L537.24,192.21L536.19,192.2L536.2,194.83L537.95,193.27L538.93,193.93L538.02,194.72L537.59,195.96L538.19,197.35L537.58,198.06L537.8,199.2L538.96,199.18L539.47,197.78L540.71,197.61L541.19,198.92L540.84,199.9L538.86,201.92L540.46,202.04L540.51,202.6L537.19,202.35L535.83,200.63L534.67,200.66L533.02,199.83L531.93,200.3L531.32,196.29L528.48,196.32L526.82,196.69L526.42,197.74L524.39,197.89L521.89,197.58L521.36,196.56L522.24,193.54L519.65,191.03L518.06,192.35L515.82,191.83L515.87,190.56L512.25,190.66L512.04,191.86L510.46,192.45L509.58,191.34L507.43,191.35L508.29,190.08L506.26,188.94L506.16,187.46L505.6,186.62L503.74,186.59L502.32,187.27L501.95,188.71L500.35,186.93L499.54,187.6L496.71,187.5L496.95,188.68L495.69,188.64L495.65,189.61L494.32,190.85L495.72,192.95L496.68,193.03L497.48,195.99L496.17,197.21L496.83,199.35L494.06,200.94L493.45,202.5L492.5,202.38L491.8,203.34L490.56,203.31L491.36,204.91L489.41,207.08L486.55,204.99L484.64,205.04L484.74,208L482.93,207.35L482.38,207.67L480.56,207.08L477.81,207.08L477.75,205.72L476.12,205.97L474.83,206.54L474.11,205.01L472.73,204.93L472.83,200.4L473.75,200.16L473.8,197.22L473.06,195.79L474.91,194.94L476.17,195.21L476.39,194.26L475.09,193.44L475,189.61L473.56,189.46L473.18,188.34L474.26,187.12L474.24,184.8L473.15,185.04L472.25,182.15L475.51,180.66L475.04,179.41L472.82,178.34L474.47,177.75L473.49,175.06L473.12,172.76L475.22,171.96L479.1,170.82L481.25,170.69L483.24,170L483.42,169.43L485.57,169.74L487.37,169.07L487.63,168.19L488.62,167.69L489.6,168.18L491.13,167.96L491.87,166.3L490.92,164.53L494.83,164.24L495.61,162.23L496.37,162.04L497.54,160.85L499.16,161.49L499.56,162.24L500.79,161.89L503.69,162.19L505.09,162.8L505.84,164.1L508.39,165.34L509.92,164.36L510.35,163.35L511.91,163.46L513.55,162.86L515.28,166.61L515.09,169.14L516.26,171.67L517.64,172.3L516.7,174.16L517.08,176.31L516.83,177.35L515.87,177.25L515.72,178.92L516.89,180.46L518.12,179.4L520.71,180.58L521.49,180.06L521.66,178.45L524.37,178.72L525.17,176.83L525.91,177.4L526.21,179.22L527.06,179.82L527.25,181.51L526.89,182.76L527.88,183.33L528.4,182.23L528.12,181.39L528.8,180.12L532.06,180.64L532.82,182.14L534.7,182.76L536.74,182.81L536.6,181.99L538.65,181.29L538.14,184.08L536.2,183.79L536.13,184.79L535.21,185.06L535.04,186.61L534.34,188.27L535.65,188.86Z" class="land" id="KZ-SEV" title="Soltüstik Qazaqstan oblysy"/>
    <path d="M611.65,294.54L610.76,294.86L610.34,293.89L610.61,292.03L609.21,290.51L608.55,287.96L605.7,284.62L605.32,283.7L604.42,283.66L603.89,282.7L603,283.03L602.52,282.29L599.86,282.23L597.36,280.83L594.43,279.53L594.46,278.65L592.63,277.89L588.55,279.32L585.86,275.53L582.04,275.96L581.62,274.88L580.54,274.78L577.64,272.39L576.26,274.15L575.16,273L573.9,274.42L571.69,273.92L571.45,274.36L570.6,274.74L569.58,274.24L568.64,275.72L566.53,274.63L565.99,273.21L566.31,271.35L567.91,271.56L567.36,268.96L566.99,268.36L567.93,265.4L568.35,265.42L568.63,262.61L567.53,261.6L568.29,260.32L566.94,260.36L566.09,259.45L566.8,257.5L567.89,257.69L569.47,256.06L569.82,254.09L569.47,253.04L565.96,253.62L565.35,252.41L565.48,251.05L567.19,250.59L565.67,249.32L565.65,248.48L562.97,245.94L563.09,245.18L565.12,244.21L567.35,243.38L568.12,242.18L568.01,239.68L568.24,238.66L569.02,238.64L570.62,237.81L572.56,235.82L572.75,235.06L577.51,237.16L578.9,237.5L580.09,236.96L581.56,234.27L582.15,233.66L581.9,231.91L581.09,231.68L581.4,228.67L577.3,225.84L577.07,224.46L576.04,222.97L577.9,221.93L579.81,221.3L581.94,219.68L581.59,218.38L583.31,218.13L584.65,217.33L584.42,216.58L585.74,216.24L585.97,214.89L586.61,214.81L589.07,220.08L591.57,225.2L592.48,226.81L593.82,226.59L594.32,225.29L596.18,224.65L596.23,222.92L595.94,221.5L597.5,221.48L597.92,220.1L599.91,220.8L601.17,221.72L601.97,221.55L601.26,224.86L604.08,224.35L604.84,226.74L604.84,227.59L607.27,227.4L608.11,226.73L609.19,226.88L610.06,227.57L610.98,227.66L612.34,227.18L613.99,227.44L615.31,226.3L615.45,225.06L617.52,225.42L619.14,223.98L620.37,224.11L622.66,224.84L624.81,225.87L625.94,227.15L626.08,227.99L628.3,230.64L628.44,233.72L629.31,234.83L630.51,234.43L632.13,235.33L633.57,236.48L634.41,236.56L635.21,237.4L634.79,238.31L635.12,239.2L635.89,239.43L636.67,241.25L636.81,242.72L638.59,243.55L639.71,243.03L640.77,243.65L642.86,243.68L643.38,244.58L647.2,242.56L648.56,241.2L648.81,240.38L650.43,240.38L650.26,241.61L648.88,242.53L648.98,243.32L650.42,243.81L650.52,245.06L651.34,245.53L651.28,246.36L652.44,247.59L653.74,247.71L654.52,248.29L654.79,249.43L653.27,248.98L651.85,249.64L651.02,249.46L649.75,251.08L649.84,252.07L650.49,252.9L649.95,253.9L650.09,254.67L648.98,255.84L648.59,256.89L647.26,257.52L646.28,257.44L645.39,258.28L643.68,258.1L642.18,258.41L641.25,259.17L640.22,261.87L640.23,262.81L639.63,264.65L640.31,268.88L640.16,270L640.97,271.54L640.96,273.65L639.93,274.16L639.52,275.81L636.9,275.88L636.62,276.47L634.67,278.17L632.45,278.64L633.15,277.71L632.46,276.6L630.77,276.83L630.1,276.42L628.26,276.56L626.75,276.99L622.83,275.82L620.87,274.37L619.36,273.74L618.13,273.89L617.81,275.85L617.32,276.4L616.92,278.11L616.21,279.69L615.49,282.97L614.25,285.52L613.75,287.13L613.62,289.2L611.93,293.04Z" class="land" id="KZ-VOS" title="Shyghys Qazaqstan oblysy"/>
    <path d="M483.2,289.52L499.43,289.77L500.98,292.32L501.74,294.85L502.92,297.86L503.98,302.46L504.47,303.16L505.13,306.79L505.9,312.04L504.83,314.22L504.69,315.58L503.61,318.28L502.47,320.19L503.14,320.88L503.51,322.03L504.67,322.18L505.57,322.85L506.97,322.97L507.7,323.43L508.83,325.85L508.7,328.15L510.23,328.67L512.57,331.46L514.11,332.73L514.23,334.09L513.34,334.22L512.33,335.39L511.9,336.64L510.24,335.15L509.29,336.25L509.36,336.93L508.59,337.32L507.9,338.44L506.45,339.11L506.09,339.91L505.1,339.88L503.28,340.58L502.37,341.72L501.43,342.37L499.55,343.01L498.72,344.21L498.25,344.19L497.49,345.89L496.79,346.39L495.78,348.22L494.93,348.8L494.55,347.9L493.82,348.29L494.01,349.19L493.85,350.57L494.66,352.03L495.27,352.66L493.87,353.15L492.97,352.89L490.24,350.83L488.45,349.7L489.34,349.25L489.35,347.36L488.56,347.1L487.14,345.78L483.5,345.68L477.46,345.22L476.82,337.84L472.35,337.3L472.39,333.8L472.58,332.37L473.18,332.46L473.92,332.65L477.39,329.04L478.59,329.78L481.02,327.34L483.15,325.72L485.46,324.87L489.13,322.9L488.55,322.68L487.97,320.74L487.27,321.98L487.03,320.84L487.89,320.59L488,319.22L488.82,318.38L488.81,316.51L489.66,317.25L490.13,315.8L489.69,314.88L490.65,314.2L490.99,314.47L491.59,313.86L489.24,312.18L488.25,310.98L487.23,310.02L486.71,310.19L485.8,309.29L486.07,308.31L486.02,299.85L484.67,299.26L483.02,297.91L483.57,295.9L483.92,293.72L484.68,292.43L484.42,291.59L483.08,290.54Z" class="land" id="KZ-YUZ" title="Ongtüstik Qazaqstan oblysy"/>
    <path d="M374.35,230.38L372.63,233.22L373.27,234.12L373.15,236.19L374.16,236.93L373.91,238.77L371.22,242.94L369.43,242.83L367.77,244.06L366.63,247.32L366.71,248.54L363.66,251.33L360.68,251.33L359.64,252.27L358.88,251.93L359.01,255.1L357.98,255.14L357.38,257.67L357.57,258.31L356.04,258.7L354.16,257.63L353.48,258.22L350.73,257.59L350.87,255.85L347.24,255.22L346.22,255.69L344.44,255.81L343.96,257.31L341.48,258.4L336.76,261.58L335.03,263.37L333.58,263.33L333.12,263.71L330.44,263.57L330.51,264.9L326.31,263.23L323.94,262.56L316.37,261.71L312,261.03L310.99,261.08L309.7,260.65L308.93,259.74L305.21,258.18L307.66,251.76L309.02,250.91L310.01,248.8L309.74,248.22L307.7,246.6L308.01,243.64L308.35,242.97L308.64,239.91L310.49,239.06L311.48,238.22L312.46,236.36L311.79,235.11L312.29,233.33L314.28,231.57L316.55,233.34L318.95,236.55L319.23,237.84L319.98,238.97L321.83,239.92L324.42,238.74L325.64,237.46L324.65,236.41L324.8,235.36L324.12,233.89L323.57,230.5L324.12,229.41L325.18,229.72L326.16,228.93L327.48,227.24L330.2,226.23L329.45,224.33L330.29,222.54L332.99,222.74L334.69,221.11L338.4,219.66L338.24,218.38L339.19,218.3L339.65,216.07L340.11,215.5L341.39,215.69L341.61,213.81L342.64,214.16L342.87,214.97L344.34,215.15L346.1,214.85L346.88,215.35L346.93,216.4L346.17,217.46L347.49,217.7L348.83,216.99L349.37,217.89L350.62,217.14L350.3,216.39L351.16,214.94L353.3,215.31L353.86,214.44L355.48,213.96L355.66,215.3L356.7,216.82L357.09,217.95L358.98,217.48L361.61,217.44L364.05,217.22L366.38,218.99L366.21,220.31L366.58,221.01L368.62,221.54L370.7,222.8L370.93,224.03L372.21,225.95L373.9,226.36L373.13,229.4Z" class="land" id="KZ-ZAP" title="Batys Qazaqstan oblysy"/>
    <path d="M542.36,289.54L540.86,292.44L541.23,296.95L541.7,298.19L539.11,298L539.26,300.26L541.67,300.32L541.74,301.8L542.24,302.73L544.99,304.67L545.82,306.09L545.43,307.54L547.34,309.55L549.4,309.78L552.14,311.88L552.17,313.36L551.6,314.31L551.8,315.17L549.39,317.67L549.4,318.43L551.49,319.21L552.78,319.05L553.09,319.58L551.95,320.96L552.59,323.66L555.04,324.6L554.81,325.07L556.32,325.82L555.48,327.4L554.61,327.13L553.01,327.11L552.11,326.71L550.7,326.79L549.39,325.74L547.96,324.96L547.13,325.1L546.03,323.6L544.94,322.87L543.3,322.24L541.23,323.18L540.39,322.78L539.85,323.89L538.89,323.76L537.11,324.63L536.5,326.12L536.53,327.57L535.85,329.39L535.98,330.75L536.6,331.83L535.19,331.71L534.88,330.9L533.14,330.45L532.01,330.54L530.63,330.07L530.03,329.25L528.85,328.75L527.93,328.71L526.07,327.84L524.69,328.11L522.49,326.99L520.47,327.78L519.53,327.26L517.47,327.6L516.51,329.59L515.44,329.72L515.05,330.92L514.11,332.73L512.57,331.46L510.23,328.67L508.7,328.15L508.83,325.85L507.7,323.43L506.97,322.97L505.57,322.85L504.67,322.18L503.51,322.03L503.14,320.88L502.47,320.19L503.61,318.28L504.69,315.58L504.83,314.22L505.9,312.04L505.13,306.79L504.47,303.16L503.98,302.46L502.92,297.86L501.74,294.85L500.98,292.32L499.43,289.77L511.58,289.75L518.45,289.57L519.97,289.68L528.19,289.38Z" class="land" id="KZ-ZHA" title="Zhambyl oblysy"/>
    <path d="M426.26,306.24L415.73,298.62L415,297.44L414.66,294.04L413.52,293.6L412.68,294.48L411.8,294.35L411.47,295.53L409.35,293.99L408.56,294.3L409.25,293.26L409.29,292.41L410.05,290.56L410.85,289.76L412.47,289.18L412.64,289.25L413.94,289.49L414.78,288.81L415.56,289.29L414.54,290.81L414.48,292.04L416.6,291.7L416.96,290.63L417.88,289.65L417.84,287.54L416.68,285.54L416.66,285.05L418.38,284.99L419.24,285.52L419.3,287.86L420.18,287.98L421.34,287.04L423.38,287.4L424.88,288.39L426.5,288.16L427.42,287.58L427.62,286.06L426.86,284.13L425.5,285.07L424.36,284.13L422.4,284.55L421.32,284.29L420.56,283.01L420.97,281.65L422.92,280.35L424.16,281.24L425.76,281.71L426.89,280.91L426.89,280.34L425.43,279.63L426.66,279.16L427.7,279.72L427.51,281.81L428.36,282.85L430.86,283.04L431.66,282.71L431.55,284.91L431.01,285.84L427.85,287.36L426.61,289.07L425.39,289.37L424.87,291.3L424.43,291.61L425.23,294.21L424.77,296.12L425.37,297.14L425.17,299.79L425.95,301.42L426.81,301.88L427.37,303.99L426.95,305.71ZM419.9,294.03L420.84,293.85L422.51,292.78L421.2,292.2L419.04,292.47L418.98,294.03Z" class="land" id="KZ-ALS" title="Aral Sea"/>
  </g>
</svg>