<?xml version="1.0" encoding="UTF-8"?>
<svg xmlns="http://www.w3.org/2000/svg" width="127.33" height="262.3" viewBox="416.34 125.85 127.33 262.3" style="background-color:#000000">
  <!-- Created using SVG Map Generator: dojo.amcharts.com/svg-map-generator -->
  <style>
    .land { fill: #ffffff; stroke: #000000; stroke-width: 0.65; }
  </style>
  <g id="polygons">
    <path d="M425.87,292.5L452.38,292.28L455.36,290.56L455.32,278.59L467.04,281.01L472.42,283.5L473.39,284.3L476.09,288.19L478.92,286.19L482.76,284.41L497.86,278.26L497.48,277.39L497.38,275.56L494.15,266.82L492.44,262.98L490.54,259.63L490.29,258.39L495.62,258.49L496.36,257.8L496.27,245.49L502.71,246.11L502.73,249.03L506.73,249.17L506.72,251.2L509.44,251.29L509.58,252.73L510.67,252.82L510.96,251.86L510.4,249.74L511.08,249.2L512.23,249.32L513.63,250.98L514.87,250.27L516.72,254.01L517.45,256.09L518.29,260.54L521.22,264.38L519.42,265.87L521.77,267.59L525.21,269.59L525.88,270.39L526.92,273.29L526.89,274.07L524.03,275.14L523.19,275.76L521.96,277.56L517.98,279.56L512.23,270.38L507.28,273.58L512.42,281.99L507.74,284.12L505.13,285.47L509.45,290.06L504.42,289.23L502.45,289.49L501.76,290.09L499.01,293.39L496.6,292.27L495.97,291.7L482.48,287.83L482.38,305.64L468.82,305.64L468.86,316.75L466.23,316.82L466.2,322.26L464.86,322.23L464.81,327.67L466.19,327.64L466.19,330.9L468.9,330.85L469.01,372.71L469.22,385.33L466.97,385.5L452.75,380.61L443.28,373.95L433.45,353.88L427.01,343.71L429.16,343.17L431.02,341.77L433.6,340.29L434.21,339.42L434.78,336.9L435.31,336.33L435.46,334.68L434.97,333.27L433.67,331.88L433.22,330.21L434.21,325.8L433.97,324.64L434.14,321.58L433.8,321.16L433.9,319.56L432.69,318.09L432.84,316.91L431.24,315.5L431.09,314.7L429.57,313.87L429,311.18L427.9,310.47L425.54,307.31L425.5,303L426.27,300.73L427.79,299.01L427.44,296.15L426.72,294.48L426.72,293.6ZM519.85,269L518.18,266.41L517.47,266.96L519.1,269.59Z" class="land" id="QA-RA" title="Ar Rayyān"/>
    <path d="M517.98,279.56L512.42,281.99L507.28,273.58L512.23,270.38ZM525.86,246.91L525.26,248.88L525.78,250.11L525.1,251.12L525.94,251.76L524.67,253.5L525.14,254.77L526.85,254.88L527.09,255.77L524.38,257.72L523.93,259.13L525.22,260.4L526.48,260.42L526.82,259.62L527.98,259.75L528.12,260.93L529.49,261.66L530.78,260.55L532.47,260.48L532.69,261.43L534.54,261.34L535.5,259.66L536.2,259.46L539.06,266.71L537.4,267.17L535.33,268.42L535.54,271.04L537.72,273.23L537.81,275.85L536.62,275.44L534.44,275.99L532.56,271.84L526.89,274.07L526.92,273.29L525.88,270.39L525.21,269.59L521.77,267.59L519.42,265.87L521.22,264.38L518.29,260.54L517.45,256.09L516.72,254.01L514.87,250.27L514.67,249.41L521.15,245.14L521.46,247.7L523.19,247.7L524.36,246.94L524.77,247.5ZM528.23,248.18L529.43,247.82L530.98,250.83L528.56,250.03L527.35,248.38L526.38,249.53L526.12,248.2L527.23,247.5ZM519.85,269L519.1,269.59L517.47,266.96L518.18,266.41ZM532.87,253.35L531.19,252.91L531.36,252.03L532.39,252.03Z" class="land" id="QA-DA" title="Ad Dawḩah"/>
    <path d="M520.94,160.13L523.59,160.74L524.92,161.62L526.59,163.45L528.38,164.12L531.08,165.45L532.23,164.72L532.91,165.55L534.05,165.65L534.62,166.41L533.68,167.19L534.01,167.78L533.18,169.49L534.9,169.59L539.25,167.22L539.34,167.39L534.94,169.78L531.56,169.64L531.49,171.27L533.14,173.94L534.43,173.18L539.44,170.69L540.1,170.03L541.01,170.31L533.28,174.25L533.77,175.37L534.47,181.84L535.37,183.87L535.22,186.05L534.29,187.93L534.36,189.75L532.94,190.26L532.35,191.15L531.13,190.8L531.17,189.86L532.04,188.96L531,188.13L529.97,189.56L529.72,192.29L528.56,191.85L527.52,190.01L526.1,190.27L526.37,191.49L527.34,192.95L528.22,193.1L529.6,193.96L530.64,195.5L532.09,196.55L532.66,195.39L531.8,194.78L532.39,192.66L534.01,193.39L533.98,194.86L534.64,196.32L533.62,198.64L532.88,199.1L532.87,201.12L531.8,202.04L531.06,201.47L528.93,201.71L529.27,200.95L530.38,200.72L529.76,198.17L527.57,198.13L526.94,197.76L524.85,198.78L523.24,199.07L522.73,200.18L524.08,200.89L527.22,201.27L526.2,203.06L526.07,204.23L528.87,204.57L528.97,208.06L527.01,207.83L520.92,207.89L516.08,205.51L514.27,206.6L513.15,206.86L510.12,209.89L508.32,210.12L509.97,218.83L496.89,219.59L489.43,215.49L486.49,210.52L486.5,210.08L488.57,203.46L488.86,198.99L488.75,197.94L490.77,195.68L469.12,195.68L469.12,186.99L450.41,187.02L450.71,186.43L450.44,184.94L451.7,183.64L451.05,182.84L451.55,181.49L450.48,179.63L449.07,179.71L447.51,178.95L447.48,177.09L447.93,176.07L469.13,176.07L469.13,160.65L471.36,160.65L471.36,158.04L475.59,158.01L474.81,160.65L489.91,160.65L490.07,168.94L500.2,168.91L500.9,169.2L509.73,164.24L514.52,161.62L517.72,160.92L520.94,160.74Z" class="land" id="QA-KH" title="Al Khawr wa adh Dhakhīrah"/>
    <path d="M520.94,160.13L520.94,160.74L517.72,160.92L514.52,161.62L509.73,164.24L500.9,169.2L500.2,168.91L490.07,168.94L489.91,160.65L474.81,160.65L475.59,158.01L471.36,158.04L471.36,160.65L469.13,160.65L469.13,176.07L447.93,176.07L447.55,174.93L448.47,174.13L449.79,173.88L450.82,172.99L449.49,171.68L450.37,169.32L451.2,169.15L452,168.3L452.3,166.11L452.72,165.64L452.27,162.88L452.38,160.1L451.81,159.5L451.85,158.15L451.4,157.01L451.78,155.7L452.42,155.45L453.3,157.19L453.3,158.53L453.86,159.29L454.84,159.05L456.49,157.94L456.49,155.27L458.05,155.36L457.71,152.53L458.65,150.46L458.31,149.18L458.73,148.6L458.58,146.94L458.88,146.35L460.59,145.34L462.37,144.96L464.25,143.73L465.08,142.08L466.48,142.84L467.33,142.46L468.42,140.85L469.3,140.98L469.75,142.29L470.86,142.25L474.05,140.13L474.73,138.18L474.77,136.11L477.06,134.25L478.58,133.49L478.54,132.46L479.18,131.96L481.81,131.87L482.72,131.11L483.63,131.79L485.27,131.15L486.06,129.46L488.2,129.2L489.28,130.77L490.35,130.83L491.28,131.53L492.03,130.97L489.81,128.5L491.21,128.71L492.22,130.18L494.34,132.33L495.73,132.85L496.82,133.96L498.08,134.46L499.98,136.28L502.38,137.39L502.64,138.06L502.14,140.09L502.6,141.82L502.19,142.42L502.23,145.01L505.18,149.91L507.92,151.51L508.11,153.63L507.88,154.94L508.19,155.96L508.19,158.07L510.7,159.93L513.59,161.12L514.8,161.16L519.98,160.14Z" class="land" id="QA-MS" title="Ash Shamāl"/>
    <path d="M450.41,187.02L469.12,186.99L469.12,195.68L490.77,195.68L488.75,197.94L488.86,198.99L488.57,203.46L486.5,210.08L486.49,210.52L489.43,215.49L489.43,217.47L487.91,217.44L488.36,219L489.21,219.05L489.47,219.93L489.43,244.32L489.62,244.46L496.27,245.49L496.36,257.8L495.62,258.49L490.29,258.39L490.54,259.63L492.44,262.98L494.15,266.82L497.38,275.56L497.48,277.39L497.86,278.26L482.76,284.41L478.92,286.19L476.09,288.19L473.39,284.3L472.42,283.5L467.04,281.01L455.32,278.59L455.36,290.56L452.38,292.28L425.87,292.5L425.35,291.33L424.02,289.73L422.27,288.6L421.89,287.84L422.01,286.09L422.53,283.06L422.42,280.21L421.48,277.26L421.11,274.73L421.19,273.42L420.77,272.18L421.08,269.33L420.6,266.65L420.86,263.94L420.62,262.05L421.66,259.65L421.04,255.62L420.93,252.79L420.36,252.24L420.66,250.82L420.64,248.03L420.36,247.3L420.66,245.83L419.53,244.43L419.99,242.86L418.99,241.24L419.53,239.99L419.56,238.61L420.53,233.48L421.33,231.72L420.94,229.75L419.97,228.33L421.83,226.43L423.98,224.67L425.62,224.9L426.72,226.58L427.46,229.63L428.31,230.03L428.76,231.06L428.64,232.51L429.05,234.57L430.29,235.48L431.02,235.39L432.13,234.44L432.23,233.48L431.22,232.82L430.54,231.82L431.63,230.6L430.35,228.49L430.55,227.72L429.63,226.48L429.31,225.48L428.22,225.2L429.07,222.61L430.47,220.99L430.17,219.64L430.5,218.36L429.51,215.75L429.55,214.68L428.18,214.2L426.23,215.28L425.38,214.93L425.05,213.6L425.77,212.96L426.06,211.87L427.53,211.25L428.46,211.47L428.99,210.67L430.14,210.58L432.85,213.64L432.78,211.69L433.88,211.06L431.43,209.61L430.98,208.71L431.76,208.07L433.53,207.72L434.49,207.91L434.84,209L436.48,209.35L436.11,210.62L435.75,213.37L435.14,215.16L434.12,216.33L433.82,217.51L434.96,218.44L435.33,219.76L434.82,221.79L435.56,224.93L436.48,226.01L437.82,226.58L438.34,225.83L437.94,224.54L438.98,224.58L438.69,225.77L439.47,226.99L438.56,228.07L437.71,227.34L436.22,228.93L435.93,229.87L436.64,230.92L436.41,232.47L437.3,232.94L438.17,231.42L439.5,231.6L440.09,232.51L441.34,231.39L439.99,229.09L441.43,228.46L442.21,227.28L441.39,224.96L441.98,224.17L441.36,223.23L440.5,222.81L441.19,219.73L441.75,218.77L441.47,217.41L442.79,215.56L442.36,214.42L443.61,212.84L445.13,212.88L445.95,214.45L447.39,214.96L448.45,214.25L449.23,213.23L448.92,211.46L448.44,210.35L446.29,209.58L445.21,209.79L444.2,210.56L443.39,210.4L441.61,208.89L439.87,206.62L439.31,203.9L438.78,202.76L439.16,202.04L439.05,199.99L438.46,196.73L439.46,195.68L439.93,194.15L441.65,192.7L440.17,188.71L440.42,186.49L441.88,185.38L442.75,184.13L443.57,182.23L444.54,182.32L445.73,183.23L446.96,185L447.48,186.17L446.71,188.49L448.66,188.92L448.85,188.07Z" class="land" id="QA-SH" title="Ash Shīḩānīyah"/>
    <path d="M489.43,215.49L496.89,219.59L509.97,218.83L509.25,226.93L509.37,236.59L509.82,238.76L514.87,250.27L513.63,250.98L512.23,249.32L511.08,249.2L510.4,249.74L510.96,251.86L510.67,252.82L509.58,252.73L509.44,251.29L506.72,251.2L506.73,249.17L502.73,249.03L502.71,246.11L496.27,245.49L489.62,244.46L489.43,244.32L489.47,219.93L489.21,219.05L488.36,219L487.91,217.44L489.43,217.47Z" class="land" id="QA-US" title="Umm Şalāl"/>
    <path d="M526.89,274.07L532.56,271.84L534.44,275.99L536.62,275.44L537.81,275.85L537.5,277.91L536.85,279.22L536.73,281.52L537.77,282.73L538,283.59L537.59,284.83L538.11,288.61L537.77,290.59L538.02,291.7L536.59,294.23L536.57,296.39L537.28,298.86L538.54,298.69L540.69,299.13L540.21,299.69L540.52,301L539.28,302.2L538.54,303.58L538.33,304.94L536.73,308.13L534.17,308.27L532.95,309.9L533.38,311.09L534.28,309.82L535.03,310.24L534.17,311.96L532.17,315.12L530.46,318.57L528.85,320.79L528.33,321.08L526.4,324.13L523.85,326.01L523.21,326.98L522.29,329.71L520.7,332.56L520.39,335.53L519.25,337.62L519.29,340.64L518.76,342.36L517.5,344.41L516.17,346.08L514.95,348.55L514.72,350.06L513.7,352.86L513.2,355.33L511.83,357.24L510.96,357.65L510.11,359.41L508.81,359.29L507.48,359.95L505.79,359.7L505.51,361.43L504.76,362.77L504.69,364L505.22,364.87L504.54,365.87L504.39,367.22L503.31,368.34L501.67,369.15L499.75,371.39L498.97,370.85L499.37,369.18L498.15,367.01L497.72,365.61L498.91,364.66L499.79,365.05L501.57,362.34L501.8,359.94L501.02,360.37L500.05,361.59L500.43,357.21L499.42,357.33L498.63,358.97L497.67,358.42L497.26,359.27L495.11,359.35L493.85,357.59L493.29,357.36L493.47,355.92L493.17,354.06L491.89,356.01L491.66,357.78L490.83,356.83L489.05,357.24L488.24,358.02L487.09,357.44L486.02,358.48L484.61,359.08L483.63,358.37L483.01,361.83L484.42,362.77L485.71,363.05L488.24,363.14L489.91,362.65L492.11,364.51L493.07,364.5L493.88,366.26L495.99,365.55L494.21,368.92L494.37,372.85L494.27,375.54L493.44,376.75L493.45,378.04L494.33,379.44L469.22,385.33L469.01,372.71L468.9,330.85L466.19,330.9L466.19,327.64L464.81,327.67L464.86,322.23L466.2,322.26L466.23,316.82L468.86,316.75L468.82,305.64L482.38,305.64L482.48,287.83L495.97,291.7L496.6,292.27L499.01,293.39L501.76,290.09L502.45,289.49L504.42,289.23L509.45,290.06L505.13,285.47L507.74,284.12L512.42,281.99L517.98,279.56L521.96,277.56L523.19,275.76L524.03,275.14Z" class="land" id="QA-WA" title="Al Wakrah"/>
    <path d="M528.97,208.06L528.3,208.83L528.15,210.52L527.49,211.09L525.79,211.43L525.42,210.06L524.03,209.5L523.47,211.34L523.73,212.19L520.99,212.99L520.22,214.89L520.11,217.01L520.47,219.01L521.48,219.18L521.51,220.82L522.29,221.64L520.63,222.05L519.51,224.46L518.62,225.34L518.24,228.04L519.53,229.1L520.37,230.42L520.43,232.59L522.62,233.44L523.22,234.03L523.55,235.35L524.85,237.71L525.81,238.41L526.38,240.11L524.4,240.38L524.63,241.68L525.6,241.08L526.34,244.93L525.84,245.65L525.86,246.91L524.77,247.5L524.36,246.94L523.19,247.7L521.46,247.7L521.15,245.14L514.67,249.41L514.87,250.27L509.82,238.76L509.37,236.59L509.25,226.93L509.97,218.83L508.32,210.12L510.12,209.89L513.15,206.86L514.27,206.6L516.08,205.51L520.92,207.89L527.01,207.83ZM531.46,243.83L530.64,244.14L529.65,242.8L530.12,242.38Z" class="land" id="QA-ZA" title="Az̧ Za̧`āyin"/>
  </g>
</svg>