<?xml version="1.0" encoding="UTF-8"?>
<svg xmlns="http://www.w3.org/2000/svg" width="485.3" height="241.06" viewBox="237.35 136.47 485.3 241.06" style="background-color:#000000">
  <!-- Created using SVG Map Generator: dojo.amcharts.com/svg-map-generator -->
  <style>
    .land { fill: #ffffff; stroke: #000000; stroke-width: 0.65; }
  </style>
  <g id="polygons">
    <path d="M630.2,262.31L628.91,261.67L628.33,260.5L628.26,259.65L628.82,257.99L628.12,258.05L627.04,257.53L626.04,257.66L621.95,259.92L621.24,260.05L618.85,259.92L616.96,260.25L615.82,259.67L613.52,259.36L611.45,259.55L609.8,259.44L607.9,260L606.46,259.01L605.9,258.06L605.83,256.72L606.74,255.5L606.36,254.72L605.13,254.75L604.84,254.13L600.69,254.52L594.71,256.85L593.48,257.46L593.07,257.18L593.6,256.05L595.25,254.78L596.14,251.47L596.92,250.21L596.52,249.28L595.88,248.87L593.4,249.01L592.28,248.64L591.45,247.63L591.66,244.97L590.65,242.78L590.6,242.16L592.18,242.11L592.28,241.14L593.39,238.69L593.16,237.34L592.5,235.75L592.04,235.24L590.81,236.99L588.63,238.17L587.85,238.05L586.6,238.46L585.46,238L584.52,238.28L583.47,238.03L580.78,237.78L579.19,238.57L578.32,239.24L577.52,239.08L576.7,237.83L574.55,237.73L572.97,238.27L572.33,239.41L571.26,238.46L569.8,238.25L568.86,238.55L567.43,237.36L566.7,236.38L565.94,236.5L565.26,237.52L564.27,237.55L564.04,236.96L564.92,235.72L565.29,233.59L565.38,232.03L563.73,231.34L563.82,230.88L565.17,230.01L566.04,228.53L565.91,227.3L565.51,226.41L563.99,225.78L562.87,225.61L562.06,225.97L561.86,227.26L559.2,227.64L557.42,227.17L556.17,227.21L554.06,226.46L554.23,225.08L553.73,223.38L554.56,222.33L554.89,221.32L556.68,221.69L558,221.42L558.74,221.63L559.91,221.27L560.34,220.56L560.56,219.03L561.91,217.81L561.94,217.06L561.19,216.51L560.18,216.89L559.3,215.94L557.52,215.44L556.9,214.6L556,214.57L554.71,214.06L553.87,213.36L552.29,213.74L550.95,213.65L550.43,212.59L549.72,211.98L547.77,211.75L546.45,212.09L545.72,211.68L541.88,210.43L540.82,211.34L539.04,211.3L537.45,211.92L535.39,211.52L535.22,211.04L536.43,209.24L537.31,209.16L538.45,208.06L538.15,207.12L538.41,205.86L538.92,205.17L538.95,204.37L536.68,203.41L535.98,202.48L536.45,201.84L534.81,200.74L533.71,199.36L533.92,198.43L533.47,197.94L532.47,194.42L532.89,193.5L532.42,192.97L532.39,191.84L532.97,190.24L532.82,189.55L530.29,189.11L529.15,188.61L528.56,190.45L527.49,191.39L526.66,191.25L525.35,191.52L523.57,190.15L523.25,189.07L522.32,189.02L520.56,187.79L519.42,187.55L517.41,186.33L519.63,184.15L520.59,181.94L522.32,181.73L522.58,180.96L523.44,180.51L524.63,181.03L524.85,179.71L524.42,178.55L525,177.27L526.15,177.87L528.09,178.5L528.95,178.2L530.67,178.09L531.25,178.38L533.21,177.2L535.03,177.08L535.71,176.69L537.82,176.06L540.05,176.62L541.21,176.3L541.75,174.52L543.64,173.86L544.06,172.79L548.53,169.74L549.93,168.59L550.86,168.92L552.9,167.96L554.48,166.34L555.75,167.21L557.76,166.9L559.34,167.33L560.49,166.86L561.92,166.92L564.06,166.7L566.38,166.83L568.09,166.58L568.83,165.95L570.32,165.29L572.87,164.94L575.52,164.83L579.27,164.24L581.93,164.35L582.55,162.96L582.9,161.1L584.1,159.91L585.17,159.29L586.55,158.95L587.02,158.39L588.9,158.57L591.86,158.4L595.27,157.36L596.5,157.19L597.84,157.68L599.96,157.44L601.29,157.74L602.26,158.3L604.86,158.33L608.58,159.03L610.41,158.67L611.45,158.82L612.43,160.19L613.2,160.51L614.71,160.44L616.33,161.22L617.37,160.84L618.08,160.99L619.09,162.31L620.73,161.3L622.2,161.75L623.05,162.99L623.93,162.02L625.56,161.58L626.79,161.91L628.66,161.4L629.4,160.87L630.41,160.82L634.35,161.91L635.3,161.91L636.76,161.32L637.04,160.2L638.14,160.69L639.81,160.28L640.94,159.65L642.32,159.29L643.37,159.52L644.61,161.31L645.73,161.38L647.17,162.01L648.88,162.26L649.88,163.6L650.69,164.04L651.66,163.43L652.58,163.91L653.91,163.84L655.22,164.98L656.36,164.85L657.48,165.48L658.24,165.44L659.96,166.01L660.41,166.55L661.36,166.77L662.82,166.51L663.46,166.84L665.17,166.65L665.95,167.09L667.11,168.73L667.72,168.53L668.43,167.02L670.78,166.26L671.84,166.23L671.37,168.31L671.83,170.77L672.26,171.92L672.99,172.65L673.63,173.92L674.27,174.17L675.09,175.23L677.26,176.08L678.86,177.06L680.26,178.3L680.67,179.63L681.31,180.64L681.91,180.94L684.68,183.53L685.62,184.27L686.34,185.65L689.1,185.59L690.47,185.95L692.19,185.6L693.11,184.43L696.58,184.99L696.97,185.79L698.24,185.78L698.58,186.15L701.18,186.51L701.18,187.31L702.09,187.6L702.51,186.7L704.76,186.76L705.63,187.23L706.26,188.35L706.98,190.44L708.73,192.12L710.43,192.54L711.44,193.21L712.17,195.25L712.98,196.5L712.62,199.44L712.91,200.45L713.57,200.57L714.42,199.85L715.55,199.59L715.94,200.19L717.08,199.11L717.67,199.59L718.46,199.55L719.34,201L719,203L719.53,204.64L718.84,205.59L718.62,206.74L720,208.26L719.91,209.14L718.38,208.92L717.22,209.42L716.36,210.12L713.26,210.5L709.13,209.51L707.49,210.12L704.2,210.05L702.57,210.31L700.96,211.52L700.51,212.5L700.6,214.16L698.88,216.33L698.39,217.87L697.6,218.87L697.38,220.61L696.04,221.5L695.84,222.68L693.37,224.84L690.45,225.38L688.72,225.37L687.99,225.03L686.43,225.05L685.28,225.4L684.67,224.65L686.55,223.07L686.59,222.63L685.7,221.73L683.83,221.38L682.07,221.84L681.1,222.49L679.93,224.12L677.55,223.99L676.76,224.9L675.84,225.06L675.17,226.36L673.95,227.91L672.89,228.35L671.12,228.34L670.07,228.7L668.7,230.08L667.72,230.53L665.87,230.92L664.55,232.59L663.56,232.51L661.36,233.29L660.57,234.37L659.67,234.87L658.92,235.93L656.97,237.38L652.93,238.73L651.39,238.83L650.64,239.82L650.15,240.97L648.4,243.55L647.38,243.31L646.77,243.64L645.65,243.57L643.69,244.34L642.27,245.89L641.26,246.4L639.57,246.75L638.15,246.82L637.28,247.5L637.04,249.85L637.63,250.6L638.27,252.09L638.13,253L637.41,253.76L637.3,255.09L636.33,255.79L635.42,255.68L633.43,257.27L632.37,258.45L631.83,259.7Z" class="land" id="KG-Y" title="Ysyk-Köl"/>
    <path d="M424.74,187.74L426.06,187.62L426.33,186.4L426.38,184.44L427.27,184.35L428,185.75L429.54,185.41L430.86,186.48L430.51,188.63L429.84,189.11L429.32,190.31L428.62,191.06L428.78,192.5L427.78,193.64L426.49,193.89L424.47,194.82L423.21,195.18L420.91,194.22L418.41,194.22L417.72,194.58L417.07,195.76L415.65,195.73L414.92,195.2L413.88,195.29L411.55,196.09L410.61,195.66L409.32,196.75L408.25,197.36L408.1,198.1L407.3,198.4L406.04,197.6L404.79,197.36L404.45,200.97L404.9,201.72L406.87,202.37L407.23,203.28L406.82,203.94L407.22,205.26L405.61,205.82L403.92,205.57L403.16,205.04L402.22,205.33L401.08,204.62L400.11,205.09L398.98,206.37L397.41,207.19L397.19,208.68L394.41,209.44L392.6,208.67L389.33,205.95L388.18,205.18L386.35,204.74L384.12,204.92L381.81,203.76L380.54,203.66L379.57,202.9L378.39,202.86L377.38,203.19L375.85,202.92L375.49,201.8L373.69,200.31L371.72,199.65L370.07,199.91L368.69,199.63L367.91,200.06L368.3,201.55L367.52,202.3L366.63,204.03L366.76,206.09L366.34,207.79L365.56,208.8L364.72,209.31L363.18,208.57L362.02,208.55L359.98,207.54L357.2,206.66L356.36,206.07L354.83,205.61L353.84,204.64L352.65,204.49L346.9,203.2L346.05,202.83L345.22,201.5L343.29,200.49L341.43,200.08L340,200.69L338.59,201L336.98,200.91L336.09,201.57L334.8,201.98L334.22,201.6L333.54,202.03L331.9,200.62L328.07,200.19L326.9,200.77L325.88,199.89L325.72,199.14L324.65,199.54L324.17,198.46L323.53,198.37L320.71,196.12L320.07,196.43L318.13,195.6L316.88,195.79L315.81,196.26L314.62,197.35L311.7,196.85L310.51,197.08L310.2,196.17L309.46,195.33L309.47,193.79L309.95,193.15L310.42,191.51L311.33,190.7L312.22,189.35L312.92,187.4L313.52,184.65L314.82,183.37L315.76,183.91L316.66,184.92L317.63,185.22L318.49,184.87L319.24,183.05L318.36,181.65L316.65,180.61L315.84,179.86L315.48,178.44L316.42,177.45L317.41,177.1L318.76,177.03L319.62,177.51L321.73,177.19L322.27,178.2L322.77,177.08L322.87,175.42L322.68,172.87L325.44,171.31L326.45,170.02L326.9,168.43L326.8,166.9L329.41,167.71L331.08,167.32L331.71,165.87L332.97,165.45L335.3,166.02L336.3,166.02L338.4,165.16L339.37,165.91L339.96,166.76L341.29,166.93L342.15,167.35L342.86,167.23L344.53,165.88L345.83,165.61L349.58,164.25L350.75,163.41L352.74,163.32L354.54,164.09L356.03,164.43L356.69,165.34L358.02,166.21L359.61,166.85L361.17,167.12L362.56,168.58L363.94,169.04L364.97,168.95L365.86,168.22L367.47,168.14L368.78,167.65L371,167.69L373.08,168.69L376.22,170.03L376.82,170.61L380.46,172.1L383.1,172.58L384.35,172.16L386.01,172.67L387.81,173.77L391.17,174.84L392.41,176.35L393.48,178.3L394.38,179.57L395.64,179.93L397.07,179.96L398.01,180.86L400.22,181.05L401.25,181.43L403.02,180.98L403.86,181.28L406.3,180.91L408.2,181.21L410.55,182.02L412.82,182.57L415.33,182.7L415.95,183.97L415.75,185.81L416.29,186.54L417.43,187.37L419.52,187.42L420.68,187.89L421.66,187.9L422.68,188.56L423.75,188.44Z" class="land" id="KG-T" title="Talas"/>
    <path d="M394.15,295.75L394.74,296.03L394.23,296.86L395.07,297.45L395.97,297.27L395.41,298.64L395.9,299.39L396.28,301.02L395.82,302.11L395.25,300.89L394.04,300.96L393.94,299.85L392.01,299.89L392.45,298.02L392.14,297.4L392.48,296.35L393.35,295.67Z" class="land" id="KG-GO" title="Osh"/>
    <path d="M337.29,350.37L336.56,349.58L337.31,348.41L337.78,347.12L339.06,345.01L340.23,343.73L341.78,343.87L343.8,343.62L343.83,343L345.01,341.55L345.74,341.16L347.42,341.32L347.86,342.67L349.87,343.81L350.99,343.83L352.17,344.33L353.08,345.26L354.18,344.7L355.21,344.68L356.98,345.42L357.67,346.35L359.18,346.67L360.23,347.13L361.13,346.65L361.92,347.77L362.43,347.8L364.03,346.66L367.17,346.71L368.01,347.29L369.83,347.41L371.27,346.46L373.2,346.08L373.96,345.01L375.14,344.63L377.04,343.6L378.29,343.3L380.97,341.86L381.52,340.55L382.31,340L381.29,337.94L379.39,336.03L379.18,334.64L378.21,334.32L377.61,334.63L377.08,335.5L375.74,335.25L375.86,334.07L374.72,332.86L374.36,331.15L372.45,329.9L370.16,329.6L370.34,327.49L371.27,326.06L370.04,324.7L370.78,323.21L369.79,321.83L368.43,321.24L368.27,320.83L369.17,320.01L369.61,319.17L369.28,317.35L368.13,316.87L366.5,316.84L365.75,315.65L367.18,314.52L366.7,313.39L367.33,312.8L366.52,312.17L366.93,310.89L366.78,309.27L365.7,309.34L362.79,310.24L361.33,310.37L360.52,310.84L360.15,311.68L358.46,310.78L357.44,309.69L358.56,309.2L360.78,306.5L361.78,306.27L363.15,304.19L362.73,302.57L364.56,302.34L365.34,302.04L366.23,301.01L366.61,299.94L368.77,300.29L368.63,301.56L369.51,302.19L370.17,303.18L371.21,302.98L372.36,303.23L374.11,304.79L375.07,305.24L377.05,305.05L376.85,303.65L377.93,301.13L377.1,299.43L376.78,298.17L375.76,298.27L376.24,297.18L377.01,297.09L377.38,296.18L376.99,295.66L376,295.35L375.56,294.37L374.7,293.73L374.9,292.98L375.99,292.67L376.71,293.15L378.38,296.48L381.23,296.28L382.74,297.46L384.15,297.71L385.04,298.78L386.13,299.39L386.89,299.19L387.69,297.78L387.47,295.82L388.17,295.32L388.51,294.24L389.94,294.57L391.33,295.78L391.94,295.58L391.85,292.09L392.64,290.99L392.14,289.63L392.83,289.28L394.26,289.21L395.72,288.74L396.66,287.83L398.75,286.93L400.88,285.82L401.98,285.06L402.49,284.35L404.22,284.4L405.96,283.73L407.69,282.49L408.12,281.63L408.06,279.98L408.85,278.39L411.13,277.73L411.76,276.54L411.99,275.28L411.32,273.72L411.13,272.02L411.72,270.37L412.41,269.79L414.27,269.32L415.35,268.68L416.72,269.21L417.74,268.72L418.26,267.25L419.09,267.22L419.19,266.1L420.34,265.06L422.02,265.49L423.96,265.5L424.99,265.91L426.94,266.04L428.06,265.17L427.14,263.55L428.28,263.12L429.4,262.22L429.92,262.52L431.37,264.85L430.88,266.03L428.73,267.15L427.38,269.09L426.48,270.04L426.79,270.77L428.19,271.4L428.41,272.2L430.47,273.06L431.47,273.95L432.07,273.89L432.18,271.39L432.5,270.47L433.6,268.7L434.6,267.74L436.08,266.71L436.08,265.4L436.88,264.7L436.88,263.56L437.77,263.45L439,264.03L439.18,265.41L440.14,265.84L440.13,267.56L440.32,270.11L441.61,270.68L442.44,270.43L442.92,270.92L444.96,271.25L446.07,272.8L447.16,273.06L448.13,274.04L448.64,275.66L450.14,275.94L451.01,277.32L452.51,278.25L453.5,279.4L453.62,280.57L454.12,281.72L455.92,282.02L456.05,283.21L456.6,284.11L458.12,284.37L458.9,285.66L458.9,286.44L460.02,287.99L460.77,287.59L462.06,289.17L463.4,289.55L464.89,290.99L466.3,290.94L469.86,292.51L470.61,294.22L470.15,295.08L469.72,296.74L470.8,296.63L471.52,297.23L472.62,296.68L473.03,297.49L473.91,297.57L475.19,298.63L476.25,298.39L477.71,298.87L479.28,298.97L479.77,298.71L481.16,299.33L481.72,299.03L481.96,300.21L481.8,301.53L481.38,302.24L480.39,302.66L481.07,303.63L483.04,305.6L483.93,307.13L485.31,308.09L485.2,308.93L484,309.51L483.61,310.05L482.67,309.58L480.95,308.16L478.28,308.23L475.76,308.47L476.09,309.51L475.21,311.73L474.04,312.77L473.24,312.25L471.52,312.51L470.81,313.19L470.22,314.47L468.8,316.52L467.69,316.86L467.02,317.89L466,318.89L465.17,320.05L463.93,320.71L462.68,321.91L460.81,323.4L459.69,322.25L458.7,321.72L457.91,322.15L456.93,320.58L455.8,321.15L454.04,321.15L452.49,321.81L450.91,321.83L449.95,322.94L448.66,323.52L447,322.57L446.36,322.98L446.05,323.95L445.28,325.13L442.55,326.39L442.51,326.73L444.35,327.67L444.46,328.25L441.36,332.58L442,334.06L441.49,335.7L440,336.51L439.07,337.35L438.65,338.96L438.55,340.68L438.76,341.85L439.54,342.68L441.66,343.32L442.25,344.4L443.28,349.8L443.4,350.73L442.78,351.93L441.15,353.98L440.73,354.87L440.01,357.75L439.08,358.59L438.16,358.88L433.77,358.93L430.56,358.44L426.9,359.26L424.53,358.37L422.46,358.49L420.53,359.72L419.34,359.31L418.81,359.97L417.82,362.34L415.98,362.99L413.94,362.81L413.02,361.79L412.22,363.07L411.86,364.43L410.13,364.73L408.61,364.48L407.64,363.76L405.91,363.56L404.7,364.35L403.64,364.53L402.15,364.24L400.13,364.88L398.98,364.14L396.55,364.95L395.67,364.86L394.31,364.06L392.55,365.13L392,364.05L390.97,363.76L389.56,362.93L388.36,362.5L387.1,362.67L385.5,362.27L384.98,362.53L384.1,364.35L383.58,364.75L382.69,364.63L382.16,363.27L379.59,363.21L378.9,364.05L379.2,364.92L377.8,365.38L375.6,366.35L373.94,366.15L372.75,367.08L372.13,367.96L371.18,370.88L370.17,372.87L369.9,374.88L368.85,374.86L368.29,374.4L368.06,372.55L367.79,372.04L366.61,371.1L365.96,369.32L365,369.04L363.11,369.32L362.42,368.67L361.55,366.59L361.25,364.92L360.24,364.09L359.22,364.98L358.48,365.15L356.86,366.08L355.7,367.77L355.15,368.96L354.32,369.23L353.42,368.91L351.97,368.79L350.05,369.33L349.1,368.62L347.9,366.49L348.1,364.99L348.8,364.08L349.8,363.6L350.13,362.05L349.86,360.59L349.38,359.75L348.25,359.01L345.9,359.03L344.51,359.33L343.01,359.95L340.23,359.44L339.6,359.1L339.17,358.1L338.79,356.26L338.96,354.7L339.4,353.99L339.49,352.34L339.1,351.61ZM394.15,295.75L393.35,295.67L392.48,296.35L392.14,297.4L392.45,298.02L392.01,299.89L393.94,299.85L394.04,300.96L395.25,300.89L395.82,302.11L396.28,301.02L395.9,299.39L395.41,298.64L395.97,297.27L395.07,297.45L394.23,296.86L394.74,296.03Z" class="land" id="KG-O" title="Osh"/>
    <path d="M481.72,299.03L481.16,299.33L479.77,298.71L479.28,298.97L477.71,298.87L476.25,298.39L475.19,298.63L473.91,297.57L473.03,297.49L472.62,296.68L471.52,297.23L470.8,296.63L469.72,296.74L470.15,295.08L470.61,294.22L469.86,292.51L466.3,290.94L464.89,290.99L463.4,289.55L462.06,289.17L460.77,287.59L460.02,287.99L458.9,286.44L458.9,285.66L458.12,284.37L456.6,284.11L456.05,283.21L455.92,282.02L454.12,281.72L453.62,280.57L453.5,279.4L452.51,278.25L451.01,277.32L450.14,275.94L448.64,275.66L448.13,274.04L447.16,273.06L446.07,272.8L447.67,270L448.58,268.91L449.94,268.2L449.98,267.79L446.55,264.31L446.67,262.58L449.31,262.09L449.69,261.03L451.6,260.16L452.25,259.19L455.24,259.44L456.3,258.82L458.12,258.39L459.8,259.05L460.74,258.44L459.58,256.28L458.64,254.13L458.7,253.73L460.05,253.12L462.83,252.44L465.44,250.79L467.22,250.71L467.89,250.32L469.46,250.07L469.91,249.45L472.37,248.9L474.02,247.08L475.5,245.99L475.75,244.85L475.5,244.06L475.93,243.09L476.18,241.27L477.16,239.86L476.81,238.03L477,236.24L477.68,235.63L478.06,234.14L476.58,233.52L474.64,233.95L473.13,235.59L471.88,236.33L467.88,236.54L466.85,236.99L465.45,236.97L463.44,239.23L462.39,239.06L461.85,238.56L460.71,238.57L459.73,237.62L455.97,238.15L454.8,238.19L454.36,238.81L453.45,238.85L451.49,237.52L449.13,237.95L447.27,237.84L446.37,237.48L444.2,236.02L443.84,235.3L442.76,234.72L442.34,233.43L440.84,230.42L440.92,229.93L442.41,229.82L443.59,230.68L446.28,231.43L447.37,232.42L447.45,233.4L446.81,234.55L447.83,236.1L448.77,236.04L449.06,234.85L448.93,232.13L448.65,230.99L449.04,229.26L448.6,228.29L447.7,227.95L446.79,228.09L444.67,227.44L443.84,225.02L443.95,223.26L443.74,222.4L442.7,221.52L441.47,221.63L440.28,221.11L439.2,221.55L437.73,220.3L437,220.36L436.73,221.12L435.64,221.28L434.6,220.94L433.07,219.8L433.86,219.35L434.28,218.32L434.97,217.68L436.05,215.44L436.87,215.41L437.62,214.9L438.63,215.52L440.75,215.2L441.37,215.43L441.96,214.86L443.45,214.85L444.35,213.65L444.9,214.72L446.58,216.18L447.96,217.96L450.27,217.11L451,218.19L450.26,218.8L449.85,220.33L449.74,221.66L450.66,221.94L451.35,221.43L451.53,219.6L451.92,218.72L454.02,216.75L456.19,217.65L457.21,216.19L457.09,213.89L458.44,213.32L459.4,212.44L459.48,211.02L458.42,210.23L458.82,208.91L459.65,208.27L460.48,208.09L462.09,207.3L462.16,206.92L459.81,205.74L459.14,204.54L460.16,200.21L460.63,199.22L462.74,199.86L466.03,199.22L467.6,199.5L469.36,198.84L470.24,198.98L473.22,198.15L475.67,198L477.22,196.55L477.72,195.21L479.02,195.14L480.06,194.58L481.81,194.4L482.78,194.82L483.55,193.7L482.75,192.37L482.45,191.28L481.33,189.76L480.25,187.54L482.52,187.42L483.58,186.98L484.62,187.2L485.63,186.6L487.92,187.45L489.2,187.29L490.04,186.33L490.99,187.42L492.99,187.59L494.42,186.37L496.42,187.38L497.85,186.91L499.38,187.17L500.63,187.86L501.69,187.81L503.38,187.09L504.67,186.95L505.79,186.02L507.19,187.29L507.9,186.85L509.12,187.08L510.61,186.91L512.02,185.63L512.47,186.24L512.11,186.9L514.45,187.86L517.41,186.33L519.42,187.55L520.56,187.79L522.32,189.02L523.25,189.07L523.57,190.15L525.35,191.52L526.66,191.25L527.49,191.39L528.56,190.45L529.15,188.61L530.29,189.11L532.82,189.55L532.97,190.24L532.39,191.84L532.42,192.97L532.89,193.5L532.47,194.42L533.47,197.94L533.92,198.43L533.71,199.36L534.81,200.74L536.45,201.84L535.98,202.48L536.68,203.41L538.95,204.37L538.92,205.17L538.41,205.86L538.15,207.12L538.45,208.06L537.31,209.16L536.43,209.24L535.22,211.04L535.39,211.52L537.45,211.92L539.04,211.3L540.82,211.34L541.88,210.43L545.72,211.68L546.45,212.09L547.77,211.75L549.72,211.98L550.43,212.59L550.95,213.65L552.29,213.74L553.87,213.36L554.71,214.06L556,214.57L556.9,214.6L557.52,215.44L559.3,215.94L560.18,216.89L561.19,216.51L561.94,217.06L561.91,217.81L560.56,219.03L560.34,220.56L559.91,221.27L558.74,221.63L558,221.42L556.68,221.69L554.89,221.32L554.56,222.33L553.73,223.38L554.23,225.08L554.06,226.46L556.17,227.21L557.42,227.17L559.2,227.64L561.86,227.26L562.06,225.97L562.87,225.61L563.99,225.78L565.51,226.41L565.91,227.3L566.04,228.53L565.17,230.01L563.82,230.88L563.73,231.34L565.38,232.03L565.29,233.59L564.92,235.72L564.04,236.96L564.27,237.55L565.26,237.52L565.94,236.5L566.7,236.38L567.43,237.36L568.86,238.55L569.8,238.25L571.26,238.46L572.33,239.41L572.97,238.27L574.55,237.73L576.7,237.83L577.52,239.08L578.32,239.24L579.19,238.57L580.78,237.78L583.47,238.03L584.52,238.28L585.46,238L586.6,238.46L587.85,238.05L588.63,238.17L590.81,236.99L592.04,235.24L592.5,235.75L593.16,237.34L593.39,238.69L592.28,241.14L592.18,242.11L590.6,242.16L590.65,242.78L591.66,244.97L591.45,247.63L592.28,248.64L593.4,249.01L595.88,248.87L596.52,249.28L596.92,250.21L596.14,251.47L595.25,254.78L593.6,256.05L593.07,257.18L593.48,257.46L594.71,256.85L600.69,254.52L604.84,254.13L605.13,254.75L606.36,254.72L606.74,255.5L605.83,256.72L605.9,258.06L606.46,259.01L607.9,260L609.8,259.44L611.45,259.55L613.52,259.36L615.82,259.67L616.96,260.25L618.85,259.92L621.24,260.05L621.95,259.92L626.04,257.66L627.04,257.53L628.12,258.05L628.82,257.99L628.26,259.65L628.33,260.5L628.91,261.67L630.2,262.31L629.12,264.82L628.77,266.23L625.23,267.01L624.32,267.86L623.57,268.06L623.38,268.74L622.29,267.53L621.2,266.86L619.75,266.3L617.12,267.2L616.28,267.14L615.14,266.56L614.01,267L610.65,268.73L609.63,269.5L608.58,269.14L607.69,269.39L606.07,270.73L604.13,270.06L601.72,271.03L599.66,271.17L598.9,270.8L597.35,270.73L596.42,269.58L595.31,269.56L593.26,269.04L591.33,269.06L588.83,270.37L588.25,270.42L587.6,269.53L586.87,269.19L585.04,269.32L584.08,269.93L583.52,269.85L581.85,268.71L580.99,267.75L578.91,267.34L574.55,268.55L572.99,269.46L571.94,269.28L570.92,269.59L570.26,270.43L569.73,271.68L569.19,272.26L567.52,273.07L567.05,275.55L567.63,278.88L567.32,279.73L565.8,280.55L562.7,282.88L560.88,284.8L560.67,285.77L561.35,287.72L561.45,288.75L561.09,289.55L561.44,291.4L561.16,292.54L559.37,293.86L558.32,295.52L556.7,297.59L556.29,299.53L556.23,301.11L555.96,301.74L553.98,303.54L553.24,304.63L552.41,305.19L549.12,306.36L548.06,307.48L547.39,307.01L547.27,305.24L546.92,304.06L546.85,302.62L546.43,301.87L545.83,301.84L542.83,305.52L541.4,306.31L540.1,306.14L537.87,305.05L536.23,305.11L534.25,306.32L532.12,306.47L531.48,306.99L529.83,309.5L529.96,311.13L529.33,311.77L528.21,310.6L527.01,310.67L526.14,310.42L525.75,308.84L525.26,308.99L524.17,310.61L523.58,311.11L522.67,311.13L521.11,311.69L520.12,312.35L520.11,311.07L519.57,310.11L519.69,309L518.51,307.82L518.81,305.67L519.18,304.59L520.8,303.18L521.08,300.84L520.98,300.45L517.54,299.17L517.42,298.1L516.7,295.99L516.62,293.58L516.9,292.81L516.36,292.4L515.46,290.48L514.04,290.83L512.88,291.43L512.18,292.17L510.81,292.58L509.46,293.66L509.17,294.75L507.48,296.53L506.6,296.4L504.78,298.49L503.91,298.6L502.73,299.54L502.21,300.66L500.91,300.87L500.54,301.73L499.57,302.74L498.05,303.1L496.98,302.48L495.63,302.15L494.33,302.95L493.34,302.99L492.47,302.49L490.06,302.01L489.06,302.43L486.72,301.02L486.29,300.13L485.41,299.93L484.65,299.34L482.09,298.18Z" class="land" id="KG-N" title="Naryn"/>
    <path d="M408.06,279.98L407.1,278.97L406.05,279L404.89,279.4L404.09,278.77L403.24,278.58L402.38,277.43L401.66,277.4L401.26,278.75L402.14,279.6L400.24,281.37L399.15,281.66L398.36,281.36L398.01,280.36L396.57,278.78L395.11,278.33L393.02,278.87L392.39,278.66L390.63,279.23L388.91,278.95L388.4,279.14L383.8,277.13L384.29,276.39L384.03,275.52L381.81,272.43L380.21,271.37L380.65,270.14L380.4,269.03L379.04,268.56L378.23,268.65L376.44,268.15L375.73,267.58L374.34,267.08L373.68,267.14L372.61,268.32L371.47,269.19L370.76,269.36L368.06,270.64L366.61,270.07L367.1,269.26L368.22,268.73L368.66,267.77L368.23,266.98L367.58,262.62L367.1,261.83L365.63,261.27L364.11,261.36L362.33,262.64L361.37,262.44L359.73,261.37L357.49,260.96L356.64,261.61L355.44,261.45L353.91,260.83L353.62,259.6L352.67,259.17L353.28,257.27L354.14,255.75L354.88,254.99L355.86,252.93L354.8,252.15L353.99,251.17L353.7,250.11L353.85,249.33L353.37,248.71L352.65,249.47L351.6,249.28L351.84,248.05L351.26,247.05L349.93,245.77L348.95,243.68L348.47,243.7L348.36,245.3L346.97,244.3L346.26,245.09L346.64,245.72L345.93,246.2L345.52,245.42L346.92,242.96L346.67,241.93L346.66,240.08L347.07,239.22L346.74,238.65L345.31,238.7L344.58,239.38L343.87,240.66L343.19,241.28L342.26,241.55L342.38,242.5L344,242.82L344.59,244.21L343.81,246.52L344.56,247.68L343.66,248.99L343.07,250.58L342.51,250.35L341.4,251.73L340.85,253.22L339.93,253.37L338.97,252.51L338.14,252.5L337.12,252.97L336.34,252.48L335,253.69L334.63,254.56L334.86,255.3L334.79,256.96L335.6,257.31L335.88,257.99L335.04,259.88L334.74,261.77L334.04,263.64L333.07,264.7L332.18,264.31L331.96,262.64L331.49,261.6L330.14,261.06L329.3,261.5L328.36,263.35L327.61,263.61L327.12,262.9L326.95,260.76L326.29,260.01L324.95,260.01L323.66,259.57L322.78,259.81L322.25,260.71L321.61,260.67L321.39,261.73L320.86,262.24L319.77,262.02L318.38,260.55L317.62,260.37L316.46,259.61L315.9,259.64L313.77,261.09L312.03,259.43L310.69,258.57L308.86,256.67L307.96,256.44L306.49,257.64L306.14,258.9L305.44,257.98L306.11,257.11L306.18,256.22L305.6,255.36L305.34,254.1L305.92,250.98L305.49,248.61L303.21,245.37L302.55,243.84L301.05,243.61L299.98,244.41L298.82,244.35L297.38,244.81L296.07,246.3L294.48,247.62L292.89,247.64L291.75,246.01L289.25,243.59L288.08,243.61L287.02,241.73L284.57,240.73L282.21,241.19L280.15,241.05L279.45,240.46L279.92,239.74L279.52,238.42L280.48,237.61L281.06,236.56L281.16,235.54L283.03,235.54L284.16,234.58L285.82,234.13L287.8,232.98L288.67,231.46L292.19,229.58L293.58,228.52L293.63,226.42L294.03,225.02L297.41,223.01L297.97,221.5L299.38,220.36L300.46,218.51L301.06,217.88L302.18,217.34L303.63,217.6L304.55,217.47L304.61,216.49L306.17,217.23L307.4,217.09L308.53,215.75L308.62,213.3L308.12,212.57L308.23,211.89L309.58,209.81L310.61,209.91L311.51,210.55L313.58,210.99L314.88,210.55L317.73,207.84L318.85,207.31L320.12,205.96L322.54,204.34L324.38,204.62L326.13,203L326.08,201.89L326.9,200.77L328.07,200.19L331.9,200.62L333.54,202.03L334.22,201.6L334.8,201.98L336.09,201.57L336.98,200.91L338.59,201L340,200.69L341.43,200.08L343.29,200.49L345.22,201.5L346.05,202.83L346.9,203.2L352.65,204.49L353.84,204.64L354.83,205.61L356.36,206.07L357.2,206.66L359.98,207.54L362.02,208.55L363.18,208.57L364.72,209.31L365.56,208.8L366.34,207.79L366.76,206.09L366.63,204.03L367.52,202.3L368.3,201.55L367.91,200.06L368.69,199.63L370.07,199.91L371.72,199.65L373.69,200.31L375.49,201.8L375.85,202.92L377.38,203.19L378.39,202.86L379.57,202.9L380.54,203.66L381.81,203.76L384.12,204.92L386.35,204.74L388.18,205.18L389.33,205.95L392.6,208.67L394.41,209.44L397.19,208.68L397.41,207.19L398.98,206.37L400.11,205.09L401.08,204.62L402.22,205.33L403.16,205.04L403.92,205.57L405.61,205.82L407.22,205.26L408.29,205.87L409.79,205.72L411.48,205.86L414.84,206.86L415.65,207.47L416.01,208.6L416.57,209.23L416.45,210.19L417.28,211.11L418.39,210.69L419.96,211.19L420.47,211.66L421.28,211.46L422.51,211.93L423.68,211.97L424.82,212.94L426.5,212.4L427.87,212.93L428.81,212.41L430.88,211.69L432.77,211.63L434.98,211.83L435.5,213.65L436.25,214.6L436.05,215.44L434.97,217.68L434.28,218.32L433.86,219.35L433.07,219.8L434.6,220.94L435.64,221.28L436.73,221.12L437,220.36L437.73,220.3L439.2,221.55L440.28,221.11L441.47,221.63L442.7,221.52L443.74,222.4L443.95,223.26L443.84,225.02L444.67,227.44L446.79,228.09L447.7,227.95L448.6,228.29L449.04,229.26L448.65,230.99L448.93,232.13L449.06,234.85L448.77,236.04L447.83,236.1L446.81,234.55L447.45,233.4L447.37,232.42L446.28,231.43L443.59,230.68L442.41,229.82L440.92,229.93L440.84,230.42L442.34,233.43L442.76,234.72L443.84,235.3L444.2,236.02L446.37,237.48L447.27,237.84L449.13,237.95L451.49,237.52L453.45,238.85L454.36,238.81L454.8,238.19L455.97,238.15L459.73,237.62L460.71,238.57L461.85,238.56L462.39,239.06L463.44,239.23L465.45,236.97L466.85,236.99L467.88,236.54L471.88,236.33L473.13,235.59L474.64,233.95L476.58,233.52L478.06,234.14L477.68,235.63L477,236.24L476.81,238.03L477.16,239.86L476.18,241.27L475.93,243.09L475.5,244.06L475.75,244.85L475.5,245.99L474.02,247.08L472.37,248.9L469.91,249.45L469.46,250.07L467.89,250.32L467.22,250.71L465.44,250.79L462.83,252.44L460.05,253.12L458.7,253.73L458.64,254.13L459.58,256.28L460.74,258.44L459.8,259.05L458.12,258.39L456.3,258.82L455.24,259.44L452.25,259.19L451.6,260.16L449.69,261.03L449.31,262.09L446.67,262.58L446.55,264.31L449.98,267.79L449.94,268.2L448.58,268.91L447.67,270L446.07,272.8L444.96,271.25L442.92,270.92L442.44,270.43L441.61,270.68L440.32,270.11L440.13,267.56L440.14,265.84L439.18,265.41L439,264.03L437.77,263.45L436.88,263.56L436.88,264.7L436.08,265.4L436.08,266.71L434.6,267.74L433.6,268.7L432.5,270.47L432.18,271.39L432.07,273.89L431.47,273.95L430.47,273.06L428.41,272.2L428.19,271.4L426.79,270.77L426.48,270.04L427.38,269.09L428.73,267.15L430.88,266.03L431.37,264.85L429.92,262.52L429.4,262.22L428.28,263.12L427.14,263.55L428.06,265.17L426.94,266.04L424.99,265.91L423.96,265.5L422.02,265.49L420.34,265.06L419.19,266.1L419.09,267.22L418.26,267.25L417.74,268.72L416.72,269.21L415.35,268.68L414.27,269.32L412.41,269.79L411.72,270.37L411.13,272.02L411.32,273.72L411.99,275.28L411.76,276.54L411.13,277.73L408.85,278.39Z" class="land" id="KG-J" title="Jalal-Abad"/>
    <path d="M587.02,158.39L586.55,158.95L585.17,159.29L584.1,159.91L582.9,161.1L582.55,162.96L581.93,164.35L579.27,164.24L575.52,164.83L572.87,164.94L570.32,165.29L568.83,165.95L568.09,166.58L566.38,166.83L564.06,166.7L561.92,166.92L560.49,166.86L559.34,167.33L557.76,166.9L555.75,167.21L554.48,166.34L552.9,167.96L550.86,168.92L549.93,168.59L548.53,169.74L544.06,172.79L543.64,173.86L541.75,174.52L541.21,176.3L540.05,176.62L537.82,176.06L535.71,176.69L535.03,177.08L533.21,177.2L531.25,178.38L530.67,178.09L528.95,178.2L528.09,178.5L526.15,177.87L525,177.27L524.42,178.55L524.85,179.71L524.63,181.03L523.44,180.51L522.58,180.96L522.32,181.73L520.59,181.94L519.63,184.15L517.41,186.33L514.45,187.86L512.11,186.9L512.47,186.24L512.02,185.63L510.61,186.91L509.12,187.08L507.9,186.85L507.19,187.29L505.79,186.02L504.67,186.95L503.38,187.09L501.69,187.81L500.63,187.86L499.38,187.17L497.85,186.91L496.42,187.38L494.42,186.37L492.99,187.59L490.99,187.42L490.04,186.33L489.2,187.29L487.92,187.45L485.63,186.6L484.62,187.2L483.58,186.98L482.52,187.42L480.25,187.54L481.33,189.76L482.45,191.28L482.75,192.37L483.55,193.7L482.78,194.82L481.81,194.4L480.06,194.58L479.02,195.14L477.72,195.21L477.22,196.55L475.67,198L473.22,198.15L470.24,198.98L469.36,198.84L467.6,199.5L466.03,199.22L462.74,199.86L460.63,199.22L460.16,200.21L459.14,204.54L459.81,205.74L462.16,206.92L462.09,207.3L460.48,208.09L459.65,208.27L458.82,208.91L458.42,210.23L459.48,211.02L459.4,212.44L458.44,213.32L457.09,213.89L457.21,216.19L456.19,217.65L454.02,216.75L451.92,218.72L451.53,219.6L451.35,221.43L450.66,221.94L449.74,221.66L449.85,220.33L450.26,218.8L451,218.19L450.27,217.11L447.96,217.96L446.58,216.18L444.9,214.72L444.35,213.65L443.45,214.85L441.96,214.86L441.37,215.43L440.75,215.2L438.63,215.52L437.62,214.9L436.87,215.41L436.05,215.44L436.25,214.6L435.5,213.65L434.98,211.83L432.77,211.63L430.88,211.69L428.81,212.41L427.87,212.93L426.5,212.4L424.82,212.94L423.68,211.97L422.51,211.93L421.28,211.46L420.47,211.66L419.96,211.19L418.39,210.69L417.28,211.11L416.45,210.19L416.57,209.23L416.01,208.6L415.65,207.47L414.84,206.86L411.48,205.86L409.79,205.72L408.29,205.87L407.22,205.26L406.82,203.94L407.23,203.28L406.87,202.37L404.9,201.72L404.45,200.97L404.79,197.36L406.04,197.6L407.3,198.4L408.1,198.1L408.25,197.36L409.32,196.75L410.61,195.66L411.55,196.09L413.88,195.29L414.92,195.2L415.65,195.73L417.07,195.76L417.72,194.58L418.41,194.22L420.91,194.22L423.21,195.18L424.47,194.82L426.49,193.89L427.78,193.64L428.78,192.5L428.62,191.06L429.32,190.31L429.84,189.11L430.51,188.63L430.86,186.48L429.54,185.41L428,185.75L427.27,184.35L426.38,184.44L426.33,186.4L426.06,187.62L424.74,187.74L424.74,186.7L423.91,185.51L422.82,184.44L421.46,182.47L420.85,180.28L420.72,178.9L420.94,177.43L420.78,176.56L420.99,174.74L421.52,173.75L422.03,171.1L422.48,169.76L424.3,166.27L424.43,165.13L424.06,161.43L424.15,158.91L424.77,157.3L425.94,155.77L426.82,153.89L426.51,152.38L427.25,151.32L430.38,149.92L436.28,146.86L438.09,146.66L440.31,147.49L441.46,147.28L441.83,145.58L442.56,144.75L443.96,141.88L445.23,142.25L446.1,143.25L448.22,143.91L450.29,143.35L452.12,142.33L452.85,142.3L453.66,141.58L454.96,141.47L455.17,140.74L454.68,139.41L458.8,139.12L459.41,140.43L460.52,140.65L462.06,141.45L463.01,141.49L464.09,143.27L465.3,143.83L467.43,144.17L470.71,145.48L471.5,146.39L472.03,147.48L473.05,148.68L477.58,152.9L478.26,153.69L479.82,153.86L481.92,153.61L482.79,153.09L484.99,154.29L486.1,155.16L486.32,155.95L488.02,156.73L489.08,156.69L490.65,157.56L491.07,158.2L493.03,159.17L493.26,159.75L495.21,160.59L496.45,162.3L498.01,162.39L498.4,162.81L499.73,163.03L501.57,162.21L503.64,161.91L507.72,163.81L509.28,164.1L511,163.77L514.93,164.07L516.38,164.03L518.37,164.5L520.09,165.35L520.84,165.44L522.69,164.03L523.75,161.5L523.92,160.18L524.46,158.43L525.88,157.08L527.6,156.45L528.67,156.76L529.64,156.09L530.29,156.18L531.51,157.3L533.53,157.53L534.76,158.73L536.83,158.53L539.08,157.92L541.18,158.19L544.93,158.17L546.29,158.98L546.76,160.56L547.31,161.34L548.08,161.46L551.5,160.78L552.73,160.21L554.15,160.16L555.12,159.17L555.65,158.2L557.93,158.75L559.71,158.56L561.86,158.88L564.77,159.01L565.47,158.44L566.01,156.81L566.48,156.4L567.99,156.28L568.37,156.64L569.85,155.34L570.14,154.4L570.73,154.25L573.76,154.35L575.13,154.59L578.72,155.68L580.64,155.35L584.52,155.75ZM468.98,162.84L470.19,163.88L471.58,163.78L473.2,164.16L474.14,162.57L474.88,161.75L475.89,161.5L476.42,161.88L479.04,162.16L480.54,161.37L480.42,160.63L479.51,159.72L478.6,160.2L477.88,159.69L477.23,159.84L474.66,159.45L474.56,158.48L472.09,156.22L469.88,157.85L469.78,158.95L469.2,160.09L467.57,160.25L466.3,160.09L464.45,160.2L464.31,161.78L467.76,162.13Z" class="land" id="KG-C" title="Chüy"/>
    <path d="M468.98,162.84L467.76,162.13L464.31,161.78L464.45,160.2L466.3,160.09L467.57,160.25L469.2,160.09L469.78,158.95L469.88,157.85L472.09,156.22L474.56,158.48L474.66,159.45L477.23,159.84L477.88,159.69L478.6,160.2L479.51,159.72L480.42,160.63L480.54,161.37L479.04,162.16L476.42,161.88L475.89,161.5L474.88,161.75L474.14,162.57L473.2,164.16L471.58,163.78L470.19,163.88Z" class="land" id="KG-GB" title="Bishkek"/>
    <path d="M337.29,350.37L335.94,350.45L335.13,351.39L333.15,352.52L330.81,352.24L329.7,352.67L329.65,353.61L328.48,355.23L327.57,355.53L326.34,353.79L325.52,354.53L323.5,355.91L322.46,356.13L320.63,355.95L319.4,356.19L318.97,356.6L318.45,358.23L318.59,360.38L317.94,361.4L316.43,361.97L314.78,362.02L313.29,360.49L312.49,360.31L312.22,361.81L311.24,363.15L310.34,363.24L308.97,362.57L307.01,362.86L305.83,362.8L304.94,362.24L304.71,360.71L304.65,358.67L303.96,357.29L302.1,356.14L300.98,354.13L300.83,353.41L300.07,352L298.65,351.05L296.97,351.01L295.81,350.61L294.29,349.05L293.57,349.77L292.46,349.95L291.19,351.05L290.44,350.26L289.63,351.43L288.8,351.21L287.79,351.4L285.81,353.89L284.71,354.85L283.33,355.01L281.94,353.27L280.93,352.29L280.66,351.06L279.97,352.16L278.82,352.62L277.75,352.29L276.7,351.15L275.97,350.77L274.06,352.41L273,351.89L272.65,352.9L272.07,353.49L270.89,353.61L269.91,352.5L268.46,352.19L267.23,352.63L267.03,353.63L265.64,355.23L265.08,354.34L263.19,352.85L262.39,352.44L260.89,352.11L260.53,351.72L258.87,351.28L258.16,351.42L257.21,352.25L256.5,352.28L255.12,351.73L253.74,352.39L253.05,353.61L249.82,354.58L248.88,355.14L248.09,354.63L247.38,354.93L245.2,353.77L244.56,355.21L243.73,355.62L242.64,354.33L243.44,351.48L242.75,351.13L242.25,348.13L241.79,347.35L242.06,345.79L241.77,344.69L240.44,342.47L240,340.63L240.01,339.38L240.99,337.21L241.23,334.82L242.13,333.92L242.81,331.71L243.32,329.44L243.22,328.18L244.46,328.18L244.94,329.54L245.93,331L246.38,333.52L247.45,334.05L248.66,333.82L249.83,332.71L251.06,332L250.75,329.91L250.96,328.5L249.92,326.25L250.49,323.34L252.34,322.26L253.2,322.22L256.05,321.5L258.4,321.54L260.42,320.32L262.79,319.12L263.97,318.8L267.15,317.48L270.43,315.75L271.26,315.51L273.24,316.09L274.18,316.14L274.85,316.56L277.69,318.95L278.75,319.38L280.82,320.86L283.16,320.67L284.5,321.06L286.07,321.92L286.7,322.71L288.4,323.07L288.97,324.03L290.19,324.59L293.28,324.98L294.27,325.25L295.15,325.85L296.08,327L295.19,328.18L293.81,329.32L292.41,329.9L291.34,331.16L292.44,332.44L292.96,332.39L294.52,334.11L294.69,333.76L293.81,332.59L294.31,331.64L296.54,331.4L298.68,329.83L299.28,329.74L300.43,327.14L300.25,324.74L300.53,323.44L301.17,323.16L302.86,323.25L304.54,323.05L305.34,322.61L306.71,321.41L307.39,319.07L308.17,318.69L308.98,318.84L311.15,319.96L313.43,319.16L314.23,317.52L314.37,316.19L313.46,313.32L314.01,312.82L315.96,311.96L317.81,311.64L320.22,309.95L321.72,309.77L323.03,309.32L324.75,309.31L325.71,309.63L327.16,309.53L327.18,310.48L328.28,310.73L329.39,310.19L330.09,311.02L331.16,310.77L332.01,311.16L333.63,312.8L335.08,313.18L336.3,313.2L336.53,313.7L336.56,315.49L339.1,316.79L340.57,316.61L341.33,317.52L341.97,315.15L341.72,313.78L343.61,313.74L344.74,314.94L344.91,315.71L344.75,317.5L345.87,318.77L346.31,319.58L346.87,319.66L347.74,319.04L348.99,318.63L351.33,317.13L352.55,316.69L351.85,314.65L352.37,314.03L354.27,314.48L355.13,315.19L356.05,315.36L356.95,314.75L357.38,313.73L358.64,312.54L359.97,312.53L360.15,311.68L360.52,310.84L361.33,310.37L362.79,310.24L365.7,309.34L366.78,309.27L366.93,310.89L366.52,312.17L367.33,312.8L366.7,313.39L367.18,314.52L365.75,315.65L366.5,316.84L368.13,316.87L369.28,317.35L369.61,319.17L369.17,320.01L368.27,320.83L368.43,321.24L369.79,321.83L370.78,323.21L370.04,324.7L371.27,326.06L370.34,327.49L370.16,329.6L372.45,329.9L374.36,331.15L374.72,332.86L375.86,334.07L375.74,335.25L377.08,335.5L377.61,334.63L378.21,334.32L379.18,334.64L379.39,336.03L381.29,337.94L382.31,340L381.52,340.55L380.97,341.86L378.29,343.3L377.04,343.6L375.14,344.63L373.96,345.01L373.2,346.08L371.27,346.46L369.83,347.41L368.01,347.29L367.17,346.71L364.03,346.66L362.43,347.8L361.92,347.77L361.13,346.65L360.23,347.13L359.18,346.67L357.67,346.35L356.98,345.42L355.21,344.68L354.18,344.7L353.08,345.26L352.17,344.33L350.99,343.83L349.87,343.81L347.86,342.67L347.42,341.32L345.74,341.16L345.01,341.55L343.83,343L343.8,343.62L341.78,343.87L340.23,343.73L339.06,345.01L337.78,347.12L337.31,348.41L336.56,349.58ZM351.48,329.27L350.8,328.02L349.5,327.88L349.02,329.12L346.44,330.43L348.15,331.53L349.43,330.27L351.67,330.93L352.77,329ZM293.95,336.73L295.22,337.25L297.48,338.57L298.2,340.47L299.22,341.38L299.99,340.93L300.39,339.85L300.53,338.51L302.12,338.66L303.68,337.58L303.29,336.31L302.86,336.01L301.08,336.37L294.39,335.07L293.98,335.68ZM316.81,317.65L315.93,318.08L315.24,317.86L315.49,320.58L315.52,325.59L317.32,326.98L319.96,327.23L320.13,328.39L318.97,328.87L319.64,330.01L320.39,330.29L319.32,331.31L317.37,334.02L319.09,334.15L320.19,333L320.66,333.59L320.79,334.68L321.95,334.69L323.49,333.78L324.51,332.94L323.96,331.8L324.01,331.03L321.45,330.97L322.47,329.64L322.8,328.37L323.66,327.61L324.28,326.31L321.26,326.92L320.57,327.47L319.59,325.04L319.59,323.4L318.71,321.59L318.76,320.19L317.41,318.05ZM316.73,313.63L316.56,314.81L317.03,315.23L317.21,313.76Z" class="land" id="KG-B" title="Batken"/>
    <path d="M316.73,313.63L317.21,313.76L317.03,315.23L316.56,314.81Z" class="land" id="UZ-FA-CQ" title="Chon-Qora"/>
    <path d="M316.81,317.65L317.41,318.05L318.76,320.19L318.71,321.59L319.59,323.4L319.59,325.04L320.57,327.47L321.26,326.92L324.28,326.31L323.66,327.61L322.8,328.37L322.47,329.64L321.45,330.97L324.01,331.03L323.96,331.8L324.51,332.94L323.49,333.78L321.95,334.69L320.79,334.68L320.66,333.59L320.19,333L319.09,334.15L317.37,334.02L319.32,331.31L320.39,330.29L319.64,330.01L318.97,328.87L320.13,328.39L319.96,327.23L317.32,326.98L315.52,325.59L315.49,320.58L315.24,317.86L315.93,318.08Z" class="land" id="UZ-FA-SO" title="Sokh"/>
    <path d="M293.95,336.73L293.98,335.68L294.39,335.07L301.08,336.37L302.86,336.01L303.29,336.31L303.68,337.58L302.12,338.66L300.53,338.51L300.39,339.85L299.99,340.93L299.22,341.38L298.2,340.47L297.48,338.57L295.22,337.25Z" class="land" id="TJ-SU-V" title="Vorukh"/>
    <path d="M351.48,329.27L352.77,329L351.67,330.93L349.43,330.27L348.15,331.53L346.44,330.43L349.02,329.12L349.5,327.88L350.8,328.02Z" class="land" id="UZ-FA-SH" title="Shohimardon"/>
  </g>
</svg>