<?xml version="1.0" encoding="UTF-8"?>
<svg xmlns="http://www.w3.org/2000/svg" width="180.14" height="171.15" viewBox="389.93 171.42 180.14 171.15" style="background-color:#000000">
  <!-- Created using SVG Map Generator: dojo.amcharts.com/svg-map-generator -->
  <style>
    .land { fill: #ffffff; stroke: #000000; stroke-width: 0.65; }
  </style>
  <g id="polygons">
    <path d="M510,267.32L511.95,264.53L515.05,263.49L515.26,258.96L515.32,258.97L525.78,258.4L526.55,262.14L526.55,263.85L529,269.13L527.2,271.11L526.2,271.13L519.73,271.18L516.75,270.68L515.52,269.83L512.46,268.82Z" class="land" id="KW-FA" title="Al Farwānīyah"/>
    <path d="M527.2,271.11L529,269.13L526.55,263.85L526.55,262.14L534.28,262.03L536.14,261.38L536.53,263.42L538.17,267.78L538.69,270.4L535.93,270.78L533.74,271.78L531.9,271.89L530.06,270.98L528.17,271.09Z" class="land" id="KW-MU" title="Mubārak al Kabīr"/>
    <path d="M536.14,261.38L534.28,262.03L526.55,262.14L525.78,258.4L529.64,258.19L527.78,255.3L530.17,253.38L532.4,254.92L536.04,253.99L536.58,254.43L535.89,259.01Z" class="land" id="KW-HA" title="Ḩawallī"/>
    <path d="M530.17,253.38L527.78,255.3L529.64,258.19L515.32,258.97L508.62,258.81L508.51,255.97L509.69,253.95L510.06,251.66L511.75,254.12L511.88,256.44L515.16,256.97L518.15,256.25L519.99,254.54L523.08,253.25L526.08,249.84L527.63,249.72L527.96,251.25ZM556.22,241.09L556.48,241.88L560.35,243.86L561.77,246.02L564.27,248.71L562.98,250.43L560.64,249.2L558.44,246.19L551.89,245.24L552.76,242.43L553.58,241.21Z" class="land" id="KW-KU" title="Al ‘Āşimah"/>
    <path d="M538.69,270.4L539.56,271.25L539.37,273.18L540.07,274.94L540.43,280.35L541.7,283.4L541.66,285.56L543.62,292.77L546.12,295.62L546.65,297.51L548.88,299.73L551.77,301.18L553.92,301.48L553,303.16L552.78,308.9L554.88,314L559.13,317.67L561.4,318.27L563.24,318.16L562.32,320.01L561.89,322.61L562.32,325.26L561.15,325.91L558.78,324.55L557.73,324.75L557.2,326.6L559.79,326.16L561.32,327.6L563.34,328.25L562.81,329.85L564.14,334.71L564.89,336.11L567.42,339.19L551.08,339.36L518.37,339.71L497.07,339.93L497.44,337.78L494.49,334.73L493.29,334.04L491.64,331.86L490.6,329.3L487.79,326.3L486.97,323.37L486.77,318.79L487.54,315.24L486.83,309.92L486.04,307.96L488.69,305.87L490.74,303.02L492.32,301.52L493.1,292.36L495.6,289.71L499.02,286.66L506.81,280.95L507.6,271.09L510,267.32L512.46,268.82L515.52,269.83L516.75,270.68L519.73,271.18L526.2,271.13L528.17,271.09L530.06,270.98L531.9,271.89L533.74,271.78L535.93,270.78Z" class="land" id="KW-AH" title="Al Aḩmadī"/>
    <path d="M510.06,251.66L509.69,253.95L508.51,255.97L508.62,258.81L515.26,258.96L515.05,263.49L511.95,264.53L510,267.32L507.6,271.09L506.81,280.95L499.02,286.66L495.6,289.71L493.1,292.36L492.32,301.52L490.74,303.02L488.69,305.87L486.04,307.96L483.87,305.81L482.17,302.61L479.52,299.6L477.8,295.4L475.04,292.9L467.16,291.28L459.09,290.15L442.72,287.18L413.13,283.44L392.58,280.89L409.09,262.38L414.85,252.66L420.75,246.17L422.11,244.09L424.84,236.92L431.72,225.51L433.52,221.53L434.57,215.73L437.94,209.44L444.88,191.66L448.92,185.75L450.98,184.24L454.7,182.22L458.51,180.9L464.16,178.57L466.61,176.75L471.52,174.68L502.03,174.07L505.05,175.89L506.15,177.31L513.07,179.43L516.04,180.86L521.43,182.52L525.02,184.44L527.95,184.75L527.81,188.91L529.13,191.84L529.13,195.48L528.73,197.09L529.35,200.7L531.45,204.69L533.02,208.53L535.52,211.4L536.92,211.45L537.71,212.77L537.8,215.86L539.46,219.19L541.08,224.68L544.27,229.06L544.49,231.73L544.1,233.06L542.18,235.27L541.08,233.01L535.48,230.18L529.8,229.27L524.43,230.17L519.08,234.74L513.87,238.47L510.06,241.94L505.88,247.44L501.69,249.42L501.65,251.11L502.49,252.83L509.23,251.16ZM548.31,190.1L552.19,194.61L555.21,199.76L556.07,201.73L559.15,204.07L560.2,206.34L560.59,210.2L559.81,213.84L558.37,217.39L555.71,220.9L554.38,223.71L553.31,224.12L550.22,227.14L548.58,227.21L545.23,226.53L543.52,223.66L543.26,221.85L542.14,219.96L541.75,217.16L539.52,214.78L538.99,211.6L537.48,208.8L534.79,208.27L533.14,205.78L532.68,203.73L530.65,199.49L529.79,196.84L532.23,197.97L533.87,197.68L536.04,198.43L536.43,199.95L539.12,197.75L542.28,195.94L543.58,196.01L545.75,194.04L545.82,192.98L543.85,192.15L543.72,194.42L541.68,194.95L540.11,193.05L538.66,194.73L536.43,194.8L532.29,192.68L531.9,190.41L534,189.8L536.23,186.99L539.52,185.85L542.07,185.4L544.9,186.84ZM530.12,188.65L529.14,187.29L531.44,183.35L534.52,182.14L538.27,181.98L538.93,183.65L533.74,186.01L532.82,187.07Z" class="land" id="KW-JA" title="Al Jahrā’"/>
  </g>
</svg>