<?xml version="1.0" encoding="UTF-8"?>
<svg xmlns="http://www.w3.org/2000/svg" width="220.28" height="262.3" viewBox="369.86 125.85 220.28 262.3" style="background-color:#000000">
  <!-- Created using SVG Map Generator: dojo.amcharts.com/svg-map-generator -->
  <style>
    .land { fill: #ffffff; stroke: #000000; stroke-width: 0.65; }
  </style>
  <g id="polygons">
    <path d="M583.08,352.36L581.46,352.91L581.92,354.92L584.42,356.73L584.58,357.3L582.75,359.41L583.64,361.93L581.64,364.47L580.59,367.08L578.79,366.55L576.96,365.46L575.44,367.04L574.8,368.55L571.03,371.27L569.65,370.23L567.26,373.54L565.52,373.18L564.12,374.02L562.9,373.56L560.46,370.43L557.57,369.34L555.72,367.72L554.93,365.7L552.77,367.66L552.28,369.34L550.02,369.85L550.05,367.53L548.44,365.76L547.85,363.4L546.34,362.38L545.36,360.91L545.28,358.75L546.47,356.91L550.08,353.49L551.62,353.86L552.64,355.02L554.05,354.18L554.64,354.77L554.15,358.76L555.48,359.93L557.72,360.47L560.01,359.94L560.49,358.43L561.84,357.01L563.02,356.68L563.73,354.68L563.44,351.71L562,350L560.84,350.27L559.8,349.58L560.43,349.32L561.48,347.14L562.84,346.15L564.68,346.21L567.23,346.9L571.56,345.66L573.58,345.51L575.56,346.18L577.11,348.01L579.53,349L580.65,348.11L581.89,348.31L583.57,351.16Z" class="land" id="LA-AT" title="Attapu"/>
    <path d="M572.66,318.67L575.58,320.3L577.29,322.24L578.09,322.48L581.18,322.11L581.44,323.85L579.9,326.04L577.47,327.13L575.49,328.42L573.77,328.62L573.06,330.23L573.35,331.28L574.91,332.2L575.86,335.05L577.79,336.3L579.29,339.03L581.53,338.68L582.65,339.47L582.83,341.28L585.09,341.54L585.81,343.91L587.49,345.33L587.47,347.59L585.43,350.58L585.23,352.26L583.08,352.36L583.57,351.16L581.89,348.31L580.65,348.11L579.53,349L577.11,348.01L575.56,346.18L573.58,345.51L571.56,345.66L567.23,346.9L564.68,346.21L562.84,346.15L561.48,347.14L560.43,349.32L559.8,349.58L559.3,347.11L556.34,344.74L553.75,344.08L552.43,342.41L550.98,341.87L549.35,341.27L548.89,339.87L550.34,338.53L552.6,339.16L553.5,338.01L557.2,338.01L558.21,337.36L559.67,337.58L560.21,335.26L559.5,333.53L560.24,332.54L558.98,331.45L561.26,327.19L563.23,325.27L562.9,324.37L563.6,322.69L566.93,323.3L570.76,321.85Z" class="land" id="LA-XE" title="Xékong"/>
    <path d="M489.18,213.63L487.36,213.97L486.01,215.04L484.1,214.15L483.42,215.02L483.98,216.6L485.52,217.84L486.04,220.12L485.21,220.49L484.59,222.24L481.81,223.2L479.41,225.14L481.15,226.92L482.71,227.91L484.53,227.76L487.68,229.18L489.12,230.27L489.22,231.4L490.87,231.55L490.69,235.16L489.47,236.25L488.91,237.72L486.94,239.92L484.54,240.34L481.26,238.63L480.23,238.38L480.24,234.42L479.54,233.75L477.56,233.52L475.54,232.54L473.71,232.63L471.58,232.1L469.5,230.19L467.48,231L464.95,230.37L462.53,231.02L457.67,230.22L456.82,229.38L453.79,228.56L452.35,228.61L447.82,225.22L447.23,223.5L445.77,221.98L445.4,220.43L445.7,218.83L448.01,216.64L449.7,215.47L451.38,213.72L453.46,212.85L453.7,210L456.63,208.34L458.06,208.24L458.98,207.09L461.54,206.62L462.89,207.68L464.29,207.09L465.51,207.92L468.43,208.5L469.77,207.8L472.33,207.18L472.97,206.37L474.57,206.65L474.82,204.76L476.13,203.77L477.66,203.66L479.18,204.59L480.29,206.04L479.92,209.17L482.12,211.09L484.56,210.42L485.84,208.62L487.82,209.34L489.43,208.92L488.78,210.96Z" class="land" id="LA-XI" title="Xiangkhoang"/>
    <path d="M489.18,213.63L488.78,210.96L489.43,208.92L487.82,209.34L485.84,208.62L484.56,210.42L482.12,211.09L479.92,209.17L480.29,206.04L479.18,204.59L477.66,203.66L476.13,203.77L474.82,204.76L474.57,206.65L472.97,206.37L472.33,207.18L469.77,207.8L468.43,208.5L465.51,207.92L464.29,207.09L462.89,207.68L461.54,206.62L458.98,207.09L459.04,202.51L459.84,201.51L458.3,199.18L459.24,197.77L461.75,195.05L461.66,192.78L460.09,190.12L461.16,187.58L461.02,185.76L461.49,183.08L465.99,180.91L466.11,180.42L467.18,179.62L469.19,181.82L471.48,182.29L473.97,184.56L475.36,184.15L475.16,182.63L476.62,181.78L477.1,179.19L482.13,177.2L483.79,176.96L485.1,175.42L486.11,175.34L489,176.3L489.77,177.45L491.88,177.82L493.05,179.67L494.55,181.13L496.35,181.36L497.48,183.23L500.57,184.49L500.75,185.75L498.91,188.28L497.58,189L496.14,188.32L495.53,189.51L493.72,191.2L495.78,192.06L499.85,191.97L500.9,193.11L502.85,194.19L502.18,196.05L502.17,198.08L503.13,198.57L506.78,197.83L509.3,199.21L509.22,200.45L510.69,201.74L510.59,204.24L510.09,205L508.33,205.04L507.88,205.88L505.68,207.3L505.12,208.71L506.7,209.11L506.38,210.84L504.43,212.21L503.15,212.52L502.1,213.65L501.2,216.06L497.87,216.52L495.3,215.08L494.29,214.03L491.88,214.95L491.36,214.08Z" class="land" id="LA-HO" title="Houaphan"/>
    <path d="M452.94,169.88L453.67,172.06L455.46,172.93L456.99,176.25L458.33,178.17L461.27,179.51L462.54,179.45L464.14,180.31L466.11,180.42L465.99,180.91L461.49,183.08L461.02,185.76L461.16,187.58L460.09,190.12L461.66,192.78L461.75,195.05L459.24,197.77L458.3,199.18L459.84,201.51L459.04,202.51L458.98,207.09L458.06,208.24L456.63,208.34L453.7,210L453.46,212.85L451.38,213.72L449.7,215.47L448.01,216.64L445.7,218.83L445.4,220.43L445.77,221.98L447.23,223.5L447.82,225.22L446.63,226.45L442.99,227.94L441.08,226.31L440.48,225.01L439.31,224.6L437.16,222.97L435.41,223.78L433.57,223.37L432.01,222.36L429.37,223.12L428.95,224.96L426.52,227.04L425.39,230.07L421.22,233.19L421.79,228.64L421.62,226.29L422.81,223.84L423.95,222.55L422.1,221.41L421.4,220.19L421.35,214.9L419.73,214.94L419.39,212.34L420.16,210.4L420.12,208.96L418.3,206.61L421.76,206.09L423.73,205.15L426.4,202.72L427.95,202.9L430.94,201.75L432.36,199.09L431.1,196.98L431.47,194.01L430.69,192.12L433.21,186.14L433.32,185.42L435.25,185.14L436.24,184.06L436.71,182.05L436.17,179.99L436.62,178.78L435.41,175.3L437.37,176.39L439.05,176.59L439.52,177.54L441.08,178.15L442.72,176.17L448.99,173.2L449.47,170.46Z" class="land" id="LA-LP" title="Louangphrabang"/>
    <path d="M528.76,341.06L529.95,340.28L532.07,340.64L533.35,340.14L535.09,340.6L537.42,340.61L539.14,340.16L542.42,340.1L543.25,341.49L542.49,342.98L544.92,345.16L547.57,343.03L550.98,341.87L552.43,342.41L553.75,344.08L556.34,344.74L559.3,347.11L559.8,349.58L560.84,350.27L562,350L563.44,351.71L563.73,354.68L563.02,356.68L561.84,357.01L560.49,358.43L560.01,359.94L557.72,360.47L555.48,359.93L554.15,358.76L554.64,354.77L554.05,354.18L552.64,355.02L551.62,353.86L550.08,353.49L546.47,356.91L545.28,358.75L545.36,360.91L546.34,362.38L547.85,363.4L548.44,365.76L550.05,367.53L550.02,369.85L548.79,369.89L547.07,368.81L546.15,371.29L544.74,372.25L542.16,372.09L541.44,372.83L539.62,372.3L539.48,373.29L540.48,374.52L540.71,376.4L542.52,377.91L543.25,379.65L544.47,380.9L544.4,382L542.69,383.58L542.74,384.96L541.75,385.5L539.62,385.1L538.21,385.45L536.75,384.87L534.3,382.73L533.08,380.48L532.28,380.05L529.47,380L528.83,379.03L527.08,378.21L524.72,379.59L521.81,379.91L519.22,377.68L517.27,374.49L517.16,372.89L519.56,372.34L520.1,371.49L521.45,371.71L523.75,370.46L524.44,369.08L526.01,367.27L526.42,365.61L526.02,363.66L526.28,361.41L525.83,359.94L526.71,358.55L527.11,355.6L528.51,354.31L525.4,350.99L524.54,349.71L524.84,348.48L526.25,346.85L527.96,345.63L527.79,344.08L525.66,343.8L525.75,342.61Z" class="land" id="LA-CH" title="Champasak"/>
    <path d="M428.19,258.92L423.89,263.56L423.31,263.75L420.65,262.47L419.95,263.47L418.91,267.3L416.27,267.82L413.69,270.24L414.03,268.72L411.15,268.34L410.22,266.8L410.5,264.3L410.32,262.16L409.53,260.45L410.14,258.25L412.13,255.6L413.25,255.33L415.67,252.53L416.94,250.57L418.3,250.57L419.3,249.63L421.23,246.05L421.62,243.59L422.68,240.9L421.02,238.13L421.38,236.45L421.22,233.19L425.39,230.07L426.52,227.04L428.95,224.96L429.37,223.12L432.01,222.36L433.57,223.37L435.41,223.78L437.16,222.97L439.31,224.6L440.48,225.01L441.08,226.31L442.99,227.94L446.63,226.45L447.82,225.22L452.35,228.61L453.79,228.56L456.82,229.38L457.67,230.22L462.53,231.02L464.95,230.37L467.48,231L469.5,230.19L471.58,232.1L473.71,232.63L475.54,232.54L477.56,233.52L479.54,233.75L480.24,234.42L480.23,238.38L477.1,239.88L474.12,238.04L472.44,237.35L471.28,236.2L468.82,236.78L469.33,239.23L468.74,240.46L469.23,243.37L468.92,245.72L465.52,248.16L463.28,248.71L459.84,248.88L457.44,249.31L451.86,248.95L449.98,249.38L451,251.62L452.27,252.9L452.32,255.89L450.82,255.43L445.52,256.79L444.23,257.93L441.9,257.44L440.52,255.76L437.2,255.42L433.87,253.95L432.49,251.7L430.73,251.85L429.53,252.78L428.05,252.18L428.27,254.28L427.72,256.69Z" class="land" id="LA-VI" title="Viangchan"/>
    <path d="M428.19,258.92L427.72,256.69L428.27,254.28L428.05,252.18L429.53,252.78L430.73,251.85L432.49,251.7L433.87,253.95L437.2,255.42L440.52,255.76L441.9,257.44L444.23,257.93L445.52,256.79L450.82,255.43L452.32,255.89L454.92,257.16L455.42,259.08L454.96,260.26L456.06,260.9L457.54,260.52L456.89,261.86L457.13,263.61L456.13,264.95L453.3,264.41L450.86,265.51L447.15,268.2L446.14,268.45L445.4,270.26L443.55,269.15L444.03,267.2L442.75,265.54L440.32,265.53L438.34,264.84L437.03,263.51L435.34,263.13L432.06,260.12L430.98,258.39L428.85,258.28Z" class="land" id="LA-VT" title="Viangchan"/>
    <path d="M523.95,324L526.15,324.21L527.84,325.02L532.97,326.74L534.39,327.53L537.32,327.69L539.86,325.39L542.31,325.58L544.34,324.41L543.8,319.92L545.91,318.85L549.31,319.95L551.37,320.12L554.08,319.48L555.54,318.63L556.91,319.04L558.66,317.73L558.55,316.04L559.73,314.26L561.12,314.62L562.49,313.98L562.98,312.35L561.72,311.46L563.75,308.42L564.93,309.21L564.81,311.95L567.39,314.19L567.86,315.27L570.31,315.41L572.11,316.61L572.66,318.67L570.76,321.85L566.93,323.3L563.6,322.69L562.9,324.37L563.23,325.27L561.26,327.19L558.98,331.45L560.24,332.54L559.5,333.53L560.21,335.26L559.67,337.58L558.21,337.36L557.2,338.01L553.5,338.01L552.6,339.16L550.34,338.53L548.89,339.87L549.35,341.27L550.98,341.87L547.57,343.03L544.92,345.16L542.49,342.98L543.25,341.49L542.42,340.1L539.14,340.16L537.42,340.61L535.09,340.6L533.35,340.14L532.07,340.64L529.95,340.28L528.76,341.06L530.43,334.94L529.35,332.38L526.86,331.14L524.66,331.09L523.64,330.06L522.51,327.63L522.23,325.48Z" class="land" id="LA-SL" title="Salavan"/>
    <path d="M504.71,296.17L505.56,297.04L507.15,297.25L507.12,294.77L506.1,294.14L508.04,291.94L509.46,292.36L510.51,291.58L512.8,291.54L514.38,292.27L516.61,291.17L518.41,292.83L520.66,292.91L522.51,291.6L525.69,291.5L529.95,293.2L530.53,291.2L532.64,291.23L537.18,292.96L540.16,293.15L543.03,292.74L543.95,291.29L545.51,291.84L546.8,293.18L550.06,294.21L551.84,294.05L552.31,294.82L554.48,295.56L555.52,295.3L555.57,303.89L555.99,305.25L558.56,306.77L558.99,310.2L560.06,311.47L561.72,311.46L562.98,312.35L562.49,313.98L561.12,314.62L559.73,314.26L558.55,316.04L558.66,317.73L556.91,319.04L555.54,318.63L554.08,319.48L551.37,320.12L549.31,319.95L545.91,318.85L543.8,319.92L544.34,324.41L542.31,325.58L539.86,325.39L537.32,327.69L534.39,327.53L532.97,326.74L527.84,325.02L526.15,324.21L523.95,324L520.12,322.74L518.66,322.64L514.17,321.03L513.13,319.96L512.36,315.95L509.3,313.68L508.19,311.16L504.94,308.48L504.9,305.93L505.62,302.93L505,300.48L505.28,298.4Z" class="land" id="LA-SV" title="Savannakhét"/>
    <path d="M504.71,296.17L504.68,293.75L506.51,289.38L506.75,287.34L506.7,283.39L506.03,281.88L505,281.09L503.8,279.14L501.58,277.74L497.17,275.41L495.49,273.64L493.51,270.07L491.5,268.81L491.96,267.27L493.8,264.15L494.91,260.65L495.79,259.14L498.03,258.7L499.12,257.81L503.23,260.81L506.03,262.4L507.12,264.56L508.26,264.73L509.87,265.96L513.05,266.44L514.6,266.16L515.68,264.94L517.39,261.33L518.77,259.42L519.22,257.27L520.24,257.11L520.31,258.82L522.39,260.18L523.07,258.86L524.76,258.91L525.46,260.86L527.61,263.24L529.15,265.74L528.82,268.02L530.23,270.05L532.83,274.71L535.98,276.68L540.9,282.74L545.63,286.83L546.66,287.2L547.75,285.88L549.08,287.55L549.07,289.24L551.29,291.95L551.84,294.05L550.06,294.21L546.8,293.18L545.51,291.84L543.95,291.29L543.03,292.74L540.16,293.15L537.18,292.96L532.64,291.23L530.53,291.2L529.95,293.2L525.69,291.5L522.51,291.6L520.66,292.91L518.41,292.83L516.61,291.17L514.38,292.27L512.8,291.54L510.51,291.58L509.46,292.36L508.04,291.94L506.1,294.14L507.12,294.77L507.15,297.25L505.56,297.04Z" class="land" id="LA-KH" title="Khammouan"/>
    <path d="M457.54,260.52L456.06,260.9L454.96,260.26L455.42,259.08L454.92,257.16L452.32,255.89L452.27,252.9L451,251.62L449.98,249.38L451.86,248.95L457.44,249.31L459.84,248.88L463.28,248.71L465.52,248.16L468.92,245.72L469.23,243.37L468.74,240.46L469.33,239.23L468.82,236.78L471.28,236.2L472.44,237.35L474.12,238.04L477.1,239.88L480.23,238.38L481.26,238.63L484.54,240.34L486.94,239.92L488.91,237.72L489.47,236.25L490.69,235.16L490.87,231.55L493.58,233.25L494.88,234.92L497.16,235.36L498.96,237.49L501.86,239.72L504.01,240.94L506.67,241.49L508.31,241.36L510.13,242.76L511.64,242.71L513.76,243.8L515.12,243.75L516.74,245.78L514.78,248.17L514.19,251.07L514.5,251.9L516.55,253.72L516.38,255.1L519.22,257.27L518.77,259.42L517.39,261.33L515.68,264.94L514.6,266.16L513.05,266.44L509.87,265.96L508.26,264.73L507.12,264.56L506.03,262.4L503.23,260.81L499.12,257.81L498.03,258.7L495.79,259.14L494.91,260.65L493.8,264.15L491.96,267.27L491.5,268.81L489.48,264.41L486.64,261.24L485.43,258.23L483.48,255.14L482.1,254.71L479.44,256.1L478.71,255.07L476.87,254.3L475.21,254.21L472.31,252.69L466.33,251.46L463.78,251.93L462.47,252.69L461.88,254.62L463.31,255.54L462.83,256.41L460.32,256.96L459.34,258.04L458.99,259.69Z" class="land" id="LA-BL" title="Bolikhamxai"/>
    <path d="M381.34,210.74L383.47,211.22L389.03,210L391.45,208.43L392.66,207.79L399.87,209.18L401.91,207.89L405.51,209.92L414.09,209.86L415.15,209.62L415.79,208.32L418.3,206.61L420.12,208.96L420.16,210.4L419.39,212.34L419.73,214.94L421.35,214.9L421.4,220.19L422.1,221.41L423.95,222.55L422.81,223.84L421.62,226.29L421.79,228.64L421.22,233.19L421.38,236.45L421.02,238.13L422.68,240.9L421.62,243.59L421.23,246.05L419.3,249.63L418.3,250.57L416.94,250.57L415.67,252.53L413.25,255.33L412.13,255.6L410.14,258.25L409.53,260.45L410.32,262.16L410.5,264.3L410.22,266.8L411.15,268.34L414.03,268.72L413.69,270.24L414,270.88L411.15,272.13L405.2,276.85L403.93,278.91L402.92,279.28L401.94,280.74L399.58,279.73L397.65,278.18L395.39,277.75L394.93,276.74L396.27,274.99L397.06,272.87L397.19,270.72L398.03,270.12L398.42,267.8L400.06,266.64L401.37,264.33L402.88,263.07L402.21,260.96L402.71,258.57L401.83,257.32L402.32,254.61L400.52,253.77L399.04,251.87L400.39,249.39L402.6,248L402.95,246.51L405.01,244.49L404.19,243.34L404.68,240.83L404.8,237.91L406.25,235.24L407.46,234.07L407.22,233.18L404.69,230.37L404.72,227.89L403.92,224.49L403.25,224.25L403.66,221.05L404.95,220.46L405.49,218.94L405.18,217.51L404.09,216.92L401.72,217.66L397.45,216.2L394.61,216.22L392.73,218.53L390.94,220.08L390.07,219.25L387,218.39L385.86,219.76L382.88,218.51L382.7,217.07L381.66,215.57L380.65,211.66Z" class="land" id="LA-XA" title="Xaignabouli"/>
    <path d="M387.03,179.04L387.8,180.16L390.15,181.43L390.62,182.8L392.18,184.45L393.18,186.52L393.4,189.37L394.31,189.74L396.42,189.48L398.3,192.12L398.38,193.89L399.43,194.77L401.8,195.45L404.68,195.18L405.19,197.03L405.12,200.4L404.05,201.82L402.19,202.16L400.52,200.94L398.51,201.74L396.98,204.25L395.74,204.88L393.14,204.98L390.83,205.82L391.45,208.43L389.03,210L383.47,211.22L381.34,210.74L382.01,209.41L383.23,208.59L385.2,202.5L384.79,199.99L382.85,198.75L381.73,196.94L380.11,193.34L378.46,192.41L376.02,193.95L375.69,195.04L374.5,195.66L374.51,196.84L373.06,197.01L372.51,195.94L372.58,193.55L373.18,192.74L373.99,187.91L375.75,183.37L378,181.01L379.12,180.68L380.65,179.29L384.34,180.04Z" class="land" id="LA-BK" title="Bokèo"/>
    <path d="M420.03,169.27L420.03,172.17L418.96,174.2L415.81,176.03L415.91,178.11L413.13,178.59L411.85,179.76L410.82,181.79L412.55,183.27L414.12,185.32L414.34,187.71L413.54,190.11L411.12,193.74L408.9,194.78L404.68,195.18L401.8,195.45L399.43,194.77L398.38,193.89L398.3,192.12L396.42,189.48L394.31,189.74L393.4,189.37L393.18,186.52L392.18,184.45L390.62,182.8L390.15,181.43L387.8,180.16L387.03,179.04L387.46,177.56L384.93,178L384.41,177.62L385.2,173.33L387.87,172.04L389.35,169.31L390.37,164.66L392.26,165.09L393.95,164.56L395.22,163.31L398.28,161.78L402.25,158.5L403.49,157.83L403.05,161.86L404.86,163.07L404.08,164.56L404.12,166.68L406.01,168.86L409.03,167.38L412.26,166.76L414.79,167.32L414.59,168.52L416.26,168.39L418.59,170.06Z" class="land" id="LA-LM" title="Louang Namtha"/>
    <path d="M421.54,167.42L424.61,169.48L427.71,170.55L429.04,172.33L430.81,173.7L432.75,173.51L435.41,175.3L436.62,178.78L436.17,179.99L436.71,182.05L436.24,184.06L435.25,185.14L433.32,185.42L433.21,186.14L430.69,192.12L431.47,194.01L431.1,196.98L432.36,199.09L430.94,201.75L427.95,202.9L426.4,202.72L423.73,205.15L421.76,206.09L418.3,206.61L415.79,208.32L415.15,209.62L414.09,209.86L405.51,209.92L401.91,207.89L399.87,209.18L392.66,207.79L391.45,208.43L390.83,205.82L393.14,204.98L395.74,204.88L396.98,204.25L398.51,201.74L400.52,200.94L402.19,202.16L404.05,201.82L405.12,200.4L405.19,197.03L404.68,195.18L408.9,194.78L411.12,193.74L413.54,190.11L414.34,187.71L414.12,185.32L412.55,183.27L410.82,181.79L411.85,179.76L413.13,178.59L415.91,178.11L415.81,176.03L418.96,174.2L420.03,172.17L420.03,169.27L419.79,168.19Z" class="land" id="LA-OU" title="Oudômxai"/>
    <path d="M452.94,169.88L449.47,170.46L448.99,173.2L442.72,176.17L441.08,178.15L439.52,177.54L439.05,176.59L437.37,176.39L435.41,175.3L432.75,173.51L430.81,173.7L429.04,172.33L427.71,170.55L424.61,169.48L421.54,167.42L421.28,166.29L418.72,164.89L418.93,159.7L419.45,158.46L419.07,157.24L420.75,156.21L421.04,155.06L419.67,154.36L418.89,152.26L419.55,149.53L417.34,145.7L415.43,144.59L415.02,142.74L413.97,140.83L414.15,138.2L412.91,136.6L413.55,135.27L415.41,134.86L416.48,132.4L416.79,129.9L418.46,128.5L420.5,129.09L421.43,131.12L422.86,131.97L423.53,130.4L427.03,129.9L428.77,130.32L429.99,131.39L431,134.25L433.05,136.59L434.76,137.46L437.69,140.01L438.62,141.69L440.35,142.94L440.21,144.9L443.42,146.62L444.66,150.1L444.52,151.9L445.12,154.08L447.12,153.96L448.98,151.57L449.06,149.11L450.12,149.08L450.27,151.69L451.2,152.62L453.57,151.66L453.96,152.74L454.31,156.61L452.06,159.05L452.68,160.78L451.75,162.32L451.5,164.85L449.73,165.81L451.86,167.25L451.9,169.09Z" class="land" id="LA-PH" title="Phôngsali"/>
  </g>
</svg>