<?xml version="1.0" encoding="UTF-8"?>
<svg xmlns="http://www.w3.org/2000/svg" width="485.3" height="164.96" viewBox="237.35 174.52 485.3 164.96" style="background-color:#000000">
  <!-- Created using SVG Map Generator: dojo.amcharts.com/svg-map-generator -->
  <style>
    .land { fill: #ffffff; stroke: #000000; stroke-width: 0.65; }
  </style>
  <g id="polygons">
    <path d="M289.27,287.26L288.97,285.77L290.44,285.83L290.95,286.61L290.89,287.32L289.53,287.65Z" class="land" id="MY-16" title="Putrajaya"/>
    <path d="M621.46,225.83L621.32,226.83L622.11,228.34L621.55,228.67L619.41,228.8L619.5,228.14L620.34,226.63Z" class="land" id="MY-15" title="Labuan"/>
    <path d="M291.14,283.41L290.42,283.61L289.2,283.28L288.94,282.32L287.97,281.09L287.97,280.5L288.84,278.96L290.45,279.09L291,278.67L291.62,279.41L291.31,281.37L291.67,281.87L291.58,283.01Z" class="land" id="MY-14" title="Kuala Lumpur"/>
    <path d="M501.55,313.55L502.02,314.72L501.96,315.7L502.42,316.04L502.54,317.13L501.92,317.47L501.74,316.06L500.7,315.25ZM594.27,245.44L595.35,245.82L595.93,246.57L596.94,246.86L598.68,249.61L598.6,250.59L599.18,251.2L598.91,253.07L599.7,253.36L600.38,253.04L601.22,253.31L602.24,253.03L602.38,254.12L603.37,255.97L604.24,256.07L605.33,257.81L606.73,258.32L606.76,259.3L607.75,258.98L609.44,257.78L611.97,253.66L611.36,252.89L612.18,251.95L612.82,250.67L612.85,249.46L611.46,248.71L611.36,246.23L611.02,243.34L610.48,242.45L610.57,241.53L611.9,241.02L612.27,240.09L615.01,239.32L615.76,237.89L616.41,238.24L615.74,239.04L616.64,240.02L617.18,244.65L617.5,245.17L618.3,247.77L618.3,249.9L620.74,250.62L621.69,250.55L622,251.35L622.76,251.25L623.89,252.2L624.76,251.61L624.18,250.25L622.89,249.13L622.46,246.95L622.83,245.56L622.83,244.09L622.17,243.55L621.96,241.34L621.51,240.79L621.66,239.95L620.23,238.74L619.51,237.5L620.47,236.83L620.54,236L621.29,235.84L621.84,236.9L623.56,237.7L624.54,237.6L625.29,237.1L626.18,235.76L626.71,235.66L627.88,236.11L629.34,235.41L630.57,235.26L631.09,235.71L631.87,239.26L631.85,240.45L631.34,241.02L630.5,243.05L629.49,244.09L629.37,245.13L629.81,245.78L630.04,247.31L629.65,247.91L630.42,249.36L630.27,250.64L631.72,251.33L632.23,252.54L631.62,253.69L631.39,255.21L631.72,256.42L632.32,256.75L632.28,258.06L631.64,260.14L631.24,260.8L629.53,261.47L630.95,263.02L629.84,266.64L629.8,268.12L630.02,269.56L630.55,270.24L630.74,271.84L631.63,273.35L630.01,273.25L629.15,274.98L628.72,276.52L628.73,278.56L628.51,279.09L629.55,279.88L629.52,280.29L628.38,281.38L628.35,282.75L627.5,283.54L626.3,283.63L625.46,284.62L623.64,284.66L623.46,283.89L622.76,283.14L622.42,284.21L621.83,284.85L619.88,286L619.67,287.34L618.26,288.73L619.13,288.93L619.1,290.39L618.22,291.13L618.54,292.6L617.97,293.54L618.39,294.39L619.86,293.99L621.46,295.84L621.49,296.61L620.43,297.28L618.91,297.33L618.08,298.09L617.85,298.91L616.87,298.89L615.46,300.2L614.92,299.79L614.23,300.91L614.63,301.43L613.6,302.43L611.13,302.66L610.8,302.84L610.33,305.25L611.14,306.63L610.87,307.71L611.21,308.42L612.33,307.95L613.02,308.54L612.15,309.32L612.03,310.09L612.65,310.78L612.1,311.28L611.29,311.31L610.58,312.31L609.69,312.09L608.8,312.3L608.19,313.4L608.57,314.13L608.66,315.4L608.45,316.75L607.78,317.41L607.26,318.53L606.09,319.21L605.85,320.13L605.95,321.25L604.95,322.72L604.27,322.63L603.23,321.77L602.66,321.73L600.94,320.63L600.34,321.26L598.63,321.85L598.14,322.23L596.85,322.46L596.35,323.18L594.49,321.93L593.08,321.96L591.62,322.4L590.64,322.21L589.57,323.02L586.81,324.16L586.93,325.08L586.42,325.91L583.91,326.87L582.87,327.89L582.07,327.93L581.28,326.93L580.85,325.89L579.84,325.39L578.75,325.59L577.05,326.35L575.65,325.3L575.37,324.58L573.33,323.82L572.05,323.72L570.89,324L569.99,323.7L568.94,322.5L567.05,323.29L566.03,323.3L566.14,322.3L567.44,321.72L568.04,319.69L566.55,319.11L566.12,319.43L563.58,319.05L562.83,320.07L561.75,320.01L560.97,319.48L559.21,319.73L558.13,319.36L553.89,319.21L552.72,320.44L550.77,320.99L550,320.93L548.94,321.79L547.59,322.12L546.98,323.23L547.66,323.82L547.21,325.04L546.55,325.68L546.05,327.34L546.08,328.26L545.43,329.79L544.38,329.79L541.19,330.19L539.51,331.67L539.11,333.05L538.08,333.17L536.52,332.76L535.5,332.99L534.05,332.15L532.49,333.28L531.46,333.47L530.79,334.23L530.36,333.11L529.53,332.41L528.36,332.9L527.11,332.84L526.36,332.35L523.94,331.62L523.51,331.25L521.19,331.99L519.24,332.14L518.39,332.47L515.56,332.61L514.13,334.51L512.94,334.6L511.59,335.68L510.92,335.56L509.58,336.24L508.72,335.58L508.52,336.4L507.26,336.83L505.24,336.26L504.18,335.47L504.04,334.68L503.28,334.49L502.93,333.44L500.21,333.39L500.11,332.12L499.7,331.99L498.97,330.41L497.84,328.83L496.97,328.42L495.67,328.45L494.71,326.79L492.8,325.98L492.32,323.63L491.46,322.96L489.17,322.9L489.13,321.47L488.44,321.8L487.97,320.98L484.8,317.74L485.1,315.37L485.51,314.51L485.29,313.93L483.53,313.46L483.08,312.56L482.5,312.39L482.02,310.74L482.98,310.32L483.25,309.57L483.99,309.13L484.78,309.25L484.92,311.22L485.54,312.22L486.57,312.83L489.47,314.02L490.44,314.86L490.18,315.4L491.82,316.49L492.33,316.12L496.28,316.2L498.16,316L498.21,316.58L499.28,316.97L499.68,318.17L500.82,317.34L500.51,316.47L501.37,315.83L501.54,316.88L502.21,318.5L503.69,319.56L503.73,320.19L503.86,320.48L504.48,320.88L505.19,320.62L504.94,320L505.92,319.85L506.24,319.86L506.42,319.62L506.56,318.96L508.25,318.68L511.2,319.92L512.91,319.16L514.7,320.14L516.3,320.51L517.64,321.38L518.34,322.51L519.42,323.46L520.78,323.77L521.94,324.49L523.12,323.71L524.23,323.86L524.63,324.92L525.37,325.29L525.28,323.76L524.15,323.13L522.72,323.3L522,323.8L521.03,323.05L519.67,322.58L519.18,322.11L518.66,320.85L517.76,320.05L517.77,319.08L518.19,317.35L518.75,316.69L519.62,316.76L520.8,316.13L519.88,314.77L520.29,314.15L520.55,312.53L521.89,309.95L521.96,309.07L522.91,306.48L523.43,306.99L525.18,307.42L526.3,306.53L526.5,305.03L526.85,304.82L526.99,304.23L527.62,304.7L527.8,304.36L527.52,303.86L527.14,303.72L527.15,303.44L526.33,303.67L526.42,303.21L526.22,302.64L525.26,301.8L525.71,300.65L526.93,300.5L528.51,299.58L527.82,298.42L527.85,297.66L527.33,296.9L529.11,296.9L527.51,295.83L527.5,295.09L528.03,293.4L528.3,291.74L529.37,291.23L529.77,290.59L532.4,289.38L533.3,288.03L533.86,288.5L535.11,288.06L538.88,287.37L539.43,287.44L542.23,287.02L546.09,286.15L548.97,285.29L554.59,284.08L556.47,283.95L557.42,283.39L560.69,282.5L563.46,281.96L564.81,281.56L566.16,280.88L567.34,280L568.5,278.37L568.04,277.8L570.45,275.85L571.43,274.15L573.73,272.17L574.14,270.79L575.79,269.12L577.09,266.78L577.29,265.81L580.21,263.88L583.06,261.51L585.31,259.12L586.69,256.84L589.3,253.65L590.26,251.93L590.19,250.93L590.74,250.24L591.07,248.97L591.01,247.55L590.35,245.59L590.72,245.27ZM525.95,289.16L527.24,291.05L527.02,296.83L527.47,297.54L527.76,299.78L527.06,299.72L526.65,300.31L525.77,298.59L525.16,298.27L525.37,296.26L524.65,293.02L524.84,290.53L525.44,289.41ZM523.87,298.09L524.01,298.53L525.77,299.21L525.37,299.78L525.12,301.1L524.53,301.93L524.67,303.78L523.91,304.01L523.37,302.93L522.38,302.89L522.46,301.69L522.28,299.85L523.08,298.57ZM505.29,317.74L505.86,317.91L506.38,319.09L506.31,319.6L506.06,319.8L505.49,319.4L505.27,319.38L504.91,319.9L505.15,320.59L504.5,320.85L503.94,320.49L503.73,320.05L504.79,318.8L504.56,318.22ZM499.77,315.88L500.7,317.32L499.67,317.89L499.29,316.8L498.58,316.11ZM505.62,314.93L506.17,315.58L505.5,315.98L505.15,317.32L504.4,318.02L504.51,318.86L503.29,318.99L502.25,318.48L501.92,317.51L502.6,317.12L502.47,316.43L504.1,315.98L504.17,315.42L505.6,315.38ZM526.64,303.83L526.71,303.58L527.51,303.88L527.3,304.39L527.15,304.14L526.83,304.26L526.83,304.65L526.08,305.05L525.57,305.81L523.83,305.09L522.26,305.47L521.65,304.93L523.22,303.07L523.8,304.1L524.67,304L524.86,303.43L524.7,301.91L526.13,302.67L526.35,303.24L526.27,303.72Z" class="land" id="MY-13" title="Sarawak"/>
    <path d="M665.78,181.43L666.19,179.7L665.99,178.92L667.5,178.36L668.03,177.84L670.24,177.17L671.41,177.54L671.73,178.1L670.93,179.32L671.43,180.4L670.51,181.63L669.03,181.46L665.98,183.03ZM661.92,180.97L661.12,181.4L661.22,180.15L661.96,179.05L662.85,178.93L664.24,178.01L664.91,178.87L664.04,179.69ZM632.32,256.75L631.72,256.42L631.39,255.21L631.62,253.69L632.23,252.54L631.72,251.33L630.27,250.64L630.42,249.36L629.65,247.91L630.04,247.31L629.81,245.78L629.37,245.13L629.49,244.09L630.5,243.05L631.34,241.02L631.85,240.45L631.87,239.26L631.09,235.71L630.57,235.26L629.34,235.41L627.88,236.11L626.71,235.66L627.06,234.95L628.1,234.6L628.97,233.52L629.1,231.87L630.05,230.87L628.95,230.3L627.73,230.26L624.86,228.09L624.41,227.42L624.64,225.58L625.93,224.89L627.66,223.03L628.94,222.04L630.11,219.83L630.77,220.21L630.39,221.31L631.76,222.03L634.66,222.22L635.98,221.76L637,220.8L637.43,218.8L637.67,216.86L639.34,216.12L640.84,214.93L641.21,213.96L640.95,213.15L641.48,211.3L642.72,210.78L642.73,209.51L642.12,208.1L643.5,207.2L644.55,205.32L645.91,203.83L647.89,203.38L647.72,201.96L648.26,201.2L649.01,200.9L651.78,199.03L652.36,197.55L654.34,194.61L655.1,194.3L655.76,193.33L655.41,191.55L655.96,190.69L655.69,189.48L656.72,188.93L657.31,187.86L657.26,187.12L658.3,185.26L659.92,186.81L661.12,188.88L660.36,189.52L661,190.48L661.03,191.76L660.06,192.7L659.23,194.38L658.58,195.16L658.51,196.5L659.87,196.85L660.92,196.43L662.29,194.44L664.04,193.45L663.94,192.38L664.81,191.35L665.15,190.36L665.73,189.97L665.86,189.14L665.28,188.8L665.31,187.35L666.97,186.19L668.24,185.81L669.2,187.08L670.62,187.49L670.82,188.82L670.19,189.85L670.52,192.05L671.2,192.5L670.97,193.52L671.64,195.6L673.99,195.9L674.42,196.87L676.06,197.12L677.05,195.38L678,197.53L679.31,198.21L679.92,198.16L682.65,200.26L682.18,201.2L682.4,203.31L681.79,205.08L680.56,204.9L679.34,205.7L679.14,206.63L680.03,207.9L680.55,209.39L679.78,210.09L679.87,210.89L678.79,211.35L678.24,211.92L679.07,213.06L679.8,213.3L681.14,212.97L682.34,213.27L683.38,213.01L683.03,212.24L685.18,212.31L686.43,211.9L686.47,211.25L687.67,210.29L688.58,209.13L689.19,209.27L689.3,210.09L690.62,211.97L690.18,212.59L692.21,214.4L689.71,215.93L689.16,215.24L687.84,215.81L686.9,215.64L686.16,216.55L686.89,217.22L687.56,218.65L688.79,218.6L690.35,217.59L691.05,218.2L691.71,217.96L692.91,216.8L692.7,215.57L694.23,215.19L694.84,214.64L697.06,215.37L697.53,214.99L698.88,215.94L700.68,216.93L703.04,218.51L703.76,219.47L704.9,219.82L706.3,221.45L707.88,222.28L708.65,223.09L711.49,224.56L713.7,225.3L714.88,225.46L715.86,225.19L716.09,224.6L717.29,224.26L718.31,224.77L719.3,225.77L719.88,227.68L719.43,228.78L720,229.53L719.94,230.21L718.8,231.64L717.56,232.64L715.61,233.43L712.12,234.29L710.79,234.76L710.03,235.45L708.63,235.71L707.44,236.47L705.92,236.63L705.32,236.95L702.42,236.27L701.56,237.21L700.46,237.2L699.51,235.16L698.5,234.81L697.13,234.77L696.68,235.19L696.37,236.28L695.09,236.02L693.96,236.44L692.54,238.14L692.17,239.22L692.97,239.25L693.75,240.34L693.81,241.25L694.5,242.53L695.45,243.62L696.38,243.77L696.41,244.33L697.98,244.43L698.26,245.13L699.02,245.5L699.57,245.1L700.26,245.88L701.22,248.05L701.98,246.99L703.43,247.24L704.7,249.01L702.68,250.74L702.44,251.23L700.82,251.01L698.99,251.78L698.28,251.37L694.66,252.25L693.74,252.71L692.08,252.82L690.83,253.6L688.87,254.4L687.29,253.77L685.99,253.87L685.41,252.75L684.18,251.87L683.1,251.66L682.07,251.1L681.06,250.2L681.02,249.44L679.97,249.47L678.89,250.23L679.86,251.31L679.33,251.99L678.03,252.03L677.81,252.31L677.75,252.59L677.98,253.29L678.17,253.51L677.51,254.06L677.72,255.26L677.44,255.83L675.77,255.36L675.23,254.88L674.87,253.89L672.27,252.28L670.56,250.71L669.47,251.6L667.92,251.43L667.03,251.72L665.59,251.41L665.1,251.99L664.5,251.51L663.56,251.56L662.07,250.98L661.28,251.61L660.32,251.84L659.27,251.51L658.23,250.51L657.42,251.56L656.29,251.36L655.11,251.56L654.96,250.87L653.99,250.01L653.21,250.68L653.2,251.69L650.92,252.75L650.52,251.81L648.8,250.44L646.7,250.99L646.18,250.67L644.21,250.42L643.88,251.41L642.88,251.68L642.11,253.06L641.05,252.7L640.81,251.8L640.06,251.32L638.42,251.14L637.85,250.33L637.09,250.52L636.86,252L637.07,252.6L636.06,253.43L635.33,254.38L634.52,253.88L633.5,255.12L632.86,255.16ZM672.46,194.54L672.79,194.07L674.45,194.18L674.04,192.49L676.04,192.08L676.99,194.24L676.25,194.92L674.2,195.49L672.94,195.07ZM702.2,244.71L701.55,245.22L700.67,244.7L698.04,243.96L699.46,243.57L700.07,242.67L701.05,243.68L702.21,243.76ZM706.87,248.29L706.6,249.16L705.02,248.98L704.26,247.94L705.4,247.69L705.92,248.29ZM679.7,252.93L680.42,253.63L679.58,254.26L678.83,253.94L678.01,253.27L677.87,252.3L678.52,252.4L679.26,253Z" class="land" id="MY-12" title="Sabah"/>
    <path d="M333.02,255.33L331.14,255.58L330.02,255.06L330.23,256.31L329.64,258.02L330.24,258.72L330.45,261.39L329.62,262.09L328.99,261.2L329.12,260.73L327.23,259.01L326.35,259.15L324.88,257.71L323.78,257.14L322.09,256.84L320.72,257.5L319.82,256.79L320.28,255.93L320.17,254.7L320.56,253.22L321.46,251.81L322.49,251.65L322.24,250.9L322.72,250.13L322.31,249.09L321.5,248.17L319.44,248.38L318.62,247.63L318.31,246.06L318.77,245.15L319.36,244.89L318.37,243.31L316.81,243.3L315.45,242.98L314.52,242.26L313.76,241.19L314.01,240.76L313.56,239.03L311.36,237.76L310.31,237.68L310.4,236.37L310.11,235.37L310.44,234.63L309.97,233.49L310.56,232.83L309.55,231.6L307.83,230.9L307.93,227.89L308.52,226.29L307.18,225.19L307.5,224.64L307.31,222.47L307.68,221.71L307.08,218.39L309.27,216.36L310.83,214.57L313.1,216.1L314.51,217.94L315.44,218.79L317.2,219.94L318.39,221.13L319.53,221.84L320.88,222.05L321.88,222.76L324.75,225.6L326.69,228.71L326.62,229.06L327.69,230.85L329.07,233.7L330.69,236.69L332.53,239.86L332.89,240.71L332.45,241.05L333.13,243L332.88,244.12L333.8,246.93L333.09,247.59L333.27,250.11L334.19,251.9L333.67,253.57L332.94,254.19Z" class="land" id="MY-11" title="Terengganu"/>
    <path d="M288.53,265.48L289.32,266.5L290,266.92L291.43,267.12L292.39,268.25L293.07,269.42L293.01,270.82L292.4,271.12L291.83,272.16L292.54,274.04L291.83,275.29L293.25,277.12L294.51,277.83L295.71,278.07L296.35,279.25L296.73,280.97L296.39,282.03L296.95,283.25L296.26,284.07L294.92,287.12L294.51,287.61L291.54,287.51L291.85,291.23L291.76,292L290.65,294.16L288.13,293.34L287.36,292.85L285.03,292L284.51,291.48L283.69,289.9L283.12,289.33L283.62,287.68L283.31,286.97L283.98,285.19L283.2,285.02L281.95,284.01L282.06,282.83L280.86,281.21L280.43,278.07L279.7,277.02L277.85,275.82L277.58,275.08L275.61,272.34L274.69,270.03L274.11,269.2L272.93,268.15L271.71,267.78L271.18,266.56L269.78,265.39L268.85,265.29L268.56,264.65L269.02,263.6L270.85,263.41L272.45,264.19L272.23,264.97L273.73,264.71L274.62,264.96L275.78,266.46L276.23,266.24L277.52,266.95L279.22,266.78L279.28,267.88L280.78,267.88L281.68,267.36L281.21,265.44L282.35,264.86L282.89,265.55L284.1,266.27L285.82,267.82L286.48,267.86L287.27,267.18L287.46,266.36ZM289.27,287.26L289.53,287.65L290.89,287.32L290.95,286.61L290.44,285.83L288.97,285.77ZM291.14,283.41L291.58,283.01L291.67,281.87L291.31,281.37L291.62,279.41L291,278.67L290.45,279.09L288.84,278.96L287.97,280.5L287.97,281.09L288.94,282.32L289.2,283.28L290.42,283.61Z" class="land" id="MY-10" title="Selangor"/>
    <path d="M257.86,197.53L257.76,199.3L256.2,200.75L255.65,201.64L253.88,203.57L253.55,204.48L252.94,203.58L251.87,200.42L252.68,198.74L252.61,196.54L253.28,196.54L252.84,195.22L253.2,194.64L253.37,193.11L254.05,193.01L254.54,193.66L255.44,193.59L256.73,194.42L256.45,195.88L257.43,196.71Z" class="land" id="MY-09" title="Perlis"/>
    <path d="M263.83,243.92L264.99,244.95L264.64,245.33L264.74,245.94L263.82,246.23L263,245.91L263.09,245.06ZM294.73,215.36L295.25,216.6L296.28,217.39L297.19,219.04L296.87,220.62L296.86,221.99L297.64,222.25L297.56,223.66L296.76,224.34L296.84,225.33L295.72,226.55L294.92,226.8L292.81,226.62L291.61,226.26L291.18,226.9L289.91,227.36L288.82,227.05L288.32,226.49L287.27,227.56L287.17,228.22L286.01,228.93L285.82,230.35L285.26,231.19L285.17,233.28L284.7,233.75L284.3,235.3L283.76,235.83L284.3,236.56L284.42,237.77L283.19,239.46L283.37,239.99L282.97,241.08L282.43,241.36L282.67,242.28L281.67,242.46L281.48,243.08L282.65,244.89L281.84,245.58L281.98,246.75L282.58,247.16L281.33,249.19L282.03,250.17L282.87,249.98L284.03,250.66L283.69,251.48L284.15,251.91L284.28,253.99L284.69,254.67L285.63,254.77L285.37,255.8L285.64,256.75L287.13,257.48L287.44,258.21L286.81,259.39L287.29,260.06L287.33,262.33L287.99,263.62L287.68,264.76L288.53,265.48L287.46,266.36L287.27,267.18L286.48,267.86L285.82,267.82L284.1,266.27L282.89,265.55L282.35,264.86L281.21,265.44L281.68,267.36L280.78,267.88L279.28,267.88L279.22,266.78L277.52,266.95L276.23,266.24L275.78,266.46L274.62,264.96L273.73,264.71L272.23,264.97L272.45,264.19L270.85,263.41L269.02,263.6L268.56,264.65L268.8,263.34L267.73,263.61L266.23,262.85L265.9,260.94L265.99,260.04L267.37,259.4L267.4,257.74L265.76,255.94L264.98,255.66L263.83,255.81L263.51,255.18L264.36,253.78L263.23,253.55L263.12,252.7L262.43,252.26L263.6,249.43L263.98,246.96L264.6,246.48L264.9,245.83L265.01,244.93L264,243.94L264.87,243.09L265.21,241.98L264.49,241.23L263.8,241.02L264.15,239.41L263.11,239.13L262.29,238.11L262.89,237.79L261.85,236.97L261.47,237.48L260.31,237.08L259.61,237.38L259.09,236.54L257.87,233.51L257.58,233.15L258.29,232.08L260.45,231.94L261.09,231.69L261.34,232.86L262.53,233.16L263.18,232.23L263.84,232.1L264.23,231.16L265.13,230.84L265.16,230.22L265.92,229.26L266.79,228.76L266.99,227.69L268.68,227.51L269.54,226.77L270.06,224.02L270.55,223.14L271.33,223.08L271.89,221.87L271.5,220.15L272.49,219.3L272.79,217.87L272.06,217L272.18,216.22L272.98,215.87L273.97,216.94L274.81,217.1L275.9,218.58L276.47,219.67L278.26,219.05L279.52,217.75L279.34,216.59L279.67,215.73L280.4,215.16L280.95,215.46L282.26,214.79L282.87,213.83L285.09,213.74L286.43,212.74L287.47,212.36L288.78,213.7L289.43,213.88L289.47,215.28L290.19,216.12L291.96,215.78L293.15,217.2L293.54,215.96ZM263.93,241.24L265.05,242.1L264.45,243.25L263.34,243.44L262.86,241.66L263.08,241.06Z" class="land" id="MY-08" title="Perak"/>
    <path d="M257.28,221.1L258.34,220.98L259.06,221.39L261.71,221.58L261.64,226.25L262.23,231.81L261.09,231.69L260.45,231.94L258.29,232.08L259.12,231.17L259.16,229.84L258.69,227.04L257.69,225.82L258.08,223.93L257.84,222.44ZM255.49,223.57L256.31,223.9L256.4,224.56L257.2,225.17L256.52,225.9L256.48,226.68L255.7,228.69L254.35,228.26L253.58,227.71L253.18,224.46Z" class="land" id="MY-07" title="Penang"/>
    <path d="M282.65,244.89L283.23,244.78L284.61,245.75L285.39,244.97L286.26,244.98L287.8,246.31L288.67,246.37L289.58,245.98L289.83,245.42L291.66,244.79L292.25,243.62L292.19,241.99L292.49,241.2L293.09,241.19L294.11,243L295.09,243.42L295.17,244.47L296.39,243.44L296.52,241.58L297.59,241.29L298.91,241.96L300.05,241.33L300.84,241.59L300.92,242.22L301.66,242.74L302.02,243.61L302.95,244.4L303.69,243.8L304.73,243.8L305.93,244.21L306.79,243.2L306.77,242.48L308.56,242.35L310.35,243.5L311.16,242.56L312.59,242.75L312.34,241.38L312.8,240.8L313.76,241.19L314.52,242.26L315.45,242.98L316.81,243.3L318.37,243.31L319.36,244.89L318.77,245.15L318.31,246.06L318.62,247.63L319.44,248.38L321.5,248.17L322.31,249.09L322.72,250.13L322.24,250.9L322.49,251.65L321.46,251.81L320.56,253.22L320.17,254.7L320.28,255.93L319.82,256.79L320.72,257.5L322.09,256.84L323.78,257.14L324.88,257.71L326.35,259.15L327.23,259.01L329.12,260.73L328.99,261.2L329.62,262.09L330.45,261.39L330.24,258.72L329.64,258.02L330.23,256.31L330.02,255.06L331.14,255.58L333.02,255.33L332.18,255.85L331.6,256.95L331.88,258.87L332.51,260.23L331.63,261.02L331.13,261.88L331.08,262.75L331.38,264.26L330.49,264.61L330.1,266.27L331.17,268.55L332.81,270.64L333.6,271.32L333.81,272.2L333,273.2L332.64,274.36L332.55,276.46L333.07,279.27L333.11,281.28L332.91,282.01L332.63,285.43L333.31,287.82L335.08,290.08L337.33,292.14L337.55,292.51L336.53,292.84L337.3,294.03L336.76,294.76L336.57,295.85L337.19,295.86L337.66,297.11L336.48,297.52L333.83,296.17L333.22,295.43L332.37,295.28L330.9,294.46L328.99,294.83L325.68,296.12L321.34,294.22L317.08,289.2L314.81,288.53L314.44,287.22L313.7,287.01L309.27,284.01L307.33,281.61L304.7,280.97L301.78,280.11L301.14,279.5L299.15,280.1L298.71,278.84L297.48,278.68L296.95,277.75L296.17,277.54L295.71,278.07L294.51,277.83L293.25,277.12L291.83,275.29L292.54,274.04L291.83,272.16L292.4,271.12L293.01,270.82L293.07,269.42L292.39,268.25L291.43,267.12L290,266.92L289.32,266.5L288.53,265.48L287.68,264.76L287.99,263.62L287.33,262.33L287.29,260.06L286.81,259.39L287.44,258.21L287.13,257.48L285.64,256.75L285.37,255.8L285.63,254.77L284.69,254.67L284.28,253.99L284.15,251.91L283.69,251.48L284.03,250.66L282.87,249.98L282.03,250.17L281.33,249.19L282.58,247.16L281.98,246.75L281.84,245.58Z" class="land" id="MY-06" title="Pahang"/>
    <path d="M295.71,278.07L296.17,277.54L296.95,277.75L297.48,278.68L298.71,278.84L299.15,280.1L301.14,279.5L301.78,280.11L304.7,280.97L307.33,281.61L309.27,284.01L313.7,287.01L314.44,287.22L314.81,288.53L313.11,293.33L313.42,294.08L312.69,295.09L312.69,297.46L312.13,298.59L311.46,298.65L308.38,297.73L307.44,297.09L306.51,296.87L304.55,297.5L303.08,297.38L301.89,296.73L301.32,297.59L299.51,297.62L297.64,299.32L296.99,299.61L296.91,299.01L295.75,298.42L294.15,298.54L293.86,296.88L292.76,295.55L292.66,294.76L291.69,294.07L290.65,294.16L291.76,292L291.85,291.23L291.54,287.51L294.51,287.61L294.92,287.12L296.26,284.07L296.95,283.25L296.39,282.03L296.73,280.97L296.35,279.25Z" class="land" id="MY-05" title="Negeri Sembilan"/>
    <path d="M296.99,299.61L297.64,299.32L299.51,297.62L301.32,297.59L301.89,296.73L303.08,297.38L304.55,297.5L306.51,296.87L307.44,297.09L308.38,297.73L311.46,298.65L312.13,298.59L310.98,299.35L310.38,300.19L309.87,303.42L309.46,304.32L310.66,304.93L310.29,305.92L309.61,306.08L309.19,306.18L303.7,304.25L302.46,303.48L301.47,303.5L300.63,302.26L299.59,301.58L299.1,300.5L298.07,299.88Z" class="land" id="MY-04" title="Malacca"/>
    <path d="M310.83,214.57L309.27,216.36L307.08,218.39L307.68,221.71L307.31,222.47L307.5,224.64L307.18,225.19L308.52,226.29L307.93,227.89L307.83,230.9L309.55,231.6L310.56,232.83L309.97,233.49L310.44,234.63L310.11,235.37L310.4,236.37L310.31,237.68L311.36,237.76L313.56,239.03L314.01,240.76L313.76,241.19L312.8,240.8L312.34,241.38L312.59,242.75L311.16,242.56L310.35,243.5L308.56,242.35L306.77,242.48L306.79,243.2L305.93,244.21L304.73,243.8L303.69,243.8L302.95,244.4L302.02,243.61L301.66,242.74L300.92,242.22L300.84,241.59L300.05,241.33L298.91,241.96L297.59,241.29L296.52,241.58L296.39,243.44L295.17,244.47L295.09,243.42L294.11,243L293.09,241.19L292.49,241.2L292.19,241.99L292.25,243.62L291.66,244.79L289.83,245.42L289.58,245.98L288.67,246.37L287.8,246.31L286.26,244.98L285.39,244.97L284.61,245.75L283.23,244.78L282.65,244.89L281.48,243.08L281.67,242.46L282.67,242.28L282.43,241.36L282.97,241.08L283.37,239.99L283.19,239.46L284.42,237.77L284.3,236.56L283.76,235.83L284.3,235.3L284.7,233.75L285.17,233.28L285.26,231.19L285.82,230.35L286.01,228.93L287.17,228.22L287.27,227.56L288.32,226.49L288.82,227.05L289.91,227.36L291.18,226.9L291.61,226.26L292.81,226.62L294.92,226.8L295.72,226.55L296.84,225.33L296.76,224.34L297.56,223.66L297.64,222.25L296.86,221.99L296.87,220.62L297.19,219.04L296.28,217.39L295.25,216.6L294.73,215.36L294.84,214.75L295.66,214.6L296.24,214.01L295.76,212.78L296.29,211.89L296.35,211.07L297.38,209.83L299,208.77L299.96,207.13L299.61,206.52L299.65,205.2L299.99,204.8L301.21,205.64L302.86,205.22L306.19,206.72L306.89,207.74L308.72,211.93L309.5,213.25L309.4,213.73Z" class="land" id="MY-03" title="Kelantan"/>
    <path d="M244.77,199.1L245.25,199.98L246.18,200.54L246.62,201.26L246.59,202.66L245.18,203.12L243.97,202.96L243.21,203.88L242.32,204.37L241.77,203.12L241.73,201.86L240.14,201.62L240,200.02L240.63,200.25L241.56,199.99L243.7,200.29ZM272.98,215.87L272.18,216.22L272.06,217L272.79,217.87L272.49,219.3L271.5,220.15L271.89,221.87L271.33,223.08L270.55,223.14L270.06,224.02L269.54,226.77L268.68,227.51L266.99,227.69L266.79,228.76L265.92,229.26L265.16,230.22L265.13,230.84L264.23,231.16L263.84,232.1L263.18,232.23L262.53,233.16L261.34,232.86L261.09,231.69L262.23,231.81L261.64,226.25L261.71,221.58L259.06,221.39L258.34,220.98L257.28,221.1L257.04,219.05L257.76,216.28L257.42,212.15L256.75,209.61L255.72,208.34L255,206.04L253.55,204.48L253.88,203.57L255.65,201.64L256.2,200.75L257.76,199.3L257.86,197.53L259.26,197.96L260.76,197.83L261.67,198.76L262.81,198.87L264.33,199.49L265.5,199.59L266.96,198.33L267.18,199.44L268.6,199.81L268.96,200.39L268.87,201.97L269.5,202.04L269.54,203.06L269.2,203.64L269.65,204.75L270.28,204.3L270.91,204.71L271.77,204.6L272.53,203.67L273.7,204.5L275.51,204.32L276.33,205.94L275.08,206.55L274.67,207.23L276.46,208.23L275.74,209.39L275.83,210.76L276.34,211.28L275.08,212.76L274.12,212.76L273.46,213.85L273.53,214.87ZM244.61,205.43L244.4,206.33L243.23,205.76L243.83,204.07L244.88,203.95L245.47,204.99Z" class="land" id="MY-02" title="Kedah"/>
    <path d="M350.75,286.86L351.14,287.34L352.06,289.99L351.79,291.21L350.65,291.33L349.54,290.51L349.46,289.65L350.48,288.74L350.21,287.87ZM310.29,305.92L310.66,304.93L309.46,304.32L309.87,303.42L310.38,300.19L310.98,299.35L312.13,298.59L312.69,297.46L312.69,295.09L313.42,294.08L313.11,293.33L314.81,288.53L317.08,289.2L321.34,294.22L325.68,296.12L328.99,294.83L330.9,294.46L332.37,295.28L333.22,295.43L333.83,296.17L336.48,297.52L337.66,297.11L337.19,295.86L336.57,295.85L336.76,294.76L337.3,294.03L336.53,292.84L337.55,292.51L338.47,292.67L340.14,293.35L342.08,294.79L342.82,296.43L342.13,296.83L342.67,298.17L344.42,300.25L345.02,300.4L345.38,301.46L346.11,302.53L345.58,302.84L345.61,303.75L347.02,305.66L347.7,307.18L349.38,309.59L349.16,311.52L349.83,312.58L351.19,314.09L351.85,316.27L352.65,317.29L352.8,319.5L353.52,320.51L353.29,320.97L353.79,322.34L353.3,323.33L353.53,324.22L352.57,324.26L351.59,324.99L349.94,324.93L348.77,324.29L349.21,323.38L347.6,322L347.59,321.17L347.08,319.19L346.84,321.85L346.3,322.71L345.62,322.86L343.75,322.44L343.4,321.87L341.58,321.44L340.91,322.14L339.65,321.91L338.05,323.35L337.74,324.16L336.97,324.82L335.51,325.1L334.74,325.82L334.58,326.81L333.08,325.44L331.98,322.36L330.95,320.16L329.98,319.39L327.29,318.32L325.65,317.46L323.61,315.87L322.23,315.23L320.69,315.18L319.36,313.9L319.59,313.46L317.92,312.42L316.55,312.08L314.54,312.08L312.71,309.72L311.05,308.12L310.6,307.04L309.19,306.18L309.61,306.08Z" class="land" id="MY-01" title="Johor"/>
    <path d="M615.76,237.89L615.01,239.32L612.27,240.09L611.9,241.02L610.57,241.53L610.48,242.45L611.02,243.34L611.36,246.23L611.46,248.71L612.85,249.46L612.82,250.67L612.18,251.95L611.36,252.89L611.97,253.66L609.44,257.78L607.75,258.98L606.76,259.3L606.73,258.32L605.33,257.81L604.24,256.07L603.37,255.97L602.38,254.12L602.24,253.03L601.22,253.31L600.38,253.04L599.7,253.36L598.91,253.07L599.18,251.2L598.6,250.59L598.68,249.61L596.94,246.86L595.93,246.57L595.35,245.82L594.27,245.44L597.38,245.15L599.48,244.51L601.95,243.57L603.61,242.64L604.64,241.85L607.96,238.94L610.43,237.33L611.98,236.02L612.31,236.07L617.04,234.18L617.16,235.27L616.07,236.91ZM619.51,237.5L620.23,238.74L621.66,239.95L621.51,240.79L621.96,241.34L622.17,243.55L622.83,244.09L622.83,245.56L622.46,246.95L622.89,249.13L624.18,250.25L624.76,251.61L623.89,252.2L622.76,251.25L622,251.35L621.69,250.55L620.74,250.62L618.3,249.9L618.3,247.77L617.5,245.17L617.18,244.65L616.64,240.02L617.33,239.3L618.51,238.92L618.14,237.86Z" class="land" id="BN" title="Brunei Darussalam"/>
  </g>
</svg>