<?xml version="1.0" encoding="UTF-8"?>
<svg xmlns="http://www.w3.org/2000/svg" width="485.28" height="237.15" viewBox="237.36 138.42 485.28 237.15" style="background-color:#000000">
  <!-- Created using SVG Map Generator: dojo.amcharts.com/svg-map-generator -->
  <style>
    .land { fill: #ffffff; stroke: #000000; stroke-width: 0.65; }
  </style>
  <g id="polygons">
    <path d="M524.96,233.65L525.85,233.69L527.08,233.3L528.56,232.68L529.26,234.06L530.02,234.99L530.94,236.48L532.32,238.07L533.03,238.4L534.96,238.94L535.61,239.5L535.68,240.18L535.32,241.63L534.69,245.3L534.2,246.45L532.53,246.77L530.9,246.45L530.08,245.64L529.25,244.22L528.73,243.83L527.56,243.52L526.04,243.46L524.29,243.77L522.06,244L520.31,243.46L519.95,243.23L519.61,242.32L519.61,240.57L519.15,239.14L518.58,238.31L518.46,235.39L517.48,231.83L520.98,232.51L524.11,233.26ZM534.66,253.21L533.7,253.6L532.81,253.28L532.21,251.18L532.88,250.65L533.84,250.61L534.48,251.11L535.01,251.79L535.08,252.42ZM547.6,248.06L545.93,247.34L545.4,245.96L544.95,243.72L544.92,241.6L545.61,239.9L546.41,238.99L547.36,238.62L548.69,238.83L549.53,239.48L549.49,244.05L548.74,246.56Z" class="land" id="MN-1" title="Ulaanbaatar"/>
    <path d="M490.08,212.66L490.7,214.13L490.73,215.13L489.37,216.45L487.97,217.35L485.94,216.29L485.1,216.15L482.35,215.37L482.36,214.14L483.25,212.89L483.87,212.3L486.56,213.23L487.44,212.34L487.96,212.11L488.96,212.15Z" class="land" id="MN-035" title="Orhon"/>
    <path d="M514.25,197.02L512.24,199.33L512.24,200.08L512.76,200.95L513.95,201.34L516.38,202.75L517.62,203.09L518.28,202.95L519.18,202.07L519.72,201.21L521.45,201.83L522.94,202.6L523.78,203.43L524.09,204.32L524.09,206.62L523.81,209.04L524.02,210.32L524.07,212.07L522.82,212.58L521.13,213.08L519.18,212.33L517.97,211.54L517.48,210.83L516.33,210.96L515.43,211.27L514.5,211.85L513.94,212.44L513.13,212.87L509.69,213.19L508.99,212.87L508.84,210.9L509.21,208.98L509.74,206.79L509.69,204.5L510.18,202.78L510.05,201.87L509.76,201.25L509.77,199.39L512.18,196.72L513.09,195.01L513.62,194.37L514.52,193.84L515.27,194.48L515.16,195.7Z" class="land" id="MN-037" title="Darhan-Uul"/>
    <path d="M547.6,248.06L548.74,246.56L549.49,244.05L549.53,239.48L551.29,238.9L552.19,238.35L553.72,236.86L555.03,235.98L555.57,235.14L556.12,233.17L556.91,232.19L557.4,230.95L557.44,229.82L557.16,228.51L556.75,227.42L556.18,225.19L555.67,222.56L555.02,220.73L554.73,219.23L554.18,218.17L553.55,216.61L552.99,215.66L550.22,212.83L549.76,212.25L549.97,209.91L550.54,207.4L551.3,207.28L552.62,207.35L553.71,207.05L555.09,207.26L556.38,206.86L557.53,207.4L558.49,207.26L559.65,206.85L561.81,207.28L563.64,208.34L564.2,208.57L564.37,209.26L564.95,209.91L565.41,209.99L567.36,209.79L568.18,209.89L568.92,210.2L569.47,210.71L570.12,210.28L572.67,210.64L574.57,211.25L575.3,211.31L576.32,210.93L577.05,210.34L577.77,209.17L579.01,210.44L579.87,210.6L580.7,211.37L581.6,211.65L583.24,211.76L584.62,211.26L585.6,211.09L586.61,210.51L588.3,208.83L589.25,208.22L591.69,207.34L592.11,206.66L592.57,206.55L594.21,207.23L594.51,207.17L596.6,206.02L597.59,205.8L598.93,206.14L600.11,206.13L601.12,205.88L602.66,206.77L603.86,207.67L604.12,208.12L604.42,209.99L604.59,212.17L604.89,213.08L605.78,214.51L606,215.48L605.74,216.39L605.22,217.48L605.17,218.3L605.35,219.03L606.01,220.74L606.87,222.18L608.49,225.44L609.27,226.73L609.65,228.1L609.62,229.55L609.36,230.43L609.26,232.07L609.59,233.77L609.74,235.65L609.97,236.89L610.71,239.14L611.6,241.06L611.99,242.16L609.55,242.26L607.73,242.83L605.99,243.91L604.21,244.85L603.37,245.46L602.77,246.6L602.4,248.86L602.36,251.09L602.65,252.72L601.09,252.22L599.47,251.57L598.55,251.32L596.83,252.44L595.18,253.83L594.68,254.5L593.69,256.65L593.37,258.14L593.19,259.77L592.71,260.77L592.38,262.6L592.59,264.19L591.2,265.53L590.63,266.45L590.2,268.13L590.28,269.96L590.62,271.4L590.42,273.19L589.76,275.12L589.21,276.33L588.48,277.31L586.37,279.38L586.09,280.02L584.76,279.95L580.23,279.07L579.51,276.62L578.67,275.25L577.63,273.28L576.1,271.63L575.05,270.29L574.18,268.8L573.63,268.28L572.21,267.84L571.61,268.42L571.9,270.46L571.96,271.45L571.75,272.18L570.89,273.89L570.54,274.81L569.91,275.58L568.67,276.71L566.9,277.68L566.18,278.26L565.39,277.93L564.3,277.75L562.04,277.69L561.41,277.54L560.64,276.98L559.42,275.5L558.64,273.25L558.21,272.75L556.28,271.31L556.5,270.55L556.55,268.86L556.38,267.64L556.46,266.38L556.91,264.43L556.96,263.8L556.69,263.33L555.67,262.65L555.12,261.34L554.22,260.08L552.87,259.08L552.33,258.54L551.85,257.76L551.39,256.61L550.89,254.88L549.93,253.18L549.55,251.91L548.84,250.84L548.47,250.02L548.15,249.53Z" class="land" id="MN-039" title="Hentiy"/>
    <path d="M462.58,182.4L459.97,183.84L458.74,185.11L458.35,186.1L457.87,187.79L456.23,189.55L455.75,190.42L454.49,191.98L454.07,192.98L454.11,193.72L454.56,194.31L456.61,195.36L457.84,195.74L459.76,196.65L460.83,196.97L463.26,198.25L464.21,199.24L462.49,200.47L460.56,200.41L459.98,200.99L459.5,202.33L458.9,203.45L457.65,204.72L456.7,205.21L453.06,206.19L452.18,206.55L451,207.73L450.3,208.25L449.61,209.35L448.42,209.74L447.7,210.67L447.18,212.1L447.06,213.43L447.53,215.91L445.62,216.18L444.27,216.13L442.93,215.71L441.96,214.86L439.82,213.93L436.85,212.44L435.91,212.1L434.18,210.95L433.17,210.4L432.38,212.63L431.83,213.3L429.79,215.1L431.62,215.99L432.24,216.8L431.42,217.42L430.04,217.98L429.18,219.03L428.32,221.19L428.05,222.51L428.09,223.44L428.42,224.25L429.79,226.18L428.68,226.4L427.01,226.58L426.33,226.83L425.9,227.28L425.84,228.25L425.41,228.77L424.36,228.87L423.66,228.63L422.06,227.62L421.28,227.25L419.51,226.7L419.46,228.15L418.95,229.93L418.54,230.72L417.83,231.2L412.99,232.2L411.74,232.32L411.11,232.15L408.88,230.95L409.22,229.92L409.24,228.35L408.85,226.27L408.83,225.7L409.3,223.64L410.43,221.38L410.99,220.53L410.43,218.25L410.16,216.71L409.96,213.63L409.47,212.48L408.27,212.47L407.36,212.66L405.34,212.56L404.72,212.88L404.38,213.62L404.36,214.31L403.93,214.79L402.75,215.44L401.1,216.55L399.99,215.92L399.18,215.01L398.15,214.65L396.35,214.67L395.54,214.82L394.58,215.29L393.88,215.37L391.32,215.09L390.77,214.9L389.5,213.61L388.47,212.8L386.34,211.64L385.25,211.28L382.75,210.93L381.36,211.02L380.57,211.27L379.71,209.92L378.34,208.51L376.98,207.66L376.12,206.66L376.21,204.78L376.09,203.44L376.98,202.63L379.11,200.22L379.48,199.41L379.87,197.92L380.01,196.09L380.48,197.05L380.84,197.32L382.67,197.72L384.36,197.01L386.06,195.65L387.07,194.52L386.65,193.3L388.01,193.28L389.37,192.47L390.03,192.52L390.2,193.11L390.81,193.31L391.59,192.21L392.14,191.93L392.46,191.4L393.14,191.26L393.72,190.86L394.59,189.69L395.11,187.97L395.6,187.12L396.57,186.29L397.01,184.84L396.69,182.52L397.17,181.46L397.7,179.53L397.44,178.99L396.81,178.69L395.25,178.4L394.84,178.18L393.59,176.85L393.13,175.72L392.59,175.15L392.19,173.81L392.45,173L393.15,172.17L393.05,171.64L390.88,169.85L390.81,169.25L390.3,168.57L390.89,167.58L391.52,164.77L392.17,163.15L392.23,162.05L392.04,160.98L392.44,160.48L392.78,159.45L393.58,158.23L394.35,157.74L395.73,157.88L396.36,157.65L396.78,156.25L396.45,155.15L397.32,152.97L397.56,151.51L398.35,150.86L400.24,150.36L401.03,149.81L402.13,149.63L403.25,149.04L403.74,148.34L404.77,145.6L405.07,144.37L405.58,143.71L405.86,141.57L406.19,141.07L407.08,141.11L408.5,142.95L410.52,143.81L411.85,144.21L412.17,145.3L413.17,145.8L414.63,145.96L416.12,146.64L417.73,146.78L418.63,147.08L419.27,147.56L420.2,148.96L421.15,149.84L422.59,150.66L424.55,150.49L427.35,150.87L428.24,150.75L429.37,150.97L430.38,150.73L431.84,151.57L432.77,151.59L433.67,152.4L434.95,152.88L435.6,153.38L436.76,153.72L438.09,154.82L438.89,154.96L440,155.73L441.01,155.6L441.46,155.8L442.79,157.45L443.45,157.81L444.26,157.02L445.67,156.67L446.54,156.9L447.17,157.78L447.66,157.91L448.7,157.68L450.36,158.62L451.72,158.64L452.45,159.24L453.54,159.21L454.72,160.28L455.62,160.82L455.65,161.41L454.93,161.97L454.77,162.38L455.17,163.43L455.06,165.14L455.41,166.95L456.24,168.63L456.49,169.47L456.39,170.21L455.82,171.85L456.1,172.95L457.51,174.18L457.79,175.11L456.89,176.91L456.9,177.85L457.29,178.47L458.53,179.25L460.05,179.48L460.64,179.96L460.98,180.84L462.09,182.1Z" class="land" id="MN-041" title="Hövsgöl"/>
    <path d="M324.71,228.08L325.5,229.4L325.53,230.85L324.85,233.06L324.59,234.14L324.23,234.93L323.55,235.81L322.8,236.5L321.9,237.59L321.02,238.34L322.3,240.61L322.82,241.27L324.11,242.53L325.81,243.85L327.46,245.31L326.35,247.39L327.85,248.33L328.53,248.94L329.48,250.23L329.84,251.05L330.42,251.69L331.51,252.27L332.73,252.61L333.39,252.98L334.05,253.97L334.3,255.16L335.12,257.44L335.99,259.07L336.9,261.23L337.51,262.29L338.38,263.27L339.36,264L337.47,265.17L336.58,265.51L335.74,265.66L333.97,265.67L332.91,265.79L332,266.29L331.14,267.51L330.24,268.51L329.72,269.43L328.76,268.5L328.14,268.07L327.29,267.76L326.05,267.58L326.57,269.25L327.49,271.08L327.78,272.1L327.46,273.68L326.62,275.35L326.32,276.13L325.36,277.66L324.7,279.37L324.39,280.44L323.91,283.72L323.06,284.46L320.09,286.32L319.56,287.18L319.52,288.24L319.88,289.65L320.32,290.67L320.57,291.6L320.62,292.65L320.57,296.3L320.62,297.56L320.92,299.76L321.46,302.49L319.87,302.54L319.34,302.2L316.77,302.37L315.2,302.37L312.48,302.26L311.06,302.38L309.89,302.14L309.55,301.76L308.47,301.52L307.31,301.55L305.96,301.94L304.54,301.26L303.63,301.12L299.91,301.14L298.2,301.39L296.6,301.04L295.66,299.72L295.35,299.54L294.63,299.76L294.06,300.38L292.81,300.1L291.95,299.62L290.83,298.48L290.14,298.26L288.81,298.25L287.55,298.73L286.57,298.4L286.93,297.35L286.62,296.58L285.69,296.53L285.61,295.16L285.01,293.66L284.5,292.98L283.78,292.34L283.46,291.64L283.61,290.28L284.05,289.07L284,287.93L284.39,286.94L285.03,286.22L285.54,285.35L286.21,283.81L286.9,282.92L288.65,281.3L288.81,280.82L288.54,279.71L288.8,278.88L287.5,276.89L287.75,276.37L287.18,274.64L287.82,274.06L289.13,270.78L289.63,269.14L288.89,268.52L289.06,267.01L289.38,265.96L290.05,265.93L290.87,266.38L292.17,266.82L292.84,267.36L293.36,268.65L293.82,269.32L294.98,269.61L295.62,269.37L296.49,268.65L296.96,268.06L300.06,268L301.17,267.77L301.49,267.52L302.3,266.13L301.5,265.58L299.8,264.66L297.95,263.42L295.69,261.52L295.24,260.86L295.07,259.23L295.47,256.79L295.16,255.11L294.45,254.66L293.79,253.96L292.79,252.28L292.01,251.55L292.38,248.76L292.38,248.02L292.07,247.17L291.16,245.79L291.03,245.01L291.02,243.73L289.92,243.07L289.59,242.39L289.35,241.12L288.25,238.09L287.63,236.93L286.8,236.05L286.32,234.91L285.8,231.47L285.8,229.77L286,228.31L285.99,227.44L285.74,225.77L285.49,224.97L284.29,223.25L284.59,222.94L285.68,223.03L286.74,223.38L287.66,223.44L289.19,222.77L290.59,221.8L291.41,221.55L292.28,221.77L293.52,222.5L295.26,220.97L296.68,219.42L297.4,218.25L298.44,216.95L299.39,216.37L300.72,215.98L302.53,215.77L302.41,217.25L302.6,218.99L303.16,219.94L303.84,220.09L305.03,219.98L305.65,220.21L305.92,220.63L306.86,223.63L308.85,223.59L310.45,223.67L313.08,224.21L314.63,224.97L315.68,225.08L316.3,224.92L317.72,223.53L319.14,223.32L320.23,223.72L320.83,224.26L321.59,225.98L322.37,227.17L323.32,227.73Z" class="land" id="MN-043" title="Hovd"/>
    <path d="M355.67,193.92L355.49,194.64L355.54,195.62L354.86,197.5L354.26,198.63L354.48,200.62L355,202.91L355.32,203.75L356.01,204.51L356.71,204.82L358.04,206.13L358.95,206.88L358.01,209.71L357.2,210.43L356.7,211.38L356.13,213.86L356.06,216.76L355.96,217.62L355.6,218.47L354.82,219.11L353.02,219.11L351.7,220.18L350.13,221.68L348.75,222.13L346.45,222.19L345.07,222.36L344.05,222.37L343.77,221.45L342.2,221.52L340.63,221.45L338.18,220.97L336.3,220.08L334.66,219.85L333.19,221.08L331.97,221.69L330.25,222.18L329.6,222.46L328.83,223.18L328.52,223.86L328.26,225.71L326.92,226.17L325.96,226.71L325.11,227.48L324.71,228.08L323.32,227.73L322.37,227.17L321.59,225.98L320.83,224.26L320.23,223.72L319.14,223.32L317.72,223.53L316.3,224.92L315.68,225.08L314.63,224.97L313.08,224.21L310.45,223.67L308.85,223.59L306.86,223.63L305.92,220.63L305.65,220.21L305.03,219.98L303.84,220.09L303.16,219.94L302.6,218.99L302.41,217.25L302.53,215.77L300.72,215.98L299.39,216.37L298.44,216.95L297.4,218.25L296.68,219.42L295.26,220.97L293.52,222.5L293.16,219.77L292.7,218.3L291.9,216.76L291.18,216.1L290.33,215.62L288.79,214.17L288.41,212.64L287.55,210.65L287.08,209.04L286.53,208.33L285.86,208.08L284.71,208.26L283.52,207.34L282.63,205.48L282.34,205.17L282.34,204.25L281.07,201.71L280.1,200.66L279.02,199.74L277.13,198.55L276.25,197.04L275.73,194.35L275.4,193.43L274.74,192.66L273.41,191.98L274.86,191.23L276.4,191.28L277.11,191.68L277.85,191.35L277.99,190.35L278.45,189.44L279.06,188.75L281.65,187.98L282.26,187.96L283.44,188.3L283.93,186.98L284.79,186.53L285.12,185.39L284.66,184.6L283.9,184.73L283.53,184.26L283.56,183.33L284.01,182.25L283.98,181.73L284.56,180.73L284.94,181.04L285.83,181.28L286.56,181.02L287.73,180.99L289.15,181.19L289.79,181.46L290.55,181.43L292.31,180.81L294.17,181.19L295.1,181.25L295.17,180.35L294.9,179.82L295.13,179.28L296.05,178.95L297.33,179.02L298.29,178.48L298.16,177.73L298.36,176.52L299.76,175.26L301.66,175.03L302.16,175.4L303.73,176.13L305.53,176.19L306.31,176.1L306.73,175.67L307.68,175.18L307.94,174.7L307.67,173.18L308.17,171.92L308.24,171.35L308.93,171.15L309.36,171.43L309.53,173.02L310.41,173.93L310.98,174.11L312.37,174.17L312.6,174.59L312.44,175.37L313.21,175.72L314.54,175.52L314.58,174.44L315.6,173.63L315.97,173.53L318.23,173.66L318.79,174.26L318.39,175L318.44,175.68L318.04,176.73L318.05,177.38L318.35,178.05L318.9,178.49L319.38,178.43L319.85,178.87L320.71,178.98L321.24,178.81L324.31,178.44L325.13,178.08L325.91,178.51L327.82,178.43L328.29,178.62L330.81,178.33L332.57,178.3L336.55,178.5L337.33,178.68L337.74,179.22L337.86,180.46L338.41,181.27L338.68,183.82L339.16,186.66L339.54,187.5L340.83,188.16L341.14,189.29L342.14,190.61L342.29,191.2L343.46,191.36L344.15,191L345.74,190.66L347.59,190.67L348.2,191.19L348.59,192.31L349.53,193.11L350.06,193.29L353.11,193.23L355.25,193.9Z" class="land" id="MN-046" title="Uvs"/>
    <path d="M549.53,239.48L548.69,238.83L547.36,238.62L546.41,238.99L545.61,239.9L544.92,241.6L544.95,243.72L545.4,245.96L545.93,247.34L547.6,248.06L548.15,249.53L548.47,250.02L548.84,250.84L549.55,251.91L549.93,253.18L550.89,254.88L551.39,256.61L551.85,257.76L552.33,258.54L552.87,259.08L554.22,260.08L553.3,261.94L552.58,262.69L551.51,263.31L549.14,264.44L547.31,264.21L545.02,263.76L543.7,263.78L542.02,264.17L541.34,264.57L539.84,264.86L539.47,268.22L539.24,268.73L538.44,269.2L537.17,269.37L536.05,269.95L535.29,271.1L534.79,271.51L533.27,272.12L532.16,272.39L529.78,272.48L528.59,272.61L527.66,272.01L525.53,269.94L524.6,269.41L522.59,268.96L514.6,268.91L514.42,268.45L513.73,267.85L512.15,267.37L510.92,266.69L510,265.78L509.21,265.46L508.66,265.48L507.09,265.98L505.76,267.84L504.35,269.65L503.16,271.85L501.52,270.48L500.62,269.96L496.75,268.57L495.44,270.26L492.08,273.11L490.7,271.64L488.77,270.3L488.39,269.91L488.21,269.22L488.19,267.13L487.86,265.94L487.16,264.65L485.83,262.87L486.82,261.9L487.5,261.7L487.61,259.69L487.24,258.75L485.17,256.66L484.77,255.72L484.54,254.43L484.54,253.11L484.91,252.4L484.77,251.56L483.98,250.74L483.36,249.36L484.67,248.11L486.59,246.82L487.25,246.57L489.59,246.46L490.2,245.27L492.16,245.23L493.68,245.09L493.35,244.09L492.76,241.63L492.65,239.9L492.95,239.6L492.83,238.8L490.57,238.7L489.71,238.56L488.2,237.83L487.98,236.18L487.27,235.07L486.64,234.36L487.24,233.33L487.78,231.84L488.3,230.9L489.75,229.7L490.3,228.19L490.36,225.53L490.21,223.54L493.9,225.06L495.69,225.61L497.46,226.25L498.14,226.21L499.74,225.32L500.97,225.06L502.59,224.14L504.63,223.12L504.33,222.39L503.88,220.58L505.6,219.32L506.95,218.81L509.69,218.13L511.64,218.6L512.46,219.46L512.55,220.4L511.99,222.13L513.18,223.04L513.88,222.76L514.72,222.15L516.54,223.22L518.85,224.35L519.29,224.99L520.7,225.69L522.55,225.99L523.5,225.63L524.51,224.63L525.2,224.12L526.75,224.11L528.21,223.77L529.32,223.78L529.97,224.07L530.85,225.07L532.64,224.5L535.18,223.43L535.95,223.54L536.58,223.35L536.87,222.92L537.99,219.71L537.8,218.49L536.44,217.73L535.78,217.05L535,215.62L536.06,214.58L537.14,213.81L538.92,213.33L540.62,213.38L541.89,213.86L543.31,214.87L544.46,213.71L545.4,213.12L546.99,212.46L548.71,212.23L549.76,212.25L550.22,212.83L552.99,215.66L553.55,216.61L554.18,218.17L554.73,219.23L555.02,220.73L555.67,222.56L556.18,225.19L556.75,227.42L557.16,228.51L557.44,229.82L557.4,230.95L556.91,232.19L556.12,233.17L555.57,235.14L555.03,235.98L553.72,236.86L552.19,238.35L551.29,238.9ZM534.66,253.21L535.08,252.42L535.01,251.79L534.48,251.11L533.84,250.61L532.88,250.65L532.21,251.18L532.81,253.28L533.7,253.6ZM524.96,233.65L524.11,233.26L520.98,232.51L517.48,231.83L518.46,235.39L518.58,238.31L519.15,239.14L519.61,240.57L519.61,242.32L519.95,243.23L520.31,243.46L522.06,244L524.29,243.77L526.04,243.46L527.56,243.52L528.73,243.83L529.25,244.22L530.08,245.64L530.9,246.45L532.53,246.77L534.2,246.45L534.69,245.3L535.32,241.63L535.68,240.18L535.61,239.5L534.96,238.94L533.03,238.4L532.32,238.07L530.94,236.48L530.02,234.99L529.26,234.06L528.56,232.68L527.08,233.3L525.85,233.69Z" class="land" id="MN-047" title="Töv"/>
    <path d="M550.54,207.4L549.97,209.91L549.76,212.25L548.71,212.23L546.99,212.46L545.4,213.12L544.46,213.71L543.31,214.87L541.89,213.86L540.62,213.38L538.92,213.33L537.14,213.81L536.06,214.58L535,215.62L535.78,217.05L536.44,217.73L537.8,218.49L537.99,219.71L536.87,222.92L536.58,223.35L535.95,223.54L535.18,223.43L532.64,224.5L530.85,225.07L529.97,224.07L529.32,223.78L528.21,223.77L526.75,224.11L525.2,224.12L524.51,224.63L523.5,225.63L522.55,225.99L520.7,225.69L519.29,224.99L518.85,224.35L516.54,223.22L514.72,222.15L513.88,222.76L513.18,223.04L511.99,222.13L512.55,220.4L512.46,219.46L511.64,218.6L509.69,218.13L506.95,218.81L505.6,219.32L503.88,220.58L504.33,222.39L504.63,223.12L502.59,224.14L500.97,225.06L499.74,225.32L498.14,226.21L497.46,226.25L495.69,225.61L493.9,225.06L490.21,223.54L490.01,221.13L490.45,219.86L489.34,218.62L487.97,217.35L489.37,216.45L490.73,215.13L490.7,214.13L490.08,212.66L490.35,211.54L490.58,209.81L490.97,208.26L491.21,206.76L491.91,205.18L492.23,203.95L492.35,202.69L492.37,200.29L493.27,199.36L492.56,198.1L490.89,196.25L490.32,195.45L490.05,194.52L490.03,192.51L491.29,192.25L491.53,191.89L490.64,190.95L490.53,189.75L490.13,188.62L489.01,187.06L487.57,185.7L487.94,185.18L489.89,184.68L491.11,184.8L491.84,184.54L492.35,184.07L493.03,183.84L494.52,183.84L495.93,183.06L497.21,182.81L498.71,183L499.51,182.78L501.53,181.19L502.01,180.95L503.03,180.93L504.08,181.41L505.27,181.54L506.37,182.03L507.86,182.1L509.43,181.97L510.71,182.48L512.16,182.65L512.63,182.47L513.36,182.93L513.53,183.93L514.66,184.31L516.32,185.22L519.73,184.13L520.62,184.02L523.46,184.62L524.11,184.94L525.95,186.35L526.57,186.94L527.07,187.72L527.62,189.54L528.12,190.46L529.02,191.48L530.13,191.79L530.87,192.27L531.94,191.6L532.76,192.54L533.48,192.71L534.16,192.52L535.72,193.06L537.58,193.12L538.3,192.55L539.32,193.63L539.82,193.92L541.06,193.83L541.64,194.36L541.19,195.45L541.65,198.34L541.08,199.01L541.37,199.8L542.28,199.83L542.36,200.99L544.24,202.38L545.13,202.56L546.22,202.98L546.57,203.74L547.18,204.22L547.48,204.96L548.8,205.92L549.49,206.86L550.09,207.39ZM514.25,197.02L515.16,195.7L515.27,194.48L514.52,193.84L513.62,194.37L513.09,195.01L512.18,196.72L509.77,199.39L509.76,201.25L510.05,201.87L510.18,202.78L509.69,204.5L509.74,206.79L509.21,208.98L508.84,210.9L508.99,212.87L509.69,213.19L513.13,212.87L513.94,212.44L514.5,211.85L515.43,211.27L516.33,210.96L517.48,210.83L517.97,211.54L519.18,212.33L521.13,213.08L522.82,212.58L524.07,212.07L524.02,210.32L523.81,209.04L524.09,206.62L524.09,204.32L523.78,203.43L522.94,202.6L521.45,201.83L519.72,201.21L519.18,202.07L518.28,202.95L517.62,203.09L516.38,202.75L513.95,201.34L512.76,200.95L512.24,200.08L512.24,199.33Z" class="land" id="MN-049" title="Selenge"/>
    <path d="M669.46,276.36L668.65,277.23L667.66,278.64L666.89,279.21L666.72,279.86L665.88,281.12L665.19,282.38L665.09,283.84L665.53,285L665.36,286.43L664.84,286.91L664.62,287.65L664.24,288.03L663.47,288.22L662.62,288.1L660.3,289.61L659.63,290.2L658.93,291.08L657.78,291.93L657.57,292.67L657.13,293.31L655.63,293.35L654.31,293.62L651.43,294.48L649.61,294.34L648.52,294.41L646.37,294.86L646.37,294.09L645.09,293.96L643.77,293.5L642.67,292.99L641.05,293.46L639.64,294.15L639.01,294.89L638.88,296.2L638,297.81L637.12,299.1L633.97,301.8L632.83,303L631.57,304L631.01,304.17L630.54,304.69L629.29,305.5L628.35,305.79L627.06,307.08L625.85,307.97L624.5,307.68L623.43,306.97L621.96,307.02L619.5,306.98L618.35,306.8L616.76,306.07L616.05,306L615.06,305.43L614.13,305.52L613.74,305.3L612.94,305.31L611.28,304.41L609.91,303.3L609.28,302.28L608.51,301.57L607.83,301.29L604.6,301.15L601.28,300.68L600.75,300.73L600.51,299.87L600.31,298.44L600.52,296.76L600.12,295.62L598.79,293.92L598,292.16L596.94,291.26L597.41,287.09L597.27,283.83L596.88,282.15L596.04,280.14L595.31,279.28L593.75,278.57L592.18,277.59L590.98,277.02L589.21,276.33L589.76,275.12L590.42,273.19L590.62,271.4L590.28,269.96L590.2,268.13L590.63,266.45L591.2,265.53L592.59,264.19L592.38,262.6L592.71,260.77L593.19,259.77L593.37,258.14L593.69,256.65L594.68,254.5L595.18,253.83L596.83,252.44L598.55,251.32L599.47,251.57L601.09,252.22L602.65,252.72L602.36,251.09L602.4,248.86L602.77,246.6L603.37,245.46L604.21,244.85L605.99,243.91L607.73,242.83L609.55,242.26L611.99,242.16L612.1,243.45L612.72,247.01L613.93,246.52L615.22,246.17L615.78,246.15L617.07,246.44L619.02,247.25L620.12,247.36L622.44,247.8L625.82,248.32L626.62,248.37L627.83,248.88L628.81,249.45L631.02,251.6L632.46,252.5L634,253.98L636.54,255.39L638.59,256.79L638.05,258.49L637.77,259.78L637.63,261.32L637.75,262.64L638.3,263.85L638.84,264.41L639.89,265.18L641.26,265.98L642.05,266.76L642.86,268.07L643.74,269.01L644.9,270.5L647.84,269.82L650.34,269.48L655.12,269.52L656.39,268.93L657.85,268.6L658.93,268.56L663.63,268.54L665.12,268.75L665.99,269.52L666.6,270.66L668.63,274.81Z" class="land" id="MN-051" title="Sühbaatar"/>
    <path d="M537.32,311.95L537.1,313.2L536.93,314.93L536.74,316.01L536.84,317.25L537.38,318.39L538.35,320.15L539,321.58L539.51,323.51L539.68,324.75L539.99,325.94L541.01,328.78L541.31,329.81L541.37,331.1L541.08,333.75L541,336.78L541.03,337.84L541.21,338.65L541.8,339.76L542.09,340.63L542.23,343.22L542.42,344.39L542.45,345.65L542.17,347.09L542.06,350.13L541.71,352.43L541.75,355.64L541.53,355.72L540.68,355.99L535.34,355.69L534.83,354.9L533.83,354.98L531.47,356.08L531.05,357.1L526.73,358.02L522.35,359.06L516.87,361.68L512.3,363.91L509.21,365.13L508.21,365.64L505.65,367.12L503.66,368.36L501.81,369.6L501.21,369.51L497.76,372.93L496.43,371.38L492.89,371.38L490.3,371.03L490.41,368.79L490.45,366.61L489.48,366.74L482.1,368.15L480.28,368.13L476.98,367.29L472.23,366.14L467.07,363.76L463.53,361.58L460.53,361.34L458.69,361.46L453.46,359.88L449.87,354.81L449.78,354.74L443.85,353.19L439.55,352.12L436.28,351.27L435,351.03L432.79,350.89L427.56,350.49L426.9,351.56L423.3,351.31L422.61,351.22L418.13,352.12L416.68,352.47L416.66,349.39L416.35,346.72L415.64,343.24L415.08,339.39L414.78,336.69L414.68,334.82L414.5,333.64L414.46,332.35L414.49,326.66L413.99,322.79L414.27,321.66L415.3,321.04L416.41,320.89L417.68,320.5L418.77,320.38L419.91,320.7L420.69,321.16L421.76,322.1L422.78,322.62L424.57,324.78L426.37,326.73L427.04,327.1L428.51,327.36L430.96,326.99L431.84,326.92L439.55,326.93L440.88,326.84L442.53,326.44L444.71,325.18L447.46,323.93L448.74,323.6L449.65,322.48L451.68,321.7L453.3,321.2L458.04,320.33L459.46,320.26L465.26,320.27L467.4,320.23L466.6,318.28L466.42,317.47L466.52,316.81L466.94,315.84L467.75,314.77L468.2,313.78L468.45,312.74L469,311.21L470.64,308.14L471.08,306.78L472.29,306.21L472.4,305.71L472.92,304.86L473.71,304.39L475.56,303.54L476.62,302.65L477.98,301.11L479,299.52L479.09,299.01L482.44,298.77L483.95,298.31L484.51,299.54L484.83,300.6L485.28,302.9L485.87,305.17L486.52,306.36L487.16,306.93L488.49,307.55L490.61,308.11L493.01,308.57L493.75,308.95L495.17,309.35L496.48,309.57L497.42,309.54L499.12,309.18L500.9,309.08L502.84,309.09L504.8,309.38L505.73,311.72L507.82,314.75L508.31,316.35L508.82,317.17L509.26,317.48L511.16,319.21L512.24,319.74L513.08,319.81L514.13,319.72L515.63,319.38L516.53,318.98L517.79,317.89L519.69,317.09L520.81,316.22L524,314.53L525.96,314.02L528.4,313.58L530.06,313.2L530.76,312.91L531.75,312.76L533.72,313.29L534.42,313.18Z" class="land" id="MN-053" title="Omnögovĭ"/>
    <path d="M477.53,254.15L479.48,253.88L480.34,254L481.62,253.84L483.44,253.45L484.54,253.11L484.54,254.43L484.77,255.72L485.17,256.66L487.24,258.75L487.61,259.69L487.5,261.7L486.82,261.9L485.83,262.87L487.16,264.65L487.86,265.94L488.19,267.13L488.21,269.22L488.39,269.91L488.77,270.3L490.7,271.64L492.08,273.11L491.99,274.19L491.65,275.82L490.8,277.98L490.34,278.45L489.66,278.71L488.25,278.77L486.94,278.62L486.23,280.45L485.7,281.46L485.22,282L484.64,284.01L484.37,285.6L483.95,286.34L483.18,286.74L482.28,286.86L480.84,286.83L479.46,286.66L478.47,287.12L477.67,287.79L477,288.54L476.65,289.52L476.69,291.37L476.99,292.61L477.31,293.21L478.36,294.62L478.99,294.8L479.27,295.3L479.05,297.44L479.09,299.01L479,299.52L477.98,301.11L476.62,302.65L475.56,303.54L473.71,304.39L472.92,304.86L472.4,305.71L472.29,306.21L471.08,306.78L470.64,308.14L469,311.21L468.45,312.74L468.2,313.78L467.75,314.77L466.94,315.84L466.52,316.81L466.42,317.47L466.6,318.28L467.4,320.23L465.26,320.27L459.46,320.26L458.04,320.33L453.3,321.2L451.68,321.7L449.65,322.48L449.11,321.26L448.65,319.17L448.32,317.95L448.07,316.37L447.44,314.3L447.22,313.27L446.61,311.59L445.76,310.23L445.6,309.1L445.88,307.3L446.49,306.45L445.91,305.42L444.37,304.52L443.61,303.83L441.77,303.26L440.83,302.69L440.38,302.01L439.77,300.72L439.63,299.47L439.67,294.26L439.84,292.83L440.38,291.87L441.22,290.78L441.23,289.34L442.05,287.96L442.43,286.31L442.39,285.28L441.89,283L441.87,281.5L442.01,280.47L442.69,279.52L443.82,278.81L444.36,278.31L444.94,277.23L445.01,273.09L445.31,272.21L445.41,271.17L444.77,269.68L445.01,268.79L443.71,266.84L442.69,264.7L441.9,263.44L443.3,263.07L444.66,262.94L446.98,262.9L449.17,262.66L450.24,262.16L450.77,261.12L451.47,260.48L452.34,260.13L453.99,259.79L454.69,259.42L456.69,259.08L457.29,259.27L458.76,260.75L459.47,261.2L460.14,260.71L460.64,259.56L460.83,257.94L461.28,256.83L462.53,255.81L463.2,254.67L463.3,253.55L462.39,252.49L462.14,251.98L462.15,251.24L462.43,250.88L463.16,250.57L463.55,251.11L464.13,251.4L465.17,251.55L466.89,252.57L468.05,252.85L468.7,253.39L470.09,254.99L470.93,255.31L472.64,255.56L474.09,255.62L475.17,255.55L476.27,255.25L477.02,254.81Z" class="land" id="MN-055" title="Ovörhangay"/>
    <path d="M380.01,196.09L379.87,197.92L379.48,199.41L379.11,200.22L376.98,202.63L376.09,203.44L376.21,204.78L376.12,206.66L376.98,207.66L378.34,208.51L379.71,209.92L380.57,211.27L381.36,211.02L382.75,210.93L385.25,211.28L386.34,211.64L388.47,212.8L389.5,213.61L390.77,214.9L391.32,215.09L393.88,215.37L394.58,215.29L395.54,214.82L396.35,214.67L398.15,214.65L399.18,215.01L399.99,215.92L401.1,216.55L402.75,215.44L403.93,214.79L404.36,214.31L404.38,213.62L404.72,212.88L405.34,212.56L407.36,212.66L408.27,212.47L409.47,212.48L409.96,213.63L410.16,216.71L410.43,218.25L410.99,220.53L410.43,221.38L409.3,223.64L408.83,225.7L408.85,226.27L409.24,228.35L409.22,229.92L408.88,230.95L407.16,231.44L405.77,232.14L403.99,232.73L403.38,233.05L402.7,233.96L401.46,234.93L400.38,235.37L397.82,235.28L397.1,235.49L396.41,236.08L395.86,237.66L396.03,239.32L395.85,240.7L395.52,241.78L395.51,243.27L395.75,243.99L396.7,245.19L397.47,245.63L399.07,246.12L398.92,247.28L398.6,248.08L397.52,249.21L397.01,249.89L397.01,251.61L396.83,253.11L396.6,253.81L395.77,254.72L394.66,255.49L393.81,255.84L392.42,255.53L391.59,255.65L390.98,256.26L390.85,257.63L390.53,258.37L389.65,259.31L389.07,260.43L388.89,262.91L388.59,264.38L388.3,265.26L387.53,266.74L386.42,268.41L385.23,268.16L384.31,267.32L383.8,266.34L383.15,266.73L381.6,268.27L380.47,268.91L378.03,268.62L377.03,268.35L376.73,266.54L375.85,265.18L375.28,264.08L374.68,263.45L373.94,261.82L373.14,261.19L371.87,261.39L370.45,262.31L368.15,263.43L367.47,261.3L367.23,259.66L367.37,257.67L367.03,255.98L366.52,255.13L365.4,253.82L364.67,253.14L363.42,252.89L361.8,251.36L360.07,250.3L359.34,250.15L356.98,248.36L356.02,247.87L352.46,247.23L351.13,247.28L349.21,247.75L348.56,245.88L348.19,245.46L346.99,245.02L345.09,244.8L343.02,244.94L340.75,244.69L337.99,243.5L336.75,242.52L335.76,242.41L334.86,242.67L333.08,243.41L331.46,243.95L328.72,244.73L327.46,245.31L325.81,243.85L324.11,242.53L322.82,241.27L322.3,240.61L321.02,238.34L321.9,237.59L322.8,236.5L323.55,235.81L324.23,234.93L324.59,234.14L324.85,233.06L325.53,230.85L325.5,229.4L324.71,228.08L325.11,227.48L325.96,226.71L326.92,226.17L328.26,225.71L328.52,223.86L328.83,223.18L329.6,222.46L330.25,222.18L331.97,221.69L333.19,221.08L334.66,219.85L336.3,220.08L338.18,220.97L340.63,221.45L342.2,221.52L343.77,221.45L344.05,222.37L345.07,222.36L346.45,222.19L348.75,222.13L350.13,221.68L351.7,220.18L353.02,219.11L354.82,219.11L355.6,218.47L355.96,217.62L356.06,216.76L356.13,213.86L356.7,211.38L357.2,210.43L358.01,209.71L358.95,206.88L358.04,206.13L356.71,204.82L356.01,204.51L355.32,203.75L355,202.91L354.48,200.62L354.26,198.63L354.86,197.5L355.54,195.62L355.49,194.64L355.67,193.92L357.87,193.07L359.24,192.79L359.45,191.82L360.33,191.21L360.99,191.14L361.53,191.43L361.67,192.07L362.65,192.57L363.87,191.73L364.47,191.65L366.2,192.34L367.54,192.4L367.76,193.11L368.29,193.31L369.13,194.37L369.8,194.39L370.85,193.23L372.16,192.52L373.12,192.88L372.92,194.01L373.44,194.34L374.59,193.48L375.55,193.41L377.99,194.08L378.79,195.27L379.42,195.89Z" class="land" id="MN-057" title="Dzavhan"/>
    <path d="M550.33,282.57L549.99,283.69L549.32,286.62L549.11,288.05L549.11,289.21L548.95,290.08L549.28,291.88L549.7,293.5L549.96,295.1L551.38,299.46L551.72,300.32L550.73,300.45L549.29,300.94L548.91,301.25L548.55,302.02L548.23,303.84L548.22,305.01L545.7,305.18L542.29,305.22L539.63,305.39L538.99,307.5L538.5,309.78L538.22,310.64L537.75,311.56L537.32,311.95L534.42,313.18L533.72,313.29L531.75,312.76L530.76,312.91L530.06,313.2L528.4,313.58L525.96,314.02L524,314.53L520.81,316.22L519.69,317.09L517.79,317.89L516.53,318.98L515.63,319.38L514.13,319.72L513.08,319.81L512.24,319.74L511.16,319.21L509.26,317.48L508.82,317.17L508.31,316.35L507.82,314.75L505.73,311.72L504.8,309.38L502.84,309.09L500.9,309.08L499.12,309.18L497.42,309.54L496.48,309.57L495.17,309.35L493.75,308.95L493.01,308.57L490.61,308.11L488.49,307.55L487.16,306.93L486.52,306.36L485.87,305.17L485.28,302.9L484.83,300.6L484.51,299.54L483.95,298.31L482.44,298.77L479.09,299.01L479.05,297.44L479.27,295.3L478.99,294.8L478.36,294.62L477.31,293.21L476.99,292.61L476.69,291.37L476.65,289.52L477,288.54L477.67,287.79L478.47,287.12L479.46,286.66L480.84,286.83L482.28,286.86L483.18,286.74L483.95,286.34L484.37,285.6L484.64,284.01L485.22,282L485.7,281.46L486.23,280.45L486.94,278.62L488.25,278.77L489.66,278.71L490.34,278.45L490.8,277.98L491.65,275.82L491.99,274.19L492.08,273.11L495.44,270.26L496.75,268.57L500.62,269.96L501.52,270.48L503.16,271.85L504.35,269.65L505.76,267.84L507.09,265.98L508.66,265.48L509.21,265.46L510,265.78L510.92,266.69L512.15,267.37L513.73,267.85L514.42,268.45L514.6,268.91L522.59,268.96L524.6,269.41L525.53,269.94L527.66,272.01L528.59,272.61L529.78,272.48L532.16,272.39L533.27,272.12L534.79,271.51L535.29,271.1L536.05,269.95L537.17,269.37L538.44,269.2L539.24,268.73L539.47,268.22L539.84,264.86L541.34,264.57L542.07,265.55L542.72,266.18L544.13,267.06L545.7,268.29L545.1,269.67L544.33,271.05L544.45,272.01L545.69,274.06L545.68,275.33L545.35,276.78L544.55,278.58L544.58,279.68L545.07,281.02L546.11,282.45L546.87,283.11L547.68,283.27L548.38,283.15Z" class="land" id="MN-059" title="Dundgovĭ"/>
    <path d="M669.46,276.36L668.63,274.81L666.6,270.66L665.99,269.52L665.12,268.75L663.63,268.54L658.93,268.56L657.85,268.6L656.39,268.93L655.12,269.52L650.34,269.48L647.84,269.82L644.9,270.5L643.74,269.01L642.86,268.07L642.05,266.76L641.26,265.98L639.89,265.18L638.84,264.41L638.3,263.85L637.75,262.64L637.63,261.32L637.77,259.78L638.05,258.49L638.59,256.79L636.54,255.39L634,253.98L632.46,252.5L631.02,251.6L628.81,249.45L627.83,248.88L626.62,248.37L625.82,248.32L622.44,247.8L620.12,247.36L619.02,247.25L617.07,246.44L615.78,246.15L615.22,246.17L613.93,246.52L612.72,247.01L612.1,243.45L611.99,242.16L611.6,241.06L610.71,239.14L609.97,236.89L609.74,235.65L609.59,233.77L609.26,232.07L609.36,230.43L609.62,229.55L609.65,228.1L609.27,226.73L608.49,225.44L606.87,222.18L606.01,220.74L605.35,219.03L605.17,218.3L605.22,217.48L605.74,216.39L606,215.48L605.78,214.51L604.89,213.08L604.59,212.17L604.42,209.99L604.12,208.12L603.86,207.67L602.66,206.77L601.12,205.88L601.93,205.36L603.29,205.22L605.9,203.87L606.66,203.78L609.29,202.58L610.48,203.06L611.28,202.99L612.32,203.83L612.89,203.82L614.17,203.13L616.04,201.65L617.85,201.15L618.09,200.77L617.98,200.06L618.72,198L619.33,196.71L619.98,195.93L621.9,194.59L622.46,194.02L623.51,193.27L623.9,192.68L624.55,192.59L625.5,191.58L626.48,191.12L628.41,189.92L629.5,190.14L631.97,187.79L632.59,187.81L633.13,187.21L634.38,186.36L635.74,185.78L636.67,185.52L638.24,186.42L639.02,186.59L640.16,186.47L641.48,186.14L642.63,186.38L644.22,186.94L646.43,187.98L647.38,189.5L648.65,190.95L649.92,192.58L651.53,193.73L651.96,194.24L652.64,194.4L653.34,194.23L653.96,194.51L654.62,194.25L657.12,194.78L657.8,194.67L659.13,193.66L661.67,192.14L662.76,191.71L664.34,191.37L665.22,191.52L667.96,192.96L670.33,193.49L671.73,195.81L668.14,204.11L667.52,205.18L664.02,213.34L662.34,217.13L662.08,217.86L663.05,219.36L662.94,219.77L658.62,225.66L658.46,226.41L658.81,230.04L658.77,231.3L658.49,231.73L654.05,233.47L653.94,234.29L654.24,235.28L654.28,236.28L654.57,237.57L653.27,237.57L653.48,238.27L654.63,238.72L655.64,239.68L656.24,240.52L658.55,242.78L658.85,243.31L660.03,244.56L660.53,244.7L661.34,243.8L662.05,242.7L663.34,241.23L664.45,240.56L665.11,240.32L667.06,240.9L667.99,241.07L669.3,240.93L670.86,240.01L672.81,239.8L673.61,239.83L675.44,240.5L677.81,241.8L679.07,243.13L680.56,244.31L681.78,245.61L682.29,245.02L682.38,244.47L683.2,243.12L684.5,242.27L685.52,240.63L686.27,239.78L687.52,237.79L688.65,237.28L688.75,237.01L689.84,236.8L691.5,236.94L692.11,236.69L694.31,237L694.88,237.53L698.25,237.57L701.09,240.2L702.68,241.87L703.94,242.58L706.82,243.82L707.87,244.16L707.92,245.24L708.37,247.05L708.28,247.79L708.82,248.25L709.79,248.03L710.44,247.63L711.04,247.97L710.94,248.68L711.1,249.37L710.82,250.06L711.56,250.88L712.88,251.95L714.11,253.17L716.95,256.64L717.48,257.88L717.81,259.21L718.88,261.44L719.46,261.93L719.86,263.57L719.64,264.57L719.99,265.79L719.94,266.68L719.24,267.3L718.62,267.53L717.69,268.5L715.53,268.59L713.89,267.97L712.39,268.09L711.89,268.73L710.96,268.73L709.68,268.33L708.79,267.84L707.82,267.84L706.93,267.35L706.09,266.55L704.14,265.53L703.12,265.61L702.46,266.37L702.15,267.04L701.39,267.04L700.42,266.81L699.27,267.13L698.16,266.81L697.63,266.46L696.65,266.24L695.68,266.46L695.1,266.9L694.04,267.26L692.76,267.39L691.91,268.42L691.07,268.68L689.32,268.85L688.9,269.83L688.38,270.12L686.65,270.36L685.66,269.81L685.37,268.78L683.88,268.69L682.65,268.9L682.63,270.53L681.91,271.59L681.78,272.04L681.74,273.67L681.46,273.85L679.68,273.59L677.88,273.78L675.92,273.83L675.28,273.74L674.13,273.1L672.68,274.51L670.77,274.75L669.84,275.33Z" class="land" id="MN-061" title="Dornod"/>
    <path d="M589.21,276.33L590.98,277.02L592.18,277.59L593.75,278.57L595.31,279.28L596.04,280.14L596.88,282.15L597.27,283.83L597.41,287.09L596.94,291.26L598,292.16L598.79,293.92L600.12,295.62L600.52,296.76L600.31,298.44L600.51,299.87L600.75,300.73L599.97,301.01L599.15,301.56L598.54,302.24L597.76,303.39L596.66,305.66L595.07,308.41L594.43,311.23L593.66,313.11L592.9,314.18L592.51,315.32L592.6,316.81L592.96,317.35L593.45,317.6L593.9,318.39L594.28,319.58L595.42,321.36L596.72,322.78L598.73,323.17L599.43,323.64L600.3,324.93L601.57,327.03L601.87,327.81L601.19,328.9L600.38,329.28L597.96,329.89L597.33,331.38L596.64,332.18L596.04,333.31L595.29,334.03L594.6,334.27L593.26,334.36L592.26,335.03L591.35,335.45L589.73,335.91L587.93,336.73L587.42,337.03L586.38,338.15L585.03,340.05L583.95,341.4L582.3,342.89L582.22,343.58L581.09,345.48L578.56,346.93L578.51,348.18L578.02,348.76L576.79,349.63L573.95,351.44L571.36,351.38L569.34,351.68L568.3,352.37L565.06,354.78L562.1,355.46L560.46,355.63L558.49,355.43L557.06,355.37L556.42,355.09L554.09,356.48L553.65,356.03L549.82,355.11L546.34,355.43L545.54,354.98L542.48,355.39L541.53,355.72L541.75,355.64L541.71,352.43L542.06,350.13L542.17,347.09L542.45,345.65L542.42,344.39L542.23,343.22L542.09,340.63L541.8,339.76L541.21,338.65L541.03,337.84L541,336.78L541.08,333.75L541.37,331.1L541.31,329.81L541.01,328.78L539.99,325.94L539.68,324.75L539.51,323.51L539,321.58L538.35,320.15L537.38,318.39L536.84,317.25L536.74,316.01L536.93,314.93L537.1,313.2L537.32,311.95L537.75,311.56L538.22,310.64L538.5,309.78L538.99,307.5L539.63,305.39L542.29,305.22L545.7,305.18L548.22,305.01L548.23,303.84L548.55,302.02L548.91,301.25L549.29,300.94L550.73,300.45L551.72,300.32L551.38,299.46L549.96,295.1L549.7,293.5L549.28,291.88L548.95,290.08L549.11,289.21L549.11,288.05L549.32,286.62L549.99,283.69L550.33,282.57L551.04,281.08L551.25,279.5L552.01,277.38L553.3,276.19L554.38,274.84L555.54,273.06L556.28,271.31L558.21,272.75L558.64,273.25L559.42,275.5L560.64,276.98L561.41,277.54L562.04,277.69L564.3,277.75L565.39,277.93L566.18,278.26L566.9,277.68L568.67,276.71L569.91,275.58L570.54,274.81L570.89,273.89L571.75,272.18L571.96,271.45L571.9,270.46L571.61,268.42L572.21,267.84L573.63,268.28L574.18,268.8L575.05,270.29L576.1,271.63L577.63,273.28L578.67,275.25L579.51,276.62L580.23,279.07L584.76,279.95L586.09,280.02L586.37,279.38L588.48,277.31Z" class="land" id="MN-063" title="Dornogovĭ"/>
    <path d="M556.28,271.31L555.54,273.06L554.38,274.84L553.3,276.19L552.01,277.38L551.25,279.5L551.04,281.08L550.33,282.57L548.38,283.15L547.68,283.27L546.87,283.11L546.11,282.45L545.07,281.02L544.58,279.68L544.55,278.58L545.35,276.78L545.68,275.33L545.69,274.06L544.45,272.01L544.33,271.05L545.1,269.67L545.7,268.29L544.13,267.06L542.72,266.18L542.07,265.55L541.34,264.57L542.02,264.17L543.7,263.78L545.02,263.76L547.31,264.21L549.14,264.44L551.51,263.31L552.58,262.69L553.3,261.94L554.22,260.08L555.12,261.34L555.67,262.65L556.69,263.33L556.96,263.8L556.91,264.43L556.46,266.38L556.38,267.64L556.55,268.86L556.5,270.55Z" class="land" id="MN-064" title="Govĭ-Sümber"/>
    <path d="M386.42,268.41L387.7,269.86L387.52,270.51L387.8,271.86L388.4,273.3L388.71,274.58L389.01,275.23L389.63,275.84L390.92,276.62L391.69,277.32L392.4,278.21L393.44,279.03L395.94,281.52L395.91,282.14L396.15,282.78L396.71,283.39L397.97,284.38L398.85,285.54L399.48,288.34L399.8,290.22L399.82,293L399.72,294.47L399.37,296.1L398.7,298.36L397.82,300.38L396.89,302.07L396.03,303.98L395.81,305.54L396.06,307.51L396.06,309.19L395.7,311.25L394.94,313.27L394.37,314.09L393.69,314.62L392.37,315.05L391.82,316.12L391.76,317.15L391.78,320.97L392.2,323.87L391.74,326.58L391.65,328.43L391.49,329.74L391.58,330.95L391.51,331.79L390.91,333.14L390.91,334.41L390.7,335.38L389.58,337.3L389.28,338.16L389.19,338.96L389.23,340.8L389.65,342.93L389.74,343.75L389.71,350.03L385.69,349.58L382.24,348.94L380.21,348.66L378.05,349.32L376.95,349.91L375.86,349.57L374.17,349.47L373.36,349.3L371.28,349.67L370.17,349.67L369.5,349.83L368.43,349.72L368.14,347.44L367.88,346.45L366.35,344.95L365.34,343.84L364.86,343.13L364.14,341.49L363.12,340.32L362.42,339.92L361.79,339.28L361.37,338.17L361.26,335.83L359.42,332.19L358.41,330.11L358.21,329.57L358,327.96L357.42,326.22L356.89,325.33L356.34,323.73L356.11,323.51L355.11,323.45L353.72,323.06L353.25,322.22L353.55,320.47L353.65,319.14L354.5,318.07L354.44,317.48L353.44,317.54L350.95,317.98L348.65,318L347.98,318.21L347.09,317.49L344.59,316.46L343.58,316.27L343.24,315.52L342.15,314.64L341.8,314.17L341.18,313.99L339.87,313.02L338.19,312.6L337.93,312.18L337.77,311.21L336.81,310.52L336.16,309.68L334.95,309.2L334.12,308.4L332.27,307.22L330.47,306.33L329.64,305.81L329.12,304.98L327.97,304.26L326.65,303.87L325.88,303.32L325.18,303.44L323.63,302.8L322.05,302.76L321.46,302.49L320.92,299.76L320.62,297.56L320.57,296.3L320.62,292.65L320.57,291.6L320.32,290.67L319.88,289.65L319.52,288.24L319.56,287.18L320.09,286.32L323.06,284.46L323.91,283.72L324.39,280.44L324.7,279.37L325.36,277.66L326.32,276.13L326.62,275.35L327.46,273.68L327.78,272.1L327.49,271.08L326.57,269.25L326.05,267.58L327.29,267.76L328.14,268.07L328.76,268.5L329.72,269.43L330.24,268.51L331.14,267.51L332,266.29L332.91,265.79L333.97,265.67L335.74,265.66L336.58,265.51L337.47,265.17L339.36,264L338.38,263.27L337.51,262.29L336.9,261.23L335.99,259.07L335.12,257.44L334.3,255.16L334.05,253.97L333.39,252.98L332.73,252.61L331.51,252.27L330.42,251.69L329.84,251.05L329.48,250.23L328.53,248.94L327.85,248.33L326.35,247.39L327.46,245.31L328.72,244.73L331.46,243.95L333.08,243.41L334.86,242.67L335.76,242.41L336.75,242.52L337.99,243.5L340.75,244.69L343.02,244.94L345.09,244.8L346.99,245.02L348.19,245.46L348.56,245.88L349.21,247.75L351.13,247.28L352.46,247.23L356.02,247.87L356.98,248.36L359.34,250.15L360.07,250.3L361.8,251.36L363.42,252.89L364.67,253.14L365.4,253.82L366.52,255.13L367.03,255.98L367.37,257.67L367.23,259.66L367.47,261.3L368.15,263.43L370.45,262.31L371.87,261.39L373.14,261.19L373.94,261.82L374.68,263.45L375.28,264.08L375.85,265.18L376.73,266.54L377.03,268.35L378.03,268.62L380.47,268.91L381.6,268.27L383.15,266.73L383.8,266.34L384.31,267.32L385.23,268.16Z" class="land" id="MN-065" title="Govĭ-Altay"/>
    <path d="M487.57,185.7L489.01,187.06L490.13,188.62L490.53,189.75L490.64,190.95L491.53,191.89L491.29,192.25L490.03,192.51L490.05,194.52L490.32,195.45L490.89,196.25L492.56,198.1L493.27,199.36L492.37,200.29L492.35,202.69L492.23,203.95L491.91,205.18L491.21,206.76L490.97,208.26L490.58,209.81L490.35,211.54L490.08,212.66L488.96,212.15L487.96,212.11L487.44,212.34L486.56,213.23L483.87,212.3L483.25,212.89L482.36,214.14L482.35,215.37L485.1,216.15L485.94,216.29L487.97,217.35L489.34,218.62L490.45,219.86L490.01,221.13L490.21,223.54L490.36,225.53L490.3,228.19L489.75,229.7L488.3,230.9L487.78,231.84L487.24,233.33L486.64,234.36L487.27,235.07L487.98,236.18L488.2,237.83L489.71,238.56L490.57,238.7L492.83,238.8L492.95,239.6L492.65,239.9L492.76,241.63L493.35,244.09L493.68,245.09L492.16,245.23L490.2,245.27L489.59,246.46L487.25,246.57L486.59,246.82L484.67,248.11L483.36,249.36L483.98,250.74L484.77,251.56L484.91,252.4L484.54,253.11L483.44,253.45L481.62,253.84L480.34,254L479.48,253.88L477.53,254.15L477.27,252.23L476.28,251.22L473.4,248.77L472.54,247.62L471.27,245.23L470.52,244.26L469.49,243.77L468.77,243.73L467.93,242.03L467.63,241.06L465.78,240.18L465.25,239.7L465.07,239.14L464.94,237.5L464.55,235.83L463.42,233.72L462.65,232.66L461.94,231.95L460.33,231.83L459.67,231.63L458.69,230.89L458.02,230.14L457.85,228.88L457.26,227.87L456.06,226.79L455.83,225.99L455.84,225L455.47,222.39L454.9,220.37L454.47,219.36L453.24,220.12L452.46,220.25L451.92,219.95L451.45,218.91L450.73,218.26L449.63,218.06L448.9,217.6L447.71,216.34L447.53,215.91L447.06,213.43L447.18,212.1L447.7,210.67L448.42,209.74L449.61,209.35L450.3,208.25L451,207.73L452.18,206.55L453.06,206.19L456.7,205.21L457.65,204.72L458.9,203.45L459.5,202.33L459.98,200.99L460.56,200.41L462.49,200.47L464.21,199.24L463.26,198.25L460.83,196.97L459.76,196.65L457.84,195.74L456.61,195.36L454.56,194.31L454.11,193.72L454.07,192.98L454.49,191.98L455.75,190.42L456.23,189.55L457.87,187.79L458.35,186.1L458.74,185.11L459.97,183.84L462.58,182.4L464.81,183.28L465.8,184.55L467.14,185.02L470.47,184.82L471.14,185.34L471.28,186.17L471.71,187.01L472.46,187.42L473.34,187.1L474.51,187.33L476.18,188.38L477.72,188.91L478.16,188.61L478.72,187.59L479.41,187.26L480.17,187.39L481.66,187.96L482.61,188.48L483.25,188.51L485.16,187.83L486.08,187.41L486.58,186.22L487.42,186.08Z" class="land" id="MN-067" title="Bulgan"/>
    <path d="M441.9,263.44L442.69,264.7L443.71,266.84L445.01,268.79L444.77,269.68L445.41,271.17L445.31,272.21L445.01,273.09L444.94,277.23L444.36,278.31L443.82,278.81L442.69,279.52L442.01,280.47L441.87,281.5L441.89,283L442.39,285.28L442.43,286.31L442.05,287.96L441.23,289.34L441.22,290.78L440.38,291.87L439.84,292.83L439.67,294.26L439.63,299.47L439.77,300.72L440.38,302.01L440.83,302.69L441.77,303.26L443.61,303.83L444.37,304.52L445.91,305.42L446.49,306.45L445.88,307.3L445.6,309.1L445.76,310.23L446.61,311.59L447.22,313.27L447.44,314.3L448.07,316.37L448.32,317.95L448.65,319.17L449.11,321.26L449.65,322.48L448.74,323.6L447.46,323.93L444.71,325.18L442.53,326.44L440.88,326.84L439.55,326.93L431.84,326.92L430.96,326.99L428.51,327.36L427.04,327.1L426.37,326.73L424.57,324.78L422.78,322.62L421.76,322.1L420.69,321.16L419.91,320.7L418.77,320.38L417.68,320.5L416.41,320.89L415.3,321.04L414.27,321.66L413.99,322.79L414.49,326.66L414.46,332.35L414.5,333.64L414.68,334.82L414.78,336.69L415.08,339.39L415.64,343.24L416.35,346.72L416.66,349.39L416.68,352.47L415.18,352.79L408.02,352.1L397.93,351.37L396.56,351.42L394.67,351.01L393.16,350.49L389.71,350.03L389.74,343.75L389.65,342.93L389.23,340.8L389.19,338.96L389.28,338.16L389.58,337.3L390.7,335.38L390.91,334.41L390.91,333.14L391.51,331.79L391.58,330.95L391.49,329.74L391.65,328.43L391.74,326.58L392.2,323.87L391.78,320.97L391.76,317.15L391.82,316.12L392.37,315.05L393.69,314.62L394.37,314.09L394.94,313.27L395.7,311.25L396.06,309.19L396.06,307.51L395.81,305.54L396.03,303.98L396.89,302.07L397.82,300.38L398.7,298.36L399.37,296.1L399.72,294.47L399.82,293L399.8,290.22L399.48,288.34L398.85,285.54L397.97,284.38L396.71,283.39L396.15,282.78L395.91,282.14L395.94,281.52L393.44,279.03L392.4,278.21L391.69,277.32L390.92,276.62L389.63,275.84L389.01,275.23L388.71,274.58L388.4,273.3L387.8,271.86L387.52,270.51L387.7,269.86L386.42,268.41L387.53,266.74L388.3,265.26L388.59,264.38L388.89,262.91L389.07,260.43L389.65,259.31L390.53,258.37L390.85,257.63L390.98,256.26L391.59,255.65L392.42,255.53L393.81,255.84L394.66,255.49L395.77,254.72L396.6,253.81L396.83,253.11L397.01,251.61L397.01,249.89L397.52,249.21L398.6,248.08L398.92,247.28L399.07,246.12L400.08,244.99L401.53,244.25L402.82,243.98L404.68,243.76L404.76,245.2L405.04,246.67L405.62,247.73L406.86,248.61L407.37,249.29L408.58,249.66L410.97,249.69L411.67,249.54L412.91,248.86L413.49,248.22L413.91,247.44L415,246.93L417.71,246.42L418.35,246.07L419.1,246.03L419.1,248.25L419.25,248.83L420.73,250.76L421.13,252.06L421.23,254.14L421.52,255.47L421.49,256.61L421.82,258.38L424,257.19L425.99,256.69L429.37,255.63L429.02,256.75L428.97,257.96L429.22,259.45L429.58,260.14L431.49,260.96L432.03,261.52L433.06,263.21L434.01,263.36L435.28,263.18L437.5,263.44L438.79,263.43L440.26,262.93L441.04,263.42Z" class="land" id="MN-069" title="Bayanhongor"/>
    <path d="M293.52,222.5L292.28,221.77L291.41,221.55L290.59,221.8L289.19,222.77L287.66,223.44L286.74,223.38L285.68,223.03L284.59,222.94L284.29,223.25L285.49,224.97L285.74,225.77L285.99,227.44L286,228.31L285.8,229.77L285.8,231.47L286.32,234.91L286.8,236.05L287.63,236.93L288.25,238.09L289.35,241.12L289.59,242.39L289.92,243.07L291.02,243.73L291.03,245.01L291.16,245.79L292.07,247.17L292.38,248.02L292.38,248.76L292.01,251.55L292.79,252.28L293.79,253.96L294.45,254.66L295.16,255.11L295.47,256.79L295.07,259.23L295.24,260.86L295.69,261.52L297.95,263.42L299.8,264.66L301.5,265.58L302.3,266.13L301.49,267.52L301.17,267.77L300.06,268L296.96,268.06L296.49,268.65L295.62,269.37L294.98,269.61L293.82,269.32L293.36,268.65L292.84,267.36L292.17,266.82L290.87,266.38L290.05,265.93L289.38,265.96L289.25,265.62L288.09,264.05L287.78,263.42L287.97,262.66L287.48,261.8L287.19,260.67L286.7,260.16L285.81,259.91L285.06,259.93L284.51,259.61L283.93,258.13L283.24,257.57L282.73,256.61L281.8,255.27L281.29,254.3L281.2,253.75L280.66,252.53L280.89,251.3L280.4,250.41L280.38,248.95L279.88,248.49L279.28,247.57L278.96,246.76L278.44,245.96L278.63,245.43L278.39,244.97L275.7,243.74L274.75,242.77L274.53,241.64L274.69,240.84L273.55,240.08L273.03,240.15L272.71,240.85L272.94,241.34L272.52,241.65L271.95,241.36L270.53,241.62L270.08,241.36L269.47,239.98L268.69,239.69L267.86,238.78L267.27,237.57L267.6,237.01L267.09,236.49L265.21,236.73L264.53,236.51L264.11,237.02L263.4,236.94L262.87,237.57L262.33,237.88L262.12,238.36L261.53,238.68L260.53,238.63L259.26,238.75L258.98,238.4L259.29,237.57L259.08,236.68L258.44,235.78L257.42,235.32L257.15,234.9L256.14,234.99L255.76,234.64L254.98,234.41L254.76,233.87L253.79,233.68L252.98,232.47L252.45,232.33L252.32,231.41L252.77,230.37L252.7,229.88L251.45,228.88L251.1,228.26L249.96,228.84L249,227.7L248.95,227.03L248.05,226.73L247.33,226.18L246.2,225.94L244.93,225.24L244.3,225.26L243.8,224.89L243.27,225.28L243.95,222.88L244.83,222.05L244.52,221.38L243.74,220.46L243.1,220.26L242.62,220.46L241.73,219.64L240.81,219.31L241.13,218.61L240.68,217.89L240.01,217.55L240.39,216.49L241.87,216.09L242.46,215.39L242.3,214.89L241.25,213.7L241.74,212.37L241.27,211.74L241.24,211.08L242.25,211.27L242.97,210.86L243.65,210.82L243.87,209.69L244.56,208.99L245.23,209.01L245.55,209.49L246.23,208.73L246.67,208.52L245.93,207.2L245.28,206.73L245.8,205.67L246.55,205.25L246.38,204.72L247.07,203.87L248.81,203.46L249.87,203.62L250.38,204.1L251.33,203.81L252.02,204L252.32,203.36L253,203.04L253.43,203.18L253.87,204.21L254.36,204.42L255.9,204.42L256.45,204.79L256.57,203.8L256.49,202.97L257.03,202.36L257.61,202.35L257.56,202.95L258.11,203.99L258.53,204.17L259.07,203.81L260.14,203.64L261.23,203.03L262.03,202.28L261.48,201.38L261.98,200.28L262.38,200.1L263.31,200.55L264.16,201.44L264.43,201.26L265.29,199.99L265.98,199.88L266.72,199.41L268.82,198.82L269.09,198.53L269.66,196.86L269.09,196.46L268.39,196.38L268.15,196L268.17,194.31L267.64,193.64L267.91,192.71L269.38,192.62L269.75,192.23L271.13,192.15L272.53,192.44L273.41,191.98L274.74,192.66L275.4,193.43L275.73,194.35L276.25,197.04L277.13,198.55L279.02,199.74L280.1,200.66L281.07,201.71L282.34,204.25L282.34,205.17L282.63,205.48L283.52,207.34L284.71,208.26L285.86,208.08L286.53,208.33L287.08,209.04L287.55,210.65L288.41,212.64L288.79,214.17L290.33,215.62L291.18,216.1L291.9,216.76L292.7,218.3L293.16,219.77Z" class="land" id="MN-071" title="Bayan-Ölgiy"/>
    <path d="M447.53,215.91L447.71,216.34L448.9,217.6L449.63,218.06L450.73,218.26L451.45,218.91L451.92,219.95L452.46,220.25L453.24,220.12L454.47,219.36L454.9,220.37L455.47,222.39L455.84,225L455.83,225.99L456.06,226.79L457.26,227.87L457.85,228.88L458.02,230.14L458.69,230.89L459.67,231.63L460.33,231.83L461.94,231.95L462.65,232.66L463.42,233.72L464.55,235.83L464.94,237.5L465.07,239.14L465.25,239.7L465.78,240.18L467.63,241.06L467.93,242.03L468.77,243.73L469.49,243.77L470.52,244.26L471.27,245.23L472.54,247.62L473.4,248.77L476.28,251.22L477.27,252.23L477.53,254.15L477.02,254.81L476.27,255.25L475.17,255.55L474.09,255.62L472.64,255.56L470.93,255.31L470.09,254.99L468.7,253.39L468.05,252.85L466.89,252.57L465.17,251.55L464.13,251.4L463.55,251.11L463.16,250.57L462.43,250.88L462.15,251.24L462.14,251.98L462.39,252.49L463.3,253.55L463.2,254.67L462.53,255.81L461.28,256.83L460.83,257.94L460.64,259.56L460.14,260.71L459.47,261.2L458.76,260.75L457.29,259.27L456.69,259.08L454.69,259.42L453.99,259.79L452.34,260.13L451.47,260.48L450.77,261.12L450.24,262.16L449.17,262.66L446.98,262.9L444.66,262.94L443.3,263.07L441.9,263.44L441.04,263.42L440.26,262.93L438.79,263.43L437.5,263.44L435.28,263.18L434.01,263.36L433.06,263.21L432.03,261.52L431.49,260.96L429.58,260.14L429.22,259.45L428.97,257.96L429.02,256.75L429.37,255.63L425.99,256.69L424,257.19L421.82,258.38L421.49,256.61L421.52,255.47L421.23,254.14L421.13,252.06L420.73,250.76L419.25,248.83L419.1,248.25L419.1,246.03L418.35,246.07L417.71,246.42L415,246.93L413.91,247.44L413.49,248.22L412.91,248.86L411.67,249.54L410.97,249.69L408.58,249.66L407.37,249.29L406.86,248.61L405.62,247.73L405.04,246.67L404.76,245.2L404.68,243.76L402.82,243.98L401.53,244.25L400.08,244.99L399.07,246.12L397.47,245.63L396.7,245.19L395.75,243.99L395.51,243.27L395.52,241.78L395.85,240.7L396.03,239.32L395.86,237.66L396.41,236.08L397.1,235.49L397.82,235.28L400.38,235.37L401.46,234.93L402.7,233.96L403.38,233.05L403.99,232.73L405.77,232.14L407.16,231.44L408.88,230.95L411.11,232.15L411.74,232.32L412.99,232.2L417.83,231.2L418.54,230.72L418.95,229.93L419.46,228.15L419.51,226.7L421.28,227.25L422.06,227.62L423.66,228.63L424.36,228.87L425.41,228.77L425.84,228.25L425.9,227.28L426.33,226.83L427.01,226.58L428.68,226.4L429.79,226.18L428.42,224.25L428.09,223.44L428.05,222.51L428.32,221.19L429.18,219.03L430.04,217.98L431.42,217.42L432.24,216.8L431.62,215.99L429.79,215.1L431.83,213.3L432.38,212.63L433.17,210.4L434.18,210.95L435.91,212.1L436.85,212.44L439.82,213.93L441.96,214.86L442.93,215.71L444.27,216.13L445.62,216.18Z" class="land" id="MN-073" title="Arhangay"/>
  </g>
</svg>