<?xml version="1.0" encoding="UTF-8"?>
<svg xmlns="http://www.w3.org/2000/svg" width="121.2" height="262.15" viewBox="419.4 125.92 121.2 262.15" style="background-color:#000000">
  <!-- Created using SVG Map Generator: dojo.amcharts.com/svg-map-generator -->
  <style>
    .land { fill: #ffffff; stroke: #000000; stroke-width: 0.65; }
  </style>
  <g id="polygons">
    <path d="M477.84,246.75L477.8,246.78L477.57,247.08L477.47,247.17L477.15,247.48L477.48,248.25L477.08,248.86L476.21,248.93L476.44,249.71L477.11,250.61L477.13,251.14L477.55,251.32L478.23,251.3L478.61,251.98L479.29,252.9L479.63,253.1L479.76,253.65L479.2,254.22L478.67,254.39L478.56,254.81L479.14,255.09L479.67,255.09L480.07,255.83L479.99,256.13L479.51,256.73L478.98,257.01L478.83,256.63L477.82,256.35L476.45,256.49L474.9,256.45L473.6,256.31L473.4,256.86L472.9,257.2L472.15,256.81L471.61,256.73L470.84,256.38L470.2,256.4L469.82,256.82L469.5,256.84L468.74,256.57L468.11,256.23L467.86,255.57L467.78,254.58L468.44,252.95L468.32,252.54L468.65,251.72L468.95,251.46L468.63,250.57L468.53,249.82L468.29,249.53L468.55,249.13L468.49,248.59L468.74,248.39L469.1,247.34L468.77,247.1L468.68,246.62L468.12,245.41L468.04,245.09L468.68,245.18L468.91,244.97L469.39,245.61L469.49,246.01L470.53,246.25L470.87,245.42L471.44,245.22L472.83,245.44L473.64,245.71L473.99,245.13L474.79,244.82L475.83,244.93L476.63,245.52L477.07,246.04L477.79,246.4Z" class="land" id="MM-18" title="Nay Pyi Taw"/>
    <path d="M439.18,251.87L439.27,252.72L438.35,251.83L437.91,250.32L438.37,250.08L439.18,250.99ZM442.27,265.62L442.45,266.23L442.29,266.86L441.84,267.3L440.99,267.26L440.32,266.56L439.09,265.06L438.91,264.6L440.11,264.51L440.68,264.12L441.22,264.63L442.24,264.64L442.35,265.06ZM445.18,257.21L445.11,257.95L444.78,258.15L444.21,258.79L443.71,259.1L443.01,259.13L442.64,258.82L442.02,257.62L442.08,257.18L441.48,256.93L440.94,256.19L441.54,255.26L442.09,255.34L442.4,255.76L443.24,256.47L444.01,256.36ZM428.05,231.22L428.41,231.38L429.06,232.44L429.84,233.33L430.55,234.66L430.99,234.97L431.74,234.41L432.13,234.41L434.38,234.88L434.59,235.21L434.74,236.61L434.95,237.02L435.56,237.41L435.67,237.89L436.07,238.33L437.99,239.6L438.78,239.98L439.46,239.91L440.59,240.09L441.48,239.4L441.12,238.65L441.12,237.5L441.55,236.97L442.33,237.29L442.81,238.12L443.01,238.76L443.68,238.92L444.32,239.59L444.32,241.26L444.44,241.49L445.14,241.66L445.56,241.93L447.56,245.29L448.23,246.95L448.85,247.71L448.81,248.57L448.97,249L449.85,249.93L449.97,250.34L449.73,251.32L449.78,251.73L450.32,252.92L451.09,256.74L451.21,257L452.4,258.73L452.76,259.68L452.44,259.89L452.63,260.99L452.91,261.55L453.73,261.87L454.34,262.56L454.81,263.67L455.17,263.94L455.72,264.67L455.92,265.12L455.82,265.44L454.86,265.74L454.94,266.09L455.5,266.61L455.75,267.02L455.68,267.36L455.28,267.74L455.17,268.27L455.55,269.21L455.39,270.16L455.97,271.21L456.33,271.63L456.88,272.72L457.04,274.03L456.81,275.11L456.83,276.5L456.62,277.46L457.18,278.5L456.93,280.13L456.75,280.58L455.98,281.57L455.85,283.71L455.27,284.97L454.52,284.57L453.75,284.37L452.87,283.74L452.9,283.17L452.69,282.65L452.77,282.13L453.24,282.46L453.22,281.68L452.73,280.78L452.56,279.89L452.02,279.37L451.78,277.8L451.32,276.84L451.36,276.45L451.89,276.13L451.75,275.2L451.18,274.01L451,273.19L450.79,273.07L449.95,273.13L449.78,272.48L450.67,272.53L450.92,272.23L450.57,271.56L450.07,271.39L449.82,270.7L449.15,269.97L448.71,269.17L448.93,269.09L448.76,267.81L447.47,266.56L448.28,266.63L448.29,266.41L447.27,264.99L447.09,265.4L446.24,265.06L446.04,264.82L446.03,264.02L446.24,263.76L446.08,262.93L446.4,262.31L446.28,261.8L445.95,261.7L446.06,261.23L445.97,260.59L446.24,259.88L446.14,258.74L445.88,258.99L445.98,260.11L444.98,261.17L444.94,262.46L445.31,263.16L445.22,263.95L444.66,264.82L444.36,264.51L443.82,264.32L443.15,263.66L442.34,263.3L441.74,262.65L441.42,262.63L441.31,261.99L440.95,261.07L440.32,260.49L439.84,259.65L439.09,258.62L438.9,258.12L438.91,257.54L439.21,257.13L439.8,257.03L439.99,257.35L440.55,257.4L440.88,258.14L440.68,258.34L441.24,258.73L441.92,258.9L441.98,259.24L442.94,259.69L443.42,259.65L444.65,258.81L444.91,258.53L445.39,257.62L445.35,256.57L444.87,256.65L444.45,256.45L442.91,255.1L442.68,254.67L442.2,254.47L442.19,254.01L442.91,253.7L443.33,253.09L443.07,252.72L442.77,253.46L442.09,253.65L441.61,253L440.7,252.88L440.42,252.2L441.18,251.01L441.43,250.83L442.18,250.84L441.79,250.38L440.55,250.46L440.15,250.86L439.96,250.38L439.35,250.06L439.01,249.71L438.28,249.85L438,249.54L437.5,248.02L437.06,247.83L436.7,248.34L436.18,248.58L435.12,248.35L434.68,248.87L434.94,249.82L435.71,251.33L435.48,251.47L434.94,250.38L434.58,249.31L434.08,249.32L434.04,250.19L434.28,250.69L434.12,250.96L433.44,249.91L433.3,249.31L432.36,248.03L432.52,247.52L433.38,247.39L433.89,247.18L434.23,246.24L433.82,246.35L432.91,247.18L432.55,247.11L432.51,246.67L432.69,245.95L432.92,245.72L433.21,244.68L432.61,245.3L431.85,246.33L431.37,247.37L430.88,247.52L429.74,246.47L430.09,245.68L430.92,245.11L431.4,245.01L431.14,244.44L430.62,243.88L430.5,242.66L430.29,242.31L429.83,242.67L429.47,242.39L429.28,241.5L428.33,239.91L428.29,240.27L428.87,241.15L429.03,242.37L429.29,243.13L429.21,243.98L429.32,245.4L428.77,245.01L428.21,243.49L427.94,243.1L426.75,241.99L426.49,241.14L425.64,240.05L424.7,239.62L424.44,238.7L423.73,236.62L423.41,236.04L423.28,234.81L422.68,234.2L422.05,233.06L422.18,232.16L422.16,231.1L422.52,230.58L422.84,229.72L423.46,229.69L423.95,229.1L424.53,229.47L424.7,230.17L425.24,230.46L426.55,230.5L426.8,231.05L426.99,231.9L427.4,232.05L427.96,231.59ZM432.21,248.73L432.86,250.53L432.51,250.26L431.51,248.34L431.98,248.27Z" class="land" id="MM-16" title="Rakhine"/>
    <path d="M428.05,231.22L427.56,229.68L427.4,228.64L427.21,225.33L427.43,223.21L427.21,221.95L427.72,221.52L428.18,221.37L428.25,220.59L428.47,220.32L428.44,219.78L428.91,219.58L429.73,220.19L430.79,221.31L430.96,222.11L431.25,222.1L431.47,221.4L432.4,221.7L432.25,220.77L432.49,220.31L432.96,219.96L432.99,218.83L433.84,218.9L434.85,218.21L434.92,217.89L434.81,216.26L434.65,215.69L434.19,215.2L433.95,214.52L434.08,213.64L434.02,213.07L433.59,211.99L433.7,210.88L434.12,210.5L434.93,209.35L434.88,208.81L434.45,207.63L434.64,207L435.2,206.95L435.85,207.64L436.52,207.45L436.97,206.97L437.5,205.88L437.47,205.32L437.62,203.31L437.92,202.83L437.83,201.34L438.24,198.62L438.22,198.16L437.91,197.61L437.5,197.33L437.29,195.69L437.26,194.97L436.75,194.2L436.58,193.72L436.58,193.08L436.82,192.53L437.42,192.55L438.33,193.72L438.56,194.22L439.06,194.23L439.67,193.92L439.9,194.14L440.56,193.53L441.18,193.5L442.24,193.72L442.76,194.42L443.03,194.56L444.05,194.43L445.53,194.82L446.26,195.23L446.84,195.87L447.21,195.71L447.36,196.78L447.74,197.95L447.39,200.7L447.2,200.99L446.41,200.69L446.13,200.82L446.25,201.77L446.19,202.82L445.56,203.07L445.7,203.81L445.53,204.62L445.58,205.36L445.8,206.69L445.75,207.54L445.46,208.81L445.67,209.36L445.73,210.29L445.48,211.29L445.64,212.2L445.89,213.42L445.85,214.18L446.01,215.61L445.86,216.14L446.16,216.63L445.83,217.55L446.19,219.42L446.15,220.03L445.83,220.95L446.24,222.21L445.77,222.73L445.65,223.15L445.64,224.55L446.33,225.97L447.17,227.39L447.17,228.04L446.53,229.45L446.3,231.06L445.91,231.81L446.92,232.6L447.05,233.04L447.09,233.95L446.97,234.58L446.15,236.07L446.09,236.77L446.51,237.66L446.72,238.57L447.33,239.72L446.95,240L445.85,240.29L445.27,240.23L444.32,239.59L443.68,238.92L443.01,238.76L442.81,238.12L442.33,237.29L441.55,236.97L441.12,237.5L441.12,238.65L441.48,239.4L440.59,240.09L439.46,239.91L438.78,239.98L437.99,239.6L436.07,238.33L435.67,237.89L435.56,237.41L434.95,237.02L434.74,236.61L434.59,235.21L434.38,234.88L432.13,234.41L431.74,234.41L430.99,234.97L430.55,234.66L429.84,233.33L429.06,232.44L428.41,231.38Z" class="land" id="MM-14" title="Chin"/>
    <path d="M492.53,195.51L492.37,196.11L491.75,196.38L490.26,196.68L489.61,197.17L489.05,197.18L488.13,197.82L487.46,197.87L487.2,198.12L486.43,198.22L485.45,198.65L484.45,198.63L484.24,197.88L483.06,197.5L482.63,197.58L481.41,197.18L481.45,196.8L482.52,196.39L482.81,196.14L483.11,195.44L483.12,195L482.73,193.8L482.05,194.14L480.71,193.26L480.32,192.67L480.28,191.99L479.99,191.65L479.72,191.11L479.3,190.71L479.13,190.13L479.14,188.64L479.77,187.76L479.33,187.49L478.66,187.33L476.78,186.58L476.39,186.56L474.91,186.88L474.34,187.18L473.07,185.82L472.65,184.65L472.36,184.5L471.16,184.22L470.5,183.61L469.84,181.45L469.26,180L469.99,179.63L470.92,179.34L471.75,178.93L471.49,179.74L471.82,180.11L472.19,179.7L472.25,178.39L471.81,177.49L471.16,176.66L471.02,176.07L470.85,173.4L470.91,172.16L471.29,171.4L471.87,171.9L473.21,170.77L473.61,170.21L473.52,169.5L472.83,168.66L472.33,167.23L472.34,166.82L472.99,165.23L473.42,164.78L473.5,164.29L473.31,163.19L472.85,162.18L472.4,161.47L472.19,160.63L471.49,159.66L471.57,158.98L472.96,158.48L473.27,158.06L473.01,156.92L472.02,155.86L472.21,155.25L473.87,154.21L473.95,153.38L474.85,152.89L475.02,151.94L474.58,151.36L475.72,151.37L477.1,151.67L479.35,151.35L480.04,151.34L481.16,151.01L482.59,150.91L483.57,150.98L484.23,150.6L484.95,149.51L485.73,149.58L485.93,149L485.54,148.58L485.5,148.19L485.07,147.7L482.97,144.92L482.61,144.13L482.78,143.7L482.42,142.46L482.52,141.86L482.9,141.42L483.64,140.86L484.08,140.3L484.97,139.95L485.38,139.44L486.54,138.4L487.06,137.78L487.55,137.6L487.97,138.1L488.49,137.86L488.57,137.02L488.86,136.39L488.77,135.98L488.14,135.3L488.04,134.43L488.43,133.54L488.49,132.88L488.95,132.61L489.14,132.16L489.82,132.13L490.02,131.68L489.93,130.72L490.48,129.86L490.99,128.57L491.5,128.63L492.1,129.27L492.83,128.84L493.2,129.18L493.72,130.73L494.05,131.17L494.46,131.29L495.26,130.91L495.75,131.13L496.36,131.95L496.98,132.39L496.96,133.19L497.7,133.4L498.6,134.26L498.72,134.78L498.65,136.09L498.45,136.71L498.99,137.13L499.35,137.8L498.88,138.09L499.16,138.61L499.6,138.89L499.8,139.81L499.71,140.29L500.35,141.44L500.62,142.58L500.87,143.06L501.31,143.26L501.76,143.13L502.01,142.78L502.2,141.85L502.22,141.04L502.51,140.97L503.41,141.51L503.8,141.32L504.34,142.09L504.86,142.25L505.41,141.97L505.82,142.47L505.68,143.95L505.76,145.24L506.06,145.5L506.14,146.43L505.83,147.41L505.74,148.3L505.98,149.5L506.49,149.84L506.58,150.13L506.25,150.91L506.55,152.18L506.28,152.83L506.63,153.58L506.72,154.14L506.5,154.97L506.8,156.25L506.36,157.49L506.31,159.36L506.06,160.15L505.55,160.76L505.34,161.58L505.79,161.8L506.16,162.72L505.84,163.44L505.37,163.83L505.13,163.16L504.32,163.35L504.1,163.72L504.45,164.72L504.57,165.48L505.01,165.53L505.99,166.96L505.8,167.47L504.93,168.09L503.64,167.55L503.01,168.17L502.39,169.64L501.91,170.25L501.67,171.06L501.36,171.42L500.64,171.63L500.07,171.14L499.01,170.77L498.86,170.97L498.8,171.89L498.35,172.48L498.52,173.11L498.47,173.96L498.05,174.15L497.65,175.06L496.77,175.63L496.18,176.39L495.64,176.58L495.27,176.03L494.8,175.78L494.51,176.12L494.2,177.24L493.69,178.21L493.26,178.45L493.25,180.06L493.52,180.96L494.15,181.56L493.83,181.96L492.74,181.92L491.1,183.12L491.13,185.21L490.81,187.13L490.89,187.57L491.93,187.41L492.43,187.45L493.07,188.76L492.41,189.02L492.49,189.39L493.45,189.74L493.52,190.25L493.27,190.84L493.51,191.24L493.31,191.89L490.85,194.46L491.06,194.73Z" class="land" id="MM-11" title="Kachin"/>
    <path d="M484.95,149.51L484.23,150.6L483.57,150.98L482.59,150.91L481.16,151.01L480.04,151.34L479.35,151.35L477.1,151.67L475.72,151.37L474.58,151.36L475.02,151.94L474.85,152.89L473.95,153.38L473.87,154.21L472.21,155.25L472.02,155.86L473.01,156.92L473.27,158.06L472.96,158.48L471.57,158.98L471.49,159.66L472.19,160.63L472.4,161.47L472.85,162.18L473.31,163.19L473.5,164.29L473.42,164.78L472.99,165.23L472.34,166.82L472.33,167.23L472.83,168.66L473.52,169.5L473.61,170.21L473.21,170.77L471.87,171.9L471.29,171.4L470.91,172.16L470.85,173.4L471.02,176.07L471.16,176.66L471.81,177.49L472.25,178.39L472.19,179.7L471.82,180.11L471.49,179.74L471.75,178.93L470.92,179.34L469.99,179.63L469.26,180L469.84,181.45L470.5,183.61L471.16,184.22L472.36,184.5L472.65,184.65L473.07,185.82L474.34,187.18L474.91,186.88L476.39,186.56L476.78,186.58L478.66,187.33L479.33,187.49L479.77,187.76L479.14,188.64L479.13,190.13L479.3,190.71L479.72,191.11L479.99,191.65L478.91,191.89L476.65,192.93L476.33,193.25L476.32,193.64L476.7,193.87L477.32,193.29L477.86,193.5L477.92,194.34L478.14,195.02L478.51,195.56L478.48,195.93L477.77,197.31L476.98,198.04L476.89,198.67L476.42,199.66L475.44,200.6L475.05,200.25L473.8,200.69L473.1,200.41L472.91,200.17L473.05,199.43L472.93,198.97L472.37,198.87L471.76,199.49L471.41,200.37L470.61,201.36L470.15,202.39L470.15,202.87L470.75,204.62L470.99,205.54L470.86,210.93L470.73,211.19L470.16,211.34L470.04,211.79L470.24,212.43L471.12,213.98L471.19,214.27L470.86,215.07L470.85,216.18L471.48,217.03L471.12,217.88L471.16,218.63L471.41,220.4L471.93,221.72L471.97,222.25L471.58,223.08L470.74,223.57L469.95,223.58L469.63,224.07L469.2,225.73L468.38,226.83L468,226.67L466.9,226.82L466.1,225.7L465.67,225.25L465.16,225.18L463.53,225.54L463.33,225.7L462.84,227.07L462.32,226.89L461.63,226.34L461.56,225.64L461.1,225.17L460.39,224.09L459.86,223.95L459.11,224.28L457.42,224.23L456.42,224.02L454.37,224.3L453.31,224.14L452.37,224.51L451.87,224.87L451.39,224.74L450.65,224.08L450.91,221.79L450.78,220.87L450.26,220.53L450.05,220.11L449.15,220.16L448.85,219.62L448.68,218.01L448.81,217.46L449.36,216.23L449.29,215.78L448.34,213.91L447.45,212.89L447.01,211.78L446.38,212.12L445.64,212.2L445.48,211.29L445.73,210.29L445.67,209.36L445.46,208.81L445.75,207.54L445.8,206.69L445.58,205.36L445.53,204.62L445.7,203.81L445.56,203.07L446.19,202.82L446.25,201.77L446.13,200.82L446.41,200.69L447.2,200.99L447.39,200.7L447.74,197.95L447.36,196.78L447.21,195.71L447.29,194.8L448,193.72L448.12,192.98L448.31,192.68L448.57,191.39L449.2,189.89L449.29,189.18L449.83,188.42L449.79,188.08L450.21,187.65L450.24,187.08L450.67,186.66L450.84,185.94L451.09,185.59L451.67,185.21L452.2,183.69L452.71,183.63L453.15,183.09L453.27,182.15L453.99,181.07L454.23,179.86L454.68,179.13L454.66,177.94L454.43,177.53L452.98,177.03L452.68,176.6L452.64,176.01L453.38,173.88L453.67,173.42L454.47,172.72L455.4,172.5L456.15,171.54L456.51,171.48L456.78,170.98L457.94,169.27L458.55,168.99L458.61,168.41L458.35,166.93L458.44,166.35L459.28,165.89L460.23,164.8L460.2,164.04L459.57,163.74L459.44,162.77L459.65,162.43L459.19,162.11L459.03,161.67L458.99,160.53L459.26,159.59L459.23,159.11L458.96,158.4L459.71,157.53L459.97,156.55L460.54,156.18L461.07,155.64L461.79,155.92L463.49,155.29L464.1,154.66L464.74,153.57L466.05,153.38L466.33,152.75L466.68,152.48L467.27,152.41L467.57,152.17L468.45,150.91L469.88,150.45L470.52,149.68L470.99,148.77L471.48,148.08L472.27,147.51L473.15,147.11L476.57,146.52L477.89,146.6L478.36,146.4L478.87,145.72L479.51,145.98L480.17,145.6L481.09,145.89L482.38,147.35L482.16,147.88L482.46,148.36L484.23,149.18L484.54,149.51Z" class="land" id="MM-01" title="Sagaing"/>
    <path d="M495.39,255.11L495.17,254.23L493.96,253.75L493.55,253.94L492.08,253.53L491.41,252.76L491.74,251.6L491.33,251.38L490.81,250.58L489.95,250.85L489.26,250.05L488.93,249.98L488.63,250.56L487.81,250.73L487.23,250.43L487.16,249.69L486.35,249.39L486.22,250.86L486.05,251.08L486.02,252.53L485.94,252.96L484.54,253.8L483.84,254.39L483.09,255.41L482.85,256.13L483.25,256.95L483.25,257.37L482.91,258.06L482.13,258.97L482.17,258.19L481.82,257.61L480.9,257L480.34,256.76L479.99,256.13L480.07,255.83L479.67,255.09L479.14,255.09L478.56,254.81L478.67,254.39L479.2,254.22L479.76,253.65L479.63,253.1L479.29,252.9L478.61,251.98L478.23,251.3L477.55,251.32L477.13,251.14L477.11,250.61L476.44,249.71L476.21,248.93L477.08,248.86L477.48,248.25L477.15,247.48L477.47,247.17L477.57,247.08L477.8,246.78L477.84,246.75L478.25,246.42L478.21,245.81L477.59,244.21L477.45,243.43L477.75,242.7L477.71,242.25L478.39,242.03L478.37,241.28L477.78,240.85L477.16,239.82L477.2,239.29L477.84,238.69L478.64,238.67L478.68,238.05L478.9,237.62L478.51,237.08L477.83,236.65L477.45,236.89L476.85,236.47L476.53,236.53L474.63,235.84L474.09,235.38L474.02,234.66L474.25,234.22L474.19,233.71L474.41,233.41L475.03,233.17L475.99,233.25L476.13,233.07L475.58,232.04L475.21,230.36L475.03,229.13L475.58,228.8L475.75,228L477.25,227.83L478.2,227.34L478.82,227.23L479.36,226.78L480.39,225.57L480.83,225.64L481.46,225.37L481.81,224.97L482.24,225.29L482.71,225.33L482.6,224.31L482.29,224.06L482.27,223.54L481.83,222.91L481.58,222.33L481.2,221.89L480.92,220.74L480.59,220.45L480.08,220.42L478.67,219.93L477.47,219.36L477.48,218.53L476.94,217.69L476.89,217.14L476.5,216.56L475.66,216.51L475.4,216.1L475.61,214.85L475.11,214.3L475.05,213.61L474.39,212.67L474.39,212.03L474.12,211.95L473.94,211.34L474.75,210.77L475.93,210.85L476.61,210.58L477.38,210.73L478.4,210.23L479.05,210.36L479.56,210.19L479.89,209.54L480.55,208.62L480.04,208.11L479.44,208.06L478.86,207.76L478.89,207.18L478.46,207.26L477.92,206.86L477.58,207.15L475.78,207.45L474.67,207.38L474.05,207L473.97,206.53L473.49,205.9L473.36,205.37L473.8,204.73L473.94,203.33L474.52,202.22L475.26,201.68L475.16,201.2L475.44,200.6L476.42,199.66L476.89,198.67L476.98,198.04L477.77,197.31L478.48,195.93L478.51,195.56L478.14,195.02L477.92,194.34L477.86,193.5L477.32,193.29L476.7,193.87L476.32,193.64L476.33,193.25L476.65,192.93L478.91,191.89L479.99,191.65L480.28,191.99L480.32,192.67L480.71,193.26L482.05,194.14L482.73,193.8L483.12,195L483.11,195.44L482.81,196.14L482.52,196.39L481.45,196.8L481.41,197.18L482.63,197.58L483.06,197.5L484.24,197.88L484.45,198.63L485.45,198.65L486.43,198.22L487.2,198.12L487.46,197.87L488.13,197.82L489.05,197.18L489.61,197.17L490.26,196.68L491.75,196.38L492.37,196.11L492.53,195.51L493.17,195.25L494.08,194.41L494.73,194.24L495.66,193.34L498.43,192.22L499.41,191.98L500.85,192.24L501.33,192.25L502.17,191.85L503.56,191.94L504.61,192.59L505.32,192.23L506.3,191.94L507.61,191.84L508.24,191.63L508.32,192.04L508.1,192.47L506.93,193.27L506.31,193.82L505.62,194.08L505.76,194.54L505.63,195.2L505.72,196.24L505.62,196.52L507.09,196.9L507.37,197.27L507.38,197.98L508.12,199.23L507.33,199.88L507.13,200.23L507.38,200.96L508.01,200.97L508.35,201.44L508.54,202.54L508.16,203.18L508.62,203.17L508.8,203.53L508.15,204.73L508.14,205.19L509.58,205.43L510.29,205.45L510.46,205.92L510.92,206.28L511.63,206.21L512.52,206.41L512.74,206.9L513.62,206.47L514,205.93L514.47,206.03L515.15,206.74L516.11,206.78L516.27,207.53L516.84,208.41L516.59,208.98L516.19,208.95L515.49,208.59L515.25,208.83L515.29,209.7L514.58,210.85L513.92,211.26L513.92,211.62L514.52,213.17L514.38,214.22L514.56,214.75L514.4,215.06L513.6,215.91L513.08,216.17L513.09,216.9L512.77,217.33L512.52,218.23L512.1,218.8L512.21,219.3L512.1,219.8L513.21,220.21L514.65,220.27L515.6,219.91L516.27,220.19L516.89,220.16L518.11,220.46L518.76,221.1L519.02,220.79L519.47,220.71L520.26,221.12L520.53,221.39L521.12,220.84L522.09,221.01L521.99,221.38L522.39,222.15L522.26,222.69L521.8,223.7L521.83,224.25L522.19,225.51L522.79,226L523.89,226.02L524.38,226.17L524.72,226.51L524.32,226.78L523.93,227.64L523.99,228.17L524.93,229.45L525.24,229.57L526.38,228.92L527.04,228.24L527.77,228.19L528.36,228.64L528.71,229.2L529.23,229.1L529.86,229.22L530.84,229L531.9,228.35L532.58,227.61L533.1,226.83L533.59,226.39L534.13,226.12L535.62,225.65L536.6,224.94L537.24,224.97L537.36,225.87L537.64,226.13L537.95,227.02L537.7,227.63L537.79,228.09L537.56,228.39L535.76,229.88L534.37,230.57L533.8,231.14L533.03,231.38L532.18,231.18L531.71,233.29L531.04,234.52L530.65,234.88L529.83,235.11L529.99,235.49L529.65,235.92L529.47,237.05L529.71,237.22L530.86,237.02L531.23,237.19L530.55,237.78L529.75,238.14L527.77,237.8L527.53,237.85L527.08,238.43L526.57,238.59L525.55,239.65L525.15,240.47L524.76,241.71L524.39,243.9L524.12,244.26L524.11,244.87L523.55,244.51L523.3,244.12L522.65,243.92L522.09,243.14L521.26,243.26L520.74,243.51L520.31,244.45L519.86,244.73L519.08,244.78L518.35,245.03L517.42,244.83L516.43,244.5L515.8,244.06L515.49,244.31L515.96,244.81L516.22,245.87L516.72,246.54L516.53,247.13L515.64,247.84L513.76,248.38L513,247.83L512.24,247.56L511.47,247.62L510.42,248.2L510.17,248.67L510.03,249.61L510.13,250.13L509.94,250.5L510.07,251.35L509.62,252.14L508.45,252.72L508.21,252.34L507.48,251.89L506.72,252.47L505.33,252.73L504.78,253.22L503.93,253.67L503.37,253.25L502.73,253.51L501.03,253.48L500.13,253.83L499.88,253.23L499.29,252.91L498.51,252.29L498.01,252.29L497.66,251.87L497.3,252.12L497.13,253.02L497.25,253.76L497.18,254.18L496.81,254.26L496.4,254.68Z" class="land" id="MM-17" title="Shan"/>
    <path d="M495.39,255.11L495.01,255.32L495.12,256.16L494.07,257.48L494.28,258.3L494.58,258.79L494.11,259.39L494.56,259.8L494.69,260.3L494.64,261.37L494.37,261.77L493.57,262.39L493.25,263.38L492.67,263.91L493.45,264.74L493.74,266.94L493.98,268.03L493.88,268.58L493.08,268.91L492.15,268.98L490.76,269.82L489.84,269.86L489.56,269.75L489,269.04L488.68,268.01L488.31,267.33L488.07,267.21L486.93,267.24L485.67,266.98L484.6,264.79L484.34,264.61L484.35,264.11L483.98,263.7L483.74,263.08L483.61,261.89L483.32,261.29L482.89,260.81L482.47,260.61L482.12,259.51L482.13,258.97L482.91,258.06L483.25,257.37L483.25,256.95L482.85,256.13L483.09,255.41L483.84,254.39L484.54,253.8L485.94,252.96L486.02,252.53L486.05,251.08L486.22,250.86L486.35,249.39L487.16,249.69L487.23,250.43L487.81,250.73L488.63,250.56L488.93,249.98L489.26,250.05L489.95,250.85L490.81,250.58L491.33,251.38L491.74,251.6L491.41,252.76L492.08,253.53L493.55,253.94L493.96,253.75L495.17,254.23Z" class="land" id="MM-12" title="Kayah"/>
    <path d="M489,269.04L489.08,269.42L489.57,270.5L489.9,271.01L490.02,271.96L490.46,272.52L491,272.89L491.41,272.03L491.58,271.97L492.41,272.33L492.48,272.78L492.15,273.21L493.01,274.5L493.2,275.25L493.91,276.9L493.47,277.25L493.02,278.1L493.43,279.6L493.85,280L494.1,280.82L496.22,282.81L496.85,283.17L497.53,284.53L498.22,284.96L498.37,285.91L499.47,286.96L499.92,287.28L500.37,287.94L500.67,288.15L500.53,288.53L501.11,289.29L502.22,289.44L502.69,289.83L503.26,290.83L503.31,291.25L503.64,291.43L503.83,292L503.58,292.8L503.18,292.99L502.96,293.71L503.34,294.01L503.67,294.79L504.12,295.1L504.39,295.6L504.34,296.01L505.21,297.21L505.16,297.87L505.53,299.37L505.86,299.75L506.45,299.02L507.23,298.39L507.51,297.52L507.94,297.54L508.48,297.97L508.71,298.55L508.45,299.95L507.93,300.62L507.83,301.48L507.47,301.94L506.05,301.72L505.56,301.86L505.37,302.35L504.95,302.79L504.23,302.68L504.16,302.96L504.59,303.73L504.4,304.49L504.47,305.62L504.07,306.96L504.08,308.75L504.38,310.74L504.28,312.04L503.9,312.14L503.18,311.67L502.27,311.98L502.03,313.37L501.4,313.02L500.72,312.92L500.07,313.76L499.75,313.86L499.77,313.46L499.46,312.7L498.72,311.99L498.31,311.21L498.05,310.98L497.62,310.08L496.99,309.17L496.49,308.76L496.42,308.34L495.85,307.88L495.48,307.78L495.6,307.06L495.34,306L495.03,305.36L494.99,303.91L495.31,302.82L494.8,301.62L496.06,301.54L497.15,301.37L497.97,301.75L498.77,301.24L498.77,300.76L498.15,300.09L498.11,299.69L497.59,299.11L497.17,298.91L496.86,297.68L496.04,297.66L495.79,297.17L495.25,296.85L495.08,296.2L494.32,296.47L493.73,295.91L493.25,295.72L493.15,295.34L492.71,295.37L491.38,293.65L491.31,292.8L491.05,292.11L490.61,291.6L490.61,290.7L490.29,290.25L490.26,289.62L490.56,289.36L490.66,288.88L491.04,288.3L490.75,287.49L490.91,287.14L490.69,286.45L490.91,286.01L490.78,285.62L490.28,284.85L489.92,283.66L490.08,282.9L489.46,282.28L489.17,281.56L489.28,280.97L489.15,280.46L488.35,282.04L487.85,281.91L487.21,282.63L486.94,282.44L487,281.61L486.57,280.51L486.48,280.02L486.82,279.09L485.9,277.08L485.94,276.69L486.59,275.6L486.81,274.41L486,273.68L486.02,272.95L485.86,272.36L485.59,272.19L485.25,272.57L484.97,271.89L484.28,271.43L483.81,270.53L484.06,269.44L483.97,268.5L483.29,267.73L481.79,268.35L480.86,268.01L480.36,268.28L479.84,267.62L479.24,266.33L479.59,265.71L479.26,265.04L479.39,264.59L480.13,263.96L479.71,263.33L478.91,262.67L478.14,261.81L477.77,260.99L478.24,260.54L477.92,260.1L477.75,259.54L477.27,258.77L477.24,257.96L476.77,257.45L476.77,256.92L476.45,256.49L477.82,256.35L478.83,256.63L478.98,257.01L479.51,256.73L479.99,256.13L480.34,256.76L480.9,257L481.82,257.61L482.17,258.19L482.13,258.97L482.12,259.51L482.47,260.61L482.89,260.81L483.32,261.29L483.61,261.89L483.74,263.08L483.98,263.7L484.35,264.11L484.34,264.61L484.6,264.79L485.67,266.98L486.93,267.24L488.07,267.21L488.31,267.33L488.68,268.01Z" class="land" id="MM-13" title="Kayin"/>
    <path d="M493.25,295.72L492.6,296.17L492.09,296.3L491.26,296.2L489.38,296.48L488.96,296.93L488.54,294.94L487.87,294.58L487.48,294.05L487.16,293.09L487.16,292.72L486.83,292.07L486.84,291.67L486.55,291.04L486.76,290.02L486.71,289.69L486.31,289.19L486.22,288.81L486.44,288.47L487.2,288.7L487.06,288.3L486.23,288.24L485.88,288.92L485.48,288.18L485.08,286.6L484.29,286.24L484.37,285.95L482.96,284.93L482.77,284.66L482.68,283.82L482.7,282.3L482.79,281.86L483.68,281.67L484.22,281.8L484.64,282.29L485.3,282.58L485.56,282.85L485.69,283.44L486.03,283.43L486.77,283.1L487.21,282.63L487.85,281.91L488.35,282.04L489.15,280.46L489.28,280.97L489.17,281.56L489.46,282.28L490.08,282.9L489.92,283.66L490.28,284.85L490.78,285.62L490.91,286.01L490.69,286.45L490.91,287.14L490.75,287.49L491.04,288.3L490.66,288.88L490.56,289.36L490.26,289.62L490.29,290.25L490.61,290.7L490.61,291.6L491.05,292.11L491.31,292.8L491.38,293.65L492.71,295.37L493.15,295.34ZM491.78,297.85L491.78,298.86L491.56,299.23L491.55,300.43L491.24,300.74L490.85,300.61L490.77,300.01L490.11,299.38L490.44,298.54L490.02,297.39L490.45,296.7L490.9,296.56L492,296.93L492.06,297.43ZM499.75,313.86L499.36,313.84L499.53,314.39L499.2,315.11L499.24,315.68L499.64,316.1L499.54,316.88L498.6,316.88L498.04,316.45L497.55,315.62L497.24,315.48L496.67,315.66L495.81,315.74L495.68,315.93L495.42,317.07L494.76,318.14L494.43,318.38L494.7,317.33L494.43,316L494.63,315.52L494.59,314.45L494.79,313.99L494.24,313.96L493.77,313.23L493.75,312.54L493.55,312.25L494.07,311.59L494.43,311.34L494,310.24L494.17,309.69L493.76,308.71L493.65,307.08L493.39,306.59L493.55,306.39L493.56,305.52L493.37,304.92L493.1,304.59L492.4,304.1L491.69,303.3L491.56,302.35L491.93,302.18L492.17,301.74L492.56,299.61L492.26,298.7L492.26,297.55L492.59,296.61L493.25,296.01L493.73,295.91L494.32,296.47L495.08,296.2L495.25,296.85L495.79,297.17L496.04,297.66L496.86,297.68L497.17,298.91L497.59,299.11L498.11,299.69L498.15,300.09L498.77,300.76L498.77,301.24L497.97,301.75L497.15,301.37L496.06,301.54L494.8,301.62L495.31,302.82L494.99,303.91L495.03,305.36L495.34,306L495.6,307.06L495.48,307.78L495.85,307.88L496.42,308.34L496.49,308.76L496.99,309.17L497.62,310.08L498.05,310.98L498.31,311.21L498.72,311.99L499.46,312.7L499.77,313.46Z" class="land" id="MM-15" title="Mon"/>
    <path d="M498.31,354.06L498.84,354.02L498.88,354.57L498.37,354.3L498.13,354.43L497.58,353.8L497.67,353.08L498.01,352.71L498.47,352.78L498.67,353.11L498.58,353.61ZM500.35,349.05L500.81,349.59L500.43,350L500.04,349.71L500.08,349.23ZM503.88,370.01L503.33,370.25L503.34,369.56L503.99,368.77L504.05,369.83ZM504.85,356.96L505.35,357.09L505.21,357.42L504.45,357.43L503.72,357.9L503.23,357.96L502.98,357.22L503.14,356.68L502.74,356.32L502.62,355.2L503.17,355.51L503.64,356.31L504.28,356.52ZM500.66,359.16L501.02,359.46L501.23,360.06L500.96,360.29L500.96,360.83L500.71,362.23L500.62,363.36L499.67,363.55L499.49,362.65L499.82,362.4L499.68,361.93L500.17,361.46L500.14,360.65L500.52,359.93ZM503.7,350L503.7,350.95L503.18,350.93L503.36,350.03ZM497.91,351.71L497.69,352.17L497.21,352.44L496.49,352.5L496.3,351.7L497.16,351.24L497.25,351.8L497.61,351.8L497.66,351.4L498.24,350.96L498.42,351.48ZM500.35,358.4L500.38,357.81L500.8,358.08ZM499.47,381.19L499.28,380.83L499.6,380.24L500.17,380.52L500.08,380.88ZM497.81,385.43L497.18,385.29L497.46,384.95ZM495.66,371.18L495.94,370.66L496.45,370.73L495.9,371.54ZM503.08,348.83L503.07,350.19L502.94,350.5L502.11,351.76L501.58,352.23L500.96,352.07L501.36,350.9L501.38,350.47L501.14,350L501.37,349.77L500.97,348.64L500.96,348.01L501.36,347.68L502.06,347.86L502.3,348.1L502.2,348.78L502.55,349.55L502.72,348.78ZM500.62,366.42L500.26,366.86L500.06,366.08L500.7,366.05ZM500.52,371.81L500.81,373.14L500.64,373.54L500.06,373.5L500.36,373L500.08,372.71L500.17,371.89L499.2,370.73L498.23,371.27L498.07,371.14L498.76,370.37L498.89,369.97L499.54,370.05L499.93,370.63L500.06,371.37ZM500.88,382.13L500.86,382.52L500.54,382.74L500.21,383.29L499.57,383.67L498.95,384.64L498.63,384.58L498.6,383.97L498.72,383.29L499.28,382.67L500.35,381.95ZM495.93,376.3L496.35,376.96L495.92,377.51L495.7,376.61ZM503.43,371.1L504.06,371.51L504.2,371.86L504.05,372.34L503.64,372.47ZM497.79,360.46L497.52,360.65L497.36,359.74L497.16,359.66L497.25,358.94L497.75,359.48ZM499.54,316.88L499.93,317.83L499.93,318.59L500.21,319.38L500.9,320.5L502.46,322.01L502.9,323.07L503.23,323.22L504.13,325.07L504.71,325.82L505.28,326.12L505.71,326.53L506.18,326.5L506.78,327.43L508.31,328.59L508.89,328.81L509.25,329.17L509.35,329.72L510.16,330.91L510.57,331.22L511.14,331.9L511.11,332.39L511.35,333.24L511.92,333.87L511.91,335.63L512.37,337.68L512.36,338.98L512.18,339.35L512.4,340.3L512.18,340.7L511.42,340.85L511.27,341.07L511.27,341.95L511.15,342.83L511.9,343.4L512.11,343.92L511.94,344.3L512.17,345.41L512.67,346.08L512.71,346.84L513.25,347.17L513.52,347.75L513.94,347.91L514.39,348.4L515.02,348.75L515.2,349.26L515.16,349.83L514.94,350.39L515.37,351.48L515.52,352.62L515.84,353.15L516.03,354.24L515.73,354.59L515.96,354.87L516.68,354.63L516.98,354.79L516.63,356.19L517.08,356.45L517.35,356.84L517.09,357.91L517.34,358.4L518.07,358.95L517.77,360.14L516.79,361.38L515.96,361.48L515.63,361.83L515.63,362.67L515.47,363.15L514.82,363.95L514.64,364.73L514.02,365.46L513.67,366.28L513.09,367.08L512.7,368.25L512.21,368.52L511.91,369.05L510.94,369.72L510.66,370.39L509.97,370.23L509.73,370.6L509.82,371.31L509.62,371.98L509.1,372.19L508.73,372.11L508.26,372.69L507.76,372.77L506.95,373.75L506.71,374.61L507.08,375.14L507.26,375.96L506.94,377.39L506.7,378.18L506.49,378.36L506.12,379.33L506.04,379.84L505.37,380.74L504.67,382.22L504.07,382.93L503.78,382.39L503.69,380.85L503.39,380.1L503.67,379.35L503.88,378L503.67,377.24L503.44,376.85L503.52,376.03L503.45,375.48L503.04,374.52L502.99,373.4L503.21,373.15L503.65,373.31L504.51,372.68L505.06,371.58L504.63,371.49L505.24,370.8L505.62,370.87L506.25,370.66L506.27,369.8L506.03,369.41L506.38,369.08L506.17,368.39L505.78,368.35L505.55,367.94L506.4,367.62L506.52,366.95L506.85,366.14L506.43,365.29L506.36,364.85L506.06,364.58L506.29,363.85L507.05,363.72L506.79,362.81L506.46,362.87L506.35,362.35L506.52,362.14L506.52,361.46L506.76,360.72L507.6,360.77L507.67,360.37L506.97,359.66L506.66,359.65L506.25,360L506.13,360.51L505.89,360.7L504.93,360.06L504.88,359.57L505.46,358.76L505.74,357.95L505.2,358.13L504.14,358.13L504.52,357.76L505.38,357.71L505.97,357.13L506.35,357L506.35,356.42L506.13,355.89L505.64,355.73L505.24,355.34L505.2,354.6L506.21,353.84L506.04,353.34L505.61,353.41L504.76,353.97L504.33,353.79L504.02,353.34L504.18,352.84L504.64,352.61L505.79,352.37L506.06,352.21L506.09,351.73L505.46,351.44L504.87,350.88L505.01,350.13L506.11,349.95L505.74,349.55L505.32,349.52L505.1,349.17L505.64,348.01L505.67,347.63L505.98,347.16L505.59,347.01L505.05,346.31L505.46,346.01L505.24,344.94L504.67,344.4L504.93,343.87L504.59,342.98L504.67,342.21L504.52,340.86L503.52,340.04L503.26,339.58L502.92,338.09L502.47,337.22L502.63,337L502.02,336.03L501.67,335.87L501.41,335.13L500.92,334.45L500.96,334.06L500.23,333.88L500.17,333.46L500.35,332.77L500.27,331.91L500.08,331.19L500.08,330.05L499.47,329.23L499.38,329.83L499.64,330.19L499.39,331.08L499.64,331.82L499.38,333.64L499.56,334.71L499.25,335.47L499.28,336.22L498.74,335.63L499.02,335.31L499.14,334.2L498.4,334.06L498.14,333.14L498.49,332.87L498.4,331.73L498.5,331.39L498.13,331.09L497.87,329.95L498.31,329.05L498.47,328.33L498.23,327.68L497.61,326.86L496.99,325.7L496.77,324.19L495.96,322.29L496.11,321.94L495.6,321.37L495.84,320.66L496.34,320.51L496.72,319.94L496.43,319.47L496.19,320.09L495.31,320.57L495.04,320.3L494.69,318.77L494.43,318.38L494.76,318.14L495.42,317.07L495.68,315.93L495.81,315.74L496.67,315.66L497.24,315.48L497.55,315.62L498.04,316.45L498.6,316.88ZM500.88,342.21L501.38,342.45L501.02,342.8L500.52,342.58L500.23,341.77L500.19,340.64L500.53,340.7ZM503.97,359.11L504.14,359.27L504.23,360.11L504.11,360.49L504.14,361.51L503.88,362.05L503.52,362.27L503.06,362.12L502.76,362.26L502.37,361.64L502.46,361.37L502.11,360.96L501.99,360.42L501.99,359.47L502.14,359.24L502.72,359.33Z" class="land" id="MM-05" title="Tanintharyi"/>
    <path d="M454.08,300.44L454.15,301.11L453.98,301.78L453.66,302.41L453.02,303.24L451.71,303.87L451.72,304.19L451.18,304.75L450.82,304.66L450.48,303.83L450.57,303.41L451.81,302.63L452.24,301.81L453.43,300.45L453.83,300.13ZM456.22,304.33L456.39,305.06L455.91,306.14L455.57,306.21L454.89,305.94L455.33,305.4L455.95,304.34ZM471.54,298.35L472.17,298.92L472.18,299.26L471.06,300.43L469.81,300.61L468.97,301.06L468.71,301.48L468.16,301.47L467.33,302.77L467.33,303.41L466.99,304.1L465.17,306.05L464,306.99L463.54,307.22L462.43,307.13L462.14,306.9L462.07,305.58L462.33,305.39L462.48,304.75L462.79,304.46L463.13,303.63L463.18,302.9L462.92,302.86L462.84,303.63L462.45,304.13L462.26,304.72L461.67,305.18L461.24,304.97L461.32,305.96L461.17,306.28L460.67,306.39L460.29,306.24L460.05,305.86L459.92,304.84L460.2,303.33L459.82,303.63L459.69,303.08L459.85,302.51L460.21,302.07L460.67,301.9L460.18,301.43L459.34,302.42L459.37,303.81L459.14,305.48L458.87,306.02L458.4,306.16L458.12,306.58L457.63,306.58L456.61,306.33L456.61,305.98L457.02,305.73L456.48,305.24L456.37,303.93L457.01,303.19L456.75,302.87L456.45,303.42L455.69,303.93L455.15,305.02L454.84,305.34L454.04,305.37L453.85,304.93L453.3,304.47L454.61,303.65L454.64,303.14L453.47,304.17L452.85,304.28L452.8,303.93L453.14,303.47L453.83,302.82L454.3,301.79L454.36,300.61L454.12,299.97L454.85,298.34L454.64,297.07L454.71,296.75L454.19,296.58L454.36,297.76L454.36,298.54L453.99,299.09L453.84,299.62L453.27,299.48L452.79,299.75L452.19,299.57L452.22,300.42L452.08,300.88L451.42,302L451.07,302.42L450.2,302.76L449.93,303.47L448.97,303.75L448.64,303.74L448.25,302.82L448.32,301.3L448.62,299.76L448.59,298.75L448.88,298.22L449.07,297.16L449.07,296.2L449.82,296.33L450.05,295.66L449.77,295.28L450.22,294.89L450.25,294.01L450.44,293.28L450.74,292.84L450.71,292.27L450.43,291.51L451,291.31L451.54,290.66L451.44,289.3L451.85,288.31L451.45,287.91L451.54,287.43L452.13,287.71L452.48,287.46L452.15,287.06L452.15,286.28L452.93,285.79L452.98,285.16L452.87,283.74L453.75,284.37L454.52,284.57L455.27,284.97L455.85,283.71L455.98,281.57L456.75,280.58L456.93,280.13L457.18,278.5L456.62,277.46L456.83,276.5L456.81,275.11L457.04,274.03L456.88,272.72L456.33,271.63L457.28,270.9L457.99,270.9L458.58,271.44L459.26,271.6L459.52,271.37L459.84,270.27L460.41,270.09L460.97,270.62L462.13,272.14L463.36,273.35L463.74,274.64L464.23,276.03L464.16,277.06L464.75,277.64L464.63,278.88L464.23,279.32L464.33,280.19L464.78,281.14L465.09,281.43L466.8,282.14L467.37,282.68L468.05,283.75L467.9,284.36L467.53,285.13L467.33,285.94L467.54,287.2L468.1,287.88L468.68,288.39L469.38,289.55L469.51,290.3L470.03,290.89L470.08,291.26L469.67,292.1L469.67,292.42L470.1,293.46L469.85,294.42L469.53,294.67L469.81,295.18L469.88,296L469.15,296.99L469.59,297.58L470.08,297.97L471.07,298.07Z" class="land" id="MM-07" title="Ayeyarwady"/>
    <path d="M481.97,291.46L482.22,292.07L481.63,293.52L481.4,293.86L480.66,294.44L480.31,294.96L480.07,295.7L479.25,296.47L478.51,296.75L476.93,297.01L476.47,296.66L475.91,296.46L475.05,295.81L474.74,295.41L474.61,294.6L474.27,293.77L474.22,293.2L474.85,292.64L474.63,292.46L473.97,292.98L473.81,293.44L473.95,294.07L474.42,294.69L474.32,295.4L474.49,295.97L475.31,297.19L475.65,297.52L475.24,297.97L474.99,298.51L474.17,298.79L472.85,299.1L472.31,298.58L471.54,298.35L471.07,298.07L470.08,297.97L469.59,297.58L469.15,296.99L469.88,296L469.81,295.18L469.53,294.67L469.85,294.42L470.1,293.46L469.67,292.42L469.67,292.1L470.08,291.26L470.03,290.89L469.51,290.3L469.38,289.55L468.68,288.39L468.1,287.88L467.54,287.2L467.33,285.94L467.53,285.13L467.9,284.36L468.05,283.75L468.4,283.06L469.36,282.31L470.06,281.26L471.17,280.55L471.66,279.89L472.27,279.97L472.67,280.93L475,284.99L475.1,285.21L475.55,287.21L476.16,288.17L476.41,289L476.39,290.13L477.04,290.18L478.7,290.07L480.52,290.3Z" class="land" id="MM-06" title="Yangon"/>
    <path d="M482.68,283.82L482.43,284.55L481.89,284.66L482.28,285.14L483.04,285.71L483.05,286.15L482.25,287.12L482.33,287.71L483.04,289.09L483.05,289.65L482.74,290.26L482.64,290.86L482.07,290.85L482.33,291.31L481.97,291.46L480.52,290.3L478.7,290.07L477.04,290.18L476.39,290.13L476.41,289L476.16,288.17L475.55,287.21L475.1,285.21L475,284.99L472.67,280.93L472.27,279.97L471.66,279.89L471.17,280.55L470.06,281.26L469.36,282.31L468.4,283.06L468.05,283.75L467.37,282.68L466.8,282.14L465.09,281.43L464.78,281.14L464.33,280.19L464.23,279.32L464.63,278.88L464.75,277.64L464.16,277.06L464.23,276.03L463.74,274.64L463.36,273.35L462.13,272.14L460.97,270.62L460.41,270.09L459.52,269.4L459.25,268.86L459.46,267.43L459.74,267.02L460.53,266.75L461.07,266.06L461.18,265.55L460.86,264.25L462.02,263.38L462.17,262.43L462.39,262.15L463.33,261.96L464.01,261.12L464.4,260.92L465.45,260.64L466.22,260.67L467.92,260.42L469.07,260.57L469.11,259.99L469.41,259.63L469.42,258.4L469.04,257.83L468.74,256.57L469.5,256.84L469.82,256.82L470.2,256.4L470.84,256.38L471.61,256.73L472.15,256.81L472.9,257.2L473.4,256.86L473.6,256.31L474.9,256.45L476.45,256.49L476.77,256.92L476.77,257.45L477.24,257.96L477.27,258.77L477.75,259.54L477.92,260.1L478.24,260.54L477.77,260.99L478.14,261.81L478.91,262.67L479.71,263.33L480.13,263.96L479.39,264.59L479.26,265.04L479.59,265.71L479.24,266.33L479.84,267.62L480.36,268.28L480.86,268.01L481.79,268.35L483.29,267.73L483.97,268.5L484.06,269.44L483.81,270.53L484.28,271.43L484.97,271.89L485.25,272.57L485.59,272.19L485.86,272.36L486.02,272.95L486,273.68L486.81,274.41L486.59,275.6L485.94,276.69L485.9,277.08L486.82,279.09L486.48,280.02L486.57,280.51L487,281.61L486.94,282.44L487.21,282.63L486.77,283.1L486.03,283.43L485.69,283.44L485.56,282.85L485.3,282.58L484.64,282.29L484.22,281.8L483.68,281.67L482.79,281.86L482.7,282.3Z" class="land" id="MM-02" title="Bago"/>
    <path d="M456.33,271.63L455.97,271.21L455.39,270.16L455.55,269.21L455.17,268.27L455.28,267.74L455.68,267.36L455.75,267.02L455.5,266.61L454.94,266.09L454.86,265.74L455.82,265.44L455.92,265.12L455.72,264.67L455.17,263.94L454.81,263.67L454.34,262.56L453.73,261.87L452.91,261.55L452.63,260.99L452.44,259.89L452.76,259.68L452.4,258.73L451.21,257L451.09,256.74L450.32,252.92L449.78,251.73L449.73,251.32L449.97,250.34L449.85,249.93L448.97,249L448.81,248.57L448.85,247.71L448.23,246.95L447.56,245.29L445.56,241.93L445.14,241.66L444.44,241.49L444.32,241.26L444.32,239.59L445.27,240.23L445.85,240.29L446.95,240L447.33,239.72L446.72,238.57L446.51,237.66L446.09,236.77L446.15,236.07L446.97,234.58L447.09,233.95L447.05,233.04L446.92,232.6L445.91,231.81L446.3,231.06L446.53,229.45L447.17,228.04L447.17,227.39L446.33,225.97L445.64,224.55L445.65,223.15L445.77,222.73L446.24,222.21L445.83,220.95L446.15,220.03L446.19,219.42L445.83,217.55L446.16,216.63L445.86,216.14L446.01,215.61L445.85,214.18L445.89,213.42L445.64,212.2L446.38,212.12L447.01,211.78L447.45,212.89L448.34,213.91L449.29,215.78L449.36,216.23L448.81,217.46L448.68,218.01L448.85,219.62L449.15,220.16L450.05,220.11L450.26,220.53L450.78,220.87L450.91,221.79L450.65,224.08L451.39,224.74L451.87,224.87L452.37,224.51L453.31,224.14L454.37,224.3L456.42,224.02L457.42,224.23L459.11,224.28L459.86,223.95L460.39,224.09L461.1,225.17L461.56,225.64L461.63,226.34L462.32,226.89L462.84,227.07L462.61,228.06L462.69,229.07L462.13,229.24L460.89,230.37L460.26,231.15L459.43,231.32L459.05,231.13L458.46,231.39L458.25,232.03L457.27,232.37L456.41,232.41L456.11,232.66L455.86,233.5L455.87,234.11L456.08,235.27L456.05,236.13L457.19,237.01L457.78,237.16L458.45,237.13L459.08,237.42L459.52,237.91L459.21,239.12L459.37,239.96L459.25,240.54L459.32,241.14L459.64,241.77L460.01,241.86L460.23,241.07L460.82,240.51L461.37,240.31L462.19,240.21L463,239.63L464.1,239.28L464.54,238.85L465.47,238.74L466.21,238.91L466.47,239.31L466.59,240.4L467.68,242.41L467.98,243.6L468.19,244.08L467.97,244.83L468.12,245.41L468.68,246.62L468.77,247.1L469.1,247.34L468.74,248.39L468.49,248.59L468.55,249.13L468.29,249.53L468.53,249.82L468.63,250.57L468.95,251.46L468.65,251.72L468.32,252.54L468.44,252.95L467.78,254.58L467.86,255.57L468.11,256.23L468.74,256.57L469.04,257.83L469.42,258.4L469.41,259.63L469.11,259.99L469.07,260.57L467.92,260.42L466.22,260.67L465.45,260.64L464.4,260.92L464.01,261.12L463.33,261.96L462.39,262.15L462.17,262.43L462.02,263.38L460.86,264.25L461.18,265.55L461.07,266.06L460.53,266.75L459.74,267.02L459.46,267.43L459.25,268.86L459.52,269.4L460.41,270.09L459.84,270.27L459.52,271.37L459.26,271.6L458.58,271.44L457.99,270.9L457.28,270.9Z" class="land" id="MM-03" title="Magway"/>
    <path d="M468.04,245.09L467.97,244.83L468.19,244.08L467.98,243.6L467.68,242.41L466.59,240.4L466.47,239.31L466.21,238.91L465.47,238.74L464.54,238.85L464.1,239.28L463,239.63L462.19,240.21L461.37,240.31L460.82,240.51L460.23,241.07L460.01,241.86L459.64,241.77L459.32,241.14L459.25,240.54L459.37,239.96L459.21,239.12L459.52,237.91L459.08,237.42L458.45,237.13L457.78,237.16L457.19,237.01L456.05,236.13L456.08,235.27L455.87,234.11L455.86,233.5L456.11,232.66L456.41,232.41L457.27,232.37L458.25,232.03L458.46,231.39L459.05,231.13L459.43,231.32L460.26,231.15L460.89,230.37L462.13,229.24L462.69,229.07L462.61,228.06L462.84,227.07L463.33,225.7L463.53,225.54L465.16,225.18L465.67,225.25L466.1,225.7L466.9,226.82L468,226.67L468.38,226.83L469.2,225.73L469.63,224.07L469.95,223.58L470.74,223.57L471.58,223.08L471.97,222.25L471.93,221.72L471.41,220.4L471.16,218.63L471.12,217.88L471.48,217.03L470.85,216.18L470.86,215.07L471.19,214.27L471.12,213.98L470.24,212.43L470.04,211.79L470.16,211.34L470.73,211.19L470.86,210.93L470.99,205.54L470.75,204.62L470.15,202.87L470.15,202.39L470.61,201.36L471.41,200.37L471.76,199.49L472.37,198.87L472.93,198.97L473.05,199.43L472.91,200.17L473.1,200.41L473.8,200.69L475.05,200.25L475.44,200.6L475.16,201.2L475.26,201.68L474.52,202.22L473.94,203.33L473.8,204.73L473.36,205.37L473.49,205.9L473.97,206.53L474.05,207L474.67,207.38L475.78,207.45L477.58,207.15L477.92,206.86L478.46,207.26L478.89,207.18L478.86,207.76L479.44,208.06L480.04,208.11L480.55,208.62L479.89,209.54L479.56,210.19L479.05,210.36L478.4,210.23L477.38,210.73L476.61,210.58L475.93,210.85L474.75,210.77L473.94,211.34L474.12,211.95L474.39,212.03L474.39,212.67L475.05,213.61L475.11,214.3L475.61,214.85L475.4,216.1L475.66,216.51L476.5,216.56L476.89,217.14L476.94,217.69L477.48,218.53L477.47,219.36L478.67,219.93L480.08,220.42L480.59,220.45L480.92,220.74L481.2,221.89L481.58,222.33L481.83,222.91L482.27,223.54L482.29,224.06L482.6,224.31L482.71,225.33L482.24,225.29L481.81,224.97L481.46,225.37L480.83,225.64L480.39,225.57L479.36,226.78L478.82,227.23L478.2,227.34L477.25,227.83L475.75,228L475.58,228.8L475.03,229.13L475.21,230.36L475.58,232.04L476.13,233.07L475.99,233.25L475.03,233.17L474.41,233.41L474.19,233.71L474.25,234.22L474.02,234.66L474.09,235.38L474.63,235.84L476.53,236.53L476.85,236.47L477.45,236.89L477.83,236.65L478.51,237.08L478.9,237.62L478.68,238.05L478.64,238.67L477.84,238.69L477.2,239.29L477.16,239.82L477.78,240.85L478.37,241.28L478.39,242.03L477.71,242.25L477.75,242.7L477.45,243.43L477.59,244.21L478.21,245.81L478.25,246.42L477.84,246.75L477.79,246.4L477.07,246.04L476.63,245.52L475.83,244.93L474.79,244.82L473.99,245.13L473.64,245.71L472.83,245.44L471.44,245.22L470.87,245.42L470.53,246.25L469.49,246.01L469.39,245.61L468.91,244.97L468.68,245.18Z" class="land" id="MM-04" title="Mandalay"/>
  </g>
</svg>