<?xml version="1.0" encoding="UTF-8"?>
<svg xmlns="http://www.w3.org/2000/svg" width="456.58" height="262.3" viewBox="251.71 125.85 456.58 262.3" style="background-color:#000000">
  <!-- Created using SVG Map Generator: dojo.amcharts.com/svg-map-generator -->
  <style>
    .land { fill: #ffffff; stroke: #000000; stroke-width: 0.65; }
  </style>
  <g id="polygons">
    <path d="M426.01,236.57L426.68,239.3L423.38,243.81L417.02,243.96L413.92,247.79L411.61,254.24L415.31,260.09L421.64,263.99L423.69,267.14L429.36,267.36L433.39,271.63L437.41,271.26L441.11,274.92L447.9,275.75L449.48,277.61L448.16,281.2L450.67,282.4L447.77,285.01L444.01,284.57L441.83,287.18L442.62,288.9L447.57,288.82L460.24,290.09L462.02,291.89L467.63,291.43L474.95,294.34L472.84,298.86L468.29,300.72L465.25,299.83L455.88,301.17L456.81,304L458.98,304.22L460.24,309.35L458.92,314.79L461.89,316.13L466.77,314.27L466.68,318.03L463.68,318.96L462.92,321.9L451.29,316.01L439.56,315.44L439.77,320.41L437.1,324.06L434.56,324.73L432.37,321.52L427.47,317L420.2,317.3L414.49,315.78L413.13,314.01L402.93,313.98L403.67,308.82L400.67,300.28L394.98,301.76L387.22,302.99L382.39,299.04L378.14,296.63L373.27,292.35L368.77,291.1L365.97,287.56L360.53,287.34L357.89,291.68L355.71,291.59L351.07,288.79L345.16,283.35L341.41,282.47L333.04,277.53L333.16,275.47L330.11,271.88L324.04,274.12L324.08,269.94L319.64,264.95L318.26,260.13L312.03,258.85L310,257.57L311.73,253.77L316.24,250.09L321.28,244.81L323.93,240.6L324.9,242.62L329.33,245.03L331.17,247.25L344.84,256.92L349.12,260.69L348.51,263.07L351.32,266.13L353.58,265.9L358.33,268.91L358.68,270.29L363.24,272.64L364.93,269.04L367.7,267.07L376.01,268.41L378.03,267.65L384.88,272.01L386.7,267.83L382.58,262.39L384.13,260.32L382.54,256.99L387.85,250.24L393.39,247.11L394.89,245.44L393.39,242.64L396.83,240.21L396.08,236.82L394.3,235.51L396.95,232.67L398.77,228.56L400.91,228.79L406.68,231.48L415.17,231.56L426,236.57Z" class="land" id="NP-P5" title="Lumbini"/>
    <path d="M598.77,351.16L603.75,353.45L605.93,352.04L610.35,353.16L614.77,356.33L614.24,358.62L616.74,364.16L622.68,365.2L624.72,363.8L626.64,365.27L630.66,363.8L632.38,364.75L635.61,360.92L640.56,364.68L638.65,373.53L636.58,375.41L633.49,378.87L630.5,380.21L626.37,379.1L624.52,381.17L622.42,379.63L615.52,376.61L613.6,373.91L600.97,369.04L596.53,370.89L593.51,369.16L585.59,366.12L581.32,367.17L575.86,372.13L575.52,369.73L569.14,367.12L568.4,365.21L569.06,358.14L565.84,355.04L562.03,354.27L558.46,355.49L553.68,358.92L550.94,358.37L546.91,361.44L539.84,360.25L538.17,356.88L539.08,353.5L534.35,353.34L531.84,354.71L526.09,347.66L522.73,347.01L518.02,344.13L515.09,345.33L508.59,342.42L510.37,338.94L511.09,331.41L507.22,324.18L499.76,322.88L502.09,321.66L504.86,317.35L512.11,319.13L513.63,318.09L517.66,318.76L524.52,322.92L530.12,323.73L533.36,323.37L534.35,325.96L538.5,330.04L549.98,333.01L557.45,337.35L563.45,337.27L568.73,334.09L573.15,335.94L580.47,337.95L583.5,344.32L593.2,346.09Z" class="land" id="NP-P2" title="Madhesh"/>
    <path d="M636.58,375.41L638.65,373.53L640.56,364.68L635.61,360.92L632.38,364.75L630.66,363.8L626.64,365.27L624.72,363.8L622.68,365.2L616.74,364.16L614.24,358.62L614.77,356.33L610.35,353.16L605.93,352.04L603.75,353.45L598.77,351.16L605.06,346.53L603.81,342.46L605.72,334.82L601.36,331.04L596.94,331.63L597.6,328L596.35,322.95L598.38,317.86L600.55,316.97L604.25,313.03L605.5,310.2L608.34,307.82L611.31,307.52L614.08,305.21L615.86,299.63L614.87,295.6L615.2,289.41L613.17,287.57L611.98,284.59L612.73,281.41L616.54,277.87L619.44,278.2L621.87,276.31L625.2,277.09L625.51,279.67L628.88,282.03L632.28,282.61L637.49,286.04L640.92,285.94L648.01,292.02L646.96,293.81L652.61,294.43L654.64,292.85L658.71,293.69L662.89,292.29L665.35,294.12L670.7,291.54L673.64,294.87L678.01,292.85L679.88,294.61L685.74,286.38L693.55,289.74L695.47,288.15L699.98,291.1L704.53,291.35L705.64,296.23L703.37,299.86L703,303.72L697.26,314.68L698.56,317.83L697.17,322.55L698.25,324.39L695.6,331.78L695.62,335.3L694.18,338.5L697.21,343.08L702.16,346.35L701.53,348.73L702.68,352.35L704.48,354.11L705.05,362.98L702.06,371.93L700.62,373.09L700.74,378.66L699.54,381.33L695.28,385.5L694.34,383.14L690.8,381.56L688.45,378L686.42,380.5L683.17,378.81L681.76,382.15L676.9,380.5L675.45,383.15L671.78,383.09L669.72,381.55L664.9,380.24L660.79,381.54L658.96,383.59L654.02,384.32L653.75,382.05L647.96,382.34L644.35,379.46L643.22,371.13L640.09,374.4Z" class="land" id="NP-P1" title="Koshi"/>
    <path d="M310.15,221.96L307.88,222.72L310.07,226.83L312.73,228.61L313.78,228.88L315.48,227.73L319.17,228.86L321.15,231.72L323.93,240.6L321.28,244.81L316.24,250.09L311.73,253.77L310,257.57L306.42,254.3L300.89,253.6L300.32,250.84L297.53,251.28L294.49,249.58L293.61,247.01L289.8,246.37L287.92,242.3L285.86,242.49L281.34,239.12L279.04,240.65L279.83,247.49L277.01,245.56L275.15,242.45L272.07,242.9L268.74,238.71L265.38,236.92L258.23,230.75L254.36,229.29L254.52,224.64L257.54,220.42L258.36,214.89L261.11,211.11L264.13,211.95L265.98,210.33L265.48,206.13L267.3,204.57L268.34,199.01L266.61,197.66L264.47,191.17L270.37,186.66L270.26,184.5L272.81,183.21L274.26,178.75L272.65,176.96L271.49,171.84L275.04,168.25L278.27,168.83L281.83,164.6L282.48,160.71L285.61,158.11L288.52,158.31L291.99,155.66L293.37,152.25L299.21,147.44L298.83,144.78L300.76,141.95L302.61,144.47L310.03,143.06L312.63,146.51L312.34,152.36L314.66,155.05L318.99,155.53L321.15,152.4L323.37,154.26L327.87,155.64L329.5,154.32L332.78,156.53L333.13,163.58L335.96,161.15L343.52,159.02L351.25,163.35L350.65,168.93L348.56,169.26L347.84,173.55L346.33,174.59L346.18,179.28L347.76,181.14L352.05,182.96L350.9,187.29L352.1,192.04L351.57,194.22L348.92,196.39L348.99,198.59L346.02,199.91L343.23,199.6L341.38,196.25L339.26,196.31L333.09,202.25L334.41,204.09L334.03,208.44L338.05,212.53L333.4,215.36L331.36,218.15L331.38,222L333.8,225.95L339.99,233.26L338.62,236.39L336.19,236.39L335.76,232.31L333.08,229.49L331.1,225.61L326.88,226.6L318.36,225.71L312.03,221.94Z" class="land" id="NP-P7" title="Sudurpashchim"/>
    <path d="M453.7,207.78L455.99,210.76L453.49,213.14L452.25,216.24L452.25,220.2L445.88,228.14L444.86,233.38L437.34,236.94L433.2,238.26L428.72,237.56L426.51,236.05L426,236.57L415.17,231.56L406.68,231.48L400.91,228.79L398.77,228.56L396.95,232.67L394.3,235.51L396.08,236.82L396.83,240.21L393.39,242.64L394.89,245.44L393.39,247.11L387.85,250.24L382.54,256.99L384.13,260.32L382.58,262.39L386.7,267.83L384.88,272.01L378.03,267.65L376.01,268.41L367.7,267.07L364.93,269.04L363.24,272.64L358.68,270.29L358.33,268.91L353.58,265.9L351.32,266.13L348.51,263.07L349.12,260.69L344.84,256.92L331.17,247.25L329.33,245.03L324.9,242.62L323.93,240.6L321.15,231.72L319.17,228.86L315.48,227.73L313.78,228.88L312.73,228.61L310.07,226.83L307.88,222.72L310.15,221.96L312.03,221.94L318.36,225.71L326.88,226.6L331.1,225.61L333.08,229.49L335.76,232.31L336.19,236.39L338.62,236.39L339.99,233.26L333.8,225.95L331.38,222L331.36,218.15L333.4,215.36L338.05,212.53L334.03,208.44L334.41,204.09L333.09,202.25L339.26,196.31L341.38,196.25L343.23,199.6L346.02,199.91L348.99,198.59L348.92,196.39L351.57,194.22L352.1,192.04L350.9,187.29L352.05,182.96L347.76,181.14L346.18,179.28L346.33,174.59L347.84,173.55L348.56,169.26L350.65,168.93L351.25,163.35L343.52,159.02L335.96,161.15L333.13,163.58L332.78,156.53L329.5,154.32L327.87,155.64L323.37,154.26L321.15,152.4L321.6,146.9L325.71,146.42L328.57,142.34L329.75,136.6L328.55,133.53L329,130.02L333.71,129.03L335.72,131.41L338.91,132.34L339.41,128.78L342.48,128.5L349.35,131.46L359.88,133.43L362.76,134.64L369.63,134.75L371.21,141.4L373.41,143.43L373.36,150.24L386.31,155.37L389.99,155.69L394.58,159.15L395.98,161.71L401.24,166.42L403.97,171.43L409.75,175.07L413.36,175.21L419.06,177.68L422.08,179.81L425.73,180.29L431.06,182.81L431.96,186.72L435.84,188.04L436,190.93L439.69,194.46L441.65,198.04L442.38,201.55L444.79,203.02L448.26,207.27L452.29,209.16Z" class="land" id="NP-P6" title="Karnali"/>
    <path d="M466.68,318.03L466.77,314.27L461.89,316.13L458.92,314.79L460.24,309.35L458.98,304.22L456.81,304L455.88,301.17L465.25,299.83L468.29,300.72L472.84,298.86L474.95,294.34L467.63,291.43L462.02,291.89L460.24,290.09L447.57,288.82L442.62,288.9L441.83,287.18L444.01,284.57L447.77,285.01L450.67,282.4L448.16,281.2L449.48,277.61L447.9,275.75L441.11,274.92L437.41,271.26L433.39,271.63L429.36,267.36L423.69,267.14L421.64,263.99L415.31,260.09L411.61,254.24L413.92,247.79L417.02,243.96L423.38,243.81L426.68,239.3L426.01,236.57L426.51,236.05L428.72,237.56L433.2,238.26L437.34,236.94L444.86,233.38L445.88,228.14L452.25,220.2L452.25,216.24L453.49,213.14L455.99,210.76L453.7,207.78L457.72,204.31L461.4,204.79L466.45,200.5L471.79,199.83L478.62,202.33L480.87,204.74L487.04,219.47L485.73,225.84L495.45,229.22L496.95,230.72L498.17,236.02L501.78,237.74L506.92,236.33L510.59,237.66L512.27,241.64L511.59,244.37L518.83,245.75L520.88,247.18L527.33,246.31L532.68,240.74L536.02,240.26L539.44,244.04L537.37,252.42L534.23,254.14L535.53,259.31L535.05,261.9L531.25,264.01L530.01,267.6L528.11,268.83L527.18,274.46L523.92,276.65L520.91,275.99L519.54,277.6L518.06,283.65L513.58,288.37L514.21,290.87L516.9,294.9L512.05,296.33L509.25,292.58L505.4,292.09L501.6,295.02L496.9,296.04L498.88,298.76L497.45,302.68L494.81,304.53L492.49,303.22L483.68,307.51L480.92,311.33L469.84,312.26L471.74,313.95L469.84,317.63Z" class="land" id="NP-P4" title="Gandaki"/>
    <path d="M598.77,351.16L593.2,346.09L583.5,344.32L580.47,337.95L573.15,335.94L568.73,334.09L563.45,337.27L557.45,337.35L549.98,333.01L538.5,330.04L534.35,325.96L533.36,323.37L530.12,323.73L524.52,322.92L517.66,318.76L513.63,318.09L512.11,319.13L504.86,317.35L502.09,321.66L499.76,322.88L491.61,321.9L488.11,320.56L486.87,317.25L481.32,314.94L476.85,314.98L475.69,317.64L469.84,317.63L471.74,313.95L469.84,312.26L480.92,311.33L483.68,307.51L492.49,303.22L494.81,304.53L497.45,302.68L498.88,298.76L496.9,296.04L501.6,295.02L505.4,292.09L509.25,292.58L512.05,296.33L516.9,294.9L514.21,290.87L513.58,288.37L518.06,283.65L519.54,277.6L520.91,275.99L523.92,276.65L527.18,274.46L528.11,268.83L530.01,267.6L531.25,264.01L535.05,261.9L539.79,261.46L542.77,265.24L547.72,264.06L549.83,265.15L554.3,262.1L558.22,262.39L564.52,265.47L565.79,261.15L568.96,259.6L569.91,266.31L571.43,269.75L578.36,275.72L579.31,279.32L582.19,284.04L581.74,286.79L587.85,288.69L591.23,286.83L588.58,282.18L588.6,276.67L593.45,272.27L595.92,276.68L594.83,278.14L595.5,282.3L596.82,284.2L599.99,284.37L602.21,287.13L607.59,289.52L610.46,287.05L613.17,287.57L615.2,289.41L614.87,295.6L615.86,299.63L614.08,305.21L611.31,307.52L608.34,307.82L605.5,310.2L604.25,313.03L600.55,316.97L598.38,317.86L596.35,322.95L597.6,328L596.94,331.63L601.36,331.04L605.72,334.82L603.81,342.46L605.06,346.53Z" class="land" id="NP-P3" title="Bagmati"/>
  </g>
</svg>