<?xml version="1.0" encoding="UTF-8"?>
<svg xmlns="http://www.w3.org/2000/svg" width="224.97" height="262.16" viewBox="367.51 125.92 224.97 262.16" style="background-color:#000000">
  <!-- Created using SVG Map Generator: dojo.amcharts.com/svg-map-generator -->
  <style>
    .land { fill: #ffffff; stroke: #000000; stroke-width: 0.65; }
  </style>
  <g id="polygons">
    <path d="M405.95,332.55L406.39,332.77L406.76,333.25L407.23,334.21L407.32,336.97L407.29,337.24L407.14,336.85L405.92,336.99L405.61,336.78L405.22,335.82L404.56,334.95L403.27,334.05L402.46,333.98L401.89,334.39L401.14,333.8L400.77,333.15L400.31,332.92L400.03,333L399.75,333.46L398.81,334.22L398.46,334.36L397.59,334.45L395.83,334.22L394.75,335.65L394.33,335.5L393.84,334.95L392.82,334.36L392.58,334.04L392.8,333.54L392.52,333.19L393.04,332.62L393.16,331.84L393.01,331.02L395.1,330.17L395.16,329.31L396.46,328.7L396.96,328.79L397.55,329.16L398,329.61L398.53,329.63L399.28,329.38L400.07,329.42L400.64,329.56L401.39,329.98L402,330.44L402.4,331.16L403.47,331.93L404.37,332.39Z" class="land" id="KP-14" title="Nampho"/>
    <path d="M404.61,324.12L405.26,323.15L405.54,322.55L405.27,320.86L405.92,320.02L406.48,319.78L407.14,319.18L407.41,318.46L408.16,318.21L408.82,317.13L409.01,315.68L408.54,314.84L408.54,312.55L407.88,311.82L407.51,311.09L408.16,310.25L408.91,310.85L409.38,310.73L409.66,309.76L411.25,308.56L412.11,308.56L412.72,310.01L413.08,310.49L414.17,310.55L414.38,310.88L415.56,310.25L416.03,309.52L416.68,309.52L417.1,310.14L417.98,310.13L418.44,310.24L419.31,310.91L419.7,311.68L420.35,311.14L420.75,311.01L421.44,311.01L421.76,310.8L421.96,310.13L422.61,310.15L423.42,310.74L424.64,310.73L424.92,311.21L424.74,312.91L425.3,313.39L426.33,313.87L426.56,313.57L426.92,313.62L428.76,313.59L429.07,313.66L429.58,314.26L429.79,315.68L429.88,317.01L430.27,317.85L430.83,318.28L431.34,318.38L432.58,318.36L432.86,318.51L433.17,319.26L433.25,319.94L433.56,320.54L434.53,321.85L434.58,323.13L434.5,324.22L433.54,323.64L432.97,323.51L432.53,323.21L431.96,323.08L431.48,322.75L430.8,323.08L430.49,323.04L430.07,322.55L429.7,321.59L428.32,321.59L427.98,321.41L427.23,321.5L426.72,322.22L426.05,322.36L425.48,321.9L424.88,322.67L424.8,323.58L424.55,323.69L424.36,324.53L424.08,325.01L424.08,326.45L423.99,327.41L423.52,327.89L422.58,328.26L421.92,328.38L420.8,327.89L420.15,327.41L419.4,326.69L417.9,326.21L416.49,325.97L415.84,325.37L415.19,324.41L414.81,323.08L414.34,322.72L411.35,322.72L409.57,322.48L408.45,322.72L407.7,323.2L406.37,323.74L406.02,324.12L405.94,324.55Z" class="land" id="KP-01" title="Phyeongyang"/>
    <path d="M457.92,311.61L458.42,311.93L458.66,312.45L459.09,312.92L459.13,313.55L458.86,313.92L458.18,314.08L456.65,315.1L456.47,315.54L456.42,317.02L456.09,317.77L455.8,317.91L455.19,317.96L454.82,318.25L454.18,318.31L453.75,317.99L453.07,317.81L452.46,317.15L451.39,316.52L450.82,315.89L450.1,315.41L449.77,315.32L448.75,315.32L448.26,315.14L447.74,314.55L446.97,314.05L446.16,314.04L445.39,314.45L442.91,314.46L442.73,314.36L442.24,313.48L441.84,313.14L441.13,313.01L440.64,314.02L440.69,314.87L441.05,315.8L441.57,316.59L441.79,317.22L442.2,317.75L442.64,317.99L442.95,318.39L443.41,319.7L443.72,320.38L444.27,320.91L444.37,321.49L444.31,322.11L443.7,322.34L443.26,322.65L442.83,322.68L442.24,322.31L441.44,322.23L440.9,321.88L440.32,321.76L439.22,321L438.19,320.95L437.94,321.23L437.95,322.09L438.54,323.08L438.62,323.58L438.6,324.7L438.32,325.85L437.79,325.44L436.91,324.93L436.06,324.83L435.5,324.48L434.78,324.4L434.5,324.22L434.58,323.13L434.53,321.85L433.56,320.54L433.25,319.94L433.17,319.26L432.86,318.51L432.58,318.36L431.34,318.38L430.83,318.28L430.27,317.85L429.88,317.01L429.79,315.68L429.58,314.26L429.07,313.66L428.76,313.59L426.92,313.62L426.56,313.57L426.33,313.87L425.3,313.39L424.74,312.91L424.92,311.21L424.64,310.73L423.42,310.74L422.61,310.15L421.96,310.13L421.76,310.8L421.44,311.01L420.75,311.01L420.35,311.14L419.7,311.68L419.31,310.91L418.44,310.24L417.98,310.13L417.1,310.14L416.68,309.52L416.03,309.52L415.56,310.25L414.38,310.88L414.17,310.55L413.08,310.49L412.72,310.01L412.11,308.56L411.25,308.56L409.66,309.76L409.38,310.73L408.91,310.85L408.16,310.25L407.51,311.09L407.88,311.82L408.54,312.55L408.54,314.84L409.01,315.68L408.82,317.13L408.16,318.21L407.41,318.46L407.14,319.18L406.48,319.78L405.92,320.02L405.27,320.86L405.54,322.55L405.26,323.15L404.61,324.12L404.76,324.17L404.61,325.08L404.14,325.8L403.86,325.92L403.48,326.65L403.58,327.13L404.51,327.49L404.23,328.45L404.61,329.89L405.26,330.94L405.93,332.54L405.95,332.55L404.37,332.39L403.47,331.93L402.4,331.16L402,330.44L401.39,329.98L400.64,329.56L400.07,329.42L399.28,329.38L398.53,329.63L398,329.61L397.55,329.16L396.96,328.79L396.46,328.7L395.16,329.31L395.1,330.17L393.01,331.02L392.63,331.04L392.74,331.61L392.64,331.99L392.24,332.44L392.22,333L391.64,332.52L391.37,331.29L390.7,331.35L389.61,330.91L389.25,329.8L389.13,329.72L389.5,328.71L389.6,327.89L389.38,327.36L389.86,325.71L390.06,325.4L390.51,323.89L391.64,322.07L391.27,321.94L391.6,321L391.98,320.81L392.12,320.46L393.58,318.4L393.95,317.08L394.4,316.79L394.58,316.46L394.71,315.7L394.58,315.4L395,314.12L394.9,313.47L395.21,313.29L395.74,312.42L396.38,312.01L396.05,311.74L396.5,311.16L396.62,310.78L397.2,310.49L397.8,309.89L398.25,309.91L398.21,309.35L398.47,309.17L398.71,308.64L398.82,307.4L399.09,307.04L399.54,307.01L399.21,306.11L398.79,306.04L399.06,304.7L398.87,304.35L398.75,303.14L399.47,303.36L399.58,302.99L399.05,302.5L398.37,302.55L398.08,302.85L398.07,303.32L397.67,303.3L396.9,301.38L397.06,300.84L396.65,300.26L396.45,299.66L396.53,299.43L397.39,298.38L398.11,298L398.46,297.64L398.73,296.85L398.74,296.3L399.05,295.22L399.62,295L399.51,294.51L400.02,293.96L400.36,294.25L400.68,294.08L401.01,294.04L402.08,294.05L402.44,294.02L402.6,293.94L402.89,293.71L403.22,293.53L403.66,293.21L404.01,293.16L404.74,293.17L405.5,292.67L405.71,292.35L405.97,292.19L406.25,291.95L406.6,291.79L406.92,291.52L407.27,291.34L407.63,291.05L407.73,291.02L407.87,291.05L408.03,291.31L408.22,291.4L409.11,291.43L409.52,291.39L409.68,291.32L410.01,291.05L410.35,290.88L410.68,290.61L410.98,290.48L411.52,290.13L412.1,290.1L412.38,290.01L412.56,289.83L413.28,288.93L413.43,288.83L413.83,288.76L413.95,288.68L414.13,288.27L414.31,288.01L414.66,287.6L414.97,287.4L415.11,287.14L415.32,286.89L415.36,286.63L415.37,286.07L415.44,285.83L415.53,285.77L415.67,285.77L415.95,285.98L416.09,286L416.47,285.79L417.03,285.66L417.32,285.39L418.41,283.97L418.83,283.97L419.01,283.87L419.07,283.71L419.16,283.06L419.49,282.54L419.78,282.28L420.36,282.18L420.51,282.09L420.63,281.94L420.74,281.68L420.81,280.93L420.93,280.68L421.11,280.51L421.33,280.47L421.53,280.58L422.49,281.83L422.76,282.12L423.1,282.29L423.53,282.61L423.82,282.66L424.17,282.66L424.45,282.58L424.88,282.26L425.72,282.14L426.05,282.04L426.62,281.8L427.99,281.75L428.15,281.7L428.48,281.44L428.65,281.36L429.55,281.33L429.78,281.29L429.99,281.15L430.51,280.55L430.9,280.35L431.23,280.08L431.52,279.94L431.9,279.64L432.13,279.58L433.1,279.54L433.26,279.47L433.59,279.21L433.91,279.13L433.91,277.84L433.86,277.4L433.67,277.06L432.82,275.97L432.88,275.49L432.91,274.04L433.09,273.27L433.88,273.5L435.04,274.28L436.41,274.29L437.39,273.69L437.61,272.98L437.97,272.61L438.31,272.54L439.79,272.53L440.34,272.18L440.87,272.05L440.99,271.71L441.03,270.04L441.48,269.67L442.3,268.68L443.02,268.21L443.7,268.04L444.22,267.44L444.7,267.25L445.46,267.26L445.96,266.93L446.88,265.72L447.51,265.12L448.03,264.98L448.52,264.64L449.72,264.56L450.06,264.08L450.13,262.87L450.46,262.1L450.91,261.73L451.68,260.78L452.93,259.97L453.45,257.99L457.23,258L457.91,258.38L458.7,258.45L459.33,259.09L459.59,259.65L460.45,260.29L460.82,261.09L460.81,261.93L460.54,262.57L460.55,264.06L460.79,264.64L460.9,265.32L461.79,265.53L462.34,265.89L462.85,265.92L463.21,266.92L463.22,267.8L462.23,268.9L461.79,269.14L461.01,269.97L460.59,269.92L459.98,270.59L459.84,271.23L459.78,272.57L459.48,272.9L458.84,273.23L458.85,274.11L459.11,274.75L459.25,275.63L459.73,276.38L459.99,277.07L460.81,278.26L460.87,278.85L460.82,280.08L460.67,280.49L460,281.22L458.53,281.29L458.03,281.48L457.52,282.08L456.78,282.19L456.52,282.04L455.93,281.05L455.11,280.49L454.83,280.43L453.53,280.45L451.27,280.42L450.68,280.83L449.76,280.94L449.08,281.37L448.49,282.08L448.11,283.09L448.05,284.13L447.75,284.73L447.16,285.09L446.75,285.72L446.62,286.78L447.12,287.41L447.79,287.43L448.02,287.88L447.51,288.58L446.83,289.03L446.1,290.02L446.05,290.78L446.36,291.69L446.34,293.03L446.11,293.43L445.54,293.8L445.25,294.37L444.68,294.44L444.69,295.43L445.06,296.59L445.72,297.15L446.1,297.96L446.44,298.32L446.94,298.43L447.31,298.87L447.38,299.37L446.45,301.81L446.31,302.69L445.71,304.19L445.73,305.23L446.22,306.62L446.78,307.03L447.75,306.97L448.52,306.22L450,306.24L450.68,306.72L451.02,307.53L451.12,308.23L451.79,308.28L452.3,307.68L452.9,307.48L453.57,307.67L454.35,308.83L454.35,309.34L453.91,309.93L453.81,310.52L454.03,310.86L454.42,310.98L456.96,310.98Z" class="land" id="KP-02" title="Phyeongannamto"/>
    <path d="M380.27,292.03L380.76,292.04L381.13,292.42L381.54,292.44L381.65,292.99L380.99,292.88L380.94,293.37L381.36,293.54L381.32,294.84L381.72,294.7L381.95,295.14L381.47,295.63L380.92,295.75L380.48,296.19L380.07,296.33L379.71,296.9L379.17,297.37L377.99,297.65L377.97,297.29L378.25,296.66L378.69,296.93L379.05,296.6L379.1,296.05L378.59,295.73L379.09,295.5L379.24,295.17L378.8,294.77L378.43,295.09L378.12,295.02L378.38,294.4L378.81,294.59L379.05,294.08L379.59,293.9L379.79,293.63L379.62,292.94L380.05,292.9Z" class="land" id="KP-03" title="Phyeonganpukto"/>
    <path d="M458.4,194.31L458.72,194.76L458.81,195.75L459.45,197.32L459.45,197.75L459.03,198.24L458.14,198.38L457.23,199.27L456.88,200.11L456.66,200.95L455.66,200.96L455.06,200.58L454.32,200.5L453.86,201.07L453.71,201.59L453.92,203.4L454.36,204.42L455.16,205.41L455.56,205.48L457.52,205.44L457.79,205.91L457.27,207.32L457.6,208.26L458.44,209.47L459.12,211.32L459.28,212.29L459.82,212.99L460.45,213.14L460.94,213.47L461.52,213.57L461.79,213.98L461.24,214.89L461.25,215.74L461.5,216.31L461.59,217.08L461.84,217.65L461.89,218.73L462,219.06L462.62,219.76L463.19,219.78L463.66,219.61L464.79,220.96L465.18,221.28L465.69,221.13L466.6,221.13L467.46,221.55L469,221.57L469.32,221.47L470.15,220.39L470.37,219.75L472,218.51L472.86,218.4L473.34,218.06L474.26,218.48L474.81,219.03L475.02,219.97L475.01,222.69L474.97,223.36L474.96,224.66L474.26,225.93L473.7,226.37L472.58,227.06L471.59,228.31L471.35,228.73L471.3,229.26L471.32,232.02L471.93,233.62L471.9,234.78L471.39,235.79L471.23,236.62L470.56,237.12L469.3,237.22L468.72,237.66L468.51,238.15L468.08,238.49L467.28,238.56L466.02,239.44L465.46,240L465.26,240.44L465.19,241.58L464.62,242.97L464.52,243.79L464.26,244.18L463.93,244.28L462.28,244.31L461.8,244.66L461.22,244.79L460.49,245.26L459.92,245.9L459.44,246.19L458.82,246.87L457.55,247.02L457.2,247.51L457.11,248.16L456.89,248.66L456.87,249.13L457.14,249.83L457.11,251.22L456.46,251.75L456.01,251.98L455.98,252.23L455.1,252.78L454.9,253.03L454.51,254.05L454.4,254.75L454.15,255.1L454.07,256.19L453.53,257.52L453.45,257.99L452.93,259.97L451.68,260.78L450.91,261.73L450.46,262.1L450.13,262.87L450.06,264.08L449.72,264.56L448.52,264.64L448.03,264.98L447.51,265.12L446.88,265.72L445.96,266.93L445.46,267.26L444.7,267.25L444.22,267.44L443.7,268.04L443.02,268.21L442.3,268.68L441.48,269.67L441.03,270.04L440.99,271.71L440.87,272.05L440.34,272.18L439.79,272.53L438.31,272.54L437.97,272.61L437.61,272.98L437.39,273.69L436.41,274.29L435.04,274.28L433.88,273.5L433.09,273.27L432.73,272.77L432.59,272.64L432.43,272.57L431.06,272.54L430.85,272.45L430.52,272.18L430.3,272.12L428.36,272.1L428.15,272.02L427.77,271.73L427.29,271.65L427.14,271.58L426.52,270.89L426.18,270.73L425.84,270.46L425.51,270.3L425.32,270.14L424.34,268.87L423.97,268.49L423.61,267.91L423.24,267.44L423.11,267.34L422.81,267.22L422.47,266.94L422.13,266.78L422,266.68L419.95,264.01L419.43,263.51L419.2,263.68L419.04,263.74L418.68,263.78L418.33,263.76L418.14,263.66L417.94,263.17L417.82,263.02L417.66,262.92L417.38,262.87L416.13,262.88L415.73,262.95L415.3,263.27L414.73,263.4L414.3,263.73L414.03,263.77L413.76,263.73L413.33,263.4L412.99,263.23L412.42,262.59L411.98,262.34L411.65,262.07L411.36,261.94L410.97,261.64L410.35,261.5L409.8,260.97L409.54,260.88L408.95,260.59L408.42,259.98L408.28,259.87L407.9,259.67L407.36,259.06L406.89,258.81L406.74,258.63L406.65,258.46L406.61,258.26L406.61,257.9L406.66,257.62L406.74,257.45L406.94,257.25L407.19,257.12L407.26,256.97L407.26,256.72L407.11,256.13L406.31,255.77L405.92,255.47L405.43,255.35L405.32,255.24L405.28,255.01L405.28,253.43L405.35,253.15L405.57,252.64L405.64,251.51L405.74,251.26L406.21,250.56L406.35,250.12L406.56,249.69L406.6,249.49L406.59,249.28L406.53,249.09L406.11,248.53L406,248.29L405.95,248.01L405.94,247.14L405.87,246.89L405.73,246.72L405.61,246.67L405.48,246.72L405.25,246.91L405.05,246.98L404.27,247L403.94,246.93L403.68,246.68L403.16,245.98L402.99,245.69L402.87,245.35L402.77,245.24L402.56,245.12L402.22,244.84L401.89,244.68L401.55,244.4L400.92,244.26L400.58,243.99L400.24,243.82L399.86,243.52L399.45,243.43L399.3,242.85L399.36,242.38L400.32,242.46L400.77,242.25L400.74,241.36L401.22,240.21L402.19,239.87L403.27,239.91L403.87,239.72L404.19,239.02L404.57,237.65L405.18,237.27L406.29,238.02L407.75,237.77L408.38,237.89L409.23,237.7L409.2,237.18L408.96,236.92L407.9,236.3L407.49,235.96L407.71,235.15L408.62,234.54L409.3,233.94L410.05,233.15L410.82,232.9L411.6,232.49L411.96,231.95L412.36,231.79L413.02,232.03L413.35,232.54L413.38,232.94L413.93,232.94L414.98,232.43L415.54,231.95L416.03,231.26L416.7,231.5L417.27,231.14L417.41,232.04L418.25,232.41L418.98,232.18L419.48,231.34L419.9,231.53L420.75,231.56L421.32,231.2L421,230.59L419.81,230.71L419.73,230.54L420.09,229.87L420.53,229.71L421.58,229.92L422.03,229.42L422.15,228.66L423.11,228.01L423.14,227.24L422.9,226.71L423.77,226.4L424.18,225.89L424.02,225.21L424.31,224.98L424.77,225.01L425.32,223.96L424.58,223.31L424.47,222.95L424.71,222.46L426.32,222.32L426.63,222.09L427.17,221.26L428.08,220.81L429.02,219.76L429.65,219.51L430.93,218.7L431.05,218.45L430.87,217.83L430.97,217.57L431.57,217.29L431.69,215.61L433.36,214.74L433.72,213.57L433.6,212.79L434.25,212.19L435.05,211.59L435.24,210.97L436.04,210.38L436.22,209.92L436.72,209.31L437.52,208.87L438.42,208.56L438.78,208.85L438.23,209.52L438.83,209.7L439.43,209.37L439.74,208.89L439.22,208.11L438.73,207.13L438.71,206.02L438.79,205.59L439.45,204.58L439.66,203.97L440.12,203.28L440.4,203.21L440.25,202.34L440.51,202.1L440.65,201L441.07,200.44L441.48,200.2L441.75,199.69L441.71,199.17L441.23,198.16L441.02,197.35L440.98,196.76L441.6,196.85L442.03,195.98L442.65,195.35L442.54,194.89L442.76,194.19L443.29,194.52L443.85,194.67L445.3,194.37L445.5,194.19L445.62,193.51L446.23,192.89L446.73,192.67L446.91,192.21L446.74,191.71L446.01,191.59L445.31,190.96L445.06,190.3L445.8,190.02L446.96,190.54L447.95,191.3L448.31,191.87L448.51,192.75L448.97,192.93L449.17,192.14L449.53,191.21L449.64,190.51L450.04,190.29L450.18,190.69L450.15,191.32L450.45,191.57L450.94,191.28L451.14,190.34L452.09,188.57L452.43,188.11L452.87,187.81L454.07,187.32L454.64,187.7L454.72,188.3L454.16,188.61L454.28,189.1L455.75,189.12L455.86,189.49L456.66,189.71L456.99,190.62L458.34,190.51L458.48,190.89L458.65,192.36L458.82,192.56L459.41,192.53L459.57,192.8L459.17,193.24L458.59,193.11L458.03,193.89Z" class="land" id="KP-04" title="Jakangto"/>
    <path d="M386.04,374.6L385.82,375.15L385.5,375.51L385.47,375.84L385.11,376.27L384.16,375.99L384.49,375.62L385.21,375.47L385.44,375.14L385.26,374.6ZM373.62,374.1L374.14,374.22L374.48,374.63L374.12,374.76L374.15,375.56L373.84,376.11L373.42,376.08L372.87,376.27L372.43,375.64L372.97,374.71L373.58,374.37ZM409,381.81L409.25,382.01L410.21,381.83L410.11,382.56L409.45,383.16L409.02,383.17L408.95,382.72L409.09,382.37L408.8,382.15ZM409.92,385.4L409.87,385.01L410.44,384.92L410.36,385.43ZM373.63,367.9L374.22,368L374.55,368.21L374.63,368.77L375.14,369.17L374.5,369.52L373.87,369.26L373.27,369.28L373.34,369.85L373.62,370.41L373.46,370.92L373,371.16L372.71,370.8L371.78,370.86L371.15,370.75L370.83,369.89L370.74,369.38L370.19,368.95L370.16,368.6L370.45,368.15L371.21,368.61L371.9,368.41L372.36,368.06L372.8,367.92L373.06,368.13ZM407.91,338.29L407.97,340.17L408.29,341.18L408.31,342.73L408.8,343.04L408.96,343.35L409.05,344.2L409.79,344.71L409.65,345.34L409.66,348L409.77,348.31L410.49,349.23L410.57,349.97L409.73,350.67L410.04,351.14L410.76,351.16L411.16,351.36L411.55,351.9L411.49,352.24L411.13,352.7L411.39,353.29L412,353.31L412.3,352.97L412.93,352.92L413.3,353.2L413.64,353.13L413.71,352.67L414.28,352.46L414.62,352.84L414.76,353.26L415.24,353.79L415.49,354.96L415.97,355.04L416.83,354.91L417.01,355.89L417.53,356.26L417.71,356.74L418.18,357.45L418.18,358.41L418.37,359.12L418.67,359.31L420.61,359.29L421.27,358.65L421.66,358.43L422.27,358.44L423.01,358.93L423.17,359.2L423.58,359.14L424.26,358.26L424.94,357.61L425.5,357.67L426.08,357.96L426.85,357.48L427.52,356.78L428.16,356.42L428.92,356.28L431.1,356.28L431.46,356.33L433.24,357.49L433.82,357.62L434.26,357.92L434.79,358.06L435.01,358.36L436.11,359.02L435.88,359.87L436.34,360.25L436.6,360.87L436.59,361.65L436.16,361.74L435.95,361.4L435.61,360.32L435.13,360.91L434.41,361.21L433.91,362.42L433.95,362.75L434.29,362.99L434.84,362.79L434.88,363.47L434.63,364.24L434.86,364.85L434.89,365.4L434.7,366.71L435.15,367.31L435.15,367.92L434.68,368.63L434.79,369.11L434.59,369.69L434.56,370.51L434.67,370.77L435.23,370.89L435.73,371.19L435.51,372.13L435.05,372.52L434.67,372.25L433.89,372.68L433.26,372.65L432.15,373.1L431.46,373.6L430.86,374.16L430.03,374.51L429.43,374.13L428.64,374.07L427.84,373.2L427.82,373.67L428.12,373.77L428.18,374.17L426.35,374.68L425.8,375.14L425.84,375.52L426.29,376.5L426.53,377.23L426.34,377.67L426.29,378.62L426.14,379.01L425.51,379.09L423.95,378.6L423.66,378.41L423.97,377.51L422.99,376.68L423.05,376.09L422.71,376.09L422.44,375.49L422.55,375.33L422.13,373.87L421.74,374.46L421.8,374.98L421.53,375.34L421.3,374.71L420.74,373.85L420.18,373.38L419.92,372.72L419.61,372.9L419.57,373.47L420.03,374.37L419.67,374.91L419.25,375.19L417.22,375.81L417.18,375.32L416.91,374.8L417.01,374.16L416.68,373.97L416.7,373.46L416.27,372.98L414.9,373.57L414.36,372.31L415.43,371.87L415.67,371.47L415.06,371.29L414.61,370.78L414.28,370.14L414.51,369.84L414.33,369.44L413.73,369.8L413.08,369.38L412.94,368.98L413.1,368.47L413.46,367.96L413.48,367.47L412.96,367.24L412.83,367.57L412.11,367.32L411.97,366.89L411.51,366.38L410.08,366.4L410.09,366.91L410.28,367.13L410.18,367.63L409.54,367.49L409.52,366.57L409.2,366.68L408.76,365.98L408.56,366.11L407.83,366.06L407.56,366.29L406.64,365.94L405.76,365.3L405.67,365.9L404.82,365.88L405.46,366.81L405.58,367.14L406.24,367.63L406.44,367.92L406.8,367.79L407.7,368.74L408.74,367.87L408.91,367.55L409.24,367.54L409,368.29L409.79,369.28L409.46,370.27L409.57,370.9L410.21,370.4L410.28,370.87L410.62,371.02L409.5,371.95L408.64,372.13L407.55,371.95L407.49,372.23L407.07,372.74L407.35,373.02L407.27,373.33L407.47,373.77L406.6,373.8L406.86,374.4L406.71,374.81L406.97,375.19L406.41,375.92L406.24,376.41L406.86,376.39L406.36,377.26L406.66,377.94L406.22,378.22L406.03,377.94L405.67,378.06L405.31,377.55L405.26,377.1L404.72,377.1L404.54,376.53L404.08,377.03L404.16,377.89L403.34,377.79L403.27,377.5L402.85,377.28L402.87,376.63L402.73,376.12L402.4,376.41L402.19,377.16L402.33,377.33L401.81,378.37L401.82,379.12L401.33,379.62L399.12,379.43L398.85,379.57L397.85,379.66L397.9,380.22L397.38,380.08L396.93,381.23L397.38,381.53L397.15,381.88L396.61,381.84L396.53,381.04L395.63,380.22L395.81,380.13L396.11,379.48L396.58,378.77L397.24,378.49L397,377.99L397.57,377.63L397.81,377.32L397.2,377.2L397.37,376.72L397.94,376.46L398.18,376.81L398.49,376.74L398.68,376.08L400.13,375.11L400.49,374.62L400.73,374.95L401.25,374.88L401.81,375.08L402.37,375.65L402.4,375.18L401.48,374.18L401,373.13L401.79,372.74L401.97,372.31L401.16,372.46L400.68,372.08L400.62,371.26L400.24,371.36L400.28,371.76L400.06,372.03L399.53,371.99L399.12,372.35L399.28,372.56L399.87,372.45L400.16,372.98L400.66,373.37L400.6,374.05L400.25,374.41L399.53,374.2L399.77,373.65L398.76,373.69L398.28,373.46L397.9,373.87L397.2,374.31L397.18,374.87L397,375.33L396.59,375.48L396.14,375.34L395.87,376.02L395.41,376.09L395.11,376.35L394.9,375.93L395.36,375.13L394.56,375.26L394.26,375.06L393.85,375.38L392.82,375.46L392.67,375.2L393.2,374.77L393.77,374.59L394.11,374.3L394.41,373.76L395.46,372.86L395.19,372.67L395.03,372.12L394.55,371.79L393.27,371.71L393.03,371.49L393.1,370.8L392.71,370.74L392.69,371.14L392.9,371.64L392.61,371.79L392.2,372.36L391.61,372.48L391.18,373L390.02,373.23L389.63,372.79L389.22,373.25L388.74,373.18L388.11,372.79L387.33,372.76L386.88,372.22L387.01,371.82L386.62,371.48L385.26,371.71L384.94,371.31L384.49,371.23L384.41,370.68L384.81,369.92L384.29,369.94L383.93,370.59L383.58,370.68L383.33,370.4L383.62,370.07L383.74,369.49L384.04,368.92L384.41,369.03L385.3,368.97L385.41,368.64L386.03,368.36L386.35,367.91L387.14,367.95L387.29,368.92L387.83,368.8L388.09,368.92L389.26,368.69L389.5,368.38L389.2,368.01L389.19,367.5L388.65,367.52L387.96,366.17L388.26,365.71L388.2,365.12L388.37,364.81L388.79,365.2L390.37,364.54L390.99,364.51L391.55,364.72L392.15,365.42L392.29,365.97L392.63,365.86L392.75,365.37L392.64,364.97L393.05,364.41L393.7,363.87L393.79,363.37L393.16,363.58L392.32,363.53L391.56,362.97L391.11,362.97L390.62,362.77L389.68,363.14L388.79,362.94L387.92,363.16L387.35,363.63L386.36,363.67L385.75,364.1L385.34,363.66L384.29,363.87L383.5,363.31L382.23,362.82L381.54,362.07L380.84,361.62L380.05,361.47L379.63,361.89L378.89,362.31L378.31,362.35L377.88,362.21L377.13,362.61L375.98,362.75L374.67,362.4L372.69,361.74L372,361.64L371.65,361.34L371.82,360.9L372.44,360.72L372.98,360.74L374.17,360.93L375.69,359.67L376.08,359.09L376.41,358.88L376.86,359.46L377.27,359.14L376.88,358.83L377.28,358.61L377.91,358.02L378.82,356.94L379.21,356.32L379.74,356.18L379.84,356.66L380.28,357.26L380.62,357.38L380.94,357.17L381.16,357.71L380.9,357.95L381.12,358.48L381.95,358.2L381.74,357.79L382.59,357.41L382.5,357.03L383.76,357.08L383.83,356.72L383.1,356.71L382.81,356.54L382.12,356.84L381.86,357.18L381.11,357.25L380.94,356.89L380.62,357.04L380.01,356.32L379.37,355.23L379.42,354.73L379.66,354.1L379.82,352.73L379.5,352.12L379.15,351.8L379.01,351.33L379.37,351.18L379.75,350.53L380.6,349.71L380.97,348.91L381.4,348.28L381.99,346.7L382.31,346.81L382.86,345.78L382.94,346.68L383.11,347.14L383.49,346.41L383.41,345.97L384.1,345.49L384.71,344.57L384.9,343.85L384.59,342.73L384.17,342.47L383.97,342.06L384.25,340.57L383.75,340.52L383.03,340.12L383.91,339.69L384.91,340.38L385.48,340.04L386.07,340.71L386.12,341.24L386.8,341.42L387.2,340.8L387.4,340.11L388.4,339.8L389.09,339.24L388.85,338.88L389.05,338.33L388.42,337.46L388.34,336.82L388.16,336.49L388.9,335.98L389.24,336.41L389.46,337.3L389.74,337.4L389.76,337.85L390.28,338.17L390.97,337.81L390.72,337.06L391.18,337.26L391.68,337.26L392.73,336.81L394.48,336.45L395.26,336.81L396.17,336.81L397.01,336.36L397.71,336.09L398.56,335.55L399.4,335.82L400.31,335.91L400.73,335.73L401.15,335.28L402.21,335.64L403.05,336.36L403.19,337.17L403.61,337.17L403.96,336.63L404.52,336.45L405.58,337.44L406.28,337.8L406.84,338.34L407.26,338.42ZM383.93,335.93L384.45,336.54L384.39,336.82L385.05,336.87L385.03,337.22L384.59,337.91L383.93,338.12L383.5,338.02L383.82,337.53L383.71,337.09L383.96,336.8ZM377.47,341.03L378.1,341.6L378.72,341.82L379.05,342.2L379.68,342.13L379.79,342.71L380.23,342.92L380.28,343.37L380.58,343.86L379.5,344.15L378.57,343.54L377.65,343.06L376.94,343.29L376.6,343.55L376.4,343.19L376.48,342.71L376.19,342.23L377.22,342.2L377.71,341.55ZM417.7,377.06L417.37,377.79L416.49,377.76L416.7,377.37L417.04,377.57ZM375.93,377.36L375.93,377.89L375.38,377.76ZM396.58,377.66L396.54,378.01L395.11,379.77L394.03,380.25L393.8,380.74L393.09,381.18L392.63,381.18L391.91,380.99L391.99,380.76L392.74,380.38L393.14,379.78L393.47,379.65L393.29,379.2L394.46,378.64L394.92,378.32L395.42,378.32L395.98,377.91ZM391.14,375.34L391.14,375.89L390.5,376.57L389.75,376.83L389.41,376.41L390.23,375.7ZM397.63,375.09L397.72,375.39L397.24,376.11L396.55,376.7L396.53,376.35L396.87,376.16ZM412.34,375.79L412.42,376.22L412.18,376.52L411.78,376.4Z" class="land" id="KP-05" title="Hwanghainamto"/>
    <path d="M405.93,332.54L405.26,330.94L404.61,329.89L404.23,328.45L404.51,327.49L403.58,327.13L403.48,326.65L403.86,325.92L404.14,325.8L404.61,325.08L404.76,324.17L405.94,324.55L406.02,324.12L406.37,323.74L407.7,323.2L408.45,322.72L409.57,322.48L411.35,322.72L414.34,322.72L414.81,323.08L415.19,324.41L415.84,325.37L416.49,325.97L417.9,326.21L419.4,326.69L420.15,327.41L420.8,327.89L421.92,328.38L422.58,328.26L423.52,327.89L423.99,327.41L424.08,326.45L424.08,325.01L424.36,324.53L424.55,323.69L424.8,323.58L424.88,322.67L425.48,321.9L426.05,322.36L426.72,322.22L427.23,321.5L427.98,321.41L428.32,321.59L429.7,321.59L430.07,322.55L430.49,323.04L430.8,323.08L431.48,322.75L431.96,323.08L432.53,323.21L432.97,323.51L433.54,323.64L434.5,324.22L434.78,324.4L435.5,324.48L436.06,324.83L436.91,324.93L437.79,325.44L438.32,325.85L438.6,324.7L438.62,323.58L438.54,323.08L437.95,322.09L437.94,321.23L438.19,320.95L439.22,321L440.32,321.76L440.9,321.88L441.44,322.23L442.24,322.31L442.83,322.68L443.26,322.65L443.7,322.34L444.31,322.11L444.37,321.49L444.27,320.91L443.72,320.38L443.41,319.7L442.95,318.39L442.64,317.99L442.2,317.75L441.79,317.22L441.57,316.59L441.05,315.8L440.69,314.87L440.64,314.02L441.13,313.01L441.84,313.14L442.24,313.48L442.73,314.36L442.91,314.46L445.39,314.45L446.16,314.04L446.97,314.05L447.74,314.55L448.26,315.14L448.75,315.32L449.77,315.32L450.1,315.41L450.82,315.89L451.39,316.52L452.46,317.15L453.07,317.81L453.75,317.99L454.18,318.31L454.82,318.25L455.19,317.96L455.8,317.91L455.79,318.85L456.07,319.58L457.24,321.06L457.44,321.4L457.49,322.67L457.39,323.21L456.19,324.7L455.44,325.21L455.04,325.28L453.29,325.28L452.84,325.59L452.26,326.35L452.1,326.74L452.11,327.7L452.39,328.4L452.38,329.46L452.18,329.71L452.06,330.81L451.68,331.79L451.18,332.53L450.95,333.19L450.29,333.65L449.93,334.09L449.29,335.73L448.46,336.81L448.16,336.94L446.77,336.98L446.34,337.29L445.66,337.46L444.93,338.24L445.09,339L445.42,339.23L446.36,340.38L446.34,341.51L446.03,342.43L446.03,344.43L446.49,345.39L446.75,346.38L447.11,347.29L447.6,348.03L447.88,348.75L448.92,350.12L449.15,350.74L450.13,351.25L450.84,352.36L451.39,352.36L451.97,351.71L452.47,351.52L452.77,351.81L452.77,352.6L452.44,353.18L452.02,353.37L451.92,353.92L452.56,354.7L452.66,354.98L452.26,355.63L452.09,356.13L452.09,356.69L452.5,357.59L452.96,357.97L453.78,357.97L454.09,358.19L454.17,358.68L454.89,359.63L455.36,359.9L455.71,360.49L455.55,360.83L454.5,361.38L453.79,362.01L452.84,362.66L452.19,363.51L451.8,365.1L451.55,365.63L450.97,366.38L449.74,367.57L448.92,368.7L448.39,368.96L447.38,368.95L446.11,369.47L445.37,369.41L445.26,369.74L445.71,371.3L445.52,371.91L445.56,372.99L445.49,373.7L445.11,374.76L445.05,375.41L444.74,376.69L444.5,377.16L443.54,377.16L443.11,377.36L442.36,378.11L441.51,378.07L440.99,377.91L440.22,377.29L440.35,376.62L439.53,376.02L438.96,375.81L438.4,375.46L437.64,375.56L437.46,374.86L436.97,374.34L436.31,374.03L435.83,373.94L435.71,373.56L435.12,372.81L435.05,372.52L435.51,372.13L435.73,371.19L435.23,370.89L434.67,370.77L434.56,370.51L434.59,369.69L434.79,369.11L434.68,368.63L435.15,367.92L435.15,367.31L434.7,366.71L434.89,365.4L434.86,364.85L434.63,364.24L434.88,363.47L434.84,362.79L434.29,362.99L433.95,362.75L433.91,362.42L434.41,361.21L435.13,360.91L435.61,360.32L435.95,361.4L436.16,361.74L436.59,361.65L436.6,360.87L436.34,360.25L435.88,359.87L436.11,359.02L435.01,358.36L434.79,358.06L434.26,357.92L433.82,357.62L433.24,357.49L431.46,356.33L431.1,356.28L428.92,356.28L428.16,356.42L427.52,356.78L426.85,357.48L426.08,357.96L425.5,357.67L424.94,357.61L424.26,358.26L423.58,359.14L423.17,359.2L423.01,358.93L422.27,358.44L421.66,358.43L421.27,358.65L420.61,359.29L418.67,359.31L418.37,359.12L418.18,358.41L418.18,357.45L417.71,356.74L417.53,356.26L417.01,355.89L416.83,354.91L415.97,355.04L415.49,354.96L415.24,353.79L414.76,353.26L414.62,352.84L414.28,352.46L413.71,352.67L413.64,353.13L413.3,353.2L412.93,352.92L412.3,352.97L412,353.31L411.39,353.29L411.13,352.7L411.49,352.24L411.55,351.9L411.16,351.36L410.76,351.16L410.04,351.14L409.73,350.67L410.57,349.97L410.49,349.23L409.77,348.31L409.66,348L409.65,345.34L409.79,344.71L409.05,344.2L408.96,343.35L408.8,343.04L408.31,342.73L408.29,341.18L407.97,340.17L407.91,338.29L407.29,337.24L407.32,336.97L407.23,334.21L406.76,333.25L406.39,332.77Z" class="land" id="KP-06" title="Hwanghaipukto"/>
    <path d="M457.92,311.61L458.11,310.95L458.08,310.48L457.53,309.22L457.55,308.74L457.79,308.44L458.52,307.99L459.43,307.88L460.11,307.41L460.19,307.1L460.15,306.08L460.04,305.63L460.48,304.78L460.55,303.34L461.03,302.47L461.49,301.93L461.91,301.82L465.04,301.81L466.24,301.11L466.86,301.82L468.71,301.85L470.07,302.1L470.45,302.26L471.8,301.73L472.57,302.08L472.89,301.86L473.19,302.43L472.88,302.81L472.25,302.95L471.87,302.43L471.58,302.4L471.17,302.99L471.18,303.38L470.29,303.54L470.72,304.11L471.4,304.23L471.56,303.92L471.96,303.87L471.99,304.35L472.66,303.98L472.59,303.58L472.86,303.28L473.32,304.01L473.7,304.12L473.93,304.54L473.57,305.65L473.14,305.14L472.67,305.19L472.16,305.46L472.1,305.79L472.82,306.52L472.54,306.93L472.25,306.88L471.65,306.36L471.87,305.93L471.44,305.31L471.39,304.87L470.78,305.19L471.26,305.54L471.41,306.06L470.91,306.58L470.52,307.28L470.37,307.94L470.1,308.16L469.92,308.86L470,310.13L470.32,311.02L471.06,311.82L471.51,311.92L471.88,312.57L472.89,313.2L472.95,313.52L473.75,313.55L473.98,313.33L473.96,312.24L473.64,311.76L473.87,311.54L474.25,311.69L474.21,312.33L474.56,313.12L474.88,313.53L475.67,314.25L476.27,314.41L476.88,313.78L477.76,314.12L478.55,313.7L478.71,313.47L479.1,314.29L479.65,314.83L480.22,315.63L480.79,316.09L481.53,316.06L481.9,315.53L482.58,315.82L483.03,315.61L483.62,314.92L483.96,315.09L484.31,315.71L485.51,318.15L486.45,319.66L487.24,320.71L487.74,321.1L487.48,321.43L487.74,321.84L488.08,321.94L488.35,321.65L488.65,322.24L488.33,322.49L488.49,322.8L489.33,322.8L489.44,323.3L490.29,324.44L490.74,324.7L490.87,324.44L491.39,324.64L491.24,325.22L492.25,326.6L492.8,327.04L493.39,327.66L493.86,327.65L494.74,328.04L495.31,327.65L495.53,328.07L496.24,328.31L496.85,329.12L497.34,329.13L498.07,330.01L498.09,330.68L498.28,330.91L499.08,331.33L499.24,331.99L500.37,332.98L499.66,333.2L499.81,333.85L500.31,334.05L500.66,333.27L502.2,333.34L502.73,333L502.45,332.53L502.63,332.29L503.22,332.49L503.02,333.39L503.44,333.59L504.19,334.33L504.63,334.17L504.74,334.69L505.16,334.94L505.45,335.39L506.11,335.46L506.08,335.85L505.74,336.22L505.79,336.96L506.07,338.06L505.87,338.47L505.98,338.97L504.6,339.88L504.38,340.16L504.38,341.7L504.53,342.91L504.55,343.89L504.19,344.87L504.27,345.43L503.44,347.2L502,348.62L501.33,349.06L500.83,349.87L500.19,350.22L499.75,350.66L499.35,350.82L498.89,351.36L497.96,352.1L497.17,351.98L496.95,352.06L496.22,352.78L495.81,353L494.67,353.18L493.88,352.9L493,352.87L492.2,352.62L491.52,352.79L489.29,352.09L488.93,352.19L488.61,352.77L488.3,352.95L487.61,353.02L486.94,353.39L486.67,353.27L485.9,352.43L485.62,351.74L485.1,351.67L484.41,352.14L483.63,352.08L482.67,352.14L482.2,352.03L481.45,352.53L480.43,352.27L479.55,352.47L478.97,352.43L478.53,352L477.98,351.88L476.85,352.27L475.22,353.36L474.82,353.51L473.97,352.96L473.12,352.64L472.69,352.76L471.65,352.08L470.89,351.93L470.5,352.01L469.78,352.41L468.98,352.4L468.54,352.77L467.89,352.66L467.32,352.81L466.7,352.35L465.39,352.15L464.25,352.83L462.83,353.32L461.97,353.09L461.54,353.18L460.37,353.98L460.05,354.4L459.48,354.65L458.83,355.27L458.37,355.51L457.35,356.3L457.18,356.74L455.86,358.03L455.46,358.92L455.36,359.9L454.89,359.63L454.17,358.68L454.09,358.19L453.78,357.97L452.96,357.97L452.5,357.59L452.09,356.69L452.09,356.13L452.26,355.63L452.66,354.98L452.56,354.7L451.92,353.92L452.02,353.37L452.44,353.18L452.77,352.6L452.77,351.81L452.47,351.52L451.97,351.71L451.39,352.36L450.84,352.36L450.13,351.25L449.15,350.74L448.92,350.12L447.88,348.75L447.6,348.03L447.11,347.29L446.75,346.38L446.49,345.39L446.03,344.43L446.03,342.43L446.34,341.51L446.36,340.38L445.42,339.23L445.09,339L444.93,338.24L445.66,337.46L446.34,337.29L446.77,336.98L448.16,336.94L448.46,336.81L449.29,335.73L449.93,334.09L450.29,333.65L450.95,333.19L451.18,332.53L451.68,331.79L452.06,330.81L452.18,329.71L452.38,329.46L452.39,328.4L452.11,327.7L452.1,326.74L452.26,326.35L452.84,325.59L453.29,325.28L455.04,325.28L455.44,325.21L456.19,324.7L457.39,323.21L457.49,322.67L457.44,321.4L457.24,321.06L456.07,319.58L455.79,318.85L455.8,317.91L456.09,317.77L456.42,317.02L456.47,315.54L456.65,315.1L458.18,314.08L458.86,313.92L459.13,313.55L459.09,312.92L458.66,312.45L458.42,311.93Z" class="land" id="KP-07" title="Kangweonto"/>
    <path d="M472.57,302.08L471.8,301.73L470.45,302.26L470.07,302.1L468.71,301.85L466.86,301.82L466.24,301.11L465.04,301.81L461.91,301.82L461.49,301.93L461.03,302.47L460.55,303.34L460.48,304.78L460.04,305.63L460.15,306.08L460.19,307.1L460.11,307.41L459.43,307.88L458.52,307.99L457.79,308.44L457.55,308.74L457.53,309.22L458.08,310.48L458.11,310.95L457.92,311.61L456.96,310.98L454.42,310.98L454.03,310.86L453.81,310.52L453.91,309.93L454.35,309.34L454.35,308.83L453.57,307.67L452.9,307.48L452.3,307.68L451.79,308.28L451.12,308.23L451.02,307.53L450.68,306.72L450,306.24L448.52,306.22L447.75,306.97L446.78,307.03L446.22,306.62L445.73,305.23L445.71,304.19L446.31,302.69L446.45,301.81L447.38,299.37L447.31,298.87L446.94,298.43L446.44,298.32L446.1,297.96L445.72,297.15L445.06,296.59L444.69,295.43L444.68,294.44L445.25,294.37L445.54,293.8L446.11,293.43L446.34,293.03L446.36,291.69L446.05,290.78L446.1,290.02L446.83,289.03L447.51,288.58L448.02,287.88L447.79,287.43L447.12,287.41L446.62,286.78L446.75,285.72L447.16,285.09L447.75,284.73L448.05,284.13L448.11,283.09L448.49,282.08L449.08,281.37L449.76,280.94L450.68,280.83L451.27,280.42L453.53,280.45L454.83,280.43L455.11,280.49L455.93,281.05L456.52,282.04L456.78,282.19L457.52,282.08L458.03,281.48L458.53,281.29L460,281.22L460.67,280.49L460.82,280.08L460.87,278.85L460.81,278.26L459.99,277.07L459.73,276.38L459.25,275.63L459.11,274.75L458.85,274.11L458.84,273.23L459.48,272.9L459.78,272.57L459.84,271.23L459.98,270.59L460.59,269.92L461.01,269.97L461.79,269.14L462.23,268.9L463.22,267.8L463.21,266.92L462.85,265.92L462.34,265.89L461.79,265.53L460.9,265.32L460.79,264.64L460.55,264.06L460.54,262.57L460.81,261.93L460.82,261.09L460.45,260.29L459.59,259.65L459.33,259.09L458.7,258.45L457.91,258.38L457.23,258L453.45,257.99L453.53,257.52L454.07,256.19L454.15,255.1L454.4,254.75L454.51,254.05L454.9,253.03L455.1,252.78L455.98,252.23L456.01,251.98L456.46,251.75L457.11,251.22L457.14,249.83L456.87,249.13L456.89,248.66L457.11,248.16L457.2,247.51L457.55,247.02L458.82,246.87L459.44,246.19L459.92,245.9L460.49,245.26L461.22,244.79L461.8,244.66L462.28,244.31L463.93,244.28L464.26,244.18L464.52,243.79L464.62,242.97L465.19,241.58L465.26,240.44L465.46,240L466.02,239.44L467.28,238.56L468.08,238.49L468.51,238.15L468.72,237.66L469.3,237.22L470.56,237.12L471.23,236.62L471.39,235.79L471.9,234.78L471.93,233.62L471.32,232.02L471.3,229.26L471.35,228.73L471.59,228.31L472.58,227.06L473.7,226.37L474.26,225.93L474.96,224.66L474.97,223.36L478.33,223.35L478.64,223.3L479.34,222.75L479.45,222.04L480.01,220.63L480.11,219.92L480.47,219.42L481.61,219.35L482.11,219.69L482.99,219.77L483.53,219.71L484.18,220.16L484.93,220.22L485.28,220.44L485.45,221.11L485.43,222.72L485.17,223.37L485.08,224.13L484.84,224.72L484.71,225.48L484.34,225.96L483.7,226.42L482.94,226.44L482.32,226.18L481.79,226.59L481.84,227.03L482.59,228.02L482.75,228.41L482.73,229.05L482.29,230.19L481.78,230.82L481.43,231L479.76,232.15L478.68,232.79L478.37,233.47L478.43,234.46L478.91,235.2L479.06,235.84L479.05,236.83L479.15,237.26L479.56,237.81L480.02,238.18L480.48,239.4L480.96,240.16L481.24,240.91L481.49,241.11L482.21,241.15L482.43,241.48L482.46,242.37L482.73,243.09L482.76,244.45L482.89,244.86L483.56,245.56L484.98,245.5L484.79,246.71L484.78,248.63L484.73,249.09L484.02,250.11L483.5,250.55L483.12,251.43L483.09,251.89L483.09,254.47L483.98,254.4L484.52,254.04L485.15,253.88L485.71,253.44L486.1,252.75L488.43,251.26L488.62,251L489.9,250.31L490.74,249.21L491.31,247.63L492.21,246.51L493.13,246.4L493.56,246.08L494.14,245.96L494.67,245.59L496.33,245.56L496.69,245.74L497.51,246.76L498.22,247.24L499.15,247.35L499.63,247.24L500.5,246.39L500.85,245.69L502.14,244L502.7,243.66L503.5,242.66L503.8,242.53L504.59,241.71L505.26,241.15L505.39,240.26L505.62,239.69L505.72,238.93L506.05,238.04L506.28,237.69L506.78,237.41L506.97,237.09L507.07,235.81L507.67,234.29L507.56,233.04L507.86,232.46L508.79,231.23L509.04,230.42L509.04,228.62L508.89,228.02L510.54,226.93L511.38,227.18L511.57,227.68L512.41,227.92L512.88,227.68L513.53,226.93L514.28,226.68L514.84,226.68L515.4,227.68L515.87,228.3L516.9,228.55L518.03,228.17L519.06,226.43L519.15,225.45L519.24,222.84L518.59,222.46L518.03,222.34L517.13,221.98L517.2,221.04L517.6,220.02L518.05,219.41L518.52,219.04L518.82,218.44L520.14,218.02L520.62,218.36L522.02,218.34L522.6,217.95L523.74,217.97L524.27,218.33L524.89,218.48L527.25,220.1L527.54,220.23L528.17,220.92L528.91,221.51L529.2,222.42L529.22,223.19L528.95,223.84L528.95,224.98L529.24,225.7L529.17,226.32L528.84,226.55L528.58,227.11L528.57,227.75L527.82,228.34L527.3,229.05L527.01,230.11L527.84,232.26L527.15,232.79L526.93,233.12L526.9,234.62L527.37,235.48L528.03,236.37L528.24,237.12L528.25,238.64L528.53,239.42L528.68,240.31L529.51,241.4L531.16,242.48L531.54,243.25L531.55,243.73L531.27,244.44L531.31,245.38L531.87,245.59L533.86,248.69L533.65,249.07L533.27,249.31L533.34,249.76L532.68,250.76L532.4,250.78L532.04,251.25L531.54,251.4L531.18,251.05L530.49,251.07L529.83,251.41L529.5,251.9L528.23,252.13L527.68,252.65L527.18,253.38L526.42,254.08L526.17,254.18L525.66,255.13L525.48,255.06L524.77,255.81L524.72,256.05L523.36,256.34L522.63,256.83L522.28,257.22L521.39,257.37L520.91,257.19L520.36,257.57L520.25,258L519.35,257.97L518.12,258.15L517.47,258.71L517.19,259.38L516.83,259.3L516.7,258.81L515.97,259.06L515.42,259.79L515.28,260.51L515.29,261.19L515.77,261.34L515.79,261.69L516.21,261.7L516.71,262.09L516.73,262.51L517.22,262.7L516.39,265.01L516.02,265.03L515.84,265.53L515.37,265.52L514.74,265.12L514.29,265.15L513.74,265.71L513.27,265.78L512.8,266.07L512.47,266.47L512.39,266.89L511.72,267.58L511.29,267.64L510.95,267.42L510.47,267.73L509.91,267.64L509.67,268.29L509.36,268.79L509.03,268.68L508.11,269.17L507.46,269.02L507.09,269.25L506.33,269.33L505.83,269.72L505.05,271.02L504.81,271.84L504.82,272.46L504.52,272.64L503.77,272.34L503.33,271.64L503.31,271.05L502.62,270.36L501.91,270.45L501.38,270.8L501.46,271.21L501.44,272.41L501.17,272.65L499.07,272.68L498.6,273.58L498.24,273.51L498.56,272.82L498.24,272.44L497.24,272.18L496.69,272.34L496.17,272.02L495.46,272.06L495.16,272.41L494.6,272.09L494.31,271.53L493.85,271.52L492.76,271.14L492.3,271.53L492.31,272.38L491.85,273.23L491.53,273.35L490.77,274.52L490.17,275.06L489.94,275.06L489.62,274.54L489.01,274.86L488.57,275.86L488.41,276.73L489.01,276.96L488.92,277.41L488.58,278L488.42,278.72L487.76,278.99L487.65,279.29L486.55,279.35L486.02,279.67L485.65,279.49L485.47,278.96L484.82,278.94L485.08,279.84L485.51,280.09L485.19,280.43L485.2,280.8L484.58,280.54L483.81,280.89L483.62,280.58L482.93,280.64L482.85,280.85L482.04,280.97L481.41,282.15L481.01,282.49L480.85,283.16L480.35,282.67L480.32,282.26L479.88,281.93L478.78,282.31L478.01,283.34L477.41,283.56L477.21,283.45L476.6,284.12L476.56,285.36L476.16,285.18L475.53,285.82L474.82,286.91L474.48,288.29L474.44,289.13L474.57,290.02L475.08,290.84L475.48,290.93L476,290.71L476.49,290.85L476.52,291.35L476.9,291.41L476.98,292.49L477.32,292.57L477.31,293.12L477.12,293.53L477.01,294.22L476.65,294.2L476.54,294.67L476.27,294.73L475.96,295.75L475.29,296.43L475.27,297.51L475.49,299.13L475.7,300.31L476.34,302.34L476.6,303.63L477,304.47L476.98,305.05L476.81,305.35L477.11,305.97L477.12,306.92L476.02,306.81L475.5,306.65L475.36,306.23L475.82,305.81L475.88,305.14L476.04,304.8L475.72,304.56L475.94,304.27L476.37,304.23L476.44,303.35L476.03,302.85L475.89,302.46L475.98,301.95L475.36,302.24L475.31,301.04L475,300.56L474.37,300.74L474.26,301.19L474.51,301.93L474.37,302.23L473.73,302.16L473.46,302.29L473.01,301.69L472.45,301.64Z" class="land" id="KP-08" title="Hamkyeongnamto"/>
    <path d="M582.03,151.3L581.94,151.87L581.1,153.14L580.53,153.53L580.26,155.68L579.88,157.08L579.04,157.46L577.82,157.59L577.07,158.09L576.51,158.35L576.79,158.98L576.79,159.74L576.51,161.13L575.67,162.78L573.7,164.55L571.45,165.44L571.4,166.29L571.68,166.78L571.7,167.98L572.01,168.68L572.69,169.09L572.37,169.77L572.85,170.12L572.99,170.44L572.52,170.66L572.5,171.22L572.28,172.02L572.43,172.48L572.11,172.64L571.77,172.44L570.97,172.95L570.71,173.4L571.32,173.52L571.66,174.02L571.52,174.63L570.91,174.35L570.19,173.54L569.38,173.4L568.52,173.66L568.11,173.95L568.22,174.5L568.16,175.54L567.88,176L567.53,175.21L567.16,175.13L567.16,175.8L566.86,176.27L566.93,176.69L566.36,177.26L565.9,176.99L565.48,177.23L565.27,177.63L565.23,178.34L564.72,178.41L564.59,178.79L565.35,179.32L565.1,179.71L564.78,179.59L564.27,180.14L564.65,180.28L564.22,181.29L564.29,181.62L563.75,183.12L563.41,183.01L562.99,182.52L562.46,182.38L562.34,182.09L561.63,182.45L561.54,183.4L561.02,184.17L561.39,184.48L561.33,185.54L560.98,186.17L561.16,186.57L560.72,187.05L560.62,188.05L560.19,187.99L559.81,188.67L560.02,189.42L559.68,189.64L559.18,188.71L558.71,188.64L557.92,189.06L556.81,189.78L556.79,190.25L556.55,191.07L556.74,191.18L556.59,191.84L556.26,192.13L556.05,193.24L555.57,193.45L555.48,193.71L554.99,193.8L554.54,194.29L554.02,195.58L553.84,197.22L553.6,197.37L553.5,198.52L552.94,199.16L552.72,199.58L552.97,201.23L552.72,202.52L553.18,203.78L553.65,204.75L554.65,205.9L555.17,206.17L555.93,206.28L556.73,207.59L557.31,207.95L557.62,207.5L557.96,207.65L558.35,208.11L558.27,208.92L557.82,209.12L557.82,210.43L557.11,210.73L556.98,211.69L556.5,211.99L556.5,212.62L556.69,212.95L556.13,213.58L556.1,214.1L555.66,214.37L555.98,215.27L555.79,215.46L556.01,215.93L555.41,216.06L555.31,216.65L555.1,216.81L555.36,217.78L555.35,218.55L554.97,219.09L555.47,219.52L555,220.29L555.41,220.74L555.34,221.56L555.57,221.8L555.65,222.28L555.3,222.82L555.36,224.18L555.17,224.36L555.2,225.16L555.49,225.59L555.27,227.01L555.71,227.15L555.72,227.6L555.98,228.11L556.3,228.37L556.6,228.9L556.6,229.27L556.33,229.84L556.3,230.9L555.74,231.5L555.8,232.29L555.65,233.19L555.04,234.37L554.59,233.98L553.35,233.71L553.12,233.98L552.7,233.71L552.47,233.92L551.58,233.8L550.93,233.88L550.66,234.09L549.88,233.97L549.21,234.52L548.71,235.43L548.33,235.53L547.87,236.23L547.33,236.15L546.19,236.26L545.74,236.62L544.75,236.76L544.35,236.98L543.46,237.81L542.72,238.01L541.98,238.42L541.45,238.92L540.65,240.25L540.55,240.93L540.15,241.86L539.77,241.66L539.21,240.44L538.96,240.22L537.85,240.25L537.39,240.43L536.72,241.25L536.4,242.64L536.34,243.45L535.99,243.84L536.07,244.25L535.88,244.75L535.38,245.04L535.42,245.54L535.08,246.25L535.41,246.71L534.75,247.06L534.77,247.67L534.27,248.54L533.86,248.69L531.87,245.59L531.31,245.38L531.27,244.44L531.55,243.73L531.54,243.25L531.16,242.48L529.51,241.4L528.68,240.31L528.53,239.42L528.25,238.64L528.24,237.12L528.03,236.37L527.37,235.48L526.9,234.62L526.93,233.12L527.15,232.79L527.84,232.26L527.01,230.11L527.3,229.05L527.82,228.34L528.57,227.75L528.58,227.11L528.84,226.55L529.17,226.32L529.24,225.7L528.95,224.98L528.95,223.84L529.22,223.19L529.2,222.42L528.91,221.51L529.52,220.66L529.55,219.37L529.29,218.73L529.19,217.8L528.92,217.24L528.94,216.23L529.82,214.89L530.03,214.26L530.53,213.51L530.44,212.79L529.56,211.65L529.27,211.05L529.18,210.29L528.65,209.46L528.29,208.5L528.2,207.73L527.92,206.95L527.91,204.73L528.07,204.27L529.3,202.63L530.09,202.02L531.14,200.61L531.27,200.13L531.26,198.9L530.68,197.85L529.62,196.5L528.95,196.05L528.48,195.95L527.3,195.91L526.63,195.43L526.62,194.99L527.47,193.82L527.58,193.21L527.47,192.68L526.74,191.69L526.57,191.27L526.58,187.07L526.29,186.47L524.91,186.51L524.61,186.38L524.51,185.31L524.03,184.46L523.61,184.12L523.49,183.44L523.01,182.98L522.78,182.53L522.17,181.89L522.9,181.54L523.85,181.51L524.13,181.62L524.45,182.18L524.82,182.31L525.17,181.98L525.63,179.37L526.47,179.19L526.98,178.86L527.55,178.71L528.46,178L528.99,176.63L529.42,175.91L529.8,175.57L529.93,175.14L530.06,173.24L530.75,172.66L530.41,172.34L530.98,171.63L531.52,171.37L531.66,170.82L532.06,170.76L532.35,171.24L532.86,171.29L533.24,171.07L534.29,171.01L534.14,170.41L534.72,170.18L535.21,169.57L535.3,169.09L535.91,168.86L536.27,168.4L536.99,168.22L536.94,167.65L536.39,167.41L536.22,167.12L536.66,166.61L536.02,166.58L535.65,166.36L535.81,165.66L536.55,165.31L537.09,164.76L536.49,164.19L537.46,163.62L537.52,163.15L536.55,163.36L536.5,162.8L536.92,162.57L537.19,162.71L538.01,162.62L538.31,162.27L537.47,161.24L537.47,160.71L537.75,160.31L537.7,159.71L538.74,159.5L539.12,159.12L539.52,159.47L539.9,159.15L540.45,159.21L540.18,158.45L540.52,157.32L541.27,157.28L541.44,157.88L541.92,157.4L541.41,156.45L541.59,156.1L542.16,155.86L542.35,156.3L542.11,156.86L542.3,157.09L542.94,156.99L543.17,156.42L543.65,156.07L544.32,156.58L545.34,156.42L546,157.29L546.88,157.81L547.67,158.82L548.24,159.11L548.54,159.96L548.93,160.31L549.25,159.85L549.85,159.45L549.55,159.13L549.89,158.3L550.7,157.94L551.23,156.73L550.68,156L551.22,155.86L551.64,155.41L551.96,155.59L552.29,156.9L552.52,157.08L553.64,157.01L554.42,157.23L555.07,157.13L555.29,156.34L555.82,155.75L556.02,155.28L555.91,154.63L556.03,153.2L556.24,152.58L556.13,150L556.6,149.16L557.29,148.44L557.16,148.15L556.41,147.76L556.63,147.09L556.26,146.34L556.64,145.96L557.11,146.42L557.07,145.33L557.29,144.96L557.93,144.98L557.19,144.09L556.78,143.15L557.32,141.56L557.58,140.52L558.09,139.53L558.43,138.29L558.41,137.41L558.85,136.19L559.37,135.58L559.56,134.43L559.49,133.54L559.9,133.06L560.46,132.86L560,131.88L559.93,130.92L560.03,130.68L560.7,130.36L561.44,130.54L562.25,130.24L562.16,129.96L561.38,130.04L560.97,129.66L561.09,129.22L561.66,128.77L562.96,128.57L563.59,128.64L563.76,129.09L563.58,129.46L563.89,130.05L564.6,130.34L565.85,130.56L566.76,130.47L567.18,130.56L567.97,130.39L568.93,129.58L569.26,129.53L569.94,130.07L570.57,130.13L570.55,130.45L569.61,131.1L569.72,131.67L570.39,132.21L569.73,132.4L568.97,132.9L568.94,133.13L569.62,133.68L570.74,133.78L571.01,133.48L572.45,133.6L573.23,133.84L574.55,133.88L575.04,134.5L574.6,136.22L574.44,137.04L573.95,138.79L573.86,139.45L574.01,140.09L573.96,141.59L574.09,142.43L574.4,143.13L575.85,144.13L576.48,145.48L576.93,146.06L578.32,147.18L579.27,148.6L579.43,148.7L580.46,148.25L581.1,148.56L580.8,149.07L580.47,150.08L580.84,150.95L581.23,151.28Z" class="land" id="KP-09" title="Hamkyeongpukto"/>
    <path d="M530.06,173.24L529.93,175.14L529.8,175.57L529.42,175.91L528.99,176.63L528.46,178L527.55,178.71L526.98,178.86L526.47,179.19L525.63,179.37L525.17,181.98L524.82,182.31L524.45,182.18L524.13,181.62L523.85,181.51L522.9,181.54L522.17,181.89L522.78,182.53L523.01,182.98L523.49,183.44L523.61,184.12L524.03,184.46L524.51,185.31L524.61,186.38L524.91,186.51L526.29,186.47L526.58,187.07L526.57,191.27L526.74,191.69L527.47,192.68L527.58,193.21L527.47,193.82L526.62,194.99L526.63,195.43L527.3,195.91L528.48,195.95L528.95,196.05L529.62,196.5L530.68,197.85L531.26,198.9L531.27,200.13L531.14,200.61L530.09,202.02L529.3,202.63L528.07,204.27L527.91,204.73L527.92,206.95L528.2,207.73L528.29,208.5L528.65,209.46L529.18,210.29L529.27,211.05L529.56,211.65L530.44,212.79L530.53,213.51L530.03,214.26L529.82,214.89L528.94,216.23L528.92,217.24L529.19,217.8L529.29,218.73L529.55,219.37L529.52,220.66L528.91,221.51L528.17,220.92L527.54,220.23L527.25,220.1L524.89,218.48L524.27,218.33L523.74,217.97L522.6,217.95L522.02,218.34L520.62,218.36L520.14,218.02L518.82,218.44L518.52,219.04L518.05,219.41L517.6,220.02L517.2,221.04L517.13,221.98L518.03,222.34L518.59,222.46L519.24,222.84L519.15,225.45L519.06,226.43L518.03,228.17L516.9,228.55L515.87,228.3L515.4,227.68L514.84,226.68L514.28,226.68L513.53,226.93L512.88,227.68L512.41,227.92L511.57,227.68L511.38,227.18L510.54,226.93L508.89,228.02L509.04,228.62L509.04,230.42L508.79,231.23L507.86,232.46L507.56,233.04L507.67,234.29L507.07,235.81L506.97,237.09L506.78,237.41L506.28,237.69L506.05,238.04L505.72,238.93L505.62,239.69L505.39,240.26L505.26,241.15L504.59,241.71L503.8,242.53L503.5,242.66L502.7,243.66L502.14,244L500.85,245.69L500.5,246.39L499.63,247.24L499.15,247.35L498.22,247.24L497.51,246.76L496.69,245.74L496.33,245.56L494.67,245.59L494.14,245.96L493.56,246.08L493.13,246.4L492.21,246.51L491.31,247.63L490.74,249.21L489.9,250.31L488.62,251L488.43,251.26L486.1,252.75L485.71,253.44L485.15,253.88L484.52,254.04L483.98,254.4L483.09,254.47L483.09,251.89L483.12,251.43L483.5,250.55L484.02,250.11L484.73,249.09L484.78,248.63L484.79,246.71L484.98,245.5L483.56,245.56L482.89,244.86L482.76,244.45L482.73,243.09L482.46,242.37L482.43,241.48L482.21,241.15L481.49,241.11L481.24,240.91L480.96,240.16L480.48,239.4L480.02,238.18L479.56,237.81L479.15,237.26L479.05,236.83L479.06,235.84L478.91,235.2L478.43,234.46L478.37,233.47L478.68,232.79L479.76,232.15L481.43,231L481.78,230.82L482.29,230.19L482.73,229.05L482.75,228.41L482.59,228.02L481.84,227.03L481.79,226.59L482.32,226.18L482.94,226.44L483.7,226.42L484.34,225.96L484.71,225.48L484.84,224.72L485.08,224.13L485.17,223.37L485.43,222.72L485.45,221.11L485.28,220.44L484.93,220.22L484.18,220.16L483.53,219.71L482.99,219.77L482.11,219.69L481.61,219.35L480.47,219.42L480.11,219.92L480.01,220.63L479.45,222.04L479.34,222.75L478.64,223.3L478.33,223.35L474.97,223.36L475.01,222.69L475.02,219.97L474.81,219.03L474.26,218.48L473.34,218.06L472.86,218.4L472,218.51L470.37,219.75L470.15,220.39L469.32,221.47L469,221.57L467.46,221.55L466.6,221.13L465.69,221.13L465.18,221.28L464.79,220.96L463.66,219.61L463.19,219.78L462.62,219.76L462,219.06L461.89,218.73L461.84,217.65L461.59,217.08L461.5,216.31L461.25,215.74L461.24,214.89L461.79,213.98L461.52,213.57L460.94,213.47L460.45,213.14L459.82,212.99L459.28,212.29L459.12,211.32L458.44,209.47L457.6,208.26L457.27,207.32L457.79,205.91L457.52,205.44L455.56,205.48L455.16,205.41L454.36,204.42L453.92,203.4L453.71,201.59L453.86,201.07L454.32,200.5L455.06,200.58L455.66,200.96L456.66,200.95L456.88,200.11L457.23,199.27L458.14,198.38L459.03,198.24L459.45,197.75L459.45,197.32L458.81,195.75L458.72,194.76L458.4,194.31L458.96,194.56L459.44,195.22L460.16,195.24L460.44,195.58L460.04,196.55L461.07,196.42L461.25,196.79L461.03,197.21L461.41,197.5L462.65,197.53L463.17,197.89L462.84,198.2L461.97,198.18L461.73,198.46L461.59,199.07L461.16,199.18L460.94,199.94L460.47,199.76L460.23,200.05L460.86,200.4L461.75,200.38L461.95,200.94L462.52,200.39L462.79,200.36L463.08,200.87L463.55,200.92L464.14,200.75L464.38,201.36L465.09,201.23L465.06,201.8L465.59,202.17L466.29,201.64L466.86,201.96L466.74,202.63L465.95,202.97L466.08,203.32L467.02,203.13L468.1,203.41L469.12,203.99L469.64,203.98L469.68,203.5L470.86,203.16L471.07,203.35L471.55,204.43L472.27,204.21L472.69,204.4L473.18,204.35L473.51,203.92L473.6,203.36L474.07,203.78L475.06,203.71L475.84,203.83L476.09,203.53L476.47,203.86L476.71,205.14L477.24,205.48L478.72,205.72L479.1,205.9L479.83,206.73L480.68,206.93L480.19,205.88L480.73,206.07L481.51,206.12L483.48,206.07L484.36,205.92L485.12,206.2L485.68,206.14L486.59,206.8L486.92,206.23L487.21,206.23L487.86,206.88L488.16,206.75L488.05,206.3L488.33,205.37L488.62,205.09L488.93,205.61L489.64,205.68L490.3,205.21L490.47,204.59L491.01,204.91L491.03,205.33L491.88,205.61L492.24,206.2L492.52,206.19L492.98,205.71L493.37,206.12L493.66,206.72L494.23,206.49L494.46,206.81L494.33,207.67L495.04,207.56L495.65,208.19L496.12,207.59L496.7,207.81L496.06,208.55L496.68,208.89L497.07,208.78L497.55,208.17L498.13,208.16L498.79,207.28L499.63,206.79L500.29,206.64L500.57,205.64L501.18,204.93L501.25,204.42L501.62,203.59L501.46,202.77L502.69,201.82L502.99,201.04L503.32,200.7L503.26,200.31L503.63,199.08L504.13,198.93L504.34,198.26L504.06,197.79L504.19,197.49L503.77,197.25L503.81,196.49L503.74,195.79L502.99,195.21L502.56,194.55L501.81,194.03L500.72,193.8L499.83,192.95L498.92,192.27L498.19,191.43L497.92,190.62L497.68,189.5L496.52,187.84L496.1,187.03L496.49,185.78L496.55,184.84L496.45,183.88L496.05,182.74L495.81,181.46L495.39,180.64L495.29,179.68L495.48,179.06L495.9,178.69L497,178.91L497.97,178.5L498.02,177.71L499.32,177.32L500.59,177.24L503.5,176.31L504.3,176.2L505.56,176.29L506.8,176.69L507.59,176.74L508.23,176.62L509,176.83L509.77,177.2L510.04,178.01L510.7,178.13L512.76,178.16L513.43,178.23L513.71,178.1L514.4,177.34L515.35,176.49L515.76,176.3L516.28,176.49L517.15,177.52L518.18,177.39L518.89,176.49L519.9,175.91L520.23,175.94L520.88,176.36L521.72,176.38L522.43,176.22L523.08,176.89L523.78,176.86L524.21,177.14L525.02,177.11L525.76,177.36L527.2,177.14L527.76,176.07L527.57,174.31L528.97,173.62Z" class="land" id="KP-10" title="Ryangkangto"/>
    <path d="M572.69,169.09L572.01,168.68L571.7,167.98L571.68,166.78L571.4,166.29L571.45,165.44L573.7,164.55L575.67,162.78L576.51,161.13L576.79,159.74L576.79,158.98L576.51,158.35L577.07,158.09L577.82,157.59L579.04,157.46L579.88,157.08L580.26,155.68L580.53,153.53L581.1,153.14L581.94,151.87L582.03,151.3L582.44,151.09L582.69,150.28L582.24,149.29L582.33,148.25L582.61,147.94L583.36,147.93L584.12,148.17L584.37,148.61L584.17,148.96L584.05,149.87L584.34,150.72L584.44,151.49L585.05,152.49L585.2,153.55L585.37,154.02L586.05,154.67L585.9,155.48L585.84,156.56L585.94,156.81L588,157.38L588.67,158.15L589.16,159.1L589.32,160.03L588.77,160.97L588.81,161.44L589.5,162.99L589.4,163.56L589.84,164.11L588.74,164.39L588.54,164.6L587.59,164.58L587.25,165.24L586.65,165.23L586.71,164.68L587.25,164.6L587.45,164.04L587.31,163.66L586.74,163.31L586.86,162.97L586.55,162.6L584.94,162.22L584.42,162.33L584.06,161.93L583.94,161.5L582.73,161.39L582.14,161.7L582.33,162.08L582.24,162.46L581.73,162.5L581.78,162.95L580.95,162.22L580.68,162.26L579.9,161.62L579.77,163.05L579.23,163.67L579.28,164.37L579.72,164.52L579.98,165.33L579.84,165.58L579.1,165.13L578.79,165.25L578.46,166.01L578.81,166.41L578.26,166.56L578.26,167.21L577.79,167.51L577.35,167.45L577.13,168.01L577.41,168.46L577.23,168.83L576.54,168.67L576.85,167.89L576.76,166.61L576.31,166.27L575.83,166.58L575.85,166.84L575.41,167.43L574.38,168.05L574.19,168.51L573.91,168.65L573.79,169.22L573.47,169.41Z" class="land" id="KP-13" title="Raseon"/>
  </g>
</svg>