<?xml version="1.0" encoding="UTF-8"?>
<svg xmlns="http://www.w3.org/2000/svg" width="197.78" height="262.3" viewBox="381.11 125.85 197.78 262.3" style="background-color:#000000">
  <!-- Created using SVG Map Generator: dojo.amcharts.com/svg-map-generator -->
  <style>
    .land { fill: #ffffff; stroke: #000000; stroke-width: 0.65; }
  </style>
  <g id="polygons">
    <path d="M487.04,159.64L486.98,159.42L486.8,158.11L487.01,157.55L487.72,157.48L488.34,157.17L488.51,156.23L489.01,155.87L490.07,155.97L489.95,156.8L490.13,157.4L490.17,158.15L489.85,159.1L488.25,160L487.37,159.83ZM488.58,158.5L488.99,158.68L489.4,158.45L489.4,158.04L488.99,157.86L488.58,158.13ZM488.66,149L487.85,149.63L486.91,149.25L485.97,148.18L485.85,147.7L485.85,145.86L486.09,145.22L485.71,144.12L485.78,143.19L486.11,142.19L486.46,139.85L486.43,137.55L486.27,137L485.46,136.8L485.16,136.96L484.18,136.83L484.89,135.76L485.5,134.61L485.78,134.7L486.28,133.84L486.49,132.53L487.17,131.68L487.35,131.75L487.48,132.78L487.97,132.9L489.19,133L489.49,133.42L490.48,133.73L490.62,133.27L491.3,132.98L492.17,132.94L491.95,132.33L491.02,132.26L490.17,133.1L489.58,133.28L489.42,132.4L489.75,132.1L489.68,131.62L489.79,130.89L490.35,131.36L490.48,131.79L491.03,131.91L491.19,131.69L490.54,130.83L489.91,130.43L490.23,130.01L490.91,130.05L490.87,129.48L490.99,128.65L492.08,128.5L492.07,129.45L492.49,129.13L492.79,129.75L493.98,129.9L493.81,129.31L494.34,129.05L494.37,129.9L493.35,130.06L493.06,130.34L492.68,130.23L492.27,130.68L491.81,130.75L491.75,131.1L492.05,132.04L492.39,132.1L492.91,132.61L493.4,132.2L493.9,133.49L493.55,133.58L493.48,132.81L493.1,132.84L492.76,133.55L492.71,134.28L492.93,134.47L493.45,134.22L493.51,134.91L492.52,135.11L492.03,134.24L492.28,133.68L491.36,134.04L491.42,133.2L490.8,133.53L490.77,134.08L490.14,134.19L490.28,136.08L490.68,135.39L491.05,135.72L492.34,136.46L492.66,136.17L493.47,136.44L492.66,137.08L492.73,137.51L491.5,137.66L492.06,138.17L492.37,138.19L492.41,138.82L491.82,139.54L492.27,139.76L492.64,140.63L491.65,140.5L491.62,141.21L492.03,141.47L491.81,142.27L491.43,142.89L491.09,143.17L491.07,143.95L490.82,144.25L490.07,145.52L489.6,145.93L489.41,145.65L488.75,146.51L488.97,146.91L488.91,147.39L488.57,147.88ZM490.92,128.57L490.75,128.75L490.7,129.52L490.36,129.5L490.61,128.6Z" class="land" id="OM-MU" title="Musandam"/>
    <path d="M488.66,149L489.07,149.44L489.56,149.31L490.7,149.71L490.65,150.62L491.06,151.82L490.78,152.65L490.89,153.33L490.78,154.02L490.98,154.81L490.63,156.32L491.02,156.33L491.33,156.78L491.06,157.35L491.09,158.55L490.81,159.9L490.7,161.69L490.89,164.82L490.85,165.52L491.25,166.78L490.61,166.96L490.49,167.94L490.62,168.8L490.47,169.1L489.38,169.45L489.09,170.13L488.75,170.41L487.8,170.71L487.34,170.66L486.73,171.23L486.52,172.16L485.96,172.43L485.8,173.16L485.39,173.3L483.75,173.13L483.44,172.9L483.28,172.17L482.92,171.61L482.67,170.66L482.16,170.3L481.84,169.8L481.97,168.95L482.55,169.01L483.21,169.51L483.21,168.54L483,167.54L482.6,166.86L481.39,166.46L481.39,166.12L480.97,165.21L480.7,164.86L480.64,163.76L481.22,162.49L481.51,162.04L481.25,161.56L480.77,161.09L480.87,160.4L481.58,160.07L481.77,159.11L481.41,158.26L482.16,157.68L482.04,157.16L481.55,156.9L482,155.57L481.45,155.27L481.15,155.3L480.99,156.34L480.6,157.06L480.02,156.14L479.24,155.42L478.76,155.14L479.38,154.5L479.36,154.28L478.27,153.29L477.9,152.66L477.96,151.44L477.79,150.62L477.28,149.72L477.01,148.58L476.18,148.57L475.77,148L476.94,146.37L477.86,146.51L478.42,146.38L479.44,145.61L481.14,143.57L481.63,143.33L482.21,142.45L482.33,141.83L482.99,141.92L483.28,141.24L483.19,140.79L483.45,140.25L483.25,139.47L483.71,138.98L484.03,137.74L484.18,136.83L485.16,136.96L485.46,136.8L486.27,137L486.43,137.55L486.46,139.85L486.11,142.19L485.78,143.19L485.71,144.12L486.09,145.22L485.85,145.86L485.85,147.7L485.97,148.18L486.91,149.25L487.85,149.63ZM486.98,159.42L487.04,159.64L487.37,159.83L488.25,160L489.85,159.1L490.17,158.15L490.13,157.4L489.95,156.8L490.07,155.97L489.01,155.87L488.51,156.23L488.34,157.17L487.72,157.48L487.01,157.55L486.8,158.11ZM488.58,158.5L488.58,158.13L488.99,157.86L489.4,158.04L489.4,158.45L488.99,158.68Z" class="land" id="AE" title="United Arab Emirates"/>
    <path d="M481.39,166.46L482.6,166.86L483,167.54L483.21,168.54L483.21,169.51L482.55,169.01L481.97,168.95L481.84,169.8L482.16,170.3L482.67,170.66L482.92,171.61L483.28,172.17L483.44,172.9L483.75,173.13L485.39,173.3L485.8,173.16L485.96,172.43L486.52,172.16L487.76,173.35L487.98,173.7L487.79,174.35L487.66,175.77L487.77,176.18L488.7,176.97L488.66,177.28L488.07,177.3L487.37,177.05L486.98,177.34L487,178.04L487.24,178.88L487.97,180.26L488,182.09L489.4,182.17L490.71,183.22L490.85,183.94L490.57,184.41L489.48,185.14L489.47,186.06L489.65,186.98L489.39,187.9L489.56,188.72L490.61,189.62L490.88,190.02L491.32,193.02L492.02,193.24L492.42,193.72L492.15,194.11L491.66,194.22L490.34,194.27L488.69,194.19L487.54,193.74L486.58,193.27L483.83,193.07L484.43,195.09L483.13,195.29L482.84,195.61L481.84,196.39L481.68,196.7L482.67,197.78L482.43,200.56L482.19,201.2L484.84,203.04L484.08,204.18L483.9,205.14L483.33,205.57L483.91,206.14L482.73,207.64L481.12,206.86L480.1,206.73L479.09,206.89L477.15,207.86L475.27,207.89L474.12,210.7L471.05,211.32L466.9,209.29L467.33,207.04L467.87,206.29L468.81,205.47L469.14,204.99L469.45,203.84L469.58,202.42L470.17,200.93L471.37,199.36L471.47,198.83L471.29,197.68L471.39,196.31L471.2,195.81L470.37,195.38L469.34,194.68L469.22,193.82L470.76,193.57L472.19,192.89L472.58,192.35L473.18,192.12L475.77,192.26L476.51,191.94L477.47,192.61L477.96,192.55L479.53,191.72L482.17,191.04L482.56,190.83L482.48,190.49L481.91,189.47L481.43,188.86L481.27,187.62L481.02,187.35L480.97,186.81L480.74,186.53L479.83,186.58L478.82,187.14L478.47,187.17L477.73,186.77L476.78,186.78L476.56,186.44L476.84,185.53L477.92,183.89L477.96,183.38L477.86,182.1L476.99,181.27L476.98,179.04L476.7,177.92L476.75,177.52L477.41,177.12L477.38,176.1L478.03,175.49L478.12,175.19L477.62,174.01L477.47,173.37L477.65,172.19L477.5,171.74L477.2,170.05L477.44,169.05L478.68,167.43L479.61,166.82L480.37,166.46Z" class="land" id="OM-BU" title="Al Buraymī"/>
    <path d="M540.08,214.41L539.07,214.7L539.1,216.39L540.19,216.83L540.27,217.22L539.95,217.42L538.83,217.58L538.29,217.94L538.15,218.58L537.79,218.77L537.02,218.88L535.51,218.96L535.22,219.05L534.17,219.79L532.7,219.89L531.99,220.23L531.47,221.14L531.15,221.11L530.37,220.6L529.7,220.54L529.62,221.1L530.04,222.45L530.94,223.85L530.93,224.14L530.49,224.78L529.95,225.23L530.47,225.72L530.62,226.47L530.21,228.09L528.76,229.74L528.45,232.7L527.81,232.87L527.5,233.1L527.5,233.73L528.2,233.82L528.59,234.24L528.71,235.97L528.23,236.4L526.27,238.82L524.71,240.52L523.93,241.8L523.89,243.79L523.15,244.17L522.72,244.66L522.92,245.15L524.18,244.76L524.45,244.43L525.2,244.53L526.28,245.33L526.85,246.17L527.45,247.46L527.99,248.98L529.25,250.59L529.63,251.24L529.99,252.4L530.23,252.85L530.25,253.53L529.65,254.21L529.79,254.66L531.28,254.71L533.09,257.61L531.49,259.37L531.49,260.06L532.09,263.72L532.85,268.01L532.35,268.61L532.3,269.11L531.53,269.8L531.48,270.55L531.18,270.96L530.9,272.41L531.03,275.52L530.94,275.72L530.17,275.65L522.67,274.25L520.94,274L513.63,272.47L509.86,271.85L501.82,268.06L501.21,267.91L499.72,267.13L499.32,267.11L499.02,267.36L498.06,267.36L497.31,265.98L496.85,265.58L494.88,264.54L495.22,263.54L496.15,260.32L496.74,256.35L497.55,255.81L497.61,254.81L497.05,254.24L497.72,249.73L499.01,242.95L499.24,240.94L499.54,240.62L500.12,240.43L500.66,239.39L500.9,238.75L501.23,236.69L501.45,234.72L501.29,233.32L500.87,232.69L500.8,231.44L501.19,230.46L502.49,228.74L503.62,228.02L504.22,227.77L506.22,227.55L506.49,227.14L506.42,226.7L505.81,225.76L505.49,225.48L504.79,225.62L503.91,224.18L504.08,223.37L504.84,222.7L505.06,221.8L504.86,221.48L504.84,220.56L505.06,219.48L504.79,219.05L504.93,218.36L505.58,217.46L505.33,216.87L504.93,216.6L505.04,216.19L505.72,216.14L505.58,215.78L505.91,215.41L508.6,214.55L508.6,213.46L509.16,213.31L510.29,212.67L511.23,213.3L511.79,213.41L512.92,213.87L513.49,214.31L514.78,215.56L516.6,215.66L517.5,216.3L518.05,216.36L518.95,215.68L519.63,215.5L521.04,215.85L522.12,216.26L522.8,216.34L523.73,216.21L524.15,216.43L524.42,217.13L524.78,217.22L525.39,217.03L525.97,216.54L526.54,214.66L526.92,213.95L527.34,213.85L527.95,213.13L527.64,212.26L527.73,211.95L528.54,211.42L529.27,210.42L529.14,209.59L529.21,209.14L529.96,208.47L530.95,208.43L531.9,208.74L532.11,208.49L532.46,207.52L532.48,206.86L534.1,207.12L535.15,207.57L536.75,208.01L537.25,209.1L538.04,209.72L538.4,210.24L538.45,210.78L538.99,211.54L538.97,212.39L539.43,212.98L539.81,213.23L539.65,213.67Z" class="land" id="OM-DA" title="Ad Dākhilīyah"/>
    <path d="M550.66,273.49L546.67,273.43L546.55,272.05L545.56,272.02L546.14,270.49L546.9,268.86L546.89,268.47L547.12,268.03L548.19,263.34L549.04,261.23L549.46,260.04L549.61,257.65L549.63,256.46L549.42,256.04L548.43,254.95L548.13,253.92L548.19,253.39L548.86,251.87L550.44,253.58L550.54,254.62L550.43,255.15L550.73,255.5L550.81,256.66L551.58,257.16L552.49,257.2L552.85,256.81L553.42,255.65L553.8,255.39L554.42,255.2L555.62,254.66L555.66,244.65L556.01,243.71L556.62,242.65L556.63,242.23L555.56,240.54L555.65,236.66L554.11,235.24L553.87,234.62L554.42,234.14L554.4,233.43L555.24,233.41L556.29,232.32L556.78,232.1L557.87,232.19L558.25,232.39L559.08,233.21L560.02,233.19L560.85,232.98L560.08,231.61L560.26,231.17L560.1,230.61L558.57,229.06L558.78,228.47L558.08,227.44L557.48,226.9L557.41,225.92L557.2,225.41L556.54,224.45L556.08,224.18L555.4,223.43L555.88,223.48L557.79,224.1L558.56,224.16L559.26,224.02L559.78,223.78L561.29,222.85L561.49,223.65L561.93,224.2L562.77,225.93L563.19,226.19L563.85,226.26L564.41,227.37L564.88,227.49L565,228.09L565.22,228.36L566.07,228.86L567.34,230.13L568.61,230.95L568.17,231.59L568.51,231.7L569.06,231.17L570.24,231.32L571.56,231.4L572.92,231.87L573.55,231.99L573.55,232.38L573.18,232.78L573.56,233.42L574.12,233.55L574.08,233.06L573.55,232.32L573.98,232.09L574.61,232.55L575.13,231.95L575.44,232.96L575.94,233.65L576.24,235.04L575.94,235.24L575.69,236.11L575.89,236.62L575.71,237.47L575.87,237.64L575.88,238.49L575.55,239.5L575.53,240.25L574.58,241.03L574.57,241.41L574.17,241.96L573.85,242.15L573,243.54L572.29,244.36L572.09,245.03L572.24,245.32L571.76,246.59L571.51,247.01L571.63,247.7L571.4,248.07L570.52,248.78L569.64,249.99L569.63,250.6L568.69,251.54L567.77,252.64L567.52,253.31L567.58,254.03L566.85,255.34L566.94,255.6L566.46,256.48L566.1,256.93L565.93,257.39L565.13,258.54L564.95,259.14L564.14,260.16L563.99,260.6L564.19,261.2L563.28,261.72L561.89,262.34L560.82,262.74L559.74,263.39L559,264.03L556.65,265.91L555.62,266.96L554.85,267.97L553.63,269.05L552.05,270.93L550.71,273.01Z" class="land" id="OM-SJ" title="Janūb ash Sharqīyah"/>
    <path d="M561.29,222.85L559.78,223.78L559.26,224.02L558.56,224.16L557.79,224.1L555.88,223.48L555.39,223.43L555.07,223.2L554.98,222.62L554.51,221.87L554.26,221.09L553.21,220.84L553.07,219.96L552.3,219.54L551.34,218.89L550.53,218.22L550.47,216.35L550.05,215.99L549.41,216.06L548.92,215.93L547.33,216.06L546.73,215.33L546.27,215.78L545.73,215.84L545.19,215.52L544.37,214.26L542.61,215.1L541.85,214.39L541.81,213.85L541.21,213.66L540.29,214.42L540.08,214.41L539.65,213.67L539.81,213.23L539.43,212.98L538.97,212.39L538.99,211.54L538.45,210.78L538.4,210.24L538.04,209.72L537.25,209.1L536.75,208.01L535.15,207.57L534.1,207.12L532.48,206.86L532.48,206.8L532.72,205.68L533.33,204.73L533.33,204.39L532.49,202.09L532.41,200.56L533.38,200.6L534.19,200.79L535.85,201.45L537.17,202.55L538.08,203.1L539.47,203.5L540.73,203.56L541.91,203.39L542.89,202.96L543.4,202.4L543.76,202.8L544.96,202.64L544.9,203.06L545.39,203.03L545.95,203.43L546.16,204.44L547.32,204.94L547.85,205.44L548.8,205.42L549.4,205.67L550.22,206.95L550.17,207.32L550.34,208.37L550.69,208.68L550.83,209.14L551.9,209.78L552,210.03L552.58,210.42L552.88,210.82L553.46,211.06L553.6,211.89L553.88,212.82L554.17,213.23L554.79,213.6L555.41,214.2L555.41,215.14L555.93,216.41L556.4,216.96L557.08,217.44L557.3,218.33L557.56,218.66L558.61,219.64L559.62,220.24L560.24,220.51L560.71,221.14Z" class="land" id="OM-MA" title="Muscat"/>
    <path d="M553.18,280.58L553.59,280.89L553.22,282.48L553.5,283.45L554.13,283.83L554.15,284.77L554.72,285.35L554.34,285.92L553.32,286.28L553.35,286.41L551.92,287.21L551.38,287.8L551.28,288.51L550.7,289.4L550.78,289.82L550.67,290.42L550.17,291.05L550.15,291.7L549.23,292.43L548.87,293.24L547.56,293.9L547.25,294.46L546.72,294.53L546.61,293.37L546.44,292.64L546.4,291.86L546.64,290.76L546.65,289.85L547.28,288.93L547.85,288.63L547.87,288.25L548.65,287.53L548.86,287.81L549.51,287.81L550.1,287.3L550.34,286.54L550.37,285.25L551.03,284.26L551.17,283.83L551.88,282.95L552.32,282.68L552.28,282.16L552.56,281.33L552.52,280.77ZM532.09,263.72L537.38,262.31L536.97,261.52L537,261.18L537.46,261.08L538.05,261.43L538.87,261.65L539.77,262.24L540.3,262.94L542.34,264.69L546.87,267.29L546.89,268.47L546.9,268.86L546.14,270.49L545.56,272.02L546.55,272.05L546.67,273.43L550.66,273.49L550.88,273.94L550.78,274.28L549.93,275.15L549.55,275.68L549.21,276.88L548.81,276.8L548.11,277.5L548.17,277.74L547.83,278.25L547.52,278.23L547.42,278.81L547.95,279.16L548.48,279.33L549.02,279.05L548.88,277.91L549.34,278.04L549.21,279.28L548.54,279.42L547.8,280.31L546.51,281.1L545.57,282.2L546.08,282.51L545.52,283.07L545.19,283.79L545.14,284.31L544.81,285.11L544.47,285.46L544.48,286.17L544.11,286.83L544.05,287.7L543.39,288.41L542.8,288.63L542,289.75L541.07,289.67L539.73,288.91L538.94,288.91L538.1,289.21L537.58,289.22L537.26,288.83L536,288.29L535.93,287.58L536.23,287.37L536.55,286.46L537.07,285.63L537.41,284.67L537.44,284.08L537.69,283.46L536.19,282.86L535.2,283.03L534.98,283.35L534.49,283.57L534.17,283.91L533.29,284.19L532.92,284.62L532.97,285.19L532.73,285.74L532.77,286.72L532.24,287.13L531.72,287.21L530.65,287.7L530.14,288.06L529.67,288.83L529.89,289.7L530.45,289.84L529.93,290.76L528.59,291.48L528.12,291.81L527.39,292.55L527.22,293.08L526.79,293.52L526.55,294.38L526.62,295.17L526.96,295.36L526.95,296.18L526.62,297.28L526.77,297.54L526.42,298.56L526.45,299.28L525.97,300.05L525.86,300.64L525.42,301.48L525.45,301.93L525.07,303.06L524.69,303.55L524.5,304.2L523.5,305.34L523.16,306.15L523.16,306.7L523.33,307.28L523.63,307.56L524.3,307.7L524.02,308.7L524.1,309.15L523.69,310.44L523.63,311.24L523.78,311.64L524.24,312.1L524.32,312.61L524.9,313.3L525.25,314.8L525.18,315.48L524.82,316.42L524.73,316.93L524.73,318.3L525.16,319.87L525.58,320.54L526.02,320.5L526.27,320.84L526.06,321.81L526.09,323.06L526.48,323.36L526.62,324.24L527.2,324.92L526.17,325.73L525.54,325.71L524.76,325.83L523.86,326.45L523.26,326.54L518.53,326.47L516.51,326.58L514.2,326.86L513.05,327.11L512.09,327.41L507.73,328.51L506.65,328.91L505.18,329.6L503.33,330.3L502.28,330.95L501.32,331.66L500.87,332.1L498.4,335.13L497.57,336.01L497.35,337.13L497.54,339.18L496.93,340.52L496.9,341.86L496.68,343.08L495.66,344.96L495.33,346.51L495.48,346.78L495.5,347.55L494.88,347.8L494.37,348.46L493.75,348.71L492.72,349.46L492.55,349.73L492.56,350.28L491.4,351.38L490.71,351.8L490.64,352.13L482.76,339.51L481.43,339.64L480.71,339.52L480.71,338.92L481.83,338.71L482.25,338.4L482.02,337.79L481.33,337.68L478.03,338.38L476.54,336.1L476.45,335.23L478.7,333.01L459.02,301.56L459.73,300.43L459.01,299.47L457.79,299.79L457.41,298.83L464.09,277.45L466.92,268.22L468.2,264.2L496.15,260.32L495.22,263.54L494.88,264.54L496.85,265.58L497.31,265.98L498.06,267.36L499.02,267.36L499.32,267.11L499.72,267.13L501.21,267.91L501.82,268.06L509.86,271.85L513.63,272.47L520.94,274L522.67,274.25L530.17,275.65L530.94,275.72L531.03,275.52L530.9,272.41L531.18,270.96L531.48,270.55L531.53,269.8L532.3,269.11L532.35,268.61L532.85,268.01Z" class="land" id="OM-WU" title="Al Wusţá"/>
    <path d="M532.41,200.56L532.49,202.09L533.33,204.39L533.33,204.73L532.72,205.68L532.48,206.8L532.46,207.52L532.11,208.49L531.9,208.74L530.95,208.43L529.96,208.47L529.21,209.14L529.14,209.59L529.27,210.42L528.54,211.42L527.73,211.95L527.64,212.26L527.95,213.13L527.34,213.85L526.92,213.95L526.54,214.66L525.97,216.54L525.39,217.03L524.78,217.22L524.42,217.13L524.15,216.43L523.73,216.21L522.8,216.34L522.12,216.26L521.04,215.85L519.63,215.5L518.95,215.68L518.05,216.36L517.5,216.3L516.6,215.66L514.78,215.56L513.49,214.31L512.92,213.87L511.79,213.41L511.23,213.3L510.29,212.67L509.86,212.17L509.16,212.04L508.66,211.71L508.63,211.24L508.9,210.64L507.65,209.36L506.92,208.33L507.64,207.82L508.45,207.62L508.96,206.95L507.73,205.89L508.52,205.45L510.02,204.9L511.09,204.34L511.44,204.06L512.96,202.55L513.85,202.22L516.95,202.24L516.95,201.26L518.76,200.16L519.36,199.6L519.76,198.97L519.18,198.35L519.56,197.7L520.95,198.34L523.39,199L524.98,199.12L525.97,198.7L526.12,199.32L526.54,199.77L527.64,200.44L528.08,200.61L529.01,200.73L529.95,200.73L531.49,200.58Z" class="land" id="OM-BJ" title="Janūb al Bāţinah"/>
    <path d="M483.41,362.92L483.47,363.28L484.3,363.37L484.15,363.71L483.74,363.77L483.06,364.18L482.3,364.23L481.06,363.82L480.93,363.48L481.28,363.19L482.3,362.92L482.8,362.69L483.22,362.29ZM478.3,363.44L478.8,363.81L478.96,364.26L478.64,364.42L478.39,364.13L477.73,364.07ZM457.41,298.83L457.79,299.79L459.01,299.47L459.73,300.43L459.02,301.56L478.7,333.01L476.45,335.23L476.54,336.1L478.03,338.38L481.33,337.68L482.02,337.79L482.25,338.4L481.83,338.71L480.71,338.92L480.71,339.52L481.43,339.64L482.76,339.51L490.64,352.13L490.7,352.8L490.42,352.95L489.47,352.86L488.8,352.51L487.41,352.29L486.65,352.35L486.36,352.21L485.81,352.58L484.77,352.7L484.54,352.85L482.93,352.6L481.46,352.6L479.82,353.47L479.23,353.51L477.11,353.32L475.78,353.35L473.27,353.68L471.85,353.94L470.63,354.27L469.3,354.8L467.85,355.53L467.57,356.52L467.59,356.97L467.08,357.3L466.77,357.81L466.82,358.59L466.69,359.06L465.25,359.83L464.86,360.4L463.94,360.98L463.81,361.44L463.38,361.95L462.96,362.95L462.95,363.64L463.09,363.79L463.19,364.64L463.52,364.98L464.11,365L464.27,365.18L464.72,366.28L464.78,366.83L464.66,367.36L464.32,367.61L464.33,368.02L463.98,368.43L463.9,368.83L463.54,369.06L463.34,369.67L463.9,370.42L463.15,371.36L462.55,371.7L462.16,372.42L462.24,372.88L461.04,373.2L460.47,374.13L459.48,375.36L458.66,375.81L458.58,376.02L457.86,376.14L457.24,376.03L456.93,376.69L455.96,377.13L455.28,377.13L455.08,377.44L453.51,377.54L452.89,377.7L452.4,378L452.1,377.77L451.76,377.88L451.41,377.6L450.77,377.8L450.54,377.42L449.94,377.41L449.61,377.07L449.82,376.76L449.75,376.4L449.36,376.1L448.65,375.89L447.2,375.84L445.77,375.7L443.34,375.74L441.36,375.7L439.39,375.92L438.44,376.1L434.5,376.7L433.37,376.98L432.89,377.38L432.7,377.79L433,378.38L432.36,378.55L432.28,378.78L431.61,378.88L431.52,379.18L430.75,379.16L429.5,379.28L429.16,379.46L428.3,379.47L427.26,379.68L425.84,380.82L425.76,381.02L424.9,381.52L424.82,382.18L422.49,382.92L420.74,382.67L419.66,382.83L417.85,383.29L416.86,383.41L416.26,383.67L415.71,383.73L413.04,384.47L411.24,385.44L410.82,385.5L403.52,369.25L401.97,369.07L402.02,368.67L402.82,367.66L383.76,324.84L386.93,323.71L389.18,322.87L389.32,322.9L390.87,322.24L391.89,321.9L395.26,320.65L402.3,318.17L402.44,318.09L416.28,313.23L422.58,311.01L423.03,310.81L426.14,309.76L429.89,308.44L431.34,307.9L432.53,307.52L434.7,306.71L440.1,304.86L447.3,302.33L447.86,302.1Z" class="land" id="OM-ZU" title="Dhofar"/>
    <path d="M555.39,223.43L555.4,223.43L556.08,224.18L556.54,224.45L557.2,225.41L557.41,225.92L557.48,226.9L558.08,227.44L558.78,228.47L558.57,229.06L560.1,230.61L560.26,231.17L560.08,231.61L560.85,232.98L560.02,233.19L559.08,233.21L558.25,232.39L557.87,232.19L556.78,232.1L556.29,232.32L555.24,233.41L554.4,233.43L554.42,234.14L553.87,234.62L554.11,235.24L555.65,236.66L555.56,240.54L556.63,242.23L556.62,242.65L556.01,243.71L555.66,244.65L555.62,254.66L554.42,255.2L553.8,255.39L553.42,255.65L552.85,256.81L552.49,257.2L551.58,257.16L550.81,256.66L550.73,255.5L550.43,255.15L550.54,254.62L550.44,253.58L548.86,251.87L548.19,253.39L548.13,253.92L548.43,254.95L549.42,256.04L549.63,256.46L549.61,257.65L549.46,260.04L549.04,261.23L548.19,263.34L547.12,268.03L546.89,268.47L546.87,267.29L542.34,264.69L540.3,262.94L539.77,262.24L538.87,261.65L538.05,261.43L537.46,261.08L537,261.18L536.97,261.52L537.38,262.31L532.09,263.72L531.49,260.06L531.49,259.37L533.09,257.61L531.28,254.71L529.79,254.66L529.65,254.21L530.25,253.53L530.23,252.85L529.99,252.4L529.63,251.24L529.25,250.59L527.99,248.98L527.45,247.46L526.85,246.17L526.28,245.33L525.2,244.53L524.45,244.43L524.18,244.76L522.92,245.15L522.72,244.66L523.15,244.17L523.89,243.79L523.93,241.8L524.71,240.52L526.27,238.82L528.23,236.4L528.71,235.97L528.59,234.24L528.2,233.82L527.5,233.73L527.5,233.1L527.81,232.87L528.45,232.7L528.76,229.74L530.21,228.09L530.62,226.47L530.47,225.72L529.95,225.23L530.49,224.78L530.93,224.14L530.94,223.85L530.04,222.45L529.62,221.1L529.7,220.54L530.37,220.6L531.15,221.11L531.47,221.14L531.99,220.23L532.7,219.89L534.17,219.79L535.22,219.05L535.51,218.96L537.02,218.88L537.79,218.77L538.15,218.58L538.29,217.94L538.83,217.58L539.95,217.42L540.27,217.22L540.19,216.83L539.1,216.39L539.07,214.7L540.08,214.41L540.29,214.42L541.21,213.66L541.81,213.85L541.85,214.39L542.61,215.1L544.37,214.26L545.19,215.52L545.73,215.84L546.27,215.78L546.73,215.33L547.33,216.06L548.92,215.93L549.41,216.06L550.05,215.99L550.47,216.35L550.53,218.22L551.34,218.89L552.3,219.54L553.07,219.96L553.21,220.84L554.26,221.09L554.51,221.87L554.98,222.62L555.07,223.2Z" class="land" id="OM-SS" title="Shamāl ash Sharqīyah"/>
    <path d="M491.66,194.22L492.28,195.04L491.88,195.58L492.17,195.89L493.53,196.13L494.17,196.41L494.28,197.06L494.68,197.87L495.67,198.66L495.82,199.53L496.78,201.2L497.88,200.98L498.47,201.19L498.72,201.5L500.86,203.63L501.93,202.4L502.1,202.42L502.16,203.73L502.9,203.05L503.51,203.11L503.41,204.1L503.53,204.31L504.58,204.74L504.84,205.79L505.4,206.28L506.24,206.16L507,205.43L507.68,205.84L508.96,206.95L508.45,207.62L507.64,207.82L506.92,208.33L507.65,209.36L508.9,210.64L508.63,211.24L508.66,211.71L509.16,212.04L509.86,212.17L510.29,212.67L509.16,213.31L508.6,213.46L508.6,214.55L505.91,215.41L505.58,215.78L505.72,216.14L505.04,216.19L504.93,216.6L505.33,216.87L505.58,217.46L504.93,218.36L504.79,219.05L505.06,219.48L504.84,220.56L504.86,221.48L505.06,221.8L504.84,222.7L504.08,223.37L503.91,224.18L504.79,225.62L505.49,225.48L505.81,225.76L506.42,226.7L506.49,227.14L506.22,227.55L504.22,227.77L503.62,228.02L502.49,228.74L501.19,230.46L500.8,231.44L500.87,232.69L501.29,233.32L501.45,234.72L501.23,236.69L500.9,238.75L500.66,239.39L500.12,240.43L499.54,240.62L499.24,240.94L499.01,242.95L497.72,249.73L497.05,254.24L497.61,254.81L497.55,255.81L496.74,256.35L496.15,260.32L468.2,264.2L473.78,246.33L473.41,245.65L470.26,240.35L469.44,238.92L462.61,227.71L462.49,227.01L462.92,224.69L462.79,222.33L462.69,221.55L462.81,220.71L462.84,219.07L463.37,217.92L463.34,217.36L463.55,216.49L464.04,215.75L464.59,214.73L465.11,214.02L465.31,213.45L465.94,212.51L466.58,210.72L466.9,209.29L471.05,211.32L474.12,210.7L475.27,207.89L477.15,207.86L479.09,206.89L480.1,206.73L481.12,206.86L482.73,207.64L483.91,206.14L483.33,205.57L483.9,205.14L484.08,204.18L484.84,203.04L482.19,201.2L482.43,200.56L482.67,197.78L481.68,196.7L481.84,196.39L482.84,195.61L483.13,195.29L484.43,195.09L483.83,193.07L486.58,193.27L487.54,193.74L488.69,194.19L490.34,194.27Z" class="land" id="OM-ZA" title="Az̧ Z̧āhirah"/>
    <path d="M491.25,166.78L491.9,168.85L492.48,170.22L493.17,171.42L493.46,172.3L493.58,173.07L494.3,174.64L495.34,176.6L497.25,179.63L498.2,180.7L498.91,181.4L499.64,181.91L500.03,182.59L501.81,185.22L502.16,185.84L502.99,186.98L503.42,187.45L503.72,188.12L504.21,188.81L505.38,190.16L507.08,191.58L507.27,191.63L508.54,192.73L509.89,194L510.53,194.39L511.81,195.02L514.12,195.88L518.07,197.08L519.56,197.7L519.18,198.35L519.76,198.97L519.36,199.6L518.76,200.16L516.95,201.26L516.95,202.24L513.85,202.22L512.96,202.55L511.44,204.06L511.09,204.34L510.02,204.9L508.52,205.45L507.73,205.89L507.68,205.84L507,205.43L506.24,206.16L505.4,206.28L504.84,205.79L504.58,204.74L503.53,204.31L503.41,204.1L503.51,203.11L502.9,203.05L502.16,203.73L502.1,202.42L501.93,202.4L500.86,203.63L498.72,201.5L498.47,201.19L497.88,200.98L496.78,201.2L495.82,199.53L495.67,198.66L494.68,197.87L494.28,197.06L494.17,196.41L493.53,196.13L492.17,195.89L491.88,195.58L492.28,195.04L491.66,194.22L492.15,194.11L492.42,193.72L492.02,193.24L491.32,193.02L490.88,190.02L490.61,189.62L489.56,188.72L489.39,187.9L489.65,186.98L489.47,186.06L489.48,185.14L490.57,184.41L490.85,183.94L490.71,183.22L489.4,182.17L488,182.09L487.97,180.26L487.24,178.88L487,178.04L486.98,177.34L487.37,177.05L488.07,177.3L488.66,177.28L488.7,176.97L487.77,176.18L487.66,175.77L487.79,174.35L487.98,173.7L487.76,173.35L486.52,172.16L486.73,171.23L487.34,170.66L487.8,170.71L488.75,170.41L489.09,170.13L489.38,169.45L490.47,169.1L490.62,168.8L490.49,167.94L490.61,166.96Z" class="land" id="OM-BS" title="Shamāl al Bāţinah"/>
  </g>
</svg>