<?xml version="1.0" encoding="UTF-8"?>
<svg xmlns="http://www.w3.org/2000/svg" width="313.85" height="262.29" viewBox="323.07 125.86 313.85 262.29" style="background-color:#000000">
  <!-- Created using SVG Map Generator: dojo.amcharts.com/svg-map-generator -->
  <style>
    .land { fill: #ffffff; stroke: #000000; stroke-width: 0.65; }
  </style>
  <g id="polygons">
    <path d="M533.32,190.63L533.42,190.94L530.99,191.87L529.69,194.25L528.3,194.97L526.74,195.2L523.46,196.71L521.84,196.1L521.98,193.45L520.93,192.59L519.7,193.85L518.49,193.39L517.32,191.58L515.88,190.83L514.7,192.02L512.52,192.74L512.63,195.45L510.26,195.64L508.31,197.58L507.93,200.36L506.15,202.91L504.2,203.62L503.5,205.64L504.45,207.46L503.64,208.7L502.16,208.78L501.29,206.58L498.36,206.91L499.2,210.47L497.56,211.25L496.27,210.87L494.16,212.77L493.74,215.31L494.64,218.69L497.82,220.1L497.73,223.15L496.13,223.54L494.9,225.34L494.88,226.77L493.69,227.56L493.79,228.69L492.65,232.66L490.77,235.66L489.81,236.64L489.53,238.51L490.09,239.76L489.81,241.44L488.8,243.6L486.46,243.83L484.51,243.22L482.76,244.09L481.62,246L479.68,246.48L479.39,248.33L478.98,247.09L479.41,244.36L479.33,240.96L476.63,241.68L473.91,239.72L474,235.53L474.35,232.61L472.03,230.62L472.52,228.97L470.07,229.37L469.42,230.59L467.53,231.44L464.4,231.56L463.57,227.47L463.71,223.47L463.05,221.43L463.78,220.03L465.42,219.37L466.75,217.47L465.71,215.46L467.88,213.51L467.18,212.01L467.53,210.63L468.81,209.22L470.68,209.11L472.03,208.38L473.5,209.01L475.93,208.07L476.65,206.69L478.13,206.99L481.17,203.15L478.77,200.5L479.15,198.23L478.09,196.57L475.61,196.3L475.07,194.66L473.43,192.45L474.06,190.74L475.71,190.55L476.78,191.16L482.56,191.93L483.79,192.57L485.32,191.85L488.19,192.04L493.08,190.12L494.36,187.97L494.02,185.83L494.83,184.01L493.26,183.27L492.12,181.96L491.94,180.09L493.62,179.58L493.86,177.53L496,176.28L497.42,173.74L500.37,172.23L501.24,170.73L500.83,169.35L503.36,167.01L501.34,164.89L503.06,162.47L502.22,160.86L502.64,159.79L500.66,158.7L501.5,157.01L500.16,155.66L499.91,153.84L498.47,151.76L496.08,150.44L496.44,148.57L499.39,146.56L499.66,145.63L502.03,144.25L503.27,141.28L505.91,142.77L506.5,140.67L508.16,139.38L510.91,138.72L512.36,137.53L513.28,135.47L517.21,134.99L519.87,133.48L522.63,133.75L526.02,133.26L527.06,132.67L532.15,132.45L534.74,132.84L536.24,132.28L536.82,133.26L539.51,134.59L539.64,136.51L537.57,136.2L535.8,136.58L531.64,135.58L529.01,136.41L527.52,136.16L525.72,137.32L526.14,138.58L524.27,141.33L522.88,141.7L522.48,143.28L518.47,145.51L517.36,146.82L517.01,149.1L517.8,150.79L516.91,152.97L517.94,154.08L519.51,154.64L522.06,153.87L524.54,154.32L525.98,153.73L526.98,154.23L527.17,156.86L529.56,158.78L531.76,159.61L537.78,160.63L538.22,161.01L536.45,163.43L536.9,166.71L538.1,166.38L540.01,166.95L543.48,168.66L542.48,169.36L542.8,170.8L541.12,173.83L538.66,174.64L536.89,175.68L535.86,177.3L535.49,179.85L534.51,179.43L532.22,180.09L531.51,184.03L532.58,185.67Z" class="land" id="PK-KP" title="Khyber Pakhtunkhwa"/>
    <path d="M421.41,363.58L423.96,361.41L425.22,361.23L426.56,359.75L426.62,358.61L428.37,356.9L428.8,354.19L430.93,350.82L432.33,349.71L433.35,347.07L433.24,344.56L433.63,341.54L428.93,333.26L428.56,330.9L428.83,329.24L428.52,327.26L428.77,325.33L428.28,319.93L428.99,317.37L429.21,315.18L430.09,314.17L430.54,312.58L432.08,310.95L432.8,308.67L436.84,308.05L441.21,306.24L442.1,304.76L447.06,300.79L448.88,299.95L450.44,297.95L452.73,297.57L455.6,297.8L465.38,297.4L467.18,296.61L468.95,297.43L471.22,297.81L472.29,298.99L472.38,300.35L473.84,304.36L474.85,306.07L476.22,307.36L478.96,308.62L477.32,310.81L475.81,314.73L474.49,315.73L473.27,317.57L470.05,320.38L468.6,321.97L467.53,324.72L467.05,328.61L467.57,329.83L473.56,332.76L476.64,332.42L478.31,333.31L478.57,334.49L477.94,340.38L476.91,342.07L477.13,344.45L478.48,346.73L480.15,348.89L482.13,349.58L484.37,349.34L485.7,348.79L486.76,349.63L486.64,354.58L488.16,356.85L490.27,359.05L491.11,362.85L493.77,367.46L492.02,368.93L492.13,371.78L493.97,371.98L492.78,373.49L491.98,373.25L488.81,375.74L486.33,375.7L485,375.21L484.77,372.2L481.64,373.38L477.5,374.51L476.52,376.28L475.19,376.78L471.01,376.6L468.97,374.74L467.33,375.16L464.19,374.77L462.37,375.52L460.61,374.9L459.09,375.68L458.09,374.5L457.25,374.99L456.22,374.19L455.2,374.63L454.95,380.44L449.47,380.47L448.13,380.28L446.38,382L446.04,383.81L445.22,385.49L444.39,384.79L444.28,383.24L442.21,383.46L440.37,382.22L437.8,383.65L433.66,380.22L431.83,378.33L430.96,375.9L430.72,372.2L429.66,370.76L428.65,367.82L429.49,366.79L428.63,365.44L424.19,364.36L421.81,364.49Z" class="land" id="PK-SD" title="Sindh"/>
    <path d="M523.46,196.71L521.51,197.26L522.97,199.82L525.64,198.13L527.77,201.28L529.1,199.75L529.3,198.1L530.5,197.23L528.3,194.97L529.69,194.25L530.99,191.87L533.42,190.94L533.66,191.62L534.57,193.49L534.26,195.33L534.79,197.12L534.3,198.59L535.25,199.68L534.33,203.57L535.83,207.8L535.28,209.03L538.2,210.71L540.1,210.22L541.44,211.83L546.82,214.51L547.42,215.34L549,214.97L550.15,215.97L551.51,215.64L552.53,217.59L551.97,218.51L552.7,220.81L555.15,220.75L557.42,221.69L558.36,220.83L559.96,222.21L560.96,222.15L563.3,223.96L563.84,225.84L561.8,228.72L557.94,229.85L555.76,229.43L554.72,231.28L553.07,231.22L550.56,233.73L549.91,235.78L551.97,240.86L549.99,244.96L549.7,247.05L552.55,247.21L552.46,248.53L551.28,248.88L549.14,250.37L546.6,252.64L545.22,255.09L542.79,258.43L541.13,259.28L539.28,261.8L540.7,263.84L540.84,265.11L537.89,267.56L535,268.4L531.38,270L529.4,277.22L526.4,283.04L524.93,284.96L523.97,287.23L520.18,288.96L514.8,292.18L513.44,294.04L511.51,299.78L508.4,302.61L507.37,304.1L506.78,307.26L502.85,308.91L498.75,308.97L496.5,309.42L490.1,312.09L488.02,311.74L486.71,309.47L486.42,307.77L484.81,306.1L483.43,305.84L481.57,306.32L478.96,308.62L476.22,307.36L474.85,306.07L473.84,304.36L472.38,300.35L472.29,298.99L471.22,297.81L468.95,297.43L467.18,296.61L465.38,297.4L464.53,295.59L465.97,294.77L467.88,291.17L467.48,289.08L469.75,286.3L470.72,285.75L471.45,282.19L469.81,281.33L469.99,280.17L468.41,279.52L468.97,277.53L468.95,275.42L471.31,274.22L472.87,272.53L474.95,267.84L474.94,266.49L476.33,264.16L474.28,263.42L474.9,260.7L476.8,257.39L476.78,255.32L478.35,254.53L479.19,252.01L479.39,248.33L479.68,246.48L481.62,246L482.76,244.09L484.51,243.22L486.46,243.83L488.8,243.6L489.81,241.44L490.09,239.76L489.53,238.51L489.81,236.64L490.77,235.66L492.65,232.66L493.79,228.69L493.69,227.56L494.88,226.77L494.9,225.34L496.13,223.54L497.73,223.15L497.82,220.1L494.64,218.69L493.74,215.31L494.16,212.77L496.27,210.87L497.56,211.25L499.2,210.47L498.36,206.91L501.29,206.58L502.16,208.78L503.64,208.7L504.45,207.46L503.5,205.64L504.2,203.62L506.15,202.91L507.93,200.36L508.31,197.58L510.26,195.64L512.63,195.45L512.52,192.74L514.7,192.02L515.88,190.83L517.32,191.58L518.49,193.39L519.7,193.85L520.93,192.59L521.98,193.45L521.84,196.1Z" class="land" id="PK-PB" title="Punjab"/>
    <path d="M563.3,223.96L560.96,222.15L559.96,222.21L558.36,220.83L557.42,221.69L555.15,220.75L552.7,220.81L551.97,218.51L552.53,217.59L551.51,215.64L550.15,215.97L549,214.97L547.42,215.34L546.82,214.51L541.44,211.83L540.1,210.22L538.2,210.71L535.28,209.03L535.83,207.8L534.33,203.57L535.25,199.68L534.3,198.59L534.79,197.12L534.26,195.33L534.57,193.49L533.66,191.62L533.32,190.63L532.58,185.67L531.51,184.03L532.22,180.09L534.51,179.43L535.49,179.85L535.86,177.3L536.89,175.68L538.66,174.64L541.12,173.83L542.8,170.8L542.48,169.36L543.48,168.66L546.06,169.8L548.85,168.5L549.98,168.46L551.45,170.76L551.7,172.86L553.12,173.09L554.4,174.23L557.19,175.45L559.37,174.58L560.27,173.34L561.74,175.02L562.21,177.31L561.4,178.14L562.24,178.39L563.63,179.94L570.19,180.87L571.74,179.69L575.55,177.66L576.92,178.32L579.53,176.55L580.67,176.47L582.13,175.29L583.57,176.02L585.55,175.99L586.56,174.38L586.66,172.64L588.65,171.72L590.74,172.39L591.08,170.39L593.37,170.07L601.49,163.77L604.66,161.07L606.56,161.62L607.36,160.66L608.77,161.41L607.71,164.64L609.04,167.88L610.14,169.18L610.36,171.63L612.02,175.07L612.53,177.79L613.72,178.82L615.88,179.43L618.64,179.54L621.49,182.13L624.15,183.27L624.56,186.04L623.9,186.99L620.61,188.5L620.05,189.83L621.49,193.98L621.65,199.9L624.81,204.04L626.22,204.41L628.7,206.14L631.14,206.17L631.86,207.18L631.11,208.46L631.3,211.19L632.96,212.72L634.28,215.4L633.43,217.12L630.7,219.8L629.23,219.57L627.29,220.58L627.04,222.17L624.81,222.69L621.8,220.95L621.11,218.68L621.23,217.6L618.13,218.87L616.91,218.38L614.93,219.24L613.56,220.61L613.12,218.64L614.46,217.38L614.4,214.96L612.11,216.52L610.01,217.01L609.11,218.2L606.94,216.6L606.98,214.85L606.13,214.43L605.28,212.27L603.18,210.14L600.36,212.27L596.22,213.17L593.48,212.22L590.05,209.98L587.46,207.26L584.64,207.69L583.9,206.82L580.77,207.22L578.85,208.84L578.23,210.25L575.86,210.79L575.67,211.5L573.43,213.14L572.13,212.26L570.94,213.43L572.88,215.65L573.06,217.87L571.1,220.93L569.57,222.27L566.57,223.62Z" class="land" id="PK-JK" title="Azad Jammu and Kashmir"/>
    <path d="M536.24,132.28L538.76,132.34L541.85,133.62L543.37,133.73L543.9,132.32L545.55,132.52L548.32,130.55L549.91,130.49L552.64,128.51L556.58,131.81L558.28,130.23L560.28,130.06L561.77,131.34L564.48,131.64L564.82,135.16L565.34,136.19L566.85,135.27L568.6,135.22L570.85,136.36L572.99,138.27L573.22,139.73L574.74,142.6L574.04,144.06L575.24,146.31L573.28,148.22L574.35,150.58L575.83,150.65L577.97,153.98L580.06,154.33L583.66,152.62L584.13,155.32L585.29,155.86L586.71,157.56L588.35,157.62L590.02,158.94L591.72,159.08L593.86,160.52L595.93,160.47L597.39,161.72L599.61,161.17L602.24,161.48L604.66,161.07L601.49,163.77L593.37,170.07L591.08,170.39L590.74,172.39L588.65,171.72L586.66,172.64L586.56,174.38L585.55,175.99L583.57,176.02L582.13,175.29L580.67,176.47L579.53,176.55L576.92,178.32L575.55,177.66L571.74,179.69L570.19,180.87L563.63,179.94L562.24,178.39L561.4,178.14L562.21,177.31L561.74,175.02L560.27,173.34L559.37,174.58L557.19,175.45L554.4,174.23L553.12,173.09L551.7,172.86L551.45,170.76L549.98,168.46L548.85,168.5L546.06,169.8L543.48,168.66L540.01,166.95L538.1,166.38L536.9,166.71L536.45,163.43L538.22,161.01L537.78,160.63L531.76,159.61L529.56,158.78L527.17,156.86L526.98,154.23L525.98,153.73L524.54,154.32L522.06,153.87L519.51,154.64L517.94,154.08L516.91,152.97L517.8,150.79L517.01,149.1L517.36,146.82L518.47,145.51L522.48,143.28L522.88,141.7L524.27,141.33L526.14,138.58L525.72,137.32L527.52,136.16L529.01,136.41L531.64,135.58L535.8,136.58L537.57,136.2L539.64,136.51L539.51,134.59L536.82,133.26Z" class="land" id="PK-GB" title="Gilgit-Baltistan"/>
    <path d="M464.4,231.56L467.53,231.44L469.42,230.59L470.07,229.37L472.52,228.97L472.03,230.62L474.35,232.61L474,235.53L473.91,239.72L476.63,241.68L479.33,240.96L479.41,244.36L478.98,247.09L479.39,248.33L479.19,252.01L478.35,254.53L476.78,255.32L476.8,257.39L474.9,260.7L474.28,263.42L476.33,264.16L474.94,266.49L474.95,267.84L472.87,272.53L471.31,274.22L468.95,275.42L468.97,277.53L468.41,279.52L469.99,280.17L469.81,281.33L471.45,282.19L470.72,285.75L469.75,286.3L467.48,289.08L467.88,291.17L465.97,294.77L464.53,295.59L465.38,297.4L455.6,297.8L452.73,297.57L450.44,297.95L448.88,299.95L447.06,300.79L442.1,304.76L441.21,306.24L436.84,308.05L432.8,308.67L432.08,310.95L430.54,312.58L430.09,314.17L429.21,315.18L428.99,317.37L428.28,319.93L428.77,325.33L428.52,327.26L428.83,329.24L428.56,330.9L428.93,333.26L433.63,341.54L433.24,344.56L433.35,347.07L432.33,349.71L430.93,350.82L428.8,354.19L428.37,356.9L426.62,358.61L426.56,359.75L425.22,361.23L423.96,361.41L421.41,363.58L420.84,363.42L421.1,360.07L421.78,358.47L421.49,357.55L418.86,355.42L419.36,354.47L416.72,350.88L414,350.57L411.94,351.92L413.26,352.71L414.05,351.72L415.16,351.61L416.69,353.75L414.24,353.13L411.15,353.51L409.17,354.1L407.03,354.09L404.15,355.45L400.54,354.65L397.3,354.79L395.53,356.4L394.35,356.04L389.69,355.81L387.83,356.64L387.59,357.82L385.69,356.77L383.62,357.4L380.72,355.98L377.67,355.61L375.44,355.65L372.52,354.65L371.16,354.74L368.62,355.83L368.1,357.18L364.98,357.72L363.11,357.09L360.35,357.86L356.07,357.02L353.59,356.98L351.52,357.3L349.44,358.79L347.78,357.77L345.38,358.06L345.25,359.93L342.93,359.59L341.5,360.09L341.19,361.2L339.15,360.8L340.19,358.87L337.43,358.12L338.17,356.26L338.73,347.1L340.23,346.75L341.34,339.24L344.85,337.64L346.02,336.27L348.49,336.85L348.2,335.85L348.88,333.8L351,333L353.85,332.68L356.66,331.44L363.09,331.54L363.59,329.87L363.47,327.92L364.94,327.35L364.53,326.35L364.52,323.5L365.23,321.72L363.34,320.57L361.27,320.72L359.51,321.48L357.37,321.1L356.71,320.38L357.93,316.42L357.34,310.1L356.49,305.87L356.88,301.3L353.59,301.71L350.7,298.65L348.72,297.81L344.56,296.98L340.62,294.5L338.59,292.05L335.68,287.6L334.44,284.09L333.27,282.41L333.51,281.16L330.55,278.26L325.72,271.91L342.59,277.48L343.93,278.18L350.37,280.42L351.77,280.64L362.22,279.39L365.24,279.4L366.48,279.02L371.25,278.75L376.27,279.71L378.32,280.88L379.63,280.26L379.88,279.02L381.22,278.19L384.11,277.6L384.8,276.94L387.17,276.77L394.12,277.65L406.19,274.04L414.08,271.82L415.65,269.35L413.62,267.56L415.45,263.17L415.69,259.38L414.54,258.56L414.98,256.55L416.03,254.39L415.61,253.81L417.64,251.25L419.46,250.47L421.17,248.52L421.89,246.03L424.55,244.02L426.37,243.72L426.39,245.21L431.18,246.21L434.34,245.39L439.16,242.85L438.35,241.73L436.59,242L436.17,240.01L438.17,240L440.33,237.99L442.12,237.58L443.5,236.67L445.4,233.62L447.34,235.12L449.56,235.11L452.01,233.74L454.17,234.87L454.42,236.29L455.87,237.96L457.71,238.06L461.02,236.16L462.34,233.35Z" class="land" id="PK-BA" title="Balochistan"/>
    <path d="M528.3,194.97L530.5,197.23L529.3,198.1L529.1,199.75L527.77,201.28L525.64,198.13L522.97,199.82L521.51,197.26L523.46,196.71L526.74,195.2Z" class="land" id="PK-IS" title="Islamabad"/>
  </g>
</svg>