<?xml version="1.0" encoding="UTF-8"?>
<svg xmlns="http://www.w3.org/2000/svg" width="100.26" height="262.3" viewBox="429.87 125.85 100.26 262.3" style="background-color:#000000">
  <!-- Created using SVG Map Generator: dojo.amcharts.com/svg-map-generator -->
  <style>
    .land { fill: #ffffff; stroke: #000000; stroke-width: 0.65; }
  </style>
  <g id="polygons">
    <path d="M506.59,197.7L502.96,196.34L500.15,196.41L499.08,194.28L498.98,191.55L498.08,190.02L497.17,189.34L495.63,189.2L492.91,189.71L491.82,189.59L490.09,188.52L488.33,187.07L487.49,187.3L486.47,188.46L485.61,189.51L483.13,191.02L480.46,192.19L479.95,193.17L479.45,195.78L478.96,197.13L478.73,198.8L476.9,199.83L475.93,201.42L475.87,203.19L476.13,205.07L475.83,205.64L474.72,207.01L473.71,209.3L473.64,210.83L474.7,212.6L475.18,215.33L474.55,216.87L474.49,217.4L475.25,218.45L475.89,219.68L475.95,221.4L475.49,222.38L475.61,224.03L474.85,225.66L474.99,227.15L475.84,228.31L477.11,229.32L477.38,230.38L476.89,231.9L474.11,232.4L473.42,233.42L473.89,235.18L474.97,235.65L476.5,235.87L477.92,235.36L479.72,233.77L481.25,234.72L484.77,236.24L487.36,236.22L488.37,237.29L488.2,239.65L487.62,240.57L484.74,240.77L482.37,241.73L479.96,244.13L479.46,244.63L476.85,245.89L474.23,248.54L472.86,250.69L472.37,253.14L472.61,255.8L472.41,256.94L471.29,259.06L470.06,260.66L468.97,262.85L469.13,264.14L469.75,265.16L470.64,265.9L472.03,266.27L474.55,265.94L476.89,265.36L482.37,265.75L483.55,265.14L484.32,265.32L487.9,264.77L488.72,264.28L491.73,261.04L493.53,260.24L495.92,258.4L497.35,257.13L498.23,256.82L501.91,256.88L501.88,261.34L501.68,262.66L500.76,265.28L497.41,271.45L497.13,272.76L497.76,274.16L500.25,277.51L500.69,278.47L501.03,280.84L500.3,283.7L498.18,287L497.95,288.32L498.54,290.64L498.53,291.98L497.57,292.87L495.48,294.25L493.99,297.55L494.25,299.79L493.97,301.1L492.9,301.48L492.07,302.49L491.58,303.84L491.57,306.48L490.79,308.32L489.43,310.83L489.13,312.27L488.3,313.04L486.66,316.23L486.53,317.29L485.27,323.16L484.88,324.32L484.12,325.43L483.89,326.3L485.82,329.94L485.94,331.71L484.7,333.09L484.34,334.19L484.53,335.48L483.48,337.85L485.22,345.6L480.91,351.81L479.75,356.44L479.93,361.46L478.29,364.76L478.04,365.97L478.04,368.22L477.09,372.19L477.25,376.95L474.68,379.57L473.54,382.3L472.89,382.32L471.39,384.49L470.46,385.5L469.05,383.86L468.33,382.47L467.84,379.54L468.36,377.79L468.62,376.04L468.37,374.84L467.37,373.09L467.41,370L461.72,353.94L461.84,352.96L460.03,347.96L455.23,334.33L454.1,330.05L450.22,327.49L450.07,325.51L451.23,322.25L448.81,319.4L448.97,315.87L447.36,309.14L442.46,298.79L439.28,289.44L434.69,274.12L437.62,271.87L439.67,270.09L440.29,268.95L440.13,265.32L440.4,264.42L440.62,263.69L442.92,260.86L448.07,255.85L449.68,255.46L450.18,254.58L450.17,253.32L449.41,252.2L446.99,249.93L448.57,247.59L449.77,245.42L450.83,244.1L453.36,239.55L455.34,235.34L455.45,234.53L456.29,233.54L457.91,229.53L458.09,228.73L459.01,227.29L459.79,225.28L461.32,219.89L461.74,219.61L463.35,215.03L463.91,213.15L464.54,210.21L465.1,208.86L465.93,205.7L467.17,200.3L468.1,195.85L468.3,195.56L469.04,191.84L469.75,187.51L470.43,185.4L470.7,182.52L471.2,180.24L471.4,177.19L472.18,176.35L472.49,174.8L472.89,170.37L472.89,168.98L474.31,168.2L476.27,169.81L478.02,168.88L478.73,167.83L479.71,165.31L480,163.18L479.37,161.96L479.74,159.2L480.28,156.78L480.98,154.46L481.27,151.41L485.51,151.23L487.48,151.57L488.64,150.93L490.7,150.86L492.84,150.56L493.94,150.82L495.4,153.21L496.56,153.8L497.98,153.17L499.51,153.05L501.13,151.54L501.83,151.18L502.81,151.41L503.88,150.9L504.08,149.78L505.14,149.33L505.88,145.6L506.51,144.23L506.3,142L506.77,140.91L507.62,139.95L508.15,138.77L508.67,138.94L509.99,140.83L510.88,139.83L514.2,138.04L515.6,136.17L516.4,135.61L517.8,135.73L519.77,135.11L520.8,134.27L521.3,133.29L521.56,131.59L522.88,130.21L525.95,128.5L526.31,129.21L525.53,131.02L524.43,132.29L523.78,134.73L524.05,137.44L523.32,138.99L525.1,141.02L525.55,143.15L525.23,144.23L524.55,145.12L524.66,145.84L526.31,146.29L527.48,148L527.35,149.74L526.46,150.53L527.1,152.34L526.17,152.59L525.07,152.29L524.69,152.83L524.98,153.99L524.81,156.08L525.1,157.03L525.58,161.45L526.55,162.79L526.74,163.62L524.45,168.28L523.55,169.25L522.18,171.71L520.44,173.74L520.04,173.31L517.97,174.13L517.53,175.52L516.26,175.7L514.57,177.14L513.62,177.57L512.25,177.67L510.01,178.79L509.75,180.13L509.01,180.94L507.72,181.69L507.73,183.56L508.38,184.5L508.04,187.06L507.65,188.53L506.97,188.86L508.11,190.97L507.42,192.21L507.92,193.07L506.92,194.88L507.08,196.36L506.51,196.84Z" class="land" id="IL" title="Israel"/>
    <path d="M434.69,274.12L432.52,266.91L432.64,266.82L434.66,268.21L436.6,269.25L436.98,269.71L437.62,271.87Z" class="land" id="PS-RFH" title="Rafaḩ"/>
    <path d="M437.62,271.87L436.98,269.71L436.6,269.25L434.66,268.21L432.64,266.82L436.81,262.6L437.35,263.03L439.16,263.69L440.4,264.42L440.13,265.32L440.29,268.95L439.67,270.09Z" class="land" id="PS-KYS" title="Khān Yūnis"/>
    <path d="M440.4,264.42L439.16,263.69L437.35,263.03L436.81,262.6L439.17,260.14L440.48,258.55L442.48,258.92L442.92,260.86L440.62,263.69Z" class="land" id="PS-DEB" title="Dayr al Balaḩ"/>
    <path d="M442.92,260.86L442.48,258.92L440.48,258.55L442.46,256.22L445,252.94L446.41,255.04L448.07,255.85Z" class="land" id="PS-GZA" title="Ghazzah"/>
    <path d="M445,252.94L446.99,249.94L449.41,252.2L450.17,253.32L450.18,254.58L449.68,255.46L448.07,255.85L446.41,255.04Z" class="land" id="PS-NGZ" title="Shamāl Ghazzah"/>
    <path d="M479.96,244.13L481.25,244.75L481.86,246.06L482.54,246.44L483.36,246.2L484.38,246.75L484.19,248.72L485.96,249.08L486.65,248.84L486.85,247.4L487.82,248.18L488.9,251.08L488.91,251.88L490.68,253.8L492.17,254.41L493.02,255.11L493.05,256.82L493.56,257.74L494.88,258.42L495.92,258.4L493.53,260.24L491.73,261.04L488.72,264.28L487.9,264.77L484.32,265.32L483.55,265.14L482.37,265.75L476.89,265.36L474.55,265.94L472.03,266.27L470.64,265.9L469.75,265.16L469.13,264.14L468.97,262.85L470.06,260.66L471.29,259.06L472.41,256.94L472.61,255.8L472.37,253.14L472.86,250.69L474.23,248.54L476.85,245.89L479.46,244.63Z" class="land" id="PS-HBN" title="Al Khalīl"/>
    <path d="M495.92,258.4L494.88,258.42L493.56,257.74L493.05,256.82L493.02,255.11L492.17,254.41L490.68,253.8L488.91,251.88L488.9,251.08L487.82,248.18L486.85,247.4L486.65,248.84L485.96,249.08L484.19,248.72L484.38,246.75L483.36,246.2L482.54,246.44L481.86,246.06L481.25,244.75L479.96,244.13L482.37,241.73L484.74,240.77L487.62,240.57L489.31,241.73L490.37,241.83L491.5,241.39L493.39,241.22L494.61,240.62L496.25,240.77L497.56,240.31L500.22,240.73L500.78,240.57L502.22,241.12L504.44,243.38L502.06,251.25L501.91,256.88L498.23,256.82L497.35,257.13Z" class="land" id="PS-BTH" title="Bayt Laḩm"/>
    <path d="M505.02,241.64L504.44,243.38L502.22,241.12L500.78,240.57L500.22,240.73L497.56,240.31L496.25,240.77L494.61,240.62L493.39,241.22L491.5,241.39L490.37,241.83L489.31,241.73L487.62,240.57L488.2,239.65L488.37,237.29L487.36,236.22L484.77,236.24L481.25,234.72L479.72,233.77L480.56,232.97L480.77,231.97L481.31,231.64L482.28,232.02L486.15,232.16L486.36,231.16L489.29,230.96L489.88,231.43L491,230.99L492.09,231.27L492.85,232.13L493.81,232.34L494.91,234.06L496.26,234.04L496.33,235.42L497.32,236.55L496.98,237.28L498.14,238.25L498.9,238.3L500.1,237.84L501.68,237.82L502.45,238.3L502.87,239.67Z" class="land" id="PS-JEM" title="Al Quds"/>
    <path d="M496.26,234.04L494.91,234.06L493.81,232.34L492.85,232.13L492.09,231.27L491,230.99L489.88,231.43L489.29,230.96L486.36,231.16L486.15,232.16L482.28,232.02L481.31,231.64L480.77,231.97L480.56,232.97L479.72,233.77L477.92,235.36L476.5,235.87L474.97,235.65L473.89,235.18L473.42,233.42L474.11,232.4L476.89,231.9L477.38,230.38L477.11,229.32L475.84,228.31L474.99,227.15L474.85,225.66L475.61,224.03L475.49,222.38L475.95,221.4L475.89,219.68L475.32,218.6L476.41,218.76L477.13,219.39L480.06,219.73L481.61,219.2L482.82,218.44L483.93,218.95L485.09,218.87L486.38,219.62L487.38,219.54L488.55,219.01L489.31,219.52L491.27,219.5L491.86,219.92L492.93,219.81L494.6,220.4L495.18,220.93L495.68,222.24L496.91,221.91L498.17,222.01L498.59,222.53L497.35,223.39L498.96,224.47L499.02,225.26L498.21,226.41L498.48,228.74L498.94,229.6L498.37,231.06L498.42,233.8L498.04,234.3Z" class="land" id="PS-RBH" title="Ramallah"/>
    <path d="M486.38,219.62L485.09,218.87L483.93,218.95L482.82,218.44L481.61,219.2L480.06,219.73L477.13,219.39L476.41,218.76L475.32,218.6L475.25,218.45L474.49,217.4L474.53,217.13L475.47,216.31L477.41,215.69L478.76,214.79L480.53,211.74L483.63,212.78L484.95,212.67L485.8,214.36L486.67,215L488.49,214.7L489.91,215.15L490.53,215.94L490.28,216.98L487.83,217.99Z" class="land" id="PS-SLT" title="Salfīt"/>
    <path d="M484.95,212.67L483.63,212.78L480.53,211.74L478.76,214.79L477.41,215.69L475.47,216.31L474.53,217.13L474.55,216.87L475.18,215.33L474.7,212.6L473.64,210.83L473.71,209.3L474.72,207.01L475.83,205.64L478.39,209.07L479.59,209.86L480.33,209.81L481.39,209.12L482.62,207.42L485.01,206.88L485.97,208.39L485.76,210.76Z" class="land" id="PS-QQA" title="Qalqīlyah"/>
    <path d="M486.38,219.62L487.83,217.99L490.28,216.98L490.53,215.94L489.91,215.15L488.49,214.7L486.67,215L485.8,214.36L484.95,212.67L485.76,210.76L485.97,208.39L485.01,206.88L484.39,205.87L484.93,204.83L485.05,203.77L484.07,202.89L483.84,201.54L485.41,202.22L485.71,202.63L488.02,202.52L488.54,202.81L490.91,202.98L491.89,202.25L493.82,203.77L496.46,205.92L498.58,205.2L499.66,205.52L500.44,207.81L499.64,209.73L498.58,211.18L499.78,211.24L500.02,212.02L499.71,213.2L499.87,214.45L499.67,215.56L500.08,217.11L497.73,217.8L497.42,218.83L497.76,219.55L498.17,222.01L496.91,221.91L495.68,222.24L495.18,220.93L494.6,220.4L492.93,219.81L491.86,219.92L491.27,219.5L489.31,219.52L488.55,219.01L487.38,219.54Z" class="land" id="PS-NBS" title="Nāblus"/>
    <path d="M506.59,197.7L506.48,198.88L507.03,199.78L506.65,201.76L507.09,202.93L506.8,204.16L507.18,205.12L506.98,206.57L507.47,209.84L507.33,210.4L504.92,210.51L503.74,211.43L502.98,211.05L502.57,209.76L501.9,208.69L500.44,207.81L499.66,205.52L498.58,205.2L496.46,205.92L493.82,203.77L494.55,202.25L494.44,200.94L494.9,199.32L496.39,198.63L497.75,198.68L498.1,198.12L499.49,197.3L500.15,196.41L502.96,196.34Z" class="land" id="PS-TBS" title="Ţūbās"/>
    <path d="M485.01,206.88L482.62,207.42L481.39,209.12L480.33,209.81L479.59,209.86L478.39,209.07L475.83,205.64L476.13,205.07L475.87,203.19L475.93,201.42L476.9,199.83L478.73,198.8L478.96,197.13L479.45,195.78L479.95,193.17L480.14,192.82L481.22,193.25L481.14,194.45L480.26,194.87L480.34,195.7L482.28,195.04L482.96,195.58L482.64,196.36L482.39,199.15L483.75,200.13L485.4,200.91L485.41,202.22L483.84,201.54L484.07,202.89L485.05,203.77L484.93,204.83L484.39,205.87Z" class="land" id="PS-TKM" title="Ţūlkarm"/>
    <path d="M500.15,196.41L499.49,197.3L498.1,198.12L497.75,198.68L496.39,198.63L494.9,199.32L494.44,200.94L494.55,202.25L493.82,203.77L491.89,202.25L490.91,202.98L488.54,202.81L488.02,202.52L485.71,202.63L485.41,202.22L485.4,200.91L483.75,200.13L482.39,199.15L482.64,196.36L482.96,195.58L482.28,195.04L480.34,195.7L480.26,194.87L481.14,194.45L481.22,193.25L480.14,192.82L480.46,192.19L483.13,191.02L485.61,189.51L486.47,188.46L487.49,187.3L488.33,187.07L490.09,188.52L491.82,189.59L492.91,189.71L495.63,189.2L497.17,189.34L498.08,190.02L498.98,191.55L499.08,194.28Z" class="land" id="PS-JEN" title="Janīn"/>
    <path d="M505.02,241.64L502.87,239.67L502.45,238.3L501.68,237.82L500.1,237.84L498.9,238.3L498.14,238.25L496.98,237.28L497.32,236.55L496.33,235.42L496.26,234.04L498.04,234.3L498.42,233.8L498.37,231.06L498.94,229.6L498.48,228.74L498.21,226.41L499.02,225.26L498.96,224.47L497.35,223.39L498.59,222.53L498.17,222.01L497.76,219.55L497.42,218.83L497.73,217.8L500.08,217.11L499.67,215.56L499.87,214.45L499.71,213.2L500.02,212.02L499.78,211.24L498.58,211.18L499.64,209.73L500.44,207.81L501.9,208.69L502.57,209.76L502.98,211.05L503.74,211.43L504.92,210.51L507.33,210.4L506.84,211.36L506.11,215.48L505.33,216.55L504.69,218.64L504.81,221.46L505.51,222.62L504.99,223.38L505.92,225.44L505.57,227.77L504.57,228.75L505.11,231.51L506.08,232.13L505.54,233.21L506.12,234.14L505.68,235.38L506.36,239.21Z" class="land" id="PS-JRH" title="Arīḩā wal Aghwār"/>
  </g>
</svg>