<?xml version="1.0" encoding="UTF-8"?>
<svg xmlns="http://www.w3.org/2000/svg" width="157.84" height="262.3" viewBox="401.08 125.85 157.84 262.3" style="background-color:#000000">
  <!-- Created using SVG Map Generator: dojo.amcharts.com/svg-map-generator -->
  <style>
    .land { fill: #ffffff; stroke: #000000; stroke-width: 0.65; }
  </style>
  <g id="polygons">
    <path d="M488.45,354.11L488.41,354.99L486.97,355.14L486.48,357.18L484.21,357.83L482.91,357.91L481.56,356.36L481.25,355.02L480.35,354.73L480.98,353.56L482.42,353.69L483.48,352.66L484.6,352.42L485.88,353.72Z" class="land" id="PH-BAS" title="Basilan"/>
    <path d="M456.02,209.46L454.95,211.29L454.59,213.69L456.52,214.86L457.87,216.85L457.66,218.27L458.46,220.14L458.95,220.43L458.35,221.53L456.55,222.56L455.38,222.61L454.82,223.84L453.32,223.07L453.33,221.99L452.82,221.29L453.04,219.33L452.85,217.93L451.48,213.91L450.27,212.54L451.5,211.28L450.49,209.42L450.96,208.25L450.24,206.38L451.86,206.61L452.46,205.74L453.36,206.31L454.36,206.09L454.95,207.69Z" class="land" id="PH-ZMB" title="Zambales"/>
    <path d="M552.5,333.97L552.35,332.52L551.55,331.49L551.45,330.67L550.48,329.75L550.3,328.87L551.4,327.56L550.9,326.55L548.36,326.48L547.75,325.88L547.2,323.46L545.97,319.46L545.19,318.56L544.88,315.45L544.19,314.25L542.94,312.79L542.82,311.36L545.5,308.63L546,309.3L545.14,309.95L546.31,310.66L547.57,312.81L549.92,312.22L549.31,314.9L551.67,317.26L551.67,318.47L552.1,319.12L550.82,320.19L550.16,321.18L548.46,322.15L548.11,322.77L549.33,323.89L550.1,323.62L551.77,323.93L553.08,324.67L552.31,325.68L552.03,327.52L552.96,327.87L551.78,328.9L552.24,329.6L554.02,328.63L553.37,331.66L553.23,333.26Z" class="land" id="PH-SUR" title="Surigao del Sur"/>
    <path d="M461.69,205.96L462.34,208.73L463.92,209.7L463.41,210.61L464.09,212.76L463.69,214.06L464.2,215.22L460.72,215.36L458.22,216.34L457.87,216.85L456.52,214.86L454.59,213.69L454.95,211.29L456.02,209.46L457.13,208.95L458.21,207.05L459.61,207.64Z" class="land" id="PH-TAR" title="Tarlac"/>
    <path d="M455.34,374.7L455.65,376.53L455.47,377.91L453.54,377.84L452.64,377.36L451.4,379.02L449.81,379.49L449.17,379.35L449.32,377.87L451.08,377.24L451.68,376.48L452.48,376.56L454.72,374.8ZM443.41,381.61L444.03,382.85L444.22,384.04L443.82,385.5L443.23,381.79Z" class="land" id="PH-TAW" title="Tawi-Tawi"/>
    <path d="M508.17,322.61L508.09,329.09L505.45,329.1L504.91,328.83L502.58,328.71L502.46,330.84L502.04,332.6L500.63,332.56L498.81,333.9L498.08,333.83L495.51,333.43L494.08,333.65L492.32,334.49L490.74,335.81L489.26,336.53L487.97,338.46L487.24,340.03L487.06,341.13L486.28,342.65L485.91,344.97L484.74,346.09L482.05,346.14L483.19,344.51L484.61,343.78L484.08,342.76L484.48,341.35L485.87,339.32L485.45,336.96L484.95,336.74L486.14,334.79L487.18,333.99L487.18,333.16L489.06,331.92L490.9,331.38L491.67,331.49L493.54,330.73L496.45,330.6L498.02,330.19L499.34,329.11L498.4,327.63L499.13,327.3L499.09,325.92L500.41,324.3L502.29,324.02L503.66,324.36L504.63,323.54L504.94,322.39L506.3,321.1L507.51,322.61Z" class="land" id="PH-ZAN" title="Zamboanga del Norte"/>
    <path d="M498.41,342.08L497.82,343.38L496.33,343.75L496.05,342.96L496.28,341.74L497.62,341.66ZM500.95,337.24L499.35,340.51L498.62,340.83L497.66,339.87L497.43,341.07L495.92,340.71L496.44,336.61L494.01,335.9L492.19,336.75L491.35,338.4L491.3,339.51L489.26,341.1L488.99,343.47L488.2,343.35L487.67,346.7L486.85,347.37L486.53,349.23L485.32,350.26L482.63,349.04L481.99,347.24L482.05,346.14L484.74,346.09L485.91,344.97L486.28,342.65L487.06,341.13L487.24,340.03L487.97,338.46L489.26,336.53L490.74,335.81L492.32,334.49L494.08,333.65L495.51,333.43L498.08,333.83L498.08,335.21L500.75,335.56Z" class="land" id="PH-ZSI" title="Zamboanga Sibugay"/>
    <path d="M466.67,170.52L467.6,171.16L467.97,172.75L469.38,173.07L469.75,175.4L469.25,175.69L469.55,177.44L467.78,178.59L467.72,179.96L466.46,182.63L465.57,183.61L463.96,184.11L462.98,184.07L462.79,182.49L461.71,181.58L460.82,181.63L460.52,180.81L461.26,178.84L459.71,177.7L459.95,176.13L460.46,175.07L461.2,173.49L462.91,172.9L463.5,171.93L465.17,170.82Z" class="land" id="PH-ABR" title="Abra"/>
    <path d="M538.16,309.52L539.88,309.22L541.85,309.58L542.7,310.3L542.82,311.36L542.94,312.79L543.13,313.94L542.8,315.39L542,316.8L541.61,318.71L541.11,319.61L541.66,321.38L538.85,321.34L537.92,321.99L534.83,322L534.66,318.87L534.74,317.24L534.25,315.07L535.42,316.68L537.76,316.95L539.21,316.3L539.46,315.4L539.38,313.45Z" class="land" id="PH-AGN" title="Agusan del Norte"/>
    <path d="M542.94,312.79L544.19,314.25L544.88,315.45L545.19,318.56L545.97,319.46L547.2,323.46L547.75,325.88L548.36,326.48L550.9,326.55L551.4,327.56L550.3,328.87L550.48,329.75L551.45,330.67L551.55,331.49L552.35,332.52L549.38,332.53L547.52,333.57L546.5,332.56L541.67,332.56L537.03,332.76L537.13,331.29L536.23,327.74L535.13,326.62L534.86,323.25L534.83,322L537.92,321.99L538.85,321.34L541.66,321.38L541.11,319.61L541.61,318.71L542,316.8L542.8,315.39L543.13,313.94Z" class="land" id="PH-AGS" title="Agusan del Sur"/>
    <path d="M492.7,275.58L491.68,276.73L489.84,276.75L488.83,278.27L487.95,279.12L486.77,279.43L486.62,278.25L485.74,276.84L486.05,275.88L485.84,274.08L486.43,272.88L486.16,272.25L483.4,271.13L482.56,271.24L481.13,272.18L481.71,271.33L481.78,269.98L482.95,269.36L484.87,270.96L487.12,271.35L488.5,272.63L489.66,272.77L490.21,273.71L490.26,274.92L491.44,274.87Z" class="land" id="PH-AKL" title="Aklan"/>
    <path d="M512.91,246.42L514.1,246.84L513.39,247.61ZM514.26,250.25L513.7,251.5L512.96,251.51L511.55,252.39L511,251.77L509.34,251.99L508.47,251.66L507,252.34L505.83,251.42L504.48,252.07L503.96,249.77L504.58,248.96L503.77,247.91L505.53,246.63L508.59,245.73L507.99,243.98L508.9,243.67L510.11,244.4L511.2,246.94L513.1,248.26L511.64,248.46L511.32,249.43L512.09,251.38L513.29,249.84Z" class="land" id="PH-ALB" title="Albay"/>
    <path d="M481.13,272.18L482.56,271.24L483.4,271.13L486.16,272.25L486.43,272.88L485.84,274.08L486.05,275.88L485.74,276.84L486.62,278.25L486.77,279.43L486.79,281.01L487.38,282.21L488.67,284L488.55,285.14L486.78,287.14L486.38,288.39L484.77,289.45L484.14,290.52L483.78,292.61L484.08,293.04L482.99,294.02L482.21,293.37L482.25,292.43L482.95,291.69L483.26,289.82L482.39,288.27L483.35,285.59L484.46,283.95L484.12,281.4L484.52,278.94L484.43,276.93L485.22,274.05L485.18,273.1L482.31,272.1Z" class="land" id="PH-ANT" title="Antique"/>
    <path d="M467.19,162.71L468.5,161.35L469.22,162.07L471.74,162.99L475.18,165.03L475.54,166.4L475.09,169.32L474.37,169.64L472.94,173.04L474.63,174.54L474.81,175.3L473.96,176.11L471.82,175.62L471.4,176.39L469.75,175.4L469.38,173.07L467.97,172.75L467.6,171.16L466.67,170.52L467.16,166.85L466.89,164.03Z" class="land" id="PH-APA" title="Apayao"/>
    <path d="M474.43,216.07L474.1,217.53L473.21,218.88L473.21,219.64L472.73,216.33L473.75,211.68L472.26,206.97L474.89,204.82L481,199.45L484.63,195.17L485.69,194.48L487.91,194.58L486.76,196.04L487.16,197.34L486.45,198.21L486.85,199.24L484.72,201.23L484.61,199.64L482.6,201.13L481.56,201.2L480.13,202.18L479.52,202.07L478.09,203.69L476.57,204.87L476.55,206.69L477.45,208.01L476.19,210.67L475.6,211.02L475.31,212.77L473.71,214.48Z" class="land" id="PH-AUR" title="Aurora"/>
    <path d="M461.14,222.36L460.65,224.08L461.63,228.11L460.91,229.01L458.16,228.43L457.92,227.36L458.22,226.34L456.95,225.71L455.93,224.63L455.82,223.51L456.55,222.56L458.35,221.53L458.95,220.43L459.43,221.57Z" class="land" id="PH-BAN" title="Bataan"/>
    <path d="M483.66,128.5L484.16,128.92L483.02,129.8L482.81,130.88L482.26,130.89L482.44,129.83Z" class="land" id="PH-BTN" title="Batanes"/>
    <path d="M461.82,232.31L462.77,232.62L463.16,233.6L464.09,233.66L465.35,234.92L467.12,234.39L468.48,233.4L470.88,233.76L471.22,235.46L471.94,236.49L472.11,237.91L473.64,238.03L475.02,238.84L474.63,239.79L475.22,241.05L473.87,241.32L472.32,242.47L470.71,241.7L469.05,242.11L468.38,241.87L468.77,240.46L468.38,239.74L466.66,239.78L465.92,237.52L463.73,236.95L462.33,238.18L461.64,233.54Z" class="land" id="PH-BTG" title="Batangas"/>
    <path d="M466.24,193.69L466.09,196.06L465.37,197.92L464.74,197.88L464,199.2L464.16,199.89L462.36,200.11L460.1,199.3L459.42,195.01L460.84,193.37L461.18,192.35L461.81,191.17L462.17,188.44L464.26,187.8L465.61,189.88L465.95,190.47L465.95,193.3Z" class="land" id="PH-BEN" title="Benguet"/>
    <path d="M521.94,273.08L523.68,273.59L524.41,275.31L524.96,275.71L524.33,276.86L522.79,277.02L522.19,276.61L520.66,273.67Z" class="land" id="PH-BIL" title="Biliran"/>
    <path d="M512.63,306.24L513.15,306.88L512.03,307.72L510.75,307.15ZM519.81,297.75L521.03,298.06L522.79,299.63L523.85,299.89L524.04,302.59L524.63,303.66L524.54,304.49L523.42,305L522.86,304.38L521.65,305.19L521.51,306.11L519.28,306.98L518.15,306.8L516.13,307.13L512.89,306.37L513.15,305.07L511.84,304.72L511.8,303.86L512.68,302.41L514.58,301.23L515.62,301.06L516.19,299.44L516.76,299.47L517.61,298.07Z" class="land" id="PH-BOH" title="Bohol"/>
    <path d="M534.86,323.25L535.13,326.62L536.23,327.74L537.13,331.29L537.03,332.76L537.65,333.94L537.6,335.45L538,336.28L537.81,338.02L537.26,338.57L534.99,338.21L534.96,339.24L534.99,339.39L533.97,340.23L533.79,341.16L532.41,341.61L531.78,342.39L529.1,342.02L528.47,340.83L527.95,338.85L527.11,338.06L525.64,335.15L525.18,334.98L524.01,332.79L523.62,331.06L523.03,330.33L524.06,330L524.13,328.78L524.75,327.65L524.96,325.75L528.1,325.79L528.06,324.96L528.92,323.05L531.46,323.28Z" class="land" id="PH-BUK" title="Bukidnon"/>
    <path d="M473.21,219.64L473.26,221.36L471.89,222.19L470.69,222.43L469.61,223.52L467.93,223.72L467.14,224.7L466.49,224.63L465.28,223.83L462.81,223.35L461.8,222.9L463.71,220.4L464.88,220.46L466.02,219.19L466.02,218.16L466.66,217.41L466.51,216.14L468.14,215.46L470.08,215.14L471.62,216.25L472.73,216.33Z" class="land" id="PH-BUL" title="Bulacan"/>
    <path d="M486.62,177.65L481.26,177.87L480.78,178.15L478.17,178.31L475.38,175.59L474.81,175.3L474.63,174.54L472.94,173.04L474.37,169.64L475.09,169.32L475.54,166.4L475.18,165.03L471.74,162.99L469.22,162.07L468.5,161.35L467.19,162.71L467.38,160.47L468.35,159.83L469.78,159.7L470.93,160.03L472.61,161.39L477.41,163.98L481.91,165.66L483.78,165.37L485.66,163.81L485.93,161.71L487.32,161.56L487.55,162.68L488.57,163.63L488.96,165.03L488.38,166.53L487.03,167.63L486.24,168.78L486.61,169.87L486.59,171.78L485.77,173.59L486.27,175.16L486.18,176.6ZM482.3,153.42L483.48,154.16L482.86,155.12L481.03,156.49L480.88,155.58L481.49,153.94ZM474.27,146.93L475.52,147.36L476.37,148.92L475.89,149.42L474.17,148.76L473.81,147.4ZM483.13,143.89L483.52,144.92L482.96,145.54L481.9,144.45Z" class="land" id="PH-CAG" title="Cagayan"/>
    <path d="M500.34,238.57L498.48,237.06L496.13,235.68L490.62,233.49L489.41,234.85L488.37,234.57L489.12,233.9L488.86,232.68L491.02,230.37L491.86,230.29L493.25,230.79L494.9,230.39L497.26,231.51L499.23,233.9L500.09,234.3L499.88,235.36L500.73,236.21L500.92,237.66Z" class="land" id="PH-CAN" title="Camarines Norte"/>
    <path d="M508.9,243.67L507.99,243.98L508.59,245.73L505.53,246.63L503.77,247.91L502.72,246.55L502.39,245.12L500.17,243.91L499.02,243.7L497.62,242.8L496.62,241.61L496.81,240.23L495.44,239.32L493.67,238.53L493.72,237.82L492.27,236.74L496.13,235.68L498.48,237.06L500.34,238.57L500.13,239.55L501.35,240.37L503.1,240.3L503.78,239.97L504.56,238.73L504.06,237.11L503,235.95L504.88,234.8L504.83,235.69L508.92,237.65L510.14,237.91L510.95,237.21L511.41,238.12L512.79,238.99L514.28,239.24L514.64,240.37L513.2,240.19L512.08,241L511.26,240.62L508.41,240.51L507.8,242.97Z" class="land" id="PH-CAS" title="Camarines Sur"/>
    <path d="M526.42,312.44L527.51,313.3L527.95,314.62L527.46,315.27L525.9,314.65L525.24,313.84L525.36,312.83Z" class="land" id="PH-CAM" title="Camiguin"/>
    <path d="M500.94,275.7L500.19,277.22L500.19,278.08L498.4,278.69L498.59,279.56L497.67,280L497.07,281.38L495.96,281.54L495.67,280.79L493.9,281.06L493.51,280.67L491.43,281.59L489.78,281.39L488.7,280.82L487.38,282.21L486.79,281.01L486.77,279.43L487.95,279.12L488.83,278.27L489.84,276.75L491.68,276.73L492.7,275.58L493.51,276.12L494.91,274.61L496.68,274.64L497.47,275.69L499.24,276.68Z" class="land" id="PH-CAP" title="Capiz"/>
    <path d="M518.48,234.3L519.49,235.64L519.71,236.83L521.46,237.56L521.86,238.4L521.29,240.53L521.78,241.38L520.61,241.77L519.75,242.53L517.92,243.54L515.57,241.4L516.71,240.72L517.35,239.24L517.23,237.8L517.54,237.11L517.41,235.68Z" class="land" id="PH-CAT" title="Catanduanes"/>
    <path d="M467.33,228.16L468.01,230.21L468.93,230.56L468.48,233.4L467.12,234.39L465.35,234.92L464.09,233.66L463.16,233.6L462.77,232.62L461.82,232.31L461.84,231.57L462.96,231.34L464.15,230.5L466.31,228.43Z" class="land" id="PH-CAV" title="Cavite"/>
    <path d="M522.14,289.01L523.25,289.62L522.2,290.46L521.22,290.52L520.13,291.12L520.2,289.14L521.12,289.45ZM516.19,279.98L515.77,282.08L514.93,283.29L515.87,283.59L515.68,285.61L516.07,286.37L515.28,288.4L515.79,291.69L514.67,295.27L513.38,295.9L513.04,296.56L511.5,296.92L511.35,297.39L509.53,299.19L509.12,300.61L509.02,302.55L507.88,303.7L507.9,304.42L506.78,307.41L504.97,309.78L504.18,309.89L504.12,308.55L504.84,303.98L505.75,302.07L505.96,299.72L507.58,298.09L508.61,296.3L508.59,295.25L509.95,293.89L510.69,292.55L510.53,291.81L511.12,290.37L512.55,288.73L514.16,284.57L513.64,283.92L514.67,283.11L514.32,281.46L515.19,280.09ZM510.94,279.63L512.16,282.03L510.79,282.26L510.27,280.8Z" class="land" id="PH-CEB" title="Cebu"/>
    <path d="M549.38,332.53L549.13,332.99L550.7,338.2L551.39,341.37L551.47,344.16L546.05,346.95L545.89,347.28L544.97,346.47L545.1,345.83L544.24,344.43L544.15,342.7L544.18,341.12L545.53,339.82L545.83,338.17L545.27,337.46L545.92,336.37L545.54,335.3L544.7,336.25L543.66,338.03L543.15,336.89L542.12,336L541.67,332.56L546.5,332.56L547.52,333.57Z" class="land" id="PH-COM" title="Compostela Valley"/>
    <path d="M552.35,332.52L552.5,333.97L552.86,335.25L553.52,335.27L554.72,336.71L555.81,337.02L555.53,338.33L556.27,340.77L555.62,341.34L555.81,343.27L555.68,345.24L555.08,345.77L553.1,348.62L552.17,348.36L551.39,349.99L549.92,349.24L549.68,350.44L550.93,352.38L550.28,354.28L550.47,355.61L550.17,356.21L550.4,357.55L549.43,358.48L548.12,355.93L548.27,354.86L547.89,353.94L548.33,352.64L548.07,350.95L546.43,349.6L546.64,348.27L545.89,347.28L546.05,346.95L551.47,344.16L551.39,341.37L550.7,338.2L549.13,332.99L549.38,332.53Z" class="land" id="PH-DAO" title="Davao Oriental"/>
    <path d="M542.29,343.69L541.25,344.68L541.5,346.46L540.56,347.72L539.82,347.73L538.69,348.79L538.74,349.74L537.2,351.6L536.9,352.83L537.13,354.84L538.08,355.19L537.02,356.29L535.81,357.01L534.64,357.29L533.79,356.79L533.81,356.33L533.76,354.7L532.94,353.62L532.91,352.34L532.59,351.35L535.03,349.16L535.57,347.51L535.11,346.19L535.05,343.16L534.83,341.09L535.01,339.47L538.99,339.57L539.6,341.39L539.98,341.44L540.02,344.61L540.71,344.58L541.59,343.68Z" class="land" id="PH-DAS" title="Davao del Sur"/>
    <path d="M544.15,342.7L542.29,343.69L541.59,343.68L540.71,344.58L540.02,344.61L539.98,341.44L539.6,341.39L538.99,339.57L535.01,339.47L534.96,339.24L534.99,338.21L537.26,338.57L537.81,338.02L538,336.28L537.6,335.45L537.65,333.94L537.03,332.76L541.67,332.56L542.12,336L543.15,336.89L543.66,338.03L544.7,336.25L545.54,335.3L545.92,336.37L545.27,337.46L545.83,338.17L545.53,339.82L544.18,341.12ZM543.6,346.6L543.26,347.96L543.54,349.45L542.43,349.03L542.25,347.37L541.49,346.97L542.18,345.32Z" class="land" id="PH-DAV" title="Davao del Norte"/>
    <path d="M536.09,371.21L537.24,369.87L538.71,366.74L538.59,365.83L539.44,363.45L538.96,360.65L537.77,359.16L538.03,357.8L537.02,356.29L538.08,355.19L539.21,355.55L540.39,356.41L540.18,357.57L540.76,357.83L541.61,360.24L542.11,360.96L542.3,362.74L541.46,365.63L539.11,368.33L538.87,369.09L537.53,371.16Z" class="land" id="PH-DVO" title="Davao Occidental"/>
    <path d="M541.15,292.96L541.77,294.24L541.22,295.63L541.44,298.6L542.03,299.59L541.38,301.37L540.13,300.93L540.09,299.84L539.06,299.54L538.48,298.38L539.1,296.64L539.12,295.37L540.42,294.67Z" class="land" id="PH-DIN" title="Dinagat Islands"/>
    <path d="M533.42,263.71L534.1,262.34L535.64,264.1L536.1,263.82L537.93,263.92L539.14,265.25L538.19,265.68L538.03,266.68L538.87,267.36L537.74,269.06L537.9,271.18L538.78,273.62L537.93,274.59L539.15,276.51L539.73,277.93L541.01,278.72L540.71,279.61L539.64,280.3L539.43,281.27L540.44,281.59L541.52,281.28L543.06,283.94L542.36,284L541.62,283.12L541.44,282.19L540.21,282.65L539.38,282.06L537.41,282.85L535,282.58L534.94,279.36L535.85,278.06L534.65,277.33L534.26,274.83L535.45,273.56L535.26,270.71L534.28,268.43L532.82,268.44L532.78,265.67L533.3,265.32Z" class="land" id="PH-EAS" title="Eastern Samar"/>
    <path d="M494.04,288.43L494.88,289.04L495.1,290.64L494.38,292.5L493.52,293.56L491.74,294.02L491.1,292.82L491.86,292.25L491.66,291.21L493.23,289.69Z" class="land" id="PH-GUI" title="Guimaras"/>
    <path d="M476.69,186.19L477.08,188.35L476.05,189.54L473.1,190.89L472.02,192.88L466.24,193.69L465.95,193.3L465.95,190.47L465.61,189.88L466.98,189.07L467.53,187.82L467.35,187.11L471.15,187.17L472.89,186.33L475.03,185.82Z" class="land" id="PH-IFU" title="Ifugao"/>
    <path d="M467.38,160.47L467.19,162.71L466.89,164.03L467.16,166.85L466.67,170.52L465.17,170.82L463.5,171.93L462.91,172.9L461.2,173.49L460.46,175.07L460.08,174.24L460.41,172.09L459.02,171.77L459.5,170.55L459.55,168.8L460.25,166.82L461.5,164.41L460.89,161.96L461.88,161.07L463.3,161.36L464.21,161.12L464.36,159.81L465.39,159.32L466.41,160.78Z" class="land" id="PH-ILN" title="Ilocos Norte"/>
    <path d="M459.02,171.77L460.41,172.09L460.08,174.24L460.46,175.07L459.95,176.13L459.71,177.7L461.26,178.84L460.52,180.81L460.82,181.63L461.71,181.58L462.79,182.49L462.98,184.07L463.96,184.11L465.57,183.61L464.34,184.9L464.26,187.8L462.17,188.44L461.81,191.17L461.18,192.35L460.41,191.42L460.69,190.53L459.7,188.36L458.49,188.03L459.07,187.05L458.74,183.81L458.38,183.23L459.35,179.98L458.71,178.32L457.44,177.19L457.95,175.41L458.9,174.59L458.37,173.56L459.24,173.06Z" class="land" id="PH-ILS" title="Ilocos Sur"/>
    <path d="M484.08,293.04L483.78,292.61L484.14,290.52L484.77,289.45L486.38,288.39L486.78,287.14L488.55,285.14L488.67,284L487.38,282.21L488.7,280.82L489.78,281.39L491.43,281.59L493.51,280.67L493.9,281.06L495.67,280.79L495.96,281.54L497.07,281.38L497.67,280L498.59,279.56L498.4,278.69L500.19,278.08L500.19,277.22L500.94,275.7L502.02,276.91L501.81,278.14L500.88,280.8L501.05,281.97L499.89,281.77L499.56,282.97L498.65,283.93L497.38,283.96L495.96,284.68L495.61,285.32L495.99,286.79L495.1,287.98L493.24,288.12L492.79,289.5L490.83,289.49L486.88,290.28L485.11,291.31Z" class="land" id="PH-ILI" title="Iloilo"/>
    <path d="M473.1,190.89L476.05,189.54L477.08,188.35L476.69,186.19L476.49,182.11L477.36,180.16L478.47,179.36L478.17,178.31L480.78,178.15L481.26,177.87L486.62,177.65L486.61,178.35L488.13,181.09L490.04,181.21L490.61,182.36L490.12,183.69L490.69,184.82L491.96,185.1L490.98,187.11L490.98,188.57L488.33,194.12L487.91,194.58L485.69,194.48L484.91,194.42L480.87,196.27L479.48,197.2L476.41,193.25L474.19,193.15L474.13,191.88Z" class="land" id="PH-ISA" title="Isabela"/>
    <path d="M474.81,175.3L475.38,175.59L478.17,178.31L478.47,179.36L477.36,180.16L476.49,182.11L474.29,181.69L473.2,182.07L471.75,183.64L470.37,183.94L469.17,183.53L468.7,182.86L466.46,182.63L467.72,179.96L467.78,178.59L469.55,177.44L469.25,175.69L469.75,175.4L471.4,176.39L471.82,175.62L473.96,176.11Z" class="land" id="PH-KAL" title="Kalinga"/>
    <path d="M458.49,188.03L459.7,188.36L460.69,190.53L460.41,191.42L461.18,192.35L460.84,193.37L459.42,195.01L460.1,199.3L458.57,199.77L457.5,198.56L457.1,196.78L457.21,195.48L456.8,194.94L456.87,192.59L457.35,191.93L457.13,190L458.3,188.71Z" class="land" id="PH-LUN" title="La Union"/>
    <path d="M475.23,226.53L476.64,229.25L477.65,229.5L477.77,231.66L476.73,233.13L476.06,233.52L475.59,234.7L474.62,234.86L473.02,236.13L471.94,236.49L471.22,235.46L470.88,233.76L468.48,233.4L468.93,230.56L468.01,230.21L468.69,229.75L468.78,227.86L469.47,227.27L471.27,228.18L472.22,227.55L473.18,229.19L472.64,230.56L473.94,230.29L473.49,228.46L473.74,227.46Z" class="land" id="PH-LAG" title="Laguna"/>
    <path d="M519.08,327.32L520.29,327.1L522.66,327.24L523.63,327.86L524.13,328.78L524.06,330L523.03,330.33L522.57,329.97L519.92,329.21L519.62,331.22L518.59,332.28L517.22,332.5L516.97,334.05L515.57,334.13L515.92,335.32L515.22,337.41L512.63,336.61L512.29,337.31L510.34,335.52L509.23,335.27L510,333.27L511.23,332.54L511.83,331.62L513.61,330.7L515.48,329.37L517.65,329.58L518.7,329.16L519.37,328.08Z" class="land" id="PH-LAN" title="Lanao del Norte"/>
    <path d="M523.03,330.33L523.62,331.06L524.01,332.79L525.18,334.98L525.64,335.15L527.11,338.06L527.95,338.85L526.27,338.28L524.81,338.55L524.18,337.74L523.04,337.66L522.16,338.08L520.98,339.42L519.15,340.36L518.34,341.76L515.42,338.16L513.86,337.43L512.29,337.31L512.63,336.61L515.22,337.41L515.92,335.32L515.57,334.13L516.97,334.05L517.22,332.5L518.59,332.28L519.62,331.22L519.92,329.21L522.57,329.97Z" class="land" id="PH-LAS" title="Lanao del Sur"/>
    <path d="M533.36,290.55L531.84,292.13L530.05,292.12L529.32,294.05L529.42,296.28L528.59,296.46L527.2,297.45L527.69,295.44L526.78,294.5L526.58,292.76L527.31,291.92L527.38,290.56L527.9,289.94L527.57,288.07L526.37,286.4L526.01,285.46L524.61,284.25L523.71,284.83L523.91,285.6L523.37,286.6L521.14,285.71L521.67,284.75L521.04,283.43L521.54,282.69L521.33,280.56L520.61,279.4L520.6,278.63L519.78,276.52L520.18,275.39L522.11,277.34L523.69,277.62L523.92,279L524.44,279.56L526.43,279.52L527.87,278.42L528.09,277.5L529.65,277.89L530.67,278.52L530.41,279.96L531.13,280.42L531.12,281.97L531.63,283.42L531.55,285.55L531.05,287L531.42,288.7Z" class="land" id="PH-LEY" title="Leyte"/>
    <path d="M531.06,352.91L529.19,353.93L527.83,354.05L526.99,351.94L525.73,351.91L526.2,350.56L525.61,350.32L523.99,350.67L524.36,351.72L523.28,352.87L519.67,352.86L519.4,352.39L515.85,352.43L514.57,351.84L514.52,349.89L515.23,347.79L516.25,346.15L517.03,346.06L518.49,344.36L518.34,341.76L519.15,340.36L520.98,339.42L522.16,338.08L522.06,340.18L522.89,341.4L520.4,345.73L521.1,345.83L521.75,344.87L523.24,344.77L521.97,347.09L523.12,348.01L523.62,347.86L524.46,348.95L525.9,349.33L526.55,348.52L526.25,347.69L526.72,346.44L527.75,346.72L527.97,348.46L528.07,351.95L529.38,351.92Z" class="land" id="PH-MAG" title="Maguindanao"/>
    <path d="M481.56,242.9L484.37,243.84L485.62,244.77L485.98,246.14L484.35,247.67L484.05,248.93L481.49,247.54L480.76,246.56L480.61,244.9Z" class="land" id="PH-MAD" title="Marinduque"/>
    <path d="M503.15,258.62L505.33,260.12L506.44,259.99L507.89,261.09L509.69,262.82L510.39,262.97L511.75,264.69L513.55,264.97L515.4,268.21L516.31,270.71L515.42,271.79L513,269.97L510.8,269.45L511.25,268.62L509.67,267.58L507.9,264.94L506.18,265.1L505.22,266.6L504.38,267.12L504.1,267.98L501.92,269.86L501.65,269.45L502.5,268.03L502.84,266.21L503.86,265.73L503.55,264.37L502.93,264.01L503.61,262.94L503.97,261.24L503.36,260.95ZM509.28,257.13L510.89,258.45L511.57,260.37L511.87,262.88L510.9,261.84L509.42,259.56L508.84,257.43ZM499.34,249.59L500.11,249.96L502.3,253.55L503.76,253.93L503.54,254.88L502.55,254.73L501.11,253.39L500.41,252.19L499.17,252.06L498.27,250.33Z" class="land" id="PH-MAS" title="Masbate"/>
    <path d="M466.49,224.63L467.14,224.7L467.93,223.72L469.61,223.52L469.28,226.65L469.47,227.27L468.78,227.86L468.69,229.75L468.01,230.21L467.33,228.16L467.57,226.78Z" class="land" id="PH-00" title="Metropolitan Manila"/>
    <path d="M509.47,332.31L508.31,331.81L508.09,329.09L508.17,322.61L508.93,322.12L510.25,322.29L511.78,323.99L512.64,325.71L513.08,330.01L511.85,330.92L511.41,331.73L510.65,331.66Z" class="land" id="PH-MSC" title="Misamis Occidental"/>
    <path d="M534.25,315.07L534.74,317.24L534.66,318.87L534.83,322L534.86,323.25L531.46,323.28L528.92,323.05L528.06,324.96L528.1,325.79L524.96,325.75L524.75,327.65L524.13,328.78L523.63,327.86L522.66,327.24L520.29,327.1L519.08,327.32L519.67,326.21L519.69,325.15L520.19,323.87L522.3,322.57L524.33,324.24L525.54,324.39L526.29,324.98L527.1,324.34L527.39,323.04L526.9,321.46L527.67,319.36L527.5,316.94L528.92,316.42L531.38,317.85L532.23,319.29L533.58,319.02L533.96,317.71L533.71,316.39Z" class="land" id="PH-MSR" title="Misamis Oriental"/>
    <path d="M476.49,182.11L476.69,186.19L475.03,185.82L472.89,186.33L471.15,187.17L467.35,187.11L467.53,187.82L466.98,189.07L465.61,189.88L464.26,187.8L464.34,184.9L465.57,183.61L466.46,182.63L468.7,182.86L469.17,183.53L470.37,183.94L471.75,183.64L473.2,182.07L474.29,181.69Z" class="land" id="PH-MOU" title="Mountain Province"/>
    <path d="M504.71,294.4L503.38,293.9L501.44,293.95L502.58,296.24L501.21,297.9L499.73,300.37L499.27,301.98L495.25,307.13L493.85,308.55L493.3,309.83L491.2,307.52L490.84,305.99L490.05,306L489.54,303.16L490.43,302.15L490.73,300.92L491.61,300.75L494.1,300.89L495.91,299.46L497.31,299L496.89,296.9L497.26,294.58L496.17,292.14L498.11,290.75L498.81,288.8L498.66,286.16L500.03,285.7L502.5,284.41L504.44,285.29L505.87,285.23L507.54,285.79L507.83,287.1L508.39,287.78L507.45,289.2L506.75,292.14L505.06,293.44Z" class="land" id="PH-NEC" title="Negros Occidental"/>
    <path d="M493.3,309.83L493.85,308.55L495.25,307.13L499.27,301.98L499.73,300.37L501.21,297.9L502.58,296.24L501.44,293.95L503.38,293.9L504.71,294.4L504.64,296.08L503.91,297.58L503.85,298.46L503.01,300.47L501.79,302.06L501.48,303.11L501.95,305.22L501.58,307.19L502.32,308.87L503.02,309.11L503.53,310.46L504.35,311.44L503.91,313.2L502.6,315.05L501.42,315.83L500.58,315.49L499.66,315.95L498.49,315.35L497.48,312.96L497.27,311.29L496.16,310.75L494.27,310.48Z" class="land" id="PH-NER" title="Negros Oriental"/>
    <path d="M534.99,339.39L535.01,339.47L534.83,341.09L535.05,343.16L535.11,346.19L535.57,347.51L535.03,349.16L532.59,351.35L532.91,352.34L531.06,352.91L529.38,351.92L528.07,351.95L527.97,348.46L527.75,346.72L526.72,346.44L526.25,347.69L526.55,348.52L525.9,349.33L524.46,348.95L523.62,347.86L523.12,348.01L521.97,347.09L523.24,344.77L521.75,344.87L521.1,345.83L520.4,345.73L522.89,341.4L522.06,340.18L522.16,338.08L523.04,337.66L524.18,337.74L524.81,338.55L526.27,338.28L527.95,338.85L528.47,340.83L529.1,342.02L531.78,342.39L532.41,341.61L533.79,341.16L533.97,340.23Z" class="land" id="PH-NCO" title="Cotabato"/>
    <path d="M536.1,263.82L535.64,264.1L534.1,262.34L533.42,263.71L530.59,264.64L529.52,264.25L528.52,264.81L526.48,263.64L525.33,264.43L522.83,262.93L521.96,263.76L520.84,263.78L520.08,261.17L519.33,259.47L521.4,259.18L522.2,259.71L526.81,260.03L527.82,259.57L528.9,259.72L529.3,259.1L532.78,259.23L533.31,258.89L535.61,260.77Z" class="land" id="PH-NSA" title="Northern Samar"/>
    <path d="M465.91,201.46L468.23,201.13L470.58,201.71L470.94,204.71L472.26,206.97L473.75,211.68L472.73,216.33L471.62,216.25L470.08,215.14L468.14,215.46L466.51,216.14L464.44,216.25L464.2,215.22L463.69,214.06L464.09,212.76L463.41,210.61L463.92,209.7L462.34,208.73L461.69,205.96L463.76,205.62L465.01,206.6L465.56,206.14L466.58,203.55Z" class="land" id="PH-NUE" title="Nueva Ecija"/>
    <path d="M466.24,193.69L472.02,192.88L473.1,190.89L474.13,191.88L474.19,193.15L473.8,195.78L474.94,196.16L474.73,197.62L472.45,198.58L472.74,202.94L474.89,204.82L472.26,206.97L470.94,204.71L470.58,201.71L468.23,201.13L465.91,201.46L465.3,200.38L464.16,199.89L464,199.2L464.74,197.88L465.37,197.92L466.09,196.06Z" class="land" id="PH-NUV" title="Nueva Vizcaya"/>
    <path d="M468.92,263.53L469.96,265.66L469.16,265.54L468.39,264.71ZM466.1,244.07L465.97,245.48L464.6,247.63L467.54,249.04L469.76,250.44L471.62,251.14L471.7,257.81L471.46,261.89L471.64,264.97L471.1,264.48L469.56,264.4L469.51,262.6L468.46,262.53L466.63,260.17L466.69,258.45L465.55,256.77L464.5,256.5L464.54,253.7L463.64,251.24L462.32,249.1L459.62,247.41L458.89,245.23L457.46,245.96L456.73,244.93L457.76,243.8L462.61,244.17L463.9,244.63ZM453.47,238.12L455.53,238.82L456.57,240.23L455.51,240.65L453.6,239.43Z" class="land" id="PH-MDC" title="Occidental Mindoro"/>
    <path d="M471.64,264.97L471.46,261.89L471.7,257.81L471.62,251.14L469.76,250.44L467.54,249.04L464.6,247.63L465.97,245.48L466.1,244.07L467.09,244L468.73,245.59L470.7,245.39L472.6,246.55L473.79,248.28L474.78,248.47L474.81,249.82L475.85,249.71L476.61,250.72L475.49,251.87L475.69,253.17L475.33,255.83L476.48,257.52L475.81,259.49L474.28,261.17L474.33,261.93L473.61,263.52L472.17,263.75Z" class="land" id="PH-MDR" title="Oriental Mindoro"/>
    <path d="M405.76,331.33L405.98,334.03L405.59,335.04L404.8,335.66L403.73,333.64L403.82,332.54ZM409.71,327.36L410.17,327.9L410.08,329.18L408.76,329.19L408.84,327.68ZM449.3,290.09L450.5,290.93L451.74,290.9L451.75,292.01L450.63,292.92L448.93,293.45L448.25,293.09L448.27,291.46L449.38,290.68ZM468.93,285.95L468.84,287.55L467.88,286.78ZM443.77,277.64L444.28,279.12L445.19,279.77L444.71,281.66L444.12,282.33L445.21,284.36L444.15,284.34L443.85,286.48L444.66,287.48L445.68,287.32L445.22,289.87L446.05,289.96L446.55,290.78L446.9,292.63L445.46,293.75L445.21,294.56L443.42,294.52L441.32,295.53L440.05,297.31L439.32,299.78L435.78,300.8L433.88,301L432.28,301.68L432.13,303.09L432.64,303.79L431.39,305.15L432.43,305.88L430.72,307.71L428.91,310.32L428.95,310.8L426.66,312.68L425.85,313.71L423.72,313.85L422.07,314.92L422.03,315.73L421.3,316.64L420.46,318.47L418.62,319.3L417.37,320.29L416.33,321.56L414.46,322.04L413.54,321.78L412.52,324.54L411.82,324.21L408.77,326.03L407.9,327.2L407.42,326.64L408,325.66L408.05,324.19L410.29,320.65L411.32,320.42L413.27,317.24L414.43,316.56L415.11,315.36L416.41,315.47L416.86,313.92L418.22,313.21L418.92,312.38L420.73,312.66L422.41,311.07L422.42,310.2L423.34,309.99L423.53,309.02L425.6,307.25L425.78,306.16L426.83,305.93L427.04,305.27L428.48,304.38L429.96,301.9L430.6,301.59L430.84,300.56L432.19,299.19L433.18,300.05L433.14,297.45L435.25,297.19L436.05,295.7L435.67,294.59L436.6,293.85L437.86,293.57L438.99,293.93L439.62,292.81L441.24,291.05L441.63,288.72L440.55,288.25L440.41,286.55L441.66,287.68L442.77,288.23L442.73,286.53L441.48,286.19L441,284.35L441.39,283.86L442.78,283.87L442.46,281.76L442.79,281.09L442.69,279.44L443.69,278.61ZM449.08,276.1L449.84,276.26L449.95,277.19L449.35,278.37L448.37,277.41L449.39,277.1ZM450.52,268.73L451.67,269.68L453.17,271.77L452.79,272.9L451.7,273.73L451.04,272.69L449.94,270.03ZM455.94,268.6L456.62,270.43L455.91,270.8L455.03,269.37ZM450.38,263.05L450.9,263.98L452.24,264.23L453,265.27L454.59,266.39L455.91,266.22L457.27,266.87L457.39,268.14L456.74,268.65L454.18,268.31L453.58,268.99L451.67,268.21L449.78,264.28Z" class="land" id="PH-PLW" title="Palawan"/>
    <path d="M464.2,215.22L464.44,216.25L466.51,216.14L466.66,217.41L466.02,218.16L466.02,219.19L464.88,220.46L463.71,220.4L461.8,222.9L461.14,222.36L459.43,221.57L458.95,220.43L458.46,220.14L457.66,218.27L457.87,216.85L458.22,216.34L460.72,215.36Z" class="land" id="PH-PAM" title="Pampanga"/>
    <path d="M450.24,206.38L450.65,205.84L449.84,203.94L448.05,203.78L448.25,201.45L448.11,200.39L448.58,199.26L448.51,198.12L449.08,197.3L450.15,196.72L450.81,197.13L450.88,199.09L451.61,199.81L453.16,200.26L453.76,200.81L453.54,202.06L454.29,202.55L455.54,202.63L457.14,202.09L458.69,200.53L458.57,199.77L460.1,199.3L462.36,200.11L464.16,199.89L465.3,200.38L465.91,201.46L466.58,203.55L465.56,206.14L465.01,206.6L463.76,205.62L461.69,205.96L459.61,207.64L458.21,207.05L457.13,208.95L456.02,209.46L454.95,207.69L454.36,206.09L453.36,206.31L452.46,205.74L451.86,206.61Z" class="land" id="PH-PAN" title="Pangasinan"/>
    <path d="M483.06,232.61L485.63,234.49L486.11,235.89L483.38,234.1ZM482.82,218.65L483.76,219.46L483.94,220.9L483.31,222.19L483.97,222.7L484.19,224.26L482.64,225.71L482.08,224.89L482.62,224.31L481.68,222.28L480.74,219.58ZM473.21,219.64L473.21,218.88L474.1,217.53L474.43,216.07L475.43,216.64L475.82,218.7L476.77,220.12L477.32,222.43L478.65,224.48L477.35,225.28L478.24,229.45L479.3,230.59L479.8,231.92L479.32,233.01L479.87,233.78L482.75,236.11L485.17,237.17L486.61,237.3L488.34,236.6L488.15,235.28L486.64,234.39L486.21,233.62L487.55,231.96L487.71,233.09L488.37,234.57L489.41,234.85L490.62,233.49L496.13,235.68L492.27,236.74L490.71,237.12L491.67,239L491.89,240.26L491.2,240.59L491.46,241.66L493.89,244.92L494.3,246.02L494.3,247.71L494.71,248.53L493.07,249.53L491.58,248.22L491.76,246.5L491.32,245.53L490.13,244.29L489.95,243.65L488.68,242.58L486.89,242.39L486.8,241.81L485.16,239.42L484.46,239.58L483.16,238.51L481.89,238.16L479.65,236.43L478.98,237.18L477.32,237.49L475.02,238.84L473.64,238.03L472.11,237.91L471.94,236.49L473.02,236.13L474.62,234.86L475.59,234.7L476.06,233.52L476.73,233.13L477.77,231.66L477.65,229.5L476.64,229.25L475.23,226.53L473.36,223.18L473.26,221.36Z" class="land" id="PH-QUE" title="Quezon"/>
    <path d="M485.69,194.48L484.63,195.17L481,199.45L474.89,204.82L472.74,202.94L472.45,198.58L474.73,197.62L474.94,196.16L473.8,195.78L474.19,193.15L476.41,193.25L479.48,197.2L480.87,196.27L484.91,194.42Z" class="land" id="PH-QUI" title="Quirino"/>
    <path d="M473.26,221.36L473.36,223.18L475.23,226.53L473.74,227.46L473.49,228.46L473.94,230.29L472.64,230.56L473.18,229.19L472.22,227.55L471.27,228.18L469.47,227.27L469.28,226.65L469.61,223.52L470.69,222.43L471.89,222.19Z" class="land" id="PH-RIZ" title="Rizal"/>
    <path d="M492.25,260.17L493.96,260.53L494.65,261.85L494.39,263.03L493.63,263.76L492.49,263.3L492.16,262.5L490.71,261.92L490.31,261.33L490.89,260.47ZM485.44,257.44L485.82,259.65L485.38,260.29L485.01,263.29L484.26,264.66L483.85,266.75L483.08,265.82L483.89,264.57L482.37,263.2L482.69,262L483.41,261.75L483.86,260.37L483.64,258.69L484.82,258.27Z" class="land" id="PH-ROM" title="Romblon"/>
    <path d="M526.77,272.76L527.14,273.55L528.63,274.79L528.21,275.94L527.3,275.22ZM520.84,263.78L521.96,263.76L522.83,262.93L525.33,264.43L526.48,263.64L528.52,264.81L529.52,264.25L530.59,264.64L533.42,263.71L533.3,265.32L532.78,265.67L532.82,268.44L534.28,268.43L535.26,270.71L535.45,273.56L534.26,274.83L534.65,277.33L535.85,278.06L534.94,279.36L535,282.58L534.08,281.53L533.38,280.03L532.12,279.86L531.11,280.16L530.75,277.68L529.47,276.9L528.17,276.56L529.13,275.17L530.17,275.26L530.78,274.51L530.61,273.63L531.47,272.95L530.95,271.91L529.55,272.54L528.75,271.37L527.43,270.56L527.68,269.89L526.47,269.2L525.27,267.51L523.54,267.33L521.36,265.18Z" class="land" id="PH-WSA" title="Samar"/>
    <path d="M536.09,371.21L535.54,369.26L534.77,368.85L534.28,367.14L534.4,366.17L535.3,365.68L535.6,364.73L535.3,363.04L534.79,362.82L534.7,361.16L535.04,360.36L532.2,358.95L532.89,357.32L533.79,356.79L534.64,357.29L535.81,357.01L537.02,356.29L538.03,357.8L537.77,359.16L538.96,360.65L539.44,363.45L538.59,365.83L538.71,366.74L537.24,369.87ZM532.61,365.09L532.17,366.62L529.8,366.61L528.21,366.13L524.33,364.13L523.39,364L520.77,362.49L521.47,360.98L523.81,362.01L524.4,362.67L525.85,362.54L525.86,363.2L527.73,364.21L531.25,364.33Z" class="land" id="PH-SAR" title="Sarangani"/>
    <path d="M508.96,311.75L509.85,312.77L509.77,313.53L510.49,314.24L509.25,314.92L508.24,314.94L506.55,313.46L508.25,312.93Z" class="land" id="PH-SIG" title="Siquijor"/>
    <path d="M507,252.34L508.47,251.66L509.34,251.99L511,251.77L511.55,252.39L512.96,251.51L513.7,251.5L514.26,250.25L516.24,251.62L517.29,250.94L517.69,251.86L517.46,253.23L517.67,255.24L517.35,257.5L516.49,259.68L515.04,259.54L513.23,257.74L512.52,254.95L513.05,254.43L515.47,254.16L515.56,252.61L513.34,253.18L511.98,254.39L509.71,254.27L507.77,253.18Z" class="land" id="PH-SOR" title="Sorsogon"/>
    <path d="M533.81,356.33L533.79,356.79L532.89,357.32L532.2,358.95L535.04,360.36L534.7,361.16L534.79,362.82L533.59,362.7L533.24,364.05L532.61,365.09L531.25,364.33L527.73,364.21L525.86,363.2L525.85,362.54L524.4,362.67L523.81,362.01L521.47,360.98L521.39,359.27L523.2,358.42L524.62,359.35L525.4,358.02L524.99,356.33L525.88,355.06L527.2,354.2L528.37,356.32Z" class="land" id="PH-SCO" title="South Cotabato"/>
    <path d="M533.36,290.55L534.04,291.27L533.61,291.96L533.83,293.65L535.08,294.58L535.24,295.74L534.48,296.57L533.09,296.1L533.21,297.76L534.37,298.48L535.7,301.58L535.05,301.92L533.93,299.93L533.14,299.54L532.93,297.68L532.32,297.05L531.39,294.63L530.51,294.55L530.65,297.12L531.38,299.13L531.45,300.46L529.26,298.59L527.49,298.4L527.2,297.45L528.59,296.46L529.42,296.28L529.32,294.05L530.05,292.12L531.84,292.13Z" class="land" id="PH-SLE" title="Southern Leyte"/>
    <path d="M531.06,352.91L532.91,352.34L532.94,353.62L533.76,354.7L533.81,356.33L528.37,356.32L527.2,354.2L525.88,355.06L524.99,356.33L525.4,358.02L524.62,359.35L523.2,358.42L521.39,359.27L521.47,360.98L520.77,362.49L520.34,362.56L518.13,361.03L517.86,360.04L516.08,358.37L515.52,356.06L516.03,354.4L515.45,352.95L515.85,352.43L519.4,352.39L519.67,352.86L523.28,352.87L524.36,351.72L523.99,350.67L525.61,350.32L526.2,350.56L525.73,351.91L526.99,351.94L527.83,354.05L529.19,353.93Z" class="land" id="PH-SUK" title="Sultan Kudarat"/>
    <path d="M465.45,370.92L466.32,371.67L465.56,372.48L464.92,371.89ZM469.56,362.92L470.24,363.13L471.07,364.43L472.23,364.06L474.02,364.2L474.52,365.02L472.26,366.34L470.69,365.41L469.16,366.09L468.2,365.49L466.86,366.12L465.81,365.08L466.55,363.94L468.1,362.97ZM461.43,358.09L461.14,360.39L460.22,360.15L460.79,358.44Z" class="land" id="PH-SLU" title="Sulu"/>
    <path d="M545.89,304.41L546.65,305.95L546.21,307.47L545.03,306.76L545.64,306.07L545.31,305.03ZM545.5,308.63L542.82,311.36L542.7,310.3L541.85,309.58L539.88,309.22L538.16,309.52L537.18,306.05L537.34,304.27L538.85,303.84L540.33,305.03L540.63,306.46L542.71,307.5L544.37,307.89ZM547.78,299.51L548.72,302.5L549.39,303.97L548.61,304.58L547.61,304.48L545.99,303.18L546.17,302.46Z" class="land" id="PH-SUN" title="Surigao del Norte"/>
    <path d="M498.08,333.83L498.81,333.9L500.63,332.56L502.04,332.6L502.46,330.84L502.58,328.71L504.91,328.83L505.45,329.1L508.09,329.09L508.31,331.81L509.47,332.31L510,333.27L509.23,335.27L508.34,334.9L506.7,335.54L507.03,336.86L506.73,338.44L505.48,338.8L504.73,339.65L506.53,341.54L505.98,342.75L503.9,341.02L504.17,340.02L502.96,339.88L502.29,340.43L501.23,340.28L501.03,339.55L502.51,339.05L501.7,337.5L500.95,337.24L500.75,335.56L498.08,335.21Z" class="land" id="PH-ZAS" title="Zamboanga del Sur"/>
  </g>
</svg>