<?xml version="1.0" encoding="UTF-8"?>
<svg xmlns="http://www.w3.org/2000/svg" width="483.34" height="28.39" viewBox="238.33 242.8 483.34 28.39" style="background-color:#000000">
  <!-- Created using SVG Map Generator: dojo.amcharts.com/svg-map-generator -->
  <style>
    .land { fill: #ffffff; stroke: #000000; stroke-width: 0.65; }
  </style>
  <g id="polygons">
    <path d="M713.05,250.4L713.05,250.4L711.9,250.39L711.75,250.5L711.19,250.78L711,250.82L710.71,251.1L710.46,251.13L710.3,251.21L710.17,251.2L710.05,251.26L710.05,250.89L709.99,250.82L709.84,250.84L709.74,250.47L709.58,250.35L709.44,250.33L709.47,250.19L709.43,250.07L709.44,249.82L709.28,249.82L709.16,249.72L708.91,250.09L708.89,250.21L708.66,250.18L708.67,249.92L708.73,249.77L708.68,249.64L708.73,249.53L708.65,249.43L708.43,249.36L708.26,249.39L708.02,249.38L708.06,249.19L708,249.01L707.87,248.95L707.7,248.8L707.8,248.78L708.02,248.27L708.46,248.01L707.14,246.47L708.42,246.1L708.38,246.23L708.38,246.44L708.41,246.61L708.37,246.66L708.36,246.81L708.31,246.9L708.55,246.95L708.6,246.8L708.72,246.75L708.82,246.9L708.67,247.04L708.63,247.21L708.64,247.4L708.72,247.44L708.84,247.39L709.28,247.33L709.47,247.4L709.62,247.3L709.96,247.27L710.04,247.22L710.1,246.92L710.21,246.92L710.27,247.06L710.26,247.15L710.17,247.24L710.28,247.37L710.65,247.33L710.82,247.46L710.96,247.39L711.21,247.56L711.39,247.6L711.48,247.47L711.61,247.46L712,247.59L712.45,247.52L712.6,247.59L712.63,247.88L712.75,247.8L713.04,247.79L713.3,247.89L713.21,248.05L713.31,248.16L713.46,248.17L713.56,248.26L713.78,248.55L713.54,248.6L713.44,248.78L713.28,248.8L713.21,248.91L713.06,248.97L713.08,249.32L713.21,249.36L713.23,249.52L713.32,249.72L713.34,249.96L713.16,249.97L713.07,250.06L713.02,250.23Z" class="land" id="SA-12" title="Al Jawf"/>
    <path d="M710.05,251.26L709.94,251.36L709.98,251.47L710.28,251.62L710.31,251.73L710.24,251.78L710.08,251.82L710.1,251.89L710.47,251.9L710.87,252.24L711.02,252.5L711,252.58L711.03,252.76L710.98,252.9L711.16,253.13L711.17,253.22L711.1,253.26L710.97,253.21L710.96,253.13L710.81,253.1L710.71,253.33L710.58,253.42L710.45,253.71L710.34,253.69L710.17,253.53L710.07,253.62L709.75,253.66L709.58,253.58L709.36,253.66L709.27,253.57L709.03,253.54L709,253.38L708.86,253.32L708.78,253.19L708.63,253.1L708.59,253.04L708.41,253.12L708.35,253.07L708.3,252.68L708.25,252.61L708.09,252.67L708.01,252.59L707.91,252.56L707.66,252.6L707.56,252.69L707.48,252.68L707.43,252.55L707.25,252.53L707.11,252.57L707.01,252.56L706.98,252.65L706.83,252.67L706.81,252.76L706.64,252.76L706.71,252.86L706.74,252.99L707,253.25L706.99,253.45L707.08,253.46L707.23,253.63L707.21,253.94L707.33,254.03L707.31,254.22L707.37,254.26L707.54,254.24L707.51,254.4L707.58,254.44L707.61,254.55L707.74,254.62L707.83,254.78L707.79,254.94L707.95,255.03L708.15,255.08L708.21,255.23L708.08,255.3L708.07,255.38L708.12,255.54L708.19,255.59L708.15,255.79L708.27,255.92L708.23,256.1L708.33,256.16L708.39,256.36L708.51,256.35L708.5,256.48L708.35,256.46L708.2,256.5L708.22,256.64L708.13,256.7L707.78,256.62L707.62,256.88L707.41,256.69L707.39,256.58L707.3,256.49L707.42,256.42L707.39,256.33L707.43,256.2L707.36,256.09L707.38,256.01L707.28,255.82L707.15,255.71L707.11,255.53L706.96,255.34L706.92,255.22L706.8,255.11L706.68,255.09L706.6,254.95L706.68,254.77L706.66,254.69L706.52,254.67L706.39,254.53L706.35,254.39L706.28,254.29L706.16,254.01L706.05,253.86L705.89,253.68L705.83,253.52L705.57,253.22L705.5,253.12L705.52,252.98L705.42,252.83L705.31,252.79L705.14,252.49L705.14,252.41L704.83,251.89L704.7,251.82L704.55,251.65L704.38,251.7L704.06,251.62L704.01,251.68L703.91,251.65L704.03,251.51L704.05,251.41L704.17,251.1L704.22,251.03L704.18,250.82L704.25,250.59L704.28,250.25L704.38,249.86L704.43,249.76L705.9,250.02L706.46,249.56L706.81,248.98L707.7,248.8L707.87,248.95L708,249.01L708.06,249.19L708.02,249.38L708.26,249.39L708.43,249.36L708.65,249.43L708.73,249.53L708.68,249.64L708.73,249.77L708.67,249.92L708.66,250.18L708.89,250.21L708.91,250.09L709.16,249.72L709.28,249.82L709.44,249.82L709.43,250.07L709.47,250.19L709.44,250.33L709.58,250.35L709.74,250.47L709.84,250.84L709.99,250.82L710.05,250.89Z" class="land" id="SA-07" title="Tabūk"/>
    <path d="M716.9,251.52L716.67,251.76L716.76,251.89L716.41,252.25L716.23,252.25L715.95,252.34L715.73,252.52L715.64,252.57L715.63,252.85L715.68,252.98L715.68,253.08L715.54,253.21L715.46,253.32L715.39,253.28L715.34,253.42L715.18,253.57L715.03,253.63L714.83,253.79L714.74,253.82L714.57,254.03L714.56,254.15L714.31,254.24L714.13,254.23L713.99,254.46L714.02,254.53L713.79,254.66L713.75,254.79L713.65,254.85L713.54,255.02L713.44,255.05L713.35,255.02L713.32,255.14L713.23,255.13L713.15,255.21L712.96,255.22L712.82,255.34L712.8,255.45L712.75,255.51L712.59,255.46L712.44,255.45L712.31,255.36L712.25,255.37L712.11,255.5L712.06,255.61L711.86,255.63L711.71,255.6L711.71,255.79L711.57,255.72L711.5,255.82L711.37,255.77L711.36,255.67L711.21,255.7L711.08,255.66L711.01,255.59L711.04,255.41L711.04,255.16L711,255.11L711.03,254.72L711.02,254.6L710.9,254.44L710.9,254.23L710.8,254.12L710.76,253.96L710.66,253.94L710.63,253.74L710.45,253.71L710.58,253.42L710.71,253.33L710.81,253.1L710.96,253.13L710.97,253.21L711.1,253.26L711.17,253.22L711.16,253.13L710.98,252.9L711.03,252.76L711,252.58L711.02,252.5L710.87,252.24L710.47,251.9L710.1,251.89L710.08,251.82L710.24,251.78L710.31,251.73L710.28,251.62L709.98,251.47L709.94,251.36L710.05,251.26L710.17,251.2L710.3,251.21L710.46,251.13L710.71,251.1L711,250.82L711.19,250.78L711.75,250.5L711.9,250.39L713.05,250.4L713.17,250.4L713.29,250.46L713.78,250.51L713.9,250.4L714.17,250.54L714.58,250.65L714.67,250.85L714.75,250.83L714.93,250.97L714.9,251.12L715.01,251.24L715.08,251.22L715.24,251.28L715.31,251.35L715.45,251.23L715.47,251.13L715.59,251.07L715.68,251.15L715.82,251.19L716.08,251.3L716.19,251.32L716.39,251.24L716.82,251.23Z" class="land" id="SA-06" title="Ḩā'il"/>
    <path d="M717.57,252.59L717.69,252.68L717.69,252.76L717.58,253.05L717.53,253.66L717.34,253.5L716.94,253.54L716.92,254.05L716.94,254.31L717.04,254.7L717.45,255.25L717.35,255.54L716.99,255.39L716.9,255.52L716.75,255.56L716.5,255.6L716.37,255.76L716.09,255.75L716.01,255.82L715.99,255.94L715.85,255.96L715.73,255.88L715.49,256.1L715.31,256.13L715.2,256.25L715.24,256.45L715.33,256.53L715.16,256.76L714.92,256.73L714.78,256.86L714.49,256.86L714.32,256.53L713.93,256.55L713.68,255.98L713.51,255.87L713.39,255.91L713.23,255.88L713.11,255.79L712.8,255.45L712.82,255.34L712.96,255.22L713.15,255.21L713.23,255.13L713.32,255.14L713.35,255.02L713.44,255.05L713.54,255.02L713.65,254.85L713.75,254.79L713.79,254.66L714.02,254.53L713.99,254.46L714.13,254.23L714.31,254.24L714.56,254.15L714.57,254.03L714.74,253.82L714.83,253.79L715.03,253.63L715.18,253.57L715.34,253.42L715.39,253.28L715.46,253.32L715.54,253.21L715.68,253.08L715.68,252.98L715.63,252.85L715.64,252.57L715.73,252.52L715.95,252.34L716.23,252.25L716.41,252.25L716.76,251.89L716.67,251.76L716.9,251.52L717.13,251.81L717.29,251.96L717.28,252.17L717.33,252.38L717.37,252.44Z" class="land" id="SA-05" title="Al Qaşīm"/>
    <path d="M712.8,255.45L713.11,255.79L713.23,255.88L713.39,255.91L713.51,255.87L713.68,255.98L713.93,256.55L713.91,256.7L713.93,256.83L713.85,257.04L713.87,257.49L713.82,257.51L713.81,257.67L713.61,257.74L713.6,257.87L713.49,257.89L713.42,257.8L713.31,257.85L713.3,257.96L713.18,257.96L712.98,258.01L712.91,258.07L712.83,258.23L712.82,258.48L712.87,258.68L712.97,258.77L712.93,258.86L712.78,258.87L712.75,258.93L712.59,258.92L712.5,259L712.48,259.14L712.18,259.14L712.11,259.28L712.09,259.48L712.04,259.54L711.91,259.61L711.82,259.53L711.73,259.53L711.58,259.6L711.51,259.7L711.29,259.68L711.27,259.51L711.17,259.34L711.04,259.34L710.96,259.3L710.84,259.3L710.9,259.19L710.91,259.07L710.82,258.88L710.65,258.91L710.54,258.83L710.52,258.97L710.42,259.01L710.34,258.95L710.22,259L710.16,258.9L710.05,258.86L709.94,258.74L709.97,258.65L709.89,258.54L709.79,258.52L709.67,258.43L709.64,258.33L709.51,258.33L709.45,258.4L709.28,258.42L709.19,258.34L709.04,258.09L709.03,258L708.71,257.73L708.54,257.57L708.47,257.58L708.33,257.44L708.22,257.45L708.11,257.31L708,257.28L707.81,257.3L707.72,257.12L707.71,257.04L707.62,256.88L707.78,256.62L708.13,256.7L708.22,256.64L708.2,256.5L708.35,256.46L708.5,256.48L708.51,256.35L708.39,256.36L708.33,256.16L708.23,256.1L708.27,255.92L708.15,255.79L708.19,255.59L708.12,255.54L708.07,255.38L708.08,255.3L708.21,255.23L708.15,255.08L707.95,255.03L707.79,254.94L707.83,254.78L707.74,254.62L707.61,254.55L707.58,254.44L707.51,254.4L707.54,254.24L707.37,254.26L707.31,254.22L707.33,254.03L707.21,253.94L707.23,253.63L707.08,253.46L706.99,253.45L707,253.25L706.74,252.99L706.71,252.86L706.64,252.76L706.81,252.76L706.83,252.67L706.98,252.65L707.01,252.56L707.11,252.57L707.25,252.53L707.43,252.55L707.48,252.68L707.56,252.69L707.66,252.6L707.91,252.56L708.01,252.59L708.09,252.67L708.25,252.61L708.3,252.68L708.35,253.07L708.41,253.12L708.59,253.04L708.63,253.1L708.78,253.19L708.86,253.32L709,253.38L709.03,253.54L709.27,253.57L709.36,253.66L709.58,253.58L709.75,253.66L710.07,253.62L710.17,253.53L710.34,253.69L710.45,253.71L710.63,253.74L710.66,253.94L710.76,253.96L710.8,254.12L710.9,254.23L710.9,254.44L711.02,254.6L711.03,254.72L711,255.11L711.04,255.16L711.04,255.41L711.01,255.59L711.08,255.66L711.21,255.7L711.36,255.67L711.37,255.77L711.5,255.82L711.57,255.72L711.71,255.79L711.71,255.6L711.86,255.63L712.06,255.61L712.11,255.5L712.25,255.37L712.31,255.36L712.44,255.45L712.59,255.46L712.75,255.51Z" class="land" id="SA-03" title="Al Madīnah al Munawwarah"/>
    <path d="M713.05,250.4L713.02,250.23L713.07,250.06L713.16,249.97L713.34,249.96L713.32,249.72L713.23,249.52L713.21,249.36L713.08,249.32L713.06,248.97L713.21,248.91L713.28,248.8L713.44,248.78L713.54,248.6L713.78,248.55L713.56,248.26L713.46,248.17L713.31,248.16L713.21,248.05L713.3,247.89L713.04,247.79L712.75,247.8L712.63,247.88L712.6,247.59L712.45,247.52L712,247.59L711.61,247.46L711.48,247.47L711.39,247.6L711.21,247.56L710.96,247.39L710.82,247.46L710.65,247.33L710.28,247.37L710.17,247.24L710.26,247.15L710.27,247.06L710.21,246.92L710.1,246.92L710.04,247.22L709.96,247.27L709.62,247.3L709.47,247.4L709.28,247.33L708.84,247.39L708.72,247.44L708.64,247.4L708.63,247.21L708.67,247.04L708.82,246.9L708.72,246.75L708.6,246.8L708.55,246.95L708.31,246.9L708.36,246.81L708.37,246.66L708.41,246.61L708.38,246.44L708.38,246.23L708.42,246.1L709.79,245.69L710.06,245.45L711.62,245.77L711.69,245.79L713,246.66L713.89,247.04L717.37,249.99L718.53,250.1L718.56,250.23L718.68,250.46L718.69,250.75L718.53,251.08L718.39,251.11L718.14,250.71L717.97,250.6L717.85,250.61L717.81,250.83L717.08,251.28L716.9,251.52L716.82,251.23L716.39,251.24L716.19,251.32L716.08,251.3L715.82,251.19L715.68,251.15L715.59,251.07L715.47,251.13L715.45,251.23L715.31,251.35L715.24,251.28L715.08,251.22L715.01,251.24L714.9,251.12L714.93,250.97L714.75,250.83L714.67,250.85L714.58,250.65L714.17,250.54L713.9,250.4L713.78,250.51L713.29,250.46L713.17,250.4Z" class="land" id="SA-08" title="Al Ḩudūd ash Shamālīyah"/>
    <path d="M716.16,262.35L715.96,262.33L715.81,262.23L715.35,262.17L715.16,262.49L715,262.49L714.94,262.61L714.78,262.59L714.7,262.66L714.73,262.78L714.64,262.79L714.54,262.93L714.42,263L714.31,262.87L714.22,262.87L714.13,262.94L713.99,262.9L713.95,262.74L713.92,262.64L713.92,262.48L713.71,262.46L713.68,262.32L713.57,262.41L713.45,262.39L713.38,262.43L713.24,262.26L713.1,262.23L712.98,262.11L712.87,262.17L712.86,262.34L712.79,262.47L712.79,262.59L712.69,262.66L712.66,262.83L712.59,262.98L712.54,262.88L712.46,262.82L712.38,262.98L712.23,263.13L712.2,263.26L712.27,263.39L712.27,263.51L712.41,263.64L712.5,263.68L712.45,263.8L712.65,263.91L712.68,264.01L712.61,264.13L712.77,264.13L712.78,264.23L712.9,264.16L713.05,264.16L713.17,264.11L713.19,263.88L713.36,263.83L713.39,263.86L713.54,263.89L713.58,264.02L713.55,264.1L713.6,264.24L713.7,264.27L713.69,264.61L713.64,264.74L713.54,264.76L713.48,264.63L713.34,264.58L713.25,264.6L713.23,264.83L713.11,264.84L713.05,264.91L713.23,265.13L713.3,265.31L713.29,265.36L713.01,265.41L712.98,265.53L712.92,265.46L712.83,265.45L712.72,265.27L712.77,265.08L712.66,265.03L712.62,264.93L712.66,264.74L712.54,264.69L712.5,264.59L712.5,264.48L712.39,264.35L712.39,264.17L712.26,264.1L712.18,264.01L712.19,263.93L712.1,263.74L712.02,263.77L711.89,263.7L711.83,263.6L711.83,263.5L711.61,263.35L711.5,263.32L711.43,263.19L711.34,263.19L711.27,263.07L711.2,263.05L711.05,263.09L710.94,263.04L710.75,262.89L710.56,262.66L710.44,262.43L710.45,262.38L710.2,262.15L710.11,261.93L710.04,261.89L710.01,261.73L709.93,261.6L710.01,261.52L709.99,261.3L709.94,261.27L709.9,261.03L709.85,260.91L709.72,260.75L709.74,260.63L709.81,260.63L709.83,260.35L709.92,260.18L709.89,260.04L709.9,259.81L709.51,259.14L709.54,259.07L709.51,258.93L709.41,258.83L709.35,258.67L709.28,258.42L709.45,258.4L709.51,258.33L709.64,258.33L709.67,258.43L709.79,258.52L709.89,258.54L709.97,258.65L709.94,258.74L710.05,258.86L710.16,258.9L710.22,259L710.34,258.95L710.42,259.01L710.52,258.97L710.54,258.83L710.65,258.91L710.82,258.88L710.91,259.07L710.9,259.19L710.84,259.3L710.96,259.3L711.04,259.34L711.17,259.34L711.27,259.51L711.29,259.68L711.51,259.7L711.58,259.6L711.73,259.53L711.82,259.53L711.91,259.61L712.04,259.54L712.09,259.48L712.11,259.28L712.18,259.14L712.48,259.14L712.5,259L712.59,258.92L712.75,258.93L712.78,258.87L712.93,258.86L712.97,258.77L712.87,258.68L712.82,258.48L712.83,258.23L712.91,258.07L712.98,258.01L713.18,257.96L713.3,257.96L713.39,258.02L713.64,258.1L713.94,258.09L714.03,258.07L714.1,258.29L714.22,258.32L714.26,258.4L714.27,258.56L714.36,258.78L714.42,258.81L714.66,258.84L714.71,258.92L714.71,259.14L714.91,259.17L714.94,259.31L715.06,259.41L715.35,259.44L715.36,259.54L715.32,259.65L715.39,259.83L715.49,259.84L715.57,259.98L715.44,260.03L715.44,260.1L715.55,260.28L715.56,260.42L715.69,260.51L715.73,260.58L715.74,260.8L715.71,260.93L715.72,261.19L715.93,261.29L715.95,261.38L715.83,261.59L715.85,261.72L716.01,261.91L716.14,262.12Z" class="land" id="SA-02" title="Makkah al Mukarramah"/>
    <path d="M719.02,253.69L718.68,253.41L718.46,253.34L718.5,253.25L718.43,253.16L718.21,253.2L718.05,253.16L717.9,252.96L717.86,252.77L717.86,252.58L717.75,252.47L717.57,252.59L717.37,252.44L717.33,252.38L717.28,252.17L717.29,251.96L717.13,251.81L716.9,251.52L717.08,251.28L717.81,250.83L717.85,250.61L717.97,250.6L718.14,250.71L718.39,251.11L718.53,251.08L718.69,250.75L718.68,250.46L718.56,250.23L718.53,250.1L719.02,250.14L719.02,253.69ZM240.98,250.14L241.6,250.2L241.77,250.15L242.98,250.31L243.14,250.54L243.18,250.82L243.3,251.03L244.27,251.01L244.36,251.07L244.42,251.2L244.38,251.32L244.47,251.44L244.51,251.65L244.6,251.78L244.75,251.82L244.69,251.89L244.79,252.02L244.74,252.25L244.82,252.33L244.89,252.47L244.98,252.38L245.16,252.5L245.3,252.5L245.43,252.61L245.39,252.67L245.24,252.68L245.35,252.8L245.45,252.83L245.45,252.97L245.58,253.03L245.6,253.09L245.73,253.02L245.8,253.18L245.95,253.38L246.18,253.52L246.29,253.53L246.51,253.79L246.34,253.78L246.41,254.06L246.53,254.15L246.6,254.16L246.66,254.29L246.64,254.53L246.53,254.75L246.43,254.52L246.34,254.62L246.41,254.79L246.51,254.85L246.49,254.95L246.54,255.06L246.68,255.27L246.64,255.35L246.85,255.61L246.88,255.58L247.01,255.67L247.06,255.83L247.08,256.07L247.22,256.3L247.26,256.43L247.32,256.46L247.4,256.64L247.64,256.9L247.81,256.93L247.97,256.82L248.15,256.9L248.27,256.82L248.28,256.92L248.23,257.01L248.11,257.1L248.07,257.29L248.19,257.26L248.33,257.28L248.48,257.41L248.46,257.57L249.73,259.21L252.97,259.86L253.27,259.61L253.88,260.62L253.65,261.34L252.98,263.44L249.05,264.81L249.05,264.4L242.92,264.4L242.92,264.4L243.77,262.35L243.33,261.85L243.38,261.43L243.27,261.36L243.41,261L243.67,260.83L243.84,260.71L243.62,260.72L243.52,260.68L243.41,260.69L243.25,260.55L243.26,260.48L243.35,260.3L243.36,260.2L243.5,259.97L243.55,259.84L243.67,259.17L243.68,258.81L243.71,258.74L243.72,258.34L243.79,258.06L243.76,257.65L243.82,257.55L243.82,257.44L243.76,257.27L243.75,257.12L243.64,256.96L243.61,256.79L243.31,256.88L243.31,256.56L243.33,256.44L243.27,256.27L243.15,256.18L243.21,256.11L243.21,255.98L243.4,255.82L243.36,255.76L243.38,255.63L243.25,255.41L243.35,255.05L243.23,254.96L243.24,254.81L243.2,254.75L243.25,254.63L243.13,254.31L242.75,254.26L242.57,254.11L242.56,254.05L242.37,254.04L242.32,253.94L242.2,253.97L242,253.93L241.83,253.96L241.46,253.77L241.37,253.79L241.27,253.68L241.08,253.76L240.98,253.69L240.98,250.14Z" class="land" id="SA-04" title="Ash Sharqīyah"/>
    <path d="M719.02,267.27L718.24,267.17L718.03,267.03L717.32,267.04L717.12,267.08L717.07,267.05L716.87,267.04L716.6,267.09L716.41,267.1L716.33,267.22L716.11,267.12L716,267.13L716.05,267.05L716.01,266.98L716.01,266.88L715.9,266.75L715.89,266.55L715.92,266.41L716.02,266.25L716.01,266.19L716.07,265.98L716.18,265.93L716.3,265.61L716.37,265.51L716.38,265.38L716.55,265.19L716.48,265.13L716.58,265.02L716.66,265.03L716.75,264.94L716.87,264.96L716.87,264.75L716.93,264.67L716.99,264.41L716.89,264.4L716.88,264.24L716.88,264.24L717.84,264.19L717.86,264.56L718.17,264.4L719.02,264.39L719.02,267.27ZM240.98,264.39L242.92,264.4L249.05,264.4L249.05,264.81L249.05,264.81L248.97,264.84L247.4,265.11L245.15,265.36L243.89,265.99L243.14,266.99L242.97,267.47L242.57,267.71L242.33,267.7L242.01,267.23L241.6,267.3L241.44,267.31L241.13,267.29L240.98,267.27L240.98,264.39Z" class="land" id="SA-10" title="Najrān"/>
    <path d="M713.39,263.86L713.5,263.73L713.5,263.59L713.57,263.52L713.58,263.39L713.63,263.34L713.62,263.12L713.75,262.98L713.8,262.81L713.95,262.74L713.99,262.9L714.13,262.94L714.22,262.87L714.31,262.87L714.42,263L714.54,262.93L714.64,262.79L714.73,262.78L714.7,262.66L714.78,262.59L714.94,262.61L715,262.49L715.16,262.49L715.35,262.17L715.81,262.23L715.96,262.33L716.16,262.35L716.16,262.43L716.25,262.45L716.35,262.59L716.44,262.59L716.44,262.9L716.51,263.11L716.51,263.28L716.68,263.65L716.7,263.77L716.67,263.89L716.72,264L716.59,264.05L716.59,264.15L716.66,264.19L716.87,264.2L716.88,264.24L716.89,264.4L716.99,264.41L716.93,264.67L716.87,264.75L716.87,264.96L716.75,264.94L716.66,265.03L716.58,265.02L716.48,265.13L716.55,265.19L716.38,265.38L716.37,265.51L716.3,265.61L716.18,265.93L716.07,265.98L716.01,266.19L716.02,266.25L715.92,266.41L715.89,266.55L715.9,266.75L716.01,266.88L716.01,266.98L716.05,267.05L716,267.13L715.85,266.99L715.61,266.82L715.53,266.82L715.42,266.9L715.4,267.01L715.33,266.96L715.34,266.87L715.21,266.87L715.07,266.7L714.97,266.62L714.82,266.64L714.6,266.58L714.41,266.58L714.33,266.62L714.3,266.54L714.14,266.44L714.12,266.26L713.95,266.25L713.92,266.3L713.91,266.48L713.81,266.61L713.69,266.62L713.56,266.53L713.33,266.33L713.25,266.18L713.2,266.04L713.07,265.86L713.03,265.63L712.98,265.53L713.01,265.41L713.29,265.36L713.3,265.31L713.23,265.13L713.05,264.91L713.11,264.84L713.23,264.83L713.25,264.6L713.34,264.58L713.48,264.63L713.54,264.76L713.64,264.74L713.69,264.61L713.7,264.27L713.6,264.24L713.55,264.1L713.58,264.02L713.54,263.89L713.39,263.86Z" class="land" id="SA-14" title="'Asīr"/>
    <path d="M713.95,262.74L713.8,262.81L713.75,262.98L713.62,263.12L713.63,263.34L713.58,263.39L713.57,263.52L713.5,263.59L713.5,263.73L713.39,263.86L713.36,263.83L713.19,263.88L713.17,264.11L713.05,264.16L712.9,264.16L712.78,264.23L712.77,264.13L712.61,264.13L712.68,264.01L712.65,263.91L712.45,263.8L712.5,263.68L712.41,263.64L712.27,263.51L712.27,263.39L712.2,263.26L712.23,263.13L712.38,262.98L712.46,262.82L712.54,262.88L712.59,262.98L712.66,262.83L712.69,262.66L712.79,262.59L712.79,262.47L712.86,262.34L712.87,262.17L712.98,262.11L713.1,262.23L713.24,262.26L713.38,262.43L713.45,262.39L713.57,262.41L713.68,262.32L713.71,262.46L713.92,262.48L713.92,262.64Z" class="land" id="SA-11" title="Al Bāḩah"/>
    <path d="M713.71,267.8L713.77,268.01L713.68,268L713.55,267.83L713.66,267.77ZM713.6,267.94L713.64,268.03L713.74,268.07L713.83,267.94L713.99,268.07L714.02,268.26L713.91,268.24L713.91,268.14L713.83,268.12L713.74,268.17L713.56,268.06L713.47,267.96L713.47,267.85ZM715.4,267.01L715.4,267.13L715.51,267.17L715.55,267.24L715.38,267.29L715.33,267.42L715.35,267.74L715.29,267.79L715.34,267.86L715.45,267.92L715.4,268.04L715.3,268.11L715.26,268.29L715.09,268.34L715.02,268.39L715.04,268.49L714.87,268.55L714.84,268.43L714.75,268.35L714.72,268.26L714.74,268.12L714.71,268.03L714.61,267.91L714.52,267.84L714.51,267.66L714.37,267.59L714.3,267.5L714.24,267.49L714.19,267.05L713.93,266.79L713.69,266.62L713.81,266.61L713.91,266.48L713.92,266.3L713.95,266.25L714.12,266.26L714.14,266.44L714.3,266.54L714.33,266.62L714.41,266.58L714.6,266.58L714.82,266.64L714.97,266.62L715.07,266.7L715.21,266.87L715.34,266.87L715.33,266.96Z" class="land" id="SA-09" title="Jāzān"/>
    <path d="M240.98,253.69L241.08,253.76L241.27,253.68L241.37,253.79L241.46,253.77L241.83,253.96L242,253.93L242.2,253.97L242.32,253.94L242.37,254.04L242.56,254.05L242.57,254.11L242.75,254.26L243.13,254.31L243.25,254.63L243.2,254.75L243.24,254.81L243.23,254.96L243.35,255.05L243.25,255.41L243.38,255.63L243.36,255.76L243.4,255.82L243.21,255.98L243.21,256.11L243.15,256.18L243.27,256.27L243.33,256.44L243.31,256.56L243.31,256.88L243.61,256.79L243.64,256.96L243.75,257.12L243.76,257.27L243.82,257.44L243.82,257.55L243.76,257.65L243.79,258.06L243.72,258.34L243.71,258.74L243.68,258.81L243.67,259.17L243.55,259.84L243.5,259.97L243.36,260.2L243.35,260.3L243.26,260.48L243.25,260.55L243.41,260.69L243.52,260.68L243.62,260.72L243.84,260.71L243.67,260.83L243.41,261L243.27,261.36L243.38,261.43L243.33,261.85L243.77,262.35L242.92,264.4L240.98,264.39L240.98,253.69ZM719.02,264.39L718.17,264.4L717.86,264.56L717.84,264.19L716.88,264.24L716.87,264.2L716.66,264.19L716.59,264.15L716.59,264.05L716.72,264L716.67,263.89L716.7,263.77L716.68,263.65L716.51,263.28L716.51,263.11L716.44,262.9L716.44,262.59L716.35,262.59L716.25,262.45L716.16,262.43L716.16,262.35L716.14,262.12L716.01,261.91L715.85,261.72L715.83,261.59L715.95,261.38L715.93,261.29L715.72,261.19L715.71,260.93L715.74,260.8L715.73,260.58L715.69,260.51L715.56,260.42L715.55,260.28L715.44,260.1L715.44,260.03L715.57,259.98L715.49,259.84L715.39,259.83L715.32,259.65L715.36,259.54L715.35,259.44L715.06,259.41L714.94,259.31L714.91,259.17L714.71,259.14L714.71,258.92L714.66,258.84L714.42,258.81L714.36,258.78L714.27,258.56L714.26,258.4L714.22,258.32L714.1,258.29L714.03,258.07L713.94,258.09L713.64,258.1L713.39,258.02L713.3,257.96L713.31,257.85L713.42,257.8L713.49,257.89L713.6,257.87L713.61,257.74L713.81,257.67L713.82,257.51L713.87,257.49L713.85,257.04L713.93,256.83L713.91,256.7L713.93,256.55L713.93,256.55L714.32,256.53L714.49,256.86L714.78,256.86L714.92,256.73L715.16,256.76L715.33,256.53L715.24,256.45L715.2,256.25L715.31,256.13L715.49,256.1L715.73,255.88L715.85,255.96L715.99,255.94L716.01,255.82L716.09,255.75L716.37,255.76L716.5,255.6L716.75,255.56L716.9,255.52L716.99,255.39L717.35,255.54L717.45,255.25L717.04,254.7L716.94,254.31L716.92,254.05L716.94,253.54L717.34,253.5L717.53,253.66L717.58,253.05L717.69,252.76L717.69,252.68L717.57,252.59L717.75,252.47L717.86,252.58L717.86,252.77L717.9,252.96L718.05,253.16L718.21,253.2L718.43,253.16L718.5,253.25L718.46,253.34L718.68,253.41L719.02,253.69L719.02,264.39Z" class="land" id="SA-01" title="Ar Riyāḑ"/>
  </g>
</svg>