<?xml version="1.0" encoding="UTF-8"?>
<svg xmlns="http://www.w3.org/2000/svg" width="409.69" height="262.28" viewBox="275.16 125.86 409.69 262.28" style="background-color:#000000">
  <!-- Created using SVG Map Generator: dojo.amcharts.com/svg-map-generator -->
  <style>
    .land { fill: #ffffff; stroke: #000000; stroke-width: 0.65; }
  </style>
  <g id="polygons">
    <path d="M471.32,346.36L469.8,345.6L471.06,343.66ZM377.98,348.64L380.25,348.72L382.11,348.13L382.28,349.31L380.59,350.16L383.88,352.94L384.55,352.69L385.56,353.87L384.89,354.62L383.37,353.87L382.7,354.71L379.07,355.47L377.13,354.71L374.35,354.88L372.5,355.38L370.3,355.3L367.52,354.62L363.56,354.2L363.22,352.94L367.35,349.9L368.53,348.3L370.05,347.54L374.6,346.7L375.28,346.02L377.05,346.53L377.22,347.88ZM442.82,356.23L440.12,355.81L435.9,353.02L434.89,351L434.72,348.13L435.82,348.22L439.36,351.42L440.12,352.77L442.9,355.72ZM379.07,365.08L379.92,364.75L381.26,366.68L380.76,369.38L379.92,370.82L376.8,372.25L375.02,372.42L373.42,374.19L372.66,370.73L372.92,369.81L371.57,368.79L374.69,368.79L376.37,367.87L376.96,365.08L378.31,364.58ZM383.54,367.7L381.52,367.87L381.18,366.18L382.28,365.76L383.46,366.68ZM385.56,377.9L386.75,378.66L389.11,378.58L391.55,379.08L391.64,380.26L390.29,380.35L390.29,384.9L389.27,385.49L387.08,384.65L385.31,384.65L384.22,383.21L383.71,381.27L382.44,379.93L381.94,378.74L384.89,377.31ZM391.21,172.03L392.82,176.84L392.31,179.87L392.56,181.39L393.32,182.66L396.02,184.01L394.16,186.54L393.32,191.77L391.3,195.56L391.3,197.67L392.39,199.95L395.68,197.75L398.3,197.25L403.36,198.09L405.46,201.04L407.99,206.1L409,205.85L409.93,208.38L410.69,212.51L411.2,213.61L414.4,218.84L414.06,220.86L414.32,224.24L415.33,225.92L416.17,227.95L416.68,231.49L418.03,230.73L425.36,240.18L425.7,241.86L423.25,241.11L421.57,239.08L418.62,238.83L418.03,238.41L414.91,239.67L412.12,239.59L410.35,240.01L409.76,240.85L408.41,241.27L407.74,243.13L411.62,245.49L411.45,247.6L411.53,252.91L410.1,252.49L408.16,253.34L412.04,259.49L413.05,258.65L413.22,256.88L415.16,254.94L417.52,257.38L418.03,260L418.36,262.78L422.16,262.53L428.9,266.32L431.94,266.07L433.71,266.58L434.38,266.24L435.31,266.66L439.36,270.03L438.68,270.88L437.17,271.47L438.85,275.35L440.71,277.62L440.96,283.87L441.64,285.47L442.39,285.89L452.85,286.65L456.73,289.01L455.46,291.71L453.86,294.07L451.67,296.18L451.25,297.28L458.5,301.58L462.63,301.41L463.56,303.01L461.96,304.02L458.08,303.85L458.08,303.1L454.87,303.26L452.77,301.32L451.16,301.16L449.48,302.34L447.88,301.66L446.27,303.43L445.94,304.7L442.48,301.66L442.65,301.07L439.53,298.96L437.25,297.78L435.99,298.96L435.99,299.72L429.49,310.77L423.76,307.4L430.42,295.84L428.14,293.23L425.62,291.88L425.19,292.64L423.51,291.79L424.27,289.52L423.34,289.01L417.01,299.72L399.65,289.6L402.01,285.47L405.04,284.96L415.75,291.29L418.45,286.82L408.58,281.08L410.52,277.54L407.66,274.93L405.38,272.06L404.03,269.36L403.52,267.5L402.6,266.75L401.75,267.5L404.7,274.59L403.78,275.6L398.97,276.11L394.92,275.01L394.33,273.83L395.09,272.56L394,272.14L391.89,274.25L382.44,271.97L381.69,269.44L381.85,268.01L381.18,267.42L380.51,264.97L380.84,262.95L379.58,262.61L378.9,264.97L377.05,268.68L377.81,269.19L379.16,268.77L379.49,267.76L381.18,272.99L381.01,273.32L376.46,271.05L370.64,266.32L367.27,265.9L365.75,266.83L364.65,267L364.82,271.64L359.43,271.89L359.43,270.2L356.56,269.19L357.07,270.54L356.98,273.83L353.61,273.83L353.36,270.54L352.34,270.2L352.26,272.73L351.08,273.41L346.69,273.83L343.83,274.25L342.56,266.07L341.3,266.07L341.97,271.13L342.23,275.26L339.27,276.44L334.64,271.47L334.55,267.93L331.26,268.26L331.77,272.9L336.07,277.46L334.89,278.89L329.32,283.19L328.06,281.76L327.47,280.49L322.75,277.71L322.16,276.11L321.15,277.12L320.3,276.44L321.48,275.43L320.3,274.84L318.53,272.9L317.01,274.08L315.08,272.23L318.53,268.18L321.48,265.23L320.56,264.05L318.62,266.15L315.16,269.61L312.12,266.83L312.55,265.31L313.56,264.64L316.93,260.59L315.16,259.07L309.93,264.55L306.98,262.53L306.73,261.77L304.87,260.34L303.27,262.61L303.02,264.3L304.37,265.99L308.58,273.66L308.84,274.84L311.96,280.49L315.24,286.73L315.24,289.35L313.14,291.29L310.52,291.54L308.16,291.2L307.32,292.55L306.47,302.84L301.67,305.03L301.58,304.28L305.63,302.25L305.97,299.89L305.55,299.22L291.55,306.22L291.3,309L296.95,306.47L297.54,306.89L287.25,311.87L286.15,313.22L286.32,314.82L291.21,324.94L291.47,325.7L290.62,326.88L288.18,326.96L287.76,328.06L288.85,331.01L288.52,335.73L286.66,336.24L286.15,337.42L284.13,338.09L281.94,339.87L282.02,341.81L284.64,342.82L289.95,344.17L290.71,344.08L307.4,348.64L310.1,347.54L309.51,349.4L307.91,349.23L281.01,342.56L278.73,341.55L279.24,341.05L280.76,341.3L281.26,339.61L282.78,338.26L285.99,336.41L287.5,335.23L287.84,334.3L287.84,330.76L286.24,326.88L284.13,327.13L281.85,323.84L280.67,324.18L277.81,323.59L277.81,321.31L283.46,321.31L283.54,319.29L280.42,319.2L280.34,313.47L283.12,313.47L283.12,311.36L281.18,311.36L281.18,307.56L277.98,307.56L277.81,306.55L280.51,299.64L281.35,298.54L281.6,295.93L283.03,292.97L286.58,291.54L288.18,290.02L288.52,287.91L289.44,285.22L289.11,283.36L289.86,282.69L288.35,280.49L287.76,277.62L288.52,276.53L290.71,269.95L291.47,268.26L294.42,259.49L298.21,249.62L299.81,245.07L301.16,241.86L301.25,240.77L303.36,234.86L302.68,232.33L302.85,230.98L303.69,230.14L305.13,230.06L305.72,230.9L305.29,232.5L306.9,232.59L308.08,233.52L309.51,233.85L310.61,236.05L311.96,237.31L314.15,237.14L315.58,237.48L315.33,240.26L316.26,242.46L318.2,243.55L320.05,242.88L321.74,241.36L320.47,240.35L318.79,241.36L317.94,240.35L318.03,237.14L316.09,235.29L312.12,232.17L310.69,230.65L310.27,229.05L309,227.78L307.82,225.59L309.34,223.82L314.82,213.36L314.82,212.09L315.92,210.91L318.11,210.49L320.47,205.35L321.48,203.74L321.57,202.06L323.59,200.71L323.84,199.02L324.69,197.75L325.78,195.22L325.61,193.28L326.04,190.92L325.53,190.33L326.29,186.03L325.87,184.34L326.96,183.92L327.89,182.83L327.89,181.48L330,181.22L331.6,180.46L332.78,179.2L332.53,177.6L333.29,176.33L333.79,172.62L334.72,172.03L334.64,170.85L335.31,169.42L335.65,167.48L336.83,167.05L338.68,164.1L340.96,164.44L343.15,162.33L345.43,162.92L345.77,161.49L347.62,160.64L351.67,160.22L354.03,158.7L357.49,154.99L359.34,153.9L361.2,151.53L364.82,149.26L366.68,147.57L368.36,146.56L373.17,145.29L375.28,145.04L376.54,145.71L376.37,147.57L377.3,147.99L380.51,146.39L382.7,146.64L384.47,148.25L385.48,150.35L386.32,150.35L388.43,152.04L388.85,153.22L388.01,153.98L388.43,154.99L389.78,155.41L388.18,157.61L389.19,158.37L388.94,159.55L389.36,160.9L387.59,161.57L387.84,162.92L389.44,163.51L387.67,169.25L387.67,170.76L386.75,171.86L384.55,173.63L382.19,176.25L380.76,176.75L379.16,175.66L378.23,177.93L375.95,178.61L373.17,178.27L371.06,176.08L369.88,175.91L369.04,177.17L365.75,178.95L366.51,179.96L364.49,181.73L362.46,181.98L362.63,182.83L363.98,182.91L365.08,184.18L366.26,184.18L366,181.81L368.62,178.1L370.47,178.27L371.15,179.2L370.89,180.38L371.91,181.31L373.84,180.3L376.21,179.71L379.24,180.46L379.75,181.65L379.58,184.01L378.31,185.19L378.48,186.45L377.47,187.38L377.81,188.81L376.88,189.66L378.14,190.5L377.72,192.78L376.21,194.04L374.43,194.97L373.17,194.55L370.72,191.43L370.39,191.77L372.75,194.8L374.52,195.56L374.35,196.49L374.86,199.95L375.36,199.86L374.94,195.65L377.3,194.47L380,191.6L380.08,189.74L379.66,188.22L380,187.21L381.35,185.36L383.2,187.04L384.55,189.24L385.06,191.01L385.65,191.85L385.65,193.28L386.32,197.25L387.5,194.3L387.25,193.12L388.01,192.19L387.5,190.67L385.56,187.63L384.3,185.1L383.54,184.18L382.44,181.56L382.87,179.62L384.64,179.45L385.06,176.84L386.58,176.33L387.5,174.9L388.85,174.9L390.79,173.04ZM322.07,203.83L318.53,210.91L319.21,211.16L319.12,213.19L316.34,214.62L315.5,213.53L311.37,221.29L309.76,223.98L311.28,224.66L311.37,223.14L313.39,221.29L315.08,221.37L317.44,220.53L317.86,221.37L319.21,220.78L318.87,219.01L317.1,217.57L317.6,215.55L318.7,214.88L320.13,212.35L321.31,212.94L322.75,212.85L330.25,211.76L332.11,212.94L332.44,214.79L333.46,217.32L335.4,217.07L335.56,214.88L334.81,212.43L332.87,210.49L333.29,209.22L334.97,207.88L334.81,203.32L330.93,203.15L326.8,204.42L325.19,204.08L322.83,202.81ZM368.11,267.84L369.8,267.76L375.02,272.23L374.6,273.49L367.01,273.75L367.1,267.5ZM365.16,279.99L368.53,280.32L372.24,281.25L372.58,280.16L375.02,280.58L377.05,281.34L378.31,282.26L379.33,284.03L379.75,286.48L382.28,289.35L382.87,289.43L384.38,291.12L387.67,291.54L391.21,295.25L391.21,296.18L388.6,297.95L386.91,298.37L385.06,299.22L383.46,298.37L379.75,297.28L377.55,299.13L381.6,300.48L382.44,300.99L382.36,302.93L382.87,304.11L380.67,305.46L377.22,307.06L374.6,306.22L372.5,304.53L366.51,301.41L366,298.96L364.82,300.82L362.97,299.72L361.53,302.42L365.33,304.53L366.34,305.46L369.29,306.97L369.12,308.16L362.8,311.61L354.2,314.9L352.09,306.81L344.75,300.23L340.62,304.61L345.6,309.17L349.31,322.32L349.14,324.43L347.03,326.71L346.36,326.2L342.65,329.83L342.9,331.01L335.73,338.43L334.47,338.85L333.88,338.01L337.08,334.97L337.67,333.71L336.32,330.67L335.14,330.34L334.3,328.65L331.1,328.73L328.14,322.83L328.06,321.73L331.18,320.3L331.26,319.46L329.32,314.99L328.4,314.23L327.3,311.95L326.71,311.78L325.19,312.71L325.28,313.64L323.68,313.81L322.75,311.44L320.13,305.37L321.15,305.37L321.99,307.06L322.75,309.67L323.51,311.44L326.29,310.26L324.43,306.64L324.35,304.28L322.92,301.58L321.82,300.9L320.64,298.12L329.41,292.05L337.17,286.48L343.24,282.77L345.6,281.67L347.37,281.34L349.81,281.42L353.36,281.25L353.78,281.93L350.07,286.06L349.73,288L344,293.48L347.54,296.77L348.89,295.5L350.83,292.72L351.92,293.56L354.11,292.22L353.95,290.61L354.7,288.76L355.55,288.42L357.82,286.06L360.44,289.01L361.28,291.79L363.3,290.95L364.23,291.79L363.64,293.56L364.91,293.9L365.33,292.55L363.05,288.42L362.63,286.48L363.64,285.81L362.63,283.87L360.35,282.35L360.35,281.5L361.96,279.99L363.22,279.48ZM361.37,288L360.1,286.06L361.2,285.81ZM452.93,303.94L451.42,304.19L450.4,303.35L451.75,302.34ZM477.22,308.32L472.24,310.77L467.18,309.08L466.59,309.34L464.91,308.41L464.15,308.49L462.55,307.31L462.04,306.38L465.5,304.53L467.35,303.35L472.24,303.1L477.3,307.99ZM458.25,307.06L459.26,307.82L461.28,308.49L462.63,310.18L465.75,311.02L468.79,310.85L470.56,311.87L472.92,312.03L474.27,311.28L475.7,311.7L476.88,311.53L477.39,312.79L479.16,312.63L479.75,311.87L482.53,312.63L482.11,314.31L480.93,315.75L478.4,319.54L476.71,321.23L477.05,319.03L476.63,318.02L477.13,317.01L476.46,316.34L475.53,317.26L475.45,319.96L475.11,321.06L476.21,321.56L474.69,323.08L473,324.1L471.23,323.93L469.54,325.19L467.18,323.25L466.09,321.9L464.65,321.65L462.46,319.37L461.37,316.59L459.76,315.41L458.41,315.83L455.13,313.81L453.86,312.71L452.43,310.69L450.74,309.59L449.73,310.18L448.8,308.66L447.45,307.4L447.96,306.47L451.92,307.31L454.03,307.4L454.7,306.89L457.07,306.38ZM414.32,326.29L416.09,327.55L416.93,328.82L418.11,329.07L420.89,331.85L422.33,332.87L422.16,333.79L423.09,334.64L424.1,336.49L422.66,336.83L419.97,336.75L418.87,336.32L418.45,333.96L416.42,332.28L412.04,331.18L410.44,331.18L408.58,330.25L407.49,326.54L407.66,324.1L409.26,323.17L411.53,323.67L413.64,325.95ZM400.15,327.3L403.1,328.4L405.04,326.46L406.05,326.71L407.15,330.25L408.08,331.18L410.78,332.19L413.98,331.94L416.68,333.29L417.1,334.13L415.41,336.24L412.71,336.16L407.99,335.56L401.16,332.19L396.27,331.1L393.32,331.18L391.55,330.42L390.71,329.16L390.96,327.97L393.15,326.71L395.85,325.95L397.71,325.95L399.56,326.46ZM482.7,330.76L481.52,331.26L480.25,329.41L482.45,330ZM490.88,329.75L490.29,331.69L487.93,332.7L487,332.44L486.66,334.3L485.4,333.2L482.87,332.61L483.54,331.43L485.14,331.6L485.99,330.84L488.52,331.26L489.02,330.25ZM398.13,333.71L397.37,334.97L399.73,335.31L398.47,338.09L397.28,337.25L396.61,333.63ZM486.83,334.55L487.34,335.14L488.68,334.81L489.02,336.83L490.62,338.26L490.12,339.61L490.29,341.22L489.7,341.72L487.59,340.12L485.65,337.5L485.56,336.41L484.05,335.06L484.55,334.38ZM492.39,336.32L493.91,336.24L494.42,338.52L491.21,336.83ZM480.59,337.08L480.59,337.84L482.45,338.52L484.22,340.12L484.72,344.25L483.2,344.25L480.76,340.96L478.06,338.26L478.99,337.08ZM409.76,348.13L411.2,348.13L412.46,349.06L415.92,350.32L418.03,349.06L420.22,348.13L423.42,347.71L424.94,348.38L425.62,349.9L425.87,353.28L425.78,355.38L425.36,356.99L424.43,357.83L421.06,359.35L420.47,362.64L418.45,364.83L415.75,366.35L415.58,365.93L418.36,364.41L420.05,362.55L420.39,359.77L417.69,358.42L412.97,355.13L410.44,356.73L408.16,358.5L406.81,356.56L406.39,353.95L405.8,352.6L406.14,349.48L406.73,348.38L406.98,345.35L408.58,345.85Z" class="land" id="SG-05" title="South West"/>
    <path d="M647.45,153.98L648.55,156.34L647.79,157.1L642.56,157.78L641.89,155.67L636.83,156.93L637.84,155.41L637.08,154.57L630.68,156.6L628.48,158.53L628.15,157.27L630.42,156L640.79,152.97L644,152.63L646.53,153.31ZM657.99,160.14L659.26,160.14L665.08,162.67L668.28,163.76L670.81,165.45L677.56,170.68L677.98,170.76L680.25,174.22L680.84,175.91L682.19,178.27L680.51,181.73L680.34,184.43L678.9,188.14L677.98,192.53L678.31,195.06L678.06,197.33L677.13,198.6L674.94,199.27L672.75,200.37L671.4,200.54L669.8,201.8L663.81,204L660.52,204.67L658.84,206.02L657.07,206.86L655.38,206.95L654.45,207.54L652.85,206.36L650.83,201.21L648.47,200.62L649.39,199.27L644.67,193.12L644,191.09L642.48,191.18L641.47,187.3L639.78,185.27L636.49,184.18L635.4,185.69L632.45,187.21L630.51,187.13L629.41,187.97L631.01,190.59L630.08,190.67L628.74,188.65L626.63,187.63L625.78,186.37L623.68,186.54L625.03,190.67L627.98,195.65L630.76,198.77L632.87,200.28L632.19,200.71L628.4,197.08L626.21,194.13L625.36,192.69L623.17,186.87L623.76,185.69L627.72,185.78L632.02,185.69L635.14,184.09L634.05,180.21L635.06,179.03L635.4,177.43L633.79,177.17L632.45,177.77L631.1,179.71L629.58,180.3L622.92,179.96L621.32,179.62L620.39,178.69L617.86,171.02L617.61,169.84L618.2,167.22L619.12,165.79L621.65,163.26L623.26,162.5L624.86,163.01L625.53,164.35L625.11,165.28L627.05,167.31L627.89,168.99L630.68,170.17L632.19,172.2L632.95,174.31L633.29,176.33L635.82,176.5L636.58,175.23L635.99,173.38L634.89,171.44L634.3,168.99L634.13,166.04L635.4,165.45L636.24,166.13L640.03,166.13L643.07,165.37L644.5,164.27L644.92,162.67L647.29,160.81L648.63,162.08L650.41,161.74L652.09,162.75L653.36,162.92L655.3,162.33L656.14,160.64ZM557.99,165.2L563.22,167.39L564.23,167.48L567.18,169.33L567.1,170.6L569.55,171.36L570.14,171.86L571.65,171.27L573,172.37L574.86,173.04L577.72,172.79L581.18,171.52L583.71,171.36L585.23,170.93L587.34,171.27L588.26,172.2L589.61,171.86L592.73,173.04L594.76,172.2L596.27,172.37L597.12,171.86L601.5,172.11L602.93,173.21L603.44,174.81L602.43,177.93L602.43,179.62L603.86,180.63L600.49,181.31L598.04,181.31L596.86,181.9L595.94,181.14L594.67,181.65L592.14,180.89L590.79,181.73L588.43,182.66L588.52,184.18L585.4,186.12L584.38,185.52L582.61,186.96L580.42,186.79L578.65,187.55L576.29,188.06L574.77,187.8L574.6,186.28L572.92,185.36L571.4,183.16L568.53,182.57L567.1,181.05L566.76,179.54L564.82,178.95L563.9,178.1L562.88,178.27L560.86,177.26L559.01,175.32L554.87,174.56L554.87,172.7L552.18,173.3L550.74,171.86L549.73,171.86L548.13,168.49L548.21,167.56L550.49,167.22L551.42,165.54L553.19,165.45L554.2,164.27L556.05,164.44ZM571.48,187.8L569.63,187.38L567.94,185.95L566.93,183.92L564.65,181.73L565.84,181.56L567.52,183.92L569.97,184.77L571.15,185.52ZM499.98,268.43L502.93,266.83L505.21,266.75L506.56,266.32L507.66,264.55L511.03,263.62L510.69,259.74L510.69,255.87L509.85,250.97L508.41,246.25L507.32,241.61L504.37,239.25L501.42,239.25L501.42,236.13L500.32,236.38L496.1,235.2L492.65,235.96L492.39,235.2L492.65,234.53L492.48,231.49L496.02,227.27L498.8,225.84L503.27,225.5L504.54,226.26L506.22,228.2L508.58,229.38L512.97,229.38L513.05,230.65L514.32,231.15L517.18,231.07L518.36,234.27L519.38,238.15L521.48,239.5L525.7,243.3L529.49,246.93L530.84,248.61L531.01,250.21L534.81,248.78L537.34,247.35L542.39,244.99L545.51,247.26L547.37,247.52L554.87,245.58L553.95,240.18L555.04,239.76L557.07,237.65L558.33,234.53L560.61,234.19L562.21,233.09L565.58,237.06L571.65,231.83L573.93,230.23L575.78,229.47L578.74,229.64L579.83,230.06L580.17,228.03L578.48,223.06L577.47,221.29L589.02,209.56L587.59,208.89L584.13,205.43L582.87,202.98L582.61,201.89L584.47,200.54L585.14,199.69L587.5,198.18L588.35,195.48L589.61,194.47L592.56,193.79L594.5,193.96L595.43,193.45L597.88,193.79L598.47,194.38L599.48,193.03L604.87,195.31L607.99,196.15L609.51,196.74L610.69,198.6L611.03,200.12L611.96,200.79L613.73,205.51L614.91,207.96L617.77,210.66L615.84,210.74L615.5,212.68L618.36,213.78L619.97,213.44L621.32,212.51L622.58,212.94L623,213.95L626.21,215.3L626.88,214.79L628.57,215.8L634.39,218.25L637.25,220.19L638.09,220.27L645.51,225.59L647.54,228.54L647.37,229.89L645.18,229.89L645.85,227.27L644.84,225.84L642.06,223.65L638.09,222.13L637.34,222.72L637.59,224.24L637.25,225.76L637.84,226.43L637.59,228.45L634.98,231.32L633.79,233.26L631.94,238.32L631.27,241.27L630.25,242.79L629.07,243.13L628.9,246.08L628.23,246.76L628.06,248.78L629.24,250.3L630.51,250.72L637.17,250.55L637.67,250.05L637.76,256.46L638.69,256.96L637.5,258.65L634.3,258.65L634.22,255.95L634.55,254.77L629.49,254.85L629.66,258.65L628.06,258.4L621.15,258.65L617.94,259.66L614.32,262.28L612.55,263.03L610.02,263.2L608.67,262.95L607.83,261.94L605.13,260.84L602.34,260.25L597.2,261.6L597.79,260.67L597.2,258.4L592.4,258.06L590.62,258.82L589.87,258.23L585.48,258.56L583.96,259.32L582.87,259.24L579.49,260.59L578.48,259.66L577.56,260.59L575.36,261.68L569.88,263.03L566.59,263.37L561.79,264.97L557.07,267L554.37,267.84L553.1,267.59L549.81,268.94L545.26,269.7L542.56,270.79L540.54,271.05L536.16,272.9L529.92,274.93L526.88,275.69L523.59,277.2L523.25,277.71L520.98,277.79L518.03,279.82L516.26,280.83L513.47,283.28L511.28,284.2L508.08,287.24L505.63,288.84L504.45,288.17L501.42,285.13L499.39,282.01L498.21,279.23L497.37,276.19L497.79,273.91L500.49,274.25L502.85,273.83L504.03,272.9L502.6,271.22L502.34,269.19L500.32,268.85ZM633.88,197.67L632.36,197.42L631.86,196.24L633.04,195.81ZM648.89,213.36L648.21,214.2L638.69,206.1L639.28,205.6L644,208.8L644.42,209.73L646.7,211.25Z" class="land" id="SG-04" title="South East"/>
    <path d="M474.86,190.25L475.28,191.68L464.82,194.21L469.38,198.6L471.82,200.45L470.73,202.14L471.65,203.41L470.56,204.33L473,207.37L477.13,207.54L476.04,208.89L475.95,210.49L476.63,211.5L477.89,211.67L477.64,213.95L473.93,213.78L472.83,214.29L471.82,216.39L468.2,215.55L465.58,215.38L465.5,216.14L462.71,216.23L460.61,215.21L458.16,217.15L457.66,216.06L459,215.3L459,213.78L457.66,213.1L455.89,213.95L445.43,231.15L444.59,232.33L444.17,234.02L442.31,234.78L444.25,236.8L451.08,243.38L454.03,244.56L458.75,247.09L461.37,248.19L464.23,250.3L464.23,252.32L463.05,255.27L457.74,253.76L453.02,253.25L452.68,254.43L451.33,255.95L449.48,256.88L446.27,259.83L445.35,258.14L444.92,255.27L443.57,255.27L443.41,253.84L441.38,253.59L438.77,254.6L435.48,251.99L431.18,258.14L428.99,257.72L430.76,260.25L433.37,262.44L434.3,264.3L434.38,266.24L433.71,266.58L431.94,266.07L428.9,266.32L422.16,262.53L418.36,262.78L418.03,260L417.52,257.38L415.16,254.94L413.22,256.88L413.05,258.65L412.04,259.49L408.16,253.34L410.1,252.49L411.53,252.91L411.45,247.6L411.62,245.49L407.74,243.13L408.41,241.27L409.76,240.85L410.35,240.01L412.12,239.59L414.91,239.67L418.03,238.41L418.62,238.83L421.57,239.08L423.25,241.11L425.7,241.86L425.36,240.18L418.03,230.73L416.68,231.49L416.17,227.95L415.33,225.92L414.32,224.24L414.06,220.86L414.4,218.84L411.2,213.61L410.69,212.51L409.93,208.38L409,205.85L407.99,206.1L405.46,201.04L403.36,198.09L398.3,197.25L395.68,197.75L392.39,199.95L391.3,197.67L391.3,195.56L393.32,191.77L394.16,186.54L396.02,184.01L393.32,182.66L392.56,181.39L392.31,179.87L392.82,176.84L391.21,172.03L390.96,171.27L392.65,169.75L394.42,167.73L395.09,165.96L396.61,164.61L396.44,161.91L394.84,159.38L393.57,156.43L393.49,154.99L394.59,154.4L396.61,155.08L398.55,156.85L401.5,156.85L402.43,156L404.11,155.75L406.05,155.92L409.09,155.58L410.27,154.74L412.21,151.03L414.23,150.69L414.15,149.34L414.74,148.16L416.42,146.81L419.38,145.46L421.82,144.87L426.21,142L428.4,140.06L429.66,139.47L432.36,137.36L435.48,135.76L439.53,132.81L441.13,132.14L443.07,130.2L447.62,129.18L450.99,128.76L456.56,128.51L459.93,129.69L460.1,130.28L458.41,131.38L456.81,133.48L457.57,133.82L458.75,132.3L459.93,131.71L461.7,132.81L461.03,133.99L462.04,134.58L464.49,130.2L470.22,133.4L472.5,133.82L474.94,135.34L476.54,136.94L477.22,136.86L481.52,139.89L483.71,140.74L484.64,141.92L485.4,144.2L485.14,144.96L483.71,145.38L481.94,146.47L480.17,145.12L479.92,147.65L482.11,147.65L483.96,147.23L486.24,146.39L487.67,146.98L488.26,148.08L489.61,152.63L491.38,154.99L493.07,156.51L494.25,158.11L493.58,161.15L491.97,162.41L492.06,163.68L490.54,164.69L488.68,169.92L486.58,171.95L485.73,173.3L485.56,174.64L483.88,176.75L482.7,177.51L483.29,178.61L481.52,179.71L480.93,180.72L477.55,181.81L474.27,179.87L473.34,180.21L471.32,179.87L470.89,178.86L468.11,180.3L466.42,180.8L465.33,184.09L465.08,185.95L466.42,185.86L466.76,184.34L468.2,183.25L470.39,182.57L471.65,182.57L472.07,183.42L470.22,184.68L470.05,186.45L471.32,186.96L470.3,189.07L472.5,190.25ZM490.54,145.88L493.49,148.58L493.91,150.02L496.27,152.97L496.86,154.74L495.94,155.41L493.32,151.87L492.31,150.1L492.56,149.26Z" class="land" id="SG-03" title="North West"/>
    <path d="M582.87,202.98L584.13,205.43L587.59,208.89L589.02,209.56L577.47,221.29L578.48,223.06L580.17,228.03L579.83,230.06L578.74,229.64L575.78,229.47L573.93,230.23L571.65,231.83L565.58,237.06L562.21,233.09L560.61,234.19L558.33,234.53L557.07,237.65L555.04,239.76L553.95,240.18L554.87,245.58L547.37,247.52L545.51,247.26L542.39,244.99L537.34,247.35L534.81,248.78L531.01,250.21L530.84,248.61L529.49,246.93L525.7,243.3L521.48,239.5L519.38,238.15L518.36,234.27L517.18,231.07L514.32,231.15L513.05,230.65L512.97,229.38L508.58,229.38L506.22,228.2L504.54,226.26L503.27,225.5L498.8,225.84L496.02,227.27L492.48,231.49L492.65,234.53L492.39,235.2L491.97,234.02L489.7,227.27L489.61,225.08L490.88,221.03L492.65,216.06L493.07,213.95L495.18,213.27L497.96,211.92L500.57,212.09L513.73,215.04L514.82,215.04L516.68,212.68L514.15,211.67L516.09,209.31L517.69,208.13L519.8,207.62L523.09,207.29L523.25,205.35L521.65,204.92L518.62,204.75L516.43,203.24L518.11,200.71L519.97,195.31L522.33,187.97L515.24,187.04L515.16,185.86L515.92,184.77L518.87,182.99L522.41,179.28L525.28,173.46L527.81,171.52L529.33,170.76L531.77,170.6L532.53,169.92L534.64,169.58L536.75,170.01L537.67,172.11L537.76,173.89L538.43,177.01L540.29,180.46L543.58,183.5L546.7,185.44L546.61,186.71L547.45,188.39L544.76,190.08L545.09,191.26L546.36,190.42L550.24,188.31L551.84,188.14L554.62,190.25L557.99,196.32L560.19,197.42L564.99,200.88L567.52,202.14L573.42,203.32L576.8,203.49L580.42,202.73L582.19,203.74ZM552.18,184.68L551.42,186.45L550.15,186.37L549.14,184.85L546.36,184.43L544.42,182.32L541.89,181.05L540.29,178.95L539.61,176.42L538.52,174.05L539.78,173.3L542.31,175.99L544.84,177.6Z" class="land" id="SG-02" title="North East"/>
    <path d="M522.33,187.97L519.97,195.31L518.11,200.71L516.43,203.24L518.62,204.75L521.65,204.92L523.25,205.35L523.09,207.29L519.8,207.62L517.69,208.13L516.09,209.31L514.15,211.67L516.68,212.68L514.82,215.04L513.73,215.04L500.57,212.09L497.96,211.92L495.18,213.27L493.07,213.95L492.65,216.06L490.88,221.03L489.61,225.08L489.7,227.27L491.97,234.02L492.65,235.96L496.1,235.2L500.32,236.38L501.42,236.13L501.42,239.25L504.37,239.25L507.32,241.61L508.41,246.25L509.85,250.97L510.69,255.87L510.69,259.74L511.03,263.62L507.66,264.55L506.56,266.32L505.21,266.75L502.93,266.83L499.98,268.43L498.72,269.02L498.72,271.13L496.44,273.32L495.77,274.93L496.53,281.17L495.94,282.26L492.9,282.35L490.12,282.09L487.08,282.09L486.58,283.44L487.76,283.95L487.08,287.49L488.68,289.26L491.89,283.78L496.27,285.05L498.55,286.14L501.42,288.34L502.43,290.7L501.67,292.55L491.21,300.48L490.46,299.22L490.79,298.46L485.99,295.67L485.14,295.5L485.14,303.35L485.56,305.12L484.81,305.79L480.17,300.73L478.99,301.75L481.01,304.36L480.34,305.12L478.48,303.26L477.05,302.17L475.19,300.14L468.62,299.97L463.56,303.01L462.63,301.41L458.5,301.58L451.25,297.28L451.67,296.18L453.86,294.07L455.46,291.71L456.73,289.01L452.85,286.65L442.39,285.89L441.64,285.47L440.96,283.87L440.71,277.62L438.85,275.35L437.17,271.47L438.68,270.88L439.36,270.03L435.31,266.66L434.38,266.24L434.3,264.3L433.37,262.44L430.76,260.25L428.99,257.72L431.18,258.14L435.48,251.99L438.77,254.6L441.38,253.59L443.41,253.84L443.57,255.27L444.92,255.27L445.35,258.14L446.27,259.83L449.48,256.88L451.33,255.95L452.68,254.43L453.02,253.25L457.74,253.76L463.05,255.27L464.23,252.32L464.23,250.3L461.37,248.19L458.75,247.09L454.03,244.56L451.08,243.38L444.25,236.8L442.31,234.78L444.17,234.02L444.59,232.33L445.43,231.15L455.89,213.95L457.66,213.1L459,213.78L459,215.3L457.66,216.06L458.16,217.15L460.61,215.21L462.71,216.23L465.5,216.14L465.58,215.38L468.2,215.55L471.82,216.39L472.83,214.29L473.93,213.78L477.64,213.95L477.89,211.67L476.63,211.5L475.95,210.49L476.04,208.89L477.13,207.54L473,207.37L470.56,204.33L471.65,203.41L470.73,202.14L471.82,200.45L469.38,198.6L464.82,194.21L475.28,191.68L474.86,190.25L476.29,188.73L476.29,188.06L477.72,187.21L478.99,188.22L479.66,187.8L479.49,185.02L481.43,184.34L483.63,182.4L484.55,182.15L486.07,179.54L487.25,179.45L488.77,177.6L490.03,176.92L491.47,175.15L492.14,173.72L492.98,173.8L493.32,172.03L494.67,169.84L495.6,167.64L496.95,167.73L498.13,166.97L499.56,167.05L499.73,164.69L501,163.17L504.45,161.15L507.66,160.98L508.92,161.57L513.05,164.44L515.92,166.21L513.31,169.84L511.37,173.04L508.67,172.45L504.62,170.34L504.87,171.52L507.49,173.8L509.68,175.23L510.27,174.14L511.45,173.63L513.14,173.72L515.08,174.9L520.64,176.5L521.74,177.26L521.23,179.03L518.03,182.4L514.99,184.51L514.23,186.96ZM522.58,175.23L522.07,175.49L516.09,174.64L513.64,173.3L511.96,173.13L513.39,171.1L516.26,166.46L523.42,170.51L524.1,172.62Z" class="land" id="SG-01" title="Central Singapore"/>
  </g>
</svg>