<?xml version="1.0" encoding="UTF-8"?>
<svg xmlns="http://www.w3.org/2000/svg" width="294.9" height="519.3" viewBox="332.55 -2.65 294.9 519.3" style="background-color:#000000">
  <!-- Created using SVG Map Generator: dojo.amcharts.com/svg-map-generator -->
  <style>
    .land { fill: #ffffff; stroke: #000000; stroke-width: 0.65; }
  </style>
  <g id="polygons">
    <path d="M363.72,375.53L364.85,378.09L367.65,379.47L370.56,378.8L373.43,380.63L382.51,380.53L388.53,384.74L392.84,384.17L393.54,378.9L396.77,375.97L402.28,376.5L403.99,375.47L409.06,376.12L409.68,379.14L407.69,380.75L407.97,383.35L405.45,385.74L403.67,391L405.97,392.1L406.45,396.95L404,396.97L400.11,395.49L395.82,397.95L396.86,401.06L394.8,402.33L392.52,396.85L390.62,396.77L388.76,400.03L385.42,397.96L381.2,402.55L373.49,405.51L370.27,405.45L369.39,403.42L366.19,401.9L367.98,409.82L365.06,402.66L362.89,395.81L362.14,389.05L360.03,381.57Z" class="land" id="LK-11" title="Colombo"/>
    <path d="M373.04,336.62L374.96,334.21L382.39,331.52L386.47,333.31L388.31,335.38L396.82,329.27L399.92,331.77L399.6,333.37L405.82,338.89L404.52,341.95L404.58,347.27L401.76,347.41L400.63,353.22L403.28,355.09L406.94,354.98L407.67,356.71L404.74,359.36L402,364.9L403.99,375.47L402.28,376.5L396.77,375.97L393.54,378.9L392.84,384.17L388.53,384.74L382.51,380.53L373.43,380.63L370.56,378.8L367.65,379.47L364.85,378.09L363.72,375.53L363.54,372.37L361.41,358.55L364.01,356.72L363.28,350.58L359.78,343.16L360.4,336.73L362.73,337.18L371.02,335.53Z" class="land" id="LK-12" title="Gampaha"/>
    <path d="M367.98,409.82L366.19,401.9L369.39,403.42L370.27,405.45L373.49,405.51L381.2,402.55L385.42,397.96L388.76,400.03L390.62,396.77L392.52,396.85L394.8,402.33L396.86,401.06L395.82,397.95L400.11,395.49L404,396.97L405.6,400.98L406.51,408.26L408.64,412.92L412.06,415.72L414.45,422.05L417.31,422.61L420.03,425.46L420.82,428.67L418.91,429.86L420.26,432.66L429.32,445.2L430.29,447.68L428.5,447.51L421.25,451.54L418.43,452.12L419.92,458.86L416.52,457.75L412.5,454.53L408.73,453.71L407.65,456.42L405.5,457.06L400.78,455.42L397.74,455.54L395.22,452.81L388.75,450.02L383.78,446.96L379.24,445.89L377.22,441.82L378.41,440.8L377.98,435.69L373.53,422.86Z" class="land" id="LK-13" title="Kalutara"/>
    <path d="M454.16,312.63L455.14,314.87L465.65,322.2L471.42,321.88L473.2,316.76L471.77,312.67L475.24,310.4L478.55,313.81L483.36,316.54L487.27,312.33L492.77,310.38L494.75,311.59L497.35,310.38L499.98,312.13L501.8,309.5L507.27,308.62L507.39,316.64L508.36,321.13L507.5,324.88L512.75,342L511.67,344.22L508.44,344.73L507.09,346.86L503.72,346.33L499.86,346.06L491.3,347.66L485.97,346.59L484.91,343.01L479.43,337.31L478.17,337.21L480.84,346.6L471.31,357.79L470.18,360.43L466.92,359.24L463.54,359.57L462.15,362.19L455.76,362.83L452.69,361.87L453.67,367.29L458.99,373.29L455.77,379.85L452.54,380.36L450.85,377.54L447.7,374.9L445.26,369.98L442.18,367.68L440.88,368.85L441.05,364.01L439.69,359.3L439.89,356.58L445.7,355.81L446.98,353.06L451.69,350.74L451.5,349.18L447.37,345.32L448.56,341.86L446.16,338.78L442.97,338.05L443.22,335.27L436.09,329.05L435.51,325.77L437.62,326.17L441.23,322.94L443.25,319.04L446.56,321.8L449.44,318.4L452.8,316.68L452.03,314.53Z" class="land" id="LK-21" title="Kandy"/>
    <path d="M478.91,239.88L481.96,242.19L481.81,245.68L486.54,243.67L489.82,245.15L487.17,251.41L486.05,260.92L484.05,267.1L480.57,267.44L479.92,276.4L481.86,283.75L489.41,283.31L493.75,282.23L495.48,278.87L501.24,279.77L509.19,278.01L508.98,282.32L509.92,285.9L507.74,290.69L506.93,298.34L507.27,308.62L501.8,309.5L499.98,312.13L497.35,310.38L494.75,311.59L492.77,310.38L487.27,312.33L483.36,316.54L478.55,313.81L475.24,310.4L471.77,312.67L473.2,316.76L471.42,321.88L465.65,322.2L455.14,314.87L454.16,312.63L455.12,306.08L452.34,300.45L455.49,293L451.99,288.47L452.46,284.79L451.8,280.05L447.88,271.32L445.12,269.97L445.52,265.76L454.11,261.33L455.51,258.77L458.61,260.42L460.7,258.74L462.84,254.6L465.66,252.63L465.5,248.5L469.33,247.18L472.39,242.58Z" class="land" id="LK-22" title="Matale"/>
    <path d="M440.88,368.85L442.18,367.68L445.26,369.98L447.7,374.9L450.85,377.54L452.54,380.36L455.77,379.85L458.99,373.29L453.67,367.29L452.69,361.87L455.76,362.83L462.15,362.19L463.54,359.57L466.92,359.24L470.18,360.43L471.31,357.79L480.84,346.6L478.17,337.21L479.43,337.31L484.91,343.01L485.97,346.59L491.3,347.66L499.86,346.06L503.72,346.33L505.73,352L504.25,355.57L504.44,359.29L506.23,362.39L501.56,367.57L500.3,373.76L497.57,375.54L492.86,375.42L489.38,378.35L488.73,381.74L486.07,385.44L489.65,392.84L487.05,396.22L485.85,399.79L483.23,402.15L481.31,401.57L477.45,404.2L472.44,404.63L466.57,403.72L465.62,405.13L455.08,403.47L451.41,401.94L449.2,402.93L445.77,401.55L444.16,399.19L445.12,394.6L447.12,392.53L444.97,389.35L445.38,387.36L436.93,383.88L438.37,375.89L436.85,374.44L441.4,370.33Z" class="land" id="LK-23" title="Nuwara Eliya"/>
    <path d="M379.24,445.89L383.78,446.96L388.75,450.02L395.22,452.81L397.74,455.54L400.78,455.42L405.5,457.06L407.65,456.42L408.73,453.71L412.5,454.53L416.52,457.75L419.92,458.86L418.43,452.12L421.25,451.54L428.5,447.51L430.29,447.68L435.12,452.06L437.91,451.76L445.03,455.31L442.79,455.62L441.01,459.08L443.75,461.36L445.08,464.2L442.4,466.71L433.24,459.74L429.72,460.86L431.8,463.7L434.36,465.07L437.74,470.08L437.84,473.82L436.11,475.36L430.49,474.47L433.05,478.47L430.37,483.31L433.44,488.46L437.7,491.11L434.05,494.32L431.55,498.92L430.68,507.94L421.32,504.35L414.91,503.48L411.19,501.05L409.73,498.58L407.5,498.54L397.1,490.34L393.67,486.23L392.17,481.48L388.7,478.1L387.54,472.69L384.94,468.22L385.6,464.75Z" class="land" id="LK-31" title="Galle"/>
    <path d="M445.03,455.31L450.02,454.43L450.03,452.61L458.24,451.4L461.07,451.55L460.09,458.14L466.6,457.11L467.74,463.36L459.71,477.27L463.45,481.14L466.73,481.61L464.88,485.92L469.05,490.01L470.81,493.46L466.62,496.51L467.29,500.05L470.55,499.89L470.1,504.57L474.76,506.12L473.85,508.59L468.06,508.63L461.61,510.41L461.14,512.22L457.53,514L452.98,510.92L448.57,511.79L441.97,511.5L439.59,508.12L436.2,507.04L434.93,509.22L430.68,507.94L431.55,498.92L434.05,494.32L437.7,491.11L433.44,488.46L430.37,483.31L433.05,478.47L430.49,474.47L436.11,475.36L437.84,473.82L437.74,470.08L434.36,465.07L431.8,463.7L429.72,460.86L433.24,459.74L442.4,466.71L445.08,464.2L443.75,461.36L441.01,459.08L442.79,455.62Z" class="land" id="LK-32" title="Matara"/>
    <path d="M589.63,427.69L593.51,432.47L596.84,432.89L599.67,436.19L601.98,436.25L600.68,439.64L596.71,442.44L594.98,445.09L590.53,447.38L588.52,451.2L583.18,454.51L576.32,457.33L573.17,462.78L567.8,464.52L563.73,469.54L559.02,472.69L554.8,474.12L552.79,477.35L548.93,477.67L545.6,479.27L541.92,479.63L539.97,481.84L536.32,481.92L534.23,479.52L532.93,484.03L523.08,488.42L517.88,488.81L509.97,490.34L507.74,491.97L503.66,492.19L497.93,495.05L493.7,495.79L485.18,498.61L482.03,502.65L477.89,503.59L474.76,506.12L470.1,504.57L470.55,499.89L467.29,500.05L466.62,496.51L470.81,493.46L469.05,490.01L464.88,485.92L466.73,481.61L463.45,481.14L459.71,477.27L467.74,463.36L472.15,463.29L484.36,468.44L492.14,467.8L495.27,471.16L498.97,472.24L504.46,472.14L500.2,464.69L512.97,458.3L511.58,455.1L512.32,451.59L515.42,452.21L519.82,447.96L523.76,448.68L528.4,448.31L529.4,451.4L532.06,451.97L534.56,450.35L541.18,458.73L543.55,458.81L546.78,455.11L558.34,452.3L566.17,448.7L571.95,450.01L573.25,438.54L578.7,435.42L584.05,430.86L588.53,429.98Z" class="land" id="LK-33" title="Hambantota"/>
    <path d="M439.72,39.19L438.71,34.34L432.72,29.64L423.81,24.55L419.09,19.08L413.87,29.19L403.74,23.96L402.89,31.43L399.31,28.02L393.28,26.45L393.49,28.79L387.36,24.69L383.17,24.54L376.49,18.46L373.18,19.12L370.22,12.2L367.26,12.82L365.16,17.22L362.71,14.17L362.89,9.71L367.04,9.86L371.4,7.7L373.57,5.46L378.89,3.26L385.3,2.31L393.93,3.56L398.84,1.4L405.2,1.11L408.51,0L413.42,1.36L417.54,9.31L423.82,18.39L427.72,22.64L446.81,37.94L449.26,40.65L457.34,46.91L456.05,47.82L447.07,41.85ZM362.38,17.37L365.67,17.88L367.94,21.69L377.04,26.92L380.65,26.12L380.83,30.36L377.22,31.1L372.38,27.11L370.08,26.74L362.81,30.22L362.75,34.97L360.58,35.53L355.2,34.35L355.64,28.61L360.43,28.49L362.75,30.14L366.71,27.95L364.59,26.41L360.47,20.56ZM336.82,37.1L340.72,40.18L345.02,40.9L345.74,45.51L344.88,47.35L341.12,46.91L335.75,43.62L335.2,38.37Z" class="land" id="LK-41" title="Jaffna"/>
    <path d="M413.87,29.19L419.09,19.08L423.81,24.55L432.72,29.64L438.71,34.34L439.72,39.19L433.85,41.13L433.45,42.55L438.15,44.34L441.47,43.97L445.04,47.12L449.63,46.58L453.1,47.82L452.84,51.05L455.88,51.52L457.42,49.61L460.53,50.27L460.32,51.5L460.48,51.75L459.87,54.08L456.86,56.37L456.84,62.36L453.16,60.32L449.44,60.36L447.75,64.64L433.66,65.43L433.49,69.58L431.99,70.5L422.42,69.51L416.97,70.92L415,70.25L411.03,71.28L408.42,73.7L409.28,78.72L405.58,78.89L400.03,82.34L395.88,82.55L396.35,75.66L394.95,73.73L396.49,70.54L392.45,67.14L388.84,66.52L388.88,63.07L387.64,58.73L390.07,56.96L395.13,55.33L399.85,52.51L404.86,46.13L402.42,42.3L394.22,35.12L397.06,34.06L399.31,36.81L403.74,38.74L409.34,39.11L413.1,42.3L414.79,42.41L413.2,48.4L417.22,50.27L424.47,48.29L427.64,48.58L431.72,46.87L430.38,42.08L426.24,37.03L419.56,32.44ZM378.7,69.51L381.33,72.41L377.83,73.28Z" class="land" id="LK-42" title="Kilinochchi"/>
    <path d="M395.88,82.55L400.03,82.34L405.58,78.89L406.07,86.96L408.88,91.27L409.99,95.22L408.75,97.31L409.25,102.91L405.99,104.08L403.56,110.56L403.41,116.65L413.09,116.48L424.86,115.5L430.19,118.69L432.97,128.94L428.91,131.16L421.92,132.4L419.31,133.75L410.51,132.75L406.39,141.06L403.77,139.76L402.87,143.15L405.9,145.16L411.25,152.15L395.45,156.22L391.07,155.67L386.44,153.09L387.85,157.85L387.22,172.98L384.89,172.29L377.78,168.78L372.51,168.31L370.83,167.25L370.1,164.16L373.83,158.2L373.25,155.65L374.48,152.4L374.12,148.39L375.46,146.12L369.71,134.65L371.62,125.15L371.15,123.32L362.57,110.6L353.43,103.7L347.69,101.08L341.31,99.68L341.96,96.72L346.75,95.96L352.57,96.83L362.46,100.34L367.98,105.2L364.74,107.58L368.19,110.91L367.18,115.29L370.18,115.18L373.1,117.26L376.43,114.16L378.89,113.35L379.5,110.72L385.67,107.43L389.57,101.51L390.54,93.47L393.86,88.64L394.47,83.93Z" class="land" id="LK-43" title="Mannar"/>
    <path d="M424.86,115.5L431.46,111.29L437.03,106.17L436.05,98.16L433.2,98.17L433.16,94.96L444.49,94.64L449.54,100.1L456.25,93.54L464.67,94.72L465.4,99.83L470.53,100.31L469.7,106.06L473.91,103.34L482.93,108.77L480.18,118.42L478.51,122.59L473.17,123.47L467.4,127.03L458.03,127.26L457.63,130.12L462.15,131.54L465.31,137.68L463.04,139.06L461.03,142.65L458.79,143.73L454.73,149.52L446.51,155.04L439.31,150.55L434.01,154.89L432.56,158.23L430.17,159.85L430.04,164.84L426.38,166.29L424.53,169.81L418.15,167.89L416.34,161.27L413.14,160.58L410.99,155.87L411.25,152.15L405.9,145.16L402.87,143.15L403.77,139.76L406.39,141.06L410.51,132.75L419.31,133.75L421.92,132.4L428.91,131.16L432.97,128.94L430.19,118.69Z" class="land" id="LK-44" title="Vavuniya"/>
    <path d="M501.17,111.31L494.25,114.27L493.44,115.41L481.33,117.09L480.18,118.42L482.93,108.77L473.91,103.34L469.7,106.06L470.53,100.31L465.4,99.83L464.67,94.72L456.25,93.54L449.54,100.1L444.49,94.64L433.16,94.96L433.2,98.17L436.05,98.16L437.03,106.17L431.46,111.29L424.86,115.5L413.09,116.48L403.41,116.65L403.56,110.56L405.99,104.08L409.25,102.91L408.75,97.31L409.99,95.22L408.88,91.27L406.07,86.96L405.58,78.89L409.28,78.72L408.42,73.7L411.03,71.28L415,70.25L416.97,70.92L422.42,69.51L431.99,70.5L433.49,69.58L433.66,65.43L447.75,64.64L449.44,60.36L453.16,60.32L456.84,62.36L456.86,56.37L459.87,54.08L460.48,51.75L460.32,51.5L460.53,50.27L461.71,49.84L467.92,55.25L477.13,64.14L483.55,68.89L486.52,72.08L490.23,79.39L493.01,88.46L501.85,104.95L505.93,111.38L504.2,111.71L497.85,103.85L494.53,106.88L495.98,108.52Z" class="land" id="LK-45" title="Mullaitivu"/>
    <path d="M600.64,273.48L608.91,285.72L612.42,292.82L615.59,305.12L612.99,306.88L610.9,299.73L611.55,297.95L607.73,288.59L605.96,288.96L605.05,285.1L602.59,279.39L602.55,276.83ZM550.89,208.33L553.24,206.8L559.21,208.29L563.1,206.97L564.04,211.51L566.96,218.15L568.09,225.48L566.14,228.39L562.92,221.15L560.22,221.44L563.69,227.49L567,229.17L568.85,225.85L571.3,234.05L574.11,239.52L579.2,243.56L582.06,249.18L585.19,251.03L583.83,254.47L584.48,258.61L586.25,262.18L588.66,264.59L591.22,264.04L593.86,269.43L599.49,273.26L602.41,277.45L598.08,281.93L595.38,274.61L593.72,274.72L588.85,271.48L585.96,275.27L585.82,277.59L589.78,279.27L591.18,276.36L595.3,278.4L595.34,280.99L599.71,283.61L600.25,290.23L603.04,289.43L606.75,290.78L610.75,296.6L610.29,306.88L608.19,312.59L604.76,312.96L596.84,320.34L596.02,312.15L596.45,310.68L594.54,304.94L591.07,306L577.76,305.87L569.34,301.46L566.94,297.9L568.76,291.38L568.51,288.45L560.43,286.52L558.4,285.14L552.75,276.32L541.95,275.71L540.09,270.23L539.83,264.66L540.85,262.04L540.35,257.76L541.38,252.03L543.48,249.86L548.19,248.51L550.62,249.7L554.77,249.7L554.79,247.13L550.41,237.63L551.42,210.03Z" class="land" id="LK-51" title="Batticaloa"/>
    <path d="M541.95,275.71L552.75,276.32L558.4,285.14L560.43,286.52L568.51,288.45L568.76,291.38L566.94,297.9L569.34,301.46L577.76,305.87L591.07,306L594.54,304.94L596.45,310.68L596.02,312.15L596.84,320.34L604.76,312.96L608.19,312.59L609.88,312.33L613.39,315.32L615.38,310.81L616.78,311.5L617.8,315.93L619.85,318.71L622.63,327.73L623.4,334.9L622.34,344.28L621.15,348.03L617.94,351.38L620.14,356.95L622.05,359.24L623.67,366.99L624.8,369.61L623.32,375.89L620.17,384.95L620.86,385.97L617.5,396.77L616.93,400.51L617.86,403.52L614.72,407.67L614.47,411.05L610.94,415.7L611.4,419.45L604.5,433.32L601.98,436.25L599.67,436.19L596.84,432.89L593.51,432.47L589.63,427.69L592.3,383.96L593.41,377.79L590.89,375.3L591.29,372.78L589.51,369.18L591.07,366.13L590.42,363.6L579.89,360.73L577.58,359.08L577.32,354.72L575.62,353.07L578.49,346.69L582.48,344.07L580,341.14L578.27,335.28L572.85,330.04L574.38,328.33L571.99,321.1L572.6,317.33L570.64,316.19L572.82,313.01L569.91,312.53L565.43,315.49L563.33,317.99L559.17,320.49L560.82,323.99L558.3,327.58L552.73,328.81L552.58,338.11L547.85,340.01L545.76,336.31L544.9,332.27L541.43,327.8L539.21,328.97L535.78,323.11L536.73,320.66L534.34,314.39L536.49,310.81L537.48,304.92L537.3,299.81L535.02,297.36L531.87,297.91L525.32,301.19L520.52,305.49L516.04,306.38L514.44,302.11L512.62,300.14L512.34,294.5L508.74,292.5L507.74,290.69L509.92,285.9L508.98,282.32L509.19,278.01L517.01,278.39L519.53,276.82L522.87,277.55L525.89,282.18L536.32,285.96L541.72,283.5Z" class="land" id="LK-52" title="Ampara"/>
    <path d="M501.17,111.31L498.32,114.34L499.55,118.54L503.33,119.52L504.77,114.19L506.33,112.08L510.23,117.88L512.08,119.01L514.92,124.93L518.31,128.33L520.73,128.29L526.04,137.24L533.4,145.53L537.15,152.66L539.9,155.68L539.14,161.6L539.71,165.87L535.57,167.77L538.27,174.63L534.66,174.08L532.28,170.69L530.01,171.74L526.76,176.13L532.68,174.01L535.39,175.06L537.09,179.93L539.47,181.02L546.76,180.46L549.79,174.67L552.46,172.58L556.61,176.5L559.89,191.3L560.97,198.2L563.1,206.97L559.21,208.29L553.24,206.8L550.89,208.33L548.04,207.23L545.56,210.68L543.13,211.83L540.38,220.82L536.79,215.63L537.4,213.2L532.2,210.71L528.72,207.26L524.33,207.9L520.69,205.85L515.32,204.89L509.15,205.66L508.02,200.48L504.38,199.12L502.92,196.54L500.76,197.28L501.16,192.47L502.97,189.33L505.79,181.92L509.43,179.16L505.84,177.73L503.76,174.87L503.33,169.05L499.84,164.71L499.68,162.04L496.82,159.83L497.61,154.5L499.12,150.99L494.86,142.64L495.42,137.92L498.77,131.62L495.96,127.3L486.22,121.26L482.64,120.56L478.51,122.59L480.18,118.42L481.33,117.09L493.44,115.41L494.25,114.27Z" class="land" id="LK-53" title="Trincomalee"/>
    <path d="M393.99,215.75L396.93,218L400.42,218.71L405.16,221.76L412.98,223.73L415.19,226.37L418.65,225.87L422.03,226.77L423.91,229.71L428.89,233.96L435.14,235.57L434.64,240.57L436.57,248.21L440.49,248.42L440.83,252.42L442.96,257.22L442.3,260.11L443.36,264.78L445.52,265.76L445.12,269.97L447.88,271.32L451.8,280.05L452.46,284.79L451.99,288.47L455.49,293L452.34,300.45L455.12,306.08L454.16,312.63L452.03,314.53L452.8,316.68L449.44,318.4L446.56,321.8L443.25,319.04L441.23,322.94L437.62,326.17L435.51,325.77L433.55,321.87L431.62,320.65L426.69,322.17L426.82,325.35L424.9,330.53L415.23,331.92L405.82,338.89L399.6,333.37L399.92,331.77L396.82,329.27L388.31,335.38L386.47,333.31L382.39,331.52L374.96,334.21L373.04,336.62L372.57,327.15L368.71,309.69L367.72,296.25L368.36,291.33L371.73,286.93L372.31,283.46L375.51,284.17L374.52,279.28L380.73,275.06L380.03,268.27L381.43,263.87L385.58,261.79L386.07,258.89L389.14,258.14L389.94,252.73L399.96,249L397.94,245.78L400.14,241.69L399.75,235.61L400.59,232.66L397.29,231.04L395.61,228.54L394.69,221.82L393.61,219.49Z" class="land" id="LK-61" title="Kurunegala"/>
    <path d="M370.83,167.25L372.51,168.31L377.78,168.78L384.89,172.29L386.27,176.15L382.75,183.63L379.2,186.06L377.83,189.07L374.9,189.67L374.42,193.1L377.24,196.87L380.58,211.63L384.06,211.89L385.46,210.58L388.61,212.71L390.84,212.35L393.99,215.75L393.61,219.49L394.69,221.82L395.61,228.54L397.29,231.04L400.59,232.66L399.75,235.61L400.14,241.69L397.94,245.78L399.96,249L389.94,252.73L389.14,258.14L386.07,258.89L385.58,261.79L381.43,263.87L380.03,268.27L380.73,275.06L374.52,279.28L375.51,284.17L372.31,283.46L371.73,286.93L368.36,291.33L367.72,296.25L368.71,309.69L372.57,327.15L373.04,336.62L371.02,335.53L362.73,337.18L360.4,336.73L359.93,336.03L357.29,320.74L354.99,311.61L353.22,301.56L352.86,293.22L354.48,292.05L354.4,280.8L352.27,269.22L347.26,249.06L342.5,234.05L341.96,226.75L342.28,219.53L341.55,213.99L350.14,209.83L346.61,215.02L348.09,217.38L345.17,225.33L346.44,227.3L345.78,230.4L347.54,237L346.4,239.44L347.66,242.25L350.73,243.67L356.57,244.51L358.77,243.75L359.28,239.63L357.37,236.24L353.86,232.96L356.61,228.55L359.06,221.69L357.15,220.16L357.84,217.68L356.07,213.27L357.15,205.72L358.99,203.45L358.85,199.01L360.72,195.4L360.29,185.86L363.11,182.04L362.71,179.85L363.93,171.02L369.75,169.45ZM350.3,201.76L348.7,203.38L349.96,206.22L348.56,208.96L346.4,209.19L347.99,203.63Z" class="land" id="LK-62" title="Puttalam"/>
    <path d="M478.51,122.59L482.64,120.56L486.22,121.26L495.96,127.3L498.77,131.62L495.42,137.92L494.86,142.64L499.12,150.99L497.61,154.5L496.82,159.83L499.68,162.04L499.84,164.71L503.33,169.05L503.76,174.87L505.84,177.73L509.43,179.16L505.79,181.92L502.97,189.33L501.16,192.47L500.76,197.28L499.09,198.66L497.5,204.63L485.19,204.95L483.03,211.16L482.72,214.71L479.34,221.75L478.98,227.96L479.36,235.65L478.91,239.88L472.39,242.58L469.33,247.18L465.5,248.5L465.66,252.63L462.84,254.6L460.7,258.74L458.61,260.42L455.51,258.77L454.11,261.33L445.52,265.76L443.36,264.78L442.3,260.11L442.96,257.22L440.83,252.42L440.49,248.42L436.57,248.21L434.64,240.57L435.14,235.57L428.89,233.96L423.91,229.71L422.03,226.77L418.65,225.87L415.19,226.37L412.98,223.73L405.16,221.76L400.42,218.71L396.93,218L393.99,215.75L390.84,212.35L388.61,212.71L385.46,210.58L384.06,211.89L380.58,211.63L377.24,196.87L374.42,193.1L374.9,189.67L377.83,189.07L379.2,186.06L382.75,183.63L386.27,176.15L384.89,172.29L387.22,172.98L387.85,157.85L386.44,153.09L391.07,155.67L395.45,156.22L411.25,152.15L410.99,155.87L413.14,160.58L416.34,161.27L418.15,167.89L424.53,169.81L426.38,166.29L430.04,164.84L430.17,159.85L432.56,158.23L434.01,154.89L439.31,150.55L446.51,155.04L454.73,149.52L458.79,143.73L461.03,142.65L463.04,139.06L465.31,137.68L462.15,131.54L457.63,130.12L458.03,127.26L467.4,127.03L473.17,123.47Z" class="land" id="LK-71" title="Anuradhapura"/>
    <path d="M500.76,197.28L502.92,196.54L504.38,199.12L508.02,200.48L509.15,205.66L515.32,204.89L520.69,205.85L524.33,207.9L528.72,207.26L532.2,210.71L537.4,213.2L536.79,215.63L540.38,220.82L543.13,211.83L545.56,210.68L548.04,207.23L550.89,208.33L551.42,210.03L550.41,237.63L554.79,247.13L554.77,249.7L550.62,249.7L548.19,248.51L543.48,249.86L541.38,252.03L540.35,257.76L540.85,262.04L539.83,264.66L540.09,270.23L541.95,275.71L541.72,283.5L536.32,285.96L525.89,282.18L522.87,277.55L519.53,276.82L517.01,278.39L509.19,278.01L501.24,279.77L495.48,278.87L493.75,282.23L489.41,283.31L481.86,283.75L479.92,276.4L480.57,267.44L484.05,267.1L486.05,260.92L487.17,251.41L489.82,245.15L486.54,243.67L481.81,245.68L481.96,242.19L478.91,239.88L479.36,235.65L478.98,227.96L479.34,221.75L482.72,214.71L483.03,211.16L485.19,204.95L497.5,204.63L499.09,198.66Z" class="land" id="LK-72" title="Polonnaruwa"/>
    <path d="M507.74,290.69L508.74,292.5L512.34,294.5L512.62,300.14L514.44,302.11L516.04,306.38L520.52,305.49L525.32,301.19L531.87,297.91L535.02,297.36L537.3,299.81L537.48,304.92L536.49,310.81L534.34,314.39L536.73,320.66L535.78,323.11L539.21,328.97L541.43,327.8L544.9,332.27L545.76,336.31L540.69,337.52L541.26,341.21L537.49,346.18L535.13,347.54L534.69,349.98L531.97,349.85L530.37,347.06L526.71,351.03L527.89,354.43L531.27,357.62L532.53,361.56L537.84,360.33L540.4,361.52L542.01,365.6L542.42,371.4L540.74,374.06L540.03,379.68L537.47,380.45L531.29,386.89L527.42,388.29L525.94,390.63L528.46,393.68L522.95,396.47L519.16,396.95L519.03,403.74L517.7,405.43L521.65,408.17L519.02,411.86L518.53,418.18L519.03,420.57L521.55,422.7L515.91,426.14L513.87,428.42L513.56,432.47L510.04,428.17L510.52,422.95L504.36,415.51L501.25,413.45L496.41,415.02L492.08,417.39L488.48,415.81L486.15,411.36L490.14,409.38L492.2,407.07L486.3,403.72L485.85,399.79L487.05,396.22L489.65,392.84L486.07,385.44L488.73,381.74L489.38,378.35L492.86,375.42L497.57,375.54L500.3,373.76L501.56,367.57L506.23,362.39L504.44,359.29L504.25,355.57L505.73,352L503.72,346.33L507.09,346.86L508.44,344.73L511.67,344.22L512.75,342L507.5,324.88L508.36,321.13L507.39,316.64L507.27,308.62L506.93,298.34Z" class="land" id="LK-81" title="Badulla"/>
    <path d="M545.76,336.31L547.85,340.01L552.58,338.11L552.73,328.81L558.3,327.58L560.82,323.99L559.17,320.49L563.33,317.99L565.43,315.49L569.91,312.53L572.82,313.01L570.64,316.19L572.6,317.33L571.99,321.1L574.38,328.33L572.85,330.04L578.27,335.28L580,341.14L582.48,344.07L578.49,346.69L575.62,353.07L577.32,354.72L577.58,359.08L579.89,360.73L590.42,363.6L591.07,366.13L589.51,369.18L591.29,372.78L590.89,375.3L593.41,377.79L592.3,383.96L589.63,427.69L588.53,429.98L584.05,430.86L578.7,435.42L573.25,438.54L571.95,450.01L566.17,448.7L558.34,452.3L546.78,455.11L543.55,458.81L541.18,458.73L534.56,450.35L532.06,451.97L529.4,451.4L528.4,448.31L523.76,448.68L519.82,447.96L515.42,452.21L512.32,451.59L511.58,455.1L512.97,458.3L500.2,464.69L497.22,457.7L493.12,456.69L489.66,450.85L490.22,443.73L488.23,439.29L489.74,435.85L492.88,431.49L494.57,425.71L494.44,423.53L498.08,419.81L499.26,415.52L501.25,413.45L504.36,415.51L510.52,422.95L510.04,428.17L513.56,432.47L513.87,428.42L515.91,426.14L521.55,422.7L519.03,420.57L518.53,418.18L519.02,411.86L521.65,408.17L517.7,405.43L519.03,403.74L519.16,396.95L522.95,396.47L528.46,393.68L525.94,390.63L527.42,388.29L531.29,386.89L537.47,380.45L540.03,379.68L540.74,374.06L542.42,371.4L542.01,365.6L540.4,361.52L537.84,360.33L532.53,361.56L531.27,357.62L527.89,354.43L526.71,351.03L530.37,347.06L531.97,349.85L534.69,349.98L535.13,347.54L537.49,346.18L541.26,341.21L540.69,337.52Z" class="land" id="LK-82" title="Monaragala"/>
    <path d="M407.97,383.35L413.26,385.46L417.69,391.48L421.05,390.59L424.91,394.81L427.11,392.24L432.64,390.93L435.4,392.8L442.7,394.7L445.12,394.6L444.16,399.19L445.77,401.55L449.2,402.93L451.41,401.94L455.08,403.47L465.62,405.13L466.57,403.72L472.44,404.63L477.45,404.2L481.31,401.57L483.23,402.15L485.85,399.79L486.3,403.72L492.2,407.07L490.14,409.38L486.15,411.36L488.48,415.81L492.08,417.39L496.41,415.02L501.25,413.45L499.26,415.52L498.08,419.81L494.44,423.53L494.57,425.71L492.88,431.49L489.74,435.85L488.23,439.29L490.22,443.73L489.66,450.85L493.12,456.69L497.22,457.7L500.2,464.69L504.46,472.14L498.97,472.24L495.27,471.16L492.14,467.8L484.36,468.44L472.15,463.29L467.74,463.36L466.6,457.11L460.09,458.14L461.07,451.55L458.24,451.4L450.03,452.61L450.02,454.43L445.03,455.31L437.91,451.76L435.12,452.06L430.29,447.68L429.32,445.2L420.26,432.66L418.91,429.86L420.82,428.67L420.03,425.46L417.31,422.61L414.45,422.05L412.06,415.72L408.64,412.92L406.51,408.26L405.6,400.98L404,396.97L406.45,396.95L405.97,392.1L403.67,391L405.45,385.74Z" class="land" id="LK-91" title="Ratnapura"/>
    <path d="M405.82,338.89L415.23,331.92L424.9,330.53L426.82,325.35L426.69,322.17L431.62,320.65L433.55,321.87L435.51,325.77L436.09,329.05L443.22,335.27L442.97,338.05L446.16,338.78L448.56,341.86L447.37,345.32L451.5,349.18L451.69,350.74L446.98,353.06L445.7,355.81L439.89,356.58L439.69,359.3L441.05,364.01L440.88,368.85L441.4,370.33L436.85,374.44L438.37,375.89L436.93,383.88L445.38,387.36L444.97,389.35L447.12,392.53L445.12,394.6L442.7,394.7L435.4,392.8L432.64,390.93L427.11,392.24L424.91,394.81L421.05,390.59L417.69,391.48L413.26,385.46L407.97,383.35L407.69,380.75L409.68,379.14L409.06,376.12L403.99,375.47L402,364.9L404.74,359.36L407.67,356.71L406.94,354.98L403.28,355.09L400.63,353.22L401.76,347.41L404.58,347.27L404.52,341.95Z" class="land" id="LK-92" title="Kegalla"/>
  </g>
</svg>