<?xml version="1.0" encoding="UTF-8"?>
<svg xmlns="http://www.w3.org/2000/svg" width="430.13" height="519.3" viewBox="264.93 -2.65 430.13 519.3" style="background-color:#000000">
  <!-- Created using SVG Map Generator: dojo.amcharts.com/svg-map-generator -->
  <style>
    .land { fill: #ffffff; stroke: #000000; stroke-width: 0.65; }
  </style>
  <g id="polygons">
    <path d="M384.44,495.91L383.42,496.27L381.89,497.78L381.5,499.43L380.41,500.81L379.5,501.45L379.62,502.62L378.55,503.83L376.83,504.21L375.59,504.11L374.44,503.75L373.22,505.26L371.9,506.41L371.03,506.32L366.67,507.4L366.23,507.07L364.31,507.43L362.41,509.08L362.34,509.72L360.87,510.28L360.06,509.54L358.67,509.49L358.25,510.54L357.05,509.82L355.31,509.98L354,510.64L352.04,510.97L351,511.33L350.1,509.95L349.36,509.82L348.24,510.33L347.6,510.33L346.51,509.47L343.4,510.74L342.31,510.36L340.88,510.28L340.52,509.82L339.39,509.98L338.53,510.81L337.45,511.48L337.47,513.9L336.77,513.52L335.65,514L334.85,513.52L335.04,512.6L334.36,512.58L333.24,511.33L332.63,510.23L331.8,509.75L330.19,509.18L328.66,507.91L328.51,507.27L327.75,506.68L327.17,505.46L327.34,503.7L327.64,502.75L327.17,501.27L327.51,500.64L328.62,500.08L328.64,498.93L330.88,497.46L331.84,495.98L332.82,496.14L334.42,494.43L334.8,493.55L335.02,491.74L338.37,490.42L338.43,489.04L340.95,488.65L341.84,488.35L342.04,487.91L343.1,487.96L344.45,486.86L345.41,487.47L346.34,486.76L349.72,485.86L350.74,485.04L351.94,484.89L352.7,483.97L354.35,484.46L355.37,484.28L356.31,483.66L357.1,484.02L358.12,483.46L359.81,483.58L360.44,482.64L363.45,482.43L363.54,481.77L364.35,480.79L365.88,482.03L367.49,481.38L369.66,480.85L370.56,480.36L372.01,480.66L373.14,480.66L373.33,479.9L374.33,479.9L375.78,480.39L376.04,480.82L377.53,480.33L378.28,480.41L378.36,481.57L379.34,482.87L380.22,482.95L380.77,483.64L381.59,483.12L383.38,483.35L384.38,484.12L384.3,484.94L384.91,485.22L384.87,486.88L384.21,486.96L384.06,487.57L384.85,488.45L385.53,488.75L386.62,488.35L386.72,489.06L387.49,489.73L387.11,490.19L386.3,489.64L385.64,490.65L385.55,491.48L386.77,492.39L386.17,493.09L385.34,491.93L384.6,494.6ZM388.2,483.56L388.75,484.2L389.46,485.99L389,486.99L387.71,486.76L387.22,486.45L387,485.07L387.52,484.56L387.6,483.79Z" class="land" id="KR-49" title="Jeju"/>
    <path d="M486.6,361.45L487.52,362.54L487.63,363.07L488.8,363.58L488.39,364.44L487.79,364.57L487.22,365.22L485.79,365.38L485.54,364.57L484.15,363.3L484.98,361.77ZM470.73,353.84L470.92,354.41L470.35,355.78L469.62,356.46L469.17,359.03L470.22,359.27L470.07,357.82L470.8,356.56L471.33,356.15L473.36,357.99L473.42,359.56L472.8,359.76L473.2,360.54L473.03,361.11L474.21,361.11L474.29,361.74L473.25,362.44L472.59,361.71L471.95,361.97L470.09,360.73L469.84,361.71L468.7,361.97L467.38,361.92L466.15,361.37L465.63,360.36L465.59,358.62L466.66,357.95L466.75,357.26L467.68,356.52L467.72,355.65L468.73,354.48L469.71,354.01ZM520.54,342.74L521.14,342.97L521.5,343.68L523.14,343.57L523.87,344.91L523.53,345.74L522.46,345.87L521.8,346.86L522.25,347.38L521.82,348.32L521.93,349.2L522.46,349.2L523.3,350.37L523.66,351.26L524.19,351.41L524.3,352.35L523.7,352.77L523.61,354.04L524.04,354.66L523.6,355.08L523.53,355.92L522.74,356.05L521.8,357.03L521.86,357.7L523.57,357.47L524.46,356.85L525.51,357.45L525.17,358.02L525.53,358.93L524.36,359.71L524.96,361.22L524.04,361.45L523.36,360.7L522.27,361.5L522.29,362.23L522.81,362.67L523.5,361.84L524.19,362.75L523.61,362.96L525.23,365.92L523.77,366.08L522.91,365.84L523.36,365.2L522.89,364.18L521.95,364.6L522.04,365.58L521.38,365.58L521.58,364.65L520.24,364.05L519.73,364.1L519.54,365.89L520.12,366.68L518.94,367.71L518.31,367.27L517.68,367.66L517.38,368.81L518.28,369.95L518.51,370.75L520.42,370.59L519.9,371.38L518.9,371.22L518.43,371.48L516.58,371.22L516.36,371.82L516.88,372.83L517.54,373.01L517.26,373.84L516.42,373.38L515.21,374.56L514.27,373.92L513.33,373.99L513.63,372.44L514.76,372.18L514.55,371.19L513.44,371.25L512.71,370.86L512.74,369.82L513.23,368.62L514.25,367.41L511.99,367.77L511.73,368.46L510.9,368.34L510.83,367.61L511.97,366.78L511.18,366.34L510.22,367.61L509.7,366.44L511.35,366L512.99,365.79L513.44,364.49L513.29,363.61L514.14,362.91L513.51,362.44L513.48,360.75L512.39,360.2L511.6,361.3L511.73,362.23L510.36,362.21L509.51,362.54L508.96,362.26L508.34,363.3L508.66,363.71L508.11,364.49L506.23,361.87L505.4,361.5L505.31,360.49L504.87,359.56L504.67,358.46L505.2,357.13L507.32,355.24L508,355.05L508.74,353.78L509.28,353.81L510.28,354.64L510.3,355.08L511.88,356.07L512.67,355.61L512.33,355.05L513.35,354.56L514.38,355.58L515.02,355.26L515.57,356.43L516.42,356.09L515.34,353.99L514.74,353.68L514.1,352.14L513.35,351.91L514.4,350.92L514.29,349.8L514.89,349.39L515.79,349.99L517.68,350.43L518.56,348.47L518.58,347.69L519.43,346.81L520.29,344.6L520.26,343.55ZM532.17,340.29L532.57,341.46L533.4,341.23L533.79,342.66L532.53,345.61L533.02,345.89L532.53,347.28L531.25,346.34L531.91,345.35L530.25,344.61L530.93,344.25L530.72,342.77L529.56,341.52L530.29,340.97L531.57,340.89ZM487.24,379.06L488.22,379.83L489.57,380.33L491.38,380.3L490.42,381.75L489.71,382.19L488.61,381.46L488.26,382.03L487.03,381.8L485.62,380.87L485.56,380.46L486.33,379.08ZM518.26,344.51L518.64,345.53L518.03,347.06L518.18,347.95L517.85,348.63L516.17,348.22L515.85,348.94L515.1,348.86L515.66,347.77L517.06,346.62L516.88,345.71L517.81,345.4ZM483.79,359.66L484.64,360.23L485.67,360.47L486.07,361.37L484.25,361.3L483.66,362.36L482.98,362.91L482.23,362.7L482.31,361.79L481.18,361.3L481.29,360.41L482.33,359.97ZM463.27,265.98L464.54,265.97L465.12,266.27L465.38,267.11L465.37,268.4L467,269.12L468.75,269.02L469.32,269.3L469.79,270.22L470.73,270.74L472.73,271.23L474.34,271.38L476.41,271.17L478.88,272.39L479.28,272.99L479.69,274.79L480.45,275.74L481.34,275.98L482.13,276.55L482.66,277.49L482.47,277.99L483.81,278.58L484.52,279.21L485.29,280.67L485.09,282.47L484.22,284.14L483.62,285.71L483.39,287.06L484.12,288.4L485.06,288.66L487.2,289.62L490,289.11L492.4,288.23L494.18,289.11L495.45,289.08L496.05,289.33L497.87,291.11L499.26,292.13L501.22,292.08L504.05,290.04L504.96,289.64L507.25,290.47L508.35,289.72L508.79,287.06L509.26,286.35L509.67,286.05L510.46,286.06L511.02,287.11L510.64,289.02L510.82,290.34L511.28,291.53L512.01,292.59L513.73,293.97L514.5,294.86L515.62,295.42L516.37,295.41L518.9,294.65L520.39,294.53L521.58,294.62L523.19,295.16L526.45,296.76L528,297.23L529.28,296.77L530.8,295.33L532.48,294.1L533.3,294.35L534.23,293.99L535.69,292.12L536.46,291.36L537.34,290.97L540.13,291.08L542.47,292.29L544.44,292.99L545.21,292.7L545.84,292.05L546.62,293.01L547.03,294.03L547.03,295.23L544.25,297.63L544.25,299.69L544.52,301.57L546.34,302.42L548.57,302.42L550.52,302.59L553.17,305.34L555.95,308.59L557.76,310.12L560.27,310.29L561.3,311.55L560.42,312.13L558.91,313.77L558.44,315.28L556.58,315.4L554.48,315.75L553.09,317.86L552.4,320.07L551.56,321.17L550.07,320.91L548.82,321.61L547.94,322.38L546.86,322.94L545.41,324.05L544.72,325.69L543.56,326.97L540.18,327.09L537.04,329.07L535.18,329.31L534.95,330.47L534.83,333.39L531.35,334.33L529.36,335.15L529.2,335.53L528.39,336.27L528.3,336.9L527.07,337.77L526.09,337.84L525.45,337.24L524.7,338.08L523.27,336.87L522.74,336.7L521.78,337.53L521.03,336.54L521.75,336.2L522.42,335.13L521.88,334.51L521.93,333.64L521.22,333.41L520.89,332.63L520.03,333.25L520.39,334.92L519.5,335.47L519.22,334.22L518.75,334.22L517.65,332.99L516.51,332.78L515.91,334.09L515.02,333.31L515.25,332.65L514.95,331.56L513.97,330.4L513.71,328.45L514.06,327.38L512.44,328.01L511.79,329.05L512.42,330.86L513.16,331.17L513.84,331.87L513.84,332.47L514.38,333.25L514,334.14L514.29,334.98L514.59,336.98L516.17,338.1L516.59,338.81L515.02,339.22L515.73,340.01L516.49,339.62L517.19,340.19L514.91,341.13L512.95,341.62L512.37,341.42L513.18,340.5L512.93,340.16L511.59,340.35L511.67,341.73L511.07,341.59L510.05,340.39L510.2,340.03L511.84,339.98L511.59,338.99L513.1,338.08L510.6,337.53L510.03,337.14L510.41,336.38L509.51,335.49L508.91,336.83L507.15,337.37L506.44,336.61L505.57,337.21L504.33,337.32L503.71,336.72L503.01,336.67L502.79,337.37L504.63,338.75L504.03,339.72L502.32,339.88L501.73,340.84L501.04,341.36L499.83,341.13L499.15,341.55L497.46,341.96L497.19,342.37L497.78,343.26L496.89,344.01L497.19,345.11L498.21,344.75L498.29,343.31L499.51,342.59L502.82,341.75L502.35,340.95L502.66,340.11L504.35,340.22L505.44,340.53L505.07,341.23L505.18,342.25L505.95,344.38L506.87,344.61L506.89,345.4L505.53,345.68L505.44,346.39L504.31,346.78L503.67,347.51L502.18,347.09L500.93,347.22L499.72,347.04L499.74,348.22L500.45,347.79L502.3,348.19L502.49,349.05L501.39,350.84L501.3,352.67L501.39,354.38L500.49,355.01L500.81,355.92L500.64,357.01L501.53,357.03L502.71,355.86L502.22,354.66L502.92,354.51L504.05,355.96L504.18,356.72L504.88,357.01L504.37,357.97L504.29,358.72L503.5,358.8L503.14,360.96L501.77,361.79L501.43,362.57L502.24,362.67L502.19,365.87L501.73,366.31L501.88,367.27L501.07,368.18L500.96,368.91L499.59,368.83L498.7,367.82L498.87,367.22L497.74,365.82L496.78,365.89L497.5,363.92L495.8,363.07L494.31,362.78L495.99,361.58L496.48,362.47L496.99,362.03L498.65,362.91L498.23,361.37L496.9,360.67L498.27,359.4L500.55,359.63L500.36,359.01L499.53,359.19L498.08,359.01L497.68,358.46L497.93,357.63L497.19,357.58L497.27,358.52L496.01,358.8L494.31,358.07L493.39,357.92L492.23,357.24L492.06,356.52L491.24,355.96L492.36,355.08L493.19,355.26L494.39,355.08L495.03,355.48L495.56,354.12L494.86,353.6L494.92,352.67L494.54,351.6L493.94,350.92L492.73,350.63L493.06,351.62L492.56,352.09L491.4,352.53L491.79,354.22L490.44,354.98L488.82,354.85L488.5,353.88L489.1,352.77L488.84,352.22L487.73,352.11L486.77,351.73L485.64,352.07L485.26,351.73L483.46,352.48L484.11,353.52L483.75,354.17L483.66,355.52L483.81,356.59L482.25,356.28L481.12,356.25L480.57,355.26L479.69,355.48L478.56,357.01L477.75,355.49L477.07,355.73L476.3,354.88L476.79,354.44L476.28,353.6L474.29,353.44L474.21,353.75L472.53,353.18L471.41,352.17L471.39,351.6L470.69,350.76L472.12,349.39L472.42,348.6L471.8,348.29L471.41,347.35L471.35,346.42L472.05,345.58L472.16,345.01L471.35,343.26L471.56,341.96L471.99,341.05L472.14,340.01L471.22,340.14L471.09,340.68L470.35,341.39L470.67,342.25L470.41,343.5L469.96,344L469.09,343.78L468.73,342.5L467.32,342.25L466.77,343.63L468.02,343.6L469.06,344.46L468.96,345.35L469.88,345.55L469.56,347.38L468.81,347.72L467.87,347.12L467.3,347.75L467.74,348.35L467.04,348.7L466.12,346.93L465.49,347.09L465.1,348.06L463.54,348.39L463.14,347.38L463.7,346.72L462.56,345.01L462.18,345.58L461.9,347.32L461.43,348.06L461.65,349.15L460.83,349.26L459.98,350.81L458.64,351.57L456.93,351.54L456.12,350.56L454.84,351.94L454.46,351.34L453.87,351.38L453.21,350.83L453.24,348.44L452.9,347.2L451.95,345.08L450.54,344L449.58,342.47L448.27,341.91L447.65,340.9L446.76,340.05L446.6,337.67L444.13,334.71L442.32,333.79L441.26,332.41L441.11,329.65L440.82,326.4L440.53,324.88L438.37,322.44L438.38,321.17L439.02,320.6L441,318.55L440.93,317.05L440.56,316.21L441.5,313.64L442.62,312.33L444.51,310.73L444.57,309.6L444.96,307.91L444.87,307.47L443.55,307.12L442.99,305.54L443.14,304.11L443.55,302.82L442.11,300.1L442.17,298.58L441.61,298.02L439.92,297.47L439.78,295.57L441.07,292.9L441.63,290.13L441.71,289.04L442.78,286.79L443.26,285L444.02,283.82L444.75,283.17L444.87,281.6L445.51,277.67L446.87,276.74L447.54,275.83L449.52,273.81L449.88,272.29L450.54,271.65L451.04,269.95L451.98,270.49L453.04,270.45L454.52,269.52L455.7,269.51L457.15,268.16L458.23,267.96L458.67,266.39L459.28,265.57L459.89,264.19L461.32,263.49L461.78,262.96L461.88,264.54L462.35,265.24ZM505.61,363.64L505.12,364.21L506.21,365.27L506.29,367.01L507.28,366.81L507.72,367.48L507.62,368.15L505.72,369.35L504.88,369.14L504.57,368.52L504.57,367.48L503.69,366.6L503.94,366.15L504.88,365.87L504.76,365.01L504.18,364.31L504.41,363.64ZM460.22,351.57L461.56,352.35L462.15,351.96L462.73,353.37L462.92,354.45L462.2,356.72L461.43,357.5L460.85,357.42L460.58,358.64L461.39,360.47L461.43,361.58L462.63,362.44L463.2,362.21L464.01,362.75L463.9,363.87L464.14,364.49L464.89,364.85L465.25,364L466.72,363.43L467.64,362.31L469.82,362.47L470.67,362.07L470.99,362.75L471.86,363.22L473.01,363.3L473.46,364.08L472.34,365.77L472.76,366.44L472.21,367.01L472.61,368.21L472.7,370.46L472.16,370.62L471.08,371.82L471.03,372.62L472.01,373.27L473.06,373.66L471.67,374.49L470.88,373.92L469.86,374.26L470.29,373.03L470.05,372.52L469.3,372.46L469.06,373.53L467.79,372.83L467.17,372.93L467.17,373.86L466.28,373.6L465.08,373.82L464.25,371.45L464.4,368.59L464.93,367.87L464.23,367.35L462.88,367.58L462.15,368.18L460.96,368.62L461.71,370.93L461.22,372.13L459.66,372.62L458.42,372.1L457.46,372.1L457.65,371.29L457.35,370.57L455.86,370.11L456.2,369.29L456.2,368.31L456.93,368.31L456.55,366.52L455.65,365.74L455.84,364.57L455.16,364.31L454.07,362.21L453.99,360.83L453.61,359.89L454.39,359.16L454.46,358.28L455.1,358.42L455.61,356.09L457.93,355.52L457.15,354.61L457.15,353.91L458.11,353.02L458.44,352.01Z" class="land" id="KR-48" title="South Gyeongsang"/>
    <path d="M691.86,104.34L691.77,105.77L692.39,106.83L692.38,108.42L691.9,109.06L692.42,110.17L691.74,110.65L690.85,110.82L689.5,111.76L688.78,112.5L687.32,112.03L686.53,112.14L685.41,111.24L684.12,110.95L683.59,110.08L683.76,108.6L682.79,106.62L684.44,106.31L684.96,105.78L685.64,105.76L686.86,104.92L687.73,105.02L689.18,104.22L690.5,104.41L691.12,103.71ZM509.67,286.05L509.42,286.23L509.05,285L510.33,282.96L512.1,281.95L514.63,281.95L515.14,284.24L517.42,284.49L518.69,282.96L521.48,281.95L521.48,278.64L520.46,277.36L520.46,275.84L522.49,275.59L522.49,273.04L523.76,270.24L526.55,269.21L527.31,267.43L525.79,264.13L525.28,261.58L525.28,258.01L523.76,256.48L522.24,255.47L519.7,255.21L516.92,255.97L514.63,258.52L511.59,259.04L509.82,259.54L508.8,261.32L507.78,263.61L507.02,266.16L505,266.16L504.49,261.58L502.97,262.6L501.2,263.1L499.42,265.65L498.41,267.95L498.15,270.49L501.96,270.75L504.24,272.53L504.49,274.05L500.18,274.82L498.15,279.65L499.42,281.19L500.69,282.46L500.18,284.49L498.41,284.49L497.14,283.47L495.62,282.96L495.37,285.26L497.14,287.29L498.66,289.33L499.26,292.13L497.87,291.11L496.05,289.33L495.45,289.08L494.18,289.11L492.4,288.23L490,289.11L487.2,289.62L485.06,288.66L484.12,288.4L483.39,287.06L483.62,285.71L484.22,284.14L485.09,282.47L485.29,280.67L484.52,279.21L483.81,278.58L482.47,277.99L482.66,277.49L482.13,276.55L481.34,275.98L480.45,275.74L479.69,274.79L479.28,272.99L478.88,272.39L476.41,271.17L474.34,271.38L472.73,271.23L470.73,270.74L469.79,270.22L469.32,269.3L468.75,269.02L467,269.12L465.37,268.4L465.38,267.11L465.12,266.27L464.54,265.97L463.27,265.98L462.35,265.24L461.88,264.54L461.78,262.96L462.61,261.13L462.83,258.87L461.82,256.17L459,251.55L459.87,250.68L460.89,250.48L461.6,251.02L462.21,250.75L463.7,248.63L463.89,246.97L464.69,245.59L464.55,244.84L465.98,243.66L465.89,241.89L466.31,240.74L465.42,239.29L465.36,238.32L466.32,236.91L468.43,236.01L469.74,236.39L470.28,236.94L471.21,236.5L471.29,235.84L470.73,235.38L470.01,233.52L469.86,232.6L470.09,231.3L468.97,230.53L468,230.28L464.57,231.61L463.89,231.69L462.61,230.42L461.9,229.45L460.42,229.09L459.7,227.63L457.48,229.5L456.25,229.53L455.18,228.25L455.11,227.12L455.24,224.76L456.99,223.37L457.87,222.02L458.21,220.78L457.81,220.54L457.59,219.51L456.74,217.89L457.78,216.24L457.78,215.18L457.3,214.21L457.84,212.02L457.85,210.22L457.61,209.09L457.96,208L459.5,207.72L459.94,205.88L459.64,205.32L457.84,204.43L457.52,203.16L457.64,202.39L457.25,201.87L456.05,201.13L453.37,200.89L452.29,200.48L451.7,199.58L451.84,198.85L453.09,197.71L454.43,197.7L455.67,195.87L457.47,194.32L457.83,193.75L457.38,192.46L458.03,190.88L458.8,190L460.95,189.69L463.64,187.7L464.59,185.79L467.28,187.12L468.27,186.65L470.18,187.56L472,188.01L472.97,187.93L472.83,187.28L470.21,183.65L470.72,182.92L471.01,181.4L472.01,179.53L472.54,178.19L472.94,177.94L474.28,179.36L475.39,179.21L476.33,177.63L477.95,176.18L478.82,176.49L479.56,177.36L480.34,177.43L483.79,178.41L484.35,176.91L484.45,175.32L485.37,175.04L485.84,173.59L486.73,172.55L487.69,174.16L490.31,175.67L491.5,177.4L491.74,178.46L492.34,179.69L492.79,179.89L494.12,179.54L496.1,179.58L497.23,178.47L499.67,178.29L500.11,178.1L501.1,176.58L502.42,174.92L502.2,173.21L501.36,172.19L500.7,172.05L500.74,170.96L502.39,168.05L502.7,166.98L503.91,165.78L503.98,165.06L505.01,164.68L506.49,163.64L507.5,161.8L509.78,161.15L510.3,160.71L511.91,158.78L513.63,157.88L515.15,155.79L516.55,156.33L518.34,154.57L519.29,154.76L521.79,156.47L523.35,156.26L524.66,156.61L525.85,157.39L526.75,156.47L526.66,154.51L527.19,152.63L528.83,152.47L531.11,153.75L533.9,156.04L537.2,156.04L537.96,155.02L539.56,151.99L540.32,151.51L541.71,152.07L542.27,153.15L544.04,152.54L544.98,152.56L546.21,152.95L547.71,153.12L548.66,153.5L550.21,154.54L551.02,154.7L552.29,153.23L553.09,152.65L554.28,152.77L556.27,153.27L557.61,153.81L558.77,154.59L559.77,155.67L561.28,155.53L565.08,155.53L563.81,153.24L563.81,152.22L565.08,150.44L567.36,148.4L569.39,147.64L570.91,145.86L573.19,145.35L574.38,145.27L573.94,145.96L574.3,146.95L575.53,148.63L577.86,150.35L577.05,151.49L577.09,152.88L576.67,154.54L577.39,156.24L577.44,157.4L576.6,158.54L577.12,160.04L577.56,162.87L577.09,165.61L577.52,166.71L577.08,167.17L577.65,168.82L577.56,169.86L578.14,171.3L579.5,172.81L579.59,173.64L580.32,174.49L580.36,175.75L580.79,177.13L581.95,179.08L581.1,179.99L581.19,181.05L581.85,182.3L581.42,183.48L581.88,185.57L581.17,186.1L580.85,187.55L579.55,187.62L578.82,188.28L578.14,190.41L577.26,191.39L576.88,192.92L577.2,194.95L576.71,195.2L576.86,196.66L577.33,197.67L578.21,198.43L579.06,199.63L578.97,200.96L579.14,202.24L579.61,203.4L579.42,205.69L578.54,206.75L578.84,207.99L578.5,210.24L578.74,211.63L578.27,213.19L576.37,216L575,218.35L575.07,219.15L574.57,219.71L574.34,220.66L574.32,224.66L574.09,225.53L574.51,226.17L574.09,226.62L573.85,228.21L574.85,229.4L574.49,230.4L574.85,231.27L574.57,232.33L573.89,232.52L573.98,233.86L574.62,234.57L575.39,234.57L576.03,236.51L576.05,237.51L575.53,238.88L575.92,239.81L578.38,241.84L578.23,243.11L577.35,243.82L577.39,245.17L576.05,245.64L575.64,246.28L574.57,246.28L574.19,247.04L574.04,248.18L574.85,249.52L576.22,248.57L578.33,249.34L577.26,249.74L576.49,249.5L576.11,251L577.28,250.55L577.74,250.97L577.15,251.65L577.5,252.29L579.57,253.11L580.23,252.9L580.43,251.89L582.24,250.69L582.68,250.69L583.81,249.87L583.86,248.79L584.73,248.02L585.35,247.02L585.84,246.78L587.04,244.35L588.1,243.95L588.27,244.59L589.06,244.82L588.97,245.77L589.36,246.17L589.93,249.57L589.53,249.92L589.87,250.82L588.7,252.53L588.72,253.24L587.59,254.24L587.65,255.45L587.25,256.4L586.63,257.09L586.19,258.35L585.01,258.99L585.05,259.7L586.25,261.62L585.69,261.97L585.18,263.52L585.13,264.38L586.22,264.34L585.23,266.33L584.77,267.99L584.3,268.94L584.73,269.73L583.54,271.25L583.75,271.72L582.96,272.36L583.17,274.06L583.02,275.82L582.45,276.56L582.55,277.77L582.21,278.27L582.05,279.43L581.49,280.4L581.92,281.55L581.4,282.66L580.98,282.6L580.98,283.92L580.27,283.87L579.91,284.42L579.72,285.63L579.1,285.94L579.29,287.83L580.38,289.11L578.01,288.77L576.59,288.43L574.35,287.72L572.62,287.02L570.5,287.27L568.21,288.78L567.05,288.97L564.84,288.17L564.61,287.55L564.96,285.22L564.77,284.55L563.98,284.07L562.34,283.81L560.88,282.61L559.99,282.27L557.89,282.81L556.57,282.57L554.04,283.4L550.66,285.5L550.18,285.9L550.36,286.77L551.46,288.79L550.92,289.5L549.67,289.41L548.4,289.93L547.7,290.65L545.84,292.05L545.21,292.7L544.44,292.99L542.47,292.29L540.13,291.08L537.34,290.97L536.46,291.36L535.69,292.12L534.23,293.99L533.3,294.35L532.48,294.1L530.8,295.33L529.28,296.77L528,297.23L526.45,296.76L523.19,295.16L521.58,294.62L520.39,294.53L518.9,294.65L516.37,295.41L515.62,295.42L514.5,294.86L513.73,293.97L512.01,292.59L511.28,291.53L510.82,290.34L510.64,289.02L511.02,287.11L510.46,286.06Z" class="land" id="KR-47" title="North Gyeongsang"/>
    <path d="M450.76,356.82L451.79,357.09L451.77,355.65L451.4,354.25L450.36,354.01L450.46,355.21L450.08,355.81L445.73,354.82L445.69,353.18L446.5,352.87L446.6,352.35L447.78,351.07L448.42,351.6L448.21,353L450.4,353.05L451.79,354.44L451.89,357.24ZM313.22,358.42L314.07,358.26L315.1,356.93L315.82,355.61L317.33,355.11L319.04,354.88L319.5,354.09L319.38,352.95L320.13,352.53L320.92,353.15L321.23,354.85L322.32,354.92L322.07,355.55L321.15,356.18L322.32,357.4L320.89,357.97L321.03,359.32L319.93,359.89L318.23,360.31L317.27,359.76L315.84,359.3L314.88,359.19L314.37,359.56ZM336.51,359.5L336.17,358.52L336.34,357.19L337.73,357.6L338.09,356.88L337.41,355.81L336.34,355.01L337.73,353.88L338.26,354.09L338.8,355.24L340.63,355.08L340.95,355.81L341.8,356.09L340.39,356.96L339.79,356.88L339.77,358.46L339.03,359.22L339.71,359.6L340.67,359.27L342.25,359.35L343.27,360.73L342.83,361.21L342.78,362.65L343.02,363.09L341.69,364L340.26,363.55L341.27,361.53L340.16,360.57L338.81,360.33L337.62,360.44L337.34,360.1L335.98,360.13L334.97,361.58L334.27,361.5L333.29,360.83L332.28,360.75L332.93,359.32L333.27,359.69L334.96,360L335.85,359.35ZM349.29,305.86L350.87,306.01L352.39,306.52L353.91,307.8L354.55,309.96L354.67,312.37L356.19,314.16L357.2,317.47L358.59,317.47L358.62,318.53L361.3,318.89L362.43,318.67L363.62,317.41L364.41,317.12L366.1,317.66L366.85,317.59L367.79,317.09L369.03,315.87L371.59,315.08L373.55,314.09L374.17,312.44L373.84,311.03L373.96,310.47L375.62,309.15L375.5,306.62L375.65,305.66L376.14,305L377.98,304.19L380.1,304.67L381.38,303.14L382.97,303.33L383.84,303.64L386.23,305.16L387.78,306.92L388.09,307.97L389.17,309.97L390.01,310.7L391.62,311.17L392.45,310.59L392.59,309.02L392.99,308.07L393.8,307.54L394.6,306.08L395.17,305.83L396.65,306.15L397.74,306.99L398.24,308.55L398.11,310.59L397.18,311.72L397.64,313.04L398.93,313.03L399.76,315.38L399.81,316.63L399.42,318.32L399.94,318.98L401.52,319.94L403.23,320.37L404.53,320.26L407.54,318.07L410.09,319.18L411.67,318.27L412.83,319.39L413.75,319.92L416.97,319.85L418.75,319.9L420.68,319.33L424.19,319.61L424.7,319.25L425.97,317.48L427.1,316.16L428.52,315.35L430.14,315.26L432.99,316.2L433.84,316.96L436.53,318.44L439.02,320.6L438.38,321.17L438.37,322.44L440.53,324.88L440.82,326.4L441.11,329.65L441.26,332.41L442.32,333.79L444.13,334.71L446.6,337.67L446.76,340.05L447.65,340.9L448.27,341.91L449.58,342.47L450.54,344L451.95,345.08L452.9,347.2L453.24,348.44L453.21,350.83L453.87,351.38L453.77,351.8L452.28,352.04L451.51,351.73L450.4,349.3L449.93,349.28L449.42,350.21L447.99,350.66L447.8,348.86L447.35,349.1L447.72,350.87L445.75,352.43L444.47,353.6L444.86,354.38L443.53,355.29L442.25,355.63L442.42,356.02L441.49,356.75L440.29,355.24L439.4,355.48L439.01,354.41L438.15,353.62L436.15,353.6L436.94,354.19L437.99,355.49L437.58,356.07L436.5,356.88L437,357.84L436.94,358.52L438.15,360.47L438.8,360.31L439.78,361.63L439.93,362.65L441.38,362.34L442.57,362.98L443.55,361.92L445,361.14L445.56,359.74L447.35,359.79L447.82,360.36L450.07,359.19L450.64,359.3L451.58,360.33L451.06,360.62L451.06,361.87L450.62,362.26L450.46,364.44L450.66,365.3L449.68,365.58L449.7,366.49L448.84,367.66L449.5,368.75L449.2,369.16L449.3,371.32L448.01,371.09L447.8,372L445.75,372.78L443.62,370.83L443.53,370.39L442.04,370.05L441.36,371.53L440.86,372.13L440.74,372.9L440.97,374.03L439.71,373.58L438.82,374.39L439.84,375.01L439.44,375.63L440.07,376.23L439.95,376.96L440.44,378.49L439.91,378.9L440.8,379.57L440.83,380.53L441.25,381.26L440.5,381.59L438.75,379.91L438.14,379.83L436.79,379.1L436.09,379.21L435.77,379.8L434.53,378.49L434,377.58L434.3,376.8L433.87,376.39L434.06,375.24L434.83,374.83L434.47,373.97L433.75,373.69L434.23,372.9L436.07,371.58L436.34,370.42L437,369.89L436.94,369.29L435.49,368.91L435.64,368.11L434.66,367.64L435.17,366.7L434.51,365.71L434.64,365.01L434.17,364.49L433.34,364.81L431.86,364.47L432.02,363.14L432.85,362.47L433.32,361.37L432.4,361.45L431.8,360.7L431.7,359.5L431.37,359.09L431.33,357.89L430.33,358.39L429.26,358.46L429.54,359.63L429.41,360.96L428.92,361.58L427.94,361.14L425.57,361.9L424.85,361.9L422.4,362.96L421.58,362.7L421.07,361.9L419.53,361.94L419.75,362.44L420.98,362.78L421.74,363.97L422.16,363.74L423.5,364.15L423.25,365.07L421.94,365.64L421.37,366.52L421.31,367.27L422.42,367.99L422.2,369.22L420.86,369.86L420.26,370.75L420.88,372.31L421.28,372.57L421.52,373.53L422.9,374.67L424.18,375.4L424.35,376.17L425.97,377.09L425.68,377.66L426.73,378.2L427.11,377.39L427.94,377.16L428.09,380.12L429.8,381.03L429.58,381.59L429.78,382.56L430.47,383.49L430.46,384.5L429.07,385.66L428.19,385.92L427.89,386.39L426.68,385.5L425.42,386.05L424.44,385.12L422.42,384.86L421.82,385.3L421.9,386.49L422.65,386.96L421.56,387.82L423.18,388.05L423.72,387.84L424.74,388.2L425.25,388.82L424.87,389.86L424.08,390.43L424.59,392.22L422.9,391.49L422.63,392.86L421.75,392.5L420.62,392.96L421.65,394.42L421.35,394.88L420.26,395.19L419.28,394.08L418.83,394.84L417.19,395.27L416.17,396.51L417.74,398.11L416.83,398.78L416.01,398.74L415.95,397.6L414.69,396.07L414.03,396.05L413.56,395.42L412.15,394.96L412.58,394.01L413.35,393.62L411.71,392.14L411.13,391.34L410.42,391.8L409.36,391.65L409.53,391L408.6,390.19L406.93,391.02L406.61,390.33L405.37,390.38L404.52,390.89L402.13,391.18L400.93,390.53L401,389.52L400.23,389L400.44,388.12L401.12,386.88L401.85,386.03L402.74,385.46L403.2,384.58L404.22,384.89L404.82,384.39L404.71,382.43L404.84,381.57L405.67,381L406.91,379.49L409.08,378.95L409.23,377.58L409.68,376.52L410.32,375.89L409.75,375.35L410.09,374.59L410.94,374.26L411.15,373.69L411.96,373.4L413.13,373.71L413.54,375.4L413.16,375.79L412.97,377.1L413.58,377.76L415.76,377.96L416.29,377.03L415.99,376.36L416.59,375.79L417.14,373.95L418.04,373.79L417.98,373.25L417.13,373.22L416.72,371.53L416.61,369.82L415.59,369.71L414.37,370.72L414.12,371.73L412.44,370.8L411.54,371.61L410.98,370.21L410.25,369.03L409.15,369.32L407.84,370.91L407.84,371.63L406.82,374.05L406.16,374.41L406.01,375.01L405.29,375.42L402.55,375.35L401.49,374.36L400.38,375.37L400.02,376.59L399.1,377.35L396.9,378.07L396.37,378.62L395.26,380.63L394.56,380.59L393.91,381.23L393.02,381.67L391.16,381.83L391.55,384.22L391.08,384.58L390.91,385.69L390.06,386.33L390.8,387.03L391.19,386.83L391.89,387.66L390.72,387.6L390.73,389.63L389.84,389.26L389.16,389.52L388.54,390.38L388.73,390.98L389.43,391.39L389.95,392.35L389.11,392.45L388.82,393.72L389.78,394.39L390.03,395.42L389.14,395.4L388.37,396.1L387.24,394.81L386.77,395.48L387.07,396.77L387.56,397.37L386.19,398.27L385.53,397.57L382.01,397.34L382.57,398.97L382.93,399.44L382.8,400.63L381.82,399.15L380.56,398.74L379.7,397.86L379.2,397.7L378.54,398.2L377.64,398.14L376.59,397.39L376.83,396.25L375.44,396.38L375.23,395.51L376,395.19L375.7,393.15L375.23,392.06L375.61,390.76L375.66,388.85L375.42,387.71L375.89,387.03L375.34,386.55L375.37,385.25L374.78,384.94L374.54,382.22L373.97,382.5L374.05,383.52L373.67,387.06L373.48,390.19L373.65,390.87L373.07,391.26L373.28,393.07L373.63,393.41L371.71,394.42L371.64,394.94L372.2,395.94L370.4,398.64L369.96,398.32L369.28,398.97L368.49,398.87L367.72,399.41L366.53,400.81L365.87,400.14L365.44,400.63L364.75,400.53L364.33,401.74L363.54,401.53L362.39,403.39L361.79,403.99L362.43,405.33L362.43,406.49L361.04,407.38L361.55,408.07L360.89,408.61L361.13,409.24L360.83,410.81L359.85,410.08L357.84,409.85L357.18,410.47L356.63,411.66L355.45,411.87L355.41,412.56L354.47,412.43L354.45,411.27L354.75,409.77L355.28,408.82L354.79,407.89L354.79,406.31L353.96,405.79L353.17,406.39L352.49,406.39L351.57,407.32L351.31,406.72L351.72,404.82L351.48,403.91L352.79,404.06L353.09,403.73L352.17,402.54L352.66,401.81L353.81,402.51L353.88,401.87L354.45,401.24L353.86,400.21L354.17,399.18L353.69,398.92L352.96,399.7L351.91,399.46L351.34,400.08L350.81,399.02L349.69,397.97L350.63,397.73L350.89,396.02L350.38,396.22L349.78,395.45L350.38,395.01L350.32,394.01L349.85,393.18L350.93,392.5L350.29,391.39L348.73,391.26L350.52,389.89L350.27,389.22L348.6,389.73L348.59,388.43L346.73,387.79L346.9,388.77L345.64,389.09L345.71,389.76L344.72,390.33L343.9,389.68L344.64,388.77L344.64,387.76L344.19,387.56L342.84,387.69L342.23,387.19L340.52,386.52L339.96,386.91L338.9,387.09L338.14,386.16L338.83,385.33L338.37,384.94L336.3,384.45L336.68,383.56L336.28,382.84L336.55,381.93L337.28,381.33L335.68,380.95L334.72,380.02L334.68,378.43L334.4,377.73L334.72,377.22L334.42,376.46L334.97,376.02L334.61,375.13L334.74,374.26L335.32,374.39L335.87,373.48L335.87,372.05L336.6,370.21L336.72,369.28L337.79,368.83L338.45,369.32L339.18,370.75L339.92,371.16L340.22,372.78L340.91,372.99L341.65,373.92L341.68,374.43L340.39,374.98L340.2,376.56L340.52,377.24L339.96,377.76L340.12,378.51L341.82,379L342.16,380.06L341.93,381.57L343.55,382.53L344.57,382.92L346.73,384.26L348.95,385.17L349.91,384.89L351.72,383.77L352.02,382.4L351,382.84L349.56,382.94L349.37,381.67L348.41,381.8L347.83,379.91L346.87,379.86L347.05,378.87L346.75,377.79L346.11,377.76L345.79,378.82L345.3,378.66L344.83,379.42L343.79,378.79L344.34,377.8L345.05,377.5L345.47,375.97L345.85,375.63L345.23,374.83L344.98,373.84L345.36,373.27L346.51,374.98L346.92,376.07L347.5,375.22L348.65,374.96L348.93,374.26L349.72,375.32L348.65,376.05L347.75,377.73L348.67,378.77L350.76,380.17L352.55,380.22L353.96,380.59L355.24,381.7L356.05,380.74L354.98,380.3L354.79,379.29L356.88,379.34L357.13,380.06L359.78,381.2L361.94,381.2L361.94,380.46L360.38,380.37L358.42,379.03L357.71,378.33L357.65,377.24L357.97,376.25L357.1,376.07L356.18,376.28L355.92,375.24L355.22,373.89L353.88,372.43L353.04,371.29L351.74,370.96L350.44,371.25L350.16,371.85L349.46,371.79L348.86,370.83L346.6,370.21L346.02,371.01L344.64,371.71L342.74,371.01L342.7,370.62L343.87,369.95L344.1,368.23L344.83,368.11L344.76,367.01L343.14,367.12L342.57,365.35L343.66,363.3L345.64,361.37L346.05,360.36L345.17,358.93L345.68,357.86L344.68,357.13L345.77,355.55L345.72,354.54L345.06,354.17L344.72,353.39L345.25,352.79L344.59,351.44L345.05,350.3L344.28,349.56L343.93,348.68L344.02,347.79L343.55,347.12L343,347.17L342.46,350.16L343.33,350.45L343.21,351.51L343.44,352.09L342.94,352.95L343.06,354.04L341.82,353.94L341.22,354.56L340.12,354.44L339.92,353.11L338.75,352.53L339.43,351.85L338.56,351.47L337.45,349.8L337.62,348.83L338.53,348.86L340.35,349.3L341.5,348.92L341.99,347.3L340.75,346.91L344.75,344.33L344.83,343.68L344.23,342.24L343.17,342.22L341.82,342.87L341.46,341.86L341.8,341.52L340.92,340.66L341.29,340.08L340.35,338.31L339.26,338.28L338.92,339.32L338.92,340.26L337.92,340.79L338.94,341.26L338.14,342.43L337.51,341.9L337.32,341.1L336.7,340.82L336.06,341.54L335.02,341.62L335.08,340.76L334.53,339.17L333.84,338.96L334.03,337.58L334.89,337.09L333.59,335.49L334.49,333.35L335.85,332.4L336.19,333.8L336.96,333.93L337.54,333.57L338.39,333.62L338.45,334.63L339.49,334.58L340.54,332.62L341.29,331.61L341.27,333.33L341.46,333.67L340.29,335.76L340.56,336.8L340.52,337.9L341.16,337.94L341.27,338.81L342.31,339.62L343.06,339.31L342.91,340.48L343.42,340.66L344.04,338.94L344.43,339.54L345.68,339.85L346.11,340.97L344.87,342.33L345.62,342.46L345.53,343.6L346.84,344.07L347.52,343.91L346.92,342.74L347.39,341.99L348.76,341.33L349.93,339.46L348.35,338.52L349.95,338.13L350.48,337.17L349.09,336.64L347.17,336.56L346.39,335.39L345.85,333.98L344.87,333.57L344.21,332.41L343,330.86L342.46,330.8L342.57,329.57L343.21,328.86L342.95,327.3L341.48,326.98L340.43,327.48L340.12,326.98L339.33,326.98L338.94,325.42L337.84,324.51L338.47,322.97L338.83,322.87L339.26,324.06L339.79,324.51L340.92,324.01L340.48,323.2L341.78,321.43L341.55,320.85L340.5,321.22L340.12,320.87L340.52,319.96L343.25,319.83L343.33,318.89L343.76,317.9L343.85,315.52L344.53,314.31L344.53,313.35L345.28,311.88L346.48,312.35L346.28,311.22L345.75,309.94L345.79,308.43L346.02,307.35L347.22,306.2L349.03,306.33ZM394.9,330.78L393.2,329.99L391.08,329.78L390.58,328.29L390.58,327.08L390.25,326.07L388.67,324.16L387.18,323.46L385.2,323.38L383.22,324.16L381.59,325.02L379.97,326.73L378.77,326.8L377.06,326.23L375.87,325.09L375.37,323.32L373.6,323.24L372.89,324.94L372.47,326.44L371.9,327.58L369.99,327.51L368.58,329.21L368.22,331.06L367.66,333.12L368.01,336.46L371.9,337.1L373.88,337.32L375.37,339.16L376.15,341.15L376.92,342.29L379.97,342.29L381.1,341.51L382.73,340.66L385.84,340.66L387.05,339.8L389.59,340.3L390.86,339.66L392.35,338.39L393.48,336.89L394.12,335.54L394.19,333.4L394.9,331.92ZM318.1,340.32L319.06,340.22L319.31,339.51L318.02,338.55L318.74,337.79L318.59,336.9L320.73,336.74L321.58,336.1L322.78,334.63L324.03,333.35L324.52,333.85L323.45,336.54L322.9,337.06L322.75,338.08L322.98,338.7L324.22,339.28L324.03,339.77L322.54,341.18L321.79,341.52L320.68,341.36L320.43,340.24L319.57,340.11L318.55,340.86ZM326.87,338.24L326.93,337.34L327.85,336.67L329.64,336.04L330.54,336.51L332.05,336.77L332.38,337.63L333.5,336.9L333.78,337.58L333.48,338.68L333.53,339.66L334.44,340.16L334.76,340.68L334.99,342.46L335.93,343.06L335.53,343.47L335.15,344.61L334,344.51L333.29,343.21L332.46,342.93L332.88,341.7L332.09,341.2L330.65,341.33L330.28,340.68L329.02,340.73L327.36,340.39L327.12,339.82L327.55,338.81ZM322.68,345.82L323.48,345.66L323.67,344.83L324.59,344.75L324.57,344.07L325.63,344.44L326.74,344.48L327.34,344.85L327.7,345.79L327.12,346.72L326.38,346.88L325.16,346.55L324.05,346.88L322.88,346.91L322.3,346.49ZM273.09,375.32L273.71,375.58L273.24,376.46L272.66,376.05L272.18,376.41L272.18,377.45L271.45,378.49L270.45,378.49L270.49,379.19L269.57,380.35L269.63,381.73L269.3,381.8L267.93,380.79L267.58,379.91L268.14,379.6L267.71,378.59L268.5,378.04L268.78,376.67L269.4,376.2L269.21,375.6L269.85,374.83L271.28,375.03L270.87,375.71L271.91,376.17L272.18,375.35ZM372.43,404.12L373.16,403.06L373.8,402.75L373.52,401.63L375.34,399.54L376.32,399.67L378.79,398.53L379.77,399.9L379.24,401.61L380.13,400.94L380.71,402.23L381.33,402.96L381.31,403.57L378.13,402.69L377.68,404.3L375.61,404.37L374.74,405.56L374.46,406.71L373.8,406.68L373.65,405.98L374.48,404.27L373.25,404.32ZM448.97,357.11L448.1,357.24L447.39,358.43L445.82,358.7L444.73,357.55L445.54,356.62L446.71,356.05L447.48,356.72L448.7,356.65ZM309.05,373.01L308.03,373.09L307.18,372.62L306.16,371.69L306.43,370.21L306.28,368.44L307.09,368.23L307.03,366.96L308.46,367.06L309.29,367.66L310.27,367.45L311.87,366.6L312.88,364.98L313.54,365.22L314.64,364.94L314.9,365.84L314.61,367.14L313.79,367.17L313.58,368.18L312.85,368.65L311.74,368.72L310.5,368.46L309.42,368.81L309.38,370L310.4,371.56L309.95,372.8ZM343.93,394.21L342.78,394.75L342.34,395.42L343.38,395.97L342.31,397.34L342.89,398.68L341.98,399.41L341.57,400.54L340.61,401.27L340.63,402.64L339.92,402.02L339.05,400.7L338.67,400.88L338.8,402.13L337.77,402.28L337.62,402.9L336.34,403.57L336.06,403L335.13,402.93L334.76,403.91L335.02,404.66L332.48,404.99L330.47,406.58L329.2,406.71L327.78,407.11L326.89,406.75L326.79,405.88L326.03,405.82L325.42,406.62L324.76,406.18L325.12,405.15L325.97,404.5L325.72,404.02L324.87,403.99L324.54,404.66L323.82,404.66L322.92,402.77L322.22,402.17L321.62,400.94L323.03,398.4L323.94,398.04L324.3,396.62L325.4,396.25L326.16,395.4L327.98,394.75L328.11,393.79L329.39,392.01L329.39,393.48L329.79,393.88L330.54,393.66L330.11,392.76L330.41,391.91L331.54,390.3L332.05,390.46L332.8,390.02L334.01,387.63L333.21,387.19L333.07,385.56L333.31,385.17L334.61,385.15L336.38,385.77L336.64,386.16L337.66,386.42L338.53,387.22L338.43,388.46L339.07,389.32L340.56,388.75L341.35,389.83L342.48,390.88L343.1,391.91L343.8,392.16L344.19,392.94L343.47,393.64ZM330.28,380.66L329.98,381L328.74,381.13L328.24,381.99L327.66,381.52L326.87,381.52L324.82,382.76L324.3,382.56L325.1,380.12L324.63,379.52L323.82,380.04L323.77,379L324.59,378.69L325.46,378.82L326.14,377.37L327.25,377.47L327.42,378.02L329.21,379.34L328.83,379.89L329.13,380.48L330.09,380.02ZM454.29,397.68L453.86,398.38L453.84,399.44L453.52,400.06L453.67,401.14L451.92,401.04L452.84,398.1L453.71,398.07ZM362.34,420.49L362.6,421.23L361.93,421.45L361.92,422.99L360.87,422.94L360.68,422.09L359.32,422.19L359.05,422.49L360.17,423.65L358.06,423.32L358.1,422.48L357.65,422.14L357.27,420.62L358.1,420.02L358.46,418.45L359.32,418.56L359.76,418.99L360.38,418.71L361.49,418.99ZM323.22,372.99L322.37,372.78L322.67,371.25L322.24,370.88L321.23,370.75L320.87,371.38L320.19,371.4L320.51,370.31L321.09,369.89L320.62,368.62L321.58,368.44L321.53,367.71L323.01,368.46L324.41,368.02L324.99,369.22L327.18,370L328.21,370.65L328.72,372.62L328.53,373.76L328.13,374.56L327.23,374.56L326.32,373.63L326.12,373.01L325.46,372.68L325.23,372.05L324.57,372.18L323.88,373.27ZM321.58,359.63L321.85,360.16L323.58,360.67L323.99,359.92L323.26,359.32L323.61,357.55L324.84,357.79L325.4,358.28L326.02,357.89L326.42,359.79L325.37,359.47L325.53,360.41L326.36,361.14L326.25,361.63L325.06,362.31L324.14,361.9L323.5,362.83L324.22,364.37L323.84,365.32L322.84,365.32L322.15,365.01L321.75,363.92L320.89,363.14L319.27,360.77L320.56,360.54L321.06,359.76ZM362.56,424.51L362.75,425.26L362.06,426.03L361.27,424.9L360.68,425.59L360.28,424.61L359.23,425.26L359.42,425.62L358.29,426.39L358.1,427.09L356.5,428.17L355.28,428.55L354.02,428.3L353.47,426.91L353.89,426.42L353.89,425.39L353.53,425.07L355.13,423.58L356.31,422.86L357.43,423.58L357.46,424.17L358.59,423.94L361.36,424.36L361.66,424.8ZM392.29,409.05L391.85,410.65L391.03,410.81L389.95,411.37L388.31,410.57L388.31,409.41L389.24,408.31L390.39,408.12L390.69,408.56L391.5,408.31ZM385.83,423.04L385.34,425.1L385.04,425.59L383.4,425.54L383.04,425.83L381.23,424.43L380.47,425.49L379.88,423.78L380.37,423.14L380.28,422.48L380.96,421.33L381.86,420.62L382.08,420L382.72,419.63L383.97,420.1L384.8,420.02L384.87,420.65L384.25,421.08ZM315.57,374.88L315.58,375.63L314.58,375.63L314.45,376.49L313.24,377.32L313.22,378.2L312,378.74L311.32,378.64L310.53,377.83L308.69,377.37L308.2,376.02L308.38,373.6L309.59,373.16L309.87,373.73L310.66,374.2L310.96,373.71L310.74,372.57L311.74,372.62L312.98,373.32L313.68,373.35L314.88,374.52ZM449.14,384.7L448.18,383.56L448.21,382.94L446.86,382.76L446.2,381.75L446.92,381.2L447.25,380.5L446.69,379.96L447.16,378.79L447.58,378.77L449.01,377.58L449,376.98L449.7,375.55L449.5,374.93L449.77,373.35L448.93,373.35L448.38,371.51L449.23,371.58L450.92,372.31L452.05,373.09L452.38,374.41L451.92,374.72L451.17,374.46L450.7,373.73L449.89,374.31L450.43,375.19L451.47,374.9L451.6,375.86L451.23,376.43L452.13,377.39L452.68,377.37L452.79,379.44L453.07,381.2L452.58,381.67L452.45,382.92L452.71,383.52L453.64,384.26L453.13,385.3L452.26,385.46L450.73,385.15L450.32,384.63ZM365.33,423.77L365.87,424.56L366.2,425.93L367.27,425.96L367.06,426.83L366.46,427.65L366.27,428.66L365.71,429.44L364.91,429.2L364.84,427.81L363.69,427.52L363,426.21L363.58,425.87L363.96,424.84L364.75,424.28L364.41,422.96L364.01,422.42L365.08,421.29L367.4,422.96L366.95,423.55ZM452.43,394.14L452.32,394.55L450.79,394.44L450.83,393.66L448.54,393.25L448.16,392.14L447.44,392.09L447.18,391.15L446.43,390.89L445.2,390.02L446.24,389.81L446.8,389.26L448.31,388.39L449.78,388.41L450.3,389.65L450.15,390.12L451.53,391.44L451.64,392.32L452.32,393.05ZM411.47,418.06L411.34,420.23L410.66,419.84L409.21,419.79L409.1,419.33L409.49,417.75L410.23,417.67L410.22,416.88L411.07,416.44L411.6,416.82ZM432.79,399.23L432.99,399.57L432.36,400.57L431.29,400.6L429.35,401.59L428.94,401.01L429.56,400.27L429.35,399.54L428.02,399.6L427.04,398.55L428.55,398.74L428.73,398.22L427.75,397.73L426.63,397.91L426.34,396.02L426.73,395.51L427.89,396.62L428.88,396.38L429.48,397.18L429.84,396.35L430.8,396.46L431.59,397.62L432.89,398.11ZM373.48,412.1L372.5,412.82L371.26,411.5L371,411.76L370.96,413.16L369.96,412.28L369.38,412.17L368.12,412.67L367.63,412.26L366.78,410.55L366.25,410.47L365.82,409.73L364.62,408.95L364.31,407.87L363.9,404.22L364.88,403.21L366.35,402.67L368.81,402.77L369.62,403.76L370.15,403.83L371.03,404.82L370.96,407.11L371.52,407.45L371.5,408.18L372.41,409.37L372.56,410.27L373.61,410.17L374.12,410.78ZM426.21,395.19L426.26,394.84L425.44,393.92L426.81,393.07L426.62,392.26L426.08,391.72L424.98,391.62L425.94,389.78L426.77,389.06L428,389.19L428.39,389.93L427.88,390.63L427.28,392.52L428.37,392.38L429.37,392.55L430.03,393.15L430.47,394.08L429.78,394.75L428.47,394.84L427.62,394.57ZM316.59,385.02L316.8,384.45L316.07,384.03L315.63,383.33L316.06,382.66L315.95,380.72L317.1,380.74L316.97,381.39L317.19,382.92L317.78,383.17L317.87,383.96L319.11,383.8L318.78,384.83L319.77,385.62L319.47,386.57L317.99,386.99L317.58,386.19L317.06,387.25L316.2,387.27L316.35,386.03L315.9,385.38ZM408.68,397.47L408.31,399.2L407.63,399.87L405.97,399.83L404.35,399.36L404.18,399.98L402.98,399.74L402.24,400.14L401.17,399.77L399.93,398.24L399.1,396.44L400.25,395.61L400.87,394.29L401.45,395.35L402.07,395.84L403.64,395.35L405.05,394.36L406.18,393.98L407.01,394.44L408.14,393.75L409.4,394.65L409.64,395.55ZM380.09,411.84L379.41,412.04L379.02,411.33L378.84,409.85L378.43,409.49L376.92,409.38L375.53,410.34L374.31,408.69L375.44,407.65L376.38,408.84L377.53,408.54L377.64,407.55L378.74,406.49L379.51,407.4L380.63,407.14L382.16,407.64L382.52,408.51L383.74,407.76L383.76,408.87L382.44,409.13L382.88,409.75L382.63,411.04L382.03,411.12L381.13,410.68L380.47,411.07ZM321.71,413.34L321.03,413.7L319.79,413.03L318.59,413.47L317.69,413.26L316.92,413.42L316.82,411.92L317.21,411.58L317.4,410.24L317.85,410.17L318.31,411.07L318.89,411.53L320.96,411.23L321.42,411.89ZM398.93,407.94L397.25,407.89L396.78,407.52L395.83,409.15L394.56,410.94L394.39,409.67L395.66,408.77L395.56,408.18L394.34,408.41L393.83,407.51L392.17,406.65L392.76,404.73L393.7,405.15L394.43,405.07L394.87,406.16L395.03,407.16L396.15,406.98L396.65,406.29L398.46,407.24ZM395.52,397.78L396.35,397.52L396.86,398.35L397.39,400.47L397.25,401.09L396.37,402L396.11,400.86L396.31,400.18L395.45,399.98L395.53,401.27L394.51,400.63L394.23,398.01L395.03,397.01ZM387.41,401.46L387.81,402.51L387.26,403.1L387.02,404.09L387.56,404.6L387.68,405.56L386.81,405.82L386.09,405.41L385.76,406.36L385.26,406.78L383.16,406.52L382.55,405.12L381.43,405.51L381.18,404.27L382.58,402L383.23,402.62L383.81,402.39L386.41,403.5Z" class="land" id="KR-46" title="South Jeolla"/>
    <path d="M372.18,250.74L373.24,250.29L374.44,251.4L377.99,250.12L380.78,248.84L383.82,247.31L383.83,240.42L385.46,239.88L387.64,238.25L390.63,238.79L392.81,239.88L393.69,240.64L394.72,240.33L396.5,241.97L396.75,245.02L398.73,245.19L398.75,246.17L399.16,246.83L401.24,246.98L402.44,246.39L404.3,246.2L405.41,245.3L406.75,245.39L408.16,246.81L409.68,246.81L412.47,246.55L411.97,244.52L415.51,244.78L417.48,243.12L418.4,244.45L419.82,247.3L420.81,248.61L421.09,250.88L422.61,254.44L423.62,254.44L425.54,253.16L426.67,253.21L426.67,254.96L427.17,257.25L429.96,257.5L432.49,257L433.25,255.47L433.39,253.67L434.22,253.51L435.75,252.7L437.82,253.68L439.09,254.7L440.36,253.68L441.37,252.41L441.37,250.38L441.72,250.01L442.26,249.87L443.12,251.73L443.65,252.18L444.76,252.32L447.53,253.35L447.95,254.48L450.07,254.48L450.36,253.74L452.11,252.97L453.3,252.15L454.42,251.78L455.14,251.83L456.1,253.18L456.77,253.65L457.61,252.68L459,251.55L461.82,256.17L462.83,258.87L462.61,261.13L461.78,262.96L461.32,263.49L459.89,264.19L459.28,265.57L458.67,266.39L458.23,267.96L457.15,268.16L455.7,269.51L454.52,269.52L453.04,270.45L451.98,270.49L451.04,269.95L450.54,271.65L449.88,272.29L449.52,273.81L447.54,275.83L446.87,276.74L445.51,277.67L444.87,281.6L444.75,283.17L444.02,283.82L443.26,285L442.78,286.79L441.71,289.04L441.63,290.13L441.07,292.9L439.78,295.57L439.92,297.47L441.61,298.02L442.17,298.58L442.11,300.1L443.55,302.82L443.14,304.11L442.99,305.54L443.55,307.12L444.87,307.47L444.96,307.91L444.57,309.6L444.51,310.73L442.62,312.33L441.5,313.64L440.56,316.21L440.93,317.05L441,318.55L439.02,320.6L436.53,318.44L433.84,316.96L432.99,316.2L430.14,315.26L428.52,315.35L427.1,316.16L425.97,317.48L424.7,319.25L424.19,319.61L420.68,319.33L418.75,319.9L416.97,319.85L413.75,319.92L412.83,319.39L411.67,318.27L410.09,319.18L407.54,318.07L404.53,320.26L403.23,320.37L401.52,319.94L399.94,318.98L399.42,318.32L399.81,316.63L399.76,315.38L398.93,313.03L397.64,313.04L397.18,311.72L398.11,310.59L398.24,308.55L397.74,306.99L396.65,306.15L395.17,305.83L394.6,306.08L393.8,307.54L392.99,308.07L392.59,309.02L392.45,310.59L391.62,311.17L390.01,310.7L389.17,309.97L388.09,307.97L387.78,306.92L386.23,305.16L383.84,303.64L382.97,303.33L381.38,303.14L380.1,304.67L377.98,304.19L376.14,305L375.65,305.66L375.5,306.62L375.62,309.15L373.96,310.47L373.84,311.03L374.17,312.44L373.55,314.09L371.59,315.08L369.03,315.87L367.79,317.09L366.85,317.59L366.1,317.66L364.41,317.12L363.62,317.41L362.43,318.67L361.3,318.89L358.62,318.53L358.59,317.47L357.2,317.47L356.19,314.16L354.67,312.37L354.55,309.96L353.91,307.8L352.39,306.52L350.87,306.01L349.29,305.86L348.84,305.42L348.03,305.39L348.29,304.61L349.37,303.06L350.44,301.02L351.14,298.92L352.47,298.42L353.02,298.63L353.21,297.35L354.66,296.4L355.48,296.3L356.46,297.17L357.05,296.2L358.27,295.46L360.06,295.59L360.72,295.93L361.4,295.22L361.77,293.84L363.35,292.63L364.65,293.02L366.25,294.65L366.14,293.29L365.41,291.53L364.86,290.61L362.94,291L362.33,290.66L361.68,291.42L360.6,290.69L360.34,291.27L358.91,291.06L357.01,291.5L356.35,291.24L355.41,292.14L354.07,292.14L352.53,291.53L352.04,290.35L351.36,289.8L350.63,290.35L350.04,289.01L350.81,287.06L349.86,286.72L350.91,286.12L352.55,284.86L353.94,284.15L354.65,283.08L356.07,281.72L357.56,280.74L358.5,281.24L359.76,279.87L360.53,279.5L361.96,277.14L363.02,276.04L362.81,273.65L362.45,272.52L363.3,271.2L364.82,271.96L365.87,271.88L368.57,271.38L369.47,271.72L370.73,271.83L372.22,272.36L374.59,274.17L375.06,273.57L374.65,272.52L374.51,271.2L371.24,269.46L370.34,268.51L368.34,267.28L367.38,267.12L368.55,265.91L370.11,265.52L371.16,264.91L372.09,264.88L373.61,265.39L375.47,265.09L376.21,264.17L375.93,263.39L376.16,262.68L378.24,261.73L376.46,261.15L374.87,261.64L373.91,262.75L371.63,262.52L370.62,263.04L369.21,263.07L367.49,262.34L366.93,262.49L366.12,263.33L361.92,263.09L361.66,260.01L362.06,257.75L360.38,257.2L358.38,257.35L358.36,256.46L357.42,255.91L357.42,254.51L358.87,254.59L359.65,254.38L362.92,254.35L363.41,254.61L364.94,254.08L367.57,253.68L368.92,252.69L370.79,253.61L372.16,253.06L372.9,251Z" class="land" id="KR-45" title="North Jeolla"/>
    <path d="M348.11,216.26L348.9,217.69L350.18,217.83L350.05,218.59L348.9,218.49L348.76,217.99L347.41,217.62L346.09,217.64L345.77,217.16L344.79,217.51L344.26,217.29L344.23,216.43L344.83,215.97L345.53,216.34L347.22,215.58L347.88,215.58ZM348.18,150.66L348.99,150.8L349.42,151.46L349.46,152.38L347.52,152.88L346.86,151.06L347.07,150.47ZM384.83,167.31L385.63,167.27L386.3,166.28L387.64,165.61L392.45,166.61L393.77,167.05L394.45,166.55L395.21,166.55L397.78,165.6L400.23,163.91L402.33,163.85L404.76,165.01L405.85,166.48L406.97,167.5L408.31,168.08L411.57,168.34L412.3,170.32L413.89,171.15L414.61,171.88L414.8,174.05L416.43,174.68L416.35,176.66L417.23,177.04L419.57,177.04L422.1,178.83L423.12,181.88L421.85,183.41L418.81,183.16L417.54,185.45L416.53,186.72L414.8,189.59L411.84,189.59L410.75,188.86L407.01,186.66L405.62,186.48L403.73,186.58L403.07,187.77L403.36,189.22L404.16,190.13L404.68,191.4L404.6,194.04L403.8,196.14L404.39,200.15L404.82,202.33L404.82,204.15L403.43,206.69L403.29,207.97L403.87,209.51L406.07,209.97L407.38,210.79L408.11,212.32L407.82,214.51L408.63,216.05L408.33,218.23L408.48,220.59L409.13,223.04L410.81,223.22L412.01,225.53L412.21,228.23L413.99,229.75L414.25,232.55L415.51,234.34L417.54,235.1L418.3,237.65L419.32,237.65L420.08,235.86L420.08,234.34L420.58,231.79L420.33,229.24L421.6,229.24L422.1,230.51L422.1,232.04L423.88,235.1L426.92,236.88L428.69,234.58L430.47,233.57L431.42,232.8L432.12,233.12L433.69,233.6L434.53,234.3L436.81,234.08L438.33,236.62L438.58,239.17L437.56,241.46L437.82,243.75L439.6,245.28L440.86,247.83L441.62,250.12L441.37,250.38L441.37,252.41L440.36,253.68L439.09,254.7L437.82,253.68L435.75,252.7L434.22,253.51L433.39,253.67L433.25,255.47L432.49,257L429.96,257.5L427.17,257.25L426.67,254.96L426.67,253.21L425.54,253.16L423.62,254.44L422.61,254.44L421.09,250.88L420.81,248.61L419.82,247.3L418.4,244.45L417.48,243.12L415.51,244.78L411.97,244.52L412.47,246.55L409.68,246.81L408.16,246.81L406.75,245.39L405.41,245.3L404.3,246.2L402.44,246.39L401.24,246.98L399.16,246.83L398.75,246.17L398.73,245.19L396.75,245.02L396.5,241.97L394.72,240.33L393.69,240.64L392.81,239.88L390.63,238.79L387.64,238.25L385.46,239.88L383.83,240.42L383.82,247.31L380.78,248.84L377.99,250.12L374.44,251.4L373.24,250.29L372.18,250.74L370.49,252.24L368.85,251.68L366.61,251.47L366.1,251.87L365.5,251.26L366.01,249.47L365.21,247.94L364.71,247.86L364.25,247.02L363.39,247.1L363.45,244.45L363.35,242.95L362.22,242.55L361.9,243.13L360.74,240.73L359.19,239.2L358.44,239.02L357.86,239.97L356.8,238.57L354.98,237.8L353.92,237.89L353.47,238.67L353.47,240.02L352.6,239.23L352.57,237.16L353.28,237.35L354.54,237.16L355.15,236.37L355.28,235.58L355.01,234.55L355.9,233.25L356.16,232.28L355.58,230.87L355.5,229.55L356.03,228.92L356.28,227.49L356.9,226.99L355.73,224.92L355.28,223.86L354.73,224L354.19,222.64L353.43,221.54L354.24,221.27L354.75,220.61L355.98,220L357.54,218.96L355.56,217.59L354.02,216.29L353.17,215.92L352.17,216.05L351.57,215.55L352.13,214.22L352.06,213.27L352.81,211.7L353.62,211.52L354.75,210.36L355.94,210.22L356.31,209.37L357.01,209.14L358.23,209.21L358.5,207.36L358.78,206.96L359.81,207.54L359.98,206.96L358.8,206.21L357.4,207.2L356.33,207.7L355.94,208.82L355.31,208.87L355.05,210.01L354.02,210.43L353.23,211.15L352.81,210.62L352.96,209.82L352.13,209.05L352.21,207.6L351.67,206.78L351.59,205.23L351.87,203.99L352.44,203.78L352.66,202.97L353.98,201.89L353.26,201.68L352.53,202.58L351.64,201.3L350.76,200.75L350.4,200.11L350.95,198.94L350.42,197.51L350.35,196.47L349.22,195.31L346.73,194.35L346.58,193.68L345.06,193.26L343.33,193.1L342.89,192.56L342.16,193.17L340.88,193.71L339.43,195.22L338.64,195.76L338.22,196.5L337.19,196.52L336.53,195.86L337.07,195.01L336.98,193.47L337.84,192.86L337.94,191.37L337.73,190.28L337.13,188.82L336.41,188.04L335.21,188.31L334.83,186.4L334.91,185.84L335.74,185.28L335.57,184.11L336.06,182.56L335.45,182.67L334.63,183.87L332.93,183.79L332.78,184.59L333.18,185.28L332.67,185.95L331.62,186.19L330.28,187.22L329.92,188.01L329.02,187.62L326.74,187.7L326.08,185.36L327.04,184.9L327.02,184.45L327.78,183.82L328.83,184.11L330.03,185.02L331.31,184.66L331.95,183.49L329.3,181.2L329.62,180.35L328.7,179.9L327.48,179.85L326.79,180.3L325.78,179.66L325.63,180.35L326.33,180.96L326.46,182.62L325.97,182.91L324.48,184.45L324.16,183.21L324.65,181.98L325.12,181.64L324.07,180.33L324.1,179.32L323.37,178.49L324.44,178.41L326.02,176.89L326.12,176.17L325.76,175.08L326.82,174.25L326.98,173.29L326.32,172.77L326.85,171.22L328,171.99L327.59,173.05L328.11,173.89L328.15,175.19L329.02,175.59L329.56,177.32L330.07,177.61L329.64,175.45L328.96,175.06L328.79,173.96L329.37,173.59L328.49,172.71L329.4,172.07L330.03,171.16L329.83,170.31L329.04,169.14L329.53,168.58L328.7,167.43L329.43,167.4L330.07,166.87L331.24,166.39L331.56,165.83L332.82,165.51L333.04,164.95L335.63,166.36L336.88,166.31L336.58,165.43L337.26,164.37L336.94,162.85L337.02,161.35L336.38,160.36L336.75,159.59L337.45,159.59L337.98,161.05L338.22,162.52L338.03,164.68L338.96,165.88L339.39,167.01L338.86,168.63L338.07,169.62L337.47,171.91L339.18,172.29L337.49,173.62L336.38,174.01L337.49,175.21L338.28,174.42L338.9,174.76L339.6,174.04L339.73,172.95L339.26,171.99L339.71,171.37L340.18,169.8L341.48,170.04L341.14,171.43L341.59,171.72L342.16,172.84L342.87,172.68L342.12,171.19L343.27,170.4L343.3,169.3L342.78,168.58L343.79,168L345.36,168.21L345.23,166.95L345.9,166.57L347.82,166.44L347.56,165.7L346.18,165.48L347.07,162.95L346.2,162.47L344.83,163.56L344.32,163.11L344.13,162.07L341.8,161.38L341.22,159.85L342.65,159.7L344.49,159.8L344.47,159.23L343.4,158.36L342.74,158.76L340.92,158.2L340.18,158.17L339.86,157.43L341.84,156.24L344.76,155.58L347.69,155.5L348.01,155.87L348.99,155.93L349.86,156.59L350.89,156.06L350.12,154.89L352.19,152.53L351.76,152.08L352.33,150.95L353.06,150.42L354.71,151.01L355.41,152.32L356.41,153.1L357.4,153.01L359.74,154.54L362.77,156.14L364.18,156.75L366.54,156.83L368.45,156.65L368.75,157.29L372.29,158.06L373.26,158.54L374.84,158.95L374.78,160.07L375.61,161.75L375.8,162.6L376.44,163.69L377.23,164.04L377.49,166.31L378.55,167.52L380.84,168.18L382.57,167.53ZM343.3,220.39L340.88,221L340.92,220.14L341.8,219.53L342.48,219.63ZM343.53,195.49L343.68,197.12L342.57,197.48L342.8,198.25L343.63,198.46L343.91,199.9L343.72,201.12L344.53,202.08L344.47,202.72L345.71,203.96L345.88,204.87L346.32,205.34L346.2,206.82L346.9,207.99L346.07,209L346.73,209.32L347.15,210.36L348.01,210.6L347.83,211.39L348.1,212.55L347.17,213.16L345.6,213.09L344.92,212.18L343.3,213.19L342.01,211.55L342.34,210.41L340.72,210.57L340.25,208.76L340.69,208.09L340.39,207.03L340.59,204.78L340.09,204.54L340.25,203.62L339.88,203.21L340.07,200.17L339.79,199.21L338.99,197.88L338.86,196.34L339.33,196.31L339.58,195.28L341.08,193.92L342.18,193.41L342.94,194.05L343.13,195.07Z" class="land" id="KR-44" title="South Chungcheong"/>
    <path d="M441.62,250.12L440.86,247.83L439.6,245.28L437.82,243.75L437.56,241.46L438.58,239.17L438.33,236.62L436.81,234.08L434.53,234.3L433.69,233.6L432.12,233.12L431.32,232.73L430.47,229.75L431.48,224.65L432.24,220.08L433.51,218.8L434.52,218.54L433.51,216.76L432.89,216.59L433.14,215.26L431.7,214.93L431.17,214.32L430.97,212.18L428.95,210.15L426.63,212.31L426.94,210.51L425.81,210.37L425.31,210.89L424.52,212.75L423.88,212.69L423.12,210.15L422.86,208.36L419.65,208.71L419.34,208.26L418.76,208.14L417.96,209.05L419.49,204.07L418.6,203.14L419.28,201.65L419.35,200.46L416.64,200.3L416.28,199.2L416.28,196.9L413.99,194.1L415.77,193.6L416.02,191.31L414.8,189.59L416.53,186.72L417.54,185.45L418.81,183.16L421.85,183.41L423.12,181.88L422.1,178.83L419.57,177.04L417.23,177.04L416.35,176.66L416.43,174.68L414.8,174.05L414.61,171.88L413.89,171.15L412.3,170.32L411.57,168.34L413.81,168.15L415.05,167.41L416.31,167.12L418.27,165.76L420.06,165.86L420.8,164.76L421.52,164.44L421.64,161.45L423.03,160.53L423.93,160.34L425.54,159.38L426.15,158.08L426.2,157.23L427.03,156.06L428.09,155.14L428.93,156.19L429.95,156.09L429.92,157.55L431.03,155.15L434.52,155.78L435.54,155.02L437.82,152.73L439.85,152.47L440.36,146.11L441.63,146.11L442.89,147.64L444.41,147.64L445.43,144.59L446.44,142.81L446.57,142.22L448.73,141.74L449.23,144.59L451,146.11L452.52,147.13L454.3,146.37L455.27,144.91L457.94,144.76L459.83,145.7L460.73,144.64L462.39,143.98L462.74,142.52L462.15,140.89L461.93,138.69L462.31,137.87L464.63,136.14L465.45,135.73L467.26,135.66L468.92,136.09L469.49,136.71L470.51,139.46L470.32,141.53L471.32,142.19L471.93,141.83L474.03,141.27L474.71,141.23L476.41,140.16L477.7,138.71L478.16,138.66L479.45,139.17L480.66,139.45L481.21,138.22L482.12,137.46L484.12,136.98L485.18,137.56L485.72,138.21L487.45,138.56L488.65,139.97L489.32,140.21L490.89,139.94L492,139.27L493.26,139.7L493.18,140.81L491.27,143.04L489.13,144.03L488.62,144.69L489.15,146.08L490.63,147.03L491.04,147.52L492.01,146.72L493.19,146.6L494.16,145.57L496.83,145.69L498.02,145.43L498.8,146.08L498.56,147.25L498.72,148.22L499.64,148.49L500.83,150.7L501.7,150.12L502.37,150.32L504.19,150.17L505.81,149.5L506.09,149.15L507.44,149.58L509.04,151.38L510.36,151.95L513.57,152.99L516.41,152.83L517.65,154.17L518.34,154.57L516.55,156.33L515.15,155.79L513.63,157.88L511.91,158.78L510.3,160.71L509.78,161.15L507.5,161.8L506.49,163.64L505.01,164.68L503.98,165.06L503.91,165.78L502.7,166.98L502.39,168.05L500.74,170.96L500.7,172.05L501.36,172.19L502.2,173.21L502.42,174.92L501.1,176.58L500.11,178.1L499.67,178.29L497.23,178.47L496.1,179.58L494.12,179.54L492.79,179.89L492.34,179.69L491.74,178.46L491.5,177.4L490.31,175.67L487.69,174.16L486.73,172.55L485.84,173.59L485.37,175.04L484.45,175.32L484.35,176.91L483.79,178.41L480.34,177.43L479.56,177.36L478.82,176.49L477.95,176.18L476.33,177.63L475.39,179.21L474.28,179.36L472.94,177.94L472.54,178.19L472.01,179.53L471.01,181.4L470.72,182.92L470.21,183.65L472.83,187.28L472.97,187.93L472,188.01L470.18,187.56L468.27,186.65L467.28,187.12L464.59,185.79L463.64,187.7L460.95,189.69L458.8,190L458.03,190.88L457.38,192.46L457.83,193.75L457.47,194.32L455.67,195.87L454.43,197.7L453.09,197.71L451.84,198.85L451.7,199.58L452.29,200.48L453.37,200.89L456.05,201.13L457.25,201.87L457.64,202.39L457.52,203.16L457.84,204.43L459.64,205.32L459.94,205.88L459.5,207.72L457.96,208L457.61,209.09L457.85,210.22L457.84,212.02L457.3,214.21L457.78,215.18L457.78,216.24L456.74,217.89L457.59,219.51L457.81,220.54L458.21,220.78L457.87,222.02L456.99,223.37L455.24,224.76L455.11,227.12L455.18,228.25L456.25,229.53L457.48,229.5L459.7,227.63L460.42,229.09L461.9,229.45L462.61,230.42L463.89,231.69L464.57,231.61L468,230.28L468.97,230.53L470.09,231.3L469.86,232.6L470.01,233.52L470.73,235.38L471.29,235.84L471.21,236.5L470.28,236.94L469.74,236.39L468.43,236.01L466.32,236.91L465.36,238.32L465.42,239.29L466.31,240.74L465.89,241.89L465.98,243.66L464.55,244.84L464.69,245.59L463.89,246.97L463.7,248.63L462.21,250.75L461.6,251.02L460.89,250.48L459.87,250.68L459,251.55L457.61,252.68L456.77,253.65L456.1,253.18L455.14,251.83L454.42,251.78L453.3,252.15L452.11,252.97L450.36,253.74L450.07,254.48L447.95,254.48L447.53,253.35L444.76,252.32L443.65,252.18L443.12,251.73L442.26,249.87L441.72,250.01Z" class="land" id="KR-43" title="North Chungcheong"/>
    <path d="M574.38,145.27L573.19,145.35L570.91,145.86L569.39,147.64L567.36,148.4L565.08,150.44L563.81,152.22L563.81,153.24L565.08,155.53L561.28,155.53L559.77,155.67L558.77,154.59L557.61,153.81L556.27,153.27L554.28,152.77L553.09,152.65L552.29,153.23L551.02,154.7L550.21,154.54L548.66,153.5L547.71,153.12L546.21,152.95L544.98,152.56L544.04,152.54L542.27,153.15L541.71,152.07L540.32,151.51L539.56,151.99L537.96,155.02L537.2,156.04L533.9,156.04L531.11,153.75L528.83,152.47L527.19,152.63L526.66,154.51L526.75,156.47L525.85,157.39L524.66,156.61L523.35,156.26L521.79,156.47L519.29,154.76L518.34,154.57L517.65,154.17L516.41,152.83L513.57,152.99L510.36,151.95L509.04,151.38L507.44,149.58L506.09,149.15L505.81,149.5L504.19,150.17L502.37,150.32L501.7,150.12L500.83,150.7L499.64,148.49L498.72,148.22L498.56,147.25L498.8,146.08L498.02,145.43L496.83,145.69L494.16,145.57L493.19,146.6L492.01,146.72L491.04,147.52L490.63,147.03L489.15,146.08L488.62,144.69L489.13,144.03L491.27,143.04L493.18,140.81L493.26,139.7L492,139.27L490.89,139.94L489.32,140.21L488.65,139.97L487.45,138.56L485.72,138.21L485.18,137.56L484.12,136.98L482.12,137.46L481.21,138.22L480.66,139.45L479.45,139.17L478.16,138.66L477.7,138.71L476.41,140.16L474.71,141.23L474.03,141.27L471.93,141.83L471.32,142.19L470.32,141.53L470.51,139.46L469.49,136.71L468.92,136.09L467.26,135.66L465.45,135.73L464.63,136.14L462.31,137.87L461.93,138.69L462.15,140.89L462.74,142.52L462.39,143.98L460.73,144.64L459.83,145.7L457.94,144.76L455.27,144.91L454.3,146.37L452.52,147.13L451,146.11L449.23,144.59L448.73,141.74L448.97,139.49L449.23,135.67L448.72,132.88L449.99,131.85L449.73,125.74L451.26,122.43L452.52,119.13L452.78,115.82L451.19,115.24L450.79,113.7L450.86,112.8L452.36,111.29L453.1,110.01L454.35,109.77L455.21,108.61L455.43,107.65L454.39,106.39L454.08,105.28L453.58,105.13L452.26,105.42L451.56,104.78L449.71,104.26L447.81,104.37L446.14,103.83L443.29,101.15L441.11,100.89L439.64,99.7L437.77,98.87L436.81,99.13L435.4,99.93L434.15,99.63L432.67,97.69L433.43,96.55L434.09,94.82L434.34,91.24L433.08,91.69L432.47,91.58L431.43,91.98L431.27,91.11L431.52,90.33L433.27,88.82L433.72,87.82L433.24,86.27L432.64,84.95L432.65,84.22L433.31,83.36L433.15,81.93L432.62,80.95L433.1,79.71L434.94,79.1L436.4,77.41L438.53,76.95L439.32,75.96L439.38,74.74L439.91,73.3L439.86,72.27L439.24,70.01L438.06,68.71L436.43,68.4L434.65,67.55L434.58,65.35L433.27,64.72L431.25,65.14L430.34,64.89L428.74,63.89L427.72,62.59L427.13,58.56L427.14,55.29L425.99,53.68L425.39,53.61L424.4,54.53L423.83,53.75L422.7,53.27L421.49,53.43L419.56,54.09L418.58,55.24L417.41,54.42L416.6,53.23L415.49,53.06L414.84,52.54L414.26,51.43L414.27,50.47L414.71,49.56L414.92,47.74L415.81,46.99L415.38,46.63L413.74,46.31L412.6,47.37L411.23,49.33L410.66,49.54L409.25,49.46L407.91,48.79L407.5,48.01L407.59,46.18L406.78,46.43L406.64,45.55L407.14,44.03L405.88,43L405.62,40.46L405.12,38.69L401.32,38.69L401.32,37.15L402.33,36.39L400.3,34.35L398.48,32.79L399.29,31.83L401.77,30.14L402.67,29.94L404.5,30.44L407.51,29.39L409.93,27.94L412.71,28.38L414.01,29.34L415.23,29.02L416.61,29.26L417.53,28.48L419.22,28.49L420.76,27.66L421.59,27.48L423.19,27.8L425.41,29.25L426.3,28.99L428.11,29.68L429.91,30.83L430.76,30.51L434.23,28.21L436.61,27.38L437.79,27.63L438.72,28.55L439.95,28.62L441.8,28.21L443.97,28.76L445.56,27.69L446.57,27.94L448.61,27.81L450.26,27.93L451.71,26.94L452.82,27.08L453.4,28.54L454.03,29L455.04,30.32L455.61,30.58L457.03,29.79L458.49,29.64L459.15,29.27L459.83,28.03L460.59,27.83L465.32,29.31L466.76,28.95L468.46,29.48L470.33,29.55L472,30.13L474.41,29.76L475.28,29.28L476.83,27.76L477.31,27.58L478.97,27.85L480.95,26.28L481.92,25.13L482.76,24.8L483.71,23.86L484.85,23.29L486.11,21.4L487.54,20.46L490.61,17.45L492.36,13.7L492.18,12.52L492.96,10.44L492.9,8.37L492.59,5.79L492.59,2.54L493.06,1.94L495.99,0L496.82,1.81L498.68,4.14L499.4,4.43L500.04,5.86L499.6,6.89L500.08,7.98L501.03,8.8L500.55,9.86L501.3,10.46L501.36,11.87L502.18,12.5L502.02,13.19L504.37,15.85L503.45,16.27L503.41,17.65L504.52,19.67L506.49,22.39L507.92,23.97L507.38,24.21L507.87,26.31L508.9,27.4L508.88,28.59L510.09,29.89L510.75,30.23L510.5,30.9L510.75,32.12L511.37,33.13L511.43,34.81L513.14,37.15L514.2,38.89L514.1,40.33L515.66,42.28L514.91,43.01L515.32,44.54L515.19,45.29L516.1,47.06L516.96,47.76L517.75,49.33L519.22,51.1L520.2,51.69L520.78,54.16L522.05,55.73L524.07,57.68L524.75,57.65L524.55,59.3L526.9,63.01L527.61,64.34L528.97,65.31L528.9,66.18L531.57,68.91L532.51,69.69L532.17,71.26L533.68,73.42L535.73,75.36L535.92,76.56L539.98,80.87L541.06,81.88L541.49,82.6L542.9,83.93L545.58,87.22L546.35,88.48L547.19,89.4L549.11,90.93L549.7,91.63L549.53,93.45L549.02,93.8L548.59,95.04L549.02,96.11L549.91,96.86L550.21,97.59L552.37,99.56L554.32,101.09L554.61,102.57L553.92,104.64L554.87,105.99L554.61,106.55L555.74,108.17L555.67,108.79L556.85,109.51L557.59,110.59L559.62,112.71L559.9,113.38L560.52,116.82L564.44,119.88L564.51,121.71L565.04,122.14L566.06,125.87L567.32,126.81L567.96,126.56L568.44,127.53L568.31,128.54L569.69,128.65L569.97,129.51L570.54,129.73L570.33,131.2L572.06,132.78L572.48,134.29L571.69,134.63L571.66,135.46L571.99,136.35L571.31,138.06L571.76,140.42L572.62,141.22L573.51,143.41L574.02,143.95L573.72,144.59Z" class="land" id="KR-42" title="Gangwon"/>
    <path d="M334.76,95.78L334.42,96.03L333.4,95.63L331.78,93.98L331.84,93.5L332.99,93.39L334.59,93.77L334.19,94.71L334.23,95.51ZM448.73,141.74L446.57,142.22L446.44,142.81L445.43,144.59L444.41,147.64L442.89,147.64L441.63,146.11L440.36,146.11L439.85,152.47L437.82,152.73L435.54,155.02L434.52,155.78L431.03,155.15L429.92,157.55L429.95,156.09L428.93,156.19L428.09,155.14L427.03,156.06L426.2,157.23L426.15,158.08L425.54,159.38L423.93,160.34L423.03,160.53L421.64,161.45L421.52,164.44L420.8,164.76L420.06,165.86L418.27,165.76L416.31,167.12L415.05,167.41L413.81,168.15L411.57,168.34L408.31,168.08L406.97,167.5L405.85,166.48L404.76,165.01L402.33,163.85L400.23,163.91L397.78,165.6L395.21,166.55L394.45,166.55L393.77,167.05L392.45,166.61L387.64,165.61L386.3,166.28L385.63,167.27L384.83,167.31L384.31,163.96L382.97,162.85L381.39,163.11L381.03,161.59L379.6,160.49L379.37,159.67L377.77,157.34L375.93,157.07L375.27,157.26L374.93,156.22L376,155.13L375.78,154.17L375.12,153.87L372.29,153.9L372.01,152.59L372.48,151.66L373.26,151.01L373.31,149.33L373.65,147.46L373.07,145.99L373.09,145.48L373.85,144.45L374.87,143.65L375.38,144.24L376.55,143.84L377.32,142.66L378.22,142L376,142.07L376.15,140.22L374.78,140.34L374.48,140.82L372.41,140.63L371.75,142L370.73,143.41L370.02,144.06L369.11,144L368.72,144.75L367.99,144.96L367.63,145.76L366.83,143.28L367.29,142.39L367.19,141.38L366.31,141.7L365.58,141.11L364.92,139.21L364.62,139L365.57,137.8L366.42,137.5L365.93,136.5L365.95,135.73L366.7,135.09L365.95,134.6L365.58,133.85L365.69,133.02L367.02,132.89L366.89,132.3L367.61,131.39L370.62,132.11L370.79,132.89L372.26,132.22L372.95,132.19L373.05,134.12L374.03,135.94L375.53,133.77L375.87,132.4L375.5,131.53L375.97,130.56L376.91,130.53L377.12,129.81L378.6,130.18L377.51,128.06L375.01,128.33L371.05,126.91L368.75,125.3L368.19,124.63L367.38,124.68L362.11,126.51L359.51,128.33L359.57,128.87L358.67,129.81L359.62,130.34L360.41,131.44L361.43,131.39L362.2,131.77L362.7,133.97L364.84,135.06L364.44,136.4L362.81,135.38L362.39,134.26L361.92,135.89L361.96,136.74L361.08,136.7L360.31,135.84L359.51,135.49L358.93,136.02L358.42,137.12L357.73,137.45L356.71,136.97L356.37,135.28L356.47,134.15L357.76,133.83L358.03,132.14L357.67,131.84L357.42,130.64L356.17,129.54L356.14,129.06L357.73,129.6L358.38,129.4L359.45,128.25L361.83,126.43L363.48,125.95L367.91,124.33L367.46,123.88L367.68,123.1L368.64,122.94L369.28,122.25L369.9,122.3L371.5,120.95L371.82,119.72L371.26,118.91L371.88,118.35L374.1,118.49L374.34,117.61L375.27,117.1L375.55,116.58L375.36,115.11L375.93,114.47L375.91,113.5L374.21,112.26L373.22,111.14L373.03,108.72L373.12,107.85L376,104.14L378.79,106.78L379.22,107.72L379.01,108.72L379.46,109.14L379.54,111.14L380.18,112.11L381.18,111.73L382.16,111L382.91,111.51L384.68,115.65L385.11,115.75L386.58,115.16L387.56,115.57L388.57,115.33L390,115.33L390.44,114.92L392.9,113.6L394.41,113.66L395.39,113.36L395.39,114.77L395.95,115.75L397.44,114.78L398.91,114.06L400.36,113.74L401.34,113.85L402.71,112.56L403.2,111.75L404.76,109.98L404.76,109.49L403.8,109.09L403.96,107.53L404.48,106.56L406.35,105.73L406.71,105.3L405.97,102.88L405.55,102.39L404.6,103.06L402.6,103.55L401.64,104.17L400.68,104.3L400.36,102.85L401.38,100.49L401.53,99.46L400.64,98.06L400.75,97.06L399.85,95.61L399.93,92.43L399.02,91.03L397.48,90.87L396.97,91.16L395.43,91.08L394.5,90.65L393.47,91.08L393.27,91.52L391.81,92.37L391.83,93.34L390.93,94.2L390.76,95.23L390.87,96.66L390.42,97.14L388.46,97.55L386.32,97.49L385.3,98L385.11,98.49L384.98,101.02L382.46,102.37L381.03,102.53L379.56,101.7L378.43,100.29L377.41,100.02L376.57,102.05L375.63,102.85L372.53,101.79L370.44,99.86L366.47,96.87L364.78,96.72L363.57,97.75L363.07,99.04L361.7,99.63L359.7,101.25L358.95,99.99L357.78,98.72L356.99,96.03L356.2,94.74L355.86,93.77L356.28,92.83L356.24,92.15L355.31,91.53L355.78,90.4L355.48,88.43L354.83,87.73L355.45,85.22L355.54,84.27L354.62,83.06L355.2,82.28L356.07,82.2L356.56,81.24L358.2,82.56L359.28,82.91L361.1,82.98L362.69,81.4L363.59,80.97L366.04,80.83L366.82,77.12L369.12,77.12L372.16,76.35L374.44,75.6L373.43,73.81L371.66,71.52L370.64,70.75L367.8,70.08L368.2,68.55L367.81,66.87L367.25,65.24L368.07,64.46L369.38,65.92L370.9,67.19L372.42,65.66L372.68,63.46L374.63,63.39L374.95,64.14L376.22,65.41L375.2,68.97L376.47,69.99L377.74,72.03L379.51,71.01L379.51,68.97L379.77,65.66L378.25,64.9L377.99,62.87L379.26,62.1L379.51,59.05L381.79,59.05L383.57,59.55L383.82,58.03L384.83,57.26L384.33,54.72L382.81,53.7L381.59,53.18L379.01,52.93L376.47,52.93L375.46,51.16L374.95,49.88L373.43,49.12L374.44,47.85L376.22,45.05L378.5,42.75L382.81,39.96L384.83,40.97L386.61,41.48L388.9,41.48L392.06,38.24L392.88,36.74L395.03,35.07L396.02,34.57L397.4,33.26L398.48,32.79L400.3,34.35L402.33,36.39L401.32,37.15L401.32,38.69L405.12,38.69L405.62,40.46L405.88,43L407.14,44.03L406.64,45.55L406.78,46.43L407.59,46.18L407.5,48.01L407.91,48.79L409.25,49.46L410.66,49.54L411.23,49.33L412.6,47.37L413.74,46.31L415.38,46.63L415.81,46.99L414.92,47.74L414.71,49.56L414.27,50.47L414.26,51.43L414.84,52.54L415.49,53.06L416.6,53.23L417.41,54.42L418.58,55.24L419.56,54.09L421.49,53.43L422.7,53.27L423.83,53.75L424.4,54.53L425.39,53.61L425.99,53.68L427.14,55.29L427.13,58.56L427.72,62.59L428.74,63.89L430.34,64.89L431.25,65.14L433.27,64.72L434.58,65.35L434.65,67.55L436.43,68.4L438.06,68.71L439.24,70.01L439.86,72.27L439.91,73.3L439.38,74.74L439.32,75.96L438.53,76.95L436.4,77.41L434.94,79.1L433.1,79.71L432.62,80.95L433.15,81.93L433.31,83.36L432.65,84.22L432.64,84.95L433.24,86.27L433.72,87.82L433.27,88.82L431.52,90.33L431.27,91.11L431.43,91.98L432.47,91.58L433.08,91.69L434.34,91.24L434.09,94.82L433.43,96.55L432.67,97.69L434.15,99.63L435.4,99.93L436.81,99.13L437.77,98.87L439.64,99.7L441.11,100.89L443.29,101.15L446.14,103.83L447.81,104.37L449.71,104.26L451.56,104.78L452.26,105.42L453.58,105.13L454.08,105.28L454.39,106.39L455.43,107.65L455.21,108.61L454.35,109.77L453.1,110.01L452.36,111.29L450.86,112.8L450.79,113.7L451.19,115.24L452.78,115.82L452.52,119.13L451.26,122.43L449.73,125.74L449.99,131.85L448.72,132.88L449.23,135.67L448.97,139.49ZM338.09,131.06L338.67,131.15L339.79,131.87L340.54,131.31L341.65,131.74L341.05,132.73L340.26,133.11L339.13,133.05L338.37,132.38L337.85,132.49L336.32,131.82L336.58,130.8ZM343.6,92.31L341.59,93.84L340.84,94.19L339.82,93.69L339.71,92.98L340.03,91.99L338.92,90.51L337.3,89.83L336.58,88.99L336.51,88.08L336.83,87.19L336.91,85.22L337.51,84.58L339.39,83.9L340.14,84.35L339.3,86.05L339.33,87.95L341.03,89.29L342.42,89.64L343.68,90.26L343.91,90.99ZM355.94,96.98L355.9,97.43L354.79,97.75L354.13,99.1L353.36,99.16L351.57,98.34L351.36,98.89L350.35,99.58L349.14,99.37L347.82,99.53L346.01,99.28L345.72,98.78L344.7,98.62L343.68,97.65L343.8,97.05L343.14,95.16L345.45,94.87L346.02,94.15L346.15,92.93L345.79,91.37L344.68,90.29L344.56,89.19L342.12,88.54L341.84,85.3L342.18,83.12L341.8,80.12L344.66,78.64L345.22,77.12L347.14,76.99L347.6,76.34L348.41,76.53L348.99,77.53L350.16,78.79L351.89,80.1L353.68,80.95L354.24,82.23L354.11,83.06L354.9,84.27L355.11,85.32L354.32,86.49L354.22,87.49L354.94,89.1L354.52,91.48L354.79,92.21L355.71,92.58L354.94,93.45L355.22,94.74L355.64,95.3ZM331.92,83.76L330.52,82.55L330.46,82.06L331.39,81.36L331.75,80.34L331.56,79.74L331.86,78.85L333.14,77.64L334.36,77.88L335.06,77.61L336.28,78.42L337.77,79.07L338.81,79.13L339.58,78.82L340.31,79.42L340.26,80.39L339.2,81.77L337.6,82.74L335.46,82.47L334.83,82.91L333.65,82.95L332.58,84.17ZM353.13,130.05L353.51,130.77L353.3,132.04L352.49,131.82L351.83,132.78L351.89,133.56L350.48,134.6L348.03,134.53L347.9,133.13L348.11,130.29L349.31,130.43L349.63,129.22L351.7,129.49L352.44,129.38ZM327.34,134.29L326.32,135.6L323.86,136.62L323.64,135.3L322.71,135.6L321.71,135.46L321.64,132.87L322.05,132.4L322.86,130.23L323.97,131.98L325.48,133.26ZM330.19,91.45L331.07,92.31L330.6,93.01L329.7,93.07L328.62,92.01L327.4,92.1L326.68,91.26L327.72,91.1L328.57,91.39L329.6,90.16Z" class="land" id="KR-41" title="Gyeonggi"/>
    <path d="M567.05,288.97L568.21,288.78L570.5,287.27L572.62,287.02L574.35,287.72L576.59,288.43L578.01,288.77L580.38,289.11L580.93,290.3L580.91,291.42L580,292.05L580.38,293.44L580.43,294.62L579.93,295.49L579.89,296.59L578.97,297.01L579.53,297.77L579.17,298.89L578.46,299.57L578.95,300.91L578.35,301.44L576.16,301.68L576.48,300.13L575.53,299.39L575.69,298.27L575.03,296.98L573.91,295.62L573.36,295.8L574.11,296.77L574.13,297.82L574.9,298.11L575.11,299.08L574.4,299.56L575.13,300.84L574.62,301.21L574.51,302.15L573.98,302.33L573.02,303.48L572.46,303.45L571.76,302.74L571.72,304.27L572.53,305.36L573.47,305.86L573.21,306.33L572.38,306.39L572.19,307.01L572.7,308.56L572.53,309.58L571.8,310L571.72,311.41L572.51,311.65L573.08,312.85L572.76,313.24L571.72,313.53L570.84,313.27L570.5,314.08L570.01,314.06L569.27,315.68L568.39,315.72L568.18,316.69L567.24,316.59L566.56,316.15L566.69,314.92L565.88,313.55L564.79,312.46L561.56,312.46L561.3,311.55L560.27,310.29L557.76,310.12L555.95,308.59L553.17,305.34L550.52,302.59L548.57,302.42L546.34,302.42L544.52,301.57L544.25,299.69L544.25,297.63L547.03,295.23L547.03,294.03L546.62,293.01L545.84,292.05L547.7,290.65L548.4,289.93L549.67,289.41L550.92,289.5L551.46,288.79L550.36,286.77L550.18,285.9L550.66,285.5L554.04,283.4L556.57,282.57L557.89,282.81L559.99,282.27L560.88,282.61L562.34,283.81L563.98,284.07L564.77,284.55L564.96,285.22L564.61,287.55L564.84,288.17Z" class="land" id="KR-31" title="Ulsan"/>
    <path d="M431.32,232.73L431.42,232.8L430.47,233.57L428.69,234.58L426.92,236.88L423.88,235.1L422.1,232.04L422.1,230.51L421.6,229.24L420.33,229.24L420.58,231.79L420.08,234.34L420.08,235.86L419.32,237.65L418.3,237.65L417.54,235.1L415.51,234.34L414.25,232.55L413.99,229.75L412.21,228.23L411.97,224.91L413.74,222.87L413.49,215.75L415.49,215.12L416.28,215.23L419.06,213.97L419.82,211.67L420.09,208.99L419.84,208.96L419.65,208.71L422.86,208.36L423.12,210.15L423.88,212.69L424.52,212.75L425.31,210.89L425.81,210.37L426.94,210.51L426.63,212.31L428.95,210.15L430.97,212.18L431.17,214.32L431.7,214.93L433.14,215.26L432.89,216.59L433.51,216.76L434.52,218.54L433.51,218.8L432.24,220.08L431.48,224.65L430.47,229.75Z" class="land" id="KR-30" title="Daejeon"/>
    <path d="M394.9,330.78L394.9,331.92L394.19,333.4L394.12,335.54L393.48,336.89L392.35,338.39L390.86,339.66L389.59,340.3L387.05,339.8L385.84,340.66L382.73,340.66L381.1,341.51L379.97,342.29L376.92,342.29L376.15,341.15L375.37,339.16L373.88,337.32L371.9,337.1L368.01,336.46L367.66,333.12L368.22,331.06L368.58,329.21L369.99,327.51L371.9,327.58L372.47,326.44L372.89,324.94L373.6,323.24L375.37,323.32L375.87,325.09L377.06,326.23L378.77,326.8L379.97,326.73L381.59,325.02L383.22,324.16L385.2,323.38L387.18,323.46L388.67,324.16L390.25,326.07L390.58,327.08L390.58,328.29L391.08,329.78L393.2,329.99Z" class="land" id="KR-29" title="Gwangju"/>
    <path d="M346.54,117.12L346.62,117.79L347.26,118L347.9,119.05L348.79,119.48L348.63,120.47L348.11,121.22L346.84,121.57L346.3,120.53L346.15,119.24L345.19,118.99L345.75,117.33ZM338.58,102.57L340.01,103.3L340.78,103.38L341.31,104.75L342.46,105.1L344.34,104.67L344.13,105.85L342.46,105.5L341.71,105.85L340.91,105.56L339.96,105.82L339.95,104.37L338.51,103.05ZM354.54,105.16L355.62,106.07L356.82,106.71L358.03,106.93L358.48,107.68L359.16,108L359.51,109.51L358.78,109.83L358.2,110.54L356.9,110.72L356.05,110.13L355.24,111.15L353.51,111.93L352.1,113.76L348.84,116.15L347.58,115.98L346.9,116.23L346.79,115L345.36,113.79L344.1,114.4L343.17,113.06L342.18,112.17L342.37,111.04L343.72,111.01L346.92,108.73L349.72,108.47L351.44,108.52L352.53,107.74L353.09,105.53ZM359.7,101.25L361.7,99.63L363.07,99.04L363.57,97.75L364.78,96.72L366.47,96.87L370.44,99.86L372.53,101.79L375.63,102.85L375.53,103.88L376,104.14L373.12,107.85L373.03,108.72L373.22,111.14L374.21,112.26L375.91,113.5L375.93,114.47L375.36,115.11L375.55,116.58L375.27,117.1L374.34,117.61L374.1,118.49L372.48,118L371.88,117.6L370.26,119.85L367.36,119.45L364.94,122.67L364.37,123.23L360.64,123.35L360.66,122.49L362.43,122.49L362.06,123.16L364.37,123.16L364.82,122.75L367.29,119.48L366.2,119.13L364.62,117.66L363.69,116.07L363.37,114.19L362.83,115.29L361.64,115.21L361.93,114.53L361.54,113.94L360.34,114.05L360.44,112.6L360.28,111.87L361.13,109.94L361.85,108.84L361.73,105.94L361.26,105.94L361.32,103.11L360.11,102.43Z" class="land" id="KR-28" title="Incheon"/>
    <path d="M509.42,286.23L509.26,286.35L508.79,287.06L508.35,289.72L507.25,290.47L504.96,289.64L504.05,290.04L501.22,292.08L499.26,292.13L498.66,289.33L497.14,287.29L495.37,285.26L495.62,282.96L497.14,283.47L498.41,284.49L500.18,284.49L500.69,282.46L499.42,281.19L498.15,279.65L500.18,274.82L504.49,274.05L504.24,272.53L501.96,270.75L498.15,270.49L498.41,267.95L499.42,265.65L501.2,263.1L502.97,262.6L504.49,261.58L505,266.16L507.02,266.16L507.78,263.61L508.8,261.32L509.82,259.54L511.59,259.04L514.63,258.52L516.92,255.97L519.7,255.21L522.24,255.47L523.76,256.48L525.28,258.01L525.28,261.58L525.79,264.13L527.31,267.43L526.55,269.21L523.76,270.24L522.49,273.04L522.49,275.59L520.46,275.84L520.46,277.36L521.48,278.64L521.48,281.95L518.69,282.96L517.42,284.49L515.14,284.24L514.63,281.95L512.1,281.95L510.33,282.96L509.05,285Z" class="land" id="KR-27" title="Daegu"/>
    <path d="M566.56,316.15L565.83,316.4L565.04,317.87L565.3,318.92L564.66,321.14L563.95,321.09L563.87,321.84L564.66,322.5L564.7,323.44L563.72,325.34L562.27,326.65L562.91,327.77L562.48,328.16L562.46,329.18L561.8,329.02L561.37,329.62L560.56,329.73L560.09,331.53L559.18,332.1L558.19,331.64L557.34,331.68L556.93,332.37L556.17,332.13L554.55,332.08L554.21,332.31L554.25,333.46L555.08,335.86L554.65,337.48L553.91,336.98L553.09,337.4L552.1,336.93L551.04,336.98L550.34,336.51L550.68,335.1L550.11,334.74L549.64,335.39L548.66,335.8L548.59,336.59L547.27,338L547.1,339.46L546.44,339.54L546.78,340.53L546.04,340.55L545.46,338.99L544.65,338.88L544.97,340.89L545.39,342.04L544.62,342.37L544.5,341.18L543.71,340.89L542.67,342.53L542.03,341.83L541.36,339.12L541.71,337.92L541.81,336.64L541.34,336.59L541.06,338L540.12,338.62L539.51,337.92L538.63,338.28L538.46,339.22L537.12,339.22L537.52,336.93L537.52,336.12L537.95,335.52L537.1,335.21L536.71,336.43L536.63,338.24L536.31,339.22L535.09,338.81L532.7,338.81L532.55,338.37L531.29,338.05L530.03,338.18L529.48,339.07L528.46,338.84L529.33,337.4L528.95,336.64L529.2,335.53L529.36,335.15L531.35,334.33L534.83,333.39L534.95,330.47L535.18,329.31L537.04,329.07L540.18,327.09L543.56,326.97L544.72,325.69L545.41,324.05L546.86,322.94L547.94,322.38L548.82,321.61L550.07,320.91L551.56,321.17L552.4,320.07L553.09,317.86L554.48,315.75L556.58,315.4L558.44,315.28L558.91,313.77L560.42,312.13L561.3,311.55L561.56,312.46L564.79,312.46L565.88,313.55L566.69,314.92ZM549.75,337.03L551.26,338.34L551.03,339.67L551.88,340.61L552.6,340.99L552.2,341.89L551.47,341.89L551.22,341.05L550.58,341.13L550.11,340.08L549.04,339.75L548.13,338.99L547.57,338.21L548.26,337.4Z" class="land" id="KR-26" title="Busan"/>
    <path d="M376,104.14L375.53,103.88L375.63,102.85L376.57,102.05L377.41,100.02L378.43,100.29L379.56,101.7L381.03,102.53L382.46,102.37L384.98,101.02L385.11,98.49L385.3,98L386.32,97.49L388.46,97.55L390.42,97.14L390.87,96.66L390.76,95.23L390.93,94.2L391.83,93.34L391.81,92.37L393.27,91.52L393.47,91.08L394.5,90.65L395.43,91.08L396.97,91.16L397.48,90.87L399.02,91.03L399.93,92.43L399.85,95.61L400.75,97.06L400.64,98.06L401.53,99.46L401.38,100.49L400.36,102.85L400.68,104.3L401.64,104.17L402.6,103.55L404.6,103.06L405.55,102.39L405.97,102.88L406.71,105.3L406.35,105.73L404.48,106.56L403.96,107.53L403.8,109.09L404.76,109.49L404.76,109.98L403.2,111.75L402.71,112.56L401.34,113.85L400.36,113.74L398.91,114.06L397.44,114.78L395.95,115.75L395.39,114.77L395.39,113.36L394.41,113.66L392.9,113.6L390.44,114.92L390,115.33L388.57,115.33L387.56,115.57L386.58,115.16L385.11,115.75L384.68,115.65L382.91,111.51L382.16,111L381.18,111.73L380.18,112.11L379.54,111.14L379.46,109.14L379.01,108.72L379.22,107.72L378.79,106.78Z" class="land" id="KR-11" title="Seoul"/>
    <path d="M414.8,189.59L416.02,191.31L415.77,193.6L413.99,194.1L416.28,196.9L416.28,199.2L416.64,200.3L419.35,200.46L419.28,201.65L418.6,203.14L419.49,204.07L417.96,209.05L418.76,208.14L419.34,208.26L419.19,209.3L419.84,208.96L420.09,208.99L419.82,211.67L419.06,213.97L416.28,215.23L415.49,215.12L413.49,215.75L413.74,222.87L411.97,224.91L412.01,225.53L410.81,223.22L409.13,223.04L408.48,220.59L408.33,218.23L408.63,216.05L407.82,214.51L408.11,212.32L407.38,210.79L406.07,209.97L403.87,209.51L403.29,207.97L403.43,206.69L404.82,204.15L404.82,202.33L404.39,200.15L403.8,196.14L404.6,194.04L404.68,191.4L404.16,190.13L403.36,189.22L403.07,187.77L403.73,186.58L405.62,186.48L407.01,186.66L410.75,188.86L411.84,189.59Z" class="land" id="KR-50" title="Sejong"/>
  </g>
</svg>