<?xml version="1.0" encoding="UTF-8"?>
<svg xmlns="http://www.w3.org/2000/svg" width="569.71" height="519.3" viewBox="195.14 -2.65 569.71 519.3" style="background-color:#000000">
  <!-- Created using SVG Map Generator: dojo.amcharts.com/svg-map-generator -->
  <style>
    .land { fill: #ffffff; stroke: #000000; stroke-width: 0.65; }
  </style>
  <g id="polygons">
    <path d="M672.98,182.71L662.15,181.25L650.56,181.31L641.66,180.35L629.87,177.22L624.02,173.92L553.06,103.73L549.73,99.47L543.27,87.03L538.35,81L527.91,76.72L519.81,76.54L514.83,70.03L512.29,62.54L531.43,59.31L536.34,57.4L546.45,56.18L564.27,47.62L567.25,45.01L575.22,43.11L597.04,29.29L606.22,27.39L619.93,19.84L626.2,17.41L632.03,18.9L640.48,17L659.12,20.43L663.25,23.47L667.72,21.81L687.22,21.78L700.49,18.28L709.08,17.74L727.45,13.26L738.57,7.58L741.38,3.69L748.13,0L755.64,2.42L759.89,6.02L758.17,11.63L762.21,23.09L741.01,45.33L724.35,65.18L715,73.33L704.69,76.05L680.61,80.57L678.99,81.86L669.71,98.34L669.48,108.09L666.61,130.05L677.05,153.04L678.17,174.46Z" class="land" id="SY-HA" title="Al Ḩasakah"/>
    <path d="M576.09,338.53L559.87,314.3L511.75,245.12L512.64,236.87L505.57,221.97L495.55,214.14L532.44,159.98L527.51,157.89L543.27,87.03L549.73,99.47L553.06,103.73L624.02,173.92L629.87,177.22L641.66,180.35L650.56,181.31L662.15,181.25L672.98,182.71L668.7,189.5L668.04,200.04L665.29,210.38L663.22,226.3L664.89,262.25L656.55,274.73L645.77,299.88L611.09,318.69Z" class="land" id="SY-DY" title="Dayr az Zawr"/>
    <path d="M323.68,182.71L319.49,189.5L314.76,192.22L311.88,197.9L315.84,203.76L312.33,206.97L306.08,206.5L305,195.61L300.7,202.2L297.03,202.96L290.84,196.65L281.33,199.28L266.02,197.66L261.61,193.46L256.17,194.42L253.81,188.12L253.69,179.02L255.53,165.96L250.55,165.59L248.97,162.51L242.1,161.34L244.81,157.52L234.34,158.19L233.05,153.2L236.01,153.01L235.83,146.09L238.53,140.87L244.15,140.52L247.39,135.35L251.74,136.33L254.23,126.99L252.44,118L262.51,111.15L277.74,111.7L280.38,108.97L277.24,102.76L284.07,100.77L288.83,106.07L291.45,112.71L282,122.17L284.07,126.16L294.88,131.96L295.81,138.99L305.63,154.93L312.91,159.12L313.46,162.81L310.04,165.56L313.02,175.16L319.78,181.08Z" class="land" id="SY-ID" title="Idlib"/>
    <path d="M268.91,424.93L264.32,415.33L255.55,420.34L252.49,424.77L249.45,424.06L240.42,415.22L237.99,422.43L227.72,423.84L220.27,426.52L217.23,423.98L217.11,419.19L213.6,418.77L209.61,413.01L210.32,406.46L212.64,400.69L216.15,397.45L216.46,391.87L222.65,390.05L225.54,384.39L215.98,378.69L222.73,366.76L227.27,361.91L234.46,358.5L240.69,360.34L242.33,358.45L251.17,361.5L251.71,356.43L245.72,353.04L248.99,346.33L258.17,337.65L261.26,338.65L269.5,329.26L274.29,321.42L278.72,320.42L286.97,322.36L294.04,319.39L302.31,329.59L309.45,340.95L320.81,347.74L326.09,347.93L332.27,358.53L351.55,375.84L354.85,384.03L360.08,390.98L369.27,397.61L376.67,399.77L385.54,405.9L393.61,413.61L413.7,428.91L417.45,432.54L347.85,476.64L329.87,459.31L328.38,451.99L316.81,447.75L314.19,441.63L309.29,438.83L304.2,438.33L297.52,429.67L296.82,427.13L290.24,421.86ZM254.57,384.77L246.1,384.51L245.04,388.96L248.52,393.13L254.5,392.95Z" class="land" id="SY-RD" title="Rīf Dimashq"/>
    <path d="M323.68,182.71L319.78,181.08L313.02,175.16L310.04,165.56L313.46,162.81L312.91,159.12L305.63,154.93L295.81,138.99L294.88,131.96L284.07,126.16L282,122.17L291.45,112.71L288.83,106.07L284.07,100.77L277.24,102.76L273.21,101.23L273.31,94.65L270.46,93.96L267.4,83.06L271.75,74.82L270.7,67.32L274.52,61.5L273.43,57.05L278.02,50.26L283.18,48.88L297.07,53.81L300.61,53.44L310.13,60.69L307.7,66.21L313.05,70.12L315.67,66.33L327.93,65.75L345.42,68.6L360.91,58.71L372.46,56.89L388.18,49.52L393.65,48.42L396.16,45.24L406.66,40.11L411.63,39.41L423.99,41.14L437.98,47.34L443.71,53.35L445.28,62.92L439.06,65.95L441.81,71.09L447.07,69.53L446.91,78.22L444.15,90.38L439.03,97.12L425.63,105.43L408.82,107.5L401.79,110.69L395.33,121L395.6,128.09L405.59,139.11L403.73,145.13L398.09,152.28L393.69,163.3L392.03,174.76L398.52,183.05L410.1,194.75L394.37,195.49L375,194.97L365.38,193.7L353.53,186.56L334.86,187.83Z" class="land" id="SY-HL" title="Ḩalab"/>
    <path d="M415.77,200.32L410.1,194.75L398.52,183.05L392.03,174.76L393.69,163.3L398.09,152.28L403.73,145.13L405.59,139.11L395.6,128.09L395.33,121L401.79,110.69L408.82,107.5L425.63,105.43L439.03,97.12L444.15,90.38L446.91,78.22L447.07,69.53L441.81,71.09L439.06,65.95L445.28,62.92L443.71,53.35L451.57,60.94L456.14,62.11L482.28,62.35L494.31,65.74L504.28,63.14L512.29,62.54L514.83,70.03L519.81,76.54L527.91,76.72L538.35,81L543.27,87.03L527.51,157.89L532.44,159.98L495.55,214.14L485.63,210.24L476.67,208.58L466.33,205.01L448.11,201.3L434.53,199.71L421.64,199.48Z" class="land" id="SY-RA" title="Ar Raqqah"/>
    <path d="M233.05,153.2L234.34,158.19L244.81,157.52L242.1,161.34L237.15,169.36L239.52,176.99L237.5,195.46L241.67,211.99L241.92,216.84L238.16,214.81L234.37,216.55L222.36,217.36L214.79,213.29L212.31,195.01L197.79,181.7L202.21,174.13L203.38,168.74L207.32,162.7L204.51,151.66L210.31,148.99L211.96,144.04L220.61,141.98L222.07,148.24L230.36,149.88Z" class="land" id="SY-LA" title="Al Lādhiqīyah"/>
    <path d="M242.1,161.34L248.97,162.51L250.55,165.59L255.53,165.96L253.69,179.02L253.81,188.12L256.17,194.42L261.61,193.46L266.02,197.66L281.33,199.28L290.84,196.65L297.03,202.96L300.7,202.2L305,195.61L306.08,206.5L312.33,206.97L315.84,203.76L311.88,197.9L314.76,192.22L319.49,189.5L323.68,182.71L334.86,187.83L353.53,186.56L365.38,193.7L375,194.97L394.37,195.49L410.1,194.75L415.77,200.32L415.56,214.18L411.43,222.15L410.8,230.91L398.09,236.38L394.68,239.57L391.97,248.23L388.55,250.21L384.26,244.38L377.59,238.74L374.69,230.85L368.02,227.68L354.07,231.02L347.7,236.32L348.08,242.92L339.45,241.38L330.1,243.55L328,248.35L322.6,246.07L314,247.57L303.87,254.38L297.84,243.57L293.85,242.3L287.96,245.33L282.73,245.3L275.56,249.06L266.21,249.98L261.82,245.39L256.14,255.85L247.08,250.16L242.24,242.87L233.3,242.92L235,239.43L242.24,235.6L243.15,231.8L241.92,216.84L241.67,211.99L237.5,195.46L239.52,176.99L237.15,169.36Z" class="land" id="SY-HM" title="Ḩamāh"/>
    <path d="M417.45,432.54L413.7,428.91L393.61,413.61L385.54,405.9L376.67,399.77L369.27,397.61L360.08,390.98L354.85,384.03L351.55,375.84L332.27,358.53L326.09,347.93L320.81,347.74L309.45,340.95L302.31,329.59L294.04,319.39L286.97,322.36L278.72,320.42L274.29,321.42L272.05,320.35L266.6,304.77L268.73,301.09L261.19,295.46L259.51,291.4L250.51,291.54L254.27,287.29L256.43,280.46L249.82,272.14L245.47,277.7L230.04,277L230.32,274.81L238.26,261.24L243.75,256.3L247.08,250.16L256.14,255.85L261.82,245.39L266.21,249.98L275.56,249.06L282.73,245.3L287.96,245.33L293.85,242.3L297.84,243.57L303.87,254.38L314,247.57L322.6,246.07L328,248.35L330.1,243.55L339.45,241.38L348.08,242.92L347.7,236.32L354.07,231.02L368.02,227.68L374.69,230.85L377.59,238.74L384.26,244.38L388.55,250.21L391.97,248.23L394.68,239.57L398.09,236.38L410.8,230.91L411.43,222.15L415.56,214.18L415.77,200.32L421.64,199.48L434.53,199.71L448.11,201.3L466.33,205.01L476.67,208.58L485.63,210.24L495.55,214.14L505.57,221.97L512.64,236.87L511.75,245.12L559.87,314.3L576.09,338.53L515.07,373.58L458.4,407.01Z" class="land" id="SY-HI" title="Ḩimş"/>
    <path d="M214.79,213.29L222.36,217.36L234.37,216.55L238.16,214.81L241.92,216.84L243.15,231.8L242.24,235.6L235,239.43L233.3,242.92L242.24,242.87L247.08,250.16L243.75,256.3L238.26,261.24L230.32,274.81L230.04,277L217.97,276.77L214.76,267.42L214.24,262.32L208.82,249.28L210.1,241.11L211.84,239.19L210.93,228.9L216.5,219.86Z" class="land" id="SY-TA" title="Ţarţūs"/>
    <path d="M254.57,384.77L254.5,392.95L248.52,393.13L245.04,388.96L246.1,384.51Z" class="land" id="SY-DI" title="Dimashq"/>
    <path d="M209.61,413.01L213.6,418.77L217.11,419.19L217.23,423.98L216.38,428.57L218.88,431.61L215.88,441.88L219.18,447.35L214.87,448.68L215.6,453.5L213.13,455.88L210.91,442.73L211.29,436.95L214.97,430.41L210.51,426.03L211.35,419.76L208.64,416.68Z" class="land" id="SY-QU" title="Al Qunayţirah"/>
    <path d="M213.13,455.88L215.6,453.5L214.87,448.68L219.18,447.35L215.88,441.88L218.88,431.61L216.38,428.57L217.23,423.98L220.27,426.52L227.72,423.84L237.99,422.43L240.42,415.22L249.45,424.06L252.49,424.77L255.55,420.34L264.32,415.33L268.91,424.93L263.75,425.58L260.39,429.47L261.94,438.72L265.57,438.96L265.78,444.6L255.76,445.19L249.7,449.77L249,454.91L251.36,461.76L251.81,470.51L250.79,474.76L257.7,476.61L258.36,479.86L254.21,482.43L254.25,487.1L262.48,488.5L262.34,492.89L265.21,496.86L264.04,509.57L255.24,507L249.03,500.92L237.93,492.3L228.19,493.36L223.81,480.81L219.94,478.9L215.12,472.58L203.89,470.71Z" class="land" id="SY-DR" title="Dar'ā"/>
    <path d="M268.91,424.93L290.24,421.86L296.82,427.13L297.52,429.67L304.2,438.33L309.29,438.83L314.19,441.63L316.81,447.75L328.38,451.99L329.87,459.31L347.85,476.64L301.61,506.14L292.25,514L283.13,512L264.04,509.57L265.21,496.86L262.34,492.89L262.48,488.5L254.25,487.1L254.21,482.43L258.36,479.86L257.7,476.61L250.79,474.76L251.81,470.51L251.36,461.76L249,454.91L249.7,449.77L255.76,445.19L265.78,444.6L265.57,438.96L261.94,438.72L260.39,429.47L263.75,425.58Z" class="land" id="SY-SU" title="As Suwaydā'"/>
  </g>
</svg>