<?xml version="1.0" encoding="UTF-8"?>
<svg xmlns="http://www.w3.org/2000/svg" width="713.88" height="519.3" viewBox="123.06 -2.65 713.88 519.3" style="background-color:#000000">
  <!-- Created using SVG Map Generator: dojo.amcharts.com/svg-map-generator -->
  <style>
    .land { fill: #ffffff; stroke: #000000; stroke-width: 0.65; }
  </style>
  <g id="polygons">
    <path d="M259.45,298.29L253.31,300.88L251.76,304.33L249.85,302.8L249.33,296.2L250.57,293.94L255.41,291.7L255.66,294.53L258.61,296.54Z" class="land" id="TJ-DU" title="Dushanbe"/>
    <path d="M405.72,302.52L403.89,305.28L396.64,311.55L396.32,317.79L397.95,322.24L395.66,331.68L396.58,335.49L396.8,340.33L395.34,347.47L389.84,357.29L390.27,360.32L392.06,362.31L388.86,366.76L382.76,369.35L380.08,369.26L381.15,374.21L380.24,375.24L381.5,378.83L384.59,380.68L387.11,380.59L390.12,383.21L390.06,386.83L391.58,388.29L390.77,393.96L392.32,396.87L390.6,397.65L388.45,403.26L389.02,405.31L384.18,406.78L384.75,408.74L383.06,411.19L377.52,416.44L374.9,416.44L368.12,413.34L366.36,413.67L364,410.89L359.88,410.68L359.08,406.5L355.71,405.66L351.74,405.87L348.93,407.82L347.59,410.43L340.83,408.7L336.52,410.22L326.53,410.19L321.79,408.39L318.34,414.75L312.41,420.18L310.71,423.91L307.37,426.5L307,432.11L308.17,436.31L307.87,438.8L309.6,441.85L311.29,446.66L310.85,449.11L314.09,449.95L309.55,457.36L306.64,457.55L303.56,460.45L302.69,462.58L299.51,463.25L295.93,465.53L292.14,461.39L283.66,456.2L280.88,450.5L275.84,446.96L270.33,439.96L267.54,438.92L263.24,438.99L263.74,441.44L266.1,444.63L262.99,445.16L260.85,441.57L257.73,439.91L255.86,441.26L255.84,444.86L252.53,443.43L248.59,445.74L244.12,444.42L240.9,448.82L240.31,452.68L233.14,454.89L229.29,457.88L226.57,457.55L224.77,459.69L221.15,459.35L220.06,462.22L217.23,465.27L213.07,464.09L209.39,464.58L208.03,466.81L207.51,472.69L205.66,475.59L201.09,473.84L199.43,474.02L193.03,478.49L189.83,482.11L183.93,484.51L181.56,483.37L179.8,478.93L175.44,477.33L173.05,475L172.74,470.89L170.79,468.98L165.68,468.69L161.73,466.13L162.75,456.97L164.93,449.55L166.05,436.31L165.53,428.33L165.62,423.24L167.97,415.53L171.12,412.49L175.72,402.8L180.27,396.9L182.96,394.95L185.24,391.67L191.5,378.23L193.12,375.37L201.14,373.99L206.07,371.64L207.93,373.03L213.76,373.7L222.87,373.75L225,377.35L227.62,378.45L231.19,377.51L231.14,373.75L232.75,368.23L234.54,367.29L236.02,363.54L236.76,358.07L235.76,357.01L228.27,355.85L227.35,354.14L228,350.76L236.5,336.3L234.58,332.2L237.98,327.99L238.37,326.16L242.25,326.21L250.27,321.74L251.71,321.3L253.24,321.24L256.11,324.01L261.6,322.24L264.69,317.19L270.79,316.97L272.66,314.19L277.5,315.24L279.37,316.85L283.74,315.74L285.62,317.02L284.88,322.36L286.4,325.52L296.12,328.96L298.95,332.46L305.91,333L311.45,329.68L316.99,327.46L320.34,318.63L323.43,317.63L324.05,316.14L324,310.74L325.57,308.12L329.4,305.68L332.84,299.02L336.85,294.46L338.38,290.89L341.56,290.4L344.21,294.01L347.18,292.46L351.83,284.64L356.06,280.07L360.9,278.45L363.47,276.55L366.74,276.95L372.58,282.25L375.41,286.38L379.2,288.22L380.15,291.51L378.59,296.52L381.29,296.68L386.09,292.12L390.74,292.28L397.85,291.56L399.98,294.01L402.98,295.51L403.99,299.36Z" class="land" id="TJ-KT" title="Khatlon"/>
    <path d="M570.46,223.65L570.46,227.2L569.48,229.66L557.98,241.36L556.57,247.6L553.79,252.36L550.03,254.61L548.42,261.94L551.86,270.19L553.65,272.56L550.22,273.89L549.73,275.99L544.94,281.08L543.25,281.91L535.35,281.98L533.34,282.83L530.73,286.59L528.06,286.59L526.1,289.87L521.41,289.1L515.92,291.88L511.57,291.43L510.32,293.03L509.45,297.07L506.29,298.12L504.82,304.94L499.43,305L496.65,309.95L493.61,305.98L488.75,306.19L486.58,309.03L482.12,309.24L480.75,305.7L477.48,304.38L476.06,296.45L472.31,294.85L468,295.89L459.51,295.96L461.36,288.67L461.63,283.24L459.4,280.66L457.06,272.29L451.83,272.15L446.61,275.71L446.06,277.17L436.58,277.38L435.23,276.75L435.28,272.91L432.56,271.31L430.02,272.98L425.28,274.31L416.68,283.18L419.9,285.62L420.6,288.05L418.7,291.64L415.1,295.41L409.76,296.93L408.08,301.32L405.72,302.52L403.99,299.36L402.98,295.51L399.98,294.01L397.85,291.56L390.74,292.28L386.09,292.12L381.29,296.68L378.59,296.52L380.15,291.51L379.2,288.22L375.41,286.38L372.58,282.25L366.74,276.95L363.47,276.55L360.9,278.45L356.06,280.07L351.83,284.64L347.18,292.46L344.21,294.01L341.56,290.4L338.38,290.89L336.85,294.46L332.84,299.02L329.4,305.68L325.57,308.12L324,310.74L324.05,316.14L323.43,317.63L320.34,318.63L316.99,327.46L311.45,329.68L305.91,333L298.95,332.46L296.12,328.96L286.4,325.52L284.88,322.36L285.62,317.02L283.74,315.74L279.37,316.85L277.5,315.24L272.66,314.19L270.79,316.97L264.69,317.19L261.6,322.24L256.11,324.01L253.24,321.24L251.71,321.3L250.27,321.74L242.25,326.21L238.37,326.16L237.98,327.99L234.58,332.2L236.5,336.3L228,350.76L227.35,354.14L228.27,355.85L235.76,357.01L236.76,358.07L236.02,363.54L234.54,367.29L232.75,368.23L231.14,373.75L231.19,377.51L227.62,378.45L225,377.35L222.87,373.75L213.76,373.7L207.93,373.03L206.07,371.64L207.53,366.11L207.38,362.98L210.63,356.82L215.19,352L215.47,349.56L218.14,340.01L218.18,338.45L214.55,332.1L210.65,327.08L202.71,322.87L202.14,318.6L199.34,313.82L196.03,311.97L192.21,313.23L191.8,311.2L194.37,306.1L192.39,304.49L187.6,298.09L188.26,287.55L189.2,285.55L186.65,278.73L189.17,276.32L193.02,274.59L188.01,267.28L188.71,266.17L195.7,264.74L199.36,261.66L198.78,257.36L199.55,256.18L204.37,256.11L207.91,253.52L211.51,253.03L214.72,254.78L217.6,252.96L228,251.63L229.8,247.37L233.12,246.04L234.81,239.94L246.06,239.94L249.05,237.91L250.63,235.66L252.7,235.73L253.84,239.1L257.92,238.04L266.86,238.25L278.18,241.48L281.67,240.57L288.31,234.82L294.33,233.28L305.66,233.63L306.64,225.49L307.62,224.01L311.86,223.45L313.6,224.5L317.9,222.54L320.36,223.52L323.19,227.09L323.84,233.35L325.53,235.1L328.96,232.85L331.95,232.99L333.37,228.99L336.26,224.99L336.96,218.04L334.74,215.44L335.82,212.06L341.87,209.81L346.53,214.35L351.42,210.83L354.31,207.1L360.41,206.89L365.47,205.91L367.49,207.6L368.85,205.69L373.75,204.14L375.39,205.07L376.64,208.86L378.97,206.6L388.5,202.59L389.87,199.78L392.86,198.93L395.48,200.34L399.98,199.7L408.86,197.6L411.69,194.15L415.99,193.94L418.88,192.87L421.21,188.64L428.73,184.2L432.64,186.61L434.08,189.51L434.69,196.99L436.56,198.17L443.15,197.69L447.9,198.9L452.21,193.32L455.33,196.54L458.79,196.44L461.97,195.24L463.33,193.09L463.04,188.58L464.13,185.16L467.6,183.81L473.62,183.73L479.59,179.27L482.17,182.93L484.08,182.29L486.54,178.9L486.64,176.91L488.97,176.01L493.87,176.62L501.59,171.58L506.36,174.69L506.99,179.69L505.7,184.46L507.4,190.42L514.56,192.19L520.63,190.27L525.56,190.21L527.91,191.78L529.5,196.59L528.8,199.85L525.23,202.77L524.82,205.92L527.33,210.39L529.33,211.87L533.36,210.74L538.28,211.67L540.02,211.09L543.61,205.05L548.56,202.75L550.71,200.89L552.82,202.62L553.45,206.12L555.28,210.5L557.22,212.94L562.86,213.3L567.1,218.62L567.59,222.5ZM259.45,298.29L258.61,296.54L255.66,294.53L255.41,291.7L250.57,293.94L249.33,296.2L249.85,302.8L251.76,304.33L253.31,300.88Z" class="land" id="TJ-RA" title="nohiyahoi tobei jumhurí"/>
    <path d="M423.78,142.24L426.61,142.73L430.3,141.98L432.03,145.27L428.78,147.53L425.42,147.22L424.31,152.3L422.69,153.23L420.55,151.31L419.05,147.34L411.63,143.48L412.95,140ZM428.73,184.2L421.21,188.64L418.88,192.87L415.99,193.94L411.69,194.15L408.86,197.6L399.98,199.7L395.48,200.34L392.86,198.93L389.87,199.78L388.5,202.59L378.97,206.6L376.64,208.86L375.39,205.07L373.75,204.14L368.85,205.69L367.49,207.6L365.47,205.91L360.41,206.89L354.31,207.1L351.42,210.83L346.53,214.35L341.87,209.81L335.82,212.06L334.74,215.44L336.96,218.04L336.26,224.99L333.37,228.99L331.95,232.99L328.96,232.85L325.53,235.1L323.84,233.35L323.19,227.09L320.36,223.52L317.9,222.54L313.6,224.5L311.86,223.45L307.62,224.01L306.64,225.49L305.66,233.63L294.33,233.28L288.31,234.82L281.67,240.57L278.18,241.48L266.86,238.25L257.92,238.04L253.84,239.1L252.7,235.73L250.63,235.66L249.05,237.91L246.06,239.94L234.81,239.94L233.12,246.04L229.8,247.37L228,251.63L217.6,252.96L214.72,254.78L211.51,253.03L207.91,253.52L204.37,256.11L199.55,256.18L199.56,252.87L194.25,248.69L191.89,242.99L186.98,241.08L183.33,243.04L181.31,242.54L179.11,240.24L176.16,241.32L172.11,241.46L170.03,244.13L167.11,243.85L164.43,242.22L160.37,242.6L158.32,244.04L155.28,244.2L152.4,241.45L151.26,234.87L151.85,227.19L147.57,226.55L146.27,223.25L142.11,221.94L138.5,222.34L132.1,220.2L128.75,217.66L125.99,212.86L125.71,208.78L134.22,206.06L137.38,206.68L137.31,204.18L133.81,195.72L128.75,185.42L128.78,182.81L130.39,181.02L134.23,182.09L135.61,181.09L135.45,176.53L143.32,173.59L147.3,173.2L149.16,170.14L155.13,166.49L158.96,168.15L162.73,166.73L167.56,170.01L170.27,170.18L175.89,173.59L180.43,173.57L184.39,175.98L187.75,176.11L191.12,177.43L197.01,177.56L200.5,178.99L204.83,178.18L212.16,179.72L214.5,181.47L218.17,179.86L228.46,181.02L230.08,179.59L231.11,174.49L234.01,172.51L238.68,167.17L239.23,163.76L235.51,158.42L235.79,156.14L238.31,155.53L241,148.3L240.59,142.68L243.97,143.58L246.89,141.14L249.34,143.15L249.95,145.69L251.98,146.31L253.58,142.24L255.41,141.84L256.76,138.33L253.11,130.56L253.19,127.59L256.34,129.05L259.01,135.42L259.14,138.97L261.58,141.44L264.4,141.44L266.42,136.84L266.23,133.95L261.65,121.5L262.96,118.08L269.01,116.67L273.52,117.27L274.16,115.95L272.46,108.69L270.79,107.4L261.23,108.03L254.44,109.8L243.72,113.62L237.02,114.57L231.84,111.5L230.6,108.73L241.77,105.55L252.3,101.89L257.03,103.22L262.27,100.76L272.82,99.15L277.9,99.19L280.72,100.09L286.41,100.23L288.48,100.96L292.16,100.3L301.79,101.42L300.13,97.21L296.6,95.83L295.92,90.94L301.03,91.29L303.25,89.17L303.89,83.87L301,81.24L297.98,71.1L297.14,70.12L297.93,66.13L293.98,61.33L294.39,59.4L297.48,57.29L303.41,57.02L305.61,54.18L306.12,51.66L304.32,46.99L304.74,40.01L305.92,36.71L309.57,31.56L312.81,31.16L323.01,35.01L326.29,42.34L330.21,45.89L332.38,46.51L333.98,49.93L338.49,50.01L340.34,48.84L343.12,42.82L345.41,41.6L348.84,42.34L352.01,39.37L353.75,39.02L357.32,41L361.17,37.8L365.18,37.22L371.74,33.59L376.45,28.99L378.6,25.24L384.06,26.21L388.71,23.57L390.14,21.55L393.39,19.59L397.85,18.35L398.3,13.79L400.59,8.16L400.04,5.62L402.88,1.08L405.45,0.05L409.84,1.3L415.06,8.5L416.41,8.54L423.37,21.14L426.07,23.53L427.18,26.26L431.32,29.77L429.22,31.91L425.68,31.68L426.39,34.38L430.45,34.1L434.22,35.88L436.67,38.44L433.93,43.27L431.44,43.3L431.71,46.59L428.36,46.41L422.08,51.01L418.16,57.63L411.45,59.16L409.68,64.21L398.56,68.05L394.98,70.08L394.84,71.69L399.65,80.43L403.82,80.06L409.02,81.51L414.78,84.11L416.72,86.53L417.53,91.75L416.66,96.25L418.86,99.12L421.84,105.12L423.48,105.8L435.59,103.54L440.47,101.36L443.84,98.85L452.96,98.19L454.49,100.39L453.29,105.85L447.71,108.29L443.17,105.96L439.84,106.44L438.4,111.34L433.86,114.79L426.79,115.01L424.85,118.33L425.23,123.37L422.83,128.82L417.07,132.3L412.4,132.82L411.34,134.8L408.47,134.49L406.17,131.8L408.41,129.16L411.35,127.93L416.12,123.07L414.17,120.67L410.24,118.82L403.74,118.02L401.19,116.85L400.01,114.82L396.43,114.06L395.1,112.41L389,109.79L384.09,110.2L376.17,104.64L372.62,101.42L364.6,99.93L357.72,104.26L350.14,106.88L346.14,108.82L342.21,112.93L339.51,113.26L337.51,115.77L333.59,113.49L326.44,113.96L323.4,111.9L321.31,116.11L320.35,125.33L322.1,133.17L320.35,135.56L316.26,135.56L313.73,134.31L312.77,128.06L309.11,126.7L306.15,124.42L306.67,134.99L303.88,136.92L302.93,140.44L298.75,142.03L297.44,143.51L298.92,148.83L299.79,155.18L302.78,162.49L302.22,165.77L303.19,167.4L304.23,173.7L305.68,174.43L304,180.4L306.29,183.11L308.02,182.26L309.37,179.23L313.94,181.66L317.1,182.11L319.07,180.94L325.83,178.9L327.29,176.33L330.18,174.96L334.56,176.04L338.04,173.99L347.11,177.31L351.07,180.42L352.25,182.29L355.16,178.93L355.59,176.84L358.17,175.92L361.21,176.56L363.31,179.37L365.6,180.37L369.88,178.27L374.32,175.1L376.65,175.13L377.18,177.38L380.82,178.51L382.52,174.42L386.45,178.17L389.36,181.83L392.26,181.5L394.57,179.49L398.72,174.27L400.83,173.85L405.74,175.95L407.72,174.56L408.77,171.7L411.06,171.07L414.19,172.18L416.56,175.03L422.43,175.7L424.86,177.24ZM426.8,10.13L423.73,9.35L418.76,2.51L420.78,0L424.05,2.68L427.13,8.14Z" class="land" id="TJ-SU" title="Sughd"/>
    <path d="M392.06,362.31L390.27,360.32L389.84,357.29L395.34,347.47L396.8,340.33L396.58,335.49L395.66,331.68L397.95,322.24L396.32,317.79L396.64,311.55L403.89,305.28L405.72,302.52L408.08,301.32L409.76,296.93L415.1,295.41L418.7,291.64L420.6,288.05L419.9,285.62L416.68,283.18L425.28,274.31L430.02,272.98L432.56,271.31L435.28,272.91L435.23,276.75L436.58,277.38L446.06,277.17L446.61,275.71L451.83,272.15L457.06,272.29L459.4,280.66L461.63,283.24L461.36,288.67L459.51,295.96L468,295.89L472.31,294.85L476.06,296.45L477.48,304.38L480.75,305.7L482.12,309.24L486.58,309.03L488.75,306.19L493.61,305.98L496.65,309.95L499.43,305L504.82,304.94L506.29,298.12L509.45,297.07L510.32,293.03L511.57,291.43L515.92,291.88L521.41,289.1L526.1,289.87L528.06,286.59L530.73,286.59L533.34,282.83L535.35,281.98L543.25,281.91L544.94,281.08L549.73,275.99L550.22,273.89L553.65,272.56L551.86,270.19L548.42,261.94L550.03,254.61L553.79,252.36L556.57,247.6L557.98,241.36L569.48,229.66L570.46,227.2L570.46,223.65L571.53,219.29L573.66,215.12L575.64,208.99L579.44,205.21L582.93,205.61L590.41,202.97L592.89,199.73L595.4,199.61L597.83,202.1L601.92,201.98L604.66,198.35L607.55,199.11L610.7,198.77L619.37,203.68L622.03,202.11L626.87,202.68L631.97,200.98L635.08,202.74L638.55,201.68L641.67,202.42L647.74,200.07L652.15,201.87L658.48,202.11L660.84,196.25L663.36,198.2L667.64,198.58L671.49,197.22L674.69,190.85L677.18,191.72L681.23,189.12L685.57,188.89L692.53,191.92L692.33,194.72L690.51,196.83L685.6,197.58L685.21,199.46L688.68,201.81L689.39,207.56L688.41,210.77L690.71,215.8L695.38,216.11L698.31,221.45L702.28,225.68L704.03,231.44L704.11,235.53L707.16,240.59L714.02,240.28L716.37,246.87L716.38,250.31L714.15,251.39L711.29,251.17L707.38,252.04L703.68,257.63L703.56,261.25L706.08,262.97L708.2,270.32L707.96,275.5L709.36,280.57L710.91,282.33L712.82,287.22L711.27,290.54L716.11,293.23L719.77,293.76L723.59,298.63L728.62,299.6L732.27,298.35L736.9,299.21L736.99,294.81L741.55,288.13L746.43,287.69L750,289.03L752.7,291.48L760.11,294.94L765.86,299.06L769.78,303.06L775.26,305.68L779.1,308.46L785.98,309.35L792.25,311.13L793.39,313.13L791.73,316.91L792.61,322.36L794.6,327.47L794.52,335.23L795.91,336.56L800.79,338.67L804.01,339.11L804.77,346.97L805.83,351.47L808.28,353.82L809.68,358.19L813.24,358.16L814.23,360.08L813.72,371.33L815.55,375.53L813.39,379.35L817.27,383.73L819.67,384.1L821.6,388.63L818.65,391.04L814.37,396.02L812.58,400.79L815.02,406.47L815.45,412.52L820.24,415.39L822.67,417.68L825.99,419.34L828.2,418.31L834.29,426.23L834.12,430.65L831.33,433.37L832.68,439.71L827.31,440.5L822.44,443.1L816.09,443.26L814.21,444.82L813.77,449L812.02,449.45L810.79,444.96L808.73,442.74L806.54,438.32L804.74,436.26L795.54,432.52L792.51,431.85L782.45,433.63L781.52,431.13L779.59,430.17L775.48,431.33L772.84,430.07L770.58,431.76L767.56,431.7L764.86,428.1L762.93,428.1L761.65,430.16L759.36,430.77L752.55,429.2L752.66,432.22L751.63,435.65L749.2,438L744.79,437.54L739.76,440.15L737.15,439.81L731.05,443.53L727.39,442.18L726,445.05L723.68,443.73L720.35,444.94L716.35,447.78L716.07,449.8L712.49,450.69L710.56,449.09L706.69,450.47L705.39,448.39L696.64,447.57L699.13,440.46L703.59,441.37L707.67,439.68L709.92,437.61L709.51,429.73L709.99,425.97L705.84,425.9L701.54,424.39L698.48,426.48L692.34,425.1L687.71,422.2L680.82,422.02L677.23,422.81L673.53,425.6L672.37,423.4L666.98,423.18L662.67,426.02L658.6,429.91L654,429.54L652.63,430.18L650.96,433.76L648.73,434.94L647.58,439.25L642.3,441.53L636.93,442.37L633.5,443.93L630.33,447.5L625.65,450.23L622.18,449.8L618.52,454L616.24,460.5L611.74,468.62L609.88,470.41L608.28,474.52L604.64,473.12L601.29,475.26L591.15,477.29L587.68,475.66L581.53,477.88L578.85,477.74L566.78,484.79L565.43,487.15L561.31,490.32L558.72,491.55L557.51,494.44L553.59,494.92L551.83,496.92L549.17,498.07L548.34,499.8L543.64,504.42L538.58,506.97L535.12,511.52L533.05,513.02L525.53,513.2L517.95,514L514.11,511.96L512.63,509.23L509.76,506.8L507.85,503.68L505.82,496.53L502.44,487.38L500.95,486.13L498.48,480.53L499.11,478.27L497.86,473.05L495.27,469.04L496.45,465.63L496.68,457.01L498.18,455.38L497.62,451.87L500.04,449.81L501.18,441.84L500.52,437.91L501.3,434.18L499.4,432.02L501.01,429.92L502.06,424.43L504.11,421.5L502.37,418.16L501.72,413.7L502.17,407.36L504.12,403.91L504.02,399.66L506.38,392.82L504.61,388.58L510.38,383.85L509.46,378.96L510.67,375.48L508.76,368.72L503.89,366.11L501.59,366.84L494.11,371.54L490.46,371.82L486.09,374.43L484.7,370.58L483.19,368.96L479.97,370.27L480.42,363.03L482.95,358.91L483.31,356.19L485.25,353.4L485.42,350.46L487.69,344.12L490.38,342.37L489.29,338.14L490.16,331.38L487.15,329.47L486.5,327.02L483.4,324.77L479.17,325.08L472.71,320.77L471.1,316.19L467.71,314.75L464.25,311.83L462.23,314.26L460.12,313.26L458.77,307.29L454.93,303.91L452.33,307.6L452.15,309.77L447.38,310.03L446.31,306.93L444.17,306.52L442.64,309.78L440.01,308.29L437.99,309.3L434.96,307.97L433.62,311.37L431.72,312.59L428.15,312.24L426.17,313.81L427.91,317.7L424.31,320.42L420.27,320.7L420.67,323.47L419.45,328.52L417.25,329.29L414.26,332.78L413.6,336.65L411.06,340.33L410.18,343.95L410.7,346.84L407.12,349.05L403.92,349.56L402.53,352.3L398.08,354.64L397.4,357.81L394.39,361.31Z" class="land" id="TJ-GB" title="Gorno-Badakhshan"/>
  </g>
</svg>