<?xml version="1.0" encoding="UTF-8"?>
<svg xmlns="http://www.w3.org/2000/svg" width="408.47" height="519.3" viewBox="275.77 -2.65 408.47 519.3" style="background-color:#000000">
  <!-- Created using SVG Map Generator: dojo.amcharts.com/svg-map-generator -->
  <style>
    .land { fill: #ffffff; stroke: #000000; stroke-width: 0.65; }
  </style>
  <g id="polygons">
    <path d="M675.82,162.51L675.64,162.31L674.85,162.31L674.25,162.69L673.21,163.13L671.71,163.13L670.57,163.57L670.03,164.28L669.08,165.16L668.03,165.55L666.84,165.38L665.7,164.94L664.95,165.06L664.16,165.49L663.86,166.31L663.71,167.08L664.1,167.9L664.7,168.62L664.9,169.49L664.55,170.48L663.91,171.14L662.97,171.69L662.27,171.96L660.88,172.01L659.53,172.29L657.79,174.1L657.45,175.57L657.34,176.51L656.84,177.22L655.95,177.61L654.61,177.72L653.81,177.44L653.02,177.34L652.17,177.72L651.52,178.49L651.13,179.14L650.48,179.36L649.74,179.52L649,180.08L648.64,180.84L647.85,181.45L647.05,181.83L646.26,181.93L645.66,182.21L644.87,182.38L643.87,182.64L643.03,182.76L642.03,182.76L641.63,183.3L641.14,184.67L640.44,184.5L639.54,184.61L639.14,184.99L638.45,185.43L638.35,186.14L638.35,187.18L638.1,187.67L637.55,188.17L637.66,188.82L637.95,189.26L638.45,189.76L638.49,191.07L638.35,191.68L637.9,192.44L637.41,192.93L636.81,193.09L635.81,194.14L634.78,194.24L633.48,194.46L632.78,195.45L632.18,196.05L631.05,196.76L630.04,197.25L628.85,197.37L628.2,197.97L627.41,198.07L626.27,197.91L625.9,198.07L625.77,198.13L625.42,197.53L625.48,196.22L624.78,195.51L624.03,195.17L623.03,194.02L622,192L621.35,190.63L620.65,189.48L620.5,188.17L620.85,187.29L621.89,186.42L622.59,185.65L622.79,184.77L622.34,184.44L621.8,183.52L621.35,182.25L620.5,181.43L619.55,180.23L618.81,179.51L617.51,178.97L616.47,178.97L615.62,179.29L614.54,179.29L613.53,178.75L612,178.2L611.9,177.68L612.79,177.52L612.99,177.19L612.34,176.37L612.3,175.44L611.9,174.18L611.3,173.25L610.61,172.81L609.86,171.7L609.71,171L610.01,170.34L610.61,169.73L610.75,169.19L610.3,168.97L609.71,168.86L609.56,168.14L609.71,167.27L610.21,166.67L610.21,165.52L610.11,164.53L609.91,163.87L610.21,163.27L614.83,163.27L615.58,162.5L616.07,161.56L616.82,161.34L617.67,160.69L617.71,159.97L617.42,159.75L617.32,159.2L617.91,158.82L618.31,158.66L618.51,158.1L618.27,157.61L617.46,157.12L617.32,155.91L617.46,155.04L616.97,153.99L616.27,153.55L614.73,153.5L612.5,153.17L612.09,152.61L611.8,151.68L611.26,150.64L610.25,150.2L609.17,149.55L608.17,149.38L606.72,149.05L605.83,148.33L605.08,147.4L605.96,146.96L606.41,146.59L607.38,146.56L609.13,146.75L610.95,146.59L611.66,146.35L613.27,145.52L614.06,144.83L615.88,143.91L616.66,143.59L617.22,143.18L617.79,142.6L618.51,141.16L619.52,140.99L620.3,141.32L621.64,142.97L622.21,143.88L622.54,145.28L623.09,146.67L623.51,147.23L623.61,148L623.95,148.38L625.44,149.2L626.83,149.31L627.63,150.13L628.47,151.51L628.53,153L628.42,155.08L627.58,155.9L626.89,156.67L626.78,157.44L626.93,158.98L627.68,159.52L628.57,159.14L629.22,158.31L629.97,158.31L630.82,159.36L631.31,161.67L632.2,162.27L633.25,162.6L633.9,163.86L634.94,164.63L636.88,164.63L638.17,165.12L639.36,165.01L639.61,164.13L639.22,163.64L638.62,163.14L638.62,161.77L638.27,160.62L638.27,159.64L638.52,158.98L639.47,158.21L641.2,158.31L643.64,158.09L644.64,158.09L644.93,157.65L644.59,157.22L643.49,157.05L642.84,157.22L641.6,156.5L640.91,155.9L640.41,155.35L640.51,154.86L641.11,154.53L640.75,153.93L640.31,153.49L640.31,152.94L640.8,152.44L641.31,151.73L641.5,151.01L641.45,150.03L641.11,149.26L640.16,148.54L639.27,148.22L638.32,147.5L638.46,146.57L639.11,145.63L638.71,145.03L637.83,144.16L637.38,143.44L637.52,142.67L637.38,141.51L636.78,141.07L636.53,140.2L636.78,138.88L636.28,138.44L635.23,138.22L634.79,137.95L634.44,137.07L633.9,136.73L633.65,136.89L633.4,137.45L632.85,138L632.3,138.44L632.15,139.04L630.86,139.6L630.12,140.25L629.57,140.58L628.62,140.8L628.08,141.41L627.18,142.51L626.19,143.98L625.25,144.92L624.85,146.95L624.2,147.06L623.51,147.23L623.99,146.14L623.88,144.28L623.21,143.05L622.54,142.07L621.34,140.76L620.41,140.27L619.44,140.01L618.65,139.56L618.58,139.27L619.14,138.87L619.7,138.58L620.07,137.3L620.41,136.51L621.64,135.28L621.83,134.65L622.05,134.2L622.64,132.36L623.21,131.94L624.14,131.69L625.04,131.69L625.37,131.36L625.75,130.45L626.04,129.58L626.64,129.13L627.2,128.92L628.35,128.27L628.84,127.65L629.44,127.4L630.1,127.48L631.3,127.53L631.6,126.9L632.08,126.37L632.53,126.53L632.76,126.87L634.69,126.9L635.29,125.92L635.81,125.67L636.3,125.92L636.82,126.74L637.64,127.08L638.23,127.45L639.21,127.73L640.29,128.47L640.92,129.1L641.58,130.25L642.03,131.24L642.1,132.52L642.58,133.3L643.67,133.71L643.93,134.17L643.77,134.7L643.81,135.23L644.34,135.94L644.93,136.56L645.53,137.06L647.47,137.14L648.29,136.8L648.78,136.68L648.47,137.83L647.99,138.16L647.76,138.9L647.92,139.48L648.73,139.79L649.25,140.2L649.77,140.3L649.77,140.47L649.58,141.05L649.06,141.42L647.27,142.13L646.71,142.46L645.92,142.83L644.88,143.15L644.02,143.2L643.54,143.73L642.12,144.1L641.67,144.51L642.12,145.67L643.54,146.53L643.5,147.45L643.8,148.1L644.14,149.16L644.73,149.71L645.18,150.41L645.63,150.94L646.63,151.07L647.08,151.39L647.83,152.22L649.17,152.38L650.29,152.75L651.37,153.91L651.82,154.44L653.09,154.69L654.4,154.64L655.33,154.23L657,153.38L657.38,152.59L656.97,151.68L656.22,151.31L655.66,150.9L655.43,150.16L655.59,149.26L656.18,148.35L656.74,147.73L657.38,147.32L657.86,147.19L658.83,147.85L659.39,147.53L659.87,146.7L660.36,146.08L660.72,145.11L660.81,144.95L661.48,144.99L661.66,146.4L662.22,146.6L662.66,146.29L663.94,145.95L664.43,146.33L667.72,146.36L668.77,146.81L670.02,146.74L670.43,146.36L671.29,146.33L671.67,145.91L672.54,145.53L672.79,146.15L672.33,146.87L672.44,147.6L672.66,148.01L672.69,148.73L672.23,149.18L672.01,149.93L671.86,151.06L671.98,151.99L672.79,152.4L673.29,152.91L673.54,153.43L673.54,156.69L674.09,157.34L675.65,158.58L676.71,158.47L677.57,157.54L678.36,157.68L679.87,158.68L681.24,158.91L681.58,159.46L681.49,160.02L681.02,160.56L680.37,160.84L679.38,161.39L678.63,161.46L678.01,162L677.33,162.45Z" class="land" id="TW-NWT" title="New Taipei"/>
    <path d="M577.49,339.71L577.76,339.35L578.16,339.1L578.88,339.02L579.51,338.69L579.99,338.33L580.48,338.17L580.67,337.93L581.27,337.73L581.46,337.11L581.41,336.3L580.96,335.73L580.56,335.37L580.59,334.92L581.04,334.64L581.19,333.94L581.6,333.13L582.08,332.39L582.72,332L582.98,331.46L583.24,330.69L583.77,330.24L584.25,330.12L585.03,330.12L585.55,329.92L586.57,329.67L587.38,329.59L588.5,330.29L589.14,330.57L589.92,330.32L590.7,329.64L591.56,329.39L591.56,326.62L591.78,325.88L592.01,325.4L592.6,324.99L592.56,324.58L592.11,323.48L591.85,323.07L591.85,322.67L592.23,322.42L593.13,322.34L593.87,322.5L594.46,322.3L595.34,321.73L596.17,321.04L597.02,321.04L597.84,320.96L598.4,320.14L599.03,318.97L599.29,317.38L599.55,315.42L599.93,313.83L600.15,312L600.6,310.66L600.86,309.6L600.83,306.93L600.26,306.17L600,305.5L599.97,304.53L599.52,303.84L598.59,302.78L597.72,302.41L597.39,301.97L597.46,301.11L597.99,300.41L598.7,300.3L599.29,299.84L599.59,299.48L599.64,298.54L599.26,297.48L600.49,296.26L600.71,294.83L600.9,293.08L601.57,292.3L602.17,290.67L602.54,290.02L603.51,289.62L603.96,289.08L604.04,288.06L603.36,286.76L603.59,286.19L604.25,285.45L604.78,285.08L604.89,284.43L604.52,283.82L604.33,283.28L604.4,278.55L604.14,277.7L603.54,277.28L603.47,276.02L604.85,273.16L605.37,272.38L605.52,271.41L605.6,269.4L606.01,268.46L606.91,267.93L607.54,267.19L608.88,266.05L609.33,265.24L609.55,264.42L609.55,262.96L609.03,262.31L608.2,262.26L607.91,261.65L607.35,260.67L606.68,260.14L605.71,259.86L605.37,258.95L605.37,257.49L605.86,256.22L606.34,255.28L607.32,254.94L608.7,254.05L609.22,253.23L609.74,252.83L610.29,252.49L611.9,252.29L612.27,251.84L612.24,250.82L611.79,250.36L611.68,249.74L612.39,249.38L612.73,248.8L612.61,248.07L613.18,247.34L613.89,247.13L614.63,246.84L615.37,246.4L615.82,245.7L615.75,244.19L615.75,243.2L616.16,242.71L617.02,242.47L617.5,241.89L617.84,241.16L618.51,240.43L619.1,240.22L620.34,239.97L620.9,239.19L621.19,238.53L621.45,237.77L621.83,236.37L621.83,235.14L622.09,234.65L622.64,234.36L623.09,234.04L623.3,233.66L623.66,234.05L624.44,234.7L625.49,235.24L626.94,235.9L628.32,236.01L630.78,236.3L632.24,236.71L633.76,237.54L635.14,238.67L636.52,238.96L637.56,239.29L638.49,239.45L639.32,239.05L639.44,238.48L638.8,237.9L638.61,237.49L638.99,237L639.61,236.76L640.96,236.39L641.74,236.39L642.19,236.1L642.08,235.61L641.6,235.12L641.41,234.38L641.7,233.48L642.38,233.56L642.9,234.02L643.5,234.7L644.28,234.91L645.33,235.32L646.26,236.1L647.38,236.87L650.4,237.98L652.3,238.1L653.68,238.48L654.39,238.84L655.24,239.37L656.72,239.34L656.65,240.08L656.36,240.55L655.7,241.35L654.97,241.86L654.53,242.37L654.19,242.97L653.75,244.4L653.7,245.37L652.8,246.26L652.62,246.57L651.61,247.41L651.02,247.41L650.56,247.68L650.22,248.16L649.86,248.86L649.86,249.27L649.72,249.5L649.16,249.85L648.62,250.08L648.47,250.29L647.98,250.49L647.4,251.1L647.1,251.12L646.32,251.51L646.01,251.89L645.71,252.53L645.42,252.84L644.87,254.12L644.64,255.07L644.7,255.99L644.82,256.66L645.28,257.45L645.39,258.03L645.42,258.86L645.37,259.27L645.13,259.97L644.35,261.33L643.63,262.03L642.5,262.71L641.85,263.21L641.45,263.62L641.08,264.26L640.75,265L640.43,265.57L640.23,266.59L640.26,268.2L640.38,268.72L640.8,270.08L641.04,270.43L641.77,271.89L642.03,272.3L642.66,272.88L643.22,273.26L643.56,274.17L643.56,274.53L643.19,275.03L642.55,276.12L642.5,276.72L642.24,276.66L642.5,276.21L642.66,275.42L642.5,275.1L642.26,275.1L642.47,275.96L642.29,276.46L641.77,277.17L641.31,277.42L641.27,277.83L641.47,277.99L641.36,278.41L641.01,277.96L640.69,277.96L640.28,278.21L640,278.75L640.02,279.03L639.38,279.67L639.25,280.3L639.25,280.78L639.59,281.61L639.76,282.46L639.82,283.07L639.62,283.32L639.56,284.05L639.33,284.5L639.3,284.88L639.07,285.61L639.07,286.16L639.18,286.73L639.07,287.39L639.07,287.93L638.81,289.16L638.81,289.58L638.19,292.21L637.96,292.98L637.62,293.64L637.24,294.57L637.01,294.94L637.01,295.48L636.83,296.05L636.64,296.37L635.97,297.1L635.97,297.48L635.71,298.15L635.59,299.89L635.46,300.12L635.53,300.69L635.53,301.76L635.44,302.3L635.79,302.52L635.73,303.13L635.18,304.36L635.18,304.74L634.81,305.25L634.81,305.5L634.53,305.73L634.42,306.33L634.25,306.39L634.11,306.81L633.78,306.81L633.38,307.54L633.29,307.88L633.29,309.02L633.38,309.53L633.58,309.66L633.85,309.5L633.62,310.32L633.44,310.39L633.44,310.83L633.24,311.4L633.15,311.94L632.97,312.1L633.09,312.6L632.77,313.14L632.92,313.46L632.65,313.74L632.54,314.26L632.71,314.54L632.54,315.04L632.02,315.29L631.66,316.25L631.66,316.79L631.38,317.36L631.26,318.18L631.29,321.44L631.12,321.89L631.06,322.71L630.89,322.84L630.91,323.54L630.48,324.23L630.48,324.74L630.27,324.77L629.93,325.31L629.86,325.59L629.37,326.32L629.26,327.14L629.05,327.55L629.11,328.26L629,328.82L628.74,329.01L628.65,329.83L628.53,330.06L628.7,331.23L628.65,331.82L628.85,331.86L628.74,332.5L628.97,332.78L628.97,333.12L629.49,333.19L629.7,333.76L629.58,333.89L629.67,334.55L629.26,334.65L629.05,335.44L628.62,335.88L628.47,336.2L628.04,336.07L627.89,336.22L627.4,336.26L627.51,336.51L627.98,336.64L628.28,336.83L628.21,337.3L627.92,338.12L627.89,339.01L627.81,339.17L627.72,340.19L627.54,340.19L627.14,340.99L626.94,340.77L626.25,340.36L625.63,339.72L623.62,339.38L622.31,339.62L621.9,340.06L620.97,340.36L620.35,341.07L619.92,342.12L618.96,343.85L618.42,345.37L618.17,346.36L618.33,347.51L619.67,348.28L619.79,348.86L618.96,350.42L618.14,351.67L617.24,352.85L616.74,354.07L616.31,354.58L615.62,355.2L615.43,356.21L615.4,358.2L614.79,358.85L613.98,359.38L613.73,360.31L613.57,361.42L613.14,362.16L612.83,362.91L612.33,363.75L611.56,366.42L611.15,367.4L610.5,368.39L609.53,369.3L609.17,370.03L609.07,376.28L608.51,376.68L607.73,377.08L605.99,377.15L605.47,377.39L604.87,377.93L604.1,377.87L603.57,377.46L603.41,376.24L603.04,375.26L602.51,374.79L600.31,374.21L599.31,373.3L598.41,372.89L598.17,372.46L597.92,371.31L597.37,370.7L596.68,370.25L596.47,369.07L596.5,367.86L596,367.45L595.53,366.43L594.66,365.96L594.32,365.51L593.42,365.51L592.83,365.92L592.18,366.5L591.65,366.7L590.81,366.37L590.13,365.96L589.72,365.05L589.14,364.33L588.11,363.69L586.9,363.32L585.71,362.74L584.53,362.55L583.75,361.83L582.57,359.6L582.23,358.45L582.26,357.06L581.89,356.38L581.42,355.81L581.17,354.86L580.75,354.44L580.96,354.22L581.07,353.08L580.87,352.25L579.97,351.59L578.73,350.62L577.63,349.86L576.53,349.37L575.85,348.78L574.93,348.41L574.48,348.1L574.98,346.64L575.54,346.29L576.12,345.4L576.53,344.61L577.93,344.07L578.62,343.66L578.78,341.46L578.48,340.57L577.78,340.46Z" class="land" id="TW-HUA" title="Hualien"/>
    <path d="M423.1,332.52L423.88,333.07L423.73,333.23L423.23,333.21L422.38,333.92L421.59,333.94L421.3,334.1L420.89,334.1L420.66,334.37L420.32,334.37L420.08,334.17L420.11,333.35L420.58,333.37L420.63,333.85L420.99,333.8L421.22,333.6L421.25,333.25L421.92,333.16L422.17,332.82L422.84,332.82ZM426.44,318.35L426.67,318.94L426.21,319L426.15,318.46ZM420.2,358.19L420.37,358.49L420.37,358.96L419.83,358.9L419.47,358.61L419.53,358.2ZM413.08,364.01L413.76,364.17L413.56,364.71L413.26,364.9L413.32,365.24L413.17,365.72L413.35,366.29L413.2,366.51L412.64,366.35L412.27,366.57L412.07,366.89L411.84,366.95L411.9,367.35L412.07,367.53L412.07,367.86L411.72,368.06L411.67,367.74L410.62,367.39L410.56,366.95L410.8,366.7L410.82,366.09L410.47,365.84L410.18,365.4L409.77,365.09L409.75,364.77L410.36,364.52L410.88,364.52L411.03,364.37L411.49,364.39L411.67,364.26ZM402.08,352.49L402.23,352.67L402.23,353.24L401.92,353.12L401.85,352.71ZM423.04,346.38L423.21,346.7L423.5,346.91L423.8,347.8L423.34,347.71L422.55,347.75L422.17,347.87L422,348.44L421.68,348.28L421.25,348.34L421.22,347.48L421.74,347.62L421.97,347.34L421.92,346.91L422.38,346.95L422.75,346.79ZM430.41,318.31L430.53,318.46L431.14,318.69L431.14,319.39L430.91,319.73L430.85,320.08L429.92,319.89L429.25,319.23L429.25,318.94L429.8,318.94L430.03,318.46ZM437.7,359.24L437.97,359.34L437.85,360.13L437.53,360.42L437.3,360.89L437.44,361.19L437.04,361.52L436.86,361.17L436.42,360.76L436.71,360.23L436.42,359.98L436.6,359.5L437.15,359.3L437.41,359.37ZM437.7,320.36L437.38,320.75L437.12,320.46ZM421.22,359.08L421.56,359.3L421.53,359.53L420.89,360.1L420.48,360.26L420.43,360.51L420.09,360.35L420.09,360.1L420.43,359.98L420.66,359.69L420.78,359.25ZM436.71,311.53L436.68,312.29L436.42,312.03L436.51,311.66ZM428.97,309.91L429.37,310.73L429.05,310.77L428.82,309.98ZM425.13,307.17L425.25,307.54L425.13,308.04L425.3,308.38L424.99,308.61L424.7,308.32L424.9,308.07L424.86,307.63L424.7,307.22ZM436.19,313.49L436.6,313.88L436.6,314.13L435.81,314.26L435.32,314.19L435.61,313.65L436.07,313.71ZM427.91,312.12L428.32,312.42L428.47,312.76L428.99,312.83L429.28,312.32L429.77,312.37L429.69,312.6L429.89,313.01L430.21,313.12L430.13,313.62L430.67,313.85L430.39,314.15L430.67,314.83L430.96,314.83L430.93,315.36L430.79,315.65L430.13,315.43L429.77,315.77L429.89,316.25L429.48,316.25L429.35,316.43L429.92,316.66L430.15,316.88L430.5,316.63L430.76,316.86L430.79,317.23L430.1,317.58L430.21,317.99L429.8,318.43L429.14,318.25L428.4,318.27L428.35,317.89L428.56,317.74L428.7,317.36L429.08,317.23L428.94,316.25L428.61,316.09L428.15,315.61L427.78,315.45L427.68,314.72L427.34,313.99L426.64,313.9L426.47,314.26L426.09,314.72L426.03,315.15L425.4,314.7L424.76,314.6L423.57,316.22L423.83,316.31L423.71,316.75L423.31,317.36L422.58,317.23L422.26,317.61L421.59,317.61L421.38,317.48L421.13,317.64L421.07,317.93L421.41,318.53L421.25,318.75L421.51,319.32L421.3,319.8L421.68,320.4L421.48,321.26L421.18,321.67L420.73,321.67L420.6,321.85L420.73,322.4L420.99,322.62L420.87,322.97L420.52,323.31L420.52,323.7L420.83,323.82L420.66,324.49L421.13,324.64L420.81,325.15L420.29,325.15L420.12,324.99L419.43,324.86L418.95,324.64L418.49,324.74L418.2,325.27L417.41,325.18L416.92,325.41L416.63,325.66L416.08,325.63L415.73,325.43L415.93,324.9L416.86,324.49L417.21,323.73L417.48,323.76L418.08,324.33L418.46,324.33L418.98,323.92L418.98,323.76L419.44,323.4L419.42,322.99L419.62,322.55L419.59,322.3L419.01,321.83L418.4,321.67L418.25,321.42L418.25,321.03L418.9,320.8L419.21,321.38L419.42,321.13L419.32,320.65L419.44,320.3L419.78,319.76L420.09,319.57L419.88,319.23L419.59,319.26L419.1,318.85L419.1,318.59L419.6,318.05L419.39,317.89L419.32,317.58L419.57,316.86L419.96,316.78L420.4,315.43L420.81,315.27L420.6,315.01L420.63,314.7L421.68,314.67L421.71,315.27L421.27,315.58L421.27,315.86L421.48,316.06L421.74,315.93L421.94,316.25L422.57,316.56L422.9,316.56L423.45,316.13L424.14,315.27L424.12,314.79L424.5,314.79L424.38,314.44L424.64,313.4L424.81,313.08L425.3,313.01L425.51,312.83L425.8,312.92L426.56,312.67L426.67,312.48L427.21,312.48L427.37,312.17ZM433.26,315.04L433.49,315.11L433.41,315.61L432.79,315.97L432.88,315.24ZM421.45,330.67L421.53,331.1L421.27,331.45L420.81,331.41L420.63,331.29L420.81,330.69L421.07,330.79ZM431.34,360.4L431.83,360.44L431.72,360.89L431.78,361.4L431.37,361.61L430.88,361.4L430.47,360.99L430.53,360.67L430.93,360.44ZM435,319.79L435.41,319.92L435.67,320.21L435.67,320.65L435.5,320.85L435.52,321.16L436.11,321.35L435.88,321.73L435.93,322.05L436.25,321.92L436.57,321.98L436.77,321.73L436.66,321.44L436.83,320.75L437.15,320.91L437.23,321.35L437.46,321.54L437.82,321.54L437.7,321.89L437.76,322.17L438.28,322.9L438.05,324.01L438.28,324.1L438.25,324.64L438.46,325.09L438.92,325.27L439.24,325.25L439.51,325.43L439.53,325.99L439.21,326.23L438.43,326.55L438.16,326.35L437.93,326.61L437.56,326.55L437.32,326.13L437.64,325.97L437.64,325.75L436.83,325.34L436.57,325.34L436.37,325.59L435.93,325.5L434.83,325.53L434.39,325.37L434.19,325.69L433.79,325.88L433.61,326.35L433.38,326.45L433.32,327.08L433,327.21L432.3,327.27L431.86,327.75L431.98,328.06L431.7,328.31L431.46,328.03L431,328.16L430.96,328.67L430.73,328.67L430.56,329.04L430.3,329.11L430.24,329.74L430.91,329.83L430.82,330.25L430.26,330.63L430.5,330.81L430.59,331.48L430.18,331.54L429.72,331.36L429.54,331.05L428.45,330.91L428.47,331.16L427.98,331.38L427.4,331.38L427.11,331.61L426.52,331.36L426.49,330.84L426.85,330.43L426.73,329.86L425.97,329.39L425.66,329.71L425.05,329.74L424.9,329.55L424.55,328.67L424.24,328.69L424.14,328.35L424.38,328.16L424.27,327.94L423.86,328.12L423.45,328.12L423.34,327.59L423.54,327.3L423.5,326.96L423.97,326.92L424,326.41L424.61,326.73L424.52,327.02L424.61,327.71L425.2,328.06L425.25,328.54L424.99,328.85L425.2,329.3L425.54,328.85L425.86,328.85L425.89,328.47L426.18,328.44L426.52,328.6L427.05,329.24L426.73,329.49L426.96,330.06L427.28,329.9L427.57,329.39L427.49,328.67L427.83,328.47L428.15,328.69L428.84,328.78L428.84,329.08L429.2,329.08L429.08,328.35L428.7,327.97L429.37,327.59L429.58,327.21L429.98,326.86L429.69,326.64L429.46,326.82L428.76,326.76L428.24,326.64L428.01,326.96L427.72,326.83L427.19,327.08L426.79,327.11L426.7,326.89L426,326.92L425.63,326.86L425.74,326.51L425.56,326.13L425.71,326L426.76,326L426.82,325.66L427.05,325.63L427.42,325.12L426.9,324.74L426.15,325.34L425.59,325.31L425.28,325.53L424.99,325.09L425.33,325.09L425.45,324.7L425.72,324.52L425.69,324.23L426.12,323.98L426.03,323.47L425.51,322.71L425.56,322.55L426.21,322.65L426.64,322.55L426.96,322.36L427.22,322.05L427.57,322.08L427.66,321.67L428.24,322.01L428.24,322.62L427.91,322.81L428.47,323.28L428.32,323.88L428.61,323.95L429.43,323.66L429.28,322.65L429.63,322.52L430.24,322.52L430.18,321.6L429.77,321.06L430.13,320.62L430.21,320.3L430.77,320.34L430.79,320.62L431.05,320.65L431.29,320.4L431.75,320.27L431.83,319.89L432.39,319.99L432.86,320.37L432.39,320.85L432.68,321.57L432.48,321.63L432.51,322.14L432.33,322.49L432.53,323.03L432.82,322.84L433.12,322.07L433.05,321.42L433.58,321L433.98,321.1L434.13,322.05L434.88,322.05L434.88,321.54L434.54,321.26L434.42,321.63L434.13,321.57L434.45,321.13L434.54,320.71L434.74,320.59L434.8,319.86ZM420.66,345.49L420.81,345.9L420.48,346L420.4,345.72ZM437.2,310.71L437.15,311.62L436.92,311.46L436.89,310.96ZM430.18,301.03L430.39,301.17L430.36,301.51L430,301.76L429.79,301.63ZM430.85,302.86L430.96,303.51L431.95,303.92L432.07,304.11L432.07,304.57L431.81,304.74L431.72,305.02L431.29,305.02L431.34,305.38L430.5,305.22L430.24,305.5L430.13,305.88L429.75,305.92L429.61,305.5L429.08,305.31L429.38,304.77L429.87,304.59L430.03,304.2L430.39,303.79L430.21,303.63L430.7,302.9ZM400.37,342.3L400.58,342.55L400.9,342.62L401.02,342.87L401.4,342.87L401.56,343.28L401.25,343.5L401.25,343.85L400.5,343.98L400.37,344.14L399.91,344.14L399.77,343.89L399.71,343.41L400.03,343.05L400.14,342.46ZM418.6,344.09L418.87,344.35L419.04,344.73L419.57,344.64L419.76,344.35L420.06,344.76L419.97,345.47L420.14,345.94L420.11,346.41L420.43,346.47L420.14,347.02L420.81,346.98L420.81,347.59L419.99,347.77L420.22,348.12L420.09,348.53L420.4,348.78L420.32,349.1L419.76,349.13L419.73,348.88L419.39,348.81L419.16,349.1L418.72,349.07L418.11,349.19L418.11,348.94L417.85,348.62L418.57,347.52L418.37,347.2L418.36,346.63L418.49,346.41L418.31,345.81L418.66,345.47L418.43,345.06L418.31,344.58L418.08,344.39L418.23,344.07ZM400.43,351.98L400.61,352.32L400.52,352.58L400.11,352.32ZM436.02,359.15L436.04,359.53L435.9,359.69L435.47,359.66L435.7,359.18Z" class="land" id="TW-PEN" title="Penghu"/>
    <path d="M467.76,50.96L467.71,51.39L467.3,51.41L467.5,50.93ZM513.51,26.24L513.83,26.44L513.69,26.73L513.39,26.51ZM472.47,14.92L472.94,15.08L472.87,15.34L472.18,15.47L471.78,16.05L471.22,16.54L470.93,16.38L471.25,15.67L471.94,15.57ZM470.44,11.62L470.62,11.79L470.23,12.3L470.64,12.7L470.26,12.99L470.41,13.41L469.95,13.72L469.39,13.72L469.22,13.41L469.2,12.95L469.72,12.82L469.72,12.5L469.48,12.26L470,11.72ZM468.9,47.41L469.04,47.57L468.84,48.21L469.62,48.41L469.72,48.08L470.23,48.08L470.23,48.45L469.85,48.86L469.8,49.21L469.25,49.37L469.22,49.86L468.96,49.9L468.64,50.15L468.46,49.86L467.65,50.73L467.34,50.57L467.48,50.35L467.68,49.67L467.88,49.57L468.35,49.03L468.38,48.57L468.69,48.03L468.73,47.63ZM495.4,4.21L495.45,4.54L494.59,5.38L494.33,5.73L494.13,5.54L494.39,4.89L494.62,4.89L494.82,4.56ZM521.61,0L521.87,0.38L522.01,0.87L521.75,1.17L521.82,1.46L522.1,1.59L522.34,1.39L522.8,1.52L522.77,1.1L522.98,0.77L523.26,0.61L523.64,0.64L523.64,1.19L523.93,1.39L524.33,1.22L524.45,1.55L524.77,1.91L524.83,2.3L524.4,2.13L524.1,2.2L523.32,2.68L523.14,3.17L522.68,3.01L522.22,3.43L521.98,3.37L521.84,2.85L521.9,2.36L522.19,2.08L522.01,1.64L521.67,1.64L521.26,1.91L521.29,1.26L520.91,0.97L520.59,1.59L520.36,1.42L520.51,1.13L520.36,0.77L520.91,0.51L520.89,0ZM471.45,16.96L471.66,17.38L472.09,17.48L472.04,17.83L472.18,18.19L472.5,18.09L473.02,18.19L472.94,18.84L472.56,19.13L472.79,19.36L472.82,19.74L473.11,19.91L472.97,20.27L472.68,20.42L472.59,19.84L472.35,19.71L472.3,19.32L472.01,19.16L472.06,18.87L471.28,18.78L471.11,19.36L470.7,19.29L470.41,19.78L470.29,19.32L469.74,19.25L469.62,19.42L469.13,19.62L468.81,19.62L468.58,19.84L468.58,20.78L468.5,21.58L468.67,21.72L468.55,22.11L467.94,22.17L467.86,21.11L467.91,20.71L468.38,20.1L468.12,19.58L468.14,19.29L468.46,19.07L468.81,18.65L469.25,18.42L469.59,18.58L469.97,18.09L470.55,17.65L470.67,17.22L470.9,16.99ZM462.83,24.34L463.04,24.37L463.32,24.76L463.96,24.73L463.94,24.98L463.5,25.53L463.62,25.95L464.02,26.02L464.11,26.24L464.52,26.31L464.72,26.89L465.18,26.4L465.51,26.38L465.45,26.05L466.06,25.24L466.55,25.27L466.98,25.15L467.5,25.27L467.48,26.28L467.16,26.38L466.78,27.18L466.41,26.8L466.03,27.02L466.06,27.38L465.3,28.09L464.92,28.09L464.72,27.73L463.96,28.25L464.11,28.48L463.5,28.71L463.42,28.22L462.72,28.31L462.31,28.15L462.31,27.84L462.05,27.6L462.05,27.35L462.49,26.96L462.78,26.4L462.66,26.11L462.78,25.57L462.92,25.44L462.6,25.02L462.6,24.56ZM465.71,46.67L465.74,46.86L466.18,47.03L465.92,47.5L465.53,47.86L465.04,47.83L464.76,48.45L464.55,48.5L464.35,48.12L463.91,48.08L463.39,47.09L463.68,46.83L464.99,46.86ZM472.76,16.67L473.11,16.83L473.14,17.09L472.47,16.99Z" class="land" id="TW-LIE" title="Lienchiang"/>
    <path d="M311.74,223.54L311.97,224.02L311.7,224.15L311.33,224.62L310.77,224.81L310.46,225.26L310.75,225.77L310.87,226.38L310.72,226.63L310.46,226.7L310.2,226.5L309.94,226.7L309.85,227.11L310.12,227.36L309.71,227.75L309.35,227.75L308.75,228.17L308.37,228.26L307.93,228.6L307.07,228.7L307,228.45L307.64,228.42L307.62,228L307.79,227.72L307.67,227.4L307.26,226.79L307.03,226.63L306.45,226.5L306.07,226.28L305.64,226.38L304.98,225.8L304.54,225.51L303.75,225.39L303.03,225.51L302.68,225.48L301.06,225.96L299.57,226.63L298.9,227.18L298.38,227.75L297.95,228.35L297.74,228.8L297.37,229.31L297.19,230.1L297.02,230.43L297.06,230.87L296.7,231L296.32,230.87L296.21,231.13L295.83,231.13L295.74,230.87L295.39,230.71L294.69,230.59L294.32,230.07L294.32,229.92L293.6,229.89L293.3,229.94L293.27,229.44L293.04,229.4L292.78,228.96L292.21,228.42L291.74,228.33L291.74,228.1L291.36,227.81L291.8,227.56L292.11,227.56L292.29,227.78L292.81,227.59L292.88,227.81L293.25,227.97L293.57,227.72L293.94,227.14L293.94,226.82L294.15,226.44L294.79,226.5L294.82,225.96L294.69,225.77L294.73,224.75L294.46,223.88L294.04,223.25L293.92,222.68L294.18,221.94L294.67,221.94L294.84,221.82L294.84,221.37L294.69,221.15L294.35,221.41L293.71,221.34L293.48,221.44L293.39,222.04L292.96,221.69L292.93,221.34L292.67,221.18L292.96,220.7L292.99,220.42L293.27,220.19L293.74,220.19L293.89,219.74L294.41,219.4L294.82,219.4L295.02,219.07L295.83,219.52L296.79,220.51L298.12,221.53L298.76,221.73L299.08,222.04L299.43,221.98L300.83,222.48L301.46,222.48L302.1,222.32L302.07,222.16L302.56,221.62L302.71,220.99L302.71,220.58L302.3,219.94L302.74,219.94L302.89,219.65L303.41,219.33L303.46,219.01L303.7,218.88L303.55,218.31L303.59,217.26L303.38,216.81L304.11,216.74L304.54,216.62L304.8,216.2L305.38,216.08L305.35,215.6L305.17,215.43L305.24,215.12L305.55,215.22L306.07,214.8L306.33,214.84L306.77,215.09L306.95,215.4L307.38,216.65L307.62,216.94L307.9,216.87L308.68,216.94L308.81,216.85L309.33,217.16L309.15,218L309.42,218.53L309.85,218.59L309.76,219.07L309.94,219.74L310.54,220.54L310.61,220.31L310.92,220.15L311.1,220.35L310.9,220.87L310.61,221.05L310.69,221.53L310.61,222.11L310.77,222.45L310.72,222.97L311.3,223.67ZM279.31,231.7L278.82,231.95L278.42,231.57L278.82,231.45L278.97,231.73ZM416.71,162.25L416.86,162.7L416.31,162.58L415.91,162.74L415.64,162.42L416.17,162.16ZM289.86,224.33L290.49,224.46L290.32,225.35L290.14,225.77L290.17,226.5L289.94,227.02L289.65,226.95L289.56,226.7L289.09,226.6L288.52,226.75L288.14,227.27L288.23,227.88L287.85,228L287.15,227.78L286.63,228.1L286.31,228.51L286.2,228.87L285.88,228.9L285.56,228.38L285.06,228.33L284.8,228.17L285.27,227.72L285.44,227.43L285.09,226.47L285.94,226.41L286.11,226.21L286.31,224.6L286.48,223.99L286.89,223.74L287.56,223.76L287.67,223.54L288.14,223.31L288.9,223.45L289.24,223.86ZM280.27,230.75L280.45,231.13L279.84,231.29L279.43,230.8L279.41,230.55L278.94,230.17L279.17,229.92L279.67,229.98L279.69,230.2L279.46,230.48L279.87,230.8ZM414.65,161.87L414.16,161.77L413.67,161.48L413.49,160.91L413.87,160.76L413.99,161.01L414.6,161.17Z" class="land" id="TW-KIN" title="Kinmen"/>
    <path d="M660.72,145.11L660.36,146.08L659.87,146.7L659.39,147.53L658.83,147.85L657.86,147.19L657.38,147.32L656.74,147.73L656.18,148.35L655.59,149.26L655.43,150.16L655.66,150.9L656.22,151.31L656.97,151.68L657.38,152.59L657,153.38L655.33,154.23L654.4,154.64L653.09,154.69L651.82,154.44L651.37,153.91L650.29,152.75L649.17,152.38L647.83,152.22L647.08,151.39L646.63,151.07L645.63,150.94L645.18,150.41L644.73,149.71L644.14,149.16L643.8,148.1L643.5,147.45L643.54,146.53L642.12,145.67L641.67,144.51L642.12,144.1L643.54,143.73L644.02,143.2L644.88,143.15L645.92,142.83L646.71,142.46L647.27,142.13L649.06,141.42L649.58,141.05L649.77,140.47L650.01,140.88L649.86,141.01L649.86,141.49L650.79,141.33L650.97,141.46L651.69,141.4L651.98,141.62L652.25,141.58L652.68,142.01L653.08,142.1L653.32,142.32L654.3,142.39L654.4,143.29L654.71,143.51L654.4,143.93L653.73,144.41L653.41,144.9L653.55,145.15L653.9,144.61L654.42,144.48L654.68,144.16L655.09,143.93L655.09,143.74L655.44,143.33L655.84,143.06L655.32,142.74L655.3,142.39L655,142.1L655.49,141.65L655.99,141.65L656.39,142.01L657.03,142.03L657.09,142.19L656.74,142.55L657.15,142.97L657.7,142.93L658.02,143.22L657.88,143.54L658.66,143.83L658.83,143.42L659.5,143.54L660.02,143.45L660.08,143.67L659.85,143.93L659.74,144.32L659.85,144.79L660.11,144.86L660.4,145.15Z" class="land" id="TW-KEE" title="Keelung"/>
    <path d="M623.51,147.23L624.2,147.06L624.85,146.95L625.25,144.92L626.19,143.98L627.18,142.51L628.08,141.41L628.62,140.8L629.57,140.58L630.12,140.25L630.86,139.6L632.15,139.04L632.3,138.44L632.85,138L633.4,137.45L633.65,136.89L633.9,136.73L634.44,137.07L634.79,137.95L635.23,138.22L636.28,138.44L636.78,138.88L636.53,140.2L636.78,141.07L637.38,141.51L637.52,142.67L637.38,143.44L637.83,144.16L638.71,145.03L639.11,145.63L638.46,146.57L638.32,147.5L639.27,148.22L640.16,148.54L641.11,149.26L641.45,150.03L641.5,151.01L641.31,151.73L640.8,152.44L640.31,152.94L640.31,153.49L640.75,153.93L641.11,154.53L640.51,154.86L640.41,155.35L640.91,155.9L641.6,156.5L642.84,157.22L643.49,157.05L644.59,157.22L644.93,157.65L644.64,158.09L643.64,158.09L641.2,158.31L639.47,158.21L638.52,158.98L638.27,159.64L638.27,160.62L638.62,161.77L638.62,163.14L639.22,163.64L639.61,164.13L639.36,165.01L638.17,165.12L636.88,164.63L634.94,164.63L633.9,163.86L633.25,162.6L632.2,162.27L631.31,161.67L630.82,159.36L629.97,158.31L629.22,158.31L628.57,159.14L627.68,159.52L626.93,158.98L626.78,157.44L626.89,156.67L627.58,155.9L628.42,155.08L628.53,153L628.47,151.51L627.63,150.13L626.83,149.31L625.44,149.2L623.95,148.38L623.61,148Z" class="land" id="TW-TPE" title="Taipei"/>
    <path d="M625.9,198.07L625.84,198.25L625.03,198.53L624.16,198.53L623.53,198.81L622.73,199.69L622.29,201.74L622.05,202.7L621.42,203.66L621.05,204.54L619.93,206.12L619,206.74L618.01,207.48L617.2,207.83L615.96,208.11L614.71,207.14L613.84,206.26L613.47,205.16L614.09,203.31L613.41,202.9L612.59,202.5L612.59,201.81L613.09,200.11L613.16,199.07L612.1,198.81L611.47,198.25L611.36,197.37L610.8,196.54L609.8,195.93L609.24,195.52L608.5,195.45L607.87,195.73L607.13,195.79L607.07,194.84L607.63,193.74L607.93,192.99L607.63,192.5L607.07,191.96L607.25,190.04L607.63,189.63L607.57,188.67L606.88,187.58L605.88,187.24L604.7,187.03L603.08,186L602.72,184.77L601.97,184.09L601.65,183.61L601.1,183.33L600.29,183.61L599.54,183.75L598.42,183.82L596.8,182.31L595.69,181.62L595.26,181.22L593.64,180.12L593.02,179.16L591.78,178.95L591.53,178.2L592.02,177.45L592.52,176.35L592.33,175.11L591.78,174.5L588.11,174.57L587.42,174.09L587.3,173.34L586.62,172.79L586.05,172.95L585.5,173.29L584.75,172.68L584.13,172.48L582.95,171.99L582.32,171.51L581.64,171.1L582.02,170.01L581.52,168.97L581.33,168.16L580.46,167.46L579.66,167.13L578.72,167.34L578.16,167.67L577.11,167.6L576.42,167.34L575.62,167.67L575.18,168.09L573.93,167.95L574.46,167.51L574.52,166.81L574.86,166.36L575.12,166.32L575.56,166.03L576.03,165.46L576.43,164.65L577.25,163.89L577.51,163.31L577.6,162.87L577.62,162.04L577.51,161.64L577.95,161.17L578.06,160.62L578.29,160.02L579.45,158.61L579.22,158.54L580.15,157.35L581.02,156.46L581.11,156.24L581.63,156.04L581.83,155.82L582.58,155.5L583.11,155.5L583.63,155.28L583.98,154.89L584.41,154.76L584.88,154.22L585.6,153.77L585.69,153.55L586.76,152.83L587.35,152.78L588.02,152.36L588.51,152.23L589.18,152.2L589.29,152.04L590.01,151.95L590.19,151.78L590.78,151.68L590.86,151.55L591.84,151.5L591.94,151.37L592.75,151.14L593.73,150.66L593.99,150.66L594.14,150.38L594.58,149.96L595.24,149.64L595.59,149.67L597.05,148.58L597.62,148.32L597.73,148.13L598.37,147.84L599.13,147.65L600,147.58L600.29,147.2L600.84,147.46L601.13,147.39L601.31,147.01L601.11,146.65L601.68,146.68L601.98,146.55L602.32,146.59L602.81,146.36L603.58,146.49L603.74,146.85L604.1,146.94L604.36,146.85L604.77,146.97L605.08,147.4L605.83,148.33L606.72,149.05L608.17,149.38L609.17,149.55L610.25,150.2L611.26,150.64L611.8,151.68L612.09,152.61L612.5,153.17L614.73,153.5L616.27,153.55L616.97,153.99L617.46,155.04L617.32,155.91L617.46,157.12L618.27,157.61L618.51,158.1L618.31,158.66L617.91,158.82L617.32,159.2L617.42,159.75L617.71,159.97L617.67,160.69L616.82,161.34L616.07,161.56L615.58,162.5L614.83,163.27L610.21,163.27L609.91,163.87L610.11,164.53L610.21,165.52L610.21,166.67L609.71,167.27L609.56,168.14L609.71,168.86L610.3,168.97L610.75,169.19L610.61,169.73L610.01,170.34L609.71,171L609.86,171.7L610.61,172.81L611.3,173.25L611.9,174.18L612.3,175.44L612.34,176.37L612.99,177.19L612.79,177.52L611.9,177.68L612,178.2L613.53,178.75L614.54,179.29L615.62,179.29L616.47,178.97L617.51,178.97L618.81,179.51L619.55,180.23L620.5,181.43L621.35,182.25L621.8,183.52L622.34,184.44L622.79,184.77L622.59,185.65L621.89,186.42L620.85,187.29L620.5,188.17L620.65,189.48L621.35,190.63L622,192L623.03,194.02L624.03,195.17L624.78,195.51L625.48,196.22L625.42,197.53L625.77,198.13Z" class="land" id="TW-TAO" title="Taoyuan"/>
    <path d="M569.38,178.46L570.03,179.62L572.07,179.79L573.93,180.27L574.57,180.97L575.5,181.26L576.92,182.25L578.26,185L578.49,186.6L578.78,187.59L578.6,188.49L578.08,188.49L576.7,187.42L576.18,186.81L575.43,186.36L574.76,186.65L574.31,187.34L573.57,187.67L572.71,187.75L572.22,188.2L571.7,189.06L570.84,189.56L569.72,190.87L569.53,191.99L569.2,192.88L568.65,193.62L568.12,193.87L567.6,193.42L566.92,193.01L566.74,192.15L566.3,191.78L566.03,191.2L565.47,191.2L564.76,191.62L564.02,191.65L563.64,191.24L563.56,190.85L564.02,190.47L564.3,190.5L565.18,190.12L565.85,189.55L566.08,188.87L566.04,187.63L566.68,187.59L566.89,187.25L566.91,186.44L567.09,185.67L566.94,185.52L567.01,184.95L567.12,184.84L567.17,183.98L567.14,183.22L567.03,182.77L567.08,182.29L566.42,182.45L566.01,181.78L566.13,181.3L566.6,180.43L566.86,179.77L567.38,179.16L567.55,178.13L567.87,178.38L568.07,177.88L567.99,177.52L568.4,177.55L568.72,177.97L568.74,178.33Z" class="land" id="TW-HSZ" title="Hsinchu"/>
    <path d="M617.99,207.48L618.36,207.93L618.77,208.61L618.74,209.67L618.33,210.32L617.62,210.69L617.02,211.17L617.18,212.2L617.43,213.09L617.27,214.86L616.78,215.93L615.84,217.02L614.54,218.18L613.67,218.89L612.8,219.75L611.9,220.08L611.46,220.84L611.03,221.76L610.38,222.48L609.66,223.09L609.32,223.71L609,224.76L608.48,225.38L607.45,225.82L605.72,225.82L604.19,226L603.28,225.87L603.17,225.86L602.95,225.22L602.7,222.55L601.86,221.69L601.17,220.46L600.43,219.98L599.63,219.1L598.91,218.49L598.78,217.56L598.45,217.12L597.69,216.81L596.89,216.88L595.39,217.63L592.84,217.59L589.58,217.59L587.51,217.97L585.67,218.63L583.87,218.35L583.02,217.73L583.02,216.26L583.37,215.41L583.87,214.72L584.15,213.8L583.4,212.3L582.78,211.9L582.81,211.31L583.37,209.63L583.9,208.92L584.24,208.06L584.36,207.35L583.84,206.01L583.43,205.44L582.78,204.96L582.38,204.18L581.45,204.04L580.82,204.31L580.3,204.24L579.51,203.45L578.58,202.98L577.87,202.29L577.12,201.92L576.72,201.3L575.64,200.35L574.51,199.76L573.61,198.39L573.18,197.44L572.68,196.76L572.18,196.55L572.43,195.79L573.06,195.43L573.36,194.8L572.87,194.18L571.87,194.22L570.6,194.94L569.75,194.6L569.01,194.39L568.45,193.72L568.65,193.62L569.2,192.88L569.53,191.99L569.72,190.87L570.84,189.56L571.7,189.06L572.22,188.2L572.71,187.75L573.57,187.67L574.31,187.34L574.76,186.65L575.43,186.36L576.18,186.81L576.7,187.42L578.08,188.49L578.6,188.49L578.78,187.59L578.49,186.6L578.26,185L576.92,182.25L575.5,181.26L574.57,180.97L573.93,180.27L572.07,179.79L570.03,179.62L569.38,178.46L569.62,177.97L569.26,177.49L569.85,177.36L569.85,176.76L569.49,176.85L569.44,176.56L569.64,176.17L570.01,175.76L570.19,175.32L570.4,175.09L570.55,174.51L570.78,174.19L570.92,173.58L571.18,172.95L571.94,172.12L572.51,171.38L572.28,170.77L572.43,170.52L572.4,170.19L572.54,169.81L572.95,169.33L573.18,168.85L573.59,168.54L573.93,167.95L575.18,168.09L575.62,167.67L576.42,167.34L577.11,167.6L578.16,167.67L578.72,167.34L579.66,167.13L580.46,167.46L581.33,168.16L581.52,168.97L582.02,170.01L581.64,171.1L582.32,171.51L582.95,171.99L584.13,172.48L584.75,172.68L585.5,173.29L586.05,172.95L586.62,172.79L587.3,173.34L587.42,174.09L588.11,174.57L591.78,174.5L592.33,175.11L592.52,176.35L592.02,177.45L591.53,178.2L591.78,178.95L593.02,179.16L593.64,180.12L595.26,181.22L595.69,181.62L596.8,182.31L598.42,183.82L599.54,183.75L600.29,183.61L601.1,183.33L601.65,183.61L601.97,184.09L602.72,184.77L603.08,186L604.7,187.03L605.88,187.24L606.88,187.58L607.57,188.67L607.63,189.63L607.25,190.04L607.07,191.96L607.63,192.5L607.93,192.99L607.63,193.74L607.07,194.84L607.13,195.79L607.87,195.73L608.5,195.45L609.24,195.52L609.8,195.93L610.8,196.54L611.36,197.37L611.47,198.25L612.1,198.81L613.16,199.07L613.09,200.11L612.59,201.81L612.59,202.5L613.41,202.9L614.09,203.31L613.47,205.16L613.84,206.26L614.71,207.14L615.96,208.11L617.2,207.83Z" class="land" id="TW-HSQ" title="Hsinchu"/>
    <path d="M603.28,225.87L602.93,226.39L602.49,226.46L601.72,227.03L601.5,227.34L601.06,229.01L600.74,229.36L600.03,229.9L599.75,230.41L599.53,231.81L599.1,231.99L598.26,231.99L597.89,231.54L597.67,230.99L597.48,230.24L596.9,230.07L596.43,230.31L595.83,231.47L594.54,232.46L594.04,233.21L593.72,233.82L592.89,234.3L591.74,234.44L590.4,234.54L589.74,235.01L589.31,235.6L588.62,236.18L588.45,237.1L588.08,237.48L587.28,237.89L586.87,238.27L586.19,238.64L583.8,238.74L582.93,239.15L582.33,239.64L581.72,240.48L581.22,241.4L580.32,241.57L579.07,241.57L578.45,240.93L577.83,239.5L577.11,238.6L576.12,237.69L574.84,237.34L571.58,236.67L570.68,236.36L569.63,236.18L568.45,236.22L567.95,236.39L567.38,236.77L567.24,237.65L567.3,238.4L567.51,239.08L567.57,239.9L567.57,240.76L567.33,241.33L566.89,241.85L565.99,242.09L565.27,242.05L561.89,242.29L559.43,242.33L558.37,242.02L557.41,241.47L556.3,240.21L555.29,239.39L553.97,238.98L552.19,238.78L551.13,237.96L550.2,237.41L548.58,236.32L546.97,235.44L545.51,234.75L544.91,234.51L543.63,233.18L542.63,231.78L541.57,230.48L540.8,229.43L540.17,229.05L539.37,228.95L538.75,228.64L538.19,227.68L537.87,226.9L537.32,225.9L536.94,225.43L536.33,224.85L536.87,224.4L537.92,223.86L538.18,223.51L538.55,223.32L538.91,222.81L538.99,222.36L539.69,222.45L539.71,222.16L539.95,221.73L539.46,221.78L539.63,221.41L539.86,221.44L540.64,220.54L540.82,220.26L540.74,219.97L541.2,219.49L541,219.24L541.08,218.95L541.57,218.63L541.57,218L541.83,217.83L541.98,217.35L542.21,217.07L542.53,216.36L542.94,215.7L543.09,215.63L543.5,214.52L544.02,212.79L544.48,211.55L545.08,210.43L545.46,209.38L545.59,208.38L545.87,207.84L546.19,206.92L546.98,205.74L547.3,205.45L547.68,205.49L548.48,205.09L549.15,205.61L549.44,205.52L550.26,204.95L550.6,204.97L551.09,205.16L551.79,205.7L552.38,205.67L552.54,205.49L551.79,204.95L551.38,204.52L551.19,204.18L550.93,203.98L550.17,204.01L550.86,202.86L550.86,202.09L551.04,201.81L551.65,201.11L551.94,200.95L551.82,200.57L552.12,200.57L552.49,200.21L553.07,199.32L553.85,199.29L554.55,199.19L555.86,198.81L556.26,198.88L556.49,198.68L557.36,198.75L557.57,198.65L558.24,198.65L558.18,197.82L558.5,197.47L558.99,197.15L560.76,195.43L560.85,194.87L561.2,194.75L561.54,193.79L561.57,193.09L561.95,192.16L562.16,192.1L562.53,191.65L563.56,190.85L563.64,191.24L564.02,191.65L564.76,191.62L565.47,191.2L566.03,191.2L566.3,191.78L566.74,192.15L566.92,193.01L567.6,193.42L568.12,193.87L568.45,193.72L569.01,194.39L569.75,194.6L570.6,194.94L571.87,194.22L572.87,194.18L573.36,194.8L573.06,195.43L572.43,195.79L572.18,196.55L572.68,196.76L573.18,197.44L573.61,198.39L574.51,199.76L575.64,200.35L576.72,201.3L577.12,201.92L577.87,202.29L578.58,202.98L579.51,203.45L580.3,204.24L580.82,204.31L581.45,204.04L582.38,204.18L582.78,204.96L583.43,205.44L583.84,206.01L584.36,207.35L584.24,208.06L583.9,208.92L583.37,209.63L582.81,211.31L582.78,211.9L583.4,212.3L584.15,213.8L583.87,214.72L583.37,215.41L583.02,216.26L583.02,217.73L583.87,218.35L585.67,218.63L587.51,217.97L589.58,217.59L592.84,217.59L595.39,217.63L596.89,216.88L597.69,216.81L598.45,217.12L598.78,217.56L598.91,218.49L599.63,219.1L600.43,219.98L601.17,220.46L601.86,221.69L602.7,222.55L602.95,225.22L603.17,225.86Z" class="land" id="TW-MIA" title="Miaoli"/>
    <path d="M656.72,239.34L655.24,239.37L654.39,238.84L653.68,238.48L652.3,238.1L650.4,237.98L647.38,236.87L646.26,236.1L645.33,235.32L644.28,234.91L643.5,234.7L642.9,234.02L642.38,233.56L641.7,233.48L641.41,234.38L641.6,235.12L642.08,235.61L642.19,236.1L641.74,236.39L640.96,236.39L639.61,236.76L638.99,237L638.61,237.49L638.8,237.9L639.44,238.48L639.32,239.05L638.49,239.45L637.56,239.29L636.52,238.96L635.14,238.67L633.76,237.54L632.24,236.71L630.78,236.3L628.32,236.01L626.94,235.9L625.49,235.24L624.44,234.7L623.66,234.05L623.3,233.66L622.73,232.79L621.87,231.96L620.97,231.52L619.33,231.55L618.06,231.88L617.2,232.22L616.46,232.87L615.82,233.32L614.85,233.4L614.03,232.3L613.55,231.23L612.8,230.57L611.57,230.41L609.9,229.55L609.59,229.09L609.59,228.52L609.93,227.83L610.09,226.85L609.75,225.65L609.3,225.33L609,224.76L609.32,223.71L609.66,223.09L610.38,222.48L611.03,221.76L611.46,220.84L611.9,220.08L612.8,219.75L613.67,218.89L614.54,218.18L615.84,217.02L616.78,215.93L617.27,214.86L617.43,213.09L617.18,212.2L617.02,211.17L617.62,210.69L618.33,210.32L618.74,209.67L618.77,208.61L618.36,207.93L617.99,207.48L618.01,207.48L619,206.74L619.93,206.12L621.05,204.54L621.42,203.66L622.05,202.7L622.29,201.74L622.73,199.69L623.53,198.81L624.16,198.53L625.03,198.53L625.84,198.25L625.9,198.07L626.27,197.91L627.41,198.07L628.2,197.97L628.85,197.37L630.04,197.25L631.05,196.76L632.18,196.05L632.78,195.45L633.48,194.46L634.78,194.24L635.81,194.14L636.81,193.09L637.41,192.93L637.9,192.44L638.35,191.68L638.49,191.07L638.45,189.76L637.95,189.26L637.66,188.82L637.55,188.17L638.1,187.67L638.35,187.18L638.35,186.14L638.45,185.43L639.14,184.99L639.54,184.61L640.44,184.5L641.14,184.67L641.63,183.3L642.03,182.76L643.03,182.76L643.87,182.64L644.87,182.38L645.66,182.21L646.26,181.93L647.05,181.83L647.85,181.45L648.64,180.84L649,180.08L649.74,179.52L650.48,179.36L651.13,179.14L651.52,178.49L652.17,177.72L653.02,177.34L653.81,177.44L654.61,177.72L655.95,177.61L656.84,177.22L657.34,176.51L657.45,175.57L657.79,174.1L659.53,172.29L660.88,172.01L662.27,171.96L662.97,171.69L663.91,171.14L664.55,170.48L664.9,169.49L664.7,168.62L664.1,167.9L663.71,167.08L663.86,166.31L664.16,165.49L664.95,165.06L665.7,164.94L666.84,165.38L668.03,165.55L669.08,165.16L670.03,164.28L670.57,163.57L671.71,163.13L673.21,163.13L674.25,162.69L674.85,162.31L675.64,162.31L675.82,162.51L675.43,162.8L675.05,162.93L674.22,163.48L673.4,163.7L672.65,164.09L672.33,164.5L672.33,164.88L672.01,165.08L671.81,165.39L671.81,165.71L671.49,166.03L670.97,166.16L670.82,166.45L670.38,166.7L670.42,167.35L669.83,167.41L669.49,167.35L669.05,167.6L668.44,168.27L668.62,168.66L668.62,169.08L668.33,169.33L668.41,169.98L668.03,170.36L667.8,170.45L666.87,171.63L666.35,171.73L666.14,172.25L665.48,172.91L664.87,173.04L664.72,173.2L664.55,173.81L664.06,174.3L663.8,174.71L663.71,175.06L663.33,175.76L662.92,177.04L662.4,178.49L661.94,180.4L661.73,181.62L661.39,184.23L661.33,185.65L661.36,187.59L661.5,188.78L662.03,190.92L662.4,191.91L662.78,192.57L662.84,192.9L663.36,194.17L663.25,195.46L663.27,196.47L663.56,199.04L663.97,200.92L664.57,202.54L664.98,203.37L665.13,203.82L665.37,204.11L665.5,204.55L666.27,205.36L666.66,205.52L667.1,205.49L667.46,205.9L667.89,205.86L668.26,206.12L668.41,206.63L667.69,206.69L667.8,206.47L667.57,206.24L667.02,206.44L666.32,205.93L665.68,206.09L665.54,206.47L665.94,206.82L665.91,207.11L666.64,206.89L666.61,207.3L666.29,207.81L666.5,208.07L666.73,207.97L667.31,208.09L667.22,208.38L667.74,208.86L667.63,209.06L667.1,209.15L666.79,209.31L666.9,210.3L666.87,211.61L667.02,212.41L667.25,212.83L667.05,213.17L667.13,213.82L667.31,214.03L666.76,214.77L666.12,214.8L665.74,214.93L665.37,215.25L664.67,215.5L663.97,215.6L663.77,215.85L663.51,216.78L663.48,217.48L663.56,218.02L663.71,218.21L664.11,218.18L664.52,218.31L664.9,218.63L664.75,218.82L664.78,219.65L664.96,219.88L665.8,219.84L666.03,220.17L665.94,220.38L665.48,220.42L665.37,220.26L664.67,220.35L664.38,220.6L664.03,220.64L663.62,221.05L663.48,221.37L663.15,221.41L662.92,221.69L661.99,222.11L661.65,222.71L661.76,222.93L661.73,223.35L661.19,223.92L661.13,224.15L660.6,224.65L660.02,225.07L659.44,225.8L659.18,226.41L658.97,227.14L658.71,227.65L658.66,228.06L658.31,229.56L658.31,230.64L658.19,231.13L658.17,232.63L657.85,233.01L657.67,233.78L657.26,234.37L657.03,235.23L656.6,236.22L656.42,236.77L656.6,238.17L656.77,238.81Z" class="land" id="TW-ILA" title="Yilan"/>
    <path d="M623.3,233.66L623.09,234.04L622.64,234.36L622.09,234.65L621.83,235.14L621.83,236.37L621.45,237.77L621.19,238.53L620.9,239.19L620.34,239.97L619.1,240.22L618.51,240.43L617.84,241.16L617.5,241.89L617.02,242.47L616.16,242.71L615.75,243.2L615.75,244.19L615.82,245.7L615.37,246.4L614.63,246.84L613.89,247.13L613.18,247.34L612.61,248.07L612.73,248.8L612.39,249.38L611.68,249.74L611.02,249.74L610.01,249.22L609.41,249.22L608.62,248.68L607.95,248.48L607.02,248.72L606.35,249.01L605.27,248.85L604.48,248.64L603.82,247.83L603.26,247.29L602.62,247.34L602.06,248.03L601.96,248.77L601.65,249.46L601.17,250.08L600.01,250.16L598.97,249.79L598,249.66L596.62,250.11L596.24,250.28L595.91,250.65L595.5,250.94L594.53,250.65L593.45,249.82L592.89,249.92L592.53,250.36L591.9,250.6L591.34,250.68L590.89,251.3L590.7,251.75L590.26,252.53L589.51,252.77L587.39,252.81L586.08,252.81L585.71,253.26L585.37,254.09L584.85,254.82L583.78,256L582.99,256.65L582.31,257.35L581.31,257.6L579.07,257.48L577.13,257.56L576.68,257.77L576.42,258.38L576.01,260.02L575.68,260.75L575.08,261.24L574.26,261.69L573.11,261.85L572.4,261.73L571.69,261.2L571.02,261.16L570.19,261.53L569.12,262.23L568.45,262.96L567.77,263.28L566.95,263.33L566.1,263.17L565.46,262.71L565.27,262.18L564.64,262.23L564.46,262.88L564.46,263.98L564.23,264.39L563.75,265.04L563.37,265.17L563.15,264.51L563.04,263.28L562.63,262.71L561.96,262.42L561.25,262.31L560.76,261.77L560.2,261.32L559.42,261.53L559.01,262.1L558.86,262.75L558.56,263.49L558.04,263.9L557.81,265L557.78,266.03L557.48,267.08L556.92,267.45L556.14,267.54L554.95,268.48L554.27,269.94L554.12,270.67L553.71,271.74L553.45,272.56L552.63,273.21L551.93,274.19L551.29,274.68L550.39,275.01L549.61,275.37L548.72,275.12L547.56,274.93L545.02,274.93L544.09,274.76L542.97,274.23L541.86,273.78L541.07,273.25L540.17,272.27L538.91,272.19L537.72,271.86L537.04,271.74L536.37,269.81L536.56,268.97L536.86,268.68L536.7,267.86L535.89,266.87L535.48,264.84L534.7,264.02L533.95,263.57L532.71,263.69L531.38,263.2L530.33,262.96L529.4,262.34L528.24,261.85L527.08,261.24L526.19,260.59L525.93,259.48L526.19,258.67L525.52,257.16L525.22,256.17L524.55,255.12L523.88,254.29L523.43,253.51L522.91,253.23L523.06,253.07L523.09,252.59L522.01,251.67L521.78,251.69L521.61,251.44L521.35,251.44L521,251.15L519.55,250.65L519.69,250.52L520.39,250.78L520.65,249.82L520.77,249.69L521.29,248.16L521.87,248.04L521.96,247.59L522.54,246.41L522.57,245.68L523.03,244.4L523.73,244.54L524.45,242.97L524.86,242.95L524.92,243.33L524.63,243.58L524.48,244.22L524.48,244.82L524.28,245.14L524.13,245.62L523.93,245.91L523.58,246.73L523.32,246.73L523.01,246.51L522.65,246.51L522.6,246.86L522.1,248.07L522.05,248.41L521.52,249.66L521.72,249.92L522.08,249.85L522.08,249.43L522.28,249.34L522.47,248.64L522.83,247.88L523.4,248.13L523.73,248.74L523.96,249L524.13,248.32L523.93,248.16L523.81,247.56L524.19,246.48L524.83,245.08L525.26,243.61L525.47,243.49L525.88,243.68L526.05,244.12L525.56,244.63L525.64,245.11L525.44,245.3L525.67,245.53L526.13,244.95L526.11,244.47L526.34,243.99L526.31,243.58L526.13,243.42L526.13,242.97L526.6,242.68L526.83,242.88L527.3,242.84L527.5,242.5L527.18,242.43L526.11,242.63L525.44,242.52L525.23,242.37L525.29,242.05L525.82,242.05L525.52,241.57L525.56,241.35L526.37,239.69L526.75,239.82L526.92,240.05L527.21,239.8L527.61,240.05L528.37,240.37L528.84,239.98L528.89,239.03L529.04,238.61L528.77,237.5L528.95,236.93L529.24,236.67L529.56,236.67L529.79,236.22L529.93,236.2L530,235.68L530.4,235.33L530.46,235.14L531.42,234.28L531.65,233.74L531.97,233.36L531.79,232.65L532.02,232.59L532.4,231.92L532.46,231.29L532.92,230.64L532.92,230.14L533.13,229.78L533.05,229.5L533.44,229.28L533.21,228.92L533.68,228.33L533.97,228.13L534.47,227.56L534.9,227.27L535.4,226.34L535.77,226.34L536.33,224.85L536.94,225.43L537.32,225.9L537.87,226.9L538.19,227.68L538.75,228.64L539.37,228.95L540.17,229.05L540.8,229.43L541.57,230.48L542.63,231.78L543.63,233.18L544.91,234.51L545.51,234.75L546.97,235.44L548.58,236.32L550.2,237.41L551.13,237.96L552.19,238.78L553.97,238.98L555.29,239.39L556.3,240.21L557.41,241.47L558.37,242.02L559.43,242.33L561.89,242.29L565.27,242.05L565.99,242.09L566.89,241.85L567.33,241.33L567.57,240.76L567.57,239.9L567.51,239.08L567.3,238.4L567.24,237.65L567.38,236.77L567.95,236.39L568.45,236.22L569.63,236.18L570.68,236.36L571.58,236.67L574.84,237.34L576.12,237.69L577.11,238.6L577.83,239.5L578.45,240.93L579.07,241.57L580.32,241.57L581.22,241.4L581.72,240.48L582.33,239.64L582.93,239.15L583.8,238.74L586.19,238.64L586.87,238.27L587.28,237.89L588.08,237.48L588.45,237.1L588.62,236.18L589.31,235.6L589.74,235.01L590.4,234.54L591.74,234.44L592.89,234.3L593.72,233.82L594.04,233.21L594.54,232.46L595.83,231.47L596.43,230.31L596.9,230.07L597.48,230.24L597.67,230.99L597.89,231.54L598.26,231.99L599.1,231.99L599.53,231.81L599.75,230.41L600.03,229.9L600.74,229.36L601.06,229.01L601.5,227.34L601.72,227.03L602.49,226.46L602.93,226.39L603.28,225.87L604.19,226L605.72,225.82L607.45,225.82L608.48,225.38L609,224.76L609.3,225.33L609.75,225.65L610.09,226.85L609.93,227.83L609.59,228.52L609.59,229.09L609.9,229.55L611.57,230.41L612.8,230.57L613.55,231.23L614.03,232.3L614.85,233.4L615.82,233.32L616.46,232.87L617.2,232.22L618.06,231.88L619.33,231.55L620.97,231.52L621.87,231.96L622.73,232.79Z" class="land" id="TW-TXG" title="Taichung"/>
    <path d="M541.26,273.38L541.2,274.27L540.68,274.38L539.08,274.51L538.06,274.43L537.92,275.24L538.29,276.26L538.66,276.67L539.08,277.68L538.85,279.19L538.29,279.94L537.62,280.38L537.25,281.24L537.21,281.77L537.58,282.42L537.58,285.69L537.51,286.41L537.32,287.55L537.02,288.53L536.8,289.72L536.06,291.02L536.35,292.12L536.42,292.85L536.2,293.1L536.58,294.17L537.21,294.77L538.59,296.28L539.22,296.72L540.27,296.93L541.05,296.48L541.79,296.32L542.28,296.98L542.02,298.28L541.12,299.05L539.86,299.34L538,299.53L537.89,299.54L533,298.72L530.46,298.12L523.75,298.24L520.39,296.4L518.12,295.83L517.29,295.55L516.7,294.93L516.21,294.69L515.77,295.02L514.57,295.22L509.8,295.06L508.45,295.59L506.18,295.67L503.05,295.96L501.74,295.42L500.36,295.1L499.58,295.1L499.53,294.87L500.02,294.75L499.96,294.05L499.7,293.51L499.29,293.39L498.57,292.89L498.85,292.53L498.85,292.21L498.33,291.96L497.93,291.89L497.72,291.68L497.72,291.26L497.95,291.2L498.45,291.39L498.77,290.32L499,290.62L499.43,290.34L500.13,290.46L500.36,290.44L500.82,290.03L501.35,289.68L501.49,289.07L502.25,287.96L502.45,287.1L502.75,286.75L503.35,285.77L503.7,284.78L503.84,284.62L503.99,284.09L504.48,283.2L504.66,282.62L503.79,282.53L503.27,282.37L503.24,282L503.61,281.36L503.88,281.07L504.14,280.53L504.43,280.15L504.77,279.45L505.03,279.14L505.24,279.14L505.15,278.66L505.47,277.89L505.88,276.62L506.14,276.44L507.76,276.4L507.73,276.02L507.94,274.88L508.2,274.59L508.92,272.9L509.95,271.58L510.18,270.74L510.46,270.72L511.39,270.08L512.2,269.67L513.05,269.15L513.39,269.15L513.92,268.84L513.88,268.17L514.06,267.66L514.38,267.02L514.7,267.06L515.37,265.47L514.96,265.21L514.76,264.48L514.32,265L513.92,265L513.51,264.73L513.62,264.14L513.31,263.98L513.08,264.23L513.22,264.71L512.87,264.77L511.86,264.77L511.39,264.84L511.01,264.61L511.04,264.36L511.3,264.1L511.48,263.72L511.94,263.18L512.02,262.93L512.46,262.32L512.73,262.14L512.73,261.87L513.25,261.33L513.54,260.89L514.52,260.99L514.9,260.85L515.04,260.42L515.16,259.71L515.66,259.14L515.6,258.95L515.19,258.67L515.69,257.93L516.35,257.07L518.21,257.07L518.7,257.01L519.37,257.07L519.6,256.79L519.96,256.75L520.12,256.38L519.66,255.96L520.12,255.45L520.42,254.98L520.59,254.98L520.79,254.59L521.46,253.93L521.61,253.35L521.93,252.87L522.83,253.35L522.91,253.23L523.43,253.51L523.88,254.29L524.55,255.12L525.22,256.17L525.52,257.16L526.19,258.67L525.93,259.48L526.19,260.59L527.08,261.24L528.24,261.85L529.4,262.34L530.33,262.96L531.38,263.2L532.71,263.69L533.95,263.57L534.7,264.02L535.48,264.84L535.89,266.87L536.7,267.86L536.86,268.68L536.56,268.97L536.37,269.81L537.04,271.74L537.72,271.86L538.91,272.19L540.17,272.27L541.07,273.25Z" class="land" id="TW-CHA" title="Changhua"/>
    <path d="M538,299.53L538.02,299.97L538.27,300.31L538.51,301.19L539.01,302.31L539.36,303.3L539.48,304.21L538.98,305.71L538.46,305.95L538.05,306.83L537.99,308.7L538.12,309.51L538.67,309.96L538.83,310.7L538.83,311.88L538.64,312.43L538.24,313.24L538.02,314.1L537.61,314.6L537.33,315.44L537.09,317.71L537.15,318.46L537.55,318.62L538.12,318.09L538.43,317.58L538.83,317.3L539.11,317.78L539.2,318.69L539.61,319.55L540.48,319.86L541.56,320.32L542.46,319.98L543.15,319.58L543.74,319.04L544.76,319L545.26,318.69L545.58,318.12L546,317.95L546.88,318.12L547.34,318.76L547.49,319.81L547.37,320.29L546.98,320.8L547.69,321.92L547.84,322.87L547.84,323.86L547.37,324.39L546.76,324.6L545.94,324.26L545.17,323.72L544.21,323.72L543.55,323.99L542.4,323.99L541.72,323.89L541.16,323.41L539.88,324.05L539.17,324.26L538.79,323.48L538.73,322.47L537.8,322.02L537.09,322.23L536.53,322.56L536.1,322.93L535.13,323.28L532.4,323.21L530.72,322.7L529.47,322.47L527.65,321.68L526.09,320.8L525,319.62L524.28,318.66L524.19,317.81L523.63,317.14L522.88,316.63L521.4,317.11L520.74,317.51L518.1,317.68L517.23,317.92L515.92,318.53L515.09,318.23L514.13,317.71L513.18,317.64L511.94,318.19L511.2,319.58L509.89,320.05L509.4,320.36L509.15,321.04L508.52,321.68L507.63,321.82L506.7,322.13L506.26,322.76L506.01,323.76L505.67,324.46L504.18,324.5L503.22,324.84L502.65,325.28L501.91,326.06L501.69,326.94L501.22,327.52L500.45,327.92L499.92,328.39L499.52,328.94L498.7,328.57L498.43,327.86L497.93,327.59L497.37,327.82L496.97,328.5L496.91,330.09L496.59,331.04L496.18,331.59L495.63,331.67L494.36,331.77L493.33,331.37L492.53,330.99L491.96,330.89L491.22,331.03L490.75,331.33L489.88,331.3L489.19,330.96L488.83,330.45L487.21,330.38L486.72,330.16L486.63,329.42L487.04,329.36L487.16,329.01L487.01,328.51L486.05,327.21L485.93,326.82L486.05,325.97L485.97,325.37L486.29,324.99L486.37,324.2L486.08,324.04L486.08,322.74L486.2,321.79L486.78,321.22L486.95,320.69L486.75,320.69L486.55,321.16L486.11,321.22L486.16,320.43L486.11,319.45L486.16,318.62L486.03,318.37L486.11,317.93L486.2,316.88L486.7,315.7L487.13,315.04L487.22,314.51L487.47,313.99L487.5,313.65L487.71,313.12L487.94,312.83L488.55,311.37L489.1,310.8L489.45,310.14L489.88,309.66L490.38,309.46L490.64,309.75L491.04,309.73L491.04,309.34L489.82,309.09L489.39,309.18L489.1,308.93L489.13,308.14L489.28,307.15L488.84,307.09L488.52,306.43L488.87,306.55L488.87,306.93L489.25,307L489.36,306.74L489.48,305.63L489.65,304.77L489.92,304.08L490.58,304.11L490.58,303.35L490.18,303.35L489.97,302.94L489.65,302.72L490.03,301.92L489.74,301.67L489.8,301.22L490.09,301.01L490.18,300.56L490.38,300.24L490.64,300.28L491.22,299.17L490.93,299.01L490.73,299.42L490.44,299.48L490.26,299.17L490.55,298.78L490.87,298.65L490.78,298.21L490.64,298.08L490.21,298.33L489.74,298.24L489.39,298.49L489.13,298.87L488.72,298.62L489.16,298.37L489.54,297.96L489.54,297.64L490.15,297.64L490.41,297.3L491.27,296.66L491.8,296.4L492.3,296.02L492.87,295.42L493.2,295.55L493.2,295.92L493.8,296.24L494.29,296.4L494.18,296.69L494.5,296.87L495.06,296.15L495.19,296.24L496.07,296.18L496.1,295.96L495.57,295.87L495.22,295.71L495.37,295.48L495.98,295.55L497,295.8L497.49,295.8L497.8,295.03L497.9,294.28L498.59,294.34L498.54,294.85L499,295.01L499.53,294.87L499.58,295.1L500.36,295.1L501.74,295.42L503.05,295.96L506.18,295.67L508.45,295.59L509.8,295.06L514.57,295.22L515.77,295.02L516.21,294.69L516.7,294.93L517.29,295.55L518.12,295.83L520.39,296.4L523.75,298.24L530.46,298.12L533,298.72L537.89,299.54Z" class="land" id="TW-YUN" title="Yunlin"/>
    <path d="M516.18,331.46L516.98,330.87L518.02,330.48L518.82,330.92L519.41,332.05L520.22,332.54L520.81,332.38L521.55,332.33L522.2,332.6L522.6,333.15L523.3,333.64L523.55,334.45L524.09,334.76L524.64,335.25L524.34,335.96L523.79,336.61L523.25,336.78L522.9,337.59L522.3,337.81L521.1,337.43L520.81,337L520.46,336.94L520.02,337.32L519.27,338.14L518.72,339.16L517.57,339.38L517.03,338.61L516.38,338.02L515.89,337.1L514.85,336.67L513.21,336.67L512.7,336.51L512.81,335.8L513.05,335.42L513.1,334.72L512.61,334.11L512.11,333.64L512.11,333.2L512.61,332.71L513.21,332.5L513.9,332.5L514.74,332.71L515.59,331.89Z" class="land" id="TW-CYI" title="Chiayi"/>
    <path d="M547.49,319.81L550.23,319.71L550.91,319.92L551.71,320.47L552.91,320.73L554.1,321.12L555.79,321.17L556.68,321.56L556.99,322.48L557.13,325.45L556.73,326.27L556.19,326.71L555.69,327.41L555.79,328.66L556.34,329.48L557.08,330.29L557.33,331.7L557.58,333.53L558.12,334.79L558.92,335.55L562.05,335.93L563.1,335.93L563.89,335.44L565.73,335.28L567.82,335.38L568.81,335.49L570.06,335.77L570.93,335.77L571.53,336.09L571.33,336.68L569.34,336.58L568.54,337.12L567.45,337.44L565.26,337.71L564.52,338.58L563.96,339.78L562.08,340.86L561.24,340.91L560.39,341.56L559.74,342.65L559.44,343.78L558.65,344.87L557.6,346.6L556.41,347.08L555.51,347.03L554.97,347.69L554.28,348.99L553.58,349.93L552.43,350.31L551.04,350.36L550.15,351.23L549.85,352.19L548.75,352.96L548.01,353.76L546.07,354.47L545.13,355.12L544.98,356.47L543.83,356.64L542.64,356.47L541.94,356.47L541.49,355.88L538.71,355.99L538.61,357.18L538.46,358.04L538.31,359.35L538.41,360.37L538.86,361.24L539.5,362L539.65,362.43L539.41,362.97L539.11,363.19L538.96,363.3L537.81,363.19L536.57,363.35L536.13,363.63L535.09,363.51L534.48,362.97L533.44,362.86L532.74,363.08L531.65,364.43L530.76,364.54L529.86,364.54L529.21,363.84L528.17,363.46L527.18,363.41L526.58,363.24L526.03,362.7L526.13,361.45L526.73,361.08L526.98,360.32L526.87,359.4L526.67,358.75L526.13,358L526.08,356.59L526.18,355.55L526.18,354.42L527.27,352.64L527.43,351.66L526.78,350.68L525.98,350.58L524.39,349.98L524.09,349.49L525.14,348.25L524.74,347.81L523.89,347.8L522.5,347.92L522.2,347.53L522.15,346.61L523.34,345.68L523.59,345.25L523.1,344.33L522.5,344.66L520.85,344.72L520.16,344.11L519.17,343.36L518.67,342.87L518.13,342.54L517.28,342.33L516.09,342.98L515.14,343.03L514.49,342.6L513.9,342.38L512.85,342.66L512.31,343.15L511.37,343.42L509.17,343.46L507.93,343.95L506.88,344.72L506.19,345.15L505.24,345.64L503.95,345.64L503.6,346.01L503.35,346.78L501.67,347.04L501.26,347.59L501.12,348.83L500.82,349.43L499.28,349.53L498.83,349.86L498.83,351.1L498.54,351.71L497.24,351.97L496.2,352.57L495.45,353.59L495.06,354.85L494.66,355.55L493.51,355.98L492.64,355.98L492.29,355.87L491.8,355.38L491.35,355.32L491.2,355.93L490.61,355.98L489.91,355.38L489.37,354.65L488.78,354.03L488.39,353.86L487.47,353.59L487.36,353.3L486.9,352.76L486.16,352.32L485.04,352.42L484.43,352.14L484.46,351.13L484.92,351.02L485.04,350.77L484.89,350.49L484.55,350.49L485.02,349.33L485.35,348.72L485.43,348.13L486.16,347.81L487.38,347.12L487.5,346.49L487.88,345.65L488.28,345.3L488.49,344.58L488.23,343.41L487.94,343.19L487.53,343.37L487.36,343.85L487.16,343.69L487.04,343.19L486.98,341.93L487.07,341.86L487.16,341.04L486.88,340.66L486.62,340.09L486.7,339.25L486.7,338.42L486.23,337.96L485.62,338.35L485.39,338.07L485.41,337.68L485.93,337.14L486.15,337.11L486.15,336.63L486.6,335.37L486.95,335.06L487.19,334.62L487.09,334.38L486.18,334L484.58,333.82L484.02,333.32L483.85,332.91L483.79,332.27L483.82,330.63L483.94,330.31L484.22,330.06L484.78,330.06L485.67,330.31L486.26,330.34L486.72,330.16L487.21,330.38L488.83,330.45L489.19,330.96L489.88,331.3L490.75,331.33L491.22,331.03L491.96,330.89L492.53,330.99L493.33,331.37L494.36,331.77L495.63,331.67L496.18,331.59L496.59,331.04L496.91,330.09L496.97,328.5L497.37,327.82L497.93,327.59L498.43,327.86L498.7,328.57L499.52,328.94L499.92,328.39L500.45,327.92L501.22,327.52L501.69,326.94L501.91,326.06L502.65,325.28L503.22,324.84L504.18,324.5L505.67,324.46L506.01,323.76L506.26,322.76L506.7,322.13L507.63,321.82L508.52,321.68L509.15,321.04L509.4,320.36L509.89,320.05L511.2,319.58L511.94,318.19L513.18,317.64L514.13,317.71L515.09,318.23L515.92,318.53L517.23,317.92L518.1,317.68L520.74,317.51L521.4,317.11L522.88,316.63L523.63,317.14L524.19,317.81L524.28,318.66L525,319.62L526.09,320.8L527.65,321.68L529.47,322.47L530.72,322.7L532.4,323.21L535.13,323.28L536.1,322.93L536.53,322.56L537.09,322.23L537.8,322.02L538.73,322.47L538.79,323.48L539.17,324.26L539.88,324.05L541.16,323.41L541.72,323.89L542.4,323.99L543.55,323.99L544.21,323.72L545.17,323.72L545.94,324.26L546.76,324.6L547.37,324.39L547.84,323.86L547.84,322.87L547.69,321.92L546.98,320.8L547.37,320.29ZM516.18,331.46L515.59,331.89L514.74,332.71L513.9,332.5L513.21,332.5L512.61,332.71L512.11,333.2L512.11,333.64L512.61,334.11L513.1,334.72L513.05,335.42L512.81,335.8L512.7,336.51L513.21,336.67L514.85,336.67L515.89,337.1L516.38,338.02L517.03,338.61L517.57,339.38L518.72,339.16L519.27,338.14L520.02,337.32L520.46,336.94L520.81,337L521.1,337.43L522.3,337.81L522.9,337.59L523.25,336.78L523.79,336.61L524.34,335.96L524.64,335.25L524.09,334.76L523.55,334.45L523.3,333.64L522.6,333.15L522.2,332.6L521.55,332.33L520.81,332.38L520.22,332.54L519.41,332.05L518.82,330.92L518.02,330.48L516.98,330.87Z" class="land" id="TW-CYQ" title="Chiayi"/>
    <path d="M539.11,363.19L539.69,363.51L540.09,364.13L540.09,364.77L539.57,365.38L539.15,366.16L538.52,366.83L538.3,367.97L538.18,368.91L537.01,370.24L536.38,370.86L535.87,371.55L535.3,371.79L534.45,372.56L533.74,373.66L533.21,374.39L532.95,375.36L532.92,376.41L532.62,377.06L532.47,378.04L531.72,378.76L531.31,379.58L530.24,379.74L528.86,381.36L528.25,381.57L526.35,383.23L525.87,383.51L525.31,384.16L524.94,385.17L523.93,386.02L521.92,387.52L521.54,388.24L521.09,388.94L519.93,389.06L519.41,389.43L519.41,390.28L519.34,390.97L517.93,391.98L517.81,392.75L517.51,393.23L516.79,395.03L516.53,396.17L515.7,396.94L515.53,397.51L515.53,398.51L514.18,398.51L513.51,398.19L512.76,398.11L511.9,398.19L511.08,398.67L510.75,399.21L510.04,399.89L509.55,400.58L508.95,401.07L508.21,401.38L507.12,401.43L505.64,401.38L504.67,401.1L503.74,401.02L502.84,400.74L501.75,400.58L501.27,400.22L500.68,400.42L500.46,400.86L500.04,401.1L499.23,400.58L497.02,400.58L496.09,399.49L493.67,399.16L492.5,398.8L492.01,398.51L491.52,398.39L490.88,398.37L490.61,398.47L489.82,399.06L489.62,398.97L489.69,398.05L489.82,397.39L489.82,396.22L489.51,394.93L488.99,393.92L488.55,393.2L488.52,392.92L488.31,392.64L488.17,392.19L487.97,392L487.47,391.22L486.7,390.37L485.41,389.2L484.72,388.47L484.17,388.06L483.85,387.71L482.86,386.89L482.54,386.77L481.96,386.33L481.49,386.11L480.37,385.38L480.14,385.16L479.55,384.87L478.68,384.66L478.42,384.46L478.62,384.18L478.77,383.49L478.42,383.24L477.93,383.68L477.41,383.9L477.03,383.42L476.68,382.73L476.79,382.51L477.31,382.51L477.61,382.32L477.58,382L477.28,381.22L477.62,381.06L477.58,380.81L477.17,380.97L476.97,380.33L475.37,380.36L475.29,380.81L474.88,380.61L474.77,380.3L474.91,379.87L474.93,379.42L475.14,378.45L475.08,377.65L475.7,377.17L476.56,376.62L476.89,376.32L477.46,375.98L477.98,375.79L479,375.22L480.13,375.13L480.3,374.65L480.28,374.34L480.43,373.92L480.19,373.01L479.67,372.67L479.36,372.07L479.14,370.62L478.91,370.05L478.55,369.83L478.32,369.37L478.39,368.42L478.77,368.13L479.12,367.37L479.55,366.66L479.61,366.38L479.96,365.63L480.1,365.12L479.96,364.81L480.1,364.52L480.19,363.41L480.21,362.6L480.95,362.15L481.64,362.02L481.87,361.7L481.87,361.29L482.34,360.89L482.49,360.54L483.06,360.26L482.86,359.98L482.6,359.94L482.63,359.09L483.01,358.68L483.39,358.65L483.91,358.11L483.83,357.76L482.75,356.94L482.64,356.27L483.18,355.73L483.18,355.36L482.57,355.27L482.57,354.88L482.8,354.6L483.21,353.81L483.47,352.92L483.55,352.19L483.73,352.14L484.4,352.67L485.15,352.74L485.27,352.64L486.16,352.39L486.95,353.01L487.33,353.64L487.47,353.59L488.39,353.86L488.78,354.03L489.37,354.65L489.91,355.38L490.61,355.98L491.2,355.93L491.35,355.32L491.8,355.38L492.29,355.87L492.64,355.98L493.51,355.98L494.66,355.55L495.06,354.85L495.45,353.59L496.2,352.57L497.24,351.97L498.54,351.71L498.83,351.1L498.83,349.86L499.28,349.53L500.82,349.43L501.12,348.83L501.26,347.59L501.67,347.04L503.35,346.78L503.6,346.01L503.95,345.64L505.24,345.64L506.19,345.15L506.88,344.72L507.93,343.95L509.17,343.46L511.37,343.42L512.31,343.15L512.85,342.66L513.9,342.38L514.49,342.6L515.14,343.03L516.09,342.98L517.28,342.33L518.13,342.54L518.67,342.87L519.17,343.36L520.16,344.11L520.85,344.72L522.5,344.66L523.1,344.33L523.59,345.25L523.34,345.68L522.15,346.61L522.2,347.53L522.5,347.92L523.89,347.8L524.74,347.81L525.14,348.25L524.09,349.49L524.39,349.98L525.98,350.58L526.78,350.68L527.43,351.66L527.27,352.64L526.18,354.42L526.18,355.55L526.08,356.59L526.13,358L526.67,358.75L526.87,359.4L526.98,360.32L526.73,361.08L526.13,361.45L526.03,362.7L526.58,363.24L527.18,363.41L528.17,363.46L529.21,363.84L529.86,364.54L530.76,364.54L531.65,364.43L532.74,363.08L533.44,362.86L534.48,362.97L535.09,363.51L536.13,363.63L536.57,363.35L537.81,363.19L538.96,363.3Z" class="land" id="TW-TNN" title="Tainan"/>
    <path d="M515.91,442.03L516.52,441.95L516.95,441.46L517.31,440.89L517.47,440L517.79,439.36L517.94,437.91L518.39,436.31L518.66,435.94L518.53,434.94L517.56,433.6L517.04,433.6L517.07,427.48L517.19,426.11L517.42,425.39L517.51,424.74L517.94,424.45L518.23,423.93L518.71,422.44L518.68,420.54L519.04,419.88L519.11,413.98L519.56,412.69L520.2,410.34L520.57,408L521.32,407.47L522.01,407.51L522.59,407.9L523.11,407.88L523.71,408.26L524.18,408.74L525.35,408.8L526.72,408.23L527.64,408.29L528.5,408.72L529.55,408.8L530.12,408.51L530.77,407.88L531.42,407L531.73,406.12L532.28,405.56L533.78,404.62L534.67,403.91L535.46,403.17L536.83,403.09L538.07,402.76L539.22,402.68L539.87,402.97L540.27,403.7L540.47,404.75L541.06,405.13L541.83,405.18L543.44,404.78L544.2,404.32L544.54,403.6L545.21,402.73L545.88,402.73L547.1,402.84L547.97,403.05L550.29,404.48L552.13,407L552.82,407.64L553.57,407.64L554.06,407.32L554.61,406.67L555.21,406.12L555.82,405.89L556.43,405.21L557.01,404.7L558.05,404.59L558.75,404.87L559.15,405.32L559.67,405.61L560.54,405.3L561.78,406.18L561.79,406.26L562.18,408.21L562.16,409.45L562.43,410.01L563.33,410.56L564.61,410.64L565.31,411.12L565.64,411.63L565.64,413.9L565.91,414.33L565.51,414.82L565.29,415.6L565.29,417.67L564.94,418.56L564.59,419.1L564.52,420.2L564.19,420.82L563.75,421.21L560.42,421.21L559.86,421.68L559.23,423.11L558.81,423.66L558.02,423.89L557.05,424.03L556.6,424.28L555.48,424.63L554.69,424.55L554.26,424.9L554.26,425.48L554.01,425.91L553.54,426.45L553.19,427.69L552.65,428.42L552.29,429.07L551.6,429.99L551.48,430.63L551.21,431.35L550.73,431.86L550.26,432.65L550.26,434.69L549.84,435.16L549.54,435.77L549.73,436.39L549.79,436.98L549.09,438.52L548.79,439.28L548.67,440.02L549.04,440.75L549.37,441.12L549.77,441.9L549.88,443.01L550.73,444.41L551.05,445.16L551.08,446.48L550.9,447.18L550.29,447.61L549.86,448.24L549.96,449.15L550.24,449.68L550.16,450.27L550.58,450.79L551.08,451.01L551.68,451.62L552.13,452.32L553.29,453.56L553.52,454.39L553.81,454.76L553.54,455.24L553.01,455.79L551.77,455.89L551.03,456.16L550.71,456.8L550.51,457.7L550.24,458.31L549.81,459.63L549.48,460.14L549.51,460.97L550.11,461.4L550.68,461.95L551.35,462.67L552.49,463.18L553.12,463.2L553.46,463.82L554.46,464.74L554.58,465.94L554.56,467L554.09,467.4L553.52,467.75L553.34,468.15L553.69,468.69L554.13,468.93L554.71,469.46L555.23,470.08L555.53,470.78L554.98,471.79L555.03,472.69L555.66,472.92L556.55,472.92L558.19,473.79L558.56,474.32L559.01,474.65L559.98,474.79L560.71,474.94L561.3,475.4L561.77,475.96L562.26,476.39L562.96,476.31L563.46,475.9L564.13,475.53L564.8,475.47L565.18,475.37L565.29,475.63L565.29,476.39L565.03,476.73L564.8,477.29L564.77,477.92L564.92,478.65L565.05,478.89L565,479.67L564.39,480.34L564.39,480.84L564.53,481.19L564.51,481.91L564.74,482.53L564.74,483.13L564.51,483.62L564.53,484.13L564.77,484.41L564.77,485.07L564.53,485.66L565,486.1L565.03,486.48L564.85,486.73L563.92,487.41L563.87,487.83L563.92,488.36L564.33,489.7L564.62,490.09L564.92,490.11L565.58,490.46L565.29,490.83L565.23,491.74L564.92,492.21L564.53,492.61L564.51,493.84L564.71,494.25L564.68,495.06L564.74,495.41L564.74,496.91L565.15,497.82L565.34,498.07L565.44,498.53L565.11,498.69L564.36,499.32L564.15,499.6L564.15,500.45L563.61,500.85L563.06,501.01L563.06,501.95L562.91,502.39L561.93,502.86L561.52,503.17L560.62,503.58L560,503.58L559.66,503.86L559.58,504.67L559.81,504.89L559.78,505.48L559.4,506.49L559.28,506.98L559.34,507.81L559.6,508.83L560.07,509.59L560.04,509.87L560.56,510.27L561.11,511.15L561.11,511.31L561.46,511.87L561.41,512.72L561.75,513.31L562.01,513.53L561.8,513.77L561.41,514L560.53,514L560.07,513.59L559.86,512.9L559.81,511.96L559.22,512L558.55,511.52L558.35,510.93L557.51,510.15L557.22,509.62L556.64,509.83L556,509.78L555.66,509.43L555.56,509.06L555.37,509.02L555.25,509.43L554.84,509.39L554.78,508.81L554.23,508.58L553.21,508.65L552.98,508.49L552.69,508.09L552.38,508.02L551.91,507.74L551.56,507.08L551.27,506.93L550.89,506.96L550.78,507.17L550.49,507.24L550.4,507.55L549.77,507.81L549.53,508.12L549.33,508.74L549.36,509.3L549.5,509.59L549.47,510.09L549.26,510.09L549.1,510.43L548.77,510.59L548.74,511.4L547.47,511.62L547.15,511.43L546.52,510.46L546.54,509.87L546.34,509.68L545.78,509.83L545.61,509.39L545.61,508.71L545.75,508.3L545.78,507.33L545.85,507.24L545.82,506.24L546.16,505.59L546.16,504.92L545.85,504.14L545.38,503.7L545.38,503.42L545.18,502.95L544.74,502.83L544.13,502.17L543.76,501.33L543.73,501.01L543.52,500.82L543.2,500.04L543.03,499.44L543.09,498.88L543.29,498.44L543.55,498.13L544.15,497.79L543.99,496.78L544.33,496.06L545.03,496.1L545.26,495.71L545.35,495.25L545.29,494.72L544.82,493.24L544.59,493.15L544.77,492.71L545.03,492.59L545.49,492.56L546.37,491.9L546.25,491.39L546.16,490.39L545.9,490.09L545.82,489.39L545.52,488.89L545.61,488.42L545.38,488.26L545.23,487.89L544.94,487.8L544.74,487.41L544.85,487.04L544.33,486.54L544.3,486.07L544.59,485.51L544.48,485.19L544.15,484.85L544.13,484.45L544.22,483.97L543.89,483.13L543.81,482.16L543.29,480.93L542.99,480.62L542.85,479.78L543.11,479.3L543.11,478.93L542.47,477.8L542.34,477.77L541.98,476.92L541.95,476.51L541.52,475.76L540.53,474.7L539.95,474.19L539.34,473.78L539.25,473.57L539.37,472.65L539.55,472.44L539.55,472.05L539.34,471.72L539.14,471.03L539.06,470.48L538.7,469.92L538.62,469.51L538.59,468.26L538.42,467.89L538.06,467.48L537.92,467.04L536.76,465.75L536.12,465.12L535.4,464.59L534.81,463.99L534.35,463.09L534.18,462.42L533.8,461.99L533.72,461.73L533.36,461.61L533.21,461.14L532.81,460.6L532.43,460.39L532.09,460.04L529.7,458.28L529.07,457.93L528.77,457.62L528.48,457.56L527.82,457.12L527.35,456.93L526.86,456.59L524.54,455.43L524.25,455.18L523.14,454.54L522.91,454.36L522.01,453.98L520.79,453.26L519.11,452L518.68,451.79L518.06,451.03L517.46,450.37L517.08,449.74L517.46,449.42L517.9,449.42L517.66,449.08L517.4,449.08L516.85,449.49L516.71,448.83L515.9,448.43L515.9,442.58ZM511.88,462.02L512.21,462.54L512.37,463.15L511.95,463.52L511.32,463.72L510.31,464.85L509.95,465.41L509.5,465.89L508.57,465.85L508.38,465.21L508.71,464.6L509.12,464.21L509.19,463.6L509.61,462.75L510.05,462.18L510.54,461.87L511.28,461.9Z" class="land" id="TW-PIF" title="Pingtung"/>
    <path d="M561.79,406.26L561.78,406.18L560.54,405.3L559.67,405.61L559.15,405.32L558.75,404.87L558.05,404.59L557.01,404.7L556.43,405.21L555.82,405.89L555.21,406.12L554.61,406.67L554.06,407.32L553.57,407.64L552.82,407.64L552.13,407L550.29,404.48L547.97,403.05L547.1,402.84L545.88,402.73L545.21,402.73L544.54,403.6L544.2,404.32L543.44,404.78L541.83,405.18L541.06,405.13L540.47,404.75L540.27,403.7L539.87,402.97L539.22,402.68L538.07,402.76L536.83,403.09L535.46,403.17L534.67,403.91L533.78,404.62L532.28,405.56L531.73,406.12L531.42,407L530.77,407.88L530.12,408.51L529.55,408.8L528.5,408.72L527.64,408.29L526.72,408.23L525.35,408.8L524.18,408.74L523.71,408.26L523.11,407.88L522.59,407.9L522.01,407.51L521.32,407.47L520.57,408L520.2,410.34L519.56,412.69L519.11,413.98L519.04,419.88L518.68,420.54L518.71,422.44L518.23,423.93L517.94,424.45L517.51,424.74L517.42,425.39L517.19,426.11L517.07,427.48L517.04,433.6L517.56,433.6L518.53,434.94L518.66,435.94L518.39,436.31L517.94,437.91L517.79,439.36L517.47,440L517.31,440.89L516.95,441.46L516.52,441.95L515.91,442.03L515.41,442.03L515.12,442.44L515.04,448.36L514.81,448.61L514.44,448.64L514,448.52L512.99,448.01L511.86,447.16L510.93,446.57L509.71,445.6L509.21,445.09L508.87,445.19L508.69,444.75L508.09,444.05L507.82,443.96L507.82,443.62L507.45,443.39L507.27,442.99L506.75,442.65L506.46,442.21L506.11,442.21L505.59,441.61L505.03,441.17L504.89,441.17L504.37,440.63L503.7,440.51L503.43,440.14L503.6,439.3L503.23,438.51L502.2,437.47L500.76,435.75L499.27,433.44L499.14,432.55L499.17,432.31L498.77,431.95L498.96,431.76L498.68,431.02L498.13,430.51L497.9,429.85L497.72,429.69L497.57,429.16L497.52,428.12L497.64,427.52L497.8,427.21L498.21,426.77L498.5,426.74L499.06,426.24L499.03,424.72L498.8,424.38L499.23,424.35L499.37,424.84L499.4,425.32L499.73,425.32L499.89,424.97L499.81,424.56L499.93,424.03L499.75,423.55L499.75,423.18L500.1,423.06L500.1,422.52L499.58,422.21L498.77,422.99L498.16,421.76L498.16,421.39L497.87,420.51L497.61,420.31L497.52,419.97L497.14,419.28L497,418.72L496.5,417.61L496.15,417.11L496.12,416.79L495.89,416.54L495.75,416.01L495.22,414.81L494.39,412.67L493.69,411.07L493.2,411.23L492.64,411.09L492.56,410.47L493.05,410.4L493.28,410.18L492.38,407.26L492.2,407.03L491.94,406.27L491.65,405.01L492.18,405.01L492.64,405.21L493.08,404.7L493.13,403.88L493.43,403.7L493.51,403.01L492.97,403.01L492.61,403.28L492.73,403.54L492.5,403.75L492.64,404.42L492.15,404.61L491.94,403.88L491.63,403.98L491.86,404.7L491.6,404.67L491.31,403.95L491.22,403.44L490.87,402.46L489.97,400.16L489.8,399.31L490.18,398.9L490.88,398.37L491.52,398.39L492.01,398.51L492.5,398.8L493.67,399.16L496.09,399.49L497.02,400.58L499.23,400.58L500.04,401.1L500.46,400.86L500.68,400.42L501.27,400.22L501.75,400.58L502.84,400.74L503.74,401.02L504.67,401.1L505.64,401.38L507.12,401.43L508.21,401.38L508.95,401.07L509.55,400.58L510.04,399.89L510.75,399.21L511.08,398.67L511.9,398.19L512.76,398.11L513.51,398.19L514.18,398.51L515.53,398.51L515.53,397.51L515.7,396.94L516.53,396.17L516.79,395.03L517.51,393.23L517.81,392.75L517.93,391.98L519.34,390.97L519.41,390.28L519.41,389.43L519.93,389.06L521.09,388.94L521.54,388.24L521.92,387.52L523.93,386.02L524.94,385.17L525.31,384.16L525.87,383.51L526.35,383.23L528.25,381.57L528.86,381.36L530.24,379.74L531.31,379.58L531.72,378.76L532.47,378.04L532.62,377.06L532.92,376.41L532.95,375.36L533.21,374.39L533.74,373.66L534.45,372.56L535.3,371.79L535.87,371.55L536.38,370.86L537.01,370.24L538.18,368.91L538.3,367.97L538.52,366.83L539.15,366.16L539.57,365.38L540.09,364.77L540.09,364.13L539.69,363.51L539.11,363.19L539.41,362.97L539.65,362.43L539.5,362L538.86,361.24L538.41,360.37L538.31,359.35L538.46,358.04L538.61,357.18L538.71,355.99L541.49,355.88L541.94,356.47L542.64,356.47L543.83,356.64L544.98,356.47L545.13,355.12L546.07,354.47L548.01,353.76L548.75,352.96L549.85,352.19L550.15,351.23L551.04,350.36L552.43,350.31L553.58,349.93L554.28,348.99L554.97,347.69L555.51,347.03L556.41,347.08L557.6,346.6L558.65,344.87L559.44,343.78L559.74,342.65L560.39,341.56L561.24,340.91L562.08,340.86L563.96,339.78L564.52,338.58L565.26,337.71L567.45,337.44L568.54,337.12L569.34,336.58L571.33,336.68L571.51,336.13L573.97,336.27L574.93,336.76L575.99,337.25L576.91,337.92L577.11,339.09L577.49,339.71L577.78,340.46L578.48,340.57L578.78,341.46L578.62,343.66L577.93,344.07L576.53,344.61L576.12,345.4L575.54,346.29L574.98,346.64L574.48,348.1L574.93,348.41L575.85,348.78L576.53,349.37L577.63,349.86L578.73,350.62L579.97,351.59L580.87,352.25L581.07,353.08L580.96,354.22L580.75,354.44L580.49,354.69L579.45,355.08L578.35,355.63L577.21,356.34L576.1,356.92L574.67,357.27L573.61,357.6L572.64,357.62L572.14,358.25L571.17,359.82L570.03,360.74L569.33,361.55L568.71,361.87L567.81,362.01L567.25,362.39L566.72,362.84L566.57,363.36L566.82,363.82L566.89,364.74L566.52,365.52L566.52,367.48L566.82,367.91L566.8,368.42L566.42,368.91L565.75,369.32L565.45,369.99L564.08,371.44L564.15,379.23L563.68,380.07L562.89,381.18L562.54,381.99L562.62,382.5L563.01,382.97L563.61,384.01L563.68,384.63L563.36,385.2L562.17,385.93L561.55,386.36L561.25,387.77L560.87,388.28L560.38,389.18L559.66,389.98L558.99,390.88L558.31,391.84L557.72,392.6L557.37,393.17L557.37,396.38L557.77,397.03L558.07,397.91L558.17,399.59L558.79,401.78L559.39,402.26L560.28,402.35L561.27,402.59L561.99,403.26L562.24,404.1L562.2,405.64Z" class="land" id="TW-KHH" title="Kaohsiung"/>
    <path d="M627.14,340.99L626.68,342.34L626.47,342.55L626.38,343.37L626.21,343.69L626.21,344.17L625.93,344.17L625.72,344.55L625.72,345.08L625.54,345.15L625.4,346.29L625.23,346.89L625.19,347.36L625.4,347.96L625.11,348.62L625.19,349.1L625,349.32L624.73,350.02L624.75,351.5L624.59,351.88L624.59,352.64L624.33,352.92L624.18,353.28L624.18,353.74L623.43,353.62L622.99,353.81L622.53,354.22L622.47,354.41L621.91,355.04L621.21,356.21L621.19,356.59L620.82,356.87L620.49,357.79L620.61,358.29L620.52,359.12L620.08,359.3L619.74,360.35L619.74,360.92L619.45,362.38L619.27,362.53L619.18,362.98L619.25,363.28L619.59,363.23L619.82,363.41L619.82,363.67L619.22,364.37L618.81,364.96L618.55,365.12L618.03,365.09L617.91,365.43L617.5,365.66L617.24,366.54L617.27,367.14L617.44,367.49L617.5,368.28L617.68,368.66L618.08,369.13L617.94,369.61L618.43,370.05L618.52,370.71L618.4,370.83L618.32,371.4L618.08,371.97L617.68,372.22L617.59,372.5L617.62,373.14L617.5,373.64L617.65,373.78L617.88,374.53L618.14,374.84L618.52,375.06L618.92,375.16L618.96,375.34L618.17,376.26L617.91,376.36L617.29,376.04L617.1,376.39L617.1,376.64L616.46,377.31L616.23,378.18L616.05,378.34L615.27,378.41L615.07,378.31L614.19,378.31L613.82,378.66L613.36,379.35L613.36,379.96L613,380.24L613.24,380.93L612.83,381.09L612.36,381.47L612.25,381.82L612.2,382.44L612.07,382.67L612.07,383.52L611.87,383.68L611.9,384.09L611.32,385.41L611.27,386.01L611.38,386.17L611,386.45L611.12,387.05L610.86,387.27L610.51,387.3L610.22,387.5L610.25,388.1L609.96,388.6L609.67,388.69L609.44,389.61L609.6,389.8L609.46,390.49L609.14,390.87L609,391.47L608.71,391.75L608.71,392.07L608.28,392.64L608.04,392.66L607.76,393.1L607.32,393.51L607.25,393.86L606.47,394.46L606.24,394.46L605.83,394.71L605.8,394.96L605.43,395.16L605.11,395.94L605,396.45L605,397.18L604.56,397.52L604.53,397.96L604.3,398.31L604.33,398.59L604,398.97L603.95,399.29L603.4,399.66L603.14,400.03L603.05,400.73L602.65,401.04L602.53,401.58L601.91,402.62L601.68,402.78L601.19,402.78L600.82,403.15L600.52,403.79L600.64,404.2L600.52,404.45L600.09,404.64L599.56,404.27L599.04,404.36L598.96,404.61L598.35,404.57L598.09,404.73L597.59,404.64L597.51,404.96L596.75,405.4L596.46,405.83L596.2,405.93L595.74,406.53L595.79,407.07L595.68,407.63L595.33,408.1L595.33,408.45L595.5,408.7L595.85,408.89L596.08,409.78L596.28,410.02L596.43,410.63L596.69,411.25L596.87,411.97L596.87,412.51L596.43,412.89L595.97,413.11L595.62,412.86L595.07,413.33L594.75,413.83L594.66,414.77L594.49,415.37L594.26,415.66L593.93,415.75L594.05,416.31L594.45,416.1L594.08,416.82L593.03,417.58L592.46,417.71L591.96,418.15L591.3,418.93L590.97,419.15L589.9,420.35L588.85,421.39L587.52,422.01L586.57,422.7L585.98,422.7L585.37,422.93L585.03,423.18L584.15,423.66L583.61,424.12L583.43,424.12L582.94,424.6L582.06,425.57L581.54,425.95L581.23,426.04L580.15,426.52L579.56,426.86L578.88,427.64L578.65,427.99L578.18,429L577.62,430.42L577.45,431.2L577.08,432.59L576.84,434.85L576.9,435.63L576.81,435.88L576.41,436.23L575.94,436.83L575.65,436.92L575.12,437.46L574.63,437.81L573.93,438.68L573.62,439.44L573.47,439.97L573.27,440.39L572.98,441.48L572.46,443.02L572.46,443.24L571.99,444.34L571.94,444.65L571.64,445.25L571.53,446.06L571.21,446.91L570.86,448.39L570.66,448.99L570.45,450.06L570.26,450.59L570.19,451.06L569.64,452.28L569.47,452.97L569.26,453.38L569.03,454.2L568.66,455.14L568.2,455.83L567.84,456.8L567.7,457.6L567.38,458.22L567.14,458.47L566.83,459.41L566.77,459.98L566.42,461.04L566.37,461.87L565.72,462.45L565.64,462.89L565.2,463.74L565.05,464.34L564.92,464.5L564.65,465.66L564.56,467.07L564.56,467.94L564.51,468.58L564.51,470.74L564.59,471.52L564.62,472.46L564.77,473.03L564.77,473.41L564.94,474.1L564.94,474.85L565.18,475.37L564.8,475.47L564.13,475.53L563.46,475.9L562.96,476.31L562.26,476.39L561.77,475.96L561.3,475.4L560.71,474.94L559.98,474.79L559.01,474.65L558.56,474.32L558.19,473.79L556.55,472.92L555.66,472.92L555.03,472.69L554.98,471.79L555.53,470.78L555.23,470.08L554.71,469.46L554.13,468.93L553.69,468.69L553.34,468.15L553.52,467.75L554.09,467.4L554.56,467L554.58,465.94L554.46,464.74L553.46,463.82L553.12,463.2L552.49,463.18L551.35,462.67L550.68,461.95L550.11,461.4L549.51,460.97L549.48,460.14L549.81,459.63L550.24,458.31L550.51,457.7L550.71,456.8L551.03,456.16L551.77,455.89L553.01,455.79L553.54,455.24L553.81,454.76L553.52,454.39L553.29,453.56L552.13,452.32L551.68,451.62L551.08,451.01L550.58,450.79L550.16,450.27L550.24,449.68L549.96,449.15L549.86,448.24L550.29,447.61L550.9,447.18L551.08,446.48L551.05,445.16L550.73,444.41L549.88,443.01L549.77,441.9L549.37,441.12L549.04,440.75L548.67,440.02L548.79,439.28L549.09,438.52L549.79,436.98L549.73,436.39L549.54,435.77L549.84,435.16L550.26,434.69L550.26,432.65L550.73,431.86L551.21,431.35L551.48,430.63L551.6,429.99L552.29,429.07L552.65,428.42L553.19,427.69L553.54,426.45L554.01,425.91L554.26,425.48L554.26,424.9L554.69,424.55L555.48,424.63L556.6,424.28L557.05,424.03L558.02,423.89L558.81,423.66L559.23,423.11L559.86,421.68L560.42,421.21L563.75,421.21L564.19,420.82L564.52,420.2L564.59,419.1L564.94,418.56L565.29,417.67L565.29,415.6L565.51,414.82L565.91,414.33L565.64,413.9L565.64,411.63L565.31,411.12L564.61,410.64L563.33,410.56L562.43,410.01L562.16,409.45L562.18,408.21L561.79,406.26L562.2,405.64L562.24,404.1L561.99,403.26L561.27,402.59L560.28,402.35L559.39,402.26L558.79,401.78L558.17,399.59L558.07,397.91L557.77,397.03L557.37,396.38L557.37,393.17L557.72,392.6L558.31,391.84L558.99,390.88L559.66,389.98L560.38,389.18L560.87,388.28L561.25,387.77L561.55,386.36L562.17,385.93L563.36,385.2L563.68,384.63L563.61,384.01L563.01,382.97L562.62,382.5L562.54,381.99L562.89,381.18L563.68,380.07L564.15,379.23L564.08,371.44L565.45,369.99L565.75,369.32L566.42,368.91L566.8,368.42L566.82,367.91L566.52,367.48L566.52,365.52L566.89,364.74L566.82,363.82L566.57,363.36L566.72,362.84L567.25,362.39L567.81,362.01L568.71,361.87L569.33,361.55L570.03,360.74L571.17,359.82L572.14,358.25L572.64,357.62L573.61,357.6L574.67,357.27L576.1,356.92L577.21,356.34L578.35,355.63L579.45,355.08L580.49,354.69L580.75,354.44L581.17,354.86L581.42,355.81L581.89,356.38L582.26,357.06L582.23,358.45L582.57,359.6L583.75,361.83L584.53,362.55L585.71,362.74L586.9,363.32L588.11,363.69L589.14,364.33L589.72,365.05L590.13,365.96L590.81,366.37L591.65,366.7L592.18,366.5L592.83,365.92L593.42,365.51L594.32,365.51L594.66,365.96L595.53,366.43L596,367.45L596.5,367.86L596.47,369.07L596.68,370.25L597.37,370.7L597.92,371.31L598.17,372.46L598.41,372.89L599.31,373.3L600.31,374.21L602.51,374.79L603.04,375.26L603.41,376.24L603.57,377.46L604.1,377.87L604.87,377.93L605.47,377.39L605.99,377.15L607.73,377.08L608.51,376.68L609.07,376.28L609.17,370.03L609.53,369.3L610.5,368.39L611.15,367.4L611.56,366.42L612.33,363.75L612.83,362.91L613.14,362.16L613.57,361.42L613.73,360.31L613.98,359.38L614.79,358.85L615.4,358.2L615.43,356.21L615.62,355.2L616.31,354.58L616.74,354.07L617.24,352.85L618.14,351.67L618.96,350.42L619.79,348.86L619.67,348.28L618.33,347.51L618.17,346.36L618.42,345.37L618.96,343.85L619.92,342.12L620.35,341.07L620.97,340.36L621.9,340.06L622.31,339.62L623.62,339.38L625.63,339.72L626.25,340.36L626.94,340.77ZM638.78,500.3L638.78,500.84L638.44,500.98L638.07,501.88L637.69,502.42L636.98,502.28L636.57,501.91L635.58,501.88L634.95,501.21L634.87,500.74L634.49,500.4L634.21,499.91L632.16,499.77L631.72,499.47L631.35,498.9L630.79,498.19L630.42,497.92L629.86,497.72L629.27,497.33L628.89,496.99L628.89,494.27L628.65,493.83L628.31,493.5L628.12,493.06L628.34,492.69L628.84,492.73L629.08,493.03L635.39,492.93L635.67,493.47L635.42,494.03L636.05,495.24L636.05,495.98L635.23,495.95L635.23,497.33L635.83,498.16L636.45,498.77L637.75,499.64L638.41,499.97ZM628.93,431.21L628.63,431.54L628.04,431.37L627.74,431.11L627.39,430.62L626.79,430.23L626.14,430.19L625.75,429.8L625.75,427.92L624.81,427.28L624.9,426.31L625.95,426.25L626.54,425.93L627.35,425.93L627.64,426.25L629.03,426.31L629.44,426.68L629.68,427.65L629.63,428.51L629.23,428.84L629.03,429.49L628.79,429.7L628.34,430.68L628.83,430.83Z" class="land" id="TW-TTT" title="Taitung"/>
    <path d="M611.68,249.74L611.79,250.36L612.24,250.82L612.27,251.84L611.9,252.29L610.29,252.49L609.74,252.83L609.22,253.23L608.7,254.05L607.32,254.94L606.34,255.28L605.86,256.22L605.37,257.49L605.37,258.95L605.71,259.86L606.68,260.14L607.35,260.67L607.91,261.65L608.2,262.26L609.03,262.31L609.55,262.96L609.55,264.42L609.33,265.24L608.88,266.05L607.54,267.19L606.91,267.93L606.01,268.46L605.6,269.4L605.52,271.41L605.37,272.38L604.85,273.16L603.47,276.02L603.54,277.28L604.14,277.7L604.4,278.55L604.33,283.28L604.52,283.82L604.89,284.43L604.78,285.08L604.25,285.45L603.59,286.19L603.36,286.76L604.04,288.06L603.96,289.08L603.51,289.62L602.54,290.02L602.17,290.67L601.57,292.3L600.9,293.08L600.71,294.83L600.49,296.26L599.26,297.48L599.64,298.54L599.59,299.48L599.29,299.84L598.7,300.3L597.99,300.41L597.46,301.11L597.39,301.97L597.72,302.41L598.59,302.78L599.52,303.84L599.97,304.53L600,305.5L600.26,306.17L600.83,306.93L600.86,309.6L600.6,310.66L600.15,312L599.93,313.83L599.55,315.42L599.29,317.38L599.03,318.97L598.4,320.14L597.84,320.96L597.02,321.04L596.17,321.04L595.34,321.73L594.46,322.3L593.87,322.5L593.13,322.34L592.23,322.42L591.85,322.67L591.85,323.07L592.11,323.48L592.56,324.58L592.6,324.99L592.01,325.4L591.78,325.88L591.56,326.62L591.56,329.39L590.7,329.64L589.92,330.32L589.14,330.57L588.5,330.29L587.38,329.59L586.57,329.67L585.55,329.92L585.03,330.12L584.25,330.12L583.77,330.24L583.24,330.69L582.98,331.46L582.72,332L582.08,332.39L581.6,333.13L581.19,333.94L581.04,334.64L580.59,334.92L580.56,335.37L580.96,335.73L581.41,336.3L581.46,337.11L581.27,337.73L580.67,337.93L580.48,338.17L579.99,338.33L579.51,338.69L578.88,339.02L578.16,339.1L577.76,339.35L577.49,339.71L577.11,339.09L576.91,337.92L575.99,337.25L574.93,336.76L573.97,336.27L571.51,336.13L571.53,336.09L570.93,335.77L570.06,335.77L568.81,335.49L567.82,335.38L565.73,335.28L563.89,335.44L563.1,335.93L562.05,335.93L558.92,335.55L558.12,334.79L557.58,333.53L557.33,331.7L557.08,330.29L556.34,329.48L555.79,328.66L555.69,327.41L556.19,326.71L556.73,326.27L557.13,325.45L556.99,322.48L556.68,321.56L555.79,321.17L554.1,321.12L552.91,320.73L551.71,320.47L550.91,319.92L550.23,319.71L547.49,319.81L547.34,318.76L546.88,318.12L546,317.95L545.58,318.12L545.26,318.69L544.76,319L543.74,319.04L543.15,319.58L542.46,319.98L541.56,320.32L540.48,319.86L539.61,319.55L539.2,318.69L539.11,317.78L538.83,317.3L538.43,317.58L538.12,318.09L537.55,318.62L537.15,318.46L537.09,317.71L537.33,315.44L537.61,314.6L538.02,314.1L538.24,313.24L538.64,312.43L538.83,311.88L538.83,310.7L538.67,309.96L538.12,309.51L537.99,308.7L538.05,306.83L538.46,305.95L538.98,305.71L539.48,304.21L539.36,303.3L539.01,302.31L538.51,301.19L538.27,300.31L538.02,299.97L538,299.53L539.86,299.34L541.12,299.05L542.02,298.28L542.28,296.98L541.79,296.32L541.05,296.48L540.27,296.93L539.22,296.72L538.59,296.28L537.21,294.77L536.58,294.17L536.2,293.1L536.42,292.85L536.35,292.12L536.06,291.02L536.8,289.72L537.02,288.53L537.32,287.55L537.51,286.41L537.58,285.69L537.58,282.42L537.21,281.77L537.25,281.24L537.62,280.38L538.29,279.94L538.85,279.19L539.08,277.68L538.66,276.67L538.29,276.26L537.92,275.24L538.06,274.43L539.08,274.51L540.68,274.38L541.2,274.27L541.26,273.38L541.86,273.78L542.97,274.23L544.09,274.76L545.02,274.93L547.56,274.93L548.72,275.12L549.61,275.37L550.39,275.01L551.29,274.68L551.93,274.19L552.63,273.21L553.45,272.56L553.71,271.74L554.12,270.67L554.27,269.94L554.95,268.48L556.14,267.54L556.92,267.45L557.48,267.08L557.78,266.03L557.81,265L558.04,263.9L558.56,263.49L558.86,262.75L559.01,262.1L559.42,261.53L560.2,261.32L560.76,261.77L561.25,262.31L561.96,262.42L562.63,262.71L563.04,263.28L563.15,264.51L563.37,265.17L563.75,265.04L564.23,264.39L564.46,263.98L564.46,262.88L564.64,262.23L565.27,262.18L565.46,262.71L566.1,263.17L566.95,263.33L567.77,263.28L568.45,262.96L569.12,262.23L570.19,261.53L571.02,261.16L571.69,261.2L572.4,261.73L573.11,261.85L574.26,261.69L575.08,261.24L575.68,260.75L576.01,260.02L576.42,258.38L576.68,257.77L577.13,257.56L579.07,257.48L581.31,257.6L582.31,257.35L582.99,256.65L583.78,256L584.85,254.82L585.37,254.09L585.71,253.26L586.08,252.81L587.39,252.81L589.51,252.77L590.26,252.53L590.7,251.75L590.89,251.3L591.34,250.68L591.9,250.6L592.53,250.36L592.89,249.92L593.45,249.82L594.53,250.65L595.5,250.94L595.91,250.65L596.24,250.28L596.62,250.11L598,249.66L598.97,249.79L600.01,250.16L601.17,250.08L601.65,249.46L601.96,248.77L602.06,248.03L602.62,247.34L603.26,247.29L603.82,247.83L604.48,248.64L605.27,248.85L606.35,249.01L607.02,248.72L607.95,248.48L608.62,248.68L609.41,249.22L610.01,249.22L611.02,249.74Z" class="land" id="TW-NAN" title="Nantou"/>
  </g>
</svg>