<?xml version="1.0" encoding="UTF-8"?>
<svg xmlns="http://www.w3.org/2000/svg" width="283.37" height="519.3" viewBox="338.32 -2.65 283.37 519.3" style="background-color:#000000">
  <!-- Created using SVG Map Generator: dojo.amcharts.com/svg-map-generator -->
  <style>
    .land { fill: #ffffff; stroke: #000000; stroke-width: 0.65; }
  </style>
  <g id="polygons">
    <path d="M459.76,267.13L458.39,265.35L460.76,262.19L461.76,262.29L461.82,264.34L462.68,268.02L461.97,269.19L460.53,268.33Z" class="land" id="TH-S" title="Phatthaya"/>
    <path d="M448.61,229.43L454.15,230.57L457.24,229.88L460.37,229.58L459.98,232.92L461.18,234.12L460.22,234.96L458.59,238.18L456.15,237.51L453.52,237.45L453.14,239.61L451.4,239.75L447.04,239L447.14,241.35L444.92,241.36L444.57,243.06L444.84,244.91L443.34,245.2L443.74,243.52L442.9,243L442.08,240.51L441.04,240.11L440.77,236.91L440.37,233.84L440.73,234.47L446.48,234.6L447.93,232.89Z" class="land" id="TH-10" title="Bangkok Metropolis"/>
    <path d="M444.84,244.91L444.57,243.06L444.92,241.36L447.14,241.35L447.04,239L451.4,239.75L453.14,239.61L453.52,237.45L456.15,237.51L458.59,238.18L461.75,239.34L461.92,240.42L458.19,245.7L452.53,244.75L449.39,243.75L448.86,244.46Z" class="land" id="TH-11" title="Samut Prakan"/>
    <path d="M441.22,223.71L440.8,225.79L441.84,227.95L445.22,228.67L446.46,229.87L448.61,229.43L447.93,232.89L446.48,234.6L440.73,234.47L440.37,233.84L438.96,230.79L439.66,228.97L438.56,227.38L439.05,223.35L439.76,222.84Z" class="land" id="TH-12" title="Nonthaburi"/>
    <path d="M457.35,219.24L459.61,218.18L461.65,218.22L461.46,219.48L460.39,220.06L460.39,229.08L460.37,229.58L457.24,229.88L454.15,230.57L448.61,229.43L446.46,229.87L445.22,228.67L441.84,227.95L440.8,225.79L441.22,223.71L445.7,223.84L447.01,223.25L448.08,223.8L450.56,222.71Z" class="land" id="TH-13" title="Pathum Thani"/>
    <path d="M446.79,204.3L449.91,204.97L448.99,206.97L449.96,208.47L452.13,208.48L453.21,207.79L455.96,208L455.85,209.25L454.8,209.74L455.54,211.58L455.18,213.34L456.44,214.16L455.63,216.31L457.32,216.34L457.35,219.24L450.56,222.71L448.08,223.8L447.01,223.25L445.7,223.84L441.22,223.71L439.76,222.84L439.05,223.35L439.18,221.8L437.93,221.65L437.78,220.42L437.8,217.82L438.63,216.4L438.82,212.81L438.14,210.97L440.42,210.74L443.39,210L443.69,212.28L445.12,212.47L446.45,211.73L446.15,208.58L446.36,205Z" class="land" id="TH-14" title="Phra Nakhon Si Ayutthaya"/>
    <path d="M437.29,200.24L438.84,199.99L442.45,201.93L445.4,202.85L446.79,204.3L446.36,205L446.15,208.58L446.45,211.73L445.12,212.47L443.69,212.28L443.39,210L440.42,210.74L438.14,210.97L436.59,209.55L436.2,206.57L437.39,205.08L436.66,204.05L436.66,200.79Z" class="land" id="TH-15" title="Ang Thong"/>
    <path d="M475.73,172.78L476.24,176.1L475.91,179.88L476.23,181.45L476.34,184.55L475.63,184.95L476.53,187.7L477.13,191.42L475.44,191.39L474.99,193.19L472.61,193.97L471.94,196L469.77,195.72L468.42,196.54L466.42,196.24L465.76,197.19L466.27,198.86L465.39,200.47L463.5,198.9L461.75,199.23L461.39,201.97L457.81,199.8L455.41,200.03L453.98,201.39L452.91,201.61L449.91,204.97L446.79,204.3L445.4,202.85L445.6,199.71L444.29,197.44L443.96,195.33L444.75,194.92L444.69,193.23L445.47,191.98L443.84,190.98L445.25,189L448.73,185.22L449.12,183.38L450.21,182.7L451.37,178.9L451.99,177.98L455.6,176.74L455.2,174.75L458.32,176.54L459.75,176.41L461.53,177.42L462.49,179.49L464.05,181.16L466.35,180.71L467.81,181.61L469.65,181.49L472.56,180.37L473.54,179.45L473.72,172.99Z" class="land" id="TH-16" title="Lop Buri"/>
    <path d="M441.17,189.1L443.84,190.98L445.47,191.98L444.69,193.23L444.75,194.92L443.96,195.33L444.29,197.44L445.6,199.71L445.4,202.85L442.45,201.93L438.84,199.99L437.29,200.24L436.7,196.98L435.75,195.25L436.43,194.56L438.38,194.89L438.99,194.28L437.57,190.95L439.52,190.65Z" class="land" id="TH-17" title="Sing Buri"/>
    <path d="M433.08,178.41L436.4,180.25L438.46,182.91L439.64,186.62L441.29,187.84L441.17,189.1L439.52,190.65L437.57,190.95L438.99,194.28L438.38,194.89L436.43,194.56L434.19,196L433.43,194.84L431,194.32L431.06,195.8L428.44,196.33L425.71,195.98L424.71,195.03L422.71,194.92L420.09,193.76L422.18,192.07L422,191.02L423.12,189.68L421.16,187.25L420.33,185.2L420.26,183.28L422.5,181.88L424.62,182.12L425.73,182.95L428.2,182.33L431.46,182.93L432.99,181.22L432.13,180.06Z" class="land" id="TH-18" title="Chai Nat"/>
    <path d="M449.91,204.97L452.91,201.61L453.98,201.39L455.41,200.03L457.81,199.8L461.39,201.97L461.75,199.23L463.5,198.9L465.39,200.47L466.27,198.86L465.76,197.19L466.42,196.24L468.42,196.54L469.77,195.72L471.94,196L472.61,193.97L474.99,193.19L475.44,191.39L477.13,191.42L478.55,197.68L473.63,201.37L472.71,202.51L471.07,202.26L469.58,203.01L470.14,203.97L470.51,207.33L469.4,208.83L471.39,211.06L470.33,212.81L470.37,214.79L469.53,215L466.18,214.42L463.92,217.17L461.58,217.02L461.65,218.22L459.61,218.18L457.35,219.24L457.32,216.34L455.63,216.31L456.44,214.16L455.18,213.34L455.54,211.58L454.8,209.74L455.85,209.25L455.96,208L453.21,207.79L452.13,208.48L449.96,208.47L448.99,206.97Z" class="land" id="TH-19" title="Saraburi"/>
    <path d="M462.98,274.1L462.17,274.5L461.99,276.2L460.73,275.83L460.88,274.47L459.96,273.87L458.18,274.3L457.72,272.68L457.87,270.77L459.76,270.19L460.32,268.9L459.76,267.13L460.53,268.33L461.97,269.19L462.68,268.02L461.82,264.34L461.76,262.29L460.76,262.19L458.92,259.36L461.08,255.24L460.68,253.03L459.76,251.8L462.42,249.83L462.69,248.62L462.12,247.19L462.51,245.99L463.54,246.24L465.63,244.39L465.12,243.17L467.58,242.63L468.33,241.55L471.73,242.61L475.6,246.43L477.5,246.54L478.48,248.19L479.76,247.59L481.44,248.15L482.23,250.8L483.43,251.8L485.72,252.83L487.44,256.03L486.71,257.01L485.02,256.6L483.03,258.15L481.99,259.75L480.91,259.71L478.86,261.12L475.52,260.7L474.17,259.33L472.42,260.29L469.48,259.25L468.35,261.16L466.34,261.15L466.26,265.17L465.64,265.92L465.4,268L463.73,269.37L463.77,270.58L462.75,272.85Z" class="land" id="TH-20" title="Chon Buri"/>
    <path d="M486.71,257.01L486.32,258.25L487.35,261.02L488.82,261.47L488.12,262.82L488.7,264.31L489.84,264.23L491.2,268.33L490.82,270.73L489.63,272.82L488.43,272.31L485.82,273.15L484.96,274.56L483.31,274.16L481.94,275.1L478.32,274.97L476.78,276L473.87,274.54L470.59,273.68L467.44,273.35L465.39,273.47L462.98,274.1L462.75,272.85L463.77,270.58L463.73,269.37L465.4,268L465.64,265.92L466.26,265.17L466.34,261.15L468.35,261.16L469.48,259.25L472.42,260.29L474.17,259.33L475.52,260.7L478.86,261.12L480.91,259.71L481.99,259.75L483.03,258.15L485.02,256.6Z" class="land" id="TH-21" title="Rayong"/>
    <path d="M509.34,283.16L508.22,284.1L507.11,286.14L505.4,286.14L500.47,281.27L497.46,278.66L496.3,278.05L494.45,278.19L492.35,275.49L492.23,274.56L489.63,272.82L490.82,270.73L491.2,268.33L489.84,264.23L488.7,264.31L488.12,262.82L488.82,261.47L487.35,261.02L486.32,258.25L486.71,257.01L487.44,256.03L489.24,255.92L491.84,253.74L493.55,254.16L493.71,252.36L495.1,252.15L496.53,250.76L497.85,254.1L500.55,253.15L502.02,251.97L503.22,251.84L503.74,253.36L506.52,253.28L508.1,251.33L508.79,251.96L510.32,256.88L511.53,259.19L512.4,259.5L514.03,262.47L513.26,264.13L514.06,265.94L514.25,268.4L514.83,270.36L514.06,270.83L511.73,271.33L509.82,273.35L509.92,275.91L508.56,276.39L507.15,277.62L508.39,280.15L507.84,282Z" class="land" id="TH-22" title="Chanthaburi"/>
    <path d="M515.92,306.04L517.32,308.66L516.64,310.03L515.28,310.74L514.58,307.11ZM509.34,283.16L507.84,282L508.39,280.15L507.15,277.62L508.56,276.39L509.92,275.91L509.82,273.35L511.73,271.33L514.06,270.83L514.09,273.68L516.42,274.27L518.61,275.71L521.65,280.67L522.63,281.04L523.27,282.92L521.28,284.16L521.03,288.94L520.54,290.76L521.61,292.96L521.35,294.4L517.95,291.64L518.2,290.33L516.77,289.41L516.02,289.89L515.58,292.15L516.65,294.66L515.25,294.65L514.73,292.77L512.92,291.9L512.74,290.98L510.25,290.88L508.5,289.84L506.75,290.25L506.49,288.48L505.64,287.4L507.77,286.33L509.11,284.84ZM506.17,291.78L508.72,292.78L509.83,294.99L511.87,297.48L511.5,298.33L507.01,297.37L506.74,295.2L506.08,294.19Z" class="land" id="TH-23" title="Trat"/>
    <path d="M460.39,229.08L464.78,228.5L467.89,228.76L468.38,229.41L469.14,232.62L470.03,231.92L472.63,231.91L475.66,232.43L476.11,232.98L479.07,233.83L482.1,235.67L483.18,236.85L485.76,236.77L486.82,234.92L488.43,234.18L489.81,235.68L489.85,237.34L491.41,238.16L491.41,240.23L493.91,242.01L493.31,244.32L494.65,245.84L494.76,246.95L496.05,248.2L496.53,250.76L495.1,252.15L493.71,252.36L493.55,254.16L491.84,253.74L489.24,255.92L487.44,256.03L485.72,252.83L483.43,251.8L482.23,250.8L481.44,248.15L479.76,247.59L478.48,248.19L477.5,246.54L475.6,246.43L471.73,242.61L468.33,241.55L467.58,242.63L465.12,243.17L465.63,244.39L463.54,246.24L462.51,245.99L461.26,246.27L458.19,245.7L461.92,240.42L461.75,239.34L458.59,238.18L460.22,234.96L461.18,234.12L459.98,232.92L460.37,229.58Z" class="land" id="TH-24" title="Chachoengsao"/>
    <path d="M477.81,214.18L477.95,212.24L479.68,211.66L481.23,212.97L483.14,212.48L488.2,217.03L489.79,215.23L491.49,215.48L493.18,216.64L494.31,216.22L496.74,216.83L495.81,219.81L498.06,220.87L500.49,222.47L500.24,224.11L498.49,225.05L498.28,226.31L495.3,226.92L494.8,229.11L493.94,229.95L493.68,231.76L495.13,234.58L494.8,237.72L495.37,240.86L493.91,242.01L491.41,240.23L491.41,238.16L489.85,237.34L489.81,235.68L488.43,234.18L486.82,234.92L485.76,236.77L483.18,236.85L482.1,235.67L479.07,233.83L476.11,232.98L475.66,232.43L472.63,231.91L470.03,231.92L469.14,232.62L468.38,229.41L467.89,228.76L468.17,227.81L469.88,227.2L470.46,225.78L473.5,225.16L473.63,223.8L472.99,222.54L474.91,220.84L475.82,220.58L476.12,218.25L477.25,218.93L480.01,218.44L480.25,216.98L479.26,215.02Z" class="land" id="TH-25" title="Prachin Buri"/>
    <path d="M471.39,211.06L472.6,209.93L473.77,211.32L475.56,212.13L477.81,214.18L479.26,215.02L480.25,216.98L480.01,218.44L477.25,218.93L476.12,218.25L475.82,220.58L474.91,220.84L472.99,222.54L473.63,223.8L473.5,225.16L470.46,225.78L469.88,227.2L468.17,227.81L467.89,228.76L464.78,228.5L460.39,229.08L460.39,220.06L461.46,219.48L461.65,218.22L461.58,217.02L463.92,217.17L466.18,214.42L469.53,215L470.37,214.79L470.33,212.81Z" class="land" id="TH-26" title="Nakhon Nayok"/>
    <path d="M500.49,222.47L502.48,222.8L503.15,220.9L504.2,222.67L505.9,222.6L507.26,223.5L511.43,222.42L512.84,223.15L515.39,223.03L517.34,221.77L518.97,221.97L520.28,223.16L522.71,222.74L523.55,221.73L526.15,222.51L528.16,221.58L528.54,222.58L527.21,224.83L527.56,227.12L526.06,227.57L523.24,230.05L522.73,232.7L520.07,236.31L516.78,237.87L515.35,239.54L516.3,240.58L515.83,242.3L514.63,242.8L513.05,242.51L511.67,242.95L509.24,242.32L508.14,243.73L508.97,244.6L509.04,248.28L508.52,250.29L508.79,251.96L508.1,251.33L506.52,253.28L503.74,253.36L503.22,251.84L502.02,251.97L500.55,253.15L497.85,254.1L496.53,250.76L496.05,248.2L494.76,246.95L494.65,245.84L493.31,244.32L493.91,242.01L495.37,240.86L494.8,237.72L495.13,234.58L493.68,231.76L493.94,229.95L494.8,229.11L495.3,226.92L498.28,226.31L498.49,225.05L500.24,224.11Z" class="land" id="TH-27" title="Sa Kaeo"/>
    <path d="M476.23,181.45L477.04,181.72L478.01,180.02L479.88,180.52L480.8,179.9L483.37,179.76L484.14,180.34L485.4,178.99L489.17,179.69L490.42,178.06L492.85,179.48L494.59,177.2L498.04,176.47L498.22,173.93L499.4,171.25L501.18,170.27L502.12,167.1L505.59,166.05L507.91,164.96L510.91,168.71L512.11,167.97L514.2,167.63L515.41,168.31L518.79,168.04L519.86,167.56L521,169.76L523.13,170.47L523.18,173.35L523.76,174.52L525.97,175.28L526.63,174.74L529.8,176.18L530.86,177.75L529.54,178.14L529.07,179.71L530.21,181.29L528.94,182L529.42,186.28L527.01,186.4L525.46,187.06L523.12,189.87L522.13,193.23L520.92,193.52L520.34,195.27L517.11,195.19L515.11,196.47L515.48,197.81L514.8,199.48L513.73,199.85L512.37,198.72L511.71,199.94L513.05,202.13L512.34,203.16L512.92,205.12L512.72,206.29L513.57,208.09L513.55,210.17L517.4,210.56L517.05,212.19L516.04,212.89L515.82,214.67L517.17,216.51L518.44,216.4L519.99,217.35L517.87,218.53L515.04,220.7L513.68,221.21L512.13,220.99L511.43,222.42L507.26,223.5L505.9,222.6L504.2,222.67L503.15,220.9L502.48,222.8L500.49,222.47L498.06,220.87L495.81,219.81L496.74,216.83L494.31,216.22L493.18,216.64L491.49,215.48L489.79,215.23L488.2,217.03L483.14,212.48L481.23,212.97L479.68,211.66L477.95,212.24L477.81,214.18L475.56,212.13L473.77,211.32L472.6,209.93L471.39,211.06L469.4,208.83L470.51,207.33L470.14,203.97L469.58,203.01L471.07,202.26L472.71,202.51L473.63,201.37L478.55,197.68L477.13,191.42L476.53,187.7L475.63,184.95L476.34,184.55Z" class="land" id="TH-30" title="Nakhon Ratchasima"/>
    <path d="M528.22,165.23L528.57,166.24L530.71,167.56L530.72,169.1L529.66,169.95L530.95,171.1L532.1,173.33L533.6,174.47L532.98,175.63L534.32,176.22L533.59,178.42L536.04,180.32L537.67,181.06L538.92,182.27L542.31,180.85L544.12,182.24L545.58,180.95L547.09,181.97L546.07,183.17L544.65,185.95L545.1,188.73L544.72,191.94L544.95,195L543.49,197.47L541.63,198.82L539.5,201.06L539.78,202.14L539.28,204.41L538.37,205.26L537.7,207.12L537.73,210.19L538.84,212.4L537.99,214.6L538.17,216.37L536.21,216.11L535.72,216.82L533.34,217.44L530.45,220.29L529,220.51L528.16,221.58L526.15,222.51L523.55,221.73L522.71,222.74L520.28,223.16L518.97,221.97L517.34,221.77L515.39,223.03L512.84,223.15L511.43,222.42L512.13,220.99L513.68,221.21L515.04,220.7L517.87,218.53L519.99,217.35L518.44,216.4L517.17,216.51L515.82,214.67L516.04,212.89L517.05,212.19L517.4,210.56L513.55,210.17L513.57,208.09L512.72,206.29L512.92,205.12L512.34,203.16L513.05,202.13L511.71,199.94L512.37,198.72L513.73,199.85L514.8,199.48L515.48,197.81L515.11,196.47L517.11,195.19L520.34,195.27L520.92,193.52L522.13,193.23L523.12,189.87L525.46,187.06L527.01,186.4L529.42,186.28L528.94,182L530.21,181.29L529.07,179.71L529.54,178.14L530.86,177.75L529.8,176.18L526.63,174.74L525.97,175.28L523.76,174.52L523.18,173.35L523.13,170.47L524.34,170.94L526.06,170.32L526.5,168.82L526.43,166.18Z" class="land" id="TH-31" title="Buri Ram"/>
    <path d="M534.32,176.22L537.78,176.89L539.62,178.23L542.03,178.82L543.95,177.83L545.13,177.13L546.71,177.22L548.44,178.1L549.56,176.86L551.12,176.65L553.01,177.41L555.87,177.69L559.43,177.34L560.47,176.61L562.45,178.55L563.75,178.8L566.17,178.84L567.2,180.29L565.64,181.08L564.67,182.9L563.09,187.24L564.17,187.79L564.11,189.7L564.61,191.51L564.12,193.25L561.72,196.31L560.89,198.21L561.43,198.95L564.04,199.98L564.21,202.47L565.89,204.51L566.18,206.85L565.25,208.82L565.34,210.43L566.14,211.43L566.08,215.74L563.51,215.4L562.23,216.27L556.62,215.19L552.63,213.2L549.32,213.01L547.37,213.8L546.27,215.05L545.18,214.16L544.28,215.31L539.44,215.54L538.17,216.37L537.99,214.6L538.84,212.4L537.73,210.19L537.7,207.12L538.37,205.26L539.28,204.41L539.78,202.14L539.5,201.06L541.63,198.82L543.49,197.47L544.95,195L544.72,191.94L545.1,188.73L544.65,185.95L546.07,183.17L547.09,181.97L545.58,180.95L544.12,182.24L542.31,180.85L538.92,182.27L537.67,181.06L536.04,180.32L533.59,178.42Z" class="land" id="TH-32" title="Surin"/>
    <path d="M563.75,178.8L564.05,177.31L566.92,173.89L568.29,173.34L568.74,175.27L570.28,176.3L571.95,178.5L572.43,179.93L574.42,181.05L576.1,180.99L577.79,182.88L581.07,183.67L581.87,184.2L586.55,184.02L587.36,185.78L588.91,187.22L586.72,189.52L587.47,190.1L586.69,191.84L587.16,194.66L591.22,196.6L592.01,198.65L591.04,199.61L591.78,201.59L593.62,203.43L591.97,206.68L591.64,208.6L593.15,210.49L592.06,212.43L593.72,212.59L594.69,213.84L593.46,213.21L592.43,213.72L591.25,212.56L589.49,213.63L588.02,212.68L587.17,213.96L585.83,213.03L582.15,215.46L580.93,214.7L580.24,215.51L576.88,214.61L575.31,214.85L573.44,213.52L572.5,214.6L567.8,214.59L566.08,215.74L566.14,211.43L565.34,210.43L565.25,208.82L566.18,206.85L565.89,204.51L564.21,202.47L564.04,199.98L561.43,198.95L560.89,198.21L561.72,196.31L564.12,193.25L564.61,191.51L564.11,189.7L564.17,187.79L563.09,187.24L564.67,182.9L565.64,181.08L567.2,180.29L566.17,178.84Z" class="land" id="TH-33" title="Si Sa Ket"/>
    <path d="M594.69,213.84L593.72,212.59L592.06,212.43L593.15,210.49L591.64,208.6L591.97,206.68L593.62,203.43L591.78,201.59L591.04,199.61L592.01,198.65L591.22,196.6L587.16,194.66L586.69,191.84L587.47,190.1L586.72,189.52L588.91,187.22L587.36,185.78L586.55,184.02L581.87,184.2L581.07,183.67L577.79,182.88L578.26,180.33L576.7,177.02L577.58,174L580.29,174.27L581.33,173.36L582.57,174.08L583.87,173.22L583.61,171.96L584.83,171.37L585.14,168.98L588.17,169.96L590.65,171.35L590.72,172.06L592.66,172.98L593.94,172.99L595.33,171.97L595.4,170.56L594.29,170.25L594.14,168.97L594.74,166.37L596.43,165.47L596.57,162.98L598.11,159.32L597.98,157.11L599.16,154.86L599.83,154.69L601.22,154.91L604.93,156.36L611.65,157.58L610.52,158.64L609.32,160.8L612.38,166.65L614.56,166.26L618.01,167.85L619.03,169.65L618.86,173.26L617.75,175.29L617.69,178.2L616.78,179.07L614.38,179.53L613.51,180.82L614.78,181.99L617.09,181.66L617.64,183.6L615.95,184.19L613.8,186.71L613.68,189.49L618.64,193.81L616.17,195.57L617.21,197.12L616.4,198.65L615,199.95L615.45,203.2L615.74,208.49L612.24,213.32L608.02,215.03L606.32,215.13L605.45,216.15L603.68,215.73L602.7,219.31L601.44,220.28L599.46,220.26L597.5,216.55L597.83,214.96Z" class="land" id="TH-34" title="Ubon Ratchathani"/>
    <path d="M575.98,146.72L577.47,145.86L581.03,146.12L582.7,147.19L583.59,149.46L585.29,150.72L586.76,150.01L587.83,150.83L589.99,151.25L590.77,152.62L591.89,152.65L591.63,154.66L588.31,154.46L585.16,153.78L583.05,154.66L582.02,156.76L581.1,159.82L579.44,161.55L579.65,163.56L578.8,164.61L578.76,166.72L579.61,172.3L581.33,173.36L580.29,174.27L577.58,174L576.7,177.02L578.26,180.33L577.79,182.88L576.1,180.99L574.42,181.05L572.43,179.93L571.95,178.5L570.28,176.3L568.74,175.27L568.29,173.34L570.41,171.73L570.08,169.54L568.55,168.38L568.62,165.06L566.73,164.42L565.34,165.19L564.08,164.58L565.25,162.47L564.67,161.84L565.39,160.18L565.13,158.66L567.28,158.9L567.99,156.7L567.38,155.5L570.03,152.93L571.82,152.28L572.6,150.43L573.51,150.19L575.35,148.53Z" class="land" id="TH-35" title="Yasothon"/>
    <path d="M475.73,172.78L476.94,167.31L474.55,166.64L473.93,165.45L474.42,162.27L475.13,161.97L475.3,159.39L474.14,156.66L474.76,152.75L475.78,150.36L475.75,147.93L476.81,144.17L479.19,141.33L479.18,139.56L479.97,138.09L480.41,135.09L481.92,133.09L482.98,132.68L484.59,134.24L486.24,133.98L487.71,135.27L488.44,134.67L489.47,135.43L491.18,135.03L496.16,136.68L496.57,138.24L497.71,138.53L498.03,139.89L499.22,140.8L503.76,140.44L505.92,142.15L507.02,142.48L510.36,142.44L512.35,144.36L511.03,147.63L510.84,149.36L506.36,155.42L507.11,156.74L508.77,157.18L509.92,158.33L509.18,159.35L508.79,161.58L507.68,162.76L507.91,164.96L505.59,166.05L502.12,167.1L501.18,170.27L499.4,171.25L498.22,173.93L498.04,176.47L494.59,177.2L492.85,179.48L490.42,178.06L489.17,179.69L485.4,178.99L484.14,180.34L483.37,179.76L480.8,179.9L479.88,180.52L478.01,180.02L477.04,181.72L476.23,181.45L475.91,179.88L476.24,176.1Z" class="land" id="TH-36" title="Chaiyaphum"/>
    <path d="M589.99,151.25L591.85,151.48L593.75,150.73L593.93,149.97L597.07,148.32L598.34,149.63L598.2,151.38L599.17,154.27L599.83,154.69L599.16,154.86L597.98,157.11L598.11,159.32L596.57,162.98L596.43,165.47L594.74,166.37L594.14,168.97L594.29,170.25L595.4,170.56L595.33,171.97L593.94,172.99L592.66,172.98L590.72,172.06L590.65,171.35L588.17,169.96L585.14,168.98L584.83,171.37L583.61,171.96L583.87,173.22L582.57,174.08L581.33,173.36L579.61,172.3L578.76,166.72L578.8,164.61L579.65,163.56L579.44,161.55L581.1,159.82L582.02,156.76L583.05,154.66L585.16,153.78L588.31,154.46L591.63,154.66L591.89,152.65L590.77,152.62Z" class="land" id="TH-37" title="Amnat Charoen"/>
    <path d="M544,88.42L543.82,87.62L541.51,86.21L540.6,85.15L540.6,83.08L542.14,82.01L542.28,80.7L539.69,79.64L540.42,77.16L539.22,75.93L538.91,74.62L540.89,72.5L544.17,71.9L545.92,72.75L548.31,72.73L551.12,73.54L553.96,75.65L558.09,75.83L559.4,77.79L561.6,76.2L563.17,75.85L566.21,80L567.82,83.77L570.54,86.98L567.96,87.67L568.89,89.48L566.64,92.04L565.2,90.96L564.12,91.58L564.75,94.49L562.78,95.78L561.4,94.18L561,91.99L559.35,91.91L557.31,93.37L554.65,89.83L553.02,88.95L551.6,88.89L550.59,85.98L547.9,85.1L545.57,88.94Z" class="land" id="TH-38" title="Bueng Kan"/>
    <path d="M499.77,100.64L501.7,99.83L504.16,99.78L507.61,99.13L508.12,103.61L509.3,105.39L510.2,108.1L511.66,111.09L511.71,113.14L514,112.91L516.9,113.67L516.18,114.94L512.82,115.96L514.45,119.58L516.18,121.52L519.4,123.27L519.82,124.43L517.91,128.55L517.49,131.18L515.11,130.73L513.59,129.98L511.43,130.47L508.31,128.76L506.84,126.84L505.47,126.74L504.19,128L503.26,128.03L500.42,126.64L499.25,126.86L497.96,124.68L499.92,123.83L500.17,122.89L502.01,121.89L500.43,120.78L499.97,119.12L497.62,118.38L497.63,117.13L499.51,116.33L499.42,115.57L496.58,111.74L497.54,109.92L496.3,108.52L496.63,106.86L498.69,107.17L500.04,106.62L501.53,105.08L501.54,103.4Z" class="land" id="TH-39" title="Nong Bua Lam Phu"/>
    <path d="M519.4,123.27L519.71,121.45L521.22,121.34L523.4,122.51L524.61,127.82L525.82,127.12L527.76,128.83L529.53,128.38L533.88,126.07L536.79,129.33L536.68,130.52L535.47,131.66L535.68,135.54L535.7,136.7L534.61,137.35L533.29,140.17L531.18,141.48L528.99,142.25L529.28,143.04L528.45,144.89L527.06,145.86L526.99,147.09L525.38,148.58L525.28,150.69L526.1,153.72L525.46,155.6L526.99,157.21L527.38,159.09L526.86,160.43L528.11,162.32L528.22,165.23L526.43,166.18L526.5,168.82L526.06,170.32L524.34,170.94L523.13,170.47L521,169.76L519.86,167.56L518.79,168.04L515.41,168.31L514.2,167.63L512.11,167.97L510.91,168.71L507.91,164.96L507.68,162.76L508.79,161.58L509.18,159.35L509.92,158.33L508.77,157.18L507.11,156.74L506.36,155.42L510.84,149.36L511.03,147.63L512.35,144.36L510.36,142.44L507.02,142.48L505.92,142.15L503.76,140.44L499.22,140.8L498.03,139.89L497.71,138.53L496.57,138.24L496.16,136.68L491.18,135.03L489.47,135.43L488.44,134.67L489.77,132.78L489.7,131.37L492.27,130.37L495.2,128.6L496.73,128.64L498.31,127.97L499.25,126.86L500.42,126.64L503.26,128.03L504.19,128L505.47,126.74L506.84,126.84L508.31,128.76L511.43,130.47L513.59,129.98L515.11,130.73L517.49,131.18L517.91,128.55L519.82,124.43Z" class="land" id="TH-40" title="Khon Kaen"/>
    <path d="M498.8,84.78L499.94,85.8L502.72,87.16L504.93,87.74L509.94,91.38L511.34,95.07L512.65,96.51L514.71,96.21L517.57,98.84L517.43,101.01L519.36,102.06L520.28,101.18L521.84,101.19L523.29,99.02L524.84,98.63L525.68,95.74L525.06,94.14L526.18,93.26L526.22,91.82L528.18,91.67L529.57,94.1L531.01,92.19L533.19,91.91L535.56,94.72L536.45,92.94L538.58,91.66L539.64,93.11L541.78,91.86L544.02,91.15L544.6,91.95L542.91,95.2L544.37,97.36L543.91,101.3L541.38,103.57L540.19,105.53L539.76,107.51L540.71,109.29L538.99,112L539.81,113.48L542.36,114.05L544.57,115.54L546.51,115.37L549.73,117.48L551.44,117.81L552.58,120.34L552.82,122.35L551.4,119.77L548.99,119.92L547.16,124.09L547.06,126.42L544.78,129.26L543.47,126.41L542.03,125.7L540.2,125.64L539,124.38L537.23,124.83L534.49,124.36L533.88,126.07L529.53,128.38L527.76,128.83L525.82,127.12L524.61,127.82L523.4,122.51L521.22,121.34L519.71,121.45L519.4,123.27L516.18,121.52L514.45,119.58L512.82,115.96L516.18,114.94L516.9,113.67L514,112.91L511.71,113.14L511.66,111.09L510.2,108.1L509.3,105.39L508.12,103.61L507.61,99.13L504.16,99.78L501.7,99.83L499.77,100.64L497.79,99.1L497.46,96.72L498.49,94.19L497.79,88.65L498.82,86.38Z" class="land" id="TH-41" title="Udon Thani"/>
    <path d="M500.5,80.23L500.38,82.03L499.25,82.71L498.8,84.78L498.82,86.38L497.79,88.65L498.49,94.19L497.46,96.72L497.79,99.1L499.77,100.64L501.54,103.4L501.53,105.08L500.04,106.62L498.69,107.17L496.63,106.86L496.3,108.52L497.54,109.92L496.58,111.74L499.42,115.57L499.51,116.33L497.63,117.13L497.62,118.38L499.97,119.12L500.43,120.78L502.01,121.89L500.17,122.89L499.92,123.83L497.96,124.68L499.25,126.86L498.31,127.97L496.73,128.64L495.2,128.6L492.27,130.37L489.7,131.37L487.71,131.72L486.07,127.92L486.46,125.28L486,123.85L484.44,121.44L483.75,123L481.79,123.18L481.16,121.14L478.88,119.69L478.01,120.44L476.85,119.72L472.03,119.86L470.8,118.36L469.02,121.13L466.97,123.01L466.86,126.47L465.6,126.38L464.63,123.36L465.23,122.01L464.98,120.23L465.92,118.12L465.86,116.74L466.94,114.74L466.06,113.18L464.95,113.07L463,111.04L460.44,111L460.73,108.28L459.73,106.68L457.71,106.57L459.28,102.44L461.91,102.81L464.08,103.41L466.97,106.08L468.83,106.53L469.49,104.52L471.12,104.15L472.21,101.99L476.36,98.51L481.51,95.68L482.72,92.41L484.24,91.54L487.99,90.56L487.87,89.54L488.79,86.64L489.7,85.25L492.75,86.75L493.74,86.72L495.46,84.34L497.85,82.48L498.46,80.78Z" class="land" id="TH-42" title="Loei"/>
    <path d="M544,88.42L544.02,91.15L541.78,91.86L539.64,93.11L538.58,91.66L536.45,92.94L535.56,94.72L533.19,91.91L531.01,92.19L529.57,94.1L528.18,91.67L526.22,91.82L526.18,93.26L525.06,94.14L525.68,95.74L524.84,98.63L523.29,99.02L521.84,101.19L520.28,101.18L519.36,102.06L517.43,101.01L517.57,98.84L514.71,96.21L512.65,96.51L511.34,95.07L509.94,91.38L504.93,87.74L502.72,87.16L499.94,85.8L498.8,84.78L499.25,82.71L500.38,82.03L500.5,80.23L502.45,80.6L503.15,82.51L506.65,85.84L508.68,86.26L512.42,88.79L515.64,88.88L517.18,89.3L517.59,90.9L516.69,93.15L519.73,94.72L519.98,92.42L522.36,91.54L523.36,90.1L525.81,88.74L529.24,87.6L531.78,88.57L533.21,86.64L533.31,83.42L535.11,82.22L535.6,79.63L536.72,78.42L540.42,77.16L539.69,79.64L542.28,80.7L542.14,82.01L540.6,83.08L540.6,85.15L541.51,86.21L543.82,87.62Z" class="land" id="TH-43" title="Nong Khai"/>
    <path d="M535.68,135.54L536.83,138.75L535.87,140.84L536.76,142.85L536.04,144.39L536.45,145.37L539.44,144.85L541.98,145.39L542.38,147.31L544.38,148.15L544.49,149.72L547.47,151.11L545.85,154.03L546.36,156.48L546.12,159.08L546.7,160.64L545.94,161.29L545.26,163.85L544.67,167.85L542.34,167.67L540.81,168.46L540.25,171.4L540.73,173.39L544.72,175.29L543.95,177.83L542.03,178.82L539.62,178.23L537.78,176.89L534.32,176.22L532.98,175.63L533.6,174.47L532.1,173.33L530.95,171.1L529.66,169.95L530.72,169.1L530.71,167.56L528.57,166.24L528.22,165.23L528.11,162.32L526.86,160.43L527.38,159.09L526.99,157.21L525.46,155.6L526.1,153.72L525.28,150.69L525.38,148.58L526.99,147.09L527.06,145.86L528.45,144.89L529.28,143.04L528.99,142.25L531.18,141.48L533.29,140.17L534.61,137.35L535.7,136.7Z" class="land" id="TH-44" title="Maha Sarakham"/>
    <path d="M572.17,143.07L574.41,141.85L575.28,146.12L575.98,146.72L575.35,148.53L573.51,150.19L572.6,150.43L571.82,152.28L570.03,152.93L567.38,155.5L567.99,156.7L567.28,158.9L565.13,158.66L565.39,160.18L564.67,161.84L565.25,162.47L564.08,164.58L565.34,165.19L566.73,164.42L568.62,165.06L568.55,168.38L570.08,169.54L570.41,171.73L568.29,173.34L566.92,173.89L564.05,177.31L563.75,178.8L562.45,178.55L560.47,176.61L559.43,177.34L555.87,177.69L553.01,177.41L551.12,176.65L549.56,176.86L548.44,178.1L546.71,177.22L545.13,177.13L543.95,177.83L544.72,175.29L540.73,173.39L540.25,171.4L540.81,168.46L542.34,167.67L544.67,167.85L545.26,163.85L545.94,161.29L546.7,160.64L546.12,159.08L546.36,156.48L545.85,154.03L547.47,151.11L548.6,150.69L551.98,151.56L553.6,150.47L555.2,150.33L555.97,147.57L554.04,144.89L557.67,142.2L559.65,141.62L561.77,142.87L565.2,142.58L565.69,144.5L567.61,143.32L569.91,142.49Z" class="land" id="TH-45" title="Roi Et"/>
    <path d="M533.88,126.07L534.49,124.36L537.23,124.83L539,124.38L540.2,125.64L542.03,125.7L543.47,126.41L544.78,129.26L547.06,126.42L547.16,124.09L548.99,119.92L551.4,119.77L552.82,122.35L554.86,122.47L555.52,124.01L556.88,124.47L556.86,126.22L558.69,127.68L558.94,128.62L561.49,130.17L563.14,129.68L565.1,128.04L566.56,129.29L569.26,132.97L570.11,135.41L570.19,137.17L571.11,137.67L572.25,139.96L571.82,141.52L572.17,143.07L569.91,142.49L567.61,143.32L565.69,144.5L565.2,142.58L561.77,142.87L559.65,141.62L557.67,142.2L554.04,144.89L555.97,147.57L555.2,150.33L553.6,150.47L551.98,151.56L548.6,150.69L547.47,151.11L544.49,149.72L544.38,148.15L542.38,147.31L541.98,145.39L539.44,144.85L536.45,145.37L536.04,144.39L536.76,142.85L535.87,140.84L536.83,138.75L535.68,135.54L535.47,131.66L536.68,130.52L536.79,129.33Z" class="land" id="TH-46" title="Kalasin"/>
    <path d="M544,88.42L545.57,88.94L547.9,85.1L550.59,85.98L551.6,88.89L553.02,88.95L554.65,89.83L557.31,93.37L559.35,91.91L561,91.99L561.4,94.18L562.78,95.78L564.75,94.49L564.52,95.09L566.35,96.69L566.8,98.48L566.45,100.27L565.25,101.32L566,102.41L564.74,106.81L566.15,109.29L567.26,108.87L569.36,109.12L573.84,107.79L578.21,108.11L577.86,109.68L578.41,111.24L577.86,113.26L578.82,114.57L577.35,116.71L577.66,118.25L576.28,119.68L576.2,122.82L574.3,125.61L572.68,126.31L571.08,127.47L568.38,127L567.84,128.67L566.56,129.29L565.1,128.04L563.14,129.68L561.49,130.17L558.94,128.62L558.69,127.68L556.86,126.22L556.88,124.47L555.52,124.01L554.86,122.47L552.82,122.35L552.58,120.34L551.44,117.81L549.73,117.48L546.51,115.37L544.57,115.54L542.36,114.05L539.81,113.48L538.99,112L540.71,109.29L539.76,107.51L540.19,105.53L541.38,103.57L543.91,101.3L544.37,97.36L542.91,95.2L544.6,91.95L544.02,91.15Z" class="land" id="TH-47" title="Sakon Nakhon"/>
    <path d="M588.82,129.86L587.76,129.08L586.61,130.54L585.29,127.82L582.64,127.64L580.65,128.25L575.13,126.45L573.71,128.05L572.68,126.31L574.3,125.61L576.2,122.82L576.28,119.68L577.66,118.25L577.35,116.71L578.82,114.57L577.86,113.26L578.41,111.24L577.86,109.68L578.21,108.11L573.84,107.79L569.36,109.12L567.26,108.87L566.15,109.29L564.74,106.81L566,102.41L565.25,101.32L566.45,100.27L566.8,98.48L566.35,96.69L564.52,95.09L564.75,94.49L564.12,91.58L565.2,90.96L566.64,92.04L568.89,89.48L567.96,87.67L570.54,86.98L571.51,88.1L573.45,92.83L576.23,94.4L577.75,97.37L579.48,99.79L582.21,101.16L587.56,104.47L589.36,107.3L590.81,109L591.19,111.58L591.2,115.04L590.41,118.75L588.69,122.84L588.81,126.21L589.64,128.3Z" class="land" id="TH-48" title="Nakhon Phanom"/>
    <path d="M572.68,126.31L573.71,128.05L575.13,126.45L580.65,128.25L582.64,127.64L585.29,127.82L586.61,130.54L587.76,129.08L588.82,129.86L589.71,131.9L589.89,133.56L589.17,135.88L588.96,139.06L590.07,140.6L592.69,142.29L594.18,145.99L595.5,146.63L597.07,148.32L593.93,149.97L593.75,150.73L591.85,151.48L589.99,151.25L587.83,150.83L586.76,150.01L585.29,150.72L583.59,149.46L582.7,147.19L581.03,146.12L577.47,145.86L575.98,146.72L575.28,146.12L574.41,141.85L572.17,143.07L571.82,141.52L572.25,139.96L571.11,137.67L570.19,137.17L570.11,135.41L569.26,132.97L566.56,129.29L567.84,128.67L568.38,127L571.08,127.47Z" class="land" id="TH-49" title="Mukdahan"/>
    <path d="M413.34,11.44L415.22,12.78L412.64,13.79L411.09,17.54L410.21,17.98L410.18,19.58L408.95,20.54L409.92,22.22L408.22,24.65L408.13,26.41L406.58,27.12L404.73,29.28L406.07,32.29L406.97,33.13L405.95,34.69L407.07,38.07L406.69,39.88L407.54,42.78L406.23,45.46L406.84,47.95L408.93,50.11L409.52,52.34L408.61,52.93L409,57.02L407.83,58.12L408.51,61.06L407.05,63.51L407.76,64.55L407.09,65.89L406.7,68.91L403.39,66.79L403.91,64.74L401.28,62.62L399.84,63.71L396.43,63.91L395.29,65.26L393.85,68.55L391.21,70.07L389.77,71.38L387.42,72.5L386.2,72.19L384.78,77.08L388.49,78.91L388.73,81.42L389.63,83.67L389.08,86.72L390.44,88.18L391.7,93.06L391.16,94.34L389.27,94.94L387.33,94.66L385.62,95.65L383.84,97.06L382.48,94.75L381.23,94.98L379.87,93.97L379.35,96.27L380.07,98.13L380.3,101.15L381.33,101.33L382.11,102.61L380.71,103.31L379.85,105.04L380.1,106.89L381.18,107.81L380.47,110.24L381.28,110.66L381.15,112.7L379.1,113.33L377.76,111.96L374.56,112.86L373.5,112.39L373.61,110.72L372.21,108.69L373.22,108.37L373.47,106.45L372.38,102.75L370.39,103.68L367.03,103.98L365.46,100.59L367.27,99L367.54,97.29L364.68,92.93L362.76,91.5L363.22,90L365.4,89.11L367.23,90.04L368.11,88.71L370.05,88.12L370.25,86.83L371.6,86.21L371.38,84.73L369.31,84.63L368,83.58L367.67,82.02L368.32,81.05L366.97,78.35L368.22,77.16L368.24,75.74L366.62,73.39L364.89,72.6L365.96,71.56L366.52,69.99L369.43,68.74L370.37,67.6L369.48,66.25L367.27,65.14L366.35,65.29L365.08,58.68L365.4,57.26L366.6,55.6L367.69,55.18L367.92,52.97L371.3,46.88L373.92,46.94L374.29,48.98L375.88,51.04L377.18,50.62L380.16,51.44L383.68,50.11L384.31,49.07L383.68,46.77L381.51,44.85L382.53,44.14L382.62,41.34L382.07,36.53L382.42,34.88L380.66,32.42L380.53,30.55L378.19,28.75L378.16,27.72L379.58,26.75L381.69,27.26L386.37,25.11L388.55,25.53L389.2,24.7L391.16,23.92L392.97,25.13L396.55,24.01L397.06,17.69L397.86,16.57L397.52,15.36L398.62,13.05L399.49,13.19L401.48,11.94L404.79,12.62L406.95,14.2L408.88,13.49L410.81,13.46L412.79,12.54Z" class="land" id="TH-50" title="Chiang Mai"/>
    <path d="M385.62,95.65L387.33,94.66L389.27,94.94L391.16,94.34L391.7,93.06L390.44,88.18L389.08,86.72L389.63,83.67L388.73,81.42L388.49,78.91L384.78,77.08L386.2,72.19L387.42,72.5L389.77,71.38L391.21,70.07L393.85,68.55L395.29,65.26L396.43,63.91L399.84,63.71L401.28,62.62L403.91,64.74L403.39,66.79L406.7,68.91L406.83,70.03L404.69,70.23L404.02,71.88L402.72,72.87L401.14,76.59L399.17,77.88L397.02,78.39L397.02,80.14L397.94,81.59L398.4,85.55L399.43,87.74L399.6,90.83L400.96,91.35L402.19,92.69L400.58,94.09L400.24,95.82L398.97,98.22L398.19,98.64L397.72,101.44L396,100.63L392.86,100.17L392.05,100.96L393.04,102.55L393.03,104.15L392.08,105.04L390.33,104.88L386.52,106.67L385.82,104.9L386.01,103.46L385.34,101.99L385.4,99.59L387.48,98.62Z" class="land" id="TH-51" title="Lamphun"/>
    <path d="M409.52,52.34L410.71,52.04L412.65,49.56L413.86,49.59L414.8,47.63L414.07,46.55L414.46,43.33L415.47,41.89L415.4,38.46L419.36,38.69L419.85,40.21L419.7,43.62L422.04,50.04L423.56,50.13L424.23,52.27L427.2,53.07L427.84,54.38L432.03,57.11L431.74,58.2L433.51,59.11L433.89,59.98L432.91,61.94L433.41,63.99L433.02,65.48L433.7,66.46L431.53,68.04L431.3,70.19L430.47,71.15L429.85,73.26L428.14,74.48L426.55,77.83L424.88,77.73L421.38,82.78L420.25,85.28L418.14,86.35L417.3,85.56L415.72,86.52L416,87.49L412.28,90.58L412.02,91.5L410.21,93.06L408.36,95.76L410.04,98.16L411.91,97.01L412.05,99.16L411.08,100.31L409.93,102.82L410.67,103.18L409.68,106.43L410.47,109.21L411.89,110.23L411.32,112.15L411.35,114.08L410.8,114.93L408.57,115.53L407.47,113.62L406.63,113.56L405.32,111.37L405.11,108.92L403.66,108.74L403.01,109.99L401.19,111.14L400.79,110.33L397.64,109.45L395.35,106.57L393.73,106.32L393.03,104.15L393.04,102.55L392.05,100.96L392.86,100.17L396,100.63L397.72,101.44L398.19,98.64L398.97,98.22L400.24,95.82L400.58,94.09L402.19,92.69L400.96,91.35L399.6,90.83L399.43,87.74L398.4,85.55L397.94,81.59L397.02,80.14L397.02,78.39L399.17,77.88L401.14,76.59L402.72,72.87L404.02,71.88L404.69,70.23L406.83,70.03L406.7,68.91L407.09,65.89L407.76,64.55L407.05,63.51L408.51,61.06L407.83,58.12L409,57.02L408.61,52.93Z" class="land" id="TH-52" title="Lampang"/>
    <path d="M462.9,96.84L462.5,97.82L460.75,98.51L459.07,97.97L458.05,99.96L456.64,100.54L454.49,103.97L453.29,104.37L451.36,106.34L450.3,106.64L449.76,108.13L447.5,108.34L444.01,108.19L442.01,109.34L439.03,109.93L437.69,110.9L438.16,114.43L435.98,116.23L434.97,115.57L432.09,116.66L428.97,116.93L428.27,114.91L428.53,113.14L430.14,111.52L429.76,106.91L429.03,105.88L427.18,104.68L427.7,103.88L427.09,102.39L428.8,101.13L428.45,97.98L426.97,96.63L426.19,94.6L428.23,95.55L429.56,93.81L431.6,93.65L434.5,92.49L436.88,90.57L437.95,89.12L439.07,89.27L440.96,91.63L441.75,90.37L441.43,88.36L443.59,86.99L447.35,86.95L450.16,86L452.95,86.9L455.55,86.87L456.94,85L458.25,84.85L458.97,83.01L460.38,82.16L460.58,79.15L462.74,76.86L464.51,75.95L466.22,74.31L467.62,74.78L469.33,76.21L468.31,77.25L468.85,80.07L469.72,80.33L468.7,83.41L469.48,85.46L467.39,87.77L466.27,90.41L463.93,91.6L464.3,93.63Z" class="land" id="TH-53" title="Uttaradit"/>
    <path d="M433.51,59.11L435.02,58.21L436.26,58.92L437.28,58.53L441.1,59.24L442.84,61.53L441.5,63.66L442.49,65.73L443.09,70.54L444.27,70.05L446.69,71.02L447.85,70.43L448.18,73.04L447.04,73.92L445.81,76.51L445.91,77.44L444.93,80.18L444.67,82.16L443.01,82.99L442.97,84.72L443.59,86.99L441.43,88.36L441.75,90.37L440.96,91.63L439.07,89.27L437.95,89.12L436.88,90.57L434.5,92.49L431.6,93.65L429.56,93.81L428.23,95.55L426.19,94.6L422.35,95.14L420.46,97.61L418.55,94.81L416.17,94.08L413.5,94.93L411.91,97.01L410.04,98.16L408.36,95.76L410.21,93.06L412.02,91.5L412.28,90.58L416,87.49L415.72,86.52L417.3,85.56L418.14,86.35L420.25,85.28L421.38,82.78L424.88,77.73L426.55,77.83L428.14,74.48L429.85,73.26L430.47,71.15L431.3,70.19L431.53,68.04L433.7,66.46L433.02,65.48L433.41,63.99L432.91,61.94L433.89,59.98Z" class="land" id="TH-54" title="Phrae"/>
    <path d="M466.22,74.31L464.51,75.95L462.74,76.86L460.58,79.15L460.38,82.16L458.97,83.01L458.25,84.85L456.94,85L455.55,86.87L452.95,86.9L450.16,86L447.35,86.95L443.59,86.99L442.97,84.72L443.01,82.99L444.67,82.16L444.93,80.18L445.91,77.44L445.81,76.51L447.04,73.92L448.18,73.04L447.85,70.43L446.69,71.02L444.27,70.05L443.09,70.54L442.49,65.73L441.5,63.66L442.84,61.53L441.1,59.24L442.72,56.09L442.82,54.92L444.06,53.92L444.05,52.84L445.09,50.42L446.97,51.45L447.77,50.67L450.01,51.6L450.24,50.71L448.64,49.68L448.95,48.59L450.78,48.76L451.42,48.1L450.45,45.82L449.86,43.38L449.99,41.42L448.63,41.32L447.08,38.11L448.66,36.8L449.25,35.48L447.45,34.66L445.8,34.89L445.5,33.42L446,31L444.56,29.69L444.06,28.33L444.51,26.99L443.34,26.1L444.28,23.86L445.18,24.5L448.48,24.15L449.07,23.36L453.34,23.18L453.3,24.38L452.21,26.78L452.04,32.73L455.15,34.1L457.13,33.61L459.35,30.73L460.48,30.17L464.1,29.88L465.39,30.26L467.42,31.93L470.25,30.76L472.74,31.58L472.89,33.54L472.25,35.58L470.37,35.48L470.53,36.95L469.58,38.17L471.82,43.8L471.54,45.9L471.93,47.89L475.25,50.7L474.62,52.15L473.15,53L473.24,54.47L471.82,55.67L471.46,58.28L471.67,60.22L470.82,61.82L472.41,63.32L470.93,65.5L469.41,66.12L469.44,67.93L466.78,69.31L466.45,70.65L465.12,72.12Z" class="land" id="TH-55" title="Nan"/>
    <path d="M443.34,26.1L444.51,26.99L444.06,28.33L444.56,29.69L446,31L445.5,33.42L445.8,34.89L447.45,34.66L449.25,35.48L448.66,36.8L447.08,38.11L448.63,41.32L449.99,41.42L449.86,43.38L450.45,45.82L451.42,48.1L450.78,48.76L448.95,48.59L448.64,49.68L450.24,50.71L450.01,51.6L447.77,50.67L446.97,51.45L445.09,50.42L444.05,52.84L444.06,53.92L442.82,54.92L442.72,56.09L441.1,59.24L437.28,58.53L436.26,58.92L435.02,58.21L433.51,59.11L431.74,58.2L432.03,57.11L427.84,54.38L427.2,53.07L424.23,52.27L423.56,50.13L422.04,50.04L419.7,43.62L419.85,40.21L419.36,38.69L420.06,37.38L422.48,36.28L425.09,36.44L427.03,37.84L427.96,37.06L431.23,36.56L431.96,35.81L431.96,33.04L434.3,32.54L438.68,29.46L440.31,29.21Z" class="land" id="TH-56" title="Phayao"/>
    <path d="M444.28,23.86L443.34,26.1L440.31,29.21L438.68,29.46L434.3,32.54L431.96,33.04L431.96,35.81L431.23,36.56L427.96,37.06L427.03,37.84L425.09,36.44L422.48,36.28L420.06,37.38L419.36,38.69L415.4,38.46L415.47,41.89L414.46,43.33L414.07,46.55L414.8,47.63L413.86,49.59L412.65,49.56L410.71,52.04L409.52,52.34L408.93,50.11L406.84,47.95L406.23,45.46L407.54,42.78L406.69,39.88L407.07,38.07L405.95,34.69L406.97,33.13L406.07,32.29L404.73,29.28L406.58,27.12L408.13,26.41L408.22,24.65L409.92,22.22L408.95,20.54L410.18,19.58L410.21,17.98L411.09,17.54L412.64,13.79L415.22,12.78L413.34,11.44L414.21,11.39L415.01,9.29L413.6,8.29L412.74,4.44L413.41,3.68L416.17,4.55L417.71,4.34L418.97,5.32L420.62,4.12L423.31,4.62L424.32,3.31L425.3,0.71L427.03,0.68L428.33,0L429.6,1.64L432.32,3.03L433.33,7.64L435.45,7.84L435.35,5.91L437.05,5.34L437.24,4.05L438.61,2.36L440.79,2.38L442.33,4.16L443.62,7.54L444.87,8.36L444.99,9.51L446.77,11.29L449.08,10.59L448.83,13.13L446.36,21.1L444.78,22.13Z" class="land" id="TH-57" title="Chiang Rai"/>
    <path d="M378.16,27.72L378.19,28.75L380.53,30.55L380.66,32.42L382.42,34.88L382.07,36.53L382.62,41.34L382.53,44.14L381.51,44.85L383.68,46.77L384.31,49.07L383.68,50.11L380.16,51.44L377.18,50.62L375.88,51.04L374.29,48.98L373.92,46.94L371.3,46.88L367.92,52.97L367.69,55.18L366.6,55.6L365.4,57.26L365.08,58.68L366.35,65.29L367.27,65.14L369.48,66.25L370.37,67.6L369.43,68.74L366.52,69.99L365.96,71.56L364.89,72.6L366.62,73.39L368.24,75.74L368.22,77.16L366.97,78.35L368.32,81.05L367.67,82.02L368,83.58L369.31,84.63L371.38,84.73L371.6,86.21L370.25,86.83L370.05,88.12L368.11,88.71L367.23,90.04L365.4,89.11L363.22,90L362.76,91.5L364.68,92.93L367.54,97.29L367.27,99L365.46,100.59L364.5,100.19L362.91,97.22L361.58,94.03L361.35,92.41L359.44,92.9L359.18,94.4L357.3,95.55L353.84,95.46L352.29,94.16L351.48,92.36L352.06,90.38L353.66,88.68L351.59,83.77L351.5,82.07L349.26,79.34L350.27,77.6L349.61,76.5L347.27,76.01L346.8,77.64L345.61,78.26L343.79,75.98L343.98,73.97L343.12,73.31L340.97,67.95L342.77,68.27L343.83,70.3L345.04,69.78L346.87,70.45L347.28,69.09L349.11,68.84L350.89,67.36L352.39,67.66L354.69,67.35L354.88,63.38L354.14,61.74L353.77,56.57L351.35,54.73L353.66,53.09L353.58,50.88L354.72,50.75L356.89,48.97L357.17,44.41L355.17,42.82L356.49,42.29L356.59,40.79L355.74,39.82L356.25,37.58L358.63,34.51L357.55,33.35L357.78,31.83L361.66,30.87L361.92,29.53L363.76,29.48L363.34,26.84L363.66,23.64L367,24.3L370.4,27.02L370.77,28.25L373.42,27.48L374.89,27.8Z" class="land" id="TH-58" title="Mae Hong Son"/>
    <path d="M430.78,151.22L432.77,152.58L432.27,153.66L433.48,155.26L433.56,156.4L435.06,159.44L437.27,160.85L440.54,159.15L440.77,160.18L445.47,160.66L447.5,160.13L451.84,158.41L455.55,158.09L455.67,161.64L456.92,162.26L456.45,164.18L457.19,166.7L457.41,171.59L456.26,174.23L455.2,174.75L455.6,176.74L451.99,177.98L451.37,178.9L450.21,182.7L449.12,183.38L448.73,185.22L445.25,189L443.84,190.98L441.17,189.1L441.29,187.84L439.64,186.62L438.46,182.91L436.4,180.25L433.08,178.41L431.91,177.04L427.84,175.53L427.33,169.42L425.14,170.1L425.01,171.41L422.76,170.53L420.74,168.95L418.22,169.6L416.03,171.03L414.97,172.33L413.28,173.35L411.87,173.31L410.17,171.55L408.74,171.18L407.93,169.24L405.96,168.79L404.35,167.8L402.3,165.66L400.58,165.29L399.24,163.95L398.97,162.06L400.32,161.14L403.52,160.01L404.99,161.29L408.54,160.97L412.04,161.54L414.14,160.68L416.39,161.62L418.14,163.05L419.85,162.29L420.97,163.03L421.88,160.85L423.74,159.82L424.42,157.48L425.86,156.34L427.39,156.23L430.2,152.75Z" class="land" id="TH-60" title="Nakhon Sawan"/>
    <path d="M400.58,165.29L402.3,165.66L404.35,167.8L405.96,168.79L407.93,169.24L408.74,171.18L410.17,171.55L411.87,173.31L413.28,173.35L414.97,172.33L416.03,171.03L418.22,169.6L420.74,168.95L422.76,170.53L425.01,171.41L425.14,170.1L427.33,169.42L427.84,175.53L431.91,177.04L433.08,178.41L432.13,180.06L432.99,181.22L431.46,182.93L428.2,182.33L425.73,182.95L424.62,182.12L422.5,181.88L420.26,183.28L420.33,185.2L421.16,187.25L423.12,189.68L422,191.02L422.18,192.07L420.09,193.76L417.34,193.31L417.23,195.07L415.68,194.8L413.04,193.46L410.4,192.85L410.1,191.26L408.3,191.26L407.26,190.11L406.16,191.03L405.58,193.15L403.84,192.53L401.44,192.41L400.02,191.05L398.61,191.61L396.05,190.42L396.23,187.91L395.47,186.63L397.3,182.87L397.05,181.25L398.3,178.38L397.88,177.51L398.67,175.64L397.75,173.33L399.18,172.68L399.76,169.69L400.67,167.37Z" class="land" id="TH-61" title="Uthai Thani"/>
    <path d="M410.35,127.21L411.47,127.3L412.48,126.24L413.33,127.67L415.49,128.13L415.45,129.15L416.94,131.5L418.74,132.55L420.48,132.71L421.9,134.16L424.82,132.28L426.27,132.77L426.68,136.87L428.3,138.04L430.1,137.95L430.81,140.51L429.49,142.66L429.08,144.84L430.37,147.1L430.39,149.34L431.51,150.07L430.78,151.22L430.2,152.75L427.39,156.23L425.86,156.34L424.42,157.48L423.74,159.82L421.88,160.85L420.97,163.03L419.85,162.29L418.14,163.05L416.39,161.62L414.14,160.68L412.04,161.54L408.54,160.97L404.99,161.29L403.52,160.01L400.32,161.14L398.97,162.06L399.28,160.5L398.82,157.15L399.93,155.51L398.67,153.67L397.7,153.3L398.8,150.64L397.68,149.06L397.41,144.97L396.56,144.55L396.66,141.4L400.16,141.45L402.43,139.21L404.1,139.39L404.63,138.22L404.29,134.86L405.15,134.61L406.21,132.19L406.91,129.58L408.46,129.93L408.77,127.89Z" class="land" id="TH-62" title="Kamphaeng Phet"/>
    <path d="M353.84,95.46L357.3,95.55L359.18,94.4L359.44,92.9L361.35,92.41L361.58,94.03L362.91,97.22L364.5,100.19L365.46,100.59L367.03,103.98L370.39,103.68L372.38,102.75L373.47,106.45L373.22,108.37L372.21,108.69L373.61,110.72L373.5,112.39L374.56,112.86L377.76,111.96L379.1,113.33L381.15,112.7L381.28,110.66L380.47,110.24L381.18,107.81L380.1,106.89L379.85,105.04L380.71,103.31L382.11,102.61L381.33,101.33L380.3,101.15L380.07,98.13L379.35,96.27L379.87,93.97L381.23,94.98L382.48,94.75L383.84,97.06L385.62,95.65L387.48,98.62L385.4,99.59L385.34,101.99L386.01,103.46L385.82,104.9L386.52,106.67L390.33,104.88L392.08,105.04L393.03,104.15L393.73,106.32L395.35,106.57L397.64,109.45L400.79,110.33L401.19,111.14L403.01,109.99L403.66,108.74L405.11,108.92L405.32,111.37L406.63,113.56L406.45,116.46L406.82,119.13L409.24,120.14L409.27,122.15L409.99,125.22L411,126.21L410.35,127.21L408.77,127.89L408.46,129.93L406.91,129.58L406.21,132.19L405.15,134.61L404.29,134.86L404.63,138.22L404.1,139.39L402.43,139.21L400.16,141.45L396.66,141.4L396.56,144.55L397.41,144.97L397.68,149.06L398.8,150.64L397.7,153.3L398.67,153.67L399.93,155.51L398.82,157.15L399.28,160.5L398.97,162.06L399.24,163.95L400.58,165.29L400.67,167.37L399.76,169.69L399.18,172.68L397.75,173.33L398.67,175.64L397.88,177.51L398.3,178.38L397.05,181.25L397.3,182.87L395.47,186.63L394.53,184.37L393.46,184.39L391.66,181.66L390.42,180.93L388.5,178.15L387.86,176.47L384.64,172.1L384.2,170.9L381.59,170.14L380.78,169.16L381.64,165.65L382.91,162.39L382.04,160.93L382.84,158.84L381.29,156.94L381.93,155.87L383.41,156.6L384.61,155.52L385.9,153.35L389.42,154.43L390.9,153.61L391.38,152.11L391.07,150.4L392.75,149.21L393.72,146.58L393.29,144.58L391.98,143.22L390.32,143.28L389.85,144.56L388.47,145.88L386.87,146.49L385.96,148.63L384.82,147.89L383.85,143.15L384.51,142.18L381.79,138.52L381.6,135.99L379.62,135.49L379.76,133.81L377.95,132.52L379.76,129.84L378.97,128.58L379.66,126.49L378.64,125.2L378.78,124L377.68,122.25L375.69,121.34L373.95,121.33L370.59,115.65L368.2,113.89L366.11,111.72L366.1,109.45L365.09,109.25L364.25,107.45L362.15,105.06L359.84,104.04L359.25,102.48L355.46,99.07L354.44,97.5L354.8,96.51Z" class="land" id="TH-63" title="Tak"/>
    <path d="M411.91,97.01L413.5,94.93L416.17,94.08L418.55,94.81L420.46,97.61L422.35,95.14L426.19,94.6L426.97,96.63L428.45,97.98L428.8,101.13L427.09,102.39L427.7,103.88L427.18,104.68L429.03,105.88L429.76,106.91L430.14,111.52L428.53,113.14L428.27,114.91L428.97,116.93L427.96,120.2L429.44,120.23L430.2,121.87L432.83,123.2L433.37,125.91L432.56,126.83L429.93,126.87L429.91,127.67L428.03,127.98L424.82,132.28L421.9,134.16L420.48,132.71L418.74,132.55L416.94,131.5L415.45,129.15L415.49,128.13L413.33,127.67L412.48,126.24L411.47,127.3L410.35,127.21L411,126.21L409.99,125.22L409.27,122.15L409.24,120.14L406.82,119.13L406.45,116.46L406.63,113.56L407.47,113.62L408.57,115.53L410.8,114.93L411.35,114.08L411.32,112.15L411.89,110.23L410.47,109.21L409.68,106.43L410.67,103.18L409.93,102.82L411.08,100.31L412.05,99.16Z" class="land" id="TH-64" title="Sukhothai"/>
    <path d="M461.91,102.81L459.28,102.44L457.71,106.57L459.73,106.68L460.73,108.28L460.44,111L463,111.04L464.95,113.07L466.06,113.18L466.94,114.74L465.86,116.74L465.92,118.12L464.98,120.23L465.23,122.01L464.63,123.36L465.6,126.38L460.57,130.35L460.95,132.91L460.7,134.78L458.74,135.55L458.15,137.36L458.5,138.95L457.11,141.19L455.28,143.01L453.43,143.41L453.28,145L451.47,146.66L449.88,144.66L449.21,139.88L449.43,137.27L447.38,137.86L445.9,138.79L445.41,139.85L443.92,140.27L442.27,139.29L440.45,139.72L438.56,139.25L437.55,139.56L437.47,136.28L434.9,137.3L434.03,136.79L432.4,137.8L430.1,137.95L428.3,138.04L426.68,136.87L426.27,132.77L424.82,132.28L428.03,127.98L429.91,127.67L429.93,126.87L432.56,126.83L433.37,125.91L432.83,123.2L430.2,121.87L429.44,120.23L427.96,120.2L428.97,116.93L432.09,116.66L434.97,115.57L435.98,116.23L438.16,114.43L437.69,110.9L439.03,109.93L442.01,109.34L444.01,108.19L447.5,108.34L449.76,108.13L450.3,106.64L451.36,106.34L453.29,104.37L454.49,103.97L456.64,100.54L458.05,99.96L459.07,97.97L460.75,98.51L462.5,97.82L462.9,96.84L463.59,98.37L463.01,99.26L463,101.22Z" class="land" id="TH-65" title="Phitsanulok"/>
    <path d="M430.1,137.95L432.4,137.8L434.03,136.79L434.9,137.3L437.47,136.28L437.55,139.56L438.56,139.25L440.45,139.72L442.27,139.29L443.92,140.27L445.41,139.85L445.9,138.79L447.38,137.86L449.43,137.27L449.21,139.88L449.88,144.66L451.47,146.66L452.53,149.33L453.45,149.58L451.31,153.22L451.68,154.39L451.29,156.27L454.08,157.14L455.55,158.09L451.84,158.41L447.5,160.13L445.47,160.66L440.77,160.18L440.54,159.15L437.27,160.85L435.06,159.44L433.56,156.4L433.48,155.26L432.27,153.66L432.77,152.58L430.78,151.22L431.51,150.07L430.39,149.34L430.37,147.1L429.08,144.84L429.49,142.66L430.81,140.51Z" class="land" id="TH-66" title="Phichit"/>
    <path d="M465.6,126.38L466.86,126.47L466.97,123.01L469.02,121.13L470.8,118.36L472.03,119.86L476.85,119.72L478.01,120.44L478.88,119.69L481.16,121.14L481.79,123.18L483.75,123L484.44,121.44L486,123.85L486.46,125.28L486.07,127.92L487.71,131.72L489.7,131.37L489.77,132.78L488.44,134.67L487.71,135.27L486.24,133.98L484.59,134.24L482.98,132.68L481.92,133.09L480.41,135.09L479.97,138.09L479.18,139.56L479.19,141.33L476.81,144.17L475.75,147.93L475.78,150.36L474.76,152.75L474.14,156.66L475.3,159.39L475.13,161.97L474.42,162.27L473.93,165.45L474.55,166.64L476.94,167.31L475.73,172.78L473.72,172.99L473.54,179.45L472.56,180.37L469.65,181.49L467.81,181.61L466.35,180.71L464.05,181.16L462.49,179.49L461.53,177.42L459.75,176.41L458.32,176.54L455.2,174.75L456.26,174.23L457.41,171.59L457.19,166.7L456.45,164.18L456.92,162.26L455.67,161.64L455.55,158.09L454.08,157.14L451.29,156.27L451.68,154.39L451.31,153.22L453.45,149.58L452.53,149.33L451.47,146.66L453.28,145L453.43,143.41L455.28,143.01L457.11,141.19L458.5,138.95L458.15,137.36L458.74,135.55L460.7,134.78L460.95,132.91L460.57,130.35Z" class="land" id="TH-67" title="Phetchabun"/>
    <path d="M425.5,229.44L427.15,229.87L426.63,232.97L428.2,233.37L427.62,235.99L428.05,236.97L429.63,236.8L430.5,237.99L431.88,238.22L431.87,239.78L430.87,242.25L430.63,244.73L429.48,245.17L426.96,244.96L425.99,246.03L425.95,247.41L424.81,250.91L421.49,250.39L419.72,251.19L418.37,252.39L418.33,254.86L415.41,255.46L413.55,255.02L413.06,256.04L411.48,255.97L408.56,254.73L407.79,253.9L406.7,255.28L406.9,256.15L405.13,257.13L403.08,255.11L403.1,253.26L402.3,252.2L403.03,250.62L403.15,248.01L402.41,245.18L402.55,243.56L401.6,242.5L401.85,240.53L401.64,237.12L405.57,235.96L407.88,236.44L411.24,235.26L414.46,236.05L417.38,234.17L418.41,233.02L419.86,233.62L422.67,233.84L424.16,232.34Z" class="land" id="TH-70" title="Ratchaburi"/>
    <path d="M381.59,170.14L384.2,170.9L384.64,172.1L387.86,176.47L388.5,178.15L390.42,180.93L391.66,181.66L393.46,184.39L394.53,184.37L395.47,186.63L396.23,187.91L396.05,190.42L398.61,191.61L400.02,191.05L401.44,192.41L403.84,192.53L405.58,193.15L406.81,194.76L406.66,196.77L405.51,197.81L406.43,199.48L408.06,200.9L410.69,200.78L411.61,203.52L414.48,202.63L414.47,201.05L415.51,200.27L416.7,200.55L417.84,199.78L420.51,201.67L422.31,201.76L422.07,203.16L423.52,204.93L424,206.23L422.83,207.25L423.6,210.24L423.43,212.45L423.7,216.93L423.6,219.86L422.39,221.06L421.1,221.25L420.52,223.98L422.61,224.23L423.28,225.41L424.37,225.63L424.42,227.75L425.5,229.44L424.16,232.34L422.67,233.84L419.86,233.62L418.41,233.02L417.38,234.17L414.46,236.05L411.24,235.26L407.88,236.44L405.57,235.96L401.64,237.12L400.17,235.59L399.45,233.29L399.77,231.54L396.78,229.53L396.04,227.05L395.13,226.58L395,224.89L388.59,220.79L383.56,216.74L382.68,216.53L382.51,214.94L381.47,214.38L380.92,212.65L379.65,211.17L378.93,208.95L377.05,206.4L373.34,203.09L372.36,201.04L370.79,198.96L371.24,198L370.22,196.81L370.88,195.96L369.42,193.58L370.25,191.51L368.62,189.62L368.81,187.74L369.56,186.8L369.06,184.92L370.9,185.11L372.65,183.22L372.65,182.08L376.57,183.51L376.39,180.79L378.58,179.8L381.91,180.26L382.19,177.65L381.97,174.7L381.1,172.02Z" class="land" id="TH-71" title="Kanchanaburi"/>
    <path d="M405.58,193.15L406.16,191.03L407.26,190.11L408.3,191.26L410.1,191.26L410.4,192.85L413.04,193.46L415.68,194.8L417.23,195.07L417.34,193.31L420.09,193.76L422.71,194.92L424.71,195.03L425.71,195.98L428.44,196.33L431.06,195.8L431,194.32L433.43,194.84L434.19,196L436.43,194.56L435.75,195.25L436.7,196.98L437.29,200.24L436.66,200.79L436.66,204.05L437.39,205.08L436.2,206.57L436.59,209.55L438.14,210.97L438.82,212.81L438.63,216.4L437.8,217.82L437.78,220.42L436.86,221.35L434.06,222.62L427.66,222.99L424.37,225.63L423.28,225.41L422.61,224.23L420.52,223.98L421.1,221.25L422.39,221.06L423.6,219.86L423.7,216.93L423.43,212.45L423.6,210.24L422.83,207.25L424,206.23L423.52,204.93L422.07,203.16L422.31,201.76L420.51,201.67L417.84,199.78L416.7,200.55L415.51,200.27L414.47,201.05L414.48,202.63L411.61,203.52L410.69,200.78L408.06,200.9L406.43,199.48L405.51,197.81L406.66,196.77L406.81,194.76Z" class="land" id="TH-72" title="Suphan Buri"/>
    <path d="M437.78,220.42L437.93,221.65L439.18,221.8L439.05,223.35L438.56,227.38L439.66,228.97L438.96,230.79L440.37,233.84L440.77,236.91L439.15,238.31L434.13,238.7L433.12,239.82L431.87,239.78L431.88,238.22L430.5,237.99L429.63,236.8L428.05,236.97L427.62,235.99L428.2,233.37L426.63,232.97L427.15,229.87L425.5,229.44L424.42,227.75L424.37,225.63L427.66,222.99L434.06,222.62L436.86,221.35Z" class="land" id="TH-73" title="Nakhon Pathom"/>
    <path d="M440.77,236.91L441.04,240.11L442.08,240.51L442.9,243L443.74,243.52L443.34,245.2L440.62,245.43L438.86,244.75L438.38,245.64L432.28,247.56L432.08,246.47L430.63,244.73L430.87,242.25L431.87,239.78L433.12,239.82L434.13,238.7L439.15,238.31Z" class="land" id="TH-74" title="Samut Sakhon"/>
    <path d="M424.81,250.91L425.95,247.41L425.99,246.03L426.96,244.96L429.48,245.17L430.63,244.73L432.08,246.47L432.28,247.56L430.76,249.42L428.03,252.03L424.9,253.78Z" class="land" id="TH-75" title="Samut Songkhram"/>
    <path d="M403.08,255.11L405.13,257.13L406.9,256.15L406.7,255.28L407.79,253.9L408.56,254.73L411.48,255.97L413.06,256.04L413.55,255.02L415.41,255.46L418.33,254.86L418.37,252.39L419.72,251.19L421.49,250.39L424.81,250.91L424.9,253.78L428.03,252.03L427.66,253.06L429.14,254.12L430.27,255.85L431.87,256.82L431.87,259.46L432.79,260.86L430.92,263.48L430.41,266.08L428.48,271.17L428.11,274.9L425.69,275.31L423.76,275L421.52,276.62L421.21,275.06L420.13,274.3L417.71,274.78L416.77,278.09L415.44,276.76L413.53,277.38L412.41,276.37L410.77,276.63L409.86,275.51L408.75,275.51L406.42,273.73L405.08,271.6L403.88,270.76L403.48,268.35L402.26,267.43L402.15,265.34L402.57,263.77L401.74,261.75L400.19,260.93L399.36,259.75L400.5,258.18L400.15,255.54Z" class="land" id="TH-76" title="Phetchaburi"/>
    <path d="M410.77,276.63L412.41,276.37L413.53,277.38L415.44,276.76L416.77,278.09L417.71,274.78L420.13,274.3L421.21,275.06L421.52,276.62L423.76,275L425.69,275.31L428.11,274.9L428.69,278.54L428.91,281.76L429.7,285.09L428.73,287.55L430.24,290.15L428.57,292.02L427.66,293.88L425.24,296.61L423.95,298.7L423.29,300.67L423.95,301.87L422.84,302.94L422.6,305.41L420.62,307.28L417.44,313.23L415.51,318.73L414.52,320.57L414.32,323.85L412.82,325.06L412.33,326.98L412.83,329.42L412.67,331.38L411.79,331.26L409.73,332.53L407.61,331.84L405.15,332.17L402.77,331.47L401.07,329.87L402.01,328.2L403.54,327.29L403.54,326.14L404.84,324.12L406.34,323.57L405.95,322.48L406.97,321.16L406.49,320.13L408.27,318.27L409.51,317.67L409.26,315.18L411.92,312.72L411.39,311.01L411.72,309.92L413.05,309.19L415.02,309.53L416.26,306.74L417.39,306.07L417.53,303.95L415.77,301.07L415.49,298.66L415.9,296.94L414.05,296.16L413.95,294.43L415.2,291.7L412.83,291.75L412.63,290.18L410.59,284.91L411.02,282.72L409.52,280.89L410.32,279.8L410.18,277.72Z" class="land" id="TH-77" title="Prachuap Khiri Khan"/>
    <path d="M440.93,435.58L439.95,436.19L437.91,436.1L437.38,436.78L434.44,437.69L431.21,438.82L429.19,438.02L428.22,437.04L426.95,437.27L423.09,436.99L422.31,438.13L420.74,438.16L421.45,434.61L420.52,433.35L419.65,433.6L417.21,432.93L413.3,437.5L411.86,436.51L410.08,437.15L410.12,434.84L409.34,434.76L409.98,433.25L409.3,431.87L408.93,429.6L407.63,428.67L405.96,428.79L405.74,427.67L406.75,426.43L406.49,425.33L407.09,423.39L405.78,422.64L403.87,419.75L404.71,418.03L407.13,416.35L409.25,415.37L410.8,412.91L411.05,411.79L412.62,410.43L413.55,408.81L413.69,405.72L414.8,404.35L415.36,402.3L417.12,402.29L419.41,401.48L421.02,398.4L420.83,392.46L421.34,391.76L421.16,389.29L421.87,388.28L424.45,389.63L425.62,392.12L425.4,394.47L426.56,395.93L426.73,402.34L428.21,412.48L429.25,413.1L431.09,415.49L432.58,419.22L434.24,420.06L435.28,416.15L436.59,417.76L438.32,422.41L438.97,424.83Z" class="land" id="TH-80" title="Nakhon Si Thammarat"/>
    <path d="M399.28,438.95L399.33,439.19L400.17,439.53L399.64,443.09L399.13,443.77L397.39,443.38L396.78,441.74L396.59,439.11L397.63,438.26ZM398.26,443.85L399.66,443.91L400.38,445.21L400.17,446.53L398.32,446.52L397.31,443.97ZM397.25,445.1L397.98,446.41L398.72,446.99L398.57,448.18L399.75,450.55L398.24,450.26L397.13,447.97ZM386,411.79L387.5,410.35L390.72,411.01L393.8,414.18L394.3,416.57L393.92,418.28L397.46,420.98L400.11,420.81L402.98,421.83L404.83,423.01L405.78,422.64L407.09,423.39L406.49,425.33L406.75,426.43L405.74,427.67L405.96,428.79L407.63,428.67L408.93,429.6L409.3,431.87L409.98,433.25L409.34,434.76L406.5,436.21L406.65,437.18L405.37,438.26L406.21,439.79L405.69,440.97L406.42,443.11L404.7,444.79L401.99,443.34L400.63,441.72L400.31,439.44L399.33,439.19L399.28,438.95L396.97,437.01L395.97,435.25L395.06,435.56L393.26,432.04L390.71,433.21L389.77,431.92L388.04,431.91L387.16,430.69L387.62,427.06L387.16,425.22L386.11,423.47L383.42,423.53L383.87,421.36L384.84,420.24L384.7,418.76L384.18,416.91L384.98,415.88Z" class="land" id="TH-81" title="Krabi"/>
    <path d="M371.43,398.8L373.25,399.86L371.26,403.1L370.71,402.21ZM383.74,426.94L383.36,429.83L382.08,429.97L382.56,428.02ZM372.11,393.56L373.23,395.25L373.59,396.69L372.58,397.94L370.63,398.19L370.74,394.97ZM375.56,387.44L377.4,387.32L378.52,388.9L379.37,388.76L380.19,390.6L379.26,391.88L378.51,395.06L378.97,396.51L378.25,397.12L379.52,399.42L377.51,400.43L377.33,402.83L379.35,403.34L381.01,405.6L382.48,406.18L382.33,409.07L380.42,410.83L382.65,411.98L385.03,410.81L386,411.79L384.98,415.88L384.18,416.91L384.7,418.76L384.45,420.21L382.38,420.2L382.26,421.01L379.02,422.46L377.84,423.35L378.1,425.84L377,427.72L375.39,428.97L374.48,426.88L371.85,426.32L371.85,424.94L370.96,420.72L369.27,414.5L370.44,413.17L370.67,411.07L370.26,408.76L371.15,407.36L371.27,405.27L372.07,402.05L373.57,400.01L373.46,397.35L374.66,396.9L373.87,394.15L372.99,392.63L375.07,389.33ZM380.59,429.83L382.89,431.77L382.52,432.65L383.01,434.51L382.35,436.54L381.33,434.65L382.13,432.84L380.88,432.03Z" class="land" id="TH-82" title="Phangnga"/>
    <path d="M372.22,426.49L373.71,427.42L374.25,429.47L376.83,431.35L375.61,433.97L376.27,435.76L376.38,437.71L373.98,439.29L372.41,439.87L372.31,436.38L371.04,435.45L372.18,433.33L371.51,430.62L372.5,429.61Z" class="land" id="TH-83" title="Phuket"/>
    <path d="M432.08,375.47L431.02,375.56L428.67,374.49L428.39,371.82L430.21,371.82L432.13,373.08ZM387.2,378.79L388.12,377.87L388.2,375.88L390.76,375.3L391.65,374.38L397.12,375.65L401.34,375.3L401.73,376.97L403.03,378.78L403.02,379.88L404.12,382.77L405.76,385.57L403.34,387.79L403.47,390.5L404.96,391.81L406.39,390.99L408.42,392.78L409.88,392.25L411.69,392.5L412.54,391.98L413.8,389.57L416.37,390.15L417.74,388.88L419.27,388.18L420.32,388.63L421.87,388.28L421.16,389.29L421.34,391.76L420.83,392.46L421.02,398.4L419.41,401.48L417.12,402.29L415.36,402.3L414.8,404.35L413.69,405.72L413.55,408.81L412.62,410.43L411.05,411.79L410.8,412.91L409.25,415.37L407.13,416.35L404.71,418.03L403.87,419.75L405.78,422.64L404.83,423.01L402.98,421.83L400.11,420.81L397.46,420.98L393.92,418.28L394.3,416.57L393.8,414.18L390.72,411.01L387.5,410.35L386,411.79L385.03,410.81L382.65,411.98L380.42,410.83L382.33,409.07L382.48,406.18L381.01,405.6L379.35,403.34L377.33,402.83L377.51,400.43L379.52,399.42L378.25,397.12L378.97,396.51L378.51,395.06L379.26,391.88L380.19,390.6L379.37,388.76L380.73,386.99L382.91,387.64L384.74,387.19L384.54,384.98L387.48,381.05L388.18,380.72ZM431.96,379.18L432.65,379.85L431.5,381.76L431.27,383.31L429.93,384.99L428.41,385.35L427.48,384.65L426.86,382.52L427.38,380.96L426.65,379.81L428.98,379.24L431.38,380.29Z" class="land" id="TH-84" title="Surat Thani"/>
    <path d="M392.26,338.73L393.1,339.63L392.29,341.41L393.64,342.21L394.81,344.54L394.01,345.73L394.73,346.76L393.24,347.85L392.11,349.54L392.66,351.56L393.59,351.7L394.08,353.19L392.64,355.33L392.92,356.11L391.64,358.79L391.4,361.9L392.79,364.24L390.27,365.95L389.75,367.36L388.62,366.88L386.64,368.8L386.57,369.78L383.63,372.4L384.13,376.72L386.63,377.87L387.2,378.79L388.18,380.72L387.48,381.05L384.54,384.98L384.74,387.19L382.91,387.64L380.73,386.99L379.37,388.76L378.52,388.9L377.4,387.32L375.56,387.44L375.71,385.55L376.43,385.39L377.05,382.06L380.33,379.89L379.45,379L377.99,378.71L378.66,375.92L380.12,376.02L381.03,374.47L379.59,373.56L380.4,372.32L379.7,370.18L381.08,369.4L382.06,367.53L382.68,365.28L385.1,361.04L387.17,354.72L387.74,351.86L389.66,349.22L390.01,347.93L389.69,345.38L388.38,344.04L388.67,342.05L391.95,338.34Z" class="land" id="TH-85" title="Ranong"/>
    <path d="M401.07,329.87L402.77,331.47L405.15,332.17L407.61,331.84L409.73,332.53L411.79,331.26L412.67,331.38L412.5,333.1L413.46,334.47L412.69,335.27L410.82,335.41L409.88,339.1L408.76,340.99L406.81,342.21L405.45,344.59L405.22,346.63L404.02,346.86L403.65,349.02L405.52,351.13L405.52,352.8L403.7,352.99L402.46,352.47L400.92,353.43L401.32,355.27L402.91,355.91L403.43,357.44L402.51,357.88L400.96,361L401.11,362.81L401.91,364.91L401.07,365.45L401.56,370.01L400.63,371.31L401.34,375.3L397.12,375.65L391.65,374.38L390.76,375.3L388.2,375.88L388.12,377.87L387.2,378.79L386.63,377.87L384.13,376.72L383.63,372.4L386.57,369.78L386.64,368.8L388.62,366.88L389.75,367.36L390.27,365.95L392.79,364.24L391.4,361.9L391.64,358.79L392.92,356.11L392.64,355.33L394.08,353.19L393.59,351.7L392.66,351.56L392.11,349.54L393.24,347.85L394.73,346.76L394.01,345.73L394.81,344.54L393.64,342.21L392.29,341.41L393.1,339.63L392.26,338.73L393.42,336.92L394.61,337.43L396.36,335.92L395.97,333.62L396.79,332.03L398.66,332.57L399.45,330.55Z" class="land" id="TH-86" title="Chumphon"/>
    <path d="M442.3,456.93L442.57,457.85L443.75,459.02L443.05,459.26L443.73,461.71L445.35,461.88L446.06,462.65L448.14,462.37L449.57,461.15L450.56,461.01L454.33,466.57L455.7,467.99L457.49,468.83L458.16,468.47L460.22,470.33L463.04,471.95L465.34,472.03L465.15,473.82L464.21,474.67L465.11,476.76L465.2,478.32L466.86,479.75L466.99,481.17L463.24,484.71L460.79,486.26L460.44,487.58L460.83,490.17L460.19,490.75L457.95,490.65L457.24,488.96L457.29,486.48L455.75,485.36L453.43,485.09L451.57,486.03L450.05,485.09L446.8,484.31L446.08,483.26L443.86,483.62L441.87,482.75L441.47,481.66L440.17,480.61L440.54,478.59L438.78,477.63L437.53,477.54L436.5,476.46L436.8,475.28L436.02,473.66L437.02,471.5L435.83,470.15L433.71,469.76L432.27,468L431.72,466.52L431.51,463.54L431.72,462.53L433.35,461.58L434.86,462.14L435.48,461.25L439.19,460.04L441.05,458.73L440.92,457.99L442.28,456.54L442.3,456.58L442.29,456.83ZM434.44,437.69L437.38,436.78L437.91,436.1L439.95,436.19L440.93,435.58L443.63,447.49L445.1,452.69L446.82,456.69L448.94,459.68L447.69,459.99L445.65,458.51L444.44,458.68L443.88,456.32L443.91,454.95L443.23,454.31L443.45,451.16L442.81,448.1L440.41,447.59L439.48,449.26L438.49,448.3L440.43,445.66L439.91,441.73L439.02,439.98L436.38,440.81L435.44,439.9L433.88,440.06Z" class="land" id="TH-90" title="Songkhla"/>
    <path d="M404.31,481.29L403.41,482.8L402.56,481.55ZM418.19,476.68L418.99,477.87L418.81,479.85L419.49,482.51L417.43,482.51L416.02,480.71L416.64,478.69ZM421.76,462.93L422.48,462.88L424.95,464.85L426.24,463.92L428.04,463.91L429.55,463.34L431.51,463.54L431.72,466.52L432.27,468L433.71,469.76L435.83,470.15L437.02,471.5L436.02,473.66L436.8,475.28L436.5,476.46L435.39,477.55L435.7,478.88L434.87,481.49L434.94,484.82L433.79,487.32L433.03,484.23L430.34,482.6L427.04,477.74L425.5,476.66L424.18,474.3L423.05,474.74L422.16,472.67L421.31,472.85L419.42,472.05L419.03,470.74L418.52,465.83L420.79,462.8ZM405.29,481.48L406.95,482.35L406.53,483.79L405.55,483.82Z" class="land" id="TH-91" title="Satun"/>
    <path d="M409.34,434.76L410.12,434.84L410.08,437.15L411.86,436.51L413.3,437.5L417.21,432.93L419.65,433.6L420.52,433.35L421.45,434.61L420.74,438.16L422.49,443.43L423.47,444.15L422.85,447.37L424.08,448.65L423.57,449.82L426.29,454.04L426.42,456.06L427.55,456.44L427.36,459.02L428.27,461.44L429.55,463.34L428.04,463.91L426.24,463.92L424.95,464.85L422.48,462.88L421.76,462.93L420.89,462.65L418.54,462.94L418.14,461.26L416.41,462.56L415.67,462.19L414.76,460.13L413.52,458.73L413.89,457.6L412.49,456.4L411.76,457.57L409.26,456.75L407.35,454.36L407.71,453.54L406.44,448.82L404.43,445.5L404.7,444.79L406.42,443.11L405.69,440.97L406.21,439.79L405.37,438.26L406.65,437.18L406.5,436.21Z" class="land" id="TH-92" title="Trang"/>
    <path d="M420.74,438.16L422.31,438.13L423.09,436.99L426.95,437.27L428.22,437.04L429.19,438.02L431.21,438.82L434.44,437.69L433.88,440.06L435.44,439.9L436.38,440.81L434.54,442.49L434.65,445.3L435.52,449.57L436.85,450.64L438.09,453.22L440.08,455.69L441.54,455.5L442.25,456.45L442.28,456.54L440.92,457.99L441.05,458.73L439.19,460.04L435.48,461.25L434.86,462.14L433.35,461.58L431.72,462.53L431.51,463.54L429.55,463.34L428.27,461.44L427.36,459.02L427.55,456.44L426.42,456.06L426.29,454.04L423.57,449.82L424.08,448.65L422.85,447.37L423.47,444.15L422.49,443.43ZM442.75,453.52L442.88,455.86L443.93,456.73L442.63,457.6L442.22,456.08L441.44,455.18L442.45,453.48Z" class="land" id="TH-93" title="Phatthalung"/>
    <path d="M474.15,469.69L475.38,470.48L478.34,471.06L481.96,472.39L487.61,481.51L485.76,481.62L483.84,479.61L482.65,480.12L483.17,481.9L481.24,482.21L480.18,480.57L477.57,480.89L476.35,481.81L473.5,481.81L472.92,478.26L471.3,479.55L470.46,480.87L467.71,480.41L466.86,479.75L465.2,478.32L465.11,476.76L464.21,474.67L465.15,473.82L465.34,472.03L469.49,471.74L471.88,470.48L474.41,471.42Z" class="land" id="TH-94" title="Pattani"/>
    <path d="M466.86,479.75L467.71,480.41L470.46,480.87L471.3,479.55L472.92,478.26L473.5,481.81L476.35,481.81L477.57,480.89L480.18,480.57L481.24,482.21L483.17,481.9L483.7,482.68L481.16,485.2L481.05,486L478.83,485.28L478.59,486.42L477.5,486.76L477.26,488.44L476.27,489.64L476.78,491.88L476.55,493.45L475.72,494L476.29,495.42L477.58,496.22L478.25,498.25L479.21,498.79L479.71,504.35L480.06,504.65L479.07,505.27L476.48,505.27L475.64,506.58L473.85,507.51L472.93,507.05L471.63,509.07L471.87,510.65L470.15,512.44L467.75,514L467.05,511.92L465.4,509.77L464.24,509.55L462.76,507.56L463.75,506.59L463.55,505.3L464.45,503.8L466.11,504.03L467.5,501.76L466.81,501.05L466.68,499.17L467.67,497.57L466.24,496.49L466.11,494.98L467.48,494.43L466.39,492.19L463.88,492.44L462.48,491.23L461.22,492.57L458.55,492.91L457.95,490.65L460.19,490.75L460.83,490.17L460.44,487.58L460.79,486.26L463.24,484.71L466.99,481.17Z" class="land" id="TH-95" title="Yala"/>
    <path d="M483.17,481.9L482.65,480.12L483.84,479.61L485.76,481.62L487.61,481.51L490.75,485.78L492.64,486.67L495.26,489.56L499.75,492.69L499.46,494.33L499.98,496.06L498.66,498.31L496.54,499.67L495.02,501.48L494.42,503.59L494.95,505.36L491.2,508.54L490.62,509.9L488.72,507.82L486.54,508.42L485.56,507.27L485.51,505.34L484.61,505.09L482.8,503.25L480.06,504.65L479.71,504.35L479.21,498.79L478.25,498.25L477.58,496.22L476.29,495.42L475.72,494L476.55,493.45L476.78,491.88L476.27,489.64L477.26,488.44L477.5,486.76L478.59,486.42L478.83,485.28L481.05,486L481.16,485.2L483.7,482.68Z" class="land" id="TH-96" title="Narathiwat"/>
    <path d="M436.38,440.81L439.02,439.98L439.91,441.73L440.43,445.66L438.49,448.3L439.48,449.26L440.41,447.59L442.81,448.1L443.45,451.16L443.23,454.31L443.91,454.95L443.88,456.32L444.44,458.68L443.75,459.02L442.57,457.85L442.3,456.93L442.29,456.83L442.3,456.58L442.25,456.45L441.54,455.5L440.08,455.69L438.09,453.22L436.85,450.64L435.52,449.57L434.65,445.3L434.54,442.49ZM442.75,453.52L442.45,453.48L441.44,455.18L442.22,456.08L442.63,457.6L443.93,456.73L442.88,455.86Z" class="land" id="TH-LK" title="Songkhla Lake"/>
  </g>
</svg>