<?xml version="1.0" encoding="UTF-8"?>
<svg xmlns="http://www.w3.org/2000/svg" width="747.91" height="519.3" viewBox="106.05 -2.65 747.91 519.3" style="background-color:#000000">
  <!-- Created using SVG Map Generator: dojo.amcharts.com/svg-map-generator -->
  <style>
    .land { fill: #ffffff; stroke: #000000; stroke-width: 0.65; }
  </style>
  <g id="polygons">
    <path d="M417.05,333.42L422.82,334.68L423.41,339.47L422.22,341.87L418.74,344.89L413.86,344.13L411.58,341.99L411.38,338.84L412.87,334.43Z" class="land" id="TM-S" title="Aşgabat"/>
    <path d="M322.78,104.3L323.22,108.45L325.99,116.9L329.38,119.74L329.14,122.96L331.49,124.65L335.55,129.86L342.25,147.82L348.67,155.86L351.57,166.79L353.9,172.98L351.28,181.79L354.31,183.79L355.79,187.49L352.57,193.65L353.26,208.56L352.54,218.85L345.95,223.26L330.03,275.37L327.88,281.49L327.72,284.79L325.23,287.59L324.99,295.27L328.01,298.49L339.86,301.94L340.05,307.18L351.52,311.21L354.36,310.88L352.52,313.57L349.16,315.87L338.16,313.37L333.51,310.4L325.47,312.73L322.49,311.21L317.7,311.36L314.04,313.33L310.41,317.3L312.08,320.1L310.55,322.99L306.08,323.75L301.24,322.57L293.76,323.94L287.26,322.61L284.45,321.16L279.66,320.43L264.73,323.28L258.69,327.73L254.1,330.3L249.43,331.48L246.1,334.39L242.97,338.71L235.12,344.13L232.88,346.94L231.5,351.35L232.66,354.56L231.31,360.21L222.59,365.78L218.23,365.26L209.39,370.4L204.02,370.92L200.1,372.97L185.84,371.71L185.11,363.45L183.31,356.93L181.2,345.2L180.27,326.19L182.98,314.6L183.19,302.95L181.31,293.33L181.79,287.95L183.19,283.04L186.53,276.72L186.01,274.72L189.18,268.13L188.86,265.94L184.95,263.26L183.6,259.62L177.17,257.87L173.32,248.51L171.33,252.19L169.99,246.58L167.81,244.93L168.47,239.25L162.72,239.25L158.69,240.16L156.27,238.33L149.51,237L146.99,243.18L142.72,235.68L143.03,233.2L147.4,226.72L157.08,225.2L161.44,225.71L163.08,228.55L168.25,229.96L175.28,224.84L171.91,223.83L171.88,220.47L165.97,218.82L164.07,215.81L161.3,214.14L160.55,209.97L164.18,202.96L163.43,201.6L167.73,197.23L166.5,195.54L162.91,195.21L160.94,193.6L157.37,194.11L153.24,197.74L147.1,193.96L144.65,195.51L141.49,194.88L136.77,195.54L132.03,197.55L127,193.5L124.42,190.13L125.97,183.28L122.35,175.06L124.32,160.61L126.19,156.06L130.93,148.67L129.07,144.99L130.85,141.88L132.1,134.36L134.49,126.73L133.72,119.15L136.28,121.63L135.9,123.92L138.72,128.18L140.18,132.95L143.7,140.68L146.62,141.16L155.37,140.53L156.09,137.92L159.95,142.17L163.34,143.23L166.4,141.53L167.5,135.22L168.79,132.55L172.42,134.36L173.14,138.14L172.04,140.02L173.44,143.99L175.96,146.61L175.77,150.9L183.17,150.87L187.1,147.74L190.92,148.68L194.55,147.43L199.29,143.73L202.49,143.83L203.56,147.39L211.45,147.59L206.59,143.66L204.28,135.55L204.64,132.43L206.68,130.32L209.19,130.79L214.85,135.32L215.17,138.2L223.8,136.2L227.41,133.01L230.07,127.47L226.42,120.95L227.78,117.07L223.61,115.83L221.73,111.71L211.28,103.6L206.65,101.56L200.32,96.76L197.92,93.1L195.02,92.05L192.52,87.88L191.71,82.69L191.38,74.11L189.94,69.51L186.81,63.39L185.27,62.76L186.01,54.78L184.95,49.72L180.88,46.51L175.96,46.39L173.72,45.13L157.7,47.84L153.59,49.72L149.57,49.53L146.65,47.96L144.46,48.93L136.01,56.36L128.76,71.77L126.7,74.53L133.06,77.03L132.8,85.68L128.45,98.05L129.93,108.39L133.07,115.33L133.08,117.98L130.45,120.17L130.3,113.73L128.34,109.67L128.34,106.83L125.59,98.83L123.23,95.43L119.6,93.21L115.2,88.93L116.93,80.95L113.86,77.16L108.7,72.89L125.79,55.7L136.97,46.35L145.15,43.45L148.1,41.67L159.63,37.07L192.82,30.9L200.56,32.83L228.94,51.87L237.76,60.04L239.52,63.02L240.04,69.62L247.84,80.22L254.56,92.19L261.27,98.02L265.07,104.87L269.24,107.09L275.83,106.7L283.77,104.81L288.44,102.52ZM164.42,221.94L166.29,225.1L163.79,227.2L162.28,222.78ZM143.42,277.97L140.09,267.11L140.91,259.72Z" class="land" id="TM-B" title="Balkan"/>
    <path d="M556.44,109.13L556.2,122.44L555.21,124.87L516.89,125.02L517.17,169.61L518.25,171L528.62,171.31L529.66,173.16L529.97,193.78L530.54,228.06L530.98,228.52L522.59,229.38L520.28,225.52L519.53,221.56L517.85,219.12L512.18,219.52L507.59,221.8L504.05,216.78L504.05,194.93L502.98,193.75L474.48,193.73L461.34,193.5L457.42,192.65L453.62,189.84L451.03,186.29L430.21,181.11L424.39,179.18L420.25,179.15L417.91,183.17L412.27,182.59L399.54,186.34L393.39,187.17L372.22,186.8L368.93,188.07L365.05,191.18L361.78,191.61L355.79,187.49L354.31,183.79L351.28,181.79L353.9,172.98L351.57,166.79L348.67,155.86L342.25,147.82L335.55,129.86L331.49,124.65L329.14,122.96L329.38,119.74L325.99,116.9L323.22,108.45L322.78,104.3L336.36,105.04L347.68,107.42L351.34,102.7L355.19,99.19L351.03,97.61L348.18,92.67L347.78,86.26L345.09,80.01L345.69,72.92L344.54,64.67L346.02,62.64L353.19,58.63L358.01,50.3L362.21,46.15L367.13,43.74L372.15,43.54L379.55,44.83L385.88,42.68L391.6,41.78L390.39,39.24L393.57,36.83L396.06,29.18L394.64,24.89L399.3,20.43L403.59,20.15L405.54,22.69L411.21,22.33L416.4,24.78L419.52,27.91L419.58,34.02L421.05,35.19L425.01,33.09L422.31,30.03L415.42,17.92L407.03,13.39L406.24,10.11L411.94,6.82L414.19,6.55L419.83,8.84L425.2,9.63L428.46,6.92L429.18,0.88L431.42,0L442.66,13.3L446.17,16.57L449.84,18.23L453.7,18.56L458.06,17.26L462.64,21.54L463.88,24.09L464.5,29.5L466.7,31.58L470.58,32.29L472.67,34.55L476.68,35.13L487.72,33.42L496.97,33.82L501.9,39.57L505.43,41.21L503.1,45.01L502.62,48.28L503.8,54.52L499.73,55.99L500.39,58.95L503.1,58.85L508.59,60.93L512.71,65.83L516.55,68.74L515.73,71.73L509.3,69.64L506.52,72.57L508.61,78.13L512.08,83.08L507.7,89.29L507.05,94.88L508.87,98L519.63,103.55L525.62,108.73L528.94,110.34L532.08,110.26L538.39,108.14L548.92,107.5Z" class="land" id="TM-D" title="Daşoguz"/>
    <path d="M530.98,228.52L530.66,228.19L537.33,225.65L552.05,224.35L552.26,224.36L551.61,227.29L552.45,235.05L536.13,235.95L538.62,264.44L532.65,265.08L533.14,275.94L532.44,277.92L527.97,278.04L534.43,305.21L535.47,308.25L545.38,318.59L556.72,325.59L555.31,334.91L554.75,335.52L550.56,337.69L553.56,347.04L550.96,348.48L545.06,349.82L547.7,358.25L554.17,367.8L555.62,369.04L564.07,369.2L566.28,370.57L568.92,375.35L573.98,373.88L577.65,375.32L578.2,378.43L576.15,382.26L572.02,383.67L568.27,381.37L568.24,378.12L565.37,371.8L561.27,370.01L556.44,371.01L568.02,389.94L580.15,410.26L582.64,416.12L582.96,454.51L583.34,457.84L587.23,459.13L587.96,464.6L585.5,464.69L585.58,467.73L583.93,469.57L576.48,471.41L580.65,476.84L582.97,476.47L587.74,478.67L588.57,482.62L587.14,484.64L588.41,492.9L587.24,495.63L584.37,494.48L578.57,488.67L576.77,487.98L574.21,483.01L570.31,483.81L568.33,480.37L569.61,474.09L569.15,467.21L566.06,462.21L565.31,458.8L567.86,451.62L566.96,444.91L565.7,440.16L564.24,438.83L564.19,432.9L565.94,421.76L564.88,417.94L560.16,417.19L521.84,417.89L520.11,416.92L516.42,409.25L510.88,402.47L504.95,392.51L498.7,390.88L493.35,386.85L485.83,384.39L482.6,385.53L481.62,382.18L478.31,381.76L476.22,378.42L471.04,373.25L469.89,367.34L470.07,361.77L466.8,359.05L462.75,360.29L454.07,353.48L444.42,350.28L441.29,348.52L440.18,350.84L436.23,351.83L431.61,350.85L428.99,348.51L426.3,348.73L424.49,351.86L418.85,352.77L410.23,349.58L408.89,343.22L401.56,341.18L393.36,337.24L388.96,337.09L387.4,335.35L383.28,333.6L373.09,333.46L365.57,330.47L364.25,328.71L365.15,322.93L361.1,316.57L358.56,310.7L354.36,310.88L351.52,311.21L340.05,307.18L339.86,301.94L328.01,298.49L324.99,295.27L325.23,287.59L327.72,284.79L327.88,281.49L330.03,275.37L345.95,223.26L352.54,218.85L353.26,208.56L352.57,193.65L355.79,187.49L361.78,191.61L365.05,191.18L368.93,188.07L372.22,186.8L393.39,187.17L399.54,186.34L412.27,182.59L417.91,183.17L420.25,179.15L424.39,179.18L430.21,181.11L451.03,186.29L453.62,189.84L457.42,192.65L461.34,193.5L474.48,193.73L502.98,193.75L504.05,194.93L504.05,216.78L507.59,221.8L512.18,219.52L517.85,219.12L519.53,221.56L520.28,225.52L522.59,229.38ZM417.05,333.42L412.87,334.43L411.38,338.84L411.58,341.99L413.86,344.13L418.74,344.89L422.22,341.87L423.41,339.47L422.82,334.68Z" class="land" id="TM-A" title="Ahal"/>
    <path d="M554.75,335.52L555.31,334.91L556.72,325.59L545.38,318.59L535.47,308.25L534.43,305.21L527.97,278.04L532.44,277.92L533.14,275.94L532.65,265.08L538.62,264.44L536.13,235.95L552.45,235.05L551.61,227.29L552.26,224.36L565.08,225.25L567.82,227.74L587.54,248.1L630.41,293.45L647.13,311.37L651.82,315.5L669.21,322.23L672.7,324.33L690.73,344.89L697.79,353.56L698.39,356.45L689.27,368.88L686.3,371.62L686.91,401.87L688.82,403.97L713.72,403.91L738.88,404.03L751.09,403.96L745.5,414.27L743.96,418.93L744.69,429.34L743.16,433.99L739.06,440.36L736.26,443.04L730.64,444.6L728.27,446.32L726.93,449.36L723.26,448.49L719.46,449.77L714.91,454.28L715.37,459.3L708.94,457.04L705.69,457.79L700.78,460.68L692.23,461.63L690.2,462.41L687.46,465.56L683.24,467.54L678.67,468.49L667.3,468.24L665.16,470.44L666.6,474.06L670.36,477.77L670.15,480.72L664.75,483.41L664.8,487.64L666.01,489.81L664.94,495.46L656.48,498.59L651.74,502.37L648.23,504.09L645.52,507.06L640.95,509.19L635.9,508.58L632.47,505.4L629.35,507.07L624.27,514L621.6,510.5L621.61,506.78L619.93,503.84L615.61,501.59L610.25,496.3L607.32,494.57L604.27,494.51L597.98,496.71L594.87,496.95L587.24,495.63L588.41,492.9L587.14,484.64L588.57,482.62L587.74,478.67L582.97,476.47L580.65,476.84L576.48,471.41L583.93,469.57L585.58,467.73L585.5,464.69L587.96,464.6L587.23,459.13L583.34,457.84L582.96,454.51L582.64,416.12L580.15,410.26L568.02,389.94L556.44,371.01L561.27,370.01L565.37,371.8L568.24,378.12L568.27,381.37L572.02,383.67L576.15,382.26L578.2,378.43L577.65,375.32L573.98,373.88L568.92,375.35L566.28,370.57L564.07,369.2L555.62,369.04L554.17,367.8L547.7,358.25L545.06,349.82L550.96,348.48L553.56,347.04L550.56,337.69Z" class="land" id="TM-M" title="Mary"/>
    <path d="M565.08,225.25L552.05,224.35L537.33,225.65L530.66,228.19L530.54,228.06L529.97,193.78L529.66,173.16L528.62,171.31L518.25,171L517.17,169.61L516.89,125.02L555.21,124.87L556.2,122.44L556.44,109.13L561.43,109.51L566.81,113.35L570.93,114.15L576.47,108.69L577.69,104.78L580.79,104.42L590.42,107.75L602.1,116.39L606.96,123.99L607.58,132.96L610.83,144.75L613.72,148.51L614.79,152.74L618.51,159.62L626.95,164.33L627.44,168.5L629.21,172.45L629.66,177.03L631.47,181.98L630.52,185.93L632.15,193.16L639.49,201.27L661.22,216.85L685.71,234.35L689.03,237.52L694.65,245.39L697.82,248.67L719.32,264.1L722.43,265.22L727.83,262.89L730.65,263.48L735.19,269.39L746.2,278.71L752.92,282.6L760.61,285.32L764.12,287.53L776.01,298.4L796.86,312.54L800.39,313.72L803.97,313.43L807.85,310.63L811.11,310.17L816.37,312.73L819.82,313.29L824.53,316.67L829.63,318.43L833.59,322.98L840.52,325.96L846.52,326.53L850.18,328.73L851.3,331.9L844.67,342.71L844.68,353.11L843.34,359.9L846.12,364.61L843.53,368.1L844.71,370.3L841.67,372.92L837.91,371.42L832.94,372.47L828.41,369.47L826.08,369.47L821.72,365.26L809.98,360.84L807.32,357.06L804.63,358.87L800.24,360.01L797.74,365.95L797.9,371.56L793.35,377.34L791.49,378.31L768.58,378.91L764.71,380.19L755.24,385.32L752.75,388.13L752.51,390.69L753.72,398.22L751.09,403.96L738.88,404.03L713.72,403.91L688.82,403.97L686.91,401.87L686.3,371.62L689.27,368.88L698.39,356.45L697.79,353.56L690.73,344.89L672.7,324.33L669.21,322.23L651.82,315.5L647.13,311.37L630.41,293.45L587.54,248.1L567.82,227.74Z" class="land" id="TM-L" title="Lebap"/>
  </g>
</svg>