<?xml version="1.0" encoding="UTF-8"?>
<svg xmlns="http://www.w3.org/2000/svg" width="790.84" height="519.3" viewBox="84.58 -2.65 790.84 519.3" style="background-color:#000000">
  <!-- Created using SVG Map Generator: dojo.amcharts.com/svg-map-generator -->
  <style>
    .land { fill: #ffffff; stroke: #000000; stroke-width: 0.65; }
  </style>
  <g id="polygons">
    <path d="M758.16,289.87L759.88,292.22L755.95,288.95L756.67,288.11Z" class="land" id="TJ-SU" title="Sughd"/>
    <path d="M831.21,318.6L830.79,314.17L826.82,312.9L814.85,311.06L812,306.96L809.01,305.41L804.89,304.81L801.68,301.8L803.56,300.59L801.39,297.93L804.58,295.24L813.1,293.06L816.74,293.1L822.79,294.8L828.55,293.64L829.8,287.8L834.29,286.41L836.61,284.26L843.67,286.24L844.28,289.19L847.04,292.76L847.24,294.75L852.07,296.86L859.13,296.02L862.55,299.2L864.52,299.21L867.67,296.28L872.77,298.13L871.47,300.78L866.96,302.22L859.76,306.96L856.03,307.77L855.8,314.14L852.19,312.74L850.05,317.19L843.15,314.95L840.49,314.78L839.86,316.86L841.07,319.97L839.68,324.31L832.06,320.19Z" class="land" id="UZ-AN" title="Andijon"/>
    <path d="M504.82,381.3L501.08,384.87L497.2,387.2L492.83,391.89L492.63,393.76L494.92,398.12L476.95,404.73L471.38,410.94L469.27,408.65L464.62,410.38L462.21,410.22L442.42,395.6L438.5,390.71L432.96,385.12L416.05,373.81L398.98,361.79L384.76,351.3L382.69,348.93L381.97,344.51L380.57,342.45L381.37,338L380.27,333.74L380.34,329.32L377.67,325.38L378.42,322.08L371.52,317.29L382.3,304.6L383.09,300.82L382.44,298.15L373.37,288.17L384.22,283.14L370.55,264.04L389.23,259.57L392.54,266.24L396.06,270.6L401.94,274.04L405.55,279.95L407.5,286.45L410.85,285.94L419.32,289.15L437.48,299.41L439.58,301.07L440,305.81L446.54,305.31L451.87,293.18L455.08,290.92L457.6,292.99L457.7,300.57L473.76,302.45L474.77,297.49L486.32,296.29L488.15,291.53L489.57,291.56L492.47,304.45L495.41,306.3L517.76,309.26L516.37,318.48L512.41,321.27L510.81,326.41L505.92,331.52L499.22,330.75L494.43,327.68L490.93,328.66L490.84,336.31L489.57,341.99L487.06,346.75L484.94,349.21L479.7,352.2L478.29,354.91L483.7,361.82L490.7,364.47L494.96,363.76L499.82,367.44L504.17,376.79Z" class="land" id="UZ-BU" title="Buxoro"/>
    <path d="M765.36,304.82L774.13,302.62L780.83,302.53L779.11,304.91L781.8,308.72L787.34,311.44L791.47,308.27L792.97,305.84L798.26,302.82L801.68,301.8L804.89,304.81L809.01,305.41L812,306.96L814.85,311.06L826.82,312.9L830.79,314.17L831.21,318.6L829.27,318.47L820.72,328.45L820.66,331.7L817.46,334.91L807.85,339.36L806.21,337.18L806.2,334.49L800.28,336.43L797.6,335.06L797.33,332.66L794.52,332.23L792.82,330.51L788.91,330.06L787.72,328.8L780.43,329.24L773.32,332.81L773.53,334.7L768.96,335.03L764.83,337.37L758.76,338.51L755.34,333.72L755.78,331.47L754.4,327.64L748.92,325.61L746.82,325.8L744.42,321.42L746.28,319.6L751.85,317.67L752.73,315.15L756.1,314.38L758.06,311.06L761.21,308.76L762.88,308.85Z" class="land" id="UZ-FA" title="Farg`ona"/>
    <path d="M611.45,378.89L605.29,373.09L605.16,367.63L608.36,362.42L611.94,359.95L614.75,359.42L613.4,352.24L594.76,348.51L588.98,344.6L588.63,340.91L590.71,337.97L587.44,333.53L586.51,325.52L587.47,322.93L586.51,319.67L574.2,318.66L579.33,308.32L582.7,302.28L580.66,294.69L576.43,293.65L574.78,291.81L573.65,281.21L580.3,280.99L581.32,273.38L605.89,275.21L625.38,275.76L627.64,277.27L632.96,282.82L637.17,284.23L638.55,287.67L637.08,289.13L637.16,294.33L633.12,294.48L632.4,296.74L641.97,302.81L645.53,306.81L649.73,308.53L649.23,311.96L645.29,312.39L644.82,317.27L646.64,319.39L641.74,330.37L642.68,334.71L654.03,334.89L667.35,331.65L666.65,338.71L662.15,339.97L665.37,342.9L668.72,342.42L677.49,339.63L682.28,339.31L683.97,343.59L678.25,344.32L674.72,348.39L679.33,354.12L677.05,356.05L675.04,350.15L673.43,350.91L675.25,354.8L673.1,358.57L670.31,356.21L667.36,359.79L664.61,364.86L666.2,369.25L662.41,372.91L661.08,376.18L652.91,375.53L649.24,374.76L639,373.66L634.74,372.46L628.16,369.03L623.95,368.9L620.43,372.26L614.49,373.94L611.96,376.18Z" class="land" id="UZ-JI" title="Jizzax"/>
    <path d="M829.8,287.8L828.55,293.64L822.79,294.8L816.74,293.1L813.1,293.06L804.58,295.24L801.39,297.93L803.56,300.59L801.68,301.8L798.26,302.82L792.97,305.84L791.47,308.27L787.34,311.44L781.8,308.72L779.11,304.91L780.83,302.53L774.13,302.62L765.36,304.82L762.25,302.59L762.69,300.43L758.71,296.1L755.22,289.79L750.75,285.79L750.43,280.43L747.88,276.49L747.22,269.23L750.84,263.21L753.39,263.75L756.43,260.79L761.99,260L764.93,265.23L764.82,271.14L765.69,272.78L765.07,276.65L766.41,277.61L769.03,273.98L773.26,278.18L775.9,276.38L780.71,279.15L784.29,276.82L789.99,278.74L791.75,278.21L793.01,281.29L794.96,280.59L796.89,274.65L795.63,270.64L797.05,268.93L802.69,268.07L806.01,263.81L806.04,260.16L803.72,258.37L806.81,254.37L808.3,254.32L808.54,260.26L811.66,261.81L817.89,269.33L814.53,275.88L815.83,277.63L819.6,277.76L824.69,279.53L826.55,278.18L829.69,278.68L831.33,284.92ZM759.88,292.22L758.16,289.87L756.67,288.11L755.95,288.95Z" class="land" id="UZ-NG" title="Namangan"/>
    <path d="M581.32,273.38L580.3,280.99L573.65,281.21L574.78,291.81L576.43,293.65L580.66,294.69L582.7,302.28L579.33,308.32L574.2,318.66L572.96,315.19L569.58,311.17L565.15,314.35L561.96,314.22L559.91,311.89L557.64,311.99L554.61,317.73L554.02,322.61L555.16,323.89L554.12,332.24L550.99,339.61L553.83,342.02L548.75,346.05L539.91,347.98L531.29,344.35L529.84,341.78L524.41,339.71L522.89,339.83L522.02,347.83L520.21,353.35L518.4,354.94L514.58,353.58L505.99,356.48L505.75,357.96L509.12,361.74L510.45,366.94L508.75,373.13L511.65,378.71L504.82,381.3L504.17,376.79L499.82,367.44L494.96,363.76L490.7,364.47L483.7,361.82L478.29,354.91L479.7,352.2L484.94,349.21L487.06,346.75L489.57,341.99L490.84,336.31L490.93,328.66L494.43,327.68L499.22,330.75L505.92,331.52L510.81,326.41L512.41,321.27L516.37,318.48L517.76,309.26L495.41,306.3L492.47,304.45L489.57,291.56L488.15,291.53L486.32,296.29L474.77,297.49L473.76,302.45L457.7,300.57L457.6,292.99L455.08,290.92L451.87,293.18L446.54,305.31L440,305.81L439.58,301.07L437.48,299.41L419.32,289.15L410.85,285.94L407.5,286.45L405.55,279.95L401.94,274.04L396.06,270.6L392.54,266.24L389.23,259.57L370.55,264.04L349.8,235.49L362.55,228.43L355.86,216.33L357.11,200.63L384.54,148.66L369.24,144.5L363.43,134.06L405.44,125.85L425.72,122.25L429.17,122.92L450.05,125.12L464.11,126.21L478.68,126.69L500.41,116.33L505.18,115.77L507.74,117.81L513.42,130.36L518.99,135.99L529.78,145.63L531.27,151.66L537.86,172.96L550.33,167.07L550.67,198.23L550.63,205.4L547.4,204L547.3,210.57L546.39,211.66L546.17,230.37L570.12,233.28L573.57,272.8Z" class="land" id="UZ-NW" title="Navoiy"/>
    <path d="M504.82,381.3L511.65,378.71L529.75,379.4L534.16,377L538.44,377.88L541.72,381.68L544.47,386.31L544.56,387.79L550.06,388.99L555.49,385.94L562.99,384.08L569.01,387.89L572.62,386.34L575.35,382.66L577.34,382.32L585.83,383.85L586.94,385.83L586.38,388.78L587.69,390.35L593.41,390.27L595.98,386.93L606.76,390.47L609.38,390.56L611.13,394.53L616.02,396.88L619.91,397.33L622.7,399.31L622.41,403.15L623.36,407.02L621.61,408.4L617.64,408.63L615.11,410.94L617.19,417.14L617.31,421.33L615.99,425.6L611.64,423.62L609.48,424.92L607.49,428.43L598.68,437.27L596.99,444.37L594.59,446.8L589.27,449.91L577.78,461.96L576.59,468.37L574.21,465.58L568.54,463.96L564.12,464.5L560.13,461.81L557.04,457.43L551.22,455.99L550.09,454.63L543.78,452.34L541.88,450.38L538.97,450.42L536.49,452.65L531.86,451.7L522,447.79L513.72,442.56L509.2,438.57L501.65,431.01L491.99,426.68L489.66,424.77L478.06,417.35L471.38,410.94L476.95,404.73L494.92,398.12L492.63,393.76L492.83,391.89L497.2,387.2L501.08,384.87Z" class="land" id="UZ-QA" title="Qashqadaryo"/>
    <path d="M243.14,23.29L243.49,30.98L241.49,36.79L235.5,48.2L234.51,52.41L230.51,52.61L228.52,56.62L229.31,61.22L231.31,66.64L228.91,67.43L225.92,65.83L223.52,67.24L219.33,75.45L217.14,77.85L214.14,76.05L213.54,65.83L219.73,63.63L221.13,60.62L222.12,53.41L215.94,49L215.34,46.6L217.14,44.6L220.93,45.2L221.13,36.99L223.92,36.59L223.72,33.38L217.54,32.18L213.74,33.98L218.33,26.17L215.34,20.36L216.93,13.15L220.3,6.75ZM363.43,134.06L369.24,144.5L384.54,148.66L357.11,200.63L355.86,216.33L362.55,228.43L349.8,235.49L370.55,264.04L384.22,283.14L373.37,288.17L369.92,288.98L363.91,278.84L355.98,270.07L349.43,266.32L340.55,264.27L335.55,265.23L332.39,271.03L328.68,269.59L328.06,267.56L324.62,264.41L321.08,263.47L315.17,258.96L305.45,250.17L302.13,246.29L295.28,240.06L292.22,234.69L291.23,228.56L286,227.45L279.89,229.68L277.24,234.89L272.77,232.04L268.93,226.93L272.08,226.29L269.34,218.97L272.5,214.78L267.93,212.45L266.43,209.98L262.82,207.94L261.21,210.28L257.76,209.2L244.08,209.79L237.26,202.57L237.57,199.72L232.63,194.18L227.05,195.25L221.86,193.21L211.22,181.81L208.34,180.94L206.31,185.59L200.68,186.56L192.64,184.12L185.97,187.65L186.11,189.09L193.06,192.91L195.71,199.09L198.68,204.22L202.75,206.99L202.38,208.73L197.64,208.88L196.66,202.3L193.84,199.14L189.03,197.89L184.79,199.58L181.16,195.63L175.12,198.58L174.62,200.5L176.59,203.89L175.73,211.74L172.01,211.66L171.47,216.2L168.43,215.68L164.14,217.5L157.08,216.13L151.95,216.41L147.5,218.38L142.98,222.66L140.84,228.43L139.12,230.36L134.92,231.93L132.43,235.06L131.68,238.92L131.89,247.04L134.08,252.32L134.61,260.92L137.13,265.26L137.24,267.72L135.11,272.08L123.42,271.01L112.98,270.51L107.15,269.84L87.35,268.74L87.23,37.21L120.04,26.4L136.08,21.11L179.41,7.67L205.13,0L204.95,3.53L203.36,6.74L203.16,11.55L199.37,14.95L197.37,18.16L197.17,23.96L194.58,26.57L193.38,32.18L190.38,36.99L188.39,42.4L188.18,53.01L191.38,59.43L190.98,62.03L187.99,70.44L188.39,75.65L190.58,80.86L192.78,83.47L199.77,86.47L202.76,86.67L207.35,89.28L208.35,87.27L212.35,87.07L221.73,83.47L223.33,84.46L224.12,88.07L219.53,92.08L220.53,95.68L224.52,98.49L229.71,99.29L232.31,101.49L245.68,102.7L249.28,100.49L252.87,102.9L258.66,101.49L262.26,102.7L267.25,101.7L279.03,97.29L279.63,94.68L283.02,94.68L283.22,91.08L284.82,87.67L291.01,82.67L295.6,78.06L298.39,73.05L299.19,69.24L295.6,64.43L299.45,64.08L320.95,79.66L323.15,86.67L329.18,92.77L344.59,111.65L361.28,132.45Z" class="land" id="UZ-QR" title="Qoraqalpog‘iston"/>
    <path d="M609.38,390.56L606.76,390.47L595.98,386.93L593.41,390.27L587.69,390.35L586.38,388.78L586.94,385.83L585.83,383.85L577.34,382.32L575.35,382.66L572.62,386.34L569.01,387.89L562.99,384.08L555.49,385.94L550.06,388.99L544.56,387.79L544.47,386.31L541.72,381.68L538.44,377.88L534.16,377L529.75,379.4L511.65,378.71L508.75,373.13L510.45,366.94L509.12,361.74L505.75,357.96L505.99,356.48L514.58,353.58L518.4,354.94L520.21,353.35L522.02,347.83L522.89,339.83L524.41,339.71L529.84,341.78L531.29,344.35L539.91,347.98L548.75,346.05L553.83,342.02L550.99,339.61L554.12,332.24L555.16,323.89L554.02,322.61L554.61,317.73L557.64,311.99L559.91,311.89L561.96,314.22L565.15,314.35L569.58,311.17L572.96,315.19L574.2,318.66L586.51,319.67L587.47,322.93L586.51,325.52L587.44,333.53L590.71,337.97L588.63,340.91L588.98,344.6L594.76,348.51L613.4,352.24L614.75,359.42L611.94,359.95L608.36,362.42L605.16,367.63L605.29,373.09L611.45,378.89L615.42,387.78Z" class="land" id="UZ-SA" title="Samarqand"/>
    <path d="M666.65,338.71L667.35,331.65L654.03,334.89L642.68,334.71L641.74,330.37L646.64,319.39L644.82,317.27L645.29,312.39L649.23,311.96L649.73,308.53L653.35,311.63L655.23,311.12L656.58,313.82L661.41,315.24L668.87,312.59L665.65,309.23L664.53,305.95L661.27,301.43L662.13,294.02L661.12,289.22L665.06,287.14L667.45,291.64L672.28,297.14L680.59,305.01L685.88,308.99L688.88,313.2L686.54,328.12L687.19,330.83L686.95,335.54L683.29,335.18L678.27,335.92L675.38,337.21L673.02,336.55Z" class="land" id="UZ-SI" title="Sirdaryo"/>
    <path d="M576.59,468.37L577.78,461.96L589.27,449.91L594.59,446.8L596.99,444.37L598.68,437.27L607.49,428.43L609.48,424.92L611.64,423.62L615.99,425.6L617.31,421.33L617.19,417.14L615.11,410.94L617.64,408.63L621.61,408.4L623.36,407.02L624.42,407.83L636.36,405.85L638.47,407.25L640.3,406.27L642.76,407.22L643.94,410.08L646.6,412.17L646.5,416.57L644.67,418.12L640.81,419.39L643.33,423.05L640.14,425.13L641.42,428.54L640.61,434.82L644,438.83L642.72,441.39L646.49,442.7L648.18,447.23L652.16,449.34L655.93,455.03L654.43,461.83L650.52,467.33L649.86,471.66L643.38,473.53L639.43,481.69L634.66,487.27L632.36,492.12L630.78,493.65L629.61,497.51L629.82,504.05L629.26,510.68L628.55,513.1L625.8,511.24L621.44,509.77L617.74,511.54L615.35,508.41L612.27,510.63L606.71,512.35L604.27,514L601.04,509.52L596.52,507.27L596.56,504.92L593.49,502.66L589.28,501.81L585.74,503.39L581.15,504.03L579.21,503.54L571.21,503.73L569.52,502.27L572.09,499.78L575.1,498.88L574.98,496.31L570.46,490.8L570.47,481.59L571.65,476.71L574.23,472.85L576.92,471.12Z" class="land" id="UZ-SU" title="Surxondaryo"/>
    <path d="M700.89,264.91L701.19,267.1L699.63,269.66L699.98,272.7L695.89,271.93L694.24,273.34L690.54,271.79L691.26,267.05L694.99,265.4L697.69,266.39Z" class="land" id="UZ-TK" title="Toshkent"/>
    <path d="M750.84,263.21L747.22,269.23L747.88,276.49L750.43,280.43L750.75,285.79L748.44,286.05L745.92,294.7L743.69,295.32L739.02,298.64L736.87,298.05L732.85,302.34L725.62,306.05L723.83,305.06L721.38,306.73L718.51,306.96L717.12,309.98L713.93,310.52L710.08,306.72L708.44,303.05L703.33,301.12L701.7,301.32L699.29,305.55L699.98,311.39L698.62,314.07L695.65,314.22L693.9,316.23L695.88,318.64L695.9,321.13L697.41,326.2L698.86,327.52L697.43,331.24L695.21,333.51L697.81,336.31L686.95,335.54L687.19,330.83L686.54,328.12L688.88,313.2L685.88,308.99L680.59,305.01L672.28,297.14L667.45,291.64L671.62,288.86L672.65,285.35L677.02,279.02L682.69,273.02L682.88,270.32L684.84,267.26L687.38,267.39L688.51,264.57L691.79,260.92L695.87,259.9L697.87,260.64L703.46,259.15L701.95,257.34L711.79,247.93L716.74,245.56L721.5,244.18L723.92,245.55L726.82,244.36L728.45,240.39L736.49,236.48L740.18,230.51L744.34,228.39L743.95,224.76L749.03,218.85L754.22,222.6L754.8,225.73L757.91,226.84L760.96,219.06L765.88,213.92L767.63,214.91L772.52,210.66L774.55,210.93L778.23,209.08L782.11,210.53L786.84,214.4L784.8,218.57L781.67,218.68L776.46,223.34L773.46,225.26L768.67,224.31L767.41,226.87L768.15,230.26L766.97,231.67L763.97,230.99L759.27,233.58L756.73,237.51L752.5,240.66L751.74,244.19L747.5,246.6L745.13,249.17L741.35,251.05L738.13,251.59L737.7,256.48L743.85,256.73L747.83,259.65ZM700.89,264.91L697.69,266.39L694.99,265.4L691.26,267.05L690.54,271.79L694.24,273.34L695.89,271.93L699.98,272.7L699.63,269.66L701.19,267.1Z" class="land" id="UZ-TO" title="Toshkent"/>
    <path d="M277.24,234.89L279.89,229.68L286,227.45L291.23,228.56L292.22,234.69L295.28,240.06L302.13,246.29L305.45,250.17L315.17,258.96L321.08,263.47L324.62,264.41L328.06,267.56L328.68,269.59L332.39,271.03L335.55,265.23L340.55,264.27L349.43,266.32L355.98,270.07L363.91,278.84L369.92,288.98L373.37,288.17L382.44,298.15L383.09,300.82L382.3,304.6L371.52,317.29L364.48,305.55L364.33,302.79L362.4,299L362,291.33L361.06,286.94L357.86,284.86L356.91,281.45L351.24,277.41L349.23,275.01L346.84,274.35L345.29,271.97L335.87,270.7L333.97,278.07L330.29,279.27L324.4,277.57L322.3,275.34L318.66,273.82L302.05,274.26L293.88,274.93L289.01,272.7L286.12,270.12L276.72,264.05L275,261.77L275.83,254.67L278.21,250.9L273.85,243.6L274.54,238.63L276.97,238.98L284.07,242.14L282.55,238.26L279.68,237.32Z" class="land" id="UZ-XO" title="Xorazm"/>
  </g>
</svg>