<?xml version="1.0" encoding="UTF-8"?>
<svg xmlns="http://www.w3.org/2000/svg" width="639.23" height="519.3" viewBox="160.38 -2.65 639.23 519.3" style="background-color:#000000">
  <!-- Created using SVG Map Generator: dojo.amcharts.com/svg-map-generator -->
  <style>
    .land { fill: #ffffff; stroke: #000000; stroke-width: 0.65; }
  </style>
  <g id="polygons">
    <path d="M671.42,99.08L674.14,95.03L675.27,94.47L679.16,89.19L680.84,88.63L682.26,91.27L685.21,91.51L688,94.05L689.25,94.29L695.09,94.09L698.98,95.57L698.65,97.78L697.3,101.49L696,103.86L693.24,104.18L686.47,103.82L682.92,103.89L678.6,102.85L674.78,101.49ZM744.06,115.64L741.95,112.41L742.56,110.24L744.83,108.43L747.44,109.81L748.06,112.57L746.75,114.02Z" class="land" id="AE-AJ" title="Ajman"/>
    <path d="M636.57,214.59L645.87,214.91L654.25,214.79L659.17,213.31L667.55,213.79L673.08,213.51L676.56,212.85L679.33,211.81L682.77,209.67L686.15,205.92L689.68,205.56L695.24,201.8L696.83,201.15L700.06,200.88L703,199.55L703.99,198.32L706.42,198.83L710.67,200.59L715.25,201.56L717.43,201.48L721.31,200.59L723.77,198.99L726.53,205.83L726.05,207.4L722.62,210.65L722.76,216.09L719.26,218.24L718.96,220.36L719.61,224.18L720.45,226.31L720.53,238.19L723.82,240.79L725.18,242.63L725.6,245.85L725.49,252.18L719.72,260.89L718.25,265.73L719.42,267.54L724.49,267.48L728.43,269.63L730.28,269.46L735.65,266.51L740.51,266.24L741.74,267.71L742,270.58L743.34,272.04L744.17,278.61L746.74,281.85L749.76,287.32L750.16,289.14L748.12,290.23L734.05,293.87L725.67,298.26L723.09,298.58L717.97,295.05L714.02,296.74L711.14,296.92L709.18,296.31L700.26,295.97L697.02,297.23L694.98,300.08L687.36,303.69L685.57,304.19L679.13,305.05L679.81,309.6L685.27,313.37L687.23,314.03L689.67,315.66L690.71,318.32L690.16,325.61L691.12,331.69L690.61,334.55L688.83,337.28L684.21,342.9L681.71,348.37L681.06,350.81L680.35,358.38L678.71,364.51L676.98,367.08L671.95,371.46L669.08,375.47L667.51,384.56L665.68,391.8L665.11,395.05L662.18,403.45L660.97,405.85L658.32,409.6L657.26,412.64L654.47,416.41L651.56,421.85L648.94,425.79L647.8,430.39L648,433.38L645.15,439.5L644.88,440.97L644.99,448.24L644.39,452.73L644.9,456.86L645.39,468.28L645.58,469.45L644.78,474.57L643.32,481.83L643.92,485.54L617.16,514L468.07,478.91L390.57,461.5L300.28,443.34L213,338.16L170.12,284.44L171.11,272.73L172.07,268.29L169.55,265.26L169.22,263.8L171.06,262.92L172.19,259.65L170.66,255.63L170.74,249.65L169.24,248.13L171.76,246.82L173.02,249.13L174.41,249.69L177.13,255.43L175.72,257.97L175.23,259.97L175.35,262.88L176.11,264.36L176.05,266.75L177.95,269.13L180.14,267.94L181.09,265.53L180.58,262.56L181.67,260.97L183.2,264.16L183.26,267.5L184.06,269.53L186.79,269.62L187.59,268.46L186.65,265.83L189.52,260.21L191.01,258.69L193.19,259.77L195.44,262.64L194.46,265.12L195.4,267.74L194.28,269.78L194.75,272.88L193.54,273.88L192.86,277.78L195.36,284.9L195.91,288.77L195.26,292.1L195.62,295.44L197.91,299.15L201.65,301.85L207.78,303.24L210.48,302.89L211.64,301.1L213.38,301.65L215.45,299.94L218.43,299.94L219.63,301.88L223.66,302.68L226.64,301.33L229.36,304.19L231.73,305.3L234.78,305.95L236.86,304.52L242.23,305.95L248.55,305.75L256.76,303.67L265.69,300.14L268.02,297.43L273.8,294.21L278.12,293.06L282.37,290.63L283.63,289.35L283.93,287.38L280.59,285.03L280.26,283.51L282.51,283.15L281.67,285.42L283.67,286.89L285.96,285.7L289.09,285.7L291.82,283.47L297.63,281.12L298.93,279.93L297.84,278.74L298.67,274.94L298.31,273.56L302.57,271.61L305.87,272.96L306.82,275.94L309.72,277.18L311.4,279.81L315.94,279.21L319.57,279.81L321.02,279.25L324.29,282.16L327.85,281.32L332.79,279.17L334.35,279.1L335.74,281.05L338.7,281.45L340.82,280.89L343.07,279.41L345.4,281.2L347.18,281.16L351.25,278.85L353.64,279.1L359.16,280.92L361.59,282.75L363.26,282.68L368.39,280.73L370.74,280.84L372.31,279.73L371.99,276.46L373.58,275.66L375.15,276.62L377.44,276.95L378.2,278.14L380.38,278.65L382.92,281.72L386.08,284.83L388.48,284.63L389.17,283.82L392.58,284.63L393.34,283.98L395.53,286.17L396.1,288.48L399.55,286.93L398.76,285.93L403.48,284.03L406.56,284.43L408.42,284.03L410.67,282.39L413.55,281.99L415.61,284.38L422.7,287.45L425.29,287.41L426.07,289.64L429.71,293.36L435.01,294.01L443.69,292.31L447,290.23L450.78,291.79L454.27,291.47L457.83,291.62L459.42,292.35L468.29,292.63L473.98,290.27L478.1,288.88L488.48,284.36L492.21,282.97L497.7,282.78L505.74,279.02L507.12,275.48L508.49,273.91L511.43,273.1L511.43,270.94L508.49,267.99L506.72,267.79L504.57,265.42L499.88,262.81L496.88,262.36L497.9,260.69L497.9,257.74L503.42,253.57L503.98,256.94L506.53,260.5L512.22,266.21L514.17,268.57L516.91,269.56L522.01,268.98L525.15,267.79L530.64,268.98L532.41,265.42L534.88,264.27L535.85,262.61L538.76,261.29L542.32,258.35L542.14,257.63L544.39,253.96L546.43,245.62L547.51,243.66L540.4,241.08L538.97,239.76L537.48,239.96L533.42,238.48L530.22,235.65L528.26,234.48L530.62,231.77L531.27,230.17L533.74,228.11L532.55,225.86L535.13,222.47L535.31,224.58L536.76,226.06L535.46,228.02L536.25,229.9L540.07,233.45L541.08,233.13L543.92,235.2L544.35,236.68L546.43,236.6L546.96,238.08L549,239.6L549.81,239.04L553.95,239.28L565.06,235.72L562.84,234.93L560.59,235.89L560.04,234.46L561.79,232.66L561.86,231.02L556.08,230.65L555.32,231.14L549.33,230.1L547.45,229.43L548.02,227.72L547.67,225.23L546.06,222.99L545.73,220.92L547.12,218.4L548.96,219.64L550.64,222.76L552.89,225.07L557.32,226.47L561.75,227.34L564.59,225.1L566.29,220.04L567.93,219.21L568.01,217.32L569.42,214.4L568.7,213.21L566.15,213.6L566,214.49L562.45,215.53L560.96,213.48L561.21,212.33L560.08,209.69L561.18,208.42L561.39,205.37L565.21,205.93L565.68,210.13L563.9,210.33L563.86,212.17L566.48,210.69L568.44,210.92L571.05,208.45L569.56,207.3L573.16,205.25L569.6,205.14L570.54,202.49L572.44,201.57L572.5,199.21L571.71,196.42L569.17,196.46L570.22,193.94L573.48,190.7L576,187.7L578.14,183.18L579.16,182.78L580.17,180.46L581.74,179.38L585.15,179.94L586.78,178.86L590.77,177.37L593.51,175.64L598.23,171.33L602.91,169L611.34,161.43L613.04,161.2L617.15,159.1ZM363.63,170.89L365.16,171.52L365.92,173.61L364.61,175.93L362.18,172.53ZM496.69,274.48L495.49,274.48L493.48,270.74L497.1,272.66ZM366.55,251.04L368.09,254.79L366,254.43L364.65,253.35L364.83,251.96ZM435.15,257.34L433.39,258.32L431.62,258.13L430.83,256.55L431.62,255.16L433.58,254.39ZM466.45,267.57L467.79,269.42L475.26,270.24L477.44,270.91L480.58,274.72L480.48,276.24L478.67,279.97L473.94,281.4L468.81,280.34L468.34,279.2L464.84,279.01L463.99,275.96L462.27,275.1L461.23,276.53L460.76,278.92L460.95,281.3L457.63,281.96L449.58,281.4L443.31,277.02L441.61,277.02L440.37,278.15L436.68,278.15L435.06,275.58L437.05,273.39L440.56,271.77L443.36,271.67L445.4,270.71L446.32,268.82L450.14,266.52L451.58,267.91L457.25,265.29L459.33,265.29L460.78,263.58L462.65,262.71L463.03,261.09L465.31,260.99L466.92,261.95L464.84,263.18L464.64,265.19ZM187.78,213.77L189.01,216.27L187.19,218.72L185.77,216.69L186.43,214.6ZM408.75,267.83L410.34,268.98L410.83,271.93L407.07,272.32L404.54,269.62L405.67,268.34ZM164.71,239.21L165.47,241.31L163.03,240.76ZM528.22,236.01L529.94,236.77L533.09,239.48L539.44,241.8L536.99,243.23L532.62,241.44L528.55,240.47ZM302.68,247.77L306.34,248.69L308.13,250.48L308.77,252.48L307.03,258.53L303.55,260.57L303.43,263.53L301.47,264.4L300.53,263.17L301.22,260.64L298.9,258.62L297.55,255.15L297.63,252.43L299.63,248.85ZM264.42,221.95L267.55,223.79L268.63,229.43L267.08,230.13L265.65,232.46L265.04,239.15L264.24,239.24L264.58,232.93L263.95,231.25L261.3,229.7L260.54,227.07L262.36,223.95ZM500.6,271.76L500.3,273.16L498.09,272.86L495.14,269.45L493.37,269.02L493.28,267.31L496.2,267.31ZM550.17,231.25L555.29,232.69L558.52,233.92L559.36,236.48L556.77,237.13L555.58,235.13L553.01,234.41L550.1,232.78ZM225.77,263.27L227.15,264.76L227.15,267.58L224.64,269.42L223.99,267.63L224.13,264.56ZM553.07,217.02L557.14,217.96L556.12,219.88L554.34,219.52ZM493.58,273.91L493.97,276.66L492.01,277.06L489.88,275.27L487.3,275.28L485.93,274.29L486.91,272.13L492.01,272.72ZM552.67,220.23L556.63,222.24L555.4,223.99L553.33,224.71L550.56,221.59ZM380.22,255.26L382.96,259.25L380.85,259.45L379.32,257.5ZM518.48,250.14L516.87,250.14L515.47,248.42L511.25,246.91L514.27,243.88L514.98,242.16L516.98,241.55L517.68,243.88L516.48,246.61L518.09,247.91ZM551.4,233.8L552.09,234.44L555.54,235.2L556.24,236.64L552.97,237.65L552.34,238.77L548.31,238.05L547.66,236.52L551.15,236.57L550.57,234.37ZM527.02,252.36L524.09,248.03L521.59,246.1L521.59,244.38L523.2,244.38L527.92,248.93L528.13,250.34ZM538.29,226.54L539.6,227.63L541.08,230.78L539.44,232.3L536.83,229.94L537.19,226.91ZM297.16,184.95L298.59,187.14L297.77,188.9L295.73,186.54ZM398.14,254.54L399.82,255.3L398.69,256.78L397.16,262.36L396.24,260.3L393.28,259.49L392.36,258.58L390.22,259.22L389.72,261.56L387.03,261.53L384.78,259.25L385.5,258.1L389.17,256.7ZM223.15,270.24L223.95,270.97L223.95,275.63L222.14,275.07ZM547.43,215.9L545.12,221.68L547.66,228.15L545.77,227.75L541.73,225.83L539.3,225.3L537.27,223.39L542.07,221.56L544.18,219.68ZM514.41,119.63L516.57,122.07L516.68,125.73L515.43,124.96L513.26,125.05L511.51,123.72L511.41,121.15ZM522.81,262.26L521.4,263.37L516.78,262.36L514.87,264.37L511.95,261.55L510.45,258.02L507.04,257.51L506.44,256.09L506.84,253.37L510.95,251.96L512.66,249.43L515.97,251.96L516.07,253.57L518.28,257.83L521.7,259.84ZM557.28,208.71L557.73,211.12L556.75,212.29L554.34,213.28L552.6,212.53L555.28,209.66ZM338.31,132.61L339.07,132.88L339.03,136.29L337.72,135.48ZM542.43,228.95L546.79,230.46L548.06,232.93L546.47,234.17L543.96,232.69L542.83,232.73L541.63,231.05Z" class="land" id="AE-AZ" title="Abu Dhabi"/>
    <path d="M772.38,181.6L771.73,182.86L770.54,188.51L767.66,189.37L766.64,193.05L762.68,194.66L758.65,194.39L755.85,193.64L754.65,192.59L758.66,187.99L760.85,182.27L763.28,181.64L765.67,181.91L768.84,181.44ZM659.94,112.88L661.56,113.89L664.98,114.67L668,114.35L673.8,112.21L675.25,111.33L676.78,114.83L678.13,116.36L683.47,118.81L687.64,123.3L692.44,126.8L696.36,127.32L697.34,128.32L699.23,135.47L701.19,145.06L702.49,149.39L701.59,151.27L698.18,154.44L696.87,157.65L696.79,159.25L697.81,162.41L701.78,166.66L702.86,171.15L702.49,174.71L704.02,183.4L704.78,185.04L705.44,189.61L705.08,195.55L703.99,198.32L703,199.55L700.06,200.88L696.83,201.15L695.24,201.8L689.68,205.56L686.15,205.92L682.77,209.67L679.33,211.81L676.56,212.85L673.08,213.51L667.55,213.79L659.17,213.31L654.25,214.79L645.87,214.91L636.57,214.59L617.15,159.06L619.52,157.46L622.67,156.66L622.56,153.58L624.09,152.86L625.28,153.74L627.9,151.01L636.3,141.55L642,134.76L644.94,130.83L650.5,122.77L651.05,121.23L653.4,118.18L652.17,117.46L654.09,115.73L654.79,118.23L656.28,118.39L658.75,120.67L659.4,122.32L661.39,123.81L659.4,127.7L661.61,127.54L662.35,126.14L661.9,123.4L660.16,122.16L659.43,120.55L654.89,116.62L655.95,116.17Z" class="land" id="AE-DU" title="Dubai"/>
    <path d="M794.68,95.12L791.64,97.83L789.87,100.1L787.35,101.97L783.58,103.25L781.88,104.86L780.96,109.88L777.69,111.49L773.92,111.89L772.39,111.01L773.09,109.32L768.07,107.91L766.37,108.07L764.12,110.13L763.42,112.09L766.33,111.98L767.02,113.22L770.58,113.86L769.23,116.16L765.06,117.32L765.45,122.42L764.04,122.82L763.2,124.91L761.06,125.67L758.22,124.83L757.13,123.75L755.11,123.98L753.82,125.15L749.9,123.75L745.22,123.82L745.98,120.21L744.06,115.64L746.75,114.02L748.06,112.57L747.44,109.81L744.83,108.43L746.89,103.14L747.18,101.33L748.82,102.73L749.76,104.59L754.33,105.67L758.62,107.23L760.81,106.42L762.63,103.62L765.31,104.22L766.04,101.85L765.78,98.03L761.97,98.71L759.83,98.03L759.03,95.34L762.69,91.76L764.18,88.17L760.34,83.7L758.81,83.95L755.31,86.12L752.56,85.76L749.18,86.28L744.85,85.24L744.13,80.49L743.07,77.3L743.55,76.34L742.42,72.95L742.56,70.91L743.87,69.53L748.06,70.14L751.21,68.85L752.31,66.11L755.83,63.13L758.19,64.5L761.38,62.68L764.44,62.84L767.36,61L770.96,60.59L773.15,62.44L773.7,64.09L775.9,66.48L779.14,67.38L782.18,64.64L783.09,67.18L784.87,68.7L787.49,67.98L790.43,69.27L793.48,69.99L793.29,74.95L794.17,78.73L795.44,80.18L793.99,85.78L794.5,87.02L793.95,93.06ZM783.9,177.45L782.35,173.22L780.53,171.75L781.9,167.37L785.39,166.86L788.79,167.11L791.61,168.06L791.7,171L789.92,172.5L785.89,173.58ZM794.06,143.85L789.77,143.62L785.63,143.86L783.69,145.81L783.69,148.51L786.36,153.16L786.03,161.04L783.69,160.26L778.82,160.01L775.44,156.66L775.7,153.2L772.25,148.76L769.33,147.53L766.97,147.88L767.14,143.62L767.14,133.33L768.84,127.71L769.09,125.02L773.89,122.52L775.81,124.02L780.49,124.95L782.35,124.68L784.12,122.9L788.99,120.14L789.87,118.89L790.7,115.07L795.74,111.36L795.62,116.26L794.76,120.19L793.99,126.05L793.88,131.83L793.55,133.92Z" class="land" id="AE-FU" title="Fujayrah"/>
    <path d="M745.22,123.82L749.9,123.75L753.82,125.15L755.11,123.98L757.13,123.75L758.22,124.83L761.06,125.67L763.2,124.91L764.04,122.82L765.45,122.42L765.06,117.32L769.23,116.16L770.58,113.86L767.02,113.22L766.33,111.98L763.42,112.09L764.12,110.13L766.37,108.07L768.07,107.91L773.09,109.32L772.39,111.01L773.92,111.89L772.79,114.87L773.89,122.52L769.09,125.02L768.84,127.71L767.14,133.33L767.14,143.62L766.97,147.88L767.14,151.69L769.09,154.14L771.03,158.05L770.79,162.7L768.12,164.9L768.12,167.11L770.05,169.56L775.42,170.28L780.53,171.75L782.35,173.22L783.9,177.45L783.17,178.24L776.97,180.27L774.7,180.08L772.38,181.6L768.84,181.44L765.67,181.91L763.28,181.64L760.85,182.27L755.25,177.43L754.01,175.82L752.71,171.79L752.56,167.6L751.98,164.61L750.58,161.57L746.44,159.45L743.94,159.31L743.95,157.53L741.73,152.67L740.28,150.79L740.58,148.38L739.99,144.93L743.07,138.2L744.6,135.79L743.22,133.26L740.64,130.73L741.19,127.03L744.97,125.31ZM767.36,61L764.44,62.84L761.38,62.68L758.19,64.5L755.83,63.13L752.31,66.11L751.21,68.85L748.06,70.14L743.87,69.53L742.56,70.91L742.42,72.95L743.55,76.34L743.07,77.3L744.13,80.49L744.85,85.24L749.18,86.28L752.56,85.76L755.31,86.12L758.81,83.95L760.34,83.7L764.18,88.17L762.69,91.76L759.03,95.34L759.83,98.03L761.97,98.71L765.78,98.03L766.04,101.85L765.31,104.22L762.63,103.62L760.81,106.42L758.62,107.23L754.33,105.67L749.76,104.59L748.82,102.73L747.18,101.33L744.28,99.72L742.68,99.88L741.91,101.97L741.85,105.42L739.74,109.29L737.63,106.15L735.31,102.78L732.51,100.52L729.93,99.03L733.27,95.61L733.12,94.45L727.32,89.18L725.35,85.83L725.71,79.36L724.77,74.96L722.08,70.18L721.5,65.86L720.62,64.13L716.21,64.06L714.03,61.06L718.36,55.05L720.5,52.74L725.15,53.06L728.13,52.38L730.13,51.22L733.58,48.31L735.91,45.25L738.55,42.51L740.26,39.76L740.77,43.35L742.51,43.46L742.77,41.33L740.92,41.17L741.28,39.08L743.24,37.01L747.53,31.41L748.33,31.45L748.95,28.14L751.05,28.62L753.01,28.21L754.14,24.5L753.77,21.59L754.94,19.73L753.75,16.62L754.28,14.8L756.32,12.98L757.19,10.23L758.72,1.66L759.55,0.66L761.72,1L764.34,0L767.73,0.54L769.12,2.36L769.83,5.66L769.27,8.81L769.31,11.85L769.87,14.44L768.42,25.04L767.56,27.09L767.8,28.64L765.97,34.68L765.7,39.64L767.73,44.89L766.73,47.5L766.33,51.44L766.52,59.05Z" class="land" id="AE-RK" title="Ras Al Khaimah"/>
    <path d="M781.9,167.37L780.53,171.75L775.42,170.28L770.05,169.56L768.12,167.11L768.12,164.9L770.79,162.7L771.03,158.05L769.09,154.14L767.14,151.69L766.97,147.88L769.33,147.53L772.25,148.76L775.7,153.2L775.44,156.66L778.82,160.01L779.26,160.03L777.36,162.2L777.6,164.9L779.8,165.64ZM794.68,95.12L794.76,99.49L793.8,102.39L792.57,103.51L794.25,106.09L796.23,106L796.27,108.58L796.97,109.55L795.74,111.36L790.7,115.07L790.51,111.07L789.53,107.88L790.26,104.21L789.87,100.1L791.64,97.83ZM784.41,113.51L786.61,114.5L786.61,116.69L784.41,117.92L782.23,116.94L782.23,114.99ZM794.06,143.85L794.53,150.6L795.15,151.97L794.35,154.34L796.06,159.55L791.91,160.37L791,162.51L789.29,161.48L786.03,161.04L786.36,153.16L783.69,148.51L783.69,145.81L785.63,143.86L789.77,143.62ZM737.63,106.15L739.74,109.29L741.85,105.42L741.91,101.97L742.68,99.88L744.28,99.72L747.18,101.33L746.89,103.14L744.83,108.43L742.56,110.24L741.95,112.41L744.06,115.64L745.98,120.21L745.22,123.82L744.97,125.31L741.19,127.03L740.64,130.73L743.22,133.26L744.6,135.79L743.07,138.2L739.99,144.93L740.58,148.38L740.28,150.79L741.73,152.67L743.95,157.53L743.94,159.31L741.53,158.8L738.55,159.31L734.5,161.22L729.54,164.48L722.28,174.17L721.67,178.44L723.26,187.46L724.03,189.86L723.98,192.01L723.07,196.13L723.77,198.99L721.31,200.59L717.43,201.48L715.25,201.56L710.67,200.59L706.42,198.83L703.99,198.32L705.08,195.55L705.44,189.61L704.78,185.04L704.02,183.4L702.49,174.71L702.86,171.15L701.78,166.66L697.81,162.41L696.79,159.25L696.87,157.65L698.18,154.44L701.59,151.27L702.49,149.39L701.19,145.06L699.23,135.47L697.34,128.32L696.36,127.32L692.44,126.8L687.64,123.3L683.47,118.81L678.13,116.36L676.78,114.83L675.25,111.33L673.8,112.21L668,114.35L664.98,114.67L661.56,113.89L659.94,112.88L665.58,104.6L665.68,108.98L667.58,109.1L666.85,105.6L668.01,101.55L671.42,99.08L674.78,101.49L678.6,102.85L682.92,103.89L686.47,103.82L693.24,104.18L696,103.86L697.3,101.49L698.65,97.78L698.98,95.57L695.09,94.09L689.25,94.29L688,94.05L685.21,91.51L682.26,91.27L680.84,88.63L681.99,87.47L681.56,85.86L683.78,82.15L685.35,82.82L688,85.15L691.56,87.49L693.93,88.25L694.5,90.14L698.24,92.48L707.62,95.34L709.81,97.26L710.71,99.43L712.77,101.24L716.27,103.3L718.23,105.22L719.25,110.4L720.15,111.89L720.66,114.67L723.5,116.32L727.42,116.55L731.42,114.71L734.68,113.83L735.78,112.54L734.9,105.87Z" class="land" id="AE-SH" title="Sharjah"/>
    <path d="M622.05,31.81L618.38,31.57L618.56,28.62L620.6,26.43L622.38,27.61L623.83,31.48ZM691.58,78.08L691.08,75.43L692.53,73.62L693.55,77.36ZM716.21,64.06L720.62,64.13L721.5,65.86L722.08,70.18L724.77,74.96L725.71,79.36L725.35,85.83L727.32,89.18L733.12,94.45L733.27,95.61L729.93,99.03L732.51,100.52L735.31,102.78L737.63,106.15L734.9,105.87L735.78,112.54L734.68,113.83L731.42,114.71L727.42,116.55L723.5,116.32L720.66,114.67L720.15,111.89L719.25,110.4L718.23,105.22L716.27,103.3L712.77,101.24L710.71,99.43L709.81,97.26L707.62,95.34L698.24,92.48L694.5,90.14L693.93,88.25L691.56,87.49L688,85.15L685.35,82.82L683.78,82.15L688.79,72.09L691.59,69.43L692.45,71.37L690.63,72.33L689.59,78.78L692.06,79.89L693.92,78.69L696.02,79.01L699.43,77.4L698.52,75.39L700.78,71.6L703.14,70.35L705.35,66.73L706.98,67.25L707.46,65.23L711.17,63.83L714,61.09ZM697.68,74.95L696.31,76.76L695.39,75.02ZM699.68,71.12L697.84,69.11L695.62,69.56L695,68.74L699.07,66.98L700.05,66.09L701.91,66.57ZM696.23,71.72L697.87,69.83L699.25,71.6L696.85,74.07L695.25,73.37Z" class="land" id="AE-UQ" title="Umm Al Quwain"/>
    <path d="M790.7,115.07L789.87,118.89L788.99,120.14L784.12,122.9L782.35,124.68L780.49,124.95L775.81,124.02L773.89,122.52L772.79,114.87L773.92,111.89L777.69,111.49L780.96,109.88L781.88,104.86L783.58,103.25L787.35,101.97L789.87,100.1L790.26,104.21L789.53,107.88L790.51,111.07ZM784.41,113.51L782.23,114.99L782.23,116.94L784.41,117.92L786.61,116.69L786.61,114.5Z" class="land" id="OM-MU" title="Musandam (Omani enclave)"/>
    <path d="M754.65,192.59L753.85,189.53L752.19,187.79L750.46,183.92L750.59,181.19L746.78,177.78L744.92,174.65L745.48,172.54L749.05,172.2L754.01,175.82L755.25,177.43L760.85,182.27L758.66,187.99Z" class="land" id="AE-NZ1" title="Neutral Zone 1"/>
    <path d="M791.61,168.06L788.79,167.11L785.39,166.86L781.9,167.37L779.8,165.64L777.6,164.9L777.36,162.2L779.26,160.03L783.69,160.26L785.63,160.99L789.29,161.48L791,162.51Z" class="land" id="AE-NZ2" title="Neutral Zone 2"/>
  </g>
</svg>