<?xml version="1.0" encoding="UTF-8"?>
<svg xmlns="http://www.w3.org/2000/svg" width="248.21" height="519.3" viewBox="355.9 -2.65 248.21 519.3" style="background-color:#000000">
  <!-- Created using SVG Map Generator: dojo.amcharts.com/svg-map-generator -->
  <style>
    .land { fill: #ffffff; stroke: #000000; stroke-width: 0.65; }
  </style>
  <g id="polygons">
    <path d="M404.59,28.78L405.45,29.08L406.32,31L406.26,32.43L405.42,33.28L407.89,35.94L408.44,35.68L411.17,35.26L412.41,36.13L412.46,37.41L412.96,38.01L412.29,38.98L413.27,39.48L414.45,40.6L414.94,42.12L415.93,43.06L417.31,44.98L418.15,45.19L418.13,47.24L418.75,48.39L418.75,50.17L419.64,51.33L418.23,53.08L417.45,52.57L416.34,53.47L416.44,54.96L418.28,56.93L419.07,58.39L418.42,59.3L417.31,59.44L417.57,60.9L415.32,61.21L414.42,59.66L413.77,59.57L412.18,57.05L410.09,56.43L410.95,54.53L409.67,53L408.61,50.57L407.88,50.54L407.11,49.74L404.41,49.3L403.47,51.23L402.7,50.84L402.02,49.83L402.52,49.22L402.06,48.22L401.01,47.58L400.47,45.55L399.89,44.51L398.02,44.62L396.53,46.24L396.07,47.46L396.4,48.78L395.09,48.4L394.06,47.68L392.67,47.32L391.81,47.74L390.43,46.51L389.97,47.62L388.51,48.39L387.05,48.26L386.58,49.19L384.73,47.66L384.86,46.71L383.33,47.45L381.07,47.78L379.63,47.01L379.74,46.53L378.58,45.48L378.39,44.05L378.92,42.68L378,41.6L376.85,41.3L377.05,42.68L376.38,44.14L374.44,43.01L374.45,41.73L373.07,40.8L371.89,41.44L370.94,40.81L368.76,37.21L368.01,36.84L366.69,35.42L366.92,33.64L365.92,33.09L364.58,30.58L364.55,30.09L365.47,29.79L367.02,27.45L366.54,26.03L368.21,24.94L368.9,23.83L368.75,23.09L369.73,22.14L370.7,22.22L372.46,24.08L373.88,23.81L375.5,25.35L376.54,24.93L378.17,26.2L378.67,26.17L379.9,27.65L381.12,27.63L382.37,28.19L383.92,31.31L384.94,32.72L386.53,32.94L386.82,33.57L387.94,34.2L389.34,34.08L389.58,31.94L390.87,31.52L391.55,30.73L392.97,30.17L392.18,28.86L393.37,26.82L394.47,26.91L394.85,26.26L396.22,25.78L396.4,23.75L397.48,22.09L397.56,20.78L399.29,21.45L399.96,22.09L401.47,22.82L401.71,23.57L401.09,24.48L402.26,25.79L402.1,26.41L403.19,27.91Z" class="land" id="VN-01" title="Lai Châu"/>
    <path d="M431.48,24.68L431.29,25.41L432.13,25.97L433.33,25.75L434.15,27.51L435.49,28.15L435.57,29.56L434.28,29.55L433.89,31.15L435.85,32.74L435.02,33.68L435.69,34.94L436.43,35.09L438.35,36.43L438.35,37.22L439.39,39.27L438.2,40.33L438.49,41.32L439.63,41.19L440.52,42.05L440.67,43.74L439.51,43.79L439.35,45.78L438.81,47.04L435.37,44.12L434.23,42.99L432.89,43.84L433.48,44.85L433.46,45.87L432.74,46.86L432.73,47.57L433.9,49.13L434.41,51.06L434.31,52.45L432.98,53.29L431.88,54.61L430.94,53.06L429.55,52.28L428.63,52.58L427.53,51.99L427.79,53.63L426.61,54.16L424.78,53.85L423.23,53.13L422.68,53.56L420.47,53.06L419.81,52.37L419.64,51.33L418.75,50.17L418.75,48.39L418.13,47.24L418.15,45.19L417.31,44.98L415.93,43.06L414.94,42.12L414.45,40.6L413.27,39.48L412.29,38.98L412.96,38.01L412.46,37.41L412.41,36.13L411.17,35.26L408.44,35.68L407.89,35.94L405.42,33.28L406.26,32.43L406.32,31L405.45,29.08L404.59,28.78L405.3,27.33L406.2,26.35L405.75,24.83L406.81,23.49L407.47,21.96L408.21,21.53L409.14,22.58L412.42,25.4L413.91,27.2L414.29,28.01L416.52,29.78L418.89,31.96L420.52,31.44L420.61,29.35L421.17,27.07L420.84,26.47L421.43,24.19L422.3,22.98L423.07,22.46L423.93,21L424.56,21.21L428.16,19.8L429.11,20.05L428.59,22.24L429.38,23.56L430.78,23.92Z" class="land" id="VN-02" title="Lào Cai"/>
    <path d="M472.11,9.92L470.91,10.3L470.62,11.49L469.57,13.88L468.29,14.26L467.23,14.18L465.81,14.59L465.27,16.53L464.53,16.66L463.51,17.86L463.6,19.56L463.95,20.02L466.2,21.04L466.65,21.65L469.07,23.07L469.54,24.76L469.51,25.88L469.9,27.37L468.32,28.33L466.96,28.17L466.46,27.51L464.31,27.15L463.69,28.13L462.98,28.11L462.4,26.88L460.63,26.4L460.16,25.8L458.26,25.14L457.84,26.01L458.64,27.81L457.55,28.42L457.12,29.49L457.57,30.89L456.91,32.51L457.24,33.77L456.22,34.38L456.69,35.26L455.76,36.42L456.1,37.44L454.84,38.97L454.95,39.76L453.86,40.53L452.78,38.51L451.7,38.63L450.63,38.16L450.21,40.27L450.61,41.53L449.8,43.58L449.2,42.92L448.32,43.5L446.69,44.04L445.46,44.13L445.2,43.49L444.18,42.97L444.11,40.9L442.9,40.76L440.27,39.71L439.63,41.19L438.49,41.32L438.2,40.33L439.39,39.27L438.35,37.22L438.35,36.43L436.43,35.09L435.69,34.94L435.02,33.68L435.85,32.74L433.89,31.15L434.28,29.55L435.57,29.56L435.49,28.15L434.15,27.51L433.33,25.75L432.13,25.97L431.29,25.41L431.48,24.68L431.99,25.3L433.38,24.95L434.24,23.63L435.79,22.94L437.32,21.55L438.3,20L439.32,19.5L442.48,20.77L444.17,20.68L444.22,19.58L445.26,19.29L445.96,17.63L447.42,16.95L448.05,17.01L448.77,16.09L447.69,14.83L447.66,13.27L446.92,11.2L446.77,9.81L447.67,9.32L449.14,9.59L449.4,8.23L450.59,7.51L451.68,7.96L452.01,6.79L454.22,6.2L456.19,4.43L457.13,5.27L458.55,4.54L459.1,3.77L460.85,4.41L461.93,2.85L461.95,1.79L462.91,1.27L464.11,0L464.96,0.87L465.68,2.67L466.98,3.72L467.92,3.28L468.38,4.2L469.72,5.77L470.02,6.95L471.41,7.2L473.02,8.93Z" class="land" id="VN-03" title="Hà Giang"/>
    <path d="M505.21,35L504.34,35.09L503.81,35.85L502.94,35.96L502.74,36.9L501.54,37.33L499.71,36.73L498.57,37.33L497.99,36.08L496.11,34.82L495.75,34.06L494.5,33.58L493.75,33.92L492.73,36.18L491.86,35.47L491.24,36.02L490.26,35.86L489.74,34.24L490.58,33.23L490.59,31.89L489.97,31.66L489.79,30.54L488.82,29.73L486.84,30.26L485.13,31.41L484.36,31.25L483.63,32.4L482.24,31.48L481.27,31.68L480.06,31.36L478.42,28.35L477.59,27.51L479.09,25.61L477.96,23.58L476.35,24.4L475.42,24.19L474.9,25.1L473.97,25.05L471.5,26.55L470.99,27.4L469.9,27.37L469.51,25.88L469.54,24.76L469.07,23.07L466.65,21.65L466.2,21.04L463.95,20.02L463.6,19.56L463.51,17.86L464.53,16.66L465.27,16.53L465.81,14.59L467.23,14.18L468.29,14.26L469.57,13.88L470.62,11.49L470.91,10.3L472.11,9.92L472.54,11.7L473.89,11.72L474.71,11.23L475.84,11.89L477.72,11.92L477.88,12.99L479.27,13.38L480,14.37L480.79,14.32L481.55,14.99L482.54,16.74L483.9,15.78L484.56,16.4L485.38,15.99L486.64,16.12L486.67,14.48L489.37,14.18L490.05,14.69L491.38,14.32L492.55,14.8L493.15,14.57L495.54,17.41L495.81,18.31L496.91,19.09L498.03,19.36L498.87,18.35L499.98,18.5L501.44,17.67L503.3,17.28L503.6,16.13L504.6,16.28L505.35,17.12L506.07,16.65L508.36,18.93L508.82,18.06L510.21,18.27L510.13,19.07L512.63,20.99L513.35,20.68L514.41,21.32L513.73,22.43L512.99,22.53L511.98,23.52L512.51,24.78L511.22,26.08L510.62,27.91L510.93,28.94L509.2,29.63L508.12,29.42L507.49,28.42L506.78,28.56L506.52,30.33L505.92,31.49L505.98,33.05L505.38,33.32Z" class="land" id="VN-04" title="Cao Bằng"/>
    <path d="M403.47,51.23L404.41,49.3L407.11,49.74L407.88,50.54L408.61,50.57L409.67,53L410.95,54.53L410.09,56.43L412.18,57.05L413.77,59.57L414.42,59.66L415.32,61.21L417.57,60.9L418.05,61.96L419.61,61.66L421.04,61.86L423.1,62.92L425.38,62.46L426.54,62.75L427.42,61.84L428.57,61.92L429.98,62.55L431.38,62.55L430.27,64.15L429.67,64.46L430.02,65.47L429.32,66.18L429.92,67.63L429.51,69.02L430.05,70.19L432.82,71.49L434,72.27L434.06,72.91L435.94,73.27L436.86,72.42L437.69,71.11L439.35,71.28L439.68,70.77L441.54,72.17L442.62,72.47L443.05,71.58L444.06,71.6L445.65,73.51L445.99,74.22L447.24,73.91L448.15,74.85L448.09,76.52L448.85,78.5L448.48,80.48L450.4,81.88L449.24,82.33L448.45,83.11L448.95,84.76L449.86,86.28L450.74,87.08L451.33,88.24L452.62,89.17L453.55,91.35L453.52,93.33L453.14,94.7L452.44,95.55L450.81,94.94L449.42,94.1L447.99,94.73L448.34,96.38L447.92,97.91L448.24,98.19L446.68,99.4L446.75,100.69L444.81,101L444.16,99.95L443.33,99.98L442.19,99.22L441.39,98.18L441.31,97.51L440.18,97.55L439.56,96.6L438.46,95.82L437.54,96.54L436.38,95.5L436.19,94.14L434.33,93.3L433.21,92.18L432.56,92.19L431.06,90.95L431.2,90.07L429.83,88.58L428.1,89L428.18,88.22L426.47,87.4L424.5,87.68L423.69,86.67L421.88,87.63L421.8,88.87L421.18,89.32L419.46,89.11L418.39,89.63L416.8,89.28L415.23,90.85L414.61,90.47L413.54,91.22L413.82,91.91L412.83,92.89L413.18,94.84L412.54,95.3L411.29,95.36L411.32,97.66L409.35,97.68L408.1,95.85L406.9,94.98L403.84,94.61L402.96,93.14L401.93,92.2L401.56,93.18L399.7,93.44L396.9,92.18L394.79,91.75L394.73,90.34L394.28,89.54L395.17,89.6L396.59,89.12L396.16,88.16L396.96,87.06L396.23,85.85L396.71,85.11L396.17,83.63L396.74,82.39L398.11,82.63L399.35,83.6L401.16,83.39L400.35,82.08L400.13,80.6L401.38,79.85L401.61,75.65L401.23,74.71L399.18,73.97L399.87,72.87L398.97,72.59L398,71.07L400.04,70.3L401.65,70.49L402.12,69.41L401.86,68.48L402.25,67.38L404.17,66.86L404.58,64.95L405.55,63.52L404.96,62.78L406.13,61.47L406.82,61.55L405.99,59.44L404.97,58.1L405.14,57.4L404.33,55.13L403.32,54.64L402.91,53.39Z" class="land" id="VN-05" title="Sơn La"/>
    <path d="M439.63,41.19L440.27,39.71L442.9,40.76L444.11,40.9L444.18,42.97L445.2,43.49L445.46,44.13L446.69,44.04L448.32,43.5L448.84,46.65L449.42,47.54L451.4,48.26L451.56,48.86L453.26,48.6L453,50.04L453.33,50.57L452.89,52.41L453.98,52.44L453.82,53.79L454.57,54.03L456.27,57.06L455.65,59.02L456.2,60.22L456.66,61.24L455.75,61.51L454.35,60.83L453.98,61.3L450.67,63L449.8,64.29L449.97,65.71L449.12,66.01L449.52,68.01L450.41,69.94L450.28,71.07L449.5,72.59L448.81,72.84L448.34,73.76L447.24,73.91L445.99,74.22L445.65,73.51L444.06,71.6L443.05,71.58L442.62,72.47L441.54,72.17L439.68,70.77L439.35,71.28L437.69,71.11L436.86,72.42L435.94,73.27L434.06,72.91L434,72.27L432.82,71.49L430.05,70.19L429.51,69.02L429.92,67.63L429.32,66.18L430.02,65.47L429.67,64.46L430.27,64.15L431.38,62.55L429.98,62.55L428.57,61.92L427.42,61.84L426.54,62.75L425.38,62.46L423.1,62.92L421.04,61.86L419.61,61.66L418.05,61.96L417.57,60.9L417.31,59.44L418.42,59.3L419.07,58.39L418.28,56.93L416.44,54.96L416.34,53.47L417.45,52.57L418.23,53.08L419.64,51.33L419.81,52.37L420.47,53.06L422.68,53.56L423.23,53.13L424.78,53.85L426.61,54.16L427.79,53.63L427.53,51.99L428.63,52.58L429.55,52.28L430.94,53.06L431.88,54.61L432.98,53.29L434.31,52.45L434.41,51.06L433.9,49.13L432.73,47.57L432.74,46.86L433.46,45.87L433.48,44.85L432.89,43.84L434.23,42.99L435.37,44.12L438.81,47.04L439.35,45.78L439.51,43.79L440.67,43.74L440.52,42.05Z" class="land" id="VN-06" title="Yên Bái"/>
    <path d="M448.32,43.5L449.2,42.92L449.8,43.58L450.61,41.53L450.21,40.27L450.63,38.16L451.7,38.63L452.78,38.51L453.86,40.53L454.95,39.76L454.84,38.97L456.1,37.44L455.76,36.42L456.69,35.26L456.22,34.38L457.24,33.77L456.91,32.51L457.57,30.89L457.12,29.49L457.55,28.42L458.64,27.81L457.84,26.01L458.26,25.14L460.16,25.8L460.63,26.4L462.4,26.88L462.98,28.11L463.69,28.13L464.31,27.15L466.46,27.51L466.96,28.17L468.32,28.33L469.9,27.37L470.99,27.4L470.9,27.9L472.04,29.97L472.53,30.07L473.2,31.37L473.21,32.59L471.93,33.54L471.7,35.36L470.55,35.77L470.41,37.63L469.82,37.9L469.68,39.61L468.62,39.96L467.91,41L467.66,42.38L468.7,44.07L469.72,44.48L468.72,46.01L469.11,46.65L468.71,47.47L469.53,48.43L469.76,49.73L471.03,51.29L471.79,51.66L471.7,53.42L470.56,54.56L470.89,55.42L470.5,56.34L469.74,56.31L469.76,58.2L470.25,59.07L469.26,61.79L469.83,63.78L471.36,65.38L470.66,66.76L469.52,67.38L467.64,67.8L466.31,67.61L465.67,67.14L464.13,67.76L462.25,66.37L460.85,63.38L461.16,62.34L460.15,62.21L459.24,61.33L458.54,61.32L456.2,60.22L455.65,59.02L456.27,57.06L454.57,54.03L453.82,53.79L453.98,52.44L452.89,52.41L453.33,50.57L453,50.04L453.26,48.6L451.56,48.86L451.4,48.26L449.42,47.54L448.84,46.65Z" class="land" id="VN-07" title="Tuyên Quang"/>
    <path d="M492.73,36.18L493.75,33.92L494.5,33.58L495.75,34.06L496.11,34.82L497.99,36.08L498.57,37.33L499.71,36.73L501.54,37.33L502.74,36.9L502.94,35.96L503.81,35.85L504.34,35.09L505.21,35L506.12,36.46L505.55,36.9L505.53,37.88L508.25,37.94L508.71,39.35L509.92,42L509.72,42.75L508.82,43.48L509.37,44.23L509.76,46.3L510.26,46.7L509.74,48.25L510.08,49.27L509.33,49.98L509.33,50.84L510.47,51.07L511.07,49.86L512.65,49.91L513.53,51.09L514.7,50.88L517.03,51.05L517.43,52.59L518.5,53.03L519.8,52.16L521.76,52.59L521.86,53.97L520.56,55.01L520.48,56.35L523.54,57.56L524.45,58.64L525.92,59.22L527.51,60.65L528.56,59.85L529.83,59.4L530.55,60.69L531.68,61.97L531.81,64.48L531,64.88L529.49,64.74L528.97,65.76L527.95,66.27L527.53,67.32L527.95,68.64L527.8,70.36L528.57,71.57L528.16,72.78L526.96,71.97L525.35,72.89L523.16,72.41L522.39,73.5L520.84,74.25L519.35,73.03L519.28,71.55L519.89,70.82L519.31,70.17L516.82,70.5L516.15,69.74L516.08,68.36L514.63,68.2L515.1,67.22L514.57,65.88L513.33,65.9L512.68,65.27L511.79,65.5L510.92,66.4L509.8,65.46L509.89,64.69L508.81,64.12L507.67,64.42L506.99,64.16L505.05,64.68L503.42,67.13L503.88,68.02L502.98,68.64L502.58,69.84L501.96,70.26L500.44,70.25L499.08,71.81L497.87,71.68L497.31,71.1L497.59,70.31L496.86,69.73L495.97,69.71L496.12,68.32L494.84,68.46L492.13,67.56L492.17,64.63L492.69,64.3L492.91,62.8L494.04,61.59L494.45,60.3L491.51,58.68L491.1,57.84L490.27,57.95L489.72,56.55L490.27,55.53L490.31,54.06L490.92,52.98L489.83,52.37L490.28,51.48L490.24,49.62L489.73,48.84L489.88,47.57L490.65,47.08L491.77,47.21L492.57,45.51L494.31,43.74L493.9,42.7L494.44,42.18L494.76,40.94L493.18,38.9L493.84,37.68Z" class="land" id="VN-09" title="Lạng Sơn"/>
    <path d="M531.13,89.39L532.93,90.13L531.55,90.94ZM544.65,84.97L545.94,86.24L545.13,86.95L544.06,85.7ZM538.3,84.23L537.68,86.62L536.97,88.62L534.72,89.21L534.1,89.98L532.88,89.34L535.55,87.8L536.1,86.02L537.59,84.38ZM548.19,84.19L548.26,84.88L547.07,86.03L546.79,85.28L547.59,84.25ZM516.64,87.53L518.11,89.17L516.69,89.11L516.06,88.58ZM535.1,76.07L535.56,76.17L537.23,77.79L537.83,78.8L540.09,78.14L539.2,79.48L537.5,81L536.15,81.87L535.3,82.85L534.63,82.97L532.87,84.13L531.99,83.14L532.46,83.02L532.45,82.55L532.93,82.15L533.66,81.03L533.55,79.28L534.76,77.84ZM553.14,71.63L551.82,72.41L551.16,73.19L549.09,73.07L547.85,73.78L547.93,72.39L549.85,72.26L551.64,71.72ZM540.76,81.36L539.65,84.75L539.16,84.37L539.31,83.26ZM539.08,81.66L538.76,82.87L537.64,83.59L537.25,82.62L538,81.77ZM510.03,85.85L508.22,85.14L506.86,85.08L505.68,83.79L503.68,84.18L502.73,83.41L501.7,83.51L501.2,83.06L501.88,81.73L502.62,81.26L502.59,80.19L503.22,77.85L504.1,77.9L504.6,79L505.89,79L506.82,79.75L509.73,79.78L510.52,80.16L512.9,80.52L514,79.99L514.01,79.13L514.97,79.12L515.56,79.64L516.99,79.27L517.64,79.82L519.28,76.62L518.86,75.71L520.12,75.34L520.84,74.25L522.39,73.5L523.16,72.41L525.35,72.89L526.96,71.97L528.16,72.78L528.57,71.57L527.8,70.36L527.95,68.64L527.53,67.32L527.95,66.27L528.97,65.76L529.49,64.74L531,64.88L531.81,64.48L532.51,64.6L534.12,62.66L535.28,62.14L536.32,63.21L536.33,64.63L537.85,64.84L538.34,63.99L539.73,64.2L542.31,64.11L543.56,63.67L545.76,62.46L546.88,62.37L547.73,62.98L548.27,62.52L549.29,63.52L549.67,64.83L551.05,65.45L551.47,66.65L554.68,66.03L554.06,66.97L555.1,68.17L553.37,69.02L551.97,70.4L550.21,69.93L550.31,68.78L549.41,67.65L547.66,68.89L546.47,69L545.31,70.09L544.73,71.54L542.25,72.28L541.36,73.03L540.25,75.11L539.25,75.79L536.7,75.37L533.51,76.13L534.23,76.58L534.32,77.4L533.38,78.04L532.85,79.13L532.6,81.81L532.08,82.38L532.32,82.81L531.63,83.12L531.96,83.43L531.86,84.4L532.18,85.01L531.12,86L529.88,85.75L527.8,86.14L526.95,86.97L526.43,88.16L524.57,88.14L521.83,87.33L520.83,87.81L519.7,87.24L517.78,87.63L517.08,86.99L516.17,87.11L515.85,88.5L516.1,89.27L515.04,90.48L514.78,89.32L514.16,88.57L512.28,87.91L512.23,86.67L511.5,85.82ZM514.14,91.44L512.11,91.14L511.73,90.03L512.38,88.27L514.01,88.59L515.46,91.73L514.59,92.28Z" class="land" id="VN-13" title="Quảng Ninh"/>
    <path d="M478.87,101.28L479.75,103.18L481.64,104.38L481.83,106.21L480.69,106.51L479.95,105.85L478.29,105.76L478.58,107.89L476.8,106.71L476.33,107.4L477.57,109.3L476.15,110.49L474.68,109.32L472.64,108.21L471.37,108.48L470.14,108.55L467.78,107.66L466.83,108.1L464.81,107.46L463.4,106.39L461.91,105.93L462.21,105.18L461.46,104.01L460.08,102.94L458.99,103.06L457.69,101.58L455.96,100.8L455.09,101.43L454.11,101.49L452.12,99.77L451.64,98.49L449.66,97.55L448.24,98.19L447.92,97.91L448.34,96.38L447.99,94.73L449.42,94.1L450.81,94.94L452.44,95.55L453.14,94.7L453.52,93.33L453.55,91.35L452.62,89.17L451.33,88.24L450.74,87.08L449.86,86.28L448.95,84.76L448.45,83.11L449.24,82.33L450.4,81.88L451.29,83.85L452.12,83.69L453.66,84.48L454.76,85.49L455.68,85.88L456.4,87.24L457.7,88.04L460.19,87.58L460.1,88.78L461.54,87.77L462.48,88.51L464.79,87.94L463.88,85.4L465.13,85.56L466.18,85.2L468.57,85.36L470.91,87.1L470.01,88.31L471.77,89.21L471.92,90.07L472.87,91.35L473.82,91.83L474.39,93.2L474.67,94.78L475.98,96.55L475.89,97.58L476.72,99.95L478.02,100.09Z" class="land" id="VN-14" title="Hòa Bình"/>
    <path d="M478.87,101.28L478.02,100.09L476.72,99.95L475.89,97.58L475.98,96.55L474.67,94.78L474.39,93.2L473.82,91.83L472.87,91.35L471.92,90.07L471.77,89.21L470.01,88.31L470.91,87.1L468.57,85.36L466.18,85.2L465.13,85.56L463.88,85.4L463.11,83.93L463.96,81.79L462.88,79.93L463.42,79.01L464.6,78.37L465.12,76.88L465.24,75.54L466.51,75.01L467.75,75.58L468.07,76.4L468.66,78L468.93,79.54L469.69,80.1L471.87,80.21L474.03,79.59L474.32,80.19L476.66,80.81L477.65,81.47L477.5,84.12L477.77,85.98L478.78,86.39L479.79,86.32L479.62,88.84L480.44,89.3L483.2,89.2L484.24,90.3L484.34,91.11L483.6,91.88L484.21,93.42L485.46,93.89L485.66,96.48L486.65,96.34L485.8,97.73L484.72,98.1L483.88,97.35L482.52,98.52L481.04,98.35L480.4,98.83L479.78,101.16Z" class="land" id="VN-15" title="Hà Tây"/>
    <path d="M471.37,108.48L472.64,108.21L474.68,109.32L476.15,110.49L477.57,109.3L476.33,107.4L476.8,106.71L478.58,107.89L478.29,105.76L479.95,105.85L480.69,106.51L481.83,106.21L483.3,108.09L484.39,108.28L485.04,108.79L484.43,109.67L485.41,110.19L486.05,111.01L485.95,111.99L488.4,113.61L489.77,112.34L490.1,113.63L491.38,113.25L491.94,114.6L492.13,116.69L491.5,117.66L491.21,119.02L490.36,119.64L489.73,122.32L489.96,123.63L489.72,124.4L488.59,124.13L487.41,122.73L487.41,121.63L488.27,121.16L489.03,119.3L487.33,119.21L486.45,118.88L485.26,118.97L484.04,117.68L482.21,116.89L479.69,115.28L477.95,114.74L476.37,113.46L474.93,111.61L473.94,111.31L473.24,110.25L472.6,110.26L471.57,109.46Z" class="land" id="VN-18" title="Ninh Bình"/>
    <path d="M495.51,97.04L496.61,96.86L497.62,96.11L498.45,96.45L500.1,95.49L499.86,96.91L501.11,97.84L501.5,99.33L502.56,100.06L502.93,99.45L504.49,99.75L506.54,98.62L508.01,99.35L506.16,101.7L505.92,103.16L506.72,104.37L506.11,105.02L506.5,106.08L505.73,108.3L506.47,110.03L505.65,111.47L505.15,111.24L504.06,110.1L501.89,111.07L500.82,110.6L499.82,109.35L498.39,108.8L497.81,107.93L495.79,109.63L494.99,108.7L495.97,107.84L495.66,107.02L493.85,106.74L493.52,106.11L494.02,104.74L492.64,104.13L492.26,101.94L490.94,100.94L490.57,99.43L490.22,98.53L491.41,97.96L493.28,98.49Z" class="land" id="VN-20" title="Thái Bình"/>
    <path d="M448.24,98.19L449.66,97.55L451.64,98.49L452.12,99.77L454.11,101.49L455.09,101.43L455.96,100.8L457.69,101.58L458.99,103.06L460.08,102.94L461.46,104.01L462.21,105.18L461.91,105.93L463.4,106.39L464.81,107.46L466.83,108.1L467.78,107.66L470.14,108.55L471.37,108.48L471.57,109.46L472.6,110.26L473.24,110.25L473.94,111.31L474.93,111.61L476.37,113.46L477.95,114.74L479.69,115.28L482.21,116.89L484.04,117.68L485.26,118.97L486.45,118.88L487.33,119.21L489.03,119.3L488.27,121.16L487.41,121.63L487.41,122.73L486.08,123.31L485.04,124.14L484.82,125.98L484.28,127.92L484.55,128.59L483.16,131.14L481.97,131.37L481.19,133.05L480.32,136.83L480.17,140.54L479.59,142.4L479.57,143.75L480.49,145.19L480.11,146.45L478.83,146.29L478.04,145.19L477.06,145.87L475.44,145.51L475.43,144.58L473.97,143.05L472.92,143.44L471.04,140.43L468.93,140.46L468.13,141.05L467.23,140.39L466.73,140.76L465.08,137.62L464.44,137.83L463.26,139.49L462.58,139.21L462.3,137.9L462.74,136.57L462.4,134.98L461.62,133.39L460.82,133.69L459.43,132.51L458.77,131.22L457.88,130.35L457.62,128.33L457.76,127.41L458.41,126.39L459.64,126.07L458.49,124.03L457.65,124.05L456.48,123.46L454.96,123.74L452.48,122.26L451.93,121.65L450.25,121.35L451.13,120.08L452.41,119.12L452.05,117.33L450.74,116.26L448.75,116.29L445.87,114.28L444.03,114.18L441.07,113.18L440.51,112.68L440.4,111.56L440.77,109.19L440.63,108.51L443.69,106.77L442.03,104.48L440.89,104.95L440.55,106.14L438.87,106.56L435.88,108.24L434.11,107.97L433.56,107.05L433.85,106.28L432.78,105.32L432.62,104.73L434.65,103.28L435.88,103.02L436.67,102.04L437.61,101.73L438.11,100.1L438.83,99.76L440.11,99.84L441.39,98.18L442.19,99.22L443.33,99.98L444.16,99.95L444.81,101L446.75,100.69L446.68,99.4Z" class="land" id="VN-21" title="Thanh Hóa"/>
    <path d="M450.25,121.35L451.93,121.65L452.48,122.26L454.96,123.74L456.48,123.46L457.65,124.05L458.49,124.03L459.64,126.07L458.41,126.39L457.76,127.41L457.62,128.33L457.88,130.35L458.77,131.22L459.43,132.51L460.82,133.69L461.62,133.39L462.4,134.98L462.74,136.57L462.3,137.9L462.58,139.21L463.26,139.49L464.44,137.83L465.08,137.62L466.73,140.76L467.23,140.39L468.13,141.05L468.93,140.46L471.04,140.43L472.92,143.44L473.97,143.05L475.43,144.58L475.44,145.51L477.06,145.87L478.04,145.19L478.83,146.29L480.11,146.45L479.25,147.02L478.8,148.55L477.86,148.83L477.64,149.93L477.59,152.17L477.91,152.85L476.35,153.65L475.27,153.38L474.15,155.23L473.89,156.94L474.03,158.41L474.49,160.1L476.31,160.94L477.11,162L477.58,163.58L478.71,164.83L478.01,165.61L478.81,167.49L478.69,168.1L477.1,168.25L476.25,170.7L474.12,171.68L471.48,172.24L470.98,171.93L470.09,170.2L469.17,170.3L465.87,171.32L464.59,170.9L462.69,169.73L460.58,170.65L459.63,170.55L459.89,169.02L458.93,168.56L457.85,167.41L453.95,165.66L451.42,165.71L451.29,164.59L450.48,164.02L446.71,164.26L446.15,163.53L445.42,163.83L443.13,162.39L441.03,160.86L439.43,160.01L438.15,157.46L437.2,157.24L436.6,156.38L435.79,157.02L434.92,157.09L434.06,156.32L433.37,154.66L432.28,153.92L431.63,153.97L430.38,153.34L430.06,152.54L429.16,152.25L428.33,152.59L427.18,151.97L427.53,151.02L426.71,150.81L426.08,149.58L424.34,149.32L423.81,148.67L422.43,147.81L420.11,148.36L418.79,147.62L417.31,145.86L415.9,145.63L418.5,143.94L418.65,143.05L419.95,142.23L420.48,142.33L422.57,140.71L423.49,138.16L423.61,136.48L422.91,136.02L422.06,134.7L421.98,133.56L422.4,132.5L423.63,133.23L425.22,132.94L425.37,131.99L426.5,132.06L427.84,131.64L430.18,132L431.34,132.67L431.73,132.18L433.5,131.76L435.19,133.44L436.4,133.45L436.93,134.5L438.75,134.85L440.31,134.16L441.12,134.61L442.4,132.4L442.55,131.52L443.82,129.96L445.15,130.12L446.57,128.7L447.72,128.66L447.77,126.49L448.26,125.89L448.16,123.88L450.12,122.43Z" class="land" id="VN-22" title="Nghệ An"/>
    <path d="M503.55,192.95L501.52,193.32L501.31,192.64L497.85,191.84L497.31,192.84L496.71,192.85L495.19,194.5L494.55,193.99L492.16,194.53L489.13,193.89L488.07,193.43L488.16,192.76L489.15,191.98L488.56,191.08L487.27,190.69L486.09,189.31L485.49,189.61L484.38,188.49L483.08,188.42L481.52,189.52L481.96,190.53L479.15,190.96L477.61,190.36L476.79,191.81L474.72,191.82L473.72,191.14L472.64,191.06L472.74,189.98L472.31,188.62L471.28,188.69L471.12,187.5L470.14,187.21L470.37,186.33L470.03,185.05L468.62,184.37L467.95,185.19L467.31,185.14L466.94,186.17L466.08,185.61L464.51,185.18L463.97,184.55L464.34,182.72L463.28,182.65L461.91,182.14L461.42,181.19L459.47,180.2L459.62,179.2L459.08,177.84L457.35,176.9L456.78,175.9L457.16,172.71L457.62,172.38L457.83,170.85L458.65,170.09L459.63,170.55L460.58,170.65L462.69,169.73L464.59,170.9L465.87,171.32L469.17,170.3L470.09,170.2L470.98,171.93L471.48,172.24L474.12,171.68L476.25,170.7L477.1,168.25L478.69,168.1L478.81,167.49L478.01,165.61L478.71,164.83L479.23,165.22L479.88,168.17L480.75,170.52L481.83,172.54L483.98,175.7L484.73,175.77L486.32,178.18L488.98,181.15L490.64,182.23L491.86,182.2L494.38,183.99L494.95,184.04L496.71,186.08L498.63,187.76L500.01,188.08L501.05,189.55L502.13,191.59Z" class="land" id="VN-23" title="Hà Tĩnh"/>
    <path d="M474.72,191.82L476.79,191.81L477.61,190.36L479.15,190.96L481.96,190.53L481.52,189.52L483.08,188.42L484.38,188.49L485.49,189.61L486.09,189.31L487.27,190.69L488.56,191.08L489.15,191.98L488.16,192.76L488.07,193.43L489.13,193.89L492.16,194.53L494.55,193.99L495.19,194.5L496.71,192.85L497.31,192.84L497.85,191.84L501.31,192.64L501.52,193.32L503.55,192.95L503.24,194.24L502.6,194.35L501.57,196.05L501.38,197.81L502,200.02L503.29,202.76L504.78,204.84L506,207.15L508.38,210.74L509.81,212.41L512.14,214.75L514.37,216.78L517.25,219.03L519.62,220.71L518.02,222.37L515.82,223.64L515.27,224.59L513.24,225.66L513.29,226.63L512.62,226.84L512.41,228.8L511.26,229.11L509.37,227.9L508.5,228.58L506.73,228.49L505.98,226.73L504.83,226.47L503.67,227.37L501.17,226.56L500.62,225.26L499.91,224.53L500.37,223.64L499.04,222.6L497.77,220.52L496.66,219.15L497.66,218.25L496.68,217.42L496.65,216.12L495.7,216.14L495.77,217.18L494.39,217.68L491.96,215.81L491.03,214.74L489.6,213.8L481.97,204.56L479.25,202.9L478.28,203.12L478.05,201.31L477.59,200.47L476.63,199.87L475.79,198.69L476.07,197.85L475.71,196.91L473.54,195.85L474.06,193.59L474.68,192.86Z" class="land" id="VN-24" title="Quảng Bình"/>
    <path d="M532.65,235.32L532.07,235.6L531.38,236.9L529.95,238.85L530.68,239.98L528.78,241.44L527.95,240.71L524.45,241.23L523.82,241.92L522.25,242.26L521.6,242.99L522.95,243.56L523.88,244.31L524.29,245.27L523.88,245.73L521.76,245.51L521.43,246.3L521.77,247.61L520.56,248.74L520.7,250.29L518.47,250.51L518.61,248.78L517.27,248.28L516.39,247.52L515.7,244.78L516,242.97L515.21,242.3L514.15,242.03L514.08,242.96L513.21,244.99L512.31,245.14L511.9,246.32L510.68,246.33L509.42,245.84L508.06,242.38L508.89,241.64L508.03,240.46L506.82,240.01L505.36,238.88L504.87,236.99L504.87,231.06L503.64,229.99L503.82,229.09L504.75,228.96L504.83,226.47L505.98,226.73L506.73,228.49L508.5,228.58L509.37,227.9L511.26,229.11L512.41,228.8L512.62,226.84L513.29,226.63L513.24,225.66L515.27,224.59L515.82,223.64L518.02,222.37L519.62,220.71L520.97,221.77L523.71,223.42L523.5,225.88L524.65,227.88L526.15,229.67L530.16,233.39Z" class="land" id="VN-25" title="Quảng Trị"/>
    <path d="M559.46,253.74L558.21,253.91L556.97,254.75L556.07,254.79L553.49,254.32L552.61,253.62L551.53,254.48L550.04,253.57L548.86,254.22L548.84,255.45L548.32,255.72L548.21,257.07L547.43,257.68L546.97,258.99L546.03,258.75L543.91,259.99L543.28,261.16L542.28,261.06L541.82,260.39L540.37,259.89L540.34,258.82L538.15,259.49L537.96,260.65L536.76,260.46L536.06,259.61L535.28,260.16L534.6,259.66L534.48,258.15L533.43,258.1L531.01,259.1L529.98,258.22L528.48,256.29L527.82,255.92L526.87,256.14L525.07,255.22L524.55,253.63L524.97,252.15L524.58,251.66L522.62,250.22L522.15,250.52L520.7,250.29L520.56,248.74L521.77,247.61L521.43,246.3L521.76,245.51L523.88,245.73L524.29,245.27L523.88,244.31L522.95,243.56L521.6,242.99L522.25,242.26L523.82,241.92L524.45,241.23L527.95,240.71L528.78,241.44L530.68,239.98L529.95,238.85L531.38,236.9L532.07,235.6L532.65,235.32L537.13,238.95L538.98,240.55L534.61,238.24L534.94,238.97L536.25,240.29L537.2,240.37L538.41,241.3L538.94,241.22L540.59,242.14L540.61,243.07L541.31,244.13L542.52,243.09L542.98,243.94L544.86,245.38L546.65,247.67L545.73,247.75L545.46,248.42L546.22,249.45L546.14,250.15L546.93,251L549.24,251.49L550.14,250.92L550.48,249.71L551.49,249.09L551.94,249.82L553,250.22L554.17,249.43L554.62,251.89L554.36,253.11L554.94,253.52L556.1,253.1L556.96,253.67L557.92,253.36ZM542.47,242.2L545.78,244.78L549.04,247.79L550.24,248.59L549.28,249.13L548.01,248.79L547.29,247.73L545.42,245.99L544.38,244.1Z" class="land" id="VN-26" title="Thừa Thiên–Huế"/>
    <path d="M535.28,260.16L536.06,259.61L536.76,260.46L537.96,260.65L538.15,259.49L540.34,258.82L540.37,259.89L541.82,260.39L542.28,261.06L543.28,261.16L543.91,259.99L546.03,258.75L546.97,258.99L548.43,258.88L549.74,259.85L550.98,259.03L552.45,260.61L552.35,261.42L551.3,262.78L552.53,263.82L554.35,263.27L555.68,263.6L556.63,262.82L557.57,263.42L558.1,262.64L558.93,263.1L559.99,263L561.19,261.9L561.96,262.4L562.6,262.15L563.9,263.7L565.96,264.97L566.34,265.44L566.93,267.91L569.46,272.3L572.11,276.19L572.81,277.41L572.12,277.99L572.49,278.96L573.86,279.13L573.7,279.87L574.99,280.55L576.14,280.32L577.52,281.78L576.83,282.67L574.3,282.83L570.45,284.47L569.75,284.26L569.09,284.91L567.57,284.75L565.1,285.37L563.6,285.14L562.97,285.74L563.18,287.72L562.78,289.72L561.56,291.5L561.04,293.27L560.93,294.42L560.06,294.39L558.86,293.41L557.85,293.92L557.97,295.42L558.41,296.37L556.55,297.16L555.09,296.57L554.55,295.75L552.66,295.54L552.06,295.07L551.38,293.65L552.19,293.11L553.12,290.66L552.98,290.11L551.34,289.46L550.7,288.37L549.38,288.85L548.71,288.24L547.42,288.33L545.65,287.99L544.33,287.34L543.94,285.06L543.28,285.05L541.8,283.29L541.76,282.26L540.52,281.22L539.81,281L538.38,281.92L536.97,281.1L537.27,280.27L536.84,279.22L535.42,278.4L534.07,278.63L532.47,278.5L531.9,275.87L531.19,274.35L529.44,274.01L528.55,272.81L528.92,271.24L528.04,270.45L526.85,270.04L527.4,268.48L526.78,267.03L531.31,264.69L532.97,264.82L533.69,263.57Z" class="land" id="VN-27" title="Quảng Nam"/>
    <path d="M540.52,281.22L541.76,282.26L541.8,283.29L543.28,285.05L543.94,285.06L544.33,287.34L545.65,287.99L547.42,288.33L548.71,288.24L549.38,288.85L550.7,288.37L551.34,289.46L552.98,290.11L553.12,290.66L552.19,293.11L551.38,293.65L552.06,295.07L552.66,295.54L554.55,295.75L555.09,296.57L556.55,297.16L558.41,296.37L557.97,295.42L557.85,293.92L558.86,293.41L560.06,294.39L560.93,294.42L562.41,296.69L563.36,297.34L563.66,298.47L565.15,299.64L565.5,300.8L566.42,301.66L567.18,301.76L568.18,302.7L569.4,302.34L570.55,304.24L569.56,305.7L570.02,306.34L569.08,307.72L569.35,308.5L570.49,308.42L571.16,309.59L570.53,310.75L569.38,311.16L567.63,310.77L566.83,310.24L566.37,309.3L565.46,309.2L564.91,310.47L565.73,311.76L563.83,314.09L563.71,314.63L562.12,316.56L559.94,316.55L558.65,317.19L558.12,317.84L556.81,317.34L556.46,318.23L555.61,318.39L554.99,320.7L554.31,320.3L553.56,321.21L552.4,321.41L551.67,321.97L550.74,321.55L549.65,320.31L547.57,320.6L547.6,321.76L546.92,322.47L545.8,322.07L545.03,322.87L543.02,322.42L542.32,319.99L542.48,318.9L543.67,318.62L544.35,317.25L543.77,316.82L543.12,314.24L542.39,313.5L540.39,314.55L539.14,314.62L537.76,314.03L536.56,314.1L536.63,313.24L537.48,310.83L536.99,309.82L538.4,308.52L537.82,306.11L537.76,304.15L536.7,302.51L537.12,301.89L539.35,300.16L539.18,299.19L537.68,298.66L536.58,297.93L535.67,296.91L535.31,295.25L537.72,293.79L539.17,294.51L539.51,293.73L540.42,293.74L539.63,292.47L540.46,291.84L540.59,290.34L539.36,288.79L540.37,288.19L540.5,287.43L540.21,285.61L540.56,284.04L539.58,282.31Z" class="land" id="VN-28" title="Kon Tum"/>
    <path d="M588.91,309.99L587.82,309.09L587.71,308.17L586.77,306.98L585.47,306.79L583.82,305.69L582.53,306.4L580.86,305.99L580.01,306.81L578.21,306.96L578.35,309.23L577.46,309.62L576.57,309.08L574.26,310.41L573.85,311.14L573.15,311.48L572.8,310.5L571.16,309.59L570.49,308.42L569.35,308.5L569.08,307.72L570.02,306.34L569.56,305.7L570.55,304.24L569.4,302.34L568.18,302.7L567.18,301.76L566.42,301.66L565.5,300.8L565.15,299.64L563.66,298.47L563.36,297.34L562.41,296.69L560.93,294.42L561.04,293.27L561.56,291.5L562.78,289.72L563.18,287.72L562.97,285.74L563.6,285.14L565.1,285.37L567.57,284.75L569.09,284.91L569.75,284.26L570.45,284.47L574.3,282.83L576.83,282.67L577.52,281.78L578.73,282.29L580.33,281.38L580.52,282.52L581.14,283.39L582.36,284.31L581.88,285.16L583.23,286.96L584.28,287.12L583.9,288.23L582.76,288.78L582.84,290.36L582.53,291.32L583.4,294.5L584.69,298.19L586.38,301.77L587.62,303.94L588.78,305.62L588.97,306.92L588.38,307.52Z" class="land" id="VN-29" title="Quảng Ngãi"/>
    <path d="M536.56,314.1L537.76,314.03L539.14,314.62L540.39,314.55L542.39,313.5L543.12,314.24L543.77,316.82L544.35,317.25L543.67,318.62L542.48,318.9L542.32,319.99L543.02,322.42L545.03,322.87L545.8,322.07L546.92,322.47L547.6,321.76L547.57,320.6L549.65,320.31L550.74,321.55L551.67,321.97L552.4,321.41L553.56,321.21L554.31,320.3L554.99,320.7L555.61,318.39L556.46,318.23L556.81,317.34L558.12,317.84L558.65,317.19L559.94,316.55L562.12,316.56L563.71,314.63L563.83,314.09L565.73,311.76L564.91,310.47L565.46,309.2L566.37,309.3L566.83,310.24L567.63,310.77L569.38,311.16L570.53,310.75L571.16,309.59L572.8,310.5L573.15,311.48L573.85,311.14L573.97,312.76L574.37,313.49L573.41,315.67L574.06,317.05L574.48,319.61L574.93,320.18L575.62,323.17L575.48,324.68L576.99,327.56L578.05,328.25L578.37,330.02L577.79,331.7L577.7,332.9L578.63,334.36L579.47,335.1L579.6,336.41L580.29,336.63L580.74,338.76L580.64,339.83L580.02,340.22L580.29,341.75L581.25,344.03L581.24,344.55L579.09,344.24L577.87,344.62L577.16,346.22L576.35,347.36L576.7,348.11L577.75,348.33L578.91,348.04L579.77,349.07L579.86,351.76L582,354.41L581.67,356.24L581.22,356.55L580.86,358.14L578.3,359.35L577.91,360.75L578.12,362.84L576.04,363.39L575.64,364.03L574.42,363.6L573.39,363.7L572.64,362.95L571.86,363.28L570.04,362.78L570.24,361.52L569.18,360.16L568.31,359.86L568.4,358.43L567.51,357.81L566.82,356.4L566.54,355.15L565.36,354.83L565.36,353.63L564.73,352.73L562.58,352L561.76,351.24L561.06,351.39L558.88,350.86L558.34,350.27L556.7,349.74L554.18,350.22L551.09,351.22L549.91,350.69L548.07,350.67L547.65,350.29L546.4,350.52L545.19,351.52L542.8,351.32L541.37,352.28L541.33,352.8L539.96,353.52L540.72,351.65L540.27,346.02L538.78,342.73L538.71,341.32L538.1,340.38L537.5,338.6L534.79,336.88L534.93,335.72L535.52,334.68L535.51,332.66L534.81,332.22L534.89,330.51L534.5,329.93L532.63,330.21L531.64,328.87L531.91,327.62L532.52,327.15L530.84,326.22L531.71,323.98L532.31,323.68L533.36,321.79L533.32,319.64L532.79,318.68L533.51,317.47L535.11,315.95L536.03,315.96Z" class="land" id="VN-30" title="Gia Lai"/>
    <path d="M573.85,311.14L574.26,310.41L576.57,309.08L577.46,309.62L578.35,309.23L578.21,306.96L580.01,306.81L580.86,305.99L582.53,306.4L583.82,305.69L585.47,306.79L586.77,306.98L587.71,308.17L587.82,309.09L588.91,309.99L588.44,310.31L589.31,313.03L590.36,314.55L590.05,315.29L590.49,316.26L590.28,316.98L592.15,319.99L592.81,321.76L592.24,322.17L592.53,323.68L591.45,323.96L592.01,325.53L592.87,325.67L594,328.3L594.64,329.17L594.76,330.17L594.31,331.82L595.17,333.29L595.94,334.06L596.17,335.65L595.71,336.49L595.99,337.33L594.83,338.12L594.83,336.29L594.48,334.35L593.93,333.75L593.64,335.73L593.91,337.75L593.36,338.45L593.94,341.09L593.11,340.72L591.4,340.81L591.27,342.31L590.6,342.07L589.96,343.72L588.97,344.57L587.97,344.53L587.16,345.81L586,346.33L584.85,346.37L583.59,345.49L581.82,345.69L581.24,344.55L581.25,344.03L580.29,341.75L580.02,340.22L580.64,339.83L580.74,338.76L580.29,336.63L579.6,336.41L579.47,335.1L578.63,334.36L577.7,332.9L577.79,331.7L578.37,330.02L578.05,328.25L576.99,327.56L575.48,324.68L575.62,323.17L574.93,320.18L574.48,319.61L574.06,317.05L573.41,315.67L574.37,313.49L573.97,312.76Z" class="land" id="VN-31" title="Bình Định"/>
    <path d="M581.24,344.55L581.82,345.69L583.59,345.49L584.85,346.37L586,346.33L587.16,345.81L587.97,344.53L588.97,344.57L589.96,343.72L590.6,342.07L591.27,342.31L591.4,340.81L593.11,340.72L593.94,341.09L593.7,342.03L595.07,344.11L594.43,346.01L595.74,346.57L595.94,347.47L596.75,348.27L596.57,349.85L595.26,349.79L595.94,348.39L594.29,347.34L593.51,348.67L594.49,351.43L596.01,351.54L595.4,353.54L594.72,354.21L594.98,355.4L596.02,354.08L596.77,355.24L595.95,356.57L596.23,357.58L596.05,359.25L597.32,361.14L598.74,363.74L600.56,365.78L601.45,367.45L600.13,368.14L599.18,369.29L598.42,368.43L597.6,369.16L595.76,369.68L594.75,369.48L593.84,370.35L593.19,369.75L591.81,369.87L590.93,371.4L589.84,371.68L588.92,372.71L587.59,372.64L586.04,373.95L585.69,372.72L585.8,371.41L585.24,370.23L584.36,370.59L581.86,370.23L581.18,368.9L580.06,368.22L579.27,368.37L577.94,365.82L576.91,365.52L575.57,364.59L575.64,364.03L576.04,363.39L578.12,362.84L577.91,360.75L578.3,359.35L580.86,358.14L581.22,356.55L581.67,356.24L582,354.41L579.86,351.76L579.77,349.07L578.91,348.04L577.75,348.33L576.7,348.11L576.35,347.36L577.16,346.22L577.87,344.62L579.09,344.24Z" class="land" id="VN-32" title="Phú Yên"/>
    <path d="M539.96,353.52L541.33,352.8L541.37,352.28L542.8,351.32L545.19,351.52L546.4,350.52L547.65,350.29L548.07,350.67L549.91,350.69L551.09,351.22L554.18,350.22L556.7,349.74L558.34,350.27L558.88,350.86L561.06,351.39L561.76,351.24L562.58,352L564.73,352.73L565.36,353.63L565.36,354.83L566.54,355.15L566.82,356.4L567.51,357.81L568.4,358.43L568.31,359.86L569.18,360.16L570.24,361.52L570.04,362.78L571.86,363.28L572.64,362.95L573.39,363.7L574.42,363.6L575.64,364.03L575.57,364.59L576.91,365.52L577.94,365.82L579.27,368.37L580.06,368.22L581.18,368.9L581.86,370.23L584.36,370.59L585.24,370.23L585.8,371.41L585.69,372.72L586.04,373.95L585.68,375.1L585.66,376.72L585.12,377.58L584.13,377.3L582.68,378.28L582.71,379.29L582.06,380.12L582.23,381.7L581.95,382.61L580.92,382.26L578.91,380.81L577.85,381.67L576.82,381.54L575.28,383.54L575.96,385.3L575.57,386.14L575.64,387.25L575.13,387.81L572.8,388.59L571.01,387.87L569.93,388.56L569.34,387.6L567.49,389.23L565.87,389.79L564.81,389.33L562.78,390.89L561.62,391.17L561.28,391.98L559.64,392.17L558.51,391.3L557.1,392.02L556.74,391.72L555.91,390.49L555.79,389.77L554.29,388.18L551.39,387.16L550.78,386.36L550.72,385.27L550.06,384.39L550.39,383.46L551.15,383.01L552.46,382.82L553.02,381.79L552.14,380.75L551.1,380.09L550.07,380.14L549.3,379.67L549.49,378.82L550.82,378.19L550.35,376L549.52,373.77L550.01,372.74L548.61,372.45L547.91,370.34L546.45,371.45L544.11,371.41L540.82,370.67L538.38,370.88L538.21,370.19L537.32,369.42L536.36,368.13L535.89,365.88L536.55,364.82L536.11,363.91L536.06,362.81Z" class="land" id="VN-33" title="Đắk Lắk"/>
    <path d="M597,376.33L599,376.75L599.42,377.84L599.49,379.33L598.31,378.33L596.79,377.49ZM595.21,390.1L596.04,390.15L596.74,391.66L595.2,391.33L594.31,390.85ZM586.04,373.95L587.59,372.64L588.92,372.71L589.84,371.68L590.93,371.4L591.81,369.87L593.19,369.75L593.84,370.35L594.75,369.48L595.76,369.68L597.6,369.16L598.42,368.43L599.18,369.29L598.21,369.67L598.19,370.96L598.86,372.83L600.76,375.96L600.5,377.61L599.46,377.37L599.8,376.43L599.72,375.16L598.46,375.1L598.83,373.76L598.04,372.16L598.03,370.85L597.14,370.98L596.87,371.93L596.26,372.05L594.72,374.07L593.83,374.35L593.2,375.91L592.56,376.55L592.58,378.39L594.05,378.5L593.84,379.6L594.14,380.62L596.04,381.74L595.75,382.44L595.99,383.6L596.89,383.78L597.56,384.51L596.25,385.05L595.66,386.16L593.13,383.1L592.08,382.4L591.35,383.33L591.49,383.97L592.92,384.77L592.73,385.74L593.36,387.92L592.82,389.2L592.99,390.43L593.44,390.8L592.81,392.33L593.51,392.7L593.25,393.81L592.7,394.1L592.95,395.86L594.23,398.34L595.19,398.8L595.34,400.17L594.91,401.25L595.56,402.05L595.24,402.75L593.92,402.02L592.97,402.06L593.38,400.02L592.77,399.15L591.18,401.31L590.51,401.09L589.73,402.64L590.03,403.59L590.98,404.17L592.11,403.32L592.71,404.37L589.84,404.52L588.76,403.58L587.84,401.43L586.41,400.58L585.62,400.87L583.44,399.6L582.65,399.78L581.15,398.66L581.46,397.39L580.81,397.23L579.9,395.99L579.11,393.77L579.34,392.57L577.31,392.48L576.65,391.49L577.04,390.58L576.51,389.31L576.32,387.5L575.64,387.25L575.57,386.14L575.96,385.3L575.28,383.54L576.82,381.54L577.85,381.67L578.91,380.81L580.92,382.26L581.95,382.61L582.23,381.7L582.06,380.12L582.71,379.29L582.68,378.28L584.13,377.3L585.12,377.58L585.66,376.72L585.68,375.1Z" class="land" id="VN-34" title="Khánh Hòa"/>
    <path d="M575.64,387.25L576.32,387.5L576.51,389.31L577.04,390.58L576.65,391.49L577.31,392.48L576.03,393.02L575.51,393.85L576.38,394.83L576.63,396.05L575.6,397.54L575.6,398.48L574.97,399.28L575.06,400.85L574.72,401.55L574.7,403.3L573.92,403.76L573.62,404.67L575.23,405.15L575.15,406.52L575.95,407.07L576.15,407.96L575.69,409.01L571.38,410.46L571.32,411.5L572.33,413.05L571.47,414.43L570.96,414.73L569.41,413.92L568.57,414.34L567.33,414.45L566.88,414.02L564.74,414.76L563.78,413.85L562.25,414.4L561.57,415.81L562.12,417.02L562.77,416.95L563.17,417.88L562.26,418.52L561.48,419.65L559.52,420.96L559.15,421.51L556.84,421.95L554.92,423.65L554.39,423.07L553.94,420.82L551.7,419.98L549.94,419.57L546.25,419.28L544.3,419.46L543.51,420.46L542.39,420.94L540.02,420.22L538.92,418.96L537.82,419.61L535.98,418.46L536,417.43L534.86,417.64L534.08,416.97L535.46,415.73L534.83,414.88L532.62,414.06L531.65,412.9L530.97,413.38L530.1,413.08L529.66,412.06L529.89,410.95L528.8,410.31L528.62,409.47L529.25,408.61L529.27,407.31L529.79,406.82L532.76,405.89L533.63,406.5L534.16,405.92L535.18,406.09L535.75,405.06L536.44,404.83L538.13,405.05L538.98,404.04L540.32,403.45L540.68,402.55L541.65,402.2L542.68,400.69L543.97,400.86L544.18,402.22L545.41,403.09L547.11,402.62L547.38,402.14L549.46,402.36L549.29,404.05L550.49,404.86L551.6,404.12L552.13,405.09L554.91,403.49L555.26,403.58L556.34,402.13L556.56,401.19L555.77,400.98L555.24,399.74L554.63,399.46L553.89,398.3L553.36,396.21L552.29,396.18L552.63,393.84L554.41,393.26L556.37,393.33L556.86,392.49L556.74,391.72L557.1,392.02L558.51,391.3L559.64,392.17L561.28,391.98L561.62,391.17L562.78,390.89L564.81,389.33L565.87,389.79L567.49,389.23L569.34,387.6L569.93,388.56L571.01,387.87L572.8,388.59L575.13,387.81Z" class="land" id="VN-35" title="Lâm Đồng"/>
    <path d="M577.31,392.48L579.34,392.57L579.11,393.77L579.9,395.99L580.81,397.23L581.46,397.39L581.15,398.66L582.65,399.78L583.44,399.6L585.62,400.87L586.41,400.58L587.84,401.43L588.76,403.58L589.84,404.52L592.71,404.37L592.39,404.98L593.89,406.54L592.1,408.95L591.73,410.82L591.2,411L590.32,412.47L589.24,411.95L587.08,412.35L587.34,413.29L586.64,414.38L586.46,418.89L586.86,419.68L586.03,420.03L584.98,421.17L583.68,421.36L582.51,420.5L581.77,420.58L581.77,419.95L581.03,419.1L579.09,418.72L578.15,417.94L578.26,415.96L576.69,416.22L575.54,415.83L574.89,414.79L574.37,413.25L572.33,413.05L571.32,411.5L571.38,410.46L575.69,409.01L576.15,407.96L575.95,407.07L575.15,406.52L575.23,405.15L573.62,404.67L573.92,403.76L574.7,403.3L574.72,401.55L575.06,400.85L574.97,399.28L575.6,398.48L575.6,397.54L576.63,396.05L576.38,394.83L575.51,393.85L576.03,393.02Z" class="land" id="VN-36" title="Ninh Thuận"/>
    <path d="M501.51,409.17L502.15,411.07L502.92,412.59L502.28,413.38L500.93,413.59L500.67,415.13L500.01,416.2L498.88,416.7L497.41,420.25L498.02,420.9L497.7,421.87L498.27,422.2L498.23,423.46L498.89,423.59L499.49,424.68L499.45,425.59L501.42,427.3L500.74,428.76L500.67,430.25L500.31,431.58L498.42,432.15L496.55,430.98L495.82,431.32L495.63,432.51L494.52,432.31L492.47,433.14L492.02,432.6L493.39,432.61L492.98,431.8L492.79,430.14L491.69,428.45L490.16,429.46L489.52,428.51L487.33,427.12L486.92,425.43L485.34,425.23L484.12,424.51L483.6,423.73L483.51,422.38L482.05,422.02L482.68,419.74L482.27,419.25L483.36,416.76L482.41,416.25L482.74,415.51L482.5,413.29L480.54,412.64L480.25,410.93L480.86,410.89L481.16,409.94L482.94,408.98L484.07,409.88L485.02,410.23L485.94,409.2L485.81,408.75L487.07,407.27L487.18,405.74L488.8,405.39L490.2,406.67L491.7,406.92L492.83,406.35L493.48,407.11L494.86,407.21L496.49,408.81L497.83,408.8L498.68,408.32L499.84,408.46Z" class="land" id="VN-37" title="Tây Ninh"/>
    <path d="M514.47,435.3L511.91,433.45L513.01,432.81L512.3,431.67L513.41,430.98L513.11,429.94L514.04,429.67L514.46,430.52L515.58,431.19L516.87,430.48L518.61,428.21L518.23,427.5L518.23,426.31L517.57,425.45L516.68,425.34L517.34,423.49L517.73,421.46L519.9,420.66L521.59,419.29L522.37,417.78L522.3,416.52L523,415.67L523.79,415.57L524.33,414.93L530.5,413.59L530.97,413.38L531.65,412.9L532.62,414.06L534.83,414.88L535.46,415.73L534.08,416.97L534.86,417.64L536,417.43L535.98,418.46L537.82,419.61L537.56,420.87L536.99,421.37L537.21,423.33L535.81,424.37L534.98,426.74L534.25,427.46L534.85,428.14L533.81,429.31L533.26,430.42L534.52,430.83L535.53,431.63L536.61,431.42L537.8,432.57L538.39,434.05L538.38,436.3L538.95,437.43L538.83,438.13L537.51,439.27L536.61,439.56L535.93,439.69L535.5,438.87L534.39,438.64L533.71,439.59L533.15,439.7L531.39,441.83L531.6,442.51L530.38,443.09L529.79,442.57L529.99,441.54L529.81,440.18L526.69,440.05L525.84,439.76L524.97,440.54L524.27,442.52L523.02,443.66L521.38,443.47L520.31,443.93L520.03,445.03L519.23,445.98L518.5,445.52L517.2,445.02L515.9,443.74L514,444.36L513.39,443.35L511.62,442.1L511.57,441.27L512.23,440.44L513.98,439.4L515.31,439.83L515.28,439L515.85,438.41L514.94,437.12Z" class="land" id="VN-39" title="Đồng Nai"/>
    <path d="M584.38,446.96L584.99,448.59L583.93,448.3L583.63,447.2ZM572.33,413.05L574.37,413.25L574.89,414.79L575.54,415.83L576.69,416.22L578.26,415.96L578.15,417.94L579.09,418.72L581.03,419.1L581.77,419.95L581.77,420.58L579.18,421.27L578.82,422.13L578.18,422.26L577.24,425.57L576.64,425.94L575.24,425.35L572.52,425.66L571.76,426.29L570.44,426.66L569.32,428.33L568.74,430.21L567.35,430.29L566.59,430.74L565.37,430.77L564.65,431.62L564.28,433.42L563.29,433.32L562.16,433.81L560.53,433.4L559.28,434.02L557.52,434.1L555.9,434.74L555.22,435.58L554.34,437.34L553.52,440.8L552.8,441.82L551.61,441.77L549.77,441.27L548.77,441.45L546.71,442.28L545.14,443.85L543.94,444.34L542.99,444.32L541.83,445.08L539.07,446.19L537.71,442.65L537.52,441.25L536.46,440.46L536.61,439.56L537.51,439.27L538.83,438.13L538.95,437.43L538.38,436.3L538.39,434.05L537.8,432.57L536.61,431.42L535.53,431.63L534.52,430.83L533.26,430.42L533.81,429.31L534.85,428.14L534.25,427.46L534.98,426.74L535.81,424.37L537.21,423.33L536.99,421.37L537.56,420.87L537.82,419.61L538.92,418.96L540.02,420.22L542.39,420.94L543.51,420.46L544.3,419.46L546.25,419.28L549.94,419.57L551.7,419.98L553.94,420.82L554.39,423.07L554.92,423.65L556.84,421.95L559.15,421.51L559.52,420.96L561.48,419.65L562.26,418.52L563.17,417.88L562.77,416.95L562.12,417.02L561.57,415.81L562.25,414.4L563.78,413.85L564.74,414.76L566.88,414.02L567.33,414.45L568.57,414.34L569.41,413.92L570.96,414.73L571.47,414.43Z" class="land" id="VN-40" title="Bình Thuận"/>
    <path d="M492.02,432.6L492.47,433.14L494.52,432.31L495.63,432.51L495.82,431.32L496.55,430.98L498.42,432.15L498.96,432.89L500.26,432.76L501.63,433.83L504.28,435.21L503.3,439.01L501.96,440.1L502.75,441L503.84,441.22L504.29,442.42L504.86,442.51L505.48,443.49L506.69,443.4L507.88,444.5L509.84,443.57L510.55,443.84L510.87,444.62L510.45,445.19L511.21,446.68L511.43,447.9L510.98,448.86L509.23,450.8L508.6,450.73L508.35,449.42L506.42,450.9L506.12,451.53L505.12,451.71L504.14,451.02L502.01,452.17L500.56,451.22L501.6,450.35L499.96,449.04L498.87,449.17L498.83,448.18L498.12,447.8L497.19,446.39L496.08,445.83L493.37,446.1L489.87,446.21L489.97,448L484.64,447.54L483.59,447.47L481.05,444.08L479.28,443.4L473.15,437.61L473.64,437.46L472.7,435.53L470.43,434.47L469.9,433.44L471.68,433.27L475.2,432.4L477.3,431.12L479.23,430.82L480.15,432.77L482.05,435.28L481.56,436.51L483.18,437.14L484.43,437.31L484.23,436.5L485.1,435.8L486.93,436.75L488.96,438.23L489.78,438.38L492.02,438.23L492.89,439.02L492.78,437.27L491.95,435.69L491.12,434.72L491.56,433.86L491.32,432.65Z" class="land" id="VN-41" title="Long An"/>
    <path d="M508.64,507.38L507.61,509.4L506.43,510.35L506.95,511.4L505.73,511.24L505.18,510.22L506.3,508.57ZM522.3,449.59L523.59,450.5L522.51,451.12L521.18,449.93ZM525.37,450.53L526.01,451.15L525.08,452.53L523.34,453.58L522.55,454.84L521.78,453.62L522.55,452.43L523.17,452.37L523.8,451.48L523.55,450.93L524.63,449.94ZM520.31,443.93L521.38,443.47L523.02,443.66L524.27,442.52L524.97,440.54L525.84,439.76L526.69,440.05L529.81,440.18L529.99,441.54L529.79,442.57L530.38,443.09L531.6,442.51L531.39,441.83L533.15,439.7L533.71,439.59L534.39,438.64L535.5,438.87L535.93,439.69L536.61,439.56L536.46,440.46L537.52,441.25L537.71,442.65L539.07,446.19L537.86,447.24L536.87,448.71L535.34,448.87L534.51,449.83L531.54,449.89L529.93,450.98L528.44,452.54L527.81,452.9L527.01,451.97L526.5,450.71L525.07,449.65L523.91,449.84L522.85,449.42L520.67,449.61L520.17,448.48L520.76,447.54L520.68,447.16L520.23,446.99L520.72,446.06Z" class="land" id="VN-43" title="Bà Rịa–Vũng Tàu"/>
    <path d="M459.58,434.86L459.59,436.15L460.26,436.87L460.96,438.44L461.97,438.56L462.04,439.62L463.27,439.89L462.55,440.93L463.22,441.46L464.93,441.44L464.74,444.12L465.59,446.19L467.16,447.07L468.12,446.98L469.29,447.57L470.4,447.18L471.25,447.67L472.32,449.53L472.42,451.15L471.78,450.99L470.75,452.14L470.92,452.96L469.97,453.68L469.81,454.67L469.2,455.16L467.52,455.42L468.01,456.54L464.52,457.74L463.36,456.3L462.23,457.59L461.03,458.59L460.19,459.46L457.52,457.1L453.99,454.92L448.86,453.65L447.65,451.87L446.62,449.88L445.98,449.21L445.99,448.16L448.97,448.04L449.94,447.17L451.17,445.04L451.92,444.12L456.62,441.31L456.41,440.13L455.45,439.19L455.27,438.01L454.3,435.57L455,434.37L456.12,433.34L457.05,433.16L456.87,434.6L458.51,434.47Z" class="land" id="VN-44" title="An Giang"/>
    <path d="M469.9,433.44L470.43,434.47L472.7,435.53L473.64,437.46L473.15,437.61L479.28,443.4L481.05,444.08L483.59,447.47L484.64,447.54L484.63,448.96L481.9,451.89L481.39,453.31L480.45,453.16L480.64,455.22L482.39,455.81L483.05,456.34L482.51,456.77L483.68,458.03L483.68,459.15L482.46,459.27L482.26,460.44L480.87,460.63L479.97,460.41L479.1,459.27L477.52,458.74L476.03,461.12L474.09,459.32L473.26,457.58L471.65,456L469.81,454.67L469.97,453.68L470.92,452.96L470.75,452.14L471.78,450.99L472.42,451.15L472.32,449.53L471.25,447.67L470.4,447.18L469.29,447.57L468.12,446.98L467.16,447.07L465.59,446.19L464.74,444.12L464.93,441.44L463.22,441.46L462.55,440.93L463.27,439.89L462.04,439.62L461.97,438.56L460.96,438.44L460.26,436.87L459.59,436.15L459.58,434.86L461.29,435.51L462.15,435.37L464.61,436.62L466.23,434.59L466.9,434.2L467.53,432.78Z" class="land" id="VN-45" title="Đồng Tháp"/>
    <path d="M484.64,447.54L489.97,448L489.87,446.21L493.37,446.1L496.08,445.83L497.19,446.39L498.12,447.8L498.83,448.18L498.87,449.17L499.96,449.04L501.6,450.35L500.56,451.22L502.01,452.17L504.14,451.02L505.12,451.71L506.12,451.53L506.42,450.9L508.35,449.42L508.6,450.73L509.23,450.8L510.98,448.86L512.72,451.37L512.6,455.66L511.41,456.94L512.56,458.1L510.99,458.94L508.09,457.62L504.37,456.61L502.31,455.3L501.46,455.31L500.01,454.41L498.7,454.21L496.69,454.88L496.07,454.57L493.27,455.09L491.12,456.1L489.23,456.28L487.72,455.58L486.39,454.55L485.77,454.61L484.11,456.09L483.05,456.34L482.39,455.81L480.64,455.22L480.45,453.16L481.39,453.31L481.9,451.89L484.63,448.96Z" class="land" id="VN-46" title="Tiền Giang"/>
    <path d="M420.07,450.43L421.17,451.68L422.05,452.06L422.79,453.14L422.58,454.29L422.83,455.23L422.64,456.26L422.86,457.37L422.02,458.85L421.38,461.62L420.76,462.81L421.61,463.32L421.16,464.51L420.48,465.31L419.83,463.99L419.71,462.74L418.76,458.29L418.42,457.44L417.3,455.86L415.53,455.46L414.79,452.88L417.52,453.5L418.39,452.09L419.06,451.79L419.26,450.8ZM445.99,448.16L445.98,449.21L446.62,449.88L447.65,451.87L448.86,453.65L453.99,454.92L457.52,457.1L460.19,459.46L461.03,458.59L460.87,458.85L463.25,460.96L463.9,460.9L465.09,462.23L465.46,463.17L471.03,468.37L471.27,468.59L470.5,470.27L468.49,471.63L467.67,471.85L467.87,472.65L466.81,473.42L467.05,474.1L464.27,475.73L464.62,476.56L465.65,477.13L466.86,477.39L466.61,478.37L465.76,479.25L464.84,479.38L463.62,478.88L462.87,479.14L464.11,480.53L464.31,481.57L463.12,482.84L463.15,484.73L463.68,485.5L463.16,486.27L462.06,485.9L453.46,480.52L453.14,481.15L452.13,480.61L451.55,481.4L450.58,480.41L449.42,482.69L447.86,481.45L448.62,475.35L449.59,471.5L450.14,470.67L451.9,470.59L453.75,468.59L455.47,467.37L456.9,467.43L456.14,465.44L453.1,462.34L451.98,462.34L450.08,462.76L448.82,461.92L448.28,460.84L446.63,458.85L444.58,457.98L443.76,458.32L442.63,459.31L441.57,461.02L440.61,460.65L439.73,459.37L439.83,458.38L439.46,457.03L437.83,455.19L437.17,454.01L435.18,452.13L434.76,451.39L436.06,451.12L436.76,451.92L437.68,450.58L438.46,450.24L438.73,449.03L439.5,448.64L439.68,447.8L441.61,447.8L442.98,447.53L445.15,448.18Z" class="land" id="VN-47" title="Kiên Giang"/>
    <path d="M487.72,455.58L487.79,457.19L489.98,457.55L491.34,458.76L492.83,459.66L494.05,460.83L496.19,463.97L494.58,462.89L494.03,463.73L494.28,464.86L493.57,465.37L492.88,464.77L491.56,465.06L491.05,464.85L490.95,466.93L490.31,467.73L489.45,467.01L488.4,467.45L487.88,468.12L486.13,468.94L485.98,469.6L483.99,468.01L483.14,467.74L481.4,466.19L479.43,463.37L476.03,461.12L477.52,458.74L479.1,459.27L479.97,460.41L480.87,460.63L482.26,460.44L482.46,459.27L483.68,459.15L483.68,458.03L482.51,456.77L483.05,456.34L484.11,456.09L485.77,454.61L486.39,454.55Z" class="land" id="VN-49" title="Vĩnh Long"/>
    <path d="M487.72,455.58L489.23,456.28L491.12,456.1L493.27,455.09L496.07,454.57L496.69,454.88L498.7,454.21L500.01,454.41L501.46,455.31L502.31,455.3L504.37,456.61L508.09,457.62L510.99,458.94L512.84,460.52L512.84,461.95L511.38,463.84L509.83,464.23L509.47,465.12L508.07,466.51L506.92,466.43L505.88,465.89L505.56,466.36L506.52,467.09L508.49,468.01L509.5,469.51L508.49,471.24L507.41,472.2L506.84,472.26L502.69,468.16L501.9,467.9L500.48,467.25L498.34,465.62L497.32,465.18L496.19,463.97L494.05,460.83L492.83,459.66L491.34,458.76L489.98,457.55L487.79,457.19Z" class="land" id="VN-50" title="Bến Tre"/>
    <path d="M485.98,469.6L486.13,468.94L487.88,468.12L488.4,467.45L489.45,467.01L490.31,467.73L490.95,466.93L491.05,464.85L491.56,465.06L492.88,464.77L493.57,465.37L494.28,464.86L494.03,463.73L494.58,462.89L496.19,463.97L497.32,465.18L498.34,465.62L500.48,467.25L501.9,467.9L504.71,470.75L503.92,471.32L503.48,470.64L502.17,470.26L503.75,472.16L503.78,473.5L505.52,474.55L505.81,476.58L505.24,478.34L504.18,479.83L503.31,480.5L500.38,481.49L499.09,481.52L497.99,480.04L496.12,478.87L495.84,479.16L493.5,477.41L490.12,473.9L488.86,473.11L486.73,470.8Z" class="land" id="VN-51" title="Trà Vinh"/>
    <path d="M483.14,467.74L483.99,468.01L485.98,469.6L486.73,470.8L488.86,473.11L490.12,473.9L493.5,477.41L495.84,479.16L496.33,479.98L496.11,481.06L495.25,482.34L494.29,482.64L493.51,481.97L493.43,483.78L492.11,485.09L492.88,485.72L492.81,486.61L492.07,487.39L490.81,488.11L489.76,488.02L488.53,488.38L480.85,491.12L480.33,487.91L481.88,487.23L481.54,486.24L481.16,485.83L480.4,486.72L479.69,486.63L479,485.48L478.13,485.66L476.79,486.6L475.71,486.18L474.94,486.29L474.56,485.56L473.26,485.06L472.63,485.5L471.46,484.16L471.41,483.49L471.81,480.46L471.49,479.6L472.49,478.63L473.14,478.84L475.59,478.01L476.94,476.82L481.37,474.11L481.68,471.58L482.3,469.66L482.35,468.73Z" class="land" id="VN-52" title="Sóc Trăng"/>
    <path d="M470.99,27.4L471.5,26.55L473.97,25.05L474.9,25.1L475.42,24.19L476.35,24.4L477.96,23.58L479.09,25.61L477.59,27.51L478.42,28.35L480.06,31.36L481.27,31.68L482.24,31.48L483.63,32.4L484.36,31.25L485.13,31.41L486.84,30.26L488.82,29.73L489.79,30.54L489.97,31.66L490.59,31.89L490.58,33.23L489.74,34.24L490.26,35.86L491.24,36.02L491.86,35.47L492.73,36.18L493.84,37.68L493.18,38.9L494.76,40.94L494.44,42.18L493.9,42.7L494.31,43.74L492.57,45.51L491.77,47.21L490.65,47.08L489.88,47.57L489.73,48.84L490.24,49.62L490.28,51.48L489.83,52.37L488.52,52.23L487.54,51.29L486.96,52.38L485.78,52.3L484.78,53.62L483.58,53.89L482.62,55.19L481.92,55.65L480.4,55.73L479.89,57.12L478.59,56.61L478.91,55.19L479.08,51.81L478.3,49.67L476.83,49.31L475.55,48.43L475.03,49.3L473.03,49.76L472.45,51.65L471.79,51.66L471.03,51.29L469.76,49.73L469.53,48.43L468.71,47.47L469.11,46.65L468.72,46.01L469.72,44.48L468.7,44.07L467.66,42.38L467.91,41L468.62,39.96L469.68,39.61L469.82,37.9L470.41,37.63L470.55,35.77L471.7,35.36L471.93,33.54L473.21,32.59L473.2,31.37L472.53,30.07L472.04,29.97L470.9,27.9Z" class="land" id="VN-53" title="Bắc Kạn"/>
    <path d="M482.98,74.21L482.59,73.79L483.63,72.42L484.58,72.55L485.26,70.29L485.84,71.09L487.46,71.61L487.39,70.45L488.14,70.1L487.95,67.5L488.45,64.35L489.86,63.56L490.78,63.88L491.95,63.56L492.69,64.3L492.17,64.63L492.13,67.56L494.84,68.46L496.12,68.32L495.97,69.71L496.86,69.73L497.59,70.31L497.31,71.1L497.87,71.68L499.08,71.81L500.44,70.25L501.96,70.26L502.58,69.84L502.98,68.64L503.88,68.02L503.42,67.13L505.05,64.68L506.99,64.16L507.67,64.42L508.81,64.12L509.89,64.69L509.8,65.46L510.92,66.4L511.79,65.5L512.68,65.27L513.33,65.9L514.57,65.88L515.1,67.22L514.63,68.2L516.08,68.36L516.15,69.74L516.82,70.5L519.31,70.17L519.89,70.82L519.28,71.55L519.35,73.03L520.84,74.25L520.12,75.34L518.86,75.71L519.28,76.62L517.64,79.82L516.99,79.27L515.56,79.64L514.97,79.12L514.01,79.13L514,79.99L512.9,80.52L510.52,80.16L509.73,79.78L506.82,79.75L505.89,79L504.6,79L504.1,77.9L503.22,77.85L500.64,77.62L500.26,78.44L498.98,78.88L498.73,79.65L496.84,79.43L497.28,80.55L496.5,81.49L495.6,81.1L495,79.76L492.22,79.37L491.62,78.41L490.59,78.79L489.55,78.52L486.93,76.61L485.78,77.89L484.49,77.17L484,75.61Z" class="land" id="VN-54" title="Bắc Giang"/>
    <path d="M463.16,486.27L463.68,485.5L463.15,484.73L463.12,482.84L464.31,481.57L464.11,480.53L462.87,479.14L463.62,478.88L464.84,479.38L465.76,479.25L467.23,479.38L468.99,479.23L469.6,479.73L471.11,479.22L471.49,479.6L471.81,480.46L471.41,483.49L471.46,484.16L472.63,485.5L473.26,485.06L474.56,485.56L474.94,486.29L475.71,486.18L476.79,486.6L478.13,485.66L479,485.48L479.69,486.63L480.4,486.72L481.16,485.83L481.54,486.24L481.88,487.23L480.33,487.91L480.85,491.12L477.49,492.74L471.07,495.48L469.31,496.58L467.46,498.65L467.2,498.44L466.98,497.6L464.67,496.89L463.92,496.91L463.25,496.31L462.46,496.48L461.5,495.95L462.21,493.96L461.75,492.65L461.08,492.13L461.92,490.87L463.12,489.91L461.92,488.75L461.6,488.06Z" class="land" id="VN-55" title="Bạc Liêu"/>
    <path d="M484.49,77.17L485.78,77.89L486.93,76.61L489.55,78.52L490.59,78.79L491.62,78.41L492.22,79.37L495,79.76L495.6,81.1L496.5,81.49L496.37,82.03L496.91,83.75L496.36,85.04L495.42,86.26L493.89,86.19L490.78,86.41L489.55,85.58L488.25,85.58L487.54,86.08L486.59,85.83L487.22,84.37L486.52,83.19L485.49,83.26L485.15,82.59L483.67,81.36L484.11,80.83L483.47,78.99L483.88,77.6Z" class="land" id="VN-56" title="Bắc Ninh"/>
    <path d="M510.69,417.59L511.72,416.68L511.63,415.81L512.84,415.3L513.35,416.63L512.22,417.48L512.14,418.23L512.66,419.05L513.97,418.96L514.98,419.21L515.02,421.29L515.99,420.37L517.01,419.85L517.76,420.02L518.22,420.79L517.73,421.46L517.34,423.49L516.68,425.34L517.57,425.45L518.23,426.31L518.23,427.5L518.61,428.21L516.87,430.48L515.58,431.19L514.46,430.52L514.04,429.67L513.11,429.94L513.41,430.98L512.3,431.67L513.01,432.81L511.91,433.45L514.47,435.3L513.42,436.1L512.76,436.2L512.08,435.45L511.35,436.21L510.4,435.37L509.48,435.9L509.35,434.59L508.18,434.13L508.09,432.52L507.03,432.21L507.15,431.57L505.59,430.02L504.88,430.32L503.96,429.37L504.06,427.78L503.42,427.06L501.74,427.04L501.42,427.3L499.45,425.59L499.49,424.68L498.89,423.59L498.23,423.46L498.27,422.2L497.7,421.87L498.02,420.9L497.41,420.25L498.88,416.7L500.01,416.2L500.67,415.13L502.84,414.92L504.52,416.1L505.56,416.4L504.55,417.52L504.54,418.83L504.98,419.29L506.93,418.82L507.05,419.61L508.96,419.84L509.13,418.89L509.99,418.54L510.44,417.64Z" class="land" id="VN-57" title="Bình Dương"/>
    <path d="M517.73,421.46L518.22,420.79L517.76,420.02L517.01,419.85L515.99,420.37L515.02,421.29L514.98,419.21L513.97,418.96L512.66,419.05L512.14,418.23L512.22,417.48L513.35,416.63L512.84,415.3L511.63,415.81L511.72,416.68L510.69,417.59L510.44,417.64L509.99,418.54L509.13,418.89L508.96,419.84L507.05,419.61L506.93,418.82L504.98,419.29L504.54,418.83L504.55,417.52L505.56,416.4L504.52,416.1L502.84,414.92L500.67,415.13L500.93,413.59L502.28,413.38L502.92,412.59L502.15,411.07L501.51,409.17L500.32,405.93L501.43,403.96L501.47,402.52L502.08,402.48L500.25,398.88L501.68,398.36L502.84,399.02L507.78,398.86L508.38,398.35L509.29,399.17L510.47,399.01L511.83,396.71L512.94,395.2L513.91,395.17L514.87,395.71L515.95,395.52L517.01,395.89L519.57,395.03L522.45,392.44L523.05,391.25L524.33,389.69L524.82,388.62L526.62,387.93L527.33,392.91L527.15,393.68L527.74,394.12L527.42,395.1L527.47,397.06L530.54,397.86L531.44,399.06L531.49,400.06L532.48,400.61L533.33,402.46L533.98,402.72L533.41,404.56L532.76,405.89L529.79,406.82L529.27,407.31L529.25,408.61L528.62,409.47L528.8,410.31L529.89,410.95L529.66,412.06L530.1,413.08L530.97,413.38L530.5,413.59L524.33,414.93L523.79,415.57L523,415.67L522.3,416.52L522.37,417.78L521.59,419.29L519.9,420.66Z" class="land" id="VN-58" title="Bình Phước"/>
    <path d="M447.86,481.45L449.42,482.69L450.58,480.41L451.55,481.4L452.13,480.61L453.14,481.15L453.46,480.52L462.06,485.9L463.16,486.27L461.6,488.06L461.92,488.75L463.12,489.91L461.92,490.87L461.08,492.13L461.75,492.65L462.21,493.96L461.5,495.95L462.46,496.48L463.25,496.31L463.92,496.91L464.67,496.89L466.98,497.6L467.2,498.44L466.46,499.79L466.26,500.85L465.12,503.52L464.2,505.04L462.17,507.22L460.38,507.64L459.34,508.18L458.06,509.69L457.65,510.87L456.97,511.6L455.44,511.93L453.63,512.77L452.06,513.19L447.96,514L446.83,513.47L444.98,513.05L443.97,512.55L444.25,511.16L445.27,511.45L446.75,510.95L446.42,510.44L446.34,509.02L447.48,508.21L449.18,507.79L449.61,506.19L447.11,507L446.06,505.52L446.71,502.2L446.81,497.46L446.99,495.19L446.95,493.34L447.38,490.93Z" class="land" id="VN-59" title="Cà Mau"/>
    <path d="M496.5,81.49L497.28,80.55L496.84,79.43L498.73,79.65L498.98,78.88L500.26,78.44L500.64,77.62L503.22,77.85L502.59,80.19L502.62,81.26L501.88,81.73L501.2,83.06L501.7,83.51L502.73,83.41L503.68,84.18L505.68,83.79L506.86,85.08L505.32,85.14L505,86.06L505.99,86.76L506.21,87.7L505.7,88.3L504.58,87.84L504.49,89.38L504.89,90.33L503.05,91.5L502.7,92.95L503.1,93.9L502.28,94.59L501.84,95.69L500.1,95.49L498.45,96.45L497.62,96.11L496.61,96.86L495.51,97.04L494.12,96.31L493.73,94.71L491.59,93.58L490.91,92.71L490.87,91.4L491.44,89.81L491.08,89.26L491.53,87.25L490.78,86.41L493.89,86.19L495.42,86.26L496.36,85.04L496.91,83.75L496.37,82.03Z" class="land" id="VN-61" title="Hải Dương"/>
    <path d="M486.65,96.34L487.52,96.83L487.59,98.36L488.46,99.75L489.1,99.94L490.57,99.43L490.94,100.94L492.26,101.94L492.64,104.13L491.45,104.71L491.22,103.78L489.88,104.05L489.04,104.71L488.01,104.65L487.02,107.16L485.39,106.23L484.91,107.01L484.04,107.27L484.39,108.28L483.3,108.09L481.83,106.21L481.64,104.38L479.75,103.18L478.87,101.28L479.78,101.16L480.4,98.83L481.04,98.35L482.52,98.52L483.88,97.35L484.72,98.1L485.8,97.73Z" class="land" id="VN-63" title="Hà Nam"/>
    <path d="M486.59,85.83L487.54,86.08L488.25,85.58L489.55,85.58L490.78,86.41L491.53,87.25L491.08,89.26L491.44,89.81L490.87,91.4L490.91,92.71L491.59,93.58L493.73,94.71L494.12,96.31L495.51,97.04L493.28,98.49L491.41,97.96L490.22,98.53L490.57,99.43L489.1,99.94L488.46,99.75L487.59,98.36L487.52,96.83L486.65,96.34L485.66,96.48L485.46,93.89L484.21,93.42L483.6,91.88L484.34,91.11L484.24,90.3L483.2,89.2L483.73,88.07L483.75,86.71L485.07,86.96L485.62,85.95Z" class="land" id="VN-66" title="Hưng Yên"/>
    <path d="M505.36,111.6L506.08,113.14L505.62,113.85L504.7,113.65L504.86,111.88ZM484.39,108.28L484.04,107.27L484.91,107.01L485.39,106.23L487.02,107.16L488.01,104.65L489.04,104.71L489.88,104.05L491.22,103.78L491.45,104.71L492.64,104.13L494.02,104.74L493.52,106.11L493.85,106.74L495.66,107.02L495.97,107.84L494.99,108.7L495.79,109.63L497.81,107.93L498.39,108.8L499.82,109.35L500.82,110.6L501.89,111.07L504.06,110.1L505.15,111.24L504.82,111.88L504.74,112.68L503.19,113.54L500.1,114.1L498.46,115.12L497.35,116.23L492.49,122.23L490.96,123L490.94,123.95L489.72,124.4L489.96,123.63L489.73,122.32L490.36,119.64L491.21,119.02L491.5,117.66L492.13,116.69L491.94,114.6L491.38,113.25L490.1,113.63L489.77,112.34L488.4,113.61L485.95,111.99L486.05,111.01L485.41,110.19L484.43,109.67L485.04,108.79Z" class="land" id="VN-67" title="Nam Định"/>
    <path d="M456.2,60.22L458.54,61.32L459.24,61.33L460.15,62.21L461.16,62.34L460.85,63.38L462.25,66.37L464.13,67.76L465.07,70.93L465.76,70.38L466.57,71.15L466.44,73.01L468.47,74.72L468.07,76.4L467.75,75.58L466.51,75.01L465.24,75.54L465.12,76.88L464.6,78.37L463.42,79.01L462.88,79.93L463.96,81.79L463.11,83.93L463.88,85.4L464.79,87.94L462.48,88.51L461.54,87.77L460.1,88.78L460.19,87.58L457.7,88.04L456.4,87.24L455.68,85.88L454.76,85.49L453.66,84.48L452.12,83.69L451.29,83.85L450.4,81.88L448.48,80.48L448.85,78.5L448.09,76.52L448.15,74.85L447.24,73.91L448.34,73.76L448.81,72.84L449.5,72.59L450.28,71.07L450.41,69.94L449.52,68.01L449.12,66.01L449.97,65.71L449.8,64.29L450.67,63L453.98,61.3L454.35,60.83L455.75,61.51L456.66,61.24Z" class="land" id="VN-68" title="Phú Thọ"/>
    <path d="M471.79,51.66L472.45,51.65L473.03,49.76L475.03,49.3L475.55,48.43L476.83,49.31L478.3,49.67L479.08,51.81L478.91,55.19L478.59,56.61L479.89,57.12L480.4,55.73L481.92,55.65L482.62,55.19L483.58,53.89L484.78,53.62L485.78,52.3L486.96,52.38L487.54,51.29L488.52,52.23L489.83,52.37L490.92,52.98L490.31,54.06L490.27,55.53L489.72,56.55L490.27,57.95L491.1,57.84L491.51,58.68L494.45,60.3L494.04,61.59L492.91,62.8L492.69,64.3L491.95,63.56L490.78,63.88L489.86,63.56L488.45,64.35L487.95,67.5L488.14,70.1L487.39,70.45L487.46,71.61L485.84,71.09L485.26,70.29L484.58,72.55L483.63,72.42L482.59,73.79L482.98,74.21L481.84,73.77L481.79,72.42L479.95,72.11L479.41,73.02L479.4,73.03L478.14,71L477.56,71.25L476.74,70.13L475.78,69.52L474.99,69.52L471.83,65.49L471.36,65.38L469.83,63.78L469.26,61.79L470.25,59.07L469.76,58.2L469.74,56.31L470.5,56.34L470.89,55.42L470.56,54.56L471.7,53.42Z" class="land" id="VN-69" title="Thái Nguyên"/>
    <path d="M471.36,65.38L471.83,65.49L474.99,69.52L475.78,69.52L476.74,70.13L477.56,71.25L478.14,71L479.4,73.03L479.4,73.03L478.37,75.32L477.8,75.61L477.36,76.88L477.69,77.51L479.52,78.84L478.98,79.49L479.03,80.73L477.65,81.47L476.66,80.81L474.32,80.19L474.03,79.59L471.87,80.21L469.69,80.1L468.93,79.54L468.66,78L468.07,76.4L468.47,74.72L466.44,73.01L466.57,71.15L465.76,70.38L465.07,70.93L464.13,67.76L465.67,67.14L466.31,67.61L467.64,67.8L469.52,67.38L470.66,66.76Z" class="land" id="VN-70" title="Vĩnh Phúc"/>
    <path d="M364.55,30.09L364.58,30.58L365.92,33.09L366.92,33.64L366.69,35.42L368.01,36.84L368.76,37.21L370.94,40.81L371.89,41.44L373.07,40.8L374.45,41.73L374.44,43.01L376.38,44.14L377.05,42.68L376.85,41.3L378,41.6L378.92,42.68L378.39,44.05L378.58,45.48L379.74,46.53L379.63,47.01L381.07,47.78L383.33,47.45L384.86,46.71L384.73,47.66L386.58,49.19L387.05,48.26L388.51,48.39L389.97,47.62L390.43,46.51L391.81,47.74L392.67,47.32L394.06,47.68L395.09,48.4L396.4,48.78L396.07,47.46L396.53,46.24L398.02,44.62L399.89,44.51L400.47,45.55L401.01,47.58L402.06,48.22L402.52,49.22L402.02,49.83L402.7,50.84L403.47,51.23L402.91,53.39L403.32,54.64L404.33,55.13L405.14,57.4L404.97,58.1L405.99,59.44L406.82,61.55L406.13,61.47L404.96,62.78L405.55,63.52L404.58,64.95L404.17,66.86L402.25,67.38L401.86,68.48L402.12,69.41L401.65,70.49L400.04,70.3L398,71.07L398.97,72.59L399.87,72.87L399.18,73.97L401.23,74.71L401.61,75.65L401.38,79.85L400.13,80.6L400.35,82.08L401.16,83.39L399.35,83.6L398.11,82.63L396.74,82.39L396.17,83.63L396.71,85.11L396.23,85.85L396.96,87.06L396.16,88.16L396.59,89.12L395.17,89.6L394.28,89.54L392.54,88.81L390.78,89.48L390.46,88.16L388.98,85.7L388.16,83.79L386.12,83.44L385.73,81.82L385.03,81.24L384.92,80.19L383.88,79.92L384.11,78.56L383.46,77.09L382.55,76.68L381.26,77.07L380.77,76.44L382.16,75.2L383.6,75.01L383.37,74L383.55,72.14L384.34,71.32L384.14,70.26L382.84,70.75L383.38,69.13L384.14,67.91L385.92,65.65L386.82,64.95L386.34,62.63L386.64,60.35L385.46,59.84L383.76,60.21L382.94,60.77L382.25,60.1L382.33,57.4L382.13,55.89L381.08,55.78L380.74,56.49L381.24,59.6L379.95,60.63L378.38,62.34L376.88,62.18L376.29,62.44L375.29,59.73L375.83,57.58L374.72,54.84L374.24,53.09L372.68,52.4L370.66,51.11L370.06,50.34L370.79,48.81L368.54,47.51L368.48,46.5L366.55,44.71L365.02,44.19L364.52,42.85L363.32,42.74L362.9,41.67L361.85,41.57L361.5,40.33L359.76,39.16L359.51,36.71L358.55,35.83L359.06,34.71L360.01,34.56L362.47,35.27L362.5,33.39L362.81,32.25Z" class="land" id="VN-71" title="Điện Biên"/>
    <path d="M538.38,370.88L540.82,370.67L544.11,371.41L546.45,371.45L547.91,370.34L548.61,372.45L550.01,372.74L549.52,373.77L550.35,376L550.82,378.19L549.49,378.82L549.3,379.67L550.07,380.14L551.1,380.09L552.14,380.75L553.02,381.79L552.46,382.82L551.15,383.01L550.39,383.46L550.06,384.39L550.72,385.27L550.78,386.36L551.39,387.16L554.29,388.18L555.79,389.77L555.91,390.49L556.74,391.72L556.86,392.49L556.37,393.33L554.41,393.26L552.63,393.84L552.29,396.18L553.36,396.21L553.89,398.3L554.63,399.46L555.24,399.74L555.77,400.98L556.56,401.19L556.34,402.13L555.26,403.58L554.91,403.49L552.13,405.09L551.6,404.12L550.49,404.86L549.29,404.05L549.46,402.36L547.38,402.14L547.11,402.62L545.41,403.09L544.18,402.22L543.97,400.86L542.68,400.69L541.65,402.2L540.68,402.55L540.32,403.45L538.98,404.04L538.13,405.05L536.44,404.83L535.75,405.06L535.18,406.09L534.16,405.92L533.63,406.5L532.76,405.89L533.41,404.56L533.98,402.72L533.33,402.46L532.48,400.61L531.49,400.06L531.44,399.06L530.54,397.86L527.47,397.06L527.42,395.1L527.74,394.12L527.15,393.68L527.33,392.91L526.62,387.93L527.43,387.94L528.55,387.23L530.04,386.67L531.22,386.61L532.23,387.61L532.63,388.78L533.51,389.57L534.19,389.67L534.54,388.08L535.32,387.43L536.77,386.83L537.89,386.04L537.91,384.57L539.03,381.16L538.45,380.24L539.39,379L539.25,377.67L538.71,376.15L539.12,374.91L538.35,373.76Z" class="land" id="VN-72" title="Đắk Nông"/>
    <path d="M471.03,468.37L472.05,466.09L472.43,465.85L473.92,467.49L475.22,466.78L475.62,467.69L477.06,467.03L477.38,466.46L478.58,467.06L480.55,466.83L481.4,466.19L483.14,467.74L482.35,468.73L482.3,469.66L481.68,471.58L481.37,474.11L476.94,476.82L475.59,478.01L473.14,478.84L472.49,478.63L471.49,479.6L471.11,479.22L469.6,479.73L468.99,479.23L467.23,479.38L465.76,479.25L466.61,478.37L466.86,477.39L465.65,477.13L464.62,476.56L464.27,475.73L467.05,474.1L466.81,473.42L467.87,472.65L467.67,471.85L468.49,471.63L470.5,470.27L471.27,468.59Z" class="land" id="VN-73" title="Hậu Giang"/>
    <path d="M469.81,454.67L471.65,456L473.26,457.58L474.09,459.32L476.03,461.12L479.43,463.37L481.4,466.19L480.55,466.83L478.58,467.06L477.38,466.46L477.06,467.03L475.62,467.69L475.22,466.78L473.92,467.49L472.43,465.85L472.05,466.09L471.03,468.37L465.46,463.17L465.09,462.23L463.9,460.9L463.25,460.96L460.87,458.85L461.03,458.59L462.23,457.59L463.36,456.3L464.52,457.74L468.01,456.54L467.52,455.42L469.2,455.16Z" class="land" id="VN-CT" title="Cần Thơ"/>
    <path d="M546.97,258.99L547.43,257.68L548.21,257.07L548.32,255.72L548.84,255.45L548.86,254.22L550.04,253.57L551.53,254.48L552.61,253.62L553.49,254.32L556.07,254.79L556.97,254.75L558.21,253.91L559.46,253.74L558.18,254.44L557.63,256.02L557.1,256.76L558.35,258.08L559.61,258.5L560.85,257.89L561,257.2L560.07,256.79L560.8,255.9L563.17,256.76L561.25,258.06L561.33,259.51L562.6,262.15L561.96,262.4L561.19,261.9L559.99,263L558.93,263.1L558.1,262.64L557.57,263.42L556.63,262.82L555.68,263.6L554.35,263.27L552.53,263.82L551.3,262.78L552.35,261.42L552.45,260.61L550.98,259.03L549.74,259.85L548.43,258.88Z" class="land" id="VN-DN" title="Đà Nẵng"/>
    <path d="M479.41,73.02L479.95,72.11L481.79,72.42L481.84,73.77L482.98,74.21L484,75.61L484.49,77.17L483.88,77.6L483.47,78.99L484.11,80.83L483.67,81.36L485.15,82.59L485.49,83.26L486.52,83.19L487.22,84.37L486.59,85.83L485.62,85.95L485.07,86.96L483.75,86.71L483.73,88.07L483.2,89.2L480.44,89.3L479.62,88.84L479.79,86.32L478.78,86.39L477.77,85.98L477.5,84.12L477.65,81.47L479.03,80.73L478.98,79.49L479.52,78.84L477.69,77.51L477.36,76.88L477.8,75.61L478.37,75.32L479.4,73.03Z" class="land" id="VN-HN" title="Hà Nội"/>
    <path d="M515.51,91.82L516.64,92.87L514.87,93.29L514.55,92.39ZM506.86,85.08L508.22,85.14L510.03,85.85L511.33,86.01L511.92,86.67L511.82,89.37L510.22,90.28L513.48,92.25L512.15,93L511.58,93.85L512.28,94.41L512.8,95.59L509.97,97.59L509.71,98.39L508.01,99.35L506.54,98.62L504.49,99.75L502.93,99.45L502.56,100.06L501.5,99.33L501.11,97.84L499.86,96.91L500.1,95.49L501.84,95.69L502.28,94.59L503.1,93.9L502.7,92.95L503.05,91.5L504.89,90.33L504.49,89.38L504.58,87.84L505.7,88.3L506.21,87.7L505.99,86.76L505,86.06L505.32,85.14ZM518.1,90.21L518.58,91.04L520.94,90.74L521.37,91.74L523.33,92.82L523.18,93.76L522.21,93.75L522.19,94.85L521.58,96.15L519.4,95.19L518.18,93.2L517.05,92.99L516.64,92Z" class="land" id="VN-HP" title="Hải Phòng"/>
    <path d="M512.72,451.37L510.98,448.86L511.43,447.9L511.21,446.68L510.45,445.19L510.87,444.62L510.55,443.84L509.84,443.57L507.88,444.5L506.69,443.4L505.48,443.49L504.86,442.51L504.29,442.42L503.84,441.22L502.75,441L501.96,440.1L503.3,439.01L504.28,435.21L501.63,433.83L500.26,432.76L498.96,432.89L498.42,432.15L500.31,431.58L500.67,430.25L500.74,428.76L501.42,427.3L501.74,427.04L503.42,427.06L504.06,427.78L503.96,429.37L504.88,430.32L505.59,430.02L507.15,431.57L507.03,432.21L508.09,432.52L508.18,434.13L509.35,434.59L509.48,435.9L510.4,435.37L511.35,436.21L512.08,435.45L512.76,436.2L513.42,436.1L514.47,435.3L514.94,437.12L515.85,438.41L515.28,439L515.31,439.83L513.98,439.4L512.23,440.44L511.57,441.27L511.62,442.1L513.39,443.35L514,444.36L515.9,443.74L517.2,445.02L518.5,445.52L519.23,445.98L520.03,445.03L520.63,445.85L520.05,446.87L520.62,447.35L519.9,448.31L519.02,448.62L518.67,450.04L517.53,449.67L517.68,450.7L518.79,451.93L516.92,452.74L515.81,452.52L515.2,451.17L514.5,452.24L513.06,451.06Z" class="land" id="VN-SG" title="Hồ Chí Minh"/>
  </g>
</svg>